<svg xmlns="http://www.w3.org/2000/svg" viewBox="0 0 161.689 179.755">
  <path d="M 134.520 140.318 L 134.499 140.395 L 133.832 141.828 L 133.781 141.938 L 135.258 141.225 L 135.874 140.870 L 136.442 140.436 L 136.961 139.933 L 137.434 139.377 L 137.863 138.779 L 138.249 138.154 L 138.593 137.513 L 138.897 136.870 L 139.162 136.238 L 139.391 135.630 L 139.584 135.059 L 139.744 134.539 L 139.950 133.754 L 140.117 132.948 L 140.243 132.122 L 140.330 131.276 L 140.377 130.410 L 140.385 129.525 L 140.353 128.620 L 140.281 127.697 L 140.170 126.756 L 140.019 125.796 L 139.828 124.819 L 139.463 123.328 L 140.445 123.874 L 141.315 124.407 L 142.078 124.922 L 142.739 125.412 L 143.303 125.869 L 143.776 126.288 L 144.162 126.661 L 144.467 126.982 L 144.697 127.245 L 144.855 127.442 L 144.979 127.614 L 145.273 128.089 L 145.760 128.878 L 146.046 127.419 L 146.181 126.677 L 146.296 125.936 L 146.393 125.197 L 146.470 124.459 L 146.528 123.723 L 146.566 122.989 L 146.586 122.258 L 146.586 121.529 L 146.567 120.804 L 146.529 120.082 L 146.471 119.363 L 146.394 118.648 L 146.318 118.079 L 146.231 117.512 L 146.130 116.948 L 146.018 116.387 L 145.893 115.829 L 145.757 115.275 L 145.608 114.725 L 145.448 114.178 L 145.275 113.636 L 145.091 113.098 L 144.894 112.564 L 144.686 112.036 L 143.570 109.656 L 144.160 110.432 L 144.668 111.239 L 145.101 112.059 L 145.464 112.874 L 145.763 113.664 L 146.004 114.411 L 146.192 115.096 L 146.334 115.701 L 146.434 116.206 L 146.499 116.594 L 146.535 116.845 L 146.956 121.197 L 147.701 116.987 L 147.810 116.316 L 147.900 115.648 L 147.972 114.982 L 148.024 114.321 L 148.057 113.663 L 148.072 113.009 L 148.067 112.359 L 148.043 111.713 L 148.001 111.073 L 147.939 110.437 L 147.858 109.806 L 147.759 109.181 L 147.665 108.684 L 147.559 108.190 L 147.441 107.701 L 147.311 107.215 L 147.169 106.734 L 147.016 106.258 L 146.850 105.786 L 146.673 105.319 L 146.484 104.856 L 146.283 104.400 L 146.070 103.948 L 145.847 103.502 L 144.741 101.632 L 145.634 102.157 L 146.497 102.653 L 147.330 103.117 L 148.132 103.545 L 148.901 103.936 L 149.637 104.284 L 150.339 104.588 L 151.005 104.843 L 151.635 105.048 L 152.228 105.198 L 152.783 105.290 L 153.300 105.322 L 154.141 105.219 L 154.418 105.145 L 154.681 105.057 L 154.929 104.953 L 155.162 104.835 L 155.381 104.702 L 155.584 104.554 L 155.772 104.392 L 155.945 104.215 L 156.102 104.024 L 156.245 103.818 L 156.371 103.597 L 156.582 103.101 L 156.718 102.567 L 156.786 102.003 L 156.793 101.415 L 156.745 100.808 L 156.649 100.190 L 156.512 99.566 L 156.339 98.943 L 156.138 98.326 L 155.915 97.723 L 155.677 97.139 L 155.430 96.581 L 155.395 95.484 L 155.304 94.425 L 155.161 93.405 L 154.972 92.426 L 154.742 91.488 L 154.477 90.592 L 154.183 89.739 L 153.864 88.930 L 153.526 88.166 L 153.175 87.449 L 152.816 86.778 L 152.454 86.156 L 154.147 86.974 L 154.376 87.096 L 155.041 87.469 L 156.388 88.271 L 156.125 86.980 L 155.932 86.100 L 155.713 85.244 L 155.469 84.413 L 155.200 83.606 L 154.907 82.823 L 154.589 82.066 L 154.247 81.334 L 153.881 80.628 L 153.490 79.947 L 153.076 79.293 L 152.637 78.666 L 152.175 78.065 L 151.991 77.842 L 151.809 77.628 L 151.626 77.423 L 151.445 77.226 L 151.266 77.037 L 151.088 76.857 L 150.912 76.685 L 150.738 76.521 L 150.567 76.364 L 150.399 76.215 L 150.071 75.939 L 151.548 75.908 L 152.949 75.836 L 154.268 75.730 L 155.499 75.598 L 156.636 75.446 L 157.673 75.282 L 158.603 75.113 L 159.420 74.946 L 160.119 74.788 L 160.693 74.647 L 161.135 74.529 L 161.686 74.370 L 160.838 73.380 L 160.477 73.439 L 160.026 73.494 L 159.485 73.535 L 158.856 73.555 L 158.139 73.546 L 157.335 73.500 L 156.445 73.409 L 155.469 73.264 L 154.410 73.058 L 153.267 72.782 L 152.041 72.429 L 150.883 72.044 L 149.714 71.608 L 148.534 71.120 L 147.344 70.580 L 146.144 69.989 L 144.933 69.346 L 143.713 68.653 L 142.483 67.909 L 141.243 67.114 L 139.994 66.268 L 138.737 65.372 L 137.470 64.426 L 137.772 64.222 L 138.112 63.973 L 138.487 63.675 L 138.893 63.328 L 139.326 62.926 L 139.783 62.468 L 140.259 61.951 L 140.752 61.371 L 141.256 60.725 L 141.769 60.012 L 142.286 59.227 L 142.804 58.368 L 143.220 57.621 L 143.619 56.846 L 144.002 56.046 L 144.367 55.219 L 144.717 54.366 L 145.049 53.488 L 145.364 52.585 L 145.663 51.657 L 145.944 50.704 L 146.207 49.728 L 146.453 48.727 L 146.682 47.704 L 146.941 46.398 L 147.173 45.057 L 147.377 43.681 L 147.554 42.269 L 147.704 40.823 L 147.826 39.344 L 147.920 37.831 L 147.987 36.285 L 148.026 34.708 L 148.037 33.099 L 148.021 31.459 L 147.976 29.789 L 147.837 23.626 L 147.862 18.415 L 148.024 14.078 L 148.294 10.533 L 148.644 7.702 L 149.045 5.505 L 149.470 3.862 L 149.889 2.692 L 150.275 1.917 L 150.600 1.457 L 150.834 1.232 L 150.898 1.164 L 150.906 0.000 L 150.587 0.006 L 149.960 0.030 L 149.020 0.080 L 147.796 0.168 L 146.317 0.302 L 144.613 0.493 L 142.712 0.750 L 140.643 1.085 L 138.435 1.505 L 136.118 2.023 L 133.720 2.646 L 131.270 3.386 L 129.810 3.881 L 128.391 4.405 L 127.012 4.958 L 125.675 5.539 L 124.379 6.149 L 123.125 6.786 L 121.915 7.451 L 120.747 8.143 L 119.623 8.863 L 118.543 9.609 L 117.508 10.382 L 116.518 11.181 L 115.370 12.194 L 114.291 13.246 L 113.280 14.336 L 112.338 15.464 L 111.466 16.630 L 110.663 17.833 L 109.930 19.073 L 109.267 20.349 L 108.675 21.660 L 108.153 23.007 L 107.702 24.389 L 107.322 25.805 L 107.098 25.851 L 106.876 25.904 L 106.656 25.963 L 106.439 26.028 L 106.225 26.097 L 106.012 26.171 L 105.802 26.248 L 105.594 26.328 L 104.272 26.875 L 103.776 27.070 L 103.292 27.236 L 102.818 27.361 L 102.349 27.436 L 101.883 27.450 L 101.416 27.392 L 100.947 27.251 L 100.471 27.016 L 99.986 26.678 L 99.488 26.224 L 98.974 25.645 L 98.373 24.961 L 97.763 24.377 L 97.147 23.885 L 96.530 23.479 L 95.915 23.153 L 95.308 22.898 L 94.711 22.709 L 94.130 22.578 L 93.567 22.499 L 93.029 22.464 L 92.517 22.468 L 92.037 22.503 L 91.698 22.545 L 91.370 22.599 L 91.056 22.664 L 90.756 22.737 L 90.472 22.817 L 90.204 22.901 L 89.953 22.989 L 89.719 23.078 L 89.505 23.167 L 89.311 23.253 L 89.137 23.335 L 88.984 23.411 L 88.843 23.224 L 88.767 23.131 L 88.606 22.951 L 88.521 22.863 L 88.340 22.690 L 88.245 22.606 L 87.942 22.363 L 87.642 22.152 L 87.329 21.949 L 87.005 21.757 L 86.670 21.575 L 86.326 21.404 L 85.975 21.244 L 85.616 21.096 L 85.253 20.961 L 84.885 20.839 L 84.514 20.730 L 84.141 20.636 L 83.768 20.556 L 83.495 20.128 L 83.236 19.708 L 82.992 19.293 L 82.762 18.885 L 82.546 18.481 L 82.344 18.082 L 82.155 17.688 L 81.979 17.296 L 81.815 16.908 L 81.665 16.522 L 81.526 16.138 L 80.845 13.991 L 80.290 15.756 L 80.163 16.138 L 80.025 16.522 L 79.874 16.908 L 79.711 17.296 L 79.535 17.688 L 79.346 18.082 L 79.143 18.481 L 78.927 18.885 L 78.697 19.293 L 78.453 19.708 L 78.194 20.128 L 77.921 20.556 L 77.548 20.636 L 77.175 20.731 L 76.805 20.839 L 76.437 20.961 L 76.073 21.097 L 75.715 21.245 L 75.363 21.404 L 75.019 21.575 L 74.685 21.758 L 74.360 21.950 L 74.047 22.153 L 73.747 22.365 L 73.542 22.524 L 73.257 22.776 L 73.083 22.951 L 72.922 23.131 L 72.774 23.317 L 72.705 23.411 L 72.553 23.335 L 72.379 23.253 L 72.184 23.167 L 71.970 23.078 L 71.737 22.989 L 71.486 22.901 L 71.217 22.817 L 70.933 22.737 L 70.633 22.664 L 70.319 22.599 L 69.992 22.545 L 69.652 22.503 L 69.172 22.468 L 68.661 22.464 L 68.122 22.499 L 67.560 22.578 L 66.979 22.709 L 66.382 22.898 L 65.774 23.153 L 65.160 23.480 L 64.543 23.885 L 63.927 24.377 L 63.316 24.961 L 62.715 25.645 L 62.202 26.224 L 61.704 26.678 L 61.218 27.016 L 60.742 27.251 L 60.273 27.392 L 59.806 27.450 L 59.340 27.436 L 58.872 27.361 L 58.397 27.236 L 57.913 27.070 L 57.418 26.875 L 55.677 26.171 L 55.465 26.097 L 55.250 26.028 L 55.033 25.963 L 54.814 25.904 L 54.592 25.851 L 54.368 25.805 L 53.988 24.389 L 53.536 23.007 L 53.014 21.660 L 52.422 20.349 L 51.759 19.073 L 51.026 17.833 L 50.223 16.630 L 49.351 15.464 L 48.409 14.336 L 47.398 13.246 L 46.319 12.194 L 45.171 11.181 L 44.181 10.382 L 43.146 9.609 L 42.066 8.863 L 40.942 8.143 L 39.775 7.451 L 38.564 6.786 L 37.310 6.149 L 36.015 5.539 L 34.677 4.958 L 33.299 4.405 L 31.879 3.881 L 30.419 3.386 L 27.970 2.646 L 25.571 2.023 L 23.254 1.506 L 21.046 1.085 L 18.978 0.751 L 17.076 0.493 L 15.372 0.302 L 13.893 0.168 L 12.669 0.081 L 11.729 0.030 L 11.102 0.007 L 10.791 1.164 L 10.855 1.232 L 11.090 1.457 L 11.414 1.917 L 11.800 2.692 L 12.220 3.862 L 12.644 5.505 L 13.045 7.702 L 13.395 10.533 L 13.665 14.078 L 13.827 18.415 L 13.852 23.626 L 13.713 29.789 L 13.669 31.459 L 13.652 33.099 L 13.663 34.708 L 13.702 36.285 L 13.769 37.831 L 13.863 39.344 L 13.985 40.823 L 14.135 42.269 L 14.312 43.681 L 14.516 45.057 L 14.748 46.398 L 15.007 47.704 L 15.236 48.727 L 15.482 49.727 L 15.745 50.704 L 16.026 51.656 L 16.325 52.584 L 16.640 53.488 L 16.972 54.366 L 17.322 55.219 L 17.688 56.046 L 18.070 56.846 L 18.470 57.621 L 18.885 58.368 L 19.403 59.227 L 19.921 60.012 L 20.433 60.726 L 20.938 61.371 L 21.430 61.951 L 21.907 62.469 L 22.363 62.927 L 22.796 63.328 L 23.202 63.676 L 23.577 63.973 L 23.918 64.222 L 24.219 64.426 L 22.953 65.372 L 21.695 66.268 L 20.446 67.114 L 19.207 67.909 L 17.977 68.653 L 16.756 69.346 L 15.546 69.989 L 14.345 70.580 L 13.155 71.120 L 11.976 71.608 L 10.806 72.044 L 9.648 72.429 L 8.423 72.782 L 7.280 73.058 L 6.220 73.264 L 5.245 73.409 L 4.355 73.500 L 3.552 73.546 L 2.835 73.555 L 2.205 73.535 L 1.664 73.493 L 1.213 73.439 L 0.851 73.380 L 0.000 74.368 L 0.250 74.443 L 0.557 74.530 L 1.002 74.648 L 1.577 74.789 L 2.276 74.947 L 3.094 75.114 L 4.024 75.282 L 5.059 75.446 L 6.195 75.598 L 7.425 75.730 L 8.742 75.835 L 10.141 75.907 L 11.615 75.939 L 11.453 76.073 L 11.288 76.214 L 11.119 76.363 L 10.948 76.520 L 10.774 76.684 L 10.598 76.857 L 10.420 77.037 L 10.241 77.225 L 10.060 77.422 L 9.878 77.627 L 9.695 77.841 L 9.511 78.064 L 9.049 78.665 L 8.611 79.293 L 8.196 79.947 L 7.805 80.627 L 7.439 81.334 L 7.097 82.065 L 6.779 82.823 L 6.486 83.605 L 6.217 84.412 L 5.973 85.244 L 5.755 86.100 L 5.298 88.271 L 6.430 87.595 L 6.863 87.343 L 8.007 86.733 L 8.488 86.498 L 8.981 86.268 L 9.232 86.155 L 8.870 86.778 L 8.511 87.448 L 8.160 88.166 L 7.822 88.930 L 7.503 89.738 L 7.209 90.591 L 6.944 91.487 L 6.714 92.425 L 6.525 93.405 L 6.382 94.424 L 6.291 95.483 L 6.256 96.580 L 6.009 97.138 L 5.771 97.722 L 5.548 98.326 L 5.347 98.942 L 5.174 99.565 L 5.037 100.189 L 4.941 100.807 L 4.893 101.414 L 4.900 102.002 L 4.968 102.566 L 5.104 103.100 L 5.315 103.597 L 5.442 103.817 L 5.584 104.023 L 5.742 104.215 L 5.915 104.392 L 6.103 104.554 L 6.306 104.702 L 6.524 104.835 L 6.757 104.953 L 7.005 105.056 L 7.268 105.145 L 7.546 105.219 L 7.838 105.278 L 8.387 105.321 L 8.903 105.289 L 9.458 105.197 L 10.051 105.047 L 10.681 104.843 L 11.348 104.587 L 12.049 104.283 L 12.785 103.935 L 13.555 103.545 L 14.356 103.116 L 15.189 102.652 L 16.053 102.156 L 16.946 101.631 L 15.838 103.501 L 15.614 103.947 L 15.402 104.399 L 15.202 104.856 L 15.013 105.318 L 14.836 105.785 L 14.671 106.257 L 14.517 106.734 L 14.375 107.215 L 14.245 107.700 L 14.127 108.190 L 14.021 108.683 L 13.928 109.181 L 13.828 109.806 L 13.747 110.436 L 13.686 111.072 L 13.643 111.713 L 13.619 112.358 L 13.615 113.008 L 13.629 113.662 L 13.662 114.320 L 13.715 114.982 L 13.786 115.647 L 13.876 116.315 L 14.610 120.518 L 14.726 121.172 L 15.140 116.941 L 15.151 116.845 L 15.187 116.594 L 15.252 116.207 L 15.352 115.701 L 15.494 115.097 L 15.682 114.412 L 15.923 113.665 L 16.222 112.875 L 16.586 112.060 L 17.018 111.240 L 17.527 110.432 L 18.116 109.656 L 17.836 110.193 L 17.461 110.970 L 17.000 112.036 L 16.792 112.564 L 16.596 113.098 L 16.411 113.636 L 16.239 114.178 L 16.078 114.725 L 15.930 115.275 L 15.793 115.829 L 15.669 116.387 L 15.556 116.948 L 15.456 117.512 L 15.368 118.079 L 15.292 118.648 L 15.215 119.363 L 15.158 120.082 L 15.119 120.804 L 15.100 121.530 L 15.100 122.258 L 15.120 122.989 L 15.159 123.723 L 15.217 124.459 L 15.294 125.197 L 15.390 125.936 L 15.506 126.677 L 15.902 128.749 L 15.923 128.856 L 16.706 127.617 L 16.738 127.570 L 16.831 127.444 L 16.989 127.246 L 17.219 126.983 L 17.524 126.662 L 17.910 126.288 L 18.383 125.869 L 18.947 125.412 L 19.608 124.922 L 20.371 124.407 L 21.241 123.874 L 22.223 123.328 L 21.858 124.819 L 21.667 125.796 L 21.516 126.756 L 21.405 127.697 L 21.333 128.620 L 21.301 129.525 L 21.309 130.410 L 21.356 131.276 L 21.443 132.122 L 21.570 132.948 L 21.736 133.754 L 21.942 134.539 L 22.102 135.059 L 22.295 135.630 L 22.524 136.238 L 22.790 136.870 L 23.094 137.513 L 23.438 138.154 L 23.823 138.780 L 24.252 139.377 L 24.725 139.934 L 25.245 140.436 L 25.812 140.871 L 26.429 141.225 L 27.907 141.938 L 27.209 140.453 L 27.186 140.395 L 27.166 140.318 L 27.153 140.220 L 27.149 140.099 L 27.159 139.955 L 27.187 139.785 L 27.236 139.587 L 27.309 139.361 L 27.411 139.103 L 27.545 138.814 L 27.715 138.490 L 27.924 138.130 L 28.084 137.874 L 28.251 137.620 L 28.422 137.371 L 28.595 137.129 L 28.767 136.895 L 29.261 136.259 L 30.026 135.344 L 30.152 135.206 L 30.414 134.933 L 30.829 134.536 L 31.276 134.149 L 31.433 134.022 L 31.319 134.557 L 31.211 135.130 L 31.111 135.742 L 31.022 136.389 L 30.947 137.070 L 30.889 137.784 L 30.850 138.528 L 30.834 139.302 L 30.842 140.102 L 30.878 140.928 L 30.944 141.778 L 31.044 142.650 L 31.263 144.013 L 31.558 145.358 L 31.928 146.685 L 32.372 147.993 L 32.891 149.283 L 33.484 150.552 L 34.152 151.801 L 34.892 153.030 L 35.707 154.237 L 36.594 155.423 L 37.554 156.586 L 40.062 159.282 L 39.557 157.095 L 39.505 156.825 L 39.432 156.399 L 39.349 155.828 L 39.265 155.126 L 39.191 154.302 L 39.136 153.371 L 39.111 152.344 L 39.126 151.233 L 39.190 150.051 L 39.314 148.808 L 39.507 147.519 L 39.774 147.983 L 40.079 148.442 L 40.424 148.889 L 40.814 149.322 L 41.249 149.735 L 41.733 150.125 L 42.268 150.488 L 42.857 150.820 L 43.502 151.116 L 44.206 151.371 L 44.971 151.583 L 45.800 151.747 L 46.070 151.923 L 46.498 152.218 L 47.059 152.629 L 47.726 153.154 L 48.473 153.789 L 49.276 154.533 L 50.109 155.382 L 50.946 156.334 L 51.761 157.385 L 52.529 158.533 L 53.223 159.775 L 53.819 161.109 L 54.139 161.832 L 54.503 162.488 L 54.905 163.084 L 55.340 163.623 L 55.801 164.112 L 56.284 164.554 L 56.782 164.955 L 57.289 165.321 L 57.800 165.655 L 58.309 165.964 L 58.809 166.252 L 60.099 166.976 L 60.351 167.125 L 60.594 167.274 L 60.826 167.424 L 61.049 167.577 L 61.259 167.734 L 61.458 167.896 L 61.644 168.062 L 61.817 168.236 L 61.976 168.417 L 62.077 168.546 L 62.178 168.692 L 62.277 168.857 L 62.370 169.042 L 62.454 169.249 L 62.526 169.480 L 62.582 169.736 L 62.619 170.020 L 62.635 170.333 L 62.626 170.677 L 62.588 171.054 L 62.325 172.437 L 63.267 172.135 L 63.370 172.100 L 63.590 172.020 L 63.911 171.894 L 64.315 171.721 L 64.786 171.499 L 65.307 171.227 L 65.861 170.903 L 66.432 170.528 L 67.001 170.099 L 67.553 169.615 L 68.071 169.075 L 68.538 168.479 L 69.124 168.874 L 69.895 169.410 L 70.816 170.075 L 71.853 170.855 L 72.973 171.738 L 74.143 172.712 L 75.330 173.764 L 76.498 174.882 L 77.616 176.052 L 78.650 177.263 L 79.565 178.501 L 80.330 179.754 L 80.340 179.749 L 80.843 179.479 L 81.356 179.754 L 82.120 178.501 L 83.035 177.263 L 84.069 176.052 L 85.187 174.882 L 86.356 173.765 L 87.542 172.713 L 88.712 171.739 L 89.832 170.855 L 90.870 170.075 L 91.790 169.411 L 92.561 168.874 L 93.148 168.479 L 93.614 169.075 L 94.132 169.615 L 94.684 170.099 L 95.254 170.528 L 95.824 170.904 L 96.378 171.227 L 96.900 171.499 L 97.371 171.721 L 97.775 171.895 L 98.095 172.021 L 98.418 172.135 L 99.361 172.437 L 99.361 172.437 L 99.167 171.465 L 99.098 171.054 L 99.060 170.677 L 99.051 170.333 L 99.066 170.020 L 99.104 169.736 L 99.160 169.480 L 99.232 169.249 L 99.315 169.042 L 99.408 168.857 L 99.507 168.692 L 99.609 168.546 L 99.710 168.417 L 99.869 168.236 L 100.041 168.062 L 100.228 167.896 L 100.426 167.734 L 100.637 167.577 L 100.859 167.424 L 101.092 167.274 L 101.335 167.125 L 101.586 166.976 L 102.876 166.252 L 103.377 165.964 L 103.886 165.655 L 104.396 165.321 L 104.904 164.955 L 105.402 164.554 L 105.884 164.112 L 106.346 163.623 L 106.781 163.084 L 107.183 162.488 L 107.547 161.832 L 107.866 161.109 L 108.185 160.355 L 108.537 159.630 L 108.918 158.935 L 109.322 158.272 L 109.744 157.640 L 110.180 157.041 L 110.623 156.475 L 111.069 155.944 L 111.513 155.448 L 111.949 154.988 L 112.372 154.565 L 112.777 154.179 L 113.143 153.846 L 113.499 153.536 L 113.841 153.248 L 114.167 152.984 L 114.474 152.744 L 114.760 152.527 L 115.022 152.335 L 115.258 152.167 L 115.886 151.747 L 116.715 151.583 L 117.480 151.371 L 118.184 151.116 L 118.829 150.820 L 119.418 150.488 L 119.953 150.125 L 120.437 149.735 L 120.872 149.322 L 121.261 148.889 L 121.607 148.442 L 121.912 147.983 L 122.178 147.519 L 122.372 148.808 L 122.496 150.050 L 122.560 151.233 L 122.574 152.344 L 122.549 153.371 L 122.494 154.302 L 122.420 155.125 L 122.336 155.828 L 122.253 156.398 L 122.181 156.824 L 121.621 159.287 L 123.098 157.727 L 124.131 156.586 L 125.091 155.423 L 125.979 154.237 L 126.793 153.030 L 127.534 151.801 L 128.201 150.552 L 128.794 149.282 L 129.313 147.993 L 129.758 146.685 L 130.127 145.358 L 130.422 144.013 L 130.642 142.650 L 130.741 141.778 L 130.808 140.928 L 130.843 140.102 L 130.852 139.302 L 130.835 138.528 L 130.797 137.784 L 130.739 137.070 L 130.664 136.389 L 130.575 135.742 L 130.476 135.130 L 130.368 134.557 L 130.255 134.022 L 130.411 134.149 L 130.712 134.406 L 130.857 134.536 L 131.137 134.800 L 131.404 135.069 L 131.659 135.344 L 132.583 136.458 L 132.748 136.670 L 133.091 137.128 L 133.264 137.371 L 133.434 137.619 L 133.601 137.873 L 133.762 138.130 L 133.971 138.490 L 134.140 138.814 L 134.274 139.103 L 134.376 139.361 L 134.450 139.587 L 134.499 139.785 L 134.526 139.955 L 134.537 140.099 L 134.533 140.220 Z M 95.851 24.427 L 96.322 24.724 L 96.779 25.067 L 97.223 25.457 L 97.652 25.893 L 98.412 26.777 L 98.752 27.133 L 99.089 27.444 L 99.424 27.714 L 99.756 27.943 L 100.085 28.135 L 100.411 28.292 L 100.735 28.415 L 101.056 28.507 L 101.373 28.570 L 101.688 28.606 L 102.000 28.618 L 102.284 28.609 L 102.565 28.582 L 102.844 28.540 L 103.120 28.484 L 103.393 28.416 L 103.664 28.337 L 103.933 28.249 L 104.199 28.154 L 104.462 28.054 L 104.980 27.843 L 105.624 27.573 L 106.010 27.416 L 106.395 27.271 L 106.780 27.141 L 107.165 27.032 L 107.553 26.948 L 107.945 26.894 L 108.340 26.875 L 108.741 26.896 L 109.148 26.960 L 109.563 27.074 L 109.986 27.242 L 109.291 28.040 L 108.600 28.850 L 107.915 29.673 L 107.236 30.508 L 106.562 31.355 L 105.893 32.214 L 105.229 33.085 L 104.572 33.968 L 103.920 34.863 L 103.273 35.769 L 102.633 36.687 L 101.998 37.616 L 101.778 36.580 L 101.080 38.465 L 101.060 38.511 L 100.998 38.630 L 100.889 38.810 L 100.722 39.038 L 100.493 39.302 L 100.192 39.588 L 99.812 39.885 L 99.346 40.179 L 98.786 40.458 L 98.124 40.709 L 97.354 40.920 L 96.468 41.079 L 95.991 41.154 L 95.543 41.245 L 95.125 41.351 L 94.734 41.470 L 94.371 41.601 L 94.033 41.742 L 93.721 41.892 L 93.433 42.050 L 93.168 42.215 L 92.926 42.384 L 92.705 42.556 L 92.504 42.731 L 92.482 42.093 L 92.441 41.457 L 92.381 40.821 L 92.302 40.188 L 92.205 39.558 L 92.088 38.931 L 91.953 38.309 L 91.799 37.691 L 91.627 37.079 L 91.436 36.473 L 91.227 35.874 L 90.032 32.886 L 89.877 35.466 L 89.830 36.063 L 89.759 36.666 L 89.663 37.275 L 89.544 37.891 L 89.400 38.513 L 89.231 39.144 L 89.038 39.782 L 88.820 40.429 L 88.577 41.085 L 88.309 41.751 L 88.017 42.427 L 87.227 44.008 L 86.867 42.683 L 86.791 42.499 L 86.712 42.317 L 86.629 42.137 L 86.543 41.958 L 86.359 41.607 L 86.262 41.434 L 86.162 41.263 L 86.059 41.094 L 85.953 40.927 L 85.733 40.599 L 85.672 39.664 L 85.687 38.781 L 85.763 37.955 L 85.888 37.193 L 86.048 36.499 L 86.231 35.880 L 86.422 35.340 L 86.609 34.884 L 86.778 34.519 L 86.916 34.250 L 87.317 33.602 L 85.649 32.017 L 85.902 31.806 L 86.139 31.582 L 86.359 31.345 L 86.562 31.094 L 86.749 30.830 L 86.919 30.554 L 87.072 30.266 L 87.207 29.966 L 87.325 29.654 L 87.425 29.331 L 87.507 28.996 L 87.571 28.651 L 87.637 27.742 L 87.878 27.662 L 88.106 27.567 L 88.321 27.457 L 88.521 27.333 L 88.708 27.195 L 88.879 27.044 L 89.034 26.880 L 89.172 26.705 L 89.293 26.518 L 89.397 26.319 L 89.482 26.111 L 89.548 25.892 L 89.575 25.774 L 89.596 25.656 L 89.611 25.537 L 89.621 25.417 L 89.625 25.297 L 89.624 25.177 L 89.617 25.056 L 89.605 24.936 L 89.588 24.815 L 89.565 24.695 L 89.537 24.574 L 89.504 24.454 L 89.783 24.319 L 89.952 24.243 L 90.141 24.165 L 90.347 24.086 L 90.569 24.008 L 90.808 23.933 L 91.061 23.861 L 91.328 23.796 L 91.608 23.739 L 91.900 23.692 L 92.202 23.656 L 92.760 23.625 L 93.306 23.642 L 93.840 23.705 L 94.362 23.815 L 94.871 23.972 L 95.368 24.176 Z M 74.375 33.604 L 74.681 34.083 L 74.775 34.252 L 74.914 34.521 L 75.083 34.886 L 75.269 35.342 L 75.461 35.882 L 75.643 36.501 L 75.803 37.195 L 75.928 37.957 L 76.004 38.783 L 76.018 39.666 L 75.958 40.601 L 75.738 40.929 L 75.632 41.096 L 75.529 41.265 L 75.429 41.436 L 75.332 41.609 L 75.238 41.783 L 75.148 41.960 L 75.061 42.139 L 74.978 42.319 L 74.899 42.501 L 74.824 42.685 L 74.463 44.010 L 73.674 42.429 L 73.381 41.753 L 73.113 41.087 L 72.871 40.431 L 72.653 39.784 L 72.459 39.145 L 72.291 38.515 L 72.147 37.893 L 72.027 37.277 L 71.932 36.668 L 71.861 36.065 L 71.657 32.888 L 70.692 35.284 L 70.464 35.876 L 70.255 36.475 L 70.064 37.080 L 69.892 37.692 L 69.738 38.310 L 69.603 38.933 L 69.486 39.559 L 69.389 40.190 L 69.310 40.823 L 69.250 41.458 L 69.209 42.095 L 69.187 42.733 L 68.986 42.558 L 68.765 42.386 L 68.522 42.217 L 68.258 42.053 L 67.970 41.894 L 67.657 41.744 L 67.320 41.603 L 66.956 41.472 L 66.566 41.353 L 66.148 41.247 L 65.700 41.156 L 65.223 41.080 L 64.356 40.927 L 63.601 40.722 L 62.949 40.479 L 62.395 40.208 L 61.931 39.922 L 61.549 39.632 L 61.244 39.350 L 61.007 39.087 L 60.833 38.856 L 60.713 38.667 L 60.642 38.532 L 60.611 38.464 L 59.929 36.503 L 59.692 37.618 L 59.057 36.688 L 58.417 35.771 L 57.770 34.864 L 57.118 33.970 L 56.461 33.087 L 55.797 32.216 L 55.129 31.357 L 54.454 30.510 L 53.775 29.675 L 53.090 28.852 L 52.399 28.042 L 51.704 27.243 L 52.128 27.075 L 52.543 26.961 L 52.950 26.896 L 53.351 26.876 L 53.747 26.895 L 54.138 26.949 L 54.526 27.033 L 54.911 27.142 L 55.296 27.271 L 55.681 27.417 L 56.067 27.573 L 56.968 27.950 L 57.229 28.054 L 57.492 28.155 L 57.758 28.250 L 58.026 28.338 L 58.297 28.416 L 58.571 28.485 L 58.847 28.541 L 59.126 28.583 L 59.407 28.609 L 59.690 28.618 L 60.002 28.607 L 60.317 28.571 L 60.635 28.508 L 60.956 28.415 L 61.279 28.292 L 61.606 28.136 L 61.935 27.944 L 62.267 27.714 L 62.601 27.445 L 62.939 27.133 L 63.279 26.778 L 63.622 26.376 L 64.038 25.894 L 64.468 25.458 L 64.912 25.068 L 65.369 24.724 L 65.839 24.427 L 66.323 24.176 L 66.820 23.973 L 67.329 23.816 L 67.851 23.705 L 68.385 23.642 L 68.932 23.626 L 69.490 23.657 L 69.792 23.693 L 70.083 23.740 L 70.363 23.797 L 70.630 23.862 L 70.883 23.933 L 71.121 24.009 L 71.344 24.087 L 71.550 24.166 L 71.738 24.244 L 71.908 24.319 L 72.057 24.390 L 72.186 24.455 L 72.153 24.575 L 72.126 24.695 L 72.103 24.816 L 72.086 24.936 L 72.074 25.057 L 72.067 25.177 L 72.066 25.298 L 72.070 25.418 L 72.080 25.537 L 72.095 25.657 L 72.117 25.775 L 72.144 25.893 L 72.209 26.111 L 72.294 26.320 L 72.398 26.519 L 72.519 26.706 L 72.657 26.881 L 72.812 27.045 L 72.983 27.196 L 73.169 27.334 L 73.370 27.458 L 73.585 27.568 L 73.813 27.664 L 74.054 27.744 L 74.119 28.653 L 74.183 28.998 L 74.265 29.333 L 74.365 29.656 L 74.483 29.968 L 74.618 30.268 L 74.771 30.556 L 74.941 30.832 L 75.128 31.096 L 75.332 31.347 L 75.552 31.584 L 75.789 31.808 L 76.042 32.019 Z M 15.525 75.797 L 16.586 75.701 L 17.641 75.581 L 18.691 75.437 L 19.733 75.269 L 20.769 75.077 L 21.797 74.861 L 22.818 74.621 L 23.830 74.358 L 24.834 74.071 L 25.829 73.760 L 26.815 73.426 L 27.550 73.159 L 28.280 72.879 L 29.004 72.585 L 29.723 72.278 L 30.437 71.957 L 31.145 71.624 L 31.848 71.277 L 32.545 70.917 L 33.236 70.545 L 33.921 70.159 L 34.600 69.761 L 35.273 69.349 L 34.965 70.411 L 34.617 71.438 L 34.230 72.429 L 33.804 73.382 L 33.341 74.297 L 32.841 75.173 L 32.305 76.007 L 31.732 76.800 L 31.124 77.550 L 30.482 78.256 L 29.805 78.917 L 29.096 79.532 L 28.582 79.933 L 28.051 80.315 L 27.504 80.675 L 26.941 81.015 L 26.363 81.333 L 25.772 81.629 L 25.168 81.903 L 24.552 82.154 L 23.925 82.382 L 23.288 82.586 L 22.643 82.766 L 21.989 82.922 L 21.592 83.001 L 21.194 83.070 L 20.795 83.130 L 20.394 83.180 L 19.993 83.223 L 19.592 83.259 L 19.191 83.290 L 16.124 83.434 L 15.583 83.462 L 15.040 83.498 L 14.495 83.543 L 13.949 83.600 L 13.403 83.671 L 12.855 83.758 L 12.307 83.865 L 11.759 83.993 L 11.211 84.144 L 10.474 84.321 L 10.405 84.416 L 9.672 84.703 L 9.110 84.938 L 8.560 85.180 L 8.024 85.429 L 7.502 85.684 L 6.995 85.945 L 7.462 84.361 L 7.995 82.938 L 8.581 81.669 L 9.203 80.545 L 9.847 79.560 L 10.498 78.706 L 11.141 77.974 L 11.761 77.359 L 12.343 76.852 L 12.872 76.445 L 13.334 76.132 L 13.712 75.904 Z M 134.141 73.159 L 134.876 73.426 L 135.862 73.760 L 136.856 74.071 L 137.860 74.358 L 138.873 74.621 L 139.893 74.861 L 140.922 75.077 L 141.957 75.269 L 143.000 75.437 L 144.049 75.581 L 145.105 75.701 L 146.166 75.797 L 147.978 75.904 L 148.357 76.132 L 148.818 76.445 L 149.348 76.852 L 149.930 77.359 L 150.550 77.975 L 151.193 78.706 L 151.843 79.560 L 152.488 80.546 L 153.110 81.669 L 153.695 82.938 L 154.229 84.361 L 154.696 85.945 L 154.189 85.684 L 153.667 85.429 L 152.858 85.059 L 152.302 84.820 L 152.019 84.703 L 151.216 84.321 L 151.027 84.321 L 150.480 84.144 L 149.932 83.993 L 149.384 83.865 L 148.836 83.759 L 148.288 83.671 L 147.742 83.600 L 147.195 83.543 L 146.651 83.498 L 146.108 83.462 L 145.566 83.434 L 142.500 83.290 L 142.099 83.260 L 141.698 83.224 L 141.297 83.181 L 140.897 83.130 L 140.497 83.071 L 140.100 83.002 L 139.703 82.923 L 139.049 82.767 L 138.403 82.587 L 137.766 82.383 L 137.139 82.155 L 136.523 81.903 L 135.919 81.629 L 135.328 81.333 L 134.750 81.015 L 134.187 80.675 L 133.640 80.315 L 133.109 79.933 L 132.595 79.532 L 131.885 78.917 L 131.209 78.256 L 130.566 77.550 L 129.959 76.800 L 129.386 76.007 L 128.850 75.172 L 128.350 74.297 L 127.887 73.382 L 127.462 72.429 L 127.075 71.438 L 126.727 70.411 L 126.419 69.349 L 127.091 69.761 L 127.770 70.159 L 128.455 70.545 L 129.146 70.917 L 129.842 71.277 L 130.545 71.624 L 131.253 71.957 L 131.967 72.278 L 132.686 72.585 L 133.411 72.879 Z M 49.343 117.068 L 49.460 116.516 L 49.557 115.959 L 50.119 115.686 L 50.679 115.394 L 51.235 115.085 L 51.786 114.761 L 52.332 114.421 L 52.872 114.068 L 53.405 113.704 L 53.929 113.328 L 54.444 112.943 L 54.950 112.549 L 55.444 112.149 L 55.927 111.742 L 55.898 112.103 L 55.906 112.223 L 55.921 112.343 L 55.944 112.461 L 55.974 112.578 L 56.011 112.694 L 56.055 112.810 L 56.106 112.925 L 56.164 113.040 L 56.227 113.154 L 56.297 113.268 L 56.372 113.382 L 56.453 113.496 L 56.350 113.593 L 56.225 113.706 L 56.073 113.837 L 55.894 113.985 L 55.685 114.152 L 55.444 114.337 L 55.169 114.541 L 54.857 114.765 L 54.507 115.010 L 54.117 115.275 L 53.684 115.562 L 53.206 115.870 L 53.047 115.976 L 52.901 116.084 L 52.768 116.194 L 52.648 116.305 L 52.541 116.418 L 52.447 116.533 L 52.365 116.651 L 52.296 116.770 L 52.239 116.892 L 52.195 117.016 L 52.163 117.143 L 52.143 117.272 L 52.137 117.489 L 52.163 117.700 L 52.220 117.907 L 52.304 118.112 L 52.415 118.314 L 52.549 118.517 L 52.704 118.720 L 52.878 118.926 L 53.070 119.135 L 53.276 119.348 L 54.113 120.176 L 54.515 120.587 L 54.921 121.029 L 55.320 121.504 L 55.704 122.018 L 56.062 122.573 L 56.384 123.174 L 56.660 123.825 L 56.881 124.528 L 57.037 125.288 L 57.118 126.108 L 57.114 126.993 L 57.090 127.435 L 57.049 128.333 L 57.033 128.789 L 57.021 129.247 L 57.012 129.708 L 57.009 130.170 L 57.011 130.634 L 57.020 131.099 L 57.036 131.563 L 57.059 132.027 L 57.090 132.490 L 56.080 132.185 L 55.846 132.089 L 55.616 131.985 L 55.390 131.874 L 55.168 131.755 L 54.951 131.629 L 54.738 131.497 L 54.530 131.357 L 54.326 131.209 L 54.127 131.055 L 53.932 130.894 L 53.743 130.726 L 53.383 130.385 L 52.475 129.285 L 52.144 128.859 L 51.771 128.465 L 51.357 128.104 L 50.903 127.776 L 50.410 127.481 L 49.878 127.220 L 49.309 126.993 L 48.703 126.801 L 48.061 126.643 L 47.384 126.520 L 46.673 126.434 L 45.929 126.383 L 44.596 126.379 L 43.744 126.429 L 44.071 126.115 L 44.390 125.797 L 44.701 125.473 L 45.003 125.146 L 45.297 124.814 L 45.582 124.477 L 45.859 124.136 L 46.127 123.791 L 46.387 123.442 L 46.637 123.089 L 46.879 122.732 L 47.112 122.371 L 47.421 121.861 L 47.711 121.347 L 47.982 120.827 L 48.234 120.303 L 48.467 119.775 L 48.681 119.242 L 48.875 118.704 L 49.050 118.163 L 49.206 117.617 Z M 107.184 115.011 L 106.834 114.766 L 106.523 114.542 L 106.247 114.338 L 106.006 114.153 L 105.797 113.986 L 105.618 113.838 L 105.467 113.707 L 105.341 113.594 L 105.239 113.497 L 105.319 113.383 L 105.395 113.269 L 105.464 113.155 L 105.527 113.040 L 105.585 112.926 L 105.636 112.811 L 105.680 112.695 L 105.717 112.579 L 105.747 112.461 L 105.770 112.343 L 105.786 112.224 L 105.764 111.743 L 106.247 112.149 L 106.742 112.549 L 107.247 112.943 L 107.762 113.328 L 108.287 113.704 L 108.819 114.069 L 109.359 114.421 L 109.905 114.761 L 110.457 115.086 L 111.013 115.395 L 111.572 115.687 L 112.134 115.960 L 112.232 116.516 L 112.349 117.069 L 112.485 117.618 L 112.641 118.163 L 112.816 118.705 L 113.010 119.242 L 113.224 119.775 L 113.457 120.304 L 113.709 120.828 L 113.980 121.347 L 114.270 121.862 L 114.579 122.371 L 114.812 122.732 L 115.054 123.089 L 115.305 123.443 L 115.564 123.792 L 115.832 124.137 L 116.109 124.478 L 116.394 124.814 L 116.688 125.146 L 116.990 125.474 L 117.301 125.798 L 117.620 126.116 L 117.947 126.431 L 117.097 126.380 L 116.542 126.369 L 115.762 126.384 L 115.018 126.435 L 114.307 126.522 L 113.630 126.644 L 112.989 126.802 L 112.383 126.994 L 111.814 127.221 L 111.282 127.482 L 110.789 127.777 L 110.336 128.105 L 109.922 128.465 L 109.550 128.858 L 109.219 129.283 L 107.949 130.728 L 107.759 130.896 L 107.564 131.057 L 107.365 131.211 L 107.161 131.358 L 106.953 131.498 L 106.740 131.630 L 106.523 131.756 L 106.302 131.874 L 106.077 131.985 L 105.847 132.089 L 105.614 132.185 L 104.601 132.491 L 104.632 132.028 L 104.656 131.564 L 104.671 131.099 L 104.680 130.635 L 104.682 130.171 L 104.679 129.708 L 104.671 129.247 L 104.658 128.789 L 104.642 128.334 L 104.623 127.883 L 104.577 126.993 L 104.573 126.109 L 104.654 125.288 L 104.810 124.528 L 105.031 123.825 L 105.307 123.175 L 105.629 122.574 L 105.987 122.018 L 106.371 121.505 L 106.771 121.029 L 107.176 120.588 L 107.579 120.177 L 108.415 119.349 L 108.622 119.135 L 108.813 118.927 L 108.987 118.721 L 109.143 118.518 L 109.276 118.315 L 109.387 118.112 L 109.471 117.908 L 109.528 117.701 L 109.554 117.490 L 109.548 117.273 L 109.528 117.144 L 109.496 117.017 L 109.452 116.893 L 109.395 116.771 L 109.326 116.651 L 109.244 116.534 L 109.150 116.419 L 109.043 116.306 L 108.923 116.194 L 108.790 116.085 L 108.644 115.977 L 108.486 115.871 L 108.008 115.562 L 107.574 115.276 Z M 74.152 97.750 L 73.987 96.695 L 73.975 95.637 L 74.093 94.585 L 74.323 93.552 L 74.642 92.549 L 75.030 91.587 L 75.467 90.678 L 75.931 89.831 L 76.402 89.060 L 76.859 88.374 L 77.282 87.785 L 77.650 87.305 L 80.262 92.796 L 80.262 94.460 L 79.834 94.556 L 79.427 94.699 L 79.043 94.888 L 78.686 95.118 L 78.359 95.387 L 78.064 95.692 L 77.807 96.029 L 77.589 96.394 L 77.413 96.785 L 77.284 97.199 L 77.204 97.631 L 77.177 98.080 L 77.210 98.577 L 77.308 99.055 L 77.466 99.507 L 77.679 99.931 L 77.942 100.321 L 78.253 100.673 L 78.605 100.983 L 78.995 101.247 L 79.419 101.460 L 79.871 101.617 L 80.348 101.715 L 80.845 101.748 L 81.342 101.715 L 81.819 101.617 L 82.271 101.460 L 82.694 101.247 L 83.084 100.983 L 83.437 100.673 L 83.747 100.321 L 84.011 99.931 L 84.224 99.507 L 84.381 99.055 L 84.479 98.577 L 84.512 98.080 L 84.485 97.631 L 84.405 97.199 L 84.276 96.785 L 84.101 96.394 L 83.883 96.029 L 83.625 95.692 L 83.331 95.387 L 83.004 95.118 L 82.646 94.888 L 82.262 94.699 L 81.855 94.556 L 81.427 94.460 L 81.427 92.796 L 84.040 87.305 L 84.407 87.785 L 84.830 88.374 L 85.287 89.060 L 85.758 89.832 L 86.223 90.678 L 86.659 91.588 L 87.047 92.550 L 87.367 93.553 L 87.596 94.586 L 87.715 95.637 L 87.702 96.696 L 87.537 97.750 L 87.349 98.399 L 87.096 99.026 L 86.779 99.629 L 86.397 100.209 L 85.951 100.766 L 85.441 101.299 L 84.867 101.809 L 84.230 102.294 L 83.529 102.756 L 82.765 103.193 L 81.938 103.606 L 81.049 103.994 L 80.846 103.717 L 80.642 103.994 L 79.752 103.606 L 78.925 103.193 L 78.162 102.756 L 77.461 102.294 L 76.824 101.809 L 76.250 101.299 L 75.740 100.766 L 75.294 100.209 L 74.912 99.629 L 74.594 99.026 L 74.340 98.399 Z M 117.789 89.944 L 118.030 89.516 L 120.034 89.790 L 122.060 90.234 L 124.101 90.830 L 126.147 91.558 L 128.191 92.398 L 130.224 93.332 L 132.237 94.339 L 134.222 95.401 L 136.171 96.498 L 138.075 97.610 L 139.925 98.718 L 141.845 99.923 L 142.003 100.080 L 142.196 100.283 L 142.422 100.530 L 142.675 100.822 L 142.952 101.158 L 143.246 101.538 L 143.555 101.962 L 143.873 102.429 L 144.197 102.938 L 144.521 103.491 L 144.841 104.086 L 145.106 104.625 L 145.369 105.209 L 145.624 105.836 L 145.867 106.506 L 146.096 107.219 L 146.304 107.974 L 146.488 108.771 L 146.644 109.608 L 146.767 110.487 L 146.854 111.406 L 146.899 112.365 L 146.900 113.362 L 146.842 113.193 L 146.596 112.543 L 146.328 111.917 L 146.039 111.316 L 145.729 110.740 L 145.400 110.192 L 145.050 109.670 L 144.682 109.177 L 144.295 108.712 L 143.890 108.277 L 143.468 107.873 L 143.030 107.500 L 142.575 107.159 L 141.772 106.581 L 140.983 105.986 L 140.208 105.378 L 139.449 104.759 L 138.705 104.131 L 137.977 103.499 L 137.266 102.863 L 136.573 102.229 L 135.897 101.598 L 135.240 100.973 L 134.602 100.357 L 131.190 96.878 L 130.665 96.347 L 130.131 95.823 L 129.586 95.311 L 129.029 94.813 L 128.457 94.334 L 127.868 93.877 L 127.261 93.445 L 126.633 93.043 L 125.982 92.673 L 125.307 92.339 L 124.887 92.154 L 124.464 91.980 L 124.038 91.815 L 123.609 91.659 L 123.177 91.511 L 122.745 91.370 L 122.311 91.235 L 121.443 90.980 Z M 18.739 101.158 L 19.015 100.822 L 19.269 100.530 L 19.495 100.283 L 19.688 100.081 L 19.846 99.923 L 21.766 98.719 L 23.616 97.611 L 25.520 96.499 L 27.469 95.402 L 29.454 94.340 L 31.467 93.333 L 33.500 92.399 L 35.544 91.559 L 37.591 90.831 L 39.631 90.235 L 41.658 89.790 L 43.661 89.517 L 43.902 89.944 L 40.248 90.980 L 39.380 91.235 L 38.947 91.370 L 38.514 91.511 L 38.083 91.659 L 37.654 91.815 L 37.228 91.979 L 36.805 92.154 L 36.386 92.339 L 35.710 92.673 L 35.059 93.043 L 34.431 93.445 L 33.824 93.877 L 33.235 94.334 L 32.662 94.814 L 32.105 95.311 L 31.560 95.824 L 31.026 96.348 L 30.501 96.879 L 29.983 97.415 L 27.089 100.358 L 26.451 100.973 L 25.794 101.598 L 25.118 102.229 L 24.425 102.863 L 23.714 103.498 L 22.986 104.131 L 22.242 104.759 L 21.482 105.378 L 20.708 105.986 L 19.919 106.581 L 19.116 107.159 L 18.661 107.500 L 18.222 107.873 L 17.800 108.277 L 17.395 108.712 L 17.008 109.177 L 16.640 109.670 L 16.291 110.192 L 15.961 110.740 L 15.651 111.316 L 15.362 111.917 L 15.095 112.543 L 14.791 113.362 L 14.792 112.365 L 14.837 111.406 L 14.924 110.487 L 15.047 109.608 L 15.203 108.771 L 15.387 107.974 L 15.596 107.219 L 15.824 106.506 L 16.068 105.836 L 16.323 105.209 L 16.585 104.625 L 16.851 104.086 L 17.171 103.491 L 17.495 102.938 L 17.818 102.429 L 18.136 101.962 L 18.445 101.538 Z M 110.351 132.330 L 111.918 133.109 L 113.380 133.973 L 114.736 134.923 L 115.987 135.957 L 117.132 137.076 L 118.169 138.279 L 119.099 139.565 L 119.922 140.934 L 120.637 142.386 L 121.244 143.920 L 121.742 145.536 L 121.519 146.179 L 121.254 146.781 L 120.947 147.341 L 120.600 147.859 L 120.211 148.334 L 119.781 148.768 L 119.310 149.159 L 118.798 149.508 L 118.246 149.814 L 117.653 150.078 L 117.019 150.298 L 116.346 150.476 L 116.367 150.161 L 116.384 149.800 L 116.394 149.397 L 116.395 148.954 L 116.384 148.473 L 116.359 147.957 L 116.317 147.409 L 116.256 146.831 L 116.174 146.225 L 116.068 145.594 L 115.936 144.940 L 115.775 144.266 L 115.621 143.700 L 115.450 143.142 L 115.262 142.592 L 115.058 142.050 L 114.838 141.516 L 114.602 140.991 L 114.350 140.474 L 114.082 139.966 L 113.798 139.467 L 113.498 138.978 L 113.183 138.498 L 112.852 138.027 L 112.471 137.521 L 112.071 137.027 L 111.652 136.545 L 111.215 136.076 L 110.760 135.619 L 110.287 135.175 L 109.795 134.744 L 109.286 134.325 L 108.760 133.919 L 108.215 133.527 L 107.654 133.147 L 107.075 132.781 L 107.218 132.701 L 107.499 132.531 L 107.773 132.351 L 108.040 132.160 L 108.301 131.958 L 108.679 131.637 Z M 44.559 137.076 L 45.704 135.957 L 46.954 134.923 L 48.311 133.973 L 49.773 133.109 L 51.340 132.330 L 53.012 131.637 L 53.136 131.747 L 53.262 131.854 L 53.519 132.060 L 53.651 132.160 L 53.918 132.351 L 54.192 132.531 L 54.473 132.701 L 54.616 132.781 L 54.037 133.147 L 53.475 133.527 L 52.931 133.920 L 52.404 134.325 L 51.895 134.744 L 51.404 135.176 L 50.931 135.620 L 50.475 136.077 L 50.039 136.546 L 49.620 137.027 L 49.220 137.521 L 48.838 138.027 L 48.507 138.498 L 48.192 138.978 L 47.893 139.467 L 47.609 139.966 L 47.340 140.474 L 47.088 140.991 L 46.852 141.516 L 46.632 142.050 L 46.428 142.592 L 46.241 143.142 L 46.070 143.700 L 45.915 144.266 L 45.755 144.940 L 45.623 145.594 L 45.517 146.225 L 45.434 146.831 L 45.374 147.409 L 45.332 147.957 L 45.307 148.473 L 45.296 148.954 L 45.296 149.397 L 45.306 149.800 L 45.323 150.161 L 45.345 150.476 L 44.671 150.298 L 44.038 150.078 L 43.445 149.814 L 42.892 149.508 L 42.381 149.159 L 41.910 148.768 L 41.480 148.334 L 41.091 147.859 L 40.743 147.341 L 40.437 146.781 L 40.172 146.179 L 39.949 145.536 L 40.447 143.920 L 41.053 142.386 L 41.768 140.934 L 42.591 139.565 L 43.522 138.279 Z M 87.766 119.100 L 87.612 118.241 L 87.504 117.383 L 87.443 116.525 L 87.429 115.670 L 87.463 114.819 L 87.625 113.416 L 87.907 112.080 L 88.301 110.805 L 88.796 109.589 L 89.383 108.426 L 90.050 107.312 L 90.789 106.244 L 91.589 105.216 L 92.440 104.224 L 93.333 103.265 L 94.257 102.334 L 95.202 101.426 L 95.276 101.957 L 95.355 102.495 L 95.439 103.040 L 95.528 103.592 L 95.622 104.153 L 95.721 104.722 L 95.825 105.300 L 95.934 105.886 L 96.048 106.482 L 96.290 107.702 L 96.419 108.327 L 96.213 108.512 L 95.972 108.737 L 95.701 109.002 L 95.402 109.308 L 95.081 109.655 L 94.742 110.042 L 94.387 110.469 L 94.021 110.936 L 93.649 111.444 L 93.274 111.992 L 92.899 112.580 L 92.530 113.208 L 92.258 113.708 L 92.001 114.214 L 91.759 114.725 L 91.532 115.243 L 91.321 115.766 L 91.125 116.295 L 90.944 116.829 L 90.779 117.368 L 90.630 117.912 L 90.497 118.460 L 90.379 119.013 L 90.277 119.570 L 90.208 120.008 L 90.149 120.448 L 90.100 120.891 L 90.060 121.337 L 90.031 121.784 L 90.011 122.234 L 90.001 122.686 L 90.001 123.139 L 90.010 123.595 L 90.029 124.052 L 90.058 124.512 L 90.097 124.973 L 89.634 124.159 L 89.213 123.335 L 88.835 122.501 L 88.501 121.659 L 88.212 120.810 L 87.966 119.957 Z M 71.660 121.784 L 71.631 121.337 L 71.592 120.891 L 71.543 120.448 L 71.484 120.008 L 71.416 119.570 L 71.314 119.013 L 71.196 118.460 L 71.062 117.912 L 70.913 117.368 L 70.748 116.829 L 70.567 116.295 L 70.371 115.766 L 70.159 115.243 L 69.933 114.725 L 69.691 114.214 L 69.433 113.708 L 69.161 113.208 L 68.792 112.580 L 68.417 111.992 L 68.042 111.444 L 67.670 110.936 L 67.304 110.469 L 66.949 110.042 L 66.610 109.655 L 66.289 109.308 L 65.990 109.002 L 65.719 108.737 L 65.478 108.512 L 65.272 108.327 L 65.525 107.087 L 65.758 105.886 L 65.867 105.299 L 65.971 104.722 L 66.070 104.153 L 66.164 103.592 L 66.253 103.040 L 66.337 102.495 L 66.489 101.426 L 67.434 102.334 L 68.358 103.265 L 69.251 104.224 L 70.102 105.216 L 70.902 106.244 L 71.641 107.312 L 72.309 108.426 L 72.895 109.589 L 73.390 110.805 L 73.784 112.080 L 74.067 113.416 L 74.229 114.819 L 74.262 115.670 L 74.248 116.525 L 74.187 117.383 L 74.079 118.242 L 73.925 119.101 L 73.725 119.957 L 73.480 120.811 L 73.190 121.659 L 72.856 122.501 L 72.478 123.335 L 72.057 124.159 L 71.594 124.973 L 71.633 124.512 L 71.662 124.052 L 71.681 123.595 L 71.690 123.139 L 71.690 122.686 L 71.680 122.234 Z M 58.302 107.757 L 57.710 108.422 L 57.067 109.096 L 56.377 109.773 L 55.645 110.447 L 54.876 111.113 L 54.073 111.763 L 53.240 112.394 L 52.383 112.997 L 51.505 113.569 L 50.610 114.103 L 49.703 114.592 L 48.789 115.032 L 48.523 115.149 L 48.260 115.259 L 48.000 115.363 L 47.742 115.461 L 47.488 115.553 L 47.236 115.638 L 46.987 115.717 L 46.741 115.790 L 46.498 115.856 L 46.259 115.916 L 46.022 115.970 L 45.790 116.017 L 45.277 116.107 L 44.750 116.187 L 44.209 116.254 L 43.654 116.311 L 43.085 116.356 L 42.502 116.390 L 41.906 116.412 L 41.296 116.423 L 40.673 116.423 L 40.037 116.411 L 39.389 116.388 L 38.727 116.354 L 39.766 115.573 L 40.735 114.771 L 41.634 113.959 L 42.464 113.145 L 43.227 112.338 L 43.923 111.547 L 44.553 110.780 L 45.117 110.048 L 45.617 109.358 L 46.053 108.719 L 46.427 108.141 L 46.738 107.633 L 47.280 107.751 L 47.823 107.863 L 48.368 107.968 L 48.913 108.066 L 49.460 108.155 L 50.008 108.235 L 50.557 108.306 L 51.106 108.365 L 51.657 108.413 L 52.208 108.448 L 52.760 108.469 L 53.313 108.477 L 53.597 108.475 L 53.882 108.469 L 54.452 108.444 L 54.738 108.425 L 55.023 108.401 L 55.309 108.373 L 55.595 108.340 L 55.881 108.302 L 56.167 108.259 L 56.453 108.211 Z M 105.237 108.211 L 105.523 108.259 L 105.809 108.302 L 106.095 108.340 L 106.381 108.373 L 106.667 108.401 L 106.952 108.425 L 107.238 108.444 L 107.808 108.469 L 108.093 108.475 L 108.377 108.477 L 108.930 108.469 L 109.482 108.448 L 110.033 108.413 L 110.584 108.365 L 111.133 108.306 L 111.682 108.235 L 112.229 108.155 L 112.776 108.066 L 113.322 107.968 L 113.866 107.863 L 114.410 107.751 L 114.952 107.633 L 115.263 108.142 L 115.637 108.719 L 116.073 109.358 L 116.573 110.048 L 117.137 110.780 L 117.767 111.547 L 118.463 112.338 L 119.226 113.145 L 120.056 113.959 L 120.955 114.771 L 121.924 115.572 L 122.963 116.354 L 122.301 116.388 L 121.653 116.411 L 121.017 116.422 L 120.394 116.422 L 119.784 116.411 L 119.188 116.389 L 118.606 116.355 L 118.037 116.310 L 117.481 116.254 L 116.940 116.186 L 116.413 116.107 L 115.901 116.017 L 115.668 115.970 L 115.432 115.916 L 115.193 115.856 L 114.950 115.790 L 114.704 115.717 L 114.455 115.638 L 114.203 115.553 L 113.949 115.461 L 113.691 115.363 L 113.431 115.259 L 113.169 115.149 L 112.903 115.032 L 111.988 114.593 L 111.081 114.103 L 110.186 113.569 L 109.308 112.998 L 108.450 112.394 L 107.618 111.764 L 106.815 111.113 L 106.045 110.447 L 105.313 109.773 L 104.624 109.096 L 103.981 108.422 L 103.388 107.757 Z M 110.394 86.485 L 110.966 86.469 L 111.549 86.467 L 112.143 86.477 L 112.748 86.502 L 113.363 86.539 L 113.990 86.590 L 114.627 86.654 L 115.275 86.731 L 115.933 86.821 L 117.906 87.160 L 117.476 88.062 L 116.960 89.046 L 116.356 90.078 L 115.663 91.126 L 114.881 92.158 L 114.009 93.142 L 113.046 94.045 L 111.992 94.835 L 110.845 95.480 L 109.606 95.948 L 108.273 96.206 L 106.846 96.221 L 105.746 96.098 L 104.745 95.914 L 103.836 95.677 L 103.016 95.391 L 102.279 95.064 L 101.622 94.703 L 101.040 94.313 L 100.529 93.901 L 100.083 93.473 L 99.698 93.037 L 99.370 92.598 L 99.095 92.163 L 99.365 91.760 L 99.649 91.372 L 99.945 90.999 L 100.253 90.640 L 100.574 90.297 L 100.907 89.968 L 101.253 89.654 L 101.611 89.354 L 101.982 89.070 L 102.365 88.801 L 102.761 88.546 L 103.169 88.307 L 102.958 88.536 L 102.768 88.772 L 102.598 89.016 L 102.449 89.266 L 102.324 89.522 L 102.221 89.781 L 102.142 90.044 L 102.088 90.310 L 102.060 90.576 L 102.059 90.843 L 102.084 91.110 L 102.138 91.375 L 102.301 91.829 L 102.543 92.242 L 102.856 92.612 L 103.233 92.936 L 103.669 93.213 L 104.156 93.438 L 104.687 93.610 L 105.256 93.725 L 105.857 93.782 L 106.481 93.778 L 107.124 93.709 L 107.777 93.574 L 108.414 93.376 L 109.010 93.125 L 109.559 92.827 L 110.057 92.487 L 110.499 92.111 L 110.881 91.704 L 111.198 91.271 L 111.446 90.819 L 111.620 90.353 L 111.715 89.878 L 111.727 89.400 L 111.651 88.924 L 111.556 88.631 L 111.429 88.354 L 111.271 88.094 L 111.084 87.851 L 110.869 87.626 L 110.629 87.420 L 110.365 87.233 L 110.078 87.066 L 109.771 86.919 L 109.446 86.794 L 109.103 86.692 L 108.745 86.612 L 109.284 86.556 L 109.833 86.514 Z M 59.469 89.782 L 59.367 89.522 L 59.241 89.267 L 59.092 89.017 L 58.922 88.773 L 58.732 88.536 L 58.521 88.308 L 58.929 88.547 L 59.325 88.801 L 59.708 89.071 L 60.079 89.355 L 60.437 89.654 L 60.783 89.968 L 61.116 90.297 L 61.437 90.641 L 61.746 90.999 L 62.041 91.373 L 62.325 91.761 L 62.595 92.164 L 62.320 92.599 L 61.992 93.038 L 61.607 93.474 L 61.162 93.901 L 60.650 94.313 L 60.068 94.703 L 59.411 95.065 L 58.675 95.391 L 57.854 95.677 L 56.945 95.915 L 55.944 96.099 L 54.844 96.222 L 53.417 96.206 L 52.084 95.948 L 50.845 95.481 L 49.698 94.836 L 48.644 94.046 L 47.681 93.142 L 46.809 92.159 L 46.027 91.127 L 45.334 90.079 L 44.730 89.047 L 44.213 88.063 L 43.784 87.161 L 46.417 86.731 L 47.064 86.654 L 47.701 86.590 L 48.327 86.539 L 48.943 86.502 L 49.547 86.478 L 50.141 86.467 L 50.724 86.469 L 51.296 86.485 L 51.857 86.514 L 52.407 86.557 L 52.945 86.612 L 52.587 86.692 L 52.244 86.795 L 51.919 86.920 L 51.612 87.066 L 51.325 87.233 L 51.061 87.420 L 50.821 87.627 L 50.606 87.852 L 50.419 88.095 L 50.261 88.355 L 50.134 88.632 L 50.039 88.925 L 49.963 89.400 L 49.975 89.879 L 50.070 90.354 L 50.244 90.820 L 50.492 91.272 L 50.809 91.705 L 51.191 92.112 L 51.633 92.488 L 52.131 92.828 L 52.680 93.126 L 53.276 93.377 L 53.913 93.575 L 54.566 93.710 L 55.209 93.778 L 55.833 93.783 L 56.434 93.726 L 57.003 93.610 L 57.534 93.438 L 58.021 93.213 L 58.457 92.937 L 58.834 92.613 L 59.147 92.243 L 59.389 91.829 L 59.552 91.376 L 59.606 91.111 L 59.631 90.844 L 59.630 90.577 L 59.602 90.310 L 59.548 90.045 Z M 70.325 120.074 L 70.414 120.750 L 70.478 121.432 L 70.518 122.120 L 70.533 122.814 L 70.524 123.514 L 70.490 124.220 L 70.431 124.932 L 70.347 125.649 L 70.239 126.372 L 70.106 127.100 L 69.354 127.074 L 68.605 127.004 L 67.862 126.890 L 67.128 126.734 L 66.404 126.536 L 65.693 126.296 L 64.996 126.016 L 64.317 125.696 L 63.657 125.337 L 63.018 124.940 L 62.403 124.506 L 61.814 124.035 L 61.908 123.505 L 62.115 122.404 L 62.228 121.833 L 62.472 120.647 L 62.604 120.031 L 62.888 118.751 L 63.198 117.404 L 63.364 116.704 L 63.898 116.950 L 64.437 117.182 L 64.981 117.400 L 65.530 117.605 L 66.084 117.795 L 66.642 117.972 L 67.204 118.135 L 67.770 118.284 L 68.340 118.420 L 68.914 118.541 L 69.492 118.648 L 70.073 118.741 L 70.211 119.405 Z M 98.948 119.400 L 99.344 121.248 L 99.576 122.405 L 99.682 122.962 L 99.782 123.506 L 99.876 124.036 L 99.287 124.507 L 98.673 124.941 L 98.034 125.338 L 97.374 125.696 L 96.694 126.016 L 95.998 126.296 L 95.287 126.536 L 94.563 126.735 L 93.828 126.891 L 93.086 127.005 L 92.337 127.075 L 91.584 127.101 L 91.452 126.372 L 91.343 125.649 L 91.260 124.932 L 91.201 124.221 L 91.167 123.515 L 91.158 122.815 L 91.173 122.121 L 91.213 121.432 L 91.278 120.750 L 91.367 120.074 L 91.480 119.405 L 91.618 118.741 L 92.199 118.648 L 92.776 118.541 L 93.350 118.420 L 93.920 118.284 L 94.487 118.135 L 95.049 117.972 L 95.607 117.795 L 96.160 117.604 L 96.709 117.400 L 97.253 117.181 L 97.793 116.950 L 98.327 116.704 L 98.803 118.751 Z M 78.614 30.796 L 78.969 30.312 L 79.295 29.842 L 79.592 29.386 L 79.862 28.947 L 80.107 28.527 L 80.326 28.127 L 80.522 27.749 L 80.695 27.395 L 80.846 27.066 L 80.997 27.395 L 81.170 27.749 L 81.365 28.127 L 81.584 28.527 L 81.829 28.947 L 82.099 29.386 L 82.396 29.841 L 82.722 30.312 L 83.076 30.796 L 83.461 31.291 L 83.878 31.796 L 84.327 32.308 L 85.823 33.822 L 85.709 34.047 L 85.582 34.317 L 85.446 34.628 L 85.306 34.981 L 85.165 35.372 L 85.028 35.802 L 84.898 36.267 L 84.781 36.768 L 84.678 37.302 L 84.596 37.867 L 84.537 38.463 L 84.507 39.088 L 84.234 38.802 L 83.957 38.525 L 83.677 38.258 L 83.394 37.999 L 83.110 37.749 L 82.826 37.509 L 82.543 37.278 L 82.261 37.057 L 81.982 36.845 L 81.707 36.643 L 81.437 36.451 L 80.847 36.044 L 80.255 36.451 L 79.985 36.643 L 79.710 36.845 L 79.431 37.057 L 79.149 37.278 L 78.866 37.509 L 78.582 37.749 L 78.298 37.999 L 78.015 38.258 L 77.735 38.525 L 77.458 38.802 L 77.185 39.088 L 77.155 38.463 L 77.096 37.867 L 77.014 37.302 L 76.911 36.768 L 76.794 36.267 L 76.664 35.802 L 76.527 35.372 L 76.386 34.981 L 76.246 34.628 L 76.110 34.317 L 75.983 34.047 L 75.869 33.822 L 77.364 32.308 L 77.813 31.796 L 78.229 31.291 Z M 76.366 157.560 L 76.532 157.263 L 76.692 156.965 L 76.843 156.665 L 76.988 156.363 L 77.125 156.060 L 77.255 155.756 L 77.377 155.450 L 77.492 155.143 L 77.599 154.835 L 77.699 154.525 L 77.792 154.214 L 77.971 154.470 L 78.167 154.710 L 78.379 154.932 L 78.606 155.136 L 78.847 155.320 L 79.102 155.483 L 79.368 155.624 L 79.646 155.741 L 79.933 155.835 L 80.230 155.903 L 80.534 155.945 L 80.846 155.959 L 81.157 155.945 L 81.462 155.903 L 81.758 155.835 L 82.045 155.741 L 82.323 155.624 L 82.589 155.483 L 82.843 155.320 L 83.085 155.136 L 83.312 154.932 L 83.524 154.710 L 83.720 154.470 L 83.899 154.214 L 83.992 154.525 L 84.091 154.835 L 84.199 155.143 L 84.314 155.450 L 84.436 155.756 L 84.566 156.060 L 84.703 156.363 L 84.847 156.665 L 84.999 156.965 L 85.158 157.263 L 85.325 157.560 L 85.499 157.855 L 85.438 158.067 L 85.363 158.294 L 85.271 158.535 L 85.162 158.790 L 85.033 159.057 L 84.884 159.335 L 84.712 159.625 L 84.516 159.925 L 84.295 160.234 L 84.046 160.553 L 83.770 160.879 L 83.463 161.214 L 83.129 161.572 L 82.819 161.918 L 82.532 162.251 L 82.267 162.572 L 82.024 162.880 L 81.802 163.175 L 81.599 163.457 L 81.414 163.727 L 81.248 163.983 L 81.098 164.226 L 80.965 164.456 L 80.846 164.673 L 80.727 164.456 L 80.593 164.226 L 80.443 163.983 L 80.277 163.727 L 80.092 163.457 L 79.889 163.175 L 79.666 162.879 L 79.423 162.571 L 79.158 162.250 L 78.871 161.917 L 78.561 161.570 L 78.226 161.212 L 77.920 160.878 L 77.643 160.551 L 77.395 160.233 L 77.174 159.924 L 76.979 159.624 L 76.807 159.334 L 76.657 159.056 L 76.529 158.789 L 76.419 158.535 L 76.328 158.294 L 76.252 158.067 L 76.192 157.855 Z M 54.200 73.927 L 54.524 74.284 L 55.028 74.800 L 55.200 74.967 L 54.623 74.750 L 54.053 74.522 L 53.491 74.280 L 52.939 74.023 L 52.398 73.751 L 51.871 73.461 L 51.360 73.152 L 50.865 72.824 L 50.390 72.474 L 49.935 72.101 L 49.503 71.705 L 49.096 71.283 L 48.981 71.154 L 48.760 70.889 L 48.548 70.616 L 47.271 68.796 L 47.123 68.596 L 46.972 68.397 L 46.816 68.200 L 46.654 68.006 L 46.487 67.816 L 46.313 67.629 L 46.132 67.447 L 45.943 67.270 L 45.619 66.988 L 45.287 66.717 L 44.948 66.457 L 44.601 66.209 L 44.247 65.972 L 43.886 65.748 L 43.519 65.535 L 43.146 65.335 L 42.768 65.148 L 42.384 64.973 L 41.995 64.811 L 41.602 64.663 L 42.308 64.126 L 42.658 63.867 L 43.008 63.613 L 43.356 63.365 L 43.703 63.123 L 44.048 62.887 L 44.392 62.657 L 44.735 62.432 L 45.077 62.214 L 45.417 62.001 L 45.756 61.794 L 46.185 62.155 L 46.607 62.542 L 47.023 62.956 L 47.433 63.397 L 47.838 63.866 L 48.239 64.365 L 48.636 64.894 L 49.031 65.455 L 49.423 66.047 L 49.814 66.672 L 50.204 67.331 L 50.594 68.025 L 51.773 70.319 L 52.070 70.879 L 52.224 71.159 L 52.384 71.437 L 52.549 71.714 L 52.720 71.990 L 52.899 72.262 L 53.085 72.532 L 53.280 72.799 L 53.427 72.993 L 53.577 73.184 L 53.884 73.560 L 54.041 73.745 Z M 119.383 64.126 L 119.735 64.392 L 120.088 64.663 L 119.695 64.811 L 119.307 64.973 L 118.923 65.148 L 118.544 65.335 L 118.172 65.535 L 117.805 65.747 L 117.444 65.972 L 117.090 66.208 L 116.743 66.457 L 116.403 66.716 L 116.072 66.988 L 115.748 67.270 L 115.559 67.447 L 115.378 67.629 L 115.204 67.816 L 115.037 68.006 L 114.875 68.200 L 114.719 68.397 L 114.567 68.596 L 114.275 68.998 L 112.930 70.889 L 112.710 71.153 L 112.595 71.283 L 112.187 71.705 L 111.755 72.101 L 111.301 72.474 L 110.825 72.824 L 110.331 73.152 L 109.819 73.461 L 109.293 73.751 L 108.752 74.023 L 108.200 74.280 L 107.638 74.522 L 107.067 74.750 L 106.491 74.967 L 106.663 74.800 L 107.001 74.458 L 107.166 74.284 L 107.491 73.927 L 107.650 73.745 L 107.962 73.373 L 108.264 72.993 L 108.411 72.799 L 108.606 72.532 L 108.792 72.262 L 108.970 71.989 L 109.142 71.714 L 109.307 71.437 L 109.466 71.159 L 109.621 70.879 L 109.918 70.319 L 111.487 67.331 L 111.877 66.672 L 112.268 66.047 L 112.660 65.455 L 113.054 64.895 L 113.452 64.365 L 113.852 63.867 L 114.257 63.397 L 114.667 62.956 L 115.083 62.542 L 115.506 62.155 L 115.935 61.794 L 116.274 62.001 L 116.614 62.214 L 116.956 62.432 L 117.643 62.887 L 117.988 63.123 L 118.335 63.365 L 118.683 63.613 Z M 74.692 123.109 L 75.111 122.755 L 75.547 122.421 L 76.002 122.108 L 76.473 121.814 L 76.962 121.541 L 77.467 121.289 L 77.990 121.057 L 78.529 120.846 L 79.084 120.655 L 79.655 120.486 L 80.243 120.337 L 80.846 120.209 L 81.449 120.337 L 82.036 120.486 L 82.608 120.656 L 83.163 120.846 L 83.702 121.058 L 84.224 121.290 L 84.730 121.543 L 85.218 121.816 L 85.690 122.109 L 86.144 122.423 L 86.580 122.757 L 86.999 123.111 L 87.762 123.861 L 87.031 123.684 L 86.370 123.619 L 85.719 123.635 L 85.081 123.719 L 84.462 123.862 L 83.868 124.051 L 83.304 124.276 L 82.775 124.526 L 82.286 124.790 L 81.844 125.056 L 81.453 125.314 L 81.119 125.552 L 80.846 125.760 L 80.573 125.552 L 80.238 125.314 L 79.847 125.056 L 79.405 124.790 L 78.916 124.526 L 78.387 124.276 L 77.823 124.051 L 77.229 123.861 L 76.610 123.719 L 75.972 123.634 L 75.320 123.619 L 74.660 123.684 L 73.929 123.861 Z M 65.478 147.059 L 66.146 147.255 L 66.821 147.424 L 67.503 147.568 L 68.193 147.687 L 68.889 147.779 L 69.592 147.846 L 70.302 147.887 L 71.017 147.902 L 71.699 149.094 L 71.100 149.679 L 70.424 150.142 L 69.691 150.495 L 68.923 150.753 L 68.142 150.926 L 67.369 151.030 L 66.624 151.077 L 65.931 151.079 L 65.309 151.051 L 64.780 151.004 L 64.366 150.953 L 64.088 150.910 L 63.722 150.397 L 63.362 149.884 L 63.010 149.370 L 62.667 148.855 L 62.335 148.338 L 62.016 147.817 L 61.711 147.293 L 61.422 146.764 L 61.151 146.229 L 60.899 145.687 L 60.667 145.138 L 60.459 144.581 L 60.790 144.811 L 61.151 145.048 L 61.541 145.290 L 61.747 145.412 L 61.961 145.535 L 62.409 145.780 L 62.644 145.902 L 62.886 146.023 L 63.522 146.320 L 64.166 146.592 L 64.818 146.838 Z M 90.674 147.902 L 91.389 147.887 L 92.098 147.846 L 92.801 147.779 L 93.497 147.687 L 94.187 147.568 L 94.869 147.424 L 95.545 147.255 L 96.212 147.059 L 96.873 146.838 L 97.525 146.592 L 98.169 146.320 L 98.804 146.023 L 99.046 145.902 L 99.282 145.780 L 99.730 145.535 L 99.944 145.412 L 100.150 145.290 L 100.540 145.048 L 100.901 144.811 L 101.232 144.581 L 101.023 145.138 L 100.792 145.687 L 100.540 146.229 L 100.268 146.764 L 99.979 147.293 L 99.675 147.817 L 99.356 148.338 L 99.024 148.855 L 98.681 149.370 L 98.329 149.883 L 97.969 150.396 L 97.603 150.909 L 97.325 150.952 L 96.911 151.004 L 96.382 151.050 L 95.761 151.079 L 95.067 151.076 L 94.322 151.030 L 93.549 150.926 L 92.768 150.752 L 92.000 150.495 L 91.268 150.142 L 90.591 149.679 L 89.993 149.093 L 90.130 148.896 Z M 84.536 106.079 L 84.736 106.123 L 84.934 106.170 L 85.128 106.222 L 85.319 106.278 L 85.507 106.339 L 85.692 106.407 L 85.873 106.482 L 86.050 106.565 L 86.261 106.678 L 86.464 106.804 L 86.659 106.942 L 86.845 107.091 L 87.022 107.251 L 87.190 107.421 L 87.347 107.601 L 87.493 107.789 L 87.628 107.986 L 87.751 108.191 L 87.861 108.403 L 87.959 108.621 L 87.751 109.058 L 87.555 109.502 L 87.370 109.954 L 87.199 110.413 L 87.040 110.881 L 86.894 111.356 L 86.763 111.841 L 86.646 112.333 L 86.543 112.835 L 86.456 113.346 L 86.384 113.865 L 86.328 114.395 L 86.079 114.319 L 85.827 114.252 L 85.573 114.193 L 85.317 114.144 L 85.060 114.102 L 84.802 114.070 L 84.542 114.046 L 84.283 114.031 L 84.022 114.024 L 83.762 114.027 L 83.502 114.038 L 83.242 114.057 L 83.560 113.199 L 83.647 112.884 L 83.720 112.566 L 83.778 112.244 L 83.823 111.919 L 83.854 111.592 L 83.870 111.261 L 83.872 110.928 L 83.860 110.593 L 83.834 110.255 L 83.794 109.914 L 83.739 109.572 L 83.675 109.248 L 83.598 108.922 L 83.509 108.595 L 83.407 108.266 L 83.292 107.936 L 83.165 107.604 L 83.026 107.270 L 82.874 106.936 L 82.709 106.600 L 82.533 106.263 L 82.344 105.926 L 82.143 105.587 Z M 75.431 106.678 L 75.641 106.564 L 75.819 106.482 L 75.999 106.407 L 76.184 106.339 L 76.372 106.277 L 76.563 106.221 L 76.758 106.170 L 76.955 106.123 L 77.155 106.079 L 79.549 105.586 L 79.348 105.925 L 79.159 106.263 L 78.982 106.600 L 78.818 106.936 L 78.666 107.270 L 78.526 107.604 L 78.399 107.935 L 78.285 108.266 L 78.182 108.595 L 78.093 108.922 L 78.016 109.247 L 77.952 109.571 L 77.898 109.914 L 77.857 110.254 L 77.831 110.592 L 77.819 110.928 L 77.821 111.261 L 77.838 111.591 L 77.868 111.919 L 77.913 112.243 L 77.972 112.565 L 78.045 112.883 L 78.132 113.199 L 78.449 114.057 L 78.189 114.037 L 77.929 114.026 L 77.669 114.024 L 77.409 114.030 L 77.149 114.045 L 76.890 114.069 L 76.632 114.102 L 76.375 114.143 L 76.119 114.192 L 75.865 114.251 L 75.613 114.318 L 75.364 114.394 L 75.308 113.864 L 75.236 113.345 L 75.149 112.834 L 75.046 112.333 L 74.929 111.840 L 74.797 111.356 L 74.652 110.881 L 74.493 110.413 L 74.321 109.953 L 74.137 109.502 L 73.940 109.057 L 73.733 108.620 L 73.830 108.402 L 73.941 108.190 L 74.063 107.985 L 74.198 107.788 L 74.344 107.600 L 74.502 107.420 L 74.669 107.250 L 74.846 107.091 L 75.032 106.941 L 75.227 106.804 Z M 42.553 73.400 L 42.811 73.632 L 43.072 73.862 L 43.338 74.089 L 43.608 74.313 L 43.884 74.532 L 44.165 74.746 L 44.452 74.954 L 44.746 75.156 L 44.974 75.302 L 45.205 75.435 L 45.438 75.556 L 45.673 75.667 L 45.911 75.768 L 46.150 75.859 L 46.391 75.941 L 46.633 76.014 L 46.877 76.080 L 47.122 76.138 L 47.368 76.189 L 47.615 76.235 L 45.278 77.006 L 44.602 76.896 L 43.962 76.767 L 43.358 76.622 L 42.789 76.462 L 42.255 76.291 L 41.757 76.111 L 41.293 75.924 L 40.863 75.734 L 40.467 75.543 L 40.105 75.352 L 39.776 75.166 L 39.481 74.985 L 39.296 74.866 L 39.122 74.748 L 38.959 74.633 L 38.805 74.520 L 38.530 74.305 L 38.407 74.204 L 37.943 73.782 L 38.041 73.454 L 38.128 73.127 L 38.203 72.801 L 38.268 72.476 L 38.321 72.152 L 38.363 71.830 L 38.394 71.508 L 38.413 71.188 L 38.422 70.868 L 38.419 70.550 L 38.405 70.233 L 38.380 69.917 L 38.560 70.021 L 38.742 70.131 L 38.925 70.249 L 39.109 70.373 L 39.296 70.505 L 39.485 70.644 L 39.675 70.790 L 39.868 70.944 L 40.064 71.106 L 40.262 71.275 L 40.462 71.452 Z M 118.353 74.089 L 118.619 73.862 L 118.880 73.632 L 119.138 73.400 L 119.393 73.166 L 121.228 71.452 L 121.429 71.275 L 121.627 71.106 L 121.823 70.944 L 122.015 70.790 L 122.206 70.644 L 122.395 70.505 L 122.581 70.373 L 122.766 70.249 L 122.949 70.131 L 123.131 70.021 L 123.311 69.917 L 123.286 70.233 L 123.272 70.550 L 123.269 70.868 L 123.277 71.188 L 123.297 71.508 L 123.328 71.830 L 123.370 72.152 L 123.423 72.476 L 123.487 72.801 L 123.563 73.127 L 123.650 73.454 L 123.748 73.782 L 123.284 74.204 L 122.886 74.520 L 122.732 74.633 L 122.569 74.748 L 122.394 74.866 L 122.210 74.985 L 121.914 75.166 L 121.586 75.352 L 121.224 75.543 L 120.828 75.734 L 120.399 75.924 L 119.935 76.111 L 119.436 76.291 L 118.902 76.462 L 118.334 76.622 L 117.729 76.767 L 117.089 76.896 L 116.413 77.006 L 114.076 76.235 L 114.323 76.189 L 114.569 76.138 L 114.814 76.080 L 115.058 76.014 L 115.300 75.941 L 115.541 75.859 L 115.780 75.768 L 116.017 75.667 L 116.253 75.556 L 116.486 75.435 L 116.717 75.302 L 116.945 75.156 L 117.239 74.954 L 117.526 74.746 L 117.807 74.532 L 118.082 74.313 Z M 70.448 145.616 L 70.477 145.907 L 70.497 146.062 L 70.522 146.222 L 70.551 146.387 L 70.585 146.557 L 70.625 146.732 L 69.187 146.639 L 67.842 146.444 L 66.592 146.165 L 65.439 145.818 L 64.385 145.421 L 63.433 144.992 L 62.583 144.547 L 61.838 144.103 L 61.201 143.679 L 60.672 143.290 L 60.255 142.955 L 59.950 142.690 L 59.912 142.471 L 59.878 142.249 L 59.848 142.026 L 59.822 141.802 L 59.801 141.575 L 59.784 141.347 L 59.771 141.117 L 59.763 140.885 L 59.759 140.651 L 59.761 140.416 L 59.767 140.178 L 59.778 139.939 L 60.195 140.392 L 60.644 140.821 L 61.123 141.226 L 61.634 141.606 L 62.176 141.962 L 62.751 142.293 L 63.357 142.601 L 63.996 142.885 L 64.667 143.146 L 65.370 143.383 L 66.107 143.597 L 66.878 143.785 L 67.144 143.906 L 67.415 144.024 L 67.691 144.138 L 67.973 144.249 L 68.260 144.357 L 68.553 144.461 L 68.851 144.562 L 69.155 144.660 L 69.465 144.754 L 69.780 144.845 L 70.101 144.932 L 70.427 145.016 Z M 94.814 143.787 L 94.814 143.786 L 95.584 143.597 L 96.320 143.383 L 97.024 143.146 L 97.695 142.886 L 98.334 142.602 L 98.940 142.294 L 99.514 141.962 L 100.057 141.606 L 100.568 141.226 L 101.047 140.821 L 101.495 140.392 L 101.912 139.939 L 101.923 140.178 L 101.930 140.416 L 101.931 140.651 L 101.928 140.885 L 101.920 141.117 L 101.907 141.347 L 101.890 141.575 L 101.868 141.801 L 101.843 142.025 L 101.813 142.248 L 101.779 142.469 L 101.741 142.689 L 101.436 142.953 L 101.018 143.289 L 100.490 143.677 L 99.852 144.102 L 99.108 144.545 L 98.258 144.990 L 97.305 145.420 L 96.252 145.816 L 95.099 146.163 L 93.849 146.442 L 92.504 146.637 L 91.066 146.731 L 91.106 146.556 L 91.140 146.387 L 91.169 146.221 L 91.214 145.907 L 91.230 145.758 L 91.252 145.481 L 91.263 145.016 L 91.590 144.932 L 91.911 144.845 L 92.226 144.754 L 92.535 144.660 L 92.839 144.562 L 93.138 144.461 L 93.430 144.357 L 93.718 144.249 L 94.000 144.138 L 94.276 144.024 L 94.547 143.906 Z M 98.124 44.701 L 97.821 44.864 L 97.398 45.072 L 96.965 45.262 L 96.523 45.432 L 96.072 45.583 L 95.615 45.714 L 95.152 45.825 L 94.684 45.916 L 94.211 45.986 L 93.736 46.037 L 93.259 46.066 L 92.781 46.075 L 92.303 46.063 L 92.437 44.874 L 92.458 44.800 L 92.509 44.661 L 92.600 44.467 L 92.738 44.232 L 92.932 43.965 L 93.192 43.681 L 93.527 43.389 L 93.945 43.101 L 94.454 42.831 L 95.065 42.588 L 95.785 42.385 L 96.624 42.233 L 97.192 42.143 L 97.721 42.032 L 98.213 41.901 L 98.669 41.754 L 99.091 41.593 L 99.480 41.419 L 99.836 41.236 L 100.161 41.046 L 100.457 40.850 L 100.724 40.652 L 100.965 40.453 L 101.179 40.256 L 101.145 40.783 L 101.119 41.002 L 101.085 41.216 L 101.044 41.423 L 100.995 41.623 L 100.939 41.817 L 100.875 42.004 L 100.803 42.185 L 100.724 42.358 L 100.637 42.525 L 100.543 42.685 L 100.441 42.838 L 100.310 43.012 L 100.162 43.185 L 99.998 43.357 L 99.819 43.528 L 99.623 43.699 L 99.412 43.868 L 99.186 44.037 L 98.943 44.205 L 98.686 44.371 L 98.413 44.537 Z M 62.279 43.869 L 62.068 43.700 L 61.872 43.529 L 61.693 43.358 L 61.530 43.186 L 61.382 43.014 L 61.251 42.841 L 61.149 42.687 L 61.054 42.527 L 60.967 42.360 L 60.888 42.186 L 60.816 42.005 L 60.752 41.817 L 60.696 41.623 L 60.647 41.422 L 60.605 41.214 L 60.572 41.000 L 60.545 40.780 L 60.512 40.257 L 60.726 40.454 L 60.966 40.652 L 61.233 40.851 L 61.529 41.046 L 61.854 41.237 L 62.211 41.420 L 62.599 41.593 L 63.021 41.755 L 63.477 41.902 L 63.970 42.032 L 64.499 42.144 L 65.067 42.234 L 65.906 42.386 L 66.627 42.589 L 67.238 42.832 L 67.748 43.103 L 68.165 43.390 L 68.500 43.683 L 68.760 43.968 L 68.954 44.234 L 69.092 44.469 L 69.182 44.663 L 69.233 44.802 L 69.254 44.875 L 69.388 46.064 L 68.910 46.076 L 68.432 46.067 L 67.955 46.037 L 67.480 45.987 L 67.007 45.916 L 66.539 45.825 L 66.075 45.714 L 65.618 45.583 L 65.168 45.432 L 64.726 45.262 L 64.292 45.073 L 63.869 44.864 L 63.566 44.701 L 63.278 44.537 L 63.005 44.372 L 62.747 44.205 L 62.505 44.038 Z M 92.705 157.520 L 92.562 157.264 L 92.497 157.135 L 92.435 157.005 L 92.377 156.875 L 92.323 156.745 L 92.273 156.614 L 92.173 156.328 L 91.550 154.049 L 91.476 153.788 L 91.398 153.526 L 91.316 153.266 L 91.227 153.006 L 91.130 152.748 L 91.026 152.491 L 90.913 152.238 L 90.789 151.987 L 89.938 150.648 L 90.233 150.865 L 90.544 151.066 L 90.871 151.252 L 91.214 151.423 L 91.573 151.578 L 91.946 151.718 L 92.335 151.841 L 92.738 151.949 L 93.156 152.040 L 93.587 152.115 L 94.032 152.174 L 96.670 152.199 L 94.909 154.721 L 94.572 155.241 L 94.419 155.486 L 94.273 155.731 L 94.132 155.976 L 93.998 156.220 L 93.870 156.464 L 93.748 156.707 L 93.631 156.950 L 93.520 157.193 L 93.414 157.434 L 93.314 157.674 L 93.219 157.914 L 93.129 158.152 L 93.037 158.027 L 92.948 157.901 L 92.863 157.774 L 92.782 157.647 Z M 65.021 152.199 L 67.659 152.174 L 68.104 152.115 L 68.536 152.040 L 68.953 151.949 L 69.356 151.841 L 69.745 151.718 L 70.118 151.578 L 70.477 151.423 L 70.820 151.252 L 71.147 151.066 L 71.458 150.865 L 71.754 150.648 L 71.037 151.739 L 70.902 151.986 L 70.779 152.237 L 70.665 152.491 L 70.561 152.747 L 70.464 153.006 L 70.375 153.265 L 70.293 153.526 L 70.215 153.788 L 70.141 154.049 L 69.418 156.614 L 69.368 156.745 L 69.315 156.875 L 69.257 157.005 L 69.195 157.135 L 69.129 157.264 L 69.060 157.392 L 68.986 157.520 L 68.909 157.647 L 68.828 157.774 L 68.743 157.901 L 68.655 158.027 L 68.563 158.152 L 68.472 157.914 L 68.377 157.674 L 68.277 157.434 L 68.171 157.193 L 68.060 156.950 L 67.943 156.708 L 67.821 156.464 L 67.692 156.220 L 67.558 155.976 L 67.418 155.732 L 67.272 155.488 L 67.119 155.243 L 66.610 154.464 Z M 77.259 69.070 L 77.436 69.249 L 77.230 69.511 L 77.010 69.814 L 76.781 70.155 L 76.549 70.534 L 76.322 70.950 L 76.103 71.400 L 75.900 71.885 L 75.718 72.403 L 75.563 72.952 L 75.441 73.531 L 75.358 74.140 L 75.320 74.777 L 75.320 75.134 L 75.336 75.490 L 75.367 75.845 L 75.413 76.200 L 75.475 76.554 L 75.552 76.908 L 75.644 77.260 L 75.752 77.612 L 75.874 77.963 L 76.012 78.313 L 76.165 78.662 L 76.334 79.010 L 75.848 79.570 L 75.579 79.146 L 75.331 78.710 L 75.102 78.263 L 74.893 77.806 L 74.706 77.340 L 74.539 76.867 L 74.394 76.386 L 74.270 75.899 L 74.169 75.407 L 74.090 74.912 L 74.034 74.413 L 74.002 73.912 L 73.993 73.396 L 74.008 72.881 L 74.048 72.367 L 74.111 71.856 L 74.198 71.347 L 74.309 70.844 L 74.443 70.346 L 74.599 69.854 L 74.778 69.371 L 74.979 68.896 L 75.202 68.431 L 75.447 67.978 Z M 85.525 78.662 L 85.678 78.313 L 85.816 77.963 L 85.939 77.612 L 86.046 77.261 L 86.139 76.908 L 86.216 76.555 L 86.277 76.201 L 86.324 75.846 L 86.355 75.490 L 86.370 75.134 L 86.371 74.777 L 86.333 74.141 L 86.250 73.532 L 86.128 72.953 L 85.973 72.404 L 85.791 71.887 L 85.588 71.402 L 85.369 70.951 L 85.141 70.536 L 84.910 70.157 L 84.681 69.816 L 84.461 69.513 L 84.255 69.250 L 86.249 67.989 L 86.493 68.442 L 86.715 68.906 L 86.916 69.379 L 87.094 69.862 L 87.251 70.352 L 87.384 70.849 L 87.494 71.352 L 87.581 71.859 L 87.644 72.370 L 87.683 72.883 L 87.698 73.397 L 87.689 73.912 L 87.656 74.413 L 87.600 74.912 L 87.522 75.408 L 87.420 75.900 L 87.297 76.386 L 87.152 76.867 L 86.985 77.341 L 86.797 77.806 L 86.589 78.263 L 86.360 78.710 L 86.111 79.146 L 85.843 79.571 L 85.357 79.010 Z M 71.317 139.147 L 71.570 138.730 L 71.727 138.935 L 71.890 139.138 L 72.059 139.338 L 72.233 139.535 L 72.412 139.728 L 72.597 139.919 L 72.787 140.107 L 72.982 140.291 L 73.182 140.472 L 73.387 140.650 L 73.597 140.825 L 73.812 140.996 L 73.670 141.289 L 73.517 141.575 L 73.353 141.856 L 73.181 142.130 L 72.998 142.398 L 72.806 142.658 L 72.605 142.912 L 72.395 143.159 L 72.175 143.398 L 71.948 143.629 L 71.711 143.852 L 71.466 144.067 L 71.089 143.982 L 70.719 143.893 L 70.356 143.799 L 70.002 143.701 L 69.655 143.599 L 69.315 143.493 L 68.984 143.382 L 68.659 143.267 L 68.342 143.147 L 68.033 143.024 L 67.731 142.896 L 67.437 142.763 L 67.860 142.521 L 68.272 142.259 L 68.670 141.979 L 69.056 141.681 L 69.427 141.365 L 69.783 141.033 L 70.124 140.685 L 70.448 140.322 L 70.756 139.944 L 71.046 139.552 Z M 89.515 143.398 L 89.296 143.159 L 89.086 142.912 L 88.884 142.658 L 88.692 142.398 L 88.510 142.130 L 88.337 141.856 L 88.174 141.575 L 88.021 141.289 L 87.878 140.996 L 88.093 140.825 L 88.303 140.650 L 88.508 140.472 L 88.708 140.291 L 88.903 140.107 L 89.093 139.919 L 89.278 139.728 L 89.457 139.535 L 89.631 139.338 L 89.800 139.138 L 89.963 138.935 L 90.120 138.730 L 90.373 139.147 L 90.644 139.552 L 90.934 139.944 L 91.242 140.321 L 91.566 140.685 L 91.907 141.033 L 92.264 141.365 L 92.635 141.681 L 93.020 141.979 L 93.419 142.259 L 93.830 142.521 L 94.253 142.763 L 93.959 142.896 L 93.657 143.024 L 93.347 143.148 L 93.031 143.267 L 92.706 143.382 L 92.375 143.493 L 92.035 143.599 L 91.688 143.701 L 91.334 143.799 L 90.971 143.893 L 90.601 143.982 L 90.224 144.067 L 89.979 143.852 L 89.743 143.629 Z M 97.392 107.227 L 97.250 106.508 L 97.508 107.151 L 97.789 107.822 L 98.095 108.518 L 98.424 109.233 L 98.777 109.965 L 99.155 110.708 L 99.558 111.458 L 99.985 112.212 L 100.437 112.966 L 100.915 113.714 L 101.418 114.454 L 101.947 115.180 L 101.562 115.570 L 101.369 115.772 L 101.178 115.979 L 100.989 116.191 L 100.803 116.409 L 100.621 116.631 L 100.443 116.860 L 100.269 117.094 L 100.102 117.333 L 99.941 117.579 L 99.787 117.831 L 98.573 112.674 L 98.027 110.247 L 97.858 109.470 L 97.540 107.960 Z M 63.306 111.849 L 61.904 117.830 L 61.750 117.578 L 61.589 117.333 L 61.421 117.093 L 61.248 116.859 L 61.070 116.631 L 60.887 116.408 L 60.701 116.191 L 60.512 115.979 L 60.321 115.772 L 60.129 115.570 L 59.743 115.180 L 60.272 114.454 L 60.776 113.714 L 61.254 112.966 L 61.706 112.212 L 62.133 111.458 L 62.536 110.707 L 62.914 109.964 L 63.267 109.233 L 63.596 108.517 L 63.901 107.822 L 64.183 107.151 L 64.441 106.508 L 64.299 107.227 L 64.150 107.961 L 63.995 108.708 L 63.488 111.040 Z M 88.886 63.901 L 88.967 64.537 L 89.074 65.167 L 87.588 65.893 L 87.501 65.277 L 87.446 64.645 L 87.425 63.996 L 87.437 63.328 L 87.481 62.641 L 87.559 61.932 L 87.671 61.202 L 87.816 60.449 L 87.995 59.672 L 88.207 58.870 L 88.453 58.042 L 88.733 57.186 L 89.504 57.549 L 89.327 58.164 L 89.175 58.787 L 89.049 59.416 L 88.949 60.051 L 88.874 60.691 L 88.824 61.333 L 88.801 61.976 L 88.803 62.619 L 88.832 63.262 Z M 73.236 58.040 L 73.482 58.866 L 73.694 59.667 L 73.872 60.442 L 74.016 61.194 L 74.127 61.924 L 74.205 62.631 L 74.250 63.318 L 74.261 63.986 L 74.240 64.635 L 74.186 65.268 L 74.099 65.884 L 72.618 65.162 L 72.724 64.532 L 72.805 63.896 L 72.859 63.257 L 72.887 62.616 L 72.889 61.973 L 72.865 61.330 L 72.816 60.689 L 72.741 60.050 L 72.640 59.416 L 72.514 58.786 L 72.363 58.164 L 72.186 57.550 L 72.956 57.186 Z M 80.846 152.378 L 83.393 152.309 L 83.324 152.654 L 83.221 152.982 L 83.088 153.292 L 82.925 153.580 L 82.735 153.843 L 82.521 154.080 L 82.285 154.288 L 82.028 154.463 L 81.754 154.604 L 81.464 154.708 L 81.160 154.773 L 80.846 154.795 L 80.531 154.773 L 80.228 154.708 L 79.937 154.604 L 79.663 154.463 L 79.406 154.288 L 79.170 154.080 L 78.956 153.843 L 78.766 153.580 L 78.603 153.292 L 78.469 152.982 L 78.367 152.654 L 78.298 152.309 Z M 126.860 79.203 L 127.209 79.619 L 127.574 80.036 L 127.955 80.454 L 128.766 81.294 L 128.979 81.504 L 128.900 81.616 L 128.812 81.733 L 128.713 81.853 L 128.605 81.974 L 128.487 82.094 L 128.359 82.210 L 128.223 82.321 L 128.076 82.423 L 127.921 82.514 L 127.757 82.593 L 127.584 82.657 L 127.402 82.703 L 123.656 80.442 L 124.013 80.356 L 124.350 80.258 L 124.669 80.150 L 124.968 80.033 L 125.248 79.909 L 125.510 79.780 L 125.752 79.648 L 125.977 79.514 L 126.182 79.380 L 126.370 79.248 L 126.540 79.120 L 126.692 78.996 Z M 37.023 80.150 L 37.341 80.259 L 37.678 80.357 L 38.036 80.443 L 37.731 80.615 L 34.289 82.703 L 34.107 82.657 L 33.934 82.594 L 33.770 82.515 L 33.615 82.423 L 33.468 82.321 L 33.331 82.211 L 33.204 82.094 L 33.086 81.974 L 32.978 81.853 L 32.879 81.733 L 32.791 81.616 L 32.712 81.505 L 33.339 80.874 L 33.929 80.245 L 34.302 79.828 L 34.659 79.412 L 35.000 78.997 L 35.151 79.120 L 35.321 79.249 L 35.509 79.381 L 35.715 79.514 L 35.939 79.648 L 36.182 79.781 L 36.443 79.909 L 36.723 80.033 Z M 55.606 89.164 L 56.074 89.226 L 56.456 89.398 L 56.754 89.659 L 56.966 89.985 L 57.094 90.355 L 57.136 90.747 L 57.093 91.139 L 56.966 91.509 L 56.753 91.835 L 56.456 92.095 L 56.073 92.268 L 55.606 92.330 L 55.138 92.268 L 54.756 92.095 L 54.459 91.835 L 54.246 91.509 L 54.119 91.139 L 54.077 90.747 L 54.119 90.355 L 54.247 89.985 L 54.459 89.659 L 54.757 89.398 L 55.139 89.226 Z M 104.937 89.659 L 105.234 89.398 L 105.617 89.226 L 106.085 89.164 L 106.552 89.226 L 106.934 89.398 L 107.231 89.659 L 107.444 89.985 L 107.571 90.355 L 107.614 90.747 L 107.572 91.139 L 107.444 91.509 L 107.232 91.835 L 106.935 92.095 L 106.552 92.268 L 106.085 92.330 L 105.618 92.268 L 105.235 92.095 L 104.938 91.835 L 104.725 91.509 L 104.598 91.139 L 104.555 90.747 L 104.597 90.355 L 104.725 89.985 Z M 94.534 63.794 L 94.528 63.562 L 94.527 63.329 L 94.531 63.096 L 94.541 62.862 L 94.556 62.629 L 94.576 62.396 L 94.602 62.164 L 94.633 61.933 L 94.669 61.702 L 94.710 61.473 L 94.757 61.245 L 94.809 61.018 L 93.018 59.635 L 92.926 59.989 L 92.847 60.347 L 92.780 60.707 L 92.727 61.070 L 92.685 61.435 L 92.656 61.801 L 92.640 62.167 L 92.637 62.534 L 92.647 62.901 L 92.669 63.266 L 92.704 63.630 L 92.752 63.992 Z M 67.163 63.561 L 67.164 63.328 L 67.160 63.095 L 67.150 62.862 L 67.135 62.629 L 67.115 62.396 L 67.089 62.164 L 67.058 61.933 L 67.022 61.703 L 66.981 61.473 L 66.934 61.246 L 66.883 61.019 L 68.674 59.636 L 68.765 59.990 L 68.844 60.347 L 68.910 60.707 L 68.964 61.069 L 69.005 61.433 L 69.034 61.799 L 69.050 62.165 L 69.054 62.531 L 69.044 62.897 L 69.022 63.262 L 68.987 63.625 L 68.939 63.987 L 67.157 63.793 Z M 86.591 24.522 L 86.389 24.205 L 86.178 23.892 L 85.959 23.584 L 85.735 23.279 L 84.793 22.034 L 85.016 22.113 L 85.236 22.197 L 85.454 22.287 L 85.669 22.381 L 85.881 22.481 L 86.090 22.585 L 86.295 22.693 L 86.496 22.806 L 86.692 22.924 L 86.883 23.045 L 87.070 23.171 L 87.250 23.300 L 87.465 23.471 L 87.660 23.650 L 87.836 23.837 L 87.992 24.030 L 88.126 24.227 L 88.239 24.426 L 88.329 24.628 L 88.396 24.830 L 88.439 25.030 L 88.457 25.227 L 88.451 25.421 L 88.418 25.609 L 88.386 25.715 L 88.345 25.817 L 88.295 25.915 L 88.237 26.008 L 88.170 26.096 L 88.095 26.180 L 88.012 26.258 L 87.922 26.331 L 87.824 26.398 L 87.718 26.460 L 87.605 26.517 L 87.486 26.567 L 87.385 26.206 L 87.262 25.853 L 87.119 25.510 L 86.958 25.174 L 86.781 24.845 Z M 73.520 26.096 L 73.453 26.008 L 73.395 25.915 L 73.345 25.817 L 73.304 25.715 L 73.272 25.609 L 73.240 25.421 L 73.233 25.227 L 73.251 25.030 L 73.295 24.830 L 73.362 24.628 L 73.452 24.427 L 73.565 24.227 L 73.699 24.030 L 73.855 23.837 L 74.031 23.651 L 74.226 23.471 L 74.440 23.300 L 74.621 23.171 L 74.807 23.046 L 74.999 22.924 L 75.195 22.807 L 75.395 22.694 L 75.600 22.585 L 75.809 22.481 L 76.021 22.382 L 76.236 22.287 L 76.454 22.197 L 76.674 22.113 L 76.897 22.034 L 75.955 23.279 L 75.731 23.584 L 75.512 23.892 L 75.301 24.205 L 75.099 24.522 L 74.909 24.845 L 74.732 25.174 L 74.571 25.510 L 74.428 25.853 L 74.305 26.206 L 74.204 26.567 L 74.085 26.517 L 73.972 26.460 L 73.866 26.398 L 73.768 26.331 L 73.678 26.258 L 73.595 26.180 Z M 27.568 85.822 L 27.610 85.912 L 27.705 86.090 L 27.758 86.178 L 27.815 86.265 L 27.875 86.351 L 27.939 86.434 L 28.006 86.515 L 28.078 86.594 L 28.154 86.670 L 28.233 86.743 L 28.317 86.813 L 25.528 88.916 L 25.422 88.840 L 25.324 88.757 L 25.236 88.667 L 25.156 88.573 L 25.083 88.474 L 25.019 88.373 L 24.961 88.269 L 24.910 88.166 L 24.866 88.063 L 24.828 87.963 L 24.795 87.865 L 24.767 87.772 Z M 133.753 86.435 L 133.877 86.266 L 133.933 86.179 L 133.986 86.091 L 134.035 86.002 L 134.124 85.822 L 134.820 86.328 L 136.924 87.772 L 136.896 87.865 L 136.863 87.963 L 136.825 88.064 L 136.781 88.166 L 136.730 88.270 L 136.672 88.373 L 136.608 88.474 L 136.535 88.573 L 136.455 88.668 L 136.367 88.757 L 136.270 88.840 L 136.163 88.916 L 133.374 86.813 L 133.458 86.744 L 133.538 86.671 L 133.613 86.595 L 133.685 86.516 Z M 79.490 144.892 L 77.952 144.843 L 78.006 144.732 L 78.393 143.697 L 78.456 143.458 Z M 83.738 144.843 L 83.537 144.394 L 83.265 143.578 L 83.235 143.458 L 82.200 144.892 Z M 146.577 117.257 L 146.802 119.596 L 146.554 117.025 Z M 146.577 117.257 L 146.802 119.596 L 146.610 117.606 Z M 14.040 117.297 L 14.610 120.518 L 14.000 117.069 Z M 146.653 118.045 L 146.751 119.069 L 146.700 118.542 Z M 14.447 119.597 L 14.610 120.518 L 14.534 120.087 Z M 121.981 157.737 L 121.864 158.240 L 121.804 158.500 Z M 99.006 172.323 L 99.116 172.359 L 99.361 172.437 Z M 26.660 141.336 L 26.812 141.410 L 26.538 141.278 Z M 98.663 172.213 L 99.361 172.437 L 98.773 172.248 Z M 145.101 127.812 L 145.181 127.942 L 145.273 128.089 Z" fill="#111111" fill-rule="evenodd"/>
</svg>
