<svg xmlns="http://www.w3.org/2000/svg" viewBox="0 0 163.053 240.428">
  <path d="M 0.000 0.001 L 0.000 240.428 L 163.048 240.428 L 163.048 0.001 Z M 45.264 39.560 L 45.786 38.789 L 49.253 38.789 L 49.824 36.629 L 50.404 36.629 L 55.816 50.850 Z M 112.920 49.144 L 115.433 51.499 L 104.701 65.261 L 113.784 45.356 L 115.089 45.218 L 115.095 45.231 Z M 98.877 90.522 L 110.070 84.513 L 106.685 92.262 Z M 102.020 80.559 L 110.757 75.869 L 107.563 73.450 Z M 124.854 106.616 L 131.957 110.002 L 128.186 104.851 Z M 42.769 97.053 L 42.580 96.882 L 45.080 93.495 L 45.205 99.267 L 44.908 98.997 L 42.791 97.029 Z M 65.077 108.920 L 65.395 113.368 L 62.449 108.768 Z M 38.279 77.858 L 37.833 76.874 L 41.685 80.891 L 40.051 81.362 Z M 106.246 41.693 L 107.031 42.585 L 104.128 48.948 Z M 72.609 111.994 L 74.358 108.118 L 72.358 108.477 Z M 62.856 89.148 L 61.847 92.265 L 62.944 91.848 Z M 92.028 104.244 L 92.216 104.125 L 92.162 104.014 Z" fill="#111111" fill-rule="evenodd"/>
</svg>
