<svg xmlns="http://www.w3.org/2000/svg" viewBox="0 0 163.053 240.428">
  <path d="M 0.000 0.000 L 163.053 0.000 L 163.053 240.428 L 0.000 240.428 Z M 122.587 65.705 L 121.795 67.641 L 126.051 78.286 L 123.916 80.986 L 108.335 95.207 L 108.787 95.702 L 108.391 96.253 L 108.688 105.950 L 96.981 104.735 L 96.910 105.470 L 96.217 105.201 L 89.699 122.136 L 81.838 114.800 L 80.848 115.874 L 88.073 122.603 L 74.203 122.518 L 73.581 123.352 L 74.189 123.974 L 94.224 124.101 L 69.706 135.622 L 53.560 123.819 L 64.602 122.970 L 65.210 122.292 L 64.489 121.514 L 52.273 122.462 L 52.966 110.827 L 52.230 110.785 L 52.259 110.050 L 41.782 109.711 L 40.693 109.470 L 43.139 101.907 L 41.965 100.819 L 41.612 101.907 L 37.639 98.303 L 35.688 99.688 L 32.817 85.594 L 30.357 83.912 L 34.132 79.318 L 32.520 75.756 L 36.522 70.765 L 36.324 62.538 L 33.128 60.361 L 40.721 54.198 L 36.819 50.084 L 37.667 43.355 L 38.021 43.610 L 38.883 42.436 L 37.808 41.659 L 42.460 34.336 L 42.983 35.128 L 39.859 39.736 L 41.089 49.208 L 54.252 72.575 L 54.252 91.941 L 54.493 92.493 L 59.752 97.129 L 60.502 99.349 L 54.860 104.325 L 55.270 105.145 L 56.006 105.258 L 61.364 100.536 L 67.784 105.823 L 68.971 105.795 L 68.971 104.904 L 62.863 99.872 L 73.241 96.578 L 79.943 103.901 L 80.481 103.420 L 81.216 103.378 L 80.707 91.800 L 86.405 97.243 L 86.886 97.243 L 87.550 96.324 L 82.842 91.828 L 88.017 93.638 L 88.257 92.945 L 88.865 92.535 L 80.155 79.714 L 90.887 82.725 L 91.283 81.325 L 78.628 77.777 L 78.600 77.876 L 77.808 73.183 L 94.153 71.204 L 94.082 70.666 L 94.478 69.875 L 94.917 69.776 L 92.598 59.937 L 97.575 59.372 L 97.504 58.651 L 98.155 58.340 L 91.537 44.529 L 104.842 32.937 L 105.083 32.386 L 105.083 34.789 L 107.359 36.627 L 108.490 32.513 L 119.010 31.608 L 121.668 42.027 L 118.543 42.027 L 119.915 45.575 L 118.402 48.289 L 121.003 50.720 L 119.717 52.982 L 125.980 58.594 L 122.813 66.256 Z M 46.561 41.772 L 51.156 39.652 L 52.556 40.330 L 59.173 49.363 L 59.173 40.995 L 63.980 43.822 L 64.079 43.652 L 76.140 72.462 L 71.969 77.692 L 68.915 79.459 L 63.895 78.484 L 65.762 84.972 L 61.067 86.683 L 56.416 81.693 L 56.416 89.340 L 58.423 92.903 L 58.961 92.776 L 59.187 94.698 L 55.709 91.616 L 55.709 72.377 L 55.610 72.024 L 42.503 48.741 L 41.881 44.020 L 46.094 52.318 Z M 145.747 121.415 L 144.305 119.465 L 129.487 99.207 L 115.122 106.827 Z M 100.092 143.440 L 102.891 157.802 L 86.900 169.266 L 98.197 141.333 Z M 88.964 159.159 L 72.534 164.799 L 78.331 182.314 Z M 124.100 156.191 L 130.816 155.512 L 137.461 155.597 L 124.015 178.441 Z M 141.350 124.426 L 116.309 122.914 L 113.807 111.294 Z M 31.319 159.696 L 50.746 172.490 L 38.120 176.674 Z M 37.427 32.258 L 37.427 34.082 L 35.504 34.082 L 34.571 33.149 L 34.641 32.499 L 35.702 31.792 L 35.702 31.834 L 40.339 29.219 L 41.046 21.854 L 36.479 24.809 L 35.914 29.898 L 34.839 30.604 L 35.575 24.017 L 46.165 17.670 L 50.194 20.921 L 49.403 21.289 L 45.868 18.815 L 41.668 21.557 L 45.769 25.120 L 50.604 22.335 L 51.453 21.925 L 51.792 22.208 L 51.820 22.264 L 50.534 27.735 L 48.950 26.547 L 45.401 30.308 L 46.264 32.993 L 45.882 34.407 L 44.242 34.407 L 42.842 32.258 Z M 90.562 174.002 L 100.049 193.920 L 101.986 175.557 Z M 46.928 142.818 L 60.516 152.374 L 57.504 137.347 Z M 46.250 206.713 L 55.822 210.205 L 52.966 192.422 Z M 91.707 120.963 L 107.670 107.308 L 97.391 106.247 Z M 130.873 151.978 L 138.635 149.476 L 138.494 144.938 L 136.656 138.874 L 125.995 152.543 Z M 42.206 145.574 L 55.341 158.113 L 36.974 152.289 Z M 109.367 165.110 L 118.275 163.004 L 107.232 148.854 Z M 63.485 38.931 L 58.310 31.735 L 54.790 24.936 L 64.885 31.156 L 64.913 31.156 L 70.555 34.223 Z M 25.493 175.571 L 30.951 190.428 L 34.344 173.578 Z M 50.732 180.575 L 40.368 180.575 L 40.368 194.203 Z M 129.529 87.644 L 110.809 94.924 L 124.468 82.456 L 130.265 87.404 L 129.529 87.404 Z M 126.320 97.002 L 109.876 97.186 L 110.130 105.569 Z M 96.401 58.029 L 91.396 58.594 L 86.589 55.753 L 90.675 46.098 Z M 62.015 165.351 L 69.311 172.603 L 61.888 181.197 Z M 22.029 179.741 L 15.129 189.453 L 25.112 191.842 Z M 85.472 54.636 L 89.530 45.052 L 77.780 45.052 Z M 69.565 52.996 L 86.419 57.350 L 66.440 45.532 Z M 139.568 129.035 L 138.692 128.045 L 148.462 128.639 L 148.462 140.061 L 139.568 129.091 Z M 133.008 204.112 L 137.051 190.400 L 128.328 193.171 Z M 112.831 95.702 L 129.317 95.504 L 129.855 95.504 L 129.600 89.185 Z M 80.749 38.111 L 79.279 33.206 L 73.878 34.365 L 73.227 34.025 L 78.897 28.852 L 82.375 32.979 L 88.455 42.309 Z M 72.068 137.658 L 71.799 148.161 L 81.272 133.332 Z M 43.323 120.426 L 41.951 130.759 L 51.721 126.377 Z M 71.290 190.782 L 71.573 180.406 L 62.312 192.747 Z M 116.578 172.829 L 117.766 185.212 L 110.682 189.043 Z M 75.277 49.066 L 67.176 44.274 L 75.871 38.181 Z M 20.304 202.515 L 27.261 204.522 L 23.782 216.312 Z M 91.665 34.704 L 91.424 42.677 L 102.071 33.403 Z M 121.951 127.070 L 129.261 127.508 L 118.671 138.167 Z M 73.665 207.858 L 81.060 202.571 L 73.665 197.058 Z M 51.425 112.043 L 43.181 116.468 L 50.845 121.896 Z M 75.122 66.228 L 77.243 71.288 L 87.988 61.351 Z M 99.201 136.046 L 99.003 135.071 L 96.430 126.773 L 91.212 129.219 L 98.649 137.446 Z M 87.253 60.064 L 72.534 60.064 L 74.556 64.885 Z M 70.484 87.729 L 73.651 90.203 L 75.843 75.176 L 72.704 79.120 L 71.234 85.382 Z M 115.956 131.933 L 113.694 139.580 L 113.029 142.012 L 112.280 144.896 L 108.561 138.888 Z M 33.934 220.496 L 36.013 210.417 L 41.258 217.287 Z M 64.786 91.447 L 69.975 89.171 L 72.662 91.277 L 60.799 95.787 L 60.389 92.450 Z M 61.138 133.629 L 61.916 135.679 L 67.458 147.582 L 67.685 138.450 Z M 77.342 37.927 L 87.776 43.596 L 77.031 43.596 Z M 112.138 126.943 L 100.799 126.264 L 102.453 131.608 Z M 90.237 34.110 L 89.982 41.984 L 84.199 33.107 L 89.926 32.287 Z M 97.080 122.674 L 92.004 122.631 L 105.295 111.266 Z M 142.113 139.255 L 147.430 145.829 L 147.995 156.035 L 143.555 144.033 Z M 71.926 58.608 L 85.486 58.608 L 70.272 54.678 Z M 75.079 90.500 L 77.016 77.240 L 79.067 89.482 Z M 79.081 80.703 L 80.551 89.468 L 86.419 91.517 Z M 91.212 60.361 L 93.248 69.027 L 86.674 64.546 Z M 73.284 92.606 L 72.888 95.165 L 61.817 98.670 L 61.294 97.144 Z M 39.166 142.295 L 33.114 146.818 L 38.035 136.527 L 40.141 141.560 L 39.067 142.111 Z M 79.250 91.673 L 74.712 96.041 L 79.660 101.441 Z M 26.610 149.433 L 24.009 145.829 L 31.361 139.482 Z M 56.387 31.198 L 47.734 29.968 L 49.120 28.498 L 51.439 30.237 L 52.824 24.328 Z M 71.870 33.290 L 67.176 30.732 L 76.592 28.979 Z M 85.048 138.308 L 81.343 146.804 L 83.874 149.419 Z M 47.268 31.382 L 57.278 32.796 L 60.686 37.545 L 51.693 32.258 L 47.550 32.258 Z M 57.716 217.499 L 62.835 216.156 L 59.809 222.899 Z M 42.503 115.167 L 49.502 111.421 L 42.432 111.195 Z M 50.901 35.100 L 43.818 38.083 L 43.408 37.079 L 44.242 35.863 L 47.013 35.863 L 47.579 33.714 L 51.326 33.714 Z M 68.278 41.716 L 75.291 36.810 L 72.280 35.170 Z M 81.824 69.041 L 79.123 71.543 L 90.449 70.172 Z M 100.784 207.759 L 105.677 202.416 L 102.623 210.558 Z M 44.044 139.538 L 42.715 136.386 L 50.152 136.386 Z M 36.126 35.552 L 38.883 35.552 L 38.883 33.714 L 41.117 33.714 L 37.144 39.977 Z M 65.507 43.285 L 64.206 40.189 L 69.763 36.499 L 65.578 43.327 Z M 21.775 158.919 L 18.212 165.421 L 18.169 159.753 L 22.114 158.254 Z M 76.691 49.900 L 76.889 46.267 L 82.601 53.392 Z M 58.636 39.001 L 58.621 39.001 L 52.344 35.383 L 52.626 34.478 L 62.722 40.429 L 63.259 41.716 Z M 106.157 115.054 L 109.664 118.207 L 108.335 112.029 Z M 20.898 150.154 L 18.494 154.890 L 23.061 153.151 Z M 90.109 68.659 L 83.209 67.754 L 85.585 65.563 Z M 107.105 121.797 L 103.584 118.631 L 101.548 121.458 Z M 55.058 129.586 L 55.977 132.018 L 49.643 132.018 Z M 49.219 165.860 L 51.778 162.580 L 47.098 162.580 Z M 78.657 156.940 L 77.907 154.042 L 74.090 157.901 Z M 38.317 125.925 L 37.794 124.653 L 36.932 122.631 L 38.954 121.161 Z M 27.190 168.079 L 26.158 164.799 L 25.253 169.196 Z M 45.967 23.027 L 44.525 21.769 L 45.896 20.879 L 47.607 22.094 Z M 75.843 35.439 L 78.925 37.121 L 78.275 34.916 Z M 143.499 110.092 L 140.417 107.689 L 143.499 111.902 Z M 74.839 92.069 L 74.514 94.203 L 77.412 91.404 Z M 37.752 28.244 L 38.812 27.749 L 39.123 25.091 L 38.021 25.897 Z M 41.767 43.115 L 41.372 40.104 L 42.418 38.549 L 42.474 38.662 L 42.432 38.662 Z M 33.623 128.894 L 34.458 128.031 L 34.839 128.922 Z M 31.135 134.350 L 32.252 133.233 L 32.421 133.233 Z M 23.980 140.316 L 24.291 140.245 L 23.952 140.542 Z" fill="#111111" fill-rule="evenodd"/>
</svg>
