<svg id="Layer_1" data-name="Layer 1" xmlns="http://www.w3.org/2000/svg" viewBox="0 0 432 1296"><path d="M1195.17,573.1c-.52-6.12-1.05-12.46-1.49-18.68-.67-9.55-8-16.6-18.33-17.53-11.33-1-20.89-.88-29.21.46-23,3.69-44.65,12.62-65.57,21.26-12,4.94-24.33,10-36.79,14.1-21.41,7-36.17,24.12-50.45,40.69l-.48.56c-8.78,10.2-18.73,21.75-35.32,14.16-12.78-5.84-26-6.47-37.31-6.32-9,.13-18.06.16-26.86.19-11.29,0-23,.09-34.45.32h-.64c-8.43,0-14.94-3.4-19.9-10.39-13.7-19.33-19.17-39.37-16.72-61.28.62-5.57,1.72-8.5,3.79-10.08s5.12-1.89,9.83-1.14c34.23,5.39,67.25.61,98.15-14.22,37.92-18.2,58.07-44.68,61.59-81,.65-6.68-.59-11.6-3.69-14.63-2.89-2.83-7.28-3.9-13-3.19a45.22,45.22,0,0,0-24.72,11.1c-7.4,6.7-14.91,7-25.52,6.59-5.37-.19-6.64-1.19-6.91-1.77-.67-1.42,2.22-5.25,3.45-6.89,15-19.83,21.76-42.25,20.17-66.6-.27-4.09-.6-9.18-5.77-11.5-4.88-2.19-8.13,1.05-10.74,3.66l-.29.29c-3.37,3.34-6.34,6.57-9.21,9.68-10.8,11.75-20.13,21.89-42.88,28.44a12.18,12.18,0,0,0-2,.8,4.81,4.81,0,0,1-3,.66c-.92-.13-1-1.51-.81-4q0-.5.06-.93c1.15-23.69-2.67-47.77-11.42-71.68-1.81-3.95-5.12-4.74-7.43-3.8a4.76,4.76,0,0,0-2.62,6.21,225.28,225.28,0,0,1,11.86,61.57c1,13.13-4.47,31-18.87,39.31-18.72,10.76-27.93,27.1-28.18,50-.11,10.54-.18,22.8.51,34.88a76.85,76.85,0,0,1-.63,12.51c-.2,1.89-.41,3.86-.56,5.86s-.31,4.22-.47,6.3c-2,25.72-3.88,50,15.62,77.36,11.28,15.82,18.48,34.37,22.65,58.37.34,1.92.71,3.81,1.08,5.65,1.62,8.16,3.15,15.87.93,24.77-.14.58-.27,1.12-.38,1.61-.7,3.06-1,3.89-2.78,4.5-1.32.44-1.87-.13-3.38-2.62-.3-.5-.61-1-.94-1.52A135.83,135.83,0,0,0,829.54,686c-.49-.5-1-1-1.51-1.61-3.28-3.55-7.76-8.42-13.74-5.68-5.64,2.59-8.41,8.58-8,17.31.71,15.34,1.44,31.2,5.73,46.82,1.78,6.49,2,12.15-2.47,18.73-7.22,10.54-12.31,22.51-17.23,34.09-.7,1.65-1.41,3.3-2.11,4.94-1.23,2.86-3.08,7.17,1.59,9.26a4.3,4.3,0,0,0,3.61.28c1.53-.69,2.07-2.36,2.54-3.84a6.81,6.81,0,0,1,.81-1.93,23.71,23.71,0,0,0,3.46-7c.17-.45.33-.9.5-1.34,9.1-24,23.68-45.8,44.58-66.62.36-.37.78-.87,1.22-1.4.61-.72,2.43-2.91,3.1-2.91h0c.08,0,.36.34.62,1.25a76.22,76.22,0,0,0,3,8c3,7.23,5.88,14,2.48,22l-.83,2c-4.46,10.44-9.08,21.23-10.89,32.91-.52,3.32-3.8,4.85-7,6.33l-.16.08c-9.36,4.37-17.72,10.15-27.39,17.49s-17.07,21-18.87,34.89c-1.49,11.51,1,22.11,7.06,29.85,6.59,8.45,9.57,19.11,8.86,31.69-.93,16.26-8.24,30.49-15.31,44.25l-2.69,5.26a122,122,0,0,0-13.14,47.42c-1.27,19.86-1.95,40.08-2.61,59.63-.78,23-1.58,46.87-3.36,70.27-2.5,32.73-3.86,68.59-4.16,109.62-.23,31.54-.77,62.09-1.44,98.76a303.74,303.74,0,0,0,18.59,111c1.23,3.34,2.43,6.69,3.64,10,8.73,24.3,17.75,49.43,36.65,69.07,1.78,1.86,1.24,3.39.14,5.93a21.21,21.21,0,0,0-.79,2c-16.23,40-16.23,40-24.2,64.06l-.05.22c-.61,4.28,1.55,6.36,3.58,6.84a4.4,4.4,0,0,0,1.09.13,6.14,6.14,0,0,0,5.69-4.4l1.46-4.4c3.88-11.77,5.65-17.13,15.44-43,2.5-7.29,3.06-8.78,4.07-11.48l.39-1c.68-1.82,1.7-4.26,2.71-4.53s3,1.24,4.34,2.39c21.09,17.53,37.79,34.45,52.56,53.25a9.77,9.77,0,0,1,1,1.79c.94,2,2.36,4.95,6.4,3.87,4.3-1.15,3.81-4.71,3.52-6.84a11.86,11.86,0,0,1-.16-1.85c.83-20.76-.21-41.8-1.21-62.15-.49-9.81-1-20-1.27-29.92-.32-11.33-2.23-23.63-5.84-37.62-15-58-47.62-104.75-97.09-139-20.93-14.5-21.06-22.68-21.49-49.78-.06-3.24.57-4.5,1.1-5,.13-.12.46-.39.68-.35.72.14,1.71,2.16,2.25,3.25.16.33.32.65.47.93,8.39,16,19.18,31.56,35,50.55,19.7,23.65,45,48.61,83.21,54.43,18.77,2.86,35.87-.48,50.83-9.94,11.11-7,17.53-16.14,18.6-26.4,1.21-11.79-4.58-24.28-16.77-36.1-12.91-12.53-30.29-12.85-43.24-.8-4.9,4.56-7.09,9.09-6.52,13.47s3.89,8.24,9.84,11.4c.32.17.64.38,1,.59,1.12.72,2.4,1.55,3.83,1.16a3.77,3.77,0,0,0,2.32-2.18c1.71-3.36-.83-5-2.69-6.17l-.49-.31-1-.64c-2-1.27-4.11-2.58-4.4-4.3-.19-1.16.41-2.62,1.8-4.34,8-9.9,20.81-11.88,31.17-4.82,7.89,5.38,12.34,13.41,16,21.28,4.51,9.76,2.22,18.81-6.45,25.47-17.62,13.53-37,18.1-57.49,13.58-23.8-5.25-44.9-18.89-66.39-42.93A328.08,328.08,0,0,1,778.45,1260c-1.43-4.2-1.51-17.33,2.15-23.88,1.07-1.93,2.35-3.06,3.79-3.37,31.05-6.65,58.13-18.82,85.23-38.3,3.25-2.33,6.52-2.46,10.74-1.91a166.33,166.33,0,0,0,57.93-3c4.87-1.09,8.26-.66,11.71,1.48l3.57,2.22c12.73,7.9,25.89,16.07,38.09,25.24a720.73,720.73,0,0,1,57.69,48.52l.63.62c1.41,1.39,3.76,3.73,6.54,1a3.67,3.67,0,0,0,1.39-2.91c-.11-1.43-1.3-2.27-2.35-3a10,10,0,0,1-1-.76c-3.4-3.16-6.82-6.41-10.13-9.55s-6.67-6.34-10-9.47c-22.5-20.92-48.21-38.31-70.89-53.66-3.65-2.47-4.4-3.49-4.4-3.89a1.75,1.75,0,0,1,.79-.46,41.18,41.18,0,0,0,4.32-2c4.47-2.32,8.69-4.5,14.22-1.45a840.27,840.27,0,0,1,72.65,45c1.87,1.3,3.73,2.76,5.52,4.18,5.8,4.58,11.8,9.32,20.14,10.11l3.88.37-3-2.56c-29.1-25.2-62.49-45.29-92.11-63,8.82-9.8,17-6.49,26.75-1.13a670,670,0,0,1,74.36,47.6c.74.54,1.48,1.13,2.23,1.73,3.64,2.88,7.76,6.15,14.62,7.07l2.75.37-1.56-2.31c-4.86-7.21-10.12-11-14.77-14.43a762.26,762.26,0,0,0-78.74-50,14.58,14.58,0,0,0-1.69-.75c-.82-.32-1.65-.65-1.81-1-.06-.14-.13-.6.4-1.71,2.38-4.92,18.79-10.38,24-8,38.3,17.32,68.81,34,96,52.51.42.29.83.63,1.27,1,1.83,1.5,4.34,3.56,7.94.7l.67-.52-.25-.81c-1.16-3.93-4.31-5.76-7.08-7.37-.74-.43-1.43-.84-2.1-1.28a710.62,710.62,0,0,0-91.08-51c-.55-.26-1.12-.46-1.66-.66-2.13-.77-2.81-1.15-2.66-2.78s2-3.68,4.84-5.48c4-2.58,8.89-3.87,11.28-3,11.62,4.2,22.92,9.7,33.85,15,6,2.94,12.3,6,18.55,8.78a97.68,97.68,0,0,1,10.46,5.77c6.18,3.75,12.57,7.62,20.93,9.66l2.49.61-1.07-2.34c-2.57-5.64-6.07-7.48-9.16-9.11-.54-.28-1.07-.56-1.59-.86a594.7,594.7,0,0,0-68.64-33.7c-.9-.37-3.64-1.5-3.82-2.56-.07-.42.18-1.48,2.73-3.76a213,213,0,0,0,16.93-17.76l1.56-1.77c27.6-31.24,45.73-59.89,57-90.15,17.42-46.61,11.94-94.49,6.64-140.79l-1.29-11.36c-1.94-17.49.7-31.58,8.33-44.32,14-23.43,29.42-55.19,24.07-93-1.26-8.85,1.14-15.44,7.55-20.71,8-6.61,11.54-15.72,14.72-25.25C1201,642.28,1198,607.11,1195.17,573.1Zm-48.9,88.27c-5.24,2-5.49,5-4.78,7.14a4.55,4.55,0,0,0,2.52,3c2,.78,4.18-.2,5.68-1,9.43-5.07,18.36-3.85,27.3,3.74.43.37.94.73,1.43,1.08a10.63,10.63,0,0,1,2,1.62c-.15,7.62-4.82,12.43-9.76,17.52a74.22,74.22,0,0,0-5.55,6.19c-2.78,3.64-5.66,3.23-10.32,1.11-12.4-5.63-20.64-14.85-23.83-26.67-3.85-14.24.06-30.63,11-46.14,6.32-9,15-13.85,24.15-19,3-1.7,6.13-3.46,9.11-5.36l1-.64a23.61,23.61,0,0,0,5.32-4.08c1.79-2,5-3.6,6-3.6a.5.5,0,0,1,.18,0,17.4,17.4,0,0,1,1.35,6.28c.3,4.13.24,8.38.17,12.49,0,1.76,0,3.52,0,5.28v.09c1.09,14.16-1.42,28.18-3.85,41.75-.22,1.2-.79,4.41-1.82,4.82-.42.17-1.58.12-4.6-2.1C1169.5,658,1158.52,656.8,1146.27,661.37ZM1093,960.87a4.33,4.33,0,0,0-3,2.38c-.59,1.56.32,3.13,1,4.39a10.7,10.7,0,0,1,.63,1.17c5.88,13.31,8.17,27.84,10.39,41.88l.33,2.06c.05.37.13.75.2,1.13.47,2.47.66,4.14-.76,5.56-1.87-.59-2.39-2-3.11-4.3a19.12,19.12,0,0,0-.81-2.3c-9.89-22.37-24.75-36.26-45.44-42.49-12.24-3.68-26.82,1.1-33.91,11.13-6.73,9.5-7.15,28.17-.84,37.68,1.09,1.64,2.58,3.9,5.65,2.61a3.82,3.82,0,0,0,2.49-2.35c.45-1.5-.5-2.89-1.18-3.9-.19-.28-.37-.54-.5-.78-5.37-10.16-4.73-19.15,1.95-27.49,9.67-12.07,22.08-13.15,37.93-3.32,18.17,11.26,25.55,29.94,32.69,48,7.54,19.11-2.25,30.78-13.58,44.28-1.21,1.45-2.45,2.93-3.69,4.43-1.44-6.55-2.41-13.13-3.36-19.52-2.17-14.69-4.21-28.57-11.44-42.35l-1.09-2.07-1.11,2.06c-2.31,4.31-2.7,7.34-1.38,10.82,6.14,16.21,8.82,33.82,8.45,55.42-.11,6.52-1.78,10.5-5.77,13.76l-.45.37a17.14,17.14,0,0,0-4.53,4.76c-10.77,19.81-25.51,16.54-43.66,10.22-17.41-6.07-29.41-12.54-39.27-27.68C960.19,1062.37,933,1055,904.09,1049a102.75,102.75,0,0,0-15.61-2c-.45,0-1-.09-1.48-.16-1.9-.25-4.27-.56-5.87.86a5.29,5.29,0,0,0-1.5,4.17,4.57,4.57,0,0,0,1.38,3.78c1.4,1.13,3.31.72,4.84.4a7.79,7.79,0,0,1,1.73-.26c25.64,1.86,48.89,9.48,69.1,22.67,8.12,5.31,14.1,11.36,18.28,18.5a12.81,12.81,0,0,0,1,1.41c1.24,1.6,1.48,2.16.81,3.09-1.47,2-3.84,1.48-5.56.68a39.52,39.52,0,0,0-18.91-3.9h-.79c-1.41,0-4.34-.08-4.57,3.4-.24,3.66,3.24,4.48,4.54,4.78,2.17.51,4.37,1.11,6.51,1.7,5.32,1.45,10.83,3,16.36,3.2,2.63.11,4.44.76,5.37,1.92,1.34,1.67,1,4.39.5,7.27-.27,1.53-.71,2.53-1.26,2.81-.78.38-2.31-.38-3.66-1a15,15,0,0,0-2.85-1.19c-2.71-.69-5.45-1.46-8.1-2.21s-5.3-1.5-8-2.18c-1.42-.36-3.55-.91-5.2.1a4,4,0,0,0-1.79,2.68c-.91,3.84,2.27,4.86,4.37,5.53l.4.13c2.17.71,4.36,1.56,6.48,2.39a63.85,63.85,0,0,0,12.54,3.94c3.1.52,4.79,1.24,5.34,2.27s.26,2.43-.71,4.61c-.31.69-.59,1.42-.86,2.13-.79,2.09-1.55,4.06-3,4.6-1.13.43-2.84,0-5.09-1.12-6.67-3.47-14.23-7.4-24.4-7.58l-2.06,0,.93,1.85c2.85,5.64,7.14,7.44,10.93,9a25.09,25.09,0,0,1,4.52,2.26,15.26,15.26,0,0,0,2.74,1.38c1.44.61,3.07,1.31,3.38,2.23a2.67,2.67,0,0,1-.5,2c-1.32,2.28-5.16,4.93-9.22,3.34a26.12,26.12,0,0,1-3.05-1.51,31.17,31.17,0,0,0-2.89-1.45l-.29-.13c-1.66-.72-4.17-1.8-6.21.5a4.41,4.41,0,0,0-1.29,3.27c.12,1.71,1.42,3,2.69,4.08,2.3,1.94,2.38,2.84,2.35,3.07-.11.78-2,1.65-3.49,2.35l-1.23.58c-26.51,12.94-54.82,16.27-86.55,10.16-18.54-3.57-25.93-16.89-33.74-31-.65-1.18-1.3-2.35-2-3.52a42.69,42.69,0,0,1-3.33-8.74,65.23,65.23,0,0,0-2.31-6.73c-4.32-10.1-5.19-17.89,3.79-25.5,5.25-4.45,7.3-11.51,5.9-20,9.15,3.68,16,4.12,21.32,1.39,6.71-3.41,11.22-11.8,14.63-27.18,4.52-20.46,2.45-38.79-6.34-56.06a49,49,0,0,1-4.15-10c-1.8-7.11-.52-14.1,3.51-19.18a18.12,18.12,0,0,1,15.12-6.82c6.66.16,9.78,5.14,9.57,15.22-.27,12.69,3.3,21.88,11.22,28.94,6.22,5.54,12.9,8,18.78,7,5.25-.9,9.77-4.51,13.06-10.44,9.59-17.26,22.74-19.67,40.84-17.95,1.7.16,3.47.24,5.3.24,27.42,0,67.3-18.06,75-50.38,4.49-18.92.44-30.56-14-40.17-2.37-1.58-3-3.16-2.28-6.26a14.65,14.65,0,0,0-6.65-15.78c-4.64-3-10-1.78-15.58,3.4-6.29,5.85-14,7.31-25,4.73-8.7-2-19-4.1-29.85-3.87a12.25,12.25,0,0,0-2.06.27c-2.43.47-3.09.4-3.49-1-.56-1.9.43-2.66,3-4.06.51-.28,1-.56,1.47-.85,9.17-5.84,19.38-5.68,28.17-4.75,3.53.37,7.13.83,10.61,1.27,10.34,1.33,21,2.7,31.7,2,13.35-.92,22.74-5.53,27.94-13.71,5.37-8.47,5.65-20.61.78-33.31-4.51-11.77-16.22-15.44-24.63-17.19-8.62-1.78-11.48,6.78-13.18,11.89-6.16,18.5-21.15,27-40.35,23.11,1.52-1.32,3.07-2.6,4.58-3.85,6-5,12.26-10.17,16.43-17.38,12.37-21.39,13.7-45.27,4-73-1.34-3.88-2.73-7.74-4.11-11.6-4.66-13-9.48-26.45-12.76-40.15-3.89-16.19-4.11-33.3-.68-53.84.06-.34.1-.7.15-1.07.1-.87.22-2,.61-2.24a1.54,1.54,0,0,1,1.13,0c1,.22,1.19.39.92,2.6-.05.43-.1.87-.13,1.32-2.52,39.44,11.26,71,40.95,93.71,23.83,18.23,49.89,26.7,77.49,25.14,16.6-.93,29.14-10.49,36.28-27.65,4.21-10.12,7.52-19.34,5.29-29.68a4.13,4.13,0,0,1,.27-3.25,2.61,2.61,0,0,1,2.07-.79h.06c3.64,0,17.68,12.95,18.44,17,5,26.82.4,52.5-13.32,74.27-16.56,26.3-21.61,54.75-15.9,89.54,9.12,55.63,4.75,100.63-13.75,141.64-1.35,3-1.78,3.68-2.87,3.68-1.52,0-1.8-.6-2-4.3v-.13c-1.31-21.79-5.44-41-12.65-58.7-.14-.34-.25-.71-.37-1.08-.42-1.31-.9-2.8-2.25-3.49A3.83,3.83,0,0,0,1093,960.87ZM970.43,1163a9.07,9.07,0,0,0,1.56-1.71c1.63-2.58,3-3.88,4.51-4.21a4.17,4.17,0,0,1,.8-.08,7,7,0,0,1,3.62,1.3c.54.35,1.1.65,1.65.94,1.66.9,3,1.63,3.55,3.4l-1.45.72c-1.71.84-3.47,1.71-5.23,2.51l-.26.12c-4.08,1.86-6.74,2.79-9.36,0a2.11,2.11,0,0,1-.71-1.27C969.13,1164.21,969.79,1163.61,970.43,1163Zm12.2-14.76a4.41,4.41,0,0,1,1.54-3.29,10.24,10.24,0,0,0,2-4.74c.42-1.72.82-3.35,1.8-3.89a2.27,2.27,0,0,1,1.06-.23,6.85,6.85,0,0,1,2.21.47c1.67.59,3.39,1.14,5,1.67,5.54,1.77,11.25,3.6,16,7.25-14,12-18.63,12.16-26.7,6.52C983.75,1150.72,982.75,1149.46,982.63,1148.26Zm6.68-27.49a15.72,15.72,0,0,0,.08-3.87c0-.17-.06-.57.07-.72a4,4,0,0,1,2.32-.4c.54,0,1.09,0,1.59,0s1.3,0,1.94,0l7.57,2.29c7.09,2.13,14.41,4.32,21.72,6.86.69.24,1.47.45,2.3.67,2.1.55,4.72,1.24,5.37,2.5a1.86,1.86,0,0,1,0,1.66c-1.76,4.88-7,9.3-12.35,7.93a155.47,155.47,0,0,1-20.14-7.14c-2.5-1-5.09-2.07-7.65-3.05C988.91,1126.36,989,1124.2,989.31,1120.77ZM785,1138.09a91,91,0,0,0,14.75-16.62,1.68,1.68,0,0,1,1.36-.9,1.77,1.77,0,0,1,.3,0,2.65,2.65,0,0,1,1.83,2.13c2.3,14.77,9.45,27.42,17.73,42.07l.48.84c-10.26-4.69-18.33-10.62-26.15-16.38-3.54-2.61-6.88-5.07-10.41-7.42a2,2,0,0,1-1-1.52A2.93,2.93,0,0,1,785,1138.09ZM980.3,739a179.77,179.77,0,0,1,7.78,23c6.49,26.45,2.82,46.43-11.54,62.87-8.67,9.93-17.88,14.11-29,13.16-13.19-1.13-23.72-3.33-33.15-6.93-10.84-4.14-17.84-11.85-20.81-22.93-2.13-7.94-1.9-14.37,6.12-19.95,8.34-5.8,13.63-14.61,18.75-23.88C920,761.51,921,760,922.8,760a7.8,7.8,0,0,1,3.27,1l.75.36c5.77,2.79,11.22,5.43,11.81,12.08,0,.29,0,.68-.16.84-.69.61-3.45.06-4.35-.13-8.06-1.62-13.74-.64-16.86,2.93s-3.4,9.57-.66,17.64c3.87,11.43,11.68,18.64,22,20.29s20.2-2.63,28.19-12.45c16.2-19.9,10.72-40.93,4.13-57-7.54-18.43-15-40.5-13.1-64.42.06-.75.11-1.5.17-2.25.46-6.54.94-13.27,5.49-18.8C961.27,687.78,970.17,713.25,980.3,739ZM861.89,721.09c-.13-3.62-.24-6.74,3.05-9.15,6.14-4.5,12-9.62,17.63-14.57,12.5-11,25.42-22.31,42.27-27.27a9.08,9.08,0,0,0,2.62-1.41,4.8,4.8,0,0,1,2.37-1.14,2.29,2.29,0,0,1,1.6.85c1.37,1.35,1,2.52.14,4.64a13.36,13.36,0,0,0-.83,2.6c-.74,4.38-1.59,8.83-2.4,13.13-1.43,7.48-2.9,15.22-3.89,22.91-.63,4.88-2.12,6.9-6.38,8.64-11.21,4.59-22.39,9.76-33.2,14.75l-6.16,2.84c-6,2.77-9.74,3.43-12.05,2.15s-3.79-4.87-4.69-11.59a21.39,21.39,0,0,1-.07-3.6c0-.6.05-1.21.05-1.82h0C861.94,722.4,861.92,721.74,861.89,721.09Zm88.17,199.53c-1.42-5.93-11-11.5-1.86-18.21,5.72-4.22,30.91-1.72,34,3.6,3.27,5.69,2.16,12.29,0,18.32-5.09,14.33-18.08,22.68-37.74,22.56C932.09,943.59,916,943.42,901,938c-9.17-3.35-9.75-6.6-2.32-13a242.16,242.16,0,0,1,19.49-14.63c2.31-1.6,5.41-3,8.21-.57,3,2.6,1.79,5.25-.33,7.74-6,7.08-.7,12,3.82,16.06,4.91,4.42,11,7.76,18.08,5,2.49-.95,3.93-3.09,4.09-6.09C952.28,928.38,951,924.6,950.06,920.62ZM962.27,970c19.24-3,32.6-15.72,39.71-37.87,2.81-8.77,6.26-15.45,10.85-21l.85-1c2.7-3.36,4.83-6,9.62-4.93,5.23,1.18,8.32,4.21,10.31,10.14,4.43,13.18-1.54,33.62-12.28,42.05-16,12.55-37,24.85-71.57,21-12.72-3.12-26.12,4.89-35,20.91-2.16,3.91-7,10-15.22,7.15-8-2.84-12.67-8.84-13.07-16.9l-.12-2.69c-.29-6.81-.6-13.85-3.53-20.68-.88-2-1.05-3.55-.48-4.27.35-.44,1.14-.86,2.93-.86a20.07,20.07,0,0,1,3.42.35c11.12,2,21.75,4.47,34.48,7.54A100.76,100.76,0,0,0,962.27,970Zm-32.75-91.39c-4.1,5.89-10,7.66-16.33,9.54-2.29.69-4.66,1.39-6.89,2.31-.47.19-1.08.37-1.4.12s-1.24-1.29-.41-6.79c2-13.46,16.45-26.36,31.49-28.16a161.88,161.88,0,0,1,19.32-1.26,115,115,0,0,1,13.61.79,52.76,52.76,0,0,0,6.19.36c18.55,0,38.24-9.8,42.53-33.09.44-2.37,1.2-3.85,2.26-4.41,1.45-.76,3.72,0,6.68,1.36,10.14,4.67,16.58,14.59,15.66,24.14-1.11,11.59-5.39,15.82-19.91,19.67a55.66,55.66,0,0,1-15,1.65c-6.85,0-13.73-1.19-20.39-2.3-7.33-1.22-14.9-2.48-22.61-2.33C949.56,860.52,937.84,866.72,929.52,878.65Zm-81,6.49a18,18,0,0,1,3.15.26c10.46,1.91,16.83,10.9,17.07,24.06C863.85,928.83,856,947,846.11,962.12c-.89,1.36-1.43,1.56-1.62,1.58-.6.06-1.7-1-2.75-2l-.41-.39c-18.43-17.83-22.49-40.65-24-60.62a9.76,9.76,0,0,1,.29-3.88C819.25,892.32,837.68,885.14,848.5,885.14ZM958.63,644.36C945,671.09,944.57,699.89,957.24,735q1,2.7,2,5.4c3.74,10.12,7.61,20.59,8.86,31.54a30.49,30.49,0,0,1-7.27,23.93,26.64,26.64,0,0,1-20.12,9h-.37c-5.46.44-10.31-2.33-13.67-7.8-1.46-2.37-4.45-8.43-.85-13.39a3.58,3.58,0,0,1,3.05-1.7,13.45,13.45,0,0,1,4.28,1.11,20.6,20.6,0,0,0,3.74,1.14,8.62,8.62,0,0,1,2.79,1.36c2,1.25,4.72,3,7.3.29,3.36-3.46,1.8-8.13.55-11.88l-.31-.93c-3-9.16-8-15-15.3-18-6.34-2.54-6.8-5.48-5-13,4-16.54,7.35-33.54,10.57-50,1.63-8.29,3.31-16.86,5.06-25.27.89-4.3.64-6.78-.85-8.31s-4.09-1.85-8.6-1c-23.65,4.48-42,18.5-56.8,31.62-1.29,1.14-2.61,2.25-3.92,3.37l-2.8,2.39c-2.62,2.27-3.67,2.36-4.07,2.21s-1.14-.79-1.61-4.29c-2.42-18.25-5.66-37.72-12.9-56.4-.93-2.38-.85-3.72-.49-4.14s1-.39,2.08-.17c15.22,3.1,30.54,1.85,45.35.65,8.44-.69,17.18-1.4,25.75-1.29a91.72,91.72,0,0,1,32,6.18c2.19.83,3.77,1.5,4.12,2.41S959.72,642.23,958.63,644.36Zm-84,105.94c.83-.29,1.68-.59,2.48-.95,4-1.8,8.13-3.51,12.12-5.17,9.09-3.77,18.49-7.67,27.15-12.9a5.18,5.18,0,0,1,2.54-.95,2.4,2.4,0,0,1,1.31.41c1.13.72,1,1.13.39,2.75a12.46,12.46,0,0,0-.55,1.63c-6.78,28.39-26.69,47-43.29,60.13A253.62,253.62,0,0,1,815,831a8.63,8.63,0,0,1-2.66.28l-.75,0c6.9-10.81,16.56-16.16,25.16-20.35,11.22-5.46,17.84-14,20.86-26.77,1.5-6.4,4.11-12.71,6.63-18.8,1.37-3.31,2.78-6.73,4-10.15C869.34,752.17,871.92,751.26,874.66,750.3Zm5.24,55.17c1.76-1.43,2.86-2.07,3.26-1.92,0,0,.51.2.84,2.06,4.63,25.4,24,33.73,42.45,38.52a15.67,15.67,0,0,1,2.63,1.11l.15.07c-19.19,9.38-36,22-33.7,48.31-.63,2.41-13.71,13.56-16.21,13.82-1.1,0-1.23-.33-1.63-1.82-.1-.33-.19-.67-.3-1-6.68-19.83-15.56-28.74-30.82-28.74-5.86,0-12.67,1.32-20.66,3.84a18.42,18.42,0,0,0-4.69,2.64c-3,2.11-5,3.32-7,1.65A37.25,37.25,0,0,1,802,865.48c-3.38-12.22.18-18.7,13.14-23.89C842.41,830.66,863,819.18,879.9,805.47Zm-71,139.15c1.17-5.32,2.11-8.57,5.37-8.83h.14c1.83,0,2.92,2.82,4.36,7.09,1.11,3.28,2.37,7,4.62,9.41,23.95,25.75,16.64,53.42,5.16,79.48l-.08.2c-3.33,7.55-5,11.34-7.62,12.82s-6.72,1-14.89,0c-.76-.1-1.51-.17-2.27-.23-9.09-.8-13.66-1.2-15.68-3.37s-2-6.65-1.91-15.59v0c-.7-27.1,5.93-51.32,19.71-72C807.45,951,808.16,947.76,808.86,944.62ZM788,1054.13a33.64,33.64,0,0,1,5.83-.79c.79-.06,1.55-.12,2.28-.2,17.09,1,31.41,9.32,45.26,17.32l1.42.82a2.67,2.67,0,0,1,1.41,1.72,4.24,4.24,0,0,1-1.08,3.16c-3.12,4.06-5.08,3.49-6.74,2.27a88.34,88.34,0,0,0-48.87-17.66c-1.28-.06-1.59-.54-1.75-2.68C785.68,1057.1,785.75,1054.72,788,1054.13Zm.15,17h.39c1.3.06,2.61,0,3.88,0a25.54,25.54,0,0,1,6.92.47c1.37.36,2.92.64,4.57.94,4.85.89,10.35,1.89,10.25,4.89,0,1.42,0,2.86,0,4.38.09,7.19.18,14.63-7,19.93A97.35,97.35,0,0,0,783.26,1126a332.76,332.76,0,0,1,2-52.34C785.44,1072.13,786,1071.14,788.15,1071.14Zm353.57-507.68a28.65,28.65,0,0,0-.16,3.6c.15,3-1.23,6.19-2.57,9.33-.53,1.24-1.08,2.52-1.53,3.78-1,2.72-.13,4.94,2.32,6.1a3.85,3.85,0,0,0,3.31.18,4.92,4.92,0,0,0,2.47-3.3c.56-1.89,1.22-3.83,1.85-5.7,1.63-4.78,3.32-9.72,3.67-14.76.21-2.88.89-4.72,2-5.34s2.89-.28,5.66,1.1c11,5.46,17.59,15.35,22.6,24.3,1,1.71.74,3-.74,4.49-10.61,10.37-22.78,19.94-39.76,19.94H1140c-7.22,0-15.93-4.9-23.3-13-7.91-8.64-12.43-19-11.81-27,.19-2.33.6-3.83,2.16-4.57,11.3-5.32,20.24-7.75,28.67-7.75.57,0,1.14,0,1.7,0a4.59,4.59,0,0,1,3.43,1.27C1142.21,557.7,1142,560.76,1141.72,563.46Zm-97.62,98.6c-2.06,6.23-3.47,9.42-10.45,8.24-6.6-1.11-10-4.6-11.14-11.31-2.81-17,4.8-31,20.88-38.46a73.21,73.21,0,0,1,30.8-7.09,67.07,67.07,0,0,1,15.07,1.72,209.55,209.55,0,0,0-27,20A59.38,59.38,0,0,0,1044.1,662.06Zm69.26-55.24c-1.95,2-4,2.86-8.76,1.67-23.37-5.87-41.38-7.24-64.22,3.08-22.5,10.17-32,30.55-24.84,53.18,3.29,10.36,9.78,15.65,19.3,15.73,4.71,0,5.19,1.57,5.46,6.33.79,13.79,6.52,24.52,17.53,32.81,10.25,7.72,23.81,6.57,37.2-3.15l.8-.56c1.7-1.18,3.81-2.64,4.18-4.76a4.82,4.82,0,0,0-3.7-5.15c-1.89-.23-3.5,1.13-4.93,2.33a14.62,14.62,0,0,1-1.34,1.06c-10,6.68-19.14,7.6-28,2.79-9.26-5.06-13.63-13.69-13.73-27.17-.13-16.67,6.64-31.17,20.1-43.09,17-15.07,36.3-23.6,57.27-25.35.81-.06,1.65-.17,2.51-.29,3.67-.48,7.13-.93,9,1.65,1.36,1.87.54,3.08-1.8,5.61a14.92,14.92,0,0,0-2.56,3.31c-7.15,14.31-10.78,26.58-11.4,38.62-.1,1.91-.28,5.48-1.56,6.18-.82.45-2.52,0-4.79-1.33a7.82,7.82,0,0,0-5.2-.8,12.65,12.65,0,0,1-2.68.09c-2.52-.09-6.32-.22-6.74,4.06a4.69,4.69,0,0,0,1,3.9c1.38,1.42,3.56,1.25,5.49,1.11a13,13,0,0,1,2.11-.06c12.89,1.48,19.34,8.21,20.3,21.18.32,4.46.36,9,.38,13.33,0,12.57-3.89,23.19-11.35,30.69s-17.91,11.43-30.34,11.44c-54.65-4.79-91.34-35.17-100.65-83.36-1.68-8.68-1.19-18-.71-27.07.09-1.68.18-3.35.25-5,.19-4.31,3-7.42,6-10.71,1.17-1.3,2.39-2.65,3.45-4.09,20.74-28.23,49.87-46.18,94.47-58.2a11.19,11.19,0,0,1,2.82-.44,3.84,3.84,0,0,1,2.08.51c1.31.82,1.91,2.74,2.4,5.36,2.14,11.38,4,17.68,12.12,26.33C1112.42,600.78,1114.43,605.75,1113.36,606.82ZM910.75,438.71c-2.41,2.63-5.15,3-9.07,2.63h-.2c-1.87.14-4.7.36-5.33-.51-.28-.38-.54-1.51.8-4.78A70.63,70.63,0,0,0,902.18,412c.42-10,6.51-16.33,13-23.09,1.16-1.22,2.33-2.44,3.46-3.68,3.21-3.54,5.3-5.65,9.1-9.5,1.09-1.11,2.33-2.35,3.77-3.82.24-.25.48-.51.72-.79,1-1.15,1.68-1.76,2.46-1.76a2.08,2.08,0,0,1,.85.21c1.38.63,1.82,1.82,1.68,4.54C936,399.06,927.09,420.8,910.75,438.71Zm.13,16.48a12.43,12.43,0,0,1,7.41-2,51.24,51.24,0,0,1,11.12,1.74l.94.21a2.66,2.66,0,0,1,1.32.55h0c0,.34-.48,1.17-3,3.2l-.17.14c-15.62,12.53-32.82,22.8-51.9,33.67C884.81,480.36,895.89,465.94,910.88,455.19Zm-38.82,11.88c6.2-.79,12.7-5.63,17.38-13,1-1.52,2.23-2.52,3.29-2.61a2.5,2.5,0,0,1,2.06,1c.57.62.55,1,.54,1.13,0,.85-1.18,1.9-2.1,2.75-.3.27-.59.54-.85.8a356.56,356.56,0,0,0-44.71,55.36c-2.69,4.05-6,5.64-11.06,5.3-.71-.13-1.48-.19-2.23-.25-1.17-.09-2.78-.22-3.14-.68-.76-1-.48-1.52,1-3.21a11.74,11.74,0,0,0,1.54-2q1.63-2.91,3.3-5.82c2.31-4.06,4.71-8.27,7-12.46l1.55-2.88C851.6,479.45,857.22,468.94,872.06,467.07Zm21.12-54.53c-2.12,22-11.11,37.19-27.47,46.32-3.4,1.9-4.7,1.67-5.17,1.36s-1.15-1.27-.89-4.65c.58-7.44-.48-13.69-3.23-19.11-1.28-2.52-.62-3.91,1-6.81,6.89-12.44,18.69-17.26,31.18-22.37l.88-.37a8.12,8.12,0,0,1,2.88-.76,1,1,0,0,1,.56.11c.42.31.3,1.92.22,3A11.24,11.24,0,0,0,893.18,412.54ZM817.1,699.26c-.66-4.88-1-8.66,1.2-9.26,3.83-1,6.17,2.17,9.58,7.59a35.77,35.77,0,0,0,4.92,6.67,20.74,20.74,0,0,1,3.42,5c.4.72.79,1.44,1.2,2.13,2,3.3,3.88,7.1,3,10.3-.58,2.09-2.29,3.89-5.25,5.48a7.44,7.44,0,0,0-2.48,2.63,8.51,8.51,0,0,1-1.34,1.68,19,19,0,0,0-3.54,4.66c-2.09,3.39-3.29,4.92-5.25,4.33-3.58-1.08-4.05-5.63-4.51-10-.12-1.23-.24-2.39-.43-3.48-.69-4-.55-8.32-.39-13.28.08-2.41.16-4.91.16-7.68C817.77,704.29,817.44,701.85,817.1,699.26Zm-36.77,700.63c.68-.8,2-1.19,4.1-1.19h.19a18.9,18.9,0,0,1,15.92,8.42c11.91,17.61,32.57,69.15,30.68,96.27l-.09,2a100.24,100.24,0,0,1-1.48,15.31c-.17.83-.31,1.65-.45,2.43a27.73,27.73,0,0,1-.74,3.48c-1.23-.43-2.64-2.55-3.46-3.77-21.65-32.44-36.41-71.31-45.13-118.82C779.52,1402.06,779.67,1400.68,780.33,1399.89Zm55.45,130c8.68-27,2.35-53-5-74.9l-.64-1.91c-5.34-16-10.87-32.48-20.18-47.15-6.54-10.3-15.23-15.51-25.84-15.51q-.95,0-1.92.06c-4.26.25-4.67-1-5.45-5.16-2.34-12.67-2.09-25.67-1.85-38.25.1-5.26.2-10.71.12-16.07-.06-3.62.77-4.23.93-4.31,1-.48,3.5,1.46,4.72,2.4l.84.64c27,19.73,47,38.4,62.81,58.75,23.12,29.69,37.16,59.35,42.95,90.67,6.69,36.23,6.48,73,5.48,110.65a69.41,69.41,0,0,1-9.3-10.87c-1.73-2.34-3.35-4.54-5.21-6.62-7.1-7.93-15.36-14.62-23.36-21.1-5-4-10.16-8.23-14.95-12.65l-.38-.35C836.2,1535.16,834.63,1533.52,835.78,1529.94Z" transform="translate(-765.78 -320.09)"/></svg>