<svg id="Layer_1" data-name="Layer 1" xmlns="http://www.w3.org/2000/svg" viewBox="0 0 1728 576"><path d="M1832.8,704.13H151.46a23.32,23.32,0,0,0-23.33,23.33V1256.8a23.32,23.32,0,0,0,23.33,23.33H1832.8a23.32,23.32,0,0,0,23.33-23.33V727.46A23.32,23.32,0,0,0,1832.8,704.13Zm-92.55,32.74c1.26-1.64,3.74-2.47,7.39-2.47.73,0,1.52,0,2.34.1,5.92.48,12.34.7,20.2.7,4.74,0,9.55-.08,14.21-.15s9.45-.16,14.17-.16l4.44,0h.44c1.29,0,2.62-.06,4-.13s2.85-.13,4.24-.13c5.93,0,10,1.17,10.84,6.87.31,2.25.73,4.54,1.18,7,2,10.56,2.32,20.48-5.12,28-5,5.14-12,11-28,14.75-2.24.52-4.63-.24-6.91-.71-12-2.47-13.34-9.28-15.52-20.56-.29-1.53-.6-3.13-1-4.8a1.34,1.34,0,0,0-1.3-1.06h-.07a1.34,1.34,0,0,0-1.26,1.19c-.07.61-.16,1.23-.27,1.88a21.92,21.92,0,0,0-.38,3.84c0,1.06.11,2.09.2,3.08.39,4.41.4,6.23-3.43,6.86a5.86,5.86,0,0,1-1,.09c-4.59,0-7.42-5.24-8.18-6.84s-1.55-3.25-2.33-4.88c-3.5-7.25-7.12-14.75-9.16-22.43C1739.15,743.55,1738.36,739.33,1740.25,736.87Zm82.16,341.61c-1.87,2-5.75,2.46-12.74,2.57-1.29,0-2.88.17-3.75,1.2a2.47,2.47,0,0,0-.52,2.06c.53,3.25.3,5.56-.66,6.69a3.08,3.08,0,0,1-2.5.94c-1.76,0-4.15-.73-7.11-2.16-3.55-1.73-5.64-3.94-5.88-6.22a6.11,6.11,0,0,1,1.13-3.89c1-1.58,3.46-1.83,5.06-2.8l1.79-1.07a5.85,5.85,0,0,1,3-.76h0a8.28,8.28,0,0,0,4.55-1.62,1.34,1.34,0,0,0,.35-1.88c-.53-.75-1.06-2.27-1.58-3-1.18-1.65-3.28-3.42-4.39-5a11.46,11.46,0,0,0-3.63-2.93c-1.34-.83-2.73-1.68-2.92-2.55a2.27,2.27,0,0,1,.54-1.63c3-4.43,6.18-8.4,12-8.4h.86c9.46.13,16.94.23,17.76,11.77C1824.52,1069.7,1824.78,1075.9,1822.41,1078.48Zm-.1,23a4.4,4.4,0,0,1-3.48,1.21c-3,0-7.43-1.27-14.6-4.2l14.88-5.57,4.52-1.69C1824.08,1096.83,1823.66,1100,1822.31,1101.52Zm-111-50.73c-5.26-11.93-2.76-19.91,8.1-25.87,1.35-.74,3.21-2,3.71-4a5,5,0,0,0-.87-4,1.33,1.33,0,0,0-1.12-.6.93.93,0,0,0-.23,0c-7.94,1.42-12.51,6.89-16.53,11.71-2.42,2.9-4.7,5.63-7.52,7.43-4.43,2.82-6.6,5.21-7.06,7.75-.51,2.87,1.18,5.37,3.62,8.59,4.84,6.37,6.53,12.42,4.9,17.48-1.8,5.58-7.52,10-16.55,12.76a35,35,0,0,1-10.28,1.65c-11.23,0-19.37-6.37-28-13.11a122,122,0,0,0-11.33-8.18,69,69,0,0,0,27.41-12.92,81.46,81.46,0,0,1,15.34-9.6l3.4-1.58a9.79,9.79,0,0,1,3.05-.58c2.55-.24,6.06-.57,6.56-4.73a4.89,4.89,0,0,0-.89-4,5,5,0,0,0-3.89-1.32c-.42,0-.85,0-1.29,0l-1.2,0c-1.69,0-2.17-.35-2.38-.84,1.86-6.29,6.93-10.1,12.29-14.13,3.56-2.68,7.25-5.45,10.18-9.1a1.33,1.33,0,0,0-.82-2.15,28.45,28.45,0,0,0-4.66-.41c-11.56,0-18.1,7-22.69,14.37-3.87,6.24-6.19,13.6-13.11,14.58a1.17,1.17,0,0,1-.37-.69c0-.51,1.19-1.38,2-2,1.37-1,2.93-2.17,2.75-3.91-.15-1.42-1.4-2.6-4-3.84s-6.06-2.62-9.31-2.62c-5.34,0-9.12,3.5-11.56,10.69a1.34,1.34,0,0,0,1.27,1.76,1.37,1.37,0,0,0,.69-.2c5.22-3.16,7.72-3.83,8.9-3.83.7,0,.9.23,1,.31.74.83-.92,3.57-1.15,5.7-.32,3,0,5,2.09,7.43,1,1.2.38,2.79.08,3.39a4.91,4.91,0,0,1-4.11,2.82,3.55,3.55,0,0,1-.46,0c-1.93-.26-2.2-.71-2.2-.72-.16-.31.7-1.73,1.06-2.33.89-1.47,1.89-3.14,1.47-4.81a3.59,3.59,0,0,0-1.79-2.21,1.32,1.32,0,0,0-.67-.18,1.34,1.34,0,0,0-.52.1c-4.34,1.82-6.51,5.54-8.6,9.14-2.54,4.35-4.93,8.47-11.1,9.38-16.12,2.39-32.29,6-47.94,9.44l-6.7,1.48a16.21,16.21,0,0,1-3.48.41c-4.76,0-8.37-2.55-11.36-8-3.54-6.45-3-10.86,1.77-14.31a5.77,5.77,0,0,1,1.4-.39c1.22-.24,2.75-.54,3.22-1.92s-.51-2.73-1.42-3.77a8.19,8.19,0,0,0-5.56-2.34,4.75,4.75,0,0,0-1.17.14,41.72,41.72,0,0,0-7.41,3.06l-1.56.76c1-12.52,9.63-18.82,18-24.94,1.44-1,2.94-2.14,4.36-3.24l.77-.59c9.82-7.58,10.41-8.5,3.72-23.44a1.33,1.33,0,0,0-1.22-.79,1,1,0,0,0-.24,0,1.34,1.34,0,0,0-1.09,1.23c-.56,9.6-6.67,13.57-13.14,17.79-5.26,3.42-10.67,6.94-13.33,13.53-2.22-7.51-1.07-14.89,0-22.06,1.66-10.72,3.38-21.81-6.26-32.78a1.33,1.33,0,0,0-1-.46,1.42,1.42,0,0,0-.45.08,1.34,1.34,0,0,0-.88,1.23c-.29,14.93-1.82,27.18-3.29,39v.08c-2.7,21.69-3.72,46.36,18.55,64.43,2,1.63,3,3.08,3,4.44,0,1.56-1.13,3.38-3.67,5.7-10.18,9.28-21.16,20.58-22.68,37.36l-.06.71c-.36,4.36-1,7.73-5.75,8.2-19.95,2-35.1,12.86-49.75,23.37-3.75,2.69-7.63,5.48-11.53,8.06a46.35,46.35,0,0,1-26,8.11,48.6,48.6,0,0,1-15.72-2.69c-15.62-5.33-31-11-47.31-16.9-6.16-2.25-12.42-4.53-18.83-6.85,16.7-9.3,24.38-24,30.28-37.15,2.85-6.38,5.82-8.75,10.93-8.75a24.85,24.85,0,0,1,5.43.69c7.71,1.71,15.72,2.89,23.47,4,6.38.93,13,1.89,19.26,3.14,2.5.5,5.28.26,8,1.19,16.3,5.7,27.53,3.48,29.91,23.47,0,.14,0,.28,0,.42a1.34,1.34,0,0,0,1.32,1.17h.16a1.33,1.33,0,0,0,1.17-1.47l-.05-.4c-1.14-10.69,5-13.86,12.12-17.53,4.76-2.45,9.69-5,12.21-10.07a1.33,1.33,0,0,0-1.2-1.92,1.36,1.36,0,0,0-.61.14,41.05,41.05,0,0,1-19.2,4.72c-6.62,0-13.64-1.47-22.1-4.62l-.11,0c-1.52-.57-3.83-1.43-4-2.35-.11-.53.49-1.49,1.6-2.57,15.74-15.18,34.88-24.51,60.26-29.35a1.33,1.33,0,0,0,.19-2.57c-3.1-1.09-5-2.32-5.36-3.56s.77-3.17,2.07-5.07c1.94-2.86,4.6-6.77,1-10.5a1.34,1.34,0,0,0-1.8-.1,60.81,60.81,0,0,0-8,8.48c-5.75,7-12.33,11.43-22.59,13.72,8.7-11.17,14-23.55,19.12-35.54,4.78-11.2,9.74-22.78,17.41-33a1.34,1.34,0,0,0-1.06-2.14h-.16c-10.23,1.21-14.5,7.64-18.62,13.85a41,41,0,0,1-6.63,8.34c-.09-4.32,1.1-8.37,2.34-12.61,1.43-4.88,2.91-9.92,2.74-16a1.32,1.32,0,0,0-.9-1.23,1.25,1.25,0,0,0-.43-.07,1.32,1.32,0,0,0-1,.49c-13.26,16.19-13.33,32.93-13.39,47.7-.08,21.88-19.13,44.92-37,53.92a22.41,22.41,0,0,1-10.76,2.12c-3.18,0-5.51-.81-7.13-2.46-3.27-3.34-.56-8.06,3.32-13.89l.47-.72.65-.92c1.5-2.09,3.56-5,1-9.22a1.34,1.34,0,0,0-1.14-.64,1.27,1.27,0,0,0-.62.16c-5.82,3.06-8.61,8-11.31,12.84-.66,1.16-1.34,2.37-2,3.53-2.22,3.62-4.8,5.3-8.13,5.3-2.87,0-6-1.23-9.06-2.41a41.38,41.38,0,0,0-6.35-2.1c-1.72-.36-2.8-1-3.23-1.83-.82-1.66.51-4.47,1.57-6.72.32-.67.62-1.31.86-1.89,26.59-65.51,74.92-105.29,143.65-118.25a50.08,50.08,0,0,1,9.14-.92c11.19,0,19.1,4.7,24.89,14.78,5.91,10.32,13.89,19.28,21.61,27.94,6.21,7,12.63,14.18,17.88,22,1.22,1.82,5.56,6.63,8.06,6.63a1.93,1.93,0,0,0,1.86-1.3c2-5.7,4.73-6.47,7.07-6.47a24.74,24.74,0,0,1,6.32,1.25,28.2,28.2,0,0,0,7.61,1.44,10.54,10.54,0,0,0,4.77-1,1.33,1.33,0,0,0,.73-1,1.35,1.35,0,0,0-.42-1.17,57.14,57.14,0,0,1-4.18-4.36c-3.56-4-7.25-8.11-13.18-8.11a18.06,18.06,0,0,0-7.16,1.68,6.42,6.42,0,0,1-2.51.48,9.86,9.86,0,0,1-6.32-2.44c-14.85-13-25.58-27.25-32.66-43.34,22.36,19.89,48.51,29.57,79.75,29.57a169.75,169.75,0,0,0,25.46-2,1.34,1.34,0,0,0,.5-2.46c-2-1.24-3.12-2.41-3.19-3.39-.1-1.41,1.89-3.07,3.83-4.68,2.71-2.25,6.08-5,4.54-8.67a1.34,1.34,0,0,0-.72-.72,8,8,0,0,0-3.06-.68,6.21,6.21,0,0,0-4.39,2.08l-.45.41c-5.84,5.1-24.73,9.29-37.42,9.29-4.66,0-8.12-.74-9.74-2.08-5.81-4.81-9.79-5.82-17.06-6.36-9-.68-16.6-6.31-18.44-15.23-1.76-8.49,7.19-14.32,14.9-17a40.24,40.24,0,0,1,13.38-2.18c7.78,0,14.55,2,21.22,3.83a11.13,11.13,0,0,0,2.92.33c7.1,0,23.09-4.77,23.59-9.5a1.27,1.27,0,0,0-.26-.94c-1.63-2.16-4-2.24-6.13-2.32s-4-.14-5.54-2.06a71.25,71.25,0,0,1,17.2-1.78c2.87,0,5.77.09,8.58.18s5.69.17,8.52.17c2.66,0,5-.08,7.19-.24,1.66-.13,3.61-.26,5.49-.26,5.06,0,8.19,1,10.15,3.15,2.32,2.57,3.11,7,2.43,13.49a1.34,1.34,0,0,0,.88,1.4,1.42,1.42,0,0,0,.45.08,1.33,1.33,0,0,0,1.11-.6c3.79-5.77,8.49-9.95,13-14,6.52-5.81,12.67-11.29,14.48-20.34.6-3,3.36-4.05,5.75-4.05a8.82,8.82,0,0,1,2.67.43c1.89.6,2.09,1.09,2.09,1.1.08.27-.83,1.36-1.17,1.77-.87,1-1.86,2.23-1.81,3.63l0,.92c.1,3.63.23,8.16,5.14,10.61a1.39,1.39,0,0,0,.6.14,1.48,1.48,0,0,0,.46-.08,1.33,1.33,0,0,0,.76-.73c3.49-8.13,12.19-13.18,22.7-13.18a33.2,33.2,0,0,1,22.86,9.17,1.33,1.33,0,0,0,.92.37h.06a1.4,1.4,0,0,0,1-.45c1.33-1.52,1.59-3.43,1.84-5.28.35-2.58.66-4.87,3.6-6.52v11.81c0,14.63,0,28.45-.05,42.36,0,.25,0,.5,0,.76,0,2.84-.21,3.81-1.76,3.94-2.37.21-5.84-.15-8.23-.15a89.52,89.52,0,0,0-17.43,1.17,40.38,40.38,0,0,1-4.57.83c-2.57,0-3.63-.48-5.09-4-1.31-3.17-2.78-6.77-6.5-8.49a1.31,1.31,0,0,0-.59-.14,1.34,1.34,0,0,0-1.34,1.34,1.32,1.32,0,0,0,.06.39c2.37,7.71-.92,15.5-4.8,22a42.68,42.68,0,0,0-5.87,16c-.78,5.66.16,11.37-.15,17.06-.67,12.08-4,23.77-6,35.66-.11.65-.33,1.27-.45,1.89-.51,2.46-.82,3.07-2.2,3.07a4.69,4.69,0,0,1-.87-.08,2.82,2.82,0,0,1-1.77-.73c-.31-.46-.07-1.54.17-2.59a18,18,0,0,0,.37-2c.08-.66.15-1.33.23-2,1.22-10.76,2.48-21.89-8.82-31a1.36,1.36,0,0,0-.84-.29,1.24,1.24,0,0,0-.56.13,1.33,1.33,0,0,0-.77,1.18c-.11,6.43-.17,9.65-1.27,11.49s-3.4,2.64-8.1,4.43a1.34,1.34,0,0,0-.83,1,1.32,1.32,0,0,0,.43,1.24c6.73,5.94,10,12.08,9.15,17.27-.67,4.18-4,7.68-9.67,10.12-6.49,2.8-8.56,4.78-8.82,11.68-.62,16.07-7.12,18.42-22.74,20-.2,0-.4,0-.6,0C1710.42,1072.46,1716.89,1063.39,1711.34,1050.79Zm40-182.22c-15.58-12.09-12.49-23.75-9.23-36.1,1.25-4.69,2.53-9.54,2.66-14.34.13-4.55,3.2-9.52,7.56-9.67,5.39-.18,11-1.44,16.43-2.65,5.78-1.3,11.76-2.64,17.37-2.64,9.69,0,13,1.81,19.45,10.37,3,4,6,6,12.12,7.44,4.45,1,6,2.85,6,6.88-.14,14.62-.12,30.31.06,47.94.06,5.4-3.39,6.28-8.66,7-.81.11-1.57.22-2.3.35a6.11,6.11,0,0,1-1.25.14,1.55,1.55,0,0,1-1.09-.29c-.46-.46-.45-1.82-.44-3,0-1.67,0-3.56-1-4.93-1.38-1.79-.7-3.27.64-5.72,1.18-2.16,2.65-4.85,1.22-7.93a1.33,1.33,0,0,0-1.18-.77h-.4c-6.48,0-9.71,2.93-10.81,9.78-2.18,13.53-4.75,17-12.51,17a59.9,59.9,0,0,1-11.81-1.62,48.92,48.92,0,0,0-10-1.34,19.5,19.5,0,0,0-13,4.68c-2.88,2.36-4.24,5.84-5.55,9.21-2,5.17-3.46,8.35-8,8.59h-.5c-4,0-4.8-2.65-5.9-7.34-1-4.17-2.18-9.35-8-10.63a1.33,1.33,0,0,0-1.37.54c-2.69,3.81-1.19,7.15.14,10.1.29.66.6,1.34.85,2,.87,2.31,1,4.12.45,5a2.64,2.64,0,0,1-2.29.79h-.45c-.77,0-1.6-.06-2.52-.06-1.42,0-2.89,0-4.3.1s-2.86.1-4.26.1c-5.35,0-10.85-.7-14.78-5.74-1.71-2.19-3.38-3.25-5.1-3.25a5.65,5.65,0,0,0-4,2.05c-4.07,4.22-9.31,5.2-14.86,6.24a66.55,66.55,0,0,0-7,1.57,28.62,28.62,0,0,0-3.66,1.52c-1.81.86-3.69,1.75-5.22,1.75-.9,0-2.07-.25-3.22-2.21-2.58-4.41.8-6.82,5.93-10.93,3.71-3,8.29-7.31,14.28-10.11,14.72-6.89,19.79-13,26.53-21.26,6.24-7.61,14.32-13.7,24.67-18.59,4.62,13.63,10.48,18.34,27.15,22.34a1.17,1.17,0,0,0,.32,0,1.33,1.33,0,0,0,.81-2.39Zm72.44,166.08c0,2.74-.11,3.6-.9,4.41a3.75,3.75,0,0,1-2.67.71,21.38,21.38,0,0,1-3.42-.34l-1.7-.29a47.2,47.2,0,0,0-8.51-.6c-6.7,0-14.19,2.19-18,8-1,1.6-2.06,3.49-5.36,3.49-3,0-5.73-.65-10.15-1.94a4.79,4.79,0,0,1-3.08-2.31c-1.15-2.14-.47-5-.13-6.06a148.56,148.56,0,0,0,6.36-36.84c.46-9.33-2.06-21.2,5.33-28.54a29.82,29.82,0,0,1,20.88-8.62c.55,0,1.1,0,1.64,0a2.93,2.93,0,0,1,.74.11,9.89,9.89,0,0,1-.63,1.74c-1,2.39-2.92,6.85,2.86,9.44a1.45,1.45,0,0,0,.54.11,1.3,1.3,0,0,0,1.08-.55c1.18-1.63,1.43-3.77,1.68-5.84.47-3.91.88-6,4.57-6a11.35,11.35,0,0,1,1.25.08c7.29.79,7.74,5.43,7.63,13C1823.55,995.61,1823.55,1014.18,1823.81,1034.65Zm-8.25-243.29a21.54,21.54,0,0,0,6.43-2.83c1.73,9.55,3.13,19,.75,22.06a2.68,2.68,0,0,1-2.12,1l-.79,0c-6.58,0-8.18-4.76-9.57-11-.21-.91-.4-1.77-.62-2.55C1808.18,792.93,1810.53,792.94,1815.56,791.36ZM1753.12,1052c3.73,0,8.49,1.08,15,3.41,8.57,3.08,14.81,6.93,22.48,13.41a14.39,14.39,0,0,1,1.2,1.17l.41.42-1.51.9a7.35,7.35,0,0,1-3.17,1c-1.43.12-2.89.18-4.4.18-6,0-9.72.09-15.29-.78a101.2,101.2,0,0,0-15.91-1.68,36.75,36.75,0,0,0-15.51,3.13C1740.27,1057.57,1744.79,1052,1753.12,1052Zm-91.66-287.55c.06-.55.81-1.07,1.51-1.65,1.58-1.27,4-3.19,2.49-7.24-2.64-7.25-.78-12.63,1.58-16s7.73-5.19,15.8-5.19h.26c4,0,6.16.16,10.14.29,4.31.14,8.76.29,13.14.29,3.33,0,6.3-.09,9.1-.26.89,0,1.74-.08,2.5-.08,7.66,0,10.25,2.51,12.61,12.23.37,1.52.72,3.07,1.08,4.63,4.25,18.35,5.94,40.11,35.35,42.22a1.22,1.22,0,0,1,.89.61,2.88,2.88,0,0,1,.28,2.12,54,54,0,0,0-6.34-.39c-13.81,0-21.74,3.93-27.52,15.62-1.59,3.21-4,3.22-7.26,3.23h-.57c-4.65,0-10.1.95-10.94,7.78a1.33,1.33,0,0,0,.84,1.4,6.22,6.22,0,0,0,2.32.42,16.89,16.89,0,0,0,4.48-.85,13.72,13.72,0,0,1,3.5-.72c.8,0,2.29,0,3.21,3.52,1.6,6.08-.59,9.53-7.3,11.56a46.32,46.32,0,0,0-17.85,9.95c-5.49,5.17-10.11,9.12-15.39,9.12-4.41,0-9-2.89-14.18-8.84a1,1,0,0,0-.14-.15h0l0,0h0a1.35,1.35,0,0,0-.69-.23h-.07a1.33,1.33,0,0,0-1.33,1.33,1.3,1.3,0,0,0,.1.49c1.3,4,3.85,7.21,6.11,10,4.28,5.35,6.87,8.58.08,14.24-4.44,3.69-7.92,5.34-11.31,5.34-3.63,0-7.33-2-11.32-6l0,0h-.06a1.81,1.81,0,0,0-.29-.19h0a1.3,1.3,0,0,0-.55-.12h0a1.33,1.33,0,0,0-.91,2.3c2.82,2.93,4.15,5.46,4.06,7.75-.11,3.19-3,5.77-6,8.5l-.84.75c-5.42,4.9-12.18,8.54-10.18,17.54.82,3.7,1.57,6.62.33,8.19-1.84,2.31-6,2.64-11.14,2.83-.77,0-1.52.05-2.26.05-5.54,0-9-1-11.06-3.08-1.87-1.88-2.76-4.77-2.73-8.85a1.34,1.34,0,0,0-.63-1.15,1.37,1.37,0,0,0-.7-.19,1.38,1.38,0,0,0-.62.15c-5.54,2.87-5.09,6.71-4.77,9.52a8.93,8.93,0,0,1,.06,2.76c-1.82,8.56-15.83,18.83-22.4,18.83a3.7,3.7,0,0,1-1.53-.3c-12.14-5.4-22.86-3.82-35.17-4.23-3.26-.11-6.59-.22-9.93-.42,6-3.72,12.07-7.41,18-11,22.09-13.49,44.94-27.44,66.24-42.89,20.73-15,37.32-33.9,53.37-52.13l1-1.1.94-1c2.19-2.37,4.92-5.31,4.22-8.41-.41-1.84-2-3.33-4.71-4.42-4.25-1.71-5.48-3.6-6.43-6.12-1.31-3.46-.9-7.88,1.15-12l.54-1.06c2-4,4.34-8.45,1.28-14.18a1.33,1.33,0,0,0-.88-.67l-.3,0a1.37,1.37,0,0,0-.78.25,13,13,0,0,0-2.42,2.56c-1.13,1.43-1.88,2.29-2.8,2.29a5,5,0,0,1-2.81-1.49C1658.61,777.08,1660.61,771.54,1661.46,764.41ZM1607,737.08c1.63-2,2.42-2.06,2.51-2.07,10-.34,20.09-.42,29.9-.49l10.75-.1c2.77,0,7.31-.31,6.41,4.12-.82,4-2.8,4.55-6.46,3.26a12.85,12.85,0,0,0-4.3-.75c-4.74,0-9.25,2.73-13.42,5.68a1.33,1.33,0,0,0-.56,1.25,1.35,1.35,0,0,0,.83,1.08,19,19,0,0,0,7.06,1.08q1,0,2.07,0l1.88,0c4.42,0,5.63.8,6.22,5.29.18,1.4.41,2.84.62,4.22,1.59,10.09,2.06,19.95-7.8,26.35a1.39,1.39,0,0,0-.68,1.21,1.34,1.34,0,0,0,.77,1.16,8.86,8.86,0,0,0,3.8.84,17.79,17.79,0,0,0,5.22-1c1.33-.41,1.58-.8,2.68-.8s2.22.27,3.57,2.26c3.08,4.54,6.92,34.52,4.5,38-14.74,21-37,41-57.48,51.93l-.47.31c2.08-4.43,6.29-7.28,10.69-10.27,5.7-3.87,11.59-7.87,13.22-15.59a1.34,1.34,0,0,0-1.08-1.59,9.32,9.32,0,0,0-1.56-.14c-3.15,0-5.26,1.81-7.13,3.42-1.48,1.27-2.79,2.4-4.56,2.79v-.72c0-1.63,0-3.21,0-4.79,0-.24,0-.47,0-.71,0-2,.12-5.14-4.55-6.19l-.29,0a1.33,1.33,0,0,0-1.25.86l-1.07,2.81c-10,26.29-25.47,51.91-51.59,59.78,2-5.87,6.62-18,8.12-23.87,5.37-21,7.36-34.86,31.11-46.51a1.33,1.33,0,0,0-.53-2.53c-.33,0-.66,0-1,0a46.6,46.6,0,0,0-5.44.41,38.13,38.13,0,0,1-4.33.35c-3.15,0-5.73-.85-8.06-5a1.35,1.35,0,0,0-1.16-.68l-.24,0a1.33,1.33,0,0,0-1.08,1.11c-1.86,11.76-2,12.67-7.31,18a57.67,57.67,0,0,1-2.16-10.18c-.87-5.73-1.76-11.64-5.46-16.86-2.26-3.18,2.84-6.15,4.75-8.46a76.91,76.91,0,0,1,7.82-8.22A52.64,52.64,0,0,1,1590,795.58c1.33-.41,2.65-.78,3.93-1.13,7.79-2.14,14.15-5.17,14.3-16.8a7,7,0,0,1,1.46-2.9c1.08-1.58,2.29-3.36,1.92-5.32a5,5,0,0,0-2.31-3.09,6.49,6.49,0,0,0-3.47-1.33c-2.36,0-3.24,2.15-4,3.87-.89,2.16-1.46,3.17-2.94,3.17h-.11c-.17-.55-.35-1.11-.53-1.68a40.18,40.18,0,0,1-1.51-5.67C1595.8,758.86,1602.17,743,1607,737.08Zm-48.12,10.38c3.3-9.63,7.85-13.93,14.75-13.93a21.72,21.72,0,0,1,4.48.52,1.24,1.24,0,0,0,.27,0h0c2.73-.06,5.09-.12,7.08-.12,4.26,0,7.28.25,8.16,1.44,1.11,1.49-1.21,5.84-3.21,12.43a13.91,13.91,0,0,1-1.07,2.32c-.86,1.6-1.74,3.26-1.35,4.93,5.62,24.08-9.63,35.38-26.76,45.88a15.42,15.42,0,0,0-4.17,4.54c-1.53,2.19-2.86,5-4.74,5a4.42,4.42,0,0,1-1.88-.49c-6.12-2.88-7.38-11.41-7.64-14.94a42.46,42.46,0,0,1,1.71-16.48c1.78-5.64,4.61-11,7.35-16.14A106.93,106.93,0,0,0,1558.92,747.46Zm-58.87-6.89c4.1-4.5,11.56-6.38,27.52-7l2.24-.12c1.12-.07,2.28-.15,3.37-.15,4.44,0,6.47,1.32,7.21,4.7a32.38,32.38,0,0,0,2.33,6.22c2.15,4.75,4.2,9.27.52,14.2q-.67-1.61-1.29-3.15a58.1,58.1,0,0,0-5.07-10.48,9.83,9.83,0,0,1-.85-3.33c-.41-2.65-1-6.29-4.53-6.29a8.34,8.34,0,0,0-3.61,1c-1.93,1-3,2.12-3.31,3.56-.48,2.37,1.41,4.56,3.07,6.5a15.42,15.42,0,0,1,1.95,2.57c7.29,14,8.42,27,3.24,36.13-2.7-5.2-4.1-7.21-7.54-7.21a30,30,0,0,0-6.58,1.25,1.36,1.36,0,0,0-1,1,1.32,1.32,0,0,0,.38,1.3c18.65,17.57,37.1,55.83,38.72,80.26,1.91,29-14.92,59.21-38.32,68.75a23.42,23.42,0,0,0-2.85,1.48c-1.6.92-3.26,1.87-4.72,1.87a3.29,3.29,0,0,1-2.2-.88c-3.13-2.64-2.15-6.24-1.15-11.24,1.12-5.6,3.4-9.89,4.9-15.22,2.57-9.13,5.23-18.58,15.06-25.54a1.33,1.33,0,0,0-.77-2.42l-.29,0a22.8,22.8,0,0,1-4.77.58c-6.57,0-8.71-4.13-11.18-8.9-2.09-4-4.25-8.21-9.26-9.94a1.34,1.34,0,0,0-1.77,1.19c-.3,5.66,1.66,11,3.55,16.21,2.66,7.28,5.18,14.17,1.37,21.3-1.51-.63-2.13-2-2.94-4.1-1-2.57-2.23-5.75-6.71-6h-.06a1.34,1.34,0,0,0-1.19.73c-2.4,4.72-.53,8.85,1.12,12.5a28.43,28.43,0,0,1,1.55,4c6.32,23.06-.58,38.3-22.37,49.44-3.62,1.85-6.38,2.74-8.46,2.74-3,0-5.4-1.65-7.71-9.73-3.6-12.6-3.63-25.65-3.66-38.27a211.84,211.84,0,0,0-1.09-25.48c-.72-5.81.41-10,3.79-14.06l1.13-1.36c6.28-7.54,12.78-15.34,19.74-22.47,4.38-4.49,9.58-5.22,14-5.22,3.88,0,7.09,1.21,11,4.66,2.53,2.25,5.62,4.55,9.37,4.55,2.43,0,4.85-2,7.37-3.89a1.33,1.33,0,0,0-.27-2.27c-4.94-2.21-7.93-3.54-8.46-5.08s1.16-4.9,4.29-10.76A1.33,1.33,0,0,0,1513,827a30.7,30.7,0,0,1-18.36,5.53,48.81,48.81,0,0,1-9.16-.47c13.17-16,11.93-34.79,10.82-51.46-.11-1.74-.22-3.46-.32-5.14C1495,757.65,1494.73,746.4,1500.05,740.57ZM1451,768.14a8.23,8.23,0,0,0-7.23-3.94,22.21,22.21,0,0,0-4.8.7,16.71,16.71,0,0,1-3.35.55c-1.11,0-2.95-.18-2.69-2.85.7-7.06,1.41-6.62,2.7-13.06.33-1.66,1.52-4.67,2-6.25,2-6.12,5.93-9.1,12-9.1.56,0,1.15,0,1.75.08l1.36.12c3.52.31,7.17.63,10.76.63a45,45,0,0,0,6.85-.48,31.49,31.49,0,0,1,4.6-.38c3.75,0,6.43.91,8.21,2.78,2.31,2.45,3.22,6.68,2.84,13.32-.16,3-.48,6-.78,9-.76,7.5-1.66,14.9-.63,22.3,5,36-14,57-32.21,79.6-1.85,2.29-3.72,3.15-5.12,3.15a4.33,4.33,0,0,1-3.16-1.81c-14.12-16.12-23.51-32.94-22.52-52.91a45.21,45.21,0,0,1,.76-6.37c3.25-16.66,2.6-32.68,27.53-33a1.33,1.33,0,0,0,1.09-2.08Zm-50.38-20.08c.25-9.16,9.41-15.32,17.81-15.32a16.14,16.14,0,0,1,8.23,2.2c2.32,1.37,3,3.33,2.23,6.17-3.39,12.08-6.72,24.23-10.25,37.09l-3.37,12.3C1402.5,777.38,1400,769.68,1400.6,748.06Zm-61.85-11.91c.42-2.52,1.54-2.73,2.65-2.73a15.84,15.84,0,0,1,2.83.39,16.56,16.56,0,0,0,3.14.43h.22c.94,0,1.92,0,3,0,2.59,0,5.24.09,7.8.18s5.24.18,7.86.18a67.39,67.39,0,0,0,9.55-.58,32.44,32.44,0,0,1,4.35-.32c4.61,0,8,1.25,9.95,3.71,2.15,2.67,2.69,6.78,1.58,11.9-3.55,16.32-.41,30.28,8.59,38.28,10.93,9.7,12,21,13.14,34,.43,4.78.88,9.69,1.83,14.81-10.39-8.57-15.08-14.7-15.2-24.94-.2-16.87-6.26-23-17.38-28.52a1.39,1.39,0,0,0-.45-.14H1382a1.34,1.34,0,0,0-1.32,1.34,1.18,1.18,0,0,0,.09.46c1.11,3.77,3.54,6.83,5.9,9.8,3.42,4.31,6.4,8.07,5.22,13.32h-.15c-.93,0-1.55-.54-2.67-1.58a12.32,12.32,0,0,0-8-3.81h-.15a1.34,1.34,0,0,0-1.06,2.14c2.38,3.56,4.6,7.07,6.74,10.46,7.47,11.83,14.53,23,26,31.3,15.47,11.25,24.2,23.57,27.45,38.76,1.78,8.33,1,17,.28,25.39-1,10.88-2,22.13,2.64,32.66,10.45,24-3.74,35.9-20.18,49.68l-.77.65-2.87,2.41c-7.36,6.21-11.81,10-14.85,10-3.41,0-6.59-5.09-12.91-15.23l-.36-.58c-5.94-9.53-7.35-27.92-5.36-48.31s5.2-29,14-44a28.69,28.69,0,0,1,7.76-7.95c1.25-.73,2.55-1.49,3.79-2.31a1.35,1.35,0,0,0,.59-1.22A1.33,1.33,0,0,0,1411,885a11.33,11.33,0,0,0-4.66-1.07c-3.8,0-6.53,2.22-9.17,4.36a19.24,19.24,0,0,1-4.85,3.23c-5.23-19.83-3-35.61,7-49.57a1.34,1.34,0,0,0-1.07-2.11h-.56c-5.41,0-9.21,1.22-11.62,3.72-3.24,3.37-4,8.85-4.45,14-2,22,2.34,28.41,1.48,42.28-.48,7.72-1.09,10.63-1.09,15.92-2.24.08-2.8-1-3.7-3-.75-1.72-.79-4.07-3.91-4.07a8.79,8.79,0,0,0-2.63.45,1.34,1.34,0,0,0-.92,1.49c.31,1.86.66,3.76,1,5.59,1.87,10,3.79,20.3-.36,30.08-.65-4.16-1.35-8.32-2-12.38-5.21-31.12-10.6-63.31,6.7-94.41a1.35,1.35,0,0,0-.33-1.69,1.33,1.33,0,0,0-.84-.3,1.35,1.35,0,0,0-.88.34c-3.63,3.19-5.66,7.06-7.62,10.79s-3.74,7.12-7,9.94c14.67-22.26,12.62-45.4,9.08-68-2.28-14.58-6.23-29.86-3.49-44.26a1.33,1.33,0,0,0-1.31-1.58,1.48,1.48,0,0,0-.46.08c-5.11,1.9-5.42,6.36-5.69,10.3-.19,2.9-.37,5.45-2.23,7l-3.88-4c-3.58-3.68-7-7.16-10.6-10.51S1338.07,740.15,1338.75,736.15Zm-51.19-1.82a11,11,0,0,1,1.42.14,12.64,12.64,0,0,0,1.78.17,5.09,5.09,0,0,0,1.21-.14,35.87,35.87,0,0,1,8.23-1c13.25,0,21.31,9.38,30.91,18.25,1.24,1.15,2.49,2.31,3.75,3.45,17.92,16.17,26.94,36.07,26.18,64.72a5.06,5.06,0,0,1-1.2.15c-1.88,0-3.28-1.17-4.77-2.41s-3.18-2.66-5.44-2.66a6.49,6.49,0,0,0-2.91.75,1.33,1.33,0,0,0-.33,2.15l.1.1c6.54,6.33,9.81,9.5,10.47,13.11s-1.36,8.63-5,17.57c-2.43,5.91-5,13.68-3,21.29,6.4,24.27,8.09,48.18,8.91,68.37.78,19.39,10.26,36.56,19.42,53.16,2.67,4.83,5.43,9.83,7.91,14.78.65,1.29,1.36,2.58,2,3.82,3.49,6.31,6.78,12.27,3.28,20-3.6,8-6.92,16.22-10.13,24.19-5,12.46-10.2,25.35-16.55,37.38-7.6,14.41-18.55,29.14-42.07,29.14l-1.49,0c9.19-8.66,14.2-17.92,14.9-27.57.73-9.83-2.81-20-10.79-31a1.34,1.34,0,0,0-1.09-.55,1.25,1.25,0,0,0-.67.18c-8.09,4.75-5.39,11.87-1.68,18.2,5.33,9.1,3.37,16.28-6.39,23.11-.25-1.16-.45-2.35-.65-3.51-1.13-6.74-2.41-14.37-14.33-14.9h-.07a1.33,1.33,0,0,0-1,2.26c4.08,4.61,5,9.3,6,13.84.33,1.62.68,3.29,1.16,4.91,1.47,5,1.19,8.93-.83,11.84-2.83,4.07-8.4,5.28-12.59,5.58l-3.47.24c-23.19,1.62-47.17,3.3-69.43,12.71a11.33,11.33,0,0,1-4.3,1c-1,0-4.14,0-4.74-5.72-2.8-26.44,1.53-41.62,32.36-46.09a1.35,1.35,0,0,0,1-.73,1.3,1.3,0,0,0,0-1.24c-4.54-8.17-4.84-11-3.35-14.09s6.52-5.38,16.62-7.12c7.18-1.23,11.65-1.67,20.65-3.67,3.05-.68,5.78-2,8.67-2.32a1.34,1.34,0,0,0,1.15-1.51c-.63-4.38-2.82-6.6-6.5-6.6-2.43,0-5.21,1-7.91,1.93-2.43.86-4.94,1.74-6.82,1.74a3,3,0,0,1-2.28-.8c-1-1-1.43-3.26-1.29-6.56a1.33,1.33,0,0,0-1.33-1.4,1.29,1.29,0,0,0-.92.38c-5.86,5.66-13.9,9.54-20.77,14.14-10.42,7-20.23,15-27.69,25.85,1.09-19.6,4-39.81,17.33-57.2.67-.88,1.35-1.77,2-2.67,7-9.2,14.17-18.71,26-20,3.66-.41,7.47-1.05,11.16-1.66,6.53-1.07,13.27-2.19,19.54-2.19,10.16,0,22.72,2.51,29.75,22,.3.85,1.11,1.06,1.82,1.25a8.65,8.65,0,0,1,.87.25,1.31,1.31,0,0,0,1.34-.27,1.36,1.36,0,0,0,.4-1.31c-.35-1.38-.74-2.73-1.11-4a48.73,48.73,0,0,1-1.91-8.55c-.28-2.92-2.19-4.24-3.73-5.31a7.25,7.25,0,0,1-2.12-1.88c-3.55-5.56-4.73-9-3.82-11.1s4.31-3.69,11-5a53.89,53.89,0,0,1,10.22-1,33.74,33.74,0,0,1,23.68,9.11,1.31,1.31,0,0,0,.9.34,1.42,1.42,0,0,0,.57-.12,1.34,1.34,0,0,0,.76-1.27c-.2-4.28-1.62-8.46-5.16-11.1-3.08-2.3-7.61-3.66-11.36-4.26-1-.16-1.87,0-2.7-.77-1.66-1.49.16-3.61,1-5,2.71-4.28,5.17-8.26,6.21-13.31,1.36-5.42.48-11.55-.76-16.88s-2.73-10.62-4-16c-1.14-4.76-2.21-9.62-3.76-14.27-.79-2.36-2-5.14-4.51-6.12a8.11,8.11,0,0,0-8,1.81,13.41,13.41,0,0,0-2.7,4.69c-.82,2-1.35,3.88-2.18,5.93a40.9,40.9,0,0,1-5,9,10.21,10.21,0,0,1-2,2.13c-.5.39-1,.75-1.55,1.09-.38.24-1.59.7-1.78,1.08,7.55-14.94,9.63-30.11,11.64-44.83q.48-3.53,1-7c.88-6.06,3.47-11.79,6.2-17.86,5-11.1,10.19-22.59,4-36.1a1.34,1.34,0,0,0-1.21-.78l-.25,0a1.34,1.34,0,0,0-1.08,1.24c-.83,15.22-4.09,25.15-10.25,35.54-1.08,1.83-3.1,5.24-4.38,5.24-.55,0-1.83-.62-4.27-4.77-4.85-8.22-10.27-14-16-22.22-2.45-3.51-5-7.14-7.49-10.85l-.09-.12a1.45,1.45,0,0,0-.26-.24,1.35,1.35,0,0,0-.65-.24h-.12a1.34,1.34,0,0,0-1.34,1.33,1.64,1.64,0,0,0,0,.23l.19,1.78c1.1,10.9,1.27,12.58,16.11,32.73a47.14,47.14,0,0,1,8.16,36.79c-2.68,14.73-11.46,27.89-24.84,37.33a119.59,119.59,0,0,0-5.06-40.75c-6.54-22.2-13.69-48.49-17.06-75.19l-.24-1.79c-.72-5.3-1.41-10.3,2.45-14.14,10.42-10.39,18.53-22.13,27.11-34.56,2.63-3.81,5.36-7.75,8.16-11.67a1.34,1.34,0,0,0-1.09-2.11,1.24,1.24,0,0,0-.5.1c-10.34,4.24-16.09,12-21.66,19.56-3.19,4.31-6.23,8.42-10,11.87.14-.51.27-1,.4-1.55,4.78-18.74,9.3-36.44,20-52.5A1.85,1.85,0,0,1,1287.56,734.33Zm-17.82,245.11c6.1-4.17,10.5-10.22,14.76-16.07,7.21-9.91,14-19.27,28.49-20.33,3-.23,3.69-2.12,4.21-3.64q.15-.48.36-1c2.4-5.71,5.14-11.43,7.78-17a.14.14,0,0,0,0-.06,2.41,2.41,0,0,1,4.46.3,52.05,52.05,0,0,1,1.58,5.68A156.32,156.32,0,0,1,1334,956c0,7.07-3.58,17.75-11.51,19.36-5.66,1.15-10.28,3-15.72,4.72-8.92,2.88-18.15,5.86-27.59,5.86a42.17,42.17,0,0,1-9.17-1c-1-.22-2.22-.7-2.43-1.78S1268.29,980.44,1269.74,979.44ZM1232.62,736c.84-1.6,2.29-2.29,4.85-2.29,1.16,0,2.45.15,3.7.28a36.21,36.21,0,0,0,3.84.29h4.34c9.59,0,14.5,1.13,16.4,3.78,1.68,2.35,1.38,6.52-1,13.51a36.91,36.91,0,0,0-2.25,13.1c0,2.44-.54,6.79-4.84,8.52a5,5,0,0,1-1.87.4c-2,0-3.59-1.68-5.22-3.47-.55-.6-1.11-1.22-1.7-1.77-2.48-2.32-3.48-5.43-4.54-8.72-1.32-4.07-2.68-8.28-6.88-11.43C1234.64,746,1230.33,740.3,1232.62,736Zm-25.74,2.29c.31-1.29,1.32-2.29,3.1-3a10.62,10.62,0,0,1,4.09-.92c3.42,0,6.26,2.3,8.42,6.86.85,1.79,1.69,3.61,2.54,5.44,5.32,11.47,10.82,23.33,19.55,32.14,10.27,10.38,10.42,19.6,6.47,31.45l-4.79-8.36c-5.69-9.93-11.1-19.38-16.5-28.84a9.25,9.25,0,0,1-.66-3.14c-.21-2.07-.53-5.19-3.42-5.19a1.83,1.83,0,0,0-.33,0c-.71.06-1.38.09-2,.09-7.72,0-8.8-4.8-10-10.35-.7-3.12-1.43-6.34-3.43-8.72C1207.53,743,1206.42,740.17,1206.88,738.25Zm-20.71-1.78a3.43,3.43,0,0,1,2.82-2.05c1.09-.23.68-.34,1.62-.34,4.87,0,6,2.46,8,9.46,3.51,12.3,7,21,20,34,17.23,17.23,24,36.45,30.17,58.44,1.16,4.12,2.36,8.36,3.63,12.55-7.8-9-12.08-13-14-23.71-4-21.85-4.35-22.71-12-30.63l-.4-.41a1.32,1.32,0,0,0-1-.41,1.52,1.52,0,0,0-.42.06,1.34,1.34,0,0,0-.9,1.11c-.62,4.93,1.15,10,2.86,14.88,3,8.46,5.75,16.46-1.89,24.85a1.34,1.34,0,0,0-.34,1.1,1.36,1.36,0,0,0,.65,1c22.41,13.09,36.49,35.89,41.84,67.76,6,35.34-3.93,65.15-29.35,88.59-.33.3-.66.62-1,.94-1.89,1.8-4,3.84-6,3.84-1.23,0-2.44-.84-3.69-2.55-9.38-12.85-19.26-26.59-27.95-40.92-9.43-15.56-1.18-29.87,8.87-44.38a1.34,1.34,0,0,0,0-1.57,1.35,1.35,0,0,0-1.07-.53,1.31,1.31,0,0,0-.43.08c-13.87,4.81-16.25,13.24-17.62,22a38.46,38.46,0,0,1-1,4.46,2.07,2.07,0,0,1-2.68,1.45,1.77,1.77,0,0,1-.88-.76c-.22-.36-.43-.7-.65-1-17.37-25.08-19.7-52.6-7.11-84.12l.08-.2c4.61-11.56,9.84-24.66,4.1-35.35-3.22-6-3.59-8.82-1.71-13.22,7.25-17,11.3-28.75,8.86-49.23-.1-.82-1-8.23-1.26-9.16C1185.83,740.31,1185.23,738,1186.17,736.47Zm-74.7,128a1.34,1.34,0,0,0,1,.48,1.55,1.55,0,0,0,.31,0,24.2,24.2,0,0,1,5.62-.7c6.92,0,11.31,5,16.07,9.25a139.19,139.19,0,0,1,16.42,18.38c2.59,3.36,5.38,6.78,7.29,10.57a103.86,103.86,0,0,1,5.07,12.2c1.63,4.65,2.81,9.26,5.38,13.48,1.42,2.33,3.32,4.34,4.92,6.55a2,2,0,0,1,.55,1.43c-.46,2.82-10.1-4.28-11.22-4.82C1152,926,1139.64,925,1127.68,925c-2.79,0-5.62,0-8.36.09s-5.53.09-8.27.09c-1.55,0-2.94,0-4.27,0-25.57-.56-25.82-2.23-30.17-26.61-1.91-10.71.6-20,6.1-29,5.94-9.75,13-18.78,19.89-27.7a4.11,4.11,0,0,1,5.35-1c3.49,2.11,6.06,5.28,8.71,8.57a47.3,47.3,0,0,0,8.21,8.56,5.91,5.91,0,0,1-1.72.24,15.13,15.13,0,0,1-2.46-.26,17.36,17.36,0,0,0-2.62-.27c-3,0-5.1,1.66-6.78,5.38A1.35,1.35,0,0,0,1111.47,864.45Zm53-130.24,1.06,0,1.2,0a11,11,0,0,0,1.34-.06c.61-.06,1.2-.09,1.75-.09,6.37,0,7.36,4.38,8.5,9.45.19.84.38,1.71.61,2.55a1.54,1.54,0,0,1-.31,1.3,1.83,1.83,0,0,1-1.49.72,3,3,0,0,1-1.27-.32c-1.19-.57-2.42-1.09-3.61-1.59-5-2.1-9.66-4.09-11.2-9.29C1161.6,734.39,1162.73,734.21,1164.49,734.21Zm-87.83,2.21c1.39-2,6.08-2.51,13.72-2.63l2.31,0c4.23,0,8.56.18,12.76.35s8.56.35,12.82.35a91.16,91.16,0,0,0,16-1.2,23,23,0,0,1,4-.36c8,0,9.65,5.43,14.43,10.63,3.77,4.1,6,7,13,10,2.92,1.25,8.76,4,10,7a23,23,0,0,1,2,8.26c0,1.52,0,3.1.22,4.63.12,1.13-.17,1.35-2.37,1.85-2,.46-5.33,1.22-4.93,5.58,1,10.7-1.11,21.42-3.15,31.78-2.12,10.8-4.31,22-3.15,33.41.91,8.93-.17,10.44-2.57,20.49-.86,3.59-2.73,14.45-3.53,18.37-1.59-1.71-3-3.25-4.37-4.67-3.44-3.66-6.16-6.55-8.69-9.54-3.64-4.3-7-9.15-10.28-13.84-5.09-7.31-10.36-14.88-16.59-20.22-4.19-3.6-6.3-6.62-6.46-9.24-.16-2.87,2-5.22,4.52-7.95a45.91,45.91,0,0,0,3.06-3.55c3-3.92,6-8.18,7.85-13.17a5.28,5.28,0,0,0-.73-4.65,3,3,0,0,0-2.34-1.46,2,2,0,0,0-1.49.65c-2.29,2.43-3.45,3.2-4,3.44a18.75,18.75,0,0,1,.38-3.64,6.39,6.39,0,0,0,.17-2.85c-3.15-9.38-3-18.59.51-29.87a1.36,1.36,0,0,0-.56-1.52,1.36,1.36,0,0,0-1.62.15c-9.19,8.44-11.14,23.35-10.23,25.14a34.43,34.43,0,0,1,3.1,8.75,22.25,22.25,0,0,1,.35,6.41c-.83,9-7,16.58-11.53,24-5.1,8.23-10.47,16.09-16.1,24-2.57,3.61-5.07,7.28-7.27,11.13-1.13,2-2,4-3.1,6-.36.7-2.06,2.77-1.88,3.59-2.56-12,1.41-22.47,6.46-33.81,7.91-17.77,15.08-36.93,8.39-58.51a98.51,98.51,0,0,1-2.85-13.38,91.42,91.42,0,0,0-3.89-16.7C1076.49,743,1075.26,738.46,1076.66,736.42Zm-68.59,2.44c2.38-3.74,10.41-4.56,26.41-4.9h1.14a9.82,9.82,0,0,0,2.06-.17,37.59,37.59,0,0,1,7.82-.89c16.56,0,22,13.73,23.7,25.25.66,4.59,2.39,9,4.07,13.32,3.64,9.35,7.08,18.18.78,29-1.29,2.22-1.15,5.88-1,10.11s.36,9-1,12.71c-.38,1.07-.71,2.23-1,3.35-1.35,4.77-2.62,9.27-8.25,9.85-.51,0-1,.08-1.53.08-5.65,0-10.55-3.35-15-10.25a69.07,69.07,0,0,1-10.79-38.47c.13-10-3.66-16.08-10.27-23.18a1.24,1.24,0,0,0-.92-.4h-.08a1.26,1.26,0,0,0-.94.51c-2.49,3.39-1.42,6.49-.48,9.23.67,2,1.27,3.72.69,5.55-4-3.09-5.7-7.3-7.49-11.74-.42-1-.85-2.11-1.31-3.15C1008.32,750.15,1005.69,742.6,1008.07,738.86Zm-93,19.29c1.67-11.52,7.14-25.25,23.7-25.25a37.59,37.59,0,0,1,7.82.89,9.82,9.82,0,0,0,2.06.17h1.14c16,.34,24,1.16,26.41,4.9s-.25,11.29-6.66,25.78c-.46,1-.89,2.11-1.31,3.15-1.79,4.44-3.49,8.65-7.49,11.74-.58-1.83,0-3.58.69-5.55.94-2.74,2-5.84-.48-9.23a1.26,1.26,0,0,0-.94-.51h-.08a1.24,1.24,0,0,0-.92.4c-6.61,7.1-10.4,13.16-10.27,23.18a69.07,69.07,0,0,1-10.79,38.47c-4.43,6.9-9.33,10.25-15,10.25-.5,0-1,0-1.53-.08-5.63-.58-6.9-5.08-8.25-9.85-.32-1.12-.65-2.28-1-3.35-1.32-3.67-1.13-8.47-1-12.71s.31-7.89-1-10.11c-6.3-10.79-2.86-19.62.78-29C912.67,767.18,914.4,762.74,915.06,758.15Zm-83.41-14.61c4.78-5.2,6.39-10.63,14.43-10.63a23,23,0,0,1,3.95.36,91.16,91.16,0,0,0,16,1.2c4.26,0,8.62-.18,12.82-.35s8.53-.35,12.76-.35l2.31,0c7.64.12,12.33.6,13.72,2.63s.17,6.54-2.27,13.14a91.42,91.42,0,0,0-3.89,16.7,98.51,98.51,0,0,1-2.85,13.38c-6.69,21.58.48,40.74,8.39,58.51,5,11.34,9,21.77,6.46,33.81.18-.82-1.52-2.89-1.88-3.59-1-2-2-4-3.1-6-2.2-3.85-4.7-7.52-7.27-11.13-5.63-7.88-11-15.74-16.1-24-4.58-7.39-10.7-15-11.53-24a22.25,22.25,0,0,1,.35-6.41,34.43,34.43,0,0,1,3.1-8.75c.91-1.79-1-16.7-10.23-25.14a1.36,1.36,0,0,0-1.62-.15,1.36,1.36,0,0,0-.56,1.52c3.51,11.28,3.66,20.49.51,29.87a6.39,6.39,0,0,0,.17,2.85,18.75,18.75,0,0,1,.38,3.64c-.51-.24-1.67-1-4-3.44a2,2,0,0,0-1.49-.65,3,3,0,0,0-2.34,1.46,5.28,5.28,0,0,0-.73,4.65c1.84,5,4.88,9.25,7.85,13.17a45.91,45.91,0,0,0,3.06,3.55c2.51,2.73,4.68,5.08,4.52,7.95-.16,2.62-2.27,5.64-6.46,9.24-6.23,5.34-11.5,12.91-16.59,20.22-3.27,4.69-6.64,9.54-10.28,13.84-2.53,3-5.25,5.88-8.69,9.54-1.33,1.42-2.78,3-4.37,4.67-.8-3.92-2.67-14.78-3.53-18.37-2.4-10-3.48-11.56-2.57-20.49,1.16-11.45-1-22.61-3.15-33.41-2-10.36-4.15-21.08-3.15-31.78.4-4.36-2.93-5.12-4.93-5.58-2.2-.5-2.49-.72-2.37-1.85.17-1.53.2-3.11.22-4.63a23,23,0,0,1,1.95-8.26c1.24-3,7.08-5.75,10-7C825.65,750.54,827.88,747.64,831.65,743.54ZM873,863.05c-1.68-3.72-3.78-5.38-6.78-5.38a17.36,17.36,0,0,0-2.62.27,15.13,15.13,0,0,1-2.46.26,5.91,5.91,0,0,1-1.72-.24,47.3,47.3,0,0,0,8.21-8.56c2.65-3.29,5.22-6.46,8.71-8.57a4.11,4.11,0,0,1,5.35,1c6.94,8.92,14,17.95,19.89,27.7,5.5,9,8,18.29,6.1,29-4.35,24.38-4.6,26.05-30.17,26.61-1.33,0-2.72,0-4.27,0-2.74,0-5.55-.05-8.27-.09s-5.57-.09-8.36-.09c-12,0-24.29,1-35.23,6.23-1.12.54-10.76,7.64-11.22,4.82a2,2,0,0,1,.55-1.43c1.6-2.21,3.5-4.22,4.92-6.55,2.57-4.22,3.75-8.83,5.38-13.48a103.86,103.86,0,0,1,5.07-12.2c1.91-3.79,4.7-7.21,7.29-10.57a139.19,139.19,0,0,1,16.42-18.38c4.76-4.27,9.15-9.25,16.07-9.25a24.2,24.2,0,0,1,5.62.7,1.55,1.55,0,0,0,.31,0,1.32,1.32,0,0,0,1.21-1.88ZM805.31,746.1c.23-.84.42-1.71.61-2.55,1.14-5.07,2.13-9.45,8.5-9.45.55,0,1.14,0,1.75.09a11,11,0,0,0,1.34.06l1.2,0,1.06,0c1.76,0,2.89.18,3.42,2.71-1.54,5.2-6.23,7.19-11.2,9.29-1.19.5-2.42,1-3.61,1.59a3,3,0,0,1-1.27.32,1.83,1.83,0,0,1-1.49-.72A1.54,1.54,0,0,1,805.31,746.1Zm-11.66-12c.94,0,.53.11,1.62.34a3.43,3.43,0,0,1,2.82,2.05c.94,1.51.34,3.84-.18,5.91-.24.93-1.16,8.34-1.26,9.16-2.44,20.48,1.61,32.19,8.86,49.23,1.88,4.4,1.51,7.24-1.71,13.22-5.74,10.69-.51,23.79,4.1,35.35l.08.2c12.59,31.52,10.26,59-7.11,84.12-.22.33-.43.67-.65,1a1.77,1.77,0,0,1-.88.76,2.07,2.07,0,0,1-2.68-1.45,38.46,38.46,0,0,1-1-4.46c-1.37-8.72-3.75-17.15-17.62-22a1.31,1.31,0,0,0-.43-.08,1.35,1.35,0,0,0-1.07.53,1.34,1.34,0,0,0,0,1.57c10,14.51,18.3,28.82,8.87,44.38-8.69,14.33-18.57,28.07-28,40.92-1.25,1.71-2.46,2.55-3.69,2.55-1.92,0-4.07-2-6-3.84-.34-.32-.67-.64-1-.94-25.42-23.44-35.3-53.25-29.35-88.59,5.35-31.87,19.43-54.67,41.84-67.76a1.36,1.36,0,0,0,.65-1,1.34,1.34,0,0,0-.34-1.1c-7.64-8.39-4.85-16.39-1.89-24.85,1.71-4.89,3.48-9.95,2.86-14.88a1.34,1.34,0,0,0-.9-1.11,1.52,1.52,0,0,0-.42-.06,1.32,1.32,0,0,0-1,.41l-.4.41c-7.62,7.92-8,8.78-12,30.63-2,10.7-6.24,14.72-14,23.71,1.27-4.19,2.47-8.43,3.63-12.55,6.2-22,12.94-41.21,30.17-58.44,13-13,16.49-21.7,20-34C787.65,736.54,788.78,734.08,793.65,734.08Zm-77,249.14c-.21,1.08-1.44,1.56-2.43,1.78a42.17,42.17,0,0,1-9.17,1c-9.44,0-18.67-3-27.59-5.86-5.44-1.76-10.06-3.57-15.72-4.72-7.93-1.61-11.5-12.29-11.51-19.36a156.32,156.32,0,0,1,2.6-28.67,52.05,52.05,0,0,1,1.58-5.68,2.41,2.41,0,0,1,4.46-.3.14.14,0,0,0,0,.06c2.64,5.53,5.38,11.25,7.78,17q.21.51.36,1c.52,1.52,1.17,3.41,4.21,3.64,14.48,1.06,21.28,10.42,28.49,20.33,4.26,5.85,8.66,11.9,14.76,16.07C716,980.44,716.9,982.07,716.68,983.22Zm45.09-242.06c2.16-4.56,5-6.86,8.42-6.86a10.62,10.62,0,0,1,4.09.92c1.78.74,2.79,1.74,3.1,3,.46,1.92-.65,4.71-3,7.45-2,2.38-2.73,5.6-3.43,8.72-1.25,5.55-2.33,10.35-10.05,10.35-.64,0-1.31,0-2-.09a1.83,1.83,0,0,0-.33,0c-2.89,0-3.21,3.12-3.42,5.19a9.25,9.25,0,0,1-.66,3.14c-5.4,9.46-10.81,18.91-16.5,28.84l-4.79,8.36c-4-11.85-3.8-21.07,6.47-31.45,8.73-8.81,14.23-20.67,19.55-32.14C760.08,744.77,760.92,743,761.77,741.16ZM718.51,738c1.9-2.65,6.81-3.79,16.4-3.78h4.34a36.21,36.21,0,0,0,3.84-.29c1.25-.13,2.54-.28,3.7-.28,2.56,0,4,.69,4.85,2.29,2.29,4.34-2,10.08-4.83,12.19-4.2,3.15-5.56,7.36-6.88,11.43-1.06,3.29-2.06,6.4-4.54,8.72-.59.55-1.15,1.17-1.7,1.77-1.63,1.79-3.17,3.47-5.22,3.47a5,5,0,0,1-1.87-.4c-4.3-1.73-4.88-6.08-4.84-8.52a36.91,36.91,0,0,0-2.25-13.1C717.13,744.53,716.83,740.36,718.51,738ZM649.4,755.19c1.26-1.14,2.51-2.3,3.75-3.45,9.6-8.87,17.66-18.25,30.91-18.25a35.87,35.87,0,0,1,8.23,1,5.09,5.09,0,0,0,1.21.14,12.64,12.64,0,0,0,1.78-.17,11,11,0,0,1,1.42-.14,1.85,1.85,0,0,1,1.75.95c10.69,16.06,15.21,33.76,20,52.5.13.52.26,1,.4,1.55-3.81-3.45-6.85-7.56-10-11.87-5.57-7.53-11.32-15.32-21.66-19.56a1.24,1.24,0,0,0-.5-.1,1.34,1.34,0,0,0-1.09,2.11c2.8,3.92,5.53,7.86,8.16,11.67,8.58,12.43,16.69,24.17,27.11,34.56,3.86,3.84,3.17,8.84,2.45,14.14l-.24,1.79c-3.37,26.7-10.52,53-17.06,75.19A119.59,119.59,0,0,0,700.91,938c-13.38-9.44-22.16-22.6-24.84-37.33a47.14,47.14,0,0,1,8.16-36.79c14.84-20.15,15-21.83,16.11-32.73l.19-1.78a1.64,1.64,0,0,0,0-.23,1.34,1.34,0,0,0-1.34-1.33h-.12a1.35,1.35,0,0,0-.65.24,1.45,1.45,0,0,0-.26.24l-.09.12c-2.51,3.71-5,7.34-7.49,10.85-5.74,8.23-11.16,14-16,22.22-2.44,4.15-3.72,4.77-4.27,4.77-1.28,0-3.3-3.41-4.38-5.24-6.16-10.39-9.42-20.32-10.25-35.54a1.34,1.34,0,0,0-1.08-1.24l-.25,0a1.34,1.34,0,0,0-1.21.78c-6.17,13.51-1,25,4,36.1,2.73,6.07,5.32,11.8,6.2,17.86q.51,3.52,1,7c2,14.72,4.09,29.89,11.64,44.83-.19-.38-1.4-.84-1.78-1.08s-1.05-.7-1.55-1.09a10.21,10.21,0,0,1-2-2.13,40.9,40.9,0,0,1-5-9c-.83-2-1.36-3.88-2.18-5.93a13.41,13.41,0,0,0-2.7-4.69,8.11,8.11,0,0,0-8-1.81c-2.48,1-3.72,3.76-4.51,6.12-1.55,4.65-2.62,9.51-3.76,14.27-1.29,5.33-2.77,10.61-4,16s-2.12,11.46-.76,16.88c1,5,3.5,9,6.21,13.31.88,1.39,2.7,3.51,1,5-.83.75-1.69.61-2.7.77-3.75.6-8.28,2-11.36,4.26-3.54,2.64-5,6.82-5.16,11.1a1.34,1.34,0,0,0,.76,1.27,1.42,1.42,0,0,0,.57.12,1.31,1.31,0,0,0,.9-.34,33.74,33.74,0,0,1,23.68-9.11,53.89,53.89,0,0,1,10.22,1c6.65,1.26,10,2.79,11,5s-.27,5.54-3.82,11.1a7.25,7.25,0,0,1-2.12,1.88c-1.54,1.07-3.45,2.39-3.73,5.31a48.73,48.73,0,0,1-1.91,8.55c-.37,1.31-.76,2.66-1.11,4a1.36,1.36,0,0,0,.4,1.31,1.31,1.31,0,0,0,1.34.27,8.65,8.65,0,0,1,.87-.25c.71-.19,1.52-.4,1.82-1.25,7-19.54,19.59-22,29.75-22,6.27,0,13,1.12,19.54,2.19,3.69.61,7.5,1.25,11.16,1.66,11.84,1.34,19,10.85,26,20,.67.9,1.35,1.79,2,2.67,13.37,17.39,16.24,37.6,17.33,57.2-7.46-10.81-17.27-18.87-27.69-25.85-6.87-4.6-14.91-8.48-20.77-14.14a1.29,1.29,0,0,0-.92-.38,1.33,1.33,0,0,0-1.33,1.4c.14,3.3-.29,5.51-1.29,6.56a3,3,0,0,1-2.28.8c-1.88,0-4.39-.88-6.82-1.74-2.7-1-5.48-1.93-7.91-1.93-3.68,0-5.87,2.22-6.5,6.6a1.34,1.34,0,0,0,1.15,1.51c2.89.37,5.62,1.64,8.67,2.32,9,2,13.47,2.44,20.65,3.67,10.1,1.74,15.07,3.87,16.62,7.12s1.19,5.92-3.35,14.09a1.3,1.3,0,0,0,0,1.24,1.35,1.35,0,0,0,1,.73c30.83,4.47,35.16,19.65,32.36,46.09-.6,5.72-3.72,5.72-4.74,5.72a11.33,11.33,0,0,1-4.3-1c-22.26-9.41-46.24-11.09-69.43-12.71l-3.47-.24c-4.19-.3-9.76-1.51-12.59-5.58-2-2.91-2.3-6.89-.83-11.84.48-1.62.83-3.29,1.16-4.91.95-4.54,1.92-9.23,6-13.84a1.33,1.33,0,0,0-1-2.26h-.07c-11.92.53-13.2,8.16-14.33,14.9-.2,1.16-.4,2.35-.65,3.51-9.76-6.83-11.72-14-6.39-23.11,3.71-6.33,6.41-13.45-1.68-18.2a1.25,1.25,0,0,0-.67-.18,1.34,1.34,0,0,0-1.09.55c-8,11-11.52,21.15-10.79,31,.7,9.65,5.71,18.91,14.9,27.57l-1.49,0c-23.52,0-34.47-14.73-42.07-29.14-6.35-12-11.54-24.92-16.55-37.38-3.21-8-6.53-16.22-10.13-24.19-3.5-7.75-.21-13.71,3.28-20,.69-1.24,1.4-2.53,2-3.82,2.48-4.95,5.24-9.95,7.91-14.78,9.16-16.6,18.64-33.77,19.42-53.16.82-20.19,2.51-44.1,8.91-68.37,2-7.61-.53-15.38-3-21.29-3.68-8.94-5.71-13.87-5-17.57s3.93-6.78,10.47-13.11l.1-.1a1.33,1.33,0,0,0-.33-2.15,6.49,6.49,0,0,0-2.91-.75c-2.26,0-3.88,1.35-5.44,2.66s-2.89,2.41-4.77,2.41a5.06,5.06,0,0,1-1.2-.15C622.46,791.26,631.48,771.36,649.4,755.19ZM453.62,1002.76v-.08c-1.47-11.85-3-24.1-3.29-39a1.34,1.34,0,0,0-.88-1.23,1.42,1.42,0,0,0-.45-.08,1.33,1.33,0,0,0-1,.46c-9.64,11-7.92,22.06-6.26,32.78,1.11,7.17,2.26,14.55,0,22.06-2.66-6.59-8.07-10.11-13.33-13.53-6.47-4.22-12.58-8.19-13.14-17.79a1.34,1.34,0,0,0-1.09-1.23,1,1,0,0,0-.24,0,1.33,1.33,0,0,0-1.22.79c-6.69,14.94-6.1,15.86,3.72,23.44l.77.59c1.42,1.1,2.92,2.19,4.36,3.24,8.39,6.12,17,12.42,18,24.94l-1.56-.76a41.72,41.72,0,0,0-7.41-3.06,4.75,4.75,0,0,0-1.17-.14,8.19,8.19,0,0,0-5.56,2.34c-.91,1-1.89,2.41-1.42,3.77s2,1.68,3.22,1.92a5.77,5.77,0,0,1,1.4.39c4.76,3.45,5.31,7.86,1.77,14.31-3,5.46-6.6,8-11.36,8a16.21,16.21,0,0,1-3.48-.41l-6.7-1.48c-15.65-3.46-31.82-7-47.94-9.44-6.17-.91-8.56-5-11.1-9.38-2.09-3.6-4.26-7.32-8.6-9.14a1.34,1.34,0,0,0-.52-.1,1.32,1.32,0,0,0-.67.18,3.59,3.59,0,0,0-1.79,2.21c-.42,1.67.58,3.34,1.47,4.81.36.6,1.22,2,1.06,2.33,0,0-.27.46-2.2.72a3.55,3.55,0,0,1-.46,0,4.91,4.91,0,0,1-4.11-2.82c-.3-.6-1-2.19.08-3.39,2.09-2.43,2.41-4.47,2.09-7.43-.23-2.13-1.89-4.87-1.15-5.7.08-.08.28-.31,1-.31,1.18,0,3.68.67,8.9,3.83a1.37,1.37,0,0,0,.69.2,1.34,1.34,0,0,0,1.27-1.76c-2.44-7.19-6.22-10.69-11.56-10.69-3.25,0-6.53,1.33-9.31,2.62s-3.9,2.42-4.05,3.84c-.18,1.74,1.38,2.89,2.75,3.91.77.57,1.93,1.44,2,2a1.17,1.17,0,0,1-.37.69c-6.92-1-9.24-8.34-13.11-14.58-4.59-7.41-11.13-14.37-22.69-14.37a28.45,28.45,0,0,0-4.66.41,1.33,1.33,0,0,0-.82,2.15c2.93,3.65,6.62,6.42,10.18,9.1,5.36,4,10.43,7.84,12.29,14.13-.21.49-.69.84-2.38.84l-1.2,0c-.44,0-.87,0-1.29,0a5,5,0,0,0-3.89,1.32,4.89,4.89,0,0,0-.89,4c.5,4.16,4,4.49,6.56,4.73a9.79,9.79,0,0,1,3.05.58l3.4,1.58a81.46,81.46,0,0,1,15.34,9.6,69,69,0,0,0,27.41,12.92,122,122,0,0,0-11.33,8.18c-8.61,6.74-16.75,13.11-28,13.11a35,35,0,0,1-10.28-1.65c-9-2.77-14.75-7.18-16.55-12.76-1.63-5.06.06-11.11,4.9-17.48,2.44-3.22,4.13-5.72,3.62-8.59-.46-2.54-2.63-4.93-7.06-7.75-2.82-1.8-5.1-4.53-7.52-7.43-4-4.82-8.59-10.29-16.53-11.71a.93.93,0,0,0-.23,0,1.33,1.33,0,0,0-1.12.6,5,5,0,0,0-.87,4c.5,2,2.36,3.24,3.71,4,10.86,6,13.36,13.94,8.1,25.87-5.55,12.6.92,21.67,7.95,31.3-.2,0-.4,0-.6,0-15.62-1.55-22.12-3.9-22.74-20-.26-6.9-2.33-8.88-8.82-11.68-5.66-2.44-9-5.94-9.67-10.12-.83-5.19,2.42-11.33,9.15-17.27a1.32,1.32,0,0,0,.43-1.24,1.34,1.34,0,0,0-.83-1c-4.7-1.79-7.06-2.68-8.1-4.43s-1.16-5.06-1.27-11.49a1.33,1.33,0,0,0-.77-1.18,1.24,1.24,0,0,0-.56-.13,1.36,1.36,0,0,0-.84.29c-11.3,9.09-10,20.22-8.82,31,.08.67.15,1.34.23,2a18,18,0,0,0,.37,2c.24,1,.48,2.13.17,2.59a2.82,2.82,0,0,1-1.77.73,4.69,4.69,0,0,1-.87.08c-1.38,0-1.69-.61-2.2-3.07-.12-.62-.34-1.24-.45-1.89-1.95-11.89-5.31-23.58-6-35.66-.31-5.69.63-11.4-.15-17.06a42.68,42.68,0,0,0-5.87-16c-3.88-6.52-7.17-14.31-4.8-22a1.32,1.32,0,0,0,.06-.39,1.34,1.34,0,0,0-1.34-1.34,1.31,1.31,0,0,0-.59.14c-3.72,1.72-5.19,5.32-6.5,8.49-1.46,3.55-2.52,4-5.09,4a40.38,40.38,0,0,1-4.57-.83,89.52,89.52,0,0,0-17.43-1.17c-2.39,0-5.86.36-8.23.15-1.55-.13-1.8-1.1-1.76-3.94,0-.26,0-.51,0-.76-.06-13.91-.06-27.73,0-42.36V896.82c2.94,1.65,3.25,3.94,3.6,6.52.25,1.85.51,3.76,1.84,5.28a1.4,1.4,0,0,0,.95.45h.06a1.33,1.33,0,0,0,.92-.37,33.2,33.2,0,0,1,22.86-9.17c10.51,0,19.21,5.05,22.7,13.18a1.33,1.33,0,0,0,.76.73,1.48,1.48,0,0,0,.46.08,1.39,1.39,0,0,0,.6-.14c4.91-2.45,5-7,5.14-10.61l0-.92c.05-1.4-.94-2.59-1.81-3.63-.34-.41-1.25-1.5-1.17-1.77,0,0,.2-.5,2.09-1.1a8.82,8.82,0,0,1,2.67-.43c2.39,0,5.15,1.07,5.75,4.05,1.81,9,8,14.53,14.48,20.34,4.53,4,9.23,8.22,13,14a1.33,1.33,0,0,0,1.11.6,1.42,1.42,0,0,0,.45-.08,1.34,1.34,0,0,0,.88-1.4c-.68-6.51.11-10.92,2.43-13.49,2-2.18,5.09-3.15,10.15-3.15,1.88,0,3.83.13,5.49.26,2.17.16,4.53.24,7.19.24,2.83,0,5.72-.09,8.52-.17s5.71-.18,8.58-.18a71.25,71.25,0,0,1,17.2,1.78c-1.49,1.92-3.39,2-5.54,2.06s-4.5.16-6.13,2.32a1.27,1.27,0,0,0-.26.94c.5,4.73,16.49,9.5,23.59,9.5a11.13,11.13,0,0,0,2.92-.33c6.67-1.85,13.44-3.83,21.22-3.83a40.24,40.24,0,0,1,13.38,2.18c7.71,2.67,16.66,8.5,14.9,17-1.84,8.92-9.46,14.55-18.44,15.23-7.27.54-11.25,1.55-17.06,6.36-1.62,1.34-5.08,2.08-9.74,2.08-12.69,0-31.58-4.19-37.42-9.29l-.45-.41a6.21,6.21,0,0,0-4.39-2.08,8,8,0,0,0-3.06.68,1.34,1.34,0,0,0-.72.72c-1.54,3.62,1.83,6.42,4.54,8.67,1.94,1.61,3.93,3.27,3.83,4.68-.07,1-1.17,2.15-3.19,3.39a1.34,1.34,0,0,0,.5,2.46,169.75,169.75,0,0,0,25.46,2c31.24,0,57.39-9.68,79.75-29.57-7.08,16.09-17.81,30.31-32.66,43.34a9.86,9.86,0,0,1-6.32,2.44,6.42,6.42,0,0,1-2.51-.48,18.06,18.06,0,0,0-7.16-1.68c-5.93,0-9.62,4.13-13.18,8.11a57.14,57.14,0,0,1-4.18,4.36,1.35,1.35,0,0,0-.42,1.17,1.33,1.33,0,0,0,.73,1,10.54,10.54,0,0,0,4.77,1,28.2,28.2,0,0,0,7.61-1.44,24.74,24.74,0,0,1,6.32-1.25c2.34,0,5,.77,7.07,6.47a1.93,1.93,0,0,0,1.86,1.3c2.5,0,6.84-4.81,8.06-6.63,5.25-7.83,11.67-15,17.88-22,7.72-8.66,15.7-17.62,21.61-27.94,5.79-10.08,13.7-14.78,24.89-14.78a50.08,50.08,0,0,1,9.14.92c68.73,13,117.06,52.74,143.65,118.25.24.58.54,1.22.86,1.89,1.06,2.25,2.39,5.06,1.57,6.72-.43.86-1.51,1.47-3.23,1.83a41.38,41.38,0,0,0-6.35,2.1c-3,1.18-6.19,2.41-9.06,2.41-3.33,0-5.91-1.68-8.13-5.3-.71-1.16-1.39-2.37-2.05-3.53-2.7-4.81-5.49-9.78-11.31-12.84a1.27,1.27,0,0,0-.62-.16,1.34,1.34,0,0,0-1.14.64c-2.59,4.27-.53,7.13,1,9.22l.65.92.47.72c3.88,5.83,6.59,10.55,3.32,13.89-1.62,1.65-4,2.46-7.13,2.46a22.41,22.41,0,0,1-10.76-2.12c-17.83-9-36.88-32-37-53.92-.06-14.77-.13-31.51-13.39-47.7a1.32,1.32,0,0,0-1-.49,1.25,1.25,0,0,0-.43.07,1.32,1.32,0,0,0-.9,1.23c-.17,6.08,1.31,11.12,2.74,16,1.24,4.24,2.43,8.29,2.34,12.61a41,41,0,0,1-6.63-8.34c-4.12-6.21-8.39-12.64-18.62-13.85h-.16a1.34,1.34,0,0,0-1.06,2.14c7.67,10.23,12.63,21.81,17.41,33,5.13,12,10.42,24.37,19.12,35.54-10.26-2.29-16.84-6.74-22.59-13.72a60.81,60.81,0,0,0-8-8.48,1.34,1.34,0,0,0-1.8.1c-3.62,3.73-1,7.64,1,10.5,1.3,1.9,2.52,3.7,2.07,5.07s-2.26,2.47-5.36,3.56a1.33,1.33,0,0,0,.19,2.57c25.38,4.84,44.52,14.17,60.26,29.35,1.11,1.08,1.71,2,1.6,2.57-.19.92-2.5,1.78-4,2.35l-.11,0c-8.46,3.15-15.48,4.62-22.1,4.62a41.05,41.05,0,0,1-19.2-4.72,1.36,1.36,0,0,0-.61-.14,1.33,1.33,0,0,0-1.2,1.92c2.52,5.08,7.45,7.62,12.21,10.07,7.12,3.67,13.26,6.84,12.12,17.53l-.05.4a1.33,1.33,0,0,0,1.17,1.47h.16a1.34,1.34,0,0,0,1.32-1.17c0-.14,0-.28.05-.42,2.38-20,13.61-17.77,29.91-23.47,2.67-.93,5.45-.69,7.95-1.19,6.29-1.25,12.88-2.21,19.26-3.14,7.75-1.13,15.76-2.31,23.47-4a24.85,24.85,0,0,1,5.43-.69c5.11,0,8.08,2.37,10.93,8.75,5.9,13.16,13.58,27.85,30.28,37.15-6.41,2.32-12.67,4.6-18.83,6.85-16.3,6-31.69,11.57-47.31,16.9a48.6,48.6,0,0,1-15.72,2.69,46.35,46.35,0,0,1-25.95-8.11c-3.9-2.58-7.78-5.37-11.53-8.06-14.65-10.51-29.8-21.37-49.75-23.37-4.74-.47-5.39-3.84-5.75-8.2l-.06-.71c-1.52-16.78-12.5-28.08-22.68-37.36-2.54-2.32-3.71-4.14-3.67-5.7,0-1.36,1-2.81,3.05-4.44C457.34,1049.12,456.32,1024.45,453.62,1002.76ZM179.52,1091c-1-1.13-1.19-3.44-.66-6.69a2.47,2.47,0,0,0-.52-2.06c-.87-1-2.46-1.18-3.75-1.2-7-.11-10.87-.54-12.74-2.57-2.37-2.58-2.11-8.78-1.41-18.7.82-11.54,8.3-11.64,17.76-11.77h.86c5.81,0,9,4,12,8.4a2.27,2.27,0,0,1,.54,1.63c-.19.87-1.58,1.72-2.92,2.55a11.46,11.46,0,0,0-3.63,2.93c-1.11,1.61-3.21,3.38-4.39,5-.52.73-1.05,2.25-1.58,3a1.34,1.34,0,0,0,.35,1.88A8.28,8.28,0,0,0,184,1075h0a5.85,5.85,0,0,1,3,.76l1.79,1.07c1.6,1,4.05,1.22,5.06,2.8a6.11,6.11,0,0,1,1.13,3.89c-.24,2.28-2.33,4.49-5.88,6.22-3,1.43-5.35,2.16-7.11,2.16A3.08,3.08,0,0,1,179.52,1091Zm.51,7.53c-7.17,2.93-11.63,4.2-14.6,4.2a4.4,4.4,0,0,1-3.48-1.21c-1.35-1.5-1.77-4.69-1.32-10.25l4.52,1.69ZM232.5,870.2a1.34,1.34,0,0,0,1.2.76,1.17,1.17,0,0,0,.32,0c16.67-4,22.53-8.71,27.15-22.34,10.35,4.89,18.43,11,24.67,18.59,6.74,8.22,11.81,14.37,26.53,21.26,6,2.8,10.57,7.13,14.28,10.11,5.13,4.11,8.51,6.52,5.93,10.93-1.15,2-2.32,2.21-3.22,2.21-1.53,0-3.41-.89-5.22-1.75a28.62,28.62,0,0,0-3.66-1.52,66.55,66.55,0,0,0-7-1.57c-5.55-1-10.79-2-14.86-6.24a5.65,5.65,0,0,0-4-2.05c-1.72,0-3.39,1.06-5.1,3.25-3.93,5-9.43,5.74-14.78,5.74-1.4,0-2.86,0-4.26-.1s-2.88-.1-4.3-.1c-.92,0-1.75,0-2.52.06h-.45a2.64,2.64,0,0,1-2.29-.79c-.59-.85-.42-2.66.45-5,.25-.67.56-1.35.85-2,1.33-2.95,2.83-6.29.14-10.1A1.33,1.33,0,0,0,261,889c-5.82,1.28-7,6.46-8,10.63-1.1,4.69-1.91,7.34-5.9,7.34h-.5c-4.53-.24-6-3.42-8-8.59-1.31-3.37-2.67-6.85-5.55-9.21a19.5,19.5,0,0,0-13-4.68,48.92,48.92,0,0,0-9.95,1.34,59.9,59.9,0,0,1-11.81,1.62c-7.76,0-10.33-3.51-12.51-17-1.1-6.85-4.33-9.78-10.81-9.78h-.4a1.33,1.33,0,0,0-1.18.77c-1.43,3.08,0,5.77,1.22,7.93,1.34,2.45,2,3.93.64,5.72-1,1.37-1,3.26-1,4.93,0,1.19,0,2.55-.44,3a1.55,1.55,0,0,1-1.09.29,6.11,6.11,0,0,1-1.25-.14c-.73-.13-1.49-.24-2.3-.35-5.27-.71-8.72-1.59-8.66-7,.18-17.63.2-33.32.06-47.94,0-4,1.53-5.83,6-6.88,6.12-1.44,9.12-3.44,12.12-7.44,6.42-8.56,9.76-10.37,19.45-10.37,5.61,0,11.59,1.34,17.37,2.64,5.43,1.21,11,2.47,16.43,2.65,4.36.15,7.43,5.12,7.56,9.67.13,4.8,1.41,9.65,2.66,14.34,3.26,12.35,6.35,24-9.23,36.1A1.34,1.34,0,0,0,232.5,870.2Zm-52.45,97.42a9.89,9.89,0,0,1-.63-1.74,2.93,2.93,0,0,1,.74-.11c.54,0,1.09,0,1.64,0a29.82,29.82,0,0,1,20.88,8.62c7.39,7.34,4.87,19.21,5.33,28.54a148.56,148.56,0,0,0,6.36,36.84c.34,1.11,1,3.92-.13,6.06a4.79,4.79,0,0,1-3.08,2.31c-4.42,1.29-7.17,1.94-10.15,1.94-3.3,0-4.31-1.89-5.36-3.49-3.81-5.81-11.3-8-18-8a47.2,47.2,0,0,0-8.51.6l-1.7.29a21.38,21.38,0,0,1-3.42.34,3.75,3.75,0,0,1-2.67-.71c-.79-.81-.93-1.67-.9-4.41.26-20.47.26-39,0-56.77-.11-7.55.34-12.19,7.63-13a11.35,11.35,0,0,1,1.25-.08c3.69,0,4.1,2,4.57,6,.25,2.07.5,4.21,1.68,5.84a1.3,1.3,0,0,0,1.08.55,1.45,1.45,0,0,0,.54-.11C183,974.47,181.07,970,180.05,967.62Zm-5.43-169.53c-.22.78-.41,1.64-.62,2.55-1.39,6.21-3,11-9.57,11l-.79,0a2.68,2.68,0,0,1-2.12-1c-2.38-3-1-12.51.75-22.06a21.54,21.54,0,0,0,6.43,2.83C173.73,792.94,176.08,792.93,174.62,798.09Zm19,273.18-1.51-.9.41-.42a14.39,14.39,0,0,1,1.2-1.17c7.67-6.48,13.91-10.33,22.48-13.41,6.48-2.33,11.24-3.41,15-3.41,8.33,0,12.85,5.61,16.73,21.21a36.75,36.75,0,0,0-15.51-3.13,101.2,101.2,0,0,0-15.91,1.68c-5.57.87-9.32.78-15.29.78-1.51,0-3-.06-4.4-.18A7.35,7.35,0,0,1,193.59,1071.27Zm399-322c-1.11-5.12-.57-9.23,1.58-11.9,2-2.46,5.34-3.71,10-3.71a32.44,32.44,0,0,1,4.35.32,67.39,67.39,0,0,0,9.55.58c2.62,0,5.28-.09,7.86-.18s5.21-.18,7.8-.18c1.06,0,2,0,3,0h.22a16.56,16.56,0,0,0,3.14-.43,15.84,15.84,0,0,1,2.83-.39c1.11,0,2.23.21,2.65,2.73.68,4,1.37,8.13-2.2,11.42s-7,6.83-10.6,10.51l-3.88,4c-1.86-1.53-2-4.08-2.23-7-.27-3.94-.58-8.4-5.69-10.3a1.48,1.48,0,0,0-.46-.08,1.33,1.33,0,0,0-1.31,1.58c2.74,14.4-1.21,29.68-3.49,44.26-3.54,22.63-5.59,45.77,9.08,68-3.21-2.82-5-6.31-7-9.94s-4-7.6-7.62-10.79a1.35,1.35,0,0,0-.88-.34,1.33,1.33,0,0,0-.84.3,1.35,1.35,0,0,0-.33,1.69c17.3,31.1,11.91,63.29,6.7,94.41-.68,4.06-1.38,8.22-2,12.38-4.15-9.78-2.23-20.08-.36-30.08.34-1.83.69-3.73,1-5.59a1.34,1.34,0,0,0-.92-1.49,8.79,8.79,0,0,0-2.63-.45c-3.12,0-3.16,2.35-3.91,4.07-.9,2-1.46,3.08-3.7,3,0-5.29-.61-8.2-1.09-15.92-.86-13.87,3.48-20.28,1.48-42.28-.47-5.19-1.21-10.67-4.45-14-2.41-2.5-6.21-3.72-11.62-3.72H586A1.34,1.34,0,0,0,585,841.9c10,14,12.26,29.74,7,49.57a19.24,19.24,0,0,1-4.85-3.23c-2.64-2.14-5.37-4.36-9.17-4.36A11.33,11.33,0,0,0,573.3,885a1.33,1.33,0,0,0-.79,1.11,1.35,1.35,0,0,0,.59,1.22c1.24.82,2.54,1.58,3.79,2.31a28.69,28.69,0,0,1,7.76,7.95c8.8,15,12,23.56,14,44s.58,38.78-5.36,48.31l-.36.58c-6.32,10.14-9.5,15.23-12.91,15.23-3,0-7.49-3.76-14.85-10l-2.87-2.41-.77-.65c-16.44-13.78-30.63-25.69-20.18-49.68,4.59-10.53,3.6-21.78,2.64-32.66-.74-8.39-1.5-17.06.28-25.39,3.25-15.19,12-27.51,27.45-38.76,11.43-8.3,18.49-19.47,26-31.3,2.14-3.39,4.36-6.9,6.74-10.46a1.34,1.34,0,0,0-1.06-2.14h-.15a12.32,12.32,0,0,0-8,3.81c-1.12,1-1.74,1.58-2.67,1.58h-.15c-1.18-5.25,1.8-9,5.22-13.32,2.36-3,4.79-6,5.9-9.8a1.18,1.18,0,0,0,.09-.46,1.34,1.34,0,0,0-1.32-1.34h-.18a1.39,1.39,0,0,0-.45.14c-11.12,5.48-17.18,11.65-17.38,28.52-.12,10.24-4.81,16.37-15.2,24.94,1-5.12,1.4-10,1.83-14.81,1.18-13,2.21-24.27,13.14-34C593,779.54,596.15,765.58,592.6,749.26Zm-35-14.32a16.14,16.14,0,0,1,8.23-2.2c8.4,0,17.56,6.16,17.81,15.32.6,21.62-1.9,29.32-14.65,42.44l-3.37-12.3c-3.53-12.86-6.86-25-10.25-37.09C554.59,738.27,555.3,736.31,557.62,734.94Zm-56.54,2c1.78-1.87,4.46-2.78,8.21-2.78a31.49,31.49,0,0,1,4.6.38,45,45,0,0,0,6.85.48c3.59,0,7.24-.32,10.76-.63l1.36-.12c.6,0,1.19-.08,1.75-.08,6.07,0,10,3,12,9.1.52,1.58,1.71,4.59,2,6.25,1.29,6.44,2,6,2.7,13.06.26,2.67-1.58,2.85-2.69,2.85a16.71,16.71,0,0,1-3.35-.55,22.21,22.21,0,0,0-4.8-.7,8.23,8.23,0,0,0-7.23,3.94,1.33,1.33,0,0,0,1.09,2.08c24.93.3,24.28,16.32,27.53,33a45.21,45.21,0,0,1,.76,6.37c1,20-8.4,36.79-22.52,52.91a4.33,4.33,0,0,1-3.16,1.81c-1.4,0-3.27-.86-5.12-3.15-18.21-22.6-37.21-43.6-32.21-79.6,1-7.4.13-14.8-.63-22.3-.3-3-.62-6-.78-9C497.86,743.62,498.77,739.39,501.08,736.94Zm-59.54,7.33a32.38,32.38,0,0,0,2.33-6.22c.74-3.38,2.77-4.7,7.21-4.7,1.09,0,2.25.08,3.37.15l2.24.12c16,.57,23.42,2.45,27.52,7,5.32,5.83,5.1,17.08,4.1,34.9-.1,1.68-.21,3.4-.32,5.14-1.11,16.67-2.35,35.48,10.82,51.46a48.81,48.81,0,0,1-9.16.47A30.7,30.7,0,0,1,471.29,827a1.33,1.33,0,0,0-1.91,1.74c3.13,5.86,4.86,9.09,4.29,10.76s-3.52,2.87-8.46,5.08a1.33,1.33,0,0,0-.27,2.27c2.52,1.94,4.94,3.89,7.37,3.89,3.75,0,6.84-2.3,9.37-4.55,3.88-3.45,7.09-4.66,11-4.66,4.44,0,9.64.73,14,5.22,7,7.13,13.46,14.93,19.74,22.47l1.13,1.36c3.38,4,4.51,8.25,3.79,14.06a211.84,211.84,0,0,0-1.09,25.48c0,12.62-.06,25.67-3.66,38.27-2.31,8.08-4.75,9.73-7.71,9.73-2.08,0-4.84-.89-8.46-2.74C488.62,944.25,481.72,929,488,906a28.43,28.43,0,0,1,1.55-4c1.65-3.65,3.52-7.78,1.12-12.5a1.34,1.34,0,0,0-1.19-.73h-.06c-4.48.21-5.72,3.39-6.71,6-.81,2.07-1.43,3.47-2.94,4.1-3.81-7.13-1.29-14,1.37-21.3,1.89-5.19,3.85-10.55,3.55-16.21a1.3,1.3,0,0,0-.59-1,1.34,1.34,0,0,0-1.18-.16c-5,1.73-7.17,5.9-9.26,9.94-2.47,4.77-4.61,8.9-11.18,8.9a22.8,22.8,0,0,1-4.77-.58l-.29,0a1.33,1.33,0,0,0-.77,2.42c9.83,7,12.49,16.41,15.06,25.54,1.5,5.33,3.78,9.62,4.9,15.22,1,5,2,8.6-1.15,11.24a3.29,3.29,0,0,1-2.2.88c-1.46,0-3.12-.95-4.72-1.87a23.42,23.42,0,0,0-2.85-1.48c-23.4-9.54-40.23-39.74-38.32-68.75,1.62-24.43,20.07-62.69,38.72-80.26a1.32,1.32,0,0,0,.38-1.3,1.36,1.36,0,0,0-1-1,30,30,0,0,0-6.58-1.25c-3.44,0-4.84,2-7.54,7.21-5.18-9.17-4.05-22.17,3.24-36.13a15.42,15.42,0,0,1,1.95-2.57c1.66-1.94,3.55-4.13,3.07-6.5-.29-1.44-1.38-2.6-3.31-3.56a8.34,8.34,0,0,0-3.61-1c-3.57,0-4.12,3.64-4.53,6.29a9.83,9.83,0,0,1-.85,3.33,58.1,58.1,0,0,0-5.07,10.48q-.62,1.54-1.29,3.15C437.34,753.54,439.39,749,441.54,744.27Zm-51-8.87c.88-1.19,3.9-1.44,8.16-1.44,2,0,4.35.06,7.08.12h0a1.24,1.24,0,0,0,.27,0,21.72,21.72,0,0,1,4.48-.52c6.9,0,11.45,4.3,14.75,13.93a106.93,106.93,0,0,0,7,15c2.74,5.16,5.57,10.5,7.35,16.14a42.46,42.46,0,0,1,1.71,16.48c-.26,3.53-1.52,12.06-7.64,14.94a4.42,4.42,0,0,1-1.88.49c-1.88,0-3.21-2.85-4.74-5A15.42,15.42,0,0,0,423,801c-17.13-10.5-32.38-21.8-26.76-45.88.39-1.67-.49-3.33-1.35-4.93a13.91,13.91,0,0,1-1.07-2.32C391.78,741.24,389.46,736.89,390.57,735.4Zm-60.85,51.92c1.1,0,1.35.39,2.68.8a17.79,17.79,0,0,0,5.22,1,8.86,8.86,0,0,0,3.8-.84,1.34,1.34,0,0,0,.77-1.16,1.39,1.39,0,0,0-.68-1.21c-9.86-6.4-9.39-16.26-7.8-26.35.21-1.38.44-2.82.62-4.22.59-4.49,1.8-5.29,6.22-5.29l1.88,0q1,0,2.07,0a19,19,0,0,0,7.06-1.08,1.35,1.35,0,0,0,.83-1.08,1.33,1.33,0,0,0-.56-1.25c-4.17-3-8.68-5.68-13.42-5.68a12.85,12.85,0,0,0-4.3.75c-3.66,1.29-5.64.78-6.46-3.26-.9-4.43,3.64-4.15,6.41-4.12l10.75.1c9.81.07,19.95.15,29.9.49.09,0,.88.09,2.51,2.07,4.87,5.93,11.24,21.78,10.29,27.62a40.18,40.18,0,0,1-1.51,5.67c-.18.57-.36,1.13-.53,1.68h-.11c-1.48,0-2.05-1-2.94-3.17-.71-1.72-1.59-3.87-3.95-3.87a6.49,6.49,0,0,0-3.47,1.33,5,5,0,0,0-2.31,3.09c-.37,2,.84,3.74,1.92,5.32a7,7,0,0,1,1.46,2.9c.15,11.63,6.51,14.66,14.3,16.8,1.28.35,2.6.72,3.93,1.13A52.64,52.64,0,0,1,413.73,807a76.91,76.91,0,0,1,7.82,8.22c1.91,2.31,7,5.28,4.75,8.46-3.7,5.22-4.59,11.13-5.46,16.86a57.67,57.67,0,0,1-2.16,10.18c-5.3-5.33-5.45-6.24-7.31-18a1.33,1.33,0,0,0-1.08-1.11l-.24,0a1.35,1.35,0,0,0-1.16.68c-2.33,4.16-4.91,5-8.06,5a38.13,38.13,0,0,1-4.33-.35,46.6,46.6,0,0,0-5.44-.41c-.33,0-.66,0-1,0a1.33,1.33,0,0,0-.53,2.53c23.75,11.65,25.74,25.46,31.11,46.51,1.5,5.88,6.13,18,8.12,23.87-26.12-7.87-41.57-33.49-51.59-59.78l-1.07-2.81a1.33,1.33,0,0,0-1.25-.86l-.29,0c-4.67,1-4.6,4.14-4.55,6.19,0,.24,0,.47,0,.71,0,1.58,0,3.16,0,4.79v.72c-1.77-.39-3.08-1.52-4.56-2.79-1.87-1.61-4-3.42-7.13-3.42a9.32,9.32,0,0,0-1.56.14,1.34,1.34,0,0,0-1.08,1.59c1.63,7.72,7.52,11.72,13.22,15.59,4.4,3,8.61,5.84,10.69,10.27l-.47-.31c-20.48-10.93-42.74-31-57.48-51.93-2.42-3.44,1.42-33.42,4.5-38C327.5,787.59,328.71,787.32,329.72,787.32ZM253.67,746.8c2.36-9.72,5-12.23,12.61-12.23.76,0,1.61,0,2.5.08,2.8.17,5.77.26,9.1.26,4.38,0,8.83-.15,13.14-.29,4-.13,6.1-.27,10.14-.29h.26c8.07,0,13.39,1.75,15.8,5.19s4.22,8.75,1.58,16c-1.47,4.05.91,6,2.49,7.24.7.58,1.45,1.1,1.51,1.65.85,7.13,2.85,12.67-3.13,17.84a5,5,0,0,1-2.81,1.49c-.92,0-1.67-.86-2.8-2.29a13,13,0,0,0-2.42-2.56,1.37,1.37,0,0,0-.78-.25l-.3,0a1.33,1.33,0,0,0-.88.67c-3.06,5.73-.76,10.22,1.28,14.18l.54,1.06c2.05,4.08,2.46,8.5,1.15,12-.95,2.52-2.18,4.41-6.43,6.12-2.71,1.09-4.3,2.58-4.71,4.42-.7,3.1,2,6,4.22,8.41l.94,1,1,1.1c16.05,18.23,32.64,37.09,53.37,52.13,21.3,15.45,44.15,29.4,66.24,42.89,5.89,3.6,11.95,7.29,18,11-3.34.2-6.67.31-9.93.42-12.31.41-23-1.17-35.17,4.23a3.7,3.7,0,0,1-1.53.3c-6.57,0-20.58-10.27-22.4-18.83a8.93,8.93,0,0,1,.06-2.76c.32-2.81.77-6.65-4.77-9.52a1.38,1.38,0,0,0-.62-.15,1.37,1.37,0,0,0-.7.19,1.34,1.34,0,0,0-.63,1.15c0,4.08-.86,7-2.73,8.85-2.11,2.13-5.52,3.08-11.06,3.08-.74,0-1.49,0-2.26-.05-5.19-.19-9.3-.52-11.14-2.83-1.24-1.57-.49-4.49.33-8.19,2-9-4.76-12.64-10.18-17.54l-.84-.75c-3.05-2.73-5.94-5.31-6.05-8.5-.09-2.29,1.24-4.82,4.06-7.75a1.33,1.33,0,0,0-.91-2.3h0a1.3,1.3,0,0,0-.55.12h0a1.81,1.81,0,0,0-.29.19h-.06l0,0c-4,4.06-7.69,6-11.32,6-3.39,0-6.87-1.65-11.31-5.34-6.79-5.66-4.2-8.89.08-14.24,2.26-2.82,4.81-6,6.11-10a1.3,1.3,0,0,0,.1-.49,1.33,1.33,0,0,0-1.33-1.33H310a1.35,1.35,0,0,0-.69.23h0l0,0h0a1,1,0,0,0-.14.15c-5.13,5.95-9.77,8.84-14.18,8.84-5.28,0-9.9-3.95-15.39-9.12A46.32,46.32,0,0,0,261.65,838c-6.71-2-8.9-5.48-7.3-11.56.92-3.52,2.41-3.52,3.21-3.52a13.72,13.72,0,0,1,3.5.72,16.89,16.89,0,0,0,4.48.85,6.22,6.22,0,0,0,2.32-.42,1.33,1.33,0,0,0,.84-1.4c-.84-6.83-6.29-7.75-10.94-7.78h-.57c-3.29,0-5.67,0-7.26-3.23C244.15,799.92,236.22,796,222.41,796a54,54,0,0,0-6.34.39,2.88,2.88,0,0,1,.28-2.12,1.22,1.22,0,0,1,.89-.61c29.41-2.11,31.1-23.87,35.35-42.22C253,749.87,253.3,748.32,253.67,746.8Zm-93.14,1.69c.45-2.42.87-4.71,1.18-7,.79-5.7,4.91-6.87,10.84-6.87,1.39,0,2.84.07,4.24.13s2.74.13,4,.13h.44l4.44,0c4.72,0,9.52.08,14.17.16s9.47.15,14.21.15c7.86,0,14.28-.22,20.2-.7.82-.06,1.61-.1,2.34-.1,3.65,0,6.13.83,7.39,2.47,1.89,2.46,1.1,6.68.19,10.08-2,7.68-5.66,15.18-9.16,22.43-.78,1.63-1.57,3.25-2.33,4.88s-3.59,6.84-8.18,6.84a5.86,5.86,0,0,1-1-.09c-3.83-.63-3.82-2.45-3.43-6.86.09-1,.18-2,.2-3.08a21.92,21.92,0,0,0-.38-3.84c-.11-.65-.2-1.27-.27-1.88a1.34,1.34,0,0,0-1.26-1.19h-.07a1.34,1.34,0,0,0-1.3,1.06c-.35,1.67-.66,3.27-.95,4.8-2.18,11.28-3.49,18.09-15.52,20.56-2.28.47-4.67,1.23-6.91.71-16-3.75-22.93-9.61-28-14.75C158.21,769,158.58,759.05,160.53,748.49Zm.29,367.16c1.68-3.09,4.54-3.19,7.86-3.29.66,0,1.3,0,1.93-.09,10.87-.79,19.36-6,23.91-12.75,8.53-12.74,19.46-18.67,34.4-18.67,6.63,0,14.19,1.16,23.79,3.66,6.64,1.72,12.85,4.54,19.43,7.53,2.44,1.1,4.95,2.24,7.48,3.32-5.43,7.42-13.52,7.54-22.81,7.68-1.28,0-2.58,0-3.89.07a1.32,1.32,0,0,0-1.16.77,1.31,1.31,0,0,0,.15,1.38c3.51,4.56,7.71,6.77,12.82,6.77a32.41,32.41,0,0,0,8.09-1.32c25.3-6.57,52-14.81,75.63-30.46a63.32,63.32,0,0,1,35-10.56c28.23,0,52.28,17.9,58.48,43.53.17.7.41,1.45.65,2.24.73,2.36,1.63,5.28.6,6.69-.63.85-2.06,1.29-4.25,1.29l-.74,0c-1.25-.05-2.53-.08-3.8-.08-18.13,0-35.16,5.31-51.62,10.43-6.06,1.89-12.33,3.84-18.54,5.49-8.4,2.23-15.45,2.28-21.6,2.28a43.21,43.21,0,0,1-12-2,70.65,70.65,0,0,0-21.76-3.35c-4,0-6.24.35-11.92,1.35a63.7,63.7,0,0,1-11.32,1c-1.77,0-3.83.31-5.41.24-.27,0-.53,0-.78,0-2.18,0-3.58.47-4.39,1.49-1.07,1.35-.67,3.07-.32,4.59.57,2.49.52,3.06-1.27,3.49a79.16,79.16,0,0,1-10.42,1.52,97.12,97.12,0,0,0-15,2.38,1.34,1.34,0,0,0-.34,2.45c5.75,3.34,11.31,5,16.54,5,4.68,0,10.28-.5,14.41-3.17,10.74-6.94,19-11,28.58-11a46.73,46.73,0,0,1,17.61,3.61,30.35,30.35,0,0,0,11.23,1.67c1.58,0,3.17,0,4.84-.09s3.39-.1,5.11-.1h.66c-16.49,24-40.63,34.32-75.76,34.53a97.58,97.58,0,0,0-17.23,2.15c-4.91,1-10,3.11-15,3.11-4.76,0-7.1-2.55-11-4.86-17-10-18-12-12-24.68,2.2-4.61,1.4-9,.4-12.63a1.34,1.34,0,0,0-1.17-1h-.12a1.34,1.34,0,0,0-1.2.75c-4.59,9.5-9,12.54-16.95,12.54-5.94,0-13.85-3.91-23-9C163,1145.63,155.15,1126.06,160.82,1115.65Zm0,47.12a22.12,22.12,0,0,0,.92-4.67c17,4.64,29.73,13.78,43.19,23.44,6.85,4.92,13.91,10,21.64,14.45a40.64,40.64,0,0,1-4.67.28c-6.69,0-12.53-2.6-20.5-6l-4.62-2c-10.45-4.45-19.15-9.74-32.37-13.43C157.91,1173,159.61,1167.35,160.84,1162.77Zm160.67,77.46c-3.24,8.83-9.41,9.51-17.77,9.51h-1.5c-22.52-.17-45.81-.33-69.24-.33-19.93,0-37.65.12-54.19.37H178c-7,0-11.55-1.35-14.28-4.25s-3.71-7.21-3.32-13.84a313.67,313.67,0,0,0-.1-36.11c-.24-4.18.37-7.06,1.8-8.57a4.81,4.81,0,0,1,3.71-1.36,18.38,18.38,0,0,1,6.51,1.55c1.49.59,3,1.11,4.52,1.62,4.56,1.55,8.88,3,12.15,6.3-.2.92-.7,1-2.12,1H186c-1.27,0-4.23,0-5,3.41a1.3,1.3,0,0,0,.32,1.19c.08.09.27.36.41.56.69,1,1.54,2.21,2.81,2.21h.12c1.75-.1,3.56-.15,5.53-.15,4.8,0,9.71.31,14.45.61s10.16,1.56,15.05,1.56a60.59,60.59,0,0,0,29.3-7.26c7-3.55,14.65-4,21.92-4,1.95,0,3.95,0,5.88.07s4,.08,6,.08a72.72,72.72,0,0,0,14.1-1.13c-6.84,5.26-15.28,6.3-24.14,7.39-9.07,1.12-18.46,2.28-26.42,8.22a1.33,1.33,0,0,0,.74,2.4c1.75.07,3.51.14,5.24.1,39.38-.83,61.18-11.24,85.38-35.83,26.51-26.94,58.36-40.2,104.81-40.2,2.64,0,5.37,0,8.12.12,20.89.62,39.68,7.72,57.43,21.7,10.4,8.19,19.88,13.82,30.45,18-13.94,9.66-29.42,11-41.51,11.08-29,.17-53,1.33-75.93,14.44a17.09,17.09,0,0,1-8.43,2.34,16.11,16.11,0,0,1-10.39-3.93c-5.56-4.58-3.56-8.71-1.24-13.5.37-.76.75-1.55,1.1-2.33,2-4.54,3.18-8.41,2.95-13.62a1.36,1.36,0,0,0-.64-1.09,1.4,1.4,0,0,0-.69-.19,1.24,1.24,0,0,0-.56.13c-4.66,2.17-5.92,5.69-7,8.79-.85,2.35-1.59,4.41-3.72,5.75-2.41-.92-3.8-3.2-5.4-5.81-2.42-4-5.15-8.45-12.16-8.91h-.09a1.34,1.34,0,0,0-1.14,2c2.27,3.71,4.29,7.54,6.24,11.23,4.57,8.66,8.89,16.84,16.16,23.66l.32.3c1,.91,2.8,2.6,2.61,3.4,0,.13-.3.84-2.69,1.57s-4.59,1.62-6.8,2.5c-4.84,1.93-7.41,2.75-12.39,2.75a19.72,19.72,0,0,1-3.53-.32c-9.54-1.78-15.85-5.91-31.85-3.91-10.59,1.32-19.42,3.53-27.93,8.11a19.37,19.37,0,0,1-9.51,2.16,71,71,0,0,1-11.89-1.42c-2-.34-4-.7-6-1l-.18,0a1.34,1.34,0,0,0-1.1,2.09c4.72,6.88,10.2,10.23,16.74,10.23,5.14,0,10.13-2,14.95-4a62.22,62.22,0,0,1,7.64-2.72l2.05-.53c8.59-2.2,16.7-4.29,25-4.28a41.9,41.9,0,0,1,15.61,2.89c-4.91,5.56-11.63,5.88-18.72,6.22-4.14.19-9.42-.6-13.34.73l-2.25.73C327.62,1232.41,323.39,1235.09,321.51,1240.23Zm77.53,9.54h-.67c-8.05-.13-16.08-.15-22.87-.15H360.38c-6.12,0-13.26,0-20.53-.12h-.06c-.86,0-1.78.17-2.74.31a29.33,29.33,0,0,1-3.7.35c-2.5,0-3-.78-3-2.24a9,9,0,0,1,2.8-6.41,12.09,12.09,0,0,1,8.11-3.78,6,6,0,0,1,1.28.13,32.8,32.8,0,0,0,6.35.64c8.43,0,12.95-2.65,19.79-6,2.85-1.39,5.35-3.61,8.33-4.75,13-5,26.27-10.15,40.28-15.61l15.8-6.16c-1.66,2.41-3.29,4.72-4.89,7-7.48,10.59-13.94,19.74-17.6,30.43C409,1247.93,405.68,1249.77,399,1249.77Zm462-.46-2.1.11c-5.74.31-10.26.55-14.71.55h-.07c-134.47-.08-270.9-.21-410.48-.36-7.81,0-13,0-13.85-1.41s2.3-5.81,5.25-12l.48-1c12-25.32,33.9-38.4,66.94-38.89,24.86-.37,47.61-5.45,71.24-15.94l-5.87,9.71a1.34,1.34,0,0,0,.29,1.72,1.31,1.31,0,0,0,.85.31,1.36,1.36,0,0,0,.9-.35c32-29,69.35-42,121.18-42,21.23,0,42.43,2.08,64.08,4.39,21.8,2.32,37.68,18,53,33.25,1.48,1.46,2.94,2.91,4.4,4.34l5.13,5c16.42,16.11,33.34,32.71,54.37,49.16A3.39,3.39,0,0,1,861.05,1249.31Zm212-4.15c-3,3.12-7.83,4.64-14.64,4.64h-.93c-43.33-1.35-87.34-1.36-130.66,0h-.93c-6.81,0-11.6-1.52-14.64-4.64s-4.23-7.42-4.07-13.59c.81-31.18,5.5-57.25,14.32-79.7,7.19-18.32,20.15-34.1,37.5-43.62a82.57,82.57,0,0,1,17-7c5.76-1.66,11.86-3.5,17.93-2.9a85.44,85.44,0,0,1,40.8,16,85.92,85.92,0,0,1,28,37.52c8.82,22.45,13.51,48.52,14.32,79.7C1077.26,1237.74,1075.93,1242.18,1073,1245.16Zm37.28-34.75c-2.54-27.37-13.26-51.25-23.4-71-11.24-21.89-12-45.71-2-67.08,11-23.62,26.07-35.11,46-35.11a56.82,56.82,0,0,1,6.91.43h.16a1.34,1.34,0,0,0,1.22-1.88c-2-4.61-5.33-5.21-8-5.21-.78,0-1.55.06-2.3.11s-1.39.1-2,.1a4.67,4.67,0,0,1-3-.79c.27-2.4,1.79-4.06,3.53-6a29,29,0,0,0,2.39-2.86c.23-.34.47-.68.71-1,2.36-3.32,5-7.09,4.07-13.18a1.33,1.33,0,0,0-1-1.08,1.37,1.37,0,0,0-1.39.46l-2.7,3.42c-1.79,2.26-3.33,4.21-4.92,6.16-.84,1-1.65,2.08-2.44,3.11a45.23,45.23,0,0,1-6.23,7.09,56.67,56.67,0,0,0-4.5,4.53c-3.43,3.71-7,5.55-10.91,5.55a6.91,6.91,0,0,1-2.93-.68c-4.84-2.22-4.43-5.41-3.26-13.07.31-2,.61-3.94.7-5.74v-.27c1-18.38,1-19.48-17.89-33.92a1.5,1.5,0,0,0-.82-.28,1.33,1.33,0,0,0-1.33,1.34,1.35,1.35,0,0,0,.34.89c8.61,10.63,8,22,7.31,33-.51,8.76-1,17.82,3.2,26.23.42.82-1.53,4.75-5.07,8.48a58.55,58.55,0,0,0-7.64,10.87c-.83,1.39-1.68,2.82-2.57,4.21a15.21,15.21,0,0,0-1.45,3.54c-.92,2.93-1.51,4.22-3.32,4.22a4.93,4.93,0,0,1-.82-.08c-2.12-.36-3-2.32-4.21-5.49a28.11,28.11,0,0,0-1.4-3.28c-2.7-5-4.45-12.12-1.94-15.89,4-6.07,3-11.76,2.07-17.27-.77-4.39-1.5-8.54.2-12.91a1.33,1.33,0,0,0-.35-1.47,1.31,1.31,0,0,0-.9-.34,1.25,1.25,0,0,0-.59.14c-6.91,3.45-6.65,10.07-6.43,15.91.27,7.21.06,11.33-7.54,12.2a1.31,1.31,0,0,0-1,.58,1.33,1.33,0,0,0-.18,1.1c1.13,4.13,2.11,8.32,3.14,12.75,3.14,13.43,6.38,27.31,14.1,39.84.55.88.86,2-.94,3.48a2.89,2.89,0,0,1-1.82.77,2.56,2.56,0,0,1-1.83-.9c-7.73-8-18-11.74-27.91-15.32-4-1.44-8.1-2.92-12-4.68,18.87-23.72,25.69-50.83,20.85-82.84-2.46-16.25-1-32.44,4.56-49.51a1.35,1.35,0,0,0-.51-1.51,1.38,1.38,0,0,0-.76-.23,1.35,1.35,0,0,0-.83.29c-10.72,8.55-13.56,19.22-14.19,29.14-.51,8,1.38,15.25,2,23,.82,10.3.89,21.25-1,31.7a68.42,68.42,0,0,1-12.94,29.3c-5.83,7.55-15.17,15.7-25.43,12.43-9.27-3-16.13-12-20.71-20.1a69.33,69.33,0,0,1-7.88-21.63c-1.89-10.45-1.82-21.4-1-31.7.62-7.75,2.51-15,2-23-.63-9.92-3.47-20.59-14.19-29.14a1.35,1.35,0,0,0-.83-.29,1.38,1.38,0,0,0-.76.23,1.35,1.35,0,0,0-.51,1.51c5.53,17.07,7,33.26,4.56,49.51-4.84,32,2,59.12,20.85,82.84-3.93,1.76-8,3.24-12,4.68-9.92,3.58-20.18,7.28-27.91,15.32a2.56,2.56,0,0,1-1.83.9,2.89,2.89,0,0,1-1.82-.77c-1.8-1.5-1.49-2.6-.94-3.48,7.72-12.53,11-26.41,14.1-39.84,1-4.43,2-8.62,3.14-12.75a1.33,1.33,0,0,0-.18-1.1,1.31,1.31,0,0,0-.95-.58c-7.6-.87-7.81-5-7.54-12.2.22-5.84.48-12.46-6.43-15.91a1.25,1.25,0,0,0-.59-.14,1.31,1.31,0,0,0-.9.34,1.33,1.33,0,0,0-.35,1.47c1.7,4.37,1,8.52.2,12.91-1,5.51-2,11.2,2.07,17.27,2.51,3.77.76,10.88-1.94,15.89a28.11,28.11,0,0,0-1.4,3.28c-1.2,3.17-2.09,5.13-4.21,5.49a4.93,4.93,0,0,1-.82.08c-1.81,0-2.4-1.29-3.32-4.22a15.21,15.21,0,0,0-1.45-3.54c-.89-1.39-1.74-2.82-2.57-4.21a58.55,58.55,0,0,0-7.64-10.87c-3.54-3.73-5.49-7.66-5.07-8.48,4.23-8.41,3.71-17.47,3.2-26.23-.64-11-1.3-22.38,7.31-33a1.33,1.33,0,0,0-1.09-2.22,1.37,1.37,0,0,0-.72.27c-18.92,14.44-18.86,15.54-17.89,33.92v.27c.09,1.8.39,3.71.7,5.74,1.17,7.66,1.58,10.85-3.26,13.07a6.91,6.91,0,0,1-2.93.68c-3.93,0-7.48-1.84-10.91-5.55a56.67,56.67,0,0,0-4.5-4.53,45.23,45.23,0,0,1-6.23-7.09c-.79-1-1.6-2.09-2.44-3.11-1.59-2-3.13-3.9-4.92-6.16l-2.7-3.42a1.37,1.37,0,0,0-1.39-.46,1.33,1.33,0,0,0-1,1.08c-1,6.09,1.71,9.86,4.07,13.18.24.33.48.67.71,1a29,29,0,0,0,2.39,2.86c1.74,1.89,3.26,3.55,3.53,6a4.67,4.67,0,0,1-3,.79c-.64,0-1.32,0-2-.1s-1.52-.11-2.3-.11c-2.63,0-5.92.6-8,5.21a1.34,1.34,0,0,0,1.22,1.88h.16a56.82,56.82,0,0,1,6.91-.43c19.93,0,35,11.49,46,35.11,10,21.37,9.26,45.19-2,67.08-10.14,19.75-20.86,43.63-23.4,71-.6,6.53-3.09,6.53-3.91,6.53-1.95,0-4.77-1.49-7.94-4.21-9.64-8.24-19.09-17-28.23-25.51-4.42-4.1-9-8.35-13.54-12.49l-1.63-1.49c-4.66-4.25-9.47-8.65-14.59-12.56-10.17-7.8-12.74-21.06-6-30.86,2.35-3.4,4.59-6.21,8.24-6.21a12.3,12.3,0,0,1,5.16,1.39c9.89,4.74,20.75,6.87,31.24,8.92,8.44,1.65,17.16,3.35,25.27,6.41l.58.25a9,9,0,0,0,3.28,1,2.22,2.22,0,0,0,2-1c.6-.92.49-2.22-.38-4.21-.67-1.56-.86-2.73-.53-3.38.42-.82,1.95-1.18,3.44-1.52,1.83-.42,3.91-.89,4.91-2.55a4.69,4.69,0,0,0,.31-3.72,1.34,1.34,0,0,0-1.28-1h-.47c-4.94,0-10.11.44-15.1.87-5.16.44-10.83-.54-16.11-.54-9.52,0-11.25-1.61-20-3-1-.17-5.73-1.17-6.71-1.49-2.65-.85-4.3-1.47-4.7-3.34-.64-3,1.39-4.3,4.76-6.21.59-.33,1.2-.68,1.77-1,4.22-2.63,9.2-3.37,14.47-4.14,7.58-1.12,15.41-2.28,21.11-9.42a20.49,20.49,0,0,1,2.41-2.44c2.39-2.18,5.1-4.64,4.69-9.37a1.31,1.31,0,0,0-.68-1,1.28,1.28,0,0,0-.65-.18,1.38,1.38,0,0,0-.59.14c-3.24,1.58-6.4,3.37-9.45,5.09-8.59,4.87-16.7,9.46-26.77,9.9a31.69,31.69,0,0,0-9.09,2.28l-1.69.6c-2.94,1-5.32,3.31-7.63,5.53-2.59,2.49-5,4.85-7.75,4.85a6,6,0,0,1-2.9-.84c-2.67-1.47-2.49-4.75-1.89-10,.35-3,.71-6.1.09-8.88l-.52-2.32c-5.92-26.48-12-53.86-28-77.62-2.52-3.75-2.57-6.86-.18-11.08,11.88-21,24.32-41,45.75-54.6,4.69-3,10.11-6.16,15-6.16a9.74,9.74,0,0,1,7.17,3.07c5.77,5.77,11.95,8.46,19.48,8.46,4.8,0,9.5-1,14.47-2.16s10.05-2.25,15.24-2.25c.74,0,1.48,0,2.2.07h.09a1.33,1.33,0,0,0,.83-2.37c-6.68-5.35-14.08-6-21.24-6.59-5.84-.5-11.85-1-17.82-4,7.83.39,15.34.71,22.74.71,24.27,0,49.48-3,69.43-24.63A310.18,310.18,0,0,0,985,851.6a1.33,1.33,0,0,0-1.13-2.05,1.42,1.42,0,0,0-.82.28l-.08.07-.1.1-7.07,7.86C958.59,877.1,940.76,897,919.54,913a13.45,13.45,0,0,1-4.27,1.66l-1.43.41c.9-3.84,1.89-7.65,2.85-11.36,4-15.55,9.86-30.24,7-46.12-.09-.48.31-1.58,1.69-3.23,5.15-6.16,16.48-14,21.76-14a2.44,2.44,0,0,1,1.31.27,14.68,14.68,0,0,0,8.15,2.89c3.85,0,6.81-2.11,9.67-4.16s5.56-4,9.17-4.1a1.35,1.35,0,0,0,1.25-1,1.34,1.34,0,0,0-.66-1.48c-1.16-.63-2-1.15-2.61-1.54a4.51,4.51,0,0,0-2.34-1,2,2,0,0,0-.42,0c-7.56,1.72-13,3-16.36,3-2.21,0-2.9-.55-3.22-1-1.57-2,0-8.42,2.64-19a53.28,53.28,0,0,1,7.93-17.14c1.42-2.12,2.91-4.26,4.34-6.32,7.35-10.56,14.94-21.47,17.3-35,.84-4.84,3.62-8.28,8.74-8.58,5.52-.32,8,3.73,8.88,8.58,2.36,13.48,9.95,24.39,17.3,35,1.43,2.06,2.92,4.2,4.34,6.32a53.28,53.28,0,0,1,7.93,17.14c2.63,10.63,4.21,17,2.64,19-.32.41-1,1-3.22,1-3.34,0-8.8-1.23-16.36-3a2,2,0,0,0-.42,0,4.51,4.51,0,0,0-2.34,1c-.61.39-1.45.91-2.61,1.54a1.34,1.34,0,0,0-.66,1.48,1.35,1.35,0,0,0,1.25,1c3.61.14,6.31,2.06,9.17,4.1s5.82,4.16,9.67,4.16a14.68,14.68,0,0,0,8.15-2.89,2.44,2.44,0,0,1,1.31-.27c5.28,0,16.61,7.85,21.76,14,1.38,1.65,1.78,2.75,1.69,3.23-2.83,15.88,3,30.57,7,46.12,1,3.71,2,7.52,2.85,11.36l-1.43-.41a13.45,13.45,0,0,1-4.27-1.66c-21.22-16-39-35.92-56.3-55.16l-7.07-7.86-.13-.13-.14-.1a1.32,1.32,0,0,0-.74-.22,1.34,1.34,0,0,0-1.33,1.33,1.35,1.35,0,0,0,.21.72,310.18,310.18,0,0,0,42.89,58.48c20,21.64,45.16,24.63,69.43,24.63,7.4,0,14.91-.32,22.74-.71-6,3-12,3.51-17.82,4-7.16.61-14.56,1.24-21.24,6.59a1.33,1.33,0,0,0,.83,2.37h.09c.72-.05,1.46-.07,2.2-.07,5.19,0,10.3,1.14,15.24,2.25s9.67,2.16,14.47,2.16c7.53,0,13.71-2.69,19.48-8.46a9.74,9.74,0,0,1,7.17-3.07c4.94,0,10.36,3.18,15,6.16,21.43,13.59,33.87,33.58,45.75,54.6,2.39,4.22,2.34,7.33-.18,11.08-15.94,23.76-22.07,51.14-28,77.62l-.52,2.32c-.62,2.78-.26,5.88.09,8.88.6,5.23.78,8.51-1.89,10a6,6,0,0,1-2.9.84c-2.71,0-5.16-2.36-7.75-4.85-2.31-2.22-4.69-4.52-7.63-5.53l-1.69-.6A31.69,31.69,0,0,0,1156,1098c-10.07-.44-18.18-5-26.77-9.9-3-1.72-6.21-3.51-9.45-5.09a1.38,1.38,0,0,0-.59-.14,1.28,1.28,0,0,0-.65.18,1.31,1.31,0,0,0-.68,1c-.41,4.73,2.3,7.19,4.69,9.37a20.49,20.49,0,0,1,2.41,2.44c5.7,7.14,13.53,8.3,21.11,9.42,5.27.77,10.25,1.51,14.47,4.14.57.36,1.18.71,1.77,1,3.37,1.91,5.4,3.22,4.76,6.21-.4,1.87-2,2.49-4.7,3.34-1,.32-5.66,1.32-6.71,1.49-8.75,1.39-10.48,3-20,3-5.28,0-10.95,1-16.11.54-5-.43-10.16-.87-15.1-.87h-.47a1.34,1.34,0,0,0-1.28,1,4.69,4.69,0,0,0,.31,3.72c1,1.66,3.08,2.13,4.91,2.55,1.49.34,3,.7,3.44,1.52.33.65.14,1.82-.53,3.38-.87,2-1,3.29-.38,4.21a2.22,2.22,0,0,0,1.95,1,9,9,0,0,0,3.28-1l.58-.25c8.11-3.06,16.83-4.76,25.27-6.41,10.49-2.05,21.35-4.18,31.24-8.92a12.3,12.3,0,0,1,5.16-1.39c3.65,0,5.89,2.81,8.24,6.21,6.77,9.8,4.2,23.06-6,30.86-5.12,3.91-9.93,8.31-14.59,12.56l-1.63,1.49c-4.54,4.14-9.12,8.39-13.54,12.49-9.14,8.49-18.59,17.27-28.23,25.51-3.17,2.72-6,4.21-7.94,4.21C1113.4,1216.94,1110.91,1216.94,1110.31,1210.41Zm454.11,37.79c-.88,1.4-6,1.41-13.85,1.41-139.58.15-276,.28-410.48.36H1140c-4.45,0-9-.24-14.71-.55l-2.1-.11a3.39,3.39,0,0,1-1.06-3.41c21-16.45,37.95-33.05,54.37-49.16l5.13-5c1.46-1.43,2.92-2.88,4.4-4.34,15.35-15.2,31.23-30.93,53-33.25s42.85-4.39,64.08-4.39c51.83,0,89.2,13,121.18,42a1.36,1.36,0,0,0,.9.35,1.31,1.31,0,0,0,.85-.31,1.34,1.34,0,0,0,.29-1.72l-5.87-9.71c23.63,10.49,46.38,15.57,71.24,15.94,33,.49,54.9,13.57,66.94,38.89l.48,1C1562.12,1242.39,1565.26,1246.87,1564.42,1248.2Zm86.49,2a29.33,29.33,0,0,1-3.7-.35c-1-.14-1.88-.26-2.74-.31h-.06c-7.27.1-14.41.12-20.53.12h-15.12c-6.79,0-14.82,0-22.87.15h-.67c-6.64,0-10-1.84-11.53-6.35-3.66-10.69-10.12-19.84-17.6-30.43-1.6-2.25-3.23-4.56-4.89-7l15.8,6.16c14,5.46,27.23,10.61,40.28,15.61,3,1.14,5.48,3.36,8.33,4.75,6.84,3.32,11.36,6,19.79,6a32.8,32.8,0,0,0,6.35-.64,6,6,0,0,1,1.28-.13,12.09,12.09,0,0,1,8.11,3.78,9,9,0,0,1,2.8,6.41C1653.9,1249.39,1653.41,1250.17,1650.91,1250.17ZM1824,1195.59a313.67,313.67,0,0,0-.1,36.11c.39,6.63-.66,11-3.32,13.84s-7.27,4.25-14.28,4.25h-.85c-16.54-.25-34.26-.37-54.19-.37-23.43,0-46.72.16-69.24.33h-1.5c-8.36,0-14.53-.68-17.77-9.51-1.88-5.14-6.11-7.82-11.17-9.44l-2.25-.73c-3.92-1.33-9.2-.54-13.34-.73-7.09-.34-13.81-.66-18.72-6.22a41.9,41.9,0,0,1,15.61-2.89c8.3,0,16.41,2.08,25,4.28l2,.53a62.22,62.22,0,0,1,7.64,2.72c4.82,2,9.81,4,15,4,6.54,0,12-3.35,16.74-10.23a1.34,1.34,0,0,0-1.1-2.09l-.18,0c-2,.28-4.08.64-6,1a71,71,0,0,1-11.89,1.42,19.37,19.37,0,0,1-9.51-2.16c-8.51-4.58-17.34-6.79-27.93-8.11-16-2-22.31,2.13-31.85,3.91a19.72,19.72,0,0,1-3.53.32c-5,0-7.55-.82-12.39-2.75-2.21-.88-4.49-1.79-6.8-2.5s-2.66-1.44-2.69-1.57c-.19-.8,1.63-2.49,2.61-3.4l.32-.3c7.27-6.82,11.59-15,16.16-23.66,2-3.69,4-7.52,6.24-11.23a1.34,1.34,0,0,0-1.14-2h-.09c-7,.46-9.74,5-12.16,8.91-1.6,2.61-3,4.89-5.4,5.81-2.13-1.34-2.87-3.4-3.72-5.75-1.11-3.1-2.37-6.62-7-8.79a1.24,1.24,0,0,0-.56-.13,1.4,1.4,0,0,0-.69.19,1.36,1.36,0,0,0-.64,1.09c-.23,5.21,1,9.08,3,13.62.35.78.73,1.57,1.1,2.33,2.32,4.79,4.32,8.92-1.24,13.5a16.11,16.11,0,0,1-10.39,3.93,17.09,17.09,0,0,1-8.43-2.34c-22.92-13.11-46.93-14.27-75.93-14.44-12.09-.06-27.57-1.42-41.51-11.08,10.57-4.2,20-9.83,30.45-18,17.75-14,36.54-21.08,57.43-21.7,2.75-.08,5.48-.12,8.12-.12,46.45,0,78.3,13.26,104.81,40.2,24.2,24.59,46,35,85.38,35.83,1.73,0,3.49,0,5.24-.1a1.33,1.33,0,0,0,.74-2.4c-8-5.94-17.35-7.1-26.42-8.22-8.86-1.09-17.3-2.13-24.14-7.39a72.72,72.72,0,0,0,14.1,1.13c2,0,4,0,6-.08s3.93-.07,5.88-.07c7.27,0,15,.49,21.92,4a60.59,60.59,0,0,0,29.3,7.26c4.89,0,10.25-1.26,15.05-1.56s9.65-.61,14.45-.61c2,0,3.78.05,5.53.15h.12c1.27,0,2.12-1.22,2.81-2.21.14-.2.33-.47.41-.56a1.3,1.3,0,0,0,.32-1.19c-.76-3.41-3.72-3.41-5-3.41h-.88c-1.42,0-1.92-.11-2.12-1,3.27-3.28,7.59-4.75,12.15-6.3,1.49-.51,3-1,4.52-1.62a18.38,18.38,0,0,1,6.51-1.55,4.81,4.81,0,0,1,3.71,1.36C1823.63,1188.53,1824.24,1191.41,1824,1195.59Zm-4.17-20.74c-13.22,3.69-21.92,9-32.37,13.43l-4.62,2c-8,3.41-13.81,6-20.5,6a40.64,40.64,0,0,1-4.67-.28c7.73-4.47,14.79-9.53,21.64-14.45,13.46-9.66,26.2-18.8,43.19-23.44a22.12,22.12,0,0,0,.92,4.67C1824.65,1167.35,1826.35,1173,1819.83,1174.85Zm-9.22-23.31c-9.15,5.09-17.06,9-23,9-7.9,0-12.36-3-16.95-12.54a1.34,1.34,0,0,0-1.2-.75h-.12a1.34,1.34,0,0,0-1.17,1c-1,3.64-1.8,8,.4,12.63,6,12.68,5,14.68-12,24.68-3.92,2.31-6.26,4.86-11,4.86-5,0-10.11-2.07-15-3.11a97.58,97.58,0,0,0-17.23-2.15c-35.13-.21-59.27-10.51-75.76-34.53h.66c1.72,0,3.44.05,5.11.1s3.26.09,4.84.09a30.35,30.35,0,0,0,11.23-1.67,46.73,46.73,0,0,1,17.61-3.61c9.54,0,17.84,4.08,28.58,11,4.13,2.67,9.73,3.17,14.41,3.17,5.23,0,10.79-1.69,16.54-5a1.34,1.34,0,0,0-.34-2.45,97.12,97.12,0,0,0-15-2.38,79.16,79.16,0,0,1-10.42-1.52c-1.79-.43-1.84-1-1.27-3.49.35-1.52.75-3.24-.32-4.59-.81-1-2.21-1.49-4.39-1.49-.25,0-.51,0-.78,0-1.58.07-3.64-.24-5.41-.24a63.7,63.7,0,0,1-11.32-1c-5.68-1-7.93-1.35-11.92-1.35a70.65,70.65,0,0,0-21.76,3.35,43.21,43.21,0,0,1-12,2c-6.15,0-13.2,0-21.6-2.28-6.21-1.65-12.48-3.6-18.54-5.49-16.46-5.12-33.49-10.43-51.62-10.43-1.27,0-2.55,0-3.8.08l-.74,0c-2.19,0-3.62-.44-4.25-1.29-1-1.41-.13-4.33.6-6.69.24-.79.48-1.54.65-2.24,6.2-25.63,30.25-43.53,58.48-43.53a63.32,63.32,0,0,1,35,10.56c23.65,15.65,50.33,23.89,75.63,30.46a32.41,32.41,0,0,0,8.09,1.32c5.11,0,9.31-2.21,12.82-6.77a1.31,1.31,0,0,0,.15-1.38,1.32,1.32,0,0,0-1.16-.77c-1.31,0-2.61-.06-3.89-.07-9.29-.14-17.38-.26-22.81-7.68,2.53-1.08,5-2.22,7.48-3.32,6.58-3,12.79-5.81,19.43-7.53,9.6-2.5,17.16-3.66,23.79-3.66,14.94,0,25.87,5.93,34.4,18.67,4.55,6.78,13,12,23.91,12.75.63,0,1.27.06,1.93.09,3.32.1,6.18.2,7.86,3.29C1829.11,1126.06,1821.23,1145.63,1810.61,1151.54Z" transform="translate(-128.13 -704.13)"/></svg>