<svg id="Layer_1" data-name="Layer 1" xmlns="http://www.w3.org/2000/svg" viewBox="0 0 864 1296"><path d="M1320.66,1602.92c-32.51,11.75-59,2.68-78.51-22.76-27.15-35.39-31.2-75.36-18.4-117.68,7.07-23.39,6.71-47.22,4.82-71.25-3.93-50.19-16.82-97.6-37.32-143.47-15.39-34.43-36-66.12-48.58-102a431.4,431.4,0,0,1-22.24-101c-3.52-35.81-5.27-71.88-10.37-107.44-4.29-29.92-12.29-59.28-19.14-91.19-6.79,17.74-12.64,33.55-18.86,49.21-13.75,34.58-33.41,65.62-54.65,95.72C992,1027.21,967.47,1064,941,1099.31c-21.84,29.09-41.67,60.58-72.38,81.29-13.6,9.17-27.87,18-44.68,19.62-16.09,1.54-31.09-3.78-45.89-9.47-1.82-.7-3.32-2.58-2.8-4.47.77-2.77,3.84-3.31,6.06-4.08a139,139,0,0,0,37.76-19.49c14.79-11,26.91-24.38,30.12-43.14,2.09-12.25.78-25.12.77-37.71,0-4.1-3.17-5.27-6.51-5.74-12.05-1.73-23.12-6.18-33.64-12.35-1.74-1-3.47-3.21-4.73-2.81-2.53,1.65-2.58,5.34-2.16,7.57,2.69,14.22,1.09,28.55,1.51,42.82a27.8,27.8,0,0,1-4.62,16.14c.49-19.8-8.07-38.29-6.78-58.1.42-6.51-1.78-10.56-9.73-11-22.92-1.21-39.57-15.5-55.59-30.4-10.63-9.89-19.27-21.68-28.13-33.22,12.6,50,36.68,87.54,86.44,104-17.77-1.86-34.77-6.74-49-18.13-23.19-18.63-34.6-44.22-47.51-70.06-5.39-10.8-12-22.45-15.46-36-3.82,11.17,6.57,44.46,15.29,65.31,7,16.68,9.88,26.43,41.38,51.54-19.82-6.85-35.82-18.74-45.87-38.13-7.42-14.3-10.89-30.07-15.12-45.53-7.89-28.88-16.24-57.27-34-82.15-14.84-20.84-21.32-46-28.79-70.34-8-26.23-12-53.06-13.85-80.57-2.72-40.08-.32-79.86,3.75-119.54,3.24-31.57,16.18-60.75,30.19-88.84C639.39,541.73,655,514.74,680.54,502c16.5-8.22,29.36-19.26,38.46-36.53a341.25,341.25,0,0,1,69.06-90.28c27.18-25.5,57.18-45.39,93-55.29,51.55-14.28,101-9.8,147.51,18.32,8.9,5.39,17.1,12.18,25.06,19,27,23.1,28.23,31.49,68.5,34.65-4.09,6.68-11.22,4.81-16.93,7.56,4.75,6.21,11.57,9.35,17.88,12.39,36.76,17.75,61.55,47.06,79,83.92,17.69,37.38,45.11,65.45,82.81,79.7,34.2,12.94,52.8,36.46,59.29,72,1.85,10.12,3.34,20.32,5.09,30.47.45,2.6,1.4,5.16-2.1,6.91A235.19,235.19,0,0,1,1333,645.46c-4.77-17.44-11.91-32.62-30.9-38.09-9.58-2.76-17.12-10.6-28.1-13.09,4.39,18.21,15.19,31.75,25,45.68,17.19,24.46,37.11,46.71,57.66,68.07,27.33,28.39,44,61.57,50.49,100.63a267.08,267.08,0,0,1,3.88,35.6c1,31.46,2.25,62.91,3.38,94.37.1,2.8,0,5.61,0,8.1-3.59,1.06-3.15-1.2-3.48-2.47-5.55-21.42-12.44-42.41-9.61-65.41,1.72-13.91-2.44-27.36-11.53-40.53-3.38,8.77-2,16.59-1.58,23.91,3.78,74.59,16.6,147.39,39.36,218.52,9.78,30.57,13.77,62.76,17.42,94.81,3.81,33.45,8.06,66.86,10.29,100.49.11,1.74,2,4-.79,4.71-3.57.91-2.66-2.37-3.31-4.34-4.46-13.59-3.19-27.94-5.48-41.81-.37-2.23,1-6.15-2.89-5.92-2.72.15-3.24,3.4-4,6-5.76,20.07-6.94,39.89,1.16,59.76,16.75,41,7.11,80.25-10.69,117.51-9,18.83-27.74,29.41-45.1,40.15-11.27,7-22.61,13.72-31.59,24.16-14.75,17.15-20.46,38-25.34,59.45-.71,3.14-1.42,6.3-1.84,9.49-2.49,18.78,5.7,30.52,23.75,34.2-8.35,15.1-31.7,15.45-42.45-5.91a51.87,51.87,0,0,1-5.73-22.39c-.1-4.87,0-9.76-.4-14.61-.21-2.69.33-6.5-3.55-6.93-3.26-.35-3.76,3-4.56,5.34-8,23.74-4.19,56.83,27.17,66.56C1319.87,1601.52,1320,1602,1320.66,1602.92ZM736.39,956.24c1.69-3.18-.33-5.35-1.85-7.87-4.34-7.18-8.28-14.61-12.64-21.78-9-14.86-12.8-31.54-17.08-48.07-.51-2-.74-5.27-3.65-4.5s-1.18,3.5-1,5.69c1.22,13,5.92,25,10.06,37.27,1.78,5.26,6.47,9.91,5.12,18.15-5.1-5.87-7.94-11.92-15.37-15.21,2.62,16.09,8.85,29.26,16.3,42,12.49,21.4,35.37,35,44.56,59.1-6.64-24.41-22.3-44-36.65-65.29,6-.27,6,4.77,9.23,5.55,7.08,8.81,15.23,16.74,21.09,26.64C749,977,747.12,964,736.39,956.24ZM802.06,733.1c13.49-20,30.07-33.31,49.18-43.19,23.19-12,49.6-18.9,72.89-.86A19,19,0,0,0,949,687.87c4-3.69,5.29-7.13,2.52-12.73-7-14.08-16.66-26.17-26.14-38.45s-19.62-24.1-34.06-30.75C861.15,592,828.73,590.43,796.24,590c-5.56-.07-11.09,3.09-17.41.77,2.28-6.4,8.93-11.09,6.41-18.84a47.51,47.51,0,0,1-9.66,9.55c-9.37,7.35-18.18,15.15-24.58,25.72-3.32,5.48-.07,16.28-6.74,16a89,89,0,0,1-19.63-3.44,36.42,36.42,0,0,0-6.72-.81c-4.9-.48-6.55,1.86-7.44,6.65-3.53,19.06-1.16,37.32,5.66,55.28,1.67,4.39,3.81,9,1.77,14-15.06-6.4-15.06-6.4-15.07,11.07,0,1.3,0,2.6,0,3.9-.24,9.37,3.12,16,12.67,19.34,9.39,3.27,18.53,7.33,27.6,11.43,17.62,8,25.94,21.49,25.28,37.34-1.26,30.45-7.36,60.3-10.4,90.49-2.29,22.72,9.41,29.9,28.32,25.92,6.4-1.35,12-7.44,17.45-12a13.32,13.32,0,0,1,9.67-3.39c3.25.12,6.36,1.15,7,4.11.68,3.14-2.16,4.77-5.16,5.6-5.56,1.55-11.15,3-16.58,5-3.83,1.38-8.68,2.58-7.91,8.24,1.41,10.37-3.63,17.92-9.84,25.33-3.11,3.7-5.26,8.1-4.37,13.46.48,2.9,1,4.86,4.55,4.78,10.72-.22,21.86,1.56,32.08-.77,14-3.2,27.25-4.62,40.93.37,5.4,2,6.54-1,6.12-6.81-.26-3.77-.72-6.12-2.58-9.14-2.24-3.65-2.2-3.68-.32-8.92,5.21,3.86,8.2,9.92,7.86,15.25-.63,10,2,14,12.47,13-10.73,6.43-22,8-33.52,8.39-17.83.67-34,7-50.08,13.88-5.36,2.29-6.5,5.82-1.87,10.36,8.29,8.12,17,14.36,29.7,13.6,14.38-.86,28.85-.2,43.59-.2-.93,4-3.56,4.46-5.79,5.71-9.3,5.2-18.73,10.25-27.56,16.19-9.93,6.68-11.49,16.27-3.8,23.8,17.57,17.19,38.89,22.38,62.58,17,24-5.49,43.6-19.74,62.2-34.77,25.41-20.53,51.37-40.36,73-65.42,13.84-16,23.19-34,31.31-52.94,4-9.33,1.75-11.37-8.78-11.75-21.3-.77-39.82-7.09-52.51-25.73-6.76-9.92-10.86-20.39-10.27-32.37,10.3,30.29,36.61,46.77,52,32-33.07-3-50.39-27.37-40.17-62.24,0,7.25.81,13.35,1,19.19,1.79,16.08,12.4,29.08,26.3,32.55,13.34,3.34,31.52-2.4,38.69-14.34,6.49-10.82,6.56-25.65-6-39.05s-26.64-24.49-40.86-35.7c-9-7.06-17.16-14.91-22.57-25.09-2.37-4.45-4.44-9.82,4.61-8.89,2.18.23,4.45-1.1,4.77-2.7.59-2.93-2.65-3.16-4.53-4a126.81,126.81,0,0,1-25-14.74c-10.7-8.37-20.57-7.16-29,4.2-14.26,19.26-28.26,38.77-46.55,54.53-7.26,6.26-15.2,11.84-25.7,10.57,9.14-4.76,19.21-7.89,26.28-15.9,2.37-2.69,8.14-6.11,5.4-8.64-3.21-2.95-8.95-.72-12.09,3.8a13.52,13.52,0,0,1-2.57,2.91c-9.47,7.55-24.17,2.89-26.51-8.88-1.39-7-3.27-4.88-7.32-2.13-7.34,5-12.36,12.21-18.76,18.07-3.86,3.52-1.13,5.82,2.18,6.9,5,1.63,10.17,2.61,15.27,3.87-7.38,1.36-14.32,1.13-20.72-3-2.41-1.56-3.78-3.16-4-6.1-1.66-25,18.16-46.1,43.35-46.6,9.7-.19,19.45,1.13,29.11-1,15-3.36,25.94-13.6,40.46-22.17-11.81-3.51-18-.68-31.24-11.19-8.28-6.55-18.66-6.42-28.75-2.54-13.14,5-24.4,13-35.29,21.68C834.59,719.9,820.07,727.61,802.06,733.1Zm431.21-142.43c-.2,12.72,1.94,24.83,7.44,36.48,15.73,33.28,41.12,59.58,63,88.43,18,23.72,39.81,44.52,54,71.12,4.62,8.67,9.08,17.43,13.61,26.15a12.6,12.6,0,0,0,.68-9.59c-4.52-14.22-10.9-27.66-17.63-40.94-15.29-30.19-39.31-53.75-60.49-79.45-15.38-18.67-31.33-36.83-44.7-57.15C1241.94,614.77,1238.78,602.47,1233.27,590.67ZM726.71,796.34c-1,14.78-.79,15,12.95,16.63,1.27.15,3.17,0,3,1.52a8.2,8.2,0,0,1-2.37,5c-8.37,7-16.33,14.68-26.89,18.36-5.15,1.8-7.37,5-6.49,10.25,3.65,21.6,15.79,38.86,28.07,56.12a5.25,5.25,0,0,0,2.79-5.27c-.67-11.17,2.77-21.57,5.52-32.22a215.8,215.8,0,0,0,7-58.55c-.06-2.84.57-6.47-4.52-4.55C737.71,806.71,732.59,801.5,726.71,796.34Zm679.39,434.15c6.36-2.69,6.8-8.11,7.52-12.48,6.54-39.8-.53-77.71-15.29-114.88-14-35.32-33.14-69-37.59-107.65-.06-.51-1.34-.89-2.14-1.39a7.22,7.22,0,0,0-.75,2c-.47,38.27,14.47,72.55,27.31,107.5,12,32.54,23.37,65.39,22.34,100.93C1407.26,1212.91,1404.28,1221.15,1406.1,1230.49Zm-56.9,200c18.11-19.5,30.75-41.26,31.69-69.08,1-30.61-3.9-61.61,5.26-91.78.58-1.91,1.39-5-1.74-5.59-2.69-.5-3.65,2-4.24,4.3a569.14,569.14,0,0,0-11.44,58c-3.82,26.13-2.6,53-11.77,78.36C1353.93,1413,1349.28,1420.85,1349.2,1430.44Zm21-248.57c-3.12,6.77-3.28,11.45-1.7,15.68,6.19,16.62,9.48,34.18,17.07,50.35,15,31.89,26.36,64.7,23.86,100.77-.09,1.31-.63,3.33,2.83,3.81,7.26-22.06,6.42-44.56,2.09-66.78C1407.13,1248.67,1382.47,1219,1370.19,1181.87ZM759.56,515.64c-16.51.08-30.89-2.13-44.58,3.65-2.28,1-6,.72-5.36,4.1s4.2,2.29,6.66,2.22c16.88-.52,33.73-.62,50.5,1.94,9.14,1.39,18.31,2.58,27.46,3.85-8.75-10-20-15.45-31.18-22.4,17.86-4.52,34.1,1.87,52.07,4-13.19-13.21-59-17.8-83-9.2C740,509.6,750.45,508.15,759.56,515.64Zm-35.17-35.49c4.94,3.89,10.24,4.69,15.75,4.36,24.69-1.46,47.85,5.1,70.41,14.05,16.72,6.63,33.33,13.47,51.11,16.74,2.41.44,6.61,2.19,7.15-2,.39-3.05-3.36-3-5.84-3.7a101.79,101.79,0,0,1-17.09-6.46c-24.22-11.46-47.62-25.24-75.17-27.78C755,473.87,739.65,476.19,724.39,480.15Zm264.82,55.39a505.72,505.72,0,0,1,57.44,48.19c17.78,17.29,32.56,36.71,43,59.47C1094.16,607.89,1033.22,543.82,989.21,535.54Zm268.54,242.14c2.08-4.21.07-5.5-1-6.83-12.46-15-15.38-32.83-16.94-51.62-2-24.16-1.6-48.62-7.62-72.39-1.54-6.09-2.55-12.39-11-16.67,6.24,20.24,7.35,39.1,5.74,58.22-1.73,20.59.4,40.73,9.14,59.69C1241.16,759.14,1247.39,769.53,1257.75,777.68ZM1128,750.24c7.22-11.32,5.07-23.48,3.63-35.43-2.26-18.82-10.11-36-16.11-53.76-6.85-20.29-15.76-40-18.31-63.78-3.17,5.19-4,8.3-3.44,12,2.43,15.66,7.13,30.77,11.39,46C1114,686.52,1128.57,716.45,1128,750.24ZM630.77,590.69c24.75-40.86,26.92-43.1,63.15-65.44,1.55-1,4.18-1.58,2.52-4-1.37-2-3.56-1.35-6-.85C667.32,525.1,630.68,554.71,630.77,590.69Zm350.5,54.92c-14.47-15-31.29-24.08-49-31.81C945.82,628,955.36,648.41,981.27,645.61ZM833.46,555.29c-9.19,8.78-19.9,12.83-24.7,25.37C821.59,576,831.52,571.07,833.46,555.29Z" transform="translate(-592 -312)"/></svg>