<svg id="Layer_1" data-name="Layer 1" xmlns="http://www.w3.org/2000/svg" viewBox="0 0 1368 1728"><path d="M977.35,1659.85c-12-14.34-26.87-24.57-42-34.52-8.75-5.77-13.08-5.22-15.43,4.69-10.21,43.13-19.41,86-11.12,131.23,5.39,29.4,4.69,59.91,6.57,89.94.16,2.51.92,6.37-2.72,6.89s-5.23-3.35-6.7-5.91c-13.76-24-27.27-48.2-40.93-72.29q-57.93-102.15-115.92-204.29c-32.78-57.81-65.2-115.82-98.45-173.36-8.19-14.18-9-26.59-1.1-41.07,7.32-13.43,12.79-27.93,18.42-42.21,4-10.16,5.78-21.14-.23-31-19.53-32-32.21-66.8-42.46-102.63a60.37,60.37,0,0,0-3.61-8.71c-.25-.53-1.31-.68-3.35-1.64-1.21,13.52,2.21,26,4.86,38.21,7.38,34,15.79,67.7,30.74,99.42,2.61,5.54,8.15,13.75,1.64,18.11-5.72,3.82-11-4.35-15.05-8.46-42.13-42.42-68.46-93.25-79.29-152.06-4.09-22.18-7.74-44.45-7.12-67.15.1-3.63,0-7.22-6-10.58-5.75,65.2.69,129.3,1.2,193.57-17.23-18.16-30-38.6-37.09-61.61-11.8-38.1-22.09-76.59-15.85-117.43,2.41-15.79-.05-32.06,2.08-48.19-9.67,13.58-12.56,29.3-15.44,44.83-6.35,34.2-12.78,68.46-10.12,103.57a28.66,28.66,0,0,1-.14,5.93c-.64,4.88-2.18,9.74-7.14,11.41-5.2,1.74-7.8-3-10.33-6.36-16.29-21.33-23.29-46-27.3-72.24-5-32.47,3.68-63.7,6.19-95.48.31-3.88.84-7.74,1.29-11.87-5.09.07-5.39,3.88-6.25,6.39-7.12,20.86-13.82,41.87-21,62.71-1.95,5.65-2,14.42-9.44,14.85-8.3.47-13-7-15.73-14.11-9.18-23.72-7.79-48.08-3.45-72.52,1.81-10.16,4.19-20.09,8.83-29.44a50,50,0,0,0,4-12.35c.58-2.94,1.29-6.82-2.31-8.44-4-1.8-5.46,1.93-7.14,4.47-5.38,8.15-10.51,16.48-16.07,24.51-2.67,3.86-6.31,8.68-11.18,7.22s-7-6.6-8.62-11.89c-2.52-8.17-1.12-15.72,1.58-23.14,5.66-15.53,9.43-31.82,18.12-46.16,1.18-1.94,2.81-4,.85-7.42-12.16,7.42-17.38,20.86-27.89,31.4-4.11-12.09,0-22.6,1.78-32.86,4.8-27.87,22-49.41,38.38-71.14,23.8-31.53,46.72-63.79,74.8-91.86,5.06-5.07,7.58-12,9.16-19,1.42-6.26,3-13.15,7.4-17.25,21.1-19.5,41.63-40.52,70.36-48.4,10.6-2.91,17.68-7.72,22.44-17.07,7.88-15.47,19.24-24.82,37.88-21.77,11.19,1.83,20-1.8,28.9-9.59,23.89-20.85,65.17-10.49,72.25,17.48,3,12.06.73,24.46-.6,36.66s-2.77,24.44-.44,36.67c.65,3.37.89,7.58,5,8.78,4.35,1.27,6.16-2.62,8.42-5.23,7.77-9,15.23-18.22,23.31-26.88,9-9.68,4.9-19.16,0-28.35-7.14-13.44-10.93-27.77-13.56-42.61-7.2-40.67,7.13-75.81,28.94-108.35,23.2-34.63,54.71-58.79,95.66-69.63,10.15-2.69,17-9.14,19.58-20,8.82-37.33,26.11-71.86,36.09-108.81.81-3,1.15-7.21,4.37-7.64,4.6-.63,5.1,4.41,6.22,7.44,11.65,31.47,23,63,34.57,94.53,2.3,6.3,5,12.45,7.12,18.81,4,12.15,12.42,19.44,24,24.38,64.84,27.57,102.59,76.45,113.25,146.11,2.65,17.29,5.22,20.2,22.08,16.77,16.6-3.38,32.82-3.09,49.43-.24,32.59,5.59,38.86-.9,29.56-32.48-8.28-28.17-6.93-56.48,4-82.62a35.08,35.08,0,0,1,9.76-13.29c22-18.61,36.47-44.16,53.09-67.31,24.38-33.95,49-66.55,73.9-100.13,7.47-10.07,14.19-20.7,21.3-31,2.82-4.1,8.26-6.74,16.8-7.53-20.31,31.68-42.73,59.62-62.81,89.29C1329,366,1341,343,1354.81,335c-18.74,34.23-47.88,60.94-71.11,95,10.3-5,19.63-10.79,25.3-19,22-32,41-57,69.76-88.94,1.78-2,3.28-4.4,7.06-4.78-5,19.77-9.85,39-15.61,61.83,12.44-9.12,17-22.36,31.37-27-7,13.26-15.81,22.65-23.2,33s-14.88,20.47-22.61,30.49c-9.81,20.93-11.13,39.67-16.76,62-2,11.34,6.59,5.77,10.33,3.16a159.18,159.18,0,0,0,37.24-35.93c22.65-30.08,48.38-57.39,74.76-84.17,39.72-40.32,74.6-85.06,113.79-125.86,25.39-26.44,47.27-55.07,62.82-88.47,3.1-6.64,5.74-18.18,14.59-16,8.62,2.14,9.35,13.75,10.26,22.19,2.19,20.32-2.69,40.11-5.43,60.09-4.75,34.73-25.64,60.59-46.24,86.68-18.36,23.24-36.92,46.33-55.34,69.52-.62.78-.75,2-1.64,4.46,14.3-4.78,23.18-14.91,33.12-23.4,37.63-32.11,66.49-71.69,94.79-111.75a104.12,104.12,0,0,1,6.37-8.51c3.43-3.95,5.93-10.95,12.75-7.74,5.89,2.78,4.84,9.55,4.54,14.92-.53,9.2-3.77,17.75-8,25.9-16.87,32.62-33.4,65.43-55.26,95.15-1.08,1.46-3,2.78-1.34,5.92,12.66-6,21.7-16.16,31.09-26.06,7.56-8,15.52-16.15,30.17-12.47-11.54,21.28-19.93,43.32-32.59,63.35a209.07,209.07,0,0,0-13.87,26c-3,6.68.29,8.7,6.77,6.42,5.73-2,12.64-8.45,17.21-2.68,4.13,5.22-1.74,12.51-4.1,18.6a51.31,51.31,0,0,1-6.23,11.43c-7.63,10.54-12.51,21.11-8.53,34.94,3,10.28-2.23,19.65-9.45,26.87-19.2,19.21-20,43.61-16.58,67.4,2.15,14.86.36,25.47-11,34.63-2.15,1.73-4.06,3.77-6.19,5.53-17.66,14.59-17.82,14.67-6,34.25,4.09,6.75,3,11.66-3,16.35-5.71,4.45-12.27,7-18.8,9.84-6,2.57-11.89,5.47-18.62,8.59,5.24,6,11.8,5.34,16.64,8.3,8.42,5.16,8.9,9.54.79,14.87a73.25,73.25,0,0,1-11.59,6c-8.47,3.57-12.63,9.87-14.07,18.89-3.13,19.58-10,26.35-29.46,30.32-2.33.48-4.72.64-7,1.18-14.84,3.52-16.28,8.25-6,19.65,11.77,13.1,12,13.84-.39,25.77-5.65,5.44-9.53,11.6-11.16,19-2.13,9.81-8.43,13.89-17.79,13.61-12-.35-16.87,6.16-18.31,17.19-2.32,17.76-13.79,22.32-28,11.51-9.08-6.89-17.58-14.73-30.31-14.38s-20.69,5.58-24.55,17.93c-1.76,5.64-3.3,11.35-3.1,17.42.5,15.77-2.3,30.64-12,43.64-6.62,8.84-4.79,17.86,0,26.72,3.47,6.38,7.13,12.66,12.29,21.78-14.44-5.78-17.94-18.14-26.94-24.65-5.35,13.68-1,26.41,11,31.44,15.35,6.44,28.41,16.84,42.87,24.85,15.77,8.73,17.44,42.79,3.5,55.26-14.27,12.77-28.39,27.25-51.15,19.91-5.93-1.91-10.62,2-14.27,7.92a293.59,293.59,0,0,0-43.63,132.56c-.37,4.6.19,11.94-6.15,12.53-5.28.49-8-5.57-10.72-10-7-11.46-2-23.14-.24-34.62.85-5.44,2-10.61-1.08-16.53-39,74.65-74.3,150.71-90.34,234.57-5.52-26.49-12.43-52.7-1.24-79.47,7.39-17.68,9.69-35.83,9.29-55.45-.54-26.14,9.44-51.07,17.86-75.78,3.32-9.72,7.38-19.06,13.3-27.59a25.59,25.59,0,0,0,4.21-20.32c-2.6-12.9-1.41-24.58,8-35.26a36.07,36.07,0,0,0,8.25-18.17c1.5-10.06-4.15-15.23-13.89-12.26-6.32,1.93-10.75,6.53-14.52,11.76-9.48,13.16-18.88,26.4-30.44,37.89-8.66,8.6-7.16,18.49-1.61,27.19,12.61,19.77,9.27,37.28-.92,57.65-49.68,99.38-97.93,199.49-146.42,299.46-5.68,11.71-9.6,24.26-14.63,36.3-1.8,4.29-3.76,9.85-8.93,10.12-4.54.24-6.88-4.76-9.08-8.48-12.27-20.81-31.09-37-41.28-59.32-.77-1.69-1.9-3.92-4.21-3.6-3.51.5-3.69,4-4.09,6.41-4.81,28.89-5.72,57.47,7.55,84.81,2,4.12,5.05,8.08,4,14.18-6.74-1.07-10.75-5.88-15.08-9.95-4.61-4.33-8.68-9.24-13.41-13.42-3.91-3.46-6.75-11.29-12.84-8.41-6.78,3.21-4.24,11.33-3.64,17.33s4.09,10.87,8.07,15.49c10.33,12,20.32,24.24,30.4,36.42C977.68,1650.37,980.92,1653.63,977.35,1659.85ZM709.52,1067.66c4.17,1.57,4.49,5.45,5.78,8.52,1.19,2.82,1.56,6.77,5,7.13,3.22.34,3.52-3.72,5-5.94,2.14-3.31,4.06-6.77,6.21-10.08,3.81-5.89,5.12-11.57-.88-16.92-7.11-6.34-5.13-12.49.76-18.12,7.38-7,12.51-15.34,14.37-25.36a79.56,79.56,0,0,1,8.5-23.3c4.4-8.17,5-14.38-6.7-15.71-1.77-.2-4.42-1.38-4.85-2.7-.8-2.47,1.55-4.35,3.58-5.42,5.24-2.75,10.43-5.91,16-7.54,6.48-1.88,10-5.93,12.27-11.72,3.27-8.45,6.41-17,9.66-25.41,1-2.47-.27-6.3,3-7.23,3.85-1.12,5.54,2.79,7,5.16,11.29,18.19,30.05,29,43.67,44.91,4.05,4.74,9.69,6.6,16,5.8,5.24-.65,9.56.55,10.64,6.47,1.47,8,7.14,8.57,13.45,7.87,5.07-.56,10-3,15.08-3.07,12.27-.22,19-6,21.78-17.17,2.23-8.9,2.26-18,1.57-27.16-.33-4.36-2-9.24,2.27-14.09,7.28,9.61,2.55,19.72,3.3,29.09,1.2,15.16,5.43,29.78,21.08,35.33,17.62,6.25,35.36-1.17,53.83,1a1.67,1.67,0,0,0,1.06-.49c14.64-13.11,23.11-25.52,37-42,.21-.34-.58-1.3-1.69-3.62-14.44,14.39-24.81,32.7-43.8,41.23-1.31-2.32-.79-3.67.46-4.86,16.91-16,33.82-32,45.91-52.41,3.73-6.3,12.53-5.92,19.27-1.71a70.55,70.55,0,0,0,9.45,4.91c3.59,1.54,7.53,4.07,11.27,1.87,5.23-3.07-1.23-7.3,0-11.6,5.5,2.35,10.69,5.07,17.28,1.94-19.93-17.81-43-28.77-63.81-43.18-5.85-4.05-12.84-3.87-19.39-1.17a39,39,0,0,1-22.12,2c-10.63-1.89-21-1.56-31.75-.34-9.78,1.1-20.09,4.28-31.68-.37,8-5,14.85-5.94,22-6,6.74,0,9.42-.31,15.68-3.35,4.71-2.28,10.24-4.51,9.26-10.7s-7.07-6.82-12.12-7.59c-10-1.51-15.65-.76-26.21,7.91,3.87-10.23,9.15-19.54-.14-23-15.84-6-29.65-15.7-44.54-22.91-3,4.19-.92,6.89.23,9.81,4.93,12.5,10.63,24.56,18.41,35.6,3,4.19,5.68,8.64,5.64,14.11,0,3.5,1,7.73-3.19,9.32-3.52,1.34-5.76-1.86-7.81-4.2a59.38,59.38,0,0,1-10.4-17.09c-3.26-8-7.18-15.82-14.33-22.72,0,21.73,23.56,33.94,19.83,57-6.82-3-8.72-8.52-10.92-13.27-4.8-10.36-8.54-21.22-13.45-31.53-7-14.62-14.5-16.67-28.43-8.78-7.19,4.08-14.13,9-21.82,11.74-18.43,6.62-33.69,18.95-51.18,27.18-7.5,3.53-12.51,10-15.05,17.62-4,12.24-11.09,22.68-18.09,33.19-6.81,10.23-12.71,20.38-13.25,33.5-.3,7.46-1.51,16-8.51,23.47,0-4,.29-6.42-.06-8.72-.56-3.64,2.29-9.5-2-10.48-5.32-1.21-6.13,5.31-7.37,9-4.75,14.24-8.67,28.71-10.1,43.79-1.2,12.57-1.85,25.51-14.42,33.36-3.16,2-3.6,5.88-4.5,9.39-1.46,5.69-2.6,11.71-5.35,16.79-16.5,30.6-22.19,62-9.44,95.53,1.73,4.54,1.9,10.35,8,9.61,7-.84,6.21-6.68,5.46-12.1-1.42-10.35-.39-20.24,6.41-28.92,8.33,6.23-1.43,12.74,5.47,20.2a306.67,306.67,0,0,1,19.54-33.15c9.85-14.71,11.37-29,3.24-44.55C708.55,1077.05,707.72,1072.6,709.52,1067.66Zm271-310.76c19.49-5.9,34-18.52,48.25-31.1,5.25-4.63,7.07-10.89,4.26-18.15-5.12-13.24-8.59-24.73-13.7-38-5.26-13.59-7.33-29-16.12-40.56C975,592,945.5,555.8,916.76,519.05c-4.65-5.94-7-5.14-11.37.35-16.44,20.73-33.51,41-50.1,61.59-10.89,13.53-24.35,26-31.37,41.41-12.55,27.53-21.14,56.87-31.27,85.49-1.28,3.63-3.18,7.83,1,10.88,12.61,9.2,25.08,18.68,41,25.75,0-10-.48-18.28.12-26.47.94-13,1.74-25.85,9.61-37.34,13-19,31.6-27.26,53.26-31.79,37.44-7.82,73.25,14.61,81.53,52.07C983.18,719,980.91,737.13,980.52,756.9ZM884.25,1759.46c-2.85-18.32-13-34.12-16-51.85C863,1676.76,850.89,1648,835.36,1622c-14.13-23.67-18.35-47.26-17.3-73.26.32-7.74-1-15.14-5.1-21.57-15.25-23.81-24.06-50.54-34.87-76.36-3.13-7.47-7.16-13.9-13.88-18.64-12.89-9.09-25.34-18.57-35-31.42-13-17.23-26.67-20.76-47.93-14.72-9.31,2.64-9.42,7-4.38,13.44a220.1,220.1,0,0,1,18.59,28.84c20.64,37.33,41.59,74.5,62.49,111.69q59.81,106.42,119.69,212.79C879.1,1755.33,879.77,1758.72,884.25,1759.46Zm278-646.84c0-2,.31-3.28,0-4.35-7.14-21.67-14.52-43.26-21.08-65.14-2.92-9.74-14.3-8.19-22.79-8.77-7.33-.5-7,6.2-8.8,10.64q-22.51,54.66-45,109.33c-9.92,24.07-20.14,48-29.79,72.19-2.35,5.91-6.48,12.78-.17,18.73,5.76,5.42,12,3,18.71.65,16.69-5.9,33.58-11.24,50.57-16.24,9.29-2.73,16.09-7.42,20-16.61,4.82-11.22,8.07-24.39,16.14-32.68C1159.29,1160.63,1155.92,1134.93,1162.23,1112.62ZM829.14,1287.38l-12-16.92c8.8,22.27,15.55,45.08,32.2,62.84,9.69,10.33,15.27,23.06,15.45,39.61-7.84-6.72-9.58-15.55-15.52-21.27a7.59,7.59,0,0,0,.43,4.72,187.72,187.72,0,0,0,22.8,40.05,103.26,103.26,0,0,1,18.31,39.48c1.76,7.46-2,15.26,3.56,23,13.4,18.84,21.24,40.23,26.33,62.89,3.66,16.29,13.55,29.13,27.21,38.91,2.6,1.86,5.71,4.58,8.34,3.31,3.82-1.84,2.13-6.36,1.38-9.49-3.21-13.39-4.17-26.74,1.29-39.65,4.72-11.19,2.85-21.78-1.82-32.08-5.7-12.59-11.15-25.34-18.88-36.92-10.61-15.9-17.25-32.81-13.68-52.51,1.07-5.9-.16-11.83-2-17.53-4.8-14.71-7.5-29.84-9.44-45.17-1.15-9-5.25-17-12.7-22-20.27-13.67-38-29-47-53-3.55-9.52-10.13-9.28-17.7-2.28C825.07,1263.23,829.88,1275.14,829.14,1287.38Zm96.12-305.86c2.18,6.74,3.12,11.63,1.09,17.08-5.81,15.62.89,33.53,14.61,40.7-6.35,1.7-14.22,1.24-14.22,11,0,6.32,0,12.65-.44,18.94-.49,7.27,2.28,11.26,9.84,11.68,3.93.22,8,.47,11.68,1.71,3.08,1.05,9.51-3,8.85,3.66-.47,4.71-6.34,3.48-10.09,3.73-1.88.12-3.8-.89-5.73-1.2-9.78-1.56-15.57,2.72-13.46,12.26,5.34,24.18-5.68,48.2.43,72.47,1.51,6,1.77,8.88,8.38,9.46,22.45,2,38.72-10.47,58.63-17.16,1.87-.63,3.15-3.39,4.43-5.34,2.93-4.49-.14-7.75-3.06-10.18-3.68-3.06-6-.59-8.39,2.85-3.2,4.6-5.94,10.19-13.22,11.32.33-7.85,4.74-13.51,8.26-19.48,8.92-15.11,15.56-31.25,17.49-48.65,1.75-15.78,3.24-31.33,10.72-45.71,1.7-3.27,4-8.19-.39-10.51-3.85-2.06-7.63,1.3-9.76,4.74-3.91,6.32-7.28,13-11,19.4a1.63,1.63,0,0,1-2.9.14c-1.42-3.61,3.85-6.06,1.72-9.8-12.7-.44-19.69-10.64-13.12-21.34,5.62-9.14,11.4-17.81,13.14-28.61.49-3,2.41-5.49,5.58-5,17.56,2.64,22.82-13,32.44-21.93,2.74-2.55,7.61-7.34,2.34-10.86-4.65-3.11-6.2,3.06-8,6.13-6.28,10.93-15.84,20-27.56,20.57C970.53,994.67,944.89,1006.32,925.26,981.52Zm168,354.8c-3.57-18.87-2.67-37.13,3.86-54.94a231.17,231.17,0,0,0,7.69-24.91c2.16-8.89-1.64-13-9.65-9.5-13.9,6-28.46,9.21-43,12.67-8.43,2-9.85,6.4-5.65,13.68,5.52,9.56,11.37,18.93,14.91,29.55,15.85,47.51,16.35,95.41,4.41,143.8-2.15,8.68-5.15,17.47-3.87,29.89,43.54-87.68,82.4-174.13,127-259.62-14.39,1.46-24.94,9.81-37.17,11.58-23.59,3.42-35.22,19-42.71,39.48-3.94,10.76-8,21.48-9.75,32.91C1097.45,1312.74,1095.25,1324.52,1093.21,1336.32ZM880.89,1034.91c7.53-2.27,13.54,2.4,20.14,1.83,6.76-.57,12.21-2.84,12.85-9.69a154.48,154.48,0,0,0,.26-30.78c-.76-7.06-5.19-2.34-8.92-4.71-.33-.21-1-.35-1-.55-.7-13-8.14-4.79-12.46-3.54-5.87,1.71-11.47,2.63-17.43,1-3.44-.93-8.25-2.64-10.26-.2-6.25,7.57-10.77,6.05-16.25-.65-2.1-2.56-6.34-4.86-9.28-1.16-2.28,2.88.24,6,2.55,8.24,8,7.68,16,15.28,25.74,20.82,2.67,1.53,6,2.47,4.07,7.31-9.43-2-15.23-9.21-22.16-14.65-2.63-2.06-6.06-3.56-8.58-1.09-3.12,3,0,5.87,2.24,7.89,3.82,3.39,8.12,6.24,11.94,9.63,2.48,2.2,7.66,3.18,6.69,7.19-1.34,5.54-7.1-1.17-10.31,2.63,1,4.76,4.41,8.94,4.12,14.39-1.46,26.48-2.34,53-3.94,79.47-.44,7.22,1,13,5.79,18.48,7,7.9,14.79,15.54,19.52,24.7,3.45,6.7,7.53,9.8,14,10.74,7.41,1.09,11.94,2.3,19.39,3.2,9.1,1.09,10.66-3,7.09-10.26-2-4.14-1.23-8.56-2.14-12.7-2.58-11.73,5.4-22.37,3.46-33.6-4-23-5.65-45.85-3.12-69.09,1.89-17.3,1.53-17.41-16.65-16.86C891.36,1043.12,885.08,1042.51,880.89,1034.91ZM963.67,778.4c13.38-28.09,8.6-83.48-8.61-96-2.62,20.41,14.22,38.86,5.74,59.63-2.52-1-2.88-3-2.71-5,1.79-21.15-9.11-39.64-12.43-59.71-.63-3.77-3.64-5.6-7-7.34-17.67-9.1-36.06-8.5-54.12-2.85s-22.76,15.24-19.58,34.6c1.53,9.34,4,18.71,4.08,28.07.2,25.75,12.09,46.13,27.61,65.16,8.8,10.79,20.36,17.25,33.43,21.15,7.78,2.31,12.83.43,13.91-8.94,2-17,4.6-33.94,6.32-46.15a.64.64,0,0,1,1-.42C954.3,762.9,963.14,770.07,963.67,778.4ZM1104.9,891.52c.1-1.71.53-3,.17-4-16.22-44.77-33.15-85.94-46.88-131.61-1.51-5-4.9-7.11-10-5.76-12,3.2-20.23,1.83-35.23,9.83-6.89,3.68-14.49,7.74-22.24,9.53-13.7,3.18-20.85,11.65-22.31,25.55-1,9.26-4.35,17.71-11,24.39-7.8,7.8-3.87,12.13,4.16,15.44,15.24,6.28,31.27,10.57,45.53,19.33,4.62,2.84,10.45,3.46,16.08,2.48C1057.53,850.75,1082,867.87,1104.9,891.52Zm-251.19-422c-85.88,22.9-144,131.06-98.08,201.07,5.72-6.74,11.67-13,16.8-19.91,14.28-19.14,32.38-35.43,40.17-59.33,10.24-31.47,22.33-62.34,32.93-93.71C848.59,488.61,853.57,479.86,853.71,469.56Zm348,198.18c3.39-17.54-2-25.93-20-30.42-6.49-1.62-13.1-2.84-19.7-4-29.88-5-54.43,4.92-73.89,27.52-4.59,5.32-9.24,14.62-2.69,19.21,5.55,3.9,9.54-4.54,13.55-8.1,9.83-8.72,21.07-13.75,34.28-14.18,3.31-.1,8.08-.67,9.07,3.69,1.24,5.46-4.41,4.81-7.23,5.56-4.5,1.2-9.35,1.16-14.06,1.51-14.28,1.08-25.06,11.42-28.8,23.41,23.65-21,37.4-24,55.39-11.7-6,2-11.55,3.25-16.38,7.11-13.15,10.5-20.65,25.89-33.18,36.9-5.25,4.62-2.15,8.81,3.46,10.15,10.33,2.48,21,3.77,31.23,6.41,18.54,4.76,36.14,1.23,53.21-5.65,18-7.26,28.09-20.64,32.1-40.16,2-9.62-.5-11.42-8.42-11.45-5.63,0-11.18,2.94-18.22.44,8.24-6.8,18.67-8.64,25.29-16.46C1211.29,664.29,1206.62,670.91,1201.72,667.74ZM971.85,473.87c.42,3.64.31,5.22.8,6.58,10.15,28.18,20,56.49,30.69,84.45s17.16,58.18,39.78,80.83c12.27,12.29,10.26,12,25.18,2.23,13.54-8.88,14.72-20.09,12.75-33.61C1071.35,547.7,1033.88,502.57,971.85,473.87Zm113,272.94c-13.41-.55-16.16,3.38-11.49,13.77,10.35,23,17.59,47.16,26.34,70.75,7.79,21,15.53,42,23.56,62.95,2.64,6.9,6.92,12.68,15.4,12.46,8.94-.24,13.21-6.59,15.63-13.92,4.68-14.23,10.86-27.75,17.09-41.33,10.24-22.3,8.54-31.42-10.29-47.76C1145.3,790,1130,775.92,1115,761.37A55.33,55.33,0,0,0,1084.86,746.81ZM1007.2,1127c2.07,12.75,4.54,23.94,11.58,33.42a55.28,55.28,0,0,1,9.81,22.6c.51,2.57-.57,6.43,2.94,7,4.51.71,3.87-3.7,5-6.44q31.23-75.3,62.67-150.5c2-4.87,2.26-8.9-3.91-9.72-9.11-1.21-16-6.17-22.85-11.64-7.69-6.09-15.25-6.37-21,2.89a133.25,133.25,0,0,1-21.08,25.43c-4.91,4.71-6.72,10.81-6.26,17.27.81,11.36-2.12,21.91-5.48,32.5C1014.55,1102.57,1010.75,1115.4,1007.2,1127Zm209-69.43c41.76,14.93,79.15-4.19,117.3-2.38-11.07-6.76-25-8-31.2-21.8,6.88-1.1,12.22,1.91,17.84,3.37,6.76,1.76,14.57,2.86,18.85-2.9,9.92-13.34,20.72-11.72,33-4.66,3.87,2.23,8.32,2.1,10.07-2.4,1.61-4.13-2.59-6.6-5.6-7.85-11.09-4.61-22.63-6.88-34.7-4.58-14.78,2.82-30,6.58-44.65,3.38-28.1-6.15-57.79-.2-85-12-1.5-.65-3-.86-4.27.57,2.25,12.94.87,14.48-12,14.35-7.81-.08-14.58-2.82-20.83-7.23-5.37-3.8-11.28-6.06-17.83-4.4-4.08,1-9.61,1.39-10.85,6.07-1.43,5.41,4.52,6.64,7.71,9.17,6.84,5.43,17,6.49,21.61,16.62-12.39,1.43-18.95-10.83-31.52-11.45,12.2,12,24.4,21.24,40.46,19.36,20.17-2.36,40.27-1.2,60.4-1.56,3.11-.06,7.09-1.93,10.33,3.63C1243.42,1055.25,1231.15,1054.56,1216.16,1057.59ZM831.24,583.37l2.27,1c24-29.79,48.17-59.38,71.68-89.52,5.41-6.93,7.7-6.05,12.4.18,14,18.61,28.56,36.86,43,55.16C972.31,565,984.2,579.72,996,594.47c-13.09-41.46-27.9-81.72-42.47-122.06-1.28-3.55-3.25-4.88-6.59-5.7-18.61-4.5-37.43-5.42-56.5-4.54-12.15.57-18.79,4.86-22.83,17.66C856.6,514.7,843.51,548.9,831.24,583.37ZM825,827c22.26,0,39.15-15.49,29-35.61-2.1-4.18-4.64-8.64-5-13.11-.6-8.4-5.18-12.27-12.17-15.56-18.2-8.55-36.43-17.15-51.2-31.4-5.74-5.54-7-.46-8.54,3.84-7.43,20.76-14.62,41.61-22.48,62.21-2.76,7.22-.91,10.23,6.25,11.45,13.31,2.28,25.6,7.48,37.84,13.06C808.78,826.43,813.55,827.3,825,827Zm22.75,579.58c-1.3,5.34,1.35,8.76,2.26,12.48.86,3.55,2.52,6.82.48,11.66-14.12-21.7-25.81-43.07-31.43-67.25-6.81-29.31-26.09-52-40.17-77.7,1.67,10.21,4.74,19.83,8.17,29.32,7.12,19.62,14.55,39.14,21.55,58.8,1.34,3.78,4.65,9-.14,11.8-3.72,2.19-7-2.23-9.69-4.9-2.43-2.39-4.74-4.71-10.53-5.6,3.82,5.68,6.68,9.7,9.31,13.88,9.85,15.69,23.19,29.14,30.21,46.63,17.52,43.63,40,84.84,62.57,125.92a216.18,216.18,0,0,0,28.54,40.71c2.1,2.32,4.82,5.31,7.93,2.89,2.89-2.25-.15-5.07-1.48-7.19-3.15-5-6.94-9.64-10-14.72-22.85-38.28-38-80.5-60.64-118.93-1.5-2.54-4.55-6.43-1-11.06,6.33,6.19,11,12.9,15.45,19.83s7.44,15.43,15.18,20.95C885.15,1473.11,871.86,1441.48,847.75,1406.58ZM1242.44,725.1c26-17.69,32.54-24.79,34.91-38.64-11.42,3.12-18.6,12.88-29.38,17.15,8.47-10.28,11.34-24.68,21-33,32.09-27.71,46.32-64.12,53.81-104.07,1.61-8.59,4.33-18-.13-27-12.67,51-25.32,101.55-75.74,130.2,3.26,3,6.53-3.25,9.69,1.17-19.5,11.22-33.28,26.17-37.9,49.12-3.16,15.66-15.35,24.37-29.9,29.47-10.45,3.67-21.31,5.6-32.25,7.2-4.71.69-10,1.81-12,6.53s2.39,7.9,5.19,11.09c13.15,15,14.52,14.83,22.37-2.41,4.45,7.26,1.53,17,8.66,26.85,0-10.73-.2-18.24.08-25.72.15-3.9.81-9.74,5.65-8.86,17.47,3.17,31.1-7,46.22-11.91C1255.78,744.68,1256.18,743.58,1242.44,725.1Zm204.82-259.63c10.48-8.4,16.73-18.83,27.06-25,13-7.67,24.08-17.73,34.84-28.31,29.69-29.2,53.68-63,77.4-96.87,16.47-23.54,17.23-52.93,26.32-79.28,1.6-4.65-1.05-8.49-5.3-10.77-4.92-2.64-8.64,0-11.14,3.75-5.29,8-11.61,15.54-13.57,25.54,4.38.6,6.3-6.31,9.86-2.47,2.51,2.69,1.19,7-.63,10.1a68.53,68.53,0,0,1-7.91,11.71c-10.91,12.12-16.5,27.2-24.38,40.9-11.94,20.77-21.87,45-38.78,60.71-24.46,22.74-44.73,48.8-67.87,72.4C1448.84,452.33,1445.83,457,1447.26,465.47ZM388.69,1040.79c-.71,11.09-2.25,20.18,1.07,29.27,1.75,4.8,2.78,11.49,8.43,11.61,5.9.13,6.65-6.78,8.4-11.48,7.16-19.3,14-39.59,27.59-54.68,14.75-16.38,22.64-34.63,28-55.11,2.38-9.12,6.81-17.69,9.42-26.77,3.45-12,12.69-21.72,13.92-36.45-18.61,7.8-33.45,17.72-39.58,36.17-6.47,19.44-10.59,39.69-27.24,54-3.08,2.65-4.41,7.4-6.4,11.26-7.1,13.79-7.92,28.69-8.07,43.84-.05,5.3-.81,12.63-7.45,13.15-5.75.45-2.91-7.09-5.35-10.36C390.8,1044.4,390.31,1043.45,388.69,1040.79Zm372.14,291.1c-1.79-16.06-10.16-29.15-5.62-43.61,5.83-18.56,3.24-34.7-11.25-48.74-9.68-9.38-9.28-20.89-1.9-31.3,9.54-13.45,11.81-28.57,14.75-44.28,4.12-22,10.14-44.33,34.17-54.28,5.28-2.18,7.48-5.84,7-11-.69-7.86-2-15.67-3.09-23.49-1.09-7.66-4.9-5.88-8.53-2.06-1.84,1.93-3,4.65-4,7.18q-31.07,74.12-61.93,148.3c-4.26,10.33-3.74,20.44,2.64,30.48,9.35,14.7,15.76,30.91,22.1,47.13C748.56,1314.87,751.22,1324.21,760.83,1331.89ZM685.62,1182.3c.87,12,9.84,20.53,13.29,31.41,1.11,3.51.61,9.25,5.3,9.12,3.43-.1,5.43-4.85,7-8.6q27.95-68.14,56.13-136.22c.91-2.21,2.29-4.88.21-6.42-1.59-1.17-4.44-1-6.69-.83-5,.34-7.26,4.25-9.47,8-3.19,5.47-6.1,11.53-12.42,13.76-8.52,3-12.06,9.24-14.16,17.39-6,23.23-14.48,45.13-33.77,61.07C687.64,1173.81,685.29,1177.57,685.62,1182.3Zm516.82-216.16c3-.37,8.91-1.66,14.79-1.69,23.31-.14,42-16.68,35.56-48.06-.85-4.16-1.26-10.11-6-10.38s-4.26,5.93-5.46,9.4c-8,23.31-12.1,25.28-35.55,17.57-18.4-6-37.14-10.83-56.55-12.18-4.49-.32-10.13-1.84-12.82,3.55s.71,9.91,3.51,14.24C1153.94,960.4,1175.78,965.36,1202.44,966.14Zm251-446.63a36.89,36.89,0,0,0,5-1.33q64-30.57,127.94-61.21c9.34-4.48,15.59-11.85,19.31-21.46,3.85-9.94,8-19.72,13.6-28.83,2.92-4.73,9.67-10.56,3.6-15.22-6.27-4.81-12.35,1.57-17.12,6.32a18.73,18.73,0,0,0-3.81,6c-8.24,19.8-32.58,21.3-43.3,38.27a2.36,2.36,0,0,1-2.19.48c-6.2-2.62-8.62,2.11-11,6-6.85,11.29-18.32,18.53-25.44,29.58-.94,1.47-4.4,3.19-4.46,3.1-7.58-10-11.07,1.17-15.14,3.61-8.49,5.1-17.06,9.75-26.37,13.11C1464.16,501.47,1456.32,507.23,1453.46,519.51ZM858.83,1199.39a203.68,203.68,0,0,1-38.76-25.57c-9.08-7.49-16.25-17.44-27.35-22.45-5.2-2.34-10.67-2.84-13.4,2.86-3,6.32,2,9.8,7.11,11.25,7.28,2.07,15.05,3.87,20.7,8.44,17,13.79,34,27.14,54,37,9.92,4.87,18.83,11.17,30.18,11.7,5.37.26,10.68,1.89,14.41,4.81,28.63,22.5,64.32,15.77,96.36,23.94,1.6.4,4.65-.27,5.19-1.36a4.64,4.64,0,0,0-2.34-6,22.66,22.66,0,0,0-7.87-2.08c-35.33-3.15-67.71-14.13-96.16-35.81-6.75-5.14-13.57-10.27-25.67-12,6.31,3.55,9.72,5.47,13.14,7.37s6.84,4.16,9.09,10.51c-4.5-2.25-6.89-3.36-9.19-4.62-26.94-14.71-50.38-33.8-71-56.55-5-5.56-11-10-20.5-8.88C819.63,1159.87,837.53,1181.5,858.83,1199.39ZM943.35,1267c-3.32,3-2.59,5.43-2.28,7.68,3.89,28.74,11.28,56.1,26.52,81.41,17.35,28.8,37,55,65.91,73.09,6.41,4,15.45,9.63,20.18,3.75,5.25-6.51-3.91-12.09-9.19-16.37-36.73-29.71-61.46-68.5-83.13-109.64C954.62,1294.14,952.67,1279.13,943.35,1267Zm645.49-663.27c-8.68,3.74-13.59,11-21.29,15.76l12.1-21.6C1569,606,1561.39,612,1553.52,617.71c-1.64,1.18-4.49,2.77-6,0-.6-1.08.81-3.3,1.63-6.09-3.46,2.06-6,3.72-8.62,5.1-3.5,1.83-7.2,3.29-10.65,5.2-4.89,2.69-.39-8.45-7-4.34-6.82,4.26-16.54,1.4-22.68,8.45-1.43,1.65-4.4,1.37-4.72-1-1.24-9-5.62-3.75-8.75-2-5.11,2.93-9.94,6.35-14.79,9.5-3.44-3,2.5-5.7-.65-9.32-10.32,3.88-20.09,9.8-31.25,12.33-14.52,3.29-29.1,1.43-43.65,2.06-2.19.09-5.15-.75-6,2.27-1,3.56,1.84,4.76,4.4,5.88,9,3.94,17.78.12,26.71-.31,41-2,82-3.49,123.06-4.89,13.34-.45,25.74-3.5,36.89-10.94C1591,623.24,1584.25,611.85,1588.84,603.74Zm-149.06-52.46c16.13-5.22,33.87-3.3,49.17-11.32,12-6.27,24.92-9.66,37.7-13.7,25.44-8,51.92-13.34,75-27.91,12.34-7.79,22.62-17.43,27.29-31.59,1.23-3.75,4-10-2.53-11.86-5.41-1.54-11.23-.33-13.93,6a51.12,51.12,0,0,0-2.88,9c-2,9-6.65,16.28-16.51,15.16-15.15-1.71-23.9,6.88-32.42,16.92-.56.66-1.86.69-4.24,1.5l6.59-14.32c-7.36,3.9-12.37,9.77-18.08,14.85-6.07,5.39-5-.43-5.09-3.76-5.42-.11-6.17,11.91-12,6.18-4.5-4.39-4.46-1.27-6.39.85-5.27,5.78-9.6,13.25-18.37,13.89C1478.05,523,1459.71,538.69,1439.78,551.28ZM521.55,920.36c-7.95,9.65-10.34,18.47-12.85,27a269.13,269.13,0,0,1-15.37,39.26c-9.65,20.39-21.68,40.44-20.81,64.59.3,8.33-4.26,13.84-13.44,15.15-4.31.61-10.61.92-11.24,6.85-1.57,14.85-2.3,29.79-3.38,45,10.33-1,4.24-30.44,25.78-7-3.28-23.11,7.45-39.12,11.33-56.89,2.59-11.86,7.36-21.49,16.39-29.16,4.74-4,8.44-9,8.28-15-.46-17.09,5.52-32.4,11-48.1C521.63,949.74,524.87,936.7,521.55,920.36ZM623.7,890.87c-6.74,8.07-4.33,15.74-4.17,23.06.06,2.84.34,6.46-3.41,6.21-4.77-.32-1.89-4.15-1.64-6.38.31-2.71,1.81-5.3,2-8,.3-4.29-1.48-8.92-5.91-8.77-6,.2-2.52,5-2.28,8.12.15,1.92.78,4.06.16,5.72-1.32,3.55-2.36,8.47-7.49,7.63-4.85-.8-4.12-5.25-3.28-8.67,1.87-7.69-2.94-14.64-2.13-22.21a3.83,3.83,0,0,0-3.2-4.37c-2.84-.34-3.83,2.21-5.06,4.21-1.77,2.89-1.44,6.07-1.47,9.23-.2,18.66,2.14,37.11,5,55.46a100.86,100.86,0,0,0,17.82,43.4c2.06,2.89,4.63,6.19,8.37,5.7,4.15-.54,2.72-5.14,3.49-7.87,8.86-31.43,4-63.73,5.66-95.62C626.26,896,624.94,894.19,623.7,890.87ZM367,971.67c-.44,4.27-.51,8.38,3.31,9.93,4.58,1.86,8.81-.94,11.29-4.38,9.88-13.74,22.18-26.66,28.29-42,13.71-34.42,33.05-65.23,53.54-95.61,1.48-2.19,4.51-4.49,2.33-7.22-2.75-3.44-5.8-.18-8.39,1.08a16,16,0,0,0-5.43,4.44c-8.72,11.21-17.57,22.33-25.79,33.9-10.27,14.43-18.93,31.41-30.92,42.83-11.71,11.16-14.06,24.59-21.38,36.47C369.86,957.58,368.7,965,367,971.67Zm204.91,186.55c3,24.59,7.35,48.84,25.61,67.74,2.15,2.23,4.61,5.13,8.05,3.8s3.27-5.25,3.15-8.28c-.5-13-2.25-26.1-1.79-39.09,1.68-47.9-3.7-95.66-2.12-143.54a36,36,0,0,0-.35-4.73c-.32-3.2-.66-7-4.7-7.06-4.45-.11-4.2,4-4.33,7-.2,4.74,0,9.5-.07,14.25-.23,42.25-6.65,84.43-1.09,126.78,1,7.41-1,15.2-1.64,22.81C588.74,1182.89,583.69,1169.14,571.91,1158.22ZM1597.67,513.07c-2.53,9-11.76,6.55-17,10.87a38.18,38.18,0,0,1-29.93,9.1c-3.17-.36-6.72-1.37-8.91,1.43-7.6,9.74-17.23,9-27.81,6.81-3.62-.73-11.07-1.37-10.61,4,.59,6.74-3.54,7-7,8.63C1474.93,564,1453.06,573,1429.18,576a23,23,0,0,0-7.67,2.91c-3,1.62-7.89,3.23-6.75,7.06,1.5,5.06,6.82,2.66,10.19,1.93,11.54-2.49,21.56-9.46,33.33-11.59,30.17-5.43,60.24-11.46,90.47-16.56C1574.7,555.35,1596.26,535.82,1597.67,513.07ZM1294.37,922.4c-3.53-11-6.4-19-8.59-27.22-1.21-4.53-2.69-10.23,6-8.43,2.44.5,5.83,2.25,7.38-1,1.32-2.74-1.12-5.27-2.74-7.41-14.77-19.42-31-37.73-43.77-58.7-4.48-7.36-9.88-5.49-12.38,2.43a44.2,44.2,0,0,0,3,34.39c4.09,8,9.37,15.58,11.34,24.58C1259.13,901.64,1274.07,912.3,1294.37,922.4ZM911.7,358c-10.4,28.87-20,55.51-29.61,82.13-1.82,5-.74,7.71,5.16,6.89,16.62-2.32,33.16-.34,49.62,1.55,6.37.73,8.17-.13,5.65-6.54-3.75-9.54-7-19.27-10.55-28.9C925.49,395.43,919,377.76,911.7,358Zm694.23,3.47c-8.27,10.77-9.38,23.84-22.42,27-3.64.87-4.4,9.92-9.12,6.84-4.25-2.76,1.09-7.49,2.66-11.29.59-1.44,2.44-3.16-.23-5.47-6.81,8.06-10.27,17.72-14.65,27.89-1.45-4.7-1.55-11.27-7.63-3.4-4.82,6.24-8.5,14.65-18.79,14.48-1.62,0-4,2.78-4.82,4.78-6.86,17.53-23.82,23.59-38,31.5-16.9,9.44-28.92,24.05-43.9,35.36a3.85,3.85,0,0,0-.6,5.7c5.37-.55,9.69-4,14.32-6.59,30.72-17.18,58.68-38.6,88-57.91,15.82-10.42,31.82-20.58,44.63-35C1603.45,386.22,1605.36,375.73,1605.93,361.46Zm-587.49,1097.2c4.36-3.21,8.45-7.71,9.61,1.08.12.9.21,2.89,2.89,2.16,6-1.66,6.26-1.38,6.67,4.38.16,2.19.24,4.2,2.78,4,1.07-.1,2.61-1.89,2.84-3.12,1.42-7.77-.44-13.73-8.5-17.3-10-4.45-21.19-8.22-26.66-18.65-6.76-12.9-16.6-23-26.92-32.72-9.89-9.36-17.28-20.38-23.12-32.65a188.91,188.91,0,0,0-10.66-18.42c-.93-1.49-2.46-3.3-4.84-2.46s-1.93,3.16-1.95,5c-.13,11.76,3.69,22.39,9,32.7,16.87,32.6,37,63.44,52.49,96.8,2,4.27,4.73,8.19,7.23,12.2,1.68,2.68,4.31,6.63,7.12,4.38,4.35-3.49-.68-4.72-3-6.35-2.14-1.47-1.89-3.52-2.12-6-.72-7.66-4-16-7.34-21.54-6.85-11.55-13.47-23.81-22.75-34a7.87,7.87,0,0,1-1.74-8.77c1.23-2.88,4.15-1.09,6.33-1.38,3.92-.52,6.22,1.58,6.71,5.07,1.7,12.14,11,20.29,19.85,24C1019.55,1450,1018.47,1453.15,1018.44,1458.66Zm-79.93-53.61c-1.06,7.72,1.83,13.49,4.45,19,15.27,32.17,31.82,63.69,51.87,93.17,6.63,9.74,11.27,21,20.44,28.93,4.29,3.72,9.45,8.07,14.46,3.59,5.83-5.2,2.9-11.61-1.58-16.83-4.63-5.39-10.21-10.11-14-16-19.74-30.49-41.63-59.65-56.78-93A36,36,0,0,0,938.51,1405.05Zm522-800.55c13.45-4.87,27.39-1.3,41-3.57,27.56-4.58,54.78-11.58,82.87-12.69,5.36-.21,9.82-3,13.65-6.47,4.84-4.39,10.12-10.55,5.43-16.25-3.81-4.64-11.22-7.95-18.09-1.65-4.17,3.83-9,6.93-14.08,10.76-1.36-5.25,4.8-7.89,3-11.58-12.09,6.05-26.89,5.77-35.27,18.87-2.51-5.84,5.12-7.7,1-12.61-3.48,3.26-7.12,6.27-10.27,9.73-6.25,6.85-20.88,7.67-21.92,6.54-10.85-11.73-13.56,2.3-18.8,5.45a50.54,50.54,0,0,1-15.27,5.92C1468.65,598.09,1464.14,599.77,1460.52,604.5Zm37.89,88.08c-10,11.5-19.05,4.94-27.9,4.09-8-.77-13.24-8.88-20.64-8.67a239.48,239.48,0,0,1-45.42-2.67c-4.29-.7-10.91-3.3-11.5,3.65-.47,5.41,6.19,5.44,10.15,5.46,17.74,0,33.65,6.55,50,12.36,24.12,8.57,48.61,16.36,74.87,15.1,7.71-.38,14.19-2.53,17.79-9.53,1.83-3.56,5.42-8.16,1.69-11.92-4-4-8.64-.35-11.53,2.35-6.87,6.45-13.75,8.45-21.94,2.73,3.11-5.31,11.62-5,13.78-12.78-8.46.86-14.75,5.7-21.56,9C1499,705.33,1495.75,704.15,1498.41,692.58ZM796.27,839.69c.91-5.29-2.12-8.09-6.14-10.07a21.57,21.57,0,0,0-6.71-2.1c-18.22-2.33-34.3-14.14-53.59-12-3.32.37-5.16-3.14-7-5.77a98.61,98.61,0,0,1-11.37-22c-3.35-9-9.38-15.53-18.56-18.57-3.11-1-6.29.34-8.51,2.85-.41.46.19,2.78.72,2.95,11.32,3.48,9,11.73,7.66,20.14-.38,2.33,1.13,5.9,3,7.5,6.78,5.85,15,10.26,16.65,20.42.3,1.78,3.08,2.16,5.12,1,6.31-3.42,7.71.24,7.72,5.51,0,4.86,1.79,8.94,4.25,13.33,7.09-8.74,7-8.63,13.71-.39,2,2.48,3.34,6.45,8.34,6.09.29-3.33.57-6.62.89-10.31,8.32,5.17,17.09,4.69,24.73-1.1,2.77-2.09,5.1-.87,7.74,0C788.53,838.32,791.88,840.85,796.27,839.69ZM503.58,1116.38c-.19,3.94-.73,6.2-.33,8.26,3.63,18.56,7.59,37,8,56.08.17,7,3.05,13.86,10.2,17.69,3.16,1.69,6.13,4.24,9.75,1.88,3.22-2.12,1.94-5.58,1.77-8.7-.52-9.86-2.14-19.88-1-29.57,4-35.24,5.21-70.82,13.57-105.55,2.67-11.07,1.47-22.32-9-31.31,2.72,52.7-14.45,103-15.56,155.26C511.73,1160.48,519.67,1136.23,503.58,1116.38Zm963.33-377.23c.07-4.6,6.44-6.49,3.2-10.1-1.59-1.78-6-1.92-8.93-1.47-14.73,2.27-26.7-5.15-39.28-10.59-6.48-2.8-12.22-7.43-19.45-8.33-3.38-.42-8-1.18-9.21,2.82s3.53,4.64,6.14,5.81c9.68,4.33,20.36,7,29.11,12.71,17.93,11.68,37.49,19.92,56.65,28.9,19.72,9.24,30.77,5.12,42.81-13.37,1.84-2.82,3.37-6.16,1.44-8.76-2.78-3.71-5.54.14-8,1.46-3.82,2-7.38,4.54-11.2,6.58-2,1.05-5.42,2.38-5.1-1.46.94-11.4-5.81-4.69-9.54-4.23-4,.51-7,5.57-12.53,2.93l4.81-9C1479.41,731.45,1474.39,738.34,1466.91,739.15ZM738.85,797.21c8.62-24,17.43-47.9,25.76-72,2.72-7.87-6-10.06-9.13-15.08-1.72-2.8-3.72-1-5.44,1.16-10.11,12.63-20.38,25.13-30.57,37.69-2.1,2.58-3.89,5.35-.72,8.29C730.28,768,734.43,782.26,738.85,797.21ZM1449,801.7c-3.76-15.47-16.87-15.52-25.12-22-7.21-5.67-17.56-6.56-23.19-14.94-1.26-1.89-3.48-4-5.88-2.16s-1.24,4.41.69,6c18.3,15.16,31.64,35.13,49.21,50.94,11.1,10,24,8.1,36.6,3.21a9.27,9.27,0,0,0,6.41-9c.08-4.85-3.51-5.35-6.65-6.92-5.59-2.81-11.33-5.56-16.36-9.23C1458.81,793.26,1453.7,789.66,1449,801.7Zm110.49-137c-3.63-1.79-4.71,4.61-8.19,2,.45-3.64,5.37-5.07,4-9.36-7,4.61-13.94,12.84-20.53,12.56-7.24-.31-14.91-5.36-23.32-5.49-7.51-.11-14.13-8.49-22.76-.79-6.09,5.43-14.46,2.88-21.56.34-7.3-2.61-14.74-3.76-22.09-2.09-9.1,2.07-17.92,1.45-27,.47-7.75-.84-16.06-3.12-24.2,2.49a25,25,0,0,0,4.11,1.74c40.33,7.93,81.64,7.47,122.12,14.24C1535.77,683.36,1550,680.55,1559.49,664.66ZM1448.17,408.31c.62-3.81.44-5.83-1.47-7-2.23-1.38-3.69.72-5,1.84a116.93,116.93,0,0,0-11,10.65c-17.92,20.48-35.82,40.94-55.69,59.65-11.43,10.77-22.82,21.87-30.76,35.76-2.08,3.64-5.34,8.74-1.82,11.64,3.91,3.25,6.93-2.59,9.25-5q44.46-46.68,88.36-93.9C1444.08,417.58,1447.14,412.5,1448.17,408.31ZM610.76,762.16c-8.56-16.42,2.8-26.5,12-37.35,1.47-1.74,3.63-4,1.45-6.15-2.68-2.58-5.08-.07-7,1.79-1.09,1-1.55,2.72-2.51,3.95C595.33,749.2,587,780,570.45,806.29c-2.34,3.7-4,8.51.65,11.62,4.42,2.94,9.12,1.7,12.84-2.12a59.51,59.51,0,0,0,5.31-6.33c12.93-17.82,21.13-38.62,35.07-55.86,2-2.54,4.88-6.28,2.29-10.72C618.61,747.43,617,757.16,610.76,762.16Zm204.46,734.77c-3.87-24.74-11.73-48.2-18-72.07-6.42-24.25-26-42.33-30.42-67.37-.18-1-1.31-1.94-2.08-2.84-2.92-3.39-6.86-4.52-10.65-2.68-4.1,2-2.77,6.1-1.56,9.38,2,5.52,4.55,10.86,6.74,16.31,10.43,26,26,49.51,35.66,75.83C800.4,1468.57,806.69,1483.27,815.22,1496.93ZM561.36,810.63c-3.21,1.51-5.08,1.8-5.91,2.88-18.67,24.32-38.06,48.3-40.78,80.73-.32,3.86-2.33,8.41,1.47,11,4.39,3,8.2-.79,11.65-3.19,16-11.18,20.69-29,26.56-46,1.15-3.36.26-5.81-3.81-4.56-2.88.88-5.74,3.86-8.09-.21-1.89-3.28.79-6.15,2.25-8.73C550.22,832.71,558.27,824.31,561.36,810.63Zm646,71c-1.44-10.53-.24-21.34-4.17-31.51-.78-2-.22-5-3.46-5.45-3.73-.49-4.47,2.56-5.5,5-7.55,18.11-13.92,36.74-24,53.75-1.46,2.46-3.51,6.31,2.11,8.47,22.21,8.52,35.59-.65,35-24.38C1207.29,885.59,1207.33,883.62,1207.33,881.65Zm187.2-148.87c18.27,15.7,33.09,30.5,50,42.28,11.47,8,24.53,17.05,40.54,11.43,5.92-2.08,16-2.26,13.79-11.11-2.49-9.9-11.24-4.8-17.79-3.1a37.85,37.85,0,0,1-5.75,1.18c-1.94.19-4.28.23-4.82-2.21-2.39-10.86-10.41-12.45-19.62-12.3-2.76,0-6.68.44-7.47-2.29-2.27-7.87-9.69-9.4-15.18-11.55C1418.23,741.17,1409.46,733.14,1394.53,732.78Zm34.85,112.34c11.47,0,14.25-4.47,10.54-12.87-3.92-8.86-10.26-15.78-17.14-22.39-7.33-7-15.81-12.77-21.34-22-1.4-2.33-9.37-2-13.57-5.19-.09-.07-2.14,1.57-2.15,2.42-.06,5.34-2.66,11.07,1.68,15.85,5.92,6.53,9.19,14.65,13.78,22C1408.26,834.21,1420.77,838.78,1429.38,845.12ZM427,835.47c-5.82-.33-6.12,9.07-10.89,5.66-5.63-4-6.91-1-8.33,2.91-2.13,5.81-6.47,9.68-10.6,13.91-16.84,17.25-31.31,36.11-38.92,59.43-1,3.17-1.14,6.73,2.17,8.32s4.82-1.45,5.88-4.08c3.52-8.73,11.25-14.14,17-21,14.45-17.1,23.1-38.55,40.51-53.36C427.37,844.26,427.82,839.84,427,835.47Zm550.53,426.27c17.37,21.91,40.53,37.12,61.39,55a5.86,5.86,0,0,0,6.62,1.08c2.74-1.37,1.92-3.87,1.7-6.2-1-11.49-3.07-22.53-10.37-32.14-1.76-2.31-2.69-4.66-5.87-4.54C1012,1275.59,994.68,1270,977.51,1261.74Zm390-337.9c12.31-12.05,10-26.3,11.19-39.85,2.92-32.8-10.19-59.87-29.37-84.83-4-5.15-9.84-7.8-15.39-2.65s-5.06,11.79,0,16.94a126.89,126.89,0,0,0,17.29,14.3c11.69,8.29,17.49,19.5,19.72,33.55C1374.29,882,1369.92,902.18,1367.55,923.84Zm-814.2,26.87c4-5,21.16-50.78,21.06-55.46,0-1.17,0-2.61-.64-3.45-9.06-12.19-8.58-24.69,1.63-39.33C552.53,865.89,541.41,920.55,553.35,950.71Zm551.87-7.41c-8.45-.15-14,2.06-16.41,8.16-2.32,5.91,3.48,7.92,6.9,10.82,4.79,4.06,9.93,7.73,14.46,12.05,11.53,11,26.21,9.78,36.1-3.11,1.9-2.48,1.59-4.3-.57-6C1132.8,955.43,1118.45,948.36,1105.22,943.3Zm137.52-291.93c14.64-16.64,40.38-19.71,48.74-44.1,7.1-20.72,17.58-40.26,19.24-62.63C1289,580.91,1270.9,619.18,1242.74,651.37ZM951.52,1253c16.41,36.84,41.18,67.11,70,94.34,8.93,8.44,18.55,15.72,29.89,20.7,3.89,1.71,6.87,1.65,9.27-1.67a8,8,0,0,0,.15-9.94,15.53,15.53,0,0,0-10.82-6.35c-18.57-3-31.71-13.86-43.24-28.34C988.44,1298.68,969.26,1276.32,951.52,1253ZM499.69,850.14c-.85,5.79,2.34,9.24,7.08,11,5.59,2,8.08-2.49,9.46-6.47,3.92-11.37,9.55-21.43,18.62-29.55,3.46-3.08,4.78-7.45,1.81-11.76-4.63-6.73-1.25-11.94,3-16.9,4.06-4.79,8.59-9.17,12.59-14,2.4-2.9,6.37-7.26,2.78-10.05-3.75-2.91-7.07,2.16-8.83,5.27-9.79,17.29-23.5,31.5-35.8,46.82A49.07,49.07,0,0,0,499.69,850.14Zm492.66,349c2.76-7,11.68-4.47,14.72-10.24-3.06-3.38-5.73-2.63-8.78-.89a97.87,97.87,0,0,1-9.66,4.4c-2.7,1.16-6,1.88-7.18-1.35-1.56-4.13,2.62-3.66,4.88-4.71,3.64-1.69,8.4-1,11.51-4.66-4-3.8-7.93-1.28-10.37.06-21.11,11.62-43.14,16.85-67.15,12-2.81-.57-7.27-.56-7.53,3.5-.24,3.55,3.73,5.13,6.77,5.56,23,3.29,46,6.84,69.24,3.51,6.85-1,15.32.52,22.53-8.31C1003.47,1199.24,998,1203.17,992.35,1199.12ZM621,798.51c-.8-5.36,5.9-12.3-.07-14.26-7-2.28-7.68,6.49-9,11.23-4,14.18-9.5,27.52-17.69,39.82-2,3-5.44,7.09-1.46,10.61,3.37,3,7.6.82,11-1,16.17-8.74,24.48-22.74,27-40.67.54-3.84,3.41-8.77.13-11.09C626.46,789.9,625.53,797.47,621,798.51ZM508.8,721.85c7-7.38,14.68-11.12,23-14a89,89,0,0,0,12.71-6.06,5.54,5.54,0,0,0,2.63-7.16c-1.35-3.5-4.71-2.3-7.2-1.86-2.67.47-5.66,1.26-7.68,2.93-14.63,12-31.68,21-44.68,35-5,5.35-10.18,10.93-13.11,18-1.51,3.66-1.92,7.15,1.3,9.69s5.62-.56,8.13-2.4c9.51-7,17.1-16.46,28-21.61,2.57-1.21,4.49-3,4.61-6.29C516.74,722.79,511.77,724.11,508.8,721.85Zm42.37,24.71c-13.92,2.21-22.77,10.74-30.37,20.77-5.71,7.55-10.68,15.84-18.21,21.6-6.95,5.32-8.69,12.9-11.11,20.31-1.5,4.63-.32,9.08,4.29,11,4.41,1.85,7.38-1.28,9.47-5a154.06,154.06,0,0,1,18.59-25.86c1.76-2,4.29-5.16,3.77-7-3.5-12.76,6.39-17.25,13.62-23.38C545.05,755.79,550,753.66,551.17,746.56Zm740.58-268.31c28.09-19.43,40.28-47.26,33.45-70.7C1300,423,1296.84,449.86,1291.75,478.25Zm2.64,339.62c.2,2,0,4,.65,5.86,7.14,21.43,21.93,37.9,35.72,55,1.37,1.69,3.28,2.58,5.09,1.1,1.64-1.34,1.37-3.44.89-5.47-5.14-22.15-18.91-39.92-29.94-59.06a7.76,7.76,0,0,0-3.57-3C1297.83,810,1293.82,810.43,1294.39,817.87ZM1140.86,1214l2,1.58q20.59-6.63,41.21-13.25c3.31-1.06,8.08-1.85,6.1-6.63-4-9.82-5.33-20.77-11.86-31.1Zm213-629.23a11.76,11.76,0,0,0,3.41,0c31.6-10,52.38-32.82,69.27-59.72,3.11-4.95,6-12.14-1.28-20.78C1407.35,537,1384.12,563.86,1353.83,584.81ZM1253.9,761.33c-2.58,6.95-4,11-9.64,12.47-8.2,2.18-7.8,9.52-5.81,15.45s4.36,13.45,13.78,10.92c7.5-2,10.36,1.6,12.27,8.58,1.81,6.66.87,14.22,7.2,21.86C1278.42,803.73,1264.84,784.23,1253.9,761.33Zm-187.09-58.45c-10.8-4-15.3,2.69-19.08,9.79a206.21,206.21,0,0,0-8.55,19.35c-1.12,2.73-3.46,5.67-.62,8.69s5.61.87,8.67.36c11.38-1.88,18.75-11.32,29.1-15,4.27-1.51,8.39-3.1,8.39-8.48,0-4.9-3.26-7.93-7.26-10-5-2.56-8.24,1.07-11.14,4.2-6.28,6.76-12.28,13.78-20.38,22.93C1046.6,718,1061,714,1066.81,702.88ZM747.26,881.49c-.15-5.51-1.66-12.45-8-9.75-8.36,3.56-17.6,9.19-18.66,19.66-1,9.77-1.25,19.47-4.81,28.82-1.09,2.86-.9,6.62,3.17,7.73,3.59,1,5.08-2,5.74-4.56,2.39-9.17,8.8-15.62,14.38-22.71C743.49,895.09,746.88,888.88,747.26,881.49Zm588.08-459.71C1362.13,406.87,1360,381.6,1361,356,1339.87,374.08,1335.89,397.06,1335.34,421.78ZM568.11,950.51l-2.9.18c-2.52,15.84-5.1,31.68-7.52,47.53-.76,5,1.61,8.54,6.44,9.82,5.09,1.35,6.91-2.43,8.35-6.29,3.57-9.58,7.16-19.15,10.59-28.79,1.12-3.14,1.36-7.31-2.72-7.61C571,964.68,569.82,957.55,568.11,950.51Zm320.06,307.72c14.57,28,31.66,51.93,36.55,81.51.54,3.27,2.28,7.63,6.92,6.13,3.86-1.26,2.44-5.13,2-8.21a173.73,173.73,0,0,0-15.5-48C912,1276.82,902.31,1266.57,888.17,1258.23ZM485.3,794.67c20.23-22.23,33.41-46.9,56.6-62.59a24.91,24.91,0,0,0,3.44-3.23c2.45-2.45,6.3-5,3-8.76-3-3.5-6.52-1.32-9.23,1.29-13,12.59-26.86,24.52-38.75,38.13C492.39,768.6,485.39,779.36,485.3,794.67Zm728.32-210.06c-1.52,8.41,2,15.44,6,22.35,1,1.68,2.15,3.6,4.48,3.08,2.68-.6,2.16-3,1.77-4.78-2.82-12.85,1.84-24.85,4.06-37.12,1.74-9.58.95-18.76-3.33-27.57-1-2.13-2-4.77-4.73-4.66-3.09.13-3,3.08-3.27,5.38Q1216.08,563,1213.62,584.61ZM630.06,994.76c-2.2,8.59-.36,51.93,1.94,59.79,5.25-4.7,8-10.46,7.76-16.55-.46-12.89,2.88-25,6-37.2,1.58-6.24,1.36-12.51,1.42-18.81,0-3.2.16-7.47-3.4-7.92-4.3-.55-5.66,4-6,7.38-.83,8.57-1,17.2-1.47,26.9Zm737.27-182.87c2.45-25.82-48.74-66.49-70.81-58.48C1320.77,771.93,1352.61,779.44,1367.33,811.89Zm-532.74,235.7c-.3,9.43-1.83,18-8.93,24.66-1,.94-1.84,3.14-1.46,4.33,3,9.22.75,17.79-1.41,26.87-1.34,5.59,2.41,12.6,9.49,12.47s6.07-7.09,6.24-12A266.76,266.76,0,0,0,834.59,1047.59Zm401.89-456c5.83.59,9.68-2.15,13.77-4.38,14.7-8,23.36-20.95,29.4-36,1.33-3.32,6.46-7.51,1.9-10.21s-8.5,1.23-11.13,5.92c-7,12.53-17,22.68-27.08,32.72C1240.28,582.64,1237.09,585.73,1236.48,591.54ZM573.24,755c11.8-14.22,15.81-33.88,32.41-44.81-7.37-1.24-9.14,6.33-16.14,6.49,8.39-13.42,22.65-21,28.3-35C591.25,698.68,573.83,721.52,573.24,755Zm279.7-5.27c-2.41,6.33-.85,11.81,1.91,17.75,5,10.87,12.79,20.93,11.3,34.09-.36,3.21-1.29,7.73,4.3,7.83,4.68.08,8.7-1.67,9.94-6.62,1.71-6.75,1-13.25-3.51-18.95-6.65-8.34-11.72-17.66-16.66-27.06C858.67,753.82,857.65,750,852.94,749.74ZM655.67,685.47c-1.46-4.74-.61-11-6.66-11.63-6.61-.72-5.32,6.21-6,9.57-1.79,8.4-2.9,16.91-5.35,25.23-2,6.63-.4,13.34,6.85,15.46,6.85,2,7.41-5.35,10-9.31C660.82,705.09,649.6,694.8,655.67,685.47ZM853.81,1165c-4.21-6.9-6.88-12.49-10.63-17.21-9.37-11.79-19.79-22.57-34.52-27.61-3.52-1.21-8.51-3-10.71,1.36-2.48,4.89,3.06,7,5.95,8.37a82.1,82.1,0,0,1,24.79,17.55C835.38,1154.31,842.35,1161.22,853.81,1165Zm440.3-651.62c17.7-14.2,23.38-36.65,38.88-51.61a4.51,4.51,0,0,0-1.52-7.09c-3-1.51-5.61.13-7,2.63-6.66,11.83-17.46,20.28-25.09,31.23C1294.46,495.61,1291.1,503.51,1294.11,513.4ZM927,1584.53c5-3.42,4.24-7.67,5-11.32,3.27-15.18-7.28-25-14.11-36.23-1.64-2.71-2.59-8-6.92-6.23-3.23,1.29-3.93,6.06-2.81,9.54C913.07,1555.5,919.68,1570,927,1584.53ZM636.34,825c27-9.29,18.81-35.77,30.77-55-11.28,2.27-17.16,8.23-18.43,15C646.08,798.78,643.16,812.27,636.34,825Zm26.53-77.21c0,2.76-.69,5.62,2,6.67s4.55-1.33,5.75-3.12c5.72-8.49,11.6-16.92,16.53-25.86,2.81-5.1,3.07-11.61-3.92-13.75-5.57-1.71-11.89.41-12.79,7C669.07,728.9,665.82,738.48,662.87,747.77Zm753.4-190.54-3.52-3.71c-8.5,9.8-17.47,19.23-25.37,29.49-8.36,10.84-24.86,8.88-33.78,21.67C1385.25,599.67,1414.83,579,1416.27,557.23ZM808,1086.89a29.7,29.7,0,0,0,0,4.72c.51,3.21-1.94,8.3,2.37,9.14,4.64.9,4.59-4.58,5.29-7.66,3-13.43.38-28.16,9.63-40.23,1.11-1.45.27-4.63-.11-6.94-.57-3.37-2.51-6.15-6.16-6-3.46.16-6.26,2.77-6,6.18C814.21,1060.1,807.23,1073,808,1086.89Zm560.5-572c30-14.3,42.32-43.56,59-69.2C1408.47,469.28,1390,493.32,1368.51,514.88ZM690.07,1326.74c-4.69,13.35-11.3,23.79-14.21,36.49,9.46-2.62,17.73-4.82,25.95-7.24,4.55-1.33,6.69-3.42,2.89-8.27C699.87,1341.55,695.69,1334.87,690.07,1326.74Zm629.17-253c-.88,9-2,16.73-4.56,24.22-.88,2.57-2.23,5.7.42,7.66a7,7,0,0,0,8.81-.46c6.15-5.51,11.77-11.83,14.63-19.54,1.14-3.08,1.78-12.72-5-9S1324.75,1074.48,1319.24,1073.69Zm-161.35-21,11.71,35.19,21-21.53Zm159.39-168.84c4.17,13.09,7.78,24.85,11.76,36.49.59,1.75,3.17,2.4,5.19,1.75,2.45-.78,3.42-2.77,4-5.3C1343.2,896.46,1340.33,891.43,1317.28,883.88ZM965.19,1219.72c16.61,4.83,33.38,8.17,50.68,7.72,5-.12,6.69-3.67,6.09-8.21-.45-3.39-2.24-6.57-6.14-5.31-8.77,2.84-18.43,6.25-26.68,3.95C980.35,1215.42,973.16,1218,965.19,1219.72Zm297.4-69.06a208.71,208.71,0,0,1-17.18,45.82c-10.21,19.36-14.61,35.74-13,47.13C1240.29,1211.91,1263.83,1185.48,1262.59,1150.66Zm127-90.87c3.7-.22,9.59-.4,15.43-1,3.48-.35,8.49-1.19,8-5.16-.54-4.58-5.86-4.09-9.66-4.09-1.9,0-3.79,1.17-5.71,1.27-10.48.53-21.11,3.08-31.19-2.29-2.43-1.29-4.71-6.56-7.46-2.77s1.17,7.34,4.34,9.61C1370.67,1060.57,1379.33,1058.58,1389.62,1059.79Zm-21-524.83c24.29-18.62,46.69-38.71,57-68.62C1411,492.87,1388.14,512.58,1368.62,535Zm28.17,76.35c-3.19,1.1-8.17-2.29-9.19,2.58-.93,4.45,3.59,6.63,7.1,8.22,4.53,2,9.11,2.35,12.85-2a29.79,29.79,0,0,1,12.56-8.29c4.74-1.78,13-3.92,10.7-9.28s-9.79-.74-14.84.56c-2.55.66-5.44,2.06-7,4C1405.63,611.48,1401.69,612.66,1396.79,611.31ZM1055.37,988.94c-.58-3.44-3.26-5.31-5.65-7.32-1.87-1.57-4.52-1-5.07.8-2.45,7.84-10.05,10.43-14.88,15.73-2.85,3.14-4,7.66,1.16,11.17s8.17.88,10.26-3.37c2.61-5.33,4.37-11.08,11.43-12.35C1054.68,993.23,1055.57,991.17,1055.37,988.94Zm-146.79,627c-10.21,22.43-24.27,44.07-14.64,70.49C890.89,1661.15,906.18,1639.92,908.58,1615.91Zm-61.12-8.34c13.3,25,21.27,51.88,29.24,78.74C879,1655.54,864.42,1631,847.46,1607.57Zm-153.8-665.1c-11.45,8.76-12.71,21.65-18.24,32.08-.84,1.57-.7,4.24,1.35,5.14,2.48,1.09,4.66-.56,6-2.5C689.79,967.31,697.69,957.69,693.66,942.47Zm379.43,38.39c-4.36,13.26-.17,20.1,16.78,28.59,2.39,1.2,5.24,3.65,7.43,1,2.52-3-1.24-4.71-2.88-6.52C1087.68,996.49,1080.78,989.15,1073.09,980.86ZM637,744.67c-.89,8-.67,13,6.11,14.28,1.61.29,13.77-19.47,13.06-21.13a4.44,4.44,0,0,0-2.24-2.38C645.57,732.83,637.34,738.58,637,744.67Zm-70.32-38c4,0,20.36-24.21,18.87-27.9-1.21-3-3.32-3.3-5.39-1.38-7.51,7-14.47,14.32-16.08,25.09C563.71,704.62,564,706.33,566.63,706.66ZM886,1232a4.62,4.62,0,0,0-4.62,2c-2.34,3.41,1.16,4.83,3,6.49,4.64,4.16,10.73,6.13,15.31,10.67,4,4,6.31,1.16,6.11-3.52C905.28,1236.06,895.72,1235.28,886,1232Zm-6.89,410.28c5.16-14.39,16.06-26.59,16.47-42.81C890.43,1613.88,874,1624,879.06,1642.27Zm-61.12-444.66A124.45,124.45,0,0,0,786.75,1177c-2.26-1-4.62-2.51-6,.45s1.32,4.32,3.61,4.81c6.65,1.44,10.68,5.86,14.73,11S809.09,1200.28,817.94,1197.61Zm62.32,85.11c4.76-.07,8.74-2,8.54-6.44-.26-5.67-3.38-10.23-10-10.78-4.46-.37-8.63,1.22-8.06,5.91C871.39,1276.71,873.92,1282,880.26,1282.72Zm-20.45,289.55c1.67,0,14.88-18.56,14.09-20.06a7.16,7.16,0,0,0-3.11-3.21c-5.19-2.21-8.15.8-10,5.13-2.29,5.49-7.29,10.62-3.05,17.26C858.12,1571.91,859.11,1572,859.81,1572.27ZM1293,1148.38a86.83,86.83,0,0,0,7.7-39.75C1293,1120.86,1289.72,1133.9,1293,1148.38ZM776.11,969.06c-2.42,16.44-10.13,30.63-18.69,44.46C776.15,998.21,780.5,987.9,776.11,969.06Zm556.83-425c13.79,6.76,4,13,1.89,20.67,9.8-1.45,16.22-6,15.84-14.69C1350.3,541.63,1342.71,542.22,1332.94,544.07Zm79.25,490.22c.23-6-4.61-6.45-7.4-8.86-2.24-1.93-4.62-1.16-6.38.34-3.5,3,.25,4.35,1.71,6.32,2.52,3.39-.54,4.72-2.61,6.39-1.77,1.42-4.36,3-2.2,5.45,1,1.11,3.64,1.29,5.42,1C1407.3,1044,1410.62,1039.52,1412.19,1034.29Zm-526.53,542c-21.09,23.79-23.86,30.35-16.63,43.94C868,1602.24,883.44,1593.56,885.66,1576.32Zm-40.49-493.74c8.29-19.29,4.63-42.39-6.76-43.89C850.44,1051.76,839.14,1067.88,845.17,1082.58Zm402-577.72c-9.22,10.94-11.21,23.35-5.27,33.76C1246.35,527.57,1249.33,517,1247.17,504.86Zm-425.56,495.6a48.79,48.79,0,0,1-24.13-15.56c-1.83-2.11-4.83-5.71-7.74-2.29s-.14,6.76,2.78,9.07C800.89,998.28,811.23,999.06,821.61,1000.46Zm236,382.22c-3.56,10.66-6.41,21.21-.92,34.24C1062.24,1404.27,1063.43,1393.61,1057.57,1382.68ZM857,701.41c-1.2,17.47-1.83,34.86,7.69,50.82C858.12,735.85,862.58,717.92,857,701.41ZM670.67,664.16c-4.67,10.27-.28,17.26,1.91,24.11a6,6,0,0,0,9,2.81c4.75-3.39.5-9.55-1.18-9.88C671.73,679.49,674.36,671.66,670.67,664.16Zm502.43,480.22a83.28,83.28,0,0,0,27.78-34.81C1187.32,1120.56,1181.54,1133.54,1173.1,1144.38ZM1409,507.29c12.82-3.62,20-11.58,21.4-26.59Zm-215,567.72c-9,3.1-12.24,9-15.81,14.51-1.5,2.33-7.88,4.29-2,7.8,3.86,2.31,6-1.54,7.78-4.78C1186.93,1087.18,1190.07,1082,1194.08,1075ZM631,671.6c.71-.23,1.76-.24,2.1-.73,3.88-5.7,7.82-11.38,11.38-17.29,1.11-1.85,0-4.4-2.42-3.89-7.63,1.62-6.73,10.56-11.8,14.66-1.44,1.16-2.83,3.84-1.23,6.26C629.37,671.14,630.3,671.29,631,671.6Zm204.89,564.72c-5.47-1.91-4.37-9.68-5.77-9.12-6.14,2.5-7.1,9.38-9.17,15-.66,1.8.67,4.83,2.71,3.66C827.84,1243.49,831.39,1240,835.88,1236.32Zm251.31-269.89c6.13,9.66,9.51,22.42,24.85,21.69Zm268,107.32c5.21,6.61,11.81,10.15,19.85,10.44,1.12,0,2.93-1.54,3.31-2.73.81-2.52-1.38-3.12-3.3-3.53Q1365.08,1075.82,1355.15,1073.75Zm-20.62-476.87c-10.39-.19,1.18,10.54-5.34,12.9-.88.31,1.19,3.14,2.54,2.56,4.65-2,9.61-4.37,10.6-9.9C1343.27,597.21,1338.8,597.32,1334.53,596.88ZM894.8,1512.29c1.67,4.53.7,10.72,7,12.49,3.35.93,4.47-1.94,3.56-4.24-2.08-5.25,0-13-6.34-15.39C895.44,1503.83,895.65,1509.35,894.8,1512.29Zm-112-838.93c-16.25,13.95-17,16.07-8.35,23.46C777.12,689.42,779.69,682.21,782.84,673.36ZM1081.1,974.65c7.32,9,10.05,22.26,22.66,26.68C1095.71,992.87,1091.83,980.92,1081.1,974.65Zm-288.52,37.71c8.65,9.89,20.34,15.13,30.69,13.88Zm204.5,21.33,2.67,2c8.53-3.62,9.4-13,11.51-21.47Q1004.17,1024,997.08,1033.69ZM788,936.44c-4.46,18,10.5,33.82,25.45,30.3C804.7,961.46,791.5,950.91,788,936.44Zm381.29,196.07c8.25-4.56,13.05-10.36,15.32-18.27C1179.38,1119.66,1168.24,1120.2,1169.33,1132.51Z" transform="translate(-337.99 -130.13)"/></svg>