<svg xmlns="http://www.w3.org/2000/svg" xmlns:xlink="http://www.w3.org/1999/xlink" xmlns:inkscape="http://www.inkscape.org/namespaces/inkscape" version="1.1" width="2048" height="1920" viewBox="0 0 2048 1920">
<defs>
<clipPath id="clip_1">
<path transform="matrix(1,0,0,-1,0,1920)" d="M0 1920H2048V0H0Z"/>
</clipPath>
</defs>
<g inkscape:groupmode="layer" inkscape:label="Layer 1">
<g clip-path="url(#clip_1)">
<path transform="matrix(1,0,0,-1,1702.6729,1549.6151)" d="M0 0C-.955-18.451-8.027-30.706-27.823-13.522-41.656-33.979-68.836-31.018-85.709-46.917-113.473-73.025-139.601-100.867-157.019-134.515-167.949-155.636-180.263-154.272-197.623-147.725-254.983-126.098-283.273-75.558-272.733-13.463-267.881 15.178-262.971 43.819-259.23 72.596-257.905 82.728-256.366 94.847-248.748 98.782-236.22 105.27-230.433 90.346-222.893 83.643-213.931 75.675-206.858 65.563-198.987 56.366-225.115 104.569-216.035 155.051-214.496 204.17-212.275 274.389-212.703 344.647-215.762 422.387-171.476 390.94-136.951 361.364-105.66 327.832-97.321 318.889-88.066 310.784-80.156 301.51-58.373 275.986-16.99 258.1-18.899 223.614-21.354 179.503-46.819 139.133-75.577 103.712-81.539 96.366-88.183 89.567-97.243 79.474-73.785 80.292-60.731 93.502-46.703 103.751-22.426 121.442-2.143 114.35 .273 84.248 2.513 56.347 1.442 28.037 0 0M-340.768 78.628C-400.173 71.263-460.69 72.354-519.316 86.597-582.969 102.087-608.201 161.979-579.423 229.334-560.836 272.861-542.599 315.569-481.635 319.525-454.591 321.258-435.224 354.926-402.609 360.051-369.857 365.194-342.482 362.642-317.329 333.514-290.227 387.99-299.482 439.895-314.016 492.695-265.171 446.675-247.772 387.542-240.544 325.545-235.341 280.83-234.289 235.628-238.771 190.133-245.59 120.888-271.386 87.24-340.768 78.628M-312.693-81.793C-322.552-112.927-352.207-112.772-373.035-85.495-394.798-57.01-413.268-25.309-446.585-7.56-412.372-54.028-404.832-105.913-405.943-167.774-451.943-135.1-470.946-126.664-551.232-118.5-598.291-113.715-588.115-58.977-590.745-22.231-593.044 9.995-588.29 39.104-554.447 54.165-551.232 55.606-547.316 56.113-543.731 56.074-479.182 55.217-414.496 60.477-350.122 50.521-326.371 46.858-312.284 32.596-306.42 11.885-297.535-19.503-303.283-52.119-312.693-81.793M-605.105 61.978C-614.359 61.978-621.88 69.479-621.88 78.753-621.88 88.008-614.359 95.529-605.105 95.529-595.83 95.529-588.329 88.008-588.329 78.753-588.329 69.479-595.83 61.978-605.105 61.978M-623.575-89.218C-636.96-147.61-647.423-148.721-707.881-149.11-730.19-149.247-758.324-155.326-780.73-167.425-801.247-178.511-808.534-169.899-814.632-151.663-831.408-101.414-831.232-55.491-784.491-20.031-775.041-12.88-765.26-6.178-755.635 .739-757.818 3.193-759.98 5.629-762.143 8.064-808.417-6.217-852.742-26.383-890.969-55.589-964.481-111.76-1038.909-70.942-1069.732-2.184-1074.992 9.545-1085.299 20.066-1079.961 37.446-1054.768 7.87-1031.875-22.291-995.577-37.235-1017.165-3.938-1047.131 23.418-1061.802 67.178-1029.673 51.338-1004.754 27.568-964.364 23.359-990.55 42.843-1013.385 56.131-1032.479 81.05-1004.832 83.291-983.166 72.458-960.487 69.341-871.193 57.105-782.036 47.733-692.021 65.717-649.391 74.231-615.178 47.344-614.242 4.967-613.541-26.402-616.561-58.648-623.575-89.218M-1124.851 199.153C-1159.415 155.022-1149.303 119.503-1132.098 78.705-1117.681 44.511-1111.602 8.583-1108.796-27.715-1107.686-41.802-1098.703-63.039-1116.531-70.229-1138.314-79.016-1163.584-87.686-1186.263-70.209-1199.57-59.961-1211.3-47.628-1223.75-36.23-1225.601-36.873-1227.432-37.516-1229.283-38.139-1225.873-45.952-1222.464-53.745-1216.365-67.735-1249.936-53.551-1263.594-26.975-1285.805-2.601-1284.714-28.339-1266.419-41.003-1262.016-60.156-1349.634-35.665-1424.354 45.524-1424.743 115.451-1424.821 130.025-1427.432 145.962-1411.533 154.535-1394.154 163.907-1385.094 149.255-1374.222 140.02-1356.161 124.686-1337.807 109.703-1313.394 100.818-1328.806 118.295-1344.1 135.889-1359.668 153.249-1411.533 211.018-1393.297 305.845-1322.746 339.318-1269.926 364.355-1215.031 388.231-1158.275 402.142-1125.367 410.208-1092.177 428.347-1055.801 439.589-1070.686 360.856-1074.739 263.156-1124.851 199.153M-1433.024 250.735C-1429.927 287.813-1416.619 312.031-1392.83 331.768-1352.382 365.319-1308.368 390.882-1258.899 410.619-1161.812 449.352-1061.802 479.143-963.819 514.895-955.713 517.837-948.193 521.89-932.781 515.48-1022.932 479.883-1105.075 437.604-1195.402 416.21-1251.67 402.884-1301.86 374.885-1351.135 346.303-1386.458 325.806-1399.922 283.721-1433.024 250.735M-1390.608 386.147C-1375.392 393.648-1359.746 400.779-1343.594 405.845-1246.955 436.201-1165.942 503.712-1064.432 522.572-1035.869 527.891-1007.696 535.139-977.574 531.943-1126.02 476.727-1275.402 424.51-1419.483 354.35-1418.158 371.963-1404.189 379.464-1390.608 386.147M-1171.456 519.084C-1235.285 476.999-1302.445 443.117-1379.951 435.09-1322.864 494.827-1246.858 506.128-1171.456 519.084M-1211.164 570.56C-1147.102 581.783-1082.844 583.01-1018.003 573.327-973.268 566.663-927.754 570.346-882.786 575.45-865.816 577.379-849.06 580.204-831.719 573.872-941.276 551.388-1053.327 549.186-1164.5 536.074-1147.063 552.694-1122.883 552.284-1103.497 564.189-1184.958 570.95-1247.287 503.03-1332.021 505.134-1299.425 547.004-1256.814 562.572-1211.164 570.56M-825.114 616.503C-862.562 609.138-897.905 600.39-936.931 600.955-883.312 659.659-883.312 659.659-825.114 616.503M-900.419 1041.188C-902.523 1140.146-907.301 1250.629-887.467 1357.887-886.356 1363.829-883.626 1376.226-880.828 1383.677-879.68 1386.738-878.402 1390.667-875.986 1392.362-876.454 1336.892-874.098 1282.231-855.647 1232.1-852.705 1224.15-848.826 1216.113-844.598 1208.884-836.025 1194.213-828.524 1187.861-817.652 1209.099-780.204 1282.279-699.6 1309.732-623.965 1276.317-602.942 1267.024-586.731 1253.054-582.231 1222.172-621.568 1241.617-661.062 1240.974-700.633 1239.279-743.068 1237.447-771.982 1214.515-796.805 1179.074-782.815 1176.093-779.62 1185.932-774.457 1190.706-764.54 1199.863-729.605 1208.514-729.917 1203-730.424 1194.096-759.532 1177.691-756.142 1172.956-754.233 1170.287-729.333 1185.114-723 1180.263-719.786 1177.808-750.55 1169.099-748.427 1166.39-742.62 1159.006-722.065 1172.45-719.143 1169.099-716.084 1165.572-688.378 1137.516-685.202 1134.768-667.589 1119.571-648.047 1115.343-625.212 1112.089-610.619 1110.024-607.579 1092.567-605.26 1079.864-603.059 1067.803-614.379 1065.075-623.867 1061.354-640.604 1054.807-659.347 1052.469-674.856 1038.441-658.061 1027.745-642.805 1050.696-626.381 1037.564-636.824 1033.025-646.43 1028.68-656.191 1024.686-665.855 1020.75-674 1010.857-683.975 1017.443-695.51 1025.041-691.651 1037.155-689.605 1048.884-686.683 1065.543-688.3 1093.814-693.697 1118.48-696.522 1108.719-696.62 1079.084-703.458 1081.987-712.693 1085.903-712.947 1116.844-717.331 1117.974-727.17 1120.467-717.038 1077.74-726.585 1083.273-732.762 1086.858-740.964 1121.169-746.381 1121.812-746.771 1117.116-743.419 1084.13-743.809 1079.435-751.126 1093.121-755.944 1099.571-761.594 1116.405-769.254 1127.639-774.379 1124.13-771.125 1117.701-758.714 1091.885-746.556 1065.913-733.775 1040.253-722.046 1016.736-734.827 1014.223-752.616 1019.191-774.827 1025.368-797.525 1031.622-817.964 1041.929-842.435 1054.262-863.556 1071.388-842.961 1105.173-870.297 1078.266-863.807 1029.888-862.394 994.825-862.063 986.612-884.914 1001.847-882.819 994.392-878.118 977.661-871.743 950.765-866.537 933.802-857.399 903.992-849.424 871.759-840.273 840.448-877.37 902.367-898.88 968.202-900.419 1041.188M-576.697 1034.603V1023.419H-609.411C-585.309 1024.276-576.697 1034.603-576.697 1034.603M-608.884 994.934-577.224 1003.156C-600.331 996.259-606.079 984.101-606.079 984.101ZM-544.939 1000.292C-556.941 968.787-590.375 865.173-598.928 831.447-603.195 841.87-608.436 852.021-611.398 862.815-612.723 867.667-634.116 915.519-632.304 920.136-631.193 922.903-613.249 884.481-601.383 883.604-591.154 882.844-563.624 989.42-544.939 1000.292M-529.839 941.607C-533.483 906.517-534.866 875.285-540.302 844.793-549.381 793.804-541.529 742.718-542.698 691.749-543.4 660.925-514.622 640.078-490.716 618.568-522.883 611.359-534.106 626.264-548.232 650.638-581.802 708.524-560.37 767.423-555.207 824.413-552.966 849.06-565.066 873.161-554.213 897.223-547.901 911.213-546.186 927.345-529.839 941.607M-666.361 712.326C-693.073 678.541-697.009 636.462-724.306 667.909-760.136 709.194-808.319 733.919-852.528 765.171-831.602 726.418-797.74 698.81-766.605 669.097-747.277 650.666-725.124 635.196-704.569 617.972-698.315 612.731-689.547 607.158-694.457 597.066-697.788 590.208-704.958 587.188-712.947 587.324-727.404 587.597-741.373 586.292-755.675 593.091-815.859 621.713-891.862 749.583-887.303 814.794-885.881 834.979-885.18 851.445-880.504 882.268-845.472 765.191-778.496 698.452-666.361 712.326M-638.651 636.59C-636.508 658.899-621.856 681.948-600.872 685.085-583.727 687.657-573.965 665.407-570.166 645.981-566.427 624.039-571.53 607.092-596.391 611.164-611.686 613.677-641.71 604.832-638.651 636.59M-661.432 1000.292C-637.331 1001.149-628.719 1011.476-628.719 1011.476V1000.292ZM-758.402 914.759C-770.346 904.608-780.263 896.191-790.18 887.754-754.155 913.005-727.618 908.621-704.608 870.92-698.474 860.868-680.966 877.837-671.536 863.786-669.991 861.485-671.768 859.849-674.531 859.632-708.909 856.928-745.348 861.245-788.134 843.819-744.294 841.34-710.531 847.249-669.53 848.177-666.418 848.247-665.831 843.578-668.744 842.481-701.294 830.216-736.226 842.159-750.726 804.014-732.756 809.137-716.055 818.901-685.995 817.102-676.919 816.559-666.42 817.185-663.244 804.306-660.516 793.278-668.268 778.296-674.69 771.112-692.184 751.544-722.491 769.059-742.841 757.362-768.982 742.336-685.578 736.737-689.592 734.885-706.999 726.856-748.814 737.069-771.809 749.291-786.34 757.015-804.614 784.358-813.716 805.748-836.103 858.295-847.832 915.363-866.537 978.217-825.913 954.369-792.927 935.002-758.402 914.759M-734.73 952.577C-730.638 955.187-724.695 940.341-721.013 956.298-717.72 970.619-721.851 983.75-720.779 997.155-720.097 1005.553-715.937 1015.67-706.02 1013.547-697.428 1011.696-698.534 1001.366-702.211 994.427-710.563 978.666-705.582 961.442-705.699 944.744-705.816 929.06-704.199 913.356-703.185 894.807-727.15 901.529-740.925 920.487-762.474 934.652-753.278 941.705-731.047 933.034-734.73 952.577M-810.092 1021.354C-780.282 1018.782-762.474 1000.292-762.474 1000.292-778.061 1004.403-810.092 1021.354-810.092 1021.354M-736.97 953.531C-778.12 949.576-810.969 962.065-829.264 1003.156-802.474 978.977-758.597 987.647-736.97 953.531M-1035.473 437.518C-1036.252 450.65-1028.576 452.052-1021.757 454.839-988.537 468.458-954.967 481.239-915.239 496.767-935.093 451.702-943.9 410.942-941.055 367.688-938.172 323.752-932.19 318.687-894.236 335.462-839.565 359.622-803.695 352.647-768.995 308.263-758.805 295.228-751.732 293.163-740.256 304.386-719.117 325.077-696.808 321.609-673.349 308.166-619.36 277.186-588.284 194.887-611.742 138.657-624.426 108.224-652.171 92.053-682.409 86.48-799.097 65.029-912.96 68.497-1017.139 135.111-1065.322 165.896-1081.669 212.13-1066.023 267.113-1050.164 322.856-1031.946 378.521-1035.473 437.518M-433.083 521.378C-415.977 514.422-416.912 501.056-422.406 488.041-433.901 460.784-457.438 448.333-484.91 443.56-497.964 441.28-511.778 443.638-525.163 442.82-562.435 440.521-585.484 455.211-590.063 494.218-590.882 501.154-594.681 507.759-599.045 519.936-614.749 482.391-632.265 475.065-651.437 515.825-655.47 508.168-658.509 504.466-659.464 500.296-673.025 440.813-672.947 441.456-735.626 442.703-774.905 443.502-809.41 457.121-841.929 477.286-859.951 488.45-869.264 498.601-840.487 509.863-798.597 526.268-757.779 545.304-716.473 563.19-685.806 576.458-657.223 578.952-631.037 537.16-627.258 576.867-609.294 581.953-584.004 575.659-531.807 562.722-482.65 541.485-433.083 521.378M-235.012 460.36C-295.977 512.382-385.835 576.542-457.34 573.639-379.367 594.856-286.722 533.97-235.012 460.36M-127.969 503.244C-209.274 512.655-275.986 552.167-342.075 593.2-265.543 574.437-189.518 554.447-127.969 503.244M-93.074 440.468C-139.601 441.851-192.986 466.809-225.485 502.406-172.06 490.053-109.907 460.984-93.074 440.468M-48.592 388.485C-105.407 400.526-162.26 412.469-203.663 459.328-152.752 433.96-94.769 424.588-48.592 388.485M-48.592 288.592C-76.883 326.624-172.392 402.669-172.392 402.669-79.903 361.578-48.592 288.592-48.592 288.592M-17.964 327.54C-54.671 336.951-76.922 353.453-93.853 377.613-69.109 364.754-39.864 359.474-17.964 327.54M165.998-92.545C152.483-53.071 124.639-32.379 83.142-27.391 75.958-26.534 69.27-22.287 62.204-20.163 45.038-15.019 37.278-3.193 41.486 13.232 53.314 59.35 37.318 99.856 15.845 138.804 4.969 158.521 3.302 174.089 22.196 189.597 38.787 203.197 39.064 222.603 42.16 242.359 46.447 269.753 26.065 289.373 26.72 316.143 29.38 425.057-19.54 515.149-117.399 558.461-240.085 612.781-348.2 691.601-470.871 744.354-521.339 766.057-533.666 789.2-521.68 848.781-493.677 988.01-501.651 1128.395-506.216 1268.794-508.22 1330.888-516.754 1392.359-548.805 1453.615-563.431 1390.099-549.976 1329.621-568.154 1270.995-612.47 1300.377-658.035 1313.937-709.972 1313.723-762.682 1313.528-804.775 1290.849-847.304 1263.416-860.839 1324.166-858.953 1384.546-869.63 1451.998-869.63 1451.998-889.734 1421-904.122 1362.685-927.183 1269.281-925.595 1187.333-923.492 1078.556-922.975 1051.279-922.817 1013.364-918.133 985.639-911.525 946.535-903.388 922.297-901.641 883.35-898.506 813.462-931.192 770.988-997.377 750.355-1007.995 747.043-1018.334 742.854-1028.852 739.23-1079.657 721.733-1127.188 698.84-1166.423 661.451-1194.088 635.07-1229.095 621.101-1265.909 615.704-1363.649 601.403-1403.479 522.572-1455.356 456.815-1457.46 454.126-1458.67 449.703-1458.254 446.333-1451.625 392.558-1489.451 345.564-1480.183 290.113-1472.88 246.509-1478.873 200.878-1473.356 156.826-1470.915 137.303-1470.181 119.554-1480.262 104.454-1495.206 82.087-1502.311 58.531-1503.542 32.384-1504.355 14.985-1511.321 .47-1521.442-14.396-1529.996-26.963-1544.205-39.062-1542.538-59.247-1523.824-43.582-1500.188-19.208-1484.212-33.724-1464.862-51.298-1422.829-48.667-1430.192-93.811-1389.627-44.069-1389.647-44.069-1360.712-93.733-1352.714-107.449-1344.895-121.283-1336.421-134.688-1328.284-147.586-1314.333-161.536-1301.85-159.432-1275.991-155.067-1263.051-171.999-1245.845-182.5-1236.498-188.209-1230.604-200.172-1211.969-200.425-1230.782-175.486-1224.074-156.568-1207.523-139.305-1181.565-155.671-1187.657-184.098-1185.475-212.817-1161.025-177.123-1123.556-156.879-1120.797-113.665-1119.984-101-1105.377-104.741-1095.752-105.189-1083.349-105.793-1078.03-114.093-1077.673-124.634-1076.641-155.866-1044.967-165.803-1035.798-191.19-1026.967-140.201-1001.029-117.698-942.662-111.093-893.683-105.54-850.578-139.325-855.361-185.598-858.814-218.915-835.555-242.51-835.396-274.385-812.117-229.592-780.344-206.913-729.798-221.721-721.581-224.117-718.108-225.345-714.774-214.512-704.832-182.13-678.576-174.317-646.684-169.68-603.182-163.367-577.998-206.38-548.229-231.358-566.587-201.47-555.572-174.933-539.08-153.696-526.875-137.973-482.527-141.575-444.58-163.928-424.278-175.887-408.635-195.995-435.784-224.071-404.646-222.473-382.061-221.779-355.25-222.461-333.34-223.026-322.286-219.422-325.442-195.223-326.672-185.793-330.443-173.46-312.304-170.615-270.588-164.088-222.522-196.334-215.635-237.308-162.608-186.124-134.427-264.896-87.214-259.441-98.208-214.687-64.292-173.499-75.902-126.446-57.862-165.569-36.766-200.075 8.72-211.999-12.257-168.94-12.495-123.543-17.932-79.14-18.964-70.645-14.122-69.69-8.089-67.177 8.522-60.28 24.855-59.364 42.716-62.91 92.688-72.866 134.86-100.24 185.327-124.712 176.555-110.391 169.292-102.13 165.998-92.545" fill="#231f20"/>
</g>
</g>
</svg>
