<svg xmlns="http://www.w3.org/2000/svg" xmlns:xlink="http://www.w3.org/1999/xlink" xmlns:inkscape="http://www.inkscape.org/namespaces/inkscape" version="1.1" width="1984.25" height="1984.25" viewBox="0 0 1984.25 1984.25">
<defs>
<clipPath id="clip_1">
<path transform="matrix(1,0,0,-1,0,1984.25)" d="M0 1984.252H1984.252V0H0Z"/>
</clipPath>
</defs>
<g inkscape:groupmode="layer" inkscape:label="Layer 1">
<g clip-path="url(#clip_1)">
<path transform="matrix(1,0,0,-1,1319.4473,875.5864)" d="M0 0 40.596 43.458 134.808 22.11 196.851-22.11ZM205.276-115.889 198.383-165.447 106.468-163.922 16.085-48.033ZM26.808-166.209-49.788-125.8-24.511-40.409 75.829-164.684ZM-69.702-100.641-122.554-28.21-101.106 0-50.554-19.823ZM-194.554-48.033-176.937 56.419-120.256 8.387-149.362-32.022-121.788-86.154ZM-127.349-167.536-128.536-175.107-139.849-172.964-155.451-153.95-155.712-142.848-142.178-145.571ZM-23.745-404.849-170.043-626.715H-448.085L-596.713-401.005-521.649-274.442C-521.649-274.442-520.852-270.662-518.554-271.424L-512.426-392.65-441.958-494.053-344.681-561.147-248.937-496.34-176.937-391.125-168.511-208.905-197.617-163.16-194.554-152.486-181.532-156.297-153.958-200.518-141.702-204.331ZM-903.83-393.413-1066.979-158.585-998.809-27.447-964.341-64.044-765.958-29.735-762.128-34.309-920.681-109.027-906.894-185.27-703.916-188.32-549.192-104.453-581.362-171.546-692.426-211.193-739.149-298.872-738.383-327.844-723.064-323.269-657.958-236.353-537.703-201.281-510.128-155.536-495.575-152.486-492.511-163.922-521.618-208.905-524.618-246.264-612.703-393.413ZM-1047.83 58.707V62.519L-943.66-.762-960.511-34.309ZM-1012.596 166.209-906.128 130.375-933.703 57.182-1011.83 159.347C-1011.83 159.347-1014.128 163.16-1012.596 166.209M-850.213 35.072-928.341-15.249-884.681 101.403ZM-788.171 95.303-758.298 59.469C-758.298 59.469-811.149 53.37-828 49.558L-855.575 118.176ZM-730.724 43.458-690.128 0-886.979-22.11-824.937 22.11ZM-795.83-163.16-887.745-164.684-894.639-115.126-705.447-47.271ZM-664.852-39.646-639.575-125.039-716.171-165.447-765.192-163.922ZM-729.192 80.817-557.618 52.607-590.554 22.11-648.767 .762-729.958 75.48ZM-589.788 139.524-512.426 75.48-598.213 86.154-609.703 104.453ZM-562.245 192.799-504.767 290.548-474.128 278.35-530.809 228.029-475.692 136.379-560.713 180.6C-565.309 182.887-562.245 192.799-562.245 192.799M-462.639 346.905H-168.511L-180 324.794H-228.256L-259.66 287.435H-275.745L-307.149 314.883H-382.979L-413.618 288.198H-428.171L-460.341 324.794-471.83 325.557ZM-441.958 210.43V187.557L-468 188.32-490.213 216.529-489.447 234.828-470.298 236.353ZM-218.789 235.59-200.391 235.583-198.062 216.606-222.917 187.344-245.873 186.398-246.187 212.336ZM-385.277 287.435-373.788 299.634H-314.043L-304.086 288.198-314.809 277.523H-373.788ZM-298.724 263.038-282.639 272.949-242.043 273.711-229.788 258.463C-229.788 258.463-255.83 237.877-264.256 224.916-264.256 224.916-276.511 209.667-271.149 193.657-271.149 193.657-262.724 175.358-257.362 167.734-257.362 167.734-349.277 185.27-432 166.209L-432.767 173.071C-432.767 173.071-420.511 184.507-418.213 199.756-418.213 199.756-413.618 221.104-458.809 256.176L-448.852 273.711H-409.788L-392.171 263.038C-392.171 263.038-323.234 256.938-298.724 263.038M-222.128-44.983-286.469-93.779H-403.66L-466.469-45.746-486.383 22.873-459.575 111.314-393.703 157.823-345.447 144.861-295.66 157.823-229.788 111.314-203.745 25.16ZM-243.238-102.722-240.702-84.713-228.585-79.91-175.994-112.671-170.939-128.835-186.901-136.261ZM-412.085-130.375-404.426-113.602H-283.404L-278.809-130.375ZM-269.617-157.06-236.682-146.386-225.958-162.397-265.788-189.083-420.511-188.32-463.405-164.684-454.213-145.624-423.575-156.297ZM-515.49-114.364-461.107-77.768-445.788-87.679-446.554-100.641-498.639-134.187-515.49-131.9ZM-619.66-99.878-638.809-19.061-588.256 .762-566.809-27.447ZM-533.873-154.773-551.49-174.596-559.149-175.358-559.916-163.922-545.362-144.099-534.639-141.049ZM-567.575-85.392-540-31.26-569.107 9.149-512.426 57.182-494.809-47.271ZM-238.979-279.811-448.085-280.574-492.511-259.988-497.107-212.717-477.958-189.844-445.788-208.143-252.767-210.43-212.171-188.32-194.554-213.48-196.852-258.463ZM-247.404-450.595-265.788-479.567C-265.788-479.567-315.575-485.667-342.383-494.053-342.383-494.053-394.469-481.854-423.575-479.567L-444.256-449.833-343.149-471.943ZM-270.384-374.352H-414.383L-489.447-349.192V-287.435L-457.277-304.971-234.384-305.734-198.384-286.672-200.682-349.955ZM-132.511 334.769-94.979 269.201-124.852 249.377-127.915 173.897-215.234 128.151-160.086 230.317-218.298 279.875-158.554 296.648ZM-87.319 236.448C-87.319 236.448-86.554 243.31-80.426 241.785L-2.298 96.161-180 67.951-91.149 138.857ZM57.446 88.441V84.629L-38.298-6.1-98.809 13.724-147.064 57.182ZM99.574 95.303 166.979 118.176 139.403 49.558C122.553 53.37 69.702 59.469 69.702 59.469ZM238.979-13.724 160.851 36.597 195.318 102.928ZM324 166.209C325.531 163.16 323.233 159.347 323.233 159.347L245.105 57.182 217.531 130.375ZM362.298 60.994V57.182L274.979-35.834 258.127-2.287ZM115.881-34.309 293.437-63.282 518.553 161.635 376.666 192.894 88.138 112.077C88.138 112.077 63.565 105.215 23.933 102.166L-61.675 253.888-33.932 272.949-28.383 290.485H-53.748L-74.357 278.286-118.746 353.004C-118.746 353.004-98.93 376.639-79.113 383.501V387.313H-129.051L-135.393 379.689-465.447 382.326-614.245 617.503-600.684 623.666-645.866 649.588-645.073 597.743-633.72 606.13-485.492 368.252-509.528 322.507-562.636 386.551H-613.367C-613.367 386.551-578.489 366.728-564.222 341.567L-539.649 300.396-523.796 296.584-563.429 225.679H-571.355L-573.733 251.601-637.939 289.723-662.512 290.485C-662.512 290.485-659.341 279.811-653 272.949L-610.989 240.165-607.818 149.436-634.769 110.425-626.842 94.414-771.106 113.475-1062.805 198.104-1209.447 161.635-1033.477-16.011-1107.987-159.347-927.431-411.997H-617.5L-458.005-646.412H-156.001L-6.018-422.353 96.235-587.8 84.968-595.456 123.015-616.804 125.553-573.25 113.553-579.223-115.661-208.174-104.479-210.43C-104.479-210.43-52.955-230.253-26.005-234.065L45.334-320.219 61.98-325.556V-301.159C61.98-301.159 18.384-218.817 16.006-211.955L-98.137-173.071-131.429-112.077C-131.429-112.077-133.015-102.928-122.71-108.265L26.311-188.32 236.365-185.27 253.804-109.79 99.235-41.934C99.235-41.934 92.102-28.972 115.881-34.309"/>
</g>
</g>
</svg>
