<svg xmlns="http://www.w3.org/2000/svg" xmlns:xlink="http://www.w3.org/1999/xlink" xmlns:inkscape="http://www.inkscape.org/namespaces/inkscape" version="1.1" width="2048" height="1920" viewBox="0 0 2048 1920">
<defs>
<clipPath id="clip_1">
<path transform="matrix(1,0,0,-1,0,1920)" d="M0 1920H2048V0H0Z"/>
</clipPath>
</defs>
<g inkscape:groupmode="layer" inkscape:label="Layer 1">
<g clip-path="url(#clip_1)">
<path transform="matrix(1,0,0,-1,1476.2677,1244.1238)" d="M0 0C-17.685-1.048-35.37-2.38-53.066-2.781-77.282-3.337-101.438-6.919-125.702-4.837-138.693-3.725-151.743-2.755-164.614-.647-171.709 .504-179.489 2.561-179.849 13.579-182.298 11.057-182.382 6.531-185.396 6.906-188.95 7.359-188.662 11.911-189.61 14.73-191.039 18.985-188.914 24.313-192.852 27.909-193.536 24.74-194.172 21.598-194.893 18.481-195.637 15.26-194.617 9.803-199.659 10.85-204.377 11.82-202.072 16.955-201.952 20.136-201.64 28.103-200.452 36.03-200.043 43.997-199.107 61.986-199.203 61.986-182.923 58.831-184.904 62.995-186.525 66.694-188.41 70.212-189.958 73.121-191.783 76.212-189.646 79.2-187.713 81.916-184.82 80.183-182.19 79.575-167.111 76.044-151.767 73.497-136.976 68.918-130.241 66.823-125.714 70.664-120.216 71.272-109.59 72.436-98.737 71.35-87.98 71.039-64.7 70.367-41.433 67.703-18.153 71.647-6.519 73.626-5.235 71.751-7.936 59.283-8.404 57.188-9.389 55.248-8.776 53.011-3.938 57.072-7.72 69.242 .024 68.039 5.487 67.198 4.07 56.943 5.703 50.877 9.016 38.656 9.929 26.033 11.334 13.476 12.39 4.048 7.732 .466 0 0M-40.463-186.484C-41.866-226.468-40.864-266.703-47.891-306.349-53.578-338.504-61.97-370.045-69.887-401.699-76.4-427.757-83.139-453.803-88.588-480.099-95.791-514.94-103.745-524.098-138.354-529.618-164.17-533.746-162.279-536.092-155.126-511.038-153.711-506.082-152.083-501.189-151.744-495.844-154.35-501.139-156.905-506.471-159.598-511.74-160.813-514.099-161.84-517.863-165.348-516.232-168.392-514.827-167.327-511.602-166.337-508.792-165.298-505.869-164.972-502.695-163.995-499.746-162.943-496.635-161.853-494.929-167.026-494.615-170.271-494.414-168.341-490.111-167.602-487.464-157.657-451.783-146.126-414.492-141.003-377.807-135.755-340.22-135.702-311.032-132.733-273.256-132.458-269.768-135.636-258.561-136.538-254.948-138.83-273.591-141.147-292.222-143.352-310.878-143.753-314.253-142.638-319.246-147.448-319.008-152.17-318.769-151.068-313.776-150.855-310.426-148.713-276.401-146.446-242.389-144.329-208.376-143.991-203.107-144.279-197.813-144.279-192.355-146.596-193.409-146.233-198.315-149.953-196.734-153.085-195.391-152.521-192.154-152.609-189.332-153.122-172.143-150.254-154.642-155.101-137.868-160.851-117.932-164.07-97.519-168.567-77.358-170.032-70.809-169.557-64.925-165.749-57.635-161.239-66.606-161.302-75.3-159.06-86.604-159.06-71.888-159.11-60.245-159.035-48.59-159.01-44.387-158.909-38.729-153.736-38.929-149.302-39.105-150.179-44.688-149.64-48.489-147.172-65.841-148.55-83.518-144.554-102.412-142.5-84.86-143.009-74.201-141.344-58.318-140.805-53.099-144.537-42.716-142.195-37.722-140.967-35.113-145.92-30.787-141.335-29.72-137.089-28.729-137.64-34.337-134.484-34.99-123.523-19.182-122.659-18.931-104.91-27.613-97.457-31.264-89.691-28.654-82.1-28.867-60.016-29.507-59.227-30.009-53.979-51.902-52.789-56.883-51.298-61.788-48.994-66.543-49.244-60.923-49.507-55.302-49.758-49.681-49.895-46.557-48.806-43.672-45.661-43.182-42.417-42.693-42.605-46.018-41.691-48.201-40.138-51.914-39.875-55.653-39.887-59.568-40.012-101.873-38.985-144.229-40.463-186.484M-256.706-422.754C-285.255-446.252-318.219-460.207-352.397-472.014-366.988-477.045-381.333-482.878-396.711-485.865-407.106-487.883-413.019-497.026-419.153-507.14-369.79-485.801-316.713-475.715-271.379-448.479-257.485-440.137-243.967-431.046-230.99-421.333-216.954-410.844-205.59-406.274-190.199-409.856-187.707-410.425-184.97-411.757-185.589-414.952-189.063-432.643-187.126-451.28-194.563-468.247-196.888-473.537-198.535-478.12-205.071-485.128-193.282-482.179-188.077-475.625-186.385-466.999-183.119-450.316-179.875-433.181-176.918-416.446-176.363-413.355-176.578-409.127-173.514-409.213-168.275-409.361-169.369-414.231-169.214-417.671-168.465-435.828-172.933-453.828-175.386-471.765-176.393-479.15-177.943-483.266-184.412-486.214-203.134-494.75-221.728-503.557-240.36-512.274-242.813-513.412-245.55-516.955-247.887-514.11-250.728-510.631-245.55-508.808-244.156-504.98-264.725-513.153-283.408-523.719-301.511-534.712-320.414-546.196-340.764-548.731-361.604-550.49-372.411-551.408-383.36-550.749-394.232-550.658-397.357-550.632-402.018-551.822-402.664-547.852-403.426-543.183-398.442-544.256-395.575-543.429-386.937-540.933-378.325-538.359-370.203-531.272-377.434-530.483-382.198-534.945-387.75-535.708-391.03-536.161-394.917-540.273-397.383-535.798-399.488-531.996-394.568-530.69-392.58-528.388-391.882-527.586-391.276-526.681-389.339-524.12-434.027-536.975-475.927-524.46-518.989-519.765-528.208-518.756-538.284-514.566-546.677-510.233-572.953-496.667-598.206-485.153-624.521-471.651-627.904-469.918-632.382-470.993-636.914-471.794-608.18-492.531-566.417-515.907-519.776-531.776-520.202-532.772-520.628-533.768-521.042-534.764-528.337-535.902-535.064-531.802-542.94-533.264-531.061-537.868-519.195-542.485-504.501-548.175-515.515-552.029-524.631-552.585-533.463-552.701-569.036-553.154-601.716-542.653-632.046-524.599-643.138-517.99-656.076-514.33-665.114-504.462-667.232-502.147-672.216-500.376-668.923-495.733-666.302-492.021-663.126-495.073-660.091-495.41-656.528-495.798-653.506-498.759-648.703-497.298-653.7-493.586-658.322-490.392-662.648-486.822-664.753-485.102-668.161-483.783-667.567-480.265-666.922-476.502-662.609-479.321-659.988-476.954-668.626-471.07-676.141-464.772-676.98-453.999-677.264-450.339-678.646-446.046-671.97-445.606-665.45-445.179-670.382-440.381-670.899-438.712-676.386-420.852-684.482-403.781-686.755-384.938-688.407-371.178-689.35-357.56-683.333-344.394-681.977-341.42-681.37-338.743-677.458-341.174-670.072-345.752-662.661-350.305-655.301-354.922-653.39-356.124-651.75-357.702-652.822-360.25-653.881-362.785-655.882-362.461-658.245-362.047-665.463-360.806-672.5-362.604-680.221-363.587-675.263-379.662-667.914-392.641-658.049-404.733-619.3-452.222-567.639-480.209-511.046-500.474-500.38-504.302-486.231-503.868-475.979-497.763-470.207-494.336-463.944-491.762-455.513-487.624-478.858-487.559-499.782-481.998-520.351-478.687-548.99-474.096-574.542-463.439-594.53-442.049-609.547-425.973-628.192-414.67-644.978-400.936-650.607-396.331-656.409-392.745-655.518-384.287-655.234-381.597-656.386-381.369-653.016-379.856-649.839-378.42-647.567-381.356-645.32-382.882-639.032-387.15-633.079-391.896-626.856-396.267-625.061-397.535-623.46-401.027-620.684-398.362-619.083-396.849-619.406-394.276-620.464-392.207-631.672-370.337-642.776-348.429-654.178-326.664-657.341-320.637-664.223-319.822-669.866-317.818-683.837-312.851-695.793-306.321-697.678-289.547-698.066-286.107-700.17-281.735-696.762-279.731-693.611-277.869-691.08-281.865-688.769-283.986-679.085-292.883-669.504-301.897-659.02-310.136-671.376-288.784-682.571-267.277-688.059-243.235-689.737-235.902-692.849-223.875-687.852-222.568-681.125-220.809-683.271-235.672-680.804-241.751-672.05-263.271-660.246-281.748-643.9-299.001-639.006-304.161-633.944-308.816-625.81-310.084-636.088-296.349-644.693-278.9-654.932-265.127-666.114-250.086-672.254-237.191-672.861-217.921-673.094-210.795-675.637-208.627-667.412-211.614-644.455-219.93-634.177-237.531-628.56-261.185-639.961-257.073-645.746-248.007-655.094-240.325-646.456-264.871-633.531-284.788-618.205-303.281-599.857-325.383-578.939-344.653-554.936-360.508-551.514-362.759-545.781-364.699-548.48-370.014-550.752-374.502-555.465-371.113-559.223-370.583-578.113-367.932-597.055-365.694-615.906-362.836-623.292-361.711-622.349-365.177-621.11-369.949-616.294-388.469-600.967-395.582-585.602-401.893-573.155-407.015-559.933-410.286-544.309-415.24-549.719-410.196-553.012-407.118-558.461-402.036-540.978-402.281-527.407-407.364-513.979-412.627-501.506-417.516-489.652-423.698-478.393-431.069-462.318-441.597-444.796-440.07-426.9-437.38-427.274-434.07-429.25-433.462-431.174-432.854-433.033-432.272-434.621-431.302-434.402-429.155-434.195-427.06-432.465-426.349-430.58-426-394.555-419.275-358.505-413.002-322.248-424.293-319.523-425.146-315.03-424.939-314.359-428.974-313.558-433.708-318.297-434.445-321.073-436.333-325.85-439.592-330.886-442.476-335.792-445.567-336.219-445.851-336.399-446.537-337.006-447.558-329.04-445.244-321.396-443.42-314.952-438.674-310.175-435.169-305.927-430.953-306.947-424.318-307.89-418.214-304.571-414.916-300.194-411.903-269.954-390.991-239.792-369.962-209.448-349.192-204.154-345.571-198.279-342.7-192.43-339.984-185.858-336.945-182.746-339.092-184.295-346.567-185.057-350.24-185.858-353.913-187.265-360.483-180.228-352.426-180.783-344.55-177.116-338.536-176.07-336.829-175.722-333.958-172.687-334.902-170.596-335.561-170.854-337.605-170.596-339.415-168.762-352.038-168.491-364.66-170.002-377.334-170.725-383.348-174.095-387.046-179.118-389.982-183.405-392.478-187.575-392.413-191.397-390.008-196.187-386.982-192.301-383.076-191.152-378.601-215.026-391.379-236.641-406.226-256.706-422.754M-660.918-559.025C-672.539-547.127-674.747-532.345-685.244-522.516-683.191-528.414-681.177-534.324-679.098-540.195-678.439-542.071-678.336-544.062-680.028-545.071-682.042-546.248-683.152-544.256-684.327-542.911-692.074-534.014-699.848-525.142-709.57-514.033-703.114-529.229-697.898-541.722-692.475-554.124-690.021-559.75-691.067-562.453-697.64-561.547-698.35-561.444-699.099-561.56-699.822-561.547-736.505-561.211-736.879-561.366-751.341-527.78-759.178-509.558-765.286-490.599-772.581-472.144-776.222-462.923-773.846-460.478-763.646-464.953-771.871-426.543-779.799-389.607-787.688-352.658-798.147-303.682-808.502-254.693-819.155-205.769-819.955-202.135-818.871-194.362-827.638-199.212-830.685-200.893-831.137-197.026-831.563-194.466-835.024-173.825-839.285-153.288-841.841-132.544-843.688-117.606-840.679-102.85-833.448-89.413-826.605-76.726-823.661-63.134-822.525-48.921-822.163-44.265-821.13-39.609-819.917-35.096-815.914-20.236-815.875-20.404-801.323-24.983-786.629-29.612-772.542-25.888-759.075-20.275-745.853-14.766-732.05-12.748-718.118-10.575-711.83-9.593-711.649-11.714-712.243-16.938-713.805-30.582-713.379-44.369-716.065-57.948-714.968-58.09-713.857-58.233-712.76-58.375-710.19-49.71-707.608-41.032-705.038-32.354-704.044-32.587-703.05-32.82-702.055-33.052-705.8-61.375-709.557-89.698-713.651-120.581-721.359-109.976-720.132-99.164-725.697-87.784-727.415-104.945-724.548-119.275-723.864-133.617-723.012-151.387-718.622-169.014-719.952-186.848-722.134-216.218-723.606-245.563-721.372-274.972-718.325-315.128-717.718-355.866-704.431-394.25-698.401-411.657-700.467-430.138-694.915-446.395-684.159-477.976-683.204-512.506-665.824-541.98-663.397-546.093-660.659-550.568-660.918-559.025M-848.788-59.746C-847.355-49.374-845.637-39.027-844.682-28.617-844.127-22.551-840.77-21.892-835.94-21.892-829.2-21.892-831.202-26.69-830.943-30.091-832.493-40.644-834.004-50.951-835.54-61.259-836.25-66.057-839.685-66.574-843.597-66.264-847.626-65.94-849.343-63.768-848.788-59.746M-909.178 24.084C-917.893 26.528-923.097 30.913-919.107 41.621-916.253 49.277-915.466 57.735-913.929 65.87-913.438 68.482-913.154 71.418-909.901 71.237-906.104 71.004-907.331 67.564-907.241 65.262-907.086 61.292-907.202 57.308-907.202 53.338-906.802 53.066-906.414 52.795-906.014 52.523-902.967 60.852-899.339 69.025-897.079 77.561-895.413 83.859-893.761 84.622-888.557 80.729-880.926 75.013-872.791 69.982-864.889 64.68-862.836 67.564-864.14 69.219-864.67 70.823-866.787 77.276-864.941 78.427-858.575 76.526-825.972 66.788-792.491 63.49-758.675 65.521-738.145 66.762-717.692 69.84-697.278 72.685-691.338 73.5-688.511 73.422-688.989 66.219-689.647 56.08-689.285 45.876-689.57 35.711-689.647 33.047-688.343 28.649-692.152 28.468-696.31 28.261-696.219 32.568-696.297 35.879-696.335 38.013-696.581 40.16-697.691 42.487-701.629 35.84-703.076 28.365-702.779 20.903-702.301 9.237-708.163 3.767-718.609 .986-752.968-8.196-787.572-7.368-821.763 .353-851.19 7-880.1 15.937-909.178 24.084M-895.827 148.096C-890.133 164.818-884.826 181.682-878.822 198.288-873.038 214.285-867.537 230.361-863.147 246.798-862.424 249.488-862.489 252.644-857.492 254.131-858.757 241.509-860.19 229.559-861.094 217.557-863.212 189.519-868.054 161.442-860.668 133.417-860.048 131.089-859.273 127.921-861.636 126.343-863.831 124.869-866.401 126.459-868.777 127.494-882.283 133.365-883.019 135.344-879.029 149.402-876.24 159.244-872.534 169.06-873.838 181.048-879.3 177.091-879.713 171.776-881.456 167.366-884.232 160.304-886.324 152.984-889.216 145.975-890.249 143.466-890.96 138.642-895.414 140.582-899.107 142.186-896.744 145.419-895.827 148.096M-844.396 202.801C-844.164 206.384-844.177 211.233-839.683 211.376-834.725 211.518-835.771 206.526-835.254 203.112-833.705 192.791-832.013 182.497-829.935 169.435-818.65 201.611-825.377 229.611-835.5 256.679-832.065 259.64-830.8 257.364-829.212 256.058-824.744 252.411-819.825 249.217-815.796 245.13-797.306 226.313-775.51 214.686-749.079 211.169-738.466 209.759-728.162 205.802-717.974 201.935-708.652 198.404-705.566 190.644-707.309 183.105-709.065 175.578-716.838 174.323-724.96 174.918-739.757 176.005-754.025 179.665-769.932 182.562-760.274 172.526-748.86 169.5-737.304 168.271-725.838 167.042-714.023 166.383-702.777 170.056-696.05 172.241-695.081 170.599-696.76 164.21-700.866 148.574-704.507 132.809-708.368 116.98-704.61 115.363-699.342 121.855-698.438 114.652-697.806 109.647-701.034 106.647-706.147 105.987-734.605 102.288-763.154 100.633-791.805 102.818-805.815 103.892-819.863 105.056-833.563 108.496-842.989 110.863-849.212 114.82-848.877 126.783-848.179 152.196-846.049 177.466-844.396 202.801M-818.055 337.047C-791.146 308.375-768.641 276.871-744.302 246.737-766.446 257.071-791.327 262.011-807.816 283.298-809.972 280.712-807.274 276.689-810.089 274.75-824.628 284.747-828.385 311.685-818.055 337.047M-714.602 248.39C-715.725 244.213-717.52 243.98-720.683 245.778-721.303 246.14-721.858 246.619-722.478 246.994-737.069 255.865-737.107 255.904-723.808 266.16-720.761 268.514-718.217 271.747-712.859 272.898-712.536 264.052-712.471 256.215-714.602 248.39M-811.457 397.791C-803.4 403.844-794.775 401.283-788.164 390.717-785.207 385.984-782.483 381.108-779.655 376.297-781.23 385.738-786.111 393.084-788.022 401.658-789.984 410.53-785.259 415.16-771.533 418.031-763.941 419.622-763.489 414.462-762.675 409.133-758.04 378.754-745.851 350.471-737.226 320.855-737.226 331.097-737.471 341.353-737.123 351.583-736.968 355.954-737.407 362.679-729.401 357.364-727.309 355.98-725.127 356.95-723.307 358.166-714.126 364.27-707.722 359.756-701.963 352.695-695.12 344.315-687.398 336.646-681.071 325.446-679.328 332.559-677.211 337.9-676.875 343.358-676.423 350.781-673.479 351.453-668.327 347.69-659.237 341.043-650.896 333.749-647.319 322.342-643.252 309.396-651.296 298.882-664.699 300.356-674.021 301.378-683.008 304.702-692.537 304.443-695.43 304.365-696.876 306.28-698.232 308.659-701.059 313.625-704.21 318.385-707.464 323.609-707.851 322.381-708.342 321.669-708.187 321.178-702.002 302.762-702.002 302.775-718.994 293.502-719.64 293.153-720.272 292.817-720.905 292.454-747.452 277.142-747.568 277.065-765.761 302.076-777.679 318.449-789.197 335.094-800.908 351.596-805.298 357.791-810.14 363.558-815.486 369.029-824.176 377.927-822.277 389.657-811.457 397.791M-740.533 445.651C-734.723 409.699-713.496 392.097-677.368 387.959-690.693 398.719-705.542 403.349-715.82 414.898-694.535 406.703-675.812 395.639-651.892 401.603-669.491 413.281-689.429 408.916-704.238 424.364-700.48 428.089-696.632 423.394-692.991 423.64-689.854 426.796-695.987 428.36-693.314 432.098-639.5 400.746-550.535 396.661-496.392 397.995-512.623 401.111-528.605 406.006-544.861 408.916-582.784 415.706-694.841 441.714-658.077 431.257-657.287 431.033-676.53 436.433-675.638 442.47-674.546 449.851-662.826 443.148-656.318 442.618-639.816 441.273-623.431 438.453-607.046 435.918-604.334 435.492-602.245 436.107-601.496 439.845-600.657 444.061-603.631 445.443-606.808 445.909-625.685 448.651-644.537 451.599-663.375 454.574-667.443 455.22-671.415 454.692-676.025 458.416-669.517 461.365-663.203 459.037-658.31 463.02-659.033 466.163-666.044 467.172-663.474 471.413-661.292 474.996-656.928 471.698-653.571 471.284-613.789 466.318-574.02 461.3-534.56 456.347-533.063 451.381-538.563 451.924-538.499 448.458-537.892 448.057-537.117 447.165-536.239 447.022-477.515 437.763-418.481 439.095-359.409 441.785-354.709 442.005-349.996 442.25-345.283 442.38-321.331 443.013-298.735 451.73-274.861 453.734-249.424 455.868-224.245 461.197-198.977 465.296-194.367 466.033-190.183 464.572-189.37 460.589-188.608 456.864-193.827 457.691-196.719 456.462-223.159 445.228-249.708 440.491-276.449 433.469-277.378 433.236-278.799 433.534-278.579 431.089-258.695 429.835-238.532 432.524-219.641 437.852-207.194 441.37-194.443 444.391-182.9 450.831-181.35 451.698-179.711 453.03-178.109 451.129-176.147 448.801-178.872 447.669-180.035 446.04-185.019 439.03-190.145 432.124-195.426 424.869-178.666 421.041-167.458 428.942-165.263 444.901-164.785 448.419-163.52 451.898-162.177 455.222-156.457 469.448-154.933 469.655-144.526 458.093-143.558 457.019-142.564 455.002-141.608 455.028-128.554 455.312-132.363 445.07-131.989 438.59-131.046 422.062-139.013 411.419-152.661 403.711-161.557 398.693-170.079 392.692-177.827 385.282-188.35 375.233-203.121 371.793-216.989 368.029-249.85 359.132-283.589 355.989-317.341 352.471-362.533 347.764-407.751 348.035-453.034 348.423-524.437 349.044-594.769 357.735-664.494 373.241-687.194 378.298-708.189 385.579-727.002 398.887-743.09 410.268-748.965 429.382-740.533 445.651M-578.681 592.528C-579.598 589.243-581.961 588.351-584.323 590.627-590.328 596.382-596.422 602.137-601.664 608.578-604.892 612.548-602.529 615.367-596.693 615.354-584.194 615.316-575.427 604.219-578.681 592.528M-430.451 507.082V508.272C-430.451 509.746-429.263 510.936-427.804 510.936H-422.949C-421.477 510.936-420.289 509.746-420.289 508.272V507.082C-420.289 505.62-421.477 504.431-422.949 504.431H-427.804C-429.263 504.431-430.451 505.62-430.451 507.082M-446.849 507.741V508.931C-446.849 510.406-445.661 511.595-444.189 511.595H-439.334C-437.875 511.595-436.687 510.406-436.687 508.931V507.741C-436.687 506.28-437.875 505.09-439.334 505.09H-444.189C-445.661 505.09-446.849 506.28-446.849 507.741M-468.244 507.586V509.319C-468.244 510.794-467.056 511.983-465.584 511.983H-459.27C-457.811 511.983-456.623 510.794-456.623 509.319V507.586C-456.623 506.125-457.811 504.935-459.27 504.935H-465.584C-467.056 504.935-468.244 506.125-468.244 507.586M-488.916 508.142V509.319C-488.916 510.794-487.741 511.983-486.269 511.983H-481.415C-479.955 511.983-478.767 510.794-478.767 509.319V508.142C-478.767 506.668-479.955 505.478-481.415 505.478H-486.269C-487.741 505.478-488.916 506.668-488.916 508.142M-502.952 508.789V509.979C-502.952 511.453-501.764 512.643-500.305 512.643H-495.45C-493.978 512.643-492.79 511.453-492.79 509.979V508.789C-492.79 507.328-493.978 506.138-495.45 506.138H-500.305C-501.764 506.138-502.952 507.328-502.952 508.789M-563.432 549.824C-567.861 545.958-570.185 548.647-571.256 552.45-573.025 558.645-573.968 565.072-574.691 568.603-574.898 574.345-575.595 577.552-572.754 579.389-569.604 581.419-567.422 578.548-565.11 577.061-554.729 570.336-554.083 558.011-563.432 549.824M-710.926 477.608C-710.539 472.306-709.712 467.042-709.093 461.766-717.731 472.086-716.84 484.294-717.524 495.753-717.86 501.314-713.573 507.625-704.999 505.168-667.167 494.343-628.186 491.575-589.217 488.989-522.294 484.54-455.332 481.281-388.228 481.113-309.142 480.919-230.663 487.049-152.984 502.4-148.413 503.292-140.562 507.948-139.013 501.016-137.696 495.067-145.443 491.433-151.124 488.924-152.726 488.226-154.792 487.786-156.444 488.135-177.245 492.558-197.259 486.105-217.454 483.518-293.079 473.806-369.015 471.142-445.145 472.927-493.681 474.065-542.127 477-590.547 480.828-624.88 483.531-658.645 489.338-692.591 494.33-705.71 496.257-711.882 490.864-710.926 477.608M-748.913 579.919C-752.154 576.918-751.726 574.873-754.896 569.654-756.152 581.341-752.387 590.368-752.258 600.715-760.857 595.852-764.111 586.45-760.986 571.215-758.778 560.455-755.331 549.941-752.206 538.482-773.833 548.104-776.545 573.452-761.025 609.134-769.288 607.711-771.393 605.681-776.648 593.382-777.513 591.377-777.836 588.7-780.354 588.713-782.988 588.739-783.143 591.532-783.866 593.563-787.779 604.362-784.06 613.634-777.604 621.937-774.298 626.179-770.012 629.749-765.763 633.111-762.91 635.374-759.579 640.159-755.757 636.745-752.167 633.551-758.184 630.706-758.429 627.149-755.615 624.64-753.11 626.412-750.824 627.938-744.665 632.051-739.423 635.594-734.516 625.623-732.36 621.213-725.878 624.058-721.411 624.084-714.322 624.123-712.876 621.601-716.478 615.665-719.241 611.1-722.482 606.767-723.335 602.616-718.338 607.077-712.282 611.875-706.988 617.411-702.766 621.834-708.085 622.416-710.526 623.799-723.929 631.43-737.37 638.995-750.811 646.587-750.721 647.596-750.631 648.617-750.54 649.626-746.098 650.415-741.657 651.838-737.215 651.915-694.476 652.601-652.331 659.843-609.851 663.193-579.107 665.624-548.247 663.593-517.504 662.313-465.765 660.14-414.078 656.894-362.353 654.502-353.727 654.101-347.684 654.165-350.073 642.254-351.932 632.995-346.006 627.084-336.658 626.127-327.077 625.131-322.48 629.8-319.355 637.909-317.457 642.849-322.571 650.467-315.172 650.169-307.709 650.829-299.949 650.04-292.55 648.63-289.141 647.984-291.982 644.531-292.628 642.293-294.112 637.172-294.461 631.986-289.529 628.52-283.976 624.614-277.843 624.963-272.007 627.899-266.029 630.912-266.984 636.073-268.805 641.09-271 647.156-268.882 648.876-262.788 648.397-251.232 647.518-239.636 647.078-228.054 646.587-222.412 646.354-220.398 644.479-222.218 638.401-224.413 631.081-222.618 624.575-214.523 621.86-209.965 620.333-199.351 622.7-196.717 627.033-195.891 628.416-194.599 632.167-196.355 635.478-203.664 648.372-190.868 645.151-186.594 645.488-168.143 645.19-153.978 643.962-138.251 650.156-131.369 652.859-124.797 656.196-121.233 662.856-119.774 665.559-114.119 671.301-124.164 671.948-130.31 672.336-125.029 678.802-128.49 683.135-132.957 660.218-150.091 661.809-166.102 662.766-190.984 664.253-215.814 666.723-240.656 668.818-242.735 668.999-245.124 668.754-246.557 672.155-239.662 676.061-232.173 673.81-225.162 673.72-216.098 673.59-206.969 672.892-198.047 674.444-183.262 677.03-170.66 683.924-162.255 696.766-158.123 703.077-156.276 701.357-153.216 695.227-148.297 720.963-140.704 745.703-127.973 769.318-123.751 765.387-125.83 760.783-125.623 756.877-124.552 737.788-121.026 719.708-109.974 703.361-101.232 690.442-98.095 676.177-100.755 659.933-103.75 641.737-103.724 623.049-105.48 604.62-106.488 594.002-109.406 584.264-118.521 576.957-124.758 571.965-124.048 567.038-115.113 565.563-110.219 564.749-110.826 563.934-113.408 559.615-125.275 539.711-146.708 539.103-165.095 534.137-205.575 523.196-247.1 518.411-289.051 515.915-328.226 513.587-367.337 515.035-406.447 513.936-415.77 513.665-418.21 516.549-417.526 525.744-416.867 534.758-416.067 544.341-421.438 554.959-421.438 542.621-421.283 532.456-421.541 522.304-421.619 519.213-419.708 514.337-425.893 514.389-431.38 514.453-430.799 518.501-430.915 522.148-431.342 536.142-432.323 550.083-437.01 563.637-437.01 550.329-436.92 537.021-437.075 523.726-437.126 520.002-435.925 514.88-441.942 514.583-448.127 514.272-447.198 519.549-447.391 523.222-448.231 538.094-448.941 552.98-449.315 567.866-449.418 571.926-449.69 575.483-454.545 580.721-454.545 560.584-454.622 543.009-454.506 525.42-454.467 519.756-453.641 514.143-462.188 514.376-470.465 514.596-469.832 520.325-469.91 525.873-470.181 543.643-470.271 561.425-472.673 580.384-477.89 575.457-478.354 570.116-478.328 564.555-478.264 550.73-478.122 536.917-478.264 523.093-478.303 519.846-476.831 514.906-482.512 514.841-488.026 514.777-489.601 518.488-489.523 523.649-489.33 537.461-489.459 551.26-490.04 565.111-494.378 552.295-493.216 538.961-493.616 525.77-493.733 522.174-491.744 516.652-498.045 516.626-504.398 516.6-502.203 522.239-502.5 525.757-503.287 535.094-503.752 544.444-504.527 556.847-508.155 544.509-509.447 534.874-508.181 525.032-507.316 518.191-510.066 515.863-516.639 516.135-526.052 516.536-535.49 516.523-544.916 516.484-550.688 516.458-552.302 518.747-551.501 524.58-549.616 538.159-546.401 551.777-549.345 565.563-556.937 601.18-580.876 621.148-613.866 631.727-623.757 634.896-634.125 636.758-644.765 636.241-651.531 635.917-657.961 634.327-662.867 629.917-672.629 621.122-680.518 610.117-694.089 605.151-684.715 604.064-679.909 598.161-672.407 594.139-661.664 588.384-666.997 579.887-665.9 569.826-662.439 577.611-659.805 583.431-657.287 589.302-656.293 591.617-655.751 594.682-652.303 593.312-649.811 592.329-649.927 589.496-650.857 587.634-654.421 580.508-650.702 572.374-654.46 565.273-649.566 569.865-648.107 575.904-646.041 581.801-644.827 585.242-646.028 592.639-639.495 590.453-634.859 588.914-638.01 583.728-639.249 580.068-643.213 568.377-646.377 556.531-643.949 543.999-643.136 539.757-642.663 536.801-641.088 532.831-638.531 526.442-633.144 520.04-625.268 519.639-617.611 519.251-610.806 522.433-606.003 529.546-600.735 537.331-597.507 545.078-600.709 556.692-604.105 546.811-604.789 537.991-610.483 531.473-612.665 528.964-614.873 524.231-618.837 526.196-622.479 528.007-618.308 531.887-618.36 534.939-631.297 533.283-633.944 535.366-635.339 548.415-636.191 556.446-635.339 564.361-632.537 571.978-629.399 580.527-621.73 582.195-613.84 584.691-625.836 599.9-643.835 600.262-663.9 602.732-653.803 610.181-644.494 609.121-635.752 608.384-597.455 605.163-577.261 577.591-584.272 539.155-585.24 533.827-585.369 528.382-587.384 523.248-588.081 521.45-590.573 519.161-587.758 517.674-585.24 516.355-582.09 516.406-579.649 518.695-575.556 522.562-575.965 523.075-575.772 528.261-575.655 531.236-576.133 535.232-571.988 536.383-569.38 537.107-566.862 535.956-565.093 534.029-562.498 531.21-563.492 528.248-564.796 524.976-572.221 506.431-577.971 507.884-598.217 508.905-615.054 509.746-631.607 511.388-647.928 515.63-650.911 516.406-651.995 518.126-653.08 520.48-655.818 526.39-658.671 532.249-661.473 538.133-662.286 539.827-663.358 543.681-665.101 540.862-666.78 538.146-673.946 540.707-671.041 534.215-668.833 529.3-667.18 524.114-665.592 518.954-665.127 517.402-665.062 515.217-667.361 514.453-669.104 513.872-669.84 515.372-670.886 516.303-678.568 523.196-681.797 532.288-683.372 542.104-684.392 548.467-685.025 554.894-685.954 562.162-686.69 560.714-687.103 560.222-687.194 559.692-688.356 552.993-684.585 542.595-689.957 540.332-696.529 537.564-698.763 550.135-706.588 551.7-705.671 542.828-700.829 534.939-696.774 523.933-715.11 532.391-714.709 548.247-718.906 561.244-724.148 558.994-719.112 548.686-725.504 549.889-731.895 551.092-727.828 559.33-729.171 564.283-730.126 567.762-730.694 571.357-731.727 576.285-737.267 569.521-736.25 563.121-735.953 556.888-735.811 553.706-733.925 550.209-733.343 547.015-732.672 543.407-727.092 538.159-730.501 536.737-736.092 534.396-737.744 541.573-739.784 545.207-745.724 555.748-745.453 568.189-748.913 579.919M-767.429 871.732C-763.543 879.44-761.812 887.226-761.49 895.735-760.547 919.997-751.651 950.622-740.52 968.184-738.364 962.727-739.449 957.774-740.404 953.389-753.407 893.627-751.922 833.322-742.69 773.664-735.653 728.192-711.313 709.789-668.329 707.151-622.065 704.318-575.698 703.219-529.383 701.37-527.304 701.292-525.018 701.926-522.488 696.443-540.242 696.443-556.64 696.43-573.025 696.455-615.39 696.494-657.754 696.468-700.119 696.624-714.968 696.675-729.816 697.193-744.665 697.451-749.378 697.542-754.246 698.318-754.737 691.024-755.189 684.234-753.432 679.733-746.202 678.362-734.723 676.19-723.102 676.578-711.52 676.242-706.73 676.099-701.913 676.216-697.046 675-702.998 671.03-709.39 669.659-716.078 669.439-726.575 669.09-737.099 668.922-747.596 668.43-762.277 667.745-765.583 671.056-768.152 685.695-771.174 702.883-769.004 718.118-758.765 732.977-750.669 744.733-755.821 759.282-755.95 772.435-756.041 781.333-757.151 790.476-758.016 799.49-759.346 813.496-760.315 827.308-767.713 840.228-773.317 849.992-772.555 861.528-767.429 871.732M-370.896 933.388C-333.967 930.724-297.917 924.839-265.869 904.755-301.829 910.795-336.395 921.943-370.896 933.388M-364.775 909.307C-333.761 908.454-305.457 897.707-277.258 884.748-284.269 880.855-351.657 899.246-364.775 909.307M-406.843 875.85C-389.231 877.92-371.619 879.019-354.975 870.794-372.561 868.841-389.902 869.643-406.843 875.85M-338.285 718.001C-393.522 712.518-448.308 716.876-502.913 725.037-478.974 735.215-358.983 729.705-338.285 718.001M-191.423 724.248C-192.12 714.833-195.038 707.332-202.811 703.504-209.887 700.012-216.911 702.948-223.445 706.439-225.072 707.306-226.763 708.47-225.924 710.552-224.956 712.932-222.541 712.841-220.346 712.983-209.797 713.682-198.202 711.496-191.423 724.248M-347.706 961.788C-365.124 964.828-382.529 967.97-399.935 971.1-402.62 971.578-406.52 971.475-406.055 975.329-405.642 978.73-402.104 977.463-399.702 977.372-331.178 974.695-268.361 954.507-212.336 914.674-201.722 907.135-190.359 899.996-181.373 889.339-185.737 886.623-187.416 888.822-189.339 890.439-235.397 929.224-288.84 951.546-347.706 961.788M-720.631 1007.997C-693.116 1034.923-659.428 1051.037-623.365 1062.728-584.655 1075.273-544.924 1083.627-504.238 1083.705-464.095 1083.782-423.912 1083.136-384.079 1075.182-338.654 1066.129-295.36 1051.632-254.545 1029.931-210.205 1006.354-171.495 976.053-144.315 932.793-139.163 924.594-134.773 916.731-136.103 905.867-137.278 896.375-134.721 886.417-133.805 876.665-133.624 874.609-132.371 872.022-134.851 870.871-137.627 869.591-138.518 872.462-139.499 874.182-179.604 944.614-243.26 982.429-318.692 1003.25-368.597 1017.024-419.845 1023.063-471.313 1027.913-528.422 1033.293-584.655 1031.728-639.35 1012.484-662.269 1004.427-684.09 994.017-703.936 979.765-707.642 977.101-711.49 974.643-715.273 972.083-714.033 983.308-707.526 990.085-700.695 997.935-706.079 998.905-712.548 999.953-704.84 1006.316-700.734 1009.691-696.692 1013.157-693.645 1017.722-705.653 1011.256-714.782 1001-727.229 993.926-728.895 1001.155-724.143 1004.557-720.631 1007.997M-644.506 1077.466C-622.401 1091.743-597.106 1097.537-572.419 1105.4-529.202 1119.174-485.637 1129.623-442.407 1130.011-362.546 1127.864-292.615 1104.599-232.225 1054.795-216.576 1041.888-200.733 1029.214-185.174 1016.203-183.069 1014.458-177.969 1012.725-181.184 1008.871-184.011 1005.469-186.865 1008.909-189.28 1011.121-247.9 1064.882-320.04 1088.251-395.885 1103.098-410.243 1105.905-425.428 1104.249-438.701 1112.604-443.802 1115.811-448.153 1109.461-453.847 1109.759-489.381 1111.634-524.45 1108.09-559.003 1099.335-587.332 1092.157-614.641 1081.953-641.898 1071.594-644.326 1070.676-647.386 1067.249-649.465 1070.87-652.034 1075.384-646.766 1076.017-644.506 1077.466M-92.78 397.503C-100.153 407.81-107.965 417.807-115.066 428.296-118.178 432.9-122.736 440.155-117.817 443.66-112.936 447.126-107.668 440.944-104.22 436.042-90.921 417.122-78.512 397.62-66.427 377.897-60.784 368.689-59.79 362.106-68.996 353.04-93.49 328.934-116.306 303.094-139.935 278.095-142.982 274.862-146.107 268.978-150.691 270.788-154.719 272.379-152.705 278.509-152.692 282.725-152.679 285.247-151.924 289.197-154.345 289.67-169.193 292.569-156.616 311.249-157.572 318.996-164.906 311.896-164.649 289.114-178.477 290.821-180.874 291.124-186.258 291.04-187.391 298.719-188.926 309.114-174.309 318.996-175.186 328-184.614 322.144-194.188 295.058-204.831 302.189-217.098 310.408-230.487 309.418-244.083 305.448-247.673 304.401-252.644 302.732-255.162 306.599-257.486 310.181-253.329 313.272-251.366 315.949-240.287 331.029-230.733 347.415-212.023 355.226-203.488 358.782-197.368 359.209-193.43 350.053-190.318 342.811-187.167 345.1-183.397 349.264-179.846 353.208-177.057 357.864-170.485 351.993-165.992 347.984-164.829 355.032-163.409 357.205-153.118 372.944-143.37 389.032-133.544 405.069-132.059 407.487-131.503 411.25-127.694 410.112-124.673 409.22-124.079 405.883-123.433 403.012-121.006 392.382-127.953 383.484-128.921 373.448-129.153 371.082-130.767 368.857-129.141 365.378-124.208 376.513-119.366 386.95-114.95 397.555-112.109 404.37-108.546 404.616-104.065 399.43-97.622 391.955-92.561 383.678-90.25 371.431-89.643 374.573-89.798 375.88-89.229 376.41-79.713 385.295-88.235 391.127-92.78 397.503M-250.294 126.201C-264.11 119.709-278.83 118.648-293.562 117.161-300.703 116.449-303.35 118.415-300.974 126.214-294.35 147.928-285.053 168.749-279.953 190.981-275.266 211.414-269.714 231.641-267.893 252.67-267.209 260.559-263.761 266.986-255.808 270.439-244.122 275.522-238.557 272.974-235.058 260.455-233.599 255.243-231.907 250.083-230.384 245.078-224.651 250.381-219.344 254.765-214.67 259.744-209.118 265.654-203.256 265.059-197.032 261.58-189.052 257.131-195.211 252.127-197.071 247.846-201.177 238.314-205.98 229.08-209.453 219.071-202.429 229.119-195.444 239.194-188.316 249.165-185.889 252.579-183.978 256.769-178.077 254.364-172.693 252.178-171.621 248.505-171.647 243.281-171.75 222.433-180.621 204.638-191.273 187.696-202.106 170.457-210.151 152.131-215.277 132.499-216.219 128.878-216.878 125.593-221.345 128.037-231.481 133.585-241.165 130.495-250.294 126.201M-216.459 47.221C-219.003 41.323-220.798 41.517-224.465 45.527-226.363 47.596-228.313 49.626-232.096 50.92-228.61 32.426-225.175 13.932-221.65-4.549-215.207-38.316-215.465-33.79-247.616-49.076-274.37-61.802-302.337-60.211-330.628-58.711-349.789-57.689-369.028-57.832-388.228-57.948-394.607-57.987-403.361-58.53-414.362-58.077-450.219-56.629-483.937-56.082-519.82-55.254-527.334-55.086-533.016-52.344-535.869-44.895-540.388-33.126-547.279-21.465-551.746-9.683-553.954-3.863-552.792-.863-544.025-4.872-553.464 6.948-565.524 13.867-570.004 27.641-574.175 24.214-567.615 13.221-580.062 18.058-567.292-2.428-561.516-21.066-550.024-40.276-546.109-46.82-548.766-51.119-552.097-50.744-576.54-47.989-598.72-40.553-622.53-34.902-634.655-32.018-640.93-21.995-639.665-10.705-639.342-7.73-638.812-4.329-636.088-3.269-632.098-1.742-632.369-6.696-630.394-8.403-628.56-9.993-627.308-12.257-623.744-16.887-628.302 3.25-632.15 20.23-635.997 37.198-637.16 37.379-638.309 37.573-639.471 37.754-636.759 23.58-644.816 15.342-653.39 7-660.156 .404-654.965-6.346-652.318-12.994-650.678-17.106-646.043-20.702-649.245-25.849-649.736-26.625-652.163-27.052-653.106-26.534-657.87-23.987-660.647-19.602-661.344-14.417-664.03 5.629-672.564 24.524-672.836 45.074-672.887 48.514-675.16 51.631-672.526 55.355-665.54 65.236-664.301 75.841-669.737 87.015-672.616 92.925-669.078 94.671-664.301 93.429-651.556 90.119-640.413 92.679-630.419 101.098-628.999 102.301-627.024 102.948-625.513 101.435-623.395 99.301-624.39 96.857-625.19 94.348-630.781 76.604-640.904 62.701-658.038 54.567-659.213 53.998-660.22 53.066-661.512 52.161-645.927 42.41-634.332 44.531-624.415 59.093-618.334 68.029-612.962 77.47-607.255 86.678-601.742 95.563-594.7 99.237-583.329 100.012-549.512 102.317-518.255 99.491-485.341 97.774-430.532 94.914-389.419 90.68-334.896 87.313-316.121 86.153-291.53 84.234-273.001 83.756-261.122 83.458-249.217 83.924-237.325 83.626-232.044 83.484-228.261 79.643-224.052 75.996-221.637 80.911-219.687 84.751-217.867 88.657-216.756 91.024-215.736 93.701-212.508 92.757-209.242 91.813-210.249 88.799-210.107 86.329-209.319 72.815-210.985 59.856-216.459 47.221M-680.944-53.021C-680.273-46.464-676.877-45.313-671.273-48.598-658.723-55.943-655.469-68.682-652.551-81.369-649.09-96.423-648.251-112.446-641.33-126.259-628.315-152.201-624.609-182.257-605.912-205.626-601.574-211.071-606.687-211.64-610.148-211.899-628.418-213.244-643.68-204.45-650.627-187.728-654.178-179.179-661.253-175.972-668.781-173.838-676.051-171.769-679.356-168.199-680.028-160.569-681.745-141.144-684.172-121.771-686.303-102.372-687.981-85.508-682.649-69.432-680.944-53.021M-641.384 282.969C-630.912 282.503-632.914 274.73-631.906 268.005-628.562 245.684-631.7 223.038-628.084 200.717-627.116 194.755-625.102 189.763-622.145 184.745-616.541 175.2-616.089 166.018-620.66 156.888-624.882 163.432-624.482 171.747-629.957 178.446-633.998 172.045-631.028 166.147-631.015 160.418-631.003 152.62-625.747 143.308-635.715 137.89-644.367 133.208-667.027 136.454-672.45 143.011-675.472 146.671-681.321 150.033-679.203 155.452-676.918 161.349-670.397 157.974-664.858 158.646-674.116 173.532-685.608 186.154-691.366 202.398-697.164 218.758-701.683 235.363-704.201 252.512-705.169 259.121-691.302 273.786-684.51 273.114-680.017 272.661-680.882 268.109-680.585 265.406-678.725 248.464-677.344 231.484-675.743 214.516-674.955 206.045-674.051 197.587-672.915 186.297-667.828 195.725-668.473 203.549-667.892 210.584-666.291 230.126-663.063 249.434-660.829 268.872-659.732 278.403-652.579 283.46-641.384 282.969M-615.285 317.699C-618.771 311.815-625.317 314.143-630.469 313.354-637.674 312.229-633.942 318.462-635.092 321.721-633.168 327.489-634.911 334.486-629.694 339.193-628.61 340.163-614.135 319.639-615.285 317.699M-593.011 289.623C-584.502 291.266-580.5 288.627-582.721 281.566-585.148 256.373-587.343 233.314-589.603 210.255-590.08 205.457-590.984 199.999-596.614 199.379-602.192 198.771-604.387 204.151-606.066 208.419-612.948 225.891-616.473 244.307-620.307 262.581-625.447 287.049-625.162 287.101-600.423 288.64-597.944 288.795-595.452 289.145-593.011 289.623M-568.233 318.087C-569.602 311.815-576.962 316.652-580.629 315.074-596.459 314.66-597.298 315.578-595.258 326.946-594.393 331.783-592.663 332.274-588.789 330.244-585.587 328.588-582.139 327.386-578.963 325.692-574.909 323.532-567.407 321.851-568.233 318.087M-350.66 305.668C-350.789 309.638-346.283 310.686-343.184 312.522-334.339 317.786-324.41 319.816-314.7 322.183-301.452 325.416-287.894 327.485-275.279 332.878-269.972 335.155-269.662 332.452-270.089 328.675-270.915 321.148-271.509 313.531-273.123 306.159-274.388 300.43-277.887 296.744-284.899 297.999-289.095 298.762-293.537 298.141-297.875 298.141-297.888 297.947-297.914 297.753-297.927 297.559-312.634 298.839-327.366 299.913-342.035 301.568-345.069 301.905-350.479 300.443-350.66 305.668M-407.266 309.91C-407.189 312.147-405.136 313.285-402.811 313.906-392.74 316.609-382.72 319.493-372.675 322.273-368.659 323.386-366.283 321.873-366.128 317.631-365.948 312.755-364.075 306.832-371.267 305.319-375.102 304.504-379.169 304.788-383.121 304.582-389.745 304.026-396.058 306.03-402.489 306.845-404.568 307.116-407.382 306.974-407.266 309.91M-471.284 323.049C-462.891 328.326-450.237 325.054-439.004 313.169-450.935 314.126-460.838 314.889-470.729 315.717-472.472 315.872-474.512 316.014-474.835 318.29-475.222 320.916-473.118 321.898-471.284 323.049M-545.333 273.84C-545.901 280.63-543.06 283.243-536.746 282.984-524.079 282.492-511.4 282.169-498.746 281.354-491.709 280.889-488.416 275.121-485.292 269.818-469.19 242.44-454.948 214.078-441.378 185.381-440.926 184.437-440.035 183.7-437.401 180.492-443.547 201.21-448.957 219.187-454.212 237.215-457.44 248.273-460.397 259.421-463.535 270.504-465.033 275.845-465.717 279.104-457.557 278.406-401.363 273.634-345.144 269.314-288.899 265.15-281.643 264.607-280.907 261.606-281.875 255.334-288.486 212.85-299.371 171.401-312.025 130.391-314.052 123.808-318.7 120.821-327.313 120.187-359.335 117.82-390.969 121.843-422.668 123.951-465.885 126.834-508.972 131.632-552.15 135.318-563.681 136.301-575.302 136.65-586.871 136.534-594.786 136.443-595.857 138.655-593.443 146.13-583.242 177.686-572.655 209.151-568.109 242.272-566.818 251.713-567.464 261.089-566.767 270.478-566.366 275.69-565.811 282.092-559.91 282.402-554.81 282.661-551.634 277.423-550.704 271.952-548.496 258.826-546.249 245.699-544.028 232.585-543.602 232.637-543.176 232.689-542.75 232.74-543.577 246.436-544.183 260.171-545.333 273.84M-185.186-259.388C-183.676-257.318-182.1-254.797-179.131-256.167-176.936-257.163-176.974-259.763-177-261.961-177.142-272.838-177.207-283.714-177.53-294.578-177.762-302.518-182.822-303.2-190.195-303.084-226.632-302.554-260.663-322.096-282.776-347.459-272.369-344.459-265.693-338.458-258.591-333.337-246.699-324.776-234.071-318.063-219.378-315.955-217.053-315.619-214.019-313.951-213.283-317.831-212.779-320.456-215.104-321.452-217.234-322.176-243.471-331.19-266.894-345.261-288.922-361.918-291.478-363.858-294.384-365.371-297.896-365.345-308.406-365.268-315.934-371.488-323.862-377.502-322.209-381.886-316.967-375.2-316.631-380.179-316.45-382.921-319.717-383.865-321.796-385.21-323.913-386.581-326.121-387.822-328.265-389.18-338.878-395.841-342.765-395.129-351.184-384.887-357.394-377.347-363.553-369.781-369.79-362.267-370.177-361.815-371.017-361.75-372.553-361.142-370.81-367.466-369.105-373.221-367.698-379.041-367.143-381.382-366.02-384.253-368.873-385.921-371.055-387.202-373.405-385.831-374.877-384.525-393.096-368.281-415.899-364.699-438.676-360.534-448.218-358.776-457.14-355.012-463.738-346.761-472.944-335.238-473.267-335.497-460.613-326.586H-509.304C-502.203-333.039-490.182-332.509-489.484-343.14-488.645-356.047-503.145-348.817-507.82-357.068-485.985-364.712-464.009-372.407-442.033-380.089-440.677-380.567-439.218-380.826-437.901-381.408-434.699-382.792-429.069-382.753-429.211-386.542-429.392-391.405-434.944-388.883-438.095-389.827-451.252-393.759-464.668-396.448-478.187-398.815-481.892-399.462-485.198-399.578-488.761-398.233-514.237-388.585-535.154-373.7-546.801-348.054-548.067-345.248-551.966-342.312-549.5-339.402-546.22-335.548-543.263-340.89-539.958-341.329-539.015-341.459-538.15-342.118-536.536-342.855-544.412-328.358-551.966-314.584-559.39-300.734-561.108-297.513-564.116-294.565-557.841-291.616-553.283-289.469-559.093-287.801-560.1-286.96-570.159-278.67-580.618-270.872-590.715-262.634-592.962-260.785-597.261-258.896-595.337-255.081-593.788-252.003-590.031-253.917-587.384-254.383-577.777-256.077-568.222-258.056-558.667-260.008-550.959-261.586-549.182-267.974-546.109-274.091-542.546-281.178-539.877-288.685-536.752-295.992-534.441-301.359-529.563-305.674-523.146-307.135-534.819-297.72-533.583-283.599-536.01-270.796-536.41-268.662-539.338-263.293-535.284-264.289-521.545-267.639-507.652-261.444-493.745-266.876-480.381-272.088-466.424-276.342-451.949-278.075-446.913-278.67-444.099-282.576-443.117-286.663-441.607-293.013-449.418-293.724-451.575-298.6-445.157-301.186-439.308-300.229-435.757-294.151-431.07-286.132-423.943-284.18-415.653-283.96-398.674-283.481-381.643-284.969-364.715-282.085-361.41-281.528-358.608-280.429-354.773-278.683-361.397-277.131-368.266-280.83-375.265-274.221-361.126-272.152-348.653-270.238-336.154-268.518-327.409-267.312-291.258-258.16-295.892-261.552-310.144-271.984-316.816-302.668-314.026-318.318-313.66-320.367-304.561-274.908-278.797-256.79-273.893-253.34-267.359-247.996-262.452-244.567-260.386-243.118-258.746-241.088-256.732-239.549-253.078-236.73-248.313-231.828-244.582-235.035-239.753-239.2-246.738-242.899-248.262-246.921-248.61-247.865-249.049-248.77-250.095-251.162-243.652-247.529-240.54-242.575-236.912-238.269-235.272-236.316-233.477-235.204-231.476-236.484-228.932-238.114-230.921-240.17-231.708-242.11-234.084-247.865-240.075-251.783-239.365-259.194-230.308-248.446-224.108-236.376-216.578-225.524-212.157-219.153-207.612-213.178-200.629-208.873-191.97-203.534-212.142-244.089-208.963-266.453-204.541-248.335-185.623-206.079-183.492-202.07-181.581-198.5-178.033-196.393-173.824-198.785-169.602-201.178-172.623-204.734-173.746-207.359-183.133-229.216-191.862-251.305-199.971-275.618-193.114-270.458-189.215-264.858-185.186-259.388M-183.895-105.346C-182.875-103.639-182.449-100.742-179.583-101.221-177.233-101.609-176.548-103.82-175.709-105.89-170.389-119.042-174.715-129.828-183.508-139.695-184.786-141.118-186.542-143.123-187.846-142.127-195.245-136.462-196.575-143.42-199.48-147.326-202.269-151.076-205.368-154.607-208.002-158.474-212.973-165.781-217.867-171.898-228.416-171.82-233.865-171.782-239.352-176.424-247.1-179.994-240.088-181.985-235.234-183.369-230.082-184.831-238.061-200.815-250.431-209.868-266.093-216.529-298.515-230.315-332.771-232.333-367.001-233.988-403.193-235.734-439.476-235.643-475.72-236.393-501.945-236.937-527.446-231.246-553.102-227.185-562.141-225.763-567.977-218.908-572.573-211.071-582.877-193.457-593.452-176.011-605.241-159.159-597.055-176.321-588.972-193.522-580.592-210.58-579.068-213.658-576.964-216.438-580.192-219.219-583.355-221.935-585.55-218.313-587.577-216.943-600.244-208.394-605.009-194.026-611.723-181.481-627.088-152.732-636.204-122.016-635.391-88.909-635.261-83.606-634.513-78.032-639.393-72.433-639.393-78.912-639.329-84.253-639.445-89.594-639.471-91.237-638.903-93.461-641.433-93.953-643.706-94.405-644.933-92.698-645.23-90.978-646.792-82.003-649.917-73.545-653.274-65.164-655.172-60.457-651.66-58.53-649.116-56.254-646.133-53.615-642.957-53.615-639.148-55.568-630.445-60.03-626.83-69.587-618.786-75.588-618.437-71.786-618.14-68.695-617.792-64.957-595.647-71.049-591.516-88.159-589.101-107.222-586.596-127.073-580.915-146.265-573.968-165.108-571.812-154.995-575.892-145.645-577.002-136.01-578.694-121.357-582.206-106.924-584.737-92.362-585.24-89.452-586.996-84.874-583.123-83.969-578.926-82.986-578.952-87.732-578.164-90.797-572.767-112.071-570.365-134.147-560.94-154.323-555.22-166.544-546.879-176.437-535.735-184.223-559.068-157.905-564.297-124.564-571.863-92.194-573.49-85.223-571.967-81.679-563.096-82.313-536.575-84.227-511.383-92.698-485.366-96.927-467.431-99.837-449.444-101.816-431.38-98.595-423-97.095-421.671-100.38-424.511-107.118-428.217-115.951-432.271-124.629-435.577-133.669-429.095-127.358-425.635-119.223-422.071-111.244-417.564-101.208-409.74-97.655-399.333-98.233-395.444-98.449-420.806-135.308-410.683-139.956-412.181-126.45-394.239-104.708-386.925-101.578-371.9-95.148-357.8-98.037-343.514-96.526-338.878-96.048-339.188-99.1-341.293-102.152-342.446-103.829-353.566-123.083-359.769-136.524-371.085-161.044-333.832-164.223-328.131-154.048-339.679-157.781-364.602-156.098-354.176-137.882-350.149-130.845-344.136-120.214-337.852-113.493-324.295-98.994-307.574-93.109-298.812-88.857-290.747-84.943-278.631-79.688-268.405-75.226-264.97-73.713-261.432-70.958-257.068-72.976-256.086-76.83-259.431-77.722-261.458-79.416-273.376-89.349-285.616-98.932-297.134-109.304-302.04-113.727-308.484-119.417-305.243-126.84-301.911-134.432-294.061-136.863-285.384-137.29-286.197-136.087-290.435-133.546-291.076-133.258-296.651-130.751-301.235-129.817-301.82-124.693-302.526-118.503-294.19-114.412-288.909-111.127-277.327-103.911-265.189-97.613-253.285-90.9-251.554-89.918-249.669-89.413-248.365-91.017-246.932-92.776-248.391-94.276-249.656-95.634-251.244-97.341-252.742-99.139-256.293-103.225-246.222-97.858-242.283-90.668-236.576-85.365-230.404-79.636-223.664-74.993-216.369-70.945-210.12-67.479-204.012-63.664-201.314-74.954-200.5-73.881-200.306-73.584-200.074-73.312-196.614-69.368-199.235-58.582-191.397-61.142-185.445-63.069-190.894-71.307-191.591-76.506-193.876-93.694-197.04-110.765-200.203-130.009-192.12-121.784-188.582-113.184-183.895-105.346M-53.468 344.712C-37.586 314.203-23.422 283.191-16.411 249.036-13.053 232.702-17.056 219.601-25.552 206.642-26.482 205.22-36.39 192.152-35.732 189.132-34.918 189.598-27.916 198.56-24.403 202.724-21.086 206.655-17.204 214.003-14.564 213.096-9.402 211.321-10.574 201.844-11.349 196.206-12.692 186.312-15.197 176.445-18.489 166.952-20.749 160.436-29.409 144.845-28.131 139.646-23.508 139.582-16.404 155.987-15.378 159.347-14.266 162.986-13.247 163.576-10.536 163.369-7.501 163.15-7.604 160.653-7.604 158.494-7.579 154.51-7.592 150.527-7.746 146.557-8.263 133.443-7.282 120.433-5.461 107.448-4.493 100.439-6.726 96.313-14.926 96.87-21.769 97.335-28.754 96.533-26.017 107.164-25.423 109.492-25.94 112.104-25.94 115.622-32.886 96.74-37.896 94.192-59.33 95.473-98.699 97.813-138.094 99.74-177.475 101.732-182.214 101.965-186.759 102.34-191.149 104.448-197.257 107.371-201.375 111.406-200.02 118.739-198.703 125.891-179.183 121.821-168.933 119.259-168.378 121.923-188.173 129.068-190.826 130.055-194.923 131.578-201.776 134.09-196.882 140.97-192.918 146.531-190.092 152.347-180.071 146.298-177.525 144.761-138.067 129.485-134.18 132.692-158.079 142.062-169.993 149.383-173.176 161.158-173.258 161.463-173.724 162.957-173.976 163.835-176.826 173.759-172.272 176.781-166.203 180.065-156.919 185.109-146.122 182.23-136.299 184.1-115.25 188.107-110.134 193.085-97.86 200.551-93.5 203.202-92.155 206.116-83.837 206.125-76.879 206.133-91.587 169.795-88.062 164.389-79.146 197.77-54.32 232.003-31.556 244.367-24.403 248.247-29.62 257.714-30.265 264.594-30.833 270.543-34.952 274.177-40.272 276.349-40.995 276.647-42.79 276.104-43.035 275.522-47.838 263.947-61.06 264.555-68.963 257.416-74.528 252.398-75.716 255.761-76.142 261.58-76.994 273.336-72.604 284.795-74.282 297.546-81.242 286.683-85.283 275.845-87.956 264.18-96.168 228.537-106.885 224.166-142.832 218.088-147.816 217.247-148.694 220.454-147.364 224.05-140.069 243.617-131.242 258.921-123.624 278.371-122.888 280.234-121.029 282.484-119.247 283.001-101.415 288.187-94.477 308.164-83.566 320.799-75.883 329.697-63.978 334.43-59.588 346.742-58.207 350.635-54.953 347.544-53.468 344.712M27.604 5.047C26.235 16.105 23.911 27.046 21.871 38.013 18.953 53.687 12.2 68.482 9.359 83.937 2.361 122.101 3.949 161.145 .05 199.672-1.551 215.423-2.378 231.318-5.089 246.889-9.88 274.371-17.911 301.025-32.011 325.287-46.395 350.04-51.289 379.035-67.958 402.805-82.032 422.864-94.828 443.815-108.05 464.469-118.521 480.828-117.398 489.868-103.724 503.487-101.155 506.047-98.882 508.905-96.377 511.518-90.012 518.126-88.617 525.524-93.989 533.128-97.849 538.599-96.597 542.233-91.768 545.919-89.198 547.897-87.068 550.445-84.77 552.76-74.246 563.378-73.032 572.431-81.051 584.704-83.672 588.726-86.939 593.046-86.216 597.456-82.858 617.941-85.028 638.853-81.89 659.132-79.204 676.591-81.8 692.459-89.108 707.603-98.172 726.395-100.535 746.414-101.943 766.602-104.215 799.128-112.065 830.93-114.157 863.391-115.229 879.97-119.787 896.705-116.494 913.104-114.454 923.243-115.255 931.818-120.704 939.771-134.365 959.765-147.483 980.225-164.863 997.374-169.227 1001.693-173.372 1005.521-170.609 1013.345-168.84 1018.376-172.959 1023.756-177.091 1027.533-182.41 1032.382-188.402 1036.547-193.45 1041.655-239.378 1088.226-293.622 1120.118-356.917 1137.008-408.849 1150.859-460.884 1151.014-513.423 1141.625-543.057 1136.322-570.637 1123.92-599.805 1117.234-620.929 1112.397-639.871 1102.853-658.839 1093.114-664.92 1089.984-671.97 1086.053-671.273 1078.242-670.731 1072.241-673.559 1070.87-677.432 1068.633-696 1057.924-712.966 1045.354-727.931 1029.653-757.164 998.977-782.317 965.895-789.819 923.114-794.377 897.093-798.392 870.982-803.996 845.143-804.9 840.952-804.564 836.348-802.421 832.339-793.821 816.251-792.75 798.404-789.573 780.906-781.968 739.107-791.897 703.116-820.975 672-828.516 663.93-835.682 654.993-837.645 643.16-841.919 617.372-832.803 595.412-818.522 575.03-813.913 568.422-810.413 562.537-810.71 553.588-811.343 534.318-804.771 517.751-785.997 508.892-775.267 503.823-764.188 499.503-753.239 494.899-749.469 493.321-743.568 493.8-744.058 487.722-744.433 482.962-748.875 481.423-752.903 479.328-767.313 471.801-781.671 464.106-795.422 455.454-803.079 450.644-808.941 442.987-803.105 433.443-799.012 426.731-801.762 423.834-806.721 420.446-810.31 418.001-813.628 415.156-817.102 412.531-827.806 404.409-834.74 394.503-833.19 380.173-832.88 377.393-832.7 372.853-834.21 371.909-844.656 365.301-843.029 354.618-844.734 344.815-845.457 340.612-843.649 334.417-849.576 332.555-857.336 330.111-859.221 323.812-861.894 317.294-874.819 285.92-880.319 252.463-889.474 220.041-905.394 163.602-921.224 107.086-930.482 49.031-931.36 43.548-933.052 37.987-931.851 32.051-928.752 16.687-916.964 11.475-904.129 7.854-891.591 4.323-878.808 1.711-866.142-1.38-860.383-2.777-858.201-6.075-858.511-12.438-859.415-30.867-859.983-49.244-865.186-67.156-867.11-73.778-864.102-79.817-857.607-80.425-847.923-81.317-850.596-85.74-852.778-91.069-858.666-105.476-860.499-120.555-859.182-135.932-858.343-145.593-853.514-154.581-853.591-164.475-853.733-181.985-851.332-199.289-847.096-216.102-831.46-278.269-819.581-341.291-804.655-403.613-791.742-457.555-773.278-509.519-749.998-559.802-744.136-572.475-734.736-578.8-720.416-579.588-697.226-580.869-674.165-577.364-650.046-579.006-587.642-576.252-524.179-575.799-460.833-571.894-419.992-569.385-379.061-568.208-338.272-565.065-270.406-559.84-202.514-554.525-134.842-547.27-96.765-543.196-81.115-528.828-76.596-495.487-72.852-467.837-67.945-440.458-59.514-414.192-41.889-359.332-33.367-302.867-31.262-245.925-28.55-172.803-27.879-99.514-30.552-26.315-30.9-16.589-27.427-13.097-18.466-13.201-10.125-13.291-1.771-13.563 6.545-13.136 20.49-12.425 28.882-5.338 27.604 5.047" fill="#231f20"/>
</g>
</g>
</svg>
