<svg xmlns="http://www.w3.org/2000/svg" xmlns:xlink="http://www.w3.org/1999/xlink" xmlns:inkscape="http://www.inkscape.org/namespaces/inkscape" version="1.1" width="1984.25" height="1984.25" viewBox="0 0 1984.25 1984.25">
<defs>
<clipPath id="clip_1">
<path transform="matrix(1,0,0,-1,0,1984.25)" d="M0 1984.252H1984.252V0H0Z"/>
</clipPath>
</defs>
<g inkscape:groupmode="layer" inkscape:label="Layer 1">
<g clip-path="url(#clip_1)">
<path transform="matrix(1,0,0,-1,1001.0137,1351.5205)" d="M0 0C-3.225-13.421-4.729-27.416-4.593-42.633-4.58-44.078-4.852-45.053-5.422-45.614-6.014-46.196-7.056-46.465-8.622-46.42-31.729-45.83-51.409-44.646-70.933-40.974-43.531-32.626-20.244-19.173 0 0M-250.113 39.193C-254.703 38.686-258.391 39.753-261.873 42.56-282.403 59.098-298.368 74.6-311.756 91.029-286.635 80.459-266.419 63.453-250.113 39.193M-311.275 629.276C-305.939 638.309-302.378 642.031-296.599 642.031-293.691 642.031-290.221 641.088-285.682 639.405ZM57.101 755.84C51.858 749.052 46.756 742.204 41.353 734.953 39.348 732.263 37.308 729.524 35.211 726.724 34.852 729.806 34.502 732.823 34.158 735.792 33.195 744.104 32.286 751.956 31.304 759.845 31.087 761.59 31.306 762.754 31.974 763.403 32.45 763.867 33.193 764.097 34.227 764.097 34.67 764.097 35.168 764.054 35.72 763.97 37.43 763.708 39.138 763.429 40.846 763.15 45.368 762.412 50.045 761.648 54.684 761.224 57.169 760.997 58.531 760.531 58.85 759.8 59.167 759.072 58.595 757.776 57.101 755.84M387.627 288.96C356.472 278.127 326.796 272.854 296.94 272.855 296.537 272.855 296.131 272.856 295.729 272.858 292.483 272.874 290.937 273.286 290.771 276.983 288.708 323.025 277.191 366.652 256.54 406.651 256.482 406.762 256.558 407.136 256.624 407.466 256.659 407.641 256.697 407.831 256.73 408.035 272.243 408.987 286.249 409.967 300.277 412.198 329.345 416.82 357.216 425.598 383.116 438.287 385.631 439.52 387.369 440.282 388.556 439.693 389.477 439.236 390.145 437.889 390.6 435.573 399.344 391.04 400.074 344.891 392.834 294.49 392.435 291.71 390.927 290.107 387.627 288.96M254.432 122.39C266.603 146.031 275.262 168.126 280.897 189.908 286.319 210.862 289.604 232.854 290.661 255.274 290.935 261.071 291.699 263.438 298.27 263.497 327.782 263.761 357.486 269.099 389.057 279.816 387.368 262.338 382.04 246.365 376.886 230.912L376.783 230.605C366.173 198.797 351.214 167.833 332.323 138.575 329.849 134.743 327.025 132.672 322.579 131.426 301.736 125.586 280.061 122.71 254.432 122.39M186.11 17.367C183.87 17.023 181.607 16.676 179.324 16.307 182.164 20.845 184.475 25.425 186.714 29.863 191.034 38.427 195.115 46.515 202.349 53.118 217.363 66.822 230.812 83.68 244.676 106.169 247.603 110.918 250.679 112.71 256.024 112.781 275.027 113.034 294.227 115.352 313.089 119.667 313.446 119.749 313.807 119.854 314.173 119.961 314.995 120.202 315.794 120.437 316.648 120.437 317.29 120.437 317.963 120.305 318.7 119.944 307.86 103.512 294.897 89.308 282.493 76.399 267.393 60.683 250.378 46.741 234.246 33.81 220.28 22.613 203.683 20.065 186.11 17.367M152.227 101.172C162.537 81.887 167.512 61.625 168.304 35.869 168.42 32.099 166.701 28.947 164.932 26.042 157.902 14.505 150.65 5.26 142.222-2.888 132.236 31.738 135.427 64.924 152.227 101.172M134.045 79.261C130.395 65.607 128.588 50.945 128.536 34.616 128.493 21.176 130.43 6.989 134.606-9.74 123.687-.057 111.646 9.697 97.598 17.218 85.409 23.743 72.065 29.022 55.893 33.698 86.949 42.559 112.598 57.511 134.045 79.261M93.181-24.421C68.111-10.98 50.184 3.55 36.762 21.307 36.443 21.728 36.103 22.14 35.756 22.559 34.528 24.041 33.357 25.455 32.831 27.729 69.208 24.531 99.625 10.782 125.773-14.271 126.912-15.362 127.472-16.214 127.438-16.801 127.404-17.373 126.774-18.116 125.513-19.07 114.399-27.479 105.547-31.049 93.181-24.421M9.519 26.899C9.795 26.899 10.074 26.898 10.348 26.896-17.805-11.602-53.97-32.392-100.078-36.586-81.733-2.968-30.054 26.899 9.519 26.899M-125.057 42.948C-124.386 59.17-120.446 75.624-112.657 94.73-111.017 98.754-110.08 99.352-109.753 99.421-109.611 99.451-109.476 99.467-109.346 99.467-108.273 99.467-107.582 98.416-106.496 96.154-106.317 95.78-106.143 95.418-105.967 95.084-96.229 76.534-91.879 55.259-92.667 30.043-93.326 8.902-98.632-10.952-108.875-30.575-120.845-7.323-126.14 16.752-125.057 42.948M-225.953 110.303C-226.145 84.785-232.099 61.253-241.948 46.808-262.776 82.037-262.348 139.414-240.995 174.334-231.361 159.557-225.761 135.825-225.953 110.303M-325.428 112.928C-324.691 113.091-323.929 113.259-323.26 113.493-298.908 122.012-277.726 135.536-260.3 153.691-260.115 153.884-259.94 154.09-259.763 154.299-259.415 154.711-259.114 155.066-258.706 155.316-267.136 126.393-267.537 96.499-259.905 66.363-272.271 77.602-283.957 87.424-297.964 94.41-306.565 98.701-315.234 102.459-323.32 105.881-325.35 106.74-328.758 108.581-328.777 111.257-328.783 112.047-327.702 112.425-325.428 112.928M-353.434 148.183C-353.054 150.82-352.723 153.506-352.403 156.104-351.786 161.11-351.147 166.288-350.141 171.28-346.49 189.376-350.208 207.053-353.811 224.185-354.042 225.286-354.301 226.381-354.651 227.846-332.44 206.679-308.83 193.185-280.915 185.7-283.387 184.701-285.783 183.749-288.125 182.818-295.279 179.976-302.037 177.29-308.515 174.225-321.542 168.061-334.211 159.094-348.386 146.007-348.803 145.622-349.175 145.16-349.535 144.713-350.786 143.158-351.126 143.025-351.718 143.344-353.368 144.235-353.686 146.428-353.434 148.183M-386.777 217C-384.192 227.752-381.698 237.387-377.331 246.419-377.057 246.986-376.819 247.607-376.589 248.208-375.791 250.297-375.218 251.571-374.009 251.667-373.955 251.671-373.902 251.674-373.851 251.674-372.727 251.674-372.221 250.645-371.448 248.543-371.23 247.95-371.005 247.337-370.737 246.789-361.127 227.14-356.654 205.551-357.44 182.623-357.474 181.652-357.5 180.68-357.528 179.705-357.726 172.659-357.931 165.395-360.5 157.379-370.706 174.764-379.311 192.592-386.767 211.793-387.254 213.049-387.258 214.996-386.777 217M-383.377 268.834C-394.292 269.148-400.462 269.472-403.532 271.808-406.68 274.203-407.226 279.254-408.316 289.317-408.554 291.514-408.815 293.929-409.135 296.601-397.921 288.463-390.08 278.556-383.377 268.834M-412.799 399.396C-412.696 400.854-411.891 401.557-409.722 402.083L-407.725 402.571C-401.022 404.216-394.124 405.909-386.338 405.909-385.751 405.909-385.159 405.899-384.562 405.879-392.546 393.48-401.987 383.459-414.04 374.586-414.948 380.72-414.239 386.552-413.552 392.209-413.266 394.562-412.97 396.995-412.799 399.396M-405.558 420.722-406.159 420.849C-409.291 421.512-410.116 422.88-409.427 426.27-408.511 430.781-407.643 435.372-406.723 440.232-406.428 441.794-406.125 443.397-405.809 445.055-396.643 437.866-389.149 429.37-381.274 417.243-390.432 417.52-398.112 419.146-405.558 420.722M-372.928 427.401C-388.148 456.215-399.442 498.863-370.804 542.466-353.729 516.25-354.852 455.964-372.928 427.401M-255.819 634.606C-269.392 604.198-319.822 571.703-355.353 570.44-353.546 573.394-351.83 576.425-350.16 579.375-343.955 590.336-338.093 600.689-328.186 607.083-309.831 618.928-285.12 632.662-255.819 634.606M-252.445 645.472C-253.489 643.372-256.86 643.88-261.51 644.828-263.283 645.19-265.117 645.564-266.743 645.658-271.666 645.942-276.671 647.028-281.512 648.079L-281.918 648.167C-282.484 648.289-283.057 648.398-283.637 648.508-286.003 648.958-288.439 649.421-290.963 651.017-290.141 651.8-289.347 652.557-288.575 653.294-286.312 655.454-284.231 657.44-282.121 659.395-276.5 664.602-273.413 667.465-271.021 667.323-268.68 667.178-266.027 664.143-260.724 657.842-259.783 656.724-258.597 655.583-257.451 654.479-253.696 650.866-251.139 648.105-252.445 645.472M-250.884 685.261C-246.229 688.529-241.58 691.803-236.381 695.463L-231.752 698.722C-233.266 681.239-236.834 667.899-243.457 654.96-248.256 662.974-250.312 671.417-252.307 679.601L-252.759 681.455C-253.134 682.983-252.608 684.05-250.884 685.261M-161.165 719.781C-160.925 719.438-160.736 719.167-161.521 718.491-163.478 716.809-165.24 714.896-166.944 713.047-169.96 709.772-172.809 706.68-176.661 704.729-200.166 692.822-218.001 678.713-231.187 661.594-231.2 661.578-231.215 661.561-231.232 661.543-226.736 676.385-223.292 689.097-222.353 702.506-222.189 704.835-220.606 705.863-218.209 707.167L-214.243 709.325C-204.53 714.609-194.486 720.074-184.553 725.338-184.243 725.503-183.679 725.578-182.923 725.578-177.558 725.578-162.601 721.814-161.165 719.781M-135.112 738.991C-135.226 738.582-136.055 738.151-136.787 737.771-137.616 737.341-138.473 736.896-139.077 736.178-139.529 735.64-140.231 735.207-140.976 734.748-141.434 734.465-141.908 734.172-142.361 733.833-154.285 724.896-154.859 724.467-169.063 732.741-166.698 733.631-164.397 734.49-162.148 735.33-155.064 737.975-148.374 740.474-141.808 743.136-138.78 744.365-137.213 743.014-135.534 740.267-135.195 739.712-135.041 739.247-135.112 738.991M-156.277 699.966-151.021 704.45C-146.521 708.292-142.361 711.842-138.185 715.374-137.054 716.331-135.983 717.233-135.15 717.033-134.524 716.884-133.904 716.093-133.307 714.681-129.986 706.84-126.431 699.086-122.667 690.877-121.303 687.902-119.911 684.864-118.489 681.735ZM-104.41 754.701C-111.012 751.638-117.839 748.471-124.532 745.303-125.919 744.646-127.783 744.293-128.781 746.339-129.158 747.111-129.157 747.511-129.104 747.614-128.945 747.923-127.756 748.126-127.184 748.224-126.697 748.307-126.238 748.386-125.827 748.52-118.561 750.888-111.112 753.133-103.908 755.303-103.151 755.531-102.395 755.759-101.638 755.987ZM-32.631 610.202C-33.311 610.967-33.991 611.732-34.671 612.498-48.604 628.179-63.011 644.394-80.911 655.669-104.368 670.444-113.944 693.041-124.083 716.965L-124.613 718.218C-126.471 722.598-125.713 724.83-121.495 727.402-109.585 734.664-96.767 741.754-81.154 749.716-79.771 750.421-78.644 750.79-77.634 750.79-76.013 750.79-74.699 749.836-73.132 747.795-65.188 737.452-57.762 726.261-51.061 714.535-49.749 712.24-48.537 709.695-48.543 706.63-48.609 676.424-43.401 644.857-32.631 610.202M125.063 736.695C119.599 719.139 111.751 700.945 101.071 681.074 99.189 677.572 96.852 675.066 93.715 673.188 64.168 655.5 38.404 633.549 17.142 607.943 16.882 607.63 16.462 607.385 15.766 606.979 15.593 606.877 15.404 606.767 15.198 606.645 16.226 609.979 17.266 613.264 18.296 616.517 22.319 629.219 26.118 641.217 28.447 653.759L29.139 657.459C31.796 671.658 34.544 686.339 34.405 701.155 34.374 704.438 35.107 707.234 36.712 709.956 46.385 726.359 56.286 740.56 66.98 753.37 69.38 756.244 71.653 757.558 74.502 757.558 75.476 757.558 76.517 757.405 77.651 757.107L81.839 756.015C94.789 752.638 108.182 749.146 121.119 744.863 125.791 743.317 126.602 741.638 125.063 736.695M113.691 684.384C114.873 687.036 116.019 689.563 117.125 692.004 119.847 698.01 122.418 703.683 124.684 709.366 127.081 715.383 129.244 721.604 131.336 727.621 132.242 730.226 133.147 732.832 134.074 735.429 134.192 735.759 134.294 736.104 134.395 736.447 134.697 737.475 134.983 738.445 135.664 738.784 135.857 738.88 136.09 738.928 136.361 738.928 136.773 738.928 137.273 738.818 137.856 738.597 157.807 731.061 175.781 722.43 194.316 711.483 162.603 704.613 137.62 696.217 113.691 684.384M281.762 571.037C281.187 570.682 280.001 570.969 278.33 571.868 242.375 591.212 202.564 602.856 156.676 607.446 188.272 629.217 213.487 652.968 233.725 680.02 234.772 681.42 235.707 682.122 236.666 682.227 237.643 682.338 238.72 681.837 240.087 680.666 248.342 673.587 257.07 666.25 266.772 658.236 268.777 656.581 269.415 654.237 270.032 651.972 270.141 651.573 270.248 651.176 270.363 650.785 277.686 625.789 281.762 600.469 282.476 575.53 282.531 573.572 282.59 571.548 281.762 571.037M324.308 591.173C324.158 590.354 323.462 589.572 322.116 588.712 311.492 581.916 303.41 576.636 295.91 571.591 293.79 570.165 292.825 570.137 292.393 570.369 291.58 570.799 291.459 572.631 291.45 574.547 291.338 598.079 287.086 621.001 282.414 642.333 298.662 626.602 310.96 610.601 323.145 594.236 324.089 592.969 324.458 591.995 324.308 591.173M387.152 452.679C386.536 450.539 384.26 448.71 379.294 446.365 344.732 430.043 307.009 420.019 273.071 418.138 262.495 417.88 256.664 417.741 255.436 419.685 254.394 421.332 256.339 425.187 259.282 431.023 277.364 466.864 288.014 505.843 290.937 546.876 291.149 549.87 291.592 551.378 292.371 551.767 292.533 551.847 292.721 551.888 292.941 551.888 293.787 551.888 295.099 551.28 297.118 549.972 331.82 527.501 361.011 497.974 383.879 462.208 386.826 457.6 387.774 454.838 387.152 452.679M-126.923 82.56C-135.521 51.765-135.523 20.987-126.932-11.195-148.276 10.656-174.635 25.598-207.238 34.331-174.725 43.333-148.363 59.16-126.923 82.56M-389.584 388.961C-389.906 388.186-390.167 387.465-390.424 386.752-390.594 386.281-390.766 385.806-390.957 385.311L-390.985 385.229C-399.865 356.433-400.636 326.254-393.284 295.482-407.663 303.438-412.576 312.896-414.667 335.321-416.34 353.268-409.894 363.757-399.078 378.9-398.023 380.376-393.605 385.045-389.584 388.961M-357.386 336.354C-357.365 310.438-363.338 286.482-373.427 271.776-393.67 299.883-398.004 361.78-373.594 402.793-363.297 386.731-357.408 362.668-357.386 336.354M-250.01 494.523C-250.012 494.401-250.027 494.196-250.041 494.025-250.044 493.985-250.047 493.945-250.05 493.904-262.5 493.099-274.602 496.317-284.846 499.599-315.204 509.323-340.458 527.553-359.906 553.782-360.204 554.183-360.549 554.578-360.9 554.977-362.169 556.417-362.86 557.296-362.311 558.606-361.814 559.792-360.984 560.185-359.537 560.185-358.988 560.185-358.351 560.128-357.609 560.037-311.711 554.391-275.511 532.35-250.01 494.523M176.037 49.617C175.893 50.524 175.749 51.428 175.606 52.327 174.184 61.317 172.83 69.868 170.265 78.681 183.806 68.836 184.571 64.795 176.037 49.617M141.544 104.38C135.37 92.756 125.992 83.562 117.583 76.071 93.564 54.681 65.118 42.251 33.032 39.129 32.657 39.092 32.27 39.034 31.878 38.975 30.037 38.696 29.169 38.664 28.575 39.529 28.192 40.089 28.374 40.557 29.501 41.917 29.712 42.173 29.917 42.42 30.092 42.659 58.405 81.254 95.749 102.122 141.093 104.687 141.196 104.624 141.36 104.509 141.498 104.412 141.513 104.401 141.528 104.391 141.544 104.38M-277.685 488.274C-308.233 480.147-333.871 465.783-355.801 444.51-347.812 474.908-348.241 504.714-357.109 535.312-334.176 511.903-308.106 496.465-277.685 488.274M-260.185 522.312C-281.102 542.616-305.737 556.599-335.253 564.921-303.558 575.038-278.176 591.211-257.945 614.197-267.23 584.322-267.963 554.156-260.185 522.312M-104.085 658.52C-87.525 632.965-66.825 609.969-42.558 590.171-42.416 590.055-42.282 589.926-42.152 589.788-62.729 596.552-84.716 603.38-107.895 607.12-119.819 609.043-133.969 611.044-148.507 611.3-155.274 611.419-160.392 613.06-165.099 616.619-174.003 623.352-182.74 629.916-191.715 636.207-194.971 638.488-195.519 640.609-193.81 644.312-185.911 661.422-177.187 675.653-167.138 687.82-165.377 689.951-163.759 690.953-161.76 690.953-160.646 690.953-159.415 690.643-157.977 690.043-140.418 682.727-125.029 674.854-110.93 665.974-108.105 664.194-106.15 661.707-104.085 658.52M-80.009 642.231C-64.712 630.773-50.916 616.716-38.931 600.375-53.518 611.36-67.002 625.101-80.009 642.231M.655 534.25C13.927 506.081 21.126 478.706 22.616 450.726 10.072 477.411 2.69 505.485 .655 534.25M245.172 124.961C243.355 122.364 225.924 121.644 216.908 123.793 213.469 124.613 213.087 125.483 213.052 125.73 212.344 130.687 212.5 135.874 212.65 140.891 212.715 143.018 212.781 145.218 212.781 147.376V147.389C211.605 195.513 197.665 235.158 170.163 268.59 164.829 275.074 158.386 281.205 149.271 288.468 147.974 289.502 146.574 290.608 145.136 291.69 142.772 293.468 142.247 296.147 143.731 298.858 144.208 299.729 144.726 300.232 145.271 300.354 145.366 300.375 145.464 300.385 145.563 300.385 146.368 300.385 147.27 299.725 148.144 299.083 148.637 298.722 149.104 298.38 149.57 298.139 179.125 282.898 208.163 272.975 238.343 267.798 249.205 265.935 262.127 263.995 275.618 263.733 277.968 263.688 279.472 263.239 280.35 262.322 281.23 261.401 281.613 259.873 281.554 257.511 280.411 211.667 268.316 167.305 245.606 125.653 245.477 125.415 245.329 125.185 245.172 124.961M151.741 123.176C132.095 152.799 131.924 215.434 151.423 248.269 171.794 217.808 171.96 156.212 151.741 123.176M195.057 152.635C195.038 150.358 194.997 148.197 194.958 146.089 194.843 139.971 194.744 134.687 195.222 129.366 195.91 121.706 193.19 118.183 185.836 117.208 179.624 116.385 173.303 115.415 166.611 114.39 164.267 114.03 161.846 113.659 159.323 113.277 168.227 127.807 179.111 139.791 195.057 152.635M169.52 141.654C177.394 172.405 177.176 202.185 168.861 232.423 174.723 227.802 179.284 221.951 182.746 214.634 190.173 198.931 192.334 181.843 194.423 165.317 194.645 163.561 194.104 162.348 192.613 161.26 183.515 154.612 176.069 148.299 169.52 141.654M56.288 155.925C55.675 164.229 51.937 171.824 47.746 178.831 62.225 178.64 82.13 170.947 101.59 157.939 121.299 144.765 137.277 128.296 144.781 113.511 120.934 114.184 98.787 120.615 77.149 133.146 75.262 134.239 73.398 135.49 71.597 136.699 69.84 137.878 68.024 139.097 66.156 140.192 59.862 143.884 56.818 148.735 56.288 155.925M10.633 77.976C11.116 81.399 13.641 82.225 17.718 83.287 20.117 83.913 22.598 84.56 24.513 86.149 26.825 88.067 29.445 89.628 32.218 91.279 32.867 91.666 33.521 92.056 34.177 92.453 34.148 78.121 28.449 58.463 21.074 47.33 18.831 50.638 17.493 54.328 16.087 58.207 15.828 58.919 15.57 59.631 15.307 60.34 14.849 61.57 14.342 62.81 13.832 64.056 11.944 68.666 9.992 73.434 10.633 77.976M-73.553 146.909C-73.211 139.536-72.438 131.801-69.979 124.337-69.58 123.126-69.533 122.271-69.834 121.72-70.151 121.144-70.979 120.682-72.293 120.349-80.681 118.225-89.885 116.322-100.502 116.605-91.802 129.103-83.362 138.594-73.553 146.909M-111.926 249.58C-102.496 235.893-96.767 213.248-96.534 188.477-96.295 163.102-101.555 139.625-111.001 123.732-120.174 133.028-126.496 154.967-127.225 180.413-128.009 207.794-122.308 233.457-111.926 249.58M-364.85 256.973C-363.619 259.315-358.12 257.962-353.699 256.875-352.075 256.476-350.542 256.098-349.133 255.856-309.037 248.994-276.714 228.871-253.064 196.048-252.691 195.53-252.238 195.022-251.8 194.531-250.357 192.912-249.523 191.85-250.113 190.755-250.551 189.945-251.382 189.939-253.318 190.124-253.911 190.181-254.548 190.241-255.196 190.241-255.615 190.241-256.039 190.216-256.456 190.146-296.728 194.432-330.241 212.193-356.065 242.939-357.004 244.059-358.115 245.175-359.291 246.357-362.873 249.962-366.579 253.688-364.85 256.973M-253.603 331.929C-253.413 331.929-253.221 331.929-253.031 331.927-270.207 298.085-324.568 267.066-363.494 268.898-343.405 303.694-294.118 331.929-253.603 331.929M-296.24 246.252C-307.988 252.71-320.965 258.049-336.8 262.922-306.753 271.229-281.547 285.64-259.992 306.839-267.393 277.523-267.419 248.792-260.073 219.286-270.682 228.927-282.415 238.65-296.24 246.252M-276.985 338.521C-306.941 330.411-332.158 316.545-353.818 296.271-346.325 324.898-346.883 353.709-355.521 384.058-332.64 361.499-306.863 346.552-276.985 338.521M-254.942 481.952C-254.035 481.952-253.128 481.937-252.231 481.908-259.86 466.998-275.917 451.054-295.6 438.93-317.774 425.271-342.194 417.733-364.629 417.59-343.817 453.499-295.039 481.952-254.942 481.952M-253.217 344.167C-297.69 348.564-332.933 368.625-360.822 405.418-325.994 407.446-270.633 375.951-253.217 344.167M-337.291 412.075C-307.591 419.785-282.368 434.147-260.442 455.833-267.758 426.262-267.162 397.047-258.625 366.822-280.767 388.874-306.587 403.726-337.291 412.075M-228.921 581.219C-231.211 564.774-231.092 547.769-228.566 530.674-227.641 524.414-228.864 519.412-232.657 513.949-234.986 510.593-236.914 507.074-239.147 502.998-239.839 501.734-240.556 500.426-241.316 499.065-262.045 541.952-262.227 584.639-241.865 629.406-241.22 627.998-240.574 626.604-239.932 625.219-233.154 610.597-226.753 596.787-228.921 581.219M-210.34 648.939C-211.338 646.551-213.333 646.008-216.438 645.877-220.212 645.717-224.037 645.749-228.086 645.782-229.19 645.791-230.314 645.8-231.464 645.806-222.901 660.736-204.326 678.878-189.344 687.246-197.464 675.921-204.2 663.617-210.34 648.939M11.732 546.698C40.379 527.469 64.54 502.752 83.596 473.178 55.272 492.249 31.113 516.963 11.732 546.698M111.31 595.693C82.885 581.536 52.563 573.66 18.771 571.654 47.296 585.625 78.402 593.706 111.31 595.693M245.877 425.17C220.758 464.404 190.149 495.757 152.358 520.958 198.852 522.855 241.237 533.448 281.845 553.316 280.468 509.652 268.697 467.719 245.877 425.17M36.157 197.626C36.65 198.075 37.16 198.539 37.569 199.056 64.718 233.347 99.275 251.926 143.153 255.806 136.289 243.445 127.401 234.678 118.772 227.04 96.202 207.063 70.309 195.091 41.811 191.454 38.29 191.006 36.269 191.75 34.84 194.029 33.962 195.429 34.474 196.091 36.157 197.626M-80.113 109.859C-73.682 112.038-70.102 113.036-67.633 112.355-65.24 111.697-63.489 109.234-60.649 104.504ZM-123.265 269.409C-155.318 267.566-209.161 294.967-229.965 331.358-191.812 331.212-142.992 302.877-123.265 269.409M-231.832 634.43C-231.776 634.535-231.312 634.827-229.875 634.827H-229.785C-229.479 634.822-229.176 634.823-228.875 634.852-222.931 635.416-218.738 635.475-217.612 633.916-216.368 632.196-217.943 627.455-221.004 620.349-225.046 623.834-227.833 627.882-230.538 631.809L-231.047 632.549C-231.87 633.741-231.89 634.321-231.832 634.43M-98.99 476.442C-79.439 504.217-57.358 525.977-31.609 542.839-49.631 516.837-72.283 494.516-98.99 476.442M-51.47 446.93C-51.666 445.983-51.869 445.004-51.797 444.024-50.211 422.326-62.593 407.432-74.568 393.028-78.124 388.751-81.8 384.329-85.066 379.788-86.634 377.606-88.012 378.251-90.294 379.318L-90.437 379.384C-106.195 386.737-120.264 397.25-133.12 407.514-135.876 409.715-135.235 412.098-134.19 414.76-129.125 427.658-122.609 439.623-115.235 452.808-114.616 453.916-113.573 454.974-112.444 455.64-84.823 471.936-59.315 493.401-34.536 521.208-42.489 498.405-47.946 474.565-51.201 448.421-51.263 447.924-51.367 447.427-51.47 446.93M1.242 306.091C-6.593 277.427-6.688 249.144 .936 217.817-22.715 240.451-49.034 254.951-79.254 261.992-48.351 269.363-21.315 284.175 1.242 306.091M9.129 331.547C-6.35 299.675-65.167 266.127-100.641 268.946-86.074 300.104-25.413 334.702 9.129 331.547M-3.816 209.977C-17.153 209.037-27.996 206.664-37.724 202.577-38.105 202.507-39.297 203.147-39.874 203.451-40.166 203.604-40.449 203.753-40.714 203.881-64.616 215.403-84.451 232.445-99.669 254.534-99.801 254.727-99.896 255.128-100.008 255.641-62.842 252.611-31.331 237.655-3.816 209.977M26.476 206.653C25.523 203.09 24.845 201.897 22.933 202.325 18.619 203.282 14.598 204.513 12.801 208.993 8.581 219.518 5.772 230.717 4.453 242.28 1.051 272.079 5.966 300.236 19.062 325.972 19.162 326.17 19.26 326.372 19.357 326.575 19.832 327.564 20.228 328.39 21.138 328.903 30.028 314.444 33.7 298.265 35.908 285.712 40.303 260.742 37.431 235.587 27.128 208.809 26.878 208.159 26.683 207.428 26.476 206.653M-94.751 292.104C-94.738 292.164-94.726 292.224-94.712 292.283-92.293 303.34-90.007 313.783-89.138 324.735-88.196 336.584-89.176 348.245-90.446 360.108-79.859 356.266-69.103 353.114-58.682 350.061-45.435 346.18-31.771 342.176-18.333 336.717-49.08 327.932-74.151 313.298-94.751 292.104M-211.671 338.239C-210.102 339.174-208.334 339.437-206.494 339.712-205.532 339.855-204.538 340.004-203.576 340.254-177.232 347.08-153.801 360.115-133.932 378.999-133.419 379.487-132.976 380.108-132.548 380.708-131.053 382.804-130.425 383.389-128.69 382.254-126.943 381.114-127.238 379.909-128.012 377.506-128.197 376.931-128.389 376.335-128.528 375.731-135.089 347.326-134.549 319.084-126.924 291.79-126.548 290.446-126.159 289.029-125.842 287.612-148.158 313.178-176.28 329.767-211.671 338.239M-199.327 379.694C-188.633 388.008-176.15 395.003-161.166 401.079-159.163 401.892-157.507 402.316-155.997 402.316-153.545 402.316-151.474 401.198-148.917 398.798L-148.159 398.088C-142.335 392.628-139.127 389.621-139.213 387.289-139.302 384.872-143.01 381.878-149.741 376.442L-149.861 376.346C-173.622 357.156-197.594 347.786-232.106 344.3-223.468 357.771-212.997 369.067-199.327 379.694M-220.486 503.913C-220.146 502.722-219.442 501.502-218.761 500.324-217.316 497.825-216.834 496.69-217.584 496.137-221.543 493.217-227.437 493.394-232.679 493.952-233.087 493.996-233.226 494.088-233.235 494.088H-233.236C-233.366 494.41-232.889 495.588-232.686 496.092L-232.619 496.257C-230.205 502.261-227.426 507.477-223.737 512.899-223.458 512.169-223.191 511.478-222.935 510.817-221.911 508.167-221.102 506.074-220.486 503.913M-65.44 562.97C-69.595 562.062-73.558 561.197-77.517 560.316-102.072 554.849-125.908 546.19-148.362 534.578-152.841 532.261-157.242 531.217-162.191 531.313-175.942 531.562-189.889 532.898-203.646 535.286-208.03 536.047-210.658 537.437-211.113 542.285-212.795 560.182-212.29 576.591-209.569 592.449-208.883 596.451-207.341 597.999-203.458 598.583-190.383 600.551-177.083 601.704-162.799 602.108-162.702 602.111-162.604 602.112-162.507 602.112-160.55 602.112-158.678 601.549-156.484 600.307-126.449 583.304-94.459 571.495-61.414 565.211-61.327 565.175-61.1 564.897-60.881 564.629-60.75 564.468-60.598 564.282-60.417 564.069ZM-179.298 425.826C-172.076 422.392-167.381 416.96-161.945 410.672-161.729 410.422-161.513 410.172-161.295 409.92-186.166 400.268-206.458 387.308-223.134 370.411-215.674 400.958-215.65 429.352-223.062 456.928-211.717 446.459-196.938 434.217-179.298 425.826M-153.856 444.963C-165.829 439.667-165.83 439.665-172.365 449.392-174.022 451.856-176.083 454.924-178.831 458.664-185.124 467.23-189.958 476.896-194.633 486.244L-194.746 486.469C-196.549 490.075-196.119 492.071-192.976 494.682-181.032 504.605-168.231 513.237-154.929 520.339-151.891 521.961-148.727 522.302-145.427 522.302-144.247 522.302-143.048 522.259-141.833 522.214-139.443 522.127-136.972 522.038-134.563 522.314L-131.942 522.614C-119.495 524.041-106.623 525.516-94.074 527.998-85.173 529.759-76.261 532.179-67.642 534.52-64.173 535.462-60.604 536.431-57.025 537.362-77.133 518.649-96.262 499.867-110.285 477.049-118.114 464.311-129.037 455.374-144.66 448.923-148.34 447.404-151.399 446.051-153.856 444.963M-188.675 441.791C-205.23 451.583-219.042 464.586-230.746 481.383-217.356 483.144-210.846 479.791-204.596 468.303-199.794 459.477-194.508 450.951-188.675 441.791M-206.525 525.525C-206.231 526.185-205.323 526.435-204.061 526.435-201.928 526.435-198.785 525.721-195.885 525.062-193.601 524.543-191.238 524.006-189.285 523.783-187.67 523.598-186.081 523.496-184.398 523.388-180.542 523.141-176.564 522.885-172.18 521.576-174.54 519.867-176.849 518.201-179.118 516.563-185.682 511.825-191.882 507.351-198.043 502.789-199.069 502.029-199.838 501.74-200.406 501.902-200.945 502.058-201.413 502.666-201.838 503.76L-201.956 504.043C-202.023 504.203-202.092 504.361-202.138 504.526-202.713 506.573-203.553 508.692-204.364 510.742-206.389 515.854-208.482 521.14-206.525 525.525M-143.673 417.835C-144.516 417.683-145.593 418.711-146.329 419.491-147.512 420.748-148.779 421.972-150.004 423.155-152.961 426.012-156.015 428.962-158.405 432.811L-130.568 445.387-133.824 438.12C-136.714 431.672-139.376 425.734-142.002 419.78-142.527 418.59-143.089 417.936-143.673 417.835M-50.004 366.139C-50.457 365.721-51.36 365.664-52.765 365.962-53.125 366.039-53.481 366.164-53.858 366.296-54.024 366.354-54.189 366.412-54.355 366.466-56.646 367.213-59.346 367.78-61.957 368.328-67.69 369.531-73.618 370.774-75.157 373.914-76.958 377.589-73.317 381.178-69.462 384.977-67.339 387.07-65.143 389.234-63.769 391.52-61.912 394.611-59.709 397.56-57.159 400.975-56.103 402.388-54.981 403.891-53.786 405.532-53.391 402.022-53.015 398.639-52.65 395.349-51.631 386.169-50.669 377.499-49.584 368.965-49.397 367.496-49.535 366.571-50.004 366.139M-126.862 533.673C-98.375 546.909-68.95 554.457-39.329 556.128-66.107 542.98-95.531 535.433-126.862 533.673M-205.469 608.935C-203.585 620.017-202.548 626.121-199.958 627.167-197.411 628.191-192.66 624.696-184.034 618.342-183.283 617.789-182.51 617.296-181.691 616.775-179.476 615.364-177.189 613.909-175.306 611.153L-205.059 608.178C-205.16 608.388-205.245 608.554-205.315 608.689-205.375 608.807-205.444 608.938-205.464 608.938-205.466 608.938-205.467 608.937-205.469 608.935M-119.438 375.711C-117.971 374.871-116.55 374.033-115.157 373.211-111.125 370.834-107.318 368.59-103.271 366.792-99.346 365.049-99.021 361.754-98.675 358.266-98.626 357.77-98.578 357.281-98.52 356.806-94.845 326.88-98.709 300.478-110.334 276.161-123.716 292.363-130.465 344.229-119.438 375.711M-46.004 197.008C-58.299 187.297-66.366 175.591-70.634 161.28-71.28 159.113-73.329 157.741-75.499 156.289-76.212 155.811-76.95 155.316-77.635 154.791-82.762 150.852-87.351 146.198-91.789 141.697-92.812 140.66-93.852 139.605-94.905 138.553-85.671 170.003-85.659 201.018-94.866 233.057-79.343 217.251-63.671 205.696-46.004 197.008M-8.033 77.413C-2.241 78.311-.166 78.526 1.234 76.703 2.859 74.587 3.881 69.473 5.56 60.373 .043 66.668-5.521 71.704-11.341 76.917-10.145 77.087-9.049 77.256-8.033 77.413M23.018 514.692C27.005 510.324 31.128 505.806 35.295 501.466 53.02 482.999 71.063 468.207 90.454 456.245 96.006 452.821 99.944 448.499 102.849 442.644 120.591 406.889 130.505 372.529 133.156 337.601 133.293 335.806 133.551 334.062 133.823 332.217 134.464 327.875 135.126 323.392 134.106 318.194 104.177 337.573 79.335 360.442 58.184 388.084L57.541 388.923C56.363 390.457 55.146 392.043 54.008 393.64 42.779 409.389 33.469 424.079 33.27 444.408 33.035 468.426 27.401 491.751 18.949 519.141 20.308 517.661 21.663 516.176 23.018 514.692M270.942 558.26C270.342 558.028 269.752 557.799 269.188 557.539 228.124 538.609 183.855 529.803 137.61 531.353 134.518 531.457 131.949 531.797 129.472 533.12 104.756 546.318 76.836 556.363 44.178 563.801 68.177 569.006 86.408 574.363 103.042 581.085 104.38 581.625 105.73 582.147 107.083 582.67 111.387 584.333 115.838 586.054 119.854 588.397 132.885 595.999 146.488 598.706 162.679 596.91 204.765 592.247 242.043 580.93 276.621 562.319 275.192 559.906 273.034 559.07 270.942 558.26M148.869 310.144C188.976 336.009 220.574 367.501 245.423 406.37 261.265 378.764 271.566 349.5 277.823 314.352 279.728 303.655 280.937 292.086 281.521 278.982 281.633 276.439 281.361 275.067 280.582 274.244 279.793 273.411 278.361 273.03 275.941 273.008 238.806 272.676 179.679 289.965 148.869 310.144M114.171 260.45C84.073 251.127 59.382 236.296 38.949 215.263 47.293 243.993 48.06 273.516 41.23 303.166 62.835 282.453 86.772 268.435 114.171 260.45M129.091 310.3C125.652 307.457 123.232 305.708 119.368 307.896 90.72 324.107 59.535 334.453 32.555 342.877 26.755 344.687 25.704 346.591 27.203 352.57 31.151 368.327 33.5 384.99 34.569 404.891 61.154 364.969 92.093 334.009 129.091 310.3M36.146 323.355C44.374 321.53 51.431 318.859 58.282 316.268 60.256 315.521 62.212 314.78 64.176 314.067 90.693 304.443 112.631 293.432 131.243 280.403 136.287 276.873 141.387 272.759 143.883 264.853 100.366 268.497 65.073 287.658 36.146 323.355M37.7 542.721C41.61 541.304 45.654 539.839 49.65 538.449 73.024 530.318 97.065 525.192 121.105 523.214 125.649 522.841 130.479 522.136 135.021 519.527 175.604 496.214 209.529 463.803 235.854 423.193 235.979 423 236.115 422.808 236.255 422.611 237.041 421.502 237.853 420.357 237.256 418.008 205.306 419.71 173.729 426.751 143.396 438.937 141.943 439.521 140.483 440.171 139.072 440.8 137.863 441.338 136.655 441.876 135.433 442.383 120.694 448.499 104.125 457.353 92.979 476.664 77.372 503.705 54.919 525.741 34.649 543.825 35.666 543.458 36.683 543.089 37.7 542.721M38.979 553.449C57.851 551.175 77.336 545.592 98.352 536.44 76.804 539.115 56.859 544.829 38.979 553.449M117.832 440.376C118.197 440.125 118.542 439.886 118.901 439.711 154.314 422.485 191.102 412.314 228.238 409.481 228.692 409.448 229.268 409.473 229.935 409.503 231.58 409.581 233.835 409.682 234.388 408.708 234.667 408.215 234.67 407.127 233.094 404.741 209.751 369.414 180.426 341.103 143.46 318.214 142.504 360.911 132.935 400.959 114.219 440.595 115.628 441.901 116.654 441.192 117.832 440.376M-225.875 416.637C-225.543 391.362-231.206 367.556-241.455 350.919-262.389 384.911-262.607 440.882-241.936 477.822-232.169 463.609-226.192 440.939-225.875 416.637M-142.178 261.903C-173.825 254.267-200.333 239.635-222.93 217.332-215.14 247.894-215.693 277.768-224.617 308.357-200.437 284.45-173.375 269.2-142.178 261.903M-122.086 255.182C-136.673 233.423-155.203 217.006-178.665 205.04-193.012 197.723-208.868 193.036-227.141 190.712-227.552 190.659-227.982 190.574-228.418 190.487-230.186 190.133-231.021 190.064-231.592 190.871-232.007 191.458-231.726 192.021-230.669 193.416-230.499 193.643-230.332 193.863-230.18 194.079-205.103 229.761-162.902 253.545-122.086 255.182M-201.104 186.8C-173.323 195.796-150.038 209.936-130.167 229.882-137.318 203.637-138.008 177.145-132.274 149.18-151.631 166.227-174.22 178.573-201.104 186.8M40.044 69.213C41.509 74.593 42.035 80.141 42.547 85.549 43.428 94.838 44.26 103.612 49.403 111.604 53.152 117.429 55.565 124.473 56.578 132.541 56.86 134.791 57.261 135.078 57.338 135.113 57.339 135.114 57.371 135.127 57.448 135.127 57.667 135.127 58.246 135.018 59.469 134.182 75.676 123.107 92.258 114.979 110.04 109.407 82.336 100.498 59.356 87.305 40.044 69.213M59.7 186.204C89.043 194.512 113.396 208.521 133.899 228.893 126.679 201.093 126.453 173.372 133.21 144.439 113.25 163.776 89.125 177.482 59.7 186.204M205.313 81.021C207.467 90.706 209.693 100.722 210.803 110.752 210.982 112.383 211.4 113.396 212.117 113.943 212.586 114.3 213.225 114.478 214.055 114.478 214.431 114.478 214.846 114.441 215.301 114.368 216.685 114.147 218.101 114.055 219.47 113.965 220.658 113.887 221.887 113.806 223.074 113.642 224.629 113.426 226.46 113.524 228.227 113.622 231.619 113.806 234.826 113.98 235.682 112.058 237.064 108.952 234.421 105.826 231.864 102.803 230.943 101.715 229.992 100.59 229.25 99.486 221.634 88.159 212.633 77.521 202.481 67.846 203.371 72.283 204.357 76.718 205.313 81.021M82.854 654.313C63.177 625.985 39.307 602.454 11.852 584.32 30.341 611.897 54.211 635.427 82.854 654.313M-8.304 518.929C-8.113 519.126-7.883 519.364-7.609 519.659-2.92 487.354 4.864 461.75 16.856 439.152 29.69 414.966 25.147 390.917 20.753 367.661 19.702 362.099 18.615 356.349 17.775 350.664 17.612 349.556 17.233 348.822 16.617 348.42 15.53 347.711 13.803 348.103 12.269 348.524 5.674 350.335-.912 352.18-7.498 354.024-16.621 356.58-26.054 359.222-35.358 361.728-38.609 362.602-39.881 363.938-40.4 367.021-43.53 385.607-43.998 404.071-44.056 418.08-44.062 419.361-43.914 421.787-42.862 423.647-26.935 451.832-15.842 482.747-8.952 518.158-8.927 518.285-8.666 518.555-8.304 518.929M-135.923 601.16C-98.114 598.391-62.709 588.692-27.805 571.542-49.9 569.252-112.668 585.119-135.923 601.16M-240.881 197.837C-262.162 232.789-262.708 289.212-242.119 325.748-221.061 293.479-220.439 229.427-240.881 197.837M-122.489 115.808C-167.761 121.619-202.747 141.812-229.448 177.54-229.714 177.896-230.029 178.239-230.334 178.572-231.7 180.063-231.884 180.548-231.369 181.298-231.018 181.81-230.525 181.991-229.764 181.991-229.283 181.991-228.695 181.919-227.968 181.811-227.586 181.753-227.211 181.698-226.854 181.662-185.694 177.561-151.545 159.414-125.356 127.728-124.565 126.771-123.979 125.6-123.36 124.359-122.949 123.537-122.523 122.687-122.022 121.876-119.609 117.974-119.525 116.184-119.818 115.781-119.962 115.584-120.658 115.36-122.347 115.78ZM-99.5 102.978C-99.229 103.475-98.827 103.69-98.135 103.69-97.532 103.69-96.709 103.526-95.561 103.24-94.886 103.073-94.189 102.899-93.533 102.816-49.85 97.301-15.409 76.268 11.673 38.547-8.907 40.43-25.671 44.648-40.892 51.756-63.397 62.265-82.215 77.349-96.823 96.588L-97.306 97.215C-99.08 99.505-100.368 101.384-99.5 102.978M186.204 100.723 187.099 100.52C190.51 99.749 191.421 98.426 190.709 95.277 190.407 93.937 190.132 92.589 189.855 91.232 188.917 86.633 187.949 81.891 185.777 77.069 176.574 84.543 169.425 93.429 161.856 104.272 171.213 104.113 178.825 102.392 186.204 100.723M-40.988 449.976C-38.174 480.373-30.012 509.067-16.706 535.344-19.401 506.383-27.562 477.692-40.988 449.976M-140.538 109.762C-175.045 101.432-202.605 86.215-224.501 63.399-215.542 94.866-215.498 125.473-224.365 156.661-197.823 132.028-179.61 120.473-140.538 109.762M-123.933 102.929C-137.998 73.89-188.162 40.429-230.014 40.429-230.133 40.429-230.255 40.43-230.375 40.43-217.505 69.996-162.454 102.348-123.933 102.929M-14.869 33.208C-44.458 25.026-69.564 10.581-91.354-10.8-83.533 17.647-82.801 44.831-89.058 74.04-65.195 52.966-41.422 39.876-14.869 33.208M1.157 600.829C3.33 627.103 10.29 653.583 22.399 681.652 23.8 665.674 11.67 619.444 1.157 600.829M-15.413 596.176C-27.349 619.485-39.217 667.784-37.811 687.205-24.378 656.401-17.04 626.58-15.413 596.176M297.742 560.991 305.637 566.399C313.3 571.646 320.539 576.602 327.786 581.646 328.802 582.353 329.563 582.623 330.187 582.5 330.801 582.379 331.382 581.864 332.017 580.879 351.984 549.862 365.332 522.135 373.892 493.852 351.14 520.921 326.202 542.906 297.742 560.991M227.878 690.024C229.02 688.273 228.137 687.332 227.114 686.241 226.85 685.959 226.591 685.682 226.375 685.398 202.306 653.871 172.854 627.937 138.836 608.318 136.071 606.724 133.33 606.494 130.779 606.483 99.543 606.348 69.063 601.121 40.188 590.946 39.883 590.837 39.41 590.93 38.694 591.072 38.478 591.115 38.24 591.161 37.979 591.208 50.766 602.466 62.836 613.143 73.048 625.773 75.021 628.213 77.112 630.657 79.135 633.02 84.607 639.415 90.267 646.028 94.306 653.395 102.373 668.107 115.301 675.383 128.069 681.055 150.238 690.903 174.223 698.221 199.356 702.807 205.431 703.913 224.354 695.432 227.878 690.024M-29.183 765.843C-29.117 765.843-29.049 765.842-28.982 765.842-12.437 765.662 2.086 765.642 15.418 765.778 15.47 765.779 15.521 765.779 15.572 765.779 19.744 765.779 21.721 763.999 22.379 759.668 24.612 744.974 25.578 729.107 25.334 711.163 25.306 709.112 24.433 707.023 23.704 705.632 10.02 679.482-.132 651.003-7.297 618.646-11.733 640.921-16.711 659.079-22.908 675.618-23.523 677.259-24.104 678.968-24.665 680.62-26.246 685.278-27.881 690.094-30.541 694.18-42.584 712.681-39.517 732.406-36.55 751.481-36.052 754.684-35.537 757.996-35.1 761.254-34.653 764.585-33.043 765.843-29.183 765.843M-45.426 753.936C-45.922 752.008-46.436 750.015-46.552 748.281-46.826 744.192-47.291 740.09-47.829 735.341-48.043 733.452-48.27 731.456-48.501 729.309-50.227 731.785-51.852 734.137-53.411 736.394-57.562 742.402-61.146 747.591-64.979 752.727-66.046 754.158-66.454 755.245-66.226 756.05-65.993 756.869-65.076 757.556-63.25 758.278-61.732 758.879-60.129 759.675-58.58 760.444-55.228 762.11-51.791 763.817-48.785 763.817-47.762 763.817-46.789 763.619-45.886 763.154-43.384 761.866-44.376 758.014-45.426 753.936M-396.778 477.117C-394.876 465.868-392.828 454.27-388.809 441.877-404.323 454.944-404.875 457.589-396.778 477.117M-398.703 254.49C-396.846 257.022-391.617 257.77-381.846 256.872-385.461 249.609-390.688 243.87-395.845 238.626-395.873 238.642-395.9 238.656-395.926 238.671-395.966 238.692-396.002 238.712-396.035 238.729-399.684 247.164-400.506 252.03-398.703 254.49M-337.116 121.555C-339.184 124.774-340.936 127.217-342.344 129.179-344.758 132.544-346.087 134.397-345.789 135.751-345.458 137.246-343.229 139.182-339.183 142.695-337.929 143.784-336.496 145.029-334.874 146.473-312.858 166.072-286.814 177.721-257.467 181.095-255.123 181.365-253.227 181.516-251.501 181.568H-251.462C-251.138 181.568-250.701 181.451-249.93 181.246-249.79 181.208-249.641 181.169-249.481 181.127-270.443 149.874-297.459 129.75-332.02 119.629-334.479 118.911-335.718 119.376-337.116 121.555M-123.878-29.109C-129.355-28.703-133.95-26.989-138.413-25.323-139.485-24.924-140.546-24.527-141.608-24.153-168.771-14.579-193.994-2.713-216.577 11.117-223.167 15.152-227.232 21.154-232.184 28.729-186.673 24.298-151.195 5.351-123.878-29.109M4.522-44.435C3.325-43.228 3.47-39.87 3.733-33.742 4.585-13.935 9.553 4.753 19.337 24.876 29.909 5.108 35.326-15.574 36.353-39.989 36.421-41.616 36.208-42.639 35.682-43.206 35.182-43.745 34.242-44.031 32.809-44.079 29.727-44.182 26.613-44.447 23.604-44.703 20.662-44.953 17.621-45.213 14.641-45.316 9.067-45.51 5.704-45.627 4.522-44.435M44.283-39.785C44.468-23.619 40.872-7.851 37.072 6.069 53.032-10.291 70.561-23.146 90.449-33.084 76.753-37.364 62.513-40.437 47.026-42.458 46.314-42.55 45.359-42.573 44.88-42.146 44.471-41.782 44.27-40.987 44.283-39.785M194.599 8.5C183.568 1.231 173.052-3.796 161.989-9.029 167.807 5.512 179.22 7.669 194.599 8.5M-8.502 791.379C-246.154 793.529-445.31 595.182-440.813 351.325-436.595 122.554-249.897-70.502-12.623-72.587 226.494-74.688 420.396 117.768 423.084 354.314 425.875 600.027 226.055 792.755-8.502 791.379"/>
</g>
</g>
</svg>
