<svg xmlns="http://www.w3.org/2000/svg" xmlns:xlink="http://www.w3.org/1999/xlink" xmlns:inkscape="http://www.inkscape.org/namespaces/inkscape" version="1.1" width="1984.25" height="1984.25" viewBox="0 0 1984.25 1984.25">
<defs>
<clipPath id="clip_1">
<path transform="matrix(1,0,0,-1,0,1984.25)" d="M0 1984.252H1984.252V0H0Z"/>
</clipPath>
</defs>
<g inkscape:groupmode="layer" inkscape:label="Layer 1">
<g clip-path="url(#clip_1)">
<path transform="matrix(1,0,0,-1,1113.6465,1665.5703)" d="M0 0C-5.246 6.943-12.3 9.752-19.385 12.212-21.861 13.072-24.827 11.572-25.585 8.831-26.298 6.251-23.809 4.947-21.713 4.833-14.495 4.437-8.698-2.074 0 0M5.81 529.63C5.285 530.651 4.761 531.674 4.235 532.695-4.033 529.511-12.337 526.414-20.545 523.079-22.604 522.243-45.265 510.882-43.758 508.62-43.053 507.561-19.325 516.004-18.384 516.552-10.467 521.159-.795 522.795 5.81 529.63M-287.902 111.287C-288.66 112.106-289.418 112.925-290.177 113.744-299.099 108.685-307.039 102.796-307.328 90.375-300.853 97.346-294.377 104.316-287.902 111.287M-32.112 493.702C-32.766 493.005-31.934 491.921-31.082 492.355-18.082 499 16.781 514.648 24.806 519.406 26.25 520.262 26.972 522.297 25.446 523.762 24.727 524.453 22.732 524.902 22.093 524.423 1.658 519.974-21.874 504.611-32.112 493.702M-207.287 1347.021C-211.129 1346.501-213.558 1344.479-212.449 1341.063-210.618 1335.415-208.227 1329.065-202.571 1326.936-199.733 1325.868-194.737 1331.592-196.399 1334.387-199.154 1339.023-200.569 1345.849-207.287 1347.021M122.763 280.92C120.357 283.577 118.693 287.663 115.442 285.513 110.41 282.184 102.478 280.847 102.273 273.182 102.192 270.166 107.154 267.194 110.259 268.391 115.874 270.554 119.261 275.744 122.763 280.92M-20.92-15.003C-23.413-9.765-29.081-7.864-33.378-4.608-36.056-2.579-38.084 4.189-42.004 .432-45.802-3.21-41.52-8.039-38.776-11.658-35.687-15.734-30.775-16.633-26.261-18.03-23.936-18.75-22.094-17.632-20.92-15.003M118.241 177.236C112.841 176.346 107.437 174.767 102.813 171.384 99.917 169.266 97.037 165.588 98.631 162.612 100.733 158.687 104.412 161.24 107.578 163.005 111.708 165.307 116.149 167.066 120.511 168.93 122.988 169.989 125.574 171.127 124.878 174.31 124.135 177.711 120.967 176.998 118.241 177.236M-467.656 520.557C-474.128 524.636-480.718 526.555-487.38 523.195-489.964 521.894-494.132 519.6-492.871 515.414-491.923 512.269-488.411 511.686-485.327 511.322-477.45 510.395-472.559 515.035-467.656 520.557M-91.62 162.845C-90.4 158.98-89.866 155.912-88.492 153.283-86.803 150.051-83.56 147.541-80.027 149.125-74.354 151.669-79.219 154.689-80.583 157.246-82.287 160.44-84.292 163.652-79.71 165.804-70.571 170.094-78.058 172.678-80.982 173.771-94.348 178.764-85.795 164.384-91.62 162.845M25.74 19.7C26.127 20.647 26.515 21.594 26.902 22.54 18.677 27.562 10.493 32.657 2.212 37.585-4.48 41.567-8.442 35.454-12.018 32.267-15.312 29.331-10.515 26.91-8.033 26.355 3.16 23.849 14.472 21.87 25.74 19.7M77.805 908.958C79.315 893.515 84.821 881.835 94.165 871.83 95.613 870.278 97.147 868.304 99.571 869.808 101.73 871.147 101.548 873.265 100.835 875.521 96.762 888.416 91.07 900.157 77.805 908.958M-184.024 203.438C-211.969 183.895-212.958 180.994-199.632 161.365-194.684 174.703-189.893 187.618-184.024 203.438M10.428 554.252C25.227 557.737 33.521 566.83 38.707 579.335 39.478 581.193 41.129 583.307 38.915 585.141 38.129 585.792 36.55 585.926 35.457 585.698 25.55 583.64 12.005 567.256 10.428 554.252M-57.213 1049.246C-60.752 1048.615-64.972 1050.961-66.989 1047.304-69.103 1043.475-64.815 1041.22-63.111 1038.512-58.182 1030.676-50.956 1030.583-42.749 1032.444-37.306 1033.679-35.912 1036.758-35.799 1041.545-35.668 1047.085-39.191 1047.477-43.464 1047.667-48.165 1047.876-52.838 1048.718-57.213 1049.246M-242.581 1356.923C-248.295 1364.589-253.301 1372.837-259.902 1379.504-263.11 1382.744-265.45 1375.6-269.348 1374.704-272.172 1374.055-271.893 1370.192-270.009 1368.141-264.735 1362.399-259.567 1356.411-253.511 1351.585-247.963 1347.164-245.362 1352.321-242.581 1356.923M10.522 486.663C9.483 492.254 4.749 493.198 1.609 492.482-7.507 490.404-16.646 487.609-23.968 481.364-26.596 479.123-30.868 476.458-27.211 471.863-24.279 468.182-20.309 468.656-16.72 470.541-8.781 474.711-.991 479.166 6.803 483.603 8.212 484.406 9.351 485.682 10.522 486.663M-423.072 1196.397C-429.825 1204.558-439.7 1206.542-448.398 1210.649-465.556 1218.751-482.882 1226.495-500.194 1234.266-502.388 1235.25-505.591 1237.418-507.147 1234.434-509.298 1230.311-505.244 1229.963-502.527 1228.745-494.255 1225.037-486.286 1220.607-477.882 1217.251-459.74 1210.007-442.656 1200.01-423.072 1196.397M25.716-51.102C25.716-57.802 44.725-82.289 51.503-84.08 53.033-84.484 55.19-84.687 56.335-83.911 58.498-82.445 57.559-80.147 56.621-78.106 51.547-67.053 44.783-57.043 37.532-47.354 35.521-44.665 32.431-44.126 29.31-44.918 26.189-45.709 25.822-48.398 25.716-51.102M-251.081 72.951C-256.979 62.087-264.831 65.636-272.588 67.882-276.301 68.957-280.09 69.807-283.885 70.551-287.226 71.207-288.824 69.191-288.774 66.211-288.648 58.536-274.116 47.551-265.83 48.681-255.505 50.09-248.684 60.018-251.081 72.951M295.044 1071.617C277.985 1075.726 262.149 1075.764 246.331 1075.779 243.233 1075.782 238.604 1077.802 237.748 1072.965 237.104 1069.328 241.002 1067.153 243.649 1065.255 253.566 1058.149 283.275 1061.348 295.044 1071.617M136.629 816.579C131.143 819.978 131.642 829.322 126.442 826.655 118.973 822.822 118.658 813.674 120.14 805.994 121.756 797.608 129.092 801.203 132.393 803.177 138.893 807.065 144.38 812.756 149.959 818.048 156.395 824.154 159.143 830.961 151.49 839.157 146.589 831.71 141.748 824.356 136.629 816.579M302.007 1131.552C274.936 1134.313 250.468 1136.809 226 1139.305 244.527 1123.141 282.156 1119.561 302.007 1131.552M-468.161 1175.61C-468.882 1176.526-469.45 1177.966-470.466 1178.435-498.726 1191.486-527.047 1204.406-555.305 1217.461-557.927 1218.672-559.574 1218.032-560.21 1215.626-560.949 1212.831-558.257 1212.11-556.461 1211.255-547.089 1206.793-537.692 1202.383-528.231 1198.116-510.53 1190.132-492.798 1182.214-475.023 1174.396-472.78 1173.41-469.662 1169.863-468.161 1175.61M329.758 1097.34C309.047 1101.313 290.252 1101.48 271.493 1102.156 268.746 1102.254 265.443 1105.562 263.493 1101.792 261.382 1097.712 265.379 1095.717 267.903 1093.581 278.809 1084.352 314.077 1085.752 329.758 1097.34M69.993 217.93C71.398 199.308 63.954 189.434 49.345 183.671 42.683 181.043 38.689 174.933 39.019 167.161 39.156 163.905 36.876 159.477 40.497 157.66 43.759 156.024 47.158 158.734 49.301 161.521 59.187 174.381 69.472 186.989 78.455 200.463 82.744 206.896 78.175 212.254 69.993 217.93M49.182 1070.532C37.511 1081.388 27.886 1074.764 18.744 1068.87 11.662 1064.303 7.134 1057.682 7.644 1048.472 7.968 1042.606 9.664 1038.201 15.822 1042.906 27.258 1051.643 38.045 1061.231 49.182 1070.532M-446.784 1184.727C-444.544 1184.479-442.341 1185.38-442.12 1187.83-441.777 1191.624-445.293 1192.674-447.9 1193.863-472.68 1205.165-497.516 1216.344-522.333 1227.563-525.077 1228.803-528.18 1230.871-529.736 1226.419-531.161 1222.34-527.643 1221.431-524.893 1220.173-500.912 1209.205-476.943 1198.208-452.961 1187.242-451.009 1186.349-448.984 1185.618-446.784 1184.727M150.055 376.02C153.995 387 157.573 397.044 161.205 407.066 164.534 416.254 156.107 418.215 151.424 421.191 145.621 424.88 144.812 417.88 142.888 414.643 131.188 394.971 131.251 394.927 146.381 378.466 146.916 377.883 147.726 377.553 150.055 376.02M-42.188-118.575C-41.648-127.751-44.033-134.452-36.053-136.172-28.802-137.734-22.447-148.356-17.448-144.802-11.263-140.403-17.137-130.545-17.787-123.045-17.862-122.185-17.887-121.32-17.933-120.458-18.355-112.603-20.625-104.683-29.614-104.961-39.563-105.27-42.727-113.098-42.188-118.575M-72.787 113.336C-72.815 125.895-84.817 138.752-96.412 140.353-101.046 140.992-101.688 138.85-100.941 135.2-99.306 127.193-97.874 119.132-95.875 111.216-94.189 104.538-92.527 97.112-82.841 98.82-73.9 100.397-73.419 107.649-72.787 113.336M83.548 1229.392C74.997 1230.062 66.56 1229.974 66.007 1218.201 65.57 1208.889 73.829 1200.652 83.01 1200.719 94.142 1200.8 100.152 1206.737 100.219 1217.33 100.292 1229.183 92.808 1230.425 83.548 1229.392M137.511 214.786C122.244 230.094 87.558 243.665 72.277 241.052 87.308 217.226 111.019 214.424 137.511 214.786M-83.597 1023.749C-115.154 1033.72-146.097 1036.494-173.657 1050.338-147.088 1023.811-113.522 1013.535-83.597 1023.749M144.236 247.21C149.45 246.66 149.933 250.811 151.151 253.807 160.604 277.032 169.942 300.304 179.266 323.582 180.559 326.811 182.271 331.088 178.457 332.894 173.582 335.201 171.761 330.252 170.307 326.887 164.483 313.411 158.967 299.804 153.339 286.243 149.028 275.858 144.577 265.527 140.491 255.055 139.066 251.404 137.845 247.032 144.236 247.21M-18.253-70.938C-19.687-66.235-24.937-64.744-28.631-62.8-33.64-60.165-37.593-51.578-45.047-57.131-54.321-64.04-63.153-71.553-72.026-78.984-73.841-80.505-76.795-82.45-74.943-85.261-74.14-86.48-70.986-87.025-69.216-86.592-53.41-82.718-37.672-78.57-21.925-74.46-20.332-74.044-18.482-73.74-18.253-70.938M-225.531-12.658C-221.983 .234-218.944 10.854-216.173 21.544-214.892 26.486-210.197 32.294-218.699 35.557-225.687 38.238-231.122 39.892-236.894 31.311-244.398 20.152-246.405 11.249-235.947 1.319-232.389-2.059-229.955-6.622-225.531-12.658M-178.612 1321.071C-168.851 1342.07-172.701 1360.055-188.008 1375.867-189.908 1377.83-191.177 1382.013-194.92 1380.562-198.114 1379.324-197.997 1375.636-198.285 1372.642-200.236 1352.343-192.332 1335.882-178.612 1321.071M-401.945 1123.524C-403.31 1127.914-407.609 1128.816-410.917 1130.34-442.644 1144.957-474.471 1159.36-506.355 1173.631-508.578 1174.626-512.045 1178.357-513.855 1174.073-515.463 1170.266-513.458 1167.895-508.736 1165.829-491.394 1158.24-474.767 1149.023-457.491 1141.266-441.834 1134.236-426.66 1126.027-410.083 1121.064-406.352 1119.947-403.525 1118.685-401.945 1123.524M-103.748 351.136C-130.663 357.531-157.493 363.416-170.298 392.904-173.387 372.678-166.149 358.928-151.463 348.35-135.206 336.64-120.136 349.88-103.748 351.136M-137.106 1419.888C-148.865 1394.784-148.093 1372.903-124.511 1354.875-123.091 1364.508-122.18 1374.236-120.144 1383.722-116.665 1399.92-123.279 1410.97-137.106 1419.888M71.745 340.244C65.29 328.239 63.148 316.466 59.68 305.115 55.964 292.957 66.281 288.455 72.596 284.064 79.374 279.352 81.371 289.501 85.197 293.343 88.216 296.373 90.397 300.221 93.139 303.55 95.517 306.438 96.894 308.765 93.802 312.433 86.412 321.199 79.513 330.38 71.745 340.244M97.956 457.394C100.455 455.68 101.419 454.715 102.581 454.267 127.483 444.668 152.269 434.732 177.414 425.815 184.889 423.164 193.301 423.936 200.657 428.608 199.967 430.035 199.781 431.253 199.217 431.468 172.977 441.405 146.784 451.481 120.379 460.962 113.482 463.437 106.001 463.373 97.956 457.394M147.452 6.817C148.833 25.404 139.96 36.058 126.467 45.955 115.776 53.796 107.249 56.567 96.973 48.005 91.58 43.512 80.473 41.851 81.543 34.721 82.677 27.163 93.592 30.214 99.824 29.041 117.555 25.704 137.226 28.053 147.452 6.817M-218.53 1415.599C-216.918 1431.033-215.492 1444.678-214.07 1458.324-213.807 1460.845-215.549 1462.206-217.133 1463.701-232.09 1477.811-236.797 1476.459-242.993 1456.39-244.13 1452.708-245.693 1449.158-247.073 1445.553-249.242 1439.886-247.641 1435.404-242.743 1432.045-235.33 1426.961-227.874 1421.939-218.53 1415.599M-164.765 1447.004C-164.518 1450.952-178.537 1470.833-184.264 1471.774-188.188 1472.419-188.229 1469.554-188.453 1466.968-189.988 1449.293-192.514 1431.625-192.664 1413.937-192.764 1402.2-179.892 1405.784-173.262 1402.875-167.137 1400.188-169.31 1408.714-168.761 1412.088-167.022 1422.781-166.214 1433.626-164.765 1447.004M167.501 201.958C183.832 186.333 200.085 177.065 215.618 166.876 216.535 166.273 218.187 166.516 219.433 166.736 230.897 168.77 242.345 170.906 253.807 172.957 255.984 173.347 258.298 173.639 258.709 176.257 259.223 179.518 256.827 180.799 254.261 181.655 246.943 184.097 239.349 185.892 232.322 188.986 212.854 197.563 192.26 199.603 167.501 201.958M-19.227 143.045C-7.267 138.992-4.253 146.402-4.521 159.475-4.689 167.67-3.78 175.841 5.145 181.932 12.588 187.012 5.937 195.408 2.113 199.87-2.481 205.233-4.785 197.686-7.166 194.957-16.718 184.013-26.044 172.861-35.159 161.55-39.039 156.734-48.796 153.028-45.416 147.038-42.871 142.527-32.921 143.103-25.982 143.046-24.681 143.035-23.379 143.045-19.227 143.045M-120.402-59.496C-119.954-58.467-119.505-57.438-119.057-56.409-141.088-39.333-163.125-22.264-185.146-5.176-189.703-1.641-191.921-2.172-194.279-8.133-201.648-26.763-200.11-31.019-181.614-37.73-179.612-38.457-177.764-39.617-175.755-40.317-157.315-46.742-138.856-53.111-120.402-59.496M-247.423 316.35C-242.441 286.769-242.437 286.766-255.556 262.564-256.166 261.44-257.205 260.517-257.666 259.35-258.883 256.269-257.104 253.566-254.602 253.31-243.881 252.21-233.058 252.087-222.635 255.251-220.272 255.969-215.371 287.064-217.239 289.119-225.967 298.719-235.265 307.724-247.423 316.35M334.243 250.364C332.989 258.472 330.947 264.255 321.288 267.301 301.682 273.485 283.006 282.573 263.588 289.45 258.671 291.192 251.993 299.13 248.015 291.95 245.703 287.779 252.422 280.861 256.613 276.122 258.004 274.55 259.914 273.227 261.845 272.376 283.448 262.86 305.186 253.694 327.502 245.915 333.012 243.994 334.697 245.043 334.243 250.364M-375.485 540.228C-385.683 548.965-394.036 556.156-402.427 563.303-421.139 579.24-444.419 575.82-457.377 555.058-459.062 552.356-463.253 549.499-460.617 546.059-458.383 543.144-453.79 544.385-450.714 545.281-433.833 550.198-417.55 546.873-401.075 543.062-393.672 541.349-385.881 541.314-375.485 540.228M139.563 349.583C126.84 362.799 115.5 374.596 104.135 386.367 102.012 388.566 100.062 390.801 96.41 388.491 82.058 379.413 82.2 347.645 96.842 339.586 98.58 338.629 101.245 338.376 103.175 338.909 114.724 342.1 126.183 345.615 139.563 349.583M130.235 149.028C127.916 148.746 126.475 148.908 125.355 148.382 112.386 142.285 101.207 133.335 90.231 124.439 85.643 120.72 91.07 119.529 94.563 119.293 104.448 118.625 113.661 122.408 121.728 126.628 131.373 131.674 133.61 126.881 136.467 119.987 141.934 106.792 147.695 93.746 156.851 82.553 159.065 79.846 160.836 76.96 165.32 79.158 170.259 81.58 167.896 84.82 166.847 87.868 161.2 104.269 155.371 120.599 147.524 136.121 143.7 143.687 137.062 147.142 130.235 149.028M-12.019 270.841C-19.265 243.165-19.268 243.161 4.073 227.358 5.132 226.643 6.586 226.346 7.386 225.437 16.683 214.881 26.826 217.629 37.461 223.055 43.201 225.983 46.47 229.461 43.775 236.253 41.499 241.993 41.355 250.113 31.791 247.896 16.896 244.443 7.184 251.741-.9 262.874-3.465 266.406-6.203 269.704-12.019 270.841M-312.932 320.982C-311.931 321.189-310.93 321.396-309.929 321.604-312.618 334.539-315.21 347.494-318.026 360.4-320.322 370.925-319.967 383.842-326.138 391.205-332.531 398.833-346.108 396.444-356.775 396.84-359.537 396.942-362.294 400.827-364.967 397.325-367.935 393.437-364.091 390.864-362.28 388.366-345.938 365.826-329.407 343.425-312.932 320.982M-291.779 281.317C-309.895 224.772-308.699 207.768-284.949 169.726-273.97 206.901-282.095 242.353-291.779 281.317M206.698 273.91C203.286 273.612 199.759 273.305 201.478 268.792 203.7 262.96 203.448 255.812 210.613 252.49 233.638 241.817 256.589 230.984 279.487 220.042 283.994 217.889 287.38 219.789 286.541 223.671 284.754 231.938 286.475 241.907 274.894 246.102 256.199 252.872 238.004 261.025 219.6 268.596 215.232 270.392 210.867 272.192 206.698 273.91M252.518 27.791C241.798 37.783 230.658 47.071 220.9 57.637 214.09 65.012 207.776 67.392 197.448 65.936 166.986 61.642 166.005 60.484 182.799 34.583 186.021 29.615 189.229 26.022 196.518 29.604 212.281 37.35 228.001 36.379 242.959 26.63 245.59 24.915 248.574 24.561 252.518 27.791M-398.174 531.468C-399.406 516.726-408.444 505.6-403.573 493.876-397.602 479.505-392.843 464.836-387.912 450.157-386.899 447.144-385.167 444.324-381.165 443.016-367.148 438.434-353.345 433.199-339.461 428.213-350.16 442.66-361.748 455.717-374.548 467.446-381.431 473.753-384.645 480.396-383.009 489.092-379.97 505.25-389.454 516.462-398.174 531.468M-394.823 177.119C-372.85 168.229-351.44 164.298-330.371 159.274-325.438 158.098-325.969 162.199-326.31 165.106-327.77 177.554-329.439 189.977-330.965 202.417-331.592 207.522-333.519 209.115-338.744 206.779-357.452 198.414-375.618 189.103-394.823 177.119M133.301-39.946C132.64-32.415 129.22-34.342 126.064-36.101 116.669-41.34 106.893-46.046 98.086-52.147 90.295-57.545 84.607-58.93 77.237-51.107 69.302-42.686 59.698-35.851 50.963-28.163 48.715-26.186 46.855-22.678 43.549-24.42 39.727-26.435 41.382-30.627 42.085-33.729 42.729-36.57 44.194-39.528 46.108-41.729 56.853-54.079 67.68-66.366 78.82-78.357 84.044-83.98 90.118-83.983 95.983-78.771 105.66-70.171 115.661-61.904 124.896-52.854 128.727-49.1 130.936-43.686 133.301-39.946M-395.649 324.199C-401.89 306.795-407.112 292.502-412.076 278.119-412.89 275.762-412.788 273.033-410.777 270.816-403.598 262.904-396.99 254.388-389.198 247.142-381.651 240.122-374.88 248.624-367.792 250.151-364.671 250.824-362.751 253.376-364.49 257.111-374.415 278.433-384.307 299.769-395.649 324.199M-428.122 431.081C-428.123 436.689-436.656 440-440.695 446.159-444.164 451.449-446.75 450.345-449.171 444.207-454.342 431.1-458.162 417.627-462.235 404.182-470.24 377.759-470.498 377.838-449.524 361.264-449.186 360.996-448.891 360.674-448.585 360.369-444.322 356.124-442.235 357.363-441.186 362.969-437.147 384.54-432.935 406.078-428.122 431.081M169.446 146.154C177.414 126.756 183.518 104.583 195.967 85.192 199.355 79.915 204.687 83.597 208.922 85.219 227.665 92.394 243.408 104.729 260.146 115.353 262.021 116.543 264.115 117.788 263.495 120.304 262.693 123.56 259.485 123.412 257.11 123.402 245.082 123.353 235.1 117.072 224.322 112.825 202.481 104.219 205.876 102.504 195.837 124.542 191.55 133.955 188.804 144.104 182.232 152.382 179.98 155.218 176.655 157.91 173.425 157.058 169.78 156.095 169.842 151.644 169.446 146.154M195.469 383.709C192.555 382.897 188.29 385.137 187.72 380.786 187.228 377.033 191.22 376.488 193.949 375.41 210.376 368.923 226.717 362.205 243.259 356.025 281.589 341.705 320.004 327.613 358.432 313.558 361.163 312.559 364.442 308.734 367.142 313.824 369.254 317.806 365.87 320.005 363.572 320.948 353.119 325.237 347.239 336.124 335.882 339.178 304.177 347.703 273.159 358.432 242.105 369.047 226.623 374.34 210.887 378.888 195.469 383.709M-524.393 343.29C-525.036 342.514-525.679 341.737-526.323 340.96-520.558 328.474-514.826 315.973-509.009 303.51-506.986 299.175-504.896 295.185-499.119 294.457-488.068 293.064-477.134 290.205-466.068 289.667-459.311 289.338-451.207 285.664-445.45 292.865-439.254 300.615-433.217 308.494-427.255 316.427-426.341 317.644-425.444 319.723-425.874 320.924-426.788 323.479-428.971 322.583-431.22 322.166-442.571 320.063-454.138 319.599-465.339 316.071-475.667 312.818-485.382 314.331-494.378 321.876-503.767 329.75-514.338 336.211-524.393 343.29M-124.301 751.495C-129.044 751.495-132.524 751.6-135.996 751.468-140.432 751.3-145.051 750.77-146.084 745.41-147.054 740.378-142.911 739.146-139.285 737.438-128.341 732.283-117.465 726.764-104.892 727.924-90.535 729.25-77.724 725.65-65.59 717.949-58.74 713.601-51.313 709.827-43.665 707.186-37.573 705.083-28.376 698.195-25.166 703.979-20.818 711.815-27.688 720.138-35.014 725.621-37.76 727.677-40.639 729.754-43.774 731.056-59.194 737.458-73.119 749.217-91.81 744.283-94.325 743.619-97.67 745.351-100.422 746.482-108.5 749.803-116.577 752.864-124.301 751.495M199.047 405.398C200.029 399.527 202.683 398.966 205.108 398.071 242.123 384.419 279.225 370.993 316.077 356.915 324.533 353.686 332.066 354.975 339.749 357.782 343.14 359.021 348.338 359.685 348.404 364.311 348.468 368.72 343.232 368.391 340.305 369.478 310.266 380.64 280.282 391.996 249.925 402.234 233.486 407.778 216.315 402.972 199.047 405.398M46.223 126.804C40.288 131.714 34.237 123.906 32.658 129.448 29.962 138.915 27.067 132.477 24.47 130.328-.206 109.918-11.185 80.018-27.73 54.002-31.575 47.956-24.389 46.056-20.517 44.155-15.972 41.924-15.514 44.359-14.83 48.956-13.745 56.245-.349 64.08 2.806 60.245 12.256 48.752 18.844 61.746 26.764 62.577 28.6 62.771 28.885 66.053 27.482 66.759 14.481 73.297 28.595 73.482 29.694 73.87 41.031 77.861 52.594 81.212 64.094 84.741 63.709 86.253 63.325 87.766 62.94 89.278 44.729 87.333 26.248 86.863 9.119 74.983 15.591 97.604 26.781 114.839 46.223 126.804M-161.469 177.267C-174.032 162.464-181.607 145.934-191.354 130.81-194.908 125.297-193.142 121.463-188.375 119.135-173.316 111.78-158.005 104.941-141.499 97.305-142.265 104.981-143.482 110.509-143.194 115.955-142.818 123.078-149.05 131.695-142.329 137.023-130.988 146.014-136.965 151.856-143.879 158.72-149.662 164.459-155.111 170.534-161.469 177.267M221.75 347.009C222.29 346.927 219.269 345.086 220.116 342.526 223.031 333.731 221.491 322.892 234.529 319.016 250.538 314.257 265.706 306.723 281.393 300.797 303.522 292.437 325.761 284.363 348.036 276.401 351.698 275.093 358.537 272.467 357.209 279.787 355.538 288.993 354.545 299.17 342.118 303.25 319.935 310.534 298.412 319.813 276.479 327.895 259.495 334.152 242.308 339.855 221.75 347.009M-190.92 336.08C-193.794 320.344-184.024 304.358-175.454 289.819-168.067 277.285-151.531 272.401-138.611 264.852-133.728 261.997-133.142 266.544-132.948 270.011-132.031 286.441-131.411 302.892-130.256 319.306-129.699 327.224-132.24 331.385-140.318 328.378-160.328 320.93-169.748 332.255-176.941 348.175-178.707 352.082-180.846 355.824-182.542 359.759-183.456 361.879-184.516 363.868-186.94 363.556-189.603 363.212-189.626 360.961-189.681 358.599-189.832 352.163-190.356 345.735-190.92 336.08M-490.823 351.925C-490.823 355.733-490.424 358.269-490.886 360.636-495.024 381.846-498.558 403.216-503.827 424.146-507.27 437.824-506.096 448.494-494.088 457.27-491.41 459.228-485.813 462.652-489.966 467.831-495.298 474.48-499.361 482.251-506.499 487.297-506.888 487.571-509.205 485.698-510.179 484.471-527.383 462.788-538.478 438.597-540.217 410.6-540.432 407.129-540.582 403.895-538.103 400.817-524.05 383.379-507.298 368.636-490.823 351.925M-108.607 707.117C-109.91 707.117-111.307 707.425-112.499 707.062-116.945 705.708-124.378 710.725-125.556 703.086-126.746 695.369-120.894 691.841-113.593 690.628-105.976 689.362-98.486 687.29-90.854 686.159-79.526 684.481-67.157 684.497-70.599 667.078-71.302 663.52-68.915 660.443-66.828 657.642-57.09 644.572-58.243 641.169-74.614 639.509-83.363 638.622-92.359 637.776-100.571 644.116-107.194 649.229-115.309 648.144-122.738 644.37-127.081 642.165-131.749 638.931-132.476 634.561-133.448 628.716-126.678 627.637-122.812 625.678-116.738 622.6-110.167 619.736-103.512 618.721-83.026 615.594-61.967 610.552-47.615 633.208-41.394 643.03-33.475 651.835-23.684 658.605-13.065 665.947-12.34 672.573-23.373 678.878-49.774 693.967-77.15 706.945-108.607 707.117M-267.247 129.819C-265.079 119.378-262.412 111.965-252.397 109.426-243.798 107.245-236.721 102.198-230.804 95.668-221.443 85.337-210.628 76.909-198.898 69.398-177.173 55.488-155.806 41.018-134.174 26.957-125.766 21.491-120.676 15.568-125.231 4.53-128.682-3.83-138.728-12.242-117.625-16.999-103.659-20.147-95.965-24.799-89.179-9.796-88.997-9.394-87.726-9.485-87.016-9.356-83.157-13.023-91.932-16.897-85.227-21.77-76.486 2.102-55.331 13.238-36.773 27.128-34.373 28.924-31.792 30.849-30.222 33.308-26.233 39.549-31.452 51.549-37.93 50.209-47.311 48.27-57.664 46.18-60.61 33.993-63.426 22.353-75.373 16.265-85.931 21.72-118.62 38.613-151.696 54.931-183.308 73.69-211.673 90.524-238.299 110.296-267.247 129.819M-329.722 500.032C-325.532 477.068-317.356 455.969-307.741 435.473-303.378 426.172-302.805 414.561-294.969 407.583-276.359 391.013-257.479 374.688-236.708 360.712-231.399 357.141-228.947 356.612-226.774 363.318-221.862 378.481-216.463 393.485-211.448 408.616-210.167 412.48-210.461 415.856-214.562 418.732-253.032 445.715-291.356 472.903-329.722 500.032M80.645 563.157C79.25 563.123 77.855 563.088 76.461 563.053 76.021 553.232 75.538 543.413 75.148 533.591 74.396 514.621 67.97 499.23 53.068 485.91 22.413 458.509-6.651 429.324-36.374 400.877-49.777 388.05-58.662 372.822-63.779 354.777-72.127 325.345-76.93 294.662-93.813 268.043-98.112 261.266-100.661 253.054-102.581 245.152-107.774 223.78-113.235 202.33-107.525 180.026-106.467 175.89-106.415 172.45-100.356 174.281-81.339 180.028-75.613 187.375-75.427 207.507-75.401 210.258-75.423 213.008-75.423 219.089-67.631 204.357-69.291 190.211-62.273 176.858-54.956 191.684-54.281 206.1-53.51 219.906-51.85 249.62-45.707 280.255-64.695 307.526-65.641 308.885-64.86 311.76-64.333 313.785-59.923 330.753-55.633 347.769-48.171 365.077-33.437 349.125-22.202 331.868-10.146 315.293-1.217 303.018 7.065 290.229 17.824 279.455 21.892 275.381 26.872 270.725 28.909 281.917 35.199 316.461 42.017 350.91 48.708 385.38 49.796 390.983 49.478 396.099 43.713 398.748 35.066 402.721 35.999 408.523 38.955 415.906 44.16 428.904 43.84 429.032 29.413 431.615 43.997 452.357 58.486 472.756 72.751 493.311 88.132 515.476 85.908 539.22 80.645 563.157M24.194 901.122C9.04 904.835-3.082 907-14.538 912.325-22.703 916.121-31.712 919.125-40.635 917.545-56.268 914.777-71.6 910.358-87.142 907.018-102.701 903.673-114.789 896.088-117.111 879.395-119.573 861.696-117.244 844.979-101.939 832.377-91.38 823.682-78.661 822.009-66.167 819.274-61.844 818.328-56.985 817.43-55.545 813.105-54.104 808.78-58.955 806.543-61.539 803.893-65.81 799.511-71.134 795.734-67.588 788.47-63.41 779.912-59.647 770.767-51.431 765.324-42.265 759.252-35.447 751.382-28.752 742.801-24.897 737.861-23.464 724.67-11.139 733.155-9.562 734.241-8.427 730.488-7.317 728.711-4.58 724.327-1.748 719.993 1.225 715.765 11.404 701.286 11.387 701.34 21.212 715.384 25.179 721.054 29.662 726.376 33.411 732.18 35.768 735.827 37.381 738.46 42.447 735.778 47.11 733.31 48.972 737.391 51.228 740.798 59.654 753.522 63.297 769.966 79.215 777.032 80.522 777.612 81.462 780.941 81.215 782.812 79.032 799.343 86.512 813.075 93.287 827.146 100.835 842.82 99.574 849.691 87.342 861.812 70.105 878.891 52.541 895.595 36.42 913.829 29.615 921.527 21.046 929.282 7.685 928.903 13.236 919.561 17.786 911.904 24.194 901.122M-488.856 255.177C-498.023 244.731-507.536 234.958-524.051 237.129-527.326 237.559-530.778 236.923-533.598 239.247-542.864 246.885-554.239 249.561-566.064 252.905-580.692 257.043-582.968 272.813-590.629 283.442-596.871 292.104-602.608 301.072-609.019 309.685-612.265 314.045-625.525 317.013-612.981 326.079-611.061 327.467-615.916 340.389-620.964 345.018-636.617 359.368-634.886 376.495-633.769 393.894-633.414 399.425-631.215 405.254-637.365 409.6-638.846 410.645-640.666 412.272-639.044 413.872-624.91 427.823-630.045 451.191-608.719 462.126-594.842 469.241-595.323 473.93-604.545 486.327-607.239 489.948-615.241 492.484-609.035 499.134-602.749 505.868-597.046 501.778-591.311 498.822-586.008 496.09-580.933 492.997-575.903 490.145-575.005 490.92-573.735 491.864-573.815 491.97-585.03 506.706-579.293 518.06-565.41 528.107-561.264 531.107-557.604 534.632-560.941 540.373-562.934 543.803-560.097 545.581-556.974 547.452-517.833 570.901-476.207 590.387-434.801 610.23-429.496 612.772-425.12 615.774-426.281 622.331-432.865 659.523-441.154 696.403-450.126 734.011-458.371 730.163-455.08 721.159-461.282 717.78-481.935 728.102-474.009 744.112-472 759.277-470.972 767.044-462.048 776.254-475.415 782.68-476.161 783.039-475.595 786.937-474.609 788.725-452.214 829.33-456.951 874.287-449.33 917.244-447.893 925.343-447.588 933.716-447.955 941.92-448.138 946.045-440.797 957.379-456.723 951.585-459.564 950.552-459.688 956.562-459.066 960.118-455.557 980.206-459.005 999.076-472.65 1015.709-481.862 1026.939-494.727 1034.693-506.836 1042.986-540.829 1066.268-568.229 1094.951-594.404 1125.152-623.648 1158.896-655.56 1190.744-685.664 1223.896-700.185 1239.889-701.177 1268.893-689.688 1286.655-684.172 1295.185-676.692 1299.556-665.795 1295.94-609.84 1277.374-549.795 1273.944-493.171 1257.692-469.595 1250.925-445.696 1244.322-420.4 1244.602-398.492 1244.843-395.035 1247.528-391.554 1266.874-389.86 1276.288-387.764 1285.649-385.53 1294.973-384.315 1300.046-383.271 1305.989-378.114 1308.692-356.584 1319.98-355.226 1340.555-349.719 1358.815-334.848 1408.131-320.881 1457.669-306.731 1507.161-300.324 1529.572-279.257 1531.215-259.595 1534.44-207.594 1542.97-157.62 1531.83-108.078 1519.986-67.901 1510.381-26.576 1505.501 13.289 1495.04 45.271 1486.646 80.709 1485.813 108.625 1468.641 143.824 1446.987 172.713 1420.68 172.725 1376.642 172.736 1335.107 177.769 1293.569 180.802 1252.045 181.347 1244.587 184.104 1237.107 190.459 1232.433 201.67 1224.185 206.005 1213.052 209.535 1201.304 217.262 1175.6 229.581 1166.628 258.741 1163.685 287.337 1160.798 315.797 1156.823 344.353 1153.585 348.804 1153.08 352.633 1151.881 356.448 1149.917 367.19 1144.387 378.465 1143.928 390.875 1144.61 426.416 1146.564 442.28 1135.629 433.008 1101.925 426.169 1077.065 406.209 1060.222 383.579 1046.84 347.234 1025.346 309.875 1005.248 272.898 984.625 241.762 967.26 234.194 950.563 240.501 918.488 244.335 898.987 245.763 879.101 246.563 858.685 242.218 865.49 237.794 872.257 233.568 879.123 232.135 881.452 230.769 884.024 227.67 884.256 224.022 884.529 223.196 881.376 222.23 879.056 219.879 873.408 214.888 866.999 216.238 862.077 219.65 849.644 203.267 841.468 209.224 829.235 209.434 828.804 208.502 827.495 207.787 827.183 190.992 819.835 192.835 805.905 191.922 792.462 190.942 778.036 197.279 766.474 206.313 755.499 207.428 754.146 209.375 752.645 209.289 751.297 207.84 728.417 207.784 728.421 217.482 706.272 218.507 703.934 219.488 701.581 220.415 699.408 220.002 698.03 219.471 698.22 218.236 698.729 213.453 700.699 210.548 709.187 204.751 704.982 200.326 701.773 206.666 696.436 208.632 692.322 215.219 678.535 222.378 664.972 229.554 650.859 224.129 648.241 220.985 658.545 216.714 653.817 213.036 649.747 215.733 643.745 216.069 638.603 217.09 622.993 224.591 606.588 208.64 592.919 202.794 594.829 201.641 602.937 194.116 603.057 188.781 598.796 197.255 595.118 194.432 591.105 193.628 591.105 192.609 590.817 192.023 591.15 186.103 594.518 179.656 601.961 173.749 598.979 166.914 595.528 171.527 586.74 171.594 580.188 171.764 563.436 179.724 550.601 193.856 539.971 205.95 530.875 215.019 519.05 225.613 508.602 253.391 481.208 284.521 458.407 325.456 448.052 341.476 444 353.505 433.152 373.458 433.384 387.233 433.544 404.03 423.544 419.447 417.993 433.125 413.068 436.56 401.904 430.948 388.932 428.542 383.369 427.579 379.511 436.064 377.302 441.363 375.922 445.572 372.861 438.961 366.339 434.348 361.787 439.642 356.015 443.639 351.478 450.839 343.308 461.937 335.556 447.28 324.576 445.545 323.276 446.447 318.728 446.703 315.726 447.175 310.19 446.648 305.355 439.977 302.89 435.685 301.303 432.919 298.499 437.904 295.399 447.7 289.309 440.731 283.682 436.994 279.234 430.011 270.924 427.142 261.91 426.062 251.76 425.227 243.913 427.038 232.84 410.926 236.19 408.206 236.756 405.557 233.564 406.245 230.936 409.599 218.129 398.91 217.59 390.425 217.105 379.628 216.487 375.958 212.36 377.092 203.07 377.668 198.353 377.132 193.507 376.872 188.729 376.493 181.744 375.296 176.28 364.49 177.933 356.133 179.21 351.292 173.48 352.801 166.644 355.336 155.155 351.571 146.278 342.648 138.7 338.196 134.919 340.382 133.079 344.35 130.957 360.362 122.396 360.332 122.357 349.978 107.443 349.218 106.349 348.543 105.206 347.222 103.132 345.568 105.736 344.297 108.066 342.693 110.193 339.805 114.026 336.216 114.054 331.443 112.614 326.344 111.076 325.745 108.635 327.252 104.771 330.836 95.583 324.202 95.529 317.576 96.387 308.336 97.583 307.685 94.34 308.61 86.814 310.29 73.158 324.691 64.912 325.821 51.611 327.294 34.282 333.133 16.905 325.324-.508 323.348-4.915 324.869-9.87 328.98-13.931 325.658-15.475 321.557-11.252 319.798-14.127 312.492-26.071 306.688-17.779 300.652-13.31 291.611-6.614 282.94-1.347 269.671-4.893 261.898-6.97 252.598-7.035 244.224-3.387 238.056-.699 232.253-2.452 226.621-5.715 208.713-16.09 208.259-21.488 224.712-33.64 228.779-36.645 233.218-39.296 236.954-42.601 245.409-50.076 245.602-59.981 237.355-67.734 231.729-73.025 226.441-80.043 219.406-82.395 202.124-88.17 191.472-106.151 170.089-103.892 167.816-103.651 164.521-103.802 164.107-106.283 163.177-111.861 171.057-111.26 173.296-116.295 163.909-119.146 154.359-121.618 146.627-127.188 142.735-129.99 135.035-130.843 139.623-138.544 140.973-140.81 137.216-142.716 134.488-143.802 120.661-149.308 108.08-156.812 91.883-157.784 78.632-158.58 65.704-163.992 55.887-172.668 48.892-178.85 42.387-180.441 32.758-178.329 16.805-174.831 12.717-178.08 13.815-190.554 7.182-190.365 7.178-184.781 5.379-181.349 .517-172.071 .88-171.916-8.805-182.687-10.094-167.429-17.858-156.718-27.879-147.155-31.571-143.63-34.632-139.751-40.414-145.449-42.106-147.118-47.477-151.875-49.822-147.141-54.477-137.747-62.311-137.323-71.702-137.415-75.837-137.456-80.019-134.971-81.981-131.051-85.227-124.572-91.339-123.086-98.425-122.417-110.966-121.234-114.246-114.895-108.787-104.178-107.286-101.23-99.537-99.017-105.405-95.066-109.457-92.338-114.674-95.415-118.513-98.175-123.167-101.523-126.504-107.551-134.268-103.372-138.11-101.305-144.955-100.797-137.136-95.095-129.526-89.545-135.719-88.547-140.807-85.939-160.72-75.732-182.575-77.215-204.099-75.943-213.852-75.367-223.801-74.143-232.945-68.688-219.522-62.838-216.514-53.503-224.107-42.715-227.192-38.331-230.987-34.343-234.63-30.3-235.757-29.049-237.447-28.211-238.879-27.185-244.529-37.036-253.787-26.845-259.701-30.08-265.877-33.46-267.653-30.209-269.658-26.94-278.73-12.15-293.442-5.577-310.931-1.634-328.131 2.244-345.217 6.963-361.714 12.789-371.46 16.231-377.29 25.261-389.828 26.897-397.105 27.849-396.155 39.459-392.386 46.493-386.647 57.204-380.219 67.614-376.037 80.287-388.04 74.723-400.059 69.188-412.03 63.568-414.577 62.373-417.391 60.584-419.799 62.57-422.117 64.482-421.235 67.422-420.025 69.906-415.201 79.815-410.246 89.675-405.584 99.645-404.356 102.271-401.982 105.27-405.04 108.083-407.91 110.724-412.187 109.911-414.498 108.426-434.601 95.508-446.623 106.575-458.679 119.615-471.056 133.004-486.516 143.554-501.629 154.158-512.182 161.562-511.355 167.086-503.182 175.133-488.819 189.272-489.174 189.47-507.415 198.307-513.315 201.165-518.949 204.473-524.722 207.549-528.771 209.706-532.001 212.907-530.562 217.061-528.963 221.678-523.931 222.872-518.846 222.723-488.669 221.839-485.685 224.565-486.977 252.113-487.009 252.796-487.769 253.451-488.856 255.177"/>
</g>
</g>
</svg>
