<svg xmlns="http://www.w3.org/2000/svg" xmlns:xlink="http://www.w3.org/1999/xlink" xmlns:inkscape="http://www.inkscape.org/namespaces/inkscape" version="1.1" width="1780.49" height="891.401" viewBox="0 0 1780.49 891.401">
<defs>
<clipPath id="clip_1">
<path transform="matrix(1,0,0,-1,0,891.401)" d="M0 891.401H1780.485V0H0Z"/>
</clipPath>
</defs>
<g inkscape:groupmode="layer" inkscape:label="Layer 1">
<g clip-path="url(#clip_1)">
<path transform="matrix(1,0,0,-1,1246.536,506.2216)" d="M0 0C-.56 2.6 2.37 1.91 3.78 1.84 17.34 1.12 30.76 2.56 45.181 5.43 31.53-12.93 7.4-10.11-7.199-24.69-5.199-16.11 2.101-9.65 0 0M469.71 68.443C469.71 62.547 466.284 57.214 460.962 54.675 434.162 41.891 405.044 37.667 374.221 41.01 365.181 41.99 362.17 39.14 358.53 32.24 340.051-2.89 311.23-24.13 271.92-30.78 315.04-9.44 351.101 17.5 349.2 72.11 348.363 96.277 341.712 118.844 320.821 136.369L320.811 136.55H320.41L320.248 134.743C320.221 134.436 320.176 134.158 320.168 133.799 320.17 133.705 320.174 133.591 320.217 133.457L320.312 133.21 320.481 132.785C320.481 132.785 321.863 129.41 321.869 129.396 335.985 94.913 323.457 58.88 294.639 36.271 287.189 30.401 279.04 25.429 270.394 21.517 257.796 15.815 243.594 11.177 229.586 12.221 222.725 12.732 216.044 14.611 210.235 18.375 204.581 22.039 200.458 31.351 193.849 32.348L190.778 32.812C190.778 32.812 190.895 29.712 190.895 29.711 191.555 12.191 180.843 3.026 164.734-1.287 145.289-6.494 128.299-12.229 111.633-23.989 101.912-30.926 93.006-38.864 84.593-47.201 67.78-63.925 52.969-82.308 36.901-99.366 32.883-103.629 28.783-107.808 24.559-111.848 9.322-126.421-10.34-140.247-32.568-140.536-53.841-140.812-74.502-131.354-85.529-112.67-91.489-102.55-91.989-92.08-84.819-86.51-77.54-109.01-63.02-121.39-42.39-121.9-31.09-122.17-14.84-112.65-11.979-94.78-18.67-107.021-28.21-111.38-40.449-109.72-54.43-107.83-62.68-98.14-69.56-87.18-71.96-83.34-73.64-80.94-74.14-79.01-58.609-67.49-44.31-54.26-27.08-45.25-18.51-40.771-9.04-38.5-.89-32.5 7.92-26.03 18.221-24.19 27.41-33.53 28.82-29.729 26.131-28.5 24.74-26.68 23.351-24.83 20.37-24.479 19.891-21.38 21.061-20.7 22.19-19.86 23.46-19.33 53.26-6.979 81.57 12.46 90.57 44.46 93.019 53.165 94.9 59.22 101.471 65.3 106.67 70.11 111.811 75.14 114.16 82.22 106.221 76.57 98.471 71.23 89.4 67.98 79.86 64.57 70.21 65.48 60.17 67.35 62.37 57 65.87 48.1 73.23 41.6 77.551 37.79 76.79 34.83 74.25 30.79 66.62 18.64 53.91 14.84 39.12 20.42 25.04 25.74 15.75 36.46 7.431 48.44 8.822 36.679 14.038 27.389 23.165 19.955 26.329 17.378 24.871 12.243 20.827 11.703-15.785 6.812-32.637 33.109-49.43 60.62-52.75 50.399-48.6 42.75-46.08 34.88-52.229 32.729-58.12 31.99-64.14 31.63-90.04 30.05-113.529 38.07-135.899 49.92-141.859 53.08-145.489 52.84-150.33 47.92-159.72 38.37-171.83 31.82-184.77 30.68-208.72 28.58-229.859 20.04-251.33 9.96-273.779-.58-297.59-1.21-319.979 12.67-330.399 19.14-330.35 28.13-319.67 34-303.92 42.649-286.83 48.66-271.68 58.47-267.17 61.39-262.5 63.21-257.05 63.93-237.609 66.52-218.989 72.08-203.199 84.04-189.229 94.61-173.649 99.72-156.64 102.55-148.01 103.98-141.779 104.42-141.13 91.89-131.529 106.53-118.199 107.36-104.489 106.74-90.02 106.1-75.489 105.01-61.149 107.11-51.46 108.52-43.239 109.62-43.37 93.15-31.18 114.81-13.58 122.22 6.971 124.54 19.67 125.97 31.7 129.95 43.5 134.67 68.11 144.5 91.131 157.54 114.5 169.86 127.03 176.47 139.75 183.03 154.09 183.67 168.34 184.31 180.381 189.85 190.29 199.02 216.62 223.4 247.28 228.3 280.84 220.53 295.74 217.08 309.34 219.14 322.74 225.93 333 231.13 341.74 238.17 349.11 246.82 359.66 259.23 373.21 265.8 388.87 269.1 401.351 271.72 414.051 272.23 426.61 273.96 428.191 274.178 429.767 274.415 431.335 274.671 451.429 277.957 469.71 262.584 469.71 242.223V150.187C469.71 141.828 463.991 134.551 455.866 132.589 442.812 129.438 429.833 125.923 416.865 122.473 406.762 119.785 387.974 112.844 378.595 120.556 366.771 130.278 391.729 151.549 398.239 157.271 410.62 168.153 424.948 176.862 438.86 186.293L445.854 191.033 437.423 190.983C432.781 190.956 428.193 190.594 423.743 190.387 419.298 190.186 414.969 190.218 410.937 191.255 402.369 193.245 398.225 180.406 395.021 174.927 389.655 165.751 381.98 158.668 372.869 153.152 365.326 148.586 356.954 145.43 348.346 143.202L345.246 142.399 347.205 139.917C354.368 130.844 360.077 120.631 363.769 109.672 367.49 98.624 369.056 86.964 370.936 75.509L371.04 75.51C371.04 75.51 371.04 75.51 371.04 75.51L371.145 75.511C371.148 75.537 371.15 75.563 371.154 75.588 398.444 94.668 428.46 109.944 459.747 121.371 464.634 123.156 469.8 119.487 469.786 114.285 469.772 109.117 466.293 104.607 461.3 103.271 445.793 99.122 414.072 89.337 410.461 87.76 400.167 83.265 362.693 69.83 365.906 54.514 366.201 52.982 367.086 51.596 368.324 50.86L368.41 50.92C405.71 72.394 418.971 80.026 454.938 90.845 462.295 93.057 469.71 87.559 469.71 79.876ZM469.71-310.9C469.71-323.37 459.601-333.479 447.131-333.479H-1159.709C-1172.18-333.479-1182.29-323.37-1182.29-310.9V-172.548C-1182.29-152.797-1175.557-133.639-1163.202-118.229-1153.122-105.657-1142.419-92.262-1140.398-89.544-1130.554-76.311-1120.635-63.129-1110.252-50.312-1098.048-35.246-1085.084-20.793-1070.866-7.704-1064.139-1.511-1009.632 43.524-1003.288 34.196-991.962 17.544-981.469-.218-966.435-13.886-958.997-20.473-950.584-25.988-941.546-30.145-913.228-43.26-884.562-38.695-854.631-40.478-849.85-40.762-845.098-41.265-840.411-42.079-835.675-42.95-830.916-43.855-826.207-44.904-807.371-49.062-788.823-54.748-771.538-63.175-760.423-68.593-749.843-75.077-740.064-82.652-734.833-86.704-730.293-91.527-725.392-95.951-720.651-100.229-715.071-102.815-710.287-106.768-707.103-109.398-706.357-112.732-706.994-116.652-709.396-131.438-710.643-145.643-702.935-159.317-696.209-171.249-681.756-182.641-667.36-177.129-656.728-173.059-653.454-161.816-649.047-152.44-648.613-151.517-648.099-150.533-647.174-150.104-646.293-149.694-645.261-149.893-644.319-150.129-636.881-151.991-630.686-155.418-622.806-155.75-612.492-156.186-602.201-152.74-594.02-146.555-589.909-143.449-586.38-139.661-583.514-135.395-574.3-121.682-576.658-105.541-583.398-91.428-587.559-82.594-592.014-73.819-597.268-65.457-600.621-60.12-605.331-54.832-608.203-48.922-611.708-41.709-610.877-34.649-611.3-26.902-611.456-23.973-611.751-21.03-612.184-18.101-609.921-19.761-607.632-21.465-605.182-23.088-597.469-28.197-589.501-30.437-583.644-38.189-575.187-49.385-573.603-64.346-564.182-74.938-556.7-83.352-548.571-91.807-545.741-103.047-542.459-116.079-544.11-129.213-537.42-141.546-532.088-151.376-523.288-158.14-512.581-161.197-497.369-165.543-482.189-159.415-477.18-143.905-474.079-145.791-470.904-147.616-467.59-149.254-459.977-153.015-450.419-156.101-441.872-155.811-432.62-155.496-423.746-149.708-422.541-140.038-422.182-137.322-422.436-134.62-423.026-132.135-425.189-122.816-431.009-114.753-435.347-106.375-439.892-97.595-440.72-89.859-441.247-80.215-441.332-75.384-441.831-70.565-442.646-65.816-445.931-46.567-455.292-30.425-462.487-12.621-465.289-5.687-467.276 1.529-468.31 8.89-464.993 6.717-461.818 4.363-458.883 1.754-440.761-14.361-431.053-36.105-406.538-44.099-400.807-45.968-394.855-47.092-388.879-47.575-379.027-48.274-367.245-48.113-358.081-44.012-350.465-40.603-344.603-32.992-344.831-24.397-344.921-20.98-346.141-17.715-347.776-15.023-349.391-12.292-351.386-9.944-353.29-7.735-360.812 .979-367.642 10.289-373.615 20.122-386.104 40.683-395.87 60.372-414.09 77.194-422.611 85.153-431.217 92.965-439.493 101.07-451.78 113.104-461.95 127.81-473.993 140.309-479.828 146.363-487.018 151.289-495.291 153.249-500.623 154.511-505.942 155.453-511.19 157.089-523.298 160.865-534.879 166.121-546.955 169.993-556.279 172.982-565.236 176.646-574.963 178.256-591.386 180.976-606.958 182.14-621.617 190.834-631.394 196.613-639.732 204.625-646.826 213.569-663.12 234.112-683.264 241.526-708.817 242.646-732.426 243.517-755.58 239.474-778.65 238.315-795.956 237.557-813.482 236.896-830.784 237.975-860.122 239.777-886.833 251.579-915.257 257.735-926.697 260.213-938.287 262.077-949.966 263.129-979.103 265.754-1008.021 258.718-1037.058 261.334-1042.787 261.881-1048.466 262.745-1054.111 263.939-1076.412 268.587-1101.913 255.909-1121.917 247.276-1134.059 242.037-1145.89 236.045-1157.232 229.265-1168.271 222.666-1182.29 230.506-1182.29 243.368V431.94C-1182.29 444.411-1172.18 454.52-1159.709 454.52H447.131C459.601 454.52 469.71 444.411 469.71 431.94V315.495C469.71 303.885 462.112 293.643 451.001 290.276L450.81 290.218C419.164 280.643 382.438 284.486 352.709 268.088 338.238 260.106 326.714 248.41 311.069 242.463 295.308 236.472 278.261 234.718 261.498 235.211 243.762 235.733 226.026 231.738 210.327 223.438 192.562 214.046 179.428 196.775 158.012 195.675 156.065 195.576 153.779 195.523 151.655 195.335 131.979 193.62 115.622 183.319 98.412 174.657 83.384 167.092 68.655 159.01 53.525 151.997 38.407 145.03 22.721 139.159 6.465 136.301-1.631 134.925-10.134 134.442-18.592 132.25-27.93 129.829-36.349 124.515-45.82 122.044-60.731 118.154-76.016 118.387-91.298 118.211-116.449 117.922-142.275 117.883-166.993 112.672-184.187 109.047-199.097 102.295-213.207 91.865-222.679 84.864-233.908 80.933-245.321 78.448-256.041 76.114-266.402 75.1-276.153 69.682-286.342 64.021-296.731 58.906-307.239 53.841-316.621 49.318-329.67 44.965-335.793 36.051-338.799 31.676-339.935 26.124-339.208 20.866-337.887 11.311-330.494 3.327-322.925-2.086-315.729-7.231-307.426-10.411-299.08-12.403-279.182-17.125-259.096-14.349-239.788-8.224-207.512 2.016-173.234 5.141-141.722 17.521-139.207 18.51-136.673 19.554-133.99 19.866-125.788 20.822-115.464 16.281-107.261 15.029-95.075 13.168-82.755 12.279-70.435 12.086-62.472 11.961-49.046 15.016-41.821 11.524-40.061 10.674-38.696 9.198-37.309 7.82-30.36 .926-21.729-4.26-12.38-7.155-14.553-6.57-23.842-23.865-25.514-26.035-35.559-39.072-51.384-48.763-64.66-58.237-75.424-65.919-88.679-71.79-96.624-82.774-110.194-101.535-94.66-126.478-78.935-138.262-73.987-141.969-64.107-144.473-61.167-150.083-59.723-152.839-60.086-156.15-60.487-159.235-62.884-177.699-65.321-197.162-63.293-216.072-61.104-236.475-51.731-254.951-47.557-274.979-44.952-287.469-44.562-301.873-33.851-310.645-29.497-314.317-24.438-317.7-18.623-317.693-12.382-317.686-6.141-317.676 .101-317.671H.629C6.358-314.649 10.931-309.916 15.814-305.638 16.212-305.29 16.628-304.932 17.136-304.786 17.744-304.611 18.393-304.767 19.006-304.922 27.479-307.066 35.596-308.593 44.344-306.761 59.278-303.685 69.737-291.908 74.911-278.061 77.344-271.548 78.726-264.511 79.252-257.583 79.95-248.395 76.237-238.597 79.238-229.643 81.688-222.338 86.411-215.885 88.956-208.488 93.378-195.723 95.401-181.939 95.291-168.451 95.284-167.605 95.272-166.735 95.578-165.946 95.992-164.879 96.922-164.113 97.808-163.388 104.481-157.928 110.756-151.979 116.563-145.605 111.69-158.498 110.498-172.25 111.304-185.927 111.628-191.432 112.25-196.891 112.956-202.317 113.682-207.753 114.45-213.118 115.301-218.546 117.046-229.362 119.426-240.19 123.396-250.542 127.792-262 134.591-274.977 145.949-280.864 166.027-291.272 186.121-270.722 192.275-253.131 196.113-242.161 196.824-229.951 196.375-218.415 195.947-207.463 194.408-196.634 192.563-185.895L192.46-185.91C192.021-182.83 190.521-179.92 193.851-177.28 204.19-169.07 208.07-157.44 210.12-145.04 210.7-141.57 211.54-139 215.46-138.33 223.771-136.91 232.01-134.71 240.381-133.979 251.971-132.97 262.73-129.72 271.75-122.64 282.16-114.47 293.681-108.89 305.811-103.9 323.79-96.51 341.69-88.04 354.28-72.84 364.01-61.101 374.17-50.021 385.391-39.771 397.83-28.4 412.09-19.06 422.41-5.28 427.32 1.271 434.92 4.84 442.431 8.14 444.115 8.881 445.804 9.568 447.497 10.205 458.247 14.246 469.71 6.205 469.71-5.279ZM-1182.29 74.898C-1182.29 79.407-1179.599 83.472-1175.459 85.259-1159.656 92.081-1143.286 98.577-1126.07 99.91-1119.74 100.4-1113.25 100.45-1108.149 95.54-1103.729 91.29-1101.7 88.13-1109.03 83.73-1120.28 76.98-1130.54 68.63-1136.63 55.86-1124.13 62.14-1112.36 68.24-1100.399 73.96-1096.81 75.68-1092.689 79.45-1088.87 76.64-1085.09 73.87-1090.6 69.76-1089.55 66-1061.27 75.48-1061.27 75.48-1054.29 70.53-1098.07 57.96-1121.959 25.63-1125.93 6.11-1118.49 14.44-1111.38 23.12-1102.01 29.51-1106.59 20.19-1110.61 10.92-1115.12 1.899-1121.08-10.021-1126.81-22.19-1135.41-32.65-1144.569-43.79-1155.609-51.51-1170.489-51.47-1170.552-51.47-1170.614-51.47-1170.676-51.471-1177.036-51.556-1182.29-46.569-1182.29-40.208ZM-1169.75 196.63C-1164.72 201.58-1160.17 207.14-1153.7 210.26-1134.58 219.47-1117.14 231.39-1099.37 242.88-1082.32 253.91-1063.08 257.73-1043.93 249.05-1029.83 242.65-1015.97 241.08-1000.81 242.6-954.019 247.3-907.26 244.77-862.78 229.8-862.78 229.8-862.843 229.611-862.843 229.61-838.27 216.577-809.137 211.263-781.964 206.509-772.732 204.894-763.46 203.515-754.16 202.354-744.857 201.231-735.522 200.359-726.172 199.773-708.188 198.647-689.082 198.392-671.012 194.092-661.906 192.077-652.872 189.243-643.259 189.758L-643.24 189.86C-634.729 187.31-628.1 181.9-626.2 171.28-633.289 174.3-637.51 180.54-645.66 181.4-640.47 175.93-635.689 171.44-633.38 165.47-631.06 159.45-629.46 155.94-623.32 156.86-592.6 161.47-564.479 153.45-538.63 137.41-530.26 132.21-520.2 133.61-511.14 135.04-540.22 146.16-568.03 160.33-598.12 168.8-580.49 169.28-564.35 163.31-548.039 158.01-535.68 154-524.55 145.83-511.439 144.89-496.08 143.8-488.269 135.15-482.999 122.12-480.14 115.05-480.11 107.71-479.789 99.82-472.999 102.24-465.3 109.47-460.35 99.69-456.479 92.05-450.47 87.9-443.8 84.24-424.89 73.85-411.84 58.479-401.76 39.57-390.55 18.521-380.1-3.25-359.54-17.78-351.819-23.24-353.949-32.08-362.699-36-368.05-38.39-373.71-38.26-379.36-38.07-406.42-37.17-418.74-24.41-428.43 .46-431.499 8.35-435.479 17.46-442.43 22.46-454.939 31.45-470.769 37.271-481.26 48.93-475.003 32.159-458.478 24.257-446.657 12.333-444.891 10.551-447.474 7.864-449.366 9.513-458.634 17.587-469.39 23.835-479.93 30.49-493.93 39.32-507.899 49.26-515.97 64.08-520.74 72.83-526.269 74.59-535.13 74.26-559.89 73.36-584.87 73.55-607.92 83.75-617.41 87.95-625.08 91.28-634.45 84.63-638.539 81.73-643.96 82.35-648.89 82.3-667.46 82.09-685.729 86.98-706.12 83.87-701.21 91.75-695.01 96.11-691.249 105.33-695.91 101.9-698.38 100.12-700.82 98.29-716.72 86.35-733.61 76.52-753.2 71.69-764.789 68.84-774.249 69.31-784.06 78.23-798.519 91.39-815.85 100.54-835.41 105.09-816.01 90.34-800.33 72.44-786.249 52.87-764.82 23.08-733.789 5.24-702.83-12.51-700.479-13.86-697.47-14.17-694.72-14.71-675.039-18.53-657.439-25.601-647.42-44.63-646.13-47.06-644.83-48.42-641.689-47.81-627.2-44.99-618.51-53.82-610.99-64.03-602.78-75.17-597.57-87.93-592.46-100.71-588.09-111.62-587.64-122.25-595.749-131.5-604.51-141.5-615.59-145.63-629.019-142.64-630.01-142.42-630.979-142.17-631.93-141.89-625.039-137.29-619.539-133.08-614.46-127.87-601.45-114.55-602.6-99.64-618.24-89.57-628.2-83.15-638.81-77.729-653.82-79.38-644.09-81.58-637.28-85.01-630.95-89.21-618.13-97.71-617.38-110.11-628.03-121.18-639.81-133.44-649.55-133.39-660.36-122.38-661.503-121.207-662.695-120.143-663.927-119.178-663.942-119.164-663.965-119.144-663.979-119.13-669.91-112.87-675.95-106.74-684.97-104.71-698.09-101.771-708.899-94.83-718.47-85.56-735.62-68.94-755.12-55.69-777.39-47.05-791.81-41.46-803.21-32.59-811.22-19.601-814.2-14.771-817.439-14.09-822.519-15.101-851.74-20.9-872.479-11.26-886.92 14.899-891.09 22.46-894.55 30.41-898.33 38.18-898.31 20.94-892.249 5.44-884.58-11.49-906.31-2.101-920.83 12.38-932.92 29.96-933.039 20.49-929.939 12.32-924.84 5.07-919.76-2.15-914.01-8.89-908.11-16.41-942.979-13.11-969.24 1.76-986.439 31.87-994.82 46.54-1003.83 60.94-1014.47 74.16-1028.137 91.138-1044.666 104.382-1064.001 113.953-1065.71 114.798-1064.871 117.41-1062.989 117.105-1042.137 113.731-1025.99 100.886-1010.56 86.29-1008.789 90.33-1011.149 95.69-1012.43 97.46-1026.06 116.2-1043.979 124.74-1065.43 130.46-1095.729 138.54-1130.06 132.76-1159.979 143.26-1162.91 144.29-1164.77 143.83-1164.399 140.04-1164.271 138.7-1164.238 137.417-1164.292 136.187-1164.799 124.586-1182.29 125.185-1182.29 136.797V166.843C-1182.29 177.994-1177.817 188.68-1169.874 196.508ZM-830.89 226.15C-813.64 226.15-798.85 226.24-784.07 226.12-766.42 225.98-748.999 227.18-731.45 229.91-708.08 233.54-684.82 232.32-665.36 215.79-660.01 211.25-655.28 206.11-651.45 197.41-711.08 211.46-771.979 204.48-830.89 226.15M-458.83-101.93C-458.05-104.15-456.53-106.94-454.61-107.79-446.28-111.49-439.91-115.7-444.09-126.44-444.89-128.49-442.53-129.37-440.689-129.21-435.66-128.76-432.16-129.61-433.6-135.96-435.039-142.351-439.12-144.88-445.269-143.66-462.64-140.21-475.21-130.42-483.18-113.67-486.38-106.95-490.13-100.95-495.33-95.46-504.57-85.67-508.92-73.3-510.21-60.03-510.899-52.88-513.43-48.07-520.14-44.31-540.38-32.979-551.43-16.54-556.01 5.86-560.46 27.627-566.35 37.399-590.43 46.46-605.541 52.146-621.18 57.021-635.22 65.31-639.35 67.76-643.95 69.87-646.08 76.22-631.999 76.96-620.01 72.72-608.07 68.68-589.59 62.43-570.979 57.31-551.18 59.399-543.189 60.24-537.87 55.25-532.7 50.61-521.56 40.59-515.22 27.61-512.33 13.16-507.899-8.979-499.749-27.65-476.2-36.04-466.38-39.54-460.769-54.32-463.35-65.88-466.17-78.54-462.88-90.271-458.83-101.93M-657.649 55.97C-658.71 57.29-659.499 58.84-661.91 62.649-635.2 51.22-608.56 46.899-585.16 33.7-577.51 29.38-573.72 22.36-570.92 13.74-562.49-12.21-550.37-35.72-527.499-51.54-522.68-54.87-520.36-58.101-519.63-63.93-518.05-76.64-513.88-88.63-505.97-98.96-501.43-104.9-501.83-112.28-499.8-118.93-497.939-125.04-493.43-129.78-490.83-135.56-489.05-139.52-487.399-144.31-491.61-147.15-496.249-150.27-503.89-153.03-509.46-149.38-527.039-137.87-534.18-120.95-529.71-99.979-528.06-92.229-529.439-85.86-535.689-81.101-547.64-71.99-554.96-59.74-560.18-46.04-565.14-33.05-572.32-22.42-586.08-17.11-590.87-15.271-593.939-11.14-596.99-7.15-614.87 16.19-639.269 33.19-657.649 55.97M-702.84 3.521C-715.55 9.021-725.28 16.29-733.74 25.56-719.26 32.24-718.2 32.11-710.749 19.2-708.09 14.58-702.34 11.51-702.84 3.521M-703.399 26.01C-704.399 27.399-705.37 28.97-703.769 31.899-695.53 23.62-686.95 16.11-675.539 13.17-674.6 12.93-673.41 12.25-673.03 11.45-664.499-6.31-647.35-13.851-631.89-23.39-630.649-7.74-647.46 21.95-664.86 34.87-648.149 33.42-637.34 23.5-634.439 7.61-633.63 3.19-631.82-1.15-629.88-5.24-623.71-18.3-622.61-24.14-624.03-41.38-634.35-32.97-643.92-24.24-655.53-18.31-664.03-13.979-672.8-10.479-682.12-8.45-686.45-7.51-691.09-6.04-691.149-1.12-691.28 9.91-697.499 17.8-703.399 26.01M-694.979-110.47C-681.85-123.771-672.28-137.09-664.83-151.93-662.37-156.83-661.249-162.42-666.24-166.43-671.519-170.67-677.67-171.78-683.92-168.05-691.999-163.22-696.479-155.8-698.2-146.78-700.41-135.18-699.21-123.79-694.979-110.47M2.53-143.87C.971-156.79 3.5-164.17 7.46-177.851 3.34-175.3 .79-173.72-3.35-171.16 2.79-186.01-.029-198.25-8.26-209.34-11.29-213.42-8.41-215.41-6.77-218.44 5.721-241.56 9.34-266.05 3.101-291.62 .971-300.38-4.729-306.75-14.689-306.26-24.76-305.76-33.149-297.91-34.3-287.62-36.38-269.04-40.27-251.101-47.35-233.66-55.43-213.729-53.47-192.97-50.09-172.27-48.8-164.3-51.97-159.68-48.17-153.51-43.79-146.39-33.369-152.59-25.74-150.39-16.729-147.79-7.439-146.12 2.53-143.87M189.19-118.851C173.051-108.729 156.12-107.78 138.94-116.57 135.53-118.31 132.15-120.11 127.78-122.39 125.34-89.63 119.96-78.71 100.101-66.28 120.24-52 141.37-41.65 166.521-41.87 170.98-41.91 174.53-42.29 176.471-47.45 177.192-49.371 178.232-51.015 179.539-52.472 182.493-55.767 178.971-60.812 174.8-59.332 171.423-58.134 168.033-56.691 164.33-55.53 171.141-65.78 179.221-69.45 189.16-70.08 192.771-70.31 196.801-69.51 197.62-75.47 200.36-95.56 211.79-107.76 232.33-110.88 221.29-125.78 204.45-128.43 189.19-118.851M98.16-86.47C88.181-96.771 94.811-107.479 92.51-119.19 88.931-137.4 77.71-149.101 58.98-152.77 56.98-153.16 54.7-153.17 53.351-155.51 56.84-158.24 61.181-159.61 64.96-158.28 74.08-155.09 74.84-159.45 74.24-166.71 72.561-187.21 71.301-207.8 53.44-222.16 48.99-225.75 52.271-229.17 53.36-232.57 58.971-249.979 62.12-267.479 54.73-285.17 50.28-295.851 36.641-301.05 26.45-295.81 20.561-292.79 17.08-288.96 18.53-280.729 21.87-261.83 19.301-242.82 16.34-224.01 15.23-216.94 14.9-210.34 17.51-203.37 21.26-193.38 21.76-182.74 21.28-172.12 20.26-148.97 27.59-129.38 45.08-113.64 59.41-100.729 67.17-85.91 84.76-76.601 87.83-74.97 90.46-69.74 94.54-73.25 98.351-76.53 101.45-83.06 98.16-86.47M122.581-137.169C122.528-137.125 122.476-137.08 122.417-137.041 122.584-136.877 122.743-136.714 122.91-136.55 122.796-136.757 122.693-136.963 122.581-137.169M170.34-197.95C164.26-200.101 157.631-197.37 150.681-201.2 156.931-203.729 162.21-205.2 166.79-207.86 176.66-213.62 186.09-220.06 185.23-233.62 184.181-250.18 177.931-263.79 162.17-271.08 154.08-274.82 147.641-270.97 143.301-264.04 134.29-249.67 125.771-235.03 127.301-217.01 127.44-215.27 127.58-213.32 126.971-211.76 116.801-186.02 124.681-161.58 132.21-137.101 134.99-128.101 139.13-123.46 149.57-121.54 161.771-119.29 169.71-122 176.74-130.88 183.21-139.04 186.41-148.38 181.4-158.38 178.15-164.87 173.391-169.66 164.601-168.02 159.28-167.03 153.46-166.41 147.53-170.01 157.681-177.25 166.5-185.07 170.34-197.95M277.99-97.39C251.17-110.32 214.86-85.88 200.26-43.9 217.46-55.229 234.721-62.32 253.69-64.53 254.04-64.57 254.381-64.771 254.721-64.76 274.28-64.16 292.87-66.19 304.9-85.36 292.57-92 279.4-92.09 265.391-82.13 266.73-90.67 272.78-93.65 277.99-97.39M368.437 51.553C368.29 53.083 368.445 54.316 368.808 55.468 368.609 54.233 368.494 52.931 368.437 51.553M479.301 492.52H-1191.88C-1207.57 492.52-1220.29 479.8-1220.29 464.11V-343.07C-1220.29-358.76-1207.57-371.479-1191.88-371.479H479.301C494.99-371.479 507.71-358.76 507.71-343.07V464.11C507.71 479.8 494.99 492.52 479.301 492.52"/>
</g>
</g>
</svg>
