<svg xmlns="http://www.w3.org/2000/svg" xmlns:xlink="http://www.w3.org/1999/xlink" xmlns:inkscape="http://www.inkscape.org/namespaces/inkscape" version="1.1" width="2048" height="1920" viewBox="0 0 2048 1920">
<defs>
<clipPath id="clip_1">
<path transform="matrix(1,0,0,-1,0,1920)" d="M0 1920H2048V0H0Z"/>
</clipPath>
</defs>
<g inkscape:groupmode="layer" inkscape:label="Layer 1">
<g clip-path="url(#clip_1)">
<path transform="matrix(1,0,0,-1,618.9476,869.75979)" d="M0 0C-1.365-.81-3.195-1.17-5.476-1.32-20.851-2.37-35.505 .645-49.755 6.03-63.465 11.235-76.395 18.15-89.595 24.48-113.851 36.105-140.351 45.968-167.131 49.634-199.301 54.038-228.177 52.964-259.812 52.124-263.322 52.03-266.053 51.421-269.578 51.166-271.513 51.016-274.291 48.135-274.32 45.96-274.351 43.65-271.863 43.118-270.123 42.998-267.633 42.803-265.94 41.903-263.45 41.783-243.74 40.883-224.205 41.235-204.81 37.275-197.46 35.76-190.425 33.345-183.405 30.87-179.925 29.64-176.476 28.065-175.23 23.265-184.305 22.485-193.17 22.2-201.916 20.88-220.065 18.15-238.935 18.435-255.63 8.775-257.791 7.53-259.89 6.165-262.125 5.04-266.865 2.61-269.13-.45-266.28-5.895-264.03-10.17-265.92-11.985-270.541-11.43-282.66-9.945-293.851-14.94-305.476-16.875-306.81-17.085-308.655-16.95-308.82-18.96-308.97-20.775-308.025-22.305-306.36-22.92-303.45-24.015-300.39-24.69-297.48-25.785-295.351-26.595-292.005-26.04-291.795-29.49-291.601-32.655-293.34-34.98-296.041-36.645-305.145-42.285-314.64-47.295-325.125-49.485-354.48-55.605-381.043-46.32-407.578-33.6-426.058-24.749-445.203-18.177-465.408-13.557-471.693-12.117-477.663-11.088-484.174-11.387-486.019-11.477-489.435-10.92-490.23-13.965-491.16-17.595-487.905-17.82-485.7-18.555-472.875-22.83-460.035-27.015-447.195-31.245-435.735-35.025-424.455-39.285-413.97-45.255-410.73-47.1-405.315-49.38-407.715-53.67-409.666-57.165-414.12-53.445-416.97-51.975-440.685-39.75-466.62-36.15-492.645-32.49-512.115-29.745-515.805-29.985-515.805-10.665V468.721C-515.805 478.347-508.002 486.15-498.376 486.15H-17.43C-7.803 486.15 0 478.347 0 468.721ZM0-401.01C-.63-473.355-1.23-545.85-1.8-618.48-1.83-623.46-3.24-624.975-8.055-625.14-26.805-625.755-40.8-633.84-48.315-652.215-51.69-660.45-60.705-663.12-68.19-658.56-72.255-656.07-75.916-652.92-79.875-650.22-90.24-643.155-100.92-639.93-113.295-646.29-121.68-650.595-126.27-648.51-130.32-639.81-132.541-635.055-134.49-630.15-136.065-625.155-141.87-606.87-154.08-595.395-171.976-589.71-175.56-588.57-179.055-587.235-182.58-585.96-187.38-584.22-190.305-580.815-192.285-576.03-196.98-564.705-205.935-558.99-217.89-558.06-223.5-557.61-229.2-557.43-234.81-557.88-240.21-558.3-243.045-556.38-245.19-551.37-250.47-539.04-256.515-527.1-265.05-516.63-281.16-496.86-302.37-484.905-325.92-476.625-355.65-466.185-386.88-462.555-417.93-458.25-425.55-457.185-432.976-459.435-440.085-462.255-452.895-467.355-463.98-465.195-473.25-455.115-482.865-444.645-494.25-437.31-508.695-435.705-514.77-435.045-515.805-431.775-515.805-426.42V-425.805C-514.56-329.61-513.57-233.67-512.445-137.97-512.31-125.955-511.56-125.565-501-130.995-488.58-137.385-479.43-147.81-469.245-156.945-456.87-168.045-444.99-179.715-431.46-189.465-412.291-203.295-390.135-207.42-367.095-208.56-348.09-209.505-329.115-210.435-310.65-203.67-308.31-202.815-304.08-201.72-303.105-203.82-301.666-206.94-305.145-209.385-307.59-211.275-313.291-215.67-319.68-218.85-326.565-220.875-328.74-221.505-330.63-222.195-330.285-224.985-329.955-227.535-327.9-227.46-326.055-227.73-313.86-229.485-303.42-224.775-293.73-218.07-275.61-205.515-258.75-191.295-241.44-177.69-209.07-152.265-173.01-135.075-132.36-128.7-128.476-128.1-124.5-127.905-120.555-127.77-117.855-127.665-114.96-127.575-115.02-131.73-115.095-135.57-117.226-136.8-120.615-136.89-132.345-137.235-143.791-139.56-154.8-143.565-179.385-152.475-200.25-166.425-213.495-190.02-214.77-192.3-216.166-194.655-216.075-197.64-212.145-196.575-209.955-193.68-207.795-190.92-198.135-178.65-185.445-171-171.166-165.405-155.085-159.105-138.585-155.235-121.41-154.215-116.25-153.915-111.135-152.7-105.976-152.265-103.485-152.04-100.32-152.685-99.495-155.04-98.46-157.995-101.82-159.195-103.815-160.305-112.2-165.015-121.605-165.93-130.875-167.115-139.125-168.165-147.435-168.72-155.565-170.715-157.785-171.255-159.93-171.81-162.03-173.4-158.805-177.675-154.32-179.37-149.895-179.01-123.42-176.82-96.69-177.03-70.695-170.415-62.16-168.24-54.42-164.175-47.22-158.985-43.545-156.33-39.84-153.69-35.055-157.92-32.49-160.185-29.745-157.755-27.645-155.43-24.33-151.725-21.84-147.21-17.115-144.9-13.14-142.98-9.945-142.86-8.445-147.93-7.515-151.035-5.685-153.87-2.985-155.28-1.68-155.955-.705-156.735 0-157.605ZM-505.77-86.121C-493.08-88.836-480.885-93.096-468.916-97.821-446.355-106.731-422.88-112.191-399.12-116.496-389.115-118.311-378.825-118.686-368.685-119.811-365.82-120.126-362.625-120.201-362.851-124.566-363.09-129.171-366.675-127.43-368.955-127.865-371.82-128.391-374.775-128.376-377.67-128.705-379.351-128.901-381.795-128.046-381.825-131.091-381.855-133.55-379.92-133.985-378.075-134.541-372.675-136.146-367.095-136.881-361.5-137.406-359.16-137.615-357-138.11-355.08-139.49-352.815-141.11-351.81-143.466-352.23-146.001-352.74-148.985-355.575-147.786-357.435-148.071-359.895-148.446-362.416-148.416-364.23-148.536-376.32-148.58-387.255-146.586-397.71-141.951-425.416-129.651-453.18-117.471-480.96-105.291-487.875-102.261-495.195-100.821-502.77-100.401-508.875-100.055-513.57-99.606-515.805-96.651V-87.726C-513.39-85.701-508.545-85.521-505.77-86.121M-515.805-49.515C-513.375-47.265-508.23-46.62-505.005-47.04-487.905-49.245-471.525-53.595-456.75-62.64-452.19-65.415-447.42-69.06-449.31-74.955-451.2-80.82-457.291-79.38-461.88-79.035-472.53-78.24-482.655-75-492.81-72-496.2-70.995-499.53-69.78-502.98-69.06-509.115-67.77-513.615-67.29-515.805-64.2ZM-581.895 540.837V-721.317C-581.895-730.664-574.319-738.24-564.972-738.24H49.182C58.528-738.24 66.105-730.664 66.105-721.317V540.837C66.105 550.183 58.528 557.76 49.182 557.76H-564.972C-574.319 557.76-581.895 550.183-581.895 540.837" fill="#231f20"/>
<path transform="matrix(1,0,0,-1,1208.2528,1425.7354)" d="M0 0C-8.115 7.05-15.946 14.43-23.851 21.705-31.86 29.055-40.485 29.925-49.995 24.585-60.12 18.885-70.335 13.291-79.62 6.18-90.375-2.055-90.825-8.625-81.06-17.805-68.385-29.715-55.395-41.295-42.75-53.22-37.816-57.87-32.221-59.925-25.756-58.605-8.925-55.17 5.985-58.68 19.74-69.015 29.024-75.975 39.42-76.725 50.084-71.325 56.19-68.25 62.415-65.445 68.654-62.685 70.605-61.83 72.584-61.29 73.529-62.79V-93.225C73.529-102.852 65.726-110.655 56.1-110.655H-156.3C-158.325-108.885-158.971-105.705-158.52-100.77-156.855-82.125-156.495-63.45-155.865-44.79-155.566-35.805-158.175-28.035-163.365-20.834-173.205-7.185-182.745 6.675-191.791 20.895-197.476 29.805-199.351 38.595-197.131 49.32-189.781 85.035-204.09 116.805-234.81 135.15-242.955 140.01-251.745 142.875-261.3 142.905-265.156 142.92-268.59 143.895-272.025 145.59-290.881 154.86-307.545 167.76-325.71 178.185-329.971 180.63-329.805 185.88-325.545 189.495-316.26 197.37-307.86 206.115-299.58 214.965-289.321 225.885-281.821 238.725-275.281 252.03-271.696 259.32-266.851 264.735-259.666 268.335-248.325 273.99-237.196 280.065-225.75 285.48-217.83 289.245-212.941 295.095-210.631 303.39-210.015 305.595-209.31 307.77-208.515 309.9-203.416 323.46-195.226 328.245-181.066 326.355-164.115 324.075-148.335 317.97-132.541 311.91-103.875 300.93-75.435 289.365-45.81 281.22-10.92 271.605 24.494 266.505 60.615 266.595 72.165 266.625 73.395 266.715 73.529 254.805V-14.655C72.195-16.875 69.899-18.18 66.57-19.125 61.875-20.459 57.179-20.084 52.469-20.28 45.69-20.55 38.88-19.92 32.145-21.375 29.88-21.87 27.375-22.23 26.16-24.27 22.11-31.05 16.395-27.87 11.25-27 8.235-26.475 8.024-23.52 8.429-20.895 9.75-12.18 6.404-5.58 0 0M-298.62 105.375C-297.916 106.56-296.37 106.035-295.156 106.08-287.265 105.615-270.51 91.8-268.515 84.345-267.93 82.155-268.8 81.541-270.541 81.705-272.355 81.885-274.575 81.945-275.851 82.995-283.2 88.98-290.355 95.205-297.48 101.46-298.515 102.36-299.49 103.92-298.62 105.375M-186.825-110.415C-186.87-110.505-186.916-110.58-186.99-110.655H-389.101C-390.795-110.084-392.31-109.155-393.51-107.64-400.395-98.985-410.191-96.255-420.045-93.584-426.465-91.845-433.096-90.99-435.75-83.295-436.515-81.075-439.185-79.53-441.631-78.885-441.855-78.825-442.08-78.75-442.291-78.675V129.315C-434.205 121.635-424.8 119.19-414.196 118.545-405.15 118.005-397.305 112.755-389.881 107.745-347.506 79.095-304.635 51.225-266.131 17.325-256.395 8.76-248.506-1.455-239.55-10.695-236.085-14.28-232.321-16.785-227.265-17.25-221.865-17.745-217.471-20.52-213.465-23.91-208.92-27.765-206.625-32.025-210.525-38.04-213.196-42.15-213.855-47.055-214.036-51.945-214.125-54.03-213.885-56.205-214.365-58.215-218.385-75.39-210.615-87.195-197.911-97.02-194.325-99.795-191.221-103.215-188.01-106.455-187.006-107.475-186.031-108.99-186.825-110.415M-444.81 247.59C-444.495 262.215-444.615 276.84-444.555 291.45H-444.045C-443.985 306.06-443.851 320.655-443.925 335.25-443.941 337.92-443.4 339.675-442.291 340.44-441.166 341.235-439.471 341.01-437.175 339.675-421.62 330.615-404.55 325.275-387.84 319.005-379.875 316.005-378.691 313.38-380.941 304.935-385.95 286.2-397.365 271.785-412.875 260.58-421.156 254.58-429.976 249.285-438.675 243.87-440.145 242.955-441.36 242.46-442.291 242.445-444.031 242.416-444.885 243.99-444.81 247.59M-424.861 1042.125H56.1C65.726 1042.125 73.529 1034.322 73.529 1024.696V919.275C72.735 918.855 71.625 918.705 70.125 918.675 50.895 918.375 32.279 923.145 13.425 925.95 3.66 927.405-6.075 929.325-17.7 927.39-11.281 922.455-5.295 921.135 .51 919.515 23.054 913.215 45.899 908.295 68.76 903.495 71.13 903 72.645 902.28 73.529 901.065V865.23C73.14 864.705 72.554 864.27 71.684 863.955 44.115 853.755 16.29 844.56-13.906 846.48-27.93 847.38-41.835 849.75-55.5 852.945-69.585 856.245-83.476 855.075-97.471 853.62-114.075 851.895-130.605 849.21-147.435 849.51-152.775 849.6-158.041 849.09-162.855 846.45-164.656 845.46-167.025 844.38-166.77 842.28-166.471 839.64-163.62 840.33-161.715 840.105-136.875 837.18-111.96 835.005-87.3 831.27-50.115 825.615-13.17 818.61 23.91 812.805 37.14 810.735 50.64 810.465 64.02 809.385 65.024 809.31 66.059 809.4 67.065 809.28 69.24 808.995 72.3 809.041 72.315 806.25 72.33 802.77 68.985 804.615 67.125 804.18 65.969 803.91 64.695 804.18 63.48 804.15 62.309 804.135 60.899 804.42 60.6 802.74 60.27 800.94 61.41 800.13 62.955 799.815 65.744 799.215 68.58 798.69 70.86 796.77 71.91 795.87 73.334 794.85 72.54 793.245 71.895 791.925 70.365 792.465 69.24 792.6 57.675 793.98 46.125 794.115 34.5 793.56 18.195 792.78 2.459 788.37-13.77 786.855-18.825 786.39-23.625 783.315-28.575 781.53-29.895 781.05-30.855 780.39-30.286 778.935-29.835 777.795-28.666 777.93-27.645 778.185 .434 785.041 28.964 782.82 57.375 781.755 63.135 781.53 68.925 780.525 73.274 775.185 70.77 773.715 68.865 775.005 67.05 775.275 62.175 776.01 57.705 776.715 56.445 769.965 55.92 767.175 46.593 767.16 43.998 767.415 31.128 768.63 24.539 769.046 11.819 767.035 7.514 766.361 3.584 765.675-.571 766.74-3.24 767.416-5.175 766.666-5.7 763.995-6.42 760.38-3.346 761.43-1.696 761.325 15 760.23 31.679 759.39 48.344 758.16 52.725 757.845 59.459 758.416 58.815 751.875 58.38 747.525 52.365 749.775 48.855 749.43 42.584 748.8 36.27 748.515 30.119 747.12 12.165 743.07-5.596 747.045-23.37 749.01-48.33 751.755-73.17 756.39-98.46 753.63-104.221 753-109.74 751.59-114.765 748.725-119.64 745.965-122.476 741.78-123.27 735.6-119.985 735.45-117.585 736.68-115.545 738.09-102.286 747.225-87.795 747.39-72.571 744.75-43.545 739.695-14.476 735.075 14.565 730.425 22.41 729.166 30.404 728.97 38.175 727.065 40.14 726.57 42.075 725.91 44.01 725.25 45.434 724.755 46.545 723.9 46.649 722.22 46.755 720.3 45.344 719.895 43.904 719.625 41.955 719.25 40.2 718.365 40.154 716.265 40.094 713.805 42.584 713.85 44.175 713.25 47.804 711.855 51.554 710.791 54.795 708.555 59.85 705.06 59.91 702.495 55.455 698.46 47.82 691.56 38.774 691.98 29.49 693.3 17.804 694.95 6.524 699.166-5.46 699.045-24.825 698.835-43.455 694.35-62.041 689.505-64.666 688.83-67.08 687.57-68.43 685.125-70.02 682.275-72.06 678.825-70.56 675.975-69.42 673.8-65.61 674.85-63.09 675.195-38.715 678.465-14.25 679.38 10.29 678.69 20.76 678.39 22.649 675.96 19.589 665.73 17.25 657.916 11.985 652.215 5.49 647.805-12.375 635.67-32.325 628.695-53.775 626.625-95.985 622.545-136.65 631.2-177.375 642.166-223.02 654.45-269.085 666.06-317.191 664.41-348 663.345-377.76 656.595-407.071 647.37-418.096 643.905-429.495 641.445-439.846 635.955-440.941 635.37-441.721 635.16-442.291 635.22V1024.696C-442.291 1034.322-434.487 1042.125-424.861 1042.125M73.529 834.255C72.66 832.905 70.695 832.23 67.665 831.855 58.395 830.67 49.26 829.545 39.945 831.27 38.325 831.57 36.51 831.78 36.27 833.775 36.045 835.74 36.959 837.225 39 837.93 47.19 840.765 55.26 843.93 63.54 846.465 71.25 848.835 72.885 848.52 73.529 841.875ZM-508.381 1096.812V-165.342C-508.381-174.688-500.804-182.265-491.458-182.265H122.696C132.043-182.265 139.619-174.688 139.619-165.342V1096.812C139.619 1106.159 132.043 1113.735 122.696 1113.735H-491.458C-500.804 1113.735-508.381 1106.159-508.381 1096.812" fill="#231f20"/>
<path transform="matrix(1,0,0,-1,1927.428,1536.3897)" d="M0 0H-480.961C-490.587 0-498.39 7.803-498.39 17.43V152.13C-498.387 152.133-498.386 152.135-498.383 152.138-484.615 153.135-470.872 154.063-457.996 160.334-453.331 162.615-447.751 162-442.485 161.925-430.816 161.73-419.146 160.89-407.581 163.214-400.471 164.64-394.26 167.505-389.415 173.325-362.971 205.095-329.806 228.105-296.056 250.245-293.04 252.225-289.966 254.16-287.056 256.305-282.225 259.875-279.675 264.78-279.526 270.945-279.195 285.135-279.901 299.28-281.161 313.38-281.776 320.205-285.795 324.93-290.626 329.19-317.161 352.62-343.005 376.845-368.776 401.205-371.415 403.709-373.92 406.395-376.276 409.185-383.191 417.33-383.341 418.815-377.221 427.77-374.491 431.774-371.55 435.825-367.95 438.959-354.105 451.035-349.8 467.205-348.45 484.785-348.255 487.23-347.82 489.69-347.896 492.12-348.225 501.57-344.866 508.845-337.561 514.89-332.206 519.345-330.841 526.245-331.306 533.28-331.681 538.589-332.415 543.885-334.276 548.88-337.681 557.955-336.795 566.52-331.741 574.575-310.966 607.709-297.105 644.13-283.05 680.475-270.211 713.685-262.456 748.2-255.54 783-253.471 793.455-251.7 804-247.681 813.93-243.556 824.205-236.206 829.89-225.616 831.57-214.066 833.37-202.411 833.325-190.771 833.19-186.39 833.145-182.581 831.195-179.7 827.94-171.54 818.73-161.07 815.43-149.7 816.03-125.491 817.274-102.586 809.1-79.066 805.709-75.57 805.214-74.1 802.62-73.095 799.695-68.235 785.73-56.25 781.53-44.295 778.02-37.755 776.115-31.29 778.245-26.97 784.08-22.575 790.005-16.5 793.5-10.35 796.905-.031 802.605 5.34 811.589 5.849 823.5 6.164 830.73 6.87 837.885 7.8 845.04 8.55 850.83 6.884 855.57 2.414 859.56-18.931 878.52-40.336 897.45-61.425 916.74-83.475 936.915-103.336 959.25-121.246 983.385-123.765 986.79-127.35 988.395-130.501 990.765-146.79 1003.005-163.021 1015.32-179.235 1027.695-181.29 1029.255-183.121 1031.145-184.936 1033.035-191.01 1039.38-191.371 1043.714-185.716 1050.209-181.575 1054.95-180.195 1060.125-179.985 1066.515-179.475 1081.515-182.04 1096.08-185.07 1110.66-185.686 1113.555-186.811 1113.33-188.626 1112.13-190.846 1110.69-192.36 1108.665-192.811 1105.95-193.32 1102.8-193.816 1099.635-194.206 1096.455-194.461 1094.31-194.04 1091.64-197.146 1091.58-200.1 1091.52-203.401 1090.29-205.366 1094.37-208.441 1100.774-209.1 1107.435-208.8 1114.35-208.711 1116.375-207.54 1119.089-210.181 1120.26-212.626 1121.355-215.146 1120.08-216.466 1118.145-221.911 1110.18-228.855 1110.705-236.76 1113.945-239.026 1114.875-241.876 1114.875-244.32 1114.515-246.39 1114.2-249.721 1114.725-249.945 1111.515-250.17 1108.485-248.04 1106.31-245.341 1105.05-243.915 1104.39-242.206 1104.33-240.841 1103.595-238.14 1102.125-236.806 1099.56-237.031 1096.56-237.241 1093.545-240.121 1093.875-242.056 1093.515-247.456 1092.464-253.066 1093.589-258.51 1092.435-263.505 1091.355-266.88 1088.685-269.265 1083.075-263.896 1083.899-259.35 1084.77-254.776 1085.205-252.586 1085.415-249.195 1086.06-248.61 1083.33-247.92 1080.06-248.82 1076.445-252.091 1074.405-252.885 1073.91-253.92 1073.625-254.88 1073.55-265.906 1072.8-274.036 1067.415-279.915 1058.055-281.806 1055.01-285.36 1054.334-288.646 1053.69-303.135 1050.899-316.471 1053.405-328.396 1063.185-343.366 1075.47-359.88 1084.62-378.961 1088.145-381.991 1088.714-386.626 1090.334-387.63 1087.695-389.086 1083.945-384.331 1082.415-381.57 1080.645-376.591 1077.435-370.35 1076.325-366.061 1070.625-372.105 1066.635-377.911 1062.6-383.925 1058.895-387.991 1056.405-392.221 1056.765-396.271 1059.54-399.6 1061.805-403.246 1063.635-406.32 1066.2-424.501 1081.395-445.816 1088.745-468.331 1093.56-478.86 1095.795-489.675 1097.415-498.39 1105.035V1135.351C-498.39 1144.977-490.587 1152.78-480.961 1152.78H0C9.626 1152.78 17.43 1144.977 17.43 1135.351V17.43C17.43 7.803 9.626 0 0 0M-498.39 1017.42C-495.961 1016.565-493.456 1015.875-491.01 1015.095-489.661 1014.675-488.161 1014.195-488.01 1012.545-487.816 1010.385-489.706 1010.07-491.161 1009.62-493.531 1008.885-495.961 1008.24-498.39 1007.7ZM-498.39 1038.18C-494.656 1038.315-491.116 1037.925-487.936 1036.11-485.776 1034.88-485.116 1033.29-487.95 1031.79-490.95 1030.214-493.95 1028.774-497.445 1028.955-497.746 1028.97-498.061 1028.97-498.39 1028.955ZM-460.11 339.12C-460.14 343.845-460.26 348.584-460.17 353.31-460.081 359.01-458.161 360.255-453.045 357.959-451.396 357.225-449.73 356.295-448.425 355.065-424.2 332.325-395.086 320.714-363.3 315.015-355.621 313.649-347.925 311.37-341.806 306.12-329.656 295.725-329.01 274.35-340.216 262.44-345.271 257.07-351.42 253.155-357.616 249.39-373.17 239.97-387.061 228.06-402.195 217.935-409.216 213.24-416.146 209.85-424.725 213.015-427.831 214.155-430.665 212.925-432.901 210.45-434.116 209.084-435.675 207.825-436.35 206.19-440.7 195.87-449.086 194.895-458.445 195.48-461.971 195.69-463.89 196.77-464.686 200.58-466.741 210.36-469.05 212.28-478.816 213.48-490.651 214.92-491.596 215.805-490.156 227.745-487.545 249.135-482.686 269.895-472.605 289.065-464.401 304.68-458.251 320.865-460.11 339.12M-498.39 1080.705C-496.501 1080.87-494.04 1080.87-490.846 1080.885-481.05 1080.915-471.975 1077.855-462.781 1075.08-461.67 1074.75-460.575 1074.089-459.646 1073.339-458.221 1072.23-456.51 1070.85-457.14 1068.899-457.755 1066.905-459.901 1067.985-461.341 1067.94-464.911 1067.805-468.496 1067.865-472.081 1068.03-474.795 1068.135-477.181 1067.295-479.385 1065.915-481.441 1064.64-483.915 1062.915-483.586 1060.53-483.211 1057.725-480.001 1058.88-478.05 1058.459-474.151 1057.649-470.175 1057.2-466.246 1056.524-464.911 1056.3-463.066 1056.435-462.616 1054.98-462.061 1053.149-463.8 1052.175-465.061 1051.26-468.151 1049.024-471.586 1047.645-475.411 1047.015-483.091 1045.74-490.725 1046.58-498.39 1047.209ZM-564.48 1207.467V-54.687C-564.48-64.034-556.904-71.61-547.557-71.61H66.597C75.943-71.61 83.52-64.034 83.52-54.687V1207.467C83.52 1216.813 75.943 1224.39 66.597 1224.39H-547.557C-556.904 1224.39-564.48 1216.813-564.48 1207.467" fill="#231f20"/>
</g>
</g>
</svg>
