<svg xmlns="http://www.w3.org/2000/svg" xmlns:xlink="http://www.w3.org/1999/xlink" xmlns:inkscape="http://www.inkscape.org/namespaces/inkscape" version="1.1" width="1984.25" height="1984.25" viewBox="0 0 1984.25 1984.25">
<defs>
<clipPath id="clip_1">
<path transform="matrix(1,0,0,-1,0,1984.25)" d="M0 1984.252H1984.252V0H0Z"/>
</clipPath>
</defs>
<g inkscape:groupmode="layer" inkscape:label="Layer 1">
<g clip-path="url(#clip_1)">
<path transform="matrix(1,0,0,-1,1445.7949,985.7666)" d="M0 0-8.84-49.382-171.981 234.779-.56 2.346C-.066 1.676 .138 .822 0 0M-218.691 156.07-210.861 279.124-75.604 36.579ZM-64.345 8.787-183.68-9.519-218.065 132.865ZM-409.427-345.683-407.403-127.512-320.446-300.942ZM-409.17-363.26-319.269-318.666-360.792-517.316ZM-365.519-545.501-411.539-640.285V-398.636ZM-189.819-311.296-182.226-354.152-284.893-313.243ZM-196.805-295.996H-300.215L-284.296-186.852ZM-207.23-25.369-238.601-57.035-134.017-295.673-177.772-295.99-372.743-53.388-373.731-43.76ZM-295.583-173.71-313.062-284.662-405.051-105.178-375.276-73.952ZM-213.429-354.643-312.218-350.794-305.137-318.077ZM-231.432 137.646-196.783-11.976-372.063-32.472ZM-379.531 288.335-227.952 288.705-234.031 164.375ZM-381.604-23.115-392.591 284.085-238.867 150.932ZM-395.578-16.765-480.42 112.25-408.083 255.443ZM-400.501-35.202-563.474-53.641-490.136 102.057ZM-502.398 108.688-571.072-37.557-591.271 193.999ZM-586.852-12.717-640.046 143.245-606.399 203.524ZM-736.266 167.889-815.567 119.289V157.237ZM-600.935 531.073-694.562 217.745-702.502 365.479ZM-713.381 346.431-707.32 185.923-814.4 171.701ZM-701.821 174.749-658.366 142.663-589.307-45.446-810.298 106.826ZM-598.689 592.44-749.011 695.546-774.722 829.812ZM-808.141 593.813-894.205 577.712-967.388 608.376-919.246 656.789ZM-897.809 482.926H-912.351L-964.574 592.804-899.848 567.014ZM-916.05 668.458V722.029L-789.779 692.268ZM-906.152 732.305-790.556 836.909-764.973 699.148ZM-764.362 683.423-790.474 597.255-900.944 659.871ZM-608.653-340.205-614.706-319.668-489.115-317.79-593.88-340.205ZM-558.099-346.857-422.572-319.983V-350.734ZM-136.399-311.272-167.187-349.029-174.697-311.272ZM72.615 5.861H72.617L-213.394 299.646C-216.078 302.403-219.82 303.984-223.66 303.984H-400.904C-404.156 303.984-407.351 303.411-410.398 302.278L-605.667 229.766C-608.829 228.591-611.489 226.326-613.151 223.401L-651.635 157.595-689.936 186.773-576.468 573.578C-575.927 575.386-575.989 577.356-576.647 579.134L-643.157 755.591C-643.798 757.324-644.944 758.785-646.465 759.812L-782.206 852.721C-784.161 854.042-786.703 854.241-788.859 853.229L-845.966 825.202C-848.042 824.229-849.907 822.773-851.361 820.995L-923.522 732.737C-925.819 729.928-927.083 726.379-927.083 722.746V669.176C-927.083 666.6-928.062 664.16-929.84 662.307L-981.763 608.184-888.836 403.896V568.848L-782.371 581.443-754.074 678.151-593.321 573.194-841.063 164.402-841.254 164.087V97.729L-578.958-66.866-578.57-67.109-390.535-48.199-381.085-63.406-418.123-97.116-418.55-97.504-420.467-306.522H-631.609L-764.971-405.017C-766.026-405.796-766.331-407.148-765.713-408.306-765.101-409.452-763.814-409.956-762.591-409.523L-613.624-357.592-422.572-361.769V-874.131L-314.214-365.609C-313.751-363.437-311.798-361.954-309.622-362.086L-174.817-370.041C-172.513-370.172-170.311-369.187-168.877-367.398L-120.606-307.207C-118.939-305.127-118.569-302.319-119.64-299.877L-223.572-62.863C-224.409-60.983-224.001-58.742-222.553-57.287L-191.518-26.075C-190.759-25.313-189.756-24.812-188.692-24.665L-56.507-6.522C-54.665-6.271-52.885-7.056-51.815-8.567L-8.576-69.672C-8.169-70.246-7.534-70.622-6.835-70.705-6.14-70.78-5.433-70.566-4.904-70.104L72.29-2.427C73.479-1.384 74.169 .062 74.232 1.646 74.295 3.23 73.721 4.727 72.615 5.861"/>
</g>
</g>
</svg>
