<svg xmlns="http://www.w3.org/2000/svg" xmlns:xlink="http://www.w3.org/1999/xlink" xmlns:inkscape="http://www.inkscape.org/namespaces/inkscape" version="1.1" width="2048" height="1920" viewBox="0 0 2048 1920">
<defs>
<clipPath id="clip_1">
<path transform="matrix(1,0,0,-1,0,1920)" d="M0 1920H2048V0H0Z"/>
</clipPath>
</defs>
<g inkscape:groupmode="layer" inkscape:label="Layer 1">
<g clip-path="url(#clip_1)">
<path transform="matrix(1,0,0,-1,1358.6978,811.86917)" d="M0 0C28.267 22.438 54.356 20.43 94.076-6.917 78.681-9.332 63.413-6.229 48.625-3.224 37.473-.958 26.073 1.359 14.485 1.359 9.688 1.359 4.857 .962 0 0M71.463-190.792C85.334-170.113 92.153-147.652 98.689-125.878 104.539-147.142 103.652-164.42 96.083-175.989 90.823-184.027 82.548-189 71.463-190.792M277.428-153.763C274.988-165.109 268.655-174.216 261.842-183.096 241.388-210.082 225.935-239.283 220.334-273.296 218.015-287.229 210.948-298.442 201.334-308.79 188.548-322.589 172.602-331.843 157.268-342.189 144.481-350.936 145.271-350.92 154.525-364.36 177.044-392.453 188.548-424.883 190.254-461.109 191.108-478.617 186.481-482.056 171.028-474.67 150.935-464.937 130.481-461.363 108.441-464.189 97.495-465.55 85.561-466.776 75.814-461.483 63.401-454.83 57.068-459.63 48.054-468.376 24.321-491.55-.026-514.843-34.599-521.123-40.572-522.23-42.279-526.67-44.466-531.109-50.679-543.923-58.586-555.883-66.386-567.71-83.426-593.47-104.239-614.79-132-628.83-146.853-636.23-161.346-640.91-177.893-635.363-193.853-630.07-209.679-634.004-227.453-636.844-219.292-644.856-211.133-647.684-203.466-651.39-196.893-654.71-190.08-657.55-184.72-662.844-180.693-666.79-176.56-670.977-177.652-677.27-178.866-684.657-185.319-684.417-190.679-684.91-222.093-687.737-252.04-696.483-281.986-705.856-291.973-708.937-302.319-710.79-312.667-711.643-316.693-712.017-321.56-710.537-324.599-716.204-313.893-748.871-315.586-784.23-307.56-818.124-303.413-835.377-310.36-840.057-326.786-833.523-342.133-827.604-354.187-817.137-365.026-805.057-374.52-794.457-384.253-783.857-397.773-778.564-412.013-773.017-426.867-769.324-441.72-761.19-443.426-773.75-444.76-784.723-446.346-795.564-449.387-816.03-454.747-835.75-465.586-853.484-469.959-860.644-473.493-871.11-483.36-870.497-494.56-869.75-498.213-858.671-501.733-849.55-507.947-834.137-506.36-817.871-505.146-801.737-504.787-797.417-501.733-792.484-506.613-787.803-510.387-782.75-511.36-780.164-512.573-779.55-500.64-766.737-491.146-751.697-482.747-736.043-480.066-731.243-478.48-725.443-471.307-719.897-478.854-743.937-486.64-764.764-489.08-787.07-491.879-811.964-487.986-839.443-478.36-853.244-472.4-832.417-467.04-812.324-460.826-792.363-454.387-772.03-460.586-750.337-456.08-727.177-438.68-750.337-430.76-758.723-410.066-765.137-378.413-774.871-353.453-794.217-330.2-816.644-326.426-820.217-323.626-826.137-314.133-824.657-334.212-784.11-322.292-737.403-345.413-694.03-316.2-702.03-292.466-692.177-268.226-686.256-246.8-680.963-225.253-676.15-203.106-675.043-198.959-674.803-194.333-675.657-189.946-669.75-211.866-656.31-234.146-643.256-250.453-622.43-238.893-624.39-227.933-624.643-216.973-624.27-202.853-623.657-188.973-623.657-174.973-627.844-163.533-631.297-151.839-628.83-141.012-623.417-118.973-612.443-101.199-596.79-88.786-575.097-80.746-561.177-73.08-547.123-63.946-533.816-60.413-528.763-57.012-522.976-56.159-517.056-54.692-507.203-49.706-505.109-41.053-505.843-20.732-507.696-4.292-499.563 10.681-486.003 27.481-470.723 45.748-457.163 56.708-434.617 75.214-455.443 97.001-458.403 120.375-452.736 139.614-448.176 156.895-450.51 172.361-463.323 172.975-463.816 174.548-462.963 175.895-462.71 178.455-457.043 175.641-451.87 174.308-446.563 167.375-419.083 165.915-399.605 152.773-371.52 146.51-359.265 139.241-353.403 132.188-346.749 144.602-337.883 155.921-329.496 167.495-321.362 186.361-308.296 200.361-291.176 206.935-268.989 217.655-232.389 231.402-197.509 257.095-168.549 259.535-165.843 260.988-162.269 262.575-158.816 263.789-155.855 266.708-152.536 262.575-149.322 259.042-150.069 257.588-152.896 255.762-155.362 234.814-185.429 208.148-200.843 170.534-192.456 156.295-189.376 141.068-189.376 127.561-197.629 116.241-204.416 104.068-208.109 90.908-208.976 76.308-209.843 63.761-215.749 52.321-224.629 49.281-226.962 46.961-231.403 41.122-230.296 54.91-214.658 65.108-202.683 82.028-195.669 101.628-187.536 109.788-172.376 109.788-151.789 109.788-131.456 103.214-111.869 107.841-89.442 97.974-93.749 97.735-100.775 96.028-106.069 91.641-119.629 88.361-133.549 84.214-147.229 75.935-175.336 58.443-187.097 34.589-207.189 30.936-186.603 33.814-178.775 29.428-160.789 27.854-154.136 32.721-152.402 37.708-150.936 57.681-145.016 71.561-131.216 82.761-114.456 87.868-106.683 92.375-98.549 97.001-90.429 106.735-73.536 120.614-62.203 139.614-57.642 142.895-56.775 147.161-57.389 147.521-52.215 147.042-51.722 146.668-51.109 146.308-51.109 144.481-50.869 142.655-50.496 140.828-50.736 116.241-54.069 94.081-48.775 71.921-36.563 35.761-16.722-1.252-19.562-37.039-39.775-41.545-42.362-45.199-46.669-53.599-47.789-42.639-25.229-26.079-14.389-5.146-9.215 13.854-4.522 32.601-6.255 51.348-10.815 63.881-13.896 76.308-17.842 89.455-16.229 99.561-15.122 109.788-13.149 113.801 1.384 97.614 .398 85.441 7.678 73.134 14.824 58.655 23.318 43.308 25.291 27.001 20.984 8.974 16.305-7.333 7.918-23.039-1.936-26.199-3.909-28.999-7.122-35.212-6.989-29.133 2.865-22.426 9.145-16.226 15.931-1.252 32.318 14.828 47.851 26.748 66.824 41.601 90.358 48.667 115.384 40.628 143.104 39.655 146.678 39.175 150.372 38.441 154.079 37.587 158.025 37.348 161.598 42.214 162.945 48.308 164.678 53.415 167.998 58.281 171.825 63.281 175.639 70.095 173.172 77.401 177.731 52.081 209.038 17.988 208.425-17.079 209.278-5.146 219.145 8.254 220.252 20.667 220.865 24.081 220.985 27.481 221.358 30.655 221.972 34.908 219.758 43.801 215.318 48.428 213.345 55.854 209.278 62.667 206.198 68.641 202.012 77.401 195.852 85.801 188.585 83.735 176.252 81.788 164.305 71.428 161.104 61.814 159.625 50.854 157.892 50.735 153.211 53.908 144.345 62.908 119.571 57.308 96.532 43.681 75.198 38.081 66.331 31.254 58.198 25.294 49.691 22.495 45.758 17.628 43.038 18.228 35.518 44.281 39.718 67.655 30.838 90.788 20.984 101.015 16.544 111.361 12.851 121.721 8.785 134.495 3.731 136.935-3.669 129.388-15.495 125.241-22.028 119.042-25.842 111.735-28.069 106.375-29.789 101.015-31.389 93.348-33.616 109.788-40.149 124.268-41.749 139.001-42.975 145.694-43.588 152.401-44.456 158.975-45.816 162.748-46.669 165.428-49.389 165.295-53.816 165.295-57.269 163.348-59.736 160.428-61.096 153.122-64.416 145.814-67.375 138.521-70.829 120.375-79.576 119.161-81.669 120.135-102.376 120.254-106.069 120.495-109.775 121.108-113.469 123.295-125.056 125.735-136.629 127.921-148.216 130.241-160.296 126.215-172.123 122.561-186.669 147.281-179.522 169.201-179.149 191.228-181.736 211.935-184.322 228.361-177.056 242.001-161.656 247.721-155.123 253.561-148.829 259.655-142.549 263.548-138.603 267.814-133.922 273.895-137.255 280.961-141.069 278.762-147.722 277.428-153.763M-578.08-801.754C-584.354-824.038-591.551-839.866-607.122-852.487-603.926-833.819-595.777-819.576-578.08-801.754M-704.093-793.614C-708.91-811.286-707.191-827.28-698.762-843.704-695.804-849.695-697.986-856.304-700.349-860.811-708.529-877.218-715.91-890.193-723.516-901.531-733.355-892.668-738.517-878.606-738.074-861.783-737.409-836.53-724.166-810.119-704.093-793.614M-729.54-768.174C-749.292-778.349-768.939-777.237-787.998-775.839-779.631-763.81-770.702-762.721-729.54-768.174M-825.827-964.524C-945.134-918.55-1026.827-801.737-1028.534-673.07-1030.108-555.883-958.894-429.189-871.107-393.203-866.24-397.27-866.974-403.309-866.121-408.617-861.254-439.549-854.067-469.856-844.574-499.563-844.574-499.563-844.454-500.056-844.201-501.043-844.081-501.163-844.081-501.403-843.96-501.537V-501.656C-843.84-501.896-843.721-502.27-843.6-502.643V-502.763C-843.227-503.87-842.748-505.23-842.254-506.83-842.014-507.323-841.894-507.816-841.654-508.31V-508.43C-839.574-514.47-836.654-522.483-834.227-528.27-844.454-528.15-854.68-530.496-865.027-535.056-876.841-540.109-888.641-545.523-900.454-550.83-915.067-557.483-930.161-562.416-946.601-561.296-949.267-561.177-952.801-559.576-955.121-566.109-938.201-571.776-924.921-583.603-911.16-594.577-879.267-620.337-844.454-623.417-807.32-608.003-803.787-606.523-800.627-602.457-796-605.296-811.827-644.363-814.134-661.124-806.227-680.097-804.521-679.483-802.454-679.23-801.347-678.004-793.441-669.256-785.894-660.256-777.974-651.63-768.721-641.643-766.414-630.923-770.307-617.497-776.147-597.776-770.801-586.323-753.267-573.87-753.014-574.483-752.534-575.097-752.653-575.589-752.894-577.443-753.014-579.296-753.747-580.897-759.96-596.417-761.174-612.07-755.334-628.097-753.507-633.27-752.414-639.31-753.267-644.604-755.213-657.79-753.387-670.737-751.561-683.55-748.76-704.99-740.974-724.457-720.76-735.684-716.867-737.897-714.067-741.217-711.387-744.55-705.787-751.697-706.76-755.39-715.521-757.617-728.187-760.817-741.094-760.324-753.867-758.35-774.694-755.27-791.254-765.137-808.907-773.883-805.134-778.684-800.867-779.55-796.721-780.657-771.281-787.564-746.813-783.617-722.827-774.377-715.16-771.417-707.733-766.737-698.48-770.803-700.547-778.07-706.147-781.27-710.04-785.83-721.36-799.017-731.96-812.577-738.534-828.964-746.32-848.804-747.667-868.897-741.094-889.11-737.92-898.71-733.667-908.457-723.32-914.004-713.213-900.564-706.88-886.271-698.72-873.324-690.2-859.777-686.907-847.324-695.68-831.804-703.587-817.63-702.374-802.351-690.56-787.31-682.653-812.457-676.2-836.857-652.707-853.484-652.707-845.484-653.187-840.431-652.707-835.617-650.88-818.124-655.987-803.83-670.24-793.23-673.76-790.643-677.787-787.43-676.2-780.537-661.707-785.337-647.96-784.604-634.081-780.657-631.28-779.923-627.626-779.67-625.067-780.777-608.027-787.803-592.56-782.51-577.227-775.363-574.667-774.124-571.986-772.15-568.693-776.47-592.68-805.55-617.28-834.884-623.48-878.257-606.8-861.617-591.227-848.923-579.653-830.07-572.96-843.017-577.467-858.671-565.653-869.511-564.92-865.817-564.44-863.47-563.947-861.124-563.467-859.03-562.854-856.817-562.373-854.724-557.626-860.644-544.467-866.804-539.36-869.257-530.467-873.577-521.707-877.884-512.947-882.577-506.854-885.777-499.187-887.137-494.92-893.537-568.826-971.791-701.04-1012.59-825.827-964.524M-830.694-195.536C-810.361-189.629-795.027-176.802-782.854-159.683-773.6-146.616-760.694-138.482-745.84-133.189-734.267-128.989-722.347-126.042-710.16-124.189-703.96-123.203-699.813-120.616-701.04-113.216-704.934-88.576-694.587-68.736-681.307-49.255-658.546-15.869-660.134 7.185-686.067 38.238-692.387 45.878-699.093 53.145-703.347 62.265-705.534 66.824-707.24 71.758-702.867 75.945-699.093 79.638-694.707 77.918-690.813 76.185-669.747 66.585-646.614 59.678-635.293 36.145-634.56 34.785-632.614 34.171-631.027 32.931-626.28 39.225-627.987 46.491-626.534 52.904-623.6 66.585-618.854 79.145-606.8 87.532-602.787 90.238-598.894 93.931-593.534 91.478-587.573 88.878-589.147 83.585-589.147 78.651-589.4 68.305-587.933 58.318-580.146 48.211-577.707 56.598-576 63.131-573.813 69.531-567.72 86.544-559.933 88.025-547.521 74.838-543.253 70.278-540.333 64.851-538.507 58.812-537.173 54.745-537.173 50.185-531.56 46.251-521.586 56.718-511.48 67.318-501.253 77.918-491.266 88.518-479.093 96.651-465.947 106.011-479.213 117.225-487.986 129.185-497.6 140.278-512.947 158.025-523.653 179.465-541.307 195.479-549.707 203.118-546.546 211.385-535.587 214.331-528.56 216.198-507.773 214.852-497.293 213.398-494.84 209.025-491.8 204.731-488.107 200.532-506.613 200.905-520.973 207.185-539.974 204.598-529.013 195.238-520 189.198-512.693 181.065-491.027 156.412-475.2 126.104-442.453 108.478-463.879 101.945-476.906 89.998-488.959 76.318-502.346 61.038-516.227 46.118-531.693 32.812-535.213 29.731-538.267 25.051-544.227 26.398-549.467 40.824-549.826 57.585-564.56 71.011-573.2 31.945-579.054-4.522-570.894-45.563-585.493-33.362-584.28-20.789-582.333-8.588-580.146 5.211-579.894 18.638-586.347 31.451-594.387 47.358-602.307 63.251-597.187 82.718-609.6 75.198-614.84 63.625-618.374 51.291-622.027 38.238-620.081 24.798-619.107 7.305-643.694 33.305-662.933 59.064-694.587 68.678-684.48 53.145-673.16 38.851-662.081 24.437-658.787 19.998-654.653 15.812-654.04 10.011-651.854-12.536-650.387-34.962-666.707-53.576-684.84-74.283-690.694-98.069-684.6-124.683-682.774-132.203-685.454-134.669-692.027-136.136-707-139.722-721.854-143.296-736.707-147.482-756.427-153.149-774.454-162.149-787.347-179.269-795.627-190.123-807.201-195.669-820.227-198.376-825.454-199.482-831.427-198.989-834.96-205.775-818.521-208.722-802.081-211.189-791.374-226.349-781.748-240.149-767.867-247.669-751.68-251.243-740.721-253.589-730.747-258.016-722.213-265.656-706.027-280.203-687.04-288.216-665.614-290.189-655.747-291.043-646.013-291.79-636.267-292.029-629.933-292.163-625.68-293.883-624.333-300.656-620.68-319.016-613.867-336.403-605.947-353.283-602.907-359.683-604.974-363.389-610.827-366.709-625.427-374.723-640.04-382.123-656.48-385.816-671.454-389.27-686.187-393.203-700.92-397.763-716.254-402.457-730.493-409.723-743.4-419.457-759.347-431.656-768.974-447.803-773.96-466.91-776.4-475.896-780.174-479.589-790.76-478.363-800.627-477.136-810.361-475.776-822.293-471.47-816.694-511.27-788.694-529.136-759.107-550.083-776.76-549.723-788.32-543.803-799.521-537.643-803.787-535.416-807.934-533.443-812.067-532.097L-823.627-507.083C-824.854-504.123-826.187-501.163-827.281-498.323-830.081-491.43-833-484.523-833.254-476.883-833.614-462.963-825.574-455.563-812.547-459.017-805.734-460.736-799.16-459.883-792.587-460.496-784.92-461.23-781.387-457.91-779.561-450.883-772.374-423.15-752.414-407.75-727.813-396.656-702.493-385.323-675.84-377.922-649.293-370.536-642.107-368.563-635.173-366.469-628.107-364.376-623.974-363.136-621.653-360.549-623.36-356.109-628.227-343.176-629.694-329.616-631.76-316.069-632.733-309.283-636.147-306.576-643.081-307.683-668.653-311.87-690.081-301.403-709.92-287.109-724.04-276.749-738.894-268.989-756.307-265.416-767.627-263.203-779.32-259.136-785.521-247.909-795.748-229.922-812.187-221.176-830.574-215.016-835.441-213.416-840.561-212.922-841.041-206.509-841.534-199.242-836.293-197.149-830.694-195.536M-155.925 379.057C-143.282 397.292-127.907 409.44-107.968 416.987-114.801 399.059-128.963 392.345-142.676 385.843-147.111 383.741-151.659 381.584-155.925 379.057M-518.787 649.359C-425.04 698.279-326.306 705.186-228.053 666.853-80.133 609.186-3.079 496.052 13.481 339.052L13.721 337.572 14.095 333.998 14.455 330.425 16.521 309.839C9.468 304.172 2.894 297.398-3.199 289.505-6.359 285.318-7.825 279.398-13.545 277.065-26.932 330.172-30.586 337.812-46.905 344.479-50.559 334.492-50.799 323.892-53.226 313.785-57.373 296.532-54.572 282.479-40.572 270.279-26.199 257.465-27.172 241.331-35.092 220.865-38.506 239.104-40.572 254.385-51.772 264.612-62.853 274.838-71.373 286.678-79.039 299.372-82.813 305.771-87.319 311.692-92.186 317.359-106.799 334.119-123.239 347.065-147.212 346.318-154.399 346.079-161.826 347.425-168.279 354.452-160 367.398-148.319 376.265-134.559 381.438-113.252 389.452-104.119 407.932-91.092 427.786-125.066 424.199-144.906 403.012-166.212 380.825-172.426 398.079-180.212 411.878-180.826 428.639-181.666 447.866-188.119 466.105-202.373 478.679-215.52 490.132-223.426 503.812-229.64 519.465-230.493 521.679-231.959 523.772-233.173 525.879-241.573 539.919-253.013 548.052-269.933 543.612-278.706 541.279-283.693 543.746-286.733 552.492-289.292 560.132-293.919 566.905-299.64 572.706-305 578.252-311.212 583.052-318.879 582.438-337.146 580.959-355.28 578.746-373.426 576.026-384.013 574.545-391.08 561.985-400.813 562.479-411.16 563.092-420.533 571.599-431.373 574.426-453.773 580.346-469.36 574.919-482.747 556.065-486.64 550.399-490.787 545.226-495.533 540.292-504.787 530.799-512.213 520.572-525.24 514.172-537.293 508.252-547.521 496.919-558.72 488.292-573.933 476.452-579.414 460.812-573.08 442.079-568.947 429.746-564.066 417.679-559.08 405.718-556.16 398.452-557.134 393.771-563.347 388.092-584.16 368.746-588.546 348.172-574.427 324.759-559.307 299.532-542.134 275.119-509.107 271.771-512.8 270.425-517.64 268.079-521.467 266.092-552.267 251.918-579.173 234.918-605.347 216.559-631.4 198.318-655.626 177.612-679.36 155.678-760.934 309.226-719.787 544.359-518.787 649.359M121.37 319.41C107.471 306.128 98.143 291.803 89.112 277.933 84.769 271.263 80.667 264.963 76.104 258.807 62.105 239.91 45.378 229.84 24.969 228.021 8.288 226.602-6.271 224.086-22.565 216.607-21.646 220.553-20.807 224.353-19.992 228.045-16.482 243.941-13.451 257.67-6.693 270.176 12.315 305.289 40.055 323.035 75.864 323.035 78.884 323.035 81.968 322.908 85.102 322.655 95.861 321.729 106.754 320.78 121.37 319.41M-23.879 266.759C-52.07 288.253-53.69 294.593-40.638 332.053-27.088 312.104-21.883 291.816-23.879 266.759M-552.04-765.721C-552.046-791.923-552.375-816.765-567.485-841.249-572.579-813.972-565.488-779.498-552.04-765.721M-677.848-798.743C-661.354-808.881-658.237-815.381-661.82-832.083-672.095-822.246-675.533-815.099-677.848-798.743M-612.774-17.842C-637.974-2.682-652.213 22.211-668.16 45.758-644.427 29.238-627.134 6.931-612.774-17.842M-607.5 58.337C-588.489 28.838-585.403 13.25-591.732-21.352-612.965 .151-619.213 31.729-607.5 58.337M28.503 155.679C44.253 125.89 36.621 83.877 11.259 60.426 5.863 94.593 3.507 127.55 28.503 155.679M-39.274-105.946C-40.858-99.562-41.701-93.325-42.518-87.282-43.626-79.086-44.672-71.344-47.422-63.826-49.52-58.208-46.509-54.717-41.337-51.198-21.348-37.385-.833-30.468 20.013-30.468 34.367-30.468 48.879-33.75 63.477-40.317 69.996-43.201 76.089-46.736 82.541-50.479 86.816-52.961 91.218-55.515 95.834-57.914 42.193-74.789 .383-89.653-39.274-105.946M-569.357-750.523C-574.119-763.524-583.561-772.706-595.426-775.808-607.661-779.006-621.003-775.371-632.282-765.831-626.303-764.077-620.488-762.055-614.849-760.094-599.564-754.778-585.106-749.75-569.357-750.523M-741.845-542.655C-773.105-538.028-804.389-511.961-810.779-484.552-807.36-483.426-803.887-483.566-800.224-483.713-798.716-483.774-797.156-483.837-795.604-483.803-790.304-483.683-786.452-486.037-784.759-490.432-780.89-500.384-776.097-511.806-768.158-521.4L-768.153-521.406C-761.822-528.945-754.03-535.267-741.845-542.655M-768.315-480.106C-767.506-446.798-740.92-417.35-702.93-407.615-716.893-438.111-731.74-469.183-768.315-480.106M-84.924-17.207C-86.725-16.431-88.538-15.648-90.365-14.84-87.556-12.377-84.699-10.146-81.925-7.98-77.052-4.175-72.45-.582-68.438 3.934-64.894 7.925-62.434 12.563-59.83 17.474-57.854 21.2-55.816 25.041-53.198 28.766-44.715 13.564-50.022 1.448-55.632-11.359-58.089-16.968-60.624-22.754-61.951-28.863-69.449-23.878-76.978-20.633-84.924-17.207M-55.088-109.428C-73.891-114.826-89.265-126.501-104.134-137.792-105.71-138.99-107.287-140.187-108.871-141.38-109.798-142.085-110.704-142.855-111.579-143.601-114.448-146.044-117.159-148.352-120.765-148.699-127.343-149.267-131.287-148.363-131.978-142.071-137.267-91.922-174.141-71.379-211.399-54.665-211.617-54.55-211.855-54.456-212.102-54.362-212.388-54.253-212.657-54.15-212.849-54.005L-213.045-53.889C-214.666-53.166-216.521-52.792-218.316-52.43-222.63-51.561-226.355-50.81-227.189-45.875-228.556-38.446-225.717-31.586-218.748-25.482-203.81-12.181-185.16-9.731-170.547-9.1-160.088-11.271-149.537-13.413-139.332-15.484-120.118-19.384-100.25-23.417-80.841-27.686-73.556-29.296-68.689-35.029-65.88-39.57-54.763-56.848-49.359-76.908-49.359-100.896-49.359-105.162-50.317-108.077-55.088-109.428M23.586-243.376 23.585-243.381C20.447-257.175 12.556-268.456 .137-276.906-9.487-283.365-20.93-288.239-34.841-291.806-44.325-294.176-53.688-296.098-63.602-298.131-73.851-300.234-84.431-302.405-95.155-305.12-84.513-277.995-81.328-250.224-79.628-226.536-79.176-219.769-79.1-212.649-79.386-204.141-79.906-180.392-89.408-163.545-108.421-152.685-83.594-129.113-52.416-106.998-9.3-118.621 4.023-122.229 12.925-130.511 17.157-143.231 28.815-179.02 30.918-211.777 23.586-243.376M99.33-345.136C88.461-344.901 76.144-344.634 64.599-349.655 58.33-352.303 53.925-351.214 51.511-346.427 47.388-338.071 41.073-331.401 34.387-324.341 33.231-323.12 32.058-321.881 30.875-320.612 69.318-312.255 104.561-297.298 138.551-274.92 166.64-256.427 194.077-232.615 222.274-202.246 216.916-214.226 213.299-226.848 209.784-239.113 205.321-254.69 200.705-270.797 192.559-285.256 186.708-295.573 180.26-303.333 172.854-308.977 160.479-318.278 147.782-327.26 135.507-335.944 125.95-342.649 114.456-345.572 99.336-345.136ZM77.597-355.871C77.654-355.291 77.727-354.711 77.798-354.132 77.849-353.729 77.898-353.325 77.944-352.921 82.234-352.907 86.581-352.801 90.794-352.697 101.123-352.444 111.803-352.182 122.09-353.29 133.036-354.511 141.609-362.31 147.575-376.476 154.071-391.659 157.766-407.952 161.677-425.201 163.001-431.038 164.364-437.049 165.881-443.235 147.845-430.324 134.03-414.104 120.654-398.398 107.087-382.47 94.264-367.415 77.597-355.871M58.572-361.755C59.376-361.04 60.577-360.684 62.238-360.684 63.601-360.684 65.274-360.923 67.293-361.4 72.674-362.733 78.039-365.72 82.809-370.037 95.303-381.36 106.315-394.584 116.965-407.374 126.707-419.072 136.764-431.149 148.134-442.054 139.213-442.388 130.748-443.748 122.54-445.067 116.35-446.062 110.504-447.001 104.462-447.54 95.748-448.294 87.423-447.114 79.716-444.033 71.118-440.627 60.868-433.427 60.868-418.462 60.749-402.468 59.069-386.493 57.208-370.168 56.694-365.713 57.127-363.04 58.572-361.755M-208.138-412.116C-214.446-401.22-220.96-389.967-229.463-379.375-208.564-374.05-189.427-367.801-169.361-359.752-165.585-358.174-161.846-358.437-157.408-359.314-123.387-366.583-89.662-360.056-54.301-339.355-40.709-331.269-27.777-322.622-15.875-313.663-9.369-308.9-4.03-308.508 3.167-312.264 35.984-329.312 50.572-350.322 50.468-380.389 50.468-384.204 51.019-388.347 52.196-393.41 57.636-419.09 50.329-440.71 29.86-459.505 23.205-465.582 16.328-471.655 9.676-477.528 6.296-480.513 2.916-483.498-.451-486.496-10.608-495.541-22.324-499.768-35.278-499.058L-40.953-498.754C-63.699-497.546-87.219-496.297-109.994-491.187H-109.996C-143.828-483.668-170.438-466.498-191.345-438.698-197.584-430.349-202.711-421.493-208.138-412.116M-316.28-559.127C-319.721-552.282-321.677-546.916-315.46-540.157-282.613-504.134-276.673-458.683-275.147-414.936-275.065-412.831-275.202-410.718-275.335-408.674-275.401-407.655-275.467-406.636-275.506-405.639-275.871-384.922-273.168-382.244-251.404-381.763L-251.162-381.728C-243.566-379.646-236.72-382.791-230.815-391.075-224.328-400.198-219.812-407.418-216.167-414.492-202.193-441.285-184.296-462.315-162.973-476.998-141.212-491.982-115.212-500.82-85.67-503.268-82.076-503.476-78.69-504.087-75.106-504.733-74.41-504.859-73.712-504.985-73.002-505.11-66.259-506.224-62.774-507.768-61.703-510.115-60.695-512.323-61.64-515.654-64.676-520.598-69.235-527.977-73.554-535.709-77.73-543.187-87.178-560.104-96.948-577.598-110.217-592.301-119.618-602.578-131.932-610.921-147.857-617.802-160.147-623.017-169.773-623.476-179.077-619.288-185.19-616.603-191.472-615.818-197.753-615.818-202.229-615.818-206.706-616.217-211.118-616.609-212.125-616.699-213.131-616.789-214.134-616.874-255.743-620.269-297.745-596.526-316.277-559.132ZM-403.197-633.586C-393.886-646.934-385.092-659.541-373.871-670.586-349.528-694.306-336.485-724.526-333.998-762.973-333.924-764.147-333.854-765.322-333.784-766.499-333.189-776.504-332.575-786.834-329.528-797.891-333.7-796.922-334.969-794.097-336.2-791.355-336.375-790.965-336.547-790.582-336.719-790.223-352.225-756.758-369.855-723.801-389.12-692.269-399.395-675.311-405.216-654.708-407.344-627.658-405.949-629.642-404.57-631.619-403.197-633.586M-394.349-627.602C-401.979-615.279-405.998-604.736-404.225-590.141-393.552-600.94-392.292-612.308-394.349-627.602M-338.542-595.832C-344.675-596.259-351.017-596.7-357.236-596.776-369.267-596.891-372.278-595.373-383.072-586.061-380.534-584.817-378.025-583.614-375.547-582.425-368.432-579.012-361.71-575.788-355.15-572.035-349.061-568.616-343.252-564.699-337.104-560.552-334.384-558.718-331.58-556.827-328.658-554.916-326.07-558.832-323.559-562.859-321.125-566.762-314.972-576.629-308.625-586.807-300.571-595.971-313.593-594.097-326.262-594.978-338.542-595.832M-446.325-634.158V-634.151C-446.858-629.119-444.974-626.054-439.83-623.576-436.357-621.952-433.241-619.898-429.942-617.724-428.962-617.078-427.96-616.417-426.939-615.763-427.623-636.278-434.223-652.994-448.125-669.366-447.891-666.826-447.628-664.328-447.373-661.889-446.371-652.332-445.424-643.305-446.325-634.158M-499.348-621.386C-498.418-620.993-497.457-620.586-496.591-620.065-493.498-618.136-490.146-616.415-486.905-614.75-480.875-611.653-474.641-608.45-469.874-603.798-456.989-591.193-442.537-590.435-423.525-593.524-431.387-617.86-471.956-630.312-504.59-626.471-504.228-623.449-501.951-622.486-499.348-621.386M-556.596-748.138C-555.464-742.269-554.396-736.725-556.308-730.918-558.814-723.638-560.579-715.622-556.755-706.251-551.396-709.159-547.554-713.804-543.832-718.304-539.194-723.91-534.408-729.697-526.669-732.274-535.347-743.256-545.536-750.317-557.98-757.218-557.734-754.045-557.157-751.05-556.596-748.138M-655.4-750.361C-659.411-745.218-659.974-737.491-656.985-728.603L-656.983-728.595C-655.659-724.55-653.197-723.737-649.664-723.737-642.068-723.815-634.456-723.791-626.397-723.765-622.518-723.752-618.526-723.739-614.368-723.737-614.941-729.019-615.513-734.193-616.07-739.236-616.364-741.295-615.556-743.156-614.774-744.955-613.66-747.521-613.052-749.183-614.535-750.961-617.101-754.249-621.092-754.807-625.317-755.399-626.587-755.577-627.902-755.761-629.215-756.037-631.411-756.617-633.866-756.738-636.241-756.854L-636.345-756.859C-644.845-757.526-651.611-755.219-655.4-750.361M-673.909-751.332C-670.569-750.986-668.31-751.438-667.886-752.03-663.927-757.696-658.163-761.178-652.588-764.546-648.398-767.078-644.079-769.687-640.481-773.235-653.653-778.088-665.521-778.098-675.776-773.261-686.571-768.17-695.194-757.601-700.873-742.564-692.911-749.637-684.053-752.509-673.909-751.332M-745.919-659.569C-741.86-660.88-740.811-663.406-740.364-665.523-738.302-674.945-734.628-685.324-723.051-690.849-720.382-692.247-717.568-696.12-717.37-698.679-716.472-708.657-712.039-717.231-708.125-724.801-707.397-726.192-706.724-728.12-707.659-729.407-708.522-730.594-710.632-731.063-713.14-730.636-720.358-729.209-726.535-724.865-731.5-717.726-742.689-701.65-747.665-681.564-745.919-659.569M-746.301-626.394C-745.198-624.517-743.24-623.218-740.48-622.534L-740.471-622.532C-735.531-621.26-730.403-620.284-725.444-619.339-722.753-618.827-719.971-618.297-717.273-617.73-716.517-617.581-715.82-617.507-715.184-617.507-713.899-617.507-712.862-617.811-712.088-618.417-710.868-619.371-710.188-621.15-710.066-623.693-709.591-636.762-704.865-648.202-699.862-660.314L-699.523-661.135C-697.715-665.468-697.427-668.94-698.643-671.748-700.109-675.137-703.805-677.844-710.266-680.265-715.198-682.083-720.032-681.989-723.53-680.009-726.416-678.375-728.318-675.529-729.033-671.765-731.155-661.288-736.231-653.766-741.402-647.198-743.992-643.91-745.286-639.374-746.538-634.988L-746.822-633.994C-747.638-630.991-747.458-628.362-746.301-626.394M-731.32-559.478V-559.479C-728.635-557.241-725.937-554.905-723.327-552.645-711.225-542.167-698.711-531.331-682.579-526.019-660.453-518.687-642.761-519.326-623.917-528.235-626.322-529.043-628.552-529.777-630.648-530.468-636.219-532.302-641.03-533.886-645.655-535.729-677.472-548.608-697.096-568.244-705.647-595.754-708.591-605.039-714.114-609.589-724.697-611.457-726.035-611.678-727.385-611.881-728.741-612.084-733.42-612.786-738.258-613.512-742.855-615.065-746.113-616.121-748.474-616.141-749.873-615.124-751.889-613.658-752.147-609.829-752.147-606.657-752.147-587.544-744.75-570.789-731.32-559.478M-570.947-209.181C-559.917-205.657-558.775-205.655-554.538-216.962-549.103-231.687-538.35-242.952-521.658-251.405-508.99-257.692-495.864-263.456-483.15-269.038-470.864-274.447-464.169-282.552-461.444-295.32-457.561-313.27-450.661-332.708-428.87-340.798-427.558-341.206-425.84-342.377-425.35-343.559-419.313-358.121-407.826-367.295-395.663-377.007-394.453-377.974-393.238-378.943-392.023-379.923-405.816-391.641-421.679-393.904-435.431-394.55-458.459-395.575-475.185-400.649-489.672-411.01-495.231-415.09-502.239-416.437-509.948-414.9-513.02-414.321-516.091-413.747-519.161-413.174-531.556-410.858-544.374-408.464-556.797-405.787-561.691-404.705-568.518-402.055-573.246-395.573-594.158-366.928-618.348-327.811-619.801-279.186-620.74-248.044-600.194-218.604-570.947-209.181M-592.245-210.986C-592.993-211.435-593.7-211.858-594.369-212.358-615.711-228.159-626.824-248.407-627.399-272.531-627.761-283.845-629.751-284.749-640.774-284.749-667.539-284.749-698.22-281.388-722.842-256.467-729.874-249.211-739.199-246.766-748.231-245.204-762.883-242.692-775.214-235.471-784.877-223.746-790.269-217.103-796.904-211.348-806.237-205.244-728.331-174.78-651.456-187.765-586.325-204.733-587.76-208.296-590.037-209.662-592.245-210.986M-613.656-141.984C-607.489-144.693-601.194-147.402-595.107-150.021-586.772-153.607-578.153-157.316-569.694-161.098-569.038-161.373-568.363-161.636-567.684-161.901-563.265-163.621-559.092-165.246-558.624-170.713-558.491-172.577-558.271-174.507-558.059-176.374-557.287-183.154-556.489-190.165-559.605-195.818-562.462-201.256-570.048-201.596-576.303-199.519-603.993-190.475-632.701-186.043-657.431-182.599-675.167-180.047-692.021-178.769-708.138-178.769-733.829-178.769-757.635-182.021-780.071-188.547-780.904-188.781-781.789-188.858-783.127-188.976-783.824-189.038-784.622-189.107-785.572-189.214-772.176-169.367-754.334-161.343-740.164-156.564-715.334-148.267-690.136-142.645-659.946-136.758-644.027-133.708-628.454-135.467-613.656-141.984M-561.421-105.961V-105.969C-562.503-116.725-562.226-127.458-561.933-138.822-561.811-143.583-561.684-148.497-561.668-153.389-569.003-153.373-574.613-150.677-579.741-144.745-588.168-134.727-596.088-124.724-600.388-112.53-607.353-92.285-617.088-73.874-629.562-52.46-634.917-43.23-640.951-32.83-643.546-18.239-636.935-22.687-630.322-26.803-623.908-30.793-605.828-42.043-588.75-52.669-575.185-68.521-565.686-79.561-559.71-90.152-561.421-105.961M-490.38-.94C-457.643-7.871-428.353-1.447-400.813 18.714-394.485 23.303-387.941 28.049-381.254 32.485-375.444 36.539-370.256 38.678-364.928 39.216-357.878 39.912-351.841 40.063-349.369 34.848-347.515 30.961-349.961 29.073-354.211 26.427-355.461 25.649-356.753 24.844-357.782 23.935-368.287 14.304-378.137 8.466-388.774 5.565-399.539 2.732-406.684-3.556-409.441-12.635-410.431-16.115-411.692-18.127-413.297-18.789-415.015-19.496-417.359-18.861-421.396-16.593-430.653-11.483-440.383-12.284-450.324-18.977-463.617-28.067-479.092-34.328-499.029-38.679-521.646-43.679-537.495-52.745-550.133-67.971-553.128-56.99-551.504-49.48-550.064-42.819-549.271-39.257-548.343-35.636-547.444-32.134-545.449-24.358-543.386-16.317-542.619-8.201-541.535 2.071-539.343 4.069-533.864 4.069-532.403 4.069-530.707 3.927-528.737 3.762-528.108 3.709-527.454 3.654-526.774 3.601L-526.569 3.584C-514.64 2.618-502.305 1.619-490.38-.94M-524.863 16.729C-523.96 16.946-523.108 17.152-522.316 17.466-514.581 20.483-506.788 23.718-499.252 26.846-475.761 36.596-451.471 46.679-425.836 51.427-409.033 54.436-389.218 56.411-368.842 48.707-382.338 43.18-393.915 34.82-405.132 26.72-407.534 24.986-409.933 23.253-412.345 21.552-434.829 5.872-457.832 .686-482.664 5.697-496.677 8.593-511.538 11.376-526.747 11.376-528.118 11.376-529.494 11.354-530.871 11.307-530.434 15.388-527.836 16.013-524.863 16.729M-367.715 58.787C-414.05 68.722-455.303 52.57-491.75 38.303L-493.591 37.584C-503.354 33.772-513.416 29.843-524.078 27.144-513.81 36.842-504.578 47.475-495.624 57.787-487.874 66.713-479.86 75.942-471.336 84.354-459.935 95.634-447.465 101.15-432.943 101.15-427.276 101.15-421.296 100.31-414.948 98.645-394.019 93.031-374.667 85.73-367.715 58.787M-354.817 85.466C-369.819 93.646-386.062 98.398-401.814 103.006-413.865 106.532-426.327 110.177-438.028 115.315-449.171 120.153-458.966 127.359-467.133 136.728-476.487 147.686-485.52 158.793-495.084 170.553-499.381 175.837-503.764 181.226-508.294 186.747-507.147 186.778-506.251 186.832-505.528 186.875-504.46 186.938-503.688 186.984-503.501 186.877-473.782 167.758-442.31 150.529-411.875 133.867-407.292 131.357-402.71 128.849-398.134 126.335L-398.129 126.332C-382.755 118.004-368.916 104.963-354.817 85.466M-413.662 197.947V197.948C-397.432 200.798-375.593 199.65-363.702 177.996-357.583 166.888-353.751 154.832-352.618 143.096-352.384 141.304-352.266 139.481-352.266 137.678-352.266 123.405-351.35 108.031-344.864 92.058-349.677 93.234-352.094 96.17-354.441 99.02-355.134 99.862-355.789 100.658-356.511 101.416-378.231 123.672-400.197 139.505-423.661 149.819-445.445 159.475-464.509 172.89-486.738 189.373-465.953 187.853-445.921 191.741-426.517 195.508-422.308 196.326-417.955 197.17-413.662 197.947M-478.149 276.821C-453.459 282.159-433.298 295.212-415.2 308.647-409.626 299.685-407.386 290.642-405.217 281.888-404.806 280.228-404.396 278.576-403.969 276.938L-403.472 274.979C-399.57 259.589-395.536 243.675-386.672 229.806-382.527 223.563-384.655 220.216-390.35 215.866-402.025 206.712-416.557 203.433-434.78 205.843-440.659 206.591-446.785 207.27-453.122 207.27-457.326 207.27-461.625 206.971-466.003 206.196-479.121 203.836-485.672 207.097-491.971 219.121-496.021 226.742-498.729 235.541-500.021 245.274-502.891 268.166-500.232 271.999-478.149 276.821M-417.493 321.306C-429.307 306.519-443.667 295.665-462.787 291.238-449.506 303.678-430.4 307.625-417.493 321.306M-549.599 382.132-549.598 382.13C-538.546 369.815-523.454 368.523-508.858 367.274L-508.638 367.255C-496.2 366.277-486.691 363.27-480.723 351.796-477.232 344.723-471.329 339.732-464.926 338.444-458.271 337.136-452.926 333.581-447.268 329.817-442.874 326.895-438.342 323.881-432.985 321.817-438.758 314.428-445.235 311.464-451.507 308.595L-452.986 307.917C-462.625 303.372-470.488 297.778-477.025 290.812-488.238 278.747-517.026 275.673-530.136 285.143-549.827 299.302-563.175 315.127-570.949 333.529-578.513 351.015-574.56 369.767-560.882 381.295-558.263 383.468-556.208 384.774-554.253 384.774-552.714 384.774-551.238 383.964-549.599 382.132M-515.74 424.747C-513.24 412.405-509.015 400.97-502.136 388-530.373 400.007-550.36 418.38-564.89 445.627-570.99 457.134-568.728 468.697-558.515 478.191-553.141 483.25-547.075 487.734-541.209 492.071-533.944 497.442-526.432 502.997-519.999 509.787-518.159 511.779-515.544 512.768-512.078 512.768-510.571 512.768-508.902 512.581-507.066 512.208-496.92 510-488.616 505.489-481.724 498.436-505.561 486.101-521.386 452.075-515.74 424.747M-403.954 545.685C-403.971 545.177-403.988 544.666-404 544.152-404.138 540.731-404.839 538.615-406.142 537.681-407.319 536.836-409.147 536.796-411.729 537.558-434.723 544.363-453.681 536.618-469.682 513.885-472.648 509.706-474.863 507.81-477.089 507.545-479.068 507.31-481.275 508.321-484.045 510.734-486.427 512.76-489.301 514.287-492.041 515.678-495.015 517.185-496.783 519.033-497.297 521.171-497.865 523.535-496.959 526.369-494.61 529.589-485.607 541.719-477.999 551.375-470.667 559.975-464.11 567.636-454.517 569.215-446.986 569.733-432.375 569.351-419.691 563.233-408.952 557.531-403.646 554.691-403.789 550.518-403.954 545.685M-360.026 525.012C-371.106 522.545-379.266 525.506-390.227 530.679-377.92 532.532-369.399 531.413-360.026 525.012M-290.908 538.595C-298.096 533.227-303.368 526.037-308.467 519.082-312.634 513.398-316.575 508.023-321.477 503.55-321.786 503.613-322.062 503.663-322.307 503.708-322.6 503.761-322.925 503.82-323.097 503.87-335.868 526.376-356.566 537.797-388.214 539.81-392.477 540.089-395.278 541.265-396.317 543.209-397.339 545.123-396.782 548.03-394.702 551.628-388.139 563.278-377.186 569.783-362.154 570.961-359.937 571.121-357.72 571.258-355.503 571.395-347.474 571.889-339.171 572.401-330.968 574.06-322.687 575.792-313.387 573.472-305.453 567.694-296.947 561.5-291.278 552.229-290.29 542.929-290.138 540.738-290.481 539.024-290.908 538.595M-230.733 501.334C-231.12 500.623-231.909 500.174-233.079 500.001L-233.09 500C-240.768 498.774-240.632 493.132-240.512 488.154L-240.505 487.883C-240.39 484.633-240.32 481.313-240.253 478.103-240.104 470.956-239.949 463.565-239.273 456.38-238.363 448.311-240.984 443.112-248.042 438.993-252.653 436.268-257.202 433.331-261.602 430.49-264.772 428.443-268.05 426.326-271.286 424.331-271.6 424.149-272.389 424.21-273.152 424.269-273.386 424.287-273.627 424.306-273.873 424.32-275.341 430.992-276.178 438.073-276.989 444.929-279.658 467.514-282.417 490.859-307.693 504.73-298.853 522.647-287.499 532.708-272.017 536.36-257.292 539.932-249.289 537.009-241.429 525.187-237.791 519.783-234.959 513.783-232.22 507.98L-231.163 505.744C-230.356 503.971-230.195 502.322-230.733 501.334M-190.845 382.732C-197.026 403.165-205.867 415.53-220.007 423.719-226.957 427.715-229.267 434.708-229.984 439.879-232.354 455.794-232.186 471.646-231.95 488.388-218.503 485.13-207.156 476.385-199.079 463.031-186.47 442.183-183.461 412.393-190.845 382.732M-195.721 333.395C-197.41 331.93-200.233 330.868-201.212 331.33-206.21 333.688-211.347 334.189-216.685 334.189-218.623 334.189-220.587 334.123-222.581 334.056-226.928 333.91-231.406 333.76-236.094 334.268-225.571 346.558-214.044 353.271-201.813 354.227-189.788 355.166-177.444 350.524-165.07 340.42-177.437 342.778-187.252 340.509-195.721 333.395M-139.75 288.636C-147.8 297.618-157.715 306.196-171.203 306.196-173.321 306.196-175.53 305.984-177.831 305.529-186.135 304.024-189.884 308.119-193.55 315.696-195.775 320.347-195.255 323.362-191.812 325.78L-191.72 325.848C-185.438 330.534-178.317 335.845-171.256 331.302-167.532 328.931-163.512 326.847-159.624 324.831-148.89 319.266-137.794 313.512-131.772 301.087-133.777 296.805-135.948 292.627-139.75 288.636M-98.007 301.402C-100.206 303.667-102.48 306.01-105.409 307.308-108.895 308.907-112.686 309.008-116.353 309.106-121.226 309.236-125.83 309.359-129.62 312.805-130.793 313.872-131.95 314.955-133.106 316.037-138.983 321.539-145.061 327.228-153.171 330.486-154.494 331.021-155.204 331.724-155.279 332.575-155.399 333.917-154.018 335.777-151.955 337.078-144.633 341.28-136.817 340.853-126.613 335.694-106.068 325.235-92.675 311.974-84.585 294.047-90.993 294.179-94.555 297.847-98.007 301.402M-74.155 257.311C-77.934 253.568-81.959 250.021-86.621 245.913-88.553 244.21-90.579 242.424-92.72 240.507-102.595 255.413-114.75 264.343-125.39 271.127-129.395 273.625-131.631 276.367-132.226 279.51-132.934 283.254-131.324 287.702-127.299 293.115-123.974 297.659-119.95 300.345-115.967 300.677-115.691 300.7-115.416 300.712-115.14 300.712-112.266 300.712-109.468 299.458-106.999 297.051-99.057 289.414-91.752 285.041-83.308 282.869-80.647 282.203-78.244 280.258-75.918 278.377L-75.765 278.253C-70.432 274.048-68.076 271.014-67.887 268.108-67.7 265.232-69.575 262.003-74.155 257.311M-46.127 197.944C-47.594 194.285-48.758 190.496-49.884 186.832-51.238 182.426-52.517 178.264-54.271 174.329-65.596 149.153-82.238 122.928-119.749 118.244-118.111 120.319-116.555 122.276-115.065 124.147-110.347 130.078-106.273 135.199-102.452 140.55L-102.446 140.559C-84.846 165.744-79.349 192.677-86.106 220.602-88.133 229.169-86.383 235.067-80.053 240.971-77.805 243.13-75.57 245.288-73.34 247.441-68.872 251.755-64.259 256.208-59.667 260.542-44.349 246.286-38.139 217.877-46.127 197.944M-493.331-661.759C-496.986-677.532-500.767-693.842-509.416-708.3-514.051-715.971-518.641-719.931-523.447-720.406-528.516-720.905-534.278-717.541-541.06-710.118-543.937-706.951-546.626-703.607-549.226-700.373L-549.294-700.288C-550.83-698.422-551.462-696.76-551.174-695.347-550.881-693.913-549.618-692.607-547.418-691.464L-547.396-691.452C-544.8-690.018-542.014-688.54-539.201-687.427-526.004-681.684-516.986-671.373-511.623-655.889-511.327-654.989-511.009-654.1-510.692-653.216-509.975-651.214-509.234-649.144-508.791-647.013-507.54-640.28-505.621-636.299-499.829-636.299-499.418-636.299-498.988-636.319-498.537-636.359-491.937-636.914-491.563-641.238-491.045-647.223-490.947-648.353-490.846-649.519-490.696-650.703-491.607-654.326-492.483-658.104-493.331-661.759M-573.728-699.788C-577.443-702.943-582.67-705.585-589.711-707.867-608.761-714.102-629.361-716.611-650.938-715.325-675.902-713.778-685.81-703.612-687.496-677.814-688.236-667.109-690.303-659.299-694.199-652.493-712.396-620.72-698.108-582.69-675.427-563.041-658.435-548.368-637.967-539.253-612.852-535.177-611.477-534.951-610.127-534.852-608.793-534.852-603.71-534.852-598.869-536.306-593.806-537.827-589.023-539.264-584.077-540.75-578.937-540.856-565-541.084-554.47-547.114-544.79-560.412-541.327-565.085-537.402-569.507-533.606-573.784-527.768-580.363-521.73-587.165-517.335-594.952-510.807-606.399-511.012-608.375-519.78-618.439-524.124-623.417-528.699-628.094-533.996-633.51-535.336-634.88-536.713-636.288-538.131-637.746L-539.188-638.834-537.771-639.377C-533.303-641.089-529.481-640.613-526.11-640.194-522.59-639.756-519.526-639.375-516.235-641.387-518.829-655.677-523.88-671.224-540.882-679.313-554.119-685.592-564.555-692.097-573.723-699.784ZM-708.747-689.663C-707.212-687.618-703.139-686.314-695.846-684.118-694.301-701.344-685.608-713.314-669.3-720.69-662.822-723.569-664.097-729.663-665.329-735.555-665.473-736.246-665.616-736.926-665.744-737.594-666.626-742.347-669.884-742.729-675.146-742.792-675.631-742.798-676.113-742.805-676.61-742.818-688.295-743.4-691.804-741.943-696.074-729.914-697.507-725.979-699.52-722.364-701.467-718.869-704.297-713.787-706.97-708.987-708.085-703.201L-708.365-701.729C-709.64-695.056-710.28-691.706-708.747-689.663M-546.445-432.176C-548.094-434.752-549.798-437.417-550.665-440.249-551.482-442.974-552.414-445.757-553.314-448.448-555.111-453.814-556.969-459.364-558.111-464.963-559.556-471.583-562.683-474.31-569.644-475.021-599.916-477.991-631.198-481.058-663.369-480.261-656.679-472.167-651.884-463.19-647.237-454.491-644.763-449.858-642.204-445.067-639.431-440.571-622.144-412.78-593.548-402.429-562.938-412.882-560.623-413.677-557.96-414.016-555.386-414.344-549.777-415.059-544.479-415.733-542.743-420.777-541.461-424.385-543.882-428.169-546.445-432.176M-219.353 412.779C-208.706 405.716-198.304 395.743-201.108 375.309-214.516 388.832-228.381 398.76-244.519 406.401-239.312 414.832-236.607 419.084-233.632 419.737-230.783 420.362-226.866 417.764-219.755 413.046ZM-60.78 66.834C-60.579 62.145-60.37 57.295-60.439 52.55-60.941 25.942-72.158 6.157-93.776-6.254-107.636-14.187-120.968-15.25-133.401-9.417-145.604-3.699-157.996-.852-170.852-.852-178.007-.852-185.31-1.734-192.798-3.495-177.052 15.035-85.123 86.778-58.806 100.894-61.741 89.242-61.253 77.861-60.78 66.834M-514.848-551.924C-536.006-550.966-546.42-541.807-550.794-520.31-557.354-488.189-552.312-457.033-535.807-427.705-533.124-422.915-530-420.731-525.524-420.731-524.344-420.731-523.069-420.883-521.685-421.179-470.366-432.637-417.512-425.358-360.104-398.926-346.495-392.707-336.069-390.189-325.238-390.51-316.4-390.733-307.69-388.785-299.268-386.9-293.819-385.681-288.196-384.423-282.514-383.737L-282.548-388.354C-282.747-417.15-282.935-444.351-289.294-471.605-304.883-539.346-363.953-584.701-436.442-584.698-436.735-584.698-437.035-584.698-437.328-584.696H-437.333C-445.519-584.696-451.857-582.258-456.707-577.242-472.166-561.236-491.184-552.955-514.848-551.924M-550.041-201.177C-550.546-188.107-550.415-174.812-550.289-161.956-550.247-157.691-550.204-153.321-550.185-148.96-539.466-172.808-529.692-190.905-518.763-207.187-513.583-214.904-507.308-221.885-501.24-228.636-492.612-238.235-483.706-248.145-477.87-260.294-497.433-254.771-517.743-247.927-534.431-233-544.187-224.366-549.584-213.362-550.041-201.177M-502.976-47.896C-484.008-43.537-464.004-38.269-446.261-26.174-442.344-23.488-438.243-22.146-434.073-22.146-429.894-22.146-425.646-23.495-421.444-26.191-406.386-35.808-393.378-48.813-382.769-64.865L-382.678-64.996C-381.037-67.366-379.486-69.604-380.89-72.347-382.161-74.832-383.938-74.59-386.972-73.949L-387.693-73.798C-410.54-68.808-427.708-77.315-438.723-99.093-441.864-105.456-446.548-111.273-453.481-117.417-465.52-128.6-472.752-142.357-474.976-158.299-478.166-180.352-480.791-203.829-474.957-227.086L-474.788-227.764C-473.38-233.433-471.927-239.282-473.841-245.976-518.061-204.199-543.477-157.884-551.519-104.436-554.331-86.281-542.257-65.274-523.442-55.575-516.605-52.121-509.715-49.537-502.976-47.896M-456.91 383.441-456.909 383.455C-456.291 391.416-451.292 399.279-446.458 406.883-445.844 407.847-445.237 408.803-444.646 409.746-440.569 416.226-435.223 420.372-429.188 421.736-427.696 422.073-426.166 422.24-424.608 422.24-419.704 422.24-414.525 420.581-409.407 417.339-401.833 412.302-393.866 407.64-386.162 403.131L-384.277 402.028C-367.931 392.497-360.364 370.496-367.408 352.985-368.567 350.1-370.483 347.482-372.404 346.157-383.455 338.61-399.237 329.585-411.662 329.452-427.708 329.305-439.656 333.372-447.183 341.539-455.36 350.412-458.633 364.51-456.91 383.441M-463.115 347.474C-473.487 351.116-478.173 359.463-483.123 368.278-484.5 370.732-485.915 373.252-487.468 375.674-470.19 372.738-464.05 365.563-463.115 347.474M-469.458 376.484C-484.606 389.227-483.394 404.497-482.22 419.275-481.932 422.911-481.636 426.641-481.589 430.306-480.709 428.997-479.817 427.697-478.941 426.423-468.9 411.804-459.407 397.983-469.458 376.484M-499.41 469.038C-497.683 472.859-495.897 476.811-494.376 480.747-493.629 482.464-491.177 484.062-489.396 485.222-487.964 486.134-486.715 486.585-485.586 486.585-484.881 486.585-484.223 486.409-483.596 486.06-481.933 485.128-481.393 483.512-481.795 480.616L-481.849 480.003C-481.926 479.06-481.999 478.169-482.429 477.39-494.368 453.324-492.621 427.461-490.931 402.451-490.842 401.067-491.041 399.677-491.251 398.204-491.304 397.836-491.357 397.469-491.405 397.102L-491.407 397.084C-491.483 396.973-491.683 396.746-491.862 396.543-492.05 396.331-492.275 396.075-492.54 395.757-506.261 406.048-508.579 420.252-509.014 434.101-509.461 446.789-504.352 458.1-499.41 469.038M-452.902 489.152C-455.423 479.644-460.467 472.319-465.354 465.22-468.833 460.168-472.415 454.966-475.044 449.025-480.429 468.673-474.392 479.519-452.902 489.152M-105.385-302.432C-115.566-322.594-137.614-339.558-163.245-347.068-161.497-343.088-159.689-339.293-157.932-335.605-153.682-326.682-149.667-318.253-147.585-309.387-141.304-282.146-135.63-253.014-129.187-214.935-127.75-206.703-129.146-198.427-130.496-190.423-131.589-183.941-132.72-177.239-132.347-170.578-131.88-162.662-130.694-158.66-128.382-157.199-125.693-155.5-120.731-156.939-114.105-159.624-100.368-165.136-91.686-176.234-89.657-190.873-83.78-233.425-88.925-269.916-105.385-302.432M-83.039-312.219-83.034-312.218C-74.077-309.687-64.889-307.552-56.004-305.488-48.491-303.743-40.723-301.938-33.118-299.899-25.605-297.811-18.205-295.27-9.635-292.327-6.656-291.303-3.603-290.255-.353-289.159-41.784-329.685-107.484-363.816-143.552-352.314-130.186-336.91-100.215-316.975-83.039-312.219M-455.497 464.004C-448.195 456.742-447.658 449.668-453.637 440.532-457.969 433.898-458.13 425.792-458.287 417.951-458.331 415.752-458.375 413.496-458.511 411.272-472.913 424.49-476.347 437.283-455.497 464.004M-296.159 399.098C-303.718 415.02-307.641 431.807-308.147 450.365-308.508 461.251-312.479 470.545-317.237 480.696-317.448 481.155-317.672 481.627-317.902 482.11-320.506 487.588-322.04 491.703-318.039 494.76-316.503 495.916-314.957 496.389-313.406 496.389-309.823 496.389-306.217 493.865-302.697 491.4L-302.563 491.308C-302.208 491.039-301.842 490.681-301.519 490.365L-301.293 490.146C-281.414 471.713-278.843 422.308-296.159 399.098M-292.586 312.425C-291.613 313.052-288.319 311.932-287.839 310.825-284.786 304.172-290.879 301.465-294.413 297.398-296.72 303.305-298.187 308.852-292.586 312.425M-241.749 427.083C-246.061 418.43-250.137 410.257-262.002 410.545H-262.026C-264.625 410.545-266.44 408.763-266.439 406.249-266.86 394.924-273.823 392.677-281.887 390.076-284.057 389.376-286.284 388.657-288.429 387.733-284.394 405.856-266.497 421.721-239.898 430.726-240.536 429.516-241.148 428.287-241.749 427.083M-244.773 337.953-244.792 337.929C-246.265 336.019-249.205 334.204-251.768 333.617-261.505 331.54-269.55 327.302-276.357 320.668-280.229 316.966-284.503 318.304-288.896 320.129-293.103 321.948-292.981 325.232-292.316 330.033-290.472 343.199-290.142 356.34-291.339 369.106-291.953 374.781-290.41 377.812-285.838 379.915-278.397 383.31-271.22 387.272-264.558 391.058-262.552 392.24-260.898 392.825-259.544 392.825-259.117 392.825-258.72 392.767-258.351 392.651-257.143 392.271-256.174 391.25-255.381 389.513-247.02 372.078-231.403 367.92-217.245 366.155-214.323 365.747-211.312 365.032-209.166 361.445-224.277 356.422-235.933 348.729-244.773 337.953M-94.964 173.61C-101.372 153.604-113.394 135.921-132.792 117.965-136.13 114.931-140.212 112.83-145.284 111.538-146.262 111.276-147.259 111.043-148.258 110.81-151.523 110.046-154.899 109.256-157.716 107.481-183.205 92.101-205.11 101.439-228.301 111.326-234.317 113.891-240.539 116.543-246.733 118.665-254.721 121.367-257.862 127.814-255.578 136.812-253.991 142.887-252.92 149.063-251.787 155.602-251.255 158.666-250.706 161.835-250.083 165.104L-249.802 166.583-251.275 166.27C-256.083 165.244-258.989 162.595-261.553 160.258-263.989 158.038-266.111 156.104-269.459 155.74-277.368 171.724-277.36 186.998-269.437 201.144L-269.286 201.411C-262.746 212.909-256.569 223.77-252.435 236.332-250.896 241.103-247.8 246.298-243.225 251.78-230.157 267.789-214.079 281.103-195.433 291.352-174.502 303.008-160.061 299.908-145.588 280.655-139.592 272.603-133.944 265.586-125.516 261.265-97.147 246.965-83.728 208.463-94.964 173.61M-229.622-59.924C-205.822-63.164-184.759-74.492-163.775-95.311-187.806-93.494-205.766-79.061-223.157-65.087-225.274-63.386-227.442-61.644-229.622-59.924M-363.106-390.697C-403.005-410.79-446.18-420.445-479.457-416.74-472.821-410.538-465.317-406.863-455.411-404.918-449.518-403.786-443.437-403.075-437.558-402.387-435.051-402.094-432.541-401.801-430.014-401.473-416.898-399.541-403.095-397.045-391.148-389.744-382.454-384.291-374.232-384.538-363.106-390.697M-461.934-245.95C-447.45-262.379-435.802-278.786-427.188-291.382-426.09-292.927-425.713-295.612-426.036-299.587-426.689-307.506-427.605-315.205-428.576-323.355-428.813-325.353-429.052-327.359-429.288-329.378-448.54-319.968-463.672-281.271-461.934-245.95M-405.128 316.574C-404.917 318.355-403.426 320.12-400.946 321.535-392.902 325.936-384.65 329.979-375.913 334.261-373.471 335.457-370.993 336.671-368.471 337.917-356.405 307.836-350.875 282.094-362.567 255.129-374.487 276.357-385.869 295.25-402.435 311.194-404.423 313.061-405.33 314.871-405.128 316.574M-403.997 497.115C-400.487 497.115-397.083 496.335-393.817 494.776L-392.953 494.363C-388.913 492.432-384.782 490.457-380.432 489.057-397.513 487.257-407.698 478.592-412.244 462.186-413.461 457.922-429.02 452.062-436.331 454.122-443.268 456.06-444.854 462.457-446.389 468.643-446.58 469.412-446.769 470.174-446.969 470.933-448.691 477.136-445.721 482.047-438.157 485.523-430.17 489.035-421.827 492.332-412.662 495.6-409.714 496.61-406.821 497.115-403.997 497.115M-247.366 312.38C-258.094 298.832-268.242 286.014-283.429 276.824-285.556 291.377-282.209 304.134-273.937 312.868-266.542 320.675-255.688 324.804-242.879 324.804-241.118 324.804-239.316 324.726-237.485 324.568-240.897 320.551-244.18 316.404-247.366 312.38M-199.889 298.461C-208.356 292.685-216.692 286.645-225.517 280.25L-229.989 277.011C-231.575 279.584-232.5 282.329-233.397 284.992-234.787 289.115-236.099 293.009-239.681 295.397-242.939 297.514-244.626 299.561-244.841 301.654-245.07 303.89-243.656 306.388-240.248 309.762-238.12 311.917-235.92 314.145-233.626 315.977-226.41 321.987-220.688 324.867-215.875 324.867-215.053 324.867-214.258 324.783-213.487 324.617-208.16 323.467-203.406 318.243-198.522 308.168-196.334 303.753-195.981 301.175-199.889 298.461M-273.999 33.56-273.268 34.412C-264.193 44.997-255.621 54.994-254.085 69.189-252.874 81-254.092 92.777-255.502 106.413-255.743 108.736-255.989 111.12-256.231 113.573-244.055 107.752-231.849 103.844-220.029 100.06-210.71 97.076-201.088 93.996-191.704 90.023-217.522 64.188-229.742 34.738-230.025-2.362-244.625 12.192-257.89 23.955-273.999 33.56M-338.286 134.061C-333.226 125.427-328.856 117.97-324.244 110.43-322.691 107.847-322.625 105.528-324.036 102.896-326.244 98.606-328.437 94.212-330.976 89.125L-333.219 84.636C-342.457 104.396-344.554 123.106-344.45 144.559-342.287 140.888-340.246 137.405-338.286 134.061M-320.826 364.559C-317.786 366.412-316.2 364.185-315.959 361.852-315.346 357.785-313.64 353.585-315.72 349.279-321.066 350.505-323.266 354.705-324.72 359.265-325.693 362.092-322.893 363.332-320.826 364.559M-311.035 408.851C-310.616 393.63-315.565 379.298-323.955 371.443-328.01 367.591-330.99 366.236-335.135 370.119-335.7 370.622-336.253 371.161-336.808 371.702-339.243 374.072-342.006 376.758-346.172 376.651L-346.617 376.64-346.907 376.302C-349.63 373.115-348.289 370.535-347.21 368.462-346.874 367.814-346.555 367.202-346.368 366.606-345.06 362.435-345.06 359.403-346.368 357.336-347.544 355.477-349.828 354.334-353.373 353.839-354.998 353.575-356.178 353.745-356.884 354.345-357.58 354.937-357.933 356.05-357.934 357.606-357.893 358.487-357.823 359.352-357.754 360.205-357.621 361.844-357.483 363.539-357.573 365.19-357.972 386.499-366.419 401.798-382.687 410.667-388.825 413.959-391 417.767-390.445 424.231-390.105 427.595-390.151 431.068-390.195 434.427-390.248 438.385-390.301 442.477-389.717 446.362-388.412 455.375-383.686 462.429-376.749 465.714-373.987 467.022-370.99 467.669-367.899 467.669-363.43 467.669-358.767 466.316-354.342 463.649L-354.341 463.648C-343.701 457.258-333.664 450.116-324.509 442.419-316.464 435.676-311.427 423.127-311.035 408.851M-339.412 463.035C-340.27 463.778-341.138 464.615-341.978 465.425-344.389 467.75-346.882 470.154-349.837 471.114-363.684 476.049-363.398 485.857-360.982 499.173-335.943 487.761-318.149 477.169-317.004 449.235-325.403 452.644-332.367 456.939-339.412 463.035M-302.179 330.244C-307.281 342.449-309.314 353.797-308.388 364.876L-308.378 365.054C-308.092 370.199-307.574 374.164-303.827 374.535-303.624 374.551-303.429 374.56-303.244 374.56-302.256 374.56-301.522 374.33-301.01 373.862-299.812 372.77-299.782 370.3-299.756 368.121-299.745 367.258-299.735 366.444-299.661 365.683-298.398 353.433-299.221 341.81-302.179 330.244M-304.366 280.217C-323.084 305.479-331.687 327.527-332.773 353.043-314.375 335.117-303.208 306.472-304.366 280.217M-294.073 50.814C-294.012 51.269-293.952 51.719-293.9 52.161L-293.898 52.174C-291.086 79.152-282.415 103.076-267.394 125.282-264.233 122.625-264.217 119.399-264.2 115.998-264.196 115.075-264.191 114.12-264.116 113.196-263.91 110.704-263.678 108.208-263.447 105.708-262.335 93.716-261.186 81.316-262.898 69.042-264.528 56.05-269.588 47.594-278.831 42.425-284.125 39.386-288.208 38.99-291.671 41.172-295.066 43.359-294.583 46.98-294.073 50.814M-324.949 73.163C-323.942 86.624-318.254 98.759-307.562 110.262-298.42 120.043-287.958 127.725-275.844 136.62-274.651 137.496-273.445 138.38-272.227 139.278-271.871 133.299-274 130.024-276.065 126.848-276.383 126.358-276.697 125.875-277.004 125.379-291.087 101.883-299.174 78.533-301.725 54.02-301.831 53.199-301.862 52.312-301.893 51.454-302.034 47.51-302.371 45.049-305.84 44.132-309.928 43.179-312.994 45.916-315.958 48.562L-316.259 48.831C-322.781 54.769-325.705 62.956-324.949 73.163M-327.642 257.444C-328.479 253.722-329.433 249.944-330.355 246.291-332.125 239.284-333.955 232.037-335.081 224.724L-335.083 224.716C-336.188 217.153-336.586 209.462-337.009 201.32-337.101 199.542-337.195 197.733-337.297 195.895-345.804 228.458-342.742 274.15-330.4 295.119-327.122 284.021-324.499 271.053-327.642 257.444M-270.516 232.689C-276.278 232.631-281.574 234.228-287.162 235.912-292.669 237.572-298.32 239.275-304.495 239.275-306.013 239.275-307.562 239.173-309.149 238.941-307.939 253.728-302.682 264.407-296.074 277.83L-295.557 278.88C-294.252 275.715-293.374 272.654-292.52 269.677-290.71 263.37-289.147 257.923-284.206 253.984-277.717 248.681-271.342 242.67-270.516 232.689M-239.651 268.344-240.167 267.743C-247.658 259.024-255.393 250.021-261.014 238.538-262.93 241.038-264.641 243.358-266.176 245.441-269.564 250.037-272.489 254.005-275.788 257.428-278.312 260.033-279.492 262.345-279.393 264.496-279.292 266.715-277.857 268.939-274.881 271.493-272.751 273.317-270.605 275.247-268.53 277.112-265.244 280.066-261.845 283.12-258.362 285.897-253.385 289.87-248.71 290.315-244.47 287.219-241.945 285.371-239.316 279.438-238.729 274.265-238.415 271.497-238.742 269.396-239.651 268.344M-328.107 207.104C-328.113 209.099-328.119 211.361-326.965 212.443-326.4 212.974-325.557 213.234-324.4 213.234-324.234 213.234-324.062 213.229-323.883 213.218-320.137 212.409-319.769 209.701-319.638 205.654-318.993 192.892-315.072 180.775-311.28 169.058-310.015 165.15-308.707 161.109-307.542 157.105-306.505 153.723-304.9 150.476-303.349 147.335-302.484 145.585-301.59 143.776-300.807 141.966-300.205 140.609-299.066 139.521-297.965 138.469-295.638 136.244-294.408 134.856-296.201 132.231-299.284 127.899-303.515 124.475-308.412 122.34-309.3 121.983-312.005 120.897-314.182 125.992-317.155 133.216-320.229 140.685-322.428 148.325-328.291 167.891-328.448 187.878-328.106 206.692ZM-282.855 172.783-282.853 172.769C-281.87 166.783-280.288 160.764-278.759 154.943L-278.206 152.835C-276.862 147.777-278.516 144.265-283.42 141.779-286.829 140.008-289.646 141.039-293.173 145.371L-293.271 145.479C-294.425 146.773-295.62 148.11-296.163 149.632-302.632 166.012-307.888 184.986-311.783 206.034-311.556 213.367-310.247 218.734-307.404 223.979-304.41 229.783-300.526 231.739-295.173 230.132-293.503 229.644-291.761 229.346-290.076 229.058-288.759 228.833-287.396 228.601-286.119 228.281-276.312 225.857-270.71 224.355-269.595 221.663-268.473 218.957-271.446 213.799-276.389 205.608-282.447 195.561-284.622 184.517-282.855 172.783M-318.565 283.38C-313.281 278.78-311.255 272.519-312.205 263.88-312.832 258.771-314.135 253.67-315.395 248.736-317.286 241.329-319.242 233.669-319.026 225.666-319.029 224.817-319.312 224.151-319.866 223.687-320.582 223.085-321.714 222.868-323.024 223.097-325.409 223.391-326.52 224.64-326.522 226.96-326.414 228.632-326.098 230.387-325.583 232.18-321.411 246.974-317.361 264.54-318.565 283.38M-439.919 443.651C-436.47 446.631-431.786 448.101-425.678 448.101-424.241 448.101-422.724 448.019-421.126 447.857-413.132 447.056-408.075 442.009-402.287 435.487-398.166 430.941-397.445 426.64-400.097 422.361-424.302 432.488-425.493 432.591-447.937 422.005-447.253 432.495-444.625 439.585-439.919 443.651M-400.408 446.699C-408.304 455.43-404.729 462.659-399.618 470.488-395.579 476.61-390.386 478.883-383.36 478.883-379.981 478.883-376.177 478.357-371.875 477.481-385.202 471.205-393.889 461.807-400.408 446.699M-235.258-42.613C-235.602-45.396-236.477-47.235-237.934-48.236-239.628-49.401-242.216-49.498-246.105-48.532-247.108-48.313-248.16-47.636-249.177-46.981-249.689-46.651-250.198-46.325-250.68-46.06-291.414-22.142-328.827-25.441-365.07-56.154-365.674-56.681-366.243-57.266-366.792-57.833-368.716-59.814-370.539-61.69-374.29-61.916-383.196-50.63-391.388-40.503-401.092-31.043-407.297-25.053-403.652-18.854-400.126-12.86-399.645-12.041-399.17-11.232-398.725-10.434-396.458-6.343-392.389-3.558-385.939-1.674-372.613 1.929-362.147 10.083-352.575 18.121-338.653 29.639-325.065 35.351-310.785 35.351-299.621 35.351-288.033 31.856-275.542 24.912-257.646 14.878-243.739 .454-229.894-14.693-226.392-18.493-225.991-21.486-228.494-25.004-232.07-29.793-234.282-35.548-235.256-42.599ZM-140.078-168.738C-143.182-165.159-146.152-161.722-149.025-158.396-158.747-147.147-167.143-137.432-175.937-127.706-176.654-126.912-177.364-126.085-178.075-125.257-181.882-120.823-186.029-115.993-191.783-115.993-194.6-115.993-197.804-117.151-201.54-120.082-203.808-121.94-206.423-120.488-209.871-118.235L-210.354-117.92C-213.723-115.769-217.54-113.33-220.849-110.6-244.118-91.681-268.034-82.362-293.907-82.149-284.063-67.693-265.216-60.425-247.391-64.405-238.32-66.438-229.665-70.881-220.157-78.384-202.57-92.424-184.794-101.276-165.818-105.444-154.499-107.987-147.818-114.466-144.156-126.454-139.993-140.11-137.708-152.623-140.078-168.738M-143.11-246.757C-146.462-242.437-149.729-238.334-152.899-234.352-160.259-225.11-167.21-216.38-173.294-207.304-175.118-204.642-176.875-201.866-178.576-199.181-184.038-190.554-189.687-181.633-198.36-175.149-203.536-171.275-205.091-165.412-202.983-157.725-202.559-156.208-202.139-154.686-201.718-153.162-199.881-146.51-197.982-139.63-195.711-133.033-194.278-129.042-192.761-126.936-191.073-126.596-190.91-126.563-190.741-126.547-190.566-126.547-188.939-126.547-186.811-127.969-184.228-130.787L-181.47-133.772C-170.483-145.666-159.123-157.963-149.491-171.226-135.135-191.205-133.197-213.875-143.11-246.757M-264.818-365.699C-259.668-354.579-255.222-344.976-253.375-334.229-247.954-303.498-255.893-278.927-276.957-261.208-284.962-254.244-285.959-249.405-281.228-240.507-277.615-233.863-275.473-226.349-273.402-219.083-272.443-215.72-271.452-212.242-270.331-208.917-263.332-187.819-251.019-176.554-232.685-174.476-213.073-172.204-197.595-180.744-186.68-199.859-178.39-214.314-170.694-225.485-162.465-235.013-149.396-250.266-145.333-269.375-150.39-291.815-154.673-311.354-164.06-329.238-172.676-344.151-176.433-350.573-181.26-354.946-187.027-357.15-209.591-365.88-236.299-375.018-268.309-373.315-267.133-370.698-265.958-368.163-264.818-365.699M-437.147-263.824C-438.829-261.486-440.567-259.07-442.402-256.783-444.765-253.794-445.451-250.236-444.628-245.257-439.803-217.972-432.817-186.216-417.603-156.359-416.213-167.5-414.449-178.629-412.738-189.423-410.814-201.554-408.826-214.099-407.408-226.456-406.17-238.018-405.867-250.11-416.697-259.74-419.898-262.629-421.659-267.104-423.524-271.841-424.252-273.692-425.002-275.596-425.858-277.454-430.349-273.273-433.802-268.475-437.147-263.824M-466.297-154.322C-465.687-151.31-464.968-148.182-463.506-145.909-456.205-133.929-447.209-122.875-438.509-112.186-432.031-104.227-425.333-95.997-419.36-87.425-417.991-85.514-414.892-84.23-412.045-83.228L-411.874-83.168C-403.811-80.369-393.775-76.887-389.492-83.673-385.687-89.867-391.261-100.234-396.745-105.335-418.097-125.072-427.42-151.535-436.437-177.126L-438.036-181.656C-442.644-194.718-445.458-208.237-448.436-222.55-449.671-228.483-450.944-234.6-452.379-240.832-463.159-229.199-468.907-216.257-470.431-200.255-471.887-184.825-469.045-169.319-466.297-154.322M-403.703-175.728-403.692-175.715C-402.595-174.371-401.501-173.024-400.406-171.676-388.122-156.553-375.43-140.927-357.035-128.537-355.909-133.917-355.526-139.018-355.154-143.965-354.705-149.955-354.28-155.612-352.585-161.073-351.628-164.304-353.202-167.223-356.782-168.877-371.277-175.378-376.831-188.718-382.202-201.617-382.984-203.494-383.764-205.367-384.568-207.212-387.829-214.598-390.587-222.348-393.255-229.842-394.307-232.796-395.391-235.842-396.499-238.845-396.898-238.815-397.298-238.794-397.699-238.773-397.997-238.758-398.295-238.743-398.595-238.723L-398.9-236.42C-401.269-218.539-403.719-200.049-405.913-181.742-406.102-180.092-405.111-177.394-403.703-175.728M-369.172-128.255C-382.136-139.212-395.525-150.53-405.709-165.269-410.492-148.283-405.319-129.548-391.651-114.748-379.297-101.372-362.756-93.958-346.378-93.958-342.675-93.958-338.979-94.338-335.343-95.113-345.224-108.012-357.393-118.298-369.172-128.255M-353.553-56.936C-348.838-53.072-344.411-51.88-339.197-53.07-324.524-56.44-308.968-55.099-291.64-48.972-279.248-44.6-269.972-44.676-261.661-49.238-261.632-53.174-263.827-53.761-266.353-54.435-267.085-54.63-267.844-54.833-268.488-55.118-286.251-62.459-301.628-73.497-315.591-84.326-316.172-84.768-316.746-85.236-317.319-85.705-320.557-88.353-323.354-90.64-327.548-88.423-340.378-81.689-352.751-85.648-364.718-89.477-365.609-89.762-366.501-90.048-367.405-90.333-368.561-90.712-369.646-91.198-370.795-91.713-373.916-93.11-377.134-94.553-382.02-93.844-376.421-79.948-367.348-68.192-353.553-56.936M-234.111-112.863C-227.278-114.509-221.915-118.855-215.27-124.24-214.146-125.151-212.998-126.082-211.801-127.033-224.273-126.783-230.007-121.236-234.111-112.863M-375.007-208.461C-370.325-193.917-365.903-180.179-348.687-175.555L-348.681-175.553C-331.275-170.754-306.012-177.676-299.534-189.02-298.076-191.562-296.44-194.131-294.859-196.615-285.793-210.856-277.222-224.323-292.132-242.208-307.848-219.854-325.711-208.744-346.187-208.744-356.065-208.744-366.554-211.331-377.698-216.487-376.738-213.835-375.861-211.113-375.007-208.461M-318.333-96.811C-300.75-89.546-284.15-89.104-263.872-95.371-280.891-99.479-306.015-100.134-318.333-96.811M-219.376-146.191C-253.305-131.532-272.239-137.503-291.738-169.023-295.271-174.943-297.298-176.326-303.081-173.457-312.745-168.564-323.629-167.922-333.957-167.683-341.68-167.558-345.065-164.292-345.642-156.423-345.819-153.463-346.198-150.487-346.565-147.608-347.193-142.678-347.842-137.579-347.47-132.523-346.848-124.887-343.205-117.56-337.724-112.926-334.081-109.845-329.943-108.242-325.674-108.242-325.186-108.242-324.696-108.263-324.205-108.305-314.468-109.142-304.718-108.155-295.29-107.202-283.909-106.051-272.14-104.861-260.49-106.935-253.702-108.113-247.839-109.131-244.146-115.329-235.983-129.46-223.715-136.556-206.668-136.996-208.284-143.901-209.253-147.727-210.852-148.538-212.229-149.236-214.92-148.089-219.376-146.191M-282.82-169.531-282.818-169.527C-276.12-157.444-264.799-149.249-251.76-147.041-249.391-146.64-247.015-146.443-244.647-146.443-233.957-146.443-223.478-150.468-215.102-157.953-212.329-160.495-211.643-162.409-212.567-165.011-213.209-166.796-214.622-167.357-217.44-166.946-245.079-162.864-265.114-175.088-278.651-204.305-293.311-189.871-292.471-186.772-282.82-169.531M-328.392-45.297C-318.147-38.9-307.789-37.228-295.378-39.976-305.331-44.785-315.543-48.408-328.392-45.297M-286.856-375.606C-310.988-381.649-336.715-387.044-362.607-381.014-378.57-377.436-391.725-370.86-402.828-360.909-417.017-348.289-422.058-332.68-418.692-311.789L-418.664-311.609-418.7-311.431C-426.129-274.819-399.326-250.71-375.68-229.441-366.599-221.323-355.75-217.003-344.679-217.003-343.014-217.003-341.343-217.101-339.673-217.298-326.128-218.898-313.846-226.737-305.089-239.37L-304.393-240.381C-297.41-250.512-290.815-260.08-281.414-267.903-253.474-291.226-251.501-333.938-276.724-369.468-278.896-372.559-282.018-374.451-286.845-375.604ZM-249.727 396.228C-235.217 394.993-226.136 389.308-217.122 375.84-232.333 374.281-242.756 380.797-249.727 396.228M-359.195 204.878C-382.607 231.986-395.189 260.506-398.568 294.116-376.271 268.811-366.454 239.951-359.195 204.878M-215.648-7.857C-224.693 6.415-222.038 19.89-218.812 31.427-207.185 71.683-179.546 96.572-136.666 105.405-120.166 108.781-103.105 109.082-86.605 109.372-80.095 109.486-73.394 109.604-66.719 109.907-108.165 77.86-161.971 35.935-215.648-7.857M-377.905 213.393C-373.018 211.592-370.249 206.771-369.032 197.855-371.456 198.929-373.727 199.928-375.902 200.883-379.851 202.618-383.598 204.264-387.303 205.953-385.815 208.969-382.201 215.045-377.905 213.393M-351.026 238.238C-357.959 240.585-357.227 244.651-355.52 249.092-345.786 274.718-348.946 300.105-357.227 325.372-358.573 329.559-360.026 333.878-359.786 338.065-359.413 346.199-352.239 346.932-346.52 348.292-340.667 349.652-339.333 345.332-338.599 340.771-335.919 326.105-332.759 311.932-339.093 297.145-344.44 284.705-346.64 271.025-347.373 257.345-347.613 250.812-347.853 244.158-351.026 238.238M-348.093 198.692C-352 207.678-356.493 216.918-354.187 230.104-345.667 219.265-348.586 208.665-348.093 198.692M-365.813 78.486C-351.25 71.648-341.773 62.683-335.519 49.817-351.077 55.505-360.311 64.241-365.813 78.486M-492.883-571.92C-495.841-577.476-498.712-583.216-502.037-589.863-503.292-592.371-504.619-595.025-506.055-597.876-512.588-586.608-519.89-577.744-527.6-568.385-530.497-564.868-533.479-561.249-536.449-557.454-532.902-557.948-529.493-558.419-526.188-558.875-515.565-560.344-506.39-561.612-497.027-563.03-494.234-563.483-492.472-564.42-491.789-565.816-491.087-567.249-491.454-569.299-492.883-571.92M-563.032-484.337C-561.646-485.628-561.546-488.945-561.546-494.256-561.546-504.596-559.582-514.725-557.502-525.448-556.966-528.215-556.413-531.065-555.878-533.996-590.385-536.011-616.634-520.948-644.409-505.008-651.348-501.026-658.512-496.915-665.746-493.144-663.611-490.249-660.892-490.346-658.027-490.448-657.208-490.477-656.362-490.507-655.561-490.454L-653.638-490.282C-627.271-487.918-600.007-485.475-573.129-483.547-567.781-483.168-564.432-483.032-563.032-484.337M-502.061-607.268C-495.718-595.398-490.24-585.148-484.91-574.844-483.354-572.011-481.653-570.435-479.852-570.159-479.657-570.129-479.458-570.114-479.255-570.114-477.558-570.114-475.609-571.161-473.443-573.24-470.338-576.148-467.32-579.084-464.232-582.198-462.914-583.589-462.276-584.942-462.339-586.221-462.404-587.547-463.223-588.902-464.773-590.247-476.197-600.111-488.839-607.864-506.668-615.894-505.08-612.916-503.547-610.048-502.061-607.268M-449.376 515.634C-444.039 516.335-439.594 519.222-434.888 522.277-430.733 524.976-426.457 527.752-421.042 529.522-422.971 526.923-424.773 524.415-426.529 521.972-431.6 514.915-435.979 508.821-441.217 503.529L-441.218 503.527C-445.222 499.47-450.616 498.51-456.328 497.493-460.701 496.715-465.202 495.914-469.234 493.648-466.748 507.741-460.89 514.16-449.376 515.634M-551.712 410.599C-549.337 408.712-547.069 406.878-544.86 405.091-539.38 400.658-534.204 396.47-528.854 392.699-523.047 388.633-516.963 384.837-511.078 381.167-509.68 380.294-508.282 379.422-506.885 378.545-535.997 375.599-546.943 383.432-551.712 410.599M-568.429-739.353C-578.384-744.446-589.905-745.945-601.756-743.687-605.782-742.962-608.096-739.499-607.516-735.069-607.447-734.555-607.381-734.037-607.315-733.516-606.446-726.672-605.625-720.208-597.816-718.418-588.089-716.186-579.222-712.357-568.739-707.58-565.917-711.202-566.183-714.276-566.441-717.254-566.474-717.628-566.506-717.998-566.53-718.348-566.743-720.914-566.073-723.689-565.426-726.374-564.109-731.833-562.972-736.548-568.429-739.354ZM-387.585 521.028C-374.863 518.45-361.707 515.784-348.243 515.386-337.296 515.05-333.732 505.141-329.977 493.356-337.044 495.139-341.988 498.218-346.78 501.203-347.868 501.88-348.941 502.549-350.028 503.195-350.708 503.593-351.384 504.005-352.059 504.417-355.625 506.593-359.267 508.814-363.288 508.814-365.73 508.814-368.313 507.993-371.103 505.844-372.868 504.484-375.325 505.092-377.7 505.68-378.202 505.804-378.696 505.927-379.171 506.028-381.794 506.608-384.441 507.286-387 507.941-392.023 509.228-397.219 510.558-402.518 511.218-407.353 511.811-412.232 511.661-417.397 511.502-419.38 511.44-421.417 511.378-423.52 511.354-418.019 521.549-409.584 525.228-397.108 522.923-393.932 522.314-390.76 521.672-387.585 521.028M-561.996 7.989-562.931 6.993-561.699 6.403C-548.614 .134-548.364 .015-551.18-13.938H-551.181C-552.793-21.956-554.863-29.997-556.864-37.773-557.667-40.893-558.47-44.012-559.247-47.14-559.783-47.129-560.317-47.108-560.843-47.087-561.35-47.068-561.85-47.049-562.338-47.038-571.896-13.59-567.876 19.378-561.831 50.129-548.479 31.897-548.651 22.205-561.996 7.989M-597.131-139.502C-616.08-131.163-632.521-127.121-648.146-127.121-655.084-127.121-661.865-127.919-668.628-129.492-673.63-130.589-676.116-128.81-677.796-122.936-683.046-103.927-680.018-85.712-668.792-68.792-667.11-66.241-665.368-63.804-663.524-61.224-658.077-53.602-652.456-45.735-648.764-35.166-627.541-68.295-612.719-102.109-597.131-139.502M-642.764-426.401C-633.907-402.502-619.481-384.903-598.767-372.705-592.198-381.106-587.582-389.68-583.18-398.007-619.869-408.5-621.569-409.104-642.764-426.401M-766.442-488.426C-736.467-477.876-715.487-457.093-702.3-424.886-696.211-409.89-684.557-399.972-667.668-395.41-660.304-393.494-653.094-391.743-645.46-389.891-640.874-388.777-636.248-387.654-631.556-386.486-631.787-391.398-634.266-394.335-636.669-397.182-637.576-398.256-638.513-399.367-639.278-400.53-650.151-416.342-655.507-430.095-656.133-443.812-656.992-462.967-666.613-474.277-687.317-480.482-688.287-480.762-689.262-481.031-690.24-481.302-699.308-483.813-708.685-486.409-716.569-497.241L-718.053-499.28-715.575-498.812C-685.221-493.08-674.674-495.027-654.047-510.496-655.064-512.566-656.774-512.624-659.35-512.536-660.274-512.505-661.23-512.472-662.12-512.616-682.004-515.835-699.762-523.114-714.894-534.246-722.315-539.618-729.098-539.999-737.572-535.52-753.522-527.073-764.65-515.856-771.591-501.226-773.264-497.724-773.668-495.178-772.866-493.214-772.075-491.28-769.973-489.714-766.441-488.426ZM-348.726-790.22C-366.247-774.723-386.834-763.637-409.96-757.256-410.944-757.028-412.092-756.569-413.179-755.963-449.206-739.273-456.689-718.379-440.792-678.87L-440.791-678.866C-438.137-672.192-434.697-665.696-431.371-659.415-426.791-650.765-422.073-641.855-419.114-632.04-411.95-667.109-394.716-697.937-378.03-727.784-369.368-743.277-360.412-759.298-353.027-775.65-352.417-776.968-351.794-778.272-351.171-779.576-349.952-782.128-348.691-784.767-347.534-787.518-347.273-788.04-347.243-788.736-347.208-789.544-347.205-789.621-347.201-789.698-347.198-789.776-347.332-789.817-347.467-789.86-347.602-789.903-347.931-790.008-348.445-790.171-348.726-790.22M-374.709-657.207C-376.019-655.703-377.326-654.201-378.631-652.708-385.59-644.685-385.902-634.866-385.203-625.45-384.476-615.565-385.094-606.492-387.148-597.092-373.312-604.815-357.769-607.19-338.463-604.567-305.901-600.1-278.096-609.204-253.461-632.396-240.9-644.3-226.955-655.086-210.857-665.346-213.483-668.712-216.277-668.762-219.222-668.814-220.187-668.831-221.185-668.849-222.133-669.003-240.749-672.019-262.351-675.797-283.155-682.481-291.102-685.126-300.078-687.387-311.4-689.594-330.554-693.245-346.585-688.288-359.051-674.859-364.379-669.074-369.631-663.041-374.709-657.207M179.147-234.208C147.735-260.042 114.503-281.598 80.379-298.276 62.986-306.684 46.289-310.604 29.319-310.256 19.144-310.135 10.447-308.526 1.331-301.201 10.352-291.826 16.586-281.1 22.621-270.717 24.625-267.269 26.698-263.702 28.824-260.277 46.747-231.445 68.632-216.604 95.734-214.907 107.504-214.122 117.951-211.139 127.669-205.786 142.105-197.87 157.019-195.566 173.271-198.746 180.912-200.173 188.859-200.525 197.272-200.897 200.849-201.056 204.531-201.219 208.406-201.468 199.016-214.966 189.688-225.4 179.147-234.208M-48.12 64.64C-57.131 79.379-55.533 93.284-42.938 109.723-41.43 111.693-39.64 113.618-37.91 115.48-36.322 117.188-34.68 118.953-33.218 120.787-28.695 126.445-24.959 132.114-25.079 144.221L-25.109 147.217-26.885 144.804C-41.193 125.359-59.058 117.314-84.728 118.786-85.036 122.354-82.874 123.699-80.396 125.24-79.495 125.8-78.563 126.379-77.776 127.076-63.977 139.301-53.259 154.736-45.01 174.265-41.995 181.451-37.28 184.958-29.25 185.992-8.312 188.563 9.758 183.496 25.976 170.5 25.654 165.937 23.185 163.012 20.795 160.18 19.833 159.04 18.837 157.861 18.006 156.601 1.905 132.146-4.004 106.983 .443 81.811L.444 81.806C4.773 57.925-1.295 38.958-18.105 23.824-23.219 19.26-28.162 14.556-33.886 9.107-35.7 7.381-37.586 5.585-39.572 3.706V28.381C-39.723 44.063-42.359 55.246-48.12 64.64M-530.512-748.116C-501.483-720.632-485.611-684.912-483.335-641.958-482.907-634.905-480.158-632.772-470.8-632.772-470.303-632.772-469.788-632.778-469.252-632.79-466.5-632.826-464.605-633.451-463.621-634.648-462.057-636.551-462.664-639.857-463.25-643.054L-463.277-643.199C-469.41-677.139-484.241-707.407-507.357-733.162L-507.364-733.169C-510.996-737.296-514.913-741.311-518.7-745.194-527.617-754.334-536.812-763.76-543.182-775.521-543.637-765.29-539.641-756.718-530.512-748.116M-483.925-717.01C-490.648-742.143-515.384-776.429-538.765-792.347-535.495-779.444-530.616-769.547-523.515-761.356-518.963-756.167-513.989-751.182-509.178-746.361-500.207-737.371-490.972-728.117-483.925-717.01M-16.725-109.182C-.457-96.895 65.698-74.074 106.936-66.67 97.4-76.786 90.969-87.341 84.736-97.571 81.533-102.829 78.507-107.795 75.112-112.647 67.003-124.375 55.281-138.573 36.443-144.299 31.009-145.952 27.312-146.632 25.509-141.245 18.967-121.483 5.139-110.975-16.725-109.182M-22.107 195.292C2.151 207.101 38.727 202.032 61.803 183.245 60.262 180.125 57.443 178.564 54.47 176.918 53 176.104 51.479 175.262 50.144 174.232 44.887 170.384 39.606 170.538 34.449 174.691 18.563 187.731 .03 194.488-22.107 195.292M-180.453 397.212C-170.839 377.372-171.199 374.052-183.373 363.452-186.666 374.412-181.426 383.532-180.453 397.212M-758.72-559.171C-778.177-581.761-800.897-603.176-834.395-608.871H-834.398C-856.741-612.74-877.224-608.686-895.281-596.819-903.66-591.359-911.518-585.311-920.617-578.308-924.721-575.149-928.949-571.895-933.55-568.444-913.222-563.674-897.28-556.249-881.846-549.061-878.315-547.416-874.665-545.716-871.071-544.102-843.995-531.961-819.564-532.63-796.382-546.148-785.353-552.555-773.345-556.711-758.72-559.171M-801.736-666.237C-804.739-643.734-798.719-623.841-782.882-603.895-769.268-629.209-772.126-638.595-801.736-666.237M-480.618-827.43C-484.774-796.655-480.986-768.574-468.126-734.744-461.116-766.146-465.211-796.53-480.618-827.43M382.615-249.149C364.108-43.842 265.855 115.131 97.241 229.865 94.201 231.958 91.042 233.932 87.868 235.905 84.587 237.878 76.667 242.678 72.655 244.278 77.761 249.452 82.268 255.492 86.415 262.279 89.694 267.572 93.228 272.746 96.388 277.932 107.841 296.652 121.228 313.412 140.948 324.012 141.441 324.265 141.201 326.105 141.561 329.438 120.988 323.398 101.268 329.185 81.175 330.172 66.561 331.039 53.175 328.945 41.122 324.265L35.521 367.759 34.667 374.412C34.548 374.665 34.548 375.039 34.548 375.279 23.468 449.718-5.625 515.893-53.479 573.932-159.639 703.08-338.12 750.279-492.613 689.772-706.027 606.226-803.787 361.105-706.88 151.118-701.4 139.292-701.641 132.012-710.774 122.158-745.84 84.452-774.934 42.051-799.16-3.536-855.534-109.642-879.507-223.016-872.814-343.056-871.96-357.843-876.707-364.736-888.894-372.016-1010.267-445.096-1075.521-587.79-1048.734-727.297-1023.415-858.791-946.96-949.977-821.561-992.497-694.587-1035.511-579.414-1006.911-480.187-915.964-469.72-906.351-461.933-903.897-448.293-908.577-331.413-949.124-212.479-955.03-92.799-924.724 210.588-847.697 411.108-564.017 382.615-249.149" fill="#231f20"/>
</g>
</g>
</svg>
