<svg xmlns="http://www.w3.org/2000/svg" xmlns:xlink="http://www.w3.org/1999/xlink" xmlns:inkscape="http://www.inkscape.org/namespaces/inkscape" version="1.1" width="1984.25" height="1984.25" viewBox="0 0 1984.25 1984.25">
<defs>
<clipPath id="clip_1">
<path transform="matrix(1,0,0,-1,0,1984.25)" d="M0 1984.252H1984.252V0H0Z"/>
</clipPath>
</defs>
<g inkscape:groupmode="layer" inkscape:label="Layer 1">
<g clip-path="url(#clip_1)">
<path transform="matrix(1,0,0,-1,1745.3027,996.8867)" d="M0 0C-5.621-1.198-5.46 4.357-6.506 7.934-11.029 23.368-19.091 36.806-29.312 49.097-33.835 54.542-37.636 60.013-29.83 66.188-23.75 71.013-28.869 74.623-32.143 77.63-42.457 87.076-55.569 92.232-67.117 99.809-73.954 104.294-84.566 107.828-83.902 116.373-83.308 124.162-71.837 123.194-65.331 126.388-55.136 131.399-43.571 133.243-30 141.601-57.959 146.664-66.097 173.09-87.78 181.873-90.553 182.994-91.377 185.542-92.159 188.405-99.897 216.7-119.098 234.207-146.036 243.636-156.437 247.28-167.524 248.894-178.187 251.85-191.121 255.435-193.689 260.582-188.961 272.602-186.334 279.295-189.038 283.771-195.56 282.336-216.605 277.698-233.247 287.747-250.193 297.099-255.193 299.86-260.406 301.075-265.95 301.737-271.826 302.425-279.649 300.828-278.434 311.174-278.349 311.896-279.76 313.357-280.687 313.553-295.934 316.891-310.661 328.214-326.953 316.466-330.856 313.655-335.533 311.667-340.185 314.903-344.768 318.081-343.127 322.472-341.707 326.685-340.806 329.378-340.142 332.376-342.889 334.237-345.652 336.114-348.093 333.922-350.49 332.631-368.313 322.99-375.185 325.165-382.642 343.997-388.738 359.397-394.249 375.052-399.401 390.801-402.369 399.881-400.184 406.668-388.687 406.439-385.252 406.371-382.803 407.424-381.06 410.771-376.332 419.818-371.137 416.055-366.409 410.729-362.226 406.014-359.02 400.238-354.266 396.28-346.63 389.917-338.407 383.997-328.033 392.602-323.28 396.552-318.441 394.454-317.047 388.813-315.329 381.822-311.834 379.724-305.125 381.415-301.716 382.272-297.854 383.165-295.618 379.155-293.629 375.596-295.15 372.249-297.081 369.149-298.331 367.136-299.785 365.258-301.138 363.313-303.604 359.796-304.641 356.382-301.418 352.576-298.255 348.838-294.317 346.384-290.125 349.493-270.899 363.746-256.129 354.215-240.814 341.865-222.89 327.416-201.538 318.386-181.717 306.919-176.428 303.861-170.373 301.517-172.499 292.708-173.877 286.982-168.409 283.466-163.919 281.147-133.528 265.441-105.808 246.082-81.437 222.018-78.987 219.597-76.445 216.267-72.347 217.949-67.831 219.8-68.767 224.328-67.984 228.125-65.638 239.465-75.102 248.673-73.044 260.2-71.199 270.546-69.778 281.334-76.649 291.026-78.214 293.243-78.673 296.522-75.918 298.543-72.874 300.76-69.813 299.299-67.177 297.405-55 288.665-47.415 277.401-46.794 261.865-46.445 252.886-47.806 243.602-43.393 235.082-42.406 233.162-42.594 230.758-44.438 229.756-54.643 224.184-50.731 215.502-49.133 207.747-45.893 192.117-38.92 177.94-30.672 164.375-27.066 158.445-22.194 154.402-15.596 151.718-3.334 146.723-2.772 140.412-13.571 132.436-23.793 124.884-35.459 119.813-46.709 114.063-57.355 108.618-57.551 107.395-47.007 100.811-35.961 93.914-24.651 87.433-13.419 80.841 .425 72.72 1.105 69.076-8.58 56.105-12.942 50.261-11.786 44.357-8.309 38.412-3.334 29.9 1.879 21.508 3.758 11.535 4.659 6.745 6.649 1.427 0 0M-283.935 120.238C-286.81 120.493-289.615 121.011-289.368 124.867-289.173 128.019-287.362 130.049-284.301 130.499-281.197 130.949-278.025 130.949-274.267 131.187-260.525 129.794-247.039 125.844-234.888 117.987-231.614 115.863-227.643 113.077-230.177 108.549-232.523 104.37-236.537 107.029-239.7 108.142-254.165 113.23-268.45 118.896-283.935 120.238M-293.085 88.8C-293.085 92.087-290.423 94.746-287.132 94.746-283.842 94.746-281.18 92.087-281.18 88.8-281.18 85.513-283.842 82.854-287.132 82.854-290.423 82.854-293.085 85.513-293.085 88.8M-286.81 76.687C-279.836 77.655-273.612 83.542-276.902 93.132-277.855 95.901-279.888 99.775-276.239 101.593-272.778 103.317-270.712 99.512-268.739 97.286-262.923 90.703-262.252 82.981-265.56 75.243-269.76 65.39-278.067 61.644-286.613 61.839-303.085 61.729-314.301 77.485-309.479 91.442-308.306 94.823-307.106 98.637-302.387 97.592-298.255 96.674-298.73 93.43-299.182 90.057-300.423 80.756-293.739 75.719-286.81 76.687M-347.515 154.963C-348.45 158.191-344.7 160.332-343.161 163.016-337.778 172.436-327.285 178.687-325.976 190.682-325.865 191.65-324.742 192.984-323.799 193.315-307.438 199.04-292.617 210.431-275.457 211.595-266.631 212.189-256.69 205.912-246.436 206.175-244.454 206.227-243.009 204.035-243.349 201.843-245.925 185.466-233.357 185.934-223.238 183.827-219.913 183.13-215.466 184.591-214.183 180.14-212.975 175.91-216.963 174.109-219.557 171.799-221.334 170.227-223.103 168.647-224.709 166.915-227.592 163.806-231.895 160.968-229.812 155.94-227.736 150.937-222.702 151.744-218.442 151.727-213.11 151.709-208.256 151.336-205.525 145.602-204.046 142.493-200.722 141.746-197.507 141.287-193.204 140.667-188.825 140.361-184.633 139.316-178.179 137.711-168.001 138.892-169.284 128.749-170.611 118.275-180.033 122.124-186.657 122.803-207.149 124.927-226.529 130.125-242.626 144.022-244.335 145.5-246.784 146.384-249.037 146.936-269.003 151.829-289.471 156.636-309.547 150.733-319.377 147.836-325.235 135.936-325.788 126.362-326.911 107.105-339.215 93.039-345.116 76.161-346.647 71.769-349.504 66.63-355.15 68.065-360.976 69.552-359.861 75.456-359.972 80.102-360.048 82.862-359.988 85.623-359.988 89.964-360.652 101.228-357.378 113.349-353.807 125.547-351.009 135.128-344.325 143.912-347.515 154.963M-492.513-200.748C-508.652-204.554-515.404-214.245-514.894-230.775-514.579-240.808-510.939-250.101-508.737-259.682-507.088-266.868-500.209-268.235-493.755-269.051-486.221-270.011-484.954-264.405-482.888-259.096-477.803-246.1-468.347-240.943-457.131-244.554-447.14-247.772-440.643-259.266-442.709-270.02-443.236-272.755-443.619-276.424-446.825-276.313-450.796-276.169-449.528-272.313-449.469-269.73-449.351-264.863-449.273-260.336-455.014-257.991-460.915-255.579-465.838-256.734-470.311-260.77-472.352-262.612-474.393-264.558-475.975-266.774-486.391-281.359-486.349-281.385-501.229-283.789-495.574-294.144-484.588-296.684-476.136-302.545-470.966-306.138-461.195-306.689-462.395-315.091-463.916-325.769-465.141-335.979-479.741-340.965-506.433-350.079-526.705-343.802-544.528-323.61-553.976-312.916-563.201-301.898-570.055-289.531-577.632-275.847-579.315-259.911-581.577-244.681-583.941-228.729-583.848-212.41-584.749-196.254-585.31-186.188-590.233-179.486-600.378-178.552-610.676-177.609-618.966-169.743-629.867-171.026-634.06-171.519-635.114-166.991-636.908-163.967-639.459-159.652-641.33-154.283-648.014-155.048-654.663-155.812-658.711-159.907-661.049-165.742-663.252-171.238-664.578-177.108-667.069-182.442-671.338-191.591-677.665-192.729-684-184.88-688.932-178.772-692.265-180.685-696.381-184.982-703.2-192.117-709.714-199.593-717.01-206.21-725.598-214.016-735.589-218.356-747.46-213.923-749.9-213.014-753.514-212.479-753.336-209.004-753.14-205.31-749.458-205.887-746.924-205.284-726.609-200.468-713.719-187.896-708.106-167.9-706.661-162.77-702.971-154.224-708.132-153.061-715.155-151.48-722.859-146.239-730.776-150.81-732.826-151.99-734.671-153.596-736.813-154.504-739.322-155.574-742.222-156.586-744.561-154.224-746.627-152.135-745.232-149.824-744.22-147.709-740.496-139.877-744.671-139.588-750.538-141.186-757.213-143.003-762.672-146.825-767.349-151.837-773.106-158.004-777.272-158.649-777.996-148.609-778.54-140.973-780.666-137.524-787.621-144.294-790.648-147.233-794.959-146.8-794.016-142.663-790.41-126.948-802.468-123.992-815.129-118.794-801.507-114.675-792.723-107.098-781.218-105.118-776.303-104.269-770.036-102.171-777.145-95.196-780.41-92.003-778.004-89.752-775.002-87.747-767.579-82.804-771.04-79.168-777.035-77.299-784.313-75.031-791.048-71.981-797.213-67.59-799.449-66.002-802.51-64.507-802.375-61.533-802.204-58.025-798.335-58.322-795.955-57.396-792.307-55.961-788.403-55.18-784.687-53.889-782-52.954-779.475-51.399-779.398-48.181-779.305-43.925-782.74-43.032-785.887-42.829-797.383-42.056-795.563-37.604-788.981-31.965-783.301-27.098-777.562-22.272-771.533-17.839-764.263-12.487-760.844-16.59-759.169-23.623-758.803-25.127-758.99-26.766-758.922-28.346-758.217-43.525-758.106-43.576-742.937-39.143-724.765-33.833-709.492-40.748-695.59-51.34-689.391-56.063-690.505-60.37-698.617-62.569-710.972-65.917-710.913-66.154-701.644-75.523-701.092-76.084-700.046-76.509-699.943-77.12-697.052-94.245-687.427-88.732-677.154-84.621-672.732-82.854-667.104-83.687-662.138-85.98-651.934-90.703-638.26-86.303-632.997-76.729-628.635-68.805-632.997-63.131-638.481-58.093-644.757-52.317-643.694-49.047-635.454-47.518-626.908-45.938-618.447-43.78-609.851-42.676-603.524-41.869-600.905-41.003-605.548-34.377-613.022-23.725-611.814-21.083-598.762-18.399-591.849-16.98-586.39-13.354-581.186-9.063-569.426 .629-570.029 5.632-583.958 12.605-587.827 14.542-592.401 17.736-596.016 17.04-608.601 14.619-611.695 25.67-618.601 31.268-618.881 31.497-619.255 31.956-619.195 32.21-614.748 50.609-630.165 46.753-639.179 49.93-643.94 51.603-645.216 53.43-640.539 56.904-634.477 61.406-633.906 63.682-642.64 66.043-652.282 68.651-659.858 76.874-670.514 77.809-672.418 77.97-674.416 79.558-673.422 81.911-672.945 83.032-671.074 84.213-669.808 84.239-654.612 84.621-639.408 87.441-627.784 72.236-612.521 52.266-590.99 43.083-565.846 42.633-546.535 42.285-527.24 44.026-507.998 39.533-497.632 37.112-488.78 42.48-482.386 51.06-478.381 56.437-474.358 61.831-470.566 67.36-451.986 94.449-402.803 96.182-382.522 65.882-379.674 61.618-376.646 57.464-373.738 53.234-362.896 37.46-356.068 34.733-337.583 40.476-324.538 44.519-311.647 46.49-297.923 44.629-275.168 41.529-256.988 50.312-242.897 68.083-229.752 84.664-212.702 91.552-191.708 88.792-188.171 88.324-184.148 88.494-183.018 84.188-181.81 79.592-184.692 75.702-188.375 74.776-197.039 72.602-202.269 66.791-207.805 60.54-212.736 54.976-219.99 53.608-227.269 53.149-231.64 52.869-235.296 51.229-235.083 46.201-234.879 41.368-230.525 41.478-227.124 40.866-224.794 40.441-222.405 40.416-220.058 40.076-216.062 39.507-213.323 37.392-213.417 33.136-213.527 28.728-216.708 27.165-220.603 26.808-223.74 26.528-226.937 26.681-230.024 26.163-232.906 25.687-235.883 24.26-233.782 20.658-228.11 10.881-236.452 9.412-241.937 8.401-250.917 6.753-260.798 9.029-267.438-.068-268.459-1.479-271.886-1.121-274.19-1.605-277.744-2.361-283.187 .501-284.31-4.8-285.202-9.004-280.304-11.128-277.507-13.761-274.08-16.98-270.941-20.582-265.5-20.506-262.073-20.455-259.259-22.349-258.45-25.78-257.532-29.688-260.321-31.412-263.519-32.551-272.778-35.838-270.771-40.553-264.794-45.113-258.842-49.667-252.651-53.965-246.257-57.881-234.854-64.863-223.417-71.047-217.286-84.468-213.128-93.565-207.413-92.869-203.672-83.525-200.194-74.827-193.731-71.88-185.483-70.665-182.813-70.266-179.685-70.504-178.366-67.395-176.937-64.022-179.403-62.392-181.768-60.82-183.664-59.554-186.436-58.628-185.39-55.621-184.429-52.818-181.547-53.549-179.31-53.099-175.977-52.436-171.231-52.938-170.96-48.333-170.687-43.627-175.534-43.822-178.758-42.752-180.875-42.056-183.91-42.294-183.731-38.973-183.579-36.135-181.087-35.243-178.766-34.674-172.201-33.086-165.586-32.177-158.825-33.536-155.687-34.165-152.227-34.733-150.45-31.2-148.689-27.709-151.462-25.203-153.384-22.842-156.113-19.469-159.285-16.471-162.082-13.149-163.655-11.28-164.591-8.97-162.949-6.66-161.24-4.247-158.859-4.952-156.538-5.691-152.022-7.136-147.517-8.613-142.958-9.913-133.129-12.716-124.294-12.708-118.384-2.242-114.838 4.043-108.604 5.241-101.896 4.621-90.875 3.593-79.863 2.531-68.844 1.529-66.581 1.325-63.844 2.234-62.865-.815-62.016-3.457-63.707-5.368-65.416-6.999-71.131-12.428-77.814-16.827-82.44-23.41-89.37-33.281-88.512-36.203-77.313-39.074-70.714-40.756-70.773-44.384-74.872-48.239-80.612-53.625-86.879-58.45-93.01-63.411-99.26-68.456-99.2-74.021-94.354-79.796-85.858-89.938-76.14-98.374-62.95-102.001-60.417-102.697-56.743-103.198-56.335-106.265-55.816-110.164-59.787-110.996-62.509-112.338-68.358-115.218-74.541-115.821-80.995-115.022-84.336-114.615-88.767-112.61-90.723-116.467-92.984-120.926-88.299-123.313-85.799-126.159-85.28-126.745-84.659-127.246-84.106-127.815-81.947-130.023-78.308-131.893-79.337-135.384-80.468-139.248-84.982-137.082-87.542-138.391-97.652-143.572-106.368-150.971-113.724-159.338-117.278-163.381-113.315-168.919-109.685-172.954-102.032-181.457-92.627-188.338-86.36-198.106-84.659-200.757-82.84-203.39-81.606-206.261-80.102-209.769-77.1-214.067-80.349-217.253-84.2-221.016-87.126-215.485-90.604-214.525-103.223-211.043-112.499-202.693-121.887-194.25-125.671-190.844-130.714-187.888-135.985-189.96-142.228-192.406-137.822-197.206-137.389-201.13-136.853-206.006-140.306-204.91-142.856-204.222-153.18-201.453-161.538-196.017-166.98-186.478-171.674-178.255-176.011-170.262-187.864-169.828-193.885-169.616-197.176-163.109-198.562-156.968-199.658-152.151-200.985-147.666-207.107-147.259-213.145-146.859-213.204-152.372-215.687-155.583-218.195-158.828-219.692-162.345-220.229-166.337-221.41-175.129-225.959-176.845-231.708-170.439-238.791-162.565-248.519-162.506-256.273-164.29-265.101-166.328-265.457-176.946-267.014-185.05-267.166-185.814-266.971-186.647-267.106-187.411-269.25-199.372-260.39-212.283-264.675-221.873-269.462-232.61-271.801-242.974-273.884-254.144-279.539-284.494-295.032-310.146-315.636-332.504-328.603-346.562-346.315-347.429-364.189-345.152-368.101-344.651-371.953-343.7-375.83-342.943-390.201-340.132-394.351-332.946-390.022-318.828-389.231-316.246-387.999-314.742-385.389-314.225-369.733-311.133-362.396-296.87-350.839-288.266-346.392-284.953-346.196-280.399-353.739-280.442-363.297-280.493-368.738-275.575-369.963-266.597-371.451-255.613-382.055-260.515-387.123-255.995-390.057-261.126-396.672-263.802-396.842-270.81-396.919-274.062-394.64-279.389-399.504-279.703-405.209-280.077-405.091-274.165-405.499-269.985-406.723-257.414-400.388-247.561-389.291-244.409-378.875-241.462-369.258-246.218-363.416-257.932-360.976-262.825-359.011-267.021-352.327-266.188-346.128-265.416-341.868-262.629-340.244-256.59-337.591-246.677-334.487-236.815-332.846-226.724-330.694-213.54-335.761-205.154-352.607-201.708-423.186-187.268-492.513-200.748-492.513-200.748M-397.463-224.974C-393.424-225.017-388.747-225.577-388.926-230.767-389.087-235.523-393.832-235.048-397.216-235.21-416.527-236.093-435.762-234.598-454.996-233.137-457.785-232.925-461.076-232.695-461.051-229.103-461.017-224.847-457.828-223.827-454.647-223.793ZM-125.978-349.994C-129.208-351.863-131.598-348.235-134.361-347.013-137.372-345.679-139.889-341.101-143.621-344.082-146.955-346.758-145.05-350.716-143.682-353.952-140.747-360.842-141.113-367.85-142.694-374.874-143.315-377.618-144.923-380.549-147.687-381.058-151.283-381.721-151.641-377.991-152.746-375.596-155.772-369.005-159.923-363.348-166.146-359.397-168.46-357.928-170.798-355.855-173.536-358.369-175.619-360.272-174.829-362.735-174.098-364.995-173.247-367.62-172.116-370.16-171.359-372.818-169.71-378.561-171.096-382.095-177.975-381.771-181.903-381.585-185.942-381.397-189.777-382.069-194.123-382.842-197.873-385.373-194.046-390.181-188.706-396.892-193.052-399.848-197.933-403.229-202.524-406.405-206.784-409.191-202.855-416.479-199.046-423.521-204.029-429.34-208.986-434.122-221.631-446.304-237.192-451.578-254.395-451.052-263.858-450.763-268.578-454.364-272.099-462.927-276.732-474.199-277.804-485.76-278.535-497.618-279.31-510.283-282.379-511.693-292.693-505.228-296.019-503.147-299.335-501.721-303.331-505.348-306.817-508.499-307.881-510.674-306.571-515.669-301.435-535.231-301.783-535.512-322.778-534.076-329.615-533.601-332.327-535.817-331.57-542.638-330.228-554.802-329.189-567-327.804-579.155-327.021-586.036-327.183-592.645-331.715-598.318-342.889-612.31-350.644-627.761-351.366-647.187-357.956-643.237-361.086-639.95-362.183-633.019-363.424-625.136-360.244-610.585-377.446-615.767-377.744-615.852-378.339-615.698-378.467-615.469-390.295-594.547-390.992-618.688-396.953-620.616-401.018-621.941-403.364-628.262-406.715-632.144-410.635-636.705-414.793-639.457-418.109-631.54-421.484-623.496-423.993-627.607-426.11-632.178-429.104-638.616-431.697-645.242-434.631-651.715-435.694-654.076-436.018-657.915-439.58-657.423-442.769-656.989-442.564-653.261-443.61-650.806-447.284-642.149-446.851-632.993-446.697-623.946-446.544-614.764-449.759-606.983-455.26-599.925-457.182-597.47-459.138-593.876-462.734-595.456-469.673-598.497-471.705-593.112-474.902-589.392-485.829-576.667-491.271-576.106-504.834-586.206-514.716-593.554-515.838-592.941-519.655-581.033-525.574-562.6-523.278-546.181-509.478-531.858-503.177-525.318-502.173-520.374-512.139-514.87-525.063-507.743-531.084-495.273-531.127-480.256-531.169-463.912-536.263-459.767-551.424-465.874-562.648-470.394-566.024-469.425-560.999-457.261-558.805-451.969-561.144-448.784-566.483-447.942-576.373-446.38-578.346-441.988-572.844-433.426-569.451-428.159-565.777-421.372-570.812-415.953-576.169-410.177-585.14-408.02-591.543-412.419-605.769-422.196-613.729-417.508-624.025-405.479-632.767-395.277-648.124-397.273-661.092-396.968-670.947-396.738-680.836-397.562-690.709-397.987-695.335-398.183-699.765-397.639-701.253-392.491-702.826-387.055-698.191-386.121-694.62-384.523-692.026-383.352-689.501-381.831-690.309-378.383-691.083-375.129-694.008-374.78-696.755-374.127-714.476-369.913-714.79-369.862-713.472-351.625-712.886-343.572-717.987-339.3-722.604-334.67-728.974-328.274-730.785-322.396-722.953-315.838-716.976-310.844-714.331-303.657-711.474-296.734-708.974-290.678-704.765-286.337-698.166-286.847-688.728-287.586-683.361-283.245-679.833-275.243-676.729-268.193-672.886-268.881-668.659-274.31-664.782-279.287-661.312-284.698-656.857-289.09-649.136-296.709-643.014-295.078-639.042-284.944-635.879-276.883-636.101-267.649-631.041-260.293-627.835-255.621-625.42-248.996-618.057-250.007-611.551-250.907-610.931-257.091-608.277-261.941-597.078-282.447-597.912-308.737-581.118-325.709-567.487-339.486-558.04-357.801-535.549-363.628-521.407-367.297-509.597-375.146-498.865-386.885-489.35-397.282-485.532-406.943-463.151-410.67-447.845-413.218-436.791-414.917-417.063-414.722-407.625-414.628-367.063-411.519-355.159-395.38-384.921-399.627-398.525-403.024-436.791-398.777-447.721-397.564-464.521-391.71-474.205-386.036-476.544-384.668-479.129-379.937-478.423-376.726-477.666-373.286-474.231-373.303-471.62-373.43-452.012-374.373-432.267-375.588-412.812-376.386-367.106-378.246-318.577-383.131-287.039-336.964-280.823-327.866-273.187-319.737-266.154-311.209-261.826-305.968-259.028-300.43-257.949-293.328-255.338-276.178-244.556-266.367-227.312-263.632-223.8-263.08-219.684-263.581-216.878-261.882-207.983-256.505-205.781-261.627-204.472-268.848-202.677-278.786-196.912-277.689-192.873-271.574-186.189-261.448-181.504-264.728-176.249-272.151-173.061-276.653-168.766-278.616-163.247-279.244-157.015-279.949-150.807-281.394-144.753-283.101-141.045-284.146-136.666-285.675-136.113-290.186-135.595-294.339-140.212-294.22-142.652-295.885-149.591-300.616-149.013-306.308-144.276-311.999-139.735-317.443-134.6-322.396-129.914-327.739-126.793-331.298-123.579-335.044-123.758-340.166-123.877-343.563-122.32-347.879-125.978-349.994M-770.87-442.914C-772.638-447.85-778.166-446.651-782.307-447.136-784.611-447.407-787.247-447.434-789.339-446.592-823.454-432.882-855.86-416.973-871.549-380.421-872.493-378.221-873.088-375.724-875.792-375.172-888.666-372.563-895.316-362.761-902.229-352.984-908.861-343.615-918.113-340.846-929.363-343.062-942.815-345.713-948.581-341.508-949.533-327.765-950.638-311.778-945.477-297.566-935.63-284.859-925.979-272.415-926.242-272.432-940.945-266.469-954.49-260.981-967.416-259.087-979.992-269.153-986.761-274.572-990.791-273.171-992.347-263.666-994.83-248.478-992.126-234.547-984.686-221.457-981.216-215.358-982.135-212.377-988.41-208.503-1003.002-199.49-1004.014-191.115-992.909-177.635-987.67-171.272-981.412-165.742-975.528-159.924-972.9-157.324-969.711-155.065-966.063-157.409-962.067-159.967-964.048-163.568-965.341-166.915-967.662-172.903-971.191-177.983-975.698-182.587-984.218-191.276-983.563-195.736-971.905-198.174-962.092-200.222-962.365-202.99-967.229-210.143-974.89-221.415-974.286-234.946-975.766-247.798-976.437-253.592-972.968-254.798-968.342-252.802-951.667-245.615-935.4-247.271-918.811-253.558-913.504-255.57-907.118-254.729-901.234-255.256-897.986-255.554-894.891-256.259-893.708-259.895-892.586-263.326-893.87-266.257-896.379-268.397-900.869-272.236-905.596-275.821-910.307-279.414-923.844-289.752-931.999-303.113-933.802-320.238-934.524-327.102-933.079-329.591-925.375-327.407-907.807-322.438-892.348-329.463-874.942-337.363-878.02-339.461-878.998-340.081-879.925-340.77-883.292-343.25-890.248-340.149-890.8-345.704-891.362-351.413-886.574-355.753-882.067-359.007-873.845-364.97-863.624-365.675-854.279-368.69-848.709-370.491-844.899-372.742-852.204-377.524-859.092-382.035-855.622-385.899-851.464-389.663-841.932-398.311-830.342-403.415-818.675-408.325-804.033-414.475-790.215-422.069-777.494-431.558-773.769-434.335-768.914-437.418-770.87-442.914M-1000.009-24.489C-997.483-19.843-1001.463-18.577-1005.085-17.414-1012.849-14.925-1013.138-10.593-1007.5-5.462-1003.257-1.605-1000.332 1.223-1008.538 4.077-1014.907 6.294-1013.775 13.09-1015 18.263-1015.944 22.298-1015.034 28.278-1020.995 28.201-1027.458 28.116-1025.714 22.085-1025.961 18.067-1026.327 12.181-1025.74 6.362-1032.483 2.862-1037.466 .264-1034.796-2.981-1031.564-5.267-1022.976-11.332-1025.434-16.955-1032.228-22.256-1038.486-27.148-1039.464-30.979-1031.403-35.354-1024.549-39.074-1024.966-44.867-1032.032-47.968-1038.086-50.627-1044.702-50.949-1049.94-46.371-1054.592-42.302-1052.653-37.375-1050.297-32.338-1046.556-24.345-1049.685-20.268-1058.495-21.627-1063.367-22.383-1068.206-24.227-1070.595-18.237-1072.993-12.206-1067.415-10.007-1064.056-7.067-1061.7-5.012-1058.699-3.729-1056.156-1.869-1052.865 .544-1052.279 3.958-1053.427 7.67-1054.608 11.459-1057.61 11.518-1061.02 11.646-1066.207 11.841-1074.115 7.152-1075.995 13.26-1078.18 20.344-1068.911 20.904-1064.26 23.818-1061.326 25.653-1056.854 26.494-1059.013 31.327-1061.182 36.211-1065.459 34.428-1069.354 33.765-1074.107 32.967-1079.336 29.136-1083.375 34.997-1086.011 38.819-1085.969 43.168-1084.591 47.509-1083.103 52.181-1079.183 54.05-1075.102 55.74-1070.042 57.847-1064.013 59.18-1064.693 66.613-1065.357 73.833-1071.854 73.391-1076.428 74.249-1085.569 75.957-1089.004 81.308-1089.064 89.989-1089.081 93.115-1089.293 96.403-1090.271 99.333-1091.292 102.391-1093.826 105.05-1097.355 104.489-1100.73 103.962-1100.943 100.65-1100.85 97.838-1100.526 88.469-1101.547 80.187-1110.331 73.893-1116.062 69.781-1114.608 64.277-1108.299 60.701-1103.758 58.127-1099.132 55.646-1100.28 49.089-1101.428 42.489-1106.113 41.461-1111.683 41.427-1113.749 41.418-1116.683 39.745-1116.139 38.403-1111.453 26.901-1123.052 22.467-1125.96 14.373-1126.224 13.616-1124.353 11.815-1123.18 10.881-1120.237 8.554-1115.195 7.39-1117.185 2.175-1118.911-2.354-1123.775-1.461-1127.491-2.184-1139.472-4.502-1150.254-13.965-1163.621-8.07-1168.451-5.937-1175.551-6.932-1176.886-.025-1178.349 7.526-1170.866 8.112-1166.657 11.094-1164.412 12.682-1161.818 13.769-1159.531 15.307-1155.56 17.974-1145.603 24.472-1147.669 29.339-1149.642 33.978-1161.147 32.202-1166.002 31.956-1170.568 31.727-1176.623 27.199-1179.14 34.852-1181.257 41.283-1175.449 43.652-1171.708 46.906-1169.004 49.25-1159.54 53.243-1160.424 57.371-1161.427 62.017-1171.334 59.75-1175.152 59.715-1181.24 59.647-1181.614 63.326-1178.629 67.505-1177.065 69.696-1174.625 71.276-1172.524 73.068-1170.144 75.09-1162.975 80.034-1163.825 82.854-1164.82 86.184-1174.216 83.669-1177.057 83.856-1191.733 84.825-1193.085 86.345-1193.833 101.406-1194.097 106.528-1194.582 111.633-1195.075 116.738-1195.364 119.703-1196.47 122.285-1200.033 122.141-1203.323 122.013-1204.947 119.626-1205.288 116.704-1206.121 109.646-1206.58 102.553-1207.328 95.485-1208.06 88.605-1210.245 83.049-1218.816 83.525-1221.121 83.652-1229.021 86.345-1230.151 83.704-1231.521 80.526-1224.021 76.118-1221.92 74.283-1219.837 72.474-1217.558 70.852-1215.679 68.855-1213.706 66.766-1212.634 64.107-1213.986 61.261-1215.525 58.042-1218.391 58.509-1221.172 59.188-1223.094 59.665-1224.964 60.378-1226.903 60.709-1230.321 61.287-1239.82 66.307-1242.056 62.468-1244.088 58.993-1236.665 52.172-1234.369 49.25-1233.884 48.63-1233.382 48.01-1232.991 47.331-1230.143 42.285-1222.388 38.437-1224.369 32.737-1226.444 26.757-1234.284 31.166-1239.36 29.747-1242.889 28.762-1246.427 27.343-1246.979 23.317-1247.49 19.707-1244.428 17.609-1241.724 16.097-1236.903 13.413-1231.843 11.153-1226.844 8.809-1223.961 7.449-1220.381 6.371-1220.602 2.573-1220.849-1.521-1224.803-1.41-1227.796-2.149-1231.997-3.177-1236.231-4.086-1240.364-5.352-1243.757-6.396-1245.423-8.996-1245.304-12.572-1245.16-16.742-1242.073-17.643-1238.799-17.991-1233.688-18.543-1228.561-18.9-1223.442-19.325-1218.995-19.698-1216.027-21.958-1214.956-26.299-1213.893-30.614-1215.279-33.901-1219.242-36.297-1225.696-40.188-1231.257-44.808-1235.398-51.527-1239.08-57.516-1246.537-57.337-1252.651-56.904-1259.25-56.445-1256.478-50.491-1256.886-46.541-1257.438-41.113-1260.584-37.902-1265.874-37.104-1269.377-36.568-1273.042-36.984-1276.495-36.305-1281.367-35.337-1287.659-35.413-1288.578-28.864-1289.53-22.061-1282.872-22.442-1278.909-20.658-1275.602-19.172-1271.614-18.322-1272.09-13.795-1272.591-9.063-1276.801-8.783-1280.321-9.072-1291.001-9.93-1294.802-5.046-1293.169 5.122-1292.795 7.433-1292.965 9.862-1293.135 12.215-1293.408 15.995-1296.12 17.762-1299.394 18.229-1303.28 18.772-1305.176 16.097-1305.737 12.682-1306.545 7.798-1307.004 2.854-1307.659-2.404-1313.9-.909-1315.967 3.737-1318.892 7.118-1381.4 79.397-1417.471 164.162-1431.468 257.626-1443.032 334.874-1434.877 411.374-1407.896 485.131-1350.235 642.736-1240.967 748.933-1081.7 799.873-942.535 844.392-807.664 827.658-680.292 755.295-640.564 732.725-604.434 705.212-572.818 672.296-549.902 648.444-528.125 623.182-510.421 595.312-496.017 572.623-483.134 548.669-473.228 523.424-472.258 520.952-469.945 518.37-472.021 515.719-474.384 512.704-477.896 513.969-480.855 514.649-497.726 518.548-511.476 529.064-526.756 536.352-532.768 539.215-542.717 549.595-541.994 531.052-541.909 528.979-544.298 528.24-546.467 528.087-571.245 526.329-593.949 533.286-611.61 549.994-633.805 570.992-658.855 588.185-682.172 607.62-709.9 630.733-740.113 649.777-773.004 664.94-794.416 674.811-811.031 672.747-826.447 653.184-852.986 619.521-865.792 580.599-867.28 537.958-868.045 516.093-865.019 494.602-858.352 473.757-856.498 467.964-856.991 463.114-859.789 457.949-867.884 442.99-870.597 426.724-870.801 409.947-871.056 387.828-870.716 365.7-871.43 343.606-872.841 299.529-881.991 257.549-906.915 220.149-911.702 212.954-912.484 204.681-912.977 196.339-913.258 191.667-912.654 186.792-915.877 182.706-919.508 178.102-926.702 173.752-916.089 168.503-913.292 167.127-914.924 163.398-916.65 161.13-919.516 157.367-922.578 153.748-925.664 150.164-930.996 143.971-943.13 137.864-923.904 133.285-917.212 131.688-918.207 124.145-923.054 119.855-931.132 112.695-934.788 105.594-928.249 95.213-925.239 90.448-930.383 87.416-933.572 84.689-949.448 71.149-958.257 53.073-965.57 34.224-970.06 22.654-967.552 19.987-955.332 21.108-950.809 21.524-945.205 24.141-942.331 18.925-939.04 12.954-945.094 9.709-948.189 6.048-957.645-5.122-967.492-15.961-971.335-30.656-975.018-44.723-973.402-47.951-959.49-50.754-952.866-52.096-952.628-55.536-955.579-59.877-958.444-64.073-962.109-67.785-965.732-71.396-968.759-74.411-971.965-78.615-976.599-77.571-982.458-76.246-980.179-70.393-980.655-66.478-981.582-58.79-987.279-55.256-992.483-51.026-996.684-47.611-1004.065-44.961-996.301-37.767-994.473-36.076-994.524-32.925-997.543-32.083-1002.696-30.64-1002.211-28.541-1000.009-24.489M-1161.07-33.477C-1159.863-26.366-1153.494-25.212-1147.984-24.592-1142.065-24.744-1137.15-26.163-1133.264-29.857-1128.945-33.969-1123.664-38.973-1126.538-44.986-1129.65-51.519-1136.283-47.203-1141.402-46.388-1144.497-45.887-1147.55-44.901-1150.5-43.814-1155.56-41.954-1162.346-40.969-1161.07-33.477M-1140.016-61.593C-1137.091-61.432-1134.829-62.026-1133.766-64.54-1132.508-67.539-1133.911-69.526-1136.3-71.531-1146.904-80.459-1146.819-80.501-1135.654-88.979-1132.567-91.323-1128.435-93.778-1131.011-98.399-1133.179-102.281-1137.091-100.157-1140.56-99.698-1150.628-98.374-1158.834-92.784-1167.116-87.857-1176.325-82.379-1175.832-75.235-1166.479-69.935-1158.188-65.237-1148.724-63.903-1140.016-61.593M-1056.981-520.867C-1061.973-524.23-1066.08-520.171-1068.996-516.365-1075.595-507.752-1084.132-501.567-1092.78-495.223-1102.108-488.367-1112.048-485.233-1123.528-484.698-1145.543-483.67-1145.535-483.339-1145.45-461.831-1145.373-439.856-1148.383-436.467-1170.118-435.031-1178.366-434.487-1184.981-430.113-1192.057-426.707-1195.339-425.118-1198.91-423.896-1202.175-426.299-1205.9-429.043-1203.783-432.67-1203.068-436.076-1202.073-440.773-1197.737-446.065-1203.961-449.913-1209.497-453.337-1213.825-448.987-1217.762-445.998-1229.973-436.73-1240.891-425.348-1257.2-423.19-1257.575-423.14-1258.059-422.961-1258.246-422.681-1269.734-405.463-1279.462-415.613-1289.589-424.465-1300.329-433.842-1313.578-434.581-1326.63-432.695-1337.14-431.175-1345.805-433.01-1354.402-439.134-1363.39-445.539-1372.981-451.179-1382.633-456.557-1389.3-460.276-1392.931-464.328-1390.405-472.585-1388.679-478.226-1387.931-484.902-1394.503-488.367-1401.026-491.808-1404.69-486.023-1408.449-482.328-1416.212-474.684-1425.286-471.133-1436.187-471.158-1446.765-471.184-1457.871-476.857-1463.066-485.811-1468.584-495.333-1478.891-496.327-1484.682-487.06-1490.915-477.078-1499.426-471.294-1510.276-467.336-1525.225-461.882-1528.89-437.155-1516.765-426.962-1511.603-422.621-1493.941-427.14-1486.578-434.811-1484.954-436.51-1483.78-438.624-1482.326-440.502-1480.132-443.348-1477.309-444.239-1473.95-442.812-1470.192-441.224-1469.809-437.945-1471.076-434.87-1475.345-424.549-1477.139-415.078-1464.886-408.69-1454.486-403.279-1441.927-405.25-1431.221-415.324-1422.616-423.428-1414.716-432.305-1406.833-441.139-1401.527-447.094-1396.408-448.801-1389.512-443.534-1384.512-439.721-1378.603-437.104-1373.534-433.366-1358.824-422.502-1343.935-414.322-1324.36-420.464-1314.853-423.453-1307.285-417.635-1298.901-412.012-1282.26-400.867-1270.891-382.655-1249.896-377.083-1241.937-374.977-1235.551-367.492-1228.008-363.229-1205.373-350.453-1181.895-355.711-1166.002-376.08-1158.732-385.398-1151.181-394.726-1142.465-402.625-1133.554-410.703-1128.749-419.682-1129.344-431.583-1129.965-443.934-1125.594-451.604-1112.814-456.387-1087.55-465.841-1067.755-482.345-1057.21-508.177-1055.467-512.458-1051.684-517.291-1056.981-520.867M-1469.988-602.006C-1485.345-598.743-1501.943-598.157-1518.125-606.023-1521.331-607.578-1525.906-606.788-1529.783-606.396-1548.312-604.562-1551.067-599.347-1541.841-583.53-1538.278-577.405-1534.392-571.451-1530.37-565.615-1513.805-541.525-1496.986-539.198-1473.993-557.895-1464.597-565.53-1457.615-574.959-1455.013-587.021-1452.777-597.385-1457.734-602.795-1469.988-602.006M-1581.705-541.712C-1586.109-540.668-1590.914-540.54-1591.908-535.443-1592.988-529.939-1590.233-525.353-1585.369-522.574-1574.885-516.586-1564.128-517.461-1553.473-522.133-1549.511-523.865-1545.608-525.854-1541.985-528.206-1537.708-530.976-1531.968-534.187-1533.431-539.801-1535.31-546.987-1542.139-542.095-1546.654-542.749-1558.457-545.042-1570.046-544.481-1581.705-541.712M-1386.077-264.829C-1385.49-258.434-1379.419-257.975-1374.138-257.651-1372.166-257.524-1370.192-257.414-1367.939-257.278-1361.528-257.898-1354.835-258.51-1348.152-259.206-1344.742-259.562-1342.046-260.981-1341.409-264.711-1340.771-268.423-1343.73-269.043-1346.205-270.316-1354.7-274.717-1353.067-279.813-1346.749-284.731-1342.837-287.765-1339.07-290.695-1340.95-296.386-1342.744-301.806-1347.914-300.735-1351.944-301.576-1355.796-302.383-1359.759-302.714-1363.688-303.147-1367.871-303.615-1372.557-305.534-1375.15-300.175-1377.914-294.458-1376.638-289.336-1372.089-285.131-1364.504-278.123-1366.153-273.944-1375.822-271.744-1380.125-270.767-1386.706-271.549-1386.077-264.829M-1373.39-230.784C-1366.511-227.862-1367.285-224.422-1372.956-221.032-1381.97-215.639-1378.237-211.272-1371.953-207.118-1365.788-203.05-1358.722-203.602-1352.599-205.776-1345.465-208.316-1344.98-213.854-1350.04-219.732-1359.989-231.285-1359.938-231.361-1346.035-234.76-1343.186-235.456-1340.593-236.518-1340.235-239.72-1339.853-243.118-1342.752-244.341-1345.185-245.505-1349.581-247.603-1354.385-247.152-1361.655-247.382-1363.398-247.076-1367.642-246.431-1371.842-245.564-1376.29-244.646-1380.516-242.659-1381.205-237.843-1381.961-232.517-1376.859-232.262-1373.39-230.784M-795.657 390.877C-799.619 412.207-803.412 433.579-808.105 454.747-818.675 502.477-816.09 548.788-794.849 593.426-784.526 615.129-772.647 619.418-752.485 606.753-707.146 578.247-663.456 547.879-637.835 498.348-634.646 492.19-629.383 486.932-624.484 481.835-604.442 460.973-601.492 433.375-614.842 407.849-629.195 380.404-654.187 366.779-680.105 353.816-683.507 352.117-687.188 351.718-689.85 355.005-692.597 358.412-690.861 361.792-688.625 364.715-682.486 372.75-673.982 377.923-665.445 382.842-657.172 387.615-651.049 393.782-648.651 403.22-647.121 409.25-644.782 412.173-652.461 419.401-667.971 434.003-683.872 447.781-700.854 460.548-706.338 464.668-701.865 466.97-698.413 469.136-686.389 476.705-686.415 479.661-698.106 488.384-700.769 490.372-706.177 490.618-705.292 495.044-704.519 498.917-699.544 498.611-696.278 499.401-687.809 501.449-687.809 505.67-691.78 512.211-695.071 517.63-699.875 520.807-705.274 523.288-729.68 534.492-748.846 551.447-762.468 574.645-764.39 577.907-766.21 583.088-770.3 582.451-774.62 581.771-774.441 576.021-774.832 572.487-775.972 562.311-776.439 552.041-776.694 541.797-776.933 532.309-773.591 524.197-766.584 517.418-760.351 511.378-754.407 504.915-750.368 497.133-745.334 487.424-748.132 483.237-758.897 483.729-759.687 483.763-760.479 483.925-761.261 483.857-765.283 483.534-770.895 486.847-772.757 481.283-774.424 476.314-769.033 474.037-765.785 471.387-755.444 462.952-756.022 458.45-767.851 451.714-773.114 448.715-782.698 448.036-782.077 441.139-781.354 433.035-771.652 432.984-765.002 431.166-749.552 426.953-749.568 427.097-758.718 413.396-760.895 410.125-762.851 406.668-764.56 403.126-766.992 398.106-769.832 392.151-767.018 387.327-763.65 381.55-757.766 388.754-750.717 386.01-761.235 370.321-760.572 352.049-764.747 334.95-766.72 326.855-769.246 318.956-775.215 312.737-778.157 309.663-781.847 308.04-785.937 309.756-790.317 311.591-790.733 315.592-790.121 319.779-789.203 326.023-788.14 332.241-787.425 338.501-787.068 341.627-786.924 345.356-790.538 346.681-794.551 348.142-795.844 344.464-797.468 341.805-798.497 340.124-799.492 338.416-800.648 336.819-802.119 334.772-804.151 333.591-806.737 333.948-810.112 334.407-811.201 336.963-811.422 339.869-811.907 346.163-812.23 352.466-812.562 358.777-812.825 363.695-811.286 369.709-820.164 367.866-823.607 367.152-824.56 370.627-824.789 373.481-825.733 385.271-825.351 396.866-818.947 409.174-814.271 400.952-810.529 393.757-806.15 386.97-804.143 383.853-801.601 378.815-797.468 380.302-792.944 381.924-794.985 387.259-795.657 390.877M-518.031 309.595C-520.863 306.562-523.584 307.42-526.526 308.983-532.104 311.956-538.023 314.462-543.185 318.038-558.524 328.69-575.488 326.77-592.461 325.088-599.859 324.349-599.264 319.406-596.823 314.759-592.555 306.664-595.795 303.683-603.694 301.78-617.13 298.543-630.369 294.475-643.694 290.788-647.699 289.675-652.682 287.925-650.062 283.109-642.163 268.609-653.617 270.911-661.066 269.705-663.379 269.331-665.803 269.646-669 269.646-670.93 269.79-673.693 270.189-676.448 270.181-683.685 270.181-687.783 267.097-683.175 260.072-678.362 252.742-681.695 249.879-688.184 248.52-699.356 246.175-709.756 240.62-721.491 240.603-723.387 240.603-725.946 240.382-727.077 239.193-744.807 220.684-770.308 209.148-778.131 181.669-780.478 173.438-787.638 168.206-794.254 163.168-805.41 154.674-813.854 143.716-822.323 132.801-826.481 127.45-828.412 122.115-819.466 119.218-818.012 118.743-815.912 117.936-815.546 116.814-809.381 97.762-794.416 103.691-781.252 104.642-778.25 104.854-774.747 107.038-772.766 103.266-770.887 99.682-774.101 97.261-776.142 95.163-785.946 85.071-792.238 72.898-798.301 60.395-804.764 47.042-814.092 35.77-827.127 28.176-834.627 23.801-834.406 20.556-826.447 17.456-822.995 16.114-818.437 14.041-823.437 10.389-836.745 .68-837.544-17.728-850.656-27.378-851.881-28.27-852.519-29.926-853.615-31.047-855.758-33.23-857.918-36.984-861.269-35.158-864.755-33.256-862.85-29.34-861.515-26.698-857.068-17.897-852.544-9.106-847.476-.654-842.799 7.135-840.444 13.863-851.184 18.45-853.938 19.622-855.665 21.737-855.342 24.922-854.959 28.694-852.306 30.393-848.938 30.817-832.952 32.848-825.418 45.547-816.524 56.454-815.146 58.144-813.556 61.576-814.322 62.799-819.823 71.659-818.19 79.762-813.625 88.393-811.898 91.646-827.391 103.997-833.777 104.532-837.289 104.829-840.869 104.37-844.415 104.209-852.893 103.827-859.347 105.347-854.917 116.126-852.638 121.682-855.546 124.859-859.168 128.375-868.403 137.329-868.012 139.146-855.988 144.371-851.609 146.273-847.051 147.87-844.041 151.744-841.005 155.659-838.352 160.493-843.522 164.171-851.362 169.76-846.201 173.217-842.247 177.099-836.617 182.621-830.792 187.947-825.274 193.57-823.071 195.812-820.954 198.938-823.616 201.903-826.082 204.646-829.466 203.373-832.425 202.039-833.505 201.555-834.44 200.748-835.521 200.297-838.769 198.93-841.762 193.366-845.478 198.038-848.131 201.376-846.073 205.963-843.275 208.851-824.747 227.963-826.932 253.829-820.861 276.976-819.143 283.517-822.119 294.865-814.696 295.298-806.312 295.791-806.66 284.171-804.934 277.308-801.55 263.844-799.603 250.023-803.59 236.322-806.626 225.874-806.065 215.4-805.385 204.825-805.206 202.132-806.227 198.828-802.885 197.647-799.645 196.5-797.978 199.422-796.235 201.478-786.788 212.614-777.706 224.09-767.885 234.887-753.54 250.652-733.914 259.121-716.576 270.741-711.652 274.037-706.67 277.265-701.992 280.892-695.828 285.666-693.421 290.261-702.698 294.832-710.062 298.458-706.916 301.898-701.491 304.388-694.663 307.514-688.005 311.302-680.862 313.383-657.308 320.272-636.457 331.748-618.014 347.87-608.89 355.838-598.694 358.004-587.266 352.559-582.963 350.503-577.751 348.838-574.103 353.222-570.54 357.494-574.664 361.07-576.586 364.893-578.89 369.48-581.144 374.95-577.547 379.469-573.575 384.456-569.043 379.886-564.689 378.688-558.125 376.87-552.045 376.301-555.327 386.562-556.254 389.458-555.77 392.211-552.896 393.723-549.937 395.269-547.861 393.077-545.464 391.633-535.106 385.39-533.219 386.647-533.031 399.083-532.955 403.619-534.596 409.642-529.095 411.561-523.856 413.387-521.909 407.535-519.715 404.18-514.971 396.934-506.544 404.502-501.374 398.904-493.363 390.215-491.356 400.578-487.216 403.814-484.622 405.836-482.122 407.747-478.687 406.082-475.863 404.706-474.783 402.022-474.987 399.176-475.736 388.694-473.567 377.694-480.404 368.231-481.544 366.66-482.718 364.757-482.904 362.905-485.269 338.943-503.295 325.377-518.031 309.595M-558.015 151.089C-560.77 149.399-563.218 152.024-565.591 153.264-572.444 156.866-577.181 157.256-585.327 152.21-595.046 146.197-607.954 144.184-619.357 140.013-631.636 135.519-643.634 130.542-654.943 123.899-664.076 118.539-673.982 116.254-684.569 118.004-687.732 118.522-691.125 119.583-690.769 123.721-690.479 127.008-687.512 128.452-684.73 128.333-676.143 127.959-671.593 131.119-670.93 140.285-670.649 144.217-665.803 144.787-662.308 145.237-654.094 146.315-645.854 147.216-637.605 147.963-633.975 148.286-630.259 148.312-628.516 152.16-626.874 155.787-627.521 158.921-631.075 161.444-637.316 165.861-632.452 167.492-628.872 169.361-622.997 172.427-619.442 175.553-626.807 181.295-632.537 185.755-628.839 188.805-624.128 190.486-609.349 195.761-595.531 206.685-578.295 198.488-576.279 197.537-572.784 197.622-572.079 200.221-569.018 211.442-561.994 205.937-556.254 204.026-546.611 200.815-538.941 194.955-533.363 186.18-529.792 180.548-525.565 175.239-521.051 170.321-515.106 163.856-508.729 157.979-511.127 147.785-511.604 145.764-510.473 143.037-509.375 141.032-505.744 134.406-502.258 127.585-501.11 120.195-499.104 107.343-498.092 94.347-496.62 81.062-497.326 76.662-494.409 68.753-500.948 68.499-507.691 68.235-512.819 75.362-514.452 81.758-518.405 97.227-526.526 110.928-531.629 125.87-533.933 132.614-537.028 139.112-541.646 144.591-545.795 149.518-549.443 156.364-558.015 151.089M-596.39 96.454C-594.579 99.452-592.359 103.003-588.022 101.1-584.077 99.358-585.582 95.978-586.492 92.895-589.128 83.958-586.075 77.698-576.705 76.517-567.665 75.379-563.712 80.535-564.451 89.488-564.715 92.563-565.506 96.437-561.458 97.473-557.198 98.56-555.226 95.043-553.559 91.833-546.577 78.327-558.72 60.913-576.603 60.667-584.928 60.318-592.13 64.752-596.832 72.813-601.373 80.578-601.05 88.724-596.39 96.454M-569.442 87.101C-569.442 83.814-572.104 81.155-575.396 81.155-578.686 81.155-581.348 83.814-581.348 87.101-581.348 90.389-578.686 93.047-575.396 93.047-572.104 93.047-569.442 90.389-569.442 87.101M-577.172 119.864C-593.337 116.441-609.681 113.655-624.502 105.695-626.636 104.549-629.272 104.362-630.59 107.114-631.814 109.654-630.429 111.667-628.413 113.196-613.277 124.689-595.752 128.18-577.249 128.316-574.8 128.333-572.513 127.806-571.79 124.757-571.662 121.155-574.426 120.442-577.172 119.864M-462.726 468.414C-451.867 475.354-441.298 467.684-431.025 468.236-414.997 469.085-399.453 474.504-382.727 473.646-373.254 473.162-364.759 481.037-355.983 485.505-349.155 488.979-339.776 492.53-335.329 486.286-330.542 479.576-340.193 474.556-344.325 469.332-347.71 465.067-352.464 463.292-357.472 464.192-363.772 466.876-367.795 462.867-372.226 460.574-377.114 458.051-382.293 452.555-386.655 453.167-408.33 456.242-418.041 439.771-430.303 427.887-435.881 422.485-439.342 422.663-443.5 428.329-446.535 432.458-449.206 436.849-452.31 440.917-455.312 444.851-460.03 448.979-464.257 445.691-472.42 439.346-477.275 444.4-482.581 448.996-494.282 459.121-507.232 465.534-523.219 465.322-530.293 465.229-537.521 466.647-541.985 473.349-543.499 475.617-544.996 478.2-543.431 481.054-541.772 484.095-538.831 483.848-536.127 483.126-513.439 477.087-488.746 481.326-467.165 469.646-465.804 468.907-463.602 467.854-462.726 468.414M-257.319 479.006C-252.838 487.289-247.209 495.052-241.367 502.477-230.594 516.187-220.534 530.27-213.119 546.146-210.603 551.532-206.665 555.915-202.261 560.051-177.431 583.334-149.37 602.481-122.176 622.731-117.771 626.01-112.899 628.813-107.916 631.141-95.578 636.909-90.45 634.743-84.668 622.188-82.856 618.263-81.301 614.05-78.707 610.678-51.828 575.732-52.193 535.809-58.563 495.375-62.423 470.911-71.344 447.28-70.519 421.975-70.408 418.594-72.058 415.137-72.976 411.731-73.725 408.987-77.729 405.785-73.682 403.661-70.748 402.115-67.653 405.53-66.063 408.036-62.925 413.005-60.595 418.476-57.78 423.657-56.53 425.951-55.731 429.357-52.083 428.448-49.431 427.794-49.048 424.999-48.741 422.663-47.44 412.827-47.95 402.965-48.835 393.128-48.963 391.659-49.762 389.247-50.706 388.992-64.855 385.203-59.753 373.99-60.221 364.944-60.323 362.973-60.255 360.969-60.638 359.049-61.165 356.365-61.709 353.383-65.145 352.891-68.044 352.474-69.064 354.937-70.459 356.815-72.491 359.542-73.647 365.012-77.355 363.772-81.539 362.37-81.615 356.908-81.811 352.593-81.828 352.194-81.709 351.761-81.845 351.413-83.579 347.046-77.508 339.019-84.388 338.493-90.782 338-98.154 343.071-99.77 350.86-103.673 369.675-110.501 387.165-121.02 403.245-121.811 404.46-122.593 406.388-122.159 407.535-121.283 409.862-119.106 408.902-117.15 408.63-104.149 406.813-102.593 408.41-106.93 421.066-109.209 427.717-112.567 434.131-116.317 440.102-120.076 446.074-118.689 448.435-112.125 449.31-109.413 449.675-106.751 450.627-104.132 451.527-98.078 453.591-90.833 455.859-89.94 462.612-89.047 469.365-97.27 468.321-101.368 470.623-114.354 477.945-114.668 482.064-102.159 490.865-99.677 492.606-95.79 493.719-96.718 497.694-97.831 502.485-102.228 501.338-105.569 501.287-111.122 501.194-117.432 499.962-120.34 505.985-123.111 511.71-117.244 515.235-114.6 519.253-108.732 528.146-102.193 536.599-96.012 545.28-92.354 550.427-89.932 555.312-96.19 560.773-102.125 565.946-96.913 572.691-97.517 578.68-98.188 585.313-93.299 594.946-101.666 597.545-108.689 599.72-112.27 590.504-115.374 584.982-125.68 566.677-141.267 554.479-159.268 544.685-166.623 540.684-173.383 535.792-177.712 528.401-180.526 523.61-181.547 519.117-173.375 519.143-168.749 519.16-163.962 517.852-162.745 513.29-161.504 508.626-166.903 507.225-169.82 504.982-181.309 496.14-181.529 495.859-169.914 487.968-163.451 483.568-162.958 480.706-170.033 476.246-182.669 468.287-190.203 453.795-205.126 448.554-208.229 447.467-208.655 444.562-208.068 441.589-207.124 436.772-203.74 434.386-199.446 432.712-194.803 430.895-189.004 433.519-183.664 427.462-187.091 426.673-188.868 426.036-190.687 425.891-198.757 425.279-201.598 426.248-195.577 415.596-189.446 404.766-181.861 400.731-172.022 397.053-170.203 396.373-168.442 395.269-166.972 394.003-161.887 389.62-154.667 383.971-158.035 377.779-161.606 371.213-168.435 377.991-173.681 379.682-178.171 381.134-183.026 384.065-186.946 380.03-190.764 376.105-188.468 371.051-186.64 366.668-183.375 358.862-178.612 352.194-171.334 347.53-169.361 346.265-166.903 344.736-168.435 342-169.548 340.021-171.937 340.463-173.74 341.465-185.475 347.972-197.396 354.215-207.864 362.693-209.862 364.307-212.142 367.441-211.92 369.625-210.61 382.519-220.084 386.936-228.511 392.738-234.25 396.679-239.837 401.504-230.194 407.925-225.807 410.848-228.944 414.704-231.078 417.083-236.605 423.224-242.431 429.17-248.663 434.598-263.271 447.331-266.613 461.814-257.319 479.006M108.578-6.048C104.769 8.044 100.968 22.17 98.077 36.466 95.245 50.474 88.043 62 79.974 73.306 71.87 84.664 63.426 95.825 72.729 110.962 75.977 116.254 72.644 119.065 66.41 120.187 52.286 122.718 50.978 126.702 59.497 137.932 74.786 158.08 74.77 158.029 50.9 162.973 43.299 164.553 36.556 167.407 33.886 175.8 31.921 181.966 32.363 186.792 39.685 188.609 50.892 191.387 48.792 197.698 43.511 204.222 40.306 208.18 36.683 212.113 32.474 214.899-.256 236.645-9.524 269.136-11.242 305.942-12.772 338.713-14.481 371.391-11.31 404.163-9.711 420.709-15.195 436.203-20.544 451.485-24.49 462.757-24.192 473.392-21.275 485.021-4.788 550.937-18.351 610.015-63.316 661.466-65.136 663.547-67.126 665.5-68.784 667.701-73.698 674.208-75.731 683.934-87.976 680.833-95.867 678.837-103.256 678.93-108.852 670.529-112.602 664.906-120.935 661.891-127.712 658.799-159.396 644.333-186.104 623.012-211.683 599.839-238.612 575.435-266.273 551.812-299.691 536.412-307.064 533.014-315.559 524.392-322.387 538.161-324.267 541.95-328.629 540.45-331.35 539.002-334.733 537.202-348.705 528.512-355.49 523.874-374.096 511.183-395.618 510.682-416.851 508.669-424.64 507.93-425.872 513.969-427.871 518.82-442.046 553.171-456.986 587.098-477.691 618.187-525.472 689.947-584.995 749.697-659.858 793.069-737.384 837.988-821.039 863.258-910.834 867.387-913.139 867.497-915.409 868.287-917.696 868.763H-958.036C-980.579 865.008-1003.546 865.187-1026.054 860.744-1158.154 834.658-1270.193 773.863-1356.757 669.527-1414.546 599.865-1454.928 520.671-1470.982 431.778-1503.831 249.913-1460.234 88.876-1331.094-46.447-1327.625-50.092-1323.407-53.2-1321.596-58.161-1322.999-61.967-1326.222-60.692-1328.705-60.965-1336.094-61.78-1336.919-66.435-1332.506-70.427-1325.941-76.373-1327.404-79.04-1334.589-81.877-1337.982-83.211-1343.441-83.576-1342.676-88.732-1342.021-93.115-1337.03-93.617-1333.356-94.95-1328.484-96.717-1320.219-94.628-1319.853-101.721-1319.513-108.439-1327.718-108.031-1332.455-110.325-1335.644-111.871-1339.164-112.941-1341.996-114.972-1349.411-120.272-1348.832-125.955-1340.686-129.862-1337.234-131.519-1332.208-131.824-1332.583-137.023-1332.922-141.865-1337.931-142.162-1341.349-143.869-1343.467-144.923-1345.635-145.917-1347.684-147.098-1350.763-148.864-1354.461-150.64-1353.161-155.04-1352.174-158.387-1348.892-159.389-1345.618-159.83-1341.239-160.417-1335.185-157.859-1333.611-164.299-1332.174-170.211-1337.387-173.558-1341.043-176.904-1353.416-188.219-1368.696-189.739-1384.393-188.253-1391.553-187.564-1393.806-180.701-1389.249-175.188-1388.033-173.71-1386.068-172.878-1384.648-171.544-1380.533-167.671-1371.23-167.518-1372.344-160.569-1373.322-154.462-1381.808-157.044-1386.689-154.887-1392.378-152.381-1395.822-148.949-1395.822-142.536-1395.83-136.505-1392.718-133.03-1387.097-131.442-1385.201-130.898-1383.364-130.117-1381.459-129.607-1377.727-128.597-1372.846-128.537-1374.036-122.71-1375.116-117.401-1379.878-117.604-1383.619-118.268-1395.294-120.34-1398.917-114.7-1399.368-104.082-1399.665-96.946-1400.073-89.488-1403.39-82.804-1408.568-84.307-1406.884-87.603-1407.479-90.023-1409.019-96.233-1404.299-108.396-1419.384-101.746-1423.542-99.911-1425.686-104.396-1424.163-108.456-1422.803-112.109-1420.413-115.362-1418.517-118.811-1413.355-128.197-1414.895-131.731-1424.954-133.65-1429.308-134.483-1435.456-132.69-1436.162-139.537-1436.825-145.977-1431.247-147.854-1426.672-150.113-1424.58-151.141-1422.123-151.6-1420.736-154.861-1426.119-158.004-1431.969-155.379-1437.412-155.982-1441.536-156.433-1445.66-156.899-1447.08-161.3-1448.44-165.53-1444.665-167.595-1441.995-169.803-1439.265-172.071-1436.272-174.024-1433.491-176.225-1429.75-179.197-1425.388-182.23-1427.981-187.879-1430.294-192.941-1435.311-193.511-1440.184-193.222-1444.503-192.976-1448.806-192.296-1453.083-191.591-1457.403-190.877-1461.875-189.374-1464.46-194.641-1467.522-200.884-1462.241-203.101-1458.619-205.76-1452.258-210.432-1445.49-214.576-1439.163-219.291-1434.682-222.629-1430.149-226.63-1432.582-233.086-1435.226-240.094-1441.145-238.616-1446.706-237.537-1449.384-237.011-1452.462-237.316-1454.699-236.076-1458.125-234.165-1461.136-232.339-1463.806-236.518-1466.391-240.569-1464.818-244.12-1461.433-246.94-1459.019-248.971-1456.323-250.661-1453.891-252.674-1448.125-257.439-1435.294-261.814-1453.236-267.913-1457.012-269.195-1457.105-272.746-1453.347-275.073-1451.697-276.093-1449.631-276.424-1447.854-277.266-1443.687-279.244-1437.803-280.018-1437.599-285.785-1437.403-291.731-1443.712-292.164-1447.488-294.628-1449.138-295.706-1450.983-296.479-1452.658-297.533-1455.43-299.274-1457.964-301.482-1457.445-305.059-1456.935-308.55-1453.67-308.516-1450.966-308.949-1446.145-309.714-1440.77-310.597-1440.991-316.815-1441.221-323.169-1446.986-323.101-1451.629-323.865-1453.576-324.18-1455.523-324.536-1457.471-324.885-1468.959-326.949-1471.28-332.521-1464.273-341.652-1462.147-344.431-1458.568-346.749-1460.575-350.768-1462.539-354.726-1466.646-353.655-1470.124-353.536-1474.469-353.384-1478.806-352.95-1483.143-352.925-1487.258-352.907-1492.394-350.316-1494.996-355.286-1497.479-360.043-1496.824-365.411-1494.12-370.075-1492.572-372.742-1490.396-375.188-1488.066-377.235-1482.547-382.086-1478.687-387.353-1483.534-394.598-1488.44-401.937-1494.154-406.422-1504.358-403.305-1529.919-395.481-1534.724-398.311-1551.229-419.75-1564.919-437.521-1577.597-455.146-1577.589-478.777-1577.58-481.954-1579.723-483.348-1582.41-484.74-1603.167-495.503-1619.077-526.295-1616.993-550.003-1616.364-557.197-1611.985-559.542-1606.415-560.723-1596.781-562.762-1587.079-564.664-1577.3-565.751-1570.633-566.499-1567.138-567.289-1569.664-575.639-1572.274-584.243-1572.903-593.477-1574.094-602.481-1575.871-615.868-1569.298-624.592-1555.888-626.436-1549.222-627.353-1543.083-627.141-1540.021-635.651-1538.006-641.258-1514.775-640.323-1512.445-634.437-1509.911-628.032-1505.821-627.548-1500.549-627.437-1470.481-626.809-1441.212-628.975-1411.502-636.654-1324.189-659.207-1235.942-678.183-1144.965-675.669-1120.628-674.989-1096.428-669.459-1072.176-666.045-1068.469-665.518-1065.34-663.751-1064.787-659.513-1064.269-655.579-1066.241-652.641-1069.2-650.372-1076.113-645.072-1084.651-644.825-1092.695-642.991-1153.111-629.222-1215.662-626.206-1274.972-606.898-1291.894-601.394-1309.589-604.809-1326.749-601.836-1334.436-600.502-1336.987-596.85-1335.448-589.706-1334.53-585.476-1330.729-584.881-1327.37-583.751-1314.275-579.334-1301.154-574.977-1288.127-570.372-1284.513-569.09-1279.232-568.045-1279.317-563.594-1279.437-557.852-1285.38-559.916-1288.756-559.347-1312.515-555.354-1336.281-551.107-1360.575-552.874-1362.531-553.019-1364.529-552.755-1366.485-552.525-1371.936-551.897-1376.893-550.41-1376.876-543.615-1376.868-536.752-1371.842-535.172-1366.383-534.984-1352.548-534.509-1338.646-534.178-1325.057-537.338-1311.103-540.582-1297.106-542.18-1282.753-541.321-1254.292-539.623-1227.796-551.795-1199.777-553.46-1197.15-553.621-1194.046-554.751-1193.442-557.945-1192.737-561.657-1195.407-563.67-1198.298-565.216-1199.684-565.964-1201.316-566.304-1202.609-567.17-1206.206-569.574-1213.706-567.604-1213.17-574.331-1212.592-581.534-1205.568-580.03-1200.866-580.48-1166.283-583.785-1131.232-581.288-1096.964-588.694-1080.263-579.062-1065.612-585.832-1050.961-594.097-1049.336-595.015-1046.36-593.834-1044.107-593.265-1038.274-591.77-1031.922-590.487-1026.514-592.305-1002.977-600.247-978.223-600.341-954.15-601.861-928.828-603.449-902.722-604.52-877.824-602.345-858.326-600.646-840.299-598.132-821.481-604.409-811.082-607.884-801.422-603.865-792-599.007-772.162-588.754-765.674-590.394-752.579-608.605-748.778-613.889-744.458-615.393-738.311-613.601-713.778-606.439-693.37-614.339-675.122-630.768-669.578-635.762-663.422-640.162-657.18-644.273-648.805-649.777-643.438-656.812-641.628-666.928-639.731-677.495-632.555-679.602-624.247-672.509-622.47-670.988-621.058-669.026-619.493-667.242-609.256-655.588-609.222-655.562-600.573-667.403-596.032-673.63-591.245-673.834-585.82-668.517-583.439-666.189-581.628-661.568-577.419-663.742-574.196-665.416-573.55-669.569-573.286-673.154-572.921-678.268-572.921-683.407-572.598-688.521-572.079-696.794-568.354-700.88-560.396-695.817-552.921-691.061-549.281-692.471-546.892-700.939-543.524-712.857-532.87-720.757-528.831-732.657-527.122-737.694-522.581-735.809-520.166-731.265-518.856-728.818-519.248-724.01-514.46-725.615-511.306-726.678-509.732-730.007-509.46-733.176-508.95-739.054-508.925-744.991-508.891-750.903-508.822-761.173-509.077-771.451-508.848-781.713-508.618-791.77-504.673-794.641-495.506-791.999-472.326-785.322-472.369-785.34-463.202-807.374-458.271-819.232-450.209-828.976-441.697-838.379-439.154-841.19-436.025-842.897-432.216-841.088-428.594-839.364-429.197-835.94-429.486-832.789-429.853-828.856-430.319-824.932-430.72-821.008-431-818.187-431.221-814.951-427.965-813.991-424.775-813.057-422.854-815.75-421.681-818.281-418.883-824.371-416.485-830.657-413.67-836.739-410.864-842.812-407.947-848.86-404.656-854.687-403.101-857.432-400.38-859.835-396.876-859.104-392.786-858.255-393.066-854.535-393.22-851.417-393.424-847.323-392.684-843.467-390.499-840.086-380.992-825.407-374.708-809.209-367.804-793.282-366.562-790.402-365.788-785.271-360.805-787.522-356.937-789.264-357.778-793.358-358.476-796.985-359.343-801.547-364.291-807.501-356.766-810.05-350.482-812.182-347.021-806.1-345.797-801.538-335.687-763.798-313.322-730.381-307.056-691.341-306.546-688.121-306.137-684.885-302.506-683.764-298.943-682.659-296.358-684.962-294.25-687.238-291.86-689.829-289.803-692.785-287.923-695.783-282.226-704.906-279.462-705.042-273.51-696.047-271.987-693.753-270.908-691.18-269.734-688.674-268.629-686.32-269.743-682.948-266.478-681.572-256.903-691.451-255.61-691.162-249.097-678.03-246.266-672.313-244.114-666.376-243.544-660.014-242.787-651.612-240.619-643.866-235.78-636.747-230.543-629.043-231.358-620.039-232.312-611.435-233.8-598.098-236.273-584.881-237.872-571.553-240.287-551.489-231.81-539.818-212.116-536.013-204.931-534.628-198.8-532.538-194.089-526.116-189.889-520.392-163.587-518.931-157.414-524.112-153.435-527.45-151.113-527.637-147.55-524.358-145.271-522.269-142.754-520.307-139.072-521.326-132.593-523.118-128.852-516.28-129.183-513.816-130.815-501.661-122.423-489.039-131.292-477.248-137.261-469.314-133.187-464.957-124.719-463.7-112.874-461.941-103.138-456.369-94.821-448.079-86.454-439.754-88.393-432.39-99.702-429.153-101.98-428.499-104.345-428.117-106.59-427.361-114.668-424.617-115.51-419.911-109.311-414.467-100.638-406.839-90.093-402.09-80.008-396.662-65.067-388.618-49.269-382.111-35.519-371.927-24.362-363.661-24.32-362.846-34.915-353.731-36.488-352.372-38.104-351.175-37.108-348.94-35.885-346.197-33.291-346.715-30.961-346.868-16.956-347.777-6.896-340.166 1.87-330.797 6.854-325.462 7.941-319.924-2.39-319.482-4.601-319.389-7.568-320.425-8.427-317.427-9.261-314.505-6.539-313.129-4.465-312.39 10.45-307.106 24.608-296.76 41.683-305.373 47.159-308.134 47.992-304.906 47.116-300.531 43.639-283.16 37.244-267.344 22.652-256.071 18.597-252.929 14.404-249.938 10.399-246.728 7.899-244.724 5.501-242.361 6.845-238.709 8.053-235.438 10.79-233.502 14.158-233.562 29.072-233.825 42.822-228.219 57.142-225.467 64.625-224.031 72.006-223.972 78.8-228.626 85.433-233.171 87.031-230.07 86.198-223.402 84.531-210.126 84.165-196.611 76.164-184.889 72.107-178.935 72.788-174.568 81.495-174.475 86.359-174.415 89.692-171.773 90.926-166.975 92.1-162.421 88.213-160.994 85.628-158.7 70.382-145.187 67.192-127.203 67.159-108.143 67.15-102.146 71.02-99.707 76.453-99.826 81.972-99.945 87.481-100.82 93.001-101.016 96.818-101.151 101.513-102.281 103.527-97.771 105.245-93.914 101.887-91.128 99.607-88.537 89.166-76.611 82.813-62.808 80.364-47.229 79.692-42.965 79.284-38.582 79.438-34.275 79.88-21.406 82.729-19.163 95.492-20.913 112.125-23.189 112.933-22.103 108.578-6.048"/>
</g>
</g>
</svg>
