<svg xmlns="http://www.w3.org/2000/svg" xmlns:xlink="http://www.w3.org/1999/xlink" xmlns:inkscape="http://www.inkscape.org/namespaces/inkscape" version="1.1" width="1984.25" height="1984.25" viewBox="0 0 1984.25 1984.25">
<defs>
<clipPath id="clip_1">
<path transform="matrix(1,0,0,-1,0,1984.25)" d="M0 1984.252H1984.252V0H0Z"/>
</clipPath>
</defs>
<g inkscape:groupmode="layer" inkscape:label="Layer 1">
<g clip-path="url(#clip_1)">
<path transform="matrix(1,0,0,-1,1077.9492,927.5928)" d="M0 0C.613-3.371 .827-6.815 1.588-10.149 3.763-19.709 1.882-24.514-10.154-17.828-7.146-46.718-5.559-73.898-7.323-102.218-15.45-98.382-17.331-89.618-24.796-84.439-29.926-104.369-31.458-124.813-40.031-144.731-44.812-136.507-43.567-127.811-47.803-118.281-51.044-128.424-53.698-136.733-57.173-147.631-64.606-130.188-66.494-113.653-71.048-97.683-77.177-99.203-78.709-105.527-85.002-107.991-89.581-82-90.641-56.15-89.691-28.522-97.131-35.398-98.988-44.205-106.36-53.545-103.597-22.253-99.208 5.724-92.155 36.875-96.763 30.943-99.521 27.388-102.279 23.84-103.1 24.526-103.915 25.213-104.73 25.899-96.88 50.352-86.829 73.843-73.646 96.475L-49.427 80.522-23.644 93.129C-15.885 79.364-8.083 65.63-.435 51.804 1.538 48.238 2.917 44.34 5.54 38.407 .013 41.073-3.444 42.74-8.347 45.112-5.43 29.355-2.69 14.684 0 0M-88.214 98.52C-83.25 110.642-76.043 121.177-66.924 130.32-64.724 132.533-61.818 130.455-59.422 129.579-51.008 126.508-42.563 124.633-33.958 128.653-30.992 130.039-29.03 129.419-27.168 126.833-20.586 117.714-13.894 108.674-6.423 98.477-14.562 98.575-18.784 102.393-25.054 105.028-32.757 109.465-53.275 118.646-74.554 106.07-74.554 106.07-86.198 99.328-88.214 98.52M346.048 210.107C345.552 214.659 341.93 213.709 339.08 213.789 334.526 213.917 329.899 214.322 325.419 213.721 315.068 212.337 311.899 216.392 311.777 226.823 311.091 284.989 309.877 343.149 308.468 401.309 307.579 437.767 306.022 488.199 304.668 527.469 295.07 517.717 290.125 509.663 289.898 497.877 288.293 415.768 285.571 319.683 286.466 237.537 286.711 215.032 286.638 215.032 263.993 213.96 263.613 213.942 263.233 213.973 262.854 213.966 259.746 213.917 256.779 213.948 256.105 209.697 255.462 205.667 256.712 203.21 260.598 201.783 267.37 199.29 273.934 196.19 280.81 194.065 286.509 192.301 287.594 190.102 285.283 184.295 280.767 172.92 273.743 163.665 263.986 156.731 261.204 154.753 259.243 152.603 257.987 150.159 257.815 152.125 257.625 154.091 257.43 156.058 256.148 168.945 256.203 169.086 244.621 163.677 207.42 146.306 170.404 128.567 132.989 111.655 108.953 100.789 85.291 97.738 60.005 105.438 50.591 108.305 40.742 109.873 30.998 111.453 23.712 112.641 24.171 118.589 22.596 123.391 22.479 123.752 23.271 124.42 23.589 124.874 26.5 126.074 26.506 120.194 30.098 122.472 28.706 136.046 28.425 149.877 25.538 163.145 23.54 172.326 25.574 174.642 34.296 176.437 71.25 184.038 107.477 194.163 140.864 212.429 146.595 215.565 152.724 218.425 158.049 224.68 152.515 226.291 148.604 227.54 144.634 228.569 104.068 239.08 62.72 245.396 21.309 251.263 12.687 252.488 7.648 255.563 5.344 264.298 2.531 274.938-1.686 285.198-4.964 295.727-18.521 339.303-29.674 383.638-46.276 426.246-48.514 431.991-50.561 437.938-56.413 444.376-61.678 418.797-66.335 395.411-71.33 372.098-79.383 334.537-86.7 296.811-98.332 260.084-101.58 249.824-107.433 244.446-117.662 241.824-136.801 236.912-155.756 231.271-174.694 225.623-201.108 217.746-227.521 209.844-253.623 199.235-250.252 194.745-245.907 194.445-242.138 193.238-205.14 181.447-167.149 173.539-129.3 165.184-120.358 163.212-118.133 159.218-119.764 151.102-121.933 140.285-124.33 129.474-125.653 118.546-126.444 112.029-128.981 110.491-135.146 110.902-151.099 111.974-167.444 113.266-182.575 107.275-216.65 93.788-249.688 98.082-282.531 111.073-304.447 119.741-326.154 128.953-348.174 137.345-367.522 144.713-387.605 148.591-408.479 147.592-415.833 147.243-418.315 145.387-415.343 137.216-415.306 137.118-415.27 137.014-415.239 136.916-420.896 146.294-428.869 153.834-441.855 157.344-448.039 159.01-450.024 162.801-451.158 168.553-456.594 196.178-462.704 223.675-467.938 251.331-473.693 281.73-481.801 311.451-469.752 343.174-462.134 363.228-476.42 388.844-494.671 398.216-492.256 389.095-489.75 380.41-487.678 371.62-484.883 359.737-482.726 347.725-484.154 335.437-484.645 331.174-486.042 326.899-491.03 326.109-495.645 325.374-497.716 329.128-499.426 332.528-500.958 335.572-502.356 338.788-503.122 342.083-506.48 356.509-509.587 370.989-512.787 385.445-521.63 361.213-519.246 338.702-502.301 318.752-496.656 312.106-490.276 306.097-488.548 296.873-480.624 254.62-472.571 212.392-464.451 170.176-463.366 164.51-462.894 160.033-470.279 158.165-476.248 156.652-479.178 151.372-481.022 145.724-487.212 126.803-475.378 93.751-458.145 84.183-452.96 81.31-451.446 77.85-450.668 72.729-446.721 46.776-442.566 20.854-438.509-5.081-413.762-163.341-389.278-321.644-362-479.5-360.781-486.55-360.333-493.643-350.246-491.591-339.888-489.49-346.434-482.25-347.083-478.103-375.691-294.631-404.587-111.209-433.661 72.189-434.881 79.896-434.047 84.949-426.344 88.728-419.596 92.036-413.639 97.021-407.48 101.475-406.426 102.24-405.237 102.981-404.379 103.937-399.678 88.158-395.64 72.184-392.208 56.062-384.915 21.796-377.315-12.665-384.639-47.854-386.619-57.392-383.646-57.612-376.12-57.122-349.234-55.376-323.789-47.854-298.821-38.415-262.89-24.829-226.903-11.439-189.433-2.619-168.878 2.22-166.806 .726-162.872-20.419-162.664-21.54-162.584-22.686-162.418-23.819-157.516-57.404-161.609-90.701-166.414-123.845-180.792-223.081-206.164-319.867-232.56-416.402-241.574-449.375-250.994-482.237-260.04-514.457-237.922-514.457-216.355-514.53-194.789-514.45-183.794-514.408-172.794-514.39-161.799-514.39-164.937-518.138-166.102-525.097-167.291-537.788-168.032-545.739-166.88-549.506-161.076-549.322L-103.002-550.143C-100.52-550.075-97.627-551.245-96.58-545.708-94.661-535.546-99.503-521.274-105.98-514.579-62.952-514.843-19.924-515.388 23.099-516.099 20.193-519.339 19.323-525.813 17.705-538.793 16.554-548.091 17.693-552.636 24.717-552.299L82.717-552.495C85.218-552.446 88.239-553.34 89.563-548.525 91.916-539.993 86.885-524.625 80.731-517.121 112.471-517.728 144.211-518.396 175.956-519.075 188.814-519.345 188.839-519.271 183.746-507.088 165.544-463.562 148.507-419.575 132.738-375.118 99.013-280.017 67.524-184.271 52.89-83.938 48.207-51.83 46.209-19.623 51.468 12.713 52.607 19.714 55.599 21.644 62.217 20.075 73.732 17.344 84.758 13.246 95.679 8.805 127.363-4.083 158.552-18.25 191.333-28.302 213.555-35.12 236.108-40.21 259.384-42.023 267.762-42.679 270.115-40.106 268.687-31.904 267.192-23.31 266.824-14.514 266.083-5.798 262.596 35.254 262.516 76.483 260.291 117.609 261.78 117.229 263.674 117.199 265.911 117.303 275.178 117.731 282.997 122.399 291.479 125.321 290.112 116.837 291.7 107.79 297.283 100.287 299.195 97.714 302.37 96.807 305.502 97.365 308.964 97.977 308.59 101.15 308.952 103.71 309.963 110.847 310.968 117.989 312.09 125.902 312.408 127.348 312.672 129.002 312.145 130.227 319.426 133.583 322.098 139.966 323.226 151.757 323.765 157.375 323.226 163.132 322.753 168.792 322.159 175.953 318.77 183.909 320.902 190.004 323.421 197.183 333.742 196.656 340.097 200.595 340.74 200.987 341.458 201.281 342.156 201.562 346.146 203.192 346.44 206.536 346.048 210.107"/>
</g>
</g>
</svg>
