<svg xmlns="http://www.w3.org/2000/svg" xmlns:xlink="http://www.w3.org/1999/xlink" xmlns:inkscape="http://www.inkscape.org/namespaces/inkscape" version="1.1" width="2016" height="1728" viewBox="0 0 2016 1728">
<defs>
<clipPath id="clip_1">
<path transform="matrix(1,0,0,-1,0,1728)" d="M0 1728H2016V0H0Z"/>
</clipPath>
</defs>
<g inkscape:groupmode="layer" inkscape:label="Layer 1">
<g clip-path="url(#clip_1)">
<path transform="matrix(1,0,0,-1,1286.7022,886.5195)" d="M0 0C2.91 0 5.821-.003 8.731 .001 9.497 .002 10.264 .009 11.028 .035 19.284 .32 18.819-1.091 18.723 8.174 18.684 11.866 18.19 12.357 14.271 11.856 7.554 10.999 .819 11.134-5.917 11.128-25.83 11.111-45.743 11.116-65.655 11.13-68.719 11.132-71.781 11.262-74.844 11.271-83.57 11.294-92.293 11.17-101.015 10.799-112.623 10.306-124.207 9.266-135.838 9.271-154.985 9.277-174.133 9.342-193.28 9.233-201.232 9.188-209.173 8.496-217.115 8.109-226.348 7.659-235.471 8.15-244.464 9.884-252.884 11.507-261.146 11.316-269.452 9.669-273.149 8.937-273.168 8.844-273.246 5.315-273.311 2.408-273.319-.502-273.268-3.409-273.199-7.231-273.161-7.284-269.422-7.348-260.693-7.495-251.964-7.657-243.235-7.677-238.955-7.686-234.632-7.718-230.404-7.159-222.972-6.177-215.479-5.786-208.044-5.646-189.683-5.298-171.318-5.657-152.945-6.298-133.073-6.99-113.164-6.419-93.27-5.646-85.177-5.332-77.121-4.1-68.998-4.542-68.547-4.566-68.083-4.466-67.633-4.383-61.449-3.242-55.151-3.339-48.918-2.931-42.984-2.542-37.034-2.043-31.115-1.596-20.747-.812-10.417 .28 0 0M-47.691 19.27C-45.395 19.27-43.095 19.202-40.801 19.28-23.216 19.882-5.603 18.276 11.974 20.106 18.812 20.818 18.835 20.585 18.739 27.653 18.731 28.265 18.699 28.877 18.719 29.488 18.779 31.397 17.879 32.25 15.958 32.258 6.319 32.298-3.258 33.413-12.863 33.949-25.674 34.664-38.521 34.79-51.354 34.968-64.814 35.155-78.266 35.062-91.72 34.167-100.413 33.588-109.158 34.132-117.888 33.688-124.144 33.371-130.28 31.958-136.599 32.17-139.988 32.284-143.262 33.153-146.627 33.155-157.959 33.162-169.292 33.204-180.623 33.091-192.556 32.972-204.484 32.744-216.386 33.963-217.895 34.117-219.467 34.117-220.962 33.88-228.283 32.722-235.581 33.252-242.927 33.692-252.088 34.24-261.282 34.224-270.46 34.507-272.767 34.578-273.309 33.359-273.275 31.365-273.217 27.847-273.341 24.325-273.248 20.808-273.164 17.611-272.815 17.502-269.717 17.871-265.634 18.358-261.603 19.268-257.458 19.276-250.858 19.291-244.464 17.629-237.952 17.003-232.048 16.436-226.188 15.201-220.175 15.805-210.751 16.75-201.298 17.412-191.82 17.449-180.489 17.494-169.156 17.398-157.825 17.417-147.26 17.435-136.678 17.168-126.134 17.674-114.076 18.252-102.027 19.105-89.955 19.232-75.869 19.382-61.779 19.268-47.691 19.27M-10.603-45.015C-3.353-45.209 6.134-44.725 15.618-44.192 16.664-44.134 18.069-44.384 18.398-43.144 18.947-41.078 19.169-38.813 18.33-36.829 17.587-35.071 15.634-35.763 14.199-35.779 2.856-35.905-8.474-35.267-19.808-35.188-33.594-35.094-47.383-35.657-61.171-35.723-93.194-35.874-125.201-34.139-157.231-34.833-158.914-34.87-160.638-34.731-162.27-35.047-167.697-36.096-173.224-36.021-178.691-36.545-186.437-37.286-194.198-38.019-201.935-38.789-209.979-39.591-218.042-40.401-226.089-41.083-238.593-42.141-251.161-42.517-263.729-42.188-265.873-42.132-268.021-42.247-270.164-42.175-272.297-42.104-273.23-43.025-273.21-45.166-273.174-48.84-273.303-52.515-273.269-56.188-273.229-60.419-273.079-60.588-268.851-60.601-256.744-60.638-244.639-60.626-232.532-60.611-231.311-60.609-230.063-60.587-228.872-60.355-223.143-59.241-217.294-59.703-211.514-58.986-208.062-58.559-204.591-57.667-201.05-57.916-195.823-58.283-190.638-57.34-185.543-56.684-175.677-55.413-165.733-54.618-155.887-54.485-139.351-54.262-122.841-53.112-106.304-53.306-101.995-53.356-97.805-52.427-93.548-52.062-87.175-51.517-80.852-50.421-74.497-49.64-68.14-48.858-61.761-48.243-55.407-47.434-46.311-46.274-37.213-45.146-28.029-45.026-22.974-44.96-17.916-45.015-10.603-45.015M-41.078-27.446C-33.581-27.32-26.088-27.057-18.581-27.281-7.258-27.621 4.079-27.524 15.41-27.525 18.542-27.525 18.633-27.349 18.701-23.994 18.779-20.17 18.769-16.344 18.748-12.518 18.726-8.157 18.703-8.113 14.453-8.111 4.806-8.108-4.852-7.891-14.485-8.272-20.585-8.515-26.749-8.62-32.777-9.392-40.044-10.322-47.347-11.264-54.61-11.637-65.755-12.21-76.884-13.049-88.022-13.563-104.379-14.32-120.771-14.354-137.148-14.578-144.624-14.681-152.097-14.094-159.557-13.872-177.305-13.346-195.079-13.692-212.843-13.714-214.52-13.716-216.196-13.899-217.872-14.025-224.107-14.497-230.296-15.543-236.573-15.53-247.445-15.51-258.318-15.492-269.19-15.533-272.989-15.548-273.177-15.745-273.248-19.327-273.324-23.15-273.192-26.979-273.293-30.802-273.356-33.182-272.343-33.991-270.021-34.006-255.029-34.102-240.033-34.148-225.087-32.889-221.751-32.607-218.352-32.563-215.07-31.937-209.797-30.93-204.442-31.065-199.145-30.394-191.436-29.416-183.662-28.959-175.918-28.252-170.302-27.739-164.685-26.677-159.077-26.734-138.425-26.943-117.78-26.3-97.109-27.263-78.471-28.132-59.759-27.446-41.078-27.446M18.724 52.105C18.724 54.707 18.791 57.31 18.707 59.909 18.601 63.246 18.102 63.758 14.936 63.373 2.364 61.842-10.198 60.269-22.842 59.396-26.974 59.111-31.167 58.454-35.208 59.149-42.035 60.326-48.921 59.752-55.778 60.53-66.693 61.77-77.733 62.283-88.727 62.381-113.522 62.604-138.323 63.162-163.119 62.027-176.412 61.418-189.732 61.362-203.016 60.625-209.265 60.277-215.534 60.11-221.763 59.579-232.168 58.69-242.532 58.576-252.921 59.617-258.542 60.18-264.234 59.38-269.845 60.573-271.674 60.962-273.198 60.149-273.209 57.882-273.229 53.598-273.249 49.314-273.231 45.03-273.226 43.318-272.47 42.687-270.616 42.866-267.885 43.13-265.1 43.221-262.366 43.012-250.173 42.083-237.981 41.247-225.74 41.323-216.405 41.381-207.07 41.336-197.735 41.297-196.213 41.291-194.669 41.207-193.174 40.939-189.674 40.313-186.088 40.034-182.65 40.56-174.71 41.775-166.758 41.134-158.813 41.299-154.528 41.388-150.161 41.773-145.971 41.126-138.606 39.991-131.365 40.205-124.099 41.484-122.444 41.775-120.834 42.263-119.125 42.251-102.146 42.131-85.179 42.41-68.209 43.116-58.755 43.51-49.278 42.782-39.818 42.527-31.425 42.301-22.979 42.369-14.577 42.11-9.569 41.955-4.474 41.757 .487 41.009 5.548 40.247 10.568 40.662 15.602 40.441 18.059 40.333 18.792 41.629 18.736 43.843 18.666 46.595 18.72 49.351 18.724 52.105M-244.584 94.79C-234.909 93.896-224.738 95.144-214.616 96.665-205.244 98.074-195.845 99.059-186.382 99.179-174.436 99.331-162.483 99.355-150.539 99.161-143.513 99.047-136.477 98.562-129.474 98.064-120.794 97.448-112.106 96.973-103.422 96.489-93.636 95.943-83.872 97.141-74.1 97.298-65.222 97.44-56.405 98.849-47.514 98.352-47.211 98.334-46.899 98.376-46.599 98.428-38.585 99.821-30.43 99.767-22.381 99.93-9.828 100.184 2.695 101.389 15.259 101.066 15.412 101.063 15.566 101.083 15.719 101.071 17.82 100.908 18.809 101.788 18.744 103.982 18.65 107.194 18.63 110.413 18.733 113.624 18.811 116.027 17.755 116.831 15.438 116.82 10.242 116.796 5.092 117.614-.085 117.976-6.777 118.442-13.447 119.355-20.169 119.404-32.576 119.494-44.983 119.441-57.391 119.52-76.517 119.641-95.605 118.859-114.717 118.06-134.739 117.221-154.815 117.106-174.87 116.828-192.478 116.583-210.097 117.145-227.691 115.947-231.353 115.698-235.081 116.12-238.703 115.654-249.043 114.325-259.376 113.485-269.797 114.4-272.582 114.645-273.118 114.29-273.205 111.521-273.34 107.239-273.182 102.949-273.297 98.666-273.362 96.216-272.235 95.507-269.965 95.52-261.698 95.568-253.481 94.151-244.584 94.79M-38.108-78.09C-24.996-78.817-8.178-77.416 8.661-77.141 11.249-77.098 13.824-76.514 16.414-76.297 17.894-76.173 18.686-75.546 18.686-74.049 18.687-67.772 18.686-61.497 18.668-55.222 18.665-53.938 17.967-53.25 16.684-53.196 15.766-53.158 14.846-53.143 13.927-53.145-1.086-53.166-16.099-53.186-31.111-53.229-32.485-53.232-33.863-53.344-35.231-53.487-42.823-54.287-50.415-55.09-58.001-55.936-66.646-56.898-75.319-57.68-83.917-58.968-91.021-60.031-98.174-61.182-105.29-61.275-116.932-61.428-128.535-62.806-140.171-62.343-154.585-61.769-168.876-63.53-183.207-64.406-187.139-64.647-191.123-64.917-195.065-65.351-202.499-66.169-209.91-67.459-217.363-67.771-230.512-68.32-243.66-69.24-256.841-68.808-261.279-68.662-265.727-68.831-270.169-68.757-272.253-68.722-273.328-69.464-273.26-71.663-273.199-73.651-273.277-75.644-273.279-77.634-273.287-84.483-273.284-84.553-266.524-84.524-241.865-84.422-217.205-84.269-192.546-84.131-191.78-84.126-191.014-84.096-190.249-84.055-173.436-83.145-156.566-84.323-139.771-82.694-135.216-82.253-130.596-82.249-126.099-81.489-119.015-80.292-111.86-79.66-104.739-79.22-92.993-78.491-81.2-79.023-69.421-78.216-60.271-77.589-51.045-78.09-38.108-78.09M-240.959 67.006C-232.638 67.122-226.059 67.629-219.518 67.769-208.809 67.998-198.146 69.458-187.42 68.934-186.658 68.896-185.882 68.93-185.126 69.031-173.557 70.57-161.878 70.166-150.272 70.522-123.488 71.344-96.675 70.712-69.893 69.699-65.342 69.527-60.755 69.108-56.194 68.71-46.601 67.873-36.993 67.23-27.37 67.215-23.58 67.208-19.805 68.238-15.951 68.015-13.965 67.9-12.013 68.276-10.035 68.553-1.581 69.733 6.838 71.248 15.387 71.675 18.524 71.832 18.65 71.902 18.707 75.21 18.782 79.65 18.761 84.092 18.709 88.532 18.66 92.721 18.35 93.074 14.28 92.793 2.805 92-8.685 91.994-20.177 91.971-23.394 91.964-26.626 92.095-29.825 91.838-39.732 91.041-49.624 90.039-59.581 90.107-60.5 90.113-61.439 90.175-62.335 90.017-71.277 88.438-80.354 89.351-89.358 88.472-100.655 87.369-111.979 89.516-123.318 89.245-123.774 89.234-124.236 89.301-124.688 89.376-131.645 90.531-138.7 90.791-145.701 90.952-158.406 91.243-171.115 91.672-183.843 91.191-189.2 90.988-194.487 90.055-199.847 90.137-204.756 90.211-209.556 89.242-214.392 88.619-219.994 87.896-225.587 86.716-231.205 86.573-240.995 86.325-250.811 86.074-260.596 87.18-263.777 87.539-267.025 87.287-270.241 87.388-272.384 87.456-273.294 86.508-273.266 84.376-273.212 80.396-273.321 76.413-273.258 72.433-273.198 68.654-272.794 67.993-269.03 68.099-259.06 68.38-249.184 66.397-240.959 67.006M-574.992 127.199C-573.638 130.705-572.332 134.072-571.034 137.443-562.198 160.405-550.792 182.047-536.64 202.143-523.216 221.204-508.114 238.865-490.821 254.632-469.642 273.942-446.378 290.17-420.842 303.164-396.976 315.308-371.82 323.831-345.782 329.894-335.514 332.285-325.087 333.738-314.675 335.262-312.543 335.574-311.692 336.437-311.765 338.479-311.808 339.703-311.762 340.929-311.762 342.154-311.761 369.716-311.743 442.459-311.774 470.022-311.782 477.333-310.819 476.921-318.724 476.925-359.179 476.944-399.634 476.941-440.089 476.932-482.23 476.922-524.371 476.9-566.512 476.872-568.809 476.87-571.106 476.733-573.404 476.699-574.864 476.677-575.714 476.096-575.678 474.531-575.661 473.766-575.684 473-575.684 472.234-575.687 373.316-575.691 229.216-575.674 130.298-575.673 129.333-576.134 128.226-574.992 127.199M-575.187-79.62C-575.961-81.632-575.681-83.122-575.682-84.552-575.714-155.431-575.739-226.309-575.746-297.187-575.748-325.202-575.708-398.795-575.685-426.81-575.681-431.442-575.674-431.442-570.897-431.481-570.744-431.482-570.591-431.482-570.437-431.482-486.023-431.482-401.609-431.483-317.194-431.479-311.779-431.479-311.765-431.457-311.764-425.839-311.759-397.059-311.762-322.699-311.762-293.919-311.762-293.154-311.734-292.387-311.774-291.623-311.934-288.572-312.513-287.817-315.531-287.584-318.124-287.385-320.682-287.01-323.255-286.7-337.093-285.039-350.631-281.959-364.02-278.229-393.574-269.998-421.143-257.238-447.082-240.98-471.232-225.844-492.849-207.561-511.833-186.351-535.601-159.797-554.443-130.021-568.184-97.092-570.518-91.5-572.697-85.845-575.187-79.62M-2.886-124.605C-5.203-132.132-5.295-132.2-12.29-132.22-21.638-132.245-31.02-131.772-40.323-132.424-54.841-133.439-69.385-133.267-83.907-133.835-101.789-134.535-119.733-134.338-137.658-133.276-151.251-132.471-164.852-133.45-178.435-134.776-185.568-135.473-192.669-136.441-199.796-137.177-206.539-137.873-213.241-137.83-219.958-137.392-225.587-137.023-231.196-136.354-236.82-135.892-242.458-135.428-248.133-135.287-253.737-134.576-259.251-133.876-264.752-134.243-270.256-134.058-272.413-133.985-273.301-134.931-273.268-137.063-273.209-140.737-273.303-144.413-273.271-148.088-273.235-152.438-273.206-152.381-268.992-152.521-255.049-152.989-241.162-151.531-227.233-151.354-212.851-151.172-198.479-150.256-184.099-149.82-174.917-149.542-165.738-149.832-156.547-149.08-149.393-148.495-142.13-148.581-134.958-149.031-123.667-149.739-112.398-150.712-101.072-150.702-75.345-150.68-49.616-150.683-23.889-150.729-22.192-150.731-20.29-150.141-18.855-151.43-20.696-157.218-24.261-159.084-30.286-159-56.331-158.639-82.384-158.848-108.434-158.836-110.424-158.835-112.429-158.863-114.402-158.651-124.143-157.607-133.891-156.895-143.701-157.004-154.423-157.124-165.144-157.023-175.859-157.641-181.667-157.975-187.532-157.541-193.312-158.09-206.747-159.365-220.234-159.006-233.688-159.603-245.449-160.123-257.217-161.287-269.021-160.727-269.479-160.705-269.939-160.745-270.398-160.771-272.224-160.876-273.204-161.808-273.219-163.671-273.24-166.274-273.306-168.877-273.269-171.479-273.211-175.556-273.136-175.606-269.155-175.64-268.236-175.647-267.316-175.574-266.398-175.6-249.238-176.084-232.118-174.653-214.97-174.52-202.578-174.423-190.2-174.594-177.789-173.884-163.135-173.045-148.401-173.627-133.713-172.787-126.516-172.376-119.338-173.687-112.15-173.567-88.396-173.174-64.67-174.527-40.925-174.599-39.471-174.603-37.874-174.16-36.354-175.446-39.38-179.785-42.132-183.032-48.563-182.959-76.292-182.64-104.006-181.548-131.73-181.448-151.939-181.376-172.156-182.177-192.362-182.501-215.946-182.88-239.523-183.934-263.118-183.742-265.562-183.722-268.006-184.094-270.453-184.184-272.37-184.255-273.229-185.223-273.234-187.057-273.243-189.812-273.248-192.568-273.221-195.324-273.209-196.51-272.769-197.46-271.403-197.486-268.184-197.551-265.097-198.679-261.83-198.499-256.464-198.204-251.147-199.187-245.826-199.614-237.755-200.263-229.678-200.944-221.598-201.154-209.656-201.463-197.705-200.702-185.767-200.609-146.081-200.302-106.393-200.441-66.705-200.456-64.767-200.457-62.729-200.17-60.872-201.164-63.641-206.203-67.043-208.499-71.864-208.509-121.661-208.607-171.46-208.139-221.254-209.229-227.965-209.376-234.706-208.773-241.415-208.276-250.854-207.575-260.274-206.623-269.707-205.834-272.535-205.597-273.152-206.167-273.226-209.232-273.33-213.671-273.339-218.114-273.247-222.553-273.184-225.618-272.805-226.039-269.725-225.946-266.061-225.836-262.408-225.225-258.745-225.149-249.104-224.954-239.467-224.68-229.829-224.375-212.088-223.814-194.343-223.508-176.617-222.422-168.379-221.917-160.097-221.864-151.856-221.671-137.773-221.342-123.711-220.083-109.608-220.496-105.168-220.627-100.737-220.327-96.302-219.926-91.654-219.504-86.964-219.311-81.606-219.999-84.71-223.033-87.465-225.343-90.488-227.315-91.074-227.698-91.959-227.742-92.706-227.742-99.443-227.746-106.114-228.98-112.875-228.693-126.515-228.114-140.102-230.145-153.744-229.639-154.201-229.622-154.667-229.65-155.12-229.718-164.687-231.145-174.365-230.526-183.98-231.317-191.893-231.968-199.883-231.624-207.845-231.95-225.591-232.675-243.357-232.867-261.115-233.31-264.328-233.39-267.539-233.612-270.749-233.8-272.729-233.915-273.217-235.177-273.223-236.943-273.228-238.831-272.486-239.919-270.53-239.758-267.729-239.528-265.103-240.649-262.339-240.681-251.324-240.806-240.295-240.275-229.309-241.634-224.922-242.177-220.477-242.248-216.091-242.793-210.184-243.526-204.299-244.474-198.325-244.378-190.223-244.248-182.11-243.893-174.026-243.716-155.191-243.304-136.348-243.019-117.509-242.638-116.592-242.619-115.339-242.054-114.633-243.753-117.06-245.243-119.556-246.686-121.956-248.272-124.865-250.197-127.952-250.835-131.473-250.805-140.037-250.731-148.608-251.118-157.169-251.372-170.93-251.779-184.679-253.173-198.464-252.55-203.65-252.315-208.884-252.212-213.992-251.397-222.46-250.048-230.995-249.545-239.511-248.999-248.513-248.423-257.562-249.008-266.585-248.068-273.211-247.379-273.281-247.694-273.27-254.238-273.269-254.851-273.213-255.468-273.269-256.075-273.494-258.562-272.187-259.235-269.941-259.151-265.657-258.989-261.357-259.119-257.081-258.845-249.435-258.353-241.746-257.636-234.142-258.449-224.534-259.476-214.857-258.578-205.281-260.004-200.462-260.722-195.582-261.043-190.725-261.495-181.924-262.313-173.303-264.575-164.41-264.695-162.697-264.718-160.992-265.24-159.283-265.532-163.765-268.396-168.405-270.251-173.19-271.716-174.315-272.06-175.662-272.01-176.842-271.791-181.34-270.958-185.887-270.475-190.398-269.777-199.782-268.327-209.235-267.614-218.68-267.38-234.605-266.984-250.545-266.931-266.48-267.248-273.368-267.385-273.308-267.12-273.27-274.644-273.26-276.512-272.589-277.592-270.595-277.45-267.348-277.219-264.208-278.229-261.019-278.321-250.617-278.624-240.415-280.811-230.028-281.404-225.917-281.64-221.479-281.395-217.599-283.22-219.85-285.065-222.776-284.75-225.418-285.208-232.758-286.48-240.089-288.196-247.642-287.479-254.327-286.845-261.055-286.774-267.717-285.783-272.528-285.067-273.25-285.688-273.255-290.313-273.288-320.784-273.288-396.833-273.269-427.305-273.266-431.379-273.187-431.382-269.182-431.476-268.416-431.493-267.649-431.482-266.884-431.482-173.717-431.482-80.55-431.485 12.617-431.478 19.383-431.478 18.723-431.937 18.726-425.206 18.744-362.12 18.75-253.457 18.747-190.372 18.746-155.001 18.724-119.631 18.69-84.26 18.689-82.993 18.946-81.638 17.883-79.569 16.808-83.563 15.02-85.526 11.304-85.373 .424-84.924-10.431-85.998-21.3-86.177-31.404-86.343-41.521-85.792-51.625-85.994-71.361-86.388-91.105-86.538-110.813-88.024-118.732-88.622-126.569-89.939-134.521-90.249-141.236-90.511-147.933-91.692-154.637-91.697-175.629-91.713-196.608-92.256-217.594-92.561-235.05-92.814-252.521-93.139-269.976-92.292-272.071-92.19-273.235-92.76-273.228-94.981-273.225-95.746-273.203-96.514-273.245-97.277-273.35-99.142-272.621-100.188-270.621-100.122-269.55-100.087-268.474-100.18-267.404-100.132-253.615-99.509-239.875-100.91-226.113-101.301-220.485-101.46-214.832-101.97-209.176-102.034-208.87-102.037-208.556-102.028-208.26-102.091-202.188-103.372-196.079-102.79-189.957-102.645-183.992-102.503-177.988-102.523-172.053-103.05-162.913-103.86-153.768-104.353-144.607-104.752-140.125-104.948-135.78-103.777-131.334-103.822-123.214-103.906-115.129-102.911-107.174-101.729-96.238-100.106-85.251-100.152-74.302-99.351-60.998-98.377-47.698-100.581-34.367-100.168-33.613-100.145-32.855-100.369-32.096-100.438-24.038-101.159-16.019-102.12-7.866-101.422-2.445-100.958 3.048-101.334 8.635-101.334 8.739-103.013 7.678-104.263 7.285-105.702 6.51-108.542 4.677-109.487 1.801-109.303-.94-109.127-3.787-108.975-6.45-109.503-14.604-111.122-22.624-109.256-30.692-108.93-36.636-108.689-42.553-107.853-48.494-107.464-50.765-107.315-53.094-107.961-55.353-107.756-68.688-106.544-82.013-107.506-95.254-108.596-105.103-109.406-114.947-110.88-124.801-111.826-138.371-113.129-152.046-112.904-165.62-111.805-174.95-111.049-184.25-110.774-193.585-110.807-197.874-110.82-202.168-110.843-206.452-110.678-216.691-110.284-226.894-109.107-237.158-109.216-238.379-109.229-239.612-109.135-240.823-108.97-250.59-107.637-260.405-108.651-270.192-108.334-272.326-108.265-273.258-109.189-273.232-111.326-273.188-115.153-273.172-118.983-273.291-122.809-273.37-125.32-272.089-125.922-269.885-125.881-266.823-125.824-263.7-125.588-260.706-126.07-252.971-127.317-245.142-126.703-237.377-127.605-231.788-128.255-226.156-128.758-220.537-129.245-214.122-129.8-207.634-130.081-201.273-129.218-191.445-127.882-181.6-126.51-171.723-126.023-160.287-125.462-148.854-125.009-137.333-125.414-114.233-126.228-91.104-126.132-67.965-125.196-46.417-124.326-24.818-124.302-2.886-124.605M10.694 143.901C8.271 143.111 5.967 143.532 3.691 143.513-5.947 143.431-15.616 143.834-25.218 143.2-38.367 142.331-51.542 142.086-64.687 141.77-87.186 141.228-109.645 140.247-132.117 139.081-148.463 138.233-164.901 138.043-181.264 138.357-196.274 138.646-211.286 138.497-226.289 138.903-231.99 139.057-237.59 138.232-243.198 137.711-250.655 137.019-258.004 136.251-265.559 136.816-274.643 137.495-273.039 137.421-273.265 129.946-273.27 129.793-273.268 129.64-273.269 129.487-273.31 122.666-272.969 122.317-266.12 122.179-265.661 122.17-265.201 122.18-264.741 122.173-254.79 122.042-244.917 123.154-235.012 123.866-225.395 124.558-215.732 124.79-206.087 124.872-173.479 125.151-140.869 124.659-108.275 126.622-96.379 127.338-84.396 127.531-72.455 127.564-44.138 127.644-15.814 127.792 12.434 125.107 19.733 124.414 18.722 125.091 18.722 131.062 18.733 229.363 18.717 372.845 18.704 471.146 18.704 472.218 18.692 473.29 18.665 474.361 18.622 476.032 17.728 476.873 16.08 476.932 15.162 476.966 14.242 476.981 13.323 476.981-79.842 476.965-173.007 476.948-266.173 476.927-267.397 476.927-268.624 476.828-269.848 476.859-272.072 476.916-273.371 476.094-273.173 473.653-273.124 473.046-273.203 472.43-273.204 471.817-273.23 433.844-273.265 350.691-273.269 312.718-273.27 308.708-272.971 308.455-268.855 307.983-261.942 307.19-255.062 308.161-248.267 308.996-241.06 309.882-233.887 309.778-226.74 309.39-218.052 308.917-209.396 307.816-200.674 307.807-184.125 307.79-167.572 307.594-151.028 307.894-143.279 308.034-137.895 303.352-131.639 300.24-133.101 299.76-134.444 299.646-135.788 299.645-158.773 299.629-181.76 299.502-204.742 299.697-211.909 299.758-219.064 300.773-226.233 301.21-232.806 301.611-239.394 301.783-245.961 301.089-252.197 300.429-258.41 299.648-264.706 299.588-267.376 299.562-270.711 301.252-272.584 299.125-274.327 297.146-273.212 293.833-273.241 291.112-273.29 286.707-273.205 286.74-268.533 286.644-260.111 286.469-251.761 288.016-243.333 287.675-243.182 287.669-243.028 287.708-242.878 287.735-232.637 289.597-222.41 288.018-212.218 287.345-203.68 286.782-195.15 285.912-186.598 285.811-176.348 285.69-166.108 285.909-155.847 286.477-141.939 287.248-127.957 286.585-114.036 287.208-107.394 287.505-103.55 283.543-98.113 280.114-100.479 279.264-101.989 279.434-103.456 279.427-112.343 279.386-121.237 279.59-130.115 279.291-141.432 278.91-152.744 278.152-164.054 277.769-175.811 277.37-187.594 277.23-199.396 278.275-206.37 278.894-213.428 279.224-220.431 279.743-225.955 280.152-231.413 280.293-236.927 279.959-246.244 279.395-255.565 278.821-264.895 278.542-273.831 278.275-273.349 279.738-273.256 269.054-273.241 267.389-272.562 266.465-270.809 266.485-266.83 266.528-262.858 266.413-258.873 266.762-250.041 267.536-241.17 268.369-232.316 267.797-223.614 267.236-214.874 266.834-206.197 266.667-180.312 266.17-154.411 266.567-128.517 266.593-113.5 266.608-98.483 266.604-83.468 266.555-79.583 266.542-74.953 263.172-73.355 259.187-75.768 259.187-78.057 259.195-80.345 259.185-95.515 259.117-110.693 259.358-125.852 258.907-154.031 258.069-182.184 257.959-210.372 258.983-230.246 259.706-250.173 259.792-270.057 258.31-272.434 258.132-273.32 257.217-273.26 254.943-273.187 252.189-273.328 249.429-273.243 246.676-273.144 243.496-273.049 243.468-269.719 243.425-265.127 243.365-260.479 243.74-255.954 243.155-247.053 242.004-238.267 242.46-229.489 243.931-224.76 244.724-219.971 244.816-215.314 244.124-205.619 242.682-195.853 241.95-186.112 241.802-172.659 241.597-159.183 241.045-145.714 242.413-140.408 242.952-135.101 243.372-129.807 244.115-123.316 245.027-116.777 246.011-110.244 246.125-94.009 246.41-77.764 246.227-61.522 246.213-56.97 246.209-53.019 243.108-51.322 238.092-52.782 238.092-54.151 238.081-55.52 238.094-66.856 238.202-78.194 238.303-89.531 238.429-100.709 238.553-111.938 238.486-122.959 236.802-134.632 235.019-146.355 234.26-158.083 233.633-168.167 233.094-178.306 233.385-188.416 233.575-194.523 233.69-200.712 233.792-206.704 234.827-216.316 236.487-225.852 236.598-235.412 235.09-241.986 234.053-248.507 234.224-255.066 234.963-260.103 235.531-265.147 235.483-270.188 234.985-271.866 234.819-273.197 234.23-273.208 232.251-273.229 228.731-273.236 225.21-273.203 221.689-273.19 220.438-272.488 219.601-271.214 219.684-267.195 219.944-263.312 218.825-259.332 218.656-244.932 218.042-230.598 219.97-216.21 219.698-215.602 219.686-214.992 219.828-214.381 219.875-204.008 220.675-193.615 221.11-183.217 220.786-179.392 220.667-175.563 220.632-171.741 220.467-167.431 220.281-163.213 221.028-158.952 221.364-153.898 221.762-148.877 220.78-143.846 220.663-133.432 220.419-123.006 220.443-112.589 220.6-105.092 220.712-97.583 220.999-90.113 221.615-83.439 222.166-76.827 223.432-70.16 224.101-60.408 225.081-50.605 225.127-40.812 225.284-39.485 225.305-38.433 225.052-37.481 224.152-35.722 222.486-34.28 220.636-33.264 217.749-39.321 218.332-44.735 216.853-50.239 216.973-60.058 217.186-69.795 215.969-79.477 214.847-89.057 213.737-98.662 213.045-108.248 212.617-121.238 212.036-134.273 211.916-147.285 213.056-152.146 213.482-157.121 213.474-161.97 212.963-168.711 212.252-175.408 212.288-182.146 212.614-193.176 213.149-204.217 212.605-215.207 212-223.438 211.547-231.697 211.318-239.936 210.683-248.124 210.052-256.459 209.87-264.687 211.263-266.479 211.565-268.358 211.324-270.195 211.392-272.313 211.472-273.326 210.516-273.247 208.383-273.213 207.466-273.263 206.546-273.269 205.628-273.316 198.256-273.302 198.434-265.866 197.811-254.414 196.849-242.981 198.283-231.512 197.684-220.054 197.086-208.538 197.645-197.05 197.508-186.634 197.384-176.288 198.757-165.854 198.524-152.533 198.226-139.205 198.436-125.88 199.134-115.349 199.687-104.793 199.582-94.243 200.152-85.243 200.638-76.227 201.206-67.203 201.501-61.567 201.685-55.84 201.507-50.265 202.292-41.54 203.518-32.823 202.703-24.111 203.023-22.868 203.069-21.566 203.067-20.724 201.999-19.156 200.016-17.342 198.151-16.483 194.881-18.738 194.881-20.526 194.809-22.307 194.892-41.932 195.81-61.433 192.908-81.03 193.013-81.488 193.015-81.947 192.956-82.404 192.907-91.226 191.951-100.068 191.327-108.944 191.203-114.302 191.128-119.654 191.097-125.015 190.855-148.121 189.816-171.265 190.661-194.38 189.446-204.618 188.909-214.916 189.111-225.173 189.416-239.563 189.844-253.979 188.698-268.348 190.196-269.105 190.275-269.879 190.229-270.644 190.209-272.302 190.167-273.211 189.314-273.219 187.647-273.244 182.594-273.235 177.542-273.246 172.489-273.25 170.794-272.421 169.965-270.722 169.979-269.803 169.987-268.883 169.971-267.964 169.945-256.487 169.62-245.102 170.678-233.669 171.575-224.561 172.29-215.388 172.955-206.183 172.798-190.714 172.536-175.236 172.766-159.763 172.803-128.999 172.875-98.235 172.15-67.49 174.402-57.752 175.116-47.981 175.816-38.26 176.643-28.141 177.503-18.064 176.938-7.979 177.331-6.737 177.379-5.468 177.362-4.656 176.214-3.26 174.239-1.882 172.241-1.651 169.806-2.831 168.996-3.908 169.367-4.956 169.358-14.606 169.275-24.278 169.54-33.902 168.99-46.397 168.276-58.837 166.559-71.334 165.914-86.47 165.133-101.639 164.968-116.795 164.634-136.396 164.201-155.977 165.893-175.601 164.94-188.292 164.324-201.032 164.771-213.746 164.521-222.764 164.344-231.773 163.867-240.75 162.836-249.104 161.878-257.464 160.813-265.911 161.754-267.425 161.923-268.974 161.772-270.506 161.782-272.106 161.793-273.196 161.197-273.207 159.428-273.231 155.448-273.234 151.468-273.225 147.488-273.222 146.003-272.44 145.251-270.95 145.214-268.807 145.161-266.59 145.424-264.535 144.967-257.913 143.493-251.443 145.368-244.909 145.598-240.353 145.758-235.822 146.85-231.271 146.922-219.475 147.112-207.668 147.202-195.876 146.905-175.494 146.392-155.12 146.891-134.746 147.1-127.729 147.172-120.607 147.286-113.681 148.164-104.07 149.381-94.449 148.573-84.833 149.553-73.752 150.682-62.509 150.147-51.343 150.417-33.737 150.84-16.138 151.954 1.487 151.649 8.229 151.533 8.233 151.619 10.586 145.213 10.685 144.945 10.64 144.624 10.694 143.901M-592.17 22.781C-592.17 161.958-592.175 346.315-592.156 485.493-592.155 493.504-593.185 492.625-585.101 492.626-380.698 492.642-176.296 492.64 28.106 492.633 35.036 492.633 34.831 493.396 34.831 485.921 34.828 207.26 34.828-162.158 34.815-440.818 34.815-448.941 35.389-447.905 27.613-447.906-176.481-447.926-380.577-447.928-584.672-447.906-593.457-447.905-592.148-448.969-592.15-440.327-592.178-301.15-592.17-116.396-592.17 22.781"/>
<path transform="matrix(1,0,0,-1,524.0889,454.31105)" d="M0 0C.036-18.64-.333-37.289 .979-55.907 1.043-56.82 1.146-57.73 1.238-58.642 1.759-63.789 2.351-68.929 2.788-74.083 3.468-82.124 4.063-90.173 4.65-98.222 4.789-100.126 5.728-100.957 7.593-100.896 9.428-100.836 11.265-100.793 13.101-100.785 16.52-100.768 16.468-100.735 16.677-97.214 16.861-94.114 15.634-91.182 15.788-88.107 16.087-82.129 15.113-76.201 14.569-70.306 13.686-60.743 12.842-51.156 12.299-41.591 11.634-29.869 10.581-18.127 11.106-6.343 11.345-1 10.689 4.42 11.328 9.698 12.5 19.396 12.453 29.18 13.841 38.86 14.62 44.291 14.015 44.651 8.663 44.675 7.286 44.682 5.907 44.685 4.531 44.64 .055 44.494 .015 44.485 .008 39.915-.014 26.61 0 13.305 0 0M-7.24 .222H-7.254V9.86C-7.254 20.111-7.222 30.362-7.271 40.613-7.288 44.383-7.53 44.61-11.099 44.687-14.466 44.758-17.838 44.753-21.204 44.651-24.666 44.547-24.663 44.419-24.802 40.91-25.112 33.103-23.837 25.374-23.651 17.582-23.564 13.975-23.307 10.264-22.818 6.671-22.26 2.564-22.519-1.596-21.801-5.627-20.861-10.908-20.718-16.251-20.374-21.542-19.957-27.929-19.141-34.282-18.977-40.701-18.719-50.768-17.68-60.818-17.497-70.885-17.333-79.889-16.861-88.93-18.069-97.919-18.355-100.045-17.355-101.026-15.201-101.034-11.989-101.046-8.807-100.51-5.57-100.762-2.782-100.98-2.848-100.675-2.567-97.61-2.239-94.03-3.535-90.659-3.553-87.148-3.599-78.132-5.322-69.249-5.625-60.242-5.886-52.471-6.998-44.725-7.167-36.956-7.438-24.568-7.24-12.171-7.24 .222M89.338-30.629H89.329C89.329-10.133 89.331 10.364 89.325 30.86 89.324 32.542 89.427 34.245 89.212 35.903 87.973 45.481 90.886 44.879 78.974 44.495 76.996 44.431 76.274 43.543 76.013 41.836 75.852 40.78 75.536 39.737 75.475 38.678 74.855 27.859 73.88 17.029 73.741 6.224 73.515-11.337 73.158-28.906 74.245-46.497 74.94-57.747 75.417-69.071 75.37-80.374 75.345-86.343 76.936-92.197 76.404-98.192 76.238-100.074 77.343-101.003 79.224-100.941 81.365-100.871 83.504-100.758 85.646-100.688 89.195-100.572 89.205-100.581 89.326-97.166 89.364-96.097 89.337-95.025 89.337-93.954 89.338-72.846 89.338-51.737 89.338-30.629M96.479-27.982H96.574C96.574-44.967 96.572-61.952 96.575-78.938 96.576-85.211 96.641-91.486 96.563-97.758 96.534-100.092 97.393-101.174 99.787-100.995 101.312-100.881 102.848-100.922 104.379-100.89 109.543-100.782 109.597-100.781 109.557-95.4 109.492-86.532 109.817-77.659 109.121-68.796 108.412-59.777 109.565-50.775 109.568-41.761 109.57-37.326 109.866-32.915 110.184-28.488 110.534-23.622 111.152-18.777 111.396-13.906 111.814-5.522 113.002 2.792 113.491 11.178 113.978 19.534 115.141 27.849 115.926 36.189 116.112 38.162 115.962 40.166 115.987 42.154 116.006 43.617 115.37 44.483 113.854 44.539 108.65 44.73 103.446 44.881 98.243 44.543 96.821 44.451 95.988 43.69 95.909 42.233 95.851 41.164 95.847 40.092 95.814 39.021 95.542 30.293 96.358 21.59 96.443 12.874 96.577-.744 96.479-14.363 96.479-27.982M47.81-15.738C47.913-25.795 48.173-36.956 48.493-48.119 48.904-62.487 49.688-76.856 49.672-91.239 49.669-93.853 50.145-96.405 50.55-98.975 50.791-100.504 51.504-101.087 52.959-101.051 57.706-100.932 62.453-100.833 67.199-100.722 68.476-100.692 69.202-100.11 69.149-98.749 69.119-97.984 69.12-97.218 69.116-96.452 69.061-86.516 68.047-76.636 67.444-66.731 66.831-56.657 67.093-46.559 66.536-36.459 65.423-16.281 66.849 3.917 67.345 24.105 67.364 24.868 67.447 25.638 67.593 26.386 68.601 31.548 67.894 36.779 68.242 41.966 68.357 43.681 67.586 44.592 65.886 44.608 61.597 44.649 57.307 44.633 53.017 44.659 51.258 44.669 50.86 43.688 50.533 42.097 49.818 38.621 49.84 35.117 49.541 31.622 48.657 21.272 47.736 10.931 47.804 .529 47.837-4.523 47.81-9.577 47.81-15.738M18.384-9.007C17.537-20.184 19.037-31.293 19.489-42.426 19.878-52.003 21.398-61.53 21.94-71.106 22.432-79.792 23.133-88.452 23.875-97.114 24.206-100.96 24.155-101.017 27.731-101.034 31.557-101.053 35.383-100.976 39.209-100.91 43.032-100.843 43.856-100.061 43.258-96.231 41.813-86.989 42.288-77.646 41.643-68.36 40.987-58.925 41.477-49.436 40.956-39.956 40.042-23.31 40.64-6.623 40.601 10.047 40.598 11.266 40.792 12.484 40.873 13.705 41.493 23.144 42.092 32.584 42.741 42.021 42.86 43.743 42.302 44.577 40.471 44.565 35.268 44.532 30.062 44.677 24.862 44.564 21.489 44.492 21.253 44.255 21.261 40.746 21.272 35.846 20.3 31.048 20.008 26.172 19.491 17.506 18.268 8.883 18.378 .17 18.417-2.889 18.384-5.948 18.384-9.007M-253.614-44.375H-253.622C-253.622-25.855-253.622-7.335-253.623 11.185-253.623 21.287-253.589 31.388-253.653 41.49-253.67 44.25-254.157 44.577-256.946 44.57-259.712 44.563-259.947 44.252-260.251 41.457-261.512 29.894-261.303 18.256-261.883 6.661-262.731-10.278-262.916-27.256-263.725-44.208-264.25-55.212-263.94-66.231-264.298-77.248-264.779-92.08-264.582-106.936-264.631-121.781-264.722-149.024-264.994-176.27-264.788-203.511-264.608-227.21-265.51-250.912-264.026-274.617-263.139-288.786-261.63-302.948-262.04-317.188-262.084-318.707-261.714-320.233-261.676-321.76-261.628-323.65-260.77-324.562-258.867-324.543-255.65-324.509-252.434-324.5-249.218-324.5-247.399-324.5-246.878-323.479-246.92-321.835-247.101-314.8-246.75-307.71-247.51-300.74-248.642-290.372-247.808-279.966-248.91-269.588-249.762-261.565-249.531-253.399-249.714-245.314-250.013-232.165-250.909-219.035-250.915-205.88-250.917-200.678-250.949-195.485-251.465-190.293-252.269-182.205-251.4-174.064-251.948-165.976-253.106-148.875-253.186-131.741-253.505-114.625-253.942-91.215-253.614-67.792-253.614-44.375M-246.373-51.9C-245.772-75.05-247.055-105.493-245.709-135.945-244.82-156.096-244.533-176.283-243.813-196.452-243.122-215.853-242.901-235.269-241.883-254.663-241.466-262.595-241.404-270.552-241.159-278.488-240.768-291.166-239.605-303.821-239.942-316.535-240.175-325.288-241.088-324.56-231.777-324.511-228.083-324.492-227.851-324.351-227.972-320.558-228.17-314.307-228.22-308.003-229.124-301.837-229.84-296.951-229.502-292.072-230.077-287.207-230.828-280.844-231.33-274.435-231.541-268.032-231.752-261.619-232.423-255.242-232.751-248.839-233.306-238.013-234.296-227.201-234.321-216.353-234.36-199.371-233.969-182.394-233.636-165.414-233.007-133.299-233.386-101.177-231.792-69.063-230.86-50.288-231.464-31.442-230.821-12.625-230.22 4.957-230.571 22.57-230.518 40.17-230.505 44.281-230.529 44.306-234.46 44.526-236.447 44.638-238.44 44.682-240.43 44.687-246.292 44.7-246.356 44.686-246.361 38.951-246.386 11.097-246.373-16.757-246.373-51.9M-305.252-272.887H-305.327C-305.327-288.041-305.327-303.195-305.326-318.349-305.326-319.573-305.294-320.798-305.313-322.022-305.338-323.713-304.566-324.56-302.835-324.542-300.385-324.518-297.933-324.585-295.483-324.532-291.509-324.446-291.502-324.402-291.383-320.312-291.16-312.653-291.818-305.016-291.94-297.366-292.921-236.154-291.269-174.924-293.17-113.716-293.56-101.176-292.778-88.646-292.393-76.11-292.069-65.566-290.91-55.048-291.31-44.48-291.339-43.724-291.138-42.961-291.084-42.198-290.557-34.74-289.846-27.288-289.556-19.82-288.801-.389-289.729 19.05-289.524 38.486-289.512 39.71-289.544 40.935-289.579 42.159-289.62 43.634-290.372 44.384-291.873 44.409-295.242 44.467-298.612 44.658-301.978 44.592-305.055 44.532-304.938 44.4-305.372 41.074-306.328 33.729-305.379 26.404-305.355 19.07-305.261-11.084-305.313-41.238-305.268-71.393-305.256-79.35-305.666-87.293-305.505-95.261-305.147-113.003-304.694-130.748-304.482-148.487-304.125-178.472-304.122-208.465-305.186-238.45-305.593-249.915-305.252-261.407-305.252-272.887M-284.263-52.057C-284.263-56.814-283.97-60.211-284.318-63.542-285.305-72.976-285.64-82.446-285.88-91.908-286.309-108.736-285.306-125.56-285.194-142.379-284.86-192.737-285-243.099-285.14-293.458-285.166-302.789-283.533-312.032-284.141-321.366-284.15-321.518-284.128-321.672-284.133-321.824-284.205-323.771-283.212-324.582-281.324-324.558-278.26-324.52-275.195-324.599-272.133-324.514-268.855-324.422-268.213-323.824-268.751-320.681-269.405-316.867-269.294-313.053-269.293-309.234-269.291-301.581-270.098-293.965-270.462-286.333-270.993-275.196-272.09-264.087-272.077-252.916-272.043-224.751-272.119-196.586-272.042-168.422-272-152.506-271.857-136.594-271.403-120.677-270.494-88.868-271.649-57.034-270.349-25.213-269.875-13.614-268.778-2.013-269.235 9.624-269.264 10.38-269.094 11.146-268.996 11.904-267.735 21.628-269.016 31.481-267.514 41.194-267.491 41.343-267.519 41.5-267.51 41.652-267.406 43.579-268.333 44.439-270.246 44.433-273.155 44.423-276.068 44.582-278.975 44.49-282.128 44.391-282.27 44.278-282.27 40.953-282.269 33.149-282.58 25.311-281.967 17.55-280.877 3.755-282.075-9.988-282.487-23.728-282.783-33.625-283.65-43.536-284.263-52.057M-202.278-212.553C-202.146-225.94-201.992-241.685-201.536-257.438-201.054-274.093-199.958-290.748-200.387-307.433-200.504-312.014-200.117-316.607-200.06-321.197-200.032-323.445-199.181-324.648-196.8-324.56-195.118-324.498-193.43-324.574-191.746-324.548-187.392-324.482-187.45-324.473-187.408-320.254-187.34-313.367-187.982-306.515-188.268-299.649-188.847-285.76-189.345-271.871-190.06-257.985-190.681-245.924-190.927-233.817-190.653-221.746-190.469-213.644-190.28-205.539-190.192-197.433-190.184-196.668-190.197-195.899-190.12-195.14-188.709-181.125-189.154-167.036-188.506-152.988-187.865-139.09-188.528-125.138-188.343-111.214-187.948-81.541-188.8-51.872-187.704-22.183-186.982-2.645-186.19 16.961-187.269 36.549-187.741 45.122-187.62 45.129-196.348 44.637-199.933 44.435-200.469 44.176-200.371 40.611-200.101 30.807-201.68 21.077-201.366 11.28-200.998-.201-202.811-11.623-202.316-23.107-202.303-23.412-202.307-23.726-202.365-24.023-203.975-32.326-203.885-40.827-203.919-49.145-204.045-79.58-204.656-110.018-203.515-140.468-202.891-157.107-201.904-173.767-202.255-190.447-202.394-197.024-202.278-203.608-202.278-212.553M-211.208-88.682H-211.362C-211.362-76.588-211.495-64.493-211.316-52.401-211.193-44.147-210.828-35.885-210.221-27.652-209.424-16.829-208.985-5.993-208.647 4.846-208.347 14.476-208.94 24.125-207.788 33.741-207.462 36.458-207.733 39.246-207.702 42.001-207.683 43.663-208.289 44.524-210.13 44.495-213.191 44.446-216.257 44.675-219.318 44.619-222.477 44.562-222.755 44.25-222.997 41.263-223.183 38.977-223.37 36.684-223.391 34.392-223.604 11.287-223.122-11.82-224.246-34.923-224.908-48.511-224.103-62.135-225.123-75.751-225.909-86.255-225.524-96.83-225.979-107.382-226.917-129.088-225.89-150.83-226.761-172.564-227.429-189.227-227.039-205.931-227.1-222.617-227.105-224.145-226.993-225.675-226.904-227.202-226.374-236.345-225.686-245.482-225.35-254.633-225.125-260.742-224.514-266.834-224.033-272.904-223.671-277.46-223.892-282.069-223.128-286.595-222.109-292.629-222.242-298.765-221.799-304.84-221.39-310.457-220.176-316.046-220.629-321.731-220.779-323.604-219.829-324.574-217.894-324.545-215.903-324.515-213.911-324.555-211.919-324.531-207.354-324.476-207.169-324.458-207.402-319.987-208.184-305.007-207.631-290.013-208.312-275.014-209.097-257.754-209.195-240.44-209.407-223.15-209.802-190.875-209.303-158.594-211.095-126.331-211.789-113.818-211.208-101.234-211.208-88.682M-161.722 29.754C-161.722 33.123-161.7 36.491-161.727 39.859-161.764 44.476-161.842 44.571-166.244 44.65-169.307 44.705-172.374 44.717-175.437 44.658-179.792 44.574-180.005 44.382-180.074 39.861-180.47 13.55-180.395-12.762-180.962-39.079-181.745-75.346-181.158-111.643-181.159-147.926-181.159-152.515-181.392-157.094-181.577-161.678-182.426-182.766-183.331-203.859-183.659-224.958-183.861-237.948-183.062-250.954-182.71-263.952-182.702-264.258-182.678-264.563-182.663-264.869-182.161-274.938-181.635-285.005-181.166-295.076-180.774-303.469-179.867-311.842-180.095-320.262-180.107-320.719-179.995-321.178-180-321.636-180.021-323.805-178.843-324.597-176.805-324.563-174.048-324.518-171.287-324.627-168.533-324.531-165.384-324.422-165.44-324.355-165.359-320.958-165.224-315.292-166.046-309.67-166.193-304.038-166.453-294.103-166.842-284.143-167.501-274.263-168.563-258.361-167.731-242.454-168.841-226.553-169.894-211.462-168.63-196.325-167.401-181.213-166.562-170.886-165.268-160.614-164.201-150.324-163.273-141.367-162.612-132.387-161.871-123.425-161.179-115.063-161.074-106.604-160.998-98.225-160.834-80.168-159.389-62.143-159.842-44.079-159.954-39.642-159.818-35.2-159.838-30.76-159.876-22.494-159.56-14.202-160.093-5.967-160.864 5.935-161.134 17.85-161.722 29.754M-138.772-68.127C-138.772-40.565-138.707-13.002-138.81 14.56-138.843 23.436-139.295 32.312-139.604 41.186-139.714 44.348-139.885 44.521-143.083 44.637-145.838 44.736-148.599 44.649-151.357 44.653-153.36 44.656-154.493 43.893-154.465 41.667-154.359 33.248-154.759 24.796-154.167 16.414-153.445 6.192-152.957-4.053-152.809-14.264-152.53-33.384-152.66-52.511-153.297-71.65-153.836-87.849-154.539-104.068-154.539-120.296-154.539-126.238-155.146-132.191-155.688-138.119-156.396-145.855-157.354-153.567-158.132-161.297-158.895-168.872-159.602-176.452-160.27-184.035-160.832-190.415-161.737-196.804-161.728-203.187-161.708-217.258-161.93-231.32-161.16-245.41-160.443-258.525-160.458-271.707-160.067-284.859-159.831-292.81-158.977-300.718-158.821-308.68-158.741-312.767-158.171-316.885-158.104-321.016-158.057-324.014-157.584-324.455-154.578-324.537-150.903-324.638-147.222-324.499-143.546-324.563-141.43-324.601-140.453-323.765-140.5-321.59-140.552-319.143-140.44-316.692-140.383-314.244-139.823-290.381-139.133-266.521-138.745-242.656-138.498-227.5-138.832-212.335-138.65-197.178-138.533-187.371-139.599-177.588-139.248-167.802-138.06-134.582-139.249-101.348-138.772-68.127M-463.409-139.733V-160.858C-463.408-213.827-463.41-266.796-463.401-319.765-463.401-324.496-463.37-324.561-459.056-324.562-411.868-324.569-364.679-324.562-317.491-324.536-312.663-324.533-312.574-324.395-312.53-319.673-312.177-281.724-312.755-243.778-311.792-205.82-311.074-177.537-311.64-149.211-312.253-120.894-312.965-88.012-313.358-55.084-311.622-22.198-311.208-14.369-312.572-6.63-312.541 1.178-312.493 12.966-312.532 24.754-312.624 36.541-312.686 44.418-311.286 44.638-320.539 44.633-366.192 44.604-411.845 44.55-457.499 44.487-464.189 44.478-463.394 44.694-463.395 38.46-463.411-20.937-463.404-80.335-463.409-139.733M131.549-364.123H131.376C131.376-339.931 131.373-315.738 131.377-291.546 131.392-211.919 131.41-132.292 131.424-52.666 131.43-21.734 131.432 9.198 131.425 40.13 131.424 44.349 130.602 45.046 126.686 44.774 124.819 44.644 123.84 43.801 123.651 42.026 123.456 40.203 123.356 38.369 123.22 36.54 122.866 31.818 122.814 27.05 122.098 22.384 120.846 14.227 120.429 5.986 119.742-2.201 118.991-11.16 118.02-20.112 117.51-29.106 116.748-42.542 115.5-55.955 116.34-69.417 116.865-77.834 116.721-86.248 116.89-94.664 116.942-97.255 115.437-100.717 119.869-101.568 120.158-101.624 120.377-102.634 120.427-103.218 120.532-104.436 120.523-105.665 120.524-106.889 120.528-146.397 120.488-185.905 120.596-225.413 120.605-228.824 119-232.008 119.579-235.389 120.461-240.541 120.238-245.76 120.703-250.923 121.936-264.625 122.554-278.372 123.049-292.095 123.64-308.456 123.502-324.846 124.024-341.225 124.713-362.799 124.239-384.39 124.841-405.98 125.626-434.134 124.846-462.309 123.467-490.449 123.055-498.86 123.376-507.275 122.775-515.691 121.783-529.6 122.511-543.55 122.342-557.482 122.325-558.86 122.289-560.238 122.299-561.615 122.315-563.575 121.3-564.208 119.423-564.281 115.557-564.431 115.175-564.177 115.086-560.413 115.068-559.647 115.085-558.881 115.083-558.116 115.035-532.417 115.505-506.739 116.8-481.064 117.47-467.771 117.347-454.422 117.156-441.106 116.586-401.458 117.686-361.795 116.022-322.156 115.452-308.552 116.29-294.93 115.268-281.302 114.779-274.778 114.384-268.205 114.102-261.645 113.729-252.956 113.581-244.25 112.411-235.609 111.77-230.873 111.815-230.864 106.868-230.964 105.949-230.982 105.03-231.039 104.111-231.062 102.173-231.112 101.367-232.143 101.517-234.02 101.725-236.61 102.176-239.209 102.092-241.791 101.755-252.059 103.417-262.261 103.006-272.525 102.988-272.981 103.038-273.444 103.093-273.899 104.291-283.773 104.796-293.706 104.769-303.629 104.715-323.368 105.297-343.111 104.23-362.85 103.288-380.27 104.519-397.736 103.115-415.175 102.355-424.606 102.795-434.119 102.315-443.605 101.759-454.591 100.665-465.536 100.074-476.518 99.854-480.599 99.727-484.768 99.096-488.817 98.151-494.871 97.833-501.004 97.645-507.046 97.148-522.956 97.466-538.891 97.501-554.816 97.505-556.333 97.728-557.863 97.974-559.367 98.706-563.845 98.075-564.487 93.596-564.292 91.693-564.208 90.762-563.478 90.633-561.632 90.505-559.803 90.228-557.972 90.267-556.147 90.639-538.716 89.48-521.281 91.041-503.839 91.869-494.578 92.094-485.25 92.916-475.963 94.046-463.188 95.357-450.387 95.54-437.583 95.72-424.878 96.756-412.216 96.728-399.511 96.695-385.279 97.133-371.046 97.34-356.82 97.754-328.379 98.2-299.922 95.967-271.486 95.252-262.377 94.502-253.176 94.865-243.982 94.999-240.598 94.521-237.278 94.132-233.934 93.911-232.026 93.199-231.168 91.291-231.209 88.687-231.264 86.079-231.194 83.476-231.273 80.043-231.377 79.996-231.422 79.921-235.033 79.83-239.472 80.097-243.936 79.72-248.348 78.453-263.156 79.148-278.013 78.408-292.845 77.823-304.588 76.679-316.347 77.122-328.141 77.151-328.9 76.997-329.666 76.957-330.43 76.438-340.508 75.504-350.586 75.506-360.664 75.51-375.518 73.993-390.327 74.498-405.184 74.513-405.641 74.501-406.107 74.431-406.559 72.63-417.95 73.466-429.477 72.962-440.925 72.345-454.966 71.108-469.024 71.66-483.114 71.695-484.026 71.554-484.947 71.481-485.863 70.556-497.481 70.405-509.139 71.187-520.74 72.094-534.208 71.22-547.69 72.099-561.142 72.128-561.598 72.109-562.064 72.055-562.518 71.958-563.332 71.572-563.868 70.716-564.139 67.452-565.174 65.676-563.937 65.347-560.526 63.934-545.873 64.271-531.154 64.005-516.476 63.681-498.595 64.094-480.692 65.318-462.814 65.913-454.131 65.5-445.396 66.202-436.678 66.863-428.465 66.698-420.188 67.012-411.944 67.496-399.264 68.167-386.556 68.062-373.861 67.958-361.458 69.676-349.13 69.181-336.729 69.162-336.273 69.212-335.811 69.267-335.355 70.544-324.718 70.38-313.994 70.777-303.324 71.328-288.502 72.333-273.671 71.904-258.817 71.883-258.059 72.021-257.294 72.102-256.534 72.866-249.367 72.895-242.176 72.725-234.984 72.645-231.622 72.322-231.331 68.974-231.275 64.838-231.206 60.698-231.232 56.562-231.303 52.577-231.371 52.591-231.418 52.475-235.486 52.119-248.011 52.594-260.526 51.701-273.079 50.878-284.647 50.862-296.326 50.771-307.949 50.473-346.381 50.363-384.812 49.883-423.246 49.329-467.648 49.69-512.061 49.649-556.468 49.647-558.305 49.615-560.143 49.539-561.978 49.507-562.737 49.313-563.469 48.567-563.925 45.954-565.525 42.533-563.867 42.4-560.92 42.38-560.461 42.391-560.001 42.394-559.542 42.558-525.857 42.011-492.168 42.771-458.487 43.411-430.162 43.552-401.833 43.312-373.507 43.024-339.359 44.009-305.229 44.306-271.091 44.318-269.715 44.362-268.331 44.532-266.968 45.88-256.13 44.902-245.248 45.204-234.391 45.26-232.369 44.599-231.206 42.348-231.236 36.984-231.307 31.621-231.312 26.257-231.294 24.319-231.287 23.459-232.2 23.489-234.083 23.5-234.694 23.437-235.308 23.447-235.919 23.699-250.747 23.702-265.571 24.691-280.391 25.546-293.192 26.09-306.034 26.515-318.849 27.157-338.243 27.273-357.698 26.517-377.083 25.728-397.269 25.222-417.46 25.042-437.643 24.836-460.741 24.491-483.846 25.55-506.964 26.356-524.539 25.738-542.177 25.747-559.788 25.747-560.705 25.715-561.624 25.636-562.537 25.564-563.375 25.073-563.887 24.258-564.154 20.74-565.304 18.64-563.935 18.546-560.316 18.47-557.409 18.528-554.498 18.492-551.588 18.282-534.907 18.389-518.227 18.014-501.54 17.388-473.695 16.855-445.827 18.399-417.974 18.923-408.512 18.782-399.027 19.24-389.543 20.03-373.205 19.238-356.809 20.203-340.447 20.481-335.729 19.217-331.031 19.426-326.257 19.856-316.459 17.907-306.732 18.438-296.923 18.447-296.771 18.418-296.618 18.407-296.465 17.486-283.658 16.825-270.841 16.625-257.997 16.502-250.043 16.024-242.096 15.806-234.143 15.745-231.925 14.747-231.277 12.67-231.278 10.495-231.28 10.157-232.469 10.178-234.213 10.206-236.663 10.294-239.124 10.103-241.561 9.384-250.706 9.035-259.878 8.574-269.031 8.22-276.048 7.416-283.032 7.21-290.067 7.063-295.08 6.949-300.177 6.183-305.134 5.293-310.892 5.29-316.691 4.793-322.455 4.298-328.217 3.695-333.989 3.462-339.797 3.104-348.78 1.833-357.724 1.838-366.745 1.851-386.955 1.874-407.165 1.83-427.375 1.805-438.698 3.399-449.964 2.876-461.307 2.721-464.659 2.935-468.041 3.175-471.395 4.007-482.987 4.025-494.612 4.493-506.216 4.899-516.292 6.028-526.36 5.579-536.471 5.545-537.227 5.664-538.004 5.814-538.751 7.305-546.15 5.801-553.745 7.291-561.143 7.35-561.436 7.281-561.753 7.271-562.06 7.205-564.297 5.599-564.338 4.02-564.233 2.488-564.131 .375-564.933 .166-562.269-.084-559.072-.933-555.95-.806-552.696-.682-549.487-.444-546.206-.939-543.063-2.349-534.103-1.94-525.051-2.443-516.059-3.348-499.883-3.787-483.667-4.224-467.469-4.62-452.786-5.187-438.099-5.347-423.413-5.551-404.744-5.989-386.077-5.505-367.398-5.303-359.596-4.001-351.865-4.336-344.048-4.362-343.445-4.212-342.831-4.109-342.228-3.212-336.954-3.206-331.591-2.772-326.283-2.338-320.973-2.073-315.584-1.501-310.313-.35-299.684-.022-289.005 .869-278.367 1.619-269.417 2.438-260.392 2.034-251.353 1.966-249.834 2.031-248.259 2.361-246.784 3.279-242.681 2.705-238.542 2.901-234.425 3.017-231.986 1.824-231.255-.451-231.291-5.047-231.364-9.646-231.234-14.243-231.241-18.295-231.247-18.25-231.28-18.397-235.302-18.623-241.438-17.498-247.536-17.545-253.614-17.719-275.965-16.769-298.303-17.263-320.661-17.882-348.667-17.17-376.686-18.283-404.7-19.084-424.883-18.709-445.109-18.943-465.311-19.297-495.926-20.246-526.535-20.229-557.154-20.229-558.684-20.253-560.215-20.281-561.747-20.294-562.522-20.337-563.468-21.048-563.795-22.777-564.592-24.698-564.534-26.429-563.957-27.872-563.475-27.459-561.889-27.448-560.734-27.358-551.705-27.58-542.679-26.943-533.647-25.942-519.43-27.088-505.159-26.416-490.942-24.953-460.037-25.572-429.104-24.955-398.188-24.033-351.96-24.751-305.701-24.629-259.456-24.606-250.72-25.678-242.062-25.873-233.337-25.987-228.177-26.148-222.943-26.648-217.779-27.653-207.421-28.184-197.042-28.331-186.648-28.562-170.273-27.933-153.927-26.674-137.59-25.969-128.447-25.896-119.253-25.654-110.079-25.517-104.874-25.062-99.684-24.902-94.493-24.591-84.397-24.075-74.226-24.951-64.2-25.71-55.509-25.342-46.801-26.319-38.111-26.979-32.237-27.502-26.266-27.726-20.3-27.862-16.671-27.807-12.899-28.559-9.36-29.683-4.07-29.49 1.301-29.956 6.597-30.475 12.497-31.255 18.416-31.29 24.398-31.317 28.95-31.637 33.588-32.241 38.101-33.222 45.429-32.254 44.525-39.208 44.682-40.587 44.713-41.967 44.643-43.346 44.667-45.43 44.705-46.431 43.722-46.477 41.63-46.553 38.109-46.769 34.591-46.804 31.071-46.951 16.228-46.604 1.398-46.083-13.439-45.729-23.522-44.402-33.571-44.896-43.686-44.926-44.291-44.792-44.905-44.732-45.514-43.505-57.888-43.823-70.313-44.433-82.668-44.847-91.044-45.045-99.453-45.765-107.839-46.376-114.961-46.741-122.171-47.061-129.345-47.326-135.285-47.471-141.262-47.965-147.193-48.839-157.709-49.449-168.246-49.563-178.78-49.684-189.936-49.875-201.09-48.889-212.27-47.896-223.529-48.499-234.891-48.059-246.216-47.449-261.944-47.509-277.693-46.033-293.391-45.234-301.889-45.128-310.472-43.948-318.91-42.719-327.696-42.086-336.542-41.559-345.339-40.974-355.091-40.313-364.875-40.396-374.689-40.624-401.632-40.904-428.576-41.132-455.517-41.427-490.239-42.505-525.005-39.553-559.692-39.195-563.894-40.33-564.788-44.618-564.249-45.861-564.092-46.753-563.682-46.698-562.355-46.558-558.958-47.688-555.664-47.625-552.321-47.379-539.147-48.658-526.025-48.662-512.852-48.674-476.714-48.312-440.583-47.755-404.45-47.548-390.978-47.783-377.499-47.675-364.024-47.626-357.892-48.296-351.789-48.856-345.737-49.671-336.932-50.272-328.098-51.194-319.295-52.336-308.39-53.441-297.441-53.914-286.492-54.31-277.337-55.352-268.216-55.127-259.012-54.793-245.24-56.488-231.492-55.968-217.703-55.951-217.247-56.011-216.786-56.056-216.329-57.537-201.356-57.016-186.358-56.533-171.369-56.164-159.911-55.444-148.465-55.101-137.007-54.905-130.433-54.177-123.896-53.792-117.342-53.514-112.619-53.667-107.848-53.039-103.161-51.961-95.117-51.664-87.015-51.472-78.944-51.015-59.672-52.186-40.43-52.947-21.173-53.491-7.433-54.437 6.323-54.112 20.102-53.95 26.989-53.98 33.882-53.996 40.773-54.003 44.146-54.223 44.304-57.631 44.609-58.24 44.664-58.856 44.668-59.468 44.666-67.759 44.636-66.092 44.384-66.185 37.953-66.545 13.006-65.525-11.951-66.801-36.893-67.488-50.336-67.116-63.796-67.852-77.26-68.676-92.357-69.059-107.492-69.671-122.61-70.092-132.995-70.601-143.395-70.759-153.799-71.034-171.873-70.278-189.925-69.855-207.983-69.515-222.494-70.591-237.007-69.052-251.529-68.233-259.251-68.47-267.112-68.218-274.905-67.67-291.87-67.104-308.83-66.292-325.786-65.846-335.103-65.959-344.435-65.448-353.77-64.695-367.509-64.677-381.305-64.578-395.059-64.185-449.417-64.418-503.781-64.424-558.143-64.424-559.367-64.458-560.592-64.51-561.816-64.543-562.583-64.621-563.476-65.354-563.825-66.936-564.577-68.673-564.404-70.307-564.065-71.973-563.719-71.484-562.176-71.599-561.03-71.659-560.422-71.616-559.805-71.615-559.193-71.601-542.348-71.497-525.503-71.59-508.66-71.819-467.325-70.835-425.981-72.245-384.659-72.73-370.437-72.332-356.219-73.188-341.981-74.179-325.514-74.392-308.987-75.12-292.488-75.909-274.62-76.309-256.731-76.923-238.853-77.49-222.34-77.611-205.8-77.912-189.272-78.364-164.483-77.706-139.706-76.305-114.938-75.46-99.984-74.775-84.992-74.534-70.03-74.23-51.202-73.471-32.381-73.455-13.548-73.441 2.684-73.449 18.916-73.448 35.147-73.447 45.478-73.448 45.478-83.8 44.432-83.953 44.417-84.106 44.403-84.259 44.408-85.831 44.458-86.347 43.612-86.437 42.138-86.649 38.63-87.204 35.131-87.226 31.626-87.331 14.786-87.771-2.047-88.073-18.882-88.656-51.334-88.712-83.798-88.931-116.255-89.396-185.162-89.129-254.073-89.108-322.982-89.1-352.382-89.131-381.785-88.824-411.182-88.529-439.343-87.811-467.499-87.293-495.657-87.172-502.239-87.455-508.847-86.949-515.398-85.769-530.689-87.087-546.012-86.046-561.298-85.863-563.991-86.397-564.25-89.374-564.251-92.302-564.253-92.473-564.036-92.752-561.292-94.429-544.814-93.426-528.253-94.388-511.739-95.278-496.474-94.727-481.145-95.254-465.833-96.082-441.819-96.167-417.762-96.223-393.737-96.473-287.624-96.748-181.509-95.639-75.395-95.266-39.723-93.983-4.058-94.506 31.624-94.553 34.831-94.224 38.044-94.049 41.253-93.927 43.504-94.844 44.717-97.226 44.686-100.597 44.643-103.972 44.762-107.338 44.64-110.284 44.533-111.079 43.969-111.117 41.188-111.192 35.529-112.201 29.913-111.792 24.237-111.584 21.34-111.288 18.436-111.307 15.537-111.514-15.237-110.824-46.014-111.805-76.788-112.595-101.585-112.123-126.398-112.158-151.205-112.162-153.651-111.928-156.098-111.834-158.545-111.325-171.837-110.283-185.108-110.33-198.422-110.357-206.078-110.154-213.74-110.373-221.39-110.79-235.941-109.846-250.457-109.251-264.971-109.027-270.449-108.841-275.97-108.333-281.439-107.371-291.803-106.775-302.197-106.743-312.579-106.665-337.524-106.292-362.471-107.474-387.417-107.936-397.181-109.065-406.943-108.558-416.75-108.542-417.052-108.586-417.362-108.631-417.664-110.164-428.008-109.965-438.494-109.7-448.827-109.303-464.269-109.457-479.722-108.769-495.176-107.954-513.497-106.969-531.862-107.583-550.235-107.676-552.988-107.589-555.748-107.594-558.503-107.595-559.422-107.546-560.35-107.655-561.257-107.976-563.958-108.73-564.299-112.189-564.293-114.572-564.291-114.873-563.15-114.848-561.141-114.521-534.661-115.59-508.214-116.477-481.753-117.359-455.445-116.851-429.104-115.7-402.792-115.673-402.18-115.671-401.564-115.587-400.959-114.279-391.548-114.05-382.025-114.064-372.593-114.103-346.275-113.116-319.95-114.641-293.625-115.108-285.556-115.576-277.454-115.968-269.373-116.493-258.541-117.17-247.708-117.518-236.866-118.159-216.835-117.239-196.801-118.264-176.742-119.137-159.646-119.639-142.491-119.485-125.335-119.301-104.818-118.872-84.307-118.636-63.793-118.317-36.08-118.419-8.36-118.549 19.355-118.582 26.235-119.169 33.11-118.492 39.989-118.417 40.746-118.502 41.519-118.505 42.284-118.511 43.784-119.237 44.52-120.761 44.517-122.906 44.513-125.051 44.587-127.197 44.575-131.766 44.547-131.696 44.529-131.937 40.027-132.398 31.444-131.515 22.889-131.535 14.313-131.663-38.971-130.904-92.257-132.024-145.538-132.292-158.246-131.749-170.943-131.702-183.64-131.591-213.331-131.024-243.018-132.157-272.724-132.793-289.377-133.356-306.068-133.351-322.756-133.332-379.108-133.31-435.46-133.361-491.813-133.379-512.328-134.672-532.826-134.347-553.348-134.327-554.566-134.475-555.794-134.629-557.007-135.513-563.972-136.187-570.92-136.146-577.982-135.983-606.463-136.073-634.947-136.095-663.429-136.098-668.031-136.156-668.033-140.635-668.098-141.708-668.115-142.781-668.105-143.854-668.106-169.6-668.113-195.347-668.125-221.093-668.125-300.018-668.128-378.943-668.126-457.869-668.13-463.39-668.13-463.39-668.142-463.405-673.624-463.407-674.389-463.405-675.155-463.405-675.92-463.405-706.087-463.414-827.014-463.397-857.181-463.393-864.29-464.115-863.7-457.089-863.7-263.071-863.708-69.053-863.707 124.965-863.706 126.038-863.706 127.114-863.639 128.182-863.708 130.486-863.855 131.599-862.895 131.528-860.517 131.459-858.222 131.548-855.924 131.548-853.627 131.549-720.712 131.549-497.038 131.549-364.123M-479.879-364.258C-479.878-225.079-479.884-85.899-479.865 53.28-479.864 61.283-480.82 60.411-472.781 60.411-268.674 60.426-64.567 60.426 139.54 60.411 148.014 60.41 147.123 61.42 147.123 52.795 147.133-225.717 147.13-594.988 147.122-873.5 147.121-880.869 147.762-880.136 140.428-880.137-64.139-880.149-268.705-880.149-473.271-880.136-480.737-880.136-479.866-880.841-479.867-873.474-479.883-733.989-479.879-503.744-479.879-364.258"/>
<path transform="matrix(1,0,0,-1,1653.8369,631.09426)" d="M0 0C-7.595 .851-16.259-.632-24.964-.959-28.758-1.102-32.604-1.42-36.368-1.933-51.932-4.052-66.976-8.837-82.513-11.151-84.669-11.472-86.136-12.72-86.332-15.062-86.653-18.883-87.774-22.542-88.581-26.265-89.246-29.332-89.096-29.554-86.126-28.824-72.639-25.506-59.165-22.135-45.689-18.77-35.897-16.324-26.042-14.468-15.87-14.662-5.482-14.859 4.894-14.399 15.291-15.498 22.858-16.296 30.424-17.038 37.958-18.118 47.161-19.436 56.311-21.046 65.431-22.846 68.139-23.38 68.784-22.841 68.888-20.165 68.982-17.723 68.852-15.271 68.825-12.825 68.802-10.727 67.933-9.585 65.718-9.017 44.529-3.583 23.2 .777 0 0M-106.558-57.946C-105.182-58.613-104.488-58.122-103.791-57.912-87.695-53.068-71.342-49.106-55.39-43.777-48.848-41.591-42.115-40.205-35.279-39.597-29.665-39.097-24.035-38.667-18.394-38.369-7.105-37.771 4.155-36.725 15.476-36.623 27.263-36.517 39.004-36.807 50.555-39.479 55.762-40.683 60.967-41.896 66.148-43.202 68.117-43.698 69.047-43.247 68.979-41.094 68.903-38.648 68.895-36.196 68.959-33.749 69.017-31.555 68.137-30.667 65.88-30.107 49.564-26.068 32.97-23.767 16.296-22.041 5.026-20.874-6.314-20.729-17.636-21.093-22.191-21.24-26.739-21.948-31.269-22.566-38.543-23.56-45.567-25.688-52.668-27.471-65.104-30.595-77.553-33.671-89.991-36.787-91.519-37.169-92.773-37.941-93.567-39.418-97.118-46.021-101.31-52.193-106.558-57.946M71.809-266.343C71.809-256.18 71.813-247.048 71.802-237.917 71.8-236.792 71.201-235.894 70.56-235.016 66.638-229.65 61.964-224.942 56.462-221.322 45.401-214.046 32.833-211.663 19.821-211.304 17.25-211.233 14.668-211.979 12.079-212.112 1.709-212.642-8.67-213.141-18.913-214.926-31.057-217.042-42.729-220.768-53.198-227.356-71.16-238.66-82.642-255.055-89.396-274.958-92.223-283.283-92.855-291.964-93.515-300.629-93.885-305.506-94.556-310.451-93.735-315.283-92.611-321.904-91.937-328.598-91.348-335.237-90.376-346.207-86.214-355.532-79.633-364.082-76.976-367.536-73.939-370.515-70.123-372.587-65.011-375.363-59.824-378.014-54.346-380.01-52.052-380.846-49.722-381.781-47.331-382.112-38.244-383.368-29.074-383.733-19.916-383.942-15.65-384.039-11.369-383.222-7.097-383.238 .256-383.265 7.483-382.172 14.767-381.478 25.674-380.437 35.516-376.507 45.076-371.58 48.763-369.679 51.921-367.133 54.877-364.134 61.092-357.828 65.656-350.454 69.826-342.779 70.979-340.656 72.595-338.605 72.612-336.064 72.683-325.875 72.642-315.684 72.642-304.642 71.258-306.491 71.038-307.807 70.716-309.106 68.387-318.486 65.358-327.626 60.63-336.093 56.658-343.204 51.882-349.606 45.35-354.777 38.501-360.198 31.111-364.069 22.689-366.372 12.181-369.244 1.685-371.571-9.331-371.219-15.01-371.039-20.545-370.256-26.119-369.337-38.35-367.323-50.294-364.211-62.005-360.225-67.616-358.316-72.243-354.862-75.99-350.205-82.009-342.724-84.247-333.986-84.702-324.644-84.865-321.285-84.877-317.918-84.995-314.556-85.309-305.693-85.285-296.686-83.093-288.134-75.078-256.88-54.929-237.067-24.216-227.793-17.05-225.629-9.577-225.063-2.188-223.997 4.647-223.011 11.232-223.724 17.839-224.709 23.887-225.611 29.682-227.738 35.429-229.827 48.391-234.538 58.418-242.905 65.862-254.464 68.098-257.936 69.663-261.745 71.809-266.343M73.417-386.809C71.692-386.683 71.139-387.215 70.579-387.743 65.761-392.28 60.306-395.963 54.739-399.49 48.622-403.367 42.117-406.354 34.977-407.792 30.794-408.634 26.585-409.353 22.399-410.184 12.357-412.177 2.313-414.152-8.015-413.364-17.787-412.619-27.573-412.143-37.367-412.513-41.853-412.682-46.243-412.002-50.579-411.308-66.084-408.826-78.622-400.347-90.354-390.589-96.083-385.825-99.449-379.121-103.337-372.899-109.772-362.601-113.422-351.427-114.223-339.268-114.602-333.503-115.593-327.782-116.215-322.032-116.886-315.824-117.939-309.634-117.575-303.356-117.416-300.615-116.9-297.889-116.813-295.149-116.562-287.34-115.441-279.696-113.283-272.171-111.123-264.641-107.502-257.694-104.879-250.357-100.456-237.988-92.823-227.68-83.828-218.414-76.019-210.369-66.844-203.905-57.108-198.339-49.225-193.833-40.833-190.592-31.781-189.246-23.95-188.081-16.133-186.82-8.298-185.689-1.774-184.748 4.763-184.202 11.332-185.427 12.672-185.677 14.085-185.664 15.455-185.596 19.465-185.397 23.375-186.271 27.268-186.888 35.26-188.156 43.007-190.589 50.866-192.497 55.841-193.705 60.438-195.587 64.729-198.369 66.701-199.646 69.009-202.565 70.853-201.355 72.83-200.057 71.336-196.543 71.621-194.018 71.849-192.006 70.672-190.917 69.097-190.068 65.865-188.325 62.702-186.437 59.39-184.864 50.091-180.451 40.306-177.417 30.187-175.672 22.679-174.378 15.082-172.852 7.429-173.719-.148-174.578-7.765-174.87-15.327-176.158-28.448-178.393-41.428-181.079-53.965-185.562-64.159-189.207-73.532-194.276-80.888-202.509-87.115-209.479-92.975-216.739-98.179-224.5-107.243-238.015-114.83-252.301-120.611-267.545-123.489-275.133-126.076-282.755-127.334-290.816-128.514-298.375-128.572-305.999-129.191-313.585-130.227-326.275-128.304-338.603-125.471-350.792-122.277-364.537-115.238-376.707-107.522-388.283-101.384-397.494-93.177-404.776-83.072-410.001-72.616-415.409-61.724-419-50.177-420.896-44.146-421.886-38.051-422.207-31.994-422.874-25.013-423.641-18.078-424.622-11.026-424.53-3.215-424.429 4.6-424.443 12.411-424.522 23.849-424.637 34.831-422.182 45.689-418.907 55.954-415.81 63.904-409.05 71.963-402.455 72.823-401.75 73.412-400.874 73.414-399.711 73.42-395.471 73.417-391.231 73.417-386.809M70.629-224.072 71.599-223.681C71.599-220.209 71.592-216.737 71.603-213.265 71.606-211.893 70.874-210.945 69.821-210.233 63.126-205.708 56.879-200.364 48.547-198.86 46.453-198.482 44.398-197.835 42.361-197.199 28.649-192.916 14.593-191.508 .279-191.828-8.762-192.03-17.631-193.564-26.491-195.025-32.032-195.939-37.623-196.911-42.929-199.021-56.368-204.364-67.928-212.489-78.27-222.478-85.604-229.561-91.821-237.495-96.054-246.792-99.157-253.611-101.947-260.583-104.624-267.584-108.641-278.092-110.656-288.998-110.531-300.28-110.443-308.216-110.711-316.15-109.539-324.059-108.4-331.745-108.445-339.697-106.514-347.156-101.739-365.601-93.565-382.133-76.57-392.709-74.229-394.166-71.897-395.638-69.611-397.176-66.024-399.587-62.156-401.318-58.024-402.616-50.665-404.928-43.121-405.908-35.461-406.095-24.594-406.361-13.709-405.694-2.854-406.753-.882-406.946 1.158-407 3.11-406.724 13.833-405.21 24.486-403.258 35.015-400.74 50.082-397.135 61.352-387.566 71.79-376.789 73.187-375.346 73.354-373.583 73.297-371.678 73.139-366.323 73.095-360.964 72.957-355.609 72.936-354.795 73.369-353.712 72.111-353.322 71.016-353.829 70.786-354.964 70.222-355.835 65.775-362.696 60.773-369.285 54.061-373.861 41.355-382.521 27.121-387.331 11.683-388.652 6.35-389.108 .991-389.168-4.31-389.779-13.64-390.853-22.992-390.645-32.294-390.125-36.836-389.873-41.44-389.746-45.992-389.067-53.842-387.896-60.906-384.635-67.926-381.258-83.687-373.676-92.547-360.665-96.571-344.076-98.223-337.268-98.838-330.272-99.593-323.302-101.102-309.368-100.24-295.555-97.999-281.788-96.429-272.146-92.602-263.237-87.836-254.885-77.127-236.117-62.266-221.932-41.524-214.35-31.551-210.704-21.426-207.834-10.897-206.953-4.37-206.406 2.211-206.003 8.752-205.551 16.712-205.001 24.56-204.522 32.479-205.792 43.505-207.559 53.92-210.798 62.887-217.727 65.525-219.767 68.052-221.953 70.629-224.072M73.461-411.189C71.306-411.353 70.527-412.394 69.611-413.16 55.746-424.752 39.092-429.016 21.693-430.687 12.736-431.548 3.647-431.045-5.383-431.297-12.831-431.506-20.332-431.052-27.787-430.035-35.184-429.025-42.738-429.073-50.089-427.85-62.485-425.787-74.446-422.155-85.647-416.223-97.267-410.071-106.983-401.691-113.981-390.677-123.605-375.53-131.9-359.667-134.119-341.442-134.947-334.647-136.607-327.97-136.299-321.004-136.062-315.653-135.25-310.34-135.229-305.002-135.188-294.357-133.383-284.035-130.021-273.99-121.129-247.428-107.563-223.496-89.48-202.077-79.595-190.368-67.242-182.655-52.729-178.056-42.221-174.726-31.542-172.115-20.699-170.269-13.044-168.965-5.313-167.844 2.427-167.391 9.108-167 15.828-167.15 22.575-167.953 31.426-169.005 40.043-170.77 48.464-173.562 55.001-175.73 61.382-178.31 67.605-181.28 71.413-183.097 71.6-182.95 71.564-178.608 71.547-176.467 71.199-174.312 71.355-172.189 71.57-169.281 70.193-167.845 67.732-166.566 59.679-162.382 50.964-159.927 42.607-156.549 30.822-151.786 18.761-151.876 6.523-153.561-1.172-154.621-8.838-155.896-16.531-156.967-26.49-158.354-36.507-159.472-46.311-161.702-70.615-167.229-90.771-179.272-105.416-199.872-113.563-211.331-118.761-224.286-124.479-236.951-129.513-248.097-133.407-259.764-138.604-270.827-145.645-285.811-146.447-301.55-145.211-317.495-144.611-325.216-143.863-332.976-142.76-340.688-141.092-352.341-138.884-363.876-135.572-375.138-130.896-391.043-122.003-404.454-110.031-415.908-101.505-424.065-92.216-430.852-80.549-433.813-79.074-434.187-77.69-434.904-76.247-435.415-66.448-438.875-56.648-442.089-46.157-443.151-39.817-443.792-33.45-444.893-27.107-445.407-21.498-445.861-15.85-447.142-10.192-446.407-.958-445.206 8.35-444.945 17.605-443.939 29.656-442.629 41.46-440.55 52.937-436.628 59.059-434.537 64.698-431.461 70.335-428.375 71.947-427.493 73.49-426.445 73.472-424.223 73.437-419.975 73.461-415.726 73.461-411.189M110.566-429.013C110.413-428.738 110.26-428.461 110.106-428.185 108.841-428.62 107.58-429.07 106.309-429.486 96.86-432.577 87.353-435.454 77.563-437.287 75.88-437.602 74.003-438.814 73.104-435.999 72.806-435.064 71.821-435.583 71.143-435.925 69.093-436.957 67.076-438.059 64.994-439.018 54.09-444.042 42.62-447.182 30.79-449.02 25.515-449.839 20.207-450.494 14.893-450.998 7.904-451.661 .895-452.099-6.105-452.639-11.307-453.042-16.519-453.147-21.703-452.61-28.67-451.889-35.603-450.833-42.574-450.172-48.199-449.638-53.77-448.878-59.281-447.653-68.424-445.62-77.038-441.974-85.865-438.977-89.922-437.599-94.009-436.274-97.675-433.983-110.865-425.742-121.387-414.76-130.283-402.13-131.338-400.633-132.242-399.025-133.155-397.433-142.616-380.94-146.024-362.633-148.998-344.218-150.042-337.755-150.888-331.259-151.107-324.689-151.438-314.809-153.364-305.072-151.968-295.017-150.862-287.056-149.08-279.455-146.165-272.036-138.39-252.242-130.214-232.618-121.039-213.425-114.36-199.456-105.63-187.059-93.486-177.196-80.048-166.282-64.972-158.839-48.011-155.354-41.151-153.943-34.226-152.827-27.302-151.758-20.227-150.665-13.093-149.942-6.03-148.775-.605-147.878 4.835-147.215 10.299-146.653 19.308-145.727 28.281-145.334 37.11-147.955 47.532-151.049 57.856-154.412 67.756-158.967 70.5-160.23 70.834-159.994 70.855-156.897 70.888-152.151 70.799-147.404 70.812-142.657 70.816-140.891 70.595-139.347 68.845-138.352 64.176-135.694 59.449-133.19 54.076-132.26 50.626-131.663 47.176-130.782 43.704-130.663 39.264-130.509 34.887-128.969 30.478-129.66 23.186-130.803 15.808-130.641 8.501-131.034-1.419-131.567-11.378-132.068-21.325-132.144-28.108-132.196-34.708-133.223-41.249-134.729-54.927-137.88-67.451-144.007-80.01-150.024-100.056-159.629-115.457-174.317-127.223-193.012-133.601-203.146-138.563-214.014-143.509-224.86-151.65-242.713-157.441-261.431-162.717-280.29-164.148-285.404-165.125-290.726-165.572-296.014-166.15-302.862-166.113-309.773-166.101-316.656-166.093-321.083-165.831-325.529-165.366-329.932-164.679-336.437-163.727-342.915-162.854-349.399-161.819-357.092-160.994-364.824-159.642-372.461-157.208-386.199-152.574-399.342-148.062-412.492-146.181-417.972-144.197-423.465-140.562-428.157-129.739-442.125-115.457-451.265-99.3-457.806-98.595-458.091-97.843-458.267-97.104-458.461-89.71-460.409-82.198-461.502-74.577-462.259-65.298-463.18-56.048-464.213-46.708-464.064-46.402-464.059-46.093-464.073-45.79-464.116-34.851-465.667-23.8-465.166-12.813-465.653 1.829-466.301 16.526-466.212 31.151-464.143 38.991-463.035 46.913-462.454 54.646-460.667 68.854-457.383 81.595-450.792 93.838-443.09 100.088-439.159 105.578-434.384 110.566-429.013M170.456-398.736C169.936-398.686 169.571-398.531 169.354-398.648 163.914-401.556 159.488-404.766 157.611-411.577 154.11-424.279 149.08-436.479 139.793-446.389 133.2-453.424 127.098-460.934 119.768-467.248 109.276-476.284 97.067-482.44 83.986-486.432 72.21-490.025 60.722-494.703 48.125-495.659 36.841-496.516 25.552-497.197 14.262-497.428-5.038-497.825-24.35-497.625-43.655-497.716-54.673-497.768-65.658-497.238-76.471-495.065-87.256-492.898-97.892-490.157-108.104-485.894-117.603-481.929-126.417-476.654-135.511-471.93-141.481-468.829-146.863-464.608-151.249-459.405-155.487-454.377-159.679-449.299-163.414-443.865-170.637-433.359-177.251-422.553-180.624-410.094-182.979-401.402-185.349-392.713-187.652-384.007-188.905-379.272-189.691-374.477-189.51-369.531-189.386-366.17-189.507-362.794-189.676-359.433-190.203-348.902-191.081-338.379-191.307-327.842-191.571-315.465-191.543-303.084-190.474-290.707-190.081-286.161-189.812-281.555-189.241-277.046-188.093-267.993-186.521-258.974-184.692-250.03-182.74-240.48-181.247-230.815-178.256-221.496-173.153-205.598-164.743-191.478-155.453-177.712-148.157-166.901-139.715-157.481-128.882-150.135-121.162-144.901-114.074-138.668-105.394-134.975-95.096-130.594-85.095-125.641-75.224-120.385-67.927-116.499-60.472-112.912-53.105-109.155-42.057-103.518-30.146-100.905-17.984-99.308-12.551-98.595-7.174-97.415-1.642-97.384 7.243-97.334 16.045-98.133 24.867-99.109 33.527-100.068 42.06-101.526 50.55-103.441 56.079-104.689 61.496-106.29 66.94-107.823 70.032-108.693 70.407-108.399 70.458-105.187 70.493-103.051 70.297-100.911 70.196-98.773 70.03-95.26 70.027-95.257 66.438-94.264 65.556-94.02 64.672-93.775 63.78-93.569 50.546-90.518 37.074-88.729 23.613-87.399 12.376-86.289 .965-86.931-10.292-88.321-16.936-89.141-23.534-90.45-30.091-91.835-42.507-94.458-54.892-97.268-66.475-102.681-80.912-109.43-95.849-114.925-110.851-120.225-127.198-126-140.923-135.844-153.624-147.273-158.76-151.895-162.311-157.928-166.594-163.307-173.575-172.075-179.55-181.472-183.734-191.955-187.592-201.617-191.827-211.129-195.634-220.811-198.702-228.613-202.522-236.167-203.831-244.597-204.766-250.618-205.586-256.647-206.337-262.694-207.671-273.458-208.571-284.225-208.928-295.075-209.234-304.414-208.981-313.724-208.873-323.051-208.722-336.198-208.137-349.306-207.104-362.418-206.127-374.837-203.534-386.843-199.661-398.631-195.069-412.606-188.638-425.85-183.407-439.572-182.262-442.578-180.536-445.32-178.502-447.84-171.846-456.087-164.539-463.678-155.939-469.936-151.104-473.456-146.369-477.066-142.23-481.425-131.581-492.643-118.151-499.098-103.6-503.454-95.375-505.916-86.708-505.766-78.294-507.168-73.922-507.897-69.515-508.119-65.067-508.201-54.036-508.404-43.049-507.4-32.044-507.257-11.208-506.987 9.634-507.21 30.473-507.159 35.973-507.145 41.446-506.474 46.874-505.653 54.857-504.445 62.814-503.053 70.762-501.621 81.144-499.75 91.426-497.514 101.284-493.588 109.769-490.209 117.648-486.033 123.887-479.129 126.968-475.719 130.722-473.009 134.377-470.221 138.922-466.754 142.923-462.829 145.478-457.572 146.743-454.965 148.187-452.397 149.896-450.063 158.61-438.155 164.355-424.894 167.909-410.667 168.889-406.748 170.373-402.878 170.456-398.736M286.819-263.955C286.094-263.986 285.794-264.525 285.54-265.064 281.227-274.211 276.276-283.015 271.074-291.678 270.037-293.404 269.869-295.229 270.341-296.984 271.544-301.467 271.633-306.111 271.721-310.619 271.999-324.816 272.151-339.026 270.247-353.182 268.799-363.954 266.422-374.473 263.303-384.861 260.078-395.6 255.025-405.599 250.825-415.942 246.098-427.582 240.735-438.914 233.733-449.403 230.762-453.854 227.378-458.029 224.806-462.75 218.864-473.652 212.233-484.052 204.294-493.684 196.599-503.02 189.049-512.335 179.604-520.099 169.378-528.504 159.017-536.408 146.457-541.133 139.737-543.661 133.312-546.964 126.729-549.862 118.187-553.623 109.63-557.359 100.603-559.853 90.133-562.746 79.801-566.077 69.475-569.441 59.161-572.802 48.8-575.999 38.161-578.25 29.649-580.052 21.019-581.048 12.437-582.363 7.169-583.169 1.852-584.16-3.445-584.169-18.434-584.197-33.425-584.975-48.419-583.475-59.89-582.328-70.979-579.909-81.87-576.23-91.013-573.142-99.846-569.299-108.821-565.802-127.413-558.558-145.338-550.002-162.563-539.955-170.692-535.212-177.586-528.904-184.657-522.801-194.39-514.403-204.335-506.249-213.597-497.315-226.238-485.122-237.051-471.478-245.663-456.186-248.654-450.875-250.555-444.959-253.43-439.575-261.015-425.368-267.599-410.766-272.494-395.402-275.463-386.087-278.576-376.82-280.045-367.122-280.956-361.098-281.356-354.988-282.491-349.012-284.252-339.739-286.478-330.554-288.441-321.319-290.284-312.653-291.55-303.966-291.62-295.024-291.72-282.55-289.084-270.475-287.367-258.266-285.435-244.524-282.613-230.959-278.536-217.658-274.184-203.458-269.82-189.228-262.755-176.125-252.152-156.459-240.634-137.347-228.057-118.823-218.752-105.118-207.784-93.187-195.397-82.379-193.688-80.888-192.084-79.276-190.098-77.405-194.008-75.49-197.547-73.773-201.07-72.024-202.654-71.238-203.636-72.234-204.729-73.104-209.425-76.842-213.808-80.928-217.264-85.835-222.996-93.976-229.161-101.76-235.473-109.456-241.97-117.378-247.54-126.035-254.325-133.747-261.263-141.633-266.57-150.555-270.81-160.116-276.699-173.402-282.652-186.666-288.227-200.085-290.314-205.109-292.594-210.193-292.59-215.894-292.559-267.342-292.571-318.792-292.571-370.241-292.571-372.077-292.361-373.853-291.911-375.67-288.295-390.258-282.453-404.101-277.689-418.301-274.723-427.144-271.775-436.129-266.975-444.13-255.877-462.626-244.41-480.771-228.516-495.917-216.225-507.631-204.572-520.024-191.416-530.81-183.249-537.506-175.038-544.343-165.726-549.286-151.39-556.894-137.44-565.2-122.974-572.564-118.314-574.935-113.596-577.154-108.579-578.525-95.757-582.031-82.873-585.319-70.004-588.655-57.644-591.86-45.087-593.507-32.321-592.558-25.44-592.046-18.574-591.67-11.676-591.696 1.808-591.745 15.292-591.691 28.776-591.717 36.144-591.732 43.432-590.805 50.549-589.123 63.928-585.958 77.177-582.246 90.539-579.004 105.172-575.455 119.338-570.862 132.482-563.282 143.891-556.703 155.527-550.516 166.027-542.498 177.095-534.045 188.511-525.975 197.893-515.554 205.982-506.57 213.884-497.417 221.846-488.318 225.377-484.283 228.76-480.102 231.393-475.429 238.077-463.567 244.851-451.757 252.155-440.265 259.239-429.121 264.401-416.981 270.533-405.345 274.964-396.937 278.749-388.272 281.744-379.235 287.056-363.208 289.83-346.696 291.361-329.959 292.284-319.867 290.651-309.797 290.32-299.713 289.955-288.593 288.629-277.504 287.724-266.403 287.649-265.497 287.736-264.536 286.819-263.955M150.958-410.603C150.069-410.51 149.707-410.353 149.501-410.469 142.43-414.465 135.039-417.802 127.623-421.091 126.2-421.722 125.054-422.667 124.125-423.963 118.908-431.245 112.408-437.448 105.503-442.916 92.211-453.439 77.209-461.132 60.919-466.05 49.601-469.467 37.768-469.756 26.142-471.292 20.367-472.054 14.52-471.792 8.777-472.461 3.561-473.07-1.642-473.377-6.799-472.917-22.052-471.552-37.363-471.424-52.637-470.525-63.777-469.87-74.871-469.059-85.916-467.552-94.275-466.413-102.334-464.348-109.936-460.442-122.042-454.22-132.945-446.553-142.16-436.435-146.048-432.167-149.282-427.639-151.301-422.274-153.616-416.122-155.856-409.94-158.025-403.735-164.042-386.513-167.634-368.776-169.39-350.631-169.976-344.573-171.155-338.572-171.737-332.512-172.495-324.625-173.748-316.746-172.544-308.763-172.089-305.749-171.885-302.648-172.006-299.605-172.308-292.013-170.831-284.712-168.817-277.484-161.662-251.796-152.839-226.753-140.469-203.031-132.474-187.7-122.987-173.495-109.921-162.029-91.962-146.269-70.434-137.088-48.084-129.678-36.829-125.947-25.034-124.941-13.26-125.059-2.826-125.164 7.556-124.39 17.93-123.801 26.659-123.305 35.314-122.671 43.98-124.042 52.095-125.327 60.421-125.698 67.907-129.747 70.198-130.985 70.626-130.653 70.726-128.188 70.844-125.283 70.72-122.37 70.776-119.461 70.819-117.297 69.837-116.097 67.764-115.478 65.421-114.779 63.181-113.739 60.842-113.019 41.283-106.992 21.113-104.894 .794-103.8-.575-103.727-1.983-103.739-3.328-103.972-8.887-104.932-14.497-105.548-20.073-106.359-32.628-108.183-44.337-112.115-55.603-117.958-70.004-125.426-84.326-133.071-99.196-139.628-114.799-146.508-128.224-156.654-140.139-168.693-147.051-175.678-151.827-184.386-157.221-192.547-165.392-204.91-171.162-218.407-174.498-232.825-176.592-241.874-177.762-251.132-179.654-260.233-183.084-276.729-184.5-293.414-184.922-310.215-185.127-318.334-184.336-326.421-184.176-334.518-183.946-346.142-182.601-357.719-182.98-369.373-183.093-372.82-182.054-376.299-181.596-379.771-180.812-385.705-178.772-391.333-177.418-397.126-173.644-413.267-167.207-428.188-157.029-441.387-151.618-448.403-146.724-455.832-139.539-461.342-135.238-464.641-130.392-466.908-125.734-469.537-114.648-475.794-103.252-481.306-90.918-484.78-77.468-488.568-63.917-491.021-49.838-490.725-19.831-490.095 10.21-491.727 40.194-489.672 47.002-489.206 53.911-488.791 60.523-486.737 68.997-484.106 77.574-481.747 85.884-478.668 99.641-473.572 112.416-466.797 122.298-455.469 126.317-450.862 130.504-446.372 134.712-441.947 143.142-433.083 147.241-422.208 150.958-410.603M-156.551-82.731C-157.76-81.43-158.721-81.829-159.585-81.827-165.704-81.816-171.869-82.014-177.852-80.602-180.639-79.944-182.483-80.868-184.551-82.37-191.641-87.519-197.779-93.739-204.235-99.599-210.757-105.519-215.233-113.088-220.506-120.023-233.341-136.901-243.204-155.615-253.992-173.751-259.401-182.846-263.203-192.73-266.711-202.707-272.396-218.873-277.011-235.322-279.715-252.258-281.323-262.329-282.857-272.419-284.048-282.545-284.616-287.376-285.783-292.215-285.151-297.143-284.125-305.149-283.79-313.232-281.947-321.15-279.944-329.761-277.597-338.306-276.243-347.059-275.034-354.883-274.208-362.779-272.69-370.541-270.043-384.088-265.125-396.978-260.318-409.862-256.191-420.922-249.655-430.897-245.121-441.751-240.765-452.18-235.04-461.6-228.154-470.489-221.773-478.726-215.424-486.915-207.665-493.974-196.339-504.279-184.401-513.869-173.015-524.099-169.716-527.062-166.358-529.963-162.522-532.263-138.002-546.966-111.792-557.996-85.127-568.086-67.177-574.878-48.636-578.007-29.499-577.965-22.757-577.95-16.016-577.982-9.274-577.949-7.595-577.941-5.903-577.862-4.238-577.65 1.812-576.877 7.832-575.829 13.899-575.262 26.407-574.095 38.668-571.647 50.684-568.128 64.773-564.002 78.705-559.341 92.771-555.131 100.251-552.893 107.742-550.72 114.913-547.615 125.448-543.051 135.889-538.266 146.467-533.805 154.719-530.325 162.453-526.097 169.105-520.04 174.987-514.682 181.87-510.419 187.033-504.305 194.533-495.425 202.177-486.631 208.632-476.935 216.091-465.73 222.182-453.664 230.088-442.732 232.427-439.499 234.172-435.911 236.016-432.382 241.554-421.788 245.664-410.561 250.576-399.689 253.982-392.151 256.929-384.433 258.899-376.396 261.112-367.375 263.124-358.336 264.168-349.047 265.007-341.579 264.953-334.083 265.297-326.637 265.61-319.852 264.965-312.907 264.725-306.033 264.7-305.319 264.812-304.46 263.793-304.225 263.54-304.372 263.196-304.455 263.048-304.672 256.753-313.9 250.229-322.957 243.09-331.556 242.281-332.529 241.687-333.557 241.729-334.863 241.969-342.363 240.308-349.763 240.689-357.291 241.101-365.389 240.351-373.432 238.976-381.442 236.764-394.323 232.882-406.68 227.512-418.549 223.155-428.178 217.329-437.043 212.392-446.371 206.784-456.965 200.314-466.852 192.32-475.876 184.897-484.253 177.845-492.877 168.019-498.636 167.498-498.941 167.085-499.425 166.605-499.805 160.73-504.469 155.383-509.753 149.597-514.498 142.372-520.422 134.129-524.933 126.246-529.932 109.797-540.364 91.213-544.883 72.595-549.365 64.141-551.399 55.637-553.262 47.441-556.296 38.661-559.546 29.469-561.149 20.207-562.156 13.69-562.864 7.205-563.738 .714-564.625-6.54-565.616-13.808-566.585-21.138-566.81-35.288-567.243-49.128-564.994-62.815-561.702-79.197-557.761-95.058-552.174-110.693-545.966-117.229-543.372-124.047-541.308-130.088-537.653-142.79-529.968-155.391-522.112-167.927-514.159-177.159-508.302-184.835-500.53-192.798-493.148-199.522-486.915-206.392-480.802-211.424-472.957-214.229-468.583-217.379-464.422-220.49-460.253-226.936-451.618-232.279-442.402-235.989-432.247-237.614-427.797-239.622-423.49-241.406-419.098-246.296-407.06-251.493-395.097-254.647-382.471-259.447-363.257-264.997-344.212-267.865-324.541-269.157-315.678-268.947-306.8-268.303-298.009-267.723-290.114-266.45-282.253-266.749-274.311-266.947-269.064-266.138-263.918-265.394-258.81-263.837-248.122-262.237-237.434-260.237-226.808-257.739-213.533-254.305-200.598-248.045-188.542-243.25-179.306-238.447-170.074-233.631-160.85-230.939-155.697-228.428-150.412-224.804-145.831-213.873-132.014-202.703-118.43-188.072-108.188-181.038-103.264-175.271-96.802-168.47-91.582-164.606-88.618-160.653-85.771-156.551-82.731M206.447-371.258C205.963-371.133 205.751-371.015 205.683-371.071 197.711-377.515 189.767-383.994 181.436-389.974 180.109-390.926 179.404-392.135 179.026-393.711 177.889-398.46 176.632-403.181 175.431-407.916 171.883-421.901 167.7-435.62 159.301-447.648 155.972-452.416 152.915-457.347 150.222-462.524 148.246-466.322 145.728-469.762 142.083-472.318 139.339-474.242 136.983-476.709 134.31-478.745 129.421-482.465 125.625-487.387 120.632-490.981 112.437-496.878 103.121-500.341 93.593-503.298 84.388-506.156 74.787-507.202 65.416-509.271 49.516-512.783 33.399-513.925 17.219-514.328 7.131-514.578-2.961-514.64-13.074-513.681-25.448-512.507-37.837-514.648-50.241-514.546-50.844-514.542-51.444-514.765-52.052-514.838-56.937-515.434-61.797-515.249-66.708-514.857-73.708-514.298-80.661-513.347-87.639-512.713-99.174-511.667-110.291-509.477-120.601-503.983-123.707-502.328-126.858-500.751-130.012-499.183-134.995-496.706-139.463-493.506-143.356-489.547-149.17-483.634-155.637-478.497-162.168-473.422-175.927-462.734-187.319-450.272-193.093-433.356-196.4-423.664-201.145-414.524-204.545-404.842-208.606-393.28-211.449-381.427-213.293-369.349-214.724-359.975-214.581-350.447-215.035-341.002-215.769-325.734-216.509-310.44-216.157-295.125-216.041-290.064-215.423-285.06-214.996-280.05-214.182-270.497-212.646-261.006-211.584-251.47-210.7-243.536-208.969-235.834-205.93-228.452-201.681-218.129-197.099-207.935-193.153-197.499-187.915-183.64-181.044-170.774-171.734-159.231-166.839-153.16-162.882-146.212-156.955-141.117-143.562-129.601-129.354-119.423-112.234-113.705-99.33-109.395-86.59-104.422-74.183-98.842-63.794-94.17-53.238-90.345-42.188-87.727-31.201-85.123-20.138-83.067-8.922-81.626-3.718-80.958 1.493-81.405 6.617-80.643 13.543-79.613 20.456-80.419 27.221-81.154 39.173-82.451 51.113-84.135 62.955-86.364 69.885-87.668 69.901-87.584 69.775-80.672 69.647-73.608 69.654-73.581 62.599-71.896 52.657-69.521 42.626-67.576 32.405-67.027 19.847-66.353 7.336-68.162-5.232-68.056-9.773-68.018-14.424-68.411-18.948-69.016-29.363-70.41-39.774-71.935-50.019-74.382-63.111-77.511-76.213-80.695-88.585-86.081-103.328-92.499-117.801-99.526-131.724-107.598-148.683-117.43-165.181-127.749-179.43-141.604-197.253-158.935-209.553-179.71-219.715-201.916-227.156-218.176-229.557-235.834-231.884-253.4-233.004-261.858-233.674-270.375-234.812-278.832-235.648-285.047-236.521-291.274-236.332-297.527-235.993-308.659-234.932-319.715-233.114-330.75-231.134-342.767-229.789-354.903-227.133-366.797-224.604-378.121-222.333-389.547-218.412-400.497-214.133-412.449-209.55-424.297-204.894-436.11-202.646-441.811-199.727-447.229-195.821-452.01-184.779-465.527-173.252-478.601-160.76-490.826-154.479-496.971-147.749-502.381-140.002-506.582-130.979-511.473-122.045-516.582-112.157-519.54-93.581-525.099-74.99-530.554-55.501-532.205-46.51-532.965-37.502-533.13-28.511-533.745-20.423-534.298-12.322-533.295-4.229-533.028 2.987-532.789 10.032-531.716 17.104-530.531 27.169-528.842 37.224-527.056 47.33-525.652 55.944-524.455 64.542-523.279 73.021-521.292 90.598-517.175 106.089-508.357 121.196-499.102 135.104-490.582 146.616-479.143 156.6-466.101 165.614-454.325 174.999-442.876 183.26-430.496 193.326-415.408 200.878-399.402 204.649-381.672 205.383-378.229 206.559-374.798 206.447-371.258M-78.23-312.844C-78.396-320.316-78.599-327.964-76.357-335.411-73.853-343.733-69.223-350.345-60.889-353.612-56.201-355.45-51.362-356.981-46.486-358.242-36.893-360.721-27.239-362.856-17.357-364.09-11.682-364.799-6.034-365.193-.466-364.511 7.396-363.55 15.084-361.521 22.735-359.352 35.979-355.599 46.185-347.644 52.815-336.022 62.568-318.928 67.937-300.402 67.122-280.417 66.66-269.074 62.465-259.186 54.939-250.952 47.518-242.831 38.662-236.589 27.61-234.126 26.419-233.861 25.267-233.425 24.098-233.065 18.824-231.443 13.493-230.258 7.912-230.49 2.733-230.706-2.417-230.672-7.619-231.298-20.92-232.899-33.275-236.787-44.48-244.192-60.895-255.039-71.74-269.886-76.553-288.989-78.509-296.755-78.437-304.724-78.23-312.844M233.755-343.452C233.244-343.322 232.871-343.557 232.585-343.928 228.071-349.765 222.645-354.743 217.459-359.944 215.993-361.415 215.282-363.047 214.889-365.128 212.908-375.621 210.65-386.066 207.591-396.303 201.112-417.985 187.855-435.894 174.889-453.891 169.805-460.949 163.73-467.283 158.55-474.306 154.54-479.742 149.957-484.679 144.935-489.193 132.552-500.321 118.483-508.808 103.761-516.529 87.077-525.277 69.402-529.801 50.885-531.943 43.478-532.799 36.089-533.941 28.759-535.311 16.445-537.614 4.061-539.5-8.434-540.044-24.185-540.732-39.959-540.176-55.688-539.077-58.858-538.855-62.095-538.619-65.234-538.021-78.271-535.537-91.143-532.333-104-529.059-120.504-524.857-135.466-517.208-149.871-508.429-158.834-502.967-165.987-495.264-173.179-487.753-180.796-479.8-188.076-471.52-195.374-463.269-201.487-456.358-206.889-448.847-210.344-440.287-215.721-426.967-220.635-413.458-225.575-399.968-228.359-392.364-229.788-384.368-231.687-376.517-234.088-366.596-236.225-356.625-237.386-346.45-238.214-339.194-239.844-332.029-240.662-324.772-241.515-317.213-243.256-309.736-242.886-302.047-242.615-296.417-242.722-290.811-242.047-285.15-241.22-278.211-240.486-271.224-239.784-264.258-238.562-252.146-236.966-240.056-234.433-228.121-231.601-214.775-227.994-201.688-221.403-189.621-218.544-184.384-215.43-179.284-212.627-174.018-202.001-154.056-186.591-138.129-169.451-123.873-160.529-116.452-150.271-110.746-140.291-104.756-125.425-95.834-109.834-88.321-94.071-81.2-80.519-75.076-66.16-71.288-51.676-67.934-37.665-64.689-23.494-62.389-9.183-61.736 2.266-61.213 13.72-60.242 25.208-60.491 33.148-60.663 41.058-60.824 48.919-62.323 54.761-63.438 60.613-64.488 66.426-65.757 69.151-66.352 69.711-65.928 69.719-63.117 69.728-60.21 69.43-57.301 69.464-54.396 69.492-51.964 68.346-50.937 66.091-50.287 60.808-48.765 55.519-47.297 50.124-46.227 40.688-44.354 31.244-42.861 21.541-42.996 13.576-43.107 5.647-43.62-2.299-43.954-9.328-44.25-16.318-45.051-23.365-45.204-27.467-45.292-31.645-45.479-35.715-46.087-42.962-47.169-50.097-48.814-57.047-51.243-73.366-56.944-90.26-60.708-106.751-65.868-129.191-72.89-148.84-84.726-167.143-99.096-173.276-103.912-178.473-109.854-184.994-114.216-191.672-118.683-197.25-124.354-202.674-130.194-204.546-132.21-206.199-134.439-208.148-136.373-216.832-144.99-223.442-155.04-228.966-165.879-232.439-172.695-236.025-179.454-239.553-186.243-244.572-195.905-248.938-205.803-251.244-216.532-253.423-226.667-255.271-236.843-256.89-247.089-258.869-259.625-260.502-272.125-260.396-284.852-260.354-289.7-261.253-294.554-261.691-299.408-262.382-307.036-262.414-314.65-261.637-322.291-260.784-330.681-258.615-338.78-256.624-346.923-253.651-359.079-251.124-371.342-247.601-383.363-243.026-398.967-236.197-413.708-230.32-428.815-226.859-437.71-222.597-446.131-216.966-453.849-215.162-456.322-213.205-458.706-211.623-461.315-202.09-477.035-188.071-488.537-174.737-500.683-168.932-505.971-162.28-510.109-155.625-514.177-144.529-520.961-133.881-528.556-122.066-534.071-106.235-541.459-89.749-547.242-73-552.137-59.527-556.075-45.898-559.266-31.695-559.857-23.55-560.196-15.549-559.867-7.519-558.867-2.229-558.208 3.044-557.416 8.343-556.849 16.07-556.024 23.763-555.01 31.417-553.647 38.686-552.352 45.477-549.468 52.563-547.594 63.198-544.781 73.809-541.821 84.548-539.457 103.423-535.3 120.21-526.769 135.958-515.911 140.613-512.701 145.525-509.846 149.607-505.828 156.387-499.155 163.795-493.212 171.628-487.833 175.354-485.274 178.368-482.092 181.196-478.658 182.265-477.361 183.345-476.073 184.435-474.794 191.381-466.652 198.617-458.743 203.375-448.974 205.382-444.854 207.702-440.875 210.058-436.939 217.539-424.432 224.209-411.6 228.315-397.496 231.228-387.491 233.584-377.394 234.303-367.034 234.82-359.568 234.385-352.037 234.354-344.535 234.353-344.108 234.335-343.587 233.755-343.452M301.785-228.203C300.765-228.998 300.415-229.128 300.331-229.356 297.96-235.815 295.731-242.328 292.909-248.613 292.448-249.638 292.569-250.634 292.712-251.732 293.537-258.072 294.428-264.413 294.95-270.782 295.987-283.412 297.072-296.047 297.635-308.704 298.342-324.602 298.091-340.514 294.724-356.165 290.852-374.159 285.55-391.67 276.664-407.957 270.144-419.908 264.738-432.444 257.544-444.053 250.692-455.109 244.279-466.429 237.686-477.64 229.251-491.983 217.12-503.438 206.491-516.05 195.368-529.248 181.456-539.4 167.662-549.584 158.038-556.69 147.484-562.306 137.119-568.247 125.473-574.921 113.257-580.015 100.315-583.403 88.211-586.572 75.915-589.086 63.96-592.729 48.991-597.29 33.676-598.539 18.239-598.836 8.623-599.022-1.046-598.506-10.643-598.541-21.951-598.581-33.298-598.721-44.623-599.013-51.707-599.196-58.591-597.888-65.48-596.54-77.33-594.22-88.898-590.772-100.547-587.674-109.093-585.402-117.57-582.918-125.536-578.752-140.326-571.016-154.558-562.263-169.526-554.864-170.889-554.19-172.124-553.248-173.391-552.39-190.818-540.6-206.898-527.182-221.695-512.239-229.668-504.189-237.619-496.112-245.373-487.854-255.088-477.508-261.608-464.887-269.341-453.156-278.005-440.01-282.396-424.888-287.581-410.182-288.929-406.361-289.984-402.433-292.019-398.07-292.805-400.599-292.56-402.406-292.561-404.169-292.585-441.224-292.586-478.279-292.597-515.333-292.607-556.369-292.594-642.958-292.713-683.994-292.72-686.369-291.983-687-289.914-686.895-289.15-686.856-288.383-686.9-287.616-686.9-93.015-686.9 101.587-686.898 296.188-686.905 302.541-686.905 301.687-686.679 301.691-681.386 301.728-641.577 301.728-556.212 301.735-516.402 301.753-424.838 301.769-333.275 301.785-241.711 301.786-237.433 301.785-233.154 301.785-228.203M300.706-22.851C300.981-22.809 301.257-22.768 301.532-22.726 301.61-19.914 301.757-17.102 301.758-14.289 301.772 47.574 301.774 154.951 301.766 216.814 301.765 221.889 301.696 221.912 296.636 221.953 296.329 221.956 296.022 221.954 295.716 221.954 101.868 221.92-91.979 221.889-285.826 221.848-293.303 221.846-292.563 222.387-292.565 215.228-292.584 152.904-292.586 45.068-292.584-17.255-292.581-73.147-292.57-129.039-292.54-184.931-292.539-186.639-292.846-188.435-291.897-190.758-291.025-189.068-290.431-188.043-289.951-186.966-286.777-179.839-283.445-172.775-280.511-165.55-274.82-151.542-267.094-138.864-257.659-127.01-246.133-112.53-234.235-98.32-223.636-83.112-220.124-78.074-215.988-73.558-211.285-69.572-208.594-67.291-208.629-67.251-211.409-64.903-226.641-52.035-236.088-35.789-238.962-16.078-241.389 .566-238.624 16.449-230.516 31.383-215.3 59.408-186.025 74.968-152.962 71.429-136.062 69.621-121.305 62.166-109.102 50.245-94.589 36.069-86.869 18.687-85.63-1.56-85.446-4.563-84.966-5.024-81.979-4.421-75.252-3.063-68.488-1.823-61.841-.136-46.232 3.826-30.343 5.696-14.314 6.329-4.675 6.709 5.001 6.661 14.642 6.31 21.481 6.061 28.323 5.213 35.104 4.224 44.767 2.814 54.305 .696 63.821-1.502 67.66-2.389 67.896-2.102 67.95 2 67.958 2.612 67.954 3.225 67.945 3.837 67.584 28.936 66.423 54.008 65.484 79.087 65.111 89.026 65.146 98.971 64.379 108.906 63.85 115.762 64.116 122.678 63.996 129.566 63.965 131.353 63.958 133.117 66.381 133.166 70.361 133.248 74.23 134.291 78.257 134.175 90.635 133.819 102.893 132.516 115.12 130.575 135.748 127.299 155.723 121.985 174.822 113.357 208.229 98.266 236.476 76.502 259.61 48.183 275.293 28.986 287.747 7.775 297.416-15.054 298.517-17.651 299.609-20.252 300.706-22.851M-309.075-232.69C-309.075-104.227-309.076 77.001-309.074 205.465-309.074 216.642-309.068 220.566-309.058 231.743-309.052 238-309.276 237.542-303.355 237.542-258.308 237.549-213.259 237.547-168.211 237.547-8.396 237.547 151.418 237.549 311.231 237.543 318.327 237.542 317.971 238.269 317.971 230.882 317.971-47.94 317.971-417.829 317.964-696.651 317.964-704.099 318.497-703.327 311.285-703.328 106.575-703.341-98.134-703.341-302.843-703.332-309.544-703.332-309.061-703.952-309.061-697.167-309.069-557.526-309.067-372.331-309.067-232.69Z"/>
</g>
</g>
</svg>
