<svg xmlns="http://www.w3.org/2000/svg" xmlns:xlink="http://www.w3.org/1999/xlink" xmlns:inkscape="http://www.inkscape.org/namespaces/inkscape" version="1.1" width="1984.25" height="1984.25" viewBox="0 0 1984.25 1984.25">
<defs>
<clipPath id="clip_1">
<path transform="matrix(1,0,0,-1,0,1984.25)" d="M0 1984.252H1984.252V0H0Z"/>
</clipPath>
</defs>
<g inkscape:groupmode="layer" inkscape:label="Layer 1">
<g clip-path="url(#clip_1)">
<path transform="matrix(1,0,0,-1,220.0342,653.6592)" d="M0 0C-15.001-25.309-25.756-52.374-37.728-80.254-25.26-40.199-9.382-1.229 10.307 37.721 14.216 22.922 7.29 11.752 0 0M-40.565-120.404C-24.848-74.253-5.519-29.273 17.15 9.633 22.557 20.577 35.759 12.706 47.467 19.132 12.456-23.127-16.675-69.442-40.987-121.55-40.846-121.167-40.706-120.785-40.565-120.404M1047.307 390.216C1050.949 391.812 1054.474 391.089 1059.412 386.241 1054.917 387.365 1050.974 388.497 1047.307 390.216M1247.683 292.451C1249.79 291.318 1250.759 289.885 1249.475 285.915 1247.636 280.228 1247.063 274.552 1247.02 269.061 1236.786 281.926 1226.536 294.885 1216.266 307.699 1216.973 308.525 1217.132 309.038 1219.506 307.781 1229.278 302.362 1239.175 297.026 1247.683 292.451M1242.858 327.487C1242.867 321.349 1242.862 314.223 1242.861 307.602 1235.819 311.38 1228.597 315.285 1221.87 318.792 1219.45 320.055 1219.004 321.29 1220.032 323.878 1222.438 328.65 1225.646 345.959 1230.165 346.23 1233.016 346.151 1242.852 332.608 1242.858 327.487M1240.563 351.357C1232.74 354.812 1232.073 359.953 1235.29 368.346 1239.544 366.396 1243.419 363.349 1247.707 359.859 1244.601 357.72 1241.545 355.223 1240.563 351.357M1275.453 228.249C1280.819 227.778 1281.449 224.555 1281.002 219.29 1279.071 222.247 1276.804 225.304 1275.453 228.249M1565.85-67.92C1566.021-66.891 1569.392-64.957 1570.845-64.686 1573.661-75.198 1577.604-85.705 1580.657-96.118 1576.297-86.753 1569.148-77.631 1565.85-67.92M741.211-1087.054C740.162-1083.463 740.708-1082.616 740.774-1082.531 742.939-1081.344 749.523-1082.243 752.545-1082.22 761.048-1082.557 769.841-1082.903 778.513-1082.912 782.32-1082.783 782.027-1084.653 782.056-1088.148 782.022-1107.478 782.011-1127.431 782.069-1146.78 782.394-1158.707 781.576-1171.123 782.216-1183.162 782.753-1186.823 782.545-1187.517 780.729-1188.114 771.585-1188.612 756.774-1147.26 754.55-1138.388 748.985-1121.498 746.172-1104.135 741.211-1087.054M685.536-1079.529C699.929-1078.549 713.159-1081.291 727.257-1081.881 728.875-1081.945 729.22-1082.437 729.888-1085.635 738.268-1118.984 744.963-1153.799 761.546-1184.493 722.241-1160.828 704.483-1120.921 685.536-1079.529M652.435-1075.408C661.243-1076.595 673.555-1074.589 676.219-1085.439 693.445-1124.214 709.151-1154.261 735.746-1181.864 689.935-1160.37 659.204-1122.427 628.68-1072.608 636.716-1074.087 644.683-1074.757 652.435-1075.408M571.654-1061.644C585.509-1064.107 598.596-1066.435 611.536-1068.962 612.817-1069.212 613.578-1070.599 614.68-1072.854 640.74-1116.652 669.606-1150.188 700.321-1174.009 649.494-1152.453 605.174-1115.749 562.412-1059.997 565.544-1060.557 568.622-1061.104 571.654-1061.644M497.13-1042.626C512.139-1046.896 526.316-1050.928 540.486-1054.701 547.206-1056.491 550.629-1061.682 554.255-1067.178 588.616-1113.292 627.985-1147.999 668.776-1171.124 602.438-1146.644 543.559-1104.296 485.218-1039.243 489.267-1040.39 493.232-1041.518 497.13-1042.626M387.617-1002.092C411.532-1012.205 435.467-1022.514 460.631-1030.321 509.595-1080.812 558.811-1131.524 614.861-1160.347 533.618-1130.793 458.914-1078.74 387.409-1001.981 387.476-1002.017 387.545-1002.054 387.617-1002.092M253.801-928.96C284.694-949.86 314.552-966.85 350.85-985.04 365.706-992.264 376.611-1004.797 387.157-1016.917 441.359-1076.992 507.055-1124.676 571.921-1155.173 447.78-1112.397 340.973-1036.471 253.801-928.96M196.545-886.041C211.456-897.665 223.222-912.396 234.601-926.643 322.254-1034.371 426.326-1112.159 546.276-1158.454 243.214-1081.441-6.849-813.621-62.298-503.37-20.244-654.232 70.536-788.366 196.545-886.041M-45.503-275.477C-18.851-251.784 13.09-235.227 42.244-223.425 41.692-234.964 39.104-248.222 39.238-261.481 39.12-266.337 37.568-267.512 32.966-268.575 4.761-275.676-37.884-284.329-67.599-303.028-61.792-290.963-53.556-282.812-45.503-275.477M65.483-95.573C61.815-113.098 58.232-131.06 54.223-147.677 14.515-174.114-27.582-202.242-55.662-242.031-29.585-177.596 19.229-131.987 65.483-95.573M90.395-15.044C84.029-35.141 77.588-55.341 71.285-75.628 20.422-117.937-26.266-158.011-53.143-210.129-27.477-140.63 41.963-44.811 90.395-15.044M100.633 35.438C102.311 35.006 106.423 26.936 105.24 25.431 102.494 17.055 100.826 8.301 93.625 2.404 30.652-49.79-8.271-95.152-43.956-160.063-18.767-90.62 18.563-30.504 71.194 29.056 79.299 38.311 90.415 32.851 100.633 35.438M541.704 459.667C494.748 432.919 452.043 401.323 414.779 365.757 405.941 357.321 395.967 350.791 384.287 345.793 357.293 334.241 329.479 320.017 299.545 302.447 344.255 362.856 508.167 460.606 586.515 481.623 571.352 475.005 556.183 467.914 541.704 459.667M579.096 456.923C558.769 442.876 539.725 427.49 518.11 415.152 506.609 408.657 492.809 405.546 484.767 393.906 472.787 376.379 453.227 373.594 434.729 367.621 492.344 421.599 556.956 461.101 627.236 485.345 611.021 476.665 594.503 467.574 579.096 456.923M658.699 484.998C632.729 468.938 608.635 449.256 587.085 426.496 581.053 420.125 577.762 416.783 574.682 416.42 571.968 415.376 561.181 422.071 554.899 425.939 590.658 454.889 627.78 476.148 667.743 490.512 664.719 488.689 661.692 486.849 658.699 484.998M782.753 395.361C781.113 373.307 782.419 351.595 782.138 329.504 782.259 322.205 782.277 321.083 774.334 320.943 758.022 320.659 742.274 320.695 725.668 320.175 727.923 329.609 738.2 421.596 748.55 416.032 768.073 415.782 788.678 424.981 782.753 395.361M718.207-567.843C712.31-568.967 701.556-546.908 708.461-546.891 731.601-546.937 754.528-547.088 777.825-547.015 781.255-546.91 782.157-547.902 782.062-550.869 781.932-566.416 781.996-582.96 782.006-599.158 769.664-593.125 759.885-597.047 748.971-598.777 724.64-604.335 744.303-569.485 718.207-567.843M30.047-386.049C41.472-387.316 37.321-403.296 38.592-411.46 38.403-417.191 39.528-424.639 39.352-430.236-5.311-411.156-45.301-392.48-67.354-352.717-34.869-370.849-1.409-379.47 30.047-386.049M-70.795-332.789C-67.813-329.194-59.552-333.02-55.113-332.401-25.258-332.796 5.603-330.751 34.871-333.074 36.22-333.859 36.51-339.783 36.378-342.979 36.06-354.188 37.024-365.02 36.489-375.47 16.419-372.449-66.591-352.937-70.795-332.789M50.077-171.968C48.363-182.846 46.745-193.12 45.188-203.385 44.412-208.499 41.954-211.35 36.118-213.906 3.296-228.484-33.67-246.13-60.635-274.381-35.935-222.427 7.324-189.997 51.472-163.097 51-166.108 50.534-169.061 50.077-171.968M633.781 422.542C630.632 418.069 627.641 416.288 623.112 416.188 612.201 415.964 601.934 410.132 591.101 414.349 625.396 451.02 661.671 477.419 701.409 494.563 676.827 475.792 654.573 452.071 633.781 422.542M686.018 427.48C685.275 425.979 684.323 423.099 683.101 423.317 670.854 421.945 658.2 420.588 645.787 419.243 662.03 448.82 700.196 483.148 734.659 500.009 713.028 478.509 698.782 452.531 686.018 427.48M737.056 434.684C735.613 427.829 733.477 425.997 727.191 426.155 717.565 426.406 707.298 425.424 697.266 424.802 712.808 455.359 729.4 486.287 760.771 504.327 750.425 484.472 742.824 462.101 737.056 434.684M781.051-963.546C765.047-966.142 746.113-962.745 730.006-963.635 722.782-963.56 719.99-962.767 719.334-954.655 717.257-925.383 712.409-895.976 709.607-867.267 732.895-866.591 756.055-870.421 779.587-869.081 782.88-868.881 781.834-870.496 782.045-873.005 782.047-891.64 782.115-910.52 782.008-929.073 781.017-939.83 783.84-953.346 781.051-963.546M6.432-619.841C38.251-672.341 87.96-715.241 131.89-762.794 149.648-799.769 170.099-835.758 192.72-869.865 78.864-773.714 3.02-665.32-38.162-539.668-26.16-565.038-11.441-593.075 6.432-619.841M55.649-566.361C59.782-569.632 63.352-572.457 64.605-577.738 68.732-595.12 73.28-612.21 77.704-629.311 38.806-608.655-36.066-498.002-51.319-449.903-22.814-500.181 18.264-536.776 55.649-566.361M46.01-502.237C48.202-503.561 49.557-504.454 49.769-506.077 51.962-522.556 57.192-537.785 59.001-554.813 2.441-509.813-32.952-466.833-53.423-417.907-23.06-456.161 14.718-482.552 46.01-502.237M41.637-450.123C42.615-463.132 44.781-475.826 46.629-488.61 12.367-473.842-49.289-415.811-62.155-379.687-32.965-409.591 2.619-427.191 34.028-440.528 39.37-442.796 41.217-444.501 41.637-450.123M34.48-279.99C35.224-279.841 37.143-279.431 38.138-279.462 31.548-337.827 54.23-318.876-18.729-322.101-35.339-322.245-51.972-321.841-68.703-322.194-73.643-322.889-71.589-320.163-68.401-317.647-36.629-295.082-5.491-289.637 34.48-279.99M437.644 316.832C424.314 298.81 411.634 278.889 400.252 260.699 398.41 257.665 396.955 255.268 394.039 254.189 364 243.078 333.957 229.413 307.351 217.282 334.507 260.561 366.115 299.083 400.237 336.432 404.918 341.848 409.217 345.066 414.174 346.868 430.79 352.908 448.001 359.615 465.042 366.128 459.688 346.77 448.495 331.567 437.644 316.832M558.326 274.104C552.107 253.981 544.855 234.256 537.873 214.616 525.346 229.454 507.293 239.059 490.19 247.612 485.203 249.9 484.704 251.378 487.051 256.912 493.077 271.124 500.437 277.479 512.455 278.844 524.324 277.892 563.03 298.291 558.326 274.104M782.191 303.564C781.762 275.437 781.826 247.844 782.172 219.717 782.257 214.199 781.402 213.248 775.987 213.164 754.49 213.373 733.239 212.433 711.895 212.655 714.679 241.788 719.788 273.112 722.048 298.472 722.758 307.118 726.101 309.112 732.911 308.482 747.652 307.416 761.96 307.959 775.437 310.1 781.229 310.937 782.282 309.47 782.191 303.564M782.203-20.054C780.808-48.824 783.81-78.217 781.198-106.597 767.75-108.965 752.207-106.852 738.516-107.779 729-107.547 718.393-108.726 708.964-107.631 717.695-85.522 694.939-63.602 711.269-44.257 721.281-32.232 734.726-24.327 745.553-13.064 749.455-10.617 755.385-12.567 759.909-12.101 767.965-14.128 784.179-5.845 782.203-20.054M584.789-960.155C601.112-962.692 616.53-965.09 632.099-967.306 636.312-967.906 637.566-968.713 638.199-971.229 646.48-1004.151 657.018-1035.794 667.281-1065.194 651.606-1065.897 637.366-1060.961 621.968-1060.031 599.665-1030.896 586.583-993.319 571.436-958.085 575.946-958.781 580.392-959.473 584.789-960.155M414.558-916.591C426.959-920.711 439.229-926.11 452.055-928.911 467.223-930.728 476.582-938.432 484.358-955.502 497.81-985.03 514.326-1012.358 531.834-1041.198 513.223-1035.663 494.472-1030.114 475.673-1024.393 442.313-994.441 420.964-951.691 395.359-910.494 402.234-911.793 408.48-914.224 414.558-916.591M295.227-866.071C320.462-877.522 343.333-890.139 369.086-899.667 376.428-902.109 381.043-906.186 385.015-913.738 402.822-947.594 424.162-980.336 451.85-1016.228 427.125-1007.426 404.046-998.075 379.855-987.077 366.884-981.18 359.057-970.357 350.769-958.898 327.141-928.102 305.461-897.392 285.342-861.37 288.684-862.958 291.976-864.524 295.227-866.071M301.593 229.49C295.089 221.118 290.492 206.139 280.088 203.122 255.116 197.925 228.192 159.785 207.966 192.663 276.568 289.629 280.705 279.332 381.646 332.681 351.142 298.988 324.908 265.167 301.593 229.49M782.158-123.855C782.011-152.42 781.838-180.43 782.12-208.987 782.118-214.152 781.578-214.843 776.589-214.926 749.715-214.563 724.194-214.646 695.171-214.891 689.422-214.816 688.759-214.331 688.709-208.811 689.182-189.964 689.169-169.811 688.671-147.2 688.516-141.228 693.676-138.233 696.276-133.391 709.34-109.875 742.969-122.295 765.42-119.227 770.495-120.261 783.39-115.627 782.158-123.855M649.894-972.957C649.195-970.666 649.002-969.564 648.978-969.035 665.851-970.745 682.394-972.983 704.091-973.861 709.295-974.126 710.99-975.662 711.645-980.708 714.201-1007.542 722.095-1039.092 725.338-1069.956 722.286-1070.919 716.868-1068.199 713.51-1069.992 696.836-1065.796 680.893-1075.239 675.148-1054.275 665.741-1027.218 658.19-1000.14 649.894-972.957M501.584-942.43C520.145-946.586 537.677-950.512 555.272-954.335 557.86-954.896 559.295-956.003 560.07-958.033 573.256-992.598 587.895-1024.847 604.755-1056.466 588.576-1054.171 572.451-1050.769 553.208-1045.611 525.412-1012.459 505.964-974.264 487.967-939.383 492.572-940.411 497.106-941.428 501.584-942.43M199.555-858.915C181.526-832.814 165.251-805.282 148.758-772.931 325.413-903.56 216.464-788.069 343.129-968.456 303.018-949.561 270.505-927.529 232.512-900.866 217.582-890.062 209.706-873.576 199.555-858.915M57.661-217.158C75.856-210.517 93.893-203.772 113.57-198.149 112.161-215.992 124.127-230.825 122.822-248.161 122.475-250.692 123.255-253.041 120.255-252.982 97.406-256.611 74.811-260.469 53.626-264.11 49.727-264.392 49.984-264.652 49.945-260.99 49.945-260.99 50.904-250.877 50.904-250.877 51.798-241.479 52.723-231.76 53.565-222.191 53.807-219.458 54.84-218.188 57.661-217.158M70.984-151.509C91.215-140.604 112.438-130.797 132.645-121.675 125.937-203.437 132.159-174.727 55.818-205.48 56.692-196.705 58.913-186.895 60.018-178.139 62.186-168.567 60.301-156.519 70.984-151.509M83.786-82.468C97.916-73.813 112.047-63.387 126.438-55.205 129.478-59.312 131.966-67.291 134.984-71.833 144.843-89.973 140.149-105.294 121.531-114.126 103.664-122.68 85.085-132.006 66.733-141.074 71.151-123.186 75.715-104.928 79.776-87.797 80.328-85.472 81.452-83.978 83.786-82.468M123.21-22.043C120.319-25.164 120.396-31.593 121.373-35.162 123.321-42.277 121.294-46.172 113.341-50.596 104.294-55.611 94.62-62.021 85.126-68.072 92.408-42.408 99.524-20.88 107.365-.763 109.422 4.276 116.586 5.851 120.46 9.771 124.953-4.147 134.818-8.973 123.21-22.043M433.919 268.906C427.626 267.157 421.173 265.363 414.692 263.501 427.719 283.664 440.833 304.051 455.57 323.164 457.926 326.06 457.425 325.759 460.184 323.173 470.116 310.775 464.931 293.379 482.671 283.522 466.729 278.026 450.742 273.582 433.919 268.906M625.777 243.475C623.405 232.051 620.953 220.238 618.624 208.64 617.935 205.207 616.862 204.157 613.633 203.751 590.687 200.874 566.997 197.507 543.477 194.277 547.771 212.162 554.055 228.693 559.871 245.93 562.528 251.085 563.148 261.709 567.855 264.118 573.774 265.843 582.698 256.106 589.199 261.933 602.872 273.401 606.024 251.5 627.973 254.062 627.24 250.524 626.508 246.995 625.777 243.475M617.386 398.768C616.255 398.735 614.986 401.41 614.101 403.333 615.955 404.429 618.068 404.391 621.046 404.045 620.065 400.737 619.025 398.854 617.386 398.768M676.308 411.672C676.894 411.752 677.947 411.896 678.375 411.804 676.011 403.225 671.366 394.853 668.337 386.239 657.057 392.895 643.282 397.028 629.726 396.359 631.367 402.239 637.21 408.153 642.266 408.222 652.279 409.367 664.467 410.553 676.308 411.672M729.658 415.361C730.741 415.395 731.285 415.307 731.531 415.243 726.292 385.355 720.069 354.442 714.847 322.695 714.009 314.922 708.268 318.573 703.161 318.479 699.651 318.412 694.646 315.821 695.04 321.789 694.588 340.105 686.928 356.164 680.306 372.361 676.968 379.892 678.501 383.74 681.49 389.523 684.984 414.736 705.735 417.272 729.658 415.361M754.515 114.89C742.599 140.843 700.13 116.099 705.991 144.861 713.774 209.749 697.448 202.251 748.737 202.667 795.509 202.166 779.146 212.437 782.024 153.644 782.025 139.472 781.816 125.387 782.12 111.084 782.214 106.645 781.711 105.663 776.159 105.349 765.61 104.752 759.03 106.098 754.515 114.89M196.171-727.877C210.168-735.432 218.398-744.753 223.692-759.048 233.242-784.84 245.567-809.846 257.716-833.203 216.14-810.341 171.34-776.467 141.925-753.466 122.858-727.982 117.156-702.664 103.752-667.333 136.6-691.512 165.306-711.219 196.171-727.877M46.711-316.486C47.568-304.745 48.433-292.234 48.778-279.718 48.86-276.744 49.729-276.461 53.398-275.742 82.448-269.936 105.524-266.206 128.054-263.57 145.097-284.872 146.369-294.577 142.637-321.226 126.618-323.616 108.679-321.222 92.278-322.086V-322.152C79.015-322.128 65.792-321.937 52.388-322.264 47.469-322.287 46.442-321.383 46.711-316.486M229.886 241.171C218.752 227.075 207.812 210.199 196.911 195.877 178.453 195.967 166.323 182.594 150.768 176.328 176.85 202.164 203.491 224.312 231.715 243.612 231.105 242.798 230.496 241.985 229.886 241.171M473.209 257.332C470.819 254.718 455.909 261.258 449.115 261.119 459.583 264.392 470.329 267.486 481.325 270.247 477.871 262.784 475.811 258.617 473.209 257.332M518.416 189.803C523.236 192.033 528.808 192.91 533.126 196.557 532.105 192.35 528.488 191.038 518.416 189.803M685.904-746.16C684.067-747.919 678.939-747.729 670.032-747.243 649.979-746.146 630.477-744.125 610.412-743.018 606.292-742.789 604.816-741.368 604.34-737.169 603.296-727.947 602.288-718.721 601.279-709.495 600.27-689.951 594.437-667.885 595.6-648.534 622.885-646.745 652.918-651.934 679.463-652.108 682.758-652.281 683.325-652.89 683.506-656.447 684.748-680.87 686.323-704.124 687.789-727.743 687.883-738.016 687.937-744.216 685.904-746.16M696.323-853.871C676.218-856.47 650.453-850.783 629.442-850.238 623.898-849.792 621.276-847.301 620.392-841.638 616.149-812.315 610.248-783.179 606.49-754.191 632.198-755.139 658.731-757.964 687.902-759.621 689.758-759.458 689.882-760.748 690.048-763.537 691.522-792.754 697.204-825.042 696.323-853.871M401.552-815.336C422.77-817.603 433.185-827.272 438.923-849.562 446.164-873.969 456.869-897.499 467.59-921.717 451.856-918.165 438.03-912.77 423.221-907.879 386.711-895.831 386.711-895.831 369.648-860.674 357.907-836.481 349.354-816.404 342.261-796.325ZM178.911-640.89C182.809-642.721 183.364-643.654 183.441-643.896 190.621-669.537 199.466-695.388 208.492-722.022 167.517-700.09 125.248-673.849 94.723-643.275 88.475-623.716 82.115-604.307 77.571-582.516 112.93-606.363 146.135-625.487 178.911-640.89M159.845-556.267C163.146-557.437 163.524-559.117 163.648-559.67 168.639-581.843 173.881-605.454 179.001-628.442 141.979-610.951 109.766-591.221 77.078-568.388 69.647-563.752 71.844-553.702 68.953-546.444 66.434-535.47 63.836-524.165 62.333-511.977 97.514-530.309 127.83-544.911 159.845-556.267M53.356-449.258C53.358-449.148 53.359-449.04 53.36-448.93 82.173-457.747 109.629-468.693 138.566-475.702 147.687-477.178 151.413-481.216 152.313-490.599 154.013-508.375 157.119-526.615 159.778-544.785 135-534.481 111.367-521.563 86.588-512.676 55.577-501.69 53.747-476.167 53.356-449.258M49.113-390.713C75.119-392.512 101.159-400.394 127.679-402.309 141.374-403.695 145.568-407.774 145.63-419.768 145.702-435.348 147.41-451.327 148.56-467.256 114.801-458.376 84.328-448.536 55.51-437.215 52.193-435.912 51.199-434.837 51.078-432.423 51.112-418.8 48.144-403.684 49.113-390.713M83.67-332.271C101.302-332.087 118.719-332.624 136.437-332.1 142.595-332.045 143.709-332.735 143.71-338.72 143.25-356.954 143.574-375.18 143.908-389.02 144.12-393.393 142.683-394.434 138.985-393.699 128.849-391.938 118.521-390.351 108.534-388.815 101.178-386.562 43.311-381.565 46.707-374.239 49.943-324.244 32.09-332.759 83.67-332.271M342.521 218.556C336.431 206.287 341.59 193.274 354.227 187.366 357.415 185.788 357.903 184.708 357.965 184.317 357.655 180.445 347.276 173.092 343.769 174.282 335.495 175.324 332.587 186.113 327.681 191.916 321.43 201.679 307.282 199.386 296.972 198.643 311.279 208.089 328.063 214.04 343.832 221.514 343.646 220.615 343.168 219.715 342.521 218.556M431.167 251.596C421.005 241.29 421.546 240.256 410.227 247.956 419.209 251.172 428.461 254.407 437.954 257.534 435.41 255.833 433.204 253.712 431.167 251.596M513.565 177.06C518.006 177.995 522.738 178.675 527.14 179.986 527.805 178.572 527.505 176.888 526.365 176.179 517.105 166.394 502.889 174.601 494.209 165.727 488.833 160.903 484.837 149.886 489.18 142.281 496.012 135.556 497.706 126.898 499.499 117.732 499.792 109.343 508.544 95.087 505.259 88.508 503.718 85.711 499.687 83.82 492.573 82.556 471.895 78.255 450.958 75.441 430.7 69.777 429.662 73.885 425.996 79.901 428.688 82.881 434.168 90.126 435.781 98.219 437.789 106.256 441.572 128.449 462.939 111.66 460.315 136.262 458.046 152.066 484.444 142.9 487.95 167.631 488.289 174.861 507.566 174.925 513.565 177.06M703.792 307.635C708.201 307.935 711.848 308.05 712.51 307.309 713.442 302.299 709.431 288.564 709.025 281.612 707.312 290.42 707.172 298.989 703.792 307.635M683.234-636.612C682.871-641.045 683.366-643.557 677.733-642.127 662.501-640.831 646.887-640.222 631.854-639 621.973-637.284 602.012-639.199 594.791-635.678 593.457-634.319 593.075-630.901 592.809-625.41 608.786-632.247 623.917-626.196 639.56-624.181 651.052-622.731 664.618-621.719 678.1-625.197 684.004-626.721 683.91-630.342 683.234-636.612M555.292-850.854C573.766-853.983 591.215-856.942 609.154-858.338 612.547-858.482 613.13-860.906 613.65-864.847 617.63-895.582 627.448-925.931 633.113-955.567 613.789-953.885 595.382-949.767 571.337-946.181 558.351-943.843 543.067-865.093 535.877-847.633 542.458-848.677 548.965-849.78 555.292-850.854M458.6-831.554C479.453-836.045 499.087-840.302 519.093-844.452 522.178-845.058 523.274-845.374 523.851-847.466 532.056-877.211 541.836-908.192 553.715-942.062 537.01-940.151 521.677-934.582 505.353-932.666 488.116-930.669 478.247-922.575 472.353-905.605 463.181-879.271 451.007-855.281 443.097-828.212 448.314-829.335 453.478-830.449 458.6-831.554M238.366-751.144C361.49-805.314 312.043-774.712 370.763-887.53 344.411-879.193 321.07-865.812 296.146-854.382 268.707-843.537 262.862-819.006 251.534-795.837 244.245-780.39 236.732-764.468 230.053-747.307 232.87-748.605 235.637-749.883 238.366-751.144M374.894-605.826C345.86-599.225 315.937-592.423 286.457-585.586 276.217-583.346 274.099-522.191 270.888-506.191 289.968-509.355 309.216-512.616 327.796-515.523 330.742-515.761 332.071-518.891 333.69-521.636 341.896-535.125 351.225-548.951 366.975-556.804 369.439-558.032 370.588-560.026 371.073-563.914 372.647-577.892 374.536-592.201 376.848-606.164 376.492-606.139 375.894-606.053 374.894-605.826M432.143-583.318C442.955-602.155 459.35-607.388 477.857-608.088 479.673-609.174 480.29-619.361 480.312-623.675 451.233-620.157 421.867-613.413 393.129-609.253 388.822-608.548 387.924-607.584 387.477-603.181 386.135-588.906 382.977-574.96 381.176-560.934 382.32-560.167 384.271-559.892 385.262-560.852 394.257-570.32 405.858-572.345 417.077-574.301 423.439-575.049 428.403-576.903 432.143-583.318M612.382 193.45C613.294 193.584 614.039 193.66 614.633 193.509 614.206 186.987 612.54 179.942 611.679 173.333 604.63 176.4 597.955 173.732 591.888 171.337 572.58 163.236 595.917 150.429 578.334 139.193 582.449 169.149 560.72 165.072 537.404 172.026 537.597 175.96 537.467 182.555 542.387 182.777 565.594 186.077 588.739 189.708 612.382 193.45M667.284 146.311C653.549 146.137 643.624 153.718 633.103 161.748 628.502 166.819 618.44 167.565 622.907 176.479 626.226 187.167 622.346 196.027 638.592 196.279 656.102 196.78 673.341 198.823 690.58 200.45 697.441 201.13 700.394 200.749 699.205 193.149 696.979 176.525 695.749 159.183 694.167 142.007 686.021 145.069 677.035 146.459 667.284 146.311M649.87-532.231C646.427-537.495 637.77-532.036 632.267-531.968 638.404-502.521 612.66-463.994 583.685-477.872 583.081-466.345 582.572-454.674 581.711-443.546 581.391-438.104 582.389-437.187 587.812-437.204 606.818-437.716 625.158-436.592 644.428-439.767 640.25-456.994 658.084-475.409 676.903-470.196 679.557-544.748 685.204-497.919 649.87-532.231M249.119-490.998C227.821-486.158 206.392-481.914 185.213-476.673 165.713-472.347 161.656-471.446 158.366-447.92 157.128-434.539 155.505-420.492 156.172-407.199 164.955-405.21 174.567-410.346 180.145-419.09 197.374-443.064 222.489-471.949 253.194-491.896ZM163.937-396.657C161.088-395.788 157.887-395.907 154.94-395.618 154.519-395.231 154.298-394.009 154.284-391.984 154.215-381.433 154.262-369.899 154.259-359.367H153.787C153.687-350.708 153.94-341.866 153.701-333.16 153.874-333.077 154.446-332.985 154.522-333.008 165.207-352.537 172.068-373.03 172.204-397.017 169.645-397.881 166.973-397.307 163.937-396.657M428.153 57.485C430.599 60.984 444.734 61.277 449.613 63.014 466.34 65.9 483.828 70.563 500.795 72.738 499.045 56.781 494.627 39.863 492.078 23.89 460.057 41.898 458.837 46.974 421.46 42.309 424.013 47.292 427.344 51.579 428.153 57.485M334.539-776.895C325.558-748.562 314.777-719.918 307.416-692.716 336.383-700.086 365.533-711.229 395.538-717.151 398.506-717.789 399.667-718.873 400.316-721.612 407.925-755.21 416.891-783.366 424.844-810.528 408.385-805.391 335.639-787.594 334.539-776.895M288.488-685.569C295.04-686.828 296.341-693.822 297.791-699.339 305.315-725.263 312.715-752.273 323.44-777.635 277.889-757.358 216.83-746.162 209.005-692.562 205.848-677.776 199.847-663.964 196.151-648.904 230.187-664.591 261.832-676.215 288.488-685.569M395.923-706.061C362.468-697.741 330.821-687.972 306.803-680.326 304.704-679.657 303.595-679.154 303.359-678.26 295.821-649.723 289.856-623.217 285.159-597.367 314.888-603.952 344.888-611.419 374.279-617.226 377.954-618.116 379.541-619.521 379.936-622.237 383.806-651.231 390.941-679.279 395.923-706.061M175.852-563.127C199.663-570.929 222.84-580.456 247.577-585.617 268.312-589.925 276.749-599.315 278.705-620.267 280.373-638.327 286.248-656.597 290.644-674.769 251.477-660.901 224.033-649.812 197.299-637.169 193.677-635.524 191.591-634.424 190.83-630.933 186.401-608.121 179.329-585.804 175.852-563.127M255.437-576.644C229.665-569.298 205.88-561.647 180.981-552.876 174.227-550.81 171.824-547.973 171.095-541.203 169.8-521.453 162.84-502.159 162.91-482.623 287.102-518.832 247.318-468.864 270.585-581.135 265.461-579.61 260.417-578.117 255.437-576.644M533.809 6.749C532.452-2.26 532.395-5.084 521.789-3.181 510.015-4.077 499.788 6.35 502.325 17.955 506.623 39.174 509.739 55.237 512.562 70.777 513.216 74.423 513.503 75.087 515.642 75.285 518.759 75.583 522.032 76.559 524.061 74.285 526.702 72.32 524.08 69.752 522.864 67.216 499.963 27.408 542.415 39.114 533.809 6.749M547.005-402.46C553.51-394.333 562.893-389.496 564.728-377.485 565.234-374.192 566.974-371.851 569.913-370.489 569.886-387.171 569.678-403.976 570.051-420.257 570.036-425.175 569.271-425.864 564.292-425.781 536.685-424.71 509.352-423.867 482-422.954 486.306-404.908 502.917-402.423 518.367-404.278 528.346-405.119 537.038-414.904 547.005-402.46M424.688-724.361C445.369-728.033 465.033-733.053 485.391-736.468 496.953-736.227 500.125-741.89 502.219-753.199 507.053-779.346 513.483-805.845 519.383-832.385 494.517-828.781 469.855-822.834 445.543-816.521 440.625-815.236 437.44-813.439 435.723-808.045 427.223-781.354 419.12-753.053 410.989-721.639ZM593.664-740.343C566.395-739.162 538.123-732.41 510.352-729.486 508.611-729.245 508.495-728.921 508.108-726.457 501.641-692.304 496.608-664.299 493.56-637.02 522.24-639.575 550.272-645.202 579.399-645.747 582.858-645.828 582.969-646.837 583.383-650.588 586.139-679.215 591.785-709.31 593.664-740.343M482.687-639.229C485.493-665.158 491.67-697.04 496.32-726.644 496.312-726.65 495.517-727.296 491.588-726.387 468.015-720.93 445.153-716.612 417.715-711.536 409.854-710.081 406.595-706.756 405.261-698.828 401.558-672.972 394.088-646.564 390.563-620.819 426.583-626.575 454.037-631.771 479.25-634.466 481.396-634.723 482.194-635.447 482.687-639.229M496.162-626.23C486.021-625.695 491.851-611.81 490.021-605.032 498.273-603.987 507.556-607.87 513.591-610.843 526.758-617.38 540.875-621.548 554.89-607.904 561.657-601.684 580.846-612.805 580.806-620.226 581.071-624.834 581.683-630.462 582.432-634.923 553.679-632.573 524.981-629.798 496.162-626.23M487.479-477.366C490.606-470.295 490.284-464.824 486.37-458.48 482.976-452.717 477.732-441.294 478.433-433.502 478.654-433.241 479.471-432.819 482.475-432.954 510.265-434.165 538.687-435.405 566.737-436.549 575.12-438.97 570.229-468.147 571.898-475.763 571.897-475.764 571.894-486.597 571.894-486.597 570.667-498.944 575.691-510.63 566.597-520.39 558.217-531.177 555.438-506.854 533.243-507.786 520.863-508.235 508.183-514.909 496.097-517.803 484.914-520.977 482.399-518.96 481.265-507.332 480.545-498.103 482.519-488.581 487.479-477.366M609.315-846.841C599.793-848.106 583.642-843.035 573.254-842.397 564.092-839.671 532.42-840.457 530.874-830.258 524.105-800.479 517.445-771.336 510.731-741.489 536.543-744.595 564.206-748.49 589.449-751.664 594.151-752.27 595.967-753.63 596.791-760.066 599.569-789.162 607.613-818.33 609.315-846.841M628.141-547.513C628.61-544.358 628.396-544.437 630.279-544.21 634.805-544.622 639.751-545.141 644.255-544.61 646.041-555.446 627.977-559.681 628.141-547.513M677.045-406.42C677.329-409.133 677.855-414.184 676.745-414.717 668.106-418.796 659.486-426.532 650.193-427.079 636.176-427.919 621.813-427.682 607.921-427.451 600.673-426.534 588.975-429.143 583.02-425.341 581.783-424.053 581.24-421.731 581.362-418.24 581.909-402.509 580.778-386.664 579.733-374.619 576.866-356.692 602.166-367.897 621.333-352.335 628.292-374.882 645.082-388.251 671.292-392.095 680.16-392.615 675.378-400.627 677.045-406.42M676.542-318.559C676.722-321.714 676.533-321.835 674.761-321.976 672.661-322.146 672.009-321.406 670.893-317.597 665.698-299.883 662.817-281.201 676.543-264.409 676.615-282.954 676.447-300.96 676.542-318.559M322.182-503.632 274.63-495.425C282.428-490.536 285.618-477.892 294.116-475.664 306.147-478.107 315.877-494.511 322.182-503.632M154.817-316.117C154.738-317.868 154.848-319.758 154.741-321.531 152.436-320.369 154.35-306.534 153.751-303.004 154.978-307.122 154.898-311.542 154.817-316.117M642.245 258.495C665.807 260.397 677.822 226.875 703.319 232.38 702.653 225.937 701.858 218.381 700.676 210.929 678.331 211.107 653.227 207.135 629.567 206.119 631.076 219.486 637.162 234.892 639.113 251.943 639.688 255.436 640.741 257.64 642.245 258.495M708.93-961.527C708.649-962.595 703.333-962.664 699.51-962.154 683.32-960.646 666.579-959.086 650.085-957.8 646.428-957.514 644.917-956.156 644.098-952.417 638.949-925.149 629.162-891.776 624.594-860.854 647.366-861.97 670.999-865.411 693.819-866.057 697.611-866.299 698.682-866.807 698.994-869.926 701.992-899.501 705.364-931.793 708.93-961.527M782.007-262.655C782.124-280.529 781.805-298.196 782.106-316.167 782.082-321.357 781.601-322.15 776.636-322.228 762.846-322.054 748.63-321.967 733.753-321.967 719.545-321.09 702.188-323.855 687.442-321.131 685.194-290.543 688.716-259.114 687.958-231.532 687.997-227.334 688.843-226.503 693.252-226.503 718.53-226.616 747.85-226.699 776.826-226.21 781.84-225.974 782.202-227.888 782.106-232.367 781.945-242.469 781.978-252.731 782.007-262.655M782.044-399.128C782.058-408.448 782.071-417.963 782.068-427.297 765.163-423.906 745.695-412.372 729.256-421.819 721.77-428.857 714.309-425.039 705.94-421.823 685.485-413.973 686.792-414.521 686.564-392.661 686.56-387.563 687.223-384.005 688.781-380.761 697.354-368.471 680.022-346.511 686.742-336.763 689.025-333.677 694.5-332.238 703.972-332.233 728.082-332.22 751.999-332.349 776.294-332.205 780.263-332.221 782.336-332.351 782.131-336.818 781.982-357.591 782.013-378.707 782.044-399.128M782.007 22.369C782.757-9.115 783.778 1.642 755.979-.206 763.021 10.868 757.878 24.89 766.863 34.148 770.35 38.392 776.726 45.93 782.063 44.27 782.73 37.874 781.578 29.183 782.007 22.369M782.018-1011.611C782.197-1029.561 781.679-1047.3 782.146-1065.351 783.411-1076.689 769.152-1070.162 762.5-1071.624 755.413-1070.236 738.246-1076.239 737.136-1066.41 730.561-1037.31 727.003-1008.257 722.14-979.043 721.717-975.297 721.886-974.349 727.077-974.382 740.533-974.662 758.273-974.933 776.173-974.52 781.614-974.554 782.158-975.633 782.16-981.354 781.924-991.447 781.972-1001.697 782.018-1011.611M782.037-796.319C782.159-814.519 781.761-832.504 782.161-850.801 782.177-856.279 781.251-857.479 775.87-857.268 755.854-856.091 736.072-857.572 716.004-856.067 708.499-855.499 707.498-852.608 707.003-846.146 705.195-821.274 703.399-796.684 702.017-772.018 701.012-762.887 696.637-757.788 710.753-759.689 724.521-761.679 738.484-761.489 751.989-761.31 794.05-761.183 779.574-756.675 782.037-796.319M702.548-641.696C693.764-643.147 692.735-642.917 693.758-634.093 696.998-636.238 699.768-638.883 702.548-641.696M782.147-530.403C782.111-536.021 781.465-537 775.993-537.037 769.6-536.933 763.108-536.93 756.829-536.928 740.279-536.921 723.167-536.915 706.455-535.021 702.813-534.608 688.879-519.705 688.826-515.089 688.669-501.025 688.756-487.082 688.769-473.138 727.151-477.113 719.794-453.277 738.783-462.764 798.93-481.123 778.307-447.326 782.147-530.403M4.108-568.33C28.143-598.479 51.464-622.639 75.407-642.187 82.268-647.789 86.46-653.717 89.002-661.408 96.409-683.812 105.6-705.687 114.483-727.13 38.911-657.27-12.712-581.855-42.556-497.583-27.499-524.76-12.374-547.656 4.108-568.33M782.006-690.582C782.224-708.593 781.556-726.388 782.211-744.487 782.358-749.603 780.664-751.1 775.544-750.689 753.214-748.654 731.052-750.225 708.679-749.68 701.869-749.511 699.853-748.414 699.618-741.484 698.672-713.673 696.779-685.471 694.874-659.138 694.665-653.594 694.825-652.494 700.162-652.939 718.229-654.815 736.57-654.586 754.308-654.364 793.975-653.662 779.401-650.552 782.006-690.582M782.057 477.351C779.288 415.378 794.961 429.612 749.677 427.519 747.179 427.493 746.759 427.999 746.755 428.003 746.706 431.453 748.882 436.259 749.602 439.863 756.134 460.478 763.325 496.635 781.434 509.156 783.063 499.603 781.559 487.395 782.057 477.351M535.256 474.808C423.375 426.295 356.982 378.057 267.139 285.088 248.271 265.335 223.123 253.656 202.28 236.21 180.781 218.779 158.551 200.754 138.874 180.464 133.928 175.365 130.339 174.45 125.626 177.092 118.002 181.492 109.133 182.382 100.305 180.797 161.708 290.657 415.218 457.855 543.508 478.105 540.761 476.981 538.003 475.874 535.256 474.808M825.819 489.645C825.058 488.997 824.25 488.311 823.483 487.564 820.147 493.862 817.725 500.097 813.544 506.281 818.841 504.855 835.881 495.298 825.819 489.645M1527.828-167.808C1526.283-166.751 1525.326-166.055 1525.144-165.083 1522.442-150.766 1519.617-135.164 1516.851-119.999 1560.969-159.869 1589.169-197.003 1605.988-237.709 1583.736-208.732 1555.542-187.076 1527.828-167.808M1523.565-525.12C1525.799-511.538 1527.729-499.81 1529.855-487.881 1554.475-467.701 1583.769-447.085 1606.952-416.249 1588.691-461.964 1556.271-497.977 1522.756-530.042 1523.029-528.38 1523.299-526.739 1523.565-525.12M1506.745-598.476C1510.596-582.207 1514.46-565.86 1518.232-549.937 1551.321-517.859 1585.126-485.154 1605.487-445.87 1589.076-495.697 1542.272-565.231 1506.745-598.476M1480.255-681.169C1484.062-671.562 1487.997-661.631 1490.317-651.406 1494.568-632.687 1504.324-616.339 1521.951-598.4 1553.137-566.661 1579.387-529.062 1600.109-486.48 1574.62-559.402 1535.025-623.872 1479.659-682.674 1479.858-682.17 1480.058-681.669 1480.255-681.169M1418.125-814.317C1429.374-793.797 1442.166-773.813 1450.226-751.687 1460.868-720.927 1482.932-698.84 1503.843-674.816 1542.293-630.826 1572.44-581.744 1595.223-529.136 1580.484-600.961 1488.097-750.915 1415.352-818.95 1416.242-817.358 1417.189-815.828 1418.125-814.317M1356.801-907.255C1372.981-886.563 1384.653-862.764 1404.15-844.714 1466.448-787.351 1518.732-719.293 1559.031-643.814 1509.928-772.269 1434.87-881.889 1335.531-970.13 1334.544-941.925 1338.71-930.424 1356.801-907.255M1322.549-449.081C1324.6-441.053 1324.423-432.92 1324.251-425.057 1323.999-419.464 1323.71-414.35 1330.484-414.276 1357.431-411.256 1385.413-407.798 1416.028-403.701 1417.204-403.437 1419.557-403.555 1419.87-403.984 1420.813-407.516 1420.206-420.379 1418.908-422.091 1392.072-428.486 1361.783-438.073 1344.945-459.76 1339.683-465.83 1336.093-466.404 1331.277-463.017 1324.724-458.848 1320.794-455.945 1322.549-449.081M1218.132-428.55C1218.292-427.228 1218.308-425.703 1218.541-424.43 1248.846-421.831 1282.587-418.28 1313.103-416.747 1317.161-423.008 1311.154-441.877 1312.111-450.505 1312.215-453.795 1310.438-452.512 1308.37-452.171 1281.617-447.156 1261.364-427.337 1236.183-452.384 1233.028-455.349 1225.662-445.908 1221.057-446.358 1218.021-445.728 1217.691-445.418 1217.602-444.364 1217.161-439.222 1217.655-433.796 1218.132-428.55M1134.26-454.441C1127.081-461.063 1120.602-469.939 1110.416-469.599 1108.962-457.971 1111.931-445.697 1112.173-433.752 1112.229-431.318 1112.53-430.87 1116.176-430.674 1147.274-429.006 1175.309-427.479 1203.483-425.688 1206.894-425.474 1207.146-425.71 1207.382-429.321 1208.262-444.395 1208.935-443.418 1194.166-445.599 1162.281-452.583 1155.844-431.653 1134.26-454.441M1049.909-1130.942C1074.795-1118.035 1101.132-1096.453 1128.165-1076.564 1128.691-1076.653 1129.466-1076.968 1130.836-1082.13 1131.843-1086.35 1134.941-1089.901 1137.537-1093.537 1093.027-1120.954 1050.315-1140.834 1007.754-1153.895 1021.461-1146.764 1035.237-1139.134 1049.909-1130.942M978.141-1149.457C1028.025-1119.223 1072.806-1079.363 1115.041-1027.601 1120.597-1020.972 1126.217-1016.634 1133.506-1015.919 1132.699-1029.997 1129.946-1044.153 1128.277-1057.145 1127.773-1060.453 1126.123-1063.175 1123.085-1065.705 1070.815-1109.224 1010.006-1144 942.876-1168.572 954.623-1162.606 966.668-1156.411 978.141-1149.457M945.963-1145.955C977.15-1120.678 1005.114-1091.287 1029.08-1058.598 1034.881-1050.684 1040.962-1046.316 1049.41-1043.992 1066.073-1039.415 1083.118-1033.677 1100.111-1028.229 1068.369-1076.231 961.645-1156.717 904.243-1172.996 919.004-1164.641 932.987-1156.471 945.963-1145.955M901.765-1082.409C904.375-1076.48 907.412-1074.071 913.37-1073.197 925.704-1071.388 938.977-1069.623 951.911-1067.857 922.45-1113.995 891.302-1156.821 842.423-1180.097 871.51-1151.135 888.127-1113.388 901.765-1082.409M845.132-1090.703C846.637-1081.905 850.59-1079.03 858.681-1079.338 869.652-1079.643 881.198-1077.753 892.527-1076.535 873.498-1119.166 855.43-1159.548 815.889-1184.189 828.815-1158.111 838.174-1128.136 845.132-1090.703M793.485-1147.062C793.354-1127.73 793.997-1108.62 793.289-1089.189 792.925-1082.782 794.982-1081.574 800.884-1081.813 812.729-1082.495 825.184-1081.434 836.736-1081.977 831.684-1101.783 814.758-1184.786 794.327-1188.083 793.188-1187.835 793.096-1187.815 793.418-1185.336 793.796-1172.635 793.293-1159.604 793.485-1147.062M921.514 311.426C903.929 312.123 885.402 316.07 867.519 317.381 863.607 317.76 862.861 318.466 862.19 322.415 856.825 353.182 851.516 383.484 845.564 413.862 859.411 413.916 871.786 405.091 886.177 410.032 898.958 378.398 913.169 344.81 921.514 311.426M931.641 416.282C921.888 416.931 911.724 417.957 902.275 419.298 906.959 424.314 913.238 427.45 919.802 430.473 922.817 432.355 924.432 428.975 926.46 426.393 928.15 423.965 931.983 419.788 932.848 416.393 932.711 416.339 932.363 416.241 931.641 416.282M986.377 405.515C986.369 404.329 981.201 406.877 979.79 406.848 966.011 407.693 963.742 422.438 948.622 421.174 943.273 421.035 942.685 420.765 937.46 431.155 955.455 430.423 983.658 422.477 986.377 405.515M1170.019 249.793C1146.467 257.468 1123.252 265.916 1099.855 273.865 1095.199 275.481 1091.723 276.978 1089.384 281.544 1073.486 312.072 1054.825 343.821 1032.595 373.574 1027.732 377.115 1034.79 380.401 1037.279 380.528 1051.244 376.964 1065.268 373.014 1078.905 368.218 1089.336 364.387 1096.911 355.194 1100.238 343.384 1101.722 338.644 1103.402 333.272 1108.245 330.677 1122.804 322.879 1131.178 310.038 1140.044 296.441 1150.438 281.218 1160.746 266.214 1170.019 249.793M1194.788 239.129C1189.436 241.364 1185.947 244.412 1183.122 249.323 1168.781 274.244 1154.035 296.989 1138.119 318.726 1180.185 328.341 1165.146 293.943 1202.572 300.39 1206.415 301.187 1208.154 301.449 1209.917 299.167 1236.402 266.893 1260.151 233.095 1280.516 198.694 1254.395 212.722 1226.293 225.976 1194.788 239.129M1320.811 91.666C1201.749 147.25 1258.847 116.821 1195.956 226.435 1213.847 220.439 1229.423 211.827 1245.98 203.413 1270.917 189.777 1292.583 188.115 1291.671 155.435 1291.967 144.413 1295.325 135.925 1302.562 127.918 1313.856 115.398 1323.013 101.628 1335.337 89.84 1337.96 87.334 1339.787 84.726 1340.969 81.736 1334.143 85.063 1327.386 88.409 1320.811 91.666M1353.065-5.383C1248.882 40.675 1288.782 5.839 1248.069 113.399 1281.984 99.834 1313.641 83.519 1343.245 67.911 1346.098 66.407 1347.696 64.676 1348.591 62.124 1357.687 36.173 1366.901 10.266 1376.023-15.675 1368.31-12.319 1360.574-8.8 1353.065-5.383M1573.12-243.054C1530.795-215.666 1534.195-236.246 1528.426-181.847 1558.936-200.067 1606.751-250.78 1613.735-274.985 1602.963-264.429 1589.253-252.312 1573.12-243.054M1542.5-274.829C1539.562-274.228 1538.172-272.534 1537.997-269.337 1537.395-258.296 1536.209-246.462 1535.188-234.917 1563.036-249.909 1607.826-272.665 1615.365-299.734 1593.964-290.271 1568.896-280.229 1542.5-274.829M1432.642-733.327C1425.454-738.871 1419.192-745.244 1411.873-750.784 1410.505-735.421 1419.855-724.107 1428.718-712.32 1440.835-696.954 1446.109-681.21 1450.125-664.866 1461.127-655.77 1472.83-645.987 1484.43-636.304 1471.489-672.831 1465.121-710.39 1432.642-733.327M905.783-1147.477C926.247-1126.184 944.618-1101.645 961.943-1072.459 965.392-1066.648 968.91-1064.192 975.387-1063.073 990.05-1060.545 1005.52-1056.269 1020.661-1052.479 984.951-1098.206 940.037-1146.679 875.929-1173.647 886.119-1165.532 896.536-1157.098 905.783-1147.477M852.187-652.889C869.85-647.436 854.112-676.622 849.218-682.088 824.145-722.247 859.17-727.734 852.404-744.115 851.085-747.494 851.897-750.217 846.34-749.551 840.734-749.48 835.135-749.582 829.534-749.543 819.54-749.538 809.202-749.53 799.025-749.825 794.048-749.837 793.375-749.127 793.387-744.098 793.599-715.963 793.827-688.37 793.332-660.245 792.006-643.762 810.735-669.235 852.187-652.889M850.399 325.105C851.282 317.707 850.53 317.636 844.204 318.093 831.914 319.893 819.548 320.262 806.979 320.262 802.031 321.067 792.34 317.246 793.402 325.449 793.802 344.028 793.344 362.29 793.586 380.764 793.679 390.157 793.773 399.87 793.347 409.434 793.257 415.417 794.193 415.852 800.434 416.079 817.892 416.249 827.53 416.331 832.091 412.404 836.859 408.442 838.456 399.116 841.354 382.187 844.629 363.042 847.137 344.26 850.399 325.105M966.751 359.26C967.646 359.481 968.085 359.283 969.565 356.226 977.95 339.811 987.344 321.08 995.884 299.802 975.554 302.974 955.157 306.191 935.34 309.171 933.79 309.075 933.402 311.306 932.886 313.078 928.39 327.202 923.696 342.42 919.131 357.092 934.467 355.735 950.712 355.276 966.751 359.26M1612.393-322.097C1588.833-321.582 1564.413-323.315 1541.255-321.354 1538.898-311.167 1540.313-298.538 1538.852-287.923 1538.914-284.699 1538.601-284.977 1539.897-284.783 1545.129-285.379 1625.57-307.174 1617.054-320.96 1617.467-322.681 1614.241-322.101 1612.393-322.097M1612.848-344.28C1590.585-356.487 1564.939-364.08 1540.587-369.895 1539.804-360.258 1541.379-347.879 1540.33-338.234 1540.195-335.811 1540.524-334.171 1541.31-333.361 1541.969-332.455 1544.732-332.079 1547.005-332.201 1558.707-332.522 1570.214-332.254 1581.825-332.284V-332.243C1592.227-331.952 1602.782-332.557 1613.22-332.151 1619.927-330.062 1618.42-342.268 1612.848-344.28M1538.943-418.745C1538.945-407.785 1538.947-396.267 1538.938-385.698 1538.936-382.862 1539.706-381.891 1542.524-381.174 1565.741-375.276 1592.44-367.929 1617.052-355.108 1604.152-383.696 1573.444-401.316 1538.943-418.745M1532.192-470.974C1533.504-458.895 1534.864-446.758 1535.979-435.057 1536.171-433.046 1536.908-431.979 1538.702-431.124 1563.011-419.527 1590.576-404.59 1613.404-381.135 1606.062-406.859 1558.126-456.312 1532.192-470.974M1475.35-629.82C1468.211-634.586 1463.69-641 1456.304-645.832 1463.49-570.923 1443.103-609.31 1505.501-559.403 1501.122-576.985 1497.232-595.342 1491.584-611.656 1488.877-619.491 1482.306-624.509 1475.35-629.82M1392.308-815.17C1409.72-762.467 1399.616-775.164 1443.229-738.867 1426.704-775.153 1408.197-812.661 1382.928-846.563 1385.149-835.692 1388.775-825.297 1392.308-815.17M1169.654-416.893C1152.187-418.288 1134.863-419.134 1117.355-420.646 1112.915-420.953 1112.104-420.363 1112.396-415.933 1114.627-389.536 1113.257-363.708 1113.284-337.521 1113.292-332.6 1114.68-332.184 1119.54-332.209 1137.641-332.476 1155.435-332.188 1173.434-332.317 1184.367-333.261 1198.276-330.514 1208.629-333.346 1211.004-358.003 1209.177-384.456 1207.91-409.669 1207.537-413.599 1206.373-414.269 1202.561-414.533 1191.59-415.297 1180.622-416.095 1169.654-416.893M1116.438-912.491C1115.105-912.925 1113.748-913.365 1112.371-913.82 1122.088-889.598 1117.323-895.515 1133.82-896.535 1140.672-896.59 1145.565-896.946 1146.14-901.052 1146.428-903.112 1145.555-903.878 1139.225-904.981 1131.16-906.436 1124.624-910.308 1116.438-912.491M1129.466-939.123C1117.383-954.192 1103.773-983.999 1123.104-999.361 1120.804-1003.797 1118.24-1009.153 1113.928-1010.915 1091.942-1019.91 1070.592-1027.214 1047.261-1033.705 1070.24-1000.018 1087.329-965.757 1104.2-930.735 1106.986-922.706 1132.412-919.559 1141.38-915.342 1140.124-924.545 1134.573-931.651 1129.466-939.123M793.347-1065.647C793.786-1037.099 793.609-1009.093 793.366-980.544 793.328-975.539 794.115-974.539 798.986-974.481 817.67-974.414 836.086-974.466 854.635-973.85 850.366-1004.792 846.238-1035.915 839.689-1066.811 839.104-1069.525 838.526-1069.809 836.313-1069.839 828.425-1068.391 789.926-1078.565 793.347-1065.647M793.386 304.362C793.387 310.18 794.678 310.669 798.638 309.921 813.718 306.572 828.375 308.646 843.383 308.205 850.373 307.992 852.701 307.286 853.502 299.708 855.577 280.083 858.487 260.241 861.3 241.053 861.627 232.191 866.778 219.281 863.646 211.231 862.468 210.109 859.95 210.264 858.042 210.589 838.203 213.96 818.779 212.204 798.992 213.221 794.169 213.472 793.33 214.384 793.38 219.322 793.652 245.717 793.654 273.534 793.386 304.362M1389.959-97.705C1362.607-88.022 1335.938-79.03 1308.138-70.374 1302.492-68.644 1299.618-66.781 1298.548-60.875 1294.112-36.413 1287.701-12.627 1280.859 12.416 1313.064 2.381 1341.772-12.533 1372.449-25.692 1386.418-31.303 1384.155-48.787 1388.719-60.673 1391.991-73.445 1395.366-86.612 1397.731-100.458 1395.116-99.535 1392.528-98.616 1389.959-97.705M1505.51-544.953C1493.619-555.292 1480.713-564.836 1465.394-574.586 1469.196-563.456 1462.739-554.391 1456.904-546.201 1454.503-542.773 1449.009-535.355 1449.62-533.948 1470.662-520.228 1498.768-507.95 1517.716-494.969 1514.973-510.234 1512.231-525.932 1509.357-540.286 1509.038-541.886 1506.565-544.036 1505.51-544.953M1326.438-337.39C1326.43-332.888 1327.276-332.173 1331.576-332.206 1347.014-332.473 1362.203-332.273 1377.515-332.291V-332.194C1390.761-332.21 1403.972-332.348 1417.358-332.11 1422.462-332.175 1423.649-332.552 1423.497-337.412 1422.605-353.577 1421.736-370.971 1421.415-388.628 1421.348-392.316 1419.749-392.675 1415.815-393.196 1386.077-396.646 1356.045-401.635 1326.736-402.899 1325.004-381.729 1327.375-358.367 1326.438-337.39M1240.443-322.141C1237.031-321.715 1222.843-323.118 1220.223-321.383 1217.873-295.457 1221.24-268.777 1217.627-241.928 1242.323-242.621 1267.993-244.763 1295.986-248.462 1305.567-249.729 1310.292-250.585 1312.228-252.964 1314.252-255.452 1314.31-260.785 1314.413-270.466 1314.581-286.945 1314.972-302.037 1315.591-315.941 1315.726-321.4 1314.633-322.213 1309.13-322.296 1286.344-322.046 1263.179-322.092 1240.443-322.141M793.367-957.59C793.899-929.792 793.412-902.513 793.453-874.715 793.409-870.391 793.572-869.345 798.125-868.663 807.58-867.244 817.245-867.003 826.754-867.003 839.806-867.341 853.464-866.788 866.522-866.304 864.47-896.653 859.722-927.724 856.94-957.927 856.58-961.234 855.529-962.219 852.254-962.313 837.96-962.729 819.104-963.361 800.012-964.579 794.072-964.821 793.3-963.667 793.367-957.59M793.38-232.147C793.463-227.1 794.065-226.541 799.126-226.473 826.821-226.869 854.978-226.892 882.208-226.915 886.155-226.879 889.095-226.752 888.66-231.293 887.639-263.723 892.116-293.35 888.886-321.046 882.975-323.967 872.309-321.24 865.338-321.998 843.411-322.306 821.821-321.813 799.826-322.211 794.176-322.23 793.424-321.579 793.343-316.062 793.71-291.639 793.722-265.759 793.38-232.147M793.797 94.358C795.404 97.22 799.801 95.055 802.608 95.227 824.967 94.707 846.799 93.624 869.229 93.303 874.363 93.23 874.992 91.881 875.448 86.138 878.172 51.811 879.64 23.629 880.046-2.265 851.312-1.308 821.48-3.413 794.271 1.129 791.968 12.691 794.84 27.855 793.42 39.405 790.862 60.454 817.606 63.198 797.883 85.753 794.933 88.718 792.035 91.826 793.797 94.358M793.287 114.206C795.183 143.217 791.473 173.239 794.399 201.802 808.665 203.858 825.473 200.599 840.033 201.096 846.655 200.905 853.501 200.709 860.229 200.469 864.158 200.329 865.987 199.35 866.438 193.917 868.056 163.777 874.042 133.257 874.276 103.717 861.099 103.424 846.56 106.265 833.125 105.47 822.942 105.472 812.966 105.227 802.765 105.298 794.296 105.557 793.027 106.216 793.287 114.206M931.337 205.105C913.362 206.779 896.382 208.359 879.104 209.827 876.245 210.069 875.843 211.053 875.363 215.155 871.929 243.958 869.144 272.229 864.794 301.185 864.49 305.944 863.926 305.833 867.114 306.205 883.845 304.283 900.899 301.952 920.888 299.981 931.363 299.706 943.558 222.671 947.567 203.599 942.109 204.103 936.704 204.606 931.337 205.105M1052.019 185.507C1048.278 186.291 1046.967 187.307 1046.174 190.039 1037.358 220.391 1027.038 251.168 1014.667 283.994 1038.505 280.295 1059.69 273.592 1082.127 267.596 1102.749 235.978 1114.523 198.785 1126.86 166.832 1103.465 173.772 1079.538 179.74 1052.019 185.507M1223.25 134.954C1098.486 182.404 1164.542 132.189 1099.379 262.136 1126.092 254.657 1148.829 245.13 1174.021 236.271 1177.359 235.1 1179.354 233.646 1180.491 231.554 1200.693 194.374 1215.275 163.887 1227.341 133.546 1225.947 134.028 1224.584 134.496 1223.25 134.954M1246.813 35.936C1224.393 43.097 1201.208 50.501 1178.062 56.332 1174.413 57.251 1172.528 58.196 1171.688 61.078 1163.198 90.201 1154.191 120.446 1145.311 150.428 1253.935 113.064 1226.371 137.747 1264.808 30.217 1258.785 32.113 1252.791 34.027 1246.813 35.936M1499.014-149.201C1388.375-84.855 1420.865-139.696 1393.905-37.166 1424.212-56.225 1496.195-90.015 1504.113-117.215 1506.554-130.021 1509.633-143.339 1512.543-156.514 1507.962-154.047 1503.459-151.609 1499.014-149.201M1426.157-182.583C1423.092-181.735 1422.812-179.958 1422.72-179.373 1419.645-159.826 1416.474-139.267 1413.375-119.285 1440.055-130.426 1463.967-143.522 1489.512-155.891 1517.813-168.014 1520.618-189.788 1521.456-215.828 1483.862-200.668 1454.332-190.372 1426.157-182.583M1516.299-482.726C1495.883-496.768 1472.921-507.99 1449.632-519.675 1466.303-434.878 1421.679-484.003 1524.846-437.6 1522.472-448.797 1524.133-476.649 1516.299-482.726M1121.181-322.311C1114.205-322.249 1113.407-321.094 1113.349-313.865 1113.733-287.829 1113.515-261.008 1113.501-234.398 1141.334-235.634 1169.262-238.879 1197.555-239.604 1202.187-239.187 1205.099-239.104 1206.415-241.472 1209.26-252.301 1206.964-266.042 1208.259-277.538 1207.645-291.098 1211.441-307.986 1208.591-320.973 1180.935-324.305 1150.274-320.459 1121.181-322.311M1075.942-924.697C1058.387-927.519 1041.312-934.459 1024.124-937.754 1027.967-925.248 1032.865-911.936 1036.788-899.322 1041.783-883.072 1059.854-883.085 1074.632-887.722 1094.876-893.462 1096.574-877.537 1108.394-887.743 1110.792-889.395 1111.408-890.041 1109.255-892.846 1103.797-909.656 1097.684-921.595 1075.942-924.697M985.619-1049.201C982.03-1050.08 978.383-1050.972 974.664-1051.88 989.849-1018.458 1004.125-991.835 1016.938-956.085 1018.602-951.635 1020.095-949.249 1023.64-948.559 1046.08-944.2 1069.105-937.443 1092.244-930.927 1074.899-966.598 1057.084-1001.169 1033.931-1032.959 1028.066-1043.073 998.593-1044.455 985.619-1049.201M919.572-1061.275C916.659-1061.76 913.675-1062.255 910.651-1062.741 918.849-1037.051 928.397-1011.499 934.19-985.863 938.353-967.512 945.744-960.416 961.127-960.416 976.627-960.477 991.196-954.646 1006.611-952.541 996.659-984.226 979.818-1012.807 966.414-1043.01 958.2-1062.56 936.428-1056.428 919.572-1061.275M864.172-1068.032C862.465-1068.115 852.37-1069.36 851.026-1069.428 854.525-1041.796 860.658-1014.639 863.392-986.633 864.671-974.71 868.15-971.136 878.901-970.697 895.551-970.304 912.203-966.956 928.533-966.057 919.614-1003.714 908.642-1034.762 898.274-1061.188 897.15-1063.974 896.004-1064.858 893.168-1065.132 883.497-1066.063 873.672-1067.064 864.172-1068.032M827.082-119.492C830.056-119.477 833.029-119.461 836.003-119.455V-119.65C850.919-119.636 865.719-119.791 880.759-119.584 885.288-119.502 886.303-120.421 886.37-124.658 886.746-148.08 887.332-178.997 888.534-210.436 888.579-216.001 888.191-216.723 882.711-216.689 855.101-215.852 826.724-215.248 798.368-214.894 794.128-214.841 793.389-214.027 793.423-209.452 793.604-185.73 793.761-154.52 793.37-123.469 793.465-119.024 793.85-119.542 797.173-119.307 807.147-119.57 817.277-119.557 827.082-119.492M1530.763-395.641 1528.347-395.611C1528.371-394.694 1529.317-393.342 1530.787-393.38 1530.669-394.341 1530.711-395.241 1530.763-395.641M1018.383 191.987C1000.344 194.768 983.306 197.394 965.933 200.159 961.53 200.86 959.206 202.326 957.901 208.765 951.914 238.29 946.323 267.575 937.283 298.106 956.861 294.781 976.661 291.335 995.663 288.323 1007.17 290.561 1029.293 204.24 1034.474 189.504 1029.077 190.338 1023.717 191.165 1018.383 191.987M1287.761-63.591C1258.567-57.735 1228.456-48.619 1199.96-42.743 1194.937-41.601 1193.67-39.582 1193.18-36.478 1188.884-9.256 1181.725 17.961 1175.847 45.447 1206.432 37.782 1234.412 28.588 1262.809 19.516 1266.61 18.301 1268.58 16.135 1269.606 12.042 1275.819-14.394 1283.146-39.179 1287.761-63.591M1395.593-173.892C1371.429-168.695 1349.388-160.979 1325.434-157.468 1317.607-157.257 1314.851-154.498 1313.636-145.66 1310.948-125.334 1306.962-103.144 1302.779-79.747 1337.174-89.951 1368.712-100.863 1397.064-112.295 1399.91-113.443 1400.879-114.4 1401.213-116.391 1404.579-136.409 1408.114-157.45 1411.553-177.827 1406.165-176.5 1400.852-175.189 1395.593-173.892M1526.149-270.432C1410.08-240.292 1435.915-281.938 1424.988-193.537 1457.735-202.822 1487.813-214.51 1514.751-225.198 1521.846-228.098 1524.369-231.805 1524.395-239.367 1524.458-249.915 1526.472-259.713 1526.149-270.432M1328.53-169.836C1342.311-174.813 1415.892-184.288 1413.845-195.502 1416.233-211.467 1418.55-228.622 1419.309-245.918 1419.385-250.836 1418.563-251.086 1413.461-250.547 1384.884-246.768 1356.929-243.103 1329.084-239.811 1324.861-239.311 1324.177-238.68 1323.85-234.982 1321.896-212.91 1319.384-189.976 1317.038-167.287 1320.892-168.144 1324.722-168.992 1328.53-169.836M1102.457-415.513C1102.486-419.941 1101.332-421.267 1097.309-421.422 1084.692-422.263 1072.118-422.785 1059.487-423.239 1043.875-423.85 1027.729-424.481 1011.854-425.28 1006.308-425.442 1005.444-424.633 1005.431-419.143 1006.894-390.501 1007.34-361.709 1008.046-333.123 1014.843-331.003 1024.21-332.773 1031.573-332.21 1042.985-332.222 1055.689-332.197 1067.099-332.252 1077.774-333.183 1091.465-330.458 1101.552-333.229 1104.497-357.674 1101.161-382.919 1102.457-415.513M1091.583-473.925C1077.309-459.554 1040.424-436.004 1019.398-457.378 1014.726-462.177 1010.392-465.075 1005.363-466.681 1005.373-457.158 1005.41-447.562 1005.337-438.297 1005.204-435.779 1006.311-436.515 1008.187-436.397 1037.627-435.292 1066.802-433.822 1096.444-432.48 1098.704-432.365 1099.579-432.74 1099.909-433.07 1101.361-438.259 1099.744-445.334 1100.098-450.825 1098.992-456.351 1103.182-485.262 1091.583-473.925M896.185-852.557C890.573-852.609 884.696-853.028 879.07-854.346 881.155-845.839 879.96-836.773 881.978-828.35 891.204-836.987 901.764-843.781 912.62-850.896 907.067-852.28 901.556-852.421 896.185-852.557M891.933-958.9C888.741-959.384 885.463-959.881 882.211-960.314L882.165-959.898C877.981-959.686 871.469-961.484 867.89-959.886 868.671-929.669 875.897-896.407 878.046-869.5 878.432-865.69 878.623-864.88 881.786-864.755 901.992-863.95 921.422-860.187 941.689-860.166 947.586-861.06 954.63-857.396 951.611-866.937 945.238-892.605 940.16-918.618 935.505-943.064 933.649-953.151 929.883-956.149 920.409-956.032 910.854-956.032 901.236-957.49 891.933-958.9M946.494 192.038C949.751 191.691 950.531 190.9 951.129 187.334 955.287 157.166 963.581 126.475 966.057 96.825 941.373 96.619 915.757 101.505 888.302 102.983 885.79 103.199 885.176 103.6 884.909 107.052 882.818 134.251 881.039 161.577 877.895 188.997 877.291 194.253 877.637 197.391 878.947 198.591 885.965 200.965 895.322 197.076 902.909 197.044 917.186 195.343 931.948 193.585 946.494 192.038M1048.521 84.379C1033.222 86.799 1018.311 88.865 1003.253 91.412 996.968 92.515 990.468 93.655 983.961 93.785 978.435 93.895 977.148 96.287 976.608 100.959 973.223 130.343 967.186 159.924 961.891 189.679 983.953 187.478 1005.79 183.329 1026.939 179.312 1032.323 177.769 1038.576 179.389 1039.998 171.857 1047.431 142.703 1055.024 113.459 1061.141 82.441ZM1159.718 61.143C1134.064 67.347 1106.104 74.504 1077.357 78.76 1073.918 79.272 1072.805 80.303 1072.178 83.556 1066.392 113.585 1058.551 143.142 1050.325 174.236 1073.093 170.077 1094.598 164.332 1115.433 158.765 1121.862 155.924 1130.688 158.032 1133.282 149.708 1142.469 121.715 1152.651 91.52 1159.718 61.143M962.787-864.658C963.392-858.034 968.479-859.146 973.054-860.467 994.637-864.738 1001.399-895.906 1026.501-896.091 1023.03-907.91 1017.752-921.368 1013.029-936.555 1012.15-939.265 1010.228-940.758 1006.793-941.397 986.352-945.206 964.971-948.967 943.837-952.743 950.72-924.608 957.696-894.603 962.787-864.658M900.682-448.415C914.877-453.484 926.7-450.26 935.861-438.808 936.969-437.423 938.288-437.381 940.724-437.4 957.502-437.14 974.103-436.898 990.977-436.514 994.591-436.829 994.294-435.957 994.475-439.314 993.075-444.294 995.662-473.355 990.805-471.988 949.896-475.497 927.292-506.364 898.439-529.187 898.14-501.566 897.847-475.379 900.682-448.415M1078.892-321.957C1056.624-322.157 1034.675-321.981 1012.35-322.166 1008.188-322.289 1007.303-321.489 1007.346-318.021 1007.432-305.05 1006.815-291.914 1006.219-279.21 1005.549-264.925 1004.855-250.154 1005.167-235.63 1005.482-229.634 1006.333-228.873 1012.482-229.122 1034.77-230.466 1064.097-232.176 1093.311-233.476 1098.772-233.718 1100.36-234.032 1100.676-239.503 1101.075-265.649 1104.789-294.776 1101.419-321.153 1095.42-323.694 1085.708-321.256 1078.892-321.957M887.962 90.769C911.877 92.718 937.062 87.392 961.415 85.945 966.238 85.454 968.644 84.146 969.267 78.04 971.6 48.877 978.045 19.732 979.714-8.999 960.373-9.37 937.605-5.483 917.98-5.368 911.994-5.057 906.009-4.748 900.027-4.401 893.504-4.024 891.383-3.304 891.237 3.801 892.254 30.757 885.718 62.859 887.962 90.769M1182.425-38.481C1153.556-34.197 1125.483-27.411 1096.175-24.233 1094.033-23.987 1091.729-23.054 1090.884-17.995 1086.158 10.28 1081.008 39.746 1075.978 68.881 1103.926 62.509 1132.129 56.025 1159.296 49.979 1162.226 49.327 1163.727 47.683 1164.479 44.304 1170.375 16.6 1176.922-10.695 1182.425-38.481M892.144-14.667C912.444-14.455 933.644-16.925 954.015-18.668 961.302-19.376 968.836-20.108 976.266-20.702 980.626-21.051 981.836-22.244 982.155-26.508 983.895-49.692 986.051-77.051 988.856-104.189 989.342-108.884 988.794-111.971 987.229-113.365 985.722-114.796 982.26-114.893 977.77-113.868 951.939-110.233 926.349-112.76 900.521-109.782 896.77-109.346 896.185-108.798 896.049-105.59 895.076-73.506 892.352-41.902 892.144-14.667M1080.068-20.808C1054.974-19.118 1027.058-13.762 1001.857-11.973 997.812-11.155 989.502-12.433 989.96-6.553 987.206 22.844 982.898 53.403 980.136 82.983 1006.743 80.698 1033.594 74.491 1060.506 70.993 1063.365 70.554 1064.216 70.002 1064.747 66.955 1069.293 37.66 1076.651 8.289 1080.068-20.808M1103.412-120.584C1101.099-95.391 1096.888-66.05 1094.144-34.909 1123.326-39.418 1152.683-45.63 1179.796-49.891 1183.816-50.572 1184.806-51.534 1185.373-55.309 1189.085-80.022 1193.183-104.341 1197.144-128.774 1197.949-135.146 1198.052-134.744 1191.442-134.413 1176.213-132.456 1160.71-130.69 1145.718-128.982 1133.672-127.61 1121.215-126.191 1108.982-124.683 1105.361-124.236 1103.74-123.714 1103.412-120.584M1079.223-221.308C1056.543-221.284 1034.086-219.972 1011.612-219.106 1007.848-218.932 1004.728-219.734 1004.921-215.049 1003.842-186.731 1002.462-159.015 1000.818-132.67 1000.22-126.66 1002.309-125.737 1007.338-126.297 1034.757-128.906 1062.612-131.314 1090.129-133.454 1093.275-133.699 1093.553-134.361 1093.855-138.372 1095.024-153.884 1096.358-169.639 1097.534-183.539 1098.572-192.286 1098.359-201.607 1099.789-209.789 1100.664-215.338 1101.354-219.721 1099.211-222.368 1096.137-226.477 1084.786-220.918 1079.223-221.308M1091.278-122.306C1064.584-121.49 1035.969-116.444 1008.283-116.374 1001.242-116.055 998.877-114.832 998.741-108.218 999.552-84.517 993.084-52.406 992.532-21.998 1021.052-24.017 1049.982-29.27 1078.933-32.19 1081.433-32.49 1082.162-33.054 1082.534-36.456 1084.159-61.695 1091.155-93.868 1091.278-122.306M900.123-232.081C900.059-227.564 901.017-226.729 905.157-226.836 932.321-227.713 960.3-228.428 990.691-229.021 994.215-229.09 995.298-230.337 995.324-234.358 994.793-263.245 996.834-292.642 995.014-321.389 965.648-323.686 935.508-321.143 905.802-322.208 901.263-322.187 900.574-321.569 900.476-317.085 900.577-290.867 900.462-263.062 900.123-232.081M943.356-422.23C946.09-414.479 953.29-407.553 944.844-398.312 937.582-390.666 928.958-386.817 919.13-386.817 905.171-386.26 899.426-395.881 900.585-378.677 900.577-365.25 900.896-351.912 900.435-338.361 900.37-332.872 901.325-332.089 906.864-332.12 935.94-333.49 966.168-330.388 994.72-333.203 997.57-359.174 994.262-384.979 995.575-419.988 995.603-424.369 994.575-425.471 990.338-425.604 976.473-426.04 961.709-426.538 947.024-427.395 943.48-427.604 942.837-426.909 942.776-426.83 942.672-426.696 942.21-425.845 943.356-422.23M898.493-187.08C898.465-183.677 898.449-180.143 898.454-176.732L896.974-176.737C897.57-158.909 896.204-139.667 897.285-121.991 923.913-120.511 951.43-123.441 985.857-125.722 989.881-126.053 990.353-127.882 990.601-132.638 991.998-159.559 993.026-185.813 994.338-212.678 995.255-218.918 991.888-218.104 987.559-217.932 970.42-216.85 952.927-216.313 934.597-216.313 901.339-214.579 896.631-227.154 898.493-187.08M1303.03-151.886C1271.265-149.093 1239.972-139.861 1216.229-138.422 1210.994-137.803 1208.525-136.387 1207.741-129.62 1205.887-104.843 1198.046-78.353 1197.418-54.369 1227.417-58.612 1257.494-68.839 1287.359-75.058 1294.918-75.107 1297.652-122.325 1300.854-131.535 1300.797-134.297 1305.339-150.228 1303.03-151.886M1129.906-224.583C1125.288-223.285 1108.976-226.625 1110.269-219.72 1110.449-203.107 1109.03-186.37 1107.656-170.184 1108.306-165.016 1101.657-133.442 1108.581-135.132 1136.429-138.58 1164.58-142.854 1192.819-145.97 1197.853-146.544 1198.835-148.07 1199.232-152.364 1200.682-168.035 1202.208-183.393 1203.977-201.176 1204.272-209.012 1206.67-219.284 1206.23-227.247 1205.508-228.146 1202.999-229.535 1194.261-228.726 1172.848-226.741 1151.018-225.643 1129.906-224.583M1528.847-338.598C1528.319-348.413 1528.659-358.108 1528.771-367.809 1528.817-371.785 1528.13-373.091 1523.491-374.085 1494.281-380.341 1464.01-385.787 1433.472-390.279 1434.445-371.503 1431.764-351.143 1434.399-333.247 1463.341-330.403 1494.407-333.401 1522.605-332.124 1528.104-332.177 1529.016-333.129 1528.847-338.598M1528.331-297.211C1528.236-304.728 1529.44-318.804 1526.985-320.066 1525.136-322.099 1518.813-322.101 1509.245-322.092 1486.299-322.094 1463.474-321.819 1440.321-322.229 1434.281-322.193 1432.826-321.34 1433.283-315.475 1435.813-299.105 1428.947-280.724 1432.053-265.261 1463.024-267.726 1495.327-276.558 1524.948-280.795 1531.177-281.986 1527.314-292.468 1528.331-297.211M1216.771-223.831C1214.968-199.03 1212.521-174.698 1210.365-154.167 1209.704-147.724 1211.551-148.505 1216.066-149.005 1238.966-153.235 1269.446-158.818 1300.242-164.116 1304.33-164.814 1305.302-164.98 1305.638-168.611 1307.449-190.616 1311.091-214.487 1312.959-237.285 1285.141-237.567 1250.815-231.225 1223.276-230.72 1218.089-230.377 1217.176-229.412 1216.771-223.831M1528.333-396.141C1527.318-425.187 1529.12-424.846 1502.287-434.968 1484.894-440.783 1467.442-448.88 1449.908-453.349 1449.448-453.128 1448.746-452.387 1448-450.094 1444.269-433.381 1428.344-436.363 1430.977-416.173 1431.719-402.686 1430.777-400.834 1445.138-399.634 1473.048-396.581 1499.683-389.584 1525.483-385.05 1531.402-384.481 1527.617-391.171 1528.333-396.141M793.568-71.572C794.157-52.313 792.204-31.772 794.26-12.853 824.438-10.042 853.847-13.239 877.095-13.824 880.856-14.053 881.743-15.014 881.84-18.962 882.843-45.657 882.941-71.998 885.03-98.404 885.672-101.839 886.744-107.589 885.647-108.805 884.575-109.997 878.899-109.53 876.475-109.328 860.177-107.985 843.638-107.937 827.643-107.89 783.634-107.614 794.864-112.84 793.568-71.572M1324.233-257.529C1322.98-252.508 1325.942-250.442 1330.804-251.43 1338.645-252.354 1346.621-253.192 1354.336-254.004 1374.705-256.146 1395.769-258.362 1416.217-262.344 1420.198-263.119 1420.93-264.402 1421.063-266.983 1421.421-273.825 1421.719-280.791 1422.008-287.527 1422.423-297.192 1422.852-307.187 1423.457-317.016 1424.088-321.378 1421.492-322.53 1417.252-322.187 1388.472-322.026 1360.26-321.922 1331.473-322.189 1323.038-323.121 1327.343-312.108 1326.418-306.985 1326.589-290.773 1326.765-274.008 1324.233-257.529M793.493-380.846C794.335-365.499 791.924-348.038 794.349-333.154 824.022-330.629 856.09-333.334 884.37-332.202 888.548-332.335 889.437-332.365 889.554-336.228 889.572-344.728 889.67-353.363 889.766-361.715 889.338-370.835 891.09-381.46 889.305-390.341 873.883-390.983 847.138-384.023 838.317-401.952 833.045-411.597 822.606-416.852 819.377-428.345 819.647-430.961 812.899-429.216 810.144-429.182 802.354-429.322 796.677-429.437 795.093-427.783 791.467-418.538 794.396-392.564 793.493-380.846M793.55-820.544C793.375-802.303 793.771-784.265 793.437-765.912 793.464-761.92 793.994-761.359 797.976-761.198 811.739-760.98 826.657-760.472 843.584-759.645 848.297-759.409 849.973-759.793 851.707-765.198 854.764-774.807 863.387-781.115 865.285-791.095 867.904-800.512 876.249-853.816 864.361-854.97 840.218-855.484 819.113-856.204 799.843-857.171 793.919-857.316 793.327-856.098 793.367-849.919 793.676-840.118 793.611-830.168 793.55-820.544M793.553-488.56C793.785-480.325 792.99-471.411 793.786-463.34 799.856-455.147 798.454-446.909 795.438-439.591 803.201-439.597 811.341-439.615 818.712-439.568 821.523-439.551 822.843-439.709 823.272-440.695 833.283-463.688 874.62-460.869 887.995-447.689 888.076-465.463 888.736-483.38 887.646-500.664 887.051-510.176 886.784-519.587 886.852-528.637 886.796-533.5 885.791-534.658 881.005-534.751 852.394-534.007 822.846-536.119 794.542-536.251 791.572-521.575 794.622-503.69 793.553-488.56M1263-409.637C1253.17-410.635 1243.279-411.861 1233.282-412.004 1226.531-412.696 1221.654-413.196 1220.4-412.041 1218.045-407.107 1219.979-390.159 1219.529-382.736 1219.629-368.147 1219.729-353.061 1221.009-338.279 1221.466-333.012 1222.551-332.156 1226.497-332.156 1236.701-332.299 1247.079-332.278 1257.109-332.247 1274.956-332.136 1292.594-332.462 1310.543-332.162 1315.717-332.206 1316.68-332.571 1316.649-337.477 1316.225-349.685 1316.004-362.094 1315.792-374.093 1314.863-418.412 1322.246-400.833 1263-409.637M793.41-552.025C793.295-547.541 794.226-546.996 798.623-546.969 822.831-547.019 849.66-547.62 874.689-545.74 850.158-578.878 867.349-620.336 810.084-607.117 792.139-604.088 793.782-604 793.49-586.31 793.49-574.885 793.811-563.554 793.41-552.025M1604.967-208.807C1605.172-209.324 1605.37-209.829 1605.555-210.327 1583.232-170.297 1549.877-133.552 1517.161-105.335 1506.114-95.403 1508.444-80.687 1502.64-68.196 1508.602-68.517 1516.356-65.767 1520.165-70.886 1556.534-112.035 1588.042-161.179 1604.967-208.807M1426.605 14.085C1429.521 11.988 1430.84 10.441 1430.45 7.322 1427.711-40.417 1492.597-35.233 1497.094-89.396 1462.889-63.64 1428.572-42.411 1392.381-24.606 1390.007-23.438 1389.139-21.74 1388.092-18.376 1381.016 4.563 1372.349 31.137 1362.171 56.396 1385.272 43.477 1405.451 29.017 1426.605 14.085M992.518 390.233C996.656 380.019 1004.088 368.832 1017.208 370.948 1020.396 371.486 1021.762 370.392 1023.8 367.566 1044.838 338.398 1062.151 310.188 1076.617 281.487 991.516 303.037 1020.445 279.827 980.858 358.103 980.305 359.391 978.759 361.283 978.631 362.477 993.598 368.666 995.729 380.195 992.518 390.233M899.591 408.662C901.86 408.72 904.112 408.703 906.4 408.427 904.545 407.508 902.839 406.219 901.237 404.541 900.301 405.62 899.873 406.926 899.591 408.662M840.851 432.854C843.768 430.708 847.062 428.608 849.002 425.935 841.801 424.978 841.685 425.81 840.851 432.854M829.944 426.076C827.069 425.267 816.305 427.395 812.118 427.211 807.132 427.527 795.805 427.9 794.8 429.732 792.036 434.237 794.104 462.289 793.491 469.08 793.194 480.834 793.867 492.702 793.339 504.486 791.938 512.301 798.802 508.095 801.701 503.643 816.937 487.269 814.521 468.815 823.109 451.231 825.812 444.608 831.147 432.069 829.944 426.076M1537.998-75.076C1545.914-74.955 1554.177-67.704 1558.69-77.637 1572.987-103.171 1587.371-130.296 1595.886-159.857 1581.081-131.319 1561.998-103.386 1537.998-75.076M1398.677 46.555C1408.653 46.815 1414.221 40.834 1419.217 32.625ZM1616.086-158.049C1459.804 499.548 659.222 757.914 168.413 279.407 116.059 231.131 74.765 172.437 34.793 113.568 22.386 97.096 9.558 80.061 3.399 57.575-5.393 25.672-23.891-3.087-35.585-34.148-246.833-578.111 162.985-1203.579 746.26-1201.154 1144.897-1224.762 1520.846-926.497 1604.721-539.899 1641.141-407.308 1647.064-291.808 1616.086-158.049"/>
</g>
</g>
</svg>
