<svg xmlns="http://www.w3.org/2000/svg" xmlns:xlink="http://www.w3.org/1999/xlink" xmlns:inkscape="http://www.inkscape.org/namespaces/inkscape" version="1.1" width="2048" height="1920" viewBox="0 0 2048 1920">
<defs>
<clipPath id="clip_1">
<path transform="matrix(1,0,0,-1,0,1920)" d="M0 1920H2048V0H0Z"/>
</clipPath>
</defs>
<g inkscape:groupmode="layer" inkscape:label="Layer 1">
<g clip-path="url(#clip_1)">
<path transform="matrix(1,0,0,-1,873.6453,743.4219)" d="M0 0C6.86 2 20.31-3.83 20-11.35 19.61-20.72 9.58-21.18-1.04-25.21-3.61-26.19-6.34-24.28-6.34-21.53-6.33-11.76-10.56-3.09 0 0M201.1 55.04C217.88 53.62 234.66 52.28 251.43 50.69 254.61 50.39 256.2 47.95 255.81 44.63 255.39 41.09 253.58 40.93 250.13 41.19 233.4 42.47 216.73 43.67 201.1 55.04M220.96 11.3C220.52 18.3 222.53 25.33 230.63 24.63 237.3 24.05 244.19 20.53 246.42 12.36 243.49 3.75 236.2 .79 228.52-.32 219.18-1.66 221.29 6.13 220.96 11.3M314.46 73.05C295.62 56.81 274.74 62.71 254.17 68.23 247.38 70.05 241.06 73.57 234.41 75.98 229.77 77.66 220.87 73.85 222.27 83.03 223.18 89.03 230.3 89.94 236.28 90.42 253.31 91.79 270.3 93.51 287.3 95.09 301.69 95.25 315.72 94.78 328.77 87.54 336.35 83.33 341.04 78.21 338.36 68.69 337.07 64.1 338.44 57.33 331.52 57.45 324.14 57.58 326.94 62.66 326.96 67.81 326.98 74.49 322.55 80.04 314.46 73.05M524.37 273.5C524.37 265.33 512.72 270.85 506.81 273.76 460.66 296.58 423.04 329.07 376.84 351.66 335.8 371.73 276.01 378.36 255.25 345.36 312.09 359.64 347.5 340.97 379.5 322.19 402.55 308.38 414.15 299.64 426.52 280.27 372.01 316.06 334.9 335.81 263.33 326.1 302.44 324.19 336.58 310.38 371.92 293.56 376.93 291.17 391.45 292.48 379.77 279.77 379.35 279.32 380.05 276.79 380.69 276.57 404.98 268.38 415.92 252.06 447.41 240.45 467.39 233.08 489.46 229.59 510.16 227.64 516 227.09 524.37 227.21 524.37 217.08 524.37 211.38 511.83 214.38 506.94 215.35 446.94 227.26 387.66 241.33 333.54 271.69 324.78 276.6 314.92 281.71 302.36 276.98 349.6 247.05 403.16 220.66 510.9 202.53 515.7 201.72 523.84 200.83 524.37 194.19V188.83C521.62 177.48 512.86 180.68 504.01 183.64 457.02 199.29 407.54 212.51 362.14 234.02 361.97 234.1 355.4 236.93 355.5 236.57 357.12 230.73 358.95 228.35 361.46 226.61 409.55 193.45 463.48 174.97 519.63 161.6 437.15 150.86 378.37 203.59 312.91 239.24 331.83 208.22 364.09 198.95 394.73 166.27 475.81 92.26 515.65 92.9 524.36 85.7V81.16C457.49 91.05 403.38 118.6 362.22 171.27 356.02 155.71 361.41 145.44 365.67 134.37 368.52 126.99 376.41 118.05 369.21 110.57 361.68 102.75 348.98 103.57 340.83 107.77 283.43 137.33 224.32 123.26 165.43 116.41 151.99 114.85 138.51 113.29 125.23 110.78 106.71 107.29 93.83 95.68 89.4 77.82 84.32 57.3 85.51 36.68 100.15 19.26 101.92 17.15 104.74 14.46 107.05 14.48 128.65 14.71 145.63 7.18 163.27-6.67 180.27-20.03 203.94-16.31 225.04-9.62 231.13-7.69 237.31-5.81 243.58-4.72 250.25-3.55 258.41-4.7 260.05-11.33 262.19-19.96 252.96-18.78 247.99-19.6 241.29-20.7 235.07-21.8 231.44-28.04 253.8-30.82 269.03-30.15 281.42-3.81 285.47 4.78 290.48 13.4 301.64 12.41 330.24 9.88 347.85 27.38 365.24 45.92 392.28 74.74 416.85 70.78 432.29 34.05 439.4 17.12 446.09-.82 448.18-18.86 451.9-50.99 428.47-69.17 406.26-86.03 392.16-96.74 376.53-105.79 360.67-113.77 324.06-132.17 301.37-160.97 289.15-199.95 281.98-222.8 277.59-241.61 260.85-260.56 237.95-286.48 219.5-290.92 176.6-284.79 162.54-282.78 147.57-280.56 134.99-274.28 108.51-261.05 80.26-265.85 52.74-264.12 39.79-263.31 17.28-286.05 15.39-299.11 14.35-306.33 18.74-311.27 23.71-315.56 28.16-319.39 32.79-319.3 36.98-314.99 40.65-311.21 44.87-308.81 50.27-309.34 101.89-314.4 153.59-304.09 205.2-307.94 214.87-308.66 222.89-306.48 227.07-317.52 229.96-325.14 226.81-329.97 221.9-334.49 214.13-341.64 204.42-343.41 196.42-337.03 170.82-316.59 147.76-325.42 124.63-341.2 105.87-353.99 85.29-356.23 63.17-350.4 79.22-379.57 84.75-382.28 115.8-375.85 136.88-371.48 156.75-378.22 176.73-382.66 188-385.17 192.46-394.52 191.46-405.72 190.21-419.69 181.27-428.52 168.41-430.06 152.92-431.92 137.05-430.3 121.35-430.69 116.04-430.83 108.78-428.08 106.07-434.85 103.29-441.77 104.72-449.23 110.64-454.44 118-460.94 125.93-466.81 137.91-476.39 115.94-479 105.7-472.39 96.93-462.32 13.42-366.53-32.09-252.13-64.18-131.29-71.58-103.43-70.6-73.05-67.82-44.39-66.61-31.88-63.87-25.34-49.29-34.01-34.9-42.58-18.85-40.25-4.46-36.7 5.17-34.33 8.92-28.72 20-32.36 14-48.64 .38-45.7-10.16-54.84 21-57.86 12.74-55.37 6.42-84.96 3.45-98.84-1.32-114.75-4.84-128.54-13.14-161.02-4.16-182.32 38.87-192.65 59.55-197.62 66.18-206.85 63.03-226.7 62.03-233.04 60.9-243.37 70.37-243.59 78.35-243.77 84.38-236.61 83.67-227.22 82.86-216.65 95.94-209.25 89.09-196.43 86.76-192.07 95.43-188.97 101.94-190.46 133-197.59 133.02-197.5 151.7-174.02 131.8-171.07 112.21-168.1 92.59-165.27 73.46-162.51 55.33-171.5 35.68-168.98 17.03-166.59 6.97-162.65 10.06-140.75 15.74-100.53 24.88-61.1 35.49-22.08 42.69 4.4 39.01 26.41 16.51 42.64 6.91 49.56 8.18 60.02 3.54 68.35-9.15 91.12-29.74 99.27-54.6 99.03-62.47 98.96-70.33 98.59-78.19 98.31-89.61 97.9-96.4 103.79-96.11 114.79-95.03 155.5-99.8 196.27-93.73 236.94-89.33 266.35-81.77 311.3-55.92 332.52-73.05 331.56-83.69 321.6-88.93 310.95-109.01 270.1-107.44 249.31-113.1 225.51-116.1 212.87-118.67 201.46-126.96 191.08-142.31 171.89-144.51 150.63-133.74 128.09-125.52 130.98-129 141.21-116.91 144.15-126.4 127.462-120.802 113.036-111.628 97.915-97.004 73.815-93.61 50.163-95.569 22.422-97.078 1.058-100.781-20.157-105.461-41.038-110.874-65.189-118.316-88.877-127.392-111.898-135.686-133.126-139.778-155.94-139.63-178.71-139.5-200.23-139.01-221.75-138.19-243.25-137.39-263.96-134.61-284.65-135.99-305.4-136.66-315.46-139.9-325.2-144.34-334.19-153.75-353.23-168.21-369.12-180.2-386.49-184.19-392.26-187.95-398.21-191.09-404.48-191.45-405.2-191.8-405.92-192.15-406.65-199.25-421.59-205.08-439.39-204.58-456.07-204.15-470.49-200.66-484.93-195.72-498.45-195.26-499.69-194.8-500.93-194.29-502.16-194.29-502.16-200.11-496.48-203.07-492.9-218.97-473.67-219-432.92-205.01-404.88-200.95-396.71-196.44-388.75-191.29-381.21-186.37-374.02-180.52-367.7-175.14-360.88-165.13-348.19-157.54-332.94-154.99-316.7-148.86-277.62-160.79-238.43-160.01-199.26-159.94-195.77-161.19-186.46-159.43-183.26-174.78-206.02-184.49-232.64-188.49-259.75-192.57-287.35-187.78-312.33-183.62-339.5-182.66-345.82-189.37-349.89-194.91-347.25-215.05-337.67-214.91-302.81-215.51-283.95-216.5-253.03-207.77-222.39-189.14-197.53-186.73-194.32-160.09-161.89-158.56-163.13-181.57-144.54-177.05-109.32-162.87-73.5-158.72-63.01-154-52.2-147.11-43.45-119.05-7.87-120.6 29.45-141.39 66.48-155.83 92.2-168.04 117.07-155.83 146.36-164.16 151.07-166.38 141.01-174.04 143.25-167.52 166.65-160.96 190.16-153.86 215.63-171.12 210.91-174.11 191.81-188.18 185.32-194.4 191.44-187.42 196-185.1 199.29-168.48 222.82-153.52 246.8-154.9 277.2-156.05 302.69-126.78 331.87-123.82 356.23-128.57 362.63-137.18 356.4-142.96 361.01-142.35 369.47-134.19 369.45-129.05 371.71-117.62 376.72-108.5 379.13-104.05 395.62-100.02 410.56-82.95 425.16-64.59 425.17 26.21 425.2 117.01 424.56 207.8 424.67 226.32 424.69 243.8 397.15 265.29 413.42 259.05 397.62 236.08 401.24 241.48 387.93 244.88 379.56 261.44 384.82 271.56 384.94 332.81 385.68 387.41 371.49 437.47 332.39 457.62 316.65 479.4 303.19 504.24 295.32 510 293.49 517.7 289.5 521.88 284.87 523.52 283.06 524.37 281.3 524.36 278.15 524.36 278.15 524.38 273.52 524.37 273.5M420.01 75.48C396.09 88.31 387.72 99.45 388.92 120.3 421.09 69.15 473.7 73.13 522.25 65.6 503.99 51.44 455.67 56.35 420.01 75.48M524.36-58.87C521.67-82.74 509.62-104.84 482.19-127.07 423.42-174.7 430.52-195.87 453.55-252.47 462.38-274.17 473.03-295.13 482-316.79 497.181-353.449 503.606-393.759 494.612-432.431 492.401-441.937 487.169-452.904 479.659-459.765 467.06-471.406 448.697-472.068 433.416-465.983 430.921-464.989 428.477-463.868 426.066-462.687 423.746-461.55 420.729-459.076 418.24-458.59 466.69-468.05 484.55-452.35 488.05-405.36 491.5-358.91 473.87-318.86 455.23-278.66 448.06-263.19 441.19-247.52 433.14-232.51 412.19-193.47 429.37-162.52 453.72-133.31 465.16-119.58 477.69-106.74 490.15-93.91 506.35-77.21 509.7-58.01 501.83-36.69 494.68-17.35 486.63 1.66 479.56 21.03 477.59 26.44 470.12 32.88 477.42 38.13 483.98 42.85 492.68 41.54 499.64 37.09 503.02 34.93 506.41 31.29 507.72 27.58 515.92 4.26 522.41-16.72 524.36-36.27ZM318.67-819.26C308.84-819.26 300.97-804.65 296.55-796.81 289.65-784.56 280.66-774.87 269.67-766.76 255.04-755.96 249.5-743.03 259.21-726.16 266.43-713.63 261.85-704.32 251.34-696.77 241.52-689.72 231.39-683.08 221.46-676.17 213.44-670.6 206.61-662.54 209.16-653.18 215.42-630.26 200.87-634.23 189.73-638.23 182.31-640.9 178.35-647.2 179.85-633.4 180.56-626.88 173.48-627.33 169.07-625.57 150.63-618.22 142.06-614.65 121.54-599.43 107.53-589.03 90.93-580.31 87.58-557.3 131.77-596.15 150.1-601.34 178.99-614.75 184.36-617.24 208.71-624.32 220.09-631.35 232.9-639.26 243.44-651.37 243.51-669.34 233.27-663.47 230.42-651.21 218.67-648.87 218.27-660.98 224.81-668.26 233.86-674.42 243.28-680.83 252.86-687.14 261.49-694.53 271.91-703.46 278.1-713.76 269.72-728.24 260.4-744.33 272.29-753.27 283.02-761.98 310.62-784.38 344.62-789.89 377.71-797.78 381.53-798.69 386.53-797 390.28-806.74 362.06-801.22 336.16-796.16 310.58-791.17 314.81-805.75 329.39-819.26 318.67-819.26M163.67-557.3C99.84-538.92 76.93-519.33 66.15-460.45 87.07-483.77 92.18-508.87 107.21-518.6 126.23-530.9 145.47-543.34 163.67-557.3M273.2-605.44C292.43-614.55 293.87-619.64 278.47-632.83 269.06-640.89 272.78-646.53 280.09-651.21 294.11-660.2 305.11-672.49 317.26-683.49 333.83-698.48 337.8-715.62 323.14-734.4 318.89-739.85 319.49-748.48 311.53-751.89 306.23-741.66 311.78-734.02 317.38-726.93 326.38-715.52 323.7-705.98 314.05-696.89 293.04-677.08 269.42-660.94 251.9-636.21 245.37-627 226.03-618.46 210.9-610.66 188.43-597.9 172.94-599.25 160.35-575.94 201.2-589.56 230.67-616.93 267.59-628.07 268.62-625.66 269.86-621.76 270.9-619.34 259.36-613.62 249.06-608.05 237.56-602.24 207.68-587.13 205.34-585.06 225.97-556.79 208.22-551.06 191.21-544.91 173.82-540.15 156.09-535.3 146.39-523.59 141.08-506.86 139.62-502.25 135.41-496.75 141.24-493.87 145.67-491.68 151.75-495.23 153.92-499.78 165.9-524.97 190.89-529.22 213.34-537.13 251.64-550.62 251.76-550.29 224.96-579.52 238.23-593.46 256.72-597.64 273.2-605.44M27.63-431.07C28.74-431.72 30.71-432.26 30.8-433.03 35.08-467.55 46.82-497.81 73.04-522.69 84.03-533.12 81.53-541.9 73.55-547.55 61.9-532.2 45.72-522.61 29.47-513.16 12.35-503.21 4.21-489.7 11.72-468.53 20.18-478.58 9.52-489.31 30.47-500.59 22.74-457.71 20.36-448.53 27.63-431.07M260.94-819.26C247.79-819.26 246.39-815.68 220.77-788.87 213.52-781.28 209.31-772.96 199.52-769.48 191.91-750.44 176.32-728 162.63-726.16 127.99-721.53 114.4-697.82 98.09-674.83 91.72-665.84 87.11-654.99 88.85-642.03 100.67-649.5 98.62-666.26 111.13-672.17 119.52-636.43 115.15-625.7 82.76-614.52 52.67-604.13 24.88-591.74 7.19-562.65 9.5-571.04 11.81-579.42 14.12-587.8-11.65-544.79-24.85-517.77-52.19-487.95-40.35-521.41-27.31-540.96-1.12-584.66-26.29-565.99-32-547.67-49.09-533.46-43.84-555.77-41.36-562.01-30.25-578.52-54.76-566.86-69.95-570.49-88.93-537.05-96.08-524.45-95.91-513.56-91.83-503.01-88.93-495.52-82.02-492.22-74.22-498.43-78.35-482.73-82.91-476.3-86.29-460.45-87.42-455.15-91.67-437.56-77.28-439.84-69.46-441.08-79.38-427.62-72.94-421.9-63.82-421.41-63.14-432.52-51.24-437.3-65.86-408.65-72.97-393.74-63.73-369.86-55.22-377.61-52.5-381.82-33.1-399.18-58.29-317.13-80.88-324.36-88.99-278.88-94.48-248.11-96.95-216.79-100.63-185.71-102.04-173.74-108.334-159.392-106.144-146.572-114.742-157.594-112.898-155.691-118.6-166.579-118.728-166.823-122.223-155.911-116.112-140.943-98.495-97.794-77.925-17.437-78.77-5.89-76.01-43.6-91.98-80.29-86.03-118.66-81.35-148.85-77.88-179.75-66.67-208.9-62.04-220.94-60.93-233.21-65.79-246.21-72.87-265.18-64.42-281.7-52.65-295.55-12.25-343.1-16.04-390.04-8.02-446.55-7.24-452.08-2.8-468.62-12.25-467.43-17.01-450.84-7.57-449.21-22.17-426.96-18.1-442.35-16.76-446.49-26.54-460.45-30.28-465.77-27.26-473.65-25.27-479.44-22.73-486.82-20.99-494.81-16.83-501.17-12.78-507.35-18.57-522.72-.16-518.71 3.38-517.94 13.23-538.73 17.51-550.55 24.87-570.84 37.62-583.68 58.16-590.57 107.86-607.21 144.74-638.44 164.65-688.06 166.19-691.91 169.1-695.22 171.66-699.22 183.26-692.98 172.68-673.8 192.65-670.17 173.44-719.1 202.34-750.74 230.59-780.63 259.78-811.53 269.16-819.26 260.94-819.26M171.83-819.26C186.9-802.92 175.76-787.97 149.71-773.47 119.78-756.8 98.3-733.47 82.13-703.99 86.05-729.39 95.03-744.92 104.43-758.33 115.07-773.49 123.5-776.02 132.49-795.63 137.84-807.31 144.56-819.26 128.73-819.26 112.22-819.26 113.5-815.56 110.73-804.62 102.39-771.6 58.6-739.99 18.54-724.77-4.14-716.17-26.69-707.18-48.83-697.26-54.11-694.9-59.16-692.53-63.69-688.89-73.13-681.3-79.66-670.93-86.86-661.36-99.04-645.15-108.88-626.01-113.07-606.07-114.92-597.27-100.21-589.54-112.48-578.77-115.8-575.85-106.06-572.68-102.06-575.27-64.14-599.81-28.98-606.24 10.22-627.77 27.07-637.02 40.6-651.01 46.73-671.43 50.72-684.72 44.39-703.01 30.13-705.39 43.19-712.77 60.59-722.96 74.53-730.84 72.15-708.09 66.33-689.26 60.35-670.53 58.74-665.46 56.32-661.15 62.68-657.94 70.23-654.12 72.85-659.48 75.22-664.84 84.95-686.88 91.24-710.78 109.53-728.19 114.15-732.59 117.97-738.25 123.29-741.46 149.51-757.26 175.94-772.68 198.98-793.12 208.6-803.6 211.57-809.23 212.69-819.26ZM89.15-819.26C81.4-819.26 76.88-819.2 73.02-813.94 41.4-770.88-2.12-769.01-46.91-755.58-82.2-744.99-113.49-730.35-131.89-696.45-137.21-686.65-141.42-689.48-149.71-694.1-190.75-716.96-234.12-734.77-277.78-752.88-283.18-755.11-287.93-756.42-292.4-754.7V-736.41C-291.09-735.17-289.78-733.76-288.11-732.79-271.54-723.17-249.4-710.68-231.31-704.62-212.97-698.47-197.12-696.35-180.8-685.77-178.35-684.18-178.38-684.13-175.99-682.44-162.53-672.94-150.3-661.5-143.36-646.29-134.49-626.86-131.59-604.62-131.89-583.6-131.97-577.98-131.2-564.99-128.39-562.01-121.74-603.43-125.27-628.57-138.2-666.88-129.33-662.34-133.94-658.18-124.33-656.06-120.37-676.67-114.78-693.73-91.78-708.11-92.88-707.43-94.13-703.37-94.81-702.04-96.08-699.55-97.37-697.07-98.66-694.59-102.26-687.62-105.35-680.4-108.56-673.25-112.71-664.02-114.81-646.23-115.22-642.33-114.14-650.29-108.46-657.89-104.51-664.64-99.93-672.45-94.69-679.89-88.84-686.8-84.23-692.24-78.97-697.23-72.88-701-66.44-705-59.19-707.52-52.77-711.58-20.15-732.26 16.1-746.32 49.18-766.22 61.28-773.5 73.66-780.89 83.24-791.44 87.18-795.78 104.58-819.26 89.15-819.26M-292.4-689.85C-287.98-683.9-280.22-680.25-268.21-676.51-246.24-669.66-223.34-666.66-201.73-659.29-176.46-650.68-157.07-630.03-145.1-600.02-144.69-615.36-150.5-630.69-160.14-642.53-170.85-655.7-186.7-662.64-202.14-668.79-206.4-670.49-210.73-672.05-215.11-673.44-229.04-677.85-242.67-683.19-255.91-689.38-268.73-695.37-280.14-704.95-292.4-712.1ZM-156.21-571.43C-167.22-590.43-167.18-615.53-189.4-628.57-189.07-580.84-156.9-548.08-135.22-506.83-130.83-525.03-129.69-525.69-156.21-571.43M-115.27-641.93C-115.3-641.69-115.31-641.56-115.31-641.56-115.3-641.68-115.28-641.81-115.27-641.93M-167.02-425.94C-162.97-420.93-160.14-413.49-152.5-420-146.78-424.87-142.76-432.83-149.35-438.68-162.47-450.31-164.41-465.31-165.69-480.96-184.61-456.42-184.67-447.79-167.02-425.94M-221.97-567.46C-203.55-541.47-165.35-495-165.35-495-142.37-469.13-130.4-442.35-112.06-416.17-121.42-414.78-123.97-433.29-132.75-422.16-140.19-412.72-144.67-400.76-136.08-390.7-108.19-357.98-110.2-321.14-119.39-283.18-126.35-254.41-124.32-226.23-116.91-197.93-112.04-224.16-110.99-244.75-109.53-255.52-105.26-286.92-99.49-300.17-92.42-324.71-84.52-352.09-85.61-372.91-94.04-400.54-122.29-493.21-100.92-504.37-121.07-537.27-123.15-515.63-119.6-494.26-135.28-472.52-150.07-525.88-197.64-561.78-200.43-621.03-203.51-621.61-213.36-604.73-213.27-623.62-213.25-627.75-218.96-630.64-223.28-629.83-229.29-628.7-232.7-624.07-233.92-617.87-237.59-599.22-232.75-582.68-221.97-567.46M-175.43 73.81C-183.85 42.14-192.26 10.46-201.54-24.46-207.99-1.62-196.88 43.86-175.43 73.81M-211.02-70.26C-190.36-32.42-163.72 2.65-155.73 48.07-139.21 34.11-147.18 20.01-153.77 7.45-165.34-14.6-177-36.88-191.34-57.13-213.36-88.24-212.25-119.1-196.37-151.57-193.04-158.37-188.34-165.09-191.33-175.74-225.28-151.66-232.21-109.07-211.02-70.26M387.67 425.17C387.67 425.17 393.85 422.43 402.14 416.69 429.52 397.71 460.86 373.59 497.12 326.27 468.52 332.23 433.62 370.51 377.63 394.02 347.8 406.54 297.97 425.17 297.97 425.17ZM461.24 424.98 524.36 425.17V384.95 367.49C524.17 365.97 523.92 364.44 523.59 362.91 523.24 361.33 520.13 359.93 520.31 358.74 520.64 356.48 522.72 354.21 524.36 351.97V344.09C523.86 343.71 525.88 333.76 504.34 351.46 485.04 367.32 426.14 425.17 426.14 425.17ZM529.34 450.07H-297.37C-307.67 450.07-316.02 441.72-316.02 431.42V-827.29C-316.02-837.58-307.67-845.93-297.37-845.93H529.34C539.63-845.93 547.98-837.58 547.98-827.29V431.42C547.98 441.72 539.63 450.07 529.34 450.07" fill="#231f20"/>
</g>
</g>
</svg>
