<svg xmlns="http://www.w3.org/2000/svg" xmlns:xlink="http://www.w3.org/1999/xlink" xmlns:inkscape="http://www.inkscape.org/namespaces/inkscape" version="1.1" width="2048" height="1920" viewBox="0 0 2048 1920">
<defs>
<clipPath id="clip_1">
<path transform="matrix(1,0,0,-1,0,1920)" d="M0 1920H2048V0H0Z"/>
</clipPath>
</defs>
<g inkscape:groupmode="layer" inkscape:label="Layer 1">
<g clip-path="url(#clip_1)">
<path transform="matrix(1,0,0,-1,1733.6959,1420.444)" d="M0 0C-11.013-5.374 13.214-25.429 15.827-30.097-2.533-26.648-8.56-11.842-11.093 0L-38.493 2.383C-30.506-12.216-23.453-27.382-13.213-40.789-31.453-32.839-38.653-14.958-48.159 .748-51.08 5.568-51.813 13.117-59.04 12.563-67.467 11.911-77.173 21.814-83 14.183-87.959 7.701-78.52-.484-75.84-7.977-72.746-16.648-66.853-24.238-63.36-33.31-74.853-22.534-84.013-9.723-90.893 4.875-93.746 10.928-122.72 22.66-128.119 19.21-133.28 15.928-129.746 11.981-128.386 8.449-120.8-11.205-110.399-29.196-96.693-45.747-104.746-49.473-107.466-43.67-110.64-40.277-122.626-27.465-134.453-12.978-138.066 3.809-141.746 20.886-151.679 14.46-160.479 16.676-176.693 20.762-176.08 15.706-172.613 1.261-167.292-20.872-154.746-38.282-139.626-59.971-156.706-54.238-163.893-43.96-168.906-33.545-175.853-19.085-187.813-6.426-186.866 11.51-186.839 12.091-186.693 13.061-187.093 13.227-198.386 18.158-214.973 14.044-223.759 15.124-230.652 17.188-230.786 10.568-231.466 4.834-234.279-18.947-226.306-38.836-211.639-57.008-220.546-55.553-225.333-49.445-228.199-42.34-234.786-25.997-247.906-11.482-242.333 8.587-241.932 10.014-243.053 13.352-243.52 13.366-256.719 13.601-270.306 15.457-282.973 12.743-289.693 11.289-283.959 1.524-283.825-4.57-283.319-26.98-279.239-48.31-264.066-70.968-277.039-65.802-280.599-58.337-283.279-51.08-288.973-35.748-295.639-20.374-298.186-4.377-300.226 8.393-305.319 9.238-315.159 8.088-349.959 4.058-382.545-7.645-414.505-21.759-418.919-23.712-423.145-28.24-429.612-22.729-419.026-11.177-405.012-6.523-391.559-2.133-364.466 6.703-337.039 14.529-309.519 21.759-298.133 24.751-291.186 29.404-286.666 41.842-279.466 61.634-267.333 78.587-247.492 87.838-254.399 74.21-267.439 65.096-272.666 50.332-275.413 42.534-284.652 35.748-278.053 26.551-274.333 21.344-248.586 30.139-243.773 37.493-233.559 53.13-222.839 68.323-207.866 79.556-204.906 81.786-201.533 83.434-197.613 84.334-208.106 68.836-220.773 55.484-229.973 39.39-232.066 35.748-236.266 31.08-232.666 28.171-230.466 26.385-226.466 26.856-223.212 27.05-222.639 27.078-222.066 27.327-221.52 27.243-198.413 23.587-182.652 30.485-175.08 56.038-171.853 66.911-162.866 76.897-149.466 80.872-157.039 68.933-164.693 57.049-172.173 45.041-174.973 40.554-178.253 35.263-175.386 30.249-172.226 24.682-166.133 27.936-161.279 27.95-157.893 27.964-154.159 29.64-151.173 28.643-135.693 23.462-130.973 32.783-128 45.761-124.839 59.612-119.92 72.562-103.959 83.088-110.306 68.171-115.506 56.911-119.853 45.304-122.093 39.307-127.546 28.933-118.453 27.811-109.679 26.731-96.346 20.526-90.2 35.416-85.666 46.398-83.399 58.878-70.893 67.811-71.319 55.872-77.666 48.476-80.573 39.999-84.546 28.407-83.066 23.366-66.92 19.834-34.293 12.507-50.293 59.432-40.387 62.687-35.159 54.46-46.093 20.069-37.64 17.742-31.213 16.551-14.173 7.604-16.626 15.637-18.693 22.382-9.44 53.642-.48 56.273-2.986 48.379-14.76 26.676-7.92 14.044-4.12 7.023 55.773 10.9 56.374 4.779 57.24-3.933 11 5.374 0 0M-551.665-59.21C-497.491-19.418-447.092 17.604-395.572 55.443-400.865 13.158-496.545-42.7-551.665-59.21M-449.466-185.981C-447.785-180.732-460.158-155.22-444.012-142.713-449.385-157.436-447.065-184.804-438.905-183.377-431.759-182.117-419.719-179.222-417.799-174.333-414.759-166.618-424.585-148.737-419.772-139.583-417.958-148.405-417.625-162.034-410.785-170.76-409.692-172.145-407.772-172.422-406.252-171.577-368.572-150.331-339.666-154.721-340.466-154.901-378.199-163.419-407.599-179.763-408.905-180.621-422.945-189.679-397.919-216.327-394.666-217.047-412.572-219.623-417.799-182.283-422.386-184.998-441.825-196.535-442.958-194.679-426.345-213.945-423.439-217.311-421.199-220.039-415.545-225.343-425.945-222.047-434.572-216.368-437.746-207.698-442.652-194.319-449.238-192.38-459.639-198.903-468.158-204.236-460.412-214.998-457.385-221.271-453.785-228.751-448.279-234.429-440.106-240.704-454.692-236.008-463.585-225.08-470.732-212.033-477.532-199.651-494.452-198.225-502.625-209.679-506.812-215.565-503.905-218.405-501.519-221.646-493.652-232.352-485.892-241.825-472.079-249.152-486.878-248.238-497.519-238.529-504.332-227.476-514.292-213.322-522.105-213.862-538.585-217.296-541.665-217.933-544.812-218.364-548.238-220.87-544.079-229.333-538.439-234.928-532.145-241.341-525.745-247.864-517.038-252.477-508.745-258.556-526.692-257.06-538.745-244.568-551.158-232.92-554.065-230.191-555.758-226.008-558.799-223.515-566.998-216.826-575.118-223.183-580.318-227.449-585.692-231.853-582.598-238.473-579.758-241.936-570.011-253.862-558.118-263.335-542.252-272.448-562.105-267.102-579.038-256.632-590.478-239.194-596.625-229.831-602.772-227.823-612.918-228.682-629.305-230.081-645.785-228.972-661.651-220.732-647.425-220.732-633.185-221.023-618.972-220.634-608.291-220.344-602.998-217.311-605.571-203.155-608.305-188.086-613.305-171.453-602.705-156.438-599.918-171.217-601.852-186.286-598.505-200.926-596.225-210.953-593.371-214.235-581.678-213.862-569.825-213.474-559.238-212.629-561.918-205.967-569.918-186.064-566.425-171.175-563.265-162.283-565.078-175.206-557.425-199.167-554.238-203.086-551.372-206.618-547.825-207.795-539.772-207.366-504.785-205.496-530.558-172.075-517.892-155.953-517.812-160.524-516.719-171.078-516.612-174.929-516.478-179.624-515.612-185.731-514.665-189.679-513.478-194.665-513.372-199.555-505.065-198.64-497.452-197.504-485.585-199.139-484.692-185.51-483.932-173.765-484.678-161.909-474.999-149.846-475.719-162.352-476.318-172.408-476.878-182.463-477.372-191.258-473.732-191.812-465.999-190.192-461.372-189.222-450.106-187.948-449.466-185.981M-723.785-189.527C-696.425-160.829-660.705-148.295-625.972-133.821-653.398-162.02-680.705-190.399-723.785-189.527M-840.504 284.747C-859.024 309.789-852.957 334.858-852.157 360.44-850.438 415.411-816.291 452.627-783.091 489.87-772.877 501.311-761.451 511.56-750.865 522.64-745.784 527.958-737.585 528-732.424 522.779-684.811 474.704-631.091 442.364-561.172 454.192-558.999 454.566-553.145 455.84-551.038 455.272-549.571 454.87-548.505 453.458-548.598 449.15-548.558 445.73-549.505 441.838-550.931 437.946-553.999 429.261-554.385 431.228-556.785 420.037-560.398 403.196-540.799 377.115-524.545 375.703-516.345 374.996-514.345 380.356-509.478 389.844-508.572 391.603-507.785 393.472-507.145 395.356-503.799 405.245-503.079 408.542-503.052 414.386-503.038 421.394-501.945 431.256-512.185 436.117-517.491 437.696-518.305 440.688-518.305 447.267-517.452 454.261-519.225 465.909-506.598 467.946-496.132 469.635-486.864 469.594-480.304 478.624-479.024 480.397-476.251 482.876-474.931 482.447-463.158 478.693-451.744 471.81-439.851 470.84-423.678 469.511-418.753 459.953-416.086 445.535-403.5 377.502-390.959 315.689-378.292 247.671-375.853 234.513-383.225 224.167-392.186 215.288-425.425 182.297-462.252 153.78-498.398 124.514-542.612 88.711-587.998 54.501-632.824 19.515-642.398 12.036-652.558 5.79-663.518 .693-672.052-3.268-674.998 .568-676.052 8.587-677.585 20.18-673.478 30.72-670.318 41.384-667.972 49.279-664.852 56.911-662.358 64.75-649.518 105.221-653.185 109.819-685.611 137.145-740.011 182.99-796.971 225.87-840.504 284.747M-834.504-111.162C-839.597-124.403-839.971-136.84-834.638-150.455-825.891-172.823-836.037-194.305-840.211-215.94-841.118-220.565-845.851-223.252-848.571-217.352-878.584-152.187-933.264-108.004-976.957-54.556-998.624-28.06-1002.891 1.953-998.171 34.848-996.637 45.526-992.464 42.714-985.544 39.972-952.21 26.717-919.157 11.995-882.651 10.693-877.557 10.499-872.451 10.457-867.358 10.541-861.611 10.651-858.584 12.535-861.904 19.197-872.064 39.598-883.544 70.138-894.198 95.248-881.531 74.349-869.237 53.102-852.504 35.207-851.731 34.349-849.864 31.524-849.491 29.21-844.491-1.939-825.011-24.889-822.011-56.897-820.144-76.509-827.811-93.752-834.504-111.162M-1005.744 85.442C-1003.584 93.378-1002.637 101.661-1000.437 109.583-994.691 130.22-995.49 147.99-1012.544 164.292-1023.53 174.791-1030.744 189.693-1039.051 203.045-1043.331 209.942-1041.65 217.089-1038.597 224.762-1020.917 268.862-998.797 308.432-957.677 334.775-915.49 361.825-880.117 397.711-846.531 441.034-846.531 431.644-854.278 426.436-856.064 421.104-866.185 390.661-865.918 358.556-870.651 327.31-874.798 300.121-890.104 277.352-895.798 251.119-907.064 199.07-924.277 152.201-943.224 103.434-945.984 96.301-946.557 89.223-944.518 77.741-937.104 89.805-936.037 96.952-933.544 105.234-932.064 110.11-931.677 118.725-926.438 117.616-922.237 116.716-919.998 117.977-915.771 115.636-911.237 93.739-900.451 66.19-893.438 49.82-890.784 43.628-883.838 37.825-888.198 30.748-893.237 25.678-905.904 29.931-911.944 31.385-944.544 39.155-971.744 46.578-999.384 68.033-1006.251 73.351-1007.837 77.7-1005.744 85.442M-1068.677 229.222C-1105.57 274.152-1137.37 308.889-1178.596 349.221-1198.41 368.583-1214.783 390.744-1234.997 416.27-1102.41 375.758-989.037 370.785-870.677 452.156-882.851 431.589-894.917 411.852-910.757 395.093-931.091 373.611-954.197 355.468-978.437 339.055-1015.65 313.861-1039.677 278.917-1052.744 235.191-1055.237 226.854-1057.437 215.552-1068.677 229.222M-1263.596 568.36C-1284.197 602.334-1279.33 640.893-1281.61 679.176-1284.717 731.627-1278.797 780.227-1263.116 829.59-1260.623 837.484-1269.396 846.625-1259.023 849.174-1248.93 851.653-1251.596 839.659-1246.77 833.828-1221.197 802.9-1194.783 793.052-1158.597 805.061-1144.944 809.576-1139.797 809.091-1140.156 792.152-1141.09 788.26-1141.277 782.54-1143.677 778.108-1152.45 761.917-1152.543 747.499-1143.156 730.477-1135.384 716.377-1150.063 703.857-1158.397 699.203-1195.93 678.22-1205.33 641.793-1220.65 604.453-1226.25 590.825-1233.557 578.304-1242.17 566.67-1250.956 554.87-1256.077 555.977-1263.596 568.36M-1253.863 421.104C-1268.036 431.408-1273.823 445.563-1280.09 459.33-1281.277 461.921-1282.623 464.856-1280.209 467.53-1278.476 469.455-1276.53 469.566-1274.183 468.222-1266.583 463.887-1252.65 433.32-1253.863 421.104M-1186.557 860.656C-1191.09 837.498-1196.037 833.273-1211.343 841.667-1214.783 843.551-1217.143 847.179-1217.197 851.21-1217.223 853.218-1216.557 854.52-1213.69 853.412-1203.343 849.423-1195.757 854.368-1186.557 860.656M-908.971 864.132C-898.184 852.761-907.264 844.853-914.21 837.484-918.251 833.191-922.317 835.726-924.93 840.919-928.424 847.83-931.224 855.157-930.771 862.803-930.144 873.287-930.251 882.858-939.464 889.755-941.971 891.639-942.544 894.907-941.504 897.76-940.664 900.074-938.331 900.877-935.104 900.087-929.21 897.013-922.624 893.619-916.078 890.143-907.091 885.378-911.051 879.062-913.757 872.415-915.397 868.37-911.317 866.597-908.971 864.132M-1283.943 819.119C-1288.903 847.207-1288.437 875.572-1287.277 903.868-1286.997 910.683-1280.93 916.569-1273.93 914.201-1256.956 908.453-1250.077 919.907-1243.316 931.791-1223.956 965.765-1192.343 973.896-1158.21 972.524-1130.677 971.416-1114.384 949.491-1099.757 928.356-1093.703 919.602-1091.304 915.226-1080.93 923.314-1069.197 932.469-1053.704 932.345-1042.49 923.411-1031.317 914.478-1027.771 920.253-1021.09 927.927-996.184 956.61-965.744 970.1-928.384 960.17-902.317 953.245-884.838 934.948-874.931 909.879-870.891 899.658-865.677 894.963-856.264 896.638-838.411 899.824-829.451 891.625-819.851 876.099-798.677 841.889-779.798 806.376-759.904 771.432-751.518 756.709-748.331 740.782-749.891 723.801-750.424 717.97-750.105 711.585-760.665 710.242-750.211 745.629-772.211 769.618-787.198 796.099-798.091 815.365-808.584 834.978-820.851 853.287-838.371 879.423-867.677 878.412-879.984 849.257-897.971 806.626-942.917 799.881-978.397 804.271-991.824 805.933-1000.744 816.626-1011.144 831.279-995.29 823.869-984.584 815.407-971.264 812.11-928.877 801.598-879.371 843.37-883.931 886.68-888.798 932.982-942.197 963.148-984.01 942.608-1007.277 931.167-1024.771 914.575-1023.944 884.728-1023.851 881.334-1023.771 876.944-1028.37 876.639-1031.25 876.445-1032.904 879.34-1034.597 881.902-1053.277 910.225-1072.131 911.306-1093.65 885.392-1097.263 881.03-1100.33 873.439-1106.53 876.362-1112.717 879.284-1106.783 885.794-1106.37 890.559-1103.771 920.641-1122.61 947.33-1154.93 958.466-1187.623 969.74-1218.156 958.106-1235.517 927.746-1250.077 902.289-1245.104 864.423-1226.61 846.196-1222.757 842.401-1219.156 838.37-1215.876 834.049-1210.036 826.307-1201.104 823.398-1191.423 822.152-1184.197 821.224-1176.717 822.111-1168.41 817.193-1179.236 806.169-1190.93 809.672-1201.543 812.817-1213.717 816.418-1224.73 823.924-1231.85 834.645-1241.41 849.049-1255.263 860.171-1261.637 876.93-1262.743 879.825-1264.503 882.304-1267.97 881.057-1271.53 879.783-1273.277 876.86-1273.357 872.941-1273.596 859.949-1273.663 846.944-1274.13 833.966-1274.316 828.731-1275.13 823.481-1276.116 818.329-1276.37 816.999-1278.223 815.296-1279.557 815.047-1282.17 814.548-1283.49 816.556-1283.943 819.119M-1176.53 998.591C-1151.277 1022.814-1120.224 1032.067-1087.21 1038.188-1037.051 1047.51-993.157 1029.601-950.037 1007.358-908.024 985.682-870.504 957.442-838.278 921.874-835.758 919.09-830.891 916.721-833.597 911.832-835.531 908.342-839.731 910.24-842.971 909.838-857.185 908.12-866.171 911.999-872.811 927.649-885.811 958.272-912.384 973.092-956.904 974.906-978.064 974.242-1003.544 963.314-1023.57 940.53-1029.957 933.273-1034.49 931.126-1043.37 936.555-1053.944 943.01-1066.331 944.575-1077.677 938.134-1087.677 932.441-1091.717 937.289-1098.25 944.949-1118.677 968.95-1140.876 991.042-1175.423 988.881-1177.903 988.716-1180.063 989.089-1180.77 991.749-1181.73 995.419-1178.53 996.679-1176.53 998.591M-802.958 545.645C-803.811 546.074-803.558 550.064-802.984 552.155-793.424 587.445-789.691 623.761-785.465 659.952-782.931 681.683-769.824 683.746-755.878 693.081-747.211 698.885-743.038 690.754-739.544 683.58-736.704 677.749-737.958 671.862-738.171 661.253-749.505 625.548-743.798 597.792-749.505 562.612-750.331 557.571-752.984 552.709-755.371 548.097-761.064 537.114-760.291 526.892-773.305 526.656-787.144 526.421-791.624 539.911-802.958 545.645M-814.624 528.291C-813.371 532.086-809.944 534.413-806.731 531.255-799.597 524.219-791.504 520.479-782.091 517.211-774.784 514.69-782.025 508.194-785.224 505.41-799.877 492.71-814.998 480.604-829.944 468.278-831.037 469.011-832.118 469.746-833.211 470.466-827.037 489.76-820.971 509.067-814.624 528.291M-1167.397 899.464C-1171.423 901.459-1176.863 901.667-1177.09 907.566-1177.277 912.082-1173.517 914.436-1169.93 916.458-1167.503 917.83-1165.024 919.298-1162.983 921.209-1158.77 925.17-1161.37 938.855-1154.05 934.727-1143.81 928.951-1130.197 930.198-1122.797 919.353-1118.063 912.414-1113.184 906.223-1120.771 896.14-1125.637 889.672-1123.89 878.204-1126.677 869.52-1128.783 862.982-1129.876 851.75-1139.517 854.368-1148.41 856.778-1148.597 867.789-1150.543 872.844-1144.73 892.788-1158.037 894.81-1167.397 899.464M-1008.717 665.339C-1024.557 677.389-1037.37 692.929-1047.557 709.591-1053.89 720.006-1066.944 732.749-1051.277 749.009-1045.157 755.366-1050.504 768.233-1056.823 776.543-1060.624 781.557-1065.344 785.13-1071.29 780.005-1076.597 775.448-1076.424 770.047-1072.317 764.424-1066.917 757.028-1054.384 751.142-1063.277 739.632-1070.637 730.117-1080.304 738.58-1088.437 740.989-1098.957 744.064-1108.771 740.283-1118.37 738.441-1117.037 745.67-1115.41 755.297-1110.237 759.452-1103.543 764.798-1101.063 773.15-1104.81 781.945-1106.37 785.573-1108.45 790.435-1113.504 786.418-1122.57 779.271-1121.877 766.516-1128.184 757.416-1130.73 753.732-1125.45 743.524-1120.864 738.053-1133.61 736.571-1142.143 743.884-1139.583 757.942-1138.77 762.429-1136.184 766.612-1134.21 770.837-1127.744 784.618-1121.783 798.537-1121.304 814.271-1120.357 845.767-1101.65 862.941-1082.117 883.439-1065.237 901.168-1046.823 892.982-1040.224 869.326-1021.344 801.556-988.73 776.889-922.998 794.922-900.171 801.182-884.384 818.648-872.304 838.855-855.864 866.279-846.838 866.141-829.824 839.202-812.838 812.249-792.824 791.612-801.331 762.637-803.584 720.906-792.824 686.323-813.118 655.949-840.371 615.132-874.251 580.091-908.544 545.853-924.531 529.884-943.357 535.368-952.531 556.808-958.944 571.864-963.518 587.792-968.477 603.47-976.277 628.096-988.237 649.744-1008.717 665.339M-1149.263 655.173C-1149.357 666.253-1142.17 669.758-1136.224 673.317-1117.783 684.37-1064.771 675.671-1049.81 659.536-1046.837 656.323-1041.464 652.736-1045.73 647.874-1050.051 642.943-1053.837 648.442-1057.077 651.171-1084.477 674.286-1110.851 676.572-1141.13 658.387-1143.33 657.071-1145.917 656.475-1149.263 655.173M-1175.783 646.295C-1174.104 657.112-1165.45 662.375-1158.637 668.663-1155.77 668.94-1153.917 668.303-1153.397 665.367-1152.477 660.256-1165.917 641.212-1170.664 640.976-1174.29 640.797-1176.263 643.248-1175.783 646.295M-1007.117 542.335C-997.784 508.79-1014.477 482.433-1047.61 481.463-1079.597 480.535-1111.864 476.823-1142.997 492.682-1156.156 499.399-1174.13 497.543-1180.943 514.593-1189.543 536.089-1199.744 557.362-1191.117 582.487-1187.65 592.584-1182.303 595.437-1181.063 606.558-1180.61 610.52-1176.397 608.497-1173.983 607.473-1162.503 602.584-1146.757 598.789-1138.397 590.299-1108.45 559.883-1075.25 562.75-1045.877 598.373-1069.01 602.14-1090.21 606.49-1111.877 605.063-1134.397 603.567-1153.597 615.16-1174.236 620.991-1175.997 621.489-1177.543 623.802-1178.53 625.658-1178.81 626.185-1176.464 629.287-1175.823 629.121-1159.024 624.689-1147.876 639.952-1132.597 642.14-1098.664 647.001-1067.17 642.652-1038.131 623.11-1035.304 621.212-1032.437 619.287-1029.357 617.93-1026.01 616.461-1022.051 612.404-1018.891 617.238-1016.624 620.7-1020.411 623.456-1022.024 626.476-1026.384 634.661-1035.543 640.755-1031.864 652.666-1026.584 637.763-1000.357 633.303-1013.237 609.19-1015.624 604.744-1009.717 604.329-1007.823 601.891-997.277 588.373-993.21 573.983-1003.21 558.193-1006.317 553.277-1009.104 549.468-1007.117 542.335M-529.452 434.982C-520.838 434.898-512.265 430.952-512.398 419.331-512.478 412.918-513.812 400.189-519.211 392.71-521.812 389.124-526.292 387.849-530.318 389.483-541.932 394.193-548.038 406.201-548.118 416.491-548.198 424.829-542.598 435.092-529.452 434.982M-791.851 978.217C-780.638 955.682-770.518 936.32-761.251 916.528-746.638 885.295-732.598 853.758-718.305 822.374-706.531 796.501-701.491 769.493-709.465 741.654-714.918 722.638-713.145 712.028-693.931 699.979-650.358 672.68-609.852 640.091-567.985 609.841-558.678 603.124-552.532 600.894-542.732 595.008-533.385 589.398-529.065 595.091-530.545 603.788-542.211 672.486-505.999 719.092-464.345 765.712-442.772 789.839-418.079 811.21-408.332 844.423-406.292 851.404-401.292 850.226-396.012 846.971-389.079 842.678-386.172 838.26-390.799 829.866-409.932 795.13-426.119 764.687-449.158 732.222-468.359 705.173-487.212 681.405-505.865 653.954-521.105 631.503-524.958 597.376-521.785 565.783-520.785 555.866-518.745 546.074-517.065 536.241-511.799 505.368-511.865 508.056-538.905 506.892-594.225 504.496-643.451 522.072-685.398 563.997-698.105 576.684-709.531 590.838-722.852 602.722-734.798 613.373-735.398 624.647-731.305 639.038-726.278 656.711-717.824 674.632-729.771 693.33-731.318 695.754-729.424 701.544-727.745 705.048-705.918 750.421-712.824 793.731-734.451 837.013-754.011 876.154-771.971 916.154-790.291 955.946-792.784 961.361-797.731 966.846-791.851 978.217M-477.559 1232.895C-441.425 1221.247-404.639 1209.683-372.932 1188.312-353.853 1175.458-335.679 1159.932-316.252 1147.661-282.973 1126.636-259.492 1095.68-233.306 1067.496-223.52 1056.955-215.906 1042.911-220.026 1026.221-221.639 1019.657-221.559 1008.936-230.399 1011.458-237.292 1013.424-248.452 1018.632-247.746 1027.939-246.812 1040.266-250.706 1046.748-259.679 1053.908-266.919 1059.67-266.906 1073.438-272.092 1079.185-286.053 1094.656-297.666 1116.151-323.119 1114.766-326.999 1114.559-330.946 1115.639-336.332 1116.304-334.999 1123.132-322.705 1131.941-340.825 1132.231-346.532 1132.315-355.759 1137.536-349.959 1148.478-346.439 1155.126-351.279 1155.652-355.412 1154.919-363.625 1153.464-370.812 1148.88-379.452 1157.425-382.479 1160.43-393.332 1152.564-399.399 1146.082-399.612 1148.118-400.158 1149.503-399.746 1149.988-393.399 1157.37-381.412 1164.987-381.825 1171.83-382.372 1181.179-399.439 1179.073-404.692 1186.234-421.679 1209.364-450.092 1201.442-469.705 1214.156-489.612 1227.064-504.292 1213.463-521.932 1208.699-513.665 1227.023-493.878 1238.158-477.559 1232.895M-220.146 843.551C-211.52 844.783-209.812 855.06-202.759 858.357-199.039 854.894-205.159 850.78-202.759 847.443-192.039 832.581-195.506 820.726-212.453 814.147-220.386 811.057-228.466 808.108-235.879 803.953-279.919 779.286-287.973 731.142-272.372 682.625-264.333 657.597-270.212 639.536-295.079 632.154-311.972 627.154-321.159 619.716-316.639 600.187-315.812 596.614-317.439 592.002-318.999 588.387-320.799 584.218-323.226 578.595-328.226 579.385-331.612 579.924-332.545 585.492-334.332 589.135-357.279 635.658-354.265 685.214-350.026 734.715-347.919 759.341-344.239 783.801-339.065 808.066-336.026 822.387-331.212 829.091-316.265 823.066-310.479 820.739-303.239 822.941-297.346 818.717-306.026 825.102-312.439 833.121-324.239 836.445-341.426 841.279-327.799 855.019-325.773 871.5-319.079 847.138-309.319 853.993-298.879 860.614-285.359 869.187-276.359 883.065-263.866 894.256-260.479 885.129-265.292 880.032-267.226 874.118-269.092 868.398-276.292 864.423-272.053 854.77-257.732 863.564-247.613 880.434-228.346 876.999-229.652 871.999-231.479 864.963-233.292 857.955-225.812 854.368-224.506 866.21-218.106 862.886-214.292 856.126-224.053 851.445-220.146 843.551M-199.479 1023.327C-195.8 1019.186-193.666 1007.704-185.333 1019.435-183.186 1022.455-180.373 1019.242-178.52 1017.039-149.239 982.137-139.72 927.386-156.839 880.573-161.572 891.334-164.133 900.932-159.959 912.095-158.413 916.195-155.853 923.729-162.319 926.029-168.053 928.065-168.373 920.655-170.853 917.151-174.44 912.082-175.839 905.226-184.8 900.628-178.399 926.375-165.64 948.688-178.759 974.699-183.893 955.557-183.333 936.237-192.572 919.436-192.066 937.441-188.959 955.378-191.879 973.12-192.826 978.84-189.453 993.508-204.533 983.785-208.946 980.945-210.159 986.388-209.279 989.74-205.706 1003.479-206.626 1017.109-210.693 1030.487-203.012 1032.496-202.346 1026.554-199.479 1023.327M-208.773 794.948C-215.386 787.718-221.72 780.155-228.76 773.41-244.933 757.926-251.947 738.909-251.52 716.278-251.32 705.89-251.96 688.134-259.427 688.675-270.186 689.464-268.347 705.724-268.826 716.402-268.96 719.339-268.84 722.288-268.84 725.225-270.213 775.793-249.053 784.394-215.64 805.64-212.694 807.51-207.427 809.463-204.733 805.308-201.96 801.027-206.106 797.87-208.773 794.948M-380.319 865.628C-382.545 860.143-385.959 856.126-391.759 858.855-397.878 861.722-396.746 867.096-393.812 872.207-385.799 886.154-377.812 900.115-360.599 913.232-368.505 894.187-374.505 879.949-380.319 865.628M-364.412 847.734C-369.985 849.312-372.519 854.243-370.772 860.31-366.905 873.855-361.492 886.694-352.492 901.68-348.199 884.16-354.012 870.531-354.466 856.556-354.652 850.697-358.012 845.933-364.412 847.734M-350.132 541.878C-356.985 538.18-362.092 533.568-364.239 525.438-376.412 479.136-397.772 467.502-442.532 483.374-459.665 489.455-472.878 498.513-489.905 504.925-496.719 507.488-499.865 511.947-500.865 518.997-504.945 547.667-507.545 576.49-504.612 605.381-501.532 635.672-486.238 656.808-469.105 679.286-435.559 723.261-406.372 769.964-382.065 820.005-381.052 822.069-380.652 824.617-379.239 826.279-375.799 830.31-375.052 838.966-367.279 836.182-360.625 833.814-360.599 826.792-361.719 821.058-366.386 797.221-366.279 772.887-369.092 748.898-373.799 708.829-369.265 669.37-363.039 630.118-361.532 614.911-351.505 576.891-344.265 565.035-337.892 554.579-340.265 547.196-350.132 541.878M-250.106 144.971C-272.866 124.473-324.052 101.551-350.012 84.459-333.399 127.298-291.506 158.156-250.106 144.971M-331.532 184.056C-328.386 186.452-325.092 188.654-321.905 191.009-311.732 198.544-301.985 206.826-291.319 213.502-261.773 232.034-247.706 248.1-266.706 288.57-270.746 297.13-272.186 312.421-270.986 323.778-267.773 306.963-265.759 304.609-260.892 290.094-258.466 282.864-250.226 258.931-240.306 263.89-232.266 267.906-221.119 270.191-225.932 286.41-231.413 304.941-232.586 324.055-229.439 343.39-227.652 327.545-224.119 312.116-220.453 296.701-219.626 293.266-218.919 283.903-212.959 284.831-201.026 286.7-194.693 297.892-188.679 305.232-184.186 310.703-185.52 314.567-187.733 319.428-194.106 333.501-196.186 348.417-194.853 364.234-191.079 351.95-186.973 339.761-183.652 327.337-181.413 318.93-177.226 319.055-171.066 322.462-150.119 334.082-149.426 336.465-157.919 360.315-161.199 369.553-166.759 378.348-164.72 390.467-157.053 381.339-156.186 369.844-150.693 360.994-147.492 355.827-145.932 345.44-136.253 351.008-129.159 355.079-116.986 357.101-124.56 371.049-125.479 372.752-138.413 395.813-138.733 403.528-131.133 387.337-114.826 366.991-101.146 374.65-97.72 376.423-96.093 377.489-93.133 379.788-86.679 384.802-95.8 390.314-99.306 399.041-103.599 409.733-104.973 421.048-103.653 421.741-102.613 422.295-98.319 409.192-92.333 399.774-87.213 391.714-82.573 386.174-76.879 389.345-73.319 391.325-69.493 392.572-66.52 394.442-62.08 397.24-69.613 402.295-71.426 410.356-73.159 418.043-73.599 425.827-72.12 426.644-71.413 427.032-70.959 418.278-67.679 411.021-64.453 403.86-60.253 398.639-57.64 398.486-54.426 398.292-49.053 402.891-43.786 406.699-28.826 417.544-10.266 416.824-5.226 417.378-16.626 414.414-36.92 403.763-40.226 401.755-60.026 389.747-46.213 377.808-38.853 372.794-34.426 369.774-21.626 368.265-21.626 368.265-23.52 363.833-33.226 365.481-37.373 367.448-42.226 369.761-47.72 375.37-50.44 377.974-62.986 389.955-67.52 387.268-77.333 375.509-62.44 366.063-47.84 356.811-30.387 345.758-51.093 345.897-64.653 354.65-77.453 365.481-85.546 372.323-103.693 367.822-106.893 358.044-108.679 352.6-104.013 351.714-100.666 349.443-92.399 343.805-82.2 340.481-77.107 329.36-90 330.731-99.92 336.755-108.573 345.481-123.119 360.177-129.039 341.617-135.386 335.8-144.786 327.171-131.413 325.37-127.239 322.282-114.573 312.892-101.159 304.609-88.026 295.883-108.293 295.468-125.266 303.321-138.133 317.504-147.426 327.739-152.306 326.216-161 317.254-170.292 307.698-165.106 304.083-158.386 296.964-144.746 282.49-127.333 273.806-112.573 260.731-135.413 261.396-152.813 273.959-168.386 289.72-174.52 295.953-179.453 305.814-187.839 293.889-194.239 284.762-212.093 279.401-196.133 261.742-181.666 245.745-167.212 230.607-144.146 220.482-157.8 215.496-166.279 219.18-173.932 224.707-186.986 234.153-199.906 244.111-207.159 259.457-212.106 269.956-216.946 269.194-222.946 260.703-225.973 256.424-228.812 251.798-232.613 248.363-239.172 242.422-237.479 238.252-232.053 232.532-214.999 214.527-198.693 195.718-176.08 182.879-184.813 175.829-190.306 181.106-195.359 184.527-212.466 196.148-229.546 208.017-242.532 224.748-249.839 234.167-255.212 234.638-264.532 226.078-286.492 205.912-309.026 186.051-337.532 175.248-338.799 181.591-334.186 182.02-331.532 184.056M-1303.423 543.969C-1315.343 549.371-1320.61 557.418-1318.209 573.097-1313.636 603.055-1313.676 633.442-1316.823 663.774-1317.876 673.968-1318.023 684.438-1312.636 693.815-1309.569 699.148-1307.823 707.319-1300.156 705.021-1292.903 702.846-1291.303 695.588-1292.543 687.915-1292.077 643.525-1297.41 599.052-1290.09 554.745-1288.41 544.551-1294.569 539.938-1303.423 543.969M151.373 3.005C148.973 4.516 146.52 5.997 143.92 7.105 113.333 20.083 87.347 38.878 68.48 67.866 57.893 84.155 42.907 95.983 26 104.93-10.307 124.168-48.813 134.472-89.52 137.09-111.319 138.489-133 141.799-159.292 144.777-147.346 150.553-139 153.101-132.333 158.059-68.346 205.718-17.413 263.806 9.36 342.864 18.4 369.539 24.214 400.965 57.08 411.644 63.613 413.763 58.667 418.5 54.28 421.283 23.734 440.633-7.52 459.566-43.04 465.604-93.653 474.219-145.253 481.823-187.346 438.555-193.413 432.322-199.906 426.491-205.546 419.885-211.426 413.001-216.146 411.893-224.346 417.433-236.599 425.688-249.973 432.489-263.479 438.361-296.359 452.668-325.04 462.907-360.453 469.306-365.013 470.123-380.56 469.348-371.72 481.37-362.426 494.015-356.613 507.006-352.747 522.006-350.066 532.381-340.891 533.343-333.241 538.47-327.965 542.006-325.786 537.224-320.705 533.291-313.279 527.543-302.545 520.521-290.039 520.424-309.67 532.629-309.7 533.516-319.114 545.51-321.527 548.571-329.977 559.036-329.327 559.592-328.211 560.545-322.415 553.011-320.135 549.867-313.269 540.366-307.71 537.49-291.732 537.377-306.559 546.379-309.11 550.404-314.696 558.354-316.71 561.222-321.443 563.908-318.577 566.762-306.536 578.783-303.36 586.906-306.454 602.668-307.333 607.169-302.413 612.349-297.921 612.03-290.774 611.518-294.534 605.881-294.774 601.448-295.613 586.352-292.839 589.717-280.732 595.298-274.652 598.11-270.146 608.664-263.853 604.467-256.119 599.315-263.212 589.315-262.559 581.462-262.426 579.8-263.973 577.833-263.559 576.351-260.812 566.476-253.773 553.416-245.919 556.933-232.759 562.833-228.932 563.138-230.012 547.612-230.066 546.781-228.906 545.424-228.012 545.036-218.8 541.033-209.839 544.745-201.786 548.069-194.399 551.116-184.679 554.911-185.973 566.338-189.479 597.141-178.373 624.37-167.279 651.572-156.746 677.444-150.573 703.691-151.533 732.347-153.373 787.291-144.327 841.517-136.327 896.211-130.26 937.706-134.407 979.507-158.073 1015.254-177.967 1045.323-206.858 1081.219-228.991 1109.654-243.378 1128.13-261.351 1141.731-282.097 1152.589-321.351 1173.116-355.34 1206.679-398.313 1221.665-429.539 1232.538-458.699 1250.626-492.206 1255.072-557.726 1263.756-619.558 1238.463-669.638 1190.264-703.225 1157.952-730.091 1119.905-756.371 1081.401-772.424 1057.884-787.291 1033.521-803.264 1009.947-806.824 1004.699-812.424 993.812-819.398 1006.055-841.864 1045.529-873.957 1072.163-913.957 1091.29-951.851 1109.42-990.677 1118.118-1031.077 1109.157-1067.344 1101.124-1099.771 1079.795-1137.224 1073.714-1169.437 1068.493-1191.957 1044.172-1215.717 1023.479-1256.743 987.773-1297.33 950.115-1299.89 888.813-1301.09 860.185-1308.503 831.958-1293.89 804.313-1280.997 779.909-1294.663 754.507-1294.09 729.507-1293.797 716.821-1307.517 722.707-1313.156 715.713-1317.943 709.771-1324.196 702.264-1324.623 694.092-1325.05 685.838-1325.649 677.555-1325.45 669.314-1324.663 636.877-1322.37 604.606-1327.903 572.14-1332.263 546.573-1319.517 534.482-1294.143 528.069-1282.036 525.008-1284.543 513.526-1280.756 505.895-1277.943 500.203-1282.517 495.3-1287.836 493.901-1303.783 489.704-1305.489 476.851-1307.943 462.917-1312.61 436.422-1316.303 409.275-1337.81 389.788-1342.676 385.37-1346.556 378.777-1343.276 370.674-1337.503 356.437-1343.61 345.689-1353.116 335.939-1362.009 326.811-1370.69 317.462-1379.503 308.252-1428.41 257.089-1476.316 204.25-1550.369 193.557-1558.609 192.367-1559.369 186.563-1560.822 179.887-1566.702 152.769-1568.369 125.026-1572.756 97.769-1576.782 72.673-1567.662 57.922-1548.929 44.765-1518.169 23.158-1484.436 7.59-1451.343-9.196-1327.33-72.063-1202.703-133.627-1078.89-196.896-998.397-238.03-918.798-281.063-839.051-323.75-828.651-329.318-822.318-328.514-814.385-319.221-793.237-294.443-769.451-272.559-741.958-255.385-714.398-238.155-688.091-240.524-662.918-260.856-652.132-269.568-641.678-278.778-630.385-286.7-592.145-313.514-548.812-325.661-504.118-318.057-396.705-299.775-324.892-224.748-257.652-143.697-248.839-133.073-253.919-130.276-263.106-127.478-328.092-107.644-390.359-77.755-458.759-70.484-459.105-70.442-459.279-68.614-459.772-66.717-425.399-56.536-391.612-48.905-357.026-67.132-331.746-80.456-306.172-93.849-279.506-103.6-204.372-131.051-126.573-131.854-48.44-123.503-10.387-119.431 22.654-103.018 48.72-73.462 60.08-60.595 74.253-52.423 88-43.019 109.64-28.185 131.787-14.197 154.306-.484 152.853 1.274 152.293 2.438 151.373 3.005" fill="#231f20"/>
</g>
</g>
</svg>
