<svg xmlns="http://www.w3.org/2000/svg" xmlns:xlink="http://www.w3.org/1999/xlink" xmlns:inkscape="http://www.inkscape.org/namespaces/inkscape" version="1.1" width="2048" height="1920" viewBox="0 0 2048 1920">
<defs>
<clipPath id="clip_1">
<path transform="matrix(1,0,0,-1,0,1920)" d="M0 1920H2048V0H0Z"/>
</clipPath>
</defs>
<g inkscape:groupmode="layer" inkscape:label="Layer 1">
<g clip-path="url(#clip_1)">
<path transform="matrix(1,0,0,-1,305.8758,613.4203)" d="M0 0C-8.953-36.996 15.927-23.361 37.313-17.693 65.825-10.905 67.729-10.46 88.472 10.173 91.475 13.813 111.216 14.09 135.094 11.338 129.729-3.683 98.885-4.819 96.403-5.482 137.193-23.873 161.406 1.44 162.268 9.933 170.913 9.901 179.655 10.289 188.25 11.083 190.062 9.433 199.602 .626 215.816-16.452 215.966-16.577 219.208-19.235 224.768-21.878 162.686-57.81 183.481-58.981 158.317-99.696 151.751-111.773 148.805-111.701 148.057-111.391 126.646-102.932 97.011-105.287 84.943-128.266 99.381-127.672 121.881-125.17 136.536-124.971 125.407-136.769 100.544-152.523 86.402-141.382 72.835-124.358 47.66-122.647 27.193-119.304 21.482-118.121 12.968-117.182 9.508-120.973 3.779-125.889 5.219-137.652 9.533-143.85 20.78-164.573-23.087-181.401 3.466-203.395 18.804-223.311 20.089-245.244 52.682-238.302 54.634-237.897 58.697-237.051 60.112-238.111 74.436-247.261 104.06-249.597 114.335-237.105 118.925-231.317 117.639-220.476 113.213-211.288 83.277-148.683 156.908-137.023 174.82-86.998 173.67-97.239 186.884-126.326 195.923-134.881 205.22-114.042 198.792-89.226 189.038-72.256 182.434-52.03 230.141-30.407 236.698-25.93 244.253-27.549 251.757-27.406 259.114-25.511 263.398-24.408 267.593-27.531 267.593-31.955V-680.003C267.593-684.465 262.617-687.12 258.912-684.634 245.705-675.771 224.405-661.452 230.172-651.022 240.089-634.201 246.824-609.336 237.715-588.466 228.669-596.833 215.042-625.939 216.119-636.145 198.74-585.949 125.263-573.639 155.803-511.302 160.312-502.169 161.759-491.302 157.213-485.468 147.062-472.832 117.42-474.977 102.999-483.935 101.569-484.983 97.521-484.096 95.579-483.671 63.057-476.447 61.552-498.287 45.996-518.105 19.214-539.885 62.906-557.046 51.435-577.701 47.055-583.882 45.491-595.603 51.175-600.58 62.271-607.76 83.082-598.723 96.299-598.066 118.863-596.35 124.326-577.317 139.625-577.218 151.886-577.846 169.633-587.429 178.237-597.805 163.529-597.467 141.167-594.748 126.678-594.017 138.524-617.121 168.113-619.73 189.617-611.492 190.085-610.859 194.097-612.123 199.954-623.666 221.396-660.874 207.952-663.681 253.085-693.744 257.501-696.686 257.952-703.041 253.97-706.548 210.72-744.63 229.108-683.571 168.301-706.504 179.099-718.587 209.353-716.837 216.78-732.311 190.369-738.683 162.237-729.838 138.22-715.743 115.944-700.574 133.274-651.755 122.175-625.917 117.719-612.547 103.606-611.44 95.352-622.399 89.734-628.802 85.815-632.508 76.42-628.192 51.52-615.689 43.338-634.625 29.77-652.237 19.042-663.99 17.683-677.469 25.839-691.213 29.554-704.576 31.126-719.431 37.461-732.176 46.255-749.751 64.377-737.399 74.202-727.387 103.24-712.66 91.002-695.988 151.417-734.848 127.944-734.172 115.646-760.028 103.75-754.685 102.346-758.558 107.003-761.292 109.027-761.044 150.072-766.81 162.384-745.389 164.634-740.489 196.973-757.331 240.17-740.141 259.884-723.822 263.302-720.993 268.458-723.362 268.483-727.798 269.046-826.486 268.393-937.495 268.669-1035.036L266.295-1036.183C-92.857-810.684-214.058-334.828-14.829 30.464-.23 24.916 5.62 14.488 0 0M64.871 70.138C71.413 61.935 78.24 53.039 84.963 44.357L57.446 64.117 56.191 62.565C56.429 62.348 78.032 42.855 85.72 37.074 70.632 36.128 56.63 44.194 43.136 49.062 50.911 38.174 60.8 38.177 76.645 33.37 51.03 34.026 26.704 39.542 1.184 40.883 11.378 36.89 25.683 28.279 82.54 23.351 57.624 12.936-23.511 11.825-1.834 55.862 38.074 122.565 23.476 119.364 64.871 70.138M137.855 180.238C163.189 190.4 190.53 200.617 206.675 169.549 182.629 179.49 170.588 160.952 151.181 171.352 155.891 161.688 182.989 137.224 213.148 160.488 230.876 146.845 246.179 138.546 262.56 133.661 268.209 131.142 268.286 126.305 268.367 121.183 269.005 83.789 269.036 32.979 268.393-7.498 264.882-9.7 256.515-6.516 254.036-3.846 240.51 10.53 228.28 9.766 213.924 14.304 187.769 21.226 175.141 45.102 184.775 61.678 195.41 80.464 249.28 90.213 215.067 115.845 208.324 120.827 200.33 123.84 193.03 127.9 184.934 135.01 177.158 144.041 166.082 143.076 154.074 142.499 145.63 137.38 131.805 135.353 122.904 133.6 116.417 124.623 115.278 112.48 114.851 107.905 113.21 102.084 110.442 98.335 107.719 132.948 65.846 123.443 45.267 108.8 42.16 107.876 39.761 110.491 36.849 115.39 63.884 148.463 86.346 176 111.517 206.778 113.801 192.18 122 175.39 137.855 180.238M156.964 200.748C150.83 200.854 138.45 207.563 136.063 202.743 139.697 201.319 152.822 196.786 162.141 194.883 137.688 185.401 121.315 175.388 115.308 210.875 120.388 218.331 126.083 224.575 127.781 226.387 143.569 218.05 163.162 207.246 178.094 198.892 172.336 199.135 162.071 200.098 156.964 200.748M182.173 227.651C180.178 230.783 178.986 232.731 177.543 234.455L177.433 234.405C175.485 236.3 165.631 252.802 165.425 249.592 165.424 249.592 164.565 249.196 164.565 249.196 167.394 241.896 181.156 217.771 185.669 208.415 175.135 215.364 159.738 232.313 151.359 241.487 151.459 232.819 169.568 215.641 177.994 207.262 163.445 214.858 147.812 223.326 132.898 231.411 139.258 239.406 154.552 257.096 174.617 270.003 177.512 256.043 183.089 235.952 186.236 221.391 184.874 223.39 183.472 225.601 182.173 227.651M196.253 205.562C192.303 223.843 186.058 250.84 182.17 268.952 198.045 258.053 202.046 219.394 196.253 205.562M203.344 263.02C203.853 266.589 217.054 275.361 223.351 272.306 227.147 259.12 222.516 238.743 216.517 225.947 217.756 236.582 218.971 247.768 215.885 255.768 214.561 246.16 211.463 230.776 204.95 220.255 203.964 233.634 201.705 252.076 203.344 263.02M206.124 164.297C188.273 152.412 169.537 162.841 169.537 162.841 189.983 164.84 191.148 171.344 206.124 164.297M157.015-742.438C144.57-752.738 120.505-755.493 120.505-755.493 124.64-754.683 127.275-751.117 127.275-751.117 139.827-738.163 157.015-742.438 157.015-742.438M55.557-707.281C48.614-706.387 36.516-702.757 33.172-700.593 32.824-699.721 32.354-696.429 32.237-694.697 48.551-697.827 76.595-701.515 95.705-704.143 86.045-711.975 71.519-721.606 61.916-730.509 45.717-742.993 39.465-721.739 35.154-708.07 43.544-708.725 53.869-710.644 61.849-708.092ZM79.884-661.436C83.265-667.1 90.82-678.846 95.482-686.079 86.794-679.927 77.419-665.551 73.712-657.897 66.708-665.381 88.868-687.4 93.415-691.844 81.992-689.113 73.124-681.745 62.747-676.827 62.535-677.121 62.116-677.779 62-678.12 66.194-686.111 74.285-689.392 83.07-695.236 66.326-692.444 49.753-690.453 33.051-686.979 18.805-678.764 28.153-659.099 40.665-651.472 45.661-655.691 53.451-669.708 60.667-669.267 57.034-664.522 51.907-654.432 49.197-649.164 41.805-639.832 50.819-633.88 58.967-632.596 89.124-629.668 103.083-661.287 103.615-684.194 93.406-669.444 81.03-656.343 71.123-641.438L69.412-642.471C72.889-648.802 76.134-655.176 79.884-661.436M121.28-675.548C120.741-680.082 119.973-683.169 119.243-685.034 117.442-673.978 117.346-655.056 114.877-646.178 111.401-643.718 111.813-663.89 109.564-667.59 104.798-657.517 98.481-644.275 92.345-634.411 96.779-630.104 104.363-623.044 110.314-622.495 120.35-635.122 122.306-659.459 121.28-675.548M214.185-716.565C198.083-718.408 176.905-708.144 176.299-707.849 180.204-709.388 184.455-707.84 184.455-707.84 202.421-703.813 214.185-716.565 214.185-716.565M176.693-603.062C162.155-617.358 144.126-604.309 143.593-604.145 151.252-605.789 174.304-604.821 176.693-603.062M57.294-586.291C60.373-584.675 61.117-581.37 61.774-578.453 63.476-565.36 82.935-575.212 91.88-574.101 100.873-575.877 114.291-572.484 118.201-580.97 100.893-589.393 83.006-594.29 64.008-596.175 61.623-596.514 57.875-595.663 57.425-595.101 56.335-591.529 56.536-586.712 57.294-586.291M101.19-528.229C99.341-528.829 115.585-542.58 122.381-547.811 112.906-545.339 98.73-537.19 91.315-541.62 95.433-542.671 113.722-548.344 119.711-553.573 104.224-551.831 75.812-546.491 61.277-545.048L60.999-547.026C79.849-550.542 97.604-557.628 116.393-561.536 89.861-572.71 52.402-566.794 47.184-533.045 46.298-513.354 70.623-522.116 82.795-522.312L58.729-514.578C86.94-454.242 109.453-514.666 127.135-541.759 123.886-542.787 109.828-533.43 101.005-525.896ZM113.291-503.434C110.151-498.795 106.907-494.001 104.526-490.112 104.576-489.571 104.852-489.09 105.326-488.891 112.541-497.828 114.321-498.112 119.878-501.708 116.92-496.692 112.698-491.601 111.566-485.797 118.629-481.52 140.552-480.299 146.398-488.485 158.621-496.889 142.214-518.979 141.473-533.817 141.147-538.814 140.85-541.659 136.263-540.175 129.456-537.592 125.219-522.562 121.374-515.67 119.155-512.097 116.175-507.693 113.291-503.434M222.013-638.958C222.013-638.958 229.306-625.781 231.411-607.091 231.411-607.091 240.877-619.825 222.013-638.958M180.772-84.279C199.392-103.562 189.812-116.204 189.812-116.204 187.956-98.071 181.175-85.07 180.772-84.279M59.795-147.102C48.962-147.646 37.928-149.101 27.163-149.888 16.932-150.962 22.423-138.855 15.481-135.318 14.321-131.97 13.388-123.917 22.297-125.503 41.273-127.574 59.105-132.641 76.327-141.229 72.399-147.122 69.219-147.118 59.795-147.102M40.288-199.531C28.036-199.653 3.695-208.109 4.81-188.469 10.387-154.782 47.906-149.208 74.314-160.646 55.629-164.336 37.597-171.297 18.776-174.619L19.035-176.599C33.598-175.292 62.042-170.229 77.548-168.639 71.193-173.959 53.398-179.206 49.032-180.316 56.385-184.821 70.675-176.805 80.159-174.426 71.491-181.659 56.575-191.807 58.58-196.113 67.401-188.764 81.543-179.431 84.854-180.519 70.66-200.26 60.906-228.773 44.144-232.791 30.644-233.546 20.157-219.941 16.164-207.044ZM71.286-229.717C73.063-226.685 75.34-223.499 77.164-220.52 71.574-224.041 69.81-224.292 62.485-233.175 62.015-232.97 61.744-232.489 61.696-231.948 67.852-221.607 77.123-211.429 81.931-200.059 85.762-192.4 89.581-179.579 98.111-182.455 97.693-199.72 116.385-223.248 103.553-233.977 97.658-242.094 75.672-240.714 68.697-236.335 69.219-234.059 70.05-231.94 71.286-229.717M135.048-119.705C132.681-117.917 109.636-116.729 101.961-118.295 102.5-118.139 120.659-105.267 135.048-119.705M40.558 11.002C50.005 11.781 60.545 12.65 68.871 13.159 60.285 8.458 44.438 1.553 37.384 1.367 43.623-10.092 69.65 12.661 77.477 6.16 58.418-12.583 34.268-12.973 11.55-19.969-2.832-21.824 5.295 3.214 10.304 6.854 18.703 11.429 30.107 9.223 40.558 11.002M86.833 51.303C74.665 68.803 59.489 85.905 48.808 103.921 53.927 113.252 85.43 116.648 85.625 116.676 113.792 115.169 98.245 82.586 92.918 64.978 91.325 73.544 90.558 86.658 87.404 93.235 87.095 86.502 85.474 68.198 86.833 51.303M100.427 55.276C100.825 59.336 101.244 64.431 101.633 68.909 133.985 42.315 173.857 60.796 182.095 18.186 154.648 14.673 104.632 9.687 100.427 55.276M151.433 57.643C133.459 59.066 121.153 65.854 106.793 75.022 97.931 81.574 110.134 93.015 117.983 92.639 128.045 79.147 139.248 69.756 151.433 57.643M150.503 116.294C151.848 114.653 156.544 110.441 158.963 113.05 155.535 116.636 149.166 124.188 144.919 131.805 198.551 149.518 180.552 108.645 174.949 74.622 173.537 85.42 170.728 99.666 170.923 109.579 165.671 97.508 168.685 82.916 169.494 69.895 136.469 108.417 131.518 106.858 125.322 108.209 139.518 93.175 152.056 78.053 164.887 60.816 149.412 67.433 133.856 81.771 125.917 93.32 114.37 111.168 129.355 148.191 150.503 116.294M200.963 93.714 201.067 94.28C196.478 96.75 186.259 79.889 181.625 75.786 184.729 90.288 187.033 105.039 189.832 119.617 191.588 119.571 197.665 118.584 212.174 109.298 216.234 106.697 218.862 102.761 219.032 99.025 217.19 87.109 201.137 83.916 190.017 75.716 194.386 81.679 200.468 91.044 200.963 93.714M121.091-6.036C140.039-4.884 145.156 7.84 145.156 7.84 151.581-10.827 121.091-6.036 121.091-6.036M242.664-8.843C229.463-15.908 226.127-12.795 216.845-4.133 213.383-.92 204.432 7.598 199.223 13.403 213.326 8.914 230.406-.688 242.664-8.843M228.965 309.353C240.955 318.427 254.479 328.662 267.19 338.163 267.191 286.367 267.231 221.369 267.24 169.124 260.553 181.929 244.815 188.239 233.782 194.269 234.308 178.6 248.478 153.02 262.99 143.851 241.447 152.828 185.752 179.681 211.255 206.766 230.388 223.253 231.422 246.665 233.091 268.527 233.963 278.192 222.162 282.773 214.195 279.411 204.755 276.051 197.019 265.028 190.017 280.003 202.576 289.385 216.056 299.592 228.965 309.352ZM241.125 185.415C255.263 171.139 261.256 174.477 264.737 158.603 243.991 164.84 241.125 185.415 241.125 185.415M302.919 412.248C-297.24 89.467-292.67-790.658 305.038-1106.34L304.421 413.118Z" fill="#030404"/>
<path transform="matrix(1,0,0,-1,1472.38,756.9795)" d="M0 0C.117 12.262 4.484 16.224 19.306 17.092 16.61-11.151 10.53-34.422 .253-55.757-.709-37.478 .105-18.705 0 0M130.343-8.721C128.998-13.927 128.127-34.091 126.022-38.949 113.894-29.651 124.12-2.193 126.619 12.817 132.728 22.19 143.375 16.862 152.573 2.864 146.632-5.674 138.139-24.201 133.477-36.328 132.102-25.097 130.998-12.804 133.436-2.518ZM205.857-82.257C213.999-86.707 209.265-95.303 202.389-100.019 184.697-108.677 174.481-88.525 159.55-79.276 171.094-81.556 171.44-80.432 171.749-79.429 172.033-78.506 172.495-77.001 158.172-71.011 173.379-68.495 196.072-65.123 210.817-62.679 205.551-66.35 197.156-68.503 192.142-73.464 198.918-72.771 211.738-67.429 216.134-72.459 217.344-79.871 207.939-80.518 202.443-80.447ZM199.887-9.318C197.249-15.691 192.716-22.815 189.358-29.314 195.094-23.942 200.845-18.903 205.6-12.435 246.02-59.784 193.803-58.81 155.958-65.405 173.55-55.298 179.183-53.38 183.58-48.269 172.435-50.725 160.344-55.812 151.816-61.565 155.98-51.748 166.253-40.437 174.85-34.685 167.361-35.968 158.502-44.021 150.446-50.145 160.705-35.737 172.491-15.4 174.904 1.737 162.328-15.4 149.75-42.188 137.395-57.333 136.104-46.181 148.87-13.322 160.378-3.493 170.409 8.385 203.762 11.439 199.887-9.318M191.668-141.116C192.977-121.195 215.531-119.85 216.051-119.638 209.116-123.167 192.284-138.287 191.668-141.116M307.874-183.933C310.048-184.632 312.153-185.171 314.375-186.017 316.803-186.946 318.87-188.059 320.832-189.497 318.169-197.422 302.461-211.673 292.599-209.135 275.537-208.982 274.071-179.103 262.057-166.445 269.13-157.178 284.413-170.621 293.042-172.931 301.75-175.739 314.62-178.989 323.225-181.818 323.552-182.255 323.686-182.749 323.485-183.201 311.886-180.909 310.414-181.809 303.623-182.562ZM338.897-129.48C333.272-134.412 324.001-138.982 317.89-143.774L341.326-134.648C346.884-146.774 348.094-163.302 337.642-171.364 321.845-179.204 295.079-162.919 270.939-156.672 272.781-153.875 290.118-152.208 301.63-152.472 299.503-147.595 281.353-149.45 270.475-149.136 279.253-145.13 295.495-142.518 298.177-134.492 293.983-136.371 277.05-143.24 268.557-143.092 281.496-134.755 306.645-121.104 318.644-113.135L317.608-111.427C300.865-120.543 282.55-126.245 265.603-135.035 272.391-122.457 282.587-112.697 296.683-105.265 309.321-99.231 352.582-108.692 338.897-129.48M295.617-88.135C297.724-91.857 299.247-94.546 294.563-97.681 286.403-103.136 277.344-109.095 269.093-114.566 262.12-120.265 258.189-123.937 251.057-121.351 259.751-103.612 270.388-82.733 287.577-72.768 296.575-77.972 291.17-81.865 295.617-88.135M132.874-142.156C132.874-142.156 136.297-156.705 147.406-172.202 147.406-172.202 131.565-168.443 132.874-142.156M141.294-275.764 141.759-275.085C142.186-274.463 142.251-274.367 137.669-259.235 136.844-256.513 135.93-253.493 135.165-250.9 144.35-265.293 157.092-285.12 165.937-291.49 162.776-272.708 143.936-261.149 141.487-242.82 155.089-247.001 167.347-262.847 167.565-276.923 167.025-288.275 166.274-305.882 154.309-309.103 142.136-309.252 136.227-291.626 128.827-283.667 134.928-301.9 143.633-313.068 116.228-311.489 75.333-309.032 107.147-263.972 115.95-243 117.735-253.161 119.468-262.29 120.97-272.79 125.357-263.669 125.671-258.156 126.369-246.527 129.768-256.452 131.156-267.686 141.294-275.764M154.287-223.343C169.857-229.654 197.269-247.194 203.978-261.253 198.381-267.653 187.067-270.325 179.084-272.46 171.349-259.676 155.17-236.772 154.287-223.343M90.126-264.237C87.849-265.062 83.034-274.695 79.974-281.141 77.599-285.23 74.209-281.978 70.565-279.274 35.247-255.778 81.349-241.644 103.428-236.237 98.49-243.264 94.891-250.35 92.019-256.497 97.037-253.063 100.898-248.494 104.829-244.129L88.777-284.791C89.229-276.782 90.04-268.308 92.446-263.08ZM91.391-150.919C90.843-157.285 84.09-179.813 84.09-179.813 82.456-159.681 91.391-150.919 91.391-150.919M91.391-84.663V-95.324C91.391-96.817 90.737-100.953 86.592-100.226 85.053-99.958 85.62-88.994 85.62-87.501 86.407-82.708 85.022-70.962 87.792-67.369 90.358-69.319 91.187-80.403 91.391-84.663M170.582 324.507C176.502 336.121 183.048 330.039 191.741 319.11 211.349 292.742 229.272 265.521 248.98 239.205 258.022 225.7 231.05 211.229 224.526 200.838 210.108 185.817 195.201 170.284 181.532 153.872 161.094 129 140.328 102.771 119.36 71.381 114.751 63.818 110.395 56.677 101.896 58.121 92.439 59.532 55.673 55.661 51.565 60.512 49.192 62.009 54.228 74.832 56.727 81.761 88.105 168.372 126.464 244.478 170.582 324.507M-.113 465.184C-1.401 488.458 12.179 475.873 22.471 467.809 68.234 434.402 113.189 398.221 152.748 357.288 159.502 351.07 158.783 346.554 154.774 339.365 118.924 274.957 78.253 198.321 48.431 118.257 41.715 100.221 36.149 81.613 31.134 64.193 27.587 49.26 11.075 55.357-.26 51.179-.276 186.86-.139 329.178-.113 465.184M125.361-540.086C125.361-540.086 110.772-532.991 124.593-515.992 124.593-515.992 121.332-529.859 125.361-540.086M200.25-425.919C198.822-428.46 193.968-439.715 192.004-444.3 183.499-428.933 192.98-402.505 193.243-387.076 199.269-373.192 211.273-390.499 216.797-396.518 211.324-406.235 205.588-416.421 200.25-425.919M225.585-473.084C227.003-468.338 274.913-462.768 279.467-460.841 279.178-468.073 269.469-470.983 264-472.51 269.767-475.06 275.979-471.741 281.455-469.61 281.303-500.275 265.032-513.989 242.068-489.116 234.467-483.351 223.447-475.002 225.585-473.084M261.687-421.415 255.653-430.23 275.899-411.828C311.167-462.106 269.41-451.166 232.588-460.39 237.812-455.11 247.665-453.121 253.42-448.128 242.124-449.195 230.332-450.544 221.12-454.596 226.105-446.592 236.794-441.629 231.905-429.76 229.34-435.498 225.308-440.865 220.469-444.7 227.76-428.533 246.621-411.619 244.334-393.939 236.762-413.768 223.867-432.252 207.78-447.481 201.884-383.242 293.685-375.186 261.687-421.415M104.589-493.927C110.664-488.965 111.521-488.545 113.475-483.937 106.793-488.02 101.086-492.722 93.571-496.611 98.154-480.402 103.798-459.523 108.248-443.753 162.831-473.06 142.44-480.41 97.848-499.647 99.754-497.853 102.336-495.756 104.589-493.927M65.634-450.572C70.621-440.301 63.351-437.183 59.636-430.82 118.406-411.218 98.392-458.495 86.667-491.548 85.62-481.8 84.536-471.049 82.759-461.743 82.537-472.822 80.676-484.986 79.654-496.391 74.388-487.55 68.624-477.631 63.596-469.28 62.591-478.624 68.077-489.843 70.956-499.755 58.925-484.538 43.01-465.991 36.419-449.068 34.037-472.605 65.757-497.358 75.709-518.154 51.528-506.186 12.132-465.844 35.58-434.985 47.544-420.235 56.979-444.13 64.923-451.985ZM5.095-483.203C7.63-478.387 14.8-474.156 20.456-474.234 33.594-489.482 41.791-501.037 59.033-517.591 44.89-519.163 5.151-498.929 5.095-483.203M48.379-617.582C40.319-633.226 24.863-626.343 24.863-626.343 36.145-625.828 48.379-617.582 48.379-617.582M-.172-529.752C-.367-522.651-.355-510.491-.332-500.205-.325-497.308 3.404-496.183 5.034-498.578 15.516-513.983 35.436-525.873 56.032-524.109 66.942-524 77.899-535.791 80.575-547.065L32.912-539.52 30.068-542.754C41.094-557.376 54.526-572.661 75.824-568.714 77.803-568.293 82-570.248 83.061-572.086 92.672-588.756 101.715-605.557 110.842-622.238 79.251-605.952 44.746-594.404 11.458-580.714-10.503-574.475 3.56-546.403-.172-529.752M-.424-630.851C-5.799-574.941 18.555-600.305 53.098-610.509 40.424-616.943 25.901-624.259 9.276-621.798 18.678-641.2 43.51-633.038 56.378-621.415 66.438-614.177 88.263-621.018 105.068-630.72 82.706-638.732 52.363-644.742 30.327-653.112 48.558-667.643 101.586-641.219 133.426-637.142 149.38-635.11 209.634-638.713 228.917-659.985 187.616-750.533 83.886-834.126-.394-890.613V-640.201C-.394-637.084-.408-633.968-.424-630.851M252.994-510.97C244.09-497.433 214.268-507.353 197.929-509.495 184.714-510.231 174.885-518.43 172.884-530.51 175.431-571.675 140.095-544.633 141.46-572.809 147.148-587.703 190.577-613.615 207.356-612.345 224.18-612.93 230.342-629.498 235.788-643.253 236.342-644.652 234.834-645.979 233.525-645.238 208.879-631.283 182.211-620.173 155.95-620.998 149.072-621.226 129.724-622.811 128.806-619.256 128.054-618.472 127.768-617.491 127.918-616.331L141.807-549.893C153.236-518.847 171.9-494.296 201.718-477.985 193.301-488.572 182.385-501.826 174.73-511.887 184.133-505.116 195.137-495.728 204.541-488.406 229.319-466.099 255.219-532.918 278.342-502.65 285.601-492.192 292.474-479.368 288.414-463.538 287.904-461.555 288.845-458.185 290.428-456.328 301.436-443.418 301.105-426.729 289.586-413.811 275.763-396.88 265.04-373.307 238.02-385.521 227.132-390.136 220.161-388.692 213.163-380.37 206.677-372.027 187.001-367.663 186.049-382.94 181.888-406.047 174.437-426.198 185.597-449.759 199.632-473.947 136.197-513.779 131.199-544.831 125.677-538.18 128.863-512.616 127.865-499.71 108.829-516.943 110.748-535.382 124.495-553.484 129.755-571.907 120.269-592.524 117.243-613.099 98.315-581.898 80.456-543.926 93.815-511.098 107.849-495.448 174.249-489.013 139.419-455.734 129.673-447.561 117.246-442.756 107.981-434.243 96.495-418.012 82.175-413.603 62.918-420.369 39.085-423.338 23.05-423.388 19.421-453.218 16.691-454.844 3.064-463.525-.295-476.671-.274-365.945-.181-255.887-.413-144.255-1.391-124.402 11.29-114.216 19.56-98.271 24.498-101.982 52.088-125.086 67.886-156.964 69.062-156.398 77.916-152.271 83.064-148.663 82.313-147.313 78.599-143.369 74.259-132.899 83.222-125.774 87.205-126.868 93.928-138.817 90.507-146.721 71.881-152.886 80.797-183.473 81.002-183.552 83.937-193.578 82.18-197.681 93.175-196.413 85.432-187.066 94.297-176.914 100.772-169.415 94.027-154.454 100.357-150.888 147.55-254.941 55.142-221.601 48.598-259.417 45.185-281.329 74.319-287.177 85.627-300.814 95.711-318.464 107.878-323.669 129.013-319.376 135.113-318.138 142.185-319.242 147.867-320.129 161.456-320.968 176.372-303.591 176.612-288.888 176.238-268.59 229.616-272.381 204.7-249.521 153.448-198.629 130.746-229.332 125.559-198.195 121.659-172.4 107.688-151.002 98.092-127.855 109.255-128.268 116.677-129.474 118.496-138.143 122.332-157.128 134.536-180.422 155.259-190.289 156.426-177.957 146.961-147.708 139.337-140.677 185.625-167.669 250.854-131.463 269.903-197.696 272.755-207.627 279.075-216.744 286.583-218.263 302.406-221.316 323.633-201.59 328.56-185.495 328.925-183.838 332.72-181.927 334.339-181.112 363.871-166.462 350.293-148.523 348.58-123.991 354-90.631 309.239-105.045 303.936-82.155 303.043-74.551 296.016-64.639 288.395-64.653 283.123-64.016 277.245-70.234 273.579-74.742 260.258-89.759 242.423-106.517 243.491-127.748 239.802-145.204 210.593-148.049 194.073-146.04 205.495-137.094 224.272-125.259 235.767-116.748 209.48-106.813 188.088-122.578 176.153-142.79 175.795-143.473 173.608-145.305 160.502-140.16 141.025-131.088 120.876-125.596 105.821-112.779 104.862-109.67 112.462-102.13 114.666-97.927 106.574-95.088 96.816-120.522 96.992-102.354 103.622-90.95 114.389-84.361 128.942-80.375 138.485-75.479 161.609-89.451 182.235-106.902 204.153-122.056 216.708-94.34 222.797-78.077 226.694-68.897 213.759-62.564 223.528-54.44 242.797-33.611 212.18-8.146 202.519 8.034 182.694 31.237 165.995-2.691 151.681 15.101 151.195 15.677 139.654 29.122 129.076 25.898 112.242 18.413 108.203-28.177 118.229-46.501 130.473-71.529 110.121-79.329 94.793-91.719 97.581-73.022 91.846-58.087 80.914-44.494 79.657-61.572 81.103-75.005 80.754-92.058 81.276-104.462 79.56-106.851 75.25-107.78 71.701-108.552 60.899-110.901 51.786-105.823 39.054-96.791 21.528-68.324 21.41-56.534 27.689-30.811 35.6-2.393 41.767 23.289 44.231 34.724 45.251 39.457 60.401 40.841 65.388 41.042 94.218 44.187 101.037 44.656 95.935 36.511 86.56 16.636 85.763 14.986L101.525 9.317C141.924 82.475 201.547 148.979 263.789 216.654 399.264-13.739 417.392-306.131 299.931-549.653 285.523-534.382 268.117-525.269 252.994-510.97M267.858-578.634C261.738-581.702 255.443-584.858 250.603-587.024 254.378-581.101 261.563-573.442 263.304-567.493 258.231-571.538 251.873-577.174 246.238-582.006 246.516-581.242 246.739-580.573 246.866-580.183L259.54-536.06C265.259-539.815 262.431-545.449 261.062-550.487L272.208-539.054 274.923-547.935C283.633-545.148 289.141-547.905 291.878-557.985 295.038-572.236 278.338-571.117 267.858-578.634M240.185-613.748C242.22-592.474 270.85-588.669 286.403-579.852 276.453-600.3 266.315-620.851 252.263-638.748 249.266-642.564 243.185-641.176 242.128-636.441 240.371-628.568 239.017-620.241 240.185-613.748M200.286-605.076C180.18-599.477 164.33-584.667 150.504-571.352 154.781-564.297 165.133-561.668 172.764-559.2 185.544-579.837 198.562-589.606 224.198-603.235 219.487-605.918 203.922-606.123 200.286-605.076M232.728-558.732C233.046-566.391 231.541-575.587 231.751-583.366 209.158-568.367 192.802-542.818 188.344-536.523 185.698-549.672 218.459-580.154 225.195-594.127 211.042-586.463 188.714-571.78 180.696-552.101 176.399-540.49 183.824-518.675 197.221-517.812 204.796-518.995 208.143-530.69 213.742-535.667L215.422-534.593C212.564-529.178 208.748-522.682 209.646-516.326 269.369-500.2 250.171-543.339 237.365-579.472 236.252-570.038 235.82-559.171 232.309-550.92ZM412.273-134.486V-134.487C395.322 153.771 217.187 419.086-38.209 557.941-38.211 50.603-37.703-457.673-38.197-964.73 262.793-799.944 446.085-472.738 412.273-134.486" fill="#030404"/>
<path transform="matrix(1,0,0,-1,696.0829,1239.6367)" d="M0 0C-.009 10.244 .015 36.817 .025 47.379 10.454 51.824 55.075 70.61 72.268 74.095 96.336 52.004 133.04 104.838 173.662 56.032 168.028 45.687 169.979 42.24 158.635 31.447 155.879 28.367 148.791 18.76 145.096 18.959 122.715 24.031 93.907 20.827 84.148-3.874 98.444-1.917 120.593 2.727 135.145 4.32 127.588-6.693 110.871-17.753 98.743-19.482 83.489-20.806 75.861-2.109 53.514-2.453 40.256-2.927 18.797 4.268 8.329-3.82 3.119-9.312 5.805-20.819 10.726-26.597 24.069-46.117-17.826-67.129 10.885-86.417 27.921-104.63 32.251-126.597 63.475-116.446 65.377-115.861 69.336-114.639 70.847-115.549 86.007-123.267 115.669-122.812 124.687-109.401 128.672-103.211 126.279-92.522 120.917-83.804 105.381-57.848 106.578-34.252 131.269-11.902 153.934 11.334 169.689 29.206 177.696 38.567 187.755-4.816 232.809-37.03 188.718-78.076 181.309-85.303 176.104-95.307 178.556-102.298 184.167-117.436 212.741-124.47 229.237-120.576 230.95-120.032 234.465-122.131 236.153-123.14 263.382-140.223 274.063-119.731 294.763-106.135 327.582-93.76 291.964-63.926 309.961-48.119 316.148-43.702 321.705-33.123 317.974-26.544 316.038-21.983 307.991-20.029 302.266-19.354 281.571-15.861 257.171-9.317 238.421-21.002 221.458-27.039 203.224-4.045 196.965 10.626 210.725 5.707 230.983-3.891 244.405-9.112 241.017 16.625 213.777 28.141 190.872 27.118 188.579 25.571 185.271 38.535 184.507 47.001 190.559 55.583 207.256 68.467 209.779 70.391 266.382 58.297 334.349 91.607 337.837 103.709 352.874 97.465 363.988 94.391 369.898 93.009 365.456 83.05 362.132 73.401 359.857 63.844L375.486 59.553C380.733 106.585 456.938 178.976 513.267 238.547 516.445 240.318 570.961 270.413 652.07 304.878L651.495-57.592C614.465-60.109 610.228-62.743 600.005-69.142 590.801-74.574 561.312-96.631 552.117-93.934 538.391-75.322 511.819-62.82 489.373-75.835 501.922-82.753 522.274-92.117 534.805-99.48 518.759-103.598 489.321-104.52 483.284-87.716 481.284-66.229 460.805-51.872 445.376-38.531 441.209-34.601 434.77-29.728 429.858-31.009 422.323-32.044 416.797-42.719 416.969-50.353 414.958-73.697 368.529-65.231 378.612-97.579 380.37-122.127 369.461-141.667 400.752-152.324 402.616-152.975 406.499-154.329 407.098-155.934 414.212-171.26 438.106-188.099 453.385-182.939 460.54-180.423 465.502-170.658 466.923-160.495 476.491-92.34 546.074-119.868 588.318-87.088 581.747-94.953 576.592-126.445 579.489-138.307 598.69-125.788 607.423-101.254 608.598-81.884 610.504-67.969 638.757-70.773 651.484-68.374 651.7-157.027 652.74-245.992 652.546-334.878 652.577-380.403 652.608-427.476 652.898-473.773 652.966-484.106 649.764-488.608 639.722-492.305 438.687-566.679 217.32-568.689 15.385-496.238 .026-490.754 .026-490.754 .026-475.378-.053-316.923 .047-158.453 0 0M650.632 548.819C641.018 558.259 610.304 579.349 608.781 591.592 624.085 608.588 630.744 636.361 612.023 654.307 608.077 640.998 603.447 619.712 599.038 606.33 591.644 617.328 587.869 636.44 591.084 647.765 595.717 661.706 616.697 660.478 625.779 680.522 630.845 692.397 645.863 707.64 643.079 720.305 640.221 727.423 627.776 729.815 620.322 727.847 596.389 724.08 592.931 769.394 563.249 752.106 539.649 744.624 516.256 750.118 513.146 718.275 512.937 716.391 512.505 712.466 511.03 711.527 497.6 701.526 486.331 676.09 494.428 662.475 498.502 655.962 510.044 653.918 520.938 654.727 584.61 659.455 574.171 593.18 624.422 559.709 615.473 565.671 582.253 561.148 570.5 555.514 588.443 540.276 614.814 538.573 634.68 542.02 643.207 545.239 651.146 528.748 652.399 519.459 603.521 518.964 531.697 579.262 453.04 507.503 442.396 508.411 430.249 509.932 426.275 511.607 427.53 516.529 432.026 541.74 399.755 562.969 393.31 567.133 384.886 566.405 392.916 556.787 393.142 556.779 400.051 550.148 399.491 543.525 399.764 542.815 406.153 526.238 412.323 518.7V515.434C410.114 513.068 307.425 568.319 332.588 605.516 349.116 619.007 354.144 641.65 357.608 662.107 364.522 680.398 346.789 687.222 332.52 679.207 319.839 671.481 308.965 686.929 297.781 691.511 281.831 701.893 271.155 683.815 256.381 678.929 236.863 672.742 228.852 659.943 232.569 640.891 234.945 631.591 223.369 625.629 224.367 607.739 220.11 563.131 255.55 583.325 281.479 587.684 304.56 588.79 315.536 583.654 332.528 563.791 337.399 556.061 354.97 543.239 349.735 543.153 315.796 549.505 323.182 525.905 302.082 532.019 292.068 522.589 311.207 525.783 319.895 520.894 320.65 520.601 345.385 515.018 361.079 535.894 366.615 531.199 398.674 505.441 442.204 499.369 415.547 478.845 412.085 473.133 372.462 460.358 360.096 478.671 339.44 497.257 309.113 475.084 331.612 480.219 326.849 462.177 357.432 457.98 344.729 451.348 299.45 442.546 293.274 465.064 287.616 485.015 268.718 499.012 251.59 510.256 237.536 523.969 222.787 514.667 223.814 496.467 223.928 473.035 176.953 477.548 189.979 446.177 194.152 421.65 184.646 401.811 217.091 393.533 219.013 393.041 223.018 392.016 223.765 390.472 236.49 368.746 281.294 350.012 283.483 388.161 285.2 419.567 296.675 437.356 332.597 443.301 361.255 451.929 399.834 453.115 432.91 477.307 466.337 498.343 522.386 550.257 603.155 513.883 603.429 513.793 630.858 504.582 652.378 504.611L652.101 329.279C596.21 290.677 488.945 255.323 365.991 206.734 376.52 220.327 381.634 228.141 376.27 251.573 374.873 249.284 370.989 242.021 366.82 237.127 366.632 236.98 349.544 223.372 344.536 201.025 343.506 209.818 341.828 224.768 340.753 237.556L340.791 237.619C335.375 281.507 368.214 266.95 390.491 286.297 401.083 297.896 436.385 316.522 410.314 330.255 422.653 329.689 435.394 333.605 447.461 335.39 467.467 336.183 469.174 353.3 455.017 364.287 442.792 372.629 453.619 388.03 453.811 399.67 457.813 417.921 436.067 420.542 425.988 431.718 408.571 451.49 393.823 445.227 373.413 435.823 356.85 439.584 328.418 432.16 322.965 416.995 318.371 400.885 343.316 387.484 348.253 372.862 326.591 377.759 305.602 379.482 296.084 356.26 292.528 347.377 279.107 348.516 269.555 333.561 233.218 290.519 300.152 299.177 317.416 275.224 314.349 247.461 305.12 244.305 293.372 214.231 291.467 215.709 288.034 219.561 287.846 224.494 287.724 224.9 281.717 239.731 269.077 248.25 268.762 247.581 264.111 251.917 265.675 257.167 247.713 253.709 258.726 212.363 286.425 202.17 284.735 197.983 278.175 180.198 278.122 156.27 243.11 133.844 225.577 105.477 201.01 83.294L200.341 83.287V83.186C180.627 81.775 168.1 84.264 176.212 94.91 192.676 108.375 197.73 130.87 201.172 151.272 202.548 156.547 203.61 164.085 200.208 167.511 195.448 173.547 182.804 172.562 176.144 168.597 154.29 158.584 137.24 200.977 114.218 176.345 93.736 162.715 69.778 161.746 76.181 130.275 76.54 128.416 77.288 124.542 76.156 123.242 67.283 112.42 67.931 99.278 67.686 86.761 57.758 84.374 27.714 76.495 .037 62.639 1.439 254.351-.349 446.352 .08 637.748 .084 639.75 1.466 641.48 3.415 641.941 30.771 648.42 89.991 667.243 137.69 715.651 135.365 707.188 133.13 698.375 131.032 689.396 114.189 670.053 94.395 663.373 107.855 631.482 115.962 642.916 127.368 661.748 135.941 673.102 139.262 657.665 137.309 628.61 119.766 624.757 97.607 624.556 81.128 606.425 65.758 592.336 61.487 588.771 55.771 582.917 56.691 578.097 58.794 561.022 84.623 569.336 89.097 554.092 91.605 547.726 93.678 541.188 96.978 535.098 103.948 517.757 123.7 526.857 138.489 522.747 158.17 517.154 172.359 523.269 180.657 540.919 181.478 542.651 183.184 546.255 184.911 546.711 209.338 554.928 234.767 590.552 197.136 602.848 139.901 621.549 135.941 673.102 162.527 745.404 168.885 762.693 181.061 779.88 187.893 815.074 203.328 813.637 222.205 833.954 223.209 859.195 216.45 864.103 217.533 850.859 208.637 851.088 207.813 850.575 198.503 844.818 191.034 836.54 194.196 865.194 193.739 896.945 189.671 930.98 195.832 936.618 273.172 1008.533 323.89 1107.505 324.433 1108.564 325.508 1109.239 326.699 1109.245 389.821 1109.573 512.327 1103.036 641.147 1057.126 648.94 1054.349 652.273 1049.758 652.293 1041.777 652.632 876.656 652.373 711.507 652.437 546.394 651.4 547.894 650.756 548.685 650.632 548.819M387.289-107.191 411.81-113.199C401.413-106.983 376.176-101.751 388.064-85.718 411.245-60.58 445.505-73.647 462.375-97.787 444.481-91.305 425.35-87.964 407.547-81.115L406.746-82.945C419.773-89.295 446.589-99.567 460.583-106.162 452.906-107.468 433.945-102.701 430.025-101.448 433.786-109.059 450.28-109.566 459.544-112.4 448.871-114.123 430.612-114.599 429.174-119.704 440.765-117.97 457.986-117.408 460.141-119.932 424.196-137.052 377.471-169.808 387.289-107.191M426.943-149.809C424.974-149.809 419.614-150.123 411.809-152.99 411.54-152.574 411.601-152.061 411.865-151.588 422.835-145.997 436.365-142.141 446.772-134.994 454.304-130.519 464.511-121.613 470.274-128.354 460.061-143.208 463.12-171.985 446.07-174.708 436.676-178.502 418.99-166.37 415.317-158.886 419.614-154.556 426.04-152.505 431.404-149.809ZM456.065-77.958C446.963-73.528 437.467-68.962 428.452-64.52 419.255-60.194 430.647-52.768 426.732-46.251 427.677-42.661 431.57-35.618 438.031-41.433 452.86-52.872 465.098-66.239 474.877-82.369 468.185-85.837 463.758-82.706 456.065-77.958M536.511-94.283C535.502-91.565 516.698-78.758 509.33-76.151 509.87-76.289 532.404-74.713 536.511-94.283M584.736-119.372C593.565-102.585 594.912-87.732 594.912-87.732 599.903-113.614 584.736-119.372 584.736-119.372M200.235 15.094C218.854 24.05 231.438 6.072 231.885 5.749 225.208 9.703 203.094 16.009 200.235 15.094M291.201-48.109C282.032-44.051 272.354-39.673 263.142-35.546 254.602-32.697 249.199-31.25 247.962-24.112 268.283-22.393 291.989-20.596 310.235-29.76 310.003-39.979 303.747-37.34 300.437-44.139 298.211-47.655 296.451-50.431 291.201-48.109M236.292-60.026C234.958-57.876 233.666-55.792 232.662-54.093 240.79-59.404 251.481-71.59 259.934-69.721 256.275-67.329 241.192-56.489 237.16-49.502 251.205-55.996 276.274-69.967 289.528-75.888L290.418-74.099C273.812-64.877 259.455-52.623 243.037-43.045 271.747-40.835 305.275-57.822 298.728-91.615 293.041-110.339 273.134-94.9 261.475-90.664L281.508-105.462C234.431-153.312 233.736-90.599 226.135-58.366 229.547-58.365 239.656-71.624 245.427-81.525 247.293-76.011 244.318-73.891 236.292-60.026M220.238-102.621C221.295-106.922 222.468-111.707 221.755-116.113 213.839-117.963 192.491-112.319 189.745-102.685 181.318-88.664 207.629-71.933 212.903-55.938 222.007-55.758 221.127-69.24 222.036-77.667 222.561-89.878 227.724-102.519 229.884-114.227 229.647-114.731 229.218-115.102 228.693-115.151 224.938-104.487 223.348-103.637 219.349-98.532ZM15.038-8.815C34.841-3.873 57.575-11.275 76.92-17.605 73.84-26.357 60.267-24.161 51.495-26.674 42.329-26.402 24.05-37.771 20.955-24.946 20.029-22.096 18.978-18.869 15.763-17.524L15.376-18.445 15.762-17.523C14.961-17.172 14.31-12.392 15.038-8.815M47.159-79.053C34.921-80.364 11.565-91.055 10.667-71.414 12.743-37.252 49.578-28.297 76.938-37.111 58.59-42.621 41.572-51.198 23.132-56.318L23.579-58.264C37.95-55.568 65.724-47.816 80.984-44.761 75.458-50.514 57.871-57.677 53.822-59.106 61.59-62.879 75.004-53.531 84.2-50.265 76.305-58.279 62.528-69.842 64.944-73.946 72.084-66.573 85.594-55.297 89.485-55.882 77.438-76.897 70.67-106.115 54.49-111.76 41.081-113.868 29.219-101.285 23.901-88.824ZM83.077-102.145C83.794-100.828 85.29-97.796 85.978-96.434 80.799-100.46 79.069-100.891 72.711-110.412 72.219-110.249 71.898-109.794 71.795-109.255 76.843-98.378 85.011-87.353 88.613-75.585 91.624-67.606 94.104-54.484 102.869-56.546 104.262-73.721 125.305-95.401 113.655-107.301 108.603-115.965 86.54-116.626 79.21-112.957 79.581-109.289 81.27-105.399 83.077-102.145M133.111 9.426C130.562 10.964 107.517 9.951 100.044 7.657 100.554 7.869 117.289 22.417 133.111 9.426M73.574 100.237C73.957 105.236 76.161 114.376 77.635 114.878 83.613 113.587 88.762 109.345 93.9 106.241 90.325 111.83 90.144 113.488 81.151 120.777 81.431 121.205 81.922 121.402 82.503 121.422 93.11 115.185 103.524 105.926 115.15 101 122.92 97.05 136.11 93.224 132.991 85.053 127.575 83.695 116.88 84.558 111.454 81.858 88.761 70.959 71.218 77.529 73.574 100.237M148.059 104.138C143.059 109.618 137.57 127.999 136.75 131.813 131.878 124.988 139.81 110.907 141.946 101.835 134.921 109.831 125.133 124.8 119.958 123.308 128.255 113.658 136.781 99.958 135.411 97.627 124.177 106.481 84.609 122.521 82.108 138.482 82.196 151.903 96.728 160.839 109.986 164.222L116.931 141.209C117.112 153.895 109.38 176.204 129.691 174.473 163.82 168.051 169.845 133.759 156.434 106.95 153.168 125.165 146.512 142.47 143.64 160.72L141.653 160.506C142.539 146.503 146.909 119.046 148.059 104.138M170.723 127.605C168.83 166.965 164.716 150.506 184.737 162.514 187.738 163.391 196.833 164.464 194.869 155.743 192.069 137.497 186.131 120.586 176.682 104.507 168.408 108.422 171.774 118.851 170.723 127.605M281.364 210.025C267.965 219.902 262.416 243.848 262.416 243.848 275.805 236.027 281.364 210.025 281.364 210.025M319.036 112.856C284.175 74.591 233.08 83.72 223.688 85.804 227.898 90.891 245.926 111.437 282.292 137.238 293.005 130.029 314.251 116.011 319.036 112.856M294.455 345.669C294.943 345.887 295.497 345.791 295.992 345.49 300.957 334.565 303.968 321.27 310.559 310.863 314.62 303.374 323.107 292.834 315.612 288 301.494 298.598 270.546 298.363 269.186 314.682 265.899 324.152 280.523 340.261 288.105 342.78 292.193 338.485 293.891 332.203 296.252 326.887 296.642 333.292 297.464 334.823 294.455 345.669M324.947 257.531C338.278 243.493 331.4 224.52 338.544 193.157 320.432 183.667 303.546 173.652 288.311 163.365 291.125 212.071 310.119 212.554 321.503 254.652 322.041 255.609 323.464 257.581 324.947 257.531M340.84 318.801C337.702 312.593 335.768 304.283 332.939 297.723 332.006 308.447 332.818 324.764 327.813 326.533 328.754 315.269 328.001 298.695 325.118 296.981 312.598 328.055 277.504 380.597 344.07 365.534L335.988 342.785C340.816 349.069 344.833 358.435 350.092 364.034 351.176 350.14 345.731 332.586 340.84 318.801M406.666 350.585C416.554 354.663 426.52 359.765 436.26 364.06 445.549 368.391 444.737 355.285 452.499 354.287 454.757 351.463 458.781 344.432 449.724 342.818 431.097 338.418 412.5 337.27 393.318 339.582 394.856 346.408 397.829 347.459 406.666 350.585M358.11 317.329C360.158 327.013 371.976 335.447 378.443 336.381 379.634 316.455 362.431 302.482 347.987 293.14 351.82 300.978 354.999 309.24 358.083 317.259L357.176 317.689ZM368.006 296.201C374.528 303.223 381.886 323.453 389.953 326.119 394.559 325.903 399.338 320.933 404.37 323.14 407.4 322.28 415.456 318.097 408.62 312.085 395.402 298.617 380.388 288.003 363.07 280.006 360.468 286.559 362.358 288.977 368.006 296.201M430.55 369.641C416.833 361.572 402.936 357.899 388.161 358.457 404.42 368.193 418.686 380.644 435.16 390.042L434.25 391.819C421.061 385.747 396.18 371.503 382.207 364.849 386.187 371.91 401.076 382.863 404.731 385.32 396.289 387.116 385.706 374.793 377.661 369.403 383.135 378.994 393.496 393.652 390.076 396.956 384.433 386.989 374.494 373.629 371.074 373.589 377.087 396.515 376.227 426.972 390.088 436.045 402.635 441.489 417.442 432.024 425.868 421.301L406.017 406.28C413.367 409.004 422.071 414.467 429.305 416.697 454.405 418.454 442.847 377.671 430.55 369.641M365.965 424.212C365.4 420.786 364.428 417.069 363.798 413.678 367.733 418.82 369.315 419.698 372.938 430.399 373.464 430.357 373.9 429.988 374.141 429.488 372.461 420.926 369.059 408.622 367.304 399.983 366.194 392.629 367.237 379.463 363.197 373.539 361.163 373.69 358.913 373.629 356.358 373.352 351.432 388.047 325.412 404.754 334.145 417.499 337.841 427.467 355.81 432.668 365.991 431.281 366.329 428.964 366.319 426.7 365.965 424.212M377.816 108.868 377.484 108.262C347.795 112.274 310.456 138.539 297.942 147.898 311.88 157.011 326.93 165.892 342.712 174.314 345.181 163.952 363.779 128.682 377.816 108.868M438.786 186.077C438.477 185.8 407.936 158.173 384.353 120.061 377.664 127.729 359.613 150.341 351.761 179.046 390.53 198.965 433.963 216.415 480.922 230.938 473.91 222.679 451.746 196.94 438.786 186.077M353.701 202.461C355.365 218.576 373.62 235.768 373.62 235.768 373.793 220.74 353.701 202.461 353.701 202.461M237.697 393.002C240.751 394.932 244.347 396.799 247.419 398.66 240.625 397.992 238.377 398.321 228.192 393.805 227.879 394.195 227.886 394.719 228.103 395.215 238.505 401.711 251.621 406.701 261.333 414.704 268.417 419.805 277.789 429.536 284.138 423.318 275.389 407.789 280.998 379.167 264.324 375.092 255.289 370.518 236.553 381.114 232.222 388.248 233.786 390.05 235.54 391.572 237.697 393.002M236.561 483.349C231.255 485.418 232.117 488.365 233.31 492.446 234.151 495.326 235.104 498.591 233.156 501.409 232.744 501.87 235.039 507.57 238.021 509.164 257.124 502.183 271.792 485.219 284.455 469.515 278.124 465.492 273.398 468.243 265.311 472.305 255.899 475.918 245.889 479.721 236.561 483.349M199.515 437.346 224.561 433.436C213.649 438.734 187.941 441.775 198.288 458.805 219.162 485.914 254.52 475.566 273.423 453.1 254.896 458.053 235.696 459.722 217.289 465.043L216.647 463.152C230.192 457.934 257.857 449.978 272.421 444.599 264.853 442.647 245.568 445.787 241.532 446.698 245.987 439.441 262.454 440.336 271.961 438.301 261.544 435.678 243.325 433.661 242.455 428.457 255.177 431.504 271.474 432.976 273.252 430.838 245.884 415.791 194.837 370.767 199.515 437.346M330.944 478.226C330.944 478.226 351.922 477.682 359.357 466.174 366.089 456.555 335.186 474.126 330.944 478.226M318.076 527.483C318.076 527.483 333.964 540.602 347.555 536.89 359.289 534.116 324.087 527.187 318.076 527.483M248.032 620.531C246.784 622.552 243.776 626.609 237.537 631.389 237.799 631.727 238.037 631.969 238.882 632.033 249.476 625.802 259.905 616.532 271.527 611.606 279.302 607.658 292.489 603.836 289.381 595.658 272.096 596.651 245.7 579.497 235.318 592.126 227.059 598.01 229.219 618.972 234.022 625.489 239.972 624.198 245.155 619.943 250.297 616.868ZM304.447 614.744C299.443 620.216 293.948 638.604 293.129 642.418 288.262 635.593 296.208 621.503 298.332 612.441 291.357 620.389 281.491 635.438 276.346 633.92 284.645 624.271 293.167 610.568 291.793 608.238 280.678 617.036 240.959 633.129 238.49 649.095 238.585 662.513 253.121 671.453 266.376 674.834L273.316 651.759C273.502 664.457 265.756 686.796 286.079 685.085 320.214 678.642 326.225 644.366 312.824 617.561 309.558 635.773 302.903 653.082 300.031 671.322L298.044 671.108C298.927 657.122 303.29 629.654 304.447 614.744M326.95 640.609C325.133 677.371 321.529 661.209 341.117 673.116 344.116 673.983 353.222 675.092 351.248 666.354 348.454 648.107 342.515 631.186 333.062 615.11 324.291 619.245 328.425 631.682 326.95 640.609M420.844 526.414C421.172 514.831 404.831 545.504 403.532 551.133 403.532 551.133 420.96 539.948 420.844 526.414M625.459 553.363C600.452 542.473 590.94 555.187 590.94 555.187 610.08 551.032 625.459 553.363 625.459 553.363M521.947 694.521C521.351 696.795 519.675 701.499 515.091 707.777 515.489 708.123 516.034 708.191 516.599 708.053 524.908 699.195 532.162 687.473 541.835 679.61 548.136 673.724 559.674 666.39 554.214 659.455 537.979 665.113 507.638 655.786 501.336 670.74 495.124 678.684 503.572 698.313 510.003 703.094 515.304 700.262 518.992 694.804 523.004 690.474ZM584.832 700.169C585.143 709.726 585.445 719.593 586.842 729.097L584.88 729.479C581.586 715.791 577.642 688.244 574.329 673.641 571.112 680.512 571.346 699.259 571.672 703.293 565.001 698.11 568.432 682.398 567.791 673.085 563.418 682.694 558.44 699.663 553.036 699.729 557.578 689.571 562.407 673.416 560.258 670.853 538.902 695.857 487.035 735.785 555.615 741.621L555.462 717.653C559.356 729.826 558.664 753.283 577.569 746.095 608.761 730.354 603.641 695.814 583.196 674.103 584.267 682.805 584.553 691.616 584.832 700.169M601.189 683.118C604.043 693.074 606.114 703.695 608.704 713.673L608.705 713.674C610.006 719.133 613.651 718.603 617.649 718.157 625.022 716.541 627.372 722.716 635.496 716.737 632.011 697.238 615.621 680.42 601.87 666.232 597.215 671.688 598.21 674.549 601.189 683.118M604.703 606.074C607.213 607.669 615.649 628.243 616.505 635.724 616.495 635.18 623.535 614.616 604.703 606.074M60.274 709.194C73.781 712.109 86.687 704.878 89.07 700.395 76.547 705.545 60.274 709.194 60.274 709.194M63.765 796.318C77.267 799.233 90.165 792.005 92.551 787.519 80.029 792.67 63.765 796.318 63.765 796.318M211.738 845.353C209.981 831.655 198.666 822.936 193.619 822.19 202.803 831.828 211.738 845.353 211.738 845.353M182.272 551.515C181.785 551.296 181.23 551.392 180.736 551.693 175.757 562.609 172.726 575.903 166.124 586.302 162.053 593.783 153.55 604.317 161.041 609.158 175.168 598.577 206.12 598.849 207.5 582.531 210.802 573.067 196.197 556.938 188.618 554.411 184.523 558.704 182.821 564.981 180.451 570.296 180.07 563.89 179.251 562.354 182.272 551.515M148.887 570.617C147.943 581.875 148.682 598.442 151.548 600.166 163.948 569.235 199.485 516.652 132.683 531.592L140.737 554.347C133.069 544.101 126.011 521.416 110.356 533.975 85.61 558.758 102.751 589.882 128.673 603.979 120.544 587.316 115.654 569.42 107.162 552.929L108.894 551.932C116.517 563.917 129.326 588.892 137.272 601.756 138.037 594.14 131.662 576.569 130.027 572.802 138.057 575.679 139.977 591.642 143.66 600.323 144.65 589.938 143.797 572.289 148.887 570.617M91.483 574.159C88.465 569.455 85.386 570.837 81.49 572.585 78.668 573.87 75.411 575.255 72.328 573.911 69.269 574.783 61.248 578.946 68.064 584.963 81.264 598.444 96.264 609.079 113.573 617.095 116.723 610.452 112.983 606.362 107.526 599.435 102.259 591.121 96.761 582.39 91.483 574.159M130.639 675.057C127.731 674.302 112.966 657.316 109.694 650.481 109.88 650.987 109.959 672.632 130.639 675.057M-.031 706.318C-.234 722.132 .151 740.432 .238 756.791 .249 758.963 1.908 760.767 4.07 760.97 32.518 763.641 108.188 772.118 165.919 790.907 159.25 773.807 140.186 735.056 95.443 702.39 85.995 716.504 66.708 720.35 42.909 715.073 40.109 707.615 54.352 711.669 55.692 704.468 56.667 703.737 67.709 695.483 79.902 691.97 57.858 678.437 32.788 668.043 5.265 661.019 2.589 660.336-.025 662.321-.036 665.082-.092 678.545 .096 693.515-.031 706.318M.651 979.63C.728 992.475 .824 1005.319 .882 1018.136 .621 1046.462 .621 1046.462 28.439 1056.34 34.633 1059.453 211.512 1110.554 295.953 1108.858 298.331 1108.81 299.811 1106.258 298.692 1104.159 280.11 1069.313 224.323 976.158 133.714 908.461 147.191 892.072 135.836 886.871 170.146 911.925 171.186 899.358 176.875 826.05 170.175 802.838 164.464 800.905 139.776 792.864 101.395 784.742 97.29 799.786 70.807 809.335 46.392 802.198 43.795 794.275 56.476 799.751 59.173 791.592 60.002 790.975 68.741 784.437 79.425 780.391 54.977 775.88 29.995 772.361 5.032 769.912 2.498 769.663 .306 771.657 .309 774.203 .353 816.717-.034 861.122 .229 900.678 .314 926.993 .482 953.312 .651 979.63M690.275 1069.914C683.252 1072.622 649.937 1085.27 643.355 1087.671 423.305 1168.46 185.767 1160.662-36.471 1073.653-35.464 548.319-36.51 18.068-36.187-506.999 183.14-611.853 461.775-604.132 690.15-518.187 690.196-264.088 690.181 16.432 690.179 276.516H690.217C690.181 535.308 690.326 815.387 690.275 1069.914" fill="#030404"/>
</g>
</g>
</svg>
