<svg xmlns="http://www.w3.org/2000/svg" xmlns:xlink="http://www.w3.org/1999/xlink" xmlns:inkscape="http://www.inkscape.org/namespaces/inkscape" version="1.1" width="1984.25" height="1984.25" viewBox="0 0 1984.25 1984.25">
<defs>
<clipPath id="clip_1">
<path transform="matrix(1,0,0,-1,0,1984.25)" d="M0 1984.252H1984.252V0H0Z"/>
</clipPath>
</defs>
<g inkscape:groupmode="layer" inkscape:label="Layer 1">
<g clip-path="url(#clip_1)">
<path transform="matrix(1,0,0,-1,603.6689,496.7827)" d="M0 0C3.873-11.036 1.535-33.948 13.215-30.388 31.001-24.967 31.568-1.157 33.275 16.805 34.006 24.493 33.255 38.819 22.945 36.324 6.622 32.372 1.106 16.616 0 0M771.671-6.511C771.712 6.366 771.928 14.927 766.949 22.59 762.145 29.986 755.964 38.708 747.261 36.596 736.604 34.011 739.476 22.244 740.67 14.557 742.694 1.524 746.158-11.478 750.72-23.868 754.606-34.425 761.777-33.773 766.459-24.171 769.707-17.51 770.756-9.779 771.671-6.511M1205.882-616.348C1189.578-638.69 1169.435-651.153 1161.071-667.615 1152.008-685.455 1176.206-702.293 1182.921-726.381 1198.436-690.119 1204.131-657.743 1205.882-616.348M1075.33-385.537C1048.186-394.536 1027.639-408.861 1020.309-438.614 1015.72-457.245 1024.187-459.186 1038.355-455.447 1064.012-448.676 1080.802-417.266 1075.33-385.537M-437.439-609.653C-432.432-653.67-425.883-688.811-411.719-726.198-401.749-708.543-394.822-694.903-386.542-682.137-381.677-674.635-379.9-669.42-387.224-662.224-402.301-647.409-416.504-631.704-437.439-609.653M-298.376-385.651C-302.55-384.754-306.078-386.41-306.478-390.853-307.997-407.723-303-423.256-293.671-436.895-284.042-450.972-270.274-459.409-252.643-460.041-247.169-460.237-244.008-457.325-242.612-451.938-237.478-432.121-276.918-384.907-298.376-385.651M250.705 321.911C227.39 320.27 204.384 325.778 204.013 291.475 191.324 304.88 176.755 307.493 170.662 290.62 164.152 272.594 173.868 255.779 191.634 248.289 204.427 242.896 218.651 242.81 222.837 262.127 227.327 282.845 239.833 300.306 250.705 321.911M519.635 325.853C530.275 300.86 546.228 284.142 550.441 262.125 552.684 250.407 560.943 245.316 571.221 246.392 588.449 248.196 598.144 260.072 603.173 275.894 606.483 286.306 603.191 294.633 594.515 301.219 581.51 311.092 574.296 300.329 565.633 292.337 570.348 331.253 540.6 317.069 519.635 325.853M386.048 106.784C370.07 46.918 362.645-12.859 386.508-80.353 409.444-12.621 407.665 47.087 386.048 106.784M737.56 188.251C737.56 202.524 738.126 215.706 737.421 228.82 736.461 246.69 727.05 257.051 708.64 259.14 691.202 261.118 682.076 252.751 675.955 237.26 661.312 200.2 678.298 142.081 711.588 120.692 731.567 107.855 750.521 104.194 772.645 120.768 812.315 150.488 864.49 148.503 905.219 119.855 958.548 82.344 976.207 28.434 977.161-33.595 977.274-40.952 971.1-59.387 988.564-49.942 1016.834-34.654 1045.634-30.093 1082.328-36.474 996.001 89.167 891.381 183.532 756.496 248.947 754.368 224.442 762.38 201.019 737.56 188.251M35.886 186.366C20.106 197.972 17.126 211.549 18.025 226.541 19.328 248.26 10.175 248.292-5.643 239.096-72.593 200.171-137.338 157.911-192.719 103.513-233.654 63.305-271.823 20.224-304.146-32.327-270.009-34.25-239.467-36.153-213.438-56.055-202.185-64.66-201.282-53.487-201.645-45.552-202.709-22.237-200.321 .678-195.537 23.499-173.787 127.247-85.927 166.3 7.417 113.159 16.802 107.816 25.941 107.947 35.307 109.71 85.261 119.118 120.559 196.226 95.463 240.497 87.393 254.734 75.546 261.179 59.216 257.774 43.627 254.523 36.523 243.896 35.984 228.735 35.513 215.488 35.886 202.21 35.886 186.366M430.226-742.787C439.513-731.793 446.466-723.969 452.976-715.793 529.7-619.43 621.013-549.108 751.468-548.237 757.516-548.196 760.656-550.851 760.205-539.089 759.299-515.478 737.546-489.601 712.812-488.827 687.931-488.049 662.771-483.207 649.467-460.683 634.125-434.712 614.678-434.794 590.429-442.316 573.626-447.528 557.89-454.783 543.733-464.828 449.042-532.021 412.242-623.756 430.226-742.787M341.925-743.123C350.757-668.738 351.676-596.707 301.592-532.581 265.424-486.272 225.24-448.744 165.302-437.853 150.792-435.217 139.649-436.345 131.773-451.912 118.723-477.706 95.461-489.683 67.32-486.992 39.791-484.36 28.429-499.943 16.565-520.476 3.42-543.229 11.423-549.34 33.652-549.47 90.351-549.8 141.036-569.288 188.967-597.953 250.401-634.693 298.333-685.262 341.925-743.123M712.901-375.477C700.121-377.072 688.544-368.939 675.795-372.378 665.796-375.075 657.544-378.784 655.582-390.069 653.435-402.424 663.497-404.134 671.287-406.944 695.437-415.655 716.468-429.386 732.732-448.839 745.586-464.213 752.4-457.587 761.054-445.466 798.567-392.921 765.234-276.356 705.516-252.125 634.594-223.349 571.448-240.708 520.595-299.028 483.032-342.105 459.496-392.678 437.917-444.059 428.235-467.11 414.734-491.83 421.699-520.388 425.876-518.811 428.124-518.641 429.237-517.429 435.753-510.345 441.971-502.989 448.346-495.775 490.338-448.259 540.215-413.354 604.05-403.185 619.972-400.649 627.792-395.562 635.126-380.32 653.365-342.415 691.02-340.827 712.901-375.477M350.119-528.99C361.794-492.993 345.25-468.013 335.661-442.717 312.302-381.095 284.346-321.614 232.948-277.222 178.42-230.127 110.776-224.749 50.289-261.98 17.218-282.336-11.178-368.971-.107-417.366 2.013-426.635 5.935-435.662 10.163-444.242 17.877-459.899 26.878-464.131 39.878-447.95 56.647-427.079 79.115-414.076 104.657-406.239 111.75-404.062 121.766-403.672 121.057-393.368 120.427-384.21 113.379-378.6 104.708-375.028 90.544-369.194 75.4-371.859 58.841-371.227 84.63-345.83 115.656-344.69 130.247-373.314 143.858-400.015 164.841-402.767 187.666-408.515 197.893-411.091 207.815-415.053 217.663-418.925 272.156-440.354 311.839-480.347 350.119-528.99M569.912-105.724C567.368-131.13 556.321-147.185 536.477-154.918 517.719-162.228 504.51-148.756 495.326-135.295 477.676-109.425 470.095-77.928 449.088-53.613 472.189-66.576 471.883-66.496 478.081-42.902 480.758-32.712 484.733-22.828 488.596-12.992 493.283-1.056 489.307 4.61 476.929 7.387 455.074 12.289 433.538 .817 431.394-20.465 425.029-83.641 410.221-145.811 413.429-210.198 416.177-265.34 413.998-320.728 413.998-376.007 440.32-345.656 463.567-315.024 481.1-281.417 492.431-259.697 496.479-233.649 489.418-208.232 485.943-195.724 476.435-189.655 464.144-187.336 456.437-185.882 451.143-189.262 447.253-195.587 440.734-206.187 443.876-215.816 450.25-225.083 453.367-229.616 466.322-231.203 456.82-239.409 449.049-246.122 442.595-238.219 438.05-232.025 425.389-214.769 429.116-185.638 445.044-174.381 461.551-162.714 482.229-169.595 496.196-191.029 507.681-208.654 507.196-229.102 509.243-251.438 538.377-236.777 560.749-211.788 592.378-209.786 625.792-207.671 634.397-181.073 644.205-155.089 655.326-125.625 657.757-102.123 652.205-71.089 642.909-19.128 599.537 21.021 549.205 15.678 533.501 14.012 519.96 10.253 527.796-11.455 538.222-40.34 520.676-58.929 498.857-78.337 488.521-87.532 489.675-95.864 493.763-106.488 508.39-144.499 534.005-145.361 569.912-105.724M199.292-101.545C206.904-110.977 211.553-117.149 216.629-122.948 232.468-141.04 249.282-141.505 266.669-125.162 286.218-106.786 287.562-89.042 269.59-72.401 251.389-55.547 243.57-34.194 251.768-12.08 262.602 17.145 243.906 18.915 225.384 21.842 213.803 23.672 202.424 19.909 191.458 15.753 96.755-20.137 99.524-136.326 144.095-197.075 146.279-200.052 149.694-203.624 152.946-204.096 194.438-210.121 230.356-228.609 266.87-261.537 266.027-230.868 264.259-208.172 277.45-189.029 288.018-173.693 301.856-161.675 321.146-172.921 339.587-183.673 348.177-200.387 338.222-222.083 333.131-233.18 328.684-246.328 311.618-236.365 312.496-229.029 319.067-229.677 321.72-226.435 331.684-214.255 333.016-201.285 319.576-191.264 305.586-180.832 293.973-187.893 285.216-200.181 279.352-208.41 279.86-218.247 279.896-228.034 280.133-291.605 328.264-330.784 356.862-380.79 360.254-361.995 360.206-344.019 360.263-326.042 360.581-224.758 364.525-123.362 343.768-23.081 340.461-7.106 333.624 1.182 319.617 5.103 308.621 8.181 295.713 13.95 286.353 5.234 274.337-5.956 287.021-17.636 290.042-28.965 291.534-34.562 294.566-39.986 294.904-45.608 296.206-67.292 306.757-63.899 321.516-51.816 305.372-83.314 291.709-111.798 274.265-137.743 257.24-163.064 238.16-162.756 216.583-140.95 206.881-131.144 200.202-120.005 199.292-101.545M481.27 203.264C483.964 186.229 477.211 164.254 497.64 162.364 517.779 160.501 524.687 180.222 530.229 197.184 539.467 225.45 535.041 252.779 522.607 278.522 502.346 320.476 455.222 325.224 426.424 288.606 395.948 249.855 397.775 206.15 409.919 161.907 417.586 133.978 425.933 106.261 429.477 77.455 431.476 61.203 429.846 54.983 436.205 40.911 445.313 20.753 463.25 24.843 478.351 31.071 502.205 40.911 507.545 40.816 522.205 42.911 550.205 46.911 559.04 46.641 578.131 39.33 600.901 30.61 621.308 17.705 638.638 .659 647.958-8.507 653.363-11.353 657.709 4.225 666.597 36.091 688.686 54.429 720.333 61.366 730.714 63.642 734.653 70.096 736.659 79.07 739.066 89.844 721.828 87.32 715.54 91.065 710.57 94.026 705.32 96.56 700.541 99.794 651.98 132.656 632.205 202.911 662.205 254.911 682.205 286.911 676.617 284.741 655.854 291.249 649.41 293.268 643.116 295.761 636.697 297.867 624.317 301.927 617.326 301.008 617.254 284.35 617.124 254.267 600.386 235.081 570.786 230.916 555.846 228.812 554.971 220.748 553.212 209.738 549.34 185.502 541.36 162.779 522.285 145.966 505.272 130.971 483.302 133.529 468.909 151.333 454.708 168.898 457.946 185.979 481.27 203.264M289.323 204.732C315.52 181.874 319.935 163.076 305.749 148.027 289.181 130.451 263.142 133.249 245.041 154.294 232.001 169.455 225.397 187.564 221.924 206.659 219.258 221.313 215.146 230.172 197.354 232.375 174.186 235.245 158.586 251.316 157.13 275.2 155.708 298.538 147.404 303.788 127.113 293.059 122.105 290.411 116.07 289.629 110.449 288.221 90.373 283.191 88.478 283.225 105.316 258.148 114.205 244.911 121.569 229.842 121.629 212.988 121.806 164.012 97.35 123.154 54.299 96.985 47.179 92.657 33.498 93.044 35.473 78.756 37.414 64.717 47.946 61.123 59.727 57.778 81.156 51.695 100.51 38.835 107.576 18.665 119.056-14.108 129.864-2.486 148.069 12.53 170.916 31.374 195.299 38.812 228.205 40.911 268.107 43.456 286.205 36.911 312.205 26.911 314.729 25.94 325.604 24.067 328.205 22.911 343.646 16.044 342.188 27.091 342.205 40.911 342.257 84.681 350.216 120.638 363.656 162.305 373.917 194.117 376.367 226.705 366.429 259.307 354.634 298 319.477 321.932 287.901 310.237 260.348 300.032 246.667 276.921 241.641 248.497 236.412 218.927 236.719 190.19 259.303 167.171 271.76 154.474 288.353 160.69 290.852 178.315 291.888 185.616 290.093 193.317 289.323 204.732M705.008-39.453C743.776-55.138 743.732-42.826 733.129-18.499 727.525-5.645 727.167 9.589 725.051 23.838 722.656 39.962 715.115 45.967 703.081 32.602 680.629 7.667 663.519-19.771 673.037-56.096 680.487-84.526 679.862-113.238 675.874-142.277 672.889-164.008 650.181-187.328 661.456-203.561 671.955-218.676 701.172-219.82 720.669-229.954 743.072-241.598 764.526-246.357 789.971-240.49 854.296-225.656 896.372-182.748 928.396-129.881 966.517-66.949 966.526-.699 926.765 61.79 886.876 124.479 802.708 133.494 761.437 82.388 753.178 72.161 749.082 64.127 762.053 53.884 791.453 30.667 795.778 1.069 779.261-31.321 769.153-51.14 778.786-60.785 795.428-66.125 808.298-70.254 822.172-71.262 836.986-73.905 811.464-97.064 745.152-81.702 705.008-39.453M-63.997-73.423C-53.864-72.639-46.561-72.528-39.405-71.443-5.972-66.375 .704-55.121-9.017-23.711-17.111 2.441-19.886 31.979 4.662 47.916 34.788 67.475 17.673 79.999 3.588 93.61-12.068 108.741-31.336 116.557-54.154 116.162-107.456 115.241-158.459 74.7-174.242 19.343-202.706-80.499-141.382-200.223-43.044-234.348-20.615-242.131 3.877-251.752 27.435-241.007 53.874-228.947 80.073-216.942 108.51-210.549 119.585-208.059 122.694-203.202 117.171-192.215 93.553-145.237 91.6-96.303 103.559-45.668 109.607-20.06 89.764 24.457 69.245 35.84 57.786 42.196 46.459 46.212 47.1 25.652 47.684 6.894 41.074-10.327 36.097-27.928 34.44-33.785 28.659-40.959 39.442-44.382 45.279-46.235 55.29-44.55 51.464-55.344 48.749-63.006 41.048-68.018 33.022-66.737 17.888-64.322 7.944-72.083-3.447-79.906-23.262-93.516-43.62-96.403-63.997-73.423M968.008-382.796C940.503-351.63 955.379-302.918 978.505-285.609 1004.843-265.896 1042.862-269.774 1070.268-296.858 1077.044-303.554 1085.217-310.925 1087.736-319.462 1096.874-350.422 1118.252-364.759 1147.878-373.438 1175.539-381.543 1193.323-405.279 1217.303-432.677 1206.842-327.584 1185.399-235.343 1140.545-145.176 1110.195-205.147 1074.308-227.41 1039.867-211.182 1014.784-199.363 1007.497-176.493 1018.981-145.635 1030.698-185.26 1049.66-200.209 1075.483-188.609 1096.847-179.012 1111.098-162.459 1114.856-138.547 1120.627-101.835 1101.99-69.515 1070.364-60.865 1029.662-49.732 977.927-73.913 964.325-110.663 937.438-183.302 888.335-235.162 816.944-264.754 799.74-271.885 800.831-278.514 811.756-288.379 855.593-327.96 889.876-376.31 931.535-417.884 946.06-432.379 961.813-444.726 980.962-452.369 990.242-456.074 997.324-456.273 1000.152-443.636 1008.603-405.876 1032.39-380.984 1067.732-366.622 1073.44-364.303 1077.939-361.971 1078.832-355.069 1080.811-339.771 1056.838-307.279 1036.967-299.684 1013.613-290.758 995.933-298.552 982.064-318.588 969.292-337.039 971.454-358.761 968.008-382.796M1040.845-565.589C1003.486-549.468 1017.25-498.488 981.847-484.83 947.229-471.476 920.352-449.33 895.721-423.084 893.08-420.27 890.084-417.778 887.55-414.877 867.235-391.623 847.548-367.79 826.482-345.239 816.719-334.786 807.979-321.696 790.062-316.996 792.794-331.163 795.6-342.281 796.995-353.574 801.541-390.356 806.655-429.735 778.435-457.944 759.584-476.788 763.567-490.599 776.205-509.089 786.542-524.213 778.147-548.874 802.292-555.105 825.796-561.171 848.231-569.83 868.246-583.914 876.147-589.473 883.507-590.924 891.746-583.825 905.864-571.662 911.963-541.364 902.167-528.024 887.356-507.857 874.384-520.871 860.899-534.231 859.896-514.221 864.997-500.972 882.295-498.231 898.537-495.656 909.944-505.693 917.096-519.305 928.332-540.695 925.178-562.241 915.506-583.381 903.108-610.477 910.374-633.135 936.695-649.486 1015.462-698.415 1146.272-666.398 1193.547-586.622 1238.154-511.346 1210.059-418.694 1134.272-389.689 1116.828-383.013 1107.227-381.786 1102.889-405.583 1095.509-446.075 1071.847-476.031 1030.706-488.046 1018.079-491.734 1016.568-496.992 1018.854-508.72 1022.739-528.647 1033.266-546.039 1040.845-565.589M-441.7-414.91C-439.198-415.968-436.696-417.026-434.194-418.084-422.18-407.299-410.911-395.5-397.951-386.002-383.937-375.732-368.119-367.099-350.514-365.657-333.882-364.294-328.248-355.289-323.87-340.824-315.091-311.819-297.443-289.405-267.993-278.53-239.131-267.872-209.91-278.25-192.367-304.726-174.979-330.969-175.727-352.265-195.826-374.766-195.826-366.879-195.351-360.11-195.909-353.428-198.146-326.626-207.633-304.109-236.095-296.317-259.324-289.958-284.334-306.295-298.492-333.192-307.756-350.792-307.407-363.356-287.27-372.694-263.744-383.604-246.441-402.025-235.082-425.037-218.097-459.446-213.871-461.124-182.58-438.416-162.973-424.187-146.308-406.782-130.539-388.422-102.268-355.503-76.336-320.221-42.628-292.536-23.606-276.913-24.895-270.526-47.536-260.725-112.464-232.619-158.241-184.802-184.406-118.85-201.592-75.529-243.956-51.058-290.098-58.3-317.625-62.62-339.6-88.247-342.642-119.577-345.595-149.99-328.187-182.962-303.98-190.95-273.728-200.932-258.317-182.042-245.972-154.816-239.703-177.602-242.016-194.716-257.819-206.113-275.042-218.534-294.158-216.819-312.508-206.75-331.643-196.25-346.437-181.754-355.613-161.581-357.845-156.672-360.474-149.896-367.293-149.986-374.887-150.085-374.45-157.548-376.47-162.663-382.139-177.018-388.3-191.185-393.761-205.617-419.378-273.325-434.308-343.324-441.7-414.91M-261.098-553.602C-256.1-540.368-250.666-527.276-246.239-513.853-242.549-502.667-238.71-490.918-255.678-486.071-296.334-474.458-317.642-444.869-326.504-405.808-331.768-382.606-342.993-381.999-361.982-389.807-445.265-424.053-469.038-543.406-405.677-611.666-346.865-675.023-246.401-692.229-168.163-652.342-138.375-637.156-129.022-609.686-142.073-579.192-151.509-557.144-155.009-534.263-140.81-512.709-133.346-501.381-121.708-495.172-108.193-500.609-95.689-505.638-86.916-514.627-90.843-535.658-101.159-521.369-111.171-512.163-124.34-520.963-136.31-528.963-135.281-542.471-133.953-555.178-132.925-565.009-129.262-573.673-123.406-581.742-117.318-590.129-109.834-593.703-101.246-587.365-77.402-569.773-50.246-560.363-21.965-553.392-15.505-551.799-12.49-547.398-10.901-541.419-6.163-523.592 .621-506.571 10.054-490.705 15.302-481.879 14.505-474.344 6.767-467.515-26.158-438.458-27.31-400.426-23.464-360.923-22.123-347.147-21.203-333.33-19.653-314.104-65.187-353.412-96.464-396.398-133.222-434.22-173.822-475.994-199.701-462.925-261.098-553.602M579.693-751.221C579.693-761.733 579.221-766.573 579.779-771.29 581.647-787.064 578.632-808.499 601.765-808.658 624.014-808.81 627.99-789.228 629.084-771.083 631.18-736.308 610.868-708.001 574.437-689.98 554.823-680.278 540.773-682.792 526.652-699.836 484.179-751.1 450.406-806.935 436.648-872.644 406.454-1016.847 411.975-1160.325 447.249-1303.142 452.025-1322.481 462.72-1324.596 478.947-1322.37 757.295-1284.174 968.413-1144.372 1111.833-903.243 1129.166-874.101 1147.243-844.308 1153.411-806.78 1126.205-821.089 1095.219-826.991 1072.205-805.089 1060.735-794.174 1059.264-771.211 1065.211-753.81 1072.157-778.326 1083.763-798.117 1111.505-798.929 1132.001-799.53 1151.088-792.405 1158.671-771.865 1168.344-745.66 1162.934-720.302 1145.024-698.644 1138.05-690.209 1129.788-686.603 1117.11-691.845 1069.716-711.444 1020.727-711.986 972.379-696.298 949.642-688.92 951.103-698.504 953.717-714.744 961.788-764.891 950.006-810.77 920.542-851.773 896.346-885.446 851.699-897.806 817.728-881.589 783.877-865.43 760.754-817.973 769.012-781.605 776.107-750.352 802.985-736.838 825.618-754.323 809.597-755.924 793.361-755.998 786.71-774.097 777.437-799.33 793.646-842.698 817.316-855.644 845.706-871.171 882.95-861.956 902.245-834.628 960.254-752.47 916.372-621.4 821.043-589.632 799.737-582.532 798.957-590.325 799-611.412 799.046-633.947 792.378-655.378 783.084-675.649 772.908-697.842 751.254-713.084 724.808-713.387 699.806-713.673 682.981-699.547 668.607-676.146 729.664-704.316 760.341-690.097 773.657-630.397 775.538-621.964 776.153-613.219 776.947-604.582 778.614-586.44 771.282-577.907 751.951-578.94 680.869-582.737 620.932-610.863 568.195-659.378 583.795-670.831 598.689-680.005 611.487-691.507 643.964-720.698 655.146-763.929 640.646-798.836 634.097-814.604 625.58-829.026 606.217-829.693 588.896-830.29 577.095-819.812 569.984-805.203 561.573-787.92 560.475-770.689 579.693-751.221M-291.801-758.22C-292.417-798.63-312.521-822.738-353.795-819.089-384.65-816.362-386.376-810.446-372.518-839.202-236.968-1120.474-13.426-1280.452 295.522-1323.001 315.17-1325.708 322.142-1319.258 326.967-1300.436 354.365-1193.569 360.947-1085.146 353.625-975.628 346.771-873.119 318.82-778.262 248.726-699.583 241.073-690.993 234.038-680.458 220.173-683.441 175.167-693.121 130.217-731.142 147.281-788.172 151.25-801.438 157.543-812.392 173.141-809.307 187.472-806.473 192.842-794.236 193.458-780.93 193.843-772.643 191.441-764.226 189.747-751.933 211.603-770.316 212.459-788.509 201.952-806.958 194.883-819.369 185.628-832.163 168.005-829.3 147.061-825.9 133.632-809.804 127.434-792.083 124.33-783.208 123.207-773.031 123.763-763.594 126.31-720.393 152.174-689.514 190.344-669.839 199.289-665.229 215.127-662.567 198.547-649.35 146.051-607.506 88.431-577.946 18.996-578.483 8.49-578.564 .478-580.32-2.841-592.453-9.547-616.966 7.225-668.07 27.908-685.417 53.921-707.234 75.348-690.354 99.572-674.639 69.267-723.8 32.508-725.304 3.117-681.652-11.308-660.228-21.2-636.193-21.795-611.089-22.486-581.919-31.472-581.794-53.103-591.323-142.126-630.538-180.619-740.705-135.02-827.707-120.034-856.298-96.09-868.397-65.678-862.743-35.667-857.163-16.495-835.289-11.688-802.601-7.042-771.005-23.9-756.176-59.722-750.973-20.914-741.948 .717-758.587 4.536-792.306 8.848-830.369-14.955-871.024-48.649-883.147-85.709-896.481-124.738-881.378-150.847-842.75-176.333-805.042-183.091-762.656-179.339-718.25-177.705-698.917-178.958-689.501-203.753-697.183-247.157-710.63-292.075-710.515-334.509-692.577-358.608-682.39-370.704-691.918-380.392-711.465-386.932-724.66-389.984-738.822-389.777-753.506-389.479-774.605-382.083-791.652-360.056-797.973-337.455-804.458-317.915-798.747-303.37-779.876-298.865-774.033-296.258-766.729-291.801-758.22M1252.454-503.408C1251.355-970.746 861.067-1360.233 394.762-1359.339-92.515-1358.407-476.937-972.891-475.539-486.565-474.182-14.28-84.653 370.072 391.197 368.655 867.466 367.236 1253.583-23.724 1252.454-503.408"/>
</g>
</g>
</svg>
