<svg xmlns="http://www.w3.org/2000/svg" xmlns:xlink="http://www.w3.org/1999/xlink" xmlns:inkscape="http://www.inkscape.org/namespaces/inkscape" version="1.1" width="2048" height="1920" viewBox="0 0 2048 1920">
<defs>
<clipPath id="clip_1">
<path transform="matrix(1,0,0,-1,0,1920)" d="M0 1920H2048V0H0Z"/>
</clipPath>
</defs>
<g inkscape:groupmode="layer" inkscape:label="Layer 1">
<g clip-path="url(#clip_1)">
<path transform="matrix(1,0,0,-1,1004.173,369.8661)" d="M0 0C5.743 .491 9.406 4.172 9.403 11.203 9.399 18.184 5.862 22.41 .013 22.334-5.723 22.259-9.462 18.231-9.442 11.204-9.423 4.276-5.948 .337 0 0M-622.484-45.985C-618.988-44.698-613.611-48.747-610.914-43.297-608.188-37.789-611.904-32.509-614.109-27.752-617.797-19.793-621.502-11.901-624.636-3.554-628.209 5.963-633.409 6.813-639.345-.631-646.216-9.248-652.168-18.787-657.016-29.25-661.132-38.132-660.129-41.119-651.606-42.632-642.165-44.307-632.59-44.872-622.484-45.985M-264.688-514.625C-283.026-517.087-301.216-522.555-319.109-529.726-325.123-532.136-326.592-536.733-324.452-543.583-320.135-557.4-312.104-566.892-301.51-573.867-295.4-577.889-290.744-577.226-286.318-570.698-276.944-556.871-267.295-543.318-258.006-529.409-255.76-526.045-252.003-522.141-253.932-517.489-255.947-512.63-260.709-515.657-264.688-514.625M667.793-148.9C675.889-148.9 683.991-149.122 692.079-148.826 698.013-148.609 700.267-145.058 698.261-137.698 692.415-116.255 684.672-95.908 675.028-76.607 671.566-69.679 668.503-70.277 666.551-77.642 660.633-99.982 652.232-120.478 638.573-137.533 634.354-142.8 635.733-146.952 641.813-148.492 650.419-150.672 659.133-149.342 667.793-148.9M-107.92-4.093C-110.595 19.196-116.729 42.298-128.872 62.667-131.625 67.285-135.563 70.388-139.697 72.987-146.729 77.411-150.224 75.836-152.97 66.724-154.968 60.091-155.849 53.194-155.081 46.077-152.455 21.745-143.021 .896-132.09-19.06-129.051-24.609-126.095-33.032-119.314-30.932-112.663-28.872-110.681-20.304-108.849-12.847-108.279-10.53-108.311-7.996-107.92-4.093M-223.904-847.161C-216.654-846.695-208.747-846.405-201.532-842.196-197.204-839.67-191.533-837.721-191.139-830.736-190.778-824.327-195.646-821.172-199.515-818.288-213.34-807.983-227.294-797.93-241.292-787.973-246.693-784.132-252.372-784.052-257.85-787.984-269.355-796.241-281.317-803.348-293.623-809.673-296.995-811.406-301.364-813.178-301.37-818.588-301.376-824.008-297.02-825.823-293.626-827.456-271.399-838.155-248.408-845.032-223.904-847.161M-26.143-85.961C-26.595-84.613-27.212-81.858-28.361-79.483-41.035-53.297-55.752-28.919-72.795-6.673-75.263-3.453-78.179 .973-82.331-.828-87.235-2.953-86.327-9.049-85.981-13.705-82.964-54.195-74.809-93.376-64.91-132.069-62.951-139.727-59.602-140.442-55.234-134.033-46.545-121.287-37.668-108.731-28.917-96.046-27.216-93.58-26.055-90.737-26.143-85.961M720.45-277.443C721.123-265.524 720.056-253.284 719.339-241.031 719.141-237.64 720.077-233.172 717.121-231.433 713.73-229.437 711.076-233.278 708.929-235.716 695.48-250.982 679.221-258.251 661.37-261.461 657.388-262.177 653.441-263.465 649.59-264.926 638.586-269.101 637.248-275.267 645.9-284.759 659.497-299.678 674.665-311.899 691.685-320.42 696.759-322.96 702.029-324.673 707.673-324.779 714.795-324.912 718.506-320.882 719.22-312.526 720.204-300.998 721.079-289.457 720.45-277.443M-176.019 73.951C-175.008 87.01-179.822 91.974-185.573 95.934-205.767 109.841-226.791 121.649-248.63 131.166-254.606 133.771-262.693 141.259-266.97 134.685-272.178 126.683-263.831 118.904-259.954 112.03-249.632 93.731-239.182 75.581-233.478 54.218-231.785 47.879-227.908 46.16-223.278 47.176-211.203 49.826-199.041 49.373-186.884 49.438-183.841 49.455-181.093 49.65-180.183 54.204-178.617 62.043-176.893 69.835-176.019 73.951M-449.1-153.276C-449.538-168.604-445.747-181.479-436.119-192.017-430.907-197.723-427.391-198.621-423.384-190.839-417.471-179.356-408.371-175.304-397.571-174.627-390.963-174.214-384.305-172.839-377.876-170.89-368.237-167.969-366.519-159.891-373.034-150.682-377.183-144.817-381.538-139.11-385.237-132.842-393.027-119.645-399.299-105.408-404.536-90.416-408.314-79.603-412.232-78.111-418.963-84.781-436.809-102.467-447.936-124.718-449.1-153.276M590.44 25.683C595.413 26.372 601.277 23.681 603.191 29.125 605.364 35.305 599.663 38.909 596.35 42.402 583.633 55.812 569.793 67.47 555.66 78.525 537.836 92.466 518.956 104.066 499.189 113.43 495.779 115.045 491.76 118.046 488.483 115.027 484.674 111.518 487.869 106.379 488.785 102.426 493.609 81.61 496.164 60.526 495.991 38.873 495.854 21.759 497.915 19.631 511.886 22.797 532.713 27.516 553.448 32.61 574.799 27.948 580.205 26.767 585.725 26.347 590.44 25.683M451.528-806.205C459.099-807.397 464.989-803.936 470.476-797.865 488.261-778.188 505.37-757.713 521.525-736.065 524.197-732.485 528.176-728.972 525.853-723.462 523.549-717.996 518.745-718.068 514.323-718.599 504.159-719.817 494.378-723.119 484.929-727.65 455.775-741.631 426.348-754.263 394.629-756.182 389.281-756.505 389.268-760.245 390.414-764.86 391.431-768.959 393.185-772.684 395.747-775.596 411.493-793.482 430.031-803.937 451.528-806.205M182.507 53.163C192.647 53.76 202.806 54.065 212.924 55.014 232.881 56.885 252.833 59.035 272.183 65.811 281.916 69.219 282.68 71.294 278.655 81.971 274.774 92.266 272.245 103.041 270.353 114.111 267.201 132.552 264.161 134.775 248.779 130.025 231.046 124.55 213.875 116.996 197.089 108.244 175.786 97.138 154.139 86.713 135.752 68.923 133.393 66.64 129.914 64.149 131.009 59.687 132.076 55.342 135.984 55.248 139.061 54.756 153.492 52.45 167.988 52.382 182.507 53.163M-465.788-683.774C-467.224-684.008-468.748-683.942-470.082-684.522-490.385-693.362-507.896-707.338-522.194-726.993-526.141-732.418-526.17-738.116-522.207-744.068-509.713-762.832-494.6-778.126-478.993-792.779-476.179-795.42-472.758-796.717-469.167-796.28-452.736-794.278-436.283-792.474-419.907-789.938-410.426-788.47-409.817-785.918-415.507-776.99-416.217-775.877-416.897-774.724-417.687-773.7-435.796-750.226-449.481-723.683-456.35-692.319-457.575-686.729-460.319-682.865-465.788-683.774M-355.238-552.868C-356.16-553.226-358.191-553.684-359.972-554.755-385.901-570.35-408.141-591.081-422.886-622.066-434.214-645.872-432.303-650.066-409.447-651.013-383.35-652.094-357.472-654.756-332.233-663.692-321.751-667.403-311.688-660.342-308.904-647.471-306.039-634.222-303.936-620.732-301.169-607.449-300.081-602.224-302.187-598.893-305.144-596.844-320.157-586.442-332.213-571.695-344.962-557.938-347.528-555.17-350.315-552.427-355.238-552.868M625.955-251.655C634.334-250.804 642.705-249.827 651.091-249.124 677.223-246.935 694.529-229.525 705.54-201.952 712.218-185.232 709.075-178.403 693.967-174.369 660.858-165.528 628.752-172.641 597.085-184.088 575.24-191.984 555.114-204.514 536.888-221.197 533.183-224.588 527.014-227.978 529.111-234.843 531.064-241.235 537.299-238.655 541.648-238.382 555.717-237.5 569.357-240.227 583.006-243.875 597.135-247.652 611.177-252.573 625.955-251.655M-223.781-93.845C-224.148-99.521-224.061-105.144-221.333-110.121-213.469-124.474-205.786-138.983-197.624-153.082-192.818-161.384-188.298-161.344-184.271-152.836-173.302-129.658-161.131-107.307-151.441-83.248-147.566-73.626-144.873-63.485-146.373-52.684-149.74-28.447-157.541-6.106-167.932 14.774-173.263 25.484-178.463 26.28-187.891 20.584-193.585 17.144-198.325 10.431-204.732 9.974-215.587 9.199-218.196 1.259-218.826-9.616-220.451-37.694-222.126-65.769-223.781-93.845M-162.259-231.246C-162.595-247.992-160.981-250.256-152.151-248.428-128.451-243.521-104.658-239.219-81.323-231.962-62.762-226.189-58.948-217.538-66.481-196.175-72.522-179.042-79.209-162.245-85.322-145.147-93.212-123.079-97.123-99.592-101.472-76.273-102.236-72.181-102.87-67.365-106.982-66.625-110.554-65.981-112.569-69.973-114.472-72.949-120.362-82.161-124.902-92.428-129.18-102.802-146.433-144.634-159.167-188.17-162.259-231.246M620.011-502.071C583.266-502.073 547.086-506.86 512.204-521.734 494.12-529.445 476.605-538.79 460.653-551.896 457.9-554.157 454.362-556.67 455.316-561.825 456.178-566.479 459.738-568.293 462.948-569.714 468.625-572.23 474.399-570.928 480.066-569.11 492.674-565.067 505.265-560.855 518.37-559.967 549.442-557.863 577.178-569.719 602.645-590.369 614.429-599.925 618.752-599.551 626.959-585.405 633.632-573.904 640.255-562.275 645.959-550.055 650.645-540.014 656.747-530.765 659.516-519.542 662.156-508.844 660.241-505.462 651.28-503.453 640.92-501.131 630.44-502.544 620.011-502.071M-666.559-358.639C-673.479-358.75-680.43-358.101-687.32-360.191-691.552-361.474-694.082-363.993-694.281-369.387-695.455-401.359-690.846-431.749-677.631-459.842-674.3-466.925-669.761-469.719-663.135-467.512-655.6-465.001-648.072-462.36-640.425-460.459-615.887-454.36-590.775-455.422-566.016-452.01-561.247-451.352-555.539-452.317-553.108-445.612-550.621-438.753-554.383-433.405-557.495-428.386-566.643-413.631-578.246-401.93-590.06-390.519-612.443-368.898-637.7-357.428-666.559-358.639M76.89-84.33C76.247-66.921 74.715-44.85 67.669-23.962 64.071-13.297 60.241-11.983 53.926-20.602 41.392-37.709 29.797-55.777 20.287-75.649 18.368-79.658 16.675-84.177 18.698-88.665 21.978-95.943 19.367-101.541 15.85-106.989 8.603-118.213 2.662-130.177 .895-144.587-1.765-166.274-10.095-180.989-29.562-184.13-37.964-185.485-38.899-189.76-33.67-197.652-23.824-212.512-12.78-226.014-.246-237.539 11.998-248.798 17.699-247.601 25.659-231.601 34.519-213.793 44.084-196.595 53.882-179.548 69.463-152.44 76.805-122.123 76.89-84.33M-401.835-668.808C-407.326-669.265-412.876-669.261-418.297-670.27-432.073-672.834-434.448-677.173-431.02-693.733-416.331-764.67-347.787-809.283-288.84-776.63-270.896-766.69-269.979-761.589-281.546-742.165-311.172-692.414-351.947-669.758-401.835-668.808M-538.325-713.659C-536.552-712.824-533.287-712.369-531.314-710.19-511.731-688.566-488.491-674.276-464.917-660.582-460.9-658.248-457.149-654.886-456.279-649.364-454.351-637.129-449.695-626.123-446.42-614.504-442.737-601.442-444.117-599.369-455.044-601.055-458.782-601.631-462.564-601.898-466.259-602.738-513.358-613.442-559.128-608.068-603.639-586.454-610.618-583.065-617.852-580.442-624.995-577.562-627.47-576.564-630.351-575.257-632.345-578.061-634.832-581.559-632.318-584.784-630.8-587.526-607.633-629.383-581.779-668.635-553.009-705.025-549.332-709.676-544.889-712.967-538.325-713.659M111.074 34.92C104.357 36.744 99.051 33.553 94.374 28.237 90.149 23.435 86.025 18.503 81.849 13.637 77.674 8.772 76.705 3.393 78.549-3.55 84.054-24.279 89.534-45.056 92.581-66.59 94.202-78.042 95.731-89.508 99.123-100.427 104.026-116.208 109.917-120.201 123.125-115.874 139.047-110.658 154.837-104.897 171.138-101.5 183.493-98.924 183.852-98.617 182.245-84.174 178.471-50.225 174.055-16.469 191.043 14.931 194.786 21.848 191.626 27.421 184.534 27.334 159.819 27.033 135.398 30.654 111.074 34.92M-428.476-828.979C-432.226-829.226-437.295-827.182-439.28-832.566-441.192-837.753-437.187-841.572-434.906-845.505-434.082-846.927-432.978-848.137-431.903-849.313-390.794-894.303-349.719-939.339-308.48-984.154-304.54-988.436-300.197-996.174-294.915-993.552-289.261-990.745-290.314-981.406-289.874-974.583-288.273-949.713-281.58-927.318-268.975-907.511-265.263-901.677-262.043-895.383-258.594-889.303-254.581-882.228-256.342-877.541-262.709-874.87-270.915-871.427-279.342-868.639-287.328-864.57-332.463-841.577-379.108-827.567-428.476-828.979M-269.413-176.327C-257.573-176.712-243.917-172.213-230.694-165.525-221.697-160.975-220.529-157.687-224.224-146.855-229.056-132.689-236.944-120.905-244.765-109.074-277.579-59.431-319.564-39.969-371.182-52.626-387.671-56.669-391.51-63.71-385.376-82.091-364.929-143.353-328.082-179.313-269.413-176.327M-239.329-23.326C-239.2-6.03-240.724 11.097-243.032 28.123-244.889 41.825-248.593 54.69-255.856 65.683-273.263 92.027-305.416 100.942-334.314 86.215-367.182 69.465-381.685 35.239-389.328-4.201-393.696-26.741-391.328-29.133-372.25-27.322-370.805-27.185-369.354-27.107-367.92-26.869-352.384-24.295-336.889-22.274-321.263-26.392-297.783-32.58-276.025-43.598-255.807-59.321-246.846-66.29-242.905-64.136-240.577-51.717-238.817-42.332-239.443-32.807-239.329-23.326M-514.348-583.356C-484.168-583.232-454.973-576.29-426.643-564.042-422.534-562.266-415.541-563.627-415.501-555.042-415.464-547.092-421.795-545.76-426.235-542.907-429.026-541.114-432.191-540.18-435.189-538.861-454.552-530.338-473.797-521.289-491.932-509.474-522.647-489.462-555.168-478.173-589.972-476.924-610.054-476.204-630.071-477.485-649.057-486.485-661.695-492.476-662.412-496.689-654.167-509.317-652.19-512.345-650.108-515.312-647.838-518.016-610.78-562.169-566.027-583.248-514.348-583.356M-318.215-502.227C-312.88-501.53-305.899-501.075-299.056-499.645-264.174-492.353-229.237-485.753-193.775-484.356-185.012-484.011-183.633-481.711-185.925-471.7-186.538-469.019-187.571-466.431-188.672-463.972-202.028-434.133-208.718-402.65-204.92-368.507-203.214-353.167-201.538-337.82-199.988-322.455-198.308-305.791-201.396-302.772-213.923-309.016-228.52-316.292-241.694-326.667-254.161-338.198-294.443-375.46-324.406-420.907-331.43-484.196-333.019-498.517-330.856-502.04-318.215-502.227M352.773 146.578C337.418 146.578 322.057 146.884 306.71 146.477 295.398 146.177 291.263 140.998 289.81 127.409 288.122 111.631 292.411 98.425 301.136 86.908 311.559 73.151 324.846 64.486 338.171 55.909 358.93 42.547 358.95 42.63 370.161 66.917 371.576 69.981 373.01 73.076 374.755 75.862 381.109 86.007 388.016 95.435 398.124 100.33 401.149 101.795 404.294 103.206 407.129 100.272 409.844 97.461 410.272 93.511 409.059 89.62 404.196 74.022 406.161 58.32 408.99 42.851 410.411 35.079 409.025 29.059 405.04 23.376 402.599 19.895 400.353 16.136 397.578 13.095 393.316 8.424 392.742 3.814 395.051-2.717 400.416-17.892 405.104-33.421 410.042-48.818 413.612-59.948 415.775-60.743 423.232-52.263 436.186-37.533 448.112-21.512 456.574-2.513 472.345 32.894 473.774 69.883 462.536 107.6 457.222 125.434 447.246 136.622 431.486 140.691 405.468 147.407 379.115 147.257 352.773 146.578M-362.27 152.994C-395.732 153.352-429 150.541-461.179 138.671-489.642 128.172-494.667 129.351-497.95 82.778-501.845 27.526-468.766-20.339-424.717-25.521-416.717-26.462-412.459-24.534-411.294-13.534-407.478 22.523-394.831 53.781-373.5 79.315-358.627 97.118-339.883 107.931-321.228 118.606-314.973 122.185-311.629 127.781-312.718 136.186-313.74 144.075-317.298 149.856-324.084 151.667-326.894 152.416-329.809 152.891-332.682 152.936-342.544 153.088-352.407 152.994-362.27 152.994M413.742-730.013C422.409-729.182 438.079-729.206 453.254-723.482 482.846-712.322 512.322-700.146 544.09-703.125 546.8-703.379 548.957-702.077 550.92-699.466 565.768-679.721 580.615-659.956 593.65-638.38 601.163-625.943 600.104-620.253 589.534-611.456 557.704-584.965 523.517-581.805 487.612-596.747 482.864-598.723 478.136-601.583 476.217-607.42 470.014-626.288 457.344-631.946 442.243-632.801 435.439-633.186 428.918-634.86 423.095-638.958 417.606-642.822 412.655-647.79 407.304-651.965 399.833-657.794 395.729-655.971 392.927-645.903 392.37-643.903 391.912-641.862 391.43-639.833 389.79-632.932 386.71-631.273 382.005-636.145 363.858-654.941 343.126-669.267 323.767-685.962 315.621-692.988 315.799-696.818 324.814-702.256 350.669-717.853 377.254-730.721 413.742-730.013M146.706-482.535C147.65-455.721 144.734-426.103 130.715-399.28 115.191-369.578 94.689-346.17 70.765-326.839 61.103-319.031 51.205-311.801 40.108-307.193 33.641-304.507 30.054-306.995 28.633-314.839 28.073-317.933 27.456-321.019 27.047-324.144 15.993-408.555 29.296-487.213 65.406-560.273 75.568-580.832 87.43-600.004 101.532-616.92 109.388-626.343 114.102-625.547 120.335-614.387 121.796-611.771 123.008-608.95 124.318-606.211 142.058-569.129 147.912-528.715 146.706-482.535M397.375-119.405C398.111-88.472 392.967-56.614 382.372-26.008 362.045 32.71 311.988 60.744 262.075 41.212 239.316 32.306 221.658 15.231 209.749-9.833 203.165-23.691 206.823-30.918 219.521-32.113 230.401-33.137 241.949-36.567 245.558-49.542 251.854-72.171 261.28-90.479 278.775-102.102 280.712-103.389 282.937-106.267 281.082-109.087 274.369-119.292 281.088-124.676 286.249-129.885 298.352-142.1 309.424-155.404 318.783-170.8 322.467-176.859 327.024-181.948 333.176-183.798 349.055-188.575 364.032-195.354 377.511-207.161 385.735-214.366 390.352-211.558 391.782-199.457 394.828-173.677 397.628-147.839 397.375-119.405M200.56-118.815C175.627-118.382 145.377-128.303 118.498-149.591 86.371-175.037 61.193-208.688 46.194-252.262 42.151-264.008 43.202-267.254 52.964-271.652 79.731-283.709 105.062-298.907 128.944-318.003 140.529-327.267 150.513-325.287 160.481-313.709 175.99-295.692 191.674-277.844 206.463-258.977 229.68-229.36 256.625-206.907 288.181-192.676 298.317-188.104 300.099-183.716 294.917-172.337 285.913-152.57 273.272-137.512 255.228-130.328 237.493-123.267 219.282-119.178 200.56-118.815M412.756-216.731C413.208-272.759 416.058-314.489 420.469-356.071 420.894-360.084 420.897-365.886 424.59-366.823 428.696-367.865 429.805-361.983 431.202-358.439 439.972-336.202 449.454-314.521 460.697-293.898 480.515-257.544 506.862-229.14 534.863-202.764 538.199-199.621 541.275-197.545 539.849-192.367 538.214-186.426 533.926-189.279 530.9-190.011 524.974-191.445 518.936-195.982 513.114-193.154 497.997-185.809 482.395-186.911 466.778-187.493 462.19-187.664 461.048-185.72 460.668-180.335 459.536-164.243 454.95-147.723 466.477-133.991 467.021-133.342 466.972-131.994 467.271-131.004 470.484-120.384 473.807-118.65 482.408-123.778 488.42-127.363 494.418-131.43 501.012-132.458 516.273-134.836 530.416-139.61 541.687-153.373 545.142-157.593 547.335-155.923 547.136-150.036 546.816-140.541 546.426-131.05 546.097-121.556 545.869-114.984 548.402-109.782 552.552-106.209 556.528-102.786 560.574-101.704 562.398-109.708 564.912-120.739 571.599-128.135 578.208-135.642 585.311-143.712 592.441-143.476 600.248-137.276 608.834-130.457 615.989-121.783 622.927-112.77 652.213-74.728 643.521-26.455 603.292-9.236 536.444 19.376 465.991-12.661 433.106-94.872 415.974-137.702 412.114-183.841 412.756-216.731M213.566-958.594C213.852-965.62 214.177-972.644 214.416-979.672 215.209-1002.916 216.368-1026.121 221.685-1048.636 223.96-1058.267 227.489-1060.155 234.415-1054.802 240.248-1050.293 245.711-1044.884 250.788-1039.156 300.929-982.584 351.531-926.632 402.665-871.385 413.062-860.153 423.835-849.376 433.048-836.647 439.866-827.226 439.171-823.58 429.674-819.227 420.083-814.831 411.349-808.728 403.118-801.429 385.328-785.653 369.123-767.373 350.416-753.015 332.843-739.527 314.76-735.294 295.055-745.501 263.899-761.638 244.834-791.468 233.186-828.447 220.041-870.177 212.983-913.619 213.566-958.594M-169.961-361.306C-170.041-378.851-170.035-390.894-168.053-402.641-161.561-441.116-149.857-475.85-118.277-493.931-86.832-511.934-55.482-530.398-23.2-545.934-6.497-553.973 4.663-544.924 5.482-522.156 5.757-514.516 4.393-506.759 3.534-499.096-3.153-439.442-9.663-379.98 .352-319.666 5.616-287.971 4.058-286.24-22.383-278.872-67.443-266.315-112.228-272.14-156.796-283.894-165.107-286.086-165.633-294.05-166.442-301.612-168.756-323.261-169.589-345.054-169.961-361.306M594.752-409.86C594.752-409.653 594.752-409.446 594.751-409.239 596.783-409.239 598.815-409.242 600.847-409.239 617.976-409.211 635.077-409.973 652.107-412.269 654.52-412.594 658.014-412.14 658.582-416.022 659.134-419.796 655.91-421.286 653.669-422.49 649.448-424.758 645.002-426.417 640.629-428.257 625.656-434.554 611.902-443.381 600.63-457.153 598.464-459.799 595.708-462.918 597.083-467.237 598.299-471.057 601.626-471.062 604.518-471.496 605.954-471.711 607.361-472.28 608.798-472.4 630.208-474.177 651.708-474.639 672.961-478.68 676.837-479.417 678.022-476.605 679.305-473.261 691.973-440.249 700.496-405.526 708.021-370.41 709.961-361.356 707.223-354.899 699.9-350.889 690.916-345.97 682.016-340.57 674.275-333.102 660.162-319.486 644.969-307.789 630.013-295.691 605.161-275.59 577.745-263.785 547.816-267.949 509.206-273.32 476.068-291.514 458.583-337.543 435.142-399.246 426.147-464.992 422.522-532.153 422.055-540.8 425.282-541.701 430.972-538.198 442.351-531.191 453.956-524.711 465.246-517.499 485.834-504.348 507.964-495.577 529.079-483.931 534.634-480.868 536.17-476.923 532.115-471.03 518.557-451.332 505.299-431.294 491.067-412.337 486.528-406.291 486.416-402.893 490.63-397.606 501.602-383.844 517.532-383.034 531.364-396.754 541.126-406.436 551.771-410.734 564.29-409.983 574.421-409.375 584.596-409.86 594.752-409.86M-384.117-505.318C-382.09-505.481-380.062-505.618-378.038-505.812-358.196-507.712-356.62-506.607-353.835-483.297-345.762-415.717-320.524-360.501-275.458-318.772-253.171-298.135-229.241-281.23-203.785-267.249-200.302-265.336-196.344-264.381-196.818-257.162-198.041-238.526-199.558-220.042-203.988-202.033-210.245-176.599-211.074-175.784-231.485-184.27-246.46-190.496-261.643-193.74-277.532-193.352-295.01-192.925-312.169-191.031-329.039-184.953-341.659-180.406-344.397-182.174-351.166-195.675-356.179-205.672-362.1-214.761-369.409-222.377-378.066-231.4-387.928-236.869-399.663-235.537-413.51-233.965-427.456-232.854-440.454-225.987-445.864-223.128-449.991-224.525-452.996-230.739-456.137-237.233-454.346-243.006-449.768-246.295-434.975-256.92-421.985-270.35-408.631-283.269-405.998-285.816-402.533-287.499-399.23-288.543-391.497-290.987-385.63-296.344-381.315-304.219-372.907-319.568-362.753-331.698-347.477-337.03-339.023-339.98-338.394-345.872-344.241-354.48-347.779-359.689-351.025-364.861-351.682-371.97-352.62-382.118-357.69-387.644-365.941-388.772-370.362-389.377-374.843-390.297-377.902-394.279-387.273-406.476-390.319-404.154-396.892-388.135-401.83-376.1-406.289-363.231-415.808-355.8-430.508-344.327-436.881-329.484-432.96-308.491-431.727-301.895-434.002-297.003-438.621-293.246-443.499-289.279-448.553-286.028-454.349-284.607-475.609-279.394-496.139-282.589-515.163-294.837-553.121-319.276-561.395-362.152-546.969-403.177-537.729-429.454-521.923-451.096-501.043-466.435-465.037-492.885-425.639-503.648-384.117-505.318M-720.441-258.282C-720.441-272.708-720.613-287.138-720.343-301.556-720.254-306.296-720.443-312.452-715.988-314.364-711.846-316.143-709.084-311.072-706.775-307.841-690.233-284.7-668.971-271.227-645.345-262.093-625.14-254.282-601.63-271.059-597.781-296.369-596.789-302.886-599.186-306.034-603.747-303.286-614.658-296.712-626.601-299.254-637.721-296.22-654.396-291.671-665.704-300.823-676.194-313.867-679.968-318.56-685.665-324.075-683.701-330.582-681.827-336.792-674.659-335.318-669.668-335.598-641.769-337.161-614.927-343.026-591.069-362.146-589.398-363.486-587.382-364.181-585.561-365.262-578.602-369.396-574.537-367.012-573.305-357.555-571.762-345.708-569.498-334.042-566.07-322.787-554.889-286.083-534.008-261.474-503.312-249.304-497.278-246.912-492.049-243.734-490.466-235.291-488.507-224.84-483.135-218.519-474.857-214.474-464.509-209.417-462.879-203.979-466.862-191.141-477.381-157.238-473.108-125.491-457.932-95.16-452.164-83.633-444.635-73.829-436.984-64.236-431.135-56.902-432.81-52.06-439.47-48.171-445.736-44.512-452.23-41.421-458.451-37.658-496.325-14.748-520.545 19.308-520.198 73.606-520.145 82.016-521.313 90.443-521.979 98.854-522.522 105.727-525.265 108.42-530.679 105.011-557.301 88.245-582.309 68.611-603.937 43.164-607.551 38.913-609.784 33.401-608.509 26.869-604.184 4.723-595.396-14.4-581.789-30.099-579.973-32.195-577.455-34.166-575.061-34.613-567.004-36.119-560.453-41.168-553.954-46.505-546.862-52.327-539.353-56.47-530.53-56.501-527.086-56.514-522.861-56.871-521.826-61.721-520.893-66.092-523.647-69.545-526.288-72.476-534.295-81.364-544.186-85.377-554.472-87.963-561.106-89.631-563.654-93.277-562.656-101.857-560.226-122.744-558.826-143.81-556.26-164.668-555.051-174.499-556.765-182.635-561.348-190.463-566.671-199.555-569.956-209.579-569.815-220.947-569.688-231.193-574.141-234.627-582.225-235.631-600.01-237.838-609.67-223.82-619.532-209.908-622.769-205.342-619.754-201.854-616.96-199.347-609.362-192.527-605.087-183.016-602.024-172.651-598.497-160.717-593.635-150.306-584.185-143.789-582.255-142.457-580.641-140.13-579.333-137.875-577.978-135.538-577.266-132.691-579.323-130.17-581.14-127.945-583.205-129.007-584.945-130.136-588.262-132.287-591.339-134.983-594.656-137.132-603.914-143.129-613.366-149.068-624.302-145.481-631.193-143.221-632.002-138.666-626.697-132.955-621.546-127.409-618.318-120.451-615.21-113.28-612.098-106.101-609.07-98.802-603.838-93.484-597.956-87.504-599.175-82.078-604.516-77.052-607.016-74.7-609.81-72.751-612.612-70.94-627.195-61.515-642.645-65.624-657.881-66.933-672.425-68.182-682.802-76.581-688.968-93.043-708.651-145.588-720.186-200.425-720.441-258.282M-132.186-811.812C-126.106-811.446-119.954-811.659-113.962-810.571-106.286-809.177-104.79-803.748-109.77-796.613-114.143-790.348-119.739-785.809-125.636-781.985-133.564-776.845-141.72-772.225-149.689-767.174-151.112-766.272-152.924-764.496-153.109-762.881-153.443-759.944-150.919-759.057-149.038-758.318-146.859-757.46-144.579-756.915-142.312-756.464-129.354-753.89-116.261-753.896-103.232-754.531-85.804-755.381-69.18-753.292-53.89-741.824-44.989-735.147-36.677-736.841-28.29-745.047-22.793-750.425-23.412-753.448-27.601-758.962-35.459-769.307-43.219-779.87-49.151-792.06-54.265-802.568-52.996-805.619-43.344-807.271-39.038-808.009-34.714-808.817-30.379-809.042-1.455-810.538 25.551-820.146 51.018-836.682 56.196-840.044 62.017-847.37 67.543-842.075 73.216-836.639 69.059-827.631 67.865-820.277 61.508-781.141 47.776-745.524 32.435-710.621-11.174-611.403-77.647-549.331-168.797-526.59-199.583-518.909-227.764-523.099-251.674-549.777-283.032-584.764-294.148-628.381-287.574-678.909-284.636-701.49-278.614-722.677-264.927-739.431-262.569-742.318-260.108-746.359-256.027-743.675-251.779-740.881-246.716-738.692-246.425-731.337-246.3-728.18-245.995-724.851-246.622-721.863-249.843-706.532-245.36-694.353-236.769-683.516-226.49-670.551-217.039-657.577-215.446-637.866-214.502-626.176-206.471-624.86-199.964-634.038-197.907-636.94-196.2-640.317-194.771-643.746-186.521-663.556-185.819-684.438-190.187-705.478-193.795-722.86-200.498-737.579-216.589-742.457-221.401-743.915-225.003-748.593-228.423-752.944-239.422-766.938-238.921-772.056-225.244-781.614-196.462-801.728-165.493-811.994-132.186-811.812M398.072-422.701C398.38-412.082 397.838-401.544 396.327-391.114 395.356-384.415 393.172-381.576 387.6-386.799 376.422-397.28 363.078-404.335 354.233-418.56 352.795-420.872 349.965-422.337 347.538-423.241 336.856-427.218 327.116-433.11 318.687-442.149 316.844-444.125 314.567-446.702 311.811-443.728 305.761-437.203 299.153-431.14 296.473-421.303 291.571-403.313 296.382-396.715 311.27-391.461 327.074-385.883 342.411-379.771 359.148-380.251 364.116-380.394 368.786-376.625 370.212-370.046 371.717-363.099 367.987-358.863 363.75-355.33 355.383-348.353 349.319-339.157 345.482-327.768 343.066-320.6 344.876-317.547 351.229-319.335 362.318-322.456 373.631-322.869 384.913-323.673 387.766-323.877 390.833-324.789 391.033-319.138 391.678-300.932 391.502-282.695 381.411-267.831 361.927-239.133 336.564-224.55 305.864-226.73 269.976-229.277 244.123-252.739 225.231-288.405 204.128-328.244 199.536-373.713 195.719-419.429 193.664-444.036 199.394-467.658 200.962-491.787 204.647-548.474 204.082-605.002 196.016-661.23 195.168-667.138 191.958-675.542 196.56-679.073 201.649-682.978 206.593-675.775 210.811-671.992 229.754-655.003 251.271-645.867 274.257-642.462 325.49-634.871 361.518-603.557 380.472-544.738 393.11-505.523 396.733-464.332 398.072-422.701M359.46 173.863C387.019 173.399 420.485 169.839 453.462 160.903 541.813 136.963 616.294 84.42 668.126-6.26 745.222-141.141 757.794-288.192 714.2-442.907 711.483-452.553 707.851-461.897 707.308-472.259 706.581-486.13 712.93-493.587 724.112-492.632 732.473-491.918 737.899-485.698 742.65-478.419 755.535-458.679 764.503-436.223 773.331-413.58 821.492-290.054 827.369-162.542 790.898-34.492 752.692 99.651 675.813 188.987 562.635 228.888 488.096 255.166 412.965 250.818 338.133 229.199 326.011 225.697 313.931 221.431 303.507 212.618 296 206.271 293.975 197.148 296.483 186.554 298.99 175.965 305.335 173.748 313.234 173.827 326.585 173.959 339.937 173.863 359.46 173.863M-372.428 171.999C-352.166 172.288-334.418 172.135-316.856 174.931-302.751 177.176-298.061 192.659-306.717 206.656-309.547 211.232-313.366 214.433-317.46 217.208-325.137 222.41-333.421 225.727-341.885 228.166-388.933 241.726-436.474 250.117-484.985 245.825-533.545 241.528-580.235 227.521-623.038 199.127-722.647 133.053-787.063 31.855-817.179-100.122-845.412-223.849-829.727-340.074-768.497-446-761.173-458.67-753.349-470.959-743.998-481.609-738.435-487.943-726.254-489.857-719.459-485.234-712.329-480.383-714.031-471.832-714.782-464.387-715.479-457.471-717.134-450.616-718.929-443.958-724.155-424.568-730.75-405.678-734.117-385.611-751.446-282.345-744.804-182.023-709.863-84.805-677.505 5.227-625.314 73.03-554.014 118.128-496.629 154.425-435.152 173.741-372.428 171.999M77.488-1046.057C77.046-1035.157 76.772-1024.243 76.136-1013.36 72.205-946.117 45.12-897.527-5.5-870.254-59.802-840.998-116.068-841.748-172.355-861.08-209.553-873.856-239.115-900.279-258.491-941.386-267.639-960.792-269.758-982.135-261.187-1002.936-244.857-1042.566-205.427-1045.24-181.814-1034.686-175.462-1031.847-172.393-1026.787-174.526-1018.293-176.578-1010.124-178.026-1001.544-176.514-993.292-172.968-973.945-172.723-955.087-178.334-936.2-179.528-932.18-180.437-926.737-176.805-923.448-172.963-919.969-168.807-922.447-165.332-924.813-147.027-937.281-133.001-954.386-126.513-979.308-122.958-992.964-123.513-1006.311-128.356-1019.469-140.358-1052.077-159.195-1076.168-186.818-1089.607-207.767-1099.8-208.227-1100.452-193.163-1120.34-149.187-1178.403-105.171-1236.415-61.711-1295.053-39.569-1324.928-12.062-1332.232 19.044-1318.731 35.628-1311.532 47.334-1299.049 50.63-1276.55 54.991-1246.778 60.234-1217.196 65.039-1187.519 72.601-1140.811 78.825-1093.925 77.488-1046.057M-445.55 293.624C-300.075 290.627-174.684 223.136-70.853 95.171-60.408 82.299-49.305 70.54-36.053 62.117-5.771 42.871 23.703 47.81 47.367 77.828 78.373 117.16 111.779 152.827 148.82 183.624 216.556 239.942 290.35 275.721 372.465 286.651 443.451 296.1 513.456 293.253 581.447 265.635 713.351 212.055 800.767 103.382 843.612-56.587 875.058-174 871.34-290.559 827.941-403.403 798.352-480.34 756.036-546.175 704.297-603.04 631.152-683.432 554.624-758.92 477.893-834.194 354.221-955.516 237.098-1085.229 141.234-1240.52 125.121-1266.622 112.517-1295.899 98.089-1323.552 84.101-1350.36 67.648-1374.937 51.739-1400.081 23.545-1444.644-38.99-1450.92-69.369-1387.963-98.551-1327.485-132.24-1270.412-167.946-1215.308-205.823-1156.854-247.707-1102.639-290.351-1049.287-371.704-947.506-461.079-856.597-550.769-766.143-610.564-705.839-671.132-646.628-725.465-578.852-769-524.546-807.684-465.989-833.125-395.943-856.888-330.514-865.844-261.712-863.253-190.805-856.249 .941-775.472 138.07-644.123 234.879-598.403 268.577-546.307 283.927-492.851 290.494-478.094 292.306-463.321 292.658-445.55 293.624" fill="#231f20"/>
</g>
</g>
</svg>
