<svg xmlns="http://www.w3.org/2000/svg" xmlns:xlink="http://www.w3.org/1999/xlink" xmlns:inkscape="http://www.inkscape.org/namespaces/inkscape" version="1.1" width="2048" height="1920" viewBox="0 0 2048 1920">
<defs>
<clipPath id="clip_1">
<path transform="matrix(1,0,0,-1,0,1920)" d="M0 1920H2048V0H0Z"/>
</clipPath>
</defs>
<g inkscape:groupmode="layer" inkscape:label="Layer 1">
<g clip-path="url(#clip_1)">
<path transform="matrix(1,0,0,-1,1639.3203,1094.6455)" d="M0 0C-3.321 16.283-10.814 30.412-22.249 43.945-25 34.796-20.778 27.839-17.622 21.973-7.492 3.206-11.968-13.166-24.036-28.41-36.587-44.262-41.658-65.969-61.954-75.916-73.35-88.64-42.578-108.888-77.956-156.57-96.344-184.888-115.552-156.291-137.536-189.557-146.931-198.421-166.684-237.419-179.18-231.348-186.7-228.584-187.752-220.55-188.436-213.467-204.819-105.014-186.452 5.214-203.478 113.297-212.485 157.966-295.527 148.632-322.855 167.455-323.425 171.143-318.925 172.461-316.288 174.362-302.296 183.25-292.839 194.832-285.357 209.312-262.967 214.759-261.927 236.618-252.584 251.988-249.579 256.943-246.904 260.086-255.766 265.712-263.664 270.717-277.596 273.847-278.053 287.9-278.167 291.385-280.297 290.738-282.921 290.536-288.473 290.092-294.077 290.396-303.56 290.396-290.515 297.53-279.32 298.037-269.267 301.066-260.152 303.79-267.822 293.374-264.501 288.635-252.842 304.706-240.147 319.646-229.422 335.887-248.235 343.351-228.915 355.161-232.211 365.526-235.254 375.055-227.161 380.128-220.391 390.266-213.926 381.446-221.042 381.505-221.144 375.043-221.195 371.964-224.199 368.403-220.84 365.957-210.286 361.219-199.223 378.435-200.391 387.573-202.179 419.193-191.352 448.685-189.758 479.952-188.665 484.222-192.633 491.014-198.502 491.343-205.627 491.749-201.862 485.109-202.66 481.611-205.969 467.267-207.097 452.213-216.327 439.871-229.359 422.826-195.46 429.604-214.805 414.565-219.61 410.447-222.374 403.262-234.455 402.566-223.844 412.804-230.779 421.852-229.942 429.379-228.738 440.2-245.396 442.291-236.737 453.86-247.221 442.735-261.559 445.028-272.563 438.794-283.621 433.297-278.353 449.14-277.393 454.747-281.59 455.672-281.995 451.82-284.125 450.515-291.482 442.119-300.999 447.374-301.063 458.106-300.821 475.871-301.138 493.649-300.783 511.415-300.682 516.408-302.621 522.743-297.043 525.949-290.299 529.814-287.282 522.009-280.981 519.423-281.336 529.523-275.568 532.716-266.871 535.808-251.139 541.396-240.959 554.853-231.692 568.133-224.618 578.271-235.938 586.038-237.358 595.314-238.804 604.78-248.755 612.383-251.43 619.605-256.108 632.226-264.615 643.758-266.275 657.392-267.492 667.403-273.869 675.31-275.898 684.991-277.556 693.695-285.766 692.41-291.479 695.381-295.104 710.436-313.004 713.3-318.139 727.302-327.3 760.37-373.77 758.642-363.727 791.534-360.899 801.406-363.739 808.983-369.469 816.574-382.217 848.061-385.429 887.809-418.165 906.617-433.11 916.7-450.187 925.32-459.453 941.009-311.95 940.967-165.829 941.094-18.572 941.047 2.675 941.022 2.675 940.832 2.675 919.885-.335 614.215 8.659 302.951 0 0M2.32-626.765C-39.224-485.438-20.778-343.959 2.32-202.873ZM-283.935-420.762C-325.669-457.991-370.166-491.736-417.212-522.085-450.597-547.409-455.647-382.557-459.303-362.867-460.239-351.841-465.45-355.338-470.318-358.785-490.284-372.939-505.18-391.098-513.712-414.338-526.364-448.83-535.238-484.589-550.819-518.131-567.921-554.968-571.901-557.261-603.963-532.716-679.479-467.08-775.495-418.486-830.044-332.561-850.005-296.073-850.727-256.816-847.583-216.875-841.634-135.482-847.591-57.684-864.115 23.24-829.401 2.449-796.372-1.084-757.484 2.906-701.046 4.955-643.909 7.109-593.174-25.318-585.048-30.501-575.578-31.261-567.033-31.743-551.706-32.63-555.7-38.408-560.302-47.088-569.822-65.018-567.16-83.468-554.242-97.42-548.195-103.946-540.931-108.976-533.147-102.906-515.511-87.999-539.724-79.451-531.829-74.699-528.545-72.9-526.694-76.005-525.87-78.767-521.547-93.073-516.032-83.722-511.443-79.312-474.293-42.138-442.626 .163-413.42 43.653-398.121 69.202-383.562 42.203-364.627 42.575-256.988 53.689-263.412-98.893-246.011-170.988-236.539-255.251-211.484-356.781-283.935-420.762M-543.91-580.323C-554.16-576.917-528.138-516.555-521.561-509.679-516.729-502.786-511.811-502.672-509.148-510.249-504.585-523.238-499.425-536.201-498.208-547.643-497.916-570.592-526.225-589.206-543.91-580.323M-875.055-155C-876.893-182.079-879.581-221.64-882.231-261.214-882.586-266.523-882.662-273.049-888.366-274.481-896.087-276.419-896.987-268.297-899.434-263.634-906.685-249.86-907.433-236.047-901.234-221.12-896.995-207.172-878.575-170.323-903.514-167.874-932.002-162.793-960.754-159.017-988.67-150.907-1050.509-137.791-1111.719-57.603-1051.484-7.347-1021.691 14.806-924.445 82.811-902.78 26.259-881.838-27.992-873.876-84.52-875.055-155M-922.934-704.724C-982.752-704.876-1055.973-704.636-1115.838-704.698-1111.604-692.255-1068.398-628.679-1061.577-619.428-1007.441-544.874-1002.211-451.048-954.327-372.711-942.106-394.456-948.736-414.236-953.414-435.094-964.126-482.891-957.027-530.194-943.703-576.636-938.429-594.985-914.795-668.014-908.824-686.16-903.043-703.748-903.537-704.673-922.934-704.724M-873.331 247.312C-875.867 239.709-877.134 228.305-877.134 228.305-888.544 232.106-880.938 258.717-880.938 258.717-880.938 258.717-870.796 254.916-873.331 247.312M-873.331 332.213C-875.867 324.609-877.134 313.205-877.134 313.205-888.544 317.007-880.938 343.617-880.938 343.617-880.938 343.617-870.796 339.816-873.331 332.213M-799.967 782.639C-803.327 775.67-807.434 782.17-811.25 784.337-815.434 786.719-815.687 800.924-825.284 789.063-834.349 787.765-827.637 808.515-819.858 808.653-809.893 811.136-810.113 799.391-807.231 793.651-800.069 793.689-804.011 807.564-796.164 801.469-788.19 795.285-797.267 788.252-799.967 782.639M-816.575 182.928C-816.068 190.189-810.312 190.049-804.911 189.644-797.153 189.061-802.984 184.36-802.528 181.572-796.897 164.288-800.553 161.538-816.701 158.826-816.701 167.012-817.12 175.008-816.575 182.928M-806.141 385.433C-808.677 377.83-809.944 366.426-809.944 366.426-821.354 370.228-813.747 396.838-813.747 396.838-813.747 396.838-803.606 393.036-806.141 385.433M-873.002 465.189C-868.286 483.778-852.54 473.413-842.449 475.047-829.417 477.151-807.713 457.776-803.606 442.963-829.341 442.671-849.992 456.864-873.002 465.189M-832.764 334.747C-832.764 334.747-822.622 330.945-825.157 323.342-827.693 315.739-828.96 304.335-828.96 304.335-840.37 308.136-832.764 334.747-832.764 334.747M-827.693 253.648C-827.693 253.648-817.551 249.847-820.086 242.244-822.622 234.641-823.889 223.236-823.889 223.236-835.299 227.038-827.693 253.648-827.693 253.648M-1172.783-126.362C-1185.017-157.014-1182.608-188.174-1179.021-219.777-1166.779-306.126-1176.961-393.741-1229.743-466.367-1242.507-10.188-1229.707 450.03-1234.355 907.607-1234.306 940.92-1234.281 940.629-1202.182 940.68-1040.115 940.944-878.078 941.734-716.018 941.465-714.699 939.679-713.368 937.892-712.037 936.105-722.394 927.083-732.739 918.061-743.097 909.026-754.058 900.468-778.904 925.493-773.269 893.338-771.063 882.403-779.164 873.837-783.537 864.701-784.742 862.204-788.976 867.108-791.993 868.097-799.625 870.605-808.081 877.258-808.841 860.57-815.763 832.928-858.865 818.991-842.649 782.891-841.895 780.346-842.932 777.096-843.425 774.529-849.865 772.856-846.202 780.852-850.208 781.359-854.695 779.572-850.043 773.629-854.417 771.906-857.89 772.616-856.61 775.809-857.789 777.57-865.301 797.995-880.964 789.88-876.298 770.905-874.117 761.718-871.277 752.962-871.341 743.103-871.417 733.511-846.911 709.41-838.709 708.649-833.626 708.18-825.702 709.105-826.526 702.503-827.49 694.85-837.543 685.904-842.272 689.502-854.86 699.095-860.007 684.244-869.084 683.306-872.849 682.926-869.477 669.557-863.62 662.182-882.003 663.779-879.505 641.502-894.122 635.014-893.97 646.064-881.964 652.311-887.264 663.335-902.492 652.109-910.654 631.575-887.136 625.397-882.51 623.445-877.134 621.646-873.002 627.348-870.022 631.466-866.561 631.631-864.216 626.79-861.972 622.152-861.072 617.223-867.601 615.132-879.692 611.374-889.71 622.04-900.943 625.168-910.362 600.002-903.884 574.862-902.236 549.962-901.462 538.317-883.993 528.281-872 530.853-868.919 531.512-865.522 534.908-863.557 530.182-861.833 526.051-865.268 525.012-868.615 523.39-886.693 514.608-889.191 509.717-886.516 489.987-886.26 480.395-901.25 490.461-903.781 460.956-904.609 453.078-917.345 443.824-908.752 436.462-904.188 432.762-901.919 439.478-900.549 439.427-888.378 436.525-883.374 463.04-875.942 453.19-874.586 446.815-865.535 441.848-871.328 434.359-876.082 428.213-867.5 421.37-873.293 415.795-871.214 414.756-868.818 412.475-867.107 412.893-860.159 414.604-851.526 412.247-846.227 424.221-847.127 408.699-846.189 396.584-858.258 388.906-862.708 391.351-860.375 399.372-868.247 400.247-865.674 381.353-874.624 366.984-884.614 352.208-890.889 346.439-908.27 288.574-888.266 296.643-880.278 299.19-873.952 292.525-866.257 292.69-863.012 292.753-859.893 289.75-860.159 285.86-860.476 281.171-864.787 282.312-867.817 281.285-875.245 278.764-880.621 282.058-885.97 287.406-890.065 281.07-879.644 276.331-885.172 270.375-895.081 257.14-909.27 243.462-891.636 229.75-881.14 219.815-870.922 210.324-856.698 206.066-853.871 205.217-851.501 203.393-851.628 198.729-853.328 169.318-842.288 155.952-816.524 141.796-826.514 134.484-837.606 133.217-848.458 130.797-884.842 122.687-918.488 109.331-950.397 88.689-1043.088 38.181-1134.28-22.866-1172.783-126.362M-715.004 824.658C-730.938 818.648-709.983 808.562-729.228 797.997-729.963 797.604-730.026 794.081-729.189 792.84-719.288 778.141-725.095 762.833-727.034 747.64-727.357 735.808-741.535 734.423-744.643 745.525-747.838 755.205-751.096 764.354-763.748 764.873-772.049 764.086-766.347 813.351-766.108 820.654-765.612 824.354-754.924 826.698-747.559 830.335-747.613 821.618-754.544 804.203-745.266 801.354-741.448 800.81-740.295 804.827-738.774 807.881-732.067 821.414-721.837 830.297-705.559 832.819-706.7 826.242-711.821 826.61-715.004 824.658M-639.383 388.297C-630.714 378.334-646.377 367.359-650.284 358.329-656.535 344.845-670.551 349.156-669.403 363.044-669.099 381.48-674.93 396.445-686.467 411.309-695.797 423.322-700.703 439.06-706.205 453.67-718.996 488.557-753.788 518.496-695.884 532.375-690.016 533.489-690.08 533.375-689.268 540.256-689.129 541.396-687.912 543.284-687.075 543.348-674.208 544.361-670.747 554.955-665.46 563.926-661.67 570.376-655.965 572.074-649.766 567.335-641.678 561.151-655.395 561.506-652.289 555.348-643.719 560.733-627.644 556.07-629.9 574.989-649.905 574.178-669.935 573.696-689.915 572.404-698.726 571.833-705.153 573.734-706.738 583.136-707.917 590.144-711.644 593.21-718.439 592.767-731.426 591.933-734.544 609.495-725.589 616.906-715.65 625.802-694.53 629.211-683.373 622.216-664.48 608.922-637.844 598.781-628.759 576.129-625.057 573.164-625.565 568.45-626.845 565.536-634.439 548.214-632.563 528.889-639.37 511.339-649.259 485.844-644.86 474.35-621.609 458.79-613.534 453.391-615.448 446.042-619.416 440.036-628.256 425.242-660.246 406.71-639.383 388.297M-544.277 380.365C-547.802 377.115-581.953 376.355-572.625 385.409-563.94 389.641-555.649 396.559-544.987 392.96-533.781 391.703-532.854 382.488-544.277 380.365M-549.906 398.029C-564.014 408.231-575.359 389.393-596.179 402.527-581.83 418.097-538.623 427.896-528.887 406.316-537.355 406.658-541.07 391.237-549.906 398.029M-552.594-60.609C-552.594-63.143-556.397-77.082-558.932-75.979-561.468-74.877-558.932-69.479-558.932-66.944-558.932-64.41-552.594-60.609-552.594-60.609M-539.916-75.815C-539.916-78.349-543.72-92.288-546.255-91.185-548.791-90.083-546.255-84.685-546.255-82.15-546.255-79.616-539.916-75.815-539.916-75.815M-543.72-60.773C-546.255-59.671-543.72-54.273-543.72-51.738-543.72-49.204-537.381-45.403-537.381-45.403-537.381-47.937-541.184-61.876-543.72-60.773M-507.297 110.953C-531.536 138.723-535.432 194.4-495.405 208.995-430.76 228.37-411.208 287.399-367.175 331.972-368.48 289.268-369.849 249.758-385.214 212.579-390.957 198.704-395.306 184.398-396.142 169.901-398.171 134.826-419.938 116.44-448.513 102.843-470.307 92.463-492.897 86.672-507.297 110.953M-524.703-49.204C-524.703-51.738-528.507-65.677-531.042-64.575-533.578-63.472-531.042-58.074-531.042-55.54-531.042-53.006-524.703-49.204-524.703-49.204M-504.686-49.964C-504.458-57.948-510.53-63.396-513.053-70.302-514.58-72.9-518.61-71.49-518.606-68.781-515.051-61.041-514.933-49.732-508.261-44.351-504.762-45.225-504.749-47.658-504.686-49.964M-512.267-26.56C-519.214-24.773-526.085-22.518-533.54-20.807-526.377-17.348-520.127-11.582-511.088-16.271-508.489-17.614-503.114-16.055-502.873-20.667-502.556-26.661-508.73-27.459-512.267-26.56M-291.732 377.324C-301.065 351.092-322.096 360.187-310.609 369.088-304.46 372.128-298.045 374.612-291.732 377.324M-689.725 776.126C-687.506 781.904-683.982 781.917-680.534 776.544-677.073 771.12-672.395 772.97-667.768 774.694-660.293 776.348-665.339 802.224-663.964 811.91-657.283 799.657-659.413 788.291-656.092 775.657-649.563 786.288-655.027 796.679-651.388 805.233-639.723 805.217-656.954 773.891-626.413 779.143-569.107 781.958-596.267 805.574-507.766 793.597-485.199 794.05-464.33 770.443-443.214 780.469-426.492 789.292-406.512 789.418-389.144 797.566-379.764 803.256-390.536 768.636-364.561 746.868-357.59 740.252-361.178 727.682-351.594 722.17-346.688 719.357-344.622 711.285-336.28 714.668-326.896 717.13-344.346 690.902-322.271 699.552-316.605 701.652-312.307 693.717-320.104 693.114-326.024 691.521-323.962 685.901-318.531 685.637-313.456 684.086-301.782 689.289-299.744 685.018-298.26 682.051-300.733 680.658-302.469 679.327-313.448 670.888-307.413 665.312-298.844 661.637-281.691 654.262-278.775 635.698-267.86 623.458-265.768 621.126-269.736 617.477-270.776 614.397-272.931 607.935-269.964 600.395-264.564 600.484-244.407 600.813-254.08 583.681-249.174 575.445-246.613 571.149-269.686 548.137-273.983 550.697-285.608 557.641-297.005 550.089-308.314 552.281-311.242 552.839-315.045 553.624-317.581 550.317-329.903 534.211-331.475 551.077-332.236 556.475-334.505 572.492-335.374 588.342-342.93 602.661-344.996 606.577-343.348 610.707-342.347 615.016-340.597 622.53-340.59 630.452-350.009 636.028-354.193 638.499-352.836 642.934-352.672 646.507-351.987 661.219-362.002 673.067-363.308 687.374-363.676 691.264-368.899 694.634-376.176 697.676-367.479 679.656-365.108 662.955-368.29 645.76-380.321 648.839-380.093 648.877-377.849 634.926-377.05 629.971-373.031 625.206-376.518 619.618-405.048 646.831-424.759 699.723-488.777 671.292-492.047 669.785-492.237 669.62-495.419 674.651-502.702 681.429-536.326 655.019-543.086 644.188-523.74 648.788-510.911 660.104-494.354 661.13-482.944 661.84-471.699 664.729-460.29 665.882-441.134 667.834-410.48 645.582-405.65 626.638-404.168 612.839-412.947 602.511-416.137 589.541-417.122 585.537-421.561 583.397-425.324 585.086-440.745 592.005-462.235 593.488-474.437 597.166-494.687 601.688-510.492 598.685-525.566 586.178-527.962 584.188-531.359 581.781-530.066 578.017-528.179 570.773-489.978 574.024-475.846 570.286-444.526 560.997-415.569 552.528-398.663 589.136-396.026 594.937-397.993 610.051-386.52 605.477-371.992 599.698-350.516 604.602-349.236 578.613-347.651 546.376-351.784 514.025-346.929 481.865-346.678 464.781-325.868 453.418-339.793 435.537-343.983 426.85-329.924 425.635-325.365 430.508-321.359 432.838-319.926 436.982-323.133 440.162-332.725 447.005-332.824 485.189-318.938 485.058-312.915 485.387-312.814 477.848-312.687 473.894-311.889 449.083-310.57 424.779-300.2 401.298-296.067 391.959-311.191 397.573-313.752 390.426-313.347 386.333-304.878 387.474-306.399 382.24-306.385 375.234-344.285 368.474-339.728 379.135-334.809 391.404-356.321 384.359-362.446 397.624-375.935 365.304-392.867 332.558-423.65 314.788-464.579 292.823-505.911 264.233-554.787 274.47-566.919 276.052-579.356 275.101-590.575 282.856-654.61 335.208-565.083 368.099-519.708 376.737-491.341 384.717-470.934 409.23-500.847 430.631-510.226 438.984-519.747 447.968-533.882 449.97-534.503 443.774-524.982 445.624-526.326 438.743-541.704 435.043-556.169 433.244-571.699 444.103-578.494 448.868-590.119 446.333-591.551 459.22-592.109 464.302-591.995 469.383-588.838 472.88-580.776 481.801-570.215 487.782-563.306 498.68-559.947 503.989-549.285 497.73-542.984 493.485-538.357 490.367-535.669 484.462-529.191 483.816-531.828 503.609-541.425 512.15-560.809 512.087-588.433 511.998-595.088 516.281-599.994 536.619-602.15 545.552-598.372 553.713-596.85 561.975-591.906 588.598-602.454 611.052-626.439 621.836-636.721 626.448-648.954 629.439-642.527 645.722-640.499 650.854-645.925 650.119-648.84 650.803-664.459 654.427-680.356 653.819-696.102 652.805-704.925 652.235-709.058 655.783-712.709 662.955-731.858 700.194-721.066 711.122-713.402 746.727-714.297 766.05-696.741 763.71-689.725 776.126M-673.244 843.526C-665.378 844.111-666.282 832.006-674.297 836.493-682.448 840.738-683.373 827.281-691.817 830.462-684.236 840.447-691.031 842.31-699.689 843.653-690.879 843.653-682.042 843.868-673.244 843.526M-635.567 805.283C-626.796 802.459-623.114 818.485-614.941 810.176-609.464 804.079-619.048 798.973-618.25 794.31-621.406 788.455-625.501 808.781-627.568 792.016-627.935 789-633.97 795.741-638.47 791.915-641.769 790.984-642.834 806.511-635.567 805.283M-582.956 814.115C-572.135 821.065-562.366 834.557-548.638 820.971-552.011 814.293-554.977 808.185-563.42 814.356-574.387 823.698-579.134 799.034-588.332 807.804-591.196 812.177-585.022 812.151-582.956 814.115M-530.877 836.646C-525.642 845.047-513.852 844.857-511.266 855.615-505.472 879.678-512.838 902.703-515.563 926.082-516.07 930.403-524.133 936.093-515.018 938.335-507.779 940.135-497.853 947.244-492.452 935.168-488.358 925.981-488.205 913.03-472.308 918.378-472.143 906.783-456.056 907.303-455.308 895.074-451.154 864.382-431.462 902.221-419.951 860.101-417.418 816.955-385.347 823.603-399.488 810.314-407.196 804.741-432.78 788.038-440.297 797.627-443.023 802.09-437.864 802.926-436.038 805.093-423.862 816.077-434.052 829.282-446.23 817.156-453.837 811.822-458.68 804.143-471.623 810.402-477.442 813.216-490.221 804.738-500.794 805.98-505.751 806.563-511.76 804.536-512.052 812.873-512.102 814.305-514.536 816.979-515.551 816.827-529.585 814.028-545.288 830.034-545.127 843.539-538.433 842.639-534.402 830.981-530.877 836.646M31.465-228.419C29.31 132.169 34.955 492.811 31.227 853.311 30.02 888.84 31.807 924.488 32.34 960.07 32.53 972.227 29.754 978.007 15.441 977.994-400.072 977.504-815.586 977.636-1231.086 977.676-1263.211 977.676-1263.274 977.689-1263.274 943.181-1263.3 665.788-1263.287 388.396-1263.287 111.004H-1263.224C-1263.224-163.883-1263.274-438.77-1263.147-713.657-1263.135-748.523-1269.195-749.703-1228.855-749.743-813.993-748.182-399.063-752.435 15.745-747.652 27.32-747.144 31.998-743.538 31.782-731.183 32.822-563.61 30.71-396.016 31.465-228.419" fill="#231f20"/>
</g>
</g>
</svg>
