<svg xmlns="http://www.w3.org/2000/svg" xmlns:xlink="http://www.w3.org/1999/xlink" xmlns:inkscape="http://www.inkscape.org/namespaces/inkscape" version="1.1" width="2048" height="1920" viewBox="0 0 2048 1920">
<defs>
<clipPath id="clip_1">
<path transform="matrix(1,0,0,-1,0,1920)" d="M0 1920H2048V0H0Z"/>
</clipPath>
</defs>
<g inkscape:groupmode="layer" inkscape:label="Layer 1">
<g clip-path="url(#clip_1)">
<path transform="matrix(1,0,0,-1,1836.27,958.3151)" d="M0 0C-16.87 36.206-29.367 71.86-30.347 109.216-31.59 157.33-69.393 183.904-89.633 220.66-95.177 230.724-108.797 232.258-120.984 228.017-135.226 223.08-134.557 211.1-134.629 199.526-134.677 193.776-135.155 187.666-133.482 182.346-128.225 165.669-125.548 153.066-150.329 150.573-164.475 149.159-166.219 134.783-166.219 121.149-166.244 76.102-199.745 48.498-222.853 15.575-226.365 10.591-231.79 12.724-235.398 16.102-242.543 22.811-262.161 25.375-256.833 33.666-247.107 48.761-269.283 71.118-240.321 81.828-209.829 93.114-199.124 127.906-208.467 159.2-210.116 164.759-213.844 166.22-217.882 168.688-245.482 185.581-249.664 209.591-238.576 238.224-227.226 267.481-226.341 297.864-227.369 328.87-227.751 340.923-233.343 347.177-239.724 355.707-260.321 383.239-279.27 362.296-299.033 355.707-311.937 351.394-323.717 332.824-336.836 343.391-349.597 353.622-336.955 370.635-334.017 383.861-330.862 398.143-328.114 412.303-329.62 426.489-335.139 478.317-302.76 506.975-265.626 531.823-246.151 544.858-184.284 527.582-167.295 503.453-108.965 420.594-56.777 334.908-27.169 236.068-5.735 164.543 3.872 92.539 5.186 18.69 5.281 13.37 7.695 7.452 0 0M-13.023-161.068C-29.678-109.719-30.061-57.028-25.688-3.953 11.542-73.753 11.925-78.45-13.023-161.068M-68.629 101.956C-76.132 101.956-82.225 106.293-82.225 111.636-82.225 116.98-76.132 121.316-68.629 121.316-61.125 121.316-55.032 116.98-55.032 111.636-55.032 106.293-61.125 101.956-68.629 101.956M-68.629 64.864C-76.132 64.864-82.225 69.2-82.225 74.544-82.225 79.911-76.132 84.249-68.629 84.249-61.125 84.249-55.032 79.911-55.032 74.544-55.032 69.2-61.125 64.864-68.629 64.864M-68.629 27.771C-76.132 27.771-82.225 32.109-82.225 37.452-82.225 42.819-76.132 47.156-68.629 47.156-61.125 47.156-55.032 42.819-55.032 37.452-55.032 32.109-61.125 27.771-68.629 27.771M-109.586 47.156C-102.083 47.156-96.013 42.819-96.013 37.452-96.013 32.109-102.083 27.771-109.586 27.771-117.089 27.771-123.183 32.109-123.183 37.452-123.183 42.819-117.089 47.156-109.586 47.156M-123.183 111.636C-123.183 116.98-117.089 121.316-109.586 121.316-102.083 121.316-96.013 116.98-96.013 111.636-96.013 106.293-102.083 101.956-109.586 101.956-117.089 101.956-123.183 106.293-123.183 111.636M-109.586 84.249C-102.083 84.249-96.013 79.911-96.013 74.544-96.013 69.2-102.083 64.864-109.586 64.864-117.089 64.864-123.183 69.2-123.183 74.544-123.183 79.911-117.089 84.249-109.586 84.249M-71.376-243.4C-80.863-243.831-90.422-243.903-99.908-243.52-124.449-242.537-148.632-236.667-173.46-237.553-139.623-230.053-105.715-231.563-72.571-225.213-67.266-224.207-60.121-225.117-60.098-232.976-60.098-239.47-65.092-243.112-71.376-243.4M-169.254 36.709C-165.025 13.49-174.416-4.098-179.912-23.266-215.971 6.901-215.971 6.901-169.254 36.709M-287.037-396.081C-286.129-382.4-277.048-366.01-277.048-366.01-252.317-404.815-277.048-432.502-277.048-432.502-282.497-422.487-287.037-396.081-287.037-396.081M-206.03-344.637C-192.6-367.687-186.985-390.978-191.955-415.921-197.117-441.824-197.117-467.271-194.154-493.149-189.876-530.433-202.637-560.409-232.124-583.747-245.96-594.698-258.649-607.109-274.683-621.366-280.346-594.65-279.414-570.472-276.045-550.369-268.565-505.705-278.076-458.716-257.024-415.849-250.07-401.641-255.064-385.658-262.735-371.737-272.461-354.149-273.01-336.106-269.951-316.29-266.821-295.803-281.111-279.677-291.386-263.479-294.946-257.849-304.839-258.878-309.667-263.767-316.907-271.171-326.848-281.354-322.092-291.179-309.714-316.817-332.988-325.539-344.578-333.83-356.192-342.144-361.281-349.357-363.599-362.32-371.605-407.032-389.407-447.191-424.821-483.78-439.158-436.911-469.984-398.095-446.685-344.541-428.859-303.591-430.532-256.722-424.868-212.274-423.673-203.049-425.872-192.937-414.593-187.498-379.371-170.485-359.728-137.418-370.864-97.81-381.091-61.365-414.498-50.415-452.635-44.664-406.302-12.507-359.203 9.68-313.538 35.798-300.677 6.721-299.397-1.685-279.54 10.101-275.259 12.641-271.465 15.936-266.613 13.814-235.023 0-186.909-39.834-184.615-67.917-181.532-105.871-188.968-134.567-200.414-170.317-202.995-178.464-205.672-186.946-207.822-194.662-218.098-231.419-224.573-245.748-261.134-243.208-248.78-282.289-224.931-312.289-206.03-344.637M-307.205-646.118C-318.484-652.061-321.901-641.158-327.636-635.911-354.853-610.943-357.912-582.118-344.817-548.116-334.924-522.477-323.526-498.061-307.253-474.507-300.371-495.904-294.062-516.416-293.943-538.316-293.776-566.735-300.873-595.105-294.086-623.571-291.362-634.976-298.22-641.374-307.205-646.118M-389.527-554.37C-415.358-523.412-429.103-505.012-388.109-467.117-370.207-450.568-366.641-423.945-356.723-401.925-353.57-394.88-360.684-376.912-349.214-378.23-338.509-379.476-335.88-392.727-334.327-409.26-358.988-449.18-352.488-501.368-366.395-549.171-371.342-566.135-379.921-565.872-389.527-554.37M-414.761-632.796C-445.085-593.883-475.265-554.825-505.828-516.056-521.121-496.672-508.241-479.299-500.857-463.101-496.437-453.397-486.639-461.975-483.198-467.822-466.351-496.36-445.276-522.166-437.724-556.407-432.18-581.567-418.608-604.953-408.595-629.13-410.65-630.352-412.706-631.574-414.761-632.796M-449.003-652.756C-474.07-623.355-504.776-587.557-526.522-554.706L-518.015-547.757C-494.621-580.225-468.765-610.943-440.807-647.844ZM-481.478-658.722C-502.387-661.358-522.579-652.54-543.918-656.781-557.084-659.393-555.388-645.927-553.548-638.403-548.267-616.909-541.457-595.8-533.953-570.089-511.73-597.309-492.709-620.744-473.497-644.034-463.508-656.11-470.821-657.38-481.478-658.722M-546.499-775.989C-555.722-783.154-575.652-795.709-584.397-779.416-609.082-733.53-651.927-739.568-691.857-736.573-700.914-735.878-712.431-737.292-712.623-727.252-713.149-695-729.23-666.486-731.835-646.262-731.477-598.89-718.812-565.848-706.004-532.805-702.921-524.874-698.955-520.082-689.491-520.105-679.503-520.13-673.625-514.906-674.27-503.74-674.867-493.556-680.387-488.501-689.515-485.458-704.403-480.498-726.793-482.678-710.807-453.421-704.188-441.273-729.661-428.022-743.735-437.583-754.967-445.226-763.258-455.889-766.173-469.906-767.846-477.885-776.043-484.044-779.723-477.191-798.624-442.183-837.909-437.487-866.417-417.191-884.195-404.564-886.441-396.656-876.907-379.309-859.319-347.416-834.707-328.463-797.023-329.517-787.465-329.805-776.616-331.745-768.563-328.079-734.344-312.624-712.647-328.702-693.363-354.485-653.886-407.319-614.434-460.13-574.313-512.438-564.803-524.85-560.262-535.968-566.428-551.639-577.396-579.506-564.707-611.303-579.69-638.786-584.135-646.933-582.51-660.28-600.002-655.152-614.148-651.03-611.878-665.335-610.755-672.428-607.099-695.143-601.316-717.284-580.718-731.781-572.139-737.842-563.297-743.953-556.177-751.573-549.892-758.282-534.025-766.309-546.499-775.989M-773.223-692.532C-775.541-704.943-787.058-698.618-794.634-699.936-799.867-700.846-805.458-703.77-805.147-708.035-802.352-747.092-830.668-731.733-848.973-733.602-853.68-734.081-858.483-733.673-863.262-733.673-877.552-733.673-891.866-733.985-906.155-733.53-912.106-733.338-920.565-736.501-922.166-726.604-923.408-718.961-923.886-709.736-915.451-706.525-903.527-702.02-898.581-691.693-891.579-682.947-869.667-655.511-819.987-648.251-790.165-668.546-781.634-674.345-770.928-680.215-773.223-692.532M-835.567-446.065C-834.085-444.028-827.156-446.616-820.155-451.815-813.129-457.015-808.636-462.886-810.142-464.922-811.647-466.959-818.553-464.371-825.579-459.172-832.604-453.972-837.073-448.102-835.567-446.065M-908.426-429.22C-911.556-434.683-916.503-437.679-919.489-435.953-922.476-434.228-922.357-428.405-919.226-422.966-916.096-417.527-911.126-414.507-908.139-416.233-905.152-417.982-905.271-423.781-908.426-429.22M-865.962-424.02C-856.787-430.825-850.956-438.469-852.916-441.129-854.851-443.788-863.884-440.434-873.036-433.653-882.212-426.848-888.042-419.18-886.083-416.545-884.124-413.885-875.115-417.239-865.962-424.02M-884.076-386.928C-887.206-392.391-892.152-395.387-895.139-393.661-898.126-391.936-898.007-386.114-894.877-380.674-891.747-375.235-886.776-372.216-883.789-373.941-880.802-375.691-880.922-381.489-884.076-386.928M-1004.678-728.401C-1028.718-724.4-1026.926-703.721-1030.367-688.554-1046.878-615.784-1061.24-542.581-1066.76-467.918-1068.409-445.562-1075.291-429.004-1103.655-426.345-1132.856-423.613-1160.479-414.1-1175.582-382.735-1182.965-367.376-1202.273-361.888-1217.113-353.358-1225.907-348.279-1235.871-344.708-1242.084-331.098H-867.731C-876.238-343.63-883.526-354.221-890.671-364.908-890.671-364.908-898.198-375.786-908.426-391.721L-973.232-344.708C-972.562-345.834-970.197-354.748-960.901-364.333-946.731-378.925-922.763-396.585-915.547-402.982-922.405-413.957-929.884-426.369-936.838-438.876-952.394-466.84-961.474-494.323-961.594-527.917-949.694-519.483-948.834-507.358-947.208-500.481-939.323-467.175-925.129-457.063-909.357-440.554-903.694-434.635-899.226-432.838-892.535-438.014-869.977-455.53-842.712-465.641-821.206-485.17-797.286-506.879-792.746-533.788-795.757-563.572-797-575.911-803.571-584.778-815.279-589.474-830.286-595.512-844.815-604.522-860.395-606.941-891.149-611.734-904.148-633.395-915.69-657.692-924.268-675.806-933.636-693.346-945.918-709.353-961.331-729.456-981.26-732.332-1004.678-728.401M-1251.523-307.472C-1261.75-307.281-1272.694-308.551-1272.671-299.9-1272.647-287.92-1259.576-289.741-1251.355-289.501-1240.889-289.19-1229.3-289.19-1228.75-300.236-1228.272-309.82-1243.088-306.73-1251.523-307.472M-1278.406-257.656H-1230.16L-1226.671-270.356H-1278.406ZM-1374.515-220.924C-1373.511-201.635-1397.049-179.854-1370.715-161.476-1360.154-154.095-1366.176-140.605-1368.493-129.751-1377.693-86.956-1387.251-44.233-1396.093-1.366-1397.431 5.247-1403.931 14.616-1393.608 18.762-1386.463 21.613-1382.353 13.346-1378.076 8.65-1346.771-25.614-1319.173-58.799-1290.188-95.555-1272.935-117.408-1272.671-135.717-1263.877-164.471-1260.723-174.822-1255.37-218.504-1229.18-182.849-1223.158-174.655-1218.331-197.322-1217.519-204.319-1215.798-219.342-1212.859-232.09-1192.357-242.13-1245.357-245.987-1290.593-245.891-1335.804-243.543-1352.34-242.681-1375.16-233.743-1374.515-220.924M-1409.283 87.747-1399.892 95.079-1388.877 90.574-1383.404 50.822-1392.795 43.514-1403.788 47.995ZM-1435.951-244.813C-1451.078-244.262-1466.251-242.969-1481.282-241.027-1486.348-240.38-1493.732-238.895-1492.99-231.347-1492.226-223.56-1485.081-224.686-1479.585-224.59-1470.074-224.422-1460.564-224.542-1451.054-224.542-1445.342-224.518-1439.464-223.68-1433.968-224.709-1426.489-226.123-1413.513-219.414-1412.724-231.395-1411.793-246.108-1425.724-245.197-1435.951-244.813M-1487.495-8.291C-1488.785-50.63-1494.663-86.093-1502.621-128.553-1511.224-99.488-1502.645-33.45-1487.495-8.291M-1430.264-104.735C-1454.925-16.03-1501.402 65.942-1511.797 158.696-1488.092 69.656-1437.792-11.142-1430.264-104.735M-1421.47 329.637C-1414.158 329.828-1410.192 325.419-1407.3 318.974-1405.819 315.667-1404.839 312.169-1404.194 308.599-1400.681 289.765-1402.115 275.317-1419.678 260.101-1428.974 280.301-1415.855 302.656-1432.558 320.052-1439.392 327.193-1427.635 329.493-1421.47 329.637M-1248.249-138.185-1239.073-138.976-1225.883-167.154-1231.164-174.726-1240.339-173.959-1253.53-145.781ZM-1163.299-257.656-1159.787-270.356H-1211.521V-257.656ZM-1092.854-288.759C-1084.156-288.759-1073.355-291.298-1073.355-301.122-1073.355-307.568-1085.279-307.185-1091.779-307.305-1107.359-307.568-1122.461-307.999-1137.802-307.999-1147.743-307.999-1157.66-307.975-1167.6-307.975-1175.869-307.975-1184.16-307.999-1192.428-308.047-1199.86-308.095-1207.435-305.556-1208.128-298.439-1209.012-289.046-1199.98-289.741-1193.504-289.645-1159.954-289.19-1126.404-288.711-1092.854-288.759M-1134.003-257.656H-1085.781L-1082.268-270.356H-1134.003ZM-1052.733-296.522C-1052.136-287.608-1042.959-289.453-1036.532-289.549-1005.515-290.028-974.784-292.664-945.273-307.544-975.621-307.544-1005.993-307.64-1036.34-307.448-1044.011-307.424-1053.426-306.514-1052.733-296.522M-1072.136 18.809C-1070.081 49.528-1059.95 78.066-1045.851 109.144-993.949 40.926-943.552-24.848-893.682-91.005-854.732-142.642-816.426-194.782-777.835-246.682-773.414-252.624-764.668-257.129-767.631-265.876-770.952-275.699-780.654-271.578-787.632-271.866-954.736-278.911-1083.224-147.65-1072.136 18.809M-1088.983 191.619-1201.379 353.256C-1197.453 354.713-1193.697 356.52-1190.133 358.62L-1082.364 203.025ZM-1225.883 357.473C-1260.194 357.473-1288.109 385.464-1288.109 419.869-1288.109 444.367-1273.951 465.602-1253.415 475.807L-1245.74 463.101C-1245.74 463.101-1291.119 446.664-1278.501 402.431-1278.501 402.431-1272.288 364.692-1223.134 362.799-1223.605 362.831-1222.792 361.007-1220.938 357.688-1222.571 357.558-1224.217 357.473-1225.883 357.473M-1264.412 544.591C-1257.956 539.253-1249.688 536.042-1240.686 536.042-1235.152 536.042-1229.9 537.265-1225.171 539.439L-1184.389 477.349C-1195.354 485.33-1208.674 490.236-1223.094 490.8-1227.296 491.06-1229.969 490.897-1229.969 490.897ZM-1299.291 598.963-1293.006 619.186-1273.234 591.833C-1276.285 586.408-1278.036 580.154-1278.036 573.494-1278.036 570.168-1277.596 566.943-1276.78 563.871ZM-1240.686 605.915C-1222.858 605.915-1208.354 591.371-1208.354 573.494-1208.354 566.194-1210.774 559.451-1214.85 554.026L-1218.093 558.827C-1215.344 563.044-1213.767 568.077-1213.767 573.492-1213.767 588.396-1225.811 600.472-1240.698 600.472-1246.17 600.472-1251.26 598.843-1255.489 596.016-1255.957 597.589-1256.56 599.368-1257.331 601.277-1252.465 604.219-1246.77 605.915-1240.686 605.915M-1269.943 587.278-1266.195 582.094C-1267.103 579.386-1267.605 576.511-1267.605 573.492-1267.605 558.588-1255.561 546.511-1240.698 546.511-1237.281 546.511-1234.007 547.158-1230.996 548.309L-1227.965 543.693C-1231.871 542.009-1236.171 541.073-1240.686 541.073-1258.514 541.073-1273.018 555.617-1273.018 573.494-1273.018 578.422-1271.912 583.092-1269.943 587.278M-1221.462 480.162C-1221.462 480.162-1206.24 481.552-1189.8 470.41-1186.71 468.325-1183.873 465.944-1181.291 463.326-1180.952 462.977-1180.615 462.625-1180.284 462.267-1180.083 462.053-1179.882 461.837-1179.684 461.62-1177.189 458.847-1174.944 455.846-1172.971 452.658-1172.839 452.443-1172.701 452.231-1172.572 452.015-1172.358 451.66-1172.159 451.297-1171.954 450.937-1168.914 445.6-1166.649 439.79-1165.224 433.731-1165.153 433.42-1165.075 433.112-1165.009 432.8-1164.924 432.409-1164.851 432.003-1164.775 431.601-1164.685 431.124-1164.599 430.646-1164.519 430.166-1163.355 422.844-1163.563 413.957-1165.421 405.153-1167.182 397.88-1170.204 391.096-1174.263 385.063-1176.97 384.417-1181.589 385.974-1183.611 387.815-1183.611 387.815-1163.347 451.097-1223.35 473.836-1223.35 473.836-1226.121 480.234-1221.462 480.162M-1210.948 367.017-1200.529 373.63-1195.043 365.709C-1198.647 363.638-1202.474 361.917-1206.482 360.594ZM-1064.036 221.691-1170.635 372.815C-1170.635 372.815-1162.845 381.845-1158.543 397.956-1156.302 404.863-1155.075 412.224-1155.075 419.869-1155.075 427.255-1156.209 434.38-1158.306 441.082L-1035.002 255.476C-1044.083 246.323-1053.999 235.133-1064.036 221.691M-999.374 92.731C-914.232-17.684-829.569-128.457-745.527-239.685-741.632-244.838-728.609-252.098-737.714-260.125-749.518-270.572-756.185-257.465-762.135-249.51-819.198-173.073-876.023-96.469-932.919-19.912-964.844 23.003-996.793 65.918-1028.742 108.833-1033.688 115.494-1041.717 121.365-1033.759 132.554-1016.459 124.288-1009.911 106.389-999.374 92.731M-1010.389 165.501C-1002.671 175.229-995.454 185.533-984.391 190.661-976.147 191.499-974.354 185.197-970.961 180.813-880.683 63.522-790.356-53.721-700.054-171.013-690.758-183.065-680.746-194.71-672.597-207.505-668.272-214.286-648.271-221.211-666.551-230.652-680.555-237.864-695.609-262.832-714.606-238.512-751.788-190.972-787.943-142.642-824.455-94.576-884.148-16.03-943.84 62.516-1003.412 141.157-1008.717 148.177-1019.303 154.24-1010.389 165.501M-954.139 216.108C-882.188 268.679-760.907 269.465-681.941 229.238-669.729 223.017-673.86 191.399-673.358 172.277-672.402 136.383-683.159 117.698-712.098 110.678-710.472 139.887-684.473 165.477-701.774 200.509-706.553 160.757-724.547 129.895-741.991 98.577-745.408 92.443-755.158 83.745-745.934 75.67-739.792 70.303-731.524 66.756-722.061 71.118-698.285 82.02-700.34 65.63-704.14 51.972-708.011 38.003-707.987 27.436-692.335 22.572-682.466 19.529-684.999 12.987-687.006 6.565-689.874-2.684-692.12-11.573-687.532-21.23-684.067-28.538-681.391-36.014-671.403-32.875-662.513-30.095-654.078-23.889-658.356-14.161-668.535 9.106-660.769 20.894-639.143 32.156-622.344 40.926-626.048 59.712-635.655 76.82-630.254 75.502-627.984 75.67-627.195 74.664-617.087 61.988-604.183 42.172-589.224 53.985-574.337 65.75-587.838 85.567-598.64 98.673-617.469 121.556-631.974 144.847-617.947 179.423-591.949 153.904-573.405 125.821-560.286 94.528-518.827-4.337-547.215-128.025-626.072-200.749-641.819-215.269-649.609-214.718-663.254-196.723-761.418-67.188-860.729 61.437-960.376 189.798-971.296 203.864-964.749 208.369-954.139 216.108M-634.531 121.149C-668.009 147.195-654.89 179.758-657.734 213.4-637.853 201.468-626.334 191.787-637.447 170.725-645.069 156.3-635.487 140.222-634.531 121.149M-890.289 322.256C-880.468 372.049-861.805 388.797-830.764 387.216-816.69 386.497-791.455 384.604-771.717 382.903-764.525 382.28-749.279 380.914-740.796 380.172-737.451 379.86-734.894 377.176-734.631 373.822-732.457 347.728-712.719 365.148-701.511 372.791-695.992 376.553-690.71 380.746-685.573 385.06-638.02 425.051-640.815 416.88-683.804 451.696-696.374 461.88-708.107 470.913-723.878 483.11-727.342 485.769-732.409 483.636-732.934 479.275-736.16 452.678-747.081 454.308-765.552 455.243-832.508 458.645-832.031 458.285-803.953 520.225-781.586 569.562-760.63 619.545-732.145 668.427-732.145 641.518-729.35 614.226-732.695 587.725-740.413 526.671-711.141 487.638-660.267 457.519-654.723 483.972-658.403 510.377-657.901 536.471-657.208 571.048-657.973 605.672-657.591 640.272-657.519 646.502-661.032 654.889-653.935 658.674-646.981 662.388-642.13 655.607-636.658 651.845-589.559 619.521-565.687 572.27-555.794 518.285-542.054 443.549-561.171 375.858-608.365 316.482-614.841 308.359-623.443 301.674-631.974 295.612-637.948 291.37-656.515 279.15-656.515 279.15-656.515 279.15-657.399 303.399-657.519 310.563-657.925 333.183-657.686 355.827-657.686 381.466-680.507 372.911-689.874 355.131-703.089 342.265-724.451 321.514-745.934 313.511-777.668 319.956-814.371 327.433-853.25 325.467-891.22 313.056-890.647 318.662-890.623 320.507-890.289 322.256M-322.331 161.667C-353.897 157.211-367.327 170.054-361.831 202.162-360.899 207.625-360.564 214.67-363.169 219.079-382.812 252.098-360.995 252.865-337.601 253.535-331.125 253.727-324.673 257.154-318.221 257.177-307.277 257.202-301.638 278.599-293.824 269.039-284.647 257.777-274.11 242.897-277.551 225.285-281.135 206.739-284.671 188.145-289.546 169.934-293.011 157.019-305.126 162.458-312.534 160.733-316.668 161.165-319.583 162.051-322.331 161.667M-421.224 170.15C-421.224 173.624-411.762 176.452-400.076 176.452-388.391 176.452-378.928 173.624-378.928 170.15-378.928 166.651-388.391 163.824-400.076 163.824-411.762 163.824-421.224 166.651-421.224 170.15M-468.909 245.197C-459.708 260.077-454.404 277.377-444.129 300.979-437.605 250.229-454.714 210.501-455.67 169.072-455.933 157.307-464.607 158.84-472.111 158.912-479.089 158.96-479.041 162.386-482.075 168.976-495.816 198.904-483.772 221.163-468.909 245.197M-489.578 64.936C-491.562 75.311-500.021 93.09-479.064 93.641-427.091 94.959-375.07 94.073-323.072 94.073-322.571 91.556-322.068 89.065-321.543 86.549-372.824 69.536-421.356 44.161-476.005 37.691-498.038 35.08-487.714 55.183-489.578 64.936M-444.905-79.599C-465.456-80.654-480.665-95.929-481.669-116.536H-499.065C-498.062-86.464-474.99-63.57-444.905-62.922ZM-499.065-123.149H-481.669C-480.594-143.684-465.408-158.888-444.905-159.942V-176.619C-474.942-175.973-497.966-153.149-499.065-123.149M-660.505-296.713C-652.286-287.273-638.521-282.696-629.226-277.185-621.15-276.586-618.712-280.036-615.653-284.134-595.27-311.522-574.29-338.478-553.787-365.818-547.096-376.337-548.888-380.291-563.943-389.205-566.404-390.666-568.889-392.487-570.729-393.47-592.856-405.402-606.238-382.352-617.302-369.82-629.871-355.587-640.529-339.581-651.091-323.742-656.515-315.595-668.941-306.394-660.505-296.713M-554.049-505.321C-556.32-507.094-558.566-508.868-560.836-510.665-611.185-448.7-659.526-385.179-705.287-319.62-702.587-317.272-699.886-314.925-697.21-312.576-649.49-376.816-601.77-441.081-554.049-505.321M-548.004-458.405C-561.983-439.068-584.111-431.281-574.242-412.567-570.179-404.852-544.037-394.141-537.179-402.024-521.288-420.259-549.151-432.91-548.004-458.405M-478.228-331.098C-478.228-340.826-486.09-348.71-495.768-348.71-505.47-348.71-513.331-340.826-513.331-331.098-513.331-321.37-505.47-313.487-495.768-313.487-486.09-313.487-478.228-321.37-478.228-331.098M-480.259-260.292C-487.93-251.666-483.987-241.363-486.759-232.713-489.292-224.781-490.2-215.628-502.626-216.395-513.857-217.09-521.671-221.259-520.787-233.096-518.708-261.443-513.355-288.59-540.859-311.234-550.465-319.165-533.404-339.413-539.21-358.893-565.018-330.403-585.903-301.554-606.166-272.201-611.161-264.941-607.481-260.005-601.674-255.26-571.804-230.82-546.881-202.138-527.931-168.401-519.472-153.329-510.344-147.362-501.311-162.578-496.819-170.15-491.872-178.368-477.415-185.078-465.659-190.541-449.959-188.48-451.942-204.51-454.499-225.069-457.176-248.24-480.259-260.292M-426.589-119.759C-426.589-128.097-433.304-134.831-441.595-134.831-449.888-134.831-456.626-128.097-456.626-119.759-456.626-111.444-449.888-104.711-441.595-104.711-433.304-104.711-426.589-111.444-426.589-119.759M-385.727-123.149C-386.802-152.645-408.99-175.134-438.31-176.571V-159.942C-417.807-158.912-402.622-143.708-401.546-123.149ZM-401.546-116.536C-402.55-95.929-417.759-80.63-438.31-79.599V-62.97C-408.942-64.408-386.707-86.968-385.727-116.536ZM-657.877 735.83C-656.682 751.118-657.185 766.596-657.734 781.956-658.212 795.398-654.651 802.898-639.31 798.298-560.884 783.561-488.264 752.459-417.628 716.23-357.673 685.463-305.915 642.788-253.798 600.712-246.343 594.674-237.859 587.629-241.157 577.134-244.048 567.957-256.856 565.273-262.783 566.28-313.8 574.906-347.733 547.685-379.801 514.307-388.762 504.986-399.754 502.423-408.333 516.368-420.662 536.375-435.526 526.312-450.724 520.585-471.059 512.941-459.063 499.475-455.503 489.962-447.068 467.486-449.242 447.599-468.55 433.725-495.648 414.245-501.168 382.4-499.304 357.049-496.532 318.734-516.82 287.034-517.298 250.756-517.489 235.085-519.424 218.408-528.816 204.103-537.108 191.427-543.034 184.934-555.483 201.755-567.909 218.576-584.206 232.545-599.165 247.426-609.273 257.465-609.082 264.342-598.233 275.532-499.949 376.697-489.005 489.507-551.206 609.314-571.135 647.7-601.411 680.072-639.334 702.141-654.317 710.862-659.096 719.872-657.877 735.83M-1552.611-241.555C-1555.431-241.794-1558.323-241.123-1567.785-240.309-1568.43-240.333-1573.377-240.404-1578.275-240.285-1588.001-240.021-1594.955-236.331-1595.408-225.357-1595.695-218.72-1597.081-211.1-1587.977-209.231-1578.849-207.338-1570.342-208.488-1568.406-219.894-1566.59-230.628-1560.521-231.538-1551.871-228.4-1544.725-225.788-1534.379-221.978-1533.446-232.545-1532.228-246.059-1545.012-240.859-1552.611-241.555M-1558.178-13.49-1550.126-9.201-1544.916-16.725-1557.175-67.331-1565.252-71.621-1570.461-64.097ZM-1328.659 636.151C-1329.471 630.304-1333.151 626.015-1336.926 626.518-1340.678 627.046-1343.068 632.221-1342.256 638.044-1341.443 643.866-1337.739 648.179-1333.988 647.652-1330.236 647.125-1327.846 641.973-1328.659 636.151M-185.336 600.808C-317.194 741.964-481.502 823.505-669.944 858.081-716.757 866.659-716.876 865.605-738.598 822.091-745.408 808.457-755.396 795.734-759.052 781.333-767.87 746.78-792.674 741.653-822.688 738.586-1006.901 719.824-1105.113 522.789-1031.131 352.472-1027.738 344.637-1023.46 334.836-1014.476 335.531-1005.132 336.25-1003.364 347.632-999.828 355.252-996.076 363.399-996.697 371.497-1000.64 380.076-1025.85 434.803-1027.594 490.849-1010.031 548.212-983.793 633.97-886.609 706.286-797.166 702.979-816.355 662.245-834.826 622.804-853.537 583.46-900.23 485.29-946.802 387.024-993.949 289.07-993.949 289.07-1005.276 282.648-1021.716 268.056L-1211.9 549.657C-1206.553 556.138-1203.336 564.446-1203.336 573.494-1203.336 594.145-1220.091 610.946-1240.686 610.946-1247.515 610.946-1253.915 609.09-1259.429 605.869-1263.151 613.202-1269.311 621.47-1279.457 627.405-1279.457 627.405-1269.063 661.526-1309.231 667.228-1309.231 667.228-1301.895 700.272-1328.683 699.505-1327.057 698.019-1325.672 695.767-1324.859 693.107-1323.163 687.476-1324.74 682.013-1328.372 680.911-1332.004 679.808-1336.329 683.498-1338.002 689.153-1338.647 691.262-1338.815 693.346-1338.6 695.191-1345.434 689.848-1351.623 678.514-1336.64 655.847-1336.64 655.847-1359.341 645.879-1347.99 615.568-1347.99 615.568-1320.104 527.558-1261.965 489.962L-1257.869 483.181C-1280.88 471.445-1296.69 447.481-1296.69 419.869-1296.69 380.719-1264.926 348.868-1225.883 348.868-1222.581 348.868-1219.337 349.114-1216.154 349.555-1192.833 311.101-1118.851 200.034-1097.275 167.73-1109.151 144.176-1119.928 116.74-1128.22 84.991-1156.035-21.469-1125.926-122.586-1059.376-207.553-1040.57-231.515-1013.95-247.425-992.731-276.945-1021.716-275.268-1045.397-273.927-1072.758-272.369-1058.898-254.062-1053.378-239.589-1083.224-244.046-1093.715-245.604-1095.148-236.691-1099.211-230.628-1110.083-214.31-1121.099-198.065-1132.832-180.645-1140.001-201.108-1125.185-210.788-1117.252-223.152-1111.852-231.563-1104.706-240.333-1120.311-244.861-1164.184-257.608-1207.244-228.831-1208.295-182.801-1208.94-155.054-1221.557-137.227-1241.606-123.113-1259.193-110.726-1270.386-94.848-1282.502-77.571-1313.996-32.619-1359.556 4.768-1369.449 62.947-1374.611 93.138-1382.042 122.97-1382.879 153.784-1383.141 163.8-1383.309 176.691-1395.161 176.068-1430.837 174.152-1423.143 193.44-1417.719 215.03-1413.346 232.449-1415.162 247.593-1404.743 263.503-1395.735 277.257-1396.236 298.583-1399.725 314.805-1399.725 314.901-1400.371 316.458-1400.371 316.554-1409.379 349.453-1432.152 334.046-1452.846 333.47-1434.374 314.589-1434.135 291.466-1434.613 268.056-1434.804 259.095-1439.202 257.441-1447.565 257.896-1472.488 259.286-1480.35 247.018-1471.795 224.111-1463.79 202.594-1488.235 195.214-1490.888 178.464-1522.191 184.335-1525.346 162.482-1530.723 140.031-1554.117 42.172-1593.449-51.853-1601.215-153.521-1601.502-157.282-1601.502-161.452-1606.114-162.769-1612.135-164.543-1614.406-159.247-1617.465-155.964-1636.246-135.861-1634.12-114.032-1624.944-90.047-1617.465-70.47-1614.621-45.623-1636.342-36.206-1664.802-23.842-1651.946-17.708-1637.274-7.476-1626.473 .072-1618.516 40.519-1627.477 42.867-1650.178 48.809-1660.764 64.552-1668.387 87.747-1675.436 72.867-1676.129 62.395-1676.201 51.805-1676.655-9.656-1675.077-70.686-1665.519-131.883-1629.795-360.091-1519.587-545.217-1339.006-685.08-1159.595-824.008-954.115-883.192-726.626-861.22-587.767-847.802-457.964-805.605-343.121-727.755-85.69-553.244 49.775-310.18 51.711 4.457 53.145 235.66-28.937 433.341-185.336 600.808" fill="#231f20"/>
</g>
</g>
</svg>
