<svg xmlns="http://www.w3.org/2000/svg" xmlns:xlink="http://www.w3.org/1999/xlink" xmlns:inkscape="http://www.inkscape.org/namespaces/inkscape" version="1.1" width="2048" height="1920" viewBox="0 0 2048 1920">
<defs>
<clipPath id="clip_1">
<path transform="matrix(1,0,0,-1,0,1920)" d="M0 1920H2048V0H0Z"/>
</clipPath>
</defs>
<g inkscape:groupmode="layer" inkscape:label="Layer 1">
<g clip-path="url(#clip_1)">
<path transform="matrix(1,0,0,-1,1601.9647,1234.5537)" d="M0 0H-2.252C-4.943 0-6.773 2.778-5.638 5.209-4.254 8.175-3.045 11.317-2.036 14.653 6.293 42.156 14.263 69.776 22.196 97.41 22.652 98.996 24.108 100.09 25.764 100.09H26.99C29.393 100.09 31.175 97.846 30.606 95.52 22.939 64.165 13.236 33.394 3.542 2.592 3.057 1.05 1.622 0 0 0M-791.677-78.122C-791.677-76.104-790.042-74.464-788.017-74.45-774.717-74.358-761.4-74.291-748.36-74.519-721.613-74.988-692.478-73.245-665.731-73.885-634.93-74.621-604.115-74.891-573.31-74.299-546.846-73.79-520.34-74.498-493.862-74.015-466.633-73.518-438.563-74.332-411.359-75.012-397.129-75.368-382.789-75.72-368.405-75.954-366.394-75.986-364.78-77.616-364.78-79.62V-87.474C-364.78-89.5-366.428-91.144-368.463-91.146-508.311-91.272-648.155-91.399-787.997-91.073-790.031-91.069-791.677-89.425-791.677-87.4ZM-1136.693-13.374C-1136.663-13.374-1136.636-13.365-1136.607-13.365-1128.725-21.289-1119.011-27.387-1107.334-31.638-1057.302-49.854-1005.487-60.697-952.899-66.853-925.552-70.054-898.082-72.187-870.574-73.389-856.695-73.995-842.806-74.365-828.915-74.519-822.287-74.594-815.568-74.598-808.806-74.574-806.765-74.567-805.103-76.211-805.103-78.244V-87.352C-805.103-89.384-806.76-91.03-808.8-91.025-837.514-90.948-866.229-90.858-894.944-90.737-963.968-90.44-1032.843-85.084-1101.212-74.143-1109.06-72.888-1116.65-70.605-1124.012-67.601-1133.537-63.717-1140.135-57.046-1143.478-46.274-1146.395-36.882-1149.433-27.53-1152.517-18.193-1153.301-15.817-1151.528-13.374-1149.018-13.374ZM-1182.054 100.09C-1180.411 100.09-1178.966 99.006-1178.512 97.432-1171.437 72.894-1164.309 48.372-1157.358 23.795-1155.467 17.104-1153.066 10.96-1150.151 5.349-1148.882 2.906-1150.659 0-1153.42 0H-1155.905C-1157.494 0-1158.904 1.013-1159.405 2.515-1169.644 33.217-1179.789 63.952-1187.201 95.593-1187.739 97.892-1185.973 100.09-1183.603 100.09ZM-117.234 403.5C-122.106 391.295-128.545 380.038-134.676 368.584-146.195 347.05-157.942 325.644-169.134 303.931-172.041 298.308-175.275 296.756-181.238 296.875-229.358 297.863-272.971 299.932-320.763 291.689-322.185 291.444-323.525 291.102-324.806 290.679-308.039 314.05-289.744 356.653-284.412 376.513-279.392 395.212-272.252 402.84-255 403.56-220.375 405.004-185.775 407.127-151.167 409.018-148.864 409.144-145.601 408.023-144.694 411.038-143.509 414.974-147.428 415.409-149.6 416.625-166.414 426.042-184.121 432.499-203.266 433.631-216.32 434.403-229.391 434.794-242.5 432.39-230.134 428.878-217.222 428.062-203.849 423.668-200.938 422.712-201.182 418.52-204.189 417.925-222.697 414.263-242.075 414.558-258.604 411.878-262.786 411.199-264.495 417.06-260.577 418.666-254.924 420.983-248.932 422.695-243.436 426.403-250.859 429.35-258.553 425.979-263.841 430.072-273.215 437.33-276.635 432.861-278.817 423.481-278.92 423.043-279.717 422.786-280.605 422.146-278.645 433.273-285.69 434.918-293.091 435.53-297.357 435.883-301.622 436.251-305.887 436.624-308.322 436.837-310.19 438.87-310.19 441.305V446.044C-310.19 448.716-307.952 450.852-305.272 450.737-300.597 450.538-295.927 450.335-291.258 450.127-248.437 448.229-209.703 448.566-166.822 448.269-159.401 448.22-153.319 446.352-147.604 441.361-138.943 433.8-129.894 426.705-120.935 419.52-115.518 415.181-114.545 410.24-117.234 403.5M-263.26-73.804C-236.329-71.805-209.674-67.358-182.948-63.644-136.194-57.146-90.626-47.704-46.226-30.669-36.066-26.773-27.064-21.459-19.676-14.422-18.978-13.758-18.06-13.374-17.094-13.374H-6.501C-4.002-13.374-2.221-15.783-2.96-18.161-4.655-23.615-6.335-29.075-7.989-34.543-15.757-60.248-30.828-70.516-53.568-74.104-137.693-87.377-222.403-91.023-307.292-91.092-320.749-91.103-334.207-91.116-347.664-91.128-349.701-91.129-351.354-89.485-351.354-87.456V-79.855C-351.354-77.819-349.69-76.176-347.646-76.189-319.401-76.367-291.108-75.871-263.26-73.804M-801.472-50.464C-801.859-48.91-802.755-45.829-802.907-44.24-803.208-41.105-804.126-38.919-804.47-35.787-806.285-19.155-805.68-13.325-788.01-13.374-647.828-13.79-507.637-13.602-367.456-13.602-365.332-13.602-364.346-13.364-362.223-13.374-354.553-13.403-350.515-17.405-349.712-25.529-349.286-29.832-349.174-34.201-349.817-38.471-350.714-44.43-353.42-51.647-357.027-54.927-366.205-63.275-369.204-62.335-380.461-62.155-386.539-62.058-417.943-61.469-424.911-61.205-426.513-61.144-428.114-61.084-429.714-61.023-431.13-60.97-432.554-60.871-433.97-60.871-530.288-57.62-626.606-57.184-722.924-60.92-733.262-61.326-743.601-61.82-753.929-62.393H-754.038C-761.271-62.492-768.236-62.61-774.992-62.719-778.822-62.778-778.023-62.623-781.714-62.683-788.657-61.584-799.51-58.342-801.472-50.464M-1093.752 3.258C-1093.722 3.238-1093.702 3.229-1093.682 3.219-1071.696-9.688-1047.963-17.08-1023.686-23.514-1006.214-28.139-994.07-18.948-980.209-9.708-985.736-5.3-991.798-4.609-997.274-2.642-1014.151 3.406-1029.936 11.263-1042.576 25.06-1050.077 33.243-1054.184 43.036-1055.345 54.224-1055.683 57.426-1057.151 61.577-1052.25 62.94-1051.684 63.098-1051.16 63.196-1050.672 63.239-1046.729 38.691-1025.327 19.872-999.589 19.872-979.778 19.872-962.539 31.026-953.849 47.357-952.977 46.922-952.036 46.268-950.98 45.408-929.778 28.163-908.249 11.342-886.967-5.804-884.725-7.613-879.466-8.532-883.514-14.106-884.764-15.835-881.828-17.159-880.141-17.466-865.437-20.134-850.644-21.755-835.682-21.458-830.712-21.359-830.126-18.523-831.049-14.54-831.36-13.199-831.669-11.856-831.977-10.513-832.425-8.554-830.927-6.687-828.911-6.687H-826.262C-824.843-6.687-823.598-7.634-823.228-8.999-820.019-20.818-816.922-32.666-813.423-44.406-812.46-47.636-812.352-51.16-810.918-54.239-810.452-55.218-809.877-56.236-809.152-57.264-808.369-58.38-807.406-59.507-806.225-60.604-805.243-61.523-804.172-62.363-803.001-63.144-868.85-63.974-916.672-62.808-997.84-47.885L-997.87-48.024C-1021.195-43.418-1044.293-37.716-1066.953-29.829-1073.263-27.635-1079.365-24.621-1085.358-21.557-1093.91-17.179-1098.415-10.083-1100.28-1.159-1101.044 2.517-1096.976 5.186-1093.752 3.258M-1036.169 49.247C-1038.875 54.665-1040.91 59.944-1041.813 65.399H-1035.028C-1029.841 62.456-1022.116 62.603-1022.087 53.285-1022.086 53.005-1021.201 52.448-1020.771 52.491-1012.292 53.329-1006.264 49.701-1002.388 41.68-1002.187 41.264-1001.578 41.352-1001.499 41.807-1000.538 47.338-997.174 51.464-995.683 58.738-994.54 52.652-993.875 49.242-993.268 45.821-992.902 43.761-992.063 41.89-989.9 42.066-987.388 42.27-987.727 44.767-987.69 46.547-987.579 51.866-987.65 57.188-987.65 62.878-984.337 60.701-984.918 49.926-978.93 57.842-975.817 61.957-973.427 63.353-969.04 63.471-967.957 63.5-966.938 63.662-966.007 63.965H-957.724C-957.797 63.542-957.861 63.121-957.945 62.693-960.254 51.067-967.895 43.79-976.487 35.517-983.153 31.251-991.077 28.766-999.589 28.766-1015.084 28.766-1028.655 36.967-1036.169 49.247M-963.517 77.339C-964.445 77.922-965.512 78.404-966.618 78.874-973.492 81.793-979.42 85.893-982.107 94.088-982.425 95.059-983.666 95.334-984.344 94.568-985.22 93.577-985.877 92.835-986.566 92.128-988.348 90.3-987.044 85.352-991.101 86.145-994.973 86.902-995.309 90.985-996.349 94.379-997.308 97.512-995.597 101.617-999.319 104.001-1004.574 99.51-1002.146 91.225-1007.759 85.466-1006.907 91.516-1009.879 95.158-1011.787 100.044-1012.178 101.044-1013.549 101.138-1014.065 100.197-1019.474 90.33-1026.016 83.131-1035.796 79.364-1036.141 79.231-1036.444 79.018-1036.726 78.772H-1041.614C-1039.276 91.312-1032.688 100.725-1022.207 107.126-1003.922 118.303-980.279 114.35-966.458 97.639-961.356 91.474-958.313 84.728-957.337 77.339ZM-842.482 49.499H-842.479C-841.096 49.499-839.873 48.599-839.468 47.282-835.733 35.123-832.143 22.917-828.678 10.668-828.113 8.671-829.625 6.686-831.707 6.686H-833.364C-834.831 6.686-836.101 7.698-836.425 9.123-839.203 21.333-842.087 33.509-845.494 45.511-846.062 47.512-844.569 49.499-842.482 49.499M-182.441 37.224C-182.526 37.408-182.645 37.588-182.81 37.756-190.147 45.194-196.383 53.222-198.444 63.598H-188.266C-187.325 63.413-186.337 63.294-185.322 63.218-183.131 63.052-180.262 64.842-178.961 61.359-173.921 47.873-171.637 57.744-168.347 64.531-168.347 60.138-168.659 57.532-168.278 55.045-167.609 50.673-170.899 43.113-165.924 42.651-161.036 42.197-162.867 50.396-161.169 54.55-160.996 54.972-160.496 55.244-159.845 55.884-158.278 51.739-156.758 47.718-155.248 43.723-154.843 42.652-153.326 42.583-152.852 43.626-151.296 47.06-148.992 49.575-145.83 50.624-139.954 52.572-132.708 51.58-132.022 61.204-131.811 64.174-129.923 61.466-128.83 61.577-125.734 61.893-123.116 63.362-121.206 65.448H-115.289C-116.199 60.331-117.893 54.879-120.365 49.094-127.899 36.9-141.417 28.766-156.847 28.766-166.443 28.766-175.302 31.912-182.441 37.224M-114.913 80.032C-114.853 79.63-114.794 79.229-114.747 78.821H-119.18C-121.061 80.955-124.45 79.884-126.425 81.846-131.954 87.345-137.874 92.401-142.25 100.693-142.758 101.655-144.174 101.5-144.498 100.463-146.241 94.892-149.774 91.526-148.945 86.462-152.857 91.39-151.609 98.189-155.496 102.545-156.203 103.337-157.469 103.24-158.065 102.361-159.487 100.266-159.008 97.751-159.341 95.535-159.929 91.627-160.447 87.298-164.707 86.388-169.167 85.434-167.859 90.993-169.982 92.902-170.35 93.233-170.704 93.58-171.097 93.976-172.004 94.893-173.577 94.602-174.059 93.408-176.947 86.256-182.036 81.865-188.627 79.149-190.229 78.489-191.919 77.891-193.247 76.971H-198.773C-197.584 85.69-193.857 93.35-187.737 99.793-172.527 115.793-147.108 117.898-129.934 104.537-129.597 104.274-129.274 104.005-128.948 103.738-121.907 97.705-116.852 89.438-114.913 80.032M-319.838 36.712C-318.746 40.375-317.637 44.033-316.513 47.687-316.182 48.764-315.182 49.499-314.052 49.499H-312.751C-311.04 49.499-309.817 47.869-310.289 46.231-313.855 33.849-316.882 21.294-319.733 8.683-319.997 7.516-321.036 6.686-322.237 6.686H-325.108C-326.237 8.17-326.459 8.461-327.588 9.945-325.062 18.884-322.491 27.811-319.838 36.712M-354.794-64.878C-351.583-63.754-346.109-58.194-344.358-52.499-341.357-42.739-338.81-32.823-336.089-22.982-334.772-18.221-333.6-13.431-332.43-8.641-332.15-7.494-331.118-6.687-329.933-6.687H-326.339C-324.698-6.687-323.477-8.198-323.828-9.795-324.172-11.364-324.517-12.932-324.862-14.501-325.934-19.354-324.654-21.527-319.515-21.527-305.486-21.548-291.556-20.441-277.795-17.673-275.186-17.14-269.163-18.039-273.866-11.319-275.284-9.303-271.772-7.9-270.244-6.664-248.208 11.016-226.004 28.499-204.078 46.337-203.553 46.764-203.069 47.117-202.613 47.407-193.931 31.05-176.679 19.872-156.847 19.872-131.104 19.872-109.699 38.698-105.761 63.252-105.172 63.227-104.529 63.127-103.81 62.921-98.284 61.329-100.606 56.605-100.884 53.324-101.896 40.902-107.531 30.791-116.014 22.372-128.009 10.463-142.386 3.041-157.844-2.316-163.578-4.302-169.332-6.239-177.161-8.908-162.933-16.982-152.585-28.406-135.877-23.929-122.056-20.223-108.057-17.377-94.594-12.228-82.708-7.682-71.367-1.911-59.313 4.839-57.289 5.976-54.838 4.276-55.195 1.993-56.912-8.996-61.703-16.932-71.238-22.021-89.038-31.499-108.206-36.401-127.453-41.085-140.729-44.307-154.073-47.154-167.457-49.714L-167.487-49.535C-246.492-64.063-291.604-65.58-354.794-64.878M-124.939 240.967C-125.264 241.839-125.625 242.697-126.042 243.527-126.556 244.549-127.137 245.538-127.779 246.484-128.191 247.092-128.693 247.615-129.123 248.21-129.791 249.135-130.558 249.672-131.347 250.508-132.473 251.702-133.327 252.388-135.144 253.368-135.558 253.592-136.02 253.752-136.463 253.917-137.965 254.477-139.464 254.458-140.867 253.628-137.792 249.991-132.176 249.29-130.43 242.806-134.905 245.416-139.657 236.788-143.279 244.931-143.636 245.741-144.33 245.396-144.439 244.397-145.878 231.658-149.351 245.613-151.841 243.647-152.426 239.891-150.74 234.93-157.764 234.792-165.344 234.633-160.572 240.603-162.298 243.34-168.479 239.031-165.919 232.212-167.021 225.768-169.779 238.606-166.237 248.479-157.397 254.033-155.408 255.282-153.281 256.332-151.033 257.03-149.03 257.652-146.935 257.987-144.836 257.937-140.215 257.827-135.713 256.831-131.958 254.387-128.664 252.243-125.851 249.077-123.793 245.61-122.956 244.199-122.357 242.658-121.94 241.076-121.924 241.014-121.913 240.952-121.897 240.89ZM-125.658 225.561C-125.27 226.212-124.955 226.892-124.676 227.583L-121.274 227.497C-122.596 218.229-129.746 210.73-138.536 207.891-148.15 204.788-152.853 209.887-156.881 219.424-152.019 219.424-147.584 219.918-143.279 219.315-136.214 218.317-128 221.638-125.658 225.561M-915.085 234.534C-915.092 234.535-915.099 234.536-915.106 234.536L-922.15 234.715C-922.14 235.32-922.157 235.927-922.231 236.538-922.722 240.61-923.128 244.586-925.695 247.721-926.6 248.825-928.442 248.035-928.24 246.624-927.793 243.482-925.573 240.417-927.897 238.044-930.416 235.47-934.234 238.355-937.505 237.66-937.633 241.84-936.174 245.688-936.806 250.156-936.951 251.183-938.339 251.405-938.766 250.459-940.703 246.168-940.643 240.011-945.933 242.47-950.577 244.627-944.836 250.649-945.637 255.025-945.726 255.507-946.034 255.945-946.317 256.572-949.878 254.874-948.738 250.777-950.258 248.118-950.951 246.906-951.646 243.826-953.093 246.143-959.257 256.019-961.202 248.153-964.386 241.213-965.932 252.24-960.854 256.067-954.573 259.274-953.369 259.889-950.413 260.149-952.055 262.923-952.39 263.488-954.437 262.918-955.695 262.872-961.375 262.66-967.074 257.673-970.056 253.118-970.707 252.125-971.21 251.065-971.613 249.965-971.802 249.991-971.993 250.007-972.187 250.012L-976.184 250.114C-975.661 251.161-975.097 252.189-974.483 253.188-967.455 264.614-954.641 272.491-940.851 269.213-925.089 265.465-914.484 250.381-915.085 234.534M-815.329 231.257H-821.083C-821.004 234.385-821.389 237.462-822.334 240.361-822.665 241.376-823.912 241.726-824.773 241.092-831.975 235.798-836.994 238.31-840.403 248.142-841.429 251.112-841.563 254.37-843.068 257.781-843.475 258.703-844.777 258.652-845.115 257.702-847.131 252.02-851.489 249.202-856.099 246.247-860.168 243.637-862.877 245.639-866.099 247.072-870.198 248.897-867.878 252.084-867.503 255.018-867.099 258.158-866.421 261.392-865.898 264.522-865.603 266.289-864.848 268.771-867.252 269.596-869.755 270.44-870.613 267.834-871.302 266.205-873.904 260.1-875.765 253.98-878.77 246.983-880.573 250.438-881.834 253-883.214 255.296-886.586 260.906-884.133 264.386-878.142 268.223-872.166 272.047-867.206 274.728-859.903 275.961-858.701 276.164-857.202 278.316-859.548 279.354-862.413 280.621-865.249 280.042-868.057 279.839-869.097 279.764-870.129 279.595-871.138 279.335L-871.233 279.311C-873.756 278.654-876.115 277.52-878.449 276.384-881.195 275.046-883.871 273.671-886.174 271.63-887.353 270.584-888.43 269.422-889.63 268.406-890.108 268.002-890.57 267.575-890.963 267.087-894.775 262.35-897.651 257.333-899.478 252.015L-904.171 252.134C-902.48 257.91-899.605 263.493-895.539 268.857-893.804 271.147-892.033 273.71-889.668 275.498-888.528 276.36-884.138 279.136-881.084 280.764-878.817 281.974-876.55 283.195-874.121 284.035-871.682 284.877-869.156 285.462-866.598 285.794-864.001 286.13-861.372 286.206-858.76 286.033-856.089 285.856-853.436 285.421-850.847 284.745-848.184 284.05-845.588 283.1-843.103 281.922-841.853 281.329-840.632 280.679-839.443 279.975-822.966 270.228-812.056 249.792-815.329 231.257M-256.978 253.781C-258.805 259.099-261.682 264.117-265.494 268.853-265.886 269.341-266.349 269.769-266.827 270.173-268.026 271.188-269.103 272.35-270.283 273.396-272.586 275.437-275.261 276.812-278.008 278.15-280.341 279.286-282.701 280.42-285.224 281.077L-285.319 281.101C-286.328 281.361-287.36 281.53-288.4 281.605-291.208 281.808-294.043 282.388-296.908 281.12-299.255 280.083-297.756 277.93-296.553 277.727-289.25 276.495-284.291 273.813-278.315 269.989-272.324 266.152-269.871 262.672-273.243 257.062-274.623 254.767-275.883 252.204-277.686 248.75-280.692 255.747-282.552 261.866-285.154 267.971-285.843 269.6-286.702 272.206-289.204 271.362-291.608 270.537-290.854 268.055-290.558 266.289-290.036 263.158-289.358 259.925-288.954 256.784-288.579 253.85-286.258 250.663-290.358 248.838-293.579 247.405-296.289 245.403-300.358 248.013-304.967 250.968-309.326 253.786-311.342 259.468-311.68 260.418-312.982 260.469-313.389 259.547-314.894 256.136-315.028 252.878-316.054 249.908-319.462 240.077-324.482 237.564-331.683 242.859-332.545 243.493-333.792 243.142-334.123 242.127-335.068 239.228-335.453 236.152-335.374 233.024H-340.156C-341.1 244.613-337.923 256.497-331.381 266.13-323.235 278.124-309.465 285.881-294.857 286.028-290.487 286.072-286.112 285.435-281.947 284.117-270.936 280.634-259.961 270.882-254.943 260.534-253.907 258.397-253.071 256.171-252.389 253.897ZM-183.121 251.191C-183.724 251.206-184.305 251.115-184.852 250.942-188.023 257.105-192.925 261.226-198.953 264.016-200.624 263.475-203.344 264.892-203.849 262.543-204.364 260.153-201.56 259.752-199.995 259.021-193.182 255.834-189.215 250.972-190.178 242.443-192.524 243.104-192.991 244.883-193.338 246.467-194.806 253.171-199.145 250.849-200.822 247.961-204.153 242.221-204.384 245.496-205.568 248.887-206.445 251.4-205.749 254.835-209.138 256.229-210.607 253.11-209.155 250.256-208.699 247.328-208.387 245.32-206.773 242.277-209.351 241.564-211.71 240.913-214.527 241.932-215.444 245.614-215.938 247.595-215.547 250.347-219.072 251.948-219.072 249.295-218.973 247.016-219.099 244.752-219.231 242.403-216.446 239.145-219.683 237.922-222.211 236.966-225.643 235.303-228.167 237.457-230.759 239.67-228.481 242.712-228.069 245.406-227.869 246.708-228.035 248.073-228.035 249.714-231.981 245.709-234.205 240.465-234.344 234.857-234.351 234.583-234.345 234.296-234.345 234.015L-241.008 234.184C-241.423 241.266-239.442 248.39-235.033 255.199-226.748 267.998-212.382 272.919-198.333 267.78-194.199 266.268-189.089 264.122-185.999 261.074-183.31 258.42-180.897 254.865-179.016 251.087ZM-232.02 220.578C-231.928 220.576-231.838 220.583-231.748 220.585-229.86 216.134-226.856 212.351-222.424 210.739-221.22 210.301-217.67 209.898-216.905 208.927-220.329 213.271-222.919 216.318-225.229 219.587-226.398 221.241-226.754 223.673-225.49 225.225-223.68 227.449-221.869 225.212-220.915 223.934-217.321 219.122-209.973 221.397-206.985 215.448-206.691 214.864-205.111 216.024-204.77 217.158-204.041 219.585-203.408 222.045-202.606 224.968-200.468 222.938-198.32 219.724-195.356 221.933-185.498 229.279-189.371 220.666-190.015 215.902-183.301 221.85-180.535 228.881-181.407 237.77L-175.356 237.617C-175.412 235.137-175.798 232.637-176.148 230.245-178.063 217.259-185.415 207.901-197.162 203.404-208.82 198.957-219.813 200.528-229.109 210.025-230.121 210.974-231.134 211.923-232.156 212.872-234.214 215.431-235.914 218.051-237.26 220.711ZM-308.581 197.47C-307.637 197.24-306.62 199.164-307.446 199.675-314.116 203.796-315.163 205.226-318.592 208.001-320.554 209.59-323.411 211.811-321.716 214.814-320.652 216.708-318.517 216.47-315.965 216.931-313.984 217.285-310.851 217.265-309.875 215.999-302.575 206.538-296.14 214.547-289.243 216.774-287.463 212.22-284.159 208.579-281.886 203.991-281.304 202.814-279.566 203.006-279.275 204.285-277.958 210.058-277.162 215.993-270.602 218.276-268.917 218.855-267.144 220.583-265.705 220.268-256.493 218.217-256.503 225.696-255.459 231.437-254.896 234.53-254.657 237.534-254.693 240.461L-250.324 240.572C-250.313 240.08-250.292 239.587-250.294 239.096-250.342 231.104-252.163 223.077-255.78 215.93-268.64 190.525-306.637 181.209-326.722 203.547-331.011 208.318-334.647 213.832-337.026 219.651H-332.348C-327.871 209.096-318.918 199.995-308.581 197.47M-797.842 203.789C-798.229 218.702-803 230.771-805.927 245.19-808.159 256.199-808.417 256.289-797.444 256.289-650.228 256.328-503.013 256.259-355.797 256.496-348.544 256.506-347.85 254.065-349.388 247.701-352.324 235.574-354.865 225.364-357.385 213.128-360.328 198.805-357.42 188.423-348.545 182.914-478.575 179.22-632.443 179.08-808.174 182.496-801.067 186.552-797.579 193.818-797.842 203.789M-900.998 229.671C-899.954 223.93-899.964 216.451-890.751 218.502-889.313 218.816-887.539 217.089-885.855 216.51-879.295 214.227-878.499 208.291-877.182 202.519-876.89 201.24-875.153 201.047-874.57 202.224-872.298 206.812-868.994 210.453-867.213 215.008-860.316 212.781-853.882 204.772-846.581 214.233-845.606 215.499-842.472 215.519-840.492 215.165-837.94 214.704-835.805 214.942-834.741 213.048-833.046 210.045-835.903 207.823-837.865 206.235-841.293 203.46-842.34 202.029-849.011 197.908-849.837 197.398-848.82 195.473-847.875 195.704-837.539 198.228-828.585 207.33-824.109 217.884H-818.57C-821.498 209.354-826.262 202.582-836.134 195.595-845 190.044-858.046 190.297-864.257 190.695-882.048 191.835-895.539 202.821-902.385 220.985-904.679 227.073-905.848 233.016-905.947 238.801L-901.764 238.695C-901.799 235.767-901.561 232.763-900.998 229.671M-979.972 236.832-973.372 236.665C-973.572 230.307-972.303 224.375-967.944 219.325-967.186 218.447-965.75 219.101-965.948 220.244-966.675 224.464-967.839 229.164-960.04 222.818-957.693 220.908-955.247 223.886-953.003 225.128-951.212 222.403-952.076 218.398-949.227 216.342-946.795 216.202-948.926 223.93-943.835 219.501-943.074 218.839-939.359 221.949-937.027 223.345-934.985 224.567-933.249 228.781-930.773 225.978-930.674 225.867-930.594 225.752-930.514 225.638-930.397 225.085-930.193 224.563-929.917 224.086-929.687 222.05-931.227 219.757-932.702 217.885-933.845 216.435-935.442 215.354-936.57 213.619-937.181 212.679-936.246 211.495-935.178 211.84-933.026 212.535-930.838 212.728-929.086 214.271-926.823 216.264-925.609 218.75-924.787 221.405L-918.485 221.244C-926.476 205.089-947.011 195.438-963.781 205.65-965.596 206.755-967.298 208.043-968.869 209.472-974.895 214.951-978.851 222.432-979.857 230.507-980.117 232.6-980.144 234.719-979.972 236.832M-723.953 410.551C-615.731 412.552-507.472 413.665-399.276 408.869-365.572 407.375-331.927 404.425-298.247 402.28-289.672 401.734-287.085 397.13-289.104 388.796-289.857 385.692-290.527 382.561-291.415 379.501-298.035 356.693-309.968 336.712-319.581 315.24-320.625 312.907-335.058 288.948-338.151 279.519-339.371 277.552-340.527 275.336-341.63 272.81-343.988 267.412-347.464 265.823-353.05 265.833-503.003 266.001-652.957 265.991-802.911 265.843-806.134 265.84-809.682 266.238-811.989 268.744-813.169 270.025-814.046 271.491-814.814 273.021-816.254 279.958-836.441 313.662-838.764 318.696-848.756 340.345-858.808 361.998-864.555 385.445-867.889 399.049-866.078 401.818-853.228 402.682-810.148 405.58-767.076 409.754-723.953 410.551M-624.354 457.766C-500.881 456.974-412.272 454.993-328.141 451.676-325.611 451.576-323.616 449.504-323.616 446.982V443.291C-323.616 440.539-325.98 438.381-328.733 438.613-342.61 439.785-356.492 440.827-370.391 441.394-508.098 447.006-645.827 446.776-783.535 441.458-798.276 440.889-813 439.775-827.717 438.512-830.472 438.276-832.841 440.436-832.841 443.19V447.049C-832.841 449.568-830.838 451.638-828.311 451.741-750.884 454.884-680.294 458.753-624.354 457.766M-622.915 559.401C-590.69 559.391-558.465 559.332-526.24 559.401-515.267 559.42-513.759 561.051-512.875 572.624-510.693 601.205-515.991 607.648-542.888 609.062-546.529 609.259-550.27 608.785-553.802 609.506-556.858 610.139-562.454 606.196-562.354 613.884-562.265 620.565-558.772 622.413-552.889 622.176-535.883 621.474-518.838 621.682-501.853 620.614-452.414 617.491-402.965 614.497-353.615 609.842-337.82 608.35-325.706 603.201-320.993 585.096-318.026 573.711-312.897 562.978-309.048 551.83-308.125 549.132-306.369 545.13-310.784 543.736-314.891 542.432-314.762 546.928-315.715 549.152-319.703 558.511-323.563 567.949-327.026 577.536-330.369 586.776-336.758 591.371-345.687 591.915-370.908 593.457-396.139 592.864-421.339 591.302-432.124 590.64-439.099 583.9-444.07 574.333-445.389 571.803-447.245 569.372-447.81 566.654-451.104 550.773-460.678 547.68-474.975 548.144-509.294 549.261-543.662 548.51-578.02 548.51V548.322C-616.02 548.322-654.019 548.44-692.019 548.193-697.981 548.154-701.722 549.577-703.577 556.06-711.514 583.792-728.887 595.226-756.469 592.656-772.691 591.144-789.24 592.784-805.66 592.31-817.536 591.964-825.9 587.606-829.918 574.907-832.805 565.805-836.883 557.127-840.603 548.342-841.497 546.237-841.814 542.728-845.316 543.727-848.64 544.675-848.055 547.739-847.34 550.101-842.419 566.299-837.201 582.398-829.531 597.419-826.257 603.833-820.364 606.423-813.815 607.708-788.327 612.718-762.422 612.925-736.686 614.883-696.087 617.976-655.478 621.612-614.73 622.037-609.868 622.087-604.997 621.78-600.145 621.919-594.361 622.097-594.113 617.768-593.736 613.518-593.23 607.826-597.437 609.664-600.016 609.457-608.499 608.795-617.032 608.706-625.485 607.836-636.498 606.69-640.367 602.717-642.5 591.342-642.976 588.822-643.145 586.242-643.403 583.682-645.447 562.959-642.441 559.401-622.915 559.401M-999.705 234.781C-1005.555 235.87-1003.78 239.558-1003.838 242.961-1003.857 244.053-1005.304 244.416-1005.835 243.46-1007.709 240.082-1009.788 237.211-1011.926 243.04-1012.162 243.681-1013.013 243.766-1013.397 243.201-1016.79 238.207-1021.5 245.388-1025.551 241.897-1024.573 248.082-1020.33 249.441-1016.822 252.082-1015.935 252.75-1016.498 254.169-1017.606 254.06-1022.951 253.532-1026.125 249.956-1028.616 245.515-1029.477 243.977-1030.178 242.435-1030.725 240.887L-1033.758 240.964C-1031.55 247.545-1027.081 253.073-1021.324 255.664-1003.505 263.669-986.788 250.446-988.623 229.376-989.669 233.355-988.887 237.979-992.007 241.943-992.442 242.496-993.327 242.283-993.44 241.589-994.016 238.045-993.379 233.605-999.705 234.781M-1031.529 227.529C-1031.022 225.274-1030.203 222.993-1029.046 220.68-1028.79 220.169-1028.025 220.232-1027.852 220.776-1027.279 222.573-1028.745 224.715-1026.91 225.482-1024.658 226.421-1025.035 223.743-1024.152 222.754-1020.362 218.544-1015.758 218.861-1010.748 219.582-1007.226 220.086-1003.525 219.157-998.931 218.792-1003.535 210.816-1007.365 204.096-1017.405 207.703-1026.117 210.822-1033.349 218.583-1034.931 227.616ZM-1121.363 200.291C-1122.634 205.814-1116.472 204.363-1114.11 203.937-1092.571 200.024-1071.031 196.011-1049.62 191.347-995.057 179.45-940.095 174.881-884.857 175.281-771.49 172.52-666.503 171.14-570.349 171.14-467.199 171.14-374.217 172.729-292 175.903-270.76 175.211-249.483 175.398-228.187 175.871-166.406 177.244-106.539 191.999-46.137 203.187-44.533 203.484-42.928 203.767-41.246 204.056-37.491 204.701-34.22 201.401-34.973 197.68-37.933 183.036-42.684 169.829-52.665 159.01-60.404 150.61-70.554 148.762-81.061 148.08-129.606 144.898-178.113 141.568-226.57 136.823-261.374 133.414-284.065 114.914-297.767 82.32-300.221 76.481-302.447 70.568-304.504 64.6-304.86 63.567-305.831 62.872-306.928 62.872H-308.214C-309.956 62.872-311.19 64.565-310.651 66.215L-310.641 66.249C-310.007 68.188-309.565 70.448-308.651 72.27-301.993 92.144-304.98 88.547-319.842 88.576-405.902 88.774-491.961 88.675-578.01 88.665-665.588 88.665-753.165 88.685-840.742 88.645-852.291 88.635-852.638 88.22-848.878 76.845-847.79 73.553-846.718 70.255-845.657 66.954-845.008 64.936-846.524 62.872-848.652 62.872-849.99 62.872-851.174 63.719-851.614 64.978-854.581 73.476-857.936 81.843-861.865 90.019-875.884 119.203-898.605 133.642-929.361 136.735-977.501 141.577-1025.69 145.807-1073.988 147.705-1106.391 148.969-1115.746 175.882-1121.363 200.291M-1137.188 104.863C-1146.665 107.152-1157.854 109.025-1165.791 115.021-1172.822 120.334-1177.26 128.274-1180.896 136.109-1181.106 136.56-1181.325 137.017-1181.563 137.469-1183.951 142.008-1190.899 138.928-1189.206 134.09-1188.644 132.484-1188 130.917-1187.737 129.349-1187.131 125.736-1186.383 122.111-1184.731 118.839-1183.441 116.284-1185.31 113.464-1188.001 113.464-1189.37 114.59-1190.271 115.331-1191.639 116.458-1200.663 163.711-1205.214 211.014-1201.288 258.504-1201.163 260.016-1199.885 261.181-1198.361 261.181-1196.653 261.181-1195.323 259.733-1195.446 258.036-1196.251 246.885-1196.135 235.63-1195.408 224.375-1194.435 209.492-1173.62 204.026-1160.891 214.66-1157.606 217.408-1155.166 221.281-1152.259 224.553-1149.669 227.468-1147.913 232.647-1143.161 231.095-1138.656 229.623-1139.004 224.345-1138.517 220.383-1136.245 201.902-1134.579 183.322-1132.078 164.881-1125.55 116.87-1119.061 68.83-1103.98 22.698-1103.98 22.678-1103.971 22.659-1103.961 22.639-1103.191 21.105-1103.511 18.326-1105.5 17.926-1109.77 17.07-1112.915 27.578-1113.986 30.244-1116.585 36.705-1118.513 43.414-1120.111 50.183-1122.532 60.45-1124.849 70.765-1126.394 81.205-1127.016 85.407-1126.916 89.623-1127.404 93.822-1128.11 99.919-1131.187 103.411-1137.188 104.863M28.277 141.486C26.248 140.421 25.021 138.367 24.338 136.678 20.462 127.102 14.745 117.912 5.402 112.843-4.805 107.305-17.96 109.024-25.331 98.553-30.818 90.759-31.23 80.689-31.827 71.525-32.52 60.868-35.028 51.212-38.594 41.136-40.218 36.55-41.778 26.227-46.525 23.76-50.54 21.674-49.889 26.645-49.358 29.032-48.234 34.095-46.183 38.983-44.804 43.99-41.073 57.546-38.642 71.411-36.237 85.248-32.691 105.651-29.332 126.089-26.36 146.583-23.238 168.124-20.542 189.729-18.506 211.399-17.86 218.228-19.418 228.031-12.959 230.562-6.262 233.191-3.385 223.436 .713 218.772 7.608 210.915 15.873 208.226 25.457 210.015 33.285 211.478 39.287 216.034 39.655 225.106 40.102 236.127 40.051 247.123 39.205 258.027 39.073 259.726 40.404 261.181 42.115 261.181 43.639 261.181 44.916 260.016 45.04 258.504 47.264 231.305 46.749 203.952 44.417 176.394 42.696 156.016 39.511 136.068 35.367 116.398 35.006 114.687 33.485 113.464 31.729 113.464 29.262 113.464 27.481 115.817 28.159 118.18 29.967 124.474 31.776 130.769 33.593 137.061 33.713 137.479 33.731 137.922 33.782 138.373 34.301 142.901 30.193 142.493 28.277 141.486M-106.39 402.966C-104.711 406.958-105.297 410.543-105.098 414.007-104.981 416.042-103.527 416.897-101.302 414.457-79.971 391.061-57.018 370.983-26.939 359.324-8.157 352.05 9.086 340.814 25.298 328.094 31.728 323.044 35.726 317.016 37.571 308.685 39.843 298.423 41.623 288.143 42.982 277.842 43.212 276.099 41.838 274.554 40.073 274.554H39.735C38.307 274.554 37.099 275.583 36.854 276.984 35.705 283.591 34.191 290.147 32.243 296.638 26.271 316.522 19.335 320.129 .088 314.911-10.106 312.147-21.023 312.725-30.622 317.257-40.957 322.136-47.591 330.799-53.789 340.014-58.572 347.125-63.523 354.122-68.616 361.017-70.865 364.063-73.107 367.086-76.277 369.248-77.261 369.923-78.561 370.865-79.831 370.725-85.649 370.087-74.373 352.879-72.987 350.772-72.286 349.705-71.563 348.655-70.85 347.597-70.451 347.005-70.052 346.413-69.655 345.82-66.021 340.384-62.201 335.075-58.536 329.66-38.834 300.55-30.731 268.421-30.428 233.57-30.289 218.667-31.817 217.254-45.003 214.625-58.426 211.937-71.93 209.654-85.314 206.729-91.843 205.295-93.916 207.826-94.342 214.407-95.166 227.275-96.667 235.641-101.043 247.728-110.22 273.038-126.997 289.463-152.387 294.543-161.018 296.272-160.721 298.95-156.921 305.908-141.76 333.748-127.047 361.864-112.264 389.931-110.051 394.131-108.236 398.568-106.39 402.966M-107.928 508.969C-109.208 512.774-105.329 514.078-102.352 515.086-95.546 517.399-88.542 516.776-81.537 517.34-68.252 516.035-54.977 514.582-41.672 513.485-35.054 512.952-31.076 509.789-31.9 502.634-32.762 495.153-31.096 485.24-42.168 484.351-50.929 483.639-59.759 483.649-68.559 483.758-83.997 483.946-95.883 478.698-100.983 461.808-101.539 459.96-101.677 455.641-105.458 458.31-107.978 460.089-112.512 461.314-110.587 465.979-104.793 480.032-102.918 494.095-107.928 508.969M-138.746 467.183C-135.29 461.493-143.69 456.022-147.418 461.538-147.928 462.292-148.442 463.15-148.974 464.121-175.345 512.27-205.149 558.027-236.114 603.013-256.9 633.195-284.581 647.228-318.919 650.006-406.547 657.092-494.292 661.974-582.138 663.12-633.789 663.792-685.451 660.047-737.033 656.617-768.881 654.502-800.699 651.794-832.567 650.184-870.12 648.296-900.123 633.087-922.258 599.841-952.181 554.894-981.896 509.848-1008.129 462.362-1010.492 458.086-1013.102 455.639-1016.484 454.816-1020.25 453.901-1023.202 458.103-1021.179 461.398L-1021.146 461.453C-989.129 513.416-958.452 566.319-923.458 616.167-919.112 622.364-914.4 628.264-909.746 634.203-883.633 667.587-849.86 684.003-809.172 686.878-673.088 696.484-536.965 696.623-400.792 690.367-379.55 689.388-358.367 686.997-337.145 685.485-298.56 682.718-268.697 662.942-244.696 632.157-215.428 594.633-191.179 553.362-166.336 512.566-156.676 496.701-148.155 482.668-138.746 467.183M-1036.645 418.107C-1025.602 427.189-1014.55 436.252-1003.577 445.433-1000.719 447.824-997.465 448.111-994.122 448.091-945.425 447.826-897.245 449.119-851.15 450.847-848.479 450.947-846.267 448.818-846.267 446.155V441.165C-846.267 438.734-848.129 436.703-850.56 436.486-853.988 436.18-857.415 435.877-860.842 435.582-867.706 434.99-875.494 434.489-874.145 422.825-878.466 426.452-878.07 431.484-881.037 437.22-888.416 425.913-900.024 429.825-910.891 426.517-904.203 421.818-896.601 419.597-889.836 415.747-885.624 413.35-887.897 406.893-892.699 407.58-912.991 410.485-932.884 412.595-953.275 418.528-955.366 419.137-955.482 422.07-953.427 422.79-939.063 427.819-925.16 428.255-912.24 432.685-944.844 435.583-976.724 434.348-1005.834 416.138-1007.527 415.079-1010.491 414.633-1009.993 411.75-1009.388 408.24-1006.206 409.221-1003.98 409.075-992.448 408.318-980.887 407.985-969.375 407.005-942.727 404.736-915.941 402.914-889.372 398.676-878.698 396.972-876.661 394.832-873.281 384.11-865.592 359.725-857.596 334.248-845.127 312.044-841.028 303.587-836.958 297.05-833.184 291.927-838.299 293.354-843.913 293.58-849.136 294.148-856.014 294.894-862.906 295.496-869.807 295.977-897.354 297.895-924.991 297.851-952.586 297.372-961.335 297.221-966.076 297.026-974.824 296.835-980.826 296.697-983.952 298.417-986.868 303.981-1002.317 333.5-1018.24 362.734-1033.897 392.135-1036.129 396.315-1037.925 400.772-1039.672 405.219-1041.635 410.2-1040.882 414.628-1036.645 418.107M-1056.786 412.124C-1053.333 416.291-1052.439 413.844-1051.205 408.431-1050.328 404.581-1048.661 399.863-1045.503 393.568-1030.7 364.058-1014.875 335.121-999.13 306.145-995.161 298.852-994.863 296.143-1004.13 294.365-1034.619 288.524-1055.037 263.106-1060.604 225.848-1061.417 220.452-1061.561 219.664-1061.729 214.238-1061.918 207.834-1064.27 205.788-1070.242 207.063-1085.73 210.344-1101.237 213.507-1116.824 216.194-1122.072 217.094-1123.808 219.95-1124.692 224.941-1126.876 237.285-1125.547 249.815-1123.776 262.119-1121.652 276.883-1118.429 291.081-1111.641 304.462-1104.708 318.127-1095.903 330.73-1088.567 344.17-1087.048 346.953-1085.424 349.745-1084.243 352.69-1083.513 354.511-1082.674 356.76-1083.01 358.764-1084.009 364.723-1093.102 353.658-1094.362 351.963-1096.767 348.73-1099.016 345.375-1101.103 341.93-1115.41 318.321-1133.944 307.025-1161.228 315.929-1174.255 320.169-1181.368 315.8-1186.339 302.241-1189.38 293.953-1191.578 285.513-1193.108 276.974-1193.359 275.577-1194.564 274.554-1195.988 274.554H-1196.305C-1198.071 274.554-1199.445 276.1-1199.214 277.844-1197.982 287.144-1196.41 296.452-1194.455 305.769-1192.352 315.83-1187.738 323.134-1180.019 329.231-1162.081 343.423-1142.158 353.938-1121.69 362.714-1095.769 373.815-1074.603 390.63-1056.786 412.124M-1084.068 483.551C-1093.474 483.649-1102.899 483.57-1112.285 484.242-1121.542 484.914-1124.032 489.263-1124.25 501.932-1124.399 510.224-1120.321 513.109-1113.108 513.673-1100.111 514.671-1087.144 516.153-1074.157 517.448-1067.122 517.063-1060.147 517.112-1053.351 514.918-1048.857 513.466-1046.971 511.015-1048.777 505.619-1052.944 493.206-1051.704 480.783-1046.376 469.161-1043.717 463.36-1046.118 460.751-1050.047 458.498-1055.593 455.306-1055.058 461.403-1055.881 463.765-1060.752 477.809-1070.585 483.422-1084.068 483.551M59.305-115.264C55.344-114.864 51.322-114.411 47.531-113.978 54.883-103.912 55.802-92.216 56.616-81.867 56.804-79.479 56.981-77.224 57.229-74.985 63.5-18.26 61.501 36.488 58.236 102.166 57.892 109.096 57.404 116.118 56.933 122.908 55.619 141.84 54.26 161.417 55.93 180.503 59.141 217.184 56.848 253.576 54.181 284.336 51.453 319.356 37.958 340.035 9.055 353.478 5.69 355.043 2.446 356.88-1.002 358.833-3.467 360.228-6.016 361.672-8.621 363.009-19.529 368.609-30.648 374.227-41.401 379.66L-41.659 379.79C-44.89 381.422-48.12 383.054-51.35 384.688-67.719 392.969-79.862 406.247-93.058 423.637-96.138 427.695-95.073 432.397-92.952 439.657-92.806 440.158-92.66 440.656-92.519 441.149-91.914 441.136-91.136 441.028-90.306 440.913-89.222 440.763-87.992 440.592-86.743 440.592-86.384 440.592-86.032 440.606-85.697 440.634-82.859 440.872-79.982 441.063-77.201 441.249-66.305 441.974-55.038 442.724-43.972 446.272-37.375 448.387-29.234 452.086-24.794 462.004-18.785 475.432-17.239 489.932-20.067 506.334-21.953 517.282-28.515 523.784-39.041 525.138-56.454 527.377-70.696 528.42-83.864 528.42-87.145 528.42-90.416 528.353-93.586 528.22-104.817 527.749-111.503 525.431-115.941 520.467-120.202 515.703-122.065 508.71-122.172 497.085-122.232 490.522-122.281 483.541-122.161 476.684-122.1 473.203-122.771 469.945-124.213 466.724-124.303 466.524-124.389 466.335-124.471 466.158L-124.487 466.185C-128.969 473.98-133.8 481.67-138.48 489.12-141.593 494.076-144.811 499.2-147.878 504.279-150.215 508.149-152.549 512.021-154.882 515.894-177.868 554.038-201.636 593.481-228.414 629.952-254.528 665.521-279.995 684.862-310.989 692.664-326.846 696.657-342.829 698.121-360.579 699.498-418.016 703.953-476.286 705.17-535.902 706.115-554.307 706.406-572.642 706.554-590.4 706.554-671.867 706.554-746.63 703.562-818.962 697.409-854.144 694.417-884.078 679.679-907.931 653.609-917.433 643.223-925.524 633.246-932.665 623.107-956.554 589.2-978.496 553.175-999.725 518.323-1009.435 502.38-1019.475 485.895-1029.594 469.796-1030.266 468.726-1030.787 467.577-1031.304 466.438-1031.433 466.154-1031.588 465.812-1031.752 465.466-1032.201 466.542-1032.71 468.281-1033.266 470.643L-1033.454 471.441C-1033.826 472.994-1033.809 474.925-1033.791 476.969-1033.785 477.63-1033.78 478.288-1033.786 478.941-1033.81 481.63-1033.793 484.377-1033.776 487.033V487.064C-1033.748 491.709-1033.718 496.512-1033.903 501.283-1034.569 518.441-1041.958 526.652-1057.863 527.905-1062.614 528.279-1067.601 528.469-1072.685 528.469-1088.905 528.469-1105.173 526.535-1118.948 524.643-1127.617 523.452-1133.502 517.618-1135.521 508.213-1138.39 494.844-1137.855 481.52-1133.933 468.613-1130.26 456.531-1122.692 449.1-1110.795 445.897-1099.278 442.794-1087.63 442.048-1076.357 441.325-1073.117 441.117-1069.767 440.903-1066.481 440.634-1066.185 440.61-1065.882 440.598-1065.555 440.598-1064.81 440.598-1064.099 440.662-1063.472 440.718L-1063.438 440.721C-1063.208 439.782-1062.964 438.847-1062.747 438.02-1060.987 431.301-1060.075 426.969-1063.353 422.742-1080.057 401.206-1096.763 387.253-1115.93 378.831-1142.671 367.081-1165.318 354.373-1185.164 339.98-1196.672 331.635-1203.596 320.335-1206.334 305.437-1211.146 279.264-1216.31 244.672-1213.517 209.208-1210.873 175.649-1212.523 141.553-1214.118 108.579-1214.435 102.018-1214.764 95.233-1215.055 88.504-1215.221 84.704-1215.389 80.903-1215.559 77.094-1217.426 35.127-1219.356-8.268-1215.253-51.042-1214.793-55.833-1214.568-60.844-1214.35-65.691-1213.614-82.016-1212.855-98.895-1203.574-113.947-1206.315-114.29-1209.259-114.673-1212.263-115.14-1212.74-115.215-1213.542-115.221-1214.32-115.226-1217.052-115.249-1220.795-115.278-1223.519-118.063-1225.191-119.771-1226.013-122.055-1225.962-124.851-1225.896-128.51-1224.134-131.363-1220.998-132.884-1218.936-133.884-1216.745-134.089-1214.813-134.269-1213.961-134.349-1213.081-134.431-1212.556-134.566-1211.602-134.81-1210.78-134.823-1210.236-134.83L-1210.164-134.831C-1210.095-134.832-1210.025-134.832-1209.961-134.836-1170.609-138.783-1130.125-142.174-1086.198-145.204-1006.152-150.724-933.875-155.342-859.927-155.941-734.77-156.954-623.76-157.446-520.556-157.446-487.228-157.446-454.056-157.394-421.961-157.29-270.642-156.802-123.051-150.464 16.714-138.453 30.978-137.227 45.38-135.774 59.519-134.133L59.642-134.119C61.094-133.951 63.287-133.698 65.304-132.658 68.457-131.033 70.178-128.019 70.026-124.388 69.688-116.311 61.873-115.523 59.305-115.264" fill="#231f20"/>
</g>
</g>
</svg>
