<svg xmlns="http://www.w3.org/2000/svg" xmlns:xlink="http://www.w3.org/1999/xlink" xmlns:inkscape="http://www.inkscape.org/namespaces/inkscape" version="1.1" width="2048" height="1920" viewBox="0 0 2048 1920">
<defs>
<clipPath id="clip_1">
<path transform="matrix(1,0,0,-1,0,1920)" d="M0 1920H2048V0H0Z"/>
</clipPath>
</defs>
<g inkscape:groupmode="layer" inkscape:label="Layer 1">
<g clip-path="url(#clip_1)">
<path transform="matrix(1,0,0,-1,783.938,1724.9157)" d="M0 0-153.834-11.786-142.419 7.064C-127.026 32.494-112.487 56.514-97.836 80.365-97.232 81.349-96.423 82.281-95.567 83.268-93.561 85.58-91.288 88.201-90.775 92.405-90.609 93.767-90.189 94.717-89.677 94.885-89.57 94.92-89.444 94.937-89.305 94.937-88.503 94.937-87.236 94.367-86.256 93.321-63.523 69.052-40.979 44.543-17.11 18.596-11.491 12.487-5.794 6.295 0 0M233.21 1384.921C228.103 1381.157 222.822 1377.266 217.737 1373.33 194.66 1355.477 170.268 1338.391 146.68 1321.867 136.754 1314.913 126.489 1307.722 116.454 1300.568 115.571 1299.937 114.812 1299.203 114.078 1298.494 111.706 1296.199 111.294 1296.146 110.049 1296.876 108.805 1297.605 108.652 1298.546 108.741 1301.636 108.769 1302.588 108.797 1303.572 108.718 1304.585 103.584 1370.472 121.244 1433.081 141.093 1490.925 143.658 1498.396 144.658 1499.21 152.394 1499.246 155.711 1498.209 159.132 1497.116 162.631 1495.998 171.032 1493.316 179.718 1490.541 188.582 1488.004 201.179 1484.398 213.834 1480.153 226.073 1476.047 247.368 1468.904 269.389 1461.517 292.102 1457.137 296.846 1456.222 297.489 1455.015 297.548 1454.88 297.967 1453.902 296.043 1450.892 294.894 1449.094 294.074 1447.811 293.226 1446.484 292.547 1445.132 279.393 1418.955 255.915 1401.653 233.21 1384.921M141.495 1295.203 141.246 1295.769C145.592 1299.1 149.924 1302.448 154.257 1305.797 165.106 1314.182 176.326 1322.853 187.568 1331.084 200.171 1340.313 213.108 1349.554 225.619 1358.492 237.649 1367.086 250.088 1375.972 262.229 1384.846 269.252 1389.977 273.379 1391.063 280.77 1384.494 292.061 1374.459 304.429 1365.12 317.523 1355.234 321.923 1351.911 326.435 1348.504 331.107 1344.924ZM211.09 1132.888C208.331 1132.958 205.295 1135.424 201.809 1140.426 194.279 1151.232 186.701 1162.276 179.372 1172.957 171.868 1183.893 164.109 1195.201 156.39 1206.272 148.235 1217.964 139.825 1229.764 131.691 1241.176 126.992 1247.769 122.291 1254.361 117.616 1260.969 116.346 1262.762 113.375 1266.959 114.058 1268.817 114.294 1269.457 115.507 1271.115 121.68 1272.692 168.338 1284.613 215.647 1297.186 261.398 1309.346 282.932 1315.068 304.466 1320.791 326.013 1326.47 326.576 1326.619 327.231 1326.669 328.034 1326.669 328.734 1326.669 329.548 1326.63 330.516 1326.584 331.845 1326.522 333.39 1326.45 335.242 1326.45L335.702 1326.485C338.138 1326.865 339.307 1326.77 339.805 1326.67 339.728 1325.814 339.148 1324.12 338.744 1322.944 338.09 1321.031 337.347 1318.862 337.094 1316.654 331.761 1270.085 302.27 1235.83 273.751 1202.702 268.325 1196.399 262.714 1189.881 257.344 1183.368 252.446 1177.428 247.288 1171.496 242.301 1165.759 234.933 1157.283 227.313 1148.519 220.314 1139.487 216.868 1135.04 213.764 1132.818 211.09 1132.888M106.133 1206.771 106.128 1249.699 107.396 1250.196 122.614 1228.33C135.746 1209.451 149.325 1189.93 162.761 1170.78 166.943 1164.818 171.288 1158.831 175.49 1153.042 180.922 1145.554 186.541 1137.813 191.842 1130.078 195.753 1124.37 197.098 1120.642 196.336 1117.614 195.599 1114.687 192.722 1111.963 187.537 1109.285 167.599 1098.985 148.099 1087.219 129.241 1075.84 124.16 1072.773 119.078 1069.708 113.984 1066.667 108.924 1063.646 107.54 1064.263 107.399 1064.343 107.263 1064.421 106.072 1065.269 106.081 1071.149 106.151 1116.356 106.142 1161.564 106.133 1206.771M804.931-52.577C802.536-56.478 801.801-56.16 797.72-54.395 797.287-54.207 796.84-54.013 796.379-53.822 772.101-43.746 749.425-30.771 727.281-14.267 734.734-13.778 742.186-13.295 749.638-12.811 776.313-11.081 803.895-9.292 831.01-7.269 831.542-7.229 832.012-7.212 832.423-7.212 834.466-7.212 835.073-7.623 835.096-7.597 835.16-7.869 835.007-9.115 833.5-11.396 829.584-17.329 825.308-23.224 821.173-28.926 815.65-36.541 809.938-44.415 804.931-52.577M487.174-9.934C467.315-9.889 446.774-9.847 426.783-14.923 425.094-15.351 423.525-15.131 421.463-13.007L520.053 45.79C523.418 47.797 526.803 49.772 530.188 51.749 537.519 56.027 545.098 60.451 552.361 65.139 562.653 71.781 562.364 81.419 562.109 89.921 562.012 93.185 561.919 96.266 562.37 99.143 562.659 100.988 562.384 102.805 562.121 104.564 561.526 108.517 561.711 109.22 563.538 109.939 565.736 110.803 566.704 110.07 569.394 106.702 570.292 105.576 571.221 104.413 572.335 103.416L578.52 97.9C592.894 85.106 600.812 78.057 602.76 72.276 604.488 67.145 601.93 61.83 595.456 49.236 592.192 42.887 588.131 34.986 583.513 24.625 571.014-3.413 552.161-6.409 522.436-8.977 510.768-9.984 498.772-9.957 487.174-9.934M400.853-30.379C401.879-29.125 404.721-28.821 407.584-28.821 409.209-28.821 410.842-28.919 412.154-28.998 412.91-29.043 413.627-29.086 414.283-29.114 433.922-29.925 453.857-28.465 473.134-27.052 494.099-25.517 515.697-23.934 537.702-25.139 525.573-32.616 512.646-37.171 500.077-41.601 493.656-43.865 487.016-46.204 480.66-48.883 466.057-55.036 450.899-60.68 436.24-66.139 432.335-67.593 428.431-69.047 424.533-70.511 423.56-70.877 422.469-71.324 421.331-71.791 419.01-72.743 414.802-74.47 413.241-74.5 405.546-67.418 404.313-57.75 403.009-47.523 402.443-43.088 401.858-38.503 400.708-34.127 400.384-32.893 400.146-31.241 400.853-30.379M779.794 3.836C761.142 3.984 741.858 4.135 722.974 .306 719.066-.488 717.051-.488 715.45 1.608 714.837 2.41 714.833 2.758 714.833 2.761 714.893 3.118 715.992 4.068 716.521 4.523 717.312 5.208 718.21 5.985 718.903 6.943 751.793 52.37 776.979 87.037 800.565 119.344 806.279 127.173 812.208 135.068 817.941 142.704 829.132 157.609 840.705 173.021 851.288 188.728 856.569 196.563 860.541 200.667 865.97 200.667 869.776 200.667 874.299 198.649 880.489 194.484 884.787 191.593 889.084 188.415 893.241 185.339 907.972 174.444 923.206 163.177 943.83 160.032 946.502 159.624 946.904 158.933 946.908 158.925 947.307 158.186 945.95 155.207 945.22 153.607L944.721 152.503C943.698 150.407 905.103 71.233 900.068 62.581 898.506 59.566 897.378 57.248 896.189 54.808 894.852 52.061 893.469 49.22 891.303 45.042 889.069 40.732 886.507 36.79 883.688 33.323 869.48 15.858 855.768 10.798 832.211 6.624 814.92 3.56 797.063 3.7 779.794 3.836M468.873 212.848C471.744 213.265 474.714 213.696 477.381 214.523L494.366 219.778C527.96 230.16 562.697 240.894 596.399 252.765 599.287 253.783 601.645 254.264 603.662 254.264 608.108 254.264 610.895 251.926 614.05 247.846 619.264 241.101 624.488 234.173 629.54 227.474 638.415 215.704 647.592 203.534 657.077 191.876 664.27 183.035 665.281 174.122 660.164 164.625 649.358 144.566 638.356 125.092 626.708 104.474 622.781 97.523 618.831 90.531 614.865 83.471 576.543 123.281 531.208 153.969 487.333 183.671 482.596 186.877 477.86 190.083 473.134 193.3 471.425 194.462 469.505 195.628 467.474 196.862 463.88 199.045 455.467 204.155 455.818 206.25 456.546 210.594 460.548 211.64 468.873 212.848M389.154 465.084 650.895 454.334C647.017 439.469 643.172 424.846 639.372 410.399 628.193 367.888 617.634 327.735 607.666 286.974 604.72 274.922 599.591 269.643 587.342 266.052 543.751 253.271 498.272 238.897 452.169 223.331 447.467 221.744 444.307 221.469 442.507 222.495 440.801 223.465 439.612 226.037 438.532 231.091 433.152 256.255 427.707 281.406 422.262 306.556 416.187 334.611 409.907 363.621 403.826 392.169 400.278 408.823 396.982 425.518 393.493 443.193 392.086 450.318 390.649 457.595 389.154 465.084M250.598 263.424C275.529 301.959 299.079 338.356 322.937 374.955 330.299 386.248 337.928 397.653 345.306 408.683 354.149 421.905 363.294 435.577 372.06 449.176 372.375 449.665 372.658 450.141 372.928 450.597 374.209 452.755 374.457 453.031 375.905 453.061 377.919 453.1 377.92 453.102 378.22 450.25 378.306 449.423 378.4 448.584 378.571 447.78L384.28 420.822C397.581 358.015 411.336 293.07 425.229 229.264 425.557 227.756 425.917 226.392 426.245 225.157 426.777 223.153 427.438 220.658 427.038 220.088 426.643 219.524 424.783 218.476 416.77 217.783 385.202 215.05 354.343 216.719 321.674 218.487 301.48 219.58 280.879 220.694 259.87 220.694 247.399 220.694 234.784 220.301 222.025 219.278 231.736 234.273 241.24 248.961 250.598 263.424M93.443 220.406 90.459 220.271V220.134L71.261 220.126C47.541 220.109 23.015 220.093-1.102 220.254-2.137 220.261-3.174 220.142-4.182 220.027-8.256 219.563-8.966 219.805-9.612 221.885-10.227 223.865-9.287 225.238-6.833 228.122L-6.202 228.867C54.07 300.746 114.58 373.027 173.652 443.702 184.688 456.905 195.741 470.448 206.431 483.545L213.871 492.656C214.343 493.233 214.798 493.875 215.255 494.525 216.77 496.68 217.39 497.281 217.965 497.281 218.226 497.281 218.479 497.156 218.801 496.996 219.787 496.506 219.984 495.866 219.497 492.295 219.381 491.446 219.267 490.598 219.215 489.781 217.744 467.038 216.336 444.291 214.928 421.544 212.823 387.547 210.646 352.393 208.288 317.836 207.343 303.997 206.058 289.929 204.814 276.324 203.358 260.397 201.853 243.926 200.88 227.675 200.443 220.372 197.763 220.381 190.607 220.393L189.93 220.395C166.325 220.413 142.719 220.41 119.112 220.408ZM11.671 135.513C30.225 141.805 49.409 148.312 68.228 154.868 72.933 156.507 77.632 158.161 82.333 159.815 112.348 170.378 143.304 181.271 175.953 188.258 169.995 181.079 164.08 173.868 158.315 166.839 150.352 157.131 142.117 147.092 133.927 137.329 118.333 118.743 102.241 100.021 86.679 81.916 67.156 59.202 46.968 35.716 27.555 12.254 24.459 8.511 21.523 6.568 18.83 6.479 16.39 6.394 13.842 7.798 11.044 10.758-15.126 38.441-42.512 68.277-72.679 101.971-75.532 105.158-75.354 106.369-75.352 106.377-75.039 107.039-72.862 107.667-68.885 108.244-67.416 108.458-66.256 108.626-65.332 108.955-39.771 118.066-13.619 126.935 11.671 135.513M-17.123 203.062H-16.96C18.769 202.836 55.091 202.767 90.219 202.7 110.421 202.662 130.624 202.623 150.827 202.557 141.683 196.659 131.242 193.361 121.103 190.16 117.799 189.116 114.383 188.037 111.066 186.885 73.177 173.726 34.502 160.73-2.899 148.161-22.034 141.731-41.169 135.301-60.287 128.821-61.563 128.389-62.799 127.797-63.994 127.226-68.395 125.121-69.552 125.018-70.876 126.617-71.965 127.932-72.13 128.467-68.787 131.982-67.649 133.177-66.473 134.413-65.65 135.838-60.862 144.132-55.831 152.495-50.964 160.582-44.571 171.209-37.96 182.198-31.792 193.208-28.215 199.592-24.809 203.062-17.123 203.062M-76.583 358.636C-49.806 372.261-22.998 385.831 3.81 399.401 17.35 406.254 30.888 413.107 44.424 419.968 54.793 425.224 65.151 430.507 75.506 435.789 97.752 447.135 120.755 458.869 143.516 470.133 155.784 476.204 168.53 481.924 180.857 487.456 185.38 489.485 189.903 491.515 194.415 493.567 181.018 477.589 167.614 461.614 154.211 445.64 119.876 404.715 84.369 362.397 49.526 320.714 28.154 295.147 3.932 266.169-19.352 237.116-23.609 231.806-25.89 231.228-26.871 231.357-27.82 231.482-29.815 232.61-32.532 238.775-37.017 248.95-41.451 259.147-45.886 269.343-56.935 294.746-68.359 321.014-80.408 346.517-83.749 353.587-82.455 355.648-76.583 358.636M-83.477 383.398C-83.36 384.165-83.246 384.911-83.165 385.615-79.528 417.115-75.586 449.12-71.771 480.072L-68.369 507.741-68.282 508.387C-68.222 508.818-68.161 509.248-68.122 509.68-67.774 513.455-68.016 517.701-68.248 521.807-68.897 533.236-68.86 540.894-62.685 543.124-59.015 544.449-54.922 544.951-50.588 544.951-43.697 544.951-36.203 543.68-28.863 542.437-24.668 541.726-20.329 540.99-16.165 540.505-.651 538.694 15.107 536.631 30.345 534.637 47.393 532.406 65.022 530.099 82.411 528.131 108.524 525.174 134.777 522.559 162.571 519.791 172.642 518.787 182.944 517.761 193.554 516.687 172.064 502.186 150.592 491.625 129.761 481.38 120.607 476.878 111.141 472.222 102.044 467.393 58.642 444.354 13.741 422.241-29.681 400.858-43.604 394.002-57.526 387.145-71.424 380.249-73.002 379.467-74.381 378.347-75.714 377.265-78.979 374.616-80.189 373.987-81.924 374.909-84.191 376.117-84.239 378.4-83.477 383.398M-271.138 692.421C-260.804 684.891-250.465 677.369-240.125 669.849-214.238 651.019-187.47 631.548-161.256 612.26-150.917 604.652-140.532 596.733-130.49 589.075-121.367 582.119-111.934 574.925-102.547 567.973-97.481 564.221-96.495 562.475-96.56 561.67-96.598 561.212-97.212 559.462-103.558 556.195-116.962 549.296-131.486 544.335-145.53 539.537-155.918 535.988-166.659 532.318-176.952 527.873-180.271 526.441-181.251 527.481-184.001 532.557L-184.303 533.114C-207.515 575.718-230.776 618.297-254.038 660.876L-271.231 692.347ZM-269.432 726.04C-258.159 735.05-246.898 744.075-235.638 753.1-177.846 799.414-118.087 847.306-57.709 892.472-56.864 893.105-56.155 893.878-55.529 894.561-54.401 895.791-54.005 896.135-53.68 896.135-53.54 896.135-53.412 896.07-53.245 895.985-51.864 895.283-51.52 894.609-51.38 894.165-50.984 892.899-51.56 890.724-53.002 888.04L-53.303 887.48-53.35 886.843C-54.209 875.161-55.05 863.233-55.903 851.134-57.857 823.429-59.876 794.783-62.319 766.205L-62.425 764.974C-67.031 711.074-71.796 655.34-77.808 600.676-78.815 591.517-80.195 578.972-83.195 577.636-86.304 576.256-96.863 583.861-105.348 589.974-148.643 621.164-192.237 653.443-234.397 684.658-246.461 693.59-258.524 702.522-270.597 711.442-274.22 714.119-275.997 716.224-276.028 717.877-276.065 719.792-273.907 722.462-269.432 726.04M-196.033 993.806C-195.858 993.874-195.63 993.918-195.333 993.918-194.253 993.918-192.269 993.333-188.625 991.187-145.807 965.981-110.059 945.077-72.394 924.664-65.205 920.768-63.528 918.068-63.388 916.489-63.194 914.308-65.533 911.304-70.539 907.304-81.304 898.703-92.056 890.085-102.806 881.468-121.21 866.715-140.241 851.461-159.03 836.547-186.124 815.042-213.902 793.127-240.766 771.933-251.318 763.609-261.916 755.248-272.575 746.832-273.438 757.977-269.605 767.789-265.576 778.099-264.005 782.122-262.38 786.282-261.098 790.459-250.893 823.73-240.241 857.484-229.939 890.127-219.98 921.681-209.683 954.31-199.798 986.477-198.919 989.336-197.573 993.208-196.033 993.806M75.496 1036.348 75.046 1035.548 75.122 1034.632C76.143 1022.315 68.268 1016.735 59.933 1010.827 57.392 1009.026 54.992 1007.324 52.843 1005.416 34.888 989.458 15.648 974.205-2.958 959.455-13.435 951.15-24.269 942.561-34.772 933.928-41.555 928.352-46.648 927.765-53.561 931.762-102.404 960.003-142.404 982.964-179.445 1004.021-185.246 1007.319-185.945 1008.599-185.976 1008.996-186.03 1009.675-184.893 1011.442-179.171 1016.016-160.488 1030.951-141.612 1046.269-123.359 1061.083-87.547 1090.146-50.516 1120.199-13.235 1148.732-12.438 1149.342-11.68 1149.976-10.948 1150.591-9.289 1151.983-7.576 1153.42-6.484 1153.42-6.438 1153.42-6.393 1153.418-6.349 1153.412-5.844 1153.352-4.719 1152.879-2.862 1150.374 4.76 1140.087 12.585 1129.686 20.152 1119.626 36.304 1098.155 53.006 1075.952 68.665 1053.641 69.278 1052.768 69.981 1051.846 70.717 1050.885 75.089 1045.167 77.991 1040.777 75.496 1036.348M88.584 1139.33C86.785 1113.445 84.931 1086.761 85.284 1060.11 83.477 1062.215 81.662 1064.316 79.849 1066.415 71.849 1075.677 63.577 1085.255 56.064 1095.065 48.567 1104.855 41.263 1115.068 34.197 1124.944 27.089 1134.883 19.739 1145.159 12.163 1155.049 6.072 1163 5.342 1166.895 13.013 1174.292 22.294 1183.242 30.96 1192.393 40.136 1202.082 55.443 1218.246 71.235 1234.921 90.43 1250.994 93.688 1212.806 91.095 1175.481 88.584 1139.33M7.889 889.53C-2.348 897.157-12.932 905.044-23.463 912.654-27.419 915.512-27.75 916.846-27.756 917.187-27.773 917.969-26.454 919.411-23.836 921.475-17.792 926.24-11.752 931.011-5.713 935.782 16.505 953.334 39.481 971.483 62.32 989.025 62.79 989.386 63.276 989.772 63.774 990.169 67.077 992.797 69.78 994.751 72.407 994.751 73.123 994.751 73.835 994.606 74.55 994.29 76.995 993.209 77.128 991.554 76.885 987.103 76.782 985.221 76.675 983.274 77.024 981.349 79.018 970.329 80.978 959.302 82.938 948.274 88.889 914.799 95.043 880.184 102.089 846.31 102.736 843.201 102.761 839.932 102.787 836.471 102.816 832.595 102.847 828.411 103.866 824.205 69.719 843.465 38.321 866.858 7.889 889.53M214.806 532.73C214.681 532.576 213.875 531.822 210.22 532.163 176.367 535.315 140.333 538.842 104.685 544.209 68.831 549.607 32.194 552.892-5.315 556.053-10.091 556.456-14.966 557.345-19.682 558.203-26.396 559.426-33.279 560.68-40.378 560.68-42.82 560.68-45.288 560.532-47.782 560.182-50.631 559.784-51.555 560.284-51.82 560.517-52.284 560.925-52.344 561.962-52.338 562.544L-52.336 562.774-52.368 563.001C-52.602 564.635-51.687 565.737-49.543 567.864L-49.032 568.373C-34.893 582.564-20.787 596.79-6.682 611.015 29.86 647.868 67.646 685.976 105.433 722.844 112.881 730.11 125.188 732.723 137.55 729.66 149.341 726.738 158.516 719.192 161.496 709.964 172.224 676.751 182.491 642.775 192.419 609.917 199.501 586.477 206.825 562.239 214.261 538.462 215.635 534.065 214.956 532.916 214.806 532.73M290.731 650.451 290.211 649.468C285.917 641.281 281.645 632.918 277.513 624.829 269.273 608.698 260.753 592.018 251.68 576.014 249.224 571.68 247.036 567.118 244.918 562.707 240.834 554.193 236.629 545.428 230.089 537.276 209.333 599.312 192.468 653.112 178.387 710.463 195.043 703.587 210.821 696.424 226.13 689.474 248.115 679.494 268.88 670.067 290.662 662.121 292.35 661.505 293.383 660.731 293.732 659.821 294.557 657.669 292.436 653.668 290.731 650.451M371.32 481.026 370.825 480.132C348.238 439.02 321.784 399.192 296.201 360.676 291.762 353.993 287.325 347.311 282.903 340.619 261.098 307.617 239.448 274.426 220.865 245.906 220.636 245.553 220.429 245.184 220.223 244.814 219.746 243.95 219.494 243.471 218.335 243.485 218.299 247.134 218.197 250.858 218.097 254.481 217.821 264.535 217.535 274.932 218.582 285.067 222.341 321.462 224.855 360.231 226.263 403.589 227.292 435.285 229.088 472.714 234.597 509.993 236.095 520.131 242.207 530.161 248.118 539.859 250.499 543.766 252.96 547.807 255.115 551.834 261.806 564.349 268.708 577.029 275.381 589.291 284.364 605.796 293.653 622.863 302.565 639.77L303.378 641.333C306.959 648.266 309.107 651.408 313.329 650.256 314.993 649.801 316.745 649.429 318.44 649.069 326.278 647.407 333.047 645.971 335.307 637.374 345.865 597.196 356.858 556.414 367.49 516.975L374.217 492.01C375.262 488.127 373.347 484.678 371.32 481.026M106.333 751.876C74.436 713.665 37.633 678.467 2.042 644.427-17.873 625.38-38.411 605.738-58.171 585.514-54.208 693.78-44.481 800.523-34.727 900.926-19.476 889.671-4.161 878.911 10.69 868.477 45.541 843.993 78.457 820.865 108.357 793.293 117.467 784.892 116.445 763.991 106.333 751.876M481.477 650.525C477.303 643.469 473.147 636.416 468.992 629.369 443.676 586.429 417.532 542.081 388.733 498.735 379.221 524.593 372.558 550.494 366.097 575.598 361.21 594.593 356.156 614.234 350.001 633.16 347.705 640.222 348.52 643.437 349.607 644.892 350.767 646.442 353.114 647.226 356.593 647.226 356.823 647.226 357.06 647.222 357.301 647.215 375.103 646.704 393.149 648.052 410.601 649.355 433.594 651.073 457.325 652.845 481.477 650.525M638.723 590.514C635.141 589.312 631.436 588.07 627.908 586.687 612.353 580.591 596.784 574.525 581.216 568.459 528.493 547.919 473.975 526.679 420.859 504.539 419.753 504.078 418.722 503.349 417.724 502.643 414.407 500.3 413.912 500.384 412.616 501.903 411.28 503.469 411.402 504.013 413.794 507.192 414.383 507.972 414.979 508.771 415.502 509.601 420.841 518.064 426.196 526.521 431.55 534.977 453.92 570.302 477.05 606.829 498.624 643.43 502.413 649.858 506.181 651.89 510.594 651.89 513.763 651.89 517.264 650.842 521.342 649.621L522.173 649.373C558.794 638.457 594.692 627.65 632.698 616.207L668.474 605.441C660.078 597.681 649.243 594.045 638.723 590.514M747.321 520.871C746.795 518.598 743.966 516.254 738.67 513.707 727.395 508.284 716.375 501.991 705.716 495.905 692.069 488.113 677.956 480.056 663.37 473.882 647.636 467.224 629.766 468.906 612.484 470.533 607.214 471.03 601.764 471.543 596.441 471.815 594.186 471.93 591.909 472.372 589.498 472.839 586.81 473.359 584.029 473.898 581.157 473.985L560.643 474.614C521.413 475.822 480.848 477.07 440.928 477.672 429.105 477.849 418.829 479.163 407.775 481.976 424.103 490.298 440.348 496.545 456.116 502.611 461.872 504.825 467.825 507.114 473.627 509.449 519.393 527.862 565.357 546.09 612.341 564.699 621.868 568.472 631.601 572.218 641.013 575.84 652.304 580.186 663.979 584.679 675.404 589.261 689.231 594.804 697.665 592.257 705.49 580.171 714.548 566.182 725.147 552.883 735.396 540.021 737.874 536.913 740.351 533.804 742.808 530.686 746.434 526.083 747.827 523.056 747.321 520.871M770.432 436.172C769.513 421.292 768.563 405.904 768.887 390.677 769.191 376.448 767.932 361.95 766.716 347.931 765.186 330.313 763.605 312.096 765.043 293.944 765.149 292.618 764.951 291.456 763.898 290.258 761.031 295.149 758.143 300.027 755.255 304.906 747.709 317.648 739.907 330.825 732.658 343.979 725.211 357.493 717.806 371.333 710.646 384.717 699.176 406.154 687.316 428.32 674.95 449.773 672.468 454.078 671.595 457.287 672.281 459.587 672.999 461.992 675.507 464.092 680.939 466.834 687.867 470.332 694.772 474.138 701.45 477.818 714.276 484.887 727.54 492.197 741.266 497.465 751.254 501.298 758.553 503.681 763.218 503.681 764.917 503.681 766.267 503.365 767.269 502.688 770.89 500.243 771.771 491.744 771.979 479.734 772.23 465.291 771.316 450.488 770.432 436.172M900.931 353.418C891.225 325.977 881.187 297.602 870.61 269.967 868.636 264.809 867.846 259.628 867.082 254.618 866.465 250.57 865.882 246.748 864.722 242.951 860.343 228.626 852.168 221.289 837.381 218.414 818.623 214.768 799.857 211.156 781.091 207.544 756.484 202.808 731.876 198.072 707.285 193.258 706.159 193.037 705.111 192.622 704.186 192.255 703.588 192.016 702.722 191.673 702.275 191.606 702.167 191.77 701.979 192.123 701.775 192.804 701.56 193.523 701.516 193.672 703.583 195.374 704.065 195.769 704.564 196.182 705.059 196.63 735.978 224.716 767.293 253.394 797.576 281.127 824.792 306.052 852.936 331.827 880.701 357.085 887.54 363.308 895.205 369.013 902.617 374.531 905.219 376.466 907.887 378.452 910.524 380.463 907.31 371.453 904.12 362.436 900.931 353.418M633.166 46.162C648.701 32.083 663.377 18.784 677.964 5.032 680.472 2.668 680.459 1.678 680.461 1.678 680.457 1.666 679.89 .494 675.211-.607 659.948-4.203 644.031-4.132 628.641-4.065 614.629-4.002 600.14-3.937 585.886-6.575 584.371-6.855 583.262-6.73 582.923-6.242 582.269-5.3 582.426-2.029 584.838 2 593.415 16.334 601.59 30.462 610.243 45.421 612.954 50.106 615.676 54.811 618.42 59.54 623.384 55.024 628.297 50.572 633.166 46.162M627.781 78.263C628.28 79.036 628.758 79.785 629.137 80.496L633.607 88.897C646.943 113.969 660.734 139.894 675.076 164.951 680.7 174.779 690.847 175.692 701.59 176.661 705.112 176.978 708.753 177.306 712.225 177.966 726.116 180.608 740.194 183.704 753.808 186.699 782.89 193.096 812.9 199.697 844.72 202.78 840.056 196.249 835.501 189.857 831.021 183.572 818.696 166.277 807.053 149.941 795.219 133.624 782.943 116.695 770.616 99.804 758.287 82.912 741.696 60.176 724.539 36.667 707.796 13.452L707.297 12.758C702.957 6.714 701.494 4.678 695.593 8.781 678.597 20.598 663.965 35.46 649.815 49.832 642.362 57.4 634.656 65.227 626.661 72.56 625.377 73.739 625.374 74.533 627.781 78.263M676.348 193.275C674.725 193.399 672.988 194.641 671.035 197.072 665.992 203.353 660.732 209.647 655.646 215.734 642.625 231.315 629.162 247.426 618.302 264.566 613.785 271.694 617.312 280.963 621.046 290.775 622.557 294.748 624.12 298.855 625.07 302.784 633.451 337.429 643.071 371.678 653.256 407.939 656.547 419.66 659.891 431.566 663.259 443.721 668.215 434.741 673.057 425.99 677.806 417.405 691.083 393.403 703.624 370.734 715.984 347.954 722.52 335.909 728.99 323.562 735.247 311.621 741.374 299.93 747.709 287.841 754.11 276.026 758.17 268.531 759.154 263.785 753.267 258.643 748.902 254.832 744.532 251.027 740.162 247.221 721.564 231.023 702.332 214.274 683.838 197.344 680.688 194.461 678.242 193.132 676.348 193.275M777.452 284.508 784.885 488.359 809.388 470.096C841.244 446.353 870.956 424.209 900.655 402.051 901.546 401.387 903.911 399.623 903.949 398.817 903.954 398.718 903.927 397.785 901.542 395.62 870.177 367.165 838.526 337.995 807.917 309.786 798.461 301.071 789.003 292.356 779.54 283.647ZM-192.071 1029.008C-195.403 1033.183-195.403 1037.923-195.403 1043.302L-195.419 1056.382C-195.465 1090.257-195.513 1125.285-195.303 1159.729-195.296 1160.874-195.409 1162.077-195.519 1163.241-195.742 1165.613-195.995 1168.301-195.021 1169.352-194.415 1170.005-193.016 1170.361-191.064 1170.361-190.958 1170.361-190.852 1170.36-190.744 1170.358-148.211 1169.544-105.768 1165.341-60.834 1160.891-51.094 1159.926-41.221 1158.948-31.184 1157.989ZM-97.031 392.907C-97.025 391.121-97.017 389.336-97.024 387.554-97.03 385.772-97.453 383.488-99.43 382.731-100.219 382.428-100.74 382.228-102.734 385.861-121.679 420.363-140.612 454.87-160.067 490.33L-172.034 512.141C-164.412 514.743-156.89 517.26-149.458 519.75-128.799 526.665-109.286 533.198-89.872 540.726-83.727 543.108-82.214 542.142-82.063 542.024-80.866 541.096-81.473 535.912-81.673 534.207-83.986 514.469-86.464 494.41-88.861 475.011-91.335 454.984-93.894 434.276-96.275 413.89-97.092 406.896-97.061 399.785-97.031 392.907M756.602-63.416C719.925-57.071 684.395-46.062 649.969-35.395 635.916-31.041 621.497-26.573 607.023-22.43 664.345-13.514 718.114-8.025 756.602-63.416M-339.354 914.044C-322.883 923.242-306.65 933.545-290.952 943.51-267.891 958.146-244.104 973.245-217.831 986.088L-290.221 753.421C-309.826 792.654-323.897 834.126-337.529 874.303-340.319 882.525-343.108 890.746-345.943 898.95-348.167 905.388-346.012 910.326-339.354 914.044M-355.089 1029.98C-355.301 1032.028-355.276 1033.181-355.016 1033.408-355.013 1033.411-354.736 1033.597-353.885 1033.597-353.28 1033.597-352.384 1033.503-351.089 1033.181-321.121 1025.735-290.541 1018.626-260.967 1011.751-250.543 1009.328-240.12 1006.906-229.701 1004.463L-229.567 1003.459-247.725 992.237C-273.174 976.509-298.621 960.779-324.099 945.096-324.996 944.544-326.089 944.096-327.246 943.622-329.151 942.843-331.119 942.037-332.797 940.568L-334.264 939.275C-338.119 935.864-345.294 929.515-348.062 931.202-351.003 932.997-353.186 940.355-353.624 949.948-354.892 977.725-355.007 1004.996-354.951 1028.008-354.95 1028.561-355.013 1029.239-355.089 1029.98M-211.1 1090.317C-209.948 1072.508-208.859 1055.687-209.119 1038.497-209.224 1031.564-209.565 1025.63-212.682 1023.226-215.062 1021.39-219.566 1021.276-226.065 1022.887-254.394 1029.904-282.967 1036.045-313.218 1042.545-324.278 1044.921-335.571 1047.347-347.172 1049.886-302.37 1090.324-259.252 1127.06-212.315 1164.785-214.248 1138.957-212.649 1114.263-211.1 1090.317M-414.981 879.113C-414.661 880.616-410.12 882.675-408.628 883.352-403.641 885.613-398.385 887.093-392.819 888.658-383.633 891.243-374.133 893.917-366.056 900.376-365.318 900.966-364.879 901.151-364.69 901.208-364.417 900.947-363.9 900.145-363.082 897.734-355.686 875.955-348.272 854.182-340.857 832.408-331.942 806.228-323.026 780.049-314.145 753.859L-330.844 774.314C-346.983 794.082-362.449 813.024-377.886 831.988-381.598 836.55-385.248 841.162-388.898 845.774-396.192 854.991-403.733 864.522-411.696 873.498-414.956 877.174-415.079 878.649-414.981 879.113M-371.584 999.672C-371.741 981.603-371.888 964.525-367.703 950.099-367.699 946.877-367.652 944.25-367.611 942.018-367.538 937.934-367.489 935.237-367.78 932.678-368.221 928.795-369.188 928.296-369.198 928.291-369.206 928.287-370.134 927.886-373.02 929.76L-378.109 933.069C-388.788 940.021-399.832 947.208-411.073 953.738-413.712 955.271-415.194 956.669-415.475 957.891-415.771 959.182-414.968 961.181-412.947 964.186-404.956 976.062-397.191 988.337-389.683 1000.209-385.247 1007.221-380.81 1014.234-376.308 1021.205-374.792 1023.551-373.966 1024.22-373.144 1024.22-372.864 1024.22-372.584 1024.142-372.277 1024.026-371.454 1023.717-371.258 1023.644-371.498 1020.96-371.565 1020.199-371.624 1019.452-371.609 1018.758-371.474 1012.386-371.531 1005.922-371.584 999.672M-420.019 939.684C-406.169 931.746-394.893 924.418-384.208 915.02-389.046 910.46-395.418 907.741-401.608 905.1-402.519 904.712-403.425 904.325-404.323 903.934-405.896 903.249-407.523 902.334-409.098 901.449-414.067 898.655-417.506 896.951-419.923 898.669-425.345 902.525-424.611 910.684-423.18 918.157-422.865 919.802-422.445 921.442-422 923.177-420.785 927.922-419.447 933.15-420.019 939.684M-140.538-50.64C-149.687-52.62-150.621-50.33-154.098-41.81-154.951-39.721-157.545-33.368-156.194-31.192-154.956-29.198-149.152-28.562-144.895-28.256-139.607-27.876-134.327-27.429-129.039-26.98-115.617-25.844-101.89-24.68-87.897-24.68-82.281-24.68-76.622-24.868-70.925-25.319-78.359-43.392-86.32-51.954-105.308-49.219-116.403-47.621-128.914-48.125-140.538-50.64M-8.262-21.487C-11.091-23.873-13.806-26.302-16.47-28.685-30.792-41.498-43.25-52.643-63.495-48.382-57.403-27.113-50.155-21.527-8.262-21.487M959.711 165.057C956.52 185.519 955.009 206.483 953.548 226.755 952.997 234.403 952.445 242.052 951.807 249.699 949.716 274.759 947.022 300.178 944.416 324.759 942.037 347.204 939.577 370.412 937.586 393.259 936.64 404.116 934.723 415.451 922.857 424.233L916.013 429.296C890.066 448.484 863.237 468.326 837.954 489.047 830.919 494.813 823.509 500.353 816.342 505.71 790.011 525.394 765.141 543.988 752.38 575.927 746.146 591.526 738.389 610.94 718.893 621.373 700.059 631.452 681.138 642.136 662.84 652.469 639.158 665.841 614.67 679.669 590.053 692.366 584.973 694.987 579.919 698.238 575.03 701.381 562.376 709.521 549.29 717.937 532.731 718.023 503.44 718.171 473.727 716.84 444.993 715.551 411.205 714.035 376.265 712.466 341.892 713.313 340.581 713.346 339.276 713.342 337.975 713.337 333.207 713.32 328.699 713.305 324.139 715.178 271.883 736.643 220.315 757.351 163.153 780.257 156.78 782.811 153.663 786.455 152.393 792.837 138.014 865.114 123.145 939.852 107.612 1014.061 106.146 1021.067 107.855 1025.318 113.708 1029.227 120.607 1033.832 127.773 1038.344 134.703 1042.705 144.505 1048.875 154.639 1055.255 164.263 1062.053 171.409 1067.101 179.031 1071.835 186.4 1076.415 205.253 1088.128 224.747 1100.24 239.025 1119.096 264.7 1153.002 288.311 1181.913 311.205 1207.479 343.462 1243.503 362.202 1286.859 380.326 1328.79L381.479 1331.454C388.031 1346.609 384.129 1356.031 368.427 1362.957 352.474 1369.994 336.514 1377.769 321.08 1385.286 315.882 1387.819 310.685 1390.35 305.478 1392.86 295.432 1397.701 288.988 1401.536 287.905 1405.688 286.832 1409.806 290.386 1416.014 296.467 1424.693 306.042 1438.358 314.111 1451.125 315.884 1469.027 320.345 1514.088 325.403 1565.162 297.227 1612.497 288.973 1626.363 278.924 1631.14 264.643 1627.989 248.138 1624.347 231.456 1620.304 215.322 1616.395 201.265 1612.989 186.731 1609.467 172.393 1606.229 159.644 1603.351 153.161 1597.279 150.02 1585.273L146.447 1571.565C138.634 1541.544 130.556 1510.501 120.916 1480.657 99.961 1415.77 90.946 1360.873 92.551 1307.892 92.969 1294.079 89.084 1283.096 79.56 1271.164 72.218 1261.966 63.903 1253.28 55.861 1244.881 46.783 1235.397 37.395 1225.591 29.349 1214.989 1.716 1178.578-25.178 1168.1-60.581 1179.954-62.354 1180.548-64.145 1180.412-65.725 1180.291-66.261 1180.25-66.796 1180.206-67.317 1180.203-93.537 1180.058-120.095 1182.715-145.778 1185.283-159.471 1186.653-173.63 1188.068-187.599 1189.047-209.36 1190.573-221.873 1183.709-235.008 1172.138-250.375 1158.601-266.085 1144.923-281.278 1131.694-299.021 1116.244-317.37 1100.269-335.29 1084.416-364.206 1058.836-397.472 1037.884-429.644 1017.622-440.984 1010.48-452.708 1003.095-464.091 995.605-475.57 988.052-480.302 979.546-479.917 967.164-479.028 938.629-478.955 910.429-479.702 883.35-480.027 871.586-476.278 862.848-467.547 855.019-430.637 821.919-390.606 786.671-347.986 753.158-343.602 749.711-338.831 746.316-334.217 743.031-320.562 733.311-306.442 723.26-300.093 710.428-284.875 679.671-272.367 646.418-262.916 611.594-241.414 532.374-201.797 463.878-145.165 408.008-121.611 384.77-103.264 359.895-90.636 334.072-81.552 315.496-73.567 295.987-65.843 277.12-60.099 263.084-54.159 248.572-47.791 234.497-41.045 219.584-41.399 207.841-48.975 195.233-79.632 144.211-111.333 91.451-142.433 37.788-145.636 32.263-149.418 26.702-153.075 21.324-168.665-1.595-184.784-25.295-166.802-57.868-165.253-60.676-164.898-64.828-164.523-69.225-164.252-72.391-163.973-75.664-163.22-78.778-161.244-86.934-156.854-90.89-148.065-92.431-126.154-96.272-103.897-96.079-82.376-95.893-75.966-95.837-69.338-95.779-62.835-95.831-54.904-95.916-47.322-92.313-42.165-86.01-32.25-73.893-20.835-62.659-9.795-51.795-.312-42.463 9.495-32.812 18.367-22.594 84.579 53.665 143.525 122.689 198.573 188.422 206.535 197.932 214.515 199.792 225.645 199.731 242.335 199.674 259.028 199.542 275.721 199.41 319.505 199.064 364.78 198.706 409.297 199.768 430.772 200.281 448.036 194.9 465.285 182.322 482.323 169.901 500.039 157.813 517.172 146.122 521.078 143.458 524.984 140.793 528.885 138.122 546.958 125.75 554.414 98.26 545.166 78.094 543.921 75.38 542.975 74.378 540.759 73.434 518.16 63.801 497.203 50.871 476.934 38.367 466.637 32.014 455.988 25.445 445.29 19.414 441.526 17.291 437.736 15.202 433.947 13.113 403.792-3.513 372.61-20.706 355.504-54.439 344.273-76.585 343.635-79.956 364.373-94.062 369.367-97.46 373.871-99.081 378.757-99.081 381.134-99.081 383.603-98.697 386.261-97.947 401.428-93.673 416.991-91.675 432.513-92.013 488.422-93.226 545.202-91.689 600.112-90.201 655.343-88.704 712.455-87.157 768.621-88.415 790.459-88.9 804.852-80.803 813.934-62.921 818.215-54.491 823.895-46.435 829.388-38.644 834.114-31.942 839-25.011 843.089-17.744 848.478-8.168 855.089-2.202 864.528 1.598 878.987 7.419 888.038 14.311 894.795 24.642 898.423 30.19 901.189 36.263 903.863 42.135 904.51 43.556 905.157 44.975 905.814 46.385 909.639 53.423 955.253 144.863 957.129 148.634 960.636 154.844 960.252 161.588 959.711 165.057" fill="#231f20"/>
</g>
</g>
</svg>
