<svg xmlns="http://www.w3.org/2000/svg" xmlns:xlink="http://www.w3.org/1999/xlink" xmlns:inkscape="http://www.inkscape.org/namespaces/inkscape" version="1.1" width="2016" height="1728" viewBox="0 0 2016 1728">
<defs>
<clipPath id="clip_1">
<path transform="matrix(1,0,0,-1,0,1728)" d="M0 1728H2016V0H0Z"/>
</clipPath>
</defs>
<g inkscape:groupmode="layer" inkscape:label="Layer 1">
<g clip-path="url(#clip_1)">
<path transform="matrix(1,0,0,-1,108.79,600.0083)" d="M0 0C-.129 .485-.258 .97-.387 1.455-5.049 .417-9.724-.565-14.37-1.669-23.941-3.943-33.747-5.219-43.107-8.383-46.222-9.436-49.392-10.444-51.868-12.742-53.901-14.628-54.07-17.019-52.937-19.368-51.922-21.47-49.857-21.658-47.811-21.304-46.304-21.042-44.805-20.651-43.355-20.162-28.146-15.029-14.237-7.17 0 0M470.121-214.453C470.082-214.938 470.042-215.423 470.003-215.909 480.04-218.962 490.079-222.009 500.113-225.072 505.155-226.611 510.178-228.209 515.228-229.723 517.178-230.307 519.19-230.739 520.183-228.169 522.876-221.198 519.029-214.685 511.58-214.533 497.766-214.252 483.941-214.453 470.121-214.453M435.65-497.434C434.31-499.497 434.623-500.815 434.878-502.094 436.974-512.621 438.886-523.188 441.25-533.654 446.353-556.232 453.152-578.209 464.492-598.602 475.99-619.277 492.485-635.115 511.822-648.259 516.515-651.45 517.943-650.754 519.568-645.136 521.57-638.217 520.553-631.731 516.931-625.499 513.156-619.004 507.232-614.69 501.46-610.377 482.365-596.108 468.308-577.877 457.582-556.778 451.067-543.963 446.462-530.488 442.329-516.796 440.44-510.537 438.685-504.219 435.65-497.434M-53.195 75.941C-53.464 75.518-53.86 75.182-53.875 74.831-54.286 64.929-53.839 55.036-53.33 45.154-53.112 40.929-50.831 37.864-47.034 35.742-38.442 30.943-28.99 29.949-19.557 30.227-7.062 30.595 5.389 32.139 17.715 34.359 37.383 37.902 56.859 42.346 76.25 47.16 81.883 48.558 87.711 49.366 93.734 51.813 92.608 52.235 92.245 52.49 91.882 52.49 64.36 52.525 36.837 52.285 9.329 53.663-1.796 54.22-12.447 56.326-22.452 61.286-30.933 65.49-39.363 69.797-47.853 73.984-49.55 74.821-51.068 76.332-53.195 75.941M339.262-214.367C341.174-217.298 343.227-217.584 345.002-218.281 365.265-226.237 385.682-233.818 405.771-242.187 427.52-251.247 448.682-261.539 468.212-274.925 486.508-287.465 501.484-302.87 511.251-322.996 512.592-325.76 514.165-328.421 515.78-331.038 516.51-332.22 516.848-334.126 519.046-333.657 519.934-330.934 520.562-328.149 520.474-325.263 520.151-314.745 520.926-304.242 519.426-293.691 518.051-284.018 514.422-276.071 506.825-269.941 496.424-261.55 484.586-255.62 472.145-251.196 438.37-239.186 403.744-229.972 369.063-220.997 359.553-218.536 350.009-216.166 339.262-214.367M251.852-174.646C250.162-168.833 246.537-164.18 243.366-159.297 236.973-149.454 233.585-138.777 233.506-126.998 233.413-113.154 233.915-99.401 235.922-85.641 238.325-69.171 240.951-52.744 243.732-36.337 246.685-18.928 246.798-1.837 239.022 14.631 235.232 22.66 231.563 30.829 223.855 35.796 211.99 43.442 199.421 49.803 185.853 53.97 184.76 54.305 183.391 55.375 182.2 53.281 183.675 50.276 186.879 49.036 189.52 47.29 195.966 43.026 202.225 38.638 207.051 32.429 216.905 19.752 220.797 5.053 221.567-10.581 222.241-24.257 219.77-37.686 216.998-51.007 214.584-62.605 212.424-74.267 211.308-86.026 210.46-94.97 210.999-104.054 211.087-113.074 211.167-121.298 213.189-129.155 216.304-136.722 223.311-153.745 236.573-165.054 251.852-174.646M-38.481-61.525C-34.625-61.623-32.682-60.537-30.647-59.853-17.007-55.271-2.848-54.374 11.106-56.451 28.056-58.973 40.624-69.543 51.136-82.484 60.329-93.802 67.685-106.371 74.487-119.201 91.913-152.072 107.867-185.672 123.725-219.318 132.915-238.816 141.484-258.621 152.408-277.274 167.252-302.623 187.39-322.147 213.965-335.151 235.848-345.857 258.875-353.171 282.235-359.595 306.85-366.364 331.533-372.871 354.984-383.193 373.864-391.504 390.202-403.093 402.339-420.038 411.37-432.647 418.04-446.53 423.805-460.84 426.497-467.522 429.728-474.129 429.5-481.676 429.456-483.112 430.021-484.666 431.663-485.435 433.882-484.093 433.197-481.886 432.987-480.093 432.531-476.18 431.76-472.299 431.005-468.427 428.059-453.323 421.681-439.562 413.938-426.433 406.646-414.068 397.92-402.705 387.293-393 372.243-379.258 355.102-368.584 337-359.279 306.803-343.753 275.18-331.463 244.117-317.9 225.133-309.61 206.444-300.763 188.967-289.523 167.366-275.631 150.638-257.56 139.434-234.279 131.759-218.331 126.291-201.647 121.275-184.785 114.697-162.668 109.772-140.082 102.512-118.154 95.513-97.014 88.068-76.063 74.106-58.229 62.285-43.128 47.02-35.041 27.585-37.669 9.222-40.152-8.564-45.19-25.556-52.755-29.98-54.725-33.834-57.5-38.481-61.525M298.88-175.798C300.104-173.704 298.883-172.708 298.154-171.787 294.498-167.167 292.579-161.857 291.568-156.144 289.249-143.029 289.942-129.769 290.901-116.682 291.761-104.941 293.437-93.189 295.587-81.535 298.408-66.241 300.905-50.873 302.971-35.46 304.452-24.416 306.187-13.327 303.652-2.083 298.872 19.115 288.901 36.795 270.512 49.197 258.182 57.512 244.752 63.495 230.798 68.397 206.272 77.014 180.974 82.737 155.608 88.165 128.11 94.048 100.543 99.636 73.616 107.874 55.044 113.555 36.765 120.045 20.294 130.545 5.779 139.799-7.203 150.743-18.311 164.186-30.259 178.644-41.979 193.102-50.478 209.916-50.999 210.946-51.096 212.632-53.433 212.261-53.433 198.897-53.39 185.49-53.449 172.083-53.485 163.928-51.363 156.395-46.867 149.646-40.272 139.75-32.726 130.543-24.661 121.849-10.328 106.398 7.585 96.918 28.002 92.055 41.248 88.899 54.695 87.008 68.191 85.192 78.635 83.787 89.138 82.933 99.59 81.835 107.843 80.968 116.267 80.624 124.533 79.806 139.141 78.36 153.781 77.095 168.35 75.068 182.937 73.038 197.453 70.853 211.674 67.048 232.785 61.4 251.359 51.877 264.722 33.629 273.434 21.732 279.253 9.458 278.589-5.843 277.904-21.648 276.946-37.433 275.625-53.174 274.086-71.5 270.591-89.618 268.878-107.95 267.482-122.889 269.271-137.348 274.7-151.284 279.212-162.865 287.912-170.41 298.88-175.798M516.961-183.467C510.979-182.483 506.465-182.701 501.902-183.203 490.785-184.426 479.673-185.795 468.521-186.56 460.419-187.116 452.306-187.781 444.214-188.361 428.809-189.464 413.553-189.376 398.142-188.247 369.397-186.138 343.946-160.514 338.865-137.22 334.768-118.433 336.374-99.657 338.726-80.9 339.924-71.344 341.872-61.883 343.279-52.35 345.775-35.449 348.579-18.602 350.262-1.572 351.372 9.654 351.872 20.742 349.849 31.854 347.273 45.996 340.517 58.019 329.828 67.424 316.498 79.154 300.919 87.47 284.696 94.517 252.948 108.307 220.008 118.75 187.043 129.144 154.093 139.532 120.996 149.532 89.345 163.619 72.352 171.181 56.473 180.594 42.171 192.457 25.613 206.192 12.407 222.956 .138 240.477-16.916 264.832-32.131 290.36-47.763 315.622-49.191 317.93-50.353 320.477-53.055 322.789-53.98 311.344-53.925 300.999-49.549 290.955-44.882 280.246-39.767 269.774-33.995 259.638-23.635 241.447-11.638 224.335 .903 207.591 13.951 190.173 29.204 175.212 47.927 163.806 71.237 149.605 96.307 139.588 122.299 131.688 149.663 123.371 177.241 115.758 204.375 106.685 230.491 97.952 256.521 88.988 280.942 76.072 298.243 66.922 313.944 55.84 324.518 38.73 330.171 29.584 334.217 19.775 335.121 9.184 336.183-3.27 335.826-15.776 334.293-28.3 332.427-43.55 329.45-58.587 326.922-73.709 323.704-92.966 320.458-112.158 320.579-131.828 320.666-145.981 324.683-158.722 331.903-170.528 337.459-179.613 345.348-186.145 355.869-189.08 364.797-191.572 373.89-193.072 383.15-193.254 392.182-193.432 401.22-193.337 410.255-193.327 423.477-193.312 436.748-193.971 449.907-193.053 466.55-191.892 483.294-191.723 499.818-189.217 505.298-188.386 511.265-188.486 516.961-183.467M517.219-579.284C519.744-568.603 520.921-559.723 515.771-551.107 513.275-546.933 510.376-543.127 506.941-539.642 493.111-525.61 480.871-510.424 473.112-492.062 466.937-477.451 461.806-462.469 457.162-447.32 451.28-428.132 444.216-409.434 434.641-391.748 422.827-369.928 407.186-351.508 386.508-337.524 356.408-317.167 325.59-297.931 294.734-278.754 258.831-256.441 222.326-235.056 187.746-210.687 173.384-200.565 159.039-190.317 148.144-176.121 140.731-166.461 135.396-155.756 134.524-143.711 133.414-128.375 134.123-112.937 135.869-97.628 137.188-86.057 137.808-74.458 138.328-62.84 138.644-55.776 137.598-48.811 137.117-41.8 136.465-32.285 134.733-23.008 131.053-14.271 125.191-.355 114.815 8.012 99.348 8.809 82.97 9.653 66.857 7.512 51.111 3.043 44.541 1.179 38.042-1.125 31.254-5.36 46.908-6.478 61.458-5.001 75.945-6.855 84.358-7.932 91.664-10.692 97.841-16.475 108.484-26.439 114.414-39.064 118.483-52.755 125.733-77.154 127.115-102.401 128.908-127.536 129.783-139.807 131.077-151.987 133.083-164.093 136.838-186.747 146.743-206.114 163.989-221.658 176.487-232.923 190.299-242.288 204.578-251.045 237.069-270.971 271.102-288.147 304.384-306.661 327.873-319.726 351.044-333.274 373.2-348.52 388.362-358.954 401.808-371.371 413.701-385.25 426.432-400.105 434.676-417.682 441.168-436.075 447.62-454.351 451.855-473.25 457.134-491.856 461.284-506.48 466.049-520.828 474.887-533.55 486.55-550.338 502.167-563.326 517.219-579.284M517.456-500.853C520.476-488.927 519.597-478.406 517.615-468.054 511.109-434.077 501.147-401.072 488.491-368.89 476.924-339.476 458.402-315.572 432.377-297.267 409.605-281.25 385.378-267.808 360.76-255.009 326.961-237.436 292.606-220.93 259.369-202.283 240.154-191.502 221.422-179.971 204.438-165.826 193.353-156.593 184.33-146.057 182.491-131.009 181.879-126.005 180.967-121.012 180.749-115.99 179.946-97.515 180.969-79.059 182.266-60.645 182.619-55.634 182.787-50.555 183.525-45.57 185.558-31.858 186.743-18.104 185.976-4.241 185.406 6.044 181.261 14.835 174.35 22.396 162.659 35.187 147.473 40.208 130.802 41.671 127.937 41.922 124.709 42.684 121.536 40.486 124.525 37.237 128.461 36.207 131.845 34.369 138.292 30.869 144.371 26.907 148.874 21.035 154.782 13.331 159.716 4.977 164.015-3.705 167.156-10.05 168.593-16.829 168.866-24.03 169.346-36.715 166.274-48.863 164.202-61.167 160.885-80.86 157.609-100.554 158.198-120.625 158.467-129.786 160.849-138.387 165.774-146.226 171-154.542 177.78-161.383 185.631-167.186 219.306-192.074 254.423-214.812 290.691-235.682 331.565-259.202 371.61-283.955 409.958-311.405 422.155-320.135 433.796-329.529 442.985-341.538 458.793-362.196 470.12-385.18 478.249-409.814 483.485-425.679 487.774-441.843 494.015-457.397 500.012-472.343 507.919-486.171 517.456-500.853M-36.604-90.305C-39.929-89.901-43.826-90.714-47.702-91.531-52.254-92.492-53.539-94.175-53.604-98.832-53.683-104.422-51.604-107.529-44.857-109.64-38.408-111.657-32.574-114.667-27.535-118.955-22.017-123.649-16.182-127.967-11.082-133.191-5.999-138.397-1.464-144.075 3.529-149.323 12.034-158.262 19.78-167.833 27.429-177.452 44.958-199.496 61.056-222.611 77.371-245.557 107.958-288.578 138.318-331.775 171.306-373.019 183.361-388.092 195.134-403.483 210.536-415.591 219.387-422.549 228.854-428.102 240.056-429.343 249.646-430.406 259.296-431.54 269.046-430.845 291.664-429.235 314.305-428.105 336.996-428.43 343.151-428.518 349.275-428.422 355.387-429.671 364.369-431.507 372.73-434.386 379.729-440.634 394.064-453.432 403.669-469.171 409.667-487.308 417.896-512.19 422.988-537.826 427.853-563.488 431.984-585.282 435.859-607.111 441.328-628.63 445.798-646.22 452.542-662.91 462.052-678.289 473.983-697.582 492.107-710.143 511.523-720.93 516.94-723.94 519.778-722.193 520.422-716.103 521.557-705.395 518.193-696.664 509.018-690.427 502.83-686.22 496.747-681.851 490.732-677.399 475.478-666.108 462.999-652.524 454.578-635.252 445.624-616.889 440.435-597.397 435.848-577.667 430.035-552.659 426.724-527.123 419.93-502.323 414.39-482.098 407.882-462.295 395.4-445.008 383.317-428.275 367.431-417.179 347.271-412.557 325.652-407.6 303.621-405.039 281.669-402.167 267.295-400.289 252.947-398.429 238.885-394.885 222.421-390.735 207.687-383.291 194.623-372.265 182.726-362.225 173.072-350.293 163.936-337.91 144.313-311.313 127.307-283.006 110.132-254.812 92.618-226.06 76.097-196.703 57.702-168.488 44.235-147.832 30.381-127.464 12.163-110.509-1.406-97.881-17.132-90.495-36.604-90.305M520.486-778.132C520.479-768.338 519.55-766.894 510.727-762.305 507.409-760.579 504.135-758.753 500.928-756.829 489.411-749.916 478.034-742.798 467.521-734.38 448.026-718.768 436.773-697.905 429.518-674.596 420.809-646.616 416.676-617.683 412.094-588.847 408.097-563.687 403.571-538.65 395.15-514.468 388.566-495.565 378.423-479.197 363.025-466.169 353.485-458.098 342.605-453.864 330.187-455.194 317.501-456.552 305.195-459.969 292.977-463.689 276.978-468.558 260.837-472.671 243.835-472.051 226.819-471.43 212.041-465.709 199.826-453.805 181.995-436.428 166.427-417.06 150.535-397.96 131.832-375.484 113.854-352.443 95.88-329.394 81.688-311.193 67.865-292.701 53.552-274.595 37.884-254.776 21.94-235.171 5.922-215.632-2.85-204.932-12.195-194.702-20.95-183.99-25.969-177.849-32.025-172.675-36.685-166.198-39.233-162.655-42.468-159.527-46.067-156.955-50.52-153.774-52.759-154.804-53.375-160.34-54.194-167.693-53.561-174.802-49.618-181.379-46.107-187.234-42.5-193.006-38.374-198.457-28.953-210.902-19.261-223.133-10.18-235.847 24.117-283.868 56.109-333.407 87.828-383.135 108.192-415.061 129.026-446.639 158.271-471.519 169.772-481.304 182.119-489.599 196.955-493.502 204.438-495.471 211.849-496.589 219.69-494.627 229.953-492.06 240.104-489.216 249.981-485.465 262.535-480.699 275.05-475.846 287.854-471.767 297.948-468.55 308.287-465.672 318.782-465.643 342.445-465.577 360.743-475.813 372.131-496.957 379.96-511.492 382.75-527.589 385.603-543.6 388.064-557.415 389.743-571.343 391.312-585.288 392.783-598.362 394.608-611.396 396.162-624.461 397.534-636.009 398.782-647.572 400.018-659.135 400.908-667.458 402.782-675.615 404.063-683.868 408.97-715.467 422.401-742.323 447.322-763.052 464.841-777.624 485.189-786.11 507.049-791.334 515.682-793.397 519.938-789.711 520.479-780.773 520.532-779.896 520.486-779.012 520.486-778.132M-2.118 341.319C-2.118 340.411-2.252 339.93-2.098 339.575 .354 333.925 2.878 328.308 5.317 322.653 19.771 289.141 38.394 258.068 60.436 229.024 66.544 220.974 72.986 213.209 81.257 207.112 101.156 192.445 123.748 183.132 146.461 174.065 184.706 158.798 223.919 146.174 262.476 131.758 285.178 123.27 307.663 114.266 328.848 102.382 343.236 94.311 355.941 84.245 364.471 69.8 368.703 62.634 373.312 55.528 373.624 46.76 374.304 27.613 373.492 8.467 372.045-10.582 370.833-26.543 370-42.541 368.623-58.5 367.417-72.468 366.521-86.544 366.985-100.648 367.247-108.603 368.155-116.427 370.143-124.068 373.406-136.609 380.29-146.567 392.618-151.718 399.74-154.694 407.358-156.024 415.101-156.291 431.449-156.854 447.473-154.334 463.485-151.401 480.356-148.31 496.951-144.029 513.678-140.322 520.464-138.818 520.441-138.715 520.494-131.569 520.496-131.35 520.496-131.129 520.496-130.909 520.496 24.046 520.497 179 520.49 333.956 520.489 341.817 520.451 341.822 512.49 341.822 343.693 341.829 174.896 341.837 6.099 341.825 3.475 341.825 .815 342.164-2.118 341.319M-52.601-263.676C-53.097-263.958-53.594-264.241-54.09-264.523-54.09-268.004-54.087-271.485-54.091-274.966-54.184-376.231-54.349-477.496-54.354-578.761-54.361-704.461-54.245-740.443-54.15-866.144-54.143-875.286-55.807-875.005-45.3-875.005 140.275-875.006 325.851-875.006 511.426-875.001 513.409-875.001 515.392-874.96 517.374-874.908 519.211-874.86 520.226-873.859 520.359-872.061 520.472-870.527 520.489-868.982 520.489-867.443 520.496-833.541 520.504-889.358 520.484-855.456 520.48-848.819 520.452-848.741 514.189-846.529 503.167-842.637 492.425-838.223 482.256-832.333 470.029-825.249 458.452-817.274 447.261-808.698 427.268-793.375 411.755-774.757 403.248-750.636 396.563-731.684 392.27-712.149 388.551-692.519 383.079-663.63 378.594-634.557 373.458-605.604 370.695-590.032 367.411-574.562 362.809-559.389 358.893-546.478 352.494-535.294 342.499-525.998 327.149-511.718 309.173-504.122 288.28-503.765 275.23-503.542 262.543-506.361 249.971-509.615 239.083-512.433 228.53-516.247 217.989-520.12 212.828-522.015 207.498-523.451 202.33-525.327 190.878-529.485 180.338-527.309 170.114-521.349 156.517-513.423 144.575-503.363 133.127-492.734 126.045-486.16 119.599-478.926 113.134-471.696 100.96-458.081 89.319-444.039 78.142-429.645 54.659-399.406 32.579-368.123 10.525-336.833-2.154-318.842-15.049-301.034-30.558-285.315-37.788-277.986-45.246-270.882-52.601-263.676M-90.455-308.511C-90.456-80.881-90.458 146.748-90.448 374.377-90.448 384.97-91.374 383.981-80.875 383.982 128.505 383.996 337.884 383.994 547.264 383.987 558.097 383.987 557.503 384.967 557.502 373.5 557.497 62.876 557.497-247.748 557.478-558.372 557.477-583.687 557.342-609.002 557.268-634.318 557.264-635.418 557.397-636.546 557.208-637.616 553.149-660.6 556.238-683.734 555.782-706.791 555.582-716.909 555.911-727.042 556.156-737.165 558.229-822.774 557.288-818.68 557.481-904.299 557.484-905.4 557.422-906.502 557.461-907.601 557.569-910.596 556.285-912.131 553.15-911.972 551.392-911.882 549.625-911.979 547.861-911.979 338.042-911.98 128.222-911.983-81.598-911.972-91.077-911.972-90.449-912.836-90.449-903-90.455-674.931-90.453-536.581-90.455-308.511"/>
<path transform="matrix(1,0,0,-1,1946.6152,605.2671)" d="M0 0C-15.28-16.387-30.801-32.604-44.901-50.061-66.312-76.591-86.571-103.992-106.412-131.704-126.383-159.604-145.913-187.826-166.933-214.967-176.613-227.472-186.504-239.807-196.724-251.902-206.404-263.347-216.484-274.361-227.225-284.786-235.404-292.739-244.675-298.88-256.085-301.192-270.305-304.083-283.655-302.203-295.785-293.849-296.535-293.338-297.126-292.718-297.226-291.468-295.146-289.427-292.365-290.337-289.915-290.337-281.976-290.358-274.135-290.118-266.405-287.886-253.035-284.035-242.545-275.721-232.794-266.438-213.944-248.46-198.374-227.672-182.863-206.864-156.303-171.219-131.692-134.205-105.882-98.04-89.142-74.59-72.041-51.411-54.171-28.802-41.081-12.255-27.66 3.981-13.73 19.848-6.18 28.461 2.46 36.044 9.5 45.108 10.28 46.108 11.12 47.229 13.28 47.659 16.141 29.502 12.851 13.785 0 0M14.05-616.939C14.04-632.576 13.76-648.202 13.771-663.829 13.83-751.204 13.96-772.043 14.04-859.428 14.05-871.103 14.82-869.712 3.75-869.712-148.973-869.733-301.695-869.842-454.418-869.613-483.269-869.573-512.119-868.091-541-868.373-545.15-868.413-549.311-867.372-553.48-867.171-556.811-867.011-558.2-865.321-558.5-862.28-558.54-861.839-558.61-861.399-558.59-860.969-557.87-848.833-559.931-903.365-559.94-891.25-560-837.329-560.15-783.397-560.41-729.464-560.45-720.681-561.57-711.908-561.11-703.094-560.811-697.172-560.49-691.24-560.311-685.307-560.221-682.556-559.051-680.735-556.551-679.674-555.54-679.235-554.61-678.584-553.58-678.214-541.6-673.942-531.8-665.959-521.069-659.506-507.709-651.463-497.739-640.019-488.229-628.294-481.359-619.831-476.219-609.917-470.669-600.443-452.868-570.06-440.418-537.387-430.458-503.774-420.397-469.85-411.008-435.726-401.178-401.733-397.027-387.367-392.407-373.151-387.058-359.175-382.177-346.41-374.757-335.366-365.537-325.471-357.287-316.619-347.026-311.176-334.906-310.335-327.226-309.795-319.666-311.806-312.146-313.457-296.846-316.798-282.226-322.38-267.265-326.873-259.675-329.153-252.015-331.444-244.194-332.195-230.524-333.505-217.994-329.803-207.523-320.6-197.544-311.827-189.373-301.452-181.913-290.518-165.163-265.978-148.643-241.288-131.702-216.888-121.433-202.082-110.382-187.846-98.932-173.9-86.781-159.114-73.831-145.059-61.241-130.683-45.781-113.036-28.171-97.79-10.88-82.184-3.44-75.481 4.05-68.598 12.96-62.896 14.521-66.017 14.01-68.468 14.01-70.829 14.05-252.862 14.061-434.906 14.05-616.939M-276.005 348.681C-294.756 341.248-313.426 333.615-331.786 325.251-348.416 317.678-364.757 309.605-379.217 298.11-391.817 288.096-399.417 275.111-403.718 259.935-407.817 245.469-410.178 230.743-409.077 215.697-408.497 207.844-408.088 199.971-406.888 192.138-405.527 183.274-404.867 174.291-403.888 165.367-402.687 154.482-400.897 143.618-400.407 132.704-399.867 120.648-398.127 108.624-399.187 96.499-400.058 86.455-400.478 76.391-403.747 66.657-407.577 55.272-415.578 49.31-427.138 48.399-434.018 47.849-440.568 50.38-446.769 53.352-459.519 59.464-471.188 67.367-482.809 75.33-505.129 90.636-526.689 107.053-549.69 121.379-551.37 122.419-553.07 123.45-554.78 124.44-556.2 125.271-557.051 126.401-557.24 128.092-557.63 131.583-558.601 135.075-558.48 138.536-557.98 151.991-560 165.317-559.971 178.742-559.841 227.812-559.98 276.882-560.011 325.952-560.021 333.524-560.021 341.108-560.011 348.681ZM-136.673 348.681C-165.703 337.816-195.304 328.593-224.704 318.799-249.354 310.585-273.955 302.232-297.586 291.308-312.025 284.645-326.086 277.262-338.246 266.948-352.937 254.473-362.816 238.686-366.477 219.708-369.057 206.363-369.427 192.848-368.597 179.092-367.276 157.043-362.177 135.745-358.396 114.166-356.807 105.103-355.217 96.039-354.906 86.795-354.797 83.514-353.776 80.272-353.667 77.001-353.227 63.726-354.377 50.53-359.047 38.085-366.807 17.397-384.137 3.892-407.827 2.891-425.218 2.151-441.898 6.002-458.528 10.134-486.049 16.957-513.279 24.9-540.95 31.152-544.37 31.923-547.82 32.613-551.23 33.454-557.32 34.964-559.761 37.895-559.88 44.147-560.011 51.411-560.021 58.673-559.88 65.937-559.771 72.159-557.69 73.92-551.65 72.689-543.66 71.069-535.99 68.277-528.3 65.616-504.159 57.293-480.648 47.259-456.248 39.646-443.868 35.784-431.448 32.093-418.618 29.962-412.918 29.012-407.117 28.782-401.518 29.722-393.567 31.073-387.717 36.245-382.687 42.277-374.297 52.351-371.027 63.996-370.767 77.051-370.316 99.57-373.567 121.649-376.897 143.798-379.407 160.475-382.377 177.081-384.277 193.868-385.497 204.643-386.287 215.407-385.167 226.081-383.547 241.598-378.727 256.083-367.986 268.088-358.747 278.412-347.677 286.215-335.546 292.678-309.235 306.684-281.445 317.248-253.595 327.662-234.314 334.875-214.984 341.948-195.523 348.681ZM-1.88 348.681C-10.05 337.206-19.061 326.422-30.19 317.498-42.551 307.594-56.852 301.332-72.222 297.5-88.872 293.338-105.802 291.127-122.862 289.307-141.833 287.276-160.854 285.585-179.793 283.184-203.554 280.173-227.305 277.392-250.475 271.109-265.055 267.158-278.795 261.416-290.216 251.122-302.945 239.637-310.855 225.741-312.806 208.454-314.366 194.608-313.926 180.883-312.945 167.027-311.956 153.022-310.786 139.026-309.676 125.041-308.496 110.174-307.985 95.258-306.275 80.412-305.266 71.729-305.926 62.825-306.105 54.032-306.176 50.96-307.226 47.869-308.865 45.288-313.216 38.425-318.386 32.213-324.646 26.1-326.376 29.042-325.796 31.272-325.806 33.394-325.876 43.518-325.926 53.651-325.816 63.776-325.666 76.971-327.166 90.046-328.276 103.171-330.406 128.372-335.506 153.042-339.727 177.892-341.956 190.997-341.406 204.242-334.267 216.307-330.236 223.12-326.336 230.013-322.396 236.875-317.446 245.529-310.176 251.702-301.726 256.793-287.476 265.387-272.155 271.439-256.425 276.592-227.124 286.186-197.134 293.148-167.183 300.261-142.353 306.164-117.473 311.906-93.552 320.989-76.592 327.422-61.291 336.466-47.781 348.681ZM12.391 244.729C11.73 241.547 9.66 239.347 6.45 238.226 2.49 236.855-1.58 235.725-5.73 235.515-14.931 235.065-24.101 234.695-33.381 235.104-50.562 235.885-67.461 238.306-84.111 242.178-97.992 245.409-111.632 249.681-125.372 253.522-125.712 253.623-125.952 254.103-127.072 255.263-107.322 255.263-88.392 254.763-69.491 255.403-50.821 256.033-32.291 258.124-15.25 267.008-6.771 271.419 .42 277.492 7.521 283.725 9.15 285.155 10.7 286.676 12.16 288.046 14.65 287.286 13.96 285.445 13.97 284.104 14.061 274.221 13.98 264.327 14.061 254.442 14.09 251.082 13.061 247.94 12.391 244.729M6.89 180.273C3.3 181.273-.34 182.233-3.75 183.694-16.29 189.036-28.49 195.069-40.331 201.832-40.881 202.142-41.551 202.472-41.351 203.662-36.891 203.602-32.591 202.091-28.251 201.111-17.79 198.74-7.09 197.32 3.06 193.668 5.97 192.618 8.87 191.567 11.28 189.586 13.25 187.966 14.75 186.045 13.42 183.334 12.101 180.633 9.83 179.452 6.89 180.273M-23.311 149.601C-15.521 145.979-7.9 141.997-.271 138.056 2.22 136.765 4.521 135.095 6.9 133.594 3.561 132.534 .99 133.764-1.601 134.854-18.591 142.017-36.4 144.038-54.611 142.917-62.381 142.447-68.762 138.315-74.371 133.154-90.231 118.558-102.852 101.481-113.402 82.743-129.973 53.321-142.522 22.089-155.163-9.114-166.233-36.435-177.514-63.636-192.523-89.176-210.994-120.619-237.404-142.268-271.035-155.743-290.275-163.456-309.996-169.619-329.847-175.511-353.727-182.594-377.357-190.327-399.147-202.762-417.138-213.026-431.528-226.712-441.578-245.029-451.658-263.386-457.169-283.235-461.998-303.353-467.639-326.833-471.568-350.682-477.949-373.992-484.009-396.16-491.529-417.759-505.379-436.457-517.859-453.293-533.31-466.889-552.01-476.552-559.021-480.174-559.311-479.474-560.091-471.801-561.4-458.856-554.11-450.783-545.31-443.319-534.92-434.505-524.47-425.792-514.699-416.228-500.02-401.852-490.149-384.755-483.499-365.578-475.849-343.529-471.089-320.73-466.049-298.01-461.948-279.523-456.988-261.346-448.568-244.209-438.918-224.571-424.437-209.185-407.338-196.009-383.657-177.752-357.017-164.537-330.446-151.181-303.865-137.836-276.215-126.771-249.875-112.966-228.004-101.501-208.693-86.715-193.214-67.327-185.754-57.994-179.953-47.689-175.743-36.435-164.073-5.282-155.533 26.781-147.232 58.934-142.623 76.811-137.833 94.648-131.213 111.935-126.122 125.241-118.603 136.935-109.222 147.68-100.362 157.843-89.102 161.255-76.281 161.455-57.681 161.745-40.081 157.383-23.311 149.601M-82.762 194.949C-97.992 197.129-113.022 196.179-127.702 191.497-134.732 189.256-139.442 183.974-143.643 178.202-151.683 167.137-156.083 154.532-159.373 141.437-163.553 124.8-165.644 107.874-167.283 90.827-168.633 76.641-169.193 62.395-170.844 48.229-172.144 37.135-173.173 26.02-174.883 14.966-176.233 6.243-179.724-1.421-184.584-8.594-191.934-19.418-201.153-28.402-211.224-36.735-237.654-58.604-267.165-75.661-296.955-92.328-329.026-110.285-361.457-127.642-391.607-148.81-408.037-160.345-423.678-172.87-436.858-188.046-453.378-207.063-464.709-229.063-472.688-252.892-477.729-267.918-481.489-283.285-485.679-298.531-489.939-314.057-495.699-329.033-502.14-343.75-506.499-353.703-512.939-362.376-519.689-370.8-523.8-375.932-528.149-380.875-532.78-385.606-539.73-392.729-547.91-398.332-555.271-404.934-556.21-405.774-557.33-406.594-559.771-406.554-559.771-398.941-560.17-391.478-559.62-384.085-559.271-379.454-557.051-375.051-552.65-372.641-540.28-365.848-532.01-355.034-524.05-343.929-509.92-324.231-500.039-302.562-493.549-279.213-487.949-259.095-481.519-239.207-473.509-219.869-463.608-195.959-449.929-174.601-430.318-157.494-416.548-145.489-401.638-134.945-386.377-124.88-341.906-95.549-297.186-66.597-253.185-36.555-238.645-26.631-224.214-16.547-210.294-5.752-199.813 2.381-190.144 11.194-183.424 22.919-178.934 30.762-176.363 38.936-176.373 47.969-176.413 82.733-176.663 117.507-176.273 152.281-176.133 165.187-175.083 178.202-168.813 190.057-161.243 204.373-148.843 211.605-133.223 212.846-108.942 214.787-87.372 206.463-67.231 193.698-66.941 193.508-66.871 192.958-66.541 192.228-72.081 193.168-77.401 194.178-82.762 194.949M-276.305 140.356C-278.995 154.592-281.415 168.928-281.945 183.374-282.936 210.495-271.905 231.934-249.295 247.22-243.994 250.801-238.404 253.822-232.234 255.733-228.774 256.813-225.424 256.673-221.494 256.153-222.004 254.103-222.774 253.312-223.794 252.832-235.544 247.25-242.335 236.945-248.784 226.381-250.604 223.39-251.765 220.009-253.465 216.927-259.655 205.693-259.205 193.528-257.854 181.513-255.854 163.676-252.475 146.009-250.305 128.182-248.484 113.156-246.074 98.2-246.484 82.994-246.765 72.719-248.975 62.875-254.585 54.162-262.865 41.276-273.646 30.632-285.775 21.338-287.855 19.748-290.186 18.587-293.586 17.657-292.615 20.848-290.815 22.609-289.096 24.37-275.285 38.485-269.485 55.732-268.915 75.13-268.255 97.249-272.245 118.798-276.305 140.356M-552.71-287.326C-545.73-271.39-541.08-254.613-536.12-237.966-529.47-215.637-523.85-192.998-515.18-171.299-508.989-155.793-499.919-142.268-488.659-129.903-464.599-103.492-435.198-84.344-404.567-66.727-375.557-50.03-345.706-34.884-316.416-18.718-294.625-6.693-273.035 5.702-253.305 20.928-243.534 28.471-234.544 36.925-227.845 47.489-220.114 59.664-216.274 72.869-215.944 87.355-215.484 107.263-218.874 126.681-222.284 146.129-225.034 161.775-227.345 177.742-224.944 193.328-220.724 220.739-205.943 239.196-178.153 245.949-173.854 246.99-169.513 247.64-165.083 247.31-163.153 247.16-160.743 247.61-160.193 245.049-159.703 242.758-161.613 241.437-163.333 240.497-166.403 238.796-169.543 237.146-172.793 235.825-183.943 231.293-192.174 223.67-196.914 212.656-200.124 205.193-201.954 197.339-203.054 189.186-204.304 179.942-204.324 170.749-204.044 161.555-203.693 149.94-202.394 138.396-200.634 126.891-197.684 107.733-196.784 88.426-197.704 69.088-198.014 62.615-201.184 56.773-204.574 51.391-210.944 41.276-219.145 32.753-228.314 25.04-267.045-7.523-310.796-32.733-352.946-60.285-381.687-79.072-410.218-98.16-437.448-119.108-458.358-135.195-476.879-153.512-490.179-176.591-498.81-191.558-504.55-207.704-509.56-224.141-514.05-238.847-517.35-253.883-522.439-268.439-529.55-288.787-539.71-307.394-552.86-324.412-554.44-326.452-556.03-328.593-558.761-329.534-560.601-327.262-560.341-324.811-560.32-322.47-560.23-310.225-557.66-298.621-552.71-287.326M-559.96-41.537V-4.902C-559.96-2.641-558.84-1.981-556.62-2.031-542.79-2.401-529-3.512-515.21-4.542-507.109-5.152-498.999-5.572-490.919-6.333-478.059-7.533-465.139-8.463-452.559-11.675-450.938-12.085-449.088-12.215-447.868-14.896-466.778-18.197-485.639-19.898-504.06-24.39-522.66-28.932-540.49-35.814-559.96-41.537M-557.28-112.275C-556.391-108.074-554.431-104.552-551.51-101.381-543.11-92.297-533.689-84.455-523.63-77.271-503.93-63.206-482.438-53.042-459.309-45.869-425.708-35.444-392.107-25.06-358.066-16.126-356.196-15.637-354.307-15.216-350.937-14.396-353.816-17.547-356.486-18.228-358.856-19.228-375.687-26.281-392.877-32.483-409.518-40.026-440.028-53.852-469.889-68.728-496.259-89.826-513.85-103.892-527.6-121.109-539.54-139.967-544.39-147.61-548.18-155.773-551.92-163.986-554-168.539-556.25-173.02-558.42-177.532-558.92-177.432-559.42-177.342-559.931-177.242-559.931-165.397-559.801-153.542-559.971-141.697-560.101-131.783-559.341-121.989-557.28-112.275M-348.236-273.121C-351.196-275.251-354.877-275.881-358.257-277.102-368.907-280.963-378.747-286.066-387.237-293.779-396.808-302.453-403.117-313.187-407.668-324.971-414.248-342.048-418.128-359.866-421.008-377.903-427.038-415.568-432.118-453.414-442.158-490.318-448.758-514.588-457.028-538.158-469.479-560.186-485.249-588.108-508.579-607.315-537.37-620.541-542.2-622.762-547.43-623.542-552.34-625.473-557.23-627.404-559.221-625.203-560.11-619.931-562.19-607.666-557.38-599.812-546.15-594.75-535.53-589.949-525.189-584.466-514.949-578.884-495.879-568.49-481.079-553.964-471.659-534.076-466.539-523.272-462.629-512.097-459.549-500.623-453.059-476.443-448.898-451.792-444.818-427.103-439.588-395.52-434.598-363.868-426.067-332.945-423.437-323.411-420.277-314.057-416.027-305.053-411.128-294.669-403.617-286.906-393.757-281.434-379.728-273.661-364.627-270.5-348.597-272.16-348.507-272.17-348.456-272.52-348.236-273.121M-371.797-240.127C-386.427-240.097-398.657-245.979-409.418-255.443-422.187-266.688-429.888-281.154-435.668-296.81-443.698-318.519-448.559-341.058-452.759-363.748-458.129-392.649-462.799-421.691-471.238-449.922-477.318-470.23-484.419-490.119-497.229-507.365-504.229-516.779-512.939-524.522-522.22-531.666-533.45-540.319-546.09-546.581-558.44-553.344-558.761-553.514-559.261-553.364-560.07-553.364-560.54-547.042-560.78-540.689-559.49-534.506-558.53-529.904-555.55-526.343-551.41-523.682-542.9-518.219-534.1-513.118-526.439-506.455-511.6-493.57-497.699-479.774-487.739-462.597-481.599-452.023-478.599-440.228-475.349-428.583-468.099-402.563-463.559-375.932-458.028-349.511-453.339-327.132-448.219-304.853-439.769-283.515-435.458-272.64-430.187-262.266-422.897-253.012-413.197-240.697-400.588-232.554-385.967-227.382-371.197-222.15-355.807-219.719-340.336-217.578-319.716-214.737-298.726-214.507-278.575-208.404-256.285-201.651-236.055-191.458-219.874-174.32-212.144-166.137-205.894-156.773-199.764-147.38-181.934-120.109-165.713-91.877-149.553-63.596-130.333-29.982-112.502 4.442-91.802 37.205-82.172 52.461-72.092 67.407-60.071 80.962-46.621 96.139-30.341 106.383-10.141 109.574-2.76 110.745 4.271 108.324 10.75 104.862 13.891 103.191 13.69 100.86 10.521 98.92 9.04 98.009 7.38 97.279 5.71 96.799-7.17 93.078-17.271 84.834-27.021 76.271-40.511 64.416-50.441 49.48-60.921 35.104-92.962-8.844-123.103-54.082-152.453-99.84-169.333-126.151-185.854-152.672-202.813-178.922-213.354-195.229-225.604-210.185-239.835-223.491-252.295-235.145-266.915-241.298-283.965-241.437-299.615-241.568-315.306-242.168-330.896-241.248-344.547-240.447-358.156-240.147-371.797-240.127M51.051-896.284C51.051-777.185 51.031-724.633 51.041-605.535 51.041-287.466 51.051 30.602 51.061 348.681V384.426C51.061 387.1 48.895 389.267 46.222 389.267H-592.071C-594.744 389.267-596.911 387.1-596.911 384.426V348.681C-596.931 138.826-596.931-71.019-596.931-280.874H-596.791C-596.791-402.172-596.771-523.471-596.791-644.771-596.811-751.093-596.891-790.881-596.921-897.204-596.921-907.868-597.751-906.687-587.271-906.687-377.887-906.708-168.503-906.708 40.871-906.687 51.841-906.687 51.051-908.018 51.051-896.284"/>
<path transform="matrix(1,0,0,-1,1291.834,1467.4854)" d="M0 0C0-5.862-1.857-5.942-7.527-6.032-20.857-6.242-34.197-6.512-47.527-6.522-125.336-6.562-203.155-6.542-280.054-6.542-292.804-6.772-305.514-6.963-318.173-7.112-315.073-4.042-312.253-.641-309.673 3.051-301.474 14.796-295.434 27.581-290.424 40.886-281.194 65.425-274.734 90.775-269.214 116.365-266.494 128.92-263.864 141.494-261.274 154.09-255.185 183.711-249.044 213.362-241.395 242.613-235.824 263.882-229.814 285.18-219.154 304.707-214.064 314.03-207.745 322.264-198.325 327.666-184.885 335.369-171.195 334.628-157.445 328.646-146.926 324.064-137.586 317.472-129.266 309.749-116.456 297.874-104.026 285.55-92.757 272.185-82.227 259.68-72.196 246.755-61.757 234.18-48.097 217.733-34.357 201.357-18.907 186.502-15.417 183.141-11.428 180.499-7.577 177.648-1.758 173.327 1.022 167.965 1.122 160.392 1.662 119.557 0 1.887 0 0M-543.911-6.603C-551.58-6.612-559.17-5.792-566.79-5.322-569.4-5.151-570.8-4.092-571.52-2.451-571.51-2.391-571.49-2.331-571.47-2.271-570.08 2.361-570.04 2.291-565.12 1.671-552.15 .021-539.53-3.231-526.951-6.582-532.601-6.582-538.25-6.593-543.911-6.603M-570.52 86.093C-569.55 88.294-568.13 89.074-565.87 88.084-563.87 87.214-561.83 86.413-559.88 85.463-537.13 74.299-514.221 63.545-490.001 55.802-468.591 48.949-446.932 42.937-424.702 39.686-407.662 37.194-390.433 36.313-373.373 40.546-350.013 46.338-332.803 60.094-320.743 80.631-311.454 96.437-306.083 113.674-302.233 131.45-295.424 162.942-289.584 194.595-284.834 226.467-282.654 241.083-279.694 255.588-277.324 270.174-272.644 299.005-266.824 327.576-258.574 355.606-253.694 372.203-247.544 388.279-236.654 402.084-229.375 411.318-220.045 417.48-208.615 420.151-201.665 421.782-195.245 419.171-189.016 416.45-179.085 412.118-170.806 405.325-162.716 398.312-147.176 384.848-133.396 369.582-119.256 354.727-107.396 342.271-96.376 329.017-85.557 315.602-72.396 299.275-58.237 283.779-42.117 270.304-33.787 263.351-25.178 256.658-14.048 254.058-2.998 251.477 .172 240.583-.008 233.58-.197 225.927-5.107 222.565-12.308 224.926-16.737 226.377-20.768 228.687-24.197 231.699-38.647 244.364-52.517 257.619-65.417 271.904-75.957 283.579-85.267 296.204-94.986 308.528-108.386 325.524-123.546 340.9-140.016 354.996-145.985 360.098-151.756 365.41-158.056 370.122-164.766 375.144-172.146 378.815-179.955 381.736-189.505 385.308-198.595 384.518-207.755 379.946-225.185 371.263-235.755 356.657-243.314 339.521-252.145 319.513-257.784 298.505-262.784 277.227-266.834 260.06-270.564 242.833-273.744 225.497-278.174 201.327-282.023 177.059-286.334 152.858-291.714 122.647-296.583 92.306-305.884 62.954-309.854 50.439-314.724 38.325-323.113 27.911-332.953 15.696-346.093 9.384-361.133 6.772-368.173 5.552-375.363 4.422-379.623 5.052-406.512 5.662-429.782 10.145-452.792 16.216-478.821 23.089-503.911 32.572-528.48 43.497-538.851 48.118-549.291 52.58-558.83 58.873-561.77 60.823-564.47 63.015-566.87 65.556-572.58 71.558-573.77 78.72-570.52 86.093M-572.33 167.744C-572.19 171.887-572.01 175.998-570.37 180.009-567.36 179.949-565.44 178.019-563.37 176.578-542.931 162.383-522.661 147.937-502.091 133.932-485.461 122.617-468.261 112.224-449.182 105.4-439.672 102.01-429.882 99.889-419.772 99.759-400.062 99.488-384.223 107.091-372.633 123.277-366.993 131.16-362.613 139.703-359.103 148.637-355.603 157.54-351.503 166.233-349.163 175.588-344.563 193.965-340.113 212.381-336.393 230.959-330.253 261.681-325.593 292.662-320.313 323.524-315.573 351.185-310.593 378.855-300.854 405.365-296.704 416.67-291.774 427.604-284.204 437.088-279.844 442.55-274.974 447.552-269.104 451.503-265.185 454.145-260.765 455.675-256.214 455.795-245.074 456.095-233.925 455.855-222.784 455.805-221.935 455.795-221.024 455.665-220.255 453.895-224.225 453.023-227.984 451.983-231.814 451.413-244.364 449.532-253.204 442.439-260.185 432.256-268.654 419.901-274.634 406.386-279.654 392.391-287.764 369.782-293.394 346.503-298.004 322.974-301.733 303.967-305.224 284.93-307.284 265.632-308.023 258.72-309.954 251.937-311.043 245.044-313.523 229.368-315.843 213.662-319.063 198.106-323.763 175.478-328.933 152.969-337.633 131.44-345.753 111.333-357.753 94.286-376.393 82.491-386.893 75.85-398.452 72.258-410.742 70.677-433.932 67.706-455.771 73.538-477.321 80.881-501.581 89.154-524.25 101.019-547.07 112.503-553.7 115.845-560.32 119.216-567 122.467-569.59 123.728-570.95 125.408-571.06 128.489-571.54 141.574-572.77 154.63-572.33 167.744M-.588 751.628C-2.498 744.186-6.048 737.363-9.527 730.57-27.297 695.927-47.667 662.844-71.577 632.103-89.677 608.824-112.437 590.967-139.896 579.612-149.016 575.841-158.646 574.351-168.565 573.7-186.925 572.5-205.255 572.119-223.604 573.07-249.164 574.381-274.754 574.2-300.304 573.601-316.593 573.22-333.013 572.71-349.113 569.438-372.143 564.747-389.603 551.842-403.082 532.984-414.572 516.918-421.092 498.661-426.562 479.984-432.932 458.236-437.602 436.067-442.382 413.929-447.722 389.199-453.832 364.65-463.492 341.191-467.221 332.127-471.261 323.124-478.361 315.951-493.631 300.516-513.331 299.155-529.17 314.001-549.92 333.458-562.68 357.848-569.38 385.418-569.52 385.998-569.21 386.679-568.98 388.089-565.57 385.888-564.41 382.987-562.83 380.476-555.2 368.361-544.97 359.268-532.271 352.575-518.251 345.183-502.471 348.134-491.331 358.857-480.271 369.512-472.441 382.267-465.571 395.702-454.112 418.091-445.271 441.579-436.962 465.278-427.872 491.219-419.452 517.408-408.542 542.688-401.872 558.145-394.712 573.49-383.413 586.155-369.913 601.261-353.393 612.125-333.423 616.947-318.993 620.438-304.244 621.418-289.434 622.509-264.094 624.37-238.734 622.549-213.444 623.83-194.565 624.78-175.455 624.76-156.966 629.451-127.836 636.824-101.097 649.539-77.017 667.466-54.057 684.573-34.717 705.17-19.817 729.74-14.947 737.763-10.268 745.896-5.247 753.829-4.128 755.61-3.067 759.251-.518 758.091 2.263 756.831-.038 753.739-.588 751.628M-571.45 337.979C-569.03 336.129-568.02 333.948-566.75 332.008-556.38 316.091-547.67 299.155-537.07 283.389-532.561 276.687-527.541 270.424-522.011 264.472-508.411 249.856-480.571 250.626-467.241 263.741-457.932 272.904-451.902 283.789-447.102 295.554-439.572 313.99-434.752 333.238-430.722 352.686-425.732 376.745-421.162 400.894-416.072 424.933-413.042 439.219-409.692 453.484-403.572 466.839-391.032 494.239-369.533 511.016-340.693 518.759-325.323 522.891-309.574 524.882-293.794 526.892-278.023 528.903-262.194 530.144-246.395 531.674-236.015 532.685-225.564 533.455-215.225 534.745-189.085 538.036-163.065 542.248-137.696 549.561-117.726 555.313-98.316 562.516-80.227 573.01-58.526 585.595-40.697 602.281-26.167 622.639-20.848 630.092-15.317 637.395-9.878 644.768-9.487 645.288-9.128 645.878-8.617 646.268-6.827 647.679-5.638 650.939-3.027 649.95-.687 649.079-1.848 646.078-1.737 643.997-.998 630.232-3.758 616.577-3.008 602.812-2.848 599.771-4.338 597.279-6.147 595.099-11.327 588.906-16.417 582.613-21.968 576.771-32.037 566.157-43.217 556.684-54.287 547.149-66.526 536.616-81.396 531.504-96.876 528.093-111.977 524.771-127.266 522.721-142.676 521.28-159.155 519.749-175.625 518.249-192.155 517.299-205.854 516.498-219.564 515.628-233.265 514.707-252.154 513.447-271.034 511.696-289.824 509.426-304.304 507.685-318.673 505.034-332.443 499.822-344.473 495.271-354.803 488.178-364.373 479.704-382.683 463.498-391.513 442.149-397.762 419.341-403.852 397.072-407.532 374.284-412.182 351.705-417.582 325.465-423.042 299.225-431.932 273.865-435.992 262.271-441.212 251.307-448.562 241.362-455.602 231.839-465.481 226.267-475.941 221.965-482.741 219.164-490.231 220.604-497.071 223.396-503.591 226.057-509.141 230.038-514.261 235.05-521.431 242.053-528.9 248.705-535.09 256.658-544.36 268.543-553.5 280.498-560.49 293.923-566.38 305.257-570.81 317.032-570.91 330.026-570.93 332.418-572.55 334.599-571.45 337.979M-571.36 589.076C-569.74 589.246-569.13 587.865-568.36 586.926-561.67 578.812-553.88 571.77-546.53 564.286-542.99 560.675-538.84 557.834-534.42 555.423-521.431 548.351-508.991 551.321-497.101 558.145-483.911 565.707-474.542 577.271-466.122 589.586-450.872 611.865-439.752 636.294-429.322 661.063-420.512 681.981-412.402 703.169-403.062 723.878-391.453 749.638-374.383 770.946-353.463 789.763-338.173 803.508-320.863 812.231-300.784 815.573-290.274 817.313-279.664 818.284-268.994 818.954-229.024 821.445-189.035 819.404-149.075 820.345-138.376 820.595-127.646 820.895-116.996 821.655-95.977 823.146-77.536 831.979-60.297 843.614-51.627 849.466-45.107 857.329-39.037 865.622-28.737 879.708-18.508 893.853-8.298 908.008-6.787 910.099-5.218 912.04-3.098 913.32-1.378 912.02-1.937 910.719-2.178 909.479-4.937 895.493-9.697 882.168-15.827 869.333-25.627 848.826-36.277 828.788-49.717 810.371-55.367 802.618-61.537 795.315-68.217 788.373-78.247 777.948-90.746 772.816-104.546 770.445-116.146 768.455-127.926 768.234-139.686 767.574-182.285 765.164-224.915 767.245-267.514 766.324-279.254 766.074-291.114 765.664-302.614 763.093-317.553 759.761-330.683 752.389-342.853 743.255-359.523 730.73-370.003 713.364-380.083 695.707-393.632 671.988-404.182 646.748-416.742 622.529-429.512 597.919-442.392 573.37-458.082 550.431-467.082 537.267-477.021 524.861-488.611 513.808-502.131 500.912-517.941 499.231-534.831 504.834-542.331 507.325-546.831 514.047-551.44 520.149-560.76 532.484-565.09 546.88-568.17 561.695-569.85 569.769-570.88 577.981-572.14 586.145-572.29 587.136-572.49 588.306-571.36 589.076M-572.19 493.069C-572.19 493.649-571.82 494.22-571.37 495.5-567.65 493.02-565.18 489.857-562.53 486.776-555.13 478.174-547.32 469.98-538.351 462.928-529.17 455.725-518.671 456.165-508.331 458.176-499.911 459.816-492.711 464.519-486.281 470.431-472.701 482.905-463.211 498.271-454.602 514.268-441.342 538.896-430.442 564.637-418.932 590.087-410.122 609.574-401.152 629.021-390.302 647.488-373.713 675.739-349.103 693.806-318.073 703.59-300.364 709.172-282.254 712.914-263.884 715.424-251.385 717.125-238.914 718.996-226.385 720.406-215.585 721.617-204.695 722.117-193.875 723.237-182.625 724.398-171.375 725.648-160.205 727.379-147.516 729.35-134.855 731.561-122.446 735.002-102.687 740.484-84.496 748.757-68.347 761.862-54.937 772.747-44.517 786.031-34.297 799.597-24.978 811.981-16.747 825.117-8.388 838.171-6.817 840.623-5.768 843.594-2.268 845.375-1.437 839.302-1.487 833.78-2.218 828.218-5.077 806.479-13.598 786.692-23.287 767.324-32.107 749.687-42.527 733.061-55.257 717.996-66.507 704.681-80.187 694.186-95.316 685.653-112.017 676.229-129.916 669.827-148.905 667.286-159.886 665.806-171.065 664.705-182.235 666.016-189.205 666.826-196.185 666.866-203.185 666.866-214.545 666.846-225.784 668.546-237.095 669.067-245.164 669.437-253.194 670.217-261.204 670.927-274.724 672.108-288.274 671.618-301.764 672.628-310.093 673.258-318.443 673.058-326.624 671.888-338.423 670.187-348.183 663.885-356.843 655.892-372.923 641.046-384.482 622.789-395.672 604.292-411.392 578.312-424.792 551.071-439.122 524.331-452.722 498.951-466.332 473.542-482.841 449.853-488.081 442.34-493.341 434.757-500.391 428.795-507.941 422.412-516.101 417.11-526.111 415.149-531.491 414.089-536.55 414.699-541.5 416.649-550.83 420.312-558.75 426.044-565.15 433.717-569.8 439.289-571.84 446.211-572.13 453.134-572.68 466.429-572.25 479.764-572.19 493.069M-2.378 466.339C-4.428 459.246-8.537 453.734-14.527 449.822-24.187 443.53-34.947 440.299-46.407 438.818-71.457 435.598-95.347 441.499-119.216 447.592-141.445 453.264-162.766 461.837-184.686 468.53-196.765 472.222-209.075 474.592-221.745 475.862-237.055 477.403-252.305 476.753-267.574 476.783-282.204 476.803-294.464 470.48-305.403 461.067-320.624 447.972-329.733 431.075-336.443 412.568-344.933 389.119-349.963 364.82-354.293 340.37-359.913 308.688-364.133 276.776-369.413 245.034-371.312 233.6-374.893 222.726-377.203 211.481-379.482 200.377-383.083 189.563-387.393 179.059-391.612 168.765-396.572 158.811-403.682 150.107-416.052 134.952-432.272 130.12-451.162 135.792-464.412 139.764-475.562 147.456-486.311 155.689-502.131 167.805-516.661 181.529-529.341 196.735-538.96 208.28-550.72 217.904-558.92 230.669-563.31 237.491-567.61 244.264-569.95 252.097-570.77 254.838-571.49 257.549-570.51 260.58-567.39 261.04-565.96 258.539-564.08 256.938-553.44 247.845-544.82 236.691-534.241 227.577-518.711 214.202-503.691 200.097-484.771 191.294-479.591 188.872-474.231 186.901-468.701 185.781-462.341 184.491-456.122 186.222-450.302 188.893-437.302 194.875-426.862 203.828-419.062 215.903-412.402 226.196-407.202 236.891-403.742 248.886-392.873 286.62-385.553 325.155-376.763 363.359-372.163 383.317-367.673 403.345-360.983 422.723-350.283 453.664-328.913 472.972-296.523 479.494-281.264 482.565-265.824 482.995-250.305 482.445-240.055 482.095-229.814 481.815-219.614 480.765-210.755 479.845-201.915 478.693-193.065 477.634-183.775 476.522-174.445 475.723-165.235 474.192-158.336 473.042-151.296 473.582-144.476 472.011-143.836 471.861-143.176 471.751-142.525 471.771-129.186 472.131-115.946 469.43-102.606 470.45-93.057 471.181-83.446 471.511-74.017 473.361-63.547 475.433-54.447 480.664-45.517 486.217-32.697 494.17-20.857 503.474-8.827 512.517-6.577 514.207-4.268 515.818-.527 518.509-.418 505.895-.268 494.84-.258 483.786-.258 477.903-.728 472.091-2.378 466.339M-1.678 323.454C-1.638 321.144-1.958 318.812-4.937 318.752-17.077 318.513-29.367 316.222-41.188 321.073-48.097 323.904-54.457 327.726-60.407 332.187-74.896 343.031-88.156 355.307-101.616 367.401-115.876 380.206-129.266 393.941-144.025 406.246-156.756 416.84-169.306 427.624-182.976 437.008-188.005 440.449-193.345 443.44-198.525 446.682-200.125 447.682-201.925 448.482-203.115 450.713-199.545 450.693-196.935 449.082-194.245 447.792-163.146 432.847-133.266 415.68-103.486 398.293-88.616 389.609-73.717 380.937-57.257 375.394-42.897 370.562-28.607 370.712-14.277 375.344-12.207 376.015-10.167 376.814-8.088 377.445-3.848 378.716-2.857 378.075-1.768 373.663 .292 365.28-.317 356.737-.558 348.273-.798 340.001-1.827 331.758-1.678 323.454M-572.17 1081.715C-572.3 1128.213-570.58 1158.034-570.89 1204.542-570.93 1210.805-570.8 1210.875-564.09 1210.875-537.201 1210.904-510.321 1210.895-483.431 1210.895H-11.298C-.918 1210.895-1.968 1211.384-1.657 1201.301-.038 1149.571-1.157 1114.487 .122 1062.768 .662 1040.499 .853 1018.25 .973 995.982 .992 992.901 .763 989.97-.718 987.108-13.968 961.539-25.787 935.219-40.478 910.379-48.947 896.074-58.267 882.398-69.707 870.264-81.937 857.289-95.746 846.925-114.006 844.314-120.036 843.454-126.006 842.263-132.176 842.263-138.496 842.253-144.836 841.103-151.136 841.312-165.306 841.773-179.465 842.323-193.615 843.363-207.314 844.374-220.895 846.135-234.515 847.665-242.935 848.605-251.294 850.116-259.685 851.336-263.554 851.907-267.484 852.147-271.374 852.547-285.694 854.028-300.144 855.288-314.494 853.998-331.623 852.447-348.753 850.246-364.403 842.053-384.623 831.449-399.833 816.323-408.962 795.105-423.532 761.222-437.332 727.039-450.332 692.526-458.412 671.087-465.841 649.389-475.141 628.441-480.351 616.676-485.671 604.942-493.631 594.628-497.421 589.716-502.601 587.075-508.031 584.765-510.311 583.794-512.761 584.174-515.011 585.354-539.011 597.97-557.41 615.846-567.57 641.386-570.44 648.589-570.63 656.342-570.81 663.905-574.14 803.158-571.78 942.441-572.17 1081.715M35.742 184.981C35.192 219.884 35.942 254.818 36.002 289.722 36.312 481.625 36.912 673.539 35.702 865.442 34.892 995.562 35.062 1109.005 35.012 1239.135 35.012 1241.096 35.032 1243.057 35.002 1245.027 34.892 1251.22 34.762 1251.35 28.852 1251.47 28.192 1251.49 27.532 1251.48 26.882 1251.48H-599.34C-607.979 1251.48-607.649 1251.98-607.62 1243.337-606.74 1017.59-609.43 808.52-609.089 582.773-608.629 357.687-609.16 191.563-610.25-33.522-610.31-45.907-611.66-44.457-599.56-44.467-391.473-44.486-183.385-44.486 24.702-44.486 37.662-44.486 37.662-44.486 37.672-31.762 37.742 60.144 37.162 93.076 35.742 184.981"/>
</g>
</g>
</svg>
