<svg xmlns="http://www.w3.org/2000/svg" xmlns:xlink="http://www.w3.org/1999/xlink" xmlns:inkscape="http://www.inkscape.org/namespaces/inkscape" version="1.1" width="2048" height="1920" viewBox="0 0 2048 1920">
<defs>
<clipPath id="clip_1">
<path transform="matrix(1,0,0,-1,0,1920)" d="M0 1920H2048V0H0Z"/>
</clipPath>
</defs>
<g inkscape:groupmode="layer" inkscape:label="Layer 1">
<g clip-path="url(#clip_1)">
<path transform="matrix(1,0,0,-1,1577.1289,1685.71)" d="M0 0C-.2-25.96-16.261-42.74-42.12-44.7-87.841-48.12-87.86-48.12-87.86-2.38V44.72C-87.86 69.36-87.261 94.04-88.141 118.68-88.5 130.02-84.62 133.12-73.841 133.02-60.9 132.88-48.141 132.46-35.38 130.46-13.801 127.08-.36 112.56-.08 90.8 .319 60.54 .239 30.26 0 0M-75.181 260.479C-73.44 260.44-71.681 260.38-69.94 260.32-69.94 239.78-69.681 219.24-70.12 198.72-70.24 193.12-74.421 192.72-93.74 195.66-88.28 217.52-85.54 240.12-75.181 260.479M-39.761 243.12C-34.561 225.88-34.261 212.358-36.021 198.878-36.461 195.619-37.382 193.854-45.681 194.1-50.4 194.239-51.021 197.12-51.12 200.68-51.46 214.66-50.261 228.26-39.761 243.12M-339.261 1070.88C-339.021 1051-332.24 1032.18-340.521 1013.56-342.48 1033.56-363.9 1032.021-373.32 1044.46-364.301 1024.56-358.301 1004.66-364.921 983.021-372.48 989.42-368.561 1002.56-378.58 1008.899-383.04 999.38-370.48 992.899-375.46 983.04-379.88 992.34-383.761 1000.92-388 1009.32-389.48 1012.26-391.7 1015.86-395.561 1014.5-398.641 1013.42-400.4 1010.12-400.48 1006.399-400.62 1001.899-400.16 997.72-398.061 993.44-395.421 988.021-392.301 981.96-392.421 976.24-392.841 956.12-385.96 938.7-375.641 922.04-373.761 918.979-372.221 913.479-373.681 910.94-378.021 903.46-378.841 894.46-378.54 885.08-378.301 877.22-390.061 876.34-390.9 884.16-390.921 884.32-390.94 884.5-390.96 884.66-391.36 888.54-390.28 892.68-391.181 896.36-392.7 902.56-397 908.66-402.681 909.68-407.4 910.5-409.641 903.44-411.74 898.96-418.261 885.06-421.261 870.76-419.74 855.18-419.111 848.757-418.037 842.247-417.756 835.466-417.551 830.501-424.993 830.097-425.434 835.046-427.042 853.092-429.261 870.15-434.301 887.12-441.36 866.6-448.421 863.64-464.341 853.66-472.58 848.479-478.78 845.44-487.44 851.26-496.66 857.5-489.74 864.7-487.82 870.68-482.801 886.46-483.921 895.64-473.421 909.46-471.78 911.58-472.181 913.68-473.641 915.54-480.96 924.86-474.721 930.479-468.36 936.36-465.921 938.6-463.38 941.76-465.82 945.18-468.94 949.56-471.66 945.54-474 943.78-477.221 941.38-479.58 942.38-483.021 943.82-492.58 947.86-496.3 950.663-494.74 954.32-488.164 969.747-493.96 974.28-499.021 980.399-506.141 988.92-501.98 1006.6-498.801 1025.2-495.181 1046.42-490.221 1071.521-487.2 1094.96-485.08 1111.32-482.021 1123.68-478.421 1145.12-473.921 1171.979-478.021 1171.18-505.12 1173.899-539.7 1177.34-574.421 1177.06-608.98 1179.899-621.7 1180.96-624.021 1177.54-623.341 1163.6-623.221 1160.84-622.94 1158-622.36 1155.26-616.32 1127.3-616.28 1127.3-586.98 1126.899-572.4 1126.68-557.82 1126.5-543.221 1126.32-538.021 1126.24-532.5 1126.14-532.5 1118.96-532.46 1107.22-529.78 1094.36-533.62 1083.94-551.58 1035.22-558.301 983.521-574.88 934.56-578.48 923.94-574.101 904.021-597.66 909.96-601.4 910.92-603.62 902.68-605.841 898.22-633.62 843.54-660.5 788.3-695.58 737.72-717.32 706.34-742.28 677.86-772.78 654.44-783.921 645.899-787.32 649.86-787.36 661.6-787.404 676.768-787.414 691.937-787.41 707.499-787.406 726.329-779.203 744.103-765.276 756.777-765.132 756.908-764.988 757.042-764.841 757.18-762.601 759.26-760.74 758.92-759.82 756.46-754.74 743.1-748.82 755.04-741.38 756.479-746.78 739.34-756.88 725.86-764.62 709.86-755.96 708.36-751.681 713.38-747.24 718.04-734.44 731.44-724.04 747.3-711.88 760.479-701.021 772.3-690.181 783.42-689.48 798.18-688.5 819.36-670.12 834.42-672.24 855.86-672.36 857.32-671.421 859.56-670.261 860.36-649.24 874.86-650.58 899.04-646.08 919.8-641.681 940.08-631.841 958.46-628.5 978.94-627.48 985.1-626.681 989.56-632.24 993.56-644.7 1002.5-644.761 1014.68-641.561 1028.16-638.62 1040.56-631.32 1052.18-633.221 1065.46-634.341 1073.2-634.7 1085.22-647.38 1073.26-654.221 1066.82-662.101 1069.479-669.641 1070.94-691.058 1075.058-710.404 1073.565-723.971 1055.57-725.982 1052.901-729.923 1053.016-732.059 1055.586-736.633 1061.089-742.88 1063.92-748.16 1064.399-752.894 1064.813-754.692 1059.975-756.901 1053.845-757.659 1051.743-760.782 1052.54-760.482 1054.754-757.063 1080.023-738.411 1093.111-730.9 1120-741.021 1110.769-748.079 1105.662-755.46 1092.5-757.468 1088.92-759.2 1079.66-767.16 1088.521-769.061 1090.64-772.24 1085.44-773.88 1082.68L-774.033 1082.424C-776.177 1078.847-781.637 1081.417-780.261 1085.354-770.263 1113.976-761.554 1141.547-753.54 1170.56-783.797 1143.197-783.476 1106.043-800.026 1074.231-801.072 1072.221-804.127 1073.034-804.042 1075.298-802.992 1103.124-812.199 1129.025-819.021 1155.2-824.46 1176.12-823.44 1195.979-813.521 1215.32-812.921 1216.5-812.28 1217.58-811.601 1218.58-807.88 1221.66-802.62 1222.74-795.921 1221.82-786.12 1220.479-774.66 1219.28-763.721 1220.58-738.86 1223.56-719.301 1217.06-703.9 1200.7-701.061 1197.64-697.761 1194.62-692.82 1193.24-690.98 1192.74-689.061 1193.34-687.801 1194.82-686.58 1196.26-686.301 1198.2-687.08 1199.88-688.681 1203.3-691.101 1206.06-693.66 1208.979-695.4 1210.96-697.181 1212.979-698.82 1215.32-697.32 1214.92-695.9 1214.54-694.561 1214.18-689.82 1212.899-686.08 1211.899-682.421 1210.5-664.721 1203.68-649.521 1208.3-634.601 1225.021L-634.021 1225.7C-632.601 1227.3-631.12 1228.979-630.08 1228.88-629.641 1228.82-628.66 1228.36-627.181 1225.8-625.561 1222.92-623.66 1220.18-620.82 1219.56-619.181 1219.2-617.521 1219.62-615.88 1220.8-610.561 1224.64-613.54 1228.88-615.5 1231.7-616.101 1232.54-616.66 1233.34-617.021 1234.08-618.16 1236.42-622.341 1242.42-627.181 1249.38-628.88 1251.82-630.62 1254.32-632.24 1256.68-630.761 1255.1-629.24 1253.46-627.74 1251.82-623.36 1247.06-618.841 1242.14-615.24 1239.3-610.74 1235.74-606.641 1234-601.9 1231.96-596.24 1229.54-589.82 1226.78-580.7 1220.08-579.04 1218.86-577 1218.7-575.101 1219.64-572.841 1220.76-571.341 1223.24-571.28 1225.979-571.061 1238.3-570.12 1241.2-569.36 1241.46-567.82 1242-561.2 1233.899-557.24 1229.06-555.141 1226.5-552.641 1224.06-550.221 1221.7-549.421 1220.92-548.62 1220.14-547.841 1219.36-547.36 1218.88-546.841 1218.28-546.32 1217.7-544.341 1215.44-542.46 1213.3-540.421 1214.12-538.801 1214.8-538.221 1216.899-538.38 1221.54-532.78 1212.76-523.74 1213.1-514.98 1213.42-508.4 1213.66-501.58 1213.899-496.341 1210.16-491.38 1206.64-485.801 1205.28-480.181 1206.26-473.965 1207.36-467.85 1211.251-462.637 1217.393-461.625 1217.238-461.301 1217.188-460.289 1217.034-456.175 1207.942-452.348 1199.357-442.9 1194.16-439.841 1192.479-435.86 1190.68-431.54 1190.68-428.66 1190.68-425.641 1191.46-422.62 1193.62-415.801 1198.399-414.24 1205.62-418.28 1213.399-423.5 1223.399-416.5 1228.06-409.101 1232.979-407.94 1233.74-406.801 1234.5-405.761 1235.26-401.48 1238.32-399.44 1236.399-395.62 1232.14-394.641 1231.04-391.202 1229.715-390.062 1228.676-361.503 1202.576-339.32 1173.899-331.94 1135.22-326.641 1107.399-325.801 1078.74-322.761 1048.42-331.66 1054.3-330.82 1064.399-339.261 1070.88M-399.58 357.28C-395.04 343.7-397.08 328.46-389.5 315.44-387.48 311.94-389.7 308.72-392.921 307.18-397.04 305.22-401.681 304.6-405.78 307.18-409.9 309.82-409.561 313.42-406.96 317.26-402.58 323.7-401.641 330.16-405.16 337.68-407.4 342.44-409.48 347.74-414.24 348.899-420.12 350.36-422.681 344.22-425.04 340.1-430.601 330.38-441.4 326.78-448.54 318.979-450.82 316.5-454.44 314.64-457.54 317.06-461.181 319.899-460.94 324.24-458.261 327.6-450.421 337.34-443.78 346.36-457.061 357.5-461.601 361.32-455.28 365.16-452.761 368.399-444.101 379.62-426.44 383.72-427.421 402.94-427.641 407.38-418.681 407.3-413.061 408.26-416.94 391.5-421.561 376-439.421 368.78-434.601 365.021-432.7 368.1-430.521 369.32-413.261 378.94-406.021 376.5-399.58 357.28M-383.261 245.84C-377.16 244.82-373.58 242.04-372.66 237.44-371.36 231.16-378.36 230.94-381.761 230.24-399.641 226.68-417.761 227.08-439.061 228.399-420.061 241.22-403.561 249.2-383.261 245.84M-358.5 218.62C-354.36 198-364.101 193-379.86 186.88-405.101 177.08-423.221 191.28-443.74 198.64-446.46 199.62-450.061 202.06-448.421 206.2-447.2 209.3-443.78 208.86-441.2 208.6-436.82 208.2-432.4 207.62-428.16 206.5-403.5 199.92-380.061 200.62-358.5 218.62M-459.86 246.38C-457.2 254.06-450.38 253.42-447.801 257.24-444.2 262.54-433.86 265.3-444.4 276.06-450.681 282.5-439.301 292.56-435.12 302.021-428.88 295.3-431.36 280.44-418.101 283.78-409.681 285.88-402.04 291.16-394.08 295-387.32 286.5-390.101 280.44-398.421 274.78-416.94 262.16-432.62 243.76-459.86 246.38M-484.78 428.14C-489.04 424.979-497.601 427.64-505.841 429.28-491.82 435.58-484.58 446.521-481.62 460.22-480.021 467.56-479.24 475.26-489.36 477.479-489.4 477.42-489.421 477.36-489.44 477.3-489.54 477.24-489.641 477.18-489.721 477.1-490.181 467.5-487.141 457.42-493.5 448.64-495 446.6-496.261 443.46-499.641 444.479-502.801 445.44-503.341 448.56-503.08 451.24-502.021 461.58-498.98 471-489.721 477.1V477.54C-489.601 477.54-489.48 477.5-489.36 477.479-483.62 492.8-467.08 505.76-456.66 503.08-438.4 498.399-432 480.8-444.181 466.8-455.841 453.36-455.641 434.979-465.601 417.92-468.7 430.58-472.66 437.2-484.78 428.14M-559.141 16.22C-551.101 39.899-543.38 62.6-534.101 89.94-524.561 62.84-516.54 40.02-508.181 16.22ZM-442.421 405.521C-445.82 401.32-447.761 391.14-454.561 394.8-460.36 397.899-455.16 405.8-453.141 411.399-448.58 423.899-442.061 435.32-434.141 447.899-419.721 428.54-433.101 417.14-442.421 405.521M-502.36 1163.54C-519.38 1164.38-536.38 1165.84-553.38 1167.54L-592.2 1170.46C-614.761 1170.6-613.86 1170.86-609.86 1148.92-607.96 1138.54-603.36 1136.3-594.2 1136.54-580.221 1136.92-566.2 1136.46-552.2 1136.42-520.101 1136.36-520.101 1136.38-523.62 1104.1-526.46 1133.08-526.46 1133.08-557.601 1133.08-569.341 1133.08-581.12 1133.08-592.86 1133.12-599.5 1133.14-605.301 1132.54-610.261 1135.36-616.181 1138.72-621.061 1160.7-617.061 1169.84-615.681 1173-613.38 1173.82-610.48 1173.8-604.88 1173.78-599.78 1173.62-593.221 1173.32-576.54 1172.479-560 1172.04-543.181 1170.72-523.96 1169.58-509 1168.36-491.54 1167.04-485.061 1166.54-484.801 1163.3-485.421 1158.1-488.04 1135.479-502.86 1047.84-505.301 1025.2-506.12 1025.42-506.94 1025.6-507.761 1025.78-506.301 1045.72-492.841 1130.66-490.66 1150.5-489.58 1160.42-493.16 1163.08-502.36 1163.54M-625.88 810.56C-609.36 798.22-594.58 788.64-576.66 803.82-572.98 806.94-566.061 805.521-563 801.521-559.9 797.46-565.761 795.06-567.96 792.34-573.98 784.94-573.54 770-589.08 773.3-613.681 778.5-621.181 785.68-625.88 810.56M-670.86 671.66C-670.721 671.6-670.58 671.56-670.44 671.521-664.08 691.56-651.28 705.521-631.301 712.68-627.74 713.94-623.74 717.38-620.74 713.08-617.28 708.1-622.181 704.96-625.16 701.96-633.86 693.26-643.641 685.479-651.28 675.96-657.301 668.44-663.2 668.84-670.44 671.521-670.48 671.46-670.48 671.42-670.521 671.36-670.601 671.34-670.7 671.32-670.801 671.3-670.12 666.62-671.94 661.58-668.2 657.38-664.421 653.12-660.24 648.38-668.261 644.36-674.681 641.12-681.44 637.479-687.44 645.32-692.601 652.021-690 656.56-683.28 659.54-677.681 662.04-677.46 670.14-670.801 671.3-670.82 671.42-670.841 671.56-670.86 671.66M-799.341 955.74C-793.2 971.54-753.86 1028.021-741.021 1038.66-748.38 1023.88-786.521 966.46-799.341 955.74M-674.78 1014.24C-705.48 966.399-743.82 925.72-789.16 891.58-753.761 935.021-715.921 976.18-674.78 1014.24M-783.801 933.399C-773.44 958.58-726.641 1014.24-707.021 1048.06-712.04 1019.14-765.62 946.64-783.801 933.399M-601.141 467.1C-621.44 444.399-650.86 441.521-678.88 436.521-708.54 431.24-737.7 433.88-766.62 441.72-771.801 443.1-779.4 447.06-775.74 434.06-774.62 430.06-786.7 431.24-791.261 433.18-806.601 439.7-810.08 433.479-807.221 417.5-821.341 425.36-837.88 425.62-835.62 448.68-835.475 450.114-835.655 451.463-836.107 452.73-840.38 464.695-832.165 477.297-819.463 477.021-819.035 477.012-818.614 476.998-818.2 476.979-793.38 475.82-773.08 480.94-748.66 473.34-743.94 471.84-737.96 472.58-734.221 469.96-717 457.979-702.261 467.899-687.181 474.36-681.061 476.979-671.96 511.44-675.561 516.82-678.36 520.96-680.58 519.08-683.12 515.96-687.58 510.5-683.62 504.22-685.36 498.46-687.181 492.44-688.2 485.14-696.62 487.34-705.641 489.62-699.98 496.06-698.561 500.66-697.721 503.42-696.7 505.84-697.421 507.38-753.46 512.7-815.028 513.43-859.568 492.47-864.628 490.09-869.568 495.91-866.408 500.531-860.748 508.81-855.349 516.71-849.908 524.67-843.868 521.791-852.349 516.35-850.349 514.43-809.408 547.91-773.341 542.979-726.2 535.96-717.98 534.72-710.74 529.96-704.841 523.56-701.7 520.14-698.44 514.32-692.921 520.86-687.54 527.2-690.5 532.54-695.94 536.54-696.9 537.24-697.88 537.899-698.88 538.54-703.421 541.5-701.24 548.62-695.801 548.56-687.721 548.5-679.66 547.84-671.681 548.06-658.021 548.42-644.301 545.1-630.101 545.24-645.74 560.021-667.36 568.38-687.48 566.521-699.801 565.36-711.421 564-722.521 554.74-725.101 552.6-728.761 554.7-731.9 556.36-755.7 569.12-781.4 576.1-807.721 581.479-814.021 582.76-825.04 583.08-824.04 591.64-823.261 598.54-814.16 605.22-806.38 604.76-785.141 603.479-772.641 607.04-752.841 612.979-743.48 615.82-737.36 609.08-730.921 603.72-722.48 596.68-706.801 591.62-692.86 596.6-699.801 607.12-710.38 608.64-717.101 616.64-719.82 619.88-728.54 622.42-721.96 627.44-715.9 632.04-709.88 642.34-703.32 634.6-686.62 614.94-671.94 617.1-654.38 615.7-631.54 613.88-608.44 615.06-585.48 615.18-580.521 615.2-574.341 615.68-572.86 621.2-570.921 628.5-577.021 632.38-582.44 635.22-596.12 642.32-610.2 648.021-625.5 648.92-633.32 649.399-636.921 659.1-631.24 664.5-621.54 673.74-608.16 678.021-595.341 675.76-587.66 674.399-577.301 670.06-572.62 679.36-568.561 687.42-576.341 693.34-580.78 698.66-589.54 698.06-581.04 686.72-589.16 687.86-591.88 688.24-596.12 692.16-592.94 697.04-592.32 697.96-591.46 698.74-590.62 699.46-583.641 705.42-584.48 711.72-589.38 718.6-595.98 727.899-598.721 712.54-605 716.94-607.261 722.68-608.82 730.24-603.5 734.58-599.24 738.08-595.2 731.14-590.94 728.94-581.16 723.88-569.32 726.38-559.261 720.68-556 718.8-553.2 724.46-552.38 728.46-550.801 736.14-555.421 740.899-560.181 745.899-563.4 749.26-570.921 752.42-567.4 757.399-563.78 762.54-557.601 759.5-552.82 755.44-538.86 743.64-533.66 757.76-529.08 765.399-519.839 780.836-513.407 797.613-506.817 815.534-503.627 824.21-493.591 827.992-485.332 823.842-476.823 819.566-468.611 820.833-460.906 827.787-456.135 832.092-448.493 828.84-448.079 822.427-445.186 777.589-477.118 754.959-527.08 724.1-523.721 717.3-516.74 717.6-512.62 720.18-500.36 727.84-484.98 724.64-473.101 732.84-464.36 738.88-463.101 733-462.341 725.899-461.36 716.72-462.061 707.2-466.601 699.76-469.761 694.6-472.141 689.26-474.021 683.7-477.681 672.899-490.101 668.06-500.04 673.6-501.421 674.36-502.78 675.1-504.141 675.84-510.735 679.409-517.715 679.327-526.853 678.424-528.802 678.232-529.202 675.555-527.395 674.8-516.846 670.39-508.188 666.934-499.82 662.899-490.2 658.26-486.46 649.86-496.721 641.06-517.521 623.22-538.641 605.7-553.221 581.92-555.08 578.899-560.341 576.42-556.46 572.24-553.46 569.06-548.48 569.76-545.78 572.86-528 593.28-503.421 590.12-480.561 591.06-465.86 591.66-461.28 597.16-464.721 610.68-467.2 620.399-468.876 621.15-472.216 630.57-474.876 638.049-473.896 643.45-465.696 643.79-459.716 644.009-451.076 647.009-450.076 634.849-449.576 628.669-457.221 618.22-436.641 631.021-433.96 632.68-434.94 628.18-434.2 626.56-429.66 616.38-423 609.76-414.301 606.66-404.66 603.22-401.66 590.979-408.4 583.3-411.12 580.2-414.341 577.399-418.221 574.96-438.98 561.899-459.061 547.7-479.58 534.18-493.141 525.26-507.841 519-523.28 513.8-552.521 503.96-579.74 491.021-601.141 467.1M-655.181 338.46C-663.101 331.68-671.561 330.94-681.44 335.26-703.86 345.1-739.16 379.5-749.141 406.521-732.301 391.92-704.86 400.42-689.62 377-701.561 376.82-706.4 374.2-699.101 362.979-686.98 344.44-682.221 342-660.74 348.82-657.4 349.899-653.561 353.5-650.761 348.1-648.24 343.22-652.421 340.82-655.181 338.46M-684.96 317.28C-693.46 313.42-701.061 318.58-708.601 321.32-750.9 336.92-794.54 349.62-831.48 377.021-835.96 380.3-841.36 382.5-845.58 391.32-812.061 374.78-781.181 359.54-747.04 342.7-756.16 366.66-778.78 374.12-790.601 392.1-766.221 388.399-748.2 375.979-734.04 357.38-731.681 354.28-727.46 350.479-727.94 347.68-731.221 328.68-716.98 333.74-707.7 332.38-699.24 331.12-689.5 333.82-683.841 324.84-682.761 323.14-683.62 317.88-684.96 317.28M-783.181 327.2C-756.921 312.5-736.5 289.06-706.761 276.68-729.921 275.479-762.4 296.84-783.181 327.2M-851.641 349.24C-833.841 342.08-821.341 331.1-809.641 318.92-804.24 313.3-798.641 307.66-792.36 303.08-784.521 297.36-785.28 297.64-783.561 288.521-782.101 280.76-773.62 278.38-767.24 275.56-757.24 271.14-746.48 268.34-737.78 259.68-786.12 254.96-834.28 298.979-851.641 349.24M-751.721 24.78C-752.721 24.24-753.721 23.7-754.74 23.18-764.641 38.479-774.641 53.74-784.421 69.12-801.9 96.64-801.98 96.8-777.98 119.42-768.24 128.6-762.08 140.34-751.721 150ZM-810.841 183.14C-817.24 191.02-828.801 193.36-835.9 204.22-816.141 204.52-801.38 196.44-786.78 188.22-784.32 186.84-780.601 184.62-782.561 180.479-783.88 177.6-786.921 177.46-789.721 177.42-797.28 177.3-804.78 175.64-810.841 183.14M-857.82 188.1C-838.44 183.24-835.88 163.2-822.94 152.899-837.62 149.44-839.58 151.42-857.82 188.1M-903.2 252.66C-859.12 247.62-821.62 229.72-782.801 216.1-824.4 219.88-870.04 209.68-903.2 252.66M-916.181 292.34C-904.601 293.56-897.721 307.08-883.88 294.68-879.12 290.42-867.9 292.92-861.48 300.2-858.641 303.44-853.601 308.18-850.4 303.42-840.24 288.16-821.78 284.521-809.681 272.36-805.12 267.74-801.44 262.26-797 256.7-838.421 265.28-875.62 279.54-916.181 292.34M-928.27 83.109C-937.25 79.328-940.23 86.009-945.05 89.849-949.491 93.389-955.27 98.988-950.31 103.689-938.61 114.748-941.13 129.269-938.23 142.429-937.35 146.509-936.031 150.528-933.01 152.488-928.97 155.089-923.51 157.889-919.27 157.169-914.331 156.328-915.331 149.969-915.27 145.568-915.17 137.729-915.23 129.889-915.23 120.669-917.491 108.429-908.411 91.429-928.27 83.109M-949.02 40.5C-954.4 38.46-958.341 42.64-959.341 48.2-960.02 51.94-959.94 55.86-959.9 59.72-959.86 63.56-959.86 68.72-954.96 68.7-948.641 68.66-949.08 63.68-950 59.86-953 55.72-950.601 52.92-949.74 49.8-948.88 46.74-942.78 42.86-949.02 40.5M-975.261 293.64C-963.32 310.18-957.261 310.04-941.5 296.76-951.98 290.46-962.04 302.399-975.261 293.64M-1010.28 298.34C-1025.96 272.021-1041.181 245.42-1056.5 218.899-1057.601 217-1057.82 214.66-1062.32 214.38-1064.101 229.26-1068.36 244.3-1060.44 258.84-1027.9 318.64-1005.88 383.16-976.32 444.22-949.58 499.44-920.54 553.54-891.94 607.86-876.261 637.68-867.5 670.06-855.82 701.36-853.08 708.64-853.86 717.7-843.04 720.94-836.74 722.82-840.88 730.2-842.261 734.28-844.167 739.874-844.922 745.461-845.089 751.058-845.32 758.793-833.487 759.674-832.887 751.959-832.612 748.432-833.771 744.603-837.521 740.22-825.921 736.5-822.58 743.26-819.561 750.66-819.534 750.728-819.507 750.794-819.48 750.861-816.856 757.438-807.05 755.41-807.259 748.332-808.376 710.529-811.033 673.04-814.561 635.58-815.061 630-823.48 626.76-827.221 623.36-836.74 614.68-840.96 605.56-850.62 597.08-854.48 593.68-854.841 593.74-859.181 598.76-862.681 602.8-865.181 598.899-867.721 597.899-892.9 588.18-907.2 558.1-900.78 527.86-895.2 531.56-889.82 535.16-881.2 540.899-883.761 527.979-889.301 521.3-895.66 515.32-916.2 495.94-918.48 469.8-921 444.3-921.721 437.18-926.16 435.16-929.341 431.36-935.38 424.1-939.141 418.6-931.48 408.82-922.94 397.92-935.74 391.12-941.801 386.32-971.96 362.479-991.101 330.46-1010.28 298.34M-1026.62-2.64C-1027.061-29.8-1044.261-45.521-1071.721-45.28-1097.62-45.06-1113.98-28.76-1114.54-2.14-1114.88 12.979-1114.62 28.12-1114.62 43.22H-1114.521C-1114.521 59.46-1114.98 75.74-1114.4 91.96-1113.521 116.94-1094.801 133.96-1069.4 133.66-1045.761 133.399-1027.12 115.62-1026.681 91.46-1026.12 60.1-1026.08 28.72-1026.62-2.64M-1116.74 233.76C-1115.66 238.14-1111.4 238.86-1107.141 238.34-1095.4 236.92-1079.641 208.62-1084.7 198.02-1086.08 195.06-1088.681 194.72-1091.46 194.16-1097.421 192.979-1103.4 191.8-1109.181 189.979-1114.921 188.18-1120.4 185.56-1127.721 182.64-1126.48 201.28-1120.721 217.36-1116.74 233.76M-867.16 1421.44C-867.16 1421.44-833.841 1426.899-833.841 1390.54-833.841 1390.54-847.98 1413.44-867.16 1421.44M-819.261 1331C-815.4 1331-812.261 1324.74-812.261 1317-812.261 1309.24-815.4 1302.979-819.261 1302.979-823.12 1302.979-826.261 1309.24-826.261 1317-826.261 1324.74-823.12 1331-819.261 1331M-704.98 1230.64C-705.061 1229.521-705.7 1228.5-706.86 1227.72-714.48 1222.44-719.28 1226.5-725.38 1231.64-725.94 1232.12-726.521 1232.6-727.101 1233.1-719.721 1239.84-713.36 1240.1-706.601 1234.04-705.48 1233.021-704.9 1231.82-704.98 1230.64M-642.641 1230.54C-642.641 1228.06-643.601 1227.46-646.32 1227-651.44 1226.16-659.841 1229.7-667.681 1236.021-675.94 1242.64-681.48 1250.521-681.801 1256.06-682.101 1261.12-680.28 1262.3-677.261 1262.54-677.12 1262.56-676.98 1262.56-676.841 1262.56-672.521 1262.56-664.48 1257.8-656.58 1250.5-648.24 1242.82-642.641 1234.8-642.641 1230.54M-569.012 1250.941C-571.221 1250.765-573.681 1250.439-575.613 1249.862L-577.17 1260.278ZM-478.16 1223.78C-478.721 1222.68-479.36 1222.04-480.061 1221.88-484.061 1221-489.66 1221.14-492.641 1223.14-493.66 1223.82-494.24 1224.64-494.421 1225.62L-494.921 1228.399C-496.62 1237.78-499.141 1251.76-497.341 1261.56-489.38 1260.56-482.04 1258.62-478.101 1249.6-476.44 1245.84-475.021 1229.979-478.16 1223.78M-428.78 1203.58C-428.78 1203.28-428.82 1203.021-428.86 1202.78-429.5 1199.8-430.021 1199.04-432.5 1199.38-435.98 1199.86-441.721 1205.6-445.86 1212.72-448.88 1217.92-450.28 1222.68-449.4 1224.84-448.841 1226.26-448.08 1226.86-446.721 1226.86-446.44 1226.86-446.12 1226.84-445.78 1226.78-443.421 1226.58-439.24 1222.899-435.36 1217.64-431.4 1212.28-428.78 1206.6-428.78 1203.58M-742.681 1281.62C-691.261 1306.12-638.141 1306.54-583.98 1293.36-581.82 1292.84-579.58 1291.64-577.5 1291.88-547.9 1295.06-523.16 1280.74-496.261 1272.36-469.7 1264.1-442.44 1255.68-414.7 1250.46-414.967 1250.51-414.838 1250.481-414.705 1250.454L-415.46 1249.42C-421.16 1241.54-426.08 1234.74-439.94 1238.76-440.801 1239.021-441.9 1239.56-442.96 1240.08-445.341 1241.26-447.4 1242.26-448.921 1241.16-454.261 1237.2-458.16 1235.62-460.86 1236.36-464.24 1237.26-466.24 1241.899-468.761 1247.76-469.62 1249.78-470.521 1251.86-471.58 1254.021-473.601 1258.2-478.141 1261.62-482.301 1264.44-487.88 1268.26-499.521 1272.399-505.82 1270.46-507.801 1269.84-507.96 1267.479-506.82 1254.62-506.601 1252.26-506.421 1250.08-506.341 1248.54-506.28 1247.021-506.16 1245.68-506.04 1244.2-505.921 1243-505.82 1241.72-505.721 1240.16-505.66 1239.3-505.58 1238.32-505.48 1237.3-505.141 1233.66-504.641 1228.14-506.12 1226.46-506.4 1226.16-506.721 1226.021-507.181 1226-508.98 1225.96-510.74 1225.74-512.44 1225.56-519.761 1224.72-525.54 1224.04-529.7 1236.12-530.801 1239.32-532.04 1243.3-533.36 1247.521-537.38 1260.32-542.38 1276.24-547.761 1285.2L-548.32 1286.12-549.38 1285.88C-549.88 1285.76-550.301 1285.46-550.561 1285-551.94 1282.7-549.32 1272.78-549.301 1272.74-548.78 1270.46-548.24 1268.16-547.7 1265.88-546.58 1261.16-545.48 1256.46-544.44 1251.74-544.28 1250.979-544 1250.021-543.681 1248.96-542.74 1245.84-541.181 1240.64-543.32 1239.82-544.62 1239.32-549.88 1242.7-553.54 1246.399-557.4 1250.28-560.7 1254.92-563.921 1259.42-564.841 1260.72-565.78 1262.04-566.74 1263.34-571.4 1269.66-576.021 1275.16-585.101 1278.42L-587.101 1279.14V1242.58C-596.98 1245.68-603.12 1254.521-609.58 1263.86-616.28 1273.521-623.221 1283.5-634.86 1287.54L-638.82 1288.899-636.641 1285.34C-632.061 1277.86-626.721 1270.521-621.561 1263.44-619.88 1261.14-618.221 1258.88-616.66 1256.7-618.301 1258.22-619.94 1259.74-621.561 1261.24-628.641 1267.82-635.96 1274.62-643.38 1281.04L-643.841 1281.46C-645.641 1283.06-648.08 1285.22-650.98 1285.04-652.641 1284.92-654.181 1284.06-655.561 1282.46-659.24 1278.24-655.7 1274.34-653.801 1272.26L-653.36 1271.76C-648.301 1266.16-644.94 1259.68-641.82 1252.78-650.96 1261.479-661.24 1267.42-673.061 1270.88-682.341 1273.58-689.28 1271.94-694.301 1265.84-700.341 1258.46-695.98 1252-692.141 1246.3-691.761 1245.72-691.38 1245.16-691 1244.58-687.2 1238.76-682.08 1234.22-677.12 1229.84-673.9 1226.979-670.62 1224.08-667.7 1220.82-669.721 1221.22-671.78 1221.46-673.801 1221.7-683.221 1222.86-691.38 1223.86-694.841 1237.86-696.12 1243.04-700.74 1247.34-707.181 1249.36-714.58 1251.68-722.4 1250.28-727.601 1245.7-738.96 1235.7-757.5 1236.68-777.141 1237.72-783.82 1238.08-790.681 1238.44-797.4 1238.36-781.9 1258.74-763.641 1271.64-742.681 1281.62M-786.04 1327.16C-778.301 1328.22-770.28 1327.66-762.62 1328.979-756.88 1330-752.061 1334.18-752.36 1340.521-752.601 1345.84-757.86 1345.18-761.66 1345.06-767.66 1344.86-772.36 1346.66-770.74 1353.44-769.2 1359.86-770.021 1370.899-760.261 1369.44-743.16 1366.899-731.46 1376.399-718.62 1383.92-708.04 1390.12-698.101 1394.08-686.88 1384.86-683.801 1382.3-677.641 1380.34-674.421 1381.7-668.923 1384.02-667.285 1383.87-662.245 1383.534-657.799 1383.238-654.072 1380.062-653.086 1375.718L-650.204 1363.033C-649.129 1358.298-652.249 1353.592-657.045 1352.832-677.092 1349.655-694.064 1342.363-712.4 1331.08-732.2 1318.899-751.801 1306.399-773.4 1292.84-773.44 1304.54-774.54 1313.521-787.36 1313.54-790.28 1313.56-794.061 1316.06-794.061 1320.06-794.061 1325-789.681 1326.66-786.04 1327.16M-4.58 185.66C-12.16 188.58-14.601 192.14-14.9 200.04-15.62 218.46-17.061 236.88-19.24 255.22-24.141 296.36-35.78 335.979-48.38 375.3-50.4 381.54-49.341 388.16-53.641 394.32-64.48 409.86-72.421 427.12-75.4 446.04-79.841 474.22-83.5 502.479-87.74 530.7-95.12 579.58-96.561 630.1-126.54 672.84L-126.58 672.88C-128.021 674.96-125.341 677.54-123.421 675.899-120.341 673.24-120.261 667.479-113.101 668-131.641 699.92-138.601 736.86-158.601 769.86-162.48 776.24-172.38 771.36-169.641 764.42-163.681 749.22-154.341 736.021-147.78 721.78-145.521 716.899-152.74 713.36-155.261 718.1-155.801 719.12-156.36 720.14-156.94 721.12-163.46 732.12-166.801 746.38-177.96 752.899-191.36 760.72-196.641 772.62-202.221 785.44-215.181 815.06-228.141 844.68-245 872.46-255.641 890.04-254.96 891.46-241.601 906.38-240.82 907.24-240.58 909.68-241.2 910.58-244.421 915.021-246.641 923.76-251.4 922.88-262.44 920.88-267.021 935.08-278.921 931.34-283.301 929.96-283.38 938.64-281.761 943.58-270.82 938.08-262.301 959.44-249.82 945.18-253.04 954.54-257.561 961.7-260.221 970-268.08 994.78-276.48 1020.021-289.46 1042.26-299.48 1059.42-295.7 1080.58-300.24 1099.5-304.261 1116.2-306.88 1132.479-310.46 1149.32-320.08 1194.58-359.721 1232.38-390.841 1263.86-393.421 1266.44-397.74 1267.8-401.36 1268.62-432.66 1275.74-461.54 1287.36-491.221 1295.88-519.981 1304.112-563.231 1317.954-578.724 1323.897-581.733 1325.051-584.002 1327.572-584.85 1330.68-585.862 1334.39-586.986 1338.357-588.761 1339.78-599.59 1348.469-612.283 1353.173-625.862 1354.712-629.753 1355.153-632.956 1357.97-633.823 1361.789L-637 1375.774C-636.974 1375.755-636.947 1375.738-636.921 1375.72-645 1417.74-654.341 1458.28-669.5 1497.28-675.5 1512.72-685.301 1524.06-700.98 1530.04-705.44 1531.74-709.841 1532.399-710.801 1539.42-712.761 1554.06-724.58 1557.76-736.94 1557.2-752.301 1556.521-767.341 1554.08-782.66 1559.32-789.88 1561.8-798.66 1559.7-804.921 1554.56-811.801 1548.96-819.561 1546.521-827.86 1545.24-837.141 1543.8-844.94 1540.899-849.601 1531.78-851.24 1528.58-854.98 1524.72-858.141 1524.32-877.5 1521.899-882 1506.08-884.841 1492.021-892.78 1452.6-893.46 1412.76-885.261 1373.04-884.061 1367.18-880.921 1366.36-876.101 1365.58-866.681 1364.08-860.32 1359.42-862.521 1348.54-865.54 1333.521-873.421 1352.66-878.36 1345.92-875.38 1337.28-864.08 1331.18-865.4 1321.899-868.101 1303.04-856.48 1292.74-844.82 1282.76-832.101 1271.86-833.48 1263.36-844.66 1252.399-859.46 1237.94-873.38 1222.54-887.021 1206.979-950.86 1134-959.86 1072.46-936.58 982.26-930.04 985.979-933.54 996.08-925.601 999.1-923.261 980.58-933.46 968.24-946.54 955.38-936.343 955.704-926.824 956.507-917.644 955.704-914.27 955.409-913.485 950.858-916.584 949.493-919.295 948.299-921.872 946.769-924.32 944.899-927.12 942.76-929.86 940.72-926.301 937-923.16 933.7-921.521 936.74-919.7 938.58-918.935 939.363-918.195 940.216-917.454 941.045-914.975 943.819-910.718 940.271-913.022 937.35-920.252 928.184-929.018 921.576-942.9 923.96-945.88 924.46-948 920-949.04 916.74-955 897.94-961.4 879.32-970.9 861.62-961.08 858.76-958.88 866.1-953.08 870.86-949.04 856.62-960.341 851.5-965.02 843.42-967.96 838.38-971.24 833.74-968.141 828.04-965.601 823.38-960.46 823.12-956.16 824.3-943.62 827.74-944.88 819.28-945.921 812.28-948.88 792.2-959.98 776.18-972.9 761.2-976.421 757.1-983.261 752.74-978.24 747.26-966.86 734.84-975.421 732.38-987.5 731.18-984.101 726.76-981.721 724.38-980.221 721.521-978.28 717.86-973.74 713.62-978.721 709.66-984.88 704.74-985.261 711.56-987.58 714.8-992.62 721.78-997.681 721.12-1001.66 713.78-1006.261 705.34-1010.96 696.8-1008.86 686.5-1003.38 686.62-998.98 694.04-993.52 690.26-987.5 686.04-991.601 681.32-992.82 680.3-1012.2 664.04-1010.16 640.72-1013.261 619.021-1016.28 597.979-1019.4 576.899-1026.48 556.7-1027.08 554.96-1029.7 555.54-1029.5 557.38-1028.962 562.079-1028.426 566.779-1027.887 571.478-1027.757 572.609-1028.397 573.707-1029.462 574.108-1029.774 574.226-1030.03 574.26-1030.32 574.26-1031.36 574.26-1032.32 573.58-1032.641 572.54-1038.7 552.92-1047.08 534.399-1056.101 516.16-1059.12 510.06-1061.44 502.94-1063.7 496.16-1064.9 492.56-1067.761 486.899-1063.48 485.64-1047.421 480.88-1059.48 473.36-1061.74 467.979-1067.261 454.92-1082.4 445.12-1074.2 427.54-1072.641 424.22-1076.641 421.6-1079.021 419.34-1083.2 415.34-1085.841 410.7-1086.94 404.92-1093.08 371.84-1125.94 341.56-1157.44 331.04-1178.4 324.04-1199.421 322.56-1220.48 318.74-1226.04 317.7-1232.761 317.24-1231.82 309.6-1230.98 302.72-1224.78 301.899-1218.82 301.94-1208.62 302.021-1198.44 301.96-1184.78 301.96-1208.44 269.06-1223.311 248.968-1244.191 219.468-1249.451 212.067-1255.351 201.567-1247.55 195.247-1243.086 191.66-1238.521 192.779-1234.49 196.329-1225.864 203.922-1219.943 213.931-1214.145 223.71-1211.238 228.612-1208.374 233.583-1205.046 238.217-1201.396 243.299-1196.911 247.784-1192.61 252.308-1188.419 256.716-1184.253 261.19-1180.4 265.899-1176.08 271.021-1172.301 279.42-1165.141 273.12-1161.065 269.543-1164.058 266.277-1167.515 263.804-1176.7 257.235-1185.58 248.868-1192.78 240.153-1197.781 234.1-1201.169 226.945-1204.441 219.865-1207.968 212.232-1211.497 204.598-1215.071 196.987-1217.347 192.141-1218.972 186.625-1217.893 181.007-1216.967 176.185-1213.105 171.546-1208.317 170.198-1202.631 168.598-1199.552 173.204-1197.337 177.664-1194.125 184.132-1191.722 190.98-1188.63 197.508-1177.331 221.367-1168.921 233.24-1146.04 248.399-1141.141 239.34-1145.951 234.215-1148.531 228.496-1151.051 222.895-1153.115 217.435-1153.761 211.68-1156.021 191.56-1154.24 192.567-1159.36 176.26-1161.309 170.054-1164.458 166.136-1167.061 158.26-1173.042 140.155-1175.987 128.201-1176.787 112.581-1177.027 107.64-1178.021 102.399-1178.04 97.479-1178.261 63.28-1178.761 29.06-1178.061-5.12-1176.9-63.32-1134.46-105.34-1076.32-108.72-1018.02-112.14-985.841-74.38-956.58-33.34-946.141-18.68-932.4-12.22-916.46-2.64V-64.16C-916.5-108.26-920-104.96-874.04-105.4-859.2-105.54-854.48-99.46-854.62-85.28-855.04-39.86-854.681 5.58-854.32 51-854.301 54.16-857.421 58.84-850.761 61.3-820.98 15.021-789.521-30.46-761.98-78.2-748.94-100.8-733.681-107.82-709.38-105.64-694.841-104.34-689.921-99.08-689.98-85.02-690.341 1.34-688.801 87.76-691.181 174.06-691.721 194-684.421 203.68-669.98 214.34-647.46 172.62-625.08 131.02-602.521 89.54-598.421 82-602.061 75.74-604.521 69.08-623.08 18.44-641.681-32.18-660.12-82.84-665.761-98.32-661.301-105.28-644.801-105.02-594.48-104.36-603.94-113.2-588.141-65.96-587.24-63.32-585.82-60.82-585.24-58.14-583.021-47.8-577.44-43.78-566.36-44.42-548.48-45.46-530.32-46.24-512.58-44.3-493.021-42.12-484.24-49.24-478.601-67.94-465.641-110.979-472.48-104.78-427.54-105.14-412.74-105.24-406.88-103.14-405.48-93.82-404.86-89.68-405.4-85.46-406.841-81.52L-433.12-9.479C-437.681 3-428.421 16.22-415.141 16.22H-400.96C-390.389 16.22-381.82 7.651-381.82-2.92V-88.78C-381.82-89.88-381.561-90.96-381.181-92.02-376.62-104.979-368.341-105.36-357.801-105.32-310.681-105.14-263.561-105.28-216.46-105.28-177.801-105.28-177.88-105.1-178.86-65.76-179.261-51.38-184.641-44.26-200.021-44.54-232.54-45.12-265.16-43.601-297.601-45.18-314.66-46-317.54-40.16-317.301-24.62-316.38 36.5-316.9 97.64-316.94 158.76-316.94 172.479-313.801 187.24-330.04 195.5-332.16 196.56-333.4 201.5-333.2 204.54-331.7 227.399-335.681 248.74-348.301 268.3-350.181 271.2-348.761 276.04-349.641 279.78-353.44 295.74-351.88 313.66-363.48 326.88-378.801 344.3-369.66 373.18-392.32 386.92-392.681 387.14-391 389.92-391.181 391.38-393.12 406.04-376.82 422.3-394.54 433.92-395.7 434.68-395.24 438.18-395.261 440.399-395.38 452.74-397.221 464.28-401.021 476.521-404.301 487.04-400.46 490.16-398.58 491.78-382.641 505.36-388.921 525.58-383.32 542.14-378.32 556.96-343.48 603.44-372.24 680.04-377.44 693.84-381.301 706.28-377.9 720.16-371.601 746.12-372.021 772.28-376.54 799.56-378.58 811.94-374.78 823.96-371.46 835.84-369.16 844.08-367.341 848.32-359.181 838.72-305.761 775.88-259.561 709.021-228.261 631.74-201.761 566.32-176.021 500.22-141.24 438.521-128.08 415.18-121.2 391.6-124.24 365.12-126.24 347.899-122.5 333.021-112.74 317.8-96.82 292.96-86.36 266.08-102.46 236.08-106.801 227.979-109.721 218.02-109.721 208.899-109.7 194.28-117.24 192.78-128.561 193.84-142.46 195.12-151.48 190.399-151.48 174.6-151.4 87.68-151.4 .76-151.46-86.18-151.48-99.04-146.54-105.72-132.421-105.44-101.601-104.82-70.681-106.62-39.9-104.88 21.699-101.36 62.8-65.8 63.96-1.26 64.46 27.899 64.279 57.06 64 86.22 63.479 137.399 42.92 167.479-4.58 185.66" fill="#231f20"/>
<path transform="matrix(1,0,0,-1,279.8799,1613.916)" d="M0 0C-15.66-.804-31.415 .345-47.074-.306-54.655-.612-57.086 1.876-56.589 9.055-56.206 14.626-56.608 20.254-56.627 25.863-56.723 60.877-56.723 60.877-21.499 60.915-14.76 60.915-8.021 61.222-1.321 60.877 18.225 59.881 28.447 49.123 28.371 29.998 28.294 11.754 18.665 .938 0 0M54.693-67.691C48.625-56.895 47.744-51.094 59.441-42.365 91.277-18.626 97.632 15.774 90.454 52.396 83.217 89.363 59.766 112.488 22.149 118.978-20.062 126.252-62.715 120.931-105.156 121.754-117.81 122.002-119.801 112.622-119.744 101.882-119.495 58.733-119.629 15.583-119.648-27.567-119.648-63.997-119.552-100.427-119.667-136.838-119.801-178.323-123.974-176.848-78.049-177.27-61.547-177.404-56.359-170.473-56.685-155.14-57.221-128.817-56.876-102.476-56.608-76.134-56.55-71.884-58.216-66.888-54.425-63.384-47.974-57.412-18.646-63.097-14.396-71.348-2.986-93.574 7.849-116.087 19.412-138.217 43.992-185.233 31.721-176.179 83.313-176.868 103.452-177.136 108.162-168.732 98.666-150.469 84.251-122.749 69.97-94.933 54.693-67.691" fill="#231f20"/>
<path transform="matrix(1,0,0,-1,1824.0053,1686.1255)" d="M0 0C-.555-25.231-17.363-43.839-40.125-44.815-69.032-46.06-85.457-33.578-88.099-5.59-91.2 27.299-90.875 60.436-88.195 93.344-86.012 120.088-68.209 134.943-42.346 134.082-18.723 133.297-1.455 116.087-.134 90.702 .708 75.081 .019 59.364 .019 43.686 .057 29.117 .306 14.549 0 0M64.055 46.174C62.504 66.888 65.605 89.784 60.762 112.641 50.252 162.223 13.113 193.638-40.393 196.547-91.181 199.342-135.633 169.191-147.693 120.968-159.237 74.756-156.193 27.452-150.967-19.278-145.434-69.013-104.562-104.582-52.645-108.123-1.206-111.626 42.346-82.471 57.565-35.818 66.16-9.457 62.964 17.344 64.055 46.174" fill="#231f20"/>
</g>
</g>
</svg>
