<svg xmlns="http://www.w3.org/2000/svg" xmlns:xlink="http://www.w3.org/1999/xlink" xmlns:inkscape="http://www.inkscape.org/namespaces/inkscape" version="1.1" width="1984.25" height="1984.25" viewBox="0 0 1984.25 1984.25">
<defs>
<clipPath id="clip_1">
<path transform="matrix(1,0,0,-1,0,1984.25)" d="M0 1984.252H1984.252V0H0Z"/>
</clipPath>
</defs>
<g inkscape:groupmode="layer" inkscape:label="Layer 1">
<g clip-path="url(#clip_1)">
<path transform="matrix(1,0,0,-1,1235.5322,1282.2813)" d="M0 0C-2.124 9.756-11.113 10.444-18.639 11.333-26.959 12.316-33.193 8.267-32.317-.357-31.38-9.59-23.749-12.211-15.015-12.411-5.905-12.62-3.074-6.097 0 0M-467.786 11.771C-475.478 9.538-486.379 10.07-486.574 .672-486.729-6.796-480.701-13.136-470.593-12.364-461.622-11.679-454.662-8.001-454.749 1.126-454.818 8.395-460.714 11.306-467.786 11.771M-.463 254.286C-8.786 250.982-20.771 250.457-20.967 239.464-21.138 229.909-12.396 226.135-2.65 226.299 8.029 226.478 13.25 233.393 13.963 241.793 14.629 249.642 7.601 252.981-.463 254.286M-485.792 254.15C-494.296 253.654-501.145 250.156-501.16 242.556-501.178 233.996-495.843 227.099-485.437 226.345-475.716 225.641-466.915 229.292-466.298 238.705-465.548 250.171-477.936 250.476-485.792 254.15M-278.462-303.547C-295.215-302.802-306.451-306.112-315.449-313.688-323.599-320.552-322.822-329.783-318.635-338.251-315.665-344.258-307.788-345.595-303.539-342.032-284.311-325.915-270.013-336.139-256.062-348.506-247.335-356.242-240.001-356.08-232.236-347.473-219.993-333.902-207.602-327.992-188.926-340.916-178.788-347.931-167.481-344.327-167.516-328.773-167.549-313.205-185.659-300.129-209.891-303.412-234.515-306.75-258.454-312.686-278.462-303.547M-503.929-112.438C-459.564-112.788-418.972-59.535-433.003-22.479-434.888-17.502-437.411-9.697-444.382-13.781-453.824-19.313-466.987-20.989-470.951-33.56-476.287-50.477-483.005-67.023-488.279-83.956-490.191-90.096-490.865-97.388-499.015-97.253-506.587-97.128-508.218-89.956-510.815-84.068-522.396-57.812-527.955-30.433-530.616-2.355-531.364 5.543-530.647 16.184-542.354 16.996-553.999 17.805-563.225 11.909-568.382 1.276-584.863-32.704-553.066-98.917-514.534-110.229-510.34-111.459-505.921-112.032-503.929-112.438M86.269-21.931C85.902-15.527 84.506-9.711 82.826-3.664 79.144 9.6 69.631 17.348 56.233 17.038 41.712 16.702 43.792 3.43 43.022-5.378 40.62-32.879 34.11-59.342 23.258-85.006 20.766-90.899 18.937-97.691 10.747-97.17 3.78-96.727 2.933-90.437 1.19-85.002-4.226-68.108-10.825-51.534-16.108-34.608-20.516-20.486-34.633-17.829-46.042-13.161-50.53-11.325-53.781-20.02-55.141-25.407-60.476-46.557-41.92-90.271-22.38-102.667-1.062-116.19 29.594-115.784 47.362-100.023 71.227-78.857 81.576-51.425 86.269-21.931M-439.875 199.645C-442.459 206.087-439.646 219.916-454.924 218.087-468.001 216.521-486.337 219.072-488.521 199.116-490.551 180.561-502.334 165.029-507.916 147.514-510.792 138.487-516.751 140.28-522.155 146.373-527.378 152.261-530.954 158.701-532.953 166.272-539.617 191.51-544.645 216.919-545.395 242.958-545.625 250.994-544.031 260.792-555.442 263.044-565.411 265.011-574.854 260.785-580.795 253.253-586.361 246.197-590.417 238.279-590.944 228.836-592.366 203.366-584.637 179.557-569.657 159.501-554.712 139.494-534.845 120.414-504.621 124.268-468.672 128.849-439.441 163.611-439.875 199.645M103.785 220.354C104.764 234.876 100.915 247.522 88.854 257.316 82.297 262.643 73.927 265.284 66.168 262.745 58.298 260.169 58.582 252.105 58.026 245.108 56.73 228.795 56.112 212.292 52.783 196.299 49.346 179.785 48.398 162.21 36.408 148.013 30.035 140.468 23.476 137.39 19.885 149.317 14.595 166.895 3.09 182.288 .831 201.039-1.348 219.131-19.81 216.553-32.223 218.059-47.124 219.867-47.327 206.647-47.015 197.664-46.437 181.095-41.051 165.47-29.964 151.885-11.117 128.79 20.58 117.504 40.905 126.664 83.26 145.752 99.275 179.782 103.785 220.354M174.977 472.9C208.51 472.777 235.095 490.753 241.538 512.802 247.101 531.833 250.953 549.994 275.662 558.598 288.711 563.142 295.586 577.274 280.855 590.187 275.943 594.493 270.704 599.068 273.146 606.027 280.156 626.001 276.857 646.747 279.027 667.074 283.869 712.431 295.529 755.877 325.656 792.798 339.456 809.71 348.846 827.495 351.979 848.035 353.455 857.701 356.061 866.714 361.542 874.874 372.357 890.974 375.115 905.452 357.927 920.423 339.525 936.449 306.588 949.065 291.938 938.944 265.924 920.972 232.669 907.137 225.213 873.864 216.274 833.975 181.111 807.294 167.417 770.063 165.899 765.936 161.005 762.481 156.938 759.605 132.306 742.187 124.771 719.59 132.393 692.251 136.566 677.28 132.659 665.452 117.945 656.898 104.137 648.871 92.682 639.098 98.446 621.806 103.871 605.536 117.826 604.738 133.643 603.735 148.239 602.81 164.597 596.764 169.963 583.825 175.296 570.963 160.909 562.08 151.312 554.443 137.248 543.251 129.064 529.368 123.318 513.584 120.979 507.159 120.042 500.249 126.244 496.685 144.137 486.401 161.256 474.028 174.977 472.9M-616.091 717.084C-621.114 750.599-662.019 770.377-673.666 805.354-673.852 805.913-674.714 806.294-675.291 806.723-687.247 815.591-693.597 827.258-698.346 840.709-710.059 873.888-724.362 904.61-758.702 925.765-790.939 945.625-820.42 945.128-847.536 917.806-858.653 906.604-858.896 896.469-853.601 882.607-837.285 839.898-821.17 797.309-791.952 760.173-789.025 756.454-788.567 751.162-786.329 746.883-762.756 701.817-769.418 652.02-760.134 604.728-758.889 598.387-763.805 594.938-767.481 590.647-779.036 577.161-776.99 562.62-759.905 556.49-742.125 550.112-735.049 538.996-732.321 523.224-729.099 504.598-717.997 491.586-700.543 481.472-676.394 467.478-635.823 473.423-613.864 495.926-604.626 505.393-614.278 533.238-632.788 550.204-634.857 552.1-637.686 553.304-639.684 555.248-648.094 563.427-661.884 571.467-657.62 583.254-652.701 596.848-635.569 599.885-621.647 604.123-618.299 605.143-614.284 604.418-610.582 604.302-596.281 603.855-589.201 611.812-585.421 623.119-581.331 635.356-586.594 645.661-597.5 651.421-620.054 663.334-625.557 679.807-617.684 701.645-616.545 704.803-616.919 708.426-616.091 717.084M218.729-200.434C233.66-201.715 245.818-203.65 257.979-203.659 349.786-203.726 441.594-203.532 533.398-202.979 540.175-202.938 549.597-207.71 553.651-200.525 557.353-193.968 549.594-188.231 546.029-182.493 477.943-72.896 410.322 36.953 341.348 146.071 324.774 172.291 311.945 201.26 284.795 225.319 288.509 177.178 286.665 132.726 266.22 91.33 252.11 62.763 245.26 35.576 263.098 6.146 268.721-3.132 269.898-14.722 273.032-25.273 287.593-74.304 281.959-119.871 247.015-160.981 237.113-172.631 229.189-185.715 218.729-200.434M-770.879 227.853C-795.774 202.652-808.124 177.97-822.726 154.632-894.136 40.5-965.458-73.678-1037.005-187.735-1044.289-199.347-1044.373-203.498-1027.121-203.374-941.246-202.759-855.36-203.463-769.479-203.421-749.224-203.411-728.66-205.76-706.866-198.762-718.409-182.746-729.319-167.479-740.372-152.301-762.713-121.621-772.957-89.071-765.447-51.39-759.781-22.96-751.563 4.504-741.01 31.509-737.657 40.088-734.162 48.774-738.64 57.296-766.016 109.397-779.318 163.929-770.879 227.853M-353.731-497.238C-349.285-497.238-344.76-497.743-340.404-497.161-290.781-490.527-255.114-471.379-260.76-423.286-263.989-395.782-282.842-381.345-307.342-370.919-345.13-354.839-353.723-337.764-341.057-301.815-339.896-298.522-337.572-294.958-340.316-292.156-352.543-279.671-344.217-267.842-339.312-256.021-332.286-239.093-326.142-220.954-336.085-204.607-352.832-177.075-362.605-147.325-373.995-118.012-375.358-114.503-381.041-110.994-377.174-107.407-366.632-97.627-375.998-93.9-382.419-88.219-391.66-80.041-397.19-88.264-403.393-91.708-417.885-99.753-431.51-109.189-446.278-116.74-499.221-143.81-551.258-130.842-581.01-82.261-591.864-64.537-599.322-45.001-607.809-26.093-611.529-17.805-614.88-9.565-622.94-3.905-634.235 4.024-647.158 5.417-657.732-2.54-667.047-9.55-663.427-20.62-657.775-28.763-646.234-45.387-637.297-63.113-627.847-80.737-614.548-105.538-596.855-128.543-567.736-138.312-550.019-144.258-550.28-153.113-556.701-163.977-580.776-204.71-564.048-240.895-537.424-271.453-513.108-299.362-502.036-328.74-502.139-362.968-502.394-447.599-430.372-494.291-353.731-497.238M-138.361-497.309C-59.786-495.95 17.022-448.317 15.175-359.061 14.516-327.19 25.687-299.295 48.676-273.274 76.25-242.062 93.57-205.911 69.578-164.267 63.478-153.679 60.906-142.473 80.321-138.646 90.132-136.713 97.893-129.31 106.071-123.306 138.885-99.217 146.085-60.442 169.32-30.895 176.152-22.205 181.305-9.272 169.098-1.593 156.272 6.476 142.076 3.086 131.144-7.799 125.488-13.43 123.203-20.701 120.047-27.637 109.754-50.246 102.189-74.152 85.756-93.991 62.175-122.456 32.391-135.816-7.298-127.685-36.991-121.601-61.146-106.706-85.197-90.854-90.549-87.327-97.031-79.649-104.311-85.333-110.325-90.03-119.163-95.96-111.866-106.052-110.547-107.877-110.365-111.663-111.527-113.571-126.469-138.091-127.013-167.791-145.271-191.265-159.869-210.033-159.519-230.909-150.138-251.776-138.017-278.737-146.022-307.27-142.673-334.958-141.09-348.043-153.4-357.032-164.725-363.837-173.305-368.992-182.96-372.639-192.205-376.825-218.365-388.673-230.161-408.865-228.846-434.855-227.513-461.19-211.954-479.58-185.482-489.083-169.698-494.748-153.275-499.159-138.361-497.309M-13.769 713.594C-15.77 717.022-18.058 721.169-20.562 725.2-62.341 792.448-104.078 859.717-146.017 926.88-152.675 937.542-162.011 943.149-176.693 942.877-221.145 942.053-265.636 942.029-310.086 942.859-324.668 943.132-334.333 937.904-340.997 927.242-383.332 859.503-425.341 791.59-467.647 723.836-471.455 717.738-474.472 712.282-470.014 705.363-453.412 679.593-436.977 653.73-420.506 627.887-414.621 618.653-408.275 613.133-395.617 620.124-364.174 637.491-329.917 646.561-293.412 650.693-224.414 658.505-157.827 653.933-96.03 622.068-81.687 614.672-73.439 616.391-65.598 629.156-49.941 654.643-33.57 679.754-17.588 705.07-16.113 707.406-15.31 710.102-13.769 713.594M-620.516 290.076C-621.012 291.92-621.507 293.765-622.002 295.609-625.496 295.956-628.982 296.396-632.485 296.631-640.35 297.159-652.572 293.949-654.009 302.166-655.471 310.521-643.31 311.248-635.572 312.907-574.27 326.053-514.048 326.294-457.925 296.132-443.446 288.351-433.734 289.852-420.674 297.804-388.752 317.238-356.243 335.954-323.032 353.436-302.942 364.01-290.044 372.471-295.561 399.254-304.782 444.025-286.779 486.939-270.787 528.918-260.865 554.962-256.186 581.714-253.851 609.083-252.706 622.497-257.299 628.517-272.367 625.765-305.012 619.804-338.958 615.18-367.109 598.831-392.329 584.185-414.344 584.201-442.171 590.875-495.68 603.707-553.746 585.354-542.255 518.235-541.22 512.188-541.404 505.959-540.305 499.927-535.374 472.86-548.148 454.48-577.636 453.478-608.913 452.415-633.011 442.595-651.568 419.317-663.2 404.726-678.362 404.475-694.799 413.273-710.412 421.63-723.092 432.411-733.453 446.179-741.752 457.208-754.412 464.125-767.549 454.494-788.179 439.372-806.268 421.329-799.788 393.86-788.899 347.699-770.273 305.606-726.182 276.802-713.789 268.704-701.314 264.687-686.856 266.837-662.913 270.398-642.674 282.399-620.516 290.076M133.121 291.437C152.532 280.854 173.209 273.067 194.429 267.578 209.561 263.663 224.268 267.057 238.313 276.292 283 305.675 302.657 348.039 312.434 395.293 316.91 416.931 297.376 449.805 277.318 456.504 253.147 464.577 246.222 443.917 234.229 432.079 231.709 429.592 229.132 427.079 226.213 425.024 185.388 396.287 175.273 404.566 154.184 429.595 140.316 446.053 121.174 451.542 99.709 452.7 60.742 454.801 48.426 468.614 54.125 503.554 66.434 579.02 28.385 597.633-34.187 593.574-42.876 593.01-51.49 589.951-59.887 587.35-77.083 582.021-92.613 583.333-108.3 592.828-140.533 612.339-177.925 618.544-214.816 625.703-229.67 628.585-234.518 622.525-234.016 609.193-232.815 577.294-223.906 547.221-212.484 517.317-196.853 476.395-184.58 434.242-193.032 390.602-196.02 375.18-191.657 367.855-179.166 360.935-138.04 338.149-96.713 315.654-56.144 292.047-45.672 285.953-40.084 291.367-32.596 295.264 25.362 325.422 86.633 326.489 149.552 312.717 156.669 311.159 167.307 310.302 166.768 302.917 166.145 294.372 155.33 297.301 148.415 296.581 143.685 296.088 138.049 298.983 133.121 291.437M-176.149 32.083C-176.149 50.502-178.893 69.343-175.661 87.265-163.383 155.363-135.185 216.497-77.384 263.106-65.922 272.349-68.836 277.586-80.932 284.083-114.715 302.23-147.856 321.399-181.237 340.185-196.345 348.687-208.271 352.293-221.174 334.281-236.863 312.377-245.815 313.402-266.376 332.338-269.525 335.238-272.925 337.961-275.691 341.15-282.87 349.429-289.371 349.681-299.539 343.653-333.728 323.386-368.253 303.479-403.767 285.297-420.066 276.951-419.929 271.646-407.322 260.478-354.716 213.875-324.7 156.37-314.157 90.038-311.098 70.796-313.16 51.648-315.863 31.935-319.207 33.189-321.435 33.423-321.704 34.221-323.892 40.699-326.241 47.194-327.561 53.851-335.557 94.188-362.497 120.26-401.154 137.349-411.222 141.799-419.447 142.996-430.911 134.714-495.325 88.182-566.06 103.806-603.438 170.522-616.355 193.577-628.742 216.892-642.061 239.743-646.907 248.057-654.948 254.36-665.544 247.529-676.414 240.521-669 232.271-663.673 226.546-656.838 219.201-650.244 212.191-647.213 202.7-635.885 167.218-618.897 135.554-580.152 118.705-576.748 117.225-573.583 114.936-574.063 110.965-574.636 106.226-578.604 104.423-583.147 103.521-600.717 100.03-615.851 104.386-626.93 117.285-636.446 128.365-646.205 127.87-657.542 120.763-689.54 100.701-705.397 55.646-693.634 20.994-690.226 10.955-684.765 9.839-678.219 16.282-651.969 42.122-616.743 48.436-579.641 54.662-589.018 61.026-597.654 61.871-606.506 62.412-611.913 62.742-619.606 60.896-618.254 70.162-617.234 77.158-612.143 78.4-605.44 78.328-584.683 78.106-563.92 78.226-543.16 78.242-493.107 78.285-448.242 62.248-410.762 33.509-319.551-36.43-292.89-128.151-312.296-233.657-314.898-247.802-317.433-261.958-319.812-276.136-321.263-284.779-317.296-289.594-307.562-288.293-276.788-284.182-246.137-298.032-215.105-288.26-207.94-286.003-198.84-287.668-190.928-289.019-168.612-292.828-167.231-290.783-170.302-270.544-175.289-237.659-187.671-205.633-184.969-171.852-181.412-127.402-170.002-84.71-148.422-44.728-91.152 61.38 17.376 86.609 122.182 78.24 129.228 77.678 130.958 73.232 131.301 68.602 131.7 63.184 126.621 62.577 121.971 62.429 112.224 62.119 102.427 61.938 92.82 54.229 130.177 48.684 164.441 41.803 190.617 16.566 198.736 8.738 203.589 12.027 206.658 22.598 217.12 58.626 204.612 96.303 172.506 119.342 161.695 127.099 150.825 130.092 139.984 117.63 130.274 106.468 117.352 100.229 100.791 103.009 94.897 103.998 88.285 103.841 86.954 110.549 85.755 116.586 91.918 118.49 96.366 120.517 130.033 135.851 146.086 163.442 156.944 194.588 160.821 205.71 165.339 216.075 174.565 224.778 180.85 230.705 189.839 239.178 178.562 247.132 167.36 255.032 159.119 247.528 153.877 238.382 141.075 216.044 127.841 193.848 116.563 170.849 93.209 123.219 47.189 100.432-7.206 112.087-25.045 115.909-42.472 121.821-56.87 133.343-63.61 138.736-70.881 144.235-80.771 139.475-108.379 126.188-134.559 111.971-149.989 84.766-159.75 67.557-162.054 47.808-176.149 32.083M-243.658 1154.157C-219.658 1116.294-203.718 1088.567-184.834 1058.698-123.311 961.386-62.14 863.878-1.843 765.916 8.546 749.038 15.672 750.44 25.656 764.408 60.611 813.306 98.938 859.927 141.887 902.946 186.292 947.422 224.83 997.629 282.349 1029.85 301.671 1040.673 321.412 1047.531 344.812 1045.044 365.869 1042.806 378.236 1032.45 384.867 1014.97 414.305 937.366 424.201 856.736 428.146 775.19 428.621 765.354 425.419 756.457 421.771 747.368 394.294 678.883 385.474 608.487 397.915 536.164 400.84 519.163 408.437 503.414 416.453 488.006 427.733 466.322 426.337 459.09 401.99 450.347 382.985 443.521 380.503 436.684 391.245 420.618 398.755 409.387 402.048 395.125 404.558 381.789 410.45 350.466 398.639 335.092 364.742 330.21 340.073 326.657 319.683 318.198 305.326 298.431 299.655 290.622 298.87 284.823 304.259 276.249 387.396 143.968 470.083 11.445 552.909-121.003 573.243-153.518 593.749-185.94 614.082-218.456 624.967-235.864 623.314-238.644 600.62-238.662 470.87-238.768 341.119-238.958 211.373-238.321 193.657-238.234 180.97-242.357 169.108-255.011 130.402-296.301 90.579-336.702 50.867-377.179 42.729-385.474 37.141-394.111 34.351-405.336 16.089-478.808-73.357-517.374-128.761-524.608-144.033-526.604-155.35-530.109-166.737-541.005-213.727-585.967-275.004-584.496-324.383-538.2-333.307-529.834-342.192-525.995-354.867-524.979-432.716-518.741-502.432-466.221-523.24-398.627-527.559-384.6-538.544-375.014-548.723-365.799-587.913-330.325-620.463-289.436-658.444-252.984-669.252-242.611-679.66-238.351-694.969-238.407-824.716-238.886-954.466-238.782-1084.215-238.568-1091.819-238.556-1102.461-242.332-1106.461-234.665-1110.073-227.743-1102.454-220.928-1098.399-214.44-1005.995-66.611-913.704 81.279-821.366 229.144-812.869 242.751-805.173 256.907-795.342 269.647-784.857 283.233-787.018 293.299-798.456 305.585-812.071 320.21-829.05 326.338-848.394 329.63-888.44 336.445-898.85 351.305-890.447 388.552-887.397 402.071-883.042 415.233-875.168 426.828-868.235 437.035-870.256 442.086-881.83 447.293-916.41 462.85-916.381 463.284-900.632 494.294-869.264 556.055-877.945 619.734-889.725 683.566-894.308 708.407-898.203 733.266-912.031 755.938-919.133 767.583-915.867 781.592-914.755 794.409-908.607 865.32-899.201 935.426-876.682 1004.214-863.061 1045.819-827.076 1053.64-790.487 1039.664-755.161 1026.171-727.326 1002.709-701.562 976.781-636.735 911.541-571.136 846.952-519.369 771.822-518.181 770.097-516.669 768.559-515.283 766.953-498.663 747.704-497.125 747.552-484.127 768.458-413.844 881.51-343.825 994.702-273.552 1107.759-265.524 1120.674-253.759 1139.28-243.658 1154.157"/>
</g>
</g>
</svg>
