<svg xmlns="http://www.w3.org/2000/svg" xmlns:xlink="http://www.w3.org/1999/xlink" xmlns:inkscape="http://www.inkscape.org/namespaces/inkscape" version="1.1" width="2048" height="1920" viewBox="0 0 2048 1920">
<defs>
<clipPath id="clip_1">
<path transform="matrix(1,0,0,-1,0,1920)" d="M0 1920H2048V0H0Z"/>
</clipPath>
</defs>
<g inkscape:groupmode="layer" inkscape:label="Layer 1">
<g clip-path="url(#clip_1)">
<path transform="matrix(1,0,0,-1,1056.6642,555.4597)" d="M0 0C-.657 3.449 2.844 9.783-3.319 11.819-9.04 13.708-12.187 8.08-15.641 4.54-29.257-9.417-42.605-23.608-56.885-37.016-63.108-42.859-62.742-46.288-56.269-51.383-39.612-64.494-24.519-62.592-13.328-45.447-4.351-31.694-1.784-16.436 0 0M-164.038-6.15C-163.828-22.516-156.044-43.568-146.732-53.445-134.322-66.609-117.388-65.97-101.557-51.577-86.357-37.757-105.836-34.777-111.856-29.25-123.449-18.607-137.219-9.815-150.182-.357-153.554 2.103-156.141 7.55-161.551 4.806-166.237 2.428-163.624-2.709-164.038-6.15M-74.676-990.882C-53.601-952.641-36.434-917.123-20.085-876.192-48.771-904.255-53.452-905.662-81.05-894.398-90.097-890.705-98.211-885.254-106.939-880.9-113.613-877.571-118.664-871.193-129.872-871.729-111.853-910.627-94.259-948.608-74.676-990.882M-37.684-150.235C-40.684-162.984-34.301-173.633-31.406-184.962-29.961-190.619-27.7-200.867-34.528-200.435-55.873-199.085-74.786-215.488-96.609-206.122-101.979-203.818-107.105-200.647-113.718-201.942-135.016-206.11-134.286-195.261-130.696-182.377-127.779-171.907-120.403-162.018-125.466-146.175-138.67-166.053-146.629-183.55-148.297-203.071-148.517-205.647-145.227-208.313-144.583-211.12-143.102-217.573-148.125-221.158-153.203-217.796-158.682-214.166-155.871-206.554-155.004-200.947-153.744-192.804-150.556-184.906-148.437-176.852-146.247-168.521-139.51-161.107-141.404-151.172-143.884-151.937-146.352-151.998-147.275-153.086-164.02-172.831-168.823-196.633-173.238-219.893-175.321-230.861-164.904-236.794-151.445-233.198-144.011-231.212-137.819-225.318-128.327-227.73-139.295-240.664-153.108-250.74-168.825-256.896-183.36-262.589-185.434-270.353-182.455-281.988-181.27-286.618-181.055-291.46-179.65-296.025-173.489-316.046-169.896-337.066-153.656-355.412-152.003-351.861-150.857-350.656-151.104-349.746-155.173-334.761-159.948-319.912-163.512-304.837-171.297-271.914-163.56-259.975-126.842-246.994-126.842-262.638-127.883-278.202-126.609-293.615-124.454-319.697-120.708-345.683-108.054-369.807-106.155-373.426-102.826-378.403-97.714-376.561-91.41-374.29-95.748-369.554-97.414-366.015-109.652-340.01-110.071-312.569-109.382-285.143-109.083-273.226-113.467-260.862-105.429-244.18-101.056-259.943-98.218-271.164-94.768-282.237-92.689-288.909-91.946-297.916-82.04-298.567-69.824-299.37-70.239-288.532-67.732-281.963-63.689-271.366-61.715-260.15-58.866-249.195-53.499-292.052-49.64-334.36-65.37-376.024-44.3-357.491-41.322-333.808-37.559-310.599-33.836-287.633-31.049-264.509-40.264-240.652 11.141-275.632 13.015-280.431-5.097-328.272-6.805-332.783-8.619-337.264-10.457-341.735-12.213-346.007-16.117-350.063-11.929-354.988-7.246-354.949-4.407-352.115-2.564-349.07 12.317-324.474 17.661-297.531 21.578-270.28 22.592-263.224 16.344-261.883 10.792-259.409-6.549-251.682-21.182-240.86-36.522-226.695-25.244-225.87-19.685-230.781-13.097-233.013-1.136-237.066 9.667-232.474 9.444-222.439 8.864-196.386-.248-172.16-20.24-147.783-23.515-164.611-14.814-174.728-11.706-185.96-9.315-194.6-5.152-203-6.413-212.109-7.015-216.456-9.48-220.588-15.754-218.453-19.487-217.183-21.37-215.282-19.218-210.399-8.669-186.461-28.147-169.438-37.684-150.235M105.991-606.484C99.349-608.62 95.05-609.955 90.789-611.382 45.688-626.477 7.406-640.382-41.782-630.41-58.736-626.973-77.041-627.874-93.374-634.519-134.796-651.37-187.365-628.124-229.499-612.206-232.802-610.958-236.962-607.508-240.374-611.341-244.458-615.927-231.203-631.21-227.777-633.648-209.233-646.84-200.956-652.717-170.883-657.034-136.367-656.192-113.949-680.853-109.028-711.126-105.272-734.231-94.728-752.179-76.442-768.624-56.767-786.318-48.98-795.416-33.933-775.765-31.324-772.358-22.819-759.983-20.085-756.781-7.112-741.585-.129-723.577 1.517-699.133 3.425-670.804 20.904-653.089 50.267-643.719 60.365-640.497 70.768-638.011 80.804-634.653 94.069-630.215 103.948-622.85 105.991-606.484M-208.196-403.718C-210.14-382.457-214.664-363.349-221.784-344.588-231.819-318.149-247.284-293.034-250.987-265.051-257.865-213.086-279.201-164.887-296.972-115.641-305.122-93.056-320.274-79.384-345.08-71.708-365.935-65.255-387.108-58.545-404.872-46.442-421.735-34.953-438.616-31.893-459.202-38.658-470.823-42.477-484.293-42.639-496.982-42.994-520.475-43.65-520.594-43.243-511.185-63.226-462.864-165.858-414.298-268.4-366.376-371.178-360.7-383.354-352.128-391.004-338.369-394.613-307.69-402.66-280.361-416.5-254.228-432.457-225.683-449.889-217.715-446.934-210.614-416.265-209.537-411.613-208.802-406.899-208.196-403.718M386.786-12.187C381.159-12.187 377.801-11.799 374.591-12.245 334.683-17.79 294.767-22.982 254.158-19.546 248.571-19.073 243.5-20.741 239.246-23.998 214.156-43.204 185.046-57.033 156.831-72.008 142.738-79.487 134.43-89.484 130.297-103.804 106.862-185.002 82.638-266.021 58.798-347.128 51.684-371.331 53.997-395.409 60.309-419.492 64.213-434.387 70.766-435.858 84.715-426.654 119.427-403.752 157.404-386.046 199.914-377.342 212.475-374.77 218.834-368.817 223.683-358.459 264.042-272.251 305.093-186.295 345.81-100.218 359.457-71.366 372.744-42.381 386.786-12.187M-73.644 160.211C-174.683 160.211-275.722 160.216-376.761 160.209-450.183 160.205-523.605 160.253-597.026 160.071-604.556 160.053-616.983 163.907-609.925 148.979-592.805 112.769-576.217 76.359-559.842 39.88-556.115 31.575-550.773 31.109-542.683 34.198-473.066 60.782-402.591 43.468-332.245 37.582-288.407 33.913-244.561 33.058-204.198 12.929-189.094 5.396-179.803 13.721-179.536 30.614-179.319 44.354-178.8 57.922-175.453 71.448-164.208 116.881-123.454 145.035-73.757 141.26-25.743 137.613 11.369 101.798 13.545 56.934 13.921 49.196 13.344 41.377 14.366 33.717 16.473 17.934 24.053 13.757 40.056 20.366 57.748 27.672 74.789 36.402 94.917 37.057 145.554 38.707 185.675 40.795 231.727 61.115 238.951 64.303 254.449 67.167 260.982 66.598 307.035 62.588 353.97 64.043 398.418 49.778 410.459 45.914 416.399 49.944 420.98 60.411 433.126 88.163 445.551 115.91 460.067 142.724 469.157 159.516 462.354 160.439 445.697 160.402 272.584 160.008 99.47 160.159-73.644 160.211M-73.98-1095.377C-103.78-1031.783-131.639-972.015-159.774-912.348-293.259-629.261-426.876-346.224-560.183-63.071-566.954-48.688-574.721-41.934-595.057-40.343-601.849-39.812-603.676-40.211-611.095-41.341-618.771-42.51-617.597-42.061-623.743-44.04-637.012-48.312-633.36-53.501-630.812-61.699-627.074-73.728-631.691-88.547-615.701-96.651-611.219-98.923-612.748-102.793-615.711-105.793-619.426-109.555-624.132-112.213-629.821-111.065-636.527-109.713-642.165-106.215-646.22-101.221-654.664-90.823-666.431-85.832-680.386-84.297-694.044-82.795-706.727-81.405-714.414-96.127-717.588-102.207-725.857-97.879-728.735-92.823-732.639-85.963-741.943-76.828-730.77-71.079-716.436-63.704-703.813-60.418-723.065-44.813-730.343-38.914-726.614-28.646-711.804-29.648-701.378-30.353-688.187-34.319-695.313-16.368-697.634-10.521-690.933-3.69-683.24-6.658-672.345-10.86-667.087-5.569-660.594-.295-648.657 9.401-633.34 13.636-618.224 14.967-598.24 16.726-599.784 24.047-605.971 36.768-629.09 84.293-651.519 132.083-674.013 179.845-683.385 199.744-683.163 199.936-659.668 199.944-268.355 200.083 122.957 200.087 514.269 200.623 533.421 200.649 535.225 196.889 527.891 182.134 507.045 140.2 487.509 97.749 467.993 55.308 465.23 49.299 456.43 40.498 465.394 36.206 476.109 31.076 484.822 17.804 501.077 25.15 514.613 31.268 530.259 39.067 519.18 13.75 517.177 9.173 520.598 7.299 525.608 7.6 529.592 7.839 541.094 17.395 540.688 13.257 538.777-6.199 561.564-20.248 559.819-38.958 559.373-43.736 559.583-49.462 554.067-51.504 548.766-53.466 546.047-48.485 543.215-45.266 535.711-36.732 527.025-38.725 518.055-42.963 497.049-52.888 477.557-64.082 466.135-83.843 463.201-88.92 459.723-98.911 451.254-95.069 441.508-90.649 445.81-81.491 450.379-74.647 459.866-60.436 458.393-46.253 451.405-31.849 445.344-19.354 438.11-18.543 429.053-29.917 425.231-34.718 422.582-40.343 420.007-45.818 313.08-273.12 206.271-500.466 99.337-727.766 42.282-849.041-14.975-970.242-73.98-1095.377" fill="#231f20"/>
</g>
</g>
</svg>
