<svg xmlns="http://www.w3.org/2000/svg" xmlns:xlink="http://www.w3.org/1999/xlink" xmlns:inkscape="http://www.inkscape.org/namespaces/inkscape" version="1.1" width="1984.25" height="1984.25" viewBox="0 0 1984.25 1984.25">
<defs>
<clipPath id="clip_1">
<path transform="matrix(1,0,0,-1,0,1984.25)" d="M0 1984.252H1984.252V0H0Z"/>
</clipPath>
</defs>
<g inkscape:groupmode="layer" inkscape:label="Layer 1">
<g clip-path="url(#clip_1)">
<path transform="matrix(1,0,0,-1,1639.3809,1129.9063)" d="M0 0C-5.447 16.664-11.78 33.117-21.003 48.031-36.638 73.32-57.188 93.327-86.063 103.171-93.604 105.739-96.638 111.431-97.767 118.639-100.347 135.103-103.912 151.512-105.152 168.087-107.488 199.421-108.573 230.844-109.847 262.245-109.957 265.024-111.939 269.331-107.887 270.981-104.499 272.365-101.388 269.807-99.063 267.748-88.478 258.358-85.422 245.803-86.053 232.394-86.407 224.943-87.747 217.325-89.961 210.194-98.896 181.484-88.953 154.601-82.698 127.33-81.845 123.632-78.335 122.879-75.545 121.219-46.846 104.189-22.753 82.698-10.119 50.844-3.709 34.7 .742 17.959 0 0M-25.82-134.339C-27.569-138.413-27.99-143.374-33.216-147.171-26.65-118.019-23.572-89.895-27.592-61.827-32.396-28.268-44.875 1.894-70.795 25.743-85.92 39.661-102.351 50.8-121.129 58.583-126.831 60.952-128.869 64.75-129.633 70.408-136.265 119.701-142.477 169.017-147.071 218.565-151.245 263.651-153.937 308.693-152.143 353.934-151.633 366.656-150.006 379.333-147.049 391.79-145.854 396.838-143.738 399.02-139.321 394.679-130.607 386.109-123.443 376.432-119.203 364.851-118.683 363.422-118.195 361.374-118.826 360.256-120.188 357.842-122.192 359.813-123.941 360.3-137.915 364.142-138.158 364.142-138.114 349.073-137.959 292.35-134.715 235.838-127.396 179.536-123.565 149.973-119.092 120.609-112.116 91.622-111.031 87.094-108.872 85.013-104.632 82.698-58.727 57.575-22.177 24.237-10.108-29.407-1.805-66.312-11.426-100.768-25.82-134.339M-130.527-7.063C-119.698 10.95-117.219 11.327-100.621 1.317-81.555-10.187-72.853-28.135-68.125-48.729-66.475-55.959-66.597-63.532-64.57-71.039-78.742-41.454-98.916-18.38-130.527-7.063M-157.366-40.712C-154.321-36.438-151.509-32.286-148.486-28.301-146.072-25.111-143.427-24.757-139.152-25.931-116.388-32.187-104.342-48.673-96.259-69.201-92.428-78.923-91.542-89.253-90.601-99.639-115.923-60.266-130.04-48.706-157.366-40.712M-142.396-97.125C-153.668-86.175-166.379-77.106-182.776-73.663-181.836-71.692-181.736-71.371-181.548-71.105-170.21-55.339-163.556-54.862-147.18-66.644-129.951-79.022-120.884-95.918-117.086-116.181-115.956-122.248-115.336-128.404-115.248-134.937-123.143-121.384-131.203-107.998-142.396-97.125M-138.71-172.759C-152.771-142.399-171.307-118.395-203.25-108.042-207.922-106.536-207.988-105.03-205.652-101.299-198.577-90.006-196.894-89.087-184.437-93.748-160.821-102.584-148.719-121.307-142.529-144.48-140.171-153.272-138.223-162.296-138.71-172.759M-189.077-166.149C-198.909-155.42-210.734-147.77-224.242-142.377-227.231-141.182-235.137-142.543-231.461-135.435-228.527-129.777-225.184-121.506-216.37-124.595-206.306-128.116-196.152-131.969-188.235-139.896-170.066-158.1-164.342-181.074-162.958-205.854-169.401-191.084-178.248-177.975-189.077-166.149M-229.689-455.377C-251.479-484.043-276.37-509.808-307.737-528.343-336.791-545.526-368.402-549.656-401.309-545.095-421.095-542.349-440.481-538.296-458.23-527.933-472.447-519.629-483.221-507.814-492.964-495.381-504.313-480.898-516.326-467.611-534.762-456.993-520.866-457.403-512.097-463.437-503.748-469.261-490.252-478.684-477.031-488.715-463.258-497.54-444.501-509.542-424.162-519.54-400.888-520.204-372.897-521.002-347.11-513.417-323.482-498.746-272.384-467.014-255.223-409.538-264.966-357.931-276.636-296.081-338.386-257.096-402.095-268.024-424.35-271.844-446.239-277.026-466.347-287.821-473.765-291.796-476.655-292.461-480.12-281.854-490.661-249.545-510.503-222.827-537.021-201.447-553.739-187.973-570.713-174.729-590.576-165.994-601.549-161.167-612.721-156.804-625.122-151.688-606.344-152.331-589.281-155.896-572.662-160.812-539.567-170.589-510.812-187.917-487.174-213.283-480.885-220.026-475.437-227.577-471.694-235.915-468.273-243.521-463.036-243.09-457.301-240.731-426.376-228.01-394.123-224.146-361.194-227.61-299.898-234.077-259.74-274.822-243.983-332.132-240.44-345.009-237.484-358.063-234.373-371.061-232.336-379.609-230.266-380.329-223.7-374.439-207.723-360.09-195.92-342.54-184.736-324.415-178.182-313.774-174.307-301.928-167.785-289.604-176.145-350.557-192.809-406.881-229.689-455.377M-675.146-223.559C-698.697-228.896-716.102-245.326-729.488-266.087-749.717-297.465-759.062-333.627-775.482-366.633-779.612-374.937-784.794-382.301-791.525-388.744-796.419-393.417-799.387-393.395-802.465-386.962-808.666-373.985-816.527-362.227-825.805-350.988-854.648-316.077-910.208-314.306-941.643-343.293-966.455-366.157-967.452-407.678-948.142-431.926-939.871-442.322-927.049-448.213-912.977-449.198-910.718-449.353-908.016-450.062-906.897-447.416-905.802-444.847-907.928-443.33-909.754-441.835-925.079-429.312-930.637-414.465-923.55-397.215-918.402-384.681-907.042-376.432-894.475-371.793-860.727-359.325-833.534-383.496-830.146-414.31-827.776-435.879-846.809-466.117-866.396-475.118-902.214-491.561-952.382-473.391-971.991-447.36-1000.115-410.025-995.996-351.165-961.871-319.787-943.99-303.345-920.915-298.86-895.139-299.182-873.15-298.307-851.471-305.57-830.677-316.542-820.989-321.658-811.046-326.098-803.805-334.934-799.752-339.872-795.999-338.354-793.519-332.719-780.387-302.758-764-274.656-743.029-249.578-723.244-225.905-701.675-204.204-669.82-196.974-638.508-189.865-610.374-196.232-584.83-215.653-545.922-245.249-521.808-285.585-501.955-329.032-498.522-336.55-496.618-339.684-487.893-332.697-457.179-308.105-422.279-295.693-382.143-299.381-342.615-303.013-314.259-327.593-305.567-367.431-299.5-395.299-303.354-421.252-319.264-444.315-342.626-478.163-400.943-496.853-439.253-466.914-456.116-453.727-466.025-434.151-463.113-411.708-460.246-389.553-446.306-375.535-424.903-369.091-411.107-364.939-386.04-374.494-375.798-387.814-365.49-401.212-364.106-416.568-371.558-429.922-374.58-435.325-379.685-438.348-383.893-442.4-385.42-443.851-388.587-444.56-387.092-447.593-385.996-449.829-383.604-448.656-381.777-448.611-358.326-448.003-339.925-433.066-334.754-408.862-329.882-386.076-332.75-364.463-349.303-346.437-367.218-326.917-390.203-322.267-415.415-324.216-444.08-326.43-463.169-343.27-478.57-365.581-483.553-372.801-488.535-380.196-492.156-388.136-495.101-394.59-497.913-392.974-501.545-389.818-509.307-383.086-514.566-374.561-518.751-365.282-532.049-335.786-542.059-304.762-557.892-276.473-583.036-231.563-617.504-210.482-675.146-223.559M-565.83-361.949C-567.06-381.548-565.963-401.278-565.975-420.942-565.975-427.353-569.528-430.686-575.817-430.442-581.509-430.221-584.819-427.054-584.819-421.075V-303.71C-581.763-309.269-578.906-313.919-576.56-318.823-570.026-332.432-564.834-346.039-565.83-361.949M-600.043-307.983C-601.128-355.162-600.342-402.374-600.364-449.586-600.364-459.595-605.181-463.57-614.227-461.754-622.221-460.16-622.065-454.313-622.055-448.18-621.978-406.548-621.978-364.906-621.955-323.274-621.944-305.338-621.955-287.4-621.955-268.943-602.911-276.605-599.645-290.224-600.043-307.983M-638.651-372.778H-638.719C-638.719-408.52-638.729-444.26-638.719-480.013-638.719-486.866-639.194-493.531-647.798-495.026-656.877-496.599-662.347-491.417-662.335-481.43-662.291-415.174-662.203-348.929-662.169-282.684-662.169-277.446-662.413-272.198-662.657-266.961-663-259.653-657.054-251.914-650.998-251.926-644.343-251.926-638.651-258.624-638.651-266.541-638.641-301.949-638.651-337.369-638.651-372.778M-687.625-461.521C-696.792-463.725-701.907-459.186-701.896-448.578-701.852-407.611-701.73-366.645-701.675-325.666-701.664-318.137-701.486-310.574-702.062-303.067-703.026-290.711-699.527-280.636-688.421-274.258-685.542-272.597-684.845-268.6-680.272-268.024-680.272-328.224-680.239-387.803-680.316-447.383-680.328-453.185-679.686-459.628-687.625-461.521M-717.652-317.937C-717.685-335.266-717.674-352.604-717.674-369.933H-717.763C-717.763-385.977-717.884-402.02-717.696-418.063-717.619-425.216-719.601-430.542-727.728-430.509-736.021-430.476-736.541-424.164-736.608-418.02-736.84-396.097-737.704-374.14-736.907-352.25-736.419-338.687-727.706-327.382-722.778-315.037-722.413-314.118-720.597-313.055-719.667-313.221-717.054-313.697-717.652-315.989-717.652-317.937M-807.193-502.843C-836.556-538.362-876.748-545.914-919.354-546.113-955.206-546.279-985.5-531.398-1012.626-508.656-1047.969-479.016-1075.893-443.585-1095.225-401.932-1109.331-371.571-1116.616-338.842-1122.927-306.035-1123.082-305.227-1122.407-304.264-1121.875-302.658-1117.092-304.861-1117.247-309.655-1115.454-313.077-1104.083-334.878-1090.297-354.908-1072.715-372.202-1069.67-375.192-1066.104-378.812-1061.853-377.628-1057.335-376.388-1058.708-371.084-1058-367.419-1049.884-325.367-1037.029-285.817-1002.373-257.029-971.748-231.586-935.984-224.366-897.586-227.257-875.375-228.917-853.452-232.937-832.803-241.993-829.791-243.312-827.731-244.297-825.085-239.867-802.199-201.547-768.784-176.701-726.609-162.396-707.753-155.996-688.289-154.955-668.923-151.821-685.111-158.022-701.154-164.444-716.146-173.047-732.81-182.624-748.532-193.198-762.561-206.851-777.253-221.134-790.286-236.27-800.671-253.764-806.185-263.03-811.101-272.63-813.714-283.193-815.453-290.246-818.542-292.062-825.55-288.342-850.33-275.21-877.091-268.645-904.872-266.241-960.952-261.381-1017.365-300.389-1028.625-355.151-1039.188-406.548-1021.063-468.874-970.441-498.559-943.17-514.558-914.892-522.474-883.58-519.518-862.742-517.547-844.971-507.77-828.02-496.443-811.544-485.427-796.453-472.361-778.771-463.116-773.301-460.248-768.03-456.816-758.243-457.978-781.915-467.667-793.563-486.379-807.193-502.843M-1106.541-142.022C-1099.21-134.339-1090.275-130.319-1081.174-126.312-1075.306-123.731-1069.271-123.588-1065.64-131.128-1064.156-134.217-1060.967-136.476-1058.531-139.133-1093.719-149.718-1117.413-172.272-1130.789-206.075-1126.725-183.134-1123.802-160.115-1106.541-142.022M-1144.44-128.437C-1136.635-113.844-1127.478-101.311-1110.947-94.789-1102.111-91.301-1095.8-89.12-1090.597-98.819-1089.068-101.653-1085.027-102.296-1084.285-105.872-1118.687-115.76-1140.875-138.535-1154.018-170.987-1155.125-160.746-1150.01-138.834-1144.44-128.437M-1129.77-59.701C-1124.201-58.04-1121.411-58.295-1118.476-62.823-1116.384-66.057-1113.915-69.057-1111.014-72.966-1142.813-83.373-1162.953-105.43-1177.613-133.729-1175.853-100.325-1164.537-70.064-1129.77-59.701M-1198.395-94.49C-1198.75-95.177-1199.757-95.53-1202.204-97.324-1200.433-80.827-1197.167-66.621-1189.427-53.755-1182.208-41.775-1171.412-33.504-1159.321-26.961-1152.689-23.362-1137.698-31.711-1137.432-38.764-1137.365-40.336-1138.284-40.944-1139.668-41.377-1167.371-50.079-1185.43-69.456-1198.395-94.49M-1222.832-62.381C-1228.157-57.365-1226.22-51.983-1225.312-47.688-1220.075-22.931-1206.422-4.439-1182.96 6.09-1176.938 8.791-1165.345 2.026-1163.695-4.806-1162.865-8.237-1165.644-8.824-1167.526-9.345-1189.372-15.29-1203.035-31.5-1216.1-48.264-1219.1-52.105-1220.44-57.232-1222.832-62.381M-1262.631-113.844C-1261.823-120.443-1261.037-127.042-1260.25-133.63-1261.236-133.818-1262.221-134.007-1263.218-134.194-1270.703-116.225-1276.759-97.889-1279.937-78.457-1286.801-36.416-1273.625-.31-1248.038 32.109-1230.909 53.8-1208.654 69.313-1184.339 81.979-1179.888 84.293-1177.231 87.647-1176.246 92.397-1166.524 139.222-1159.35 186.378-1155.784 234.144-1152.795 274.358-1151.134 314.572-1151.178 354.875-1151.201 364.817-1152.684 365.803-1162.018 361.994-1164.365 361.042-1166.635 358.462-1169.137 360.654-1172.304 363.434-1169.17 365.991-1168.008 368.471-1163.668 377.728-1157.556 385.744-1150.569 393.151-1149.03 394.779-1147.901 397.636-1145.332 396.484-1144.081 395.93-1143.605 393.229-1143.129 391.413-1138.39 373.21-1137.194 354.542-1136.928 335.886-1136.175 282.695-1142.166 229.936-1147.048 177.066-1150.204 142.82-1156.67 109.017-1159.062 74.748-1159.814 63.986-1166.702 59.823-1174.74 56.169-1204.956 42.451-1229.204 21.868-1245.015-7.396-1262.996-40.679-1267.137-76.642-1262.631-113.844M-1257.383 84.913C-1245.07 98.853-1231.606 110.346-1215.541 119.137-1209.042 122.702-1206.55 126.942-1204.9 135.136-1202.819 145.389-1200.283 155.963-1197.604 166.304-1194.26 179.237-1194.614 192.036-1198.202 205.101-1202.631 221.245-1206.262 237.742-1199.309 254.284-1198.168 256.985-1197.271 260.042-1195.367 262.134-1191.68 266.198-1187.273 271.855-1181.604 269.708-1176.434 267.748-1180.198 261.525-1180.354 257.318-1181.782 216.373-1182.689 175.373-1189.411 134.815-1190.75 126.755-1192.688 118.761-1193.596 110.655-1194.183 105.341-1198.058 105.751-1201.28 104.865-1218.807 100.049-1232.393 89.286-1245.502 77.173-1269.429 55.073-1281.752 26.884-1290.588-3.366-1287.532 29.187-1279.915 59.413-1257.383 84.913M-907.684 413.159C-945.274 421.751-979.033 438.769-1009.072 462.197-1021.894 472.196-1033.065 484.984-1042.798 498.736-1058.365 520.725-1068.773 544.785-1075.571 570.616-1076.158 572.842-1076.324 575.521-1079.225 575.731-1082.192 575.942-1083.942 573.562-1085.359 571.402-1094.483 557.529-1102.997 543.301-1109.674 528.044-1111.346 524.224-1113.449 520.603-1115.875 517.027-1112.962 539.747-1108.932 562.179-1102.399 584.191-1093.807 613.156-1082.425 640.836-1066.371 666.501-1065.341 668.151-1064.256 669.812-1062.982 671.285-1061.798 672.658-1060.979 675.149-1058.531 674.263-1056.195 673.421-1056.837 670.986-1056.693 669.125-1055.586 655.097-1055.42 641.046-1054.413 626.996-1051.977 592.96-1043.772 560.208-1029.854 529.505-1011.286 488.549-980.827 460.647-936.228 446.896-885.274 431.184-833.301 422.138-780.841 414.753-731.891 407.877-682.908 400.835-633.26 402.02-602.767 402.751-572.629 407.545-542.391 410.922-490.351 416.724-438.566 424.696-387.934 438.093-360.607 445.323-332.916 452.432-309.708 470.712-285.482 489.79-269.693 514.425-258.633 542.493-242.8 582.652-237.872 624.804-237.063 667.608-237.009 670.133-238.16 673.565-234.949 674.451-231.981 675.271-230.774 671.849-229.368 669.867-212.782 646.328-201.811 620.153-193.229 592.827-184.493 564.98-179.799 536.292-175.447 507.472-184.316 529.262-192.809 551.163-207.634 569.83-209.405 572.067-210.546 575.333-214.321 574.558-217.178 573.971-217.112 571.281-217.677 569.122-237.097 495.48-285.184 448.689-355.071 422.238-374.891 414.731-395.518 410.225-416.223 405.962-416.278 404.965-416.334 403.98-416.389 402.983-409.701 402.673-403.014 402.109-396.337 402.098-358.979 402.031-321.633 402.186-284.287 402.086-268.077 402.053-252.1 403.005-237.65 411.354-219.005 422.127-206.76 438.06-200.359 458.577-199.596 461.024-198.721 463.449-197.58 466.826-188.136 458.953-184.991 448.225-182.589 438.271-176.211 411.786-173.842 384.726-174.982 357.388-175.314 349.527-179.189 348.708-185.667 348.719-293.554 348.885-401.431 348.896-509.307 348.907-643.436 348.918-777.553 348.918-911.681 348.885-976.276 348.874-1040.882 348.951-1105.478 348.508-1114.756 348.442-1118.288 350.966-1118.222 360.433-1118.056 387.682-1116.173 414.687-1109.707 441.249-1109.552 441.88-1109.519 442.566-1109.242 443.153-1106.031 450.118-1105.178 461.301-1098.236 462.463-1091.803 463.537-1091.493 452.166-1088.559 446.386-1073.18 416.237-1048.434 401.776-1015.128 401.688-971.548 401.577-927.957 401.942-884.377 402.197-881.642 402.219-878.332 400.99-875.973 405.131-886.071 410.047-897.154 410.745-907.684 413.159M-1025.249 675.326C-1019.28 722.726-997.59 760.67-950.124 779.094-921.546 790.189-892.437 796.046-861.778 789.879-812.109 779.903-777.652 734.252-787.628 683.087-792.246 659.371-803.007 639.817-824.188 626.885-839.778 617.363-855.357 616.477-871.024 626.486-874.899 628.956-878.387 631.879-878.52 637.215-874.102 639.363-871.068 635.555-867.392 634.913-843.653 630.783-822.716 642.707-814.855 665.737-806.417 690.461-807.448 714.51-822.129 736.843-830.267 749.233-842.502 756.707-856.065 761.888-875.386 769.262-895.903 769.894-915.169 764.833-954.796 754.426-993.527 730.145-1000.447 677.795-1004.167 649.639-1001.787 621.227-988.588 594.377-980.461 577.835-971.892 562.002-959.734 548.14-943.425 529.549-921.978 518.909-899.524 510.517-867.636 498.603-834.397 491.528-800.749 486.855-789.189 485.25-777.409 484.929-765.838 482.902-763.546 482.504-760.324 480.854-758.652 483.811-757.047 486.667-758.52 489.546-760.235 492.059-769.769 505.966-778.073 520.78-790.518 532.528-792.633 534.521-794.15 537.134-796.22 539.182-800.727 543.611-804.248 545.781-812.142 542.825-838.106 533.082-864.668 531.72-891.463 542.05-907.595 548.272-923.019 556.565-933.538 569.232-945.806 583.992-955.338 601.286-959.38 621.25-964.44 646.217-962.015 669.956-949.282 691.414-937.512 711.255-921.38 727.62-896.446 730.277-884.455 731.55-878.575 727.454-868.555 713.835-888.684 725.007-911.083 712.982-923.451 694.68-936.04 676.079-935.796 657.4-932.607 637.503-929.375 617.44-919.797 600.688-903.919 587.767-891.917 577.99-878.066 574.602-862.753 575.056-845.137 575.565-829.481 581.821-814.821 590.723-810.393 593.414-808.289 592.783-804.868 589.671-760.435 549.225-728.591 500.12-703.945 444.349-727.074 445.888-749.119 446.929-771.075 448.988-784.705 450.272-798.313 451.945-811.898 454.082-858.059 461.345-903.2 471.553-944.831 493.82-977.007 511.037-996.051 539.061-1009.781 571.69-1023.787 604.962-1029.71 639.95-1025.249 675.326M-782.779 624.958C-771.839 640.748-763.635 657.976-760.081 677.12-758.077 687.97-757.545 698.843-758.818 709.838-750.492 687.173-749.872 664.032-754.655 640.648-755.419 636.938-756.87 633.982-752.585 631.436-740.693 624.361-730.308 615.503-721.229 604.984-719.235 602.67-716.966 597.544-712.869 600.113-709.713 602.095-711.009 606.855-711.551 610.255-714.031 626.055-716.368 641.91-719.656 657.544-724.096 678.637-728.569 699.773-736.209 720.013-747.913 750.993-759.671 781.984-780.487 808.425-783.343 812.056-782.059 814.991-778.073 815.766-765.473 818.257-752.607 817.017-739.863 817.748-736.342 817.947-735.489 814.193-734.548 811.447-727.772 791.717-719.833 772.285-714.585 752.145-697.534 686.63-684.845 620.364-681.158 552.48-679.962 530.624-680.405 508.645-677.504 486.877-677.172 484.364-677.083 481.707-679.796 477.887-684.524 491.849-689.839 504.006-696.205 515.676-711.23 543.212-728.458 569.1-751.821 590.502-761.874 599.714-771.075 609.823-782.69 617.274-785.879 619.312-785.348 621.25-782.779 624.958M-697.921 821.158C-664.561 822.498-631.212 822.885-597.851 821.556-587.786 821.158-586.591 819.364-589.956 810.706-601.926 779.903-610.64 748.092-619.387 716.271-630.437 676.134-636.914 635.156-642.882 594.078-644.808 580.836-645.428 567.405-646.89 551.428-650.267 601.153-657.597 647.667-668.403 693.562-675.113 722.095-682.675 750.495-691.5 778.441-695.165 790.067-698.431 801.937-702.926 813.341-704.808 818.113-704.775 820.892-697.921 821.158M-560.682 807.295C-558.312 815.245-554.227 819.22-545.181 817.825-536.478 816.485-527.531 816.751-518.729 815.976-512.662 815.444-510.68 813.318-514.687 807.129-547.096 757.227-566.417 702.32-576.105 643.836-578.187 631.303-579.97 618.714-581.796 606.136-582.162 603.645-583.269 600.5-580.146 599.138-577.079 597.798-575.629 600.666-573.979 602.648-565.376 612.957-555.909 622.29-544.283 629.221-538.095 632.908-536.755 637.636-538.902 644.966-544.361 663.623-542.225 682.291-536.301 700.67-534.806 690.428-533.865 680.065-531.694 669.978-528.163 653.613-520.755 638.843-510.713 625.501-507.668 621.449-507.823 619.434-512.163 616.289-534.795 599.913-553.783 579.618-570.846 557.739-589.979 533.204-604.051 505.645-615.312 473.602-615.81 478.739-616.43 481.386-616.265 483.977-613.175 533.314-611.227 582.773-604.782 631.812-598.692 678.193-586.535 723.302-572.994 768.011-569.019 781.143-564.602 794.142-560.682 807.295M-491.403 752.51C-481.316 768.509-466.048 779.006-448.631 785.084-405.239 800.22-363.586 792.16-324.833 770.425-288.229 749.886-272.927 715.031-268.133 674.839-267.014 665.417-265.852 655.927-266.704 650.524-269.527 599.991-283.401 557.828-313.074 521.489-329.351 501.559-351.639 490.199-374.735 481.031-432.953 457.935-494.426 450.682-556.297 446.043-565.421 445.356-574.6 445.323-583.734 444.825-588.927 444.548-589.17 446.542-587.166 450.66-571.887 482.139-554.936 512.476-533.776 540.6-520.279 558.537-504.479 573.938-488.768 589.661-485.059 593.37-482.723 593.082-478.747 590.967-467.543 584.999-456.415 578.788-443.593 576.695-408.384 570.971-383.437 583.305-368.203 615.514-358.592 635.82-354.816 657.267-361.969 679.478-368.923 701.046-389.761 720.821-413.864 717.522-415.735 717.268-418.05 716.503-418.979 718.906-419.844 721.087-418.083 722.615-416.533 723.745-406.955 730.731-396.791 733.422-385.198 728.661-353.775 715.739-331.277 681.006-331.587 645.42-332.063 591.21-362.423 551.727-415.304 537.632-435.942 532.141-456.736 533.668-476.644 541.397-485.236 544.729-491.038 544.575-498.323 537.543-512.629 523.737-522.748 507.173-533.444 490.863-536.998 485.438-536.577 481.928-529.07 482.858-471.196 490.066-413.134 497.064-360.983 526.029-338.463 538.54-323.205 558.592-311.236 581.157-295.104 611.55-288.073 643.726-293.388 677.928-298.282 709.495-314.47 733.499-342.615 749.543-367.328 763.616-393.192 770.314-421.604 765.697-485.978 755.245-496.685 688.69-470.2 651.72-459.139 636.286-441.412 629.365-420.508 638.046-418.825 638.743-416.976 640.925-415.237 639.042-413.244 636.895-415.082 634.613-416.555 633.019-424.903 623.94-437.758 616.92-452.495 620.519-478.57 626.885-492.698 644.269-501.689 668.317-512.949 698.478-507.979 726.225-491.403 752.51M-212.666 295.481C-218.467 292.497-224.496 288.947-230.754 288.091-241.257 286.654-242.319 280.539-243.097 271.809-245.264 247.505-245.652 222.661-257.646 200.38-271.477 174.689-296.503 163.743-324.521 171.112-350.354 177.906-373.847 190.078-396.954 203.153-427.958 220.698-457.336 240.798-487.097 260.283-499.613 268.477-511.307 277.929-523.387 286.792-537.821 297.382-552.121 308.167-566.843 318.342-569.618 320.261-570.45 323.611-575.127 325.725H-174.475C-186.066 312.333-198.488 302.775-212.666 295.481M-1117.73 325.558H-717.449C-737.21 311.002-755.888 297.505-774.282 283.63-797.149 266.379-821.607 251.447-844.91 234.892-865.534 220.24-887.596 208.105-909.599 196.124-930.304 184.849-951.827 174.078-975.783 170.488-1012.219 165.029-1033.588 187.502-1041.854 215.344-1047.653 234.875-1048.745 255.268-1050.117 275.503-1050.534 281.658-1052.185 285.06-1058.911 287.333-1089.179 297.565-1105.287 310.872-1117.73 325.558M-229.335 111.486C-229.756 113.712-229.28 116.27-232.425 116.778-234.717 117.144-236.223 115.815-237.186 114.021-251.259 88.058-274.244 74.538-302.29 69.987-331.056 65.326-358.991 69.4-385.442 82.654-413.742 96.826-438.124 116.568-462.737 135.944-490.329 157.657-516.725 180.776-546.388 199.986-564.28 211.579-581.829 223.005-601.903 230.545-641.53 245.426-678.689 239.359-715.205 219.971-750.027 201.48-780.542 177.089-810.769 152.309-836.623 131.128-862.809 110.479-891.031 92.563-924.514 71.316-960.554 62.657-999.805 72.113-1022.89 77.683-1040.927 90.715-1054.136 110.435-1055.94 113.136-1057.479 116.457-1061.587 115.671-1066.227 114.797-1063.735 110.866-1064.245 108.386-1069.903 80.938-1067.29 53.811-1060.979 26.784-1058.31 15.347-1055.963 3.864-1051.91-7.196-1051.102-9.411-1050.216-12.168-1052.109-14.626-1093.996 44.466-1114.269 137.483-1085.691 230.479-1083.222 205.356-1077.221 182.126-1063.049 162.241-1049.275 142.931-1031.925 127.851-1007.998 121.263-971.87 111.309-938.077 119.07-905.48 134.007-883.037 144.293-862.354 157.657-842.557 172.771-811.268 196.631-782.889 224.146-750.249 246.201-717.043 268.633-680.926 283.835-640.125 281.765-608.868 280.182-580.003 269.442-553.44 252.512-519.449 230.844-489.698 203.772-458.33 178.771-429.72 155.974-399.26 136.199-364.449 124.983-329.317 113.656-293.742 111.221-260.681 132.833-233.742 150.438-219.083 176.469-211.51 206.961-209.571 214.723-208.907 222.806-207.391 232.461-181.969 141.37-192.155 57.232-244.549-20.683-242.999-6.654-236.909 6.223-233.908 19.985-227.287 50.334-223.533 80.605-229.335 111.486M-1024.285-185.625C-996.693-168.064-965.237-161.676-932.441-162.694-908.116-163.437-884.167-166.836-860.915-174.011-855.157-175.782-851.515-174.619-848.182-170.39-833.312-151.522-816.106-134.98-795.667-122.491-767.333-105.175-738.656-88.655-704.908-82.941-678.002-78.391-651.308-74.15-623.948-76.896-583.424-80.96-545.867-93.593-510.624-114.109-487.728-127.419-467.642-144.204-450.104-163.414-442.553-171.674-438.257-174.874-426.907-171.918-382.187-160.303-337.001-156.218-292.68-173.656-248.978-190.84-223.866-224.267-212.805-269.153-224.696-255.27-236.721-241.628-251.425-230.601-302.844-192.003-359.633-182.126-421.416-198.446-423.31-198.945-425.523-198.867-427.096-199.853-443.682-210.35-453.038-200.728-463.866-188.913-488.247-162.307-516.88-140.616-549.466-124.883-578.441-110.91-609.377-104.776-641.631-105.729-654.076-106.094-666.587-105.65-678.944-106.835-715.449-110.323-747.768-124.308-778.217-144.746-802.564-161.101-822.694-181.484-842.491-202.521-848.049-208.423-853.962-204.381-858.8-202.665-904.75-186.345-950.921-186.168-996.128-203.429-1026.212-214.922-1052.541-233.368-1072.206-259.676-1074.974-263.385-1080.709-264.725-1080.731-270.671-1081.34-259.609-1074.83-251.095-1071.176-241.684-1061.897-217.778-1045.256-198.989-1024.285-185.625M-420.696-83.64C-388.575-101.454-357.961-118.749-320.869-125.127-354.352-137.771-385.431-135.579-416.511-125.714-418.936-124.938-420.674-123.709-420.685-120.975-420.707-108.983-420.696-96.992-420.696-83.64M-872.651-119.259C-872.574-123.333-874.423-124.772-878.11-125.901-908.913-135.347-939.638-137.417-972.589-124.584-935.021-120.033-905.281-101.133-872.707-83.429-872.707-97.136-872.84-108.197-872.651-119.259M-841.793-79.033C-844.594-68.293-838.682-63.964-831.075-59.457-821.332-53.688-811.943-47.312-802.288-41.377-800.24-40.114-797.937-37.745-795.279-39.583-793.131-41.066-794.072-43.757-794.083-45.994-794.094-52.194-794.083-58.405-794.083-64.606-787.839-85.81-799.033-95.774-817.479-101.388-822.107-102.805-826.403-105.296-830.92-107.146-841.306-111.408-841.306-111.375-841.339-99.527-841.373-92.663-840.11-85.466-841.793-79.033M-724.207-60.775C-734.825-63.897-744.868-68.293-754.921-72.711-761.021-75.391-763.28-74.261-763.026-67.33-762.561-54.574-761.819-41.742-762.738-29.054-763.402-19.853-759.926-14.261-752.585-10.042-739.198-2.347-725.724 5.204-712.448 13.109-708.263 15.601-706.69 15.513-706.79 10.164-706.967-.266-706.846-10.707-706.846-21.137H-706.58V-36.881C-706.546-55.184-706.436-55.56-724.207-60.775M-622.764-8.116H-623.118C-623.118-19.243-623.417-30.382-622.984-41.487-622.785-46.835-624.413-48.208-629.64-47.998-640.723-47.555-651.85-47.71-662.956-47.876-668.192-47.953-670.739-46.16-670.684-40.535-670.451-17.66-670.318 5.215-670.506 28.09-670.551 33.472-666.709 34.136-663.553 34.468-652.525 35.631-641.442 35.818-630.381 34.279-624.967 33.538-622.486 31.047-622.664 25.245-623.007 14.128-622.764 3.001-622.764-8.116M-530.2-76.387C-548.004-67.972-564.701-61.849-581.763-56.689-586.07-55.383-587.521-51.862-587.498-47.455-587.398-28.488-587.377-9.521-587.421 9.444-587.433 15.656-585.639 15.978-580.49 12.833-566.162 4.097-551.569-4.219-536.865-12.29-531.816-15.058-530.111-18.745-530.156-24.159-530.288-40.79-530.2-57.432-530.2-76.387M-454.532-9.511C-475.149-.11-493.451 13.974-511.81 27.625-546.753 53.623-581.575 80.074-623.926 93.638-646.602 100.901-667.396 95.564-688.388 86.353-711.186 76.343-732.134 63.422-752.353 49.249-772.028 35.453-790.429 19.742-810.691 6.92-823.646-1.284-837.531-8.382-851.836-14.726-869.418-22.532-887.687-26.451-905.957-31.013-923.362-35.364-940.845-35.275-957.963-30.039-958.361-28.223-957.376-27.924-956.446-28.001-911.094-31.688-871.057-16.719-833.7 7.264-801.646 27.836-773.013 52.97-742.73 75.9-725.226 89.164-707.731 102.352-687.414 111.275-659.811 123.389-632.739 124.108-605.081 110.733-576.338 96.826-551.514 77.517-527.188 57.354-496.784 32.176-465.15 8.658-429.908-9.289-404.608-22.166-377.448-29.12-348.683-28.112-344.497-27.968-340.29-28.09-336.094-28.09-350.997-36.084-366.453-34.435-382.065-32.508-407.664-29.33-431.536-20.007-454.532-9.511M-451.433-112.593C-466.689-105.739-481.062-99.284-495.434-92.84-498.512-91.456-499.597-88.898-499.597-85.71V-36.173C-483.93-45.982-469.491-55.095-454.965-64.053-451.986-65.891-451.433-68.471-451.433-71.526-451.443-84.879-451.433-98.222-451.433-112.593M-289.479 1.705C-289.79 9.013-292.945 9.844-298.969 7.54-332.506-5.237-364.76 1.916-396.426 14.538-435.488 30.105-467.398 56.656-499.763 82.543-525.428 103.082-549.399 125.869-578.641 141.702-618.379 163.204-658.504 168.342-700.833 148.246-730.695 134.062-756.338 114.332-781.195 93.161-809.917 68.703-839.291 45.219-872.508 26.861-903.377 9.799-935.542-1.029-971.382 2.248-978.657 2.912-985.488 5.115-992.309 7.407-1001.986 10.674-1003.436 10.098-1004.278-.542-1005.95-21.646-1004.643-42.429-995.818-62.148-994.767-64.495-993.892-66.932-992.94-69.323-1023.444-32.962-1036.077 9.577-1035.568 57.708-1011.829 34.534-983.672 27.304-952.493 30.028-929.629 32.021-909.378 41.554-889.492 52.35-850.784 73.343-817.601 101.854-783.731 129.4-755.154 152.652-726.266 175.45-693.581 192.756-665.115 207.825-636.194 210.383-606.244 195.668-581.885 183.699-560.039 168.22-538.427 152.088-511.986 132.357-487.284 110.489-461.132 90.46-435.488 70.817-408.683 52.648-378.6 40.27-346.756 27.171-314.536 23.916-282.648 40.192-276.016 43.569-270.192 48.552-264.146 52.991-259.884 56.125-256.495 56.469-256.839 50.091-258.942 9.921-267.712-28.189-292.27-61.229-292.945-62.137-294.273-62.568-295.226-63.178-297.772-60.73-296.488-58.55-295.769-56.49-289.103-37.579-288.649-18.036-289.479 1.705M-647.255 1001.782C-1124.422 1001.782-1511.255 614.959-1511.255 137.782-1511.255-339.395-1124.422-726.218-647.255-726.218-170.078-726.218 216.745-339.395 216.745 137.782 216.745 614.959-170.078 1001.782-647.255 1001.782"/>
</g>
</g>
</svg>
