<svg xmlns="http://www.w3.org/2000/svg" xmlns:xlink="http://www.w3.org/1999/xlink" xmlns:inkscape="http://www.inkscape.org/namespaces/inkscape" version="1.1" width="1984.25" height="1984.25" viewBox="0 0 1984.25 1984.25">
<defs>
<clipPath id="clip_1">
<path transform="matrix(1,0,0,-1,0,1984.25)" d="M0 1984.252H1984.252V0H0Z"/>
</clipPath>
</defs>
<g inkscape:groupmode="layer" inkscape:label="Layer 1">
<g clip-path="url(#clip_1)">
<path transform="matrix(1,0,0,-1,1622.9072,1138.7617)" d="M0 0C-.986-2.653-1.786-6.601-5.413-6.494-11.333-6.307-11.587-.48-13.253 3.386-34.373 52.426-43.04 102.706-28.826 155.519-24.227 172.599-26.479 190.199-32.387 206.386-46.521 245.159-56.307 285.252-69.066 324.426-75.054 342.812-90.213 350.505-103.307 361.065-105.866 363.132-108.106 361.186-109.813 359.319-113.066 355.759-112.04 351.892-110.16 348.079-100.64 328.732-88.493 311.039-79.213 291.333-64.733 260.572-62.066 237.906-66.707 206.373-67.146 203.386-68.48 199.826-70.613 198.346-86.267 187.453-80.787 176.226-72.667 163.666-61.267 146.026-55.96 126.68-56.747 105.159-57.627 80.933-56.026 56.666-59.974 32.506-64.094 7.373-77.28-1.467-100.906 6.426-128.054 15.493-130.667 21.52-123.8 49.68-107.946 114.786-105.72 179.772-128.333 244.013-132.507 255.879-136.627 267.999-146.547 276.759-155.84 284.959-164.667 285.719-170.974 273.719-182.453 251.879-193.667 229.612-184.347 203.906-181.48 196.026-177.094 188.439-172.187 181.599-159.187 163.413-151.693 142.52-142.613 122.466-134.254 103.986-139.134 84.426-142.693 65.826-147.12 42.64-151.014 19.413-154.293-3.96-155.214-10.507-156.894-17.773-162.733-20.813-168.84-23.987-174.733-19.921-180.627-16.334-188.32-11.641-184.014-7.16-182.32-2.228-171.92 28.04-164.28 58.879-166.613 91.187-168.28 114.159-173.733 136.173-188.934 154.426-190.733 156.586-192.36 161.573-196.946 158.692-200.667 156.359-197.014 153.346-197.12 150.692-197.854 133.359-188.533 118.853-183.92 103.066-177.36 80.652-185.4 60.293-191.387 39.853-193.693 31.96-202.96 27.6-211.414 30.866-220.773 34.479-223.761 43.586-221.787 52.973-218.147 70.279-213.733 87.399-215.214 105.333-215.587 109.853-215.907 114.239-217.027 118.76-220.267 131.893-225.134 138.373-240.32 131.919-251.374 127.213-258.267 136.506-262.414 145.492-267.36 156.199-263.227 165.626-254.454 172.373-226.773 193.639-225.294 197.959-236.761 230.626-245.307 254.959-240.28 270.572-217.721 283.893-193.493 298.212-177 318.105-168.747 345.079-164.907 357.639-165.787 367.039-177.026 377.065-194.134 392.319-204.987 413.759-223.96 427.799-246.681 444.612-267.24 464.706-297.947 475.706-287.827 460.305-275.187 452.305-264.573 442.452-254.721 433.279-243.587 425.492-232.894 417.239-224.134 410.492-226.4 400.759-226.733 392.159-227.934 361.386-239.187 349.866-266.067 340.572-278.094 336.412-286.867 334.119-295.4 344.572-299.547 349.652-305.4 355.319-310.827 358.505-318 362.719-321.214 373.226-328.867 373.545-336.613 373.879-337.4 362.652-343.014 357.719-355.494 346.759-375.681 348.172-396.214 359.466-439.44 383.239-479.895 411.012-519.548 443.186-512.974 423.545-495.4 395.239-471.4 379.239-451.308 365.852-428.348 356.599-407.4 344.572-378.867 328.186-368.107 327.559-375.947 295.666-377.587 288.999-379.654 282.453-381.934 274.346-355.16 279.599-331.48 289.986-307.427 299.172-302.36 301.105-303.32 305.132-304.653 309.373-306.254 314.426-308.16 315.319-306.067 323.239-290.24 313.279-274.947 318.346-258.587 311.065-251.067 307.719-248.054 303.186-249.987 295.972-255.681 274.732-254.561 257.119-254.48 235.386-254.387 212.546-271.347 193.573-293.827 191.786-313.067 190.266-331.707 191.866-349.813 200.506-357.947 204.399-359.561 210.199-360.454 216.879-361.32 223.399-359.587 228.799-350.454 227.732-342.733 226.839-334.841 227.546-327.04 229.506-355.534 241.679-384.041 246.546-412.827 228.346-403.081 228.346-397.308 228.826-387.614 228.159-382.254 227.799-373.254 232.506-373.693 220.546-374.027 211.612-372.147 204.893-382.881 203.786-402.268 201.772-419.814 195.066-434.027 181.066-443.734 171.519-449.574 160.586-448.894 146.266-448.2 131.906-452.24 118.346-459.787 106.119-463.348 100.359-467.428 98.213-471.694 106.213-477.201 116.532-483.294 126.692-482.308 138.879-480.614 159.786-487.36 177.759-501.174 192.786-510.761 203.226-512.28 213.626-505.521 225.692-505.027 226.572-504.48 227.439-504.107 228.386-501.054 236.306-499.32 241.279-499.667 244.399-498.4 258.373-503.641 283.879-503.4 288.572-502.721 301.519-504.428 317.306-511.388 327.946-517.174 336.799-525.428 344.279-529.974 353.639-540.681 375.732-560.095 392.399-580.534 407.385-593.135 416.612-590.095 435.292-595.268 449.199-601.668 466.385-591.614 476.945-583.987 489.092-580.761 494.239-577.348 499.292-574.521 504.652-568.428 516.186-562.228 520.212-553.921 506.385-552.308 503.706-550.774 498.958-546.361 500.025-540.601 501.412-543.935 506.918-543.187 510.239-542.067 515.239-535.881 515.199-527.4 513.905-513.414 511.772-504.734 508.572-506.334 496.759-506.774 493.532-505.707 490.532-503.041 488.706-483.734 475.479-466.134 458.666-440.121 460.052-418.107 461.226-395.814 464.385-376.44 448.532-373.733 446.319-364.414 440.452-361.467 450.199-358.32 460.585-359.907 470.959-370.841 476.359-381.561 481.639-392.894 485.679-403.974 490.225-461.854 513.972-520.374 535.838-580.975 551.665-583.388 552.305-585.935 553.145-587.921 554.585-591.881 557.465-600.748 556.065-599.201 563.532-597.694 570.865-593.361 577.612-583.734 577.492-538.881 576.932-494.134 575.905-452.254 556.532-446.388 553.825-440.294 551.585-434.228 549.305-433.574 549.052-432.494 549.958-429.334 551.292-452.2 567.865-475.44 580.345-501.374 587.838-522.468 593.932-544.32 597.559-564.281 607.345-571.588 610.932-577.268 614.852-573.708 624.678-570.401 633.838-568.534 643.318-555.454 643.012-529.094 642.398-503.935 635.132-478.494 629.572-461.867 625.932-445.48 621.225-428.894 617.358-417.587 614.732-406.374 613.199-402.534 598.999-400.694 592.212-391.854 591.665-386.907 592.052-363.827 593.878-350 578.905-334.813 565.772-315.134 548.759-297.094 529.772-275.214 513.905-270.934 520.438-273.054 525.119-276.294 529.692-305.96 571.559-340.24 606.372-387.254 631.225-423.574 650.438-461.574 651.932-498.895 661.119-512.921 664.572-527.561 666.385-539.987 674.785-542.294 676.345-545.935 676.078-546.041 680.412-546.187 686.132-527.001 712.665-521.428 712.705-479.054 713.092-436.36 717.039-394.494 708.718-360.12 701.892-329.921 684.398-301.307 664.358-294.147 659.345-286.334 655.278-275.573 648.825-296.214 682.145-347.521 715.118-387.894 725.211-418.787 732.932-449.854 740.438-479.654 752.052-484.254 753.852-488.921 755.838-493.014 758.558-499.107 762.625-506.588 766.118-502.241 776.265-498.268 785.571-491.241 787.545-482.508 785.878-458.801 781.332-435.254 776.278-412.107 769.145-377.574 758.505-344.894 743.198-311.347 730.065-306.107 728.025-301.294 723.651-292.014 726.385-320.107 742.865-346.067 758.612-372.521 773.452-399.161 788.412-426.881 801.372-452.574 818.105-462.174 824.372-462.654 830.518-456.147 838.905-453.681 842.078-451.681 845.665-449.734 849.198-445.32 857.158-440.574 860.091-430.48 856.478-351.374 828.105-269.707 806.758-194.254 768.332-163.84 752.838-130.92 743.452-98.92 731.838-66.4 720.052-65.72 713.318-75.16 680.132-81.813 656.692-96.413 644.065-114.347 631.692-121.066 627.052-127.094 626.852-134.12 628.718-152.307 633.572-170.48 638.398-189.307 643.398-185.054 624.705-180.96 620.652-163.707 615.639-160.467 614.692-157.613 612.212-154.733 610.199-143.2 602.172-136.946 606.625-123.4 609.905-115.68 611.772-113.094 613.372-107.4 616.572-89.24 626.785-81.96 633.238-76.613 613.878-70.653 592.332-70.6 571.679-79.587 550.692-86.96 533.505-99.36 531.479-115.026 524.092-122.054 520.772-125.32 521.945-125.88 530.065-126.106 533.492-126.254 531.665-125.787 534.812-122.413 557.585-140.547 565.105-159.561 571.358-158.934 558.185-149.054 548.905-145.96 535.639-179.867 534.572-188.187 573.759-216.867 579.159-220.32 574.625-216.027 570.398-214.521 566.878-211.12 558.958-212.107 553.745-217.494 546.585-233.787 524.932-233.187 482.519-209.254 464.932-204.907 461.746-200.28 455.452-195.4 458.266-188.907 461.999-188.96 470.479-190.094 477.425-190.693 481.105-193.88 484.425-196.12 487.745-198.373 491.079-201.174 494.065-203.254 497.492-210.2 508.918-207.334 515.319-202.76 525.532-198.84 534.279-191.72 523.839-185.44 524.852-171.413 527.092-161.667 517.505-149.134 512.492-141.8 509.572-139 504.892-141.333 495.745-145.894 477.945-151.36 469.052-148.214 449.572-145.307 431.545-140.347 415.465-121.48 407.385-110.986 402.905-107.307 405.532-108.827 416.385-111.906 438.452-113.453 460.945-119.04 482.372-122.467 495.492-113.96 496.905-105.587 504.079-89.827 517.599-87.946 517.199-70.653 505.199-51.906 492.186-44.946 483.279-55.387 458.679-59.547 448.852-51.56 437.706-49.387 427.119-40.12 382.092-28.427 337.706-15.413 293.612-12.467 283.626-11.279 272.586-11.786 262.159-13.547 226.493-8.453 192.186 1.84 157.946 8.88 134.572 14 109.906 15.04 85.6 16.267 56.532 10.227 27.613 0 0M4.867-356.373C-24.866-350.186-54.56-343.84-84.174-337.16-91.787-335.453-100.453-331.96-101.894-343.16-102.88-350.894-112.467-362.319-94.854-366.427-83.8-369-73.72-375.853-60.613-382.013-76.64-387.453-89.066-383.773-101.28-380.319-117.08-375.84-132.92-371.307-148.267-365.52-156.68-362.347-163.653-360.973-171.28-369.72-166.293-355.053-173.827-352.934-184.373-350.227-208.494-344.026-232.28-336.347-255.854-328.253-260.707-326.6-270.054-325.146-268.44-317.72-267.04-311.253-258.854-314.507-253.627-314.146-225.44-312.213-197.16-320.493-169.066-313.92-154.96-310.613-141.16-305.96-127.24-301.84-120.547-299.866-121.907-296.533-125.026-291.773-132.293-280.693-140.747-271.547-152.561-264.653-170.134-254.387-170.333-250-156.4-234.946-135.907-212.787-115.04-191.04-98.493-165.521-91.533-154.787-85.094-143.533-82.213-131.44-76.32-106.707-57.787-91.334-43.08-73.027-40.16-69.387-38.106-70.147-34.653-73.334-18.547-88.134-9.946-107.347-2.786-127.24 .106-135.267-7.773-135.974-12.8-137.066-23.026-139.28-33.64-139.76-45.146-145.134-33.014-156.026-22.267-165.707-11.493-175.36-7.253-179.174-2.946-182.827-7-189.44-14.373-201.44-10.267-212.854-4.173-223.587 .867-232.493 1.721-238.92-6.479-247.493-30.213-272.28-23.227-293.894-2.894-317.986 4.347-326.573 9.907-335.6 13.12-346.507 15.707-355.293 12.813-358.026 4.867-356.373M-130.693-455.319C-162.733-449.533-184.573-417.2-219.547-419.026-216.44-430.6-205.733-438.307-200.4-448.96-202.347-452.199-205.28-451.986-207.12-450.84-235.147-433.186-265.4-419.479-292.987-400.906-307.147-391.373-295.693-381.88-294.974-373.066-294.307-364.934-286.707-362.253-277.347-364.76-244.841-373.467-211.454-377.853-178.467-384.2-165.467-386.706-153.24-392.413-141.946-401.653-154.026-410.2-168.267-400.934-180.054-409.92-162.747-423.826-145.601-437.6-128.467-451.359-129.214-452.68-129.946-454-130.693-455.319M-213.507-487.227C-216.04-492.56-223.2-496.08-230.334-492.76-237.987-489.199-246.054-486.026-252.801-481.106-267.4-470.427-281.267-458.746-295.44-447.479-297.534-445.813-299.067-443.706-297.907-441.053-297.454-440.026-295.534-439.64-294.521-439.093-288.227-442.08-282.174-444.573-276.467-447.72-258.533-457.64-240.773-467.853-222.88-477.826-218.627-480.199-211.254-482.493-213.507-487.227M-263.801-542.319C-279.667-551.093-296.96-553.466-314.601-551.613-331.707-553.253-348.12-551.399-363.454-544.093-381.28-535.626-383.721-524.946-369.534-511.746-362.934-505.6-358.08-498.906-355.627-491-352.854-482.08-350.747-485.146-345.96-489.199-339.867-494.359-332.681-498.186-326.134-502.826-323.627-504.6-321.414-507.227-318.187-505.013-314.507-502.493-317.268-499.76-318.427-497.133-319.653-494.373-320.4-491.319-322.04-488.853-325.094-484.253-327.027-478.387-323.547-474.813-317.96-469.066-315.733-478.12-311.653-479.8-296.894-485.88-282.627-493.133-268.16-499.92-267.254-500.347-266.147-500.359-265.307-500.853-254.32-507.199-240.573-513.92-240.36-526.933-240.2-537.093-255.387-537.68-263.801-542.319M-399.961 86.692C-367.28 91.866-344.907 112.066-326.36 137.732-321.4 144.6-316.574 151.573-312 158.706-308.641 163.919-304.534 171.373-298.801 169.266-292.187 166.839-287.414 159.999-287.693 151.013-288.627 120.359-300.987 95.853-326.107 78.346-336.787 70.893-348.24 64.56-359.347 57.72-362.667 55.68-367.307 54.573-366.48 49.213-365.653 43.893-360.867 46.506-358 45.239-340.693 37.586-326.733 45.319-313.427 55.146-300.653 64.572-290.2 76.386-282.627 90.306-277.934 98.933-273.307 100.119-265.054 94.973-249.88 85.506-246.107 75.159-248.947 56.333-253.08 28.893-268.107 7.119-282.88-14.974-284-16.653-285.894-17.921-286.653-19.721-290.534-28.894-299.801-37.773-294.294-48-291.014-54.08-261.761-47.36-255.2-40.12-253.2-37.921-251.414-35.334-250.214-32.614-247.813-27.187-243.4-24.827-238.12-25.44-231.907-26.174-228.107-31.307-227.507-36.841-226.681-44.547-225.227-52.414-232.294-59.467-237.827-64.987-240.627-73.054-238.04-83.04-226.613-74.2-221.027-61.44-211.533-52.2-208.24-48.987-205.88-44.547-200.453-46.36-172-55.88-146-44.92-119.653-36.813-111.467-34.294-103.16-32.067-95.134-29.08-90.533-27.374-87.6-28.641-84.4-31.813-80.533-35.667-80.16-39.947-82.56-44.267-100.64-76.841-120.094-108.573-140.293-139.854-142.254-142.88-144.601-144.293-147.787-142.693-152.227-140.48-150.373-137.254-149.134-133.707-145.547-123.374-141.867-112.88-148.773-101.414-159.653-114.32-170.2-126.32-180.094-138.854-183.427-143.066-187.014-148.066-191.88-145.521-195.946-143.387-193.787-137.48-192.254-133.094-190.627-128.454-188.026-122.721-193.427-119.587-198.72-116.521-201.347-122.787-204.2-125.707-211.627-133.28-218.4-141.493-225.427-149.453-228.653-153.12-233.494-157.4-230.267-162.094-226.693-167.293-219.667-165.986-215-163.44-205.974-158.507-199.96-156.787-204.28-170.413-206.613-177.72-202.4-177.4-198.453-176.521-193.094-175.333-187.907-173.174-182.827-171.014-177.68-168.84-173.307-165.707-168.533-172.507-164.134-178.787-166.934-183.227-170.601-187.347-178.68-196.413-186.707-205.68-195.787-213.68-212.014-227.986-229.24-241.146-245.573-255.333-254.054-262.72-260.254-264.28-267.094-253.253-271.653-245.906-276.533-238.906-278.294-230.373-279.067-226.601-279.96-220.187-274.707-220.573-260.627-221.573-264.147-211.96-263.641-204.48-263.467-201.947-263.494-199.4-263.24-196.88-260.187-166.84-260.187-166.84-288.92-164.813-311.48-163.227-318.36-151.026-307.4-132.761-299.48-144.413-292.894-146.134-280.174-143.573-273.627-142.267-270.334-138.106-273.733-133.027-286.014-114.681-296.2-94.254-316.841-83.2-319.813-81.613-323.627-79.681-326.521-80.307-331.787-81.467-338.347-83.147-341.294-86.987-345-91.841-337.134-94.801-335.228-99.214-331.414-108.067-317.627-112.147-323.801-125.92-328.907-137.32-334.32-139.28-343.894-131.587-348.16-128.16-352.32-124.601-356.613-121.227-367.347-101.12-382.014-76.854-383.907-74.841-394.268-63.867-404.641-52.907-414.907-41.867-417.761-38.801-420.667-36.054-425.228-36.854-442.414-39.867-444.587-28.48-445.574-15.733-447.641 11.079-443.761 36.786-431.308 60.826-424.547 73.853-415.468 84.226-399.961 86.692M-393.28 149.119C-384.761 150.346-380.041 153.866-379.294 163.613-378.721 171.013-393.094 181.559-379.121 184.759-359.934 189.146-342.747 173.999-342.107 156.759-342.067 155.746-342.107 154.732-342.107 153.719-342.681 132.626-357.387 122.026-373.08 112.479-388.32 103.213-403.947 104.626-418.28 114.159-435.268 125.466-433.614 157.053-415.641 167.826-408.214 172.279-401.707 171.866-402.48 160.266-402.907 153.692-402.627 147.772-393.28 149.119M-925.282 194.133C-925.228 191.399-926.842 187.399-922.868 186.493-920.948 186.053-918.001 187.613-916.308 189.159-909.802 195.106-904.775 203.039-893.628 196.252-881.708 188.999-878.242 179.479-879.308 165.919-880.295 153.399-886.335 146.893-897.268 142.933-935.695 128.999-960.935 157.493-962.975 182.106-964.175 196.692-960.775 208.026-945.375 213.319-938.868 215.559-933.335 220.426-925.361 221.586-925.361 212.106-925.481 203.119-925.282 194.133M-412.294-461.066C-417.294-464.573-422.4-467.026-428.961-466.76-435.987-466.479-444.067-466.893-448.894-472.173-457.921-482.08-467.641-480.64-477.667-475.84-486.468-471.626-493.468-471.84-500.548-479.373-513.854-493.546-529.867-496.933-548.441-490.746-567.801-484.307-582.428-478.319-602.067-472.76-611.841-469.986-621.468-459.88-624.027-450.12-626.961-438.893-626.041-427.96-619.281-418.12-613.348-409.467-607.055-401-600.468-392.84-588.321-377.8-574.494-364.387-558.588-353.359-550.895-348.026-542.854-343.227-534.614-338.773-515.614-328.52-506.787-308.573-492.895-293.453-489.561-289.813-488.854-281.986-493.694-278.373-498.214-275.026-502.187-280.227-504.734-283.747-522.641-308.587-548.881-320.36-576.081-331.28-594.508-338.68-607.055-352.866-614.214-371.533-618.921-383.8-626.907-388.213-638.868-381.653-645.321-378.106-649.868-377.866-656.388-382.813-665.081-389.413-675.748-387.227-678.228-376.373-685.201-345.934-709.294-331.84-731.921-316.36-752.254-302.467-773.428-289.813-794.201-276.573-797.788-274.28-801.428-268.613-805.628-273.094-809.548-277.28-805.602-282.2-803.295-286.8-792.334-308.653-773.401-322.934-755.068-337.427-734.055-354.04-720.948-371.333-700.734-388.76-691.561-396.666-683.401-406.093-673.174-416.093-663.908-425.16-659.601-433.439-659.734-444.333-659.921-459.319-662.614-469.973-678.895-475.533-695.814-481.307-707.694-486.666-725.188-490.213-755.081-496.267-785.135-496.387-814.108-485.066-825.975-480.439-843.521-481.12-840.935-460.146-840.801-459.04-844.415-457.08-846.562-456.12-861.162-449.56-875.441-442.479-891.228-438.6-917.708-432.106-934.468-413.227-944.762-389.359-949.575-378.2-941.575-370.267-936.322-360.399-934.162-356.347-930.068-360.76-927.282-362.026-906.322-371.547-884.335-379.093-861.615-384.493-849.082-387.467-836.975-387.093-824.122-386.88-825.815-379.693-831.988-380.267-836.162-378.72-869.521-366.373-903.028-354.467-936.442-342.293-942.455-340.106-946.842-337.56-948.615-347.64-950.055-355.76-954.068-352.706-954.068-346.093-954.068-307.427-954.068-296.76-937.428-295.707-926.348-295-915.975-293.613-904.735-295.427-894.001-297.174-882.815-296.48-871.628-297.96-871.575-290.974-875.828-290.667-880.441-289.76-898.481-286.227-916.708-283.707-934.188-277.347-942.095-274.467-943.762-270.387-942.988-262.72-940.788-241.026-939.295-219.28-937.428-197.561-936.828-190.601-934.028-185.64-927.095-182.254-902.948-170.48-878.095-161.48-851.148-158.96-844.921-158.387-840.361-159.72-837.241-165.521-835.562-168.64-833.082-171.573-828.788-170.36-824.162-169.066-823.015-165.4-822.535-161.04-819.628-134.88-816.868-108.693-813.508-82.587-809.775-53.547-805.335-24.614-801.521 4.399-800.975 8.546-798.868 14.88-803.988 16.573-808.921 18.213-811.122 12.04-813.455 8.439-831.361-19.094-839.535-49.867-843.508-82.134-845.281-96.653-847.162-111.094-846.348-125.773-846.188-128.707-846.108-132.08-849.562-133.613-873.682-144.373-896.722-158.2-924.815-156.707-933.722-156.227-931.908-151.08-931.481-146.64-929.268-123.587-926.828-100.547-924.095-77.547-921.042-51.934-917.628-26.36-914.322-.761-913.295 7.133-918.388 12.573-921.935 18.573-960.322 83.373-998.749 148.133-1037.175 212.893-1038.922 215.826-1042.722 218.399-1040.429 222.252-1037.642 226.919-1032.909 224.919-1029.402 223.586-1007.402 215.239-999.508 208.946-991.895 192.346-980.255 166.946-967.775 142.053-940.508 129.426-937.775 128.159-935.148 126.226-932.282 125.76-896.175 119.786-883.428 94.72-879.841 61.893-879.242 56.426-877.841 51.066-876.975 45.626-873.881 26.307-869.001 24.013-851.202 33.653-825.042 47.826-818.775 81.213-838.001 110.279-853.082 133.093-865.748 155.799-869.481 184.186-873.948 218.146-918.975 242.519-952.708 232.732-960.815 230.386-968.735 226.212-977.175 226.106-994.068 225.906-1011.402 235.239-1028.002 251.586-1031.362 254.893-1028.175 258.039-1026.082 260.972-1013.428 278.586-1000.028 295.732-988.602 314.119-981.642 325.319-976.015 322.026-968.842 315.972-940.575 292.132-915.428 265.026-888.975 239.279-864.521 215.479-839.441 192.306-815.495 167.999-806.668 159.026-802.682 162.346-797.508 170.706-750.135 247.292-702.668 323.812-655.108 400.279-651.455 406.172-648.148 412.559-640.948 417.585-640.188 404.385-649.761 395.892-652.254 382.746-637.708 389.399-623.748 387.359-609.921 387.319-587.614 387.266-571.668 376.585-561.214 357.199-558.588 352.359-557.561 344.172-553.854 342.786-527.627 332.946-527.414 308.786-521.548 287.466-520.406 283.349-518.546 266.622-515.593 253.375-515.162 251.442-516.619 249.612-518.599 249.612H-518.641C-532.814 249.599-547.001 250.026-561.147 249.453-573.654 248.946-582.187 252.279-586.348 265.652-589.015 274.252-593.027 283.132-602.761 290.906-600.987 269.839-595.454 239.479-590.107 221.546-589.015 217.893-588.081 213.493-582.548 213.399-577.508 213.319-576.001 216.893-573.761 220.399-563.881 235.853-543.654 232.839-534.548 216.986-521.707 194.639-519.094 181.413-511.348 157.199-504.627 136.186-492.228 117.666-486.734 96.173-484.36 86.866-481.094 82.253-488.081 73.919-500.28 59.386-494.48 43.293-487.268 28.746-481.36 16.84-479.774 7.573-490.134-3.32-505.761-19.747-517.28-20.174-530.414-1.641-532.374 1.133-534.134 2.866-537.294 3.333-543.36-12.761-543.241-12.747-536.841-53.347-531.987-84.16-521.694-113.467-512.254-143-510.081-149.827-507.921-159.293-498.241-158.214-487.187-157-490.241-145.627-490.001-139.601-489.241-119.854-493.801-100.507-499.32-81.533-502.014-72.307-502.641-69.907-504.987-60.601-506.574-54.334-513.374-48.467-506.454-41.16-497.001-31.2-486.935-22.374-473.161-19.254-470.508-18.653-468.561-20.32-467.308-22.96-465.787-26.134-462.907-28.907-462.187-32.188-457.641-53.027-446.28-54.507-426.468-57-419.694-57.854-403.121-81.947-389.894-104.16-396.161-104.48-404.121-100.787-408.214-106.667-411.601-111.507-405.107-116.48-403.28-121.507-397.587-137.227-387.214-147.88-372.294-156.014-356.947-164.373-348.147-180.026-339.307-194.8-333.04-205.267-324.587-214.106-312.747-215.387-300.733-216.693-299.867-225.28-297.601-232.84-294.881-241.906-310.561-271.307-318.96-275.96-324.187-278.866-327.414-276.613-330.801-273.066-337.414-266.146-344.12-259.347-350.813-252.521-352.653-250.64-354.867-249.134-357.534-250.293-362.04-252.253-358.601-255.066-358.2-257.72-353.947-286.054-353.921-286.227-380.28-296.773-397.001-303.467-414.067-309.267-430.721-316.106-438.041-319.106-448.814-325.24-447.001-331.347-443.961-341.573-434.041-333.227-427.468-332-394.334-325.8-363.107-312.587-330.454-304.493-325.707-303.32-321.067-299.56-316.881-305.373-312.733-311.146-317.374-314.573-320.307-318.56-334.813-338.253-355.587-349.533-377.187-358.52-402.348-368.986-428.48-377.093-456.694-387.106-444.468-393.84-434.041-400.106-423.134-405.399-413.094-410.293-414.268-413.626-422.667-419.507-429.001-423.946-442.667-425.72-440.508-432.493-438.24-439.64-424.574-435.64-416.414-438.933-411.014-441.106-401.388-437.626-400.228-443.427-398.761-450.746-405.987-456.626-412.294-461.066M-445.787-532.546C-448.28-551.613-456.388-567.253-471.694-579.812-491.001-595.626-512.174-606.999-536.107-613.546-543.294-615.506-549.508-620.746-551.961-626.812-556.214-637.293-564.161-640.546-573.494-643.066-590.774-647.706-607.268-654.64-624.748-658.986-641.748-663.226-654.508-660.373-666.628-648.106-684.681-629.84-710.095-624.266-731.641-611.946-758.748-596.453-785.348-581.093-803.668-554.386-817.388-534.386-840.228-531.6-861.708-526.959-864.401-526.386-867.668-528.013-869.935-524.64-865.722-517.479-857.682-519.706-852.281-519.413-819.841-517.666-785.548-509.573-756.108-527.506-737.761-538.68-726.161-536.479-707.441-528.187-653.134-504.133-597.294-501.666-543.601-532.466-535.921-536.88-529.935-533.279-523.614-531.506-512.548-528.413-508.201-532.279-506.014-543.239-504.027-553.199-504.254-563.279-502.268-573.079-501.614-576.333-501.254-581.826-495.468-581.466-490.121-581.133-489.388-576.187-488.907-572.626-487.308-560.652-486.454-548.56-485.374-536.506-484.721-529.133-480.867-523.439-474.067-521.866-465.374-519.866-456.147-518.64-447.547-523.013-443.161-525.239-445.388-529.493-445.787-532.546M-716.214-642.119C-717.228-646.572-721.535-645.6-724.828-646.546-733.148-648.933-741.508-650.106-749.575-649.319-768.562-650.732-782.881-646.173-786.775-625.066-787.588-620.72-791.055-617.253-796.042-615.959-818.868-610.039-830.108-592.933-837.695-572.279-839.241-568.039-842.228-564.133-842.881-559.8-843.708-554.346-851.548-548.893-847.748-545.413-842.255-540.399-836.281-547.92-830.788-550.293-821.642-554.239-817.068-563.026-812.375-571.227-802.815-587.92-788.814-599.199-771.681-607.479-755.041-615.52-738.961-624.732-722.535-633.226-718.681-635.213-715.081-637.187-716.214-642.119M-964.255-259.747C-965.001-263.36-963.762-267.48-969.762-268.88-1009.988-278.293-1049.695-290.24-1094.028-295.28-1042.429-209.214-992.215-125.467-942.001-41.721-942.055-91.134-948.695-138.72-955.388-186.333-958.828-210.72-959.242-235.521-964.255-259.747M-963.362-401.479C-965.481-404.173-968.935-401.24-971.335-399.6-1007.762-374.746-1045.749-352.213-1080.789-325.293-1082.375-324.066-1084.108-323.04-1089.255-319.573-1050.895-310.413-1017.295-302.68-983.868-294.227-975.575-292.134-974.895-297.894-974.602-302.187-972.548-332.28-966.229-361.733-961.975-391.479-961.508-394.773-961.548-399.173-963.362-401.479M-1008.068-403.106C-1009.028-406.439-1012.095-405.64-1014.362-405.547-1032.442-404.786-1050.628-407.439-1068.642-402.986-1074.695-401.493-1078.722-399.52-1080.588-393.319-1085.068-378.427-1089.882-363.613-1095.442-346-1063.815-360.28-1039.122-381.026-1011.602-397.08-1009.588-398.253-1007.188-400.066-1008.068-403.106M-1110.029-410.906C-1130.055-416.653-1149.909-422.96-1174.615-430.493-1161.829-408.453-1151.229-390.093-1140.535-371.786-1138.762-368.76-1136.909-365.693-1134.549-363.133-1129.975-358.173-1129.188-347.133-1122.229-348.12-1115.962-349-1115.762-359.56-1112.922-365.786-1108.628-375.24-1105.416-385.227-1102.122-395.12-1099.602-402.746-1101.109-408.347-1110.029-410.906M-1198.749-428.92C-1201.109-432.706-1203.469-437.479-1209.082-433.267-1238.202-411.399-1270.122-393.307-1300.229-366.626-1247.229-355.093-1197.282-344.227-1144.936-332.826-1152.496-358.666-1168.269-375.626-1178.469-395.6-1184.362-407.146-1191.855-417.894-1198.749-428.92M-1317.563-324.479C-1314.989-227.601-1312.149-130.721-1309.496-33.841-1309.162-21.254-1310.202-8.601-1306.829 6.986-1282.802-27.36-1265.936-62.653-1247.255-96.867-1212.149-161.174-1177.362-225.653-1142.229-289.946-1132.562-307.627-1132.295-307.026-1152.175-311.427-1199.335-321.854-1246.456-332.547-1293.509-343.439-1315.096-348.439-1318.149-346.613-1317.563-324.479M-1226.016 439.945C-1203.829 421.159-1192.029 397.346-1176.815 376.399-1146.189 334.239-1117.069 290.986-1086.295 248.933-1080.095 240.439-1080.562 236.506-1088.229 231.079-1125.469 204.706-1162.615 178.199-1199.789 151.746-1221.069 136.6-1242.762 121.999-1263.416 106.053-1273.842 97.999-1285.656 93.013-1300.429 87.373-1275.762 204.212-1251.109 321.052-1226.016 439.945M-1152.642 700.025C-1147.909 696.985-1145.976 693.825-1148.815 687.519-1172.122 635.745-1190.789 581.905-1218.215 531.985-1218.642 531.212-1219.762 530.825-1222.789 528.679-1226.402 604.079-1229.949 677.665-1233.576 753.425-1202.655 737.892-1178.949 716.945-1152.642 700.025M-1228.576 789.918C-1210.149 829.171-1191.496 868.318-1172.909 907.478-1172.295 908.771-1171.549 909.984-1169.362 913.945-1159.949 862.198-1155.669 814.332-1150.509 766.598-1149.322 755.638-1148.629 744.612-1147.175 733.638-1146.149 725.905-1148.549 720.918-1157.175 727.305-1179.602 743.905-1203.389 758.612-1224.735 776.745-1229.456 780.771-1230.922 784.905-1228.576 789.918M-1137.082 931.145C-1109.202 919.118-1084.895 901.198-1058.802 886.278-1025.735 867.385-993.789 846.531-960.922 827.278-950.548 821.198-951.335 817.985-960.828 812.372-1008.708 784.078-1055.802 754.372-1104.442 727.478-1125.522 715.825-1123.922 713.012-1126.749 739.612-1133.015 798.478-1139.936 857.265-1146.575 916.091-1146.855 918.611-1146.922 921.145-1147.215 925.531-1147.829 931.691-1148.389 936.024-1137.082 931.145M-1082.068 280.572C-1094.068 293.906-1105.602 311.105-1111.655 319.652-1145.095 366.906-1178.029 414.519-1211.175 461.985-1214.655 466.959-1218.375 471.305-1215.375 478.385-1191.056 535.732-1167.002 593.185-1142.855 650.612-1141.349 650.398-1139.842 650.185-1138.335 649.972-1119.642 532.385-1098.935 401.452-1082.068 280.572M-1063.215 251.732C-1063.295 251.919-1063.375 252.066-1063.442 252.172-1068.735 301.906-1072.122 325.159-1076.188 360.306-1083.722 425.599-1093.442 490.639-1102.202 555.799-1103.708 566.972-1107.789 577.892-1104.029 590.238-1094.215 565.785-1083.882 541.532-1074.708 516.852-1052.935 458.226-1031.882 399.332-1010.042 340.732-1007.508 333.959-1006.269 328.226-1010.455 322.386-1028.122 297.746-1042.468 275.266-1063.215 251.732M-953.028-19.507C-966.882-42.761-980.602-66.107-994.508-89.334-1016.895-126.721-1038.962-164.32-1061.949-201.333-1080.135-230.6-1095.642-261.64-1117.708-291.174-1157.349-218.054-1195.602-147.427-1233.922-76.854-1252.735-42.214-1271.629-7.641-1290.576 26.92-1292.536 30.52-1295.789 34.613-1293.509 38.053-1291.109 41.666-1285.962 39.64-1282.083 39.119-1201.096 28.399-1120.122 17.533-1039.135 6.8-1013.188 3.359-987.269-.681-961.202-2.653-946.028-3.813-947.135-9.614-953.028-19.507M-1282.202 61.6C-1283.162 70.866-1275.736 71.946-1272.069 74.586-1208.695 120.199-1144.829 165.106-1081.455 210.719-1071.522 217.879-1066.255 218.106-1059.682 206.826-1033.442 161.799-1006.349 117.279-979.749 72.466-969.562 55.319-957.682 39.119-948.068 16.826-1061.402 32.133-1172.175 44.466-1282.202 61.6M-929.135 806.518C-913.255 815.918-897.348 825.292-881.455 834.665-879.748 833.892-878.055 833.118-876.348 832.345-913.548 681.251-950.735 530.159-987.695 380.025-995.948 379.159-995.508 383.972-996.642 386.799-1023.988 455.239-1051.122 523.745-1078.469 592.172-1089.895 620.785-1101.335 649.398-1113.509 677.692-1118.269 688.771-1117.309 695.572-1106.069 702.118-1046.869 736.532-988.082 771.651-929.135 806.518M-666.588 421.999C-681.241 389.186-701.055 364.065-717.841 337.172-745.854 292.279-775.708 248.559-804.575 204.199-809.201 197.079-812.108 192.799-820.495 201.199-862.162 242.893-904.348 284.066-946.575 325.199-953.788 332.212-954.695 335.746-943.615 338.986-863.948 362.266-784.375 385.866-704.814 409.479-692.948 412.999-681.281 417.172-666.588 421.999M-864.708 793.038C-861.961 804.211-858.401 815.185-854.508 828.758-828.668 793.598-810.935 757.398-790.828 722.678-759.681 668.865-729.428 614.545-698.761 560.452-680.214 527.759-661.721 495.025-642.935 462.479-638.774 455.279-638.321 450.545-647.561 447.799-746.921 418.186-846.188 388.279-945.615 358.906-973.362 350.706-973.229 351.306-966.468 378.746-932.468 516.812-898.682 654.945-864.708 793.038M-796.241 830.452C-743.774 837.785-691.055 843.398-638.561 850.571-624.961 852.438-621.668 846.091-621.881 835.118-622.334 812.305-623.628 789.518-623.841 766.718-624.388 707.825-624.254 648.932-624.947 590.052-625.334 557.172-626.814 524.292-627.867 491.412-627.921 489.545-627.494 487.199-631.908 485.905-637.228 495.265-642.774 505.039-648.321 514.799-702.121 609.532-755.814 704.332-809.815 798.958-825.015 825.598-825.588 826.345-796.241 830.452M-193.8 843.278C-182.4 849.518-170.521 855.185-160.106 862.838-146.587 872.771-133.707 873.131-119.24 865.771-93.787 852.825-67.986 840.452-49.84 817.145-35.293 798.452-37.934 789.665-59.373 781.425-96.4 767.198-133.467 766.705-170.854 779.745-199.12 789.598-228.521 796.731-253.294 814.812-254.841 815.945-256.227 817.305-259.747 820.345-235.974 828.198-213.667 832.398-193.8 843.278M86.187-226.507C89.681-217.813 91.36-208.533 84.44-200.76 66.414-180.521 54.561-157.854 55.507-129.96 55.854-120.027 43.867-115.107 44.427-108.134 45.054-100.427 56.601-96.693 58.987-86.601 63.693-66.747 60.547-48.374 52.467-30.534 49.307-23.587 46.106-18.28 54.894-13.054 61.48-9.134 60.96-3.014 59.16 4.267 42.387 72.093 32.066 140.919 27.707 210.706 24.641 259.853 14.747 307.412-2.906 353.772-16.12 388.479-28.293 424.505-16.587 462.999-15.16 467.679-15.227 473.065-15.706 478.025-18.053 502.719-21.12 527.319-25.88 551.705-28.826 566.838-28.133 581.599-21.24 596.238-12.12 615.599-8.146 636.519-8.786 657.999-10.093 701.572-3.68 745.118-8.507 788.718-9.12 794.225-9.479 800.131-8.173 805.398-2.187 829.465-6 852.145-10.16 876.545-17.106 917.398-57.747 939.225-96.28 930.691-138.493 921.345-175.146 900.011-211.107 876.545-256.747 846.745-306.2 834.278-357.587 860.332-380.654 872.025-404.601 876.185-429.094 880.411-473.388 888.064-517.707 895.651-562.041 903.051-584.654 906.825-607.027 914.598-630.014 912.865-657.948 910.758-685.614 905.358-713.468 901.825-756.294 896.398-799.281 892.051-841.975 885.651-852.042 884.145-863.055 885.771-872.588 879.318-887.135 869.465-902.455 860.745-917.148 851.091-925.042 845.905-931.455 846.452-938.895 852.318-954.642 864.745-970.935 876.478-987.095 888.372-1040.588 927.785-1094.255 966.958-1147.522 1006.691-1156.255 1013.211-1160.429 1011.544-1164.562 1002.491-1194.615 936.745-1224.722 871.038-1255.029 805.412-1262.749 788.705-1267.136 772.012-1265.589 752.985-1262.402 713.745-1261.176 674.345-1259.295 634.999-1257.656 600.559-1256.349 566.119-1254.695 531.679-1253.189 500.425-1250.735 469.399-1258.656 438.279-1266.322 408.146-1271.295 377.332-1277.416 346.812-1293.269 267.692-1309.189 188.586-1324.896 109.453-1330.589 80.839-1337.656 52.333-1340.669 23.413-1343.842-7.254-1342.256-38.347-1343.549-69.294-1347.123-154.4-1348.042-239.64-1350.002-324.826-1350.149-324.813-1350.296-324.813-1350.442-324.813-1350.442-339.026-1349.669-353.307-1350.696-367.453-1351.482-378.213-1346.802-383.746-1338.309-389.12-1303.122-411.373-1268.149-434.013-1233.456-457.066-1211.122-471.906-1189.882-480.693-1160.615-474.08-1104.269-461.373-1046.615-454.493-989.588-444.706-978.642-442.826-967.548-441.706-960.602-450.906-953.615-460.173-964.495-467.227-967.455-475.293-968.602-478.439-972.415-481.08-970.082-484.973-967.428-489.399-962.735-488.146-959.108-487.52-948.162-485.626-937.162-484.253-926.122-485.146-896.242-487.546-894.988-489.733-906.095-516.84-906.855-518.692-906.775-521.053-907.908-522.573-916.975-534.746-914.455-542.493-899.562-546.173-875.695-552.079-861.628-566.52-854.868-591.026-850.108-608.293-837.148-621.346-819.268-627.879-814.708-629.56-808.201-630.453-807.468-636.133-805.215-653.52-792.334-660.399-778.735-665.8-740.148-681.133-701.561-696.572-662.401-710.346-631.774-721.105-601.588-720.412-572.801-701.786-525.428-671.146-475.201-645.026-433.334-605.986-408.388-582.72-376.974-570.76-342.974-576.706-303.881-583.546-270.521-572.426-238.427-552.533-234.92-550.359-231.987-548.786-227.32-549.786-216.547-552.079-205.134-551.999-194.707-555.227-181-559.479-174.747-557.026-174.986-541.52-175.094-534.386-173.573-527.6-162.066-532.079-151.907-536.026-141.373-533.053-133.84-523.6-113.627-498.199-112.72-497.853-82.894-512.373-76.627-515.426-73.054-514.84-68.76-509.533-55.547-493.227-55.4-493.399-38.04-505.16-28.08-511.906-18.453-519.199-5.373-518.853 3.507-518.613 8-515.253 6.521-505.906 5.106-496.906 3.987-487.853 2.16-478.946 .187-469.319 3.054-465.453 13.12-467.507 19.04-468.693 25.12-469.146 31.16-469.573 41.507-470.307 45.693-466.84 40.294-456.239 34.561-444.986 29.653-433.293 23.813-422.093 20.467-415.666 20.027-412.826 28.733-411.106 41-408.666 48.947-400.347 51.613-387.626 55.267-370.146 63.294-354.76 71.533-338.934 86.947-309.293 95.267-277.507 83.467-243.894 81.187-237.4 83.894-232.213 86.187-226.507"/>
</g>
</g>
</svg>
