<svg xmlns="http://www.w3.org/2000/svg" xmlns:xlink="http://www.w3.org/1999/xlink" xmlns:inkscape="http://www.inkscape.org/namespaces/inkscape" version="1.1" width="2048" height="1920" viewBox="0 0 2048 1920">
<defs>
<clipPath id="clip_1">
<path transform="matrix(1,0,0,-1,0,1920)" d="M0 1920H2048V0H0Z"/>
</clipPath>
</defs>
<g inkscape:groupmode="layer" inkscape:label="Layer 1">
<g clip-path="url(#clip_1)">
<path transform="matrix(1,0,0,-1,1684.6476,1027.2538)" d="M0 0C-2.716 1.726-5.671 3.331-8.865 3.574-12.209 3.846-15.462 2.604-18.447 1.06-23.402-1.484-27.91-4.846-31.76-8.904-32.148-9.298-32.865-10.449-33.492-10.267-34.238-10.055-33.939-8.662-33.91-8.117-33.85-6.451-33.701-4.785-33.462-3.15-33.044 .151-32.298 3.392-31.313 6.572-29.342 12.902-26.298 18.898-22.328 24.198-20.149 27.106-17.701 29.801-15.015 32.224-13.88 33.223-12.477 34.253-11.015 33.92-10.119 33.678-9.403 32.981-8.776 32.284-.298 23.29 7.791 13.841 14.567 3.453 19.343-3.877 23.552-12.114 23.283-20.867 16.626-12.781 8.836-5.603 0 0M-85.729 169.66C-87.55 169.63-89.162 170.872-90.595 172.023-93.759 174.597-97.042 177.08-100.385 179.443-106.087 183.44-112.087 187.196-118.743 189.194-129.101 192.314-140.713 190.89-150.026 185.288-151.31 184.531-152.533 183.713-153.936 183.319-157.847 182.198-159.041 185.045-158.623 188.074-158.563 188.68-158.414 189.285-158.205 189.891-156.175 195.736-153.22 201.248-149.489 206.155-145.787 211-141.011 215.452-135.071 216.603-128.773 217.814-122.415 215.119-116.833 211.909-102.863 203.823-91.013 191.89-83.251 177.625-82.476 176.202-81.729 174.688-81.938 173.082-82.177 171.235-83.878 169.69-85.729 169.66M-120.743 .484C-122.086-1.484-126.504 3.967-127.519 4.906-131.161 8.177-135.728 10.751-139.877 13.295-144.414 16.021-149.101 18.505-153.966 20.594-162.414 24.229-171.608 26.833-180.861 26.379-185.458 26.136-189.995 25.046-194.144 23.108-196.294 22.078-198.323 20.867-200.204 19.413-201.935 18.08-204.681 16.475-205.457 19.655-206.025 22.078-205.04 25.016-204.323 27.257-203.786 28.983-202.801 30.649-201.935 32.194-199.696 36.282-197.069 40.159-194.084 43.763-189.846 48.851-184.891 53.363-179.398 57.028-178.025 57.936-176.622 58.784-175.19 59.602-173.339 60.632-171.966 61.692-170.413 61.631-169.608 61.601-168.742 61.238-167.727 60.42-157.548 52.091-147.041 44.035-138.026 34.404-131.997 28.014-126.086 20.837-122.773 12.568-121.937 10.449-121.281 8.238-120.952 5.966-120.743 4.543-119.848 1.787-120.743 .484M-238.71 200.097C-239.457 199.552-241.068 200.34-242.322 200.885-246.113 202.49-249.994 203.823-253.993 204.822-262.978 207.093-272.351 207.729-281.575 206.821-295.813 205.397-310.022 200.249-321.425 191.345-324.022 189.316-324.499 194.131-324.529 195.706-324.768 206.245-318.081 214.847-310.738 221.57-305.694 226.234-300.172 230.383-294.291 233.926-291.694 235.471-289.008 236.955-286.052 237.561-281.575 238.5-276.918 237.409-272.65 235.774-261.187 231.473-251.217 223.296-244.412 213.029-242.949 210.818-241.486 208.608-240.233 206.306-239.576 205.064-238.74 203.701-238.442 202.308-238.143 201.036-238.322 200.37-238.71 200.097M-314.559 14.81C-318.26 11.175-321.723 13.841-324.977 16.475-327.872 18.807-330.857 21.018-333.962 23.078-340.976 27.742-349.633 32.86-358.319 33.042-362.349 33.132-366.349 32.224-370.14 30.922-379.751 27.59-388.736 22.169-396.617 15.718-397.751 14.81-399.542 12.629-400.437 14.688-400.826 15.597-400.318 17.111-400.049 17.99-399.482 20.079-398.527 22.048-397.632 24.047-395.632 28.59-392.945 32.829-390.08 36.888-383.513 46.246-375.662 54.544-368.02 62.994-365.095 66.204-362.289 70.293-358.08 71.838-356.439 72.443-354.618 72.534-352.648 71.807-341.603 67.81-333.006 55.998-326.201 46.882-321.902 41.098-317.872 35.131-314.052 29.014-311.604 25.016-310.917 18.414-314.559 14.81M-404.408 192.405C-405.005 191.012-406.706 190.406-408.199 190.648-409.691 190.86-410.975 191.708-412.288 192.496-422.735 198.674-435.392 200.521-447.421 198.977-460.555 197.311-472.436 191.769-483.689 184.985-485.003 184.197-488.286 182.35-489.57 183.955-490.584 185.167-489.122 187.468-488.585 188.619-481.988 202.763-470.197 213.453-457.63 222.145-453.451 225.053-446.914 231.352-441.81 228.233-428.288 219.934-416.139 209.607-406.049 197.281-405.452 196.554-404.855 195.706-404.497 194.828-404.169 194.04-404.079 193.223-404.408 192.405M-509.36-.212C-509.987 .06-510.554 .424-511.091 .848-526.076 12.992-547.061 6.39-560.135-5.391-562.672-7.662-564.702-10.63-567.359-12.69-569.836-14.598-573-14.87-574.881-12.024-577.239-8.45-574.552-4.089-573.269-.666-570.105 7.602-566.314 15.597-562.075 23.35-558.732 29.437-554.911 35.525-550.493 40.946-548.195 43.732-545.747 46.367-543.091 48.79-539.747 51.819-537.3 54.847-533.061 51.667-517.27 39.886-507.151 23.29-503.181 3.907-502.196-.848-506.077-1.726-509.36-.212M-612.85 150.156C-613.566 149.611-615.417 147.673-616.342 148.036-617.417 148.43-616.701 150.762-616.551 151.58-616.014 154.366-615.029 157.092-613.925 159.696-607.626 174.748-596.88 188.104-582.761 195.948-580.194 197.372-577.418 198.644-574.493 198.674-571.388 198.734-568.433 197.341-565.777 195.676-557.329 190.315-551.299 181.774-546.852 172.749-546.643 172.325-546.434 171.871-546.314 171.417-546.105 170.69-546.105 169.933-546.553 169.357-546.971 168.812-547.628 168.6-548.285 168.479-553.269 167.51-558.105 170.478-563.06 171.689-571.299 173.719-579.955 170.751-587.537 166.874-596.552 162.301-604.88 156.425-612.85 150.156M-666.58-11.751C-666.64-12.811-666.371-19.05-667.147-19.565-667.923-20.14-668.102-20.261-668.908-20.806-670.431-20.443-672.222-20.625-673.625-20.927-680.162-22.23-685.684-26.682-690.43-31.194-695.355-35.889-699.087-41.703-704.101-46.216-704.4-45.974-704.34-45.701-704.43-45.307-705.564-40.916-704.191-34.647-703.236-30.286-702.161-25.379-700.43-20.655-698.251-16.142-694.281-7.935-688.848 .272-682.221 6.542-675.625 12.75-668.401 2.423-667.147-3.392-666.55-6.118-666.49-8.965-666.58-11.751M-817.203 36.555C-817.203 36.555-827.322 4.24-822.666-21.715-822.546-22.26-822.546-22.805-822.666-23.35-822.875-24.683-823.472-27.257-824.785-29.862-826.248-32.769-830.218-33.163-832.337-30.71-838.844-23.259-852.963-8.42-865.5-3.967-866.993-3.422-868.247-2.271-868.635-.727-869.231 1.545-869.291 4.634-865.709 5.3-863.053 5.815-861.56 8.722-862.336 11.357-864.664 19.201-870.426 32.921-884.037 43.339-886.903 45.55-886.216 50.123-882.843 51.455-878.336 53.272-869.351 54.06-851.59 50.789-851.59 50.789-812.755 44.792-817.203 36.555M-926.723-20.534C-929.319-28.105-944.483-74.139-945.827-129.259-945.857-130.925-948.095-131.41-948.722-129.865-954.453-116.327-970.513-92.099-1010.511-99.489-1011.198-99.64-1011.914-99.276-1012.183-98.641-1013.317-96.066-1016.72-89.585-1023.705-86.254-1024.869-85.678-1024.959-84.103-1023.854-83.467-1014.482-78.258-985.975-60.753-982.035-39.311-981.975-38.887-981.766-38.523-981.408-38.312-977.736-35.979-956.453-21.473-959.11 2.18-959.14 2.665-958.961 3.18-958.573 3.513-956.513 5.27-949.797 11.236-946.334 17.142-945.588 18.414-943.737 18.02-943.528 16.596-942.125 6.996-938.095-11.024-927.29-18.807-926.752-19.201-926.484-19.898-926.723-20.534M-968.363-283.08C-969.468-284.443-971.527-284.382-972.662-283.05-975.677-279.506-981.706-273.056-987.646-270.481-988.661-270.027-989.318-268.967-989.318-267.846V-254.369C-989.318-252.946-990.333-251.734-991.736-251.492L-992.213-251.401C-993.616-251.159-994.631-249.948-994.631-248.524V-228.233C-994.631-228.021-994.601-227.839-994.572-227.627-994.184-225.81-991.945-216.118-987.706-209.001-986.333-206.73-982.9-207.396-982.393-210.001-980.482-220.237-975.378-240.711-963.557-255.46-963.229-255.884-962.99-256.368-962.931-256.913-962.572-260.517-961.558-274.752-968.363-283.08M-1028.362-587.603C-1033.108-588.026-1036.72-590.813-1039.227-593.629-1041.884-596.658-1043.346-600.625-1043.376-604.714-1043.854-676.279-1039.347-717.801-1037.705-730.4-1037.376-733.034-1037.765-735.699-1038.869-738.122-1041.854-744.603-1044.332-754.143-1045.346-758.353-1045.645-759.625-1046.749-760.503-1048.033-760.503H-1049.675C-1051.108-760.503-1052.331-759.383-1052.421-757.959-1052.988-748.359-1056.54-741-1058.749-737.274-1059.943-735.245-1060.54-732.913-1060.48-730.551L-1058.092-598.445C-1057.883-592.357-1064.63-590.843-1068.689-590.48-1070.361-590.328-1071.585-588.814-1071.465-587.118L-1063.167-464.976C-1062.958-462.22-1060.719-460.07-1057.973-460.07H-1037.884C-1035.138-460.07-1032.869-462.22-1032.72-465.006L-1025.526-584.18C-1025.437-585.906-1026.66-587.451-1028.362-587.603M-1074.629-82.074C-1088.569-86.859-1097.255-96.551-1099.644-99.489-1100.091-100.034-1100.748-100.336-1101.464-100.336H-1112.091C-1113.405-100.336-1114.479-99.246-1114.479-97.914V-63.812C-1114.479-61.874-1112.33-60.723-1110.718-61.844-1097.285-71.111-1074.629-79.076-1074.629-79.076ZM173.07 15.082C173.07 15.082 146.295 172.447 101.43 235.531 101.43 235.531 99.072 277.083 65.222 305.825 65.222 305.825 47.223 318.795 40.148 352.351 40.148 352.351 120.325 348.951 142.354 350.557 142.354 350.557 120.693 365.351 36.457 371.742 36.457 371.742 40.288 376.699 23.781 400.655L103.012 408.856 22.854 416.656C22.854 416.656 24.08 424.22 18.469 432.306 18.469 432.306 80.864 434.63 128.086 445.714 128.086 445.714 74.92 453.814 13.787 447.817 13.787 447.817 9.701 467.58-3.582 479.543-3.582 479.543-.627 515.795-39.014 566.13-39.014 566.13-42.835 595.174-106.893 626.035-106.893 626.035-113.101 664.074-106.296 682.033-106.296 682.033-86.833 689.816-86.833 708.109-86.833 708.109-89.878 862.96-128.444 931.254-128.444 931.254-171.757 857.75-190.264 747.541-190.264 747.541-198.502 726.765-183.368 705.595-183.368 705.595-218.203 713.197-254.62 699.993-254.62 699.993-279.396 694.026-297.515 695.601-297.515 695.601-292.978 792.667-303.425 818.409-303.425 818.409-306.559 824.224-313.455 823.013-313.455 823.013-320.738 819.621-319.962 812.443-319.962 812.443-308.389 730.612-320.022 700.416-320.022 700.416-369.155 726.553-406.945 716.589-406.945 716.589-441.392 692.421-452.615 688.817-452.615 688.817-466.764 682.245-468.734 671.645-468.734 671.645-475.63 668.465-475.63 680.246V694.814C-475.63 694.814-455.541 708.2-452.018 734.155-448.287 758.928-473.869 847.362-521.479 928.255-521.479 928.255-569.717 855.752-569.717 706.807-569.717 706.807-567.448 684.123-540.285 681.427-540.285 681.427-537.628 653.595-539.091 645.781-539.091 645.781-540.882 637.301-546.792 632.819-546.792 632.819-652.763 586.179-679.12 443.201-679.12 443.201-732.16 445.411-764.07 438.809-764.07 438.809-753.48 429.25-681.751 429.25-681.751 429.25-681.302 407.989-690.167 401.69L-717.713 396.591-698.204 384.406C-698.204 384.406-706.964 350.158-710.517 348.039-710.517 348.039-770.846 338.473-802.726 322.906L-797.412 320.21C-797.412 320.21-733.906 332.059-716.474 332.059-716.474 332.059-725.683 283.05-728.041 279.022-728.041 279.022-745.593 264.939-751.652 240.074-751.652 240.074-763.622 209.668-767.025 205.64H-771.294C-771.294 205.64-826.337 244.738-880.276 251.098-880.276 251.098-916.693 280.354-982.811 272.268-982.811 272.268-1028.571 267.483-1069.913 277.083-1069.913 277.083-1106.509 282.172-1152.866 266.877-1152.866 266.877-1239.67 271.693-1279.818 248.615-1279.818 248.615-1482.529 227.96-1524.648 51.819-1524.648 51.819-1439.217 75.775-1357.338 29.468-1357.338 29.468-1288.863 51.819-1235.342 39.432-1235.342 39.432-1262.983 8.086-1249.998 .303-1249.998 .303-1253.819-31.437-1238.476-39.523-1238.476-39.523-1237.013-54.817-1223.133-50.91-1223.133-50.91-1220.954-42.612-1211.82-48.821-1211.82-48.821-1191.94-37.524-1189.373-13.962-1189.373-13.962-1177.761-10.963-1176.985 4.694L-1177.074 32.86-1171.075 32.951C-1171.075 32.951-1164.179 10.085-1152.269-.182-1152.269-.182-1158.179-33.981-1126.598-40.28L-1126.3-97.49C-1126.3-97.49-1145.792-94.037-1154.329-118.599-1154.329-118.599-1163.94-161.877-1177.821-181.654-1177.821-181.654-1183.134-205.761-1153.314-206.518L-1152.866-214.756C-1152.866-214.756-1170.269-233.624-1158.776-258.185-1158.776-258.185-1147.403-274.812-1139.284-275.721-1139.284-275.721-1123.344-266.574-1120.986-258.185L-1116.688-262.668C-1116.688-262.668-1156.687-303.705-1175.582-354.645-1175.582-354.645-1188.597-398.65-1200.984-418.124-1200.984-418.124-1196.716-436.417-1166.299-435.962-1166.299-435.962-1137.374-434.448-1123.344-449.288L-1123.046-498.411C-1123.046-498.411-1139.583-539.751-1126.896-589.177-1126.896-589.177-1147.553-589.177-1146.359-611.922-1146.359-611.922-1145.583-681.034-1141.642-700.174-1141.642-700.174-1136.12-726.947-1146.359-751.297-1146.359-751.297-1150.806-782.672-1120.688-788.639-1120.688-788.639-1086.151-795.241-1057.794-788.063-1057.794-788.063-1048.66-773.375-1040.988-788.639-1040.988-788.639-986.363-807.81-959.498-780.855-959.498-780.855-956.543-752.417-960.095-733.246-960.095-733.246-966.871-713.47-958.901-694.602-958.901-694.602-954.185-620.008-957.438-606.228-957.438-606.228-957.438-594.841-972.483-594.265-972.483-594.265-975.438-584.665-971.289-577.487-971.289-577.487-969.528-512.494-971.289-496.897-971.289-496.897-960.393-478.635-954.483-445.381-954.483-445.381-916.096-439.99-906.365-417.246-906.365-417.246-929.379-382.781-932.931-363.913V-345.65C-932.931-345.65-927.917-311.488-929.976-275.569-929.976-275.569-907.529-262.668-903.111-247.707-903.111-247.707-905.171-236.925-914.902-230.625-914.902-230.625-915.798-189.285-920.812-166.238-920.812-166.238-927.021-38.917-884.813-29.044-884.813-29.044-858.814-25.44-852.635-51.819-852.635-51.819-853.322-87.768-854.008-98.822-854.008-98.822-850.844-108.726-839.62-108.726L-839.053-128.502C-839.053-128.502-851.441-166.844-849.381-212.06-849.381-212.06-851.739-279.446-840.516-306.4-840.516-306.4-839.62-344.742-827.829-383.083-827.829-383.083-828.128-406.736-832.546-419.941-832.546-419.941-834.904-432.51-826.337-435.811L-815.71-416.337C-815.71-416.337-808.338-413.642-809.531-428.027-809.531-428.027-819.86-450.196-830.188-463.371-830.188-463.371-832.844-475.333-821.919-474.758-821.919-474.758-796.368-450.469-791.95-436.689-791.95-436.689-792.398-432.661-791.95-436.689-791.95-436.689-803.114-661.045-654.729-759.292-654.729-759.292-692.908-760.897-707.086-782.067-707.086-782.067-673.625-783.248-667.714-779.674V-790.062C-667.714-790.062-652.76-794.03-625.596-783.672-625.596-783.672-609.477-781.673-604.343-782.46-604.343-782.46-599.925-789.245-601.985-794.03-601.985-794.03-583.388-795.544-543.538-779.371-543.538-779.371-383.513-812.019-28.865-783.672-28.865-783.672 5.88-782.672 43.073-790.153 43.073-790.153 57.819-793.757 64.625-796.725 64.625-796.725 77.909-797.937 66.386-782.067 66.386-782.067 83.52-783.551 94.744-788.336 94.744-788.336 99.46-781.461 91.49-776.676 91.49-776.676 68.655-765.379 40.029-760.291 40.029-760.291 110.087-715.559 115.997-568.189 115.997-568.189 134.892-507.982 129.28-473.244 129.28-473.244 130.444-463.946 140.802-471.76 140.802-471.76 151.698-471.457 139.31-451.983 139.31-451.983 134.892-436.689 148.175-443.594 148.175-443.594 168.533-466.369 177.1-463.068 177.1-463.068 186.264-457.677 159.966-428.027 159.966-428.027 153.787-417.246 163.22-419.335 163.22-419.335 178.294-437.901 187.13-435.811 187.13-435.811 194.532-426.513 165.279-396.561 165.279-396.561 245.486-226.93 173.07 15.082" fill="#030505"/>
</g>
</g>
</svg>
