<svg xmlns="http://www.w3.org/2000/svg" viewBox="0 0 161.689 179.755">
  <path d="M 155.469 84.413 L 155.200 83.606 L 154.907 82.823 L 154.589 82.066 L 154.247 81.334 L 153.881 80.628 L 153.490 79.947 L 153.076 79.293 L 152.637 78.666 L 152.175 78.065 L 151.991 77.842 L 151.808 77.628 L 151.626 77.423 L 151.445 77.226 L 151.266 77.038 L 151.088 76.857 L 150.912 76.685 L 150.738 76.521 L 150.567 76.364 L 150.399 76.215 L 150.071 75.939 L 151.548 75.908 L 152.949 75.836 L 154.268 75.730 L 155.499 75.598 L 156.636 75.446 L 157.673 75.282 L 158.603 75.113 L 159.420 74.946 L 160.119 74.788 L 160.693 74.647 L 161.135 74.529 L 161.686 74.370 L 160.838 73.380 L 160.477 73.439 L 160.026 73.494 L 159.485 73.535 L 158.856 73.555 L 158.139 73.546 L 157.335 73.500 L 156.445 73.409 L 155.469 73.264 L 154.410 73.058 L 153.267 72.782 L 152.041 72.429 L 150.883 72.044 L 149.714 71.608 L 148.534 71.120 L 147.344 70.580 L 146.143 69.989 L 144.933 69.347 L 143.713 68.653 L 142.483 67.909 L 141.243 67.114 L 139.994 66.268 L 138.737 65.372 L 137.470 64.426 L 137.772 64.222 L 138.112 63.973 L 138.487 63.675 L 138.893 63.328 L 139.326 62.926 L 139.783 62.468 L 140.259 61.951 L 140.752 61.371 L 141.256 60.725 L 141.769 60.012 L 142.286 59.227 L 142.804 58.368 L 143.220 57.621 L 143.619 56.847 L 144.001 56.046 L 144.367 55.219 L 144.717 54.366 L 145.049 53.488 L 145.364 52.585 L 145.663 51.657 L 145.944 50.704 L 146.207 49.728 L 146.453 48.727 L 146.682 47.704 L 146.941 46.398 L 147.173 45.057 L 147.377 43.681 L 147.554 42.269 L 147.704 40.823 L 147.826 39.344 L 147.920 37.831 L 147.987 36.285 L 148.026 34.708 L 148.037 33.099 L 148.021 31.459 L 147.976 29.789 L 147.837 23.626 L 147.862 18.415 L 148.024 14.078 L 148.294 10.533 L 148.644 7.702 L 149.045 5.505 L 149.470 3.862 L 149.889 2.692 L 150.275 1.917 L 150.600 1.457 L 150.834 1.232 L 150.898 1.164 L 150.906 0.000 L 150.587 0.006 L 149.960 0.030 L 149.020 0.080 L 147.796 0.168 L 146.317 0.302 L 144.613 0.493 L 142.712 0.750 L 140.643 1.085 L 138.435 1.505 L 136.118 2.023 L 133.720 2.646 L 131.270 3.386 L 129.810 3.881 L 128.391 4.405 L 127.012 4.958 L 125.675 5.539 L 124.379 6.149 L 123.125 6.786 L 121.915 7.451 L 120.747 8.143 L 119.623 8.863 L 118.543 9.609 L 117.508 10.382 L 116.518 11.181 L 115.370 12.194 L 114.291 13.246 L 113.280 14.336 L 112.338 15.464 L 111.466 16.630 L 110.663 17.833 L 109.930 19.073 L 109.267 20.349 L 108.675 21.660 L 108.153 23.007 L 107.702 24.389 L 107.322 25.805 L 107.097 25.851 L 106.876 25.904 L 106.656 25.963 L 106.439 26.028 L 106.224 26.097 L 106.012 26.171 L 105.802 26.248 L 105.594 26.328 L 104.271 26.875 L 103.776 27.070 L 103.292 27.236 L 102.817 27.361 L 102.349 27.436 L 101.883 27.450 L 101.416 27.392 L 100.947 27.251 L 100.471 27.017 L 99.986 26.678 L 99.488 26.224 L 98.974 25.645 L 98.373 24.961 L 97.763 24.377 L 97.147 23.885 L 96.530 23.480 L 95.915 23.153 L 95.308 22.898 L 94.711 22.709 L 94.130 22.578 L 93.567 22.499 L 93.028 22.464 L 92.517 22.468 L 92.037 22.503 L 91.697 22.545 L 91.370 22.599 L 91.056 22.664 L 90.756 22.737 L 90.472 22.817 L 90.204 22.901 L 89.953 22.989 L 89.719 23.078 L 89.505 23.167 L 89.310 23.253 L 89.137 23.335 L 88.984 23.411 L 88.843 23.224 L 88.606 22.951 L 88.521 22.863 L 88.340 22.690 L 88.245 22.606 L 88.046 22.443 L 87.942 22.364 L 87.642 22.152 L 87.329 21.949 L 87.005 21.757 L 86.670 21.575 L 86.326 21.404 L 85.975 21.244 L 85.616 21.096 L 85.253 20.961 L 84.885 20.839 L 84.514 20.731 L 84.141 20.636 L 83.768 20.556 L 83.495 20.128 L 83.236 19.708 L 82.992 19.293 L 82.762 18.885 L 82.546 18.481 L 82.344 18.082 L 82.154 17.688 L 81.979 17.296 L 81.815 16.908 L 81.665 16.522 L 81.526 16.138 L 80.845 13.991 L 80.289 15.756 L 80.163 16.138 L 80.025 16.522 L 79.874 16.908 L 79.711 17.296 L 79.535 17.688 L 79.346 18.082 L 79.143 18.481 L 78.927 18.885 L 78.697 19.293 L 78.453 19.708 L 78.194 20.128 L 77.921 20.556 L 77.548 20.636 L 77.175 20.731 L 76.805 20.839 L 76.437 20.961 L 76.073 21.097 L 75.715 21.245 L 75.363 21.404 L 75.019 21.576 L 74.685 21.758 L 74.360 21.950 L 74.047 22.153 L 73.747 22.365 L 73.643 22.444 L 73.444 22.607 L 73.257 22.776 L 73.083 22.951 L 72.922 23.132 L 72.774 23.317 L 72.705 23.411 L 72.553 23.335 L 72.379 23.253 L 72.184 23.167 L 71.970 23.078 L 71.737 22.989 L 71.486 22.901 L 71.217 22.817 L 70.933 22.737 L 70.633 22.664 L 70.319 22.599 L 69.992 22.545 L 69.652 22.503 L 69.172 22.468 L 68.661 22.465 L 68.122 22.499 L 67.560 22.578 L 66.979 22.709 L 66.382 22.898 L 65.774 23.153 L 65.160 23.480 L 64.543 23.885 L 63.927 24.377 L 63.316 24.961 L 62.715 25.645 L 62.202 26.224 L 61.704 26.678 L 61.218 27.017 L 60.742 27.251 L 60.273 27.392 L 59.806 27.450 L 59.340 27.436 L 58.872 27.361 L 58.397 27.236 L 57.913 27.070 L 57.418 26.875 L 55.677 26.171 L 55.465 26.097 L 55.250 26.028 L 55.033 25.963 L 54.814 25.904 L 54.592 25.851 L 54.368 25.805 L 53.988 24.389 L 53.536 23.007 L 53.014 21.660 L 52.422 20.349 L 51.759 19.073 L 51.026 17.833 L 50.223 16.630 L 49.351 15.464 L 48.409 14.336 L 47.398 13.246 L 46.319 12.194 L 45.171 11.181 L 44.181 10.382 L 43.146 9.609 L 42.066 8.863 L 40.942 8.143 L 39.775 7.451 L 38.564 6.786 L 37.310 6.149 L 36.015 5.539 L 34.677 4.958 L 33.299 4.405 L 31.879 3.881 L 30.419 3.386 L 27.970 2.646 L 25.571 2.023 L 23.254 1.506 L 21.046 1.085 L 18.977 0.751 L 17.076 0.493 L 15.372 0.302 L 13.893 0.168 L 12.669 0.081 L 11.729 0.030 L 11.102 0.007 L 10.791 1.164 L 10.855 1.232 L 11.090 1.457 L 11.414 1.917 L 11.800 2.692 L 12.220 3.862 L 12.644 5.505 L 13.045 7.702 L 13.395 10.533 L 13.665 14.078 L 13.827 18.415 L 13.852 23.626 L 13.713 29.789 L 13.669 31.459 L 13.652 33.099 L 13.663 34.708 L 13.702 36.285 L 13.769 37.831 L 13.863 39.344 L 13.985 40.823 L 14.135 42.269 L 14.312 43.681 L 14.516 45.057 L 14.748 46.398 L 15.007 47.704 L 15.236 48.727 L 15.482 49.727 L 15.745 50.704 L 16.026 51.656 L 16.325 52.584 L 16.640 53.488 L 16.972 54.366 L 17.322 55.219 L 17.688 56.046 L 18.070 56.846 L 18.470 57.621 L 18.885 58.368 L 19.403 59.227 L 19.920 60.012 L 20.433 60.726 L 20.938 61.371 L 21.430 61.951 L 21.907 62.469 L 22.363 62.927 L 22.796 63.328 L 23.202 63.676 L 23.577 63.973 L 23.918 64.222 L 24.219 64.426 L 22.953 65.372 L 21.695 66.268 L 20.446 67.114 L 19.207 67.909 L 17.977 68.653 L 16.756 69.347 L 15.546 69.989 L 14.345 70.580 L 13.155 71.120 L 11.975 71.608 L 10.806 72.044 L 9.648 72.429 L 8.423 72.782 L 7.280 73.058 L 6.220 73.264 L 5.245 73.409 L 4.355 73.500 L 3.552 73.546 L 2.835 73.555 L 2.205 73.535 L 1.664 73.493 L 1.213 73.439 L 0.851 73.380 L 0.000 74.368 L 0.250 74.443 L 0.557 74.530 L 1.002 74.648 L 1.577 74.789 L 2.276 74.947 L 3.094 75.114 L 4.024 75.283 L 5.059 75.446 L 6.195 75.598 L 7.425 75.730 L 8.742 75.835 L 10.141 75.907 L 11.615 75.939 L 11.453 76.073 L 11.288 76.214 L 11.119 76.363 L 10.948 76.520 L 10.774 76.684 L 10.598 76.857 L 10.420 77.037 L 10.241 77.225 L 10.060 77.422 L 9.878 77.627 L 9.695 77.841 L 9.511 78.064 L 9.049 78.665 L 8.610 79.293 L 8.196 79.947 L 7.805 80.627 L 7.439 81.334 L 7.097 82.066 L 6.779 82.823 L 6.486 83.605 L 6.217 84.412 L 5.973 85.244 L 5.754 86.100 L 5.298 88.271 L 6.430 87.595 L 6.863 87.343 L 8.007 86.733 L 8.488 86.498 L 8.981 86.268 L 9.232 86.155 L 8.870 86.778 L 8.511 87.448 L 8.160 88.166 L 7.822 88.930 L 7.503 89.738 L 7.209 90.591 L 6.944 91.487 L 6.714 92.425 L 6.525 93.405 L 6.382 94.424 L 6.291 95.483 L 6.256 96.580 L 6.009 97.138 L 5.771 97.722 L 5.548 98.326 L 5.347 98.942 L 5.174 99.565 L 5.037 100.189 L 4.941 100.808 L 4.893 101.414 L 4.900 102.002 L 4.968 102.567 L 5.104 103.100 L 5.315 103.597 L 5.442 103.817 L 5.584 104.023 L 5.742 104.215 L 5.915 104.392 L 6.103 104.554 L 6.306 104.702 L 6.524 104.835 L 6.757 104.953 L 7.005 105.056 L 7.268 105.145 L 7.546 105.219 L 7.838 105.278 L 8.387 105.321 L 8.903 105.289 L 9.458 105.197 L 10.051 105.047 L 10.681 104.843 L 11.348 104.587 L 12.049 104.284 L 12.785 103.935 L 13.555 103.545 L 14.356 103.116 L 15.189 102.652 L 16.053 102.156 L 16.946 101.631 L 16.484 102.352 L 15.838 103.501 L 15.614 103.947 L 15.402 104.399 L 15.202 104.856 L 15.013 105.318 L 14.836 105.785 L 14.671 106.257 L 14.517 106.734 L 14.375 107.215 L 14.245 107.700 L 14.127 108.190 L 14.021 108.683 L 13.927 109.181 L 13.828 109.806 L 13.747 110.436 L 13.686 111.072 L 13.643 111.713 L 13.619 112.358 L 13.615 113.008 L 13.629 113.662 L 13.662 114.320 L 13.715 114.982 L 13.786 115.647 L 13.876 116.315 L 14.726 121.172 L 15.140 116.941 L 15.151 116.845 L 15.187 116.594 L 15.252 116.207 L 15.352 115.701 L 15.494 115.097 L 15.682 114.412 L 15.923 113.665 L 16.222 112.875 L 16.586 112.060 L 17.018 111.240 L 17.527 110.432 L 18.116 109.656 L 17.461 110.970 L 17.000 112.036 L 16.792 112.564 L 16.595 113.098 L 16.411 113.636 L 16.239 114.178 L 16.078 114.725 L 15.929 115.275 L 15.793 115.829 L 15.669 116.387 L 15.556 116.948 L 15.456 117.512 L 15.368 118.079 L 15.292 118.648 L 15.215 119.363 L 15.158 120.082 L 15.119 120.804 L 15.100 121.530 L 15.100 122.258 L 15.120 122.989 L 15.159 123.723 L 15.216 124.459 L 15.294 125.197 L 15.390 125.936 L 15.506 126.677 L 15.922 128.856 L 16.706 127.617 L 16.738 127.570 L 16.831 127.444 L 16.989 127.246 L 17.219 126.983 L 17.524 126.662 L 17.910 126.288 L 18.383 125.869 L 18.947 125.412 L 19.608 124.922 L 20.371 124.407 L 21.241 123.874 L 22.223 123.328 L 21.858 124.819 L 21.667 125.796 L 21.516 126.756 L 21.405 127.697 L 21.333 128.620 L 21.301 129.525 L 21.309 130.410 L 21.356 131.276 L 21.443 132.122 L 21.570 132.948 L 21.736 133.754 L 21.942 134.539 L 22.102 135.059 L 22.295 135.630 L 22.524 136.238 L 22.790 136.870 L 23.094 137.513 L 23.438 138.154 L 23.823 138.780 L 24.252 139.377 L 24.725 139.934 L 25.245 140.436 L 25.812 140.871 L 26.429 141.225 L 27.907 141.938 L 27.209 140.453 L 27.186 140.395 L 27.166 140.318 L 27.153 140.220 L 27.149 140.100 L 27.159 139.955 L 27.187 139.785 L 27.236 139.587 L 27.309 139.361 L 27.411 139.103 L 27.545 138.814 L 27.715 138.490 L 27.924 138.130 L 28.084 137.874 L 28.251 137.620 L 28.422 137.372 L 28.595 137.129 L 28.767 136.895 L 28.937 136.671 L 29.261 136.259 L 30.026 135.344 L 30.152 135.206 L 30.687 134.667 L 30.829 134.536 L 31.276 134.149 L 31.433 134.022 L 31.319 134.557 L 31.211 135.130 L 31.111 135.742 L 31.022 136.389 L 30.947 137.070 L 30.889 137.784 L 30.850 138.528 L 30.834 139.302 L 30.842 140.102 L 30.878 140.928 L 30.944 141.778 L 31.044 142.650 L 31.263 144.013 L 31.558 145.358 L 31.928 146.685 L 32.372 147.993 L 32.891 149.283 L 33.484 150.552 L 34.152 151.801 L 34.892 153.030 L 35.707 154.237 L 36.594 155.423 L 37.554 156.586 L 40.062 159.282 L 39.557 157.095 L 39.505 156.825 L 39.432 156.399 L 39.349 155.829 L 39.265 155.126 L 39.191 154.303 L 39.136 153.371 L 39.111 152.344 L 39.126 151.233 L 39.190 150.051 L 39.314 148.808 L 39.507 147.519 L 39.774 147.983 L 40.079 148.442 L 40.424 148.889 L 40.814 149.322 L 41.249 149.735 L 41.733 150.125 L 42.268 150.488 L 42.857 150.820 L 43.502 151.116 L 44.206 151.371 L 44.971 151.583 L 45.800 151.747 L 46.070 151.923 L 46.498 152.218 L 47.059 152.629 L 47.726 153.154 L 48.473 153.790 L 49.276 154.533 L 50.109 155.382 L 50.946 156.334 L 51.761 157.385 L 52.529 158.533 L 53.223 159.775 L 53.819 161.109 L 54.139 161.832 L 54.503 162.488 L 54.905 163.084 L 55.340 163.623 L 55.801 164.112 L 56.284 164.554 L 56.782 164.956 L 57.289 165.321 L 57.800 165.655 L 58.309 165.964 L 58.809 166.252 L 60.099 166.976 L 60.351 167.125 L 60.594 167.274 L 60.826 167.424 L 61.048 167.577 L 61.259 167.734 L 61.458 167.896 L 61.644 168.063 L 61.817 168.236 L 61.976 168.417 L 62.077 168.546 L 62.178 168.692 L 62.277 168.857 L 62.370 169.042 L 62.454 169.249 L 62.526 169.480 L 62.582 169.736 L 62.619 170.020 L 62.635 170.333 L 62.626 170.677 L 62.588 171.054 L 62.325 172.437 L 63.267 172.135 L 63.370 172.100 L 63.590 172.020 L 63.911 171.894 L 64.315 171.721 L 64.786 171.499 L 65.307 171.227 L 65.861 170.903 L 66.431 170.528 L 67.001 170.099 L 67.553 169.615 L 68.071 169.075 L 68.538 168.479 L 69.124 168.874 L 69.895 169.410 L 70.816 170.075 L 71.853 170.855 L 72.973 171.739 L 74.143 172.712 L 75.330 173.764 L 76.498 174.882 L 77.616 176.052 L 78.650 177.263 L 79.565 178.501 L 80.330 179.754 L 80.340 179.749 L 80.843 179.479 L 81.356 179.754 L 82.120 178.501 L 83.035 177.263 L 84.069 176.052 L 85.187 174.882 L 86.356 173.765 L 87.542 172.713 L 88.712 171.739 L 89.832 170.855 L 90.870 170.075 L 91.790 169.411 L 92.561 168.874 L 93.148 168.479 L 93.614 169.075 L 94.132 169.615 L 94.684 170.099 L 95.254 170.528 L 95.824 170.904 L 96.378 171.227 L 96.900 171.499 L 97.371 171.721 L 97.775 171.895 L 98.095 172.021 L 98.418 172.135 L 99.361 172.437 L 99.361 172.437 L 99.167 171.465 L 99.098 171.054 L 99.060 170.677 L 99.051 170.333 L 99.066 170.020 L 99.104 169.736 L 99.160 169.480 L 99.232 169.249 L 99.315 169.042 L 99.408 168.857 L 99.507 168.692 L 99.609 168.546 L 99.710 168.417 L 99.869 168.236 L 100.041 168.063 L 100.228 167.896 L 100.426 167.734 L 100.637 167.577 L 100.859 167.424 L 101.092 167.274 L 101.335 167.125 L 101.586 166.976 L 102.876 166.252 L 103.377 165.964 L 103.886 165.655 L 104.396 165.321 L 104.904 164.956 L 105.402 164.554 L 105.884 164.112 L 106.346 163.623 L 106.781 163.084 L 107.183 162.488 L 107.547 161.832 L 107.866 161.109 L 108.185 160.355 L 108.537 159.630 L 108.918 158.935 L 109.322 158.272 L 109.744 157.640 L 110.180 157.041 L 110.623 156.475 L 111.069 155.944 L 111.513 155.448 L 111.949 154.988 L 112.372 154.565 L 112.777 154.180 L 113.143 153.846 L 113.499 153.536 L 113.841 153.248 L 114.167 152.984 L 114.474 152.744 L 114.760 152.527 L 115.022 152.335 L 115.258 152.167 L 115.886 151.747 L 116.715 151.583 L 117.480 151.371 L 118.184 151.116 L 118.829 150.820 L 119.417 150.488 L 119.953 150.125 L 120.437 149.735 L 120.872 149.322 L 121.261 148.889 L 121.607 148.442 L 121.912 147.983 L 122.178 147.519 L 122.372 148.808 L 122.496 150.050 L 122.560 151.233 L 122.574 152.344 L 122.549 153.371 L 122.494 154.302 L 122.420 155.125 L 122.336 155.828 L 122.253 156.398 L 122.180 156.824 L 121.621 159.287 L 123.098 157.727 L 124.131 156.586 L 125.091 155.423 L 125.979 154.237 L 126.793 153.030 L 127.534 151.801 L 128.201 150.552 L 128.794 149.282 L 129.313 147.993 L 129.758 146.685 L 130.127 145.358 L 130.422 144.013 L 130.641 142.650 L 130.741 141.778 L 130.807 140.928 L 130.843 140.102 L 130.852 139.302 L 130.835 138.528 L 130.797 137.784 L 130.739 137.070 L 130.664 136.389 L 130.575 135.742 L 130.476 135.130 L 130.368 134.557 L 130.255 134.022 L 130.411 134.149 L 130.712 134.406 L 130.857 134.536 L 131.137 134.800 L 131.404 135.069 L 131.659 135.344 L 132.583 136.458 L 132.918 136.895 L 133.091 137.129 L 133.264 137.371 L 133.434 137.620 L 133.601 137.873 L 133.762 138.130 L 133.971 138.490 L 134.140 138.814 L 134.274 139.103 L 134.376 139.361 L 134.450 139.587 L 134.499 139.785 L 134.526 139.955 L 134.537 140.100 L 134.533 140.220 L 134.519 140.318 L 134.499 140.395 L 133.832 141.828 L 133.781 141.938 L 135.258 141.225 L 135.874 140.870 L 136.442 140.436 L 136.961 139.933 L 137.434 139.377 L 137.863 138.780 L 138.249 138.154 L 138.592 137.513 L 138.896 136.870 L 139.162 136.238 L 139.391 135.630 L 139.584 135.059 L 139.744 134.539 L 139.950 133.754 L 140.117 132.948 L 140.243 132.122 L 140.330 131.276 L 140.377 130.410 L 140.385 129.525 L 140.353 128.621 L 140.281 127.697 L 140.170 126.756 L 140.019 125.796 L 139.828 124.819 L 139.463 123.328 L 140.445 123.874 L 141.315 124.407 L 142.078 124.922 L 142.739 125.412 L 143.303 125.869 L 143.776 126.288 L 144.162 126.661 L 144.467 126.983 L 144.696 127.245 L 144.855 127.442 L 145.760 128.878 L 146.046 127.419 L 146.181 126.677 L 146.296 125.936 L 146.392 125.197 L 146.470 124.459 L 146.528 123.723 L 146.566 122.989 L 146.586 122.258 L 146.586 121.529 L 146.567 120.804 L 146.529 120.082 L 146.471 119.363 L 146.394 118.648 L 146.318 118.079 L 146.231 117.512 L 146.130 116.948 L 146.018 116.387 L 145.893 115.829 L 145.757 115.275 L 145.608 114.725 L 145.448 114.178 L 145.275 113.636 L 145.091 113.098 L 144.894 112.564 L 144.686 112.036 L 143.570 109.656 L 144.160 110.432 L 144.668 111.239 L 145.101 112.059 L 145.464 112.874 L 145.763 113.664 L 146.004 114.411 L 146.192 115.096 L 146.334 115.701 L 146.434 116.206 L 146.499 116.594 L 146.535 116.845 L 146.956 121.197 L 147.701 116.987 L 147.810 116.316 L 147.900 115.648 L 147.972 114.983 L 148.024 114.321 L 148.057 113.663 L 148.072 113.009 L 148.067 112.359 L 148.043 111.713 L 148.001 111.073 L 147.939 110.437 L 147.858 109.806 L 147.759 109.181 L 147.665 108.684 L 147.559 108.190 L 147.441 107.701 L 147.311 107.215 L 147.169 106.734 L 147.016 106.258 L 146.850 105.786 L 146.673 105.319 L 146.484 104.857 L 146.283 104.400 L 146.070 103.948 L 145.847 103.502 L 144.741 101.632 L 145.634 102.157 L 146.497 102.653 L 147.330 103.117 L 148.132 103.545 L 148.901 103.936 L 149.637 104.284 L 150.338 104.588 L 151.005 104.843 L 151.635 105.048 L 152.228 105.198 L 152.783 105.290 L 153.300 105.322 L 154.141 105.219 L 154.418 105.145 L 154.681 105.057 L 154.929 104.953 L 155.162 104.835 L 155.381 104.702 L 155.584 104.554 L 155.772 104.392 L 155.945 104.215 L 156.102 104.024 L 156.245 103.818 L 156.371 103.598 L 156.582 103.101 L 156.718 102.567 L 156.786 102.003 L 156.793 101.415 L 156.745 100.808 L 156.649 100.190 L 156.512 99.566 L 156.339 98.943 L 156.138 98.326 L 155.915 97.723 L 155.677 97.139 L 155.430 96.581 L 155.395 95.484 L 155.304 94.425 L 155.161 93.405 L 154.972 92.426 L 154.742 91.488 L 154.477 90.592 L 154.183 89.739 L 153.864 88.930 L 153.526 88.166 L 153.175 87.449 L 152.816 86.778 L 152.454 86.156 L 152.705 86.269 L 153.199 86.499 L 153.679 86.734 L 154.376 87.096 L 155.041 87.469 L 156.388 88.271 L 156.125 86.980 L 155.932 86.100 L 155.713 85.244 Z M 14.040 117.297 L 14.610 120.518 L 14.000 117.069 Z M 14.447 119.598 L 14.534 120.087 L 14.610 120.518 Z M 155.433 87.702 L 155.550 87.771 L 155.963 88.017 Z" fill="#111111" fill-rule="evenodd"/>
</svg>
