<svg xmlns="http://www.w3.org/2000/svg" viewBox="0 0 155.260 118.916">
  <path d="M 155.259 0.000 L 155.259 118.916 L 0.000 118.916 L 0.000 0.000 Z M 111.905 16.095 L 111.636 16.242 L 111.397 16.438 L 111.201 16.677 L 111.058 16.955 L 110.978 17.270 L 110.970 17.454 L 110.987 17.634 L 111.011 17.751 L 111.087 17.977 L 110.975 18.077 L 110.759 17.393 L 110.505 16.723 L 110.213 16.070 L 109.883 15.435 L 109.516 14.820 L 109.112 14.227 L 108.672 13.658 L 108.196 13.115 L 107.685 12.600 L 107.139 12.115 L 106.558 11.661 L 105.944 11.241 L 104.932 10.661 L 104.267 10.351 L 103.591 10.085 L 102.906 9.864 L 102.212 9.686 L 101.513 9.552 L 100.809 9.461 L 100.103 9.412 L 99.396 9.404 L 98.690 9.438 L 97.987 9.512 L 97.290 9.626 L 96.598 9.780 L 96.634 9.609 L 96.816 9.568 L 96.986 9.506 L 97.143 9.424 L 97.286 9.323 L 97.414 9.206 L 97.526 9.073 L 97.622 8.927 L 97.700 8.769 L 97.760 8.600 L 97.801 8.423 L 97.821 8.239 L 97.820 8.049 L 97.796 7.848 L 97.750 7.656 L 97.683 7.476 L 97.596 7.309 L 97.491 7.157 L 97.368 7.022 L 97.230 6.904 L 97.076 6.806 L 96.909 6.729 L 96.730 6.675 L 96.539 6.646 L 96.339 6.642 L 96.180 6.263 L 96.420 6.013 L 96.580 5.738 L 96.666 5.445 L 96.682 5.146 L 96.636 4.850 L 96.533 4.565 L 96.378 4.302 L 96.177 4.070 L 95.937 3.879 L 95.663 3.737 L 95.361 3.655 L 95.037 3.642 L 94.961 3.650 L 94.887 3.662 L 94.814 3.679 L 94.742 3.700 L 94.672 3.725 L 94.603 3.754 L 94.471 3.824 L 94.407 3.865 L 94.346 3.908 L 94.286 3.955 L 94.228 4.005 L 93.924 3.816 L 93.984 3.536 L 151.723 3.536 L 151.723 115.381 L 94.300 115.381 L 94.224 114.991 L 94.519 114.799 L 94.745 114.965 L 94.985 115.078 L 95.233 115.140 L 95.483 115.154 L 95.731 115.123 L 95.970 115.050 L 96.196 114.937 L 96.403 114.788 L 96.586 114.604 L 96.739 114.389 L 96.858 114.146 L 96.937 113.877 L 96.958 113.744 L 96.968 113.613 L 96.965 113.485 L 96.952 113.360 L 96.926 113.238 L 96.889 113.120 L 96.841 113.006 L 96.782 112.896 L 96.711 112.791 L 96.629 112.691 L 96.536 112.597 L 96.432 112.508 L 96.580 112.140 L 96.938 112.116 L 97.250 112.015 L 97.515 111.847 L 97.730 111.627 L 97.894 111.364 L 98.005 111.073 L 98.059 110.764 L 98.056 110.450 L 97.994 110.143 L 97.869 109.855 L 97.681 109.598 L 97.426 109.384 L 98.094 109.487 L 98.762 109.553 L 99.430 109.583 L 100.096 109.576 L 100.760 109.532 L 101.420 109.450 L 102.075 109.330 L 102.725 109.173 L 103.368 108.976 L 104.004 108.741 L 104.630 108.467 L 105.247 108.154 L 106.872 107.086 L 107.429 106.620 L 107.952 106.124 L 108.441 105.599 L 108.895 105.049 L 109.314 104.474 L 109.697 103.876 L 110.043 103.258 L 110.353 102.621 L 110.626 101.966 L 110.860 101.297 L 111.057 100.614 L 111.308 100.838 L 111.213 101.237 L 111.233 101.608 L 111.350 101.944 L 111.548 102.237 L 111.811 102.479 L 112.120 102.662 L 112.460 102.778 L 112.813 102.818 L 113.163 102.776 L 113.492 102.642 L 113.785 102.409 L 114.024 102.068 L 114.434 102.118 L 114.530 102.451 L 114.689 102.727 L 114.899 102.947 L 115.150 103.111 L 115.430 103.219 L 115.728 103.271 L 116.033 103.268 L 116.334 103.211 L 116.620 103.099 L 116.880 102.932 L 117.102 102.712 L 117.275 102.437 L 117.306 102.368 L 117.333 102.298 L 117.372 102.154 L 117.385 102.081 L 117.394 102.007 L 117.399 101.933 L 117.400 101.858 L 117.397 101.783 L 117.380 101.633 L 117.366 101.558 L 117.683 101.389 L 117.898 101.582 L 118.131 101.719 L 118.376 101.804 L 118.626 101.839 L 118.876 101.828 L 119.122 101.774 L 119.357 101.681 L 119.576 101.550 L 119.773 101.386 L 119.944 101.191 L 120.082 100.968 L 120.181 100.721 L 120.217 100.581 L 120.239 100.444 L 120.249 100.309 L 120.245 100.176 L 120.230 100.047 L 120.201 99.921 L 120.160 99.799 L 120.107 99.681 L 120.042 99.567 L 119.964 99.458 L 119.875 99.355 L 119.773 99.256 L 119.932 98.942 L 120.212 98.973 L 120.476 98.950 L 120.722 98.880 L 120.946 98.768 L 121.144 98.617 L 121.315 98.434 L 121.454 98.224 L 121.558 97.991 L 121.624 97.740 L 121.650 97.478 L 121.631 97.207 L 121.565 96.935 L 121.517 96.809 L 121.460 96.691 L 121.394 96.581 L 121.320 96.480 L 121.237 96.387 L 121.146 96.303 L 121.047 96.228 L 120.941 96.163 L 120.827 96.107 L 120.706 96.062 L 120.578 96.026 L 120.444 96.001 L 120.387 95.609 L 120.709 95.391 L 120.937 95.125 L 121.080 94.824 L 121.142 94.502 L 121.129 94.172 L 121.049 93.848 L 120.907 93.545 L 120.709 93.275 L 120.461 93.052 L 120.169 92.891 L 119.840 92.804 L 119.479 92.806 L 120.121 92.570 L 120.749 92.299 L 121.360 91.993 L 121.953 91.654 L 122.527 91.280 L 123.079 90.874 L 123.608 90.435 L 124.113 89.963 L 124.592 89.460 L 125.043 88.925 L 125.464 88.358 L 125.855 87.762 L 126.410 86.751 L 126.709 86.081 L 126.962 85.400 L 127.171 84.709 L 127.337 84.012 L 127.459 83.308 L 127.538 82.601 L 127.574 81.893 L 127.569 81.184 L 127.523 80.476 L 127.435 79.773 L 127.308 79.075 L 127.140 78.384 L 127.489 78.452 L 127.529 78.635 L 127.591 78.806 L 127.673 78.963 L 127.773 79.107 L 127.891 79.236 L 128.023 79.348 L 128.170 79.445 L 128.328 79.523 L 128.497 79.583 L 128.675 79.624 L 128.859 79.645 L 129.050 79.645 L 129.251 79.621 L 129.442 79.574 L 129.622 79.507 L 129.788 79.421 L 129.940 79.316 L 130.076 79.193 L 130.194 79.055 L 130.292 78.902 L 130.369 78.735 L 130.423 78.556 L 130.453 78.365 L 130.457 78.165 L 130.835 78.003 L 131.085 78.243 L 131.361 78.404 L 131.653 78.490 L 131.952 78.506 L 132.249 78.460 L 132.534 78.357 L 132.797 78.202 L 133.029 78.002 L 133.221 77.762 L 133.362 77.488 L 133.444 77.186 L 133.458 76.861 L 133.450 76.786 L 133.438 76.712 L 133.421 76.639 L 133.400 76.568 L 133.375 76.498 L 133.346 76.430 L 133.313 76.363 L 133.277 76.299 L 133.237 76.235 L 133.147 76.114 L 133.098 76.057 L 133.287 75.750 L 133.571 75.808 L 133.842 75.811 L 134.096 75.762 L 134.330 75.667 L 134.542 75.532 L 134.727 75.362 L 134.883 75.163 L 135.007 74.941 L 135.096 74.700 L 135.145 74.446 L 135.153 74.185 L 135.116 73.922 L 135.077 73.783 L 135.027 73.653 L 134.968 73.531 L 134.899 73.418 L 134.821 73.313 L 134.733 73.219 L 134.637 73.133 L 134.532 73.058 L 134.419 72.992 L 134.297 72.937 L 134.167 72.892 L 134.030 72.857 L 134.011 72.506 L 134.235 72.410 L 134.431 72.285 L 134.598 72.134 L 134.735 71.961 L 134.841 71.769 L 134.917 71.563 L 134.960 71.346 L 134.971 71.121 L 134.948 70.894 L 134.892 70.666 L 134.800 70.442 L 134.674 70.226 L 134.572 70.095 L 134.460 69.978 L 134.337 69.876 L 134.205 69.790 L 134.065 69.719 L 133.919 69.664 L 133.768 69.626 L 133.613 69.605 L 133.456 69.602 L 133.297 69.617 L 133.139 69.650 L 132.983 69.703 L 132.738 69.391 L 132.894 69.078 L 132.964 68.765 L 132.957 68.459 L 132.882 68.167 L 132.746 67.898 L 132.560 67.658 L 132.331 67.455 L 132.067 67.295 L 131.779 67.186 L 131.474 67.136 L 131.161 67.151 L 130.848 67.239 L 130.684 67.323 L 130.290 67.686 L 130.224 67.664 L 130.700 67.130 L 131.145 66.570 L 131.555 65.985 L 131.931 65.377 L 132.270 64.747 L 132.572 64.097 L 132.834 63.428 L 133.056 62.742 L 133.236 62.039 L 133.373 61.321 L 133.465 60.589 L 133.492 58.724 L 133.421 57.994 L 133.305 57.276 L 133.146 56.572 L 132.946 55.884 L 132.705 55.213 L 132.424 54.559 L 132.106 53.925 L 131.752 53.312 L 131.362 52.720 L 130.939 52.152 L 130.484 51.609 L 129.998 51.091 L 130.312 50.989 L 130.438 51.126 L 130.577 51.242 L 130.727 51.336 L 130.886 51.410 L 131.052 51.462 L 131.222 51.493 L 131.397 51.503 L 131.573 51.491 L 131.749 51.459 L 131.922 51.406 L 132.092 51.331 L 132.256 51.236 L 132.418 51.114 L 132.561 50.979 L 132.683 50.831 L 132.784 50.672 L 132.863 50.506 L 132.919 50.332 L 132.952 50.153 L 132.961 49.972 L 132.944 49.789 L 132.902 49.607 L 132.832 49.427 L 132.736 49.252 L 132.985 48.923 L 133.322 49.005 L 133.640 49.006 L 133.936 48.933 L 134.203 48.798 L 134.436 48.609 L 134.631 48.377 L 134.781 48.112 L 134.881 47.822 L 134.927 47.519 L 134.912 47.211 L 134.832 46.909 L 134.681 46.622 L 134.637 46.560 L 134.590 46.502 L 134.539 46.447 L 134.485 46.396 L 134.428 46.348 L 134.368 46.303 L 134.306 46.262 L 134.242 46.224 L 134.175 46.189 L 134.107 46.157 L 133.964 46.103 L 133.977 45.744 L 134.252 45.654 L 134.487 45.521 L 134.683 45.352 L 134.838 45.153 L 134.954 44.931 L 135.030 44.691 L 135.067 44.440 L 135.063 44.185 L 135.019 43.932 L 134.936 43.687 L 134.812 43.457 L 134.648 43.247 L 134.545 43.147 L 134.436 43.058 L 134.324 42.982 L 134.208 42.919 L 134.088 42.868 L 133.965 42.829 L 133.839 42.804 L 133.710 42.791 L 133.579 42.791 L 133.446 42.803 L 133.311 42.829 L 133.175 42.868 L 132.982 42.573 L 133.149 42.346 L 133.262 42.106 L 133.324 41.858 L 133.338 41.608 L 133.307 41.361 L 133.234 41.122 L 133.121 40.897 L 132.971 40.690 L 132.787 40.508 L 132.573 40.354 L 132.329 40.235 L 132.060 40.156 L 131.928 40.134 L 131.797 40.125 L 131.669 40.127 L 131.544 40.141 L 131.422 40.166 L 131.303 40.203 L 131.189 40.251 L 131.079 40.311 L 130.974 40.382 L 130.874 40.463 L 130.779 40.556 L 130.691 40.660 L 130.323 40.512 L 130.301 40.163 L 130.205 39.857 L 130.046 39.595 L 129.834 39.381 L 129.583 39.215 L 129.301 39.100 L 129.001 39.039 L 128.693 39.032 L 128.389 39.082 L 128.100 39.191 L 127.836 39.360 L 127.609 39.593 L 127.573 39.643 L 127.540 39.695 L 127.457 39.856 L 127.397 40.025 L 127.358 40.200 L 127.350 40.260 L 127.221 40.286 L 127.372 39.585 L 127.482 38.878 L 127.550 38.166 L 127.577 37.451 L 127.561 36.736 L 127.502 36.021 L 127.400 35.309 L 127.254 34.602 L 127.064 33.902 L 126.828 33.210 L 126.547 32.528 L 125.647 30.889 L 125.224 30.289 L 124.769 29.723 L 124.283 29.190 L 123.769 28.691 L 123.228 28.227 L 122.662 27.798 L 122.072 27.404 L 121.461 27.047 L 120.831 26.725 L 120.183 26.441 L 119.520 26.194 L 118.842 25.985 L 119.019 25.787 L 119.197 25.844 L 119.375 25.875 L 119.552 25.882 L 119.726 25.866 L 119.895 25.828 L 120.059 25.769 L 120.215 25.691 L 120.362 25.593 L 120.498 25.477 L 120.621 25.344 L 120.731 25.194 L 120.825 25.030 L 120.905 24.844 L 120.961 24.655 L 120.993 24.466 L 121.001 24.278 L 120.986 24.094 L 120.948 23.916 L 120.887 23.745 L 120.803 23.583 L 120.698 23.433 L 120.570 23.297 L 120.420 23.176 L 120.249 23.072 L 120.300 22.663 L 120.632 22.566 L 120.908 22.406 L 121.128 22.196 L 121.292 21.945 L 121.400 21.665 L 121.453 21.367 L 121.450 21.062 L 121.392 20.761 L 121.280 20.476 L 121.114 20.217 L 120.893 19.995 L 120.619 19.821 L 120.549 19.790 L 120.479 19.764 L 120.407 19.742 L 120.335 19.724 L 120.262 19.711 L 120.188 19.702 L 120.039 19.697 L 119.964 19.700 L 119.814 19.717 L 119.739 19.731 L 119.569 19.414 L 119.763 19.198 L 119.900 18.965 L 119.985 18.721 L 120.020 18.471 L 120.009 18.220 L 119.955 17.974 L 119.861 17.739 L 119.730 17.520 L 119.565 17.323 L 119.370 17.153 L 119.148 17.015 L 118.902 16.916 L 118.762 16.880 L 118.624 16.858 L 118.489 16.848 L 118.357 16.852 L 118.227 16.867 L 118.101 16.896 L 117.979 16.937 L 117.861 16.990 L 117.747 17.055 L 117.639 17.133 L 117.535 17.222 L 117.436 17.324 L 117.123 17.165 L 117.153 16.885 L 117.131 16.621 L 117.061 16.375 L 116.948 16.152 L 116.798 15.953 L 116.615 15.783 L 116.404 15.644 L 116.171 15.540 L 115.921 15.473 L 115.658 15.448 L 115.388 15.466 L 115.115 15.532 L 114.989 15.580 L 114.871 15.637 L 114.761 15.703 L 114.660 15.777 L 114.567 15.860 L 114.483 15.951 L 114.408 16.050 L 114.343 16.157 L 114.287 16.271 L 114.241 16.391 L 114.206 16.519 L 114.181 16.653 L 113.788 16.709 L 113.594 16.418 L 113.357 16.201 L 113.088 16.054 L 112.798 15.974 L 112.497 15.957 L 112.196 15.998 Z M 35.524 99.185 L 35.693 99.500 L 35.499 99.717 L 35.360 99.950 L 35.275 100.195 L 35.240 100.446 L 35.251 100.697 L 35.305 100.942 L 35.399 101.178 L 35.530 101.396 L 35.695 101.594 L 35.890 101.764 L 36.112 101.901 L 36.358 102.000 L 36.498 102.036 L 36.636 102.058 L 36.771 102.068 L 36.904 102.065 L 37.033 102.049 L 37.159 102.021 L 37.281 101.980 L 37.399 101.927 L 37.512 101.861 L 37.621 101.784 L 37.725 101.694 L 37.823 101.593 L 38.138 101.752 L 38.107 102.031 L 38.129 102.295 L 38.200 102.541 L 38.312 102.764 L 38.463 102.963 L 38.646 103.134 L 38.857 103.273 L 39.090 103.377 L 39.340 103.444 L 39.603 103.469 L 39.873 103.450 L 40.146 103.384 L 40.271 103.336 L 40.389 103.279 L 40.499 103.213 L 40.600 103.139 L 40.693 103.056 L 40.777 102.965 L 40.852 102.866 L 40.918 102.759 L 40.973 102.646 L 41.019 102.525 L 41.054 102.397 L 41.079 102.263 L 41.472 102.207 L 41.620 102.440 L 41.800 102.630 L 42.004 102.775 L 42.229 102.877 L 42.466 102.938 L 42.712 102.959 L 42.959 102.939 L 43.203 102.882 L 43.438 102.787 L 43.657 102.655 L 43.855 102.488 L 44.026 102.287 L 44.250 101.762 L 44.488 102.369 L 44.759 102.963 L 45.060 103.541 L 45.393 104.102 L 45.756 104.645 L 46.149 105.168 L 46.572 105.671 L 47.025 106.151 L 47.507 106.607 L 48.017 107.038 L 48.556 107.441 L 49.122 107.817 L 50.307 108.462 L 50.975 108.753 L 51.654 109.000 L 52.340 109.203 L 53.034 109.362 L 53.734 109.479 L 54.437 109.553 L 55.144 109.585 L 55.851 109.575 L 56.559 109.523 L 57.264 109.430 L 57.967 109.297 L 58.664 109.122 L 58.625 109.308 L 58.234 109.424 L 57.922 109.626 L 57.690 109.895 L 57.535 110.213 L 57.455 110.561 L 57.451 110.921 L 57.520 111.273 L 57.661 111.600 L 57.873 111.882 L 58.154 112.101 L 58.503 112.238 L 58.918 112.274 L 59.078 112.654 L 58.839 112.905 L 58.680 113.180 L 58.595 113.473 L 58.578 113.772 L 58.625 114.068 L 58.728 114.353 L 58.883 114.615 L 59.083 114.847 L 59.323 115.038 L 59.597 115.180 L 59.899 115.261 L 60.223 115.274 L 60.299 115.267 L 60.373 115.254 L 60.446 115.238 L 60.517 115.216 L 60.587 115.191 L 60.656 115.162 L 60.723 115.129 L 60.788 115.092 L 60.851 115.052 L 60.913 115.009 L 60.973 114.962 L 61.030 114.913 L 61.335 115.103 L 61.276 115.381 L 3.537 115.381 L 3.537 3.536 L 60.960 3.536 L 61.036 3.925 L 60.741 4.117 L 60.514 3.951 L 60.274 3.838 L 60.027 3.776 L 59.776 3.762 L 59.529 3.793 L 59.290 3.866 L 59.064 3.979 L 58.858 4.129 L 58.675 4.312 L 58.521 4.527 L 58.402 4.771 L 58.323 5.040 L 58.302 5.173 L 58.293 5.303 L 58.295 5.431 L 58.308 5.556 L 58.334 5.678 L 58.371 5.796 L 58.419 5.910 L 58.478 6.020 L 58.549 6.125 L 58.631 6.225 L 58.724 6.320 L 58.828 6.408 L 58.680 6.776 L 58.477 6.780 L 58.284 6.810 L 58.103 6.864 L 57.934 6.942 L 57.780 7.042 L 57.641 7.161 L 57.518 7.299 L 57.413 7.453 L 57.327 7.622 L 57.261 7.805 L 57.216 7.998 L 57.194 8.202 L 57.197 8.395 L 57.221 8.581 L 57.265 8.759 L 57.328 8.929 L 57.410 9.087 L 57.510 9.232 L 57.626 9.364 L 57.758 9.479 L 57.905 9.577 L 58.067 9.656 L 58.241 9.713 L 58.427 9.749 L 58.439 9.803 L 57.740 9.642 L 57.034 9.522 L 56.323 9.443 L 55.608 9.405 L 54.893 9.410 L 54.178 9.457 L 53.465 9.548 L 52.757 9.682 L 52.054 9.861 L 51.360 10.085 L 50.676 10.354 L 50.004 10.669 L 48.878 11.323 L 48.279 11.744 L 47.713 12.197 L 47.181 12.680 L 46.683 13.192 L 46.219 13.730 L 45.790 14.294 L 45.396 14.880 L 45.038 15.488 L 44.716 16.115 L 44.430 16.760 L 44.182 17.420 L 44.047 17.680 L 44.028 17.309 L 43.911 16.973 L 43.712 16.680 L 43.450 16.437 L 43.141 16.254 L 42.801 16.138 L 42.448 16.097 L 42.098 16.139 L 41.769 16.273 L 41.476 16.506 L 41.237 16.847 L 40.826 16.796 L 40.729 16.464 L 40.570 16.188 L 40.360 15.968 L 40.109 15.805 L 39.829 15.697 L 39.531 15.645 L 39.226 15.648 L 38.925 15.705 L 38.639 15.818 L 38.380 15.984 L 38.159 16.205 L 37.985 16.479 L 37.954 16.548 L 37.928 16.618 L 37.906 16.690 L 37.888 16.762 L 37.875 16.835 L 37.866 16.909 L 37.861 16.984 L 37.860 17.058 L 37.863 17.133 L 37.870 17.209 L 37.895 17.359 L 37.577 17.528 L 37.362 17.335 L 37.129 17.197 L 36.884 17.113 L 36.634 17.077 L 36.384 17.088 L 36.138 17.142 L 35.903 17.236 L 35.684 17.366 L 35.487 17.531 L 35.316 17.726 L 35.178 17.948 L 35.079 18.195 L 35.043 18.335 L 35.021 18.473 L 35.011 18.608 L 35.015 18.740 L 35.030 18.870 L 35.059 18.995 L 35.100 19.117 L 35.153 19.235 L 35.218 19.349 L 35.296 19.458 L 35.385 19.562 L 35.487 19.660 L 35.328 19.974 L 35.048 19.944 L 34.784 19.966 L 34.538 20.036 L 34.315 20.148 L 34.116 20.299 L 33.945 20.482 L 33.806 20.693 L 33.702 20.926 L 33.635 21.176 L 33.610 21.439 L 33.629 21.709 L 33.695 21.982 L 33.743 22.107 L 33.800 22.225 L 33.866 22.335 L 33.940 22.436 L 34.023 22.529 L 34.114 22.613 L 34.213 22.688 L 34.320 22.753 L 34.434 22.809 L 34.555 22.855 L 34.682 22.890 L 34.816 22.915 L 34.872 23.307 L 34.562 23.517 L 34.337 23.773 L 34.192 24.064 L 34.124 24.376 L 34.125 24.696 L 34.191 25.012 L 34.318 25.312 L 34.498 25.582 L 34.729 25.811 L 35.003 25.985 L 35.316 26.091 L 35.663 26.118 L 35.025 26.340 L 34.400 26.597 L 33.790 26.888 L 33.198 27.211 L 32.624 27.568 L 32.070 27.957 L 31.538 28.379 L 31.029 28.832 L 30.546 29.316 L 30.088 29.832 L 29.659 30.378 L 29.260 30.954 L 28.588 32.139 L 28.291 32.788 L 28.037 33.446 L 27.824 34.114 L 27.653 34.790 L 27.523 35.470 L 27.434 36.155 L 27.384 36.843 L 27.375 37.531 L 27.404 38.217 L 27.472 38.902 L 27.578 39.581 L 27.721 40.255 L 27.563 39.912 L 27.335 39.644 L 27.054 39.449 L 26.736 39.327 L 26.397 39.275 L 26.053 39.293 L 25.721 39.377 L 25.417 39.527 L 25.157 39.742 L 24.957 40.018 L 24.834 40.356 L 24.803 40.753 L 24.424 40.912 L 24.174 40.672 L 23.898 40.512 L 23.606 40.426 L 23.307 40.410 L 23.010 40.456 L 22.726 40.560 L 22.463 40.714 L 22.231 40.915 L 22.039 41.155 L 21.897 41.429 L 21.815 41.731 L 21.802 42.055 L 21.810 42.131 L 21.822 42.205 L 21.839 42.278 L 21.860 42.350 L 21.885 42.420 L 21.915 42.489 L 21.948 42.556 L 21.985 42.621 L 22.025 42.684 L 22.115 42.806 L 22.165 42.864 L 21.976 43.168 L 21.692 43.108 L 21.422 43.105 L 21.168 43.153 L 20.933 43.248 L 20.721 43.382 L 20.535 43.551 L 20.379 43.750 L 20.254 43.973 L 20.165 44.214 L 20.115 44.469 L 20.107 44.730 L 20.143 44.994 L 20.183 45.133 L 20.232 45.263 L 20.292 45.385 L 20.361 45.498 L 20.439 45.602 L 20.527 45.697 L 20.623 45.783 L 20.728 45.858 L 20.842 45.924 L 20.963 45.980 L 21.093 46.025 L 21.230 46.059 L 21.249 46.411 L 20.992 46.524 L 20.774 46.676 L 20.596 46.859 L 20.459 47.068 L 20.362 47.298 L 20.306 47.542 L 20.291 47.793 L 20.317 48.047 L 20.384 48.297 L 20.494 48.538 L 20.645 48.763 L 20.839 48.965 L 20.943 49.050 L 21.051 49.124 L 21.163 49.186 L 21.279 49.237 L 21.397 49.276 L 21.518 49.303 L 21.641 49.318 L 21.766 49.322 L 21.892 49.313 L 22.020 49.292 L 22.148 49.259 L 22.277 49.213 L 22.522 49.525 L 22.364 49.840 L 22.292 50.153 L 22.297 50.457 L 22.371 50.747 L 22.504 51.014 L 22.689 51.252 L 22.917 51.454 L 23.179 51.613 L 23.468 51.722 L 23.774 51.774 L 24.089 51.762 L 24.405 51.680 L 23.984 52.187 L 23.592 52.716 L 23.228 53.265 L 22.895 53.833 L 22.593 54.418 L 22.323 55.021 L 22.087 55.640 L 21.885 56.274 L 21.719 56.921 L 21.590 57.581 L 21.498 58.253 L 21.445 58.935 L 21.464 60.329 L 21.539 61.056 L 21.658 61.770 L 21.820 62.469 L 22.023 63.154 L 22.266 63.822 L 22.548 64.471 L 22.867 65.102 L 23.222 65.711 L 23.612 66.299 L 24.035 66.864 L 24.490 67.404 L 24.976 67.918 L 24.948 67.928 L 24.714 67.697 L 24.453 67.537 L 24.172 67.445 L 23.881 67.415 L 23.590 67.444 L 23.307 67.526 L 23.041 67.657 L 22.802 67.833 L 22.599 68.050 L 22.441 68.303 L 22.338 68.586 L 22.297 68.897 L 22.298 68.967 L 22.302 69.036 L 22.310 69.104 L 22.321 69.170 L 22.336 69.236 L 22.354 69.301 L 22.375 69.364 L 22.426 69.488 L 22.456 69.548 L 22.524 69.665 L 22.275 69.993 L 21.939 69.911 L 21.620 69.911 L 21.324 69.984 L 21.057 70.119 L 20.824 70.308 L 20.629 70.539 L 20.479 70.805 L 20.378 71.094 L 20.333 71.398 L 20.347 71.705 L 20.427 72.008 L 20.578 72.295 L 20.623 72.356 L 20.670 72.414 L 20.721 72.469 L 20.775 72.520 L 20.832 72.568 L 20.892 72.613 L 20.954 72.654 L 21.018 72.692 L 21.085 72.727 L 21.153 72.759 L 21.295 72.813 L 21.283 73.172 L 21.009 73.262 L 20.774 73.395 L 20.578 73.563 L 20.423 73.762 L 20.306 73.984 L 20.230 74.224 L 20.193 74.474 L 20.197 74.729 L 20.240 74.982 L 20.324 75.228 L 20.448 75.459 L 20.612 75.669 L 20.715 75.770 L 20.823 75.858 L 20.935 75.934 L 21.051 75.997 L 21.171 76.048 L 21.294 76.087 L 21.420 76.112 L 21.549 76.125 L 21.680 76.126 L 21.813 76.113 L 21.947 76.088 L 22.083 76.049 L 22.274 76.348 L 22.109 76.575 L 21.997 76.815 L 21.936 77.062 L 21.922 77.312 L 21.954 77.558 L 22.027 77.797 L 22.141 78.022 L 22.290 78.228 L 22.474 78.411 L 22.689 78.564 L 22.931 78.682 L 23.200 78.761 L 23.333 78.782 L 23.464 78.792 L 23.592 78.789 L 23.718 78.776 L 23.840 78.750 L 23.958 78.713 L 24.073 78.665 L 24.183 78.605 L 24.288 78.534 L 24.388 78.452 L 24.482 78.358 L 24.571 78.254 L 24.937 78.404 L 24.949 78.681 L 25.010 78.935 L 25.115 79.163 L 25.257 79.363 L 25.432 79.535 L 25.635 79.675 L 25.859 79.782 L 26.099 79.854 L 26.349 79.889 L 26.605 79.885 L 26.860 79.839 L 27.109 79.751 L 27.578 79.395 L 27.476 80.040 L 27.408 80.690 L 27.376 81.342 L 27.378 81.996 L 27.416 82.649 L 27.490 83.300 L 27.600 83.948 L 27.748 84.592 L 27.932 85.229 L 28.154 85.859 L 28.414 86.481 L 28.712 87.092 L 29.862 88.872 L 30.326 89.427 L 30.820 89.950 L 31.342 90.438 L 31.890 90.891 L 32.462 91.309 L 33.057 91.692 L 33.673 92.039 L 34.307 92.349 L 34.959 92.623 L 35.626 92.859 L 36.306 93.057 L 36.242 93.129 L 36.064 93.073 L 35.886 93.042 L 35.709 93.035 L 35.535 93.050 L 35.365 93.088 L 35.202 93.147 L 35.046 93.226 L 34.899 93.323 L 34.763 93.439 L 34.639 93.572 L 34.529 93.722 L 34.435 93.886 L 34.355 94.073 L 34.299 94.261 L 34.267 94.451 L 34.259 94.639 L 34.274 94.823 L 34.313 95.002 L 34.374 95.173 L 34.457 95.334 L 34.564 95.485 L 34.692 95.621 L 34.842 95.742 L 35.014 95.845 L 34.962 96.253 L 34.629 96.349 L 34.353 96.508 L 34.133 96.719 L 33.969 96.970 L 33.860 97.250 L 33.808 97.548 L 33.810 97.853 L 33.868 98.154 L 33.980 98.440 L 34.147 98.699 L 34.367 98.921 L 34.642 99.094 L 34.711 99.126 L 34.781 99.152 L 34.853 99.174 L 34.926 99.192 L 34.999 99.205 L 35.073 99.214 L 35.148 99.219 L 35.223 99.220 L 35.449 99.199 Z M 78.233 13.939 L 77.821 13.436 L 77.213 13.395 L 77.050 13.470 L 76.683 14.152 L 76.676 14.265 L 76.649 14.487 L 76.631 14.596 L 76.584 14.812 L 76.524 15.024 L 76.452 15.234 L 76.369 15.440 L 76.216 15.745 L 76.051 16.038 L 75.876 16.320 L 75.690 16.594 L 75.495 16.859 L 75.292 17.118 L 75.083 17.372 L 74.868 17.623 L 73.969 18.614 L 73.537 18.009 L 73.051 17.458 L 72.518 16.963 L 71.941 16.525 L 71.327 16.147 L 70.679 15.831 L 70.003 15.579 L 69.303 15.392 L 68.586 15.273 L 67.855 15.224 L 67.116 15.246 L 66.374 15.342 L 66.561 13.862 L 66.923 12.446 L 67.446 11.105 L 68.120 9.853 L 68.931 8.702 L 69.869 7.665 L 70.922 6.752 L 72.076 5.978 L 73.321 5.355 L 74.643 4.894 L 76.032 4.608 L 77.476 4.510 L 78.920 4.608 L 80.309 4.894 L 81.632 5.355 L 82.878 5.980 L 84.032 6.754 L 85.085 7.667 L 86.023 8.706 L 86.835 9.858 L 87.508 11.111 L 88.031 12.452 L 88.392 13.870 L 88.578 15.351 L 88.220 15.301 L 87.861 15.270 L 87.503 15.257 L 87.145 15.260 L 86.790 15.281 L 86.436 15.319 L 86.085 15.373 L 85.738 15.443 L 85.394 15.530 L 85.055 15.632 L 84.721 15.750 L 84.393 15.882 L 84.051 16.046 L 83.720 16.222 L 83.399 16.410 L 83.089 16.611 L 82.790 16.824 L 82.503 17.051 L 82.227 17.290 L 81.963 17.542 L 81.711 17.808 L 81.471 18.087 L 81.244 18.380 L 81.030 18.687 L 80.439 18.051 L 80.129 17.711 L 79.818 17.357 L 79.516 16.991 L 79.229 16.613 L 78.965 16.224 L 78.733 15.825 L 78.538 15.416 L 78.390 14.999 L 78.296 14.575 Z M 34.195 58.004 L 33.796 58.237 L 33.388 58.431 L 32.970 58.579 L 32.545 58.673 L 31.911 58.736 L 31.409 59.147 L 31.374 59.231 L 31.373 59.756 L 31.449 59.917 L 32.125 60.286 L 32.237 60.293 L 32.349 60.304 L 32.459 60.319 L 32.569 60.338 L 32.785 60.385 L 32.891 60.413 L 33.102 60.479 L 33.413 60.599 L 33.715 60.751 L 34.006 60.915 L 34.289 61.091 L 34.563 61.277 L 34.830 61.473 L 35.091 61.677 L 35.347 61.888 L 35.600 62.104 L 36.589 63.000 L 35.983 63.432 L 35.432 63.917 L 34.936 64.451 L 34.498 65.027 L 34.120 65.642 L 33.804 66.290 L 33.552 66.966 L 33.365 67.665 L 33.246 68.382 L 33.197 69.112 L 33.219 69.851 L 33.314 70.593 L 31.834 70.406 L 30.417 70.044 L 29.077 69.521 L 27.825 68.848 L 26.674 68.036 L 25.636 67.098 L 24.723 66.046 L 23.949 64.892 L 23.325 63.648 L 22.864 62.325 L 22.579 60.936 L 22.481 59.494 L 22.579 58.050 L 22.865 56.661 L 23.326 55.338 L 23.951 54.093 L 24.726 52.938 L 25.639 51.886 L 26.678 50.948 L 27.830 50.137 L 29.083 49.463 L 30.425 48.940 L 31.842 48.580 L 33.324 48.393 L 33.274 48.752 L 33.243 49.110 L 33.229 49.468 L 33.233 49.826 L 33.254 50.181 L 33.292 50.535 L 33.346 50.885 L 33.416 51.233 L 33.503 51.576 L 33.605 51.915 L 33.722 52.249 L 33.855 52.578 L 34.018 52.918 L 34.194 53.249 L 34.381 53.569 L 34.582 53.879 L 34.795 54.178 L 35.022 54.466 L 35.261 54.742 L 35.514 55.007 L 35.780 55.259 L 36.059 55.499 L 36.353 55.726 L 36.660 55.941 L 36.022 56.532 L 35.682 56.843 L 35.329 57.153 L 34.962 57.455 L 34.584 57.741 Z M 120.155 64.808 L 119.929 64.521 L 119.689 64.245 L 119.437 63.980 L 119.171 63.728 L 118.891 63.488 L 118.598 63.261 L 118.291 63.047 L 119.354 62.072 L 119.588 61.867 L 119.824 61.666 L 120.060 61.473 L 120.295 61.292 L 120.525 61.125 L 120.748 60.977 L 120.964 60.850 L 121.130 60.761 L 121.287 60.681 L 121.436 60.610 L 121.581 60.546 L 121.722 60.491 L 121.863 60.442 L 122.006 60.401 L 122.153 60.366 L 122.306 60.337 L 122.467 60.313 L 122.639 60.295 L 123.040 60.251 L 123.543 59.840 L 123.577 59.756 L 123.578 59.231 L 123.502 59.070 L 122.827 58.702 L 122.714 58.694 L 122.603 58.683 L 122.492 58.668 L 122.274 58.627 L 122.060 58.574 L 121.849 58.508 L 121.641 58.430 L 121.538 58.387 L 121.236 58.236 L 120.944 58.071 L 120.662 57.895 L 120.388 57.709 L 120.121 57.513 L 119.860 57.310 L 119.604 57.100 L 119.353 56.884 L 119.104 56.664 L 118.364 55.989 L 118.969 55.553 L 119.520 55.066 L 120.016 54.533 L 120.454 53.958 L 120.832 53.345 L 121.148 52.699 L 121.401 52.025 L 121.588 51.328 L 121.708 50.611 L 121.757 49.881 L 121.735 49.140 L 121.638 48.394 L 123.118 48.581 L 124.535 48.943 L 125.875 49.466 L 127.127 50.140 L 128.278 50.952 L 129.316 51.889 L 130.228 52.941 L 131.002 54.095 L 131.626 55.340 L 132.087 56.662 L 132.373 58.051 L 132.471 59.494 L 132.372 60.937 L 132.087 62.326 L 131.625 63.649 L 131.001 64.893 L 130.226 66.048 L 129.313 67.100 L 128.274 68.038 L 127.122 68.850 L 125.869 69.523 L 124.527 70.046 L 123.110 70.407 L 121.629 70.593 L 121.678 70.235 L 121.709 69.876 L 121.723 69.518 L 121.719 69.161 L 121.698 68.806 L 121.660 68.452 L 121.606 68.101 L 121.535 67.754 L 121.449 67.411 L 121.347 67.072 L 121.229 66.737 L 121.096 66.409 L 120.933 66.068 L 120.758 65.737 L 120.569 65.417 L 120.369 65.107 Z M 37.418 36.675 L 37.404 36.851 L 37.805 37.508 L 37.898 37.571 L 37.989 37.637 L 38.077 37.705 L 38.163 37.776 L 38.246 37.849 L 38.405 38.003 L 38.481 38.083 L 38.696 38.336 L 38.764 38.425 L 38.950 38.708 L 39.120 38.996 L 39.277 39.290 L 39.421 39.589 L 39.555 39.892 L 39.679 40.198 L 39.795 40.509 L 39.905 40.822 L 40.113 41.455 L 40.314 42.094 L 39.573 42.165 L 38.853 42.308 L 38.157 42.521 L 37.490 42.800 L 36.856 43.142 L 36.259 43.543 L 35.703 44.000 L 35.192 44.511 L 34.731 45.071 L 34.323 45.678 L 33.973 46.328 L 33.684 47.017 L 32.496 46.115 L 31.451 45.095 L 30.552 43.972 L 29.804 42.764 L 29.212 41.487 L 28.782 40.157 L 28.517 38.792 L 28.423 37.407 L 28.504 36.019 L 28.766 34.644 L 29.212 33.300 L 29.848 32.002 L 30.655 30.801 L 31.597 29.742 L 32.658 28.828 L 33.820 28.063 L 35.068 27.453 L 36.384 26.999 L 37.752 26.708 L 39.155 26.582 L 40.576 26.626 L 41.999 26.845 L 43.407 27.241 L 44.783 27.820 L 44.563 28.105 L 44.359 28.399 L 44.170 28.701 L 43.996 29.011 L 43.837 29.329 L 43.694 29.653 L 43.566 29.983 L 43.454 30.319 L 43.357 30.659 L 43.276 31.003 L 43.211 31.350 L 43.162 31.700 L 43.133 32.076 L 43.119 32.450 L 43.121 32.821 L 43.139 33.190 L 43.174 33.556 L 43.225 33.919 L 43.294 34.278 L 43.380 34.634 L 43.483 34.986 L 43.604 35.333 L 43.744 35.676 L 43.902 36.014 L 43.056 36.207 L 42.607 36.306 L 42.146 36.397 L 41.678 36.476 L 41.207 36.535 L 40.739 36.569 L 40.277 36.571 L 39.826 36.535 L 39.391 36.454 L 38.977 36.324 L 38.394 36.059 L 37.753 36.165 L 37.682 36.221 Z M 54.653 19.446 L 54.197 19.707 L 54.096 19.853 L 54.114 20.623 L 54.164 20.724 L 54.210 20.826 L 54.291 21.034 L 54.326 21.138 L 54.358 21.244 L 54.387 21.351 L 54.435 21.566 L 54.455 21.675 L 54.486 21.895 L 54.506 22.234 L 54.510 22.569 L 54.498 22.902 L 54.474 23.232 L 54.438 23.561 L 54.392 23.888 L 54.338 24.215 L 54.277 24.540 L 53.996 25.844 L 53.317 25.538 L 52.620 25.304 L 51.912 25.141 L 51.196 25.049 L 50.477 25.027 L 49.761 25.076 L 49.052 25.193 L 48.356 25.379 L 47.676 25.633 L 47.019 25.954 L 46.389 26.343 L 45.790 26.798 L 45.213 25.423 L 44.818 24.016 L 44.601 22.594 L 44.557 21.174 L 44.683 19.773 L 44.975 18.406 L 45.429 17.091 L 46.040 15.845 L 46.805 14.683 L 47.719 13.623 L 48.778 12.682 L 49.978 11.876 L 51.277 11.240 L 52.623 10.793 L 53.998 10.532 L 55.388 10.451 L 56.774 10.546 L 58.141 10.811 L 59.471 11.243 L 60.749 11.835 L 61.958 12.584 L 63.081 13.485 L 64.101 14.532 L 65.003 15.721 L 64.331 16.017 L 63.696 16.376 L 63.104 16.793 L 62.555 17.263 L 62.055 17.783 L 61.605 18.346 L 61.209 18.948 L 60.870 19.584 L 60.591 20.250 L 60.376 20.941 L 60.227 21.652 L 60.148 22.378 L 57.761 21.573 L 57.294 21.360 L 56.897 21.147 L 56.562 20.935 L 56.284 20.730 L 56.056 20.532 L 55.872 20.347 L 55.727 20.177 L 55.613 20.025 L 55.524 19.895 L 55.455 19.789 L 55.399 19.710 L 55.350 19.663 Z M 100.300 19.445 L 100.122 19.430 L 99.465 19.831 L 99.402 19.925 L 99.268 20.104 L 99.124 20.272 L 99.049 20.352 L 98.891 20.506 L 98.724 20.652 L 98.549 20.789 L 98.266 20.975 L 97.978 21.146 L 97.684 21.302 L 97.386 21.447 L 97.083 21.580 L 96.776 21.704 L 96.466 21.821 L 96.153 21.931 L 95.837 22.036 L 94.881 22.339 L 94.811 21.598 L 94.668 20.878 L 94.456 20.182 L 94.178 19.516 L 93.836 18.882 L 93.435 18.285 L 92.978 17.730 L 92.467 17.219 L 91.906 16.758 L 91.298 16.350 L 90.647 16.000 L 89.954 15.711 L 90.857 14.523 L 91.878 13.478 L 93.000 12.579 L 94.209 11.832 L 95.486 11.240 L 96.816 10.810 L 98.182 10.545 L 99.567 10.451 L 100.955 10.532 L 102.330 10.794 L 103.675 11.240 L 104.973 11.876 L 106.174 12.683 L 107.233 13.624 L 108.147 14.685 L 108.912 15.847 L 109.523 17.094 L 109.977 18.410 L 110.268 19.778 L 110.394 21.181 L 110.350 22.602 L 110.132 24.024 L 109.735 25.432 L 109.156 26.807 L 108.871 26.588 L 108.577 26.383 L 108.275 26.194 L 107.964 26.020 L 107.646 25.862 L 107.322 25.718 L 106.992 25.591 L 106.657 25.479 L 106.317 25.382 L 105.973 25.301 L 105.625 25.236 L 105.275 25.187 L 104.900 25.158 L 104.527 25.145 L 104.156 25.147 L 103.787 25.165 L 103.421 25.200 L 103.058 25.251 L 102.698 25.320 L 102.342 25.405 L 101.990 25.509 L 101.642 25.630 L 101.298 25.770 L 100.960 25.928 L 100.770 25.095 L 100.673 24.652 L 100.582 24.199 L 100.503 23.739 L 100.443 23.276 L 100.407 22.814 L 100.401 22.359 L 100.431 21.915 L 100.503 21.484 L 100.623 21.073 L 100.914 20.420 L 100.809 19.779 L 100.753 19.708 Z M 37.681 82.767 L 37.827 82.868 L 38.596 82.850 L 38.697 82.801 L 38.903 82.712 L 39.112 82.638 L 39.218 82.606 L 39.540 82.529 L 39.759 82.492 L 39.869 82.478 L 40.053 82.465 L 40.236 82.457 L 40.418 82.454 L 40.600 82.455 L 40.782 82.461 L 40.963 82.470 L 41.324 82.500 L 42.041 82.598 L 43.819 82.969 L 43.512 83.644 L 43.277 84.338 L 43.114 85.047 L 43.022 85.763 L 43.002 86.483 L 43.051 87.201 L 43.169 87.912 L 43.356 88.610 L 43.611 89.291 L 43.932 89.948 L 44.320 90.577 L 44.772 91.172 L 43.397 91.750 L 41.990 92.145 L 40.568 92.362 L 39.148 92.405 L 37.746 92.279 L 36.379 91.987 L 35.064 91.533 L 33.817 90.922 L 32.656 90.158 L 31.596 89.244 L 30.655 88.185 L 29.848 86.985 L 29.212 85.687 L 28.765 84.341 L 28.504 82.966 L 28.423 81.577 L 28.518 80.192 L 28.783 78.825 L 29.214 77.495 L 29.807 76.217 L 30.556 75.009 L 31.457 73.886 L 32.504 72.865 L 33.693 71.964 L 33.830 72.298 L 33.982 72.623 L 34.149 72.940 L 34.330 73.247 L 34.526 73.544 L 34.734 73.830 L 34.955 74.106 L 35.189 74.371 L 35.434 74.625 L 35.691 74.866 L 35.958 75.096 L 36.236 75.313 L 36.547 75.528 L 36.863 75.727 L 37.185 75.910 L 37.511 76.078 L 37.844 76.229 L 38.182 76.365 L 38.527 76.483 L 38.878 76.585 L 39.236 76.670 L 39.600 76.737 L 39.972 76.787 L 40.352 76.819 L 40.096 77.650 L 39.956 78.089 L 39.805 78.534 L 39.640 78.978 L 39.456 79.415 L 39.251 79.837 L 39.022 80.237 L 38.766 80.609 L 38.478 80.946 L 38.157 81.241 L 37.637 81.614 L 37.407 82.222 Z M 57.566 97.540 L 57.869 97.407 L 58.176 97.283 L 58.486 97.167 L 58.799 97.057 L 59.115 96.951 L 60.071 96.647 L 60.141 97.389 L 60.284 98.109 L 60.496 98.805 L 60.774 99.471 L 61.115 100.105 L 61.516 100.702 L 61.973 101.257 L 62.483 101.768 L 63.044 102.229 L 63.652 102.637 L 64.303 102.988 L 64.996 103.277 L 64.093 104.464 L 63.072 105.509 L 61.950 106.408 L 60.741 107.156 L 59.464 107.747 L 58.134 108.177 L 56.768 108.442 L 55.383 108.536 L 53.995 108.455 L 52.620 108.193 L 51.276 107.747 L 49.978 107.111 L 48.777 106.305 L 47.718 105.363 L 46.804 104.303 L 46.039 103.140 L 45.428 101.893 L 44.975 100.577 L 44.683 99.210 L 44.557 97.807 L 44.601 96.386 L 44.819 94.964 L 45.216 93.557 L 45.794 92.181 L 46.386 92.613 L 47.014 92.982 L 47.672 93.285 L 48.353 93.525 L 49.054 93.699 L 49.767 93.807 L 50.486 93.849 L 51.208 93.826 L 51.924 93.735 L 52.631 93.577 L 53.322 93.352 L 53.991 93.058 L 54.486 95.521 L 54.535 96.034 L 54.549 96.487 L 54.533 96.884 L 54.494 97.228 L 54.437 97.525 L 54.368 97.777 L 54.294 97.988 L 54.219 98.162 L 54.093 98.416 L 54.053 98.502 L 54.037 98.568 L 54.142 99.207 L 54.198 99.279 L 54.654 99.539 L 54.830 99.553 L 55.486 99.156 L 55.549 99.063 L 55.615 98.972 L 55.683 98.884 L 55.754 98.798 L 55.827 98.715 L 55.980 98.556 L 56.227 98.335 L 56.402 98.198 L 56.685 98.012 L 56.974 97.841 L 57.267 97.684 Z M 117.315 37.372 L 117.544 36.765 L 117.532 36.675 L 117.270 36.220 L 117.124 36.119 L 116.355 36.137 L 116.253 36.187 L 116.151 36.233 L 116.048 36.275 L 115.944 36.314 L 115.839 36.349 L 115.733 36.381 L 115.411 36.458 L 115.302 36.478 L 115.082 36.509 L 114.745 36.529 L 114.411 36.533 L 114.079 36.521 L 113.748 36.497 L 113.419 36.461 L 113.091 36.415 L 112.764 36.361 L 112.438 36.300 L 111.134 36.019 L 111.441 35.343 L 111.676 34.649 L 111.838 33.940 L 111.930 33.224 L 111.950 32.504 L 111.901 31.786 L 111.783 31.075 L 111.596 30.377 L 111.341 29.696 L 111.020 29.039 L 110.632 28.410 L 110.179 27.815 L 111.554 27.238 L 112.961 26.843 L 114.383 26.626 L 115.803 26.582 L 117.205 26.709 L 118.572 27.001 L 119.887 27.454 L 121.134 28.065 L 122.296 28.829 L 123.355 29.743 L 124.297 30.802 L 125.103 32.002 L 125.739 33.300 L 126.186 34.645 L 126.447 36.021 L 126.528 37.409 L 126.434 38.795 L 126.168 40.161 L 125.737 41.492 L 125.144 42.769 L 124.396 43.978 L 123.495 45.100 L 122.448 46.121 L 121.259 47.023 L 121.123 46.688 L 120.970 46.363 L 120.803 46.047 L 120.622 45.740 L 120.426 45.443 L 120.218 45.156 L 119.996 44.881 L 119.763 44.616 L 119.517 44.362 L 119.260 44.120 L 118.993 43.890 L 118.715 43.673 L 118.402 43.458 L 118.084 43.258 L 117.760 43.074 L 117.431 42.906 L 117.097 42.754 L 116.757 42.619 L 116.411 42.500 L 116.060 42.399 L 115.703 42.314 L 115.341 42.247 L 114.973 42.198 L 114.599 42.168 L 114.854 41.342 L 114.994 40.904 L 115.146 40.457 L 115.313 40.010 L 115.498 39.570 L 115.704 39.146 L 115.934 38.743 L 116.191 38.369 L 116.478 38.033 L 116.797 37.741 L 117.151 37.500 Z M 93.298 100.722 L 93.080 101.000 L 92.851 101.268 L 92.609 101.525 L 92.356 101.771 L 92.091 102.005 L 91.815 102.226 L 91.529 102.435 L 91.232 102.630 L 90.925 102.812 L 90.609 102.979 L 90.284 103.131 L 89.949 103.268 L 90.851 104.457 L 91.872 105.503 L 92.995 106.403 L 94.204 107.152 L 95.482 107.744 L 96.813 108.176 L 98.179 108.441 L 99.565 108.536 L 100.954 108.455 L 102.329 108.194 L 103.674 107.747 L 104.973 107.111 L 106.173 106.305 L 107.232 105.364 L 108.146 104.305 L 108.910 103.143 L 109.522 101.897 L 109.975 100.582 L 110.268 99.215 L 110.394 97.814 L 110.351 96.394 L 110.134 94.972 L 109.739 93.565 L 109.162 92.191 L 108.875 92.421 L 108.579 92.635 L 108.277 92.833 L 107.967 93.016 L 107.650 93.182 L 107.328 93.333 L 107.001 93.467 L 106.669 93.586 L 106.333 93.688 L 105.993 93.774 L 105.651 93.845 L 105.306 93.899 L 104.921 93.936 L 104.546 93.958 L 104.179 93.964 L 103.819 93.954 L 103.464 93.925 L 103.111 93.877 L 102.760 93.810 L 102.407 93.721 L 102.053 93.611 L 101.694 93.478 L 101.329 93.322 L 100.956 93.141 L 100.741 94.121 L 100.675 94.446 L 100.613 94.772 L 100.559 95.099 L 100.513 95.427 L 100.477 95.755 L 100.453 96.086 L 100.442 96.419 L 100.445 96.754 L 100.465 97.091 L 100.479 97.202 L 100.496 97.312 L 100.539 97.530 L 100.593 97.744 L 100.625 97.850 L 100.699 98.059 L 100.742 98.162 L 100.788 98.264 L 100.837 98.365 L 100.855 99.134 L 100.754 99.280 L 100.299 99.542 L 100.299 99.541 L 100.209 99.551 L 99.603 99.330 L 99.232 98.805 L 98.940 98.485 L 98.603 98.198 L 98.230 97.942 L 97.828 97.712 L 97.403 97.506 L 96.964 97.321 L 96.518 97.155 L 96.072 97.003 L 95.632 96.864 L 94.805 96.609 L 94.774 96.983 L 94.724 97.351 L 94.656 97.713 L 94.571 98.070 L 94.469 98.421 L 94.350 98.766 L 94.214 99.106 L 94.062 99.440 L 93.895 99.769 L 93.711 100.092 L 93.512 100.410 Z M 116.557 82.927 L 117.198 82.822 L 117.533 82.313 L 117.547 82.135 L 117.146 81.478 L 117.052 81.415 L 116.962 81.350 L 116.873 81.281 L 116.788 81.211 L 116.624 81.062 L 116.470 80.904 L 116.187 80.561 L 116.001 80.279 L 115.831 79.990 L 115.674 79.696 L 115.530 79.398 L 115.396 79.095 L 115.272 78.788 L 115.156 78.478 L 115.046 78.165 L 114.637 76.894 L 115.384 76.820 L 116.107 76.677 L 116.804 76.466 L 117.470 76.190 L 118.103 75.853 L 118.698 75.455 L 119.251 75.001 L 119.759 74.493 L 120.219 73.933 L 120.626 73.324 L 120.977 72.669 L 121.268 71.970 L 122.456 72.872 L 123.501 73.893 L 124.400 75.016 L 125.148 76.224 L 125.739 77.501 L 126.170 78.830 L 126.434 80.196 L 126.528 81.581 L 126.447 82.969 L 126.186 84.343 L 125.739 85.687 L 125.103 86.985 L 124.296 88.185 L 123.355 89.245 L 122.294 90.159 L 121.132 90.923 L 119.884 91.534 L 118.568 91.987 L 117.200 92.279 L 115.797 92.405 L 114.376 92.360 L 112.953 92.142 L 111.546 91.746 L 110.171 91.168 L 110.390 90.883 L 110.594 90.589 L 110.784 90.287 L 110.958 89.976 L 111.116 89.659 L 111.259 89.334 L 111.387 89.004 L 111.499 88.669 L 111.596 88.329 L 111.677 87.985 L 111.742 87.637 L 111.791 87.287 L 111.822 86.898 L 111.836 86.518 L 111.834 86.147 L 111.816 85.784 L 111.782 85.426 L 111.730 85.072 L 111.662 84.722 L 111.575 84.375 L 111.472 84.028 L 111.350 83.680 L 111.211 83.331 L 111.894 82.780 L 112.343 82.682 L 112.805 82.590 L 113.274 82.511 L 113.746 82.452 L 114.215 82.418 L 114.678 82.416 L 115.129 82.452 L 115.563 82.532 L 115.977 82.663 Z M 87.834 103.741 L 88.577 103.645 L 88.390 105.125 L 88.029 106.541 L 87.505 107.882 L 86.832 109.134 L 86.020 110.285 L 85.082 111.323 L 84.030 112.235 L 82.875 113.009 L 81.631 113.633 L 80.308 114.093 L 78.919 114.379 L 77.476 114.477 L 76.032 114.379 L 74.642 114.093 L 73.319 113.632 L 72.074 113.007 L 70.919 112.233 L 69.867 111.320 L 68.929 110.281 L 68.117 109.129 L 67.443 107.876 L 66.920 106.535 L 66.559 105.117 L 66.373 103.636 L 66.730 103.686 L 67.087 103.718 L 67.444 103.732 L 67.799 103.730 L 68.153 103.711 L 68.505 103.674 L 68.855 103.621 L 69.202 103.552 L 69.547 103.465 L 69.888 103.363 L 70.226 103.244 L 70.559 103.109 L 70.900 102.947 L 71.231 102.772 L 71.551 102.584 L 71.861 102.384 L 72.159 102.171 L 72.446 101.945 L 72.722 101.706 L 72.986 101.453 L 73.239 101.186 L 73.479 100.906 L 73.707 100.611 L 73.922 100.301 L 74.513 100.937 L 74.823 101.277 L 75.133 101.630 L 75.436 101.996 L 75.722 102.374 L 75.986 102.763 L 76.219 103.163 L 76.413 103.571 L 76.561 103.988 L 76.655 104.412 L 76.718 105.048 L 77.130 105.551 L 77.213 105.585 L 77.475 105.586 Z M 129.298 50.344 L 129.263 50.409 L 128.791 50.024 L 128.300 49.661 L 127.791 49.321 L 127.264 49.004 L 126.720 48.713 L 126.161 48.446 L 125.587 48.206 L 124.998 47.993 L 124.396 47.807 L 123.782 47.651 L 123.156 47.523 L 122.519 47.426 L 123.033 47.015 L 123.521 46.582 L 123.983 46.129 L 124.419 45.657 L 124.828 45.166 L 125.210 44.659 L 125.566 44.135 L 125.893 43.598 L 126.193 43.047 L 126.464 42.484 L 126.707 41.910 L 126.921 41.326 L 127.840 41.238 L 128.436 41.205 L 129.022 41.251 L 129.592 41.371 L 130.138 41.561 L 130.656 41.817 L 131.137 42.137 L 131.575 42.515 L 131.964 42.948 L 132.296 43.433 L 132.566 43.965 L 132.767 44.540 L 132.891 45.145 L 132.931 45.747 L 132.892 46.339 L 132.778 46.914 L 132.592 47.466 L 132.337 47.988 L 132.019 48.474 L 131.640 48.916 L 131.204 49.309 L 130.715 49.645 L 130.178 49.918 L 129.520 50.147 L 129.453 50.184 L 129.422 50.206 Z M 114.729 17.674 L 115.305 17.710 L 115.874 17.818 L 116.428 17.999 L 116.958 18.252 L 117.458 18.578 L 117.920 18.976 L 118.329 19.438 L 118.664 19.938 L 118.926 20.470 L 119.114 21.026 L 119.228 21.597 L 119.269 22.177 L 119.236 22.757 L 119.129 23.330 L 118.948 23.888 L 118.694 24.423 L 118.365 24.928 L 117.827 25.650 L 117.816 25.745 L 117.212 25.645 L 116.603 25.574 L 115.989 25.533 L 115.371 25.521 L 114.752 25.539 L 114.131 25.587 L 113.511 25.666 L 112.891 25.775 L 112.275 25.916 L 111.661 26.087 L 111.053 26.291 L 110.450 26.526 L 110.687 25.920 L 110.891 25.308 L 111.063 24.691 L 111.204 24.070 L 111.313 23.448 L 111.392 22.824 L 111.439 22.199 L 111.456 21.576 L 111.443 20.956 L 111.399 20.339 L 111.326 19.726 L 111.224 19.119 L 112.001 18.580 L 112.500 18.254 L 113.031 18.000 L 113.584 17.819 L 114.153 17.710 Z M 126.847 77.456 L 126.630 76.892 L 126.386 76.338 L 126.115 75.795 L 125.817 75.263 L 125.494 74.744 L 125.144 74.238 L 124.769 73.748 L 124.368 73.274 L 123.943 72.817 L 123.493 72.378 L 123.018 71.959 L 122.519 71.561 L 123.174 71.460 L 123.818 71.328 L 124.449 71.165 L 125.067 70.971 L 125.671 70.748 L 126.260 70.497 L 126.833 70.218 L 127.389 69.912 L 127.927 69.581 L 128.446 69.224 L 128.946 68.844 L 129.425 68.440 L 130.224 68.779 L 130.756 69.048 L 131.241 69.381 L 131.675 69.769 L 132.053 70.208 L 132.373 70.688 L 132.630 71.206 L 132.820 71.752 L 132.941 72.322 L 132.987 72.908 L 132.955 73.503 L 132.841 74.102 L 132.645 74.687 L 132.379 75.228 L 132.050 75.720 L 131.663 76.161 L 131.225 76.546 L 130.744 76.871 L 130.225 77.132 L 129.675 77.326 L 129.101 77.449 L 128.510 77.496 L 127.908 77.464 L 127.261 77.340 L 127.179 77.333 L 127.138 77.335 L 127.099 77.340 L 127.021 77.360 L 126.984 77.374 L 126.913 77.410 Z M 111.061 92.699 L 111.679 92.905 L 112.303 93.080 L 112.930 93.222 L 113.562 93.332 L 114.196 93.409 L 114.832 93.455 L 115.470 93.468 L 116.107 93.449 L 116.744 93.399 L 117.380 93.316 L 118.014 93.201 L 118.517 93.822 L 118.843 94.321 L 119.096 94.851 L 119.278 95.404 L 119.387 95.973 L 119.423 96.549 L 119.387 97.126 L 119.278 97.694 L 119.098 98.248 L 118.844 98.778 L 118.519 99.278 L 118.120 99.740 L 117.659 100.149 L 117.158 100.484 L 116.626 100.746 L 116.070 100.934 L 115.499 101.048 L 114.919 101.089 L 114.339 101.055 L 113.766 100.949 L 113.208 100.768 L 112.673 100.513 L 112.167 100.185 L 111.637 99.730 L 111.603 99.708 L 111.496 99.661 L 111.458 99.651 L 111.381 99.640 L 111.303 99.640 L 111.265 99.644 L 111.354 99.054 L 111.415 98.458 L 111.449 97.859 L 111.454 97.257 L 111.431 96.652 L 111.379 96.047 L 111.298 95.443 L 111.188 94.839 L 111.048 94.238 L 110.879 93.640 L 110.679 93.047 L 110.449 92.460 Z M 87.968 9.717 L 87.651 9.190 L 87.311 8.681 L 86.948 8.190 L 86.563 7.718 L 86.752 7.450 L 86.953 6.875 L 87.222 6.343 L 87.555 5.858 L 87.944 5.425 L 88.382 5.047 L 88.863 4.727 L 89.380 4.470 L 89.927 4.280 L 90.497 4.160 L 91.083 4.114 L 91.678 4.145 L 92.277 4.259 L 92.862 4.454 L 93.402 4.720 L 93.895 5.050 L 94.336 5.437 L 94.720 5.875 L 95.045 6.357 L 95.307 6.876 L 95.501 7.425 L 95.623 7.999 L 95.671 8.590 L 95.639 9.191 L 95.544 10.096 L 94.970 10.311 L 94.406 10.554 L 93.853 10.825 L 93.311 11.124 L 92.783 11.449 L 92.268 11.802 L 91.770 12.180 L 91.287 12.585 L 90.822 13.016 L 90.376 13.472 L 89.950 13.953 L 89.545 14.459 L 89.448 13.823 L 89.321 13.197 L 89.164 12.583 L 88.979 11.982 L 88.766 11.393 L 88.526 10.819 L 88.259 10.260 Z M 94.577 113.391 L 94.143 113.780 L 93.658 114.113 L 93.126 114.383 L 92.551 114.584 L 91.945 114.708 L 91.343 114.748 L 90.752 114.709 L 90.176 114.595 L 89.625 114.409 L 89.103 114.154 L 88.617 113.836 L 88.175 113.457 L 87.782 113.021 L 87.446 112.533 L 87.173 111.995 L 86.930 111.310 L 86.713 111.090 L 87.078 110.627 L 87.422 110.146 L 87.745 109.647 L 88.045 109.133 L 88.321 108.603 L 88.574 108.058 L 88.802 107.500 L 89.004 106.928 L 89.181 106.344 L 89.330 105.749 L 89.452 105.142 L 89.545 104.526 L 89.961 105.045 L 90.400 105.538 L 90.859 106.005 L 91.339 106.445 L 91.836 106.858 L 92.351 107.243 L 92.882 107.601 L 93.427 107.930 L 93.987 108.230 L 94.558 108.502 L 95.140 108.743 L 95.733 108.956 L 95.853 109.657 L 95.886 110.252 L 95.840 110.838 L 95.721 111.408 L 95.531 111.955 L 95.274 112.472 L 94.955 112.953 Z M 66.160 4.764 L 66.645 5.082 L 67.088 5.462 L 67.480 5.897 L 67.816 6.385 L 68.088 6.923 L 68.400 7.704 L 68.014 8.177 L 67.649 8.668 L 67.308 9.178 L 66.990 9.706 L 66.697 10.250 L 66.430 10.811 L 66.188 11.386 L 65.974 11.976 L 65.788 12.579 L 65.631 13.194 L 65.503 13.821 L 65.406 14.459 L 65.007 13.960 L 64.588 13.486 L 64.149 13.036 L 63.692 12.610 L 63.218 12.210 L 62.728 11.835 L 62.222 11.485 L 61.703 11.162 L 61.171 10.865 L 60.627 10.594 L 60.073 10.350 L 59.509 10.133 L 59.406 9.259 L 59.374 8.664 L 59.419 8.078 L 59.539 7.508 L 59.729 6.962 L 59.986 6.444 L 60.306 5.963 L 60.684 5.525 L 61.117 5.136 L 61.602 4.803 L 62.134 4.533 L 62.709 4.332 L 63.315 4.209 L 63.917 4.169 L 64.509 4.208 L 65.085 4.323 L 65.637 4.509 Z M 59.738 108.888 L 59.701 108.780 L 60.246 108.561 L 60.782 108.316 L 61.308 108.046 L 61.822 107.751 L 62.323 107.431 L 62.812 107.087 L 63.286 106.719 L 63.745 106.327 L 64.187 105.911 L 64.612 105.472 L 65.018 105.010 L 65.406 104.526 L 65.506 105.181 L 65.638 105.824 L 65.801 106.456 L 65.995 107.074 L 66.218 107.678 L 66.469 108.266 L 66.748 108.839 L 67.053 109.395 L 67.385 109.933 L 67.741 110.452 L 68.122 110.951 L 68.526 111.430 L 68.308 112.041 L 68.038 112.573 L 67.706 113.058 L 67.317 113.491 L 66.879 113.870 L 66.399 114.190 L 65.881 114.447 L 65.335 114.637 L 64.765 114.757 L 64.179 114.803 L 63.583 114.771 L 62.984 114.657 L 62.398 114.462 L 61.856 114.196 L 61.363 113.866 L 60.922 113.480 L 60.537 113.043 L 60.212 112.561 L 59.951 112.043 L 59.757 111.494 L 59.635 110.920 L 59.588 110.329 L 59.621 109.727 Z M 43.611 19.829 L 43.544 20.433 L 43.506 21.041 L 43.496 21.653 L 43.516 22.266 L 43.566 22.881 L 43.645 23.495 L 43.755 24.109 L 43.895 24.719 L 44.066 25.327 L 44.268 25.929 L 44.501 26.526 L 43.908 26.294 L 43.310 26.093 L 42.706 25.923 L 42.100 25.783 L 41.491 25.674 L 40.880 25.594 L 40.270 25.543 L 39.660 25.522 L 39.052 25.530 L 38.448 25.566 L 37.847 25.631 L 37.252 25.724 L 36.743 25.094 L 36.417 24.595 L 36.164 24.065 L 35.983 23.512 L 35.874 22.943 L 35.837 22.367 L 35.873 21.791 L 35.982 21.222 L 36.162 20.669 L 36.416 20.138 L 36.741 19.639 L 37.139 19.177 L 37.601 18.769 L 38.102 18.434 L 38.635 18.173 L 39.192 17.986 L 39.764 17.873 L 40.345 17.832 L 40.926 17.866 L 41.500 17.973 L 42.058 18.153 L 42.592 18.407 L 43.095 18.734 L 43.707 19.231 Z M 36.128 95.587 L 36.310 95.029 L 36.565 94.494 L 36.894 93.989 L 37.422 93.291 L 38.018 93.377 L 38.616 93.434 L 39.213 93.464 L 39.809 93.465 L 40.405 93.439 L 40.999 93.384 L 41.591 93.301 L 42.180 93.190 L 42.766 93.050 L 43.349 92.882 L 43.927 92.685 L 44.502 92.460 L 44.263 93.071 L 44.057 93.688 L 43.884 94.310 L 43.743 94.936 L 43.634 95.564 L 43.556 96.193 L 43.510 96.823 L 43.494 97.451 L 43.510 98.076 L 43.556 98.698 L 43.632 99.316 L 43.738 99.927 L 43.259 100.336 L 42.759 100.662 L 42.229 100.916 L 41.676 101.097 L 41.107 101.205 L 40.531 101.242 L 39.955 101.206 L 39.386 101.097 L 38.833 100.917 L 38.302 100.663 L 37.802 100.338 L 37.340 99.940 L 36.931 99.478 L 36.595 98.977 L 36.332 98.445 L 36.144 97.889 L 36.029 97.318 L 35.988 96.739 L 36.021 96.160 Z M 25.036 41.785 L 25.586 41.591 L 26.159 41.468 L 26.750 41.421 L 27.352 41.453 L 28.121 41.577 L 28.339 42.136 L 28.583 42.686 L 28.854 43.225 L 29.151 43.753 L 29.473 44.268 L 29.822 44.769 L 30.195 45.255 L 30.594 45.726 L 31.017 46.179 L 31.465 46.614 L 31.936 47.031 L 32.432 47.427 L 31.798 47.523 L 31.175 47.650 L 30.563 47.806 L 29.964 47.990 L 29.378 48.201 L 28.805 48.440 L 28.248 48.704 L 27.706 48.994 L 27.181 49.308 L 26.673 49.646 L 26.183 50.006 L 25.713 50.389 L 25.036 50.137 L 24.504 49.868 L 24.019 49.535 L 23.585 49.147 L 23.207 48.709 L 22.887 48.228 L 22.630 47.711 L 22.439 47.165 L 22.319 46.595 L 22.273 46.009 L 22.305 45.413 L 22.419 44.814 L 22.615 44.230 L 22.881 43.689 L 23.211 43.197 L 23.598 42.756 L 24.035 42.371 L 24.517 42.046 Z M 22.369 73.772 L 22.328 73.171 L 22.366 72.580 L 22.480 72.005 L 22.666 71.454 L 22.920 70.932 L 23.238 70.447 L 23.616 70.005 L 24.052 69.612 L 24.542 69.275 L 25.081 69.001 L 25.842 68.707 L 26.306 69.075 L 26.789 69.422 L 27.289 69.746 L 27.805 70.049 L 28.337 70.327 L 28.884 70.582 L 29.445 70.812 L 30.019 71.016 L 30.605 71.193 L 31.203 71.344 L 31.812 71.467 L 32.432 71.561 L 31.926 71.966 L 31.444 72.392 L 30.988 72.838 L 30.557 73.303 L 30.152 73.785 L 29.773 74.284 L 29.421 74.799 L 29.095 75.327 L 28.797 75.869 L 28.526 76.422 L 28.282 76.987 L 28.067 77.561 L 27.420 77.678 L 26.825 77.711 L 26.238 77.665 L 25.669 77.546 L 25.122 77.356 L 24.605 77.099 L 24.123 76.780 L 23.685 76.401 L 23.296 75.968 L 22.963 75.483 L 22.693 74.952 L 22.492 74.376 Z M 89.355 99.189 L 89.760 99.036 L 90.164 98.865 L 90.560 98.673 L 90.940 98.459 L 91.298 98.222 L 91.627 97.961 L 91.918 97.674 L 92.166 97.359 L 92.362 97.016 L 91.740 96.756 L 91.141 96.478 L 90.563 96.181 L 90.006 95.863 L 89.471 95.522 L 88.956 95.158 L 88.462 94.767 L 87.988 94.349 L 87.534 93.902 L 87.099 93.425 L 86.684 92.916 L 86.288 92.373 L 86.216 93.053 L 86.110 93.712 L 85.971 94.352 L 85.799 94.974 L 85.594 95.580 L 85.357 96.173 L 85.089 96.753 L 84.790 97.322 L 84.460 97.882 L 84.101 98.434 L 83.711 98.981 L 83.293 99.524 L 83.625 99.720 L 83.995 99.862 L 84.396 99.957 L 84.820 100.010 L 85.260 100.025 L 85.710 100.009 L 86.162 99.967 L 86.609 99.903 L 87.044 99.824 L 87.460 99.734 L 87.849 99.640 L 88.206 99.545 L 88.570 99.442 L 88.956 99.323 Z M 69.149 94.937 L 68.979 94.322 L 68.841 93.691 L 68.736 93.041 L 68.665 92.372 L 68.262 92.925 L 67.841 93.443 L 67.401 93.928 L 66.940 94.380 L 66.460 94.803 L 65.959 95.198 L 65.437 95.566 L 64.893 95.909 L 64.328 96.229 L 63.740 96.528 L 63.129 96.807 L 62.496 97.068 L 62.686 97.404 L 62.935 97.713 L 63.235 97.995 L 63.575 98.253 L 63.948 98.487 L 64.345 98.697 L 64.757 98.886 L 65.176 99.055 L 65.592 99.203 L 65.997 99.333 L 66.382 99.446 L 66.738 99.543 L 67.662 99.758 L 68.036 99.827 L 68.600 99.908 L 68.788 99.928 L 68.977 99.944 L 69.196 99.957 L 69.420 99.964 L 69.648 99.964 L 69.879 99.955 L 70.110 99.936 L 70.340 99.907 L 70.567 99.866 L 70.790 99.811 L 71.007 99.742 L 71.216 99.657 L 71.417 99.556 L 71.607 99.437 L 71.198 98.900 L 70.817 98.360 L 70.465 97.813 L 70.141 97.259 L 69.848 96.696 L 69.584 96.122 L 69.351 95.536 Z M 117.815 49.929 L 117.725 49.513 L 117.630 49.124 L 117.536 48.768 L 117.432 48.403 L 117.313 48.018 L 117.178 47.620 L 117.025 47.215 L 116.853 46.812 L 116.661 46.416 L 116.447 46.036 L 116.210 45.678 L 115.948 45.350 L 115.661 45.058 L 115.347 44.811 L 115.005 44.614 L 114.745 45.235 L 114.467 45.834 L 114.170 46.412 L 113.851 46.968 L 113.511 47.503 L 113.146 48.017 L 112.755 48.511 L 112.337 48.984 L 111.891 49.438 L 111.413 49.872 L 110.904 50.287 L 110.361 50.683 L 111.041 50.755 L 111.701 50.861 L 112.341 51.000 L 112.963 51.172 L 113.570 51.377 L 114.163 51.614 L 114.743 51.882 L 115.312 52.181 L 115.872 52.511 L 116.425 52.871 L 116.972 53.260 L 117.515 53.678 L 117.711 53.346 L 117.853 52.976 L 117.948 52.576 L 118.001 52.152 L 118.016 51.712 L 118.000 51.262 L 117.957 50.810 L 117.894 50.364 Z M 67.418 25.086 L 67.852 25.563 L 68.267 26.072 L 68.664 26.615 L 68.735 25.935 L 68.841 25.276 L 68.980 24.636 L 69.153 24.014 L 69.357 23.407 L 69.594 22.815 L 69.862 22.235 L 70.161 21.666 L 70.491 21.106 L 70.850 20.553 L 71.240 20.007 L 71.658 19.464 L 71.326 19.268 L 70.956 19.126 L 70.555 19.031 L 70.131 18.979 L 69.691 18.963 L 69.242 18.979 L 68.790 19.022 L 68.343 19.085 L 67.909 19.164 L 67.493 19.254 L 67.103 19.349 L 66.747 19.443 L 66.382 19.547 L 65.997 19.665 L 65.598 19.800 L 65.193 19.952 L 64.789 20.124 L 64.393 20.315 L 64.013 20.529 L 63.655 20.766 L 63.327 21.027 L 63.035 21.314 L 62.788 21.629 L 62.592 21.972 L 63.213 22.232 L 63.812 22.509 L 64.390 22.807 L 64.946 23.125 L 65.482 23.465 L 65.996 23.830 L 66.490 24.221 L 66.964 24.639 Z M 108.150 87.248 L 108.397 86.884 L 108.620 86.509 L 108.812 86.124 L 108.966 85.734 L 109.075 85.340 L 109.132 84.943 L 109.131 84.548 L 108.462 84.634 L 107.804 84.693 L 107.155 84.725 L 106.514 84.728 L 105.880 84.700 L 105.253 84.642 L 104.630 84.550 L 104.011 84.425 L 103.394 84.265 L 102.780 84.069 L 102.165 83.835 L 101.551 83.563 L 101.828 84.187 L 102.066 84.810 L 102.265 85.434 L 102.427 86.058 L 102.553 86.685 L 102.645 87.316 L 102.702 87.952 L 102.728 88.594 L 102.722 89.243 L 102.687 89.901 L 102.624 90.569 L 102.534 91.247 L 102.759 91.258 L 102.985 91.246 L 103.211 91.212 L 103.436 91.160 L 103.658 91.091 L 103.878 91.008 L 104.093 90.912 L 104.304 90.806 L 104.508 90.692 L 104.705 90.572 L 104.895 90.448 L 105.076 90.322 L 105.229 90.210 L 105.381 90.095 L 105.678 89.856 L 106.109 89.479 L 106.795 88.817 L 107.059 88.545 L 107.333 88.250 L 107.611 87.933 L 107.886 87.599 Z M 114.516 73.223 L 114.796 73.833 L 115.057 74.466 L 115.393 74.275 L 115.703 74.026 L 115.986 73.728 L 116.244 73.388 L 116.477 73.016 L 116.688 72.621 L 116.877 72.210 L 117.045 71.793 L 117.194 71.377 L 117.324 70.973 L 117.437 70.588 L 117.534 70.230 L 117.785 69.120 L 117.848 68.745 L 117.875 68.557 L 117.899 68.368 L 117.934 67.992 L 117.947 67.772 L 117.955 67.548 L 117.954 67.320 L 117.945 67.090 L 117.927 66.859 L 117.897 66.629 L 117.856 66.402 L 117.801 66.179 L 117.732 65.962 L 117.647 65.752 L 117.546 65.552 L 117.426 65.362 L 116.890 65.771 L 116.349 66.152 L 115.803 66.504 L 115.248 66.827 L 114.685 67.121 L 114.111 67.384 L 113.526 67.617 L 112.926 67.819 L 112.312 67.989 L 111.680 68.127 L 111.031 68.232 L 110.362 68.303 L 110.915 68.705 L 111.432 69.126 L 111.916 69.566 L 112.369 70.026 L 112.792 70.506 L 113.186 71.007 L 113.554 71.528 L 113.897 72.071 L 114.218 72.636 Z M 39.946 74.374 L 40.206 73.753 L 40.484 73.154 L 40.781 72.576 L 41.099 72.020 L 41.440 71.485 L 41.805 70.971 L 42.195 70.477 L 42.613 70.003 L 43.060 69.550 L 43.537 69.115 L 44.047 68.700 L 44.590 68.304 L 43.909 68.232 L 43.250 68.127 L 42.610 67.987 L 41.988 67.815 L 41.382 67.611 L 40.789 67.374 L 40.209 67.106 L 39.640 66.807 L 39.080 66.477 L 38.527 66.117 L 37.981 65.728 L 37.438 65.310 L 37.242 65.642 L 37.099 66.012 L 37.004 66.413 L 36.952 66.836 L 36.936 67.277 L 36.953 67.726 L 36.995 68.178 L 37.059 68.625 L 37.138 69.059 L 37.227 69.475 L 37.322 69.865 L 37.416 70.221 L 37.520 70.585 L 37.639 70.970 L 37.774 71.369 L 37.926 71.773 L 38.098 72.177 L 38.290 72.572 L 38.504 72.953 L 38.741 73.310 L 39.002 73.639 L 39.289 73.930 L 39.603 74.178 Z M 104.045 34.548 L 104.673 34.422 L 105.304 34.330 L 105.940 34.272 L 106.582 34.247 L 107.231 34.252 L 107.889 34.287 L 108.557 34.350 L 109.236 34.440 L 109.247 34.215 L 109.234 33.990 L 109.201 33.764 L 109.148 33.539 L 109.079 33.317 L 108.996 33.098 L 108.900 32.883 L 108.794 32.673 L 108.680 32.468 L 108.560 32.271 L 108.436 32.082 L 108.311 31.901 L 108.199 31.748 L 108.084 31.596 L 107.844 31.299 L 107.338 30.727 L 107.074 30.451 L 106.533 29.918 L 106.237 29.643 L 105.921 29.365 L 105.587 29.091 L 105.236 28.827 L 104.872 28.580 L 104.496 28.357 L 104.112 28.165 L 103.722 28.012 L 103.327 27.903 L 102.931 27.846 L 102.536 27.847 L 102.621 28.515 L 102.680 29.173 L 102.711 29.821 L 102.714 30.462 L 102.686 31.096 L 102.628 31.723 L 102.536 32.346 L 102.411 32.965 L 102.251 33.582 L 102.055 34.196 L 101.822 34.810 L 101.549 35.425 L 102.174 35.147 L 102.797 34.909 L 103.421 34.710 Z M 52.687 33.555 L 52.525 32.930 L 52.398 32.303 L 52.307 31.672 L 52.249 31.036 L 52.224 30.394 L 52.229 29.745 L 52.264 29.087 L 52.327 28.419 L 52.417 27.740 L 52.192 27.730 L 51.967 27.743 L 51.741 27.776 L 51.517 27.828 L 51.295 27.897 L 51.075 27.981 L 50.860 28.076 L 50.650 28.182 L 50.446 28.296 L 50.249 28.416 L 50.060 28.540 L 49.880 28.665 L 49.726 28.777 L 49.574 28.892 L 49.276 29.132 L 48.844 29.509 L 48.157 30.172 L 47.893 30.444 L 47.619 30.739 L 47.341 31.055 L 47.066 31.390 L 46.802 31.740 L 46.555 32.104 L 46.332 32.479 L 46.140 32.863 L 45.986 33.254 L 45.877 33.648 L 45.820 34.044 L 45.822 34.439 L 46.490 34.354 L 47.148 34.295 L 47.796 34.263 L 48.437 34.261 L 49.071 34.288 L 49.699 34.347 L 50.322 34.439 L 50.942 34.564 L 51.558 34.724 L 52.173 34.920 L 52.787 35.154 L 53.402 35.426 L 53.124 34.801 L 52.886 34.178 Z M 38.708 45.594 L 38.475 45.967 L 38.264 46.365 L 38.075 46.777 L 37.907 47.196 L 37.758 47.613 L 37.628 48.018 L 37.515 48.403 L 37.168 49.869 L 37.104 50.244 L 37.077 50.432 L 37.034 50.809 L 37.018 50.997 L 37.005 51.216 L 36.998 51.441 L 36.998 51.669 L 37.007 51.899 L 37.026 52.129 L 37.055 52.359 L 37.096 52.586 L 37.151 52.809 L 37.220 53.026 L 37.305 53.235 L 37.406 53.435 L 37.525 53.625 L 38.061 53.216 L 38.602 52.836 L 39.149 52.483 L 39.703 52.160 L 40.266 51.867 L 40.840 51.603 L 41.426 51.370 L 42.025 51.168 L 42.640 50.998 L 43.271 50.861 L 43.921 50.756 L 44.590 50.684 L 44.037 50.282 L 43.518 49.861 L 43.034 49.420 L 42.581 48.960 L 42.158 48.479 L 41.763 47.978 L 41.395 47.456 L 41.052 46.912 L 40.731 46.347 L 40.432 45.759 L 40.153 45.148 L 39.892 44.515 L 39.556 44.704 L 39.248 44.953 L 38.965 45.253 Z M 86.287 26.614 L 86.689 26.061 L 87.110 25.544 L 87.551 25.059 L 88.011 24.606 L 88.492 24.183 L 88.993 23.789 L 89.515 23.421 L 90.059 23.078 L 90.624 22.758 L 91.212 22.459 L 91.822 22.180 L 92.456 21.919 L 92.265 21.583 L 92.016 21.274 L 91.717 20.992 L 91.376 20.735 L 91.003 20.501 L 90.607 20.291 L 90.195 20.102 L 89.777 19.934 L 89.361 19.785 L 88.956 19.655 L 88.571 19.542 L 87.104 19.194 L 86.917 19.161 L 86.541 19.104 L 86.353 19.081 L 86.164 19.061 L 85.976 19.045 L 85.757 19.032 L 85.532 19.025 L 85.304 19.025 L 85.074 19.034 L 84.843 19.052 L 84.613 19.082 L 84.386 19.123 L 84.163 19.178 L 83.946 19.247 L 83.737 19.332 L 83.536 19.433 L 83.346 19.552 L 83.755 20.088 L 84.136 20.629 L 84.488 21.176 L 84.811 21.729 L 85.105 22.293 L 85.368 22.866 L 85.601 23.452 L 85.803 24.051 L 85.973 24.665 L 86.110 25.296 L 86.215 25.945 Z M 47.456 84.731 L 46.680 84.672 L 46.293 84.629 L 45.715 84.548 L 45.704 84.773 L 45.717 84.998 L 45.751 85.224 L 45.803 85.448 L 45.872 85.670 L 45.955 85.889 L 46.051 86.104 L 46.157 86.314 L 46.271 86.518 L 46.390 86.715 L 46.514 86.904 L 46.639 87.084 L 46.751 87.238 L 46.867 87.390 L 46.985 87.539 L 47.230 87.833 L 47.484 88.120 L 48.420 89.071 L 48.715 89.345 L 49.031 89.623 L 49.366 89.898 L 49.716 90.162 L 50.080 90.409 L 50.456 90.632 L 50.840 90.824 L 51.230 90.978 L 51.625 91.087 L 52.021 91.144 L 52.416 91.143 L 52.330 90.474 L 52.271 89.816 L 52.240 89.167 L 52.237 88.526 L 52.265 87.892 L 52.324 87.264 L 52.415 86.641 L 52.540 86.021 L 52.701 85.404 L 52.897 84.789 L 53.131 84.175 L 53.403 83.560 L 52.978 83.752 L 52.549 83.928 L 52.117 84.086 L 51.680 84.228 L 51.239 84.353 L 50.794 84.461 L 50.346 84.552 L 49.893 84.625 L 49.436 84.682 L 48.975 84.721 L 48.510 84.744 L 48.040 84.748 L 47.845 84.745 Z M 77.752 105.581 L 77.899 105.510 L 78.268 104.834 L 78.275 104.722 L 78.287 104.610 L 78.302 104.500 L 78.320 104.391 L 78.342 104.282 L 78.367 104.175 L 78.427 103.962 L 78.539 103.649 L 78.582 103.546 L 78.734 103.244 L 78.898 102.953 L 79.074 102.671 L 79.261 102.396 L 79.457 102.129 L 79.660 101.868 L 79.871 101.612 L 80.087 101.360 L 80.984 100.370 L 81.417 100.978 L 81.903 101.531 L 82.436 102.027 L 83.012 102.465 L 83.626 102.843 L 84.273 103.159 L 84.948 103.410 L 85.646 103.596 L 86.363 103.714 L 87.094 103.763 L 87.834 103.741 Z M 77.942 61.743 L 77.630 61.764 L 77.317 61.743 L 77.018 61.682 L 76.733 61.583 L 76.467 61.449 L 76.222 61.283 L 76.000 61.088 L 75.805 60.867 L 75.639 60.621 L 75.505 60.355 L 75.406 60.071 L 75.345 59.771 L 75.324 59.459 L 75.345 59.146 L 75.406 58.847 L 75.505 58.562 L 75.639 58.296 L 75.805 58.051 L 76.000 57.829 L 76.222 57.634 L 76.467 57.468 L 76.733 57.335 L 77.018 57.236 L 77.317 57.174 L 77.630 57.153 L 77.942 57.174 L 78.242 57.236 L 78.527 57.335 L 78.793 57.468 L 79.038 57.634 L 79.260 57.829 L 79.455 58.051 L 79.621 58.296 L 79.755 58.562 L 79.854 58.847 L 79.915 59.146 L 79.936 59.459 L 79.915 59.771 L 79.854 60.071 L 79.755 60.355 L 79.621 60.621 L 79.455 60.867 L 79.260 61.088 L 79.038 61.283 L 78.793 61.449 L 78.527 61.583 L 78.242 61.682 Z M 79.294 115.381 L 79.937 115.261 L 80.568 115.106 L 81.187 114.918 L 81.791 114.698 L 82.381 114.445 L 82.956 114.161 L 83.513 113.848 L 84.053 113.506 L 84.574 113.136 L 85.076 112.740 L 85.557 112.317 L 86.017 111.870 L 86.102 112.129 L 85.964 112.255 L 85.848 112.394 L 85.753 112.544 L 85.680 112.702 L 85.628 112.868 L 85.597 113.039 L 85.587 113.214 L 85.599 113.390 L 85.631 113.565 L 85.685 113.739 L 85.759 113.909 L 85.854 114.072 L 85.976 114.235 L 86.112 114.377 L 86.260 114.500 L 86.418 114.601 L 86.585 114.680 L 86.759 114.736 L 86.937 114.769 L 87.119 114.777 L 87.302 114.760 L 87.484 114.718 L 87.664 114.649 L 87.839 114.552 L 88.168 114.801 L 88.077 115.381 Z M 86.341 4.218 L 86.072 4.353 L 85.832 4.540 L 85.628 4.769 L 85.468 5.032 L 85.360 5.320 L 85.309 5.625 L 85.324 5.938 L 85.412 6.251 L 85.438 6.308 L 85.466 6.362 L 85.564 6.515 L 85.859 6.809 L 85.821 6.925 L 85.339 6.477 L 84.835 6.054 L 84.309 5.660 L 83.764 5.294 L 83.199 4.958 L 82.616 4.653 L 82.016 4.381 L 81.400 4.141 L 80.770 3.936 L 80.125 3.765 L 79.468 3.632 L 78.798 3.536 L 87.769 3.536 L 87.877 4.117 L 87.566 4.362 L 87.252 4.206 L 86.939 4.136 L 86.632 4.143 Z M 67.183 3.536 L 76.149 3.536 L 75.487 3.631 L 74.836 3.763 L 74.197 3.930 L 73.573 4.133 L 72.962 4.368 L 72.368 4.637 L 71.790 4.937 L 71.230 5.267 L 70.688 5.627 L 70.166 6.015 L 69.665 6.430 L 69.185 6.871 L 69.158 6.787 L 69.295 6.661 L 69.411 6.522 L 69.506 6.373 L 69.580 6.214 L 69.632 6.048 L 69.663 5.877 L 69.673 5.703 L 69.661 5.527 L 69.629 5.351 L 69.575 5.177 L 69.501 5.007 L 69.406 4.843 L 69.284 4.681 L 69.148 4.539 L 69.000 4.416 L 68.842 4.316 L 68.675 4.237 L 68.501 4.180 L 68.322 4.148 L 68.140 4.139 L 67.957 4.156 L 67.775 4.199 L 67.595 4.268 L 67.419 4.365 L 67.092 4.117 Z M 67.695 114.555 L 67.996 114.706 L 68.300 114.777 L 68.598 114.777 L 68.884 114.712 L 69.150 114.590 L 69.390 114.417 L 69.596 114.202 L 69.760 113.950 L 69.877 113.670 L 69.938 113.368 L 69.936 113.052 L 69.865 112.729 L 70.282 113.063 L 70.713 113.378 L 71.157 113.674 L 71.614 113.950 L 72.083 114.206 L 72.563 114.441 L 73.054 114.655 L 73.556 114.846 L 74.068 115.015 L 74.589 115.161 L 75.119 115.283 L 75.656 115.381 L 67.491 115.381 L 67.381 114.797 Z M 74.332 64.506 L 74.160 64.389 L 73.992 64.267 L 73.829 64.138 L 73.671 64.005 L 73.517 63.866 L 73.368 63.722 L 73.224 63.573 L 73.085 63.420 L 72.951 63.261 L 72.823 63.098 L 72.700 62.931 L 72.584 62.759 L 73.762 62.863 L 73.966 62.806 L 74.106 62.748 L 74.250 62.674 L 74.797 62.292 L 74.414 62.838 L 74.352 62.956 L 74.302 63.071 L 74.263 63.184 L 74.233 63.295 L 74.213 63.403 L 74.201 63.510 L 74.195 63.614 L 74.197 63.715 L 74.203 63.814 L 74.214 63.911 L 74.228 64.005 Z M 76.535 63.993 L 76.541 64.140 L 76.558 64.277 L 76.585 64.405 L 76.621 64.525 L 76.665 64.637 L 76.716 64.743 L 76.774 64.843 L 76.837 64.938 L 76.904 65.029 L 77.301 65.481 L 77.088 65.466 L 76.877 65.443 L 76.668 65.413 L 76.461 65.376 L 76.257 65.332 L 76.055 65.282 L 75.857 65.224 L 75.661 65.160 L 75.468 65.089 L 75.278 65.013 L 75.091 64.929 L 74.908 64.840 L 75.472 64.649 L 75.561 64.610 L 75.651 64.567 L 75.740 64.517 L 75.829 64.460 L 75.916 64.396 L 76.001 64.324 L 76.083 64.242 L 76.163 64.150 L 76.239 64.047 L 76.592 63.329 Z M 78.523 64.784 L 78.571 64.691 L 78.615 64.592 L 78.652 64.487 L 78.683 64.374 L 78.705 64.255 L 78.720 64.128 L 78.725 63.993 L 78.669 63.334 L 79.028 64.057 L 79.111 64.168 L 79.199 64.265 L 79.290 64.351 L 79.384 64.426 L 79.481 64.492 L 79.581 64.549 L 79.683 64.600 L 79.787 64.645 L 79.892 64.686 L 80.356 64.838 L 80.173 64.928 L 79.986 65.011 L 79.796 65.088 L 79.603 65.158 L 79.407 65.223 L 79.209 65.280 L 79.007 65.331 L 78.803 65.375 L 78.597 65.413 L 78.388 65.443 L 78.176 65.465 L 77.963 65.481 L 78.357 65.032 L 78.415 64.954 L 78.471 64.871 Z M 81.509 58.420 L 82.230 58.061 L 82.340 57.978 L 82.437 57.890 L 82.523 57.799 L 82.598 57.705 L 82.664 57.608 L 82.722 57.508 L 82.772 57.406 L 82.818 57.302 L 83.010 56.735 L 83.099 56.918 L 83.182 57.104 L 83.259 57.294 L 83.330 57.486 L 83.394 57.682 L 83.452 57.881 L 83.503 58.082 L 83.547 58.286 L 83.584 58.492 L 83.614 58.701 L 83.637 58.912 L 83.652 59.125 L 83.205 58.732 L 83.127 58.674 L 83.044 58.618 L 82.956 58.566 L 82.863 58.518 L 82.764 58.474 L 82.659 58.437 L 82.547 58.406 L 82.428 58.384 L 82.301 58.369 L 82.165 58.364 Z M 72.596 61.310 L 72.538 61.410 L 72.487 61.512 L 72.442 61.615 L 72.402 61.720 L 72.249 62.184 L 72.160 62.001 L 72.077 61.814 L 72.000 61.624 L 71.930 61.432 L 71.865 61.236 L 71.808 61.037 L 71.757 60.836 L 71.713 60.632 L 71.676 60.426 L 71.646 60.217 L 71.623 60.006 L 71.607 59.793 L 71.981 60.126 L 72.055 60.185 L 72.134 60.243 L 72.216 60.299 L 72.304 60.352 L 72.397 60.400 L 72.496 60.443 L 72.601 60.481 L 72.713 60.511 L 72.833 60.534 L 72.959 60.548 L 73.754 60.497 L 73.155 60.778 L 73.030 60.857 L 72.920 60.940 L 72.823 61.027 L 72.737 61.118 L 72.662 61.213 Z M 74.907 54.079 L 75.090 53.990 L 75.276 53.907 L 75.466 53.830 L 75.658 53.760 L 75.854 53.696 L 76.052 53.638 L 76.253 53.588 L 76.457 53.544 L 76.663 53.507 L 76.872 53.477 L 77.082 53.454 L 77.295 53.438 L 76.903 53.885 L 76.845 53.963 L 76.789 54.046 L 76.737 54.134 L 76.689 54.227 L 76.645 54.326 L 76.608 54.431 L 76.577 54.543 L 76.555 54.662 L 76.540 54.789 L 76.535 54.924 L 76.592 55.589 L 76.240 54.872 L 76.165 54.771 L 76.087 54.681 L 76.006 54.600 L 75.922 54.528 L 75.836 54.464 L 75.748 54.408 L 75.660 54.358 L 75.571 54.314 L 75.482 54.275 L 75.393 54.240 Z M 72.404 57.212 L 72.477 57.390 L 72.521 57.480 L 72.571 57.569 L 72.627 57.658 L 72.691 57.745 L 72.764 57.830 L 72.846 57.912 L 72.937 57.992 L 73.040 58.068 L 73.751 58.420 L 73.095 58.364 L 72.948 58.370 L 72.810 58.387 L 72.682 58.414 L 72.562 58.450 L 72.450 58.494 L 72.344 58.545 L 72.244 58.603 L 72.150 58.666 L 72.059 58.733 L 71.971 58.804 L 71.607 59.129 L 71.622 58.916 L 71.645 58.705 L 71.675 58.496 L 71.712 58.290 L 71.756 58.086 L 71.807 57.885 L 71.864 57.686 L 71.928 57.491 L 71.999 57.298 L 72.076 57.108 L 72.159 56.922 L 72.248 56.739 Z M 78.725 54.924 L 78.719 54.777 L 78.702 54.640 L 78.675 54.512 L 78.639 54.392 L 78.595 54.280 L 78.544 54.174 L 78.486 54.074 L 78.423 53.980 L 78.356 53.889 L 78.285 53.801 L 77.960 53.438 L 78.173 53.453 L 78.384 53.476 L 78.593 53.506 L 78.799 53.543 L 79.003 53.587 L 79.204 53.637 L 79.403 53.695 L 79.599 53.759 L 79.791 53.829 L 79.981 53.906 L 80.167 53.989 L 80.350 54.078 L 79.877 54.234 L 79.699 54.307 L 79.609 54.351 L 79.520 54.401 L 79.431 54.457 L 79.344 54.521 L 79.259 54.594 L 79.177 54.675 L 79.097 54.767 L 79.021 54.870 L 78.669 55.584 Z M 82.856 61.705 L 82.783 61.527 L 82.739 61.437 L 82.689 61.348 L 82.633 61.260 L 82.569 61.173 L 82.496 61.088 L 82.414 61.005 L 82.322 60.926 L 82.220 60.850 L 82.105 60.778 L 81.506 60.497 L 82.165 60.553 L 82.312 60.547 L 82.450 60.531 L 82.578 60.504 L 82.697 60.468 L 82.810 60.424 L 82.915 60.372 L 83.015 60.315 L 83.110 60.252 L 83.201 60.184 L 83.289 60.114 L 83.653 59.788 L 83.637 60.001 L 83.615 60.212 L 83.585 60.421 L 83.548 60.628 L 83.504 60.832 L 83.453 61.033 L 83.396 61.232 L 83.332 61.427 L 83.261 61.620 L 83.184 61.810 L 83.101 61.996 L 83.012 62.179 Z M 82.188 56.057 L 81.998 56.031 L 81.898 56.024 L 81.796 56.023 L 81.691 56.028 L 81.584 56.040 L 81.474 56.060 L 81.362 56.090 L 81.247 56.129 L 81.130 56.180 L 80.457 56.632 L 80.846 56.079 L 80.908 55.962 L 80.958 55.847 L 80.997 55.734 L 81.027 55.623 L 81.047 55.514 L 81.059 55.408 L 81.064 55.304 L 81.063 55.202 L 81.057 55.103 L 81.046 55.007 L 81.032 54.913 L 80.929 54.413 L 81.100 54.530 L 81.268 54.652 L 81.431 54.780 L 81.589 54.914 L 81.743 55.052 L 81.891 55.196 L 82.035 55.345 L 82.174 55.498 L 82.308 55.657 L 82.436 55.820 L 82.558 55.987 L 82.675 56.158 Z M 81.538 62.869 L 81.642 62.884 L 81.745 62.891 L 81.849 62.892 L 81.952 62.887 L 82.057 62.877 L 82.162 62.862 L 82.679 62.755 L 82.562 62.927 L 82.439 63.095 L 82.311 63.258 L 82.178 63.416 L 82.039 63.570 L 81.895 63.719 L 81.746 63.864 L 81.592 64.003 L 81.433 64.136 L 81.270 64.265 L 81.103 64.387 L 80.931 64.504 L 81.047 63.922 L 81.058 63.825 L 81.065 63.726 L 81.066 63.624 L 81.062 63.519 L 81.050 63.412 L 81.029 63.302 L 81.000 63.190 L 80.960 63.075 L 80.909 62.958 L 80.846 62.838 L 80.463 62.292 L 81.010 62.674 L 81.118 62.731 L 81.224 62.779 L 81.330 62.818 L 81.434 62.848 Z M 74.803 56.632 L 74.250 56.244 L 74.132 56.182 L 74.017 56.131 L 73.904 56.092 L 73.793 56.063 L 73.685 56.042 L 73.578 56.030 L 73.474 56.025 L 73.373 56.026 L 73.274 56.033 L 73.177 56.043 L 72.583 56.161 L 72.700 55.989 L 72.822 55.822 L 72.950 55.659 L 73.084 55.501 L 73.223 55.347 L 73.366 55.198 L 73.515 55.054 L 73.669 54.916 L 73.827 54.782 L 73.990 54.654 L 74.157 54.532 L 74.329 54.415 L 74.213 54.995 L 74.202 55.092 L 74.195 55.192 L 74.193 55.294 L 74.198 55.398 L 74.210 55.506 L 74.231 55.616 L 74.260 55.728 L 74.300 55.843 L 74.351 55.960 L 74.414 56.079 Z" fill="#111111" fill-rule="evenodd"/>
</svg>
