<svg xmlns="http://www.w3.org/2000/svg" viewBox="0 0 155.260 118.916">
  <path d="M 155.260 118.916 L 0.000 118.916 L 0.000 0.000 L 155.260 0.000 Z M 135.410 86.825 L 135.956 86.771 L 136.500 86.728 L 137.035 86.697 L 137.553 86.679 L 138.119 86.673 L 138.659 86.681 L 139.166 86.703 L 139.639 86.739 L 140.071 86.787 L 140.460 86.848 L 140.801 86.920 L 141.090 87.003 L 141.323 87.097 L 141.495 87.201 L 141.604 87.314 L 141.644 87.436 L 141.603 87.580 L 141.474 87.724 L 141.262 87.867 L 140.974 88.006 L 140.615 88.140 L 140.192 88.268 L 139.711 88.388 L 139.177 88.497 L 138.596 88.596 L 137.975 88.681 L 137.319 88.752 L 136.634 88.806 L 136.230 88.828 L 135.819 88.845 L 135.404 88.855 L 134.989 88.858 L 134.578 88.853 L 134.175 88.839 L 133.784 88.816 L 133.408 88.783 L 133.050 88.740 L 132.716 88.685 L 132.409 88.618 L 132.132 88.538 L 132.456 88.997 L 132.773 88.973 L 133.121 88.967 L 133.494 88.976 L 133.887 89.001 L 134.296 89.038 L 134.713 89.087 L 135.136 89.146 L 135.558 89.214 L 135.975 89.289 L 136.381 89.369 L 136.771 89.454 L 137.434 89.613 L 138.066 89.785 L 138.660 89.965 L 139.212 90.152 L 139.716 90.343 L 140.166 90.536 L 140.557 90.727 L 140.883 90.915 L 141.139 91.097 L 141.318 91.270 L 141.416 91.432 L 141.427 91.581 L 141.228 91.799 L 140.788 91.928 L 140.147 91.977 L 139.346 91.951 L 138.426 91.859 L 137.427 91.708 L 136.390 91.504 L 135.356 91.256 L 134.365 90.970 L 133.458 90.653 L 132.675 90.313 L 131.929 90.340 L 132.163 90.376 L 132.425 90.434 L 132.714 90.513 L 133.027 90.614 L 133.362 90.734 L 133.716 90.874 L 134.088 91.032 L 134.476 91.209 L 134.878 91.403 L 135.290 91.613 L 135.712 91.840 L 136.141 92.082 L 136.725 92.430 L 137.277 92.780 L 137.790 93.129 L 138.261 93.471 L 138.685 93.803 L 139.058 94.121 L 139.375 94.420 L 139.631 94.697 L 139.822 94.948 L 139.943 95.168 L 139.990 95.353 L 139.958 95.499 L 139.942 95.524 L 139.922 95.547 L 139.873 95.586 L 139.811 95.616 L 139.737 95.639 L 139.554 95.660 L 139.336 95.650 L 139.080 95.612 L 138.790 95.547 L 138.467 95.456 L 138.116 95.340 L 137.739 95.199 L 137.339 95.036 L 136.918 94.850 L 136.481 94.642 L 136.029 94.415 L 135.565 94.168 L 135.093 93.902 L 134.671 93.653 L 134.265 93.401 L 133.877 93.150 L 133.510 92.901 L 133.164 92.654 L 132.841 92.412 L 132.543 92.175 L 132.272 91.946 L 132.028 91.726 L 131.814 91.517 L 131.632 91.319 L 131.483 91.134 L 131.201 91.449 L 131.414 91.559 L 131.646 91.697 L 131.895 91.862 L 132.160 92.051 L 132.438 92.265 L 132.728 92.501 L 133.029 92.759 L 133.339 93.037 L 133.656 93.335 L 133.978 93.651 L 134.305 93.983 L 134.633 94.331 L 135.089 94.839 L 135.513 95.339 L 135.902 95.826 L 136.252 96.294 L 136.560 96.739 L 136.824 97.155 L 137.040 97.537 L 137.204 97.879 L 137.314 98.177 L 137.367 98.424 L 137.359 98.617 L 137.288 98.749 L 137.132 98.820 L 136.915 98.806 L 136.645 98.714 L 136.330 98.554 L 135.976 98.333 L 135.593 98.059 L 135.189 97.741 L 134.771 97.388 L 134.347 97.007 L 133.925 96.606 L 133.514 96.195 L 133.121 95.781 L 132.786 95.411 L 132.469 95.046 L 132.169 94.685 L 131.888 94.332 L 131.627 93.989 L 131.388 93.657 L 131.171 93.338 L 130.978 93.035 L 130.810 92.750 L 130.669 92.483 L 130.554 92.239 L 130.468 92.017 L 130.022 92.237 L 130.194 92.406 L 130.377 92.607 L 130.568 92.837 L 130.767 93.095 L 130.972 93.379 L 131.183 93.689 L 131.397 94.022 L 131.615 94.377 L 131.833 94.752 L 132.052 95.146 L 132.270 95.557 L 132.485 95.983 L 132.781 96.603 L 133.048 97.207 L 133.285 97.788 L 133.491 98.340 L 133.663 98.858 L 133.800 99.335 L 133.901 99.765 L 133.964 100.143 L 133.988 100.463 L 133.970 100.717 L 133.910 100.901 L 133.805 101.009 L 133.649 101.034 L 133.459 100.967 L 133.238 100.817 L 132.991 100.591 L 132.724 100.296 L 132.440 99.941 L 132.144 99.532 L 131.841 99.078 L 131.535 98.586 L 131.231 98.064 L 130.934 97.518 L 130.648 96.958 L 130.423 96.491 L 130.214 96.032 L 130.022 95.584 L 129.847 95.150 L 129.689 94.732 L 129.551 94.333 L 129.431 93.956 L 129.332 93.602 L 129.252 93.274 L 129.195 92.975 L 129.158 92.708 L 129.145 92.474 L 128.512 92.500 L 128.641 92.712 L 128.773 92.950 L 128.907 93.214 L 129.042 93.501 L 129.177 93.811 L 129.312 94.142 L 129.447 94.492 L 129.580 94.860 L 129.710 95.245 L 129.838 95.646 L 129.962 96.060 L 130.082 96.487 L 130.253 97.157 L 130.400 97.804 L 130.521 98.424 L 130.617 99.009 L 130.688 99.553 L 130.732 100.051 L 130.749 100.495 L 130.739 100.880 L 130.702 101.200 L 130.636 101.448 L 130.543 101.618 L 130.420 101.703 L 130.268 101.698 L 130.099 101.600 L 129.916 101.416 L 129.721 101.154 L 129.518 100.821 L 129.309 100.424 L 129.097 99.969 L 128.886 99.465 L 128.678 98.918 L 128.476 98.334 L 128.284 97.723 L 128.103 97.090 L 127.597 94.758 L 127.503 95.114 L 127.402 95.469 L 127.297 95.825 L 127.072 96.535 L 126.954 96.889 L 125.821 100.033 L 125.637 100.551 L 125.462 101.063 L 125.299 101.566 L 125.150 102.060 L 125.017 102.542 L 124.904 103.013 L 124.813 103.470 L 124.746 103.912 L 124.707 104.338 L 124.696 104.747 L 125.655 105.108 L 126.628 105.286 L 127.612 105.299 L 128.605 105.166 L 129.603 104.903 L 130.603 104.530 L 131.601 104.063 L 132.596 103.520 L 133.583 102.921 L 134.559 102.282 L 135.521 101.621 L 137.106 100.506 L 137.734 100.069 L 138.350 99.649 L 138.954 99.252 L 139.547 98.882 L 140.127 98.544 L 140.696 98.243 L 141.252 97.983 L 141.796 97.771 L 142.327 97.609 L 142.846 97.504 L 143.352 97.461 L 142.949 96.244 L 142.772 94.794 L 142.761 93.156 L 142.859 91.380 L 143.006 89.513 L 143.144 87.602 L 143.215 85.695 L 143.160 83.841 L 142.921 82.086 L 142.439 80.479 L 141.655 79.067 L 140.511 77.899 L 140.140 78.085 L 139.769 78.312 L 139.398 78.575 L 139.025 78.872 L 138.652 79.198 L 138.278 79.551 L 137.902 79.927 L 137.525 80.322 L 137.146 80.735 L 136.765 81.160 L 136.382 81.595 L 134.056 84.186 L 133.549 84.707 L 133.289 84.965 L 133.024 85.222 L 133.504 85.043 L 134.011 84.868 L 134.540 84.700 L 135.084 84.541 L 135.638 84.393 L 136.196 84.257 L 136.751 84.136 L 137.297 84.031 L 137.828 83.945 L 138.339 83.878 L 138.822 83.834 L 139.273 83.814 L 139.454 83.813 L 139.623 83.818 L 139.780 83.828 L 139.924 83.843 L 140.054 83.863 L 140.171 83.889 L 140.274 83.920 L 140.361 83.957 L 140.434 83.999 L 140.490 84.046 L 140.530 84.099 L 140.553 84.157 L 140.539 84.306 L 140.439 84.472 L 140.257 84.653 L 139.999 84.845 L 139.670 85.046 L 139.277 85.254 L 138.824 85.464 L 138.317 85.676 L 137.762 85.885 L 137.165 86.089 L 136.530 86.286 L 135.865 86.472 L 135.476 86.572 L 135.084 86.666 L 134.693 86.753 L 134.304 86.832 L 133.921 86.902 L 133.546 86.964 L 133.181 87.016 L 132.829 87.058 L 132.492 87.088 L 132.175 87.107 L 131.878 87.113 L 131.604 87.106 L 131.898 87.678 L 132.182 87.532 L 132.525 87.398 L 132.921 87.274 L 133.361 87.162 L 133.837 87.060 L 134.343 86.970 L 134.870 86.892 Z M 20.116 93.807 L 19.522 94.139 L 18.943 94.442 L 18.384 94.712 L 17.852 94.949 L 17.353 95.150 L 16.891 95.314 L 16.473 95.438 L 16.106 95.522 L 15.793 95.562 L 15.542 95.557 L 15.358 95.505 L 15.247 95.404 L 15.234 95.378 L 15.224 95.349 L 15.218 95.319 L 15.215 95.287 L 15.219 95.218 L 15.237 95.143 L 15.267 95.061 L 15.310 94.974 L 15.428 94.790 L 15.589 94.587 L 15.790 94.368 L 16.030 94.135 L 16.306 93.889 L 16.616 93.633 L 16.958 93.368 L 17.330 93.097 L 17.728 92.822 L 18.151 92.544 L 18.597 92.266 L 19.063 91.990 L 19.491 91.749 L 19.911 91.523 L 20.322 91.313 L 20.722 91.120 L 21.109 90.944 L 21.480 90.786 L 21.834 90.646 L 22.168 90.525 L 22.480 90.424 L 22.769 90.344 L 23.031 90.285 L 23.265 90.248 L 23.134 89.847 L 22.932 89.976 L 22.697 90.108 L 22.430 90.242 L 22.133 90.376 L 21.809 90.510 L 21.459 90.643 L 21.085 90.775 L 20.689 90.904 L 20.273 91.030 L 19.838 91.151 L 19.387 91.267 L 18.921 91.377 L 18.254 91.518 L 17.609 91.635 L 16.993 91.728 L 16.412 91.797 L 15.872 91.842 L 15.380 91.862 L 14.942 91.858 L 14.563 91.830 L 14.250 91.776 L 14.009 91.698 L 13.846 91.595 L 13.767 91.467 L 13.783 91.297 L 13.904 91.116 L 14.119 90.928 L 14.416 90.735 L 14.784 90.540 L 15.212 90.345 L 15.690 90.154 L 16.205 89.968 L 16.747 89.792 L 17.304 89.627 L 17.867 89.476 L 18.422 89.343 L 18.909 89.238 L 19.385 89.146 L 19.847 89.067 L 20.293 89.000 L 20.721 88.946 L 21.128 88.905 L 21.512 88.876 L 21.871 88.861 L 22.203 88.858 L 22.504 88.869 L 22.773 88.892 L 23.008 88.928 L 23.041 88.432 L 22.808 88.496 L 22.544 88.554 L 22.249 88.605 L 21.926 88.648 L 21.576 88.684 L 21.203 88.711 L 20.807 88.730 L 20.391 88.741 L 19.957 88.743 L 19.506 88.735 L 19.041 88.718 L 18.565 88.692 L 17.879 88.638 L 17.223 88.567 L 16.601 88.482 L 16.020 88.384 L 15.485 88.274 L 15.004 88.154 L 14.580 88.027 L 14.221 87.892 L 13.933 87.753 L 13.721 87.610 L 13.592 87.466 L 13.551 87.322 L 13.608 87.174 L 13.761 87.043 L 14.001 86.926 L 14.320 86.826 L 14.709 86.742 L 15.159 86.674 L 15.661 86.622 L 16.206 86.586 L 16.785 86.568 L 17.389 86.566 L 18.010 86.581 L 18.639 86.613 L 19.156 86.652 L 19.658 86.701 L 20.142 86.758 L 20.605 86.823 L 21.046 86.896 L 21.461 86.976 L 21.848 87.061 L 22.204 87.152 L 22.528 87.247 L 22.815 87.347 L 23.065 87.449 L 23.274 87.554 L 23.568 86.993 L 23.320 86.999 L 23.048 86.994 L 22.752 86.978 L 22.436 86.951 L 22.100 86.913 L 21.746 86.865 L 21.375 86.807 L 20.990 86.738 L 20.591 86.658 L 20.180 86.568 L 19.759 86.469 L 19.330 86.359 L 18.664 86.172 L 18.030 85.975 L 17.432 85.771 L 16.877 85.562 L 16.371 85.350 L 15.918 85.140 L 15.524 84.932 L 15.196 84.731 L 14.937 84.539 L 14.755 84.358 L 14.655 84.192 L 14.642 84.044 L 14.723 83.915 L 14.892 83.818 L 15.143 83.750 L 15.467 83.713 L 15.857 83.703 L 16.306 83.721 L 16.806 83.765 L 17.348 83.835 L 17.926 83.928 L 18.532 84.045 L 19.158 84.184 L 19.797 84.344 L 20.361 84.501 L 22.070 85.072 L 21.809 84.812 L 21.551 84.548 L 21.295 84.278 L 21.043 84.005 L 20.793 83.729 L 18.389 80.897 L 18.031 80.478 L 17.676 80.071 L 17.322 79.678 L 16.969 79.302 L 16.617 78.946 L 16.266 78.613 L 15.916 78.305 L 15.566 78.027 L 15.217 77.779 L 14.867 77.566 L 14.076 78.215 L 13.435 78.969 L 12.931 79.814 L 12.550 80.741 L 12.279 81.736 L 12.103 82.789 L 12.008 83.887 L 11.980 85.019 L 12.006 86.173 L 12.072 87.338 L 12.163 88.502 L 12.336 90.431 L 12.401 91.193 L 12.457 91.936 L 12.499 92.658 L 12.523 93.357 L 12.525 94.028 L 12.502 94.671 L 12.448 95.282 L 12.361 95.860 L 12.235 96.400 L 12.066 96.902 L 11.851 97.362 L 13.106 97.621 L 14.452 98.193 L 15.875 99.002 L 17.365 99.975 L 18.909 101.036 L 20.495 102.112 L 22.111 103.126 L 23.745 104.006 L 25.384 104.676 L 27.018 105.062 L 28.632 105.089 L 30.217 104.683 L 30.240 104.268 L 30.229 103.834 L 30.187 103.381 L 30.116 102.910 L 30.020 102.424 L 29.902 101.923 L 29.764 101.410 L 29.610 100.886 L 29.442 100.351 L 29.264 99.809 L 29.079 99.260 L 28.101 96.297 L 27.897 95.602 L 27.800 95.250 L 27.706 94.896 L 27.616 94.539 L 27.532 95.044 L 27.429 95.570 L 27.310 96.112 L 27.176 96.663 L 27.027 97.217 L 26.866 97.768 L 26.694 98.309 L 26.511 98.834 L 26.321 99.337 L 26.123 99.812 L 25.919 100.253 L 25.712 100.653 L 25.622 100.810 L 25.533 100.954 L 25.446 101.085 L 25.361 101.202 L 25.278 101.305 L 25.197 101.394 L 25.119 101.467 L 25.043 101.524 L 24.971 101.566 L 24.902 101.591 L 24.836 101.599 L 24.774 101.590 L 24.652 101.504 L 24.558 101.334 L 24.493 101.086 L 24.455 100.766 L 24.446 100.381 L 24.463 99.937 L 24.507 99.439 L 24.577 98.895 L 24.673 98.310 L 24.795 97.690 L 24.942 97.043 L 25.113 96.373 L 25.221 95.986 L 25.336 95.601 L 25.456 95.219 L 25.582 94.843 L 25.712 94.475 L 25.846 94.119 L 25.984 93.777 L 26.124 93.452 L 26.265 93.145 L 26.408 92.861 L 26.552 92.601 L 26.695 92.367 L 26.052 92.336 L 26.036 92.654 L 25.981 93.019 L 25.890 93.423 L 25.768 93.861 L 25.617 94.324 L 25.442 94.807 L 25.247 95.302 L 25.034 95.803 L 24.809 96.303 L 24.574 96.796 L 24.333 97.274 L 24.090 97.731 L 23.812 98.225 L 23.535 98.688 L 23.262 99.116 L 22.995 99.507 L 22.737 99.858 L 22.490 100.164 L 22.257 100.423 L 22.041 100.632 L 21.843 100.787 L 21.667 100.884 L 21.514 100.922 L 21.389 100.895 L 21.284 100.788 L 21.224 100.604 L 21.206 100.349 L 21.230 100.030 L 21.293 99.653 L 21.394 99.222 L 21.531 98.746 L 21.703 98.228 L 21.908 97.676 L 22.145 97.096 L 22.412 96.492 L 22.707 95.872 L 22.890 95.512 L 23.081 95.147 L 23.280 94.783 L 23.485 94.422 L 23.694 94.069 L 23.908 93.727 L 24.123 93.399 L 24.340 93.090 L 24.556 92.803 L 24.771 92.541 L 24.983 92.308 L 25.190 92.109 L 24.630 92.159 L 24.492 92.446 L 24.324 92.751 L 24.129 93.069 L 23.912 93.397 L 23.675 93.732 L 23.424 94.069 L 23.161 94.405 L 22.891 94.737 L 22.618 95.060 L 22.346 95.371 L 22.077 95.667 L 21.607 96.161 L 21.143 96.623 L 20.690 97.047 L 20.252 97.432 L 19.834 97.773 L 19.442 98.066 L 19.081 98.309 L 18.755 98.497 L 18.470 98.627 L 18.230 98.696 L 18.041 98.700 L 17.907 98.635 L 17.817 98.354 L 17.925 97.908 L 18.204 97.329 L 18.626 96.648 L 19.166 95.898 L 19.797 95.108 L 20.492 94.312 L 21.224 93.541 L 21.967 92.826 L 22.695 92.199 L 23.381 91.691 L 23.731 91.032 L 23.583 91.216 L 23.401 91.415 L 23.188 91.625 L 22.945 91.845 L 22.673 92.075 L 22.375 92.312 L 22.051 92.555 L 21.704 92.803 L 21.336 93.053 L 20.947 93.305 L 20.540 93.557 Z M 22.080 31.900 L 22.431 31.859 L 22.768 31.828 L 23.086 31.809 L 23.383 31.803 L 23.656 31.811 L 23.362 31.239 L 23.079 31.384 L 22.735 31.519 L 22.339 31.642 L 21.899 31.755 L 21.423 31.856 L 20.917 31.946 L 20.390 32.024 L 19.850 32.091 L 19.304 32.146 L 18.760 32.188 L 18.225 32.219 L 17.707 32.237 L 17.141 32.244 L 16.602 32.235 L 16.094 32.213 L 15.622 32.178 L 15.189 32.129 L 14.800 32.069 L 14.460 31.997 L 14.171 31.913 L 13.938 31.820 L 13.765 31.716 L 13.656 31.603 L 13.616 31.481 L 13.657 31.336 L 13.786 31.192 L 13.998 31.050 L 14.286 30.911 L 14.645 30.776 L 15.068 30.649 L 15.549 30.529 L 16.084 30.419 L 16.664 30.321 L 17.286 30.235 L 17.942 30.165 L 18.626 30.110 L 19.030 30.088 L 19.442 30.072 L 19.856 30.062 L 20.271 30.059 L 20.682 30.064 L 21.085 30.077 L 21.476 30.100 L 21.853 30.133 L 22.210 30.177 L 22.544 30.232 L 22.851 30.299 L 23.128 30.379 L 22.805 29.919 L 22.487 29.943 L 22.139 29.950 L 21.766 29.940 L 21.373 29.916 L 20.965 29.878 L 20.547 29.829 L 20.124 29.770 L 19.702 29.702 L 19.286 29.628 L 18.880 29.547 L 18.490 29.463 L 17.826 29.303 L 17.194 29.132 L 16.600 28.951 L 16.048 28.764 L 15.544 28.573 L 15.094 28.381 L 14.703 28.189 L 14.377 28.001 L 14.122 27.819 L 13.942 27.646 L 13.844 27.484 L 13.833 27.336 L 14.032 27.118 L 14.472 26.988 L 15.113 26.940 L 15.914 26.965 L 16.834 27.057 L 17.833 27.209 L 18.870 27.412 L 19.904 27.661 L 20.895 27.947 L 21.802 28.263 L 22.585 28.603 L 23.331 28.577 L 23.097 28.541 L 22.835 28.483 L 22.546 28.403 L 22.233 28.303 L 21.899 28.182 L 21.544 28.043 L 21.172 27.884 L 20.784 27.708 L 20.383 27.514 L 19.970 27.303 L 19.548 27.077 L 19.120 26.835 L 18.535 26.486 L 17.984 26.136 L 17.470 25.788 L 16.999 25.445 L 16.575 25.113 L 16.202 24.796 L 15.886 24.496 L 15.629 24.219 L 15.439 23.969 L 15.317 23.749 L 15.270 23.564 L 15.302 23.417 L 15.318 23.393 L 15.338 23.370 L 15.361 23.349 L 15.449 23.300 L 15.609 23.263 L 15.706 23.257 L 15.924 23.267 L 16.180 23.305 L 16.471 23.370 L 16.793 23.461 L 17.144 23.577 L 17.521 23.717 L 17.921 23.881 L 18.342 24.067 L 18.779 24.274 L 19.232 24.502 L 19.695 24.749 L 20.167 25.014 L 20.590 25.264 L 20.995 25.515 L 21.383 25.766 L 21.750 26.016 L 22.096 26.263 L 22.419 26.505 L 22.717 26.741 L 22.989 26.970 L 23.232 27.190 L 23.446 27.400 L 23.628 27.598 L 23.777 27.782 L 24.059 27.468 L 23.846 27.357 L 23.614 27.219 L 23.365 27.055 L 23.101 26.865 L 22.822 26.652 L 22.532 26.416 L 22.231 26.158 L 21.921 25.879 L 21.604 25.582 L 21.282 25.266 L 20.956 24.933 L 20.628 24.585 L 20.171 24.077 L 19.747 23.578 L 19.359 23.091 L 19.009 22.622 L 18.700 22.178 L 18.436 21.762 L 18.221 21.380 L 18.056 21.037 L 17.946 20.740 L 17.893 20.492 L 17.901 20.299 L 17.973 20.167 L 18.128 20.096 L 18.345 20.111 L 18.615 20.202 L 18.931 20.363 L 19.284 20.584 L 19.667 20.857 L 20.071 21.175 L 20.489 21.529 L 20.913 21.910 L 21.335 22.310 L 21.746 22.722 L 22.140 23.136 L 22.474 23.505 L 22.792 23.871 L 23.091 24.231 L 23.372 24.584 L 23.633 24.928 L 23.872 25.260 L 24.089 25.578 L 24.282 25.881 L 24.450 26.167 L 24.592 26.433 L 24.706 26.678 L 24.792 26.899 L 25.238 26.679 L 25.066 26.510 L 24.884 26.310 L 24.692 26.080 L 24.493 25.822 L 24.288 25.537 L 24.077 25.227 L 23.863 24.894 L 23.646 24.540 L 23.427 24.164 L 23.208 23.771 L 22.990 23.360 L 22.775 22.934 L 22.479 22.313 L 22.212 21.710 L 21.975 21.129 L 21.770 20.576 L 21.597 20.059 L 21.460 19.582 L 21.359 19.151 L 21.296 18.773 L 21.272 18.454 L 21.290 18.199 L 21.350 18.015 L 21.455 17.907 L 21.611 17.883 L 21.802 17.950 L 22.022 18.100 L 22.269 18.326 L 22.536 18.620 L 22.820 18.976 L 23.116 19.384 L 23.419 19.838 L 23.725 20.331 L 24.029 20.853 L 24.326 21.398 L 24.612 21.959 L 24.837 22.426 L 25.046 22.885 L 25.238 23.332 L 25.414 23.766 L 25.571 24.184 L 25.710 24.583 L 25.829 24.961 L 25.929 25.315 L 26.008 25.643 L 26.066 25.941 L 26.102 26.209 L 26.115 26.442 L 26.748 26.417 L 26.619 26.205 L 26.487 25.966 L 26.354 25.703 L 26.219 25.415 L 26.083 25.105 L 25.948 24.775 L 25.813 24.425 L 25.680 24.056 L 25.550 23.671 L 25.422 23.271 L 25.298 22.857 L 25.179 22.430 L 25.007 21.760 L 24.861 21.112 L 24.739 20.493 L 24.643 19.908 L 24.573 19.363 L 24.529 18.866 L 24.511 18.421 L 24.521 18.036 L 24.559 17.717 L 24.624 17.469 L 24.718 17.299 L 24.840 17.213 L 24.992 17.219 L 25.161 17.317 L 25.344 17.500 L 25.539 17.762 L 25.743 18.095 L 25.951 18.493 L 26.163 18.947 L 26.374 19.452 L 26.582 19.999 L 26.784 20.582 L 26.977 21.194 L 27.157 21.827 L 27.663 24.159 L 27.757 23.803 L 27.858 23.447 L 27.963 23.091 L 28.074 22.736 L 28.188 22.382 L 28.306 22.028 L 29.439 18.884 L 29.623 18.365 L 29.798 17.854 L 29.961 17.350 L 30.111 16.857 L 30.243 16.374 L 30.356 15.904 L 30.447 15.447 L 30.514 15.005 L 30.554 14.578 L 30.564 14.169 L 29.605 13.809 L 28.632 13.630 L 27.648 13.617 L 26.655 13.751 L 25.657 14.013 L 24.657 14.387 L 23.659 14.854 L 22.664 15.396 L 21.678 15.996 L 20.701 16.635 L 19.739 17.296 L 18.154 18.411 L 17.527 18.848 L 16.911 19.268 L 16.306 19.665 L 15.713 20.035 L 15.133 20.373 L 14.564 20.674 L 14.008 20.933 L 13.464 21.146 L 12.933 21.307 L 12.414 21.412 L 11.908 21.456 L 12.311 22.672 L 12.488 24.123 L 12.499 25.760 L 12.402 27.536 L 12.254 29.404 L 12.116 31.315 L 12.045 33.221 L 12.100 35.076 L 12.339 36.831 L 12.822 38.438 L 13.606 39.849 L 14.750 41.018 L 15.120 40.831 L 15.491 40.605 L 15.863 40.341 L 16.235 40.045 L 16.608 39.719 L 16.982 39.366 L 17.358 38.990 L 17.735 38.594 L 18.114 38.182 L 18.495 37.756 L 20.223 35.791 L 20.955 34.993 L 21.456 34.469 L 21.972 33.951 L 22.236 33.694 L 21.757 33.874 L 21.249 34.048 L 20.720 34.216 L 20.176 34.375 L 19.622 34.523 L 19.064 34.659 L 18.509 34.780 L 17.963 34.885 L 17.432 34.972 L 16.921 35.038 L 16.438 35.082 L 15.987 35.102 L 15.806 35.103 L 15.637 35.098 L 15.481 35.089 L 15.337 35.073 L 15.206 35.053 L 15.089 35.027 L 14.986 34.996 L 14.899 34.960 L 14.827 34.918 L 14.770 34.870 L 14.730 34.817 L 14.708 34.759 L 14.721 34.610 L 14.821 34.444 L 15.003 34.264 L 15.262 34.071 L 15.590 33.870 L 15.984 33.663 L 16.437 33.452 L 16.943 33.241 L 17.498 33.032 L 18.095 32.827 L 18.730 32.630 L 19.396 32.444 L 19.784 32.344 L 20.176 32.251 L 20.567 32.164 L 20.956 32.085 L 21.339 32.014 L 21.715 31.952 Z M 137.443 20.562 L 137.335 21.008 L 137.056 21.587 L 136.634 22.268 L 136.094 23.019 L 135.463 23.808 L 134.769 24.604 L 134.036 25.376 L 133.293 26.091 L 132.565 26.718 L 131.880 27.225 L 131.529 27.885 L 131.677 27.700 L 131.859 27.502 L 132.072 27.292 L 132.316 27.071 L 132.587 26.841 L 132.886 26.604 L 133.209 26.361 L 133.556 26.114 L 133.924 25.863 L 134.313 25.611 L 134.720 25.359 L 135.144 25.109 L 135.738 24.777 L 136.317 24.475 L 136.876 24.205 L 137.408 23.968 L 137.908 23.767 L 138.369 23.603 L 138.787 23.478 L 139.155 23.395 L 139.467 23.355 L 139.718 23.360 L 139.902 23.411 L 140.013 23.512 L 140.026 23.539 L 140.036 23.567 L 140.042 23.598 L 140.045 23.630 L 140.045 23.663 L 140.034 23.735 L 140.010 23.814 L 139.950 23.943 L 139.832 24.127 L 139.671 24.329 L 139.470 24.548 L 139.230 24.782 L 138.954 25.027 L 138.644 25.284 L 138.302 25.549 L 137.931 25.820 L 137.532 26.095 L 137.109 26.373 L 136.663 26.650 L 136.197 26.926 L 135.770 27.167 L 135.349 27.393 L 134.938 27.603 L 134.538 27.796 L 134.151 27.973 L 133.780 28.131 L 133.426 28.271 L 133.092 28.391 L 132.780 28.492 L 132.491 28.572 L 132.229 28.631 L 131.995 28.668 L 132.126 29.069 L 132.328 28.940 L 132.564 28.808 L 132.831 28.675 L 133.127 28.541 L 133.451 28.406 L 133.801 28.273 L 134.175 28.141 L 134.571 28.012 L 134.987 27.887 L 135.422 27.766 L 135.873 27.650 L 136.339 27.540 L 137.007 27.398 L 137.652 27.281 L 138.268 27.188 L 138.848 27.119 L 139.388 27.074 L 139.880 27.054 L 140.319 27.058 L 140.697 27.087 L 141.010 27.140 L 141.251 27.219 L 141.414 27.322 L 141.493 27.450 L 141.477 27.620 L 141.356 27.800 L 141.142 27.988 L 140.845 28.181 L 140.476 28.377 L 140.048 28.572 L 139.571 28.763 L 139.055 28.948 L 138.513 29.125 L 137.956 29.290 L 137.394 29.440 L 136.838 29.573 L 136.351 29.678 L 135.875 29.770 L 135.413 29.850 L 134.967 29.917 L 134.539 29.971 L 134.132 30.012 L 133.748 30.040 L 133.389 30.056 L 133.058 30.058 L 132.756 30.048 L 132.487 30.025 L 132.252 29.988 L 132.220 30.485 L 132.452 30.420 L 132.717 30.362 L 133.012 30.312 L 133.335 30.268 L 133.684 30.233 L 134.057 30.205 L 134.453 30.186 L 134.869 30.176 L 135.303 30.174 L 135.754 30.181 L 136.219 30.198 L 136.696 30.225 L 137.381 30.279 L 138.037 30.349 L 138.659 30.434 L 139.240 30.533 L 139.775 30.643 L 140.257 30.762 L 140.680 30.890 L 141.039 31.024 L 141.327 31.164 L 141.539 31.306 L 141.668 31.450 L 141.709 31.595 L 141.653 31.742 L 141.500 31.874 L 141.259 31.990 L 140.940 32.090 L 140.551 32.175 L 140.101 32.243 L 139.599 32.295 L 139.055 32.330 L 138.475 32.349 L 137.871 32.351 L 137.250 32.335 L 136.621 32.303 L 136.104 32.264 L 135.603 32.216 L 135.119 32.158 L 134.655 32.093 L 134.215 32.020 L 133.800 31.941 L 133.413 31.855 L 133.056 31.765 L 132.733 31.669 L 132.445 31.570 L 132.195 31.467 L 131.986 31.362 L 131.692 31.923 L 131.940 31.917 L 132.212 31.923 L 132.508 31.939 L 132.824 31.966 L 133.160 32.003 L 133.514 32.051 L 133.885 32.110 L 134.270 32.179 L 134.669 32.258 L 135.080 32.348 L 135.501 32.448 L 135.930 32.558 L 136.596 32.744 L 137.231 32.941 L 137.828 33.146 L 138.383 33.355 L 138.889 33.566 L 139.342 33.777 L 139.736 33.984 L 140.065 34.185 L 140.323 34.378 L 140.505 34.558 L 140.605 34.724 L 140.618 34.873 L 140.538 35.002 L 140.368 35.099 L 140.117 35.166 L 139.793 35.204 L 139.403 35.213 L 138.954 35.195 L 138.455 35.151 L 137.912 35.082 L 137.334 34.988 L 136.728 34.872 L 136.102 34.733 L 135.463 34.572 L 133.741 34.046 L 133.190 33.845 L 133.451 34.104 L 133.709 34.369 L 133.965 34.638 L 134.217 34.911 L 134.715 35.467 L 136.871 38.019 L 137.229 38.438 L 137.584 38.846 L 137.939 39.239 L 138.292 39.615 L 138.644 39.970 L 138.994 40.304 L 139.345 40.611 L 139.694 40.890 L 140.044 41.137 L 140.393 41.351 L 141.185 40.701 L 141.825 39.948 L 142.329 39.102 L 142.710 38.176 L 142.981 37.181 L 143.158 36.128 L 143.253 35.030 L 143.280 33.898 L 143.254 32.743 L 143.188 31.578 L 143.097 30.415 L 142.924 28.485 L 142.859 27.723 L 142.803 26.980 L 142.761 26.258 L 142.737 25.560 L 142.735 24.888 L 142.758 24.245 L 142.812 23.634 L 142.900 23.057 L 143.026 22.516 L 143.194 22.015 L 143.409 21.555 L 142.154 21.295 L 140.809 20.724 L 139.385 19.914 L 137.895 18.942 L 136.351 17.880 L 134.765 16.805 L 133.149 15.790 L 131.515 14.910 L 129.876 14.240 L 128.243 13.855 L 126.628 13.828 L 125.043 14.234 L 125.020 14.648 L 125.031 15.082 L 125.073 15.536 L 125.144 16.006 L 125.240 16.492 L 125.358 16.993 L 125.496 17.506 L 125.650 18.031 L 125.818 18.565 L 125.996 19.107 L 126.945 21.930 L 127.159 22.619 L 127.363 23.315 L 127.460 23.666 L 127.554 24.020 L 127.644 24.378 L 127.728 23.873 L 127.831 23.346 L 127.950 22.804 L 128.085 22.253 L 128.233 21.700 L 128.394 21.149 L 128.567 20.608 L 128.749 20.083 L 128.940 19.579 L 129.137 19.104 L 129.341 18.663 L 129.549 18.263 L 129.639 18.106 L 129.727 17.962 L 129.814 17.831 L 129.899 17.714 L 129.982 17.611 L 130.063 17.523 L 130.141 17.450 L 130.217 17.392 L 130.289 17.351 L 130.358 17.326 L 130.424 17.317 L 130.486 17.327 L 130.608 17.413 L 130.702 17.583 L 130.767 17.831 L 130.805 18.150 L 130.815 18.535 L 130.797 18.980 L 130.754 19.477 L 130.683 20.022 L 130.587 20.607 L 130.466 21.226 L 130.319 21.874 L 130.147 22.543 L 130.039 22.930 L 129.925 23.316 L 129.804 23.698 L 129.678 24.074 L 129.548 24.441 L 129.414 24.797 L 129.276 25.139 L 129.137 25.465 L 128.995 25.771 L 128.852 26.056 L 128.709 26.316 L 128.566 26.549 L 129.208 26.581 L 129.224 26.262 L 129.279 25.897 L 129.370 25.493 L 129.492 25.056 L 129.643 24.593 L 129.818 24.110 L 130.013 23.615 L 130.226 23.114 L 130.451 22.613 L 130.687 22.121 L 130.927 21.642 L 131.170 21.185 L 131.448 20.691 L 131.725 20.229 L 131.998 19.800 L 132.265 19.409 L 132.523 19.059 L 132.770 18.752 L 133.003 18.493 L 133.219 18.285 L 133.417 18.130 L 133.593 18.032 L 133.746 17.995 L 133.872 18.021 L 133.976 18.129 L 134.036 18.313 L 134.054 18.567 L 134.030 18.886 L 133.967 19.264 L 133.866 19.694 L 133.729 20.171 L 133.557 20.688 L 133.352 21.240 L 133.115 21.821 L 132.849 22.424 L 132.553 23.044 L 132.371 23.405 L 132.179 23.769 L 131.981 24.134 L 131.776 24.494 L 131.566 24.847 L 131.353 25.190 L 131.137 25.517 L 130.921 25.826 L 130.704 26.114 L 130.490 26.376 L 130.278 26.608 L 130.070 26.808 L 130.630 26.758 L 130.768 26.470 L 130.936 26.166 L 131.131 25.848 L 131.349 25.519 L 131.585 25.185 L 131.836 24.848 L 132.099 24.511 L 132.369 24.180 L 132.642 23.856 L 132.914 23.545 L 133.183 23.250 L 133.653 22.755 L 134.117 22.294 L 134.571 21.869 L 135.009 21.485 L 135.426 21.144 L 135.818 20.850 L 136.179 20.608 L 136.505 20.420 L 136.790 20.289 L 137.030 20.221 L 137.219 20.217 L 137.353 20.281 Z M 14.387 74.193 L 14.577 73.780 L 14.752 73.337 L 14.912 72.868 L 15.059 72.375 L 15.197 71.862 L 15.325 71.330 L 15.447 70.784 L 15.564 70.225 L 16.154 67.307 L 16.313 66.603 L 16.397 66.251 L 16.485 65.898 L 16.576 65.546 L 16.672 65.192 L 16.773 64.837 L 16.447 65.232 L 16.095 65.637 L 15.721 66.047 L 15.329 66.457 L 14.923 66.862 L 14.508 67.258 L 14.088 67.641 L 13.668 68.005 L 13.251 68.345 L 12.842 68.658 L 12.446 68.938 L 12.065 69.180 L 11.909 69.271 L 11.760 69.352 L 11.620 69.422 L 11.487 69.481 L 11.364 69.528 L 11.250 69.564 L 11.145 69.589 L 11.051 69.601 L 10.968 69.601 L 10.895 69.588 L 10.834 69.562 L 10.785 69.523 L 10.722 69.387 L 10.726 69.193 L 10.794 68.946 L 10.921 68.650 L 11.105 68.312 L 11.342 67.936 L 11.629 67.527 L 11.962 67.090 L 12.338 66.632 L 12.753 66.156 L 13.204 65.669 L 13.688 65.174 L 13.974 64.894 L 14.267 64.617 L 14.562 64.346 L 14.859 64.083 L 15.156 63.830 L 15.450 63.589 L 15.740 63.362 L 16.024 63.150 L 16.300 62.955 L 16.566 62.780 L 16.820 62.626 L 17.061 62.496 L 16.520 62.147 L 16.347 62.415 L 16.117 62.704 L 15.836 63.009 L 15.511 63.326 L 15.149 63.652 L 14.756 63.982 L 14.339 64.314 L 13.905 64.641 L 13.459 64.962 L 13.009 65.271 L 12.561 65.565 L 12.122 65.839 L 11.635 66.128 L 11.164 66.390 L 10.713 66.625 L 10.286 66.830 L 9.887 67.005 L 9.520 67.147 L 9.189 67.254 L 8.897 67.327 L 8.648 67.362 L 8.447 67.358 L 8.296 67.315 L 8.201 67.229 L 8.164 67.084 L 8.204 66.894 L 8.316 66.665 L 8.496 66.401 L 8.739 66.105 L 9.042 65.783 L 9.399 65.439 L 9.807 65.076 L 10.260 64.701 L 10.756 64.316 L 11.288 63.927 L 11.854 63.538 L 12.193 63.317 L 12.541 63.097 L 12.895 62.881 L 13.253 62.671 L 13.611 62.470 L 13.967 62.280 L 14.318 62.104 L 14.660 61.945 L 14.991 61.804 L 15.308 61.685 L 15.608 61.589 L 15.887 61.520 L 15.377 61.283 L 15.114 61.463 L 14.816 61.643 L 14.488 61.821 L 14.135 61.997 L 13.763 62.168 L 13.377 62.334 L 12.981 62.494 L 12.582 62.647 L 12.184 62.790 L 11.792 62.923 L 11.412 63.045 L 10.758 63.239 L 10.125 63.406 L 9.520 63.547 L 8.948 63.661 L 8.416 63.748 L 7.930 63.806 L 7.496 63.835 L 7.120 63.835 L 6.807 63.806 L 6.565 63.745 L 6.399 63.654 L 6.316 63.531 L 6.379 63.243 L 6.695 62.911 L 7.226 62.549 L 7.932 62.170 L 8.775 61.790 L 9.716 61.422 L 10.716 61.079 L 11.736 60.778 L 12.737 60.530 L 13.681 60.351 L 14.529 60.254 L 15.162 59.858 L 14.941 59.944 L 14.685 60.025 L 14.395 60.100 L 14.074 60.169 L 13.724 60.232 L 13.347 60.289 L 12.945 60.337 L 12.521 60.378 L 12.077 60.411 L 11.614 60.435 L 11.136 60.450 L 10.643 60.455 L 9.963 60.445 L 9.310 60.417 L 8.691 60.372 L 8.112 60.311 L 7.579 60.236 L 7.097 60.147 L 6.673 60.046 L 6.313 59.934 L 6.022 59.813 L 5.807 59.683 L 5.674 59.546 L 5.628 59.403 L 5.630 59.374 L 5.636 59.344 L 5.645 59.315 L 5.676 59.257 L 5.697 59.228 L 5.898 59.062 L 6.092 58.962 L 6.332 58.867 L 6.616 58.778 L 6.941 58.696 L 7.303 58.621 L 7.700 58.554 L 8.128 58.495 L 8.585 58.446 L 9.068 58.407 L 9.574 58.378 L 10.099 58.360 L 10.640 58.354 L 11.131 58.359 L 11.608 58.374 L 12.069 58.398 L 12.512 58.430 L 12.935 58.471 L 13.336 58.519 L 13.712 58.575 L 14.062 58.638 L 14.383 58.707 L 14.673 58.781 L 14.929 58.861 L 15.151 58.947 L 15.238 58.534 L 14.998 58.544 L 14.728 58.541 L 14.430 58.523 L 14.106 58.491 L 13.758 58.445 L 13.389 58.386 L 12.999 58.313 L 12.592 58.227 L 12.168 58.127 L 11.731 58.015 L 11.283 57.890 L 10.824 57.753 L 10.175 57.541 L 9.558 57.320 L 8.978 57.093 L 8.441 56.862 L 7.951 56.631 L 7.514 56.403 L 7.137 56.180 L 6.823 55.966 L 6.579 55.763 L 6.409 55.575 L 6.320 55.404 L 6.316 55.254 L 6.415 55.115 L 6.609 55.019 L 6.889 54.963 L 7.243 54.944 L 7.660 54.959 L 8.128 55.005 L 8.637 55.077 L 9.176 55.175 L 9.734 55.293 L 10.299 55.429 L 10.861 55.579 L 11.409 55.741 L 11.883 55.894 L 12.341 56.052 L 12.781 56.214 L 13.201 56.380 L 13.598 56.547 L 13.971 56.715 L 14.318 56.882 L 14.637 57.048 L 14.925 57.212 L 15.181 57.371 L 15.403 57.526 L 15.588 57.675 L 15.865 57.261 L 15.631 57.201 L 15.373 57.119 L 15.092 57.015 L 14.791 56.891 L 14.470 56.747 L 14.133 56.584 L 13.781 56.403 L 13.415 56.204 L 13.038 55.989 L 12.652 55.757 L 12.258 55.510 L 11.858 55.249 L 11.292 54.859 L 10.758 54.470 L 10.263 54.086 L 9.808 53.710 L 9.400 53.348 L 9.043 53.003 L 8.740 52.681 L 8.496 52.385 L 8.316 52.120 L 8.204 51.891 L 8.164 51.701 L 8.201 51.556 L 8.324 51.457 L 8.522 51.419 L 8.789 51.439 L 9.115 51.511 L 9.494 51.633 L 9.918 51.799 L 10.378 52.004 L 10.868 52.246 L 11.379 52.520 L 11.903 52.820 L 12.434 53.144 L 12.962 53.486 L 13.390 53.778 L 13.800 54.071 L 14.191 54.362 L 14.560 54.651 L 14.905 54.934 L 15.224 55.210 L 15.517 55.478 L 15.780 55.735 L 16.012 55.979 L 16.212 56.209 L 16.377 56.422 L 16.506 56.618 L 17.041 56.279 L 16.823 56.160 L 16.590 56.019 L 16.342 55.858 L 16.081 55.676 L 15.809 55.476 L 15.526 55.257 L 15.235 55.021 L 14.936 54.769 L 14.630 54.500 L 14.319 54.217 L 14.005 53.921 L 13.688 53.611 L 13.204 53.116 L 12.753 52.629 L 12.338 52.153 L 11.962 51.695 L 11.629 51.258 L 11.342 50.849 L 11.105 50.473 L 10.921 50.135 L 10.794 49.839 L 10.726 49.592 L 10.722 49.398 L 10.785 49.262 L 10.920 49.191 L 11.115 49.192 L 11.366 49.259 L 11.665 49.388 L 12.008 49.575 L 12.388 49.815 L 12.798 50.103 L 13.234 50.434 L 13.687 50.804 L 14.154 51.208 L 14.627 51.642 L 15.100 52.100 L 16.704 53.866 L 16.608 53.511 L 16.517 53.153 L 16.430 52.792 L 16.348 52.429 L 16.270 52.065 L 16.195 51.699 L 15.604 48.410 L 15.504 47.869 L 15.400 47.338 L 15.289 46.821 L 15.172 46.319 L 15.045 45.835 L 14.908 45.371 L 14.758 44.930 L 14.595 44.513 L 14.416 44.124 L 14.220 43.765 L 13.210 43.932 L 12.278 44.264 L 11.419 44.744 L 10.626 45.356 L 9.893 46.083 L 9.214 46.906 L 8.583 47.810 L 7.993 48.776 L 7.438 49.789 L 6.912 50.831 L 6.409 51.884 L 5.137 54.612 L 4.942 55.014 L 4.746 55.406 L 4.550 55.788 L 4.352 56.160 L 4.153 56.519 L 3.950 56.865 L 3.745 57.198 L 3.537 57.516 L 3.537 61.411 L 4.230 62.574 L 4.904 63.866 L 5.572 65.248 L 6.252 66.677 L 6.958 68.113 L 7.706 69.516 L 8.512 70.843 L 9.392 72.055 L 10.360 73.109 L 11.432 73.966 L 12.624 74.584 L 13.952 74.922 L 14.179 74.575 Z M 141.573 53.742 L 141.286 54.023 L 140.994 54.300 L 140.698 54.570 L 140.401 54.833 L 140.104 55.086 L 139.810 55.327 L 139.520 55.555 L 139.236 55.767 L 138.960 55.961 L 138.694 56.136 L 138.440 56.290 L 138.199 56.421 L 138.740 56.769 L 138.913 56.501 L 139.143 56.213 L 139.424 55.908 L 139.749 55.591 L 140.111 55.265 L 140.504 54.934 L 140.921 54.603 L 141.356 54.275 L 141.801 53.955 L 142.251 53.646 L 142.699 53.352 L 143.138 53.077 L 143.625 52.789 L 144.096 52.526 L 144.547 52.291 L 144.974 52.086 L 145.373 51.912 L 145.740 51.770 L 146.071 51.662 L 146.363 51.590 L 146.612 51.555 L 146.813 51.558 L 146.964 51.602 L 147.060 51.687 L 147.096 51.833 L 147.056 52.022 L 146.944 52.251 L 146.764 52.516 L 146.521 52.812 L 146.218 53.134 L 145.861 53.478 L 145.454 53.840 L 145.000 54.216 L 144.504 54.600 L 143.972 54.989 L 143.406 55.378 L 143.067 55.600 L 142.719 55.819 L 142.365 56.036 L 142.007 56.245 L 141.649 56.447 L 141.293 56.636 L 140.943 56.812 L 140.600 56.972 L 140.270 57.113 L 139.953 57.232 L 139.653 57.327 L 139.373 57.396 L 139.883 57.633 L 140.146 57.453 L 140.444 57.274 L 140.772 57.095 L 141.125 56.920 L 141.497 56.748 L 141.883 56.582 L 142.279 56.422 L 142.678 56.270 L 143.076 56.126 L 143.468 55.993 L 143.848 55.871 L 144.503 55.678 L 145.135 55.510 L 145.741 55.369 L 146.312 55.255 L 146.844 55.169 L 147.330 55.111 L 147.764 55.081 L 148.141 55.081 L 148.453 55.111 L 148.695 55.171 L 148.861 55.262 L 148.945 55.385 L 148.881 55.673 L 148.565 56.006 L 148.034 56.368 L 147.328 56.746 L 146.485 57.127 L 145.544 57.495 L 144.544 57.837 L 143.524 58.139 L 142.523 58.387 L 141.579 58.566 L 140.731 58.663 L 140.098 59.059 L 140.319 58.973 L 140.575 58.892 L 140.865 58.817 L 141.186 58.747 L 141.536 58.684 L 141.913 58.628 L 142.315 58.579 L 142.739 58.538 L 143.183 58.505 L 143.646 58.481 L 144.125 58.467 L 144.617 58.462 L 145.297 58.471 L 145.950 58.499 L 146.569 58.544 L 147.148 58.605 L 147.682 58.681 L 148.163 58.770 L 148.587 58.871 L 148.947 58.982 L 149.238 59.104 L 149.453 59.234 L 149.587 59.370 L 149.632 59.513 L 149.630 59.543 L 149.615 59.602 L 149.584 59.660 L 149.510 59.745 L 149.443 59.800 L 149.362 59.854 L 149.168 59.955 L 148.928 60.050 L 148.644 60.139 L 148.319 60.221 L 147.957 60.296 L 147.560 60.363 L 147.132 60.421 L 146.675 60.470 L 146.192 60.509 L 145.687 60.538 L 145.162 60.556 L 144.620 60.562 L 144.129 60.557 L 143.652 60.543 L 143.191 60.519 L 142.748 60.486 L 142.325 60.446 L 141.924 60.397 L 141.548 60.341 L 141.198 60.279 L 140.878 60.210 L 140.588 60.135 L 140.331 60.055 L 140.109 59.970 L 140.023 60.383 L 140.262 60.372 L 140.532 60.376 L 140.830 60.394 L 141.154 60.425 L 141.502 60.471 L 141.871 60.531 L 142.261 60.604 L 142.669 60.690 L 143.092 60.789 L 143.529 60.901 L 143.978 61.026 L 144.436 61.164 L 145.085 61.376 L 145.702 61.597 L 146.282 61.824 L 146.820 62.054 L 147.309 62.285 L 147.746 62.514 L 148.123 62.737 L 148.437 62.951 L 148.681 63.154 L 148.851 63.342 L 148.941 63.512 L 148.945 63.663 L 148.846 63.802 L 148.651 63.898 L 148.371 63.954 L 148.017 63.972 L 147.601 63.957 L 147.132 63.912 L 146.623 63.839 L 146.084 63.742 L 145.527 63.624 L 144.961 63.488 L 144.399 63.337 L 143.851 63.175 L 143.377 63.022 L 142.919 62.864 L 142.479 62.702 L 142.059 62.537 L 141.662 62.370 L 141.289 62.202 L 140.942 62.034 L 140.623 61.868 L 140.335 61.705 L 140.079 61.545 L 139.857 61.390 L 139.672 61.242 L 139.396 61.656 L 139.629 61.716 L 139.887 61.798 L 140.168 61.901 L 140.470 62.025 L 140.790 62.169 L 141.127 62.332 L 141.480 62.513 L 141.845 62.712 L 142.222 62.928 L 142.608 63.159 L 143.003 63.406 L 143.402 63.668 L 143.968 64.057 L 144.502 64.446 L 144.998 64.831 L 145.452 65.207 L 145.860 65.569 L 146.217 65.913 L 146.520 66.236 L 146.764 66.531 L 146.944 66.796 L 147.056 67.026 L 147.096 67.215 L 147.059 67.361 L 146.936 67.460 L 146.738 67.497 L 146.471 67.478 L 146.145 67.405 L 145.766 67.284 L 145.342 67.118 L 144.882 66.912 L 144.392 66.670 L 143.881 66.397 L 143.357 66.096 L 142.827 65.773 L 142.299 65.431 L 141.870 65.138 L 141.460 64.846 L 141.069 64.554 L 140.701 64.266 L 140.356 63.982 L 140.036 63.706 L 139.744 63.439 L 139.480 63.182 L 139.248 62.938 L 139.048 62.708 L 138.883 62.494 L 138.755 62.299 L 138.219 62.637 L 138.437 62.756 L 138.671 62.897 L 138.918 63.059 L 139.179 63.240 L 139.451 63.441 L 139.734 63.659 L 140.025 63.895 L 140.325 64.148 L 140.630 64.416 L 140.941 64.699 L 141.256 64.996 L 141.573 65.306 L 142.056 65.800 L 142.507 66.288 L 142.922 66.763 L 143.298 67.222 L 143.631 67.658 L 143.918 68.067 L 144.155 68.443 L 144.339 68.782 L 144.467 69.077 L 144.534 69.325 L 144.538 69.519 L 144.475 69.654 L 144.341 69.725 L 144.145 69.725 L 143.894 69.658 L 143.595 69.528 L 143.252 69.341 L 142.872 69.102 L 142.462 68.814 L 142.027 68.482 L 141.573 68.112 L 141.106 67.708 L 140.634 67.275 L 140.161 66.817 L 138.556 65.051 L 138.653 65.406 L 138.744 65.764 L 138.830 66.125 L 138.912 66.488 L 138.990 66.852 L 139.065 67.217 L 139.656 70.506 L 139.756 71.047 L 139.861 71.578 L 139.971 72.096 L 140.088 72.598 L 140.215 73.082 L 140.353 73.546 L 140.502 73.987 L 140.665 74.403 L 140.844 74.792 L 141.040 75.151 L 142.050 74.985 L 142.982 74.653 L 143.841 74.172 L 144.634 73.560 L 145.367 72.834 L 146.046 72.010 L 146.678 71.107 L 147.268 70.140 L 147.822 69.128 L 148.348 68.086 L 148.851 67.032 L 149.928 64.714 L 150.124 64.304 L 150.319 63.903 L 150.514 63.510 L 150.710 63.128 L 150.908 62.757 L 151.108 62.397 L 151.310 62.051 L 151.515 61.719 L 151.723 61.401 L 151.723 57.506 L 151.030 56.343 L 150.357 55.050 L 149.688 53.669 L 149.008 52.239 L 148.302 50.803 L 147.554 49.401 L 146.748 48.073 L 145.869 46.862 L 144.901 45.807 L 143.828 44.950 L 142.636 44.333 L 141.308 43.994 L 141.081 44.341 L 140.873 44.723 L 140.683 45.137 L 140.509 45.579 L 140.349 46.049 L 140.201 46.541 L 140.064 47.055 L 139.935 47.586 L 139.813 48.132 L 139.696 48.691 L 139.106 51.610 L 138.863 52.666 L 138.684 53.371 L 138.588 53.725 L 138.488 54.079 L 138.813 53.684 L 139.165 53.279 L 139.539 52.870 L 139.931 52.460 L 140.337 52.054 L 140.752 51.658 L 141.172 51.276 L 141.592 50.912 L 142.009 50.571 L 142.418 50.259 L 142.815 49.979 L 143.195 49.736 L 143.351 49.645 L 143.500 49.565 L 143.641 49.495 L 143.773 49.436 L 143.896 49.388 L 144.010 49.352 L 144.115 49.328 L 144.209 49.316 L 144.292 49.316 L 144.365 49.329 L 144.426 49.355 L 144.475 49.394 L 144.538 49.529 L 144.534 49.723 L 144.467 49.971 L 144.339 50.266 L 144.155 50.605 L 143.918 50.981 L 143.631 51.390 L 143.298 51.826 L 142.922 52.285 L 142.507 52.760 L 142.056 53.248 Z M 29.767 68.526 L 30.862 68.937 L 32.008 69.230 L 32.010 69.047 L 32.016 68.864 L 32.026 68.681 L 32.039 68.499 L 32.078 68.135 L 32.103 67.954 L 32.132 67.773 L 32.165 67.593 L 32.201 67.414 L 32.242 67.235 L 32.286 67.058 L 31.668 66.648 L 31.100 66.161 L 30.580 65.616 L 30.103 65.029 L 29.667 64.417 L 29.269 63.798 L 28.905 63.190 L 28.269 62.072 L 27.990 61.597 L 27.732 61.202 L 27.494 60.903 L 27.389 60.874 L 27.287 60.838 L 27.189 60.795 L 27.095 60.744 L 27.005 60.687 L 26.920 60.624 L 26.840 60.554 L 26.765 60.478 L 26.696 60.397 L 26.633 60.310 L 26.576 60.218 L 26.526 60.120 L 26.444 59.901 L 26.399 59.680 L 26.389 59.459 L 26.413 59.242 L 26.468 59.033 L 26.554 58.835 L 26.667 58.651 L 26.806 58.485 L 26.969 58.341 L 27.155 58.221 L 27.361 58.129 L 27.585 58.069 L 27.663 57.996 L 27.778 57.845 L 27.922 57.631 L 28.087 57.368 L 28.267 57.071 L 29.312 55.255 L 29.508 54.934 L 29.712 54.614 L 29.926 54.295 L 30.149 53.981 L 30.382 53.674 L 30.627 53.376 L 30.883 53.089 L 31.151 52.815 L 31.433 52.557 L 31.728 52.317 L 32.037 52.097 L 32.361 51.899 L 32.272 51.547 L 32.232 51.370 L 32.197 51.192 L 32.136 50.834 L 32.112 50.655 L 32.091 50.474 L 32.074 50.294 L 32.060 50.113 L 32.051 49.932 L 32.045 49.750 L 30.895 50.039 L 29.796 50.448 L 28.758 50.970 L 27.789 51.596 L 26.899 52.320 L 26.098 53.134 L 25.394 54.031 L 24.797 55.003 L 24.317 56.043 L 23.962 57.143 L 23.743 58.295 L 23.667 59.494 L 23.742 60.689 L 23.961 61.838 L 24.313 62.936 L 24.791 63.973 L 25.385 64.944 L 26.085 65.839 L 26.883 66.652 L 27.769 67.376 L 28.733 68.004 Z M 80.133 108.647 L 78.995 109.370 L 78.885 109.465 L 78.858 109.566 L 78.823 109.663 L 78.782 109.758 L 78.735 109.848 L 78.681 109.935 L 78.622 110.018 L 78.556 110.096 L 78.485 110.169 L 78.409 110.237 L 78.327 110.300 L 78.241 110.357 L 78.149 110.409 L 77.928 110.501 L 77.702 110.554 L 77.475 110.571 L 77.251 110.553 L 77.035 110.501 L 76.830 110.418 L 76.639 110.305 L 76.467 110.165 L 76.318 109.999 L 76.196 109.809 L 76.103 109.597 L 76.046 109.364 L 75.759 109.128 L 75.371 108.874 L 74.898 108.597 L 73.775 107.966 L 73.160 107.605 L 72.534 107.210 L 71.916 106.776 L 71.323 106.302 L 70.774 105.784 L 70.288 105.219 L 69.881 104.604 L 69.529 104.693 L 69.352 104.733 L 69.174 104.768 L 68.816 104.829 L 68.456 104.874 L 68.094 104.904 L 67.913 104.913 L 67.731 104.918 L 68.020 106.067 L 68.430 107.165 L 68.951 108.203 L 69.578 109.172 L 70.302 110.061 L 71.116 110.862 L 72.013 111.565 L 72.985 112.162 L 74.025 112.642 L 75.125 112.996 L 76.277 113.216 L 77.476 113.291 L 78.671 113.216 L 79.821 112.998 L 80.918 112.645 L 81.956 112.168 L 82.926 111.574 L 83.822 110.874 L 84.635 110.077 L 85.359 109.192 L 85.987 108.228 L 86.510 107.194 L 86.921 106.100 L 87.213 104.955 L 87.030 104.953 L 86.847 104.947 L 86.664 104.937 L 86.482 104.924 L 86.299 104.907 L 85.936 104.860 L 85.755 104.831 L 85.575 104.799 L 85.217 104.722 L 85.040 104.677 L 84.726 105.168 L 84.370 105.621 L 83.977 106.039 L 83.552 106.429 L 83.101 106.792 L 82.629 107.133 L 82.140 107.456 L 81.641 107.765 L 81.137 108.064 Z M 130.161 55.014 L 129.567 54.044 L 128.867 53.149 L 128.069 52.335 L 127.184 51.611 L 126.219 50.984 L 125.185 50.461 L 124.091 50.050 L 122.946 49.758 L 122.937 50.124 L 122.914 50.489 L 122.875 50.853 L 122.850 51.034 L 122.821 51.215 L 122.788 51.395 L 122.752 51.574 L 122.667 51.930 L 123.158 52.244 L 123.611 52.599 L 124.030 52.992 L 124.420 53.417 L 124.783 53.868 L 125.125 54.341 L 125.448 54.829 L 125.757 55.328 L 126.056 55.833 L 126.639 56.837 L 127.363 57.975 L 127.458 58.085 L 127.563 58.114 L 127.665 58.150 L 127.763 58.194 L 127.857 58.245 L 127.946 58.302 L 128.031 58.366 L 128.111 58.436 L 128.186 58.512 L 128.255 58.594 L 128.318 58.681 L 128.375 58.773 L 128.426 58.870 L 128.509 59.090 L 128.555 59.313 L 128.565 59.536 L 128.542 59.754 L 128.486 59.964 L 128.401 60.163 L 128.287 60.347 L 128.147 60.513 L 127.982 60.657 L 127.795 60.775 L 127.586 60.865 L 127.359 60.922 L 127.249 61.047 L 127.119 61.224 L 126.973 61.443 L 126.816 61.694 L 126.650 61.969 L 125.638 63.735 L 125.442 64.056 L 125.238 64.376 L 125.024 64.694 L 124.801 65.007 L 124.568 65.314 L 124.324 65.612 L 124.068 65.899 L 123.800 66.172 L 123.518 66.430 L 123.224 66.670 L 122.915 66.890 L 122.591 67.088 L 122.637 67.263 L 122.720 67.617 L 122.787 67.973 L 122.816 68.152 L 122.861 68.512 L 122.879 68.693 L 122.902 69.055 L 122.907 69.236 L 124.057 68.947 L 125.156 68.538 L 126.194 68.017 L 127.163 67.390 L 128.052 66.666 L 128.854 65.852 L 129.558 64.956 L 130.154 63.984 L 130.635 62.944 L 130.989 61.844 L 131.209 60.692 L 131.284 59.494 L 131.209 58.299 L 130.991 57.149 L 130.638 56.052 Z M 69.910 14.313 L 70.223 13.822 L 70.579 13.369 L 70.972 12.950 L 71.397 12.560 L 71.849 12.197 L 72.321 11.855 L 72.810 11.532 L 73.309 11.223 L 73.814 10.924 L 74.819 10.340 L 76.013 9.570 L 76.065 9.523 L 76.094 9.416 L 76.131 9.312 L 76.175 9.212 L 76.226 9.117 L 76.284 9.026 L 76.349 8.940 L 76.420 8.858 L 76.498 8.783 L 76.581 8.713 L 76.670 8.650 L 76.764 8.593 L 76.864 8.543 L 77.084 8.463 L 77.307 8.421 L 77.528 8.413 L 77.746 8.439 L 77.955 8.496 L 78.153 8.583 L 78.336 8.698 L 78.501 8.838 L 78.644 9.003 L 78.761 9.190 L 78.849 9.397 L 78.905 9.622 L 78.954 9.679 L 79.048 9.756 L 79.180 9.849 L 79.341 9.955 L 81.465 11.192 L 81.883 11.442 L 82.300 11.705 L 82.711 11.980 L 83.111 12.269 L 83.498 12.574 L 83.866 12.897 L 84.212 13.238 L 84.531 13.599 L 84.819 13.982 L 85.072 14.388 L 85.424 14.299 L 85.601 14.259 L 85.779 14.224 L 86.137 14.163 L 86.497 14.118 L 86.859 14.087 L 87.221 14.072 L 86.932 12.922 L 86.523 11.824 L 86.002 10.785 L 85.375 9.817 L 84.651 8.927 L 83.837 8.126 L 82.940 7.423 L 81.968 6.826 L 80.928 6.346 L 79.827 5.991 L 78.674 5.772 L 77.476 5.696 L 76.280 5.771 L 75.130 5.990 L 74.033 6.342 L 72.995 6.820 L 72.025 7.414 L 71.129 8.114 L 70.315 8.911 L 69.591 9.797 L 68.964 10.761 L 68.441 11.795 L 68.030 12.890 L 67.738 14.035 L 67.921 14.037 L 68.104 14.043 L 68.286 14.053 L 68.469 14.067 L 68.651 14.084 L 68.833 14.105 L 69.014 14.130 L 69.194 14.159 L 69.554 14.228 Z M 99.951 11.644 L 98.814 11.673 L 97.689 11.831 L 96.585 12.115 L 95.514 12.519 L 94.488 13.040 L 93.518 13.673 L 92.614 14.415 L 91.789 15.261 L 91.946 15.354 L 92.100 15.450 L 92.253 15.549 L 92.404 15.652 L 92.552 15.757 L 92.842 15.977 L 92.983 16.092 L 93.259 16.330 L 93.393 16.454 L 93.524 16.580 L 94.188 16.252 L 94.892 16.004 L 95.625 15.827 L 96.371 15.708 L 97.118 15.637 L 97.853 15.602 L 98.562 15.591 L 99.848 15.599 L 100.398 15.594 L 100.869 15.569 L 101.246 15.512 L 101.319 15.440 L 101.396 15.374 L 101.477 15.314 L 101.562 15.260 L 101.650 15.212 L 101.741 15.171 L 101.835 15.135 L 101.932 15.107 L 102.030 15.085 L 102.130 15.070 L 102.231 15.063 L 102.334 15.063 L 102.574 15.090 L 102.800 15.155 L 103.007 15.252 L 103.194 15.379 L 103.358 15.532 L 103.497 15.707 L 103.608 15.900 L 103.688 16.109 L 103.735 16.328 L 103.747 16.556 L 103.721 16.787 L 103.655 17.019 L 103.669 17.091 L 103.712 17.205 L 103.780 17.351 L 103.866 17.523 L 103.966 17.712 L 104.847 19.241 L 105.087 19.658 L 105.324 20.085 L 105.554 20.520 L 105.772 20.964 L 105.974 21.416 L 106.156 21.873 L 106.314 22.337 L 106.443 22.806 L 106.538 23.278 L 106.596 23.754 L 106.612 24.233 L 106.786 24.280 L 106.959 24.331 L 107.131 24.385 L 107.302 24.442 L 107.640 24.567 L 107.807 24.635 L 107.972 24.706 L 108.136 24.781 L 108.299 24.859 L 108.619 25.025 L 108.943 23.885 L 109.139 22.728 L 109.206 21.568 L 109.148 20.416 L 108.966 19.283 L 108.662 18.182 L 108.238 17.125 L 107.695 16.122 L 107.036 15.187 L 106.263 14.331 L 105.377 13.566 L 104.380 12.904 L 103.313 12.374 L 102.211 11.990 L 101.087 11.748 Z M 53.774 103.452 L 53.705 103.474 L 53.635 103.544 L 53.560 103.608 L 53.482 103.667 L 53.401 103.720 L 53.316 103.767 L 53.228 103.808 L 53.138 103.843 L 53.045 103.872 L 52.950 103.894 L 52.853 103.910 L 52.755 103.920 L 52.656 103.923 L 52.410 103.901 L 52.179 103.841 L 51.967 103.747 L 51.774 103.622 L 51.605 103.470 L 51.462 103.295 L 51.347 103.101 L 51.264 102.891 L 51.215 102.669 L 51.202 102.438 L 51.228 102.203 L 51.297 101.967 L 51.283 101.895 L 51.239 101.781 L 51.172 101.635 L 51.085 101.463 L 50.985 101.274 L 50.105 99.746 L 49.865 99.329 L 49.628 98.902 L 49.398 98.466 L 49.179 98.022 L 48.977 97.571 L 48.795 97.113 L 48.637 96.649 L 48.508 96.180 L 48.413 95.707 L 48.355 95.231 L 48.340 94.752 L 48.166 94.705 L 47.993 94.655 L 47.820 94.601 L 47.650 94.544 L 47.480 94.483 L 47.312 94.419 L 47.145 94.351 L 46.979 94.280 L 46.815 94.206 L 46.652 94.128 L 46.492 94.047 L 46.332 93.962 L 46.008 95.103 L 45.813 96.259 L 45.745 97.419 L 45.803 98.572 L 45.985 99.704 L 46.290 100.805 L 46.714 101.863 L 47.256 102.865 L 47.915 103.800 L 48.688 104.656 L 49.574 105.421 L 50.571 106.084 L 51.638 106.613 L 52.740 106.997 L 53.864 107.239 L 55.000 107.343 L 56.136 107.314 L 57.262 107.156 L 58.366 106.873 L 59.436 106.468 L 60.462 105.948 L 61.433 105.314 L 62.336 104.573 L 63.162 103.727 L 63.005 103.634 L 62.850 103.538 L 62.547 103.336 L 62.399 103.230 L 62.109 103.010 L 61.968 102.895 L 61.692 102.657 L 61.558 102.533 L 61.427 102.407 L 60.996 102.633 L 60.546 102.823 L 60.080 102.978 L 59.601 103.103 L 59.112 103.200 L 58.616 103.273 L 58.116 103.326 L 57.614 103.361 L 57.113 103.382 L 56.616 103.393 L 56.127 103.396 L 54.424 103.402 L 54.042 103.420 L 53.889 103.434 Z M 56.295 15.668 L 56.776 15.669 L 57.264 15.676 L 57.756 15.695 L 58.249 15.727 L 58.740 15.777 L 59.227 15.848 L 59.706 15.943 L 60.176 16.065 L 60.633 16.219 L 61.074 16.407 L 61.497 16.632 L 61.755 16.380 L 62.024 16.139 L 62.162 16.023 L 62.444 15.799 L 62.736 15.587 L 63.036 15.387 L 63.190 15.292 L 62.365 14.441 L 61.461 13.693 L 60.490 13.055 L 59.462 12.530 L 58.389 12.122 L 57.283 11.835 L 56.154 11.674 L 55.014 11.644 L 53.875 11.747 L 52.747 11.988 L 51.642 12.373 L 50.571 12.904 L 49.577 13.564 L 48.693 14.326 L 47.921 15.179 L 47.263 16.111 L 46.721 17.109 L 46.296 18.163 L 45.990 19.260 L 45.806 20.389 L 45.745 21.538 L 45.809 22.695 L 46.000 23.848 L 46.319 24.986 L 46.478 24.897 L 46.801 24.729 L 47.130 24.575 L 47.297 24.503 L 47.466 24.435 L 47.636 24.370 L 47.807 24.309 L 47.980 24.251 L 48.153 24.197 L 48.328 24.146 L 48.355 23.565 L 48.436 22.995 L 48.567 22.435 L 48.740 21.886 L 48.950 21.346 L 49.188 20.814 L 49.449 20.290 L 49.727 19.772 L 50.015 19.261 L 50.593 18.254 L 51.193 17.118 L 51.222 17.045 L 51.268 16.907 L 51.234 16.738 L 51.216 16.572 L 51.216 16.409 L 51.231 16.251 L 51.264 16.097 L 51.314 15.949 L 51.379 15.809 L 51.462 15.676 L 51.561 15.552 L 51.677 15.437 L 51.809 15.333 L 51.958 15.241 L 52.113 15.168 L 52.273 15.114 L 52.436 15.080 L 52.601 15.065 L 52.766 15.068 L 52.928 15.090 L 53.088 15.130 L 53.242 15.188 L 53.389 15.263 L 53.528 15.355 L 53.656 15.464 L 53.772 15.589 L 53.842 15.613 L 53.963 15.632 L 54.124 15.647 L 54.316 15.658 L 54.529 15.666 Z M 34.428 43.582 L 34.555 43.451 L 34.287 42.934 L 34.073 42.399 L 33.906 41.849 L 33.782 41.287 L 33.693 40.715 L 33.634 40.135 L 33.598 39.551 L 33.580 38.964 L 33.573 38.378 L 33.570 37.217 L 33.500 35.797 L 33.485 35.727 L 33.413 35.654 L 33.347 35.576 L 33.286 35.494 L 33.232 35.408 L 33.184 35.319 L 33.142 35.226 L 33.107 35.131 L 33.078 35.034 L 33.056 34.934 L 33.042 34.833 L 33.035 34.731 L 33.036 34.628 L 33.065 34.388 L 33.132 34.163 L 33.231 33.956 L 33.360 33.771 L 33.514 33.608 L 33.690 33.471 L 33.884 33.362 L 34.093 33.283 L 34.313 33.238 L 34.541 33.228 L 34.772 33.256 L 35.003 33.324 L 35.096 33.294 L 35.193 33.257 L 35.292 33.215 L 37.573 31.919 L 38.057 31.650 L 38.549 31.391 L 39.048 31.150 L 39.555 30.931 L 40.070 30.740 L 40.592 30.583 L 41.122 30.465 L 41.660 30.392 L 42.207 30.369 L 42.254 30.194 L 42.304 30.021 L 42.358 29.848 L 42.416 29.677 L 42.477 29.507 L 42.541 29.338 L 42.609 29.171 L 42.681 29.005 L 42.756 28.841 L 42.834 28.678 L 42.916 28.517 L 43.001 28.357 L 41.860 28.032 L 40.703 27.837 L 39.543 27.770 L 38.390 27.828 L 37.257 28.010 L 36.156 28.314 L 35.098 28.738 L 34.096 29.280 L 33.160 29.939 L 32.304 30.712 L 31.539 31.598 L 30.876 32.595 L 30.346 33.662 L 29.963 34.763 L 29.721 35.887 L 29.616 37.023 L 29.645 38.160 L 29.804 39.285 L 30.087 40.389 L 30.491 41.459 L 31.012 42.485 L 31.646 43.455 L 32.388 44.359 L 33.234 45.184 L 33.327 45.027 L 33.523 44.720 L 33.731 44.422 L 33.840 44.276 L 33.952 44.132 L 34.066 43.991 L 34.184 43.852 Z M 120.058 33.287 L 120.158 33.261 L 120.259 33.242 L 120.360 33.231 L 120.462 33.227 L 120.563 33.230 L 120.663 33.240 L 120.763 33.257 L 120.861 33.281 L 120.958 33.312 L 121.053 33.351 L 121.145 33.396 L 121.234 33.448 L 121.427 33.594 L 121.588 33.763 L 121.717 33.951 L 121.815 34.154 L 121.879 34.368 L 121.911 34.588 L 121.910 34.810 L 121.875 35.029 L 121.805 35.242 L 121.701 35.444 L 121.563 35.630 L 121.389 35.797 L 121.365 35.867 L 121.346 35.987 L 121.331 36.147 L 121.320 36.339 L 121.312 36.552 L 121.311 38.315 L 121.310 38.795 L 121.302 39.282 L 121.283 39.774 L 121.250 40.267 L 121.200 40.758 L 121.129 41.245 L 121.034 41.725 L 120.912 42.194 L 120.759 42.651 L 120.571 43.092 L 120.347 43.514 L 120.474 43.642 L 120.599 43.773 L 120.721 43.906 L 120.957 44.180 L 121.070 44.320 L 121.181 44.463 L 121.393 44.755 L 121.494 44.904 L 121.593 45.056 L 121.688 45.209 L 122.539 44.384 L 123.286 43.481 L 123.924 42.510 L 124.450 41.482 L 124.858 40.410 L 125.144 39.304 L 125.305 38.175 L 125.336 37.036 L 125.232 35.897 L 124.991 34.769 L 124.606 33.665 L 124.075 32.595 L 123.415 31.601 L 122.653 30.718 L 121.800 29.946 L 120.868 29.288 L 119.870 28.746 L 118.816 28.321 L 117.719 28.015 L 116.590 27.831 L 115.441 27.770 L 114.284 27.834 L 113.130 28.024 L 111.992 28.343 L 112.081 28.502 L 112.249 28.825 L 112.328 28.989 L 112.403 29.154 L 112.475 29.321 L 112.543 29.490 L 112.608 29.660 L 112.669 29.831 L 112.727 30.004 L 112.781 30.177 L 112.832 30.352 L 113.414 30.379 L 113.986 30.462 L 114.548 30.594 L 115.100 30.769 L 115.644 30.980 L 116.178 31.220 L 116.704 31.482 L 117.222 31.760 L 117.733 32.047 L 118.732 32.620 Z M 92.792 102.965 L 92.652 103.078 L 92.509 103.189 L 92.217 103.401 L 92.068 103.503 L 91.917 103.601 L 91.763 103.696 L 92.588 104.547 L 93.492 105.294 L 94.463 105.932 L 95.491 106.457 L 96.564 106.865 L 97.670 107.151 L 98.798 107.312 L 99.938 107.343 L 101.077 107.240 L 102.205 106.999 L 103.309 106.614 L 104.380 106.084 L 105.374 105.423 L 106.257 104.661 L 107.029 103.808 L 107.688 102.877 L 108.230 101.879 L 108.655 100.825 L 108.961 99.728 L 109.145 98.599 L 109.207 97.450 L 109.143 96.293 L 108.952 95.140 L 108.633 94.002 L 108.313 94.176 L 108.151 94.258 L 107.987 94.337 L 107.821 94.412 L 107.486 94.552 L 107.316 94.616 L 106.972 94.735 L 106.798 94.789 L 106.623 94.839 L 106.597 95.421 L 106.515 95.991 L 106.384 96.551 L 106.211 97.100 L 106.002 97.641 L 105.764 98.173 L 105.502 98.697 L 105.224 99.214 L 104.937 99.726 L 104.359 100.733 L 103.687 102.065 L 103.714 102.166 L 103.732 102.268 L 103.744 102.371 L 103.748 102.474 L 103.745 102.576 L 103.734 102.678 L 103.716 102.779 L 103.691 102.879 L 103.659 102.977 L 103.620 103.072 L 103.573 103.165 L 103.519 103.255 L 103.373 103.445 L 103.204 103.604 L 103.015 103.731 L 102.812 103.827 L 102.599 103.890 L 102.380 103.920 L 102.159 103.918 L 101.941 103.882 L 101.729 103.812 L 101.528 103.709 L 101.343 103.570 L 101.177 103.397 L 101.015 103.367 L 100.800 103.344 L 100.542 103.327 L 100.251 103.317 L 99.937 103.310 L 97.927 103.316 L 97.548 103.308 L 97.165 103.293 L 96.779 103.268 L 96.393 103.233 L 96.006 103.185 L 95.622 103.123 L 95.242 103.044 L 94.868 102.949 L 94.500 102.833 L 94.141 102.697 L 93.793 102.538 L 93.457 102.355 L 93.329 102.482 L 93.198 102.607 L 93.065 102.729 L 92.930 102.848 Z M 39.318 88.022 L 38.787 87.783 L 38.263 87.520 L 37.746 87.241 L 37.236 86.952 L 36.228 86.371 L 34.908 85.704 L 34.746 85.740 L 34.583 85.757 L 34.419 85.755 L 34.256 85.735 L 34.096 85.697 L 33.942 85.643 L 33.794 85.573 L 33.654 85.488 L 33.524 85.388 L 33.407 85.274 L 33.302 85.146 L 33.214 85.006 L 33.140 84.851 L 33.087 84.691 L 33.052 84.528 L 33.037 84.363 L 33.041 84.198 L 33.063 84.036 L 33.103 83.876 L 33.161 83.722 L 33.236 83.575 L 33.328 83.436 L 33.437 83.308 L 33.562 83.192 L 33.586 83.122 L 33.606 83.001 L 33.621 82.840 L 33.632 82.648 L 33.640 82.435 L 33.645 82.210 L 33.641 80.672 L 33.642 80.191 L 33.650 79.704 L 33.668 79.212 L 33.701 78.720 L 33.752 78.228 L 33.822 77.742 L 33.917 77.262 L 34.040 76.792 L 34.193 76.336 L 34.380 75.895 L 34.605 75.472 L 34.477 75.344 L 34.353 75.214 L 34.231 75.081 L 33.995 74.807 L 33.882 74.667 L 33.771 74.524 L 33.559 74.232 L 33.359 73.931 L 33.264 73.777 L 32.413 74.602 L 31.666 75.506 L 31.027 76.477 L 30.502 77.504 L 30.094 78.577 L 29.808 79.683 L 29.647 80.811 L 29.616 81.951 L 29.719 83.090 L 29.961 84.217 L 30.345 85.322 L 30.876 86.392 L 31.536 87.386 L 32.299 88.269 L 33.152 89.041 L 34.083 89.699 L 35.082 90.242 L 36.136 90.667 L 37.233 90.972 L 38.362 91.157 L 39.511 91.218 L 40.668 91.154 L 41.822 90.964 L 42.960 90.644 L 42.871 90.486 L 42.786 90.325 L 42.704 90.163 L 42.625 90.000 L 42.550 89.835 L 42.478 89.668 L 42.410 89.500 L 42.345 89.330 L 42.284 89.160 L 42.226 88.987 L 42.172 88.814 L 42.122 88.639 L 41.538 88.616 L 40.967 88.535 L 40.407 88.405 L 39.858 88.232 Z M 112.038 90.472 L 111.953 90.630 L 113.094 90.955 L 114.250 91.150 L 115.410 91.217 L 116.563 91.159 L 117.695 90.976 L 118.797 90.672 L 119.854 90.248 L 120.857 89.706 L 121.792 89.047 L 122.648 88.274 L 123.413 87.388 L 124.075 86.392 L 124.605 85.325 L 124.989 84.224 L 125.231 83.100 L 125.335 81.965 L 125.306 80.828 L 125.148 79.703 L 124.865 78.600 L 124.461 77.529 L 123.940 76.503 L 123.307 75.533 L 122.565 74.630 L 121.719 73.805 L 121.626 73.962 L 121.530 74.117 L 121.431 74.269 L 121.223 74.569 L 121.003 74.859 L 120.888 75.000 L 120.650 75.276 L 120.400 75.542 L 120.667 76.058 L 120.880 76.593 L 121.046 77.142 L 121.170 77.704 L 121.259 78.276 L 121.318 78.855 L 121.353 79.439 L 121.371 80.025 L 121.378 80.610 L 121.381 81.770 L 121.451 83.189 L 121.466 83.259 L 121.538 83.332 L 121.604 83.409 L 121.665 83.490 L 121.719 83.576 L 121.767 83.664 L 121.809 83.756 L 121.844 83.851 L 121.872 83.948 L 121.894 84.046 L 121.909 84.147 L 121.916 84.249 L 121.916 84.352 L 121.887 84.591 L 121.822 84.816 L 121.724 85.023 L 121.597 85.209 L 121.445 85.372 L 121.270 85.510 L 121.077 85.621 L 120.869 85.701 L 120.650 85.748 L 120.423 85.760 L 120.192 85.734 L 119.961 85.668 L 119.830 85.711 L 119.685 85.769 L 119.530 85.840 L 119.367 85.921 L 117.304 87.108 L 116.878 87.348 L 116.446 87.579 L 116.008 87.799 L 115.563 88.002 L 115.112 88.185 L 114.653 88.342 L 114.187 88.470 L 113.714 88.563 L 113.233 88.618 L 112.743 88.631 L 112.697 88.804 L 112.646 88.977 L 112.592 89.148 L 112.535 89.318 L 112.474 89.487 L 112.410 89.655 L 112.342 89.821 L 112.271 89.986 L 112.196 90.150 L 112.119 90.311 Z M 13.020 77.237 L 12.097 77.930 L 11.337 78.748 L 10.726 79.677 L 10.248 80.704 L 9.889 81.814 L 9.634 82.994 L 9.468 84.229 L 9.375 85.506 L 9.341 86.810 L 9.351 88.128 L 9.390 89.446 L 9.478 91.612 L 9.509 92.456 L 9.531 93.278 L 9.539 94.077 L 9.529 94.848 L 9.498 95.589 L 9.441 96.297 L 9.353 96.970 L 9.230 97.605 L 9.069 98.199 L 8.865 98.749 L 8.613 99.252 L 9.151 99.300 L 9.707 99.407 L 10.281 99.569 L 10.871 99.779 L 11.478 100.034 L 12.101 100.330 L 12.740 100.660 L 13.394 101.022 L 14.062 101.410 L 14.744 101.819 L 17.225 103.350 L 18.321 104.012 L 19.430 104.653 L 20.549 105.255 L 21.673 105.801 L 22.799 106.273 L 23.921 106.654 L 25.037 106.927 L 26.141 107.074 L 27.230 107.077 L 28.298 106.920 L 29.343 106.584 L 29.827 105.930 L 28.816 106.134 L 27.802 106.186 L 26.787 106.101 L 25.772 105.894 L 24.760 105.580 L 23.753 105.173 L 22.753 104.689 L 21.761 104.142 L 20.780 103.548 L 19.811 102.921 L 18.856 102.277 L 17.194 101.132 L 16.481 100.647 L 15.781 100.186 L 15.096 99.757 L 14.431 99.372 L 13.788 99.038 L 13.171 98.766 L 12.582 98.566 L 12.024 98.445 L 11.502 98.415 L 11.018 98.485 L 10.426 98.723 L 10.285 98.736 L 10.155 98.710 L 10.039 98.651 L 9.942 98.565 L 9.866 98.459 L 9.815 98.338 L 9.793 98.210 L 9.803 98.080 L 9.848 97.956 L 9.933 97.843 L 10.468 97.447 L 10.795 97.055 L 11.048 96.578 L 11.234 96.025 L 11.362 95.402 L 11.439 94.718 L 11.471 93.981 L 11.466 93.196 L 11.431 92.374 L 11.374 91.520 L 11.301 90.642 L 11.119 88.623 L 11.026 87.472 L 10.957 86.308 L 10.924 85.143 L 10.942 83.988 L 11.026 82.854 L 11.189 81.753 L 11.446 80.696 L 11.811 79.695 L 12.297 78.761 L 12.920 77.906 L 13.692 77.140 L 13.428 77.110 Z M 142.240 41.679 L 143.164 40.986 L 143.923 40.168 L 144.534 39.239 L 145.012 38.212 L 145.371 37.102 L 145.626 35.922 L 145.793 34.687 L 145.885 33.411 L 145.919 32.106 L 145.909 30.788 L 145.871 29.471 L 145.782 27.304 L 145.751 26.461 L 145.730 25.638 L 145.721 24.840 L 145.731 24.069 L 145.762 23.328 L 145.820 22.619 L 145.907 21.946 L 146.030 21.311 L 146.191 20.718 L 146.395 20.168 L 146.647 19.665 L 146.109 19.616 L 145.553 19.509 L 144.980 19.348 L 144.389 19.137 L 143.782 18.882 L 143.159 18.587 L 142.520 18.256 L 141.867 17.894 L 141.198 17.507 L 140.516 17.097 L 139.821 16.671 L 138.035 15.566 L 136.940 14.904 L 135.830 14.264 L 134.711 13.662 L 133.587 13.116 L 132.461 12.643 L 131.339 12.262 L 130.223 11.989 L 129.119 11.843 L 128.031 11.839 L 126.962 11.997 L 125.918 12.333 L 125.434 12.987 L 126.444 12.782 L 127.459 12.730 L 128.474 12.815 L 129.488 13.022 L 130.500 13.337 L 131.507 13.744 L 132.507 14.228 L 133.499 14.775 L 134.480 15.369 L 135.449 15.995 L 136.404 16.639 L 138.066 17.785 L 138.779 18.270 L 139.480 18.731 L 140.164 19.159 L 140.829 19.545 L 141.472 19.878 L 142.090 20.150 L 142.679 20.351 L 143.236 20.471 L 143.758 20.501 L 144.243 20.432 L 144.834 20.194 L 144.975 20.180 L 145.105 20.206 L 145.221 20.266 L 145.318 20.352 L 145.394 20.458 L 145.445 20.578 L 145.468 20.707 L 145.458 20.836 L 145.412 20.961 L 145.327 21.074 L 144.792 21.469 L 144.466 21.862 L 144.213 22.338 L 144.026 22.892 L 143.898 23.514 L 143.822 24.198 L 143.790 24.936 L 143.795 25.720 L 143.829 26.543 L 143.886 27.397 L 143.959 28.274 L 144.141 30.294 L 144.234 31.444 L 144.304 32.608 L 144.337 33.773 L 144.318 34.928 L 144.234 36.062 L 144.071 37.163 L 143.814 38.220 L 143.450 39.221 L 142.963 40.155 L 142.340 41.011 L 141.568 41.776 L 141.832 41.806 Z M 14.987 16.975 L 14.285 17.405 L 13.598 17.811 L 12.925 18.188 L 12.267 18.532 L 11.625 18.836 L 10.998 19.097 L 10.387 19.308 L 9.792 19.466 L 9.214 19.564 L 8.652 19.597 L 8.879 20.087 L 9.064 20.622 L 9.211 21.199 L 9.324 21.816 L 9.407 22.469 L 9.463 23.156 L 9.495 23.875 L 9.509 24.622 L 9.507 25.394 L 9.493 26.189 L 9.472 27.005 L 9.408 29.103 L 9.382 30.382 L 9.382 31.663 L 9.420 32.933 L 9.509 34.180 L 9.663 35.390 L 9.894 36.553 L 10.216 37.655 L 10.641 38.685 L 11.182 39.629 L 11.853 40.475 L 12.666 41.212 L 13.474 41.304 L 12.792 40.531 L 12.240 39.679 L 11.806 38.757 L 11.478 37.775 L 11.245 36.742 L 11.093 35.667 L 11.013 34.558 L 10.990 33.426 L 11.014 32.280 L 11.072 31.127 L 11.153 29.979 L 11.314 27.967 L 11.378 27.107 L 11.427 26.270 L 11.456 25.463 L 11.457 24.694 L 11.424 23.971 L 11.351 23.301 L 11.231 22.690 L 11.056 22.148 L 10.821 21.680 L 10.519 21.296 L 10.017 20.902 L 9.935 20.787 L 9.892 20.661 L 9.886 20.532 L 9.911 20.404 L 9.966 20.285 L 10.044 20.181 L 10.144 20.097 L 10.261 20.041 L 10.392 20.019 L 10.533 20.036 L 11.143 20.301 L 11.646 20.388 L 12.185 20.368 L 12.758 20.253 L 13.361 20.053 L 13.992 19.777 L 14.647 19.436 L 15.324 19.039 L 16.019 18.598 L 16.730 18.121 L 17.454 17.620 L 19.112 16.452 L 20.063 15.797 L 21.035 15.154 L 22.028 14.544 L 23.038 13.982 L 24.062 13.488 L 25.098 13.078 L 26.141 12.772 L 27.191 12.588 L 28.243 12.542 L 29.296 12.653 L 30.345 12.939 L 30.239 12.696 L 30.014 12.547 L 29.925 12.405 L 28.863 11.952 L 27.775 11.704 L 26.664 11.639 L 25.536 11.739 L 24.395 11.983 L 23.245 12.352 L 22.092 12.826 L 20.940 13.384 L 19.793 14.007 L 18.656 14.674 L 17.534 15.367 Z M 145.751 94.295 L 145.753 93.523 L 145.767 92.727 L 145.788 91.912 L 145.852 89.814 L 145.878 88.534 L 145.878 87.253 L 145.840 85.983 L 145.751 84.737 L 145.597 83.526 L 145.366 82.363 L 145.045 81.261 L 144.620 80.232 L 144.078 79.288 L 143.408 78.441 L 142.594 77.705 L 141.786 77.613 L 142.468 78.386 L 143.021 79.238 L 143.455 80.159 L 143.782 81.141 L 144.016 82.174 L 144.167 83.250 L 144.248 84.358 L 144.270 85.490 L 144.246 86.637 L 144.188 87.789 L 144.107 88.938 L 143.946 90.949 L 143.883 91.809 L 143.833 92.647 L 143.805 93.453 L 143.803 94.222 L 143.836 94.945 L 143.909 95.616 L 144.029 96.226 L 144.204 96.769 L 144.439 97.236 L 144.741 97.621 L 145.243 98.014 L 145.325 98.130 L 145.368 98.255 L 145.374 98.385 L 145.349 98.512 L 145.295 98.631 L 145.216 98.736 L 145.116 98.819 L 144.999 98.875 L 144.868 98.898 L 144.728 98.881 L 144.117 98.615 L 143.614 98.529 L 143.075 98.548 L 142.502 98.663 L 141.899 98.864 L 141.268 99.140 L 140.613 99.481 L 139.937 99.877 L 139.241 100.319 L 138.530 100.795 L 137.806 101.297 L 136.148 102.464 L 135.198 103.120 L 134.225 103.762 L 133.232 104.373 L 132.222 104.935 L 131.198 105.429 L 130.163 105.838 L 129.119 106.144 L 128.069 106.329 L 127.017 106.375 L 125.965 106.263 L 124.915 105.977 L 125.021 106.221 L 125.246 106.369 L 125.336 106.511 L 126.397 106.964 L 127.486 107.213 L 128.596 107.277 L 129.724 107.177 L 130.866 106.933 L 132.015 106.564 L 133.168 106.091 L 134.320 105.533 L 135.467 104.910 L 136.604 104.242 L 137.726 103.550 L 139.558 102.390 L 140.274 101.942 L 140.975 101.512 L 141.662 101.105 L 142.335 100.728 L 142.993 100.385 L 143.635 100.080 L 144.262 99.820 L 144.873 99.608 L 145.468 99.451 L 146.046 99.353 L 146.608 99.319 L 146.381 98.829 L 146.196 98.294 L 146.049 97.717 L 145.936 97.101 L 145.853 96.447 L 145.798 95.760 L 145.765 95.042 Z M 114.240 7.137 L 114.666 7.018 L 115.336 6.847 L 115.984 6.700 L 116.604 6.578 L 117.189 6.482 L 117.734 6.412 L 118.231 6.368 L 118.676 6.351 L 119.061 6.361 L 119.381 6.398 L 119.628 6.463 L 119.798 6.557 L 119.884 6.679 L 119.879 6.831 L 119.781 7.000 L 119.597 7.183 L 119.335 7.378 L 119.002 7.582 L 118.604 7.790 L 118.150 8.002 L 117.645 8.213 L 117.098 8.421 L 116.515 8.623 L 115.903 8.815 L 115.269 8.996 L 112.937 9.502 L 113.293 9.596 L 113.649 9.696 L 114.005 9.802 L 114.360 9.912 L 114.715 10.027 L 117.688 11.087 L 118.213 11.277 L 118.732 11.461 L 119.244 11.636 L 119.747 11.800 L 120.241 11.949 L 120.723 12.081 L 121.194 12.194 L 121.651 12.285 L 122.093 12.352 L 122.520 12.392 L 122.929 12.402 L 123.217 11.686 L 123.400 10.962 L 123.486 10.230 L 123.481 9.493 L 123.395 8.751 L 123.234 8.005 L 123.005 7.258 L 122.716 6.509 L 122.375 5.762 L 121.990 5.016 L 121.566 4.274 L 121.113 3.536 L 119.194 3.536 L 119.105 3.715 L 118.953 3.915 L 118.744 4.135 L 118.483 4.370 L 118.176 4.618 L 117.826 4.876 L 117.440 5.141 L 117.022 5.408 L 116.577 5.676 L 116.112 5.942 L 115.630 6.201 L 115.138 6.452 L 114.670 6.677 L 114.211 6.885 L 113.764 7.078 L 113.330 7.253 L 112.912 7.410 L 112.513 7.549 L 112.135 7.668 L 111.781 7.768 L 111.453 7.847 L 111.154 7.905 L 110.886 7.941 L 110.653 7.954 L 110.679 8.587 L 110.891 8.458 L 111.129 8.326 L 111.393 8.193 L 111.680 8.058 L 111.990 7.922 L 112.321 7.787 L 112.671 7.652 L 113.040 7.519 L 113.425 7.389 L 113.825 7.261 Z M 39.148 112.975 L 39.630 112.715 L 40.122 112.465 L 40.590 112.240 L 41.049 112.031 L 41.496 111.839 L 41.931 111.664 L 42.348 111.507 L 42.748 111.368 L 43.125 111.248 L 43.480 111.149 L 43.807 111.070 L 44.106 111.012 L 44.374 110.976 L 44.607 110.962 L 44.582 110.330 L 44.370 110.458 L 44.131 110.590 L 43.867 110.724 L 43.580 110.859 L 43.270 110.994 L 42.939 111.130 L 42.589 111.264 L 42.221 111.397 L 41.835 111.528 L 41.435 111.655 L 41.021 111.779 L 40.594 111.899 L 39.924 112.070 L 39.276 112.217 L 38.656 112.338 L 38.071 112.434 L 37.527 112.505 L 37.029 112.549 L 36.585 112.566 L 36.199 112.556 L 35.880 112.518 L 35.632 112.453 L 35.462 112.360 L 35.376 112.237 L 35.382 112.085 L 35.480 111.916 L 35.663 111.733 L 35.925 111.538 L 36.258 111.335 L 36.656 111.126 L 37.111 110.915 L 37.615 110.703 L 38.163 110.495 L 38.746 110.294 L 39.357 110.101 L 39.991 109.921 L 42.323 109.415 L 41.967 109.320 L 41.611 109.220 L 41.256 109.114 L 40.900 109.004 L 40.546 108.890 L 40.192 108.772 L 37.047 107.639 L 36.528 107.455 L 36.017 107.280 L 35.513 107.117 L 35.020 106.968 L 34.537 106.835 L 34.066 106.722 L 33.609 106.631 L 33.167 106.564 L 32.741 106.525 L 32.332 106.514 L 32.044 107.230 L 31.861 107.954 L 31.775 108.686 L 31.779 109.424 L 31.865 110.166 L 32.027 110.911 L 32.255 111.659 L 32.544 112.407 L 32.885 113.155 L 33.271 113.900 L 33.694 114.643 L 34.147 115.381 L 36.066 115.381 L 36.156 115.202 L 36.307 115.001 L 36.516 114.782 L 36.777 114.546 L 37.085 114.298 L 37.434 114.040 L 37.821 113.776 L 38.238 113.508 L 38.683 113.240 Z M 36.313 6.295 L 36.699 6.285 L 37.143 6.302 L 37.641 6.346 L 38.185 6.416 L 38.770 6.512 L 39.390 6.634 L 40.038 6.781 L 40.707 6.952 L 41.094 7.060 L 41.480 7.175 L 41.862 7.295 L 42.238 7.421 L 42.606 7.551 L 42.962 7.686 L 43.304 7.823 L 43.629 7.963 L 43.936 8.104 L 44.221 8.247 L 44.481 8.390 L 44.714 8.533 L 44.746 7.891 L 44.427 7.875 L 44.062 7.820 L 43.658 7.729 L 43.220 7.607 L 42.757 7.456 L 42.274 7.282 L 41.779 7.086 L 41.278 6.874 L 40.777 6.648 L 40.285 6.413 L 39.806 6.172 L 39.349 5.929 L 38.942 5.702 L 38.556 5.475 L 38.192 5.250 L 37.852 5.028 L 37.538 4.810 L 37.251 4.599 L 36.994 4.395 L 36.767 4.200 L 36.574 4.015 L 36.415 3.842 L 36.293 3.682 L 36.209 3.536 L 34.202 3.536 L 33.780 4.248 L 33.386 4.963 L 33.027 5.680 L 32.709 6.398 L 32.439 7.116 L 32.222 7.833 L 32.065 8.548 L 31.974 9.259 L 31.955 9.967 L 32.015 10.669 L 32.160 11.366 L 32.396 12.055 L 32.810 12.078 L 33.245 12.068 L 33.698 12.025 L 34.169 11.955 L 34.655 11.859 L 35.156 11.740 L 35.669 11.602 L 36.194 11.448 L 36.728 11.281 L 37.271 11.103 L 41.130 9.836 L 41.479 9.736 L 41.830 9.639 L 42.184 9.545 L 42.542 9.455 L 42.037 9.371 L 41.511 9.268 L 40.969 9.149 L 40.417 9.015 L 39.863 8.866 L 39.313 8.705 L 38.772 8.533 L 38.246 8.350 L 37.743 8.160 L 37.267 7.962 L 36.827 7.758 L 36.426 7.551 L 36.269 7.461 L 36.125 7.372 L 35.994 7.285 L 35.877 7.200 L 35.774 7.117 L 35.686 7.036 L 35.613 6.958 L 35.555 6.883 L 35.513 6.810 L 35.488 6.741 L 35.480 6.675 L 35.490 6.613 L 35.576 6.491 L 35.746 6.398 L 35.994 6.332 Z M 119.383 111.716 L 119.486 111.799 L 119.574 111.880 L 119.647 111.958 L 119.705 112.034 L 119.747 112.106 L 119.772 112.175 L 119.780 112.241 L 119.770 112.303 L 119.685 112.425 L 119.514 112.519 L 119.267 112.584 L 118.947 112.622 L 118.562 112.632 L 118.117 112.614 L 117.619 112.570 L 117.075 112.500 L 116.490 112.404 L 115.870 112.282 L 115.223 112.136 L 114.553 111.964 L 114.166 111.856 L 113.780 111.742 L 113.398 111.621 L 113.022 111.495 L 112.655 111.365 L 112.298 111.231 L 111.956 111.094 L 111.631 110.954 L 111.324 110.812 L 111.040 110.669 L 110.779 110.526 L 110.546 110.383 L 110.514 111.025 L 110.833 111.041 L 111.198 111.096 L 111.602 111.187 L 112.040 111.309 L 112.503 111.460 L 112.986 111.635 L 113.481 111.830 L 113.983 112.043 L 114.483 112.268 L 114.976 112.504 L 115.454 112.744 L 115.911 112.987 L 116.318 113.215 L 116.704 113.442 L 117.068 113.667 L 117.408 113.889 L 117.722 114.106 L 118.009 114.317 L 118.267 114.521 L 118.493 114.716 L 118.686 114.901 L 118.845 115.074 L 118.968 115.235 L 119.052 115.381 L 121.058 115.381 L 121.480 114.669 L 121.874 113.953 L 122.233 113.236 L 122.551 112.519 L 122.821 111.801 L 123.038 111.084 L 123.195 110.369 L 123.287 109.657 L 123.305 108.950 L 123.245 108.247 L 123.100 107.551 L 122.864 106.862 L 122.450 106.838 L 122.015 106.849 L 121.562 106.891 L 121.091 106.962 L 120.605 107.058 L 120.104 107.176 L 119.591 107.314 L 119.066 107.468 L 118.532 107.636 L 117.989 107.814 L 117.440 107.999 L 115.510 108.652 L 114.822 108.871 L 114.477 108.977 L 114.130 109.080 L 113.430 109.278 L 112.718 109.462 L 113.223 109.546 L 113.750 109.648 L 114.292 109.767 L 114.843 109.902 L 115.397 110.050 L 115.947 110.212 L 116.489 110.384 L 117.014 110.566 L 117.518 110.757 L 117.993 110.955 L 118.434 111.158 L 118.834 111.366 L 118.991 111.456 L 119.135 111.544 L 119.266 111.631 Z M 5.321 48.167 L 4.702 49.195 L 4.109 50.248 L 3.537 51.312 L 3.537 55.453 L 5.445 51.467 L 5.940 50.424 L 6.461 49.381 L 7.015 48.356 L 7.609 47.365 L 8.249 46.425 L 8.941 45.553 L 9.692 44.766 L 10.508 44.081 L 11.397 43.516 L 12.364 43.086 L 13.416 42.809 L 13.202 42.651 L 12.785 42.557 L 11.731 42.676 L 10.745 42.957 L 9.820 43.383 L 8.953 43.941 L 8.139 44.614 L 7.374 45.389 L 6.652 46.249 L 5.969 47.180 Z M 147.651 71.552 L 147.012 72.492 L 146.319 73.364 L 145.568 74.150 L 144.752 74.835 L 143.864 75.401 L 142.897 75.831 L 141.845 76.107 L 142.058 76.265 L 142.476 76.359 L 143.529 76.240 L 144.515 75.960 L 145.440 75.533 L 146.307 74.976 L 147.121 74.302 L 147.886 73.528 L 148.608 72.667 L 149.291 71.736 L 149.940 70.749 L 150.558 69.722 L 151.151 68.669 L 151.723 67.605 L 151.723 63.464 L 149.815 67.450 L 149.320 68.492 L 148.799 69.535 L 148.245 70.560 Z M 142.270 43.109 L 143.247 43.438 L 144.152 43.899 L 144.988 44.481 L 145.763 45.167 L 146.482 45.945 L 147.151 46.801 L 147.775 47.720 L 148.361 48.690 L 148.913 49.695 L 149.439 50.722 L 149.944 51.757 L 151.723 55.416 L 151.723 51.331 L 151.167 50.331 L 150.592 49.341 L 149.995 48.376 L 149.372 47.447 L 148.720 46.566 L 148.034 45.745 L 147.311 44.998 L 146.547 44.336 L 145.740 43.771 L 144.884 43.316 L 143.978 42.983 L 143.016 42.785 Z M 6.347 69.222 L 5.821 68.195 L 5.316 67.160 L 3.537 63.501 L 3.537 67.585 L 4.093 68.586 L 4.668 69.575 L 5.265 70.541 L 5.888 71.470 L 6.541 72.351 L 7.227 73.171 L 7.950 73.919 L 8.713 74.581 L 9.521 75.145 L 10.376 75.600 L 11.283 75.933 L 12.244 76.131 L 12.990 75.807 L 12.013 75.479 L 11.108 75.017 L 10.272 74.436 L 9.497 73.749 L 8.778 72.971 L 8.109 72.116 L 7.485 71.196 L 6.900 70.227 Z M 124.693 11.763 L 124.995 11.117 L 125.219 10.460 L 125.367 9.794 L 125.445 9.118 L 125.458 8.436 L 125.409 7.747 L 125.304 7.052 L 125.147 6.354 L 124.942 5.652 L 124.694 4.947 L 124.409 4.242 L 124.089 3.536 L 122.355 3.536 L 122.764 4.232 L 123.146 4.935 L 123.494 5.645 L 123.804 6.361 L 124.069 7.082 L 124.283 7.806 L 124.440 8.534 L 124.533 9.264 L 124.558 9.994 L 124.508 10.725 L 124.377 11.455 L 124.159 12.183 L 124.402 12.077 Z M 30.752 108.191 L 30.883 107.462 L 31.101 106.733 L 30.858 106.839 L 30.567 107.154 L 30.265 107.800 L 30.042 108.457 L 29.893 109.123 L 29.815 109.798 L 29.803 110.481 L 29.851 111.170 L 29.956 111.864 L 30.114 112.563 L 30.318 113.265 L 30.566 113.969 L 30.852 114.675 L 31.171 115.381 L 32.905 115.381 L 32.496 114.685 L 32.115 113.982 L 31.766 113.271 L 31.456 112.556 L 31.191 111.835 L 30.978 111.110 L 30.821 110.383 L 30.727 109.653 L 30.702 108.922 Z M 125.139 108.953 L 124.984 108.340 L 124.765 107.736 L 124.112 107.252 L 124.267 107.930 L 124.350 108.611 L 124.368 109.293 L 124.323 109.975 L 124.222 110.657 L 124.067 111.339 L 123.864 112.019 L 123.618 112.697 L 123.332 113.373 L 123.012 114.046 L 122.661 114.715 L 122.285 115.381 L 123.993 115.381 L 124.277 114.726 L 124.532 114.072 L 124.756 113.419 L 124.944 112.768 L 125.093 112.120 L 125.201 111.475 L 125.262 110.836 L 125.275 110.202 L 125.235 109.574 Z M 31.149 11.665 L 30.994 10.986 L 30.910 10.305 L 30.892 9.624 L 30.937 8.941 L 31.039 8.259 L 31.193 7.578 L 31.396 6.898 L 31.643 6.219 L 31.928 5.543 L 32.249 4.870 L 32.599 4.201 L 32.975 3.536 L 31.268 3.536 L 30.984 4.191 L 30.728 4.845 L 30.505 5.498 L 30.316 6.149 L 30.167 6.797 L 30.060 7.441 L 29.998 8.081 L 29.985 8.715 L 30.025 9.343 L 30.121 9.964 L 30.277 10.577 L 30.495 11.181 Z M 127.585 45.382 L 127.445 45.597 L 127.302 45.809 L 127.155 46.018 L 127.005 46.226 L 127.222 46.322 L 127.652 46.526 L 127.865 46.633 L 128.285 46.857 L 128.492 46.974 L 128.698 47.094 L 128.901 47.217 L 129.303 47.473 L 129.500 47.606 L 129.698 47.473 L 129.877 47.320 L 130.037 47.149 L 130.177 46.962 L 130.297 46.763 L 130.395 46.552 L 130.470 46.331 L 130.522 46.104 L 130.550 45.872 L 130.553 45.638 L 130.529 45.403 L 130.479 45.169 L 130.409 44.958 L 130.317 44.757 L 130.205 44.569 L 130.075 44.393 L 129.928 44.232 L 129.767 44.085 L 129.592 43.955 L 129.405 43.843 L 129.207 43.749 L 129.001 43.674 L 128.788 43.621 L 128.568 43.589 L 128.459 43.820 L 128.345 44.049 L 128.228 44.277 L 128.107 44.502 L 127.982 44.725 L 127.853 44.947 L 127.721 45.166 Z M 116.658 23.198 L 116.414 23.180 L 116.171 23.167 L 115.926 23.157 L 115.682 23.151 L 115.438 23.149 L 115.194 23.151 L 114.949 23.157 L 114.705 23.167 L 114.218 23.198 L 113.732 23.245 L 113.758 22.998 L 113.797 22.502 L 113.811 22.253 L 113.821 22.004 L 113.826 21.756 L 113.828 21.507 L 113.826 21.258 L 113.819 21.009 L 113.808 20.760 L 113.794 20.512 L 113.775 20.264 L 113.983 20.176 L 114.197 20.111 L 114.416 20.068 L 114.636 20.048 L 114.857 20.050 L 115.076 20.074 L 115.292 20.119 L 115.502 20.186 L 115.706 20.274 L 115.900 20.384 L 116.083 20.514 L 116.253 20.665 L 116.411 20.838 L 116.547 21.025 L 116.661 21.223 L 116.753 21.431 L 116.822 21.646 L 116.869 21.867 L 116.893 22.091 L 116.894 22.317 L 116.871 22.543 L 116.824 22.766 L 116.753 22.985 Z M 129.794 71.264 L 129.736 71.219 L 129.521 71.369 L 129.304 71.515 L 129.084 71.658 L 128.862 71.796 L 128.637 71.931 L 128.410 72.062 L 128.181 72.189 L 127.950 72.312 L 127.716 72.430 L 127.481 72.545 L 127.244 72.656 L 127.004 72.763 L 127.140 72.949 L 127.272 73.137 L 127.402 73.328 L 127.652 73.714 L 127.773 73.910 L 127.891 74.108 L 128.006 74.307 L 128.118 74.508 L 128.332 74.916 L 128.435 75.122 L 128.838 75.087 L 129.211 74.984 L 129.549 74.821 L 129.849 74.605 L 130.106 74.344 L 130.315 74.045 L 130.471 73.716 L 130.571 73.363 L 130.610 72.996 L 130.583 72.620 L 130.485 72.243 L 130.313 71.874 L 130.194 71.689 Z M 114.789 95.825 L 114.524 95.811 L 114.260 95.793 L 113.996 95.771 L 113.733 95.743 L 113.776 96.188 L 113.793 96.411 L 113.817 96.858 L 113.828 97.305 L 113.828 97.529 L 113.819 97.976 L 113.810 98.199 L 113.797 98.423 L 114.014 98.533 L 114.239 98.618 L 114.469 98.676 L 114.703 98.709 L 114.938 98.716 L 115.172 98.698 L 115.403 98.655 L 115.628 98.587 L 115.846 98.495 L 116.054 98.378 L 116.250 98.238 L 116.431 98.073 L 116.571 97.917 L 116.694 97.748 L 116.798 97.569 L 116.885 97.382 L 116.954 97.188 L 117.004 96.988 L 117.035 96.785 L 117.048 96.579 L 117.042 96.373 L 117.016 96.168 L 116.971 95.965 L 116.906 95.766 L 116.642 95.790 L 116.378 95.809 L 116.113 95.823 L 115.849 95.833 L 115.584 95.838 L 115.319 95.838 L 115.054 95.834 Z M 92.843 8.676 L 93.064 8.566 L 93.286 8.459 L 93.216 8.077 L 93.088 7.728 L 92.907 7.415 L 92.681 7.143 L 92.417 6.913 L 92.120 6.729 L 91.799 6.596 L 91.458 6.515 L 91.106 6.490 L 90.749 6.526 L 90.393 6.624 L 90.045 6.788 L 89.976 6.830 L 89.655 7.075 L 89.487 7.248 L 89.385 7.374 L 89.338 7.440 L 89.474 7.640 L 89.736 8.048 L 89.861 8.254 L 89.984 8.463 L 90.103 8.674 L 90.219 8.886 L 90.331 9.101 L 90.440 9.317 L 90.546 9.535 L 90.648 9.754 L 90.747 9.975 L 90.947 9.830 L 91.353 9.550 L 91.560 9.415 L 91.769 9.283 L 91.980 9.155 L 92.193 9.030 L 92.408 8.909 L 92.624 8.791 Z M 65.176 6.952 L 64.997 6.836 L 64.807 6.739 L 64.609 6.661 L 64.405 6.602 L 64.196 6.563 L 63.983 6.545 L 63.768 6.548 L 63.553 6.573 L 63.339 6.620 L 63.129 6.690 L 62.930 6.781 L 62.743 6.891 L 62.568 7.018 L 62.407 7.163 L 62.261 7.322 L 62.132 7.494 L 62.019 7.678 L 61.924 7.873 L 61.849 8.077 L 61.793 8.288 L 61.759 8.505 L 61.973 8.609 L 62.186 8.718 L 62.396 8.829 L 62.605 8.944 L 62.812 9.062 L 63.017 9.183 L 63.220 9.307 L 63.620 9.565 L 63.817 9.699 L 64.012 9.836 L 64.205 9.976 L 64.305 9.751 L 64.409 9.528 L 64.516 9.306 L 64.627 9.087 L 64.742 8.869 L 64.860 8.653 L 64.981 8.439 L 65.235 8.017 L 65.367 7.809 L 65.502 7.604 L 65.641 7.400 L 65.500 7.234 L 65.345 7.084 Z M 91.295 112.370 L 91.709 112.337 L 92.110 112.228 L 92.485 112.046 L 92.822 111.791 L 93.106 111.466 L 93.327 111.073 L 93.469 110.613 L 93.230 110.502 L 92.993 110.386 L 92.758 110.266 L 92.525 110.143 L 92.295 110.015 L 92.066 109.883 L 91.840 109.747 L 91.617 109.608 L 91.395 109.464 L 91.177 109.317 L 90.961 109.166 L 90.747 109.011 L 90.566 109.411 L 90.471 109.609 L 90.373 109.806 L 90.272 110.001 L 90.062 110.387 L 89.953 110.578 L 89.841 110.767 L 89.609 111.140 L 89.489 111.324 L 89.772 111.701 L 90.107 111.992 L 90.481 112.199 L 90.881 112.324 Z M 41.142 22.283 L 41.132 22.042 L 41.126 21.800 L 41.125 21.318 L 41.131 21.076 L 41.140 20.835 L 41.153 20.594 L 41.170 20.353 L 40.968 20.286 L 40.762 20.240 L 40.553 20.213 L 40.343 20.207 L 40.134 20.220 L 39.927 20.253 L 39.724 20.305 L 39.527 20.375 L 39.337 20.465 L 39.157 20.573 L 38.986 20.699 L 38.829 20.843 L 38.687 21.003 L 38.563 21.174 L 38.458 21.357 L 38.371 21.548 L 38.303 21.746 L 38.254 21.950 L 38.224 22.158 L 38.214 22.368 L 38.223 22.577 L 38.252 22.786 L 38.301 22.992 L 38.371 23.192 L 38.608 23.176 L 39.083 23.155 L 39.321 23.150 L 39.559 23.149 L 39.797 23.152 L 40.034 23.158 L 40.272 23.168 L 40.746 23.199 L 40.983 23.220 L 41.220 23.245 L 41.195 23.005 L 41.173 22.764 L 41.156 22.524 Z M 63.666 109.388 L 63.300 109.627 L 62.926 109.855 L 62.737 109.965 L 62.355 110.177 L 62.161 110.279 L 61.966 110.378 L 62.037 110.830 L 62.189 111.235 L 62.412 111.588 L 62.695 111.885 L 63.025 112.122 L 63.391 112.294 L 63.783 112.397 L 64.189 112.426 L 64.598 112.377 L 64.999 112.245 L 65.380 112.027 L 65.729 111.717 L 65.581 111.504 L 65.436 111.289 L 65.296 111.071 L 65.159 110.850 L 65.026 110.628 L 64.896 110.403 L 64.771 110.176 L 64.649 109.946 L 64.532 109.715 L 64.418 109.482 L 64.308 109.247 L 64.203 109.010 L 63.847 109.264 Z M 41.133 98.016 L 41.126 97.763 L 41.123 97.511 L 41.124 97.258 L 41.129 97.005 L 41.139 96.753 L 41.153 96.501 L 41.171 96.249 L 41.193 95.997 L 41.219 95.746 L 40.777 95.789 L 40.333 95.819 L 39.889 95.836 L 39.223 95.837 L 38.779 95.821 L 38.557 95.808 L 38.410 96.236 L 38.355 96.659 L 38.386 97.069 L 38.493 97.458 L 38.670 97.816 L 38.907 98.136 L 39.198 98.409 L 39.535 98.626 L 39.909 98.780 L 40.313 98.861 L 40.739 98.861 L 41.180 98.772 L 41.160 98.520 L 41.144 98.268 Z M 25.673 44.116 L 25.345 44.363 L 25.078 44.662 L 24.873 45.002 L 24.733 45.372 L 24.662 45.762 L 24.662 46.160 L 24.736 46.555 L 24.887 46.938 L 25.117 47.297 L 25.430 47.621 L 25.630 47.486 L 25.831 47.355 L 26.034 47.227 L 26.447 46.981 L 26.656 46.863 L 26.867 46.748 L 27.080 46.637 L 27.294 46.529 L 27.511 46.424 L 27.728 46.323 L 27.948 46.225 L 27.810 46.036 L 27.675 45.844 L 27.543 45.650 L 27.414 45.454 L 27.288 45.256 L 27.165 45.056 L 26.929 44.651 L 26.705 44.238 L 26.598 44.029 L 26.495 43.819 L 26.057 43.931 Z M 26.326 71.936 L 25.938 71.700 L 25.556 71.452 L 25.228 71.758 L 24.982 72.103 L 24.815 72.475 L 24.725 72.864 L 24.708 73.259 L 24.763 73.649 L 24.887 74.024 L 25.076 74.372 L 25.328 74.684 L 25.641 74.948 L 26.011 75.153 L 26.436 75.289 L 26.543 75.067 L 26.654 74.848 L 26.768 74.630 L 26.885 74.414 L 27.006 74.200 L 27.131 73.988 L 27.258 73.779 L 27.524 73.365 L 27.662 73.162 L 27.803 72.961 L 27.948 72.762 L 27.533 72.574 L 27.328 72.475 L 27.125 72.373 L 26.722 72.161 Z M 41.669 114.603 L 42.035 114.285 L 42.396 113.985 L 42.749 113.705 L 43.092 113.444 L 43.424 113.205 L 43.743 112.988 L 44.046 112.795 L 44.332 112.627 L 44.598 112.486 L 44.843 112.371 L 45.064 112.285 L 44.844 111.839 L 44.675 112.011 L 44.475 112.194 L 44.245 112.385 L 43.987 112.584 L 43.702 112.789 L 43.392 113.000 L 43.059 113.214 L 42.704 113.431 L 42.329 113.650 L 41.935 113.869 L 41.524 114.086 L 41.098 114.302 L 40.641 114.522 L 39.972 114.823 L 38.919 115.243 L 38.526 115.381 L 40.834 115.381 Z M 112.201 5.702 L 112.556 5.485 L 112.931 5.267 L 113.325 5.048 L 113.736 4.830 L 114.163 4.615 L 114.619 4.395 L 115.068 4.190 L 115.720 3.913 L 116.138 3.749 L 116.734 3.536 L 114.426 3.536 L 113.591 4.314 L 113.225 4.631 L 112.865 4.931 L 112.512 5.212 L 112.168 5.473 L 111.836 5.712 L 111.517 5.928 L 111.214 6.121 L 110.928 6.289 L 110.662 6.431 L 110.417 6.545 L 110.196 6.631 L 110.416 7.078 L 110.585 6.905 L 110.785 6.723 L 111.015 6.532 L 111.274 6.333 L 111.558 6.127 L 111.868 5.917 Z M 111.248 112.948 L 111.576 113.165 L 111.911 113.402 L 112.248 113.653 L 112.584 113.916 L 112.916 114.185 L 113.239 114.458 L 113.551 114.731 L 114.250 115.381 L 116.428 115.381 L 114.052 114.370 L 113.691 114.187 L 113.327 113.996 L 112.962 113.797 L 112.602 113.592 L 112.248 113.383 L 111.906 113.169 L 111.578 112.954 L 111.269 112.737 L 110.982 112.521 L 110.720 112.307 L 110.487 112.095 L 110.287 111.887 L 110.338 112.447 L 110.625 112.585 L 110.929 112.753 Z M 44.012 5.969 L 43.684 5.751 L 43.349 5.515 L 43.012 5.263 L 42.676 5.001 L 42.344 4.731 L 42.021 4.458 L 41.709 4.186 L 41.010 3.536 L 38.832 3.536 L 41.208 4.547 L 41.569 4.729 L 41.934 4.921 L 42.298 5.119 L 42.659 5.324 L 43.012 5.534 L 43.354 5.747 L 43.682 5.963 L 43.991 6.179 L 44.279 6.395 L 44.540 6.610 L 44.773 6.822 L 44.973 7.030 L 44.923 6.470 L 44.635 6.332 L 44.331 6.163 Z M 49.888 115.039 L 49.928 115.207 L 49.966 115.381 L 50.121 115.381 L 49.969 113.697 L 49.971 113.555 L 49.977 113.421 L 49.405 113.714 L 49.460 113.812 L 49.513 113.918 L 49.565 114.033 L 49.616 114.156 L 49.665 114.286 L 49.759 114.568 Z M 49.716 4.708 L 49.670 4.822 L 49.576 5.025 L 49.528 5.114 L 50.089 5.408 L 50.083 5.154 L 50.225 3.536 L 50.056 3.536 L 49.977 3.869 L 49.850 4.321 L 49.761 4.587 Z M 105.139 3.536 L 105.215 4.084 L 105.277 4.762 L 105.285 4.920 L 105.291 5.220 L 105.289 5.361 L 105.284 5.496 L 105.856 5.202 L 105.801 5.105 L 105.747 4.998 L 105.695 4.884 L 105.644 4.761 L 105.595 4.630 L 105.548 4.493 L 105.457 4.197 L 105.372 3.877 L 105.332 3.709 L 105.294 3.536 Z M 105.126 114.671 L 105.035 115.381 L 105.204 115.381 L 105.243 115.211 L 105.367 114.739 L 105.454 114.459 L 105.499 114.330 L 105.545 114.208 L 105.637 113.989 L 105.684 113.892 L 105.732 113.803 L 105.171 113.509 L 105.177 113.763 Z M 45.416 113.781 L 45.557 113.639 L 45.693 113.511 L 45.823 113.397 L 45.947 113.300 L 45.633 113.018 L 45.556 113.171 L 45.463 113.334 L 45.357 113.506 L 45.237 113.687 L 45.103 113.877 L 44.957 114.074 L 44.798 114.278 L 44.627 114.488 L 44.445 114.704 L 44.252 114.926 L 44.048 115.151 L 43.834 115.381 L 44.143 115.381 L 44.311 115.141 L 44.478 114.911 L 44.643 114.693 L 44.804 114.486 L 44.963 114.291 L 45.118 114.108 L 45.269 113.938 Z M 110.949 3.776 L 110.782 4.005 L 110.618 4.223 L 110.456 4.431 L 110.297 4.626 L 110.142 4.809 L 109.991 4.979 L 109.844 5.135 L 109.703 5.278 L 109.567 5.406 L 109.437 5.519 L 109.313 5.617 L 109.627 5.898 L 109.705 5.746 L 109.797 5.583 L 109.903 5.411 L 110.023 5.229 L 110.157 5.040 L 110.303 4.843 L 110.462 4.639 L 110.633 4.428 L 110.815 4.212 L 111.008 3.991 L 111.212 3.765 L 111.426 3.536 L 111.117 3.536 Z M 109.332 113.441 L 109.460 113.552 L 109.594 113.677 L 109.734 113.816 L 109.878 113.969 L 110.027 114.135 L 110.180 114.314 L 110.336 114.505 L 110.495 114.708 L 110.657 114.921 L 110.821 115.146 L 110.987 115.381 L 111.258 115.381 L 111.063 115.172 L 110.874 114.965 L 110.693 114.759 L 110.521 114.556 L 110.357 114.356 L 110.202 114.158 L 110.058 113.965 L 109.924 113.777 L 109.802 113.593 L 109.693 113.416 L 109.596 113.244 L 109.210 113.346 Z M 46.050 5.571 L 45.928 5.475 L 45.800 5.365 L 45.666 5.240 L 45.526 5.100 L 45.382 4.947 L 45.233 4.781 L 45.081 4.603 L 44.924 4.412 L 44.765 4.209 L 44.603 3.995 L 44.439 3.771 L 44.273 3.536 L 44.002 3.536 L 44.197 3.744 L 44.386 3.951 L 44.567 4.157 L 44.740 4.360 L 44.904 4.561 L 45.058 4.758 L 45.203 4.951 L 45.336 5.140 L 45.458 5.323 L 45.568 5.501 L 45.664 5.672 Z M 48.215 3.536 L 48.224 4.043 L 48.194 4.581 L 48.154 4.848 L 48.651 4.880 L 48.423 3.671 L 48.410 3.536 Z M 107.045 115.381 L 107.036 114.873 L 107.066 114.335 L 107.106 114.069 L 106.610 114.036 L 106.636 114.123 L 106.851 115.381 Z M 48.284 115.381 L 48.484 114.150 L 48.545 113.949 L 48.059 114.084 L 48.074 114.183 L 48.114 114.739 L 48.102 115.381 Z M 107.174 4.631 L 107.146 4.177 L 107.158 3.536 L 106.977 3.536 L 106.747 4.870 L 106.716 4.968 Z M 108.026 113.943 L 108.083 114.028 L 108.257 114.325 L 108.435 114.678 L 108.733 115.381 L 108.877 115.381 L 108.616 114.641 L 108.576 114.507 L 108.509 114.253 L 108.440 113.913 L 108.427 113.811 Z M 46.383 3.536 L 46.600 4.136 L 46.720 4.539 L 46.779 4.782 L 46.820 5.003 L 46.834 5.105 L 47.235 4.974 L 47.120 4.796 L 47.003 4.592 L 46.706 3.974 L 46.528 3.536 Z M 46.388 115.381 L 46.747 114.536 L 46.871 114.293 L 46.934 114.179 L 47.060 113.970 L 46.742 113.745 L 46.728 113.851 L 46.686 114.080 L 46.658 114.203 L 46.625 114.333 L 46.545 114.608 L 46.269 115.381 Z M 108.518 5.171 L 108.532 5.066 L 108.551 4.954 L 108.574 4.837 L 108.673 4.449 L 108.927 3.699 L 108.991 3.536 L 108.872 3.536 L 108.575 4.251 L 108.389 4.624 L 108.263 4.845 L 108.200 4.946 Z M 103.400 4.076 L 103.198 3.536 L 102.868 3.536 Z M 51.861 114.841 L 52.062 115.381 L 52.392 115.381 Z M 103.249 115.007 L 102.875 115.381 L 103.111 115.381 Z M 52.150 3.536 L 52.011 3.910 L 52.385 3.536 Z" fill="#111111" fill-rule="evenodd"/>
</svg>
