<svg xmlns="http://www.w3.org/2000/svg" viewBox="0 0 155.260 118.916">
  <path d="M 62.861 16.984 L 62.597 17.218 L 62.343 17.464 L 62.102 17.721 L 61.872 17.988 L 61.655 18.266 L 61.445 18.572 L 61.248 18.885 L 61.066 19.204 L 60.899 19.530 L 60.747 19.862 L 60.610 20.201 L 60.490 20.546 L 60.387 20.899 L 60.300 21.258 L 60.231 21.624 L 60.181 21.998 L 60.148 22.378 L 59.317 22.122 L 58.878 21.982 L 58.432 21.831 L 57.986 21.665 L 57.549 21.481 L 57.126 21.276 L 56.724 21.047 L 56.352 20.790 L 56.015 20.503 L 55.722 20.183 L 55.478 19.826 L 55.350 19.663 L 54.653 19.446 L 54.197 19.707 L 54.096 19.853 L 54.114 20.623 L 54.164 20.724 L 54.210 20.826 L 54.291 21.033 L 54.326 21.138 L 54.358 21.244 L 54.387 21.351 L 54.435 21.566 L 54.455 21.675 L 54.486 21.895 L 54.512 22.239 L 54.519 22.577 L 54.511 22.909 L 54.487 23.238 L 54.451 23.564 L 54.405 23.888 L 54.349 24.211 L 54.286 24.534 L 53.996 25.844 L 53.646 25.674 L 53.294 25.526 L 52.939 25.398 L 52.582 25.289 L 52.222 25.201 L 51.860 25.131 L 51.495 25.080 L 51.129 25.047 L 50.760 25.032 L 50.390 25.033 L 50.018 25.051 L 49.645 25.086 L 49.300 25.140 L 48.957 25.211 L 48.618 25.297 L 48.282 25.400 L 47.950 25.519 L 47.623 25.654 L 47.301 25.805 L 46.985 25.972 L 46.676 26.155 L 46.373 26.354 L 46.078 26.568 L 45.791 26.798 L 44.783 27.820 L 44.564 28.105 L 44.359 28.399 L 44.170 28.701 L 43.996 29.011 L 43.837 29.329 L 43.694 29.653 L 43.566 29.983 L 43.454 30.319 L 43.357 30.659 L 43.276 31.002 L 43.211 31.350 L 43.162 31.700 L 43.133 32.070 L 43.119 32.439 L 43.120 32.807 L 43.138 33.173 L 43.171 33.537 L 43.221 33.899 L 43.289 34.259 L 43.374 34.616 L 43.478 34.970 L 43.600 35.322 L 43.741 35.670 L 43.902 36.014 L 43.055 36.207 L 42.605 36.306 L 42.144 36.398 L 41.676 36.476 L 41.205 36.535 L 40.737 36.569 L 40.275 36.571 L 39.825 36.535 L 39.390 36.455 L 38.976 36.324 L 38.587 36.137 L 38.394 36.059 L 37.753 36.165 L 37.682 36.221 L 37.418 36.675 L 37.404 36.851 L 37.805 37.508 L 37.898 37.571 L 38.078 37.705 L 38.246 37.849 L 38.327 37.925 L 38.481 38.083 L 38.696 38.336 L 38.764 38.425 L 38.958 38.710 L 39.133 38.998 L 39.292 39.291 L 39.436 39.588 L 39.568 39.889 L 39.690 40.193 L 39.803 40.501 L 39.910 40.813 L 40.314 42.094 L 39.926 42.121 L 39.546 42.168 L 39.174 42.234 L 38.810 42.319 L 38.454 42.421 L 38.105 42.541 L 37.764 42.678 L 37.430 42.832 L 37.103 43.003 L 36.784 43.189 L 36.470 43.390 L 36.164 43.607 L 35.893 43.826 L 35.632 44.058 L 35.381 44.302 L 35.142 44.559 L 34.915 44.827 L 34.699 45.108 L 34.496 45.400 L 34.306 45.702 L 34.129 46.016 L 33.966 46.340 L 33.818 46.674 L 33.684 47.017 L 33.324 48.393 L 33.274 48.752 L 33.243 49.110 L 33.230 49.468 L 33.233 49.826 L 33.254 50.181 L 33.292 50.535 L 33.346 50.885 L 33.416 51.233 L 33.503 51.576 L 33.605 51.915 L 33.723 52.249 L 33.855 52.578 L 34.016 52.913 L 34.188 53.239 L 34.373 53.557 L 34.572 53.865 L 34.783 54.163 L 35.008 54.450 L 35.247 54.728 L 35.500 54.994 L 35.768 55.249 L 36.050 55.492 L 36.347 55.722 L 36.660 55.941 L 36.016 56.540 L 35.676 56.852 L 35.324 57.162 L 34.961 57.464 L 34.586 57.749 L 34.200 58.011 L 33.803 58.242 L 33.396 58.434 L 32.978 58.580 L 32.551 58.674 L 31.911 58.736 L 31.409 59.147 L 31.373 59.756 L 31.450 59.917 L 32.125 60.286 L 32.237 60.293 L 32.349 60.304 L 32.459 60.319 L 32.569 60.338 L 32.785 60.385 L 32.891 60.413 L 33.103 60.479 L 33.414 60.599 L 33.723 60.748 L 34.019 60.911 L 34.302 61.085 L 34.576 61.269 L 34.841 61.464 L 35.098 61.667 L 35.351 61.877 L 35.600 62.094 L 35.846 62.315 L 36.589 63.000 L 36.268 63.218 L 35.963 63.448 L 35.675 63.692 L 35.403 63.947 L 35.146 64.214 L 34.905 64.493 L 34.678 64.783 L 34.467 65.084 L 34.269 65.395 L 34.085 65.716 L 33.915 66.047 L 33.758 66.388 L 33.632 66.714 L 33.522 67.047 L 33.427 67.386 L 33.348 67.729 L 33.285 68.077 L 33.238 68.429 L 33.208 68.784 L 33.195 69.142 L 33.199 69.502 L 33.220 69.865 L 33.258 70.228 L 33.314 70.593 L 33.693 71.964 L 33.830 72.298 L 33.982 72.623 L 34.149 72.940 L 34.331 73.247 L 34.526 73.544 L 34.734 73.830 L 34.955 74.106 L 35.189 74.371 L 35.434 74.625 L 35.691 74.866 L 35.959 75.096 L 36.236 75.313 L 36.544 75.525 L 36.857 75.723 L 37.176 75.905 L 37.501 76.072 L 37.833 76.224 L 38.171 76.360 L 38.516 76.479 L 38.869 76.582 L 39.228 76.668 L 39.595 76.736 L 39.970 76.787 L 40.352 76.819 L 40.095 77.651 L 39.956 78.090 L 39.805 78.536 L 39.639 78.980 L 39.455 79.417 L 39.250 79.839 L 39.021 80.240 L 38.765 80.612 L 38.478 80.948 L 38.157 81.242 L 37.800 81.487 L 37.638 81.614 L 37.408 82.222 L 37.681 82.767 L 37.827 82.868 L 38.596 82.850 L 38.800 82.755 L 38.903 82.712 L 39.112 82.638 L 39.218 82.606 L 39.540 82.529 L 39.759 82.492 L 39.869 82.478 L 40.214 82.453 L 40.552 82.445 L 40.885 82.454 L 41.214 82.477 L 41.539 82.513 L 41.863 82.560 L 42.185 82.616 L 42.508 82.679 L 42.832 82.747 L 43.820 82.969 L 43.650 83.318 L 43.501 83.670 L 43.373 84.025 L 43.265 84.383 L 43.176 84.742 L 43.106 85.105 L 43.055 85.469 L 43.022 85.835 L 43.006 86.204 L 43.008 86.574 L 43.026 86.945 L 43.060 87.319 L 43.114 87.664 L 43.185 88.006 L 43.272 88.346 L 43.375 88.682 L 43.494 89.013 L 43.629 89.341 L 43.780 89.662 L 43.947 89.978 L 44.129 90.288 L 44.328 90.590 L 44.542 90.885 L 44.772 91.172 L 45.794 92.181 L 46.079 92.401 L 46.374 92.605 L 46.676 92.794 L 46.987 92.967 L 47.305 93.125 L 47.629 93.268 L 47.960 93.395 L 48.295 93.507 L 48.635 93.603 L 48.980 93.683 L 49.327 93.748 L 50.586 93.857 L 50.878 93.851 L 51.169 93.835 L 51.459 93.807 L 51.749 93.768 L 52.038 93.719 L 52.324 93.658 L 52.609 93.586 L 52.892 93.503 L 53.171 93.408 L 53.448 93.303 L 53.721 93.186 L 53.991 93.058 L 54.184 93.903 L 54.283 94.353 L 54.375 94.815 L 54.453 95.285 L 54.513 95.756 L 54.547 96.226 L 54.549 96.688 L 54.513 97.139 L 54.433 97.574 L 54.302 97.987 L 54.037 98.568 L 54.143 99.207 L 54.198 99.279 L 54.654 99.539 L 54.830 99.553 L 55.486 99.156 L 55.549 99.063 L 55.615 98.972 L 55.683 98.884 L 55.754 98.798 L 55.827 98.715 L 55.980 98.556 L 56.227 98.335 L 56.402 98.198 L 56.687 98.004 L 56.976 97.828 L 57.269 97.670 L 57.566 97.525 L 57.866 97.393 L 58.170 97.272 L 58.478 97.159 L 58.790 97.052 L 59.105 96.949 L 60.071 96.647 L 60.098 97.036 L 60.145 97.416 L 60.211 97.788 L 60.295 98.152 L 60.397 98.509 L 60.517 98.857 L 60.654 99.199 L 60.808 99.533 L 60.979 99.859 L 61.165 100.179 L 61.367 100.492 L 61.583 100.799 L 61.803 101.070 L 62.035 101.330 L 62.279 101.581 L 62.536 101.820 L 62.805 102.047 L 63.085 102.263 L 63.377 102.466 L 63.680 102.656 L 63.994 102.832 L 64.318 102.995 L 64.652 103.144 L 64.996 103.277 L 66.373 103.636 L 66.731 103.686 L 67.088 103.718 L 67.444 103.732 L 67.799 103.730 L 68.153 103.711 L 68.505 103.674 L 68.855 103.621 L 69.203 103.552 L 69.547 103.465 L 69.888 103.363 L 70.226 103.244 L 70.559 103.109 L 70.896 102.949 L 71.223 102.776 L 71.541 102.591 L 71.849 102.393 L 72.146 102.182 L 72.433 101.957 L 72.710 101.718 L 72.975 101.464 L 73.229 101.196 L 73.472 100.914 L 73.703 100.615 L 73.923 100.301 L 74.514 100.938 L 74.824 101.278 L 75.135 101.632 L 75.437 101.998 L 75.724 102.376 L 75.987 102.765 L 76.220 103.164 L 76.414 103.572 L 76.562 103.989 L 76.656 104.413 L 76.718 105.048 L 77.130 105.551 L 77.213 105.585 L 77.411 105.585 Z M 77.906 105.496 L 78.268 104.834 L 78.287 104.610 L 78.302 104.500 L 78.320 104.391 L 78.342 104.282 L 78.396 104.068 L 78.462 103.857 L 78.539 103.649 L 78.582 103.546 L 78.732 103.236 L 78.894 102.940 L 79.068 102.656 L 79.253 102.383 L 79.447 102.118 L 79.650 101.861 L 79.860 101.609 L 80.077 101.360 L 80.298 101.114 L 80.984 100.370 L 81.202 100.693 L 81.433 100.999 L 81.676 101.288 L 81.931 101.561 L 82.197 101.818 L 82.475 102.059 L 82.764 102.285 L 83.064 102.497 L 83.375 102.694 L 83.697 102.877 L 84.028 103.047 L 84.371 103.204 L 84.707 103.334 L 85.048 103.447 L 85.391 103.543 L 85.737 103.622 L 86.085 103.684 L 86.436 103.729 L 86.789 103.757 L 87.144 103.768 L 87.501 103.763 L 87.858 103.740 L 88.217 103.701 L 88.577 103.645 L 89.949 103.268 L 90.284 103.131 L 90.609 102.979 L 90.925 102.812 L 91.232 102.630 L 91.529 102.435 L 91.815 102.226 L 92.091 102.005 L 92.356 101.771 L 92.609 101.525 L 92.851 101.268 L 93.081 101.000 L 93.298 100.722 L 93.508 100.416 L 93.705 100.103 L 93.887 99.784 L 94.054 99.458 L 94.206 99.126 L 94.343 98.787 L 94.463 98.441 L 94.566 98.089 L 94.653 97.730 L 94.722 97.363 L 94.773 96.990 L 94.805 96.609 L 95.634 96.865 L 96.074 97.004 L 96.520 97.156 L 96.966 97.322 L 97.405 97.507 L 97.829 97.712 L 98.231 97.942 L 98.603 98.199 L 98.940 98.485 L 99.232 98.805 L 99.603 99.330 L 100.209 99.551 L 100.299 99.540 L 100.300 99.542 L 100.754 99.280 L 100.856 99.134 L 100.838 98.365 L 100.788 98.264 L 100.742 98.162 L 100.700 98.059 L 100.661 97.955 L 100.626 97.850 L 100.594 97.744 L 100.539 97.530 L 100.479 97.202 L 100.465 97.091 L 100.439 96.748 L 100.432 96.410 L 100.441 96.077 L 100.464 95.748 L 100.500 95.422 L 100.547 95.098 L 100.603 94.775 L 100.666 94.452 L 100.956 93.141 L 101.317 93.317 L 101.674 93.471 L 102.029 93.602 L 102.382 93.711 L 102.735 93.800 L 103.090 93.869 L 103.446 93.918 L 103.807 93.949 L 104.172 93.961 L 104.542 93.957 L 104.920 93.936 L 105.306 93.899 L 105.651 93.845 L 105.993 93.774 L 106.333 93.688 L 106.669 93.586 L 107.001 93.467 L 107.329 93.333 L 107.651 93.182 L 107.967 93.016 L 108.277 92.833 L 108.580 92.635 L 108.875 92.421 L 109.162 92.191 L 110.171 91.168 L 110.390 90.883 L 110.595 90.589 L 110.784 90.287 L 110.958 89.976 L 111.116 89.659 L 111.260 89.334 L 111.387 89.004 L 111.500 88.669 L 111.596 88.329 L 111.677 87.985 L 111.742 87.637 L 111.791 87.287 L 111.820 86.917 L 111.834 86.548 L 111.832 86.180 L 111.815 85.814 L 111.782 85.450 L 111.731 85.087 L 111.663 84.727 L 111.578 84.370 L 111.475 84.016 L 111.352 83.664 L 111.211 83.317 L 111.050 82.973 L 111.895 82.780 L 112.345 82.681 L 112.807 82.590 L 113.276 82.511 L 113.747 82.452 L 114.216 82.418 L 114.678 82.416 L 115.129 82.452 L 115.563 82.532 L 115.977 82.663 L 116.557 82.927 L 117.198 82.822 L 117.270 82.767 L 117.533 82.313 L 117.547 82.135 L 117.146 81.478 L 116.962 81.350 L 116.788 81.211 L 116.624 81.062 L 116.470 80.904 L 116.187 80.561 L 115.993 80.276 L 115.818 79.987 L 115.659 79.695 L 115.515 79.398 L 115.383 79.098 L 115.261 78.794 L 115.148 78.486 L 115.042 78.175 L 114.939 77.860 L 114.637 76.894 L 115.029 76.866 L 115.411 76.820 L 115.784 76.755 L 116.148 76.672 L 116.504 76.572 L 116.852 76.453 L 117.192 76.317 L 117.525 76.164 L 117.851 75.994 L 118.171 75.807 L 118.485 75.604 L 118.793 75.385 L 119.064 75.166 L 119.324 74.934 L 119.574 74.689 L 119.813 74.432 L 120.040 74.163 L 120.256 73.882 L 120.458 73.590 L 120.648 73.287 L 120.824 72.973 L 120.987 72.648 L 121.135 72.314 L 121.268 71.970 L 121.629 70.593 L 121.678 70.235 L 121.709 69.876 L 121.723 69.518 L 121.719 69.161 L 121.698 68.806 L 121.660 68.452 L 121.606 68.101 L 121.536 67.754 L 121.449 67.411 L 121.347 67.071 L 121.229 66.737 L 121.096 66.409 L 120.936 66.074 L 120.763 65.747 L 120.578 65.430 L 120.380 65.122 L 120.168 64.824 L 119.943 64.537 L 119.704 64.259 L 119.451 63.993 L 119.183 63.739 L 118.901 63.496 L 118.604 63.265 L 118.291 63.047 L 119.125 62.278 L 119.588 61.867 L 119.824 61.666 L 120.061 61.473 L 120.295 61.292 L 120.525 61.125 L 120.749 60.977 L 121.756 60.469 L 121.917 60.417 L 122.077 60.376 L 122.232 60.345 L 122.380 60.322 L 122.519 60.305 L 122.941 60.271 L 123.002 60.263 L 123.041 60.251 L 123.543 59.840 L 123.579 59.231 L 123.502 59.070 L 122.827 58.702 L 122.714 58.694 L 122.603 58.683 L 122.492 58.668 L 122.274 58.627 L 122.060 58.574 L 121.849 58.508 L 121.641 58.430 L 121.538 58.387 L 121.228 58.238 L 120.932 58.075 L 120.648 57.902 L 120.375 57.717 L 120.111 57.523 L 119.854 57.321 L 119.602 57.111 L 119.354 56.895 L 119.108 56.674 L 118.364 55.989 L 118.686 55.771 L 118.990 55.540 L 119.278 55.297 L 119.551 55.041 L 119.807 54.774 L 120.048 54.495 L 120.275 54.205 L 120.486 53.904 L 120.684 53.593 L 120.868 53.271 L 121.038 52.940 L 121.195 52.600 L 121.321 52.273 L 121.432 51.940 L 121.527 51.602 L 121.606 51.258 L 121.669 50.910 L 121.715 50.558 L 121.745 50.203 L 121.759 49.845 L 121.755 49.484 L 121.734 49.122 L 121.695 48.758 L 121.639 48.394 L 121.259 47.023 L 121.123 46.688 L 120.970 46.363 L 120.803 46.047 L 120.622 45.740 L 120.427 45.443 L 120.218 45.156 L 119.996 44.881 L 119.763 44.616 L 119.517 44.362 L 119.260 44.120 L 118.993 43.890 L 118.715 43.673 L 118.409 43.462 L 118.096 43.265 L 117.777 43.083 L 117.451 42.916 L 117.119 42.763 L 116.779 42.627 L 116.434 42.507 L 116.081 42.404 L 115.721 42.318 L 115.354 42.250 L 114.980 42.199 L 114.599 42.168 L 114.855 41.339 L 114.994 40.900 L 115.146 40.454 L 115.313 40.007 L 115.497 39.569 L 115.703 39.145 L 115.932 38.743 L 116.189 38.370 L 116.476 38.034 L 116.796 37.742 L 117.315 37.372 L 117.544 36.765 L 117.532 36.675 L 117.270 36.220 L 117.124 36.119 L 116.355 36.137 L 116.253 36.187 L 116.151 36.233 L 116.048 36.275 L 115.944 36.314 L 115.839 36.349 L 115.733 36.381 L 115.411 36.458 L 115.302 36.478 L 115.082 36.509 L 114.739 36.535 L 114.402 36.543 L 114.069 36.534 L 113.740 36.511 L 113.414 36.475 L 113.090 36.428 L 112.767 36.372 L 112.444 36.309 L 111.134 36.019 L 111.303 35.669 L 111.452 35.317 L 111.580 34.962 L 111.688 34.605 L 111.777 34.245 L 111.847 33.883 L 111.898 33.518 L 111.931 33.152 L 111.946 32.783 L 111.944 32.413 L 111.926 32.041 L 111.892 31.668 L 111.838 31.323 L 111.767 30.981 L 111.680 30.641 L 111.578 30.305 L 111.459 29.973 L 111.323 29.646 L 111.172 29.325 L 111.005 29.009 L 110.822 28.699 L 110.624 28.397 L 110.409 28.102 L 110.179 27.815 L 109.156 26.807 L 108.871 26.588 L 108.577 26.383 L 108.275 26.194 L 107.964 26.020 L 107.647 25.862 L 107.322 25.718 L 106.992 25.591 L 106.657 25.479 L 106.317 25.382 L 105.973 25.301 L 105.625 25.236 L 105.275 25.187 L 104.905 25.158 L 104.536 25.144 L 104.168 25.146 L 103.802 25.163 L 103.437 25.197 L 103.075 25.247 L 102.716 25.315 L 102.358 25.400 L 102.004 25.504 L 101.653 25.626 L 101.305 25.767 L 100.960 25.928 L 100.768 25.083 L 100.669 24.633 L 100.577 24.171 L 100.499 23.702 L 100.439 23.230 L 100.405 22.761 L 100.403 22.299 L 100.439 21.848 L 100.519 21.414 L 100.650 21.000 L 100.883 20.518 Z M 78.293 65.467 L 77.476 65.522 L 76.658 65.467 L 75.874 65.306 L 75.130 65.047 L 74.434 64.698 L 73.792 64.264 L 73.213 63.754 L 72.702 63.174 L 72.269 62.533 L 71.919 61.837 L 71.660 61.093 L 71.499 60.309 L 71.444 59.491 L 71.499 58.674 L 71.660 57.890 L 71.919 57.146 L 72.269 56.450 L 72.702 55.809 L 73.213 55.229 L 73.792 54.719 L 74.434 54.285 L 75.130 53.935 L 75.874 53.677 L 76.658 53.516 L 77.476 53.461 L 78.293 53.516 L 79.078 53.677 L 79.822 53.935 L 80.518 54.285 L 81.160 54.719 L 81.739 55.229 L 82.249 55.809 L 82.683 56.450 L 83.033 57.146 L 83.292 57.890 L 83.453 58.674 L 83.508 59.491 L 83.453 60.309 L 83.292 61.093 L 83.033 61.837 L 82.683 62.533 L 82.249 63.174 L 81.739 63.754 L 81.160 64.264 L 80.518 64.698 L 79.822 65.047 L 79.078 65.306 Z M 63.613 95.273 L 64.239 94.925 L 64.858 94.529 L 65.467 94.080 L 66.062 93.573 L 66.640 93.000 L 67.197 92.357 L 67.729 91.637 L 68.233 90.834 L 68.431 90.485 L 68.623 90.135 L 68.808 89.784 L 68.988 89.432 L 69.161 89.079 L 69.329 88.725 L 69.490 88.371 L 69.645 88.017 L 69.795 87.663 L 69.938 87.308 L 70.075 86.954 L 70.206 86.601 L 70.144 86.967 L 70.087 87.337 L 70.035 87.712 L 69.988 88.091 L 69.946 88.473 L 69.910 88.860 L 69.879 89.251 L 69.853 89.645 L 69.833 90.043 L 69.819 90.444 L 69.810 90.849 L 69.807 91.257 L 69.841 92.185 L 69.940 93.060 L 70.098 93.884 L 70.308 94.659 L 70.565 95.390 L 70.864 96.078 L 71.197 96.727 L 71.560 97.339 L 71.947 97.918 L 72.351 98.466 L 72.767 98.986 L 73.188 99.482 L 72.880 99.880 L 72.527 100.224 L 72.129 100.513 L 71.685 100.749 L 71.195 100.930 L 70.658 101.057 L 70.074 101.130 L 69.443 101.150 L 68.764 101.115 L 68.038 101.027 L 67.262 100.886 L 66.438 100.690 L 65.597 100.451 L 64.831 100.190 L 64.139 99.908 L 63.520 99.605 L 62.974 99.278 L 62.500 98.929 L 62.097 98.555 L 61.764 98.157 L 61.501 97.734 L 61.307 97.285 L 61.181 96.809 L 61.122 96.306 L 61.736 96.090 L 62.358 95.849 L 62.985 95.579 Z M 85.459 88.375 L 85.620 88.725 L 85.787 89.076 L 85.960 89.427 L 86.140 89.779 L 86.326 90.131 L 86.519 90.483 L 86.719 90.834 L 87.213 91.621 L 87.736 92.329 L 88.284 92.964 L 88.854 93.530 L 89.442 94.034 L 90.044 94.481 L 90.657 94.876 L 91.278 95.225 L 91.902 95.533 L 92.526 95.806 L 93.146 96.049 L 93.759 96.267 L 93.692 96.766 L 93.558 97.241 L 93.358 97.691 L 93.092 98.117 L 92.758 98.519 L 92.357 98.898 L 91.888 99.253 L 91.351 99.585 L 90.746 99.895 L 90.073 100.182 L 89.331 100.447 L 88.520 100.689 L 87.669 100.903 L 86.873 101.060 L 86.132 101.162 L 85.443 101.208 L 84.806 101.198 L 84.221 101.132 L 83.685 101.010 L 83.199 100.831 L 82.761 100.596 L 82.369 100.304 L 82.024 99.955 L 81.724 99.549 L 82.147 99.055 L 82.566 98.535 L 82.974 97.988 L 83.364 97.408 L 83.732 96.795 L 84.070 96.143 L 84.373 95.450 L 84.635 94.712 L 84.849 93.928 L 85.009 93.092 L 85.110 92.203 L 85.145 91.257 L 85.142 90.852 L 85.133 90.451 L 85.119 90.053 L 85.099 89.658 L 85.074 89.267 L 85.044 88.879 L 85.008 88.496 L 84.967 88.116 L 84.921 87.740 L 84.870 87.368 L 84.814 87.000 L 84.753 86.637 L 84.881 86.982 L 85.017 87.329 L 85.158 87.676 L 85.305 88.025 Z M 53.663 32.573 L 53.871 33.359 L 54.149 34.163 L 54.507 34.983 L 54.950 35.820 L 55.156 36.171 L 55.367 36.517 L 55.581 36.859 L 55.800 37.195 L 56.023 37.526 L 56.249 37.852 L 56.478 38.173 L 56.711 38.488 L 56.948 38.798 L 57.187 39.103 L 57.429 39.402 L 57.674 39.695 L 57.380 39.451 L 57.081 39.209 L 56.776 38.970 L 56.466 38.733 L 56.151 38.501 L 55.830 38.271 L 55.504 38.045 L 55.172 37.823 L 54.836 37.604 L 54.495 37.389 L 54.148 37.179 L 53.797 36.973 L 52.976 36.538 L 52.169 36.186 L 51.377 35.911 L 50.600 35.705 L 49.840 35.563 L 49.095 35.477 L 48.366 35.441 L 47.655 35.449 L 46.960 35.494 L 46.284 35.569 L 45.625 35.669 L 44.985 35.786 L 44.794 35.321 L 44.673 34.844 L 44.621 34.354 L 44.639 33.853 L 44.727 33.338 L 44.885 32.810 L 45.114 32.268 L 45.412 31.712 L 45.781 31.141 L 46.221 30.555 L 46.732 29.955 L 47.313 29.338 L 47.940 28.731 L 48.547 28.198 L 49.136 27.741 L 49.707 27.357 L 50.262 27.048 L 50.801 26.813 L 51.325 26.650 L 51.836 26.561 L 52.334 26.545 L 52.821 26.602 L 53.297 26.730 L 53.764 26.931 L 53.645 27.570 L 53.542 28.229 L 53.463 28.907 L 53.415 29.604 L 53.404 30.319 L 53.437 31.052 L 53.521 31.804 Z M 105.923 35.459 L 105.172 35.544 L 104.402 35.686 L 103.616 35.893 L 102.812 36.172 L 101.991 36.530 L 101.154 36.973 L 100.803 37.179 L 100.457 37.389 L 100.116 37.604 L 99.779 37.822 L 99.448 38.045 L 99.122 38.271 L 98.801 38.500 L 98.486 38.733 L 98.176 38.969 L 97.871 39.208 L 97.572 39.450 L 97.279 39.695 L 97.524 39.401 L 97.766 39.102 L 98.005 38.798 L 98.241 38.488 L 98.474 38.172 L 98.703 37.852 L 98.929 37.526 L 99.152 37.194 L 99.370 36.858 L 99.585 36.517 L 99.796 36.171 L 100.002 35.820 L 100.436 34.999 L 100.788 34.192 L 101.064 33.401 L 101.269 32.624 L 101.412 31.864 L 101.498 31.119 L 101.533 30.391 L 101.526 29.680 L 101.481 28.985 L 101.405 28.309 L 101.306 27.651 L 101.189 27.011 L 101.654 26.820 L 102.131 26.699 L 102.621 26.647 L 103.123 26.665 L 103.638 26.753 L 104.166 26.911 L 104.708 27.139 L 105.265 27.437 L 105.835 27.806 L 106.421 28.246 L 107.022 28.756 L 107.639 29.338 L 108.246 29.964 L 108.778 30.571 L 109.236 31.159 L 109.619 31.729 L 109.928 32.283 L 110.164 32.822 L 110.326 33.346 L 110.415 33.857 L 110.432 34.356 L 110.375 34.843 L 110.247 35.320 L 110.046 35.787 L 109.407 35.668 L 108.748 35.565 L 108.069 35.486 L 107.372 35.437 L 106.657 35.426 Z M 68.988 29.556 L 68.808 29.203 L 68.623 28.852 L 68.431 28.502 L 68.233 28.153 L 67.739 27.366 L 67.216 26.658 L 66.668 26.024 L 66.098 25.457 L 65.510 24.953 L 64.908 24.506 L 64.295 24.111 L 63.675 23.762 L 63.051 23.454 L 62.427 23.182 L 61.807 22.939 L 61.194 22.720 L 61.261 22.221 L 61.395 21.747 L 61.595 21.297 L 61.862 20.871 L 62.196 20.469 L 62.597 20.091 L 63.066 19.735 L 63.603 19.403 L 64.207 19.094 L 64.881 18.807 L 65.623 18.542 L 66.434 18.299 L 67.284 18.086 L 68.080 17.928 L 68.822 17.827 L 69.510 17.781 L 70.147 17.790 L 70.732 17.856 L 71.267 17.979 L 71.753 18.157 L 72.192 18.392 L 72.583 18.684 L 72.928 19.033 L 73.228 19.438 L 72.804 19.932 L 72.386 20.452 L 71.978 20.999 L 71.587 21.578 L 71.220 22.192 L 70.882 22.844 L 70.579 23.537 L 70.317 24.274 L 70.103 25.059 L 69.943 25.895 L 69.842 26.784 L 69.807 27.731 L 69.810 28.139 L 69.819 28.543 L 69.833 28.944 L 69.853 29.342 L 69.879 29.736 L 69.910 30.127 L 69.946 30.514 L 69.988 30.897 L 70.035 31.275 L 70.087 31.650 L 70.144 32.020 L 70.206 32.386 L 70.075 32.033 L 69.938 31.679 L 69.795 31.325 L 69.645 30.971 L 69.490 30.616 L 69.329 30.262 L 69.161 29.909 Z M 37.975 54.785 L 37.479 55.206 L 37.081 54.898 L 36.738 54.546 L 36.448 54.148 L 36.213 53.704 L 36.032 53.214 L 35.905 52.677 L 35.832 52.093 L 35.812 51.463 L 35.847 50.784 L 35.935 50.057 L 36.076 49.282 L 36.271 48.459 L 36.511 47.618 L 36.771 46.852 L 37.053 46.159 L 37.356 45.540 L 37.682 44.994 L 38.031 44.519 L 38.404 44.116 L 38.802 43.783 L 39.225 43.520 L 39.675 43.326 L 40.151 43.201 L 40.655 43.143 L 40.872 43.757 L 41.112 44.379 L 41.382 45.006 L 41.689 45.634 L 42.037 46.259 L 42.432 46.878 L 42.881 47.487 L 43.389 48.082 L 43.962 48.660 L 44.606 49.216 L 45.326 49.748 L 46.128 50.252 L 46.478 50.450 L 46.828 50.643 L 47.178 50.829 L 47.527 51.008 L 47.877 51.181 L 48.226 51.348 L 48.574 51.508 L 48.922 51.662 L 49.269 51.809 L 49.614 51.951 L 49.959 52.085 L 50.302 52.214 L 49.941 52.154 L 49.575 52.098 L 49.205 52.048 L 48.830 52.002 L 48.452 51.962 L 48.071 51.926 L 47.685 51.896 L 47.296 51.871 L 46.904 51.852 L 46.508 51.838 L 46.109 51.829 L 45.707 51.826 L 44.778 51.860 L 43.903 51.959 L 43.079 52.117 L 42.303 52.327 L 41.573 52.584 L 40.884 52.882 L 40.235 53.216 L 39.623 53.579 L 39.044 53.965 L 38.496 54.369 Z M 97.562 79.632 L 97.321 79.342 L 97.607 79.578 L 97.899 79.813 L 98.198 80.045 L 98.502 80.275 L 98.813 80.503 L 99.130 80.728 L 99.453 80.950 L 99.782 81.169 L 100.116 81.385 L 100.456 81.598 L 100.802 81.808 L 101.154 82.015 L 101.908 82.417 L 102.653 82.752 L 103.390 83.022 L 104.122 83.231 L 104.850 83.385 L 105.576 83.485 L 106.300 83.537 L 107.026 83.544 L 107.754 83.510 L 108.485 83.439 L 109.223 83.335 L 109.967 83.201 L 110.158 83.666 L 110.279 84.144 L 110.331 84.633 L 110.313 85.135 L 110.225 85.650 L 110.067 86.178 L 109.839 86.720 L 109.540 87.276 L 109.171 87.847 L 108.731 88.433 L 108.221 89.034 L 107.639 89.651 L 107.013 90.258 L 106.406 90.790 L 105.818 91.247 L 105.248 91.630 L 104.693 91.940 L 104.154 92.175 L 103.630 92.337 L 103.119 92.426 L 102.620 92.443 L 102.132 92.386 L 101.655 92.258 L 101.187 92.057 L 101.306 91.417 L 101.409 90.759 L 101.488 90.081 L 101.537 89.384 L 101.548 88.669 L 101.515 87.935 L 101.431 87.184 L 101.288 86.415 L 101.081 85.628 L 100.802 84.824 L 100.445 84.004 L 100.002 83.167 L 99.799 82.821 L 99.591 82.480 L 99.380 82.143 L 99.164 81.811 L 98.945 81.485 L 98.723 81.163 L 98.497 80.846 L 98.267 80.535 L 98.035 80.228 L 97.800 79.927 Z M 93.831 22.681 L 93.217 22.897 L 92.594 23.137 L 91.967 23.408 L 91.339 23.714 L 90.714 24.062 L 90.095 24.457 L 89.485 24.906 L 88.890 25.414 L 88.312 25.987 L 87.755 26.630 L 87.223 27.350 L 86.719 28.153 L 86.519 28.505 L 86.326 28.857 L 86.140 29.208 L 85.960 29.560 L 85.787 29.911 L 85.620 30.262 L 85.459 30.613 L 85.305 30.962 L 85.158 31.311 L 85.017 31.658 L 84.881 32.005 L 84.753 32.350 L 84.814 31.987 L 84.870 31.619 L 84.921 31.247 L 84.967 30.871 L 85.008 30.492 L 85.044 30.108 L 85.074 29.720 L 85.099 29.329 L 85.119 28.934 L 85.133 28.536 L 85.142 28.135 L 85.145 27.731 L 85.110 26.802 L 85.012 25.928 L 84.854 25.104 L 84.644 24.329 L 84.387 23.599 L 84.089 22.911 L 83.755 22.262 L 83.393 21.650 L 83.006 21.071 L 82.603 20.523 L 82.187 20.002 L 81.765 19.507 L 82.073 19.109 L 82.426 18.765 L 82.824 18.476 L 83.268 18.241 L 83.758 18.059 L 84.295 17.932 L 84.878 17.859 L 85.509 17.839 L 86.188 17.874 L 86.915 17.961 L 87.690 18.103 L 88.515 18.298 L 89.355 18.538 L 90.121 18.798 L 90.813 19.080 L 91.432 19.383 L 91.978 19.710 L 92.452 20.059 L 92.855 20.432 L 93.188 20.830 L 93.451 21.253 L 93.646 21.702 L 93.772 22.178 Z M 107.065 67.803 L 106.714 67.636 L 106.364 67.476 L 106.014 67.322 L 105.665 67.174 L 105.318 67.033 L 104.971 66.898 L 104.625 66.769 L 104.989 66.830 L 105.357 66.886 L 105.729 66.937 L 106.105 66.983 L 106.485 67.024 L 106.868 67.060 L 107.256 67.090 L 107.647 67.116 L 108.042 67.135 L 108.440 67.150 L 108.841 67.158 L 109.245 67.161 L 110.174 67.127 L 111.049 67.028 L 111.872 66.871 L 112.648 66.661 L 113.379 66.403 L 114.067 66.105 L 114.716 65.772 L 115.328 65.409 L 115.907 65.023 L 116.455 64.619 L 116.976 64.203 L 117.472 63.782 L 117.870 64.089 L 118.214 64.442 L 118.503 64.840 L 118.739 65.284 L 118.920 65.774 L 119.047 66.310 L 119.121 66.894 L 119.140 67.525 L 119.106 68.204 L 119.018 68.931 L 118.877 69.706 L 118.682 70.530 L 118.442 71.371 L 118.181 72.136 L 117.899 72.827 L 117.595 73.445 L 117.269 73.990 L 116.919 74.463 L 116.546 74.865 L 116.147 75.197 L 115.724 75.460 L 115.275 75.655 L 114.799 75.782 L 114.296 75.843 L 114.080 75.229 L 113.839 74.607 L 113.569 73.980 L 113.262 73.353 L 112.914 72.727 L 112.519 72.109 L 112.070 71.500 L 111.562 70.905 L 110.989 70.327 L 110.346 69.770 L 109.626 69.238 L 108.823 68.735 L 108.472 68.535 L 108.120 68.342 L 107.768 68.156 L 107.416 67.976 Z M 42.250 66.651 L 43.035 66.865 L 43.870 67.025 L 44.760 67.126 L 45.707 67.161 L 46.111 67.158 L 46.512 67.150 L 46.910 67.135 L 47.305 67.116 L 47.696 67.090 L 48.084 67.060 L 48.468 67.024 L 48.848 66.983 L 49.224 66.937 L 49.596 66.886 L 49.964 66.830 L 50.327 66.769 L 49.982 66.897 L 49.635 67.033 L 49.287 67.174 L 48.938 67.321 L 48.589 67.475 L 48.238 67.636 L 47.887 67.803 L 47.536 67.976 L 47.184 68.156 L 46.832 68.342 L 46.480 68.535 L 46.128 68.735 L 45.341 69.229 L 44.633 69.752 L 43.998 70.300 L 43.432 70.869 L 42.928 71.457 L 42.481 72.059 L 42.086 72.672 L 41.737 73.293 L 41.429 73.916 L 41.156 74.540 L 40.913 75.160 L 40.694 75.773 L 40.197 75.705 L 39.723 75.571 L 39.274 75.371 L 38.848 75.104 L 38.446 74.770 L 38.067 74.369 L 37.711 73.901 L 37.378 73.364 L 37.068 72.760 L 36.780 72.087 L 36.515 71.345 L 36.272 70.534 L 36.059 69.684 L 35.902 68.888 L 35.800 68.147 L 35.754 67.458 L 35.764 66.822 L 35.830 66.237 L 35.952 65.702 L 36.131 65.215 L 36.366 64.777 L 36.658 64.386 L 37.007 64.041 L 37.413 63.741 L 37.907 64.165 L 38.426 64.583 L 38.974 64.991 L 39.553 65.381 L 40.168 65.749 L 40.819 66.087 L 41.512 66.390 Z M 109.245 51.826 L 108.843 51.829 L 108.444 51.838 L 108.048 51.852 L 107.655 51.871 L 107.266 51.896 L 106.881 51.926 L 106.499 51.962 L 106.121 52.002 L 105.747 52.048 L 105.377 52.098 L 105.011 52.154 L 104.649 52.214 L 104.992 52.085 L 105.337 51.951 L 105.683 51.809 L 106.030 51.662 L 106.377 51.508 L 106.726 51.348 L 107.075 51.181 L 107.424 51.008 L 107.774 50.829 L 108.124 50.643 L 108.474 50.450 L 108.823 50.252 L 109.610 49.758 L 110.318 49.235 L 110.953 48.688 L 111.519 48.118 L 112.023 47.530 L 112.470 46.928 L 112.865 46.316 L 113.214 45.695 L 113.522 45.072 L 113.795 44.448 L 114.038 43.828 L 114.257 43.215 L 114.753 43.283 L 115.226 43.417 L 115.676 43.617 L 116.102 43.884 L 116.504 44.218 L 116.884 44.619 L 117.240 45.087 L 117.573 45.624 L 117.884 46.228 L 118.172 46.901 L 118.437 47.643 L 118.680 48.454 L 118.893 49.305 L 119.051 50.100 L 119.153 50.842 L 119.199 51.530 L 119.189 52.166 L 119.123 52.752 L 119.001 53.287 L 118.822 53.773 L 118.587 54.211 L 118.295 54.602 L 117.946 54.947 L 117.541 55.247 L 117.046 54.824 L 116.527 54.405 L 115.979 53.997 L 115.399 53.607 L 114.785 53.239 L 114.133 52.901 L 113.440 52.598 L 112.702 52.336 L 111.917 52.122 L 111.082 51.962 L 110.192 51.861 Z M 51.530 83.039 L 52.275 82.765 L 53.030 82.425 L 53.797 82.015 L 54.149 81.808 L 54.495 81.598 L 54.835 81.385 L 55.170 81.169 L 55.499 80.950 L 55.822 80.727 L 56.139 80.502 L 56.449 80.275 L 56.754 80.045 L 57.053 79.812 L 57.345 79.578 L 57.631 79.341 L 57.390 79.631 L 57.152 79.927 L 56.917 80.228 L 56.684 80.534 L 56.455 80.846 L 56.229 81.162 L 56.007 81.484 L 55.788 81.811 L 55.572 82.143 L 55.361 82.480 L 55.153 82.821 L 54.950 83.167 L 54.515 83.988 L 54.163 84.795 L 53.888 85.587 L 53.682 86.363 L 53.539 87.124 L 53.454 87.869 L 53.418 88.598 L 53.426 89.309 L 53.471 90.004 L 53.547 90.680 L 53.646 91.339 L 53.763 91.979 L 53.298 92.170 L 52.821 92.291 L 52.332 92.343 L 51.830 92.325 L 51.315 92.237 L 50.787 92.079 L 50.245 91.851 L 49.688 91.552 L 49.118 91.183 L 48.532 90.743 L 47.931 90.233 L 47.314 89.651 L 46.706 89.024 L 46.173 88.416 L 45.715 87.827 L 45.331 87.256 L 45.022 86.701 L 44.786 86.162 L 44.624 85.637 L 44.535 85.127 L 44.520 84.629 L 44.577 84.142 L 44.706 83.666 L 44.907 83.200 L 45.662 83.338 L 46.407 83.447 L 47.144 83.522 L 47.876 83.559 L 48.605 83.555 L 49.332 83.505 L 50.061 83.405 L 50.793 83.251 Z M 100.883 20.518 L 100.914 20.420 L 100.809 19.779 L 100.754 19.708 L 100.300 19.445 L 100.122 19.430 L 99.465 19.831 L 99.402 19.925 L 99.337 20.015 L 99.198 20.189 L 99.125 20.272 L 98.809 20.580 L 98.549 20.789 L 98.264 20.983 L 97.976 21.158 L 97.683 21.317 L 97.387 21.462 L 97.086 21.594 L 96.782 21.715 L 96.474 21.828 L 96.162 21.935 L 95.847 22.038 L 94.881 22.339 L 94.854 21.951 L 94.807 21.571 L 94.741 21.198 L 94.657 20.834 L 94.555 20.478 L 94.435 20.129 L 94.297 19.788 L 94.143 19.454 L 93.973 19.127 L 93.787 18.807 L 93.585 18.495 L 93.368 18.188 L 93.149 17.917 L 92.917 17.657 L 92.672 17.406 L 92.415 17.167 L 92.146 16.940 L 91.866 16.725 L 91.574 16.522 L 91.271 16.332 L 90.957 16.155 L 90.633 15.992 L 90.299 15.844 L 89.955 15.711 L 88.578 15.351 L 88.220 15.301 L 87.861 15.270 L 87.503 15.257 L 87.145 15.260 L 86.790 15.281 L 86.436 15.319 L 86.086 15.373 L 85.738 15.443 L 85.395 15.530 L 85.055 15.632 L 84.721 15.750 L 84.393 15.882 L 84.058 16.043 L 83.732 16.215 L 83.414 16.401 L 83.106 16.599 L 82.808 16.811 L 82.521 17.036 L 82.244 17.274 L 81.977 17.528 L 81.723 17.795 L 81.479 18.077 L 81.248 18.374 L 81.030 18.687 L 80.439 18.050 L 80.128 17.710 L 79.817 17.356 L 79.515 16.989 L 79.228 16.611 L 78.964 16.222 L 78.731 15.823 L 78.537 15.415 L 78.389 14.998 L 78.295 14.574 L 78.233 13.939 L 77.822 13.436 L 77.213 13.395 L 77.051 13.470 L 76.684 14.152 L 76.676 14.265 L 76.665 14.376 L 76.650 14.487 L 76.631 14.596 L 76.584 14.812 L 76.524 15.024 L 76.452 15.234 L 76.369 15.440 L 76.222 15.745 L 76.060 16.038 L 75.886 16.321 L 75.700 16.595 L 75.504 16.861 L 75.300 17.120 L 75.088 17.375 L 74.871 17.626 L 74.649 17.874 L 73.969 18.614 L 73.751 18.293 L 73.520 17.989 L 73.277 17.701 L 73.021 17.428 L 72.754 17.172 L 72.475 16.931 L 72.185 16.705 L 71.884 16.493 L 71.573 16.295 L 71.252 16.112 L 70.921 15.942 L 70.580 15.785 L 70.254 15.659 L 69.921 15.548 L 69.582 15.453 L 69.239 15.374 L 68.891 15.311 L 68.539 15.265 L 68.183 15.235 L 67.825 15.222 L 67.465 15.226 L 67.102 15.247 L 66.739 15.286 L 66.374 15.342 L 65.003 15.721 L 64.669 15.857 L 64.343 16.010 L 64.027 16.177 L 63.720 16.358 L 63.424 16.554 L 63.137 16.763 L 62.861 16.984 Z M 61.334 60.075 L 61.368 60.702 L 61.426 61.322 L 61.508 61.936 L 61.612 62.541 L 61.738 63.140 L 61.887 63.729 L 62.057 64.310 L 62.248 64.882 L 62.459 65.444 L 62.691 65.996 L 62.942 66.538 L 63.213 67.068 L 63.257 66.979 L 63.705 65.683 L 63.801 65.406 L 63.907 65.132 L 64.025 64.861 L 64.157 64.594 L 64.308 64.333 L 64.481 64.079 L 64.677 63.832 L 64.901 63.594 L 65.156 63.365 L 65.445 63.148 L 65.771 62.942 L 67.338 62.208 L 66.501 62.317 L 66.210 62.338 L 65.613 62.355 L 65.056 62.323 L 64.556 62.235 L 64.108 62.098 L 63.704 61.920 L 63.340 61.711 L 63.007 61.479 L 62.701 61.233 L 62.414 60.980 L 62.140 60.729 L 61.873 60.489 L 61.606 60.268 Z M 66.352 56.654 L 65.763 56.629 L 65.613 56.628 L 65.228 56.644 L 64.870 56.688 L 64.535 56.758 L 64.221 56.852 L 63.927 56.968 L 63.651 57.102 L 63.389 57.253 L 63.141 57.418 L 62.904 57.594 L 62.675 57.779 L 62.453 57.970 L 61.416 58.868 L 61.333 58.924 L 61.367 58.297 L 61.425 57.677 L 61.506 57.064 L 61.609 56.458 L 61.735 55.860 L 61.883 55.270 L 62.053 54.689 L 62.243 54.117 L 62.454 53.555 L 62.685 53.003 L 62.936 52.461 L 63.206 51.931 L 63.345 52.234 L 63.465 52.557 L 63.576 52.898 L 63.688 53.252 L 63.810 53.614 L 63.952 53.981 L 64.123 54.347 L 64.335 54.711 L 64.595 55.066 L 64.915 55.408 L 65.304 55.735 L 65.771 56.041 L 67.329 56.773 Z M 88.600 56.654 L 87.622 56.773 L 89.181 56.041 L 89.507 55.835 L 89.795 55.618 L 90.050 55.389 L 90.274 55.151 L 90.471 54.904 L 90.643 54.650 L 90.794 54.388 L 90.927 54.122 L 91.045 53.851 L 91.150 53.576 L 91.247 53.300 L 91.694 52.007 L 91.738 51.917 L 92.008 52.447 L 92.260 52.989 L 92.491 53.541 L 92.703 54.102 L 92.894 54.674 L 93.064 55.255 L 93.212 55.844 L 93.339 56.442 L 93.443 57.048 L 93.525 57.661 L 93.583 58.281 L 93.618 58.907 L 93.346 58.715 L 93.080 58.495 L 92.813 58.255 L 92.540 58.004 L 92.253 57.751 L 91.946 57.505 L 91.613 57.272 L 91.249 57.063 L 90.845 56.886 L 90.396 56.748 L 89.896 56.660 L 89.339 56.628 Z M 84.965 73.708 L 85.055 73.752 L 84.524 74.023 L 83.983 74.274 L 83.430 74.506 L 82.868 74.718 L 82.296 74.909 L 81.714 75.079 L 81.124 75.227 L 80.526 75.354 L 79.920 75.458 L 79.306 75.540 L 78.685 75.598 L 78.058 75.632 L 78.251 75.360 L 78.471 75.094 L 78.711 74.827 L 78.962 74.553 L 79.215 74.266 L 79.462 73.960 L 79.695 73.627 L 79.904 73.262 L 80.082 72.859 L 80.219 72.410 L 80.308 71.910 L 80.340 71.352 L 80.323 70.755 L 80.302 70.464 L 80.193 69.627 L 80.344 70.015 L 80.927 71.194 L 81.133 71.520 L 81.350 71.808 L 81.579 72.063 L 81.817 72.287 L 82.064 72.484 L 82.319 72.656 L 82.580 72.807 L 82.847 72.940 L 83.118 73.057 L 83.392 73.163 L 83.669 73.260 Z M 74.639 70.603 L 74.622 70.899 L 74.612 71.352 L 74.628 71.736 L 74.672 72.095 L 74.742 72.430 L 74.836 72.743 L 74.952 73.037 L 75.086 73.314 L 75.237 73.575 L 75.402 73.823 L 75.578 74.061 L 75.763 74.289 L 75.954 74.511 L 76.795 75.468 L 76.854 75.550 L 76.910 75.633 L 76.283 75.599 L 75.662 75.542 L 75.048 75.461 L 74.442 75.357 L 73.843 75.231 L 73.253 75.083 L 72.671 74.914 L 72.099 74.723 L 71.536 74.512 L 70.984 74.281 L 70.442 74.030 L 69.911 73.760 L 70.213 73.621 L 70.537 73.500 L 70.878 73.389 L 71.232 73.278 L 71.595 73.156 L 71.962 73.014 L 72.329 72.842 L 72.693 72.630 L 73.048 72.370 L 73.392 72.050 L 73.718 71.661 L 74.024 71.194 L 74.434 70.407 L 74.761 69.613 L 74.697 70.028 L 74.664 70.313 Z M 91.746 67.054 L 92.017 66.523 L 92.267 65.981 L 92.499 65.428 L 92.710 64.866 L 92.900 64.293 L 93.069 63.712 L 93.217 63.122 L 93.343 62.523 L 93.447 61.917 L 93.527 61.303 L 93.585 60.682 L 93.619 60.055 L 93.465 60.162 L 92.499 61.013 L 92.277 61.204 L 92.048 61.389 L 91.810 61.565 L 91.562 61.730 L 91.301 61.881 L 91.025 62.015 L 90.731 62.131 L 90.417 62.225 L 90.082 62.295 L 89.724 62.339 L 89.339 62.355 L 88.742 62.338 L 88.451 62.317 L 87.614 62.208 L 88.002 62.359 L 89.181 62.942 L 89.648 63.248 L 90.037 63.575 L 90.357 63.918 L 90.618 64.274 L 90.829 64.637 L 91.001 65.005 L 91.143 65.371 L 91.265 65.734 L 91.376 66.088 L 91.487 66.428 L 91.607 66.752 Z M 67.015 68.450 L 67.185 68.426 L 67.358 68.395 L 67.534 68.354 L 67.711 68.305 L 67.891 68.246 L 68.074 68.176 L 68.258 68.096 L 68.445 68.005 L 68.634 67.901 L 68.766 67.824 L 69.625 67.251 L 70.066 66.902 L 69.065 68.331 L 68.902 68.638 L 68.771 68.939 L 68.668 69.235 L 68.591 69.525 L 68.538 69.809 L 68.506 70.087 L 68.493 70.359 L 68.496 70.625 L 68.512 70.884 L 68.541 71.137 L 68.578 71.383 L 68.621 71.622 L 68.870 72.813 L 68.906 73.070 L 68.915 73.183 L 68.405 72.850 L 67.908 72.497 L 67.425 72.127 L 66.957 71.739 L 66.503 71.335 L 66.065 70.913 L 65.643 70.476 L 65.238 70.023 L 64.850 69.555 L 64.479 69.073 L 64.126 68.576 L 63.792 68.066 L 64.003 68.082 L 64.213 68.109 L 64.423 68.146 L 64.634 68.189 L 65.289 68.335 L 65.518 68.380 L 65.754 68.419 L 65.999 68.451 L 66.253 68.471 L 66.517 68.479 L 66.681 68.476 L 66.846 68.466 Z M 86.460 70.653 L 86.465 70.386 L 86.452 70.112 L 86.421 69.831 L 86.368 69.544 L 86.290 69.250 L 86.186 68.950 L 86.053 68.644 L 85.887 68.331 L 85.240 67.348 L 84.886 66.903 L 86.318 67.901 L 86.645 68.075 L 86.963 68.213 L 87.273 68.318 L 87.577 68.393 L 87.876 68.442 L 88.173 68.466 L 88.470 68.469 L 88.769 68.454 L 89.071 68.423 L 89.378 68.380 L 89.693 68.326 L 90.767 68.098 L 91.168 68.053 L 90.834 68.563 L 90.482 69.060 L 90.112 69.542 L 89.724 70.010 L 89.320 70.463 L 88.899 70.901 L 88.461 71.322 L 88.009 71.728 L 87.541 72.116 L 87.059 72.486 L 86.563 72.839 L 86.053 73.173 L 86.061 73.050 L 86.073 72.924 L 86.090 72.798 L 86.330 71.651 L 86.374 71.412 L 86.413 71.166 L 86.442 70.913 Z M 72.084 44.269 L 72.656 44.078 L 73.237 43.908 L 73.827 43.760 L 74.425 43.633 L 75.031 43.529 L 75.644 43.448 L 76.264 43.389 L 76.891 43.355 L 76.698 43.627 L 76.478 43.894 L 75.987 44.434 L 75.734 44.720 L 75.488 45.027 L 75.256 45.359 L 75.047 45.723 L 74.869 46.126 L 74.732 46.574 L 74.644 47.074 L 74.612 47.631 L 74.622 48.084 L 74.639 48.380 L 74.664 48.670 L 74.697 48.955 L 74.761 49.369 L 74.434 48.576 L 74.024 47.789 L 73.840 47.495 L 73.645 47.230 L 73.440 46.994 L 73.227 46.782 L 73.008 46.594 L 72.783 46.427 L 72.554 46.280 L 72.322 46.149 L 72.090 46.034 L 71.857 45.932 L 71.625 45.842 L 71.396 45.760 L 70.244 45.387 L 70.122 45.338 L 70.007 45.287 L 69.898 45.234 L 70.429 44.964 L 70.970 44.712 L 71.522 44.481 Z M 80.302 48.519 L 80.323 48.228 L 80.340 47.631 L 80.324 47.246 L 80.280 46.888 L 80.210 46.553 L 80.116 46.240 L 80.000 45.946 L 79.866 45.669 L 79.715 45.408 L 79.550 45.160 L 79.374 44.923 L 79.189 44.694 L 78.998 44.472 L 78.160 43.519 L 78.101 43.437 L 78.045 43.354 L 78.671 43.388 L 79.292 43.446 L 79.905 43.527 L 80.511 43.630 L 81.108 43.756 L 81.698 43.904 L 82.279 44.073 L 82.851 44.263 L 83.413 44.474 L 83.965 44.705 L 84.506 44.956 L 85.037 45.225 L 84.734 45.364 L 84.411 45.484 L 84.070 45.595 L 83.716 45.706 L 83.354 45.828 L 82.987 45.970 L 82.620 46.142 L 82.257 46.353 L 81.902 46.614 L 81.559 46.934 L 81.233 47.322 L 80.927 47.789 L 80.344 48.968 L 80.193 49.356 Z M 68.622 47.332 L 68.577 47.571 L 68.539 47.817 L 68.509 48.070 L 68.491 48.330 L 68.487 48.598 L 68.500 48.871 L 68.531 49.152 L 68.584 49.439 L 68.662 49.733 L 68.766 50.033 L 68.899 50.339 L 69.065 50.652 L 69.220 50.912 L 69.465 51.289 L 70.082 52.099 L 69.148 51.399 L 68.634 51.082 L 68.327 50.920 L 68.026 50.788 L 67.731 50.686 L 67.441 50.609 L 67.156 50.556 L 66.878 50.523 L 66.606 50.510 L 66.341 50.513 L 66.081 50.530 L 65.829 50.558 L 65.583 50.595 L 65.344 50.639 L 64.292 50.862 L 64.021 50.907 L 63.897 50.922 L 63.785 50.932 L 64.118 50.422 L 64.470 49.926 L 64.841 49.443 L 65.228 48.976 L 65.633 48.523 L 66.054 48.085 L 66.491 47.664 L 66.943 47.259 L 67.411 46.871 L 67.893 46.501 L 68.389 46.148 L 68.899 45.814 L 68.891 45.937 L 68.878 46.062 L 68.861 46.188 Z M 89.711 48.961 L 90.099 49.429 L 90.470 49.911 L 90.823 50.407 L 91.157 50.916 L 91.033 50.908 L 90.908 50.895 L 90.655 50.858 L 89.638 50.639 L 89.399 50.595 L 89.153 50.556 L 88.900 50.527 L 88.639 50.509 L 88.372 50.505 L 88.098 50.517 L 87.818 50.548 L 87.530 50.602 L 87.237 50.679 L 86.936 50.783 L 86.630 50.917 L 86.318 51.082 L 86.186 51.159 L 85.680 51.482 L 85.205 51.827 L 84.870 52.098 L 84.962 51.989 L 85.230 51.648 L 85.570 51.165 L 85.732 50.912 L 85.887 50.652 L 86.050 50.345 L 86.181 50.044 L 86.284 49.748 L 86.361 49.458 L 86.414 49.174 L 86.446 48.896 L 86.459 48.624 L 86.456 48.359 L 86.439 48.100 L 86.411 47.847 L 86.374 47.601 L 86.083 46.174 L 86.047 45.917 L 86.037 45.804 L 86.547 46.138 L 87.044 46.490 L 87.526 46.860 L 87.994 47.247 L 88.447 47.651 L 88.885 48.072 L 89.306 48.509 Z M 77.541 105.586 L 77.738 105.586 L 77.899 105.510 L 77.906 105.496 Z" fill="#111111" fill-rule="evenodd"/>
</svg>
