<svg id="Layer_1" data-name="Layer 1" xmlns="http://www.w3.org/2000/svg" viewBox="0 0 1700.79 1275.59"><path d="M0,461.34V1719.07A8.93,8.93,0,0,0,8.93,1728H1691.86a8.93,8.93,0,0,0,8.93-8.93V461.34a8.93,8.93,0,0,0-8.93-8.93H8.93A8.93,8.93,0,0,0,0,461.34ZM1655.78,724c-.58.72-2.35,1.35-5.27,2.4l-.65.23C1614.68,739.31,1445,801.74,1397.57,820l-1.71.65c-1.58.58-4,1.46-4.47,1.28-.41-.4-.62-3.09-.75-4.87-.15-2-.25-4.22-.31-6.73-.41-20.93-1.68-43.45-3.89-68.82-1-11.22-3.17-20.82-6.72-29.33-10.25-24.52-28.82-40.2-55.2-46.59-25.08-6.07-49.84-2.61-73.61,10.29-10.17,5.51-20,12.58-31.94,22.89-2.82,2.44-5.62,5-8.33,7.46-2,1.81-4,3.62-6,5.41-2.91,2.59-6.06,5.34-9.38,8a43.4,43.4,0,0,1-6,4c-10.45,5.73-20.13,4.92-29.58-2.51-1-.78-2-1.59-3-2.4-1.87-1.53-3.81-3.12-5.85-4.55a23.88,23.88,0,0,0-19.43-4,38.37,38.37,0,0,0-8.54,2.82c-1.89.9-3.77,1.87-5.59,2.89-2,1.11-4,2.24-5.92,3.37-1.8,1-3.59,2.06-5.4,3.07a54.31,54.31,0,0,1-10.48,4.62,18.56,18.56,0,0,1-13.48-.41,95.53,95.53,0,0,0-17.39-5.43c-13.3-2.94-25.94-.24-37.56,8a85.87,85.87,0,0,0-13.13,11.77l-2.1,2.28c-1.23,1.34-2.51,2.73-3.8,4.06a53.78,53.78,0,0,1-13.92,10.48c-13.15,6.79-25.32,5.55-37.21-3.78a53.11,53.11,0,0,1-13.12-15.62,100.64,100.64,0,0,1-9-22c-.8-2.7-1.59-5.41-2.39-8.11-1.62-5.53-3.29-11.24-5-16.84a103.86,103.86,0,0,0-7.08-16.76c-8.61-16.73-22.58-26-41.53-27.69-2.27-.2-4.58-.34-6.81-.47-2-.12-4.14-.24-6.18-.41a3.65,3.65,0,0,1-1.33-.24,3.56,3.56,0,0,1-.22-1.46c-.08-1.56-.08-3.16-.08-4.72v-.78q0-66.39,0-132.74v-1.25c0-2.31,0-4.31.39-4.71s2.44-.42,5-.42h.86c65-.07,643.47-.17,776-.16,2.5,0,5.16,0,8.64.13a.89.89,0,0,1,1,1c.19,2.32.28,4.78.28,7.3.06,34.37.08,173.9,0,209.64v.3c0,.61,0,1.17,0,1.68C1656.28,722.24,1656.26,723.44,1655.78,724Zm-1.45,206.8a2.2,2.2,0,0,1,1.86,2.62c0,.84,0,1.67,0,2.47,0,.44,0,.88,0,1.32v72.86l.69,55.5,0,1.73c0,1.31.06,2.54,0,3.78,0,.27,0,.57,0,.87a7.9,7.9,0,0,1,0,.93l-.12,0c-.24.08-.58-.19-1.24-.84l-.43-.41c-3.43-3.11-7.47-6.78-11.42-10.47-44.78-41.79-179-162.37-203.63-184.38-1-.9-2-1.88-3.14-3.05a29.79,29.79,0,0,1,4.14.7c4,1,26.47,7,55.25,14.58,58,15.31,145.63,38.45,151.44,39.9,1.43.36,2.89.79,4.3,1.21Zm-21.83,166c-12.54,5.53-140.61,48.65-202.15,69.37-15.57,5.25-27.32,9.2-32.61,11l-.89.32c-.66.23-1.31.46-2,.65-1.45.42-1.79.24-1.79.24s-.25-.26-.25-1.57c0-3.24.16-28.3.33-54.82.19-29.36.4-62.63.44-73.46v-.69c0-2.77,0-5.38.31-5.8a12.94,12.94,0,0,1,3.45.52c.86.19,1.84.4,3,.62,20.38,3.93,227.74,48.14,233.11,49.48a43.53,43.53,0,0,1,4.5,1.34l0,0-.07.07C1636.25,1095,1634.42,1095.94,1632.5,1096.8ZM1657,1345.88c.45.59.43,1.42.34,3.74,0,1.05-.11,2.36-.11,4v.08c0,21.34,0,43,0,64q0,13.27,0,26.55c0,2.65,0,6-.47,6.39-.4.23-2.37-.23-4.11-.63-.64-.15-1.35-.32-2.14-.49-21.9-4.79-44.14-8.57-66.11-11.23a593.14,593.14,0,0,0-163,2.11,619.67,619.67,0,0,0-78.19,17.27c-43.9,12.77-87.64,31.18-133.72,56.29-16,8.73-36,19.59-54.24,31.48a319.51,319.51,0,0,0-43.8,33.89c-28.72,26.64-50.16,59.31-63.72,97.08-.24.67-.45,1.29-.65,1.85-.82,2.33-1.37,3.88-1.9,4.31s-1.59.33-3.52.29c-.79,0-1.71,0-2.79,0-29.6,0-68.61.06-107.93,0-1.33,0-2.47,0-3.46,0-2,0-3.68.1-4.06-.27-.55-.54-.55-3.21-.55-6.89v-1.21c0-30.74-.91-144.17-2.27-173.1a32.63,32.63,0,0,1,0-3.56c0-.7.21-1,.3-1s.41-.1,1.06.13c1.63.56,3.27,1.29,4.85,2l.75.33c21,9.28,43.6,18.81,67.27,25.75,12.21,3.57,25.41,7,39.23,7.47,9.79.37,17.72-.7,25-3.35a43.64,43.64,0,0,0,23.52-19.8c4.23-7.4,7-16,8.64-26.27a164.76,164.76,0,0,0,.54-43.66c-.83-7.68-1.5-15.51-2.14-23.09l-.08-1a52.7,52.7,0,0,1,1.83-17.93,34.29,34.29,0,0,1,15.39-21.1,67.66,67.66,0,0,1,30.15-10.36,41.67,41.67,0,0,1,25.74,6.38,104.5,104.5,0,0,1,12.78,9.44,175.63,175.63,0,0,0,16.35,12.57,35.2,35.2,0,0,0,13.07,5.33,30.87,30.87,0,0,0,31.58-13.49,13.41,13.41,0,0,0,1-2c.68-1.5,1.11-2.37,2.13-2.59.79-.18,1.54.28,2.71,1a12.38,12.38,0,0,0,2,1.13,42.09,42.09,0,0,0,33.45-.16,40.7,40.7,0,0,0,21.92-24.35c.4-1.17.68-2.36,1-3.52.16-.65.31-1.31.49-2,.59-2.18.59-2.18,2.81-2.07,1.28.06,2.55.14,3.82.21,3.64.21,7.41.43,11.13.39,28.74-.29,51.52-12.49,67.73-36.26,8.44-12.4,14.13-26.59,17.39-43.4,3.55-18.33,2.92-36.41,1.83-51.67-.26-3.75-.52-7.41-.66-11.08a.44.44,0,0,1,.12-.36.47.47,0,0,1,.44,0,22.2,22.2,0,0,1,3.22,1.32c1.1.58,2.22,1.14,3.33,1.7a93.07,93.07,0,0,1,8.55,4.69c11.5,7.44,23.71,14,35.52,20.36l7.17,3.86c46.66,25.29,89.12,48.23,129.82,70.13,10.27,5.53,20.76,11.06,30.9,16.41,8.55,4.51,17.4,9.18,26.06,13.81l1.64.88C1654.77,1344.24,1656.4,1345.1,1657,1345.88ZM324.11,1682.8c-1.44,0-2.93,0-4.38,0-.58,0-.81-.19-.83-.23s0-.36.31-.93c2.18-3.56,4.48-7.1,6.65-10.41,33.51-51,63.54-98.75,91.8-145.85q4.48-7.49,8.94-15L431,1503l.57-1c.32-.56.64-1.11,1-1.65,1.88-2.88,1.88-2.88,5.15-1.25l7.59,3.75c6.62,3.26,13.45,6.64,20.13,10,10.86,5.53,19.7,8.38,28.66,9.24,2.95.28,2.95.28,3.58,3.9,3.32,19.1,22.58,138.83,24.35,151,.06.33.11.67.17,1,.12.68.23,1.33.29,2,.17,1.88,0,2.3-.07,2.38s-.56.32-2.52.38c-1.21,0-2.46,0-3.66,0H515l-189.75,0Zm269.65,0c-4.78.06-9.64,0-14.33,0l-5.25,0v0h-8.71c-6,0-12.11,0-18.16,0a10.52,10.52,0,0,1-1.86-.1A7.69,7.69,0,0,1,545,1681c-.32-1.59-2.35-13.53-5.16-30-6.71-39.51-17.94-105.63-21.19-120.61-1.3-6-2.12-11-1.92-16.18.66-17.5,8.21-32.21,22.45-43.71,10.27-8.29,22.14-9.62,35.28-4a48.54,48.54,0,0,1,20.08,15.83c4.38,5.88,8.39,12.19,12.27,18.29q1.38,2.16,2.77,4.32c.34.53.67,1.06,1,1.59.87,1.39,1.77,2.82,2.78,4.18a26.77,26.77,0,0,0,17.78,11,26.24,26.24,0,0,0,19.34-5l.15-.11a42.85,42.85,0,0,1,4.79-3.24c4.48-2.44,8.86-1.9,13.41,1.63a11.27,11.27,0,0,1,4.39,12.24,40.38,40.38,0,0,1-3,7.78c-12.27,26-57.43,121.82-66.84,141.63l-.76,1.61c-1.12,2.39-1.8,3.83-2.4,4.29s-1.28.35-3.29.31C596.07,1682.82,595,1682.8,593.76,1682.81ZM370,1158.12c-1.5.26-3,.66-4.39,1.05-.95.25-1.93.52-2.88.74a.83.83,0,0,1-.63-.05.85.85,0,0,1-.27-.55c-.17-1.13-.28-2.29-.37-3.21,0-.33-.06-.63-.09-.88a36.52,36.52,0,0,1,1.51-9.91,2.68,2.68,0,0,1,2.76-2.12c6.78-.48,12.67,1.73,18,6.75a19.58,19.58,0,0,1,5.09,7.58c.31.81.19,1.18.15,1.22s-.34.16-1.07,0A42.52,42.52,0,0,0,370,1158.12Zm-20.86,133.4c0-.21,0-.4,0-.58,0-1.2,0-2.26,0-3.21,0-2.34,0-4.77.47-5.1s3.83.35,5.6.77a87.61,87.61,0,0,0,54.34-4.22h0a12.08,12.08,0,0,1,1.5-.53.55.55,0,0,1,.46.2.86.86,0,0,1,.29.72,3,3,0,0,1-.11.41l-.8,2.4a112,112,0,0,1-5.94,15.32,46.83,46.83,0,0,1-11.77,15c-5.94,5-12.32,7.19-19.49,6.82-11.2-.56-19.76-7.19-22.88-17.75A39.86,39.86,0,0,1,349.09,1291.52Zm-.33-144.73c.27.06.75.39,1.5,1.61h0c1.93,3.13,3,8.19-.38,12.15-.7.83-1.41,1.64-2.13,2.46s-1.29,1.47-1.92,2.22c-12.85,15-21.2,31.62-24.82,49.41a99.49,99.49,0,0,0-2.15,19.82c0,13.12,3.22,24.86,9.9,37,1.19,2.17,2.46,4.24,3.92,6.63,1.37,2.24,2.91,4.77,4.73,7.93,2.79,7.57,3.45,12.77,2.55,20.47-.3.76-.56.91-.64.94s-.73,0-1.56-.52a63.07,63.07,0,0,1-14.86-12.33c-9.83-11.06-17-24.34-21.83-40.58a88.44,88.44,0,0,1-4.06-28.35c-.32-21.65,7.74-40.94,24-57.29,8.51-8.59,18.27-15.62,25.83-20.79C347.94,1146.83,348.49,1146.74,348.76,1146.79ZM509.83,887h0a7.19,7.19,0,0,1,4.64,3.83,7.06,7.06,0,0,1,.08,5.93,27.24,27.24,0,0,1-1.63,3c-.34.58-.68,1.16-1,1.75-7.38,13.65-12.47,26.32-15.58,38.73-6.61,26.42-5.41,52.52,3.58,77.58l.45,1.25c4.79,13.37,8,22.2,18.25,38.77l.85,1.32a33.91,33.91,0,0,1,2.26,3.83c.19.4.4.82.62,1.24,1.24,2.38,1.63,3.51.84,4.35-1.14,1.21-2.56,1-5.32.08a19.63,19.63,0,0,1-4.52-2.44,111.29,111.29,0,0,1-42.36-54,107.84,107.84,0,0,1-6.93-38.2c0-.24,0-.48,0-.73.22-34.24,14-62.63,40.95-84.38a19.82,19.82,0,0,1,2.37-1.66A3,3,0,0,1,509.83,887Zm69.08,152c.68.57.62,1,.13,2.63-.1.34-.21.68-.29,1a49.62,49.62,0,0,1-16.22,26.08,14.83,14.83,0,0,1-10.23,4c-3.63.06-7.58-1.44-11.72-4.45A48.87,48.87,0,0,1,524,1047.34a72,72,0,0,1-2.7-8,2.86,2.86,0,0,1-.11-.72.69.69,0,0,1,.07-.36c.07-.07.45-.21,1.3,0,.63.16,1.26.37,1.92.6s1,.35,1.55.5a88.05,88.05,0,0,0,49.58.32,11.72,11.72,0,0,0,1.26-.47C578.16,1038.66,578.48,1038.63,578.91,1039ZM560.73,914.74c-1-.3-2-.62-3-.88a56.45,56.45,0,0,0-9-1.45,54.43,54.43,0,0,0-15,.94h0c-4.26.88-9.71,2.22-14,4.87l-.1.06c-1.71,1.05-2,1-2.38.59s0-1,.66-2.31c.23-.42.45-.85.63-1.27a111.74,111.74,0,0,1,16.27-27.19l.33-.4a20.42,20.42,0,0,1,1.6-1.81c.63-.62,1.08-.78,2.09-.14a15.18,15.18,0,0,1,1.24.92l.12.1A92.83,92.83,0,0,1,562.72,913l.21.36c.52.86.81,1.38.73,2a1.37,1.37,0,0,1-.09.2C562.63,915.35,561.71,915.05,560.73,914.74ZM175.84,1189.49a157.92,157.92,0,0,0,9.84,23,74.06,74.06,0,0,0,14,18.66c8.91,8.45,19.92,13.87,33.64,16.59,7.67,1.52,15.31,1.67,23.09,1.7,8.9.16,17.8-.93,26.4-2l.37,0a8.72,8.72,0,0,1,2-.12,8.51,8.51,0,0,1,.84,2c.51,1.47.95,3,1.38,4.48.25.86.5,1.72.77,2.58,9.87,32,30.15,56,60.28,71.22a72.78,72.78,0,0,0,16.62,6c13.27,3,25.53-.15,36.44-9.46a70.73,70.73,0,0,0,12.16-13.7,93.79,93.79,0,0,0,14.86-35.81c6-30.67,3.1-61.25-8.62-90.89-5.82-14.69-13.47-26.53-23.39-36.19a67.26,67.26,0,0,0-14.72-10.91,42.39,42.39,0,0,0-32.3-3.62c-10.5,2.83-20.38,8.25-30.21,16.59-3.47,3-6.91,6-10.23,9l-.49.44a66.89,66.89,0,0,0-12.76,15.66c-.8,1.34-1.71,2.85-2.2,3s-2-.54-3.77-1.33a33.81,33.81,0,0,1-17.65-17.68c-9-20-14.82-38.59-17.91-56.82a195.44,195.44,0,0,1-2.06-51.48,208,208,0,0,1,13.88-57.81,126.78,126.78,0,0,1,17.41-30.86c15.33-19.77,35.7-31.72,60.56-35.51,11.95-1.81,25-1.87,41-.19,15.89,1.65,31.55,5.76,46.7,9.73l4,1c6.3,1.64,11.06,3.91,15,7.12,1.15.94,1.17,1.64,1,2.27a69.46,69.46,0,0,0-1.63,14.08c-.11,2.13-.21,4.34-.41,6.48-.22,2.37-.22,2.37-2.36,2.8-6.41,1.28-13,2.61-19.41,5l-.11,0a49.46,49.46,0,0,0-6.92,3c-9.25,5.27-13,13.85-10.65,24.18a52.68,52.68,0,0,0,3,9.05l4,9.33c9.37,21.78,19.06,44.3,30.1,65.79,10.31,20.11,21.15,40.37,31.62,60l1.36,2.54c8.55,16,17.29,32.23,25.74,47.93,18.79,34.92,38.22,71,56.82,106.81,10.79,20.76,23,37.54,37.34,51.29,15.64,15,34,27.15,56,37.1,25.14,11.38,51.57,22.35,80.78,33.53,16.27,6.22,32.83,12.5,48.84,18.58,18.17,6.89,37,14,55.41,21.09,11.79,4.53,23.71,9.31,35.24,13.94l14.28,5.71a52.68,52.68,0,0,1,5,2.24.85.85,0,0,1,.31,1.22,32.8,32.8,0,0,1-1.81,3q-3.93,6-7.83,12c-6.08,9.34-12.37,19-18.62,28.46-4.23,6.41-7.64,11.22-11,15.6-7.15,9.22-15.31,15.63-24.93,19.58a47.91,47.91,0,0,1-56.65-15.44c-1.89-2.47-3.67-5.14-5.38-7.72-.89-1.32-1.77-2.65-2.67-3.95s-2-2.87-2.95-4.3c-2.6-3.79-5.29-7.72-8-11.52a61.07,61.07,0,0,0-11.37-11.92c-8.77-7-18.25-7.77-28.19-2.22a57.41,57.41,0,0,0-6.89,4.56,6.94,6.94,0,0,1-6.39,1,7.05,7.05,0,0,1-4.61-5,36.33,36.33,0,0,1-1-6.33v-.13c-.77-8-4.8-14.34-12-18.69a20.83,20.83,0,0,0-19.14-1.63,44.64,44.64,0,0,0-9,5.12l-.41.27a33.34,33.34,0,0,1-9,4.52c-4.75,1.47-9.4.77-14.22-2.13a26.41,26.41,0,0,1-7-6.22c-1.89-2.37-3.66-4.82-5.15-6.9a108.12,108.12,0,0,0-11.65-14c-1.56-1.54-3-3.29-4.45-5-14.49-17.33-33.53-23.65-56.6-18.76-21.13,4.48-36.72,17.48-46.33,38.66a71.36,71.36,0,0,0-5.24,16.87c-.16.89-.37,1.86-.64,2.94-.6,2.41-1,2.69-3.16,2.54l-1.57-.1a49,49,0,0,1-11.57-1.64,165.4,165.4,0,0,1-23.38-9.31c-18.48-8.85-36.12-18.89-56.93-31.25-40-23.76-79.87-49.28-118.4-74l-6.14-3.94c-25.85-16.55-52.19-33.28-77.66-49.46l-11.79-7.49a104.41,104.41,0,0,1-16.55-12.53,86.56,86.56,0,0,1-23.6-39.93,367.67,367.67,0,0,1-11.31-55.58,246.64,246.64,0,0,1-1.7-29q0-7.32.42-14.67c.39-6.59,1.23-13.28,2.05-19.75.31-2.42.62-4.85.9-7.27a115.64,115.64,0,0,1,3.28-18l0-.19c.82-2.88,1.31-4.62,1.92-5.17s1.62-.44,4-.43h1.33q7.44,0,14.87,0a37.25,37.25,0,0,1,4.15.2,1.15,1.15,0,0,1,1.12,1.13,21,21,0,0,1,0,4C165.37,1147.16,168.17,1167.69,175.84,1189.49Zm654,493.31h0c-2.45,0-4.07,0-4.68-.43s-1-1.77-1.63-4.12c-6.06-21.53-11.38-40.65-16.26-58.43a76.06,76.06,0,0,1-1.82-9.54c-1.13-8,2-14.25,9.07-18.12a32.91,32.91,0,0,1,10-3.48,82.57,82.57,0,0,0,15.82-4.16c10.6-4.21,20-11.11,28.77-21.08a132.53,132.53,0,0,0,13.87-19.3c5.42-8.94,11.29-17.75,17.43-26.19.88-1.2,1.71-2.23,2.51-3.15l0,0a16.54,16.54,0,0,1,.24,2.63c0,4.34,0,8.69-.09,12.37-.3,22.8-.69,120-.72,146.88v1.51c0,2,0,4-.3,4.36s-2.1.26-3.86.24h-2.12C872.56,1682.83,849.39,1682.82,829.84,1682.8ZM1385,1268c-2,23.74-13,41.83-32.71,53.76-10.56,6.38-20.53,10.23-30.48,11.76a90.08,90.08,0,0,1-15.81.54l-4.36-.09a1.38,1.38,0,0,1-1.43-1c-.7-2-1.27-4-1.76-5.82a95.19,95.19,0,0,0-4.84-14.28,34.66,34.66,0,0,0-5-8.29,15.75,15.75,0,0,0-4.63-4,6.5,6.5,0,0,0-9.84,5.22,15.38,15.38,0,0,0,1.21,7.35c2,5.13,4,10.18,5.89,15a48,48,0,0,1,3.34,13.35c1.71,18.59-13.43,24.54-20,26.24s-11.39-.31-16.48-7a34.59,34.59,0,0,1-4.88-9.49c-2.86-7.94-4.62-16.61-5.71-28.1,0-.54-.08-1.09-.12-1.63a25.1,25.1,0,0,0-.5-4.09,6.08,6.08,0,0,0-3-3.87,8.55,8.55,0,0,0-6.44-.9,8.73,8.73,0,0,0-5.72,4.3,7.35,7.35,0,0,0,.09,6.21,24.56,24.56,0,0,0,1.57,3c.29.5.59,1,.86,1.5a63.07,63.07,0,0,1,6.32,18.22c1.37,7.15.22,14.53-3.51,22.57s-12.42,11.83-22.11,9.66a36.89,36.89,0,0,1-16.26-8.38,172,172,0,0,0-17.93-13.58,108.51,108.51,0,0,0-18.24-9.81,55.42,55.42,0,0,0-42.76-.22c-11.06,4.37-21.81,11.09-32.87,20.53-5.59,4.76-9.41,11.19-11.68,19.66a11,11,0,0,0-.25,1.49c-.16,1.27-.27,1.63-.54,1.69-.47.09-.7,0-1.51-1.59a12.47,12.47,0,0,0-.71-1.28l-1.48-2.2c-4.18-6.22-8.5-12.65-13.38-18.58a36.89,36.89,0,0,0-7.3-7.25c-4.59-3.21-8-3.08-12.43.5-5.35,4.28-6.83,9.67-4.4,16a47.6,47.6,0,0,0,2.63,5.42l.16.3a178.43,178.43,0,0,0,16,24.63l2.13,2.79c5,6.52,10.14,13.27,15.39,19.76a14.38,14.38,0,0,1,3.51,9.83c0,4.93.07,9.93.17,14.77q.08,3.79.14,7.59c0,1.12,0,2.26-.15,3.56l-.05-.06a44.79,44.79,0,0,1-3.61-3.71c-1.78-2.15-3.53-4.32-5.28-6.5-2-2.45-4-5-6.08-7.45a48.67,48.67,0,0,0-5.75-6c-3.94-3.4-9-4-14.92-1.8-3.86,1.43-6.08,4.62-6.25,9a23.86,23.86,0,0,0,2.84,12.06,54.75,54.75,0,0,0,6.79,10,193.7,193.7,0,0,1,13.25,18.74c2.3,3.53,4.68,7.19,7.15,10.71,1.38,2,1.4,2-.65,3.81-4.63,4.12-10.27,6.18-17.26,6.29s-14-1.27-22.49-4.31l-5.3-1.91c-10.49-3.78-21.34-7.69-32-11.57-33.71-12.3-67.62-25.76-100.42-38.78l-21.44-8.51L714,1389.23q-6-2.4-12.07-4.77c-10.77-4.26-21.92-8.66-32.83-13.09-22.6-9.2-41-21.23-56.11-36.8a149.93,149.93,0,0,1-22.7-30.44c-20.47-35.55-38.24-67-54.32-96-26.19-47.31-53.49-98.35-85.91-160.62-3.72-7.15-7.44-14.44-11-21.49l-1.13-2.21a78.31,78.31,0,0,1-6-15.24,9.21,9.21,0,0,1,3.54-10.43c4.64-3.3,10.1-3.9,15.74-4.27a.47.47,0,0,1,.44.32c.54,1.57,1.15,3.4,1.6,5.21,6.71,26.78,21.51,50.05,44,69.17A94.38,94.38,0,0,0,533.56,1088a52.69,52.69,0,0,0,20.82,1.76c12-1.54,22.23-7.32,30.44-17.16,9.15-11,15.29-23.85,18.79-39.43,2.34-10.46,3.17-19.66,2.53-28.12-.17-2.25.49-3.31,2.63-4.17,14.7-5.92,27.11-9.08,39-9.93,10.89-.78,18.71,4.25,22.62,14.56,2.7,7.12,4.54,15,6,25.56,1.93,14.23,2.07,28.39,1.66,46.67a334.9,334.9,0,0,0,2.07,44.93c3.76,30.69,9.1,53.63,17.31,74.37,11.19,28.27,28.4,51.21,51.13,68.19a162.57,162.57,0,0,0,40,21.73A398.19,398.19,0,0,0,882,1310c21.53,2.55,39.09,3.58,55.24,3.27,57.75-1.13,108.88-13,156.33-36.32a320.55,320.55,0,0,0,90-65.9c13.37-13.92,26-29.85,39.82-50.14,16.61-24.47,33-51.65,51.59-85.56q4.53-8.28,9-16.59,2.28-4.23,4.58-8.45c1.28-2.35,2.6-4.78,3.23-5.16.7.29,2.44,2.61,4.11,4.85,15.93,21.24,28.19,38.82,38.59,55.3a426.69,426.69,0,0,1,24.86,44.81,274.44,274.44,0,0,1,22.54,68.89C1385.22,1237.3,1386.23,1253.32,1385,1268ZM124.43,1121.37c1.29,0,3.68.08,4,.36.2.53-.61,3-1,4.23-6.27,19.41-9.37,40.32-9.47,63.91a291.88,291.88,0,0,0,11.37,81.73c2.75,9.54,5.67,18.81,11.16,27.25,1.06,1.62,2.2,3.23,3.29,4.78.68.95,1.36,1.91,2,2.87s.66,1.13.66,1.19-.15.34-1,1.12c-.33.32-.68.61-1,.9l-.28.24c-19.93,16.45-39.29,34.15-58,51.27q-8.74,8-17.51,16h0c-6.59,6-13.42,11.92-20,17.67l-4.14,3.6a29,29,0,0,1-3.92,2.86c-.13-2-.2-4-.2-6.24q0-36.36,0-72.7V1131.62c0-3.27.06-6.3.13-9.27,0-.58.16-.84.95-.88,1.45-.07,2.91-.08,4.27-.09l76.25,0Zm98.27,248.25a.76.76,0,0,1,.44.1c1.74.78,3.41,1.7,4.81,2.5,27.26,15.48,54.14,32.38,79.34,48.37q8.16,5.16,16.31,10.35c28.28,18,57.53,36.54,86.83,54,2.1,1.25,3.92,2.33,4.08,3s-1,2.48-2.14,4.44l-17.23,28.54c-25.58,42.39-73.21,121.31-92.28,153-.46.77-.94,1.54-1.41,2.3-.82,1.33-1.67,2.69-2.46,4.07-1.3,2.25-2.55,3-4.47,2.68a5.17,5.17,0,0,0-1.16,0H293l-71.33,0h-.52c-.63,0-1.27,0-1.91,0a10.16,10.16,0,0,1-2.57-.26,8.8,8.8,0,0,1-.2-2.58c.08-12.49,4.93-269.18,5.41-293.26.11-5.42.38-10.76.7-16.67A.84.84,0,0,1,222.7,1369.62Zm1375.7-319q10.33,9.3,20.63,18.64l.53.47a21.65,21.65,0,0,1,2.33,2.37,1.15,1.15,0,0,1,0,.19l-1-.2c-1.57-.32-3.2-.65-4.77-1-32.4-8.07-167-37.18-202.07-44.48l-5.25-1.09c-4.24-.87-8.63-1.78-12.92-2.71-2-.44-2-.48-2.15-2.35-.16-2.59-.18-5.14-.18-8,0-19.38.06-89.94.09-123.86V874.16c0-2,.13-4.06.26-6l0-.65.47.36c1.91,1.47,3.89,3,5.7,4.61C1418.72,889.07,1551.93,1008.79,1598.4,1050.57ZM871.29,908.65h0a59.24,59.24,0,0,0,4.46,22.28c5.27,12.33,14.65,21.35,28.67,27.59a103.33,103.33,0,0,0,25.28,7.4,229.32,229.32,0,0,0,59.09,1.64c10.18-1,19-5.6,26.09-13.72A60.75,60.75,0,0,0,1025.67,936c3-7.56,5.84-15.33,8.5-22.64a158.63,158.63,0,0,1,7.39-17.53,51.76,51.76,0,0,1,8.11-11.93c10.23-11.14,24.29-14.14,38.58-8.25,7.57,3.14,13,9.15,16.16,17.87,2.08,5.76,3,11.78,3.78,19,.94,9,1,18.25,1,27.18v2.57c0,1.81,0,3.69.16,5.54a6.71,6.71,0,0,0,5.81,5.83,6.33,6.33,0,0,0,4.2-1.71,5.72,5.72,0,0,0,1.94-3.94l.06-1.4c.08-1.59.16-3.24.14-4.87q-.1-8.1-.24-16.19c-.11-7.21-.22-14.42-.29-21.63-.07-5.36,0-10.6,1.22-15.67a28.27,28.27,0,0,1,3.48-8.71c3.51-5.55,8.51-8.46,15.28-8.92a27.44,27.44,0,0,1,20.42,7c5.88,5.21,9.78,13,10.18,20.25a109.7,109.7,0,0,1-.6,17.72c-1,9.1-.79,18.32-.62,27.25V943a15.15,15.15,0,0,0,.63,4,4.55,4.55,0,0,0,5.08,3,4.25,4.25,0,0,0,3.86-3.49,33.49,33.49,0,0,0,.41-5.14c.11-5.2.15-9.54.15-13.67a31.15,31.15,0,0,1,1.7-9.28c2.33-7.49,7.11-11.19,15.06-11.63a59.1,59.1,0,0,1,15,1.44A57,57,0,0,1,1243.85,926a95.56,95.56,0,0,1,24.51,50.92,134,134,0,0,1-1.3,46.34c-2.12,10.55-8.75,16.32-19.71,17.16-9.48.73-19.16.84-28.52,1l-3.61,0-39.89.49c-37.95.45-77.19.92-115.79,1.56-39.95.66-80.56,1.65-119.84,2.62l-2.94.07c-15.47.38-30.65,2-42.14,3.43-11,1.36-22.92,3.07-37.46,5.38a161.07,161.07,0,0,0-21.3,5,58.62,58.62,0,0,0-10.54,4.37c-8.91,4.7-14.75,12.19-17.36,22.27A81.29,81.29,0,0,0,805.5,1106c0,1.84,0,3.7,0,5.58,0,12.71.61,26.71,1.88,43.5,1.48,19.59,3.47,45.37,5.75,71.09l.42,4.7c.93,10.37,1.9,21.09,2,31.68,0,.39,0,.78.05,1.17s0,.86,0,1.29a14.55,14.55,0,0,1-.18,3,13.27,13.27,0,0,1-2.8-.62c-22.18-6.54-40.22-15.9-55.15-28.62-16.06-13.68-27.93-30.81-36.28-52.35a208.11,208.11,0,0,1-10.86-41c-3.28-19.45-4.76-38.8-6.22-60.26-.72-10.52-1.57-21.2-2.4-31.53q-.48-5.88-.94-11.75c-.44-5.55-.93-11.83-1.51-17.93A116.31,116.31,0,0,0,692,993.59a47.71,47.71,0,0,0-6.12-11.19A31.16,31.16,0,0,0,667.37,970a57,57,0,0,0-20.21-1.4c-13.53,1.6-24.47,3.28-34.42,5.27-2.71.54-5.36,1-7.85,1.39-.55.09-.91,0-1.08-.77-.56-2.37-.93-4.21-1.22-6-4.51-27.69-15.57-53.57-33.79-79.11a74.36,74.36,0,0,0-14.73-15.58,45.58,45.58,0,0,0-17-8.67c-9.52-2.43-19.09-1.11-29.26,4-18.66,9.48-33,22.86-42.62,39.78-1.84,3.24-2.86,5-4,5.61s-3,.36-7.14-.15a173.59,173.59,0,0,1-25.88-5.19,234.37,234.37,0,0,0-36-7.58c-10.38-1.25-21.58-2.25-33.1-1.07A175.35,175.35,0,0,0,335,904.23C296.56,913.68,267.93,937,250,973.41c-6.25,12.66-10.8,26.82-13.9,43.3a213.65,213.65,0,0,0-2.4,60.94c2.72,27,8.06,50.4,16.32,71.44a129.49,129.49,0,0,0,13.52,26.1c6.36,9.28,13.06,15.58,21.06,19.84l1,.58.57.33c.67.39,1,.89.81,2.16,0,.18-.06.36-.09.54a2.87,2.87,0,0,1-.1.56c-2.54,9-3.21,18.23-3.53,26.06-.11,2.73-.21,2.75-2.59,3.15a63,63,0,0,1-13.25,1.24l-7.62-.29c-6.23-.23-12.67-.47-19-.9a62,62,0,0,1-17.65-4,42.63,42.63,0,0,1-23.73-21.72,78.9,78.9,0,0,1-6.17-17.77c-4.24-18.63-8-37.69-11.44-58.29-2.37-14.11-4.82-28.71-6.66-43.43-.29-2.32-.59-4.63-.88-7-1.37-10.8-2.79-22-3.69-33q-.54-6.4-1.12-12.8c-.76-8.55-1.55-17.38-2.12-26.08-.85-12.92-1.38-24.85-1.62-36.48-.42-19.84-.39-40.92.1-64.44a98.79,98.79,0,0,1,2.28-19.37A58.93,58.93,0,0,1,190,849.6a91.08,91.08,0,0,1,26.32-13.91,685.37,685.37,0,0,1,78.5-22.16c23.49-5.24,44.75-9.33,65-12.5q13.69-2.13,27.36-4.32c21.53-3.42,43.79-7,65.73-10.12,31-4.47,61.77-8.42,95.84-12.74,17.74-2.25,35.83-4.18,53.32-6l3.93-.42c42.21-4.5,79.77-7.69,114.84-9.76l41.47-2.45c18.26-1.17,38.12-1.58,62.51-1.29a86.13,86.13,0,0,1,19.89,2.58,41,41,0,0,1,9,3.32,25.72,25.72,0,0,1,11.67,12,48.53,48.53,0,0,1,4.36,14.94,143.4,143.4,0,0,1,1.57,18.95c0,6.27-.06,12.54-.07,18.81,0,10.5,0,21.36-.24,32C870.69,871.67,870.79,888.24,871.29,908.65Zm-44-409c2.69,0,5.62.06,9.24.19.78,0,.94.34,1,.91.09,2.08.12,4.14.11,6.11-.25,30.78-.89,121.29-.95,134.52,0,1.91-.06,3.45-.16,4.86,0,.32-.08.55-.68.62l-.25,0c-.51.07-1,.13-1.46.16l-.77,0c-1.15,0-2.34.1-3.5.09-14.41-.11-28.74,1.72-43.38,3.77q-5.85.82-11.7,1.61c-6.83.93-13.88,1.89-20.82,2.94-17.57,2.65-38,5.76-58.17,9.05-16.59,2.72-33.42,5.67-49.69,8.53l-5.87,1c-7,1.24-14.19,2.57-21.1,3.86l-10.6,2c-1.85.35-4.66.86-5.21.4s-.57-3.32-.58-5c-.16-28.83-1.24-141.6-1.56-168,0-.84,0-1.61,0-2.31s0-1.54,0-2.21a5.94,5.94,0,0,1,.34-2.78c.39-.39,2.42-.38,4.77-.36h2.28C644.24,499.65,786.9,499.67,827.33,499.68ZM472.14,643.49c19.6,7.18,37.79,18.09,55.61,33.34A195.33,195.33,0,0,1,543.14,691a2.7,2.7,0,0,1,.56.78,2.73,2.73,0,0,1-.9.43,124.65,124.65,0,0,1-19.12,4.22c-8.46,1.3-17.08,2.54-25.42,3.74q-8.44,1.2-16.88,2.44l-2.24.33c-4.13.6-8.4,1.22-12.54,2.25-12.19,3-24.52,6.31-36.45,9.49l-1.34.36a51.58,51.58,0,0,0-11.19,4.57c-10.81,5.82-17.64,15.08-20.28,27.53-.58,2.77-1,5.21-1.27,7.45-.73,6-4,9.74-10,11.4a83.61,83.61,0,0,1-8.33,1.7c-1,.18-2,.35-3.07.54q-3.12.57-6.23,1.09c-3.57.62-7.26,1.25-10.88,2-14.81,3.09-29.87,6.28-44.42,9.36l-18,3.82-10.29,2.16c-18.32,3.82-37.26,7.78-55.63,12.94a193.69,193.69,0,0,0-36.7,14c-12.14,6.25-21.9,13.7-29.83,22.78-9.16,10.49-15.56,23.48-19.57,39.7a168.5,168.5,0,0,0-4,25.29c-.8,8.89-1.1,17.75-1.1,26.47,0,10.08.4,20,.89,29.48.82,15.89,2.15,32.69,4.32,54.45,1.32,13.28,2.85,26.77,4.34,39.82q1.09,9.68,2.17,19.35c.21,1.85.38,3.81.51,6-.82-1-1.61-2-2.35-3.1a358.78,358.78,0,0,1-32.41-58.14A326.39,326.39,0,0,1,93.2,945.25c-3.92-20.54-5.77-37.59-5.77-53.48,0-.55,0-1.09,0-1.62q0-3.42,0-6.83c0-2.89,0-5.78,0-8.67a299.64,299.64,0,0,1,8.88-67.1c7.41-30.6,17.5-56.87,30.86-80.31,22.93-40.25,56.2-69.45,98.89-86.81,16.7-6.78,35.15-11.78,56.38-15.26a400.92,400.92,0,0,1,58.29-4.92C387.3,620.55,430.27,628.15,472.14,643.49Z" transform="translate(0 -452.41)"/></svg>