<svg xmlns="http://www.w3.org/2000/svg" id="Layer_1" data-name="Layer 1" viewBox="0 0 864 1728"><path d="m653 607.5 211-263.76-176.26 104 110.39-289.47-176.78 155.9 1.52-204.56-133.52 179.86L346.54 0l-10.8 267.87-99.58-79.51 12.35 172.14-155.16-98 138.18 222.26L39.62 350.38l168 276.42-207.6-97 148.14 177.28-88-46.32 172.91 250.11.5.77c2 5.49.4 10-4.16 15.8-32.76 41.81-64.9 84.11-97.68 125.9a43 43 0 0 0-9.81 28.4q.56 231.78.24 463.57c0 10.42 2.4 18.83 8.82 27.06 31.24 40.07 61.73 80.71 93.14 120.64 17.57 22.35 37.84 40.4 70 33.51 6.06-1.3 12.67-.09 19-.09 108.1.07 216.2.69 324.3-.17 28.43-.23 53.23-11 71.54-35.31 31-41.07 63.09-81.25 95.14-121.46a32.82 32.82 0 0 0 7.65-22q-.36-238.72-.11-477.46c0-8.38-1.84-14.88-7.53-21.77-31.21-37.84-61-76.85-92.63-114.34-11.51-13.64-11.36-22.65-2.12-36.91l.4-.65L843.67 685.5l-135.08 48.63 154.38-240.84Zm88.77-161.33L522.54 708.62l-60.21-55.58Zm-318 327.29 15.41-82.59 90.31 57.12 10 55.58-20.85 54Zm78.7 110.41-110.38 5.4 3.86-110.4Zm85.69-677 3.08 148.21-52.49 34.79-35.5-68.7Zm134.31 59.44L628.3 506.38 457.7 610.59l-2.31-112.72ZM379.74 159.78l73.33 121.2-40.91 67.89-49.4-44Zm-39.37 150.53-5.4 107.3-55.58-31.65-6.95-129.69Zm-144.35 54.81 223.85 143.57 8.49 101.12-111.92-50.17Zm-62 94.62 283.54 195.62-12.35 84.91-152.07-97.26Zm-12 170 257.75 125.2-11.58 56.35-113.47-33.2Zm245.37 220.13 1.54 40.14-111.16 4.63-101.9-151.28Zm61.28 98.21c-22.57 29.88-45.62 59.4-68 89.39-6.13 8.21-10 9-16.76.57-23.45-29.24-47.53-58-71.35-86.89-2.14-2.6-5.18-4.91-3.86-8.87 1-2.82 5.88-2.81 9.1-2.83l143.56-3.49c3.87 0 10.39-1.27 11.26 1.89 1.47 5.4-1.82 7.42-3.95 10.24Zm23 8.73c5.61-7.48 9.18-6.22 14.3.23q36.54 46 73.56 91.64c3.94 4.88 5.81 8.72 1 14.82-25 31.63-49.53 63.65-74.26 95.52-2.05 2.63-3.38 6.24-8 6.38-3.63-.25-5.28-3.63-7.43-6.17-24.59-29.06-48.9-58.34-73.76-87.14-5.75-6.67-5.24-10.94 0-17.69q37.89-48.33 74.59-97.53Zm-94.8 132.53c24.71 31.18 50 61.94 74.91 92.94 1.75 2.18 2.73 5 4.39 8-1.91 3-3.53 6-5.59 8.64-23.57 30.62-47.46 61-70.69 91.87-7.15 9.51-11.09 10-19 .11-22.74-28.33-46.47-55.91-70.49-83.16-7.11-8.08-7.42-13.48-.63-22 24.84-31.11 48.92-62.82 73.13-94.44 4.28-5.53 7.17-10.53 13.97-1.96m-33.81 226.93c1.38 1.73 2.11 4 3.36 6.42-2.12 3-4 5.81-6.07 8.5-21.48 27.88-43.35 55.54-64.48 83.68-6.11 8.15-9.75 9.23-16.69.78-21.27-25.86-43.07-51.3-65.08-76.54-6.84-7.85-7.26-13.47-.28-22.11 22.12-27.36 43.06-55.66 64.58-83.5 3.93-5.09 7.21-13.82 15.27-3.72 23.05 28.92 46.3 57.64 69.39 86.49m-49.35 127c23.65-29.14 46.46-59 68.84-89.12 6.43-8.65 10.2-8.53 16.52-.52q33.75 42.84 68.2 85.11c4.67 5.75 5.76 10.22.74 16.56-23.25 29.38-46.12 59.07-69.13 88.65-2.41 3.09-4 7.29-10.17 7-1.32-1.42-3.27-3.39-5.05-5.49-23.11-27.28-46-54.69-69.37-81.78-6.14-7.08-7.42-12.01-.58-20.38Zm103-109.58c-5.38-6.2-5.13-10.36-.39-16.4q37.41-47.68 74.24-95.82c5.66-7.42 9.25-10.23 16.49-1 24.2 30.92 49.15 61.23 74 91.62 4.1 5 3.53 8.78-.26 13.63-24.9 31.86-49.56 63.9-74.4 95.81-2 2.55-4.8 4.48-7.69 7.12a93 93 0 0 1-6.86-6.54c-25.03-29.44-49.8-59.18-75.15-88.39Zm112.51 114.32q36-45.35 70.87-91.5c5.46-7.22 8.6-9.29 15.16-.88 23 29.55 46.74 58.55 70.15 87.8 1.74 2.16 3.16 4.58 4.92 7.16-2.3 3.41-4.07 6.32-6.14 9-22.45 29.26-45.23 58.26-67.27 87.82-7 9.38-11.52 8.51-18.42.16q-34.14-41.27-69.24-81.74c-5.77-6.6-5.38-11.1-.05-17.79Zm110.27-119.91c-6.44-7.36-5.52-11.8.19-19q36.49-46.08 71.63-93.24c7-9.47 11.26-10.43 18.91-.49 22.51 29.19 45.89 57.7 68.89 86.52 2.48 3.1 4.73 6.39 6.47 8.76.14 5.15-2.67 7.4-4.76 10.1-23.7 30.51-47.68 60.81-70.85 91.71-7.31 9.75-11.55 9.11-18.92.1q-35.07-42.8-71.58-84.43Zm49.87-129.09q-38.17 49.26-76.28 98.56a29.8 29.8 0 0 1-4.55 4.06c-4.17-.13-5.6-2.7-7.47-4.9-25.44-29.94-50.86-59.9-76.54-89.62-4.84-5.58-4.07-9.55.17-15 25.58-32.8 51.08-65.67 76.08-98.92 5.9-7.85 8.68-6.23 13.94.44q36.47 46.23 73.87 91.74c4.09 5.05 4.56 8.75.76 13.67Zm-87.1-162.55c-23.46-29.17-47.71-57.73-71.41-86.71-2.6-3.18-7.62-9.36-4.85-11.55 2-1.59 7.49-1.66 11.37-1.68l148.75-3.11c3.71 0 9.83-.69 10.73 2.26s-2.41 6-4.47 8.56c-24.74 30.41-49.61 60.72-74.3 91.17-5.15 6.36-8.95 9.66-15.84 1.09Zm-400.28 25c24.95-31.68 49.32-63.82 73.75-95.91 4.42-5.81 8-9.89 14.37-1.87 25.08 31.49 50.44 62.76 75.65 94.14 1.41 1.74 2.49 3.76 4.08 6.19-2.55 3.95-4.74 8-7.5 11.53-23.27 30-47 59.76-69.76 90.18-6.76 9-10.18 9.86-17.65.69-23.64-29-48-57.43-72.53-85.68-6.11-7-6.25-11.86-.43-19.26Zm-12.56 49c4.92-2.61 6.32 1 8.47 3.64q33.13 41 66.5 81.83c4.85 5.92 7.53 10.67 1.72 18-24.57 31.12-48.63 62.63-72.88 94l-3.81-1.28Zm1.45 442.72v-196.81c24.26 24.38 42.47 50.66 62.6 75.26 17.64 21.53 17.5 22.1.75 44.84-19.34 26.28-39.27 52.12-58.95 78.15Zm95.31 123.42a19.5 19.5 0 0 0-2.89-5.48c-22.67-27-45.22-54-68.44-80.48-6.4-7.29-5.43-12 .12-19q33.32-42.08 65.49-85c6.66-8.89 10.88-11.69 19.05-1.15 21.59 27.83 44 55 66.45 82.16 4.68 5.67 4.08 9.7-.19 15.09-23 28.94-45.62 58.12-68.45 87.17-2.07 2.59-3.29 6.27-11.18 6.69Zm23.1 20c12.74-21.51 30.14-36.76 43.74-55 7.58-10.12 17-18.92 24.1-29.35 8.83-13 15.15-15.49 26-1.14 21.51 28.43 44.72 55.57 69 85.46Zm192.06-11.24c-7.68-.58-9-4.11-11.16-6.66-22.43-26.32-44.66-52.81-67.43-78.82-6.4-7.32-7.3-12.72-.87-20.79q34-42.63 66.67-86.31c6.31-8.41 10-10.57 17.54-.87 21.53 27.79 43.94 54.89 66.11 82.18 3.93 4.84 6.52 9.31 1.88 15.27q-35.62 45.74-71 91.69a10.4 10.4 0 0 0-1.78 4.28Zm17.53 11.51c28.11-31.24 53.48-59.48 78.94-87.63 3.5-3.87 7-8.05 12.43-1.57 24.25 29 48.72 57.78 75.26 89.2Zm271.53-108.38c-22.81 29-45.29 58.34-67.92 87.51-2.05 2.63-3.67 6-10.2 5.84-1-1.38-3-4.24-5.24-6.88-21.93-26-43.67-52.22-66-77.87-6.75-7.76-8.09-13.07-.93-22 22.82-28.28 44.71-57.32 66.53-86.39 6.29-8.38 10.11-10.09 17.52-.48 21.49 27.86 43.89 55 66.3 82.14 5.41 6.66 5.03 11.7-.03 18.14Zm28.72-40.89c-28-30.93-54-59.86-80.29-88.53-4.33-4.74-4.9-8.47-.77-13.46 26-31.46 51.85-63 81.06-98.6Zm5-468.08v195.47c0 2.72 1.23 6.15-2 7.77-4.37 2.19-5.89-2-8-4.38-24.14-27.22-48.33-54.4-72.29-81.78-3.89-4.43-9.61-8.53-3.54-16.19 26.86-33.83 53.31-68 79.9-102q3.01.54 5.99 1.12ZM761 1041.87c1.74 2.17 2.89 4.81 4.59 7.71-1.92 3.07-3.49 6.07-5.51 8.72-24.18 31.64-48.53 63.14-72.56 94.88-5.13 6.79-8.25 7.39-14.14.27-24.26-29.34-49-58.26-74-87-5.91-6.82-6.7-11.8-.72-19.32 24.41-30.73 48.33-61.84 72-93.09 6.41-8.45 10.27-12.11 18.74-1.08 23.24 30.13 47.71 59.27 71.6 88.91m10.1-300-99.58 137.41-145.89 4.59 30.11-64.84ZM653 765.03l-88.77 10-17-77.2 224.64-118.89Z"/></svg>