<svg id="Layer_1" data-name="Layer 1" xmlns="http://www.w3.org/2000/svg" viewBox="0 0 1728 1728"><path d="M991.87,1856c-22.85-2.6-43-10.71-63.85-16.25-37.64-10-74.82-21.74-112.39-32-8.25-2.27-13.53-6.54-18.22-13.19-22.45-31.81-44.88-63.64-67.9-95-13-17.65-35-20.11-53.2-28-106.7-45.89-214-90.44-321.06-135.48-7.94-3.34-13.41-8.26-16.15-17.42-38.63-129.05-75.37-258.74-117.91-386.5-14.33-43-9.7-76.86,11.14-114.55,25.45-46,46.29-94.6,69.54-141.86,3.49-7.09,4-12.41.63-20C244.82,724.21,187.67,592.44,130,460.89c-3.4-7.74-2.54-13.3,1.49-20C178.44,363.18,225,285.24,272.1,207.61c14.48-23.88,26.82-49,43.81-71.46,7.58-10,12.64-10.4,22.79-3.19,69,49,139.6,95.94,207.39,146.59,28.93,21.61,54,26.56,89.28,15.69,113.8-35.06,229-65.44,343.4-98.71,21.23-6.17,38.62,2.89,56.94,8q169.17,47.54,337.88,96.72c16.79,4.89,29.35,3.64,44.38-7.14,72.33-51.89,145.82-102.17,218.89-153,1.48-1,2.84-2.22,4.37-3.17,22.19-13.73,22.2-13.73,35.71,8.76q86.32,143.72,172.72,287.4c6.38,10.6,8.78,19.27,2.9,32.59C1806.77,570.35,1763,674.89,1717.15,778.5c-11.09,25-21,50.7-33.71,75-4.32,8.25-4,15.15,0,23.44,31,63.24,61.46,126.74,92.44,190,3.16,6.46,3.46,11.67,1.36,18.57q-65.23,214.61-129.72,429.41c-2.79,9.29-7.38,15-16.58,18.82q-128,53.65-255.64,108.12c-32.32,13.72-64.17,28.63-97,41.08-16.05,6.1-23.86,18.8-32.87,30.92-19.19,25.82-37.92,52-56.45,78.3-4.65,6.6-9.57,11.19-17.76,13.51-56.16,15.91-112.17,32.4-168.26,48.58C999.07,1855.38,994.83,1855.57,991.87,1856Zm222.18-365.13c-22.77,25.74-42.94,48.13-62.61,71a58.09,58.09,0,0,1-32.78,19.81c-32,7.28-63.38,16.79-95.28,24.26-9.58,2.24-13.92,5.9-12.6,15.5,1.29,9.35-6.88,20.91,9.87,26.14,29,9,58.61,17.79,85.45,31.57,40.15,20.63,77.14,18.42,114.42-4.7,4.07-2.52,8.19-5.31,12.68-6.69,8.87-2.72,11.45-9.15,13.18-17.36q26.19-124,53-248c2-9.42,1.37-17.3-3.41-25.72-20.71-36.42-41.62-72.75-61.18-109.79-12.46-23.61-30.83-44.84-34.49-72.32-17-127.8-33.48-255.68-50.13-383.53-3.88-29.74-9.18-59.37-11.17-89.23-2.13-19.48,15-45.09,27.28-63.47,1.86-2.8,3.69-5.6,5.48-8.44,1.93-3.06,7.27-10.85,7.8-11.71q90-147,180.22-293.91c6.35-10.3,7-14.26-7.18-13.58-41.92,2-83.89,3-125.82,4.73-99.44,4-198.73,13.51-298.42,9C831.89,340,735.43,335.34,639,331c-5-.22-11.67-3.42-14.89,2.19-3.48,6.07,2.1,11.19,5.07,16.05,19.91,32.52,40.11,64.86,60.06,97.36q76.65,124.91,153,250c3.58,5.86,8.55,11.28,7.45,19.58-8.64,65.13-16.84,130.32-25.35,195.46-10.58,81-20.86,162-32.36,242.82-2.9,20.39-1.13,42.34-11.16,60.89-29.73,55-60.66,109.43-91.35,164-3.78,6.72-4,12.73-2.36,20.3,14.73,66.72,28.57,133.64,43.38,200.34,4.94,22.26,1.57,50.19,18.41,65s42.82,19.69,64.62,29.26a26.62,26.62,0,0,0,20.88.8c43.65-16.07,87-33.12,131.11-47.72,15.4-5.09,9.94-15.07,11-24.12,1.08-9.52-3.9-14-13-16-21-4.81-41.63-12.66-62.88-15-40.1-4.51-67.46-26.48-90.31-57.31-10.46-14.1-25.66-24.6-34-44,46.38,5.89,90.53,10.92,134.49,17.22,48.1,6.88,95.79,11.08,144.47,3C1106.35,1502.64,1158,1497.85,1214.05,1490.9Zm536-411.22c-1.24-3.22-2.48-7.21-4.27-11-22.44-47-44.77-94.05-67.5-140.91q-87.42-180.12-175.12-360.11Q1452.48,463.48,1402.24,359c-5.35-11.18-9.24-10.42-15.27-1-9.32,14.58-19.48,28.63-28.54,43.36-55.34,90-109.44,180.71-166.25,269.72-19,29.69-21.09,44.67-1.81,84.25.14.34,1,2.16,1.62,3.2q98.05,168.46,196.16,336.92,80.74,138.43,161.8,276.67,30.77,52.54,61.92,104.86c2.93,4.89,6.43,11.93,12.68,11.13,6-.77,5.07-8.74,6.55-13.55,11.79-38.35,23-76.87,34.7-115.25q39.83-130.72,79.88-261.37C1747.42,1092.29,1748.45,1086.36,1750,1079.68ZM593.9,347.8c-6.37,10.06-12.26,17.63-16.35,26.08Q495,544.22,412.88,714.78q-85,176-170.37,351.75c-4.33,8.88-4.74,15.93-1.9,25.27,35.33,115.87,70,232,105.25,347.85,5,16.54,7.74,34.36,20.49,49.8,68.79-117.29,137-233.3,204.91-349.45Q691.33,934.67,811.32,729.29c6-10.18,6.51-17.33.25-27.46C739.26,584.8,667.4,467.49,593.9,347.8Zm1009.71,1168c-7.2-11.14-13.62-20.38-19.33-30q-53.85-91.1-107.43-182.36c-3.36-5.7-5-11.66-14.48-5.5-44.6,29.08-84.28,64.66-127.64,95.33-4.12,2.92-4.92,7.71-6,12.57q-25.85,116.67-52.16,233.26c-.91,4.07-3.06,8.44.92,11.66,4.26,3.46,7.79-.88,11.36-2.37,29.78-12.4,59.47-25,89.2-37.53ZM710.82,1650.69c-.76-6.1-.89-9.06-1.52-11.91-17-76.53-34.2-153-50.83-229.61-2.3-10.58-9.33-16.29-16.8-22-35.18-26.84-70.58-53.37-105.81-80.15-18-13.66-19.65-13.85-31.54,6.14q-53.86,90.52-106.94,181.51c-12.83,22-12.1,22.4,11.38,32.16,54.35,22.57,108.34,46,162.93,68C617.3,1613.14,661.09,1636.13,710.82,1650.69Zm498.57,60.77c-29.48,13.16-58.59,18-87.59,1.5-27.77-15.8-55.93-13.37-84.25-2.34-30.84,12-61.5,13.4-92.38.24-4.36-1.86-9.57-1.83-13.81-3.86-22.59-10.85-44.41-5.38-65.29,4C838.23,1723.52,811,1730,783,1712.14c-.55-.35-2,.75-3.87,1.51,8.09,18.34,22.23,32.62,32.22,49.44,7.37,12.4,17.78,18.61,30.7,22.29,33.72,9.62,67.14,20.53,101.28,28.29,20.45,4.65,39.68,17.7,62.31,11.07,37.77-11.08,75-25.67,113.61-31.83C1168.51,1785.05,1185.59,1746.5,1209.39,1711.46Z" transform="translate(-127.92 -128.03)"/></svg>