<svg xmlns="http://www.w3.org/2000/svg" id="Layer_1" data-name="Layer 1" viewBox="0 0 1728 1440"><path d="M1330.68 738.05c-.38 38.11-1.19 76.27 14.85 112a144 144 0 0 0 6.85 12.77c11.36 19.7 11.29 19.56-6.27 34.11-4.93 4.09-8.27 5.68-14.69 1.2-34.67-24.17-69.87-47.51-104.93-71.08-3.15-2.12-6.66-3.64-9.85-5.69-9.6-6.16-15.23-3.34-19.23 7.54-17.57 47.82-35.5 95.49-53.42 143.17-5.45 14.52-3.76 30.08-6.39 45.07-6.68 38-22.75 70.6-46.11 100.11-42.13 53.23-72.92 112.48-85.51 181-1.6 8.74-5.54 12.23-14.55 11.94-16.86-.55-21.16 4.38-22.52 22.37-.26 3.46-.75 6.89-1 10.34-2.53 29-6.62 22.93-25.56 14.39-13.62-6.14-21.58-5.64-29.53 9.24-11.7 21.87-25.82 42.38-39.35 63.15-9.13 14-15.06 13.76-23.14-.61-13.07-23.23-26.63-46.05-42.26-67.59-6.47-8.93-11.89-9.42-21.44-5.82-24.65 9.27-24.15 8.51-28.59-18.39-2.31-14-1.45-30.83-23.25-32.56-8.37-.66-10.33-15.34-14.51-23.75-23.69-47.72-49.13-94.48-69.89-143.84-8.58-20.42-22.94-38.15-34.21-57.39-21.92-37.44-28.54-80-37.46-121.9-9.61-45.18-27.38-87-51.55-125.78-6.54-10.5-12.61-17.27-26.84-6.66-33.28 24.82-68.64 46.57-102.6 70.42-14.2 10-20-2.85-28.25-9.12-9.2-7-1.56-13.2 2.25-18.67 14-20.13 18.4-43.58 21.88-67.29 5.42-36.88 2.1-74.06 2.84-111.1.07-3.55 1.86-8.38-3-10.33-4.48-1.8-7.84.45-11.42 3.57-71.18 61.87-149 60.17-228.69 22.92C86.87 674.69 46.45 618.87 22.04 548 5.81 500.85-.64 453.27.04 403.47c.83-56.55 16.05-108.6 41.49-157.23 39.82-76.15 95.32-137.62 167.5-181.48 47.37-28.79 98-48.5 152.46-58.09a443.5 443.5 0 0 1 113-4.84c68.1 5.55 131.74 27.37 191.1 63.75a472.8 472.8 0 0 1 138.55 128.71c19.32 26.88 34.52 56.36 47.78 87 2.42 5.58 4.23 13.79 11.44 13.56s8.64-8.79 10.88-14.18c24.32-58.46 58.76-109.55 103.38-152.82q93.3-90.46 218.3-118.08c44-9.8 88.53-11.66 132.7-8 87.24 7.25 166 39.8 235.66 95.53q84.1 67.24 128.69 167.36c59.37 133.21 44.5 288.36-54.1 393.67-49.26 52.62-110.13 79.43-181.71 73.52-39.32-3.24-74.3-19.76-106.61-43-5.41-3.89-10.63-13-17.66-8.81-6.06 3.58-1.9 12.72-2.11 19.36-.38 12.88-.1 25.77-.1 38.65m-547.4-183.38c6-4.38 8.79-.57 11.91 2.24 18.62 16.73 37.95 32.74 55.63 50.41 10 10 14.82 9.28 23-1.91 23-31.45 46.31-63 84.25-78.67 8.44-3.48 3.75-7.83.93-12-15.4-22.9-30.26-46.19-46.44-68.53-11.61-16-28.38-22.53-48.33-20.38-17.48 1.88-34.3 6.69-51.1 11.47-73.74 21-141.66 56-211.07 87.43-13.78 6.24-23.06 14.92-27 30.28-8.55 32.92-15.94 65.86-19.75 99.86-10.05 89.54 16.34 166.51 75.31 233.76 30.91 35.25 66.29 66.08 97.32 101.14 7.81 8.83 11 2.33 12.69-4.76 6.64-27.22 11.81-54.8 20.58-81.5 4.56-13.86 4.17-27.89.06-41.83-8.56-29.06-29.34-48.91-51.6-67.42-9.61-8-20.41-14.36-34.78-17.82 16.63 46.6 33.54 91 44.57 137.47-3.57.26-4.85-2.07-6.07-3.9-29.89-44.78-60.11-89.36-89.22-134.65-7.12-11.08-12.68-20.5-29.33-12.3 35.63-46.69 36.19-94.46 15.65-144.44-2.42-5.89-8.6-14-4.82-17.83s12.63.33 19.26 2.07c49.07 12.93 83.11 44.69 108.58 86.85 11.1 18.38 20.9 37.55 31.3 56.36-5.08-53.48-28.1-99.24-59.64-141.46 20.27 11 37.22 24.92 50.94 42.59 51.48 66.29 59.55 141.32 43 220.59-15.07 72-42.13 141-54.89 213.77-4.08 23.25-1.59 42.28 4.67 64.86 11.1 40.1 46 58 96.73 61.88 6.22-1.13 14.67 1.08 17.39-6.4 2.63-7.23-5.13-10.9-9.57-14.2-17.5-13-33.27-27.83-48.74-43.06a208.5 208.5 0 0 1-29.43-36c-5.27-8.21-3.24-16.37 2-23.66 5.06-7 11-1.67 16.31 0 26.78 8.17 49.17 23.42 68.24 43.57 6.66 7 10.16 8 11.55-3.12 2-16.29 4.76-32.49 6.67-48.8 3.2-27.26 6.9-54.87 2.79-82-7-46.2-20.81-91.09-22.53-138.46-1.84-50.77-5.2-101.61-13.6-151.9-5.4-32.39-9.26-65.1-23.93-95.18-9.97-20.45-23.49-38.22-39.49-54.42m-398.41 50.2c-1.45-.75-1.95-1.22-2.22-1.12-2.13.85-4.23 1.78-6.31 2.73-18.65 8.56-37.67 14.68-58.75 12.53-54.93-5.62-96.53-33.94-130.69-75.44-33.91-41.19-42.17-89.87-34.13-140 12.46-77.63 60.84-132.37 125.8-171.81 72.16-43.81 151.38-52 233-34 63 13.87 118 44.65 167.42 85.82a453 453 0 0 1 91.23 103.16c4.21 6.53 7.91 10.89 16.94 7.92 16.9-5.54 18.63-7.87 10.14-24-32.27-61.16-73.3-115.79-121.78-165.2-40.34-41.07-87.58-71-141.38-90.54-37-13.47-75.63-19.49-115-22.57-57.47-4.5-112.77 3.89-164.87 27.6-70.15 31.92-125.12 81.85-164.12 148.72-43.28 74.25-58.98 153.2-38.4 237.62 16.54 67.85 49.13 125 113.55 158.31 55.14 28.55 111.38 33.1 167 1.13 24.34-13.99 43.8-33.05 52.57-60.86m977.8-3c-.56 3.29 1.22 4 2.72 5.18 33.58 26.65 70.81 27.47 109.51 14.86 54.61-17.81 87.84-57.79 109.8-108.62 19.74-45.71 23.17-93.4 17.35-142.53-6.66-56.15-27.06-106.25-64.44-148.43-48.53-54.77-109.7-86.84-182.3-98.09-89-13.79-172.09 2.43-249.21 47.54-88.42 51.72-143.6 130.41-177 225.7-1 2.77-4.1 5.6-1.09 9.13 10.2 12 25.69 11.41 35-1.81 40.6-57.82 86.78-109.8 148.15-146.84 47.75-28.82 98.53-49.3 154.28-52.71 75.48-4.62 143.53 17.86 204.68 62.46 71.94 52.47 108.1 146.42 82.6 231.53-16.83 56.17-50.69 96-111.13 108.2-26.83 5.37-52.27-4.29-78.9-5.63Zm-1026.5-79.91c-4.14-1.56-5.58.55-7.34 2-16.14 13.79-34.63 15.78-54.66 11.3-45.8-10.25-77.44-66.9-67.2-118.76 8.51-43.07 35.33-73.12 71.48-94 46.18-26.64 96.13-37.84 150.29-30a233.55 233.55 0 0 1 98.92 38c51 34.5 92.06 78.72 120.34 133.94 3.65 7.13 7.92 8.56 14.67 5.25 18.11-8.9 36.31-17.65 54.34-26.7 5.63-2.83 6.92-5.82 3.93-13.27-21.73-54.21-58.66-96.59-104.2-131.06-80-60.55-169.61-86.72-267.76-56.57-86.31 26.52-144.64 83.92-161.83 175.71-8.15 43.54 15.47 111.91 71 130.05 32.43 10.6 63.26 2.36 78.02-25.89m440.78 719.91c5 8.94 7.64 18.08 13.53 25.6s5.32 24.22 22.62 14.94c.88-.47 4.65 4 6.79 6.38q18.62 21 37.06 42.07c2.18 2.48 4 5.72 8 4.52 4.69-1.41 4.44-5.5 4.44-9.33v-55.5c0-26.93-5.68-34-32-39.46-2.31-.49-4.7-.55-7-.93-58.53-9.64-99.67-48-103.6-105.76-1.06-15.49 0-28-3.52-50.17-8.14 21.8-15.19 40.5-22.07 59.26-2 5.4.44 10.1 3.06 14.74 17.68 31.19 35.22 62.47 52.95 93.63 8.83 15.45 8.97 15.37 19.74.01m296.21-758c3.25-5.13 6.17-9.38 8.73-13.83 22.89-39.73 48.83-77.16 84-107.21 50.72-43.41 106.89-72.69 176.52-67.14 63.46 5.18 114.65 32.27 153.29 83.18 3.18 4.18 4.83 10.11 12.34 13-6.55-24.5-19.46-43.35-37.83-57.56-62.88-48.64-134.6-62.57-210.74-44.72-90.34 21.19-153.7 76.79-190.2 162.56-4.73 11.12-4.79 20.9 3.89 31.8ZM538.93 586.58c-.22-7.05.72-14.18-1.67-21.11-1.27-3.68-2.78-6.08-7-3.46-23 14.19-45.23 29.2-57.38 54.76-9.67 20.35-11.59 42.66-15.47 64.37-6.73 37.65-12.31 75.51-18.23 113.31-.46 2.94-2.34 7 2.25 8.47 4.1 1.32 5.16-1.61 6.78-5 12.51-26.22 25.66-52.09 36.86-79 10.55-25.32 20-51.15 35.93-74.15 11.79-16.97 19.27-36.52 17.93-58.19m923.88-485.84c133.51 84.5 214 202.84 230.68 362 32.83-134.18-117.14-345.16-230.68-362M298.25 576.8c41 27.1 75.45 14.76 96.21-22.4 6.1-10.93 9.64-22.36 12.54-34.09 7.66-30.93-8.43-66.19-36.47-79.15 3.61 16.71 7.53 32.58 10.39 48.64 6.77 38-7.4 65.08-40.11 76.05-13.24 4.44-27.1 7.02-42.56 10.95m341 369.41c-1.15 12.79-1.58 24.94-3.44 36.87-5.53 35.33 5.67 62.45 36.75 81.46 8.86 5.41 8.89 2.33 9.06-5.21a212.6 212.6 0 0 0-7-57.14c-5.57-21.6-13.68-42.76-35.39-55.98Zm415.79-352.61c-52.83 24.21-76.57 69.71-90.6 122.28 32.85-38.75 64.78-78.2 90.58-122.28Zm60.83 263.92a28 28 0 0 0-3.72 3.18c-30.73 37.08-69.82 64.45-108.31 92.36-9 6.49-14.36 14.69-19.45 23.68-1.91 3.39-3.11 8.09.21 10.53 4.07 3 6.33-1.92 9.14-4.19 28.33-22.84 54.65-48 80.64-73.32 15.82-15.48 31.62-31.46 41.49-52.24m-198.62-77.26c-15.95 75.32 9.36 143.74 33.86 212.33 1-3.41 1.54-6.81.87-9.94-6.42-30.3-10.57-61.15-20.31-90.64-12.06-36.42-15.88-73.73-14.46-111.75Zm235.93-155.77c-2-.49-2.72-.84-2.85-.68-2.37 2.91-4.86 5.75-6.93 8.86-18.45 27.81-23.81 56.92-8.3 87.91 1 1.93 2.76 4.5 4.49 4.77 3 .47 3.14-2.62 3.39-5 3.36-32 6.77-64.04 10.16-95.86Zm63.22-37.48 44.2 88.5c3.33-38.55-8.01-69.79-44.24-88.5Zm-169.58 97.7c-13.93 13.52-24.43 27.6-30.76 44.63-.83 2.23-2.16 4.51-.63 6.64 1.86 2.6 4 .36 6.24 0 25.7-4.8 37.29-27.04 25.11-51.27Zm57.42 85.79c-35.73-4.59-64.63 10.12-91.13 31.38 30.59-9.6 61.88-17.25 91.09-31.38Zm-425-86.93c-7.44 27.73 2.13 47.76 23.28 53.37 3.18.85 7.84 2.26 9.33-.44 2.38-4.31-1.88-6.19-5.48-7.78-5.16-2.27-7.15-7.4-9.62-11.88-5.61-10.17-10.88-20.53-17.54-33.27Zm683.38-217.84c-20.68 27.62-12.49 74.43 16 83.12-24.81-25.11-26.17-53.11-16.03-83.12Zm-287.75 571.68c14.06-14.35 15.79-36.61 5.57-57.32-1.88 18.99-3.65 37.11-5.57 57.32"/></svg>