<svg xmlns="http://www.w3.org/2000/svg" id="Layer_1" data-name="Layer 1" viewBox="0 0 864 1152"><path d="M454.99 482.55c9.41-2 16.94 1.88 23.42 9.4 5.12 5.94 11.67 10.68 15.52 17.69 1.43 2.61 3.66 3.34 6 2.5 16.14-5.67 31.18-1.09 46.08 4.68 9.59 3.72 19.27 7.25 28.25 12.36a29.5 29.5 0 0 0 9.47 3.24 648 648 0 0 1 88.14 23c2.72.9 5.45 2.2 8.24 2.36 13.84.82 20.58 9.61 25.16 21.15 5.54 14 6.15 28.75 6.91 43.36 1.28 24.48 4.77 48.61 9.35 72.64 3.6 18.89 4.08 38.21 8.06 57.06.93 4.42-.51 9.14-2.82 13a32.64 32.64 0 0 0-4.37 22.39c3.24 23.39 1 47 1.59 70.49.15 6.28 1.45 11.48 6.15 16 5.27 5.1 7.19 12.23 9.67 18.86 4.25 11.35 11.88 18.32 23.24 23.55 14.45 6.64 28 15.28 43.12 20.61 14.21 5 28.57 9.72 43.84 10.32 4.63.19 6.63 2.38 10.36 4.24 4 2 4.7 7.89 1.87 10-3.69 2.77-7.35 10.93-7 15.38.5 5.67-3.65 7.49-8.78 8.16-10.21 1.33-17.36 3.1-27.57 4.46-4.09.54-5.74 2.37-5.66 6.51.19 10.22.1 84.44 0 94.66-.11 21.36-10.87 33.42-32.15 36.92-14.68 2.42-29.39 4.54-44.22 5.53-16.67 1.12-32.79-4-49.3-4.8-24.95-1.15-49.82-.23-74.79.84-19.5.83-35.27 9-51.74 16.55-10.38 4.73-20.75 7.15-32 6-27.77-2.76-55.66-2-83.49-2.95q-72.69-2.37-145.42-4.08c-13.42-.3-26.87 1.14-40.31 1.22-12.28.07-24.35-1.41-35.57-7.13a32.85 32.85 0 0 0-19.68-3.09 24.41 24.41 0 0 1-20.69-5.94c-8.14-7.51-17-6.14-25.67-4.71-17.32 2.85-34.73 4.39-52.2 5.63-11.8.83-16-1.5-21.18-11.88-2.9-5.76-5.65-11.81-10.4-16.16-17.29-15.85-23.58-108.88-29.38-130.35-8.1-30.06-12.38-60.84-18.26-91.31-6.55-34-16.4-67.2-24.06-100.92C.65 770.9.29 761.67-.12 752.42c-.21-4.65 1.91-8.16 5.22-11.23a102 102 0 0 1 21.42-15.49c6.09-3.24 10.2-7.48 10.13-15 0-3.46 1.57-6.92 2.24-10.41.54-2.8 1.31-6-.59-8.32-8.24-10.29-8.37-23.56-13.4-35-12.58-28.52-11.11-58.34-9.29-88.26.89-14.72 1.57-29.18-4.69-43.38-5.57-12.64 2.68-23.51 8.13-33.88 5-9.51 8.66-18.92 8.7-29.58.06-15.27 1.14-30.74 6.74-44.78 4.71-11.8 10.61-23.2 14.26-35.45 5-16.55 8.67-33.51 17.7-48.61a10.5 10.5 0 0 0 1.24-4.81c.72-21.39 12.63-37.59 24.52-54.12 4.28-6 6.23-13.75 8.35-21 8.55-29 29.65-45.3 57-54.57 9.84-3.33 17.66-9.41 26.21-14.44 7.09-4.18 14.36-6.79 22.32-6.86 7.52-.07 13.94-2.62 20.51-5.71 9.65-4.54 18.56-10.45 29.91-11.53 9.22-.87 13.06-8 9.48-16.46-4.51-10.72-2.74-20.25 2.58-29.85 2.34-4.22 2.07-8-.55-12.52-4.77-8.27-2.26-17.61-1.91-26.52.39-9.67 4.49-18.61 6-28.19 1.88-12.21 7.57-23.52 21.14-28.06a5 5 0 0 0 2.26-1.66c9.9-13.47 25.08-13.4 39.52-14.92 5.68-.59 11.38-.18 17.13-1.43 7.94-1.73 15.63 1.2 23.29 3.16 23.2 5.92 41.45 19.79 56.26 37.42 6.57 7.8 9.44 19.06 10.65 29.59.6 5.13.92 10.29 2.07 15.36a29.58 29.58 0 0 1-2.86 21.69c-4 7.63-4.15 17.25-5.92 26-.24 1.15.37 2.8-.24 3.49-9.82 11.12-2.8 24.48-5 36.61-1.41 7.69-2.6 9.19-10.52 6.81-2.25-.68-3.1 0-4.08 1.44-4.77 6.77-9.86 13.3-16.24 18.67-2.87 2.42-2.14 4.14.17 6.33 6.22 5.92 11.45 12.72 17.91 18.47 13.95 12.4 21.09 28.74 24.54 46.5 5.46 28.16 10.05 56.49 15.18 84.72 5.24 28.84 2.89 57.13-5.31 85.18-3.52 12-4.31 24.75-8.72 36.6-1.53 4.08.34 4.43 3.72 4a72 72 0 0 1 7.93.13m352.58 497.1c-12.3 3-23.52-2.39-36.08-5.62 7 8.66 26 11.06 36 5.59 10 2.45 19.35-.28 28.64-3.9Zm-297-169.49c-23.43-.14-47.18 15.82-55.85 37.46-7.25 18.11-1.61 31.44 16.56 38.27 5.15 1.94 7.51 5.62 8.33 10.49.62 3.66 1.47 7.68 4.45 9.37 7.64 4.32 14.18 11.17 22.12 13.88 14.26 4.85 29.21 8.75 44.16 10.21 28.32 2.77 57 1.34 85.27 5.44 5.62.82 10.9-1.24 13.94-6.64 2.89-5.14 5.42-10.32 6.52-16.34 1.85-10.21 0-20.36.44-30.52.47-9.9-1.24-19.25-8-27.23-3.88-4.55-6.41-9.6.38-14.31 1.17-.81 2.32-3 2.06-4.33-2.24-10.92-2.07-22.86-11.74-30.92-4.93-4.12-9.75-8.13-12.81-14.08-4-7.71-5.39-8-13.35-3.81-7.77 4.07-15.33 8.37-24.41 9.23-16.49 1.57-33 2.72-48.73 9.06-9.32 3.77-19.3 4.7-29.32 4.77Zm-207.5-617.9c2.47 4.27 5.12 6.53 8.54 7.54 9.88 2.93 16.89 9.26 22 17.93a12.18 12.18 0 0 0 12.62 6.33c9.32-1.19 13.31 4.07 16.14 11.63 3.14 8.37 5.13 9.28 13.93 7.75 4.1-.71 8.56-2.36 11.74 2.11 7.3 10.31 10.76 22.23 15.59 34.49-5.25-.95-6.53-5.62-10.33-6.45-1.39 1.61-.78 3.17-.22 4.73 4.08 11.29 6.25 22.78 4.06 34.85a26.1 26.1 0 0 0 .28 8.49c1.57 10 1.75 20.06-2.27 29.44a89.9 89.9 0 0 0-7 43.09c.24 3.24 1 7.48-2.45 9s-5.92-1.82-8.46-3.93c-9.81-8.14-15.42-19.13-20.6-30.37-5.33-11.56-14.25-19.33-25.35-25-2.85-1.44-6.22-2.94-8.75-1-3.06 2.3-.55 6 .4 8.5 3 7.72 7 15.05 10.18 22.68.92 2.17 3.54 5.12 1.26 7-2.08 1.69-4.7-1.21-7.08-2.09-.63-.24-1.1-.88-1.71-1.24-7.17-4.28-14.59-7.92-23-9-1.87-.23-4-1-5.25.82-1.34 2-.35 4.19 1 5.92a58.8 58.8 0 0 0 10.28 9.78c5.9 4.64 13.55 5.8 19.51 10.14a451 451 0 0 1 45.07 38.13 72.9 72.9 0 0 0 29.42 16.75c11.31 3.47 16 .79 16.51-11 .72-15.53 4-30.57 6.69-45.73 1.52-8.42 1.35-17.26 5.28-26.32 8.65 15.71-.94 31.26 2.64 46.22 3.06-5.45 3.09-11.5 3.95-17.32 1.56-10.56 6.8-20.49 6.43-31.26-1.09-31.43-5.22-62.58-16.36-92-7.66-20.25-15.42-41.13-32.06-56.45a317.3 317.3 0 0 1-43.83-49.66 30.5 30.5 0 0 0-8.89-8.13c-12-7.46-30.83.24-32.39 13.64 4.39-2.31 8.49-4.58 12.69-6.65 5.17-2.54 10.25-2.23 14.65 1.56a78 78 0 0 1 19.52 26.06c3.57 7.56 1.79 12.4-5 17.11s-10.94 4.56-17.32-.76c-2.92-2.44-5.51-5.28-8.52-7.58a48.4 48.4 0 0 0-23.54-9.75m-19.71 596.27c.1-5.21.56-10.58-1.52-15.47-7-16.46-17.73-30.69-28.4-44.83-2.91-3.85-7.64-3.12-11.61-.25-7.27 5.25-8.79 12-3.28 23.44 8.11 16.88 9.54 32.73 1.84 50.86-8.33 19.62-14.57 39.84-30.68 55.08-11.79 11.16-13.18 25.23-9.19 40.15 3.4 12.71 10.54 18.95 22.07 19.74a70.43 70.43 0 0 0 37.85-7.81c1.42-.74 3.54-.92 3.77-2.88.3-2.57-2.31-2.68-3.79-3.6-12.72-7.94-16.38-16.23-12.64-29.72a40.7 40.7 0 0 1 8.59-16.2c17.2-19.61 26.83-42.17 26.99-68.51m-66.27-510.08c-.19 8.19 4.79 21.83 10.95 30.26 13.56 18.58 32 30.71 52.78 39.61 8.8 3.77 15.42.55 18.55-8.56 4.86-14.11 4-28-3-41.26-6.2-11.85-14.65-22.17-23.66-31.92-7.18-7.77-16.51-11.81-27.19-12.22-16.29-.62-28.08 9.41-28.43 24.09m462.78 561.26c-.46 12.94-.84 23 5.44 31.69 5.8 8 12.73 8.1 18.2-.15 6.31-9.52 9.74-20.24 9.17-31.56-1.21-23.71-2-47.35-.31-71.11.93-13.16-5.88-23.2-18.27-28.74-10.43-4.65-18-3-24.12 6.45-10.48 16.06-9.69 33.14-2.89 50.34 5.88 14.88 15.31 28.78 12.78 43.08m-391.2 83.66a64.3 64.3 0 0 0-22.66 5.72c-9.84 4.63-10.74 7.93-2.82 15.44 8.45 8 15.17 16.76 18.11 28.23a15.41 15.41 0 0 0 12.87 11.87c13.56 2.44 24.19 9 31.43 20.9 1 1.65 2.22 4 4.85 3.63 3.16-.41 3-3.56 3.6-5.52 2.91-10.25 5.59-20.51 10.68-30s4.47-11.63-5-17.42a77.1 77.1 0 0 1-18.74-16.17c-8.2-9.8-18.32-16.4-32.32-16.68m209.2-358.33c-2.59 2-1.58 3.45-1.43 4.73 5.41 44.11 17.79 86.73 28.62 129.63 7.78 30.8 33 42 60.64 49.43 2.11.56 5.17 1.29 6.65-.94 1.64-2.46 0-5-1.57-7.2-2.3-3.3-4.53-6.68-7.08-9.8-13.22-16.16-27.19-31.72-38.25-49.57-16.4-26.46-26.74-55.42-35.73-85-3.2-10.52-6.02-21.24-11.85-31.28m69.55 499.16c.19-5 .19-9.95-2.3-14.57-3.38-6.26-6.84-6.86-11.23-1.36-2.8 3.5-5 7.45-7.57 11.17-4.63 6.84-4.67 6.81-9.45.34-3.35-4.51-7.32-8.73-13.46-7.84a38.73 38.73 0 0 0-24.54 13.18c-1.72 2-3 4.12-.8 6.24 7.41 7.21 5.32 14.07.24 21.58-4.09 6-2.47 10.1 4.29 12.81 8.27 3.32 17.06 4.4 25.84 4.31 14.65-.15 26.45-6 32.73-19.84 3.7-8.16 6.7-16.76 6.26-26.02ZM159.87 367.68c.8-6-.89-10.46-2.83-14.26-4.11-8-4.94-16.63-6.49-25.27-2.81-15.57-7.4-30.82-7.19-46.87a43.1 43.1 0 0 0-4.9-19.84c-.88-1.78-1.19-4.81-3.78-4.6-2.89.22-2.93 3.22-3.35 5.47-3.48 18.81-3.43 37.23 5.9 54.7 2 3.72 4.54 7.67 3.08 12.09-2.91 8.81-2.9 18.26-5.9 27-2.36 6.88-.11 12.64 1.71 19.16 4.43 15.77 9.84 30.84 20.48 43.6.57.67.55 1.8.9 2.67 7 17.52 16.35 33.17 33.84 42.26a35.66 35.66 0 0 1 15.65 15.08c1.76 3.28 5 5 8.27 6.49a223.6 223.6 0 0 1 34.49 19.77 22.72 22.72 0 0 0 14 4.38c2.43-.08 5.57-.29 6-2.68.54-3-2.8-3.09-5-3.6-16.51-3.8-31.22-10.78-43.39-23s-25-24-37.42-36.1c-11.71-11.46-23.28-23-29.28-38.87-3.1-8.18-6.85-16.12-10.3-24.17a52.4 52.4 0 0 1-3.99-17.22c-.2-2.76.2-5.39 2.92-6.69 2.45-1.17 4.54.07 6.43 1.75 2.97 2.65 6.03 5.19 10.15 8.75m216.62 207.75a33 33 0 0 0-4.39.71 20 20 0 0 0-3.87 1.75 209.3 209.3 0 0 0-48.6 39.21c-12 13.15-24.1 26.22-39.08 36.23a94 94 0 0 0-26.62 26.44c-2.41 3.67-7.71 8.25-4.24 12.37 3.2 3.79 8.31-.59 12.2-2.36 18.25-8.31 33-21.17 46.57-35.7 20.41-21.82 43.74-40.91 61.23-65.45 2.69-3.76 5.9-7.35 6.8-13.2M238.63 226.6c3.93-.89 7 .53 10.17 1 4.84.78 8.6-.87 10.44-5.34a185 185 0 0 0 6.93-19.34c1.83-6.37 0-12.23-4.79-16.86s-10.1-4.26-15.93-2.4a29.14 29.14 0 0 0-11.31 7.21c-13.78 13.12-24.76 28.69-37.25 42.94-5.61 6.4-3.64 11.26 4.76 13.05 12.81 2.72 25.49.33 38-2.29 5.14-1.07 6.74-4.95 4-9.84-1.52-2.62-3.17-5.13-5.02-8.13m145.51 537c-.44-3.89-2.74-4.87-6-4.25-5.82 1.09-11.58 2.67-17.45 3.26a14.35 14.35 0 0 0-12.49 9.21c-5.86 13.9-15.73 25.37-22.65 38.6-1.49 2.84-5.26 5.78-3.2 8.78 2.44 3.55 7.24 3 11.26 2.26a28.4 28.4 0 0 0 6.63-2.46c9.92-4.66 17-1.42 19.34 9.39a56.5 56.5 0 0 0 3.65 11.44c4.37 9.51 4.3 10.77-3.58 17.53a31 31 0 0 0-9.42 13.1c-.64 1.75-1.17 4.06.29 5.42 1.73 1.6 3.49-.23 5-1.12 2.7-1.54 5-4.93 8.45-.9 1.36 1.59 3.08.27 4.32-.93 4.48-4.32 9.34-5 14.92-2.07 5 2.68 5.69-.6 5.52-4.53-.11-2.32-1.56-4-3.23-5.33-11.1-8.86-19.57-19.17-20-34.3-.06-2-1.6-3.91-2.39-5.89-3.3-8.17-3.2-16.11 1.35-23.88 4.78-8.15 9.22-16.5 14.92-24.08 2.1-2.86 4.17-5.78 4.76-9.27Zm-223.27-82.82c10.25-.64 20.5-2.15 29.38-7.4 23.47-13.89 46.85-28 69.79-42.71 9.76-6.28 17.82-15 24.83-24.34 1.47-2 4.5-4.13 2.73-6.73-2-3-5.28-.83-7.74.16a136 136 0 0 0-37.19 22.11 133.1 133.1 0 0 1-51.91 27.14c-14.68 3.87-28.33 9.83-37.82 22.5-1.49 2-3.59 4.34-2.05 7 1.29 2.28 4 2.26 6.42 2.28ZM30.49 745.62c32.21-11.92 65.51-11.21 98.76-11 3.79 0 7.58-.67 11.38-.84 24.67-1.07 49.14-5.37 73.92-4.83 7.2.15 13.35-3 19.06-6.9 2.25-1.55 5.93-3.56 5.13-6.15-.94-3.06-5.1-1.72-7.57-1.33-18.36 3-36.95 2.75-55.42 4-35.57 2.36-71.23 3.58-106.78 6.13-15.43 1.07-27.75 9.8-38.48 20.92m452.59 195.53c-13.48 2.41-26.5 5.89-39.93 7-17.49 1.48-34.48 6.93-52.21 6.45a50.12 50.12 0 0 0-29.64 8.54c-4.12 2.74-11.64 5.11-9.86 10.4 1.56 4.6 9 2.19 13.76 1.8 16.1-1.29 32.35-4.28 48.33-1.68 30.99 5.06 49.43-15.12 69.55-32.51m-305-308.06c14 .25 24.06-6.12 28.33-18.85 5.5-16.4 15.27-29.89 27-42.18 9.82-10.31 19.93-20.36 29.81-30.62 1.16-1.21 3.27-2.71 1.8-4.81-1.24-1.77-3.3-1.35-5.25-1-12.2 2.44-23.14 7.59-31.59 16.71-20.47 22.12-34.83 49.14-56.14 70.65-1.71 1.73-3 4.58-1.28 7.21s4.99 2.42 7.36 2.89Zm320.79 354.3c-1-5.56-1.81-11.18-3.19-16.65-1.22-4.83-4.53-6.26-8.38-2.71-10.08 9.27-22.43 14.82-34 21.66-6.7 4-11.93 9.66-10.8 18.48.91 7 1.89 14 3.3 21 1.3 6.39 4.81 7.72 9.36 3.09 10.54-10.72 22.48-19.56 34.92-27.83 6-4.02 8.79-9.7 8.79-17.04m292.86 69.27c.63-5.61.93-10.85-.26-16-.78-3.36-2.71-6.09-6.27-7.09s-5.16 1.73-6.83 3.94c-5.44 7.21-12.82 10.07-21.62 10.28-3.52.08-7 1.1-10.56 1.19-5.55.16-6.65 3.33-6.35 8 .94 15.28 13.35 29.33 28.47 32.12 9.17 1.69 14.73-1.32 19.23-9.47 4.1-7.37 4.33-15.3 4.2-22.97ZM249.38 514.33a43 43 0 0 0-4.73-.7c-15.7-.6-31.35.57-47 1.79-16.91 1.31-33.28 5.15-48.37 13.22-22.77 12.23-46.85 15.78-72.41 12.23-6.21-.87-12.84-1.71-19.17.78 22.32 9 45 15 68.83 6.83 28-9.56 57-15.39 85.5-23.35 12.49-3.51 25.56-4.59 37.35-10.8m253 24c-.57 1.49-1 2-.85 2.33.43 1.34 1 2.63 1.55 3.93 17.14 40.45 43.35 74.92 71.58 108 15.7 18.4 33.5 34.92 48.31 54.15 3.88 5 7.41 10.83 13.55 14a5.22 5.22 0 0 0-.26-5.07 223 223 0 0 0-12.82-23.77c-10-15.55-24.71-26.85-36.5-40.7-24.74-29.07-48.59-58.9-69.65-90.83-4.8-7.2-9.72-14.32-14.94-22.03Zm177.59 147.14a37.4 37.4 0 0 0-1.11-9.86c-1.94-8.87-7-16.7-8.93-25.43-6.94-31.29-23.5-58.33-37.49-86.51a27.3 27.3 0 0 0-2.53-4.27c-1-1.3-2.07-2.94-3.91-2.79-2.38.19-2.61 2.62-3.1 4.24a25.7 25.7 0 0 0-.59 6.35c-.4 11.36 5.77 19.85 12.69 27.78 8.18 9.36 13.79 19.95 16 32.09 2.67 14.7 6.29 29.16 10.15 43.57 2.75 10.28 4 20.94 7.75 31 .64 1.73 1.07 3.91 3.46 4s2.83-2.13 3.67-3.77a33 33 0 0 0 3.94-16.4m-492.8-479.54a10.63 10.63 0 0 0-4.21 4.07c-13.7 23-19.91 47.09-17.83 74.54 1.9 25.18 9.48 48.33 18.16 71.2 9.19 24.21 23.54 46 38.57 67.07 4.11 5.76 8 11.8 14.1 15.9 2.63 1.77 5.08 3.08 9.52.7-15.34-11.48-23.87-27.17-33.34-42.52-18.52-30-28.34-62.85-35-96.92-2.6-13.32-.47-27-2.36-40.48-1.71-12.17-.66-23.93 5.44-35.18 2.96-5.44 6.22-11.15 6.95-18.38m368.29 332.5c-3.84-.2-7.61.57-8 1.93-1 3.55 2 5.14 4.07 6.77a134.34 134.34 0 0 1 38.93 47.4c5.21 10.6 15 16.86 25.91 21.15 2.46 1 5.44 2 7.41 0s.25-4.46-.82-6.57c-5-9.71-10.31-19.21-13.64-29.69-1.13-3.57-3.71-6.54-6.52-9.19-8.11-7.64-17.3-14.06-24.89-22.31-5.97-6.5-13.97-8.67-22.45-9.49m-72.34 36.75c-4.12-3.89-2-9.6-5.62-13.6-3.11 6.17-2 12.08-.32 18 3.6 12.78 7 25.52 7.31 39 .43 20.16-1.42 40.36 1.05 60.5 1.1 8.94 2.16 17.91 1 27a78.3 78.3 0 0 0-.91 12.77c.22 6 3.56 7.5 8.48 4 6.63-4.74 7.61-11.77 6.63-19.1-1.93-14.33-5.26-28.55-6.08-42.92-1.32-23.22-.71-46.53-3.06-69.72-1-10.14-2.09-20.22-.7-30.5.54-4.05-.27-8.77-4.74-13.61.61 10.49 2.31 19.64-3.04 28.18m-356.25 52.6c4-.14 8.51-3.53 14.42-10.83a407.2 407.2 0 0 1 70.7-68.75c2.7-2.05 8.11-4.51 6.6-7.11-2.35-4.05-7.39-.86-10.75.63-23.8 10.57-45 24.32-58 48-5.3 9.7-13.13 16-24.69 16.91-3.75.3-7.42 1.54-11.16 2.16s-4.49 3-3.72 6.21c1.33 5.63 10.95 12.99 16.6 12.78m77.72-126.73c-12.15-8.89-23.05-19.43-37.67-24.48a59.9 59.9 0 0 1-15.73-8.11c-11.93-8.68-22.57-18.86-33.69-28.49a63.25 63.25 0 0 1-20.16-32.8 81 81 0 0 0-6.34-17.3c-2.22-4.25-4.49-4.26-7.26-.36a15.83 15.83 0 0 0-1.22 17.36c3.37 6.43 1.1 10.22-4.5 13.24-1 .56-2 1.2-3.11 1.73-3.36 1.68-2.81 4.2-1 6.46 2.08 2.68 3.6.37 5.15-1 7.81-7.08 11.87-6.73 18.49 1.88 12.53 16.3 27.87 29.83 43.11 43.4 18.04 16.07 39.79 24.67 63.92 28.47Zm246.38 121.82c12.75-30.64 14.18-62.42 14.79-94.35h2.32c2.06 5.83 4.11 11.67 6.82 19.33a60.1 60.1 0 0 0 .47-29.73c-1.29-5.78-10.51-10.21-17-8.76s-5.65 6.71-5.68 11.44c0 3.08-.39 6.24.12 9.24 2.16 12.82 0 25-4.93 36.82a20 20 0 0 0-1.53 11.86c2.48 11.48 2.13 23.1 2.08 34.71-.04 3.14.04 6.22 2.54 9.44m-34.71-502c1.46-.27 2.16-.37 2.85-.53 2.16-.48 5.54.3 5.44-3.08-.09-3.19 1.25-7.23-1.3-9.46-2.12-1.85-4.78 1-7.06 2-7.51 3.52-13.48 9.49-21.25 12.77-14.13 6-14 6.26-11 21.51a36 36 0 0 1 .79 5.62c.25 6.74 3.45 12.25 7.28 17.44 2.33 3.16 5.28 6.05 9.59 3.88 5.45-2.75 7.54-7.82 7.26-13.63-.25-5-4.24-5.63-8.27-5.8-2.52-.1-5.55.56-6.36-3-.77-3.32 1.38-5.28 3.76-7a14.25 14.25 0 0 1 10.13-2.52c4 .36 8 1 12 1.33 3.38.25 7 .27 8.11-3.93 1-3.82.47-7.35-2.67-10.43-2.44-2.44-6.03-2.47-9.3-5.17M184.43 468.95c-1.23-1.47-2.08-3-3.34-4-14-10.81-24.83-24.78-37.26-37.14a84.8 84.8 0 0 1-14.3-18.55c-11.14-19.85-15.52-41.55-17.71-63.89-1.39-14.16-4.74-27.95-8.69-41.6-.43-1.49-.66-3.67-2.83-3.39-1.74.23-1.55 2.14-1.54 3.52 0 8.78-1.24 17.82.41 26.29 6.43 33.09 11 67 32.77 94.82a5.8 5.8 0 0 1 .73 1.22c3 6.41 7.69 11.49 13.05 15.77 10.92 8.71 22.2 17 33.32 25.45 1.3 1.03 2.45 2.42 5.39 1.5m274.1 159c-2.47 3-2.71 5.47-3 8-2.17 18.1-4.55 36.16-8.74 53.94-1.73 7.36-3.79 14.68-4.06 22.31-.12 3.43.18 6.6 3.84 8.44 3.92 2 6.9 0 9.73-2.13 4.72-3.62 6.31-9.17 6.54-14.5 1.03-25.08-1.41-50.04-4.31-76.02ZM325.67 332.64c7 .47 7.15.36 5.71-5.92a212 212 0 0 0-7.31-23.65c-3.76-10.49-10.27-20.76-5.28-32.6 1.92-4.54.81-8-2.74-10.6a9.17 9.17 0 0 0-11.25-.28c-4 2.77-2.36 6.73-1.57 10.36 1 4.56 3.94 9.1 2 13.77-2.77 6.83-.81 12.74 1.47 19.14 2.89 8.1 9.77 14.22 11.29 22.69 1 5.26 2.88 7.82 7.68 7.09m317.71 362.82a83 83 0 0 0-3.51-7.59c-7.93-13.51-16-26.94-24-40.43-14.54-24.62-35.15-44.76-50.72-68.67-5.44-8.34-15.46-10.45-25-11.86a35.2 35.2 0 0 0 6.53 4.11c7.11 3.85 14.68 7.5 18.8 14.72 7.57 13.25 17.73 24.62 26.06 37.3a509 509 0 0 1 30 53.21c4.33 8.8 10.86 16.44 21.84 19.21m-277-571.59c2.7-4.55 3.69-9.12-.13-13.17-3.3-3.49-7.22-1.62-10.36.55-8.63 6-12.22 25-6.33 33.77a39.9 39.9 0 0 1 5.77 11.3c.8 2.8 2 5 5.48 3.56 6-2.42 6.63.89 5.76 5.51-.4 2.1-1.22 4.13-.66 6.3.74 2.85 1.92 5.77 4.92 6.53 3.37.86 4.72-2.13 6.49-4.44 6.17-8 1.32-17.1 2.53-25.6.65-4.64-5.33-2.83-7.32-5.25a29.8 29.8 0 0 1-3.51-5.26c-.76-1.47-1-3.47-3.15-3.21s-3.11 2.27-3.27 4.14c-.26 3.13-.07 6.29-.07 9.65-10.84-3.08-5.93-11.65-7.09-18.27-2.22 2-1.67 5.36-5 6.3a27.22 27.22 0 0 1 4.57-18.77c1.53-2.34 3.73-4.81 7-4 3.46.86 2.18 4.2 2.56 6.59.13 1.13-.07 2.37 1.81 3.77m17 211.74c-5.92 4.95-5.9 4.95-7.31-1.74q-.95-4.5-2-9c-4.84-19.88-11.31-39.43-12.21-60.14a35.3 35.3 0 0 0-2.62-11c-1.74-4.43-5.68-7.43-10.12-5.43-4.81 2.18-.94 6.36.17 9.18 3.39 8.56 9.36 16.15 10.48 25.57 1.57 13.17 2.2 26.46 4.08 39.58 2.07 14.38 5.35 28.55 11.67 42 2.06-9.58 4.95-18.89 7.84-29.04Zm57.34 553.8c-7-4.09-14.82-3.7-21.48-6.82s-13.3-6.14-20-9.09c-3.59-1.59-6.5-.22-8.76 2.67-3.14 4-5.91 5.47-8.26-.65-.68-1.76-1.67-3.85-4.05-3a6.48 6.48 0 0 0-4.36 5.22c-.34 2.21.88 3.44 3 4.13 3.13 1 6.29 2 8.81 4.4 16.89 15.74 38.78 13.11 55.08 3.12ZM241.6 422.52c5.84 8.75 19.54 14.38 30.41 13.31 8.49-.83 16.94-2.59 25.55-1.18 4.74.77 6.87 3 4.76 7.85-.84 2-1.62 3.93-2.38 5.91s-.74 4.18 1.39 4.88c4.85 1.57 9.48.16 13.48-2.64 3.71-2.59 4.59-6.2 3-10.69-4.27-12.07-14.27-18.79-27.12-16.65-16.42 2.73-32.71 9.56-49.09-.79m42 422.73c-4.65 12.73 5.76 20.87 16.55 24.63 7.06 2.46 14.57 3.78 21.71 6.3 6.74 2.37 11.33.34 12.43-5 1.14-5.59-1.7-8.87-8.6-9.83-5.67-.79-10.42-2.18-8.44-9.73.6-2.27.4-4.79-2.41-6a15.2 15.2 0 0 0-12.38-.4c-4.08 1.69-4.24 5.15-4 8.93.14 2.23.8 5.13-2.32 6-2.4.65-4.43-.51-6.45-2.1-3.82-3.1-3.75-7.92-6.05-12.8Zm103.7-530.12c-1.33-13.87 1.4-27.47.83-41.13-.53-12.77-3.15-15.53-15.7-16.07-6.32-.28-5.65 2.29-3.37 6a38.06 38.06 0 0 1 5.33 18.12c.72 12.25 7.71 22.25 12.91 33.08M156.92 516.97c-.38-.4-.64-.9-1-1a12.2 12.2 0 0 0-2.73-.67c-24-2.77-49-.13-71.49-12.2-2.55-1.37-5.87-1.71-7.69 1.26-1.69 2.73-1.38 5.87.2 8.81 4.13 7.7 20.26 11.44 26.89 5.58 4.41-3.9 8.45-4 13.64-2.43 12 3.58 24.43 2.94 36.76 3.14a6.31 6.31 0 0 0 5.42-2.49m19.5 28.6c-1.44-.47-1.91-.8-2.3-.72a23.4 23.4 0 0 0-3.39 1c-20.53 7.75-36.51 21.69-50.87 37.71-2.68 3-7.43 7.63-4.14 10.67 3.84 3.54 9.38 0 13.38-3.18a13.6 13.6 0 0 0 3.66-4.28c6-12.08 15.87-20.5 26.4-28.32Zm638 405c.06-.62.11-1.24.17-1.86a44 44 0 0 0-5.18-1.62c-8.44-1.58-16.55-3.86-23.49-9.29a7.24 7.24 0 0 0-4.59-1.7c-11.26 1.25-18.87-4.36-25.16-12.76-.09-.11-.79.23-1.49.45.35 2.25.67 4.56 1.06 6.85 1.79 10.59 7 18.08 18.44 19.31 13.42 1.45 26.85.5 40.26.62ZM642.96 660.18c-3.57-.27-2.93 4.44-5.36 3.35-2.19-1-.88-3.85-1-5.85-.41-6.17-.44-12.52-6-16.71-7.58-5.74-14.57-12.35-24-16.1 19.8 21.3 29.5 49.25 48.51 73.38.51-7-.85-11.49-3.64-14.8-5.71-6.86-10.48-13.81-8.49-23.27Zm-166.21-42.1c-2.59.57-2.45 2.15-2.58 3.51-1.91 20.51-4.15 41-5.57 61.55-.75 10.85-.16 21.8.06 32.7 0 1.64 0 4.37 2.23 4.66s2.9-2 3.45-3.84c1.5-5.21 3-10.29 2-15.94a121.6 121.6 0 0 1-.7-37.47c1.91-14.89 1.43-29.98 1.13-45.17ZM90.43 439.97l-1.38 1.9c4.31 4 8.18 8.57 13 11.71a69.5 69.5 0 0 1 22.57 24.18 31.4 31.4 0 0 0 15.83 13.66c6.66 2.7 12.42 6.83 18.42 10.45a52.9 52.9 0 0 0 21.65 6.79c-11.19-5.91-22-11.79-32.34-19.36-12.45-9.11-23.39-18.75-32.51-31-6.41-8.7-15.62-13.98-25.24-18.33m101.23-2.77c-11.7-18.84-15.33-41.29-28-59.55.44 23.97 6.33 45.44 28 59.55m134.21-174.64c3.38-.88 3-6 5.71-5.19 3.12.88 2.82 5 3.79 7.8a57.3 57.3 0 0 1 2.31 27.33c-.76 5.33 1.53 10.21 3.7 15 .46 1 1.17 2.25 2.6 1.84s1.19-1.8 1.09-3c-.27-3.06-1.08-6.2-.71-9.18 2.06-16.55-4.3-31.65-7.81-47.23-.49-2.18-1.34-4.76-4.23-5.21s-5.37 1.49-5.69 3.35c-.82 4.64-3.09 9.48-.76 14.49m-23.86 571.73c7.39 2.22 13.53 3.58 19.28 5.91 8 3.26 15.34 1.13 22.6-2 3.93-1.67 3.18-4.39.27-6.38a13.7 13.7 0 0 0-6.51-2.52c-5.7-.32-11.37-.56-16.82-2.48-3-1-4.6 0-4.63 3.18 0 3.62-1.69 4.43-5.05 3.37-2.47-.74-5.12-.85-9.15.92Zm541.26 131.4c-5.78-4.19-12.51-4.46-19-3.69-18.37 2.16-36.42 1.24-54.26-3.79-2-.57-4.35-1.13-6.47 1.07 12.71 7.84 25.53 12.43 40.23 8.8 12.93-3.21 26.1-4.45 39.49-2.39ZM83.99 563.27c-2 .72-5.12-1.33-6 2.07-.81 3 1.83 4.16 3.86 5.13a57.4 57.4 0 0 0 9.84 3.81c5.62 1.49 26-6.33 29.06-10.83a2.55 2.55 0 0 0 .09-3.23c-1.21-1.64-2.88-1.64-4.43-.78-10.3 5.74-21.27 5.62-32.42 3.83m656.12 360.21c-10.91 1-10.92 1-15.31-9.68-.27-.65-.49-1.32-.74-2-.64-1.65-1.73-3-3.53-3.11-2.38-.19-3.27 1.7-3.75 3.54a78 78 0 0 0-2 9.65c-1.06 8.44-7.33 14.42-10.9 22.1 7.52 1.47 9.31-2.88 10.45-8.1 2.28-10.35 2.32-10.43 12.39-8.22 5.21 1.21 9.61.29 13.39-4.18M59.87 468.34c5.77 11.22 12.87 19.32 23.61 23.59 3.19 1.27 6.77 2.56 10.41 1.7 2.19-.51 5.39-.57 5.47-3.43 0-2.1-2.49-3.11-4.6-3.87a110.5 110.5 0 0 1-23.64-11.46c-3.25-2.1-6.04-5.07-11.25-6.53m346.4 449.75c13.33 13.31 55.06 9.87 64.21-5.18-21.2 6.42-41.43 12.21-64.26 5.18Zm277.14 17.32c4.71-.54 8.79-2.76 10.19-7.91a12.06 12.06 0 0 0-3.86-12.78 8.33 8.33 0 0 0-8.06-1.51c-3.18 1-2 4-1.83 6.08.21 3-1.93 4.68-2.82 7-2.07 5.34.43 9.1 6.33 9.12ZM77.87 454.87a25.8 25.8 0 0 0 7.09 14.26c6.92 7 14.78 10.82 24.83 7.51 1.15-.38 2.5-.6 2.58-2a2.52 2.52 0 0 0-2.21-2.4c-12.29-2.68-22.22-9.79-32.29-17.37M345.04 881c.12-9.78 2.48-18.65 8.32-26.45a6.62 6.62 0 0 0 .88-6.1c-.68-2.18-1.13-5-3.84-5.5-3.25-.59-3.42 2.64-4.44 4.57s-1.34 4.07-2.47 5.8c-6.16 9.55-4.36 18.62 1.56 27.7Zm80.83-721.9c-.92-2.68 1.33-8.33-4.57-7.2-5 1-8.91 5.77-9.66 10.49a14.13 14.13 0 0 0 5.88 13.48c2.9 2 6.15 1.35 6.8-3s1.02-8.94 1.55-13.77m289.4 718c-.24 3.08 1.49 4.59 2.86 6.12 5.71 6.32 9.86 13.24 10.4 22.06.12 2 .13 5.21 3.3 5.52 2.33.22 3.69-1.85 5.22-3.35 2.29-2.24 1.33-4.27-.32-6.24a44.7 44.7 0 0 1-7.62-14.35c-2.15-6.23-6.48-9.69-13.84-9.78ZM318.65 102.95c-1.72 1.82-7.27 2.23-1.56 5.4 2.19 1.22 3.18 3.45 1.4 6-.68 1-2.21 2.32-.08 3.43a11.5 11.5 0 0 0 8.27 1c1.67-.44.87-2.49.56-3.76-.71-2.94.13-5.38.78-8.27 1.29-5.75 5.77.21 7.09-3.27-7-2.15-12.59-9.38-21-4.72-.28.15-.33.71-.49 1.09.84 2.19 3.36 1.43 5.03 3.1M79.02 583.51c-1.71.08-4.15-.85-5 1.31s1.63 3.14 3.08 4.06c7.2 4.59 17.52 4.11 24-1.09 1.53-1.23 4.3-2.25 3-4.89s-4.14-2.14-6.3-1.28a33.93 33.93 0 0 1-18.78 1.89m335.47-481.7c5.74-6.17 4.33-12 1.68-17.73-2.49-5.44-8.13-7.11-12.88-9.18-2.47-1.07-3.69 2.51-2.32 4.93a26.6 26.6 0 0 0 4.65 5.27c4.47 4.48 9.48 8.61 8.87 16.71M693.7 894.87c6.57 8.8-3.31 7-5.51 10.47 5.87 2.47 11.71 1.82 17.3 2.78 5.74 1 4.65-4.37 5.61-7.22 1.4-4.18-2.1-3.49-4.64-3.8-3.7-.46-7.35-1.23-12.76-2.23m-327.58-790.2c-4.58-13.33-14.59-15.79-26.62-14.24-3.54.45-10.41.15-10 1.53 1.3 4.34 6.91 4.38 10.73 4.2 9.8-.48 18.79.44 25.89 8.51m52.12-35.75c-9-6.07-17.25-10.93-19.26-21-.18-.93-1.42-1.06-2.41-.73-2 .65-2.2 2.32-2.23 4-.17 10.85 10.72 19.96 23.9 17.73m-72.82 399.26c-.61 6.25 2.69 10.43 7.42 13.64 2.72 1.84 5.41 1.87 4.58-2.5-1.1-5.78-2.75-11.45-4.27-17.14-.37-1.36-1.12-2.71-2.77-2.89-2-.22-2.76 1.4-3.67 2.8-1.23 1.91-1.2 4.04-1.29 6.09m64.26-411.12c-2.67-5.83-1.94-11.41-.17-17.15a12.82 12.82 0 0 0-1-10.33c-1.81-3.15-4.91-3-7.47-1.91s-1.49 3.74-.51 5.57a32.2 32.2 0 0 1 3.88 14.88 9.94 9.94 0 0 0 5.27 8.94m-43.81-11.13c7.7 2 15.86 2.59 20.24 10.33.7 1.24 2.6 1 3.7-.32a3.7 3.7 0 0 0 0-5.18c-5.7-6.5-12.61-10.79-21.61-12.08.48 3.49 4.67 2.24 4.81 5.23-1.94 1.6-4.69-.35-7.14 2.02m48.44-12.87c7.3 10.69 8.64 24.67 19.53 33.1-5.42-11.69-5.11-26.6-19.49-33.1Zm-37 861.06c.73.86 1.21 1.81 2 2.23 5.74 3.1 11 7.58 18.15 6.87 3.89-.39 6.88 1.22 9.22 4.15 1.45 1.81 2.41 4.27 5.35 3.82.42-.06 1-1.12 1-1.66-.29-2.6-2.36-4-4.2-5.39a12.8 12.8 0 0 0-2.46-1.37c-8-3.75-17.68-3.43-24.18-10.6-1-1.1-2.68-.8-3.86.24a6 6 0 0 0-.93 1.71Zm54.21-794c6.17-10.68 5.9-16.87-.61-25.53-1.19-1.58-2.11-4.75-4.49-3.63-2.54 1.19-1.74 4.6-.51 6.24 5.26 6.95 5.96 14.77 5.7 22.95ZM340.3 461.64c-.31-3.47-.26-7.27-4.77-6.49-4 .69-10.47 1.06-10.72 4.86-.36 5.29 6.12 6.46 10.51 7.4s4.09-3.39 4.98-5.77m54.43-434c.67-8.31-12.54-18.88-23-18.07 4.21 3.25 7.56 6.68 11.62 8.72 4.52 2.24 6.9 6.83 11.38 9.32Zm13.38 153.5c-.4-.68-.8-2.28-1.82-3-3.61-2.45-6.07 1.36-8.77 2.47-2.31 1-3.18 4.48-2.3 7.52a1.86 1.86 0 0 0 1 .94c3.47 1.59 11.83-3.55 11.89-7.96ZM382.87 26.42c1 5.74-3.28 11.12 2.53 14.93 1.08.71 1.57 2.55 3.25 2.15 1.84-.45 2.38-2.2 2.65-3.78 1.09-6.36-2.56-9.92-8.43-13.3M255.65 244.61c3.48 4.68 16.59 9 22.63 6.2-9.13-.04-12.67-12.69-22.63-6.2m-.6 216.39c2.23-.5 5.89-1 5.07-3.55-1.8-5.7-8-4.63-12.47-6.27-1.31-.48-3.4 0-2.72 1.91 1.61 4.63 5.42 6.87 10.12 7.91M376.3 36.22c3.45-9.31-2.81-12.6-8.08-16.38-1.34-1-3-2.24-4.39-.66s-.08 3.62 1 4.44a49.2 49.2 0 0 1 11.47 12.6m19 68.93c1-3.57.07-6.81-1.42-9.69s-4.75-2.94-7.52-2.18c-2.13.58-1.84 2.75-.9 4.11 3.49 5.05 3.62 10.13-.76 16.34 7.06-3.19 3.59-9.16 5.87-12.71 2.78.26 2.2 3.18 4.76 4.13Zm294.72 780.51c5.82 4.74 12 4.92 17.73 6.12a2.68 2.68 0 0 0 3.39-1.83c.38-1.74-1-2.58-2.34-2.95-5.76-1.53-11.58-2.94-18.75-1.34Zm-311-775.85c4.55-2.3 4.3-6.38 4.09-10.35-.13-2.51-2-3.83-4.17-4.09s-3.41 1.31-4.36 3c-1.06 1.92-1.09 3.9 1.12 4.74 3.28 1.27 2.17 4.39 3.36 6.7Zm-9.42 189.9c4.93 9.22 7.21 17.56 9.39 27.18 3.11-13.38.74-20.8-9.35-27.18Zm53.14-201.27c6.21-11.52 3.14-20.51-7-21.94 5.55 6.14 6.93 12.91 7.04 21.94Zm-24.47 94c-2-1.73-5.37 2.74-6.65-1-2.06-6-4.35-.91-5.73 0-3.09 2-.29 3.32 1.24 4.52 5.47 4.32 7.16 3.78 11.18-3.47Zm49.16 716.5c-5.65-1.49-6-8.66-11.77-9.9a5.8 5.8 0 0 0-2.78-.2c-1 .33-2.42 1-2.74 1.83-.47 1.25.85 2.06 2 2.4 3.87 1.17 7.2 2.83 9.48 6.53 1.25 2.06 3.61 1.99 5.85-.61Zm-20.19-843.2-12.12-16.16c-1.18 9.29 4.13 13.74 12.16 16.21ZM257.02 467.68c3.12 5.3 6 8.08 11 6.25 1.48-.53 3.3-1.48 3.13-3.4-.18-2.14-2.27-2.12-3.84-2.27-2.99-.28-6.01-.39-10.29-.58m445.65 459c-.57-4.64 4.44-7.22 2.54-10.8-1.39-2.63-5.2-1.87-10-.07 5.66 2.16 3.14 7.25 7.46 10.82ZM371.39 104.35c-.94 1.3-2.88 3.14-2.56 3.71 1.27 2.25.93 5.76 4.79 6.32 3.29.47 2.14-1.83 2-3-.17-2.78-.94-5.43-4.23-7.03"/></svg>