<svg id="Layer_1" data-name="Layer 1" xmlns="http://www.w3.org/2000/svg" viewBox="0 0 864 1152"><path d="M21.54,118.22v1152h864v-1152ZM862.33,148v994c-38.05-24.51-80.76-27-119.12-35.83-24-5.5-32.16-15.74-32.09-40.36,0-9.89,3.15-19.15,2.43-29-.44-6-2.39-16.12-6.38-19.48-17.29-14.56-19.57-38.12-20.36-59.23-.88-23.88-3.08-47.34-5.86-71.08-4-34.46-9.38-68.69-14.61-103-5.2-34.12-9.48-68.39-12.57-102.77-1.57-17.47-3.1-35-3.78-52.56-.53-13.93,1-28.27-1.8-42-5.21-25.39-25-38.51-49.36-44.93C575,535.49,550.68,529,526,523h0c-9.09-3-13.18-6.64-13.18-17.45,0-14.07,1.18-21.62,1.67-24.14l1.54.4c31.72,8.62,45.28,4.32,54.61-27.06,6.09-20.46,11.63-38.22,3.44-62.37-3.84-11.29-1.17-24.85-.66-37.36,2-50.49-71.15-107.17-122.6-82.38-9.88,4.76-22.24,4.24-33.23,3.55C392.08,274.54,376.85,289.86,364,308c-12.18,17.18-14.25,36.66-4.76,56.24a23.61,23.61,0,0,0,8.14,9.17c18.27,11.06,20.37,18.56,20.51,35.48.15,18.22,8.47,35.15,23.77,45.59,14.12,9.64,15.25,22.09,3.63,39.07C405.41,508,390,512.93,374,516c-14.2,2.75-28.61,4.45-42.87,6.89-32.29,5.52-55.24,34.53-56.44,71.25-1,31.32-5.7,62.65-6.06,94-.53,44.51-14.28,85.39-24.09,127.82-12.78,55.26-28.54,109.8-41.7,165-8,33.36-33.8,63.16-75.91,59.54-13-1.11-26.1-.66-39.11,0-12.07.58-29,2.24-43.05,3.62V148ZM419.77,1092.29c-10.54-.18-21,1.09-31.59.91-40.6-.7-72.37-37.16-72-76.92.24-26,13.66-46.46,25.5-68.52,9.19-17.1,17.55-34.89,21.61-54,2.93-13.8,3.59-27.94,3.53-42-.2-49.68.1-99.36-.22-149-.1-15.2,9.75-17.8,20.15-25.5,12-8.9,19.31-22.63,24.62-36.29,8.48-21.81,15.67-44.16,23.82-66.1,2-5.31,5.14-5.7,6.91.58,2.81,8.23,4.07,21,4.23,30.15,1.46,81.56-2.49,163.46.28,245,2,58.3,6.76,116.71,15.93,174.37.58,3.66,5.95,27.51,9.36,39.6q-17.68,17-36.88,32.76c-5.85,4.8-10,11.73-14.31,18.39a2.87,2.87,0,0,0,2.92,4.38,122.45,122.45,0,0,0,20.27-5.25c36.55-13.15,72.53-27.86,103.44-50.89,41.44-30.87,63.18-72.66,60.24-125.69a70.79,70.79,0,0,1,.15-7.84c.07-1,.15-.61,2.17-7.56,6.32,10.45,12.36,15.85,14.16,23.52,7.79,33.06-8.83,67.9-32.21,95.7-26,30.89-58.89,52.06-94.16,70.38-4.61,2.4-9.62,4.22-13.73,7.28-2.48,1.83-5.15,5.43-4.85,8.44.18,1.75,4.55,4.41,7.13,4.5,50.24,1.73,106.88-.6,137.61-47.19,15.72-23.85,21.89-48.08,25.7-80.34,8,11.08,17.7,23.64,18.76,41.29,1.61,26.58,2.21,53.3,1.35,79.9-.24,7.11-6.45,13.53-12,18.81-24.65,23.3-55.89,28.38-87.75,34.46-25.84,4.93-47.64-.83-71.57-11.49-17.79-7.9-39.75-6.9-60.22-6.63-31.15.4-62.06,7.18-92.6-2.81-6-2-12.88-4.3-18.6-9.16,43.16-9.57,69.29-28.2,90.68-49.46,1.4-1.31,2.73-2.64,4-4C423.07,1094.54,421.86,1092.32,419.77,1092.29Zm165.7-388.45a.66.66,0,0,1-1.24.38c-1.5-2.86-3.62-7.16-4.21-9.76a33.32,33.32,0,0,1-.3-15.65,21.07,21.07,0,0,1,7.18-12.3,14.81,14.81,0,0,1,1.74-1.23.55.55,0,0,1,.79.68C587.72,669.87,583.5,682.05,585.47,703.84Zm-5.33,31.52a1.06,1.06,0,0,1,2.07-.16c24.82,88.86,40.08,180.14,78,265a45.47,45.47,0,0,0-3.85-5.79c-4-4.47-8.17-8.75-12.29-13.11-3.75,5.81-7.53,11.67-8.92,18-2.65,12.09-3.4,24.57-6.18,36.62-14,60.71-59.39,92-125.76,84.51,14.31-8.42,26.58-14.91,38.41-21.43,38.25-21.06,65.75-52.55,83.93-91.75,12.38-26.7,17.47-56.21-1.25-82.93-3.54-5-8.24-9.6-13.38-12.1-31.69-15.43-40.39-45.7-40.24-77.66.13-26.85,4.59-53.68,7.23-80.51C578.55,747.83,579.36,741.6,580.14,735.36Zm14.77,245.56c-6.62,27.4-23.42,48.6-44.14,66.81-30.1,26.42-65,43.79-104.16,53.9,55.33-49.38,104.16-104.06,142.64-168.55C600.28,949.38,598.67,965.38,594.91,980.92ZM619.09,837.6c-7.94-30-16.59-64.58-22.13-95.49-4-22.4-3.69-41.87,1.49-65.15a36.38,36.38,0,0,0,.72-13.15c-.55-4-3.31-8.29-5-12.19a2.71,2.71,0,0,0-3-1.56c-6.67,1.22-12.59,4-14.63,8.39-3.11,6.72-6.13,15.13-7,22.85-2.34,20.49-.35,42.49-2.76,63-2.12,18.07-3.39,36.29-5,54.41-1.83,20.4-2.69,41.25-.23,61.64C563,872.21,568,883.17,574,893.42c5.28,9.06,14.31,18,8.21,28.73-28.92,50.94-61.06,93.91-102.24,134.45-4.2-15.77-10.24-50.9-12-65-14.54-120.24-8.85-240.44-10.68-361-.27-18.09-1.17-36.34-5.15-54.06-1.7-7.58-5.28-13.61-11.83-14.7-6.83-1.13-10.68,5.25-12.51,8.78-8.46,16.27-14.79,33.79-20.17,51.3-5,16.22-10.22,32.77-23.7,44.08-2.79,2.33-5.28,6-8.46,6.74-19,4.65-20,17.85-19.79,34.51.8,59,.13,118-.12,177a18.4,18.4,0,0,1-5.1,13.07c-1.82-18-2-37-3.34-55.08-2.1-27.85-3.95-55.72-6.33-83.55-1.11-13.08-3-26-1.25-39.08,1.77-12.89,5.64-25.41,6.94-38.38.1-1,.19-2.06.26-3.1a35.37,35.37,0,0,0-2.1-14.76A56.37,56.37,0,0,0,339.78,652c-2.23-3.68-5.55-6.28-8.5-9.35a2.18,2.18,0,0,0-3.37.32c-4.28,6.32-10.09,11.7-9.69,20,.93,19.73,7.11,38.8,6.77,58.65s-5.13,39.4-10.44,58.5c-1.92,6.9-3.92,13.78-5.82,20.69-22.67,82.43-50.93,162.86-88.06,240-8.76,18.21-20.06,28.83-41.42,32.72-34,6.2-67.52,7.22-100-3a108.41,108.41,0,0,1-21.59-9.91s-5.87-3.09-6.11-3.69c4-3.79,17.38-5.82,23-6.09,19.2-.93,38.53-2,57.69-.84,32.83,2,67.39-17.74,76.32-51.18,23.41-87.61,44.83-174.12,64.31-262.64,8.29-37.72,6.31-77.69,9.55-116.6,1.33-16,2.49-32.33,6.64-47.72,6.09-22.62,21.62-35.29,45.76-38.63,20-2.78,39.83-7.81,59.3-13.37,16.15-4.63,29.08-15.07,34.82-31.3,4.44-12.52,12.29-18,24.61-16.5,14.73,1.82,29.65,3.18,44.25,5.74a9.73,9.73,0,0,1,8,10.8,138.65,138.65,0,0,0-1,17.28c0,5.74,1.21,11.65,4.59,16.38,5.23,7.31,14.45,9.22,22.53,11.68,10,3.05,20.06,6,30.15,8.8,7.86,2.16,15.76,4.22,23.7,6.1,36.88,8.73,54.41,27.78,53.68,65.45-1.41,73.41,11.73,145.08,22.24,217.2,7.05,48.33,11.23,97.09,16.56,145.68,1.77,16.2,3.75,31.78,17.66,43.4,7.18,6,9,13.73,5.35,23.72a4.8,4.8,0,0,1-8.59.81c-4.83-7.87-9.28-14.86-12.64-22.33-4.22-9.41-5.68-20.25-10-29.41C645.54,940.79,633.28,891.24,619.09,837.6ZM327.77,659.41a1,1,0,0,1,1.47-1.09l.56.44A21,21,0,0,1,337,671.05a33.28,33.28,0,0,1-.29,15.66c-.63,2.76-3,7.44-4.49,10.27a.54.54,0,0,1-1-.31C333.09,676.42,329.69,664.35,327.77,659.41Zm86.84-277.15c14.61-9.3,27.93-21.79,39-35.19,10-12.11,10.12-29.68,3-43.6-10.21-19.94,0-26.75,15-27.45a63,63,0,0,1,12.84,1.07,157.94,157.94,0,0,1,22.64,5.78c7.56,2.49,10.75,5.41,17.36,9.36,20.76,12.43,31.49,39.66,23.06,61-1.91,4.84-4,9.66-5.4,14.64-3.08,10.72-8.07,17.92-20.58,20.29-14.8,2.79-21.93,10.07-16.45,28,8.15,26.6-9.2,41.67-37.06,38a106.91,106.91,0,0,0-25.72,0c-17.1,1.91-37.79-14.39-43-35.92C394.29,397.16,396.23,394,414.61,382.26ZM380.07,369c-10.66-6.84-15.73-16.12-14.88-28.73.15-24.39,25.93-52.18,49.73-53.29,3.22-.15,7.54.34,9.63,2.33,20.72,19.84,16.77,52.86-7.83,68.33-3.35,2.11-6.78,4.16-9.9,6.59C398.71,370.58,390.8,375.88,380.07,369Zm60.25-70.42c13,8.88,16,27.74,6.57,40.24C448.16,325.21,446.88,311.72,440.32,298.58ZM563.94,441.17c-8.82,36.15-25.88,47.32-67.1,19.49,3.81-2.34,7.51-4.17,10.72-6.64,12.26-9.42,15.93-20.37,8.54-35.37-6.72-13.65-3.16-18.51,11.52-21.57,20-4.17,24.14-22.27,35.32-36.86C560.87,389.09,570.74,413.26,563.94,441.17ZM44.76,1240.42v-167c25.44,7.46,58,13.61,82.32,14.17,20.34.46,41-1,60.6-6.6,21.49-6.19,32.73-16.91,42.81-36.81,37.45-74,60.22-150,84.94-228.76,4.59-14.65,9.72-43.15,14.66-57.69.21.83,1.32,7.67,1.76,11.48,1.76,12.65,2.45,27.12,3.06,39.83,1.69,34.41,5.35,66.8,4.7,101.22-.23,12.81-6.76,25.74-11.6,38.16-7.48,19.18-21.63,35.51-24.17,56.71a90.45,90.45,0,0,0,7.13,46.14c12.88,29.9,40.94,50.8,74.06,50.33,1.7,0,7.16-.12,12.1-.11,2,0,3,2.66,1.37,3.78-24,16.25-51.93,28.81-78.43,30.74-5.87.43-15.26-8.76-18.37-15.64-20.33-45-16.87-94.62,1.78-135.44,6.06-13.26,12-25.26,18.33-38.41,1-2.05,3.1-6.8,5.21-11.73a4.1,4.1,0,0,0-6.47-4.7c-1.65,1.44-2.88,2.56-3.36,2.94-10.46,9.1-14.12,13.75-23.28,24-33.25,37.22-55.53,80.1-56.27,131.05-.43,29.24,13.34,45.13,41.28,54.29,13.77,4.52,28.11,8.68,40.44,16C351,1177.16,385,1177,419.28,1172.85c32.13-3.85,62.59-3.58,92.06,13,23.84,13.42,49.93,6.38,74.85,1.93,26.75-4.79,52.45-13.24,74.63-30,8.43-6.37,15.95-6.14,25.56-.21,9.93,6.12,21.89,11.58,33.23,12.16,17.59.89,31.89,7.21,46.48,15.92,28.08,16.76,60.64,26.89,96.24,19.91v34.85Zm250.89-108.91c-23.76,5.47-46.35-15-47.89-38.78-2.59-40.27,14.22-73.51,36.66-104.83,4.48-6.25,9.18-12.34,13.89-18.42.95-1.23,3,0,2.23,1.33C276.45,1012.83,266.74,1073.34,295.65,1131.51Z" transform="translate(-21.54 -118.22)"/></svg>