<svg xmlns="http://www.w3.org/2000/svg" id="Layer_1" data-name="Layer 1" viewBox="0 0 648 1296"><path d="M645.16 359.09c-4.82-15.48 1.29-34.3-5-50.39-10.63-27.13-21.94-54.15-35.34-80.05-6-11.55-5.67-29.18-14.25-34.06a37 37 0 0 1-3.26-2.11 271.5 271.5 0 0 0-60.89-103.24C475.01 34.44 401.02.05 318.8 0h-.17a285.2 285.2 0 0 0-171.3 56.57 280 280 0 0 0-46.58 44 .4.4 0 0 0-.08.1C61.05 147.8 37.3 208.04 37.3 273.66q0 6.69.33 13.29a237.4 237.4 0 0 0 5.91 44.49c7.3 31.51-4.66 56.46-14.34 84.73-8.8 25.72-19.22 45.7-24.4 72.51-4.62 23.95-7.86 54-.39 77.11 4.65 14.35 31.9 22.36 45 29.71 27.78 15.56 61.63 26.58 90.61 16 25.58-9.38 32.78.84 44.94 14.69 4.43 5.05 9.75 9.36 14.64 14 9.83 9.43 8.78 15.64-4.91 20.51-26 9.24-51.54 19.5-77.28 29.33 21.12-2.3 32.18 9.68 43.09 23.57 15.56 19.74 32.3 38.61 48.2 58.13 7.64 9.39 20.23 18.37 4.95 31.78-1.95 1.71-2 7.75-.5 10.51 4.83 8.85 0 14.37-4.91 21-20.61 27.74-39.48 56.19-32.81 93.22 3.94 21.88-1.9 38.35-26 46.09-4.29 1.38-8.27 4.77-9.38 9.61 5.49 4.19 10.46-2.75 16.85 0-.43 2.86 0 6.2-1.42 8.5-17.89 29.62-10.17 59.82-2.2 89.91 1.72 6.46 5.49 12.42 1 19-9.47 13.75-5.62 27.79-1 41.87 3.59 11 10.4 22.11 9.9 32.92-.88 19.19 9.49 27.43 25 32.93 9.58 3.4 12.48 10 14 19.22 3.16 19.28-.41 39.22 11.33 60.92.6 1.11 2.23.92 2.23-.34v-14c0-5.63-3.91-12.69 4.89-15.41 8.13-2.51 13 2.1 16.42 8.53 4.54 8.47 8.93 17 13.94 26.67a2.43 2.43 0 0 0 4.48-.46c4-15.3.71-30.86 8.32-45.82 3.89 13.25 2.59 25.22 2.35 39.62a1.85 1.85 0 0 0 3.52.77c13.32-24.67 3.09-48.73 7.42-71.27 5.88 3.64.21 11 6.69 14.5 7.64-11.5 12.06-12.58 16.25 2.78 2.47 9 .36 19.27 5.1 28.45a2.51 2.51 0 0 0 4.6-.45 68.1 68.1 0 0 0 1.65-30.3c-1.16-7.19-1.81-14.47 2.27-21.34 2.18-3.71 3.59-8.74 8.41-8.92 5.49-.21 5.5 5.51 7.1 9.16 5.83 13.33 4.91 29.36 16 41.48 9.17-18.85-7.7-38.12 4.36-60.16 9.44 24.59 3.57 53.06 6.23 80.37a2.17 2.17 0 0 0 4.26.34c5-22.41 4-45.27 13.95-65.35 4.93 6.31 3.83 11.92 4.08 17.09 2.35 48.82 16 69.81 28.63 69.52 15.1-.35 27.49-24.1 39.55-56.7 10.21-27.57 26-24.25 34.91-44.65 12.14-27.9 22.14-56.93 33.9-85.33 8.44-20.38 7.71-38.36 3.41-59-4.11-19.67-6-40.63 2.27-60.7 12.6 14.74 19.48 31 32.82 42.2 8.1 6.85 18.15 20 27.66 11.08 8.72-8.18-2.27-19.37-9.69-27.9-14.31-16.49-30.93-31.38-40.64-51.12 2.63-3.73 9.26 6.1 14.44-3.41-16.72-9.63-17.16-28.34-17.61-42.6-.4-12.38-4.32-22-11.67-31.64-10-13.25-18.68-27.52-22.69-45.22 21 5.61 37.81 15.77 57.25 18.3 5.46.71 11.87 3.36 13.75-4.34 2.07-8.48-3.94-12.18-11.29-13.59-4.24-.81-8.89.28-13.06-.7-23.17-5.41-47.17-12.01-60.85-31.83-18.18-26.36-20.53-59.54-36.91-88-12.59-21.86-4.31-49.2 18.88-67.34 5.7-4.47 13.62-8.36 12.93-16.76-1.23-14.83 8.31-19.85 19-26.84 4.12-2.67 11-5.55 10.88-12.92-7.45-2.67-10.63 5.61-18 5.18-1.64-23.21 18.58-27.58 38-40.67-14.59-4.18-17.74 4.58-26 3.53.58-23.58 26.34-18.54 37.84-33.49-12.45-4.77-21.32 6.59-29.65 4-.34-8.52 4.74-12.18 12.09-13.49 40.68-7.24 63.42-32.29 81-64.9 7.72-14.34 10.33-29.42 24.27-41.14 17.93-15.07 30.43-27.64 21.71-55.59M599.4 257.6c16.95 23.48 18.24 49.26 5.35 76.8 6.77 4.92 11.92-8.1 13.58-2 3 11.11-3.83 21.95-6.95 37-10.24-15.69-14.27-31.61-15.87-47.47-2.53-25.11 1.1-50.11-4-73.92a98 98 0 0 1 7.89 9.59m-75.6-107.43c-.37-7.89-.94-15.77-1-23.65-.05-2.89.34-6.41 4.07-7.29s5.87 2.05 7.25 4.53c20.41 36.35 44.68 71.39 42.23 115.73-.29 5.41.82 10.87 1 16.31.18 4.47 5.39 10.1-.42 13.15-6.26 3.28-12.1-1.07-16.53-5.36a26.46 26.46 0 0 1-6.9-10.51c-7.9-25.4-13.33-51.49-29.08-74.22-5.54-8 0-19.05-.62-28.69m-72-101.11c21.95 11.07 35.77 26.66 34.63 51.35-1.11 24 7.33 46.22 13.46 72.83-25.34-16.21-39-35-50.94-55-7.25-12.11-14.8-23.93-24.54-34.27-7.68-8.12-13.31-9.8-17.93 3.42-6.24 17.75-10.68 19.15-25.88 7.35-14.08-11-26.22-24.23-39.8-35.82-21.83-18.58-34.82-19.58-58.58-4.23-13 8.43-25.89 13.14-42.06 8.74-21.27-5.78-35.78 5.75-47.42 21.39-6.2 8.34-11.08 17.63-17.54 25.77-7.13 9-17.88 15.28-27.58 6.11-6.89-6.52-5.83-16.86-1.33-25.6 23.51-45.76 64.75-61.92 113.97-70.53C328.29 8.65 391.1 18.44 451.8 49.06m-34.25 465.88c.38 9.36-8.63 12.52-15.44 16.5-1.13.67-2.26 1.31-3.39 1.93-5.81 3.21-11.81 6.13-17.53 9.48-6.13 3.59-10.92 8.58-9.91 16.11.79 5.91 6.73 7 11.36 7.84 8.5 1.44 14.66-2.9 17.54-10.46 4.43-11.63 9.37-22.53 24.76-28.18-3.87 10.75-6.6 19.28-10 27.54-6.66 16.26-29.93 26.54-46.51 21.21-4.71-1.51-8.54-4.06-8-8.69 1.4-11.21-4.25-18.46-10.8-25.6-1.69-1.84-3.43-3.68-5.13-5.57-15.45-17.18-10.81-34.79 10.41-45.59 23.6-12 56.32-20.16 76.55-8.76-1.87 7.65-9.8 8.51-14.95 12.39s-12.92 4.16-17.6 10.28c6.08 3.97 18.18-1.91 18.64 9.57m-21.57 139.14c16.47 29.89 17.57 60.16 4.16 90.78.9-24 7.66-60.77-4.16-90.78m-7.62-17.92c-17.62-8.85-38.05-19.5-46.95-31.16-12.26-16-21.28-4.3-30.72-7.66 24.31 17.93 20.91 47.29-7.08 59.82-3.29 1.48-6.49 4.4-10.24 1.46-4-3.14-3.76-7.53-2.29-11.71 3.53-10 4.59-20.52 6.32-30.63 2.95-17.4-7.33-8.71-14.53-10.71 35.68-30.63 61.24-33.21 99.81-11.12 5 2.85 11.43 7 9.61 12.09-3.09 8.56-13.37 2.88-20.67 6.48 3.58 8.74 15.24 12.05 16.74 23.14M362 765.93c-3.95 2.91-7.7 6.09-11.38 9.32-4.9 4.31-9.6 7.11-16.67 3.61-7.34-3.66-13.7-9-11.87-16.62 3.09-12.65 1.41-25-.14-38.06 12.91 7.61 7.26 20.61 12.71 33 3.72-8.66 2.1-15.3 1.93-21.8s-.77-13.41.12-20c1.07-7.8 9.85-10.26 15-16.35-9.27-6.16-23.76-8.19-18.49-23.26 2.85-8.14 9.59-13.63 18.7-11.75 15.36 3.16 31.47 7.31 35.84 24.82 3.92 15.68-13.2 14.33-20.52 21 15.38 15.05 12.71 42.86-5.23 56.09m-93.36-21.07s-30-36.88-3.08-88.29c0 0-10.4 46.51 3.08 88.29M249.8 560.92c-1.83 6.13-4.89 11.69-12.47 11.57-8.4-.15-14.29-5.52-16.85-12.45-4.05-11-8.11-22.19-9.92-33.62-.17-1-.31-2.07-.44-3.11-1.8-14.76 7.69-24.3 22-27.41 17.55-3.81 35.41-5.49 51.84-14 8.94-4.65 16.68-.67 19 9.45-2.39 3.43-4.69 2.41-7.12 2-4-.75-8.93-3.3-11.24 2.33-1.43 3.5 0 7 2.11 10.33 3 4.76 7 4.69 11.24 2.71 13.66-6.32 16.57 1 16.55 12.17q0 13.23-.07 26.49v8.18c-.05 14.09-9.21 20.39-21.62 23.7-8 2.16-13.72-.17-8.76-8.66 7.1-12.17-2.63-13-9.24-13.21-8.3-.36-19.5-14.8-25.01 3.53m89.73-145.29c-2.73-17.19-22.73-25.15-24.73-41.93l-14.47 10.78c-12.85-9.7-1.18-18.77 3.69-28.74-23 5.45-10.53 21.63-14.12 36.81q-14-29-.68-49.37c10.72-16.42 26.14-29.58 48.72-28.45 36 1.83 47.87 15 51.43 51 1.73 17.54 4.94 34.35-1.82 51.63-4.75 12.14-13.7 14.77-25.06 13.98-10.63-.79-20.58-1.22-22.93-15.71Zm-10.73 68.42c-.25-16.54-1.14-31.87 4-47.27 28.11 20.85 28 22.69-4 47.27m-15.63-11.84c-6.46-9.36-11.49-19.06-9.93-30.75 6.56 9.2 13.39 18.3 9.97 30.75Zm-33.5 216.69c.36-8.63 28.12-27.56 36.49-24.85s4.39 10.29 6.08 14.45c.37 9.13-1.55 16.74-10.51 18.06-10.1 1.49-20.54.95-30.84.71-.49-.01-1.33-5.47-1.22-8.37m58.28-49.79c1.73-10.49 5.09-18.13 17.59-8.25 9.44 7.46 19.84 13.79 27.93 25.47-12.17 0-21.79-1.42-31.33-2.25-10.01-.87-15.91-4.52-14.19-14.97m59-188.11c-4.8 3.15-12.86 6.8-17.33 1.88-6.13-6.75 3.89-9.72 6.95-13.91 5.21-7.15 8.87-14.41 9.39-23.25.54-9.05 6.16-12.68 18.37-11.92 14 8.36 32 8.34 50.66 5 5-.9 12 2.83 12.25 9 .3 5.88-6.61 6.93-11.16 7.73-24.66 4.31-48.02 11.62-69.1 25.47Zm79.57-151.5c-.69 3.81.62 9.47-5.18 10.46-4.84.83-7.74-3.4-10.71-6.33-9.38-9.23-11.78-21-12.07-33.41-.3-12.78-4.24-23.62-16.06-31.07-4.71-3-14.22-3.89-11.67-11.8 2.5-7.72 11-9 18.83-9.19 10.9-.77 19.07 4.55 26.52 11.39 6.81 6.23 13.38 12.7 20.37 18.71 10.16 8.73 13.27 17.15 1 26.83-7.75 6.12-9.31 15.34-11 24.41ZM144.45 153.68c.85-.85 2.16-1.27 3-2.1 23.54-22.46 32.55-19.5 48.75 6.32 4.82 7.68 12.37 12.07 20.47 15.21 7.42 2.88 17.07 7.38 14.68-8a13.6 13.6 0 0 1 .59-5c10.81.63 22.26-.35 32.19 3 7.08 2.38 9.49 12.46 5.22 19.11-19.84 30.89 5.83 45.56 22.77 63.47.37.39 1.17.37 2.15.64 6.76-10.25 2.18-21.29 1.69-31.84-.57-12.39 1.49-18.24 15.12-10.32 5.26 3.07 11.25 6 17.21 6.75 15.46 1.95 30.8 2.76 13.92 23-2.16 2.58-1.76 5.79.23 8.47 10.85 14.57-.67 23.85-5.81 36.83-12 30.19-45.12 38.64-60.74 63.85-4.79 7.72-14.15 7.29-21.68 8.85-12.43 2.62-15.76 9.84-15.67 21s5.38 16.57 16.7 17.63a35.35 35.35 0 0 1 14.11 4.36c6.5 3.84 9.49 10.53 5.87 17.26-3.23 6-9.66 4.35-14.91 1.83-26.61-12.78-56-22.14-68-53-1.7-4.35-3.73-13.83-11.49-2.44-4.28 6.28-7.23-1.69-8.28-4.56-11.6-31.62-29.91-62.83-7.67-97.13 1.83-2.83 3.23-7.5 2.14-10.33-7-18.11-10.26-36-2-54.7 2-4.53-1.34-8.08-6.42-9.17-2.43-.52-5-.57-7.37-1.27-8.66-2.53-21.62-1.51-23.88-10.64s11.27-11.21 17.11-17.08M73.8 441.44c.87-6 2-12.07 9.33-15.32 1.7 1.38 4 2.57 5.33 4.39A159 159 0 0 0 110 453.7a260 260 0 0 0 26 20.13c3.67 2.53 8 6.28 7.49 10.43a6.4 6.4 0 0 1-.38 1.41c-2.56 6.38-8.35 1.93-12.71.73-6.85-1.89-12.25 1.43-17.41 4.72-11.47 7.22-19.19 2.94-23.67-7.66-5.78-13.77-17.91-25.43-15.52-42.02m-34 98.73c-1-4-2.9-7.83-4.39-11.72-2.39 10.58 7.22 20.44-4.89 30.9a82.3 82.3 0 0 1-12.61-46c.43-26 3.59-52.18 21.09-74.06 13.4-16.78 14.31-36.78 13.8-57.74 18 17.53 18.09 30.3 12 52.59-5 18.26-4.73 38.47-1.45 57.64 1.76 10.38 4 20-2.15 29.65a15 15 0 0 0-.83 14.16c2.64 6.11 4.81 12.62-3.81 14.74-7.96 2.01-14.59-1.14-16.76-10.16m68.35 45.24c-6.25 3.8-13.16 6.66-20.93 6.32-.85-6.66 9-6.72 8.11-14.47-15.47 9.41-27-4.3-40.76-5.88-1.19-.13-2.92-2.38-3-3.71-.21-3.65 3.12-5.76 5.85-5.86 15.48-.66 31-1.23 46.44-.77 5.77.18 10 4.84 11.35 10.66 1.37 6.19-2.3 10.8-7.1 13.71Zm49.48-.16c-3.5 12.86-17.53 15.06-28.14 17.44-7 .33-12.67-1-10.78-7.4 3.54-12 13.43-16.76 25.53-15.48 4.69.53 15.96-4.2 13.35 5.44Zm5.54-36.21c-14 18.32-26.62 19.3-42.15 2.78-3.87-4.09-7.75-7.68-12.89-10.18q-31.12-15.19-2.33-34.89c3.4-2.34 6.92-5.19 12.7-4.38 1.73 7.9-6.73 11.1-5.75 18.62 12.69-4.17 25.65-4.08 38.66-3.62 9.64.33 16.68-3.37 22.62-8.93a77.6 77.6 0 0 0 9-10.41c8.81-11.8 19.78-17.32 36.2-8.5-11.47 6.92-21.67 12.45-31.14 19a26 26 0 0 0-5.45 4.74c-3.27 4-2.9 8.31 5.81 12.41 5.75 2.72 9.16 8.1 11.54 13.9 12.62 30.79 7.39 32.83 39.79 48.24-17.6.59-28.06-3.15-37.8-19.31-2.82-4.68-5.45-14.38-7.06-17.77-7.59-15.95-21.02-15.79-31.79-1.7Zm25.35 54.23c-4.09-4.41-.12-11.06 4.82-13.94 6-3.49 6.64 3 8.64 6.25 7.6 12.16 15.06 24.39 22.58 36.62l-2.49 2.38c-11.27-10.34-23.27-20.14-33.59-31.31Zm-28.52 92c-3.28-7.45 4.48-8.15 9.32-10.07 10.86-4.34 21.59-9 32.63-12.87 7.09-2.49 14.62-3.6 20.76 4.57-16.77 7.79-31.84 14.66-46.77 21.81-6.57 3.14-13.09 3.11-15.98-3.43Zm40.75 50.11c-4.8-8.75-12.35-15.06-19.34-21.87-3.66-3.59-7.69-7.79-.13-10.89a291 291 0 0 1 33-11.78c9.37-2.62 15.69 2.28 18.1 11.13 2.05 7.56 3.17 15.36 4.11 20.07-.23 13.24-1.9 23.06-13.1 26.95-12.59 4.35-17.9-4.87-22.68-13.6Zm41.82 88.11c11.26 21.74-2.17 37.64-9 55.9-1.15 3.05.64 5.47 4.85 2.85 5-3.14 7.48-7.43 9.82-11.91 1.95-3.69 1.44-12 8.44-8.76 4.61 2.12 4.66 8.94 2.71 13.18-6.85 14.82-13.4 30.35-27.39 40.21-11.7 8.23-24.75 14.66-38.62 22.71 14.96-39.26 26.6-77.68 49.15-114.17Zm-22.36 11.75c-5.15 27.27-19.75 50.9-31.93 76-6.77-23.59 1.61-44.73 31.93-76m-47.85 207.44c-2.37-10 1.49-18.33 3.29-26.35 2.59-11.46 4-22.7 1.66-34.25-2.28-11.23 1.33-21.86 10.07-27.72 19.06-12.79 39.58-23.56 59.5-35.15 1.25 1.39 2.49 2.77 3.73 4.17-12 22.3-41.82 32.89-45.69 61.93 10.79.06 13.89-5.78 15.87-13.29 1.37-5.23 2.95-10.6 5.62-15.26 2.17-3.8 6.73-6.05 11.07-3 3.66 2.58 2.65 7.29.49 9.91-17.53 21.18-25 48.36-43.22 70.05-4.36-10.06 2.54-18.54 1.16-28.11-9 11.39-9.27 27.18-23.55 37.07m59.59 157.52c-1.93 4.48-3.62 9.56-10 8.87a8 8 0 0 1-5.37-3.94c-2.34-4.81 1.32-8 4.56-10.74 10.86-9.1 11.22-22.27 14.79-34.32 2-6.7 1.76-14.54 10-20.87-4.13 21.64-5.75 41.98-13.98 61m13.4-87.74c-6.78 13.59-12.22 27.8-18.46 41.66-1.39 3.07-2.26 7.79-7.11 6.94-4.11-.71-5-5-6.09-8.37-4.42-13.89 10.19-21 13-33.64-15.13-.2-28.72-.31-28.41 19.46.11 6.82-4 10.24-10.43 10.18-8.14-.07-10.24-5.39-9.71-12.45 1.31-17.44 9.27-32.65 17.35-47.62 13.38-24.77 17.53-52.24 29.24-77.86 16.11-35.24 33.63-66.18 49.51-101.16 1.2-2.64 3.91-4.88 9-3.64 3.78 15.4-2.94 28.88-9.83 42.25-15.89 30.89-33.38 61-45.3 93.77-4.83 13.23-3.47 23.36 8.5 32 14.19 10.16 16.45 22.98 8.74 38.48m36.45-259.77c2.92 10.27 8.46 18.76-3.65 24.88-2.17 1.1-5.08 3.26-6.25.42-4.33-10.42 3.09-16.76 9.9-25.3m-31.54 212.82c0-5.28 1.65-10.75 3.47-15.82 8.6-24 17.52-48 28.23-77.06 1.63 26.52 6.91 48.21-9.18 67.43-6.12 7.31-3.13 17.75-5.73 26.46-1.28 4.29-.19 11.55-7.06 10.89-5.73-.56-9.81-6.07-9.76-11.9Zm20.86 105.71c-1.28 6.42-4.74 14.22-13.56 11.65-7.47-2.18-5.64-10.08-5-15.82 1.6-15.24 6.62-29.65 12.67-43.71q11.52-26.79 23.09-53.53c-.87 34.26-10.46 67.58-17.23 101.41Zm-28.55-375.44c-3.85-5.83-.74-7.6 4.31-8.36 8.77-1.33 42.24 13.85 49.56 22.23-20.49 8.69-42.83 2.77-53.87-13.87m56.74 186.33c3.61-25.13-7.43-47.6 11-71-1.26 25.06 12.4 47.78-11 71m-22.17-204.77c-4.24-3-11.95-5.82-8.32-12 3.17-5.37 10.25-1.58 15.53-.39a26.8 26.8 0 0 1 6.75 3c39.42 21.67 90.93 16.46 126.59-12.31 4.41-3.56 9.67-13.57 15.71-6.66 5.76 6.56-1.8 13.79-8.31 17.45-26.53 14.94-53.31 29.53-78.76 26.51-28.94-.68-50.63-2.32-69.19-15.6m91.71 28c16.07 1.8 30.45-14 47.78-3.82-17.93 10.27-29.53 11.34-47.78 3.82m61.27 143.5c2.11 25-25.89 32.31-30.89 53.37-2.04-24.73 20.89-35.36 30.89-53.38Zm-35-119.6c-11.65 25.23-33.51 17.41-54.47 20 11.95-28.45 33.32-21.16 54.43-20.01Zm-47 64.56c-6.31 12.82-13.35 25.3-21.94 41.4-6-13.56-3.23-21.68-.34-29.42 3.82-10.19 9.12-19.83 8.13-31.21-.33-3.82 1.15-7.44 5.42-8.33 4.91-1 6.25 3.42 7.45 6.46 2.55 6.78 4.62 14.15 1.2 21.09Zm6.64 27.74c-.58-18.2 6.04-32.53 20.04-43.42.52 8.97-12.38 36.78-20.12 43.41Zm69.49 318.44c-3.54 3.79-8.56 5-13.73 4.1-7.71-1.37-12.94-6.42-12.7-13.69.77-22.4-9.56-42.61-12.44-64-7-52.38-12.13-105-17.55-157.58-1.86-18.17-1.25-36.34 8.26-57.06 9.84 26.89 14.43 51.29 19.61 75.51.79 3.67 1.17 7.81-1.9 10.3-11.23 9.17-8.61 20.62-5.84 31.89 10.31 41.84 17.14 84.29 24.81 126.61 1.69 9.36 6.76 18.16 10.53 27.12 2.29 5.56 6.15 11.16.87 16.79Zm16.65-112c-11 2.65-12.56-6-16.44-13.09-8.64-15.91-22-30.25-13.19-49-.62-9.92-1.09-18.4-1.69-26.85-.55-8-.44-16 4.75-22.66 6-7.64 12.11-18.83 22.12-17.34 9.78 1.47 5.79 14.27 7.76 21.86 7.35 28.22 2.24 57.89 10 86.31 2.59 9.7-2.41 18.18-13.41 20.8Zm42.35-1.9c-10.55 1.25-8.7-9.21-7.91-14.85 6.76-47.88-15-90.49-27-134.55-8.25-30.24-7.34-61.49-16.23-91.29-1.41-4.73.83-9.35 5.79-13.75 6.16 9.64 8 19.71 8.36 29.84 1 29.45 8.16 57.56 17.35 85.42 13 39.37 19.91 80.14 28.65 120.48 1.75 8.79.62 17.58-9.09 18.73Zm-21.64-275.24c12.45 31.2 23.77 62.72 20.15 97-.72 6.91-1.1 13.65 2.33 19.47 18.31 31.07 14.53 67.2 24.51 100.17 2.35 7.75-1.32 14-9.47 18-5.78-11-4.83-22.75-7.21-33.77q-21.24-98.55-41.67-197.37c-.8-3.76-3.41-9.18 2.43-10.92 5.39-1.57 7.4 3.56 8.93 7.42m-9.94-53.5c-.24 4.11-3.28 6.79-5.77 6.31-9.8-1.92-16.16-9.49-22.82-15.88-2.39-2.3 1.86-5.24 5-5.27 11.35-.11 14.5 11.96 23.59 14.84m-42.21-340.93c7.71-13.12 13.81-15.15 41.4-12.67-13.72 4-24.97 15.89-41.4 12.67m52.53 141.08c-7.35-3.21-16.67-25.92-10.06-32.15a48.9 48.9 0 0 0 14.2-23.65Zm2.91-103.39c.18-12.51 8.25-22.15 6.28-34.14-.56-3.41 1.58-6.12 5.56-4.33 12.1 5.39 22.5-2.22 34.41-3.9-3.82 26.42-36.18 22.5-46.25 42.37m32-55.45c-6.9-1.82-12.08-2.67-7.06-9.77 11.2-15.84 26.5-26.78 43.84-35.26 7.94-3.87 14.33 1.33 11.92 7.31-3.88 9.65-9.67 19.16-21.8 23.33-9.89 3.42-18.7 9.88-26.88 14.39Zm57.55 32.74c-2.78 1.73-28.5 10.11-24.39 6.3 0 0 19-8.11 23.12-11 14.32-10.06 15.57-10.63 27.94-26.69-4.64 17.66-14.44 23.78-26.65 31.39Zm72.06-89.67c-13 5.76-27.26 10.8-21.13 29.66.23.74-1.49 3-1.76 2.88-13.6-4.44-11.58 11.59-17.82 13.52-23.85 7.35-39.86 28.42-65.36 32.69 24.59-18.83 36.2-50.28 68.41-61.64 11.88-4.18 20.73-16.79 28.12-28.27 3.48-5.38 8.16-10.26 14.95-11.42 1.05-.18 3.84 4.45 4.38 7.13 1.59 7.79-2.85 12.4-9.77 15.45Z"/></svg>