<svg xmlns="http://www.w3.org/2000/svg" id="Layer_1" data-name="Layer 1" viewBox="0 0 864 1152"><path d="M840.78 0Q430.03.22 19.31.55C2.79.55.08 3.4.08 20.13q0 73.67.09 147.33Q.08 647.7 0 1127.91c0 20.62 3.28 23.77 23.6 23.78q361.07.13 722.14.31c33.85 0 67.71 0 101.56-.31 13.42-.12 16.12-3.2 16.42-16.59.05-2.21.05-4.43.05-6.65V577.89h.21v-555C864 5 859.18 0 840.78 0M551.12 150.38c4.18-.31 11.37-2.9 12.14 3.44.69 5.64-6.7 6.16-11 7.25-20.57 5.24-41.76 6-62.78 7.87-5.7.5-11.6 2.38-19.87-1.51 28.26-8.25 54.36-15.11 81.51-17.05m131.11 34.32c-9.34 8.27-19 10.26-28.87 9.94-35.44-1.14-70.38 2.92-105.3 8.3-21.81 3.36-47.33-2.87-64.21-15.44 66.47-10.25 131.52.25 198.33-2.8Zm-205 59.67c-12.76-9.68-37.12-29.69-50.82-38.83 19.36 2.85 41.53 24.39 50.77 38.83Zm-44.54-60c2.28 2.28-8.57 8.57-12.39 10.48-2.94 1.47-10.23 5.23-14.74 4.72a1 1 0 0 1-.67-1.51c3.21-4.27 10.71-8.52 13.36-9.73s11.13-7.17 14.39-3.92Zm-44.71.78c11.67-20.65 35-23.34 35-23.34-7.23 11.71-35.05 23.38-35.05 23.38Zm-15.25-9c11.66-20.64 35-23.33 35-23.33-7.24 11.72-35.05 23.39-35.05 23.39ZM318.43 165c-1.72-38.84 36-68.53 62.44-63.67-28.75 6.6-54.45 39.15-62.44 63.67M28.65 89c0-19 .35-38 0-57-.16-8 3-10.21 10.55-10.2q171.35.47 342.7.61c2.79 0 6.51-1.51 8.07 1.91s-1.83 5.45-3.63 7.51c-2.92 3.33-6.76 5.85-9.71 9.17-4.76 5.34-7.15 11.74-3.35 18.39 3.36 5.92 3 10.2-2.4 14.51-2.33 1.87-6.9 3.71-4.85 7.59 1.5 2.85 5.41 1.08 8.3.72 1.56-.19 2.92.15 3.84 2.81a212.5 212.5 0 0 0-33.76 15.13c-39.62 22.52-49.75 61.81-25.9 100.63 1.76 2.85 3.57 5.68 5.56 8.37 4.35 5.87 3.69 9-3.75 12.26a167.1 167.1 0 0 0-51.23 34.94c-14.06 13.89-10.15 33 9 39.05 9.5 3 10.28 7.15 8.25 15-6 23.32 0 55.55 4.21 79 1.29 7.24-5.14 7.84-3.43 8 6.28.57 12.3 2.07 15.83 3.82 3.82 1.9 2.41 5.46 2.27 8.85-.6 15-4 29.49-6.46 44.14-3.85 23.32 3.35 43.16 17.08 61.4 5.31 7.06 10.48 14.25 15.8 21.49-43.48 21.63-90.15 29.51-135.66 41.33-10.4 2.7-20 2.56-28.77-3.58-5.1-3.56-11.5-2.86-16.54-6.25-4.34-2.93-6.85-1.32-7.66 3.67-2.65 16.52-13.32 23.29-29.07 25.27-25.36 3.2-49.72 11.08-74.42 17.31-8.72 2.2-10.84.29-10.83-8.71q.2-258.54-.04-517.14m312.11 463.83c11.65 11.18 11 16.47-.62 24.11-10.34 6.76-21.24 11.91-32.5 16.87-21.58 9.5-33.71 28.58-44.68 48.19-4.51 8.07-7.78 16.85-11.37 25.4-2 4.8-4 8-7.6 1.27-6-11.06-15.3-19-24.74-26.9-4.84-4-9.65-8.24-12.86-13.81-5.26-9.11-11.3-17.22-20.84-22.58-3.41-1.91-9.14-4.25-7.67-9.7 1.27-4.7 6.84-3.74 10.58-4.56 34.5-7.52 69.44-13.17 103.3-23.38 11.08-3.34 21.15-7.12 33.22-2.64 8.86 3.28 12.14-5.98 15.78-12.27m66.77 169.93c-1.79 51.35-2.71 102.73-1.45 154.1.55 22.15-4.18 42.71-13.54 62.58-24 50.87-44.9 102.92-60 157.17-2.19 7.87-4.55 15.84-5.39 23.91-.82 7.91-4.48 9.38-11.62 9.37q-136.73-.21-273.47.2c-9.88 0-13.52-2.44-13.51-13.1q.42-238.44-.07-476.91c0-9.26 2.17-14.47 12.24-16 10.25-1.57 20.27-4.74 30.27-7.63 10.6-3.07 20.91-5.62 30.41 2.83 2 1.83 4.67 2.4 7.16.5 3-2.26 1.64-4.51-.21-6.61-3.68-4.2-1.35-6.56 2.79-6.25s10.21-7.85 12 1.91 6.32 6.19 10.43 2.67c3.31-2.85 5.44-7 8.62-10.08 1.72-1.64 4.79-3.31 7.07-1.45 2.63 2.15.21 4.67-.84 7-7.75 17-9 36.55-23.62 52.2 14.83-1.74 24.94-11.25 27.48-24.53 1-5.32 1.92-9 8.19-5.51 5.9 3.3 9.64-.45 13.87-3.67 2.72-2.06 5.89-7.42 9-4.25 3.75 3.82-.44 8-3.57 11.26-10.87 11.2-21.45 22.7-32.76 33.43-9.15 8.68-12.59 33.79-5.49 44 4.44 6.39 14.58 6.2 22.14 7.51 18.87 3.29 28.65-8.93 23.66-27.88-.85-3.23-2.26-6.39-2.59-9.66-1-9.76 5.21-14.66 12.93-18.72s11.72.57 16 5.57c9.16 10.71 16.51 22.1 14.87 37.17a11.8 11.8 0 0 0 .77 5.39c1.15 2.84 7.35 3.26 5 7.41-2.6 4.5-7.4 1-11.22 1-9.92.11-19.84 0-30.06 0 .64 5.91 5.56 5.53 8 7.93 6.24 6.08 13.07 11.67 7.64 21.91a8.58 8.58 0 0 0-.5 6.5c6.61 15.47 2.09 32.54 8.52 48.5 14.4 35.72 2.84 71.16-5 106.3-2.66 12-7.35 23.29-13 34.32-8.88 17.34-8.43 35.9-4.6 54.5.56 2.72 1.17 6.25 5.25 6.07 3.83-.17 4.47-3.11 5.07-6.21 7-35.84 17.41-70.74 28.32-105.54 10.47-33.42 8.56-66.89-2.15-100-2.11-6.53-3.39-12.91-1.16-19.65.7-2.13.92-5 3.5-5.11 17.31-.79 15.18-15 16.58-25.4 3-21.84 7-43.38 14.4-64.08 12.14-34.2 30.25-63.91 65.17-79.59a91 91 0 0 1 13.47-5.29c21.59-5.75 33.55-.31 44 19.39 18.26 34.7 22.35 72.04 21 110.52m91.15-129.58c-18.57-5.44-37.08-10.91-56.71-10.89-5.38 0-13.9.75-16.76-.39-4.12-1.65 14.85-10.85 12-12-6.9-2.76-33.12 7.1-40.46 8.17-4.65.68-9.44-.13-9.82-6.21s5-4.27 8.11-4.87c14.6-2.79 29.3-5.1 43.88-8 3.75-.74 9.43-1.62 9-6.63-.47-5.75-6.39-3.91-10-3.94-24.82-.24-49.64-.13-77.15-.13 8.5 6.34 8.79 14 10.23 21.33.47 2.36 3.37 5.13.09 6.85-3.44 1.81-5.68-1.08-6.63-4-7.94-24.6-26-43.11-38.72-64.81-6.39-10.89-12.76-21.79-13.29-35-.61-15.46 4.23-30 6.87-45 1.42-8.11 8.95-1.9 15.15-5.85-10.59-4.1-16.68-9.25-15.37-20.27.81-6.74 4.75-9.52 10-10 6.79-.59 4.47 5.44 4.49 8.95 0 7.21 2.44 12.71 10 13.83 7.8 1.14 9.15 6.27 9.67 12.68 1 12.4-1.62 24.47-3.23 36.62-1.71 13-2.09 25.94-2.27 39-.14 9.53 5.49 12.73 12.79 9.75 8-3.25 15.48-4.54 23.78-3.44 1.95.26 5 .79 5.32-2.32.31-2.76-2.49-3.3-4.47-4.09-5.25-2.11-10.84-3.55-16.35-2.68-10 1.56-11.06-3.38-10.39-11.52 1.5-18.18 6.38-36 6.41-54.28 0-22.79-9.66-40.06-29.54-51.41-7.29-4.16-14.86-6.86-23.36-3.79-3.52 1.28-6.75 1.45-8-3.06-1-3.9-3-8.4-.44-11.77s6.05-.44 9 .94a17.5 17.5 0 0 0 3 1.57c4.68 1.15 10.43 8.43 13.48 2.85 2.72-5-5-8.43-9.8-10.85-19.31-9.75-19.17-9.68-16.42-31.79 1.85-15 6.25-29.46 4.3-45.2-1.72-13.87 20.79-33.37 37-32.58 17.94.88 34.26-1.65 50.46-10.09 12-6.24 25.6-.65 38.49-.07 3.43.15 6.94 3 11-.76-6.56-7.27-14.77-12.16-22.37-17.79-2.46-1.82-6.85-3.89-4.15-7.44 2.13-2.8 5.53.32 7.74 2 9.41 7.27 19.14 14.22 27.81 22.31 7.82 7.3 16.62 10.54 26.93 11.61a208.3 208.3 0 0 1 46.69 10.47c17.26 6 21.36 18.53 11.27 33.89-.81 1.23-2 2.25-2.82 3.45-9.13 12.74-6 19.46 9.72 21.19 8.33.23 11.33 6.23 7.93 13.45A94.57 94.57 0 0 1 515.12 373c-5 3.07-9.55 7.28-9.75-2.35-.09-4-2.71-9.9-5.25-12.65-16-17.38-48-21.75-70-13.7-10.8 4-22 6.74-32.89 10.56-3.88 1.37-9.93 2.69-8.49 8.46s7.64 6 12.17 4.84c12.87-3.4 25.68-7.2 38.22-11.68 17.28-6.18 33.74-4 49.56 4 7.37 3.71 9.58 10.41 4.88 17.87s-10.15 6.83-16.69 1.5a26 26 0 0 0-19.79-5.68c-8.11.83-16.36.26-24.54.5-18.07.55-26.17 9.55-25.18 27.78.14 2.53-.52 5.73 2.67 6.63 2.73.76 5.08-1.13 6.67-3.24 2.68-3.55 4.9-7.45 7.57-11 3.22-4.3 7.38-7.5 12.92-7.92 6.81-.51 27.1 7.68 8 19.13-2.85 1.71 3.43 10.85 18.27-5.71 4.45-5 9.71-9.14 16-6.86 3.43 9.14-23.41 21.13-37.34 24.38 12.15 2.92 24-1.36 32.5-8 14.59-11.42 30-20.47 46.24-29.28 19.8-10.77 34.3-28.39 42.76-49.85 1.5-3.7 7.5-6.7 11.52-1.51 7.69 9.45 11.15 20.92 15.33 32 1.18 3.13 2.21 6.32 3.5 9.4 9.28 22.19 26.74 25.34 43.1 7.4 7.25-8 13.55-16.79 22-23.63 1.74-1.41 3.38-2.95 5.18-4.25 12.51-9.06 26.83-10.29 36.35-3.19 7.49 5.59 10.44 22.89 4.75 35.31-6.94 15.16-13.31 30.26-16.16 46.92-1.94 11.31-10.71 16.66-22.06 16.81-6.67.09-13.33 1-20 1.3-2.66.12-6.41 2.27-7.61-1.87-1-3.4.6-6.61 3.49-8.8 4.53-3.44 9.88-5 15.25-6.58 13.53-4 19.53-12.4 19.33-26.35-.18-12.05-7.12-20.64-19.45-24.21-2.18-.63-4.4-1.65-6.11.51-1.83 2.31.23 4.1 1.39 5.88s2.54 3.67 3.83 5.49c9.76 13.75 9 13-2.16 24.41-6.83 6.93-13.67 13.29-23.41 16.19-2.22.66-4.2 3.62-3.43 5.25 6.44 13.44-8.87 22.33-6.89 34.63.5 3.14-2.78 4.28-5 5.25-8.1 3.45-9.06 9.79-10.13 18-4.08 30.92-10.29 57.66-37.64 75.5-5 3.27-9.53 6.93-16 6.81-5.1-.1-9.33 2.35-12.45 6.41-11.29 14.59-26.03 13.9-41.47 9.37M341.27 403.45a4 4 0 1 1 4 4.28 4.15 4.15 0 0 1-4-4.28M461.84 396a2.94 2.94 0 1 1-2.93-3.14 3 3 0 0 1 2.93 3.14m193.45 74.42c-7.21 5.08-14.83 6.7-17 3.61s1.9-9.73 9.12-14.82 14.84-6.7 17-3.61-1.9 9.75-9.12 14.84Zm-33.57 33.91c1-1.42 2.2-3.5 3.72-3 1.92.61 1.45 2.78 1.31 4.62a89 89 0 0 1-1.75 14.16c-1 5.27-3.77 19.24-1.06 20.09 3.3 1 8.59-17.62 9.18-20.21 1.62-7 0-12 8-18.62-2 6.62-1.33 11.77-1 16.62.51 6.51.3 22.41 3.23 22.78 2.21.28 4.3-19.8 4.32-21.51.25-18.46 2-21.31 9.45-33.41 1.75-2.84.71-8.09 5.14-9.12 21.47-5 27.7-24 37.23-40 4.46-7.51 7.23-15.43 7.27-24.27 0-2.57 0-5.59 1.28-7.64 16-26.1 12.87-56.84 20.47-85 8.08-29.9 6.4-61.25 5.5-92.15-.34-11.53-.93-23.06-1.25-34.59-.2-7.25-4.29-13.27-6.08-19.71-3.37-12.14-14.49-22.51-6-38.36 5.7-10.64 2-24.83-5.11-36.15-2.17-3.42-6.13-6.43-5.36-10.7 2.65-14.72-6.51-24.5-13.72-35.2-4.14-6.17-8.48-12.25-12-18.77-5.33-9.9-4.33-11.52 6.7-11.59 21.58-.13 43.15 0 64.73 0 22 0 43.92.5 65.84-.23 9.88-.33 12.68 2.67 12.65 12.53-.26 109.82-.09 219.64 0 329.45q.09 179.25.15 358.47c0 4.29 1.08 8.83-2.05 13.72-3.64-8.67-6.59-16.61-10.28-24.21a36.6 36.6 0 0 0-19-18c-2-.86-4.22-1.88-6.22 0-1.65 1.57-.78 3.37-.2 5.14 23 69.69 18.6 140.66 9.44 211.74-3.24 25.2-14.78 35-41 37-52.33 3.79-94.28-15.73-126.54-56.9-27.24-34.77-44.63-74.38-58.11-116.06-14.19-43.85-24.29-89-42.33-131.63a192 192 0 0 0-15.86-29.43c-1.25-2.14.75-7.14 3.7-6.37 14.92 1.15 28.82-1.8 41.39-10.28 1.46-1 3.78-2.06 5.18-1.58 13 4.43 22.35-3.25 32.93-8.54 8.14-4.07 17.75-5.2 26.73-7.55 1.42-.38 3.21-.89 4.4-.35 12.77 5.78 26.19 9.17 39.79 12.44 6.43 1.55 2.06 8.23 1.55 12.66-.46 4.11-.71 8.37-6.78 8-8.78-.45-14.6 3.38-14.85 12.62s5.91 12.29 14 14.47c9.14 2.46 17.79 6.69 26.71 10 7.54 2.79 15.64 3.67 19.06-5.17s-2.91-14.51-10.75-16.29c-9.81-2.22-12.93-7.72-11.46-16.82 2.17-13.38-.13-27.81 11.49-38.89 3-2.9 5.26-5.19 9.37-6.28 5.82-1.56 9.08-6.47 10.73-11.84 1.1-3.56-2.13-6.07-4.75-8.2-1.75-1.42-3.79-2.69-6.1-1.77-2.71 1.1-2.33 3.43-1.62 5.66.84 2.66 1.35 5.67-2.13 6.26-3.18.53-2.89-2.72-3-4.75-.64-7.84-4.74-10.49-12.1-8.24-5.06 1.55-9.81-3.48-15.3-.88 1.41 6.69 9.37 6.2 12.16 13-9.63-1.27-18.58-.26-26.31-6.38-6.84-5.42-13.79-7.27-20.59.43-2.64 3-15.7 4.57-19.52 2.71-10.64-5.22-16.56 17.13-30.83 16.56a266.5 266.5 0 0 1 26.21-64.47ZM820.46 1130c-12.54-1.12-25.26-.61-37.88-.22-8.59.26-12.47-1.32-9.22-11.28 13.85-42.37 27-85 40.82-127.33 2.35-7.19 3.39-14.38 4.5-21.71 4-26 8.07-52 12.55-80.67 4 7.68 3.44 12.6 3.44 17.35 0 69.92-.35 139.85 0 209.77.12 11.09-2.7 15.09-14.21 14.09"/></svg>