<svg xmlns="http://www.w3.org/2000/svg" id="Layer_1" data-name="Layer 1" viewBox="0 0 864 2415.04"><path d="M864 14.72C864-.28 856.25 0 845.3 0Q436.15.22 26.96.11C.21.11.04.11.03 25.85q-.07 188.43 0 376.84.11 358.92.26 717.82c0 31.45 0 31.44 31.26 31.44h810c22.29 0 22.29-.28 22.29-23V574.28h-.14q.02-279.78.3-559.56M408.7 259.38c-7.08-3.88-12.35-11.6-22.19-8.5 2.89-8.57-1-17.11-1.43-25.48-.55-10.84 8.21-6.08 10.9-10.11 5.11-1 4.54 3.12 5.67 5.91 4.41 10.9 4.81 23 11.17 33.41 2.18 3.49-.17 6.93-4.12 4.77m-2.2-70.22c-.28 4.44 7.66 12.88-5.94 13.85-11 .79-19.56 8.11-26.36 17.62-4.53 6.35-7.41 9.45 1.75 13.67 2.86 1.31 6 4.83 4.06 10.76-4.68 14.27-6.08 28.81 8.7 38.28-3.75 7.4-9.25.33-13.52 5.43 4.88 8.64 11.45 15.07 18.08 22 7.11 7.45 7.27 22.32 8 34.09.28 4.8-6.87 6.62-11.66 2.07-3.12-3-5.64-6.56-9.61-11.25-3.88 11.55 2.75 17.12 6.94 23.55 2.48 3.82 7.29 7.63.74 12.19-4.38 3-7.89 4.79-12.91.1-9.93-9.26-15-6.84-12.37 6.6.73 3.78-1.15 4.75-3.26 6.15-24.44 16.28-15.28 33.75.88 46.39 2.24-9.4-7.19-16-5.18-24.45.8-3.34-3.47-9.23 3.82-9.56 5.24-.24 12-3.17 14.85 4.44 1.72 4.55 5.13 9.93 3.94 13.81-3.81 12.44 4.08 17.44 13 22.27-18.35 15.25-38.05 6.69-48.26-14.27-6.7-13.77-19.84-25.09-27.87-39.27-5-8.72-24.34-14.36 2.73-27.5-14.48 1.23-23.07 7-29.84-2.91-7.14-10.4 5.71-14.49 5.8-22.57-3.53-3.73-7.52 1.94-13.94-.23l23.15-16c-10.63-1-15.81 7.46-28.76 9.08 16.06-18 37.67-19.31 51.28-33.31q-24.13 10.14-48.3 20.27c12.72-15 31.46-20.12 46.59-30.87-17.48 2.44-31.7 12.29-49.7 22 14.68-22.21 36-27.15 60.06-36.44-28.07.23-43.89 12.77-64.07 23.73.63-14.66 10.14-21.61 11.78-36.34l-9.56 11.59c1.19-16.15 10.21-27 17-39.82-4.67-2.44-5.81 4.13-9.89 2.64 7.3-20.6 23.67-33.48 41.77-44.76-4.06-5.5-7.71 4.18-11.41-.35 23.25-25 53-35.07 87.62-35.54-12.38 5.71-26 10.57-25.43 26.69.31 8.38 7.68 12.19 13.79 16.53 5.89-5.62-5-10.51 1.46-15.38 4.2.36 5.25 3.57 5.42 7.65.1 2.36.74 7.42 3.86 3.55 9.11-11.34 10.94 1.19 10.77 3.82m-72.89 380.66c5.17 9.08 4.67 11.95-2.25 20.83-6.17 7.92-13.07 7.77-21.87 4.53-11.73-4.32-23.88-7.66-36-10.8-24-6.23-34.19-18.46-35.61-43.25-.25-4.21-1.12-8.38-2.31-17 34.26 20.7 71.38 15.93 108.43 21.18-6.59 6-4.73 14.66-9.19 20.69-.81 1.07-1.66 3-1.2 3.82m-63-67.88c24.24-19 41.46-13.69 78.56 7-27.97 11.52-52.85 8.51-78.57-7Zm4.37-66.7c17.68 15 31.1 33.83 47.7 49.68-28.61-5.5-33.55-31.61-47.68-49.68Zm49-3.82c5.79 16.16 29 8 34.79 23.78-15.05 1.97-29.05-6.94-34.83-23.78ZM258 54.59c.74-12.61 4.87-19.8 20-18.55 18.22 1.51 36.62 1.33 54.93 1.13 8.79-.1 13.26 1.6 12.2 11.56-1 9.6 3.53 17.31 12.74 23.56 1.23-8.48-3.84-14.39-3.57-21.58.28-7.56 4.92-7.36 9.66-10 7.83-4.31 8.55 1.72 10.71 5.35 2.5 4.18 4.06 8.89 6.06 13.36 1.8 4-1.23 10.21 6.28 11.65 8.82 1.68 6.37-7 11.62-12.64 1.24 15.6-1.37 23.58-14.51 31.53-7.58 4.56-16.41 14.07-23.38 22.53-5.67 6.89-1 8.6 5 10.74 3.74 1.35 7.32-4.3 11.42 1.61-10 6.62-22.29 5.14-32.89 8.78-7.23 2.49-15.09 3.13-22.56 5-30 7.5-30.3 7.72-45.44-18.05-12.01-20.31-19.72-41.94-18.27-65.98M236.63 444.1c5.71-39.2-8.73-76-13.77-114 15.05 36.78 29.96 73.58 13.77 114m-27-224.25c26.29 17.25 16.31 40.48 6.9 81.3-9.98-26.27 4.28-54.62-6.95-81.3Zm7.36-175.43c1.31-6.45 5.73-7.7 11.1-6.39 8.46 2.08 3.71 7.9 2.35 11.68-17.63 48.66-31.52 98.29-39.12 149.41C179 281.65 176.1 364.46 186 447.44c2.65 22.18 9.6 29.19 31.53 34.45-12.1 9.41-20.36 5.8-26.67-5.9-7.85-14.57-11.12-30.6-12.45-46.62-10.57-126.73-1.92-251.81 35-374.31 1.11-3.58 2.78-7.01 3.53-10.64ZM41.48 873.6q-.35-203.08-.17-406.17c0-138.11.2-276.22-.33-414.32-.05-13.67 3.78-17.34 17.51-17 43.86 1 87.75.86 131.63.57 13.94-.09 16.67 3.56 12.15 17.15-17.57 52.71-24.27 107.59-30.91 162.46-4.39 36.18-6.59 72.43-8.51 108.75-1.78 33.75 2.29 67.32 2.91 101 .44 23.3 3.41 46.44-.21 69.86-2.33 15.07.6 30.39 4.23 45.27 8.36 34.32 17.2 68.54 25.22 102.94 6.47 27.73 0 57 7.46 84.22 10.47 38.49-9.76 66.9-27.64 96.65-3.35 5.57-6.94 8.68-15.68 7.84-35.64-3.44-58.67 17.3-78.64 42.63-2.71 3.44-4.83 7.82-8.38 10-8.71 5.4-18.77 13.68-28.09 10.55-6.89-2.3-2.54-14.64-2.55-22.4m110.58 211c-26.77-46.15-75-73.08-107.39-114.21 21.67 20.12 48.67 33.17 70.27 53s31.37 48 55.19 68.84c-9.41.26-15.59-3.3-18.07-7.59ZM65.62 903.4c8.68 2.79 9.42 8.65 10 14.68 2.06 22.89 13.14 41.49 30.67 55.79 29 23.6 45.72 56.55 69.37 84.17-41.07-17.93-113.57-119.12-110.04-154.64m79.49 91.43c-14.55-33.32-26.93-67.18-54-93.35-2.62-2.54-3.89-6.42-7.25-12.19 19.16 5 35.19 11 48.8 21.8 5.22 4.15 7.45 10.48 7.24 17.49-1.69 61.17 39.58 115.33 99.51 131.1 8.83 2.31 18.32 3 26.43 8.74-46.77 2.58-101.18-28.82-120.73-73.59M283 1006.56c-4.94 9.36-12.65 13.4-23.2 11.76-6.07-.92-12.53-2.51-15.14-8.49-2.91-6.68 3.89-9.22 7.6-12.87 7-6.9 9.62-13.51 6.88-24.45-7.32-29.23-18.93-57.34-22.84-87.55a170.7 170.7 0 0 1-.13-38.6c6.4 40.71 29.1 74.16 47.53 109.17 9.5 18.02 8.3 34.1-.7 51.03m75.42 43.69c-1.17 15.74-17.52 14.25-23.56 13 24.75-16.29 16.43-35.49 5.72-55.46 9.82 4.38 18.88 28.76 17.86 42.46Zm-13-85.32c-18.54-46.74-57.26-80.43-80.86-123.83-18.69-34.39-33.36-70.09-43.08-107.78-.66-2.49-.09-5.27-.09-9.07 9.76 3.15 16.94 7.37 21.15 15.76Q309.75 874.16 377 1008.25a109.3 109.3 0 0 1-31.59-43.32Zm21.74-237.78c-.41 4 7.17 5.19 11.11 2.79 4.85-3 8.43 1.55 12.6.61a13.77 13.77 0 0 1 13.66 4c2.7 2.86-.73 4.76-2.46 6.55-4.42 4.61-9.23 5.51-14.63 1.28-1-.79-2.84-.54-6.15-1 11.9 12.45-5.39 12.13-6.67 19.11 5.2 3.62 8.47-6.83 12.14-2.25 2.32 2.88 1.37 8.27 1.9 12.7 3.68-1.6 2.33-4.86 3.43-7.08s1.67-5.7 5.09-4.91c2.8.64 5 3.52 4 6.27-4.18 11.31.74 20.61 5.08 30.7 6 13.89-2.34 24.47-17.27 22.13-24.92-3.89-46.54-13.71-61.6-35.09-3.43-4.86-10.52-7.23-15.87-10.85-25.32-17.11-32.75-43.07-36.8-70.85-3.41-23.35-6.86-46.59-6.4-70.35.14-7.71 3.08-11.14 9-13.38 16.53-6.32 38.9.6 49.38 14.93 5.27 7.21 5.89 14.88 2.75 23.17a169 169 0 0 0-7.41 24.9c11.48-11.18 22.34-21.9 40.59-16.37 15.06 4.55 27.44 13.72 40.95 20.91 4.62 2.46 7.4 8.61 15.07 6.12-21.6 9.52-44.31 14.36-63.81 28.85 5.52.54 13.5-4.15 12.31 7.11ZM822.1 856.81c-7.88 2.19-10.84-3.51-14.35-7.06-14.68-14.86-30.15-22.88-51.07-10.75-17 9.84-34.82 6.49-52.89 1.58-8.68-2.36-13.4-6.49-14.56-14.58-3.74-26-10-51.36-17.1-77.23 20.26 21.5 50.55 18.3 74 30.8 22.21 11.83 45 22.61 67.52 33.89 5.91 3 9 7.28 8.57 14.29-.54 9.7-.13 19.43-.13 29.06ZM518.67 895c17.7-14.36 27.79-33.51 35.77-53.68 5-12.74 9.8-10.71 17.64-2.32 24.4 26.17 30.44 56.29 21.88 91.42-23.79-14.83-50.8-20.82-75.29-35.42m8 33.5c-.1 5.63-6.08 4.92-10.38 4.91-7 0-14-.44-20.33 4.34 3-11 .5-23.36 13.43-28.52 4.88-1.94 10.46-4 13.78-.59 5.06 5.23 3.63 13.19 3.5 19.87Zm65.53 24.83c2.16-1.55 2.17-7.17 7-4.07 2.75 1.79 4.73 4 3.81 8-2.12 9.33-3.72 18.76-5.59 28.39-6.32-.05-5.22-4.36-7.15-5.57-16.27-10.23-9.27-18.68 1.93-26.74Zm-22.14-130.48c-3.52-2.94-2.25-7.14-1.69-10.74a38.3 38.3 0 0 1 3.35-10.71c4.65-9.55 1.21-24.23 12.48-28.7 12.48-4.94 15 12.83 24.64 15.5 21.12 5.83 23.37 23.37 30.09 39.83 10.49 25.68 24.9 49.84 28.52 79.27-16.15-3.16-26.44-7.51-30.86-25.66-5.16-21.14-2.08-43.13-9.59-64.17-7.79 6.1-7 15-4.66 20.92 4.47 11.06-3 20.71-.9 31.08 1.21 6-7.11 6-8 10.84-3-2.38-7.3-4.18-8.64-7.23-8.33-18.96-18.39-36.62-34.74-50.22Zm41.45-78.19c5.93-3.52 6.86 1.66 7.73 4.46 4 13 7.51 26.29 12.33 43.59-10.18-7.4-17.44-11.81-23.63-17.36-10.87-9.74-8.94-23.25 3.57-30.68Zm-4 158.68c1-2.84.57-6.22 1-11.95 18.44 12.61 19.08 35.41 34.62 47.19 4.56-5.49-6.42-11.45.32-14.9 8.17-4.18-2.12-8.44.48-11 25-.77 30.59 15.58 34.49 34.65 3.41 16.64 8.82 32.9 14.31 52.84-23-15.12-43.74-27.39-63.84-41-21.77-14.72-30.54-31.12-21.4-55.82Zm84.53 58c-8.23-30.58-16-61.29-23.92-92-.53-2.08-.48-4.5-1.57-6.24-22.25-35.57-28.47-76.26-39-115.64-7.58-28.38-8.3-28.19 5.35-46 22.92 29 34.53 62.38 41.87 97.31 11.08 52.7 15.15 106.71 30.78 158.53 2 6.54-.27 9-5.11 11-6.87 2.81-7.51-3.59-8.44-6.98ZM478.89 38.74c14.71 2.66 25.87 6.72 16.48 24.44 6.42-1.34 10.27-5.37 10.84-9.66 2.22-17 13.36-17.45 27.42-17.37 88.33.55 176.68.34 265 .47 23.51 0 23.53.17 23.53 23.08q0 363.84-.06 727.68c0 17.27-.14 17.26-16.32 9.69-33.18-15.53-65.59-32.09-101.82-41.39-20.18-5.17-36.3-21.46-48.46-39.1-4.6-6.7-8.38-13.95-14-19.94s-7.67-12.56-1.61-19.67c3.19 3.35 4.7 8.48 12.38 11.25-13.38-21.68.55-31 15.79-40.9 8.92-5.78 14.67-15.33 11.5-26.35-1.92-6.68 1.82-9.9 5.37-7.33 11.94 8.59 24.33-1.52 36.53 2.7 9.82 3.4 5.15-.28 1.66-4.78-3-3.81 11.75-13.57 17.39-10.69 9.38 4.79 17.82 3.52 30.75-3.54-24.4 2.49-19.12-18.32-29.1-26.55-3.12-2.6 3.8-6.16 8.59-6.21 6.56-.06 13.43.86 18.22-5.21-7.39-3.73-23.2 1.14-22-4.39 1.86-8.9-7.77-23.49 10.5-27-4.91-2.92-7.8-.35-11 .06-5.72.75-12.09.22-14.46-5.2-2.75-6.32 3.18-9 7.93-12.25 21-14.43 25.89-34.66 11.45-55.39-7.46-10.71-.78-19.79-3.56-31.79-1.82 3.84-3.63 7.69-5.39 11.4-2.7-2.4-4.1-3.18-4-3.64 1.37-6.48-3.57-14.25 3.84-19.47 2.66-1.88 5.91-3 8.39-5 1.49-1.23 3.25-3.93 2.8-5.33-4.62-14.31-5.46-14.46-1.19-30.08 3.34-12.22.13-22.31-9.76-28.36-9.53-5.85-6.78-8.65-1.32-15.31 6.8-8.3 18.29-7.24 25.67-15.14-16.85-6.56-40.11 10.89-53.28-15.32 20.8 5.51 38.14 2.48 53.92-11.19-6-.63-11-1.05-16-1.76-1.9-.26-4.42-.71-5.38-2-1.71-2.3-10.45-8.6-12.64-7.65-11.76 5.15-14.55-1.21-15.46-10.92-2.66-28.55-11.87-38-42.15-45.45-5.73-1.42-9.37.15-11.32-7.92-1-4.1 17.68-14 24.39-13.54 11.85.8 7.62 7.72 7.2 15.45 5.5-6.58 12-12 6.42-19.12-5-6.3-12.38-6-20.91-4.26-12.41 2.54-18.66 15.11-33.37 16.87 10.11-13.29 14-26.14 7.91-38.42-3.12-2.77-3.71-2.44-4-.78-1.61 8.22 3.43 20.53-5.89 23.71-10.2 3.49-9.7-12.63-17.18-15.55-20.34-8-15.54-26.22-19-41.88-1.23 8.48-18 4.83-13 18 .84 2.2-6.28 3.86-8 1.48-13.88-18.94-36-19.77-56-23.62-13.33-2.56-16.81-12.77-22.29-20.73-4.39-6.38-18.83.84-15-9.93 3.06-8.49 15.67-3.16 23.41-6.64 2.58-1.16 6.41.3 11.12.68-6.28-14.62-16.53-21.39-30.92-22-10.18-.43-13.38-12.78-23.68-12.51 1.02-6.14 2.04-12.27 3.12-18.73M660 342.92c10.7 3.19 10.8-7.31 16.48-8-12.27-10.28-28.33-14.3-47.24-19.79 26.24-7.36 43.77 1.8 57.41 17.95 3 3.62 15.56 1.53 9.34 10.09-5.42 7.45-8.38 18.62-21.06 19.28-10.53.56-21.29 5.82-32.1-3 10.28.13 19.7-.27 26.79-7.56-2.5-2.42-5.04-4.76-9.62-8.97M548.64 527.28c-12.08 3.66-24.05 7.5-35.05 13.81-3.12 1.79-7.08 2.09-8.45-1.65-1.94-5.27 3.24-4.12 6-4.93 10-3 17-9.36 23.72-19.91-11.82 4.1-21.65-3.93-32.4.24 11.89-14 31-10 45.44-17.43-4.27-2.29-9.16-4.35-13.15-3.13-10.52 3.18-20.69 4.85-21.47-7.15-.11-1.57-2.93-3.06-4.61-4.45-16.63-13.78-16.54-13.58 3.57-23.23 4.49-2.15 10.14-3 13.53-8.47-8.38-.88-14.42 3.78-24 7a1.74 1.74 0 0 1-1.35-3.2c16.42-9.53 32.62-11.54 49.16-15.67-16-5.57-29.14 1-42.3 6.11a2.45 2.45 0 0 1-3.1-3.35c2.53-5.39 6.69-7.86 14-8.2 14.75-.7 29.08-3.94 44.3-.54 6.63 1.49 13.79-9.36 23.25-3-10.9-10.18-32.17-15.71-43.58-8.39-8.36 5.34-17 1.92-25.41 2.89-4.16.47-2.79-3-3.2-5.65-.83-5.23-1.88-5.92-3.43-11.43 9.3-4 20.25-4.54 31-12.51l-32.2 5.33c-2.79-7.76 5.8-13.58 2-20.71-5.08-.26-.92 11.64-9.09 7-2.54-1.42-7-2.77-6-6.67 1.12-4.48 3.57-7.7 9.81-7.59 9.52.16 17.85-5.36 27-7.37 2.07-.47 4.84-3.11 6.13 1.71 1.93 7.14 12.33 13.13 20.7 12.35 2.64-.23 6.48-.57 7.51-2.22 2.36-3.76-1.66-5.74-4.3-7.35-8.7-5.33-8.62-10.09 1-13.78 11.44-4.43 19.45-12.25 24.71-22.82 4.47-9 8.82-7.12 14.51-1 6.89 7.39 7.83 16.64 8.92 25.62 1.28 10.52 3.21 21.74 10.31 28.79 19.61 19.47 13.38 40.14 6.72 61.77-6.11 19.83-12.12 40 7.32 56.93 1.63 1.43 1.49 4.88 2 7.43 3 14.34-1.71 27.93-14.31 33.29-10.37 4.45-23.35-4-30.58-11.52-6.74-7-15.87-8.55-22.21-14.78-5.99 6.9-14.87 5.55-22.42 7.83m2.94 41a19.68 19.68 0 0 1-12.67 2.91c-4.56.36-8.8-.47-12.4-3.51-1.89-1.6-2.62-3.6-1.43-5.69.72-1.26 2.29-2.05 3.47-3.05 6.47 9.27 13.6 4.94 21 1.29.91-.45 4 1.6 4.85 3.14 1.21 2.17-.77 3.68-2.82 4.86Zm-14.19-322.51c10.35 2 10.65-7.65 14.26-13.39 5.95 3.8 2.41 9.53 5.22 13.52 6.47 9.22 4 10.94-6.34 7.12-8.9-3.29-13.15 8.16-24.36 8.36 7.2-4.64 4.9-12.6 11.28-15.86 0 0 .17-.18.18-.28-10.94-1.69-19.18 6.43-29.85 8.81 1-3.67 1.66-6.5 2.41-9.39-6.5-.84-7.49 8-15.38 6.57 6-6.64 11.64-13.58 10.32-21.75-.8-5 1.52-4.15 3.76-4.32 2.59-.17 6-.45 5.08 3.95-3 15 4.62 14.57 15.38 10.45 5.49-2.11 10.34-2 8.42 5.66a1.9 1.9 0 0 1-.38.5Zm.18-40.68c-1-3.26 8.43-4.33 12.76-2.16 4.05 2 3 6.28.46 9.68-5.27 7.1-17.33 9.31-27.53 4.83 4.82-4.99 19.29 3.78 14.31-12.44Zm11.71 95.46c-6.72-6.31-17.84-.16-24.63-9.86 12.5-7.1 21.75-1.58 30.13 5.55 1.64 1.41 5.63 6-.33 9.14-7.63 3.94-3.45-3.28-5.17-4.88Zm48.24-3.33c3.45 10.12-.18 12.63-15.62 11.34 15.72-15.12 1-40.44 20.42-54.15-10.01 13.44-10 27.53-4.8 42.76Zm47.31-70.82c-9-.4-18.76.52-15.64-12.07 1.42-5.72.12-7.87-5.14-8.14-6.4-.33-11.92-1.52-13.82-8.57 14.39-10.27 23.25-1.65 28.46 9.9 2.45 5.41-3.04 13.9 6.14 18.83ZM672.76 537c5.55.52 17.72-1.91 19.29 12.68-9.49-5.43-16.74-5.93-23.1 2.75 4.18-5.64-2.7-16.06 3.81-15.43m16-35.46c-6.59-9.22-9.64-13.79-4.87-20.21 5.23-7 8.33.71 12.41 1 5.16.38 10.62 3.89 14.9-5.69-.72 12.51-3.83 17.24-14.53 11.87-10.14-5.11-11.39.34-7.93 13Zm27 88.36c5.73-5.53 10.76 1.44 16.06 6-7.94 5.84-14.83 11.56-21.9 6.82-3.03-2.14 3.9-10.96 5.85-12.85Zm2.6-91.64c-3.36-2.15-3.93-4.12-3.34-5.4 4.13-9.05 11.87-6.12 19.54-3.9-7.65-1.22-2.91 17.83-16.19 9.27Zm-3.11-87.57c-10.21-6.25-16.84-1-24.11 5.89-5.16 4.87-10.56-2.65-16.34-3-1.55-.09-7-5.07-6.62-9.73 12.4-8.88 32.35.55 42.75-14.32 4.97 6.8 4.97 6.8 4.33 21.13Zm-232.07 129c4.6 1.11 14.07-.07 14.08 6.23 0 8.57-9.77 10.18-17.36 14.34-3.85-1.58-5.53-5.41-5.57-9.41-.02-5.85 4.59-12.26 8.86-11.23Zm-11.66 135.53c21.24-3.86 15.65-23.31 23.68-34.38 2.93-4 5.16-6.4 10.23-1.43 2.7 2.64 8.32 2.44 13.29 2.91-12.7-8.13-2.9-20.18-.06-23.17 13-13.72 22.19 5.23 35.94 7.23-6.15-15-22.13-15.25-31.65-24 24.27-1.36 47.43 2.38 70.43 8.75-6-6.58-15.58-6.64-22.36-14.34 14.51-2.85 27.22 3.78 42.08 3.42-10.88-9.19-23.77-7.15-36-11.55 12.44-10.93 24.8-14.21 39.68-6.88-1.66-6.63-7-6.45-11.49-8.87 10.56-5.17 18.6-7.22 25 4.86 3.92 7.42 11.15 12.59 21.26 15.67-15.43-1.58-14.68 8.57-14.19 16.91 2.76 47.68-11.16 90.62-37.2 130.39-8.43 12.87-19 23.87-30.44 34-24.32 21.63-46.81 44.72-63.34 72.79-5.92 10-13.88 13.9-20.47 2.29-5.68-10-12.24 4.81-17.21-4.58 8.37-20.2 31.51-16 47.89-25.76-2.65-11.76-12.06-17.11-27.18-18 6.52-6.32 3.22-14.59 9-20.32 8.53-8.51 15.23-15.38 30.7-15.33 25.09.1 46.71-11.79 55.65-37.79 1.62-4.76 5.43-6.69 9.24-8.7 12.78-6.8 12.11-20.57 17.26-31.32.92-1.91-.89-2.36-2.2-3.13-3-1.73-3.5-.17-4.21 2.3a192 192 0 0 1-6 18.38c-4 9.75-12.22 12.84-22.3 12.8-2.38 0-6-2.52-5.94 3.5.17 12.89-10.44 15.74-20 15.56-10.46-.18-19.21 2.32-28.43 6.52-21.58 9.86-30.91 2.38-31.67-20.76-.31-9.26-3.74-14.92 7.54-16.26.09 0 1.47-.05 1.87-.49q3.42-6.86 6.88-13.71c11 5.92 19.8 16.21 33.9 16.52-18-8.11-26.73-31.2-54.29-30.39 11.85 7.45 1.51 14.31 2.19 23.36a2 2 0 0 0-.4.17c-8.34 4.94-15.28.94-17.93-4.51-3.41-7.05-2.63-22.01 1.26-22.73Zm-4.9 206.13c5 1.54 3.17-7.39 7.33-5.06 1.74 1 1.25 5.8 1.8 9 6.56-2.65 2.83-11.41 9.68-13.71 6.26 3.79 1 11 5 16 6.16-3.24 8.1-9.08 8.83-14.43 1.73-12.7 7.28-12.27 15.65-5.54 6.26 1.36 10-.75 13.31-6.51a127 127 0 0 1 18.07-23.9 66.9 66.9 0 0 1-24.42 38.32c-7.7 10.33-15.85 20.38-22.89 31.13-2.92 4.46-5.27 4.23-9.3 2.74a147 147 0 0 0-15.5-4.86c-5.16-1.29-13.59 6.68-14.42 1.1-1.17-7.63 4.24-16.19 6.87-24.35Zm-3.3 79.94c-5.75-7.87-5-15.19.32-22.92 2.31-3.34 3.2-7.77 4.17-11.84s1.41-12.21 2.86-11c5.49 4.73 13.06-.86 16.54 3.77 3.34 4.45 2.31 10.35-2.55 14.53-8.97 7.68-8.66 22.39-21.33 27.39Zm20.7 25.57c-2.26-2.75-3.88-4.92-.18-8 7.56-6.33 10.08-13.81 8.83-24.16-1.15-9.63 8.77-10.87 16.3-12.08 23.65-3.79 23.68-3.69 27.72-25.12.54-.1 1.15-.4 1.61-.26 32.49 9.52 29.65 8.22 15.49 37.61-14 29.13-38.18 32.33-64.87 35.59-4.79.49-3.55-2-4.92-3.65Zm4.94 90.81c6.56-21.27 19.42-39.47 29.38-59.09 2.44-4.83 6.35-7.48 10.85-9.23 14.17-5.48 23.74-15 29.2-29 4.61-11.8 11-13.48 20-3 10 11.58 14.87 23.08 7.25 38-9.37 18.33-16.77 37.67-26.66 55.71-11.62 21.2-34.36 22-49.83 25.43-20.1.92-24.49-4.93-20.15-18.89Zm108.58 36c-6-.74-12.19.05-18.28.11-33.42.37-32.9.61-19-28.41 18.39-38.25 40.65-75 48.64-117.47 1.71-9.08 6.44-9.64 13-2.81 9.9 10.3 21.56 18.49 36.58 25.51-12.57 7.66-12.92 13.34.09 17.59 8.32 2.7 16 6.8 25.29 7 9.58.25 12.77 5 5.66 13.08-21.63 24.53-43.43 48.93-64.89 73.61-7.19 8.36-15.36 13.19-27.08 11.73ZM819.87 898c-21.68 55.58-21.67 111.11-1.27 166.87 4.84 13.25 1.91 26.93 2.8 40.39.39 5.74-2.86 8.48-7.91 7.89-6.93-.83-13.75 2.83-20.68-5.3-11.73-13.75-26.62-24.91-42.7-39.43 3.55 17.87 6.29 32.19 18.85 45.17H623.15c28.82-31.39 56.34-60.81 80.51-92.93 3.09-4.09 14.3-8.9-.67-13.91-2.92-1-.29-13.75-3.2-19.66-5.36-10.82 3.14-11.43 8.89-14.65 6.91-3.87 9.62-8.16 6.39-16.89-11.09-30-14.08-61.75-20-92.84-1.41-7.37-3.79-16.74 11.55-11.7 19.65 6.43 39.45 2.86 57.77-6.24 10.74-5.34 19-2.64 26.89 4.86 6.39 6 12.24 13.15 19.72 17.41 14 7.96 13.34 19.48 8.87 30.96m1.22 39.55v83.09c-9.87-27.64-8.49-55.36 0-83.12Z"/><path d="M241.45 2336.45c-.64 4.64-3.58 8.05-6.59 7.65s-4.89-4.53-4.25-9.16 3.61-8.06 6.6-7.64 4.89 4.52 4.24 9.15"/><circle cx="311.59" cy="2386.26" r="27.78" style="fill:none;stroke:#000;stroke-miterlimit:10;stroke-width:2px"/></svg>