<svg xmlns="http://www.w3.org/2000/svg" width="2048" height="1920" viewBox="0 0 2048 1920"><defs><clipPath id="clip_1"><path d="M0 0h2048v1920H0Z"/></clipPath></defs><g clip-path="url(#clip_1)"><path fill="#231f20" d="M1702.673 1549.615c-.955 18.451-8.027 30.706-27.823 13.522-13.833 20.457-41.013 17.496-57.886 33.395-27.764 26.108-53.892 53.95-71.31 87.598-10.93 21.121-23.244 19.757-40.604 13.21-57.36-21.627-85.65-72.167-75.11-134.262 4.852-28.64 9.762-57.282 13.503-86.059 1.325-10.132 2.864-22.25 10.482-26.186 12.528-6.488 18.315 8.436 25.855 15.14 8.962 7.967 16.035 18.08 23.906 27.276-26.128-48.203-17.048-98.685-15.51-147.804 2.222-70.219 1.794-140.477-1.265-218.217 44.286 31.447 78.81 61.023 110.102 94.555 8.339 8.943 17.594 17.048 25.504 26.322 21.783 25.524 63.166 43.41 61.257 77.896-2.455 44.111-27.92 84.481-56.678 119.902-5.962 7.346-12.606 14.145-21.666 24.238 23.458-.818 36.512-14.028 50.54-24.277 24.277-17.69 44.56-10.599 46.976 19.503 2.24 27.901 1.169 56.211-.273 84.248m-340.768-78.628c-59.405 7.365-119.922 6.274-178.548-7.969-63.653-15.49-88.885-75.382-60.107-142.737 18.587-43.527 36.824-86.235 97.788-90.19 27.044-1.734 46.41-35.402 79.026-40.527 32.752-5.143 60.127-2.59 85.28 26.537 27.102-54.476 17.847-106.38 3.313-159.18 48.845 46.02 66.244 105.152 73.472 167.15 5.203 44.714 6.255 89.916 1.773 135.411-6.82 69.245-32.615 102.893-101.997 111.505m28.075 160.421c-9.86 31.134-39.514 30.98-60.342 3.702-21.763-28.485-40.233-60.186-73.55-77.935 34.213 46.468 41.753 98.353 40.642 160.214-46-32.674-65.003-41.11-145.29-49.274-47.058-4.785-36.882-59.523-39.512-96.269-2.3-32.226 2.455-61.335 36.298-76.396 3.215-1.44 7.13-1.948 10.716-1.909 64.549.857 129.235-4.403 193.609 5.553 23.75 3.663 37.838 17.925 43.702 38.636 8.885 31.388 3.137 64.004-6.273 93.678m-292.412-143.77c-9.254 0-16.775-7.502-16.775-16.776 0-9.255 7.52-16.776 16.775-16.776 9.275 0 16.776 7.521 16.776 16.776 0 9.274-7.501 16.775-16.776 16.775m-18.47 151.196c-13.385 58.392-23.848 59.503-84.306 59.892-22.31.137-50.443 6.216-72.85 18.315-20.516 11.086-27.803 2.474-33.901-15.762-16.776-50.249-16.6-96.172 30.14-131.632 9.45-7.15 19.232-13.853 28.857-20.77-2.183-2.454-4.345-4.89-6.508-7.325-46.274 14.281-90.6 34.447-128.826 63.653-73.512 56.171-147.94 15.353-178.763-53.405-5.26-11.729-15.567-22.25-10.23-39.63 25.194 29.576 48.087 59.737 84.385 74.681-21.588-33.297-51.554-60.653-66.225-104.413 32.129 15.84 57.048 39.61 97.438 43.82-26.186-19.485-49.021-32.773-68.115-57.692 27.647-2.24 49.313 8.592 71.992 11.71 89.294 12.235 178.45 21.607 268.466 3.623 42.63-8.514 76.843 18.373 77.779 60.75.7 31.37-2.32 63.615-9.333 94.185m-501.276-288.37c-34.564 44.13-24.452 79.65-7.247 120.447 14.417 34.194 20.496 70.122 23.302 106.42 1.11 14.087 10.093 35.324-7.735 42.514-21.783 8.787-47.053 17.457-69.732-.02-13.307-10.248-25.037-22.58-37.487-33.979-1.851.643-3.682 1.286-5.533 1.91 3.41 7.812 6.819 15.605 12.918 29.595-33.571-14.184-47.23-40.76-69.44-65.134 1.09 25.738 19.386 38.402 23.789 57.555-87.618-24.49-162.338-105.68-162.727-175.607-.078-14.574-2.69-30.51 13.21-39.084 17.379-9.372 26.439 5.28 37.31 14.515 18.062 15.334 36.416 30.317 60.829 39.202-15.412-17.477-30.706-35.07-46.274-52.43-51.865-57.77-33.63-152.597 36.922-186.07 52.82-25.037 107.715-48.913 164.47-62.824 32.909-8.066 66.099-26.205 102.475-37.447-14.885 78.733-18.938 176.433-69.05 240.436m-308.173-51.582c3.097-37.078 16.405-61.296 40.194-81.033 40.448-33.55 84.462-59.114 133.93-78.85 97.088-38.734 197.098-68.525 295.08-104.277 8.107-2.942 15.627-6.995 31.039-.585-90.151 35.597-172.294 77.876-262.621 99.27-56.268 13.326-106.458 41.325-155.733 69.907-35.323 20.497-48.787 62.582-81.89 95.568m42.417-135.412c15.216-7.5 30.862-14.632 47.014-19.698 96.639-30.356 177.652-97.867 279.162-116.727 28.563-5.319 56.736-12.567 86.858-9.37-148.446 55.215-297.828 107.432-441.91 177.592 1.326-17.613 15.295-25.114 28.876-31.797m219.152-132.937c-63.83 42.085-130.99 75.967-208.495 83.994 57.087-59.737 133.093-71.038 208.495-83.994m-39.708-51.476c64.062-11.223 128.32-12.45 193.16-2.767 44.736 6.664 90.25 2.981 135.218-2.123 16.97-1.929 33.726-4.754 51.067 1.578-109.557 22.484-221.608 24.686-332.781 37.798 17.437-16.62 41.617-16.21 61.003-28.115-81.461-6.76-143.79 61.16-228.524 59.055 32.596-41.87 75.207-57.438 120.857-65.426m386.05-45.943c-37.448 7.365-72.791 16.113-111.817 15.548 53.619-58.704 53.619-58.704 111.817-15.548m-75.305-424.685c-2.104-98.958-6.882-209.44 12.952-316.699 1.11-5.942 3.84-18.339 6.639-25.79 1.148-3.06 2.426-6.99 4.842-8.685-.468 55.47 1.888 110.131 20.339 160.262 2.942 7.95 6.82 15.987 11.049 23.216 8.573 14.671 16.074 21.023 26.946-.215 37.448-73.18 118.052-100.633 193.687-67.218 21.023 9.293 37.234 23.263 41.734 54.145-39.337-19.445-78.831-18.802-118.402-17.107-42.435 1.832-71.35 24.764-96.172 60.205 13.99 2.981 17.185-6.858 22.348-11.632 9.917-9.157 44.852-17.808 44.54-12.294-.507 8.904-29.615 25.31-26.225 30.044 1.909 2.67 26.809-12.158 33.142-7.307 3.214 2.455-27.55 11.164-25.427 13.873 5.807 7.384 26.362-6.06 29.284-2.709 3.059 3.527 30.765 31.583 33.94 34.331 17.614 15.197 37.156 19.425 59.99 22.68 14.594 2.064 17.634 19.521 19.953 32.224 2.2 12.061-9.12 14.79-18.607 18.51-16.737 6.547-35.48 8.885-50.99 22.913 16.796 10.696 32.052-12.255 48.476.877-10.443 4.54-20.05 8.884-29.81 12.878-9.664 3.936-17.81 13.83-27.784 7.243-11.535-7.598-7.676-19.712-5.63-31.44 2.922-16.66 1.305-44.93-4.092-69.597-2.825 9.761-2.923 39.396-9.761 36.493-9.235-3.916-9.49-34.857-13.873-35.987-9.84-2.493.293 40.234-9.254 34.701-6.177-3.585-14.38-37.896-19.796-38.539-.39 4.696 2.962 37.682 2.572 42.377-7.317-13.686-12.135-20.136-17.785-36.97-7.66-11.234-12.785-7.725-9.531-1.296 12.41 25.816 24.569 51.788 37.35 77.448 11.729 23.517-1.052 26.03-18.841 21.062-22.211-6.177-44.91-12.43-65.348-22.738-24.471-12.333-45.592-29.459-24.997-63.244-27.336 26.907-20.846 75.285-19.433 110.348.33 8.213-22.52-7.022-20.425.433 4.7 16.731 11.076 43.627 16.282 60.59 9.138 29.81 17.113 62.043 26.264 93.354-37.097-61.919-58.607-127.754-60.146-200.74m323.722 6.585v11.184h-32.714c24.102-.857 32.714-11.184 32.714-11.184m-32.187 39.67 31.66-8.223c-23.107 6.897-28.855 19.055-28.855 19.055Zm63.945-5.359c-12.002 31.505-45.436 135.12-53.99 168.845-4.266-10.423-9.507-20.574-12.47-31.368-1.324-4.852-22.717-52.704-20.905-57.32 1.11-2.768 19.055 35.654 30.92 36.531 10.23.76 37.76-105.816 56.445-116.688m15.1 58.685c-3.644 35.09-5.027 66.322-10.463 96.814-9.08 50.99-1.227 102.075-2.396 153.044-.702 30.824 28.076 51.671 51.982 73.181-32.167 7.21-43.39-7.696-57.516-32.07-33.57-57.886-12.138-116.785-6.975-173.775 2.24-24.647-9.86-48.748.994-72.81 6.312-13.99 8.027-30.122 24.374-44.384M1036.312 837.29c-26.712 33.785-30.648 75.864-57.945 44.417-35.83-41.285-84.013-66.01-128.222-97.262 20.926 38.753 54.788 66.361 85.923 96.074 19.328 18.431 41.48 33.901 62.036 51.125 6.254 5.241 15.022 10.814 10.112 20.906-3.331 6.858-10.501 9.878-18.49 9.742-14.457-.273-28.426 1.032-42.728-5.767-60.184-28.622-136.187-156.492-131.628-221.703 1.422-20.185 2.123-36.65 6.799-67.474C857.2 784.424 924.177 851.163 1036.312 837.29m27.71 75.736c2.143-22.309 16.795-45.358 37.779-48.495 17.145-2.572 26.907 19.678 30.706 39.104 3.739 21.942-1.364 38.89-26.225 34.817-15.295-2.513-45.32 6.332-42.26-25.426m-22.781-363.702c24.1-.857 32.713-11.184 32.713-11.184v11.184Zm-96.97 85.533c-11.944 10.151-21.861 18.568-31.778 27.005 36.025-25.25 62.562-20.867 85.572 16.834 6.134 10.052 23.642-6.917 33.072 7.134 1.545 2.301-.232 3.937-2.995 4.154-34.378 2.704-70.817-1.613-113.603 15.813 43.84 2.48 77.603-3.43 118.604-4.358 3.112-.07 3.699 4.6.786 5.696-32.55 12.265-67.482.322-81.982 38.467 17.97-5.123 34.67-14.887 64.73-13.088 9.077.543 19.576-.083 22.752 12.796 2.728 11.028-5.024 26.01-11.446 33.194-17.494 19.568-47.801 2.053-68.151 13.75-26.141 15.026 57.263 20.625 53.249 22.477-17.407 8.03-59.222-2.184-82.217-14.406-14.531-7.724-32.805-35.067-41.907-56.457-22.387-52.547-34.116-109.615-52.821-172.469 40.624 23.848 73.61 43.215 108.135 63.458m23.672-37.818c4.092-2.61 10.035 12.236 13.717-3.72 3.293-14.322-.838-27.453.234-40.858.682-8.398 4.842-18.515 14.759-16.392 8.592 1.851 7.486 12.181 3.809 19.12-8.352 15.761-3.371 32.985-3.488 49.683-.117 15.684 1.5 31.388 2.514 49.937-23.965-6.722-37.74-25.68-59.29-39.845 9.197-7.053 31.428 1.618 27.745-17.925m-75.362-68.777c29.81 2.572 47.618 21.062 47.618 21.062-15.587-4.11-47.618-21.062-47.618-21.062m73.122 67.823c-41.15 3.955-74-8.534-92.294-49.625 26.79 24.18 70.667 15.51 92.294 49.625M667.2 1112.097c-.78-13.132 6.897-14.534 13.716-17.32 33.22-13.62 66.79-26.4 106.518-41.929-19.854 45.065-28.661 85.825-25.816 129.08 2.883 43.935 8.865 49 46.819 32.225 54.67-24.16 90.54-17.185 125.24 27.2 10.19 13.034 17.264 15.1 28.74 3.876 21.139-20.69 43.448-17.223 66.907-3.78 53.989 30.98 85.065 113.28 61.607 169.51-12.684 30.432-40.43 46.603-70.667 52.176-116.688 21.451-230.551 17.983-334.73-48.63-48.183-30.786-64.53-77.02-48.884-132.003 15.859-55.743 34.077-111.408 30.55-170.405m602.39-83.86c17.106 6.956 16.17 20.322 10.677 33.337-11.495 27.257-35.032 39.708-62.504 44.481-13.054 2.28-26.868-.078-40.253.74-37.272 2.3-60.321-12.39-64.9-51.398-.82-6.936-4.618-13.54-8.982-25.718-15.704 37.545-33.22 44.871-52.392 4.111-4.033 7.657-7.072 11.36-8.027 15.53-13.561 59.482-13.483 58.84-76.162 57.592-39.28-.799-73.784-14.418-106.303-34.583-18.022-11.164-27.335-21.315 1.442-32.577 41.89-16.405 82.708-35.44 124.014-53.327 30.667-13.268 59.25-15.762 85.436 26.03 3.779-39.707 21.743-44.793 47.033-38.499 52.197 12.937 101.354 34.174 150.92 54.281m198.072 61.018c-60.965-52.022-150.823-116.182-222.328-113.279 77.973-21.217 170.618 39.67 222.328 113.28m107.043-42.885c-81.305-9.41-148.017-48.923-214.106-89.956 76.532 18.763 152.557 38.753 214.106 89.956m34.895 62.776c-46.527-1.383-99.912-26.34-132.411-61.938 53.425 12.353 115.578 41.422 132.41 61.938m44.483 51.983c-56.815-12.04-113.668-23.984-155.071-70.843 50.91 25.368 108.894 34.74 155.07 70.843m0 99.893c-28.29-38.032-123.8-114.077-123.8-114.077 92.49 41.091 123.8 114.077 123.8 114.077m30.629-38.948c-36.707-9.41-58.958-25.913-75.89-50.073 24.745 12.86 53.99 18.14 75.89 50.073m183.962 420.085c-13.515-39.474-41.36-60.166-82.856-65.154-7.184-.857-13.872-5.104-20.938-7.228-17.166-5.144-24.926-16.97-20.718-33.395 11.828-46.118-4.168-86.624-25.641-125.572-10.876-19.717-12.543-35.285 6.35-50.793 16.592-13.6 16.869-33.006 19.965-52.762 4.287-27.394-16.095-47.014-15.44-73.784 2.66-108.914-46.26-199.006-144.12-242.318-122.685-54.32-230.8-133.14-353.471-185.893-50.468-21.703-62.795-44.846-50.81-104.427 28.004-139.229 20.03-279.614 15.465-420.013-2.004-62.094-10.538-123.565-42.59-184.82-14.625 63.515-1.17 123.993-19.348 182.62-44.316-29.383-89.881-42.943-141.818-42.729-52.71.195-94.803 22.874-137.332 50.307-13.535-60.75-11.65-121.13-22.326-188.582 0 0-20.104 30.998-34.492 89.313-23.061 93.404-21.473 175.352-19.37 284.13.517 27.276.675 65.191 5.359 92.916 6.608 39.104 14.745 63.342 16.492 102.29 3.135 69.887-29.551 112.361-95.736 132.994-10.618 3.312-20.957 7.501-31.475 11.125-50.805 17.497-98.336 40.39-137.571 77.78-27.665 26.38-62.672 40.35-99.486 45.746-97.74 14.301-137.57 93.132-189.447 158.89-2.104 2.688-3.314 7.111-2.898 10.481 6.629 53.775-31.197 100.77-21.93 156.22 7.304 43.604 1.31 89.235 6.828 133.287 2.44 19.523 3.175 37.272-6.906 52.372-14.944 22.367-22.05 45.923-23.28 72.07-.813 17.4-7.78 31.914-17.9 46.78-8.554 12.567-22.763 24.666-21.096 44.851 18.714-15.665 42.35-40.039 58.326-25.523 19.35 17.574 61.383 14.943 54.02 60.087 40.565-49.742 40.545-49.742 69.48-.078 7.998 13.716 15.817 27.55 24.29 40.955 8.138 12.898 22.089 26.848 34.572 24.744 25.859-4.365 38.799 12.567 56.005 23.068 9.347 5.71 15.24 17.672 33.876 17.925-18.813-24.939-12.105-43.857 4.446-61.12 25.958 16.366 19.866 44.793 22.048 73.512 24.45-35.694 61.919-55.938 64.678-99.152.813-12.665 15.42-8.924 25.045-8.476 12.403.604 17.722 8.904 18.079 19.445 1.032 31.232 32.706 41.17 41.875 66.556 8.83-50.989 34.769-73.492 93.136-80.097 48.979-5.553 92.084 28.232 87.3 74.505-3.452 33.317 19.807 56.912 19.966 88.787 23.279-44.793 55.052-67.472 105.598-52.664 8.217 2.396 11.69 3.624 15.024-7.209 9.942-32.382 36.198-40.195 68.09-44.832 43.502-6.313 68.686 36.7 98.455 61.678-18.358-29.888-7.343-56.425 9.149-77.662 12.205-15.723 56.553-12.12 94.5 10.232 20.302 11.96 35.945 32.067 8.796 60.143 31.138-1.598 53.723-2.292 80.534-1.61 21.91.565 32.964-3.039 29.808-27.238-1.23-9.43-5.001-21.763 13.138-24.608 41.716-6.527 89.782 25.72 96.669 66.693 53.027-51.184 81.208 27.588 128.42 22.133-10.993-44.754 22.923-85.942 11.313-132.995 18.04 39.123 39.136 73.63 84.622 85.553-20.977-43.059-21.215-88.456-26.652-132.859-1.032-8.495 3.81-9.45 9.843-11.963 16.61-6.897 32.944-7.813 50.805-4.267 49.972 9.956 92.144 37.33 142.61 61.802-8.771-14.32-16.034-22.582-19.328-32.167"/></g></svg>