<svg xmlns="http://www.w3.org/2000/svg" width="1984.25" height="1984.25" viewBox="0 0 1984.25 1984.25"><defs><clipPath id="clip_1"><path d="M0-.002h1984.252V1984.25H0Z"/></clipPath></defs><g clip-path="url(#clip_1)"><path d="m1319.447 875.586 40.596-43.458 94.212 21.348 62.043 44.22Zm205.276 115.89-6.893 49.557-91.915-1.525-90.383-115.889Zm-178.468 50.32-76.596-40.41 25.277-85.39 100.34 124.274Zm-96.51-65.569-52.852-72.43 21.448-28.21 50.552 19.822Zm-124.852-52.608 17.617-104.452 56.681 48.032-29.106 40.41 27.574 54.131Zm67.205 119.503-1.187 7.571-11.313-2.143-15.602-19.014-.26-11.102 13.533 2.723Zm103.604 237.313-146.298 221.866H871.362l-148.628-225.71 75.064-126.563s.797-3.78 3.095-3.018l6.128 121.226 70.468 101.403 97.277 67.094 95.744-64.807 72-105.215 8.426-182.22-29.106-45.745 3.063-10.674 13.022 3.811 27.574 44.221 12.256 3.813ZM415.617 1269l-163.149-234.828 68.17-131.138 34.468 36.597 198.383-34.309 3.83 4.574-158.553 74.718 13.787 76.243 202.978 3.05 154.724-83.867-32.17 67.093-111.064 39.647-46.723 87.68.766 28.971 15.32-4.575 65.105-86.916 120.255-35.072 27.575-45.745 14.553-3.05 3.064 11.436-29.107 44.983-3 37.36L706.744 1269Zm-144-452.12v-3.812l104.17 63.281-16.85 33.547Zm35.234-107.502 106.468 35.834-27.575 73.193-78.127-102.165s-2.298-3.813-.766-6.862m162.383 131.137-78.128 50.321 43.66-116.652Zm62.042-60.23 29.873 35.833s-52.85 6.1-69.702 9.911l-27.575-68.618Zm57.447 51.844 40.596 43.458-196.85 22.11 62.041-44.22Zm-65.106 206.618-91.915 1.524-6.894-49.558L614 922.857Zm130.978-123.514 25.277 85.393-76.596 40.408-49.02-1.525Zm-64.34-120.463 171.574 28.21-32.936 30.497-58.213 21.348-81.19-74.718Zm139.404-58.707 77.362 64.044-85.787-10.674-11.49-18.299Zm27.543-53.275 57.478-97.749 30.64 12.198-56.682 50.321 55.117 91.65-85.02-44.22c-4.597-2.288-1.533-12.2-1.533-12.2m99.606-154.106h294.128l-11.489 22.111h-48.256l-31.404 37.36h-16.085l-31.404-27.449h-75.83l-30.639 26.685h-14.553l-32.17-36.596-11.489-.763Zm20.681 136.475v22.873l-26.042-.763-22.213-28.209.766-18.299 19.15-1.525Zm223.17-25.16 18.397.007 2.33 18.977-24.856 29.262-22.956.946-.314-25.938ZM934.17 588.151l11.49-12.199h59.744l9.957 11.436-10.723 10.675H945.66Zm86.553 24.397 16.085-9.91 40.596-.763 12.255 15.248s-26.042 20.586-34.468 33.547c0 0-12.255 15.25-6.893 31.26 0 0 8.425 18.298 13.787 25.922 0 0-91.915-17.536-174.638 1.525l-.767-6.862s12.256-11.436 14.554-26.685c0 0 4.595-21.348-40.596-56.42l9.957-17.535h39.064l17.617 10.673s68.937 6.1 93.447 0m76.596 308.021-64.34 48.796H915.786l-62.809-48.033-19.914-68.619 26.808-88.44 65.872-46.51L974 730.725l49.787-12.962 65.872 46.51 26.043 86.153Zm-21.11 57.74 2.536-18.01 12.117-4.803 52.591 32.761 5.055 16.164-15.962 7.426Zm-168.847 27.652 7.66-16.773h121.021l4.595 16.773Zm142.468 26.685 32.935-10.674 10.724 16.011-39.83 26.686-154.723-.763-42.894-23.636 9.192-19.06 30.638 10.673ZM803.957 989.95l54.383-36.596 15.32 9.911-.767 12.962-52.085 33.546-16.85-2.287Zm-104.17-14.486-19.149-80.817 50.553-19.823 21.447 28.21Zm85.787 54.895-17.617 19.823-7.659.762-.767-11.436 14.554-19.823 10.723-3.05Zm-33.702-69.38 27.575-54.133-29.107-40.409 56.681-48.033 17.617 104.453Zm328.596 194.418-209.106.763-44.426-20.586-4.596-47.27 19.15-22.874 32.17 18.3 193.02 2.286 40.596-22.11 17.617 25.16-2.298 44.983Zm-8.425 170.784-18.384 28.972s-49.787 6.1-76.595 14.486c0 0-52.086-12.199-81.192-14.486l-20.68-29.734 101.106 22.11Zm-22.98-76.243H905.064L830 1224.778v-61.757l32.17 17.536 222.893.763 36-19.062-2.298 63.283Zm137.873-709.12 37.532 65.567-29.873 19.824-3.063 75.48-87.319 45.746 55.148-102.166-58.212-49.558 59.744-16.773Zm45.192 98.32s.765-6.862 6.893-5.337l78.128 145.624-177.702 28.21 88.851-70.906Zm144.765 148.007v3.812l-95.744 90.73-60.51-19.825-48.256-43.458Zm42.128-6.862 67.405-22.873-27.576 68.618c-16.85-3.812-69.7-9.91-69.7-9.91Zm139.405 109.027-78.128-50.32 34.467-66.332Zm85.021-179.933c1.531 3.05-.767 6.862-.767 6.862l-78.128 102.165-27.574-73.193Zm38.298 105.215v3.812l-87.319 93.016-16.852-33.547Zm-246.417 95.303 177.556 28.973L1838 713.951l-141.887-31.259-288.528 80.817s-24.573 6.862-64.205 9.911l-85.608-151.722 27.743-19.06 5.55-17.537h-25.366l-20.609 12.2-44.389-74.719s19.816-23.635 39.633-30.497v-3.812h-49.938l-6.342 7.624L854 493.26 705.202 258.083l13.561-6.163-45.182-25.922.793 51.845 11.353-8.387 148.228 237.878-24.036 45.745-53.108-64.044h-50.73s34.877 19.823 49.144 44.984l24.573 41.171 15.853 3.812-39.633 70.905h-7.926l-2.378-25.922-64.206-38.122-24.573-.762s3.171 10.674 9.512 17.536l42.011 32.784 3.171 90.73-26.95 39.01 7.926 16.011-144.264-19.06-291.699-84.63L110 713.952l175.97 177.645-74.51 143.336 180.556 252.65h309.931l159.495 234.415h302.004l149.983-224.059 102.253 165.447-11.267 7.656 38.047 21.348 2.538-43.554-12 5.973-229.214-371.049 11.182 2.256s51.524 19.823 78.474 23.635l71.34 86.154 16.645 5.337v-24.397s-43.596-82.342-45.974-89.204l-114.143-38.884-33.292-60.994s-1.586-9.149 8.72-3.812l149.02 80.055 210.054-3.05 17.44-75.48-154.57-67.856s-7.133-12.962 16.646-7.625"/></g></svg>