<svg xmlns="http://www.w3.org/2000/svg" width="1984.25" height="1984.25" viewBox="0 0 1984.25 1984.25"><defs><clipPath id="clip_1"><path d="M0-.002h1984.252V1984.25H0Z"/></clipPath></defs><g clip-path="url(#clip_1)"><path d="M1195.4 1634.626c-6.85 15.372-14.427 25.423-31.408 25.54-117.434.812-234.71-3.078-351.855-11.488-1.726-.124-3.367-1.504-12.047-5.603 135.274-22.382 264.404-14.414 395.31-8.45m-464.17-105.92c-9.713-.17-13.268-6.446-13.143-15.142.175-12.171 8.878-7.525 14.228-6.153 98.831 25.358 199.442 34.388 301.446 37.096-28.885 16.287-60.209 17.116-91.874 15.544-71.178-3.533-139.162-30.107-210.658-31.345m-43.826-11.384c14.587 41.808 37.074 79.619 64.931 114.244-63.073-32.441-101.106-84.985-121.284-156.13 30.41 2.34 46.861 14.679 56.353 41.886m876.5-408.547c4.531-1.842 10.187-8.18 14.38-.985 3.223 5.536.204 10.803-5.75 13.795-18.809 9.452-37.274 19.834-59.217 20.98 14.871-15.001 31.74-26.126 50.586-33.79M869.2 1504.258c-65.77-3.961-128.313-21.486-188.359-48.34 62.955 16.048 125.59 32.42 188.36 48.34M284.887 1273.05c.376-5.397 13.565-13.6 22.294-19.027 3.83-2.381 7.448-4.63 10.188-6.653 28.222-20.811 58.177-30.902 93.781-31.492-24.178 27.089-44.932 52.662-56.762 84.314-.767 2.053-1.694 3.289-2.833 3.777-1.46.622-3.704.226-6.852-1.216-5.927-2.721-12.448-5.345-21.143-8.514-1.87-.681-3.656-1.32-5.37-1.933-12.992-4.656-21.575-7.73-31.576-16.188-1.833-1.551-1.756-2.652-1.727-3.068m-50.045-38.542c21.561-25.323 47.61-38.515 83.806-42.245-5.467 6.988-10.63 13.61-15.585 19.964-13.702 17.574-25.536 32.75-37.715 47.904-7.948 9.89-14.926 6.589-25.473-.02-2.003-1.256-3.894-2.442-5.809-3.447-3.547-1.864-5.513-4.077-6.01-6.77-.728-3.928 1.682-9.393 6.786-15.386m1193.03-424.875c21.876 30.34 32.257 64.856 32.45 107.812-31.13-15.995-45.606-64.05-32.45-107.812m141.134 372.785c-3.44 0-7.19.993-11.323 2.985-5 2.41-9.23 2.898-12.587 1.454-3.773-1.623-6.887-5.886-9.26-12.671-.753-2.156-.858-3.843-.312-5.014 1.03-2.211 4.631-3.461 8.113-4.671 2.011-.698 4.091-1.423 5.862-2.398 10.233-5.638 20.756-11.173 30.932-16.527 11.072-5.824 22.518-11.847 33.66-18.035 4.251-2.361 8.927-4.614 11.332-3.375 1.705.873 3.003 3.897 3.75 8.738 5.182 33.473 17.831 64.646 30.066 94.789 6.726 16.576 13.681 33.716 19.273 50.965 2.283 7.042 3.667 14.354 4.78 20.229.39 2.06.741 3.91 1.076 5.463-.154 2.705-.25 4.807-.33 6.525-.135 2.907-.217 4.662-.424 6.336l-.28 2.273c-2.232 18.127-5.005 40.686-20.274 44.355-6.42 1.543-10.224-7.73-14.909-20.986-1.808-5.12-3.677-10.41-5.898-14.59-20.679-38.895-35.8-79.263-52.033-124.21-2.795-7.735-7.004-17.036-14.83-20.358a16.2 16.2 0 0 0-6.384-1.277m-119.554 276.953c-12.168-58.378-34.519-115.483-68.33-174.577-9.204-16.09-11.99-24.433-9.938-29.753 2.303-5.974 11.865-9.838 26.548-14.14 44.185-12.94 89.436-22.143 134.491-27.352.863-.101 1.71-.21 2.536-.314 2.287-.293 4.421-.565 6.254-.565 1.941 0 3.542.307 4.627 1.218 1.534 1.288 2.49 4.12 2.847 8.423 4.644 56.309 19.348 112.538 44.95 171.897 1.46 3.385 2.003 7.434 2.398 10.389a65 65 0 0 0 .424 2.837c-.165 33.202-12.169 49.638-41.377 56.697-21.7 5.244-47.458 11.264-73.976 16.153-17.735 3.264-26.62 2.27-31.454-20.913m-29.04 16.188c-13.12-11.173-31.903-43.02-49.106-83.978-17.617-41.941-28.725-81.56-29.93-105.638 36.161 62.084 61.456 122.779 79.035 189.616M602.77 1351.15c10.927 2.879 30.313 28.64 47.144 72.63-32.908-9.6-63.739-23.29-93.608-36.551-14.618-6.493-29.687-13.184-44.874-19.338 21.432-16.871 61.763-24.532 91.338-16.74m150.103-548.028c-.539 17.913-7.645 30.88-21.124 38.54-123.582 70.236-237.519 158.987-338.833 263.92 21.723-70.678 64.33-129.02 129.94-178.037 54.571-40.771 113.727-76.52 170.937-111.09 13.708-8.284 27.883-16.85 41.778-25.352 5.822-3.563 9.433-4.64 11.672-4.64 1.044 0 1.79.234 2.322.56 2.47 1.514 3.583 6.93 3.308 16.099m5.734 133.222c-2 3.407-10.83 4.719-25.456 6.889l-.349.053c-7.152 1.062-14.686 2.852-22.392 5.317-5.05 1.615-8.258 5.024-8.579 9.12-.286 3.659 1.878 7.048 5.79 9.065 7.968 4.104 12.267 8.322 12.78 12.535.75 6.137-6.456 12.587-12.245 17.77-1.215 1.09-2.367 2.122-3.379 3.089-33.824 32.329-69.958 63.296-104.902 93.24l-1.868 1.6c-1.689 1.448-3.318 3.055-4.894 4.608-4.63 4.568-9.39 9.264-16.888 11.246 34.302-86.01 82.844-157.757 148.278-219.207 4.163-3.91 11.614-10.906 15.966-10.906q.594-.001 1.105.18c1.563.567 4.474 3.365 6.413 15.734.522 3.334 1.854 6.363 3.144 9.29.728 1.654 1.415 3.217 1.946 4.793 4.671 13.87 7.491 22.244 5.53 25.584M932.36 746.49c5.347-1.001 10.875-2.036 16.241-3.305 2.464-.583 4.313-.794 5.7-.794 2.578 0 3.558.73 3.911 1.162.604.738 1.661 3.33-1.556 11.447-10.54 26.6-11.276 54.396-10.738 75.64.286 11.252-3.457 21.636-10.539 29.242-6.404 6.878-15.06 10.874-23.749 10.963-50.83.519-90.016 15.029-123.317 45.664-1.217 1.119-2.747 2.085-4.225 3.018q-.509.32-1.005.638-.36-.109-.713-.21c-1.128-.33-2.103-.617-2.799-1.04-7.312-4.46-13.155-19.713-14.21-37.095-.919-15.128 2.06-27.363 7.77-31.931 41.284-33.025 78.074-61.502 112.472-87.06 13.646-10.14 30.478-13.291 46.757-16.34m69.842-46.802c-7.288 3.419-10.206.2-14.737-5.777-.732-.966-1.453-1.914-2.185-2.787-10.38-12.375-12.166-25.561-5.306-39.192.74-1.466 1.533-2.914 2.327-4.363 1.978-3.607 4.023-7.338 5.281-11.427 1.09-3.538.15-7.518-.759-11.367-.736-3.121-1.57-6.66-.599-7.984.574-.783 2.167-1.256 4.488-1.333q.135-.004.271-.004c7.732 0 15.534 10.853 18.662 21.493 2.713 9.23 3.723 19.325 4.698 29.088.43 4.3.875 8.747 1.46 13.103l.006.044c1.451 9.747-2.11 15.114-13.607 20.506m14.037 58.507c-9.192-9.363-22.862-16.013-20.41-25.327 3.106-11.802 18.067-9.435 30.733-10.864 1.431 13.247-5.425 23.36-10.323 36.19m57.88-190.955q.392-.001.778.047c3.24.403 6.36 3.433 9.271 9.004.695 1.33 1.754 2.245 2.604 2.98.285.245.57.487.827.746l3.318 3.347 1.56-4.518c2.987-8.675 11.3-11.548 18.631-14.084 4.831-1.67 9.003-3.112 11.42-6.075 5.913-7.247 8.393-8.49 9.117-8.7.592.984 1.036 4.102 1.283 5.834.646 4.525 1.314 9.203 4.893 10.723 3.356 1.426 6.742-1.225 7.856-2.095l.23-.197c1.463-1.403 1.494-3.48 1.53-5.882.063-4.225.388-7.735 3.396-10.008 1.083 2.325 1.047 5.33 1.01 8.69-.083 6.899-.18 15.485 9.937 21.156l4.044 2.267-4.48 10.925c-3.74 9.12-3.583 18.31-3.444 26.417.12 7.114.225 13.258-2.63 16.272-1.807 1.91-4.999 2.84-9.758 2.85h-.05c-14.336 0-15.915-10.048-16.802-26.586-.155-2.893-.316-5.883-.627-8.66l-.38-3.377-3.207.722c-4.93 1.109-8.23 3.142-10.086 6.217-2.7 4.477-1.458 9.755-.459 13.995.185.78.364 1.543.514 2.274.305 1.519.65 3.02.991 4.498 2.49 10.79 3.99 17.304-9.595 21.44-3.852 1.172-6.67 1.306-8.156.383-1.732-1.075-2.332-4.068-3.025-7.533-1-4.983-2.243-11.185-8.075-14.263l-4.567-2.411.244 5.303c1.02 22.162-29.103 52.438-48.354 53.8-4.909.35-5.806-1.507-6.337-8.068-2.956-36.664 7.613-69.07 31.414-96.313l.16-.184c3.613-4.138 9.552-10.936 15.004-10.936m220.051 51.625-2.189 2.426c-5.764 6.366-11.724 12.949-15.312 20.807-1.775 3.887-3.634 6.133-5.528 6.677-2.392.693-5.615-1.064-10.025-4.116-23.65-16.36-38.41-40.513-41.578-68.031a431 431 0 0 0-.064-7.301c-.039-2.388-.056-3.48.07-4.372.265-1.888.502-3.86.744-5.871 1.36-11.354 2.901-24.224 10.971-27.873 4.18-1.89 7.934 2.978 13.206 10.598 2.295 3.315 4.667 6.744 7.267 9.294 4.182 4.1 8.288 8.55 12.258 12.854 8.276 8.97 16.835 18.244 26.837 25.249 7.053 4.94 10.72 9.457 11.2 13.808.476 4.302-2.022 9.339-7.857 15.85m79.522 46.943c-.252 4.117-2.229 7.828-14.586 7.093-27.97-1.648-53.302 6.302-81.955 19.105 8.154-25.048 22.118-39.164 44.646-45.401 8.146-2.256 16.27-5.008 24.125-7.67 2.682-.907 5.365-1.816 8.051-2.707 1.856-.616 3.796-1.597 5.673-2.546 2.67-1.35 5.641-2.851 7.635-2.851.358 0 .686.048.974.154.25.094 1.01.375 1.767 2.08 4.464 10.07 4.233 23.51 3.67 32.743M1260.447 805.61c-4.06-15.402-3.05-30.125-2.074-44.397.278-4.056.565-8.25.73-12.375.813-20.49 13.877-25.907 34.694-28.007a17 17 0 0 1 1.724-.096c2.063 0 2.892.489 3.217.826 1.04 1.078.728 4.383.453 7.298-.475 5.045-1.067 11.325 3.986 14.762l1.251.85 1.405-.532c8.527-3.234 8.895-10.74 9.167-16.22.118-2.432.228-4.654.86-6.458.361 1.22.27 2.818.022 5.192-.418 4.022-.989 9.532 4.28 13.55l1.641 1.252 1.72-1.133c6.16-4.062 7.258-10.881 8.227-16.897 1.05-6.517 1.94-10.753 6.224-13.12.643.24.837.979.92 3.969.093 3.37.268 9.643 7.471 10.25l.548.047.526-.16c6.805-2.055 7.302-7.774 7.632-11.56.152-1.741.296-3.387.892-4.463 2.735-4.922 7.227-7.116 14.13-6.978 3.573.084 4.226 1.834 4.608 7.809.057.92.116 1.809.211 2.624 2.448 21.033 6.757 40.589 13.495 61.158-47.935-2.975-89.868 7.783-127.96 32.809m-209.924 666.79c42.047-21.812 85.823-32.678 132.292-32.678 30.596 0 62.367 4.717 95.555 14.123 18.956 5.37 37.286 11.817 56.693 18.645 6.97 2.449 14.127 4.968 21.348 7.442-1.687.718-3.546 1.115-5.46 1.525-4.899 1.049-10.997 2.354-12.577 10.41-5.184 26.417-22.795 25.382-43.196 24.188-1.31-.076-2.625-.155-3.933-.223a124461 124461 0 0 0-60.98-3.188c-53.745-2.8-109.32-5.692-163.967-8.768-6.35-.357-12.556-2.211-17.027-5.082-7.558-4.857-11.457-9.601-11.276-13.714.181-4.135 4.513-8.52 12.528-12.68m.217-217.06c37.226 67.909 77.162 119.086 125.205 160.433-9.354 4.643-19.092 5.404-28.549 6.142-5.08.396-10.333.805-15.436 1.81-32.849 6.463-64.829 13.51-94.915 28.57-7.16 3.584-11.325 4.55-14.384 3.329-3.1-1.237-5.82-5.076-8.56-12.08-25.403-64.921-10.985-138.345 36.64-188.203m-348.128 172.668c.185 1.58.608 3.185 1.017 4.738 1.487 5.643 1.183 6.606-.81 7.44-4.454 1.862-10.7 1.36-13.88-4.151-10.512-18.218-21.049-36.807-32.206-56.486-3.51-6.19-7.108-12.54-10.83-19.095 41.04 6.212 52.492 31.573 56.71 67.554M557.69 1266.23c-36.735 3.82-79.654-16.837-101.463-48.794 42.468 10.358 74.26 25.643 101.463 48.794m-145.347-84.617.424-.917C470.11 1055.797 561.04 961.6 683.025 900.72q.11.039.242.09c-10.153 7.463-20.485 14.599-30.518 21.529-19.127 13.21-38.905 26.87-56.847 42.466-65.706 57.117-117.94 126.48-155.249 206.166l-1.4 3.019c-2.679 5.794-5.449 11.785-9.03 16.839-4.584 6.46-12.84 4.533-17.355 2.808-1.63-.622-2.65-1.431-3.029-2.401-.895-2.291.99-6.355 2.505-9.622m55.635 1.92c.847-1.798 1.721-3.657 2.373-5.491 23.597-66.304 75.316-139.496 138.06-196.638-25.506 33.247-49.366 67.862-71.15 103.235-16.468 26.737-30.145 55.294-43.372 82.91-2.742 5.723-5.485 11.45-8.255 17.168-.63 1.305-1.235 2.726-1.848 4.178-3.932 9.285-6.406 13.019-13.589 9.808-2.749-1.23-4.436-2.676-5.017-4.3-1-2.79.931-6.897 2.798-10.87m36.316 10.879c11.376-32.582 26.895-65.267 50.32-105.977a136 136 0 0 1 1.598-2.707c-12.359 35.527-24.073 74.042-36.277 119.169-.962 3.553-2.14 5.654-3.607 6.424-1.395.73-3.567.504-6.642-.69-7.824-3.041-8.882-6.226-5.392-16.22m155.371-90.656c-37.644 50.485-61.436 100.87-72.664 153.918-16.397-5.447-28.339-17.084-35.612-26.155-14.439-18.005-6.243-43.131 7.483-58.858 56.55-64.792 121.075-123.04 192.164-173.51-35.133 35.068-65.204 69.509-91.37 104.605m513.438-562.02c5.74-6.457 15.162-9.823 28.044-10.025-9.895 39.797-3.122 73.55 21.21 105.277-4.784-.728-9.543-1.123-14.203-1.51-23.617-1.964-40.683-3.383-41.1-42.908l-.154-14.725-.364.885-.388-3.578c-1.639-15.133.701-26.376 6.955-33.415m246.237 579.804h-.098c-1.012-.008-1.688-.21-2.015-.596-1.152-1.366-.583-5.967-.126-9.665.526-4.254 1.07-8.65.101-12.36-1.772-6.79-3.44-13.75-5.05-20.48-.73-3.04-1.46-6.08-2.199-9.118l-.626-2.567-11.415 1.153.195 2.984c.176 2.705.606 5.483 1.022 8.173.887 5.737 1.726 11.154.167 15.217-1.257 3.282-1.569 7.006-1.87 10.606-.69 8.21-1.4 12.926-7.998 14.372-4.57 1.003-5.654-.902-7.825-7.036-1.515-4.288-3.399-9.621-8.71-11.405l-2.657-.893-1.026 2.69c-6.293 16.493-12.687 22.43-15.498 22.43h-.053c-1.769-.05-2.956-3.158-3.386-4.49-1.14-3.551-2.086-7.284-2.998-10.893-2.066-8.168-4.203-16.613-8.869-24.466l-1.328-2.24-2.344 1.008c-9.853 4.234-7.23 11.069-5.82 14.74.412 1.076.801 2.09.941 2.935 3.025 18.288-2.518 28.617-18.539 34.542-19.318 7.148-32.568 7.879-43.118-9.534-18.375-30.324-30.538-65.262-37.186-106.813-1.016-6.366-.426-10.85 1.806-13.697 2.047-2.615 5.768-4.06 11.058-4.296 5.18-.233 10.205-1.734 15.064-3.186 2.421-.724 4.925-1.474 7.355-2.03 9.786-2.234 16.61-3.722 21.265-3.722 2.517 0 4.401.435 5.776 1.419 4.203 3.007 5.752 12.747 8.346 31.148l2.026 14.368 3.783-13.981c1.52-5.62 1.968-11.336 2.401-16.863 1.152-14.678 2.46-23.08 15.963-25.084 8.631-1.282 9.381 2.487 10.872 9.994.99 4.967 2.108 10.597 6.583 14.265l4.883 4.005-.063-6.45c-.11-11.635 2.588-20.187 8.021-25.418 5.522-5.316 14.323-7.648 26.175-6.968.368 3.093-.618 6.628-1.653 10.334-2.324 8.334-5.215 18.707 6.717 28.112l3.851 3.038.877-4.931c.55-3.088 1.008-6.228 1.453-9.264 2.785-19.027 5.19-35.46 27.686-38.09 6.813-.796 10.828-.32 12.281 1.447 1.495 1.817.811 5.898-.024 9-9.602 35.639-2.58 68.696 5.557 96.33 2.401 8.162 2.832 18.143 1.18 27.387-2.143 11.972-10.737 24.839-20.91 24.839m-129.437 76.103c-15.194 1.564-30.834 3.179-47.458 1.159 53.867-39.775 112.334-54.004 182.898-44.512l-1.262 1.039c-29.426 24.256-54.83 45.206-93.112 40.973-13.548-1.497-26.912-.12-41.066 1.34m-11.04 129.45c-1.667 40.057 11.644 76.606 40.66 111.495-30.463-4.444-62.283-9.877-91.858-18.486-33.657-9.793-60.257-38.128-86.786-68.79-30.136-34.825-49.805-63.832-63.778-94.06-3.265-7.067-4.29-11.68-3.046-13.705 1.137-1.852 4.958-2.788 11.362-2.788l.615.002c5.801.052 11.631-1.678 17.263-3.353 8.305-2.47 16.156-4.805 22.291-.811 3.99 2.593 3.403 6.036.992 13.85-2.112 6.848-4.74 15.368.803 23.076l1.568 2.176 2.283-1.336c8.054-4.715 9.336-12.673 10.47-19.694.822-5.108 1.598-9.934 4.763-13.373 8.383-9.113 15.884-14.045 26.711-10.284-.496 4.369-2.503 8.5-4.61 12.84-3.436 7.077-7.33 15.096-4.42 25.09l.932 3.205 3.008-1.23c7.165-2.928 9.85-9.13 12.217-14.602 1.602-3.697 3.113-7.188 5.826-9.415 2.474-2.031 4.635-4.41 6.725-6.711 4.422-4.868 8.296-9.13 14.48-10.163 1.096 3.014-.089 5.83-2.098 10.09-2.477 5.255-5.56 11.796.008 19.089l1.683 2.203 2.274-1.533c5.766-3.886 9.982-10.122 14.06-16.151 7.4-10.941 14.413-21.32 30.39-19.358-1.728 3.535-3.525 7.03-5.277 10.442-5.573 10.842-10.837 21.083-14.08 32.335-4.995 17.338-5.04 36.256-4.692 52.629l.345 16.08 5.417-15.073c2.351-6.537 4.567-13.308 6.71-19.855 14.854-45.397 28.916-88.361 92.13-79.212-36.114 33.34-53.738 66.963-55.34 105.38m-538.169-71.846c3.024-4.534 5.247-7.472 8.49-7.472.513 0 1.051.075 1.623.227 1.534.408 2.555.985 2.876 1.624.573 1.138-.348 3.684-1.088 5.73-.362 1.003-.71 1.978-.96 2.885-6.09 22.046-11.654 43.694-12.852 66.157-.845 15.833.158 31.752 3.236 50.049-18.072-37.475-19.613-91.78-1.325-119.2m124.61-88.535c51.467 0 101.43 16.725 153.075 50.798-1.524.112-2.949.222-4.295.326-6.324.49-10.889.84-15.28.652-56.489-2.45-113.73.418-169.088 3.189-20.304 1.014-41.299 2.066-61.943 2.839-11.259.419-14.964-1.646-16.092-3.451-2-3.205.973-10.433 4.146-17.083 7.888-16.533 23.115-22.776 38.396-27.06 24.202-6.787 47.794-10.21 71.08-10.21m53.437-215.226c2.922 3.377 3.727 9.547 2.462 18.862l-.926 6.813 5.524-3.821c6.572-4.545 9.271-11.43 11.652-17.505 3.277-8.357 5.344-12.694 12.887-12.444 3.53.122 3.914.843 3.735 7.002-.122 4.213-.274 9.458 3.615 13.045l2.068 1.905 1.984-1.997c3.422-3.445 5.748-7.7 8-11.815 4.216-7.712 7.602-13.887 16.754-13.41 1.984 4.167.595 8.158-1.74 14.018-2.432 6.105-5.19 13.025-1.21 20.65l1.788 3.428 2.808-2.594c5.276-4.875 9.173-11.48 12.94-17.866 7.704-13.057 15.008-25.437 33.641-23.926-19.276 35.772-30.67 64.98-36.796 94.207-8.465 40.387-9.802 73.907-4.208 105.489 1.46 8.235 2.462 17.33-1.16 22.378-1.79 2.495-4.65 3.937-8.745 4.408-13.922 1.607-29.17.836-36.664-17.037-4.936-11.771-4.96-23.785-4.99-37.697-.023-10.582-.046-21.522-2.264-33.613l-1.48-8.07-4.01 7.086c-9.998 17.677-11.039 33.62-12.046 49.037-.22 3.407-.43 6.623-.737 9.865-.232 2.452.447 4.916 1.105 7.3.573 2.076 1.287 4.664.66 5.595-.199.295-1.146 1.279-5.028 1.579-10.01.779-14.315-2.796-15.942-13.19-2.352-15.02-1.879-30.12-1.333-47.603.243-7.755.494-15.773.528-24.504l.041-10.581-5.519 8.904c-12.456 20.094-13.907 38.743-15.189 55.197-.323 4.155-.629 8.077-1.09 12.012-.113.973-.21 1.959-.308 2.94-.887 8.922-1.68 13.597-8.772 13.996-6.754.415-8.949-4.755-11.779-13.256-.285-.853-.564-1.696-.85-2.514-6.404-18.326-5.045-36.926-3.604-56.616.33-4.502.67-9.158.905-13.766l.631-12.365-6.153 10.615c-10.936 18.87-15.762 40.792-14.342 65.153 1.084 18.612-5.048 26.206-23.429 29.023-9.91 1.519-19.823 4.059-30.32 6.748-3.62.927-7.328 1.876-11.196 2.827 14.27-63.952 42.746-123.788 89.351-187.884 10.441-14.36 20.578-19.894 37.403-20.424 10.537-.326 17.781.292 21.348 4.416m86.541-160.226c-9.209 9.178-18.91 17.92-29.182 27.177-3.09 2.784-6.234 5.618-9.437 8.528-3.315-16.493.334-30.822 3.873-44.717 1.137-4.465 2.314-9.084 3.223-13.66 2.721-13.682 5.685-15.94 7.344-15.94q.115 0 .225.014c11.372 1.426 19.356 11.593 27.076 21.425l1.008 1.283c4.391 5.578 2.054 9.727-4.13 15.89m-17.218 102.237c-4.608-1.706-9.346-10.408-11.789-21.653-2.274-10.466-1.822-20.245 1.076-23.252 7.858-8.152 16.147-15.893 24.162-23.38 2.971-2.775 5.902-5.512 8.755-8.218.867.179 1.678.324 2.401.452.39.069.824.145 1.204.22 1.128 4.943 2.325 9.885 3.522 14.829 4.402 18.19 8.952 36.99 9.85 55.517-3.584 2.99-26.182 10.3-39.18 5.485m177.908 171.448-1.888-6.526-3.485 5.78c-8.7 14.437-6.082 28.515-3.55 42.13.5 2.694 1.017 5.478 1.425 8.185.364 2.413 1.63 4.707 2.852 6.926 1.154 2.094 2.59 4.7 2.14 5.917-.147.399-.828 1.446-3.934 2.513-1.679.578-3.394 1.282-5.049 1.965-8.304 3.417-15.476 6.364-22.163-3.082-13.057-18.45-19.336-34.24-20.357-51.201-.118-1.966-.029-4.017.064-6.186.3-6.838.634-14.59-5.334-23.187l-2.723-3.925-2.285 4.216c-12.865 23.722-6.149 46.209-.225 66.046.602 2.014 1.2 4.01 1.77 5.995l.492 1.69c3.851 13.249 5.445 18.733-7.697 23.409-13.358 4.75-20.962 1.323-28.088-12.642-15.42-30.212-14.467-61.826-12.17-91.621l.93-12.063-6.387 10.133c-19.478 30.9-15.94 63.63-9.914 91.57 1.46 6.762 3.375 12.409 5.853 17.264 3.082 6.035 4.076 10.834 2.955 14.264-.83 2.54-2.858 4.548-6.196 6.139-2.515 1.196-4.514 1.495-5.93.887-2.505-1.074-4.005-5.275-5.33-8.983-.533-1.492-1.037-2.901-1.622-4.215-31.172-69.971-26.267-137.516 14.584-200.76 7.15-11.063 15.657-21.206 24.665-31.943 4.25-5.07 8.647-10.31 13.013-15.79l3.573-4.483-5.589-.545a68 68 0 0 0-6.64-.316c-8.839 0-17.26 1.584-25.455 3.125-8.16 1.536-16.01 3.024-23.967 2.898l90.305-17.315c-.463 7.109-2.088 14.05-3.79 21.336-3.323 14.199-6.756 28.88-1.825 46.368l2.146 7.607 3.378-7.112c4.201-8.842 6.864-18.691 9.44-28.218 6.905-25.543 12.902-47.713 44.72-49.48-.514 5-1.955 9.97-3.462 15.176-3.347 11.554-7.139 24.65-.453 40.32l3.423 8.022 2.173-8.476c5.66-22.066 11.003-42.906 26.701-55.34 13.608-10.78 30.304-15.581 50.972-14.6-12.538 26.064-22.098 48.768-27.95 73.216-13.965 58.339-5.687 116.113 25.306 176.625.983 1.922 2.281 3.777 3.534 5.57 3.605 5.159 5.704 8.509 3.528 12.209-2.184 3.712-6.05 3.22-12.179 2.11-2.005-.362-4.077-.737-6.05-.828-43.872-1.983-50.25-8.597-68.255-70.774m.1 138.825c-36.685 8.364-69.872 15.198-104.489 14.043a28 28 0 0 0-1.043-.017c-.745 0-1.492.02-2.237.043-5.603.17-7.93.01-9.322-5.647-1.489-6.057.846-7.778 6.27-11.095.484-.297.97-.594 1.455-.9 53.923-33.905 112.804-46.918 179.835-39.687-21.65 28.94-48.874 38.334-70.47 43.26m-92.35-492.277c4.822-.402 9.812-.816 14.39-1.836a4 4 0 0 1 .65-.1c.212.938.074 3.138-.018 4.65-.28 4.502-.629 10.105 3.068 13.663l1.67 1.606 1.931-1.251c4.652-3.012 6.817-8.16 8.911-13.137 2.708-6.438 5.08-12.078 12.34-13.447.542 3.165-.128 6.644-.884 10.553-1.452 7.525-3.262 16.89 4.966 25.972l3.533 3.9 1.485-5.122c1.095-3.771 2.007-7.528 2.89-11.163 3.26-13.404 6.1-25.08 16.37-33.393 1.102 1.59 1.223 3.807 1.3 7.035.116 4.837.26 10.856 6.474 14.676l3.204 1.969 1.147-3.672c10.637-34.116 35.644-37.944 62.118-41.996 11.466-1.754 23.323-3.57 33.863-8.026 2.538-1.073 4.436-.945 5.646.385 1.934 2.12 2.5 7.426.1 12.63-18.328 39.745-25.852 83.886-23.002 134.945.388 6.978-.12 9.964-6.849 11.417-32.858 7.1-50.577-2.844-63.182-35.46-1.16-3.004-2.485-5.933-3.885-9.036a415 415 0 0 1-2.109-4.718l-2.44-5.567-2.869 5.344c-5.65 10.519-2.134 19.298.964 27.043 1.494 3.73 2.904 7.252 3.282 10.784.268 2.503 1.473 4.814 2.64 7.05 1.071 2.055 2.284 4.382 1.851 5.502-.163.42-.91 1.526-4.314 2.665-3.718 1.247-6.705 1.222-8.872-.075-2.473-1.48-4.254-4.775-5.29-9.797-.925-4.484-2.934-8.633-5.258-13.44-1.183-2.446-2.408-4.976-3.682-7.911l-4.592-10.581-1.083 11.547c-.236 2.525-.358 4.662-.465 6.528-.18 3.166-.31 5.453-.894 7.387-1.273 4.24.187 8.882 1.6 13.37 1.204 3.827 2.45 7.783 1.24 9.745-.83 1.342-3.116 2.278-6.608 2.705-7.804.963-9.888-4.517-12.502-16.352-.508-2.29-1.03-4.655-1.668-6.8-1.596-5.353-3.112-10.732-5.068-17.661-.997-3.534-2.11-7.47-3.402-12.01l-4.126-14.5-1.682 15.017c-.359 3.203-.8 5.749-1.154 7.794-.664 3.839-1.104 6.376-.248 8.913 12.548 37.22-.083 62.743-40.959 82.475-28.235-48.637-33.265-99.505-14.944-151.231 5.887-16.62 19.744-17.771 34.416-18.988m-312.048 671.037c-13.586-45.731-6.42-96.2 18.936-127.576-13.247 45.872-22.602 86.398-18.936 127.576m139.131 3.124c.341 2.079 1.22 4.3 2.153 6.654 1.452 3.662 3.097 7.813 1.933 10.006-.867 1.633-3.509 2.429-5.572 2.81-11.295 2.075-21.867 2.768-27.148-11.448-5.275-14.193-8.806-28.651-11.806-48.342l-2.706-17.774-3.158 17.694c-.738 4.14-1.62 8.364-2.474 12.45-2.006 9.605-4.08 19.534-4.557 29.51-.549 11.48-3.675 15.556-12.865 16.767-12.26 1.617-19.22.69-23.215-8.867-1.04-2.491-2.188-4.99-3.297-7.405-5.499-11.977-10.694-23.29-5.57-37.168l-5.406-2.548c-6.84 13.34-11.24 27.73-13.797 45.46-9.384-33.512-7.683-68.333 5.12-106.007 10.912-32.108 27.52-43.75 59.192-41.534 37.281 2.61 74.297 2.065 113.486 1.483 15.087-.223 30.64-.454 46.372-.494-3.424 6.956-6.996 13.66-10.47 20.18-10.105 18.97-19.65 36.888-23.77 57.307-6.452 31.958-11.164 60.867-3.45 91.052 2.235 8.744.623 11 .076 11.484-.586.517-3.196 1.892-12.079-2.185-30.604-14.056-36.136-42.4-41.992-72.404-.445-2.281-.89-4.561-1.346-6.832-.868-4.315-.942-8.851-1.02-13.653-.086-5.031-.172-10.231-1.208-15.453l-1.783-8.984-3.816 8.275c-11.245 24.38-9.256 49.05-5.827 69.966m-193.995-28.141-7.757-3.284c-10.31-4.365-20.972-8.874-31.727-13.612-7.493-3.302-7.405-7.901-5.357-18.385 11.498-58.84 27.24-109.081 48.122-153.586.54-1.15 1.29-2.328 2.085-3.574 2.811-4.404 6.66-10.435 2.47-19.564l-2.056-4.474-2.966 3.888c-38.009 49.837-62.432 107.667-74.577 176.657-10.955-10.157-14.224-21.601-15.546-35.363-4.996-51.987 6.435-96.075 34.943-134.778 61.37-83.316 119.333-144.338 182.417-192.043 4.422-3.344 9.197-6.345 15.806-10.498l.975-.613c-37.629 55.355-78.415 120.12-106.79 189.29-30.516 74.386-43.63 146.383-40.042 219.939m296.265 137.36c-62.134-3.348-121.277-15.845-178.55-27.945-19.778-4.18-40.146-8.484-60.404-12.356 75.594-38.05 169.628-22.231 238.954 40.302m308.954-187.5 61.375 149.02c-28.569-12.733-53.457-42.628-64.505-78.14-8.382-26.942-7.193-52.396 3.13-70.88m112.532-397.67c-4.509.588-6.277.052-8.828-3.008-4.184-5.024-9.244-16.29-19.324-38.731l-1.387-3.085-2.825 1.733c-10.54 6.46-6.106 17.866-2.54 27.03 2.668 6.859 5.426 13.95 2.834 18.773-2.078 3.87-7.72 6.66-16.767 8.289-19.51 3.522-22.239-6.216-26.019-19.683-1.46-5.207-2.972-10.591-5.648-15.433l-1.863-3.371-2.747 2.647c-11.964 11.537-6.11 25.069-4.188 29.514 2.214 5.12 2.753 8.91 1.647 11.583-1.588 3.84-6.897 6.044-13.67 8.526-15.563 5.699-25.458 8.37-29.977 5.12-4.658-3.35-5.748-14.452-6.056-32.5-.076-4.45-.058-8.902-.036-14.058.01-2.617.02-5.407.02-8.458v-5.566l-4.553 2.954c-13.703 8.89-13.354 21.533-13.072 31.692.066 2.384.128 4.636.022 6.833-.91 18.826-1.368 28.276-5.846 33.62-4.18 4.994-12.603 7.335-29.156 11.1 3.098-47.214 24.45-84.794 65.181-114.786l2.582-1.901-1.993-2.55c-5.28-6.76-12.109-8.362-18.13-9.777-3.533-.83-6.727-1.58-9.218-3.277 19.647-8.782 30.7-13.412 35.603-10.563 4.852 2.817 6.52 15.023 9.283 35.244l.394 2.877 2.796-.238c4.254-.363 7.147-1.655 8.85-3.95 2.363-3.185 1.654-7.252 1.084-10.521-.346-1.99-.705-4.046-.283-5.172 1.03-2.753 1.242-5.61 1.447-8.373.152-2.047.298-4.048.75-6.05-.504 11.524-.473 22.324 10.548 30.082l3.221 2.267 1.264-3.816c1.785-5.387 1.705-11.302 1.627-17.021-.139-10.396-.26-19.463 9.876-24.92 3.08 5.74 2.861 12.39 2.63 19.387-.319 9.707-.68 20.71 8.01 30.558l3.881 4.398 1.222-5.822c1.25-5.952 1.965-11.812 2.66-17.478 1.54-12.571 2.991-24.445 10.142-34.25 4.054-5.562 6.115-7.682 10.162-6.19 2.602.957 2.778 2.967 1.974 8.144l-.143.945c-5.1 34.685 5.98 64.193 24.56 97.233M1185.12 463.17c2.064-4.206 3.636-8.204 5.157-12.07 4.308-10.953 7.285-18.518 17.178-20.777q.21 3.61.426 7.178c.481 8.009.934 15.572 1.184 23.28.131 4.074 1.714 8.579 3.246 12.935 1.781 5.074 3.802 10.825 2.333 13.594-.633 1.196-2.039 2.03-4.299 2.546-1.888.433-3.889.96-5.969 1.51-16.028 4.232-34.195 9.035-43.124-17.02l-5.743 1.503c2.522 16.879-3.77 22.367-17.927 27.658-10.976 4.1-13.877-.342-19.653-9.201a178 178 0 0 0-2.669-4.014l-6.293-9.125.907 11.174c1.735 21.377-9.93 27.58-23.436 34.763-4.185 2.227-8.489 4.515-12.346 7.333-10.173-14.837-4.766-29.842-2.773-34.258 3.465-7.671 8.55-11.694 11.78-11.702 12.4-.032 17.8-8.234 22.138-14.825 3.455-5.25 5.568-8.172 9.232-8.172.71 0 1.48.11 2.325.335 15.433 4.068 25.408-3.964 34.207-11.061 4.412-3.56 8.58-6.921 13.311-8.926 5.03-2.132 11.131-4.311 13.662-2.26 1.374 1.119 3.404 4.909 1.552 17.75l-2.706 18.773Zm-183.439 105.08c-5.09 5.413-14.46 7.92-23.306 6.245-6.608-1.252-6.83-5.222-5.765-13.98.165-1.35.324-2.666.414-3.906.43-5.984 1.711-11.863 3.484-20.001.464-2.127.96-4.403 1.478-6.856 1.37 2.118 2.66 4.096 3.88 5.967 4.7 7.213 8.411 12.91 11.596 18.75 1.29 2.364 3.54 4.12 5.715 5.82 1.995 1.556 4.257 3.322 4.357 4.68.058.784-.6 1.948-1.853 3.28m-135.596 58.84c-.978 3.877-2.615 10.366 3.698 13.42l2.34 1.134 1.411-2.241c6.057-9.615 12.77-15.15 19.41-16.002 5.391-.696 10.92 1.629 16.43 6.9 2.21 2.117 4.794 4.293 7.444 3.255 2.434-.947 2.713-3.654 2.88-5.271.046-.451.116-1.132.197-1.354l.535-1.492c1.717-4.834 3.127-8.806 9.302-10.98-.414 2.528-1.102 5.052-1.815 7.67-2.095 7.685-4.468 16.395 1.248 25.773l2.063 3.385 2.631-2.931c4.758-5.301 7.293-12.226 9.747-18.922 4.208-11.493 7.888-21.546 21.372-24.187l-.7 4.165c-4.609 27.396-9.376 55.725-.202 83.848.512 1.569.108 2.105-.024 2.282-.776 1.032-3.215 1.666-5.692 1.457-2.61-.208-5.27.12-7.845.439-7.237.896-11.476 1.087-14.486-5.54-1.835-4.038-3.58-8.197-5.429-12.601-.9-2.144-1.83-4.364-2.824-6.691l-2.353-5.517-2.937 5.207c-2.509 4.447-2.582 9.77-2.645 14.468-.124 9.072-.592 13.486-9.795 14.682-7.526.978-9.077-2.405-11.62-9.526-1.285-3.595-2.74-7.67-5.65-10.872l-2.709-2.982-2.017 3.524c-2.25 3.934-2.372 9-2.49 13.902-.113 4.627-.228 9.41-2.33 11.326-1.19 1.08-3.273 1.469-6.195 1.156-9.336-1.01-11.308-8.395-13.755-20.363-.895-4.384-1.82-8.917-3.414-13.07l-3.024-7.875-2.566 8.048c-3.747 11.75-3.728 21.119.057 29.486 2.597 5.736 3.184 10.349 1.747 13.714-2.308 5.406-9.948 7.849-16.088 9.813-1.708.545-3.327 1.065-4.752 1.607-2.967 1.126-5.17 1.268-6.543.422-2.514-1.55-3.267-6.883-3.93-11.587-.35-2.478-.682-4.818-1.265-6.878-7.206-25.443-1.873-50.723 16.785-79.556 4.345-6.715 10.708-9.928 19.818-9.928q2.17 0 4.548.24c1.444.147 1.982.497 2.057.609.36.534-.307 3.169-.625 4.435m85.648-87.662c-1.807 7.3-3.675 14.847-2.76 22.855.196 1.717.15 3.966-1.184 4.937-1.588 1.152-5.025.805-8.172-.826-5.909-3.062-12.227-3.378-18.336-3.683-7.428-.372-14.443-.722-20.026-6.047-2.416-2.302-4.636-3.237-6.797-2.853-3.053.54-4.529 3.417-5.606 5.517-.354.689-.794 1.546-1.076 1.85-7.932 8.589-18.06 13.534-28.782 18.772-4.323 2.11-8.756 4.276-13.235 6.759-.146-21.41 1.44-35.334 8.513-42.42 5.778-5.787 15.67-7.645 30.814-7.645 5.033 0 10.647.206 16.882.54 2.963.133 5.34-2.241 7.42-4.36.86-.876 1.75-1.781 2.524-2.346 4.357-3.174 9.31-6.762 10.443-6.384 1.3.442 3.497 7.192 5.621 13.72l2.442 7.506 3.687-8.623c4.431-10.414 8.293-19.49 19.908-20.061 1.474 7.625-.354 15.012-2.28 22.792M548.546 888.575c-42.289 29.903-82.232 58.147-113.898 97.675-36.444 45.49-61.996 94.91-78.113 151.085-3.689 12.86-16.45 26.537-32.51 34.84-13.515 6.99-26.659 8.93-36.066 5.302-2.679-1.032-4.322-2.34-5.023-4-1.298-3.073.527-7.673 2.137-11.73.795-2.005 1.545-3.898 1.96-5.662 12.774-54.481 41.295-102.865 87.192-147.92 54.981-53.971 121.545-100.362 203.497-141.823.575-.292 1.41-.451 2.756-.607-10.774 7.879-21.49 15.457-31.932 22.84M384.307 1306.54c27.811-20.7 57.731-31.151 89.105-31.151q5.937 0 11.942.5c12.182 1.014 19.257 8.699 27.36 21.628 1.881 3 1.83 6.799-.13 9.68-2.3 3.377-4.529 6.796-6.748 10.2-7.66 11.745-14.895 22.84-24.487 31.69-4.8 4.43-20.306-1.783-27.759-4.772-27.404-10.986-43.968-17.583-65.693-25.388-2.446-.878-9.887-3.551-10.138-5.337-.01-.08-.2-2.028 6.548-7.05m588.572 208.744c-26.146 7.233-51.19 2.422-75.983-5.63 25.842-5.571 50.977-.216 75.983 5.63m525.798-335.642c5.62-1.434 12.17.335 14.037 6.794 2.26 7.816-4.646 9.466-9.808 10.642-21.683 4.94-43.46 9.436-65.204 14.095 17.84-19.875 39.343-26.011 60.975-31.531m-45.17-116.045c-6.01-38.468-12.074-76.826 13.075-111.23-.286 37.597 6.711 75.893-13.075 111.23M796.818 774.142c-.823 20.378 1.468 40.173-25.469 44.455-3.31-21.485 2.111-36.893 25.47-44.455m634.23 878.727c-55.076-2.784-110.372-.854-168.376-.854 8.921-12.434 17.712-19.723 29.652-19.87 59.074-.723 117.9-5.304 177.606-12.78-3.499 25.14-13.292 34.798-38.883 33.504m-66.75-135.914c61.572-1.025 121.645-11.361 184.923-23.258-3.634 13.19-5.717 24.442-18.584 26.576-55.65 9.236-111.17 7.222-166.339-3.318m415.237-155.075c-35.723-45.162-75.177-100.023-96.947-164.482-3.06-9.06-7.675-18.181-12.139-27.003-14.645-28.937-28.478-56.268 1.42-89.496l5.088-5.654-7.45.478c-18.008 1.156-28.83 8.796-39.295 16.183-2.899 2.049-5.639 3.984-8.525 5.777a92 92 0 0 0-2.605 1.708c-7.072 4.747-13.82 8.619-18.667 3.948-5.683-5.476-3.053-9.84 5.917-20.912l6.443-8.01-7.594 1.077c-25.586 3.63-46.104 13.724-65.947 23.486-6.646 3.267-12.92 6.355-19.384 9.212-7.294 3.227-12.473 3.9-15.822 2.043-3.242-1.794-5.362-6.3-6.877-14.615q-.953-5.217-1.926-10.447c-4.048-21.82-8.233-44.383-9.308-66.622a863 863 0 0 0-.42-7.8c-1.58-27.977-3.217-56.908 22.387-81.15l10.117-9.577-13.039 4.37c-7.279 2.443-12.752 2.54-16.256.289-5.009-3.221-6.163-11.276-7.18-18.384-.126-.875-.248-1.732-.376-2.563-5.465-35.706-18.506-67.442-30.54-93.777a309 309 0 0 0-1.543-3.308c-6.053-12.851-10.05-21.341 7.036-30.39l8.82-4.67-9.844-1.135c-29.392-3.393-44.673-9.05-52.746-19.52-7.106-9.22-9.085-22.824-6.62-45.494 2.274-20.881.444-38.127-3.249-59.184-4.9-27.973-17.432-43.606-43.252-53.958l-2.122-.836c-9.358-3.665-14.619-6.158-13.89-14.777.817-9.663 9.13-15.44 15.96-18.584 5.474-2.521 11.39-3.937 17.653-5.436 2.933-.702 5.966-1.428 8.928-2.275 28.585-8.17 50.66-26.123 71.571-58.214l5.894-9.045-9.589 4.514c-22.076 10.392-41.644 10.359-60.578 10.33-5.255-.01-10.7-.015-16.039.21-21.933.926-38.364 3.732-47.265 14.418-8.77 10.529-9.053 27.408-6.777 49.513.202 1.955.57 3.923.924 5.826 1.025 5.482 2 10.702-.372 16.623-25.552-16.126-44.857-35.082-57.41-56.383l-2.576-4.36c-19-32.106-38.645-65.304-22.784-105.66 1.594-4.057 3.391-9.95.604-14.257-2.727-4.22-8.294-4.725-12.243-4.74-6.597-.023-13.327-.295-19.837-.558-2.615-.106-5.229-.211-7.845-.301-33.412-1.158-34.999-2.858-33.963-36.402.372-11.98 4.112-18.306 13.34-22.563 17.802-8.211 36.934-17.595 58.487-28.69 1.685-.868 3.391-1.715 5.105-2.568 14.198-7.052 28.88-14.345 36.735-34.523l2.135-5.488-5.566 1.332c-28.12 6.733-53.313 7.568-79.282 2.63-22.095-4.202-35.475-5.138-42.864 1.953-7.476 7.168-7.64 21.419-5.4 43.615 6.547 64.793-11.042 105.75-57.027 132.8-4.705 2.766-9.383 5.725-13.904 8.585-4.084 2.585-8.309 5.257-12.51 7.76-5.795 3.45-15.494 9.227-8.423 22.44 3.986 7.45 3.378 15.53 2.733 24.085-.364 4.829-.739 9.823-.252 14.779 2.086 21.183-3.956 31.616-20.203 34.886-11.923 2.402-16.239-5.964-21.229-15.653-1.337-2.596-2.72-5.282-4.254-7.65-1.502-2.32-2.987-4.653-4.469-6.984-14.44-22.706-29.373-46.185-59.576-52.396-7.41-1.524-10.265-5.988-10.53-16.471-.304-11.998 3.774-19.844 12.121-23.32 5.998-2.496 12.454-3.698 19.29-4.97 4.26-.793 8.664-1.613 12.943-2.777 2.453-.667 6.063-1.397 10.241-2.243 18.081-3.658 45.407-9.186 50.457-23.207l1.655-4.591-4.71.444c-19.417 1.82-45.57-4.284-54.152-8.073-27.42-12.107-42.173-18.161-51.703-12.613-9.512 5.542-12.043 20.926-16.43 52.42-.406 2.917-.564 5.857-.717 8.7-.11 2.074-.216 4.035-.41 5.98-1.714 17.15-5.667 29.596-20.062 38.64-5.052 3.174-9.88 6.84-14.549 10.386-6.786 5.153-13.197 10.022-20.327 13.597-12.733 6.385-15.935 14.07-20.498 27.103-2.989 8.536-3.492 18.485-3.98 28.106-1.175 23.214-2.286 45.14-34.878 52.264l-17.666 3.863 17.928 2.213c10.6 1.309 16.782 3.9 18.901 7.924 1.941 3.686.892 9.557-3.3 18.477-4.4 9.357-8.233 23.73-5.797 36.005 4.108 20.694-5.78 29.766-21.334 41.243-69.585 51.35-144.139 89.205-207.89 119.46-77.01 36.548-145.682 82.777-204.107 137.402-59.767 55.883-110.7 122.313-151.389 197.455-3.419 6.31-5.906 14.013-8.314 21.458-4.97 15.379-9.664 29.903-21.426 31.326-11.735 1.437-24.739-6.581-38.509-15.05-6.76-4.157-13.75-8.457-20.658-11.59-4.389-1.99-8.658-4.361-13.18-6.871-12.252-6.805-26.14-14.518-46.492-16.382l-11.704-1.072 9.801 6.712a5670 5670 0 0 1 21.11 14.55c42.717 29.542 79.61 55.056 121.758 73.359 25.524 11.084 51.387 22.605 76.398 33.746 84.488 37.636 171.852 76.552 261.474 105.459l1.658.529c8.512 2.698 15.237 4.83 18.423 16.18 22.45 79.946 70.297 149.224 146.278 211.795 15.394 12.679 33.988 26.249 59.887 26.797l7.975.169c165.99 3.505 337.63 7.13 506.475 3.554 40.951-.892 83.632 4.078 130.511 15.128 6.196 1.46 12.533 3.17 18.664 4.823 17.931 4.839 36.237 9.78 55.03 9.78 11.783-.001 23.758-1.943 35.95-7.071l2.774-1.168-1.146-2.867c-.419-1.05-.826-2.123-1.235-3.204-.926-2.445-1.88-4.972-3.063-7.436-20.17-42.004-14.832-67.286 20.394-96.618 23.475-19.544 37.757-40.657 42.455-62.747 7.863-36.96 30.196-44.926 61.307-45.516 5.115-.097 9.797-.346 14.315-.757 21.91-1.996 33.77-4.457 37.78-12.378 3.96-7.817-.525-18.74-10.783-37.433-3.553-6.483-4.772-10.502-3.833-12.652.944-2.156 4.725-3.873 11.901-5.404 15.95-3.403 31.803-8.341 47.135-13.118 6.837-2.13 13.906-4.331 20.873-6.362 9.376-2.735 15.54-5.583 17.288-11.344 1.544-5.076-.885-11.28-7.875-20.118"/></g></svg>