<svg xmlns="http://www.w3.org/2000/svg" xmlns:xlink="http://www.w3.org/1999/xlink" xmlns:inkscape="http://www.inkscape.org/namespaces/inkscape" version="1.1" width="1133.86" height="1218.9" viewBox="0 0 1133.86 1218.9">
<defs>
<clipPath id="clip_1">
<path transform="matrix(1,0,0,-1,0,1218.9)" d="M0 1218.898H1133.858V0H0Z"/>
</clipPath>
</defs>
<g inkscape:groupmode="layer" inkscape:label="Layer 1">
<g clip-path="url(#clip_1)">
<path transform="matrix(1,0,0,-1,907.5098,898.4828)" d="M0 0C-10.66 4.86-20.88 15.4-13.069 25.131-2.81 19.271 2.42 9.2 0 0M-28.05 37.921C-34.21 43.5-38.2 49.381-36.06 57.841-27.729 52.711-24.01 44.15-28.05 37.921M-48.75 174.23C-43.83 184.431-45.37 194.261-48.99 203.9-53.47 215.82-49.939 226.62-44.899 238.631-35.819 215.95-33.84 193.15-31.2 169.08-37.68 170.98-43.029 172.551-48.75 174.23M-84.06 179.78C-92.319 184.391-94.439 190.24-91.439 198.79-89.39 204.641-87.59 210.591-85.399 217.381-80.71 208.23-80.24 188.471-84.06 179.78M-186.399 462.021C-186.399 460.201-187.87 458.73-189.68 458.73-191.5 458.73-192.97 460.201-192.97 462.021-192.97 463.831-191.5 465.3-189.68 465.3-187.87 465.3-186.399 463.831-186.399 462.021M-117.2 482.681C-118.39 472.681-124 464.23-133.05 457.67-133.72 463.021-134.43 467.8-134.91 472.601-135.49 478.431-137.08 483.261-142.479 486.891-150.689 492.431-158.29 498.871-166.14 504.931-166.84 505.49-167.95 506.101-168.04 506.791-169.2 515.911-177.399 517.891-183.59 520.88-190.18 524.07-195.25 518.53-200.02 514.471-200.92 513.701-201.569 512.61-202.819 511.07-204.08 513.28-205.09 514.96-206.02 516.681-208.92 522.09-212.85 523.07-218.069 519.69-225.72 514.73-228.88 507.15-229.529 498.561-230.06 491.5-229.64 484.36-229.64 477.03-221.45 477.03-214.42 477.061-207.39 477.03-198.229 476.98-188.74 478.121-181.49 470.48-181.1 470.07-180.81 469.541-179.56 467.791-192.56 471.59-204.06 479.13-218.189 471.541-204.05 462.13-190.91 453.38-177.689 444.59-180.64 442.17-182.439 441.94-186.529 444.46-193.08 448.511-199.41 452.911-205.859 457.121-212 461.121-218.17 465.07-225.41 469.75-224.85 466.371-224.51 464.32-224.17 462.271-229.779 461.44-233.189 464.311-234.8 470.8-235.819 474.891-236.95 478.971-238.3 482.96-238.689 484.121-240 484.98-241.38 486.521-244.33 478.041-242.42 470.59-241.71 463.17-241.38 459.581-240.95 455.971-240.149 452.471-239.77 450.8-238.689 448.38-237.46 448.041-235.45 447.5-232.29 447.55-230.939 448.791-222.689 456.431-222.2 457.5-211.81 447.701-201.21 437.69-189.02 429.92-175.819 423.761-175 423.38-173.88 423.65-172.89 423.621-173 424.63-172.71 425.971-173.26 426.581-175.75 429.371-178.479 431.951-180.93 434.99-176.14 433.951-170.88 435.34-167.359 429.641-163.68 423.701-156.72 422.271-150.479 420.141-148.69 419.541-147.001 418.641-145.271 417.861-145.381 417.152-145.369 417.23-145.479 416.521-147.249 416.321-149.029 416.13-151.279 415.88-150.169 412.119-149.149 408.618-148.118 405.137-148.73 404.812-148.604 404.879-149.215 404.554-151.638 407.508-154.07 410.461-156.493 413.415-157.192 413.129-157.15 413.146-157.85 412.86-156.3 393.871-157.39 375.61-171.27 360.8-168.79 368.3-163.729 375.42-168.62 384.141-169.649 381.38-170.93 378.681-171.649 375.831-176.34 357.61-187.979 344.73-203.13 334.5-203.16 334.48-203.189 334.46-203.229 334.44-204.87 333.34-206.72 335.5-205.399 336.96-199.92 343.021-193.609 351.311-191.859 358.891-190.64 364.23-195.27 370.261-201.6 371.69-206.92 372.891-210.25 370.371-211.79 363.971-212.16 362.451-212.39 360.871-212.91 359.4-216.779 348.701-222.41 347.69-231.899 352.451-232.66 352.831-232.81 355.28-232.58 356.65-231.16 364.831-231.01 372.701-236.85 379.46-237.649 380.38-239.069 381.9-239.62 381.681-244.51 379.701-244.569 383.951-245.93 386.391-247.46 389.13-248.68 392.061-250.279 394.75-252.59 398.641-251.729 401.94-248.109 404.021-243.09 406.9-237.81 409.36-232.49 411.681-229.72 412.891-227.38 411.761-226.88 408.57-225.85 402.061-224.92 395.53-224.17 388.971-223.37 382.011-222.84 375.011-222.16 367.73-209.13 377.011-211.62 421.561-227.58 429.69-228.88 427.15-230.17 424.59-231.79 421.4-233.75 423.221-235.68 424.94-237.51 426.75-241.2 430.411-244.71 434.271-248.55 437.771-252.87 441.721-257.17 441.851-262.71 438.71-258.931 431.216-256.721 429.035-246.493 424.65-244.809 423.929-245.178 421.434-246.998 421.221-248.864 421.002-250.734 421.639-252.51 422.521-258.97 425.75-262.6 431.541-264.819 438.05-265.99 441.511-263.06 442.761-260.13 442.831-257.069 442.9-254.01 442.55-250.16 442.34-250.979 443.661-251.29 444.911-251.99 445.19-256.43 447.011-260.85 449.081-265.49 450.141-268.95 450.931-272.74 450.53-276.359 450.271-280.279 449.98-282.399 450.73-283.609 455.261-285.43 462.05-293.01 465.451-300.609 463.36-306.3 461.8-311.75 459.32-317.37 457.221-312.77 448.871-302.29 443.201-289.62 443.371-287.97 441.371-287.16 439.771-285.859 438.94-281.75 436.3-277.46 433.96-273.24 431.491-273.705 430.57-273.513 430.95-273.978 430.029-279.048 432.23-284.149 434.39-289.2 436.65-291.779 437.82-294.18 439.451-296.84 440.38-298.5 440.951-300.979 441.4-302.229 440.59-308.1 436.811-313.68 432.561-320.029 428.011-311.83 423.4-304.64 419.291-297.37 415.32-292.81 412.82-292.74 412.92-290.31 417.061-287.529 414.28-284.99 410.931-281.71 408.63-277.18 405.471-275.569 406.451-274.54 411.951-274.35 412.971-274.279 414.011-273.109 415.451-272.359 413.92-270.92 412.351-271 410.871-271.29 405.28-268.46 400.99-266.029 396.38-261.18 387.141-256.7 377.721-252.069 368.38-252.7 368.061-253.33 367.75-253.95 367.44-254.71 369.261-255.479 371.07-256.21 372.891-260.609 383.9-266.359 394.05-276.62 400.57-281.31 403.55-286.779 405.271-291.899 407.581-295.569 409.24-300.16 410.041-302.72 412.761-312.21 422.84-323.7 424.36-336.479 422.65-343.65 421.69-350.9 421.261-358.12 420.65-359.64 420.521-361.19 420.63-364.19 420.63-360.46 423.38-357.77 425.09-355.42 427.181-354.28 428.201-353.729 429.9-352.93 431.3-354.34 431.65-355.75 432.05-357.18 432.331-357.94 432.48-358.729 432.431-359.9 432.5-358.53 436.42-360.65 437.351-363.89 437.8-372.68 439.01-376.1 437.261-380.38 428.891-380.836 427.999-381.274 427.096-381.67 426.179-382.062 425.274-382.796 425.928-383.147 426.499-383.496 427.067-383.476 427.642-383.397 428.275-383.307 429.004-383.258 429.74-383.17 430.47-383 431.886-382.751 433.315-382.18 434.63-379.24 441.42-373.14 445.351-367.35 449.36-356.91 456.61-345.2 460.771-332.83 463.55-323.96 465.55-322.31 468.621-322.88 478.891-327.46 478.271-332.04 477.75-336.58 477.041-343.24 475.99-350.01 475.271-356.47 473.48-359.82 472.55-363.21 470.121-365.53 467.451-371.59 460.49-376.979 452.96-382.8 445.791-389.45 437.63-391.19 428.891-387.34 418.891-386.43 416.521-386.7 413.28-387.5 410.791-389.22 405.451-390.34 400.53-384.75 395.88-383.19 398.24-381.67 400.561-379.75 403.49-379.339 383.8-366.74 376.73-352.66 369.761-333.96 360.521-315.54 350.74-297.02 341.141-295.609 340.4-294.43 339.21-292.63 337.84-299 334.55-304.79 334.851-310.74 335.78-329.01 338.641-344.92 346.871-360.03 357.061-364.04 359.761-368.24 362.19-373.17 365.271-372.55 357.911-368.77 353.21-364.53 349-352.61 337.21-337.71 330.78-321.95 326.021-320.5 325.581-319.06 325.09-316.979 324.42-322.91 319.831-328.2 322.891-332.92 324.63-343.06 328.331-352.87 332.911-363.83 336.451-362.77 335.09-362 333.15-360.62 332.49-355.64 330.141-354.55 326.141-354.84 321.201-355.03 317.891-355.18 314.55-354.96 311.25-354.67 306.721-351.2 304.3-345.17 303.601-340.64 303.07-338.72 305.971-337.189 309.311-336.26 311.36-336.7 313.32-335.72 313.48-333.34 313.871-330.68 312.55-328.13 311.86-327.05 311.57-326.67 310.221-327.37 309.34-331.359 304.34-328.39 302.041-324.51 297.59-322.08 294.78-320.63 291.13-318.399 288.11-317.83 287.341-314.13 282.551-311.99 280.431-314.38 278.48-316.74 276.44-319.18 274.471-317.52 270.29-315.189 271.961-312.76 273.131-311.596 273.687-310.429 274.238-309.259 274.786-306.396 271.063-306.911 271.732-304.049 268.01-306.974 264.518-309.953 261.079-313.109 257.811-317.8 252.961-325.88 252.841-332.2 257.271-337.56 261.021-342.71 265.271-347.19 270.021-358.93 282.45-373.66 287.66-390.15 289.19-397.37 289.86-404.64 290.5-410.56 295.311-419.54 302.61-425.38 311.42-423.89 323.74-423.66 325.63-424.39 327.641-424.9 331.181-429.88 326.03-433.87 321.9-438.02 317.621-443.38 324.451-444.79 331.851-445.62 339.3-448.18 362.471-442.85 384.561-435.84 406.371-435.52 407.38-434.87 408.291-434.27 409.451-432.75 401.65-428.84 395.721-421.76 390.121-415.86 411.681-410.52 432.48-406.92 455.17-412.44 451.141-417.31 447.581-422.22 444-421.27 448.53-420.16 453-419.44 457.521-418.26 464.92-417.89 472.48-416.16 479.74-412.95 493.13-405.49 504.311-396.42 514.511-387.07 525.021-377.79 535.581-368.52 546.161-365.51 542.353-363.52 540.411-363.52 540.411-359.22 534.11-346.9 531.05-341.1 534.49-337.529 536.61-333.979 536.48-330.5 534.291-320.24 527.851-310 521.38-299.74 514.94-295.63 512.351-291.49 509.8-287.14 507.101-288.17 503.871-289.819 503.021-293.029 504.75-304.899 511.17-316.779 517.59-328.85 523.63-331.06 524.74-334.14 524.141-337.04 523.641-334.26 517.021-329.479 512.78-323.95 509.63-314.42 504.19-303.979 501.601-292.97 501.331-291.72 501.3-290.42 501.161-289.24 500.791-281.439 498.351-278.939 501.88-278.29 509.67-278.2 510.75-278.18 511.84-278.06 514.041-276.66 512.11-275.8 510.96-274.97 509.78-271.34 504.67-267.859 502.96-263.63 504.23-259.479 505.471-255.859 510.371-255.43 515.351-255.33 516.451-255.12 517.61-255.359 518.65-256.45 523.331-253.189 524.96-250.029 526.971-246.63 529.13-242.83 531.19-240.42 534.261-238.54 536.65-238.529 540.521-237.67 543.811-245.81 545.05-246.43 545.84-247.05 553.15-247.87 563.141-253.18 570.3-262.55 573.15-277.72 577.761-293.029 582.811-309.22 581.23-315.689 580.59-321.97 578.201-328.399 576.951-330.509 576.54-334.017 576.095-337.183 575.736-340.027 575.413-341.992 578.508-340.491 580.945-337.289 586.142-332.678 593.473-329.72 597.49-319.14 611.88-305.569 622.5-288.069 627.09-280.76 629-273.12 629.761-265.58 630.71-250.58 632.601-235.56 631.55-220.95 628.291-206.21 625-192.31 619.061-179.26 611.21-161.67 600.641-146.54 587.21-132.8 572.121-120.689 558.84-115.529 542.621-115.229 525.09-114.99 510.96-115.529 496.701-117.2 482.681M-119.87 329.851C-122.91 326.28-126.02 322.771-129.3 319-134.89 323.75-134.95 324.851-129.979 329.75-125.79 333.891-121.62 338.07-117.43 342.25-114.8 338.36-115.47 335-119.87 329.851M-125.319 237.671C-127.56 235.141-129.12 235.24-130.42 238.37-130.55 238.66-130.59 238.99-130.689 239.28-133.21 246.24-133.06 246.53-125.49 249.311-122.38 245.211-121.93 241.5-125.319 237.671M-148.58 435.11C-155.75 436.391-158.81 439.061-158.87 446.13-158.97 458.63-167.13 465.5-175.689 472.371-184.89 479.771-194.97 485.181-206.979 486.891-199.68 489.44-192.37 490.181-185.029 487.451-163.81 479.55-149.069 465.011-141.029 443.851-138.52 437.24-141.62 433.86-148.58 435.11M-148.55 306.621C-142.22 303.221-141.6 299.061-146.96 294.48-152.37 298.57-152.6 300.63-148.55 306.621M-162.279 279.44C-155.58 276.601-154.399 261-157.97 254.57-165.33 258.091-166.95 267.41-162.279 279.44M-228.46 297.3C-214.14 309.05-199.81 320.8-185.49 332.55-185.029 331.98-184.56 331.411-184.1 330.84-198.55 319.25-213 307.67-227.45 296.081-227.79 296.49-228.13 296.891-228.46 297.3M-142.29 214.03C-144.97 206.181-147.42 198.25-150.189 189.62-152.08 190.761-153.359 191.49-154.62 192.29-159.25 195.2-161.479 194.37-162.31 188.83-163.17 183.08-165.649 178.631-171.05 176.381-173.59 175.341-176.479 175.16-179.43 174.551-180.04 171.11-180.609 167.29-181.42 163.521-183.09 155.811-188.01 152.73-195.85 153.87-196.92 154.03-198.75 152.53-199.39 151.351-201.34 147.721-202.16 143.271-204.7 140.19-215.31 127.36-226.46 114.98-237.21 102.25-239.04 100.08-239.97 97.101-241.13 94.41-242.34 91.591-242.76 88.261-244.51 85.881-250.91 77.12-257.66 68.62-264.45 60.16-265.68 58.631-267.71 57.761-270.26 55.95-271.5 65.41-267.49 72.04-263.1 77.131-257.24 83.9-252.58 91.15-248.45 98.921-244.66 106.051-238.149 110.54-232.29 115.681-226.6 120.681-221.59 126.171-219.3 134.4-220.81 134.25-222.04 134.4-223.06 133.98-228.149 131.94-233.38 130.101-238.18 127.48-241.05 125.91-243.83 123.421-245.569 120.66-249.54 114.36-249.6 114.211-257.109 115.11-258.85 115.33-260.83 113.961-262.649 113.2-276.42 107.5-289.45 99.15-305.38 101.021-306.47 101.15-307.95 100.94-308.569 101.57-309.77 102.761-310.49 104.44-311.42 105.91-309.859 106.261-308.14 107.25-306.79 106.87-295.01 103.58-283.899 104.431-273.609 111.5-265.77 116.9-258.18 122.711-250.01 127.561-241.3 132.74-231.84 136.66-223.08 141.771-212.62 147.891-202.3 154.4-195.149 164.65-194.27 165.91-193.439 167.29-192.96 168.74-189.439 179.591-179.979 186.32-174.319 195.74-167.35 207.33-154.68 212.69-144.729 221.221-141.84 219.4-141.21 217.181-142.29 214.03M-168.31 139.961C-169.97 148.061-166.649 153.061-159.51 152.681-162.609 148.211-165.26 144.381-168.31 139.961M-181.38 120.37C-185.279 125.78-184.35 128.32-176.71 133.08-174.3 131.171-171.89 129.25-168.899 126.87-173.75 124.341-177.41 122.44-181.38 120.37M-186.27 94.181C-188.39 93.591-189.029 92.23-187.319 90.32-184.96 87.671-186.25 86.391-189.149 86-192.109 85.601-195.09 85.381-198.38 85.04-200.319 92.141-200.2 92.931-194.1 95.33-191.14 96.49-191.18 97.57-192.1 100.16-194.59 107.221-192.689 111.41-187.17 111.891-186.3 111.961-184.689 111.891-184.609 111.57-183.71 108.29-183.26 104.891-182.29 101.641-181.109 97.671-182.189 95.301-186.27 94.181M-281.54 23.7C-282.99 21.45-284.6 19.29-286.06 17.04-289.35 11.94-289.33 11.931-296.55 14.271-291.27 19.83-286.279 25.051-281.31 30.311-278.819 32.961-275.72 35.511-279.54 39.921-277.609 40.87-275.95 41.681-274.029 42.62-274.189 34.98-277.899 29.341-281.54 23.7M-315.43-15.09C-310.479-11.079-311.689-2.029-302.8-2.239-302.37-10.109-307.06-15.109-315.43-15.09M-253.109 323.13C-256.649 329.82-256.109 334.311-250.83 343.98-245.56 336.511-246.17 330.25-253.109 323.13M-317.729 372.511C-323.979 375.261-329.689 379.271-335.939 382.03-339.22 383.48-343.229 384.271-346.77 383.931-355.229 383.101-359.74 389.311-365.51 393.331-365.95 393.641-366.24 394.411-366.27 394.98-366.47 399.161-358.13 407.99-352.25 408.041-348.35 406.911-342.78 405.36-337.25 403.681-330.979 401.761-324.779 399.561-318.47 397.78-304.72 393.911-293.81 384.911-281.85 377.811-281.069 377.36-280.24 376.601-279.95 375.791-278.66 372.23-276.83 369.661-272.49 369.701-271.59 369.701-270.42 368.351-269.81 367.351-265.34 360.011-266.04 353.94-272.1 347.88-273.76 346.221-275.649 344.771-277.58 343.431-280.05 341.71-282.06 341.951-283.649 344.92-291.149 358.86-303.8 366.391-317.729 372.511M-271.335 309.468C-274.265 305.928-277.965 303.248-281.635 300.678-282.574 300.018-283.524 299.368-284.475 298.728L-286.055 300.868C-288.244 301.968-290.435 303.068-292.704 304.208-295.045 305.378-295.085 308.698-292.784 309.958-286.965 313.118-280.784 314.748-274.034 314.888-271.194 314.948-269.524 311.658-271.335 309.468M-453.21 543.5C-452.88 542.23-453.67 539.94-454.71 539.19-457.51 537.17-460.729 535.73-463.91 533.971-467.86 545.621-466.11 554.411-459.24 560.291-458.66 560.791-458.04 561.44-457.35 561.561-451.78 562.55-447.87 565.831-444.41 570.121-442.63 572.331-440.03 573.23-436.77 570.311-441.16 565.701-445.33 561.25-449.57 556.88-453.26 553.07-454.6 548.78-453.21 543.5M-471.22 512.351C-472.17 512.331-473.61 512.9-473.94 513.601-474.25 514.28-473.7 515.78-473.04 516.42-470.229 519.181-467.25 521.771-462.69 518.661-464.8 515.391-466.97 512.44-471.22 512.351M-428.57 595.5C-437 589.48-445.42 583.46-453.85 577.44-449.24 588.9-439.54 593.221-428.57 595.5M-402.3 616.831C-400.87 618.21-399.18 619.92-398.87 621.701-398.53 623.67-399.61 625.9-400.07 628.021-402.1 626.511-404.22 625.11-406.08 623.431-406.57 623-406.26 621.681-407.229 620.34-408.29 621.951-409.35 623.561-410.8 625.771-407.55 628.141-404.68 630.59-401.49 632.48-396.25 635.61-391.38 633.391-389.49 627.261-388.94 625.471-388.55 623.63-387.86 620.951-383.92 625.57-380.34 629.761-376.02 634.811-378.88 636.951-380.89 638.46-383.03 640.061-378.64 642.871-373.92 642.44-370.72 639.17-367.45 635.82-370.01 632.431-371.59 629.791-378.61 618.09-388.55 610.161-402.34 607.811-405.64 607.25-408.96 606.78-412.28 606.261-412.43 606.63-412.59 607-412.75 607.371-409.25 610.511-405.67 613.561-402.3 616.831M-291.24 522.641C-291.24 520.82-292.71 519.351-294.529 519.351-296.35 519.351-297.819 520.82-297.819 522.641-297.819 524.451-296.35 525.92-294.529 525.92-292.71 525.92-291.24 524.451-291.24 522.641M-323.45 538.48C-316.149 542.67-293.859 537.59-287.479 529.69-300.14 532.78-311.77 535.63-323.45 538.48M-340.43 565.911C-329.09 564.931-317.75 563.561-306.569 561.44-298.45 559.911-291.54 555.291-285.689 549.38-281.71 545.351-281.56 541.92-284.609 537.021-291.24 541.927-297.12 544.46-304.105 546.012-319.425 549.417-326.26 545.82-336.88 543.88-346.34 542.181-348.89 541.911-353.68 549.831-355.06 552.121-357.77 553.621-359.89 555.511-356.13 564.161-348.76 566.621-340.43 565.911M-485.01 490.431C-485.37 489.82-487.09 490-488.19 489.82-488.12 490.75-488.37 491.891-487.93 492.59-486.11 495.431-484.09 498.121-482.14 500.871-481.54 500.511-480.95 500.141-480.34 499.78-481.86 496.641-483.25 493.431-485.01 490.431M-500.6 434.42C-496.79 433.88-492.94 433.561-488.97 432.05-491.21 431.3-493.41 430.331-495.71 429.86-499.75 429.041-501.11 426.871-499.6 423.061-498.14 419.391-499.12 417.63-503.19 417.011-506.61 416.49-509.9 415.121-513.74 413.98-512.68 412.19-512.21 411.03-511.43 410.15-508.82 407.19-509.729 405.71-512.94 403.73-515.2 402.331-516.57 399.34-518.08 396.9-519.46 394.67-520.47 392.21-522.2 388.74-524.61 392.041-526.5 394.63-528.72 397.67-530.59 394.851-532.28 392.291-533.93 389.811-544.18 391.67-548.64 398.601-544.46 406.32-542.62 404.9-540.729 403.55-538.97 402.05-537.21 400.541-535.58 398.86-533.28 396.681-530.07 401.141-527.06 405.261-524.14 409.42-518.17 417.951-512.43 426.621-512.24 437.561-512.07 447.641-507.62 455.791-501.11 463.05-497.08 467.541-491.69 468.891-485.53 468.55-490.01 465.271-494.59 462.101-498.96 458.681-503.93 454.8-505.95 449.09-507.38 443.311-508.54 438.63-505.61 435.11-500.6 434.42M-516.3 359.521C-516.54 354.331-516.96 349.161-517.21 343.971-517.53 337.371-520.9 332.53-525.74 328.34-527.86 326.5-529.58 324.17-531.34 321.96-536.11 316-535.87 309.67-532.55 303.181-531.91 301.931-531.24 300.701-530.51 299.5-528.69 296.471-528.85 294.181-532.32 292.261-535.01 290.761-537.56 288.8-539.77 286.631-543.24 283.2-543.17 280.28-539.54 276.931-536.979 274.551-536.33 273.25-540.01 271.131-547.01 267.12-548.88 259.9-550.65 252.58-552.27 245.94-554.81 239.511-556.5 232.881-557.91 227.33-559.37 221.65-559.58 215.971-559.9 207.41-563.7 201.511-570.94 196.721-573.63 205.551-573.79 214.03-570.68 222.04-567.34 230.62-562.68 238.671-558.97 247.11-553.7 259.08-550.56 271.41-553.42 284.7-553.86 286.74-552.52 289.23-551.76 291.44-547.88 302.82-544.31 314.331-539.82 325.48-537.79 330.49-533.9 334.761-530.34 340.141-530.87 341.07-532.45 343.081-533.25 345.36-537.34 356.891-531.1 369.28-519.71 374.63-518.99 374.971-516.18 373.141-516.12 372.19-515.82 367.99-516.1 363.74-516.3 359.521M-532.19 198.7C-537.63 204.801-534.61 213.82-525.229 221.29-527.72 213.2-529.85 206.29-532.19 198.7M-537.83 178.94C-541.229 170.521-544.74 162.131-548.52 153.86-549.86 150.94-552.64 150.511-559.14 151.37-551.69 161.811-552.77 177.11-538.21 184.23-538.01 181.921-537.32 180.19-537.83 178.94M-571.729 117.211C-574.44 117.271-577.13 117.78-579.89 118.091-578.03 126.15-573.25 130.101-566.04 131.461-563.21 131.99-562.09 130.931-561.85 128.061-561.229 120.83-564.47 117.061-571.729 117.211M-588.6 22.58C-583.79 32.23-579.49 40.83-575.2 49.44-572.13 40.511-578.6 28.08-588.6 22.58M-595.68 76.61C-604.07 71.07-612.53 65.851-621.85 62.08-622.55 61.811-623.479 61.24-623.63 60.641-625.96 51.171-634.09 46.931-640.71 41.24-643.62 38.75-646.62 35.811-648.22 32.431-652.72 22.881-652.6 22.7-662.91 27.801-655.5 35.181-648.22 42.4-640.97 49.65-638.85 51.771-636.29 53.671-634.92 56.211-633.78 58.33-633.7 61.25-633.86 63.78-634.14 68.75-631.68 72.341-626.78 72.341-615.04 72.33-605.93 77.82-597.62 85.4-595.04 87.761-591.97 89.561-588.49 92.07-587.28 82.431-588.64 81.261-595.68 76.61M-689.19-25.029C-694.85-15.67-690.93-8.279-687.46-1.34-682.72 8.11-674.19 11.351-662.91 10.78-670.58-2.25-676.52-15.609-689.19-25.029M-685.66-48.829C-688.21-52.97-690.58-57.31-693.77-60.909-695.04-62.34-698.54-62.949-700.47-62.289-702.01-61.77-702.69-58.739-703.479-57.34-702.47-53.699-702.03-51.02-701-48.609-698.92-43.75-689.3-42.35-685.88-46.34-685.42-46.859-685.29-48.239-685.66-48.829M-675.89 52.091C-673.95 53.171-671.68 53.86-670.15 55.341-667.17 58.211-663.81 61.11-662.04 64.7-657.07 74.771-651.2 83.771-640.99 89.301-637.28 91.32-636.21 95.94-639.04 99.53-643.64 105.36-644.1 110.841-640.2 117.28-634.54 126.671-629.43 136.4-624.05 145.961-623.52 146.9-622.86 147.891-622.01 148.53-615.3 153.521-614.85 160.62-615.51 167.99-616.34 177.11-614.77 184.95-606.72 190.881-600.43 195.511-594.87 201.12-588.64 206.61-585.36 195.79-584.979 185.62-591.47 176.4-605.22 156.891-614.16 135.341-620.36 112.381-622.7 103.681-626.43 95.211-630.68 87.24-632.22 84.341-636.87 82.48-640.479 81.421-647.34 79.44-650.74 74.82-651.69 68.37-653.27 57.561-657.77 49.391-668.01 44.091-672.25 41.9-675.06 36.79-678.25 32.79-679.68 31.011-680.47 28.721-681.63 26.521-687.21 35.221-685.03 47.021-675.89 52.091M-664.24 160.9C-665.15 162.37-666.21 163.771-667.35 165.061-670.41 168.48-670.69 172.07-669.21 176.41-666.19 185.28-663.52 194.261-660.96 203.28-659.11 209.83-658.05 216.631-655.91 223.07-654.65 226.851-651.8 230.08-649.979 233.721-640.65 252.221-630.17 270.271-622.57 289.46-616.57 304.61-614.34 321.221-610.01 337.081-609.27 339.771-606.4 341.891-604.52 344.28-603.89 343.951-603.24 343.63-602.61 343.3-603.24 338.09-603.84 332.88-604.52 327.67-606.02 316.121-607.77 304.601-609.03 293.03-610.92 275.61-614.6 258.74-621.63 242.58-624.62 235.681-626.33 228.24-629.12 221.24-630.55 217.66-632.44 213.79-635.229 211.301-644.5 203.011-646.229 192.011-647.69 180.69-648.45 174.82-649.02 168.771-650.97 163.261-652.69 158.391-656.33 154.23-658.91 149.641-662.5 143.261-665.9 136.78-669.37 130.33-669.88 129.381-670.3 128.391-671.29 126.32-673.1 133.271-671.16 138.12-668.2 142.721-666.93 144.7-665.51 146.601-664.17 148.54-661.32 152.671-661.71 156.82-664.24 160.9M-568.05 460.201C-566.15 462.07-564.52 464.19-562.77 466.21-562.78 466.28-562.79 466.36-562.79 466.42-562.71 466.521-562.61 466.61-562.53 466.701-558.12 477.371-552.05 480.3-541.51 481.17-539.8 481.32-537.9 479.311-536.09 478.3-537.26 476.73-538.1 474.57-539.66 473.721-541.64 472.65-544.39 471.82-546.479 472.311-553.24 473.9-558.13 471.201-562.53 466.701L-562.68 466.311C-562.71 466.28-562.74 466.25-562.77 466.21-562.76 466.11-562.76 466.011-562.81 465.951-567.42 459.28-566.25 452.03-565.09 444.721-564.93 443.721-565.35 442.09-566.06 441.621-566.85 441.11-568.479 441.261-569.41 441.75-571.59 442.891-573.56 444.42-576.27 446.23-578.74 433.13-581.1 420.61-583.45 408.081-583.96 408.141-584.45 408.19-584.96 408.25-585.1 409.041-585.33 409.831-585.34 410.621-585.71 429.28-581.94 446.49-568.05 460.201M-527.72 496.98C-525.33 499.57-522.02 501.371-518.89 503.15-518.28 503.5-516.79 502.291-515.45 501.67-516.479 500.331-517.03 499.57-517.64 498.86-519.479 496.701-521.21 494.42-523.27 492.5-524.31 491.53-525.979 491.261-527.38 490.67-527.55 492.831-528.71 495.9-527.72 496.98M60.23-84.789C56.11-71 50.4-57.64 45.021-44.239 41.391-35.21 35.811-26.739 33.601-17.449 31.46-8.439 32.16 1.311 32.26 10.73 32.33 18.101 32.48 25.671 34.221 32.78 36.83 43.45 36.41 53.351 30.91 62.91 28.641 66.851 26.99 70.841 28.55 75.44 31.01 82.73 29.33 89.44 25.311 95.65 21.101 102.16 16.9 108.711 12.17 114.86 7.96 120.341 7.521 126.11 9.26 132.301 11.87 141.54 15.94 150.2 15.36 160.421 14.25 180.311 14.391 200.271 14.221 220.2 14.141 229.15 14.63 238.11 14.721 247.07 14.82 255.891 14.71 264.7 14.75 273.521 14.79 280.921 15.63 288.381 14.851 295.69 13.58 307.71 11.601 319.69 9.311 331.57 7.8 339.38 6.34 347.511 2.87 354.55-2.67 365.771-5.859 377.05-5.12 389.521-4.899 393.23-5.279 397.291-6.649 400.701-9.109 406.78-12.27 412.641-15.64 418.311-18.6 423.3-19.58 428.791-16.09 431.271-8.5 436.63-9.56 443.15-11.64 450.581-13.3 456.511-13.439 462.48-9.149 468.041-4.21 474.44-5.01 481.951-6.43 489.351-7.97 497.311-10.04 505.221-10.819 513.25-11.99 525.28-15.21 536.3-23.029 545.871-29.069 553.271-33.81 554.73-42.67 551.23-47.66 549.271-51.38 551.641-51.47 556.851-51.52 560.011-51.5 563.161-51.6 566.3-51.74 570.8-52.609 574.431-57.31 577.201-60.569 579.13-63.16 583.17-64.62 586.82-67.39 593.78-71.08 599.331-77.89 603.311-84.319 607.061-83.859 608.931-79.71 614.96-78 617.451-76.42 621.621-77.43 623.871-78.37 625.96-82.77 627.28-85.79 627.59-91.359 628.181-97.04 627.67-102.67 627.871-104.26 627.94-106.29 628.5-107.29 629.581-110.069 632.541-112 636.351-115.04 638.971-118.14 641.65-122.14 643.331-125.77 645.42-130.229 647.98-135.279 649.871-139.029 653.201-145.04 658.521-143.77 663.36-136.99 667.63-131.06 671.36-124.8 671.98-118.04 671.931-113.029 671.891-108 672.951-102.97 673.541-99.81 673.92-96.649 674.511-93.479 674.67-90.29 674.82-87.08 674.431-83.88 674.511-80.81 674.581-78.56 678.391-80.75 679.98-85.76 683.621-91.12 687.541-96.96 689.09-101.06 690.17-106.16 687.411-110.85 686.581-112.95 686.21-115.54 685.561-117.229 686.38-125.77 690.53-133.47 688.971-140.51 683.48-146.74 678.641-153 678.09-160.04 681.55-163.79 683.391-167.689 683.831-171.2 680.44-172.09 679.57-174.109 678.78-175.04 679.19-180.33 681.53-179.85 687.261-181.76 691.541-182.54 693.28-181.52 695.8-181.29 697.96-181.29 698.07-181.04 698.141-180.93 698.25-176.529 702.75-176.529 706.99-181.279 711.11-183.91 713.391-186.8 715.451-189.8 717.25-195.39 720.59-199.609 719.851-204.64 715.721-206.59 714.11-209.17 712.82-211.67 712.32-219.359 710.78-222.22 706.74-220.49 699.13-220.34 698.471-220.47 697.75-220.47 696.34-233.95 701.971-244 698.36-250.89 686.78-254.819 687.75-258.35 689.28-261.92 689.371-269.17 689.57-274.13 692.121-276.54 699.15-277.97 703.34-281.149 705.621-285.859 704.74-290.41 703.911-294.99 703.11-299.399 701.791-312.34 697.9-325.77 695.011-335.439 684.391-337.729 681.86-340.52 682.23-342.74 685.23-344.72 687.891-346.55 690.9-349.17 692.8-355.78 697.601-362.5 695.011-368.06 685.9-366.3 683.46-364.49 680.931-362.3 677.88-371.12 674.081-383.26 675.03-384.27 660.371-390.9 667.081-396.4 672.641-401.82 678.13-409.22 670.71-399.91 664.261-400.99 656.581-404.89 658.57-407.95 660.88-411.38 661.641-414.09 662.24-417.24 660.94-420.2 660.48-418.85 657.8-417.54 655.101-416.1 652.471-415.84 652-414.979 651.88-414.47 651.5-413.29 650.63-412.18 649.67-411.03 648.761-411.18 648.3-411.18 648.3-411.34 647.84-425.32 647.871-433.61 641.331-435.67 627.71-439.2 629.67-442.02 631.431-445.01 632.831-449.08 634.74-452.13 632.931-454.5 629.681-456.729 626.601-456.729 623.621-454.06 620.681-451.57 617.931-449.24 615.05-446.38 611.69-452.26 608.59-457.29 605.891-462.38 603.271-480.44 593.98-496.43 582.09-509.729 566.84-514.31 561.561-518.96 556.601-525.33 553.121-534.19 548.261-540.04 540.86-542.51 530.86-545.26 519.641-551.28 510.5-561.01 503.59-563.75 501.641-566.08 498.041-566.86 494.791-568.35 488.581-571.49 484.25-577.28 481.59-583.77 478.61-590.27 475.641-596.71 472.55-601.6 470.201-606.28 469.761-611.1 472.831-613.92 474.621-616.92 476.17-619.979 477.541-621.33 478.141-623.01 478.041-624.54 478.25-624.68 476.61-625.229 474.88-624.9 473.331-623.22 465.3-616.87 460.24-608.54 460.101-604.92 460.041-601.3 460.09-597.69 460.09-597.33 459.42-597.26 459.28-596.91 458.61-598.45 456.28-599.74 453.73-601.61 451.69-611.55 440.851-616.84 428.59-616.61 413.63-616.46 404.431-620.88 396.4-628.4 390.25-630.34 388.67-631.8 386.101-632.63 383.701-636 373.9-639 363.98-642.229 354.11-644.13 348.311-646.56 342.641-648.1 336.74-652.32 320.46-655.18 303.771-660.47 287.851-666.62 269.421-674.99 251.7-682.03 233.53-688.39 217.091-691.5 200.04-690.75 182.36-690.67 180.36-690.67 178.04-691.59 176.381-695.34 169.61-695.64 162.341-694.41 155.181-692.729 145.351-693.479 135.801-695.35 126.141-696.41 120.641-696.75 115.261-694.88 109.471-690.95 97.29-691.68 84.65-696.04 72.761-704.58 49.5-710.91 25.711-715.85 1.54-719.67-17.109-723.03-35.85-726.27-54.6-727.63-62.5-728.479-70.529-728.96-78.529-729.33-84.779-726.44-90.079-720.85-93.109-715.72-95.88-710.4-95.569-705.66-91.47-701.229-87.63-696.3-84.31-692.17-80.189-677.1-65.22-665.62-48.51-665.5-26.25-665.49-22.59-663.34-18.939-662.17-15.279-661.65-15.409-661.13-15.539-660.61-15.67-660.39-16.21-660.02-16.729-659.97-17.289-659.34-24.85-658.3-32.409-658.36-39.96-658.39-44.039-659.31-48.8-661.6-52.06-670.39-64.56-676.51-78.949-688.71-89.13-691.2-91.22-691.89-95.25-694.06-97.869-697.85-102.46-701.99-106.819-706.27-110.989-715.94-120.42-713.99-133.76-701.94-139.64-699.64-140.76-697.29-141.819-695.1-143.14-691.07-145.58-687.42-144.959-684.1-142-681.02-139.239-678-136.399-675.13-133.43-667.66-125.699-661.99-116.27-652.27-110.659-646.31-107.21-640.63-103.279-634.16-99.14-633.22-103.31-632.26-106.329-631.91-109.42-630.8-119.01-622.6-125.88-612.87-124.489-610.72-124.18-608.91-121.63-606.95-120.109-608.55-118.47-609.91-116.43-611.82-115.319-614.69-113.649-616.67-112.3-617.01-108.359-617.5-102.81-618.62-96.989-621.03-92.01-624.5-84.84-624.24-79-619.08-72.84-615.72-68.85-612.52-64-616.18-58.72-618.26-55.729-617.81-53.75-616.07-51.109-614.18-48.239-611.31-45.13-611.27-42.1-611.16-34.569-612.42-27.029-613.2-18.76-618.17-20.859-620.52-23.869-621.36-28.119-622.25-32.579-622.3-37.39-624.1-41.46-627.39-48.909-632.11-55.739-635.49-63.159-640.88-74.97-648.81-85.229-655.479-96.26-657.79-100.09-661.06-100.89-664.37-98.93-670.08-95.56-670.77-91.76-666.54-86.829-665.91-86.119-665.06-85.569-664.52-84.8-658.9-76.859-650.22-71.159-646.97-61.479-646.66-60.56-645.67-59.71-644.79-59.159-639.02-55.579-636.76-50.38-636.21-43.8-635.82-38.989-635.52-33.27-632.79-29.729-625.01-19.689-616.37-10.359-611.12 1.4-610.56 2.66-607.99 3.82-606.49 3.681-605.09 3.54-602.93 1.69-602.79 .41-602.44-2.699-603.03-5.93-603.31-9.1-604.2-19.42-606.1-29.8-600.71-39.619-600.19-40.569-600.02-41.71-599.8-42.789-598.33-50.17-601.61-56.409-605.31-62.279-613.04-74.59-611.6-87.18-607.16-99.949-606.75-101.13-605.479-102.279-604.32-102.8-603.87-103-602.27-101.56-601.74-100.579-600.12-97.55-598.65-94.42-597.3-91.26-587.44-68.279-577.65-45.279-567.78-22.3-567.24-21.05-566.2-20.01-565.39-18.869-564.76-19-564.72-19.01-564.09-19.149-558.66-48.92-542.4-72.119-519.65-91.34-516.1-90.43-515.57-87.89-516.68-85.399-518.07-82.279-519.979-79.289-522.09-76.569-527.61-69.479-534.18-62.72-526.33-53.68-531.42-49.3-536.58-45.689-540.64-41.14-544.74-36.529-546.22-30.619-545.41-23.3-539.13-29.97-533.52-35.92-527.27-42.55-526.58-40.21-525.92-39.149-526.03-38.18-527.32-26.67-530.74-16.149-540.04-8.14-545.53-3.42-549.22 6.811-543.87 15.421-531.68 35.07-522.01 55.9-514.39 77.66-512.93 81.83-511.03 85.86-509.2 90.271-498.24 78.69-497.56 65.24-505.76 52.921-511.7 43.99-518.4 35.53-524.15 26.49-527.21 21.681-530.37 16.24-531.07 10.78-533-4.149-526.42-16.729-515.94-26.869-505.26-37.21-497.68-49.09-493.05-62.93-491.36-68-490.06-73.18-488.229-78.189-487.82-79.3-485.6-80.819-484.74-80.539-479.479-78.899-473.66-69.029-474.63-64.039-477.979-46.88-485.479-31.659-496.33-17.85-506.63-4.739-506.78 4.58-495.79 17.591-490.97 23.28-485.8 28.711-481.43 34.7-470.67 49.45-466.9 65.91-471.77 83.511-474.27 92.551-478.69 101.08-481.86 109.961-484.74 118.091-487.88 126.25-489.49 134.66-491.14 143.28-491.59 152.221-491.62 161.03-491.67 179.94-492.08 198.931-490.49 217.74-489.35 231.24-485.26 244.511-482.39 257.86-481.88 260.221-480.89 262.48-480.13 264.78-478.37 240-478.12 215.41-476.27 190.931-475.4 179.36-471.49 168.011-468.91 156.561-468.06 152.82-465.93 152.23-462.479 154.431-463.54 164.471-464.57 174.48-465.65 184.49-466.03 188-465.64 190.95-463.29 194.131-461.45 196.62-461.05 200.511-461 203.79-460.94 207.28-462.05 210.801-462.9 215.801-455.95 211.471-450.19 207.7-444.25 204.221-438.07 200.591-433.53 195.98-429.95 189.551-419.2 170.261-403.49 165.171-383.01 173.761-370.86 178.86-359.02 184.62-347.01 190.03-346.55 190.24-345.87 189.94-344.27 189.771-348.79 184.2-352.74 179.15-356.88 174.25-361.9 168.301-367.13 162.53-372.15 156.58-374.64 153.61-374.67 147.74-372.34 147.49-369.19 147.16-365.13 146.851-362.81 148.45-342.57 162.381-322.67 176.78-302.58 190.94-298.38 193.9-294.37 198.07-288.24 195.03-286.149 186.49-286.649 185.98-294.68 180.74-295.29 180.341-295.89 179.91-296.46 179.461-312.899 166.5-329.45 153.681-345.66 140.461-352.53 134.86-358.729 128.45-365.05 122.23-365.9 121.391-365.69 119.511-365.97 118.12-364.86 118.141-363.55 117.811-362.65 118.25-341.18 128.83-320.51 140.801-301.33 154.98-279.64 171.021-258.56 187.86-237.21 204.351-236.5 203.78-236.6 203.86-235.89 203.29-239.22 196.211-242.06 188.86-246 182.131-257.46 162.58-273.1 147.25-294.21 137.61-302.41 133.86-311.229 131.211-317.76 124.351-322.29 119.591-324.689 119.931-329.33 124.69-331.91 127.341-334.439 128.641-338.14 126.211-341.31 124.131-345.01 122.86-348.33 120.99-352.55 118.61-356.63 115.99-361.51 113.021-353.07 105.15-345.43 98.03-337.8 90.891-338.16 90.261-338.1 90.37-338.46 89.74-340.36 90.311-342.31 90.74-344.13 91.471-350.3 93.94-354.72 93.131-359.36 88.461-361.61 86.2-363.82 83.9-366.02 81.601-371.3 76.07-371.35 72.7-366.18 66.891-363.17 63.5-360.1 60.141-356.82 56.511-358.39 55.32-359.51 54.471-360.62 53.62-364.78 50.431-369.13 47.45-373.06 43.99-377.97 39.66-378.05 35.25-373.84 30.4-373.04 29.48-372.2 28.591-370.9 27.15-379.86 20.841-386.42 13.471-382.55 1.58-376.62 1.15-371.88 3.221-368.4 7.86-359.01 20.381-349.25 32.66-340.54 45.62-336.609 51.44-334.689 58.61-332.12 65.261-330.67 69.021-330.27 73.48-324.819 73.33-319.41 65.98-318.819 58.091-321.37 49.641-322.51 45.891-322.8 41.891-323.63 38.04-324.41 34.41-325.41 30.82-326.63 25.971-328.72 29.311-329.91 31.2-331.5 33.73-335.43 28.54-338.819 24.061-342.56 19.131-336.6 14.87-331.01 10.891-325.2 6.74-331.39 .32-337.81 1.45-345.83 5.431-344.35 .62-343.51-2.96-342.16-6.35-338.49-15.51-339.06-17.149-347.87-22.279-356.69-27.42-365.42-32.689-374.2-37.88-378.85-40.63-383.49-41.93-388.55-38.56-390.56-37.229-393.01-36.5-395.71-35.3-396.99-41.789-398.16-47.72-399.58-54.96-401.45-52.93-402.58-51.85-403.53-50.64-407.17-45.979-410.06-45.619-413.33-50.46-417.28-56.329-420.44-62.699-423.79-68.939-424.36-70-424.13-71.47-424.27-72.75-422.81-72.67-421.27-72.859-419.91-72.46-416.11-71.329-412.41-69.88-408.64-68.699-404.69-67.46-403.07-69.92-402.15-73.05-401.13-76.569-403.18-78.64-406.3-79.289-409.02-79.859-411.93-79.649-414.75-79.64-418.55-79.64-422.45-78.949-426.13-79.569-430.03-80.22-431.1-83.479-430.88-87.229-430.66-90.949-427.89-90.18-425.61-90.47-414.84-91.84-414.79-91.859-418.78-102.189-422.08-110.72-423.82-119.439-422.07-128.52-421.82-129.81-420.51-131.55-419.33-131.899-416.59-132.709-413.65-133.119-410.78-133.109-395.729-133.069-380.66-132.989-365.61-132.529-363.06-132.449-359.78-131.039-358.19-129.149-354.56-124.81-351.7-119.819-348.63-115.05-344.41-108.5-343.229-101.42-344.92-93.829-346.45-86.96-344.84-84.689-338.17-82.319-334.64-81.069-331.149-79.329-328.12-77.17-320.59-71.81-318.81-63.25-316.18-54.55-314.12-55.239-312.42-55.659-310.87-56.35-308.97-57.189-307.14-58.189-305.359-59.26-300.729-62-298.93-65.899-300.68-70.84-302.09-74.81-303.71-78.93-306.22-82.27-314.96-93.859-320.149-107.199-326.319-120.05-327.84-123.229-328.49-126.81-329.609-130.479-328.35-130.789-327.62-131.13-326.88-131.14-311.7-131.42-296.51-131.779-281.319-131.869-266.25-131.959-251.17-131.55-236.1-131.83-231.899-131.909-231.24-130.14-231.8-127.119-234.41-112.939-233.76-98.68-231.27-84.699-228.18-67.359-220.18-51.649-211.93-36.119-205.46-23.939-199.25-11.619-193.029 .431-197.59 5.561-197.77 5.73-202.79 .971-218.67-14.09-234.43-29.3-250.27-44.409-251.109-45.22-252.35-45.619-253.41-46.21-250.91-39.579-247.76-33.81-244.649-28.02-229.279 .591-209.939 26.11-185.34 47.851-175.359 56.66-169.41 68.45-165.64 81.051-162.49 91.57-159.08 101.671-148.2 107.16-146.71 107.91-145.62 109.5-144.45 110.79-137.68 118.271-133.899 126.94-134.069 138.5-127.79 132-122.49 126.5-116.6 120.41-122.399 117.221-127.16 114.36-132.14 111.95-135.859 110.16-138.069 107.73-139.04 103.671-139.8 100.54-141.34 97.49-143.09 94.73-147.899 87.15-153.38 79.95-157.8 72.171-159.46 69.23-159.27 65.101-159.35 61.49-159.47 55.87-158.52 50.171-159.069 44.591-160.56 29.4-164.3 14.41-163.2-1.02-163.09-2.59-162.64-4.59-163.39-5.68-167.99-12.27-164.38-18-161.83-23.85-155.64-38.069-154.27-52.569-158.52-67.609-160.729-75.409-159.13-82.239-152.89-88.35-147.24-93.859-141.88-99.97-137.88-106.67-134.33-112.6-132.93-119.739-130.33-126.239-129.59-128.09-128.1-130.75-126.66-130.959-124.76-131.229-122.46-129.59-120.529-128.439-119.689-127.949-119.25-126.68-118.79-125.699-115.029-117.72-118.2-110.55-122.109-103.829-129.92-90.42-133.17-75.92-133.979-60.68-134.729-46.6-135.93-32.529-136.51-18.439-136.74-12.68-136.1-6.84-135.439-1.09-134.79 4.61-130.93 9.66-132.779 16.011-133.83 19.58-133.35 23.721-132.92 27.53-131.979 35.86-130.45 44.12-129.529 52.44-128.609 60.66-127.64 68.4-118.529 72.54-115.76 73.811-113.08 75.29-110.359 76.9-106.08 79.431-100.91 75.24-102.62 70.57-102.64 70.521-102.649 70.48-102.66 70.44-105.63 62.381-107.1 54.83-101.92 46.631-99.55 42.891-99.25 37.15-99.81 32.521-100.89 23.521-103.27 14.681-105.05 5.761-107.29-5.52-111.1-16.88-108.77-28.35-106.319-40.39-103.109-52.22-105.109-64.609-105.97-69.939-107.1-75.229-108.14-80.529-108.7-83.43-110.51-86.649-109.74-89.119-106.43-99.739-102.5-110.18-98.45-120.55-97.99-121.739-95.47-122.67-93.88-122.71-93-122.729-91.31-120.659-91.3-119.51-91.22-114.199-91.79-108.89-91.75-103.579-91.72-97.52-92.37-91.17-90.779-85.47-87.899-75.21-84.37-65.329-86.68-54.39-89.729-39.92-87.109-25.869-82.609-12-79.96-3.819-76.729 4.381-75.62 12.801-73.67 27.711-74.79 42.7-78.529 57.37-79.52 61.271-79.77 63.521-78.56 65.37-76.33 68.771-71.13 68.181-69.399 64.511-66.359 58.08-63.279 51.681-60.62 45.12-59.05 41.25-59.01 36.82-57.89 32.75-55.109 22.74-50.359 13.82-42.609 6.49-40.939 4.91-39.43 2.211-39.439 .03-39.52-11.489-40.229-23.01-40.47-34.539-40.91-56.289-46.21-77.97-41.33-99.829-40-105.829-43.27-110.779-46.229-115.689-50.02-121.96-49.04-127.039-43.399-130.899-40.27-133.039-38.62-132.25-37.5-128.84-35.89-123.909-33.49-119.21-32-114.26-30.439-109.079-28-103.51-28.67-98.449-30.7-82.979-30.02-67.67-28.33-52.3-27.64-46.13-27.25-39.92-26.479-33.77-25.38-25.039-24.069-16.329-22.85-7.619-22.229-7.439-22.17-7.43-21.56-7.25-14.43-15.92-7.439-24.699-.13-33.22 3.811-37.819 3.86-42.42 1.71-47.71 .5-50.699-.77-54.079-.52-57.159 .46-69.13-3.58-79.93-7.08-91.039-10.02-100.409-11.75-110.18-13.39-119.869-14.12-124.17-11.319-127.439-6.7-130.02-5.279-127.069-3.729-124.539-2.819-121.81-.18-113.949 1.891-105.899 4.76-98.13 7.49-90.729 10.94-83.579 14.05-76.39 14.271-77.699 14.78-79.47 14.83-81.26 15.13-90.659 15.09-100.079 15.59-109.47 16.2-121.029 27.59-130.319 39.2-129.09 45.771-128.399 49.05-123.409 45.74-117.689 39.55-106.979 42.34-95.67 42.26-84.439 47.11-94.609 46.75-107.439 58.971-114.399 59.96-112.229 60.99-110.42 61.65-108.489 64.42-100.43 62.45-92.229 60.23-84.789"/>
</g>
</g>
</svg>
