<svg xmlns="http://www.w3.org/2000/svg" width="1984.25" height="1984.25" viewBox="0 0 1984.25 1984.25"><defs><clipPath id="clip_1"><path d="M0-.002h1984.252V1984.25H0Z"/></clipPath></defs><g clip-path="url(#clip_1)"><path d="M1491.213 846.541q-.14.56-.28 1.135c-10.001 41.13-22.138 83.242-38.08 132.094l-10.327-18.022-69.871-121.942 29.968.005 31.54.004c18.059 0 35.66-.006 53.257-.03 3.549 0 4.326.768 4.446.923.608.779-.091 3.581-.653 5.833m-8.851 338.31c8.279-31.055 16.528-62.116 24.778-93.177 8.048-30.299 16.363-61.611 24.58-92.438 4.305 8.588 6.368 18.126 6.633 30.376.687 31.941-.711 65.667-4.401 106.141-2.96 32.456-9.256 66.062-19.753 105.32l-6.201-9.828c-8.397-13.309-16.328-25.881-24.237-38.299-1.781-2.795-2.187-5.14-1.4-8.095m40.988-272.199c-2.684-14.992-5.46-30.494-19.805-42.364-4.737-3.921-2.577-11.602 1.29-18.092 20.453 30.613 31.836 64.287 42.855 96.886 3.06 9.058 6.227 18.425 9.534 27.56 12.229 33.789 24.123 68.343 35.626 101.76q4.085 11.876 8.18 23.749c.4 1.156 1.01 2.306 1.6 3.419 2.326 4.386 1.957 4.871.439 5.744-.744.428-1.412.637-2.042.637-2.364 0-4.722-3.2-6.617-5.77l-.47-.638c-22.808-30.699-33.637-67.323-44.11-102.741l-.386-1.307c-2.884-9.755-6.197-19.531-9.4-28.985-5.743-16.95-11.682-34.477-15.285-52.308-.505-2.498-.964-5.067-1.41-7.55m-55.507 69.459c8.924-33.305 18.253-66.133 26.2-93.854l.14-.5c.664-2.409 1.054-2.834 1.63-2.834q.093 0 .194.01c2.097.196 2.854 1.447 4.333 4.707q.24.533.489 1.068c8.087 17.225 12.455 35.979 16.68 54.116.51 2.191 1.02 4.382 1.538 6.571.895 3.792 1.913 7.602 2.898 11.286.423 1.582.846 3.164 1.26 4.748-.122 3.017-.941 4.155-5.113 5.138-15.154 3.576-30.751 7.99-46.357 13.122-1.584.521-2.58.631-3.134.631-.551 0-.88-.107-.961-.213-.223-.291-.466-1.5.203-3.996m66.904 402.508c-2.053-7.845-1.93-15.847-1.8-24.318.108-7.033.22-14.307-1.014-21.552-8.798-51.677-4.377-106.272 13.938-171.177 1.812 6.044 3.604 12.1 5.355 18.018 5.783 19.54 11.762 39.745 18.39 59.399 5.489 16.266 10.308 33.068 14.969 49.315 7.232 25.209 14.709 51.275 24.888 76.128q.293.711.597 1.435c2.978 7.091 4.334 11.286-2.376 15.059-20.175 11.344-21.327 31.422-22.342 49.136l-.15 2.558-.068 1.165c-.551 9.28-.854 14.394-2.84 16.364-1.98 1.967-7.056 2.202-16.27 2.627l-2.33.109c-2.468.117-4.986.174-7.698.174-7.762 0-15.675-.487-23.325-.958-7.732-.476-15.727-.968-23.654-.968-4.431 0-8.475.15-12.362.458-.363.029-.705.044-1.014.044-.608 0-.998-.057-1.235-.111.13-.565.654-1.915 2.698-4.634 4.632-6.168 9.235-12.504 13.686-18.632 5.939-8.174 12.078-16.626 18.34-24.748 6.349-8.232 8.028-15.676 5.617-24.891m-192.328 23.154c.192 3.125.37 6.077.273 9.025l-.035 1.105c-.276 8.909-.415 13.382-10.421 13.382q-.24 0-.485-.004l-.276-.002c-4.158 0-7.687 1.442-10.205 4.168-2.995 3.243-4.402 8.158-3.961 13.841.28 3.599-.218 6.033-1.52 7.443-1.272 1.378-3.54 2.048-6.928 2.048l-.407-.003a879 879 0 0 0-14.108-.098c-4.161 0-8.321.018-12.481.037-4.151.018-8.302.037-12.453.037-8.085 0-18.73-.064-29.366-.561-2.21-.102-2.687-.612-2.691-.617-.03-.097-.311-1.3 2.977-5.938 4.172-5.887 8.206-12 12.108-17.912 6.617-10.029 13.46-20.4 21.09-29.812 18.946-23.365 28.019-51.036 36.794-77.797 1.568-4.779 3.188-9.722 4.838-14.555 5.428-15.903 8.153-23.886 5.547-30.684-2.582-6.737-9.928-10.906-24.562-19.212l-.5-.284c-30.406-17.257-62.467-35.668-103.958-59.694-3.873-2.244-6.803-4.739-8.474-7.215-10.312-15.288-20.581-30.985-30.511-46.164q-4.175-6.385-8.357-12.765a21780 21780 0 0 0 35.786 14.559c28.284 11.486 57.53 23.364 86.162 35.34 25.589 10.704 51.528 21.779 76.614 32.487 22.675 9.679 46.122 19.688 69.246 29.398 5.502 2.311 8.002 4.062 8.628 6.044.638 2.022-.5 5.31-3.475 10.051-16.151 25.725-31.745 52.357-46.827 78.112-7.85 13.402-15.963 27.26-24.056 40.817-5.042 8.447-4.516 17.078-4.006 25.423m-32.257-544.127c1.463 13.477 2.976 27.412 3.788 41.124 1.266 21.36 2.344 43.099 3.386 64.123 1.89 38.105 3.844 77.508 6.99 116.189.653 8.016.898 16.231 1.134 24.177.487 16.329.99 33.213 5.029 49.58l.008.129c.289 5.001.562 9.724-.807 11.178-.178.189-.72.763-2.74.763-2.192 0-5.311-.664-9.532-2.032-48.892-15.836-99.176-30.143-147.804-43.979a17696 17696 0 0 1-33.858-9.656c-4.136-1.185-6.42-2.269-8.208-5.222-5.26-8.684-10.801-17.383-16.16-25.795-11.176-17.546-22.733-35.69-32.262-54.538-2.314-4.578-3.181-6.291.24-10.574 35.274-44.144 73.352-87.209 110.175-128.857 17.669-19.983 35.94-40.647 53.676-61.176 4.443-5.142 7.293-6.965 10.89-6.965 2.372 0 5.28.842 8.897 2.574 3.039 1.456 6.138 3.113 9.134 4.716 10.285 5.502 20.92 11.192 33.635 11.612 1.908.063 2.232.347 2.475 4.117.032.509.066 1.012.114 1.499.569 5.677 1.195 11.44 1.8 17.013m36.638 292.656q-.275.431-.554.886c-.86 1.396-1.833 2.976-2.725 2.976q-.258 0-.603-.112c-1.06-.348-1.327-1.17-1.435-4.4a72 72 0 0 0-.048-1.18c-.57-10.665-1.116-21.332-1.665-31.998-1.43-27.825-2.91-56.596-4.741-84.879-4.238-65.404-8.323-123.645-12.487-178.049-.591-7.709-.857-12.543 1.008-14.687 2.059-2.367 7.98-3.122 19.664-3.833l.104-.006.103-.015c1.542-.217 2.93-.322 4.243-.322 6.9 0 11.846 3.092 15.563 9.733 22.91 40.932 47.949 84.665 78.797 137.63 4.378 7.516 4.438 12.995.213 19.542-22.084 34.231-44.423 69.104-66.028 102.828-9.8 15.298-19.6 30.595-29.41 45.886m-721.724 167.241c4.537-2.703 9.23-5.498 13.536-8.625 1.9-1.382 3.81-3.21 5.656-4.979 3.622-3.471 7.368-7.06 10.662-7.06.856 0 1.683.248 2.528.758 2.393 1.447 1.222 6.931.089 12.236-.674 3.156-1.372 6.421-1.443 9.368l-.023.959c-.417 17.275-.848 35.138-3.8 52.199-2.113 12.221-8.957 22.268-16.203 32.905-4.354 6.391-8.857 13.002-12.225 20.119-3.56 7.52-7.375 10.874-12.371 10.874-2.152 0-4.612-.637-7.311-1.892l-.53-.246h-.585c-5.178 0-10.357-.016-15.535-.033-5.183-.016-10.367-.032-15.552-.032-8.59 0-15.618.046-22.114.144l-.472.004c-4.347 0-4.95-.968-4.954-.977-.006-.011-.555-1.07 1.838-5.131 5.42-9.202 10.847-18.605 16.094-27.697 11.784-20.42 23.969-41.536 36.867-61.703 5.985-9.358 15.633-15.106 25.848-21.191m-3.945-170.088c5.877 20.044 11.753 40.089 17.65 60.127a3043 3043 0 0 1 4.72 16.236c4.314 14.934 8.773 30.374 13.768 45.394 2.405 7.23 2.057 10.533-4.695 14.661-10.267 6.276-20.282 13.255-29.967 20.003-4.49 3.128-9.132 6.362-13.73 9.478-.585.397-1.101.84-1.6 1.269-.665.571-1.494 1.283-1.934 1.283-.163 0-.372-.091-.518-.167-1.07-.561-1.19-1.095-.85-3.811.08-.639.163-1.299.192-1.972l.032-.752c.999-23.439 2.033-47.676 3.343-71.49 1.496-27.218 3.133-54.888 4.716-81.647a57932 57932 0 0 0 1.908-32.366ZM401.082 769.198c3.76 0 6.832 1.196 9.802 2.351 1.236.481 2.514.978 3.809 1.376 14.777 4.536 29.76 9.301 44.25 13.908 17.025 5.414 34.629 11.011 52.027 16.28 8.65 2.62 11.08 6.197 8.97 13.198-1.072 3.558-2.178 3.558-2.84 3.558-.723 0-1.686-.259-2.784-.746-29.471-13.094-58.872-25.93-90-39.519-7.837-3.421-15.766-6.882-23.806-10.396q.286-.01.572-.01m344.904-206.823c.277.071.73.211 1.142.338l.05.016L542.34 798.163l-.043-.025q1.881-4.71 3.76-9.423c3.312-8.307 6.737-16.898 10.149-25.325a59691 59691 0 0 1 15.47-38.159c14.743-36.341 29.987-73.921 44.773-110.965 1.89-4.736 3.137-7.477 6.774-8.76a52223 52223 0 0 1 122.762-43.131M904.404 783.62c-27.347 21.955-54.5 43.921-83.245 67.177-8.394 6.791-16.906 13.678-25.574 20.686l-13.017-222.027-4.668-79.624.057-.008a5869 5869 0 0 0 13.16 20.494c10.245 15.903 20.838 32.347 30.859 48.737 13.392 21.904 26.866 44.265 39.896 65.888 13.724 22.775 27.916 46.326 42.042 69.394q.337.548.66 1.068c2.712 4.351 3.355 5.385-.17 8.215m-285.352 307.517c32.695-37.64 65.884-75.953 97.98-113.005 22.243-25.678 44.486-51.356 66.746-77.02l.1-.01c.386 2.872.797 5.747 1.197 8.549 1.142 8.006 2.324 16.284 2.91 24.413.697 9.636 1.155 19.469 1.598 28.978.52 11.175 1.059 22.731 1.987 34.089.603 7.383-1.103 13.8-5.706 21.456-41.334 68.757-78.868 147.171-118.032 246.606-5.09-11.731-8.55-24.358-11.905-36.597-.892-3.255-1.814-6.621-2.755-9.928-11.042-38.799-22.46-78.919-34.233-118.944a91 91 0 0 0-.457-1.486c-1.023-3.248-1.49-4.73.57-7.101m12.554-231.497c16.604 3.492 33.774 7.103 50.67 10.374 10.529 2.037 21.202 4.394 31.523 6.673 17.112 3.779 34.807 7.686 52.45 10.279 7.999 1.176 9.02 2.888 9.145 3.219.524 1.403-2.896 5.398-5.16 8.042l-.45.527c-24.925 29.166-51.72 60.431-78.781 91.44-13.103 15.015-26.576 30.163-39.605 44.812-10.283 11.562-20.916 23.518-31.307 35.34l-.772.878c-3.065 3.491-5.971 6.8-7.213 7.403-1.001-.986-2.73-5.174-4.552-9.592l-.558-1.351-1.637-3.961c-27.767-67.142-56.48-136.57-68.594-209.838-.567-3.427-1.716-6.727-3.048-10.548q-.417-1.195-.872-2.52c34.017 5.206 66.91 12.124 98.76 18.823M317 727.246c-5.932-1.521-8.17-2.513-8.107-6.932.069-4.966 3.783-6.594 9.893-8.686q.65-.221 1.286-.443a242295 242295 0 0 1 155.199-54.266c34.445-12.035 68.89-24.07 103.33-36.116 5.066-1.771 10.08-3.683 14.929-5.533 1.994-.76 3.965-1.512 5.91-2.243 1.524.248 2.098.582 2.27.709-.02.527-.615 1.785-.98 2.556a28 28 0 0 0-.832 1.877q-4.016 10.365-8.028 20.731c-7.54 19.482-15.337 39.627-23.073 59.412-3.645 9.319-7.41 18.777-11.048 27.925-7.695 19.337-15.652 39.333-22.956 59.204-2.644 7.194-4.556 8.46-7.594 8.46-1.503 0-3.361-.368-5.684-1.125-61.34-20.004-123.84-39.938-184.28-59.215l-16.91-5.394c-1.101-.351-2.231-.641-3.325-.921m37.62 102.151c1.725-.578 3.51-1.176 5.189-1.861 14.416-5.883 21.765-14.593 24.57-29.122 2.62-13.558 3.877-16.485 7.083-16.485 2.948 0 7.84 1.957 15.546 5.18 14.652 6.128 29.5 12.481 43.86 18.625 12.707 5.436 25.846 11.057 38.807 16.505q.596.248 1.199.487c3.92 1.566 4.003 2.024 3.679 3.373-.125.524-.163.682-1.361.682-.523 0-1.105-.052-1.723-.106-.666-.059-1.354-.119-2.037-.119q-.221 0-.435.008c-23.442.986-45.824 3.24-67.468 5.42-20.854 2.099-42.42 4.271-65.16 5.347-2.308.109-5.551.174-8.672.174-2.616 0-4.96-.043-6.913-.124 3.25-4.437 8.42-6.17 13.836-7.984m-54.968-34.716c3.7-5.381 12.22-5.744 21.24-6.129 3.9-.167 7.932-.339 11.602-.961 9.495-1.611 19.022-3.488 27.427-5.145 3.448-.68 6.742-1.329 9.82-1.918l.129-.025.125-.037c1.73-.511 3.073-.771 3.989-.771.92 0 1.266 0 1.734 2.095 1.723 7.695-6.487 27.545-14.217 31.043-5.652 2.558-11.251 5.386-16.665 8.122-9.875 4.989-20.086 10.148-30.816 13.738-2.237.748-3.934 1.112-5.19 1.112-1.462 0-2.843 0-3.93-6.209-.714-4.091-2.177-8.292-3.592-12.356-2.968-8.523-5.771-16.574-1.656-22.559m-15.792-58.68c.29-.421.916-.817 1.8-1.145 8.252 4.212 12.052 12.13 16.067 20.496.622 1.296 1.244 2.592 1.884 3.876 2.297 4.612.45 6.098-3.941 9.022-2.061 1.371-4.193 2.789-5.604 4.849l-.054.076c-.423-.424-1.047-1.374-1.385-2.605-2.628-9.553-5.228-19.114-7.83-28.675l-.994-3.66c-.42-1.541-.061-2.062.057-2.234m70.259 31.783c-8.862 1.403-17.721 2.818-28.328 4.512l-7.463 1.191c6.367-8.537 2.259-15.925-1.738-23.113l-.125-.224c2.752 1.087 5.428 2.137 8.053 3.167 11.408 4.475 21.26 8.34 30.97 12.814.645.297.979.569 1.143.739-.305.253-1.06.684-2.512.914m301.413 82.487c-3.23-.625-6.445-1.242-9.612-1.851-16.262-3.124-33.077-6.355-49.457-10.101-7.081-1.619-14.235-2.755-21.153-3.853-9.37-1.487-19.056-3.025-28.748-5.79-.745-.213-1.554-.393-2.336-.567-5.283-1.176-6.252-1.973-5.76-4.738.743-4.171 4.147-6.762 8.886-6.762 1.206 0 2.479.17 3.784.505 25.714 6.608 51.172 15.088 75.043 23.207 3.334 1.134 6.762 2.086 10.076 3.007 6.754 1.877 13.266 3.686 19.277 6.943m126.149 23.8c-.217.228-.744.276-1.148.276-1.094 0-2.648-.333-4.752-1.018-81.276-26.476-148.44-48.065-211.366-67.941-5.564-1.757-6.444-2.947-6.564-3.377-.09-.319-.108-1.671 3.398-5.683 37.238-42.626 74.233-85.345 108.664-125.16 15.269-17.657 30.739-35.652 45.7-53.055a30779 30779 0 0 1 35.359-41.083 131 131 0 0 0 1.997-2.389c2.669-3.243 5.214-6.336 9.125-8.648 4.49 14.981 5.102 30.131 5.695 44.812.217 5.404.443 10.994.86 16.455 2.666 34.832 4.398 70.337 6.073 104.673 1.357 27.815 2.76 56.577 4.652 84.843 1.127 16.837 1.999 33.621 2.94 52.243.19 3.756-.38 4.784-.633 5.052M280 706.975c.583-3.575.782-7.311.975-10.924.667-12.526 1.244-23.344 15.592-28.833q.849-.327 1.677-.662c2.447-.983 4.56-1.831 6.879-1.831.636 0 1.258.063 1.899.191a133.5 133.5 0 0 0 26.195 2.612c16.43 0 33.3-3.015 51.578-9.219 42.276-14.349 85.642-27.898 127.58-41.001 20.567-6.426 41.836-13.071 62.715-19.729 9.134-2.912 18.285-6.291 27.135-9.559 3.152-1.164 6.387-2.358 9.624-3.533 1.118 8.747-4.154 12.51-13.384 15.776-73.57 26.025-148.413 52.371-220.793 77.849l-42.823 15.075c-5.015 1.766-10.148 3.502-15.111 5.181-10.97 3.711-22.313 7.548-33.233 11.986-2.331.948-4.135 1.429-5.36 1.429-.238 0-.813-.023-.995-.238-.077-.09-.734-.988-.15-4.57m63.125-56.359c-.213 3.029-7.504 3.998-11.86 4.578-1.05.139-2.044.272-2.943.42a66 66 0 0 1-4.012.124c-20.885 0-30.19-10.733-40.04-22.097-2.582-2.979-5.253-6.059-8.146-8.955-.91-.91-1.237-1.472-1.353-1.733.604-.509 2.439-1.145 3.466-1.502q.46-.159.905-.317c6.78-2.428 13.482-3.659 19.915-3.659 12.575 0 24.505 4.517 36.47 13.809 7.388 5.738 7.932 14.575 7.598 19.332m-54.181 7.126c-.202 2.607-4.235 5.292-7.252 7.086-14.82 8.809-30.603 13.276-46.913 13.276-8.875 0-18.15-1.315-27.611-3.914 11.367-19.043 26.822-33.516 47.15-44.18 2.422-1.269 3.936-1.811 5.065-1.811.834 0 1.94.263 3.823 2.215q1.488 1.544 2.97 3.095c5.76 6.011 11.716 12.226 18.266 17.647 2.148 1.778 4.674 4.364 4.502 6.586m59.249 193.064c29.133-2.334 56.649-4.538 84.609-6.668 10.41-.793 21.015-1.472 31.27-2.129 11.765-.753 23.93-1.532 35.89-2.489 2.39-.191 4.212-.28 5.732-.28 4.332 0 5.05.794 5.149.953.462.734.23 3.24-3.486 11.01-8.51 17.783-17.373 35.774-25.945 53.173a8643 8643 0 0 0-15.79 32.162c-9.66 19.816-19.233 39.601-29.368 60.548-3.931 8.124-7.94 16.406-12.057 24.908l-80.811-125.325-27.888-43.25c11.029-.878 21.915-1.75 32.695-2.613m701.85 157.89q-25.314-12.757-50.623-25.521c-63.252-31.894-128.658-64.875-193.116-97.069-3.091-1.543-3.896-2.335-4.104-2.635.135-.348.727-1.256 3.166-3.43 24.403-21.755 50.498-42.653 75.735-62.863 11.153-8.931 22.66-18.147 34.029-27.437l57.8 93.323 77.598 125.291Zm-249.264-62.569c-.968-6.809-1.882-13.24-1.15-18.952l.022-.176-.001-.178c-.077-13.022-.137-23.308 2.19-25.654.275-.275.692-.558 1.714-.558 3.759 0 11.672 3.921 20.835 8.46 45.007 22.298 90.666 45.173 134.82 67.295 29.087 14.573 59.164 29.641 88.776 44.405 2.744 1.367 4.328 2.773 4.582 4.065.398 2.028-2.284 5.09-4.438 7.55-16.542 18.885-33.45 38.012-49.802 56.511l-13.736 15.543c-2.348 2.659-4.766 5.344-7.104 7.942-4.816 5.348-9.795 10.879-14.483 16.522-2.972 3.577-4.938 5.037-6.786 5.037-1.755 0-4.02-1.273-6.922-3.893a8505 8505 0 0 1-21.02-19.059c-32.3-29.347-65.697-59.694-100.583-87.11-20.013-15.728-27.395-32.072-25.48-56.416.569-7.244-.45-14.407-1.434-21.334m176.554 185.469a28868 28868 0 0 1 28.159-32.249c16.492-18.869 33.545-38.378 50.226-57.648 2.577-2.978 5.5-6.354 7.29-6.354.849 0 2.768.897 6.095 6.909 8.375 15.137 18.024 29.861 27.355 44.101 5.073 7.743 10.319 15.748 15.288 23.71.3.483.62.971.942 1.462 1.442 2.204 2.933 4.483 2.517 6.135-.374 1.483-2.316 2.805-3.88 3.652-22.65 12.28-45.514 25.039-67.626 37.38-10.571 5.899-21.502 11.999-32.266 17.967-1.796.996-3.744 1.776-5.31 2.401-.464.187-.89.357-1.26.512-.344.034-.68.052-.997.052-3.063 0-4.588-1.62-6.517-3.671-.513-.545-1.042-1.108-1.614-1.647-4.268-4.026-8.568-8.169-12.727-12.176l-4.122-3.969c-6.662-6.403-10.681-10.267-10.84-13.01-.157-2.719 3.398-6.8 9.287-13.557m113.697-340.444c-1.387 10.342-2.787 20.682-4.185 31.023-3.195 23.62-6.5 48.045-9.615 72.088-1.312 10.114-3.25 20.351-5.123 30.25-3.174 16.759-6.456 34.089-6.876 51.643-.016.657.027 1.334.068 1.989.05.808.158 2.49-.118 2.861-.005 0-.152.088-.566.129a4 4 0 0 1-.366.018c-1.468 0-2.106-1.142-2.973-5.314-5.821-28.032-11.622-56.068-17.422-84.103-5.836-28.2-11.671-56.401-17.527-84.597-1.181-5.691-.998-9.223.596-11.453 1.539-2.153 4.7-3.498 9.665-4.112 15.425-1.908 30.39-5.272 44.48-10 2.826-.948 5.109-1.429 6.786-1.429 1.81 0 2.325.558 2.494.742 1.377 1.494 1.012 6.142.682 10.265m140.876 30.51c-15.16 16.924-30.235 34.408-44.814 51.316-14.238 16.514-28.963 33.591-43.74 50.115-5.838 6.53-11.617 13.293-17.203 19.833-13.207 15.458-26.864 31.443-42.207 45.354-.8.724-1.487 1.516-2.152 2.282-1.422 1.638-2.628 3.028-4.703 3.675.623-5.683 1.222-11.393 1.803-16.946 1.529-14.59 3.11-29.678 5.15-44.398 4.142-29.882 8.67-60.229 13.05-89.577 1.647-11.029 3.294-22.058 4.924-33.089.59-3.998 1.18-7.292 1.856-10.369 3.542-16.122 4.475-19.535 9.716-19.535 3.73 0 9.745 1.675 18.069 3.992 12.54 3.492 25.275 7.122 37.588 10.632 19.445 5.544 39.552 11.277 59.423 16.611 5.965 1.601 7.433 2.663 7.613 3.273.073.244.203 1.723-4.373 6.831m-288.834-10.617c.855-.649 4.563-1.24 5.993-1.468 15.578-2.482 32.108-5.929 50.536-10.535 2.757-.689 4.658-.997 6.165-.997 2.7 0 4.912.62 6.752 8.409 12.247 51.849 23.602 107.037 33.753 164.032.332 1.866.988 3.66 1.623 5.395 1.048 2.865 2.058 5.623 1.719 8.798l-4.03-6.482c-4.734-7.613-9.206-14.803-13.636-22.008-7.744-12.595-15.465-25.203-23.188-37.81-20.515-33.493-41.728-68.125-63.014-101.941-2.291-3.641-2.655-4.944-2.673-5.393M696.29 565.812c-23.086 8.549-46.958 17.389-70.494 25.917-.616.223-1.19.341-1.658.341-.432 0-.718-.104-.778-.207-.125-.218-.105-.94.48-1.951.708-1.221 1.328-2.541 1.926-3.819 2.074-4.426 3.563-7.167 6.739-7.913 21.5-5.051 43.445-9.887 64.666-14.564q6.247-1.376 12.496-2.756zm-403.898 262.41c-.514.838-1.283 1.613-3.41 1.613-2.63 0-6.26-1.223-9.77-2.405-3.784-1.276-7.697-2.595-11.327-2.821-9.155-.57-17.682-4.502-26.708-8.664l-.33-.152 6.939-3.007c11.129-4.823 22.636-9.811 33.988-14.628.68-.289 1.113-.35 1.356-.35.646 0 1.255.874 1.808 2.597.964 3.005 2.376 6.162 3.74 9.215 3.135 7.012 6.376 14.263 3.714 18.602m147.1 189.658c.594-1.047 1.155-2.035 1.55-2.898 10.095-21.985 20.787-44.162 31.126-65.609 4.709-9.769 9.579-19.871 14.33-29.826 2.516-5.27 4.969-10.665 7.34-15.882 3.432-7.543 6.979-15.344 10.753-22.849.436-.867.77-1.793 1.095-2.687.867-2.399 1.516-4.192 3.594-4.959-.507 17.369-4.543 103.361-34.924 142.297-3.168 4.06-13.597 10.089-18.598 10.751-1.605.213-3.377.32-5.267.32-3.6 0-7.592-.369-12.565-1.161-.925-.148-1.23-.399-1.256-.452-.54-1.124 1.99-5.58 2.822-7.045m379.195 222.36c10.265 13.061 19.833 26.612 29.962 40.958 3.627 5.136 7.356 10.417 11.195 15.785-7.694 1.361-14.808 3.089-21.722 4.77-9.916 2.411-19.281 4.687-28.921 5.487-.585.048-1.142.072-1.655.072-3.984 0-5.763-1.265-7.612-5.417-19.502-43.777-41.964-89.265-68.67-139.063-.51-.952-2.042-3.809-1.975-4.674.184-.18 1.01-.759 4.423-1.391l3.21-.596c19.179-3.555 39.009-7.231 58.022-12.733 2.504-.723 4.636-1.09 6.337-1.09 1.843 0 3.14.419 3.965 1.28 1.82 1.898 1.884 6.307 1.736 9.935-.52 12.756-1.304 27.802-3.195 42.688-2.413 18.988 6.178 32.893 14.9 43.989m47.855 129.797c1.57 6.376-.387 10.013-6.76 12.554-11.924 4.755-23.797 10.179-35.278 15.424-3.99 1.822-8.093 3.697-12.181 5.536-3.673-7.813-3.47-15.879-3.256-24.377.06-2.388.122-4.858.088-7.293-.167-12.145-.34-24.703-2.912-37.394-1.081-5.331-.863-8.607.707-10.623 1.548-1.989 4.81-3.11 9.696-3.333 9.126-.417 18.145-2.96 26.867-5.419 3.83-1.079 7.79-2.196 11.665-3.101 1.636-.383 3.04-.576 4.177-.576 2.178 0 2.845.714 3.065.95.689.739 1.45 2.536 1.157 6.899-1.01 15.049-1.448 32.848 2.965 50.753m983.605-267.405c-17.434-8.11-30.86-21.247-43.842-33.951-6.733-6.587-13.694-13.399-21.153-19.461a66 66 0 0 1-1.2-1.009c-2.367-2.021-5.05-4.311-9.285-4.311-.818 0-1.676.089-2.551.264l-1.655.33c-20.236 4.031-41.161 8.2-54.74 28.103-4.063 5.955-9.657 11.224-15.068 16.32-2.391 2.253-4.865 4.582-7.203 6.964l-.51.522c-2.96 3.029-5.515 5.643-9.346 5.856-6.557.363-13.233.682-19.688.991-13.616.652-27.696 1.325-41.526 2.454-.467.037-.921.057-1.35.057-4.441 0-6.74-1.866-8.476-6.887-7.55-21.811-15.153-44.014-22.506-65.484-8.233-24.039-16.747-48.897-25.22-73.315a3470 3470 0 0 1-5.24-15.257c-12.428-36.366-25.28-73.97-46.916-107.503-4.217-6.534-9.064-10.816-15.72-13.885a17339 17339 0 0 0-35.662-16.378c-34.701-15.905-70.584-32.351-105.517-49.216-27.432-13.243-50.372-19.149-74.383-19.149-3.444 0-6.957.127-10.443.378-13.527.972-28.042 1.406-47.061 1.406-7.953 0-16.053-.074-23.885-.144-7.85-.072-15.967-.145-23.954-.145-20.192 0-35.576.492-49.882 1.594a98 98 0 0 1-7.521.291c-18.162 0-35.58-5.095-51.767-15.144-66.7-41.405-136.335-85.931-206.971-132.338-54.263-35.651-108.464-68.59-174.8-79.923-9.86-1.684-19.792-2.538-29.525-2.538-30.12 0-59.56 7.899-90.002 24.149-22.554 12.04-43.77 27.212-64.286 41.884l-4.762 3.404c-36.002 25.706-79.61 54.027-130.07 69.182-3.123.938-5.576 1.394-7.5 1.394-3.91 0-5.715-1.499-6.774-10.787-1.667-14.617-29.091-37.237-45.143-37.237-1.254 0-2.44.138-3.527.41-3.917.98-7.928 1.903-11.807 2.796-17.93 4.127-36.47 8.394-53.031 19.837-10.45 7.219-19.641 10.729-28.101 10.729-11.837 0-23.175-6.954-35.68-21.885-8.687-10.371-17.908-20.653-26.826-30.596-4.052-4.519-8.242-9.191-12.361-13.847l-5.281-5.969.662 7.949c2.636 31.665 30.427 85.438 35.972 95.896.663 1.252 1.366 2.314 2.148 3.247 4.513 5.384 11.512 9.222 21.397 11.732 10.99 2.79 25.52 5.993 40.45 5.993 12.139 0 22.998-2.054 33.196-6.279 2.536-1.051 4.363-1.563 5.586-1.563.783 0 .987.218 1.064.299.308.327.998 1.536.76 5.697-.112 1.939-.232 3.878-.352 5.818-1.074 17.299-2.184 35.187 3.42 52.816 2.167 6.815 3.569 14.073 4.926 21.093a469 469 0 0 0 1.699 8.516c.148.704.408 1.45.658 2.172.15.431.38 1.093.524 1.637-2.406-.175-4.993-.258-8.132-.258-2.186 0-4.407.041-6.555.079-2.13.038-4.33.077-6.477.077-12.392 0-22.444-1.467-31.231-8.625-19.168-15.617-38.537-31.646-57.27-47.146a21796 21796 0 0 0-24.016-19.855l-10.431-8.609 6.419 11.915c13.938 25.871 28.803 51.363 43.179 76.017 5.739 9.839 11.672 20.015 17.447 30.043 4.37 7.59 10.769 9.717 16.425 11.115 3.69.912 7.379 1.833 11.069 2.754 17.673 4.411 35.949 8.972 54.15 12.5 7.268 1.409 11.957 4.52 15.678 10.402 2.883 4.556 5.735 9.253 8.493 13.795 2.998 4.937 6.097 10.043 9.262 15.01l2.73 4.284c29.998 47.082 61.017 95.766 91.786 143.492 3.237 5.022 7.429 10.491 16.23 11.81 3.86.579 7.635.872 11.222.872 15.269 0 28.176-5.283 38.365-15.704 8.034-8.216 14.35-19.428 19.309-34.275 12.767-38.217 18.82-71.368 19.627-107.492.025-1.132.038-2.277.05-3.434.085-7.627.172-15.467 3.939-23.698 16.995 68.544 37.005 129.814 61.096 187.103 2.088 4.963 4.449 9.968 6.73 14.808 8.84 18.742 17.98 38.121 13.412 59.68-3.086 14.57-3.437 29.359-3.776 43.662-.211 8.925-.43 18.156-1.32 27.162-3.373 34.173-4.554 69.088-5.695 102.853-.4 11.804-.813 24.01-1.313 35.998-.18 4.284-1.716 7.81-3.97 11.785-15.605 27.529-31.216 55.054-47.062 82.995l-14 24.684-1.917 3.381 3.842.554c24.66 3.555 48.136 3.768 70.839 3.973q4.147.037 8.288.081c.802.009 1.67.075 2.59.144 1.089.081 2.214.165 3.354.165 2.875 0 6.979-.495 9.41-4.777 3.93-6.92 8.548-13.702 13.014-20.259 9.5-13.951 19.324-28.378 23.619-45.537 3.755-15.002 4.767-30.574 5.746-45.634.239-3.673.485-7.471.768-11.191.25-3.283.424-6.648.593-9.903.56-10.797 1.14-21.962 4.537-31.774 9.814-28.345 21.093-56.759 32.002-84.238a6764 6764 0 0 0 10.06-25.447c.26-.659.483-1.356.699-2.03.766-2.395 1.236-3.401 1.824-3.712 2.673 9.311 4.302 19.068 5.88 28.524 3.73 22.34 7.587 45.441 25.32 64.11 3.183 3.351 6.168 7.082 9.054 10.689 3.847 4.807 7.824 9.778 12.434 14.091 21.063 19.706 30.012 42.742 28.162 72.494-.8 12.871.479 25.703 1.832 39.288.613 6.161 1.248 12.532 1.693 19.035l.268 3.91 3.523-1.702c6.566-3.172 12.998-6.335 19.218-9.393 15.573-7.658 30.283-14.892 45.365-21.45 9.954-4.329 8.774-11.887 8.069-16.403-2.966-18.998-5.873-41.119-2.807-63.257.883-6.38-.74-12.21-4.965-17.823-5.035-6.691-9.956-13.666-14.714-20.41-4.86-6.889-9.884-14.012-15.06-20.873-1.073-1.424-2.156-2.844-3.238-4.265-14.584-19.137-28.36-37.214-21.762-62.54 3.664-14.067 3.46-28.259 2.874-39.052-.195-3.581.336-4.252.397-4.318.068-.071.437-.304 2.338-.304.642 0 1.349.022 2.12.046.655.021 1.353.042 2.096.054 20.368.336 40.929 2.807 60.813 5.195 18.315 2.2 37.253 4.474 56.08 5.095 10.063.332 17.702 6.023 23.233 10.943 1.362 1.211 2.734 2.416 4.108 3.623 6.685 5.871 13.599 11.943 19.204 18.727 4.688 5.671 9.31 8.313 14.55 8.313 4.846 0 9.59-2.241 15.225-5.606 20.812-12.425 42.37-24.45 63.218-36.08 10.714-5.976 21.79-12.156 32.642-18.318 3.418-1.943 5.779-2.809 7.653-2.809 1.755.001 4.188.697 7.447 6.122 6.478 10.782 13.853 21.224 20.986 31.324 4.22 5.977 8.587 12.158 12.705 18.324l.473.709c7.543 11.3 15.342 22.983 28.487 30.289 32.263 17.93 66.953 37.526 109.172 61.668 1.04.594 2.17 1.128 3.266 1.643 5.427 2.557 7.943 4.024 5.837 9.37-4.26 10.814-7.84 22.041-11.303 32.899-8.31 26.058-16.904 53.005-35.425 75.481-11.653 14.141-21.455 29.702-31.833 46.178-4.807 7.631-9.778 15.522-15.107 23.544l-2.737 4.121h4.94c9.157 0 17.97-.089 26.495-.176 8.18-.083 15.906-.162 23.612-.162 11.865 0 21.56.196 30.51.618l2.53.122c3.406.166 6.346.31 8.793.31 13.148 0 14.614-4.907 17.67-21.926 1.215-6.765 3.09-8.003 6.344-8.003.445 0 .927.03 1.436.086 1.269.144 2.477.217 3.59.217 14.14 0 14.228-11.516 14.292-19.924.025-3.268-.208-6.588-.433-9.799-.63-8.976-1.224-17.456 3.337-25.193 4.754-8.065 9.496-16.138 14.238-24.21 19.844-33.779 40.363-68.71 61.453-102.493 6.593-10.561 5.54-16.347-4.166-22.93-20.99-14.236-41.595-28.698-62.616-43.497-9.36-6.589-15.01-10.566-15.758-14.088-.73-3.433 2.635-8.688 8.745-18.228l.104-.163c1.624-2.536 3.023-5.201 4.376-7.777 1-1.906 2.036-3.878 3.132-5.732 1.744-2.951 2.819-2.951 3.173-2.951.663 0 1.903.371 4.043 2.141 20.313 16.8 41.029 33.805 61.063 50.25 22.745 18.67 46.265 37.977 69.302 57.072.894.741 1.829 1.461 2.732 2.157 4.613 3.556 8.596 6.628 8.866 12.671 1.497 33.605 3.91 77.804 9.327 121.663.399 3.232-1.24 5.442-3.311 8.242a70 70 0 0 0-1.532 2.124c-5.376 7.854-11.136 15.282-17.233 23.148-9.89 12.756-20.116 25.947-29.123 41.676l-2.275 3.972h4.57c9.97 0 19.749-.099 29.206-.193 9.342-.094 18.166-.182 27.052-.182 15.299 0 27.716.282 39.078.888 1.614.086 3.036.128 4.349.128 9.947 0 19.25-2.23 19.958-18.406.125-2.87.34-5.508.655-8.065.359-2.9.639-5.857.909-8.717 1.618-17.04 3.144-33.137 20.432-43.069 7.397-4.25 8.928-11.27 4.55-20.865-10.451-22.906-14.887-44.831-13.561-67.027 1.67-27.956 1.544-50.698-.395-71.572-.363-3.907-.237-7.95-.104-12.231.38-12.173.81-25.97-11.793-36.539-6.586-5.521-12.64-11.911-18.496-18.09-7.062-7.452-14.366-15.158-22.824-21.635l-.613-.469c-4.854-3.702-9.045-6.9-8.537-13.404l.165-2.108c2.046-26.164 4.16-53.219 3.196-80.025l-.003-.093c-.11-3.039.159-3.061.81-3.115q.087-.007.17-.007c1.367 0 2.377 1.316 2.445 2.187 1.617 20.658 12.75 36.546 23.516 51.911 4.989 7.118 10.147 14.479 14.193 22.136 3.448 6.527 7.272 8.87 15.155 9.284 2.539.133 5.22.202 7.967.202 9.336 0 18.707-.775 27.769-1.524 8.338-.689 16.959-1.401 25.437-1.493 22.02-.24 49.427-.538 63.337-28.538 2.163-4.354 3.977-4.354 4.66-4.354 1.713 0 4.107 1.202 7.118 3.575 2.133 1.681 4.083 3.77 6.147 5.983 4.758 5.099 10.15 10.877 18.61 11.429 2.97.193 6.054.292 9.166.292 16.726 0 33.48-2.824 49.687-5.555 7.759-1.307 15.783-2.66 23.767-3.701l9.057-1.183Z"/></g></svg>