<svg xmlns="http://www.w3.org/2000/svg" xmlns:xlink="http://www.w3.org/1999/xlink" xmlns:inkscape="http://www.inkscape.org/namespaces/inkscape" version="1.1" width="1984.25" height="1984.25" viewBox="0 0 1984.25 1984.25">
<defs>
<clipPath id="clip_1">
<path transform="matrix(1,0,0,-1,0,1984.25)" d="M0 1984.252H1984.252V0H0Z"/>
</clipPath>
</defs>
<g inkscape:groupmode="layer" inkscape:label="Layer 1">
<g clip-path="url(#clip_1)">
<path transform="matrix(1,0,0,-1,1491.2129,846.541)" d="M0 0C-.093-.373-.187-.751-.28-1.135-10.281-42.265-22.418-84.377-38.36-133.229L-48.687-115.207-118.558 6.735C-108.326 6.734-98.359 6.732-88.59 6.73L-57.049 6.726C-38.991 6.726-21.389 6.732-3.793 6.756-.244 6.756 .533 5.988 .653 5.833 1.261 5.054 .562 2.252 0 0M-8.851-338.31C-.572-307.255 7.677-276.194 15.927-245.133 23.975-214.834 32.29-183.522 40.508-152.695 44.812-161.283 46.875-170.821 47.14-183.071 47.827-215.012 46.429-248.738 42.739-289.212 39.78-321.668 33.483-355.274 22.986-394.532 20.877-391.19 18.813-387.919 16.785-384.704 8.388-371.395 .457-358.823-7.452-346.405-9.233-343.61-9.639-341.265-8.851-338.31M32.136-66.111C29.452-51.119 26.677-35.617 12.331-23.747 7.594-19.826 9.754-12.145 13.621-5.655 34.074-36.268 45.457-69.942 56.476-102.541 59.537-111.599 62.703-120.966 66.01-130.101 78.239-163.89 90.133-198.444 101.636-231.861 104.36-239.778 107.086-247.695 109.817-255.61 110.216-256.766 110.826-257.916 111.417-259.029 113.742-263.415 113.373-263.9 111.855-264.773 111.111-265.201 110.443-265.41 109.813-265.41 107.449-265.41 105.091-262.21 103.196-259.64L102.726-259.002C79.918-228.303 69.089-191.679 58.616-156.261L58.23-154.954C55.346-145.199 52.033-135.423 48.83-125.969 43.087-109.019 37.148-91.492 33.545-73.661 33.04-71.163 32.581-68.594 32.136-66.111M-23.372-135.57C-14.448-102.265-5.119-69.437 2.829-41.716L2.969-41.216C3.632-38.807 4.022-38.382 4.599-38.382 4.66-38.382 4.725-38.386 4.792-38.392 6.889-38.588 7.646-39.839 9.125-43.099 9.286-43.454 9.448-43.811 9.614-44.167 17.701-61.392 22.069-80.146 26.295-98.283 26.805-100.474 27.315-102.665 27.832-104.854 28.727-108.646 29.745-112.456 30.73-116.14 31.153-117.722 31.576-119.304 31.99-120.888 31.868-123.905 31.049-125.043 26.877-126.026 11.723-129.602-3.874-134.016-19.48-139.148-21.064-139.669-22.059-139.779-22.614-139.779-23.165-139.779-23.494-139.672-23.575-139.566-23.798-139.275-24.041-138.066-23.372-135.57M43.532-538.078C41.479-530.233 41.603-522.231 41.732-513.76 41.84-506.727 41.952-499.453 40.718-492.208 31.92-440.531 36.341-385.936 54.656-321.031 56.468-327.075 58.26-333.131 60.011-339.049 65.794-358.589 71.773-378.794 78.402-398.448 83.89-414.714 88.709-431.516 93.37-447.763 100.602-472.972 108.079-499.038 118.258-523.891 118.452-524.365 118.653-524.844 118.855-525.326 121.833-532.417 123.189-536.612 116.479-540.385 96.304-551.729 95.152-571.807 94.137-589.521L93.988-592.079 93.919-593.244C93.368-602.524 93.065-607.638 91.08-609.608 89.1-611.575 84.023-611.81 74.809-612.235L72.479-612.344C70.011-612.461 67.493-612.518 64.781-612.518 57.019-612.518 49.106-612.031 41.456-611.56 33.724-611.084 25.729-610.592 17.802-610.592 13.371-610.592 9.327-610.742 5.44-611.05 5.077-611.079 4.735-611.094 4.426-611.094 3.818-611.094 3.428-611.037 3.191-610.983 3.322-610.418 3.845-609.068 5.889-606.349 10.521-600.181 15.124-593.845 19.575-587.717 25.514-579.543 31.653-571.091 37.916-562.969 44.264-554.737 45.943-547.293 43.532-538.078M-148.796-561.232C-148.604-564.357-148.425-567.309-148.523-570.257L-148.558-571.362C-148.834-580.271-148.973-584.744-158.979-584.744-159.138-584.744-159.3-584.742-159.464-584.74L-159.74-584.738C-163.898-584.738-167.427-586.18-169.945-588.906-172.94-592.149-174.347-597.064-173.906-602.747-173.626-606.346-174.124-608.78-175.426-610.19-176.698-611.568-178.965-612.238-182.354-612.238L-182.761-612.235C-186.986-612.168-191.47-612.137-196.869-612.137-201.03-612.137-205.19-612.155-209.35-612.174-213.501-612.192-217.652-612.211-221.803-612.211-229.888-612.211-240.532-612.147-251.169-611.65-253.379-611.548-253.856-611.038-253.86-611.033-253.89-610.936-254.171-609.733-250.883-605.095-246.711-599.208-242.677-593.095-238.775-587.183-232.158-577.154-225.315-566.783-217.684-557.371-198.739-534.006-189.666-506.335-180.891-479.574-179.323-474.795-177.703-469.852-176.053-465.019-170.625-449.116-167.9-441.133-170.506-434.335-173.088-427.598-180.434-423.429-195.068-415.123L-195.568-414.839C-225.974-397.582-258.035-379.171-299.526-355.145-303.399-352.901-306.329-350.406-308-347.93-318.312-332.642-328.581-316.945-338.511-301.766-341.295-297.51-344.079-293.254-346.868-289.001-334.945-293.868-323.014-298.714-311.082-303.56-282.798-315.046-253.551-326.924-224.92-338.9-199.331-349.604-173.392-360.679-148.306-371.387-125.631-381.066-102.184-391.075-79.06-400.785-73.558-403.096-71.058-404.847-70.432-406.829-69.794-408.851-70.931-412.139-73.907-416.88-90.058-442.605-105.652-469.237-120.734-494.992-128.583-508.394-136.697-522.252-144.79-535.809-149.832-544.256-149.306-552.887-148.796-561.232M-745.348 286.859ZM-181.053-17.105C-179.59-30.582-178.077-44.517-177.265-58.229-175.999-79.589-174.921-101.328-173.879-122.352-171.988-160.457-170.035-199.86-166.889-238.541-166.236-246.557-165.991-254.772-165.755-262.718-165.268-279.047-164.764-295.931-160.726-312.298L-160.718-312.427C-160.429-317.428-160.156-322.151-161.525-323.605-161.703-323.794-162.244-324.368-164.265-324.368-166.457-324.368-169.576-323.704-173.797-322.336-222.689-306.5-272.973-292.193-321.601-278.357-332.89-275.146-344.178-271.934-355.459-268.701-359.595-267.516-361.879-266.432-363.667-263.479-368.927-254.795-374.468-246.096-379.826-237.684-391.003-220.138-402.56-201.994-412.089-183.146-414.403-178.568-415.27-176.855-411.848-172.572-376.575-128.428-338.497-85.363-301.674-43.715-284.005-23.732-265.733-3.068-247.998 17.461-243.555 22.603-240.705 24.426-237.107 24.426-234.736 24.426-231.827 23.584-228.211 21.852-225.172 20.396-222.073 18.739-219.077 17.136-208.792 11.634-198.156 5.944-185.442 5.524-183.534 5.461-183.21 5.177-182.967 1.407-182.935 .898-182.901 .395-182.853-.092-182.284-5.769-181.658-11.532-181.053-17.105M-144.415-309.761C-144.599-310.047-144.783-310.345-144.969-310.647-145.828-312.043-146.802-313.623-147.694-313.623-147.865-313.623-148.068-313.585-148.297-313.511-149.356-313.163-149.624-312.341-149.732-309.111-149.746-308.713-149.76-308.317-149.78-307.931-150.349-297.266-150.896-286.599-151.445-275.933-152.875-248.108-154.354-219.337-156.186-191.054-160.424-125.65-164.509-67.409-168.673-13.005-169.264-5.296-169.53-.462-167.665 1.682-165.606 4.049-159.684 4.804-148.001 5.515L-147.897 5.521-147.794 5.536C-146.252 5.753-144.864 5.858-143.551 5.858-136.65 5.858-131.705 2.766-127.988-3.875-105.077-44.807-80.039-88.54-49.191-141.505-44.813-149.021-44.753-154.5-48.978-161.047-71.062-195.278-93.401-230.151-115.006-263.875-124.806-279.173-134.606-294.47-144.415-309.761M-866.14-477.002C-861.603-474.299-856.91-471.504-852.604-468.377-850.703-466.995-848.794-465.167-846.948-463.398-843.326-459.927-839.58-456.338-836.286-456.338-835.43-456.338-834.603-456.586-833.758-457.096-831.365-458.543-832.536-464.027-833.669-469.332-834.343-472.488-835.041-475.753-835.112-478.7L-835.135-479.659C-835.552-496.934-835.983-514.797-838.935-531.858-841.048-544.079-847.892-554.126-855.138-564.763-859.492-571.154-863.995-577.765-867.363-584.882-870.922-592.402-874.738-595.756-879.734-595.756-881.886-595.756-884.346-595.119-887.045-593.864L-887.575-593.618H-888.16C-893.338-593.618-898.517-593.602-903.695-593.585-908.878-593.569-914.062-593.553-919.247-593.553-927.837-593.553-934.865-593.599-941.361-593.697-941.521-593.699-941.678-593.701-941.833-593.701-946.18-593.701-946.782-592.733-946.787-592.724-946.793-592.713-947.342-591.654-944.949-587.593-939.528-578.391-934.102-568.988-928.855-559.896-917.071-539.476-904.886-518.36-891.988-498.193-886.003-488.835-876.355-483.087-866.14-477.002M-870.085-306.914C-864.208-326.958-858.332-347.003-852.434-367.041-850.842-372.447-849.278-377.862-847.714-383.277-843.401-398.211-838.942-413.651-833.947-428.671-831.542-435.901-831.89-439.204-838.642-443.332-848.909-449.608-858.924-456.587-868.609-463.335-873.098-466.463-877.741-469.697-882.338-472.813-882.924-473.21-883.44-473.653-883.938-474.082-884.604-474.653-885.433-475.365-885.873-475.365-886.036-475.365-886.245-475.274-886.391-475.198-887.461-474.637-887.581-474.103-887.241-471.387-887.161-470.748-887.078-470.088-887.049-469.415L-887.017-468.663C-886.018-445.224-884.984-420.987-883.674-397.173-882.178-369.955-880.541-342.285-878.958-315.526-878.32-304.738-877.682-293.949-877.05-283.16ZM-1090.131 77.343C-1086.37 77.343-1083.299 76.147-1080.329 74.992-1079.093 74.511-1077.815 74.014-1076.52 73.616-1061.743 69.08-1046.759 64.315-1032.269 59.708-1015.245 54.294-997.641 48.697-980.243 43.428-971.593 40.808-969.162 37.231-971.272 30.23-972.345 26.672-973.451 26.672-974.112 26.672-974.836 26.672-975.799 26.931-976.897 27.418-1006.368 40.512-1035.769 53.348-1066.897 66.937-1074.734 70.358-1082.663 73.819-1090.703 77.333-1090.512 77.339-1090.321 77.343-1090.131 77.343M-745.227 284.166C-744.95 284.095-744.497 283.955-744.085 283.828-744.069 283.823-744.052 283.817-744.035 283.812L-948.872 48.378-948.915 48.403C-947.66 51.543-946.408 54.685-945.155 57.826-941.843 66.133-938.418 74.724-935.006 83.151-929.855 95.873-924.696 108.591-919.536 121.31-904.793 157.651-889.549 195.231-874.763 232.275-872.873 237.011-871.626 239.752-867.989 241.035-820.072 257.927-781.05 271.637-745.227 284.166M-586.809 62.921C-614.156 40.966-641.308 19-670.054-4.256-678.448-11.047-686.96-17.934-695.628-24.942L-708.645 197.085-713.313 276.709-713.256 276.717C-708.878 269.858-704.418 262.934-700.095 256.223-689.851 240.32-679.258 223.876-669.237 207.486-655.845 185.582-642.371 163.221-629.341 141.598-615.617 118.823-601.425 95.272-587.299 72.204-587.075 71.839-586.854 71.483-586.638 71.136-583.927 66.785-583.284 65.751-586.809 62.921M-872.161-244.596C-839.466-206.956-806.277-168.643-774.181-131.591-751.938-105.913-729.695-80.235-707.435-54.571-707.402-54.567-707.369-54.564-707.334-54.561-706.949-57.433-706.538-60.308-706.138-63.11-704.996-71.116-703.814-79.394-703.227-87.523-702.531-97.159-702.073-106.992-701.63-116.501-701.11-127.676-700.571-139.232-699.643-150.59-699.04-157.973-700.746-164.39-705.349-172.046-746.683-240.803-784.217-319.217-823.381-418.652-828.47-406.921-831.931-394.294-835.286-382.055-836.178-378.8-837.1-375.434-838.041-372.127-849.083-333.328-860.501-293.208-872.274-253.183-872.425-252.672-872.58-252.178-872.731-251.697-873.754-248.449-874.221-246.967-872.161-244.596M-859.607-13.099C-843.003-16.591-825.833-20.202-808.936-23.473-798.408-25.51-787.735-27.867-777.414-30.146-760.302-33.925-742.607-37.832-724.964-40.425-716.965-41.601-715.943-43.313-715.819-43.644-715.295-45.047-718.715-49.042-720.978-51.686L-721.429-52.213C-746.354-81.379-773.149-112.644-800.21-143.653-813.313-158.668-826.786-173.816-839.815-188.465-850.098-200.027-860.731-211.983-871.122-223.805L-871.894-224.683C-874.959-228.174-877.865-231.483-879.107-232.086-880.108-231.1-881.836-226.912-883.659-222.494L-884.217-221.143-885.854-217.182C-913.621-150.04-942.333-80.612-954.448-7.344-955.015-3.917-956.164-.617-957.496 3.204-957.773 4-958.066 4.841-958.368 5.724-924.351 .518-891.458-6.4-859.607-13.099M-1174.214 119.295C-1180.146 120.816-1182.383 121.808-1182.321 126.227-1182.252 131.193-1178.538 132.821-1172.428 134.913-1171.995 135.061-1171.565 135.208-1171.142 135.356-1119.417 153.468-1066.814 171.848-1015.943 189.622-981.498 201.657-947.053 213.692-912.612 225.738-907.547 227.509-902.533 229.421-897.684 231.271-895.69 232.031-893.719 232.783-891.774 233.514-890.25 233.266-889.676 232.932-889.504 232.805-889.523 232.278-890.119 231.02-890.483 230.249-890.77 229.643-891.067 229.015-891.316 228.372-893.994 221.462-896.669 214.551-899.344 207.641-906.884 188.159-914.681 168.014-922.417 148.229-926.062 138.91-929.826 129.452-933.465 120.304-941.16 100.967-949.117 80.971-956.421 61.1-959.065 53.906-960.977 52.64-964.015 52.64-965.518 52.64-967.376 53.008-969.699 53.765-1031.039 73.769-1093.538 93.703-1153.979 112.98L-1170.888 118.374C-1171.99 118.725-1173.12 119.015-1174.214 119.295M-1136.594 17.144C-1134.869 17.722-1133.084 18.32-1131.405 19.005-1116.989 24.888-1109.64 33.598-1106.834 48.127-1104.215 61.685-1102.958 64.612-1099.752 64.612-1096.804 64.612-1091.912 62.655-1084.206 59.432-1069.554 53.304-1054.705 46.951-1040.345 40.807-1027.639 35.371-1014.5 29.75-1001.539 24.302-1001.143 24.136-1000.741 23.975-1000.34 23.815-996.419 22.249-996.337 21.791-996.661 20.442-996.786 19.918-996.824 19.76-998.022 19.76-998.545 19.76-999.127 19.812-999.745 19.866-1000.411 19.925-1001.099 19.985-1001.782 19.985-1001.929 19.985-1002.075 19.982-1002.217 19.977-1025.659 18.991-1048.041 16.737-1069.685 14.557-1090.539 12.458-1112.104 10.286-1134.844 9.21-1137.153 9.101-1140.396 9.036-1143.517 9.036-1146.133 9.036-1148.476 9.079-1150.43 9.16-1147.179 13.597-1142.01 15.33-1136.594 17.144M-1191.562 51.86C-1187.861 57.241-1179.342 57.604-1170.322 57.989-1166.422 58.156-1162.39 58.328-1158.72 58.95-1149.225 60.561-1139.698 62.438-1131.293 64.095-1127.845 64.775-1124.551 65.424-1121.472 66.013L-1121.344 66.038-1121.219 66.075C-1119.488 66.586-1118.146 66.846-1117.23 66.846-1116.309 66.846-1115.964 66.846-1115.496 64.751-1113.773 57.056-1121.983 37.206-1129.713 33.708-1135.365 31.15-1140.964 28.322-1146.378 25.586-1156.253 20.597-1166.464 15.438-1177.194 11.848-1179.431 11.1-1181.128 10.736-1182.384 10.736-1183.846 10.736-1185.227 10.736-1186.313 16.945-1187.028 21.036-1188.491 25.237-1189.906 29.301-1192.874 37.824-1195.677 45.875-1191.562 51.86M-1207.354 110.54C-1207.064 110.961-1206.438 111.357-1205.553 111.685-1197.302 107.473-1193.502 99.555-1189.487 91.189-1188.865 89.893-1188.243 88.597-1187.603 87.313-1185.306 82.701-1187.152 81.215-1191.544 78.291-1193.605 76.92-1195.737 75.502-1197.148 73.442-1197.167 73.415-1197.185 73.39-1197.202 73.366-1197.625 73.79-1198.249 74.74-1198.587 75.971-1201.215 85.524-1203.815 95.085-1206.416 104.646L-1207.411 108.306C-1207.831 109.847-1207.472 110.368-1207.354 110.54M-1137.095 78.757C-1145.957 77.354-1154.816 75.939-1165.423 74.245L-1172.886 73.054C-1166.519 81.591-1170.627 88.979-1174.624 96.167-1174.666 96.242-1174.707 96.316-1174.749 96.391-1171.997 95.304-1169.321 94.254-1166.696 93.224-1155.288 88.749-1145.436 84.884-1135.725 80.41-1135.081 80.113-1134.747 79.841-1134.583 79.671-1134.888 79.418-1135.642 78.987-1137.095 78.757M-835.682-3.73C-838.912-3.105-842.127-2.488-845.294-1.879-861.556 1.245-878.371 4.476-894.751 8.222-901.832 9.841-908.986 10.977-915.904 12.075-925.273 13.562-934.96 15.1-944.652 17.865-945.397 18.078-946.206 18.258-946.988 18.432-952.271 19.608-953.24 20.405-952.748 23.17-952.005 27.341-948.601 29.932-943.862 29.932-942.656 29.932-941.383 29.762-940.078 29.427-914.364 22.819-888.906 14.339-865.035 6.22-861.701 5.086-858.273 4.134-854.959 3.213-848.205 1.336-841.693-.473-835.682-3.73M-709.533-27.53C-709.75-27.758-710.277-27.806-710.681-27.806-711.775-27.806-713.329-27.473-715.433-26.788-796.709-.312-863.873 21.277-926.799 41.153-932.363 42.91-933.243 44.1-933.363 44.53-933.452 44.849-933.471 46.201-929.965 50.213-892.727 92.839-855.732 135.558-821.301 175.373-806.032 193.03-790.562 211.025-775.601 228.428-764.02 241.9-752.044 255.831-740.242 269.511-739.567 270.293-738.908 271.094-738.245 271.9-735.576 275.143-733.031 278.236-729.12 280.548-724.629 265.567-724.018 250.417-723.425 235.736-723.208 230.332-722.982 224.742-722.564 219.281-719.899 184.449-718.167 148.944-716.492 114.608-715.135 86.793-713.731 58.031-711.84 29.765-710.713 12.928-709.841-3.856-708.899-22.478-708.709-26.234-709.279-27.262-709.533-27.53M-1211.213 139.566C-1210.63 143.141-1210.431 146.877-1210.238 150.49-1209.571 163.016-1208.994 173.834-1194.646 179.323-1194.079 179.54-1193.522 179.763-1192.969 179.985-1190.522 180.968-1188.408 181.816-1186.09 181.816-1185.454 181.816-1184.832 181.753-1184.191 181.625-1175.554 179.892-1166.741 179.013-1157.996 179.013-1141.566 179.013-1124.695 182.028-1106.418 188.232-1064.142 202.581-1020.776 216.13-978.838 229.233-958.271 235.659-937.002 242.304-916.123 248.962-906.989 251.874-897.838 255.253-888.988 258.521-885.836 259.685-882.601 260.879-879.364 262.054-878.246 253.307-883.518 249.544-892.748 246.278-966.317 220.253-1041.161 193.907-1113.541 168.429L-1156.364 153.354C-1161.379 151.588-1166.512 149.852-1171.475 148.173-1182.444 144.462-1193.788 140.625-1204.708 136.187-1207.039 135.239-1208.843 134.758-1210.068 134.758-1210.306 134.758-1210.881 134.781-1211.063 134.996-1211.14 135.086-1211.797 135.984-1211.213 139.566M-1148.088 195.925C-1148.301 192.896-1155.592 191.927-1159.948 191.347-1160.998 191.208-1161.992 191.075-1162.891 190.927-1164.255 190.844-1165.604 190.803-1166.903 190.803-1187.788 190.803-1197.092 201.536-1206.943 212.9-1209.525 215.879-1212.196 218.959-1215.089 221.855-1215.998 222.765-1216.326 223.327-1216.442 223.588-1215.838 224.097-1214.003 224.733-1212.976 225.09-1212.67 225.196-1212.367 225.301-1212.071 225.407-1205.29 227.835-1198.589 229.066-1192.156 229.066-1179.581 229.066-1167.651 224.549-1155.686 215.257-1148.298 209.519-1147.754 200.682-1148.088 195.925M-1202.269 188.799C-1202.471 186.192-1206.504 183.507-1209.521 181.713-1224.34 172.904-1240.124 168.437-1256.434 168.437-1265.309 168.437-1274.583 169.752-1284.045 172.351-1272.678 191.394-1257.223 205.867-1236.894 216.531-1234.473 217.8-1232.959 218.342-1231.83 218.342-1230.996 218.342-1229.89 218.079-1228.007 216.127-1227.015 215.099-1226.025 214.065-1225.036 213.032-1219.276 207.021-1213.321 200.806-1206.771 195.385-1204.623 193.607-1202.097 191.021-1202.269 188.799M-1143.02-4.265C-1113.887-1.931-1086.371 .273-1058.411 2.403-1048 3.196-1037.396 3.875-1027.141 4.532-1015.376 5.285-1003.211 6.064-991.251 7.021-988.86 7.212-987.039 7.301-985.519 7.301-981.187 7.301-980.469 6.507-980.37 6.348-979.908 5.614-980.139 3.108-983.856-4.662-992.365-22.445-1001.229-40.436-1009.801-57.835-1014.99-68.368-1020.356-79.26-1025.59-89.997-1035.25-109.813-1044.824-129.598-1054.959-150.545-1058.89-158.669-1062.898-166.951-1067.016-175.453L-1147.827-50.128-1175.715-6.878C-1164.686-6-1153.8-5.128-1143.02-4.265M-441.17-162.155C-458.046-153.651-474.92-145.143-491.793-136.634-555.045-104.74-620.451-71.759-684.909-39.565-688-38.022-688.805-37.23-689.013-36.93-688.878-36.582-688.286-35.674-685.847-33.5-661.444-11.745-635.349 9.153-610.112 29.363-598.959 38.294-587.451 47.51-576.083 56.8L-518.283-36.523-440.685-161.814ZM-690.434-99.586C-691.402-92.777-692.316-86.346-691.584-80.634L-691.562-80.458-691.563-80.28C-691.64-67.258-691.7-56.972-689.372-54.626-689.098-54.351-688.681-54.068-687.659-54.068-683.9-54.068-675.987-57.989-666.824-62.528-621.817-84.826-576.158-107.701-532.003-129.823-502.917-144.396-472.84-159.464-443.228-174.228-440.484-175.595-438.9-177.001-438.646-178.293-438.248-180.321-440.93-183.383-443.084-185.843-459.626-204.728-476.534-223.855-492.886-242.354-497.465-247.534-502.044-252.715-506.622-257.897-508.97-260.556-511.388-263.241-513.726-265.839-518.542-271.187-523.521-276.718-528.209-282.361-531.181-285.938-533.147-287.398-534.995-287.398-536.75-287.398-539.015-286.125-541.917-283.505-548.934-277.171-556.053-270.702-562.937-264.446-595.236-235.099-628.634-204.752-663.52-177.336-683.533-161.608-690.915-145.264-689-120.92-688.431-113.676-689.449-106.513-690.434-99.586M-513.88-285.055C-504.504-274.296-495.112-263.55-485.721-252.806-469.229-233.937-452.176-214.428-435.495-195.158-432.918-192.18-429.995-188.804-428.205-188.804-427.356-188.804-425.437-189.701-422.11-195.713-413.735-210.85-404.086-225.574-394.755-239.814-389.682-247.557-384.436-255.562-379.467-263.524-379.166-264.007-378.847-264.495-378.525-264.986-377.083-267.19-375.592-269.469-376.008-271.121-376.382-272.604-378.324-273.926-379.888-274.773-402.537-287.053-425.402-299.812-447.514-312.153-458.085-318.052-469.016-324.152-479.78-330.12-481.576-331.116-483.524-331.896-485.089-332.521-485.554-332.708-485.979-332.878-486.349-333.033-486.694-333.067-487.029-333.085-487.347-333.085-490.41-333.085-491.935-331.465-493.864-329.414-494.377-328.869-494.906-328.306-495.478-327.767-499.746-323.741-504.046-319.598-508.205-315.591L-512.327-311.622C-518.989-305.219-523.008-301.355-523.167-298.612-523.324-295.893-519.769-291.812-513.88-285.055M-400.183 55.389C-401.57 45.047-402.97 34.707-404.368 24.366-407.563 .746-410.868-23.679-413.983-47.722-415.295-57.836-417.232-68.073-419.106-77.972-422.28-94.731-425.562-112.061-425.982-129.615-425.998-130.272-425.955-130.949-425.914-131.604-425.863-132.412-425.756-134.094-426.032-134.465-426.037-134.465-426.184-134.553-426.598-134.594-426.725-134.606-426.847-134.612-426.964-134.612-428.432-134.612-429.07-133.47-429.937-129.298-435.758-101.266-441.559-73.23-447.359-45.195-453.195-16.995-459.03 11.206-464.886 39.402-466.067 45.093-465.884 48.625-464.29 50.855-462.751 53.008-459.59 54.353-454.625 54.967-439.2 56.875-424.234 60.239-410.145 64.967-407.319 65.915-405.036 66.396-403.359 66.396-401.548 66.396-401.034 65.838-400.865 65.654-399.488 64.16-399.853 59.512-400.183 55.389M-259.307 24.879C-274.467 7.955-289.542-9.529-304.121-26.437-318.359-42.951-333.084-60.028-347.86-76.552-353.699-83.082-359.478-89.845-365.064-96.385-378.271-111.843-391.928-127.828-407.271-141.739-408.07-142.463-408.758-143.255-409.423-144.021-410.845-145.659-412.051-147.049-414.126-147.696-413.503-142.013-412.904-136.303-412.323-130.75-410.794-116.16-409.213-101.072-407.173-86.352-403.031-56.47-398.502-26.123-394.122 3.225-392.476 14.254-390.829 25.283-389.199 36.314-388.608 40.312-388.019 43.606-387.343 46.683-383.801 62.805-382.868 66.218-377.627 66.218-373.897 66.218-367.882 64.543-359.558 62.226-347.017 58.734-334.283 55.104-321.97 51.594-302.525 46.05-282.418 40.317-262.547 34.983-256.582 33.382-255.114 32.32-254.934 31.71-254.861 31.466-254.731 29.987-259.307 24.879M-548.141 35.496C-547.286 36.145-543.578 36.736-542.148 36.964-526.57 39.446-510.04 42.893-491.612 47.499-488.855 48.188-486.954 48.496-485.447 48.496-482.747 48.496-480.535 47.876-478.695 40.087-466.448-11.762-455.093-66.95-444.942-123.945-444.61-125.811-443.954-127.605-443.319-129.34-442.271-132.205-441.261-134.963-441.6-138.138-442.968-135.937-444.31-133.78-445.63-131.656-450.364-124.043-454.836-116.853-459.266-109.648-467.01-97.053-474.731-84.445-482.454-71.838-502.969-38.345-524.182-3.713-545.468 30.103-547.759 33.744-548.123 35.047-548.141 35.496M-794.923 280.729C-818.009 272.18-841.881 263.34-865.417 254.812-866.033 254.589-866.606 254.471-867.075 254.471-867.507 254.471-867.793 254.575-867.853 254.678-867.978 254.896-867.958 255.618-867.372 256.629-866.665 257.85-866.045 259.17-865.447 260.448-863.373 264.874-861.884 267.615-858.708 268.361-837.207 273.412-815.263 278.248-794.042 282.925-789.877 283.843-785.711 284.761-781.546 285.681-786.005 284.031-790.464 282.38-794.923 280.729M-1198.821 18.319C-1199.335 17.481-1200.104 16.706-1202.231 16.706-1204.861 16.706-1208.491 17.929-1212 19.111-1215.785 20.387-1219.698 21.706-1223.328 21.932-1232.483 22.502-1241.01 26.434-1250.036 30.596-1250.146 30.646-1250.256 30.697-1250.366 30.748-1248.053 31.75-1245.74 32.752-1243.427 33.755-1232.298 38.578-1220.791 43.566-1209.439 48.383-1208.758 48.672-1208.326 48.733-1208.083 48.733-1207.437 48.733-1206.828 47.859-1206.275 46.136-1205.311 43.131-1203.899 39.974-1202.534 36.921-1199.4 29.909-1196.159 22.658-1198.821 18.319M-1051.721-171.339C-1051.127-170.292-1050.566-169.304-1050.17-168.441-1040.076-146.456-1029.384-124.279-1019.045-102.832-1014.336-93.063-1009.466-82.961-1004.715-73.006-1002.199-67.736-999.746-62.341-997.374-57.124-993.943-49.581-990.396-41.78-986.622-34.275-986.186-33.408-985.851-32.482-985.527-31.588-984.66-29.189-984.011-27.396-981.933-26.629-982.44-43.998-986.476-129.99-1016.857-168.926-1020.025-172.986-1030.454-179.015-1035.455-179.677-1037.06-179.89-1038.832-179.997-1040.722-179.997-1044.321-179.997-1048.314-179.628-1053.287-178.836-1054.212-178.688-1054.517-178.437-1054.543-178.384-1055.082-177.26-1052.553-172.804-1051.721-171.339M-672.526-393.699C-662.261-406.76-652.693-420.311-642.564-434.657-638.937-439.793-635.208-445.074-631.369-450.442-639.063-451.803-646.177-453.531-653.091-455.212-663.007-457.623-672.372-459.899-682.012-460.699-682.597-460.747-683.154-460.771-683.667-460.771-687.651-460.771-689.43-459.506-691.279-455.354-710.781-411.577-733.243-366.089-759.948-316.291-760.459-315.339-761.991-312.482-761.924-311.617-761.74-311.437-760.914-310.858-757.501-310.226L-754.29-309.63C-735.112-306.075-715.282-302.399-696.269-296.897-693.765-296.174-691.633-295.807-689.932-295.807-688.089-295.807-686.792-296.226-685.967-297.087-684.147-298.985-684.083-303.394-684.231-307.022-684.75-319.778-685.535-334.824-687.426-349.71-689.839-368.698-681.248-382.603-672.526-393.699M-624.671-523.496C-623.1-529.872-625.058-533.509-631.43-536.05-643.355-540.805-655.228-546.229-666.709-551.474-670.698-553.296-674.802-555.171-678.89-557.01-682.563-549.197-682.36-541.131-682.146-532.633-682.086-530.245-682.024-527.775-682.058-525.34-682.225-513.195-682.398-500.637-684.97-487.946-686.051-482.615-685.833-479.339-684.263-477.323-682.715-475.334-679.453-474.213-674.567-473.99-665.441-473.573-656.422-471.03-647.7-468.571-643.87-467.492-639.91-466.375-636.035-465.47-634.399-465.087-632.994-464.894-631.858-464.894-629.68-464.894-629.013-465.608-628.793-465.844-628.104-466.583-627.343-468.38-627.636-472.743-628.646-487.792-629.084-505.591-624.671-523.496M358.934-256.091C341.5-247.981 328.075-234.844 315.092-222.14 308.359-215.553 301.398-208.741 293.939-202.679 293.529-202.345 293.132-202.006 292.739-201.67 290.372-199.649 287.689-197.359 283.454-197.359 282.636-197.359 281.778-197.448 280.903-197.623L279.248-197.953C259.012-201.984 238.087-206.153 224.508-226.056 220.445-232.011 214.851-237.28 209.44-242.376 207.049-244.629 204.575-246.958 202.237-249.34L201.727-249.862C198.768-252.891 196.212-255.505 192.381-255.718 185.824-256.081 179.148-256.4 172.693-256.709 159.077-257.361 144.997-258.034 131.167-259.163 130.7-259.2 130.246-259.22 129.817-259.22 125.376-259.22 123.078-257.354 121.341-252.333 113.792-230.522 106.188-208.319 98.835-186.849 90.602-162.81 82.088-137.952 73.615-113.534 71.853-108.455 70.114-103.366 68.375-98.277 55.947-61.911 43.096-24.307 21.459 9.226 17.242 15.76 12.395 20.042 5.739 23.111-6.14 28.588-18.23 34.13-29.923 39.489-64.624 55.394-100.507 71.84-135.44 88.705-162.872 101.948-185.812 107.854-209.823 107.854-213.267 107.854-216.78 107.727-220.266 107.476-233.793 106.504-248.308 106.07-267.327 106.07-275.28 106.07-283.38 106.144-291.212 106.214-299.062 106.286-307.179 106.359-315.166 106.359-335.358 106.359-350.742 105.867-365.048 104.765-367.553 104.571-370.084 104.474-372.569 104.474-390.731 104.474-408.148 109.569-424.336 119.618-491.036 161.023-560.671 205.549-631.307 251.956-685.57 287.607-739.771 320.546-806.107 331.879-815.966 333.563-825.899 334.417-835.632 334.417-865.751 334.417-895.191 326.518-925.634 310.268-948.188 298.228-969.403 283.056-989.92 268.384L-994.682 264.98C-1030.684 239.274-1074.292 210.953-1124.752 195.798-1127.875 194.86-1130.328 194.404-1132.251 194.404-1136.162 194.404-1137.967 195.903-1139.026 205.191-1140.693 219.808-1168.117 242.428-1184.169 242.428-1185.423 242.428-1186.609 242.29-1187.696 242.018-1191.613 241.038-1195.624 240.115-1199.503 239.222-1217.432 235.095-1235.972 230.828-1252.534 219.385-1262.983 212.166-1272.175 208.656-1280.635 208.656-1292.472 208.656-1303.81 215.61-1316.315 230.541-1325.002 240.912-1334.223 251.194-1343.141 261.137-1347.193 265.656-1351.383 270.328-1355.502 274.984L-1360.783 280.953-1360.121 273.004C-1357.485 241.339-1329.694 187.566-1324.149 177.108-1323.486 175.856-1322.783 174.794-1322.001 173.861-1317.488 168.477-1310.489 164.639-1300.604 162.129-1289.614 159.339-1275.084 156.136-1260.154 156.136-1248.015 156.136-1237.156 158.19-1226.958 162.415-1224.422 163.466-1222.595 163.978-1221.372 163.978-1220.589 163.978-1220.385 163.76-1220.308 163.679-1220 163.352-1219.31 162.143-1219.548 157.982-1219.66 156.043-1219.78 154.104-1219.9 152.164-1220.974 134.865-1222.084 116.977-1216.48 99.348-1214.313 92.533-1212.911 85.275-1211.554 78.255-1211.015 75.462-1210.457 72.574-1209.855 69.739-1209.707 69.035-1209.447 68.289-1209.197 67.567-1209.047 67.136-1208.817 66.474-1208.673 65.93-1211.079 66.105-1213.666 66.188-1216.805 66.188-1218.991 66.188-1221.212 66.147-1223.36 66.109-1225.489 66.071-1227.69 66.032-1229.837 66.032-1242.229 66.032-1252.281 67.499-1261.068 74.657-1280.236 90.274-1299.605 106.303-1318.338 121.803-1326.34 128.425-1334.342 135.047-1342.354 141.658L-1352.785 150.267-1346.366 138.352C-1332.428 112.481-1317.563 86.989-1303.187 62.335-1297.448 52.496-1291.515 42.32-1285.74 32.292-1281.37 24.702-1274.971 22.575-1269.315 21.177-1265.625 20.265-1261.936 19.344-1258.246 18.423-1240.573 14.012-1222.297 9.451-1204.095 5.923-1196.828 4.514-1192.139 1.403-1188.418-4.479-1185.535-9.035-1182.683-13.732-1179.925-18.274-1176.927-23.211-1173.828-28.317-1170.663-33.284L-1167.933-37.568C-1137.935-84.65-1106.916-133.334-1076.147-181.06-1072.91-186.082-1068.718-191.551-1059.917-192.87-1056.057-193.449-1052.282-193.742-1048.695-193.742-1033.426-193.742-1020.519-188.459-1010.33-178.038-1002.296-169.822-995.98-158.61-991.021-143.763-978.254-105.546-972.201-72.395-971.394-36.271-971.369-35.139-971.356-33.994-971.344-32.837-971.259-25.21-971.172-17.37-967.405-9.139-950.41-77.683-930.4-138.953-906.309-196.242-904.221-201.205-901.86-206.21-899.578-211.05-890.738-229.792-881.598-249.171-886.167-270.73-889.253-285.3-889.604-300.089-889.943-314.392-890.154-323.317-890.373-332.548-891.262-341.554-894.636-375.727-895.817-410.642-896.958-444.407-897.358-456.211-897.771-468.417-898.271-480.405-898.45-484.689-899.987-488.215-902.241-492.19-917.846-519.719-933.457-547.244-949.303-575.185L-963.302-599.869-965.22-603.25-961.378-603.804C-936.718-607.359-913.242-607.572-890.539-607.777-887.774-607.803-885.012-607.828-882.251-607.858-881.449-607.867-880.581-607.933-879.661-608.002-878.572-608.083-877.447-608.167-876.307-608.167-873.432-608.167-869.328-607.672-866.896-603.39-862.967-596.47-858.349-589.688-853.883-583.131-844.383-569.18-834.559-554.753-830.264-537.594-826.509-522.592-825.497-507.02-824.518-491.96-824.279-488.287-824.033-484.489-823.75-480.769-823.5-477.486-823.326-474.121-823.157-470.866-822.596-460.069-822.016-448.904-818.62-439.092-808.806-410.747-797.527-382.333-786.618-354.854-783.309-346.519-779.888-337.898-776.557-329.407-776.298-328.748-776.075-328.051-775.859-327.377-775.093-324.982-774.623-323.976-774.035-323.665-771.362-332.976-769.733-342.733-768.154-352.189-764.425-374.529-760.568-397.63-742.835-416.299-739.652-419.65-736.667-423.381-733.781-426.988-729.934-431.795-725.957-436.766-721.347-441.079-700.284-460.785-691.335-483.821-693.185-513.573-693.984-526.444-692.706-539.276-691.353-552.861-690.74-559.022-690.105-565.393-689.66-571.896L-689.392-575.806-685.869-574.104C-679.303-570.932-672.871-567.769-666.651-564.711-651.078-557.053-636.368-549.819-621.286-543.261-611.332-538.932-612.512-531.374-613.217-526.858-616.183-507.86-619.09-485.739-616.024-463.601-615.141-457.221-616.764-451.391-620.989-445.778-626.024-439.087-630.945-432.112-635.703-425.368-640.562-418.479-645.587-411.356-650.763-404.495-651.836-403.071-652.919-401.651-654.001-400.23-668.585-381.093-682.36-363.016-675.763-337.69-672.099-323.623-672.302-309.431-672.889-298.638-673.084-295.057-672.553-294.386-672.492-294.32-672.424-294.249-672.055-294.016-670.154-294.016-669.512-294.016-668.805-294.038-668.033-294.062-667.379-294.083-666.681-294.104-665.938-294.116-645.57-294.452-625.009-296.923-605.125-299.311-586.81-301.511-567.872-303.785-549.044-304.406-538.982-304.738-531.343-310.429-525.812-315.349-524.45-316.56-523.078-317.765-521.704-318.972-515.019-324.843-508.105-330.915-502.5-337.699-497.812-343.37-493.189-346.012-487.949-346.012-483.104-346.012-478.359-343.771-472.725-340.406-451.913-327.981-430.355-315.956-409.507-304.326-398.793-298.35-387.716-292.17-376.865-286.008-373.447-284.065-371.086-283.199-369.212-283.199-367.457-283.2-365.024-283.896-361.765-289.321-355.287-300.103-347.912-310.545-340.779-320.645-336.558-326.622-332.192-332.803-328.074-338.969L-327.601-339.678C-320.058-350.978-312.259-362.661-299.114-369.967-266.851-387.897-232.161-407.493-189.942-431.635-188.902-432.229-187.771-432.763-186.676-433.278-181.249-435.835-178.733-437.302-180.839-442.648-185.098-453.462-188.679-464.689-192.142-475.547-200.452-501.605-209.046-528.552-227.567-551.028-239.22-565.169-249.022-580.73-259.4-597.206-264.207-604.837-269.178-612.728-274.507-620.75L-277.244-624.871H-272.303C-263.147-624.871-254.333-624.782-245.809-624.695-237.629-624.612-229.903-624.533-222.197-624.533-210.332-624.533-200.637-624.729-191.686-625.151L-189.156-625.273C-185.751-625.439-182.811-625.583-180.364-625.583-167.216-625.583-165.75-620.676-162.693-603.657-161.479-596.892-159.604-595.654-156.35-595.654-155.905-595.654-155.423-595.684-154.914-595.74-153.645-595.884-152.437-595.957-151.324-595.957-137.184-595.957-137.096-584.441-137.032-576.033-137.007-572.765-137.24-569.445-137.465-566.234-138.095-557.258-138.689-548.778-134.128-541.041-129.374-532.976-124.632-524.903-119.89-516.831-100.046-483.052-79.527-448.121-58.437-414.338-51.844-403.777-52.896-397.991-62.603-391.408-83.592-377.172-104.198-362.71-125.219-347.911-134.578-341.322-140.228-337.345-140.977-333.823-141.707-330.39-138.342-325.135-132.232-315.595L-132.128-315.432C-130.504-312.896-129.105-310.231-127.752-307.655-126.751-305.749-125.716-303.777-124.62-301.923-122.876-298.972-121.801-298.972-121.447-298.972-120.784-298.972-119.544-299.343-117.404-301.113-97.091-317.913-76.375-334.918-56.341-351.363-33.596-370.033-10.076-389.34 12.961-408.435 13.855-409.176 14.79-409.896 15.693-410.592 20.306-414.148 24.289-417.22 24.559-423.263 26.056-456.868 28.47-501.067 33.886-544.926 34.285-548.158 32.647-550.368 30.575-553.168 30.072-553.847 29.552-554.549 29.043-555.292 23.667-563.146 17.907-570.574 11.81-578.44 1.921-591.196-8.306-604.387-17.313-620.116L-19.588-624.088H-15.018C-5.047-624.088 4.731-623.989 14.188-623.895 23.53-623.801 32.354-623.713 41.24-623.713 56.539-623.713 68.956-623.995 80.318-624.601 81.932-624.687 83.354-624.729 84.667-624.729 94.614-624.729 103.917-622.499 104.625-606.323 104.75-603.453 104.965-600.815 105.28-598.258 105.639-595.358 105.919-592.401 106.189-589.541 107.807-572.501 109.333-556.404 126.621-546.472 134.018-542.222 135.549-535.202 131.171-525.607 120.72-502.701 116.284-480.776 117.61-458.58 119.28-430.624 119.154-407.882 117.215-387.008 116.852-383.101 116.978-379.058 117.111-374.777 117.491-362.604 117.922-348.807 105.318-338.238 98.732-332.717 92.678-326.327 86.822-320.148 79.76-312.696 72.456-304.99 63.998-298.513L63.385-298.044C58.531-294.342 54.34-291.144 54.848-284.64L55.013-282.532C57.059-256.368 59.174-229.313 58.209-202.507L58.206-202.414C58.096-199.375 58.365-199.353 59.017-199.299 59.074-199.294 59.131-199.292 59.187-199.292 60.553-199.292 61.563-200.608 61.631-201.479 63.248-222.137 74.381-238.025 85.147-253.39 90.136-260.508 95.294-267.869 99.34-275.526 102.788-282.053 106.612-284.396 114.495-284.81 117.034-284.943 119.715-285.012 122.462-285.012 131.798-285.012 141.169-284.237 150.231-283.488 158.569-282.799 167.19-282.087 175.668-281.995 197.688-281.755 225.095-281.457 239.005-253.457 241.168-249.103 242.982-249.103 243.665-249.103 245.378-249.103 247.772-250.305 250.783-252.678 252.916-254.359 254.866-256.448 256.93-258.661 261.688-263.76 267.081-269.538 275.541-270.09 278.51-270.283 281.594-270.382 284.706-270.382 301.432-270.382 318.187-267.558 334.393-264.827 342.152-263.52 350.176-262.167 358.16-261.126L367.217-259.943Z"/>
</g>
</g>
</svg>
