<svg xmlns="http://www.w3.org/2000/svg" width="1984.25" height="1984.25" viewBox="0 0 1984.25 1984.25"><defs><clipPath id="clip_1"><path d="M0-.002h1984.252V1984.25H0Z"/></clipPath></defs><g clip-path="url(#clip_1)"><path d="M444.485 893.903c1.427-1.654 3.725-2.493 7.02-2.563l.083-.003a34 34 0 0 1 2.079-.07c8.483 0 9.807 3.818 10.876 9.89 3.719 21.13 10.676 41.406 21.268 61.98 6.495 12.62-2.47 17.729-11.138 22.67-1.68.957-3.264 1.86-4.687 2.802-2.461 1.627-4.387 2.19-5.711 1.68-2.4-.923-3.593-5.553-4.552-9.273-.388-1.512-.757-2.941-1.197-4.153-9.02-24.775-13.054-50.44-15.811-72.274-.631-5-.036-8.594 1.77-10.686m-10.35-102.871c2.008-2.21 5.77-2.81 10.804-3.032q.486-.022.939-.022c2.65 0 4.476.553 5.563 1.68 1.82 1.89 1.785 5.672 1.477 9.476-.423 5.197-.321 10.474-.222 15.578.043 2.248.087 4.497.087 6.743v.014c.017 2.392.004 4.786-.011 7.178-.025 4.34-.051 8.828.12 13.256.144 3.715-.22 6.074-1.18 7.648-.686 1.128-2.102 2.645-6.435 2.812-7.365.269-10.436-2.595-10.72-9.923-.436-11.42-1.058-23.016-1.66-34.231l-.54-10.174c-.167-3.21.415-5.5 1.779-7.003m1203.683-136.644c.999-.81 2.469-1.157 4.356-1.157 2.882 0 6.73.812 11.315 2.02 9.105 2.402 16.073 5.382 21.3 9.11 4.555 3.249 7.704 8.856 7.168 12.768-.29 2.128-1.625 3.595-4.082 4.484-13.78 4.994-15.408 15.475-16.843 24.72-.74 4.768-1.44 9.27-3.606 13.026-.961 1.666-1.218 3.638-1.468 5.545-.497 3.8-.877 5.647-4.043 6.092-4.718.662-5.831-2.587-7.15-8.007a64 64 0 0 0-.481-1.893c-4.743-17.092-9.003-33.5-9.03-46.362l-.002-.102c-.554-10.448-.327-17.89 2.566-20.244m-161.184 107.047c-10.184.233-16.546-1.46-18.453-4.9-2.007-3.62.914-9.464 3.718-13.731 2.619-3.992 4.7-4.852 8.25-3.392 33.478 13.738 69 15.439 103.352 17.084 14.353.688 29.19 1.398 43.639 2.98 3.095.339 5.987.863 8.596 1.554.184.186.519.652.793 1.034l.008.01c-7.93 3.394-16.056 3.597-25.655 3.503-17.701-.188-35.691-1.168-53.09-2.116-19.505-1.063-39.566-2.156-59.571-2.156-3.866 0-7.731.04-11.587.13m-1.982 241.877c.427-.464 1.378-.843 2.904-.843.585 0 1.255.056 2.01.184a422 422 0 0 0 5.155 5.45c5.178 5.41 11.049 11.542 15.864 18.232.127.176.298.415-.17.996-.875 1.085-3.045 1.909-4.423 1.31-10.921-4.751-18.383-12.998-21.585-23.85-.123-.42-.181-1.016.245-1.48M373.53 759.11c15.208-1.285 28.343-2.394 41.769-2.944 29.949-1.224 63.893-2.613 95.423-15.558 3.8-1.56 6.617-1.908 8.61-1.06 2.63 1.117 3.988 4.54 5.425 8.166.425 1.069.854 2.15 1.323 3.204 1.237 2.776 1.564 4.848.946 5.994-.834 1.549-3.867 2.048-6.542 2.487-1.252.207-2.548.419-3.71.742-9.725 2.705-19.461 2.198-29.77 1.656-5.208-.273-10.596-.555-15.92-.37-14.497.503-29.22 1.275-43.456 2.02-14.301.749-29.09 1.524-43.635 2.026l-.916.032c-7.848.28-15.928.568-26.166-5.018 5.776-.461 11.292-.927 16.619-1.377m-98.727-399.33c9.595 0 19.44.998 30.482 2.257 8.397.957 16.954 1.62 25.229 2.263 11.086.86 22.55 1.75 33.69 3.354 16.376 2.358 24.42 3.68 28.307 7.953 3.934 4.319 4.37 12.38 5.244 28.442l.015.29c.705 13.002 1.094 20.164-1.641 22.863-2.626 2.593-9.613 2.252-21.737 1.432-15.096-1.023-30.416-2.917-45.233-4.75-6.41-.791-12.818-1.583-19.232-2.312-8.058-.914-13.954-6.045-19.127-11.455-5.452-5.703-10.863-11.447-16.274-17.19-6.371-6.764-12.96-13.756-19.515-20.57-4.695-4.88-4.863-7.13-4.547-8.036.326-.931 1.948-2.636 9.145-3.588 5.089-.672 10.106-.953 15.194-.953m129.393-43.087c-1.975 5.615-2.19 12.133-2.398 18.436-.293 8.909-.57 17.324-5.93 20.74-5.89 3.76-12.751-.76-20.693-5.988-4.864-3.202-9.894-6.512-15.127-8.046-26.397-7.734-52.753-20.56-85.458-41.587-6.861-4.412-9.361-10.687-12.01-17.331-1.048-2.632-2.132-5.353-3.505-7.964-.653-1.241-.74-2-.603-2.296.346-.751 2.58-1.296 4.353-1.7 19.023 7.768 39.41 14.62 60.612 20.37l3.527.959c21.792 5.927 44.326 12.056 67.496 12.778 5.679.177 8.92 1.128 10.198 2.993 1.13 1.649.974 4.555-.462 8.636m3.95 193.4c-4.426-2.612-9.002-5.315-14.293-6.466-6.174-1.343-12.077-1.862-18.148-1.862-4.941 0-9.995.345-15.395.867-5.15.477-13.394-4.895-20.478-13.424-6.954-8.374-10.685-17.257-9.286-22.102.946-3.27 2.863-3.312 11.379-2.08l2.476.353.22-.018c7.92-.65 16.835.95 26.276 2.645 11.747 2.106 23.893 4.286 36.71 2.91 4.843-.515 6.764 2.644 7.518 5.392 2.776 10.127 5.467 20.466 8.07 30.465q1.251 4.807 2.508 9.614c-6.537.225-11.885-2.942-17.556-6.293m321.629-38.992c-13.245-14.027-30.214-15.87-49.725-17.991a715 715 0 0 1-7.711-.865l-8.49-1.01 7.166 4.664c6.74 4.388 13.194 8.559 19.435 12.593 14.3 9.24 27.807 17.97 40.949 26.858l2.199 1.475c6.4 4.272 16.072 10.727 17.11 16.028.232 1.182.012 2.216-.69 3.252-.92 1.355-1.934 2.086-3.104 2.237-3.611.459-9.023-4.254-13.361-8.05-2.102-1.84-4.088-3.578-5.928-4.843-43.381-29.827-90.82-53.116-135.622-73.84-5.514-2.551-10.712-9.116-13.245-16.727-2.09-6.277-2.01-12.243.216-16.368 3.545-6.568.579-9.674-1.804-12.172-.687-.72-1.336-1.4-1.868-2.165-3.12-4.492-2.376-10.131-.031-13.38.368-.511.924-.727 1.612-.727 1.725 0 4.285 1.35 6.83 2.803l.663.376c53.546 30.199 100.978 60.816 145.005 93.599.308.229.647 1.337.872 2.07q.135.45.28.888Zm193.66-86.655c-.08 2.352-2.968 5.187-8.824 8.668a5066 5066 0 0 0-125.172 76.862c-14.023 8.894-24.115 8.613-35.997-1.012-11.606-9.404-24.158-17.96-36.297-26.235-5.515-3.76-11.218-7.648-16.748-11.558-3.975-2.81-6.467-5.027-6.617-7.395-.118-1.863 1.28-4.143 4.153-6.776 25.464-23.332 51.168-47.252 76.026-70.386a26266 26266 0 0 1 37.099-34.483c1.369-1.27 2.98-2.373 4.688-3.543q.785-.536 1.587-1.095c.676.378 1.333.737 1.972 1.086 1.96 1.073 3.654 1.999 5.224 3.099 10.579 7.417 21.142 14.86 31.704 22.302 19.489 13.733 39.642 27.934 59.585 41.729 5.204 3.6 7.696 6.459 7.617 8.737m229.66-86.621c-.516 1.68-1.051 2.08-1.258 2.175-.666.305-2.26-.39-3.657-1.006-.362-.158-.724-.32-1.09-.472-8.582-3.602-12.255 2.727-14.685 6.913-.528.91-1.047 1.806-1.597 2.604l-1.316 1.915c-6.407 9.363-11.477 16.764-25.523 15.36-8.557-.846-13.22 6.796-17.303 13.546-1.827 3.02-3.718 6.145-5.846 8.39-2.973 3.138-5.6 6.56-8.14 9.869-.753.98-1.5 1.955-2.247 2.91-.901-.766-.7-1.664-.297-3.452.464-2.06 1.166-5.173-1.816-7.524l-.95-.75-1.104.496c-.325.146-.71.264-1.103.389-1.241.395-2.784.886-3.79 2.14l-.19.239c-20.286 25.358-20.288 25.362-45.488 7.616-17.61-12.401-32.234-12.111-47.422.939-1.082.929-2.371 1.688-3.735 2.492-.774.455-1.548.912-2.302 1.408-9.794 6.439-15.183 9.988-18.985 9.327-3.803-.663-7.747-5.846-14.905-15.252-1.475-1.94-2.93-3.893-4.553-6.071l-3.661-4.904-1.512.81c-5.057 2.708-4.26 6.688-3.782 9.066.297 1.482.39 2.208.083 2.73-3.602-1.995-5.94-5.39-8.403-8.965-1.321-1.918-2.686-3.901-4.283-5.7-1.703-1.92-3.284-4.164-4.814-6.335-5.611-7.961-11.966-16.99-27.102-13.42-3.99.945-9.914-7.281-13.091-11.7-1.03-1.43-1.936-3.14-2.897-4.95-3.451-6.498-8.174-15.396-21.393-8.416-.314-.054-1.24-1.184-1.531-3.032-.602-3.805 1.318-5.622 4.764-8.507.627-.525 1.26-1.054 1.87-1.606 32.647-29.515 64.929-58.961 89.406-81.316l2.02-1.846c17.328-15.826 35.245-32.19 52.635-48.546 7.344-6.905 12.7-7.062 19.76-.59 36.708 33.63 74.164 67.667 110.39 100.583q19.016 17.277 38.024 34.562c2.833 2.579 3.705 5.009 2.82 7.88m131.977 132.704-1.022.714c-8.635 6.134-17.315 12.202-25.993 18.269-10.932 7.643-22.235 15.544-33.26 23.457-6.413 4.6-12.25 6.708-19.872 2.024-44.05-27.065-89.745-54.888-139.7-85.06-3.048-1.84-4.691-3.651-4.75-5.237-.074-1.983 2.295-4.093 4.294-5.516 20.277-14.415 40.959-28.983 60.957-43.071a26661 26661 0 0 0 37.71-26.595c1.374-.97 2.544-1.402 3.65-1.402 2.153 0 4.058 1.638 6.723 4.118l38.535 35.835c24.807 23.064 49.616 46.128 74.396 69.222 1.392 1.298 2.623 2.917 3.709 4.345.306.4.602.792.893 1.162-.814 3.958-3.47 5.796-6.27 7.735m123.099-45.115c-2.908 2.567-5.573 5.578-3.494 11.59 5.526 15.964.307 29.243-13.96 35.523-49.574 21.82-98.834 49.088-146.412 81.043-.968.65-1.933 1.479-2.865 2.28-4.101 3.53-5.346 3.864-7.01 1.937-2.533-2.932-.64-5.653 4.276-10.288l.722-.683c13.229-12.613 29.018-22.225 44.29-31.52 8.006-4.872 16.28-9.91 24.133-15.34.687-.473 1.294-.991 2.394-1.93.686-.583 1.584-1.348 2.837-2.39l5.62-4.67-7.212 1.166c-4.832.78-9.581 1.308-14.172 1.818-14.206 1.579-27.751 3.085-38.96 11.926 3.119-5.162 8.087-8.085 13.259-11.128 2.265-1.332 4.607-2.71 6.735-4.274 40.229-29.578 82.72-54.854 118.982-75.68a123 123 0 0 0 1.588-.933c4.837-2.878 8.693-4.891 10.638-2.526 2.566 3.125 3.51 9.755-1.39 14.079m316.324-107.654c-1.097 1.614-2.341 3.443-2.55 5.536-1.083 10.85-8.9 15.536-17.18 20.498-2.134 1.278-4.34 2.602-6.382 4.02-18.204 12.644-39.057 20.845-59.223 28.775-15.287 6.012-31.094 12.228-45.77 20.363-1.498.83-3.546 1.69-4.77 1.098-1.054-.514-1.851-2.313-2.31-5.201-1.503-9.518-2.926-19.22-4.304-28.601a5149 5149 0 0 0-1.738-11.791l-.041-.206c-.6-2.32-.543-3.99.166-4.963 1.126-1.55 4.369-1.933 7.067-2.094 45.95-2.746 89.28-17.175 125.61-30.927.93-.352 1.888-.783 2.86-1.223 2.579-1.164 4.59-1.99 6.287-1.99 1.029 0 1.945.303 2.8 1.017 1.939 1.616 1.632 2.52-.522 5.689m5.778 94.07c-1.518 1.41-3.088 2.868-4.106 4.703-.041.064-.195.223-.308.34-.251.26-.563.584-.828 1.01-30.955 49.69-82.958 50.523-128.84 51.258-4.542.063-7.464-.708-8.933-2.387-1.417-1.616-1.803-4.416-1.183-8.56.52-3.49.617-7.038.709-10.471.043-1.534.084-3.07.162-4.598l.043-.782c1.666-30.362 1.666-30.362 31.009-33.973 5.945-.731 11.89-1.518 17.84-2.304 27.758-3.67 56.468-7.458 84.985-5.472 1.092.078 2.25.077 3.426.07 5.01.006 8.136.16 9.498 3.829 1.082 2.915-.53 4.603-3.474 7.337m-104.29 361.472c-2.188 4.264-4.944 3.443-9.628 1.625-.898-.35-1.777-.69-2.62-.952-24.283-7.646-56.241-17.792-88.074-28.491l-.546-.184c-12.43-4.18-25.254-8.491-38.808-8.491q-1.43-.001-2.871.065c-4.934.224-8.35-.692-10.131-2.731-1.781-2.041-2.21-5.4-1.316-10.265l.03-.244c.963-16.294 2.63-27.048 7.962-30.314 4.253-2.6 11.702-1.161 25.73 4.979 21.7 9.499 44.6 15.432 66.747 21.17 10.726 2.78 21.817 5.655 32.603 8.892 6.53 1.96 14.012 10.55 18.617 21.378 4.028 9.466 4.91 18.495 2.305 23.563m-261.85 361.75-2.174.728c-7.402-.96-9.935-7.12-12.615-13.632l-.591-1.431c-.775-1.858-.892-3.342-.354-4.534.98-2.171 4.166-3.506 7.46-4.626 31.014-10.538 57.529-27.875 81.564-45.04 3.236-2.312 5.98-3.45 8.336-3.45q.734 0 1.419.148c4.019.862 6.836 5.69 9.557 10.357 2.062 3.539 4.196 7.199 7.016 9.405 1.857 1.453 2.815 2.8 2.704 3.798-.245 2.157-4.91 4.345-7.697 5.652-.82.387-1.574.74-2.195 1.066-23.494 12.327-54.684 28.003-87.616 39.915-1.552.562-3.12 1.082-4.813 1.645m-843.832-51.467c2.789-2.383 5.074-6.091 7.283-9.68 2.933-4.762 5.967-9.688 9.669-10.564a5.4 5.4 0 0 1 1.235-.142c1.379 0 2.873.508 4.532 1.534 4.608 2.852 9.189 5.74 13.765 8.627 23.876 15.05 48.565 30.614 76.169 40.144 2.432.84 3.602 2.568 3.476 5.139l-.006.1.006.105c.225 4.174-2.305 8.76-6.603 11.973-4.27 3.19-9.184 4.254-13.155 2.846-26.906-9.545-54.442-22.074-89.285-40.625a58 58 0 0 0-1.964-.98c-2.576-1.253-6.89-3.35-7.144-5.335-.134-1.055 1.025-2.292 2.022-3.142M359.67 722.576q.053-2.149.1-4.674c.335-19.233 7.76-27.7 28.379-32.353 29.418-6.638 60.649-14.208 90.625-27.217 9.596-4.164 15.973-6.124 20.414-6.124 2.078 0 3.734.43 5.095 1.264 5.62 3.444 7.45 15.438 8.582 33.676l.048.74c.132 1.83.332 4.597-1.281 6.425-1.25 1.415-3.502 2.219-6.7 2.388-29.468 1.566-57.055 11.404-83.737 20.918-13.991 4.99-28.46 10.148-42.973 14.024q-2.421.65-4.49 1.216c-6.882 1.874-11.857 3.228-13.115 2.245-1.22-.954-1.105-5.81-.947-12.527m1213.433-141.542c-11.834-.095-23.014-.185-34.163-3.003-1.263-.318-2.641-.566-3.974-.806-6.856-1.23-11.008-2.303-10.053-8.603.606-3.985 2.233-6.83 4.836-8.453 1.649-1.028 3.666-1.544 5.977-1.544 1.933 0 4.07.36 6.372 1.084 2.707.849 5.59.415 8.386-.007 1.184-.178 2.302-.347 3.378-.416l.076-.007c8.509-.863 17.27-.22 25.74.405 12.249.9 24.91 1.834 37.575-1.613 1.754-.477 2.974-.342 3.633.4 1.067 1.199 1.1 4.253.076 6.809-1.088 2.705-1.247 6.293-1.403 9.764-.186 4.148-.398 8.848-2.335 10.217-.92.653-2.455.656-4.558.015-13.23-4.032-26.616-4.14-39.563-4.242m-79.703 40.997c-5.42-1.524-4.783-4.357-4.51-5.565.39-1.728 1.35-3.915 5.09-3.915q.488 0 1.043.05c16.628 7.468 34.489 7.417 51.787 7.368 17.274-.048 35.12-.1 51.432 7.48 1.376.64 2.782 1.19 4.14 1.724 4.164 1.633 8.094 3.176 10.319 6.93.87 1.47 2.67 5.246.558 8.55-1.742 2.723-4.831 1.49-5.735 1.045-19.493-9.578-40.553-11.552-60.92-13.461-8.148-.763-16.57-1.552-24.737-2.82-7.192-1.117-14.422-3.26-21.414-5.332-2.351-.697-4.7-1.393-7.053-2.054M1209.36 790.01l3.095 1.955c12.873 8.122 25.03 15.795 35.615 26.416 26.984 27.084 49.516 45.59 73.057 60.01 4.048 2.479 6.336 4.625 6.799 6.38 6.238 23.575 22.402 37.712 44.75 51.688 2.307 1.44 4.5 3.58 6.018 5.874 3.019 4.553.842 8.639-1.515 11.266-1.347 1.5-2.643 2.247-3.96 2.283-1.717.07-3.617-1.038-5.91-3.321l-5.638-5.622c-6.351-6.337-12.918-12.89-19.471-19.245-.565-.55-1.135-1.148-1.716-1.756-2.647-2.778-5.648-5.924-9.526-5.924h-.053c-2.334.018-4.618 1.213-6.785 3.555-2.502 2.7-3.682 5.624-3.51 8.69.217 3.905 2.643 7.887 7.215 11.833 6.357 5.49 12.75 10.935 19.144 16.38 4.403 3.753 8.809 7.505 13.204 11.272.492.424.997.843 1.502 1.262 1.859 1.547 3.616 3.007 4.95 4.735 3.154 4.08 1.985 5.417 1.545 5.92-1.558 1.782-2.594 1.424-5.887-.935-.373-.266-.743-.531-1.111-.784-28.963-19.76-49.698-47.842-67.992-72.62-5.206-7.051-10.431-14.086-15.655-21.121-21.344-28.737-43.415-58.453-63.668-88.72-.527-.786-1.144-1.5-1.741-2.19-1.728-1.998-3.261-3.772-2.755-7.281m51.84 302.445-.158-.13c-2.703-2.243-3.753-3.343-3.232-5.232.517-1.884 2.022-2.134 5.333-2.254l7.81-.305c8.979-.356 18.267-.726 27.394-.906q.223-.006.44-.006c11.333 0 12.766 8.91 13.308 18.844.097 1.819-.207 3.076-.906 3.73-1.267 1.194-4.198.847-6.558.565-1.034-.123-1.976-.234-2.82-.234a6.6 6.6 0 0 0-1.153.089c-17.832 1.536-29.508-5.902-39.458-14.161M459.826 568.65c1.047 5.314-1.546 6.468-8.166 8.005-1.402.326-2.851.663-4.174 1.112-8.802 2.99-18.984 3.895-27.237 2.42l-.221-.026c-16.83-1.111-29.888.373-42.336 4.804-2.367.84-6.325 2.25-8.555 1.184-.84-.4-1.451-1.178-1.871-2.376-2.695-7.69-5.75-16.404-3.21-24.24.499-1.535 1.228-2.185 2.693-2.185 1.098 0 2.61.367 4.75 1 1.142.34 2.322.69 3.427.88 13.543 2.342 27.189 1.419 40.392.524 9.327-.632 18.968-1.286 28.422-.763 10.72.593 14.779 3.03 16.086 9.66m-88.65 67.927c1.339-2.994 4.6-5.528 8.946-6.951 15.455-5.066 32.642-10.7 48.61-10.7 2.998 0 5.955.199 8.847.638l.195.019c18.984.994 33.62.378 47.959-5.738 2.159-.921 5.26-2.044 7.288-1.148 1.059.469 1.857 1.504 2.436 3.166 1.332 3.82-.22 4.749-4.992 6.428-.691.242-1.377.484-2.03.744-15.104 6.013-31.361 7.44-47.083 8.823-8.377.736-17.038 1.497-25.486 2.938l-1.717.293c-10.323 1.753-20.997 3.565-30.998 7.965-.836.369-1.72.82-2.623 1.286-2.476 1.27-5.28 2.708-7.02 2.092-.82-.291-1.504-1.085-2.09-2.426-1.171-2.673-1.252-5.172-.242-7.43m413.773 21.919c.664 1.969.306 2.424-2.952 3.744-2.462.998-6.583 2.668-5.74 7.61l.115.672.5.462c5.96 5.482 11.075 2.317 14.812.007 1.35-.836 2.627-1.625 3.863-2.047 5.846-2.001 11.898-1.635 18.492 1.124 2.11.882 2.886 2.083 3.13 3.126-7.966-.773-10.93 4.968-13.565 10.089-2.471 4.802-4.805 9.337-11.05 9.905-55.037 5.014-100.36 6.769-142.636 5.533-2.95-.087-10.785-.316-11.594-1.906-.81-1.593 3.682-8.148 5.6-10.95 3.52-5.137-2.647-43.492-5.38-47.48-15.572-22.704-39.015-32.256-63.694-40.801-4.902-1.7-9.035-2.398-12.518-2.398-8.05 0-12.626 3.739-15.198 7.543-5.07 7.5-4.15 16.78 2.592 26.127 7.733 10.72 13.912 23.627 17.874 37.32.365 1.264.866 2.713 1.402 4.256 2.005 5.786 4.753 13.71.9 15.625-7.634 3.793-17.427 4.087-26.897 4.37a333 333 0 0 0-6.397.232c-2.14.167-3.225-4.311-3.477-6.942-.401-4.168-1.066-8.448-1.71-12.588-1.547-9.956-3.146-20.251-1.061-29.311 4.495-19.535-3.067-30.847-15.806-41.82-.871-.75-1.871-1.486-2.837-2.198-4.213-3.106-6.685-5.227-5.502-8.47 1.432-3.924 5.13-4.111 11.02-3.96 1.19.03 2.357.063 3.458.026 46.615-1.431 101.483-.461 154.94 17.58 7.403 2.498 15.15 3.554 24.399 3.34 9.334-.21 13.764 1.8 14.798 6.754.398 1.907.083 2.218-3.376 3.333-3.248 1.046-7.698 2.482-9.887 8.006l-1.293 3.264 3.465-.56c11.293-1.825 19.143 3.763 27.45 9.675 4.115 2.927 8.369 5.953 13.032 7.95 2.205.945 4.328 1.947 6.416 2.932 8.652 4.082 16.826 7.938 27.72 6.537 2.38-.296 5.449.907 6.592 4.289m411.099-166.2c.055 2.234-2.664 4.575-4.955 6.146-32.987 22.609-60.775 50.468-85.89 77.208a60 60 0 0 0-1.747 1.973c-3.05 3.549-5.133 5.644-8.34 4.836-5.755-1.45-6.426-8.121-5.978-11.447 2.99-22.185-10.081-35.356-24.654-46.284-10.957-8.217-14.57-13.625-7.02-23.957 2-2.74 2.412-6.447 2.713-9.155.103-.925.198-1.8.335-2.397l.056-.245-.005-.251c-.511-19.573-6.615-34.217-18.661-44.767-12.47-10.92-12.99-21.991-1.792-38.214 2.56-3.711 4.996-5.501 7.893-5.501 1.93 0 4.065.795 6.577 2.347 27.462 16.968 54.97 33.866 82.477 50.764a58879 58879 0 0 1 53.669 32.996c3.437 2.117 5.279 4.175 5.322 5.949m40.509 152.048c.159-.436 1.114-1.372 1.687-1.688 10.155 2.375 17.079-3.282 23.206-8.274 5.47-4.457 10.62-8.67 17.664-7.375l2.043.376.294-2.057c1-7.012-4.676-8.401-8.067-9.23-1.483-.363-3.33-.814-3.656-1.475-.077-.16-.273-.818.516-2.594 2.902-6.543 10.356-6.345 17.724-5.577 10.35 1.066 19.772-2.094 28.892-5.155a274 274 0 0 1 6.232-2.037c46.347-14.307 94.904-14.702 140.69-13.876 1.04.02 2.142-.014 3.272-.046 5.95-.173 9.934-.004 11.288 3.775 1.392 3.884-1.457 6.239-6.314 9.654-1.104.776-2.145 1.509-3.088 2.285-10.854 8.937-21.02 20.758-14.12 40.679 1.545 4.459.84 10.094.158 15.544a186 186 0 0 0-.47 3.992c-1.668 16.353-2.587 25.36-6.64 28.428-3.963 3.003-12.53 1.508-28.077-1.21l-.63-.11c-5.37-.936-5.65-2.028-4.812-7.742 2.707-18.47 9.593-35.851 20.472-51.662 6.577-9.56 7.563-18.311 2.93-26.014-4.623-7.687-13.565-9.753-25.851-5.968-25.383 7.815-50.983 18.42-66.288 42.885-.417.668-.921 1.394-1.463 2.179-3.763 5.436-10.06 14.534-2.738 25.686 1.238 1.883 1.032 4.878.819 8.048-.394 5.789-.928 13.648 8.382 17.92-.918 1.147-3.197 2.913-4.867 3.137-10.367 1.39-18.261 2.052-25.595 2.143-38.223.467-83.491.008-129.428-6.996-1.071-.163-2.31-.186-3.628-.186l-.772.002c-2.527.007-6.372.02-7.023-1.201-.226-.423-.656-2.247 3.229-7.974 1.236-1.821 1.456-3.405.655-4.707-1.378-2.237-4.821-1.993-7.933-1.588l-1.076.148c-2.221.313-4.732.67-5.772-.195-.493-.411-.767-1.242-.818-2.468-.123-3.041 2.406-4.148 7.768-5.353 6.5-1.46 11.775-.87 16.596 1.859.427.242.858.495 1.29.75 3.763 2.222 8.914 5.27 14.422.292l.44-.4.152-.577c1.308-5.007-3.071-7.026-5.685-8.234-1.335-.615-2.998-1.382-3.208-2.121-.067-.226-.108-.918.896-2.45 3.215-4.907 8.662-3.998 14.432-3.04l.585.099c1.163.19 2.35.45 3.54.708 4.723 1.023 9.613 2.083 13.31-.658 2.585-1.916 4.044-5.353 4.435-10.351M621.579 983.476c-.451.802-1.51 1.448-2.513 1.533-.89.075-1.65-.266-2.257-1.014-2.207-2.718.226-5.661 1.874-7.173 6.93-6.36 14.194-12.612 21.218-18.66a1834 1834 0 0 0 10.757-9.308 145 145 0 0 1 2.666-2.258c2.979-2.481 6.059-5.047 8.357-8.257 3.89-5.44 2.983-11.918-2.26-16.124-1.868-1.497-3.687-2.061-5.377-2.061-4.07 0-7.374 3.268-8.727 4.604-3.245 3.208-6.482 6.422-9.72 9.636-5.113 5.076-10.226 10.154-15.366 15.202a81 81 0 0 0-1.675 1.715c-2.21 2.312-4.495 4.702-6.715 4.71h-.012c-1.254 0-2.584-.743-4.07-2.272-2.405-2.476-3.526-4.974-3.333-7.425.289-3.641 3.393-6.682 5.947-8.592 2.783-2.083 5.692-4.122 8.505-6.094 3.148-2.208 6.404-4.491 9.532-6.866 1.26-.956 2.61-1.866 4.038-2.827 4.076-2.746 8.289-5.585 10.53-9.713 18.677-34.43 49.064-57.491 78.45-79.794 15.483-11.751 31.493-23.902 45.677-37.604 2.695-2.604 4.848-4.373 8.05-3.92-17.364 30.698-38.872 58.735-59.69 85.868-16.564 21.594-33.694 43.922-48.494 67.309-5.556 8.78-14 13.89-22.163 18.832-8.703 5.268-17.704 10.715-23.23 20.553m325.573-572.83c.915 1.92 1.86 3.905 3.068 5.689 4.654 6.877 4.312 13.365-1.044 19.835l-1.988 2.394c-6.061 7.29-12.328 14.827-17.078 23.154-4.37 7.66-10.748 22.043-4.362 32.309 11.467 18.432 1.38 27.452-12.996 37.328-12.071 8.293-17.018 18.664-16.544 34.678.195 6.563-.092 13.75-5.992 15.962-4.545 1.7-7.108-1.132-10.794-6-.965-1.274-1.962-2.59-3.018-3.706-22.252-23.527-49.212-50.5-80.44-72.168-4.788-3.322-7.086-5.903-7.026-7.891.06-1.958 2.442-4.34 7.28-7.276 30.13-18.294 60.645-37.087 90.155-55.261a35504 35504 0 0 1 42.925-26.407c1.716-1.053 3.597-1.948 5.257-2.737q.791-.374 1.51-.726c6.499 1.205 8.63 5.673 11.087 10.823m429.435 381.362c-4.166.973-6.137 1.137-7.54-1.338-1.533-2.71-.463-3.96 2.984-6.843 1.606-1.343 3.266-2.732 4.278-4.556 1.954-3.52 3.963-6.997 5.967-10.47 9.4-16.28 19.123-33.114 22.432-53.534.615-3.802 2.29-6.55 5.125-8.396 2.69-1.753 6.498-2.637 11.059-2.637 3.682 0 7.856.578 12.325 1.74 4.497 1.17 7.355 2.894 8.737 5.268 1.862 3.2 1.197 7.758-.376 13.613-5.338 19.872-15.67 38.694-31.586 57.545-7.116 8.424-16.284 9.67-27.853 8.949-1.783-.218-3.698.227-5.552.659m-127.835 181.53c-3.141 1.46-4.6 4.028-4.211 7.423.294 2.59 1.619 5.442 2.902 8.2 1.217 2.617 2.474 5.323 2.728 7.534.124 1.093.335 2.21.545 3.325.928 4.886 1.226 7.514-2.753 9.206-1.54.653-6.228 2.64-10.915-6.127-5.515-10.315-9.387-18.83-12.183-26.796-32.518-92.702-69.54-162.591-116.502-219.944l-.882-1.07c-5.25-6.338-8.332-10.862-3.56-15.794 1.374-1.42 2.543-2.064 3.73-2.064 1.828 0 3.696 1.528 6.417 4.118 1.434 1.366 2.918 2.78 4.508 3.706 34.634 20.179 57.805 52.543 80.21 83.84l3.972 5.54c5.342 7.439 10.908 14.889 16.295 22.094 4.436 5.938 9.026 12.078 13.457 18.169.3.413.62.84.947 1.277 1.723 2.299 3.864 5.16 3.68 7.004-2.14 21.43 10.407 35.118 22.539 48.353l2.742 3c12.83 14.135 19.859 31.93 20.32 51.463l.024.262c1.015 6.454.225 9.376-2.911 10.78-3.263 1.46-4.911-.283-7.95-4.666-.235-.341-.434-.717-.632-1.088-.4-.742-.852-1.581-1.548-2.305-1.47-1.534-2.933-3.522-4.484-5.63-4.49-6.101-9.583-13.022-16.485-9.81m-216.8-578.313c-1.133 6.095-3.53 10.056-6.927 11.46-3.275 1.353-7.554.316-12.37-3.006-5.816-4.012-12.124-4.354-18.222-4.684-.746-.04-1.492-.08-2.24-.128l-.128-.008-.13.009c-.867.057-1.737.103-2.606.148-6.768.355-13.765.722-19.344 6.653l-.71.76c-2.108 2.262-4.726 5.092-6.526 4.806-1.07-.162-2.286-1.56-3.431-3.936-.844-1.754-2.068-3.501-3.25-5.19-2.265-3.234-4.606-6.578-4.01-9.591.405-2.044 2.193-4.092 5.317-6.09a516 516 0 0 0 5.678-3.698c2.225-1.463 4.449-2.926 6.699-4.347 7.725-4.881 16.269-7.245 24.72-7.245 13.42 0 26.606 5.962 35.888 17.277 1.7 2.07 2.13 3.917 1.593 6.81m159.723 344.787c.33-1.077 4.817-2.956 7.227-3.965 1.995-.835 4.058-1.7 5.767-2.644l1.744-.966-.965-1.745c-2.126-3.85-5.14-4.64-7.925-4.64-1.058 0-2.081.115-3.01.218-.891.099-1.733.175-2.5.189-1.215-.01-2.503.063-3.815.136-7.271.408-10.54.06-11.11-4.941-.19-1.67-.037-2.857.43-3.344.704-.732 2.869-.577 4.784-.441 3.338.236 7.483.534 9.674-3.004l.439-.712-.2-.813c-.061-.248-.096-.525-.137-.81-.135-.958-.305-2.15-1.061-3.16-1.84-2.456-5.13-2.65-7.772-2.804-1.467-.086-3.478-.204-3.92-.792-.09-.117-.347-.616-.003-2.13.329-1.434.952-1.824 1.157-1.951 1.54-.968 4.765-.213 7.609.453 1.247.29 2.537.592 3.722.76 44.376 6.305 90.672 8.73 141.428 7.4-4.373 7.017-6.812 12.66-8.208 18.839-4.16 18.432-16.873 32.645-38.87 43.45-8.174 4.018-15.634 7.985-22.808 12.126-8.872 5.125-16.18 6.78-22.33 5.08-6.861-1.898-13.002-8.091-19.35-19.522-6.693-12.052-13.13-23.01-18.273-24.675-10.896-3.53-11.67-5.463-11.724-5.592m-107.181 524.525a100303 100303 0 0 0-76.777 67.25c-.826.724-1.637 1.47-2.443 2.215-4.003 3.679-7.784 7.157-13.077 7.62-5.093-.738-8.681-3.9-12.477-7.244l-45.624-40.048c-61.848-54.297-125.801-110.44-188.92-165.41-6.034-5.256-8.798-9.465-8.697-13.245.092-3.497 2.656-7.165 7.838-11.216 5.07-3.966 9.055-9.291 12.606-14.455l.204-.294c6.383-9.28 9.9-14.39 13.555-15.162a5.5 5.5 0 0 1 1.155-.117c3.675 0 9.069 3.128 18.13 8.379l.527.306c21.997 12.747 44.02 25.45 66.044 38.156 40.162 23.167 81.692 47.123 122.37 70.963 9.634 5.646 17.367 5.512 27.57-.48 29.652-17.411 59.905-34.942 89.16-51.895 34.598-20.051 70.374-40.783 105.4-61.457 6.81-4.021 11.205-5.288 14.692-4.243 3.222.969 6.018 4.073 8.8 9.769 3.77 7.72 9.596 15.19 16.407 21.035 5.07 4.35 7.428 7.954 7.424 11.339-.001 3.476-2.564 7.282-8.061 11.98-25.621 21.899-51.335 44.545-76.206 66.446a15838 15838 0 0 1-31.755 27.918c-15.944 13.967-31.896 27.928-47.845 41.89m-411.995-162.315c.088-.645.17-1.314.255-2 1.18-9.533 2.75-16.295 12.249-16.445 8.537-.135 17.265.24 25.702.606 3.639.157 7.278.315 10.917.437 4.15.13 5.089.979 5.369 2.498.307 1.658-.727 2.729-3.161 4.779l-.743.632c-12.746 10.974-25.101 15.503-38.846 14.252-1.314-.127-2.77-.09-4.18-.053-2.757.066-5.883.152-7.02-1.116-.593-.663-.775-1.871-.542-3.59m369.49-566.601c-1.753 3.87-3.74 3.366-8.062 1.846-1.415-.497-2.88-1.01-4.35-1.225-13.311-1.932-25.991-2.9-38.2-2.9-13.052 0-25.567 1.107-37.738 3.318-1.15.209-2.29.57-3.394.92-4.274 1.35-5.906 1.542-7.428-1.62-2.607-5.406-1.4-10.297 3.492-14.141 12.73-10.008 27.675-13.992 45.66-12.174l.2.019.2-.02c17.184-1.73 31.68 1.81 44.303 10.81 6.197 4.417 7.937 9.378 5.318 15.167M734 999.266q.165-.758.317-1.506c.462-2.33 1.28-4.625 2.147-7.056 1.809-5.08 3.862-10.838 2.625-17.8l-.395-2.223-2.158.667c-11.073 3.418-16.708 11.23-22.157 18.784l-1.042 1.443c-.312.429-.62.873-.931 1.32-2.593 3.745-4.032 5.293-6.925 4.339-4.188-1.373-4.166-4.594-3.765-10.167l.017-.225c1.615-22.475 8.944-40.231 22.41-54.283 13.599-14.191 24.75-27.625 23.47-48.365-.387-6.282 4.007-10.854 8.659-15.694 2.309-2.403 4.697-4.887 6.51-7.638 8.093-12.262 17.13-24.228 25.869-35.8 6.694-8.865 13.618-18.032 20.095-27.302 15.879-22.725 38.248-38.84 59.88-54.421l2.883-2.078c.468-.337.943-.703 1.424-1.075 3.543-2.737 5.204-3.637 7.398-1.492 4.414 4.314 2.388 9.25-.088 12.63-4.114 5.614-8.298 11.177-12.481 16.74-6.51 8.655-13.24 17.605-19.59 26.62-40.882 58.04-67.192 123.307-85.546 173.682-4.175 11.456-9.41 23.417-15.556 35.55-1.511 2.985-3.636 5.087-5.828 5.769-1.643.51-3.345.267-5.195-.741-3.518-1.92-3.096-4.783-2.046-9.678m430.855-45.316c11.074 31.157 25.812 60.443 38.764 84.98 4.529 8.579 3.612 12.355-4.097 16.843-32.4 18.85-64.77 37.755-97.14 56.658a86662 86662 0 0 1-82.795 48.306c-.466.27-1.457.349-2.96.465q-.49.038-1.052.084c.953-2.234 1.865-4.43 2.757-6.584 5.018-12.092 9.35-22.536 17.577-31.06 7.787-8.07 11.517-17.65 11.084-28.468-.393-9.908 2.732-19 6.043-28.623 2.109-6.127 4.287-12.462 5.484-19.042 2.178-12.001 2.447-24.166 2.706-35.93.314-14.271.637-29.03 4.439-43.298 3.11-11.66.953-23.672-1.132-35.29-1.512-8.42-3.077-17.126-2.693-25.774.356-8.06 1.878-16.071 3.35-23.818 1.917-10.1 3.899-20.545 3.337-31.237-.428-8.127-1.29-16.342-2.122-24.288-1.734-16.542-3.527-33.647-1.437-50.57.179-1.448-.141-2.883-.423-4.15-.604-2.715-.6-3.5.864-4.38.313-.186.575-.29.864-.29.553 0 1.205.385 2.47 1.319.912.67 1.946 1.432 3.167 1.825 14.298 4.603 20.532 16.1 27.133 28.275 2.169 4 4.412 8.135 6.94 11.93 22.598 33.924 35.587 72.914 48.147 110.62 3.448 10.35 7.013 21.054 10.725 31.497M909.823 773.023c2.989-1.156 6.08-2.35 8.85-4.275.294-.204.653-.39.854-.39q.064 0 .104.027c.665.459 1.275 2.822.725 5.024-2.534 10.149-1.903 20.376-1.293 30.268.643 10.426 1.307 21.208-1.73 31.974-4.196 14.874-1.19 30.158 1.718 44.937 2.216 11.26 4.506 22.903 3.649 34.378-.241 3.219-.174 6.5-.111 9.675.119 5.773.239 11.74-1.527 17.315-2.221 7.006-4.528 16.174-2.64 24.962 3.3 15.386 3.932 31.385 4.542 46.858.635 16.114 1.292 32.778 4.955 48.864 8.082 35.496 20.08 64.395 36.682 88.354l.36.518c1.837 2.625 3.729 5.328 3.015 10.389l-30.936-18.103c-25.185-14.741-50.012-29.274-74.871-43.75a4800 4800 0 0 1-15.936-9.328c-17.41-10.22-35.411-20.786-53.51-30.483-7.234-3.876-11.966-7.163-13.196-11.565-1.042-3.726.286-8.526 4.177-15.111 21.4-36.206 35.216-76.283 48.576-115.041 6.598-19.14 13.42-38.932 21.064-57.982 9.477-23.614 23.144-45.47 36.363-66.603 2.63-4.207 5.262-8.414 7.865-12.637 2.863-4.647 7.423-6.41 12.25-8.275m52.494 297.453c5.146-6.155 14.663-9.021 29.95-9.021h.056c15.344.006 24.885 2.87 30.028 9.013 5.195 6.206 6.333 16.28 3.58 31.705-.724 4.07-2.14 6.632-4.2 7.613-2.667 1.27-6.386-.21-9.034-1.677-6.756-3.744-13.561-5.616-20.362-5.616-6.794 0-13.587 1.867-20.331 5.602-2.655 1.472-6.38 2.956-9.053 1.689-2.057-.975-3.47-3.528-4.201-7.586-2.776-15.413-1.643-25.493 3.567-31.722m-21.648-59.193c.283-1.035.574-2.106.756-3.156l.153-.86c.178-.98.352-1.958.459-2.945 4.193-38.905 10.859-44.925 50.859-45.693 2.772.454 5.548.888 8.326 1.32 6.177.966 12.566 1.963 18.784 3.174 17.879 3.478 25.134 12.854 22.178 28.664-.797 4.26.35 8.749 1.46 13.088 1.71 6.695 2.566 10.922-1.22 13.344-3.775 2.414-7.736-.031-13.807-4.348-3.414-2.426-6.943-4.935-10.762-6.064-24.527-7.245-46.04-4.836-65.766 7.37-.723.446-1.458.959-2.207 1.48-4.05 2.83-6.238 3.936-8.805 1.877-1.763-1.416-1.46-3.39-.408-7.251M983.11 861.55a574 574 0 0 0 9.542-1.265c3.365.494 6.68.927 9.958 1.354 7.425.968 14.44 1.882 21.379 3.417 6.29 1.389 12.976 6.974 17.883 14.938 5.135 8.335 7.279 17.627 5.595 24.249-.62 2.433-1.59 3.999-2.88 4.657-1.55.786-3.95.512-7.341-.843-29.77-11.892-59.963-11.904-89.735-.031-3.493 1.39-5.847 1.669-7.415.88-1.297-.654-2.237-2.155-2.877-4.587-1.714-6.525.428-15.811 5.588-24.236 4.92-8.034 11.57-13.641 17.785-14.997 7.435-1.622 15.103-2.596 22.518-3.536m-1.668-119.116c1.886 3.195 3.516 5.954 2.538 9.48-.68 2.45-.411 4.49.799 6.066 1.447 1.885 3.996 2.799 7.716 2.79 3.41-.03 5.852-.941 7.26-2.705 1.262-1.581 1.614-3.704 1.048-6.31-.802-3.68.927-6.951 2.755-10.415 2.16-4.09 4.608-8.725 2.874-14.454-.271-.89.045-1.717.356-2.255.63-1.088 1.822-1.972 3.04-2.251 2.647-.611 4.467 1.25 6.712 4.666 15.517 23.588 10.115 78.279-9.635 97.53-10.38 10.12-19.135 10.075-29.27-.161-13.427-13.566-18.715-29.064-17.667-51.808.377-2.388.802-5.161 1.27-8.223 1.454-9.46 3.26-21.232 5.329-33.127.447-2.576 2.044-8.578 7.189-8.678 1.677-.05 2.875.363 3.609 1.21 1.127 1.303 1.419 3.846.84 7.353-.747 4.547 1.369 8.13 3.237 11.292m-3.28 389.51c2.343-2.848 8.469-2.903 13.062-2.903h.274c.695.002 1.36-.01 2.049-.02 7.143-.095 12.816-.181 14.615 8.869-3.571 8.065-7.736 15.846-15.235 16.564-8.903.824-14.234-9.228-15.615-16.216-.565-2.85-.286-4.91.85-6.293m93.36-453.506c4.215-11.74 1.932-23.315-.278-34.51-.706-3.578-1.436-7.28-1.922-10.875-.4-2.956-1.515-6.106-2.593-9.153-1.74-4.907-3.535-9.98-1.876-13.24.902-1.775 2.83-3.082 5.898-3.996 1.9-.566 3.428-.51 4.659.178 3.03 1.693 4.536 7.307 5.866 12.259.773 2.878 1.502 5.596 2.53 7.885 16.95 37.699 7.026 75.404-2.573 111.87a2013 2013 0 0 0-2.348 8.977c-.928 3.584-2.4 5.87-4.375 6.797-2.27 1.063-5.632.55-10.012-1.515-11.053-5.218-20.231-13.421-28.06-25.077-12.131-18.057-23.544-36.878-33.615-53.483-3.768-6.212-7.023-8.988-10.543-8.988h-.071c-3.6.039-6.928 3.037-10.79 9.72-7.967 13.784-16.754 27.425-25.252 40.617a3111 3111 0 0 0-8.301 12.93c-1.412 2.218-3.325 4.28-5.174 6.274l-.562.605c-.76.82-1.525 1.663-2.301 2.513-8.282 9.095-16.846 18.496-27.793 15.969-8.068-1.865-9.185-10.29-10.368-19.21-.431-3.25-.877-6.61-1.69-9.598-8.15-29.932-15.013-69.236 4.394-107.824.664-1.323 1.204-2.866 1.726-4.358 1.086-3.104 2.209-6.314 4.29-7.31 1.106-.526 2.548-.461 4.41.204 2.578.92 4.33 2.485 5.213 4.652 1.25 3.077.739 7.485-1.368 11.792-4.004 8.179-4.88 16.894-5.727 25.32-.655 6.517-1.274 12.67-3.214 18.656-.763 2.355-1.445 5.439.08 8.409 1.35 2.625 4.066 4.557 8.304 5.905l3.299 1.049-.746-3.381c-5.082-23.014 4.317-40.823 14.268-59.68 1.545-2.925 3.09-5.854 4.579-8.804 6.465-12.806 15.698-18.77 29.058-18.77h.024l2.689.01c4.71.029 9.58.062 14.333-.664 22.077-3.362 38.834-.274 51.229 9.455 15.77 12.377 24.304 34.829 27.673 72.8.232 2.599 1.532 4.734 3.97 6.525l2.156 1.58ZM799.99 706.522c-2.755.54-6.528 1.283-7.702 5.71l-.135.51.134.509c1.387 5.274 6.973 5.024 10.67 4.862 1.69-.08 4.242-.19 4.728.43.049.063.457.677-.228 2.997-1.817 6.146-5.853 5.974-12.828 5.143-4.74-.565-10.117-1.206-14.338 1.882l-.67.49-.124.822c-.25 1.648-.408 4.018 1.09 5.555 1.522 1.56 3.692 1.29 5.435 1.07.73-.093 1.637-.205 2.039-.09q.475.138.959.263c2.288.606 2.835.879 2.954 2.167.133 1.446-.354 3.075-2.117 3.312-9.152 1.23-12.323 8.414-15.12 14.752-2.635 5.969-4.91 11.123-11.342 12.233l-2.105.363.505 2.076c2.863 11.747-3.032 13.199-11.191 15.209-3.381.833-6.875 1.694-9.62 3.499-3.18 2.09-6.944 1.709-11.857-1.196-6.296-3.726-12.814-7.302-19.118-10.762-10.973-6.021-22.32-12.247-32.725-19.394-8.633-5.93-14.695-16.683-18.02-31.96-1.395-6.421-4.261-11.294-8.888-17.035 52.57 2.653 102.02-2.32 149.887-7.133l5.66-.57c-.851 3.288-2.974 3.705-5.933 4.286m-257.016 4.787c2.089-3.342 6.728-5.433 14.598-6.583 12.739-1.861 19.547 2.388 24.288 15.159 1.622 4.37 2.478 9.016 3.385 13.933 2.199 11.93 4.473 24.269 18.167 32.475 4.55 2.726 9.58 13.383 11.632 21.693.638 2.585.334 3.666.085 3.876-.28.234-1.392.577-5.653-1.301-.695-.304-1.231-.54-1.776-.54q-.248-.001-.507.07c-23.734 4.81-33.684-6.974-44.214-22.875-8.652-13.063-15.148-26.607-19.858-41.405-2.092-6.571-2.14-11.315-.147-14.502m808.022-129.991c8.557-3.82 15.714-4.758 22.634-2.942-7.904 2.742-15.1 4.382-22.634 2.942m-743.08-2.845c9.904-2.78 18.096-.532 28.036 2.196l1.149.315c-9.803 2.499-17.806.43-26.837-1.907zm784.588 542.9c-6.641 10.084-12.375 18.792-18.418 27.452-32.954 47.229-65.942 94.432-98.931 141.637-50.725 72.586-103.178 147.643-154.64 221.555-21.823 31.34-43.775 63.365-65.005 94.336-16.737 24.415-34.043 49.663-51.176 74.412-5.683 8.213-9.277 12.664-11.978 12.668h-.003c-2.7 0-6.305-4.447-12.014-12.65-37.473-53.84-75.488-108.645-112.251-161.644-23.831-34.356-47.661-68.712-71.513-103.05q-32.387-46.618-64.792-93.226c-44.553-64.085-90.624-130.354-135.82-195.613-.868-1.253-1.816-2.474-2.785-3.722-3.032-3.901-6.154-7.917-7.367-13.963 4.012 1.12 7.965 2.239 11.874 3.343 11.387 3.219 22.143 6.26 33.13 9.04 2.768.7 5.685 1.614 8.506 2.497 8.398 2.629 17.08 5.344 25.015 3.723 35.483-7.25 57.179 12.45 80.149 33.312 3.06 2.778 6.124 5.56 9.225 8.277l39.206 34.358c60.573 53.075 123.207 107.955 184.57 162.203 10.677 9.438 18.999 9.442 29.682.015 61.226-54.015 123.652-108.734 184.025-161.651 25.373-22.237 50.744-44.477 76.1-66.728l.153-.134c6.065-5.323 11.296-9.91 19.493-9.131 39.274 3.79 75.707-7.331 106.146-18.707 1.06-.396 2.347-.523 4.908-.778a271 271 0 0 0 2.73-.28c-2.895 4.366-5.615 8.497-8.22 12.449m211.23-651.665c13.439-1.334 26.13-2.595 38.928-4.492 3.956-.587 9.373-1.388 10.42-.066.487.615.873 2.728-2.007 9.973-12.321 30.984-15.25 30.506-34.31 27.37-1.862-.306-3.863-.635-6.027-.961-15.932-2.405-30.286 4.95-44.797 13.358-.754.437-1.46.954-2.144 1.456-2.615 1.918-3.6 2.419-5.27.995-1.676-1.435-1.343-2.621.042-5.648.363-.79.715-1.573.976-2.34.84-2.463 1.899-4.974 2.92-7.406 2.139-5.077 4.349-10.328 4.922-15.82.754-7.267 2.708-11.877 5.969-14.091 1.59-1.081 3.546-1.621 5.906-1.621 1.858 0 3.969.335 6.349 1.005l.37.105.383-.042c5.88-.633 11.664-1.208 17.37-1.775M261.756 575.72c-2.587-3.5-7.848-4.2-12.49-4.82-1.103-.146-2.173-.287-3.15-.464a69 69 0 0 0-3.23-.477c-5.897-.78-9.543-1.483-10.166-5.96-.818-5.88 2.567-9.925 11.683-13.965 22.74-10.076 46.687-12.872 65.024-14.177h.148c13.46 0 24.748 4.918 31.798 13.863 6.677 8.472 8.777 19.593 5.91 31.319q-.074.319-.138.643c-.06.293-.107.588-.217.858-1.235 3.014-11.374 8.082-28.36 11.937-16.294 3.7-30.981 4.32-34.16 1.448-.601-.545-1.2-1.255-1.833-2.008-1.594-1.891-3.662-4.343-6.606-4.343-.72 0-1.491.146-2.32.482-3.01 1.22-8.608 3.5-10.195 2.225-.68-.545-1.638-2.567-.404-9.988.435-2.611-.001-4.823-1.294-6.573m87.77 95.333c-1.112 18.789-4.561 36.244-10.54 53.343l-.19.546c-1.646 4.753-2.656 6.645-6.106 6.167-3.067-.422-3.797-2.37-5.03-6.377-.166-.537-.334-1.081-.514-1.628-1.244-3.781-1.815-7.82-2.42-12.096-1.586-11.211-3.383-23.918-19.505-30.266-1.481-.582-2.303-1.68-2.514-3.355-.516-4.105 2.667-10.046 7.097-13.246 9.49-6.852 20.509-10.474 31.864-10.474h.005c3.55 0 5.946.674 7.12 2.006 1.579 1.788 1.167 5.086.768 8.276-.32 2.568-.624 5-.034 7.104m1450.696-372.896c-6.431 7.703-8.73 13.845-7.026 18.778 2.31 6.68 11.496 9.434 19.242 11.086.673.144 1.589 1.002 2.398 1.759.286.268.57.533.856.783.07.202.15.49.275.914.14.465.317 1.063.559 1.836-20.656 3.065-41.461 2.876-63.532-.573-6.413-1.002-7.111-6.104-7.497-14.39-.122-2.607-.247-5.304-.76-7.688l-.251-1.15c-1.59-7.195-2.1-11.737 4.176-14.125 11.949-4.543 25.874-9.751 39.908-14.042a15.2 15.2 0 0 1 4.452-.68c4.037 0 7.76 1.71 10.296 4.884 3.35 4.192.158 8.706-3.096 12.608M1509.37 356.79c.98-6.683 1.838-10.498 8.056-11.23l2.89-.34-1.358-2.573c-3.282-6.218-7.456-5.893-11.105-4.757l-.441.138c-1.25.394-3.34 1.055-4.001.654-.184-.113-.344-.482-.436-1.014-.247-1.428 1.51-4.781 2.849-5.435 11.59-5.668 21.268-9.818 30.455-13.06 2.746-.967 6.799-1.318 10.225 6.824 5.699 13.558 8.568 28.499 9.3 48.445.2 5.419-2.188 8.812-7.517 10.679-8.374 2.934-16.743 5.877-25.463 8.94l-7.573 2.66c.113-1.82 1.339-2.721 2.985-3.933 1.999-1.467 4.73-3.476 3.72-7.572l-.116-.477-.325-.367c-1.605-1.817-3.25-2.422-4.8-2.422-1.895 0-3.647.902-5.016 1.607l-.718.367c-1.157.574-2.345 1.347-3.606 2.165-2.028 1.317-4.8 3.119-6.031 2.829-.09-.022-.3-.072-.565-.524-2.208-3.784-2.165-13.513-1.366-15.97 8.06-2.705 9.11-9.858 9.957-15.634m-71.162 155.226c1.247 1.564 2.426 3.04 3.295 4.489 4.51 7.515 12.824 4.423 19.508 1.934 2.309-.86 4.492-1.671 6.487-2.114 7.923-1.752 7.498-7.301 7.216-10.971-.123-1.6-.24-3.108.2-4.118 2.514-5.78 4.154-12.037 5.738-18.088 3.218-12.295 6.26-23.91 16.054-32.09 8.868-7.41 19.615-6.806 31.009-6.164 3.564.203 7.243.405 10.827.34 4.489-.102 7.313.645 8.504 2.239 1.079 1.448 1.069 3.928-.03 7.372-9.95 31.219-24.326 71.758-47.377 108.456-6.02 9.585-13.032 13.065-24.185 12.033-11.146-1.036-22.544-.48-33.563.056-12.813.62-26.061 1.267-38.474-.686-5.14-.81-10.39-1.777-15.467-2.713-10.951-2.018-22.226-4.097-33.834-4.891 3.34-2.118 7.113-2.864 11.043-3.642 5.069-1.003 10.31-2.041 15.047-5.992l4.005-3.34-5.211-.186c-4.393-.157-8.806.086-13.067.32-9.192.51-18.653 1.035-28.99-2.413 7.582-2.716 13.847-6.764 19.944-10.703 7.697-4.973 14.968-9.671 24.432-11.537l10.69-2.107-10.988-1.86c-14.274-2.417-14.79-2.33-27.574 4.457-7.983 4.243-14.594 7.096-24.174 4.413 8-5.291 16.998-8.271 25.732-11.166 11.228-3.72 22.84-7.568 31.675-16.321l1.337-1.325-1.245-1.413c-4.53-5.132-8.898-4.056-11.768-2.25-15.98 10.069-34.207 15.214-51.832 20.19-11.556 3.263-23.507 6.637-34.807 11.374-6.606 2.769-13.335 1.65-20.455.463-7.34-1.225-14.923-2.487-22.55.689-.871-.386-2.708-1.921-3.051-2.825-.735-1.94-.108-2.633 2.68-4.534.714-.486 1.449-.988 2.135-1.567 31.229-26.46 69.913-37.067 103.722-44.931 19.43-4.521 39.522-9.196 59.893-12.655 8.124-1.38 14.756.29 18.685 4.698 3.857 4.325 4.756 10.934 2.529 18.61-2.685 9.264 2.272 15.477 6.255 20.469m-886.52-21.594c-1.633-6.947.18-14.146 4.732-18.79 3.604-3.674 8.362-5.104 13.403-4.026 9.538 2.04 19.296 3.93 28.732 5.758 47.047 9.112 95.695 18.535 135.612 50.295 1.12.89 2.479 1.584 3.794 2.255 3.906 1.993 5.3 3.007 4.417 5.779-1.08 3.392-2.994 3.497-7.798 2.919-1.51-.181-3.076-.37-4.617-.302-42.231 1.74-78.662-13.245-121.897-33.032-1.381-.633-3.171-.833-4.79-.531-1.051.194-1.893.694-3.167 1.45-.655.388-1.475.874-2.564 1.465l-2.58 1.4 2.25 1.885c10.487 8.776 22.666 12.982 34.443 17.05 7.947 2.745 16.13 5.57 23.83 9.807-8.98 3.338-16.397.012-24.842-3.775-8.64-3.874-18.431-8.267-30.67-4.53l-9.674 2.953 10.072.943c10.588.99 17.783 5.737 25.4 10.759 6.588 4.344 13.36 8.809 22.337 10.458-10.021 4.992-19.286 4.296-29.022 3.56-4.5-.34-9.153-.69-13.795-.4l-5.33.332 4.24 3.245c6.145 4.699 12.722 5.58 19.083 6.434 3.573.479 6.979.935 10.094 2.065q-.145.446-.268.834a44 44 0 0 1-.262.814c-45.137 7.234-91.314 8.085-130.555 7.96-5.9-.017-9.554-1.766-12.61-6.034-24.586-34.332-38.32-72.865-52.495-116.04-.67-2.041-.717-3.566-.144-4.666.695-1.334 2.437-2.358 5.646-3.323 6.642-1.995 12.749-3.002 18.355-3.002 20.167 0 33.826 13.032 42.33 39.916.866 2.735 1.18 6.164 1.514 9.795 1.017 11.088 2.283 24.886 20.868 27.445 8.362 1.15 16.046-1.365 21.087-6.901 5.082-5.583 6.846-13.683 4.84-22.224m-70.545-151.694c-.488.364-2.617-.295-3.891-.688-2.556-.79-5.45-1.683-7.881-.364-1.374.744-2.343 2.072-2.876 3.946l-.26.91.54.776c7.819 11.244 16.103 25.006 18.259 41.833.347 2.714-.125 3.264-.13 3.268-.354.283-2.345-.068-3.48-.267-1.672-.293-3.258-1.332-4.937-2.431-2.951-1.931-6.618-4.335-11.96-3.133l-1.184.267-.307 1.175c-1.243 4.762 1.594 7.065 3.665 8.748 1.496 1.215 2.568 2.085 2.756 3.62-2.95-1.026-5.902-2.037-8.85-3.048-9.045-3.103-18.398-6.31-27.403-9.854-1.284-.504-5.191-2.041-4.293-10.71.214-2.06.41-4.126.606-6.193.672-7.066 1.366-14.372 2.775-21.354 2.897-14.346 5.164-22.052 9.519-24.356 1.095-.58 2.398-.856 3.95-.856 4.604 0 11.4 2.435 21.453 6.663 1.33.559 2.81 1.055 4.24 1.536 6.1 2.046 10.103 3.708 10.157 8 .02 1.694-.298 2.384-.468 2.512M239.769 314.69c-.884 3.226-1.797 6.56-1.978 9.716-.384 6.682-4.155 9.732-11.743 9.667-5.577-.064-11.154-.047-16.734-.034l-9.318.013.003.248q-2.864.006-5.727.016c-6.538.022-13.297.047-19.93-.084-4.423-.086-5.245-1.376-5.467-2.491-.157-.786-.037-1.451.366-2.034.624-.901 1.947-1.617 3.455-1.865 9.973-1.65 15.82-4.875 17.877-9.86 2.214-5.362.062-12.113-6.978-21.892-3.104-4.312-4.082-8.087-2.753-10.628 1.36-2.6 5.25-4.13 10.457-4.13q.23 0 .463.005c14.872.254 30.234 5.469 45.66 15.5 5.728 3.725 4.708 9.23 2.347 17.853m-63.57 114.374 1.07-.183c1.128-.196 2.52-.308 3.995-.425 4.543-.365 9.24-.741 11.126-3.778.936-1.508.979-3.354.127-5.488-.361-.905-.71-1.93-1.081-3.017-2.05-6-5.15-15.066-15.004-16.526-6.008-.89-11.716-2.09-12.797-4.817-.595-1.5-.234-4.64 4.86-11.085 5.906-7.47-2.041-23.5-8.514-33.198l13.02-.003c17.615-.006 35.229-.013 52.842.044 1.769.006 3.545.647 4.223 1.526.259.335.319.669.203 1.119-4.162 16.09 5.635 23.752 14.279 30.512 4.29 3.354 8.343 6.523 10.92 10.567 2.43 3.814 6.296 7.213 10.035 10.5 5.749 5.056 11.18 9.832 9.752 14.672-1.386 4.685-6.941 4.424-15.915 3.44-4.26-.468-8.663-.95-12.46-.392-19.377 2.852-39.413 5.8-57.255 16.9-3.027 1.884-6.503 3.139-9.536 3.446-6.175.639-10.517-2.488-11.333-8.122-.572-3.937 1.829-4.76 7.443-5.692m37.015 91.285c1-.388 2.035-.791 2.965-1.296.789-.426 1.682-.826 2.597-1.237 3.186-1.433 6.798-3.057 7.97-6.381.67-1.9.407-4.05-.782-6.39-1.548-3.048-3.536-4.861-5.908-5.387a6.8 6.8 0 0 0-1.482-.162c-3.64 0-7.203 2.787-10.392 5.28l-.433.339c-4.335 3.387-7.46 5.453-11.241 3.456-.886-.468-1.957-1.295-2.031-2.578-.067-1.137.643-2.39 1.808-3.191 3.587-2.471 3.144-6.841 2.788-10.353-.252-2.487-.49-4.837.539-5.918.79-.833 2.585-1.202 5.207-1.067l27.83 1.442.05.002c21.765.575 44.166-2.757 66.577-9.923l.23-.074c6.792-2.174 10.18-2.952 12.9 3.06 1.356 2.997 3.084 5.886 4.755 8.679 4.028 6.734 7.832 13.093 6.679 20.698-.118.776-.327 1.156-.47 1.245-.55.346-2.564-.295-3.768-.676-1.61-.51-3.28-1.042-4.863-.961-3.711.174-7.427.32-11.144.467-28.308 1.117-57.58 2.272-84.405 16.145-1.31.677-5.301 2.738-7.653 1.839-.941-.36-1.657-1.21-2.186-2.6-.835-2.19-.258-2.857 3.863-4.458m294.46 481.76c1.17.168 2.038.634 2.46 1.327.479.784.29 1.68.049 2.296-4.654 11.81-12.198 19.545-22.426 22.982-.723.243-1.4.177-2.008-.203-.848-.53-1.477-1.602-1.71-2.903 1.538-3.715 19.883-21.956 23.636-23.5m493.92 754.724c-3.408 5.15-6.47 7.76-9.104 7.76h-.004c-3.687-.003-7.623-5.258-10.64-9.836-70.373-106.807-132.533-200.763-190.03-287.236-31.794-47.82-64.2-96.383-95.54-143.348-42.278-63.36-85.995-128.873-128.798-193.44-1.618-2.443-3.348-4.874-5.02-7.224-5.113-7.19-10.356-14.564-13.15-23.267 6.637 9.418 13.28 18.829 19.926 28.242 18.294 25.917 37.21 52.715 55.672 79.173 76.709 109.935 153.905 220.805 219.3 314.76 42.85 61.563 85.752 123.392 129.592 186.597 8.543 12.315 13.16 18.118 18.575 18.122h.005c5.318 0 9.699-5.458 17.755-17.041 24.968-35.9 49.926-71.806 74.882-107.715 54.899-78.99 111.669-160.667 167.642-240.901 49.24-70.584 99.546-142.178 148.197-211.418l34.707-49.402c.512-.728.92-1.527 1.313-2.3 1.02-1.995 1.662-3.121 3.08-3.36.129 4.145-2.466 7.122-5.198 10.255-1.175 1.349-2.391 2.742-3.381 4.236-55.71 84.042-112.491 169.397-167.402 251.942a349339 349339 0 0 0-89.568 134.686c-63.125 94.988-125.512 189.226-172.811 260.715m-262.686-336.186c5.563 8.238 10.99 16.26 16.314 24.13 13.09 19.353 25.456 37.628 37.75 56.07 32.296 48.437 64.557 96.895 96.819 145.353 29.738 44.67 59.478 89.338 89.242 133.99 4.762 7.144 8.639 11.572 13.25 11.572 4.704 0 8.79-4.714 13.859-12.321l66.174-99.332a551579 551579 0 0 1 165.47-248.302c.414-.618.814-1.256 1.22-1.903 1.848-2.936 3.746-5.955 7.585-8.246-3.27 11.976-9.685 21.306-15.91 30.356-1.932 2.809-3.93 5.715-5.755 8.602l-.945 1.494c-64.33 101.699-130.852 206.86-193.684 311.937-5.472 9.152-11.405 18.258-17.143 27.065-3.933 6.038-8.001 12.28-11.894 18.499-3.215 5.134-6.204 7.738-8.884 7.738h-.022c-2.787-.016-5.945-2.876-9.388-8.502-9.718-15.89-19.426-31.781-29.136-47.674-33.437-54.741-68.014-111.344-102.458-166.745-20.652-33.218-42.011-66.758-62.668-99.192-14.1-22.14-28.677-45.033-42.901-67.62-.656-1.04-1.41-2.048-2.14-3.023-2.653-3.551-5.382-7.202-4.755-13.946m792.836-578.333c.189-5.621.144-11.323.1-16.836-.013-1.77-.028-3.54-.034-5.31h.15v-1.995c0-1.877.043-3.76.084-5.64.096-4.258.192-8.66-.205-13.001-.358-3.913-.555-7.896 1.278-9.843 1.15-1.22 3.177-1.76 6.219-1.67 4.626.148 8.958.477 11.163 2.859 1.335 1.443 1.916 3.65 1.774 6.75-.351 7.669-.762 15.336-1.173 23.003-.415 7.737-.83 15.474-1.183 23.215-.277 6.105-3.083 8.498-9.997 8.498l-.163-.001c-2.886-.016-4.888-.644-6.117-1.922-1.428-1.487-2.032-4.063-1.896-8.107M1534 891.69c3.567.454 5.895 1.526 7.117 3.275 1.326 1.9 1.508 4.849.555 9.019l-.045.287c-2.005 25.263-7.32 50.054-15.797 73.682-.363 1.012-.702 2.203-1.06 3.462-1.02 3.592-2.286 8.064-4.63 8.956-1.181.449-2.833.009-4.914-1.316-1.31-.834-2.787-1.678-4.33-2.561-10.493-5.994-17.562-11.008-12.952-21.006 8.8-19.092 18.386-42.016 22.749-67.262.939-5.431 3.385-6.971 7.949-6.971 1.537 0 3.316.175 5.358.435m188.405-302.414c.04.286-.265 1.067-.52 1.674-7.67-3.154-13.94.75-19.52 4.23-5.11 3.187-9.936 6.2-15.631 4.165-3.972-1.416-8.126-2.313-12.145-3.18-2.566-.554-5.22-1.126-7.76-1.824-17.245-4.732-25.17-8.994-28.262-15.198-3.135-6.292-1.678-15.484 5.199-32.783 3.643-9.171 9.835-9.968 17.1-9.968.755 0 1.52.009 2.296.018 3.447.039 7.002.078 10.287-.74 22.223 1.78 45.815 4.83 67.897 14.837 7.853 3.559 11.137 7.553 10.645 12.95-.448 4.959-4.123 5.689-10.078 6.47-.91.12-1.808.238-2.676.382-.791.13-1.593.252-2.396.373-5.622.847-11.435 1.724-14.19 6.144-1.867 2.996-1.947 7.077-.246 12.45m37.202-85.664c-1.92 2.877-2.512 5.38-1.81 7.653 1.153 3.718 5.427 5.433 9.197 6.948 1.325.532 2.576 1.034 3.59 1.575q.576.305 1.175.605c3.912 1.982 4.487 2.723 3.616 4.667-.548 1.224-1.292 1.987-2.276 2.333-1.518.534-3.8.113-6.263-1.15-25.886-13.253-53.307-16.531-80.036-16.531-7.02 0-13.991.226-20.874.556-3.578.174-4.942-.34-5.441-.801-.128-.118-.465-.43-.508-1.566.225-10.114 4.495-18.96 11.718-24.276 6.622-4.871 14.796-6.246 23.014-3.876 27.328 7.889 54.567 7.64 79.945 6.203 3.309-.153 8.559 4.279 12.177 10.152 2.802 4.544 3.915 8.928 2.774 10.91-2.146 3.72-4.55 2.906-9.526.16l-.75-.411c-1.227-.668-2.54-1.691-3.928-2.775-3.204-2.496-6.507-5.077-10.208-4.481-2.116.342-3.997 1.723-5.586 4.105m56.197-137.06c-1.865 6.058-.657 12.849 3.696 20.764 1.715 3.119 2.24 5.55 1.562 7.225-1.055 2.603-5.145 3.857-9.105 5.07-.595.183-1.157.345-1.695.5-3.837 1.107-6.867 1.982-10.99 6.974-6.64 8.036-8.778 13.017-7.15 16.655 1.827 4.087 7.876 5.13 17.04 5.488 7.084.278 6.947 4.019 6.897 5.427-.16 4.339-3.708 6.46-6.657 7.475-2.69.924-5.787 1.007-7.211.195-24.417-13.961-52.756-20.48-89.108-20.48-.415 0-.836.002-1.253.004-3.147.03-4.326-.63-4.498-1.01-.114-.255-.46-1.776 4.025-6.801 7.044-7.895 14.527-15.658 21.764-23.164 3.37-3.498 6.742-6.995 10.086-10.52 1.09-1.15 2.336-2.287 3.538-3.387 5.552-5.074 11.843-10.824 7.542-21.768-.436-1.113-.32-2.203.329-3.07.774-1.03 2.144-1.56 3.665-1.421 9.753.889 19.388.667 29.583.433 12.739-.293 25.859-.593 39.946 1.334-6.42 4.113-10.366 8.75-12.006 14.077m35.399-74.482-.183-1.012c-1.91-10.511-3.882-21.382-17.331-25.236-4.16-1.192-8.363-2.511-12.43-3.787-11.671-3.665-23.741-7.453-36.431-8.771-79.793-8.292-162.361 6.313-252.404 44.647-71.217 30.32-146.382 63.743-213.745 109.422-6.198 4.204-10.772 5.356-17.171-.622-40.624-37.945-76.94-71.326-111.023-102.051-4.113-3.708-5.931-6.39-5.894-8.697.039-2.332 1.977-4.994 6.286-8.628 17.096-14.42 31.72-28.321 44.708-42.497 13.042-14.236 25.11-29.751 36.78-44.757l5.697-7.312c.953-1.22 4-5.535 3.166-9.781-.398-2.03-1.64-3.695-3.591-4.815-1.813-1.041-3.522-1.345-5.072-.91-2.59.73-3.96 3.233-5.17 5.442-.511.929-.993 1.808-1.497 2.444-1.526 1.926-2.395 4.179-3.235 6.357-1.218 3.155-2.284 5.917-5.101 7.29-.625-.605-.643-1.668-.421-3.983.274-2.836.785-8.116-5.98-8.862l-.706-.078-.598.388c-4.736 3.076-5.37 7.608-5.93 11.608-.228 1.639-.446 3.19-.922 4.578-.49 1.434-.983 2.958-1.49 4.528-3.005 9.286-6.742 20.843-13.286 21.908-11.8 1.917-15.383 8.806-18.85 15.468-1.293 2.485-2.514 4.832-4.166 6.967-1.33 1.718-2.354 3.964-3.346 6.136-3.103 6.799-5.011 9.54-10.26 7.28-9.947-4.29-13.42 1.523-15.945 5.772-.276.467-.555.934-.84 1.392-2.783 4.45-5.312 6.768-7.736 7.086-2.643.348-6.018-1.538-10.91-6.112-23.684-22.148-47.985-44.42-71.488-65.96-25.107-23.01-51.071-46.802-76.33-70.491-11.842-11.11-20.27-11.067-32.194.157-26.876 25.297-54.518 50.688-81.25 75.243-19.577 17.983-39.821 36.578-59.613 54.999l-1.544 1.443c-6.071 5.69-11.8 11.068-16.896 10.166-3.498-.617-6.991-4.332-10.382-11.038-.62-1.223-3.8-5.446-6.47-4.463-14.22 5.288-17.145-2.353-20.842-12.028-1.301-3.403-2.647-6.922-4.597-9.74-.618-.893-1.163-1.913-1.738-2.995-1.903-3.566-4.272-8.012-10.14-7.188-5.722.788-7.473-2.141-9.895-6.203-.906-1.52-1.843-3.091-3.058-4.511-3.81-4.448-5.268-10.043-6.814-15.966-1.667-6.39-3.39-12.997-8.3-18.157l-.991-1.042-1.301.61c-4.95 2.323-4.735 6.479-4.593 9.228.112 2.183.079 3.175-.737 3.856-1.814-.646-2.523-2.151-3.533-4.573-.604-1.451-1.228-2.951-2.3-4.254-.858-1.046-1.581-2.832-2.278-4.56-1.322-3.267-2.688-6.648-5.753-7.707-1.785-.618-3.82-.282-6.044.995-1.864 1.068-3.038 2.512-3.488 4.29-.944 3.726 1.609 7.858 3.862 11.503.66 1.07 1.304 2.105 1.812 3.07.596 1.129 1.375 2.06 2.13 2.959l.32.383c2.435 2.933 4.862 5.873 7.292 8.815 22.23 26.92 45.219 54.758 73.508 76.668 4.908 3.8 7.238 6.799 7.332 9.437.096 2.675-2.036 5.763-7.128 10.32-39.93 35.757-75.375 68.29-108.365 99.463-7.298 6.897-11.95 5.846-20.255.677a2553 2553 0 0 1-13.958-8.771c-17.695-11.172-35.993-22.726-54.951-32.264l-11.373-5.728c-83.553-42.102-169.95-85.637-265.087-101.566-49.68-8.317-108.082-14.022-164.595 6.744-10.127 3.719-17.295 8.587-19.364 20.249-4.227 23.817-7.91 49.366-6.26 74.808 6.223 95.87 35.974 187.879 88.43 273.468 44.272 72.236 91.22 144.448 136.624 214.284 48.338 74.349 98.32 151.229 145.188 228.313 40.712 66.96 83.42 134.222 124.72 199.27 24.175 38.072 49.172 77.443 73.496 116.32 44.313 70.83 89.137 142.996 132.485 212.784 25.479 41.02 50.96 82.044 76.484 123.037 10.204 16.389 20.48 32.732 30.759 49.075 14.29 22.725 29.066 46.224 43.39 69.459 4.353 7.063 8.322 10.364 12.474 10.364q.1 0 .2-.004c4.17-.105 7.946-3.5 11.88-10.682 1.289-2.35 2.824-4.665 4.306-6.902a173 173 0 0 0 2.625-4.04c30.662-49.165 61.943-99.09 92.194-147.37 70.65-112.76 143.707-229.36 214.264-344.847 32.078-52.507 65.675-105.277 98.165-156.31 45.468-71.42 92.486-145.273 136.122-219.62 44.09-75.121 94.22-148.401 142.703-219.268l14.294-20.903c64.589-94.55 103.539-171.828 126.29-250.568 20.53-71.041 25.482-129.362 15.583-183.54"/></g></svg>