<svg xmlns="http://www.w3.org/2000/svg" width="2048" height="1920" viewBox="0 0 2048 1920"><defs><clipPath id="clip_1"><path d="M0 0h2048v1920H0Z"/></clipPath></defs><g fill="#231f20" clip-path="url(#clip_1)"><path d="M446.18 691.221c-1.196-.039-2.466.282-3.684.815-1.606.702-2.74 1.824-2.973 3.633-.244 1.887.318 3.466 1.958 4.554 2.573 1.709 6.559 1.881 8.759.375 1.715-1.174 2.34-2.833 2.059-4.85-.226-1.621-1.07-2.848-2.502-3.654-1.075-.605-2.238-.879-3.617-.873m30.236 74.735c3.478.031 6.778-2.341 6.808-4.892.032-2.63-3.51-5.957-6.421-6.035-3.3-.087-6.796 2.998-6.721 5.929.067 2.628 3.034 4.969 6.334 4.998m26.5-15.354c2.892.032 5.886-2.182 6.717-4.615.628-1.841-.321-3.624-2.866-5.356a9 9 0 0 0-1.131-.668c-3.096-1.504-7.524.156-8.915 3.333-1.124 2.566.567 5.393 4.107 6.765.807.313 1.686.44 2.088.541m111.27 497.347c2.628-.014 4.652-1.009 5.549-2.687.987-1.843.608-3.626-.388-5.324-2.62-4.471-7.131-6.424-12.088-5.267-4.061.949-5.312 5.053-2.395 8.053 1.22 1.256 2.583 2.388 3.955 3.484 1.613 1.29 3.569 1.632 5.367 1.741M540.96 819.667c-1.515.024-2.878.367-4.13 1.142-3.598 2.229-4.638 5.045-2.957 8.274 1.452 2.79 3.93 4.165 6.96 4.259 2.983.092 5.666-.972 7.47-3.465 1.687-2.332 1.353-5.115-.653-7.215-1.833-1.918-4.094-2.901-6.69-2.995m101.283 436.47c-3.765.01-6.028 1.447-6.81 3.798-.828 2.495.007 4.319 2.842 6.306 1.169.82 2.265 1.748 3.453 2.538 2.372 1.574 4.914 1.893 7.528.67 2.77-1.295 3.972-4.333 2.393-6.895-2.304-3.74-5.896-5.749-9.406-6.417m52.919 11.284c2.459-.003 5.212-.938 6.694-2.084 3.662-2.831 3.736-7.146.166-9.665-4.06-2.865-9.872-3.044-13.99-.43-4.026 2.553-4.302 7.167-.385 9.615 2.408 1.505 5.189 2.305 7.515 2.564M462.2 643.494c1.457-.054 2.875-.2 4.23-.727 6.504-2.527 8.29-9.457 3.612-14.012-5.017-4.883-12.228-4.712-17.045.406-2.32 2.464-2.666 7.285-.351 9.691 2.56 2.661 5.743 4.393 9.554 4.642m114.53 47.404c-2.194 0-4.397-.1-6.584.037-1.376.085-2.54.813-2.94 2.269-.42 1.535.138 2.837 1.294 3.832.568.489 1.293.831 1.997 1.12 2.949 1.207 5.895 2.427 8.88 3.535 4.464 1.657 9.078 2.642 13.854 2.717 2.54.04 5.066-.167 7.443-1.17 1.46-.617 2.759-1.477 2.98-3.22.244-1.904-1.15-2.703-2.535-3.439-7.623-4.047-15.761-5.957-24.388-5.681m11.055 348.289c.1-3.321-.85-5.384-2.717-6.487-2.217-1.31-3.986-.162-5.77 1.009-3.628 2.383-6.647 5.433-9.124 8.937-2.028 2.867-3.638 6.049-4.384 9.519-.55 2.559-.4 5.176 2.074 6.798 2.469 1.617 4.854.579 7.117-.735.282-.164.539-.379.787-.595 2.976-2.594 5.87-5.259 7.908-8.707 1.898-3.211 4.085-6.298 4.109-9.739M469.452 730.985c4.643.066 8.016-1.495 10.857-4.056 3.598-3.242 2.986-7.684-.782-10.67-3.611-2.861-7.616-3.581-11.995-3.636-3.294-.041-5.994 1.274-8.426 3.242-3.238 2.62-3.458 7.706-.337 10.466 3.207 2.836 7.063 4.379 10.683 4.654m81.78 221.459c.023 3.214 1.566 7.679 3.808 9.671 4.596 4.082 9.36 4.857 13.744-.261 4.96-5.791 3.289-16.542-3.217-20.678-3.832-2.437-8.082-1.87-10.867 1.686-2.202 2.811-3.636 6-3.467 9.582m3.943-95.616c-6.038-.758-10.926 3.808-13.032 7.918-.812 1.584-.961 3.234.172 4.678 2.842 3.619 6.196 6.665 10.856 7.63 4.697.972 11.34.184 15.128-5.693 1.144-1.775 1.673-3.641.894-5.634-1.757-4.496-4.83-7.582-9.745-8.464-1.405-.252-2.848-.296-4.273-.435m-95.008-195.584c-4.786-.062-9.135 1.379-13.187 3.739-4.112 2.394-4.407 7.492-.682 10.414 6.903 5.416 17.218 6.299 24.843 2.127 5.075-2.777 6.006-8.672 1.528-11.821-3.663-2.575-7.861-4.337-12.502-4.459m116.46 252.733c3.41.123 6.54-.955 9.455-2.537 2.165-1.175 3.66-3.134 4.685-5.397.693-1.529.609-3.023-.381-4.376-1.51-2.063-3.232-4.04-5.685-4.879-7.86-2.686-15.561-2.642-22.77 2.054-3.85 2.507-3.997 6.615-.53 9.625 4.38 3.803 9.58 5.233 15.227 5.51m6.604-257.011c-2.782.017-4.112 1.551-3.496 4.254.464 2.039 1.309 3.944 2.403 5.762 3.185 5.29 6.68 10.271 11.172 14.624 3.293 3.19 6.887 5.817 10.799 8.074 2.276 1.313 4.307 1.076 5.817-.353 1.526-1.443 1.919-3.508.96-5.778-.816-1.93-1.95-3.691-3.128-5.427-5.33-7.842-12.008-14.296-19.95-19.472-1.408-.918-2.845-1.682-4.577-1.684m133.75 77.005c1.413-.046 2.67-.156 3.259-1.462.519-1.154-.105-2.132-.774-3.036-.862-1.166-1.99-2.045-3.172-2.864-6.154-4.266-12.355-8.458-18.714-12.418-4.108-2.557-8.301-4.95-12.52-7.319-6.252-3.509-13.09-5.81-19.238-9.51-1.25-.751-2.626-1.166-4.108-.996-1.033.119-1.943.527-2.318 1.588-.332.936.064 1.749.708 2.4a21 21 0 0 0 2.22 1.968c6.314 4.762 12.526 9.632 19.198 13.943 8.355 5.398 17.295 9.64 26.06 14.227 2.502 1.308 5.39 1.881 7.952 3.183.469.239 1.068.224 1.447.296m-88.531.067c1.249-.072 2.485-.011 3.63-.431 2.823-1.033 5.789-2.206 6.544-5.427.702-2.994-1.266-5.204-3.395-7.054-4.285-3.721-9.131-6.427-14.7-7.73-1.821-.426-3.637-.856-5.351-1.625-4.322-1.94-8.352-1.206-12.2 1.302-3.165 2.065-3.523 5.015-.835 7.658 1.8 1.77 3.736 3.4 5.553 5.151 5.806 5.595 13.319 6.769 20.754 8.156m134.763 509.923c-.22-7.688-1.19-15.33-1.252-23.03-.024-2.984-.196-5.883.634-8.785.456-1.596.479-3.261.146-4.905-.576-2.836-1.93-3.406-4.491-1.931-1.393.802-2.398 1.897-2.881 3.456-.556 1.792-1.65 3.376-2.275 5.099-1.35 3.715-3.55 7.082-4.431 10.972-.655 2.893-1.322 5.783-1.927 8.686-.91 4.368-1.024 8.847.06 13.1 1.534 6.019 5.442 10.563 11.873 9.239 3.428-.706 4.48-1.748 4.538-5.309.035-2.197.006-4.394.006-6.592M535.323 798.143c10.075.64 18.318-9.096 18.323-17.579.005-7.568-8.267-17.951-18.408-17.951-8.74 0-17.684 7.845-17.487 18.255.163 8.645 8.866 17.272 17.572 17.275M511.83 638.929c-3.813-.117-7.21.409-10.567.97-5.67.947-11.12 2.735-16.212 5.437-3.69 1.958-4.434 5.551-1.9 8.857.797 1.04 1.663 2.172 2.762 2.811 4.248 2.471 8.202 5.663 13.469 5.865 1.2.046 2.396.367 3.58.623 6.017 1.304 12.042 1.255 18.068.112 2.055-.39 4.067-1.042 6.133-1.326 3.6-.496 6.668-2.234 9.753-3.922 1.566-.857 2.717-2.244 3.592-3.803 1.503-2.678 1.218-4.948-.84-7.265-1.642-1.848-3.654-3.116-5.934-4.078-7.13-3.009-14.65-3.916-21.904-4.281m19.31 33.706c-5.39.073-9.007.177-12.642.491-6.775.586-13.177 2.536-19.572 4.578-4.104 1.309-8.038 3.066-11.686 5.373-3.318 2.098-3.266 5.202.063 7.295.647.407 1.377.689 2.083.995 8.462 3.678 17.308 4.945 26.486 4.298 8.579-.605 17.11-1.299 25.389-3.982 3.39-1.098 6.508-2.673 9.673-4.189 1.487-.712 2.629-2.007 3.664-3.295 2.06-2.566 1.645-4.973-1.2-6.605a28 28 0 0 0-6.06-2.594c-5.87-1.729-11.838-2.569-16.198-2.365m3.636 73.843c3.706-.113 7.039-.975 10.27-1.992 5.908-1.86 10.855-4.984 14.005-10.721 1.917-3.49 1.993-6.632.252-9.988-2.721-5.245-6.578-9.13-12.331-11.215-8.9-3.224-17.53-3.584-26.188.791-3.681 1.86-6.634 4.349-8.557 7.933-1.641 3.058-2.737 6.391-1.363 9.809 2.307 5.736 6.486 9.994 11.972 12.631 3.752 1.803 8.03 2.231 11.94 2.752m225.883 318.389c0-2.309.046-4.618-.008-6.925-.248-10.66-1.13-21.309-.434-31.984.11-1.697.468-3.815-1.803-4.435-2.306-.63-3.22 1.301-4.281 2.859-1.633 2.396-2.208 5.266-3.613 7.763-3.508 6.236-6.097 12.911-9.22 19.332-2.257 4.642-4.042 9.56-6.707 13.95-6.51 10.718-12.305 21.861-19.23 32.324-3.455 5.218-6.664 10.626-11 15.219-1.542 1.636-1.88 3.054-1.088 4.424.98 1.693 2.713 2.103 4.317 1.645 3.479-.994 6.988-.569 10.489-.739 9.603-.466 19.087-1.749 28.243-4.817a129 129 0 0 0 9.558-3.654c2.737-1.165 4.426-3.129 4.266-6.375-.636-12.869.597-25.721.51-38.587m-147.714 107.731c.865 8.526 4.379 15.492 11.724 20.386 4.778 3.184 9.553 3.42 14.702 1.012a38.7 38.7 0 0 0 9.592-6.356c2.527-2.278 4.988-4.685 7.616-6.782 5.343-4.266 9.916-9.344 15.21-13.634 3.164-2.564 6.047-5.444 9.167-8.069 4.72-3.972 9.628-7.697 14.502-11.462 5.926-4.579 11.977-9.001 19.205-11.465 1.758-.599 3.395-1.572 5.047-2.45.986-.524 1.966-1.224 1.752-2.53-.212-1.289-1.346-1.657-2.444-1.896-2.511-.547-5.041-.49-7.561-.06-4.14.706-8.305 1.16-12.504 1.067-8.41-.188-16.727.702-24.978 2.171-11.55 2.056-22.665 5.644-33.335 10.451-5.094 2.295-9.947 5.113-14.56 8.386-2.764 1.962-4.893 4.453-7.061 6.844-3.604 3.974-5.61 8.889-6.074 14.387m-5.417-357.934c2.543.063 5.065-.146 7.596-.34 10.15-.778 20.13-2.509 29.87-5.445 4.735-1.427 9.505-2.901 13.816-5.404 3.62-2.102 4.315-3.828 3.04-7.663-1.662-5.008-2.616-10.202-4.507-15.163-2.768-7.261-6.184-14.124-11.351-19.938-5.674-6.384-12.61-11.105-21.02-13.005-10.575-2.389-21.24-1.899-31.842.177-4.704.921-8.964 3.091-13.232 5.083-5.756 2.687-10.333 6.826-12.35 13.08-1.45 4.499-2.608 9.099-2.863 13.866-.4 7.468.979 14.383 5.673 20.508 3.443 4.493 7.52 7.926 12.874 9.926 7.85 2.934 15.98 4.104 24.296 4.318m44.024 243.436c8.808.141 17.633-.054 26.373-1.102 10.93-1.31 21.856-2.734 32.664-4.909 3.195-.643 6.11-1.681 8.637-3.824 5.123-4.344 9.885-9.024 14.103-14.26 4.917-6.103 9.144-12.646 12.753-19.593 1.384-2.663.719-4.215-2.214-4.74-1.742-.311-3.416-.877-5.14-1.202-5.944-1.123-11.776-2.887-17.834-3.357-15.951-1.235-31.9-1.886-47.753 1.084a218 218 0 0 0-26.23 6.612c-4.542 1.45-8.753 3.601-12.986 5.698-4.34 2.149-8.651 4.424-12.456 7.447-4.064 3.23-7.757 6.832-9.963 11.684-1.954 4.299-1.474 7.815 1.799 11.204 3.018 3.126 6.462 5.61 10.744 6.822 5.004 1.417 10.045 2.483 15.28 2.443 4.074-.031 8.149-.007 12.223-.007m-36.524 82.753c2.854-.212 5.713-.297 8.562-.681 10.056-1.356 19.352-5.161 28.555-9.069 6.87-2.917 13.454-6.491 19.9-10.345 15.113-9.036 26.219-21.605 34.094-37.172 1.137-2.248 2.235-4.578 2.889-6.995.92-3.408 1.919-6.753 3.412-9.964.884-1.9 1.754-4.019.079-5.889-1.621-1.811-3.831-1.274-5.904-.927-.432.073-.851.231-1.27.369-1.366.451-2.773.664-4.2.856-12.882 1.736-25.77 3.477-38.533 5.942-13.384 2.586-26.996 4.213-39.905 8.92-4.136 1.508-8.194 3.205-11.987 5.467-4.28 2.552-8.058 5.719-11.567 9.253-5.202 5.238-9.377 11.102-11.4 18.275-1.073 3.809-2.162 7.706-1.476 11.7 1.827 10.639 9.65 18.55 20.5 19.871 2.736.333 5.486.552 8.25.389m147.558 15.959c0-2.4.016-6.03-.007-9.659-.012-1.987-.144-3.989-.8-5.867-1.214-3.486-1.513-7.069-1.574-10.719-.062-3.653-2.437-5.289-5.74-3.587-2.938 1.515-6.025 2.648-8.96 4.115-3.934 1.968-7.754 4.145-11.777 5.965-3.705 1.675-7.42 3.488-10.75 5.791-5.601 3.874-11.357 7.506-16.797 11.657-11.548 8.811-22.016 18.577-30.494 30.407-3.914 5.462-6.282 11.569-7.842 18.029-1.444 5.984-.338 11.663 2.79 16.815 4.798 7.902 12.083 12.9 20.857 15.166 9.057 2.34 18.146 2.392 27.27-1.039 8.253-3.103 14.708-8.323 20.377-14.665 7.089-7.932 12.209-17.197 16.958-26.65 1.232-2.453 2.522-4.925 3.34-7.528 2.764-8.778 4.294-17.747 3.149-28.231m.687-329.161c.218-11.111.459-22.216.127-33.334-.27-9.036-2.52-17.377-7.752-24.793-2.816-3.992-6.357-7.411-10.542-9.856-9.465-5.531-19.951-8.124-30.721-9.588-11.353-1.544-22.674-3.433-34.183-3.527-6.507-.053-12.95-1.237-19.465-1.221-1.344.003-2.75-.008-3.406 1.458-.606 1.352-.112 2.618.75 3.688 1.047 1.298 1.849 2.705 2.562 4.211 2.209 4.67 4.34 9.389 6.824 13.913 4.67 8.509 7.876 17.638 11.393 26.615 1.745 4.452 4.238 8.107 7.466 11.481 3.847 4.022 8.472 7.015 13.003 10.131 5.985 4.116 12.326 7.704 17.934 12.382 7.22 6.023 13.762 12.63 18.992 20.493 2.628 3.951 4.83 8.132 7.069 12.292 3.026 5.622 7.17 10.262 12.059 14.288 1.547 1.274 3.344 1.821 5.219.812 1.85-.996 1.983-2.794 1.674-4.616-.278-1.635-.438-3.26-.38-4.922.473-13.302.92-26.605 1.377-39.907m-151.738 66.592c5.444.287 10.673-.474 15.908-1.267 6.208-.939 12.407-2.046 18.653-2.6 15.262-1.356 30.445-3.142 45.384-6.66 8.618-2.029 16.86-5.014 24.563-9.419 2.198-1.257 4.428-2.455 6.41-4.058 1.764-1.426 2.627-3.244 2.41-5.492-.744-7.725-3.022-14.94-8.244-20.812-4.085-4.595-8.692-8.655-14.321-11.474a115 115 0 0 0-8.07-3.678c-5.62-2.291-11.196-4.576-17.335-5.046-.76-.058-1.504-.33-2.251-.521-5.24-1.339-10.571-2.245-15.938-2.772-14.13-1.39-28.163-.764-42.022 2.541-11.75 2.801-22.41 7.873-31.811 15.444-3.41 2.746-5.877 6.319-6.743 10.682-1.115 5.619-1.522 11.326-1.487 17.059.022 3.67.694 7.228 2.014 10.642 1.912 4.943 5.062 9.092 9.244 12.229 2.692 2.02 5.935 3.329 9.322 4.058 4.763 1.025 9.557 1.63 14.314 1.144m150.283 38.053h-.126c0-3.52-.117-7.044.023-10.558.36-9.035-.612-18.005-1.136-26.997-.118-2.039-1.093-3.219-3.05-3.77-2.25-.634-4.49-1.122-6.836-.63-1.3.272-2.62.421-3.943.272-12.181-1.37-24.238.286-36.2 2.039-11.65 1.708-23.235 3.923-34.904 5.559-6.543.917-13.103 1.812-19.686 2.32-10.012.774-19.953 1.759-29.701 4.372-4.477 1.199-8.161 3.766-12.055 5.986-1.7.969-3.295 2.272-4.621 3.713-2.365 2.571-5.236 4.879-6.414 8.27-1.441 4.143-2.71 8.377-2.815 12.838-.144 6.183.183 12.29 2.137 18.251 4.135 12.618 12.48 20.828 25.472 23.82 9.155 2.109 18.465 1.384 27.596-.329 8.76-1.643 17.159-4.786 25.828-6.904 8.778-2.145 17.515-4.477 26.505-5.418 11.507-1.205 23.068-1.753 34.643-1.835 4.627-.033 9.247-.266 13.88-.159 3.737.087 5.419-1.742 5.41-5.112-.022-8.576-.007-17.152-.007-25.728m-177.73-364.803c-30.097-.585-60.194-.11-90.293-.546-24.032-.349-48.071-.187-72.106-.221-3.197-.004-6.388-.015-9.585-.122-3.43-.115-5.072 1.624-5.12 5.025-.01.658.105 1.318.103 1.976-.014 5.277.509 10.535.243 15.83-.214 4.281-.31 8.568-.67 12.846-.117 1.412-.104 3.019 1.52 3.695 1.497.623 2.775-.205 3.95-1.071a4.6 4.6 0 0 0 .946-.918c2.015-2.699 5.009-3.437 8.07-4.013.972-.182 2.005-.087 2.952-.337 6.592-1.734 13.368-1.56 20.058-1.595 14.71-.078 29.18 2.452 43.647 4.81.76.124 1.51.319 2.252.529 7.526 2.13 15.315 3.123 22.82 5.376 6.325 1.898 12.753 3.444 19.114 5.222 4.98 1.392 9.836 3.261 14.809 4.591 5.872 1.571 11.597 3.468 17.254 5.627 6.99 2.669 14.205 4.712 21.085 7.713 6.345 2.768 12.992 4.877 19.233 7.847 12.615 6.002 25.13 12.229 37.22 19.258 5.614 3.263 11.276 6.451 16.807 9.849 5.063 3.11 9.954 6.496 14.966 9.691 5.382 3.432 10.746 6.908 16.015 10.491 9.273 6.305 18.28 13.007 27.29 19.687 12.64 9.373 25.18 18.88 37.775 28.315.608.456 1.286.882 1.999 1.125 2.858.973 4.847-.467 4.774-3.461-.035-1.426-.34-2.847-.342-4.27-.01-8.142.05-16.284.06-24.426.047-36.534.1-73.067.11-109.601 0-5.932.296-11.872-.454-17.798-.246-1.948-.762-3.872-.593-5.892.358-4.275-.697-5.339-4.915-5.31-5.62.04-11.238.074-16.857.075-51.38.006-102.758.003-154.137.003M408.202 1021.41h-.283c-.204 38.621-.431 77.241-.602 115.861-.097 21.896-.11 43.793-.145 65.69-.073 45.774-.136 91.548-.206 137.322-.002 1.54-.134 3.087-.03 4.619.172 2.501 1.473 3.812 3.986 3.962 1.977.118 3.954.107 5.933.35 3.719.456 7.454.771 11.212.76 42.336-.127 84.67.022 127.007.194 59.534.241 119.069.383 178.604.589 7.053.024 14.106.226 21.159.262 3.887.02 5.425-1.52 5.586-5.333.032-.767-.035-1.539-.068-2.309-.261-6.152-.562-12.303-.776-18.457-.154-4.427-1.155-5.537-5.655-5.983-13.273-1.317-26.611-1.817-39.875-3.258-7.812-.848-15.445-2.572-22.946-4.737-8.031-2.319-15.828-5.343-23.49-8.775a284 284 0 0 1-22.423-11.236 71.7 71.7 0 0 0-12.363-5.47c-8.162-2.707-14.868-7.446-21.074-13.19-3.127-2.894-6.047-5.993-9.847-8.213-5.6-3.271-10.952-6.985-15.84-11.301-9.281-8.196-16.293-17.634-18.86-30.178-1.688-8.249-5.967-15.282-13.292-20.182-2.962-1.981-5.037-4.897-5.892-8.499-.408-1.719-.991-3.372-1.818-4.943-.671-1.277-1.005-2.672-1.246-4.088-1.24-7.284-2.267-14.569-.712-21.948.272-1.287.364-2.615.496-3.928.467-4.668.057-9.128-1.986-13.517-1.996-4.29-3.24-8.946-3.596-13.669-.472-6.261-1.331-12.471-1.973-18.707-.491-4.759-.55-9.42 1.476-13.922.809-1.798 1.296-3.74 1.942-5.612 1.978-5.728 3.31-11.627 4.354-17.575a83.2 83.2 0 0 0 .425-26.297c-.493-3.453-.076-6.735 1.49-9.95 1.198-2.461 2.189-5.01 3.504-7.441 1.36-2.513 2.68-5.03 4.212-7.454 1.674-2.649 1.426-4.893-.573-6.913-1.933-1.955-3.97-3.809-5.952-5.716-4.053-3.896-7.972-7.914-10.882-12.773-2.542-4.243-4.798-8.609-6.738-13.192-2.22-5.242-3.38-10.675-4.315-16.197-1.102-6.508-1.003-13.163-2.397-19.647-1.3-6.045-2.695-11.998-6.276-17.243-2.354-3.447-4.42-7.096-6.501-10.721-1.992-3.468-3.157-7.3-3.816-11.19-1.083-6.392-1.782-12.848-2.66-19.275-1.666-12.202-5.365-23.801-10.685-34.873-5.46-11.363-10.302-22.883-10.955-35.702-.04-.768-.082-1.544-.218-2.299-.6-3.349-.568-6.845-1.91-10.021-2.362-5.593-5.237-10.937-9.062-15.677-4.85-6.012-9.052-12.476-13.286-18.903-3.627-5.506-7.12-11.113-10.664-16.674-6.334-9.938-11.966-20.271-17.886-30.44-3.37-5.788-6.341-11.816-9.297-17.831-2.031-4.133-4.504-8.054-5.823-12.548-.738-2.515-2.013-4.878-3.117-7.276-.4-.867-.827-2.029-2.068-1.763-1.138.244-1.258 1.427-1.448 2.387-.28 1.416-.208 2.853-.031 4.275.518 4.16.589 8.337.578 12.521-.14 55.677-.318 111.354-.392 167.031-.066 49.074-.014 98.149-.014 147.223M583.09 529.176c58.77-.756 117.544-.808 176.317-1.004 11.576-.038 23.153-.165 34.73-.242 3.405-.022 3.987.606 4.258 3.933 1.082 13.275 1.09 26.572 1.08 39.877-.046 62.18-.016 124.361-.058 186.541-.036 52.384-.156 104.769-.2 157.154-.05 62.51-.054 125.021-.088 187.531-.033 61.41-.068 122.82-.121 184.23-.025 29.384-.134 58.767-.092 88.151.006 4.06-.376 8.122.107 12.199.345 2.925-1.028 4.34-4.014 4.375-4.078.048-8.158-.111-12.237-.171-27.341-.403-54.684-.679-82.022-1.237-31.202-.638-62.408-.398-93.611-.733-17.86-.192-35.723-.255-53.578-.684-12.68-.305-25.358-.176-38.036-.317-35.612-.395-71.225-.741-106.837-1.123-8.597-.093-17.201.207-25.79-.429-3.295-.245-6.598-.38-9.89-.65-2.44-.2-3.162-1.174-3.163-4.067-.001-5.942.05-11.883.033-17.824-.142-48.974-.338-97.948-.432-146.921-.152-78.799-.241-157.597-.353-236.395-.051-36.208-.041-72.416-.148-108.623-.21-70.654-.477-141.307-.73-211.96q-.21-59.428-.465-118.855c-.012-2.854.28-5.704-.154-8.568-.486-3.205.466-4.169 3.789-4.168 6.723.004 13.446.049 20.169.045 34.183-.016 68.367-.05 102.55-.062 29.662-.011 59.324-.003 88.986-.003"/><path d="M1598.89 692.094c-1.432.806-2.276 2.033-2.502 3.655-.28 2.016.344 3.675 2.06 4.849 2.2 1.506 6.185 1.334 8.758-.374 1.64-1.09 2.201-2.668 1.958-4.555-.234-1.81-1.367-2.93-2.973-3.633-1.218-.532-2.488-.854-3.684-.815-1.379-.006-2.543.268-3.617.873m-20.285 68.865c.075-2.932-3.423-6.017-6.72-5.93-2.913.078-6.454 3.405-6.423 6.035.031 2.55 3.331 4.923 6.81 4.892 3.3-.03 6.265-2.37 6.333-4.997m-30.747-10.897c3.541-1.373 5.232-4.2 4.108-6.765-1.392-3.177-5.819-4.838-8.915-3.334-.393.19-.77.423-1.13.669-2.546 1.73-3.495 3.514-2.867 5.356.831 2.432 3.824 4.646 6.717 4.614.402-.101 1.281-.228 2.087-.54m-107.99 496.147c1.372-1.097 2.734-2.23 3.955-3.485 2.917-3 1.666-7.104-2.395-8.052-4.957-1.158-9.468.795-12.088 5.266-.996 1.698-1.375 3.48-.388 5.324.897 1.679 2.921 2.673 5.55 2.687 1.796-.11 3.753-.451 5.366-1.74m61.168-423.546c-2.006 2.1-2.34 4.883-.653 7.214 1.804 2.494 4.487 3.557 7.47 3.465 3.03-.094 5.508-1.47 6.96-4.258 1.681-3.23.64-6.045-2.958-8.275-1.252-.775-2.614-1.117-4.13-1.141-2.595.093-4.856 1.077-6.689 2.995m-104 439.89c-1.578 2.563-.376 5.6 2.394 6.896 2.614 1.223 5.156.904 7.527-.67 1.19-.79 2.285-1.717 3.454-2.537 2.835-1.988 3.67-3.811 2.841-6.307-.78-2.351-3.044-3.788-6.809-3.797-3.51.667-7.102 2.677-9.407 6.416m-35.997 2.303c3.917-2.448 3.641-7.061-.385-9.615-4.119-2.613-9.93-2.435-13.99.43-3.57 2.52-3.496 6.834.166 9.666 1.482 1.146 4.235 2.08 6.694 2.084 2.326-.26 5.107-1.06 7.515-2.565m235.002-626.005c2.315-2.406 1.97-7.227-.35-9.691-4.818-5.117-12.029-5.29-17.046-.406-4.678 4.555-2.892 11.486 3.611 14.012 1.356.527 2.774.673 4.231.728 3.811-.25 6.993-1.982 9.554-4.643m-148.473 57.727c-1.386.736-2.779 1.535-2.536 3.439.222 1.743 1.521 2.603 2.981 3.22 2.376 1.004 4.902 1.21 7.443 1.17 4.776-.075 9.39-1.06 13.853-2.716 2.986-1.11 5.932-2.328 8.881-3.536.703-.288 1.43-.631 1.997-1.12 1.156-.994 1.714-2.296 1.293-3.832-.4-1.456-1.563-2.183-2.939-2.27-2.187-.136-4.39-.036-6.586-.036-8.626-.275-16.765 1.635-24.387 5.68m17.442 352.349c2.038 3.448 4.932 6.112 7.908 8.706.248.216.505.43.787.596 2.263 1.313 4.648 2.352 7.117.734 2.474-1.621 2.624-4.24 2.074-6.798-.746-3.47-2.356-6.651-4.384-9.52-2.478-3.502-5.496-6.552-9.125-8.936-1.783-1.171-3.552-2.32-5.769-1.01-1.867 1.104-2.818 3.167-2.717 6.488.024 3.44 2.211 6.529 4.11 9.74m124.907-322.596c3.121-2.76 2.901-7.846-.337-10.466-2.432-1.968-5.132-3.283-8.426-3.242-4.379.055-8.384.775-11.995 3.637-3.768 2.985-4.38 7.427-.782 10.67 2.841 2.56 6.214 4.12 10.857 4.055 3.62-.275 7.476-1.817 10.683-4.654m-95.93 216.53c-2.786-3.554-7.036-4.121-10.868-1.685-6.506 4.136-8.178 14.888-3.218 20.679 4.385 5.118 9.15 4.342 13.745.26 2.242-1.991 3.785-6.456 3.807-9.671.17-3.582-1.265-6.771-3.467-9.582m-4.749-85.6c-4.916.883-7.988 3.969-9.745 8.465-.779 1.994-.25 3.859.894 5.634 3.787 5.877 10.431 6.665 15.128 5.693 4.66-.965 8.014-4.01 10.855-7.63 1.134-1.443.985-3.094.173-4.678-2.106-4.11-6.994-8.676-13.032-7.917-1.425.139-2.868.182-4.273.434m86.78-191.56c-4.48 3.149-3.548 9.044 1.527 11.822 7.624 4.17 17.94 3.288 24.843-2.128 3.725-2.922 3.43-8.02-.682-10.414-4.053-2.36-8.4-3.801-13.187-3.74-4.64.124-8.839 1.885-12.502 4.46m-88.732 242.765c3.467-3.01 3.32-7.12-.53-9.626-7.209-4.695-14.91-4.74-22.77-2.053-2.453.838-4.175 2.816-5.685 4.879-.99 1.353-1.074 2.847-.38 4.375 1.024 2.264 2.52 4.222 4.684 5.398 2.914 1.582 6.045 2.66 9.454 2.537 5.646-.278 10.847-1.707 15.227-5.51m-26.408-249.818c-7.942 5.177-14.62 11.63-19.95 19.473-1.179 1.735-2.312 3.497-3.128 5.426-.96 2.27-.566 4.335.96 5.778 1.51 1.429 3.541 1.667 5.817.353 3.912-2.257 7.506-4.883 10.798-8.074 4.493-4.353 7.988-9.334 11.173-14.624 1.094-1.818 1.94-3.723 2.403-5.762.616-2.702-.714-4.236-3.496-4.254-1.733.003-3.169.767-4.577 1.684m-127.726 75.025c2.562-1.302 5.45-1.874 7.951-3.183 8.766-4.587 17.706-8.83 26.06-14.227 6.673-4.311 12.885-9.18 19.2-13.943a20.5 20.5 0 0 0 2.22-1.968c.642-.651 1.038-1.463.707-2.4-.376-1.061-1.285-1.47-2.319-1.587-1.48-.171-2.858.244-4.107.995-6.149 3.7-12.986 6-19.238 9.51-4.219 2.369-8.412 4.763-12.52 7.32-6.36 3.959-12.56 8.15-18.714 12.417-1.182.819-2.31 1.698-3.173 2.864-.668.904-1.292 1.883-.773 3.037.588 1.305 1.846 1.415 3.258 1.46.38-.071.98-.056 1.448-.295m107.837-7.793c1.818-1.751 3.754-3.381 5.553-5.15 2.69-2.644 2.331-5.594-.835-7.66-3.847-2.507-7.877-3.24-12.199-1.301-1.714.77-3.53 1.199-5.352 1.626-5.569 1.302-10.414 4.008-14.699 7.729-2.129 1.85-4.097 4.06-3.395 7.054.755 3.22 3.721 4.394 6.543 5.428 1.146.419 2.382.358 3.631.43 7.435-1.386 14.948-2.561 20.753-8.156m-155.51 524.67c.057 3.562 1.11 4.604 4.538 5.31 6.431 1.325 10.34-3.22 11.873-9.24 1.084-4.252.97-8.731.06-13.098-.605-2.903-1.272-5.794-1.928-8.686-.88-3.891-3.08-7.258-4.43-10.973-.626-1.723-1.719-3.307-2.275-5.1-.483-1.558-1.488-2.653-2.882-3.455-2.56-1.475-3.914-.905-4.49 1.93-.333 1.646-.31 3.31.146 4.907.83 2.9.658 5.8.634 8.784-.063 7.7-1.033 15.343-1.252 23.03 0 2.198-.029 4.396.006 6.592m245.458-469.684c.197-10.411-8.748-18.256-17.488-18.256-10.14 0-18.412 10.384-18.407 17.95.005 8.484 8.248 18.22 18.323 17.58 8.706-.002 17.41-8.63 17.572-17.274m-15.984-137.66c-2.28.963-4.292 2.23-5.934 4.079-2.059 2.317-2.343 4.588-.84 7.265.875 1.559 2.026 2.946 3.592 3.803 3.085 1.688 6.151 3.427 9.752 3.922 2.067.284 4.08.937 6.134 1.327 6.026 1.143 12.051 1.192 18.068-.112 1.184-.257 2.38-.578 3.58-.624 5.267-.202 9.22-3.394 13.47-5.865 1.097-.638 1.964-1.771 2.761-2.811 2.533-3.306 1.79-6.898-1.9-8.856-5.093-2.703-10.542-4.491-16.212-5.438-3.357-.56-6.754-1.086-10.567-.97-7.254.365-14.775 1.273-21.904 4.28M1501.348 675a28 28 0 0 0-6.06 2.595c-2.845 1.633-3.26 4.04-1.2 6.605 1.035 1.288 2.177 2.584 3.663 3.296 3.166 1.516 6.284 3.09 9.674 4.189 8.278 2.683 16.81 3.377 25.39 3.982 9.177.647 18.023-.62 26.485-4.298.706-.307 1.436-.588 2.083-.996 3.33-2.093 3.381-5.197.063-7.295-3.648-2.306-7.582-4.063-11.686-5.373-6.395-2.041-12.797-3.992-19.572-4.577-3.635-.314-7.252-.42-12.642-.491-4.36-.204-10.329.635-16.198 2.364m24.501 68.726c5.487-2.636 9.666-6.895 11.972-12.631 1.375-3.417.28-6.751-1.362-9.81-1.923-3.582-4.876-6.071-8.557-7.932-8.658-4.374-17.289-4.015-26.188-.79-5.753 2.084-9.61 5.969-12.33 11.214-1.743 3.356-1.666 6.498.251 9.988 3.15 5.737 8.097 8.86 14.005 10.72 3.231 1.019 6.564 1.88 10.27 1.993 3.91-.52 8.188-.948 11.94-2.752m-237.312 359.728c-.16 3.246 1.53 5.21 4.265 6.375a129 129 0 0 0 9.56 3.654c9.155 3.068 18.64 4.35 28.242 4.817 3.501.17 7.01-.255 10.49.739 1.603.458 3.336.049 4.315-1.644.793-1.37.454-2.79-1.089-4.424-4.334-4.594-7.544-10.001-10.998-15.22-6.926-10.463-12.72-21.605-19.23-32.324-2.665-4.39-4.45-9.307-6.708-13.95-3.122-6.421-5.71-13.096-9.219-19.332-1.405-2.496-1.98-5.367-3.613-7.763-1.06-1.558-1.975-3.49-4.28-2.86-2.272.622-1.915 2.739-1.804 4.436.696 10.676-.186 21.325-.434 31.984-.054 2.307-.008 4.617-.008 6.925-.086 12.866 1.147 25.718.511 38.587m141.13 54.757c-2.168-2.391-4.297-4.882-7.062-6.843-4.612-3.273-9.465-6.092-14.559-8.386-10.67-4.807-21.786-8.395-33.336-10.452-8.25-1.468-16.568-2.358-24.977-2.171-4.199.093-8.365-.36-12.504-1.067-2.52-.43-5.05-.486-7.56.06-1.099.239-2.233.607-2.445 1.897-.214 1.305.766 2.005 1.752 2.529 1.651.879 3.29 1.852 5.047 2.45 7.228 2.465 13.28 6.886 19.205 11.465 4.874 3.765 9.782 7.49 14.502 11.462 3.12 2.626 6.003 5.505 9.167 8.069 5.294 4.29 9.866 9.369 15.21 13.634 2.628 2.098 5.09 4.504 7.616 6.782a38.6 38.6 0 0 0 9.592 6.356c5.148 2.408 9.924 2.173 14.702-1.011 7.345-4.895 10.86-11.86 11.724-20.386-.465-5.5-2.47-10.413-6.074-14.388m35.787-347.864c5.353-2.001 9.431-5.434 12.874-9.927 4.694-6.125 6.072-13.04 5.673-20.507-.255-4.767-1.414-9.367-2.865-13.867-2.015-6.254-6.592-10.393-12.348-13.08-4.268-1.992-8.528-4.162-13.232-5.083-10.603-2.076-21.267-2.566-31.843-.177-8.41 1.9-15.346 6.622-21.019 13.005-5.167 5.815-8.583 12.677-11.35 19.938-1.892 4.96-2.846 10.156-4.509 15.163-1.274 3.835-.58 5.56 3.041 7.663 4.311 2.504 9.081 3.977 13.816 5.405 9.74 2.936 19.72 4.666 29.87 5.444 2.531.194 5.053.403 7.595.34 8.316-.214 16.447-1.384 24.297-4.317m-56.097 247.76c5.234.04 10.276-1.025 15.28-2.442 4.282-1.213 7.726-3.696 10.744-6.823 3.273-3.39 3.753-6.904 1.8-11.204-2.207-4.852-5.9-8.454-9.964-11.683-3.806-3.024-8.116-5.3-12.456-7.448-4.233-2.097-8.444-4.247-12.987-5.698a218 218 0 0 0-26.23-6.612c-15.852-2.97-31.8-2.318-47.752-1.083-6.058.469-11.89 2.233-17.835 3.356-1.723.326-3.397.89-5.139 1.203-2.933.525-3.598 2.076-2.214 4.739 3.61 6.948 7.835 13.49 12.753 19.594 4.218 5.235 8.98 9.915 14.103 14.259 2.526 2.143 5.441 3.18 8.637 3.824 10.808 2.175 21.734 3.599 32.664 4.909 8.74 1.048 17.565 1.243 26.372 1.103 4.075 0 8.15-.025 12.224.006m32.551 82.357c10.851-1.32 18.674-9.232 20.501-19.871.686-3.994-.403-7.89-1.477-11.7-2.022-7.173-6.197-13.037-11.399-18.275-3.51-3.534-7.287-6.7-11.568-9.253-3.792-2.262-7.85-3.96-11.986-5.467-12.909-4.707-26.52-6.334-39.905-8.92-12.763-2.465-25.652-4.206-38.534-5.941-1.426-.192-2.833-.406-4.2-.856-.418-.138-.837-.297-1.269-.37-2.073-.347-4.283-.884-5.904.927-1.675 1.87-.805 3.989.08 5.889 1.492 3.21 2.49 6.556 3.411 9.965.653 2.417 1.751 4.746 2.89 6.995 7.874 15.566 18.98 28.135 34.093 37.17 6.446 3.855 13.03 7.429 19.9 10.347 9.202 3.908 18.5 7.713 28.554 9.068 2.85.384 5.71.47 8.563.682 2.765.162 5.515-.057 8.25-.39m-152.659 44.58c.82 2.602 2.11 5.075 3.341 7.528 4.75 9.453 9.868 18.717 16.958 26.649 5.67 6.343 12.124 11.562 20.376 14.665 9.125 3.43 18.214 3.379 27.271 1.039 8.774-2.266 16.06-7.264 20.856-15.165 3.13-5.153 4.235-10.831 2.791-16.816-1.56-6.46-3.928-12.567-7.842-18.028-8.478-11.831-18.946-21.597-30.495-30.408-5.439-4.15-11.195-7.783-16.797-11.657-3.329-2.302-7.045-4.116-10.749-5.791-4.023-1.82-7.843-3.997-11.778-5.964-2.934-1.468-6.02-2.601-8.959-4.115-3.303-1.702-5.678-.067-5.74 3.586-.062 3.65-.36 7.234-1.576 10.719-.655 1.878-.786 3.88-.798 5.867-.023 3.63-.007 7.26-.007 9.66-1.145 10.483.385 19.452 3.148 28.23m-2.459-317.485c.06 1.662-.1 3.287-.379 4.922-.309 1.822-.177 3.62 1.674 4.616 1.875 1.009 3.672.462 5.22-.812 4.887-4.026 9.032-8.666 12.058-14.288 2.238-4.16 4.441-8.34 7.07-12.292 5.23-7.863 11.77-14.47 18.991-20.492 5.608-4.678 11.948-8.267 17.934-12.383 4.531-3.116 9.156-6.108 13.003-10.13 3.228-3.375 5.721-7.03 7.466-11.482 3.517-8.977 6.722-18.106 11.393-26.615 2.483-4.524 4.615-9.243 6.824-13.912.712-1.506 1.515-2.914 2.561-4.211.862-1.07 1.357-2.337.751-3.69-.657-1.464-2.062-1.454-3.407-1.457-6.515-.015-12.957 1.169-19.464 1.222-11.509.094-22.83 1.982-34.183 3.526-10.77 1.465-21.256 4.057-30.72 9.588-4.186 2.446-7.727 5.864-10.543 9.856-5.232 7.417-7.482 15.757-7.752 24.794-.333 11.118-.09 22.222.127 33.333.456 13.303.904 26.605 1.376 39.907m164.676 25.54c3.387-.728 6.63-2.037 9.322-4.056 4.182-3.138 7.332-7.286 9.244-12.23a29.8 29.8 0 0 0 2.014-10.642c.035-5.732-.373-11.44-1.487-17.058-.866-4.363-3.335-7.937-6.743-10.683-9.4-7.57-20.062-12.642-31.81-15.444-13.86-3.305-27.893-3.931-42.023-2.541-5.367.528-10.698 1.433-15.938 2.772-.747.19-1.49.463-2.25.522-6.14.469-11.717 2.754-17.336 5.046a115 115 0 0 0-8.07 3.677c-5.63 2.819-10.236 6.879-14.32 11.474-5.223 5.872-7.5 13.087-8.245 20.812-.217 2.248.646 4.066 2.41 5.493 1.982 1.602 4.212 2.8 6.41 4.057 7.703 4.405 15.945 7.39 24.563 9.42 14.94 3.517 30.122 5.303 45.384 6.659 6.246.555 12.445 1.66 18.653 2.6 5.235.793 10.464 1.555 15.907 1.267 4.757.486 9.552-.12 14.315-1.144m-164.605 64.925c-.008 3.37 1.674 5.199 5.41 5.112 4.634-.107 9.254.127 13.881.159 11.575.082 23.136.63 34.643 1.835 8.99.942 17.727 3.273 26.505 5.418 8.668 2.119 17.068 5.26 25.828 6.905 9.131 1.712 18.441 2.438 27.596.329 12.991-2.993 21.337-11.202 25.472-23.821 1.954-5.96 2.281-12.067 2.136-18.251-.104-4.46-1.374-8.694-2.814-12.838-1.178-3.391-4.049-5.698-6.414-8.27-1.326-1.441-2.92-2.744-4.62-3.713-3.895-2.22-7.579-4.786-12.056-5.986-9.748-2.613-19.689-3.598-29.7-4.371-6.584-.51-13.144-1.404-19.687-2.321-11.669-1.636-23.254-3.851-34.904-5.56-11.962-1.752-24.02-3.408-36.2-2.037-1.324.149-2.643 0-3.943-.273-2.347-.491-4.587-.004-6.837.63-1.956.55-2.93 1.73-3.05 3.77-.523 8.993-1.495 17.962-1.135 26.997.14 3.514.022 7.038.022 10.558h-.125c0 8.576.015 17.152-.008 25.728m23.601-390.534c-5.619 0-11.238-.035-16.857-.074-4.218-.03-5.273 1.034-4.915 5.309.17 2.02-.347 3.944-.593 5.893-.75 5.926-.455 11.865-.454 17.798.01 36.533.063 73.067.11 109.6.01 8.142.07 16.284.06 24.426-.002 1.423-.307 2.845-.342 4.27-.073 2.994 1.916 4.435 4.774 3.46.713-.242 1.391-.668 2-1.123 12.593-9.435 25.133-18.943 37.774-28.315 9.01-6.681 18.017-13.383 27.29-19.688 5.27-3.582 10.633-7.06 16.015-10.491 5.012-3.195 9.903-6.581 14.966-9.691 5.531-3.398 11.193-6.585 16.806-9.85 12.09-7.027 24.606-13.254 37.221-19.257 6.241-2.97 12.888-5.08 19.233-7.847 6.88-3.001 14.094-5.043 21.085-7.712 5.657-2.16 11.381-4.056 17.254-5.627 4.973-1.331 9.828-3.2 14.81-4.592 6.36-1.777 12.788-3.324 19.112-5.222 7.506-2.253 15.295-3.246 22.821-5.376.741-.21 1.492-.405 2.252-.528 14.467-2.36 28.937-4.89 43.647-4.811 6.69.036 13.466-.138 20.058 1.596.947.249 1.98.154 2.951.336 3.062.576 6.056 1.314 8.07 4.014.26.348.596.658.947.917 1.175.867 2.452 1.695 3.95 1.07 1.624-.675 1.637-2.282 1.518-3.694-.36-4.278-.454-8.564-.668-12.846-.266-5.295.257-10.553.243-15.83-.002-.658.113-1.318.103-1.976-.048-3.4-1.69-5.14-5.12-5.025-3.197.108-6.388.118-9.585.122-24.036.034-48.075-.127-72.106.22-30.099.438-60.196-.038-90.293.548-51.379 0-102.758.002-154.137-.004m330.008 306.697c-.075-55.677-.252-111.354-.392-167.03-.01-4.185.06-8.362.578-12.522.177-1.422.25-2.86-.03-4.275-.19-.96-.31-2.142-1.449-2.386-1.24-.266-1.669.895-2.068 1.762-1.104 2.399-2.379 4.762-3.117 7.276-1.319 4.494-3.792 8.415-5.823 12.548-2.956 6.015-5.927 12.043-9.297 17.83-5.92 10.17-11.552 20.504-17.886 30.44-3.545 5.563-7.038 11.169-10.664 16.675-4.234 6.427-8.436 12.89-13.286 18.903-3.825 4.74-6.7 10.084-9.063 15.677-1.34 3.176-1.309 6.672-1.91 10.02-.135.756-.178 1.532-.217 2.3-.653 12.819-5.496 24.339-10.955 35.702-5.32 11.073-9.019 22.67-10.685 34.873-.878 6.427-1.577 12.884-2.66 19.275-.659 3.89-1.824 7.722-3.816 11.19-2.08 3.625-4.148 7.274-6.5 10.72-3.582 5.246-4.978 11.199-6.278 17.244-1.394 6.485-1.294 13.139-2.396 19.647-.935 5.523-2.096 10.955-4.315 16.197-1.94 4.583-4.197 8.949-6.738 13.193-2.91 4.858-6.829 8.876-10.882 12.773-1.983 1.906-4.019 3.76-5.952 5.715-1.999 2.02-2.247 4.264-.573 6.914 1.531 2.423 2.852 4.94 4.212 7.454 1.315 2.43 2.306 4.979 3.504 7.44 1.565 3.216 1.983 6.497 1.49 9.95a83.2 83.2 0 0 0 .425 26.298c1.044 5.947 2.376 11.846 4.354 17.574.646 1.872 1.133 3.814 1.942 5.612 2.024 4.502 1.967 9.163 1.476 13.922-.643 6.237-1.5 12.446-1.974 18.707-.356 4.723-1.599 9.379-3.596 13.669-2.042 4.39-2.453 8.849-1.985 13.517.132 1.313.224 2.64.495 3.928 1.556 7.379.528 14.665-.71 21.948-.242 1.417-.576 2.81-1.247 4.088-.827 1.57-1.41 3.224-1.818 4.943-.855 3.602-2.93 6.518-5.893 8.5-7.324 4.899-11.603 11.933-13.29 20.18-2.568 12.545-9.58 21.983-18.86 30.179-4.889 4.317-10.242 8.03-15.84 11.3-3.8 2.22-6.722 5.32-9.848 8.214-6.206 5.745-12.913 10.483-21.074 13.19a72 72 0 0 0-12.363 5.47 284 284 0 0 1-22.424 11.237c-7.66 3.43-15.458 6.456-23.49 8.774-7.5 2.166-15.134 3.89-22.945 4.738-13.264 1.44-26.602 1.94-39.875 3.257-4.5.447-5.5 1.556-5.655 5.983-.214 6.154-.515 12.305-.776 18.458-.033.769-.1 1.54-.068 2.308.161 3.813 1.7 5.353 5.585 5.333 7.054-.035 14.107-.238 21.16-.262 59.535-.206 119.07-.347 178.604-.59 42.336-.171 84.671-.32 127.007-.193 3.758.01 7.493-.303 11.212-.76 1.98-.243 3.956-.231 5.933-.35 2.513-.15 3.814-1.461 3.985-3.962.105-1.532-.027-3.078-.029-4.618-.07-45.774-.133-91.55-.206-137.323-.035-21.896-.048-43.793-.145-65.69-.17-38.62-.398-77.24-.602-115.86l-.283-.001c0-49.074.052-98.15-.014-147.223m-85.889-345.008c34.183.013 68.367.046 102.55.063 6.723.003 13.446-.042 20.17-.045 3.322-.002 4.273.963 3.788 4.167-.434 2.865-.142 5.714-.154 8.568q-.254 59.428-.466 118.855c-.252 70.653-.52 141.307-.729 211.96-.107 36.208-.097 72.415-.148 108.623-.112 78.798-.2 157.597-.353 236.395-.094 48.974-.29 97.947-.432 146.92-.017 5.942.034 11.884.033 17.825 0 2.894-.724 3.867-3.164 4.068-3.292.27-6.594.405-9.889.649-8.589.636-17.193.337-25.79.429-35.613.382-71.225.728-106.837 1.124-12.679.14-25.356.01-38.036.316-17.855.429-35.718.492-53.578.684-31.203.335-62.409.096-93.61.733-27.339.559-54.682.835-82.023 1.238-4.079.06-8.159.218-12.237.17-2.986-.035-4.36-1.45-4.014-4.374.482-4.078.101-8.14.107-12.2.042-29.383-.067-58.767-.093-88.151-.052-61.41-.087-122.82-.12-184.23-.034-62.51-.038-125.02-.089-187.531-.043-52.384-.163-104.77-.199-157.154-.043-62.18-.012-124.36-.059-186.54-.01-13.305 0-26.603 1.081-39.877.271-3.327.853-3.956 4.258-3.933 11.577.076 23.154.203 34.73.24 58.772.197 117.545.25 176.317 1.006 29.662 0 59.324-.01 88.986.002"/><path d="M845.262 1151.242c.06.654.052 1.324.195 1.96.567 2.511 2.316 3.18 4.369 1.597 5.128-3.953 8.664-12.627 11.463-18.309a123 123 0 0 0 6.488-15.875c1.547-4.698 1.977-9.84 4.303-14.243.149-.282.2-.63.24-.954.285-2.296-.94-3.542-3.285-3.257-6.486.788-13.454 4.625-19.601 6.784-2.484.873-3.92 2.535-3.82 5.133.47 12.24-1.485 25.018-.352 37.164m358.263-17.642c.274-6.48-.878-12.908-.825-19.379.018-2.297-1.242-3.922-3.435-4.736-5.756-2.136-11.5-4.304-17.28-6.37-1.726-.618-3.733-1.47-5.24.207-1.61 1.79-.544 3.818.388 5.51 1.189 2.16 1.863 4.425 2.306 6.808.342 1.836 1.01 3.58 1.58 5.354 1.307 4.07 3.033 7.98 4.47 11.985a87.8 87.8 0 0 0 10.664 20.655c1.573 2.258 3.455 3.244 5.169 2.698 1.66-.529 2.233-1.94 2.214-4.978-.04-5.918-.011-11.836-.011-17.754m-178.54-206.464c3.427.53 7.347-1.209 11.34-2.816 4.622-1.86 7.95-4.95 9.958-9.494.647-1.465.834-2.934.265-4.473-1.386-3.745-3.188-7.15-6.563-9.588-3.16-2.283-6.358-4.117-10.413-4.48-4.203-.376-8.321.085-12.483.29-7.012.342-12.325 3.513-16.303 9.138-2.672 3.778-2.842 7.37.115 10.9 5.96 7.113 13.586 10.923 24.085 10.523m65.552 240.422c-.037-.323-.04-.658-.116-.975-4.372-17.919-3.97-37.967-5.702-56.322-.158-1.679-.736-3.154-1.607-4.604-2.822-4.7-5.538-9.466-8.307-14.2-9.892-16.913-22.39-33.73-30.55-51.507a4.7 4.7 0 0 0-.73-1.092c-.808-.933-1.716-1.887-3.076-1.393-1.588.578-1.435 2.031-1.308 3.354.062.651.237 1.297.423 1.927.816 2.754 1.22 5.58 1.415 8.431 1.442 21.144 6.87 41.925 14.48 61.65 7.633 19.78 18.753 36.548 28.886 54.976.408.742 1.119 1.354 1.788 1.907.844.696 1.795 1.443 2.976.937 1.33-.57 1.369-1.858 1.428-3.089m-132.24-1.006c0 .661-.016.882.002 1.1.103 1.246.344 2.45 1.694 2.942 1.196.437 2.125-.195 2.972-.946 1.084-.962 1.876-2.132 2.505-3.437 4.089-8.478 11.165-15.409 15.019-23.984 10.885-24.222 19.844-49.916 25.106-75.983 1.54-7.63 1.325-15.638 3.326-23.142.34-1.268.519-2.595.126-3.908-.264-.885-.723-1.63-1.725-1.78-.872-.129-1.45.406-1.914 1.048-.385.533-.674 1.137-1.077 1.655-2.104 2.708-3.291 5.941-5.13 8.814a897 897 0 0 0-13.872 22.38c-5.694 9.505-11.28 19.078-16.803 28.684-1.946 3.385-4.383 6.537-4.58 10.773-.401 8.676-1.085 17.397-1.67 26.048a205 205 0 0 1-1.67 15.686c-.663 4.558-2.31 9.445-2.31 14.05m199.33 114.717c.902.042 1.34.07 1.78.083 5.939.188 10.27-3.267 11.498-9.11.935-4.449.24-8.856-1.107-12.996a162 162 0 0 0-6.981-17.743c-13.24-28.643-31.7-54.082-49.754-79.788-4.727-6.73-10.22-12.908-14.681-19.844-.473-.735-1.042-1.416-1.623-2.07-.623-.7-1.435-1.057-2.37-.778-1.077.321-1.523 1.181-1.671 2.23-.156 1.113.09 2.19.316 3.262 5.373 25.567 9.316 51.59 17.994 76.326 4.325 12.328 9.838 24.315 17.279 35.09 5.148 7.456 18.624 27.265 29.32 25.338m-268.523.241a13.8 13.8 0 0 0 4.654-1.02c9.362-3.898 17.765-14.89 23.478-22.89 15.687-21.965 23.657-48.07 28.979-74.232 1.726-8.483 3.05-17.068 3.88-25.714.25-2.603 4.766-17.587 1.962-18.686-1.333-.523-2.347.28-3.176 1.196-3.477 3.847-5.918 9.526-8.81 13.861-3.34 5.003-6.781 9.942-10.437 14.72-10.526 13.758-20.121 28.225-28.824 43.202-8.225 14.154-17.624 29.48-22.632 45.14-1.545 4.83-2.56 9.707-1.926 14.893.784 6.423 6.898 9.803 12.852 9.53m41.608-307.597c17.806-.026 35.573-1.347 53.187-4.812a9 9 0 0 0 2.18-.703c.928-.447 1.657-1.144 1.547-2.299-.094-.992-.82-1.506-1.656-1.872a12 12 0 0 0-1.238-.449c-5.213-1.64-10.42-3.156-15.377-5.65-19.49-9.808-39.096-21.064-58.4-31.85-10.223-5.713-20.481-11.366-30.88-16.754-8.794-4.556-19.436-7.423-27.646-12.826-1.581-1.04-3.277-2.139-5.167-.944-1.72 1.087-1.544 3.01-1.55 4.772q-.001.165.014.33c.67 7.01.376 14.038.339 21.058-.067 12.947.32 25.898-.251 38.842-.113 2.553 1.094 4.173 3.33 5.12.903.383 1.878.603 2.829.868 7.112 1.982 14.37 3.12 21.707 3.852 18.962 1.894 38.019 3.344 57.032 3.317m193.147.771c22.65-.316 45.635-3.222 67.515-6.632 1.954-.305 3.915-.573 5.86-.922 3.74-.67 5.513-2.886 5.385-6.65-.041-1.208-.125-2.414-.13-3.62-.052-13.728-.087-27.455-.148-41.182-.005-1.203-.048-2.428-.273-3.604-.814-4.25-1.013-8.494-.134-12.757.323-1.57.38-3.123-1.091-4.187-1.485-1.074-3.292-1.16-4.671-.18-2.93 2.084-6.322 3.01-9.551 4.35-8.37 3.48-16.986 6.624-25.087 10.71-13.192 6.658-26.173 13.984-38.733 21.771-9.7 6.013-19.498 11.833-29.586 17.178-9.23 4.89-18.7 9.22-28.455 12.937-1.54.587-3.122 1.065-4.647 1.686-1.341.547-2.756 1.213-2.488 3.016.23 1.561 1.6 1.962 2.906 2.285.637.157 1.297.24 1.95.311 2.623.287 5.264.442 7.866.852 8.466 1.334 16.928 2.677 25.462 3.53 9.222.92 18.607 1.24 28.05 1.108m-278.463 117.468c-.098 4.982 1.286 5.968 5.862 4.207 2.46-.947 4.856-2.1 7.372-2.859 19.188-5.789 36.779-16.572 54.02-26.553 18.91-10.946 37.692-23.739 52.266-40.193 6.23-7.035 9.77-15.274 11.649-24.325.653-3.146-1.287-4.806-4.23-3.495-4.436 1.976-9.186 3.073-13.608 4.924-5.121 2.143-10.503 3.193-15.76 4.522-19.372 4.896-39.127 6.913-59.132 6.78a217 217 0 0 1-32.812-2.738c-4.262-.682-6.328 1.268-5.848 5.31.259 2.183.446 4.362.457 6.568.11 22.618.154 45.236-.236 67.852m356.958-73.854c1.034-4.866-1.484-6.644-6.473-5.805-.542.091-1.086.172-1.63.262-6.942 1.151-13.93 1.864-20.96 2.246-23.107 1.255-45.83-1.608-68.351-6.585-4.174-.922-8.381-1.947-12.346-3.502-5.41-2.123-11.096-3.534-16.237-6.388-2.116-1.174-4.156.142-4.615 2.575-.277 1.464.152 2.814.68 4.165 1.357 3.468 2.742 6.9 4.556 10.186 19.533 35.395 61.048 54.026 95.633 70.998 7.799 3.827 16.074 6.561 23.73 10.681a9.4 9.4 0 0 0 2.152.817c3.225.804 4.783-.399 4.913-3.753.02-.549-.01-1.099-.011-1.648-.016-12.159-.015-24.317-.04-36.476-.024-11.589.816-23.505-.983-34.99-.134-.858-.018-1.754-.018-2.783m-210.77-63.48c7.954-.119 11.668-6.34 8.218-13.019-1.822-3.527-4.176-6.708-6.476-9.922-37.895-52.95-82.751-102.586-133.7-143.72-2.63-2.123-5.778-3.623-7.8-6.526-.998-1.434-2.343-2.953-4.357-2.189-2.037.773-1.86 2.823-1.787 4.555 1.005 24.467.16 48.983.179 73.461.005 6.04.002 12.08-.023 18.12-.01 2.24.61 4.16 2.718 5.246 35.087 18.11 72.199 33.653 106.062 54.718 6.24 3.883 12.485 7.766 18.589 11.857 5.005 3.354 10.53 5.382 16.21 7.117.828.253 1.735.245 2.167.301m64.63-.799c3.095-.296 7.199-1.609 10.997-3.565 10.909-5.615 20.697-13.292 31.43-19.268 22.799-12.695 45.439-25.844 69.437-36.19 9.41-4.058 19.104-9.084 28.99-12.516 3.897-1.352 5.439-3.517 5.483-7.616.188-17.679.404-35.358.572-53.037.075-7.903.505-15.799.083-23.712-.274-5.13-1.3-10.258-.372-15.423.058-.319.027-.66-.005-.987-.225-2.302-1.48-3.04-3.636-2.095-.595.261-1.258.578-1.645 1.065-2.005 2.524-4.808 4.125-7.11 6.257-11.961 11.082-25.39 20.46-37.528 31.357-12.693 11.394-24.747 23.477-36.632 35.704-19.397 19.954-38.453 40.68-53.666 64.292-4.338 6.731-9.085 13.202-13.743 19.723-1.71 2.393-2.861 4.931-3.056 7.865-.137 2.061.308 3.98 1.957 5.366 2.067 1.74 4.408 2.885 8.444 2.78m147.14 261.554c-.047-9.9-.101-19.842-.12-29.654-.003-1.646.002-3.353-1.108-4.72-2.313-2.85-3.586-6.276-5.242-9.475-11.177-21.59-21.154-43.555-30.511-65.983-.996-2.387-2.37-4.496-4.5-5.974-28.83-20.007-57.873-40.479-84.237-64.18-5.304-4.768-10.941-9.185-15.696-14.546-.875-.986-1.733-2.209-3.288-1.53-1.425.62-1.527 2.03-1.521 3.38.002.545.044 1.112.195 1.631 1.32 4.531 1.772 9.28 3.467 13.715 2.583 6.763 4.967 13.595 7.83 20.26 11.83 27.54 26.98 53.543 42.914 78.882 17.092 27.18 35.67 53.594 55.626 78.745 9.019 11.368 19.008 21.868 29.385 32.001.39.38.835.721 1.3 1.004 3.143 1.905 5.3.774 5.58-2.917.042-.546.015-1.098.015-1.647 0-9.515-.041-19.234-.088-28.992m-211.686-193.3c.023-2.826-1.662-3.863-3.886-2.58-.564.325-1.13.73-1.541 1.225-2.192 2.638-4.958 4.636-7.508 6.88-16.618 14.618-33.3 29.42-51.142 42.541-11.64 8.56-23.837 17.178-35.827 25.602-2.336 1.641-3.896 3.766-4.598 6.594-.957 3.857-2.675 7.474-4.567 10.91-10.764 19.533-21.333 40.202-30.025 60.742-1.28 3.026-2.567 6.122-4.387 8.828-1.765 2.624-2.453 5.307-2.453 8.348 0 17.818 1.74 36.644-.463 54.341-.156 1.256.086 2.467 1.33 3.127 1.116.59 2.147.176 3.052-.554 3.332-2.69 6.16-5.225 9.157-8.249 18.53-18.699 33.859-40.252 49.037-61.67 9.637-13.6 19.112-27.32 27.814-41.56 18.15-29.708 38.109-60.387 49.24-93.56 1.894-5.646 3.977-11.04 5.916-16.66.496-1.438.605-3.009.85-4.305m36.96 326.832v.55c27.926 0 55.852-.012 83.779.005q23.913.015 47.827.11c12.092.048 24.184.163 36.276.233 3.715.022 6.18-2.524 5.646-6.056-1.05-6.947-1.175-13.985-2.27-20.932-.464-2.953-1.613-4.729-4.556-5.688-4.798-1.564-9.5-3.435-14.202-5.279-6.854-2.686-13.623-5.595-20.52-8.16-5.742-2.137-10.871-5.202-15.631-8.997-7.875-6.277-14.52-13.692-20.4-21.824-2.38-3.293-4.847-6.532-7.05-9.94-3.751-5.809-7.334-11.72-10.841-17.687a288 288 0 0 1-11.888-22.377c-3.808-8.019-7.788-15.968-11.113-24.238-2.572-6.399-5.683-12.594-8.254-19.025-4.768-11.932-9.936-23.703-14.505-35.718-2.108-5.542-4.056-11.173-6.6-16.515-2.977-6.25-5.862-12.52-8.25-19.018-.19-.515-.374-1.038-.633-1.52-.578-1.077-1.2-2.293-2.686-1.938-1.263.302-1.456 1.515-1.57 2.637a9 9 0 0 0-.04 1.317c.403 8.8-.494 17.542-.955 26.314-.812 15.465-1.811 30.915-2.786 46.37-.44 6.96-2.93 13.224-7.107 18.466-4.838 6.07-9.025 6.19-14.192-.197-4.562-5.639-5.095-12.534-5.654-19.257-.563-6.772-.347-13.612-.415-20.422-.18-18.215-2.6-36.382-1.155-54.633.102-1.3-.07-2.633-.227-3.937a6.8 6.8 0 0 0-.65-2.199c-.805-1.606-2.146-1.792-3.466-.548-1.007.948-1.303 2.256-1.757 3.492-1.45 3.94-1.743 8.172-3.033 12.14-2.575 7.92-4.938 15.91-7.467 23.845-8.295 26.023-17.203 51.887-30.074 76.056-5.117 9.61-10.632 18.946-17.022 27.774-13.92 19.234-30.914 37.59-50.336 51.706-13.89 10.095-29.385 17.073-45.49 22.792-2.971 1.055-3.62 1.826-3.694 5.023-.028 1.205-.034 2.432.153 3.617.567 3.593.723 7.208.829 10.834.064 2.196.193 4.393.4 6.58.333 3.49 2.066 5.217 5.478 5.378 6.035.284 12.072.636 18.11.683 17.37.136 34.743.165 52.114.177 35.292.023 70.585.006 105.877.006m-4.741-784.762c-35.732.073-71.461-.046-107.177-.642-22.09-.369-44.19.215-66.281-.289-3.274-.075-4.796 1.517-4.793 4.882 0 1.645.233 3.29.232 4.935-.013 12.851-.067 25.702-.09 38.554-.044 26.364-.034 52.73-.132 79.094-.06 16.258-.22 32.516-.462 48.772-.066 4.427.807 8.262 4.502 11.1.949.73 1.693 1.722 2.559 2.564 38.163 37.098 75.11 76.067 109.807 116.823 4.414 5.184 8.809 10.39 13.066 15.7 4.255 5.308 7.929 8.795 11.526 14.61 2.359 3.815 5.085 3.846 7.462-.062 1.495-2.459 3.276-4.648 5.235-6.749 1.738-1.863 2.973-2.2 4.784-3.96 3.49-3.388 3.157-4.726 1.527-8.63-.647-1.55-3.556-9.603-5.054-13.362-23.747-59.558-57.231-120.937-108.78-161.105-4.762-3.71-9.826-7.028-14.22-11.21-3.032-2.887-5.984-5.846-8.071-9.51-1.034-1.817-.328-2.963 1.76-3.058.75-.033 1.566.045 2.263.308 2.156.814 4.389 1.532 6.379 2.663 6.287 3.576 12.63 7 18.338 11.592 21.548 17.337 39.029 40.998 54.96 63.442 21.119 29.75 39.453 61.175 52.562 95.22 3.2 8.31 7.005 16.893 9.644 25.378 1.049 3.372.885 4.81 4.4 4.856 2.646.034 4.842.217 7.463.584 3.385.475 3.487-.518 4.706-3.649.478-1.226 5.532-19.68 19.453-48.436 8.927-18.439 18.187-36.62 29.18-53.895 23.315-36.639 51.646-76.803 90.735-97.894 2.149-1.16 5.589-1.81 6.37.503.384 1.133-.223 2.346-.871 3.351-4.45 6.906-11.49 11.63-18.09 16.522-52.842 39.173-81.543 95.761-108.735 153.785-3.967 8.466-5.723 17.894-9.35 26.835-1.507 3.716-1.64 4.304 2.108 6.868 2.487 1.702 3.705 2.338 5.527 4.79 1.447 1.945 2.772 3.93 3.888 6.092 1.937 3.753 4.457 3.82 6.992.474 25.342-33.45 53.465-65.516 82.878-95.45 19.016-19.354 37.95-39.27 58.564-56.945 2.13-1.828 3.216-3.998 3.057-6.92-.196-3.613-.052-7.245-.056-10.868-.051-46.029-.14-92.058-.121-138.087.003-8.469-.43-16.905-1.061-25.338-.285-3.803-1.762-5.23-5.45-4.984-2.753.184-5.49.054-8.235.061-54.951 0-109.928.571-164.898.685m-215.54 397.574c0-82.392-.01-164.783.005-247.175.007-34.494.078-68.988.1-103.482.012-19.005.068-38.01-.071-57.013-.054-7.363.235-14.707.475-22.058.115-3.53.687-4.083 4.384-4.082 16.38.008 32.76.021 49.14.022q74.04.003 148.082.001c73.656.001 147.313.002 220.97-.007 1.316 0 2.632-.137 3.949-.184 2.638-.093 3.62.571 3.61 3.072-.032 8.567 1.43 17.021 1.349 25.628-.3 31.526-.146 63.056-.142 94.584.009 92.06.048 184.118.035 276.176-.007 48.226-.136 96.452-.142 144.678-.007 62.727.059 125.453.079 188.18.013 37.68-.003 75.36 0 113.04 0 4.72.049 9.441.053 14.162.002 3.543-.961 4.473-4.517 4.472-63.322-.016-126.644-.034-189.967-.043-66.951-.01-133.902-.036-200.853.027-6.485.006-12.97-.115-19.452-.035-4.623.056-9.15-1.15-13.805-.866-2.223.136-3.075-.929-3.177-3.309-.1-2.299.09-4.608.09-6.913-.025-117.105-.058-234.21-.087-351.314-.006-22.52-.001-45.04-.001-67.56Z"/></g></svg>