<svg xmlns="http://www.w3.org/2000/svg" xmlns:xlink="http://www.w3.org/1999/xlink" xmlns:inkscape="http://www.inkscape.org/namespaces/inkscape" version="1.1" width="2048" height="1920" viewBox="0 0 2048 1920">
<defs>
<clipPath id="clip_1">
<path transform="matrix(1,0,0,-1,0,1920)" d="M0 1920H2048V0H0Z"/>
</clipPath>
</defs>
<g inkscape:groupmode="layer" inkscape:label="Layer 1">
<g clip-path="url(#clip_1)">
<path transform="matrix(1,0,0,-1,1426.3491,622.1333)" d="M0 0C-.48-4.521-2.837-7.537-6.182-8.619-8.245-9.286-9.057-10.453-9.667-12.909-10.788-17.424-13.73-19.435-17.201-19.234-19.625-19.095-22.538-18.766-19.927-13.475-17.255-8.063-20.264-2.565-25.899-1.763-33.327-.705-39.463-5.236-46.126-9.603-43.633-12.57-41.53-14.351-38.117-12.294-35.296-10.594-32.579-11.68-31.798-15.932-31.021-20.165-32.85-22.987-35.968-24.297-39.06-25.597-41.218-24.216-42.272-20.21-43.784-14.47-48.727-11.933-53.146-14.801-55.06-16.043-56.823-17.679-58.612-19.218-60.063-20.465-61.449-21.834-63.001-23.277-60.355-25.789-58.156-27.351-54.934-25.283-52.167-23.506-49.314-24.769-48.607-28.967-47.847-33.484-50.016-36.453-53.288-37.635-56.236-38.701-58.609-37.565-59.57-33.357-61.037-26.934-65.205-25.034-69.374-29.084-78.325-37.78-85.605-48.568-92.468-59.822-104.117-78.922-113.687-99.625-121.47-121.682-123.465-127.335-125.535-132.927-128.708-137.728-132.349-143.235-136.817-146.684-142.543-147.282-149.38-147.997-152.223-144.445-151.579-135.6-151.122-129.342-149.21-123.63-147.025-118.073-132.752-81.771-110.642-54.663-84.845-31.879-82.664-29.953-80.142-28.508-79.856-24.368-79.602-20.682-78.85-17.466-82.746-15.519-85.923-13.931-85.591-9.936-83.728-6.832-81.685-3.427-78.781-1.775-75.689-4.275-72.781-6.626-73.307-10.043-75.131-13.213-75.659-14.129-76.637-14.791-76.875-15.778-77.468-18.234-77.605-21.308-76.449-23.074-75.134-25.083-73.656-22.317-72.332-21.476-68.604-19.11-64.936-16.695-64.17-10.563-63.799-7.595-63.129-5.315-65.856-3.028-68.697-.646-67.771 3.128-65.575 5.831-63.277 8.661-60.328 9.647-57.824 6.712-55.356 3.818-56.027-.039-58.542-2.167-61.813-4.936-60.899-8.784-61.903-14.42-56.351-9.553-50.452-9.516-47.578-3.203-46.232-.245-44.605 2.83-47.539 6.571-49.863 9.537-48.45 13.125-45.997 15.372-43.555 17.607-40.725 18.043-38.815 14.609-36.927 11.215-37.925 7.692-40.616 5.833-43.492 3.847-43.947 .92-43.986-3.563-38.061-.581-32.397 2.023-26.909 5.129-23.937 6.811-22.243 10.279-22.255 14.512-22.268 18.854-24.649 20.873-27.611 22.062-28.418 22.387-29.172 22.925-30.018 23.403-24.366 32.152-18.125 31.597-13.709 22.094-13.094 20.771-13.005 19.691-11.526 20.675-8.321 22.809-5.142 22.916-2.93 18.733-.489 14.118-3.131 10.593-5.125 6.976-2.941 5.113 .485 4.57 0 0M-4.964-76.09C-8.035-87.147-11.042-97.709-17.706-106.771-22.985-113.951-23.921-124.974-26.379-134.463-28.284-141.813-30.303-143.956-36.314-143.108-41.79-142.334-46.974-140.213-52.068-137.572-60.149-133.383-68.354-129.669-77.096-128.352-81.427-127.699-85.659-128.03-89.55-130.773-91.181-131.922-93.098-133.404-92.752-136.134-92.447-138.535-90.421-139.084-88.754-139.574-82.047-141.543-75.193-141.611-68.369-142.058-62.916-142.416-57.431-141.852-52.013-143.299-42.29-145.896-34.552-151.917-32.144-164.846-29.792-177.476-34.518-187.784-42.62-193.696-49.707-198.867-50.242-204.57-48.851-213.49-46.917-225.894-48.568-238.154-52.116-250.036-56.297-264.035-65.246-269.273-75.804-271.711-77.28-272.051-79.249-272.344-80.336-271.416-86.177-266.429-90.664-270.104-95.299-274.397-96.926-275.904-98.921-276.849-100.834-277.754-110.991-282.559-118.738-278.458-122.861-265.627-127.31-251.782-127.579-237.191-126.785-222.501-126.515-217.499-126.331-212.49-126.042-207.49-125.115-191.448-127.804-176.748-135.794-163.946-136.723-162.458-138.253-160.514-137.194-158.772-135.902-156.647-133.993-158.259-132.549-159.269-124.339-165.012-119.857-174.164-118.054-185.642-117.042-192.082-115.748-198.41-113.153-204.125-111.066-208.722-108.616-213.661-103.724-212.247-98.876-210.845-96.687-205.738-95.995-199.7-95.432-194.794-96.47-190.185-97.944-185.724-99.053-182.367-100.256-179.06-101.454-175.625-98.622-174.474-96.369-176.227-93.989-176.203-89.539-176.158-85.991-174.393-83.875-169.037-79.704-158.48-82.442-151.709-91.616-150.07-96.349-149.225-101.117-148.633-105.812-147.531-109.334-146.705-112.539-144.49-112.935-139.444-113.323-134.503-109.87-132.864-107.074-131.58-97.443-127.158-87.716-123.07-78.004-118.931-73.298-116.925-68.653-114.749-64.324-111.625-61.787-109.794-59.342-107.734-57.576-104.702-55.9-101.826-54.522-98.59-55.905-95.021-57.306-91.402-60.236-91.886-62.735-92.153-72.119-93.155-80.718-97.234-88.52-103.862-94.35-108.815-99.96-114.186-105.737-119.245-107.36-120.668-108.864-122.654-111.536-122.476-111.431-119.893-110.28-117.988-109.269-116.195-88.526-79.421-60.43-58.097-25.366-51.56-21.622-50.862-17.831-51.25-14.176-52.539-5.537-55.586-1.971-65.309-4.964-76.09M-154.716-273.477C-162.14-291.621-173.901-302.249-189.753-305.412-200.011-307.459-209.144-303.958-216.274-294.487-219.403-290.33-221.321-290.811-224.691-293.396-235.811-301.927-247.575-308.51-260.62-310.679-264.863-311.385-269.056-311.454-273.291-310.526-287.236-307.469-294.655-294.464-292.665-276.446-291.336-264.421-287.514-253.623-282.531-243.453-281.19-240.716-280.623-239.255-283.247-236.869-287.376-233.114-286.713-227.365-285.281-222.054-283.081-213.9-278.904-207.314-274.328-201.15-257.38-178.318-236.181-166.462-212.111-161.957-201-159.877-189.866-158.48-178.623-159.091-176.823-159.189-174.941-158.986-172.159-160.937-179.863-164.57-186.546-167.568-193.136-170.867-201.048-174.828-208.803-179.264-215.428-186.244-217.883-188.829-221.346-192.142-219.872-196.171-218.285-200.513-214.336-197.515-211.524-196.821-207.916-195.929-204.42-194.291-200.45-193.92-202.368-195.813-204.308-197.673-206.201-199.607-214.587-208.178-222.612-217.241-227.733-229.559-231.814-239.375-228.768-245.022-220.036-244.358-213.184-243.837-207.866-239.355-203.137-233.505-197.605-226.663-193.357-218.572-189.492-210.131-188.412-207.771-187.304-205.432-185.536-203.521-185.966-209.238-186.765-214.957-186.743-220.671-186.705-230.435-182.833-233.445-175.753-229.771-169.942-226.756-166.031-221.236-163.342-214.197-158.335-201.087-157.625-187.2-158.856-172.971-159.029-170.977-160.377-168.392-158.268-167.208-156.458-166.191-155.127-168.422-154.052-169.994-146.385-181.207-142.239-194.508-142.27-209.172-142.319-231.756-146.483-253.354-154.716-273.477M-185.393-381.647C-164.195-375.315-145.18-381.259-127.704-397.237-125.143-399.579-124.609-401.646-125.99-405.162-132.108-420.747-140.817-433.352-152.626-442.13-159.023-446.885-166.243-445.735-173.228-444.825-185.237-443.26-196.884-439.084-208.754-436.505-212.101-435.778-215.544-435.648-218.95-435.528-221.395-435.441-223.678-436.315-224.543-439.737-225.4-443.126-223.856-445.547-222.058-447.504-217.592-452.369-212.241-454.111-206.49-453.749-200.024-453.341-193.575-452.503-187.109-452.14-179.529-451.714-172.008-452.415-164.647-455.018-142.177-462.962-131.037-483.847-125.22-510.916-124.638-513.623-125.542-514.647-127.184-515.623-141.927-524.386-162.885-527.653-177.84-510.165-181.835-505.494-186.306-501.643-191.723-499.955-193.399-499.432-195.067-499.232-196.28-500.871-197.754-502.864-197.058-505.175-196.184-507.254-192.426-516.192-186.507-522.549-180.32-528.529-171.722-536.841-162.335-543.793-154.283-553.049-147.303-561.073-142.046-570.355-140.399-582.539-139.487-589.28-140.266-595.779-141.189-602.342-141.736-606.229-143.295-607.539-146.46-607.03-155.032-605.65-161.504-599.923-166.905-591.796-170.543-586.321-173.049-579.965-175.415-573.507-177.32-568.305-179.333-563.166-182.446-558.912-183.59-557.348-185.001-556.048-186.736-556.957-188.531-557.897-188.574-560.141-188.49-562.26-188.322-566.499-186.808-570.189-185.484-573.945-182.024-583.763-177.778-593.124-175.185-603.447-170.318-622.826-172.996-633.65-186.101-644.83-199.201-656.007-213.561-663.875-228.638-669.566-235.188-672.038-236.136-671.136-235.92-662.033-235.697-652.644-234.996-643.265-234.3-633.907-233.788-627.029-233.263-620.094-234.007-613.296-235.309-601.403-232.571-591.145-227.5-581.482-224.001-574.815-223.039-568.817-219.879-561.89-216.846-555.238-215.133-548.919-215.794-541.124-216.187-536.486-217.697-532.481-221.788-531.863-225.791-531.258-226.613-535.346-227.772-539.099-229.35-544.203-231.075-549.284-233.161-554.073-238.517-566.369-244.36-570.938-255.466-570.792-263.563-570.686-271.66-570.493-279.757-570.462-281.369-570.456-282.629-570.179-283.031-567.945-284.796-558.134-287.374-548.458-286.425-538.16-285.51-528.219-281.389-521.32-274.27-517.027-266.119-512.113-263.205-511.721-254.877-507.429-243.195-501.408-236.661-494.533-239.249-478.955-240.075-473.982-241.253-468.567-246.01-467.785-250.635-467.024-253.131-471.373-254.978-476.06-255.94-478.502-256.824-481.104-257.252-483.762-263.882-500.1-272.238-507.407-287.624-510.06-295.985-511.502-300.932-513.073-309.356-513.938-310.959-514.103-312.959-513.916-314.063-515.034-318.73-519.764-319.788-515.28-321.251-511.028-323.502-504.49-325.294-497.782-326.279-490.749-328.234-476.796-325.55-466.607-314.99-461.189-305.027-456.077-295.492-453.676-284.04-450.806-278.585-449.438-272.965-448.462-269.233-442.145-265.849-436.417-266.13-431.755-270.247-427.881-275.054-423.358-279.181-423.903-282.443-429.49-293.843-449.01-308.086-449.463-325.213-445.764-334.027-441.955-342.52-436.935-351.14-432.409-351.733-432.098-352.277-431.421-352.674-430.751-357.842-422.031-359.141-404.889-355.23-397.431-350.521-388.451-337.781-383.297-328.446-386.943-324.859-388.344-321.475-390.589-317.997-392.444-316.008-393.504-314.063-394.75-312.012-395.554-309.759-396.437-307.6-395.82-306.421-392.984-305.363-390.436-306.688-388.642-308.185-387.174-309.625-385.761-311.453-384.459-309.93-381.71-308.652-379.405-306.658-378.852-304.614-379.658-303.263-380.189-301.905-381.025-300.768-382.079-297.268-385.32-293.838-388.631-290.474-392.009-288.125-394.369-287.89-398.105-289.938-400.731-291.65-402.927-293.058-404.784-293.497-405.124-300.547-410.584-307.919-413.253-315.301-410.814-318.692-410.888-322.017-410.003-322.785-414.39-323.565-418.849-321.389-422.335-318.417-424.458-308.923-431.239-296.477-422.735-288.007-412.4-287.58-411.88-286.835-410.741-285.978-409.255-283.724-405.346-278.283-404.852-275.317-408.254-268.592-415.966-262.217-424.023-256.232-432.46-254.8-434.479-254.655-437.14-255.816-439.326-260.179-447.541-265.782-456.227-269.957-458.316-273.788-460.234-277.758-461.87-281.04-465.216-285.257-469.516-286.759-476.423-284.545-481.001-282.33-485.582-277.985-486.301-272.477-482.998-266.525-479.429-257.98-468.534-252.793-456.785-250.612-451.843-243.751-451.459-241.065-456.145-236.746-463.68-232.719-471.495-229.009-479.612-226.18-485.799-226.54-492.961-229.922-498.864-235.402-508.427-242.058-517.953-246.064-520.873-249.477-523.36-253.063-525.639-255.431-529.853-257.398-533.355-258.874-537.282-255.994-540.985-253.387-544.337-249.887-544.423-247.125-541.71-239.97-537.812-232.858-526.802-227.504-515.182-224.971-509.685-217.009-510.172-215.23-515.957-210.604-530.995-206.949-546.952-204.39-563.932-201.617-582.329-197.328-601.48-201.946-619.902-196.682-613.69-195.559-605.38-194.874-596.97-193.369-578.483-195.559-560.362-198.527-542.341-198.823-540.549-199.184-538.762-199.345-536.948-199.643-533.589-198.337-532.751-196.125-534.111-193.49-535.73-191.484-538.39-189.493-541.067-184.664-547.556-179.872-554.097-174.887-560.387-172.993-562.777-170.686-564.689-168.419-566.521-167.122-567.571-165.43-568.921-164.013-566.911-162.667-565-163.672-563.017-164.556-561.271-166.92-556.6-168.398-551.716-171.539-547.932-180.825-536.743-191.714-526.514-200.475-514.57-204.417-509.196-207.568-505.462-210.688-499.251-212.736-495.173-214.262-489.784-215.113-485.043-217.064-474.185-214.776-470.04-206.501-473.522-197.871-477.154-190.396-483.667-182.941-490.066-175.418-496.523-167.453-501.667-158.74-504.876-157.113-505.475-155.029-507.312-153.856-504.896-152.811-502.743-154.555-500.61-155.637-498.852-164.396-484.625-174.991-474.653-189.776-472.928-210.263-470.537-227.022-458.477-240.685-439.1-242.497-436.531-244.711-434.028-243.521-430.122-242.311-426.15-239.304-425.293-236.431-424.896-228.589-423.812-221.052-426.076-213.584-428.778-199.508-433.872-185.441-432.368-171.417-428.514-169.243-427.917-166.219-427.372-165.844-423.975-165.432-420.246-168.295-418.555-170.459-417.122-183.005-408.816-196.239-407.664-209.802-411.821-223.237-415.939-236.666-418.271-250.334-413.726-257.669-411.287-264.018-406.702-269.032-399.457-274.043-392.215-272.775-386.312-265.529-383.577-259.162-381.174-252.548-379.85-246.401-376.462-239.247-372.519-232.437-367.871-227.285-360.171-225.567-357.603-223.492-354.64-224.876-350.962-226.265-347.272-229.306-348.498-231.657-348.741-245.007-350.125-256.112-357.414-264.986-370.161-267.991-374.477-271.012-378.732-275.181-381.231-277.385-382.552-279.604-384.33-282.396-382.762-282.138-382.093-282.027-381.183-281.688-381.013-274.137-377.221-272.666-369.558-273.213-360.293-274.311-341.708-265.284-328.082-250.828-325.396-238.845-323.168-227.156-326.21-215.362-327.595-214.109-327.742-212.867-328.044-211.613-328.188-200.76-329.436-200.47-329.396-199.467-343.229-198.731-353.381-198.062-363.347-203.088-373.013-208.856-384.105-216.981-387.672-226.36-388.816-233.53-389.69-240.743-389.424-247.91-388.214-252.034-387.518-255.841-388.279-256.575-394.474-257.324-400.793-253.531-402.877-249.624-403.706-242.084-405.303-234.737-404.983-227.42-401.034-213.696-393.628-200.014-386.015-185.393-381.647M-372.337-369.559C-376.859-367.245-381.228-364.56-384.653-359.937-387.823-355.657-387.409-351.697-383.816-348.321-380.229-344.951-375.999-343.905-371.652-343.349-357.891-341.585-344.421-345.408-330.823-346.742-330.644-346.76-330.465-346.832-330.288-346.826-326.904-346.715-321.675-349.484-320.809-344.744-320.093-340.824-325.506-338.692-328.731-336.972-335.12-333.565-341.948-332.5-348.811-332.706-361.574-333.086-374.329-333.966-387.092-334.321-390.716-334.421-396.515-335.951-397.286-331.458-398.132-326.533-392.105-326.781-389.091-325.059-374.744-316.859-361.039-307.419-349.253-293.941-342.595-286.327-337.229-277.519-334.326-266.588-333.845-264.778-332.713-262.469-334.337-260.848-335.883-259.304-337.401-260.942-338.747-261.976-345.22-266.945-349.743-274.385-354.146-281.958-362.745-296.745-373.01-309.001-386.374-316.562-387.849-317.397-389.35-318.163-390.854-318.91-391.295-319.129-391.79-319.173-392.474-319.354-392.057-316.2-390.194-314.543-389.062-312.354-384.864-304.235-383.312-295.997-388.194-287.484-390.458-283.535-388.92-280.656-387.011-277.709-374.423-258.284-358.149-247.224-338.815-242.96-332.804-241.634-326.741-240.334-320.92-238.1-317.371-236.737-315.902-238.099-314.808-241.895-312.761-248.995-313.674-255.99-315.586-262.758-321.25-282.81-330.731-299.574-343.14-313.727-344.304-315.055-345.529-316.295-347.358-318.252-339.398-319.583-332.161-320.681-325.345-324.134-314.237-329.763-304.598-337.737-298.271-351.176-296.208-355.56-296.219-357.831-301.031-358.09-309.12-358.526-316.086-363.883-323.463-367.405-339.567-375.093-355.805-378.018-372.337-369.559M-296.365-145.071C-294.275-139.624-290.966-135.256-287.67-131.255-276.741-117.988-266.965-103.326-256.194-89.886-245.979-77.138-234.482-67.062-221.05-60.396-213.429-56.614-206.533-57.787-199.568-62.176-193.436-66.04-188.62-71.872-184.591-78.787-178.199-89.76-174.116-102.081-171.82-115.391-171.588-116.734-171.522-118.131-171.456-119.51-171.432-119.993-171.641-120.494-171.757-121.052-173.367-120.415-173.377-118.561-173.79-117.205-178.827-100.65-189.059-92.854-202.124-90.154-208.19-88.9-210.506-92.848-208.563-100.288-206.674-107.519-206.974-108.118-212.807-108.125-218.395-108.131-223.99-107.834-229.471-109.709-231.919-110.547-234.196-111.792-235.889-114.247-237.928-117.202-239.159-120.672-238.212-124.618-237.282-128.493-234.481-129.065-231.814-129.416-224.505-130.377-217.25-128.623-209.953-128.592-202.946-128.562-195.958-128.491-189.211-131.353-185.853-132.777-182.544-134.398-179.941-137.667-180.77-139.77-182.172-139.286-183.275-139.269-206.856-138.892-228.981-146.843-250.563-158.113-257.881-161.934-265.27-165.65-273.073-167.571-280.093-169.299-287.018-169.402-293.094-163.406-298.188-158.378-299.198-152.452-296.365-145.071M-180.458-21.151C-163.541-.385-143.46 12.891-120.089 17.042-110.229 18.793-106.562 14.516-104.568 1.978-103.376-5.517-104.363-12.711-106.273-19.665-112.555-42.533-123.671-61.227-137.584-77.398-138.738-78.74-139.978-80.123-142.039-80.414-142.742-77.052-141.162-74.98-140.182-72.797-133.765-58.512-132.333-43.275-134.612-27.283-134.726-26.484-134.868-25.679-135.089-24.922-136.232-21.011-136.498-15.645-140.561-15.179-144.705-14.703-148.294-17.438-150.697-22.008-152.996-26.38-153.774-31.342-153.873-36.529-154.085-47.577-152.679-58.492-152.254-69.482-151.97-76.819-150.793-84.316-153.399-92.337-155.174-90.068-155.396-87.917-155.792-85.859-157.593-76.5-160.317-67.627-164.203-59.328-167.358-52.591-170.968-46.466-176.485-42.555-177.456-41.867-178.335-40.947-179.209-40.059-186.017-33.144-186.672-28.779-180.458-21.151M-407.105-331.355C-407.782-335.592-412.657-334.384-415.697-334.31-429.359-333.978-443.014-332.946-456.675-332.763-465.17-332.65-473.575-334.175-480.909-340.446-482.318-341.652-484.713-342.784-483.996-345.361-483.355-347.661-480.9-347.38-479.189-347.19-467.553-345.903-455.938-344.296-444.296-343.119-437.829-342.465-431.315-342.67-425.086-345.412-421.823-346.848-418.362-348.831-417.841-353.721-417.342-358.408-420.359-361.183-423.05-363.408-437.889-375.681-453.935-377.066-470.698-371.646-476.117-369.894-481.324-367.429-486.436-364.592-492.385-361.291-498.399-358.152-504.979-357.801-508.051-357.638-508.158-356.117-507.03-353.144-504.629-346.818-501.087-341.69-496.916-337.235-486.651-326.273-474.639-320.783-461.466-318.936-460.308-318.773-458.986-319.364-457.622-317.608-468.105-307.771-475.701-294.853-482.339-280.93-486-273.25-489.043-265.198-490.243-256.257-490.664-253.127-490.871-249.839-490.619-246.697-489.942-238.239-488.081-236.972-481.654-238.883-474.663-240.962-467.542-242.332-460.534-244.328-443.492-249.183-429.232-260.002-417.88-277.028-415.247-280.976-414.403-284.396-417.077-289.166-420.867-295.928-419.726-303.115-416.609-309.868-415.185-312.953-413.481-315.828-411.282-319.972-425.104-313.786-435.769-304.221-444.518-291.125-447.897-286.066-451.021-280.729-454.252-275.51-457.623-270.067-461.452-265.262-466.149-261.689-467.363-260.766-468.745-259.505-470.125-260.734-471.641-262.083-470.789-264.131-470.375-265.794-468.616-272.867-465.855-279.272-462.045-284.89-448.988-304.143-431.947-315.746-414.022-325.736-411.457-327.166-406.4-326.94-407.105-331.355M-451.871-430.65C-453.029-433.847-456.216-433.217-458.395-434.565-468.737-440.959-479.039-448.059-490.827-448.679-504.558-449.401-516.942-445.805-524.523-428.805-527.414-422.321-531.933-421.821-536.934-426.467-541.213-430.444-541.443-435.4-537.695-441.242-535.032-445.392-531.435-447.155-527.478-448.281-518.01-450.975-508.338-452.437-499.051-456.229-478.717-464.535-473.75-477.01-480.7-502.639-481.052-503.938-481.421-505.231-481.818-506.51-484.794-516.097-484.751-515.632-492.438-514.414-501.351-513-510.387-512.867-519.312-511.537-535.408-509.14-547.122-499.806-550.618-477.98-551.334-473.504-552.83-469.209-555.433-465.829-559.507-460.539-564.16-461.397-566.901-467.867-572.577-481.263-568.383-497.468-557.373-503.433-549.937-507.462-542.2-510.578-534.717-514.475-520.161-522.055-515.934-531.952-518.704-551.785-519.521-557.633-519.606-564.606-522.238-568.816-524.924-573.114-530.622-569.816-534.98-570.363-539.8-570.969-544.688-570.771-549.547-570.769-559.955-570.766-567.832-565.003-573.252-553.67-575.985-547.958-578.074-541.891-579.699-535.55-580.486-532.48-581.809-530.095-584.588-530.141-587.393-530.187-589.252-532.179-590.332-535.443-591.803-539.889-591.456-544.447-590.777-548.976-589.678-556.317-586.988-562.787-583.759-568.928-581.055-574.072-578.257-579.139-575.645-584.358-572.504-590.635-569.764-597.521-570.298-604.96-571.573-622.738-569.434-640.228-568.56-657.828-568.514-658.743-568.528-659.664-568.528-660.582-568.524-671.467-569.167-672.18-577.374-668.966-592.582-663.012-607.091-655.022-620.132-643.27-631.069-633.415-633.654-623.409-630.147-606.802-627.885-596.09-623.651-586.451-619.974-576.506-618.293-571.961-616.348-567.501-616.042-562.333-615.917-560.219-615.972-557.956-617.734-556.979-619.45-556.026-620.879-557.305-622.034-558.871-625.545-563.63-627.671-569.483-629.793-575.304-632.856-583.704-636.529-591.532-642.096-597.663-646.396-602.396-651.252-605.539-656.933-606.859-660.963-607.796-662.744-606.242-663.597-601.075-666.38-584.207-663.044-569.757-653.758-557.411-646.977-548.393-638.805-541.64-630.812-534.597-623.692-528.323-616.622-521.914-611.321-513.033-609.256-509.573-605.429-505.393-608.373-501.091-611.162-497.017-615.094-500.812-618.262-502.675-622.383-505.099-625.687-509.095-629.186-512.697-643.668-527.606-664.142-523.722-677.794-515.377-679.702-514.211-679.517-512.618-679.142-510.312-673.557-476.033-652.844-453.494-625.539-452.226-618.34-451.892-611.157-452.094-603.985-453.277-597.301-454.38-590.626-454.417-584.646-449.569-581.901-447.344-578.926-444.724-580.037-439.79-581.131-434.931-584.698-435.308-587.711-435.458-599.469-436.046-610.653-440.958-622.205-443.136-625.763-443.807-629.321-444.479-632.882-445.116-644.133-447.132-653.777-443.248-661.958-432.949-668.539-424.664-674.505-415.922-678.531-405.18-679.854-401.65-679.378-399.609-676.817-397.246-658.126-380.004-637.796-374.924-615.459-382.762-602.409-387.341-589.978-394-577.598-400.764-570.318-404.742-563.015-405.303-555.424-403.865-550.112-402.859-547.125-399.269-547.906-394.473-548.977-387.906-552.859-387.58-557.144-388.304-563.407-389.361-569.705-389.244-576.009-389.059-595.038-388.502-607.523-373.274-605.488-347.321-604.152-330.292-604.388-329.848-591.291-328.039-579.159-326.364-567.121-323.2-554.768-325.27-539.074-327.899-530.241-340.985-531.392-360.982-531.953-370.708-529.595-378.055-522.097-382.463-528.794-383.359-533.418-378.89-537.349-373.199-542.03-366.419-547.031-360.237-553.372-356.053-560.162-351.573-567.277-348.488-575.027-348.606-580.116-348.684-581.422-351.71-578.821-357.389-576.492-362.475-572.874-365.958-569.095-369.112-561.166-375.731-552.399-379.629-543.178-382.22-539.106-383.365-534.136-385.209-532.809-390.22-531.747-396.783-535.941-400.598-539.405-404.179-550.356-415.5-563.116-415.945-576.511-414.826-584.809-414.133-592.884-411.669-601.074-410.284-612.569-408.338-623.706-410.059-634.068-417.123-636.22-418.59-639.092-420.231-638.677-423.976-638.298-427.388-635.275-427.919-633.106-428.516-619.082-432.373-605.014-433.873-590.937-428.781-583.996-426.271-577.299-425.486-570.007-426.06-566.563-426.331-562.555-425.409-561.032-430.147-559.586-434.646-562.592-437.28-564.58-440.118-579.242-461.045-597.79-466.737-619.539-472.187-633.118-474.083-641.976-487.551-649.82-500.553-650.588-501.827-651.511-503.488-650.801-504.936-649.857-506.862-648.2-505.866-646.879-505.351-639.638-502.532-632.636-499.045-626.202-493.815-618.171-487.289-610.445-480.063-601.605-475.311-597.5-473.104-592.804-469.761-589-474.542-584.964-479.618-588.011-486.08-590.433-491.677-595.879-504.265-600.553-512.892-607.74-522.611-615.269-532.792-624.521-541.364-632.782-550.924-635.425-553.982-637.64-557.667-639.91-561.211-640.928-562.802-641.844-564.903-640.563-566.842-639.191-568.918-637.546-567.513-636.156-566.594-631.938-563.806-628.629-559.533-625.363-555.272-620.835-549.367-616.54-543.17-611.963-537.331-610.376-535.306-608.233-532.265-605.956-534.008-605.182-534.599-604.859-535.613-605.019-536.573-608.827-559.435-612.331-582.332-608.51-605.686-607.636-611.033-606.35-616.28-602.041-621.334-603.235-613.568-603.578-607.39-603.964-600.954-605.425-576.645-601.074-553.463-595.411-530.613-593.771-524.722-591.983-518.953-590.054-513.304-588.092-507.555-580.097-507.265-577.753-512.869-571.908-526.842-563.216-541.402-556.56-544.187-553.873-545.201-550.252-543.657-548.245-540.679-546.121-537.526-545.567-533.142-546.966-530.06-548.732-526.169-551.641-523.831-554.583-521.62-564.044-512.872-570.324-506.067-574.607-499.694-578.74-493.543-579.201-485.618-575.986-478.942-572.161-471-568.042-463.325-563.654-455.905-561.112-451.607-554.883-451.604-552.344-455.904-549.402-460.885-545.046-467.476-538.73-476.613-532.73-485.294-523.176-486.783-520.022-481.012-517.703-476.767-519.118-469.987-523.032-465.678-526.369-462.004-530.945-461.008-534.531-458.333-543.909-451.339-548.176-446.767-550.672-443.037-552.169-440.801-552.145-437.864-550.6-435.66-544.039-426.3-537.034-417.387-529.65-408.895-526.937-405.774-522.038-405.946-519.502-409.212-518.598-410.376-517.767-411.416-517.156-412.272-510.871-421.075-504.461-426.405-495.616-426.976-492.518-426.638-489.227-426.477-486.318-424.577-483.248-422.572-481.046-419.054-481.683-414.671-482.383-409.849-486.02-410.384-488.755-410.976-496.69-412.693-503.268-410.908-510.135-405.379-510.597-405.007-512.156-402.686-514.096-400.063-516.035-397.443-515.735-393.798-513.435-391.489-510.133-388.176-506.775-384.932-503.359-381.76-501.683-380.366-499.958-379.126-497.851-379.412-496.341-379.617-495.042-380.433-494.345-382.202-493.499-384.347-494.603-385.545-495.839-386.712-497.622-388.396-499.519-390.335-497.854-393.474-496.309-396.385-493.883-396.44-491.547-395.188-488.068-393.324-484.674-391.203-481.222-389.254-477.069-386.909-472.747-385.052-468.169-385.741-460.101-386.954-452.245-389.546-448.363-399.817-444.221-410.781-448.323-420.853-451.871-430.65M-639.67-290.954C-651.028-277.212-656.004-259.204-659.39-240.415-662.454-223.417-664.752-206.277-659.492-189.155-657.365-182.232-654.89-175.592-650.876-170.107-649.66-168.445-648.312-165.801-646.263-167.141-644.335-168.401-645.706-171.017-645.872-173.042-647.04-187.31-646.329-201.238-641.254-214.36-638.355-221.856-634.061-227.547-627.77-230.339-621.808-232.984-618.572-230.328-617.895-222.336-617.36-216.017-618.872-209.877-619.19-203.129-617.028-204.549-616.503-207.127-615.558-209.171-611.391-218.176-606.949-226.925-600.923-234.12-595.274-240.864-588.917-245.643-580.737-244.096-575.745-243.152-574.044-239.658-575.499-233.518-576.911-227.56-579.765-222.65-582.968-218.137-586.161-213.638-589.506-209.28-593.035-205.211-596.541-201.168-600.356-197.562-604.036-193.765-603.877-193.526-603.719-193.286-603.56-193.047-598.817-194.63-594.09-196.302-589.321-197.745-587.696-198.238-585.753-198.631-584.627-196.475-583.457-194.234-584.829-192.318-585.762-190.621-588.371-185.876-592.155-182.861-595.995-180.042-605.627-172.97-616.02-168.167-626.493-163.609-628.208-162.863-630.207-162.768-631.486-160.652-630.292-158.352-628.401-159.031-626.825-158.963-606.74-158.093-587.023-161.113-568.003-169.496-550.703-177.121-536.368-190.407-524.961-208.706-522.193-213.145-519.799-217.962-518.671-223.493-517.653-228.478-517.338-233.814-521.254-237.041-523.807-239.146-523.181-240.648-521.975-243.146-517.31-252.802-513.5-262.904-512.007-274.262-509.114-296.282-518.23-310.75-535.85-311.391-549.527-311.89-562.141-306.33-573.696-297.738-580.665-292.555-585.157-290.605-592.521-298.668-604.591-311.882-626.212-307.236-639.67-290.954M-678.259-249.8C-679.179-256.494-680.259-263.097-682.883-269.083-686.926-278.307-693.073-281.542-701.065-278.879-705.949-277.252-710.264-274.188-714.257-270.375-716.009-268.702-717.323-268.035-719.691-269.456-729.244-275.187-744.874-268.237-750.073-256.142-756.898-240.263-757.777-223.299-754.814-205.952-754.092-201.726-754.678-199.599-757.664-197.731-761.368-195.413-764.519-191.981-767.24-187.989-776.563-174.313-774.16-156.46-761.784-147.48-756.43-143.596-750.569-142.396-744.507-142.239-735.273-142-726.017-142.065-716.896-139.818-714.781-139.297-711.902-139.168-711.781-135.651-711.674-132.548-714.134-131.075-716.192-129.944-722.034-126.729-727.973-128.125-733.844-129.733-740.379-131.524-746.639-134.482-752.805-137.735-757.89-140.417-763.112-142.457-768.603-143.134-774.292-143.835-776.286-141.558-778.15-134.616-781.664-121.531-784.412-108.296-792.463-97.527-798.176-89.887-799.697-78.401-800.378-67.819-800.941-59.085-795.792-53.214-788.029-51.789-780.443-50.397-772.996-51.66-765.7-54.321-739.901-63.73-717.723-80.528-700.344-106.939-697.381-111.441-694.713-116.254-692.372-123.176-698.283-120.616-702.144-116.332-706.159-112.519-715.133-103.996-724.358-96.236-735.546-93.192-738.414-92.412-741.278-91.799-744.189-92.08-748.608-92.507-750.147-95.735-748.516-101.077-746.774-106.782-742.928-109.755-738.957-112.39-730.105-118.265-720.421-121.254-711.029-125.259-705.848-127.469-700.525-129.221-695.676-132.547-693.566-133.995-691.251-135.527-691.462-139.24-691.67-142.898-693.675-145.005-696.101-146.455-700.721-149.217-705.801-148.862-710.687-149.721-719.913-151.344-723.074-154.517-722.346-162.017-721.284-172.956-716.182-177.501-707.083-175.642-705.931-175.407-704.762-175.307-702.992-175.059-704.58-179.977-706.101-184.248-707.344-188.647-709.091-194.823-709.485-201.016-706.443-206.839-702.577-214.235-697.342-214.606-693.081-207.589-689.211-201.217-687.664-193.578-686.456-185.838-684.698-174.578-680.367-165.537-672.489-159.644-670.954-158.495-668.895-156.49-667.376-158.674-666.009-160.639-667.888-162.705-668.879-164.321-676.417-176.623-679.052-190.632-678.508-206.038-677.994-220.609-676.251-235.181-678.259-249.8M-804.527-.021C-804.986 4.559-801.597 5.108-799.425 6.946-800.257 8.546-801.133 9.98-801.797 11.56-802.917 14.22-802.802 16.926-801.323 19.307-799.852 21.675-797.611 22.946-795.56 21.729-792.18 19.724-791.126 21.484-789.571 25.109-787.149 30.755-778.379 31.889-774.558 23.395-777.875 21.215-782.71 20.544-782.248 13.837-781.777 7.012-777.568 4.609-773.198 2.585-769.161 .715-765.158-1.276-760.702-3.424-760.435 .77-760.867 3.695-763.895 5.814-766.586 7.698-767.59 11.196-765.712 14.594-763.81 18.037-760.979 17.606-758.535 15.375-756.081 13.134-755.141 10.147-756.857 6.428-759.142 1.479-758.035-4.414-754.096-7.102-750.801-9.351-747.306-11.125-743.423-13.387-743.073-8.504-743.062-4.794-746.354-1.718-748.599 .381-748.999 4.107-746.717 6.701-744.173 9.593-741.273 8.65-738.955 5.845-736.945 3.414-736.195 .487-738.19-2.696-741.748-8.373-740.863-14.74-735.95-18.742-734.89-19.605-733.835-20.546-732.679-21.134-731.129-21.922-729.324-25.238-728.146-23.066-726.923-20.807-726.394-17.064-728.619-14.216-731.081-11.065-732.097-7.527-728.865-4.252-726.399-1.755-721.632-3.843-720.17-7.907-719.202-10.601-719.207-13.229-721.234-15.355-726.434-20.808-726.234-26.124-720.582-31.062-708.226-41.854-696.611-53.776-686.145-67.472-674.256-83.029-664.166-100.224-656.821-119.908-654.647-125.733-652.75-131.699-652.894-138.314-653.025-144.381-655.312-147.551-660.334-147.399-666.926-147.201-672.06-143.649-676.147-137.23-679.712-131.63-681.795-125.016-684.161-118.584-695.09-88.872-708.774-61.529-727.015-38.167-729.798-34.603-732.82-31.267-736.011-28.314-739.329-25.243-744.051-27.653-744.873-32.647-745.646-37.345-747.983-38.733-751.21-37.634-754.494-36.515-756.705-33.487-755.911-28.996-755.093-24.367-752.003-23.559-749.088-25.473-745.966-27.524-744.048-25.347-741.241-23.17-746.915-19.381-750.76-11.666-758.144-14.437-760.142-15.187-762.106-15.549-762.293-19.487-762.508-24.017-765.137-25.645-768.527-24.294-771.657-23.048-773.545-20.176-772.714-15.966-771.806-11.363-768.987-10.609-765.93-12.563-762.867-14.521-760.995-12.01-757.921-10.064-764.531-5.393-770.42-1.264-777.52-1.647-784.338-2.017-786.832-6.835-783.996-14.588-782.875-17.653-784.062-18.416-785.724-18.892-789.707-20.033-792.996-18.413-794.588-13.526-795.486-10.77-796.384-9.22-798.831-8.393-801.908-7.354-804.1-4.279-804.527-.021M-697.306 9.881C-696.17 13.068-694.432 14.857-691.724 15.666-686.145 17.334-680.727 16.237-675.368 14.47-657.687 8.643-641.789-1.766-627.984-16.974-617.516-28.506-617.844-33.31-629.168-43.065-639.811-52.235-644.152-66.36-648.006-80.946-648.852-84.149-648.964-87.658-650.716-91.291-652.815-88.62-652.704-85.807-652.75-83.065-652.924-72.783-651.931-62.591-651.304-52.37-650.813-44.358-650.06-36.338-651.74-28.385-652.722-23.732-654.597-19.9-657.941-17.458-663.586-13.337-666.831-14.666-668.692-22.633-672.554-39.166-671.231-55.201-665.047-70.581-663.933-73.35-662.009-75.748-662.297-79.69-664.098-79.924-665.301-78.551-666.374-77.31-681.088-60.282-692.842-40.689-698.601-16.014-700.653-7.222-700.315 1.434-697.306 9.881M-610.769-56.658C-602.406-50.934-594.078-49.218-584.7-53.979-569.955-61.465-557.094-72.263-546.044-86.523-532.167-104.43-518.527-122.641-504.991-140.968-500.634-146.868-496.495-153.771-499.563-162.499-502.647-171.269-508.966-174.615-516.187-175.327-523.865-176.084-531.069-173.355-538.208-170.249-552.747-163.923-566.779-155.796-581.628-150.548-595.007-145.82-608.586-143.083-622.47-142.758-625.393-142.69-628.313-142.376-631.234-142.174-625.318-134.136-617.958-131.784-610.259-130.919-600.999-129.878-591.733-130.667-582.484-131.516-578.633-131.87-574.796-132.126-570.997-130.995-566.321-129.601-564.634-125.945-565.955-120.132-567.315-114.148-570.755-111.054-575.206-109.42-581.348-107.164-587.654-107.43-593.949-107.47-601.047-107.516-601.402-106.889-599.249-98.639-597.062-90.262-599.669-85.825-606.497-87.236-621.208-90.278-632.726-99.059-638.396-117.698-638.86-119.225-638.877-121.307-640.601-121.994-641.524-120.085-641.026-118.12-640.718-116.302-637.99-100.178-633.014-85.328-624.952-72.32-621.016-65.968-616.404-60.515-610.769-56.658M28.918 25.372C26.293 38.93 17.524 42.821 8.177 44.875-7.256 48.265-22.395 44.198-37.248 39.885-59.522 33.417-81.812 29.642-104.65 32.619-129.217 35.821-151.259 24.365-170.935 8.544-194.381-10.307-218.804-27.588-239.328-52.374-257.849-74.74-278.062-94.87-296.531-117.385-306.761-129.859-315.59-144.125-317.807-162.677-321.18-190.896-334.471-210.99-351.417-226.733-363.937-238.365-375.14-251.987-387.888-263.136-389.457-264.508-390.949-267.623-392.911-265.852-394.842-264.107-393.364-261.184-392.547-258.963-390.002-252.053-389.946-245.654-394.697-240.158-396.495-238.079-395.89-235.448-395.71-233.048-394.379-215.288-389.891-199.035-380.97-185.092-373.931-174.092-365.165-166.458-354.033-163.787-352.11-163.326-350.148-162.409-348.344-164.246-346.349-166.278-344.387-166.312-342.563-163.982-341.588-162.736-341.39-161.063-341.98-159.512-343.126-156.5-345.201-156.598-347.505-156.72-364.006-157.594-376.584-167.537-386.299-183.953-394.402-197.646-398.792-213.242-400.299-230.242-400.482-232.312-399.795-235.865-402.071-235.942-404.865-236.038-403.735-232.197-404.254-230.042-404.41-229.398-404.335-228.67-404.414-227.991-406.936-206.197-413.628-187.09-426.723-172.193-435.533-162.171-445.937-157.212-457.699-156.615-459.873-156.504-461.686-156.958-462.593-159.696-463.116-161.274-462.865-162.893-461.844-164.12-460.166-166.137-458.286-166.393-456.501-164.505-454.702-162.604-452.793-163.207-450.854-163.661-445.122-165.006-439.723-167.554-434.963-171.84-417.797-187.299-410.436-209.433-408.687-235.308-408.561-237.176-408.694-238.868-409.922-240.312-414.425-245.605-414.497-251.777-412.127-258.531-411.307-260.868-409.417-263.92-411.753-265.909-413.699-267.565-415.166-264.353-416.747-263.002-426.931-254.299-434.95-242.032-445.357-233.859-456.771-224.896-465.895-213.097-474.205-200.045-479.488-191.745-483.781-182.441-484.942-171.854-487.616-147.48-497.467-128.295-511.567-112.92-545.113-76.341-575.422-34.561-614.748-7.132-616.634-5.816-618.475-4.301-620.138-2.568-633.03 10.865-648.136 18.672-663.541 25.954-673.992 30.895-684.521 33.41-695.71 32.926-707.921 32.397-720.119 30.494-732.382 32.065-750.5 34.387-767.96 41.31-785.989 44.222-797.465 46.075-808.934 47.712-820.131 42.438-834.958 35.454-838.861 16.354-828.64 .959-826.671-2.008-825.41-4.904-826.073-8.993-826.935-14.304-825.765-19.357-822.747-22.923-814.004-33.254-812.33-45.766-814.442-60.038-815.812-69.292-814.358-77.809-808.7-84.656-806.447-87.382-804.93-90.967-804.336-94.803-802.431-107.127-798.05-118.171-793.821-129.313-790.356-138.442-786.793-147.807-787.022-158.05-787.409-175.393-783.128-190.382-775.434-204.319-771.14-212.098-768.623-220.803-768.05-230.534-767.539-239.211-765.958-247.726-763.491-255.931-759.881-267.936-753.78-276.695-744.058-280.946-738.399-283.42-733.18-287.1-728.296-291.382-714.486-303.491-699.262-307.351-683.052-303.301-674.215-301.094-666.677-303.562-659.509-309.552-653.122-314.89-646.109-317.08-638.576-317.366-635.712-317.475-632.835-317.956-630.01-318.599-621.338-320.575-615.102-329.558-614.185-340.042-613.97-342.499-615.572-352.795-616.478-354.897-619.935-362.919-626.698-366.005-636.144-363.447-642.904-361.616-649.676-361.077-656.525-361.567-680.238-363.263-695.042-391.035-687.632-419.621-686.206-425.124-683.319-429.044-680.315-433.005-671.403-444.757-671.273-447.167-678.827-460.503-680.091-462.735-681.307-465.031-682.718-467.105-691.25-479.649-694.144-494.969-695.791-510.799-696.776-520.268-694.75-528.836-688.499-534.62-677.948-544.38-676.058-557.362-678.949-572.471-679.716-576.479-680.392-580.52-681.239-584.5-685.319-603.671-683.688-620.404-669.435-632.331-664.785-636.222-664.429-641.98-666.858-648.131-669.565-654.983-673.307-660.878-677.636-666.087-688.088-678.662-697.631-692.544-709.893-702.546-712.138-704.377-714.11-706.856-715.969-709.327-717.903-711.896-719.481-715.015-717.278-718.469-715.313-721.548-712.719-722.687-709.553-721.225-704.972-719.111-701.539-715.011-698.491-710.521-692.027-701-684.145-693.886-675.718-687.612-667.177-681.252-658.706-674.724-650.008-668.732-643.451-664.214-636.147-661.84-629.392-667.102-614.849-678.432-599.801-687.816-582.944-692.095-578.668-693.18-573.805-703.66-575.622-708.356-578.491-715.775-575.007-716.312-570.971-716.932-564.49-717.928-559.988-714.865-556.748-707.399-551.71-695.796-550.974-683.465-552.842-670.678-554.62-658.518-557.423-646.559-557.672-634.097-558.043-615.508-551.315-605.448-537.025-602.326-528.966-600.565-520.875-601.182-512.788-601.084-501.619-600.95-495.964-594.78-493.922-580.718-492.396-570.214-493.131-559.676-493.319-549.131-493.534-537.128-491.394-533.664-482.355-530.741-481.135-530.347-479.932-529.84-478.696-529.558-471.569-527.928-467.345-522.184-464.965-513.846-462.852-506.444-462.198-498.681-461.642-490.912-460.03-468.385-456.103-447.419-440.125-433.498-435.241-429.242-434.358-422.149-434.893-414.937-435.197-410.827-435.496-406.693-436.118-402.651-437.573-393.205-434.377-386.143-429.272-380.026-427.131-377.46-424.622-374.995-421.569-376.876-418.792-378.586-419.51-382.397-419.564-385.529-419.604-387.808-419.838-390.112-420.206-392.345-422.691-407.429-423.953-422.695-424.598-441.971-425.417-457.15-421.298-474.311-412.594-489.828-405.621-502.257-398.863-502.138-391.812-489.67-382.663-473.495-379.281-455.506-380.055-435.787-380.714-419.009-383.051-402.55-384.903-385.986-385.263-382.762-385.917-378.594-382.796-376.805-379.719-375.042-377.364-377.763-375.105-380.147-367.313-388.372-367.283-399.167-369.139-410.378-371.017-421.723-368.528-430.466-361.076-437.385-352.913-444.964-348.158-455.411-345.848-468.071-343.757-479.53-343.081-491.177-341.761-502.737-339.8-519.918-335.34-526.562-323.054-530.502-312.688-533.828-310.858-536.967-311.226-550.728-311.484-560.353-312.045-569.973-310.732-579.573-308.617-595.042-303.181-600.997-291.02-601.098-283.831-601.158-276.636-600.534-269.465-601.989-251.903-605.551-244.732-617.355-247.174-639.793-248.309-650.225-250.205-660.52-251.713-670.887-253.575-683.68-252.769-696.011-247.695-707.583-243.843-716.369-236.998-719.409-229.698-715.885-227.654-714.898-227.508-713.978-228.094-711.447-230.415-701.404-226.733-693.199-218.817-691.144-204.141-687.333-190.743-679.646-178.338-669.264-171.009-663.13-163.314-662.584-156.355-667.696-138.054-681.138-118.194-691.819-104.013-713.099-101.457-716.936-98.263-720.035-94.304-721.489-91.31-722.589-88.93-721.21-87.152-718.316-85.178-715.1-86.555-712.184-88.278-709.677-91.75-704.625-96.267-701.17-100.375-697.082-112.893-684.625-124.454-670.794-134.286-654.917-141.67-642.991-140.957-638.125-131.61-628.721-124.363-621.43-121.172-612.188-121.395-600.597-121.573-591.302-123.638-582.507-125.375-573.625-128.411-558.102-126.935-544.656-115.919-534.472-109.078-528.147-107.807-518.748-108.88-508.549-110.718-491.085-115.895-475.724-124.712-461.898-133.917-447.466-133.416-445.187-123.34-431.886-120.572-428.233-118.134-424.445-116.846-419.432-109.504-390.863-124.431-363.305-148.144-361.472-156.696-360.811-164.948-363.135-173.336-364.23-179.953-365.094-185.063-361.613-187.948-354.965-188.669-353.301-189.251-351.438-189.683-349.396-190.383-346.083-190.603-342.885-190.384-339.877-189.486-327.512-181.191-318.357-168.486-317.597-159.074-317.034-150.445-314.496-142.507-307.808-136.426-302.684-129.787-301.411-122.396-303.199-106.02-307.161-90.575-303.919-76.557-291.637-71.07-286.83-65.118-283.017-58.833-280.061-51.367-276.548-46.172-269.817-42.712-260.785-39.924-253.507-37.76-245.803-37.361-237.826-36.588-222.388-32.231-208.971-25.391-196.474-20.553-187.635-17.744-177.706-17.909-166.807-18.113-153.372-15.302-141.019-10.644-129.128-6.307-118.056-2.034-106.939-.142-94.614 .375-91.251 1.603-87.941 3.601-85.581 10.323-77.643 11.161-67.844 9.665-57.1 7.925-44.6 9.663-33.465 17.312-24.385 20.583-20.503 22.516-15.366 21.587-9.485 20.849-4.806 22.272-1.588 24.587 1.618 29.519 8.449 30.584 16.761 28.918 25.372" fill="#231f20"/>
</g>
</g>
</svg>
