<svg xmlns="http://www.w3.org/2000/svg" width="1984.25" height="1984.25" viewBox="0 0 1984.25 1984.25"><defs><clipPath id="clip_1"><path d="M0-.002h1984.252V1984.25H0Z"/></clipPath></defs><g clip-path="url(#clip_1)"><path d="M1173.879 501.581q-.654-.072-1.308-.136l-.621-1.193q11.159-11.286 22.33-22.558c17.197-17.357 34.978-35.305 52.348-53.087l8.9-9.11c34.964-35.782 71.116-72.78 106.214-109.644 3.652-3.834 5.967-5.473 7.47-5.26 1.933.248 4.226 3.88 6.214 7.401 22.577 39.955 46.2 80.165 69.046 119.05l14.022 23.87c1.578 2.66 3.212 5.41 2.739 6.49-.22.5-1.38 1.777-7.408 2.85-17.08 3.035-34.403 6.356-51.155 9.566-34.688 6.648-70.555 13.523-106.13 18.232-28.705 3.8-57.98 7.034-86.29 10.162-10.601 1.172-21.202 2.343-31.8 3.545-1.422.164-2.956-.003-4.571-.178m529.387 285.897c11.81-5.416 23.623-10.833 35.427-16.26 12.54-5.763 25.224-11.469 38.654-17.51a13808 13808 0 0 0 16.402-7.385l-9.005 32.038c-6.79 24.16-13.298 47.325-19.821 70.485q-12.344 43.798-24.693 87.594c-28.965 102.71-58.914 208.917-88.031 313.48-2.93 10.522-7.593 15.671-17.206 19-84.686 29.31-170.694 59.406-253.868 88.513l-45.066 15.767c-2.654.93-5.312 1.851-7.968 2.772-12.081 4.193-24.574 8.53-36.633 13.452-6.478 2.643-9.468 1.66-13.34-4.364-34.23-53.277-69.198-107.335-103.015-159.613-14.663-22.67-29.33-45.34-43.981-68.017-4.187-6.48-6.715-10.394-6.335-12.702.37-2.25 3.925-4.738 9.816-8.865 28.99-20.3 57.97-40.616 86.954-60.934 86.453-60.609 175.849-123.279 264.078-184.449 21.394-14.833 45.688-25.125 69.18-35.078 10.252-4.343 20.855-8.835 31.097-13.652 39.006-18.339 78.835-36.606 117.354-54.272m87.463-59.475c-65.368 29.736-131.664 60.347-195.781 89.95l-38.8 17.911c-8.34 3.848-16.65 7.773-24.956 11.696-4.476 2.114-8.954 4.23-13.435 6.333-.8.374-1.567.855-2.31 1.32-2.69 1.681-3.576 1.983-4.686.868-.63-.636-.47-1.357.855-3.853.394-.74.78-1.475 1.063-2.18l29.344-73.509c18.266-45.756 36.53-91.512 54.81-137.26a191730 191730 0 0 1 84.73-211.75c.76-1.895 1.817-3.716 3.276-6.236l.736-1.273 9.66 26.545c8.128 22.331 15.954 43.837 23.788 65.338l4.448 12.215a423238 423238 0 0 0 60.2 165.203 1763 1763 0 0 0 5.918 15.902c1.695 4.51 3.389 9.02 5.053 13.542 1.705 4.637 1.809 6.635-3.913 9.238m-542.585 1009.555c-2.08 2.645-3.037 3.673-5.905 2.281l-7.52-3.625c-22.27-10.728-45.274-21.812-68.796-35.143 2.765-2.738 5.472-5.444 8.143-8.116 7.822-7.822 15.213-15.214 22.96-22.302 5.699-5.21 9.528-11.354 12.055-19.336 10.855-34.273 21.775-68.525 32.694-102.776 13.569-42.562 27.6-86.572 41.267-129.906 2.19-6.944 5.838-10.513 13.456-13.166 84.269-29.352 169.879-59.396 252.673-88.45l55.912-19.618c5.679-1.992 11.347-4.004 17.016-6.013l5.538-1.964c-3.167 3.886-6.323 7.78-9.481 11.676-8.003 9.874-16.28 20.084-24.593 29.96l-30.12 35.794c-45.416 53.984-92.38 109.806-138.841 164.461-41.138 48.395-83.18 97.405-123.841 144.8-17.181 20.028-34.362 40.056-51.528 60.1-.374.433-.732.89-1.09 1.343m433.337-63.77c7.149-6.913 7.432-12.345 1.043-20.038-26.931-32.42-54.181-65.5-80.535-97.49-26.406-32.055-53.71-65.199-80.695-97.685-4.791-5.77-5.491-7.85-.742-13.498 46.425-55.196 91.707-109.946 125.972-151.476 3.613-4.38 5.283-5.136 6.115-5.018 1.175.195 2.69 2.62 4.507 7.205 31.414 79.371 62.986 157.785 89.727 224.023 16.317 40.414 33.002 81.456 49.14 121.151 12.402 30.503 24.804 61.005 37.164 91.527.75 1.85 1.153 3.91 1.71 6.76.149.75.305 1.544.478 2.393l-179.917-40.305c2.273-2.45 4.473-4.849 6.626-7.198 6.608-7.205 12.848-14.01 19.407-20.35m-10.99-1264.846c-19.816 48.81-39.58 98.595-58.692 146.744a51222 51222 0 0 1-22.922 57.676c-.684 1.715-1.627 3.396-2.718 5.344l-.281.5c-74.732-112.103-137.038-215.982-190.316-317.314q7.72 2.67 15.443 5.334c14.854 5.13 29.709 10.258 44.54 15.456 20.287 7.11 40.569 14.236 60.853 21.363 48.635 17.09 98.93 34.762 148.476 51.901 4.28 1.482 6.409 2.797 7.11 4.4.718 1.633.258 4.284-1.492 8.596M776.43 1645.488c-17.811-21.499-35.763-43.5-53.124-64.78-26.431-32.395-53.763-65.89-81.193-98.355-8.851-10.475-10.315-21.95-11.864-34.097-.212-1.662-.425-3.33-.657-5.002-6.752-48.475-13.38-97.798-19.79-145.498a51148 51148 0 0 0-11.757-87.11l-1.807-13.249c-5.967-43.696-12.12-88.764-16.457-133.976l317.23 677.558a29562 29562 0 0 0-22.596-6.34c-19.961-5.596-38.816-10.88-57.611-16.277-6.59-1.89-13.264-3.97-19.717-5.983-12.01-3.745-24.428-7.615-36.89-10.454-5.486-1.25-6.168-2.537-6.25-2.782-.332-1.007 1.79-3.628 3.495-5.737l.63-.778c2.209-2.749 4.362-5.61 6.443-8.38 3.82-5.08 7.772-10.335 12.133-14.942 8.663-9.155 6.339-15.9-.218-23.818m-414.466 11.098c.203-.606.407-1.213.6-1.826 20.43-64.732 40.938-129.436 61.448-194.14 15.18-47.889 31.47-99.238 47.743-150.276l.336-1.08c.568-1.847 1.517-4.938 2.567-5.479.186-.095.347-.167.518-.167.456 0 .977.517 2.22 2.49.428.68.87 1.38 1.369 1.99a172302 172302 0 0 1 130.484 159.54c1.423 1.741 2.758 3.576 4.17 5.517.414.568.83 1.141 1.258 1.722q-.59.96-1.152 1.897c-1.232 2.046-2.396 3.98-3.732 5.703-19.436 25.045-38.891 50.076-58.345 75.106-26.96 34.685-53.92 69.372-80.83 104.1-19.948 25.748-36.58 47.436-52.9 69.601-2.194 2.984-3.827 4.433-4.99 4.433h-.014c-1.137-.01-2.703-1.45-4.79-4.4-15.714-22.232-30.577-42.634-45.433-62.376-3.233-4.297-2.038-7.852-.527-12.355m4.92-515.19c.232-1.533 1.916-3.263 5.298-5.442 51.329-33.1 103.313-67.083 153.586-99.947l17.425-11.392c4.348-2.84 8.83-5.769 10.386-5.769q.192 0 .322.06c1.139.545 1.939 6.432 2.805 12.797 5.17 38.045 10.574 76.702 15.798 114.087 3.869 27.687 7.738 55.372 11.552 83.063 6.203 45.043 12.4 90.858 18.392 135.165l5.567 41.137c1.3 9.597 2.55 19.2 3.8 28.802l1.56 11.94-.051.023-17.243-21.07a27693 27693 0 0 1-39.162-47.906c-15.912-19.52-31.815-39.05-47.72-58.58-45.345-55.682-92.235-113.259-138.548-169.719-2.878-3.508-4.004-5.677-3.767-7.249M184.4 613.524c.627-1.004 2.543-1.677 6.03-2.118 55.916-7.083 112.145-14.62 159.774-21.057a19 19 0 0 1 2.54-.19c4.088 0 6.383 1.797 8.468 6.264 27.79 59.54 56.173 120.011 83.622 178.492l25.059 53.398c7.256 15.47 14.5 30.946 21.743 46.423 16.948 36.212 34.473 73.657 51.898 110.393l.606 1.275c3.276 6.896 5.082 10.695 4.395 13.012-.701 2.366-4.364 4.761-11.013 9.108l-.276.181a89399 89399 0 0 0-100.496 65.844c-19.487 12.777-38.972 25.557-58.463 38.327-3.157 2.068-6.358 4.065-10.431 6.61-1.182.74-2.436 1.522-3.784 2.365 1.06-6.489 2.076-12.72 3.06-18.77 2.517-15.455 4.836-29.707 7.238-43.945l6.543-38.842c10.05-59.709 20.445-121.45 31.075-182.093 1.8-10.268-3.907-11.683-8.943-12.93l-.99-.248c-15.247-3.88-30.484-7.813-45.722-11.744-35.432-9.143-72.07-18.597-108.266-27.224-12.271-2.925-16.98-7.407-20.152-19.18-13.434-49.848-28.35-98.895-42.772-146.325-1.161-3.82-1.39-5.988-.743-7.026m215.437-194.097c46.64 17.404 93.274 34.83 139.909 52.254l76.095 28.43c14.35 5.36 28.709 10.697 43.068 16.034l18.886 7.024.006.297-18.82 2.964a13268 13268 0 0 1-44.851 7.023 553408 553408 0 0 1-239.962 36.95c-6.154.948-10.187.013-13.922-3.222-20.597-17.839-43.204-37.056-69.115-58.747-2.431-2.036-4.612-3.983-4.587-5.445.014-.818.714-2.324 3.969-4.863 34.232-26.685 68.61-54.449 98.145-78.376 1.74-1.408 3.323-1.934 4.944-1.934 1.918 0 3.888.736 6.235 1.611m261.035 342.644-4.165 22.405-271.07-198.469c5.513-.924 10.8-1.822 15.929-2.692 13.42-2.275 26.098-4.425 38.6-6.347 64.048-9.847 127.81-19.52 187.172-28.509 7.406-1.12 14.957-2.167 22.259-3.177 14.308-1.983 29.103-4.033 43.555-6.748 1.608-.303 6.5-1.22 7.737.07 1.209 1.267.285 6.12-.02 7.714-7.392 38.84-14.653 78.377-21.675 116.614-2.784 15.165-5.57 30.332-8.37 45.495-3.263 17.672-6.55 35.341-9.952 53.644m359.253 347.575c-27.813-6.957-55.624-13.916-83.431-20.89l-79.932-20.068c-90.194-22.65-183.455-46.073-275.246-68.843-2.605-.646-6.142-1.678-6.802-3.175-.647-1.469.813-4.712 2.159-7.374 26.34-52.124 53.839-107.384 86.537-173.905 1.97-4.008 3.293-5.763 4.563-6.056q.213-.05.456-.049c1.326 0 3.332 1.108 6.242 3.438 99.679 79.851 201.249 160.741 299.474 238.967l45.92 36.571c9.377 7.47 18.978 14.968 28.26 22.22q5.857 4.569 11.702 9.15Zm-616.86-489.115c13.526 9.783 27.51 19.902 41.21 29.927a65819 65819 0 0 1 56.243 41.216c46.705 34.251 95 69.67 142.718 104.19 7.606 5.501 8.292 8.558 3.87 17.212-19.223 37.614-38.355 76.077-56.857 113.273a27419 27419 0 0 1-24.192 48.556 36 36 0 0 0-.983 2.2c-.954 2.264-1.863 4.423-4.27 6.12l-175.306-375.41q8.78 6.362 17.567 12.716m-2.523-284.733c.53.36 1.047.707 1.543 1.016 28.326 17.65 56.618 35.357 84.91 53.066a58836 58836 0 0 0 69.973 43.751c21.362 13.33 42.768 26.585 64.174 39.842a37620 37620 0 0 1 39.556 24.52q.474.297.939.665l-24.312-9.008c-20.291-7.512-40.58-15.025-60.848-22.6a31530 31530 0 0 1-49.356-18.514c-38.814-14.582-78.948-29.66-118.557-44.116-7.97-2.908-10.354-6.259-10.63-14.938-.321-10.183-1.544-20.459-2.727-30.397-.662-5.563-1.347-11.316-1.862-16.967-.61-6.684.439-7.96.655-8.15.458-.397.947-.586 1.509-.586 1.202 0 2.74.867 5.033 2.416m627.39 853.642a563554 563554 0 0 1-163.963 114.637c-11.03 7.705-22.08 15.38-33.128 23.054-24.663 17.128-50.166 34.84-75.003 52.637-3.405 2.441-5.661 3.395-7.095 2.997-1.436-.393-2.873-2.338-4.806-6.509-42.623-91.968-86.168-185.369-128.28-275.694l-30.121-64.61c-2.19-4.7-4.4-9.395-6.968-14.855l-2.313-4.919 514.796 129.124ZM776.43 1388.868c-1.292.103-2.28.18-3.271-.52q8.456-5.967 16.897-11.937c13.607-9.619 27.199-19.228 40.84-28.763 23.742-16.593 47.494-33.173 71.245-49.754 64.894-45.302 131.997-92.147 197.816-138.494 4.069-2.866 6.813-3.957 8.94-3.524 2.125.433 4.23 2.491 7.042 6.881 30.004 46.903 60.717 94.448 90.419 140.427 17.387 26.917 34.775 53.834 52.124 80.777.637.986 1.444 1.944 2.225 2.87 2.475 2.931 3.538 4.498 2.602 6.2-.948 1.716-3.154 1.58-6.68 1.154-1.131-.134-2.302-.277-3.405-.285-147.296-1.199-269.017-2.273-383.064-3.376-24.288-.235-48.986-.778-72.87-1.305L778 1388.8l-.184-.002c-.45 0-.913.034-1.386.07M176.892 588.37c.685-.53 1.362-1.052 2.023-1.584 11.699-9.403 23.443-18.747 35.187-28.09 16.36-13.017 33.278-26.478 49.794-39.887 2.61-2.122 4.543-3.195 6.452-3.195 2.045 0 4.064 1.231 6.867 3.724 14.102 12.545 28.905 24.71 43.22 36.473 5.81 4.774 11.62 9.547 17.4 14.357.263.22.536.432.812.646 1.312 1.021 2.337 1.82 2.72 3.716l-173.48 22.73c2.774-4.075 5.93-6.515 9.005-8.89m1676.984 1155.925c-18.032-43.513-35.847-87.996-53.075-131.013l-11.38-28.398c-17.77-44.3-35.521-88.608-53.274-132.916-22.764-56.813-45.526-113.626-68.326-170.422-2.66-6.624-4.027-12.378-2.057-18.929 12.924-42.988 25.74-86.499 37.759-127.386q16.329-55.543 32.643-111.094c26.136-88.965 53.159-180.959 79.863-271.398 2.91-9.85 2.844-17.834-.223-26.69-21.49-62.059-43.032-125.27-63.867-186.402l-16.96-49.743a7309 7309 0 0 1-8.281-24.44c-6.54-19.366-13.303-39.393-20.317-58.963a95 95 0 0 1-1.038-3.139c-1.92-6.039-4.094-12.884-13.025-15.98-107.536-37.309-217.478-76.082-312.087-109.495-8.284-2.927-14.151-1.544-20.245 4.784-62.816 65.19-137.036 142.076-211.231 218.054-8.42 8.621-8.281 16.344-5.481 25.287 5.856 18.705 11.324 37.901 16.612 56.465 1.477 5.182 2.952 10.364 4.439 15.543 8.775 30.581 17.522 61.168 26.268 91.757l15 52.438c.146.511.269 1.046.392 1.585.678 2.937 1.702 7.376 7.074 7.53 4.667.086 5.822-3.71 6.567-6.006.192-.595.376-1.18.615-1.692 7.1-15.263 14.22-30.829 21.102-45.884l19.549-42.698c22.555-49.252 45.11-98.505 67.65-147.765 1.957-4.279 3.902-6.754 8.566-7.586a8775 8775 0 0 0 128.298-23.858c5.846-1.13 8.578.02 11.688 4.933 34.597 54.668 66.182 104.147 96.56 151.263 3.595 5.577 3.946 9.844 1.34 16.308-31.367 77.785-57.302 142.812-81.617 204.642-4.061 10.328-9.244 14.122-19.806 14.501-54.546 1.96-108.567 4.646-172.893 8.078-54.305 2.898-109.51 5.976-162.9 8.952-38.702 2.157-77.404 4.315-116.107 6.426-6.485.353-13.188.72-19.695-1.193-102.328-30.027-212.201-62.214-322.33-94.13-6.267-1.817-7.708-4.277-6.424-10.968A12166 12166 0 0 0 690 695.305c3.735-20.285 7.445-40.574 11.156-60.864 5.993-32.776 12.19-66.669 18.398-99.979 1.494-8.024-.237-13.48-5.79-18.24-33.314-28.562-67.094-57.718-99.761-85.913l-78.482-67.719a234959 234959 0 0 0-117.507-101.349c-7.276-6.27-14.603-12.476-21.931-18.68-5.867-4.97-11.733-9.938-17.574-14.939l-.226-.195c-2.342-2.01-5.55-4.766-9.907-2.379-3.75 2.052-3.345 6.181-3.193 7.736a22485 22485 0 0 1 3.982 41.25c3.7 38.592 7.528 78.5 11.879 117.688.938 8.442-.833 12.797-7.29 17.923-42.078 33.404-84.78 67.473-126.073 100.421-37.095 29.598-75.454 60.203-113.237 90.227-6.977 5.545-8.05 10.932-3.824 19.215 29.987 58.786 59.925 118.23 85.256 168.626 3.2 6.367 7.627 9.832 14.803 11.587 36.137 8.837 72.81 18.13 108.277 27.117 10.717 2.715 21.433 5.431 32.227 8.158 11.109 2.806 17.229 4.352 19.383 7.58 2.122 3.18 1.233 9.368-.66 20.942-12.857 78.606-28.2 171.76-44.521 266.667-1.502 8.733-.111 14.537 4.959 20.702 13.492 16.4 26.923 32.854 40.354 49.307 20.89 25.591 42.493 52.056 63.98 77.875 5.805 6.977 6.914 12.87 4.09 21.741-32.23 101.194-64.751 204.166-96.202 303.747l-14.952 47.34c-1.293 4.092-2.811 8.397-5.872 12.114-15.563 18.887-31.295 38.165-46.51 56.807a30082 30082 0 0 1-19.583 23.985c-.51.621-1.114 1.23-1.723 1.848-2.352 2.386-5.574 5.656-3.621 10.178 2 4.63 6.706 4.308 10.136 4.066.76-.054 1.527-.086 2.192-.104 21.29.068 42.583.084 63.874.101 19.753.015 39.505.032 59.257.088 5.464.012 10.073-1.16 14.503-6.958 19.045-24.907 38.653-50.04 57.616-74.345a17585 17585 0 0 0 31.19-40.055l12.094-15.59c32.257-41.576 65.613-84.566 98.035-127.167 2.684-3.526 4.845-5.253 6.607-5.28h.042c1.754 0 3.868 1.647 6.845 5.333 42.628 52.752 84.413 104.37 126.93 155.858 4.898 5.933 3.71 8.62-.403 13.776-14.742 18.47-29.571 37.381-43.91 55.667-5.83 7.433-11.66 14.87-17.5 22.294-.378.482-.791.96-1.208 1.44-2.244 2.594-5.317 6.147-2.977 11.024 2.075 4.32 6.27 4.078 9.336 3.913.597-.035 1.114-.105 1.749-.069q33.915.029 67.83.034c43.769.012 89.026.025 133.536.15 4.877.061 9.622-.44 11.663-3.806 1.62-2.674 1.125-6.435-1.607-12.193-10.466-22.067-20.862-44.633-30.916-66.455-6.974-15.14-13.95-30.28-21.002-45.38a94232 94232 0 0 0-52.21-111.537 96962 96962 0 0 1-48.58-103.768c-1.334-2.857-4.112-8.805-3.422-9.927.676-1.094 6.946-1.028 9.957-.988 56.454.658 113.855 2.021 169.367 3.336 24.74.588 49.486 1.173 74.233 1.704l54.75.01c62.768.017 127.662.032 191.49-.149 2.206.002 6.315-.016 7.159 1.192.438.623.646 2.34-.85 6.97-18.476 57.201-36.91 115.476-54.733 171.834q-7.475 23.64-14.962 47.28c-2.925 9.225-7.132 16.374-13.243 22.494-26.566 26.605-53.134 54.116-78.824 80.72l-.345.358c-.605.625-1.425 1.25-2.294 1.91-2.658 2.017-6.676 5.07-4.848 10.445 2.132 6.28 7.84 6.034 11.997 5.848.734-.03 1.458-.084 2.142-.062 15.134.036 30.267.045 45.399.054 27.997.017 56.946.033 85.416.228h.173c5.977 0 10.315-2.085 14.475-6.947 29.102-33.997 58.239-67.966 87.375-101.933q24.676-28.765 49.344-57.539l14.163-16.52c29.3-34.177 59.598-69.517 89.286-104.377 3.646-4.282 6.043-6.036 8.249-6.036l.05.002c2.144.025 4.62 1.805 7.575 5.443 55.737 68.618 104.845 128.274 150.13 182.381 5.846 6.981 4.272 9.335-1.135 15.115-19.692 21.057-39.49 42.681-58.637 63.595l-8.502 9.284c-.503.55-1.128 1.102-1.79 1.688-2.424 2.147-5.75 5.086-4.173 9.957 1.956 6.04 7.185 5.817 11.002 5.65.638-.027 1.269-.055 1.879-.055h.008c22.644.008 45.286.008 67.93.01 57.186 0 116.322.002 174.48.14 5.662.068 9.617-.558 11.46-3.439 1.616-2.52 1.233-6.183-1.283-12.247"/></g></svg>