<svg xmlns="http://www.w3.org/2000/svg" width="2048" height="1920" viewBox="0 0 2048 1920"><defs><clipPath id="clip_1"><path d="M0 0h2048v1920H0Z"/></clipPath></defs><g clip-path="url(#clip_1)"><path fill="#231f20" d="M359.875 873.154c.33 1.242.654 2.467 1.043 3.652 18.814 57.369 37.843 115.73 56.246 172.17 8.013 24.573 16.025 49.147 24.045 73.717 2.876 8.814 4.118 15.953 4.023 23.146-1.426 108.529-2.78 218.877-4.092 325.592-.577 46.934-1.153 93.868-1.737 140.803-.038 3.06-.299 6.188-.552 9.213q-.122 1.438-.233 2.875l-83.355-761.56c2.7 3.178 3.67 6.835 4.612 10.392M217.78 601.949c49.275-37.233 99.258-75.237 147.594-111.99l42.936-32.64 1.21 1.137-88.893 258.843-12.217-12.568c-9.293-9.557-18.069-18.581-26.823-27.625a34924 34924 0 0 1-62.452-64.634c-.457-.474-.94-.938-1.42-1.4-1.71-1.637-3.327-3.185-3.232-4.815.075-1.262 1.184-2.711 3.297-4.308m13.478-192.071c48.176 6.52 97.128 13.38 144.468 20.013l23.704 3.32c.648.09 1.373.44 2.69 1.074.6.29 1.32.636 2.205 1.043a29917 29917 0 0 0-30.984 24.06c-24.7 19.196-48.033 37.329-71.92 55.622-26.71 20.454-54.758 41.535-85.748 64.447-1.28.948-2.549 2.1-3.89 3.319-3.886 3.534-7.903 7.189-11.82 5.125-3.696-1.945-3.493-8.115-3.315-13.558.046-1.394.09-2.748.071-3.992-.699-45.412-1.055-87.477-1.087-128.595-.003-3.514-.44-7.383-.865-11.124-1.038-9.16-2.113-18.633 3.08-23.504 1.863-1.748 4.466-2.396 7.49-2.396 4.394 0 9.675 1.369 14.85 2.709 3.728.967 7.584 1.966 11.071 2.437m186.206-21.36c.011 5.722.022 11.44.021 17.16 0 3.089-.112 5.548-1.498 6.77-.975.862-2.607 1.136-4.987.837-43.865-5.494-87.74-10.912-131.614-16.331l-40.222-4.97-.337-1.542 34.713-10.403q44.57-13.354 89.135-26.726l9.681-2.898c12.151-3.632 24.715-7.387 37.008-11.29 3.252-1.033 5.403-1.112 6.576-.241 1.151.854 1.69 2.836 1.65 6.059-.185 14.526-.155 29.294-.126 43.576m-212.287-16.12c6.452-19.822 13.176-39.521 19.684-58.59 12.02-35.211 24.441-71.606 35.203-109.02l138.5 117.687Zm1179.22 1309.824 399.855 116.473-.493 3.968-29.997.005c-43.14.01-87.752.02-131.625-.154-3.404-.013-7.128-1.663-10.324-3.275-75.612-38.14-152.22-76.92-223.742-113.142-1.58-.8-2.839-1.816-3.675-3.875m-165.123-27.784.776 1.102-65.194 85.4c-13.418 17.576-26.836 35.15-40.224 52.747l-.265.349c-3.282 4.32-6.16 8.085-12.479 8.037l-21.962-.045c-71.919-.143-146.23-.29-220.193-2.422ZM828.58 1122.845c18.21-55.541 36.59-112.054 54.366-166.705 8.454-25.992 16.908-51.985 25.376-77.972 1.32-4.05 2.956-8.293 5.876-12.316l-83.119 759.216-.317-.016c-.064-.841-.135-1.683-.205-2.525-.199-2.366-.405-4.813-.434-7.204l-1.708-138.367c-1.338-108.926-2.678-217.851-4.097-326.776-.12-9.275 1.273-18.217 4.262-27.335M623.442 879.637 457.395 1114.69l-113.64-350.377Zm610.706 263.183c-103.603 156.317-208.72 315.39-310.379 469.225l-77.49 117.259c-1.375 2.078-2.908 4.123-4.39 6.1-.587.782-1.173 1.563-1.75 2.35l-1.257-.216 114.216-964.053c4.163 1.76 6.146 4.607 8.071 7.37.572.82 1.134 1.627 1.735 2.384 29.376 37.015 58.733 74.045 88.091 111.074 59.525 75.08 121.077 152.716 181.776 228.953 6.07 7.622 6.378 12.009 1.377 19.554m-160.646-646.968c-.159 25.986-.318 51.97-.563 77.957a78 78 0 0 0 .043 2.763c.133 4.869.27 9.902-3.656 11.706-2.98 1.369-6.142-1.417-9.2-4.11-1.074-.945-2.088-1.838-3.119-2.585-55.457-40.206-110.303-83.041-163.344-124.467l-21.728-16.961c-.34-.265-.699-.52-1.065-.777-1.723-1.215-3.359-2.37-3.773-5.422 6.071-.88 12.156-1.771 18.251-2.661 13.95-2.04 28.373-4.148 42.6-6.13 14.371-2.003 28.747-3.968 43.123-5.935 30.695-4.197 62.433-8.538 93.596-13.177 4.04-.601 6.42-.366 7.718.765 1.26 1.097 1.756 3.24 1.716 7.397-.267 27.212-.435 54.88-.599 81.637m-121.86 218.24a473 473 0 0 0-2.74 2.39l-88.582-257.87c3.61-.327 5.614 1.54 7.726 3.505.657.612 1.298 1.205 1.961 1.707 20.993 15.9 41.951 31.847 62.91 47.792 37.532 28.555 76.342 58.082 114.725 86.856 4.34 3.252 6.26 5.583 6.42 7.792.158 2.2-1.377 4.705-5.3 8.648-21.457 21.56-42.93 43.802-63.697 65.312-9.235 9.565-18.47 19.13-27.732 28.668-1.657 1.706-3.437 3.249-5.69 5.2M852.405 346.09c-.077-3.76.456-5.94 1.674-6.863.57-.432 1.354-.647 2.385-.647 1.192 0 2.716.289 4.62.868 43.004 13.086 86.766 26.268 129.088 39.015l40.312 12.146.283 1.243c-7.877 1.035-15.75 2.08-23.626 3.125-18.399 2.443-37.424 4.967-56.153 7.314-11.455 1.436-22.923 2.787-34.39 4.138-17.242 2.032-35.072 4.133-52.57 6.5-4.707.636-7.987.7-9.794-.94-1.46-1.326-2.068-3.877-1.913-8.027.753-20.041.438-40.381.084-57.872M801.7 413.67H469.334c.747-4.554 3.15-6.141 5.478-7.68.552-.363 1.09-.72 1.588-1.098a42247 42247 0 0 1 56.016-42.502c31.295-23.718 63.654-48.244 95.368-72.511 6.263-4.794 10.008-4.795 16.03-.007 41.196 32.75 83.281 65.805 123.981 97.77l28.675 22.529c1.222.96 2.54 1.793 4.363 2.947zm34.768-70.891c.01 14.009.15 28.25.284 42.024.066 6.717.131 13.435.183 20.153.032 4.102-.682 6.65-2.064 7.37-1.409.736-3.97-.168-7.407-2.614-42.223-30.035-84.893-63.982-134.043-106.651l27.135 6.187c36.736 8.376 73.473 16.753 110.212 25.12 4.098.933 5.696 3.292 5.7 8.41m57.657 319.434c-13.543 14.302-33.332 22.194-54.282 21.66-20.4-.522-39.18-9.11-51.528-23.562-6.375-7.464-12.942-6.992-20.865-5.6l-1.225.216.476 1.15c12.86 31.074 51.108 49.929 88.97 43.857 19.034-3.053 34.266-10.175 46.566-21.773 2.677-2.524 5.212-4.754 6.82-4.313 1.256.345 2.445 2.45 3.533 6.258 4.084 14.275 9.187 29.647 15.6 46.993 2.416 6.535.988 9.48-6.115 12.603a36209 36209 0 0 0-201.8 89.498c-6.147 2.748-9.463 1.165-13.78-2.945l-.384-.365c-29.705-28.282-29.705-28.282-11.995-65.67a800406 800406 0 0 1 138.215-291.651c1.27-2.676 2.664-5.335 4.43-8.702.676-1.29 1.41-2.687 2.216-4.238l5.788 17.593a16710 16710 0 0 1 12.63 38.465 15023 15023 0 0 1 11.72 36.095c9.718 30.016 19.77 61.055 30.135 91.428 3.176 9.304 1.74 15.755-5.125 23.003M653.508 890.266c-3.36-4.7-4.536-7.595-3.932-9.685.605-2.091 3.134-3.874 8.733-6.156 53.804-21.93 108.414-44.45 161.224-66.23a72449 72449 0 0 1 93.612-38.556c.811-.332 1.614-.74 2.435-1.157 2.096-1.065 4.241-2.155 7.022-2.155.834 0 1.725.098 2.688.325l-112.017 345.352c-4.072-.773-5.56-3.316-7.13-6-.447-.761-.886-1.506-1.369-2.19a59406 59406 0 0 1-49.36-69.84c-33.304-47.166-67.742-95.94-101.906-143.708m4.876 799.51c.317-.885.637-1.776.914-2.674l24.958-80.704c19.242-62.223 38.483-124.447 57.75-186.664 19.51-63.01 39.08-126.002 58.662-188.99 1.042-3.352 2.336-6.86 5.48-10.068v564.054a69774 69774 0 0 1-36.372-20.691c-37.07-21.098-72.083-41.026-107.956-61.191-6.759-3.8-5.293-7.891-3.436-13.071m-4.694-766.065c.36.677.711 1.332 1.106 1.914 20.175 29.719 40.31 59.465 60.445 89.21 25.888 38.246 52.658 77.795 79.08 116.632 4.75 6.98 5.752 12.596 3.58 20.028-32.997 112.853-66.362 227.645-98.629 338.658-14.244 49.005-28.488 98.01-42.746 147.012-.248.85-.424 1.74-.603 2.649-.532 2.71-1.08 5.5-3.932 7.913l-4.332-728.756c3.637.24 4.803 2.43 6.031 4.74M452.885 438.778c1.045-1.61 6.254-1.62 13.463-1.632 25.733-.044 51.464-.055 77.197-.055q23.905.001 47.81.008l48.902.01v-3.218c14.656 0 29.314.015 43.97.028 42.41.04 86.263.082 129.393-.216 5.527-.04 9.175.279 10.267 1.977.95 1.478.321 4.477-1.98 9.439-46.538 100.326-96.602 209.043-157.556 342.138-3.413 7.453-7.236 9.968-15.108 9.925l-.907-.004c-38.483-.156-38.483-.156-53.875-34.9q-68.813-155.315-137.61-310.638c-3.007-6.791-4.995-11.277-3.966-12.862m123.317-132.212-.463.359a13823 13823 0 0 0-21.685 17.14c-35.053 27.743-71.299 56.429-108.265 82.977-.782.563-1.587 1.237-2.407 1.925-2.585 2.168-5.257 4.41-7.697 3.37-3.516-1.495-3.347-5.72-3.182-9.805.027-.683.054-1.35.062-1.986.128-10.027.364-20.224.591-30.084.214-9.238.426-18.475.56-27.714.064-4.525.465-7.573 5.247-8.656 36.187-8.195 72.367-16.42 108.595-24.654l31.321-7.12c-.045 2.227-1.278 3.174-2.677 4.248m-233.549 416.85c4.77-12.163 8.771-24.514 13.007-37.591a1897 1897 0 0 1 5.09-15.562c17.592 18.02 35.106 27.398 55.004 29.478 37.313 3.899 64.667-6.63 83.628-32.187.425-.574 1-1.202 1.606-1.87 1.973-2.17 4.207-4.628 3.812-7.271-.217-1.442-1.207-2.695-2.945-3.726-4.84-2.871-12.357-2.618-16.753 3.505-13.605 18.949-33.376 26.629-64.104 24.896-11.514-.648-22.26-4.511-32.855-11.807-18.786-12.942-21.18-19.885-14.227-41.275l56.06-172.417c3.595 1.029 4.524 3.667 5.503 6.45.297.843.604 1.714.986 2.517 16.757 35.287 33.49 70.584 50.222 105.882 33.07 69.767 67.267 141.908 101.106 212.768 3.876 8.115 4.47 13.343-3.044 19.397-3.832 3.086-7.186 7.213-10.428 11.204-5.656 6.96-10.999 13.536-18.302 14.36-7.5.846-15.983-3.836-24.184-8.364-3.518-1.941-7.155-3.948-10.69-5.508-16.562-7.306-33.11-14.637-49.66-21.968-39.619-17.55-80.587-35.697-121.042-53.192-9.775-4.227-11.522-8.201-7.79-17.718m794.753 1073.886c.572-.595 1.164-1.21 1.65-1.853a35164 35164 0 0 1 41.735-55.005c20.14-26.505 40.962-53.913 61.327-80.955 4.375-5.81 7.275-8.16 14.95-4.621 67.238 30.984 135.687 62.309 201.881 92.603 37.786 17.292 75.571 34.585 113.342 51.908.476.219 1.017.396 1.58.578 1.816.585 3.412 1.1 3.754 3.407h-442.45c-1.108-2.4.151-3.9 2.231-6.062m105.892-616.131c-.064.936-.128 1.85-.137 2.754-.689 65.459-1.409 130.917-2.128 196.374-.834 75.895-1.668 151.789-2.456 227.683-.083 8.024-.57 13.123-9.17 16.673-97.217 40.132-195.935 81.224-291.403 120.962a386140 386140 0 0 1-88.876 36.985c-.974.405-2.044.694-3.986 1.217-.719.193-1.553.419-2.543.693l399.074-614.282c2.091 4.23 1.854 7.636 1.625 10.94m-228.453-976.26c12.403 41.95 25.951 81.58 40.286 123.512 4.906 14.35 9.973 29.173 14.974 44.048l-193.633-50ZM603.292 1705.675c-38.402 21.29-77.14 43.463-114.603 64.905l-16.59 9.495c-3.727 2.133-6.945 3.975-8.525 3.053-1.268-.74-1.898-3.465-1.875-8.101.747-142.77 1.31-287.93 1.853-428.31l.502-128.204c.001-.081.17-.552.383-1.15.095-.264.21-.583.346-.97l10.288 33.19c7.902 25.487 15.492 49.965 23.068 74.446q12.166 39.32 24.323 78.642c28.812 93.186 58.606 189.545 88.24 284.219 3.035 9.7 1.373 13.913-7.41 18.785m18.795-787.124-4.363 729.335c-2.567-2.251-3.166-5.052-3.794-7.993-.202-.95-.404-1.888-.667-2.795l-30.969-106.393c-35.913-123.403-73.049-251.008-109.756-376.461-2.777-9.49-1.793-16.203 3.507-23.947 37.234-54.393 74.786-109.896 111.1-163.572 10.962-16.202 21.922-32.404 32.891-48.6Zm986.782 711.792 24.238 101.116c-1.65-.392-3.143-.737-4.523-1.057-3.373-.781-6.037-1.4-8.666-2.148-28.105-8.014-56.206-16.047-84.306-24.08-84.649-24.195-172.18-49.215-258.419-73.314-12.2-3.41-15.506-7.69-15.37-19.913 1-90.218 1.783-181.947 2.54-270.656.561-65.585 1.14-133.404 1.801-200.105.11-10.855-2.775-19.08-9.642-27.501-38.538-47.26-77.64-95.376-115.454-141.907-57.275-70.478-116.5-143.356-175.03-214.816-8.849-10.805-7.332-15.911 1.378-24.878 24.043-24.75 48.047-50.322 71.261-75.051 12.625-13.45 25.682-27.36 38.592-40.973 5.99-6.317 8.665-12.055 8.946-19.186 1.957-49.687 4.271-98.547 6.276-139.79 2.401-49.37 4.853-98.737 7.305-148.104 1.99-40.046 3.977-80.09 5.94-120.135.913-18.653 1.725-37.242 2.584-56.923.406-9.271.82-18.756 1.258-28.557l.101-2.254-8.066 6.677c-3.502 2.892-6.303 5.205-9.074 7.553l-44.55 37.747C989.305 201.8 928.625 253.205 869.124 303.97c-7.207 6.149-13.226 7.648-22.209 5.528-43.48-10.254-87.769-20.338-130.6-30.091-20.919-4.763-41.838-9.526-62.748-14.326-9.017-2.07-18.895-3.572-30.013-.57-29.278 7.91-59.103 15.755-87.946 23.34-31.738 8.346-64.556 16.977-96.763 25.727-9.944 2.7-16.65 1.125-24.74-5.814-80.28-68.85-161.75-137.957-240.537-204.791-.727-.616-1.416-1.361-2.145-2.15-2.48-2.681-5.294-5.721-10.597-4.573l-.788.169v.807q-.002 1.206-.019 2.37c-.022 1.674-.04 3.256.034 4.87l4.638 98.726c5.964 126.838 12.13 257.995 18.033 386.999.378 8.24 4.406 13.409 8.702 17.767 10.984 11.14 22.057 22.564 32.765 33.612 22.178 22.882 45.111 46.543 68.51 68.98 21.023 20.158 30.957 39.89 33.217 65.979 5.833 67.345 13.514 135.667 20.943 201.738 2.87 25.525 5.837 51.92 8.656 77.887 9.201 84.75 18.402 169.503 27.583 254.256 3.644 33.633 7.278 67.267 10.912 100.9 6.384 59.085 12.767 118.169 19.203 177.248 5.904 54.199 11.875 108.39 17.845 162.583l8.021 72.859h551.751l.163-.058c5.26-1.883 10.858-1.72 16.273-1.561 1.611.047 3.215.089 4.824.09 126.692-.236 253.385-.46 380.078-.681 158.696-.28 317.391-.558 476.086-.864 1.126-.003 2.287.052 3.46.108 4.316.204 9.211.436 14.697-2.166l1.587-.751Z"/></g></svg>