<svg xmlns="http://www.w3.org/2000/svg" width="1984.25" height="1984.25" viewBox="0 0 1984.25 1984.25"><defs><clipPath id="clip_1"><path d="M0-.002h1984.252V1984.25H0Z"/></clipPath></defs><g clip-path="url(#clip_1)"><path d="m878.934 1366.626 39.538 10.879c-12.032-20.357-12.032-20.357-39.538-10.879m-17.87-971.065-.89-2.452c-14.695 4.468-29.438 8.788-44.037 13.548-2.432.793-8.266.274-5.536 5.875 1.686 3.459 5.023 4.243 8.86 2.427 13.83-6.547 27.73-12.945 41.604-19.398M674.68 603.721c11.297-25.75 9.72-28.779-12.714-26.646-.427.041-.86.032-1.29.029-5.24-.044-6.081 2.376-3.333 6.356 4.859 7.041 9.598 14.21 17.337 20.261m342.243 843.562c-7.756-41.998-5.721-36.04-32.768-32.765 11.242 10.081 22.117 19.591 32.768 32.765m283.113 70.3c-23.824 1.131-43.773 3.407-52.96 28.654 18.05-8.537 34.975-16.516 52.96-28.654M582.093 572.087c-26.577-10.525-32.573-8.096-47.86 18.941zm88.26 185.787c-7.337 10.286-11.855 19.039-15.564 28.259-.965 2.4-2.403 5.612 1.452 6.022 8.26.879 17.458 1.157 23.953-3.633 3.97-2.928-2.315-8.96-3.662-13.687-1.412-4.956-3.5-9.718-6.18-16.961m598.156 704.441c16.97-29.138 15.766-35.063-11.08-53.86 5.9 18.027 8.018 35.306 11.08 53.86m-832.984-318.007c-32.138-3.399-37.383 3.067-25.67 29.954.144.327.707.47 2.149 1.371 9.054-9.15 17.81-18.665 23.52-31.325m446.278-580.043c19.622 26.476 41.852 50.411 68.689 69.856-19.157-26.931-41.79-50.472-68.69-69.856M426.176 874.128c-8.282-23.209-11.553-44.279-15.114-65.281-15.895 37.753-15.427 39.898 15.114 65.281m731.649-146.25c-31.564-14.159-63.878-24.523-98.075-28.055 31.003 15.605 63.97 24.336 98.075 28.055M766.77 881.668c5.173 8.696 12.47 14.269 18.65 20.828 2.818 2.992 5.449 4.512 7.723-.645 5.598-12.697 11.308-25.344 17.957-40.21zm-19.25-449.927c25.488 14.914 25.952 14.896 45.519.229 1.734-1.3 3.89-2.208 5.239-3.812 2.156-2.567 8.854-2.799 5.477-8.319-2.423-3.962-5.578-7.549-11.715-5.061-13.984 5.669-28.192 10.786-44.52 16.963m-3.724 183.372c-4.038-6.595-9.506-8.741-13.946-12.011-27.388-20.172-27.44-20.104-33.335 14.59-.054.313.286.693.896 2.059zm189.442-175.784c1.307-12.371 2.532-21.406 3.14-30.482.535-7.997 6.863-19.797.593-23.026-7.6-3.915-17.822 3.784-26.666 7.284-5.02 1.986-6.811 4.253-2.917 9.472 8.25 11.056 15.92 22.547 25.85 36.752m-499.225 690.616c-12.874-19.023-26.037-35.006-44.636-47.582 5.898 46.3-.402 46.328 44.636 47.582m314.824-381.358c-10.107-3.332-18.77-2.821-27.222-3.788-9.295-1.064-24.544-6.851-26.631-2.174-4.266 9.561 3.522 21.246 6.544 32.007.117.418.314.812.472 1.219 1.457 3.749 3.425 4.315 6.838 1.788 12.804-9.48 25.767-18.744 39.999-29.052m495.818 624.34c12.502 18.158 24.269 33.196 40.148 45.628 5.154-10.318 6.373-20.206 8.547-29.838 1.353-5.993-1-8.789-6.832-10.107-12.713-2.872-25.367-5.878-41.863-5.683M437.014 907.29c-11.936-18.864-24.341-34.053-41.541-46.994-2.224 11.621-4.014 21.402-5.993 31.144-1.13 5.561.186 9.035 6.35 10.339 12.684 2.683 25.323 5.438 41.184 5.511m569.183-274.161c16.949-27.143 37.268-105.514 33.248-127.165-18.188 41.56-30.044 83.179-33.248 127.165m-154.965 724.918c17.113.937 31.687-1.846 46.247-5.534 5.224-1.324 6.25-3.959 4.792-8.387-3.757-11.402-4.93-23.246-5.422-37.141-18.49 15.11-32.335 31.594-45.617 51.062M769.68 481.446l59.582 28.745c-8.352-18.429-16.056-34.712-23.075-51.286-2.634-6.221-5.247-4.063-8.491-1.32-8.88 7.51-17.711 15.077-28.016 23.861M431.91 920.7c-15.614-1.154-28.513 2.426-41.477 5.572-3.18.771-5.784 2.048-6.044 5.719-.93 13.074-4.28 26.109-1.317 40.625 19.817-14.152 35.442-30.361 48.838-51.916m625.838-477.614c12.034-16.058 22.819-30.749 33.954-45.169 4.879-6.321 3.7-8.563-4.15-9.281-9.513-.869-18.942-2.664-28.4-4.113-5.542-.849-8.24.943-7.482 7.021 2.072 16.648 3.945 33.322 6.078 51.542M925.307 920.913c-6.721 9.33-11.957 15.67-16.145 22.639-5.771 9.602-21.627 17.916-17.112 27.127 3.565 7.274 20.592 7.949 31.642 11.553.819.268 1.625.6 2.463.777 4.425.937 6.324-.197 5.67-5.333-2.271-17.869-4.145-35.789-6.518-56.763M660.016 479.304c-12.207 8.592-22.078 15.549-31.961 22.488-2.687 1.887-4.426 4.152-3.557 7.691 3.549 14.459 6.71 29.066 15.922 43.052 12.315-22.947 17.595-45.892 19.596-73.231m-93.953 75.606c5.745 4.458 11.112 4.805 16.12 5.891 7.61 1.65 15.316 3.355 23.052 3.803 8.03.463 19.972 5.814 23.235-.759 3.635-7.325-7.291-14.213-12.663-20.595-16.411-19.499-16.602-19.361-34.806-2.499-4.727 4.38-9.358 8.864-14.938 14.159m474.245 303.907c-1.933-46.873-14.63-90.857-34.87-132.818 2.777 46.646 14.63 90.857 34.87 132.818M728.09 873.886c-9.824-15.343-19.361-30.357-27.881-46.018-10.101-18.568-21.236-23.797-44.123-20.143 19.064 28.088 42.659 50.24 72.004 66.161m214.789-13.692c21.318-42.944 34.686-88.013 38.6-135.739-22.17 42.597-34.683 87.983-38.6 135.739M655.094 564.376c9.415 0 17.612.245 25.785-.1 4.27-.18 8.754-.854 10.799-5.742 9.079-21.703 19.958-42.453 35.933-63.366-25.164 11.008-59.132 43.805-72.517 69.208m328.159 75.91c-2.18-49.241-14.27-96.052-34.971-142.784-3.72 27.897 15.626 107.432 34.97 142.784m-171.855 91.366c48.67-2.241 95.052-13.56 138.623-35.558-48.637 2.223-94.671 14.629-138.623 35.558m225.715 731.803c12.429-17.127 22.369-51.259 21.424-74.244-6.117 3.893-12.303 7.024-17.505 11.342-6.734 5.589-19.973 2.758-21.48 13.44-1.297 9.197 3.784 18.432 7.11 27.369 2.84 7.636 5.224 15.464 10.45 22.093m-76.33-749.16c-42.982 27.496-77.8 63.293-106.706 105.103 42.4-28.089 78.115-62.975 106.707-105.103m347.206 717.313c15.885-14.9 29.894-31.245 41.967-49.2 4.208-6.258 12.769-12.714 9.71-19.581-2.244-5.042-12.731-1.878-19.494-2.813-3.858-.534-7.801-.476-11.643-1.088-4.977-.793-7.061 1.097-7.612 6.082-2.477 22.402-8.535 44.097-12.928 66.6m-132.02-794.878c-51.16 2.625-99.988 14.854-145.953 37.958 51.15-2.6 99.939-14.451 145.954-37.958m123.966 661.63c-24.247 19.134-43.32 38.489-59.148 65.389 16.539-2.476 30.078-4.682 43.67-6.483 12.132-1.61 16.815-7.871 15.702-20.266-1.044-11.624-.224-23.417-.224-38.64m-167.423-751.316c-44.917 29.02-82.53 65.54-111.915 110.315 44.876-29.021 81.792-66.129 111.915-110.315m-499.037 926.793c-25.79-39.293-58.9-67.228-101.568-83.558 23.26 29.633 50.443 55.101 79.565 78.561 5.924 4.772 12.648 6.79 22.003 4.997m386.999-765.28c29.626 46.31 66.919 85.149 112.927 115.494-29.404-46.528-66.863-85.204-112.927-115.494M798.98 628.545c33.092 24.643 135.206 50.996 167.315 45.783-53.158-26.449-107.481-41.749-167.315-45.783m347.162 952.667c-34.127-16.403-63.304-38.378-88.888-65.812 7.025 24.903 13.048 49.66 12.753 75.474-.047 4.127 1.395 6.522 6.233 5.891 23.598-3.08 46.79-7.995 69.902-15.553m-725.37-627.284c1.749-4.536 2.437-7.978 7.943-15.548-5.506 4.129-20.702 19.623-23.4 23.399-17.204 24.088-26.204 40.045-23.725 66.633 3.223 34.567 10.866 50.066 36.763 63.196-11.782-46.36-11.625-92.137 2.419-137.68m1007.044-388.465c8.065 36.544 13.905 69.881 14.066 103.939.029 5.872.762 9.827 7.86 5.052 12.98-8.732 26.115-17.241 39.296-25.671 4.196-2.684 4.844-5.195 1.739-9.366-18.676-25.081-37.721-49.825-62.961-73.954m-171.803 759.895c12.159-13.18 25.447-24.271 39.47-34.514 2.638-1.925 3.913-4.323 3.469-7.835-3.222-25.49-6.536-50.98-17.68-74.541-5.823-12.314-14.134-22.726-25.818-30.607 14.557 49.3 14.505 98.076.559 147.497m-247.098 199.898c-33.397 33.151-72.698 55.259-117.74 67.765 33.842 7.124 67.53 8.84 101.302 9.703 5.439.138 8.017-1.966 7.966-7.572-.21-23.458 2.18-46.62 8.472-69.896M655.35 543.166c2.8-1.826 4.106-2.279 4.81-3.194 21.7-28.172 49.746-48.264 81.153-64.174 9.529-4.827 15.208-14.122 23.084-20.895 1.277-1.097 2.156-2.557.849-4.429-2.847-4.081-32.594-11.518-37.497-8.919-16.903 8.959-33.695 18.127-50.503 27.267-3.455 1.879-6.861 3.838-7.188 8.506-1.545 22.057-7.772 43.172-14.708 65.838m379.03 946.669c-15.424 30.806-23.84 60.355-25.196 91.917-.855 19.844-.877 19.982 18.298 19.314 9.095-.316 18.157-1.55 27.25-1.855 5.724-.191 7.353-2.729 7.128-8.087-1.454-34.57-8.742-67.536-27.48-101.289m-569.23-190.256c5.856-15.529 5.568-28.96 6.022-42.23 1.166-33.988-5.15-66.494-20.133-97.137-1.592-3.255-2.25-8.719-6.741-8.363-4.05.32-4.873 5.509-6.524 8.924-6.845 14.161-10.654 29.325-14.303 44.508-.681 2.832-.925 6.313.09 8.926 11.155 28.729 24.35 56.476 41.589 85.372m833.81-835.254c-29.427-17.505-57.377-30.72-86.451-41.704-5.404-2.041-5.524 2.063-6.644 5.202-4.653 13.039-8.956 26.218-14.077 39.069-4.964 12.456-10.774 24.574-17.325 39.351 40.358-20.19 80.274-32.447 124.498-41.918m-122.048 902.753c-29.606-8.574-56.34-21.697-81.193-38.681-5.306-3.625-6.625-1.242-7.254 3.778-1.37 10.916-4.547 21.407-10.478 30.622-14.115 21.927-7.312 48.229-16.674 71.27 32.933-32.725 71.688-53.712 115.599-66.989m391.14-573.361c-14.153-48.299-36.927-92.263-63.94-134.222-2.167-3.367-4.202-3.589-7.403-1.361-14.852 10.337-29.813 20.518-46.001 31.622 45.336 28.662 83.747 63.467 117.345 103.961m-628.056 441.624c-32.04-15.283-57.732-36.033-80.882-60.617 16.399 51.876 16.75 103.283.02 155.169 10.49-9.991 19.758-20.728 31.013-29.373 4.096-3.147 9.63-5.568 11.156-10.686 6.528-21.89 18.964-39.627 38.693-54.493m283.822-99.32c-3.422-13.605-11.447-20.662-20.42-26.944-31.2-21.84-65.385-37.782-101.037-50.722-14.606-5.3-28.956-11.626-47.366-15.036 44.09 56.27 98.103 87.492 168.823 92.702m-570.326 349.883c8.555 13.076 14.943 23.394 26.12 30.239 35.67 21.843 73.445 39.199 112.809 53.073 9.359 3.299 18.714 7.749 31.167 7.677-43.205-56.169-98.605-84.928-170.096-90.989m171.802-520.979c-18.5 49.428-7.173 132.625 15.128 155.379 19.596-39.621 24.417-81.363 19.116-124.522-.714-5.818-.402-12.99-8.228-16.466-8.664-3.848-16.684-9.145-26.016-14.391m34.77 134.313c33.479-36.316 74.302-59.533 123.634-72.737-38.64-16.467-77.566-23.924-116.1-38.246 2.113 19.348 3.729 37.511 2.284 55.713-1.476 18.585-5.793 36.648-9.817 55.27m373.608 276.081c-25.776 54.023-33.046 106.675-15.814 163.703 15.385-14.407 26.666-29.588 36.596-45.89 2.98-4.891 5.515-9.802 5.332-15.776-1.068-34.684-7.198-68.091-26.114-102.037m-380.652-229.627c.678 2.424.722 3.82 1.388 4.787 22.985 33.365 52.637 59 89.163 76.608 1.92.926 4.509 2.626 5.968 2.014 16.64-6.986 34.174-10.126 54.402-11.231-42.656-44.124-91.601-67.944-150.921-72.178m-38.938 34.011c-32.555 34.504-71.472 57.704-116.72 71.364 42.427 12.164 80.052 31.577 112.732 61.652-10.09-44.916-9.394-88.843 3.988-133.016M766.686 917.13c-9.234-10.579-16.94-20.432-29.37-26.344-26.238-12.481-48.658-30.688-70.09-50.922 14.179 47.586 12.612 94.718-.053 142.192 27.924-30.046 61.249-50.421 99.513-64.926m285.799 570.43c.596 6.571 4.092 9.485 6.62 12.83 22.717 30.054 52.182 51.391 85.238 69.112 20.385 10.929 35.095 3.485 50.515-8.182 4.48-3.389 4.992-5.799.558-10.048-39.744-38.08-86.86-59.274-142.931-63.712m157.539-306.157c-33.101 34.751-72.69 57.651-122.003 70.462 48.073 13.23 87.526 34.879 120.662 68.732-11.96-46.629-12.037-92.703 1.34-139.194M990.92 1481.304c-45.972-10.059-84.911-32.556-122.158-66.451 11.227 48.067 10.005 91.973-4.16 139.074 36.973-38.145 78.28-60.644 126.318-72.623m-520.755-297.691c1.396 5.944 2.132 8.816 2.742 11.714 5.455 25.941 10.905 51.817 5.503 78.601-2.31 11.45-3.292 23.166-4.958 34.75-.548 3.808.543 7.556 3.538 9.174 3.34 1.804 5.069-2.334 7.162-4.266 17.962-16.584 37.17-31.522 59.336-42.01 14.232-6.734 29.097-12.131 46.559-19.311-47.231-11.624-85.333-34.419-119.882-68.652M653.68 1017c54.564-4.99 91.719-19.41 128.164-48.841 22.158-17.895 21.783-17.495 1.52-36.505-6.788-6.369-11.806-7.261-20.36-3.792-20.672 8.383-40.13 18.685-57.688 32.335-19.914 15.48-37.225 33.43-51.636 56.803m-33.596 278.794c-3.98-.094-4.967 2.065-6.43 3.59-26.404 27.509-57.756 47.25-93.706 59.825-3.53 1.234-9.561 1.235-9.533 5.14.034 4.531 4.516 7.737 9.33 9.775 12.778 5.407 25.519 10.967 37.929 17.156 23.07 11.508 42.175 28.474 61.375 46.084-13.174-47.492-13.292-94.551 1.035-141.57M445.9 893.772c30.88-44.781 30.75-141.31 3.334-179.604-42.135 62.142-31.786 127.386-3.334 179.604m23.118-216.281c57.292.154 137.259-54.163 155.609-100.224-42.376 2.017-78.693 19.958-112.465 41.752-20.358 13.137-29.742 37.36-43.144 58.472m159.87 339.661c-24.903-50.135-114.652-101.201-168.201-95.655 42.226 57.017 96.725 89.488 168.202 95.655m435.05 53.401c12.368 48.554 11.366 96.702-4.208 144.911 34.068-37.275 75.752-61.147 123.742-74.985-46.666-12.403-85.477-35.9-119.534-69.926m136.425-4.863c-58.246-37.142-104.471-84.749-143.683-144.116-1.49 29.738-4.845 55.462-11.146 80.607-2.313 9.225-.705 12.554 8.53 15.438 44.736 13.968 89.056 29.196 130.075 52.407 6.48 3.668 10.39.509 16.224-4.336M618.76 1207.962c-12.978-47.812-13.023-95.269.32-143.306-35.194 36.388-77.1 59.744-125.718 72.067 23.557 6.91 45.817 15.21 66.83 26.762 21.503 11.82 40.058 27.377 58.568 44.477m4.592-606.622c-32.823 40.273-74.398 66.806-127.516 82.614 49.964 12.991 89.49 35.878 122.848 69.932-13.827-51.683-13.03-102.045 4.668-152.546m33.769 871.063c64.709 1.83 145.323-51.53 165.366-97.455-59.851-.784-147.57 50.912-165.366 97.455m-186.015-379.52c35.738-35.113 77.837-57.478 126.413-69.46-50.796-12.245-93.19-37.622-129.275-74.925 14.922 48.003 16.995 95.774 2.862 144.385m186.237-60.547c30.453 56.727 116.279 101.309 166.317 96.409-30.316-54.441-109.142-97.757-166.317-96.409m-23.075 226.013c-3.641-.838-4.888-1.393-6.118-1.356-3.041.092-6.083.372-9.11.72-44.563 5.125-83.83 22.741-117.141 52.397-23.824 21.21-20.46 13.678-3.694 39.791 2.345 3.653 4.904 5.092 9.749 3.673 53.56-15.684 94.86-47.376 126.314-95.225M491.854 913.06c50.646 12.455 93.685 36.94 129.608 74.636-15.132-48.919-16.575-97.359-3.086-146.526-35.234 36.586-77.043 60.42-126.522 71.89m519.272 152.576c-36.976 37.893-81.422 61.9-133.3 72.621 50.847 10.152 93.723 33.539 132.49 72.234-13.431-50.973-13.474-97.556.81-144.855m199.284 339.932c-35.378 37.929-78.39 62.004-128.12 75.078 24.342 6.673 47.15 14.871 68.68 26.398 21.918 11.735 40.965 27.381 59.753 44.3-6.313-23.874-10.664-47.61-10.586-72.043.079-24.862 2.815-49.289 10.273-73.733M468.066 870.77c36.005-36.729 78.724-59.969 128.475-71.956-51.681-12.45-94.666-38.735-130.837-77.561 15.882 49.763 16.939 99.229 2.362 149.517m357.816 275.695c-64.386 1.214-129.34 38.647-167.228 92.557-1.448 2.06-3.902 4.449-2.114 6.974 2.063 2.916 5.57 1.382 8.443 1.016 25.61-3.258 50.244-9.909 73.33-21.683 35.576-18.144 64.616-43.531 87.569-78.864m407.256 203.395c34.067-52.353 31.092-150.255-.641-194.475-31.665 49.999-31.336 149.771.64 194.475m-208.557 139.234c-64.567-2.708-146.323 47.225-172.488 99.162 72.84-5.731 129.117-38.389 172.488-99.162m-357.163-277.512c37.148-38.575 81.446-62.238 133.428-73.256-53.883-10.828-98.486-37.154-136.335-76.383 15.965 49.9 17.043 99.414 2.907 149.639m556.056-66.224c-68.89 5.253-122.094 34.278-163.132 86.113-2.152 2.718-7.198 4.937-4.213 9.699 2.753 4.393 6.72 5.437 12.284 4.727 44.549-5.684 83.075-24.296 116.447-53.833 14.594-12.918 28.263-26.83 38.614-46.706M643.367 786.636c5.65-9.874 9.577-17.969 14.647-25.272 5.675-8.175 7.988-16.02 6.45-26.431-3.687-24.946-4.05-50.016-.531-75.285 3.815-27.396-9.347-50.578-21.257-77.035-32.803 69.67-33.464 135.584.69 204.023m21.775 503.493c16.55 53.257 15.228 103.051-.546 153.175 36.442-40.592 81.892-64.365 137.826-76.59-64.238-16.781-91.61-33.493-137.28-76.585m153.763 264.664c-15.098-51.611-15.834-103.038.353-154.956-35.428 41.25-79.844 66.72-132.091 79.913 51.16 12.559 95.516 35.651 131.738 75.043m32.825-425.38c54.763 6.316 148.04-46.889 170.22-97.091-53.184-6.981-149.663 48.049-170.22 97.091m175.104 346.199c-41.16-58.917-93.765-91.934-161.44-100.477-3.615-.457-8.734-3.124-10.831.72-2.19 4.018 1.617 8.256 4.168 11.615 22.518 29.657 50.869 52.064 84.597 67.814 25.409 11.865 52.169 17.808 83.506 20.328m198.825-112.72c-22.95-49.424-104.486-103.702-151.888-101.749 7.089 11.507 13.288 23.305 14.25 36.326.87 11.789 6.054 19.408 15.724 25.079 5.63 3.301 10.852 7.304 16.499 10.574 32.15 18.619 66.57 29.211 105.415 29.77m-388.145-209.343c-36.828 53.531-29.827 167.069 1.838 195.026 31.688-50.646 30.74-151.249-1.838-195.026m-380.392-23.991c59.01 4.558 146.405-43.876 171.764-98.052-65.65-1.938-142.905 45.203-171.764 98.052m360.57-25.724c.656-1.861 1.217-2.621 1.09-3.24-.518-2.546-1.202-5.061-1.903-7.567-11.582-41.456-12.052-83.13-2.386-124.984.952-4.123 3.879-8.562-1.043-11.776-5.705-3.724-7.536 2.581-10.181 5.094-29.621 28.152-64.076 47.41-103.644 57.662-5.148 1.334-11.171.639-15.74 5.815 53.12 12.047 98.258 37.042 133.807 78.996M644.08 1237.915c33.243-47.86 32.255-149.923-1.924-198.852-33.395 56.392-32.291 145.387 1.924 198.852m-.175 28.369c-33.898 52.705-35.226 143.917-1.491 198.139 34.01-46.253 34.797-150.753 1.49-198.139m-.631-257.942c35.305-54.009 32.322-152.491-.892-197.327-33.581 57.278-32.43 146.047.892 197.327m576.945 365.668c-1.568-.925-2.303-1.745-2.99-1.707-71.273 3.964-126.411 36.931-168.144 93.819-1.393 1.899-4.143 4.187-2.31 6.862 2.015 2.94 5.49 1.693 8.414 1.409 48.693-4.741 91.442-23.42 127.892-55.88 14.46-12.881 28.13-26.81 37.138-44.503M455.31 906.696c76.08 1.102 152.954-53.809 174.748-100.085-61.626-3.489-142.448 41.241-174.748 100.085m366.175 452.671c7.766 1.929 8.027-3.068 2.534-11.948-1.817-2.938-2.984-6.364-5.151-8.986-39.924-48.306-91.202-75.364-153.505-81.574-2.885-.288-6.543-1.504-8.503 1.351-2.257 3.285 1.283 5.627 2.924 7.822 39.414 52.739 91.33 84.302 161.7 93.335M632.182 792.11c0-1.895.336-2.952-.048-3.523-39.06-58.053-93.596-90.764-162.86-99.285-3.53-.434-7.34-.706-9.011 3.282-1.671 3.985 1.858 6.418 3.83 9.079 29.16 39.325 66.973 67.032 113.526 81.943 17.457 5.593 35.62 10.086 54.563 8.504m209.952 788.99c17.047-31.552 25.182-62.282 26.199-94.887 1.074-34.383-3.963-67.629-20.165-98.491-1.707-3.254-3.338-8.406-7.73-7.468-2.398.512-4.436 5.056-5.702 8.161-10.243 25.128-17.605 50.963-18.736 78.304-1.63 39.418 6.028 76.667 26.134 114.381M445 923.533c-38.211 61.316-33.693 158.975.354 203.21 34.54-47.075 34.64-152.009-.354-203.21m592.928 112.016c-3.6.991-4.403 3.608-5.551 5.863-20.321 39.934-27.151 82.391-22.104 126.6 1.962 17.184 6.119 34.138 12.645 50.415 3.15 7.856 10.362 9.765 16.532 11.136 6.499 1.442 6.839-6.698 8.45-10.885 14.459-37.584 20.299-76.385 13.267-116.353-4.126-23.451-10.346-46.405-23.24-66.776m-417.085 212.343c3.999-.8 9.067 1.845 11.095-1.914 2.055-3.811-2.41-6.951-4.555-9.927-36.041-50.019-84.62-80.078-145.308-90.465-8.771-1.501-22.251-6.976-25.552-.7-4.2 7.981 7.498 16.101 13.4 23.129 39.519 47.049 90.129 73.471 150.92 79.877m652.073 259.876c31.345-5.146 60.203-7.296 84.379-26.677 25.189-20.192 50.076-40.673 72.444-63.95 19.835-20.643 38.999-41.942 54.842-66.107-3.917-2.343-6.846-.689-9.657-.047-28.125 6.435-56.641 9.925-85.44 10.309-8.566.114-13.323 3.255-17.652 10.276-17.886 29.018-38.231 56.482-63.356 79.415-17.021 15.536-22.502 36.484-35.56 56.781m-278.44-900.831c10.136-46.991 25.124-91.628 47.203-133.818 1.372-2.621 2.49-5.734 2.53-8.634.334-24.395-.768-48.718-4.441-72.882-.993-6.536-4.05-9.875-11.19-9.802-22.193.227-44.391.145-66.584-.095-5.642-.061-9.115 1.476-9.928 7.531-4.581 34.161-14.305 68.464 6.953 101.122 5.35 8.22 7.867 18.335 11.375 27.696 10.799 28.819 18.175 58.576 24.082 88.882m-36.205 12.08c-15.351-48.512-24.986-97.297-24.878-147.743.01-4.638-1.71-8.443-3.874-12.23-9.942-17.395-20.944-34.064-33.163-49.975-3.916-5.1-7.107-6.082-12.97-3.092-20.57 10.491-40.836 21.473-60.56 33.499-6.23 3.798-8.075 7.405-4.978 14.709 15.292 36.064 29.835 71.483 65.845 94.165 29.033 18.288 51.662 44.979 74.578 70.667m-35.673 104.695c-19.775 5.051-38.798 10.897-58.396 14.774-20.09 3.975-40.371 6.183-60.674 8.517-10.272 1.181-21.082-2.152-30.816 3.045-20.38 10.881-39.392 23.78-57.195 38.571-5.08 4.219-5.651 7.625-2.847 13.232 7.202 14.4 14.386 28.814 23.938 41.816 24.348 33.141 12.767 31.119 52.147 14.86 21.8-9 39.082-21.608 51.915-42.49 21.71-35.327 51.554-64.123 81.928-92.325m33.044 22.32c-34.996 39.736-73.802 74.28-119.23 101.081-1.775 1.047-3.458 2.734-4.461 4.528-10.401 18.598-20.667 37.276-28.475 57.164-1.635 4.164-2.623 8.17 1.835 11.729 20.11 16.056 40.695 31.332 64.176 42.288 3.465 1.617 6.21 3.008 8.982-.846 21.442-29.817 53.153-54.311 50.042-96.848-.155-2.116.622-4.291.89-6.448 4.78-38.384 13.108-75.928 26.24-112.648m-39.395-60.457c-1.732-1.869-2.165-2.794-2.753-2.906-50.398-9.584-97.786-27.312-142.391-52.564-3.107-1.759-6.235-2.901-9.863-2.798-20.464.579-40.813 2.245-61.077 5.295-6.268.943-8.743 3.677-9.796 9.816-4.301 25.073-4.7 50.156-2.324 75.443.754 8.023 5.366 10.048 11.82 11.168 20.615 3.578 41.358 5.592 62.296 5.97 7.607.137 14.256-1.44 21.102-4.98 33.669-17.412 69.053-30.298 106.087-38.542 8.663-1.929 17.337-3.806 26.899-5.902m303.68 369.65c56.226-34.608 100.794-77.728 135.798-130.704 7.047-10.665-4.162-7.99-7.851-8.272-57.571-4.392-111.937-20.076-163.733-45.271-2.262-1.101-4.76-4.513-8.257-.81 27.278 57.612 42.735 118.276 44.044 185.057m-275.43-407.152c-.795-.904-1.481-1.941-2.401-2.692-35.993-29.365-66.855-63.337-92.136-102.35-2.828-4.364-5.9-8.511-10.496-11.407-22.49-14.165-46.165-25.947-70.681-36.162-6.148-2.562-10.21-1.777-14.61 3.55-16.476 19.948-29.307 42.024-40.11 65.425-2.608 5.651-1.97 9.329 3.393 13.086 13.52 9.476 26.729 19.405 39.902 29.365 7.57 5.724 15.67 7.962 25.327 8.131 20.387.358 40.628 3.004 60.812 6.26 34.363 5.544 67.35 15.7 101 26.794m293.857-27.479c65.186 6.305 126.825 22.591 184.245 53.483 7.54 4.058 7.487-.434 7.322-6.174-1.101-38.502-7.384-76.163-18.198-113.073-1.177-4.016-1.897-8.462-5.628-11.543-13.433-11.098-26.79-22.294-40.018-33.637-4.22-3.617-7.21-3.483-10.632 1.091-32.427 43.346-72.03 79.022-117.091 109.853m-6.708 128.527c57.67 38.081 104.665 86.136 142.684 145.823 33.382-61.901 52.682-124.756 54.683-194.922-63.417 31.225-128.483 46.582-197.367 49.099m-237.087.918c-2.253 2.576-3.131 3.115-3.265 3.799-9.686 49.781-25.753 97.252-50.782 141.54-1.405 2.486-1.9 5.8-1.887 8.724.106 25.686 1.216 51.299 5.494 76.711.869 5.163 3.265 7.235 8.108 8.539 23.859 6.423 47.607 13.261 71.437 19.804 3.78 1.038 8.35 1.94 9.2-3.823 6.559-44.397 22.512-88.022-1.46-133.194-19.695-37.115-30.572-78.058-36.845-122.1m32.393-127.093c2.733-1.772 4.034-2.244 4.796-3.163 32.564-39.215 70.999-71.562 114.668-97.702 5.137-3.075 8.593-7.061 11.31-12.118 14.415-26.82 26.962-54.388 36.043-83.564 2.437-7.829 1.035-10.728-6.395-13.187-21.487-7.112-43.377-12.661-65.248-18.38-7.532-1.97-12.115.273-16.771 5.851-17.061 20.435-31.97 42.319-45.474 65.221-2.54 4.307-3.611 8.647-3.564 13.589.225 24.044-4.56 47.452-8.923 70.95-4.502 24.243-12.772 47.432-20.442 72.503m33.775 21.959c2.852.36 4.229.967 5.263.602 43.896-15.467 89.136-23.062 135.64-23.262 4.41-.019 8.45-.544 12.458-2.854 51.633-29.779 95.39-68.478 131.53-115.815 1.585-2.076 4.812-3.927 2.287-7.803-5.306-8.141-33.765-21.287-43.546-19.502-36.96 6.743-72.695 17.396-107.101 32.68-20.965 9.313-39.262 20.413-50.998 41.816-8.26 15.062-20.866 27.782-31.812 41.32-15.6 19.294-34.222 35.649-53.721 52.818m312.897 275.313c-38.602 60.72-87.395 108.007-146.235 145.778 46.628 30.994 137.015 56.975 191.99 56.462 7.977-.075 9.42-2.741 9.11-9.746-.794-17.844-2.428-35.58-5.557-53.153-8.573-48.152-23.208-94.18-49.308-139.341m-166.496 134.931c2.61-11.695-.471-20.967-1.186-30.388-4.236-55.793-20.784-107.958-45.538-157.842-4.418-8.903-10.407-15.486-18.87-20.706-30.543-18.841-57.771-41.852-82.592-67.712-9.1-9.479-17.851-19.292-26.761-28.952 11.776 37.823 22.05 76.044 22.433 115.065.304 31.093 14.827 53.55 31.246 76.579 2.02 2.836 4.162 5.589 6.279 8.355 31.75 41.496 69.572 76.335 114.989 105.601m-138.89-369.648c45.757 10.19 89.755 24.635 131.075 46.699 4.008 2.14 8.109 2.59 12.536 2.739 68.985 2.317 134.958-10.423 197.706-39.348 4.03-1.858 9.014-2.641 11.859-8.152-54.344-29.368-111.406-45.632-171.854-52.331-23.73-2.629-44.476 1.071-64.696 12.867-7.834 4.569-16.652 7.498-25.122 10.921-29.448 11.9-60.035 19.89-91.504 26.605m293.666 219.486c1.488-4.933-.698-6.904-2.034-8.966-39.044-60.23-89.118-108.904-151.507-144.744-6.71-3.855-13.808-5.021-21.184-5.628-36.647-3.015-72.288-10.737-106.998-22.812-8.747-3.043-17.437-6.249-26.153-9.38 34.785 30.83 67.327 63.425 90.25 103.14 15.406 26.692 37.636 40.783 64.044 51.739 4.009 1.664 7.925 3.555 11.952 5.172 45.486 18.274 92.628 28.937 141.63 31.479m53.196-.226c50.382-2.791 106.36-17.26 159.62-42.412 14.2-6.705 15.843-11.312 7.19-24.847-34.032-53.224-77.213-97.452-130.367-131.871-7.677-4.972-9.766-4.078-10.427 5.22-4.34 60.923-19.836 118.853-47.404 173.496-10.623 21.058-10.375 21.183 21.388 20.414m-91.22 405.394c0 10.877-1.11 21.913.413 32.574.924 6.467 45.387 7.419 49.539 1.477.249-.357.488-.726.696-1.108 33.678-61.768 52.253-127.627 54.01-198.126.184-7.336-2.33-9.962-9.637-10.104-18.755-.363-37.306-2.914-55.801-6.086-46.772-8.022-90.856-23.736-132.941-45.438-2.942-1.516-6.632-6.488-9.761-.773-2.141 3.912-1.972 8.49 2.313 11.711a280 280 0 0 1 6.188 4.822c11.279 8.987 22.054 18.558 31.225 29.707 43.32 52.661 62.113 114.049 63.756 181.344m61.99 38.243c36.46-.375 70.353-4.263 103.66-13.596 6.963-1.951 11.307-5.252 15.043-11.038 27.973-43.326 50.475-89.359 66.772-138.216 8.004-23.992 16.123-48.209 18.553-75.138-45.397 15.517-90.555 24.399-137.042 24.813-10.373.092-11.731 4.06-12.154 13.049-1.561 33.079-6.302 65.735-14.623 97.897-9.066 35.038-22.637 68.248-40.21 102.229m4.026-429.942c-.162 1.489-.613 2.509-.293 3.13 31.465 60.94 48.199 125.781 51.265 194.192.272 6.073 3.053 6.878 8.18 6.903 47.5.228 93.375-8.642 138.098-24.194 4.384-1.524 7.57-3.763 8.308-8.896 10.17-70.81 10.473-141.428-3.36-211.877-1.857-9.463-5.89-7.735-12.29-4.6-39.353 19.282-80.758 32.184-124.046 39.067-21.848 3.474-43.903 4.929-65.862 6.275M992.704 344.15c351.835-2.065 651.566 287.028 647.379 655.597-4.031 354.82-294.883 643.503-653.56 640.352-355.91-3.127-635.957-292.711-642.285-635.869-6.744-365.784 291.988-663.305 648.466-660.08"/></g></svg>