<svg xmlns="http://www.w3.org/2000/svg" xmlns:xlink="http://www.w3.org/1999/xlink" xmlns:inkscape="http://www.inkscape.org/namespaces/inkscape" version="1.1" width="1984.25" height="1984.25" viewBox="0 0 1984.25 1984.25">
<defs>
<clipPath id="clip_1">
<path transform="matrix(1,0,0,-1,0,1984.25)" d="M0 1984.252H1984.252V0H0Z"/>
</clipPath>
</defs>
<g inkscape:groupmode="layer" inkscape:label="Layer 1">
<g clip-path="url(#clip_1)">
<path transform="matrix(1,0,0,-1,878.9336,1366.626)" d="M0 0C14.379-3.957 26.533-7.301 39.538-10.879 27.506 9.478 27.506 9.478 0 0M-17.869 971.065C-18.166 971.883-18.463 972.7-18.76 973.517-33.455 969.049-48.198 964.729-62.797 959.969-65.229 959.176-71.063 959.695-68.333 954.094-66.647 950.635-63.31 949.851-59.472 951.667-45.642 958.214-31.742 964.612-17.869 971.065M-204.253 762.905C-192.956 788.655-194.532 791.684-216.967 789.551-217.394 789.51-217.827 789.519-218.257 789.522-223.496 789.566-224.338 787.146-221.59 783.166-216.731 776.125-211.992 768.956-204.253 762.905M137.99-80.657C130.234-38.659 132.269-44.617 105.222-47.892 116.464-57.973 127.339-67.483 137.99-80.657M421.103-150.957C397.279-152.088 377.33-154.364 368.143-179.611 386.194-171.074 403.118-163.095 421.103-150.957M-296.841 794.539C-323.418 805.064-329.414 802.635-344.7 775.598-328.689 781.935-313.169 788.077-296.841 794.539M-208.581 608.752C-215.918 598.466-220.436 589.713-224.145 580.493-225.11 578.093-226.548 574.881-222.693 574.471-214.433 573.592-205.235 573.314-198.74 578.104-194.77 581.032-201.055 587.064-202.402 591.791-203.814 596.747-205.902 601.509-208.581 608.752M389.574-95.689C406.545-66.551 405.34-60.626 378.494-41.829 384.395-59.856 386.512-77.135 389.574-95.689M-443.41 222.318C-475.548 225.717-480.793 219.251-469.079 192.364-468.936 192.037-468.373 191.894-466.931 190.993-457.877 200.143-449.12 209.658-443.41 222.318M2.867 802.361C22.489 775.885 44.719 751.95 71.556 732.505 52.399 759.436 29.766 782.977 2.867 802.361M-452.759 492.498C-461.041 515.707-464.312 536.777-467.873 557.779-483.768 520.026-483.3 517.881-452.759 492.498M278.89 638.748C247.326 652.907 215.012 663.271 180.815 666.803 211.818 651.198 244.786 642.467 278.89 638.748M-112.165 484.958C-106.992 476.262-99.694 470.689-93.515 464.13-90.697 461.138-88.066 459.618-85.792 464.775-80.194 477.472-74.484 490.119-67.835 504.985-84.26 497.565-98.006 491.354-112.165 484.958M-131.413 934.885C-105.925 919.971-105.461 919.989-85.894 934.656-84.16 935.956-82.003 936.864-80.655 938.468-78.499 941.035-71.801 941.267-75.178 946.787-77.601 950.749-80.756 954.336-86.893 951.848-100.877 946.179-115.085 941.062-131.413 934.885M-135.137 751.513C-139.175 758.108-144.643 760.254-149.083 763.524-176.471 783.696-176.522 783.628-182.418 748.934-182.472 748.621-182.132 748.241-181.522 746.875-166.61 748.366-151.361 749.891-135.137 751.513M54.305 927.297C55.612 939.668 56.837 948.703 57.445 957.779 57.98 965.776 64.308 977.576 58.038 980.805 50.438 984.72 40.216 977.021 31.372 973.521 26.352 971.535 24.561 969.268 28.455 964.049 36.706 952.993 44.375 941.502 54.305 927.297M-444.92 236.681C-457.794 255.704-470.957 271.687-489.556 284.263-483.658 237.963-489.958 237.935-444.92 236.681M-130.096 618.039C-140.203 621.371-148.866 620.86-157.318 621.827-166.613 622.891-181.862 628.678-183.949 624.001-188.215 614.44-180.427 602.755-177.405 591.994-177.288 591.576-177.091 591.182-176.933 590.775-175.476 587.026-173.508 586.46-170.095 588.987-157.291 598.467-144.328 607.731-130.096 618.039M365.722-6.301C378.224-24.459 389.991-39.497 405.87-51.929 411.024-41.611 412.243-31.723 414.417-22.091 415.77-16.098 413.418-13.302 407.585-11.984 394.872-9.112 382.218-6.106 365.722-6.301M-441.92 459.336C-453.856 478.2-466.261 493.389-483.461 506.33-485.685 494.709-487.475 484.928-489.454 475.186-490.583 469.625-489.268 466.151-483.103 464.847-470.42 462.164-457.781 459.409-441.92 459.336M127.263 733.497C144.212 760.64 164.531 839.011 160.511 860.662 142.323 819.102 130.467 777.483 127.263 733.497M-27.702 8.579C-10.589 7.642 3.985 10.425 18.545 14.113 23.769 15.437 24.796 18.072 23.337 22.5 19.58 33.902 18.408 45.746 17.915 59.641-.574 44.531-14.42 28.047-27.702 8.579M-109.253 885.18C-88.56 875.196-70.067 866.275-49.671 856.435-58.023 874.864-65.727 891.147-72.746 907.721-75.38 913.942-77.993 911.784-81.237 909.041-90.117 901.531-98.948 893.964-109.253 885.18M-447.024 445.926C-462.638 447.08-475.537 443.5-488.501 440.354-491.68 439.583-494.285 438.306-494.545 434.635-495.475 421.561-498.825 408.526-495.862 394.01-476.045 408.162-460.42 424.371-447.024 445.926M178.814 923.54C190.848 939.598 201.633 954.289 212.768 968.709 217.647 975.03 216.469 977.272 208.618 977.99 199.105 978.859 189.676 980.654 180.219 982.103 174.676 982.952 171.979 981.16 172.736 975.082 174.808 958.434 176.681 941.76 178.814 923.54M46.373 445.713C39.652 436.383 34.416 430.043 30.228 423.074 24.457 413.472 8.601 405.158 13.116 395.947 16.681 388.673 33.708 387.998 44.758 384.394 45.577 384.126 46.383 383.794 47.221 383.617 51.646 382.68 53.545 383.814 52.892 388.95 50.62 406.819 48.746 424.739 46.373 445.713M-218.918 887.322C-231.125 878.73-240.996 871.773-250.879 864.834-253.566 862.947-255.305 860.682-254.436 857.143-250.887 842.684-247.725 828.077-238.514 814.091-226.199 837.038-220.919 859.983-218.918 887.322M-312.871 811.716C-307.126 807.258-301.759 806.911-296.75 805.825-289.14 804.175-281.435 802.47-273.699 802.022-265.669 801.559-253.727 796.208-250.464 802.781-246.829 810.106-257.755 816.994-263.127 823.376-279.538 842.875-279.729 842.737-297.933 825.875-302.66 821.495-307.291 817.011-312.871 811.716M161.374 507.809C159.441 554.682 146.745 598.666 126.504 640.627 129.281 593.981 141.134 549.77 161.374 507.809M-150.843 492.74C-160.667 508.083-170.204 523.097-178.724 538.758-188.825 557.326-199.96 562.555-222.847 558.901-203.783 530.813-180.188 508.661-150.843 492.74M63.946 506.432C85.264 549.376 98.632 594.445 102.546 642.171 80.376 599.574 67.863 554.188 63.946 506.432M-223.84 802.25C-214.425 802.25-206.228 802.005-198.055 802.35-193.785 802.53-189.301 803.204-187.256 808.092-178.177 829.795-167.298 850.545-151.323 871.458-176.487 860.45-210.455 827.653-223.84 802.25M104.319 726.34C102.14 775.581 90.049 822.392 69.348 869.124 65.628 841.227 84.974 761.692 104.319 726.34M-67.537 634.974C-18.866 637.215 27.515 648.534 71.086 670.532 22.449 668.309-23.585 655.903-67.537 634.974M158.178-96.829C170.607-79.702 180.547-45.57 179.602-22.585 173.485-26.478 167.299-29.609 162.097-33.927 155.363-39.516 142.124-36.685 140.617-47.367 139.32-56.564 144.401-65.799 147.727-74.736 150.567-82.372 152.951-90.2 158.178-96.829M81.848 652.331C38.865 624.835 4.047 589.038-24.859 547.228 17.541 575.317 53.256 610.203 81.848 652.331M429.054-64.982C444.939-50.082 458.948-33.737 471.021-15.782 475.229-9.524 483.79-3.068 480.732 3.799 478.487 8.841 468 5.677 461.237 6.612 457.379 7.146 453.436 7.088 449.594 7.7 444.617 8.493 442.533 6.603 441.982 1.618 439.505-20.784 433.447-42.479 429.054-64.982M297.035 729.896C245.874 727.271 197.046 715.042 151.081 691.938 202.232 694.538 251.02 706.389 297.035 729.896M421.001 68.266C396.754 49.132 377.681 29.777 361.853 2.877 378.392 5.353 391.931 7.559 405.523 9.36 417.655 10.97 422.338 17.231 421.225 29.626 420.181 41.25 421.001 53.043 421.001 68.266M253.578 819.582C208.661 790.562 171.048 754.042 141.663 709.267 186.539 738.288 223.455 775.396 253.578 819.582M-245.459-107.211C-271.248-67.918-304.358-39.983-347.027-23.653-323.767-53.286-296.584-78.754-267.462-102.214-261.538-106.986-254.814-109.004-245.459-107.211M141.54 658.069C171.166 611.759 208.459 572.92 254.467 542.575 225.063 589.103 187.604 627.779 141.54 658.069M-79.954 738.081C-46.862 713.438 55.252 687.085 87.361 692.298 34.203 718.747-20.12 734.047-79.954 738.081M267.208-214.586C233.081-198.183 203.904-176.208 178.32-148.774 185.345-173.677 191.368-198.434 191.073-224.248 191.026-228.375 192.468-230.77 197.306-230.139 220.904-227.059 244.096-222.144 267.208-214.586M-458.162 412.698C-456.413 417.234-455.725 420.676-450.219 428.246-455.725 424.117-470.921 408.623-473.618 404.847-490.823 380.759-499.823 364.802-497.344 338.214-494.121 303.647-486.478 288.148-460.581 275.018-472.363 321.378-472.206 367.155-458.162 412.698M548.882 801.163C556.947 764.619 562.787 731.282 562.948 697.224 562.977 691.352 563.71 687.397 570.808 692.172 583.789 700.904 596.923 709.413 610.104 717.843 614.3 720.527 614.948 723.038 611.843 727.209 593.167 752.29 574.122 777.034 548.882 801.163M377.079 41.268C389.238 54.448 402.526 65.539 416.55 75.782 419.187 77.707 420.462 80.105 420.018 83.617 416.796 109.107 413.482 134.597 402.338 158.158 396.515 170.472 388.204 180.884 376.52 188.765 391.077 139.465 391.025 90.689 377.079 41.268M129.981-158.63C96.584-191.781 57.283-213.889 12.241-226.395 46.083-233.519 79.771-235.235 113.543-236.098 118.982-236.236 121.56-234.132 121.509-228.526 121.299-205.068 123.69-181.906 129.981-158.63M-223.583 823.46C-220.783 825.286-219.477 825.739-218.772 826.654-197.073 854.826-169.027 874.918-137.62 890.828-128.091 895.655-122.412 904.95-114.536 911.723-113.259 912.82-112.38 914.28-113.687 916.152-116.534 920.233-146.281 927.67-151.184 925.071-168.087 916.112-184.879 906.944-201.687 897.804-205.142 895.925-208.548 893.966-208.875 889.298-210.42 867.241-216.647 846.126-223.583 823.46M155.448-123.209C140.023-154.015 131.608-183.564 130.251-215.126 129.396-234.97 129.374-235.108 148.549-234.44 157.644-234.124 166.706-232.89 175.8-232.585 181.523-232.394 183.152-229.856 182.927-224.498 181.473-189.928 174.185-156.962 155.448-123.209M-413.785 67.047C-407.929 82.576-408.217 96.007-407.763 109.277-406.597 143.265-412.912 175.771-427.896 206.414-429.488 209.669-430.146 215.133-434.637 214.777-438.687 214.457-439.51 209.268-441.161 205.853-448.006 191.692-451.815 176.528-455.464 161.345-456.145 158.513-456.389 155.032-455.374 152.419-444.219 123.69-431.023 95.943-413.785 67.047M420.026 902.301C390.598 919.806 362.648 933.021 333.574 944.005 328.17 946.046 328.05 941.942 326.93 938.803 322.277 925.764 317.974 912.585 312.853 899.734 307.889 887.278 302.079 875.16 295.528 860.383 335.886 880.573 375.802 892.83 420.026 902.301M297.978-.452C268.372 8.122 241.639 21.245 216.785 38.229 211.479 41.854 210.16 39.471 209.531 34.451 208.162 23.535 204.984 13.044 199.053 3.829 184.938-18.098 191.741-44.4 182.379-67.441 215.312-34.716 254.067-13.729 297.978-.452M689.119 572.909C674.965 621.208 652.191 665.172 625.178 707.131 623.011 710.498 620.976 710.72 617.775 708.492 602.923 698.155 587.962 687.974 571.774 676.87 617.11 648.208 655.521 613.403 689.119 572.909M61.063 131.285C29.024 146.568 3.331 167.318-19.819 191.902-3.42 140.026-3.069 88.619-19.799 36.733-9.309 46.724-.041 57.461 11.214 66.106 15.31 69.253 20.844 71.674 22.37 76.792 28.898 98.682 41.334 116.419 61.063 131.285M344.885 230.605C341.463 244.21 333.438 251.267 324.465 257.549 293.265 279.389 259.08 295.331 223.428 308.271 208.822 313.571 194.472 319.897 176.062 323.307 220.152 267.037 274.165 235.815 344.885 230.605M-225.441-119.278C-216.886-132.354-210.498-142.672-199.321-149.517-163.65-171.36-125.876-188.716-86.512-202.59-77.153-205.889-67.798-210.339-55.345-210.267-98.55-154.098-153.95-125.339-225.441-119.278M-53.639 401.701C-72.138 352.273-60.812 269.076-38.511 246.322-18.915 285.943-14.094 327.685-19.395 370.844-20.109 376.662-19.797 383.834-27.623 387.31-36.287 391.158-44.307 396.455-53.639 401.701M-18.868 267.388C14.61 303.704 55.433 326.921 104.765 340.125 66.126 356.592 27.199 364.049-11.334 378.371-9.222 359.023-7.606 340.86-9.051 322.658-10.527 304.073-14.844 286.01-18.868 267.388M354.74-8.693C328.964-62.716 321.694-115.368 338.926-172.396 354.311-157.989 365.592-142.808 375.522-126.506 378.502-121.615 381.037-116.704 380.854-110.73 379.786-76.046 373.656-42.639 354.74-8.693M-25.912 220.934C-25.234 218.51-25.19 217.114-24.524 216.147-1.539 182.782 28.113 157.147 64.639 139.539 66.559 138.613 69.148 136.913 70.607 137.525 87.247 144.511 104.781 147.651 125.009 148.756 82.353 192.88 33.408 216.7-25.912 220.934M-64.85 186.923C-97.405 152.419-136.322 129.219-181.569 115.559-139.143 103.395-101.518 83.982-68.838 53.907-78.927 98.823-78.232 142.75-64.85 186.923M-112.248 449.496C-121.482 460.075-129.188 469.928-141.617 475.84-167.856 488.321-190.276 506.528-211.707 526.762-197.529 479.176-199.096 432.044-211.761 384.57-183.837 414.616-150.512 434.991-112.248 449.496M173.551-120.934C174.147-127.505 177.643-130.419 180.171-133.764 202.888-163.818 232.353-185.155 265.409-202.876 285.794-213.805 300.504-206.361 315.924-194.694 320.404-191.305 320.916-188.895 316.482-184.646 276.738-146.566 229.623-125.372 173.551-120.934M331.09 185.223C297.989 150.472 258.401 127.572 209.087 114.761 257.16 101.531 296.613 79.882 329.749 46.029 317.789 92.658 317.712 138.732 331.09 185.223M111.986-114.678C66.014-104.619 27.075-82.122-10.172-48.227 1.055-96.294-.167-140.2-14.331-187.301 22.641-149.156 63.948-126.657 111.986-114.678M-408.769 183.013C-407.373 177.069-406.637 174.197-406.027 171.299-400.572 145.358-395.122 119.482-400.524 92.698-402.834 81.248-403.816 69.532-405.482 57.948-406.03 54.14-404.939 50.392-401.944 48.774-398.604 46.97-396.875 51.108-394.782 53.04-376.82 69.624-357.611 84.562-335.446 95.05-321.214 101.784-306.349 107.181-288.887 114.361-336.118 125.985-374.22 148.78-408.769 183.013M-225.253 349.626C-170.689 354.616-133.534 369.036-97.089 398.467-74.931 416.362-75.306 415.962-95.568 434.972-102.357 441.341-107.375 442.233-115.929 438.764-136.601 430.381-156.058 420.079-173.617 406.429-193.531 390.949-210.842 372.999-225.253 349.626M-258.849 70.832C-262.828 70.926-263.816 68.767-265.279 67.242-291.683 39.733-323.035 19.992-358.985 7.417-362.515 6.183-368.546 6.182-368.518 2.277-368.484-2.254-364.002-5.46-359.187-7.498-346.41-12.905-333.669-18.465-321.259-24.654-298.188-36.162-279.084-53.128-259.884-70.738-273.058-23.246-273.176 23.813-258.849 70.832M-433.034 472.854C-402.153 517.635-402.283 614.164-429.7 652.458-471.835 590.316-461.486 525.072-433.034 472.854M-409.916 689.135C-352.624 688.981-272.657 743.298-254.307 789.359-296.683 787.342-333 769.401-366.772 747.607-387.13 734.47-396.514 710.247-409.916 689.135M-250.045 349.474C-274.949 399.609-364.698 450.675-418.247 445.129-376.021 388.112-321.522 355.641-250.045 349.474M185.005 296.073C197.373 247.519 196.371 199.371 180.797 151.162 214.865 188.437 256.549 212.309 304.539 226.147 257.873 238.55 219.062 262.047 185.005 296.073M321.43 300.936C263.184 338.078 216.959 385.685 177.747 445.052 176.257 415.314 172.902 389.59 166.601 364.445 164.288 355.22 165.896 351.891 175.131 349.007 219.867 335.039 264.187 319.811 305.206 296.6 311.687 292.932 315.596 296.091 321.43 300.936M-260.173 158.664C-273.151 206.476-273.196 253.933-259.853 301.97-295.047 265.582-336.953 242.226-385.571 229.903-362.014 222.993-339.754 214.693-318.74 203.141-297.238 191.321-278.683 175.764-260.173 158.664M-255.581 765.286C-288.404 725.013-329.979 698.48-383.097 682.672-333.133 669.681-293.606 646.794-260.249 612.74-274.076 664.423-273.278 714.785-255.581 765.286M-221.812-105.777C-157.103-107.607-76.489-54.247-56.446-8.322-116.297-7.538-204.016-59.234-221.812-105.777M-407.827 273.743C-372.089 308.856-329.99 331.221-281.414 343.203-332.21 355.448-374.604 380.825-410.689 418.128-395.767 370.125-393.694 322.354-407.827 273.743M-221.59 334.29C-191.137 277.563-105.311 232.981-55.273 237.881-85.589 292.322-164.415 335.638-221.59 334.29M-244.665 108.277C-248.306 109.115-249.553 109.67-250.783 109.633-253.824 109.541-256.866 109.261-259.892 108.913-304.456 103.788-343.723 86.172-377.034 56.516-400.858 35.306-397.493 42.838-380.728 16.725-378.383 13.072-375.824 11.633-370.979 13.052-317.418 28.736-276.118 60.428-244.665 108.277M-387.08 453.566C-336.434 441.111-293.395 416.626-257.472 378.93-272.604 427.849-274.047 476.289-260.558 525.456-295.792 488.87-337.601 465.036-387.08 453.566M132.192 300.99C95.216 263.097 50.77 239.09-1.108 228.369 49.739 218.217 92.615 194.83 131.383 156.135 117.951 207.108 117.908 253.691 132.192 300.99M331.476-38.942C296.098-76.871 253.087-100.946 203.357-114.02 227.698-120.693 250.506-128.891 272.036-140.418 293.954-152.153 313.001-167.799 331.789-184.718 325.476-160.844 321.125-137.108 321.203-112.675 321.282-87.813 324.018-63.386 331.476-38.942M-410.868 495.856C-374.863 532.585-332.144 555.825-282.393 567.812-334.074 580.262-377.059 606.547-413.23 645.373-397.348 595.61-396.291 546.144-410.868 495.856M-53.052 220.161C-117.438 218.947-182.392 181.514-220.28 127.604-221.728 125.544-224.182 123.155-222.394 120.63-220.331 117.714-216.824 119.248-213.951 119.614-188.34 122.872-163.707 129.523-140.621 141.297-105.045 159.441-76.005 184.828-53.052 220.161M354.204 16.766C388.271 69.119 385.296 167.021 353.563 211.241 321.898 161.242 322.227 61.47 354.204 16.766M145.646-122.468C81.079-119.76-.677-169.693-26.842-221.63 45.999-215.899 102.275-183.241 145.646-122.468M-211.517 155.044C-174.369 193.619-130.071 217.282-78.089 228.3-131.972 239.128-176.575 265.454-214.424 304.683-198.459 254.783-197.381 205.269-211.517 155.044M344.539 221.268C275.65 216.015 222.445 186.99 181.407 135.155 179.255 132.437 174.209 130.218 177.194 125.456 179.947 121.063 183.914 120.019 189.478 120.729 234.027 126.413 272.553 145.025 305.925 174.562 320.519 187.48 334.188 201.392 344.539 221.268M-235.567 579.99C-229.917 589.864-225.99 597.959-220.92 605.262-215.245 613.437-212.932 621.282-214.47 631.693-218.157 656.639-218.52 681.709-215.001 706.978-211.186 734.374-224.348 757.556-236.258 784.013-269.061 714.343-269.722 648.429-235.567 579.99M-213.793 76.497C-197.243 23.24-198.565-26.554-214.339-76.678-177.897-36.086-132.447-12.313-76.513-.088-140.751 16.693-168.122 33.405-213.793 76.497M-60.03-188.167C-75.128-136.556-75.864-85.129-59.677-33.211-95.105-74.461-139.521-99.931-191.768-113.124-140.607-125.683-96.252-148.775-60.03-188.167M-27.205 237.213C27.558 230.897 120.836 284.102 143.016 334.304 89.831 341.285-6.648 286.255-27.205 237.213M147.899-108.986C106.74-50.069 54.134-17.052-13.54-8.509-17.156-8.052-22.275-5.385-24.372-9.229-26.562-13.247-22.755-17.485-20.204-20.844 2.314-50.501 30.665-72.908 64.393-88.658 89.802-100.523 116.562-106.466 147.899-108.986M346.724 3.734C323.774 53.158 242.238 107.436 194.836 105.483 201.925 93.976 208.124 82.178 209.086 69.157 209.956 57.368 215.14 49.749 224.81 44.078 230.44 40.777 235.662 36.774 241.309 33.504 273.46 14.885 307.879 4.293 346.724 3.734M-41.421 213.077C-78.249 159.546-71.248 46.008-39.583 18.051-7.895 68.697-8.842 169.3-41.421 213.077M-421.813 237.068C-362.802 232.51-275.408 280.944-250.049 335.12-315.699 337.058-392.954 289.917-421.813 237.068M-61.243 262.792C-60.587 264.653-60.026 265.413-60.152 266.032-60.671 268.578-61.355 271.093-62.056 273.599-73.638 315.055-74.108 356.729-64.442 398.583-63.49 402.706-60.563 407.145-65.485 410.359-71.19 414.083-73.021 407.778-75.666 405.265-105.287 377.113-139.742 357.855-179.31 347.603-184.458 346.269-190.481 346.964-195.05 341.788-141.93 329.741-96.792 304.746-61.243 262.792M-234.854 128.711C-201.611 176.571-202.599 278.634-236.778 327.563-270.173 271.171-269.069 182.176-234.854 128.711M-235.029 100.342C-268.927 47.637-270.255-43.575-236.52-97.797-202.509-51.544-201.723 52.956-235.029 100.342M-235.661 358.284C-200.356 412.293-203.339 510.775-236.553 555.611-270.134 498.333-268.983 409.564-235.661 358.284M341.284-7.384C339.716-6.459 338.981-5.639 338.295-5.677 267.021-9.641 211.883-42.608 170.15-99.496 168.757-101.395 166.007-103.683 167.841-106.358 169.855-109.298 173.33-108.051 176.254-107.767 224.947-103.026 267.696-84.347 304.146-51.887 318.607-39.006 332.276-25.077 341.284-7.384M-423.624 459.93C-347.543 458.828-270.67 513.739-248.876 560.015-310.502 563.504-391.324 518.774-423.624 459.93M-57.449 7.259C-49.683 5.33-49.422 10.327-54.915 19.207-56.732 22.145-57.899 25.571-60.066 28.193-99.99 76.499-151.268 103.557-213.571 109.767-216.456 110.055-220.114 111.271-222.074 108.416-224.331 105.131-220.791 102.789-219.15 100.594-179.736 47.855-127.82 16.292-57.449 7.259M-246.753 574.516C-246.753 576.411-246.417 577.468-246.801 578.039-285.861 636.092-340.397 668.803-409.661 677.324-413.19 677.758-417 678.03-418.672 674.042-420.343 670.057-416.814 667.624-414.841 664.963-385.682 625.638-347.869 597.931-301.316 583.02-283.859 577.427-265.696 572.934-246.753 574.516M-36.801-214.474C-19.754-182.922-11.619-152.192-10.602-119.587-9.528-85.204-14.565-51.958-30.767-21.096-32.474-17.842-34.105-12.69-38.497-13.628-40.895-14.14-42.933-18.684-44.199-21.789-54.442-46.917-61.804-72.752-62.935-100.093-64.564-139.511-56.907-176.76-36.801-214.474M-433.933 443.093C-472.144 381.777-467.626 284.118-433.579 239.883-399.038 286.958-398.939 391.892-433.933 443.093M158.995 331.077C155.396 330.086 154.592 327.469 153.444 325.214 133.123 285.28 126.293 242.823 131.34 198.614 133.302 181.43 137.459 164.476 143.985 148.199 147.136 140.343 154.347 138.434 160.517 137.063 167.016 135.621 167.356 143.761 168.967 147.948 183.426 185.532 189.266 224.333 182.234 264.301 178.108 287.752 171.888 310.706 158.995 331.077M-258.091 118.734C-254.092 119.534-249.024 116.889-246.996 120.648-244.941 124.459-249.406 127.599-251.551 130.575-287.592 180.594-336.171 210.653-396.859 221.04-405.63 222.541-419.11 228.016-422.411 221.74-426.61 213.759-414.913 205.639-409.01 198.611-369.492 151.562-318.882 125.14-258.091 118.734M393.982-141.142C425.327-135.996 454.185-133.846 478.361-114.465 503.55-94.273 528.437-73.792 550.805-50.515 570.64-29.872 589.804-8.573 605.647 15.592 601.73 17.935 598.801 16.281 595.99 15.639 567.865 9.204 539.349 5.714 510.551 5.33 501.984 5.216 497.227 2.075 492.898-4.946 475.012-33.964 454.667-61.428 429.542-84.361 412.521-99.897 407.04-120.845 393.982-141.142M115.541 759.689C125.677 806.68 140.665 851.317 162.744 893.507 164.116 896.128 165.235 899.241 165.275 902.141 165.608 926.536 164.506 950.859 160.833 975.023 159.84 981.559 156.784 984.898 149.644 984.825 127.45 984.598 105.252 984.68 83.059 984.92 77.417 984.981 73.944 983.444 73.131 977.389 68.55 943.228 58.826 908.925 80.084 876.267 85.435 868.047 87.951 857.932 91.459 848.571 102.258 819.752 109.634 789.995 115.541 759.689M79.336 747.609C63.985 796.121 54.35 844.906 54.458 895.352 54.469 899.99 52.749 903.795 50.584 907.582 40.642 924.977 29.64 941.646 17.421 957.557 13.505 962.657 10.314 963.639 4.452 960.649-16.119 950.158-36.385 939.176-56.108 927.15-62.339 923.352-64.184 919.745-61.087 912.441-45.795 876.377-31.252 840.958 4.758 818.276 33.791 799.988 56.42 773.297 79.336 747.609M43.663 642.914C23.888 637.863 4.865 632.017-14.733 628.14-34.823 624.165-55.104 621.957-75.407 619.623-85.679 618.442-96.489 621.775-106.223 616.578-126.603 605.697-145.615 592.798-163.418 578.007-168.497 573.788-169.069 570.382-166.265 564.775-159.063 550.375-151.879 535.961-142.327 522.959-117.979 489.818-129.56 491.84-90.18 508.099-68.379 517.099-51.098 529.707-38.265 550.589-16.554 585.916 13.289 614.712 43.663 642.914M76.707 620.594C41.711 580.858 2.905 546.314-42.523 519.513-44.298 518.466-45.981 516.779-46.984 514.985-57.385 496.387-67.651 477.709-75.459 457.821-77.094 453.657-78.082 449.651-73.624 446.092-53.514 430.036-32.929 414.76-9.448 403.804-5.983 402.187-3.238 400.796-.466 404.65 20.976 434.467 52.687 458.961 49.576 501.498 49.421 503.614 50.198 505.789 50.467 507.946 55.246 546.33 63.574 583.874 76.707 620.594M37.311 681.051C35.579 682.92 35.146 683.845 34.558 683.957-15.84 693.541-63.228 711.269-107.833 736.521-110.94 738.28-114.068 739.422-117.696 739.319-138.16 738.74-158.509 737.074-178.773 734.024-185.041 733.081-187.516 730.347-188.569 724.208-192.87 699.135-193.269 674.052-190.893 648.765-190.139 640.742-185.527 638.717-179.073 637.597-158.458 634.019-137.715 632.005-116.777 631.627-109.17 631.49-102.521 633.067-95.675 636.607-62.006 654.019-26.622 666.905 10.412 675.149 19.075 677.078 27.749 678.955 37.311 681.051M340.992 311.401C397.217 346.009 441.785 389.129 476.789 442.105 483.836 452.77 472.627 450.095 468.938 450.377 411.367 454.769 357.001 470.453 305.205 495.648 302.943 496.749 300.445 500.161 296.948 496.458 324.226 438.846 339.683 378.182 340.992 311.401M65.562 718.553C64.767 719.457 64.081 720.494 63.161 721.245 27.168 750.61-3.694 784.582-28.975 823.595-31.803 827.959-34.874 832.106-39.471 835.002-61.96 849.167-85.636 860.949-110.152 871.164-116.3 873.726-120.361 872.941-124.761 867.614-141.238 847.666-154.069 825.59-164.872 802.189-167.48 796.538-166.841 792.86-161.479 789.103-147.958 779.627-134.75 769.698-121.577 759.738-114.007 754.014-105.906 751.776-96.25 751.607-75.863 751.249-55.622 748.603-35.438 745.347-1.075 739.803 31.913 729.647 65.562 718.553M359.419 746.032C424.605 739.727 486.244 723.441 543.664 692.549 551.205 688.491 551.151 692.983 550.986 698.723 549.885 737.225 543.602 774.886 532.788 811.796 531.611 815.812 530.891 820.258 527.16 823.339 513.727 834.437 500.37 845.633 487.142 856.976 482.923 860.593 479.932 860.459 476.51 855.885 444.083 812.539 404.48 776.863 359.419 746.032M352.711 617.505C410.381 579.424 457.376 531.369 495.395 471.682 528.777 533.583 548.077 596.438 550.078 666.604 486.661 635.379 421.595 620.022 352.711 617.505M115.624 616.587C113.371 614.011 112.493 613.472 112.359 612.788 102.673 563.007 86.606 515.536 61.577 471.248 60.172 468.762 59.678 465.448 59.69 462.524 59.796 436.838 60.906 411.225 65.184 385.813 66.053 380.65 68.449 378.578 73.292 377.274 97.151 370.851 120.899 364.013 144.729 357.47 148.509 356.432 153.079 355.53 153.93 361.293 160.488 405.69 176.441 449.315 152.47 494.487 132.774 531.602 121.897 572.545 115.624 616.587M148.017 743.68C150.75 745.452 152.051 745.924 152.813 746.843 185.377 786.058 223.812 818.405 267.481 844.545 272.618 847.62 276.074 851.606 278.792 856.663 293.206 883.483 305.753 911.051 314.834 940.227 317.271 948.056 315.869 950.955 308.439 953.414 286.952 960.526 265.062 966.075 243.191 971.794 235.659 973.764 231.076 971.521 226.42 965.943 209.359 945.508 194.451 923.624 180.946 900.722 178.406 896.415 177.335 892.075 177.382 887.133 177.607 863.089 172.822 839.681 168.459 816.183 163.957 791.94 155.687 768.751 148.017 743.68M181.792 721.721C184.644 721.361 186.021 720.754 187.055 721.119 230.951 736.586 276.191 744.181 322.695 744.381 327.105 744.4 331.146 744.925 335.153 747.235 386.786 777.014 430.544 815.713 466.683 863.05 468.268 865.126 471.495 866.977 468.97 870.853 463.664 878.994 435.205 892.14 425.424 890.355 388.464 883.612 352.729 872.959 318.323 857.675 297.358 848.362 279.061 837.262 267.325 815.859 259.065 800.797 246.459 788.077 235.513 774.539 219.913 755.245 201.291 738.89 181.792 721.721M494.689 446.408C456.087 385.688 407.294 338.401 348.454 300.63 395.082 269.636 485.469 243.655 540.444 244.168 548.421 244.243 549.865 246.909 549.554 253.914 548.76 271.758 547.126 289.494 543.997 307.067 535.424 355.219 520.789 401.247 494.689 446.408M328.193 311.477C330.803 323.172 327.722 332.444 327.007 341.865 322.771 397.658 306.223 449.823 281.469 499.707 277.051 508.61 271.062 515.193 262.599 520.413 232.056 539.254 204.828 562.265 180.007 588.125 170.908 597.604 162.156 607.417 153.246 617.077 165.022 579.254 175.297 541.033 175.679 502.012 175.983 470.919 190.506 448.462 206.925 425.433 208.946 422.597 211.087 419.844 213.204 417.078 244.955 375.582 282.776 340.743 328.193 311.477M189.303 681.125C235.06 670.935 279.058 656.49 320.378 634.426 324.386 632.286 328.487 631.836 332.914 631.687 401.899 629.37 467.872 642.11 530.62 671.035 534.651 672.893 539.634 673.676 542.479 679.187 488.135 708.555 431.073 724.819 370.625 731.518 346.896 734.147 326.149 730.447 305.929 718.651 298.095 714.082 289.277 711.153 280.807 707.73 251.359 695.83 220.772 687.84 189.303 681.125M482.969 461.639C484.457 466.572 482.271 468.543 480.935 470.605 441.891 530.835 391.817 579.509 329.428 615.349 322.718 619.204 315.62 620.37 308.244 620.977 271.597 623.992 235.956 631.714 201.246 643.789 192.499 646.832 183.809 650.038 175.093 653.169 209.878 622.339 242.42 589.744 265.343 550.029 280.749 523.337 302.979 509.246 329.387 498.29 333.396 496.626 337.312 494.735 341.339 493.118 386.825 474.844 433.967 464.181 482.969 461.639M536.165 461.865C586.547 464.656 642.526 479.125 695.786 504.277 709.986 510.982 711.628 515.589 702.975 529.124 668.943 582.348 625.762 626.576 572.608 660.995 564.931 665.967 562.842 665.073 562.181 655.775 557.842 594.852 542.345 536.922 514.777 482.279 504.154 461.221 504.402 461.096 536.165 461.865M444.945 56.471C444.945 45.594 443.836 34.558 445.358 23.897 446.282 17.43 490.745 16.478 494.897 22.42 495.146 22.777 495.385 23.146 495.593 23.528 529.271 85.296 547.846 151.155 549.604 221.654 549.787 228.99 547.273 231.616 539.966 231.758 521.211 232.121 502.66 234.672 484.165 237.844 437.393 245.866 393.309 261.58 351.224 283.282 348.282 284.798 344.592 289.77 341.463 284.055 339.322 280.143 339.491 275.565 343.776 272.344 345.866 270.772 347.919 269.152 349.964 267.522 361.243 258.535 372.018 248.964 381.189 237.815 424.509 185.154 443.302 123.766 444.945 56.471M506.935 18.228C543.395 18.603 577.288 22.491 610.595 31.824 617.558 33.775 621.902 37.076 625.638 42.862 653.611 86.188 676.113 132.221 692.41 181.078 700.414 205.07 708.533 229.287 710.963 256.216 665.566 240.699 620.408 231.817 573.921 231.403 563.548 231.311 562.19 227.343 561.767 218.354 560.206 185.275 555.465 152.619 547.144 120.457 538.078 85.419 524.507 52.209 506.935 18.228M510.96 448.17C510.798 446.681 510.347 445.661 510.667 445.04 542.132 384.1 558.866 319.259 561.932 250.848 562.204 244.775 564.985 243.97 570.112 243.945 617.613 243.717 663.487 252.587 708.21 268.139 712.594 269.663 715.78 271.902 716.518 277.035 726.689 347.845 726.991 418.463 713.159 488.912 711.301 498.375 707.268 496.647 700.868 493.512 661.515 474.23 620.11 461.328 576.822 454.445 554.974 450.971 532.919 449.516 510.96 448.17M113.77 1022.476C465.605 1024.541 765.336 735.448 761.149 366.879 757.118 12.059 466.266-276.624 107.59-273.473-248.321-270.346-528.368 19.238-534.696 362.396-541.44 728.18-242.708 1025.701 113.77 1022.476"/>
</g>
</g>
</svg>
