<svg xmlns="http://www.w3.org/2000/svg" xmlns:xlink="http://www.w3.org/1999/xlink" xmlns:inkscape="http://www.inkscape.org/namespaces/inkscape" version="1.1" width="2048" height="1920" viewBox="0 0 2048 1920">
<defs>
<clipPath id="clip_1">
<path transform="matrix(1,0,0,-1,0,1920)" d="M0 1920H2048V0H0Z"/>
</clipPath>
</defs>
<g inkscape:groupmode="layer" inkscape:label="Layer 1">
<g clip-path="url(#clip_1)">
<path transform="matrix(1,0,0,-1,1158.8147,579.18887)" d="M0 0C-30.794-15.06-30.624-26.729-31.891-64.596-24.053-65.157-19.094-58.713-12.432-56.605-1.531-53.156 2.261-45.627-.175-34.885-2.763-23.473-2.628-12.07 0 0M97.708 144.697C106.225 178.222 102.86 209.442 102.164 240.553 102.093 243.762 100.591 246.765 97.284 247.859 94.867 248.658 92.654 247.062 91.755 245.05 87.806 236.21 80.758 227.112 81.067 218.327 81.922 194.021 88.255 170.395 97.708 144.697M-49.843-58.126C-52.792-55.933-55.037-58.328-56.94-59.747-64.386-65.297-70.664-64.984-76.31-57.133-78.9-53.532-82.112-50.388-84.955-46.963-94.439-35.538-99.703-20.858-112.28-10.068-117.781-30.778-117.907-50.588-116.2-69.99-114.215-92.549-122.891-110.17-136.302-126.55-140.559-131.75-145.219-136.753-150.344-141.072-160.785-149.87-161.293-162.117-162.217-174.05-162.764-181.117-159.536-184.104-152.163-180.145-147.533-177.659-142.188-177.017-138.447-172.373-124.815-155.454-114.397-136.09-107.23-116.32-100.119-96.703-89.15-85.784-69.826-82.951-54.739-80.74-48.252-73.12-49.843-58.126M94.324 59.148C95.139 73.25 93.981 85.987 89.076 97.574 80.791 117.141 76.406 137.608 73.193 158.339 71.039 172.234 64.813 184.602 60.912 197.806 59.863 201.359 57.831 204.269 54.406 201.792 42.595 193.249 25.718 189.561 24.015 170.928 22.504 154.394 14.412 142.496-1.047 136.024-4.787 134.459-5.371 134.859-4.245 130.034-1.441 118.02 1.88 105.299 8.259 95.148 12.483 88.427 15.265 76.352 26.153 89.523 27.318 90.932 31.376 90.872 33.724 90.2 43.8 87.318 51.496 83.613 54.182 70.682 59.758 43.834 71.338 18.105 66.997-10.321 66.592-12.968 67.93-14.934 70.583-14.815 73.766-14.672 74.969-12.023 75.294-9.225 76.289-.642 78.769 7.53 83.095 14.914 91.385 29.064 98.706 43.313 94.324 59.148M-30.095 131.779C-40.488 132.594-50.78 132.329-60.095 126.871-75.301 117.962-86.86 103.927-102.997 96.204-107.95 93.834-108.68 88.746-108.538 83.413-108.264 73.159-108.569 63.096-111.534 52.922-120.093 23.547-119.721 23.45-95.184 5.481-87.252-.328-77.914-4.194-70.182-9.724-56.172-19.743-51.59-11.23-44.183-1.669-20.379 29.057-15.721 64.068-8.828 100.369-8.549 105.486-14.011 118.271-17.143 129.415-18.096 132.124-23.33 132.124-30.095 131.779M-287.258-945.031C-290.674-945.755-295.948-937.415-296.657-944.436-298.188-959.594-309.525-965.37-319.125-973.196-322.932-976.3-325.64-984.199-331.312-980.642-337.326-976.87-344.022-971.191-341.778-962.017-340.603-957.21-341.304-953.088-344.129-949.314-345.623-947.318-347.002-944.065-350.249-945.456-353.01-946.639-354.125-949.761-352.533-952.281-344.817-964.498-350.043-978.999-343.927-992.367-335.06-1011.749-325.476-1022.185-304.556-1023.187-280.479-1024.341-256.498-1041.225-257.77-1060.542-259.299-1083.766-246.786-1097.017-232.553-1110.944-227.042-1116.336-224.99-1113.977-224.005-1108.18-220.271-1086.21-216.758-1064.202-213.132-1042.214-205.646-996.829-198.339-951.413-190.588-906.073-182.157-856.75-173.094-807.534-164.691-758.206-154.932-700.921-145.713-643.542-136.031-586.243-126.873-532.052-117.304-477.932-108.124-423.745-98.252-365.478-88.657-307.164-78.874-248.882-72.281-209.604-65.649-170.333-58.806-131.099-58.018-126.578-57.398-122.821-63.096-122.158-67.625-121.631-73.158-121.564-73.193-127.911-73.303-148.094-87.685-157.471-101.683-167.417-113.544-175.845-124.387-184.322-132.551-197.751-140.734-211.213-155.687-220.605-173.457-219.326-185.422-218.465-189.762-222.05-188.39-234.117-187.834-238.998-187.249-243.876-186.662-248.753-185.376-259.449-189.381-263.055-199.606-258.588-207.248-255.249-210.443-256.976-211.374-266.189-214.804-300.156-222.692-333.381-229.419-366.797-230.728-373.296-229.573-380.167-232.402-386.592-234.463-391.274-238.209-394.267-240.801-389.23-246.007-379.116-255.769-371.191-255.71-358.378-255.632-341.308-256.341-324.215-252.538-307.394-251.93-304.701-250.888-302.003-254.371-301.325-269.908-323.955-274.452-347.356-262.984-373.51-257.79-385.358-258.049-398.771-261.431-411.89-265.972-429.51-264.589-447.056-260.466-464.822-255.393-486.684-251.716-508.632-267.617-528.73-279.646-543.935-287.008-561.816-291.86-580.552-296.224-597.4-303.944-612.141-315.917-624.835-325.443-634.934-333.141-634.302-340.197-622.228-341.557-619.901-341.121-615.839-346.281-615.956-346.281-619.187-347.106-622.585-346.152-625.37-337.422-650.884-339.786-679.285-325.896-703.432-323.418-707.74-321.764-712.292-321.593-717.389-320.826-740.327-319.423-763.258-319.28-786.198-319.178-802.652-315.345-817.862-309.864-833.249-301.844-855.759-297.569-879.133-302.048-903.202-303.108-908.901-300.13-912.474-297.046-916.36-290.626-924.448-283.597-932.365-287.258-945.031M187.335 483.189C199.112 481.719 201.581 473.071 195.055 462.658 180.633 439.643 171.576 372.804 174.227 344.92 175.227 334.41 171.752 325.115 162.497 319.351 153.824 313.951 149.254 306.137 147.868 296.559 147.021 290.71 144.881 286.345 138.917 287.418 109.751 292.665 80.863 284.608 51.779 286.095 40.174 286.688 28.643 287.43 17.065 288.507 2.47 289.866-12.258 289.82-26.574 283.976-35.582 280.299-45.418 278.696-55.386 282.943-58.542 284.288-64.375 285.484-65.742 280.205-67.354 273.98-61.49 274.99-57.875 274.129-17.722 264.56 22.78 258.802 64.259 260.782 73.744 261.235 82.766 258.455 92.552 263.246 100.645 267.209 111.479 258.487 111.482 247.627 111.495 204.616 127.701 164.017 129.209 121.204 129.683 107.725 132.354 93.489 145.82 82.8 149.84 96.996 161.659 98.309 169.766 98.846 172.222 98.458 174.661 101.442 176.578 101.575 178.528 101.711 180.995 98.53 182.981 98.61 192.103 98.976 194.291 101.575 210.161 93.667 221.234 88.149 228.959 71.769 226.218 59.745 221.963 41.069 214.734 34.676 197.273 34.925 191.566 35.006 185.953 34.26 180.041 36.15 171.565 38.859 168.591 33.406 171.023 26.019 179.058 1.615 173.173-18.633 157.418-38.77 143.385-56.706 130.332-73.803 107.523-81.484 95.964-85.377 95.161-94.264 103.056-104.473 105.416-107.525 105.107-110.382 103.393-113.146 99.015-120.207 97.602-128.281 96.486-136.127 95.386-143.861 91.244-145.25 85.494-143.17 79.916-141.152 72.993-139.13 77.689-129.956 81.33-122.842 83.623-115.047 86.866-107.711 88.328-104.403 88.44-101.297 85.91-99.073 82.725-96.272 79.401-98.45 75.958-99.69 71.741-101.209 71.314-103.454 73.262-106.771 75.557-110.68 74.745-114.12 70.976-115.865 65.823-118.251 65.655-113.464 64.1-110.343 61.592-105.305 57.641-106.26 52.698-107.218 31.334-111.356 10.203-116.388-10.929-121.542-20.275-123.821-29.763-126.367-39.925-122.625-44.904-121.94-44.676-124.639-46.117-133.283-60.876-221.834-194.834-1016.846-209.011-1093.919-213.063-1115.953-213.412-1202.474-211.674-1223.5-210.62-1236.259-216.092-1245.012-228.724-1244.808-285.317-1243.891-341.911-1242.886-398.492-1241.439-416.68-1240.974-420.905-1235.791-420.906-1217.493-420.924-987.771-420.899-690.015-420.952-460.292-421.005-231.029-421.152-1.765-421.221 227.499-421.245 305.837-421.179 384.175-421.106 462.513-421.091 478.614-416.275 483.968-400.432 482.855Z" fill="#231f20"/>
</g>
</g>
</svg>
