<svg xmlns="http://www.w3.org/2000/svg" width="2048" height="1920" viewBox="0 0 2048 1920"><defs><clipPath id="clip_1"><path d="M0 0h2048v1920H0Z"/></clipPath></defs><g clip-path="url(#clip_1)"><path fill="#231f20" d="M1158.815 579.189c-30.794 15.06-30.624 26.729-31.891 64.596 7.838.56 12.797-5.883 19.459-7.991 10.9-3.45 14.693-10.978 12.257-21.72-2.588-11.412-2.453-22.815.175-34.885m97.708-144.697c8.517-33.525 5.152-64.745 4.456-95.856-.071-3.21-1.573-6.212-4.88-7.306-2.417-.8-4.63.797-5.53 2.809-3.948 8.84-10.996 17.938-10.687 26.723.855 24.306 7.188 47.932 16.64 73.63m-147.55 202.823c-2.95-2.193-5.194.202-7.097 1.62-7.446 5.55-13.724 5.238-19.37-2.613-2.59-3.601-5.802-6.745-8.645-10.17-9.484-11.425-14.748-26.105-27.325-36.895-5.501 20.71-5.627 40.52-3.92 59.922 1.985 22.559-6.691 40.18-20.102 56.56-4.257 5.2-8.917 10.203-14.042 14.522-10.441 8.798-10.95 21.045-11.873 32.978-.547 7.067 2.68 10.054 10.054 6.095 4.63-2.486 9.975-3.128 13.716-7.772 13.632-16.92 24.05-36.283 31.217-56.053 7.11-19.617 18.08-30.536 37.404-33.37 15.087-2.21 21.574-9.83 19.983-24.824m144.167-117.274c.815-14.102-.343-26.84-5.248-38.426-8.285-19.567-12.67-40.034-15.883-60.765-2.154-13.895-8.38-26.263-12.281-39.467-1.05-3.553-3.081-6.463-6.506-3.986-11.811 8.543-28.688 12.23-30.391 30.864-1.511 16.534-9.603 28.432-25.062 34.904-3.74 1.565-4.324 1.165-3.198 5.99 2.804 12.014 6.125 24.735 12.504 34.886 4.224 6.72 7.006 18.796 17.894 5.625 1.165-1.41 5.223-1.35 7.57-.677 10.077 2.882 17.773 6.587 20.459 19.518 5.576 26.848 17.156 52.577 12.815 81.003-.405 2.647.933 4.613 3.586 4.494 3.183-.143 4.386-2.792 4.71-5.59.996-8.583 3.476-16.755 7.802-24.14 8.29-14.15 15.61-28.398 11.229-44.233m-124.42-72.631c-10.392-.815-20.684-.55-30 4.908-15.205 8.909-26.764 22.944-42.901 30.667-4.953 2.37-5.683 7.458-5.541 12.79.274 10.255-.031 20.318-2.996 30.492-8.56 29.375-8.187 29.472 16.35 47.44 7.932 5.81 17.27 9.676 25.002 15.206 14.01 10.019 18.592 1.506 25.999-8.055 23.804-30.726 28.462-65.737 35.355-102.038.279-5.117-5.183-17.902-8.315-29.046-.953-2.71-6.187-2.71-12.952-2.364M871.557 1524.22c-3.416.724-8.69-7.616-9.4-.595-1.53 15.158-12.867 20.934-22.467 28.76-3.807 3.104-6.515 11.003-12.187 7.446-6.014-3.772-12.71-9.451-10.466-18.625 1.175-4.807.474-8.93-2.351-12.703-1.494-1.996-2.873-5.25-6.12-3.858-2.761 1.183-3.876 4.305-2.284 6.825 7.716 12.217 2.49 26.718 8.606 40.086 8.867 19.382 18.45 29.818 39.37 30.82 24.078 1.154 48.059 18.038 46.787 37.355-1.53 23.224 10.984 36.475 25.217 50.402 5.51 5.392 7.563 3.033 8.548-2.764 3.734-21.97 7.247-43.978 10.873-65.966 7.486-45.385 14.793-90.801 22.544-136.141 8.43-49.323 17.494-98.54 25.897-147.867 9.759-57.285 18.978-114.664 28.66-171.963 9.158-54.191 18.727-108.311 27.907-162.498 9.872-58.267 19.467-116.581 29.25-174.863 6.593-39.278 13.225-78.55 20.068-117.783.788-4.521 1.408-8.278-4.29-8.941-4.53-.527-10.062-.594-10.097 5.753-.11 20.183-14.492 29.56-28.49 39.506-11.861 8.428-22.704 16.905-30.868 30.334-8.183 13.462-23.136 22.854-40.906 21.575-11.965-.861-16.305 2.724-14.933 14.79.556 4.882 1.14 9.76 1.728 14.637 1.286 10.696-2.72 14.302-12.944 9.835-7.642-3.34-10.837-1.612-11.768 7.6-3.43 33.968-11.318 67.193-18.045 100.609-1.31 6.499-.154 13.37-2.983 19.795-2.061 4.682-5.807 7.675-8.4 2.638-5.205-10.114-14.967-18.04-14.908-30.852.078-17.07-.631-34.163 3.172-50.984.608-2.693 1.65-5.391-1.833-6.07-15.537 22.63-20.081 46.032-8.613 72.186 5.194 11.848 4.935 25.26 1.553 38.38-4.541 17.62-3.158 35.166.965 52.932 5.073 21.862 8.75 43.81-7.151 63.908-12.03 15.205-19.391 33.086-24.243 51.822-4.364 16.848-12.084 31.589-24.057 44.283-9.526 10.099-17.224 9.467-24.28-2.607-1.36-2.327-.924-6.39-6.084-6.272 0 3.23-.825 6.629.129 9.414 8.73 25.514 6.366 53.915 20.256 78.062 2.478 4.308 4.132 8.86 4.303 13.957.767 22.938 2.17 45.869 2.313 68.809.102 16.454 3.935 31.664 9.416 47.05 8.02 22.51 12.295 45.885 7.816 69.954-1.06 5.699 1.918 9.272 5.002 13.158 6.42 8.088 13.449 16.005 9.788 28.67M1346.15 96c11.777 1.47 14.246 10.119 7.72 20.532-14.422 23.015-23.48 89.854-20.828 117.738 1 10.51-2.475 19.805-11.73 25.569-8.673 5.4-13.243 13.214-14.63 22.792-.846 5.849-2.986 10.214-8.95 9.14-29.166-5.246-58.054 2.81-87.138 1.324-11.605-.593-23.136-1.335-34.714-2.412-14.595-1.36-29.323-1.313-43.64 4.53-9.007 3.678-18.843 5.28-28.811 1.034-3.156-1.345-8.99-2.541-10.356 2.738-1.612 6.225 4.252 5.215 7.867 6.076 40.153 9.569 80.655 15.327 122.134 13.347 9.485-.453 18.507 2.327 28.293-2.464 8.093-3.963 18.927 4.759 18.93 15.619.013 43.01 16.219 83.61 17.727 126.423.474 13.479 3.145 27.715 16.61 38.404 4.02-14.196 15.84-15.51 23.947-16.046 2.456.388 4.895-2.596 6.812-2.73 1.95-.135 4.417 3.046 6.403 2.966 9.122-.366 11.31-2.965 27.18 4.943 11.073 5.518 18.798 21.898 16.057 33.922-4.255 18.676-11.484 25.069-28.945 24.82-5.707-.081-11.32.665-17.232-1.225-8.476-2.71-11.45 2.744-9.018 10.13 8.035 24.405 2.15 44.653-13.605 64.79-14.033 17.936-27.086 35.033-49.895 42.714-11.56 3.893-12.362 12.78-4.467 22.989 2.36 3.052 2.05 5.909.337 8.673-4.378 7.06-5.791 15.135-6.907 22.98-1.1 7.735-5.242 9.124-10.992 7.044-5.578-2.018-12.501-4.04-7.805-13.214 3.64-7.114 5.934-14.91 9.177-22.245 1.462-3.308 1.574-6.414-.956-8.638-3.185-2.801-6.51-.623-9.952.617-4.217 1.519-4.644 3.764-2.696 7.08 2.295 3.91 1.483 7.35-2.286 9.095-5.153 2.386-5.321-2.401-6.876-5.522-2.508-5.038-6.46-4.083-11.402-3.125-21.364 4.138-42.495 9.17-63.627 14.324-9.346 2.279-18.834 4.825-28.996 1.083-4.98-.685-4.751 2.014-6.192 10.658-14.76 88.55-148.717 883.563-162.894 960.636-4.052 22.034-4.401 108.555-2.663 129.58 1.054 12.76-4.418 21.513-17.05 21.309-56.593-.917-113.187-1.922-169.768-3.37-18.188-.464-22.413-5.647-22.414-23.945-.018-229.722.007-527.478-.046-757.201-.053-229.263-.2-458.527-.27-687.791-.023-78.338.043-156.676.116-235.014.015-16.101 4.83-21.455 20.674-20.342Z"/></g></svg>