<svg xmlns="http://www.w3.org/2000/svg" width="1984.25" height="1984.25" viewBox="0 0 1984.25 1984.25"><defs><clipPath id="clip_1"><path d="M0-.002h1984.252V1984.25H0Z"/></clipPath></defs><g clip-path="url(#clip_1)"><path d="M1113.647 1665.57c-5.246-6.943-12.3-9.752-19.385-12.212-2.476-.86-5.442.64-6.2 3.381-.713 2.58 1.776 3.884 3.872 3.998 7.218.396 13.014 6.907 21.713 4.833m5.81-529.63-1.576-3.065c-8.267 3.184-16.572 6.281-24.78 9.616-2.059.836-24.72 12.197-23.213 14.46.706 1.058 24.434-7.385 25.375-7.933 7.917-4.607 17.589-6.243 24.194-13.078m-293.713 418.343-2.274-2.457c-8.922 5.06-16.862 10.948-17.151 23.37zm255.79-382.415c-.655.697.178 1.781 1.03 1.347 13-6.645 47.862-22.293 55.888-27.05 1.444-.857 2.166-2.892.64-4.357-.72-.69-2.715-1.14-3.353-.66-20.436 4.448-43.967 19.811-54.206 30.72M906.36 318.55c-3.841.52-6.27 2.542-5.162 5.958 1.832 5.648 4.223 11.998 9.879 14.127 2.838 1.068 7.834-4.656 6.172-7.45-2.755-4.637-4.17-11.463-10.889-12.635m330.05 1066.101c-2.406-2.657-4.07-6.743-7.32-4.593-5.032 3.33-12.964 4.666-13.17 12.331-.08 3.016 4.881 5.988 7.986 4.791 5.616-2.163 9.003-7.353 12.505-12.529m-143.684 295.923c-2.493-5.238-8.16-7.139-12.457-10.395-2.678-2.029-4.707-8.797-8.626-5.04-3.798 3.642.484 8.471 3.227 12.09 3.09 4.076 8.002 4.975 12.516 6.372 2.325.72 4.167-.398 5.34-3.027m139.161-192.239c-5.4.89-10.803 2.47-15.427 5.852-2.897 2.118-5.776 5.796-4.182 8.772 2.101 3.925 5.78 1.372 8.947-.393 4.13-2.302 8.57-4.06 12.933-5.925 2.477-1.059 5.063-2.197 4.367-5.38-.744-3.4-3.911-2.688-6.638-2.926m-585.896-343.32c-6.472-4.08-13.062-5.999-19.724-2.639-2.584 1.301-6.753 3.595-5.491 7.781.948 3.145 4.46 3.728 7.544 4.092 7.876.927 12.768-3.713 17.67-9.235m376.037 357.712c1.22 3.865 1.754 6.933 3.128 9.562 1.688 3.232 4.932 5.742 8.465 4.158 5.673-2.544.808-5.564-.556-8.12-1.705-3.195-3.71-6.407.872-8.559 9.14-4.29 1.653-6.874-1.271-7.967-13.366-4.993-4.813 9.387-10.638 10.926m117.36 143.145 1.162-2.84c-8.226-5.022-16.41-10.117-24.69-15.045-6.692-3.982-10.654 2.131-14.23 5.318-3.294 2.936 1.503 5.357 3.985 5.912 11.193 2.506 22.505 4.485 33.773 6.655m52.065-889.258c1.51 15.443 7.015 27.123 16.36 37.128 1.448 1.552 2.982 3.526 5.406 2.022 2.159-1.339 1.976-3.457 1.264-5.713-4.073-12.895-9.765-24.636-23.03-33.437m-261.83 705.52c-27.944 19.543-28.933 22.444-15.607 42.073zm194.452-350.814c14.799-3.485 23.092-12.578 28.279-25.083.77-1.858 2.421-3.972.207-5.806-.785-.65-2.364-.785-3.457-.557-9.908 2.058-23.452 18.442-25.03 31.446m-67.64-494.994c-3.54.631-7.76-1.715-9.776 1.942-2.114 3.83 2.174 6.084 3.878 8.792 4.928 7.836 12.155 7.93 20.361 6.068 5.444-1.235 6.838-4.314 6.95-9.1.132-5.54-3.391-5.933-7.664-6.123-4.701-.209-9.374-1.05-13.75-1.579M871.067 308.647c-5.714-7.666-10.72-15.914-17.322-22.58-3.207-3.24-5.548 3.903-9.445 4.8-2.824.648-2.545 4.511-.661 6.562 5.274 5.742 10.442 11.73 16.498 16.556 5.548 4.421 8.149-.736 10.93-5.338m253.102 870.26c-1.038-5.59-5.772-6.535-8.912-5.819-9.117 2.078-18.255 4.873-25.578 11.118-2.628 2.241-6.9 4.906-3.243 9.501 2.933 3.681 6.903 3.207 10.492 1.322 7.939-4.17 15.729-8.625 23.523-13.062 1.409-.803 2.548-2.079 3.718-3.06M690.575 469.173c-6.754-8.16-16.629-10.145-25.327-14.252-17.158-8.102-34.484-15.846-51.795-23.617-2.194-.984-5.397-3.152-6.953-.168-2.151 4.123 1.903 4.471 4.62 5.69 8.272 3.707 16.24 8.137 24.644 11.493 18.143 7.244 35.227 17.241 54.81 20.854m448.789 1247.5c0 6.7 19.008 31.186 25.786 32.977 1.53.404 3.688.607 4.833-.169 2.163-1.466 1.224-3.764.286-5.805-5.074-11.053-11.839-21.063-19.09-30.752-2.01-2.689-5.1-3.228-8.222-2.436-3.12.791-3.487 3.48-3.593 6.184M862.565 1592.62c-5.899 10.864-13.75 7.315-21.507 5.07-3.713-1.076-7.502-1.926-11.297-2.67-3.341-.656-4.94 1.36-4.89 4.34.127 7.675 14.659 18.66 22.945 17.53 10.325-1.409 17.146-11.337 14.749-24.27m546.125-998.666c-17.06-4.109-32.895-4.147-48.714-4.162-3.098-.003-7.726-2.023-8.582 2.814-.644 3.637 3.254 5.812 5.9 7.71 9.918 7.106 39.626 3.907 51.396-6.362m-158.416 255.038c-5.486-3.399-4.986-12.743-10.187-10.076-7.468 3.833-7.784 12.981-6.301 20.661 1.616 8.386 8.952 4.791 12.253 2.817 6.5-3.888 11.986-9.579 17.566-14.87 6.436-6.107 9.184-12.914 1.53-21.11-4.9 7.447-9.741 14.801-14.86 22.578m165.378-314.973c-27.072-2.76-51.54-5.257-76.007-7.753 18.527 16.164 56.156 19.744 76.007 7.753M645.486 489.96c-.721-.916-1.29-2.356-2.305-2.825-28.26-13.05-56.582-25.97-84.84-39.026-2.621-1.21-4.268-.57-4.904 1.835-.74 2.795 1.953 3.516 3.749 4.371 9.371 4.462 18.769 8.872 28.23 13.14a6224 6224 0 0 0 53.207 23.72c2.244.985 5.361 4.532 6.862-1.215m797.92 78.27c-20.711-3.973-39.506-4.14-58.265-4.816-2.748-.098-6.05-3.406-8 .364-2.111 4.08 1.886 6.075 4.41 8.211 10.906 9.23 46.174 7.83 61.855-3.759m-259.765 879.41c1.404 18.622-6.04 28.496-20.649 34.26-6.661 2.627-10.655 8.737-10.325 16.51.137 3.255-2.143 7.683 1.478 9.5 3.262 1.636 6.66-1.074 8.803-3.86 9.887-12.86 20.172-25.469 29.155-38.943 4.288-6.433-.28-11.79-8.463-17.467m-20.81-852.602c-11.671-10.856-21.296-4.232-30.438 1.662-7.082 4.567-11.61 11.188-11.1 20.398.324 5.866 2.02 10.271 8.178 5.566 11.436-8.737 22.223-18.325 33.36-27.626M666.863 480.843c2.24.248 4.442-.653 4.663-3.103.344-3.794-3.172-4.844-5.78-6.033-24.78-11.302-49.615-22.48-74.432-33.7-2.744-1.24-5.847-3.308-7.403 1.144-1.425 4.08 2.093 4.988 4.843 6.246 23.98 10.968 47.95 21.965 71.932 32.931 1.952.893 3.977 1.624 6.177 2.515m596.839 808.707c3.94-10.98 7.518-21.024 11.15-31.046 3.328-9.188-5.099-11.149-9.782-14.125-5.802-3.689-6.611 3.311-8.535 6.548-11.7 19.672-11.638 19.716 3.493 36.177.534.583 1.344.913 3.674 2.446m-192.244 494.595c.54 9.176-1.844 15.877 6.135 17.597 7.252 1.562 13.607 12.184 18.605 8.63 6.186-4.399.312-14.257-.339-21.757-.074-.86-.1-1.725-.145-2.587-.422-7.855-2.692-15.775-11.681-15.497-9.95.31-13.113 8.137-12.574 13.614m-30.6-231.91c-.027-12.56-12.03-25.417-23.624-27.018-4.635-.639-5.276 1.503-4.53 5.153 1.635 8.007 3.067 16.068 5.067 23.984 1.686 6.678 3.347 14.104 13.034 12.396 8.94-1.577 9.421-8.829 10.053-14.516m156.336-1116.056c-8.551-.67-16.988-.582-17.541 11.191-.437 9.312 7.822 17.55 17.003 17.482 11.132-.08 17.142-6.018 17.209-16.61.072-11.854-7.411-13.096-16.671-12.063m53.963 1014.606c-15.267-15.308-49.953-28.879-65.234-26.266 15.03 23.826 38.742 26.628 65.234 26.266M1030.05 641.821c-31.557-9.97-62.5-12.745-90.06-26.589 26.569 26.527 60.135 36.803 90.06 26.59m227.833 776.538c5.214.55 5.697-3.6 6.915-6.597 9.453-23.225 18.79-46.497 28.115-69.775 1.293-3.229 3.005-7.506-.81-9.312-4.874-2.307-6.696 2.642-8.15 6.007-5.823 13.476-11.34 27.083-16.967 40.644-4.312 10.385-8.763 20.716-12.849 31.188-1.424 3.651-2.645 8.023 3.746 7.845m-162.49 318.148c-1.433-4.703-6.683-6.194-10.378-8.138-5.009-2.635-8.962-11.222-16.416-5.669-9.273 6.91-18.105 14.422-26.978 21.853-1.815 1.521-4.77 3.466-2.918 6.277.803 1.22 3.957 1.764 5.728 1.331 15.805-3.874 31.543-8.022 47.29-12.132 1.593-.416 3.444-.72 3.673-3.522m-207.278-58.28c3.548-12.892 6.587-23.512 9.358-34.202 1.28-4.942 5.976-10.75-2.527-14.013-6.987-2.68-12.423-4.335-18.194 4.246-7.505 11.16-9.511 20.062.947 29.992 3.558 3.378 5.991 7.941 10.416 13.977M935.035 344.5c9.76-20.999 5.91-38.984-9.396-54.796-1.9-1.963-3.17-6.146-6.912-4.695-3.194 1.238-3.077 4.926-3.365 7.92-1.951 20.3 5.953 36.76 19.673 51.571M711.702 542.046c-1.365-4.39-5.664-5.292-8.972-6.816-31.727-14.617-63.554-29.02-95.438-43.29-2.223-.996-5.69-4.727-7.5-.443-1.608 3.807.397 6.178 5.119 8.244 17.342 7.59 33.969 16.806 51.245 24.563 15.657 7.03 30.83 15.24 47.408 20.202 3.73 1.117 6.558 2.38 8.138-2.46m298.197 772.388c-26.915-6.395-53.745-12.28-66.55-41.768-3.09 20.226 4.149 33.976 18.835 44.554 16.257 11.71 31.327-1.53 47.715-2.786M976.54 245.682c-11.76 25.104-10.987 46.985 12.595 65.013 1.42-9.633 2.33-19.36 4.367-28.847 3.479-16.198-3.135-27.248-16.962-36.166m208.85 1079.644c-6.455 12.005-8.597 23.778-12.064 35.13-3.716 12.157 6.6 16.66 12.916 21.05 6.778 4.712 8.775-5.437 12.6-9.279 3.02-3.03 5.2-6.878 7.942-10.207 2.379-2.888 3.755-5.215.663-8.883-7.39-8.766-14.289-17.947-22.056-27.81m26.21-117.15c2.5 1.713 3.464 2.678 4.625 3.126 24.902 9.6 49.688 19.535 74.833 28.452 7.476 2.651 15.888 1.88 23.244-2.793-.69-1.427-.877-2.645-1.44-2.86-26.24-9.937-52.434-20.013-78.839-29.494-6.897-2.475-14.378-2.41-22.423 3.568m49.496 450.577c1.382-18.587-7.491-29.24-20.984-39.138-10.691-7.84-19.218-10.612-29.495-2.05-5.392 4.493-16.5 6.154-15.43 13.284 1.134 7.558 12.05 4.507 18.282 5.68 17.73 3.337 37.401.988 47.628 22.224M895.117 249.971c1.612-15.434 3.038-29.079 4.46-42.725.263-2.52-1.48-3.882-3.063-5.377-14.957-14.11-19.664-12.758-25.86 7.311-1.137 3.682-2.7 7.232-4.08 10.837-2.17 5.667-.568 10.15 4.33 13.508 7.413 5.084 14.869 10.106 24.213 16.446m53.765-31.405c.247-3.948-13.772-23.829-19.5-24.77-3.923-.645-3.964 2.22-4.188 4.806-1.535 17.675-4.061 35.343-4.211 53.031-.1 11.737 12.772 8.153 19.402 11.062 6.125 2.687 3.952-5.839 4.5-9.213 1.74-10.693 2.548-21.538 3.997-34.916m332.266 1245.046c16.33 15.625 32.584 24.893 48.117 35.082.917.603 2.569.36 3.814.14 11.465-2.034 22.913-4.17 34.375-6.22 2.177-.39 4.49-.683 4.902-3.3.514-3.262-1.882-4.543-4.448-5.399-7.318-2.442-14.912-4.237-21.94-7.33-19.467-8.578-40.062-10.618-64.82-12.973m-186.728 58.913c11.96 4.053 14.974-3.357 14.706-16.43-.168-8.195.74-16.366 9.666-22.457 7.443-5.08.792-13.476-3.032-17.938-4.594-5.363-6.899 2.184-9.28 4.913a1110 1110 0 0 0-27.993 33.407c-3.88 4.816-13.637 8.522-10.256 14.512 2.544 4.511 12.495 3.935 19.434 3.992 1.3.011 2.603.001 6.755.001m-101.176 202.541 1.346-3.087c-22.031-17.076-44.068-34.145-66.09-51.233-4.556-3.535-6.774-3.004-9.132 2.957-7.37 18.63-5.832 22.886 12.664 29.597 2.003.727 3.85 1.887 5.86 2.587 18.44 6.425 36.899 12.794 55.352 19.18m-127.02-375.847c4.981 29.581 4.986 29.584-8.134 53.786-.61 1.124-1.648 2.047-2.11 3.214-1.216 3.081.563 5.784 3.065 6.04 10.72 1.1 21.544 1.223 31.967-1.94 2.363-.719 7.264-31.814 5.396-33.869-8.728-9.6-18.026-18.605-30.184-27.23m581.666 65.985c-1.255-8.108-3.297-13.89-12.956-16.937-19.605-6.184-38.281-15.272-57.7-22.149-4.916-1.742-11.594-9.68-15.572-2.5-2.312 4.171 4.407 11.09 8.598 15.828 1.39 1.572 3.3 2.895 5.232 3.746 21.603 9.516 43.34 18.682 65.657 26.461 5.51 1.921 7.195.872 6.74-4.449m-709.727-289.864c-10.198-8.737-18.552-15.928-26.942-23.075-18.712-15.937-41.992-12.517-54.95 8.245-1.685 2.702-5.876 5.56-3.24 9 2.234 2.914 6.827 1.673 9.903.777 16.88-4.917 33.164-1.592 49.639 2.22 7.403 1.712 15.194 1.747 25.59 2.833m515.047 190.645c-12.723-13.216-24.062-25.013-35.428-36.784-2.122-2.199-4.072-4.434-7.724-2.124-14.352 9.078-14.21 40.846.432 48.905 1.737.957 4.403 1.21 6.332.677 11.55-3.19 23.009-6.706 36.389-10.674m-9.329 200.555c-2.319.282-3.76.12-4.88.646-12.968 6.097-24.147 15.047-35.123 23.943-4.588 3.72.839 4.91 4.332 5.146 9.885.668 19.098-3.115 27.165-7.335 9.645-5.046 11.881-.253 14.739 6.641 5.466 13.195 11.227 26.241 20.383 37.434 2.215 2.707 3.986 5.593 8.47 3.395 4.938-2.422 2.575-5.662 1.526-8.71-5.646-16.4-11.475-32.73-19.322-48.253-3.824-7.566-10.462-11.02-17.29-12.907m-142.254-121.813c-7.245 27.676-7.248 27.68 16.093 43.483 1.059.715 2.513 1.012 3.313 1.921 9.297 10.556 19.44 7.808 30.075 2.382 5.74-2.928 9.009-6.406 6.314-13.198-2.276-5.74-2.42-13.86-11.985-11.643-14.894 3.453-24.606-3.845-32.69-14.978-2.565-3.532-5.303-6.83-11.12-7.967m-300.912-50.14 3.003-.623c-2.69-12.935-5.281-25.89-8.097-38.796-2.296-10.525-1.941-23.442-8.112-30.805-6.393-7.628-19.97-5.239-30.637-5.635-2.762-.102-5.52-3.987-8.192-.485-2.968 3.888.876 6.461 2.687 8.96 16.342 22.54 32.873 44.94 49.348 67.383m21.153 39.665c-18.116 56.545-16.92 73.55 6.83 111.591 10.979-37.175 2.854-72.627-6.83-111.59m498.477 7.406c-3.412.298-6.94.605-5.22 5.118 2.222 5.832 1.97 12.98 9.135 16.302 23.024 10.673 45.976 21.506 68.874 32.448 4.506 2.153 7.892.253 7.053-3.629-1.786-8.267-.065-18.236-11.646-22.43-18.695-6.77-36.89-14.924-55.294-22.495-4.369-1.796-8.734-3.596-12.902-5.314m45.82 246.12c-10.72-9.993-21.86-19.28-31.618-29.847-6.81-7.375-13.124-9.755-23.452-8.299-30.462 4.294-31.444 5.452-14.65 31.353 3.223 4.968 6.43 8.561 13.72 4.98 15.763-7.747 31.483-6.776 46.44 2.973 2.631 1.715 5.616 2.07 9.56-1.16m-650.692-503.678c-1.232 14.742-10.27 25.868-5.4 37.592 5.972 14.371 10.73 29.04 15.662 43.72 1.013 3.012 2.745 5.832 6.747 7.14 14.017 4.582 27.82 9.817 41.704 14.803-10.7-14.447-22.288-27.504-35.087-39.233-6.884-6.307-10.097-12.95-8.461-21.646 3.038-16.158-6.445-27.37-15.165-42.376m3.35 354.35c21.974 8.89 43.384 12.82 64.453 17.844 4.933 1.176 4.402-2.925 4.06-5.832-1.46-12.448-3.129-24.87-4.654-37.31-.627-5.106-2.554-6.699-7.78-4.363-18.707 8.365-36.873 17.676-56.078 29.66m528.124 217.065c-.661-7.53-4.082-5.604-7.237-3.845-9.395 5.24-19.171 9.945-27.978 16.046-7.791 5.398-13.48 6.783-20.85-1.04-7.935-8.42-17.538-15.256-26.274-22.944-2.247-1.977-4.107-5.485-7.413-3.743-3.822 2.015-2.167 6.207-1.464 9.31.644 2.84 2.109 5.798 4.023 8 10.745 12.35 21.572 24.636 32.711 36.627 5.225 5.623 11.299 5.626 17.164.414 9.677-8.6 19.678-16.867 28.912-25.917 3.832-3.754 6.04-9.168 8.406-12.908m-528.95-364.145c-6.241 17.404-11.464 31.697-16.428 46.08-.813 2.357-.712 5.086 1.3 7.303 7.179 7.912 13.787 16.428 21.579 23.674 7.547 7.02 14.318-1.482 21.406-3.009 3.12-.673 5.04-3.225 3.302-6.96-9.925-21.322-19.817-42.658-31.16-67.088m-32.472-106.882c-.001-5.608-8.534-8.919-12.573-15.078-3.47-5.29-6.055-4.186-8.476 1.952-5.171 13.107-8.991 26.58-13.064 40.025-8.005 26.423-8.264 26.344 12.71 42.918.339.268.634.59.94.895 4.263 4.245 6.35 3.006 7.399-2.6 4.039-21.57 8.25-43.109 13.063-68.112m597.569 284.927c7.967 19.398 14.072 41.571 26.52 60.962 3.389 5.277 8.72 1.595 12.956-.027 18.743-7.175 34.486-19.51 51.224-30.134 1.875-1.19 3.969-2.435 3.349-4.95-.803-3.257-4.01-3.109-6.386-3.099-12.027.05-22.01 6.33-32.788 10.577-21.84 8.606-18.446 10.321-28.485-11.717-4.286-9.413-7.032-19.562-13.604-27.84-2.252-2.836-5.577-5.528-8.807-4.676-3.645.963-3.583 5.414-3.98 10.904m26.024-237.555c-2.914.812-7.18-1.428-7.75 2.923-.491 3.753 3.5 4.298 6.23 5.376 16.427 6.487 32.768 13.205 49.31 19.385 38.33 14.32 76.745 28.412 115.173 42.467 2.73 1 6.01 4.824 8.71-.266 2.112-3.982-1.272-6.18-3.57-7.124-10.454-4.289-16.333-15.176-27.69-18.23-31.706-8.525-62.724-19.254-93.777-29.869-15.482-5.293-31.218-9.84-46.636-14.662m-719.862 40.42-1.93 2.33c5.765 12.485 11.497 24.986 17.314 37.45 2.023 4.334 4.113 8.324 9.89 9.052 11.05 1.393 21.985 4.252 33.05 4.79 6.758.33 14.862 4.003 20.619-3.198 6.196-7.75 12.233-15.629 18.195-23.562.913-1.217 1.81-3.296 1.38-4.497-.913-2.555-3.096-1.659-5.346-1.242-11.35 2.103-22.917 2.567-34.118 6.095-10.328 3.253-20.043 1.74-29.04-5.805-9.389-7.874-19.96-14.335-30.014-21.414m400.092-408.205c-4.743 0-8.223-.105-11.695.027-4.436.168-9.055.698-10.088 6.058-.97 5.032 3.173 6.264 6.799 7.972 10.944 5.155 21.82 10.674 34.393 9.514 14.357-1.326 27.168 2.274 39.302 9.975 6.85 4.348 14.276 8.122 21.925 10.763 6.091 2.103 15.289 8.991 18.499 3.207 4.348-7.836-2.523-16.159-9.848-21.642-2.746-2.056-5.625-4.133-8.76-5.435-15.42-6.402-29.345-18.16-48.036-13.227-2.515.664-5.86-1.068-8.612-2.199-8.078-3.32-16.155-6.382-23.88-5.013m323.349 346.097c.982 5.871 3.636 6.432 6.06 7.327 37.016 13.652 74.118 27.078 110.97 41.156 8.456 3.23 15.989 1.94 23.672-.867 3.39-1.239 8.589-1.903 8.655-6.529.064-4.409-5.172-4.08-8.1-5.167-30.038-11.162-60.023-22.518-90.38-32.756-16.438-5.544-33.61-.738-50.877-3.164m-152.824 278.594c-5.935-4.91-11.986 2.898-13.565-2.644-2.697-9.467-5.591-3.029-8.188-.88-24.676 20.41-35.655 50.31-52.2 76.326-3.845 6.046 3.34 7.946 7.213 9.847 4.544 2.231 5.003-.204 5.687-4.8 1.085-7.29 14.48-15.125 17.636-11.29 9.45 11.493 16.038-1.5 23.957-2.332 1.836-.194 2.121-3.476.718-4.182-13-6.538 1.114-6.723 2.213-7.11 11.337-3.992 22.9-7.343 34.4-10.872l-1.154-4.537c-18.211 1.945-36.692 2.415-53.822 14.295 6.472-22.62 17.662-39.856 37.104-51.82m-207.691-50.464c-12.563 14.803-20.138 31.333-29.885 46.457-3.554 5.513-1.788 9.347 2.979 11.675 15.058 7.355 30.37 14.194 46.875 21.83-.765-7.676-1.982-13.204-1.694-18.65.376-7.123-5.856-15.74.865-21.068 11.34-8.99 5.364-14.833-1.55-21.697-5.784-5.739-11.232-11.814-17.59-18.547m383.219-169.742c.54.082-2.481 1.923-1.634 4.483 2.915 8.795 1.375 19.634 14.413 23.51 16.009 4.76 31.177 12.293 46.864 18.22 22.129 8.36 44.368 16.433 66.643 24.395 3.662 1.308 10.5 3.934 9.173-3.386-1.671-9.206-2.664-19.383-15.091-23.463-22.184-7.284-43.707-16.563-65.64-24.645-16.983-6.257-34.17-11.96-54.728-19.114m-412.67 10.93c-2.874 15.735 6.896 31.721 15.466 46.26 7.387 12.534 23.923 17.418 36.843 24.967 4.883 2.855 5.469-1.692 5.663-5.159.917-16.43 1.537-32.88 2.692-49.295.557-7.918-1.984-12.079-10.062-9.072-20.01 7.448-29.43-3.877-36.623-19.797-1.766-3.907-3.905-7.649-5.601-11.584-.914-2.12-1.974-4.109-4.399-3.797-2.663.344-2.685 2.595-2.74 4.957-.151 6.436-.675 12.864-1.24 22.52m-299.902-15.846c0-3.808.399-6.344-.063-8.71-4.138-21.21-7.672-42.58-12.941-63.51-3.443-13.679-2.27-24.349 9.739-33.125 2.678-1.958 8.275-5.382 4.122-10.56-5.332-6.65-9.395-14.42-16.534-19.467-.388-.274-2.705 1.6-3.68 2.826-17.203 21.683-28.298 45.874-30.037 73.871-.215 3.471-.365 6.705 2.114 9.783 14.053 17.438 30.805 32.181 47.28 48.892m382.216-355.192c-1.303 0-2.7-.308-3.892.055-4.446 1.354-11.88-3.663-13.058 3.976-1.19 7.717 4.663 11.245 11.964 12.458 7.617 1.266 15.107 3.338 22.739 4.47 11.327 1.677 23.697 1.661 20.255 19.08-.703 3.558 1.684 6.635 3.77 9.436 9.739 13.07 8.586 16.473-7.785 18.133-8.75.887-17.745 1.733-25.957-4.607-6.623-5.113-14.738-4.028-22.168-.254-4.342 2.205-9.01 5.44-9.737 9.81-.972 5.844 5.798 6.923 9.664 8.882 6.073 3.078 12.644 5.942 19.3 6.957 20.486 3.127 41.544 8.17 55.897-14.487 6.22-9.822 14.14-18.627 23.93-25.397 10.62-7.342 11.345-13.968.312-20.273-26.401-15.089-53.777-28.067-85.234-28.239M846.4 1535.751c2.168 10.441 4.835 17.854 14.85 20.393 8.599 2.181 15.676 7.228 21.593 13.758 9.36 10.331 20.176 18.76 31.906 26.27 21.725 13.91 43.092 28.38 64.724 42.441 8.408 5.466 13.498 11.39 8.943 22.427-3.452 8.36-13.498 16.772 7.606 21.53 13.966 3.147 21.66 7.8 28.445-7.204.182-.402 1.454-.31 2.163-.44 3.86 3.667-4.916 7.541 1.79 12.414 8.74-23.872 29.896-35.008 48.454-48.898 2.4-1.796 4.98-3.72 6.55-6.18 3.99-6.24-1.23-18.24-7.707-16.9-9.381 1.938-19.735 4.028-22.68 16.215-2.816 11.64-14.764 17.728-25.322 12.273-32.688-16.893-65.764-33.21-97.376-51.97-28.365-16.834-54.991-36.606-83.94-56.129m-62.474-370.213c4.19 22.964 12.366 44.063 21.98 64.56 4.364 9.3 4.937 20.911 12.773 27.89 18.61 16.57 37.49 32.894 58.26 46.87 5.31 3.571 7.762 4.1 9.935-2.606 4.912-15.163 10.31-30.167 15.326-45.298 1.28-3.864.987-7.24-3.114-10.116-38.47-26.983-76.794-54.17-115.16-81.3m410.367-63.125-4.184.104c-.44 9.821-.923 19.64-1.313 29.462-.753 18.97-7.178 34.361-22.08 47.681-30.655 27.401-59.72 56.586-89.442 85.033-13.403 12.827-22.288 28.055-27.405 46.1-8.348 29.432-13.151 60.115-30.034 86.734-4.3 6.777-6.848 14.99-8.768 22.891-5.193 21.372-10.654 42.822-4.944 65.126 1.058 4.136 1.11 7.576 7.169 5.745 19.017-5.747 24.742-13.094 24.929-33.226.025-2.75.004-5.5.004-11.582 7.792 14.732 6.132 28.878 13.15 42.231 7.317-14.826 7.992-29.242 8.763-43.048 1.66-29.714 7.803-60.349-11.185-87.62-.947-1.359-.165-4.234.361-6.259 4.41-16.968 8.7-33.984 16.162-51.292 14.735 15.952 25.97 33.21 38.026 49.784 8.928 12.275 17.21 25.064 27.97 35.838 4.068 4.074 9.048 8.73 11.085-2.462 6.29-34.544 13.108-68.993 19.799-103.463 1.088-5.603.77-10.719-4.995-13.368-8.647-3.973-7.714-9.775-4.758-17.158 5.205-12.998 4.884-13.126-9.543-15.709 14.585-20.742 29.074-41.14 43.339-61.696 15.38-22.165 13.157-45.909 7.894-69.846m-56.451-337.965c-15.154-3.713-27.276-5.878-38.732-11.203-8.165-3.796-17.174-6.8-26.097-5.22-15.633 2.768-30.965 7.187-46.507 10.527-15.56 3.345-27.648 10.93-29.97 27.623-2.461 17.7-.132 34.416 15.173 47.018 10.559 8.695 23.278 10.368 35.772 13.103 4.322.946 9.182 1.844 10.621 6.17 1.441 4.324-3.41 6.561-5.994 9.211-4.27 4.382-9.594 8.16-6.048 15.423 4.178 8.558 7.94 17.703 16.157 23.146 9.166 6.072 15.984 13.942 22.679 22.523 3.855 4.94 5.288 18.131 17.613 9.646 1.577-1.086 2.712 2.667 3.822 4.444 2.737 4.384 5.569 8.718 8.542 12.946 10.178 14.48 10.161 14.425 19.986.381 3.968-5.67 8.45-10.992 12.2-16.796 2.357-3.647 3.97-6.28 9.035-3.598 4.663 2.468 6.525-1.613 8.782-5.02 8.426-12.724 12.069-29.168 27.986-36.234 1.307-.58 2.247-3.909 2-5.78-2.183-16.53 5.297-30.263 12.072-44.334 7.549-15.674 6.288-22.545-5.944-34.666-17.237-17.079-34.802-33.783-50.922-52.017-6.805-7.698-15.374-15.453-28.735-15.074 5.55 9.342 10.1 17 16.508 27.781m-513.05 645.945c-9.166 10.446-18.68 20.22-35.194 18.048-3.275-.43-6.727.206-9.547-2.118-9.266-7.638-20.641-10.314-32.466-13.658-14.628-4.138-16.904-19.908-24.565-30.537-6.242-8.662-11.98-17.63-18.39-26.243-3.246-4.36-16.506-7.328-3.962-16.394 1.92-1.388-2.935-14.31-7.983-18.939-15.653-14.35-13.922-31.477-12.805-48.876.355-5.53 2.554-11.36-3.596-15.706-1.481-1.045-3.301-2.672-1.68-4.272 14.135-13.95 9-37.319 30.326-48.254 13.877-7.115 13.396-11.804 4.174-24.2-2.694-3.622-10.696-6.158-4.49-12.808 6.286-6.734 11.988-2.644 17.724.312 5.303 2.732 10.378 5.825 15.408 8.677.898-.775 2.168-1.719 2.087-1.825-11.214-14.736-5.477-26.09 8.406-36.137 4.146-3 7.806-6.525 4.469-12.266-1.993-3.43.844-5.208 3.966-7.079 39.142-23.449 80.768-42.935 122.174-62.778 5.305-2.542 9.68-5.544 8.52-12.1-6.584-37.193-14.873-74.073-23.845-111.68-8.245 3.847-4.954 12.851-11.156 16.23-20.653-10.322-12.727-26.332-10.718-41.497 1.028-7.767 9.952-16.977-3.415-23.403-.746-.359-.18-4.257.806-6.045 22.395-40.605 17.658-85.562 25.279-128.519 1.437-8.099 1.742-16.472 1.375-24.676-.183-4.125 7.158-15.459-8.768-9.665-2.841 1.033-2.965-4.977-2.343-8.533 3.509-20.088.06-38.958-13.584-55.59-9.212-11.23-22.077-18.985-34.186-27.278-33.993-23.282-61.394-51.965-87.568-82.166-29.245-33.744-61.156-65.592-91.26-98.744-14.521-15.993-15.513-44.997-4.024-62.759 5.516-8.53 12.996-12.9 23.893-9.285 55.955 18.566 116 21.996 172.624 38.248 23.576 6.767 47.475 13.37 72.77 13.09 21.909-.24 25.365-2.926 28.847-22.272 1.694-9.414 3.79-18.775 6.024-28.099 1.215-5.073 2.259-11.016 7.416-13.719 21.53-11.288 22.888-31.863 28.394-50.123 14.872-49.316 28.839-98.854 42.989-148.346 6.406-22.41 27.473-24.054 47.135-27.279 52.001-8.53 101.976 2.61 151.518 14.454 40.177 9.605 81.502 14.485 121.367 24.946 31.982 8.394 67.42 9.227 95.336 26.4 35.199 21.653 64.088 47.96 64.1 91.998.01 41.535 5.043 83.073 8.076 124.597.545 7.458 3.303 14.938 9.658 19.612 11.21 8.248 15.545 19.381 19.076 31.13 7.726 25.703 20.045 34.675 49.206 37.618 28.596 2.887 57.056 6.862 85.612 10.1 4.45.505 8.28 1.704 12.095 3.668 10.742 5.53 22.016 5.99 34.427 5.307 35.54-1.954 51.405 8.981 42.133 42.685-6.84 24.86-26.8 41.703-49.43 55.085-36.344 21.494-73.703 41.592-110.68 62.215-31.137 17.365-38.705 34.062-32.398 66.137 3.835 19.501 5.263 39.387 6.063 59.803-4.345-6.805-8.77-13.572-12.995-20.438-1.433-2.329-2.8-4.9-5.898-5.133-3.649-.273-4.475 2.88-5.44 5.2-2.351 5.648-7.342 12.057-5.992 16.98 3.412 12.432-12.971 20.608-7.014 32.841.21.431-.723 1.74-1.437 2.052-16.795 7.348-14.952 21.278-15.865 34.721-.98 14.426 5.357 25.988 14.39 36.963 1.116 1.353 3.063 2.854 2.976 4.202-1.448 22.88-1.505 22.876 8.194 45.025 1.025 2.338 2.006 4.691 2.933 6.864-.413 1.378-.944 1.188-2.18.68-4.783-1.97-7.687-10.459-13.485-6.254-4.424 3.21 1.916 8.546 3.882 12.66 6.587 13.787 13.745 27.35 20.922 41.463-5.426 2.618-8.57-7.686-12.84-2.958-3.678 4.07-.982 10.072-.646 15.214 1.022 15.61 8.523 32.015-7.428 45.684-5.846-1.91-7-10.018-14.524-10.138-5.335 4.261 3.139 7.94.316 11.952-.804 0-1.823.288-2.41-.045-5.92-3.368-12.367-10.81-18.274-7.829-6.834 3.451-2.221 12.24-2.154 18.791.17 16.752 8.13 29.587 22.262 40.217 12.094 9.096 21.163 20.921 31.757 31.37 27.778 27.393 58.908 50.194 99.842 60.55 16.02 4.051 28.05 14.9 48.003 14.667 13.774-.16 30.572 9.84 45.988 15.391 13.678 4.925 17.113 16.09 11.502 29.061-2.407 5.563-3.37 9.421 5.116 11.63 5.299 1.38 9.507 4.441 2.897 10.963-4.613 4.552.68 10.324 4.678 14.861 7.2 8.17 18.298 15.922 3.64 26.902-1.734 1.3-.832 5.848-.576 8.85.472 5.536-.055 10.371-6.726 12.836-4.293 1.587-7.058 4.391-2.073 7.491 9.796 6.09 2.827 11.717-.91 16.165-6.984 8.31-9.852 17.324-10.932 27.474-.835 7.847.976 18.92-15.137 15.57-2.72-.566-5.368 2.626-4.68 5.254 3.353 12.807-7.335 13.346-15.82 13.831-10.797.618-14.467 4.745-13.333 14.035.575 4.717.04 9.563-.22 14.341-.38 6.985-1.576 12.45-12.382 10.796-8.357-1.277-13.198 4.453-11.69 11.29 2.536 11.488-1.23 20.365-10.152 27.943-4.452 3.781-2.266 5.621 1.702 7.743 16.012 8.561 15.982 8.6 5.628 23.514-.76 1.094-1.436 2.237-2.756 4.311-1.654-2.604-2.925-4.934-4.53-7.06-2.887-3.834-6.476-3.862-11.25-2.422-5.098 1.538-5.697 3.98-4.19 7.843 3.584 9.188-3.05 9.242-9.676 8.384-9.24-1.196-9.891 2.047-8.966 9.573 1.68 13.656 16.08 21.902 17.21 35.203 1.474 17.33 7.313 34.706-.496 52.12-1.976 4.406-.456 9.361 3.656 13.422-3.322 1.544-7.423-2.679-9.182.196-7.306 11.944-13.11 3.652-19.146-.817-9.041-6.696-17.712-11.963-30.981-8.417-7.774 2.077-17.073 2.142-25.447-1.506-6.168-2.688-11.972-.935-17.603 2.328-17.909 10.375-18.362 15.773-1.91 27.925 4.068 3.005 8.507 5.656 12.243 8.961 8.454 7.475 8.648 17.38.4 25.133-5.625 5.291-10.913 12.31-17.948 14.661-17.283 5.775-27.935 23.756-49.318 21.497-2.272-.24-5.567-.09-5.981 2.391-.93 5.578 6.95 4.977 9.189 10.012-9.388 2.851-18.937 5.323-26.67 10.893-3.891 2.802-11.591 3.655-7.003 11.356 1.35 2.266-2.407 4.172-5.135 5.258-13.827 5.506-26.409 13.01-42.605 13.982-13.251.796-26.18 6.208-35.996 14.884-6.995 6.182-13.5 7.773-23.13 5.661-15.952-3.498-20.04-.249-18.942 12.225-6.633-.189-6.637-5.773-8.437-9.205-4.861-9.278-4.498-9.433-14.184 1.338-1.288-15.258-9.052-25.969-19.073-35.532-3.692-3.525-6.754-7.404-12.535-1.706-1.692 1.67-7.063 6.426-9.408 1.692-4.656-9.394-12.49-9.818-21.88-9.726-4.135.041-8.317-2.444-10.28-6.364-3.245-6.479-9.357-7.965-16.443-8.634-12.541-1.183-15.821-7.522-10.362-18.239 1.5-2.948 9.25-5.16 3.382-9.112-4.052-2.728-9.27.35-13.108 3.11-4.654 3.347-7.991 9.375-15.755 5.196-3.842-2.067-10.687-2.575-2.868-8.277 7.61-5.55 1.417-6.548-3.671-9.156-19.913-10.207-41.769-8.724-63.292-9.996-9.753-.576-19.702-1.8-28.846-7.255 13.423-5.85 16.43-15.185 8.838-25.973-3.085-4.384-6.88-8.372-10.523-12.415-1.128-1.25-2.817-2.089-4.25-3.115-5.65 9.851-14.908-.34-20.822 2.895-6.175 3.38-7.952.13-9.957-3.14-9.072-14.79-23.784-21.363-41.273-25.306-17.2-3.878-34.285-8.597-50.782-14.423-9.746-3.442-15.576-12.472-28.114-14.108-7.277-.952-6.327-12.562-2.558-19.596 5.739-10.71 12.167-21.12 16.349-33.794-12.003 5.564-24.022 11.1-35.993 16.72-2.547 1.194-5.361 2.983-7.77.997-2.317-1.912-1.435-4.852-.225-7.336 4.824-9.909 9.779-19.769 14.44-29.739 1.229-2.626 3.603-5.625.545-8.438-2.87-2.64-7.147-1.828-9.458-.343-20.103 12.918-32.125 1.851-44.181-11.189-12.377-13.389-27.837-23.939-42.95-34.543-10.553-7.404-9.726-12.928-1.553-20.975 14.363-14.139 14.008-14.337-4.233-23.174-5.9-2.858-11.534-6.166-17.307-9.242-4.05-2.157-7.28-5.358-5.84-9.512 1.599-4.617 6.63-5.81 11.716-5.662 30.177.884 33.16-1.842 31.869-29.39-.032-.683-.792-1.338-1.88-3.064"/></g></svg>