<svg xmlns="http://www.w3.org/2000/svg" width="1780.49" height="891.401" viewBox="0 0 1780.49 891.401"><defs><clipPath id="clip_1"><path d="M0 0h1780.485v891.401H0Z"/></clipPath></defs><g clip-path="url(#clip_1)"><path d="M1246.536 506.222c-.56-2.6 2.37-1.91 3.78-1.84 13.56.72 26.98-.72 41.401-3.59-13.651 18.36-37.781 15.54-52.38 30.12 2-8.58 9.3-15.04 7.199-24.69m469.71-68.443c0 5.896-3.426 11.229-8.748 13.768-26.8 12.784-55.918 17.008-86.741 13.665-9.04-.98-12.051 1.87-15.691 8.77-18.479 35.13-47.3 56.37-86.61 63.02 43.12-21.34 79.181-48.28 77.28-102.89-.837-24.167-7.488-46.734-28.379-64.26l-.01-.18h-.401l-.162 1.807c-.027.307-.072.585-.08.944.002.094.006.208.049.342l.095.247.169.425 1.388 3.389c14.116 34.483 1.588 70.516-27.23 93.125a117.5 117.5 0 0 1-24.245 14.754c-12.598 5.702-26.8 10.34-40.808 9.296-6.861-.511-13.542-2.39-19.351-6.154-5.654-3.664-9.777-12.976-16.386-13.973l-3.071-.464.117 3.1c.66 17.52-10.052 26.686-26.161 30.999-19.445 5.207-36.435 10.942-53.101 22.702-9.721 6.937-18.627 14.875-27.04 23.212-16.813 16.724-31.624 35.107-47.692 52.165-4.018 4.263-8.118 8.442-12.342 12.482-15.237 14.573-34.899 28.399-57.127 28.688-21.273.276-41.934-9.182-52.961-27.866-5.96-10.12-6.46-20.59.71-26.16 7.279 22.5 21.799 34.88 42.429 35.39 11.3.27 27.55-9.25 30.411-27.12-6.691 12.24-16.231 16.6-28.47 14.94-13.981-1.89-22.231-11.58-29.111-22.54-2.4-3.84-4.08-6.24-4.58-8.17 15.531-11.52 29.83-24.75 47.06-33.76 8.57-4.48 18.04-6.75 26.19-12.75 8.81-6.47 19.111-8.31 28.3 1.03 1.41-3.801-1.279-5.03-2.67-6.85-1.389-1.85-4.37-2.201-4.849-5.3 1.17-.68 2.299-1.52 3.569-2.05 29.8-12.351 58.11-31.79 67.11-63.79 2.449-8.705 4.33-14.76 10.901-20.84 5.199-4.81 10.34-9.84 12.689-16.92-7.939 5.65-15.689 10.99-24.76 14.24-9.54 3.41-19.19 2.5-29.23.63 2.2 10.35 5.7 19.25 13.06 25.75 4.321 3.81 3.56 6.77 1.02 10.81-7.63 12.15-20.34 15.95-35.13 10.37-14.08-5.32-23.37-16.04-31.689-28.02 1.391 11.76 6.607 21.05 15.734 28.485 3.164 2.577 1.706 7.712-2.338 8.252-36.612 4.89-53.464-21.406-70.257-48.917-3.32 10.22.83 17.87 3.35 25.74-6.149 2.15-12.04 2.89-18.06 3.25-25.9 1.58-49.389-6.44-71.759-18.29-5.96-3.16-9.59-2.92-14.431 2-9.39 9.55-21.5 16.1-34.44 17.24-23.95 2.1-45.089 10.64-66.56 20.72-22.449 10.54-46.26 11.17-68.649-2.71-10.42-6.47-10.371-15.46.309-21.33 15.75-8.65 32.84-14.66 47.99-24.47 4.51-2.92 9.18-4.74 14.63-5.46 19.441-2.59 38.061-8.15 53.851-20.11 13.97-10.57 29.55-15.68 46.559-18.51 8.63-1.43 14.861-1.87 15.51 10.66 9.601-14.64 22.931-15.47 36.641-14.85 14.469.64 29 1.73 43.34-.37 9.689-1.41 17.91-2.51 17.779 13.96 12.19-21.66 29.79-29.07 50.341-31.39 12.699-1.43 24.729-5.41 36.529-10.13 24.61-9.83 47.631-22.87 71-35.19 12.53-6.61 25.25-13.17 39.59-13.81 14.25-.64 26.291-6.18 36.2-15.35 26.33-24.38 56.99-29.28 90.55-21.51 14.9 3.45 28.5 1.39 41.9-5.4 10.26-5.2 19-12.24 26.37-20.89 10.55-12.41 24.1-18.98 39.76-22.28 12.481-2.62 25.181-3.13 37.74-4.86a193 193 0 0 0 4.725-.711c20.094-3.286 38.375 12.087 38.375 32.448v92.036c0 8.359-5.719 15.636-13.844 17.598-13.054 3.15-26.033 6.666-39.001 10.116-10.103 2.688-28.891 9.629-38.27 1.917-11.824-9.722 13.134-30.993 19.644-36.715 12.381-10.882 26.709-19.591 40.621-29.022l6.994-4.74-8.431.05c-4.642.027-9.23.389-13.68.596-4.445.2-8.774.169-12.806-.868-8.568-1.99-12.712 10.849-15.916 16.328-5.366 9.176-13.041 16.259-22.152 21.775-7.543 4.566-15.915 7.722-24.523 9.95l-3.1.803 1.959 2.482c7.163 9.073 12.872 19.286 16.564 30.245 3.721 11.048 5.287 22.708 7.167 34.163l.104-.001.105-.001.009-.077c27.29-19.08 57.306-34.356 88.593-45.783 4.887-1.785 10.053 1.884 10.039 7.086a11.434 11.434 0 0 1-8.486 11.014c-15.507 4.149-47.228 13.934-50.839 15.51-10.294 4.496-47.768 17.93-44.555 33.247.295 1.532 1.18 2.918 2.418 3.654l.086-.06c37.3-21.474 50.561-29.106 86.528-39.925 7.357-2.212 14.772 3.286 14.772 10.969Zm0 379.343c0 12.47-10.109 22.579-22.579 22.579H86.827c-12.471 0-22.581-10.11-22.581-22.58V678.77a86.83 86.83 0 0 1 19.088-54.32c10.08-12.571 20.783-25.966 22.804-28.684 9.844-13.233 19.763-26.415 30.146-39.232 12.204-15.066 25.168-29.52 39.386-42.608 6.727-6.193 61.234-51.228 67.578-41.9 11.326 16.652 21.819 34.414 36.853 48.082a101.8 101.8 0 0 0 24.889 16.259c28.318 13.115 56.984 8.55 86.915 10.333 4.781.284 9.533.787 14.22 1.6 4.736.872 9.495 1.777 14.204 2.826 18.836 4.158 37.384 9.844 54.669 18.27 11.115 5.419 21.695 11.903 31.474 19.478 5.231 4.052 9.771 8.875 14.672 13.299 4.741 4.278 10.321 6.864 15.105 10.817 3.184 2.63 3.93 5.964 3.293 9.884-2.402 14.786-3.649 28.99 4.059 42.665 6.726 11.932 21.179 23.324 35.575 17.812 10.632-4.07 13.906-15.313 18.313-24.69.434-.922.948-1.906 1.873-2.335.881-.41 1.913-.211 2.855.025 7.438 1.862 13.633 5.289 21.513 5.62 10.314.437 20.605-3.01 28.786-9.194 4.111-3.106 7.64-6.894 10.506-11.16 9.214-13.713 6.856-29.854.116-43.967-4.161-8.834-8.616-17.61-13.87-25.971-3.353-5.337-8.063-10.625-10.935-16.535-3.505-7.213-2.674-14.273-3.097-22.02a95 95 0 0 0-.884-8.801c2.263 1.66 4.552 3.364 7.002 4.987 7.713 5.109 15.681 7.349 21.538 15.1 8.457 11.197 10.041 26.158 19.462 36.75 7.482 8.414 15.611 16.869 18.441 28.109 3.282 13.032 1.631 26.166 8.321 38.499 5.332 9.83 14.132 16.594 24.839 19.65 15.212 4.347 30.392-1.781 35.401-17.291 3.101 1.886 6.276 3.71 9.59 5.349 7.613 3.76 17.171 6.847 25.718 6.557 9.252-.315 18.126-6.103 19.331-15.773.359-2.716.105-5.418-.485-7.903-2.163-9.32-7.983-17.382-12.321-25.76-4.545-8.78-5.373-16.516-5.9-26.16-.085-4.831-.584-9.65-1.399-14.4-3.285-19.248-12.646-35.39-19.841-53.194-2.802-6.934-4.789-14.15-5.823-21.511 3.317 2.173 6.492 4.527 9.427 7.136 18.122 16.115 27.83 37.859 52.345 45.853 5.731 1.869 11.683 2.993 17.659 3.476 9.852.699 21.634.538 30.798-3.563 7.616-3.41 13.478-11.02 13.25-19.615-.09-3.417-1.31-6.682-2.945-9.374-1.615-2.731-3.61-5.08-5.514-7.288-7.522-8.714-14.352-18.024-20.325-27.857-12.489-20.561-22.255-40.25-40.475-57.072-8.521-7.96-17.127-15.771-25.403-23.876-12.287-12.034-22.457-26.74-34.5-39.24-5.835-6.053-13.025-10.98-21.298-12.94-5.332-1.261-10.651-2.203-15.899-3.84-12.108-3.775-23.689-9.031-35.765-12.903-9.324-2.99-18.281-6.653-28.008-8.263-16.423-2.72-31.995-3.884-46.654-12.578-9.777-5.78-18.115-13.791-25.209-22.735-16.294-20.543-36.438-27.957-61.991-29.077-23.609-.871-46.763 3.172-69.833 4.33-17.306.759-34.832 1.42-52.134.34-29.338-1.801-56.049-13.603-84.473-19.76-11.44-2.477-23.03-4.341-34.709-5.393-29.137-2.625-58.055 4.41-87.092 1.795a152 152 0 0 1-17.053-2.605c-22.301-4.648-47.802 8.03-67.806 16.663-12.142 5.239-23.973 11.23-35.315 18.01-11.039 6.6-25.058-1.24-25.058-14.102V74.282c0-12.471 10.11-22.58 22.581-22.58h1606.84c12.47 0 22.579 10.109 22.579 22.58v116.445a26.35 26.35 0 0 1-18.709 25.219l-.191.058c-31.646 9.575-68.372 5.732-98.101 22.13-14.471 7.982-25.995 19.678-41.64 25.625-15.761 5.99-32.808 7.745-49.571 7.252-17.736-.522-35.472 3.473-51.171 11.773-17.765 9.392-30.899 26.663-52.315 27.763-1.947.099-4.233.152-6.357.34-19.676 1.715-36.033 12.016-53.243 20.678-15.028 7.565-29.757 15.647-44.887 22.66-15.118 6.967-30.804 12.838-47.06 15.696-8.096 1.376-16.599 1.859-25.057 4.05-9.338 2.422-17.757 7.736-27.228 10.207-14.911 3.89-30.196 3.657-45.478 3.833-25.151.289-50.977.328-75.695 5.539-17.194 3.625-32.104 10.377-46.214 20.807-9.472 7-20.701 10.932-32.114 13.417-10.72 2.334-21.081 3.348-30.832 8.766-10.189 5.66-20.578 10.776-31.086 15.84-9.382 4.524-22.431 8.877-28.554 17.79-3.006 4.376-4.142 9.928-3.415 15.186 1.321 9.555 8.714 17.539 16.283 22.952 7.196 5.145 15.499 8.325 23.845 10.317 19.898 4.722 39.984 1.946 59.292-4.18 32.276-10.24 66.554-13.364 98.066-25.744 2.515-.99 5.049-2.033 7.732-2.345 8.202-.956 18.526 3.585 26.729 4.837 12.186 1.86 24.506 2.75 36.826 2.943 7.963.125 21.389-2.93 28.614.562 1.76.85 3.125 2.326 4.512 3.704a61.3 61.3 0 0 0 24.929 14.975c-2.173-.585-11.462 16.71-13.134 18.88-10.045 13.037-25.87 22.728-39.146 32.202-10.764 7.682-24.019 13.553-31.964 24.537-13.57 18.76 1.964 43.704 17.689 55.488 4.948 3.707 14.828 6.21 17.768 11.82 1.444 2.757 1.081 6.068.68 9.153-2.397 18.464-4.834 37.927-2.806 56.837 2.189 20.403 11.562 38.879 15.736 58.907 2.605 12.49 2.995 26.894 13.706 35.666 4.354 3.672 9.413 7.055 15.228 7.048 6.241-.007 12.482-.017 18.724-.022h.528c5.729-3.022 10.302-7.755 15.185-12.033.398-.348.814-.706 1.322-.852.608-.175 1.257-.02 1.87.136 8.473 2.144 16.59 3.67 25.338 1.839 14.934-3.076 25.393-14.853 30.567-28.7 2.433-6.513 3.815-13.55 4.341-20.478.698-9.188-3.015-18.986-.014-27.94 2.45-7.305 7.173-13.758 9.718-21.155 4.422-12.765 6.445-26.55 6.335-40.037-.007-.846-.019-1.716.287-2.505.414-1.067 1.344-1.833 2.23-2.558a177 177 0 0 0 18.755-17.783c-4.873 12.893-6.065 26.645-5.259 40.322.324 5.505.946 10.964 1.652 16.39a718 718 0 0 0 2.345 16.229c1.745 10.816 4.125 21.644 8.095 31.996 4.396 11.458 11.195 24.435 22.553 30.322 20.078 10.408 40.172-10.142 46.326-27.733 3.838-10.97 4.549-23.18 4.1-34.716-.428-10.952-1.967-21.781-3.812-32.52l-.103.015c-.439-3.08-1.939-5.99 1.391-8.63 10.339-8.21 14.219-19.84 16.269-32.24.58-3.47 1.42-6.04 5.34-6.71 8.311-1.42 16.55-3.62 24.921-4.351 11.59-1.01 22.349-4.26 31.369-11.34 10.41-8.17 21.931-13.75 34.061-18.74 17.979-7.39 35.879-15.86 48.469-31.06 9.73-11.738 19.89-22.818 31.111-33.068 12.439-11.371 26.699-20.711 37.019-34.491 4.91-6.551 12.51-10.12 20.021-13.42a100 100 0 0 1 5.066-2.065c10.75-4.041 22.213 4 22.213 15.484Zm-1652-385.798a11.29 11.29 0 0 1 6.831-10.361c15.803-6.822 32.173-13.318 49.389-14.651 6.33-.49 12.82-.54 17.921 4.37 4.42 4.25 6.449 7.41-.881 11.81-11.25 6.75-21.51 15.1-27.6 27.87 12.5-6.28 24.27-12.38 36.231-18.1 3.589-1.72 7.71-5.49 11.529-2.68 3.78 2.77-1.73 6.88-.68 10.64 28.28-9.48 28.28-9.48 35.26-4.53-43.78 12.57-67.669 44.9-71.64 64.42 7.44-8.33 14.55-17.01 23.92-23.4-4.58 9.32-8.6 18.59-13.11 27.61-5.96 11.92-11.69 24.09-20.29 34.55-9.159 11.14-20.199 18.86-35.079 18.82h-.187c-6.36.086-11.614-4.901-11.614-11.262Zm12.54-121.732c5.03-4.95 9.58-10.51 16.05-13.63 19.12-9.21 36.56-21.13 54.33-32.62 17.05-11.03 36.29-14.85 55.44-6.17 14.1 6.4 27.96 7.97 43.12 6.45 46.791-4.7 93.55-2.17 138.03 12.8l-.063.19c24.573 13.033 53.706 18.347 80.879 23.1a574 574 0 0 0 27.804 4.156 489 489 0 0 0 27.988 2.58c17.984 1.127 37.09 1.382 55.16 5.682 9.106 2.015 18.14 4.849 27.753 4.334l.019-.102c8.511 2.55 15.14 7.96 17.04 18.58-7.089-3.02-11.31-9.26-19.46-10.12 5.19 5.47 9.971 9.96 12.28 15.93 2.32 6.02 3.92 9.53 10.06 8.61 30.72-4.61 58.841 3.41 84.69 19.45 8.37 5.2 18.43 3.8 27.49 2.37-29.08-11.12-56.89-25.29-86.98-33.76 17.63-.48 33.77 5.49 50.081 10.79 12.359 4.01 23.489 12.18 36.6 13.12 15.359 1.09 23.17 9.74 28.44 22.77 2.859 7.07 2.889 14.41 3.21 22.3 6.79-2.42 14.489-9.65 19.439.13 3.871 7.64 9.88 11.79 16.55 15.45 18.91 10.39 31.96 25.76 42.04 44.67 11.21 21.049 21.66 42.82 42.22 57.35 7.721 5.46 5.591 14.3-3.159 18.22-5.351 2.39-11.011 2.26-16.661 2.07-27.06-.9-39.38-13.66-49.07-38.53-3.069-7.89-7.049-17-14-22-12.509-8.99-28.339-14.811-38.83-26.47 6.257 16.77 22.782 24.673 34.603 36.597 1.766 1.782-.817 4.469-2.709 2.82-9.268-8.074-20.024-14.322-30.564-20.977-14-8.83-27.969-18.77-36.04-33.59-4.77-8.75-10.299-10.51-19.16-10.18-24.76.9-49.74.71-72.79-9.49-9.49-4.2-17.16-7.53-26.53-.88-4.089 2.9-9.51 2.28-14.44 2.33-18.57.21-36.839-4.68-57.23-1.57 4.91-7.88 11.11-12.24 14.871-21.46-4.661 3.43-7.131 5.21-9.571 7.04-15.9 11.94-32.79 21.77-52.38 26.6-11.589 2.85-21.049 2.38-30.86-6.54-14.459-13.16-31.79-22.31-51.35-26.86 19.4 14.75 35.08 32.65 49.161 52.22 21.429 29.79 52.46 47.63 83.419 65.38 2.351 1.35 5.36 1.66 8.11 2.2 19.681 3.82 37.281 10.89 47.3 29.92 1.29 2.43 2.59 3.79 5.731 3.18 14.489-2.82 23.179 6.01 30.699 16.22 8.21 11.14 13.42 23.9 18.53 36.68 4.37 10.91 4.82 21.54-3.289 30.79-8.761 10-19.841 14.13-33.27 11.14q-1.486-.33-2.911-.75c6.891-4.6 12.391-8.81 17.47-14.02 13.01-13.32 11.86-28.23-3.78-38.3-9.96-6.42-20.57-11.841-35.58-10.19 9.73 2.2 16.54 5.63 22.87 9.83 12.82 8.5 13.57 20.9 2.92 31.97-11.78 12.26-21.52 12.21-32.33 1.2a36 36 0 0 0-3.567-3.202l-.052-.048c-5.931-6.26-11.971-12.39-20.991-14.42-13.12-2.94-23.929-9.88-33.5-19.15-17.15-16.62-36.65-29.87-58.92-38.51-14.42-5.59-25.82-14.46-33.83-27.45-2.98-4.83-6.219-5.51-11.299-4.5-29.221 5.8-49.96-3.84-64.401-30-4.17-7.56-7.63-15.51-11.41-23.28.02 17.24 6.081 32.74 13.75 49.67-21.73-9.39-36.25-23.87-48.34-41.45-.119 9.47 2.981 17.64 8.08 24.89 5.08 7.22 10.83 13.96 16.73 21.48-34.869-3.3-61.13-18.17-78.329-48.28-8.381-14.67-17.391-29.07-28.031-42.29-13.667-16.978-30.196-30.222-49.531-39.793-1.709-.845-.87-3.457 1.012-3.152 20.852 3.374 36.999 16.219 52.429 30.815 1.771-4.04-.589-9.4-1.87-11.17-13.63-18.74-31.549-27.28-53-33-30.299-8.08-64.63-2.3-94.549-12.8-2.931-1.03-4.791-.57-4.42 3.22q.19 2.009.107 3.853c-.507 11.6-17.998 11.002-17.998-.61v-30.046a41.65 41.65 0 0 1 12.416-29.665Zm338.86-29.52c17.25 0 32.04-.09 46.82.03 17.65.14 35.071-1.06 52.62-3.79 23.37-3.63 46.63-2.41 66.09 14.12 5.35 4.54 10.08 9.68 13.91 18.38-59.63-14.05-120.529-7.07-179.44-28.74m372.06 328.08c.78 2.22 2.3 5.01 4.22 5.86 8.33 3.7 14.7 7.91 10.52 18.65-.8 2.05 1.56 2.93 3.401 2.77 5.029-.45 8.529.4 7.089 6.75-1.439 6.39-5.52 8.92-11.669 7.7-17.371-3.45-29.941-13.24-37.911-29.99-3.2-6.72-6.95-12.72-12.15-18.21-9.24-9.79-13.59-22.16-14.88-35.43-.689-7.15-3.22-11.96-9.93-15.72-20.24-11.331-31.29-27.77-35.87-50.17-4.45-21.767-10.34-31.54-34.42-40.6-15.111-5.686-30.75-10.561-44.79-18.85-4.13-2.45-8.73-4.56-10.86-10.91 14.081-.74 26.07 3.5 38.01 7.54 18.48 6.25 37.091 11.37 56.89 9.28 7.991-.84 13.31 4.15 18.48 8.79 11.14 10.02 17.48 23 20.37 37.45 4.431 22.139 12.581 40.81 36.13 49.2 9.82 3.5 15.431 18.28 12.85 29.84-2.82 12.66.47 24.39 4.52 36.05m-198.819-157.9c-1.061-1.32-1.85-2.87-4.261-6.68 26.71 11.43 53.35 15.75 76.75 28.95 7.65 4.32 11.44 11.34 14.24 19.96 8.43 25.95 20.55 49.46 43.421 65.28 4.819 3.33 7.139 6.56 7.869 12.39 1.58 12.71 5.75 24.7 13.66 35.03 4.54 5.94 4.14 13.32 6.17 19.97 1.861 6.11 6.37 10.85 8.97 16.63 1.78 3.96 3.431 8.75-.78 11.59-4.639 3.12-12.28 5.88-17.85 2.23-17.579-11.51-24.72-28.43-20.25-49.401 1.65-7.75.271-14.12-5.979-18.878-11.951-9.111-19.271-21.361-24.491-35.061-4.96-12.99-12.14-23.62-25.9-28.93-4.79-1.84-7.859-5.97-10.91-9.96-17.88-23.34-42.279-40.34-60.659-63.12M543.696 502.7c-12.71-5.5-22.44-12.77-30.9-22.04 14.48-6.68 15.54-6.55 22.991 6.36 2.659 4.62 8.409 7.69 7.909 15.68m-.559-22.49c-1-1.388-1.971-2.96-.37-5.888 8.239 8.279 16.819 15.789 28.23 18.729.939.24 2.129.92 2.509 1.72 8.531 17.76 25.68 25.3 41.14 34.84 1.241-15.65-15.57-45.34-32.97-58.26 16.711 1.45 27.52 11.37 30.421 27.26.809 4.42 2.619 8.76 4.559 12.85 6.17 13.06 7.27 18.9 5.85 36.14-10.32-8.41-19.89-17.14-31.5-23.07-8.5-4.331-17.27-7.831-26.59-9.86-4.33-.94-8.97-2.41-9.029-7.33-.131-11.03-6.35-18.92-12.25-27.13m8.42 136.48c13.129 13.3 22.699 26.62 30.149 41.46 2.46 4.9 3.581 10.49-1.41 14.5-5.279 4.24-11.43 5.35-17.68 1.62-8.079-4.83-12.559-12.25-14.28-21.27-2.21-11.6-1.01-22.99 3.221-36.31m697.509 33.4c-1.559 12.92.97 20.3 4.93 33.98-4.12-2.55-6.67-4.13-10.81-6.69 6.14 14.85 3.321 27.09-4.91 38.18-3.03 4.08-.15 6.07 1.49 9.1 12.491 23.12 16.11 47.61 9.871 73.18-2.13 8.76-7.83 15.13-17.79 14.64-10.071-.5-18.46-8.35-19.611-18.64-2.08-18.58-5.97-36.52-13.05-53.96-8.08-19.931-6.12-40.69-2.74-61.39 1.29-7.97-1.88-12.59 1.92-18.76 4.38-7.12 14.801-.92 22.43-3.12 9.011-2.6 18.301-4.27 28.27-6.52m186.66-25.02c-16.139-10.121-33.07-11.07-50.25-2.28-3.41 1.74-6.79 3.54-11.16 5.82-2.44-32.76-7.82-43.68-27.679-56.11 20.139-14.28 41.269-24.63 66.42-24.41 4.459.04 8.009.42 9.95 5.58.721 1.92 1.761 3.565 3.068 5.022 2.954 3.295-.568 8.34-4.739 6.86-3.377-1.198-6.767-2.641-10.47-3.802 6.811 10.25 14.891 13.92 24.83 14.55 3.611.23 7.641-.57 8.46 5.39 2.74 20.09 14.17 32.29 34.71 35.41-11.04 14.9-27.88 17.55-43.14 7.97m-91.03-32.38c-9.979 10.3-3.349 21.009-5.65 32.72-3.579 18.21-14.8 29.91-33.53 33.58-2 .39-4.28.4-5.629 2.74 3.489 2.73 7.83 4.1 11.609 2.77 9.12-3.19 9.88 1.17 9.28 8.43-1.679 20.5-2.939 41.09-20.8 55.45-4.45 3.59-1.169 7.01-.08 10.41 5.611 17.409 8.76 34.909 1.37 52.6-4.45 10.68-18.089 15.88-28.28 10.64-5.889-3.02-9.37-6.85-7.92-15.081 3.34-18.9.771-37.91-2.19-56.72-1.11-7.07-1.44-13.67 1.17-20.64 3.75-9.99 4.25-20.63 3.77-31.25-1.02-23.15 6.31-42.74 23.8-58.48 14.33-12.91 22.09-27.73 39.68-37.038 3.07-1.631 5.7-6.861 9.78-3.351 3.811 3.28 6.91 9.81 3.62 13.22m24.421 50.699c-.053-.044-.105-.09-.164-.128.167-.164.326-.327.493-.491-.114.207-.217.413-.329.619m47.759 60.78c-6.08 2.152-12.709-.58-19.659 3.25 6.25 2.53 11.529 4 16.109 6.66 9.87 5.76 19.3 12.2 18.44 25.76-1.049 16.56-7.299 30.17-23.06 37.46-8.09 3.74-14.529-.11-18.869-7.04-9.011-14.37-17.53-29.01-16-47.03.139-1.74.279-3.69-.33-5.25-10.17-25.74-2.29-50.18 5.239-74.658 2.78-9 6.92-13.641 17.36-15.561 12.201-2.25 20.14.46 27.17 9.34 6.47 8.16 9.67 17.5 4.66 27.5-3.25 6.49-8.009 11.28-16.799 9.64-5.321-.99-11.141-1.61-17.071 1.99 10.151 7.24 18.97 15.06 22.81 27.94m107.65-100.56c-26.82 12.93-63.13-11.51-77.73-53.49 17.2 11.329 34.461 18.42 53.43 20.63.35.04.691.24 1.031.23 19.559-.6 38.149 1.43 50.179 20.6-12.33 6.64-25.5 6.73-39.509-3.23 1.339 8.54 7.389 11.52 12.599 15.26m90.447-148.943c-.147-1.53.008-2.763.371-3.915a33 33 0 0 0-.371 3.915m110.864-440.967H54.656c-15.69 0-28.41 12.72-28.41 28.41v807.18c0 15.69 12.72 28.409 28.41 28.409h1671.181c15.689 0 28.409-12.72 28.409-28.41V42.112c0-15.69-12.72-28.41-28.409-28.41"/></g></svg>