<svg xmlns="http://www.w3.org/2000/svg" xmlns:xlink="http://www.w3.org/1999/xlink" xmlns:inkscape="http://www.inkscape.org/namespaces/inkscape" version="1.1" width="1984.25" height="1984.25" viewBox="0 0 1984.25 1984.25">
<defs>
<clipPath id="clip_1">
<path transform="matrix(1,0,0,-1,0,1984.25)" d="M0 1984.252H1984.252V0H0Z"/>
</clipPath>
</defs>
<g inkscape:groupmode="layer" inkscape:label="Layer 1">
<g clip-path="url(#clip_1)">
<path transform="matrix(1,0,0,-1,1144.4385,984.541)" d="M0 0C-5.002-.379-9.738-.738-14.331-.797-24.786-.877-33.028 2.292-38.338 8.451-43.606 14.549-45.473 23.358-43.566 33.244-42.869 36.812-42.459 37.13-38.974 36.712-21.916 34.639-5.084 32.806 12.752 30.873 17.734 30.314 22.777 29.776 27.862 29.218L13.024 6.506C9.778 2.741 5.112 .407 .075 .006 .05 .004 .025 .002 0 0M-64.272 23.618C-67.963-30.195-96.173-67.943-148.165-88.552-225.826-119.324-309.759-143.181-397.65-159.465-423.462-164.248-443.84-163.81-461.759-158.089-489.826-149.141-508.461-122.872-507.088-94.191-506.555-83.21-504.361-71.232-500.527-58.576-497.985-50.125-491.855-43.249-483.614-39.662-469.549-33.563-454.276-26.548-435.578-17.579-431.458-15.605-426.66-12.735-426.127-8.072-425.594-3.189-430.146 .957-433.61 3.647-454.358 19.751-474.839 36.951-494.623 53.573L-501.901 59.672C-510.737 67.086-514.325 72.886-508.031 82.353-498.518 96.683-494.356 104.755-496.386 111.99-498.437 119.324-506.268 124.187-523.039 132.339-523.899 132.757-524.74 133.216-525.601 133.654-526.523 134.132-527.446 134.611-528.369 135.049-542.986 142.145-551.638 151.054-553.442 160.859-555.226 170.625-550.552 181.308-539.583 192.609-533.761 198.628-529.906 201.538-525.54 201.538-521.706 201.538-517.482 199.266-511.168 194.841-505.735 191.054-500.343 187.228-494.951 183.381-480.969 173.476-466.515 163.211-451.836 153.744-440.909 146.689-432.749 139.932-435.106 122.792L-436.706 111.053-429.571 120.64C-418.808 135.069-410.73 131.601-398.45 124.765-325.423 84.167-261.191 63.758-196.283 60.549-157.083 58.616-117.823 51.879-81.248 44.903-67.983 42.372-63.37 36.612-64.272 23.618M567.589-552.036 567.548-551.219C566.563-524.094 565.887-496.51 565.231-469.823 563.55-401.601 561.787-331.047 554.816-261.888 549.65-210.825 533.208-171.164 504.525-140.59 494.11-129.489 486.895-118.487 482.445-106.928 461.984-53.772 464.302 3.308 489.539 67.584 497.351 87.475 503.931 105.532 505.571 125.124L506.228 132.817 500.405 127.556C442.673 75.158 422.089 8.291 436.01-82.373 435.005-81.516 434.164-80.778 433.303-80.041 381.577-35.377 329.011-4.524 272.632 14.23 148.351 55.606 19.005 70.036-113.62 82.293-159.339 86.519-204.012 91.162-247.701 101.446-317.714 117.929-379.24 150.196-435.291 182.604-514.325 228.304-575.01 282.894-620.852 349.462-692.895 454.137-745.83 572.704-778.202 701.874L-778.264 702.153C-783.778 724.136-789.478 746.837-791.549 771.511-572.324 673.991-349.061 594.708-127.889 535.793L-117.577 533.062-124.813 540.716C-128.565 544.682-132.789 548.11-137.668 551.199-182.526 579.361-231.095 605.57-286.162 631.32-347.77 660.12-411.878 686.109-473.855 711.242-509.22 725.591-545.815 740.42-581.509 755.607-655.315 786.998-732.504 819.046-810.902 850.855-826.237 857.073-836.509 858.03-844.176 853.964-852.213 849.719-857.051 840.272-860.352 822.374-866.298 790.206-868.799 757.48-870.603 726.887-875.277 647.882-870.357 570.552-855.944 497.088-832.982 379.996-784.373 272.79-711.469 178.398-680.614 138.458-637.068 89.05-573.739 61.207-559.982 55.148-546.923 46.697-534.314 38.506L-529.988 35.715C-519.389 28.859-512.234 20.807-508.749 11.739-507.519 8.57-509.302 5.859-512.295 1.714-514.059-.718-515.883-3.229-516.847-6.139-520.742-17.758-518.18-29.936-509.651-40.419-509.302-40.857-508.933-41.276-508.523-41.655-509.815-44.206-512.357-48.85-513.341-50.644-513.956-51.76-514.387-52.557-514.51-52.776-525.006-73.703-527.61-99.832-521.644-124.467-517.38-142.045-509.2-157.073-498.006-167.935-484.885-180.671-469.672-183.641-453.579-186.77-451.713-187.148-449.827-187.507-447.9-187.905-434.369-190.656-420.817-193.387-407.265-196.097-374.708-202.594-349.574-207.338-325.73-211.483-318.104-212.818-310.457-214.114-302.81-215.35-270.314-220.651-253.729-235.799-245.569-267.628-226.359-342.586-212.746-419.08-201.49-484.91-194.52-525.629-195.196-561.125-203.582-593.433-209.958-618.106-224.206-639.432-237.983-660.061-240.013-663.109-242.042-666.139-244.052-669.208-269.781-708.292-288.909-751.183-307.402-792.658-314.946-809.539-322.737-826.998-330.855-843.939-335.284-853.187-329.543-857.532-325.382-860.701-324.562-861.318-323.721-861.957-322.962-862.634-320.256-865.006-317.776-866.002-315.315-865.644-311.81-865.146-309.964-862.176-308.488-859.804-308.017-859.066-307.586-858.369-307.197-857.891-298.524-847.287-291.021-837.642-284.214-828.354-264.512-801.447-248.583-771.91-233.186-743.35-221.787-722.243-210.019-700.42-196.836-679.871-168.4-635.565-155.587-587.194-158.724-536.112-161.348-493.5-168.893-450.948-176.191-409.792-177.872-400.285-179.553-390.759-181.193-381.212-188.615-337.862-196.283-293.039-211.023-250.029-223.55-213.477-249.566-193.625-290.549-189.34-300.39-188.304-309.514-187.626-319.457-187.208-318.862-186.929-318.268-186.649-317.673-186.371-307.607-181.647-298.914-177.562-290.426-173.196-289.935-172.957-289.073-172.679-288.253-172.419-285.731-171.602-282.595-170.605-281.283-167.796-280.503-166.161-280.565-164.268-281.447-162.234-282.472-159.843-282.144-159.065-282.103-158.986-281.857-158.468-280.053-157.93-278.843-157.591-277.982-157.332-277.1-157.073-276.301-156.754-272.836-155.398-269.207-154.203-265.681-153.027-263.057-152.149-260.453-151.293-257.849-150.356-237.553-143.002-216.251-137.342-195.668-131.881-169.262-124.865-141.974-117.59-116.265-106.708-81.392-91.92-45.329-76.613-17.324-48.491-3.937-35.058 17.775-17.579 17.775-17.579L58.655-24.296 31.081-51.302 34.813-53.155C56.359-63.897 67.143-85.203 62.961-108.801 62.202-113.126 61.628-117.53 61.095-121.796 60.111-129.449 59.086-137.361 56.913-144.696 52.013-161.198 55.642-171.941 69.378-181.747 74.053-185.095 76.41-188.424 76.021-191.114 75.59-194.303 71.325-197.611 64.355-200.183 61.321-201.299 58.368-202.494 54.924-203.87 53.182-204.567 51.336-205.324 49.286-206.122L42.972-208.633 57.385-215.589C63.515-218.559 69.132-221.27 74.749-224 81.863-227.447 84.651-230.815 84.118-235.24 83.75-238.43 80.961-239.725 76.472-241.578 75.139-242.137 73.786-242.694 72.474-243.352 70.792-244.229 68.619-244.668 66.344-245.146 60.973-246.242 54.31-247.617 50.455-255.43L48.343-259.755 53.264-259.715C70.854-259.536 83.381-262.067 91.355-274.843 94.062-279.167 94.451-280.562 93.242-281.559 85.718-287.737 82.458-293.358 83.217-298.719 84.282-306.113 92.914-310.737 99.331-313.567 100.909-314.265 102.447-316.118 103.943-317.912 104.559-318.63 105.174-319.367 105.789-320.045 109.192-323.752 109.028-324.868 109.028-324.908 109.028-324.908 108.393-325.904 104.107-326.662 99.393-327.479 95.005-329.033 90.351-330.668 88.342-331.386 86.292-332.103 84.18-332.78L79.854-334.155 82.766-337.544C85.82-341.092 88.034-343.643 88.034-344.839 88.055-345.975 85.882-348.426 82.868-351.794 70.978-365.187 70.69-382.687 82.15-397.455 86.148-402.597 90.495-407.58 94.697-412.403 101.094-419.737 107.695-427.312 112.965-435.383 134.963-469.065 156.325-497.925 195.258-509.863 195.832-510.043 196.673-510.721 197.391-511.318L197.964-511.797C218.527-528.319 237.922-546.774 256.66-564.633 266.317-573.82 276.321-583.327 286.348-592.476 289.258-595.126 289.155-596.303 289.135-596.422 289.054-596.86 288.192-597.697 286.08-598.594 278.495-601.724 274.518-605.41 273.923-609.855 273.082-615.914 278.926-621.275 284.092-625.281 285.588-626.417 287.044-627.633 288.5-628.849 290.468-630.483 292.519-632.197 294.691-633.771 320.052-652.147 348.897-675.128 370.465-706.119 383.545-724.895 391.5-746.599 399.209-767.605 401.607-774.143 404.067-780.899 406.671-787.496 412.494-802.205 418.009-817.312 423.339-831.941 427.091-842.245 430.966-852.888 434.923-863.312 435.046-863.631 435.147-863.949 435.271-864.309 436.03-866.521 437.055-869.57 439.945-870.945 440.848-871.364 441.791-871.583 442.795-871.583 443.738-871.583 444.723-871.403 445.769-871.024 451.099-869.151 450.114-864.109 449.684-861.957 449.581-861.398 449.458-860.841 449.437-860.322 448.352-843.103 445.707-828.154 441.34-814.682 409.173-715.467 367.574-622.312 317.674-537.786 275.461-466.275 234.272-387.749 218.958-298.161 213.936-268.844 214.263-244.408 220.106-219.834 221.377-221.149 222.628-222.445 223.838-223.701 228.737-228.783 232.961-233.168 236.937-237.852 325.546-341.909 425.328-446.444 550.921-566.805 551.29-567.144 551.7-567.643 552.131-568.18 553.647-570.054 556.825-573.94 561.479-571.628 564.965-569.914 566.502-565.012 567.097-562.241 567.855-558.833 567.712-555.385 567.589-552.036"/>
</g>
</g>
</svg>
