<svg xmlns="http://www.w3.org/2000/svg" width="2048" height="1920" viewBox="0 0 2048 1920"><defs><clipPath id="clip_1"><path d="M0 0h2048v1920H0Z"/></clipPath></defs><g clip-path="url(#clip_1)"><path fill="#231f20" d="M844.849 1110.79c1.34-6.105 3.876-11.61 6.338-16.955 2.45-5.316 4.8-10.421 6.025-15.961 1.393 12.257-2.998 24.08-12.363 32.917m-83.316 68.91c-.854 1.463-2.781 2.41-5.892 2.901-3.758.592-7.438 1.262-12.098 2.109-2.2.4-4.596.836-7.286 1.314-9.802-5.65-20.488-10.265-31.795-15.148-9.538-4.118-19.402-8.378-28.835-13.368-8.113-4.293-8.757-15.468-9.381-26.275-.145-2.521-.282-4.903-.514-7.203-.122-1.212.053-2.031.519-2.432.346-.297.88-.405 1.489-.405 1.063 0 2.352.329 3.255.56l.284.073c25.882 6.548 47.35 13.018 68.002 23.303 9.617 4.79 16.714 13.599 21.694 26.928 1.319 3.527 1.5 6.027.558 7.643m-111.18-250.607c-5.404-14.985-15.314-22.735-28.891-22.735q-3.434 0-7.174.663c-5.316.946-10.578 1.465-15.64 1.542-.51.009-1.044.076-1.61.148-2.553.324-3.713.255-4.092-1.767-.367-1.952.906-3.087 3.048-4.724.377-.29.75-.575 1.097-.863 7.322-6.087 18.518-8.922 35.236-8.922h.032c10.668-.342 21.329 1.61 31.638 3.5 3.208.59 6.525 1.197 9.8 1.73 2.279.37 3.675 1.063 4.27 2.123.68 1.21.453 3.175-.696 6.004-3.438 8.467-6.224 18.462-.82 28.402 2.362 4.343 3.096 8.588 2.069 11.957-.778 2.548-2.512 4.537-5.154 5.913-2.8 1.46-5.578 1.765-8.26.91-3.56-1.138-6.834-4.337-9.22-9.007-1.705-3.34-2.967-7.075-4.187-10.687a215 215 0 0 0-1.446-4.187m-47.803-5.837c3.038-1.9 6.709-2.881 10.258-3.83l1.28-.344c14.5-3.938 16.157-3.058 22.158 11.778 3.885 9.604 7.008 15.662 12.777 22.777 3.83 4.724 3.319 3.917 9.122 7.142-19.211.938-38.727-.09-57.611-1.085-13.694-.722-27.641-1.457-41.664-1.457-10.796 0-21.637.435-32.443 1.648 12.603-11.95 21.488-22.685 28.6-34.518 2.728-4.537 6.232-7.306 10.416-8.23 5.276-1.167 11.699.673 18.575 5.32 6.762 4.57 12.13 4.8 18.532.799m-60.94 112.29c1.115-3.137 4.38-3.603 8.166-3.603.793 0 1.609.02 2.433.04 1.648.043 3.352.085 4.869-.063 3.305-.323 6.744-.137 10.069.043 2.26.124 4.598.25 6.907.222 5.813-.073 10.459.096 12.952 2.922 1.857 2.107 2.414 5.619 1.703 10.737-.496 3.572 1.892 5.938 4 8.024.63.623 1.225 1.212 1.74 1.82 5.442 6.42 11.832 15.486 13.412 29.04-21.384-.603-39.844-11.238-58.002-33.39-.61-.743-1.28-1.515-1.968-2.31-3.681-4.246-7.854-9.06-6.281-13.482m777.955-583.962c-.35.662-.71 1.346-.992 2.039-5.472 13.412-3.784 25.834 4.88 35.923 9.862 11.48 11.996 24.408 6.92 41.912-1.426 4.924-2.687 9.986-3.906 14.882-.943 3.785-1.917 7.699-2.96 11.513-4.746 17.354-15.048 24.754-31.497 22.625l-.978-.127c-14.052-1.813-27.325-3.525-36.772-17.232-3.692-5.357-4.316-8.787-2.671-14.68 13.244-47.42 35.94-80.91 69.365-102.338.452 1.993-.447 3.696-1.39 5.483M699.397 942.798q.834-.344 1.654-.694c9.779-4.207 15.243-12.364 17.195-25.67.532-3.625.206-5.637-1.091-6.73-1.563-1.317-4.085-.74-6.346 0-7.332 2.399-12.517 7.114-15.852 14.415-1.281 2.804-2.846 5.978-5.02 9.202 1.438-8.728 2.422-18.481.486-28.26-.228-1.15-.166-1.978.175-2.333.55-.576 2.14-.33 3.299-.15q.375.06.71.106c1.133.149 2.275.282 3.419.415 4.44.514 9.032 1.046 13.102 2.686 3.369 1.357 5.927 1.548 8.048.602 3.15-1.407 4.722-5.141 6.309-9.515 8.075-22.243 21.634-42.34 43.963-65.163 7.173-7.332 15.85-9.975 23.212-7.072 14.379 5.67 25.625-.896 35.036-7.497.328-.231.63-.501.92-.762.973-.87 1.662-1.486 3.08-.855-3.67 7.868-8.002 14.432-12.888 19.52-14.511 15.118-27.66 32.037-40.377 48.399-8.668 11.153-17.63 22.685-26.934 33.527-16.322 19.024-34.497 30.688-55.563 35.66-.462.11-.93.24-1.4.372-2.152.602-4.033 1.127-5.965-.145 1.42-6.16 5.994-8.056 10.828-10.058m155.379-7.35c18.368-17.472 30.928-40.031 43.073-61.846 3.887-6.982 7.906-14.201 12.052-21.137 2.357-3.943 4.6-6.14 9.087-5.706l2.51.243c25.867 2.5 52.613 5.085 78.033 13.519a37 37 0 0 1 7.133 3.255c1.264.747 2.667 1.452 4.024 2.133 5 2.51 10.17 5.108 10.43 10.624.143 3.038-3.423 4.65-7.2 6.356-1.948.88-3.963 1.79-5.546 2.95-8.314 6.098-15.34 13.225-21.114 19.39-24.311 25.96-54.763 42.97-90.512 50.557-2.374.504-4.856.366-7.484.22-1.21-.068-2.461-.137-3.693-.137h-.033l-.032.002c-11.845.766-21.471-2.01-29.43-8.486-2.614-2.128-3.981-4.285-4.063-6.412-.072-1.852.859-3.711 2.765-5.525m40.689-89.636c1.272 1.908-1.092 7.266-5.136 15.863-11.983 25.473-31.198 44.7-50.177 61.685-2.146 1.92-4.066 3.105-6.457 2.64l-.13-.025-.13.009c-3.2.22-5.5-.42-6.836-1.899-1.49-1.649-1.906-4.45-1.24-8.327 1.57-9.113 6.35-16.505 10.82-22.534 2.479-3.345 5.116-6.66 7.666-9.867 8.028-10.097 16.33-20.54 21.174-33.622 2.339-6.314 6.655-5.913 11.654-5.445 1.459.135 2.969.276 4.393.212 8.173-.365 13.22-.46 14.399 1.31m10.133-79.552c-.848 12.939 1.653 23.159 8.009 32.914 2.38 3.653 3.11 6.523 2.173 8.53-1.16 2.48-4.861 3.416-7.763 3.763-.616.074-1.235.18-1.854.288-1.258.22-2.448.427-3.586.337-7.476-.588-15.081-1.684-18.727-7.92-2.792-4.775.366-9.783 3.42-14.624.728-1.154 1.416-2.245 2.019-3.326l.565-1.016c3.764-6.773 7.647-13.762 15.744-18.946m-2.564-39.023c-1.343-.525-2.267-2.472-2.471-5.208-.246-3.297.443-6.315 2.048-8.97 9.44-15.622 13.97-33.764 14.688-58.825.442-15.42 7.484-23.096 21.527-23.462 9.192 1.365 19.709 3.48 28.345 11.19 7.309 6.524 9.16 13.966 5.502 22.12-5.386 12.005-10.99 23.484-16.652 34.116-2.582 4.848-6.996 8.428-13.89 11.266-3.366 1.385-6.895 2.547-10.307 3.67-8.74 2.879-17.776 5.855-25.337 12.905-1.242 1.158-2.468 1.584-3.453 1.198m236.164 106.102c-3.663 6.902-8.642 12.79-13.457 18.486-2.51 2.967-5.103 6.037-7.495 9.226-1.57 2.093-3.794 2.023-6.61 1.933a56 56 0 0 0-1.764-.035q-.56-.001-1.136.026c-9.28-2.925-19.083-2.246-28.565-1.588-4.046.28-8.231.57-12.344.582-19.485.057-37.507-9.822-52.184-28.562-2.564-3.273-.901-6.374.859-9.655.348-.65.69-1.29.994-1.92 12.164-25.308 43.939-39.647 72.34-32.642 17.885 4.41 33.847 14.132 47.444 28.894 4.63 5.029 5.15 9.163 1.918 15.255m271.242 714.75c.73-.76 1.9-1.144 3.488-1.144q.676 0 1.45.093c.465.055.914.022 1.335-.01 13.286-1.006 27.445-11.774 27.053-20.576-.093-2.096-1.72-4.343-4.833-6.68-5.978-4.484-16.48-8.465-23.942-8.465h-.006c4.613-1.942 9.023-4.312 13.336-6.629 4.23-2.274 8.606-4.625 13.042-6.489 1.422-.598 2.5-.716 3.203-.35 1.15.596 1.594 2.617 2.022 4.57.133.6.264 1.2.416 1.768 2.246 8.413 2.382 17.242 2.514 25.78.07 4.605.144 9.369.545 14.038 1.985 23.169 7.055 45.955 11.957 67.99 2.109 9.48 4.29 19.283 6.193 28.974.12.61.255 1.214.39 1.824.55 2.46 1.115 4.987.718 8.38-.771-1.121-1.52-2.204-2.247-3.257-2.343-3.392-4.556-6.596-6.671-9.786l-1.202-1.815c-9.727-14.688-19.786-29.877-33.45-41.609-11.14-9.564-13.58-24.698-15.94-39.334l-.246-1.528c-.445-2.743-.151-4.676.875-5.745m59.62-189.727c-2.093 8.79-4.601 17.643-7.026 26.207-6.013 21.234-12.231 43.19-12.768 66.294-.13 5.553-.466 11.204-.791 16.668-.191 3.21-.383 6.42-.535 9.634-.191 3.997-.92 5.283-3.084 5.247-.804-.011-1.693.1-2.552.206-3.372.415-5.02.355-5.558-1.986-1.313-5.716-3.281-9.11-6.015-10.377a6.3 6.3 0 0 0-2.703-.58c-2.682 0-5.513 1.465-8.274 2.893-1.77.915-3.601 1.862-5.265 2.333-1.571.446-2.917 1.616-4.22 2.746-2.318 2.016-3.481 2.798-4.882 1.832-1.832-1.264-1.411-3.299-.5-6.502.39-1.375.796-2.797.86-4.152 1.51-31.621 14.704-56.917 31.794-86.7 5.439-9.476 10.278-18.053 14.432-27.047 2.8-6.068 5.632-7.905 10.444-6.778l.202.048.204-.037c3.374-.611 5.478-.417 6.433.592 1.444 1.524.759 5.447-.196 9.458m63.762 124.44c-1.493 1.387-3.977 1.827-7.816 1.386-6.073-.7-12.272-.967-18.266-1.227a633 633 0 0 1-7.036-.33l-.008-.307h-.977c-2.75 0-5.554-.059-8.267-.116-6.291-.13-12.797-.266-19.171.313-3.016.273-5.181-.206-6.617-1.468-1.65-1.45-2.492-4.05-2.651-8.184-.767-19.931 2.504-39.07 6.153-56.782 4.172-20.25 7.746-35.546 11.592-49.597 4.264-15.582 13.375-21.45 28.67-18.465 3.255.637 4.373 2.542 5.205 5.62 10.088 37.307 19.655 77.647 21.353 119.85.193 4.8-.495 7.758-2.164 9.308m-58.366 13.526a334 334 0 0 1 15.919-.361c12.07 0 23.963.56 35.277 1.208 6.152.354 9.499 2.223 9.569 11.07.227 28.675-2.175 56.71-7.14 83.327a35 35 0 0 0-.3 2.074c-.381 3.055-.764 5.086-2.536 5.489-1.984.45-3.847-1.93-5.49-4.028-.268-.342-.53-.678-.788-.995-9.621-11.834-15.866-22.807-19.652-34.534a44 44 0 0 1-.513-1.77c-.963-3.494-2.164-7.846-7.321-7.583-4.902.247-5.773 4.204-6.472 7.383-.262 1.19-.51 2.313-.92 3.28-7.371 17.342 1.626 28.514 11.399 37.154 1.658 1.466 3.302 2.985 5.578 5.086l2.667 2.46c-.8-.013-1.515-.03-2.162-.046-2.284-.056-3.793-.093-5.294.147-.97.154-2.135.014-3.371-.134-2.82-.34-6.328-.762-7.61 3.09-1.751 5.262 1.733 10.416 4.963 14.317 3.465 4.185 8.106 6.04 12.593 7.834 1.25.498 2.542 1.015 3.776 1.572 5.112 2.303 8.5 6.053 9.54 10.558 1.137 4.915-.525 10.375-4.676 15.373-3.377 4.064-9.623 5.67-16.303 4.196-6.683-1.478-11.69-5.631-13.064-10.838-12.275-46.507-19.358-93.318-21.054-139.13-.413-11.178 3.34-15.72 13.385-16.2m131.443 12.591c-.438-3.688-.603-7.8 1.502-10.33 1.29-1.551 3.304-2.395 6.157-2.58l1.022-.067c2.554-.168 4.649-.304 6.357-.304 2.569 0 4.26.31 5.31 1.3 2.305 2.166 2.279 8.154 2.222 21.275l-.001.138q-.011.858-.01 1.716l-.002.79c-.044 10.197-.072 16.933-2.435 18.533-2.173 1.472-7.328-.447-15.558-3.7-8.37-3.306-7.076-9.629-5.577-16.948.678-3.313 1.38-6.74 1.013-9.822m-39.328 145.364c-1.464-.56-2.761-1.95-3.865-4.135 18.747-2.97 29.974-16.857 40.838-30.296 4.623-5.72 9.404-11.632 14.686-16.591 1.746-1.64 2.526-3.074 2.453-4.516-.09-1.753-1.41-3.108-3.366-4.603-9.88-7.55-23.261-14.964-39.184-5.192-6.666 4.09-14.737 8.362-24.06 9.032-3.726.267-4.77-.538-5.06-1.041-.288-.5-.461-1.796 1.619-4.865 17.002-25.08 37.198-38.405 61.742-40.74 6.878-.653 12.605 1.465 16.559 6.125 5.417 6.386 6.745 16.78 3.642 28.515-8.042 30.414-27.56 51.974-61.42 67.853-1.746.82-3.246.967-4.584.455m23.558-173.436c-1.386 1.486-5.127 1.445-11.918 1.368l-.164-.002c-1.18-.013-2.076-.023-2.761-.023-.71 0-1.192.01-1.53.04v-.02c-2.885-.156-5.457-.27-7.748-.37-9.094-.402-13.66-.603-15.757-2.463-2.033-1.8-2.088-5.645-2.195-13.305a390 390 0 0 0-.192-8.676c-1.14-32.27-9.421-63.285-17.43-93.28l-.941-3.525c-.263-.986-.654-1.995-1.068-3.064-1.69-4.364-2.452-7.139 1.185-8.836 4.766-2.226 11.213-2.255 15.01 4.34 5.417 9.397 10.639 19.16 15.69 28.604q1.821 3.408 3.65 6.814c12.397 23.079 24.198 48.592 26.586 78.753l.124 1.55c.549 6.838.85 10.604-.541 12.096m1.85 35.777-.046 1.187c-.63 16.492-5.577 25.264-17.076 30.276-10.162 4.433-19.126 11.619-28.784 23.128.365-6.033.723-11.908 1.075-17.662 1.1-18.035 2.139-35.07 3.083-52.02.232-4.168 1.987-5.047 5.349-5.047q.236 0 .48.006c4.405.096 8.876.07 13.2.046 1.686-.01 3.37-.02 5.106-.023 8.984-.014 13.933-.024 16.022 2.145 2.195 2.277 1.993 7.52 1.59 17.964m302.622-394.702c-1.68.08-3.354.146-5 .21-7.98.31-16.233.633-24.357 2.624-10.291 2.522-17.095-2.504-21.345-15.804 18.849-1.726 35.098 5.386 50.702 12.97m76.614 23.953c-10.005-11.223-22.42-16.23-37.964-15.302-11.044.659-18.715-2.211-30.72-6.356 12.823.904 25.863.924 37.218-9.612 4.104-3.808 6.202-6.237 1.58-11.9-13.753-16.86-34.597-20.708-51.868-9.579-.662.428-1.307.914-1.931 1.385-1.701 1.283-3.325 2.507-5.442 2.768 1.208-2.875 3.219-4.761 5.332-6.744 1.287-1.207 2.618-2.456 3.715-3.927 5.93-7.948 12.038-18.91 6.568-33.225-1.433-3.748-3.141-7.276-5.914-7.71-2.136-.334-4.485 1.199-7.388 4.823-8.736 10.905-18.012 24.394-20.584 41.752a56 56 0 0 0-.174 1.307c-.416 3.29-.625 4.943-4.407 4.97-16.475.118-26.891-7.111-33.717-23.445-.6-1.437-1.352-2.794-2.078-4.108a63 63 0 0 1-1.33-2.487c-6.198-12.477-4.424-18.357 7.593-25.16 6.752-3.824 12.053-.678 17.665 2.653q.785.466 1.568.924c11.827 6.868 23.44 6.582 34.519-.85.88-.59 1.833-1.195 2.817-1.816 6.22-3.938 13.962-8.84 12.073-16.265-2.207-8.671-10.325-12.823-24.133-12.337-11.178.393-21.46 4.877-30.903 9.665-29.817 15.115-55.668 12.742-79.03-7.254-9.528-8.159-21.512-10.753-36.635-7.934-20.891 3.894-40.017 3.793-58.47-.31-2.584-.573-5.245-.947-7.82-1.31-5.691-.8-11.566-1.626-16.99-4.68 3.616-4.65 7.829-5.445 12.188-5.883 12.59-1.264 24.984 1.32 36.968 3.82 14.124 2.948 30.302 4.317 43.2-7.871 13.339-12.602 28.887-17.747 48.929-16.192 3.582.279 7.226.63 10.75.97 14.7 1.417 29.9 2.882 45.064-.494 8.427-1.876 15.422 1.857 22.01 11.745 12.133 18.21 29.007 23.117 47.515 13.82 3.533-1.773 5.48-3.696 6.129-6.05.669-2.425-.067-5.128-2.385-8.765-5.14-8.065-12.167-13.69-22.117-17.703-5.452-2.2-10.923-2.177-16.713-2.15-4.041.017-8.203.034-12.454-.755 7.093-5.065 14.176-3.881 21.042-2.733.91.153 1.812.303 2.7.437 1.99.298 3.884.44 5.693.44 17.592 0 26.996-13.498 34.488-28.364 1.458-2.894 1.809-4.688 1.212-6.193-.691-1.744-2.61-2.746-5.277-3.716-15.806-5.745-30.312-1.932-40.85 10.738-15.464 18.596-34.856 25.163-59.214 29.302-8.121 1.379-17.62 2.264-26.49-1.633-.564-.248-1.16-.485-1.766-.727-3.42-1.36-6.651-2.646-6.687-6.474-.04-4.274 4.065-7.112 7.515-8.741 3.849-1.817 7.989-3.173 11.992-4.484 1.709-.561 3.419-1.121 5.114-1.717 18.722-6.582 26.138-16.732 28.34-38.79.38-3.813.293-6.66-1.372-8.163-1.61-1.451-4.3-1.265-7.845-.54-19.094 3.915-31.934 15.504-39.254 35.43-7.13 19.408-18.926 30.782-36.066 34.774-5.722 1.332-14.06 4.072-21.282 9.553-14.3 10.852-30.274 10.488-44.124 9.296-4.184-.36-8.435-1.193-12.546-2-4.733-.926-9.627-1.886-14.51-2.15-3.47-.186-5.49-.798-6.003-1.813-.698-1.383 1.01-4.29 2.576-6.668 11.646-17.684 11.547-37.202-.303-59.667-2.205-4.182-4.744-8.22-7.2-12.123-2.02-3.21-4.106-6.53-5.985-9.893-11.653-20.871-20.002-25.174-40.604-20.926-12.963 2.673-21.564 13.014-29.881 23.015l-1.456 1.748 1.083.579c7.823 4.18 12.79 7.42 13.383 10.656.353 1.926-.74 4.172-3.653 7.508-15.153 17.352-17.525 39.003-17.832 59.815l-.02 1.356c-.424 29.164-.424 29.164-26.798 32.396-9.7 1.187-19.723 1.147-29.415 1.108a677 677 0 0 0-10.365.012c-4.452.05-8.188-1.911-10-5.245-1.458-2.682-.133-4.23 2.149-6.534.83-.84 1.688-1.705 2.306-2.677 1.509-2.374 3.172-4.714 4.78-6.977 2.565-3.606 5.217-7.335 7.35-11.351 6.837-12.858 13.012-28.216 6.978-44.632-2.572-6.996-3.121-9.356 2.428-12.43.298-.164.64-.316.994-.477 1.353-.61 3.036-1.37 3.556-3.107.403-1.344-.008-2.955-1.256-4.926-9.306-14.69-30.346-21.09-45.026-13.693-14.864 7.489-22.86 21.929-30.593 35.893q-1.035 1.873-2.081 3.745c-9.657 17.259-14.81 36.615-19.792 55.333-1.94 7.29-3.947 14.829-6.186 22.104-8.36 27.164-20.853 38.717-43.12 39.88l-1.648.087c-15.482.822-30.105 1.599-43.316-9.438-6.366-5.319-13.082-10.345-19.576-15.207-12.606-9.438-25.641-19.197-36.594-31.455-4.705-5.264-10.845-8.988-18.251-11.065-26.966-7.567-48.291-19.937-65.192-37.817-3.966-4.195-8.51-7.386-12.794-8.985-20.944-7.813-32.168-26.625-43.023-44.82-2.73-4.575-5.553-9.307-8.492-13.803-.116-.176-.256-.362-.384-.574-2.598-4.29 14.802-16.336 19.397-24.178 1.105-1.885 2.247-3.833 3.443-5.66 2.174-3.322 3.822-4.832 5.51-5.047 1.783-.226 3.992.959 7.16 3.843 26.983 24.557 49.862 53.936 69.943 89.812 5.315 9.494 11.338 20.255 21.098 25.023 18.237 8.908 33.137 22.392 47.547 35.433 10.592 9.586 23.18 12.088 36.405 7.236 3.472-1.273 5.408-2.731 6.278-4.727.92-2.115.627-4.737-.954-8.502-8.806-20.976-26.098-31.175-46.254-27.282-.77.149-1.525.4-2.255.645-1.843.615-3.603 1.203-5.827.35a682 682 0 0 1 4.557-2.458c4.133-2.218 8.036-4.313 11.778-6.637 11.446-7.107 14.718-15.029 12.505-30.268-.565-3.894-1.492-5.87-3.1-6.608-1.776-.816-3.904.138-6.553 1.82l-.874.555c-11.234 7.13-22.852 14.503-29.796 27.592-1.953 3.678-3.767 5.566-5.55 5.767-1.852.207-4.09-1.332-7.256-4.997-8.393-9.717-14.536-18.47-19.332-27.543-12.722-24.073-30.775-54.642-57.678-77.555-.523-.445-1.094-.85-1.7-1.277-2.135-1.513 24.814 1.587 35.109 7.416 19.448 11.01 40.128 19.624 60.128 27.953 6.469 2.695 13.159 5.48 19.705 8.305 2.655 1.147 4.799 1.736 6.63.884 1.64-.761 2.769-2.511 3.776-5.85 2.326-7.708 8.604-11.748 15.04-14.966 3.715-1.857 6.306-2.322 8.153-1.465 1.8.836 3.107 3.019 3.993 6.67 3.433 14.153 12.483 24.101 21.234 33.724l1.843 2.029c3.492 3.858 6.185 5.386 8.476 4.807 2.455-.62 4.138-3.47 5.627-9.531 2.54-10.348.828-18.593-5.24-25.203-3.85-4.196-8.116-8.058-12.243-11.793-1.476-1.336-2.992-2.707-4.487-4.092 2.035-.664 3.728.44 5.505 1.599.36.236.714.466 1.06.674 20.968 12.618 36.25.647 49.642-14.17 2.979-3.295 4.233-6.445 3.725-9.361-.514-2.953-2.815-5.542-6.84-7.693-10.576-5.657-21.676-5.707-33.936-.159-6.316 2.86-12.376 6.126-19.391 9.91-2.13 1.148-4.304 2.32-6.581 3.532 12.07-16.23 16.002-25.892 17.047-40.775.252-3.585.097-6.052-1.455-7.271-1.49-1.171-3.75-.79-6.682.144-23.415 7.462-36.766 26.062-37.595 52.37-.327 10.374-4.792 15.579-14.478 16.878-10.012 1.342-18.743-2.095-29.118-6.727-9.536-4.26-18.662-9.91-27.487-15.375-10.035-6.213-20.411-12.64-31.515-17.11-10.961-4.412-21.421-10.261-18.54-28.664l.475-3.03-4.562 4.565c-1.058 1.06-1.735 1.74-2.42 2.409-9.092 8.87-14.031 13.49-18.286 13.231-4.336-.261-8.817-5.596-17.016-15.798-11.324-14.087-22.781-22.423-36.055-26.229-6.058-1.736-12.297-3.091-18.33-4.401a931 931 0 0 1-5.015-1.099c-.547-.12-1.107-.176-1.65-.23-1.916-.193-2.852-.36-3.164-2.013-.375-1.996.998-3.236 2.98-4.77l.198-.153c2.38-1.85 5.213-3.212 8.91-4.287 6.577-1.91 13.389-1.942 19.978-1.972 2.674-.012 5.438-.025 8.164-.162 12.66-.632 22.182-4.117 31.842-11.65l2.12-1.654-2.685-.133c-4.31-.214-8.422-.404-12.394-.588-9.754-.45-18.966-.876-27.99-1.531-4.204-.306-8.224-1.005-9.173-4.03-.83-2.644.862-3.863 3.69-5.632.995-.623 2.025-1.267 2.819-2.027 26.453-25.303 53.612-53.275 69.53-92.344 2.322-5.698 5.726-12.664 11.49-15.982 10.679-6.145 19.115-14.222 25.79-24.691 2.98-4.673 7.632-6.718 13.099-5.76 6.06 1.064 12.274 1.772 18.283 2.458 15.705 1.79 31.946 3.643 46.668 12.024 26.432 15.048 50.108 13.447 72.382-4.896 11.566-9.525 23.076-11.614 34.212-6.21 3.342 1.623 6.472.524 9.233-.447.498-.174.994-.35 1.49-.507 11.01-3.52 16.536-4.95 19.608-2.874 3.145 2.125 4.156 8.44 5.014 20.114 1.58 21.494 11.18 34.958 32.1 45.02.62.298 1.257.676 1.93 1.075 2.733 1.62 6.134 3.636 9.744.508 4.072-3.53 3.174-7.975 2.305-12.274q-.138-.682-.27-1.365c-2.34-12.344-7.895-23.424-17.388-34.596 18.103 6.774 24.927 5.87 42.464.032 3.449-1.148 5.404-2.538 6.152-4.375 1.04-2.555-.456-5.461-2.04-8.538-9.071-17.611-30.402-26.15-47.55-19.033-.868.36-1.725.761-2.592 1.168-2.506 1.174-5.078 2.38-8.292 2.689.513-.431 1.01-.856 1.5-1.272 2.232-1.9 4.16-3.541 6.24-4.791 11.52-6.918 15.87-18.097 13.69-35.184-.612-4.804-1.773-7.3-3.765-8.088-1.83-.726-4.07.08-7.05 2.535-9.314 7.675-19.871 16.374-23.06 29.492-1.813 7.457-4.951 12.488-9.326 14.955-4.093 2.307-9.417 2.452-15.821.43-26.255-8.285-47.46 3.495-62.998 14.686-2.586 1.863-5.655 3.165-8.04 4.09-10.945 4.249-20.364 3.71-28.795-1.648-3.773-2.398-5.883-5.62-5.79-8.841.079-2.75 1.815-5.208 4.888-6.92 13.092-7.298 16.606-19.657 18.316-30.785 2.283-14.858 8.86-25.862 20.11-33.641 13.589-9.396 20.392-24.369 28.268-41.704l2.747-6.03-2.694 1.54c-10.723 6.125-16.297 15.138-21.688 23.853-2.274 3.676-4.422 7.148-6.914 10.356-4.064 5.229-8.216 9.622-14.294 5.97-4.977-2.99-3.65-7.313-2.112-12.32.216-.703.43-1.404.625-2.095.49-1.753.864-3.56 1.225-5.306.22-1.072.442-2.145.69-3.208 3.738-15.986 6.669-39.386-10.943-57.96-2.728-2.876-1.87-4.573-.571-7.142.244-.482.493-.975.722-1.486 8.794-19.651 25.763-25.692 43.3-31.948 18.945-6.76 31.82-16.838 40.519-31.718 20.182-34.527 57.41-49.511 94.518-50.873 17.037-.625 28.004-7.783 37.816-24.24 3.424-5.741 4.357-9.324 3.118-11.98-1.242-2.665-4.473-4.194-11.151-5.275-13.756-2.228-25.705 2.868-36.532 15.58-11.653 13.683-25.16 22.303-40.145 25.622-23.812 5.273-42.338 19.695-58.301 45.387-9.731 15.659-23.927 25.982-41.056 29.853-13.006 2.939-27.944 7.669-40.12 20.467-3.633 3.819-7.48 5.923-11.444 6.263-.41-16.091 10.423-43.155 23.159-57.54 8.158-9.215 17.38-12.546 29.029-10.484q4.295.76 8.24.758c18.389-.002 30.976-12.282 35.824-35.326l.174-.831-.791-.307c-20.22-7.861-37.32-2.538-50.825 15.822-2.933 3.986-6.421 8.079-10.025 9.724-29.821 13.613-42.554 54.636-41.397 48.957 2.643-12.962.759-25.332-5.6-36.765-3.761-6.766-6.937-9.812-10.297-9.878-3.291-.064-6.463 2.715-10.29 9.009-9.116 14.994-9.087 35.88.07 50.79 18.697 30.44 16.28 52.812-8.337 77.216-17.741 17.587-29.093 37.61-34.703 61.215-1.147 4.827-2.52 9.687-3.847 14.386-1.108 3.92-2.254 7.976-3.266 12.005-1.92 7.63-6.201 11.647-12.726 11.939-10.227.459-19.886 4.265-30.198 11.936.319-1.152.636-2.257.948-3.341 1.163-4.05 2.167-7.548 2.618-11.17.608-4.882.622-10.283.045-16.51-.443-4.784-1.687-7.583-3.916-8.808-2.114-1.162-4.974-.787-8.743 1.143-20.986 10.75-28.663 25.95-25.67 50.825.043.351.1.712.158 1.084.3 1.9.585 3.713-.804 5.574q-.685-1.92-1.353-3.784a935 935 0 0 1-3.85-10.89c-4.044-11.75-12.621-18.352-25.495-19.625-2.836-.281-6.814-.363-8.595 2.15-1.38 1.947-1.1 4.928.855 9.115l.637 1.368c6.207 13.323 12.625 27.1 25.114 35.283 6.51 4.264 6.085 8.656 3.024 15.269-5.303 11.455-12.14 21.683-18.126 30.178-2.22 3.149-4.6 6.283-6.902 9.313-10.161 13.38-20.668 27.215-21.16 47.09-.05 2.096-1.261 4.235-2.543 6.499-.584 1.033-1.188 2.1-1.677 3.173-11.8 25.879-34.322 35.4-52.624 40.805-17.311 5.11-29.127 13.08-38.313 25.84-14.3 19.861-34.663 26.707-64.083 21.543-.341-.06-.7-.115-1.067-.173-3.847-.6-6.61-1.315-7.128-5.077-.52-3.777 1.608-6.614 4.963-9.713a391 391 0 0 1 4.696-4.245c5.447-4.873 11.08-9.912 15.726-16.036 4.109-5.415 9.424-8.877 16.728-10.895 13.372-3.694 24.959-19.33 26.378-35.594.306-3.508-.206-5.71-1.613-6.928-1.28-1.11-3.148-1.327-5.884-.688-13.233 3.093-21.59 9.245-26.301 19.365-8.126 17.455-21.012 30.364-32.451 41.092-4.728 4.435-7.983 6.176-10.245 5.48-2.403-.738-4.266-4.403-5.865-11.529-3.891-17.346 5.847-35.693 22.653-42.677 18.31-7.61 34.907-20.31 52.233-39.97 15.847-17.98 31.984-25.375 50.793-23.275 7.1.793 13.386-1.564 19.217-7.207l1-.968-1.236-.64c-6.382-3.295-11.661-4.856-17.651-5.22-.951-.056-1.985.168-2.986.384-1.401.303-2.848.615-3.701.062-.512-.333-.88-1.029-1.096-2.067-.497-2.393.766-5.656 2.206-8.827.489-1.077 1.068-1.745 1.72-1.989 1.07-.395 2.493.264 3.869.903.776.36 1.508.7 2.236.888 12.66 3.272 24.257 3.158 35.456-.351 1.229-.384 2.696-.668 4.249-.967 4.666-.9 9.955-1.92 10.107-6.374.218-6.39-4.165-12.253-13.026-17.43-5.888-3.44-11.975-1.986-17.347-.7-2.21.528-4.31 1.554-6.341 2.546-3.177 1.553-6.445 3.149-10.386 3.018l.77-.732c1.344-1.28 2.406-2.29 3.553-3.17 18.51-14.198 23.396-27.583 18.673-51.154-1.45-7.231-3.358-10.828-6.38-12.025-2.844-1.126-6.454.04-11.706 3.78-13.13 9.349-16.953 24.396-19.745 39.007-1.051 5.501-1.902 11.14-2.724 16.594-1.68 11.133-3.415 22.644-6.942 33.459-3.76 11.529-12.886 13.81-22.547 16.225-.843.21-1.684.42-2.52.638-1.351.35-2.557.325-3.073-.062-.14-.105-.325-.303-.34-.814-.303-10.75 1.962-19.425 6.925-26.523.496-.71 1.063-1.361 1.662-2.05.468-.538.935-1.075 1.37-1.642 10.696-13.913 14.912-26.601 17.917-40.71 4.596-21.574 17.714-42.048 20.29-44.582 8.769-8.63 17.605-12.568 27.015-12.037 6.747.379 13.015-1.327 18.258-3.048 3.453-1.131 5.485-2.71 6.213-4.824.819-2.38-.028-5.247-2.747-9.3-6.781-10.108-16.117-13.08-28.54-9.088-4.008 1.288-7.998 2.86-11.858 4.379q-1.427.563-2.855 1.12c1.31-2.214 2.912-3.88 4.85-5.056 21.863-13.275 19.877-36.866 15.706-55.937-.814-3.716-2.08-5.835-3.985-6.667-1.841-.805-4.156-.325-7.281 1.513-12.631 7.422-20.853 19.399-24.438 35.598-2.17 9.799-3.806 19.517-5.54 29.805a1706 1706 0 0 1-1.841 10.798c-12.61-24.673-7.675-85.753 9.063-104.056 3.775-4.127 7.243-4.216 11.597-.294 10.565 9.513 23.007 11.165 34.878 11.533 1.064.033 2.352.358 3.716.702 2.743.694 5.578 1.41 7.756.101 1.184-.71 2-1.95 2.428-3.687 1.232-5.006-1.196-11.578-6.496-17.58-3.744-4.238-8.706-6.841-14.748-7.735-4.627-.685-9.388-.527-13.992-.375l-.205.007c18-7.675 27.694-20.638 30.35-40.396.149-1.105.377-2.254.598-3.363.886-4.463 1.803-9.078-1.83-12.807-4.673-4.797-10.651-2.621-15.454-.872l-.708.258c-7.647 2.76-13.943 8.138-18.208 15.55-3.098 5.386-5.992 11.024-8.792 16.476-1.972 3.845-4.013 7.819-6.103 11.664-.69 1.268-1.282 2.64-1.854 3.968-1.307 3.034-2.653 6.156-5.305 8.387-.245-3.411.16-6.45.555-9.404.21-1.576.409-3.067.515-4.607.145-2.102.327-4.213.51-6.328 1.18-13.657 2.4-27.78-6.647-40.193-2.608-3.578-4.725-5.152-7.078-5.265-2.276-.11-4.556 1.217-7.177 4.173-12.565 14.173-15.803 29.46-9.898 46.734 1.366 3.994 2.903 8.019 4.683 12.68.467 1.222.954 2.499 1.466 3.846q-1.247-1.246-2.354-2.361c-3.255-3.276-5.825-5.863-8.68-8.132-6.795-5.404-17.252-11.628-29.546-3.331-3.406 2.298-4.982 4.293-5.113 6.468-.13 2.132 1.18 4.309 4.119 6.855 10.658 9.232 22.583 18.182 37.549 21.132 3.813.752 6.166 2.007 7.405 3.95 1.339 2.102 1.47 5.239.4 9.589-6.548 26.634-7.702 53.095-3.428 78.647 3.14 18.78 4.01 38.506 2.584 58.626-1.264 17.816-7.17 31.237-18.056 41.029-2.872 2.584-4.792 4.066-7.941 2.08-8.52-5.375-18.78-26.443-15.603-35.522 3.96-11.317-1.677-13.758-8.205-16.584l-.85-.37c-9.664-4.216-16.947.313-22.211 4.729-3.541 2.969-6.915 6.074-10.487 9.36-1.175 1.08-2.364 2.175-3.575 3.28-.245-2.63.944-3.986 2.19-5.41.296-.336.583-.665.842-.998 9.927-12.793 11.21-27.693 3.812-44.285-.567-1.271-1.114-2.673-1.693-4.156-2.658-6.806-5.964-15.276-13.35-13.814-9.424 1.865-12.763 14.306-14.456 23.5-.195 1.062-.182 2.135-.17 3.172.009.682.016 1.325-.031 1.956-1.028 13.636 2.758 26.377 6.42 38.699l.954 3.219c3.993 13.573 3.156 24.404-2.634 34.084-4.688 7.838-6.894 17.304-6.557 28.133.492 15.792-3.4 30.71-12.25 46.946-5.952 10.922-7.33 19.994-4.464 29.413 1.836 6.035-.793 10.407-5.63 15.504-12.366 13.032-26.372 28.497-36.07 47.139-2.162 4.155-4.072 6.225-6.191 6.71-1.89.432-4.203-.4-7.072-2.543-4.887-3.65-10.59-2.777-16.104-1.931l-1.3.197c-9.091 1.345-17.736 5.583-27.206 13.335-1.75 1.433-4.825 2.164-6.327 1.506-1.613-.707-1.402-1.818-.491-4.371.262-.734.533-1.494.665-2.212 2.764-15.015 9.278-28.93 19.91-42.54 4-5.118 7.572-6.177 12.74-3.778 11.247 5.222 23.595 4.315 34.287 3.055.896-.105 1.93-.144 3.028-.185 4.836-.181 11.459-.43 11.969-7.483.61-8.45-7.354-13.963-12.157-16.498-2.993-1.58-6.04-1.826-8.986-2.065-.818-.066-1.637-.132-2.46-.227-5.375-.623-10.441.989-15.34 2.547-2.527.804-5.126 1.63-7.777 2.158 1.509-3.26 4.096-4.443 6.608-5.593 18.555-8.49 25.755-24.082 22.66-49.073-.7-5.644-1.743-9.693-4.561-11.118-2.267-1.146-5.318-.464-10.203 2.279-14.078 7.905-22.792 21.368-25.9 40.015-.405 2.428-.69 4.93-.967 7.35-.633 5.545-1.284 11.245-3.417 16.425-.615-7.183-.646-14.306-.675-21.227l-.008-1.762c-.06-12.486-7.592-19.278-14.146-23.8-1.338-.922-3.003-2.07-4.813-1.608-1.25.319-2.29 1.332-3.18 3.099-5.775 11.452-3.413 39.052 4.17 47.547 9.924 11.113 9.669 11.965.137 29.326-5.847 10.649-11.357 21.084-18.173 30.88-10.934 15.713-22.24 31.96-32.123 48.85-14.594 24.942-28.914 32.164-49.426 24.928-.78-.275-1.582-.223-2.29-.177-.467.03-.908.059-1.282-.005-6.924-1.186-14.037-1.722-20.916-2.24-9.264-.7-18.831-1.42-28.217-3.733 2.834-5.082 6.475-7.683 10.837-7.733 15.402-.178 22.462-11.593 27.798-23.903.485-1.12 1.09-2.34 1.734-3.63 2.779-5.592 5.93-11.93 2.032-15.53-7.017-6.481-17.51 1.608-20.957 4.266-2.331 1.796-4.401 4.015-6.404 6.16-.972 1.042-1.978 2.12-2.992 3.125-.71.702-1.246 1.58-1.766 2.428-1.141 1.866-1.917 2.985-3.572 2.862a238 238 0 0 1-.86-3.274c-.791-3.072-1.61-6.25-2.766-9.24-.134-.345-.265-.713-.4-1.091-.861-2.42-2.041-5.734-5.264-5.94-3.232-.206-4.678 2.917-5.733 5.199-.183.394-.36.779-.541 1.137-3.751 7.428-3.067 15.42-2.405 23.152l.163 1.93c1.474 18.023-3.23 25.048-19.354 28.91-1.153.278-2.351.52-3.56.767-4.704.955-9.568 1.943-12.965 4.997-10.734 9.65-23.376 10.83-35.602 11.972l-.616.057c-4.995.455-10.655.972-13.895 7.517-14.93 30.157-39.52 48.272-79.732 58.737-14.796 3.85-30.417 1.489-43.746-1.33-8.527-1.802-17.27-3.218-25.725-4.586-20.935-3.39-42.584-6.895-62.558-16.568l-1.223-.592c-19.353-9.373-39.367-19.065-58.884-28.983-3.957-2.01-6.68-2.411-8.568-1.261-2.05 1.249-2.94 4.078-2.976 9.462-.18 27.053-.412 53.565-1.272 80.49-.301 9.42 3.474 12.288 10.544 14.282 20.529 5.792 41.76 8.808 62.29 11.725l5.106.726c3.043.436 6.095.856 9.149 1.277 25.617 3.529 52.107 7.178 75.498 20.155 20.969 11.632 42.972 17.727 69.245 19.18 17.027.943 34.502 3.456 44.688 22.493 2.706 5.057 6.575 4.09 9.989 3.238.367-.091.737-.184 1.108-.27 12.93-2.995 22.052-.552 29.577 7.92 2.935 3.303 6.572 5.851 9.977 6.99 11.207 3.745 13.385 8.832 9.322 21.772-3.023 9.627-.83 19.542 5.724 25.873 5.654 5.464 13.47 7.161 20.909 4.542l1.045-.369-.473-1c-2.93-6.216-8.15-8.725-13.196-11.15-.865-.417-1.728-.832-2.577-1.264-3.708-1.89-5.962-3.94-5.738-8.308.386-7.497 11.486-23.715 16.968-24.788 18.478-3.62 31.743 1.984 35.484 14.986 4.064 14.126 6.795 28.707 9.244 42.434.892 4.998 2.208 9.498 8.428 9.666 19.54.524 37.639 8.334 55.142 15.889 3.909 1.687 7.952 3.432 11.952 5.07 10.877 4.457 18.006 10.983 22.435 20.542.308.664.606 1.376.913 2.106 1.608 3.832 3.608 8.6 8.625 10.073l.897.265.323-.878c3.012-8.167.24-14.91-2.594-20.587-3.05-6.11-1.96-10.313 3.76-14.51 5.655-4.146 9.79-6.396 15.509-.145 19.485 21.296 32.015 39.69 40.628 59.644l.53 1.236c2.657 6.205 5.405 12.62 12.048 17.129l1.677 1.137-.116-2.023c-.978-16.981-5.896-31.862-15.038-45.49-7.004-10.442-14.58-20.671-21.907-30.564l-3.616-4.886c-2.424-3.281-3.297-5.486-2.745-6.938.504-1.326 2.419-2.35 5.689-3.04 11.64-2.454 23.62-3.167 35.208-3.856l2.016-.12c3.593-.215 5.776.285 6.87 1.572 1.167 1.374 1.289 3.88.383 7.887-2.862 12.667-2.933 24.957-.211 36.527.264 1.119.455 2.409.657 3.774.78 5.277 1.747 11.84 8.04 11.53 6.764-.337 12.606-6.385 14.883-15.406 1.189-4.712.74-8.885.267-13.303l-.056-.516c-.395-3.701-1.58-7.225-2.725-10.631-1.382-4.11-2.808-8.347-2.836-12.916 1.637.716 2.223 2.173 2.837 3.7q.164.412.332.805c9.14 21.152 23.787 27.73 48.975 21.993 5.286-1.205 8.139-2.85 9.25-5.334 1.197-2.678.382-6.213-2.725-11.824-5.625-10.158-14.061-16.698-25.073-19.437-7.708-1.918-15.667-2.92-23.364-3.89-10.78-1.355-21.924-2.757-32.398-6.706-13.942-5.255-28.428-5.642-44.288-1.183-8.056 2.264-12.322 2.476-15.215.755-3.528-2.101-5.394-7.637-7.261-15.887-.908-4.01-.824-6.463.26-7.721.967-1.12 2.953-1.548 6.07-1.31 19.448 1.485 38.349-3.451 56.628-8.226 2.539-.662 5.077-1.325 7.616-1.972 10.585-2.693 16.787-8.382 18.96-17.39.827-3.423 2.003-5.476 3.598-6.275 1.617-.811 3.879-.485 7.562 1.09 12.115 5.185 25.504 6.03 42.137 2.66 3.718-.752 5.984-2.101 6.93-4.126.982-2.1.51-4.874-1.444-8.481-5.587-10.317-14.004-14.786-25.013-13.286-4.755.649-9.4 1.673-14.32 2.757-1.67.368-3.363.74-5.086 1.105 1.168-2.671 3.069-3.322 5.065-4.006l.1-.034c22.237-7.624 24.062-29.034 22.915-48.97-.36-6.231-2.454-10.48-5.9-11.964-3.36-1.447-7.701-.145-12.224 3.667-10.941 9.219-18.237 21.552-21.685 36.656-.09.394-.17.786-.246 1.168-.367 1.816-.63 2.92-1.42 3.438 2.569-9.352-.36-17.624-3.198-25.638-.914-2.58-1.858-5.246-2.6-7.9-1.122-4.022-2.54-6.19-4.462-6.82-2.208-.726-4.562.623-7.645 3.034-15.835 12.387-21.297 36.879-12.438 55.76.412.878.927 1.725 1.425 2.544 1.246 2.052 2.436 4.01 2.234 6.555-1.501-1.535-2.983-3.064-4.455-4.582-4.315-4.452-8.391-8.657-12.687-12.78-9.576-9.188-19.052-4.273-25.347.224-2.336 1.668-3.52 3.3-3.721 5.137-.211 1.918.67 3.906 2.775 6.252 8.294 9.245 19.84 20.406 35.648 24.668.608.164 1.235.3 1.862.433 3.196.685 5.756 1.231 6.296 5.524-21.183 6.418-42.41 4.746-62.21 1.97-23.8-3.337-47.32-10.382-70.064-17.195-11.74-3.515-23.877-7.152-35.924-10.24-4.484-1.15-6.698-3.578-7.402-8.117-2.045-13.18-5.578-28.218-16.281-39.836-1.732-1.879-2.433-3.591-1.976-4.823.457-1.23 2.16-2.101 4.676-2.391a1636 1636 0 0 1 28.36-3.037c18.9-1.846 40.66-5.614 58.759-19.558 12.936-9.965 27.59-13.23 44.8-9.978 14.13 2.67 27.579.519 38.87-1.937 23.5-5.112 51.474-9.324 80.786-1.813 15.433 3.956 32.026 6.534 48.793-1.321 10.722-5.024 18.055-6.182 23.778-3.753 6.192 2.628 11.023 9.836 15.663 23.374.958 2.794 1.79 5.71 2.594 8.53.432 1.512.864 3.024 1.316 4.528.845 2.812 1.653 5.763 2.434 8.617 3.603 13.168 7.329 26.786 16.764 35.46 17.393 15.992 30.304 36.04 41.864 65.006.568 1.423 1.407 2.685 2.219 3.904.33.495.659.99.969 1.495 8.029 13.084 18.132 30.618 25.052 50.232.31.878.603 1.783.9 2.704 1.634 5.055 3.486 10.785 9.115 14.789l1.583 1.126-.004-1.944c-.003-2.23.043-4.43.087-6.558.19-9.082.369-17.661-3.395-25.88-1.965-4.287-3.791-8.755-5.557-13.075-1.603-3.918-3.26-7.968-5.02-11.89-1.695-3.78-2.074-6.448-1.094-7.717.92-1.191 3.234-1.486 6.876-.873 1.693.284 3.415.72 5.08 1.142q.737.188 1.475.37c23.974 5.903 41.44 21.732 61.785 41.81 4.772 4.711 9.51 9.676 14.092 14.476 14.696 15.393 29.89 31.31 48.788 41.63 3.44 1.879 3.39 4.418 3.327 7.633a42 42 0 0 0-.005 2.07c.553 17.93 4.527 32.84 12.146 45.58 2.196 3.672 4.282 5.407 6.565 5.462 2.32.055 4.577-1.676 7.085-5.448 6.535-9.828 6.869-20.129 1.024-31.49-.918-1.785-1.975-3.435-3.094-5.183-2.13-3.323-4.32-6.744-5.577-11.253q.41.305.793.584c1.562 1.145 2.69 1.972 3.354 3.056 4.405 7.193 10.729 11.77 18.796 13.605 12.625 2.871 25.847-1.745 34.01-7.023 4.384-2.833 6.529-5.477 6.75-8.32.232-2.95-1.556-5.96-5.797-9.755-12.682-11.349-25.396-14.88-40.011-11.112l-1.858.48c-10.277 2.671-20.892 5.43-31.912 2.177 2.818-5.195 6.989-6.293 11.39-7.451l.119-.031c28.794-7.58 57.263-6.53 87.034 3.213 14.117 4.62 32.138 7.688 46.299-9.741 4.279-5.267 3.997-9.278-.975-13.846-15.2-13.965-34.944-14.983-51.53-2.66-.49.364-.938.865-1.372 1.35-.72.803-1.463 1.631-2.215 1.66q-.513.02-1.163-.442.994-1.613 1.974-3.222c1.712-2.803 3.482-5.7 5.29-8.468 6.717-10.274 6.588-21.02-.405-33.822-1.712-3.134-3.363-4.65-5.195-4.771-1.806-.12-3.6 1.124-5.64 3.912-10.554 14.416-16.213 29.549-16.82 44.98-.367 9.325-3.634 10.27-11.003 10.22-5.81-.043-11.74-.775-17.474-1.485-10.344-1.277-21.04-2.6-31.616.012-9.905 2.444-18.194.776-26.087-5.25-20.61-15.736-44.187-34.554-63.178-58.779-7.448-9.497-14.963-15.111-23.654-17.668-7.571-2.226-12.55-6.56-14.8-12.885-1.555-4.374-3.253-6.687-5.505-7.498-2.284-.823-4.95-.125-9.2 2.408-9.527 5.68-15.13 7.37-18.73 5.654-3.77-1.798-6.127-7.742-7.88-19.873-1.427-9.874-5.557-16.41-13.394-21.192-12.985-7.925-22.394-19.964-28.764-36.803-8.142-21.525-13.041-45.395-15.415-75.12-2.014-25.22 6.115-42.01 24.85-51.326 7.217-3.59 12.352-10.255 17.318-16.701q.775-1.006 1.547-2c5.458-7.015 11.916-9.077 20.324-6.488 9.575 2.947 19.225 2.969 28.682.062 8.735-2.684 13.888-.57 17.789 7.297 3.21 6.475 8.144 13.035 14.664 19.502 16.682 16.545 33.894 33.053 50.539 49.018 4.58 4.394 9.162 8.787 13.739 13.187 9.378 9.017 21.08 17.914 36.784 15.543 3.929-.594 7.65 1.548 11.248 3.62 10.643 6.13 21.237 14.29 32.385 24.944 3.652 3.492 7.29 7.156 10.807 10.7 10.584 10.662 21.528 21.688 34.494 29.634 25.773 15.795 38.706 38.692 39.537 70 .54 20.37 9.397 35.01 25.61 42.34.355.16.718.35 1.084.543 1.474.772 3.144 1.647 4.83 1.014 1.196-.447 2.127-1.564 2.848-3.414 6.72-17.257 13.317-42.313-6.886-60.574-6.146-5.555-11.208-10.91-15.475-16.369-.378-.483-.782-.98-1.195-1.491-3.111-3.84-6.638-8.191-4.408-12.68 1.44-2.899 4.424-2.747 8.812-2.187 1.288.164 2.618.334 3.857.344.119.111.307.345.427.494.116.145.232.288.349.419.26 1.41-.491 2.417-1.708 3.899-1.383 1.685-3.106 3.782-1.682 6.944l.248.552.603.035c17.384 1.052 24.165-1.909 38.186-16.667 6.873-7.233 14.633-15.4 26.1-17.025l-9.091 121.197 1.735-1.232c5.295-3.76 6.347-7.834 6.695-11.678 2.168-23.902 7.617-47.452 12.886-70.226 2.629-11.363 5.347-23.113 7.628-34.774 2.39-12.214 8.679-19.094 20.468-22.33 4.2-1.153 8.543-2.344 10.687-.507 1.57 1.346 2.092 4.42 1.55 9.14-.474 4.133.995 8.332 4.25 12.143 6.1 7.14 6.399 14.964.862 22.625-7.105 9.832-7.513 20.054-1.246 31.248 4.809 8.59 4.718 16.353-.306 25.957-5.581 10.67-5.005 20.82 1.712 30.165 6.829 9.5 5.903 17.15-2.912 24.073-3.904 3.065-6.346 7.552-6.877 12.632-.62 5.93 1.368 12.128 5.45 17.004 1.94 2.318 2.726 3.91 2.546 5.163-.182 1.262-1.408 2.565-4.1 4.358-10.87 7.239-19.392 17.962-23.997 30.193-12.773 33.926-35.291 59.67-55.395 81.137-3.564 3.805-7.247 7.645-10.808 11.36-26.976 28.129-54.87 57.216-61.32 102.014-.683 4.75-2.524 4.597-5.311 4.363-1.037-.087-2.11-.177-3.166.01-1.473.26-2.53.12-3.14-.417-1.064-.937-1.047-3.241-.938-5.522.252-5.274.14-13.079-3.711-19.918-3.398-6.035-8.881-9.376-14.308-8.72-4.763.575-5.018 4.789-5.222 8.175-.101 1.686-.207 3.43-.785 4.685-1.344 2.911-.53 5.82.259 8.633.417 1.488.845 3.013.974 4.573-2.36-1.777-4.402-3.912-6.39-5.99-3.14-3.282-6.387-6.677-10.785-8.476-4.086-1.672-8.166-1.795-11.487-.349-2.926 1.276-5.12 3.66-6.341 6.897-2.371 6.28 1.329 14.13 8.247 17.5 3.252 1.584 6.83 2.347 10.292 3.085l.7.15c-8.646 2.67-16.672 7.81-17.83 21.193-.356 4.124.14 8.212 6.136 10.18 13.02 4.275 20.266-3.355 25.028-12.083-.087 4.638.39 8.375 2.594 10.813 1.499 1.659 3.627 2.518 6.509 2.627 7.325.28 11.99-4.711 13.506-14.424.376-2.408.302-4.894.23-7.3q-.026-.836-.044-1.668c-.045-2.291.432-3.107.84-3.389.606-.418 1.733-.1 2.572.24q.66.266 1.317.517c4.417 1.718 7.907 3.074 7.812 9.92q-.023 1.763-.04 3.519c-.121 12.33-.235 23.978-5.708 35.197l-.51 1.06c-1.902 3.985-2.414 5.056-6.733 3.098-3.414-1.55-6.075-1.661-7.908-.333-2.262 1.638-3.057 5.228-2.43 10.972.139 1.266.702 2.359 1.246 3.415.777 1.506 1.419 2.75.94 4.35-7.622-5.161-16.432-6.01-26.206-2.517-.476.17-1.118.264-1.798.364-2.082.303-5.227.765-5.053 4.493.124 2.668 2.66 5.716 4.965 7.418 7.082 5.233 15.16 5.381 22.973 5.524.962.019 1.926.037 2.888.064 19.018.532 34.24 10.393 46.446 30.112-9.8-4.86-20.855-7.896-31.802 3.006-5.19 5.168-5.314 8.769-.496 14.275 10.383 11.864 22.374 9.076 33.029 4.906-.503 1.34-1.505 1.754-2.695 2.245-.537.22-1.092.45-1.593.778-10.618 6.967-10.528 18.832-10.454 28.364.012 1.666.499 2.927 1.446 3.748 1.016.88 2.499 1.195 4.408.938 11.303-1.53 17.91-6.737 20.789-16.39 1.907 6.71 3.062 10.143 5.49 10.917 2.537.809 5.448-1.417 11.793-6.528 4.368-3.518 7.308-3.648 10.85-.477 1.516 1.357 3.104 2.657 4.64 3.914 2.059 1.686 4.189 3.428 6.132 5.303 12.263 11.83 12.292 12.08 3.112 26.711-4.001 6.38-5.06 12.245-2.978 16.52 1.848 3.795 5.983 6.132 11.957 6.759 9.698 1.015 19.597 1.399 29.169 1.768 5.024.195 10.218.396 15.315.686 10.043.572 20.13.8 30.217.8 21.005 0 41.997-.995 62.514-1.967 7.395-.35 15.04-.712 22.558-1.022.806-.033 1.69-.008 2.628.019 4.799.136 11.37.323 13.325-8.224 2.222-9.716.093-16.4-6.903-21.67-2.851-2.147-4.313-4.504-4.23-6.814.089-2.42 1.893-4.831 5.217-6.977 12.58-8.12 23.733-15.78 32.817-27.33 21.508-27.35 36.035-56.11 43.18-85.482 7.556-31.068 7.148-64.004-1.212-97.89-1.935-7.845-3.467-16.127.808-23.569.913-1.59 3.34-5.812 5.596-6.33 1.87-.428 2.534.978 3.396 4.51.163.666.317 1.295.5 1.854 5.088 15.45 17.06 19.613 28.102 21.647 3.135.577 5.396.204 6.914-1.143 1.688-1.497 2.357-4.065 2.106-8.082-.437-6.982-.926-14.818-5.485-23.924 14.119 5.412 23.44-.162 30.736-6.468 1.599-1.382 3.244-3.085 3.319-5.237.059-1.66-.79-3.305-2.671-5.177-8.564-8.521-16.784-11.247-25.872-8.58-.672.197-1.315.495-1.937.784-1.674.774-2.737 1.192-3.834.38 12.72-9.542 17.452-19.754 15.795-33.943-.308-2.643-.807-4.63-2.237-5.736-1.147-.885-2.767-1.126-5.253-.78-13.215 1.845-22.184 11.69-23.406 25.695l-.052.597c-.542 6.3-1.06 12.293-8.013 17.66 3.812-8.314 3.399-14.9-1.234-20.053-11.954-13.302-11.808-29.42-10.088-43.432.122-1 .295-2.027.48-3.113.88-5.203 1.877-11.101-2.84-15.495-1.908-1.779-2.79-3.197-2.693-4.337.099-1.174 1.22-2.364 3.87-4.106 11.818-7.77 11.324-20.3 10.847-32.417l-.08-2.04c-.085-2.397-.69-3.976-1.848-4.828-1.713-1.264-4.081-.623-6.59.054l-.12.033c-11.898 3.216-15.66 13.792-18.698 24.634-1.48-4.407-.956-8.493-.447-12.465.238-1.859.463-3.615.496-5.403.21-11.129-4.05-19.407-12.662-24.601-3.983-2.403-7.208-2.975-9.586-1.702-2.456 1.315-3.816 4.53-4.042 9.556-.338 7.529-.305 14.35.899 22.566-8.54-5.611-16.844-5.366-25.321.726-3.872 2.783-5.891 5.708-6 8.693-.103 2.87 1.55 5.75 4.916 8.562 11.619 9.703 21.719 11.889 32.75 7.09l.764-.335c3.904-1.723 7.322-3.233 10.166.594-17.95 2.639-21.77 6.594-23.543 23.095l-.106.983.983.116c14.239 1.69 19.175 1.245 24.01-2.164l.084-.06c5.796-4.087 9.295-6.555 10.892-5.91 1.733.7 2.688 5.716 4.27 14.025l.067.348c1.215 6.373 1.303 12.782.272 19.594-.608 4.013-1.522 8.09-2.407 12.033-2.87 12.797-5.838 26.03.86 39.807 1.54 3.17-.336 7.043-2.151 10.788a77 77 0 0 0-1.177 2.503c-1.32 2.986-2.327 3.48-2.81 3.51-.487.03-1.584-.369-3.358-3.361-15.496-26.13-36.302-47.307-56.424-67.788-6.22-6.33-12.648-12.874-18.821-19.463-13.498-14.41-24.798-31.65-35.561-54.26a283 283 0 0 1-2.536-5.533c-5.09-11.311-10.857-24.132-23.763-29.517-1.362-.569-2.14-1.21-2.311-1.905-.291-1.186 1.104-2.863 2.226-4.213.285-.342.559-.673.803-.988 8.106-10.455 7.602-20.243-1.54-29.925-7.305-7.737-8.552-16.825-3.606-26.281 6.126-11.711 5.429-22.381-2.196-33.58-3.084-4.53-5.213-11.5-1.06-16.23 10.66-12.141 7.3-24.947 2.944-37.023-2.841-7.877-4.654-16.377 1.27-25.161 3.948-5.852 4.646-12.543 1.969-18.843-1.936-4.557-2.31-7.782-1.14-9.861 1.55-2.755 5.935-3.6 10.676-4.285 9.433-1.367 19.072-1.612 28.393-1.848 4.838-.123 9.839-.25 14.762-.533 2.722-.155 4.454.216 5.453 1.166 1.152 1.097 1.609 3.153 1.577 7.1-.14 17.246-2.858 34.11-8.08 50.125-.83 2.543-1.668 5.082-2.506 7.62-4.907 14.862-9.981 30.231-13.052 46.092l-.164.837c-.877 4.409-1.706 8.574 3.298 13.069l1.167 1.047.458-1.5c1.528-5.004 3.012-9.962 4.483-14.882 3.384-11.305 6.578-21.983 10.146-32.743 4.312-13.005 10.262-27.968 21.733-41.108 1.532 15.724-1.327 30.039-4.346 45.154-1.674 8.385-3.406 17.056-4.364 26.102l-.382 3.601 2.175-2.894c6.302-8.386 8.736-15.654 11.056-23.611 2.479-8.498 4.937-17.16 7.314-25.538 4.295-15.13 8.736-30.779 13.456-46.03.394-1.274.727-2.675 1.079-4.158 1.276-5.368 2.595-10.92 6.854-11.288 4.788-.415 7.846 6.18 10.438 13.365 1.129 3.127 2.276 6.252 3.423 9.378 10.806 29.439 21.98 59.88 17.302 93.494-2.92 20.978 1.802 36.87 14.437 48.582.29.27.577.548.86.823 1.6 1.548 3.254 3.15 5.359 2.975 1.516-.127 2.982-1.177 4.48-3.211 10.407-14.123 8.559-42.837-3.53-54.864-5.87-5.842-6.202-6.171-4.307-15.102 18.94 17.235 39.579 38.65 51.193 67.06 9.267 22.668 15.787 49.094-6.111 73.227-8.657 9.542-6.632 36.373 1.27 47.36 1.418 1.97 2.763 2.985 4.234 3.195 1.958.279 3.72-.952 5.658-2.467 9.37-7.326 14.453-16.662 15.108-27.747.809-13.697 1.672-26.925.422-40.261-.932-9.938-.124-16.41-2.553-30.978-4.718-28.303-10.172-46.02-2.133-36.374l2.364 2.833c14.88 17.776 31.622 25.706 51.177 24.248.497-.037 1.037-.015 1.61.007 1.553.064 3.315.137 4.474-1.135.974-1.068 1.262-2.804.907-5.466-2.792-20.931-20.812-38.286-40.17-38.685-1.335-.03-2.703.236-4.024.493-2.7.523-5.26 1.02-7.578-.842 1.16-2.187 2.944-2.525 4.984-2.911 1.1-.208 2.238-.423 3.28-.955 1.732-.88 3.619-1.368 5.618-1.887 1.716-.446 3.49-.907 5.173-1.64 10.648-4.638 16.162-14.795 15.13-27.87-.284-3.613-1.124-5.647-2.723-6.593-1.43-.848-3.284-.707-5.832.442a616 616 0 0 1-4.132 1.836c-12.676 5.594-25.784 11.377-33.818 25.385-1.49 2.594-2.9 3.956-4.314 4.163-1.362.199-3.002-.632-5.015-2.543-6.885-6.53-15.188-11.668-26.921-16.657-5.876-2.498-10.662-7.417-14.227-14.62-5.414-10.94-11.782-21.112-17.298-29.621-7.48-11.542-11.077-24.837-10.693-39.515.26-9.963 3.942-13.678 13.573-13.678h.089c20.83.048 38.754 8.617 59.26 21.47 5.182 3.248 10.367 6.824 15.38 10.283 12.535 8.645 25.496 17.584 39.796 22.387 25.714 8.635 44.179 26.585 59.872 58.2 5.919 11.925 7.515 22.045 5.177 32.819-2.955 13.624-.718 26.33 6.649 37.769 4.57 7.095 8.19 11.495 12.093 11.495h.058c3.61-.041 6.9-3.828 10.853-10.05 3.329 10.374 6.565 20.15 13.873 27.835 3.36 3.532 6.073 4.944 8.537 4.44 2.517-.513 4.532-3.003 6.34-7.837 3.176-8.49 6.303-19.707 2.26-31.203-1.983-5.641-3.621-11.58-5.205-17.322-4.03-14.613-8.196-29.722-18.487-41.788-2.951-3.46-4.107-5.994-3.535-7.747.606-1.856 3.254-3.283 8.334-4.49 15.807-3.756 26.509.397 34.7 13.466 12.47 19.899 30.998 17.35 43.85 13.703 5.9-1.675 9.07-3.9 9.972-7.002.968-3.33-.817-7.39-5.62-12.777"/></g></svg>