<svg xmlns="http://www.w3.org/2000/svg" width="2048" height="1920" viewBox="0 0 2048 1920"><defs><clipPath id="clip_1"><path d="M0 0h2048v1920H0Z"/></clipPath></defs><g fill="#231f20" clip-path="url(#clip_1)"><path d="M618.948 869.76c-1.365.81-3.195 1.17-5.476 1.32-15.375 1.05-30.03-1.965-44.28-7.35-13.71-5.205-26.64-12.12-39.84-18.45-24.255-11.625-50.755-21.488-77.535-25.154-32.17-4.404-61.046-3.33-92.681-2.49-3.51.094-6.241.703-9.766.958-1.935.15-4.713 3.03-4.742 5.206-.031 2.31 2.457 2.842 4.197 2.962 2.49.195 4.183 1.095 6.673 1.215 19.71.9 39.245.548 58.64 4.508 7.35 1.515 14.385 3.93 21.405 6.405 3.48 1.23 6.929 2.805 8.175 7.605-9.075.78-17.94 1.065-26.686 2.385-18.15 2.73-37.02 2.445-53.714 12.105-2.161 1.245-4.26 2.61-6.495 3.735-4.74 2.43-7.005 5.49-4.155 10.935 2.25 4.275.36 6.09-4.261 5.535-12.12-1.485-23.31 3.51-34.935 5.445-1.334.21-3.18.075-3.344 2.085-.15 1.815.795 3.345 2.46 3.96 2.91 1.095 5.97 1.77 8.88 2.865 2.129.81 5.475.255 5.685 3.705.194 3.165-1.545 5.49-4.246 7.155-9.104 5.64-18.6 10.65-29.084 12.84-29.355 6.12-55.918-3.165-82.453-15.885-18.48-8.851-37.625-15.423-57.83-20.043-6.285-1.44-12.255-2.47-18.766-2.17-1.845.09-5.261-.467-6.056 2.578-.93 3.63 2.325 3.855 4.53 4.59 12.825 4.275 25.665 8.46 38.505 12.69 11.46 3.78 22.74 8.04 33.225 14.01 3.24 1.845 8.655 4.125 6.255 8.415-1.951 3.495-6.405-.225-9.255-1.695-23.715-12.225-49.65-15.825-75.675-19.485-19.47-2.745-23.16-2.505-23.16-21.825V401.039c0-9.626 7.803-17.43 17.429-17.43h480.946c9.627 0 17.43 7.804 17.43 17.43Zm0 401.01c-.63 72.345-1.23 144.84-1.8 217.47-.03 4.98-1.44 6.495-6.255 6.66-18.75.615-32.745 8.7-40.26 27.075-3.375 8.235-12.39 10.905-19.875 6.345-4.065-2.49-7.726-5.64-11.685-8.34-10.365-7.065-21.045-10.29-33.42-3.93-8.385 4.305-12.975 2.22-17.025-6.48-2.221-4.755-4.17-9.66-5.745-14.655-5.805-18.285-18.015-29.76-35.911-35.445-3.584-1.14-7.08-2.475-10.604-3.75-4.8-1.74-7.725-5.145-9.705-9.93-4.695-11.325-13.65-17.04-25.605-17.97-5.61-.45-11.31-.63-16.92-.18-5.4.42-8.235-1.5-10.38-6.51-5.28-12.33-11.325-24.27-19.86-34.74-16.11-19.77-37.32-31.725-60.87-40.005-29.73-10.44-60.96-14.07-92.01-18.375-7.62-1.065-15.046 1.185-22.155 4.005-12.81 5.1-23.895 2.94-33.165-7.14-9.615-10.47-21-17.805-35.445-19.41-6.075-.66-7.11-3.93-7.11-9.285v-.615c1.245-96.195 2.235-192.135 3.36-287.835.135-12.015.885-12.405 11.445-6.975 12.42 6.39 21.57 16.815 31.755 25.95 12.375 11.1 24.255 22.77 37.785 32.52 19.169 13.83 41.325 17.955 64.365 19.095 19.005.945 37.98 1.875 56.445-4.89 2.34-.855 6.57-1.95 7.545.15 1.439 3.12-2.04 5.565-4.485 7.455-5.701 4.395-12.09 7.575-18.975 9.6-2.175.63-4.065 1.32-3.72 4.11.33 2.55 2.385 2.475 4.23 2.745 12.195 1.755 22.635-2.955 32.325-9.66 18.12-12.555 34.98-26.775 52.29-40.38 32.37-25.425 68.43-42.615 109.08-48.99 3.884-.6 7.86-.795 11.805-.93 2.7-.105 5.595-.195 5.535 3.96-.075 3.84-2.206 5.07-5.595 5.16-11.73.345-23.176 2.67-34.185 6.675-24.585 8.91-45.45 22.86-58.695 46.455-1.275 2.28-2.671 4.635-2.58 7.62 3.93-1.065 6.12-3.96 8.28-6.72 9.66-12.27 22.35-19.92 36.629-25.515 16.08-6.3 32.58-10.17 49.756-11.19 5.16-.3 10.275-1.515 15.434-1.95 2.49-.225 5.656.42 6.48 2.775 1.036 2.955-2.324 4.155-4.32 5.265-8.384 4.71-17.79 5.625-27.06 6.81-8.25 1.05-16.56 1.605-24.69 3.6-2.22.54-4.364 1.095-6.464 2.685 3.225 4.275 7.71 5.97 12.135 5.61 26.475-2.19 53.205-1.98 79.2-8.595 8.535-2.175 16.275-6.24 23.475-11.43 3.675-2.655 7.38-5.295 12.165-1.065 2.565 2.265 5.31-.165 7.41-2.49 3.315-3.705 5.805-8.22 10.53-10.53 3.975-1.92 7.17-2.04 8.67 3.03.93 3.105 2.76 5.94 5.46 7.35 1.305.675 2.28 1.455 2.985 2.325Zm-505.77-314.89c12.69 2.716 24.885 6.976 36.854 11.7 22.56 8.91 46.036 14.37 69.796 18.676 10.005 1.815 20.295 2.19 30.435 3.315 2.865.315 6.06.39 5.834 4.755-.24 4.605-3.824 2.864-6.104 3.299-2.865.526-5.82.51-8.715.84-1.681.196-4.125-.66-4.155 2.386-.03 2.459 1.905 2.894 3.75 3.45 5.4 1.605 10.98 2.34 16.575 2.865 2.34.209 4.5.704 6.42 2.084 2.265 1.62 3.27 3.976 2.85 6.51-.51 2.985-3.345 1.786-5.205 2.07-2.46.376-4.981.346-6.795.466-12.09.044-23.025-1.95-33.48-6.585-27.706-12.3-55.47-24.48-83.25-36.66-6.915-3.03-14.235-4.47-21.81-4.89-6.105-.346-10.8-.795-13.035-3.75v-8.925c2.415-2.025 7.26-2.205 10.035-1.605m-10.035-36.606c2.43-2.25 7.575-2.895 10.8-2.475 17.1 2.205 33.48 6.555 48.255 15.6 4.56 2.775 9.33 6.42 7.44 12.315-1.89 5.865-7.981 4.425-12.57 4.08-10.65-.795-20.775-4.035-30.93-7.035-3.39-1.005-6.72-2.22-10.17-2.94-6.135-1.29-10.635-1.77-12.825-4.86Zm-66.09-590.352v1262.154c0 9.347 7.576 16.923 16.923 16.923H668.13c9.346 0 16.923-7.576 16.923-16.923V328.923c0-9.346-7.577-16.923-16.923-16.923H53.976c-9.347 0-16.923 7.577-16.923 16.923"/><path d="M1208.253 1425.735c-8.115-7.05-15.946-14.43-23.851-21.705-8.01-7.35-16.634-8.22-26.144-2.88-10.125 5.7-20.34 11.294-29.625 18.405-10.755 8.235-11.205 14.805-1.44 23.985 12.675 11.91 25.665 23.49 38.31 35.415 4.934 4.65 10.529 6.705 16.994 5.385 16.83-3.435 31.74.075 45.496 10.41 9.284 6.96 19.68 7.71 30.344 2.31 6.106-3.075 12.33-5.88 18.57-8.64 1.95-.855 3.93-1.395 4.875.105v30.435c0 9.627-7.803 17.43-17.43 17.43h-212.4c-2.024-1.77-2.67-4.95-2.22-9.885 1.666-18.645 2.026-37.32 2.656-55.98.299-8.985-2.31-16.755-7.5-23.956-9.84-13.649-19.38-27.509-28.426-41.729-5.685-8.91-7.56-17.7-5.34-28.425 7.35-35.715-6.96-67.485-37.68-85.83-8.144-4.86-16.934-7.725-26.49-7.755-3.855-.015-7.29-.99-10.724-2.685-18.856-9.27-35.52-22.17-53.685-32.595-4.261-2.445-4.095-7.695.165-11.31 9.285-7.875 17.685-16.62 25.965-25.47 10.259-10.92 17.759-23.76 24.299-37.065 3.585-7.29 8.43-12.705 15.615-16.305 11.34-5.655 22.47-11.73 33.916-17.145 7.92-3.765 12.809-9.615 15.119-17.91a81 81 0 0 1 2.116-6.51c5.099-13.56 13.289-18.345 27.449-16.455 16.95 2.28 32.73 8.385 48.525 14.445 28.666 10.98 57.106 22.545 86.73 30.69 34.89 9.615 70.305 14.715 106.426 14.625 11.55-.03 12.78-.12 12.914 11.79v269.46c-1.334 2.22-3.63 3.525-6.96 4.47-4.694 1.334-9.39.96-14.1 1.155-6.78.27-13.59-.36-20.324 1.095-2.265.495-4.77.855-5.985 2.895-4.05 6.78-9.765 3.6-14.91 2.73-3.015-.525-3.226-3.48-2.821-6.105 1.32-8.715-2.025-15.315-8.43-20.895m-298.62-105.375c.705-1.185 2.25-.66 3.465-.705 7.89.465 24.646 14.28 26.64 21.735.586 2.19-.284 2.804-2.025 2.64-1.814-.18-4.034-.24-5.31-1.29-7.35-5.985-14.504-12.21-21.63-18.465-1.034-.9-2.01-2.46-1.14-3.915m111.796 215.79a.9.9 0 0 1-.165.24H819.152c-1.694-.57-3.21-1.5-4.41-3.015-6.884-8.655-16.68-11.385-26.534-14.056-6.42-1.739-13.051-2.594-15.705-10.289-.765-2.22-3.435-3.765-5.881-4.41a9 9 0 0 1-.66-.21v-207.99c8.086 7.68 17.49 10.125 28.095 10.77 9.046.54 16.89 5.79 24.315 10.8 42.375 28.65 85.246 56.52 123.75 90.42 9.736 8.565 17.625 18.78 26.58 28.02 3.466 3.585 7.23 6.09 12.286 6.555 5.4.495 9.794 3.27 13.8 6.66 4.545 3.855 6.84 8.115 2.94 14.13-2.671 4.11-3.33 9.015-3.511 13.905-.09 2.085.15 4.26-.33 6.27-4.02 17.175 3.75 28.98 16.455 38.805 3.586 2.775 6.69 6.195 9.9 9.435 1.005 1.02 1.98 2.535 1.186 3.96m-257.985-358.005c.315-14.625.195-29.25.255-43.86h.51c.06-14.61.194-29.205.12-43.8-.016-2.67.525-4.425 1.634-5.19 1.125-.795 2.82-.57 5.116.765 15.555 9.06 32.625 14.4 49.335 20.67 7.965 3 9.149 5.625 6.899 14.07-5.01 18.735-16.424 33.15-31.934 44.355-8.281 6-17.101 11.295-25.8 16.71-1.47.915-2.685 1.41-3.616 1.425-1.74.03-2.594-1.545-2.52-5.145m19.95-794.535h480.96c9.627 0 17.43 7.803 17.43 17.43v105.42c-.794.42-1.904.57-3.404.6-19.23.3-37.846-4.47-56.7-7.275-9.765-1.455-19.5-3.375-31.125-1.44 6.419 4.935 12.405 6.255 18.21 7.875 22.544 6.3 45.389 11.22 68.25 16.02 2.37.495 3.885 1.215 4.769 2.43v35.835c-.39.525-.975.96-1.845 1.275-27.57 10.2-55.394 19.395-85.59 17.475-14.024-.9-27.93-3.27-41.594-6.465-14.085-3.3-27.976-2.13-41.971-.675-16.604 1.725-33.134 4.41-49.964 4.11-5.34-.09-10.606.42-15.42 3.06-1.801.99-4.17 2.07-3.915 4.17.299 2.64 3.15 1.95 5.055 2.175 24.84 2.925 49.755 5.1 74.415 8.835 37.185 5.655 74.13 12.66 111.21 18.465 13.23 2.07 26.73 2.34 40.11 3.42 1.004.075 2.039-.015 3.045.105 2.175.285 5.235.24 5.25 3.03.015 3.48-3.33 1.635-5.19 2.07-1.156.27-2.43 0-3.645.03-1.171.015-2.581-.27-2.88 1.41-.33 1.8.81 2.61 2.355 2.925 2.789.6 5.625 1.125 7.905 3.045 1.05.9 2.474 1.92 1.68 3.525-.645 1.32-2.175.78-3.3.645-11.565-1.38-23.115-1.515-34.74-.96-16.305.78-32.041 5.19-48.27 6.705-5.055.465-9.855 3.54-14.805 5.325-1.32.48-2.28 1.14-1.711 2.595.45 1.14 1.62 1.005 2.64.75 28.08-6.856 56.61-4.635 85.02-3.57 5.76.225 11.55 1.23 15.9 6.57-2.504 1.47-4.41.18-6.224-.09-4.875-.735-9.345-1.44-10.605 5.31-.525 2.79-9.852 2.805-12.447 2.55-12.87-1.215-19.46-1.63-32.18.38-4.304.674-8.234 1.36-12.39.295-2.668-.676-4.603.074-5.128 2.745-.72 3.615 2.354 2.565 4.004 2.67 16.696 1.095 33.375 1.935 50.04 3.165 4.38.315 11.115-.256 10.47 6.285-.434 4.35-6.45 2.1-9.96 2.445-6.27.63-12.584.915-18.735 2.31-17.954 4.05-35.715.075-53.49-1.89-24.96-2.745-49.8-7.38-75.09-4.62-5.76.63-11.28 2.04-16.304 4.905-4.875 2.76-7.711 6.945-8.505 13.125 3.285.15 5.685-1.08 7.725-2.49 13.259-9.135 27.75-9.3 42.974-6.66 29.026 5.055 58.095 9.675 87.136 14.325 7.845 1.26 15.839 1.455 23.61 3.36 1.965.495 3.9 1.155 5.835 1.815 1.424.495 2.535 1.35 2.639 3.03.106 1.92-1.305 2.325-2.745 2.595-1.95.375-3.704 1.26-3.75 3.36-.06 2.46 2.43 2.415 4.02 3.015 3.63 1.395 7.38 2.46 10.62 4.695 5.056 3.495 5.116 6.06.66 10.095-7.634 6.9-16.68 6.48-25.964 5.16-11.686-1.65-22.966-5.866-34.95-5.745-19.365.21-37.995 4.695-56.581 9.54-2.625.675-5.04 1.935-6.39 4.38-1.59 2.85-3.63 6.3-2.13 9.15 1.14 2.175 4.95 1.125 7.47.78 24.376-3.27 48.84-4.185 73.38-3.495 10.47.3 12.36 2.73 9.3 12.96-2.34 7.814-7.604 13.515-14.1 17.925-17.864 12.135-37.814 19.11-59.264 21.18-42.21 4.08-82.875-4.575-123.6-15.54-45.645-12.285-91.71-23.895-139.816-22.245-30.81 1.065-60.57 7.815-89.88 17.04-11.025 3.465-22.424 5.925-32.775 11.415-1.095.585-1.875.795-2.445.735V401.04c0-9.626 7.804-17.429 17.43-17.429m498.39 207.87c-.87 1.35-2.834 2.025-5.864 2.4-9.27 1.185-18.405 2.31-27.72.585-1.62-.3-3.435-.51-3.675-2.505-.225-1.965.689-3.45 2.73-4.155 8.19-2.835 16.26-6 24.54-8.535 7.71-2.37 9.345-2.055 9.989 4.59Zm-581.91-262.557v1262.154c0 9.346 7.577 16.923 16.923 16.923h614.154c9.347 0 16.923-7.577 16.923-16.923V328.923c0-9.347-7.576-16.923-16.923-16.923H716.795c-9.346 0-16.923 7.576-16.923 16.923"/><path d="M1927.428 1536.39h-480.961c-9.626 0-17.429-7.803-17.429-17.43v-134.7l.007-.008c13.768-.997 27.511-1.925 40.387-8.196 4.665-2.281 10.245-1.666 15.511-1.591 11.669.195 23.339 1.035 34.904-1.29 7.11-1.425 13.321-4.29 18.166-10.11 26.444-31.77 59.609-54.78 93.359-76.92 3.016-1.98 6.09-3.915 9-6.06 4.831-3.57 7.381-8.475 7.53-14.64.331-14.19-.375-28.335-1.635-42.435-.615-6.825-4.634-11.55-9.465-15.81-26.535-23.43-52.379-47.655-78.15-72.015a100 100 0 0 1-7.5-7.98c-6.915-8.145-7.065-9.63-.945-18.585 2.73-4.004 5.671-8.055 9.271-11.19 13.845-12.075 18.15-28.245 19.5-45.825.195-2.445.63-4.905.554-7.335-.329-9.45 3.03-16.725 10.335-22.77 5.355-4.455 6.72-11.355 6.255-18.39-.375-5.31-1.109-10.605-2.97-15.6-3.405-9.075-2.519-17.64 2.535-25.695 20.775-33.134 34.636-69.555 48.691-105.9 12.839-33.21 20.594-67.725 27.51-102.525 2.069-10.455 3.84-21 7.859-30.93 4.125-10.275 11.475-15.96 22.065-17.64 11.55-1.8 23.205-1.755 34.845-1.62 4.381.045 8.19 1.995 11.071 5.25 8.16 9.21 18.63 12.51 30 11.91 24.209-1.244 47.114 6.93 70.634 10.32 3.496.496 4.966 3.09 5.971 6.015 4.86 13.965 16.845 18.165 28.8 21.675 6.54 1.905 13.005-.225 17.325-6.06 4.395-5.925 10.47-9.42 16.62-12.825 10.319-5.7 15.69-14.684 16.199-26.595.315-7.23 1.021-14.385 1.951-21.54.75-5.79-.916-10.53-5.386-14.52-21.345-18.96-42.75-37.89-63.839-57.18-22.05-20.175-41.911-42.51-59.821-66.645-2.519-3.405-6.104-5.01-9.255-7.38a8151 8151 0 0 1-48.734-36.93c-2.055-1.56-3.886-3.45-5.701-5.34-6.074-6.345-6.435-10.68-.78-17.174 4.141-4.741 5.521-9.916 5.731-16.306.51-15-2.055-29.565-5.085-44.145-.616-2.895-1.741-2.67-3.556-1.47-2.22 1.44-3.734 3.465-4.185 6.18-.509 3.15-1.005 6.315-1.395 9.495-.255 2.145.166 4.815-2.94 4.875-2.954.06-6.255 1.29-8.22-2.79-3.075-6.404-3.734-13.065-3.434-19.98.089-2.025 1.26-4.74-1.381-5.91-2.445-1.095-4.965.18-6.285 2.115-5.445 7.965-12.389 7.44-20.294 4.2-2.266-.93-5.116-.93-7.56-.57-2.07.315-5.401-.21-5.625 3-.225 3.03 1.905 5.205 4.604 6.465 1.426.66 3.135.72 4.5 1.455 2.701 1.47 4.035 4.035 3.81 7.035-.21 3.015-3.09 2.685-5.025 3.045-5.4 1.05-11.01-.074-16.454 1.08-4.995 1.08-8.37 3.75-10.755 9.36 5.369-.824 9.915-1.695 14.489-2.13 2.19-.21 5.581-.855 6.166 1.875.69 3.27-.21 6.885-3.481 8.925-.794.495-1.829.78-2.789.855-11.026.75-19.156 6.135-25.035 15.495-1.891 3.045-5.445 3.72-8.731 4.365-14.489 2.79-27.825.285-39.75-9.495-14.97-12.285-31.484-21.435-50.565-24.96-3.03-.57-7.665-2.19-8.669.45-1.456 3.75 3.299 5.28 6.06 7.05 4.979 3.21 11.22 4.32 15.509 10.02-6.044 3.99-11.85 8.025-17.864 11.73-4.066 2.49-8.296 2.13-12.346-.645-3.329-2.265-6.975-4.095-10.049-6.66-18.181-15.195-39.496-22.545-62.011-27.36-10.529-2.235-21.344-3.855-30.059-11.475v-30.316c0-9.626 7.803-17.43 17.429-17.43h480.961c9.626 0 17.43 7.804 17.43 17.43v1117.92c0 9.628-7.804 17.43-17.43 17.43m-498.39-1017.42c2.429.856 4.934 1.546 7.38 2.326 1.349.42 2.849.9 3 2.55.194 2.16-1.696 2.475-3.151 2.925-2.37.735-4.8 1.38-7.229 1.92Zm0-20.76c3.734-.134 7.274.256 10.454 2.07 2.16 1.23 2.82 2.82-.014 4.32-3 1.577-6 3.017-9.495 2.836a10 10 0 0 0-.945 0Zm38.28 699.06c-.03-4.724-.15-9.463-.06-14.19.089-5.7 2.009-6.944 7.125-4.648 1.649.734 3.315 1.664 4.62 2.894 24.225 22.74 53.339 34.35 85.125 40.05 7.679 1.366 15.375 3.645 21.494 8.895 12.15 10.395 12.796 31.77 1.59 43.68-5.055 5.37-11.204 9.285-17.4 13.05-15.554 9.42-29.445 21.33-44.579 31.455-7.021 4.695-13.951 8.085-22.53 4.92-3.106-1.14-5.94.09-8.176 2.565-1.215 1.366-2.774 2.625-3.449 4.26-4.35 10.32-12.736 11.295-22.095 10.71-3.526-.21-5.445-1.29-6.241-5.1-2.055-9.78-4.364-11.7-14.13-12.9-11.835-1.44-12.78-2.325-11.34-14.265 2.611-21.39 7.47-42.15 17.551-61.32 8.204-15.615 14.354-31.8 12.495-50.055m-38.28-741.585c1.889-.165 4.35-.165 7.544-.18 9.796-.03 18.871 3.03 28.065 5.805 1.111.33 2.206.99 3.135 1.74 1.425 1.11 3.136 2.49 2.506 4.44-.615 1.995-2.761.915-4.201.96-3.57.135-7.155.075-10.74-.09-2.714-.105-5.1.735-7.304 2.115-2.056 1.275-4.53 3-4.201 5.385.375 2.805 3.585 1.65 5.536 2.07 3.899.81 7.875 1.26 11.804 1.936 1.335.224 3.18.089 3.63 1.544.555 1.83-1.184 2.805-2.445 3.72-3.09 2.236-6.525 3.615-10.35 4.245-7.68 1.275-15.314.435-22.979-.194Zm-66.09-126.762v1262.154c0 9.347 7.576 16.923 16.923 16.923h614.154c9.346 0 16.923-7.576 16.923-16.923V328.923c0-9.346-7.577-16.923-16.923-16.923h-614.154c-9.347 0-16.923 7.577-16.923 16.923"/></g></svg>