<svg xmlns="http://www.w3.org/2000/svg" width="1984.25" height="1984.25" viewBox="0 0 1984.25 1984.25"><defs><clipPath id="clip_1"><path d="M0-.002h1984.252V1984.25H0Z"/></clipPath></defs><g clip-path="url(#clip_1)"><path d="M1142.886 1076.757c15.612-6.792 32.199-34.93 36.103-53.365 10.733 32.019-11.71 55.305-36.103 53.365m17.563-31.534c0 4.55-3.717 8.248-8.293 8.248-4.577 0-8.293-3.697-8.293-8.248s3.716-8.247 8.293-8.247 8.293 3.697 8.293 8.247m-40.628 16.64c-7.182-27.798 2.594-46.146 41.536-48.727-20.94 12.06-34.112 27.575-41.536 48.727m160.019-194.374c29.418-22.685 61.959-38.5 99.213-43.545 5.6-.757 13.523-3.32 11.562 7.034-8.127 42.769-20.491 83.52-60.056 109.088-11.485 7.422-23.984 13.147-42.054 12.623 26.443-16.592 45.313-35.28 51.47-67.754-20.774 12.904-35.732 29.564-60.106 34.037 7.182-12.895 18.51-18.552 26.15-27.556 2.976-3.503 9.65-7.044 6.225-11.876-3.278-4.638-9.054-.116-13.494 1.523-24.618 9.1-45.43 24.733-67.433 38.743 12.04-21.346 29.458-37.617 48.523-52.317m-449.676 176.279c4.576 0 8.294 3.696 8.294 8.247 0 4.55-3.718 8.247-8.294 8.247s-8.293-3.696-8.293-8.247 3.717-8.247 8.293-8.247m942.635-753.191c-15.963-70.102-55.606-124.35-121.791-157-4.8-2.367-9.405-7.373-15.904-4.676-.126 6.733 4.41 10.42 7.484 14.71 16.655 23.257 33.312 46.543 46.943 71.722 22.832 42.158 38.93 86.227 35.204 135.226-1.561 20.647-7.065 23.49-25.184 13.622-4.762-2.59-9.406-5.578-13.543-9.042-23.613-19.765-44.825-41.741-60.886-68.132-8.693-14.292-16.51-29.12-24.861-43.634-1.61-2.794-2.322-7.335-6.811-6.656-5.59.844-4.05 5.958-4.47 9.548-2.487 21.132 1.963 41.275 10.364 60.457 19.553 44.642 50.21 81.377 86.479 113.143 14.928 13.07 19.417 27.255 18 45.506-.701 8.994-2.71 17.572-6.038 25.76-22.598 55.606-59.998 96.698-117.878 117.17-15.71 5.57-16.334 4.987-12.441-10.285 8.4-33.008 14.47-66.366 16.373-100.393 2.469-44.08 1.18-87.722-18.158-128.736-1.65-3.503-2.04-10.323-7.982-8.868-5.6 1.378-3.074 7.48-3.415 11.556-.868 10.537 1.19 21.385-4.302 34.87-14.412-35.918-29.01-68.635-55.823-93.98.157 9.927 2.108 18.96 4.469 27.877 6.284 23.752 14.773 47.058 15.066 72.023.254 21.83-3.523 25.334-25.984 25.402-24.988.077-46.952-10.964-69.872-18.542-5.786-1.911-13.134-8.51-17.515-3.027-4.83 6.044 2.704 12.613 6.372 17.998 17.027 25.043 44.064 33.746 71.189 42.149 14.158 4.385 28.356 8.674 42.405 13.36 7.914 2.639 11.085 8.286 11.32 16.912.594 21.433-4.294 41.896-8.392 62.708-14.1 71.48-73.912 87.208-133.051 84.094-10.958-.582-14.207-6.792-13.173-16.844 1.552-15.185 2.743-30.408 4.02-45.622 1.504-18.067-.634-35.396-10.537-51.162-1.834-2.921-3.318-7.025-7.24-6.424-4.245.66-3.552 5.308-4.098 8.49-3.591 20.85-6.138 41.906-12.08 62.292-10.567 36.239-28.306 66.278-68.418 76.33-31.574 7.918-34.502 6.123-31.78-26.284 2.557-30.428 6.616-60.71 4.274-91.341-1.122-14.72-6.06-27.79-16.412-38.617-2.391-2.503-4.85-5.948-8.576-4.638-3.816 1.339-3.103 5.705-3.435 9.033-2.4 23.5-3.61 47.194-7.357 70.48-6.723 41.76-13.602 83.716-32.677 122.196-13.816 27.876-35.02 35.406-64.096 23.966-8.831-3.474-16.55-8.762-24.227-14.214-16.276-11.547-28.462-27.352-43.235-40.422-6.284-5.56-11.865-18.318-19.885-13.923-7.757 4.25-4.08 17.106-2.537 26.275 6.654 39.694 28.247 70.762 57.226 97.56 2.36 2.184 7.084 3.455 5.884 7.607-1.347 4.677-6.314 4.289-10.05 4.318-7.406.058-14.811-.592-22.218-.931-3.258-.156-7.29-2.3-9.201 1.92-1.415 3.115 1.698 5.396 3.366 7.627 8.938 11.944 20.326 21.472 31.556 31.165 20.402 17.58 20.598 18.115-3.152 30.049-10.537 5.298-9.27 8.869-1.24 15.088 15.984 12.39 26.58 28.875 34.893 47.058 5.933 12.973 6.752 24.975-2.117 37.316-9.582 13.36-14.675 28.76-18.588 44.71-3.044 12.439-2.83 25.78-10.118 39.84-8.723-22.705-3.757-44.497-6.323-65.455-6.186.563-7.035 4.599-8.733 8.063-10.81 22.035-15.826 45.477-16.87 69.782-1.864 43.4 7.698 85.15 19.886 126.329 3.53 11.925.389 14.748-11.212 14-12.908-.834-25.905-.193-43.518-.193 23.076 15.3 45.363 24.383 61.744 41.566 17.544 18.397 22.345 39.947 17.105 65.59-6.45-4.424-6.03-14.99-12.245-13.282-6.821 1.862-3.347 11.1-5.034 16.93-.674 2.33-.47 4.9-.84 7.336-1.308 8.77-6.567 14.554-14.958 16.456-15.651 3.542-31.496 2.95-47.255.223-3.444-.592-7.093-1.747-7.484-5.938-.312-3.26 2.039-6.006 4.79-6.84 19.896-6.084 10.86-13.371 1.21-21.065-2.272-1.805-3.99-4.367-5.687-6.773-4.206-5.928-6.762-12.535-2.713-19.26 3.513-5.841 9.523-8.577 16.48-8.101 8.197.562 11.69 6.306 14.128 13.215 2.274 6.46 2.255 13.544 6.275 19.58 4.264 6.404 10.206 7.238 16.899 6.345 4.37-.582 8.548-1.095 10.079-6.801 9.768-36.434-24.295-71.722-61.363-62.767-11.396 2.756-21.876 3.765-33.41.194-27.183-8.422-42.004-1.33-53.664 24.548-3.845 8.529-6.89 17.504-7.357 26.954-.332 6.84-4.186 16.184 7.074 17.746 9.923 1.378 18.89-1.242 21.817-12.846 1.327-5.25 2.118-10.78 4.342-15.641 4.567-9.965 12.743-11.43 22.345-7.597 9.767 3.9 9.97 11.468 6.732 19.56-2.391 5.987-6.46 11.305-11.816 14.934-10.743 7.295-10.88 12.535 1.97 17.115 3.494 1.242 7.455 3.512 7.007 8.43-.264 2.844-2.703 4.125-5.142 4.6-17.75 3.426-35.595 3.192-53.081-.98-12.89-3.076-13.025-16.377-17.611-25.644-19.378-39.15-19.056-39.198 4.059-75.09 2.468-3.822 9.093-7.732 5.532-12.476-4.068-5.434-10.411-.417-14.851 1.416-10.938 4.503-16.11.495-20.14-9.46-5.19-12.78-10.136-25.586-13.747-38.908-1.161-4.28-1.326-9.528-8.518-12.274-.81 10.227-1.512 19.114-2.205 27.944-5.64-.544-5.806-4.55-7.22-7.462-10.333-21.296-19.446-43.041-25.164-66.075-.791-3.182-.235-7.616-4.977-7.87-3.64-.192-4.263 3.32-5.415 6.056-.683 1.62-2.205 2.89-3.854 4.948-7.338-8.432-9.328-18.134-11.446-27.487-4.07-18.106-1.951-20.153 15.954-17.815 2.4.31 4.927.806 7.464-2.882-7.933-11.45-23.573-20.142-19.456-42.866 9.474 25.78 27.633 31.573 48.426 32.92 6.566.428 12.567 2.262 17.914 6.299 5.425 4.104 7.543 2.279 7.894-4.24 1.268-23.132-21.467-58.15-42.913-66.445-5.776-2.231-12.997.282-18.266-5.938 6.616-6.093 15.827-4.231 23.29-9.392 11.66-8.063 22.394.165 29.019 11.925 5.552 9.858 11.29 19.609 16.793 29.486 2.985 5.346 2.468 16.213 8.274 15.535 9.142-1.058 5.513-11.935 7.474-18.601.195-.68 1.356-1.087 2.77-2.154 17.008 13.08 20.403 36.2 35.723 50.717-.83-31.845-5.416-62.515-23.652-88.781-8.177-11.77-10.685-23.237-6.655-36.026 3.855-12.264-1.454-11.44-9.874-8.315-2.518.932-4.742 4.134-9.641.214 4.499-9.043 9.28-18.504 13.895-28.051.986-2.037 3.083-4.337.81-6.656-2.07-2.095-4.586-.854-6.957-.242-6.352 1.639-11.543 7.092-19.788 6.694 5.24-18.532 16.5-32.61 26.784-47.165l-2.81-2.677c-10.021 5.365-20.051 10.73-30.072 16.106 7.103-13.913 17.807-23.733 28.647-33.406 12.529-11.178 25.857-21.54 36.317-34.823 2.303-2.921 6.859-5.715 5.103-9.83-2.07-4.841-6.908-1.755-10.597-1.63-6.918.224-13.835.787-20.753.67-3.757-.067-8.704.495-10.246-4.055-1.453-4.308 3.503-5.346 5.845-7.501 19.866-18.24 36.19-39.13 47.265-63.717 7.747-17.193 13.23-35.065 11.123-54.316-.927-8.47-4.644-10.692-11.26-4.211a2214 2214 0 0 0-26.237 26.13c-16.031 16.213-32.405 32.077-54.085 40.693-28.297 11.245-49.323 3.405-63.111-23.49-12.46-24.315-19.231-50.561-24.686-77.108-7.932-38.616-14.538-77.437-15.387-116.995-.058-2.882.4-6.326-2.693-7.927-4.03-2.096-6.48 1.242-8.693 3.658-2.977 3.26-5.884 6.714-8.12 10.489-10.283 17.387-10.741 36.744-9.746 55.965 1.376 26.536 3.922 53.015 6 79.514.82 10.41-2.536 15.437-14.391 14.243-36.746-3.687-63.14-21.326-78.02-55.18-6.762-15.378-10.987-31.475-14.568-47.921-3.444-15.796-2.917-32.62-10.401-49.27-12.323 13.293-17.983 27.177-17.436 42.944.673 19.172 2.527 38.306 3.873 57.459 1.24 17.727-.79 20.987-18.802 22.462-29.916 2.455-57.841-5.482-84.567-18.31-13.523-6.49-23.134-16.823-29.427-30.126-13.866-29.312-21.574-60.147-22.14-92.602-.322-18.523 3.035-22.511 21.437-27.944 18.499-5.462 37.165-10.537 55.285-17.077 20.753-7.5 39.653-18.202 50.943-38.423 2.35-4.211 7.054-9.11 4.068-13.35-3.561-5.046-8.976-.253-13.435 1.145-3.767 1.174-7.318 3.008-11.075 4.24-23.398 7.694-46.064 18.406-71.843 15.825-11.065-1.106-16.861-5.424-17.348-17.407-.89-21.57 4.108-41.993 9.903-62.398 4.235-14.893 9.709-29.535 10.284-49.503-26.852 30.069-42.532 62.117-55.09 96.018a764 764 0 0 1-4.468-.544c-.547-10.653-.957-21.326-1.737-31.97-.293-4.085 2.439-10.178-2.937-11.663-5.903-1.63-6.304 5.259-7.933 8.8-8.498 18.446-13.855 37.85-16.333 58.013-7.153 58.119 1.288 114.89 14.753 171.253.956 3.997 5.58 8.538 1.13 12.157-3.726 3.018-8.546.039-12.625-1.446-64.164-23.403-105.047-68.714-123.673-133.373-5.884-20.395-3.415-39.664 16.002-55.683 27.476-22.666 50.61-49.97 69.442-80.368 17.612-28.438 31.36-58.274 27.565-93.06-.381-3.462 1.639-8.74-4.06-9.624-4.43-.69-5.053 3.969-6.751 6.734-3.357 5.463-6.908 10.858-9.621 16.63-14.626 31.273-36.024 57.538-60.476 81.562-9.894 9.712-20.344 18.949-33.194 24.567-14.988 6.559-19.36 3.87-21.37-12.323-2.838-22.83.38-45.108 6.002-67.27 13.484-53.198 43.029-97.88 74.77-141.503 3.532-4.851 9.426-8.897 8.255-16.562-6.128-.835-10.528 2.717-15.192 5.007-57.198 28.186-94.353 73.7-114.668 133.11-19.701 57.645-21.36 116.782-12.568 176.54 15.115 102.724 65.872 179.744 162.587 224.056 72.955 33.426 151.267 45.506 229.54 57.779 38.747 6.074 77.064 13.468 112.59 30.99 41.927 20.677 74.546 50.523 89.865 95.436 6.655 19.513 5.464 39.82-5.493 60.836-18.188-26.731-37.185-48.66-70.175-60.545 9.455 20.716 22.042 35.949 25.222 58.294-12.528-13.612-22.763-25.372-37.653-32.125-2.342 4.88-.44 7.79.732 11.022 4.83 13.457 9.367 27.06 9.952 41.479.918 22.404-7.766 30.165-29.838 25.576-22.588-4.696-43.332-13.787-60.553-29.622-11.036-10.14-18.383-22.433-22.59-37.608 6.724 1.339 8.276 6.52 11.437 9.926 15.465 16.659 33.614 29.477 56.25 33.523 16.998 3.037 22.17-2.387 21.555-18.62-.527-13.923-2.878-27.565-10.041-39.732-5.278-8.975-11.191-17.824-22.978-20.764-2.166 9.586 5.572 17.213 2.644 28.284-13.845-14.254-33.087-17.562-43.722-32.931-5.445-7.87-10.85-17.66-7.211-25.84 3.405-7.683 14.333-3.278 21.856-3.035 18.9.61 37.752 3.026 58.008 1.639-1.718-2.678-2.215-4.133-3.23-4.88-1.971-1.446-4.118-2.804-6.391-3.668-41.84-15.816-85.708-19.454-129.87-21.191-9.601-.378-10.1 4.347-7.455 12.352 9.728 29.428 17.154 59.545 25.857 89.265 13.68 46.679 40.044 82.346 91.778 92.214 23.808 4.54 47.39 1.998 70.779-3.046 27.935-6.026 29.858-5.502 21.086 20.81-12.646 37.94-9.728 74.625 2.342 111.427 5.025 15.302 6.44 30.7 5.16 46.544-4.84 59.876-9.493 119.77-14.576 179.626-2.381 28.012-8.206 55.072-18.48 81.648-13.027 33.688-20.306 69.413-19.027 105.546 4.527 128.008 65.227 225.258 168.879 297.96 7.074 4.958 13.865 11.857 26.413 12.36-51.48-54.16-95.29-110.464-118.522-180.285 18.627 22.035 36.307 44.856 63.286 58.08-27.828-61.01-55.304-121.564-63.51-188.726 15.397 39.664 36.375 76.166 61.003 110.582 24.45 34.153 51.499 65.977 86.82 90.185-27.311-51.502-53.49-103.187-73.99-157.377-20.597-54.422-36.716-110.155-42.337-168.671 12.558 35.259 23.076 71.43 52.124 97.91-9.474-35.201-18.178-70.335-24.217-106.051-6.04-35.687-11.104-71.49-12.314-110.69 11.543 7.774 15.524 17.283 18.48 26.8 6.215 19.997 17.476 37.356 27.272 55.558 6.85 12.72 17.299 17.979 30.94 19.668 20.773 2.57 41.576.785 62.369 1.27 11.123.253 22.413-.281 35.594 4.88-23.085 7.666-44.366 4.532-65.354 5.376-6.07.252-15.71-5.094-17.72 4.502-1.706 8.112 5.26 14.282 11.993 18.93 4.146 2.862 8.77 4.56 13.835 4.88 33.176 2.126 67.49 11.682 97.68-17.736-2.458 14.797-9.902 22.598-18.021 29.748-16.51 14.536-26.286 32.669-31.964 53.734-21.116 78.32-22.628 157.61-11.748 237.357 2.068 15.185 4.214 31.36 15.572 44.109 3.025-59.944 14.256-117.723 35.37-173.581.215 37.277 2.39 73.992 13.183 109.717.926 3.057-.03 8.074 4.332 8.373 5.396.37 5.035-4.958 6.059-8.577 8.772-30.757 17.046-61.66 26.462-92.223 8.449-27.381 20.256-53.453 34.199-78.67.693 3.668.43 7.006-.585 10.1-12.246 37.53-19.925 76.099-26.423 114.939-10.782 64.465-27.194 127.047-62.105 183.449-1.737 2.804-5.113 5.695-1.757 9.033 2.674 2.678 5.474-.32 8.069-1.31 2.303-.873 4.479-2.086 6.684-3.193 81.299-40.81 138.32-105.438 181.369-183.526 45.938-83.336 45.987-169.253 13.329-256.694-6.206-16.621-6.401-16.446-20.734-6.53-5.055 3.502-9.73 8.625-18.1 5.957 6.323-10.964 13.748-20.87 17.455-32.66 3.874-12.331 5.485-24.925 5.747-37.82.898-45.418-3.571-90.526-8.517-135.556-2.87-26.1-3.737-26.004-27.818-19.774-.323.078-.8-.427-2.723-1.524 4.449-8.373 8.714-16.98 13.495-25.295 19.085-33.231 28.726-68.898 28.198-107.195-.273-19.938-7.386-38.598-11.494-57.818-3.073-14.408-1.951-15.69 12.773-12.594 9.2 1.93 18.246 4.647 27.496 6.297 64.758 11.556 118.922-15.641 139.783-75.895 12.089-34.93 22.373-70.286 32.91-105.623 3.153-10.576-1.442-13.09-10.956-12.924-25.828.466-51.52 2.765-76.702 8.218-43.371 9.402-82.45 27.478-114.171 59.4-13.7 13.768-23.866 30.127-35.185 45.65-1.97 2.718-3.63 6.919-7.318 6.608-4.146-.358-3.922-5.054-5.005-8.208-2.908-8.431-4.801-16.99-4.81-26.013-.04-40.17 22.783-68.481 50.806-92.884 44.396-38.665 99.73-50.211 156.039-58.798 65.578-9.994 131.118-20.405 193.829-43.225 65.89-23.976 123.176-59.73 158.302-122.352 47.616-84.898 54.808-176.006 33.585-269.181"/></g></svg>