<svg xmlns="http://www.w3.org/2000/svg" width="2603.16" height="2603.16" viewBox="0 0 2603.16 2603.16"><defs><clipPath id="clip_1"><path d="M0 .002h2603.158V2603.16H0Z"/></clipPath></defs><g clip-path="url(#clip_1)"><path d="M1215.184 1207.878c12.776-8.332 10.25-19.816 10.438-30.495-6.303 8.513-12.118 17.129-10.438 30.495m200.998 140.433c-9.022-24.631-25.373-14.278-38.071-15.915 11.147 5.474 23.979 6.032 38.07 15.915m-218.695-152.492c.93 16.932-3.167 31.57 5.95 46.225 1.376-15.661 6.24-30.073-5.95-46.226m-186.033 461.638c-2.94 34.448 1.637 52.47 15.117 69.39-4.828-22.856-9.405-42.343-15.117-69.39m264.575-360.305-30.065-33.58c2.898 26.182 13.582 37.594 30.065 33.58m-140.443 518.266c3.159 28.325-3.437 51.597-9.288 75.026-.785 3.143-1.223 7.228 3.756 7.938 4.42.63 5.413-1.99 6.195-5.99 4.42-22.604 7.984-45.272 6.092-68.432-.148-1.81-2.601-3.42-6.755-8.542m458.689-46.956c10.934-16.764 11.618-33.091 3.772-52.214-.025 12.154-19.39 3.397-15.414 20.284 2.504 10.639 4.737 20.841 11.642 31.93m-383.17-35.225c-1.471 4.05-5.685 7.437-.772 9.743 3.345 1.569 7.379 1.069 11.229-1.176 13.176-7.68 7.022-19.684 6.397-30.115-.597-9.975-5.192-10.716-13.195-5.342-12.214 8.202-4.105 18.535-3.66 26.89m-68.241-562.04c-2.122 37.119-32.77 69.99-14.39 110.21-3.776-38.12 21.109-71.61 14.39-110.21m23.245 540.64c-1.65-5.15 1.292-19.112-10.635-20.124-13.184-1.12-13.763 13.416-15.476 22.837-1.52 8.365 3.82 14.733 12.994 15.349 9.713.653 15.297-3.305 13.117-18.061m115.538-343.462c-4.51-17.83-2.944-37.181-15.24-51.918-3.492-4.187-8.076-10.812-13.016-7.132-3.943 2.936-4.114 9.82-2.628 17.148 3.973 19.595 22.47 26.528 30.884 41.902m-66.617 526.16c17.767-43.24-1.94-86.351 1.9-129.478-13.532 43.087 1.79 86.424-1.9 129.478m159.147-46.214c29.475-44.976 46.775-90.165 42.428-107.641-5.744.591-10.521 5.447-11.264 9.3-6.59 34.131-22.481 65.008-31.164 98.342m-186.273-467.772c-14.79 7.094-27.428 16.46-23.576 31.58 5.347 20.985 15.157 40.765 14.824 63.533 10.797-14.31 6.808-29.273 4.764-44.164-2.242-16.343 2.844-32.216 3.988-50.95m86.007 82.945c20.02-35.832 15.64-62.513-14.21-89.608-2.093 31.69 14.869 59.278 14.21 89.608m116.528-142.487c-34.812-24.565-71.315-33.399-89.893-23.218 6.692 3.172 15.642 1.53 19.363 8.61 7.12 13.552 18.596 15.113 31.565 14.688 11.66-.38 23.34-.08 38.965-.08m162.993 294.48c5.5 20.254 9.537 36.783 10.493 54.265.569 10.41 13.419 19.07 24.654 23.88 2.402 1.03 3.813 2.013 5.876-1.177 3.345-5.168-2.324-37.412-8.351-39.166-7.13-2.075-9.582-7.375-12.343-12.935-4.075-8.201-7.78-16.628-20.33-24.866m-414.594-170.062c5.03 40.495 11.184 74.785 45.382 96.744-7.73-16.638.79-35.013-12.572-50.106-11.32-12.788-17.773-29.966-32.81-46.638m-85.382-740.97c-9.02 0-8.365.04-13.303.144-13.008.272-27.001-4.019-33.697 2.856-6.764 6.942-6.63 24.978-6.673 38.423-.015 4.76-2.937 12.007 3.129 13.805 5.2 1.542 8.76-5.043 11.388-9.033 11.22-17.038 20.297-30.492 39.156-46.195m642.163 380.74c-6.264 22.373-8.432 45.164-12.716 67.647-4.153 21.796-10.07 43.987-7.644 66.796.616 5.796-3.163 15.5 5.603 15.703 7.81.18 14.512-7.05 14.587-16.09.374-44.682.17-89.37.17-134.055m-787.371-147.53c6.48 59.956-18.138 124.26 24.274 178.824-3.7-9.83-1.57-20.31-3.035-30.525-2.86-19.95-13.326-39.072-11.06-58.854 3.563-31.118-3.386-60.206-10.18-89.446m222.7 510.333c.947-12.557 2.337-24.391 9.34-34.908 7.955-11.941 7.4-24.253 3.25-37.84-7.261-23.772-15.16-47.652-13.541-73.447-4.25 48.855-23.412 97.588.952 146.195m273.413-27.757c1.223-10.408 1.273-18.051 3.159-25.175 2.705-10.212 1.803-18.613-4.584-27.506-13.652-19.01-32.03-25.69-53.943-25.51-5.45.045-7.398 1.718-8.79 7.5-1.4 5.824-.405 7.755 4.529 10.464 24.557 13.48 43.934 32.807 59.629 60.226m-232.068-222.967c-15.516 43.779-42.87 84.41-23.832 132.53 1.78-4.678 4.292-10.34 6.116-16.228 11.53-37.237 39.8-71.585 18.748-114.505-.256-.522-.577-1.01-1.032-1.797m189.44 85.532c24.886 11.296 49.597 22.059 62.417 48.824 5.186 10.83 8.693 11.564 18.214 3.822 9.127-7.421 21.183-11.09 36.656-12.183-33.62-38.712-73.944-44.753-117.286-40.464m-215.876 259.633c-4.777 3.807-2.56 8.879-2.876 13.248-1.996 27.523 5.988 54.649 3.288 82.18-1.626 16.587 3.386 30.59 13.708 43.039 2.16 2.607 3.553 6.672 7.515 5.47 4.403-1.336 2.56-5.87 2.632-9.003.448-19.186 1.008-38.245 2.82-57.47 2.747-29.129 3.313-59.58-27.087-77.464m73.149-304.894c-26.213 38.119-52.476 77.441-43.47 132.122l29.41-55.023c2.843 15.417-8.648 27.604-6.683 42.544 22.424-37.783 44.247-75.43 20.743-119.642m357.763 511.887c-1.541 41.786-11.074 80.87-10.8 120.922.198 28.904.043 28.39 27.608 28.6 10.163.079 12.696-2.573 13.764-13.392 1.955-19.821-5.575-37.684-7.706-56.57-3.054-27.054-6.575-54.491-22.866-79.56m-143.848-24.35c-1-12.04 4.267-22.64 5.552-33.297 2.065-17.146 3.022-33.966-6.953-51.752-14.627-26.08-36.268-48.38-43.17-78.974-.31-1.375-2.255-3.68-2.493-3.558-7.897 4.003-17.77 4.119-23.89 11.398-5.436 6.466-.46 13.686 3.189 17.247 26.142 25.522 31.13 63.768 52.87 91.913 6.96 9.01 9.734 20.549 8.262 32.764-.58 4.814-1.945 10.904 6.633 14.26m-26.416-262.542c-33.027 20.244-64.63 33.159-98.596 37.265-16.562 2.003-15.386 15.298-17.526 24.655-2.33 10.185 7.284 14.625 16.02 18.889 32.457 15.839 56.637 1.64 77.118-27.462l-22.253-5.244c17.39-12.665 41.576-16.422 45.237-48.103m26.513 2.26c2.016-1.48 2.62-1.715 2.913-2.166 15.47-23.871 29.18-48.323 55.26-63.557 32.405-18.93 31.1-26.467-2.444-46.091-.947-.555-2.25-.497-3.15-1.101-20.384-13.648-40.928-7.13-48.92 17.028-5.765 17.425-6.133 36.141-6.99 54.464-.63 13.454-3.667 27.359 3.33 41.424m-424.527-151.264c4.82-36.062 17.42-70.103 23.76-105.641 1.776-9.948 6.057-22.801.406-29.493-21.933-25.975-40.405-45.075-64.201-75.948 19.425 75.456 27.98 139.068 40.035 211.082m521.944 288.86c-4.7-18.26-12.435-33.511-24.576-49.375-11.223-14.664-16.544-29.713-5.343-47.514 4.908-7.8 7.227-16.643-.243-25.611-4.856-5.83-3.964-13.494.86-19.34 10.493-12.718 6.744-27.758 6.494-41.918-.162-9.18-5.072-12.437-12.968-4.809-8.641 8.35-17.696 16.253-26.68 24.218-31.476 27.913-25.377 69.323-8.12 88.388 14.245 15.735 25.927 33.489 37.33 51.21 8.178 12.71 16.79 22.278 33.246 24.752m-199.841-119.637c20.92-2.602 44.627-10.806 63.235-31.286 4.898-5.39 7.139-11.095 3.51-17.205-12.98-21.858-27.948-41.758-51.508-52.838-17.6-8.276-27.077-4.722-32.458 15.034-5.375 19.734-10.893 39.782-12.81 60.046-1.474 15.588 5.39 27.55 30.03 26.249m-361.552-109.187c-13.717-82.416-8.791-169.877-61.544-244.616 0 52.374.01 102.252-.016 152.13-.003 5.263.15 9.963 4.054 14.51 20.842 24.285 37.597 51.695 57.506 77.976m651.643 129.415c16.988-32.252 31.615-66.171 51.595-96.31 22.207-33.495 25.986-69.104 23.422-107.283-1.02-15.175 1.65-30.588-1.263-45.18-21.204 18.206-38.338 38.217-43.071 66.934-5.126 31.102-11.001 62.087-17.222 92.977-5.877 29.184-13.62 57.983-13.461 88.862m-439.95-334.881c-5.936-11.337-14.127-24.281-1.98-32.68 9.715-6.716 23.594-6.597 34.216 2.678 13.814 12.065-2.391 19.79-5.495 29.995 8.377 2.226 11.246-2.109 15.166-7.869 9.072-13.328 12.045-27.446 13.563-43.594 1.016-10.807 2.343-15.354-9.425-13.972-6.622.778-12.407-2.506-13.644-7.892-1.4-6.099 5.602-10.702 10.01-12.05 9.895-3.027 18.067-8.75 27.059-13.63-5.013-3.718-9.69-.31-14.387-.089 3.843-26.319 3.389-24.847-24.196-33.91-23.513-7.725-40.528.589-55.413 17.282-7.534 8.45-10.986 17.855 3.863 24.108 10.232 4.308 18.917 11.558 28.936 21.323-9.771 1.26-19.48 2.466-21.22 10.85-3.454 16.637-13.115-1.412-17.878 4.684.057 39.651 2.276 43.755 30.826 54.765m-191.03-273.67c-17.525-65.685-24.77-127.136-5.05-189.852-22.665 0-43.687.42-64.68-.192-9.33-.272-12.925 2.159-12.73 12.555.394 21.02 3.23 42.199 9.595 61.359 8.157 24.55 10.554 48.65 11.823 74.18 1.707 34.375 21.48 73.205 60.069 74.827-39.723-64.141-48.764-125.12-22.406-158.49 6.814 21.048 1.074 42.21 4.649 62.84 3.535 20.403 3.872 41.012 18.73 62.773m205.402 679.584c-3.208 8.974 1.146 18.423-3.857 27.456-9.066 16.37-11.878 34.755-10.664 53.423 1.524 23.424-1.487 46.79-4.754 69.448-6.623 45.945-18.575 90.855-20.273 137.869-1.27 35.163-2.066 36.165 31.573 36.813 13.826.265 19.834-4.858 16.96-18.096-5.913-27.235-1.804-54.686-3.154-81.991-.26-5.253.324-10.653-.651-15.747-4.87-25.418-6.267-51.381 1.239-75.82 10.846-35.307 5.403-70.284 1.569-105.145-.953-8.67 2.782-21.385-7.988-28.21m21.349 71.434c12.07-7.961 13.375-12.153 15.253-21.69 5.086-25.82 8.864-52.08 25.81-73.613 10.87-13.813 14.509-30.631 17.832-49.232-10.06 6.79-8.221 22.813-21.738 23.609-5.038-11.876.898-21.798 6.783-29.32 6.559-8.383 6.858-16.193 5.34-25.341-6.38-38.493-22.412-74.425-28.26-113.108-.61-4.038-4.348-9.364-7.85-10.701-4.601-1.755-7.868 3.899-10.335 7.559-27.236 40.418-35.95 81.797-8.27 126.574 14.449 23.373 20.667 48.632 14.427 77.54-6.143 28.462-4.845 54.73-8.992 87.723m-198.15-632.421c14.608 21.794 25.256 45.715 41.013 67.248 3.282-6.507 3.296-12.878 3.518-17.758.742-16.336 10.84-31.845 5.006-48.415-4.276-12.145-5.991-20.552 14.073-13.3-15.201-12.736-27.58-19.181-45.118-15.03-18.51 4.384-36.47-3.308-54.762-9.163 6.823-10.046 19.07-5.313 25.392-13.916-25.206-3.13-45.063-16.812-66.846-33.441 4.079 27.543 6.85 52.037 11.473 76.153 7.255 37.839 7.986 77.654 36.99 108.447 16.884 17.928 30.466 39.175 50.93 55.949.303-4.632.24-7.002.662-9.277a54 54 0 0 1 2.222-8.303c12.555-35.075 10.85-67.145-11.403-98.774-8.096-11.507-14.313-24.914-13.15-40.42m495.738 32.364c9.418-8.635 20.068-15.307 26.657-24.938 46.68-68.23 92.733-136.921 138.427-205.86 7.092-10.697 16.519-20.876 16.527-35.367.01-21.131-.256-42.269.132-63.393.147-7.965-1.725-11.509-10.314-11.417-37.524.398-75.053.256-112.58.085-6.488-.03-9.571.955-10.676 9.176-4.92 36.563-10.994 72.96-16.676 109.413-7.353 47.174-15.09 94.287-21.954 141.536-3.938 27.1-6.477 54.418-9.543 80.765m-73.604 853.404v-.24c19.888 0 39.78-.247 59.66.13 7.16.137 9.995-1.355 12.235-9.676 6.238-23.174 3.418-47.078 8.51-70.607 9.584-44.268 14.203-89.667 21.388-134.509 2.177-13.587-2.622-23.603-10.438-33.96-19.914-26.386-38.722-53.66-58.37-80.264-11.794-15.97-24.028-31.928-44.274-37.038-4.737-1.196-10.59-7.712-14.973.082-3.254 5.783-5.87 11.303-3.687 19.448 8.246 30.764 22.633 58.482 37.74 85.86 10.83 19.624 20.082 34.575 7.69 61.718-28.078 61.504-52.574 124.895-81.52 186.131-5.165 10.927-2.084 13.173 8.08 13.013 19.317-.303 38.64-.089 57.959-.089m255.224-500.27-2.914-.772c-3.265 5.254-6.943 10.284-9.73 15.795-25.571 50.607-52.503 100.572-75.692 152.323-9.057 20.212-9.676 44.476-13.936 66.935-.79 4.159 1.284 7.494 3.61 11.149 4.97 7.807 6.602 16.79 6.724 26.33.125 9.802.543 19.595 1.639 29.488 3.249 29.328 12.647 57.235 16.034 86.63 3.01 26.11 4.899 52.79 12.727 78.284 10.524 34.276 10.33 33.637 46.099 34.36 13.177.267 15.792-3.976 15.723-16.756-.52-96.203-.284-192.41-.284-288.618zm-407.933 500.14v.138c13.065 0 26.174-.697 39.179.207 11.587.808 16.796-4.784 20.938-15.121 14.792-36.922 31.145-73.073 42.658-111.477 7.154-23.868 13.187-47.547 15.117-72.359 1.305-16.78-4.69-30.416-16.36-42.085-23.55-23.552-45.493-48.86-71.368-69.857-13.812-11.208-31.918-7.456-47.294-13.634-3.828-1.538-5.485 3.865-6.22 6.87-7.475 30.553-18.36 61.277-20.941 91.776-3.312 39.124-11.372 77.652-12.997 117.08-.63 15.272 4.55 29.907 2.253 43.609-3.317 19.78 4.49 38.02 2.429 57.084-.88 8.141 4.723 7.792 10.005 7.78 14.2-.03 28.4-.01 42.6-.01m-166.073-40.036c3.002-39.18 7.799-75.181 11.306-112.968-.857-16.74 1.05-33.614 2.378-50.46 3.616-45.892-.29-92.268-4.268-137.773-3.592-41.087-18.907-81.133-29.56-121.495-7.17-27.17-10.961-54.147-11.125-82.782-.124-21.514 18.887-36.363 13.459-58.54-.561-2.292-.54-11.38.8-17.16 8.282-35.666 16.318-71.393 24.712-107.032 3.208-13.617 1.248-27.402 5.287-41.645 5.567-19.631 3.166-43.332-14.765-56.89-12.673-9.58-27.89-16.043-40.546-29.083-1.78 14.56-1.995 27.35-5.031 39.38-20.263 80.285-28.961 162.92-46.896 243.67-3.093 13.928-8.644 29.056-6.138 42.224 12.282 64.51 20.585 129.6 29.36 194.62 9.104 67.45 24.913 133.323 41.228 199.151 7.892 31.84 19.269 62.5 29.799 96.783m-190.906-48.46 2.478-2.254 32.68 32.159c-2.236-18.351-10.903-31.793-9.542-51.533 15.089 33.907 21.046 64.602 46.089 89.907 21.179 21.4 40.794 20.33 64.388 19.207-5.624-25.037-9.732-48.963-16.53-72.043-7.085-24.055-6.753-50.954-20.893-72.185-21.965-32.98-32.001-68.517-44.965-103.98-2.646-7.238-5.12-17.017-.333-26.85l18.006 51.147c1.334-24.978 5.327-49.296 1.129-67.507-2.814-12.205-4.8-24.79-7.056-37.23-6.295-34.704-10.793-69.625-14.688-104.73-3.762-33.902-23.767-61.283-40.63-89.553-10.162-17.037-20.657-33.864-33.39-54.69v142.544c0 139.645.176 279.293-.281 418.936-.043 13.417 2.74 18.469 16.633 17.63 20.954-1.265 42.04-.088 63.065-.343 4.088-.05 9.742 2.452 12.023-3.196 2.112-5.232-1.401-8.98-5.478-13.158-11.475-11.76-21.64-22.124-33-36-11.91-9.37-19.726-24.293-29.705-36.277m627.018-249.013c2.013-7.832 3.825-13.207 4.744-18.742 4.615-27.795 10.28-55.495 13.116-83.495 3.143-31.047 13.37-61.269 10.775-92.91-3.177-38.747-6.271-77.524-10.574-116.148-6.075-54.536-13.226-108.945-19.912-163.41-.636-5.17.757-10.896 5.758-11.074 7.345-.261 5.304 7.192 5.78 11.07 3.728 30.38 8.054 60.84 13 91 7.332 44.7 9.57 89.599 21.69 134.638 1.757-6.152 3.363-11.51 4.819-16.911 14.942-55.39 22.123-112.542 36.999-168.062 14.964-55.848 22.848-113.802 39.203-169.143 13.496-45.667 12.327-90.94 12.173-140.908-5.88 10.104-9.415 17.04-13.712 23.43-28.007 41.642-57.63 82.119-83.972 124.965-18.244 29.673-36.057 59.692-55.656 88.398-17.228 25.234-40.201 46.933-39.662 81.337.117 7.508-.392 15.207-1.901 22.535-8.557 41.544-17.85 82.93-26 124.556-1.437 7.337-4.117 16.966 3.46 23.05 19.127 15.364 34.055 35.947 55.956 47.864 1.657.902 2.629 3.145 3.804 4.62-4.063 5.06-8.441-4.406-12.845 2.053 9.675 18.444 11.907 38.895 10.4 59.925-.21 2.921 2.197 7.348-2.775 8.448-7.255 1.605-7.351 1.425-7.361 6.466-.03 15.247-1.566 30.706.323 45.7 3.603 28.586 10.125 56.499 32.37 80.749m-529.127-666.903c5.429-25.62 15.835-49.743 26.115-73.726 3.514-8.197 5.233-25.753 15.25-21.705 11.729 4.74 1.033 18.173-1.71 27.332-8.512 28.424-22.183 55.113-26.341 85.053-.891 6.408-2.707 12.554.399 18.606 2.539 4.944 42.087 34.135 47.957 36.08-8.543-39.523-14.356-79.305-2.744-123.823 17.23 28.598 9.877 56.379 13.713 82.249 5.155 34.759 5.143 37.198 33.543 59.21-15.69-50.347-18.66-104.871-43.217-153.314 15.475 10.43 19.755 27.765 29.15 41.153 4.814-12.69 8.598-25.384 14.39-37.011 4.093-8.213 6.695-25.425 14.404-21.951 9.383 4.228 3.633 19.774-.218 29.34-19.26 47.845-16.174 93.676 6.337 139.908 9.683 19.887 15.457 36.722 43.258 34.888 22.75-1.501 29.885-1.67 36.01-24.31 1.506-5.563 3.184-11.093 4.36-16.733 4.67-22.373 16.35-44.66 11.382-67.304-5.866-26.738-6.518-54.877-18.322-80.384-1.881-4.064-5.457-11.04-1.321-18.952 20.576 21.682 26.977 48.57 33.535 76.5 14.814-14.69 17.52-34.906 33.037-47.733-25.151 56.683-31.315 118.96-54.148 176.317 48.836-30.16 45.91-89.378 71.85-132.595-1.644 31.344-2.221 62.429-10.908 93.159 7.137-5.432 13.518-10.134 19.74-15.048 24.144-19.073 41.53-41.325 29.977-75.267-6.065-17.824-11.33-36.025-20.541-52.62-7.875-14.188-8.725-29.094-3.014-47.69 17.479 35.772 31.376 69.438 43.499 104.293-3.84-15.378 5.868-29.17 1.899-44.86-11.243-44.443-30.176-86.475-38.285-131.763-1.51-8.43-6.147-6.906-10.83-6.911-84.117-.084-168.233-.098-252.35.053-3.821.007-8.987-2.461-10.361 5.17-2.521 13.993-10.842 25.753-14.825 39.63l29.76-32.665c-3.03 21.124-12.473 37.455-21.265 49.628-12.8 17.723-23.884 35.135-30.908 55.849-8.143 24.016.47 47.572 1.743 71.947m352.2 95.707.439 4.784c-6.731 2.256-13.011 5.935-20.512 5.747-10.143-.254-19.551 7.102-22.261 13.517-13.263 31.398-35.637 50.164-66.747 59.43-6.191 1.845-9.261 7.337-13.326 12.28-14.07 17.106-12.132 38.87-18.014 58.293-7.448 24.597-6.651 50.045-.66 73.708 3.026 11.94.803 25.67 10.482 37.27 12.07 14.466 29.62 13.348 43.574 21.822 10.327 6.27 23.179.093 34.832-.942 27.145-2.41 54.004-10.635 81.53-4.115 8.65 2.049 17.087 5.05 25.716 7.208 2.284.57 5.514 5.14 7.322-1.526 4.476-16.508 10.36-32.127.514-49.483-27.115-47.8-35.641-102.443-51.377-154.422-.998-3.297-2.064-8.755 4.217-9.392 6.377-.646 6.926 4.557 7.885 8.307 4.395 17.192 8.649 34.117 14 51 10.668 33.658 20.334 67.188 40.29 99.907 6.152-36.274 11.003-69.542 12.157-103.565.839-24.73 5.476-49.339 8.7-73.962 4.788-36.58 9.819-73.125 14.752-109.684 4.246-31.455 8.37-62.926 12.778-94.355 5.849-41.716 11.925-83.396 17.896-125.093 1.245-8.69-1.452-12.387-10.887-12.317-55.693.414-109.765.069-166.686.069 3.76 22.494 16.594 39.547 22.668 60.196 2.092-16.298-.39-33.012 7.246-48.56 11.257 8.15 11.81 21.112 14.13 32.456 1.652 8.07 1.489 19.652 8.579 20.893 9.87 1.727 13.509-9.795 17.006-18.25 1.307-3.157 1.499-6.968 3.3-9.712 5.286-8.053 4.47-19.692 15.393-28.15 3.494 64.742-7.286 124.405-25.077 183.28 20.837-38.974 32.075-82.258 55.295-124.003.93 9.657.666 14.557-.29 19.877-6.157 34.288-23.185 64.477-33.504 97.146-8.131 25.744-23.983 43.692-47.851 54.942-6.157 2.902-13.932 4.408-19.257 14.028 17.38-2.511 35.753 1.337 46.014-13.056 11.888-16.673 19.318-36.711 28.895-55.17 3.783-7.292 7.148-15.079 14.689-20.28 3.16 6.346 2.633 11.787.649 17.359-5.744 16.127-12.073 32.022-18.151 47.997-10.745 28.248-29.898 40.034-58.585 40.866-13.034.378-27.21 1.722-38.41 13.655Zm-510.88 311.76c0-209.27.2-418.54-.38-627.807-.045-16.571 4.226-20.352 19.557-20.32 240.497.523 480.996.367 721.494.367 35.73 0 71.479.706 107.18-.365 13.327-.4 15.654 4.253 15.645 17.143-.317 420.33-.363 840.662.124 1260.994.019 16.153-5.327 17.859-18.428 17.84-247.88-.382-495.76-.283-743.641-.283-26.144.002-52.29.204-78.431-.055-25.937-.257-22.942 4.139-22.956-23.294-.104-208.073-.057-416.148-.057-624.22Z"/></g></svg>