<svg xmlns="http://www.w3.org/2000/svg" xmlns:xlink="http://www.w3.org/1999/xlink" xmlns:inkscape="http://www.inkscape.org/namespaces/inkscape" version="1.1" width="1984.25" height="1984.25" viewBox="0 0 1984.25 1984.25">
<defs>
<clipPath id="clip_1">
<path transform="matrix(1,0,0,-1,0,1984.25)" d="M0 1984.252H1984.252V0H0Z"/>
</clipPath>
</defs>
<g inkscape:groupmode="layer" inkscape:label="Layer 1">
<g clip-path="url(#clip_1)">
<path transform="matrix(1,0,0,-1,1142.8858,1076.7568)" d="M0 0C15.612 6.792 32.199 34.93 36.103 53.365 46.836 21.346 24.394-1.94 0 0M17.563 31.534C17.563 26.983 13.846 23.286 9.27 23.286 4.693 23.286 .977 26.983 .977 31.534 .977 36.084 4.693 39.781 9.27 39.781 13.846 39.781 17.563 36.084 17.563 31.534M-23.065 14.894C-30.247 42.692-20.471 61.04 18.471 63.621-2.468 51.561-15.641 36.046-23.065 14.894M136.954 209.268C166.372 231.953 198.913 247.768 236.167 252.813 241.768 253.57 249.69 256.132 247.729 245.779 239.602 203.01 227.238 162.258 187.673 136.691 176.188 129.269 163.689 123.544 145.619 124.068 172.062 140.66 190.932 159.348 197.089 191.822 176.315 178.918 161.357 162.258 136.983 157.785 144.165 170.68 155.493 176.337 163.133 185.341 166.109 188.844 172.783 192.385 169.358 197.217 166.08 201.855 160.304 197.333 155.864 195.694 131.246 186.593 110.434 170.961 88.431 156.951 100.472 178.297 117.889 194.568 136.954 209.268M-312.722 32.989C-308.146 32.989-304.428 29.293-304.428 24.742-304.428 20.191-308.146 16.495-312.722 16.495-317.298 16.495-321.015 20.191-321.015 24.742-321.015 29.293-317.298 32.989-312.722 32.989M629.913 786.18C613.95 856.282 574.307 910.53 508.122 943.179 503.322 945.547 498.717 950.553 492.218 947.856 492.092 941.123 496.628 937.436 499.702 933.146 516.357 909.889 533.014 886.603 546.645 861.424 569.477 819.266 585.576 775.197 581.849 726.198 580.288 705.551 574.784 702.708 556.665 712.576 551.903 715.166 547.259 718.154 543.122 721.618 519.509 741.383 498.297 763.359 482.236 789.75 473.543 804.042 465.727 818.869 457.375 833.384 455.765 836.178 455.053 840.719 450.564 840.04 444.974 839.196 446.515 834.082 446.095 830.492 443.607 809.36 448.057 789.217 456.458 770.035 476.011 725.393 506.669 688.658 542.937 656.892 557.865 643.822 562.354 629.637 560.938 611.386 560.236 602.392 558.227 593.814 554.899 585.625 532.301 530.02 494.901 488.928 437.021 468.456 421.312 462.886 420.687 463.469 424.58 478.741 432.981 511.749 439.051 545.107 440.953 579.134 443.422 623.214 442.134 666.856 422.795 707.87 421.146 711.373 420.756 718.193 414.813 716.738 409.213 715.36 411.739 709.257 411.398 705.182 410.53 694.645 412.589 683.797 407.096 670.311 392.684 706.23 378.087 738.947 351.273 764.291 351.43 754.365 353.381 745.332 355.742 736.415 362.026 712.663 370.515 689.357 370.808 664.392 371.062 642.561 367.285 639.058 344.824 638.99 319.836 638.913 297.872 649.954 274.952 657.532 269.166 659.443 261.818 666.042 257.437 660.559 252.607 654.515 260.141 647.946 263.809 642.561 280.836 617.518 307.873 608.815 334.998 600.412 349.156 596.027 363.354 591.738 377.403 587.052 385.317 584.413 388.488 578.766 388.723 570.14 389.317 548.707 384.429 528.244 380.331 507.432 366.231 435.952 306.419 420.224 247.28 423.338 236.322 423.92 233.073 430.13 234.107 440.182 235.659 455.367 236.85 470.59 238.128 485.804 239.631 503.871 237.493 521.2 227.59 536.966 225.756 539.887 224.272 543.991 220.35 543.39 216.105 542.73 216.798 538.082 216.252 534.9 212.661 514.049 210.114 492.994 204.172 472.608 193.605 436.369 175.866 406.33 135.754 396.277 104.18 388.36 101.252 390.155 103.975 422.562 106.531 452.99 110.59 483.272 108.248 513.903 107.126 528.622 102.188 541.692 91.836 552.52 89.445 555.023 86.987 558.468 83.26 557.158 79.444 555.819 80.157 551.453 79.825 548.125 77.425 524.625 76.215 500.931 72.468 477.644 65.745 435.884 58.866 393.929 39.791 355.449 25.975 327.573 4.771 320.043-24.305 331.483-33.136 334.957-40.854 340.245-48.532 345.697-64.808 357.244-76.994 373.049-91.767 386.119-98.051 391.678-103.632 404.437-111.652 400.042-119.409 395.792-115.731 382.936-114.189 373.767-107.535 334.073-85.942 303.005-56.963 276.207-54.602 274.023-49.879 272.752-51.079 268.6-52.426 263.923-57.393 264.311-61.129 264.282-68.535 264.224-75.94 264.874-83.347 265.213-86.605 265.369-90.636 267.513-92.548 263.292-93.963 260.178-90.85 257.897-89.182 255.666-80.244 243.722-68.856 234.194-57.626 224.501-37.224 206.92-37.028 206.386-60.778 194.452-71.315 189.154-70.047 185.583-62.018 179.364-46.034 166.974-35.438 150.489-27.125 132.306-21.192 119.333-20.373 107.331-29.242 94.99-38.824 81.629-43.917 66.23-47.83 50.279-50.874 37.841-50.659 24.499-57.948 10.44-66.671 33.145-61.705 54.937-64.271 75.895-70.457 75.332-71.306 71.296-73.004 67.832-83.814 45.797-88.83 22.355-89.874-1.95-91.738-45.351-82.176-87.101-69.988-128.279-66.457-140.204-69.599-143.027-81.2-142.28-94.108-141.445-107.105-142.086-124.718-142.086-101.642-157.387-79.355-166.469-62.974-183.652-45.43-202.049-40.629-223.599-45.869-249.242-52.318-244.818-51.898-234.252-58.114-235.96-64.935-237.822-61.461-247.06-63.148-252.891-63.822-255.22-63.617-257.791-63.988-260.226-65.296-268.997-70.555-274.78-78.946-276.682-94.597-280.224-110.442-279.632-126.201-276.905-129.645-276.313-133.294-275.158-133.685-270.967-133.997-267.707-131.646-264.961-128.894-264.127-108.999-258.043-118.034-250.756-127.684-243.062-129.957-241.257-131.675-238.695-133.372-236.289-137.578-230.361-140.134-223.754-136.085-217.029-132.572-211.188-126.562-208.452-119.604-208.928-111.408-209.49-107.915-215.234-105.477-222.143-103.203-228.604-103.222-235.687-99.202-241.723-94.938-248.127-88.996-248.961-82.303-248.068-77.932-247.486-73.755-246.973-72.224-241.267-62.456-204.833-96.519-169.545-133.587-178.5-144.983-181.256-155.463-182.265-166.996-178.694-194.18-170.272-209.001-177.365-220.661-203.242-224.506-211.771-227.55-220.746-228.018-230.196-228.35-237.037-232.204-246.38-220.944-247.942-211.021-249.32-202.054-246.7-199.127-235.096-197.8-229.847-197.009-224.316-194.785-219.455-190.218-209.49-182.042-208.025-172.44-211.858-162.673-215.759-162.469-223.326-165.708-231.419-168.099-237.405-172.167-242.723-177.524-246.352-188.267-253.647-188.404-258.887-175.553-263.467-172.06-264.709-168.099-266.979-168.547-271.898-168.811-274.741-171.25-276.022-173.689-276.497-191.438-279.923-209.284-279.689-226.77-275.518-239.659-272.441-239.795-259.14-244.381-249.873-263.759-210.723-263.437-210.675-240.322-174.784-237.854-170.961-231.229-167.051-234.79-162.307-238.858-156.873-245.201-161.89-249.641-163.723-260.579-168.226-265.75-164.218-269.78-154.263-274.971-141.484-279.917-128.677-283.528-115.355-284.689-111.076-284.854-105.827-292.046-103.081-292.855-113.308-293.558-122.195-294.251-131.025-299.891-130.481-300.057-126.475-301.471-123.563-311.804-102.267-320.917-80.522-326.635-57.488-327.426-54.306-326.87-49.872-331.612-49.619-335.251-49.426-335.875-52.938-337.027-55.674-337.71-57.294-339.232-58.565-340.881-60.622-348.219-52.19-350.209-42.488-352.327-33.135-356.396-15.029-354.278-12.982-336.373-15.32-333.973-15.631-331.446-16.126-328.909-12.438-336.842-.989-352.482 7.704-348.365 30.428-338.891 4.647-320.732-1.145-299.939-2.493-293.373-2.92-287.372-4.754-282.025-8.791-276.6-12.895-274.482-11.07-274.131-4.551-272.863 18.581-295.598 53.598-317.044 61.894-322.82 64.125-330.041 61.612-335.31 67.832-328.694 73.925-319.483 72.063-312.019 77.224-300.359 85.287-289.626 77.059-283.001 65.299-277.449 55.441-271.711 45.69-266.208 35.813-263.223 30.467-263.74 19.6-257.934 20.278-248.792 21.336-252.421 32.213-250.46 38.879-250.265 39.558-249.104 39.966-247.689 41.033-230.682 27.953-227.287 4.832-211.967-9.684-212.797 22.161-217.383 52.831-235.619 79.097-243.796 90.866-246.304 102.334-242.274 115.123-238.419 127.387-243.728 126.562-252.148 123.438-254.666 122.506-256.89 119.304-261.789 123.224-257.29 132.267-252.509 141.728-247.894 151.275-246.908 153.312-244.811 155.612-247.084 157.931-249.153 160.026-251.67 158.785-254.041 158.173-260.393 156.534-265.584 151.081-273.829 151.479-268.589 170.011-257.329 184.089-247.045 198.644-247.982 199.536-248.918 200.429-249.855 201.321-259.876 195.956-269.906 190.59-279.927 185.215-272.824 199.128-262.12 208.948-251.28 218.621-238.751 229.799-225.423 240.161-214.963 253.444-212.66 256.365-208.104 259.159-209.86 263.273-211.929 268.115-216.768 265.029-220.457 264.903-227.375 264.68-234.292 264.117-241.21 264.233-244.967 264.301-249.914 263.739-251.456 268.289-252.909 272.597-247.953 273.635-245.611 275.79-225.745 294.03-209.421 314.92-198.346 339.507-190.599 356.7-185.115 374.572-187.223 393.823-188.15 402.293-191.867 404.515-198.483 398.034-207.304 389.398-216.046 380.685-224.72 371.904-240.751 355.691-257.125 339.827-278.805 331.211-307.102 319.966-328.128 327.806-341.916 354.701-354.375 379.016-361.147 405.262-366.602 431.809-374.534 470.425-381.14 509.246-381.989 548.804-382.047 551.686-381.589 555.13-384.682 556.731-388.711 558.827-391.161 555.489-393.375 553.073-396.352 549.813-399.259 546.359-401.494 542.584-411.778 525.197-412.236 505.84-411.241 486.619-409.865 460.083-407.319 433.604-405.24 407.105-404.421 396.695-407.777 391.668-419.632 392.862-456.378 396.549-482.772 414.188-497.652 448.042-504.414 463.42-508.639 479.517-512.22 495.963-515.664 511.759-515.137 528.583-522.621 545.233-534.944 531.94-540.604 518.056-540.057 502.289-539.384 483.117-537.53 463.983-536.184 444.83-534.944 427.103-536.974 423.843-554.986 422.368-584.902 419.913-612.827 427.85-639.553 440.677-653.076 447.168-662.687 457.501-668.98 470.804-682.846 500.116-690.554 530.951-691.12 563.406-691.442 581.929-688.085 585.917-669.683 591.35-651.184 596.812-632.518 601.887-614.398 608.427-593.645 615.927-574.745 626.629-563.455 646.85-561.104 651.061-556.401 655.96-559.387 660.2-562.948 665.246-568.363 660.453-572.822 659.055-576.589 657.881-580.14 656.047-583.897 654.815-607.295 647.121-629.961 636.409-655.74 638.99-666.805 640.096-672.601 644.414-673.088 656.397-673.977 677.966-668.98 698.39-663.185 718.795-658.95 733.688-653.476 748.33-652.901 768.298-679.753 738.229-695.433 706.181-707.99 672.28-709.474 672.455-710.966 672.639-712.459 672.824-713.006 683.477-713.416 694.15-714.196 704.794-714.489 708.879-711.757 714.972-717.133 716.457-723.036 718.086-723.437 711.198-725.066 707.656-733.564 689.211-738.921 669.806-741.399 649.644-748.552 591.525-740.111 534.754-726.646 478.391-725.69 474.394-721.065 469.853-725.515 466.234-729.242 463.216-734.062 466.195-738.141 467.68-802.305 491.083-843.188 536.394-861.814 601.053-867.698 621.448-865.229 640.717-845.812 656.736-818.336 679.402-795.201 706.705-776.37 737.104-758.758 765.542-745.01 795.378-748.805 830.163-749.186 833.626-747.166 838.904-752.864 839.788-757.294 840.477-757.918 835.819-759.616 833.054-762.973 827.591-766.524 822.196-769.237 816.423-783.863 785.151-805.261 758.886-829.713 734.862-839.607 725.15-850.057 715.913-862.907 710.295-877.895 703.736-882.266 706.424-884.276 722.618-887.115 745.448-883.896 767.726-878.275 789.887-864.791 843.086-835.246 887.767-803.505 931.391-799.973 936.242-794.079 940.288-795.25 947.953-801.378 948.788-805.778 945.236-810.442 942.946-867.64 914.76-904.795 869.245-925.11 809.835-944.811 752.191-946.469 693.054-937.678 633.295-922.563 530.572-871.806 453.552-775.091 409.24-702.136 375.814-623.824 363.734-545.551 351.461-506.804 345.387-468.487 337.993-432.961 320.47-391.034 299.794-358.415 269.948-343.096 225.035-336.441 205.522-337.632 185.215-348.589 164.199-366.777 190.93-385.774 212.858-418.764 224.744-409.309 204.028-396.722 188.795-393.542 166.45-406.07 180.062-416.305 191.822-431.195 198.575-433.537 193.695-431.634 190.784-430.463 187.553-425.633 174.096-421.096 160.492-420.511 146.074-419.593 123.67-428.277 115.909-450.349 120.498-472.937 125.194-493.681 134.285-510.902 150.12-521.938 160.26-529.285 172.553-533.491 187.728-526.768 186.389-525.216 181.208-522.055 177.802-506.59 161.143-488.441 148.325-465.804 144.279-448.807 141.242-443.635 146.666-444.25 162.898-444.777 176.822-447.128 190.464-454.291 202.631-459.569 211.606-465.482 220.455-477.269 223.395-479.435 213.809-471.697 206.182-474.625 195.111-488.47 209.365-507.712 212.673-518.347 228.042-523.792 235.911-529.197 245.701-525.558 253.881-522.153 261.565-511.225 257.16-503.702 256.917-484.802 256.307-465.95 253.891-445.694 255.278-447.412 257.956-447.909 259.411-448.924 260.158-450.895 261.604-453.042 262.962-455.315 263.826-497.154 279.642-541.023 283.28-585.185 285.017-594.786 285.395-595.284 280.67-592.64 272.665-582.912 243.237-575.486 213.12-566.783 183.4-553.103 136.721-526.739 101.054-475.005 91.186-451.197 86.645-427.614 89.188-404.226 94.232-376.291 100.258-374.368 99.734-383.14 73.421-395.786 35.482-392.868-1.203-380.798-38.005-375.773-53.307-374.358-68.705-375.637-84.549-380.477-144.425-385.131-204.319-390.214-264.175-392.595-292.187-398.42-319.247-408.694-345.823-421.721-379.511-429-415.236-427.721-451.369-423.194-579.377-362.494-676.627-258.842-749.329-251.768-754.287-244.977-761.186-232.429-761.69-283.908-707.529-327.719-651.225-350.951-581.404-332.324-603.439-314.644-626.26-287.665-639.484-315.493-578.475-342.969-517.92-351.175-450.758-335.778-490.422-314.8-526.924-290.172-561.34-265.721-595.493-238.673-627.317-203.352-651.525-230.663-600.023-256.841-548.338-277.341-494.148-297.939-439.726-314.058-383.993-319.679-325.477-307.121-360.736-296.603-396.908-267.555-423.387-277.029-388.186-285.733-353.052-291.772-317.336-297.812-281.649-302.876-245.847-304.086-206.647-292.543-214.42-288.562-223.929-285.606-233.446-279.391-253.443-268.13-270.802-258.334-289.004-251.484-301.725-241.035-306.983-227.394-308.672-206.621-311.243-185.818-309.457-165.025-309.942-153.902-310.195-142.612-309.661-129.431-314.823-152.516-322.488-173.797-319.354-194.785-320.198-200.854-320.45-210.494-315.104-212.504-324.7-214.211-332.812-207.245-338.982-200.512-343.63-196.366-346.492-191.741-348.19-186.677-348.511-153.501-350.636-119.186-360.192-88.996-330.774-91.455-345.571-98.899-353.372-107.018-360.522-123.527-375.058-133.304-393.191-138.982-414.256-160.098-492.576-161.61-571.867-150.73-651.613-148.662-666.798-146.516-682.973-135.158-695.722-132.133-635.778-120.902-577.999-99.788-522.141-99.573-559.418-97.397-596.133-86.605-631.858-85.679-634.915-86.635-639.932-82.273-640.231-76.877-640.601-77.238-635.273-76.214-631.654-67.442-600.897-59.168-569.994-49.752-539.431-41.303-512.05-29.496-485.978-15.553-460.762-14.86-464.429-15.123-467.767-16.138-470.861-28.384-508.392-36.063-546.96-42.561-585.8-53.343-650.265-69.755-712.847-104.666-769.249-106.403-772.053-109.779-774.944-106.423-778.282-103.749-780.96-100.949-777.962-98.354-776.972-96.051-776.099-93.875-774.886-91.67-773.779-10.371-732.97 46.65-668.341 89.699-590.253 135.637-506.917 135.686-421 103.028-333.559 96.822-316.938 96.627-317.113 82.294-327.029 77.239-330.531 72.565-335.654 64.194-332.986 70.517-322.022 77.942-312.116 81.649-300.327 85.523-287.995 87.134-275.401 87.396-262.506 88.294-217.088 83.825-171.98 78.879-126.95 76.01-100.85 75.142-100.946 51.061-107.176 50.738-107.254 50.261-106.749 48.338-105.652 52.787-97.279 57.052-88.673 61.833-80.357 80.918-47.126 90.559-11.459 90.031 26.838 89.758 46.776 82.645 65.436 78.537 84.656 75.464 99.064 76.586 100.345 91.31 97.25 100.511 95.319 109.556 92.603 118.806 90.953 183.564 79.397 237.728 106.594 258.589 166.848 270.678 201.777 280.962 237.134 291.5 272.471 294.652 283.047 290.057 285.56 280.543 285.395 254.715 284.929 229.024 282.63 203.841 277.177 160.47 267.775 121.392 249.699 89.67 217.777 75.971 204.009 65.804 187.65 54.485 172.126 52.515 169.409 50.855 165.208 47.167 165.519 43.021 165.877 43.245 170.573 42.162 173.727 39.254 182.158 37.361 190.716 37.352 199.74 37.313 239.909 60.135 268.221 88.158 292.624 132.554 331.289 187.888 342.835 244.197 351.422 309.775 361.416 375.315 371.827 438.026 394.647 503.917 418.623 561.202 454.377 596.328 516.999 643.944 601.897 651.136 693.005 629.913 786.18"/>
</g>
</g>
</svg>
