<svg xmlns="http://www.w3.org/2000/svg" width="1984.25" height="1984.25" viewBox="0 0 1984.25 1984.25"><defs><clipPath id="clip_1"><path d="M0-.002h1984.252V1984.25H0Z"/></clipPath></defs><g clip-path="url(#clip_1)"><path d="M807.549 860.655a1 1 0 0 0-1.307.132c-.16.17-15.593 16.426-30.698 16.006 1.093-2.02 3.053-5.05 5.029-6.038a1 1 0 0 0 .366-1.475c-.337-.474-3.655-4.44-15.816 1.93-.275.143-26.773 13.563-59.3 2.613 6.663-.734 18.972-2.712 25.15-7.656a1 1 0 0 0 .307-1.144 1.01 1.01 0 0 0-1.001-.634c-.31.02-30.566 2.024-41.781-7.11 1.017-1.892 5.48-7.78 21.044-6 .37.042.745-.131.95-.45a1 1 0 0 0 .025-1.05c-.186-.316-3.692-6.176-9.634-9.565 11.309.089 36.415-.356 52.055-5.608 4.084-1.371 8.604-1.207 12.729.465 6.678 2.705 16.138 7.088 23.314 12.618.95.902 13.309 12.38 29.257 14.517l-16.832 12.203 6.454-12.478a1 1 0 0 0-.311-1.276m435.737-452.601a.999.999 0 0 0-1.742-.182c-.135.195-13.417 19.726-4.725 45.08q.03.09.079.175c.066.114 6.62 11.71 6.41 29.27-.192 15.927-6.171 40.04-33.256 65.233.133-10.685-.175-56.222-13.382-105.886-8.84-33.238-21.641-61.808-38.051-84.915-20.546-28.931-46.828-49.328-78.117-60.625a1.002 1.002 0 0 0-1.274 1.298l15.292 39.992c-12.141-10.07-59.24-47.204-103.32-55.873a1.001 1.001 0 0 0-.778 1.792c.89.642 89.262 64.536 109.07 90.954a1 1 0 0 0 1.163.332c.167-.065 16.99-6.442 29.454 1.306 7.75 4.817 12.285 14.067 13.478 27.493.02.214.107.416.249.576.255.287 25.398 28.913 17.612 51.09-2.404 8.914-9.335 32.085-13.911 37.864-4.163-5.412-25.98-33.07-58.014-61.285-32.848-28.931-83.473-64.394-138.12-69.04a1 1 0 0 0-.848 1.642c.184.218 18.938 22.024 71.869 48.449-.08.07-.178.148-.296.226-1.396.932-6.517 2.689-23.905-1.058-1.753-.78-26.434-11.671-55.626-19.724-40.623-11.204-70.171-11.88-87.823-2.005a1 1 0 0 0-.394 1.343c.339.636 8.835 15.626 54.3 18.983 47.014 3.472 68.605 14.815 70.912 16.096.154.085.302.117.504.126.63-.021 63.86-.801 74.407 25.105a1 1 0 0 0 .849.62c.135.01 13.657 1.255 16.926 18.209.075.386.37.693.753.784.162.037 16.144 3.902 18.823 13.283.133.464.587.768 1.057.72.677-.067 16.595-1.401 22.56 13.362.159.394.56.647.973.625.21-.025 22.908-.552 32.347 36.163a1 1 0 0 0 .87.746.99.99 0 0 0 .999-.56c.13-.27 12.917-27.022 21.478-67.388 4.785 7.21 21.279 38.327 16.887 119.473a1 1 0 0 0 1.674.79c15.849-14.541 41.138-35.596 47.546-35.596h.102c.813 1.453 3.547 9.102-13.97 28.028a.998.998 0 0 0 .69 1.678c3.324.143 12.254 1.383 13.655 5.356.83 2.356-1.121 5.7-5.705 9.732-.971 1.013-23.321 24.62-14.356 39.702l-19.566 19.568a1 1 0 0 0 .833 1.7l11.049-1.402-7.404 11.038a1 1 0 0 0 .982 1.546l19.92-3.058-6.354 12.357c-4.03.727-29.665 5.636-34.7 13.796a1 1 0 0 0 .457 1.445l13.047 5.582c-3.087 3.068-13.382 12.402-29.722 18.304-1.58.665-38.804 16.423-54.316 30.909-2.105 1.513-62.72 45.043-91.43 59.509.454-7.486 1.73-37.92-4.734-71.647-6.866-35.821-24.112-82.803-67.278-103.207a1 1 0 0 0-1.404 1.117c.064.293 6.492 29.456 17.407 46.213.407.596 40.622 60.097 38.365 105.093q-.004.091.007.182c.056.417 5.135 41.253-22.837 58.039-.584-8.082-4.562-43.792-29.67-61.23a1.001 1.001 0 0 0-1.537 1.077c.113.425 10.85 42.392-14.483 52.886-2.466-1.4-15.051-8.136-32.797-10.647-18.122-2.562-45.49-1.135-73.224 20.086-5.491-2.83-45.468-23.355-57.122-27.542-1.026-5.141-8.416-44.934 6.05-55.483a1 1 0 0 0 .133-.116c.339-.353 8.306-8.92 9.476-33.001.33-1.511 5.578-24.826 17.018-38.068a1 1 0 0 0-1.172-1.564c-.574.262-14.205 6.624-27.155 25.442-11.752 17.076-24.998 48.045-21.868 98.91-11.625-6.965-81.786-48.687-112.832-60.002-2.052-1.731-25.94-21.662-52.104-34 14.902 2.143 47.896 6.796 53.32 6.796a1 1 0 0 0 .515-1.857c-.46-.275-45.243-27.108-64.163-34.382 3.532-7.628 29.89-60.332 112.027-128.424a1 1 0 0 0-.787-1.758c-.206.03-20.928 3.3-45.917 19.94-22.863 15.225-54.101 45.067-73.537 100.91l-7.864-4.828 6.353-1.647a1 1 0 0 0 .357-1.762l-25.27-19.343 12.198-2.372a1.002 1.002 0 0 0 .513-1.693l-32.22-31.87 6.536-2.27a.998.998 0 0 0 .449-1.574l-6.403-7.886 11.047 3.867a1 1 0 0 0 1.272-1.283l-3.177-8.826c6.472 3.319 25.119 13.326 30.163 20.906a1 1 0 0 0 1.832-.594c-.022-.56-2.003-54.474 10.013-67.99 1.067 3.557 3.774 12.053 6.543 16.54a1.002 1.002 0 0 0 1.815-.26c.186-.673 18.866-66.87 61.587-96.613l-.846 6.166a1 1 0 0 0 1.38 1.056c3.338-1.416 81.829-34.753 90.97-39.753a.999.999 0 0 0-.332-1.866c-.258-.038-24.98-3.46-60.791 10.946 8.02-7.553 29.558-25.892 66.258-43.734a1 1 0 0 0-.615-1.883c-.458.082-46.292 8.595-92.22 35.778-27.001 15.982-48.764 35.197-64.684 57.11-19.453 26.78-30.18 57.672-31.898 91.852-3.456-4.15-11.633-15.645-15.121-34.904-4.125-22.775-2.35-61.372 29.53-115.91a1 1 0 0 0-1.279-1.414c-.721.33-17.855 8.383-35.78 34.248-16.477 23.776-36.618 67.754-39.003 142.328.015.309 1.65 31.37 19.09 65.288 10.25 19.93 23.87 36.949 40.484 50.583 20.747 17.025 46.235 28.78 75.76 34.94 1.956.652 55.303 18.68 110.077 58.785-17.827-3.201-86.89-14.628-119.28-5.907a1 1 0 0 0-.304 1.79c.269.185 27.139 18.7 49.768 48.384.584 1.03 6.738 11.34 23.68 19.917 15.59 7.892 43.604 15.642 89.202 8.534-7.062 5.833-24.666 21.227-31.223 34.79-1.092 1.42-16.892 21.708-38.301 36.656-.872.687-21.425 16.916-27.112 23.559-.218.212-22.015 21.336-41.254 33.99-1.144.729-28.024 18.118-29.964 40.696-.876 10.2 3.547 19.809 13.147 28.56.14.128.313.213.499.246.12.022 12.13 2.26 15.32 11.039.268.925 7.035 22.573 48.235 18.054q.105-.013.21-.046c.298-.101 30.522-10.015 92.378-10.02 1.22-.111 29.37-2.74 44.587-8.046 1.24 7.058 6.588 46.16-19.054 82.564-1.388 2.106-34.07 51.742-39.77 67.822-.24.547-24.293 54.988-39.052 77.069-.476.786-11.621 19.467-10.501 40.199-.202 1.78-3.654 31.614-9.692 45.49a1 1 0 0 0-.07.234c-.05.3-4.955 30.545 4.987 65.11 5.844 20.322 15.597 38.15 28.986 52.994 16.729 18.544 39.2 32.437 66.79 41.294.29.092.603.05.856-.116l19.016-12.508c3.743 2.355 24.05 14.535 43.636 14.534 7.87 0 15.626-1.967 22.14-7.33 2.783.906 15.324 4.643 25.344 2.08a1 1 0 0 0 .26-1.828l-21.614-12.808c10.212 3.967 22.742 7.58 30.054 5.108a1 1 0 0 0 .062-1.871c-.33-.137-31.317-13.09-43.666-26.931 6.98 1.8 24.369 5.58 35.539 1.959a1 1 0 0 0-.057-1.919c-.333-.087-32.633-8.664-65.003-33.228 10.058 1.547 35.023 5.059 40.423 2.672a1 1 0 0 0-.032-1.843c-.292-.117-29.345-11.807-41.784-21.701-.031-.022-3.147-2.271-2.96-6.09.155-3.161 2.677-8.261 13.806-14.596a1.001 1.001 0 0 0-.332-1.856c-.287-.047-28.741-4.828-34.72-14.566-.93-1.513-1.235-3.03-.927-4.614 3.842.377 19.09 1.482 27.928-3.573a1 1 0 0 0-.051-1.764c-.221-.11-21.186-10.648-31.448-23.363 7.637 1.563 30.865 7.088 45.325 18.88.218.178.5.256.777.215.225-.034 22.923-3.136 44.197 9.93q.051.032.105.057c.455.209 11.308 5.123 26.34 4.564a.999.999 0 0 0 .53-1.822c-2.784-1.92-7.043-5.837-6.625-8.176.225-1.264 1.989-1.968 3.429-2.336a1 1 0 0 0-.034-1.945c-1.196-.263-117.576-26.203-140.684-67.956 11.568 5.25 58.812 26.168 83.408 29.096a.99.99 0 0 0 1.07-.69 1 1 0 0 0-.473-1.181c-.22-.12-20.933-11.528-29.323-24.683l16.426 5.805a1 1 0 0 0 1.003-1.686c-3.326-2.998-11.625-11.724-10.111-16.04.598-1.705 2.829-2.683 6.63-2.907a1 1 0 0 0 .51-1.821c-.288-.2-28.181-19.697-42.707-46.443 6.093 2.529 16.625 7.25 18.956 9.894a.998.998 0 0 0 1.744-.558c.069-.664 1.318-15.752-20.854-43.35 8.487 4.947 24.979 12.67 38.895 7.934 4.472 1.046 60.363 14.247 70.065 22.109a1 1 0 0 0 .726.218l11.504-1.12a1 1 0 0 0 .759-1.512c-.244-.404-6.37-9.963-39.753-16.12-.484-.106-46.998-10.742-62.242-42.457 10.66 7.789 32.01 23.474 33.72 25.136a1.001 1.001 0 0 0 1.689-.59c.069-.532 1.398-12.66-14.465-36.641 10.192 6.587 35.91 21.536 54.503 17.92a1 1 0 0 0 .37-1.809l-34.28-23.232 20.912 3.236a1 1 0 0 0 .635-1.865c-.311-.172-28.427-15.757-42.886-30.903 13.12 7.709 46.919 26.659 62.14 26.656.353 0 .7-.01 1.033-.031a1 1 0 0 0 .488-1.833c-.311-.205-30.227-19.977-40.851-29.71l7.995-4.373a1 1 0 0 0 .519-.9 1 1 0 0 0-.562-.876l-13.35-6.491 12.515-2.253a1 1 0 0 0 .56-1.66c-.341-.373-7.565-8.198-15.011-10.401 3.52-1.462 10.765-3.125 20.813 1.383.253.098 6.246 2.372 11.812-.638.108-.065 11.003-6.477 35.02-3.216.398.045 9.804 1.109 15.266-5.384a1 1 0 0 0-.478-1.601c-.133-.04-11.968-3.526-25.82-3.188l20.186-8.921a1.002 1.002 0 0 0-.026-1.841l-7.93-3.246 20.415-4.36a1 1 0 0 0-.18-1.976l-69.475-2.078c7.597-2.824 21.045-8.305 23.706-12.617a1 1 0 0 0-.851-1.525c-.466 0-40.942-.024-56.724-1.844l28.734-5.682a1 1 0 0 0 .002-1.962l-19.22-3.834c10.432-4.435 44.096-19.434 52.07-31.55.21-.32.219-.732.024-1.061a.99.99 0 0 0-.944-.484c-1.817.154-43.107 3.803-64.687 16.98l3.01-8.37a1 1 0 0 0-.288-1.086 1.01 1.01 0 0 0-1.125-.133c-1.945 1-46.296 23.592-82.344 22.513 21.57-8.594 118.773-48.865 146.318-87.038a.99.99 0 0 0-.104-1.273 1.01 1.01 0 0 0-1.29-.125c-2.946 1.987-70.533 47.314-115.911 57.124 9.85-6.987 36.91-25.63 50.639-29.634a1.001 1.001 0 0 0 .359-1.73c-.876-.727-9.832-6.46-53.54 17.278-.134.09-12.272 8.146-26.582 9.655 14.09-7.506 61.214-33.216 80.158-51.16.333-.315.379-.807.155-1.206-.223-.4-.72-.588-1.161-.47-3.042.815-72.783 19.357-106.903 17.522 11.839-7.028 60.08-34.593 88.252-34.593a1 1 0 0 0 .123-1.992c-.734-.092-70.605-8.572-107.765 3.819 7.27-6.186 23.86-18.266 40.196-15.82a1 1 0 0 0 1.038-1.447l-7.624-14.827c4.392-2.59 26.044-14.832 40.57-13.363a1 1 0 0 0 .775-1.732c-.398-.364-9.632-8.506-32.345-3.738 7.37-8.134 32.646-35.062 49.856-41.57a1.002 1.002 0 0 0-.067-1.894c-.294-.09-6.964-2-21.071.516 8.96-9.384 46.638-45.54 97.948-48.898.376-.033 37.908-3.134 62.114 12.737.133.076 13.215 7.685 11.577 23.075-.031.298.073.595.284.809.21.213.502.32.805.292.589-.056 59.105-5.454 74.748 3.78a.998.998 0 0 0 1.504-.763c.044-.446.87-9.635-4.285-13.634 6.688-1.15 24.032-3.495 38.72-.032a1 1 0 0 0 1.218-1.126c-.015-.098-1.368-8.227-9.358-12.653 13.525.44 46.69 1.774 67.296 4.737l1.053 8.196a1.002 1.002 0 0 0 1.603.665c.155-.121 15.018-11.456 24.28-8.703-1.941 2.81-6.827 10.433-6.33 15.284a1 1 0 0 0 1.549.73c.382-.252 38.334-25.613 50.962-51.287a.998.998 0 0 0-.734-1.427c-.353-.06-35.868-5.87-81.525-3.858-41.942 1.845-101.245 10.847-146.22 43.178-.441-.738-.987-2.137-.728-4.311.709-5.948 7.837-19.327 47.62-42.104q.05-.03.098-.063c.688-.508 69.342-50.972 106.737-64.745 40.004-14.733 99.008-60.014 126.943-91.438a1 1 0 0 0 .147-.215c.102-.205 10.323-20.954 11.466-62.434 1.052-38.18-5.567-102.344-43.075-191.206"/></g></svg>