<svg xmlns="http://www.w3.org/2000/svg" width="1984.25" height="1984.25" viewBox="0 0 1984.25 1984.25"><defs><clipPath id="clip_1"><path d="M0-.002h1984.252V1984.25H0Z"/></clipPath></defs><g clip-path="url(#clip_1)"><path d="M260.418 905.209c.413-1.146.841-2.333.987-3.452 1.68-12.877 12.163-19.318 35.052-21.537l2.472-.239-2.372-.736c-2.11-.654-4.276-1.495-6.373-2.308-9.372-3.639-19.062-7.4-28.42 2.934-.582.647-1.697.925-2.91.724-1.132-.187-2.548-.867-3.128-2.216-.874-2.052-1.08-5.35.025-6.8 6.934-9.114 12.787-15.553 24.989-15.242 16.37.399 32.538 3.473 48.173 6.447 10.33 1.963 21.01 3.995 31.653 5.236 2.448.284 3.846.848 4.399 1.774.543.909.385 2.372-.501 4.605-.988 2.497-1.67 5.087-2.327 7.592-1.826 6.947-3.552 13.51-11.368 18.502-5.354 3.423-8.2 7.77-8.014 12.241.2 4.763 3.829 9.241 10.219 12.608 4.774 2.514 7.469 5.283 8.239 8.46 1.19 4.916-2.41 10.061-5.89 15.037l-.881 1.263c-7.753 11.192-17.61 13.394-28.508 6.365-11.815-7.623-24.901-13.407-37.557-19-6.233-2.755-12.673-5.603-18.888-8.637 6.093-6.558 10.626-9.38 15.083-9.416h.084c5.315 0 11.214 3.947 20.325 13.59l.925.978-.062-1.344c-.33-7.216-4.727-14.299-11.761-18.949-6.87-4.54-14.872-5.796-21.404-3.36-1.023.38-2.056.928-3.055 1.457-2.86 1.514-5.56 2.943-8.326 1.01-2.887-2.023-1.912-4.726-.88-7.588m7.377 203.59.046-.222c1.836-8.895 9.666-10.726 16.281-11.327l.413-.039c4.731-.428 9.623-.873 11.782-6.236l.074-.181-.07-.181c-1.135-3.019-3.596-2.815-5.764-2.63-2.132.18-3.986.335-5.074-1.932 3.44-2.84 7.94-3.701 12.696-4.612 6.815-1.306 13.862-2.655 18.25-10.063l.36-.61-.695-.137c-9.661-1.884-18.76-1.766-27.818.369-.435.1-.887.227-1.346.355-1.728.483-3.513.982-4.685.304-.61-.353-1.03-1.013-1.285-2.016-.236-.938-.166-1.702.214-2.337.854-1.427 3.187-2.01 5.06-2.478l.603-.152c2.952-.762 6.13-1.007 9.206-1.246.63-.05 1.26-.097 1.887-.15 17.017-1.418 29.899-14.152 32.817-32.439l.32-2.01-1.216 1.632c-13.32 17.905-31.631 19.572-51.017 21.335-5.856.534-11.904 1.083-17.858 2.107 5.385-17.68 18.752-19.395 31.155-18.725 14.14.785 24.25-5 34.912-19.934l.839-1.177-1.387.405c-3.546 1.036-6.822 2.14-9.991 3.207-8.255 2.78-15.38 5.205-23.072 4.934-.855-.028-1.767.052-2.733.135-3.41.297-6.63.577-7.05-3.84-.328-3.474 2.09-4.009 5.819-4.429a31 31 0 0 0 1.986-.265c7.493-1.346 12.81-5.645 20.005-13.109l1.043-1.08-1.483.24c-5.02.817-9.486 2.292-13.803 3.72-7.846 2.593-14.623 4.835-22.034 2.177-1.123-.404-2.409-.635-3.65-.858-4.022-.724-7.496-1.349-7.045-6.95.47-5.866 4.899-6.343 10.202-6.343h.022c10.555 0 19.692-3.865 29.363-7.956 4.19-1.773 8.524-3.606 13.156-5.207l1.385-.48-1.389-.467c-4.164-1.402-8.034-3.08-11.774-4.705-9.094-3.947-17.684-7.676-28.02-6.128-3.096.466-8.786.796-12.11-2.187-1.721-1.545-2.535-3.793-2.417-6.682.068-1.706.5-2.899 1.32-3.647 1.41-1.285 3.834-1.158 6.397-1.025 1.985.104 4.034.212 5.692-.38 13.373-4.783 23.717.85 33.721 6.294 4.736 2.578 9.632 5.243 14.803 6.797 3.024.906 3.733 3.887 3.888 5.583.594 6.485 2.447 10.414 5.668 12.012 3.646 1.808 8.764.512 16.108-4.076 5.843-3.643 11.553-6.063 17.459-7.403 5.404-1.233 9.034-.935 11.096.913 1.846 1.655 2.526 4.702 2.02 9.058-.383 3.3.207 6.715.778 10.015 1.216 7.036 2.365 13.683-4.975 19.681a59 59 0 0 0-2.238 1.967c-2.35 2.136-4.566 4.154-7.773 4.769-1.125.216-2.35.374-3.536.528-5.87.756-12.522 1.613-11.43 10.257 1.048 8.214 6.947 14.876 16.185 18.274 5.776 2.135 12.016 4.29 18.508 5.601 6.16 1.247 10.087 3.834 11.354 7.483 1.235 3.552-.124 8.032-3.73 12.292-2.44 2.884-4.851 5.93-7.185 8.875-12.17 15.371-24.755 31.265-48.166 33.272-8.49.727-12.154 6.563-14.4 11.566-5.51 12.33-16.51 18.45-26.543 22.81-.641.278-1.282.651-1.901 1.012-2.463 1.433-4.054 2.188-5.665-.255-1.948-2.966-1.055-6.54 2.224-8.891 1.661-1.19 3.398-2.245 5.236-3.361 5.15-3.129 10.477-6.363 14.51-12.856l.68-1.094-1.24.35a46025 46025 0 0 1-35.311 9.924c9.352-10.168 21.254-16.332 32.78-22.298 4.675-2.42 9.509-4.922 14.083-7.65l.92-.55-1.012-.353c-9.601-3.347-16.53 1.094-23.23 5.391-3.415 2.19-6.946 4.455-10.765 5.61-1.525.462-3.05 1.03-4.522 1.578-5.091 1.896-9.9 3.685-15.067 1.594-3.438-1.395-2.52-5.829-1.85-9.068m72.167-345.007c10.848-17.58 26.637-27.035 48.25-28.89-.168.521-.346 1.04-.522 1.55-1 2.902-1.942 5.643-.69 7.887.933 1.668 3 2.84 6.32 3.582 3.798.852 5.998 2.265 6.541 4.202.608 2.163-.865 5.041-4.262 8.322-2.158 2.085-3.745 4.731-5.281 7.29a92 92 0 0 1-1.819 2.942c-3.301 5.058-5.37 7.115-7.375 7.337-2.178.24-4.536-1.644-8.7-5.692-6.1-5.93-16.051-5.6-23.663.783-1.613 1.355-3.17 3.078-4.818 4.904-4.933 5.465-9.591 10.626-15.35 6.034-.565-.45-.873-1-.945-1.678-.287-2.79 3.39-7.233 6.945-11.529 1.978-2.389 4.023-4.858 5.369-7.043m-45.993 60.35c8.918-1.29 20.621-4.668 19.296-19.045-.286-3.09.466-5.507 2.173-6.988 1.942-1.683 5.024-2.13 8.675-1.26 7.022 1.673 14.307 1.841 21.353 2.005 8.586.2 17.464.406 25.842 3.356.776.274 1.724.385 2.642.492 1.255.146 2.676.312 2.954.915.132.285.109.893-.748 2.168-3.7 5.5.49 10.763 4.185 15.406 2.706 3.402 5.263 6.615 4.554 9.471-.49 1.967-2.5 3.7-6.15 5.293-6.651 2.909-17.094 2.212-27.193 1.535-2.28-.153-4.525-.302-6.68-.406-3.833-.186-7.73-.513-11.5-.83-13.298-1.117-27.048-2.273-40.864 2.525-10.84 3.767-23.147 3.348-35.681-1.2 5.479-1.552 10.62-3.865 15.606-6.107 6.787-3.054 13.806-6.21 21.536-7.33m59.885 444.468c-2.999-.133-7.164-5.743-8.204-9.99-.37-1.517-.74-4.196-1.166-7.296-1.698-12.327-3.442-22.577-7.603-23.144-1.043-.15-2.026.252-2.916 1.177-4.942 5.135-6.231 26.291-5.313 31.52 1.305 7.488-1.472 13.546-8.254 18.007-1.144.756-6.423-.256-12.164-2.918-4.97-2.304-8.198-4.922-8.425-6.832-2.602-21.936-3.447-28.267-5.584-28.437l-.087-.003c-2.043 0-3.804 5.881-9.406 25.633l-.417 1.468c-1.644 5.795-9.77 6.225-17.628 6.64-3.415.181-6.64.352-9.412.936-.726.152-1.28.056-1.695-.294-1.198-1.014-1.081-3.972-1.042-4.943.154-3.704-.026-7.542-.201-11.254-.637-13.554-1.24-26.359 12.51-36.04.952-.666 1.601-1.792 2.077-2.611 5.31-9.167 8.589-13.844 11.772-13.964 3.288-.129 6.88 4.3 13.281 13.64q.331.484.665.981c1.282 1.91 2.609 3.884 4.472 5.131 1.913 1.28 2.689 3.89 3.438 6.415.73 2.457 1.418 4.776 3.151 5.713.93.503 2.043.55 3.401.143 1.923-.577 3.041-1.381 3.418-2.463.578-1.658-.694-3.484-2.04-5.416-1.178-1.691-2.397-3.44-2.204-4.918.163-1.293 1.047-2.818 2.01-3.47 1.599-1.091 2.583-.26 4.057 1.188.197.194.398.39.6.577.366.341.433 1.142.498 1.917.09 1.053.181 2.142 1.026 2.652.663.397 1.596.317 2.935-.254 1.424-.6 2.34-1.562 2.65-2.785.344-1.356-.11-2.909-1.281-4.376-1.659-2.07-2.817-4.336-4.044-6.734-1.733-3.384-3.524-6.884-6.824-9.757-4.12-3.587-5.922-6.816-5.358-9.595.64-3.157 4.292-5.845 10.853-7.989 5.35-1.75 10.647-3.947 16.256-6.273 2.73-1.131 5.556-2.303 8.58-3.506l.894-.358-.805-.527c-7.995-5.227-15.27-9.317-23.31-6.439-4.798 1.72-8.16.058-11.718-1.7-.965-.476-1.964-.97-2.986-1.388-3.205-1.309-4.827-2.577-4.96-3.874-.133-1.3 1.188-2.895 3.927-4.737 15.12-10.187 33.676-19.593 56.657-12.102 5.715 1.86 14 3.291 21.017-.442 5.444-2.898 9.364-3.588 11.984-2.1 2.592 1.472 4.001 5.19 4.305 11.37 1.565 32.084 3.173 65.822 5.059 106.176.264 5.61-2.48 8.608-5.317 9.087-2.166.372-4.772-.705-5.727-3.924-7.661-25.779-11.157-37.543-15.474-37.631h-.048c-4.317 0-8.346 11.778-17.13 37.468-.62 1.81-1.534 2.707-2.75 2.645m609.467 8.188c-.953-1.12-1.196-2.783-.7-4.807 1.333-5.468 2.992-12.273 10.326-13.319a8 8 0 0 1 1.125-.082c1.503 0 2.806.464 3.814 1.364 1.292 1.154 2.006 2.95 1.964 4.932-.2.756-.385 1.512-.565 2.255-1.413 5.797-2.634 10.802-9.86 11.369-2.85.216-4.962-.368-6.105-1.713m377.222 20.433c-1.212 8.685-8.798 7.982-16.822 7.237-1.175-.107-2.381-.22-3.553-.297l12.915-43.44c6.792 11.032 9.302 23.307 7.46 36.5m-88.293-13.935c.019-2.941.04-5.953.043-9.055 6.476 9.824 7.572 20.205 8.632 30.258.239 2.268.487 4.613.792 6.903a3.27 3.27 0 0 1-.928 2.747c-.602.594-1.388.875-2.138.762-4.1-.594-6.067-4.108-6.197-7.324-.315-7.893-.261-15.858-.205-24.29m-262.984-20.155c-.064 3.217.034 11.629 2.596 16.083-2.232-1.32-5.535-3.815-6.193-7.309-.521-2.762.688-5.709 3.597-8.774m-37.711 15.186c-1.45 3.046-5.596 5.018-14.717 6.962 1.19-6.155 4.543-11.05 8.403-16.686.998-1.458 2.027-2.96 3.058-4.544 3.68 7.234 4.62 11.397 3.255 14.267m-135.81-25.409.41-.536c1.606-2.113 3.093-4.36 4.532-6.533 2.19-3.31 4.459-6.736 7.162-9.695l.239-.262c5.57-6.106 10.38-11.381 2.26-19.786-1.35-1.397-1.927-3.002-1.714-4.77.39-3.269 3.25-6.147 5.579-7.62.914-.578 1.759-.863 2.56-.863q.38 0 .748.084c2.068.48 3.61 2.98 4.85 4.987.259.42.507.824.75 1.193 10.11 15.401 19.914 31.09 28.17 44.403 1.93 3.111 2.494 5.274 1.777 6.81-.707 1.51-2.804 2.523-6.235 3.008-3.578.51-6.88 1.97-10.072 3.381-3.948 1.747-7.675 3.397-11.746 3.243-7.826.313-13.922-2.996-19.815-6.196-3.28-1.78-6.674-3.622-10.287-4.78-.873-.279-1.398-.681-1.558-1.196-.392-1.254 1.15-3.26 2.39-4.871m332.173-436.073c-1.26 4.365-2.451 8.49-5.486 9.93-2.146 1.018-5.139.681-9.149-1.029-1.038-.442-2.447-.573-3.809-.699-1.975-.183-4.016-.371-4.687-1.466-.398-.65-.322-1.673.223-3.04 2.607-6.523 7.572-7.764 13.611-7.764 1.795 0 3.687.11 5.638.223 1.555.09 3.159.183 4.756.218a96 96 0 0 0-1.097 3.626m26.944 4.844c2.995-2.53 5.764-3.47 8.226-2.804 2.495.678 4.652 3.125 5.915 6.71 1.378 3.918 3.245 6.342 5.708 7.413 2.54 1.106 5.642.781 9.764-1.02 2.33-1.018 4.776-1.964 7.14-2.878 11.727-4.535 23.854-9.225 27.113-24.58 1.398-6.558 8.733-10.478 15.382-11.454 7.915-1.17 15.886-1.572 24.324-1.998 3.346-.169 6.796-.344 10.289-.57-6.372 14.051-15.744 28.752-36.233 32.861-6.212 1.246-10.596 5.27-14.835 9.162-3.083 2.83-6.273 5.757-10.121 7.552-8.866 4.131-18.627 5.187-28.067 6.207-6.638.718-13.504 1.46-20.043 3.261-1.572.433-3.833.276-4.124-.154-8.223-12.043-16.377-7.738-24.261-3.575-2.024 1.07-4.116 2.173-6.219 3.024l-.543.22c-5.785 2.342-12.986 5.259-19.383 2.126-1.937-.95-4.33-1.005-6.643-1.058-4.36-.1-8.125-.187-9.009-5.505-.26-1.562 1.542-3.995 4.819-6.505 4.48-3.432 10.85-6.318 14.956-6.318.88 0 1.656.132 2.287.42 9.566 4.366 15.927 2.572 20.623-5.827 2.16-3.859 5.458-4.91 10.386-3.31 5.206 1.705 9.432 1.236 12.549-1.4m348.394-51.572c-2.846 3.262-3.42 7.323-1.573 11.14 2.441 5.042 9.536 9.903 19.854 9.408 5.707-.285 9.297.558 10.966 2.562 1.988 2.384 1.288 6.221.079 11.38-2.107 9.03.447 15.561 8.04 20.553l.095.063c3.013 1.98 7.566 4.97 8.039 7.984.156.99-.13 1.92-.872 2.84-4.5 5.587-12.237 9.46-19.386 5.516-5.262-2.908-11.009-5.442-17.822-5.442-2.436 0-5.01.323-7.746 1.072-7.449 2.041-10.622-5.392-11.417-7.72-1.844-5.41-3.708-9.169-6.806-9.925-2.65-.642-5.909 1.004-10.27 5.182-2.665 2.55-5.12 3.739-7.468 3.622-3.56-.172-6.834-3.182-10.963-7.982-3.792-4.404-6.487-9.758-9.093-14.933-4.918-9.768-10.005-19.869-22.68-24.461-2.112-.763-2.785-2.987-2.71-4.814.077-1.875.98-3.989 2.82-4.487 8.654-2.34 12.279-8.666 15.785-14.782 2.055-3.585 4.18-7.292 7.3-10.09 1.903-1.702 3.51-3.638 5.067-5.51 4.173-5.02 8.106-9.756 17.116-9.432 4.428.187 5.673-4.754 6.799-9.093.348-1.344.678-2.613 1.082-3.696.421-1.13.803-2.298 1.176-3.428 1.786-5.448 3.632-11.077 10.609-15.367 4.382 10.771 9.066 21.324 15.145 34.122 5.491 11.574 9.15 23.913-1.167 35.718m49.16-1.824c-4.646.455-11.005 1.076-10.323 9.885.043.562-.15 1-.572 1.304-.816.588-2.37.607-3.697.046-3.023-1.278-4.507-2.834-4.813-5.045-1.102-7.818.827-13.97 6.076-19.362 3.666-3.769 5.07-7.034 4.06-9.44-1.015-2.425-4.415-3.72-9.83-3.752-3.84-.02-7.152-.18-8.794-1.927-.836-.89-1.197-2.149-1.101-3.849.508-9.009-3.35-15.981-7.436-23.363-.486-.88-.981-1.775-1.472-2.68 2.995 2.63 6.108 5.196 9.136 7.692 15.505 12.782 31.534 25.997 33.632 49.414-1.043.703-2.903.885-4.867 1.077m8.127 19.814c-2.834-2.505-4.44-4.669-3.056-7.093.515-.902 1.402-1.352 2.649-1.352q1.603 0 3.991.991l.002.001c7.78 3.225 15.577 6.562 23.83 10.095 2.986 1.278 6.046 2.587 9.207 3.937-16.697 8.957-27.65 1.322-36.623-6.579m-503.058 66.894h-.053c-4.516-.023-9.014-2.924-13.733-8.865l29.958-1.964c-5.873 7.284-11.17 10.83-16.172 10.83m306.853-118.589c-1.065 8.462-2.072 16.453 2.933 24.32v.001c.71 1.11.87 2.2.49 3.33-.917 2.722-4.77 4.992-7.792 6.11-10.775 3.972-14.168 11.222-10.673 22.815 1.249 4.157.859 8.611-1.16 13.238a148 148 0 0 0-.895 2.108c-1.595 3.814-3.1 7.417-5.326 7.625-1.918.182-4.496-2.197-7.697-7.06-2.913-4.435-7.236-6.699-11.865-6.202-4.817.515-8.893 3.93-10.902 9.136-3.267 8.44-6.785 13.021-11.408 14.85-4.151 1.64-9.231.968-15.526-2.06-8.412-4.048-13.909.938-17.31 5.038-9.18 11.058-18.387 15.322-29.85 13.813-2.9-.37-5.075.88-7.182 2.091-.614.353-1.248.72-1.89 1.038-.956.473-1.927 1.083-2.956 1.73-3.832 2.408-7.45 4.682-10.357.443-.618-.902-.842-1.729-.687-2.528.352-1.81 2.626-3.316 4.823-4.772 1.121-.744 2.181-1.445 3.035-2.206.608-.54 1.199-1.18 1.773-1.8 1.27-1.374 2.587-2.794 4.024-3.08 27.08-5.43 41.613-25.006 55.666-43.936 1.192-1.607 2.386-3.214 3.586-4.813 4.787-6.374 11.815-7.655 19.257-9.012 4.242-.773 8.627-1.572 12.518-3.407 5.935-2.799 8.535-4.707 8.535-11.233-.015-20.164 3.95-24.866 24.961-29.596 2.583-.582 4.99-1.806 8.035-3.355 1.405-.713 2.975-1.512 4.764-2.35-.122 3.351-.53 6.586-.924 9.724m-171.608 136.7c-14.666 5.587-73.84.324-89.155-1.533 14.51-7.384 73.88.143 89.156 1.532m171.25 11.302c33.466-6.914 111.673-6.009 145.732-1.433-33.465 7.398-107.74-.832-145.733 1.433m134.557 40.769c-15.18 6.417-116.066 10.653-144.315 6.719 27.378-6.735 119.184-7.709 144.315-6.72m-39.582-15.734c-43.81 11.023-136.647 12.306-181.247 9.694 44.015-7.444 137.048-5.473 181.246-9.694M1400.735 799.4c.045.834-.08 1.741-.213 2.702-.375 2.717-.8 5.798 3.072 7.274 4.648 1.77 7.001-1.095 9.284-3.865.47-.572.945-1.147 1.442-1.683 7.397-8 16.509-11.654 24.997-10.025 7.941 1.522 14.51 7.625 18.018 16.741 1.087 2.823.216 6.58-2.389 10.308-3.901 5.582-10.35 9.438-15.748 9.438l-.094-.001c-6.198-2.687-8.466 1.207-10.466 4.644a47 47 0 0 1-.948 1.58c-2.764 4.36-6.373 7.378-9.654 8.074-1.918.409-3.746.048-5.428-1.072-10.506-6.999-18.523-3.114-27.01 1-.677.328-1.359.66-2.047.987-2.775 1.317-6.382 1.32-9.871 1.322-.847 0-1.686 0-2.505.02-.38.008-.773.027-1.172.045-2.802.133-5.697.268-6.873-2.462-1.91-4.43 2.62-6.984 4.657-7.875 13.514-5.913 13.955-16.882 13.247-27.609l-.011-.18c-.221-3.418-.472-7.292.84-10.243.298-.67.583-1.378.873-2.098 1.64-4.073 3.329-8.272 8.586-8.272q.782-.002 1.679.13c5.957.87 7.4 5.074 7.734 11.12m65.608 99.446c-27.403 0-92.956 2.174-120.358 2.174 27.774-6.53 93.16-10.462 120.358-2.173m-69.049-122.514.012-.067c.546-3.548 1.166-7.557 6.217-9.067.954 1.326 2 2.642 3.017 3.918 2.505 3.148 5.096 6.404 6.413 9.986.329.894.329 1.573 0 2.02-.842 1.146-3.824 1.001-5.797.904l-.24-.01c-3.488-.164-7.035-.495-8.707-2.542-.969-1.185-1.268-2.867-.915-5.142m294.883 45.898a837 837 0 0 0 4.235 2.372c2.08 1.155 4.315 2.242 6.476 3.293 7.396 3.596 15.032 7.308 19.852 15.035-5.76-1.164-11.77-.438-17.591.266-10.614 1.282-20.636 2.493-29.547-6.585-3.609-3.683-8.893-2.047-14.065.271a144.6 144.6 0 0 1-24.034 8.268c-13.476 3.354-22.584 1.143-31.44-7.63-3.288-3.26-7.24-5.986-11.061-8.624-7.857-5.42-15.981-11.027-18.447-21.486-.206-.866-.277-1.775-.351-2.737q-.039-.517-.089-1.052c6.78-2.322 12.059 1.3 15.314 4.79 10.241 10.988 24.591 13.276 37.45 5.966 24.57-13.952 44.259-2.868 63.298 7.852M1417.51 627.557c1.284.104 2.335.93 2.813 2.208 4.92 13.176 15.247 22.182 25.233 30.89 3.54 3.087 7.2 6.28 10.556 9.606 4.556 4.514 5.403 10.001 6.3 15.81.85 5.521 1.73 11.224 5.869 16.458-7.774 4.962-9.357 12.99-10.891 20.758-1.876 9.501-3.647 18.475-15.8 22.576-2.296.772-3.538 4.404-4.634 7.608-.231.672-.454 1.322-.675 1.916l-.14.372c-1.591 4.25-3.236 8.642-8.305 9.112-5.043.464-6.862-2.957-8.808-6.58-.514-.958-1.044-1.948-1.633-2.85-3.766-5.774-3.931-11.927-4.105-18.44-.046-1.686-.092-3.428-.207-5.148-.06-.868-.075-1.827-.089-2.842-.056-3.897-.12-8.312-2.867-9.827q-.932-.514-2.185-.515c-2.06 0-4.782 1.047-8.236 3.159-1.604.98-4.136.84-5.085.04-.373-.316-.456-.69-.261-1.18 3.696-9.24-.448-16.52-4.455-23.558-2.69-4.724-5.471-9.608-5.753-14.99-.13-2.577-.255-5.012.815-5.937.599-.515 1.625-.62 3.133-.319 2.937.588 4.64.531 5.682-.19 1.039-.718 1.244-1.97 1.482-3.418.183-1.114.39-2.375.995-3.72a830 830 0 0 0 4.546-10.346c4.25-9.785 8.645-19.904 14.033-29.338.514-.903 1.542-1.409 2.671-1.315m-250.79 178.862c20.787-7.427 41.676-17.302 53.658-39.08 4.377-7.94 11.371-10.737 19.7-7.86 1.814.623 3.767 1.018 5.655 1.4 2.971.602 5.777 1.171 8.105 2.55 5.935 3.524 10.779 4.612 14.806 3.33 4.121-1.312 7.415-5.014 10.363-11.65 2.137-4.808 6.3-7.924 11.121-11.533 4.578-3.426 9.764-7.308 14.119-13.437l.845-1.19-1.397.422c-4.214 1.272-8.01 2.375-11.512 3.394-7.545 2.193-13.505 3.925-19.447 6.105-5.543 2.03-9.453 1.127-11.953-2.768-1.253-1.95-1.642-3.859-1.159-5.673.56-2.098 2.25-3.93 4.884-5.3 11.417-5.913 17.607-13.028 20.068-23.07 1.793-7.278 9.39-8.64 16.37-9.348 6.39-.655 7.154 2.787 8.133 7.136.702 3.117 1.497 6.651 4.803 8.613l.563.335.175-.631c1.66-6.043 1.282-12.47.916-18.685-.69-11.687-1.34-22.73 11.23-30.259 7.15 5.5 10.377 13.436 13.5 21.113 1.354 3.328 2.753 6.769 4.456 9.993q.317.601.615 1.184c2.319 4.498 4.32 8.382 11.612 5.386l.632-.26c4.674-1.937 9.97-4.131 12.835 1.71 2.157 4.391 3.094 11.097-1.361 15.544-1.347 1.341-2.578 3.016-3.768 4.635-4.208 5.726-8.187 11.136-17.99 5.944-1.185-.627-2.255-.793-3.187-.487-1.608.526-2.471 2.302-3.232 3.869-.295.608-.576 1.184-.872 1.631-3.115 4.722-3.548 10.154-3.967 15.405-.072.872-.14 1.746-.223 2.62-.87 9.41-3.483 18.398-16.596 20.427-7.246 1.116-12.97 4.04-17.009 8.688-4.6 5.292-12.64 7.287-18.704 4.643-12.42-5.429-22.048-.251-31.36 4.755-6.438 3.46-13.05 7.063-20.548 6.927h-.045c-1.582 0-3.631 1.337-5.001 3.267-1.043 1.47-2.576 4.515-1.137 8.42 2.344 6.37-.174 11.065-7.49 13.955-9.756 3.87-17.35 3.216-22.572-1.946-4.478-4.438-8.755-6.637-13.369-6.637-3.95 0-8.15 1.615-12.932 4.82-1.788 1.195-4.418 1.461-6.391.65-1.194-.492-2.72-1.599-3.226-4.086-.243-1.196-.151-2.08.277-2.704.726-1.054 2.388-1.33 4.147-1.622.976-.162 1.984-.328 2.862-.645ZM931.09 838.156c7.403-8.13 13.516-13.601 19.827-17.744 3.014-1.975 6.245-3.654 9.371-5.278 7.125-3.702 14.494-7.529 19.938-15.165 1.83-2.562 6.557-3.55 11.56-4.594 4.534-.947 9.673-2.02 13.608-4.452.774-.478 1.515-.854 2.168-1.185 2.542-1.288 4.378-2.22 4.035-7.066-.213-3.068.648-5.68 2.558-7.763 2.53-2.758 6.934-4.45 11.777-4.529 2.319-.048 3.994.551 5.168 1.808 2.22 2.373 2.157 6.801 1.854 10.393q-.055.603-.127 1.212c-.36 3.218-.768 6.865 4.665 7.593 26.563 3.594 49.81 14.158 76.476 28.923-12.76 22.4-33.257 17.957-53.08 13.659a781 781 0 0 0-3.81-.82c-10.976-2.319-18.191-.072-25.71 8.023-11.5 12.4-18.628 12.991-31.777 2.635-3.32-2.616-6.665-3.928-9.866-3.928-2.899 0-5.678 1.076-8.212 3.23-10.537 8.957-22.606 7.733-34.28 6.548-4.898-.496-9.964-1.012-14.835-.763-2.239.11-3.673-.466-4.266-1.722-1.17-2.472.968-6.825 2.96-9.015ZM649.825 735.05q1.355 1.016 2.7 2.018l.567.42c3.15 2.331 7.91 5.854 7.918 8.89.004 1.015-.533 1.91-1.639 2.737-.842.63-1.77 1.572-2.755 2.568-3.885 3.941-8.721 8.845-15.161 3.254-1.7-1.478-2.987-2.099-4.208-2.099-1.346 0-2.61.755-4.259 1.95-2.131 1.55-6.042 2.654-6.534 2.214-5.4-5.288-12.637-8.238-19.636-11.092-6.438-2.626-12.52-5.106-16.324-9.149-3.229-3.427-6.655-6.861-9.969-10.183-9.56-9.583-19.444-19.493-26.601-31.138-.78-1.269-1.686-2.488-2.562-3.668-2.531-3.408-4.923-6.627-4.591-11.064.705-9.37-2.216-18.433-5.038-27.196-2.727-8.466-5.304-16.462-4.556-24.244 1.658-17.21-4.21-22.435-17.988-27.634-.804-.303-1.275-.754-1.442-1.377-.288-1.073.345-2.695 1.692-4.337 1.674-2.041 3.56-3.999 5.384-5.892 4.24-4.403 8.625-8.955 10.846-15.008.182-.497 1.09-.92 1.97-1.33.377-.176.765-.356 1.128-.556.73.528 1.47 1.002 2.189 1.463 1.612 1.033 3.135 2.008 4.025 3.3 3.03 4.39 6.466 8.57 9.79 12.612 6.847 8.332 13.927 16.945 17.783 27.818 2.001 5.65 4.138 11.33 6.203 16.823 6.236 16.582 12.683 33.728 16.12 51.806 2.749 14.476 14.857 27.22 32.39 34.087 8.132 3.193 15.466 8.69 22.558 14.006m.507 141.972h-79.27c26.31-7.86 52.778-6.372 79.27 0M578.916 839c-1.308 2.577-3.91 2.017-7.44.946l-.705-.213c-.885-.258-1.848-.476-2.867-.706-3.017-.68-6.437-1.453-7.576-3.444-.518-.905-.555-2.02-.112-3.409.85-2.667.482-5.115.093-7.707-.444-2.95-.902-5.995.572-9.509a612 612 0 0 0 4.077 4.75c3.125 3.616 5.826 6.74 8.287 10.053.719.969 1.776 1.8 2.797 2.605 2.392 1.884 4.457 3.511 2.874 6.634m223.217 37.596c-32.997 1.48-61.912 2.786-93.247 4.198 21.37-8.38 61.215-10.184 93.247-4.197m-19.735-32.45c-10.596-.114-15.553-7.46-20.346-14.565-1.106-1.64-2.25-3.337-3.434-4.89-.78-1.022-1-1.92-.654-2.672.833-1.81 4.752-2.83 8.04-3.01q.69-.038 1.368-.038c5.806 0 11.025 1.99 16.526 4.086 5.01 1.91 10.192 3.884 15.841 4.196 1.188.064 1.957.477 2.285 1.227.629 1.436-.307 4.157-2.223 6.47-4.162 5.025-9.14 9.613-17.403 9.195m45.165-25.836c7.894.494 16.014-5.809 27.356-16.874 1.742-1.695 3.252-2.49 4.598-2.44 1.766.07 3.132 1.626 4.452 3.131.525.598 1.067 1.216 1.622 1.721.866.79 1.72 1.614 2.567 2.434 3.991 3.86 7.751 7.513 12.444 7.318 3.208-.13 6.44-2.095 9.883-6.009.155-.178.96-.447 2.458-.39 1.55.051 2.464.392 2.584.548 5.743 10.595 15.053 8.683 24.053 6.834l.255-.053c2.692-.548 4.406.62 5.105 3.472.906 3.716-.937 8.917-4.81 13.573-3.653 4.39-9.79 8.951-16.067 8.668-7.5-4.774-14.012-3.05-19.358 5.126-1.47 2.244-5.186 1.712-8.778 1.196-1.1-.157-2.139-.306-3.123-.379-5.303-.394-10.642-1.749-15.805-3.059-6.256-1.587-12.635-3.205-19.19-3.205-4.821 0-9.74.876-14.773 3.285-1.592.757-3.024.826-4.26.202-1.68-.849-2.923-2.976-3.504-5.991-3.257-16.874-10.175-22.317-27.416-21.605-3.342.136-6.493-.986-9.545-2.078-1.254-.449-2.548-.912-3.846-1.285-2.202-.632-4.4-1.452-6.526-2.245-7.38-2.753-15.013-5.6-24.836-1.587-13.394 5.47-29.03-2.794-35.383-10.103-8.394-9.645-12.784-7.302-20.058-3.42l-1.22.649c-8.35 4.41-15.304 5.631-20.666 3.632-4.654-1.736-8.327-5.986-10.911-12.635-1.152-2.956-1.721-6.874-.51-8.314l1.33-1.584c8.455-10.062 17.199-20.467 27.099-29.38 1.53-1.379 2.979-1.966 4.317-1.734 2.719.465 4.712 4.12 6.168 6.788q.276.512.53.964c4.318 7.677 9.128 14.213 20.416 9.947 2.58-.97 6.277-1.074 8.2 1.832 12.715 19.255 31.267 28.713 56.494 28.712q5.984 0 12.475-.708c5.004-.545 7.516.423 10.333 3.973 10.298 12.962 17.829 20.566 25.846 21.073M666.089 707.416c4.543 1.368 6.366-2.14 7.696-4.702.89-1.717 1.894-3.428 2.865-5.083 2.898-4.94 5.894-10.046 6.418-16.1.62-7.197 6.368-8.766 11.909-9.354 5.415-.562 8.504 2.19 10.019 8.944 3.725 16.615 9.882 27.934 29.035 33.026 8.86 2.357 16.463 16.744 20.28 28.346.233.707.447 1.407.656 2.09 1.077 3.519 2.007 6.558 4.529 7.765 1.787.854 4.212.645 7.412-.639 1.979-.79 3.442-.928 4.476-.42 1.35.664 1.843 2.4 2.32 4.078.247.869.48 1.688.829 2.365 1.351 2.627 2.264 5.385 3.23 8.304 1.6 4.837 3.255 9.833 7.086 14.68-14.378 1.998-23.99-4.403-33.293-10.596-1.856-1.235-3.606-2.4-5.404-3.507-.473-.292-.962-.587-1.457-.889-6.615-4.014-14.848-9.013-13.844-19.869.137-1.502-.3-2.64-1.303-3.383-.904-.67-2.141-.922-3.466-.922-2.242 0-4.736.722-6.296 1.359-8.253 3.368-13.666 1.395-17.552-6.397-3.376-6.766-7.784-8.586-10.886-8.92-4.57-.499-9.434 1.88-13.03 6.346-3.371 4.183-6.302 6.24-8.96 6.29h-.097c-3.365 0-6.394-3.17-9.72-6.999-10.146-11.695-20.585-22.524-36.641-26.529-2.487-.616-4.663-2.935-6.767-5.178a84 84 0 0 0-1.42-1.49c-4.143-4.207-8.278-10.582-8.175-15.341.036-1.719.628-3.123 1.755-4.174h.001c6.106-5.682 20.14-10.513 27.015-5.54 2.448 1.771 5.443 3.146 8.611 4.601 8.696 3.993 17.688 8.122 15.582 20.974-.498 3.05 2.937 5.761 6.587 6.864M520.257 634.72c3.786 3.724 7.7 7.574 9.932 12.232a172 172 0 0 0 1.457 2.95c2.773 5.53 5.393 10.755 4.388 16.848-4.275 25.861 11.31 43.706 26.38 60.96q1.484 1.696 2.958 3.395c.609.7 1.298 1.371 1.968 2.02 2.029 1.973 3.944 3.836 3.614 6.337-.87 6.625.078 11.523 2.897 14.97 4.268 5.218 12.44 6.465 20.635 7.034 8.793.611 16.515 6.334 23.67 12.144q1.026.834 2.03 1.668c5.51 4.56 10.712 8.867 18.65 9.914 5.67.752 8.043 5.51 9.763 10.537 3.826 11.197 11.99 16.524 24.954 16.291 20.02-.365 37.367.988 53.043 4.135.749.151 1.51.29 2.276.428 2.873.52 5.842 1.058 8.229 2.375.719.394 1.509.781 2.318 1.18 4.21 2.064 8.563 4.2 7.139 8.872-1.181 3.885-7.34 4.11-12.294 3.612-8.902-.89-15.274 2.308-22.654 6.013l-1.422.712c-13.261 6.64-29.134 11.87-46.298.318-5.077-3.414-10.537-4.637-16.09-4.637-7.483 0-15.134 2.22-22.242 4.28a279 279 0 0 1-5.845 1.649c-8.736 2.325-13.072 2.424-17.303-2.989-2.645-3.38-5.435-6.446-10.446-6.835-8.897-.689-12.96-5.585-12.79-15.407.087-5.306.194-11.909-7.556-12.202-14.178-.53-18.018-10.07-21.731-19.296-.845-2.1-1.72-4.27-2.7-6.288-3.52-7.248-5.344-9.02-12.35-8.6l-.998.061c-3.825.246-7.78.499-10.674-2.677-.938-1.03-2.015-2.029-3.057-2.995-3.702-3.435-7.2-6.68-5.992-11.858 1.192-5.1 4.813-4.407 8.318-3.736 1.818.348 3.537.678 4.717.056l.11-.058.072-.104c2.914-4.29.56-8.72-1.716-13.005-1.877-3.534-3.65-6.87-2.322-9.832 1.353-3.019 5.878-5.43 13.834-7.375l2.144-.524-2.16-.45c-5.596-1.168-10.762-2.32-15.759-3.433-10.758-2.4-20.05-4.47-29.612-5.822-7.167-1.014-11.101-2.755-12.38-5.474-1.218-2.588-.224-6.334 3.128-11.79 4.182-6.803 5.196-14.577 2.856-21.886-2.493-7.793-8.668-14.27-16.94-17.77-1.114-.47-2.62-.605-4.076-.734-2.115-.187-4.302-.381-4.993-1.577-.462-.798-.279-2.1.543-3.872.936-2.019 1.413-4.399 1.875-6.7 1.31-6.524 2.547-12.684 13.139-13.033 11.488-.366 23.806-6.216 33.243-15.721-1.725 12.072 5.309 18.99 12.12 25.69m.72 193.198c-1.632 1.207-3.32 2.453-5.08 3.511-7.37 4.434-13.564 4.342-18.41-.274-4.776-4.54-1.779-8.014 1.69-12.038.49-.569.982-1.14 1.454-1.718 3.834-4.697 5.319-9.034 4.415-12.894-.985-4.207-4.816-7.853-11.385-10.836-5.49-2.495-8.211-6.953-10.15-10.986-12.65-26.303-30.973-42.875-56.016-50.663-7.554-2.349-10.202-7.708-8.332-16.87 1.303-6.43.78-10.898-1.651-14.057-2.238-2.909-6.104-4.618-11.79-5.204 3.206-1.589 6.46-3.085 9.622-4.538 14.329-6.585 29.134-13.389 40.289-29.625.029 3.745.153 7.175.264 10.249.262 7.271.469 13.015-.61 18.596-1.43 7.392.658 13.386 2.868 19.732.482 1.384.968 2.78 1.42 4.204 3.877 12.195 8.347 22.34 21.676 22.338 2.453 0 5.209-.345 8.314-1.082 2.4-.57 4.386-.312 5.904.773 2.144 1.531 3.469 4.766 3.938 9.615 2.103 21.49 13.916 29.068 33.124 38.996 10.052 5.197 14.028 13.09 17.53 21.402 1.212 2.88 1.134 5.491-.232 7.764-2.16 3.59-7.616 6.188-14.24 6.78-6.102.541-10.428 3.735-14.612 6.825m-116.186-49.94c1.802-3.238 5.712-5.467 11.953-6.813 5.665-1.222 8.97-2.65 12.796-4.304 2.49-1.076 5.065-2.188 8.62-3.39 3.497-1.182 6.563-1.775 9.248-1.775 4.31 0 7.64 1.53 10.207 4.62 2.485 2.992 4.733 5.47 6.716 7.657 4.69 5.171 7.523 8.294 7.053 11.19-.457 2.803-4.01 5.746-13.112 10.858-8.726 4.904-16.82 10.843-25.387 17.132-3.764 2.764-7.651 5.616-11.723 8.477-.858-6.845-4.665-11.7-8.352-16.403-2.711-3.457-5.272-6.722-6.68-10.68v-.002c-2.473-6.945-3.65-12.42-1.34-16.567m131.042 190.486c-14.35 6.943-29.186 14.122-33.963 31.374-.49 1.771-1.234 2.85-2.274 3.295-1.976.848-4.923-.718-7.293-1.979-3.57-1.894-6.394-1.683-7.952.59-.912 1.338-1.195 2.838-.817 4.334.442 1.75 1.759 3.34 3.524 4.259 4.086 2.117 7.483 5.49 10.77 8.75 6.604 6.553 13.433 13.323 26.374 11.139 3.962-.67 7.793.39 10.508 2.911 3.045 2.827 4.459 7.186 3.98 12.274-.167 1.776-.223 3.665-.279 5.491-.265 8.92-.517 17.345-12.102 18.852-16.154 2.104-21.149 12.884-25.978 23.311-2.488 5.371-5.061 10.926-9.15 15.113-.758.78-.02 3.081.224 3.77.52 1.462 1.065 2.236 1.62 2.301 2.822.318 5.812-.516 7.825-1.275 1.395-.525 2.843-1.505 4.245-2.45 2.2-1.487 4.478-3.028 6.355-2.656.905.177 1.691.784 2.406 1.851 3.436 5.14 2.631 12.934-1.87 18.132-.894 1.034-1.914 1.994-2.9 2.924-2.387 2.246-4.641 4.368-4.294 6.914.317 2.335 2.8 4.651 7.814 7.293 1.255.661 1.135 1.438 1.095 1.694-.466 2.967-8.119 7.408-13.156 8.294-8.117 1.442-13.796 5.65-19.81 10.105-3.985 2.954-8.107 6.007-13.007 8.171l-.7.308.563.517c5.909 5.425 9.806 4.009 13.244 2.755.478-.174.952-.347 1.42-.495 1.067-.338 2.184-.88 3.268-1.406 3.55-1.72 6.617-3.208 8.738.88 2.2 4.244-2.913 7.432-6.647 9.76l-.273.171c-3.777 2.357-9.485 5.922-6.484 11.442 1.853 3.42 5.762 2.57 9.21 1.822 1.144-.248 2.224-.483 3.21-.572 1.868-.168 3.716-.663 5.502-1.14 1.804-.484 3.668-.983 5.51-1.123 12.471-.957 20.984 1.022 26.015 6.044 4.694 4.688 6.583 12.224 5.774 23.043-.22 2.994-.16 6.03-.102 8.966.024 1.202.047 2.403.051 3.595-3.354.37-4.73-1.603-6.178-3.673-1.576-2.254-3.364-4.807-7.887-3.675l-.284.072-.077.283c-1.005 3.69.928 6.696 2.798 9.602 1.616 2.514 3.287 5.11 3.31 8.295-2.641.121-5.557-1.06-8.39-2.197-5.664-2.276-12.046-4.841-16.791 3.11-.666-4.7-2.538-10.023-4.508-15.626-1.38-3.92-2.807-7.975-4.005-12.262l-.399-1.427-.548 1.377c-2.492 6.274-6.577 14.139-11.875 15.982-2.041.708-4.145.454-6.255-.762-1.44-.83-2.897-1.443-4.182-1.984-4.084-1.72-6.55-2.759-4.372-8.302 2.924-7.441-2.177-16.61-5.901-23.305-1.3-2.335-2.42-4.351-2.883-5.76l-.158-.466-.442.1c-.456.1-.41.47-.34 1.029.884 7.1 1.519 23.908-11.62 26.629-4.692.972-5.78 1.307-8.404 2.117-4.5 1.382-6.621 4.851-9.078 8.867-1.312 2.145-2.78 4.543-4.788 6.89-3.601-39.308-3.8-69.4-.647-97.43.38-3.406 2.502-6.408 6.137-8.683 6.587-4.124 16.658-4.895 25.057-1.916 7.933 2.81 14.753 4.351 22.245 2.734 6.874-1.485 9.842-4.896 9.623-11.059l-.031-1.023c-.137-4.995-.279-10.159-7.755-10.82-10.007-.891-17.118-7.006-23.995-12.92-6.776-5.828-13.784-11.854-23.611-13.087-2.95-.364-3.191-4.515-3.195-5.777-.011-6.87-.007-13.74-.004-21.245l.002-11.693 1.11.756c7.326 5.001 13.113 8.95 20.367 11.195 12.748 3.938 21.563-.097 26.947-12.332 1.474-3.355 1.003-7.456-1.328-11.546-3.575-6.274-10.654-11.06-17.615-11.907l-.406-.05c-7.404-.899-12.753-1.549-13.579-10.107-.506-5.259-4.861-8.606-10.824-8.359-3.812.17-6.504-.531-8.24-2.14-1.94-1.8-2.835-4.774-2.993-9.943-.316-10.418 2.769-16.148 10.65-19.78 3.56-1.645 5.868-.144 8.314 1.444.908.59 1.847 1.202 2.865 1.66.905.41 1.839.863 2.79 1.326 6.424 3.124 14.42 7.01 19.333-1.13 4.553-7.53-2.534-12.71-8.227-16.872a124 124 0 0 1-2.337-1.736c-3.014-2.31-6.39-4.335-9.32-6.052-7.317-4.287-11.621-10.38-11.81-16.719-.17-5.814 3.16-11.306 9.382-15.463 4.83-3.226 7.243-6.102 7.587-9.052.44-3.754-2.48-7.237-6.05-11.077-6.43-6.91-12.58-13.948-19.09-21.401-2.737-3.132-5.517-6.315-8.38-9.555 35.657-6.344 65.168-9.6 92.545 8.754.757.508 1.8.808 2.81 1.099 1.466.421 2.984.857 3.399 1.867.296.72.055 1.784-.716 3.163-2.72 4.86-3.363 8.293-1.967 10.49 1.928 3.038 7.332 3.094 12.886 2.7l.254-.018c5.264-.378 10.236-.735 13.192 4.813 2.88 5.413 1.841 11.293-2.647 14.976-2.484 2.046-4.873 4.296-7.185 6.472-5.582 5.256-11.356 10.692-18.892 13.621-.81.314-1.798.53-2.755.737-2.133.463-4.15.902-4.737 2.427-.425 1.11.014 2.515 1.385 4.426.27.377.543.774.826 1.178 2.762 3.99 6.548 9.452 13.827 6.305 2.075-.896 3.959-2.206 5.783-3.474 1.63-1.134 3.317-2.307 5.109-3.154 3.255-1.534 5.915-1.836 8.13-.92 2.417.996 4.307 3.46 5.781 7.531 2.385 6.594 2.59 9.89-5.438 13.777Zm197.343 259.131c.634-9.758 1.288-19.848 2.194-29.747.293-3.205 1.153-5.303 2.626-6.415 1.139-.86 2.687-1.111 4.604-.75 1.827.344 3.033 1.023 3.688 2.074 1.16 1.866.368 4.711-.27 6.997l-.072.261c-2.633 9.5-5.56 19.1-8.393 28.382a3136 3136 0 0 0-3.206 10.556q-.948-.23-1.891-.455c.248-3.634.483-7.269.72-10.903m66.496 27.673c-1.981.47-4.577-1.591-6.867-3.411-1.141-.908-2.22-1.764-3.164-2.263-8.45-4.458-17.378-4.492-26.013-4.524-2.4-.008-4.883-.017-7.308-.122-5.412-.24-8.377-1.2-9.614-3.115-1.197-1.851-.899-4.86.938-9.467 7.347-18.457 16.933-25.625 35.366-26.448l.12-.02c17.168-5.13 26.063 7.977 31.261 18.28 3.57 7.08-1.183 13.143-6.213 19.561-2.332 2.975-4.742 6.05-6.212 9.212-.623 1.34-1.373 2.1-2.294 2.317m459.926-14.41c2.05-2.17 6.464-1.56 11.136-.914.724.099 1.454.2 2.275.294.86-.053 1.808-.102 2.817-.156 2.296-.12 4.9-.255 7.502-.487 2.284-.204 4.649-1.113 6.937-1.993 4.944-1.9 9.61-3.697 13.467 1.171 1.203 1.518 2.484 3.034 3.724 4.499 6.163 7.284 12.536 14.818 12.03 25.934-1.12 24.877-16.3 40.921-41.646 44.015-5.07.612-6.878-.745-7.773-5.826-2.393-13.556-5.13-27.284-7.774-40.562-1.202-6.027-2.404-12.053-3.578-18.085-.756-3.882-.467-6.463.883-7.89m256.994 40.31c-1.241-.587-2.36-2.36-2.662-4.214-1.646-10.184-1.803-10.472-8.393-15.413l-.663-.498-.275.512c-2.59 4.82-4.302 8.005-5.644 8.073-1.216.104-2.816-2.251-5.374-6.034-1.905-2.815-3.89-2.438-5.81-2.072-.443.085-.902.172-1.38.226-4.17.47-7.092-.226-8.226-1.956-1.03-1.57-.639-4.027 1.132-7.104 1.825-3.17 2.195-5.93 1.098-8.205-1.925-3.988-7.805-5.161-9.562-5.427-2.543-.38-4.13-.12-4.993.822-1.132 1.24-.63 3.309-.144 5.309.344 1.412.699 2.873.438 3.888-1.466 5.726-4.208 12.095-7.026 13.416-.691.324-1.352.33-2.017.012-2.437-1.16-5.885-.707-9.224-.264-4.015.526-8.166 1.074-10.458-1.143-1.707-1.649-2.317-4.697-1.865-9.32.23-2.336-.566-4.505-2.131-5.8-1.178-.977-3.334-1.918-6.915-.866-.878.264-2.966-.344-3.686-.654.882-8.318-4.992-10.156-10.182-11.78-3.625-1.134-7.048-2.206-8.554-5.131-.847-1.648-1.842-3.229-3.386-3.635-.993-.264-2.054-.006-3.252.78-1.255.816-2.822 2.163-3.16 3.938-.207 1.093.075 2.195.841 3.27 2.452 3.447 3.263 6.023 2.48 7.875-.88 2.082-3.81 3.403-9.504 4.28-2.803.438-11.339 1.766-10.303 10.445.674 5.61 4.925 6.254 9.036 6.877.745.113 1.5.227 2.25.372 6.456 1.237 11.015 4.412 12.841 8.94 1.726 4.278.79 9.307-2.637 14.16-7.156 10.127-28.597 16.827-41.72 13.034-5.082-1.47-5.604-4.68-5.788-9.053-.067-1.562-.162-3.131-.257-4.703-.307-5.053-.624-10.28.062-15.266 1.424-10.406-.303-18.303-13.37-23.022-4.388-1.582-7.433-4.332-8.573-7.74-1.176-3.507-.349-7.575 2.388-11.764.807-1.234 1.398-2.596 1.97-3.913.445-1.023.905-2.082 1.457-3.052 7.092-12.447 9.005-20.422 6.2-25.86-2.96-5.736-11.042-8.868-27.023-10.473-12.371-1.245-24.356 1.093-35.947 3.352-8.079 1.575-16.434 3.203-24.802 3.584-1.792.082-3.674.24-5.67.407-10.174.859-21.698 1.825-23.866-7.697-.966-4.235-3.147-8.391-5.457-12.793-5.563-10.6-11.315-21.562 1.772-33.142 1.78-1.575 3.623-4.63 3.533-7.196-.044-1.263.102-2.663.256-4.144.474-4.547 1.013-9.7-4.47-11.31-1.413-.414-2.74-.232-3.942.544-2.966 1.915-4.404 7.023-4.784 9.738-1.977 13.963-12.073 19.723-22.762 25.822-3.038 1.731-6.178 3.524-9.058 5.5-.685.468-1.6.764-2.485 1.05-2.112.685-4.508 1.458-4.26 4.804.348 4.613 4.599 6.528 8.691 6.39 10.826-.38 12.788 5.49 15.038 12.28.692 2.084 1.406 4.238 2.408 6.325 2.215 4.612 4.036 9.596 5.797 14.416 4.908 13.436 9.983 27.327 24.283 35.881 5.159 3.082 8.028 7.917 9.03 15.214.622 4.565 1.19 9.22 1.736 13.72 1.046 8.582 2.126 17.454 3.65 26.115.81 4.603.355 7.931-1.395 10.177-1.871 2.401-5.235 3.7-10.584 4.088-18.494 1.338-36.257 1.383-50.267-12.555-.766-.763-2.745-1.235-3.881-1.235q-.149 0-.274.01c-.248.021-.599.08-.794.356-5.984 8.505-14.31 7.325-22.363 6.19-2.497-.353-5.082-.718-7.51-.77-1.425-.024-2.994.294-4.666.637-3.282.672-6.67 1.368-9.351-.41-2.053-1.36-3.452-4.017-4.276-8.122-.362-1.808-1.995-3.55-4.72-5.036-6.238-3.402-17.755-5.143-24.956-2.307-6.796 2.684-13.88 2.624-20.73 2.564-7.072-.062-14.383-.122-21.356 2.839-1.783.755-3.776 1.137-5.885 1.54-3.025.58-6.154 1.18-9.054 2.947-4.66 2.846-9.514 1.808-14.658.708-1.566-.335-3.186-.682-4.821-.92-14.42-2.09-20.659-9.841-23.094-14.274-2.957-5.386-3.442-11.452-1.296-16.228.703-1.565-.338-3.32-1.345-5.016-.78-1.312-1.583-2.668-1.525-3.822.317-6.165 1.958-10.924 5.322-15.428.514-.688 1.145-1.355 1.813-2.062 2.284-2.416 4.875-5.154 2.548-9.114-3.572-6.087-10.53-7.983-15.839-7.157-10.678 1.655-21.202 4.948-31.067 8.18-.622.204-1.251.421-1.885.64-4.574 1.578-9.308 3.214-12.692-.02-2.818-2.696-.418-5.717 2.516-8.836.268-.283.52-.55.747-.802.92-1.018 8.966-10.003 7.86-12.112l-.168-.24-.2-.06c-.554-.173-1.67.372-4.695 1.98-1.829.971-5.147 2.762-6.037 2.72.14-.94 2.65-4.245 4.178-6.256 2.636-3.47 3.227-4.338 2.98-4.905l-.206-.476-.466.225c-1.683.8-11.07 8.713-12.223 9.848-2.96 2.92-6.757 4.887-10.428 6.788-3.668 1.901-7.462 3.866-10.49 6.798-2.654 2.582-5.015 5.278-4.32 7.506.474 1.518 2.26 2.518 5.465 3.056 6.708 1.129 11.577 4.604 14.47 10.332 5.6 11.09 2.117 27.544-.894 33.491l-.32.634c-1.285 2.563-2.301 4.587-4.096 5.088-1.482.417-3.563-.242-6.365-2.002-10.453-6.556-30.198-24.024-36.054-34.719-3.028-5.523-5.558-11.402-8.005-17.086-4.933-11.466-10.037-23.322-19.525-33.099-2.36-2.425-2.532-6.686-.471-11.689 2.663-6.472 7.928-11.6 11.986-11.673l.72-.013-.264-.67c-10.687-27.143-36.537-29.52-61.536-31.82l-.97-.09c-22.088-2.028-39.855-9.976-54.298-24.292 3.409-2.726 6.588-2.366 9.668-2.017 1.574.178 3.058.349 4.547.123 1.195-.18 2.47-.21 3.818-.242 3.77-.089 7.669-.182 9.719-3.725 2.793-4.835-.78-7.226-3.933-9.334-.947-.634-1.841-1.232-2.59-1.89-2.16-1.901-3.341-3.73-3.328-5.148.007-.759.346-1.41 1.034-1.993 2.817-2.39 4.479-4.16 4.066-5.61-.369-1.286-2.148-2.009-6.564-2.664-.526-.079-.877-.361-1.072-.866-.478-1.233.111-3.442 1.317-4.924 4.085-5.047 8.318-8.413 15.719-8.277 2.13.03 4.314.727 6.629 1.465 5.236 1.667 11.175 3.56 16.518-3.553l.555-.739-17.46-1.127c2.41-2.3 5.03-4.358 7.57-6.353 6.98-5.48 14.197-11.147 16.938-21.944l.403-1.583-8.399 7.495a4033 4033 0 0 1-12.544 11.174l-.12.106c-3.115 2.76-6.639 5.88-10.139 5.604-1.87-.152-3.606-1.24-5.303-3.326-4.13-5.07-.139-8.723 4.087-12.59q.52-.473 1.028-.945c.832-.779 1.876-1.375 2.981-2.007 2.631-1.505 5.612-3.21 6.274-7.922l.092-.658-.658.092c-2.172.308-4.84 1.572-7.422 2.793-3.981 1.887-8.097 3.838-10.165 2.245-1.813-1.396-2.087-5.585-.814-12.454l.218-1.175-.991.671c-7.901 5.364-5.903 11.206-3.786 17.388 4.66 13.666 2.643 23.32-6.35 30.384-1.381 1.089-2.194 3.215-2.912 5.091-.638 1.666-1.297 3.388-2.111 3.595-.34.086-.777-.1-1.298-.549-1.558-1.34-3.402-2.54-5.184-3.7-4.33-2.819-8.808-5.733-10.026-11.042-1.308-5.738.207-9.56 4.5-11.353 7.343-3.06 8.7-9.009 10.011-14.76.664-2.917 1.353-5.93 2.837-8.462l-.812-.575a1276 1276 0 0 0-4.25 5.055c-3.467 4.14-7.053 8.421-10.71 12.517q-.31.352-.632.724c-1.836 2.125-3.734 4.319-6.759 3.124-2.732-1.076-3.611-3.53-4.143-7.144-1.101-7.382-.742-15.278 9.26-22.995l1.293-.996-1.63.102c-5.861.365-8.994 3.062-11.756 5.44-1.036.892-2.022 1.74-3.104 2.444-1.524-3.569.096-5.868 1.805-8.295 1.165-1.654 2.37-3.365 2.284-5.408l-.033-.793-.7.373c-6.536 3.467-10.15 6.962-11.373 11-1.132 3.737-.292 8.014 2.643 13.46 2.345 4.342 5.28 8.477 8.116 12.476a478 478 0 0 1 2.226 3.154c.476.684 1 1.349 1.508 1.993 1.402 1.778 2.728 3.46 2.269 4.65-.44 1.138-2.548 2.028-6.266 2.65-1.67.278-2.77 1.02-3.266 2.206-1.178 2.81 1.49 7.103 2.692 8.819 4.76 6.813 2.99 12.707-1.133 19.46-9.381 15.35-11.854 32.602-14.245 49.286-.771 5.375-1.567 10.932-2.583 16.335-1 5.29 1.46 10.005 3.837 14.563q.487.928.957 1.851c8.132 16.126 10.863 33.198 8.349 52.195-.59 4.447-1.856 7.06-3.871 7.984-2.107.968-5.167.11-9.346-2.623-1.236-.808-2.42-1.73-3.565-2.624-3.274-2.55-6.658-5.19-11.74-5.603-5.243-.407-15.557 2.28-19.155 7.288-2.124 2.945-5.168 3.083-8.11 2.965-10.28-.387-22.208-.916-33.682-2.337-1.648-.207-1.915-1.553-2.214-3.728-.306-2.223-.687-4.988-3.916-5.68l-.181-.037-.163.087c-2.739 1.486-1.853 4.396-1.072 6.963.54 1.77 1.05 3.445.334 4.347-.574.726-2.003 1.019-4.247.876-1.685-.107-3.667.442-5.769 1.024-3.255.901-6.62 1.833-8.793.253-1.582-1.152-2.43-3.537-2.59-7.293-.112-2.533-2.007-2.743-3.84-2.945-.33-.037-.676-.074-1.029-.126-11.725-1.68-19.066 3.915-25.249 10.216-1.532 1.56-2.95 3.36-4.322 5.101-4.482 5.688-9.116 11.567-18.946 11.156.512-3.255 1.004-6.479 1.492-9.68 1.203-7.88 2.339-15.323 3.693-22.883 1.136-6.36 4.309-11.268 9.178-14.197 6.099-3.673 14.45-4.09 23.515-1.178 3.779 1.215 7.487 2.966 11.076 4.66 9.597 4.53 19.52 9.213 32.591 4.889 7.97-2.631 7.033-6.901 6.206-10.67-.527-2.396-1.024-4.66.492-6.597 1.126-1.447 1.453-2.662.972-3.613-1.008-1.992-5.024-2.05-9.053-1.936l-.299.008c-5.408.178-8.784-2.359-12.323-5.406-2.708-2.332-5.261-4.957-7.731-7.496-6.764-6.957-13.76-14.15-24.892-16.441-3.997-.82-5.664-5.72-7.135-10.044l-.232-.68a242 242 0 0 1-1.294-3.937c-2.394-7.429-4.87-15.11-11.144-20.8-6.985-6.334-3.769-13.555-1.228-17.296 1.457-2.15 3.334-3.407 5.58-3.735 3.19-.467 7.243 1.016 10.85 3.965 7.977 6.51 17.525 9.026 26.759 11.458 1.455.385 2.91.769 4.365 1.168 5.087 1.399 9.394-.062 11.806-4.012 2.383-3.889.358-8.184-2.755-10.249-6.285-4.184-10.81-10.125-15.185-15.87-5.257-6.909-10.695-14.05-19.294-18.442-4.876-2.487-8.323-6.526-11.974-10.803-4.095-4.8-8.332-9.763-14.854-12.608-4.998-2.17-3.554-10.51-2.034-16.595 1.453-5.84 5.08-5.559 9.277-5.234 1.012.08 2.06.162 3.062.14 1.583-.03 3.193-.128 4.753-.225 6.408-.393 12.462-.768 17.938 3.196l.399.288.294-.395c3.417-4.594.99-7.224-1.151-9.544-1.43-1.55-2.784-3.016-2.65-5.024 5.81-2.64 10.198 1.866 13.116 4.862l.575.586c8.137 8.237 15.157 4.899 21.946 1.668 2.312-1.1 4.702-2.237 7.072-2.858 1.658-.438 3.336-3.625 3.178-5.375-.246-2.678-3.041-2.72-5.287-2.754l-.244-.004c-19.096-.279-33.34-9.91-42.338-28.623-4.139-8.625-8.193-15.306-19.392-16.347-4.129-.384-7.29-2.012-8.673-4.466-1.19-2.114-1.064-4.792.37-7.744l.191-.397c1.44-2.98 2.927-6.06 5.555-6.643 2.096-.464 4.751.653 8.13 3.412 4.033 3.29 9.784 3.193 15.874 3.09 4.142-.072 8.427-.144 12.284.886 1.54.413 2.721.216 3.51-.582 1.367-1.383 1.394-4.472.077-9.185-.385-1.373-1.005-2.805-1.604-4.189-1.36-3.144-2.77-6.398-1.58-9.226.905-2.154 3.22-3.92 7.077-5.4l1.316-.505-1.34-.437c-6.22-2.03-11.937-1.29-17.463-.577-5.924.766-11.521 1.49-17.203-1.284-10.131-4.954-14.617-12.245-14.118-22.947.156-3.29.591-6.532 2.69-7.95 1.559-1.055 4.015-1.01 7.3.132 7.379 2.577 13.53.917 17.796-4.802 2.644-3.542 7.226-3.841 11.365-3.664 5.829.238 11.555.226 17.617.207 12.694-.034 25.805-.07 40.199 2.36-9.82 5.548-19.658 7.551-30.048 9.666-5.545 1.13-11.28 2.297-17.384 4.052l-2.102.606 2.156.369c7.56 1.29 14.69 1.487 21.584 1.678 11.167.308 21.734.601 32.31 5.572-7.356 3.423-14.552 4.362-22.153 5.353-6.644.866-13.512 1.762-20.717 4.432l-1.488.553 1.535.4c7.045 1.84 13.51 1.9 19.762 1.957 8.156.076 15.879.147 23.815 4.245-9.359 3.002-16.365 4.834-25.313 3.772l-1.11-.131.64.915c4.163 5.942 9.405 6.352 14.033 6.716l.615.048c6.976.577 13.298 3.418 16.91 7.597 6.179 7.141 12.232 13.479 18.314 12.59 4.457-.65 8.537-5.207 12.47-13.933 1.658-3.677 5.516-3.462 9.99-3.209 3.254.183 6.617.372 9.455-.978l.479-.227-.256-.465c-1.141-2.08-3.127-3.448-5.048-4.774-2.737-1.889-5.33-3.678-5.648-7.38 12.47 1.433 24.765-.825 36.66-3.009 5.057-.928 10.285-1.886 15.485-2.56l4.6-.595-4.621-.399c-14.787-1.277-29.255-4.983-43.248-8.567a1301 1301 0 0 0-9.25-2.346c5.227-1.476 10.558-2.084 16.165-2.721 8.07-.92 16.414-1.87 24.719-5.621l1.049-.475-1.064-.442c-8.153-3.394-16.636-2.492-24.84-1.62-9.774 1.038-19.017 2.023-27.33-3.932 16.667-8.063 78.838-14.007 120.759-11.47-.25 4.423-3.312 6.05-7.157 8.09-3.096 1.642-6.604 3.503-9.471 7.215l-1.077 1.394 1.649-.62c15.547-5.847 28.383-.731 40.798 4.217 10.594 4.222 21.55 8.59 33.907 5.866l.754-.165-.46-.62c-1.744-2.35-4.433-3.504-7.033-4.619-3.207-1.375-6.519-2.795-8.232-6.494 15.183-2.837 27.79-1.929 38.518 2.77 9.96 4.374 19.53 4.544 30.115 4.323 17.976-.393 35.619-.319 54.296-.243 7.14.03 14.332.06 21.596.063-2.135 2.99-5.135 3.771-8.297 4.596-1.971.514-4.011 1.045-5.883 2.142l-.957.56 1.053.346c4.881 1.607 9.654 3.76 14.27 5.843 12.596 5.684 25.624 11.563 41.572 6.403l.44-.143-.109-.45c-.412-1.716-2.201-1.94-3.78-2.139-2.07-.26-3.234-.495-3.092-2.31.21-2.72 1.858-2.86 4.528-2.865 2.047-.004 4.366-.008 4.957-2.476.241-1.002-.25-2.08-.726-3.123-.473-1.034-.919-2.014-.549-2.654.366-.63 1.538-1.047 3.489-1.235 4.777-.46 9.44-1.333 14.378-2.256 2.178-.408 4.391-.82 6.656-1.206l.645-.11-.274-.593c-1.701-3.677-4.603-3.846-7.162-3.995-.93-.053-1.81-.105-2.59-.317-2.398-.648-4.9-.936-8.068-1.3a287 287 0 0 1-3.707-.446c7.533-3.932 15.275-4.327 23.446-4.743 7.958-.405 16.188-.825 24.663-4.629l1.476-.662-1.592-.286c-4.63-.832-8.861-1.24-12.953-1.637-7.661-.74-14.312-1.384-20.399-4.615 6.19-4.966 13.878-4.558 20.622-3.481 9.294 1.49 18.84 2.106 28.07 2.702 14.014.903 28.504 1.837 42.354 5.86 15.11 4.385 30.37 2.25 45.128.183 6.332-.887 12.88-1.803 19.312-2.187 9.926-.595 19.837-1.57 30.33-2.605 4.389-.432 8.884-.875 13.534-1.304-5.703 4.75-12.01 5.238-19.244 5.8-4.13.32-8.401.651-12.917 1.821l-1.612.418 1.574.54c15.944 5.462 30.62 5.816 44.813 6.157 6.983.17 13.61.328 20.247 1.07-7.606 3.031-15.62 3.647-24.066 4.297-6.255.481-12.72.98-19.074 2.54l-.755.185.482.61c2.774 3.524 6.45 3.779 10.005 4.025 3.64.253 7.084.491 9.341 4.296-4.218 1.89-8.792 1.934-13.623 1.981-5.972.058-12.147.118-18.18 3.703l-1.005.597 1.128.314c5.9 1.644 11.863 1.955 17.629 2.256 8.078.421 16.418.856 24.812 4.96l-31.988 10.023 1.886.39c15.589 3.225 29.795 2.056 43.533.927 9.224-.759 17.955-1.476 27.069-.971-3.09 3.904-6.881 4.057-10.556 4.203-2.582.103-5.02.2-7.079 1.563l-.284.188.072.333c.379 1.782 2.022 2.295 3.473 2.748 1.79.56 2.793.955 2.59 2.591-.346 2.815-2.795 2.87-5.726 2.658-6.178-.453-11.826.98-17.804 2.499-2.576.654-5.237 1.33-7.965 1.85l-1.498.285 1.377.657c.537.256.996.524 1.401.76.794.463 1.426.813 2.107.798 17.97-.859 32.71 7.72 46.967 16.007l1.133.66c11.36 6.605 11.727 6.555 19.7-2.762.83-.972 2.171-1.248 3.591-1.54 2.328-.478 4.964-1.02 5.74-4.808l.065-.315-.263-.188c-3.437-2.493-7.119-5.164-12.438-9.025l-.402-.293h25.489l-.684-.82c-.88-1.056-1.983-2.13-3.05-3.168-1.953-1.9-4.167-4.056-3.73-5.13.262-.642 1.643-1.407 6.744-1.407 20.43-.01 40.86-.01 62.668-.009l20.572.001c-10.306 4.297-20.738 6.029-30.847 7.707-8.96 1.489-18.224 3.026-27.16 6.349l-2.103.781 2.236.186c4.728.391 8.912 2.037 12.959 3.628 6.293 2.474 12.25 4.818 19.85 2.685-2.403 5.893-6.483 6.041-10.79 6.198-2.328.085-4.736.173-6.707 1.318l-.549.32.438.457c1.544 1.615 3.652 2.214 5.69 2.794 2.53.721 4.931 1.406 6.552 3.842l-5.45.674c-3.21.398-6.389.792-9.736 1.203l-.67.082.274.616c1.733 3.91 5.197 4.897 8.548 5.851 2.932.836 5.708 1.625 7.418 4.255-4.351 2.847-9.553 3.947-15.051 5.11-5.161 1.09-11.014 2.327-16.935 5.202l-1.16.564 1.237.365c4.784 1.41 9.324 1.638 13.716 1.856 6.703.337 12.508.625 17.187 5.101-1.978 3.656-5.43 5.997-9.078 8.472-4.233 2.873-8.61 5.843-10.979 11.127l-.24.536.567.152c11.093 2.96 19.61-2.131 27.846-7.053 7.294-4.36 14.178-8.478 22.802-7.58l2.713.284-2.437-1.227-2.954-1.495q-1.933-.982-3.871-1.957c-3.653-1.82-7.676-4.466-6.345-8.812 1.275-4.154 5.697-4.36 10.505-4.198 2.68.091 5.427.314 8.082.53 8.953.726 18.208 1.477 27.977-2.27l.75-.288-.588-.546c-4.802-4.459-9.07-3.093-12.833-1.885-1.58.504-3.07.982-4.537 1.042-7.758.317-12.558-1.97-14.286-6.794-.556-1.558-.61-2.674-.165-3.413.658-1.091 2.48-1.352 4.244-1.605 1.865-.268 3.794-.543 4.787-1.806 4.736-6.027 11.637-7.5 18.945-9.06 5.6-1.194 11.39-2.43 16.432-5.827l.99-.668-1.17-.237c-4.268-.868-8.5-1.15-12.592-1.423-6.926-.464-14.076-.942-21.68-4.273 13.866-4.327 27.555-4.164 40.8-4.014 8.633.101 17.556.206 26.566-.9l2.228-.274-2.134-.697c-4.621-1.514-9.106-1.774-13.443-2.024-5.911-.342-11.508-.668-16.642-4.183 4.916-3.61 10.343-3.628 15.599-3.645 1.7-.007 3.46-.012 5.15-.144 7.783-.615 15.71-1.105 23.375-1.577 9.826-.606 19.986-1.231 29.953-2.13 5.619-.505 8.977.167 10.267 2.06 1.296 1.902.644 5.207-2.115 10.716-3.063 6.115-8.34 8.938-15.86 11.513-10.834 3.7-20.622 10.135-29.918 19.67l-.806.826 1.153.022c5.134.103 10.183 1.24 15.066 2.34 8.216 1.85 16.712 3.761 25.534.621 2.26-.802 3.904-.845 4.89-.132 1.417 1.024 1.56 3.562 1.503 6.15-.263 12.741-8.6 21.135-25.488 25.665-9.153 2.457-13.957 8.832-18.602 14.997-4.004 5.313-7.784 10.331-14.133 12.965-1.39.576-2.045 3.043-1.661 4.702.334 1.45 1.355 2.24 2.832 2.14 3.38-.206 6.962.77 10.427 1.71 7.58 2.06 15.42 4.188 22.456-5.023 5.204-6.81 13.877-9.095 24.429-6.433 6.14 1.55 7.213 5.704 6.937 11.466-.498 10.365-1.817 19.309-12.97 23.779-5.361 2.146-10.713 4.543-15.887 6.862-4.85 2.175-9.864 4.422-14.872 6.455-5.29 2.145-7.749 6.619-10.126 10.944-2.452 4.462-4.988 9.077-10.675 11.357-1.614.651-1.704 1.64-1.614 2.17.376 2.227 5.178 4.534 8.623 4.697 9.975.49 19.339-2.252 28.4-4.897 6.131-1.79 12.473-3.642 18.91-4.46 1.383-.176 2.825-.732 4.218-1.272 3.235-1.25 6.288-2.43 8.658.879 2.491 3.482.017 6.914-2.375 10.233a54 54 0 0 0-1.262 1.8c-8.328 12.626-17.767 26.936-36.083 33.24-9.31 3.207-16.602 11.23-20.534 22.589l-.149.428.412.19c4.557 2.096 7.544.212 10.178-1.452 1.367-.863 2.657-1.679 4.093-1.947.964-.178 1.986-.436 2.977-.685 4.543-1.145 8.834-2.224 10.898 2.377 1.22 2.72 1.089 6.1-.343 8.822-1.246 2.371-3.294 3.928-5.765 4.38-9.456 1.73-12.524 8.484-15.493 15.015-2.404 5.293-4.677 10.292-10.131 12.792-.355.166-.469.587-.524.889-.17.926-.058 3.095.756 3.935 2.967 3.05 6.615 2.027 9.461.798 2.64-1.139 5.27-2.299 7.901-3.457 7.033-3.1 14.304-6.304 21.623-9.043 11.263-4.213 18.629-4.72 23.188-1.602 4.345 2.97 6.435 9.384 6.578 20.18.064 4.64 1.178 8.976 2.255 13.17.79 3.072 1.606 6.248 1.968 9.445.54 4.781.426 9.557.295 15.087-.055 2.35-.113 4.772-.125 7.35-6.953-3-13.813-3.255-20.457-3.502-6.357-.236-12.363-.458-18.09-3.02-2.085-.928-7.315-.817-8.309.823-7.584 12.462-17.352 9.857-27.697 7.102-7.3-1.946-14.85-3.957-21.452-.124-.495.286-1.036.294-1.613.02m204.036-5.72-.592-.69-.265.87c-2.096 6.884 1.005 11.049 3.74 14.723 1.108 1.485 2.152 2.89 2.828 4.398 2.553 5.66 1.84 9.065-2.388 11.388-1.817.996-5.314 2.529-8.322 1.569-1.57-.5-2.793-1.631-3.635-3.363-8.014-16.526-20.1-26.697-36.947-31.098-1.498-.392-2.823-1.41-4.227-2.486-.65-.499-1.32-1.013-2.008-1.46l-1.186-.767.438 1.343c2.935 8.968.39 14.85-4.995 21.98l-.428.565c-2.108 2.793-4.098 5.43-6.313 5.697-1.028.119-2.06-.264-3.175-1.177-2.171-1.774-5.21-2.166-8.15-2.544-5.144-.663-9.587-1.234-9.767-8.275l-.147-5.612c-.371-14.252-.754-28.988-1.23-43.48-.22-6.6 1.615-10.577 5.95-12.9 3.59-1.93 6.015-.08 8.582 1.879 1.136.867 2.312 1.763 3.61 2.342 2.313 1.037 4.59 2.168 6.792 3.264 10.689 5.311 20.785 10.327 35.94 5.79 12.506-3.755 23.668-2.217 31.432 4.323 7.763 6.542 11.327 17.614 9.774 30.377a214 214 0 0 1-.442 3.272 239 239 0 0 0-.389 2.84c-.186 1.42.255 3.014.68 4.553.546 1.977 1.062 3.845.285 5.165-.484.823-1.451 1.4-2.96 1.766-2.958.721-3.964-1.634-5.131-4.353-.614-1.43-1.25-2.907-2.223-3.942-.848-.91-1.668-1.88-2.803-3.223a428 428 0 0 0-2.328-2.734m13.749-302.573q-1.568.85-3.147 1.694c-14.413 7.736-29.315 15.735-34.688 33.139-.841 2.721-2.338 4.554-4.33 5.298-2.147.803-4.786.288-7.641-1.485q-.36-.223-.736-.462c-2.01-1.277-4.285-2.725-6.446-2.147-1.203.321-2.22 1.258-3.021 2.786-1.778 3.378-.23 6.566 4.6 9.472a291 291 0 0 0 2.562 1.514c6.938 4.07 13.495 7.916 16.621 15.937 1.732 4.445 5.701 4.017 9.54 3.605 1.254-.134 2.546-.276 3.73-.23 1.468.054 3.006.066 4.495.078 10.044.077 20.43.157 22.886 12.856 4.546 23.466-.653 33.687-19.18 37.716-13.663 2.968-21.337 9.859-23.459 21.066-1.078 5.692-4.3 9.715-7.712 13.974-1.097 1.37-2.232 2.786-3.276 4.25l-.339.473c-1.752 2.435-3.933 5.466-.859 8.415 3.145 3.007 6.224.894 8.942-.969l.219-.15c.796-.544 1.63-1.157 2.492-1.788 5.1-3.74 10.88-7.978 14.832-3.234 4.293 5.157 3.867 14.66-1.014 22.595-.873 1.418-2.625 2.847-4.32 4.227-2.822 2.302-5.741 4.683-5.32 7.5.382 2.562 3.426 4.924 9.575 7.434 1.124.458 1.563 1.454 1.303 2.96-.645 3.754-5.481 9.267-9.139 9.435-12.28.56-21.099 6.765-29.627 12.766-2.714 1.91-5.52 3.887-8.399 5.65-4.854 2.978-11.677 2.861-17.8-.305-5.705-2.95-9.318-7.816-9.664-13.018-.216-3.295.774-5.731 2.788-6.86.805-.452 1.737-.673 2.734-.673 1.73 0 3.661.667 5.476 1.95 7.585 5.342 13.466 5.314 17.478-.089 4.308-5.796 2.883-13.092-3.632-18.589-14.304-12.044-18.4-28.75-20.369-41.96-.088-.593-.155-1.192-.222-1.788-.39-3.493-.793-7.104-5.7-8.663-.811-.257-1.74-.426-2.723-.606-2.168-.393-4.41-.802-5.14-2.157-.425-.784-.332-1.867.28-3.306 1.302-3.053 4.92-2.45 8.423-1.862 1.066.176 2.073.345 2.996.405 2.265.15 4.569.525 6.797.89 5.602.913 11.398 1.856 17.27-.625.782-.33 1.828-.437 2.84-.54 2.284-.236 5.127-.526 4.968-3.886-.117-2.564-3.14-5.746-5.872-7.226-3.028-1.636-6.005-3.507-8.884-5.315-8.118-5.1-16.513-10.373-27.203-11.194-3.974-.308-6.765-1.515-8.536-3.693-2.134-2.625-2.764-6.656-1.985-12.685.548-4.2 2.213-7.41 4.818-9.283 2.612-1.879 6.184-2.438 10.326-1.624 10.16 2.005 19.896.161 29.309-1.621l.6-.113-.23-.567c-5.108-12.572-11.793-19.12-22.357-21.895-3.436-.903-6.556-3.36-9.574-5.739-.724-.57-1.44-1.135-2.154-1.673-4.73-3.573-6.018-6.627-4.18-9.904 1.834-3.274 4.503-2.19 7.59-.938.582.236 1.16.47 1.726.668 4.329 1.512 8.64 2.413 13.788-3.09l.643-.687-.93-.149c-3.807-.607-6.977-2.312-10.043-3.962-4.208-2.263-8.18-4.399-13.574-3.893-3.501.337-5.75-.075-7.087-1.287-.995-.904-1.48-2.257-1.484-4.135-.006-4.13 2.383-6.605 7.52-7.787 8.72-2.005 17.997-2.34 30.086-1.083l1.456.15-1.057-1.01c-2.232-2.129-4.916-3.855-7.513-5.524-7.191-4.621-13.403-8.614-9.342-19.54.597-1.612.193-3.219-1.082-4.3-1.793-1.522-4.651-1.537-7.28-.04-5.63 3.197-11.603 2.145-15.224-2.673-3.473-4.621-3.516-10.99-.113-17.038.46-.817 1.47-1.864 2.283-2.703 1.256-1.302 1.83-1.895 1.41-2.44-3.635-4.653-4.966-8.075-4.07-10.462 1.278-3.406 7.02-4.507 13.098-5.67 1.015-.196 2.04-.392 3.052-.6l1.869-.386-1.82-.58c-3.073-.98-6.37-1.36-9.558-1.73-8.52-.984-15.875-1.834-17.723-12.885-.493-2.966-4.513-2.77-8.41-2.577-1.46.072-2.84.14-3.976.04-3.12-.276-6.302-.435-9.38-.588-7.737-.385-15.736-.784-23.264-3.087l.006-3.774h123.228l.08-.4c1.195-5.894-1.56-7.37-4.75-9.08-1.072-.573-2.253-1.206-3.409-2.064 3.62-.073 7.232-.42 10.737-.755 7.677-.735 14.3-1.368 17.034 1.336 8.15 8.067 17.18 9.577 26.742 11.178 3.036.507 6.177 1.033 9.274 1.785 2.591.63 4.412 2.813 5.13 6.152 1.26 5.858-1.167 14.822-7.407 19.678-2.73 2.125-5.38 4.47-7.945 6.74-8.543 7.56-17.379 15.38-30.964 16.758l-.918.093.58.72c5.5 6.8 10.17 12.037 15.984 12.478 3.806.293 7.85-1.546 12.31-5.615 2.636-2.406 9.58-7.442 17.159-2.244 6.29 4.31 7.41 12.004 7.706 17.417.244 4.488-3.667 5.971-7.806 7.54-1.487.564-3.026 1.148-4.384 1.882m119.178 270.184c1.79-1.284 3.82-2.743 2.803-6.705l-.119-.466-.47.101c-11.223 2.4-20.911-1.026-28.803-10.18-5.893-6.846-13.522-12.486-20.9-17.94-14.569-10.772-29.632-21.909-31.734-42.793-.14-1.354-1.77-2.567-3.08-3.54l-.275-.205c-9.747-7.316-7.287-18.01-1.734-25.577 1.543-2.103 3.56-3.34 5.995-3.674 6.227-.858 13.543 4.236 16.39 6.466 6.938 5.453 15.057 7.93 22.908 10.325 3.172.967 6.453 1.968 9.596 3.15 6.578 2.465 11.119 1.54 13.506-2.738 2.108-3.788 1.05-7.553-3.23-11.512-1.55-1.434-3.222-2.897-4.84-4.312-4.778-4.184-9.72-8.51-12.63-12.937-12.506-19.027-30.631-32.231-48.16-45.003q-2.647-1.926-5.293-3.866c-4.852-3.554-4.54-8.548-4.207-13.832.157-2.523.32-5.13-.133-7.547-.278-1.477.24-3.067 1.426-4.365 1.6-1.757 4.137-2.708 6.615-2.466 4.115.394 8.293-.2 12.336-.775 7.75-1.102 15.069-2.144 21.903 3.274l.476.378.278-.54c2.397-4.637-.882-7.832-3.516-10.402-1.443-1.407-2.804-2.735-2.715-3.875.049-.604.498-1.2 1.375-1.822 4.375-3.102 8.775-.2 13.436 2.87 2.37 1.564 4.823 3.18 7.317 3.992.138.044.302.232.461.414.168.188.356.403.601.564 3.99 2.57 9.64 3.224 15.496 1.794 6.882-1.68 12.804-5.85 15.84-11.152l.4-.697-.802-.05c-24.591-1.552-45.016-12.856-52.033-28.798-5.726-12.997-11.918-23.942-29.8-26.252-2.504-.325-4.276-1.288-5.27-2.868-1.992-3.168-.67-8.229.496-11.76 1.22-3.687 5.675-10.01 7.764-10.385.28-.05.405.047.497.16 5.435 6.803 12.322 6.946 18.984 7.084 3.812.08 7.411.154 10.686 1.428 7.255 2.827 11.856 3.12 14.064.897 2.834-2.85.888-9.062-1.126-14.155-3.107-7.855-.902-12.759 8.74-19.434l1.675-1.16-2.022.252c-3.824.479-7.084.86-9.973 1.197-5.326.624-9.534 1.115-13.618 1.797-10.404 1.732-20.79-1.476-27.79-8.59-6.458-6.563-9.21-15.531-7.546-24.603.54-2.947 1.29-6.187 3.356-7.343 1.22-.684 2.82-.624 4.891.176 12.899 4.98 20.156-1.467 27.837-8.29 2.562-2.273 5.207-4.624 8.186-6.707l1.568-1.099-1.905.192c-3.362.337-6.382.69-9.302 1.03-6.187.722-11.53 1.346-16.82 1.399-.576.005-1.234.034-1.941.063-3.167.133-7.507.317-8.885-1.398-.475-.59-.57-1.388-.29-2.439 1.602-6.031-2.222-11.015-5.92-15.834-5.042-6.57-9.803-12.775-.676-21.192l.328-.302-.263-.359c-5.577-7.678-4.87-16.082-4.121-24.978.585-6.966 1.192-14.168-1.1-21.615l-.413-1.346-.528 1.307c-1.692 4.195-3.678 7.996-5.598 11.673-3.9 7.463-7.58 14.514-7.64 22.966-.053 7.14-.729 11.604-9.66 13.377-7.883 1.557-11.634-2.485-16.822-8.08l-.714-.77c-7.692-8.265-16.713-13.825-25.438-19.202-8.02-4.942-15.595-9.61-22.174-16.19-1.3-1.3-4.54-1.67-6.459-1.124-26.285 7.524-37.872-8.308-49.293-28.17l-.844-1.482c-4.209-7.413-7.856-13.81-19.562-12.24-9.091 1.228-11.794-7.246-12.602-12.402-1.86-11.812-9.305-19.755-22.766-24.284-6.425-2.16-10.733-4.898-12.361-11.862-2.918-12.43-12.13-18.133-25.937-16.045-7.673 1.16-15.636 2.715-23.668 4.62-8.49 2.01-13.722 1.759-16.454-.788-2.258-2.105-2.894-5.939-1.948-11.72 3.4-20.776-10.033-28.079-24.082-33.778q-.953-.386-1.896-.76c-8.148-3.255-15.185-6.067-18.822-15.84-1.633-4.378-4.563-7.302-8.476-8.455-4.897-1.441-11.003.079-16.346 4.063-8.654 6.458-13.176 13.496-13.444 20.917-.687 18.937-15.003 25.955-28.847 32.741-5.782 2.833-9.706 3.524-12.726 2.234-2.696-1.152-4.73-3.99-6.221-8.679-2.557-8.014-6.79-17.244-16.907-17.478-10.562-.25-15.693 8.579-19.263 17.252-4.308 10.464-11.272 15.292-21.325 14.752-13.213-.697-16.842 7.044-18.79 15.518l-.035.15c-1.58 6.885-3.546 15.45-11.937 15.45h-.06c-11.053 0-12.379 6.076-13.78 12.508-.184.842-.371 1.7-.582 2.565l-.293 1.212c-1.986 8.233-3.86 16.01-15.514 18.705-21.263 4.938-34.384 20.253-41.647 32.231-9.957 16.41-34.407 32.504-51.026 28.65-4.626-1.07-9.698-.762-14.604-.462-10.17.62-20.696 1.258-28.121-10.268-.696-1.082-2.133-2.053-3.799-3.177-2.585-1.746-5.804-3.92-7.005-7.21-1.01-2.768-2.892-4.92-5.165-5.907-1.788-.777-3.708-.774-5.553.008-16.513 7.007-25.706-.075-35.185-13.776-3.643-5.273-7.875-8.168-12.237-8.372-4.192-.202-8.312 2.067-12.23 6.734-5.18 6.17-11.164 9.363-18.832 10.054-6.208.56-11.476 3.493-15.236 8.486-6.374 8.466-15.808 10.303-25.798 12.247-6.174 1.202-12.558 2.444-18.139 5.4-1.55.82-4.433.369-7.771-.154-6.115-.957-13.725-2.148-19.62 2.955-.553.247-3.902-.824-4.534-1.928-5.339-9.367-12.748-7.067-19.88-3.909-8.77 3.896-14.513 1.756-18.619-6.929-2.058-4.346-4.55-6.688-7.406-6.962-3.187-.307-6.69 2.024-10.155 6.735-1.736 2.354-3.157 4.958-4.53 7.475a146 146 0 0 1-1.833 3.293c-3.778 6.545-10.405 10.447-16.466 9.712-4.422-.534-7.612-3.437-8.986-8.173-4.076-14.053-12.316-25.2-20.284-35.98-3.22-4.356-6.548-8.86-9.562-13.498a175 175 0 0 1-2.466-3.95c-3.628-5.923-7.054-11.519-13.305-15.078-4.332-2.466-7.205-4.895-7.149-8.745.221-13.433-8.594-21.724-25.493-23.976-14.855-1.979-17.462-7.495-17.97-19.933-.618-15.248-6.36-24.932-17.553-29.605-10.35-4.327-15.922 1.123-21.312 6.393-1.568 1.534-3.19 3.121-4.908 4.44-5.868 4.5-10.554 6.254-14.754 5.53-3.712-.644-6.996-3.25-10.04-7.966-2.81-4.35-6.165-6.779-9.972-7.219-3.999-.462-8.27 1.371-12.348 5.303-.66.635-1.305 1.298-1.944 1.954-3.986 4.091-7.428 7.623-13.453 4.398-7.128-3.813-7.808-11.35-6.066-17.134 6.73-22.399-7.883-33.387-23.428-42.722-1.17-.702-2.37-1.39-3.58-2.08-6.679-3.82-13.585-7.77-16.024-15.082-3.089-9.258-10.13-14.909-16.938-20.374a263 263 0 0 1-3.582-2.908c-.5-.415-.981-.889-1.447-1.347-1.325-1.303-2.58-2.539-4.155-2.383-1.218.116-2.38 1.032-3.653 2.88-7.833 11.385-19.126 18.97-34.523 23.19-3.72 1.02-7.471 5.522-8.813 9.11l-.24.645c-2.522 6.805-4.902 13.231-10.034 15.348-3.445 1.421-7.913.817-13.663-1.845-4.475-2.075-8.081 3.126-9.623 5.35l-.551.801c-3.319 4.81-6.748 9.784-9.582 14.96-2.594 4.728-4.774 9.854-6.883 14.811-6.81 16.006-13.85 32.558-35.864 37.586-.49.111-.987.519-1.481 1.207-5.983 8.322-14.853 17.505-30.482 14.596-1.482-.272-4.242.932-5.302 1.85-.243.21-.563.536-.546.943.764 18.164-12.242 26.511-26.803 34.136-2.168 1.144-3.498 4.503-3.978 7.032-2.54 13.385-12.817 21.782-30.546 24.96-16.73 3-19.04 10.938-17.377 23.636.755 5.685.288 13.314-3.284 17.675-1.687 2.062-3.925 3.2-6.654 3.383-17.69 1.183-31.412 8.466-43.95 15.823-11.355 6.66-20.525 16.014-28.036 28.6-2.197 3.682-2.912 7.264-2.071 10.363.819 3.016 3.065 5.552 6.675 7.536 14.958 8.231 21.712 19.68 20.635 34.986-5.173-.288-9.04-2.923-13.125-5.707-3.945-2.69-8.025-5.471-13.361-5.913l-1.235-.101.817.93c2.393 2.72 5.047 5.251 7.613 7.7 5.877 5.605 11.428 10.898 14.38 18.483.43 1.102 1.573 1.82 2.782 2.58 1.267.797 2.576 1.619 2.822 2.825.172.837-.155 1.837-.998 3.053-2.268 3.284-5.905 4.146-11.123 2.636-2.552-.741-5.231-1.278-7.824-1.796-8.09-1.618-16.456-3.292-23.926-11.367l-1-1.08.135 1.466c1.295 14.11 9.089 17.644 17.318 19.363.525.11 1.054.21 1.579.308 3.828.72 7.134 1.342 8.097 5.454 1.206 5.142-2.697 7.857-6.47 10.482l-.263.183c-1.828 1.273-3.66 2.625-5.43 3.931-7.166 5.288-14.576 10.755-24.388 13.084a25 25 0 0 0-4.317.805l.198.978a44 44 0 0 0 4.282-.794c9.008-.826 14.104 4.817 19.034 10.27 4.566 5.05 9.293 10.27 16.966 9.747-.431 1.913-2.891 2.906-5.084 3.79-1.971.795-3.673 1.482-3.808 2.812-.11 1.067.84 2.205 3.079 3.69 8.27 5.488 10.468 10.418 8.108 18.191-2.012 6.628-7.307 6.092-13.44 5.473-1.895-.19-3.86-.391-5.757-.36l-.935.013.53.77c6.02 8.75 13.186 7.255 20.114 5.808 3.817-.796 7.434-1.553 10.79-.628-7.872 11.409-15.187 17.193-22.987 18.19-7.94 1.023-16.64-2.899-27.399-12.313-4.763-4.18-9.385-5.698-16.505-5.417l-1.133.045.799.808c2.558 2.579 4.798 5.36 6.964 8.05 6.533 8.11 12.704 15.784 25.63 15.122 4.413-.22 10.603-.174 13.437 2.832 1.279 1.357 1.794 3.253 1.53 5.637-.372 3.399-3.294 3.41-8.061 3.025-2.255-.18-4.585-.369-6.454.157-1.06.293-1.826.505-1.91 1.113-.076.564.548.94.857 1.124 2.699 1.858 5.918 2.775 9.031 3.661 4.144 1.18 8.426 2.399 11.58 5.861-1.46 1.034-3.213.645-5.06.236-2.717-.603-5.8-1.288-8.06 2.809l-.252.457.47.233c1.367.673 2.716 1.413 4.02 2.129 3.019 1.654 5.87 3.217 9.024 4.086 6.209 1.72 7.715 5.971 8.924 10.937.334 1.384.537 2.417.116 3.107-.27.44-.815.753-1.663.957-4.88 1.182-9.226-.272-14.085-4.707l-1.14-1.044c-6.643-6.11-13.511-12.43-25.936-8.226l-1.692.572 1.743.39c8.575 1.915 15.059 6.594 21.329 11.12 4.297 3.103 8.74 6.31 13.745 8.508 1.219.534 2.654.97 4.173 1.43 3.496 1.06 7.11 2.157 8.156 4.496.505 1.13.374 2.487-.4 4.147-2.475 5.322-14.77 2.947-18.812 2.167-1.62-.31-3.055-1.524-4.576-2.81-.972-.82-1.977-1.668-3.065-2.296-1.184-.682-2.325-1.427-3.531-2.215-4.757-3.105-10.148-6.625-19.675-6.723l-1.696-.016 1.416.934a388 388 0 0 0 5.603 3.616c7.679 4.892 13.743 8.755 17.689 14.834 3.457 5.32 6.756 11.96 1.547 16.134-4.512 3.611-10.373-.544-14.491-4.667-8.085-8.097-17.226-9.979-27.166-5.6l-3.975 1.752 4.269-.803c11.712-2.2 16.94 4.342 22.475 11.27 2.964 3.71 6.028 7.546 10.154 9.86 1.109.623 1.625 1.305 1.534 2.028-.175 1.376-2.495 2.957-5.518 3.764-10.908 2.9-20.443-.39-30.535-3.877a334 334 0 0 0-4.742-1.611l-2.132-.701 1.633 1.54c7.467 7.04 15.035 13.558 25.388 15.972-.85 1.318-2.424 1.641-4.082 1.982-2.503.514-5.341 1.096-4.654 5.717l.044.295.28.102c1.19.433 2.45.83 3.666 1.212 2.763.871 5.62 1.77 8.078 3.204 1.34.78 3.082 1.307 4.768 1.818 2.867.868 5.832 1.765 6.859 3.88.62 1.276.52 2.93-.31 5.052-3.058 7.846-12.146 7.9-17.294 7.235-5.314-.69-9.582-3.233-14.101-5.927q-.802-.478-1.612-.955c-.73-.43-1.363-1.282-2.031-2.185-1.038-1.4-2.215-2.988-4.087-3.238-1.47-.195-3.142.46-5.113 2.01l-.362.285.254.385q.354.536.7 1.074c2.22 3.422 4.514 6.961 9.115 8.471 4.596 1.508 8.305 3.127 7.143 7.685-1.185 4.654-5.113 4.6-9.264 4.545-.824-.01-1.638-.02-2.42.007-1.45.054-2.918-.028-4.472-.114-5.925-.328-12.634-.695-19.86 6.798l-1.101 1.141 1.558-.303c11.682-2.282 18.649-.737 24.853 5.524 5.345 5.389 14.149 4.73 18.706.772 5.258-4.577 8.938-6.48 10.933-5.649 2.228.924 2.536 5.337 2.832 9.607.089 1.272.18 2.588.322 3.83.04.363.058.742.076 1.123.06 1.32.123 2.684 1.117 3.55.73.635 1.843.876 3.4.736l.222-.022.133-.176c3.66-4.853 2.195-9.94.778-14.859-1.007-3.505.89-8.64 5.073-13.736 4.167-5.078 10.737-9.993 16.02-9.56 2.163.184 3.458 1.43 3.645 3.51.456 5.043 1.71 10.034 2.924 14.861 2.372 9.437 4.825 19.194 1.372 29.716-3.384 10.3-2.112 21.388-.882 32.11.303 2.643.617 5.379.851 8.043.1 1.147.3 2.327.494 3.466.582 3.437 1.181 6.982-.636 10.667-.657-.453-1.226-.839-1.732-1.18-1.094-.742-1.884-1.278-2.634-1.851l-.185-.144c-3.556-2.726-7.236-5.546-10.961-4.883-2.138.38-3.993 1.853-5.672 4.506-2.194 3.461-2.825 6.62-1.875 9.382 1.038 3.016 3.896 5.378 8.492 7.022 2.514.902 4.745 2.802 6.901 4.637.618.525 1.232 1.049 1.85 1.546 2.929 2.367 4.586 5.043 4.79 7.74.173 2.264-.683 4.446-2.542 6.484-4.972 5.458-12.57 8.911-23.222 10.555-1.887.29-3.427-.087-4.584-1.122-1.835-1.641-2.782-5.07-2.597-9.409.168-4.042-1.313-7.126-3.865-8.05-2.23-.807-4.721.226-6.664 2.767-8.876 11.596-17.891 24.779-17.46 34.638.465 10.687-3.318 15.98-8.107 22.683-.45.63-.923 1.26-1.4 1.898-3.34 4.461-7.124 9.518-3.756 15.35 3.651 6.326 11.3 5.822 17.445 5.418l.624-.042c15.494-.998 29.553-7.135 43.148-13.072 1.942-.847 3.883-1.695 5.828-2.527 5.467-2.342 10.962-4.822 16.277-7.22 15.062-6.796 30.636-13.823 47.219-18.443 14.047-3.917 28.168-3.508 41.827-3.113 7.34.21 14.93.43 22.418-.024 10.92-.662 23.745-2.77 36.072-13.386l.687-.59-.866-.266c-10.526-3.226-20.918-4.377-30.97-5.49-10.058-1.114-19.59-2.17-29.043-5.142 6.069-1.428 11.988-3.686 17.728-5.877 13.264-5.062 26.98-10.299 42.915-5.298 5.957 1.869 11.654 3.336 15.85.811 2.964-1.782 4.913-5.36 5.956-10.942 1.02-5.466 4.666-9.476 9.753-10.732 5.971-1.471 12.355 1.002 16.66 6.457 10.613 13.445 25.781 15.665 40.451 17.813 1.971.288 3.942.576 5.906.89 6.118.974 13.406-1.238 15.488-7.361 1.822-5.397-2.531-6.962-6.372-8.342-1.512-.545-2.94-1.058-3.993-1.769-2.61-1.755-6-2.474-9.279-3.168a88 88 0 0 1-3.053-.685c-4.811-1.207-7.575-4.06-7.782-8.036-.084-1.529.214-2.645.913-3.41 1.24-1.36 3.678-1.453 5.827-1.535.829-.033 1.61-.062 2.324-.156 10.848-1.419 21.655.29 32.105 1.94 9.102 1.438 18.515 2.928 28.16 2.443 8.011-.4 16.23-.02 24.178.347 21.572.993 43.881 2.025 63.814-12.575 4.313-3.167 9.31-5.712 13.682-.579 4.548 5.346 5.482 10.45 2.782 15.168-1.668 2.9-3.89 5.543-6.04 8.1-.934 1.111-1.901 2.261-2.786 3.393l-.23.293.216.303c1.738 2.46 5.082 2.827 8.031 3.15 2.29.25 4.45.487 5.279 1.652.435.611.514 1.488.24 2.68-1.295 5.65-4.635 15.397-12.44 17.208q-.831.194-1.683.398c-7.724 1.847-16.48 3.938-23.535-3.428-5.445-5.684-18.222-9.586-29.732-9.039-7.274.336-12.775 2.4-15.487 5.812-8.303 10.444-17.547 11.702-30.703 10.347-5.178-.536-10.587.46-15.818 1.422-1.668.307-3.393.625-5.071.883-10.462 1.61-20.355 5.734-29.922 9.72-14.457 6.025-29.413 12.254-46.681 9.967-2.915-.38-6.561 1.131-9.3 3.858-2.895 2.885-4.291 6.6-3.83 10.192 1.048 8.245 11.262 7.975 14.622 7.888 2.889-.074 5.868-.553 8.749-1.015 4.813-.774 9.357-1.505 13.564-.537 6.36 1.461 13.166-.248 19.745-1.9 11.78-2.958 22.909-5.754 32.236 7.723.724 1.042 2.787.784 6.091.273 1.302-.2 2.647-.408 3.724-.445 12.96-.447 24.576-5.367 36.874-10.578l2.34-.99c-1.697 6.312-6.458 8.68-11.485 11.18-3.567 1.774-7.254 3.61-9.76 6.966l-.476.637.78.151c1.778.347 3.407.711 4.983 1.063 3.185.713 5.938 1.327 8.79 1.55 22.075 1.745 28.375-3.02 32.114-24.274.279-1.589.433-3.197.596-4.902.436-4.577.888-9.304 3.916-13.438 4.987 4.236 8.366 10.053 11.64 15.686 6.072 10.448 11.809 20.318 26.815 20.611 22.602.446 38.731-13.379 50.252-25.468l.45-.473-.573-.311a28 28 0 0 1-2.038-1.253c-1.178-.774-2.104-1.361-3.177-1.341-3.654.168-7.798.357-9.69-1.665-.938-1.004-1.284-2.484-1.055-4.525.168-1.49.76-2.607 1.807-3.41 1.857-1.43 5.087-1.815 9.598-1.143 20.82 3.105 36.55 10.32 46.753 21.445 6.733 7.338 15.074 10.05 23.141 12.671 3.003.976 6.106 1.985 9.058 3.215 4.288 1.791 13.218 3.473 16.324-2.985 2.524-5.25-1.79-7.818-5.598-10.085-1.082-.645-2.103-1.253-2.964-1.907-.323-.245-.658-.493-.996-.744-2.42-1.796-5.16-3.832-5.36-6.083-.095-1.076.381-2.15 1.455-3.289 1.7-1.805 4.567-2.727 7.482-2.398 2.667.3 4.83 1.546 5.93 3.418 3.982 6.774 10.36 9.37 16.53 11.88 2.307.938 4.69 1.91 6.905 3.083l.597.315c1.993 1.05 4.723 2.487 5.063 3.967 1.495 6.596 4.756 10.906 9.696 12.813 7.332 2.83 16.43-.577 20.442-3.386 5.08-3.555 8.468-4.878 10.994-4.29 2.636.613 4.587 3.34 7.065 7.842 1.316 2.398 3.476 4.216 5.64 4.748a5.44 5.44 0 0 0 4.407-.774c3.57-2.378 1.56-5.407-.053-7.84-.465-.7-.904-1.361-1.237-2.007-5.443-10.59-9.161-20.05.536-28.598 9.56-8.436 11.29-17.369 5.61-28.968-.545-1.112-.577-2.269-.095-3.438.87-2.107 3.386-4.141 6.412-5.185 1.9-.655 3.348-.58 4.306.227 1.377 1.163 1.53 3.617 1.243 5.366-.942 5.745 2.673 9.748 6.17 13.621 3.991 4.42 7.76 8.593 5.423 15.245-.334.952-.045 1.868.813 2.581 1.58 1.312 5.056 1.78 7.514.36 4.188-2.417 7.047-3.208 8.998-2.49 2.22.819 3.203 3.579 4.447 7.074.53 1.486 1.075 3.022 1.783 4.593 1.278 2.844 1.413 6.286 1.544 9.615.216 5.518.442 11.223 6.227 13.447 9.47 3.644 20.479-.254 30.192-3.696l.106-.038c4.367-1.55 8.841-4.713 11.677-8.252 8.18-10.243 18.26-14.183 30.822-12.048 1.557.263 3.231-.264 4.23-.582.293-.092.526-.168.68-.197l.313-.053.084-.307c3.955-14.524-5.344-20.078-14.335-25.45-4.4-2.626-8.937-5.337-11.849-9.085 6.817.374 12.923 1.556 18.837 2.701 2.129.413 4.33.84 6.496 1.213 19.928 3.421 25.205 9.145 25.664 27.845.073 2.94.06 5.94.048 8.841-.027 5.734-.053 11.66.596 17.437.726 6.475 2.976 10.797 6.69 12.848q2.366 1.304 5.356 1.303c2.826 0 6.06-.874 9.675-2.621l.67-.327c5.057-2.459 9.833-4.783 15.75-2.924 5.624 1.774 12.994.672 15.093-4.197 2.33-5.399-2.513-8.709-6.786-11.63-.786-.537-1.558-1.063-2.262-1.59-.865-.649-1.988-1.026-3.075-1.391-2.49-.837-4.457-1.498-3.534-4.824 1.083-3.872 4.697-3.913 8.192-3.953l.675-.009c6.528-.1 11.18-1.678 14.22-4.826 3.358-3.476 4.786-8.75 4.627-17.1-.05-2.584-.687-5.01-1.361-7.577-.904-3.443-1.837-6.997-1.494-11.383 8.065 3.881 11.79 8.501 11.708 14.5-.087 6.22.844 9.524 2.933 10.397 2.132.891 5.202-.86 9.947-5.683q.287-.292.56-.586c1.558-1.654 2.799-2.965 5.536-1.467.063.317.158.65.256 1 .25.88.53 1.878.254 2.553-1.908 4.691-4.24 10.188-7.084 15.386-.55 1.006-1.346 2.044-2.118 3.048-2.239 2.92-4.777 6.228-1.79 9.732 2.377 2.788 6.319 2.286 10.127 1.802 1.415-.18 2.877-.365 4.196-.365h.099c1.716 0 3.522-.263 5.27-.516 5.109-.738 9.932-1.439 13.243 3.691 4.337 6.727 8.596 10.342 13.406 11.373 4.848 1.037 10.25-.524 17.024-4.92a317 317 0 0 0 4.037-2.68c3.436-2.303 6.988-4.687 10.687-6.651.716-.383 1.718-.572 2.688-.756 1.572-.299 3.198-.606 3.964-1.777.444-.678.537-1.538.288-2.627-.862-3.736-2.503-7.724-8.15-8.99-3.53-.789-6.84-.279-10.042.215-2.617.404-5.087.785-7.666.508-.79-.084-1.621-.093-2.426-.101-3.002-.034-5.594-.061-6.564-3.442-1.24-4.318 1.47-6.629 5.434-9.42 4.288-3.012 9.082-2.664 13.625-1.841 13.027 2.349 25.166-.354 37.114-8.266 8.019-5.298 16.6-7.866 25.556-7.618l.16.005c4.604.12 10.912.286 12.178 4.595 5.152 17.527 19.646 22.867 33.664 28.031 5.906 2.176 12.014 4.427 17.28 7.56 2.095 1.247 4.786 1.763 7.387 2.26 3.684.705 7.162 1.37 8.81 3.935 1.197 1.861 1.333 4.594.416 8.357-.268 1.103 0 2.071.773 2.798 1.365 1.284 4.035 1.478 5.83.923 7-2.168 13.83-.945 21.06.346 2.8.502 5.697 1.02 8.61 1.326l.594.063-.043-.595c-.412-5.658-3.16-9.287-5.816-12.797-.838-1.107-1.63-2.153-2.345-3.256-2.266-3.49-3.374-6.428-1.41-9.426 1.101-1.672 9.61-3.026 17.836-2.844 6.37.142 9.207 1.146 9.74 2.04 4.8 8.08 12.268 9.837 20.173 11.698 1.71.402 3.477.819 5.204 1.302l.558.155.073-.573c.668-5.207-2.074-7.257-5.728-9.395-4.62-2.707-6.56-7.24-4.717-11.023 1.688-3.479 4.252-2.424 7.216-1.205 1.182.486 2.406.99 3.57 1.163 1.726.258 3.49.585 5.192.9 7.233 1.34 14.708 2.724 22.152-.543 7.961-3.503 15.735-6.046 23.254 1.186 1.087 1.043 2.704 1.57 4.318 1.406 1.51-.15 2.833-.897 3.632-2.046.863-1.238 1.045-2.582.513-3.783-.612-1.383-2.112-2.386-3.914-2.617-3.718-.479-6.293-3.385-9.018-6.462-4.293-4.842-8.728-9.854-17.824-4.67-.418-.047-1.7-.841-1.882-1.32-1.617-4.293-3.725-6.96-6.447-8.157-4.242-1.863-9.174.126-14.4 2.23-.75.303-1.506.608-2.264.901-2.091.81-7.277 2.351-10.224-.832-3.303-3.568-6.344-5.219-9.267-5.035-3.1.191-6.062 2.385-9.322 6.91-2.868 3.97-8.23 2.336-9.803 1.742-2.07-.783-2.168-2.465-2.293-4.596a28 28 0 0 0-.11-1.46c-1.281-11.713 3.649-20.67 16.474-29.851 4.38 12.582 15.928 14.186 26.702 14.053q.368-.005.736-.005c15.254 0 29.15 5.13 39.595 9.627 8.406 3.62 16.166 4.622 25.158 3.243 2.193-.336 4.33-.95 6.396-1.543 6.164-1.771 11.987-3.445 18.924 2.068 1.504 1.19 3.547 1.45 5.762.722 3.96-1.3 7.597-5.416 8.844-10.004 1.486-5.436 3.556-10.84 5.56-16.069a766 766 0 0 0 1.598-4.195c.284-.763.475-1.618.66-2.445.615-2.766 1.149-5.159 4.707-5.159h.057c2.563.018 3.745 1.847 4.997 3.785.717 1.111 1.462 2.26 2.484 3.037 3.458 2.628 4.494 6.146 5.59 9.87.866 2.945 1.764 5.991 3.936 8.63 3.65 4.436 4.693 9.079 2.935 13.074-2.108 4.792-7.897 7.892-15.485 8.296-1.102.057-2.245-.03-3.453-.126-4.092-.32-8.722-.68-11.746 5.345l-.307.616 5.86.9c4.727.728 9.193 1.417 13.735 2.059.957.133 2.045.08 3.101.029 3.372-.17 5.44-.052 5.714 2.94.16 1.74-.341 3.113-1.492 4.082-1.829 1.538-4.986 1.75-7.157 1.166-11.62-3.121-21.313-.718-31.437 7.785-1.535 1.29-4.535.997-7.44.713-3.482-.34-7.09-.693-8.91 1.512-1.42 1.725-1.489 4.78-.205 9.33a95 95 0 0 0-3.236.723c-2.81.661-5.716 1.355-8.519 1.262-1.08-.03-2.157-.43-3.295-.854-2.231-.828-4.758-1.765-7.47.399l-.446.352.409.397c15.579 15.128 45.072 20.84 63.117 12.224 7.14-3.41 14.912-5.562 22.429-7.643 10.115-2.8 20.574-5.697 29.756-11.702l.586-.383-.552-.43c-4.605-3.584-7.18-10.222-3.188-15.976 2.23-3.214 4.409-2.065 7.78.074 1.895 1.202 3.854 2.445 5.96 2.475 4.025.062 8.127.986 12.095 1.88 2.726.613 5.544 1.249 8.348 1.612.693.09 1.4.052 2.082.014 1.066-.056 2.066-.113 2.598.384.37.346.557.972.57 1.914.007.642-.39 1.47-.773 2.27-.586 1.224-1.192 2.491-.61 3.544.445.808 1.466 1.276 3.21 1.477 2.99.344 4.322-2.198 5.486-4.448.37-.715.719-1.39 1.114-1.986 4.063-6.152 4.924-13.078 5.756-19.775.59-4.748 1.2-9.658 2.96-14.194 1.288-3.304 3.322-6.862 4.741-6.866h.001c.655 0 1.155.915 1.458 1.682 2.663 6.703 7.88 7.103 12.485 7.456 3.42.263 6.649.51 8.873 3.033 1.65 1.875 4.453 2.992 6.972 2.787 2.119-.175 3.845-1.245 4.996-3.094 1.028-1.655 1.309-3.272.835-4.809-.833-2.698-3.79-4.493-6.122-5.524-.56-.248-1.157-.431-1.733-.609-1.88-.577-3.374-1.035-3.488-3.326 3.308-3.858 6.855-2.658 10.609-1.388 2.093.71 4.255 1.441 6.408 1.274l.637-.05-.201-.606c-4.374-13.16-4.437-13.354 12.75-20.69-.212 1.823-.654 3.822-1.12 5.922-1.1 4.971-2.237 10.11-.15 13.154.927 1.35 2.434 2.19 4.48 2.498 3.463.528 7.474-.887 11.016-3.873 4.61-3.887 7.446-9.516 7.896-15.595 5.156 5.974 8.315 11.202 2.46 17.782-2.42 2.721-3.52 5.163-3.365 7.464.225 3.353 3.09 5.81 5.86 8.19 2.23 1.913 4.535 3.893 5.295 6.243.77 2.37 1.83 3.77 3.245 4.277 2.226.793 4.726-.805 7.143-2.353 1.11-.713 2.16-1.385 3.12-1.784a132 132 0 0 0 2.15-.928c4.17-1.824 8.112-3.544 10.506-1.98 1.75 1.141 2.603 3.984 2.608 8.691 0 1.868.85 3.59 2.222 4.49 1.103.725 2.381.83 3.604.303 8.367-3.611 16.869-2.513 25.867-1.349 7.746 1.003 15.755 2.04 24.082.04l.793-.19-.528-.62c-1.294-1.525-2.41-2.959-3.489-4.345-2.25-2.892-4.194-5.39-6.684-7.253-1.005-.753-2.297-1.285-3.545-1.8-2.853-1.18-5.319-2.197-4.508-5.433.965-3.88 4.015-3.694 7.543-3.478 1.552.094 3.158.193 4.56-.116 5.157-1.132 9.038.632 12.972 5.91 2.823 3.784 6.693 8.967 13.756 5.72l.427-.196-.168-.438c-4.056-10.582-11.079-19.506-17.87-28.137-4.716-5.992-9.591-12.187-13.412-18.869-1.643-2.869-5.064-6.418-9.302-6.985-3.119-.413-6.151.814-8.994 3.656-.258.26-.518.532-.781.804-2.302 2.399-4.475 4.661-7.946 1.964-2.853-2.224-2.284-5.437-1.732-8.543.067-.38.134-.754.192-1.12.879-5.44 1.879-10.957 2.845-16.294 1.178-6.497 2.392-13.215 3.401-19.851 1.558-10.236 7.099-15.052 16.144-19.914 14.928-8.019 26.142-1.671 36.988 4.471 2.83 1.603 5.505 3.117 8.243 4.383 11.46 5.296 20.809 3.952 30.976 1.81 3.04-.64 4.721-1.577 5.29-2.945.708-1.703-.539-3.627-1.744-5.486-1.186-1.83-2.41-3.721-1.668-5.188.407-.805 1.212-1.384 2.063-1.995"/></g></svg>