<svg xmlns="http://www.w3.org/2000/svg" width="2048" height="1920" viewBox="0 0 2048 1920"><defs><clipPath id="clip_1"><path d="M0 0h2048v1920H0Z"/></clipPath></defs><g clip-path="url(#clip_1)"><path fill="#231f20" d="M1006.872 1222.766c-11.255-.477-22.703-.334-33.774-.196-2.538.032-5.077.064-7.614.088-.739.007-1.498-.05-2.257-.102-3.494-.25-7.84-.56-10.338 5.036a2 2 0 0 1-.203.374c-.402-.197-1.11-.905-1.47-1.265-.29-.29-.563-.56-.802-.765-2.4-2.051-4.777-4.232-7.076-6.341-2.368-2.175-4.818-4.423-7.317-6.553-2.058-1.752-2.195-3.818-2.166-6.768l.034-3.443c.095-9.818.195-19.97.131-29.96-.018-3.013.772-5.878 2.564-9.291 3.285-6.258 6.528-12.671 9.666-18.873 6.601-13.052 13.426-26.548 20.996-39.284 7.787-13.1 9.78-27.411 11.706-41.252.603-4.34 1.228-8.827 2.022-13.195 2.113-11.624 3.716-23.524 5.267-35.031l.32-2.365c.268-1.995.633-3.051 1.183-3.423q.384-.26 1.173-.26.97 0 2.533.39l.552.139c11.892 2.972 17.86 4.464 20.613 7.96 2.758 3.506 2.758 9.607 2.758 21.762v39.53c0 5.093-.014 10.186-.026 15.279-.035 13.425-.07 27.306.13 40.962.034 2.35-.298 3.785-1.047 4.514-.738.719-2.147 1.014-4.433.923-5.05-.201-10.175-.16-15.13-.121-4.27.034-8.688.069-13.013-.05-1.957-.055-4.414.089-6.033 1.695-1.229 1.22-1.774 3.045-1.716 5.742.25 11.57.113 22.945-.034 31.56-.083 4.856 2.521 7.357 5.08 9.164 8.008 5.654 15.918 11.494 22.704 16.522 2.376 1.759 5.32 3.496 9.137 3.022 1.504-.186 2.561-.048 3.141.413.894.71 1.147 2.536 1.406 5.036.35 3.387-.03 5.618-1.16 6.82-1.208 1.28-3.523 1.774-7.507 1.607M790.42 1355.589c31.893-58.442 69.635-127.69 107.746-198.181 1.653-3.056 2.271-3.367 2.421-3.39l.031-.001c.52 0 2.182 1.648 3.523 2.978l.195.194c14.417 14.295 14.937 32.535 15.441 50.175.213 7.49 2.83 13.026 9.028 19.104 1.852 1.817 4.032 3.554 6.14 5.233 5.118 4.08 10.412 8.3 10.902 13.622.487 5.286-2.83 11.317-6.037 17.15-1.112 2.022-2.26 4.112-3.23 6.139-27.713 57.89-48.414 119.465-68.436 179.013-7.568 22.51-15.393 45.786-23.485 68.526-2.255 6.338-4.449 12.7-6.642 19.059l-2.559 7.406-9.23-34.961c-8.137-30.825-16.276-61.65-24.4-92.478-1.324-5.017-2.618-10.041-3.913-15.066-2.814-10.93-5.725-22.231-8.894-33.27-1.177-4.098-.784-7.253 1.4-11.252m53.923-194.767c.695-26.096 1.543-52.63 2.362-78.288l.581-18.27c.022-.67.094-1.35.221-2.427l8.626 13.96a34770 34770 0 0 0 35.26 56.993c1.201 1.938 1.161 3.513-.146 5.813a156289 156289 0 0 0-54.956 96.784l-30.197 53.2c-.17-2.562-.504-5.068-.83-7.514-.945-7.072-1.835-13.751 1.204-20.843 7.788-18.178 15.348-36.807 22.658-54.822 4.01-9.881 8.02-19.763 12.084-29.621 1.967-4.77 2.992-9.663 3.133-14.965M957.442 873.08c.06.31.076.629.105 1.089.022.318.046.69.085 1.152l.006.058c.168 1.359-.662 3.047-1.54 4.836-.193.39-.386.783-.57 1.177-3.765 8-7.54 15.994-11.314 23.988-9.43 19.976-19.185 40.633-28.594 61.036-1.116 2.417-1.978 3.576-2.884 3.879-.907.303-2.38-.123-4.637-1.34-7.173-3.864-11.465-9.027-14.35-17.263-5.404-15.42-11.14-31.01-16.687-46.085-5.878-15.977-11.957-32.498-17.647-48.84-2.956-8.491-7.435-17.927-18.24-23.54-2.044-1.063-3.26-2.2-3.61-3.38-.503-1.685.647-3.727 1.866-5.89.986-1.75 2.005-3.56 2.288-5.456.272-1.824.898-3.011 1.863-3.528.433-.234.962-.35 1.57-.35 1.026 0 2.275.33 3.664.978 14.937 6.969 27.165 3.44 38.483-11.104 3.902-5.015 8.766-9.492 13.47-13.822 2.93-2.696 5.96-5.484 8.765-8.404 3.33-3.464 5.067-3.644 9.787-1.013 19.283 10.75 28.884 26.163 30.216 48.506.601 10.095 2.868 20.199 5.061 29.97.982 4.375 1.998 8.9 2.844 13.346m57.995 390.38c.143 3.309-.849 3.548-4.539 4.435l-.494.12c-20.909 5.078-31.834-7.143-43.947-23.647-1.349-1.838-1.865-3.485-1.38-4.405.454-.868 1.971-1.354 4.193-1.354q.225 0 .458.007c4.9.139 9.873.105 14.682.073 2.134-.015 4.267-.028 6.4-.028 1.877.004 3.756.025 5.634.045 4.781.052 9.725.105 14.597-.1 1.805-.078 2.978.182 3.588.79.625.624.89 1.864.81 3.793a241 241 0 0 0-.002 20.272M876.133 998.175c4.361.073 8.807.29 13.106.502 4.617.226 9.391.46 14.102.519 4.566.055 6.73 1.462 8.576 5.572 11.636 25.889 23.758 52.077 35.481 77.4l5.151 11.129c1.275 2.757 1.992 4.566.735 6.917-7.402 13.834-14.74 27.699-22.413 42.19l-6.744 12.736-13.836-22.525c-11.363-18.502-22.402-36.478-33.469-54.437-8.857-14.37-17.749-28.72-26.64-43.068l-11.696-18.881c-.31-.502-.643-.995-.976-1.49-1.268-1.882-2.364-3.506-2.26-5.543.565-11.242 1.163-22.482 1.814-34.733l.543-10.234a2092 2092 0 0 0 5.877 6.596c5.904 6.608 11.48 12.85 16.625 19.2 4.474 5.526 9.416 8.039 16.024 8.15m47.864-9.14.761-1.614c11.723-24.862 23.826-50.528 37.48-75.846.867 7.187 1.865 14.414 2.836 21.444 2.706 19.59 5.504 39.85 5.525 59.725.02 17.828-3.864 35.467-7.976 54.142-1.506 6.846-3.056 13.886-4.44 21.084l-6.753-14.164a48701 48701 0 0 0-27.92-58.508c-1.032-2.154-.55-4.062.487-6.262m91.35-123.812c.005 8.755.012 17.508.012 26.264q0 13.479-.01 26.958c-.018 24.866-.035 50.578.12 75.868.011 1.907-.072 4.167-.819 4.727-.409.307-1.518.487-4.487-.396l-.838-.25c-22.585-6.708-22.585-6.708-25.363-30.121-1.425-12.004-2.753-24.23-4.036-36.053-2.32-21.374-4.722-43.475-7.787-65.126-2.487-17.58-6.51-35.211-10.402-52.26-.806-3.534-1.613-7.068-2.407-10.602-1.132-5.042-.439-6.301 4.12-7.482 16.124-4.177 31.785-8.616 46.55-13.194 1.497-.464 2.658-.696 3.47-.696q.746 0 1.1.26c.916.68.898 3.676.892 4.659-.157 25.816-.137 52.063-.116 77.444m-213.125 6.803c-38.075-24.153-76.703-48.843-114.06-72.72l-26.514-16.945a163 163 0 0 1-3.807-2.521c7.912 2.162 15.82 4.347 23.727 6.53 20.99 5.799 42.691 11.792 64.155 17.253 19.048 4.846 36.188 14.466 52.764 23.77 9.121 5.118 18.552 10.41 28.225 14.873 7.394 3.412 11.744 8.468 15.012 17.453 12.131 33.35 24.777 66.224 36.637 96.78 1.381 3.558 1.25 4.842.897 5.292-.218.28-1.105.88-4.62.439-2.357-.295-4.81-.02-7.182.247-4.088.459-7.948.893-10.617-1.68-2.717-2.62-5.704-5.048-8.592-7.396-7.534-6.126-14.65-11.912-18.068-21.212-2.024-5.508-4.089-11.001-6.154-16.495-3.732-9.932-7.593-20.202-11.132-30.382-2.01-5.782-5.3-9.88-10.67-13.286M638.07 790.852c4.203 2.477 8.408 4.952 12.584 7.477l42.396 25.653c32.66 19.766 65.32 39.533 98.012 59.243 4.22 2.544 6.701 5.373 8.297 9.458 3.986 10.204 8.257 20.316 12.387 30.095 1.29 3.056 2.57 6.084 3.824 9.08l-14.398-.001c-16.995 0-33.755-.002-50.515.01-2.325-.018-3.894-1.44-5.697-3.11l-14.529-13.136a73038 73038 0 0 1-59.125-53.445l-.592-.53c-1.249-1.113-2.54-2.264-3.155-3.53-10.979-22.607-21.657-44.882-31.478-68.437Zm205.38 770.979c17.596-48.323 35.37-97.495 52.56-145.05q10.179-28.166 20.368-56.331c.112-.31.302-.64.586-1.078l95.786 422.954a8171 8171 0 0 1-12.719-12.145c-12.138-11.606-24.689-23.606-37.31-35.266-20.207-18.67-35.45-41.72-50.19-64.012-5.845-8.837-11.888-17.975-18.165-26.73-10.29-14.353-20.388-29.223-30.15-43.604-6.247-9.201-12.707-18.715-19.158-28.008-2.672-3.847-3.093-6.655-1.608-10.73m171.89-189.704c.016 9.782.033 19.565.033 29.348l.001 39.953c.001 93.225.001 186.45-.013 279.673a26 26 0 0 1-.05 1.715l-1.93-8.331c-2.329-10.037-4.656-20.074-6.916-30.126l-19.536-86.921c-19.317-85.965-39.292-174.857-59.04-262.263-1.095-4.842-.66-8.815 1.452-13.284 7.315-15.471 14.333-30.801 21.765-47.031 2.388-5.215 4.798-10.48 7.244-15.802a767 767 0 0 0 4.282 4.452c4.032 4.167 7.84 8.104 11.23 12.23 3.943 4.8 8.557 6.76 14.957 6.354 2.74-.173 5.576-.106 8.32-.041 3.328.08 6.773.162 10.167-.175 3.357-.333 5.45-.004 6.586 1.037 1.192 1.092 1.726 3.324 1.681 7.026-.332 27.396-.282 55.249-.234 82.186m190.607-538.211c-9.954 4.57-13.833 13.524-16.688 21.558-5.119 14.408-10.504 28.999-15.712 43.11-6.85 18.557-13.93 37.745-20.5 56.762-2.454 7.105-7.654 10.079-13.159 13.227a123 123 0 0 0-3.489 2.048c-.514.316-.94.457-1.175.387-.522-.157-1.11-1.42-1.539-2.344l-.173-.373c-14.09-29.93-28.186-59.857-42.344-89.754-1.172-2.478-.719-4.866-.194-7.632l2.258-11.842c3.2-16.755 6.506-34.08 9.498-51.172 1.108-6.332 3.48-10.126 8.18-13.098 4.616-2.918 9.001-6.303 13.243-9.577 1.975-1.524 3.95-3.05 5.953-4.532.921-.683 1.878-1.316 2.923-2.007q.333-.219.678-.45.448.387.891.764c1.22 1.044 2.373 2.03 3.458 3.083a2584 2584 0 0 0 8.754 8.44c8.125 7.81 16.53 15.889 24.46 24.133 4.904 5.098 9.541 6.312 15.498 4.06 1.03-.39 2.166-.602 3.37-.83 1.435-.268 2.921-.547 4.332-1.158 3.966-1.714 6.947-2.056 9.117-1.043 2.238 1.047 3.958 3.692 5.258 8.087 1.667 5.637 1.85 7.973-2.898 10.153m6.57 708.33-2.938-8.367c-2.842-8.087-5.497-15.64-8.095-23.212-5.636-16.422-11.278-33.154-16.735-49.333-12.55-37.221-25.53-75.71-39.354-113.185-9.18-24.886-20.339-49.486-31.13-73.277-3.54-7.804-7.08-15.61-10.559-23.434-2.593-5.834-2.124-8.662 1.934-11.641 18.246-13.393 26.088-29.961 23.976-50.65-1.17-11.462 5.036-19.571 11.608-28.155 1.577-2.061 3.207-4.19 4.705-6.346.908-1.306 1.405-1.546 1.408-1.594.356.22.923 1.46 1.197 2.063.205.446.402.874.6 1.234 6.435 11.722 12.807 23.476 19.18 35.23q4.656 8.595 9.323 17.18l9.72 17.875c23.166 42.606 46.332 85.213 69.564 127.783 2.36 4.324 3.496 7.693 2.317 12.117-10.867 40.792-21.809 82.294-32.39 122.43-4.442 16.85-8.883 33.7-13.333 50.549-.21.794-.53 1.604-.998 2.734m-81.378-182.966 7.056 19.455c5.658 15.602 11.317 31.204 16.968 46.809l12.088 33.424c12.077 33.415 24.566 67.968 37.023 101.89 1.783 4.853 1.383 8.064-1.529 12.27-11.128 16.08-22.333 32.505-33.168 48.388-19.823 29.055-40.32 59.098-61.125 88.176-9.572 13.376-21.787 25.046-33.599 36.33-5.489 5.244-11.163 10.666-16.517 16.203-5.763 5.96-11.788 11.596-18.167 17.562-1.787 1.672-3.595 3.363-5.422 5.084Zm-7.067-204.054c-1.693-3.281-3.279-6.517-4.824-9.667-4.18-8.53-8.13-16.586-13.34-23.78-11.41-15.747-11.902-30.286-1.644-48.611 9.544-17.045 17.44-35.342 25.076-53.038 2.116-4.903 4.232-9.805 6.382-14.685 2.081-4.722 4.578-6.32 9.896-6.326 5.844-.008 11.764-.338 17.49-.656 3.774-.21 7.675-.427 11.507-.548 4.645-.148 8.208-1.97 11.551-5.908 5.721-6.74 11.47-13.241 18.127-20.767 1.983-2.243 4.03-4.557 6.152-6.966l.473 8.839c.681 12.612 1.322 24.526 1.798 36.21.07 1.727-1.347 4.03-1.813 4.789-22.619 36.792-45.278 73.559-67.938 110.328l-18.113 29.393c-.24.389-.459.79-.78 1.393m-90.188 84.98c1.568-1.566 5.621-1.567 12.987-1.56q4.8.006 9.597.02c7.302.02 14.603.04 21.904-.021 2.434-.01 4.071.492 4.527 1.405.465.929-.114 2.638-1.509 4.459a222 222 0 0 1-18.838 21.55c-2.49 2.499-5.75 2.153-9.202 1.787-1.202-.128-2.427-.258-3.629-.258-.766 0-1.52.053-2.254.193-7.628-.005-11.859-.01-13.513-1.595-1.639-1.571-1.639-5.63-1.639-13.002 0-7.358 0-11.412 1.57-12.978m90.617-246.983c-.446 7.03-4.513 14.147-8.448 21.03-1.749 3.059-3.556 6.222-5.05 9.376-5.068 10.684-10.155 21.358-15.312 32.18l-5.133 10.779c-4.704-15.553-14.06-71.195-13.362-77.363 2.262-19.987 4.463-39.981 6.663-59.975l2.276-20.645c2.315 4.882 4.644 9.757 6.971 14.632 6.067 12.704 12.34 25.84 18.27 38.86 1.501 3.3 3.423 6.588 5.284 9.768 4.266 7.296 8.296 14.186 7.841 21.358m-69.15 206.032c14.834-7.064 20.766-18.635 19.231-37.521l-.245-3.128c-1.293-16.702-2.072-17.35-20.84-17.35-10.569 0-16.39 0-18.787-2.401-2.398-2.401-2.398-8.234-2.398-18.82v-41.244q.008-6.765.027-13.53c.036-13.978.073-28.432-.108-42.652-.054-4.194 1.1-5.855 4.572-6.58 2.986-.624 6.077-1.892 9.066-3.117 5.361-2.198 10.424-4.275 13.905-2.387 3.35 1.816 3.59 7.942 3.822 13.867.106 2.672.214 5.434.612 7.865 2.69 16.452 5.101 33.24 7.431 49.475l.235 1.642c.56 3.893 1.762 7.568 3.677 11.236a5463 5463 0 0 1 10.426 20.106c7.284 14.096 14.818 28.673 22.495 42.87 4.631 8.568 6.311 15.282 5.612 22.453-.429 4.418-.74 8.715.142 12.718 3.594 16.29-5.847 25.629-16.587 33.295-.334.238-.708.58-1.094.94-.26.243-.683.637-.998.864-2.603-4.707-6.25-5.731-9.805-5.731-1.462 0-2.908.173-4.259.335-1.52.182-2.955.354-4.283.304-14.479-.554-28.588-.355-40.479-.088-1.923.04-3.22-.302-3.86-1.027-.668-.752-.84-2.16-.532-4.302.165-1.14.056-2.364-.049-3.55-.149-1.664-.303-3.387.432-4.143.572-.586 1.858-.838 3.723-.724 5.713.349 9.52-2.736 13.2-5.718 1.901-1.541 3.698-2.997 5.716-3.957m-23.024-281.745c-.007-8.718-.016-17.436-.016-26.154l.026-23.56c.034-25.925.07-52.731-.125-79.097-.018-2.536.086-4.971.968-5.618.492-.361 1.798-.56 5.215.546 15.356 4.963 30.744 9.084 46.471 13.216 4.27 1.12 5.136 2.604 4.036 6.893-13.389 52.15-18.814 106.32-24.06 158.706-.665 6.648-1.33 13.295-2.012 19.94-.689 6.712-2.245 10.312-8.842 11.357-6.066.962-11.87 3.133-16.249 4.918-3.087 1.257-4.182 1.016-4.56.76-1.014-.685-.99-4.114-.98-5.405.175-25.502.151-51.43.128-76.502m-.177 373.229c-.007-4.434.6-6.92 1.966-8.063.761-.637 1.88-.955 3.385-.955q1.247.001 2.855.29c20.31 3.65 36.07-3.22 46.843-20.418.41-.654 1.201-1.23 2.202-1.96l.385-.281 6.968 15.09a39263 39263 0 0 0 23.74 51.354c1.2 2.592.598 5.247-.039 8.057l-9.222 40.965c-25.75 114.39-51.502 228.78-77.332 343.153-.218.965-.38 1.954-.546 2.963-.266 1.616-.536 3.26-1.077 4.944l.01-89.372c.02-113.327.04-230.511-.138-345.767m209.585-2.077-56.442-99.764c-8.938-15.82-18.18-32.181-27.349-48.228-1.98-3.468-2.917-5.434-.812-8.77 10.362-16.42 20.724-33.221 30.745-49.468 4.104-6.654 8.208-13.31 12.323-19.955l.187-.313c.253-.427.405-.651.537-.764.57 1.043.478 2.334.374 3.789-.05.71-.099 1.417-.079 2.103a16180 16180 0 0 1 2.344 93.093c.115 5.194 1.026 9.678 2.864 14.114 3.705 8.937 7.375 18.07 10.925 26.902 6.756 16.81 13.742 34.194 21.28 51.009 4.97 11.088 5.943 22.105 3.103 36.252M1383.29 784.27c-7.896 5.092-15.79 10.184-23.709 15.243l-16.146 10.32c-32.319 20.66-65.739 42.023-98.689 62.905-4.61 2.923-7.423 6.417-9.118 11.33-1.388 4.023-3.032 8.07-4.623 11.986-2.776 6.835-5.647 13.903-7.307 21.185-4.396 19.288-17.545 31.447-30.637 42.247-4.629 3.82-9.827 3.439-15.843 2.997-1.979-.145-3.99-.292-6.047-.292-1.097 0-2.206.042-3.329.149l4.182-11.246c3.567-9.6 6.966-18.748 10.405-27.881 2.845-7.554 5.71-15.101 8.573-22.648 5.655-14.902 11.502-30.311 17.101-45.526 1.823-4.956 4.595-8.111 9.268-10.547 12.724-6.634 25.554-13.57 37.963-20.277a4632 4632 0 0 1 23.238-12.505c7.58-4.041 16.055-6.087 24.254-8.065 3.191-.771 6.492-1.568 9.711-2.474 23.66-6.656 48.931-13.558 74.576-19.365Zm-149.218 143.454c3.723-8.31 7.226-16.871 10.612-25.151 1.434-3.506 2.87-7.013 4.323-10.511l.33-.804c1.064-2.616 1.984-4.874 4.433-6.003.866-.4 1.653-.892 2.413-1.37l157.838-95.58a9212 9212 0 0 0-7.677 16.22c-8.249 17.457-16.778 35.505-25.493 53.088-1.32 2.665-4.029 4.909-6.649 7.078-.962.796-1.919 1.59-2.815 2.402-9.538 8.65-19.093 17.283-28.648 25.914-12.835 11.597-25.67 23.194-38.468 34.832-3.162 2.875-6.135 4.142-9.942 4.233l-2.165.052c-17.75.429-36.105.87-54.127 2.018-4.27.27-5.23-.421-5.446-.731-.648-.932.9-4.387 1.481-5.687m507.664-585.367c-4.033 1.187-5.39 3.812-6.48 5.92-.266.513-.523 1.015-.819 1.478l-17.834 27.786c-42.99 66.976-87.445 136.233-130.829 204.566-3.792 5.973-7.435 7.727-14.98 7.222-19.97-1.335-40.287-2.444-59.933-3.517a9978 9978 0 0 1-30.474-1.697c-.746-.043-1.517.009-2.264.06-2.2.15-3.295.12-3.82-.81-.53-.932-.109-1.624 1.512-3.366.506-.544 1.028-1.106 1.447-1.711 26.783-38.705 58.44-84.406 90.171-129.892 3.143-4.504 4.48-8.775 4.333-13.85a48392 48392 0 0 1-5.203-194.108c-.146-5.863-1.752-10.773-5.055-15.453-15.608-22.12-31.37-44.685-46.613-66.508l-16.382-23.443c-5.254-7.514-10.515-15.022-16.154-23.071L1471.176 96v4.743c0 1.763-.02 3.22-.038 4.482-.032 2.292-.055 3.948.066 5.632 2.038 28.5 4.097 56.998 6.157 85.496l6.702 93.039c3.2 44.558 6.508 90.632 9.855 135.942.411 5.564-.877 9.849-4.31 14.325-13.03 16.99-26.145 34.36-38.828 51.16a14393 14393 0 0 1-22.21 29.368c-.325.428-.627.894-.932 1.369-.875 1.363-1.555 2.335-2.71 2.805-.13-.876-.27-1.777-.492-2.67-1.147-4.638-1.745-9.536-2.324-14.274-1.073-8.77-2.18-17.838-6.772-26.051-11.893-21.282-24.13-42.835-35.965-63.681l-8.122-14.31a6164 6164 0 0 0-14.926-26.112l-10.439-18.216v5.624c0 1.61-.022 2.893-.039 3.97-.033 1.918-.055 3.184.07 4.5 1.173 12.439 2.337 24.878 3.501 37.318 3.901 41.659 7.934 84.739 12.218 127.078 1.117 11.04.114 20.022-8.414 27.965-7.86 7.322-14.538 16.075-20.995 24.54l-.797 1.045c-7.794 10.21-17.427 17.663-29.45 22.782-9.102 3.876-18.116 8.325-26.834 12.625-5.758 2.842-11.712 5.779-17.624 8.518-5.344 2.477-9.607 5.848-13.415 10.61-8.899 11.132-17.914 22.13-27.457 33.776-3.063 3.737-6.176 7.535-9.35 11.417-.58-3.395-1.15-6.697-1.71-9.93-1.688-9.764-3.283-18.988-4.694-28.18-1.23-8.01-3.694-14.345-7.756-19.936-17.292-23.81-34.74-48.117-51.614-71.624a26481 26481 0 0 0-28.977-40.321c-.319-.444-.612-.924-.914-1.414-1.165-1.896-2.615-4.256-5.92-5.495l-2.719-1.02 1.198 4.517c.243.928.428 1.64.635 2.348 5.17 17.709 10.295 35.432 15.42 53.155 13.663 47.252 27.792 96.112 42.584 143.899 4.8 15.508 5.127 27.528-8.056 39.52-5.15 4.683-8.89 7.035-15.382 7.036-12.492-.043-24.985-.097-37.479-.151-58.34-.253-118.668-.515-177.989.498-20.373.35-32.19-5.4-40.78-19.838-2.448-4.113-3.448-7.021-2.123-11.498 10.355-34.961 20.73-70.552 30.762-104.97l34.081-116.818-3.628 2.785c-.652.5-1.174.865-1.595 1.159-.788.55-1.356.948-1.798 1.562a121635 121635 0 0 0-35.219 49.07c-17.287 24.09-34.572 48.18-51.88 72.254-2.215 3.078-2.989 6.4-3.497 9.534-1.783 11.012-3.703 22.04-5.735 33.716l-1.755 10.11a713 713 0 0 0-6.255-7.337c-5.62-6.533-10.93-12.704-15.374-19.32-12.302-18.312-29.146-31.48-51.495-40.256-21.217-8.331-44.934-19.993-59.979-43.317-4.29-6.651-9.804-12.597-15.134-18.346-1.037-1.12-2.072-2.235-3.098-3.355-3.112-3.401-4.235-6.854-3.755-11.55 1.547-15.137 2.985-30.54 4.377-45.433.572-6.131 1.145-12.263 1.727-18.394l11.322-119.263-2.075.55c-3.172.84-4.24 3.177-5.022 4.884-.192.418-.379.83-.596 1.215a11270 11270 0 0 0-17.869 31.583c-12.125 21.478-24.66 43.688-37.275 65.362-6.84 11.753-13.3 24.709-14.24 39.79-.257 4.136-1.138 8.213-2.07 12.53a261 261 0 0 0-.862 4.077c-1.528-1.023-2.428-2.358-3.368-3.751a34 34 0 0 0-1.077-1.537c-4.903-6.455-9.803-13.095-14.543-19.516-10.504-14.232-21.365-28.95-32.987-42.662-13.516-15.948-18.31-31.263-16.029-51.208 3.624-31.665 5.68-64.03 7.668-95.325.77-12.112 1.565-24.636 2.44-36.94 3.984-56.02 7.864-111.444 11.53-164.73.02-.291.102-.61.181-.943.343-1.448 1.056-4.46-2.757-5.82l-1.074-.381-20.96 29.97c-21.054 30.118-42.825 61.262-64.399 91.782-4.079 5.77-5.974 11.518-6.145 18.636-1.635 68.33-3.292 130.674-5.065 190.595-.2 6.73 1.478 12.26 5.441 17.93 14.653 20.96 29.477 42.324 43.813 62.984 14.883 21.448 30.272 43.625 45.49 65.383 2.494 3.566 2.302 4.395 2.238 4.524-.063.13-.597.786-4.858.994-25.714 1.246-59.629 2.978-93.94 5.312-6.078.415-8.842-2.04-11.817-6.71-38.435-60.32-77.655-121.558-115.583-180.78l-11.712-18.288c-6.02-9.4-12.088-18.77-18.597-28.822L304 334.834l.455 5.886c.131 1.68.215 2.968.282 4.008.114 1.758.183 2.82.355 3.916l7.63 48.81c6.77 43.296 13.541 86.592 20.23 129.9.658 4.27 2.73 7.316 5.634 10.575l15.208 17.055c30.477 34.179 61.993 69.52 92.838 104.412 4.145 4.688 8.11 6.172 14.14 5.292 33.321-4.856 67.216-9.687 99.995-14.358 29.861-4.256 59.722-8.512 89.573-12.843 3.84-.558 6.954.017 10.744 1.987 31.732 16.49 73.624 38.226 116.272 60.133 3.536 1.816 5.626 4.55 7.676 8.099a14630 14630 0 0 0 15.876 27.377c8.382 14.432 17.048 29.354 25.491 44.075 1.282 2.236 2.93 4.479 4.522 6.648 3.57 4.855 7.258 9.878 6.474 14.473-.734 4.305-4.527 8.206-8.542 12.338-2.173 2.236-4.42 4.548-6.21 6.992-1.574 2.147-2.932 3.243-4.273 3.45-1.34.205-2.954-.422-5.073-1.977-25.669-18.836-54.896-31.376-89.355-38.342-2.176-.44-4.38-1.111-6.512-1.761-1.179-.36-2.358-.718-3.544-1.045l-119.459-32.92.48 2.382c.154.766.248 1.37.326 1.866.148.938.255 1.616.592 2.287a107812 107812 0 0 0 27.053 53.705c9.954 19.75 19.91 39.502 29.85 59.26 1.767 3.512 4.323 6.053 6.352 7.873 27.237 24.439 50.093 44.996 73.106 65.886 3.914 3.554 8.046 5.3 13.395 5.66 11.705.789 23.602 1.738 35.106 2.654 10.61.846 21.578 1.72 32.38 2.468 4.595.319 5.751 1.515 5.621 5.82-.162 5.369-.1 10.82-.043 16.093.07 6.247.141 12.707-.16 19.02-.538 11.27.038 24.363 8.4 36 1.976 2.752 1.966 6.133 1.957 9.712v.392c-.017 7.326-.148 14.79-.277 22.008-.3 17.03-.613 34.64.581 51.889 2.474 35.777-3.957 67.614-19.659 97.329-1.804 3.417-3.229 7.06-4.607 10.584l-.652 1.663c-1.624 4.118-3.425 8.273-5.167 12.29-7.206 16.612-14.655 33.789-11.908 53.675 3.126 22.642-1.764 44.24-14.536 64.195-4.259 6.653-3.344 13.193-1.887 18.713l6.261 23.696c12.796 48.4 26.028 98.45 38.34 147.847 5.115 20.518 12.587 36.709 23.516 50.952 7.306 9.522 14.096 19.724 20.662 29.59 3.161 4.75 6.43 9.662 9.72 14.444 5.506 8.004 10.948 16.28 16.211 24.287 12.032 18.3 24.474 37.223 38.623 54.308 19.713 23.8 41.02 46.932 61.623 69.3 10.64 11.553 21.642 23.497 32.288 35.385 2.355 2.63 4.166 3.753 6.056 3.753h.014c2.207-.006 4.056-1.587 6.154-3.958 7.905-8.933 16.076-17.904 23.977-26.581 8.001-8.785 16.275-17.871 24.286-26.93 5.6-6.33 11.534-12.588 17.272-18.64 11.753-12.39 23.904-25.202 33.934-39.431 20.05-28.441 40.004-57.656 59.301-85.91 10.107-14.798 20.215-29.597 30.381-44.355 4.061-5.896 6.942-12.267 8.808-19.475 17.142-66.184 34.645-132.882 49.707-190.203 1.227-4.67 1.913-9.674-1.35-14.622-13.343-20.244-18.52-43.461-15.829-70.981.23-2.356.168-4.731.108-7.03-.046-1.76-.093-3.581-.003-5.334.27-5.21-.719-10.271-3.106-15.93-6.663-15.788-13.336-31.888-19.789-47.458-5.427-13.094-10.855-26.19-16.339-39.26-1.629-3.88-2.384-7.752-2.377-12.184.054-32.572.046-65.142.038-97.713l-.004-19.16-.012-1.428c-.04-3.224-.08-6.27 1.736-8.72 8.773-11.831 9.03-25.563 8.541-38.613-.207-5.55-.163-11.218-.12-16.7.04-5.176.081-10.528-.088-15.8-.157-4.896 1.046-6.245 5.846-6.557 11.894-.775 23.97-1.75 35.646-2.693 10.436-.842 21.227-1.714 31.845-2.438 5.31-.363 9.437-2.121 13.381-5.7 23.843-21.638 47.595-42.931 71.858-64.657 3.737-3.347 6.617-7.101 8.804-11.475 9.323-18.646 18.695-37.268 28.067-55.89a26262 26262 0 0 0 25.14-50.037c.246-.496.552-.984.862-1.484 1.213-1.96 2.724-4.397 1.681-7.811l-.425-1.392-1.404.388c-11.166 3.083-22.287 6.188-33.383 9.286-24.66 6.886-50.16 14.007-75.27 20.602l-5.32 1.393c-35.709 9.342-72.633 19.002-103.278 42.816-1.404 1.09-2.56 1.55-3.538 1.407-.99-.146-2.026-.93-3.169-2.398-3.884-4.99-8.556-10.81-13.768-16.177-3.045-3.135-3.203-5.397-.678-9.683 16.58-28.127 32.348-55.373 51.237-88.07 1.985-3.436 4.238-5.674 7.305-7.256a30329 30329 0 0 0 116.983-60.688c3.173-1.655 6.15-2.127 9.953-1.577 23.916 3.454 47.84 6.859 71.764 10.264 38.05 5.416 77.395 11.016 116.061 16.732 7.24 1.07 12.035-.738 17.093-6.452 35.841-40.48 72.014-80.933 106.996-120.053 3.167-3.541 4.923-7.366 5.693-12.401 4.878-31.874 9.99-64.26 14.935-95.58 1.815-11.504 3.632-23.008 5.44-34.515 1.825-11.603 3.625-23.211 5.457-35.022l2.916-18.774Z"/></g></svg>