<svg xmlns="http://www.w3.org/2000/svg" width="1984.25" height="1984.25" viewBox="0 0 1984.25 1984.25"><defs><clipPath id="clip_1"><path d="M0-.002h1984.252V1984.25H0Z"/></clipPath></defs><g clip-path="url(#clip_1)"><path d="M1287.965 603.518c6.764-4.96 17.606-6.52 18.916-17.16.7-5.7-2.511-10.246-8.54-11.572-5.64-1.24-19.09 11.048-19.184 16.971-.086 5.353.837 10.31 8.808 11.761M1174.02 457.416c7.04 19.01 18.698 33.797 33.316 48.397 4.894-26.254-11.462-49.59-33.316-48.397m-58.032 726.166c3.984-4.803 8.994-10.909 6.767-13.672-7.914-9.815-.307-14.325 5.794-19.477 4.374-3.695 6.628-8.418 7.836-13.285 3.585-14.434 7.632-28.907 9.277-43.58 1.567-13.968.337-28.208.337-42.328-17.665 25.43-26.971 52.227-32.092 80.19-3.102 16.945-10.588 34.307 2.08 52.152m107.204-689.657c-7.842 20.807 27.984 65.566 50.156 69.053 2.436.383 5.08.766 7.429.292 7.232-1.459 10.59-3.42 8.373-12.529-8.142-33.44-33.744-48.124-65.958-56.816M872.333 1270.94c17.653 18.981 39.784 15.473 58.437 20.948 10.017 2.94 23.893-6.825 28.9-14.48 4.556-6.963 6.07-18.248 7.587-27.94 1.447-9.242-3.692-12.98-11.565-11.058-10.811 2.64-11.461-2.888-12.158-9.663-1.157-11.24-7.498-19.688-15.7-27.712-10.502-10.273-24.434-14.486-37.472-20.387-19.616-8.877-21.306-13.005-12.617-31.32.642-1.354.918-2.53-1.66-3.883-10.507 2.808-24.736-3.363-33.315 6.476-16.714 19.17-33.38 38.51-40.096 63.513-5.084 18.93-12.251 37.38-18.55 56.028-3.572 10.577-3.161 20.514 1.475 31.173 6.575 15.112 15.837 28.83 23.294 43.437 2.02 3.958 1.173 11.037 7.8 9.955 6.529-1.065 8.92-6.992 7.782-13.326-2.035-11.317 2.672-19.26 12.49-26.255 7.04-5.012 12.138-12.4 17.953-18.846 3.224-3.574 5.957-9.253 10.744-9.276 11.804-.056 11.574-5.646 6.67-17.384m239.637-284.73c-17.705 9.3-35.651 15.25-52.876 22.55-22.757 9.644-45.141 20.385-44.634 50.03.235 13.807-9.112 26.22-19.515 36.918-14.42 14.827-32.852 24.59-50.413 35.462-21.241 13.15-24.358 29.178-6.376 45.28 22.612 20.247 40.456 43.998 60.389 66.214 2.64 2.943 5.115 5.815 4.83 9.92-.715 10.245 5.692 8.75 12.27 6.184 20.04-7.814 33.896-25.847 56.526-29.575 1.195-.197 2.648-3.037 2.682-4.67.223-10.614 6.06-19.3 10.133-28.723 2.333-5.403 5.223-15.757-8.891-12.309-8.143 1.99-5.663-3.14-5.17-5.967 2.78-15.903 1.688-32.114 10.476-47.448 9.572-16.705 15.446-35.219 23.18-52.85 3.655-8.326 7.599-17.445 4.943-25.697-6.971-21.657 1.029-42.31 2.446-65.32m-551.843 614.41c8.793-13.3 17.428-26.695 26.422-39.878 9.657-14.156 18.789-28.507 24.238-44.623 2.435-7.2 6.452-13.416 12.553-18.693 17.766-15.369 29.78-34.378 42.812-53.256 8.539-12.37 11.453-22.845 10.456-37.969 8.82 7.815 14.733 10.765 23.79 1.262 7.525-7.896 20.687-10.8 25.958-22.027 1.539-3.278 6.089-4.696 10.2-5.427 5.385-.957 10.722-2.215 16.144-2.909 7.56-.968 8.665-5.919 7.989-11.33-1.371-10.969 10.314-22.933-2.621-32.914-4.287-3.306-6.967 2.672-11.434 2.48-.33-24.795-3.633-49.58 8.728-73.393 8.668-16.698 15.09-34.4 22.482-51.667 7.545-17.627 4.588-36.16 3.567-54.075-1.133-19.865 2.285-35.489 23.718-44.318 5.394-2.222 9.788-6.555 14.593-9.977 12.475-8.886 20.983-19.457 20.12-35.21-.743-13.565.08-27.198-.255-40.792-.222-8.953-4.926-12.703-13.258-6.388-2.607 1.974-6.182 2.467-9.976 2.65-2.803.134-8.19 8.138-10.928 8.406-.817.08 3.714-8.259.07-7.705-3.05.465-5.686 1.745-7.498 4.264.359-2.013 3.82-8.376 2.97-9.635-3.713-5.506-3.208-5.549.61-15.142 13.88-34.878 33.913-66.977 51.17-100.332 12.157-23.494 35.75-31.392 56.862-43.139 12.56-6.989 27.022-9.277 41.296-11.99 40.156-7.632 76.128-25.282 112.427-41.872 20.694-9.458 42.016-17.822 61.348-29.833 35.664-22.158 63.105-50.42 75.676-89.043 6.13-18.839 16.493-35.467 26.242-52.56 3.06-5.366 9.188-11.65-.76-16.423-15.244-7.313-18.05-18.45-13.286-32.755 1.135-3.407.168-7.417.168-13.068 13.824 8.363 29.456 12.473 29.319 30.6-.025 3.351-1.61 10.417 5.648 8.744 6.318-1.457 14.926-4.204 13.267-12.712-1.923-9.859-4.306-19.286-13.972-26.77-29.475-22.823-57.132-47.425-74.484-80.078-2.647-4.98-5.237-10.004-7.518-15.137-5.993-13.476-7.55-29.796-28.57-34.477 12.434.004 13.738-2.003 11.01-12.643-5.817-22.695-22.97-31.043-43.658-37.163-16.75-4.955-33.642-9.248-45.327-23.217-4.423-5.287-7.963-10.305-9.687-20.12 12.842 16.657 27.452 26.227 45.868 29.967 14.743 2.994 16.338 1.201 11.95-11.609-3.593-10.49-3.593-10.49-1.834-22.582 5.477 9.153 9.664 16.834 14.542 24.116 5.267 7.865 10.712 15.473 18.775 21.571 10.239 7.744 15.292 4.357 21.045-4.767 7.512-11.914 6.95-25.84 13.029-40.937 3.905 21.917-2.902 39.94-6.508 58.21-2.122 10.754-2.49 21.382-.197 32.015.952 4.412 2.085 9.138 9.65 7.477 6.542-1.437 8.405-5.244 7.248-10.262-2.331-10.106-3.888-20.158-1.81-33.7 5.269 26.08 13.348 47.867 31.289 66.532 8.23-20.18 8.406-42.42 25.29-63.365-4.678 21.198-10.932 37.897-13.086 55.513-2.347 19.197 1.998 25.752 25.63 30.42-.15-18.839-3.994-38.253 8.725-54.429 0 13.232-.236 26.853.08 40.462.22 9.444 1.803 20.885 10.475 24.764 10.68 4.775 23.644 2.79 33.902-5.159 11.069-8.578 17.758-20.163 24.97-31.353 1.533-2.376 1.944-5.35 6.596-6.229-1.327 15.746-8.98 28.67-19.011 40.195-20.998 24.127-22.084 28.722-9.443 59.608 19.706-8.456 30.939-24.41 43.993-44.193-3.648 19.915-13.88 31.583-24.586 43.19-4.31 4.672-14.653 7.613-11.496 14.674 4.095 9.157 9.945 18.9 21.352 22.463 18.084 5.65 35.176 3.142 48.998-9.382 7.822-7.087 16.432-13.926 21.12-25.248.018 18.602-10.33 31.893-33.111 44.197 21.207 7.502 31.623.61 51.547-34.114 3.739 26.591-20.008 56.453-54.708 49.004-10.385-2.23-20.297-5.239-29.988-9.259-8.526-3.537-17.234-5.25-25.33 1.217 1.12 5.117 6.25 4.522 9.736 4.911 22.77 2.543 31.576 24.795 51.619 31.1 2.736.861 4.787 3.473 7.484 4.587 7.08 2.924 17.813 1.574 15.285 14.153-2.417 12.02-10.43 18.02-22.355 19.412-15.052 1.757-29.66 4.935-44.07 9.085-18.95 5.457-21.425 9.806-14.805 27.631 5.757 15.508 6.586 30.912 1.757 46.761-7.918 25.995-15.141 52.114-21.3 78.577-4.484 19.264-14.532 37.443-22.42 55.988-6.146 14.452-18.57 22.741-33.818 27.703-15.45 5.028-24.05 14.903-28.19 29.6-4.437 15.746-11.326 30.817-19.272 45.394-6.836 12.541-13.922 24.948-8.767 39.873.816 2.365.392 6.12-1.172 8.013-22.635 27.407-17.13 60.577-22.37 91.561-1.981 11.717-7.357 22.968-3.04 35.275 1.225 3.49 1.535 7.161 4.438 10.276 9.714-5.963 20.078-8.815 22.648-23.1 2.49-13.856 28.225-16.389 38.902-5.535 9.526 9.683 15.41 20.263 11.433 34.188-1.903 6.66-2.147 13.702.61 20.76 2.009 5.143 4.887 12.51 2.515 16.183-11.3 17.503-4.78 33.965-.554 51.46 4.52 18.721-4.323 36.818-8.065 55.04-2.121 10.323-1.412 20.142-.373 30.46 2.739 27.203-1.351 53.988-9.97 80.07-5.375 16.267-9.438 32.867-6.6 49.673 4.125 24.417-10.285 45.26-13.121 68.232-2 16.206-4.31 32.38-6.668 49.971-7.958-6.279-4.521-15.023-6.236-21.712-3.796-14.807-4.314-30.132-9.893-44.907-3.793-10.046.294-21.343 2.474-31.908 6.46-31.32-7.444-59.293-16.73-87.98-2.868-8.865-6.74-17.443-7.778-28.885-5.478 10.681-8.614 19.847-9.78 30.911-7.478-6.412-6.577-14.055-6.182-20.59 1.16-19.158-26.877-40.36-45.104-31.794-20.698 9.726-38.306 8.97-55.022-5.828-4.74-4.195-9.251-2.65-13.377.25-17.821 12.525-37.547 21.551-58.558 28.415-9.43 3.081-12.306 12.02-17.464 18.632-5.25 6.73-11.728 10.87-20.055 10.61-19.04-.597-30.881 9.903-41.324 22.118-10.66 12.47-21.738 24.527-34.091 35.531-3.847 3.426-8.15 8.682-14.005 6.535-5.78-2.119-7.963-8.438-8.98-13.79-.852-4.492-1.114-8.873-2.803-13.399-2.065-5.535 1.36-13.304-11.34-9.228-5.665 1.82-5.405-8.61-10.923-13.424l-19.198 41.17c-21.168-20.005-13.192-47.638-21.995-71.459-15.801 37.64-45.398 70.18-44.76 113.077-2.654 1.702-4.754-.329-7.092-.756-5.56-1.015-12.55-8.15-15.86 1.914-2.114 6.424-14.822 13.857.497 20.021 3.324 1.338 2.619 3.832 2.248 5.891-4.126 22.857-4.487 46.365-15.138 68.087-4.747 9.68-11.922 19.273-22.394 17.797-8.606-1.213-16.46-10.915-19.485-19.928a333 333 0 0 1-11.618-44.648c-1.278-6.833-4.61-9.257-10.821-11.406-6.811-2.355-10.562-.015-15.922 3.841-14.913 10.728-25.253 26.228-44.375 32.787"/></g></svg>