<svg xmlns="http://www.w3.org/2000/svg" width="2985.19" height="1920" viewBox="0 0 2985.19 1920"><defs><clipPath id="clip_1"><path d="M0 0h2985.193v1920H0Z"/></clipPath></defs><g fill="#231f20" clip-path="url(#clip_1)"><path d="M462.804 1555.057c-18.137-25.292-33.966-49.662-20.38-81.656.33-.782.657-1.612.99-2.461 2.163-5.52 3.994-9.438 7.885-9.58a7 7 0 0 1 .322-.007c5.08 0 7.076 4.898 9.139 11.28q.239.742.47 1.439v.004c9.055 26.96 6.363 54.739 1.574 80.98m-98.961-1185.51c-24.405 23.175-36.037 50.036-33.701 77.767-4.315 2.149-18.33 9.81-30.151 23.959-1.175-15.438-7.843-58.894-45.598-77.114l-.478-.231-.528.037c-.21.014-5.13.417-8.364 6.187-5.398 9.63-5.42 33.392 24.849 91.863-4.913 4.586-24.438 23.548-37.428 46.818-1.687-6.467-4.171-22.692-2.24-59.374 2.196-2.7 11.13-14.651 7.515-26.24l-.301-.962-.953-.331c-.273-.095-6.77-2.29-13.158.857-4.21 2.074-7.324 5.917-9.262 11.426a.2.2 0 0 1-.07.022c-.036.003-.142-.027-.303-.133-.633-2.477-3.387-9.327-14.378-8.605-.8.02-8.163.364-10.658 5.593-2.038 4.27-.201 9.947 5.616 17.35l.174.194c.462.452 11.013 10.759 17.504 15.9.462 7.674 3.63 62.349 1.932 88.41-6.794-9.551-24.351-29.855-53.615-34.917l-2.247-.388-.092 2.278c-.018.458-.377 11.385 6.147 27.085 5.97 14.368 19.128 35.638 47.903 55.378l.408.28.49.057c.754.088 18.449 2.033 30.277-6.748 1.66-.555 3.55-.923 4.548-.907-.273.619-.991 1.839-2.878 3.958-1.498.948-11.306 6.892-24.786 8.982l-1.667.259-.026 1.687c-.006.368-.568 34.182-3.591 50.727-9.224-9.82-40.452-40.058-68.455-32.07l-1.557.445.11 1.614c.042.623 1.137 15.457 10.307 32.238 8.32 15.225 25.105 34.829 57.978 42.574-1.05 8.612-4.231 43.858 12.816 50.715l1.949.784.687-1.985c3.607-10.42 14.047-36.48 23.28-45.603-1.084 7.983-4.45 25.165-14.245 38.899l-.17.285c-.377.773-8.247 17.085-8.383 29.638-8.325-5.747-30.024-18.41-55.055-14.588l-2.161.33.52 2.123c.374 1.526 9.537 37.5 42.705 48.875.352.104 34.86 10.57 38.827 25.517-6.656 24.51-10.837 50.569-12.192 75.846-4.837-8.895-12.645-22.207-18.433-26.994 1.933-7.3 9.962-41.506-2.258-65.007l-2.611-5.022-1.124 5.548c-.051.253-4.824 23.437-13.678 35.933-3.28-13.138-15.738-52.771-46.486-52.084l-5.627.126 4.446 3.453c15.698 12.19 29.029 48.203 32.738 62.87l.716 4.678c-1.692 2.62-10.27 14.698-36.907 36.25l-4.03 3.262 5.176.29c1.194.068 29.42 1.37 54.277-21.913.668-.18 1.787-.34 2.453-.01.199.1.447.284.613.833l.148.49.364.36c.258.253 25.82 25.738 30.532 58.494l.165-.012c.232 2.438.413 3.762.434 3.9 6.937 37.79 16.288 77.163 47.096 106.782 10.877 10.468 12.562 23.204 11.746 39.104-.765 14.704-1.3 29.66-1.815 44.124-1.424 39.887-2.896 81.133-9.365 121.312l-1.861 11.568c-4.468 27.779-9.09 56.504-13.53 84.776-1.802 11.588-7.304 16.338-21.023 18.152-21.974 2.887-32.733 5.112-57.493 27.622l-.085.08c-13.171 13.462-19.154 30.659-14.89 42.787 1.978 5.662 5.995 10.086 11.619 12.793 6.835 3.289 15.16 3.628 22.844.93 24.277-8.527 40.006-30.175 48.877-46.75a622 622 0 0 1 1.872-3.096c4.41-7.275 8.222-13.56 10.59-21.512 1.518-5.128 3.738-7.127 7.663-6.9 4.395.259 8.832.214 13.122.17 9.749-.1 18.956-.193 28.284 2.899 6.314 2.104 7.723 3.822 8.38 10.213 3.692 36.239 17.56 65.688 42.385 90.025 4.269 4.226 15.826 9.782 21.905 6.183 16.97-10.102 9.634-32.862 3.338-43.581-6.478-14.461-16.004-24.493-25.217-34.195-6.096-6.42-12.374-13.031-17.65-20.87 13.4.97 26.014 4.45 38.246 7.825 9.328 2.573 18.973 5.234 28.687 6.672 5.145.765 8.25 2.188 9.492 4.348 1.328 2.31.874 5.962-1.473 11.84-16.162 40.548.444 74.78 16.723 100.083 1.015 1.56 2.785 3.715 4.835 6.209 1.413 1.72 2.942 3.58 4.277 5.327H102.48V343.329h297.87c-5.56 2.896-21.212 11.694-36.507 26.218m292.48 1099.473c21.979-13.077 58.36-9.104 82.285 3.419-23.87 7.33-50.373 11.209-82.285-3.42m-131.476-17.96c27.106-20.49 58.5-31.398 93.523-32.502-6.91 3.157-13.702 6.624-20.338 10.01-22.62 11.544-45.963 23.455-73.185 22.493m-17.501 10.09c.102-.183.82-1.1 5.013-1.1h.07l.732.004c4.3.014 8.746.028 12.269 1.504h.002c22.8 9.527 45.882 19.488 68.204 29.12 7.246 3.127 14.49 6.254 21.736 9.37q.505.217 1.033.435c4.262 1.775 5.479 2.689 4.788 4.948-.313 1.024-3.171 2.794-6.532 3.629q-1.775.447-3.548.903c-9.121 2.338-17.736 4.547-24.662 3.498l-.3-.023c-32.677 0-56.33-14.384-76.695-46.64-2.656-4.204-2.224-5.442-2.11-5.647m-148.672-58.113c4.086-10.021 20.063-20.09 20.179-20.163 1.56-.918 3.126-1.857 4.705-2.803 13.417-8.046 27.259-16.348 45.56-16.68-17.393 22.244-39.164 32.52-66.252 40.894-1.85.563-3.486.172-4.086-.482-.181-.198-.257-.387-.106-.766m-9.09 39.757c20.029 16.875 32.749 32.603 43.454 53.59 3.183 7.372 7.228 20.668 4.599 25.165-.801 1.377-2.063 2.61-5.351 1.304-7.645-3.04-19.656-17.471-29.21-35.097-9.575-17.67-14.46-34.095-13.492-44.962m-95.781 13.459c-3.64 4.927-7.076 9.58-11.45 14.605-5.707 6.592-12.67 11.714-18.098 15.44-8.394 5.764-20.243 11.04-29.016 3.443-9.555-8.29-2.736-23.528.639-29.694 2.093-3.824 8.19-11.313 12.844-15.181 15.606-11.78 24.742-16.501 44.939-19.543l.338-.05c6.878-1.025 10.993-1.367 13.42-1.367 1.488 0 2.343.128 2.812.307.557 3.649-.513 5.989-2.1 9.46q-.367.801-.754 1.668c-1.041 2.346-7.427 12.504-9.683 15.68-1.363 1.81-2.643 3.545-3.891 5.232m66.623-714.21a334 334 0 0 0-6.142 7.588c-3.385-1.647-9.16-3.837-15.92-3.837q-.777 0-1.571.039c3.202-3.226 6.929-7.71 8.74-12.527 4.698 3.88 9.688 6.808 14.893 8.737m-40.741-121.31c.822-2.757.118-7.9 4.79-6.12 12.729 4.83 28.528 5.24 35.997 18.673 5.122 9.15 12.044 16.424 19.415 22.896 8.72 7.704 9.308 17.362 11.224 26.748-1.838 11.399-2.855 22.446-8.114 32.633-7.392 14.37-17.324 16.757-30.463 6.609-27.374-21.195-42.665-68.492-32.85-101.438m158.59-11.786c-2.94 4.412-7.905 5.448-14.776 6.883q-1.193.248-2.488.526c3.873-6.828 5.334-13.723 6.755-20.428 1.183-5.577 2.317-10.928 4.849-15.736.712 3.634 2.389 7.034 4.032 10.363 3.172 6.427 5.91 11.978 1.629 18.392m-139.393-1.85-.407.083c-22.541-6.402-33.707-18.32-36.994-39.118-.091-.547.412-1.808.856-2.143.22-.166.436-.258.709-.258.538 0 1.299.356 2.754 1.195 14.106 8.162 21.834 21.23 30.782 36.362q1.13 1.914 2.3 3.879m117.435-40.155c3.308 6.073 4.235 11.482 2.753 16.152-1.133 3.57-3.571 6.312-6.201 8.35 4.54-7.885 4.495-17.346 3.448-24.502m-13.167 44.898c-17.752-3.073-36.731-5.391-56.42 2.762-5.05 2.09-7.03-.803-10.66-8.418-.272-.57-.548-1.148-.83-1.725 7.364.065 14.648-.113 21.722-.287 19.13-.47 37.239-.913 55.537 3.206-1.498 2.628-4.662 5.268-9.35 4.462m-79.59 1.39c10.182 11.337 21.49 21.223 37.854 7.1l.006-.005c1.45-1.263 4.332-1.034 7.95.564-8.852 7.97-14.827 15.815-18.696 24.506-1.647 3.697-2.765 4.239-3.17 4.3-.356.055-1.427-.093-3.668-2.635-3.268-3.72-6.13-7.684-9.158-11.881-6.786-9.403-13.775-19.088-25.658-26.06 9.259-1.82 9.777-1.238 14.54 4.112m35.188 47.2c-1.178-9.454 4.314-19.623 14.692-27.202 8.329-6.083 18.044-9.34 26.752-9.34 4.28 0 8.317.788 11.827 2.412 1.566.726 2.504 1.553 2.788 2.46.285.906-.024 2.142-.922 3.679-6.276 10.842-9.183 22.869-11.994 34.5-2.996 12.397-6.094 25.216-13.29 36.688-10.238 16.323-21.824 21.09-40.18 23.337 10.593-19.382 13.68-39.544 10.327-66.533m-53.136-80.75c4.75 4.857 9.295 10.102 8.18 16.138-.341 1.902-3.796 1.56-7.463.91-9.355-1.73-10.318-9.928-10.06-14.658.638-11.351-7.056-16.012-13.84-20.121-1.458-.89-3.16-1.362-4.807-1.82-3.513-.978-4.954-1.576-5.048-3.588-.247-5.102 4.268-7.97 9.752-10.934.68-.371 1.298-.811 1.896-1.237 1.248-.89 2.22-1.584 3.475-1.584q.468-.002 1.003.139c-2.915 16.477 8.046 27.689 16.912 36.755m518.163 259.492c-5.3 0-9.6-1.878-9.6-4.185 0-2.308 4.3-4.184 9.6-4.184s9.582 1.876 9.582 4.184c0 2.307-4.283 4.185-9.582 4.185m-31.493 134.16c-.228-16.851 12.773-19.84 25.522-20.538l.003-.001c7.456-.421 25.062.593 27.508 19.09.617 4.653-1.318 9.81-5.448 14.519-5.553 6.33-13.934 10.416-21.36 10.416h-.025c-14.124-.036-25.877-10.582-26.2-23.485m49.13-200.268v.002c.796 9.998.148 20.274-1.983 31.407-.101.517-.202 1.116-.313 1.772-.62 3.66-1.657 9.786-4.833 11.974-1.194.82-2.648 1.047-4.442.689-5.275-1.062-9.441-1.9-9.423-17.435 0-5.884 0-10.968.23-17.945.673-7.462 1.368-14.922 2.062-22.381 3.89-41.776 7.913-84.975 7.68-127.895-.06-11.55 2.816-31.48 22.734-35.213 2.702-.511 5.445.327 8.152 2.493 7.248 5.798 12.658 19.953 13.155 34.423.667 19.079-3.15 36.396-11.667 52.942-11.327 22.03-23.99 51.619-21.352 85.167m-439.653 257.918c.614-1.408 3.695-2.437 9.16-3.06 33.053-3.828 61.102-4.562 85.75-2.244l.14.014 6.779-.316c28.14-1.32 54.722-2.568 81.134 2.255 5.672 1.024 7.224 2.175 7.527 2.96.273.707-.02 2.354-2.964 6.183-21.8 28.122-44.43 42.08-71.213 43.927-9.181.632-18.607.52-27.724.412-3.538-.041-7.146-.084-10.764-.084-2.556 0-5.118.02-7.662.079-32.507.727-51.332-21.165-66.425-41.75-3.078-4.193-4.336-7.011-3.738-8.376m124.096-54.072c.507.21 1.032.43 1.572.57 18.659 5.013 35.309 15.055 51.41 24.767 3.99 2.407 8.117 4.895 12.217 7.274 3.199 1.858 4.724 3.22 4.184 5.503-.474 1.959-1.558 2.227-5.038 2.13a43 43 0 0 0-1.212-.023h-.003c-4.34.006-8.753.072-13.021.136-22.776.34-46.327.69-68.308-7.956-12.246-4.795-23.91-4.596-32.84.56-15.042 8.709-30.577 8.056-47.025 7.365-8.688-.366-17.672-.744-26.443.42-1.517.19-4.151-.821-4.952-1.91-.682-.914-.668-1.517-.6-1.891.193-1.027 1.333-2.263 3.13-3.393 3.389-2.13 6.807-4.35 10.11-6.496 18.403-11.953 37.423-24.308 62.315-28.366 13.909 9.795 31.374 10.086 53.372.893.273.06.8.28 1.132.417m-189.797-232.02q.46.005.907 0c-.958 4.999-2.474 14.998-2.231 27.203-3.315 2.23-8.97 6.813-12.403 13.894-1.481-4.615-3.996-10.863-7.82-15.64 9.4-12.841 17.297-21.251 21.547-25.457M285.81 888.958l.456-.244.28-.434c.188-.292.32-.317.39-.33.389-.073 1.04.18 1.507.448 13.898 23.43 35.898 28.8 36.833 29.018l5.059 1.182-2.961-4.27c-15.266-22.01-19.251-33.128-20.05-35.733l1.525-3.255c6.087-10.366 24.22-34.835 38.87-40.62l5.229-2.065-5.358-1.702c-23.017-7.308-41.206 18.84-47.205 28.88-3.61-11.494-2.164-29.342-2.146-29.543l.475-5.638-3.913 4.087c-14.502 15.148-16.161 42.695-16.35 49.253-4.912 2.23-12.338 8.924-18.257 14.748 9.602-43.441 26.174-82.218 49.324-115.398 3.007 7.434 7.736 24.585 8.469 36.15l.742 11.73 3.179-11.315c3.165-11.264 8.846-26.957 13.3-32.915.849 9.425 2.81 17.807 5.848 24.962 7.115 16.77 23.022 27.492 47.28 31.866 20.092 3.608 34.08 13.529 42.767 30.334 6.24 12.03 16.696 13.764 27.767 15.599 12.995 2.143 25.738 1.056 38.06.005 6.812-.581 13.856-1.182 20.776-1.21 20.99-.093 34.877-5.225 41.27-15.254 6.219-9.751 5.164-23.841-3.133-41.878-14.853-32.332-22.634-58.132-25.226-83.656-1.76-17.475-3.885-35.206-5.94-52.353-1.783-14.88-3.627-30.267-5.225-45.42-.512-4.838-1.081-9.751-1.63-14.503-4.571-39.496-8.888-76.801 11.462-113.682 8.166-14.837 17.244-22.261 29.434-24.072 46.603-6.9 84.552-14.401 119.428-23.605 26.014-6.845 57.337 4.327 72.365 25.12-30.938-6.803-59.205-11.445-88.37-4.56-11.78 2.782-23.63 6.08-35.09 9.27-24.548 6.834-49.931 13.9-75.905 16.22-8.152.744-15.091 5.569-19.038 13.239-6.49 12.627-8.64 28.303-6.051 44.14 2.622 16.045 9.805 30.119 20.226 39.63.869.792 1.738 1.563 2.598 2.326 7.138 6.335 12.776 11.339 11.66 21.896-.561 5.377 3.193 10.186 7.052 11.305 3.069.889 5.937-.498 7.485-3.622 7.149-14.478 16.1-11.962 26.466-9.05 2.973.836 6.048 1.7 9.112 2.147 6.252.91 12.62 1.91 18.78 2.878 49.47 7.77 100.624 15.807 148.882-13.69 7.953-4.847 15.323-9 22.534-12.695 6.918-3.555 11.452-4.557 13.863-3.061 2.355 1.46 3.448 5.778 3.342 13.198l-.112 7.652c-.4 27.555-.813 56.048-3.904 84.136-5.265 48.162-13.074 111.385-26.85 173.293-12.201 54.985-37.137 102.543-59.92 141.81-9.477 16.327-18.16 27.72-29.727 30.26-10.48 2.3-23.374-2.45-41.81-15.407-8.446-5.926-16.8-12.33-24.878-18.521-11.773-9.023-23.947-18.354-36.674-26.423a747 747 0 0 1-8.924-5.78c-21.76-14.24-44.26-28.965-72.957-24.164l-.543.09c-10.372 1.746-19.33 3.253-29.62.05-7.678-2.388-18.007-2.203-26.96.483-26.45 7.972-49.908 24.148-68.761 37.148-5.02 3.475-6.201 7.367-4.216 13.879 10.512 34.568 54.354 67.252 90.213 67.252 3.232 0 6.515-.061 9.69-.12 8.025-.145 16.323-.297 24.323.52 3.595.368 7.113.554 10.569.554 30.818-.002 56.25-14.773 79.344-45.853 4.732-6.37 9.285-9.753 13.92-10.347 4.787-.611 10.066 1.556 16.616 6.822 15.93 12.81 33.455 25.618 53.63 32.536 5.49 1.886 8.642 4.097 9.367 6.573.736 2.517-.773 6.024-4.75 11.037-2.91 3.663-6.198 7.48-10.348 12.014-32.732 35.703-73.158 67.739-120.155 95.218-33.213 19.415-69.162 34.01-106.99 9.569-4.472-2.89-9.081-5.721-13.538-8.46-6.12-3.76-12.445-7.648-18.474-11.716-36.848-24.894-72.547-49.775-104.238-80.395-42.422-40.993-63.614-95.632-59.674-153.85a425 425 0 0 1 4.13-36.868c12.092-17.126 29.796-26.753 29.974-26.85m4.452-14.588c-3.09-.96-5.611 1.27-5.611 1.27.703-11.965 5.826-29.074 7.587-34.666-2.601 9.835-1.976 33.396-1.976 33.396m9.366 9.698s12.279 20.217 19.787 27.04c-4.477-3.733-18.106-15.367-25.184-25.066 0 0 3.324.509 5.397-1.974m5.435-24.813c7.939-8.993 22.545-19.298 27.374-22.583-8.114 6.12-22.173 25.047-22.173 25.047-1.837-2.66-5.201-2.464-5.201-2.464m513.352-6.823c-5.3 0-9.6-1.877-9.6-4.204 0-2.307 4.3-4.164 9.6-4.164s9.58 1.857 9.58 4.164c0 2.327-4.281 4.204-9.58 4.204m-12.484 82.428c-1.453 9.112-11.102 17.31-27.986 23.835 5.082-15.9 9.96-31.192 15.1-47.325 9.625 7.973 14.072 16.056 12.886 23.49m-5.421-40.034c.13-11.19 5.174-17.186 15.869-18.872 1.767-.277 3.75-.518 5.786-.518 2.682 0 5.454.419 7.934 1.723 5.744 3.002 8.897 8.357 8.88 15.074-.022 5.873-1.655 10.41-4.855 13.484-4.073 3.914-10.862 5.725-20.173 5.387h-.002c-8.536-.3-13.56-6.385-13.44-16.278m4.082-31.758c0-2.307 4.302-4.184 9.582-4.184 5.298 0 9.599 1.877 9.599 4.184s-4.301 4.165-9.6 4.165c-5.28 0-9.581-1.857-9.581-4.165m-30.823 233.897c-1.622-6.874-1.367-11.697-.485-16.814 1.27-7.297 3.66-12.606 6.239-13.855.643-.311 1.705-.614 3.489.352 2.287 1.237 2.14 2.308.373 7.22-.6 1.669-1.281 3.56-1.812 5.718-4.806 19.603 1.495 37.823 16.855 48.74 13.934 9.888 27.538 12.376 40.435 7.395l7.725-2.406c1.262-.4 2.472-.492 3.56-.283.706.148 1.012.326 1.126.43.775.737.913 1.179.9 1.287-.06.549-1.77 1.563-2.498 1.996-.377.224-.732.436-1.045.642-15.07 10.033-30.505 10.769-44.636 2.13-20.167-12.364-29.726-41.016-30.226-42.552m103.805-8.537c-1.804-10.383-6.57-19.988-13.55-27.841 8.748 6.436 14.17 14.214 15.952 23.044 1.312 6.503.518 13.517-2.103 20.337.713-4.954.629-10.191-.3-15.54m-18.203 26.752c-1.07 1.406-2.341 2.703-3.308 3.654-5.516 5.265-12.613 9.252-20.52 11.53-2.04.583-3.715.939-4.697 1.002-13.061.677-25.651-5.031-33.68-15.264-7.938-10.118-10.256-23.358-6.358-36.325 5.69-18.946 14.559-28.286 27.91-29.396a45 45 0 0 1 3.684-.153c15.926 0 29.965 8.649 38.922 24.148 8.258 14.296 7.585 28.403-1.953 40.804m-554.52-558.128s7.039 10.089 19.709 22.857c15.642 17.969 36.642 12.454 55.255 10.83 16.503-1.425 19.26-19.238 7.88-38.83 11.77-.47 21.255 10.676 20.277 21.899-.96 10.989-3.872 19.26-14.1 21.176-19.277 3.597-44.558 5.787-59.145-1.584-23.834-12.025-36.016-35.586-36.016-35.586-6.412-13.393 3.872-19.318 21.176-24.675-14.743 7.645-19.435 13.238-15.036 23.913m20.217 18.34c-23.424-20.295-12.963-28.194-12.963-28.194 1.369 8.426 12.612 27.588 12.963 28.194m-5.22-33.493c-.665-.94-.274-2.033.528-3.09 2.15-2.835 5.905-3.93 9.347-3.05a43 43 0 0 1 3.089.919c8.368 3.344 18.3 5.22 18.3 5.22-13.12 5.456-31.264 0-31.264 0m41.51 31.657c-.312 3.753-2.19 6.999-6.101 5.435-7.136-3.441-14.37-6.413-21.038-10.383-2.913-1.72-.664-4.673 1.252-6.588 3.284-3.285 6.588-1.976 10.206-.392 4.966 2.15 4.399 17.07 14.86 6.53.743 1.213.899 4.478.82 5.398m-12.551-18.086c-.783-.607-1.193-1.663-2.68-3.834 20.199-8.133 28.84-5.592 39.419 11.537 3.304 5.338 4.106 11.536-.196 16.325-3.911 4.342-9.444 6.844-15.8 5.926-3.01-.43-6.02-2.777-4.75-5.045 10.794-18.967-7.938-18.42-15.993-24.91m-152.628 363.54c1.623 3.715 5.808 4.282 5.808 4.282-11.928 9.17-32.418 18.399-39.125 21.313 11.73-5.81 33.45-25.697 33.317-25.595m-4.927-30.658s-10.284-27.745-17.91-37.952c4.673 5.67 18.633 23.209 25.028 36.818 0 0-3.99-1.408-7.118 1.134m25.946 25.77s-2.267-3.578-6.315-3.5c0 0 9.033-28.156 9.346-40.904.157 7.332.312 29.739-3.031 44.404m260.74 493.87.168-.223c12.714-17.002 47.86-38.298 48.133-38.465.618-.334 1.325-.787 2.143-1.312 2.936-1.883 5.92-3.638 8.228-3.638.89 0 1.679.26 2.325.876 1.138 1.068-.826 6.328-2.674 10.55a58 58 0 0 0-.808 1.9c-5.98 15.116-17.686 27.846-35.783 38.914a1346 1346 0 0 0-7.131 4.378c-9.67 5.963-19.633 12.108-31.771 18.124 5.118-15.002 10.268-21.883 17.17-31.103M510.22 398.579c-5.148-2.228-12.346-5.718-16.778-9.471 3.108-2.378 10.112-7.136 18.097-8.641-2.62 4.668-4.414 11.424-1.32 18.112m-34.866 49.839c-26.411 14.753-53.975 13.56-72.862 9.774-15.12-3.032-27.14-8.14-33.086-10.985 37.985-12.344 90.09-2.346 105.948 1.21M373.31 414.224c-10.271 8.359-20.03 12.806-24.77 14.664 6.743-43.787 46.973-67.258 59.03-73.372-5.691 30.006-21.626 48.426-34.26 58.708m63.849-59.951c.048-.217 1.067-4.914 1.323-10.943h465.34v1233.343H477.236c-.66-1.602-1.16-3.857-.715-6.677 5.748-35.783 8.47-73.79-9.844-109.798 11.412-.895 17.44-1.208 21.466.617 4.244 1.924 6.94 6.679 12.312 16.154 17.189 30.289 53.754 48.999 88.96 48.996 11.848-.001 23.546-2.12 34.293-6.63 1.095-.461 2.434-.812 3.853-1.183 4.558-1.193 10.802-2.826 11.172-10.125.343-7.127-5.445-9.864-10.095-12.063-1.142-.54-2.221-1.05-3.161-1.594-13.008-7.526-26.432-14.812-39.413-21.858a6751 6751 0 0 1-7.494-4.07c4.839.24 9.652.39 14.367.54 24.592.77 47.82 1.5 70.938 13.773 21.869 11.599 50.944 12.484 79.772 2.427 6.107-2.147 13.209-5.596 13.919-13.274.773-8.176-6.07-10.095-11.066-11.496-1.007-.282-1.957-.55-2.823-.847-31.243-10.824-59.8-11.632-87.298-2.471-19.973 6.64-39.132 3.456-59.416.084-7.641-1.27-15.476-2.573-23.381-3.3 28.625-12.547 55.662-24.72 79.783-43.843l4.155-3.294-5.296-.271c-54.348-2.778-98.682 9.11-135.536 36.345-15.161 11.183-27.804 7.067-42.444 2.3l-1.21-.393c12.734-6.316 23.993-14.44 34.919-22.322a941 941 0 0 1 8.358-5.984c17.725-12.511 26.935-31.01 33.602-47.445 2.114-5.131 2.63-12.238-2.88-15.39-3.291-1.861-10.39-1.646-13.478 1.046-5.274 2.723-70.308 37.013-81.947 76.979-2.273 7.799-6.963 10.55-14.34 8.414-19.975-5.785-40.054-10.874-61.313-16.26a6795 6795 0 0 1-20.288-5.164c7.13-3.523 14.575-6.614 21.819-9.62 26.82-11.13 54.555-22.64 67.49-56.697l1.242-3.271-3.45.59c-2.108.36-4.147.7-6.127 1.03-23.053 3.845-38.284 6.384-63.794 24.545-.61.457-15.006 11.325-22.733 22.856-13.08 19.556-37.176 17.767-58.436 16.188l-2.681-.198c-1.627-.115-3.733-.491-4.53-1.626-1.018-1.45-.185-4.398.62-7.248.205-.726.409-1.447.587-2.155 18.65-74.533 22.068-151.808 25.373-226.54.526-11.894 1.07-24.194 1.667-36.285.064-1.345-.076-2.732-.211-4.073-.367-3.643-.48-5.941 1.76-7.237 2.388-1.386 4.035-.218 7.223 2.779.825.776 1.678 1.577 2.562 2.238 34.864 26.005 61.517 46.123 86.42 65.23 26.273 20.14 52.727 30.204 79.784 30.202 25.349-.002 51.229-8.84 77.958-26.503 17.7-11.684 34.5-24.901 50.749-37.682 11.545-9.082 23.483-18.472 35.604-27.2 1.325-.954 2.198-2.4 2.968-3.675 1.664-2.757 2.155-3.081 3.754-2.473.84.32 1.912.858 2.23 1.596.414.959-.267 2.605-.924 4.197-.557 1.346-1.132 2.737-1.24 4.133-7.46 97.54 6.14 184.196 41.574 264.912.35.803.66 1.89.99 3.043.93 3.254 1.985 6.94 4.977 8.502 1.62.846 3.533.9 5.687.162 2.678-.921 4.3-2.254 4.96-4.073 1.03-2.831-.696-5.694-2.218-8.22-.726-1.204-1.476-2.45-1.713-3.383-1.264-4.804-3.12-9.488-4.915-14.02-.893-2.25-1.816-4.58-2.647-6.88-18.032-49.666-28.297-103.91-31.382-165.828q-.202-4.023-.42-8.054c-2.44-46.06-4.961-93.687 33.899-132.638 18.6-18.644 36.99-48.151 56.068-90.004.19 8.58 2.566 15.878 6.998 21.162 4.96 5.915 12.356 9.008 21.367 8.952l5.6-.035-4.356-3.52c-9.705-7.84-17.798-15.01-18.535-23.386-.287-3.262.55-6.603 2.55-10.108.343 5.623 2.403 11.444 5.966 16.51 5.41 7.697 13.605 12.684 22.478 13.684 9.556 1.08 9.378 6.138 9.13 13.139-.078 2.184-.158 4.444.12 6.598.892 6.922-1.714 7.429-7.425 8.54-1.511.294-3.072.598-4.671 1.076-15.116 4.473-35.658 13.003-39.662 35.36-.46 1.462-3.77 12.703-1.678 27.068 2.03 13.944 9.763 33.498 35.076 47.47 12.695 7.002 29.388 7.685 45.799 1.875 18.46-6.534 33.303-19.837 39.708-35.585 6.804-16.743 7.169-31.843 1.084-44.88-6.742-14.441-21.514-25.682-42.72-32.505-1.531-.494-3.28-.746-4.97-.99-6.19-.89-9.663-1.724-9.096-8.5.175-2.147.105-4.33.037-6.441-.243-7.535-.435-13.487 8.928-16.951 15.239-5.625 21.816-18.941 19.02-38.513-2.041-14.02-11.725-22.777-28.012-25.327-.725-.112-1.437-.2-2.128-.286-4.741-.586-6.514-.805-6.325-6.004.278-6.813 2.253-9.104 8.448-9.807 11.613-1.29 20.167-8.023 23.467-18.475 3.588-11.384 2.968-26.475-9.53-34.692-5.744-3.767-5.121-6.123-3.618-11.814.2-.757.409-1.55.612-2.383 1.359-5.547 2.915-11.163 4.42-16.596 4.053-14.618 8.24-29.734 9.164-45.47.204-3.461.385-6.93.567-10.401 1.565-29.906 3.182-60.83 19.649-87.543 12.944-20.953 17.629-44.59 15.19-76.637-1.125-14.68-6.75-25.891-16.263-32.422-9.654-6.628-22.39-7.844-36.827-3.52-15.581 4.664-29.106 9.685-41.348 15.353-9.767 4.532-13.433 3.36-19.608-6.265-11.794-18.39-30.665-33.53-53.138-42.636-22.476-9.107-45.626-11-65.187-5.327l-4.723 1.369 4.339 2.316c7.74 4.13 14.94 3.827 21.294 3.558 2.778-.117 5.404-.227 7.95.012 31.19 2.913 56.256 17.788 76.628 45.475 2.827 3.846 3.898 6.949 3.182 9.222-.704 2.238-3.317 4.138-7.768 5.649-17.798 6.05-36.072 9.29-54.316 9.63-37.342.7-74.89-1.968-111.604-7.932-3.881-.621-7.836-.325-11.661-.038-8.974.673-16.724 1.254-23.185-8.79-2.051-3.178-4.277-6.261-6.43-9.242-5.946-8.23-11.561-16.004-14.056-25.998-3.056-12.234-1.032-24.646 5.555-34.054 6.277-8.965 16.154-14.574 27.81-15.794 24.184-2.538 48.302-7.648 69.012-12.238l2.057-.46c32.599-7.267 63.39-14.133 97.01-4.94 7.608 2.077 14.054 6.247 20.287 10.28 6.624 4.286 13.473 8.717 21.61 10.528l1.252.278.776-1.02c4.177-5.496 3.025-10.44 1.555-14.133-15.308-38.361-64.308-64.524-102.805-54.89-39.483 9.902-76.686 16.274-113.735 19.48-20.037 1.73-36.002 11.325-46.167 27.746-15.233 24.59-22.945 53.918-24.27 92.293-1.492 42.238 5.9 84.358 13.048 125.092 1.5 8.555 3.054 17.4 4.497 26.095.74 4.467 1.44 9.04 2.116 13.464 4.588 30.005 9.33 61.032 30.912 86.367 3.109 3.632 2.899 10.46-.447 14.61-2.642 3.273-5.483 5.113-7.756 5.139-1.526-.005-2.925-.832-4.274-2.524-7.172-9.043-12.757-14.535-18.43-13.971-5.834.579-10.487 7.503-16.104 18.487-1.886 3.684-4.078 5.839-6.517 6.405-2.384.553-5.21-.374-8.398-2.758-2.555-1.902-5.094-3.948-7.55-5.927-2.67-2.151-5.43-4.376-8.26-6.458-4.223-3.1-6.772-4.971-9.507-4.51-2.847.48-4.696 3.163-8.382 8.51-1.658 2.417-3.671 3.64-5.385 3.27-1.346-.29-2.376-1.56-2.69-3.313-2.236-12.475-10.743-15.898-18.97-19.21-2.061-.828-4.193-1.687-6.2-2.682-2.933-1.45-6.01-2.83-8.984-4.165-17.78-7.98-34.574-15.518-33.117-40.45.109-1.728-.384-5.227-2.93-7.373-1.394-1.174-3.935-2.365-8.132-1.367l-2.336.556.969 2.197c.609 1.383 1.334 2.83 2.035 4.23 4.277 8.548 6.403 14.014-.123 17.856-5.715 3.358-7.775 2.234-14.692-8.017-6.091-9.031-6.328-35.298-6.47-50.993a556 556 0 0 0-.098-7.507c29.25-4.186 53.347-31.406 54.419-32.634 13.523-16.487 15.934-33.891 18.487-52.316.277-2.004.557-4.022.852-6.05 2.143-14.662 13.712-25.11 23.039-31.294 12.027-7.97 14.806-17.69 9.593-33.557-12.572-38.136-43.268-45.533-76.306-50.255a847 847 0 0 0-4.24-.592c-11.891-1.642-24.188-3.34-35.14-9.385-7.911-4.37-18.52-8.303-30.441.163-3.273 2.338-7.445 2.643-11.862 2.967-4.441.326-9.033.662-13.515 2.938-12.72 6.46-23.475 18.154-26.154 28.434-2.885 10.99 1.772 27.666 10.606 37.966 5.9 6.848 7.922 13.675 6.007 20.294-9.718 33.762 3.364 62.326 20.124 93.514l.08.137c3.5 5.426 7.26 10.187 11.19 14.177-4.444 5.45-22.285 19.73-33.685 27.28l-9.246 6.123 10.802-2.507c17.007-3.947 36.393-6.362 41.28-4.303-23.538 31.28-41.345 66.515-52.981 104.828-4.79-6.95-16.764-20.975-37.12-24.287-1.52-.413-26.49-7.59-35.914-33.708 6.779-.386 27.95.713 53.725 24.829l4.586 4.29-1.26-6.152c-.058-.284-5.643-28.501 7.208-47.48.799-1.188 19.55-29.492 17.759-65.368l-.121-2.442-2.37.604c-.767.196-17.733 4.927-32.591 41.323l-1.621-26.488-1.612-.232c-.2-.03-20.123-2.955-31.203-9.205-1.651-1.225-26.316-19.857-32.09-42.236 3.757.089 12.377 1.482 23.81 10.743.289.212 28.83 21.307 38.119 32.003l3.51 4.042v-72.353c6.506-.896 27.972-5.305 35.188-24.93l.135-.367-.013-.39c-.01-.27-.285-6.65-6.033-9.783-6.81-3.713-17.95-1.008-33.107 8.04-.724.25-4.65 1.366-8.954-1.97-2.004-2.06-35.067-36.138-39.957-46.76l-.05-.098c-.748-1.416-1.355-3.238-1.407-4.118.892.118 3.562.96 10.356 5.93.18.132 18.27 13.352 35.897 37.87l3.512 4.887.635-34.315c.695-2.891 10.72-41.304 59.609-84.525l1.189-1.051-.753-1.397c-8.873-16.46-30.646-62.407-24.92-77.154.266-.695 1.249-2.36 2.099-2.33.386.01 3.92.579 9.303 17.23 10.46 32.299 15.057 49.946 14.9 57.216l-.095 4.937 3.514-3.485c.07-.07 7.244-6.96 28.486-8.972 3.712.704 47.863 9.772 81.247 47.083l.248.277.33.17c.319.162 7.848 3.942 14.453 1.198 3.597-1.494 6.162-4.561 7.623-9.113l.146-.455-.075-.471c-.446-2.814-.952-11.343 2.459-13.535 2.092-1.345 5.876-.28 10.942 3.08l.482.32.576.013c1.128.027 6.814-.031 8.05-3.828 1.215-3.73-2.681-8.467-12.631-15.36l-.223-.153-.256-.09c-.2-.07-19.55-6.527-32.42 14.34-8.584-7.27-44.631-35.955-77.911-34.955.262-2.86 2.579-9.415 16.828-16.353 5.227 3.923 29.898 20.072 81.779 20.07.444.02 44.887 1.9 82.304-16.69l1.986-.986-1.185-1.874c-.257-.407-6.448-10.065-19.138-18.571-11.42-7.655-30.405-15.694-56.546-11.19.04-.181.098-.385.184-.614 1.378-3.67 9.779-13.95 57.797-30.423 4.597 3.273 25.973 17.939 39.855 17.938.749 0 1.479-.043 2.18-.133l4.094-.524-2.948-2.89c-.111-.108-11.047-10.955-9.482-20.8.709-4.456 3.99-8.163 9.752-11.016l2.778-1.375-2.397-1.964c-.208-.17-21.002-16.59-49.56 12.737-4.827.718-32.04 5.934-78.626 36.867-6.533 4.513-13.472 5.988-21.107 4.464 11.634-8.49 47.836-37.361 56.4-73.541M71.15 1608h864V312h-864Z"/><path d="M1557.835 1571.01c13.785.461 24.482-5.958 29.346-17.614 4.711-11.307-2.98-18.758-9.766-25.33l-.988-.96c-4.524-4.41-9.369-9.047-14.055-13.53-4.296-4.11-8.353-7.993-11.933-11.48-22.899-22.274-24.193-39.555-18.569-63.65 14.104-60.458 40.323-114.765 64.11-159.913l.698-1.325c18.361-34.845 37.347-70.877 58.971-104.642 6.147-9.633 13.265-13.17 26.3-13.076.64.004 1.271.007 1.907.006 48.11 0 87.445-12.957 120.183-39.578 27.626-22.432 41.056-50.199 41.056-84.886 0-65.592 0-139.936-13.466-212.256-12.827-68.907-38.848-122.648-79.546-164.294-11.703-11.996-18.15-18.605-18.025-24.067.126-5.498 6.925-11.858 19.269-23.405 9.569-8.95 17.651-17.649 19.624-33.515l.759-6.099-4.203 4.485c-41.487 44.277-83.372 62.025-131.818 55.851-1.346-.167-2.705-.16-4.019-.156-2.021.01-3.93.017-5.417-.607-2.397-.989-5.021-1.865-7.56-2.712-9.912-3.308-19.274-6.433-20.309-16.43-1.19-11.473 10.003-19.998 19.605-25.132 3.789-2.035 7.343-4.552 10.78-6.986 4.256-3.015 8.276-5.863 12.724-7.895 25.81-11.778 46.631-5.622 63.656 18.82.715 1.024 1.377 2.303 2.078 3.656 2.188 4.227 5.494 10.615 12.56 7.465 2.461-1.1 3.947-2.535 4.543-4.382.958-2.972-.795-5.99-2.342-8.654-.861-1.483-1.753-3.018-1.995-4.234-20.331-102.41-85.375-175.507-139.775-227.749-3.138-2.997-5.984-6.246-8.995-9.684a463 463 0 0 0-3.073-3.485q.165-.124.331-.238h316.892v1233.342l-314.419.002c-11.669-.436-22.286-.727-32.51-.727-3.726 0-7.4.04-11.053.124 9.681-3.395 18.753-5.37 28.444-5.06m-5.458-1051.538c-10.686 4.895-20.945 10.942-30.866 16.79-11.451 6.75-23.292 13.73-35.783 18.923-14.935 6.215-22.837 6.253-30.18-9.947-8.359-18.46-28.464-25.91-45.047-30.339-11.618-3.087-24.916-7.736-35.451-18.823-9.391-9.876-21.842-13.117-31.722-8.255-9.987 4.926-20.721 7.182-31.101 9.363-5.784 1.216-11.765 2.473-17.578 4.18-20.728 6.103-22.164 24.625-23.432 40.966-.211 2.718-.41 5.285-.691 7.793-1.499 13.413 1.352 27.89 4.142 40.41 8.986 40.081 45.117 67.133 87.857 67.131 3.224 0 6.489-.154 9.779-.468 4.49-.429 9.023-.67 13.822-.926 7.074-.377 14.36-.765 22.254-1.79-2.495 6.035-5.306 7.605-8.66 7.944-4.696.468-9.519.737-14.183.997-15.101.84-30.717 1.711-45.302 9.408-2.841 1.486-8.605-.249-12.583-3.789-3.491-3.11-7.129-6.159-10.646-9.108-15.963-13.38-31.042-26.017-37.597-46.988-3.459-11.113-9.592-24.273-26.452-27.435-6.316-1.18-12.394-7.354-11.633-15.646.468-5.16 2.988-11.497 12.334-12.385 7.853-.743 12.974-5.992 13.363-13.682.169-2.837-2.618-6.947-5.423-7.995-5.491-2.046-13.62-3.976-20.812 2.872-9.117 8.707-12.889 18.663-11.534 30.438 1.497 12.94-.28 25.04-5.596 38.083-4.666 11.493-1.201 27.274 9.268 42.213 11.635 16.604 28.227 26.993 42.265 26.47.952-.036 1.969-.1 3.015-.168 4.107-.262 9.217-.59 11.037 1.123 12.248 11.651 25.843 22.47 45.764 18.801-11.77 11.737-16.797 26.54-21.685 40.928-3.688 10.858-7.493 22.06-14.204 31.671-5.375-7.505-8.444-16.112-11.677-25.178-5.246-14.712-10.67-29.925-26.646-41.077l-3.529-2.463.392 4.286c.539 5.888.804 11.734 1.058 17.387.966 21.402 1.878 41.616 17.639 57.473 5.132 5.175 7.472 9.408 7.364 13.321-.096 3.46-2.115 7.016-6.486 11.337-1.484-3.23-2.94-6.449-4.389-9.653-4.117-9.106-8.007-17.707-12.411-26.3-19.846-38.697-51.439-58.306-93.926-58.306-.462 0-.93.002-1.394.007-13.638.132-25.578-3.732-36.367-11.8 12.641-1.305 24.66-2.34 37.064.82 11.027 2.827 17.003 2.66 20.627-.575 4.253-3.796 4.215-11.138 2.849-20.995l-.075-.54c-.545-3.913-1.292-9.269.399-11.688 13.739-19.678 2.861-30.349-10.526-40.42-16.156-12.15-23.776-30.909-30.145-50.018q2.24 2.39 4.484 4.781c7.847 8.36 15.96 17.004 23.663 25.731 5.785 6.554 11.012 9.297 15.534 8.152 4.501-1.139 7.763-5.952 9.696-14.303 7.06-30.513 22.219-58.87 45.058-84.287 9.302-10.376 9.828-18.877 1.874-30.32-12.963-18.634-10.184-38.548-4.465-60.56 10.727 22.152 17.214 41.521 20.323 60.593 1.009 6.252 3.103 9.918 6.223 10.897 2.533.795 5.278-.314 8.162-3.299 17.935-18.669 38.422-15.913 60.112-12.995 5.988.807 12.181 1.64 18.214 1.954 6.002.312 12.113 1.034 18.022 1.732 13.706 1.618 27.877 3.292 42.204.12a64 64 0 0 1 2.898-.54c4.858-.838 10.904-1.878 12.175-7.525 1.509-6.7-4.354-8.742-8.233-10.093-1.32-.46-2.567-.895-3.528-1.425-17.741-9.755-36.805-14.569-58.69-19.83 3.628-2.637 7.248-5.212 10.777-7.723 20.955-14.903 40.746-28.98 54.282-50.07 1.243-1.934 2.906-3.84 4.515-5.684 2.985-3.42 6.071-6.959 7.087-11.218 4.385-18.215 14.679-22.62 25.186-24.609h56.579c23.262 4.527 42.964 15.545 61.987 34.663 31.712 31.882 67.5 70.031 92.511 120.61-49.512-8.768-91.743 6.461-123.21 20.87m-348.891 571.473c28.716 29.857 34.957 75.37 14.394 104.575-17.611-38.743-22.215-72.156-14.394-104.575m-31.237 75.115c-1.968 4.852-3.985 9.825-5.947 14.93-11.983-40.366-5.84-68.41 20.158-92.396 6.076 27.45-3.355 50.701-14.211 77.466m52.321-230.138c-2.15 13.637-9.502 21.845-21.847 24.396-1.888.385-3.356.233-4.026-.416-.808-.782-.664-2.46-.506-3.39l.001-.009c2.131-12.897 8.166-22.195 18.439-28.395 2.795.756 8.702 2.948 7.939 7.814m-19.855-16.13c-.144.837-1.636 1.781-2.952 2.615-1.226.776-2.494 1.58-3.436 2.66-7.112 8.18-12.006 18.058-14.923 30.14-8.251-3.56-11.826-10.17-10.094-18.815 2.14-10.643 8.548-18.413 18.042-21.88 1.455-.53 2.92-.788 4.331-.788 3.162 0 6.055 1.292 7.959 3.704.782.996 1.164 1.835 1.073 2.364m-15.021 336.58c-12.009-31.79-12.514-63.09-1.575-97.835 19.599 36.056 20.09 66.543 1.575 97.834m65.928-713.833c-.248.8-1.724 2.5-3.255 3.715l-.319.23-.199.39c-.551.772-4.072 2.358-7.535 3.393l-.223.081c-.835.362-1.269.393-1.428.387-.264-.542-.142-2.302.266-3.76 1.773-3.544 7.643-4.686 9.856-4.836 1.768.013 2.543.263 2.837.4M1329 682.604c-9.307 3.035-16.457 1.212-20.297-5.25-7.238-12.179-17.052-12.76-28.415-13.433l-1.902-.115c-16.093-1-25.151-5.983-35.893-19.744-9.22-11.818-7.553-18.55-3.899-33.302l.545-2.203c.946-3.849 2.372-9.643 5.55-9.643l.113.003c7.061.298 15.331 1.347 16.613 6.866 6.909 29.438 28.409 45.71 49.2 61.446 5.226 3.955 10.63 8.045 15.691 12.266.702.591 1.34 1.397 2.304 2.617zm-85.525 174.73c-2.456 1.31-4.535-.173-7.666-2.769l-.749-.618c-15.323-12.425-21.448-30.544-25.072-44.94-2.92-11.604-4.925-23.33-7.247-36.907-.805-4.71-1.631-9.538-2.539-14.62 29.994 28.994 39.243 60.896 44.671 91.181l.092.507c.721 3.93 1.036 6.814-1.49 8.165m47.388-81.959c-11.619-7.465-16.734-18.52-18.149-38.248 2.99 4.908 5.09 10.364 7.277 16.05 2.85 7.407 5.771 14.998 10.872 22.198M1409.4 627.216h.004c11.17-2.132 19.382-9.92 20.92-19.846.9-5.855 2.678-11.87 4.398-17.689 2.02-6.835 4.108-13.902 4.901-21.01 1.718-15.493-7.529-30.066-22.489-35.44-11.731-4.203-22.997-6.74-34.44-7.755-6.494-.58-12.027-4.887-17.885-9.448-6.247-4.864-13.236-10.305-22.338-11.606 2.231-2.895 4.754-4.58 7.527-5.024 3.042-.486 6.441.64 9.091 3.01 15.995 14.293 35.389 21.298 54.145 28.073 3.396 1.227 6.909 2.495 10.349 3.79 3.396 1.263 9.497 4.665 12.021 7.031 12.132 10.75 16.564 19.341 8.944 39.098-1.393 3.61-2.686 7.332-3.936 10.932-5.939 17.097-11.548 33.247-28.377 43.204l-1.288.764c-6.069 3.603-11.839 7.028-19.791 7.822 4.37-9.633 9.806-14.31 18.244-15.906m-87.732-33.606.001-.002c.802-1.564 1.597-2.072 2.824-2.072.708 0 1.56.17 2.64.403 1.039.224 2.113.456 3.206.468 14.408.22 29.374 2.823 48.515 8.442q.683.206 1.39.424c6.118 1.885 14.498 4.466 20.675-3.327 4.984-6.296 6.063-12.207 3.033-16.647-4.964-7.24-12.556-10.932-20.823-10.127-3.111.294-6.141 1.09-9.072 1.86-1.533.401-3.119.818-4.659 1.145-1.014.211-2.047.472-3.14.748-5.633 1.422-9.755 2.197-11.498-.793-3.283-5.645 1.088-14.463 5.638-17.654 4.787-3.364 14.261-8.739 23.937-6.948 6.016 1.114 11.207 4.862 15.431 11.143.826 1.224 1.59 2.377 2.346 3.517 3.323 5.01 6.462 9.743 13.848 19.162l5.911 7.535-2.4-9.27c-5.468-21.118-12.7-32.704-24.964-39.992l-.286-.14c-.535-.21-13.237-5.128-25.786-.958-14.727 4.88-28.79 13.04-24.853 35.9-13.548-16.799-11.738-34.602-9.983-51.876q.166-1.627.326-3.245c.26-2.683 1.07-4.51 2.41-5.433 1.555-1.07 4.002-1.123 7.489-.162 6.864 1.87 10.657 5.012 15.459 8.992 2.368 1.963 4.818 3.993 7.912 6.1l.103.065c.439.261 10.967 6.402 29.178 6.402 8.036 0 18.218 5.046 27.238 13.497 6.059 5.678 5.263 11.287 4.057 19.778a188 188 0 0 0-.667 5.028c-.929 8.038-2.368 14.461-3.756 20.665-3.369 14.748-8.923 20.15-19.167 18.647-1.257-.187-1.605-1.946-1.84-5.343-.172-2.503-.321-4.665-2.116-5.574-1.058-.535-2.272-.376-3.61.473-6.563 4.178-9.187 11.598-11.503 18.145-1.433 4.052-2.788 7.881-4.88 10.674-13.277 17.703-27.417 19.175-48.8 5.083-7.778-5.133-14.439-35.652-9.764-44.733m56.878-12.276c3.13-.49 11.518-1.118 14.797 1.56.8.653 1.192 1.445 1.233 2.485.092 2.475-.554 4.371-1.976 5.795-2.19 2.193-5.931 2.868-8.791 2.767-.131-.004-11.826-.023-22.396-8.427 5.084-1.158 13.791-3.178 17.133-4.18m-78.424 3.025c9.931 10.426 9.92 21.102 9.11 35.43-15.335-11.697-25.128-23.878-24.182-43.226.493-10.247.306-20.667.126-30.744-.078-4.375-.159-8.9-.183-13.339-.041-6.594 1.718-11.116 5.705-14.662 5.544-4.935 11.538-7.6 16.673-7.6 1.816 0 3.524.333 5.066 1.017 4.773 2.117 7.439 7.437 7.505 14.982.115 11.763 1.708 33.878 10.831 53.362-21.859.628-26.768-15.513-31.115-29.823a234 234 0 0 0-1.409-4.529l-1.287-3.944-2.283 3.463c-8.409 12.746-6.425 27.184 5.443 39.613m72.683 92.006c1.572.063 3.198.128 4.83.138 21.309.132 35.093-4.13 46.954-26.966 3.289-6.34 6.593-12.894 9.788-19.232 7.554-14.984 15.365-30.478 23.952-45.109.777-1.335 1.457-1.709 3.216-1.425 2.735 17.69 3.74 34.126-8.418 54.31-2.939 4.882-4.952 10.14-6.897 15.223-5.481 14.316-9.809 25.625-31.116 23.143-1.581-.19-2.78.924-3.743 1.82-.304.282-.618.574-.867.75-13.511 9.673-20.293 14.53-27.303 14.576-6.75.054-14.552-4.3-29.449-12.966 5.453-4.808 11.807-4.553 19.053-4.262m105.602-74.528c-.166-1.156-.001-1.97.489-2.42.532-.49 1.565-.745 2.844-.745.838 0 1.782.11 2.759.332 6.242 1.45 12.121 7.08 13.695 11.43.388 1.072.697 2.553-.037 3.522-7.907 10.467-14.176 22.016-20.24 33.185-5.392 9.931-10.949 20.167-17.614 29.511-2.738-13.544 2.829-25.087 8.696-37.249 5.604-11.619 11.399-23.633 9.408-37.566m-154.896 163.588c3.151-2.009 6.242-4.079 9.28-6.112 10.395-6.958 21.094-14.12 33.383-18.258-11.321 12.475-25.619 20.641-42.663 24.37m-58.322 99.568c31.274-15.649 59.061-25.53 89.405-24.119-15.234 17.518-44.579 25.434-89.405 24.12m215.862-22.17c1.426-2.086 2.854-4.139 4.251-6.148 7.56-10.87 14.702-21.137 19.633-33.579 1.419-3.565 3.869-6.053 7.282-7.397 2.151-.846 4.507-1.195 6.886-1.195 4.802 0 9.696 1.425 13.171 3.071 2.4 1.135 3.832 2.712 4.38 4.823 1.012 3.901-1.111 10.036-5.682 16.414-12.363 17.353-31.053 22.102-49.921 24.01m-26.53 24 .001-.007c1.632-6.023 8.623-6.98 10.72-7.13 18.822-1.289 33.354-4.378 47.118-10.018 3.299-1.353 6.449-1.418 9.363-.193 4.376 1.838 8.449 6.74 11.176 13.446 2.719 6.702-1.306 8.74-8.098 11.511-1.367.557-2.781 1.134-4.033 1.77-9.478 4.797-19.677 6.755-29.495 5.662l-.211-.023-.213.021c-10.312 1.052-19.451-.983-27.935-6.22-.976-.606-2.044-1.133-3.078-1.644-4.558-2.25-6.314-3.53-5.315-7.175m34.104-74.48c-6.547 2.96-12.246 7.12-17.757 11.141-3.926 2.866-7.986 5.83-12.223 8.24-6.61 3.75-11.246 9.35-16.153 15.275-2.12 2.56-4.291 5.183-6.734 7.816.035-26.134 18.854-59.762 39.455-69.034 2.358-1.06 6.232-2.5 9.864-2.5 1.345 0 2.656.198 3.845.685 2.063.844 3.538 2.466 4.508 4.956 3.637 9.387 5.572 18.723-4.805 23.42m-5.557 19.541c-6.917 15.257-16.025 26.527-27.738 34.351-1.026.688-1.973 1.643-2.976 2.655-1.521 1.534-3.25 3.274-4.596 3.195-.925-.053-1.873-1.02-2.507-1.824-2.33-2.977-.34-6.214 4.15-11.15 10.316-11.38 21.373-20.328 33.667-27.227m-107.487 86.176c3.832-10.015 8.057-19.372 17.673-26.252-2.872 10.564-8.505 18.941-17.673 26.252m-16.536 35.812.005-.005c1.051-1.313 2.253-1.845 3.622-1.845 2.023 0 4.411 1.16 7.215 2.672.435.235.857.463 1.263.674 17.3 9.017 28.407 23.336 34.727 44.874-17.258-7.866-31.489-19.159-43.414-34.43-3.115-3.964-6.206-8.48-3.418-11.94m349.818-170.92c.568 7.342-4.123 15.271-12.548 21.21-9.238 6.513-20.483 10.9-34.382 13.413q-.537.099-1.088.206c-4.335.838-6.489.985-7.5-1.284-3.625-8.103-7.57-12.298-12.061-12.823-6.217-.727-11.109 5.663-15.04 10.797-1.211 1.582-2.355 3.076-3.255 3.947-5.409 5.238-8.163 11.274-7.964 17.456.21 6.506 3.741 12.851 10.213 18.354 6.725 5.703 13.984 11.036 21.004 16.194 11.948 8.778 24.278 17.836 35.346 29.566-40.894 14.033-57.779 47.46-71.548 80.583-5.702 13.708-11.686 25.798-27.245 34.943l-2.941 1.73 2.946 1.721c39.948 23.338 80.319 31.877 123.42 26.104 46.469-6.24 79.176-30.02 97.213-70.68 4.305-9.696 13.517-13.658 25.226-18.348.257 7.49.559 15.007.853 22.303 1.495 37.21 2.908 72.356-.977 107.835-2.432 22.296-22.477 37.554-38.583 49.814-25.61 19.507-56.988 29.921-95.926 31.836-47.207 2.316-94.51-4.086-140.256-10.277-10.817-1.464-22.001-2.978-33.024-4.355-21.666-2.709-43.799-4.487-65.203-6.206-20.529-1.649-41.756-3.355-62.54-5.878-26.609-3.234-49.133-16.78-66.946-40.266l-1.238-1.628c-28.945-38.11-58.877-77.519-79.029-122.104-.58-1.284-1.327-2.597-2.048-3.866-2.655-4.668-4.24-7.957-2.161-11.032 1.075-1.604 2.286-2.263 3.871-2.263 1.649 0 3.701.713 6.425 1.815 1.299.526 2.642 1.07 3.917 1.42 22.331 6.137 42.901-.437 62.794-6.796 4.074-1.302 8.287-2.648 12.42-3.85 6.687-1.952 10.677-2.745 12.605-1.345 1.688 1.224 2.567 4.721 2.766 11.002.277 9.106 14.227 23.14 20.212 28.75 13.761 12.9 32.416 25.791 41.451 25.491 4.249-.147 7.351-1.422 9.219-3.788 3.042-3.853 2.193-9.628 1.159-14.733-5.603-28.057-14.879-40.216-46.342-59.472 2.515-1.347 5.03-2.68 7.54-4.01 18.006-9.548 36.625-19.42 52.647-32.86l.214-.178c3.744-3.115 6.978-5.805 12.717-.91 31.261 26.563 65.288 14.82 88.162 3.676 7.704-3.747 12.707-10.25 13.73-17.84.995-7.384-2.016-14.763-8.258-20.244-7.616-6.7-7.31-8.03-1.386-15.369l1.268-1.564c6.81-8.37 15.285-18.79 8.433-32.794-6.257-12.759-16.929-17.227-32.625-13.66-2.926.667-3.61.193-3.679.137-.355-.29-.311-1.854-.282-2.888.033-1.185.071-2.529-.211-3.808-2.72-12.297-8.465-20.58-16.617-23.95-8.214-3.399-18.222-1.574-28.938 5.275-23.046 14.691-33.285 38.082-43.187 60.703q-1.04 2.38-2.089 4.76c-4.616 10.481 1.426 20.001 7.303 26.136 5.273 5.537 7.488 9.912 6.771 13.373-.72 3.478-4.61 6.672-11.895 9.765-3.887 1.66-7.361 4.14-10.721 6.537a175 175 0 0 1-3.213 2.257c-.307-.508-.016-1.032.67-2.269.604-1.087 1.288-2.32 1.268-3.792-.031-2.406 1.24-5.298 2.469-8.094 2.286-5.198 5.129-11.666-1.421-15.714-9.195-5.7-17.166 2.35-22.985 8.23-1.022 1.031-1.986 2.005-2.924 2.886l-1.655 1.555c-6.943 6.51-14.811 13.886-17.479 22.602-8.427 27.541-29.896 33.041-52.627 38.864-5.135 1.315-10.444 2.676-15.506 4.3-13.233 4.268-28.264 4.251-42.326-.049-.683-.208-1.378-.413-2.076-.619-5.662-1.673-11.516-3.402-13.815-7.723-1.533-2.879-1.485-6.79.145-11.96.946-3 1.546-6.054 2.126-9.009 2.082-10.609 3.727-18.989 19.616-19.55 32.333-1.103 66.452-3.775 96.958-22.828.592-.372 1.32-.665 2.09-.977 1.164-.47 2.367-.956 3.445-1.824 1.189-.964 2.564-1.88 4.019-2.85 5.583-3.725 12.533-8.36 9.11-17.562-3.006-8.11-10.938-7.405-17.313-6.838-1.419.127-2.759.246-4.005.274-30.272.7-58.775 6.003-86.936 16.192a8960 8960 0 0 0 7.909-12.406c9.458-14.852 19.234-30.204 29.127-45.11l2.181.907-1.689-1.646c2.367-3.456 6.956-4.487 11.811-5.577l.999-.226c33.702-7.727 58.112-25.304 74.623-53.736l1.959-3.373-3.882.378c-23.836 2.318-45.329 11.326-69.185 29.08 1.265-12.4 5.822-21.909 12.201-32.049 5.976-9.526 14.359-18.638 31.211-13.994 20.806 5.711 37.325.861 49.099-14.414 6.282-8.156 15.285-6.066 25.544-2.74 13.766 4.46 23.762 4.4 30.562-.185 6.562-4.425 10.21-13.044 11.155-26.352.546-7.833 4.81-11.456 9.748-15.65 1.293-1.1 2.631-2.236 3.902-3.466 11.767-11.415 16.959-23.76 14.618-34.76-2.324-10.926-11.523-19.618-26.596-25.136-5.528-2.047-8.471-3.96-9.219-8.739-.957-6.08 5.124-7.355 6.344-7.548 14.373-2.206 26.658-9.155 38.539-15.876 4.762-2.693 9.686-5.479 14.627-7.882 4.815-2.337 7.87-3.044 9.908-2.295 2.03.746 3.769 3.123 6.002 8.204 1.325 3.011 2.665 6.008 4.002 9.001 6.612 14.796 13.448 30.096 17.998 46.207 5.689 20.15 17.746 39.632 37.943 61.316l.001.001c6.693 7.175 13.22 14.8 19.532 22.173 19.822 23.154 40.32 47.097 69.597 61.646 5.82 2.881 9.258 7.484 9.682 12.962m-72.984 33.664c.826-1.053 1.882-1.853 2.899-2.195.347-.117 1.209-.346 1.715.05.746.583.747 2.82-.953 4.996-1.565 2.008-3.763 2.804-4.601 2.156-.838-.655-.61-2.985.94-5.007m93.539 76.97c14.223-2.406 57.475 20.53 64.277 34.074.987 1.983 1.307 3.56.876 4.323-.347.616-1.428 1.028-3.043 1.16-4.065.334-8.278.255-12.353.18a294 294 0 0 0-5.472-.069h-2v.386c-3.919-.33-7.873-.598-11.717-.858-10.482-.712-21.32-1.447-31.649-3.459-10.766-2.119-20.4-5.016-20.052-17.024v.001c.308-10.526 6.826-16.298 21.133-18.714m-105.49 96.316c3.909-16.59 11.788-29.012 19.428-41.054q1.062-1.672 2.114-3.339c3.997-6.357 10.094-11.729 15.99-16.925 1.049-.925 2.095-1.846 3.13-2.774 8.968-8.09 14.47-12.337 18.652-12.337q.385 0 .755.05c4.136.534 8.361 5.9 14.709 15.61 3.937 6.041 9.316 9.465 15.545 13.43l.331.211c-16.2 12.196-33.646 19.976-52.068 28.19-12.675 5.651-25.741 11.477-38.586 18.938m177.121-39.04c-3.144 4.681-6.18 9.4-9.133 13.991-17.643 27.424-34.307 53.327-67.908 62.401-34.362 9.275-69.952 6.206-112.004-9.66-2.139-.804-3.458-1.77-3.616-2.65-.082-.45.026-1.758 2.78-4.158 13.311-11.63 47.94-27.09 90.377-40.352 39.402-12.31 75.923-19.592 97.623-19.592q.96 0 1.881.02m28.479-20.273c.478 4.044.399 5.796-2.355 6.843-3.587 1.363-6.745-.737-10.383-4.309-4.885-4.792-9.713-9.837-14.383-14.715-7.186-7.508-14.617-15.27-22.476-22.356-13.709-12.354-26.927-18.475-40.668-18.475-10.418 0-21.137 3.52-32.592 10.511-7.48 4.567-10.586 3.186-16.388-1.322-16.896-13.056-34.048-26.182-49.181-37.76-4.135-3.168-6.183-6.027-5.765-8.052.461-2.235 3.979-4.336 9.65-5.765 3.739-.939 7.564-1.803 11.263-2.638 9.022-2.038 18.35-4.144 27.357-7.54 9.807-3.699 18.301-8.92 25.966-15.96 11.141-10.208 16.12-19.19 15.223-27.458-.883-8.139-7.422-15.639-19.989-22.927-34.726-20.158-58.54-49.899-83.751-81.386-2.791-3.485-5.646-7.05-8.521-10.607 34.156 9.236 65.544 7.545 95.759-5.129 5.962-2.509 8.861-1.096 13.498 3.253 45.172 42.35 75.938 95.071 91.442 156.7l.037.142c8.56 34.068 17.411 69.295 16.016 105.281-.051 1.205.098 2.457.241 3.67m-260.511-357.97q-.9-1.395-1.82-2.812c-2.502-3.856-5.088-7.844-7.472-11.914-1.166-1.983-1.587-3.785-1.186-5.074.295-.948 1.054-1.696 2.328-2.29 25.652-12.095 53.053-22.702 82.446-22.702 9.35 0 18.907 1.075 28.666 3.516 1.294.321 2.709 1.58 4.848 3.484l.834.741c-36.579-1.662-77.114 2.476-108.644 37.051m35.401 31.596c-1.139 1.431-2.249 3.11-3.322 4.735-4.149 6.278-7.208 10.294-11.736 8.964-3.411-1.004-4.227-5.206-5.082-11.5-.376-2.769-.765-5.632-1.603-8.12-4.129-12.29-.419-21.149 12.406-29.625 28.312-18.757 60.557-19.385 91.16-18.42 7.108.223 8.904 5.438 10.983 11.476.518 1.504 1.054 3.06 1.679 4.478 1.975 4.486 2.79 9.625 3.654 15.066q.247 1.567.512 3.174c-33.216-20.94-72.35-13.309-98.651 19.772m-76.809 915.908c3.067 2.701 6.104 5.36 9.112 7.992 9.773 8.556 19.004 16.636 28.047 25.091 4.261 3.982 9.154 9.18 9.171 14.067.007 2.335-1.077 4.5-3.316 6.62-8.14 7.721-18.997 4.523-26.149-2.074-16.461-15.133-21.996-32.069-16.865-51.696M1351.878 415.245l-.879 10.467 4.664-9.41c13.699-27.643 33.305-56.848 74.809-65.31-16.285 44.346-52.642 66.2-91.081 89.305-3.368 2.025-6.752 4.06-10.139 6.118l-4.128 2.51 4.695 1.142c7.211 1.754 14.271 3.241 21.098 4.68 17.013 3.583 33.192 6.99 48.267 13.866-14.779 1.461-29.951-.233-44.685-1.879-25.012-2.793-50.849-5.68-76.265 6.176-6.752-27.524-15.227-49.213-26.587-68.086-.459-.765-.845-1.83-1.253-2.96-1.249-3.448-3.135-8.659-9.451-7.293-6.205 1.341-7.344 8-8.176 12.857-.599 3.481-1.271 7.032-1.921 10.466-4.754 25.114-9.669 51.083 8.448 75.264 2.84 3.802 2.784 7.101-.168 10.083-26.485 26.661-39.572 61.727-50.835 93.165-3.383-3.662-6.72-7.298-10.031-10.906-9.954-10.847-19.356-21.094-29.252-31.21-3.61-3.72-11.121-11.463-20.207-5.33-8.07 5.42-3.481 12.871-1.015 16.874.391.634.76 1.232 1.062 1.78 3.371 6.138 6.472 12.648 9.472 18.944 9.485 19.912 19.292 40.501 39.473 53.793 3.908 2.587 5.912 4.848 6.305 7.117.319 1.838-.397 3.893-2.188 6.283-4.328 5.77-3.163 12.893-2.135 19.178 1.206 7.376 1.669 11.66-2.846 13.9-4.293 2.138-10.374.714-16.812-.794-5.796-1.356-11.789-2.759-17.659-1.997-.42.056-.941.026-1.493-.007-.796-.047-1.698-.1-2.636.085-2.707.532-6.218.161-9.614-.198-7.422-.785-16.658-1.762-18.442 8.082-2.367 13.123 14.204 20.79 23.105 24.91 6.27 2.901 14.45 6.16 22.109 5.594 52.595-4.007 85.365 21.405 106.257 82.398 4.443 12.974 2.674 21.5-7.194 32.108-3.747-35.958-16.103-62.285-38.694-82.598a172 172 0 0 1-3.036-2.818c-2.379-2.242-4.838-4.56-7.57-6.525-2.841-2.048-10.385-7.49-17.155-3.127-5.903 3.815-3.722 12.465-3.007 15.3 2.011 8.117 3.646 16.578 5.226 24.76 6.15 31.83 12.508 64.743 42.458 87.316 3.544 2.673 3.218 4.561 1.287 9.705-3.146 8.374-5.587 16.93-8.17 25.988-.82 2.874-1.661 5.824-2.54 8.816a194 194 0 0 1-4.532-2.954c-9.094-6.05-18.5-12.307-30.827-7.968-16.718 5.865-25.607 15.446-27.173 29.29-1.329 11.662-1.095 28.072 16.199 35.893 7.422 3.356 7.97 9.12 7.916 16.305-.204 22.812-.236 47.803-.097 78.645.019 6.362-.887 10.752-5.573 14.361-28.303 21.727-39.123 54.055-28.944 86.48 3.843 12.202 6.919 24.907 9.893 37.194 5.36 22.14 10.902 45.032 21.169 66.122.449.922.841 2.025 1.257 3.192 1.459 4.102 3.447 9.707 9.943 9.604 7.249-.129 9.094-7.042 10.314-11.615.17-.634.333-1.247.504-1.827 5.002-17.07 12.819-33.217 20.378-48.832 3.088-6.38 6.282-12.977 9.247-19.558 9.524-21.143 12.699-42.102 9.436-62.296-3.5-21.65-14.361-41.852-32.283-60.042-7.432-7.53-10.085-13.714-9.787-22.812.627-18.956.621-38.675-.02-58.61-.354-11.353 1.505-17.397 13.946-25.436 7.326-4.729 11.996-6.474 15.145-5.66 3.651.943 6.216 5.45 10.438 13.333 19.73 36.755 44.508 71.103 68.47 104.321l4.287 5.944c32.093 44.533 79.006 50.267 128.31 52.546 46.154 2.12 92.629 8.477 137.573 14.625 9.828 1.344 19.655 2.688 29.492 3.993l1.308.171c4.19.55 8.523 1.116 12.831 1.387 10.396.625 17.908 1.076 19.226 3.381 1.376 2.404-2.601 10.197-6.81 18.446-6.339 12.412-13.629 24.623-20.68 36.431-5.337 8.94-10.855 18.181-15.955 27.497-18.559 33.966-37.829 70.736-53.035 109.47l-1.566 3.991c-12.65 32.241-25.73 65.581-28.267 101.337-.494 6.876-1.642 7.945-1.982 8.11-1.158.556-5.223-2.234-8.81-4.695l-.217-.15c-73.586-50.568-139.167-82.178-206.386-99.478-33.583-8.636-52.938.605-63.262 9.877-14.257 12.807-20.381 34.262-16.8 58.865 2.427 16.724 9.481 33.785 21.561 52.155 32.762 49.944 82.25 79.53 151.292 90.448.47.074 3.053.594 6.8 1.363H1086.03V343.33h317.791c-27.025 18.756-49.075 37.793-51.943 71.916m-58.779 1107.447c-33.198-23.936-53.666-54.66-60.836-91.323-4.018-20.52-.203-37.553 10.741-47.962 10.854-10.323 27.864-13.268 47.894-8.292 52.037 12.942 99.475 37.442 151.667 65.767 6.327 3.435 13.736 7.555 20.713 12.065 3.596 2.321 7.282 4.54 10.846 6.685 23.107 13.908 43.062 25.92 38.059 61.49-1.954 13.804 10.058 27.431 15.314 32.65 4.548 4.513 4.874 6.266 4.663 6.91-.144.437-1.159 1.947-8.177 2.988-21.278 3.112-42.318 3.948-65.576 4.651-69.939-.274-122.467-14.773-165.308-45.629M1052.701 1610h868V310h-868Z"/><path d="M2587.122 1554.44c-4.41-15.384-4.148-30.28-3.854-47.086l.039-2.24c4.641 17.45 4.641 33.266 3.815 49.326m-66.829-1155.86c-4.859 15.823-9.872 32.152-19.775 46.261-5.599-13.182-5.692-26.433-5.782-39.278-.081-11.426-.156-22.217-3.769-32.926-.406-1.197-.704-2.497-.994-3.755-1.083-4.707-2.311-10.04-9.499-11.282-9.974-1.71-13.055 6.182-15.304 11.944q-.251.645-.502 1.273c-12.321 30.99-12.452 63.821-.377 94.943 5.288 13.637 2.02 20.701-5.86 28.967-5.523 5.8-11.351 11.2-17.52 16.915a1235 1235 0 0 0-6.281 5.846c-2.41-10.28.317-18.937 3.406-26.138 1.52-3.495 3.69-14.44.993-19.78-1.07-2.118-2.63-2.868-3.755-3.126-3.9-.883-7.49 4.676-11.788 12.033-.707 1.212-1.318 2.258-1.719 2.842-1.544 2.244-3.21 4.561-4.821 6.803-9.002 12.524-18.309 25.475-18.017 40.005.654 34.101-15.969 49.874-35.217 68.137a782 782 0 0 0-6.229 5.954 47 47 0 0 1-8.45 6.464c12.024-19.505 15.93-40.809 19.619-66.09 2.693-18.509 17.257-31.668 29.003-39.448 14.804-9.836 18.218-21.824 11.782-41.378-7.19-21.824-19.669-37.219-38.148-47.065-17.189-9.159-37.481-12.625-56.794-15.39a1091 1091 0 0 0-5.173-.72c-14.939-2.052-30.387-4.174-44.197-11.8-9.754-5.387-22.832-10.236-37.499.183-4.207 3.005-9.491 3.395-15.085 3.808-5.498.406-11.183.826-16.685 3.622-15.775 8.008-29.111 22.483-32.43 35.2-3.571 13.583 2.213 34.217 13.166 46.977 7.484 8.706 10.045 17.396 7.612 25.827-11.87 41.106 3.493 76.066 23.736 113.966-20.843 3.314-40.913 7.608-58.165 20-.759.551-1.569 1.105-2.394 1.67-5.678 3.885-12.743 8.721-10.425 17.292 2.373 8.678 11.905 8.86 18.212 8.98.785.016 1.541.03 2.254.058 6.498.253 12.835-.446 19.544-1.185 9.471-1.043 19.23-2.119 30.286-.563-27.312 25.32-42.138 56.883-45.294 96.356-1.964 24.682 1.625 49.156 5.097 72.824 1.774 12.093 3.604 24.572 4.708 37.083-15.752-3.732-24.974-10.27-30.578-21.556a82 82 0 0 1-.955-2.017c-2.348-5.066-5.563-12.005-13.804-9.38-9.186 2.945-11.296 12.27-10.207 20.014.369 2.628.73 5.26 1.091 7.892 2.14 15.581 4.352 31.693 8.318 47.134 5.43 21.083 9.936 42.777 14.295 63.756 7.566 36.42 15.39 74.081 28.326 109.99 2.457 6.83 4.867 13.83 7.198 20.6 14.151 41.097 28.783 83.596 62.906 114.665 32.292 29.368 71.146 63.208 114.477 91.524 35.615 23.287 74.509 41.318 112.123 58.755 11.915 5.524 24.236 11.236 36.252 17.022 40.068 19.316 60.878 53.124 65.491 106.401.545 6.22.879 12.57 1.201 18.71.883 16.8 1.796 34.171 7.116 50.971 2.353 7.48.674 10.042-1.281 11.301h-492.361V343.33h464.413l.899 1.333c-14.529 15.29-20.556 34.92-26.39 53.918m362.42 541.981c-3.2 5.961-39.204 41.074-71.988 65.473 6.633-31.256 7.757-61.649 8.847-91.094.286-7.749.583-15.762.976-23.615.369-7.275 2.508-11.83 7.385-15.725 8.719-6.959 15.261-17.043 19.999-30.826 1.831-5.298 1.618-10.475-.617-14.968-2.552-5.134-7.534-9.127-14.03-11.245-11.962-3.878-16.375 3.15-21.486 11.285l-.378.602c-2.344 3.74-2.58 11.052-1.718 14.642 7.223 30.551-13.173 47.35-32.898 63.597l-1.233 1.016c-28.545 23.555-58.189 46.752-86.857 69.184-15.238 11.923-30.993 24.252-46.403 36.493-4.887 3.88-8.845 6.353-12.287 5.81-3.111-.492-6.439-3.553-10.475-9.63-11.064-16.685-30.28-32.968-48.952-41.48-14.728-6.746-27.15-2.992-37.13.025-4.896 1.48-9.124 2.76-12.735 2.571-6.597-.343-10.712-2.226-15.068-4.22-4.85-2.22-9.859-4.514-18.059-4.287-24.526.7-42.476 20.716-58.314 38.376q-1.693 1.892-3.375 3.755c-2.048 2.274-4.033 4.601-6.546 7.548l-.272.32c-1.21-3.479-2.359-6.959-3.478-10.35-7.564-22.913-14.709-44.555-37.371-57.624-20.4-11.77-42.652-18.636-75.739-23.238 37.962-20.208 69.832-29.324 102.645-29.459.767 0 1.517-.012 2.247-.023 4.134-.058 7.403-.105 8.806 1.53 1.233 1.436 1.447 4.611.637 9.445-.243 1.473-1.953 6.036-3.762 10.867-7.757 20.701-10.898 31.195-7.77 34.85.559.652 1.353 1.004 2.289.994 6.41-.074 27.131-24.346 27.335-24.595.467-.575.939-1.19 1.429-1.83 3.66-4.78 7.81-10.195 18.628-9.693 3.461.162 11.303 3.794 18.887 7.307 16.686 7.73 27.078 12.061 30.676 7.036.53-.737.694-1.683.489-2.813-1.443-7.914-25.714-35.079-34.367-40.83-4.012-2.652-.627-10.738 1.747-15.32 5.451-10.494 6.025-33.473 2.148-39.415-1.178-1.804-2.629-1.99-3.388-1.942-4.62.303-10.491 10.111-19.611 26.23-3.353 5.924-7.153 12.64-8.558 13.838-14.244 12.143-30.364 12.382-47.43 12.635-10.052.15-20.445.302-30.324 3.133-3.144.897-6.291 1.77-9.439 2.644-17.514 4.863-35.593 9.882-53.55 19.11.673-5.396 3.982-8.83 7.452-12.436 2.087-2.166 4.244-4.406 5.724-7.063 18.955-33.882 49.297-53.548 92.757-60.12 15.769-2.386 31.41-8.967 46.486-19.563 8.543-6.006 13.482-6.043 22.019-.164 32.652 22.5 67.775 26.903 104.395 13.09q.785-.296 1.591-.587c5.829-2.12 13.083-4.76 12.684-14.347-.336-8.529-6.83-10.442-12.048-11.98-.605-.178-1.209-.356-1.808-.544-28.474-8.916-52.16-14.15-75.997-16.76 2.662-2.107 5.223-4.229 7.726-6.304 7.889-6.54 15.342-12.717 23.698-16.454 15.337-6.89 27.022 2.881 38.321 12.33 1.772 1.481 3.603 3.012 5.393 4.426 34.284 27.046 74.829 41.091 123.952 42.936 11.775.452 20.065-3.66 23.978-11.895 6.657-14.039 18.139-17.838 31.357-21.047 17.492-4.254 30.274-14.742 35.069-28.777 4.753-13.91 1.134-29.834-9.926-43.687-11.01-13.825-14.221-29.799-10.105-50.269 4.675-23.072.803-40.367-12.184-54.43-17.45-18.85-34.946-40.044-44.735-67.245-6.094-16.9-22.095-27.172-45.06-28.925-8.555-.634-16.131-2.749-23.844-6.653-36.097-18.232-57.737-12.967-79.846 19.428-27.784 40.715-35.036 87.56-19.896 128.527 15.103 40.867 50.454 71.52 96.986 84.094 1.033.281 2.129.44 3.19.592 3.984.573 4.797 1.032 4.838 2.727.034 1.39-.352 2.44-1.178 3.208-1.327 1.234-3.869 1.802-6.81 1.518-4.073-.369-9.143-.827-12.388-2.998l-1.27-.846c-17.358-11.556-35.304-23.505-58.628-21.122-.954.102-2.791-1.226-4.129-2.195a43 43 0 0 0-1.608-1.129c-21.662-14.1-46.854-85-38.508-108.376 9.144-25.579 1.445-43.618-22.884-53.614-2.814-1.159-4.445-2.652-4.848-4.439-1.004-4.469 4.905-10.965 8.434-14.847.807-.886 1.503-1.652 2.062-2.323 5.785-6.987 11.462-12.054 22.388-3.237 9.338 7.522 19.959 7.643 28.416.322 3.157-2.748 4.983-6.426 5.139-10.354.158-3.96-1.36-7.874-4.162-10.737-7.901-8.077-16.897-10.2-29.173-6.885-6.022 1.642-10.993 4.26-14.776 7.777-25.268 23.476-42.54 45.48-54.355 69.242-8.041 16.152-10.347 42.13-6.17 69.492 1.168 7.594 6.867 14.42 16.044 19.22 7.083 3.724 13.076 7.78 17.815 12.054 1.617 1.455 3.322 2.81 4.972 4.118 4.866 3.863 9.069 7.2 9.109 11.36.035 3.8-3.328 8.432-10.28 14.165-24.728 20.388-37.29 47.156-35.37 75.377.425 6.03-2.758 10.306-9.735 13.076-6.099 2.433-12.038 5.372-17.781 8.214-2.603 1.288-5.224 2.585-7.879 3.844 3.117-2.023 5.63-5.187 6.583-10.107.903-4.599.353-8.279-1.682-11.252-3.415-4.99-10.338-6.842-18.081-8.309 5.518-4.415 11.25-7.984 16.823-11.454 7.687-4.785 14.947-9.306 21.172-15.637 10.141-10.307 14.415-22.989 17.626-34.07 1.65-5.747.201-12.076-4.083-17.82-5.686-7.63-14.973-12.425-24.238-12.517-10.407-.09-14.037-.749-14.659-13.06-.465-9.069-4.697-16.416-11.914-20.686-8.403-4.97-19.655-4.919-30.096.138-1.159.56-2.246 1.17-3.297 1.76-4.573 2.571-7.595 4.27-12.463.493-8.471-6.549-17.79-8.139-26.239-4.476-11.253 4.878-19.492 18.21-20.989 33.967-.916 9.693 1.503 18.94 3.842 27.883 2.019 7.715 4.099 15.668 4.117 24.058l-.294-.1c-1.753-.603-3.268-1.123-4.842-1.507-2.408-.593-4.831-2.178-7.398-3.855-5.431-3.552-12.191-7.97-19.522-1.03-7.985 7.566-3.921 16.053-.655 22.872 1.149 2.401 2.235 4.668 2.867 6.845 3.535 12.11 13.943 19.17 22.611 23.965 12.556 6.993 15.405 14.143 12.703 31.874-5.693 37.204-19.929 54.358-53.799 93.23-4.664-31.33-11.724-57.093-22.109-80.767-1.909-4.352-2.319-8.173-1.098-10.222.653-1.096 1.817-1.698 3.558-1.842 27.096-2.25 31.222-5.959 31.644-9.632.172-1.495-.272-3.142-2.617-5.153l.799-.576-1.356.12c-3.865-3.03-12.025-6.874-28.531-12.196-6.49-2.092-8.486-8.28-10.598-14.833-.565-1.75-1.149-3.562-1.821-5.27-3.955-10.056-15.596-23.297-22.244-25.3-2.157-.65-3.564-.118-4.355.435-1.035.716-1.671 1.986-1.978 3.924l-1.434-.985 1.312 1.97c-.467 4.95.743 13.515 2.773 27.051l.695 4.661c.162 1.106.335 2.321.529 3.804-3.455-1.475-6.166-4.15-9.001-6.95-3.02-2.98-6.343-6.26-10.917-8.354l-.668-2.295-.183 1.926a23.3 23.3 0 0 0-4.163-1.27l-2.554-.528.152 2.603c1.115 19.082 3.757 38.287 22.326 45.148 19.929 7.324 26.705 22.962 33.877 39.517l.701 1.616c2.839 6.55 5.46 13.263 8.234 20.37q1.105 2.836 2.261 5.78c-3.544-1.916-5.616-4.71-7.78-7.625-.982-1.324-1.998-2.693-3.144-3.938-2.4-2.609-4.767-5.399-7.055-8.098-5.5-6.486-11.188-13.193-18.059-18.259-1.414-1.045-2.876-2.308-4.425-3.646-6.839-5.909-15.351-13.263-25.817-5.864-9.439 6.648-5.517 14.898-2.365 21.526 1.298 2.73 2.524 5.31 2.955 7.716 4.374 24.574 21.06 41.455 37.774 56.64 26.898 24.45 58.632 49.637 101.011 49.633 7.164 0 14.64-.72 22.44-2.286 14.008-2.793 26.951 5.114 34.62 21.15 1.815 3.813 3.247 7.951 4.631 11.954 1.398 4.041 2.844 8.221 4.712 12.186 3.913 8.315 3.682 13.514-.776 17.388a5.68 5.68 0 0 0-1.898 5.121c.293 2 1.58 3.698 3.447 4.546 4.846 2.18 7.315 6.66 9.928 11.401 1.175 2.132 2.391 4.336 3.843 6.331 15.765 21.652 37.063 36.876 61.592 44.027 24.305 7.086 51.348 6.134 78.204-2.753 26.553-8.754 45.912-25.126 66.809-47.014 16.055-16.815 34.933-31.593 53.189-45.885 6.001-4.698 12.206-9.556 18.222-14.416 10.375-8.38 21.199-16.59 31.665-24.529 22.486-17.054 45.736-34.688 66.145-55.218 3.598-3.628 7.612-7.677 12.164-9.294 5.9 76.741-16.982 139.382-69.911 191.448-21.854 21.505-41.804 45.627-61.097 68.956-6.755 8.167-13.739 16.612-20.697 24.814-13.323 15.737-29.358 29.942-56.233 27.36-9.97-.967-20.049-1.23-30.044-1.23-6.109 0-12.187.097-18.186.195-19.666.32-40.003.65-59.931-2.528-35.7-5.703-67.051-21.759-93.633-36.36a403 403 0 0 1-4.342-2.432c-10.289-5.815-20.928-11.83-33.735-10.93-14.45 1.001-21.847-4.999-25.522-20.71-3.208-13.736-5.352-27.918-7.426-41.634-2.812-18.607-5.722-37.846-11.337-56.525-5.142-17.085-15.725-29.857-25.959-42.208-7.094-8.56-14.429-17.414-19.639-27.468-1.755-3.392-4.604-5.333-8.022-5.466-4.261-.163-8.694 2.626-11.587 7.29-7.111 11.51-9.15 22.836-6.414 35.648q.626 2.911 1.259 5.827c5.361 24.735 10.895 50.27 8.661 78.53-9.605-11.682-14.482-25.14-15.273-41.974-1.433-30.21-9.105-61.005-24.144-96.915-21.325-50.882-34.84-105.989-40.171-163.789-3.816-41.353 7.896-77.118 34.813-106.338 1.262 2.324.395 4.255-.723 6.743-.745 1.66-1.516 3.374-1.595 5.311-.047 1.361-.307 2.858-.584 4.444-.876 5.031-2.075 11.923 5.438 15.39 7.847 3.633 16.959 1.587 22.675-5.092 3.888-4.547 8.369-8.468 13.112-12.619 9.299-8.138 18.889-16.53 23.881-30 7.857 10.521 12.644 20.188 15.372 30.941 1.96 7.7 4.979 12.038 9.229 13.264 4.213 1.216 9.006-.802 14.657-6.169 14.526-13.82 15.979-30.959 4.201-49.563-2.484-3.916-3.4-6.636-2.799-8.315.575-1.607 2.732-2.95 6.996-4.357 34.059-11.243 58.49-36.119 78.715-58.55 8.429-9.314 17.267-15.005 28.659-18.45 31.31-9.477 58.615-27.93 81.159-54.852 3.504-4.187 9.368-11.194 3.452-18.41-5.253-6.388-13.236-2.567-17.069-.732-7.154 3.41-14.331 6.611-22.871 8.42l7.656-8.52c13.292-14.795 27.036-30.094 40.685-45.023 2.52-2.769 5.372-2.31 9.816-1.336 1.153.254 2.345.515 3.544.681 40.469 5.631 88.157 8.845 135.013-10.019 1.152-.462 2.423-.864 3.768-1.289 5.84-1.844 13.109-4.14 13.519-13.29.492-11.62-9.252-13.53-15.699-14.794-1.065-.208-2.07-.405-2.967-.625-15.323-3.79-30.795-6.546-44.444-8.976-3.491-.622-6.841-1.218-10.025-1.803 3.051-3.469 6.198-7.066 9.427-10.755 10.761-12.297 22.958-26.234 35.197-39.57 1.066-1.152 2.332-1.974 3.863-2.508h223.777Zm-485.028-125.48c-16.825 2.307-33.849 8.44-51.971 18.727-.966-5.068.482-9.204 2.004-13.55 1.206-3.446 2.454-7.009 2.281-10.906-.086-2.032.604-3.683 1.845-4.416a3.2 3.2 0 0 1 1.641-.428c.944 0 2.013.345 3.137 1.026 11.818 7.171 23.967 5.73 35.717 4.337 5.435-.645 11.055-1.312 16.45-1.058 2.719.132 8.232.401 13.4-1.213-7.725 3.424-15.788 6.298-24.504 7.48m78.988-430.33c1.082 21.824 5.419 43.223 9.625 63.976l.774 3.825c1.879 9.24-1.688 11.561-4.532 12.503-1.783.588-3.141.616-4.033.084-1.659-.99-2.22-4.129-2.671-6.65-.218-1.22-.424-2.374-.747-3.32-7.667-22.629-12.609-46.72 1.584-70.419m-62.848 146.724c-1.538 1.42-3.411 2.205-4.855 2.632 1.659-22.445 14.846-41.553 20.034-48.273.194.988.35 2.147.422 3.26-2.289 29.192-15.349 42.136-15.601 42.381m17.414 16.813c13.12-17.51 30.048-26.018 49.174-32.83a708 708 0 0 0-6.228 5.288c-12.402 10.616-25.189 21.561-42.946 27.542m-209.763-61.066-1.339.272c-28.425-8.074-42.5-23.094-46.643-49.3-.138-.872.564-2.636 1.278-3.167.375-.289.738-.435 1.169-.435.81 0 1.862.517 3.691 1.58 17.744 10.23 27.413 26.614 38.608 45.584 1.059 1.794 2.137 3.621 3.236 5.466m145.069-53.093c5.277 8.661 6.896 16.336 4.812 22.897-1.745 5.496-5.891 9.446-9.967 12.142 7.619-11.088 6.931-25.369 5.155-35.039m-126.229 223.468c4.513-3.366 9.869-5.034 16.236-5.034q2.706 0 5.663.401c-7.24 18.411-21.667 30.832-36.906 43.952q-1.358 1.167-2.723 2.346c2.9-21.288 8.719-34.943 17.73-41.665m-41.658-153.116c.279-.929.429-1.969.574-2.975.178-1.236.476-3.306 1.039-3.637.19-.112.76-.109 1.743.265 4.163 1.583 8.615 2.802 12.921 3.981 12.591 3.45 24.484 6.706 31.013 18.45 5.618 10.08 13.227 19.07 24.671 29.152 8.876 7.81 10.619 17.31 12.463 27.367.28 1.524.56 3.05.865 4.568-.33 2.058-.64 4.106-.948 6.142-1.803 11.926-3.506 23.192-8.927 33.71-4.327 8.415-9.371 13.315-14.992 14.565-5.682 1.263-12.435-1.093-20.072-7-33.537-25.983-52.393-84.202-40.35-124.588m96.345 49.1c-1.49-12.007 5.466-24.897 18.607-34.482 10.486-7.647 22.715-11.739 33.688-11.739 5.419 0 10.532 1 14.977 3.06 2.1.968 3.368 2.105 3.768 3.38.406 1.29.016 2.925-1.198 5.003-7.808 13.481-11.431 28.47-14.934 42.966-3.752 15.525-7.632 31.578-16.666 45.977-13.099 20.873-27.903 26.748-51.546 29.507 13.567-24.365 17.545-49.654 13.304-83.672m3.527-50.563c2.06-1.782 6.131-1.408 11.159.946-11.322 10.087-18.924 19.983-23.816 30.963-1.982 4.445-3.452 5.537-4.335 5.671-.794.12-2.311-.385-5.026-3.48-4.106-4.663-7.695-9.633-11.494-14.894-8.662-11.993-17.59-24.357-33.04-33.053 13.109-2.627 13.587-2.089 19.938 5.028 12.561 13.991 26.508 26.197 46.614 8.82m52.392-9.723c-22.12-3.82-45.763-6.706-70.226 3.41-7.045 2.922-9.762-1.93-13.955-10.758-.452-.95-.912-1.919-1.388-2.882 9.482.106 18.866-.122 27.971-.343 24.133-.588 46.971-1.143 70.106 4.182-1.828 3.603-6.08 7.504-12.508 6.391m-121.433-41.015.001.001c6.015 6.143 11.769 12.793 10.353 20.591-.124.68-.396 1.131-.881 1.466-1.98 1.364-6.739.48-9.032.054-12.045-2.2-13.295-12.728-12.968-18.804.774-13.918-8.708-19.646-17.069-24.696-1.76-1.07-3.845-1.653-5.863-2.216-4.537-1.268-6.539-2.119-6.67-4.95-.321-6.643 5.439-10.326 12.426-14.12.831-.45 1.594-.993 2.332-1.519 1.597-1.136 2.905-2.068 4.606-2.068.558 0 1.159.101 1.826.327-3.88 20.552 9.287 34.018 20.939 45.934m-4.249 184.568.012.013c.884.948 1.955 1.753 2.991 2.531 3.259 2.448 4.391 3.628 3.338 6.322-.714 1.812-2.086 2.041-5.28 2.163-1.259.047-2.561.097-3.82.397-16.062 3.796-32.586 3.48-50.081 3.145-4.903-.094-9.933-.19-15.109-.203 15.637-14.495 33.098-16.432 50.022-18.31 1.667-.185 3.331-.37 4.986-.565 5.14-.59 9.738 1.01 12.941 4.507m74.896 26.094c4.513 10.731 8.457 20.106-.691 31.197-4.257-15.735-10.394-28.754-19.54-41.468 10.768-2.582 15.82-.3 19.4 8.29Zm95.16-173.478c-3.799 5.692-10.105 7.005-18.832 8.821-1.309.273-2.701.563-4.153.883 5.241-8.796 7.129-17.713 8.964-26.376 1.587-7.49 3.105-14.655 6.789-21.028.681 5.016 2.98 9.674 5.226 14.224 4.032 8.167 7.514 15.22 2.005 23.476Zm-167.114-65.134s8.779 12.611 24.616 28.585c19.553 22.427 45.773 15.545 69.04 13.531 20.648-1.799 24.07-24.05 9.836-48.509 14.722-.607 26.552 13.315 25.34 27.353-1.173 13.726-4.83 24.07-17.598 26.455-24.108 4.497-55.685 7.215-73.928-1.994-29.778-15.017-44.991-44.463-44.991-44.463-8.015-16.737 4.85-24.147 26.456-30.815-18.419 9.542-24.285 16.522-18.771 29.857m25.243 22.915c-29.251-25.359-16.19-35.234-16.19-35.234 1.74 10.56 15.759 34.492 16.19 35.234m-6.511-41.823c-.821-1.192-.333-2.56.645-3.87 2.698-3.539 7.39-4.928 11.692-3.813a66 66 0 0 1 3.871 1.134c10.441 4.203 22.857 6.55 22.857 6.55-16.384 6.804-39.065 0-39.065 0m51.872 39.535c-.391 4.692-2.737 8.76-7.644 6.785-8.897-4.283-17.95-8.017-26.28-12.963-3.636-2.15-.84-5.828 1.584-8.233 4.087-4.086 8.213-2.463 12.748-.488 6.199 2.698 5.475 21.332 18.556 8.173.938 1.485 1.134 5.572 1.036 6.726m-15.7-22.583c-.959-.782-1.487-2.112-3.344-4.81 25.243-10.147 36.035-6.96 49.253 14.43 4.146 6.647 5.142 14.41-.254 20.412-4.869 5.416-11.791 8.545-19.709 7.392-3.774-.548-7.547-3.48-5.944-6.296 13.491-23.738-9.933-23.014-20.002-31.128m410.116 829.033c16.435 9.598 26.609 22.254 33.03 41.09l-9.108-11.33a86602 86602 0 0 1-23.922-29.76m-95.544-5.466q-.234-.83.216-1.307c7.063-7.535 14.799-11.275 24.145-11.617-5.82 10.886-14.631 13.35-23.387 14.296-.244-.099-.765-.629-.974-1.372m-432.705-225.39c-6.663-23.484-12.478-47.228-18.143-70.358l-2.365-9.649c-1.101-4.458-2.444-9.422-3.865-14.677-5.52-20.406-12.263-45.33-9.911-59.572 23.9 36.884 29.701 102.464 33.975 150.771zm104.986-22.527c-7.215-1.184-12.898 1.236-16.081 3.156-1.433-10.778 1.281-18.02 3.279-20.748.697-.95 1.242-1.305 1.477-1.398.114.14.363.535.556 1.462 1.194 5.761 6.489 12.686 10.769 17.528m-9.744 19.951c.067-4.283 1.308-8.122 3.09-9.554.693-.556 1.44-.729 2.354-.543 2.819.571 3.379 3.321 3.913 7.45l.134 1.013q.198 1.425.421 2.93c1.77 12.11 3.941 26.96-6.364 40.17-2.199-13.802-3.687-30.904-3.548-41.466m196.715 333.992c-3.693-1.982-7.181-3.853-10.896-5.377-69.481-28.54-133.637-73.02-201.903-139.984-27.373-26.877-45.009-61.977-52.419-104.327-3.99-22.696-7.321-50.878-10.847-80.715-4.978-42.117-10.106-85.509-17.757-120.146a146 146 0 0 1 2.202 6.793c3.103 10.351 6.235 23.713 9.264 36.635 7.511 32.051 10.774 44.251 15.272 45.195.586.123 2.083.228 3.333-1.437 2.107-2.804.084-16.54-6.672-53.827-1.028-5.679-2.032-11.215-2.823-15.836 20.297 41.576 36.236 99.171 41.443 135.537 2.685 18.723 7.869 42.64 24.265 61.562 6.245 7.198 7.084 16.147 7.116 23.141.177 30.938 8.596 58.24 25.74 83.465 14.056 20.682 33.825 39.883 62.213 60.426 21.237 15.384 44.709 27.58 67.41 39.374 19.9 10.34 40.479 21.031 59.356 33.786 1.917 1.308 3.818 2.653 6.575 4.61-8.15-2.048-14.593-5.505-20.872-8.875m-194.134-433.135c-27.764-14.388-44.432-37.282-53.343-73.296 23.613 18.67 45.638 40.725 53.343 73.296m-51.265-124.488c-2.268-2.715-3.789-5.948-4.556-9.667 2.683 4.551 6.853 10.278 13.133 16.017-2.924-1.33-6.062-3.338-8.577-6.35m25.23-24.658c.696 3.861.225 7.555-.628 10.653-.369-8.489-2.08-15.35-3.846-20.323 2.35 2.966 3.848 6.198 4.474 9.67m27 34.384c-3.484-.599-6.734-2.074-9.723-4.408 4.994 1.73 11.882 3.388 20.392 3.687-3.097.882-6.794 1.387-10.669.721m270.253-293.683c4.061-1.99 12.593-5.302 17.807-1.129.022.02 2.255 2.043 2.244 4.486-.006 1.28-.659 2.543-1.944 3.76-1.567.425-8.652 1.664-18.107-7.117m-58.228 267.73c3.9-22.497 12.066-40.499 25.327-55.759-.6 2.207-1.177 4.412-1.745 6.583-4.502 17.203-9.146 34.943-23.582 49.175m4.058 10.923c4.19.368 8.334.71 12.385 1.042 28.458 2.338 55.402 4.55 80.79 15.217-26.365 16.246-62.779 9.856-93.175-16.259m213.95 4.661c9.135-3.515 13.043-10.92 15.661-17.698 4.731-12.172 15.538-21.099 33.039-27.288 12.888-4.556 18.453-15.84 22.192-26.267.283-.777.526-1.588.784-2.446 1.217-4.059 2.152-6.532 4.863-6.663h.008c2.628-.135 3.857 2.016 5.65 5.537.534 1.05 1.086 2.133 1.712 3.104 5.992 9.368 7.789 17.86 5.339 25.241-2.57 7.745-10.014 14.136-21.525 18.481-3.611 1.357-7.402 2.427-11.067 3.462-13.272 3.748-26.996 7.623-34.987 25.554-1.187 2.653-10.444 4.416-32.483 1.023 4.046-.139 7.644-.82 10.814-2.04m-47.263-6.058q.734.284 1.459.558a234 234 0 0 1-5.918-1.707c1.363.168 2.84.521 4.459 1.15m-4.785-80.45c11.3-5.464 20.226-9.779 32.426-4.72l.001.001c13.597 5.623 26.918 2.148 38.518-10.046 3.888-4.06 7.509-8.406 11.01-12.608 6.415-7.698 13.046-15.658 21.462-21.982 3.455-2.603 5.656-7.216 6.365-13.34 1.613-13.928-4.427-33.142-14.051-44.697-7.002-8.378-14.243-17.042-23.329-22.903-11.735-7.558-18.88-17.043-22.485-29.853-3.799-13.456-13.424-22.34-29.423-27.16-9.481-2.862-17.771-3.987-23.189 11.276-2.93 8.263-7.387 15.825-12.105 23.831-6.443 10.932-13.087 22.204-16.419 36.29-6.972-9.184-6.823-18.429-6.677-27.399.06-3.676.121-7.477-.326-11.136-.097-.807-.162-1.63-.228-2.454-.382-4.786-.857-10.742-7.857-12.283-6.069-1.342-9.027 3.55-11.189 7.122-.392.647-.776 1.284-1.173 1.877-8.346 12.56-10.828 23.061-7.589 32.105 7.662 21.457-1.814 37.803-12.787 56.73q-.713 1.226-1.43 2.468c-7.531-29.516-9.553-52.917 1.826-76.299 6.905-14.184 15.497-28.7 26.266-44.38 11.398-16.589 25.925-19.712 44.412-9.547 10.736 5.895 21.453 11.22 34.496 11.606 19.79.573 33.826 11.434 42.91 33.203 9.031 21.644 20.283 38.58 35.409 53.297 10.928 10.65 16.506 23.626 15.706 36.537-.808 13.048-8.028 25.37-20.327 34.696-5.803 4.39-11.193 9.34-16.407 14.124-7.745 7.11-15.753 14.461-25.14 19.962-21.768 12.743-42.753 9.87-68.822.323 3.577-1.466 6.899-3.072 10.146-4.642m-58.562-77.755c8.628-18.059 10.612-33.854 6.243-49.708-.875-3.185-.83-5.503 1.738-8.685-2.125 25.292 12.781 39.37 27.229 53.014 6.057 5.72 11.779 11.124 16.334 17.332 4.599 6.28 11.312 10.927 17.805 15.422 2.967 2.054 6.036 4.178 8.817 6.407 5.349 4.28 8.009 8.274 7.694 11.55-.28 2.926-2.919 5.722-7.843 8.307-15.159 7.97-29.18 14.576-42.871 20.2-3.339 1.382-6.114-.495-10.285-3.75-1.213-.946-2.466-1.925-3.755-2.74-32.541-20.636-36.881-34.483-21.106-67.349m84.578 5.461c.548.177 1.041.336 1.471.472 5.574 1.76 9.071 3.528 11.691 5.906 2.572 2.342 2.929 6.237.798 8.684-1.254 1.437-2.995 2.077-5.178 1.903-2.9-.236-10.812-4.409-18.814-9.924-8.026-5.53-12.534-9.833-13.837-11.809 7.973-.364 18.67 3.09 23.869 4.768m14.38 46.02c1.845-3.04 2.427-6.452 2.99-9.75.648-3.789 1.259-7.368 3.621-10.597 6.471-8.834 8.606-16.169 6.528-22.422-2.185-6.577-8.923-11.512-20.605-15.087-3.035-.917-6.17-1.527-9.202-2.117-3.539-.688-6.882-1.338-10.109-2.437-5.035-1.71-8.09-3.868-7.76-9.32.4-6.296 2.683-9.163 8.723-10.958 7.603-2.266 14.228-3.42 19.99-3.42 14.68 0 23.753 7.501 29.085 23.26 5.12 15.145-1.879 28.948-8.66 37.871-1.818 2.424-.599 7.618 1.132 9.597 1.217 1.386 2.996 2.067 4.876 1.867 2.149-.228 4.133-1.532 5.185-3.417a389 389 0 0 1 1.839-3.298c5.064-9.014 9.847-17.529 9.12-31.904-.031-.626-.06-1.32-.09-2.06-.167-4.062-.375-9.117-1.383-12.424-6.706-21.879-18.557-32.875-37.294-34.606-30.299-2.804-43.744 6.361-50.013 34.817-9.997-10.368-7.64-21.042-4.016-31.964 2.732-8.28 7.619-15.283 12.793-22.697 5.489-7.866 11.165-15.999 13.994-25.76.178-.607.495-1.376 1.002-1.597 1.098-.48 3.564.745 5.363 1.64l.835.412c13.305 6.447 20.869 14.577 22.48 24.166 2.742 16.323 13.391 24.247 23.445 29.845 16.693 9.302 23.336 25.141 29.196 41.926 3.666 10.523 1.483 17.895-7.086 23.91-7.679 5.426-13.526 13.453-19.181 21.215a437 437 0 0 1-3.44 4.677c-4.25 5.685-8.878 8.498-15.001 9.121-1.344.134-2.738.343-4.085.546-2.515.378-7.196 1.082-7.834.124-.107-.16-.918-1.788 3.561-9.158Zm-115.867 45.503c19.305.1 35.016 8.523 51.65 17.442 5.526 2.963 11.239 6.026 17.032 8.712 9.313 4.288 22.077 3.764 28.452-5.533 7.17-10.433 17.216-13.629 27.853-17.013 2.583-.822 5.255-1.672 7.901-2.633 15.752-5.732 27.657-16.559 40.261-28.02 6.28-5.712 12.749-11.594 19.853-16.935 1.213 27.832-9.826 47.588-32.849 58.755-12.071 5.845-21.922 15.408-29.281 28.427-7.982 14.176-18.836 17.316-34.162 9.877-1.944-.944-3.867-1.923-5.783-2.898-9.391-4.78-18.99-9.665-29.872-9.665-5.67 0-11.691 1.327-18.209 4.69-4.971 2.584-13.552-5.458-18.653-14.392-12.333-21.57-28.242-35.136-48.633-41.468-3.794-1.188-10.301-4.113-11.252-10.366-3.326-21.37-19.245-32.238-34.64-42.748-4.805-3.28-9.774-6.672-14.206-10.305-9.076-7.445-9.618-14.752-10.699-29.31l-.249-3.319c-.675-8.716-1.048-13.516 1.356-25.615 2.476-12.397 13.622-27.58 23.853-32.493 7.651-3.673 13.169-.83 19.102 4.566 6.422 5.834 8.868 15.777 6.384 25.945-5.791 23.618-5.436 46.672 1.054 68.521 6.043 20.35 17.606 40.285 34.366 59.253h-.001c2.894 3.288 6.001 6.5 9.372 6.525m-25.09 5.413c3.269 1.258 6.608 2.545 9.848 4.188-16.381 1.86-28.506 10.23-42.294 19.748l-1.354.934c1.477-6.14 3.563-11.634 5.593-16.982 2.702-7.118 5.283-13.918 6.448-21.86 5.88 7.857 13.93 10.956 21.759 13.972m-171.727-43.8c7.47 17.995 5.399 33.818-6.692 51.44-2.785-18.216 1.522-34.549 6.692-51.44m36.477 26.221c-4.557 8.238-17.458 29.348-35.051 39.68 2.959-10.158 12.466-35.247 35.051-39.68m2.319-19.559-.002.001c-4.64 2.844-9.253 5.568-14.136 8.452q-1.89 1.115-3.802 2.247c-.308-1.99-.569-3.992-.825-5.947-.839-6.426-1.707-13.07-4.221-18.967-2.047-4.786-2.415-8.604-1.124-11.675 1.399-3.328 4.8-5.946 10.711-8.24 1.985-.78 3.903-1.17 5.663-1.17 1.623 0 3.111.332 4.392.997 2.308 1.2 3.874 3.435 4.653 6.642.586 2.418 1.572 4.872 2.526 7.246 3.257 8.101 5.829 14.501-3.835 20.414m13.854 13.14.47-.8c3.767-6.407 8.728-9.593 15.016-9.593 3.486 0 7.381.98 11.705 2.933 3.54 1.601 5.785 3.773 6.863 6.641 1.51 4.022.675 9.58-2.481 16.514-6.938 15.18-19.109 26.368-36.174 33.251l-4.041 1.631c-13.989 5.658-28.378 11.477-44.267 13.925 24.393-15.948 38.868-40.593 52.909-64.502m-55.273 85.12c15.375-2.37 28.117-2.428 40.55-.16-13.401 3.751-25.843 5.417-40.55.16m-5.679-118.788c-8.984 19.87-14.412 40.01-16.501 61.31-7.289-20.452-10.699-38.334-10.668-55.69.017-7.852 4.886-14.569 13.023-17.966 2.793-1.164 5.02-1.873 7.055-1.873 1.957 0 3.736.656 5.67 2.195 4.227 3.377 3.679 7.1 1.425 12.014Zm-18.08 102.185c-16.107-7.109-28.225-18.635-38.445-36.577 19.923 8.871 31.766 20.14 38.445 36.577m123.52 128.562c4.789 1.056 12.461 4.02 20.357 12.258-4.654-1.096-12.18-4.096-20.357-12.258m.937-56.08c.212 4.9-.677 13.068-6.606 22.805-.13-4.775.842-12.805 6.606-22.805m-49.543 81.18c1.125-4.647 4.164-12.147 12.34-20.286-1.077 4.784-4.072 12.438-12.34 20.286m-65.396 20.482c-23.258 4.474-43.622.937-64.677-11.262 33.047-.579 46.823 1.774 64.677 11.262m154.72 79.843c-5.005 0-9.052-1.564-9.052-3.519s4.047-3.54 9.052-3.54c5.025 0 9.073 1.585 9.073 3.54s-4.048 3.52-9.073 3.52m27.217 0c-5.024 0-9.072-1.565-9.072-3.52s4.048-3.54 9.072-3.54c5.006 0 9.053 1.585 9.053 3.54s-4.047 3.52-9.053 3.52m-5.332 8.663c6.657-.41 13.422-1.232 19.965-2.027 20.367-2.476 41.408-5.033 62.415 4.48-18.203 31.361-49.431 47.404-95.379 49.022-40.19 1.415-70.642-15.41-88.181-48.672 21.535-14.276 42.753-10.443 65.189-6.388 11.768 2.125 23.937 4.324 35.991 3.585m80.058-13.28c-56.344-12.25-116.682-19.835-177.996 2.505 7.184-18.414 27.249-41.164 44.292-49.598 4.304-2.13 8.17-3.21 11.414-3.21 1.495 0 2.859.23 4.071.692 22.712 8.653 38.616 9.008 58.68 1.307 6.357-2.445 13.427 2.227 19.664 6.348l.809.535c16.287 10.718 28.153 23.257 39.066 41.42m220.039-194.345c1.032.175 2.266 1.272 3.218 2.855 2.209 3.715-.971 12.811-10.926 22.988-.358-1.739-.699-3.635-.729-4.167-.657-9.404-.677-15.016 6.554-21.02.877-.726 1.496-.722 1.883-.656m-252.133 618.98c-34.388-58.935-85.319-103.866-160.283-141.403-44.027-22.049-93.631-49.637-125.057-98.158-16.429-25.336-24.018-50.234-23.202-76.119.383-11.919.252-24.765-.411-40.426-.563-13.41-1.05-24.99 9.361-35.586 7.109-7.23 7.949-16.884 8.762-26.219.294-3.384.596-6.846 1.192-10.227 15.061 25.371 23.404 53.908 25.475 87.06.746 12.114 2.429 26.24 9.262 39.156 5.175 9.755 10.021 20.333 7.535 33.001-.652 3.366-2.007 10.372 4.425 12.68 2.245.808 4.54.646 6.636-.469 2.469-1.312 4.443-3.869 5.151-6.674 2.09-8.312 5.273-13.405 9.461-15.138 6.682-2.763 16.196 2.943 23.841 7.527 40.72 24.435 90.448 48.928 150.531 45.331 15.567-.938 31.501-.69 46.91-.452 6.486.101 13.175.204 19.775.22l.133.43c.073.235.161.516.229.758l-.08.077c-5.66 5.45-12.076 11.624-12.206 18.952-.068 3.894 1.679 7.71 5.195 11.34 10.415 10.743 24.543 5.11 33.478-2.982 13.343-12.117 21.337-16.652 28.535-16.163 9.28.626 18.831 10.02 33.209 27.133 8.323 9.92 16.577 20.193 24.559 30.127 6.368 7.926 12.953 16.122 19.548 24.108 1.581 1.893 3.795 3.093 5.936 4.254.937.507 1.906 1.033 2.787 1.601l2.165 1.395.815-2.443c5.928-17.754 3.974-35.408-5.65-51.057-15.748-25.606-51.058-44.44-97.258-52.006 21.542-19.303 39.267-40.059 58.438-63.113 30.062-36.147 60.78-71.223 91.301-104.255 32.281-34.959 83.501-78.12 95.072-85.224v609.277h-271.832c-6.847-1.79-10.809-6.376-9.5-23.185 2.803-36.046-5.351-70.743-24.238-103.129m-38.698-1017.083c28.543-22.775 85.095-27.909 123.922-11.1-40.961 21.856-84.736 16.634-123.922 11.1m-11.654-10.392c1.93-25.955 14.604-44.82 27.978-64.724q1.13-1.68 2.259-3.366c2.4 22.136-8.607 46.981-30.237 68.09m41.356-42.839c1.579-15.61 5.366-25.145 12.049-30.578 4.501-3.657 10.493-5.467 18.186-5.467a56 56 0 0 1 4.855.22c-8.803 9.538-24.35 25.33-35.09 35.825M2048.042 1610h868V310h-868Zm0-1300"/></g></svg>