<svg xmlns="http://www.w3.org/2000/svg" width="2048" height="1920" viewBox="0 0 2048 1920"><defs><clipPath id="clip_1"><path d="M0 0h2048v1920H0Z"/></clipPath></defs><g clip-path="url(#clip_1)"><path fill="#231f20" d="M1338.006 456.528c14.106.526 27.22-4.446 40.583-8.023 1.178-.315 2.514-.749 2.572-2.18.068-1.679-1.325-2.513-2.566-3.272-3.619-2.215-7.794-2.208-11.729-3.098-28.449-6.437-56.998-11.87-86.35-9.744-4.727.342-9.505.281-14.268-.646-12.726-2.476-24.09-7.689-33.52-17.154-3.946-3.96-8.688-4.42-13.229-1.862-3.997 2.253-4.264 6.25-3.668 10.951 1.017 8.013 6.653 9.676 12.287 9.888 7.372.278 14.138 2.242 20.76 5.08 28.576 12.246 58.662 17.05 89.128 20.06m-124.14 109.464c.35-9.524-.979-10.589-8.01-7.072-17.826 8.917-35.499 18.17-53.359 27.006-4.189 2.072-5.773 4.821-6.38 9.602-2.694 21.182-6.553 42.156-14.715 61.896-4.905 11.863-10.546 23.393-15.855 35.073-1.064 2.34-1.827 5.052-.365 7.138 1.804 2.574 4.502.554 6.537-.103 3.152-1.018 6.392-2.373 9.034-4.388 21.246-16.2 41.262-33.875 56.388-56.65 14.791-22.269 21.82-47.792 26.725-72.502m-455.15 402.074c-1.029-19.399-1.03-38.505.5-57.673 2.292-28.704 6.027-57.106 11.535-85.33 14.368-73.627 40.498-142.474 76.623-207.234 14.973-26.843 30.83-53.142 50.02-77.036.917-1.142 3.158-2.483 1.18-4.266-1.582-1.425-3.167.206-4.404 1.256-3.325 2.822-6.628 5.688-9.78 8.72-28.328 27.24-51.537 59.124-75.112 90.674-1.217 1.628-2.102 3.657-4.562 4.063-.35-2.956 1.217-4.986 2.081-7.207 13.892-35.673 32.764-68.287 55.477-98.53 30.732-40.922 67.801-73.98 112.408-97.218 31.16-16.232 64.283-27.129 97.9-36.273 32.447-8.827 65.268-14.97 98.898-16.958 17.244-1.02 34.401-1.38 51.344 1.005 25.441 3.581 50.006 11.41 74.28 20.151 8.477 3.052 17.221 5.295 25.843 7.907-3.337-6.979-8.33-11.71-14.106-15.486-21.726-14.206-46.196-20.712-70.566-27.678-37.573-10.74-75.376-13.76-113.974-6.942-22.197 3.921-44.332 7.924-66.165 13.712-27.393 7.261-54.413 15.707-80.058 28.27-37.844 18.537-71.233 43.893-101.536 73.81-12.893 12.728-24.31 26.942-36.72 40.276 1.94-6.383 3.517-12.453 6.884-18.01 12.117-19.996 24.886-38.514 41.872-53.787 4.86-4.369 3.368-5.974-.852-8.568-27.935-17.17-52.389-23.535-85.25-20.22-25.525 2.573-48.635 10.934-69.03 27.204-7.733 6.17-7.422 11.734.755 17.363 5.416 3.728 11.502 6.018 17.526 8.293 30.323 11.452 52.487 30.84 58.222 65.84 1.401 8.548 4.89 17.327-.518 26.035-25.467 41.001-45.782 84.69-61.846 130.57-17.825 50.911-29.745 103.24-36.294 157.07-3.638 29.902-5.856 59.837-6.787 89.903-.462 14.937.753 29.875 1.257 44.812.915 27.17 3.113 54.236 6.262 81.162 4.666 39.9 12.39 79.288 21.652 118.291 1.841 7.751-1.112 8.004-6.67 8.617-25.774 2.847-45.759 15.994-59.429 38.861-15.465 25.87-15.222 54.16-9.979 82.897.566 3.102 1.87 6.207 5.874 6.506 3.803.285 6.262-1.112 7.866-4.836 6.72-15.604 19.011-21.345 34.627-21.059 14.314.261 28.283 3.724 42.5 5.106 10.453 1.016 19.542 2.065 24.99-11.669 5.548 14.715 15.31 20.544 28.165 21.401 13.296.886 26.62 1.863 39.65 4.77 14.6 3.256 30.672 3.685 39.361 20.037 1.91 3.595 4.61 2.671 6.925-.163 2.413-2.952 2.65-6.433 2.01-9.909-11.226-61.034-47.404-98.958-101.74-120.127-4.49-1.749-5.433-.61-6.183 4.19-1.256 8.028-.32 16.586-4.834 26.052-.349-26.474.907-50.807 2.34-75.194 1.853-31.555 6.233-62.707 12.28-93.534 8.154-41.562 19.823-82.144 35.352-121.444 29.816-75.46 71.014-143.413 122.84-204.402 24.396-28.709 51.205-54.85 78.34-80.646 39.122-37.189 80.413-70.918 130.134-91.8 23.128-9.715 45.34-21.983 68.796-30.635 37.551-13.85 75.873-25.4 113.706-38.439 16.168-5.573 33.217-9.286 46.963-20.953 4.211-3.574 7.392-7.526 6.244-14.347-3.05 1.253-5.925 1.933-8.278 3.48-21.952 14.428-46.622 15.971-71.474 16.801-31.526 1.053-62.86-.94-94-6.238-1.54-.263-3.822-1.82-4.599.103-3.448 8.535-10.792 5.845-16.75 6.53-20.51 2.36-41.014 1.765-61.032-3.582-11.28-3.012-22.533-5.912-34.079-7.13-31.59-3.336-60.704 6.334-88.966 19.567-33.569 15.718-64.239 36.443-93.022 60.266-5.585 4.622-10.728 9.834-16.014 14.844-1.25 1.185-2.276 2.701-1.512 4.632.728 1.837 2.42 1.273 3.728 1.24 4.281-.11 8.534.17 12.846-.596 22.212-3.939 44.257-8.596 65.858-15.378 2.494-.783 5.076-1.574 7.645-1.69 2.335-.107 4.436-2.6 5.777-1.877C876.844 666.17 801.394 806.38 758.716 968.066M994.32 240h65.943c3.12 1.692 6.53 1.166 9.824 1.3 60.322 2.443 119.762 11.416 178.297 26.745 113.544 29.734 217.351 81.125 310.641 155.033 121.893 96.567 217.527 214.914 274.855 364.902 25.232 66.015 45.474 133.315 53.87 204.118 1.131 9.534-1.389 12.894-11.124 16.876-24.816 10.15-50.917 12.964-77.103 15.225-34.22 2.956-68.34 7.36-102.732 7.933-.17.002-.33.708-.693 1.532 15.013 5.098 30.668 4.71 45.993 6.275 38.233 3.902 76.525 7.15 114.791 10.693 2.502.232 6.16-.213 6.07 3.447-.07 2.82-3.51 2.806-5.812 3.062-23.003 2.565-46.03 4.913-69.013 7.66-11.609 1.386-23.322 2.134-34.732 5.03-1.503.38-3.865.334-3.78 2.616.082 2.284 2.354 2.036 3.936 2.262 10.86 1.55 21.736 2.973 32.58 4.63 3.805.582 8.093.218 10.937 4.127-2.222 2.877-5.049 1.897-7.51 1.93-48.007.615-96.014 1.212-144.02 1.69-21.28.212-42.483 1.386-63.55 4.64-1.762.271-4.372-.107-4.566 2.516-.196 2.646 2.413 2.594 4.143 3.2 11.35 3.97 22.994 6.807 34.78 8.714 25.703 4.158 51.437 8.16 77.226 11.684 39.753 5.432 79.586 10.217 119.332 15.696 11.8 1.627 23.45 4.52 35.1 7.166 2.653.603 6.25 2.012 6.278 5.293.032 3.714-3.882 4.182-6.537 4.491-9.469 1.104-18.978 1.873-28.484 2.6-36.714 2.803-73.519 1.428-110.276 2.25-48.23 1.08-96.418 3.012-144.604 5.187-2.528.114-5.249-.314-7.366 2.147 3.627 1.962 7.451 2.016 11.241 2.248 37.17 2.28 74.344 4.496 111.505 6.935 3.492.23 9.577-1.387 9.712 3.207.116 3.963-6.018 3.281-9.58 3.601-44.014 3.944-88.184 4.771-132.284 6.95-46.267 2.284-92.507 4.938-138.709 8.314-5.758.421-11.835.687-18.937 3.464 5.396 2.568 9.246 2.675 12.99 2.996 39.002 3.346 78.016 6.407 117.135 8.057 32.21 1.358 64.368 4.126 96.581 5.331 27.682 1.036 55.306 2.713 82.92 4.816 10.527.801 20.8 3.06 30.991 5.727 3.436.9 7.525 2.144 7.53 6.741.003 4.472-4.229 4.804-7.313 5.837-2.262.757-4.636 1.152-6.96 1.707-24.838 5.933-50.274 5.248-75.454 7.314-30.454 2.5-60.963 4.26-91.417 6.76-6.42.526-13.263-.193-20.09 3.74 3.352 2.013 6.293 2.287 9.275 2.72 41.201 5.984 82.78 7.017 124.177 10.391 37.597 3.064 75.294 4.833 112.77 9.443 6.396.787 12.745 2.024 19.09 3.208 2.943.55 6.093 2.204 6.358 5.207.32 3.608-3.56 3.402-5.927 4.02-12.793 3.336-25.944 4.41-38.997 5.353-47.14 3.41-94.3 6.69-141.494 9.132-45.56 2.358-90.989 5.842-136.153 12.62-7.533 1.13-14.995 2.815-22.457 4.408-1.57.335-3.44 1.277-3.228 3.347.17 1.655 2.027 2.016 3.364 2.376 5.077 1.364 10.13 3.048 15.3 3.785 44.236 6.307 88.724 9.967 133.226 13.45 7.407.58 14.71 1.782 21.564 4.822 4.417 1.96 5.527 4.8.49 7.624-2.089 1.171-4.293 2.232-6.562 2.921-11.504 3.491-23.375 5.092-35.22 6.286-41.827 4.215-83.875 4.635-125.782 7.588-27.15 1.913-54.367 2.851-81.509 4.88-41.182 3.08-82.36 6.326-123.472 10.278-24.91 2.395-49.914 4.514-74.449 10.086-3.53.802-9.563.656-9.428 4.423.133 3.697 6.251 3.283 9.808 3.864 27.38 4.476 54.995 6.293 82.65 7.704 15.97.815 31.921 2.163 47.698 5.014 2.567.464 6.511.511 6.315 4.61-.158 3.31-3.614 3.462-6.065 4.235-.905.286-1.894.266-2.828.47-22.459 4.9-45.314 6.997-67.957 10.58-8.435 1.334-17.319.96-26.758 6.014 4.143.913 6.637 1.79 9.176 1.971 22.864 1.63 45.74 3.082 68.606 4.696a14338 14338 0 0 1 74.95 5.514c2.11.16 4.21.814 6.254 1.446 1.386.428 2.762 1.245 2.49 3.121-.189 1.3-1.068 2.221-2.32 2.584-1.837.532-3.674 1.08-5.537 1.491-18.503 4.084-37.447 4.553-56.092 7.466-10.883 1.7-22.005 1.968-32.66 5.602.84.815 1.657 1.134 2.495 1.212 24.006 2.223 48.03 4.025 72.128 4.897 60.843 2.202 121.671 4.854 182.517 6.976 27.928.974 55.78 2.91 83.587 5.611 3.717.361 9.886-.247 9.814 4.685-.057 4-6.174 3.37-9.77 3.814-32.76 4.047-65.747 4.243-98.642 5.668-52 2.251-104.05 3.243-156.066 5.172-46.52 1.726-93.054 3.463-139.455 7.528-7.782.682-15.954.605-23.662 4.515 2.561 2.96 5.485 2.99 8.27 3.441 51.398 8.327 103.34 12.647 154.472 22.961 11.26 2.272 22.49 4.64 33.331 8.587 2.343.853 5.346 2.092 5.01 5.506-.237 2.41-2.455 3.56-4.623 4.153-3.456.947-6.897 2.327-10.412 2.606-34.75 2.756-69.525 5.158-104.268 8.005-21.869 1.793-43.888 1.98-65.543 6.224-3.069.601-6.459.57-9.56 3.902 8.653 4.856 17.53 5.79 26.08 7.11 21.22 3.278 42.556 5.74 63.83 8.66 3.107.425 8.174-.03 8.166 3.862-.008 3.64-5.132 3.614-8.245 4.162-39.789 7.002-79.958 10.813-120.027 15.466-38.642 4.49-77.368 8.298-115.694 15.341-3.767.692-8.089.763-11.765 5.023 9.85 2.698 19.185 3.972 28.532 4.431 36.005 1.768 72.03 3.116 108.038 4.81 14.311.674 28.601 1.836 42.9 2.785 2.383.158 5.8.182 5.925 2.87.17 3.654-3.722 2.801-6.046 3.506-.673.204-1.423.147-2.138.178-22.183.936-44.358 2.3-66.55 2.713-51.34.955-102.687 1.582-154.033 2.093-59.702.594-119.408 1.03-179.017-3.583-8.343-.646-16.635-1.703-24.749-3.985-2.162-.608-4.36-1.238-4.824-3.806-.556-3.078 1.88-4.357 3.921-5.557 1.436-.844 3.106-1.275 4.7-1.8 21.96-7.23 44.807-9.759 67.402-13.382 46.902-7.519 93.946-14.067 140.863-21.48 23.572-3.725 47.031-8.306 70.017-15.107 1.901-.563 5.133-.8 4.923-3.415-.249-3.116-3.514-2.553-5.8-2.955-19.185-3.373-38.618-2.636-57.892-2.82-105.1-1.012-210.206-1.338-315.31-1.797-10.668-.047-21.383-.363-31.988 1.52 14.664 1.452 29.356 2.315 43.978 3.897 10.425 1.128 20.771 3.122 31.114 4.966 2.19.39 5.328.891 5.264 4.065-.08 3.996-3.61 3.296-6.03 3.51-6.896.604-13.814 1.421-20.717 1.356-29.12-.27-58.237-.98-87.358-1.252-40.87-.379-81.557-3.779-122.194-7.906-6.595-.67-13.062-2.823-19.556-4.435-2.175-.54-3.975-1.87-4.247-4.48-.3-2.893 1.846-3.885 3.825-4.708 2.432-1.012 4.933-1.995 7.492-2.489 14.311-2.76 28.667-5.276 43.18-6.57 38.763-3.459 77.583-5.9 116.474-7.223 58.71-1.997 117.42-4.027 176.112-6.484 18.591-.778 37.13-2.957 55.69-4.518 1.845-.155 4.494-.024 4.527-2.437.033-2.454-2.627-2.297-4.47-2.55-4.495-.619-8.984-1.275-13.485-1.833-31.063-3.845-62.276-5.705-93.475-7.806-56.205-3.785-112.41-7.576-168.588-11.79-15.687-1.176-31.524-1.358-46.976-4.947-2.517-.584-6.632-.664-6.579-4.435.05-3.488 3.721-3.926 6.502-4.675 12.097-3.259 24.53-3.6 36.871-4.846 36.343-3.67 72.748-6.429 109.198-8.565 28.358-1.66 56.74-2.944 85.08-4.87 38.562-2.62 77.101-5.623 115.64-8.605 16.66-1.289 33.251-3.329 49.73-6.249 1.546-.274 3.841-.363 3.994-2.384.17-2.225-2.028-2.29-3.655-2.566-5.878-.994-11.729-2.248-17.639-2.949-44.156-5.239-88.528-7.253-132.893-8.982-44.62-1.738-89.157-4.855-133.692-7.99-10.658-.75-21.206-3.35-31.775-5.275-2.362-.43-4.862-1.596-4.605-4.758.211-2.604 2.376-3.487 4.585-4.03 5.804-1.43 11.544-3.228 17.406-4.297 28.424-5.186 57.15-8.476 85.4-14.77 2.468-.55 5.328-.31 6.266-4.214-1.348-.459-2.628-1.016-3.96-1.329-17.794-4.185-35.995-5.128-54.053-5.62-73.297-1.999-146.61-3.43-219.926-4.629-33.684-.55-67.289-1.974-100.763-5.959-4.492-.535-11.97.163-12.168-5.146-.236-6.389 7.537-5.45 12.01-6.305 37.868-7.234 76.307-8.713 114.583-11.742 23.08-1.826 46.222-2.99 69.143-6.44 6.775-1.02 14.031-1.446 20.64-6.059-2.668-2.537-5.213-3.115-7.789-3.385-9.73-1.019-19.46-2.068-29.207-2.874-39.274-3.244-78.66-4.235-118.002-6.032-32.208-1.47-64.403-2.842-96.475-6.43-3.165-.355-7.01-.397-7.186-4.446-.186-4.264 4.017-4.244 6.916-4.898 41.29-9.312 83.132-15.328 124.694-23.023 4.591-.85 9.955-.673 13.878-5.779-10.15-3.79-20.173-4.485-30.018-4.873-52.736-2.083-105.44-4.834-158.119-8.074-14.75-.907-29.603-1.126-44.179-4.209-2.4-.508-5.07-.53-6.923-3.29 2.865-2.546 5.82-2.982 8.94-3.316 30.412-3.252 60.965-4.309 91.47-5.65 67.988-2.99 136.006-5.294 204.025-7.426 21.763-.682 43.34-3.129 64.957-5.323 2.431-.247 6.453-.092 6.728-2.974.308-3.236-3.658-3.11-6.056-3.837-2.749-.83-5.542-1.52-8.337-2.17-28.01-6.509-56.518-9.586-84.929-13.246-31.022-3.997-62.077-7.762-93.164-11.163-31.085-3.402-62.227-6.257-93.18-10.862-2.045-.304-4.086-1.344-5.904-2.447-3.347-2.03-3.029-4.185.393-5.763 1.95-.9 4.002-1.757 6.09-2.1 10.826-1.786 21.703-3.255 32.518-5.113 10.11-1.737 20.623-1.662 31.423-6.493-7.699-5.026-15.159-5.232-22.236-7-4.046-1.012-11.45.731-11.244-4.689.162-4.255 7.667-3.386 11.973-3.837 66.262-6.938 132.865-9.444 199.103-16.734 22.304-2.455 44.728-3.957 66.607-9.573 2.21-.568 5.825-.673 5.817-3.343-.012-3.543-3.737-2.942-6.21-3.338-26-4.17-52.263-5.356-78.457-7.01-38.604-2.44-77.204-4.943-115.859-6.59-40.529-1.727-81.033-4.444-121.483-7.629-17.578-1.384-35.262-2.428-52.674-5.756-3.193-.61-8.212-.62-8.186-4.358.03-4.407 5.234-4.05 8.563-4.642 30.42-5.412 61.274-6.062 91.915-9.068 7.937-.779 15.935-1.157 23.567-3.78-.365-1.929-1.445-1.846-2.332-1.923-17.127-1.49-34.25-3.026-51.384-4.412-32.127-2.599-64.268-5.024-96.384-7.756-4.309-.366-11.45-.236-11.396-5.115.056-5.133 7.47-5.046 11.77-5.835 24.711-4.536 49.845-4.899 74.784-6.79 44.27-3.358 88.684-4.66 132.953-8.27 10.655-.869 21.492-1.043 31.83-4.666-15.526-3.93-31.356-3.799-47.004-4.675-51.716-2.896-103.429-5.808-155.09-9.609-6.838-.503-13.867-.539-20.43-3.185-1.502-.605-3.442-1.39-3.33-3.457.11-2.032 2.042-2.617 3.634-3.077 3.22-.929 6.444-1.948 9.732-2.487 29.495-4.838 59.308-6.814 88.914-10.665 9.267-1.205 18.533-2.418 27.8-3.628-1.682-1.693-3.26-2.009-4.849-2.103-36.929-2.169-73.929-2.43-110.839-5.487-29.524-2.444-58.992-4.988-87.914-11.777-9.755-2.29-20.562-3.594-26.507-14.182v-1.499c.523-1.373 1.361-2.706 1.523-4.124 4.407-38.72 13.066-76.475 23.477-113.838C215.192 770.687 262.852 671.6 330.278 583.36c85.463-111.844 191.433-196.496 315.482-256.54 99.575-48.198 204.283-75.69 313.682-84.108 11.621-.894 23.387-.002 34.877-2.71"/></g></svg>