<svg xmlns="http://www.w3.org/2000/svg" xmlns:xlink="http://www.w3.org/1999/xlink" xmlns:inkscape="http://www.inkscape.org/namespaces/inkscape" version="1.1" width="2048" height="1920" viewBox="0 0 2048 1920">
<defs>
<clipPath id="clip_1">
<path transform="matrix(1,0,0,-1,0,1920)" d="M0 1920H2048V0H0Z"/>
</clipPath>
</defs>
<g inkscape:groupmode="layer" inkscape:label="Layer 1">
<g clip-path="url(#clip_1)">
<path transform="matrix(1,0,0,-1,1338.0064,456.52845)" d="M0 0C14.106-.526 27.219 4.446 40.583 8.023 41.761 8.338 43.097 8.772 43.155 10.203 43.223 11.882 41.83 12.716 40.589 13.475 36.97 15.69 32.795 15.683 28.86 16.573 .411 23.01-28.138 28.443-57.491 26.317-62.217 25.975-66.995 26.036-71.758 26.963-84.484 29.439-95.849 34.652-105.278 44.117-109.224 48.078-113.966 48.538-118.507 45.979-122.504 43.726-122.771 39.729-122.175 35.028-121.158 27.015-115.522 25.352-109.888 25.14-102.516 24.862-95.75 22.898-89.128 20.061-60.552 7.814-30.466 3.01 0 0M-124.14-109.464C-123.79-99.94-125.119-98.875-132.151-102.392-149.976-111.309-167.649-120.561-185.509-129.398-189.698-131.47-191.282-134.219-191.89-139-194.583-160.182-198.442-181.156-206.604-200.896-211.509-212.759-217.15-224.289-222.459-235.969-223.523-238.309-224.286-241.021-222.824-243.107-221.02-245.681-218.322-243.661-216.287-243.004-213.135-241.986-209.895-240.631-207.253-238.616-186.007-222.416-165.991-204.741-150.865-181.966-136.074-159.697-129.045-134.174-124.14-109.464M-579.29-511.538C-580.319-492.139-580.32-473.033-578.79-453.865-576.498-425.161-572.763-396.759-567.255-368.534-552.887-294.908-526.757-226.061-490.632-161.301-475.659-134.458-459.802-108.159-440.612-84.265-439.695-83.123-437.454-81.782-439.433-79.999-441.014-78.574-442.599-80.205-443.836-81.255-447.161-84.077-450.464-86.943-453.616-89.974-481.944-117.215-505.153-149.099-528.728-180.649-529.945-182.277-530.83-184.306-533.29-184.712-533.641-181.756-532.073-179.726-531.209-177.505-517.317-141.832-498.445-109.218-475.732-78.974-445-38.053-407.931-4.994-363.324 18.243-332.164 34.475-299.041 45.372-265.425 54.516-232.977 63.343-200.156 69.487-166.526 71.474-149.282 72.494-132.125 72.855-115.182 70.469-89.741 66.888-65.176 59.059-40.902 50.318-32.425 47.266-23.681 45.023-15.059 42.411-18.396 49.39-23.39 54.121-29.165 57.897-50.891 72.103-75.361 78.609-99.731 85.575-137.304 96.315-175.107 99.336-213.705 92.517-235.902 88.596-258.037 84.593-279.87 78.805-307.263 71.544-334.283 63.098-359.928 50.535-397.772 31.998-431.161 6.642-461.464-23.274-474.357-36.003-485.775-50.217-498.184-63.551-496.244-57.168-494.667-51.098-491.3-45.541-479.183-25.545-466.414-7.027-449.428 8.246-444.569 12.615-446.06 14.22-450.28 16.814-478.215 33.985-502.669 40.349-535.531 37.035-561.055 34.461-584.165 26.1-604.56 9.83-612.293 3.661-611.982-1.904-603.805-7.533-598.389-11.261-592.303-13.551-586.279-15.826-555.956-27.278-533.792-46.666-528.057-81.665-526.656-90.214-523.167-98.993-528.575-107.701-554.042-148.702-574.357-192.39-590.421-238.271-608.246-289.182-620.166-341.511-626.715-395.341-630.353-425.243-632.571-455.178-633.502-485.244-633.964-500.181-632.749-515.119-632.245-530.056-631.33-557.225-629.132-584.292-625.983-611.218-621.317-651.117-613.594-690.506-604.331-729.509-602.49-737.26-605.443-737.513-611.002-738.126-636.775-740.973-656.76-754.12-670.43-776.987-685.895-802.856-685.652-831.146-680.409-859.884-679.843-862.986-678.539-866.091-674.535-866.39-670.732-866.675-668.273-865.278-666.669-861.554-659.949-845.95-647.658-840.209-632.042-840.495-617.728-840.756-603.759-844.219-589.543-845.601-579.089-846.617-570-847.666-564.552-833.932-559.004-848.647-549.242-854.476-536.387-855.333-523.091-856.219-509.768-857.196-496.738-860.103-482.138-863.359-466.065-863.788-457.376-880.14-455.466-883.735-452.767-882.811-450.451-879.977-448.038-877.025-447.801-873.544-448.441-870.068-459.667-809.034-495.845-771.11-550.182-749.941-554.671-748.192-555.614-749.331-556.364-754.13-557.62-762.159-556.684-770.717-561.198-780.183-561.547-753.709-560.291-729.376-558.858-704.989-557.005-673.434-552.625-642.282-546.578-611.455-538.424-569.893-526.755-529.311-511.226-490.011-481.41-414.551-440.212-346.598-388.386-285.609-363.99-256.9-337.181-230.759-310.046-204.963-270.924-167.774-229.633-134.045-179.912-113.162-156.784-103.448-134.573-91.18-111.116-82.528-73.565-68.678-35.243-57.128 2.59-44.089 18.758-38.516 35.807-34.803 49.553-23.136 53.764-19.562 56.945-15.61 55.797-8.789 52.747-10.042 49.872-10.722 47.519-12.269 25.567-26.697 .897-28.24-23.955-29.07-55.481-30.123-86.815-28.129-117.955-22.832-119.496-22.569-121.777-21.012-122.554-22.935-126.002-31.47-133.346-28.78-139.305-29.465-159.815-31.824-180.318-31.23-200.336-25.883-211.616-22.871-222.869-19.971-234.415-18.752-266.006-15.417-295.119-25.087-323.381-38.32-356.95-54.038-387.62-74.763-416.403-98.586-421.988-103.208-427.131-108.42-432.417-113.43-433.668-114.615-434.693-116.131-433.929-118.062-433.201-119.899-431.509-119.335-430.201-119.302-425.92-119.192-421.667-119.471-417.355-118.706-395.143-114.767-373.098-110.11-351.497-103.328-349.003-102.545-346.421-101.754-343.852-101.637-341.517-101.531-339.416-99.037-338.075-99.761-461.162-209.64-536.612-349.852-579.29-511.538M-343.687 216.528H-277.744C-274.624 214.836-271.214 215.362-267.92 215.228-207.598 212.785-148.158 203.812-89.623 188.483 23.921 158.749 127.728 107.358 221.018 33.45 342.911-63.117 438.545-181.464 495.873-331.452 521.105-397.467 541.347-464.767 549.743-535.57 550.874-545.104 548.354-548.464 538.619-552.446 513.803-562.595 487.702-565.41 461.516-567.671 427.296-570.627 393.175-575.03 358.784-575.604 358.613-575.606 358.453-576.312 358.091-577.136 373.104-582.234 388.759-581.846 404.084-583.411 442.317-587.313 480.609-590.561 518.875-594.104 521.377-594.336 525.035-593.891 524.944-597.551 524.874-600.371 521.434-600.357 519.133-600.613 496.13-603.178 473.103-605.526 450.12-608.272 438.511-609.659 426.798-610.407 415.388-613.302 413.885-613.683 411.523-613.637 411.607-615.919 411.69-618.203 413.962-617.955 415.544-618.181 426.403-619.731 437.28-621.154 448.124-622.811 451.929-623.393 456.217-623.029 459.061-626.938 456.839-629.815 454.012-628.835 451.55-628.867 403.544-629.483 355.537-630.08 307.53-630.558 286.25-630.77 265.048-631.944 243.981-635.197 242.219-635.469 239.609-635.091 239.415-637.714 239.219-640.36 241.828-640.308 243.558-640.913 254.907-644.883 266.552-647.721 278.337-649.628 304.041-653.786 329.775-657.788 355.564-661.312 395.317-666.744 435.15-671.529 474.896-677.008 486.695-678.635 498.346-681.527 509.995-684.174 512.649-684.777 516.245-686.186 516.274-689.467 516.306-693.181 512.392-693.649 509.737-693.958 500.268-695.062 490.759-695.831 481.253-696.557 444.539-699.361 407.734-697.986 370.977-698.808 322.746-699.887 274.559-701.82 226.373-703.995 223.845-704.109 221.124-703.681 219.007-706.142 222.634-708.104 226.458-708.158 230.248-708.39 267.418-710.669 304.592-712.886 341.753-715.325 345.245-715.554 351.33-713.938 351.465-718.532 351.581-722.495 345.447-721.813 341.884-722.133 297.871-726.077 253.701-726.904 209.601-729.082 163.334-731.367 117.094-734.021 70.892-737.397 65.134-737.818 59.057-738.084 51.955-740.861 57.351-743.429 61.201-743.536 64.944-743.857 103.947-747.203 142.961-750.264 182.08-751.914 214.29-753.272 246.448-756.04 278.661-757.245 306.343-758.281 333.967-759.958 361.581-762.061 372.108-762.862 382.38-765.121 392.572-767.788 396.008-768.687 400.097-769.932 400.101-774.529 400.105-779.001 395.873-779.333 392.789-780.366 390.527-781.123 388.153-781.518 385.829-782.073 360.991-788.006 335.555-787.321 310.375-789.387 279.921-791.886 249.412-793.647 218.958-796.146 212.538-796.673 205.695-795.954 198.867-799.886 202.22-801.9 205.161-802.174 208.143-802.607 249.344-808.591 290.922-809.624 332.32-812.998 369.917-816.062 407.614-817.831 445.09-822.441 451.486-823.228 457.835-824.465 464.18-825.649 467.123-826.198 470.273-827.853 470.538-830.856 470.857-834.464 466.978-834.258 464.611-834.876 451.818-838.212 438.667-839.285 425.614-840.229 378.473-843.638 331.314-846.918 284.12-849.361 238.56-851.719 193.131-855.203 147.967-861.98 140.434-863.111 132.972-864.796 125.51-866.389 123.939-866.724 122.07-867.666 122.282-869.736 122.451-871.391 124.309-871.752 125.646-872.112 130.723-873.476 135.775-875.16 140.945-875.897 185.182-882.204 229.67-885.864 274.172-889.346 281.579-889.926 288.881-891.129 295.736-894.169 300.153-896.128 301.263-898.969 296.226-901.793 294.137-902.964 291.933-904.025 289.664-904.714 278.16-908.205 266.289-909.806 254.443-911 212.617-915.215 170.569-915.635 128.662-918.588 101.511-920.501 74.295-921.439 47.153-923.468 5.971-926.547-35.207-929.794-76.319-933.746-101.229-936.141-126.233-938.26-150.768-943.832-154.299-944.634-160.331-944.488-160.196-948.255-160.063-951.952-153.945-951.538-150.388-952.119-123.008-956.595-95.393-958.412-67.738-959.823-51.769-960.638-35.817-961.986-20.04-964.837-17.473-965.301-13.529-965.348-13.725-969.447-13.883-972.757-17.339-972.909-19.79-973.682-20.695-973.968-21.684-973.948-22.618-974.152-45.077-979.052-67.932-981.149-90.575-984.731-99.01-986.066-107.894-985.691-117.333-990.746-113.19-991.659-110.696-992.536-108.157-992.717-85.293-994.347-62.417-995.799-39.551-997.413-14.563-999.177 10.42-1001.032 35.399-1002.927 37.509-1003.087 39.608-1003.741 41.653-1004.373 43.039-1004.801 44.415-1005.618 44.143-1007.494 43.954-1008.793 43.075-1009.715 41.823-1010.078 39.986-1010.61 38.149-1011.158 36.286-1011.569 17.783-1015.653-1.161-1016.122-19.806-1019.035-30.689-1020.735-41.811-1021.003-52.467-1024.637-51.627-1025.452-50.809-1025.771-49.971-1025.849-25.965-1028.072-1.941-1029.874 22.157-1030.746 83-1032.948 143.828-1035.6 204.674-1037.722 232.602-1038.696 260.453-1040.632 288.261-1043.333 291.978-1043.694 298.147-1043.086 298.075-1048.018 298.018-1052.017 291.901-1051.388 288.304-1051.832 255.544-1055.879 222.558-1056.075 189.663-1057.5 137.662-1059.751 85.612-1060.743 33.597-1062.672-12.924-1064.398-59.457-1066.135-105.858-1070.2-113.64-1070.882-121.812-1070.805-129.52-1074.715-126.959-1077.675-124.035-1077.705-121.251-1078.156-69.852-1086.483-17.91-1090.803 33.222-1101.117 44.481-1103.389 55.711-1105.757 66.553-1109.704 68.896-1110.557 71.899-1111.796 71.563-1115.21 71.326-1117.619 69.108-1118.769 66.94-1119.363 63.484-1120.31 60.043-1121.69 56.528-1121.969 21.778-1124.725-12.997-1127.127-47.74-1129.974-69.609-1131.767-91.628-1131.954-113.283-1136.198-116.352-1136.799-119.742-1136.768-122.843-1140.1-114.19-1144.956-105.314-1145.889-96.764-1147.21-75.543-1150.488-54.207-1152.949-32.934-1155.869-29.826-1156.295-24.759-1155.84-24.767-1159.732-24.775-1163.371-29.899-1163.346-33.012-1163.894-72.801-1170.896-112.97-1174.707-153.039-1179.36-191.681-1183.849-230.407-1187.658-268.733-1194.701-272.5-1195.393-276.822-1195.464-280.498-1199.724-270.649-1202.422-261.313-1203.696-251.966-1204.155-215.961-1205.923-179.937-1207.271-143.928-1208.965-129.617-1209.639-115.327-1210.801-101.028-1211.75-98.645-1211.908-95.228-1211.932-95.103-1214.619-94.934-1218.274-98.825-1217.421-101.149-1218.126-101.822-1218.33-102.572-1218.273-103.287-1218.304-125.47-1219.24-147.645-1220.604-169.837-1221.017-221.177-1221.972-272.524-1222.599-323.87-1223.11-383.572-1223.704-443.278-1224.139-502.887-1219.527-511.23-1218.881-519.522-1217.824-527.636-1215.542-529.798-1214.934-531.997-1214.304-532.46-1211.736-533.016-1208.658-530.581-1207.379-528.539-1206.179-527.103-1205.335-525.433-1204.904-523.84-1204.379-501.88-1197.148-479.032-1194.62-456.437-1190.997-409.535-1183.478-362.491-1176.93-315.574-1169.517-292.002-1165.792-268.543-1161.211-245.557-1154.41-243.656-1153.847-240.424-1153.609-240.634-1150.995-240.883-1147.879-244.148-1148.442-246.434-1148.04-265.619-1144.667-285.052-1145.404-304.326-1145.219-409.426-1144.208-514.532-1143.882-619.637-1143.423-630.304-1143.376-641.019-1143.06-651.624-1144.943-636.96-1146.395-622.268-1147.258-607.646-1148.84-597.221-1149.968-586.875-1151.962-576.532-1153.806-574.343-1154.196-571.204-1154.697-571.268-1157.871-571.349-1161.867-574.878-1161.167-577.298-1161.38-584.194-1161.985-591.112-1162.802-598.015-1162.737-627.135-1162.466-656.252-1161.756-685.373-1161.485-726.243-1161.106-766.93-1157.706-807.567-1153.579-814.162-1152.909-820.629-1150.756-827.123-1149.144-829.298-1148.604-831.098-1147.273-831.37-1144.664-831.671-1141.771-829.524-1140.779-827.545-1139.956-825.113-1138.944-822.612-1137.961-820.053-1137.467-805.742-1134.706-791.386-1132.191-776.874-1130.896-738.11-1127.438-699.29-1124.997-660.399-1123.674-601.689-1121.677-542.98-1119.647-484.287-1117.19-465.696-1116.412-447.158-1114.233-428.598-1112.672-426.752-1112.517-424.103-1112.648-424.07-1110.235-424.037-1107.781-426.697-1107.938-428.541-1107.684-433.035-1107.066-437.524-1106.41-442.025-1105.852-473.088-1102.007-504.301-1100.147-535.5-1098.046-591.705-1094.261-647.911-1090.47-704.088-1086.256-719.775-1085.08-735.612-1084.898-751.064-1081.309-753.581-1080.725-757.696-1080.645-757.643-1076.874-757.594-1073.386-753.922-1072.948-751.141-1072.199-739.044-1068.94-726.611-1068.599-714.27-1067.353-677.927-1063.683-641.522-1060.924-605.072-1058.788-576.714-1057.127-548.333-1055.844-519.992-1053.918-481.43-1051.298-442.891-1048.295-404.353-1045.313-387.692-1044.024-371.101-1041.984-354.622-1039.064-353.076-1038.79-350.781-1038.701-350.628-1036.68-350.459-1034.455-352.656-1034.389-354.283-1034.114-360.161-1033.12-366.012-1031.866-371.922-1031.165-416.078-1025.926-460.45-1023.912-504.815-1022.183-549.436-1020.445-593.972-1017.328-638.507-1014.193-649.165-1013.443-659.713-1010.842-670.282-1008.918-672.644-1008.488-675.144-1007.322-674.887-1004.16-674.676-1001.556-672.511-1000.673-670.302-1000.129-664.498-998.7-658.758-996.902-652.896-995.833-624.472-990.647-595.747-987.357-567.496-981.063-565.028-980.513-562.168-980.753-561.23-976.849-562.578-976.39-563.858-975.833-565.191-975.52-582.984-971.335-601.185-970.392-619.243-969.9-692.54-967.901-765.854-966.47-839.169-965.271-872.853-964.72-906.458-963.297-939.932-959.312-944.424-958.777-951.903-959.475-952.1-954.166-952.336-947.777-944.563-948.715-940.09-947.861-902.222-940.627-863.783-939.148-825.507-936.119-802.427-934.293-779.285-933.128-756.364-929.678-749.589-928.659-742.333-928.233-735.724-923.62-738.392-921.083-740.937-920.505-743.513-920.235-753.243-919.216-762.973-918.167-772.72-917.361-811.994-914.117-851.38-913.126-890.722-911.329-922.93-909.859-955.125-908.487-987.197-904.898-990.362-904.544-994.207-904.502-994.383-900.453-994.569-896.189-990.366-896.209-987.467-895.555-946.178-886.243-904.335-880.227-862.773-872.532-858.182-871.682-852.818-871.859-848.895-866.753-859.046-862.962-869.068-862.268-878.913-861.88-931.649-859.797-984.353-857.046-1037.032-853.806-1051.782-852.899-1066.635-852.68-1081.211-849.597-1083.612-849.089-1086.282-849.067-1088.134-846.306-1085.269-843.761-1082.315-843.325-1079.195-842.991-1048.782-839.739-1018.229-838.682-987.724-837.34-919.736-834.35-851.718-832.047-783.699-829.915-761.936-829.233-740.359-826.786-718.742-824.592-716.311-824.345-712.289-824.5-712.014-821.618-711.706-818.382-715.672-818.507-718.07-817.781-720.819-816.95-723.612-816.26-726.407-815.611-754.417-809.102-782.925-806.025-811.336-802.365-842.358-798.368-873.413-794.603-904.5-791.202-935.585-787.8-966.727-784.945-997.681-780.34-999.725-780.036-1001.766-778.996-1003.584-777.893-1006.931-775.862-1006.613-773.708-1003.191-772.13-1001.241-771.23-999.189-770.373-997.102-770.029-986.275-768.244-975.398-766.775-964.583-764.917-954.474-763.18-943.96-763.255-933.16-758.424-940.859-753.398-948.319-753.192-955.396-751.423-959.442-750.412-966.846-752.155-966.64-746.735-966.478-742.48-958.973-743.349-954.667-742.898-888.405-735.96-821.802-733.454-755.564-726.164-733.26-723.709-710.836-722.207-688.957-716.591-686.747-716.023-683.132-715.918-683.14-713.248-683.152-709.705-686.877-710.306-689.351-709.91-715.351-705.74-741.613-704.554-767.807-702.899-806.411-700.46-845.011-697.957-883.666-696.31-924.195-694.583-964.699-691.866-1005.149-688.681-1022.727-687.297-1040.411-686.253-1057.823-682.925-1061.016-682.315-1066.035-682.305-1066.009-678.567-1065.979-674.16-1060.775-674.517-1057.446-673.925-1027.027-668.513-996.172-667.863-965.531-664.857-957.594-664.078-949.596-663.7-941.964-661.077-942.329-659.148-943.409-659.231-944.296-659.154-961.423-657.663-978.546-656.128-995.68-654.742-1027.807-652.143-1059.948-649.718-1092.064-646.986-1096.373-646.62-1103.514-646.75-1103.46-641.871-1103.404-636.738-1095.99-636.825-1091.69-636.036-1066.979-631.5-1041.845-631.137-1016.906-629.245-972.636-625.888-928.222-624.586-883.953-620.976-873.298-620.107-862.461-619.933-852.124-616.31-867.649-612.38-883.479-612.511-899.127-611.635-950.843-608.739-1002.556-605.827-1054.218-602.026-1061.055-601.523-1068.084-601.487-1074.648-598.841-1076.149-598.236-1078.089-597.45-1077.977-595.384-1077.868-593.352-1075.935-592.767-1074.343-592.307-1071.124-591.378-1067.899-590.359-1064.611-589.82-1035.116-584.982-1005.303-583.006-975.697-579.155-966.43-577.95-957.164-576.737-947.897-575.527-949.579-573.834-951.157-573.518-952.746-573.424-989.675-571.255-1026.675-570.994-1063.585-567.937-1093.109-565.493-1122.577-562.949-1151.499-556.16-1161.254-553.87-1172.061-552.566-1178.006-541.978V-540.479C-1177.483-539.106-1176.645-537.773-1176.483-536.355-1172.076-497.635-1163.417-459.88-1153.006-422.517-1122.814-314.159-1075.154-215.072-1007.728-126.831-922.265-14.987-816.295 69.665-692.246 129.71-592.671 177.907-487.963 205.399-378.564 213.817-366.943 214.711-355.177 213.819-343.687 216.528" fill="#231f20"/>
</g>
</g>
</svg>
