<svg xmlns="http://www.w3.org/2000/svg" width="2048" height="1920" viewBox="0 0 2048 1920"><defs><clipPath id="clip_1"><path d="M0 0h2048v1920H0Z"/></clipPath></defs><g fill="#231f20" clip-path="url(#clip_1)"><path d="M1041.687 1047.997v-.002c-.41-.072-.205-.034 0 .002"/><path d="M943.112 1008.984c-.576.123.576-.118 0 0"/><path d="M966.35 1068.196v-.002c-.34-.074-.714-.154 0 .002"/><path d="M868.455 1111.783c-.633.272-1.272.534-1.905.806h-.005s0 .005-.005.005l-.924-.74c-.1-.082-.203-.159-.302-.24a301.4 301.4 0 0 1-36.894-35.132c-7.143-8.058-2.435-2.726-9.562-10.793-.83-.94-13.22-15.51-12.935-17.692 12.24 8.274 25.206 15.751 37.05 24.457 3.053 6.338 6.406 12.404 10.076 18.034 5.128 7.873 9.458 12.697 13.106 15.217.712 2.085 1.459 4.133 2.3 6.078m.56 59.937q.02.013.037.027l.052.036c-.222.49-.145.188-.088-.063m-.094-.006-.057-.11.08.062zm8.547 6.94c.986 3.147 2.649 4.724 3.667 7.967-.608.472-1.22.944-1.827 1.421-7.74-4.002-15.484-8-23.223-12.003.197-.447.399-.9.597-1.345 6.883 1.1 13.574 2.76 20.786 3.96m718.906 243.88-82.573 168.737H1342.33c10.317-5.114 20.435-10.915 31.297-16.897a16.5 16.5 0 0 0 6.878-7.227c1.339-2.735 3.234-5.2 4.62-7.863 4.417-8.53 9.857-16.578 15.307-24.543 6.919-10.126 6.924-21.073-.82-32.498-1.713-.323-3.764-.606-5.762-1.12-1.993-.507-3.934-1.242-7.184-2.289 2.284-37.111-21.821-60.9-46.082-84.648 1.588-9.684 3.135-19.071 4.744-28.87-4.033-2.401-7.34-5.02-11.103-6.517-22.216-8.833-44.468-17.573-66.845-25.985-9.317-3.506-19.434-5.206-24.795-15.187-1.158-2.161-4.277-3.29-6.37-4.804-7.261.856-14.112 1.668-20.964 2.484l.716-2.136-41.78-20.658q-.395.878-.8 1.756c-6.54.61-13.084 1.222-17.948 1.678-13.58-9.961-26.067-18.666-37.96-28.115-3.721-2.952-5.161-7.789-6.158-12.224-1.625-7.236-1.064-14.95-1.547-25.07 15.894-9.634 30.597-19.64 47.939-30.15l-11.295-4.594c20.876-5.466 38.312-24.3 51.445-38.164 13.52-14.273 20.968-22.573 31.08-38.546 1.14-1.799 2.316-3.602 4.947-7.764-11.741 3.67-20.804 6.739-30.012 9.31-8.96 2.505-12.08 3.048-23.187 5.768 31.48-27.044 45.66-46.801 61.098-73.512 14.545-25.168 19.915-44.681 30.367-73.391-26.768 11.912-46.53 18.399-69.686 28.71 6.116-18.811 6.87-23.067 6.383-39.83-.898-30.533-6.65-65.552-10.468-97.574-.991-8.312-2.308-17.78-2.308-28.25a560954 560954 0 0 0-44.925 55.415c-7.122-20.96-13.423-39.524-19.73-58.088-.867.025-.81.025-1.677.051-3.415 12.554-6.831 25.108-10.412 38.278-3.727-10.44-6.057-19.884-10.34-28.362-8.513-16.875-18.013-33.257-27.255-49.765l-29.288-52.443-3.42-7.738c-3.046 2.864-3.975 5.009-4.551 7.241-5.648 21.932-9.764 44.39-17.394 65.624-4.412 12.266-14.222 22.623-21.723 33.802-1.671-.494-1.552-.457-3.228-.956v-51.047c-24.204 22.337-43.508 45.372-52.602 75.745l-2.876-.231c-1.926-14.853-3.846-29.716-5.772-44.58-19.19 30.199-31.922 62.112-39.241 96.176-1.256.057-1.095.05-2.346.102-5.736-18.681-11.466-37.368-17.866-58.236-13.133 30.932-18.931 61.746-26.571 94.954 0 0-1.428 8.212-1.698 17.926-.02-.035-.047-.065-.072-.101-1.236-1.258-15.635-16.04-34.321-43.56.026.15.047.303.073.452-.057-.082-.114-.17-.172-.252a472 472 0 0 1-5.84-8.811s4.875 63.672 27.096 114.298c-6.706-4.275-13.008-8.335-19.138-12.646-10.142-7.14-19.802-14.946-29.68-22.46.005.128.016.261.02.39l-.092-.256c.18 3.454.44 6.841.768 10.162.187.995.384 1.976.576 2.972 3.665 31.569 13.444 54.957 29.504 84.976 12.234 19.16 25.548 32.616 34.886 40.741 6.872 5.98 11.59 9.074 12.136 9.423-10.797-1.925-22.17-2.11-32.966-4.034-.628 1.089-.623 1.089-1.251 2.177 21.463 24.547 38.452 53.997 73.395 64.17-2.751.662-5.497 1.319-9.628 2.31 10.51 7.236 19.807 13.637 29.43 20.252-1.64 9.197-2.745 17.727-4.868 26-.763 2.957-3.478 6.174-6.208 7.75-13.47 7.806-27.246 15.1-41.945 23.138-12.001-6.842-21.651-.55-29.93 8.442-4.453-.682-8.18-1.253-12.691-1.94-8.41 7.37-16.952 14.854-25.424 22.274a6821 6821 0 0 0-12.748-4.619c-7.73 13.263-21.23 17.523-34.351 23.215-25.071 10.864-49.431 23.32-73.697 34.936v38.416c-.826.903-1.88 2.284-3.156 3.413-21.318 18.84-35.847 41.706-43.088 69.205-1.136 4.31-4.443 8.642-7.915 11.644-6.203 5.364-8.207 11.534-7.028 19.273.472 3.126.783 6.272 1.142 9.916.623 6.375 3.68 12.318 8.668 16.414.099.077 4.796 4.455 7.817 7.257a19 19 0 0 0 5.596 3.608c10.495 4.398 21.292 8.935 32.477 13.626a797 797 0 0 0 11.45 2.682H539.476l-55.918-92.695 40.143 28.93-21.022-33.505c-.401-.639-29.98-47.815-58.174-95.17 16.174 15.96 34.272 34.114 48.41 49.095l16.296 17.267-1.975-16.106 99.255 117.107-110.251-237.522 33.97 28.074-38.836-64.29L602.5 1435.215l-64.204-136.585 48.779 70.616.054-.03 44.309 59.13-30.93-66.745.024-.013-63.478-131.507 105.085 103.776-162.771-286.798 185.082 181.395-86.156-177.097 87.944 91.95-34.53-88.03 65.602 45.888L578.486 868.59l24.243 23.97-35.57-93.38 131.737 154.65-23.076-101.762L727 917.08l-33.702-154.077 53.232 77.755-55.486-202.926 37.193 63.236v-28.03l84.666 114.596v-60.178l8.629 15.096 1.99-46.714 13.772 51.635 4.337-115.591 18.095 59.795-6.877-200.038 30.702 126.526V547.74l45.666 178.744 1.67-44.288 17.715 70.322 10.692-128.56 15.55 84.741 22.045-179.5 13.715 82.012 11.434-156.953 21.714 147.199 6.267-64.176 24.734 126.665 9.17-82.011 21.817 85.904 14.237-161.33 8.508 120.038h.005l7.889 73.196 7.563-73.18h.076l2.048-28.02 45.054 268.588 5.233-69.414 4.55 41.923L1316.08 597.2l-28.34 172.587.073.016-9.117 72.756 24.178-69.503.057.013 6.023-21.6-6.153 188.39 117.023-204.942-51.53 236.39 29.622-60.75-43.77 194.29 14.637-13.212-30.071 181.529 54.477-140.05v38.053l37.193-82.01c-13.723 51.574-25.92 89.45-26.1 90.005l.058.02-18.008 71.236 32.426-65.874.082.03c26.354-59.97 60.654-137.108 81.739-184.439-10.666 101.339-30.871 236.705-31.108 238.286l.115.028-10.865 71.657 25.656-68.052.146.036 6.238-17.637c-14.586 73.697-34.43 160.55-34.728 161.85l-16.065 70.176 35.747-75.906c-16.773 67.083-40.68 148.692-41.014 149.833l-13.362 45.529 61.612-88.207-9.785 58.048 64.05-94.422-2.58 21.05 18.576-29.548c12.753-20.287 36.933-53.458 57.988-81.64-13.156 28.237-23.946 49.177-24.122 49.517l-19.652 38.042Zm-68.731 168.737h-2.18l3.483-2.484Zm-609.67-279.4c-18.2 13.15-35.463 25.63-54.315 39.253-2.58-2.71-5.767-6.056-9.644-10.132 19.714-17.691 40.917-30.902 65.25-42.768-.57 6.072-.996 10.563-1.291 13.647m25.818-26.417c19.148 27.782 38.063 55.713 58.29 85.44-10.064-4.328-18.244-7.842-25.776-11.082l-27.33-60.49-2.807.894c-3.203 19.226 10.885 41.125-7.547 57.482-16.833 3.32-32.701 6.524-48.621 9.438-1.152.21-2.694-1.703-5.372-3.52 11.944-7.638 22.948-14.668 34.98-22.362 6.763-18.774-.79-42.814 15.992-61.804 3.504 2.505 6.623 3.73 8.19 6.005M919.1 1147.6c-6.888 13.355-9.032 26.309-2.206 40.33-14.653-17.235-15.873-37.2-3.737-54.747 7.417-10.721 15.426-21.048 23.166-31.554l2.553 1.109c-6.52 14.991-12.296 30.358-19.776 44.861m4.49 46.013a33 33 0 0 1-.94-1.854c.3.607.618 1.227.94 1.853m-.945-1.863c-5.952-21.428-6.417-27.26 1.91-44.005-2.283 14.638-6.33 28.097-1.91 44.005m3.597 43.272c-17.466-5.132-32.187-13.072-36.75-32.247-.057.005-.16.067-.176.01-2.15-6.846-3.857-17.152-4.63-22.264a54 54 0 0 1-.368-2.51c.077.528.197 1.396.368 2.51 6.182 36.866 41.556 54.5 41.556 54.5m127.36-167.327c6.079-4.172 12.059-4.814 20.115.015v25.246c-1.158.34-1.07.313-2.227.648l-3.563-5.505c-2.643-4.083-6.994-6.88-11.876-7.323-6.49-.59-11.621 2.952-16.886 8.463-10.724 9.191-22.26 20.409-32.657 29.317.172.924-.373-.107-.062-.615 12.297-19.883 27.708-36.897 47.157-50.246m2.166-84.411c-3.281-17.335-13.17-42.714-13.17-42.714.089 1.827.135 2.745.817 6.069 6.659 33.807 17.965 67.625-1.73 101.36.41.073.206.037 0 .001-.255 1.722-.212 2.467-1.681 3.236-1.152.607-2.517.822-4.837 1.53-12.437-62.645-6.546-124.285 3.265-187.61zm56.307-67.272c-.042 3.403-1.096 12.904-1.652 16.302-2.29-9.788-7.203-25.586-9.498-35.375-1.526 15.751 7.012 27.71.204 41.668-1.142-12.206-2.084-20.054-3.766-32.198-1.682-12.148-5.257-23.63-8.781-35.526 3.275 27.787 5.793 56.553 8.944 83.241-3.561 4.527-5.03 6.39-8.825 11.215-.903-13.17-2.502-23.928-2.221-34.634.939-35.51-8.757-68.501-22.398-100.825-6.125-14.52-10.921-29.593-14.487-45.442 0 0 15.087 23.577 22.812 39.175q.139.275.288.55c7.352 14.173 17.385 31.382 25.282 45.124 8.398 14.622 14.3 29.731 14.098 46.725m12.635 180.718-.218-.005c7.958 7.396 10.979 16.989 9.28 27.073-3.212 19.103-9.944 37.097-21.322 53.147-1.562 2.202-2.767 4.655-4.137 6.99-.664-.678-1.33-1.35-1.993-2.027q.305-5.304.602-10.61l-10.106 12.595c10.028-25.43 24.998-49.512 20.56-78.597l-5.793-24.42.639-1.708c1.11.64 2.662 1.015 3.265 1.97 3.208 5.118 6.176 10.382 9.223 15.592m-19.008 143.353c7.599-13.041 29.753-17.62 22.35-39.103 2.384 2.231 4.76 4.465 7.138 6.697l12.468-25.394c-3.197 28.478-17.098 47.849-41.956 57.8m-112.325-10.125 9.374.633c2.622-.324 5.51-.87 8.47-1.403-2.463 14.697-5.355 26.962-8.47 34.903 4.534 3.428 9.044 8.592 13.71 12.523-2.577.577-5.153 1.014-7.728 1.105-1.47.054-2.178.895-5.552 3.942 7.962-.62 13.023-.927 18.063-1.432 5.298-.533 10.577-1.255 15.864-1.893.226-.764-.225-5.092 0-5.857-5.22 0-10.441 1.492-15.661 2.887 2.746-2.7 5.058-5.765 7.525-7.505q-.318-.503-.635-1.01l-14.665 4.502c0-11.02 1.202-32.21 1.336-42.815 4.982-.8 9.932-1.284 13.94-.346 16.756 3.931 32.136-3.706 48.33-3.197 5.284.165 12.588-1.217 13.652-9.917-2.108 1.134-4.122 3.007-6.338 3.28-14.518 1.806-29.083 3.27-43.633 4.844-.27-.717-.534-1.442-.804-2.16 3.156-1.452 6.53-4.48 9.426-4.085 12.276 1.694 20.789-2.807 27.277-13.231-.291 2.74-.581 5.48-1.158 10.967 9.302-7.6 16.818-13.745 25.736-21.033l6.26 1.623c.82.154 1.645.313 2.465.466-1.017 4.302-2.035 8.602-3.166 13.401h6.85c-6.762 16.553-13.993 32.109-19.448 48.25-4.728 13.995-12.681 24.718-24.697 33.222-11.025 7.8-21.385 16.516-32.13 24.713-12.141 9.263-23.192 7.338-35.712-1.53-24.551-17.4-37.398-41.69-46.13-69.03-.428-1.35-7.768-16.89-10.483-24.075Zm.747-44.498c5.674 6.101 10.262 11.043 14.85 15.981.69-.41 1.387-.827 2.077-1.236l-10.397-23.866c14.903-18.02 30.199-36.523 44.557-53.89 21.302-.996 22.283-.446 29.81 16.1 6.7 14.73 10.843 29.778 4.692 48.26-14.845 9.3-31.372 19.651-48.647 30.476a6184 6184 0 0 0-3.365-7.145c14.68-12.45 32.414-30.587 46.279-41.521-21.507 6.464-41.924 23.534-49.075 39.038l-1.34-.042a18968 18968 0 0 1-2.184 16.095c-.53-.014-1.065-.03-1.594-.046-.358-4.88-.711-9.766-1.07-14.653q-.7.183-1.406.364c-.846 4.6-1.687 9.198-2.575 13.792-.033.168-.481.262-2.515 1.155-.391.058-.664.15-.672.298.3-6.441.556-11.861.919-19.601l-6.39 12.604c-6.711-4.377-13.127-8.56-20.27-13.22zm31.895-75.452q-.756-.616-1.505-1.232c9.826-12.423 19.474-18.197 19.474-18.197a79 79 0 0 0 7.495-2.914c5.933-2.629 12.935-.118 15.748 5.678 2.587 5.334 3.365 10.374-.694 16.438-1.51-2.31-2.912-4.445-5.118-7.805-18.11 9.063-30.012 24.332-42.122 38.985-12.006 14.53-22.776 30.05-33.87 44.846-1.11-18.933 15.146-40.2 59.695-88.004-3.851 3.146-15.252 9.059-19.103 12.205m-71.006 68.514c2.995-19.012 8.487-27.987 21.925-35.79l-2.891 52.217a68491 68491 0 0 0-19.034-16.428m6.857 29.127c5.253 7.196 11.46 10.217 20.32 9.745 4.09-.22 8.285 1.52 12.438 2.372l-.483 2.546c-16.376-2.304-32.748-4.61-49.892-7.026-1.5-3.48-3.073-7.13-5.596-12.976 3.509 2.674 5.004 3.82 6.997 5.339 1.106-2.505 2.154-4.871 3.862-8.746 4.474 3.044 9.639 5.02 12.354 8.746m28.154 119.985c17.155 3.628 12.322 22.269 26.607 29.403-1.78-8.042-3.145-14.222-4.744-21.453 20.84 1.319 31.922-17.394 50.032-24.497-13.272 18.64-26.55 37.281-40.04 56.225-19.527-7.062-22.574-24.61-31.855-39.678m-116.68 44.087c-1.656-2.448-3.011-4.455-5.461-8.068 5.75-.185 6.862-1.037 11.513-.73.16.78 4.718 3.337 4.884 4.117-3.4 1.452-6.8 2.91-10.936 4.68m5.439 14.559-.171-2.668c34.139-13.736 68.574-24.98 106.185-12.056 11.393 3.916 22.906 7.493 36.35 11.866-1.511 12.723-3.161 26.62-4.921 41.469-13.142 0-25.98.97-38.603-.216-22.657-2.125-46.092-.99-66.974-12.436-4.532-2.484-8.581-5.835-14.311-9.797 24.277-5.825 45.979-11.034 67.364-16.162Zm171.302 7.047c12.712 1.258 25.5 3.423 38.078 5.517 8.092 1.349 14.734 6.134 22.65 8.716-9.787 10.161-21.223 11.7-34.427 13.055-13.02 1.335-26.172 1.428-39.828 2.09-3.68-8.238-7.137-15.983-10.361-23.21 17.482-30.814 73.39-36.305 116.748-17.274a97508 97508 0 0 0-29.244 22.15c-1.967-2.53-4.786-5.558-6.987-8.703-20.902-3.275-41.992-9.743-64-3.855 2.393 1.477 4.905 1.273 7.37 1.514m73.677-57.4c-8.783-7-11.041-14.216-11.207-24.84-.083-5.727-.236-10.432-.906-18.105 22.839 13.036 38.367 27.22 53.752 45.27-3.971 23.968-19.398 33.166-44.998 29.372-10.625-1.574-21.266-3.766-31.943-4.034-10.527-.266-21.11 1.545-33.261 2.582 7.562-17.665 14.969-34.961 22.37-52.262-11.797 9.849-29.397 42.885-30.92 56.99l-20.004 3.797c26.565-41.643 57.917-77.119 75.295-121.012q1.224.11 2.455.226c.97 27.485 1.942 54.964 2.949 83.582l34.252 24.41c.603-.611 1.21-1.222 1.812-1.833-6.442-8.176-11.7-17.81-19.646-24.143m50.094-203.427c-3.965 3.014-7.931 6.022-12.338 9.368l-2.74-11.539 11.18-9.464c.249.376.493.75.742 1.13 4.553-2.602 9.39-4.82 13.615-7.862 23.03-16.6 37.897-39.776 52.104-63.514 5.648-9.438 11.809-18.57 18.136-28.47-2.345 30.62-52.21 101.518-90.83 128.36q-1.253-1.007-2.501-2.007c5.523-5.543 8.059-9.052 13.582-14.595q-.474-.708-.95-1.407m15.946-217.935c-.421-7.397.149-16.73 1-19.38 1.449 12.164 6.308 43.44 7.149 55.64 1.158 16.803 1.698 33.653 2.03 50.493.083 4.34-1.158 8.857-2.55 13.046-9.394 28.223-22.718 54.619-38.586 79.793-1.235 1.966-2.798 3.73-4.204 5.59 2.74-28.203 19.04-54.352 27.832-76.72-9.41 8.054-10.034 12.893-13.771 19.652 2.383-10.65 4.034-22.68 9.386-31.574 11.715-19.467 10.764-40.46 11.626-61.687.472-11.599.088-23.235.088-34.853m-44.261 54.162q-2.349 7.883-4.697 15.777a70 70 0 0 0-2.715-.385V890.8c2.004 5.327 4.324 12.127 6.509 18.963 8.15 25.534 15.905 49.34 23.738 74.967 1.672 5.48 1.838 13.236 1.286 18.9-3.638 37.346-15.021 69.51-26.311 108.402-.373 1.284-2.346 1.975-3.644 2.915l.026.24c20.275 13.524 19.107 31.867 11.689 51.606-.955 2.542-1.92 5.086-3.945 7.457.317-2.765.639-5.532.836-7.245-6.135 8.524-12.597 17.495-19.055 26.466q-1.322-.835-2.636-1.668c1.547-2.303 2.662-5.106 4.713-6.83 14.507-12.174 15.489-29.213 16.537-45.92.239-3.762-4.085-7.631-5.55-11.717-1.385-3.86-1.77-8.068-2.636-12.128v-.02c-.01-.042-.072-.082-.135-.124l.156-.118c-.337-3.546-1.723-7.457-.643-10.521 0 0 19.72-49.25 16.939-79.51 0 0-16.368 56.252-29.714 63.07-.93-.19-1.863-.374-2.792-.563.55-3.47.566-7.13 1.739-10.383 6.524-18.139 13.625-36.076 19.963-54.275 6.17-17.732 3.192-35.83.342-54.044m-168.867 117.05c9.55-15.438 23.592-21.238 39.589-15.649-2.875 3.613-5.564 6.995-8.113 10.203l-3.471 4.988c-8.321 3.529-30.076 14.194-43.382 33.973 0 0 20.593-19.124 35.57-23.645-10.746 15.325-15.071 33.35-31.285 44.271-6.743 4.537-9.826 14.484-14.336 22.1-1.501 2.53-2.258 5.497-5.165 7.828 1.313-7.863 3.534-22.317 4.847-30.18-1.126 1.564-1.646 2.774-2.573 6.252-1.885 7.79-3.77 15.582-5.534 22.9-2.377-8.231.639-23.023 6.857-45.636 4.76-17.286 32.326-35.464 50.74-46.175-15.3 2.165-18.685 6.973-23.744 8.77m6.88-207.9c3.188-13.025 9.132-36.11 12.319-49.135q-.004.088-.011.192c-.51 8.125-.481 16.274-.084 24.405.306 6.26.585 12.5.758 18.873.063 2.252-.773 4.747-1.858 6.784-8.97 16.881-18.094 33.68-28.034 52.1 2.097-29.09 9.613-55.354 19.589-81.241q-2.188 13.866-4.386 27.73zm-22.133 194.994c.31.067.594.129 0 .002-.042.53-.877 1.422-1.972 2.466-19.384-13.08-36.131-47.19-36.131-47.19 3.79 22.924 30.686 53.546 30.686 53.546l-19.346 8.761c-15.354-32.437-44.551-60.768-48.983-97.014 2.548 5.379 9.404 12.872 11.952 18.255-.18.053-.36.106 0 .003.359-.105.18-.054 0-.002-11.133-29.141-15.545-59.75-15.628-91.103 3.577 10.249 6.976 20.554 10.766 30.722 5.62 15.11 11.518 30.116 17.3 45.165 1.209 1.678 2.419 3.351 3.628 5.03 21.389 24.516 47.486 63.26 47.728 71.359m-20.345-64.863c2.33-17.464-4.526-35.03-5.02-52.597-.83-29.83-1.386-55.23-1.386-84.643 3.857 19.662 9.053 35.28 12.868 55.404 3.826 20.19 15.349 38.37 15.8 59.428-5.03-12.396-10.06-24.784-15.09-37.18 3.557 12.493 7.118 24.985 10.668 37.478 1.028 3.612 2.85 7.22 2.907 10.848.29 19.428.135 38.859.135 60.26-20.192-23.63-38.245-45.914-34.248-78.925 4.53 13.102 8.71 25.194 12.888 37.286-.42-2.33.166-5.02.478-7.36m-417.144 583.27-1.303-2.482 3.482 2.483ZM1672 1256.307l-33.938 43.862c-2.39 3.088-48.68 62.974-79.787 107.353l2.222-18.129-60.126 88.636 9.407-55.803-47.272 67.677c14.61-51.812 37.168-134.775 43.246-173.839l8.307-53.388-27.615 58.639c13.47-61.905 31.439-148.401 34.607-183.208l5.63-61.853-30.747 86.932c8.66-62.812 19.978-150.21 24.56-208.791l3.512-44.889-18.396 41.185c-.393.88-26.318 58.925-55.61 124.93 5.13-19.984 10.313-41.465 15.03-63.283l15.384-71.133-71.654 157.996v-49.012l-30.19 77.61 12.828-77.43-11.33 10.228 62.345-276.747-31.336 64.265 45.554-208.976L1320.41 877.7l8.334-255.116-2.572 9.22 23.104-140.7-138.823 292.223-7.747-71.356.012-.001-9.043-73.447-6.483 73.604h-.002l-1.95 25.85-45.254-269.794-3.613 49.405-7.752-109.373.266.007-6.825-76.58-9.308 76.249.295.007-14.768 167.35-20.328-80.04-7.387 66.072-25.688-131.55-4.27 43.725L1016.79 312l-12.271 168.443-9.992-59.745-22.735 185.126-18.315-99.803L940.84 658l-21.418-85.017-1.718 45.567-49.723-194.627V488l-35.928-148.057 8.013 233.047-10.504-34.71-3.941 105.044-13.321-49.938-4.031 94.67-10.937-19.132v71.532l-84.666-114.597v18.107l-67.414-114.615 61.916 226.443-46.11-67.352 36.288 165.903-51.922-65.957 24.338 107.34-149.168-175.112 42.136 110.62-41.984-41.511 134.42 263.1-56.671-39.64 24.527 62.53L520.938 968.98l90.326 185.67L411.4 958.767l162.01 285.458-89.401-88.288 58.98 122.193-45.022-65.18.047-.025-44.157-60.688 30.523 68.38.056-.031 44.757 95.214-105.857-135.99.014-.01-47.35-57.754 34.16 65.975-.01.006.095.157.015.026 59.522 98.532-16.452-13.596 90.684 195.365-58.552-69.083 2.589 21.123c-32.61-33.324-72.753-71.75-73.226-72.202l-37.57-35.937 25.348 45.202c19.45 34.688 47.364 80.633 66.253 111.314l-37.711-27.178 66.497 110.233-18.97-13.53 35.797 68.217h33.23l1.868 1.332-.803-1.332h988.344l35.796-68.216-24.51 17.48 97.438-199.112-26.863 24.348c9.84-20.623 22.105-47.418 32.519-73.495Z"/></g></svg>