<svg xmlns="http://www.w3.org/2000/svg" width="1984.25" height="1984.25" viewBox="0 0 1984.25 1984.25"><defs><clipPath id="clip_1"><path d="M0-.002h1984.252V1984.25H0Z"/></clipPath></defs><g clip-path="url(#clip_1)"><path d="M1543.138 842.168c-8.598-9.029-17.487-18.365-26.394-27.38-3.305-3.347-4.788-5.99-4.666-8.319.11-2.102 1.577-4.28 4.484-6.663 2.33-1.909 4.12-4.59 5.418-6.714 1.97-3.223 3.828-4.938 5.679-5.242q.318-.052.659-.052c1.829 0 4.094 1.148 6.89 3.49 27.148 22.71 56.33 46.653 94.624 77.634 7.286 5.894 15.658 9.937 23.754 13.847 4.929 2.381 10.027 4.843 14.769 7.678 7.123 4.261 13.38 9.936 19.43 15.425 3.246 2.942 6.599 5.984 10.074 8.803 1.8 1.462 2.514 3.056 2.337 3.645-.098.327-.835.717-2.257.851-4.39.416-8.655 1.186-13.172 2.001-9.033 1.63-18.377 3.314-30.326 2.516l-.27-.019-.264.055c-24.033 4.935-41.457-12.139-59.916-30.219-2.434-2.383-4.866-4.765-7.312-7.092-14.96-14.226-29.49-29.487-43.541-44.245M1019.26 956.386c-.358-.032-.738-.062-1.062-.204-2.056-.903-2.467-2.677-2.157-4.708.448-2.928 13.083-14.629 15.209-14.04 2.567.711 3.124 2.968 3.453 5.311-.097 3.273-12.158 13.932-15.443 13.641m146.708 96.053c4.383 10.942 2.739 21.684.996 33.055-.645 4.216-1.312 8.576-1.636 12.91-.286 3.844-1.115 4.675-1.458 4.853-.35.184-1.52.394-4.851-1.58-11.348-6.73-16.725-16.033-16.92-29.277-.224-15.228-1.064-30.68-1.876-45.626q-.274-5.027-.54-10.052c-.33-6.295 1.096-11.204 4.624-15.916 8-10.694 15.838-21.785 23.417-32.513l5.298-7.49c.19-.27.375-.547.555-.82.788-1.19 1.207-1.739 1.895-1.94 1.504.383 1.78 1.321 2.003 4.295q.034.48.075.952c.053.58.074 1.188.096 1.801.113 3.194.304 8.54 6.577 8.912 2.647.157 4.36.713 4.955 1.61.91 1.373-.201 4.51-1.32 7.666-3.556 10.04-7.113 20.267-10.55 30.158a5846 5846 0 0 1-10.018 28.651c-.136.383-.28.768-.423 1.153-1.033 2.783-2.207 5.94-.9 9.198m425.45-301.259-.685-.193c-1.191-.33-2.315-.643-3.355-1.084-2.047-.866-4.28-1.072-6.44-1.27-4.524-.419-7.155-.846-8.313-4.703.335-2.928 13.846-14.889 18.157-15.088 3.316-.154 6.633-.328 9.953-.503 11.014-.577 22.413-1.169 33.557-.983 25.486.441 48.204-1.597 69.465-6.224 6.484-1.413 12.523.321 18.915 2.155 1.073.308 2.145.615 3.215.906 34.483 9.37 69.24 8.613 101.665 6.404.818-.056 1.668-.179 2.49-.299 3.94-.57 5.642-.573 6.587 1.767.527 1.301.02 2.018-2.126 3.983-1.135 1.04-2.422 2.217-3.144 3.755-9.107 19.4-26.483 25.18-42.28 28.272-12.211 2.392-24.395 5.26-34.185 7.565-3.654.86-7 1.647-9.924 2.311-58.647-1.184-110.008-14.437-153.551-26.77m57.26 56.416c-21.755-9.55-43.637-19.875-64.797-29.859a7156 7156 0 0 0-23.134-10.883c-.81-.379-1.713-.677-2.584-.965-1.61-.533-3.434-1.136-3.867-2.06-.296-.63-.018-1.628.267-2.355.62-1.583 2.895-6.234 8.108-6.234.696 0 1.444.083 2.245.267 3.289.753 6.584 1.484 9.88 2.216 9.675 2.146 19.68 4.367 29.33 7.135 41.099 11.787 84.52 19.447 132.746 23.418 12.51 1.031 24.736 5.445 36.557 9.714 7.962 2.875 16.196 5.848 24.566 7.83.924.218 1.869.633 2.867 1.072.72.316 1.44.631 2.176.892 1.537.546 3.242.773 4.889.993 4.524.604 6.397 1.136 6.69 4.014.198 1.925-.936 2.71-4.68 4.237-1.87.764-3.806 1.555-5.298 2.914-12.737 11.605-27.954 11.443-45.581 11.26-4.593-.049-9.344-.099-14.258.056l-.2.016c-32.203 4.296-66.055-10.565-95.922-23.678m-111.198-28.45c-.185-.872.429-2.039.974-2.866 2.667-4.038 5.183-4.668 9.954-2.5 33.206 15.066 67.543 30.645 101.866 45.372 15.453 6.63 30.478 11.933 44.655 15.765 14.52 3.923 27.789 11.345 40.62 18.522 8.376 4.685 17.036 9.53 26.024 13.403 1.844.795 2.94 2.363 2.894 3.358-.025.605-.571 1.087-1.62 1.431-5.058 1.667-9.957 4.08-14.694 6.411-11.254 5.54-21.881 10.773-35.688 7.841l-.33-.07-.332.042c-35.99 4.528-65.245-15.442-89.108-35.575-14.116-11.91-28.558-23.896-42.526-35.487-12.364-10.26-25.15-20.87-37.658-31.387-.63-.53-1.357-.999-2.06-1.452-1.355-.875-2.756-1.779-2.971-2.808m51.847 168.833c-1.195-.832-2.43-1.693-3.727-2.269-27.061-12.039-44.313-35.56-60.995-58.307-2.84-3.87-5.775-7.872-8.715-11.76-4.32-5.713-8.588-11.64-12.716-17.373-6.178-8.582-12.566-17.454-19.292-25.836-1.94-2.416-2.772-4.378-2.41-5.674.333-1.19 1.82-2.273 4.418-3.218 5.047-1.834 8.65-3.484 11.282-4.689 3.07-1.405 4.708-2.128 5.927-2.128.299 0 .572.044.835.13 1.665.553 3.933 2.923 8.05 7.227a637 637 0 0 0 4.06 4.22c3.566 3.66 7.124 7.326 10.683 10.993 33.418 34.427 67.973 70.026 106.216 100.361l.699.547c1.878 1.456 3.07 2.452 3.48 4.134 0 1.247-.41 1.932-2.308 1.994l-1.163.037c-13.25.427-26.95.87-40.381 3.643-.796.166-2.612-1.107-3.943-2.032m-132.616-99.337c-.557-1.006-1.345-2.015-2.107-2.99-1.204-1.543-2.701-3.463-2.448-4.526.135-.576.912-1.224 2.186-1.826 1.635-.772 3.266-1.924 4.844-3.038 5.868-4.143 9.42-6.175 14.264.094a10291 10291 0 0 1 36.895 48.014c3.799 4.977 7.61 10.087 11.3 15.028 6.863 9.197 13.962 18.707 21.282 27.793 7.3 9.063 17.137 14.545 26.649 19.847 3.897 2.172 7.928 4.42 11.676 6.862 6.223 4.056 9.622 9.9 13.22 16.084.51.876 1.019 1.752 1.537 2.623 1.04 1.75 1.08 2.826.8 3.216-.392.542-1.881.89-4.226.375l-.237-.037c-2.187-.209-4.437-.516-6.612-.813-4.072-.556-8.257-1.126-12.443-1.126q-1.205-.002-2.412.067c-28.858 1.665-50.267-12.359-69.367-45.484-11.764-20.403-23.357-41.383-34.57-61.673-3.407-6.165-6.814-12.33-10.231-18.49m33.432 152.71c-20.924-18.405-31.336-44.187-41.406-69.12l-1.79-4.424c-9.53-23.492-18.153-44.672-27.201-65.995-1.93-4.548-1.385-5.984 3.067-8.09l.594-.28c7.65-3.622 12.384-5.86 15.593-5.86q.853-.001 1.573.215c3.166.96 5.939 5.393 11.414 14.527l3.582 5.967c9.87 16.425 20.074 33.41 28.847 50.753 10.493 20.743 24.378 38.433 42.453 54.08 7.873 6.816 11.834 16.054 16.029 25.834 2.488 5.801 5.059 11.8 8.52 17.22.772 1.208.708 1.685.715 1.685-.146.201-.74.49-2.74.721l-.397.05a6879 6879 0 0 1-14.467-3.19c-12.642-2.795-24.583-5.436-36.543-7.867-2.393-.489-3.837-2.056-5.51-3.87-.725-.788-1.474-1.602-2.333-2.357m-92.432-96.092c-1.88-7.875-3.76-15.75-5.62-23.629-.655-2.769 1.566-7.736 5.4-12.079 3.467-3.93 7.444-6.463 10.077-6.463q.206 0 .402.021c1.338.144 1.677.72 2.443 2.92.18.514.362 1.034.575 1.54 3.869 9.187 7.908 18.48 11.814 27.467 8.549 19.67 17.39 40.011 24.957 60.434 6.906 18.643 17.457 34.594 32.254 48.765 7.884 7.552 11.963 17.356 13.229 31.793v.012c.144 1.546-.038 2.66-.5 3.048-.26.22-1.163.648-4.012-.103a5535 5535 0 0 1-12.723-3.374c-9.65-2.566-19.628-5.22-29.474-7.725-4.004-1.017-6.357-3.875-9.083-7.182a101 101 0 0 0-1.723-2.059c-16.031-18.503-21.201-41.169-26.686-65.21-3.67-16.089-7.564-32.402-11.33-48.176m-38.173-3.083c.056-3.61 5.23-10.436 11.9-15.658 4.612-3.61 7.4-4.423 7.99-4.26 2.342.96 2.89 3.184 3.517 6.736.164.932.334 1.896.572 2.81a3811 3811 0 0 0 4.346 16.493c5.257 19.836 10.694 40.347 14.824 60.752 4.427 21.877 12.614 39.728 25.029 54.573 5.949 7.116 8.02 15.7 10.21 24.787l.462 1.908c.905 3.717.12 4.418.113 4.425-.01.008-.882.68-4.554-.977-.193-.088-.376-.203-.563-.313-.483-.289-1.087-.65-1.835-.82-38.466-8.736-49.992-40.612-56.194-70.642-3.97-19.233-7.705-38.355-11.316-56.848-1.534-7.856-3.034-15.538-4.501-22.966m-27.315 16.062c-.203-2.435 2.422-6.842 6.24-10.48 3.04-2.896 6.278-4.747 8.242-4.747q.188 0 .359.023c2.16.285 2.509 1.403 2.956 4.525.088.612.176 1.221.294 1.807 1.515 7.537 3.076 15.065 4.637 22.593 3.848 18.558 7.829 37.748 11.005 56.733 2.987 17.842 11.606 32.141 18.78 42.605 7.582 11.057 8.982 23.201 10.463 36.056.269 2.34.54 4.683.848 7.026.13 2.17-.345 2.606-.4 2.65-.061.05-.676.441-3.09-.349-28.344-9.267-50.652-38.505-53.043-69.519-1.743-22.638-3.67-45.639-5.533-67.882-.587-7.013-1.176-14.027-1.758-21.04m-30.05 66.71c-.05-1.93-.098-3.86-.098-5.786v-1.992h-1.697l.002-9.266c.002-8.578.004-17.157-.004-25.736-.01-9.023 10.378-21.936 18.525-23.027 1.125-.15 1.749-.014 1.955.167.435.38.44 1.906.444 3.021.003.668.006 1.358.07 2.024.784 7.882 1.612 15.761 2.439 23.641 2.235 21.26 4.546 43.243 5.864 64.904.668 10.976 5.462 19.52 10.098 27.78 1.392 2.481 2.832 5.045 4.122 7.618a411 411 0 0 0 2.846 5.53c4.897 9.402 9.524 18.283 10.424 28.848.044.527.12 1.062.2 1.6.363 2.443.307 3.147-.786 3.823-.782.485-1.407.245-3.145-.827-.341-.21-.68-.418-1.016-.605-3.107-1.737-6.2-3.506-9.293-5.274-6.27-3.585-12.752-7.29-19.28-10.67-3.593-1.858-5.018-4.98-6.67-8.597-8.935-19.562-17.47-40.637-15.196-64.272.414-4.307.304-8.678.196-12.904m-77.725 19.102c.364-3.759.73-7.528 1.054-11.31.163-1.906.152-3.923.14-5.874-.033-5.46-.066-10.618 3.35-13.737 3.707-3.383 8.52-4.966 13.617-6.642 4.215-1.387 8.574-2.82 12.51-5.372a2.8 2.8 0 0 1 .575-.302c.195.322.582 1.32.709 4.241.482 11.077 1.02 22.033 1.59 33.633l.605 12.322c-2.805 21.056.353 43.316 9.932 70.032 3.22 8.988 3.015 18.088 2.796 27.724-.062 2.73-.125 5.553-.102 8.34.02 2.446-.464 3.593-.884 3.83-.438.245-1.728.057-3.926-1.298-17.54-10.818-30.72-22.35-38.052-43.469-8.524-24.553-6.286-47.658-3.914-72.118m-37.557 13.526c4.283-8.91 7.416-18.524 10.445-27.82 1.097-3.367 2.23-6.848 3.4-10.23 1.215-3.52 3.07-4.404 5.904-4.404 1.014 0 2.154.112 3.436.26.96.108 1.955.221 2.924.263.957.04 1.627.263 1.99.662.69.758.604 2.417.54 3.628a28 28 0 0 0-.033.82c-.391 4.795-.786 9.431-1.17 13.958-.855 10.071-1.663 19.582-2.3 29.128-.965 14.5-1.478 27.643 2.045 41.691 2.443 9.75 1.268 19.861.024 30.566-.611 5.257-1.242 10.693-1.393 16.038-.048 1.72-.483 2.307-.632 2.378-.2.096-1.188.053-2.997-1.34-12.25-9.419-19.463-18.925-24.112-31.789-8.417-23.286-7.803-43.56 1.929-63.809m19.479-70.81c.477 2.192.97 4.458 1.612 6.671 1.913 6.602 1.19 9.11.249 10.05-1.235 1.23-4.328 1.201-8.712-.082l-.153-.038a10.6 10.6 0 0 0-2.165-.2c-.965 0-1.943.091-2.901.181-2.212.206-4.292.403-5.432-.585-.923-.799-1.455-2.497-1.581-5.046-.594-12.083 4.072-23.527 10.188-24.989 2.243-.538 4.599-.265 6.607 5.323.995 2.77 1.623 5.657 2.288 8.714m110.465-84.3c-.046.59-.655 1.971-1.931 3.167-3.091 2.895-6.757 2.656-10.303 2.426-2.152-.14-4.192-.272-6.036.296l-1.376.062c-9.497.432-16.356.74-21.671-5.536-.736-.87-1.667-1.557-2.567-2.22-1.006-.742-2.147-1.583-2.226-2.215-.05-.396.28-1.059.902-1.818.7-.856 1.359-1.819 1.995-2.752 2.16-3.16 3.725-5.232 6.159-5.232.783 0 1.656.215 2.669.677 2.998 1.37 5.956 3.08 8.818 4.734 7.455 4.31 15.182 8.775 25.064 8.39a2.4 2.4 0 0 1 .503.021m21.559-15.218c-4.984 4.855-11.14 4.625-18.663 3.817l-.23-.023-.225.027c-8.686 1.068-16.476-1.253-23.16-6.896-.99-.836-2.27-1.46-3.508-2.063-1.461-.71-3.281-1.597-3.505-2.456-.121-.465.169-1.238.819-2.179.57-.823 1.14-1.72 1.725-2.644 3.948-6.228 6.985-10.138 13.038-7.782 4.654 1.811 8.913 4.368 13.42 7.076 6.744 4.051 13.718 8.241 22.1 9.7.312.052.512.116.634.167-.136.462-.722 1.578-2.445 3.256m25.723-26.505c3.196-.265 3.667.791 3.862 1.241.545 1.243.172 1.81-2.22 3.373q-.33.216-.636.422c-1.24.845-2.405 1.824-3.53 2.771-3.741 3.147-6.975 5.867-12.767 4.415l-.301-.075-.31.02c-10.97.688-20.591-5.36-30.763-11.779-1.242-.783-2.483-1.566-3.73-2.338-2.476-1.534-2.667-2.47-2.682-2.644-.024-.323.298-.799.886-1.305 1.596-1.374 2.879-3.175 4.12-4.917 3.285-4.608 5.39-7.11 10.42-5.043 3.826 1.572 7.582 3.695 11.215 5.747 1.506.85 3.01 1.701 4.527 2.52.993.535 1.978 1.091 2.96 1.647 5.695 3.218 11.58 6.535 18.949 5.945m23.057-19.393c3.739.206 4.863.565 5.1 2.538.282 2.338-1.08 3.205-4.49 4.763-.948.434-1.928.883-2.815 1.425-.978.6-2.283.896-3.665 1.21-.638.143-1.275.29-1.896.463-13.183.567-26.114-3.608-40.646-13.105-.615-.403-1.311-.79-2.024-1.183-1.602-.883-3.415-1.884-3.704-2.969-.146-.549.068-1.3.636-2.233 2.62-4.308 4.77-6.788 7.702-6.788.982 0 2.05.278 3.255.857 1.373.662 2.782 1.258 4.146 1.835 2.434 1.03 4.733 2.001 6.829 3.31 7.898 4.928 17.177 8.004 29.199 9.68.773.108 1.587.153 2.373.197m-18.271-38.74c3.16 1.18 6.364 2.474 9.463 3.724 14.487 5.85 29.468 11.897 46.399 9.25.9-.14 1.923.21 2.256.486-.057.116-.188.328-.487.635-6.313 6.486-13.93 12.421-21.514 16.772q-2.451-.378-4.866-.74c-16.928-2.554-32.916-4.965-46.45-14.609-2.018-1.438-2.655-2.026-2.48-3.502.225-1.863 3.776-5.889 9.126-9.146 3.49-2.125 6.253-2.986 7.759-2.986.324 0 .592.04.794.116m82.798-8.293c.88-.24 1.8-.19 2.346.131.22.13.532.378.695 1.041.063.257.09.374-1.145 1.294-.438.324-.933.693-1.374 1.134-7.461 7.446-16.377 7.037-27.661 6.523a267 267 0 0 0-6.52-.244l-.216-.005-.212.042c-11.923 2.363-25.173-3.968-36.868-9.55-3.044-1.453-3.196-2.225-3.198-2.232 0-.008-.037-.795 2.935-2.969 5.535-4.052 10.544-6.686 16.104-6.686 2.983 0 6.124.76 9.59 2.462 12.529 6.16 28.126 13.823 45.524 9.06m-23.4-22.39c13.608-1.722 27.679-3.502 41.532-4.244 1.836-.099 3.909-.728 6.102-1.393 2.07-.629 4.51-1.37 6.198-1.37.625 0 1.148.101 1.509.348.487.333.78 1.09.873 2.252.455 5.78-8.537 12.747-16.218 14.396-6.578 1.412-13.477 1.877-20.783 2.37-3.312.223-6.732.453-10.293.78-6.334-.944-13.083-3.684-20.225-6.583-2.03-.824-4.073-1.654-6.13-2.45-1.093-.423-1.241-.708-1.244-.71 0 0-.008-.056.025-.187.237-.928.623-1.108 2.748-1.278.34-.026.679-.054 1.007-.093 4.967-.582 9.933-1.21 14.9-1.839m-187.998 190.417c.156.352-.156 1.64-1.613 3.157-1.17 1.217-5.89 2.58-13.485 2.692-8.288.136-14.346-1.322-15.796-2.743-.588-.578-1.126-1.32-1.601-1.977l-.081-.113c1.043-4.098 3.789-6.504 6.685-9.04a73 73 0 0 0 2.236-2.016c1.69-1.612 2.722-1.119 5.997 1.75.407.355.81.716 1.21 1.074 3.868 3.455 7.834 7.05 14.534 6.821 1.408-.053 1.872.301 1.914.395m24.655-21.445c2.186-.225 2.47.534 2.603.9.194.533.187.743-1.21 1.995q-.347.309-.67.62c-4.298 4.156-10.845 8.713-17.627 6.823l-.35-.065c-1.4-.13-2.58-.29-3.617-.429-1.495-.2-2.758-.368-3.98-.368-.437 0-.87.021-1.306.071-6.047.69-9.148-3.62-10.025-7.887-.82-3.99 1.63-6.01 5.69-8.978 1.636-1.194 3.326-2.429 4.663-3.922.68-.76 1.313-1.155 1.876-1.172 1.306-.053 2.956 1.64 4.32 2.99.44.434.872.858 1.29 1.24 5.238 4.78 10.577 9.003 18.343 8.182m28.04-20.267c.128-.02.787-.103.923.212.12.277 0 .96-.834 1.61-.997.776-1.964 1.627-2.9 2.45-4.006 3.518-7.786 6.845-14.657 5.672-2.308-.744-4.83-.857-7.497-.976-5.19-.232-10.552-.472-14.534-5.633l-.707-.903c-3-3.8-3.492-4.98-1.034-6.953 1.37-1.1 2.515-2.622 3.62-4.094 3.197-4.257 4.733-5.642 8.218-3.305 1.479.992 2.958 2.06 4.389 3.095 7.109 5.137 14.448 10.452 25.014 8.825m-11.247 25.458c2.515 1.035 11.143 12.021 11.733 14.84-1.801 2.747-16.305 13.911-19.535 14.422-4.303-1.45-5.17-4.81-6.213-10.127-.415-2.113-.844-4.295-1.674-6.293.88-2.848 12.772-12.605 15.689-12.842m-25.047 40.418c-3.487 3.016-6.094 4.086-6.737 3.983-3.864-1.166-4.435-4.49-4.865-9.429-.108-1.226-.207-2.384-.408-3.483-.342-1.875.078-3.603 1.249-5.136 1.952-2.558 5.597-4.123 8.189-4.346a6 6 0 0 1 .547-.025c2.58 0 3.414 1.825 4.696 5.982.659 2.14 1.339 4.342 2.686 6.018-.476 1.263-2.206 3.712-5.357 6.436m-39.447-6.939c.395-.425 1.29-.536 2.315-.536.587 0 1.22.036 1.824.072 1.51.087 3.068.18 4.432-.224 3.29.12 6.293 1.54 8.484 4.021 2.52 2.856 3.648 6.718 3.173 10.874-.285 2.482-1.225 4.281-2.876 5.498-3.463 2.551-8.907 1.773-10.491 1.472-5.68-1.073-6.398-5.996-6.846-13.387-.097-1.575-.188-3.064-.374-4.48-.215-1.628-.084-2.835.359-3.31m83.649-48.967c.467-.252.923-.497 1.359-.737 3.299 1.37 13.755 13.207 14.519 16.451-1.52 5.343-7.443 7.723-10.993 7.648-7.156-.153-9.976-8.28-12.243-14.81l-.217-.625c-1.05-3.016 2.64-5.28 7.575-7.927m41.312.95c-1.794 4.376-6.22 5.853-10.895 7.415-.983.328-1.963.656-2.918 1.01-3.286-1.049-14.687-14.254-14.727-17.02 1.263-5.434 6.043-8.167 10.935-10.444 3.554 1.45 16.48 15.447 17.605 19.04m47.362-64.064.719.553c1.542 1.164 3.15 2.276 4.703 3.351 3.449 2.387 6.707 4.641 9.413 7.476 1.087 1.138 2.723 1.987 4.305 2.808 1.608.836 3.812 1.98 3.958 2.891.029.183.016.895-1.41 2.354-.361.37-.742.775-1.145 1.203-2.495 2.655-5.907 6.286-9.526 6.286h-.05c-2.041-.018-4.158-1.223-6.293-3.579-2.865-3.163-6.16-5.909-9.346-8.565-1.723-1.437-3.507-2.924-5.177-4.442-.492-.448-1.05-.884-1.618-1.324-2.63-2.042-3.224-2.838-2.4-4.545 1.44-2.97 4.267-5.122 8.886-6.762 2.002-.067 3.3.993 4.98 2.295m194.122-123.26c-.195.45-.39.898-.548 1.346-.481 1.366-.912 2.76-1.34 4.15-.83 2.692-1.614 5.235-2.765 7.583-4.813 9.826-9.96 16.018-20.735 16.53-15.234.722-30.081 2.247-44.441 3.724-5.591.574-11.003 1.13-16.164 1.607l-.152.021c-5.47.931-6.477.776-7.105-.243-.44-.712-.48-.917 1.008-2.48.333-.35.66-.699.95-1.054 4.97-6.099 11.409-12.694 21.492-15.368 16.766-4.446 33.634-9.609 49.948-14.602 4.888-1.496 9.775-2.992 14.667-4.472 1.27-.384 2.224-.58 2.996-.58.983 0 1.674.318 2.353.978.668.651.649 1-.164 2.86m-87.697 60.8c-4.513-2.149-9.474-3.195-14.273-4.204-1.823-.384-3.705-.78-5.51-1.229a35 35 0 0 0-1.19-.265c-2.6-.547-3.03-.835-3.067-2.053-.016-.552-.067-2.234 3.765-3.362 5.504-1.622 10.37-2.648 14.879-3.138 13.389-1.456 26.598-2.733 40.585-4.084 5.239-.507 10.532-1.018 15.899-1.546.969 0 1.953-.277 2.99-.57 2.99-.84 3.67-.74 4.295.625.64 1.401.317 1.922-2.313 3.713-1.177.802-2.395 1.632-3.271 2.801-14.295 19.068-31.56 23.421-52.79 13.312m4.595 37.257c-2.104 2.374-3.854 2.481-7.49.465-12.814-7.105-25.953-14.098-38.661-20.859l-4.953-2.636c-2.726-1.452-2.922-2.4-2.932-2.576-.03-.439.51-1.315 2.107-2.454 1.696-1.206 3.186-2.742 4.502-4.098 1.454-1.497 3.25-3.347 4.246-3.347l.054.002c5.972 1.402 11.709 2.742 17.275 4.044 13.933 3.255 27.094 6.33 40.069 9.47 1.527.37 2.55.944 2.738 1.536.178.567-.193 1.811-1.771 3.598-2.588 2.93-5.216 5.82-7.842 8.711-2.458 2.704-4.916 5.407-7.342 8.144m-144.774 45.353c2.68-2.875 5.634-5.639 9.087-6.52 3.532 1.377 21.496 16.415 23.199 19.461.359 2.082-.824 2.946-3.54 4.376l-.23.121c-1.146.605-2.232 1.405-3.284 2.178-3.557 2.618-5.392 3.755-8.191 1.061-3.761-3.618-7.335-7.632-10.791-11.514-1.745-1.959-3.488-3.918-5.266-5.84-2.032-2.2-1.376-2.903-.984-3.323m56.729-37.609c4.964 4.244 10.562 7.75 15.977 11.137 2.82 1.767 5.736 3.593 8.504 5.49.783.535 1.649.942 2.488 1.335 2.7 1.267 3.34 1.816 3.042 3.541-.355 2.038-1.966 2.716-4.783 3.737-.576.21-1.15.417-1.7.644-2.591 1.064-5.114 2.298-6.957 3.2-.502.245-.955.467-1.35.656-3.491.265-5.171-1.029-7.113-2.52a44 44 0 0 0-.94-.71 428 428 0 0 0-3.481-2.507c-4.554-3.258-9.261-6.627-13.266-10.517-1.016-.986-2.46-1.734-3.858-2.458-1.654-.857-3.713-1.924-3.904-2.959-.123-.66.456-1.769 1.588-3.04a76 76 0 0 0 1.52-1.782c2.265-2.71 4.833-5.782 7.856-6.036q.214-.018.43-.018c1.79 0 3.742.922 5.947 2.807m5.294-11.006c0-.137.11-.889 2.219-2.267 2.23-1.457 4.14-3.32 5.987-5.12 3.066-2.99 5.969-5.823 10.135-6.759q1.078.525 2.17 1.05c2.042.986 4.107 1.983 6.15 3.028 4.628 2.367 9.254 4.744 13.879 7.121 7.726 3.968 15.452 7.938 23.197 11.865l.329.167c2.519 1.27 3.465 1.91 3.406 3.603-.037 1.055-.67 1.494-2.686 2.362q-.384.166-.748.33c-3.344 1.525-6.777 3.02-10.097 4.465-4.463 1.944-9.078 3.953-13.57 6.077-2.55 1.207-4.532.9-7.311-1.143a1408 1408 0 0 1-7.918-5.87c-7.245-5.398-14.737-10.979-22.378-16.08-2.636-1.76-2.766-2.665-2.764-2.829m-73.412 57.766c3.775.73 19.638 16.607 20.556 20.533-.688 2.084-2.624 3.177-4.848 4.431-1.014.573-2.063 1.164-3.047 1.885-3.266 2.388-5.194.885-6.366-.453l-2.216-2.529c-3.206-3.656-6.523-7.436-9.665-11.24-.482-.584-1.037-1.12-1.575-1.639-2.117-2.039-2.395-2.642-1.758-3.792 2-3.608 5.244-6.22 8.919-7.196m457.1-223.907c4.209-2.009 8.564-4.088 12.862-6.07 1.277-.59 2.072-.875 2.677-.875.517 0 .899.207 1.324.61 1.186 1.121 1.059 1.906-.717 4.421l-.108.151c-8.536 12.113-14.932 25.534-20.576 37.376-2.061 4.328-4.31 7.122-7.076 8.794-4.29 2.594-8.57 5.343-12.708 8.001-18.3 11.757-35.585 22.861-57.925 24.613-10.698.84-21.494 2.358-31.934 3.826-17.855 2.512-36.32 5.104-54.694 4.343l-.083-.002c-3.561 0-7.125-.05-10.69-.1-8.27-.12-16.828-.24-25.242.3-3.251.21-4.41-.236-4.81-.647-.74-.76-.511-3.274-.247-6.184l.044-.488c1.05-11.662 7.185-15.669 17.426-18.647 32.257-9.384 65.665-16.148 97.973-22.69a8199 8199 0 0 0 15.369-3.122c11.525-2.358 22.005-7.458 32.14-12.39 5.488-2.672 11.162-5.434 16.886-7.694 10.233-4.04 20.338-8.863 30.109-13.526m-126.074-69.699c2.168-4.23 4.337-8.46 6.478-12.706l.35-.718c.977-2.015 1.41-2.57 2.095-2.57q.078 0 .16.01c.679.072.783.084.758 2.263-.006.426-.01.851.006 1.261.255 6.373.569 12.645.934 19.908l.443 8.897.087.492c2.804 9.06-1.351 17.66-5.751 26.763-1.434 2.966-2.916 6.033-4.168 9.154l-1.144 2.861c-7.417 18.566-14.423 36.102-29.526 49.01-3.723 3.182-7.483 6.156-12.532 7.584a15936 15936 0 0 0-128.407 36.908c-7.274 2.124-14.916 2.83-22.304 3.512-3.132.29-6.372.587-9.561.991-13.372 1.69-27.047 2.902-40.272 4.075-4.786.424-9.572.848-14.356 1.295-.538.051-1.11.15-1.693.251-2.728.483-2.95.25-3.258-.555-.326-.854.1-1.454 1.737-3.074.488-.483.994-.982 1.446-1.53 10.715-13.009 21.293-20.556 34.298-24.472 24.325-7.324 47.488-18.582 69.886-29.469 11.225-5.456 22.832-11.097 34.418-16.16 17.83-7.792 35.814-16.047 53.205-24.03 11.474-5.267 23.339-10.713 35.044-15.973 8.853-3.979 14.405-9.132 17.999-16.707 4.355-9.175 9.07-18.374 13.628-27.27m-407.808 433.232.003-9.374c.003-9.327.007-18.654-.011-27.98-.005-2.79 3.759-8.244 8.95-12.97 5.238-4.768 9.524-6.719 11.425-6.533 1.792.172 2.04.63 2.045 3.766 0 .437 0 .871.016 1.294.19 4.981.476 10.041.753 14.934.645 11.37 1.312 23.125.785 34.575-1.214 26.385 3.99 49.538 15.91 70.785 5.009 8.93 3.94 18.17 2.809 27.95-.357 3.093-.727 6.291-.883 9.45-.043.874-.177 1.294-.253 1.467-.543-.029-1.791-.586-2.562-.93a30 30 0 0 0-1.9-.797c-28.3-10.36-32.114-36.576-35.802-61.929l-.228-1.56c-1.3-8.907-.955-18.319-.623-27.42.152-4.177.31-8.495.31-12.737v-1.99ZM967.492 956.16c-4.291.88-14.992-10.552-14.078-15.056.369-1.82.772-3.816 3.987-3.344 4.703 3.912 9.818 8.2 12.873 14.335.859 1.725-.66 3.63-2.782 4.065m149.497 151.257-.543-.207c-13.802-5.228-21.405-8.107-22.882-12.175-1.506-4.146 2.652-11.546 10.262-25.09a10227 10227 0 0 0 21.804-38.954c.223-.402.438-.828.654-1.259 1.09-2.176 1.57-2.728 2.23-2.728q.163.002.343.041c1.004.205 1.313.785 1.294 4.007l-.001.755c.034 6.11.028 12.22.022 18.331l-.005 7.034.054.456c3.669 15.607 2.15 30.66-4.642 46.02-2.184 4.948-3.712 5.615-8.59 3.77m50.616 152.834c-10.251-7.403-21.538-13.53-32.454-19.457q-2.349-1.272-4.691-2.55c-5.105-2.79-6.92-6.142-6.471-11.952.788-10.19 1.629-22.04 1.633-33.72.002-4.546.934-5.8 1.487-6.143.219-.137.544-.236 1.02-.236.934 0 2.457.381 4.939 1.615 5.549 2.76 11.223 5.484 16.713 8.117 10.152 4.871 20.65 9.91 30.7 15.353 21.508 11.648 41.966 17.93 62.545 19.201 7.003.434 14.128 1.52 21.018 2.568 5.47.832 11.126 1.695 16.74 2.237 3.736.36 4.74 1.298 5.006 1.825.343.678.29 2.257-1.904 5.93q-1.439 2.414-2.873 4.833c-4.231 7.135-8.606 14.513-13.34 21.413-5.254 7.661-13.072 9.287-19.971 10.72-2.072.431-4.036.84-5.765 1.396-31.798-.47-54.734-6.998-74.332-21.15m-27.421 48.702c-6.835-8.739-12.807-18.52-18.582-27.979-1.895-3.102-3.787-6.203-5.712-9.276-3.031-4.834-.04-21.826 4.382-24.905.66-.459 1.238-.674 1.845-.674 1.022 0 2.125.613 3.827 1.693.464.296.926.59 1.392.858 4.605 2.667 9.333 5.287 13.907 7.822 10.604 5.876 21.568 11.952 31.624 18.956 13.75 9.573 29.335 14.425 50.53 15.724l.758.047c7.534.458 14.649.891 21.004 4.897 1.922 1.211 2.94 2.26 3.115 3.206.195 1.056-.515 2.638-2.167 4.834-16.23 21.566-38.55 27.2-67.048 28.907-3.483-2.005-7.32-3.742-11.371-5.577-9.903-4.486-20.143-9.122-27.504-18.533m-115.635 10.915c.226-.706.459-1.435.596-2.2.827-4.66 1.693-9.313 2.558-13.965 2.203-11.828 4.477-24.058 6.059-36.206 1.044-8.009 4.827-12.599 10.594-17.405 15.815-13.18 31.645-26.888 46.954-40.144 6.435-5.57 12.87-11.143 19.32-16.693a25 25 0 0 0 1.136-1.064c1.307-1.28 1.87-1.676 2.25-1.676.218 0 .375.131.577.301.329.37.439 1.994.485 2.685.029.431.056.82.104 1.173-.927 6.456-1.035 12.816-1.137 18.971-.154 9.177-.3 17.843-3.047 26.151-5.012 15.154-13.435 27.672-25.748 38.272-13.898 11.964-28.755 23.106-43.122 33.882-4.05 3.038-8.1 6.077-12.136 9.135-.362.276-.73.58-1.102.89-2.431 2.016-3.11 2.215-4.285 1.278-.763-.61-.773-1.148-.056-3.385m-58.945-48.656c.159-.097.294-.17.459-.17.367 0 .877.358 2.098 1.593.237.24.47.476.704.698.35.334.689.683 1.027 1.032.465.477.93.953 1.417 1.401 20.912 19.183 22.132 19.178 43.66-.307.627-.568 1.188-1.218 1.73-1.847 2.016-2.346 2.735-2.83 4.298-2.07.427.207.097 1.994-.061 2.853l-.05.277c-.743 4.684-1.47 9.371-2.196 14.06-1.895 12.22-3.855 24.852-6.064 37.216-.471 2.638-4.644 6.755-9.921 9.786-4.481 2.573-8.712 3.744-10.775 2.992l-1.891-.684c-8.893-3.195-16.573-5.955-17.483-17.919-.784-10.329-2.71-20.68-4.573-30.693-.848-4.56-1.725-9.278-2.48-13.917a35 35 0 0 0-.164-.915c-.435-2.324-.384-2.989.265-3.386m-91.264-37.658c-1.56-8.898-2.06-18.212-2.545-27.218-.208-3.866-.424-7.864-.72-11.79-.198-2.622.052-3.512 1.113-3.966.22-.095.427-.144.638-.144.682 0 1.4.518 2.735 1.687l15.517 13.378c18.718 16.126 38.072 32.803 57.042 49.282 3.08 2.676 3.768 4.405 3.904 5.198 2.656 15.492 5.12 31.293 7.506 46.573.725 4.643 1.449 9.285 2.18 13.927.36 2.631-.2 3.262-.194 3.262-.16.053-1.101-.002-2.871-1.35-5.845-4.455-11.865-8.88-17.685-13.157-18.057-13.272-36.728-26.995-52.64-43.437-6.846-7.073-11.42-17.62-13.98-32.245m-25.338 167.997c10.035-9.995 21.27-18.413 32.136-26.552 7.388-5.537 11.71-11.364 14.016-18.899 2.583-8.44 5.524-16.942 8.368-25.164 2.475-7.152 5.033-14.548 7.357-21.902 1.279-4.052 2.467-4.934 3.06-5.1.096-.025.215-.045.36-.045.71 0 2.06.441 4.455 2.55 1.953 1.72 4.048 3.266 6.074 4.762 1.287.95 2.618 1.931 3.875 2.932 21.794 17.362 21.794 17.362 21.067 49.181l-.007.294.065.262c4.509 17.894-5.49 34.238-16.077 51.542-1.017 1.664-2.035 3.328-3.041 4.995l-.392.661c-.465.791-1.433 2.44-1.84 2.662-4.69.791-9.388 2.07-13.932 3.303-12.628 3.434-24.555 6.676-37.03.596-4.815-2.346-9.588-5.085-14.204-7.73-4.054-2.324-8.246-4.728-12.495-6.887-3.891-1.976-5.724-3.473-5.942-4.852-.226-1.433 1.162-3.656 4.127-6.609m-111.528-102.24c.045-.215.343-.816 2.127-1.79.549-.3 1.095-.609 1.64-.918 2.896-1.644 5.63-3.194 8.793-3.194.018.004.042 0 .064 0 27.414 0 54.187-9.339 84.242-29.383 4.21-2.809 8.715-5.373 13.07-7.853 4.315-2.455 8.775-4.994 13.01-7.798 2.127-1.41 3.625-1.97 4.586-1.726 1.045.27 2.157 1.63 3.605 4.405 6.555 12.568 5.685 20.73-3.004 28.175-2.794 2.394-4.533 6.035-6.068 9.247-9.133 19.11-24.734 32.888-47.693 42.115-.712.286-1.415.604-2.116.922-1 .452-1.944.88-2.9 1.204-.476.161-1.11.206-1.778.253-.317.022-.633.045-.946.08-29.84-1.81-50.494-11.517-64.991-30.535-1.501-1.97-1.722-2.83-1.641-3.205m123.15-107.667c.444 11.291 1.084 23.394 1.959 36.998.254 3.94-1.671 5.846-5.31 7.982-6.97 4.091-14.005 8.338-20.81 12.445-13.764 8.31-27.998 16.904-42.35 24.6-8.195 4.398-17.185 5.115-26.702 5.874-5.587.446-11.361.906-16.89 2.193-15.287-1.567-29.563-4.462-36.693-21.423-2.263-5.384-5.456-10.842-10.047-17.174-2.94-4.052-2.816-5.452-2.626-5.866.14-.31.962-1.348 5.596-1.747 3.958-.34 7.93-.949 11.773-1.539 4.852-.745 9.869-1.517 14.773-1.718 27.642-1.14 54.943-9.65 83.46-26.019 7.306-4.194 15.156-7.768 22.748-11.222 4.809-2.19 9.78-4.453 14.599-6.865 2.315-1.159 3.649-1.469 4.414-1.469.385 0 .626.08.774.166.352.21 1.187 1.092 1.332 4.784m-4.761-129.296c.275-2.322.549-4.648.772-6.975l.009-.096-.005-6.845c-.006-5.825-.012-11.649.024-17.474a24 24 0 0 0-.058-1.563c-.168-2.815.09-2.994 1.009-3.185a1 1 0 0 1 .165-.018c.54 0 1.02.61 2.027 2.485q.2.375.398.73l6.494 11.61a32941 32941 0 0 0 27.586 49.252c1.359 2.422 1.8 4.224 1.313 5.358-.47 1.088-1.968 1.957-4.453 2.58-4.646 1.163-9.107 3.092-12.923 4.808l-.187.085c-7.327 3.296-11.748 5.286-13.818 4.438-2.005-.823-3.648-5.058-6.37-12.075l-.423-1.088c-4.096-10.54-2.864-20.977-1.56-32.027m21.386-120.294c-3.35 34.374 3.939 67.71 10.989 99.947 1.25 5.723 2.502 11.444 3.696 17.172.3 1.44.46 3.06.503 5.08a18 18 0 0 1-.424.64c-4.666-9.814-10.092-19.132-15.357-28.172-12.35-21.202-24.013-41.229-25.914-66.193-.743-9.745-4.065-17.583-10.16-23.965-2.905-3.042-2.595-4.023-2.591-4.033.002-.01.416-1.01 4.943-1.522 8.39-.949 17.227-2.393 27.808-4.542.813-.165 1.748-.298 2.64-.298 1.109 0 2.153.206 2.826.812 1.167 1.052 1.21 3.34 1.04 5.074m149.172 34.315a1.3 1.3 0 0 1-.69 1.07c-18.201 10.147-26.014 28.113-30.787 42.632-.625 1.902-1.281 1.996-1.775 1.962-.761-.162-.973-.532-1.41-2.3-.148-.595-.3-1.21-.543-1.823-7.383-18.608-16.04-30.759-28.067-39.399-.778-.559-1.465-1.57-1.502-1.91.006-.206.042-.367.095-.412.138-.123.716-.317 1.902-.197 8.987.931 11.518-5.907 13.553-11.399l.076-.208c1.392-3.758 2.832-7.644 5.214-10.238 3.435-3.739 7.757-5.498 12.154-4.94 4.886.615 9.319 4.008 12.165 9.31.822 1.532 1.503 3.206 2.222 4.978 2.597 6.39 5.828 14.325 17.393 12.874m84.74 201.245c-11.646 10.022-23.367 20.355-34.702 30.346l-7.112 6.267q-.378.335-.76.688c-2.006 1.84-2.8 2.331-3.855 1.814-.85-.416-1.051-.515-.295-2.989.182-.6.374-1.22.5-1.868 1.43-7.267 2.875-14.53 4.319-21.794 4.85-24.403 9.864-49.635 14.3-74.558.762-4.268 1.855-6.706 3.345-7.455q.6-.301 1.452-.302c1.41 0 3.349.622 5.869 1.878 5.12 2.553 10.513 4.644 15.727 6.668q2.048.79 4.089 1.596c6.897 2.723 6.995 6.432 6.469 8.986l-.033.234c-.342 4-.681 7.911-1.016 11.76-.818 9.432-1.59 18.342-2.284 27.34-.356 4.604-2.211 8.115-6.013 11.39m-105.927 91.145-.704.463c-.534-.158-.822-.348-.915-.5-.128-.2-.196-.73.202-2.117 2.952-10.275 5.83-20.76 8.613-30.902 6.826-24.865 13.884-50.575 22.563-75.168 3.926-11.133 12.635-19.154 21.859-27.647 4.71-4.336 9.579-8.82 13.726-13.744.159-.088.478-.174.693-.19.499.377.534.836.072 2.755-.096.4-.19.796-.265 1.187l-1.32 6.96c-3.861 20.38-7.724 40.758-11.604 61.134-.257 1.35-.601 2.688-.964 4.105-.72 2.812-1.464 5.717-1.486 8.708-.154 20.267-11.346 33.095-28.103 46.122-4.215 3.278-8.25 6.893-12.152 10.388-2.215 1.985-4.506 4.037-6.79 5.991-1.075.92-2.324 1.736-3.425 2.455m-89.708-145.284a22 22 0 0 0-.393-1.642c-.501-1.874-.681-2.764.118-3.489q.12.114.243.226c.945.876 1.838 1.703 2.677 2.576 1.508 1.567 2.997 3.258 4.438 4.893 3.08 3.496 6.265 7.112 10.009 9.99 18.086 13.906 23.365 34.038 28.953 55.352.693 2.643 1.386 5.288 2.106 7.921 4.064 14.87 8.165 29.728 12.265 44.587l5.474 19.848c.146.528.334 1.077.527 1.635.862 2.492.905 3.226.22 3.745-.546.417-.773.592-2.752-1.45-.427-.443-.85-.875-1.272-1.243-3.886-3.388-7.761-6.794-11.636-10.2-8.48-7.45-17.248-15.157-26.014-22.572-3.637-3.075-5.738-6.697-6.615-11.399a67044 67044 0 0 1-18.348-98.778m-21.187-14.354 2.333-.96c.78-.323 1.755-.639 2.56-.639.338 0 .647.056.898.19.739.4 1.334 1.651 1.72 3.622 3.006 15.347 6.054 30.688 9.1 46.028 3.428 17.26 6.973 35.106 10.398 52.671.106.541.257 1.114.414 1.7.763 2.852.779 3.806-.586 4.617-.708.417-.946.56-2.618-1.403-.478-.562-.972-1.14-1.544-1.619-5.442-4.546-10.917-9.255-16.213-13.808-7.698-6.62-15.657-13.465-23.683-19.96-5.407-4.376-7.856-9.21-8.192-16.166-.433-8.987-1.133-18.099-1.808-26.91-.29-3.759-.578-7.517-.847-11.276l-.014-.13c-.444-3.208.469-4.877 3.256-5.952 8.327-3.212 16.715-6.666 24.826-10.005m-3.721-125.536c.31-.615.6-1.295.894-1.99 1.235-2.92 1.996-4.297 3.63-4.315h.09c1.38 0 1.756.39 2.17 3.67.124.977.25 1.988.548 2.92 4.116 12.898 8.039 25.673 12.192 39.2 1.413 4.601 2.84 9.251 4.293 13.962l1.269 4.114 2.314-3.632c2.093-3.287 2.479-7.176 2.819-10.607.426-4.294.784-6.21 2.43-6.548 3.026-.633 4.663 1.756 7.415 6.961 1.13 2.137 2.3 4.347 3.79 6.064 3.562 4.105 7.245 8.351 12.07 11.117 9.847 5.642 16.702 14.116 23.96 23.085 2.809 3.472 5.714 7.062 8.777 10.423 1.88 2.065 2.293 3.42 2.074 3.954-.187.456-1.312 1.274-4.341 1.438-14.091.767-28.155 3.1-41.756 5.353-6.698 1.111-13.624 2.258-20.448 3.201-4.28.597-5.744-.393-6.516-4.396a18819 18819 0 0 0-7.29-37.52c-3.832-19.658-7.796-39.983-11.59-59.993-.335-1.772.149-4.368 1.206-6.46m180.237 107.552c-7.862-1.055-15.73-2.079-23.595-3.105-12.266-1.598-24.947-3.25-37.401-4.992-2.7-.378-3.64-1.065-3.77-1.41-.04-.114-.332-1.197 2.444-4.389 2.39-2.749 4.73-5.61 6.995-8.377 8.128-9.936 15.804-19.32 26.795-25.57 4.943-2.812 8.142-7.343 11.238-11.726 1.424-2.017 2.768-3.92 4.276-5.675.667-.779 1.224-1.698 1.762-2.586 1.394-2.304 2.019-2.956 2.69-2.956.158 0 .318.036.49.095.6.445 1.339 3.067 1.735 4.474.23.82.455 1.618.693 2.322.178.527.275 1.174.377 1.857.305 2.035.723 4.822 3.763 7.312l2.304 1.887 4.587-15.14a39402 39402 0 0 1 12.242-40.37c.21-.7.352-1.418.488-2.112.554-2.828.89-3.34 2.247-3.424.948-.058 1.393.5 2.497 2.446.38.67.775 1.363 1.262 2 2.3 3.01 2.956 6.164 2.125 10.227-5.635 27.56-11.481 57.088-18.4 92.927-1.005 5.213-3.132 6.91-7.844 6.285m-7.278 10.523c4.503.608 4.89 1.583 4.905 1.625.003.008.32 1.058-2.657 4.14-9.392 9.72-20.415 21.262-30.971 33.172-2.193 2.474-3.331 2.75-3.83 2.693-.472-.054-1.493-.57-3.031-3.414-2.343-4.335-4.7-8.662-7.056-12.99-5.02-9.223-10.212-18.76-15.188-28.207-1.42-2.695-1.271-3.92-1.093-4.164.12-.167.603-.388 1.643-.388.494 0 1.115.051 1.883.18l15.778 2.084c13.207 1.742 26.414 3.485 39.617 5.27m-96.39 66.72c.14-.074.317-.168.566-.168.417 0 1.04.262 2.046 1.314 7.986 8.346 16.064 12.508 24.069 12.47 7.835-.073 15.626-4.248 23.16-12.41.678-.736 1.243-1.009 1.52-1.018.057-.008.224-.01.535.282.427.4.407.865-.12 2.616-.082.275-.164.55-.237.817l-4.14 15.275c-6.464 23.864-13.15 48.542-19.79 72.791-.25.912-.85 1.858-1.431 2.774l-.094.148c-.693-.333-.907-1.033-1.284-2.495a42 42 0 0 0-.204-.772 45013 45013 0 0 0-9.674-34.439c-5.002-17.792-10.004-35.582-14.972-53.383q-.098-.346-.208-.709c-.733-2.433-.521-2.682.258-3.094m-12.021-25.55c-.606.075-1.771-.315-3.83-2.554-6.191-6.736-12.555-13.505-18.711-20.052a3537 3537 0 0 1-12.413-13.245c-2.637-2.833-2.416-3.734-2.412-3.742.002-.008.395-.74 3.427-1.14 13.885-1.829 27.767-3.687 41.649-5.546l16.136-2.157.01-.003a10 10 0 0 1 1.398-.107c1.165 0 1.64.28 1.723.412.149.242.059 1.313-1.17 3.085-5.702 8.232-10.18 17.265-14.51 26.002-2.555 5.155-5.198 10.484-8.047 15.551-1.548 2.757-2.622 3.422-3.25 3.495m66.47 8.467c-.108.452-.312 1.291-.443 1.463l-3.2 2.322c-7.596 5.514-15.45 11.217-23.484 16.231-1.974 1.23-3.531.255-6.616-2.26-.673-.55-1.37-1.119-2.075-1.615-10.72-7.53-16.098-11.312-17.175-15.63-1.085-4.35 2.09-10.622 7.852-22.009 2.62-5.174 5.51-10.338 8.305-15.33 2.153-3.847 4.38-7.826 6.483-11.804 1.13-2.145 1.999-2.624 2.238-2.627h.002c.17 0 .784.32 1.615 1.784 6.677 11.781 13.274 23.885 19.655 35.59 2.1 3.853 4.2 7.706 6.31 11.557.146.267.278.655.459 1.191q.093.281.208.61-.066.253-.133.527m87.965-206.534c-.054-3.824.483-6.148 1.642-7.109.63-.524 1.605-.785 2.945-.785q1.473 0 3.554.423c5.539 1.124 11.22 1.767 16.712 2.388 3.65.412 7.423.84 11.09 1.402 2.432.373 3.552 1.197 3.687 1.63.076.247-.14 1.057-1.51 2.351-9.437 8.922-11.936 20.712-13.06 29.987-2.904 24.023-14.71 44.562-26.127 64.424a1186 1186 0 0 0-4.717 8.257c-.726 1.283-1.392 2.62-2.038 3.912-2.024 4.058-3.96 7.94-7.733 10.583.697-3.576 1.376-7.156 2.056-10.737 2.055-10.827 4.18-22.024 6.788-32.878 5.054-21.039 7.124-43.815 6.71-73.848m-22.015-68.086c-3.851 6.534-3.15 12.392 2.272 18.992 4.49 5.47 8.808 11.282 12.982 16.903 1.65 2.222 3.3 4.445 4.966 6.654 2.126 2.82 2.094 3.846 2.137 3.868-.087.06-.82.494-3.533.195-2.602-.283-4.547.18-5.93 1.421-2.152 1.935-2.144 5.068-2.137 7.867.009 3.81.078 7.617.146 11.425.083 4.611.168 9.378.14 14.055-.005 1.013.19 2.066.378 3.085.638 3.45.326 3.681-.847 3.95-.968.222-1.403-.152-2.686-3.133-.448-1.039-.911-2.115-1.543-3.035-.591-.86-1.108-1.828-1.967-3.43a268 268 0 0 0-1.94-3.576l-2.301-4.152-1.352 4.551c-.902 3.043-1.74 5.898-2.537 8.616-2.053 7-3.827 13.045-5.755 19.048l-.043.131c-.786 2.457-1.311 3.224-2.046 3.127-.643-.073-1.098-.37-1.1-3.526-.001-2.45-.014-4.903-.025-7.356-.04-8.213-.082-16.707.286-25.016.089-1.996.495-3.334 1.21-3.976.633-.57 1.71-.72 2.977-.72.708 0 1.476.046 2.259.094 2.287.143 4.884.303 7.279-.61l2.076-.79-5.77-11.3c-4.7-9.213-9.341-18.309-14.017-27.386-.332-.643-.725-1.226-1.108-1.79-1.328-1.966-1.44-2.434-.787-3.347.766-1.074 1.087-1.28 3.908.563l.238.156c1.71 1.111 3.316 1.51 4.767 1.195.83-.182 2.017-.703 2.935-2.152.927-1.466 1.234-3.144.862-4.725-.39-1.653-1.466-3.083-3.03-4.028-4.734-2.86-6.29-7.695-7.936-12.814-.633-1.963-1.286-3.994-2.131-5.932-1.381-3.16-1.384-4.887-.928-5.449.47-.58 2.236-.937 5.77-.2.822.171 1.642.39 2.459.607 1.777.472 3.615.96 5.549 1.036 4.242.168 6.952 1.113 7.835 2.732.89 1.634.206 4.46-1.982 8.172m-44.705 51.737c-.298-4.448 12.318-20.11 16.456-21.522.417-.142.739-.214 1.002-.214.562 0 .852.33 1.215 1.013 3.336 6.262 7.117 13.36 10.535 20.333.13.31.159 1.138.11 1.74-8.911 3.522-8.508 10.897-8.186 16.86.149 2.73.289 5.307-.32 7.47-.863 3.054-1.018 6.767-.468 11.052l-13.998-1.924a2584 2584 0 0 1-17.478-2.432 13 13 0 0 0-1.391-.097c-1.42-.04-1.43-.08-1.55-.578-.313-1.295.719-2.195 1.377-2.522 13.085-6.506 13.416-18.473 12.696-29.179m-89.231 27.7c1.506.78 2.886 1.71 3.33 4.175l-31.893 4.228 3.376 2.9c6.013 5.165 12.536 8.802 18.843 12.32 8.719 4.861 16.954 9.453 22.908 17.54 6.192 8.407 9.546 17.822 13.43 28.723 2.428 6.813 4.938 13.86 8.412 21.404l2.362 5.134 1.378-5.482c10.879-43.292 29.456-67.693 60.234-79.119l7.21-2.678q.079.604.176 1.221c4.377 27.667-6.285 50.445-33.551 71.684-8.883 6.92-16.011 15.433-22.905 23.667-2.952 3.524-6.003 7.17-9.135 10.617a35 35 0 0 0-1.34 1.603c-.901 1.122-2.397 3-3.198 2.96-.314-.015-.973-.48-1.796-1.74-8.653-13.25-20.29-23.743-31.545-33.889-11.965-10.786-24.338-21.94-32.861-36.299-2.608-4.394-3.688-7.83-3.73-11.864a1492 1492 0 0 0-1.318-48.753c-.037-.875.052-1.879.145-2.943.36-4.085.904-10.244-7.493-11.515-.036-.38.078-1.192.503-2.058.218-.444.426-.9.634-1.359.564-1.243 1.098-2.417 1.822-3.257 1.78-2.063 2.697-4.748 3.582-7.344 1.68-4.93 2.859-7.73 7.156-7.573 1.64.053 4.117 1.852 6.625 4.811 5.177 6.107 9.042 15.09 8.44 19.614-1.042 7.84-.825 17.57 10.199 23.272m-54.655-79.889c-2.253-3.496-3.058-6.248-2.265-7.748.743-1.406 3.238-2.235 7.024-2.334 2.04-.054 4.069-.716 6.03-1.354 3.884-1.267 5.877-1.687 7.349-.075 1.774 1.943 1.095 3.855-.876 7.754-1.058 2.093-2.152 4.257-2.4 6.613-.19 1.806-1.59 3.812-2.942 5.753-.314.45-.624.895-.918 1.334-.414.62-1.293 1.253-2.143 1.866-2.13 1.534-5.691 4.104-3.113 8.963 2.577 4.86 6.356 3.398 8.858 2.43.965-.373 1.9-.736 2.85-.904l-22.208 44.943 3.222-.015c7.01-.032 11.246-.052 12.702 1.346 1.439 1.381 1.502 5.505 1.605 12.34l.002.138c.07 4.604.226 9.274.379 13.791.105 3.121.21 6.242.288 9.363.03 1.174-.131 3.184-1.54 3.446-.542.104-1.104.204-1.99-2.897q-.729-2.557-1.447-5.117c-1.374-4.882-2.795-9.93-4.348-14.86-.114-.362-.185-.866-.261-1.398-.245-1.74-.703-4.978-4.287-5.548a6 6 0 0 0-.93-.077c-2.961 0-4.2 2.511-4.966 4.067-.198.402-.394.806-.62 1.171-.402.648-.767 1.38-1.121 2.09-.925 1.85-1.755 3.371-2.477 3.19-1.134-.276-1.476-.359-.803-3.655.234-1.145.477-2.329.404-3.483-.374-5.986-.39-12.128-.405-18.069l-.013-3.78c-.003-.672.02-1.344.042-2.006.099-2.976.202-6.054-1.98-8.138-1.618-1.544-4.056-2.129-7.67-1.84-.913.074-1.403-.003-1.632-.064.053-.395.37-1.458 2.03-3.785 1.513-2.118 3.012-4.248 4.512-6.378 4.554-6.469 9.263-13.159 14.253-19.39 3.798-4.745 6.645-10.17 1.805-17.683m-80.76 508.955c-3.91 1.124-7.556-.204-11.82-4.31-1.787-1.725-3.552-3.479-5.317-5.233-4.661-4.632-9.48-9.422-14.7-13.58-3.45-2.745-3.598-3.915-3.562-4.207.056-.44.74-1.449 4.692-3.226 4.596-2.068 9.168-4.375 13.59-6.608 7.096-3.582 14.433-7.287 21.905-9.999 24.11-8.754 37.972-28.1 48.353-45.872 4.698-8.043 7.8-13.355 10.388-13.808q.202-.035.423-.035c2.496 0 6.575 3.408 13.093 8.857l1.288 1.076c6.54 5.462 7.434 9.743 3.819 18.325-4.535 10.761-8.176 22.093-11.7 33.052-.907 2.827-1.816 5.654-2.74 8.474-5.167 15.768-29.468 34.49-45.617 35.14-4.9.198-9.686.687-14.753 1.203-2.288.234-4.605.47-6.968.681Zm218.375-26.286-.07-.368c-5.394-18.72.44-31.478 20.143-44.04 3.428-2.185 6.226-4.106 8.474-5.649 3.325-2.283 6.477-4.446 7.617-4.446a.7.7 0 0 1 .194.027c1.022.337 2.483 4.565 4.174 9.46.79 2.287 1.718 4.968 2.857 8.073a247 247 0 0 0 1.934 5.035c1.825 4.648 3.712 9.455 4.612 14.272 3.32 17.742 13.178 30.895 31.96 42.651 6.457 4.042 12.03 9.675 17.422 15.122 1.4 1.414 2.798 2.83 4.215 4.22 2.126 2.088 3.13 3.652 2.986 4.647-.094.652-.818 1.754-3.721 3.29-7.323 3.878-14.668 7.995-21.771 11.977a1974 1974 0 0 1-10.822 6.037c-4.207 2.324-7.861 2.982-11.504 2.073-1.621-.406-3.42-.768-5.658-1.14l-.262-.045c-34.77-5.802-34.77-5.802-50.59-37.948-3.258-6.62-2.81-13.67-2.335-21.136.253-3.986.515-8.107.145-12.112m131.066 26.643c-1.028-.098-2.093-.199-3.158-.237h-.041c-16.87-.255-34.484-2.46-49.013-16.749a490 490 0 0 0-1.96-1.914c-6.682-6.506-12.455-12.126-14.924-21.408-3.261-12.268-7.491-25.217-12.925-39.583-3.013-7.963-1.591-12.753 5.432-18.306l.517-.409c6.75-5.338 11.014-8.708 13.672-8.708q.302 0 .578.06c2.365.508 4.948 4.721 8.887 12.318 15.645 30.18 41.57 44.821 64.869 55.164 3.977 1.766 8.043 3.491 11.974 5.16 2.896 1.231 5.792 2.46 8.678 3.714 3.45 1.5 4.104 2.643 4.186 3.19.065.44-.09 1.727-2.95 4.168-8.238 7.04-16.205 14.455-23.587 21.42-2.975 2.806-6.34 2.49-10.235 2.12M633.272 1086.99c-2.17 1.775-2.465 1.66-3.253.927-1.001-.93-.816-2.018-.118-4.456.235-.819.478-1.667.61-2.538 1.914-12.44 7.98-23.4 13.845-33.997 1.5-2.708 3.05-5.508 4.512-8.298 5.252-10.02 8.042-19.626 8.777-30.226 1.097-15.83 2.582-31.909 4.019-47.459 1.036-11.217 2.107-22.816 3.026-34.24.386-4.8 1.392-6.004 1.957-6.295.174-.09.412-.15.738-.15.938 0 2.6.503 5.55 2.271 10.925 6.554 14.657 13.784 12.879 24.954-1.23 7.724-1.474 15.682-1.711 23.377-.086 2.778-.174 5.634-.308 8.457l-.336.013v1.913c0 1.908-.067 3.874-.131 5.776-.144 4.256-.293 8.657.266 12.97 2.852 22.023-5.478 40.654-14.296 60.38l-1.102 2.465c-1.64 3.674-4.288 6.466-8.338 8.784-2.212 1.265-4.417 2.545-6.622 3.823-5.802 3.364-11.802 6.844-17.806 10.01-.781.412-1.481.985-2.158 1.54m-41.937-10.294c-.6-.488-.28-3.854-.173-4.96 1.703-17.885 6.026-31.758 13.603-43.658 9.045-14.205 14.879-29.809 17.834-47.705 3.333-20.176 7.683-40.54 11.89-60.235l1.37-6.414c.244-1.148.314-2.399.382-3.61.253-4.493.679-6.203 4.173-6.332l.156-.003c2.235 0 5.349 1.73 8.179 4.555 3.225 3.22 5.339 7.087 5.276 9.646-.854 9.918-1.474 20.04-2.074 29.83-1.372 22.411-2.791 45.587-7.125 67.698-4.312 22.002-16.527 50.411-50.233 60.811-2.667.824-3.252.383-3.258.377m-43.45-22.256c-.014-.027-.35-.684.604-3.595.66-2.02 1.19-4.113 1.7-6.138 1.28-5.062 2.488-9.843 5.594-13.575 19.21-23.094 26.459-50.087 33.938-82.976 2.36-10.386 4.969-20.906 7.49-31.079 2.393-9.648 4.867-19.625 7.13-29.489.943-4.103 1.848-4.825 2.194-4.946.256-.087 1.317-.194 4.233 2.14 3.082 2.466 6.52 4.435 9.847 6.34q1.406.8 2.796 1.616c3.246 1.912 4.17 4.03 3.093 7.081l-.078.285c-1.9 9.786-3.65 19.78-5.344 29.444-3.871 22.09-7.874 44.931-13.9 66.73-8.865 32.061-27.381 51.51-55.036 57.802-3.511.798-4.243.36-4.26.36m-54.387-18.95c.49-1.816.936-3.649 1.38-5.48 2.154-8.867 4.187-17.24 11.317-23.316 20.529-17.496 30.044-41.797 39.246-65.299 2.675-6.833 5.44-13.898 8.429-20.658 7.662-17.335 14.537-34.773 20.922-51.149 1.783-4.576 3.403-5.78 4.446-5.985q.2-.039.405-.038c1.573 0 3.452 1.615 4.8 3.037 1.835 1.933 4.358 3.176 6.584 4.274 3.386 1.67 4.872 2.561 4.68 3.955l-5.286 21.156a88760 88760 0 0 0-12.188 48.824c-.616 2.468-1.322 4.983-2.004 7.416-1.593 5.674-3.24 11.542-3.948 17.508-2.27 19.157-12.331 33.82-22.985 49.345l-1.422 2.072c-1.998 2.92-4.64 4.867-7.852 5.79-15.855 4.556-29.94 8.504-43.058 12.07-2.032.55-3.15.347-3.49.008-.354-.354-.535-1.47.024-3.53M403.27 974.47c-2.96.456-6.018.927-8.997 1.25l-.072.01c-2.13.31-2.65.092-3.011-.513-.368-.616-.353-.84.663-2.28.405-.574.864-1.225 1.194-1.98 5.527-12.654 16.14-18.617 27.379-24.93 3.438-1.93 6.993-3.927 10.346-6.114 5.01-3.267 11.408-7.885 16.448-14.645a46845 46845 0 0 1 40.632-54.392q11.464-15.328 22.92-30.66c2.698-3.61 6.605-5.703 10.719-5.739h.109c3.966 0 7.727 1.922 10.335 5.286 1.35 1.742.93 2.637-.485 4.968-.213.353-.428.708-.633 1.07-5.33 9.402-10.602 19.055-15.7 28.392-11.841 21.69-24.086 44.118-37.898 64.865-11.776 17.686-27.386 35.52-53.68 33.784-6.771-.45-13.632.607-20.27 1.628m-49.985-32.897.42-.325c39.617-31.075 75.174-67.898 109.56-103.509l2.832-2.923c1.785-1.83 3.629-3.725 5.378-5.678 6.163-6.887 9.558-10.68 12.76-11.218 3.19-.53 7.402 1.786 15.789 6.413l.52.286c2.226 1.228 3.406 2.29 3.605 3.246.199.951-.447 2.381-1.976 4.37-4.577 5.953-9.308 11.962-13.883 17.773-12.58 15.976-25.586 32.497-36.926 49.814-13.576 20.73-32.278 33.748-50.48 44.74-5.765 3.48-5.943 3.554-8.865 3.412l-9.926-.802a5553 5553 0 0 1-27.108-2.226 20 20 0 0 0-1.243-.052c-2.123-.043-2.146-.192-2.27-1.015-.105-.7.36-1.19 1.813-2.306m-61.448-28.005c1.707-1.525 3.396-3.074 5.086-4.622 9.012-8.26 17.526-16.062 28.54-20.716 23.427-9.9 42.796-26.37 61.528-42.299 5.178-4.402 10.532-8.955 15.877-13.287 14.874-12.053 30.587-25.314 49.45-41.736 2.19-1.906 3.77-2.77 5.078-2.77q.105 0 .209.008c1.342.096 2.86 1.178 4.777 3.405l.563.652c6.39 7.42 9.912 11.507 9.813 14.684-.1 3.216-3.892 7.103-10.78 14.16l-10.104 10.364c-22.94 23.534-46.658 47.87-70.597 71.183-16.123 15.701-34.352 18.705-58.312 21.172l-30.227-5.232c-.411-.07-.843-.12-1.28-.172-2.18-.252-2.434-.45-2.571-1.192-.161-.866.356-1.457 1.989-2.792.33-.27.657-.538.96-.81m82.76-110.432c10.547-5.048 21.453-10.267 32.313-14.984l2.852-1.237c8.899-3.858 18.102-7.849 26.977-12.212 6.908-3.396 9.609-.782 11.192 1.88.663 1.114.913 2.021.74 2.695-.296 1.165-1.954 2.15-3.557 3.1-.926.55-1.884 1.118-2.674 1.782-6.81 5.71-13.593 11.457-20.377 17.204-21.122 17.892-42.964 36.393-65.221 53.467-23.632 18.127-45.608 32.84-75.183 29.33l-.484-.058-.455.172c-14.77 5.58-27.767-.644-41.53-7.234-4.024-1.928-8.186-3.922-12.384-5.592-2.373-.943-2.64-1.697-2.643-1.697.018-.18.56-1.084 2.9-2.224 7.326-3.57 14.602-7.496 21.639-11.293 16.537-8.924 33.636-18.15 52.33-23.219 25.675-6.962 50.02-18.613 73.565-29.88m-21.861-29.602c10.043-2.707 20.426-5.506 30.713-7.614 14.102-2.889 26.266-5.928 37.189-9.292 1.209-.372 2.294-.534 3.265-.534 4.26 0 6.34 3.118 7.265 5.256.524 1.211.67 2.16.415 2.671-.447.895-2.491 1.388-4.135 1.784-1.19.287-2.312.557-3.281 1.013-9.695 4.563-19.645 9.022-29.267 13.334-14.986 6.716-30.483 13.661-45.424 21.18-23.321 11.735-47.507 19.426-74.432 27.563-7.705 2.33-15.516 1.898-23.784 1.442-4.828-.266-9.82-.542-14.764-.208-1.693-.002-3.453-.088-5.155-.17-3.934-.196-8.002-.394-11.954.366-13.392 2.573-23.738-3.594-34.69-10.123-3.092-1.844-6.29-3.75-9.538-5.428-2.163-1.116-2.024-1.889-1.965-2.219.104-.584.503-1.206 2.702-1.812 8.95-2.464 17.972-5.212 26.699-7.868 28.007-8.529 56.968-17.349 87.25-17.848 21.577-.356 42.58-6.018 62.89-11.493m42.627-58.403c-.438 1.791-.963 1.905-3.702 1.726a28 28 0 0 0-1.6-.07c-6.123-.039-12.31-.05-18.437-.05-3.49 0-6.958.003-10.384.007l-10.422.006-.066.001c-27.292.904-54.576-3.688-80.957-8.125-7.96-1.339-16.191-2.723-24.306-3.937-6.558-.982-12.061-4.998-17.886-9.248-4.067-2.968-8.274-6.037-12.93-8.04-18.575-7.987-26.782-23.988-35.47-40.928-2.775-5.412-5.646-11.009-8.86-16.253-1.221-1.993-.707-2.379-.46-2.565.358-.272.702-.228 2.278.576.286.145.572.29.856.423 4.567 2.13 9.24 4.213 13.76 6.228 9.269 4.131 18.852 8.404 27.91 13.257 31.69 16.98 66.527 23.61 100.218 30.022 4.309.82 8.618 1.64 12.922 2.482 13.312 2.601 26.582 6.427 39.416 10.128 5.49 1.583 11.168 3.22 16.784 4.743 5.23 1.42 12.647 14.252 11.336 19.617m120.494 25.42c-3.53-.728-6.108-3.72-8.837-6.889-1.471-1.709-2.994-3.476-4.732-4.95-.452-.384-.54-.97-.205-1.393.318-.402.654-.57 1.265-.57.43 0 .997.083 1.789.226.47.085.938.168 1.395.221l.186.021c16.198 1.877 32.397 3.754 48.593 5.651 4.54.532 9.078 1.084 14.313 1.722l3.383.411c-19.015 12.01-37.898 9.517-57.15 5.55m88.425 13.882c-.448.206-.863.396-1.214.574-15.06 7.604-26.694 10.561-34.585 8.796l-.308-.045a90 90 0 0 0-5.762-.17c-1.973 0-3.853.05-5.61.094-8.888.231-15.317.398-20.653-5.317-.465-.498-1-.87-1.473-1.197-.312-.216-.835-.58-.912-.718 0 0-.01-.1.083-.348.433-1.156 1.627-1.018 2.299-.836 15.526 4.24 28.905-1.65 41.845-7.348 2.79-1.229 5.678-2.5 8.515-3.633 8.168-3.26 13.434 1.237 19.01 5.996.586.5 1.166.995 1.744 1.476.344.286.499.485.565.59-.452.67-2.68 1.691-3.544 2.086m29.19 22.534c-.283.163-.567.327-.843.501-14.943 9.39-30.943 13.931-51.85 14.715-3.215-.807-7.215-4.285-11.444-7.963-2.648-2.303-5.387-4.685-8.346-6.819-.323-.233-.63-.58-.521-.859.095-.243.507-.557 1.277-.557q.173 0 .374.023c21.11 2.48 39.666-5.317 56.824-13.504.625-.168 3.426.597 8.123 4.05 5.377 3.953 8.14 7.668 8.176 8.627-.027.69-.38.984-1.77 1.786m19.307 17.304c-.154.69-1.182 1.514-2.896 2.32-3.165 1.49-6.273 3.226-9.278 4.906-9.077 5.075-17.652 9.87-28.262 8.75l-.208-.01c-.851 0-1.715.052-2.58.106-1.708.106-3.323.207-4.692-.155-5.595-1.482-9.311-3.14-9.27-6.42.022-1.645 1.143-2.076 5.714-2.198.956-.025 1.859-.049 2.705-.144 11.393-1.285 22.629-5.35 35.364-12.795 2.139-1.25 3.9-1.888 5.477-1.888 2.075 0 3.833 1.102 5.715 3.366 1.642 1.977 2.386 3.376 2.21 4.162m20.718 23.134c-2.482 1.438-4.945 3.006-7.327 4.523-9.567 6.091-18.603 11.837-30.3 10.91h-.018c-5.768-.405-10.176-4.09-14.842-7.99-.702-.587-1.4-1.17-2.1-1.74-.494-.402-.967-.97-.815-1.363.154-.398.919-.946 2.102-.946q.105 0 .216.006c10.394.578 18.744-4.119 26.817-8.654 3.014-1.693 6.13-3.442 9.26-4.85 3.009-1.355 7.302-1.077 11.207.723 3.469 1.6 6.006 4.146 6.786 6.814.349 1.196.055 1.964-.986 2.567m20.537 23.62c-.24.148-.48.296-.711.447l-1.905 1.238c-7.645 4.985-14.866 9.693-21.084 7.958l-.421-.07c-2.55-.147-4.711-.237-6.613-.315-3.61-.15-6.216-.258-8.75-.645-1.763-.269-7.53-1.417-7.704-4.903-.04-.794.098-1.16.186-1.252.255-.264 1.25-.305 2.132-.305.21 0 .414.003.6.005 1.513.017 3.233.036 4.735-.74 7.834-4.047 15.934-8.232 23.767-12.64 2.784-1.57 6.98-1.456 10.953.297 3.816 1.684 6.502 4.451 7.184 7.403.383 1.656-.265 2.217-2.37 3.521m18.39 19.812c-1.043.734-2.121 1.493-2.957 2.452-4.834 5.543-10.96 5.18-18.715 4.721-.88-.052-1.77-.105-2.67-.149-1.654-.222-3.357-.152-5.16-.078-3.755.153-7.636.311-10.952-2.383a29 29 0 0 0-.72-.559c-1.338-1.02-1.667-1.374-1.603-2.102.053-.595.265-.752.334-.803.28-.208.833-.27 1.37-.157 12.184 2.587 21.64-4.115 29.982-10.03l.353-.25c5.326-3.772 7.652-1.468 11.64 3.29l.529.628c.938 1.11 1.41 2.062 1.332 2.68-.113.875-1.461 1.823-2.763 2.74m23.45 19.27c-.22 1.625-2.432 3.051-4.383 4.31-.951.613-1.85 1.192-2.601 1.831-5.957 5.055-24.013 4.595-31.157-.796-.655-.494-1.406-.92-2.133-1.333-2.461-1.398-3.01-1.958-2.79-2.855.212-.857.307-1.243 1.187-1.243.437 0 1.067.095 1.999.275 1 .194 2.117.41 3.222.334 8.879 2.56 14.55-3.359 19.118-8.13l.827-.863c2.266-2.347 4.26-3.493 5.93-3.436 2.424.097 4.59 2.734 6.883 5.527a79 79 0 0 0 1.902 2.256c1.013 1.138 2.18 2.776 1.997 4.122m21.614 21.875c-.524 3.608-3.966 7.517-9.314 7.653-2.253.058-4.495.035-5.833.02l-.911-.007-.312.025c-.74.117-1.456.238-2.148.355-4.721.8-7.47 1.183-9.09-.259-1.428-1.27-3.233-2.17-4.98-3.04-3.724-1.857-5.33-2.893-5.074-5.023.033-.276.1-.479.182-.543.203-.159.644-.216 1.186-.216.822 0 1.874.131 2.678.23 1.75.216 3.558.441 5.193.075 4.408-.982 7.268-3.789 10.034-6.503a84 84 0 0 1 1.697-1.635l.545-.51c1.633-1.532 3.474-3.247 4.908-3.207.238.01.963.042 2.07 1.28 1.154 1.29 2.568 2.428 3.935 3.53 3.544 2.853 5.665 4.8 5.234 7.775m20.48 21.933c-.485.844-1.811 1.592-3.463 1.953-2.574.563-5.262.648-8.107.74q-.835.024-1.67.056l-.01-.283-4.312-.006q-1.203-.005-2.404-.005-1.506-.001-3.011.018c-6.594.091-7.577-1.544-7.631-3.155-.02-.593.1-.767.1-.767.349-.334 2.362-.124 3.22-.035.996.103 2.027.211 2.965.136 4.018-.316 6.34-2.802 8.39-4.994.327-.35.656-.703.993-1.047.6-.612 1.155-1.327 1.693-2.018 2.149-2.765 2.753-3.016 3.708-2.453 3.652 2.163 8.046 5.266 9.608 10.101.304.94.106 1.454-.07 1.76m20.073 33.935c-.242.892-.481 1.768-.694 2.623-.654 2.612-2.384 2.823-6.281 2.321-1.357-.175-2.441-.313-3.401-.04-6.878 1.436-8.972.443-9.607-.28-.623-.709-1.041-2.478.503-6.886.818-2.338 1.264-4.773 1.696-7.126.274-1.494.533-2.904.88-4.298l.263-1.074c1.336-5.495 2.519-9.147 6.612-9.816a5 5 0 0 1 .809-.067c2.477 0 4.089 2.038 6.32 5.246.648.933 1.319 1.898 2.035 2.755 4.075 4.88 2.444 10.86.865 16.642m-46.432-.059c-1.216-1.303-1.67-3.137-1.386-5.608.078-.685.142-1.41.207-2.156.31-3.594.666-7.669 3.158-9.544 1.128-.848 2.72-1.272 4.758-1.272q1.784 0 4.015.433c.66.167 1.42.175 2.296.184 1.316.013 3.306.032 3.9.832.449.604.405 1.99-.121 3.8-.587 2.021-.64 4.36-.688 6.621-.141 6.45-.677 9.097-5.49 9.315-6.515.304-9.386-1.253-10.65-2.605m-214.2-179.514c-5.64 3.013-11.27 6.046-16.901 9.078-9.437 5.084-19.196 10.341-28.841 15.404-2.4 1.26-4.462.574-6.125-2.044-1.135-1.787-2.514-3.66-4.218-5.728l-.15-.18c-4.78-5.794-8.906-10.797-8.405-12.283.509-1.506 6.678-2.95 14.488-4.779l.455-.107c9.08-2.127 18.25-4.507 27.12-6.807 3.929-1.019 7.857-2.038 11.789-3.039 4.168.354 7.064 3.193 10.125 6.192a79 79 0 0 0 2.34 2.234c.179.161.238.273.244.293.002.218-.548 1.034-1.92 1.766m28.168 24.288a4085 4085 0 0 1-31.686 21.555c-.626.422-1.412.732-2.406 1.125q-.462.182-.958.383a1014 1014 0 0 0-7.382-3.462c-6.881-3.208-13.998-6.525-20.78-10.218-.485-.265-.635-.483-.634-.533 0-.354.688-1.35 2.05-2.077l.697-.37c14.405-7.675 29.3-15.612 44.015-23.119a1 1 0 0 1 .238-.024c1.029 0 4.168.948 9.305 4.258 5.992 3.86 9.572 7.643 9.756 8.78.235 1.448-.345 2.417-2.215 3.702m-12.375 33.885c-2.198-1.496-4.47-3.043-6.991-3.729-.975-.266-1.46-.66-1.507-.936-.064-.362.336-1.248 1.698-2.205 2.319-1.629 4.632-3.268 6.944-4.908 7.379-5.23 15.008-10.638 22.707-15.592.493-.317 1.178-.47 1.995-.47 1.799 0 4.236.741 6.653 2.097 3.673 2.062 5.677 4.6 5.774 6.032l-.01.06c-2.653 2.124-5.295 4.337-7.854 6.481-6.631 5.552-13.488 11.294-20.824 15.741-2.421 1.464-4.84-.022-8.585-2.57m-38.645-79.13c-.061.638-.272 1.131-2.444 1.653l-.553.133c-15.548 3.74-31.627 7.605-47.424 11.483-2.961.73-5.157-.086-8.094-3.006-2.905-2.888-5.98-5.657-8.954-8.335-2.846-2.563-5.79-5.214-8.546-7.936-.833-.824-1.866-1.49-2.866-2.134-2.95-1.9-3.396-2.523-2.815-3.923.125-.299.2-.483.529-.483.32 0 .882.176 1.964.594 1.236.475 2.609 1.008 3.935.642l16.367 1.66c16.336 1.66 32.168 3.266 48.004 4.831l.38.037c3.065.3 5.96.584 8.386 2.187 1.694 1.12 2.212 1.751 2.13 2.596m-18.967-18.279c-5.988-.595-11.977-1.18-17.967-1.765-14.638-1.429-29.774-2.907-44.641-4.514-17.274-1.867-25.076-9.137-28.785-26.82-.737-3.508-.146-4.102-.14-4.107.003-.003.164-.14.768-.14.563 0 1.512.12 3.079.582 11.175 3.297 22.553 6.58 33.558 9.753 12.257 3.535 24.93 7.191 37.367 10.88 5.793 1.72 9.374 6.24 13.166 11.027 1.212 1.53 2.459 3.104 3.79 4.592Zm208.89 166.988c2.805.245 14.995 11.205 15.527 13.933-.904 5.494-2.271 11.001-5.964 14.402-4.027-.934-18.12-11.444-19.53-14.048-.09-2.824 7.583-13.789 9.968-14.287m-53.293-40.796c-.94 1.333-1.753 2.483-2.65 3.458-1.212 1.317-2.562 2.606-3.87 3.852-2.518 2.404-5.123 4.89-7.108 7.884-1.521 2.293-2.997 3.567-4.386 3.784-2.056.33-4.423-1.57-6.93-3.574q-.634-.51-1.273-1.01c-2.1-1.63-2.338-2.59-2.344-2.929-.016-.917 1.424-2.118 2.693-3.178.942-.786 1.916-1.599 2.628-2.528 2.347-3.066 5.106-5.949 7.773-8.739 1.164-1.218 2.329-2.435 3.469-3.674 1.014-1.103 1.842-1.49 2.556-1.49.63 0 1.172.304 1.673.684 2.167 1.643 4.288 3.415 6.535 5.291q.854.714 1.742 1.452zm10.178 7.356c4.606 1.746 8.632 5.08 11.697 9.69-.755 3.49-11.523 15.887-15.135 17.555-1.37-.916-2.876-1.667-4.341-2.397-3.237-1.615-6.306-3.146-8.182-6.322 1.685-3.445 12.828-16.38 15.96-18.526m-33.468-19.498a37 37 0 0 0-1.551 1.471c-1.394 1.424-2.877 2.831-4.311 4.192-1.8 1.707-3.662 3.474-5.411 5.333-2.721 2.891-5.687 4.28-8.525 4.03-2.925-.26-5.662-2.223-7.915-5.677-.915-1.403-.806-1.936.686-3.35 5.38-5.1 10.932-10.209 16.3-15.147l1.898-1.746c.776-.714 1.5-1.157 2.376-1.157 1.008 0 2.216.587 3.93 2.027.72.604 1.483 1.103 2.222 1.587 2.072 1.354 3.287 2.242 3.502 4.227-.411 1.665-1.71 2.85-3.201 4.21m-26.175-27.672c1.032 0 2.03.487 3.1 1.461.729.663 1.514 1.214 2.273 1.747 1.714 1.205 3.112 2.187 3.78 4.162l-.25.301c-.716.864-1.458 1.757-2.276 2.525a634 634 0 0 1-6.271 5.773c-3.676 3.352-7.477 6.818-11.083 10.401-2.093 2.078-3.497 2.198-6.534.558-4.093-2.21-9.188-4.962-9.283-6.168-.095-1.21 4.647-4.83 8.109-7.476 4.608-3.52 9.957-7.625 15.113-11.809 1.212-.983 2.284-1.475 3.322-1.475m79.627 88.144c-3.285.402-8.52-2.48-9.683-8.068.544-2.626 9.535-13.345 12.729-15.35.995.763 2.137 1.446 3.249 2.112 3.989 2.387 5.804 3.788 5.219 6.327-1.202 5.22-4.296 14.108-11.514 14.98m44.877 24.961c.099-.614.187-1.309.279-2.049.372-2.96.88-7.016 2.764-8.36.466-.332 1.037-.497 1.729-.497q.546 0 1.196.136c3.443.721 9.653 4.102 9.07 11.776-1.162 1.685-1.38 3.928-1.575 5.932-.14 1.43-.33 3.387-.916 3.828-.232.174-.768.2-1.465.073-3.747-.692-12.326-3.133-11.082-10.839M302.05 548.355l.533-.062 5.844 11.376a18943 18943 0 0 1 15.954 31.095c2.539 4.967 5.7 11.148 12.756 14.193 26.678 11.51 53.39 24.228 79.223 36.528 32.514 15.48 66.134 31.488 100.069 45.272 1.816.738 3.629 1.513 5.446 2.288 6.169 2.636 12.549 5.361 19.178 6.674 10.029 1.988 16.118 8.816 22.565 16.045 1.974 2.214 4.015 4.502 6.17 6.631.535.53 1.728 1.83 1.249 2.467-.598.796-1.262.795-3.412.373-.701-.138-1.427-.28-2.177-.33-55.25-3.652-99.812-11.728-140.245-25.418-12.741-4.314-25.898-7.959-38.622-11.486-10.697-2.963-21.76-6.028-32.487-9.468-12.67-4.062-23.08-13.917-30.942-29.29-6.846-13.388-12.623-27.304-19.19-44.078-4.29-10.954-3.428-21.918-2.517-33.526.495-6.305 1.006-12.805.605-19.284M154.178 731.788c3.135.022 6.27.017 9.404.011l3.863-.004c35.574 7.444 70.61-1.092 101.53-8.625 7.904-1.923 15.423-.576 23.383.85 2.277.407 4.63.83 6.966 1.161 27.513 3.905 55.552 3.935 82.667 3.965l8.26.013c10.484.027 15.329 5.81 20.94 12.506.624.744 1.25 1.491 1.889 2.235.773.9.849 1.385.812 1.496-.012.038-.344.944-4.01 1.82-6.931 1.653-13.871 3.271-20.811 4.89-18.98 4.424-38.606 9-57.726 14.285-18.315 5.061-37.39 6.623-55.837 8.134-8.892.728-18.087 1.48-27.11 2.615-6.776.852-13.267-1.089-20.14-3.144-3.213-.96-6.534-1.954-9.878-2.632-6.082-1.232-12.238-2.748-18.19-4.215-6.167-1.52-12.545-3.09-18.892-4.36-10.644-2.13-15.785-10.093-21.227-18.523-2.488-3.853-5.06-7.837-8.2-11.232-.235-.255-.33-.435-.37-.435q-.004 0-.01.005c.15-.245 1.115-.799 2.687-.816m282.082 285.007c-.042-.11-.181-.8 1.173-3.574 9.528-19.524 19.38-39.714 37.996-53.564 11.144-8.292 17.32-20.487 23.294-32.28 2.332-4.604 4.743-9.363 7.397-13.763 12.384-20.529 24.02-41.913 33.77-60.124 2.114-3.947 4.037-6.01 6.052-6.498 1.784-.432 4.005.297 6.798 2.226 2.616 1.808 5.517 3.102 8.323 4.354.674.301 1.346.6 2.013.907 3.747 1.721 4.413 3.541 2.743 7.487-4.85 11.467-9.556 23.235-14.106 34.617-10.02 25.058-20.38 50.97-32.882 75.12-8.722 16.847-23.616 39.364-52.127 40.398-6.62.24-13.234 1.876-19.068 3.32-2.51.622-4.88 1.207-7.13 1.662-3.55.306-4.235-.288-4.246-.288m281.949-24.466c.12 2.59.247 5.267.248 7.853-.11 2.596-.21 5.19-.311 7.781-.865 22.372-1.683 43.503-8.325 64.847-4.13 13.268-13.344 19.31-23.1 25.704-2.601 1.705-5.291 3.47-7.875 5.375-.678.5-1.173.63-1.363.527-.404-.21-.975-1.355-.921-3.136.103-3.407.01-6.862-.08-10.204-.292-10.815-.568-21.03 5.197-30.614 12.999-21.616 13.368-46.13 13.725-69.838l.009-.59c.093-6.18.258-12.468.417-18.548.219-8.362.445-17.01.49-25.526.026-4.787.845-5.649 1.095-5.799.104-.063.27-.114.538-.114.752 0 2.295.402 5.46 2.067 13.524 7.114 18.26 17.078 15.35 32.311-1.118 5.86-.831 11.983-.554 17.904m-2.523 110.515c-.858-7.235.832-16.788 5.023-28.393 8.14-22.543 8.829-45.675 8.519-63.309-.175-9.983.1-20.165.368-30.012.137-5.026.273-10.053.354-15.079.062-3.869.63-4.518.709-4.59 0 0 .02-.005.057-.005.22 0 1.096.11 3.078 1.555.725.53 1.719 1.254 2.948 1.391 21.183 2.378 25.389 16.618 25.188 37.267-.035 3.513 0 6.671.797 9.744 7.764 29.943-2.07 57.203-12.806 82.556-4.195 9.906-12.926 15.022-22.17 20.438-3.811 2.232-7.752 4.543-11.32 7.205q-.018.015-.035.026c-.274-.315-.67-1.207-.681-2.293-.036-3.144-.031-6.288-.023-10.178l.008-6.088Zm57.722-13.9c-1.516-11.07-.274-22.383.925-33.323 1.43-13.044 2.91-26.533-.091-40.136-1.524-6.91-1.847-14.318-2.16-21.484-.131-3.048-.268-6.2-.496-9.294-.061-.837-.19-1.693-.312-2.52-.296-1.988-.602-4.043.158-5.058.443-.592 1.372-.99 2.757-1.182l.293-.04c1.82-.253 3.4-.447 4.779-.447 3.452 0 5.634 1.22 7.14 5.79 4.759 14.45 9.96 29.001 14.989 43.071a3828 3828 0 0 1 7.077 19.912l.053.152c.368 1.045.872 2.478.695 3.197a815 815 0 0 0-1.958 8.19c-5.39 22.888-10.48 44.507-30.466 58.613-1.574 1.111-2.331 1.168-2.45 1.114-.008-.004-.765-.444-.865-4.406-.128-5.115-.1-10.336-.073-15.385.012-2.165.024-4.33.024-6.496Zm70.344-14.72c.162 13.401-7.2 21.213-19.132 29.474-1.208.837-1.984.96-2.278.81-.321-.163-.945-1.066-1.011-3.323-.156-5.414-1.001-10.84-1.817-16.09-1.722-11.064-3.348-21.516.827-32.174 1.516-3.873.155-7.303-1.045-10.33-.283-.713-.565-1.423-.807-2.138l-3.992-11.804c-4.861-14.359-9.888-29.207-14.69-43.857-.212-.649-.457-1.316-.702-1.987-.816-2.22-1.74-4.738-1.003-5.85.319-.482 1.38-1.317 4.896-1.489 6.182-.302 6.515-5.696 6.713-8.92.062-.998.12-1.94.28-2.725.138-.665.192-1.322.245-1.958.159-1.925.316-2.365.933-2.617.168-.069.295-.12.414-.12.299 0 .55.325 1.272 1.532.282.473.566.942.874 1.36a18604 18604 0 0 0 29.214 39.454c3.29 4.435 4.528 8.074 3.974 11.863l-3.224-.043v2.018c0 5.903-.016 11.81-.032 17.713-.038 13.502-.076 27.463.09 41.2M1852.355 720.76c-10.238.053-20.506.573-30.437 1.077-25.075 1.271-48.757 2.474-72.71-3.157-.908-.213-1.835-.249-2.653-.28-2.361-.093-2.763-.219-3.067-1.748-.07-.346-.251-1.267 1.715-1.845 8.05-2.368 14.737-7.146 21.205-11.767 4.474-3.197 9.102-6.503 14.044-8.87 13.65-6.542 23.612-16.74 30.452-31.18 5.73-12.098 12.075-23.895 18.793-36.385 2.984-5.55 6.07-11.289 9.193-17.223l2.72-5.168-5.31 2.431c-7.56 3.46-15.078 6.758-22.35 9.95-16.25 7.13-31.598 13.864-46.531 21.92-25.651 13.84-53.9 19.711-81.218 25.39-6.634 1.38-13.494 2.806-20.224 4.325-3.064.691-3.903.512-4.504-.955-.328-.802-.183-1.195 1.525-2.635.314-.264.619-.522.892-.78 5.466-5.153 8.225-11.754 10.892-18.137 1.307-3.13 2.66-6.368 4.298-9.304 15.008-26.895 20.205-55.298 15.89-86.835-.944-6.89-.687-14.164-.44-21.198.116-3.27.235-6.652.235-9.979v-1.905l-6.25-.275-.584 1.128q-4.764 9.173-9.543 18.34c-8.343 16.014-16.968 32.573-25.29 48.953-2.984 5.875-6.824 9.636-12.451 12.198-30.437 13.861-61.312 28.114-91.171 41.897a43565 43565 0 0 1-39.852 18.38c-.754.347-1.447.828-2.12 1.293-2.09 1.45-2.252 1.288-2.638.892-.842-.857-.97-1.146.933-3.41.54-.643 1.096-1.306 1.52-2.033 1.297-2.226 3.07-4.22 4.95-6.334 3.66-4.119 7.448-8.377 7.766-14.637.513-10.019.41-20.252.304-31.086-.05-4.894-.1-9.99-.1-15.376v-6.06l-3.595 4.88a320 320 0 0 0-4.343 6.067c-2.284 3.247-4.088 5.812-6.112 8.006-2.998 3.245-5.666 6.825-8.244 10.285-6.133 8.23-11.924 16.003-21.95 19.903-29.57 11.507-58.05 23.976-82.01 34.656-3.771 1.68-7.705 3.22-11.51 4.71-10.693 4.187-21.751 8.517-31.13 16.61-27.41 23.648-55.356 47.596-82.385 70.754-24.13 20.676-49.083 42.057-73.57 63.155-31.74 27.347-59.353 39.088-89.543 38.086a810 810 0 0 0-4.286-.128c-16.018-.453-32.581-.92-44.788-11.187-16.093-13.533-31.79-20.368-49.398-21.51-27.362-1.779-53.661-1.59-74.678 19.892-6.052 6.186-13.6 7.415-21.59 8.716-2.477.403-5.038.82-7.553 1.395-35.82 8.172-70.1-.974-101.891-27.19-48.847-40.283-88.727-74.637-125.502-108.113-34.82-31.694-67.29-52.039-102.183-64.023-12.09-4.153-24.053-9.537-35.624-14.744-8.295-3.733-16.872-7.593-25.472-10.992-9.006-3.559-16.12-9.445-23.063-19.085a297 297 0 0 1-3.47-4.96c-4.812-6.98-9.787-14.198-17.695-20.612l-3.685-2.989.448 4.723c.636 6.704.316 13.585.006 20.24-.811 17.408-1.646 35.365 15.104 49.933-.594.021-1.08.032-1.201.007-11.933-5.414-24.04-10.993-35.746-16.388-26.551-12.235-54.005-24.886-81.358-36.49-14.833-6.294-29.406-14.788-35.547-34.155-1.063-3.35-2.867-6.387-4.61-9.323-.82-1.38-1.668-2.808-2.405-4.218a31859 31859 0 0 1-15.995-30.684l-7.054-13.543-7.07 1.087v1.71c0 5.711-.01 11.424-.018 17.136-.024 14.003-.048 28.482.075 42.728.022 2.417-.224 4.84-.483 7.403-.58 5.71-1.177 11.613 1.357 17.435 2.959 6.797 6.056 13.66 9.05 20.297 4.912 10.885 9.99 22.14 14.58 33.368 1.126 2.753 3.495 5.233 5.584 7.422 3.177 3.328 4.454 4.98 3.623 5.971-2.038 2.432-5.832 1.18-11.386-1.006-2.167-.854-4.408-1.735-6.51-2.194-5.96-1.303-12.081-2.246-18.002-3.157-11.814-1.818-24.03-3.698-35.167-8.522-20.765-8.995-41.698-18.612-61.942-27.914-8.427-3.87-16.853-7.742-25.292-11.582-1.292-.588-2.552-1.318-3.887-2.09-3.713-2.153-7.922-4.592-13.32-3.796l-2.761.405 22.965 44.412c8.957 17.331 18.218 35.251 37.98 44.512 8.446 3.957 16.39 9.342 24.802 15.043 2.848 1.93 5.765 3.907 8.787 5.888-22.748 6.421-45.615 5.106-67.77 3.83-13.073-.752-26.593-1.528-40.08-.752l-3.525.204 1.998 2.911c1.88 2.741 3.718 5.301 5.497 7.776 3.619 5.037 7.037 9.795 9.83 14.78 11.112 19.826 27.07 30.585 48.79 32.891 4.58.486 9.243 1.736 13.754 2.944 1.525.41 3.05.82 4.576 1.201.988.248 2.057.32 3.09.39 3.336.224 3.714.536 3.773 1.663.059 1.12-.073 1.46-3.411 1.862-1.003.121-2.041.246-3.001.541-15.718 4.823-31.421 9.69-48.331 14.93l-21.405 6.632 3.688 2.304c3.979 2.485 7.679 4.837 11.202 7.076 7.886 5.012 14.696 9.34 21.816 13.404 1.8 1.028 3.516 2.226 5.332 3.494 4.847 3.384 9.858 6.882 16.559 7.008l8.417.16c9.534.183 19.068.365 28.603.521 1.138.032 2.309-.2 3.448-.414 1.376-.256 3.088-.575 3.7-.15.299.205.45.753.525 1.178.213 1.211-.28 1.746-3.947 2.96-1.11.368-2.258.748-3.246 1.278-3.57 1.92-7.3 3.76-10.908 5.54-9.635 4.751-19.6 9.666-29.1 17.196l-2.783 2.207L200 873.4c7.623 2.796 15.076 6.325 22.284 9.738 19.346 9.16 39.346 18.632 62.892 13.551a28 28 0 0 0 1.729-.458c3.926-1.128 4.42-.749 4.826.623.315 1.066-.178 1.658-2.78 3.333-.957.617-1.947 1.255-2.761 2.047-2.411 2.348-5.071 4.426-7.886 6.626-5.302 4.143-10.784 8.428-15.381 15.087l-1.862 2.696 3.25.411c6.946.877 13.839 2.007 20.504 3.098 19.63 3.217 38.25 6.268 58.52 3.47-2.918 3.505-6.297 5.922-9.59 8.277-3.577 2.56-6.957 4.977-9.448 8.548l-.673.963.518 1.053c2.052 4.181 5.456 4.155 7.696 4.151.392-.002.777-.004 1.15.016l7.945.472c12.463.744 25.35 1.514 38.05 1.895 4.739.142 5.497 1.141 5.6 1.34.193.37.342 1.686-2.431 5.933-1.102 1.687-2.316 3.301-3.601 5.01-3.62 4.812-7.361 9.788-9.07 17.007l-.66 2.782 2.839-.347c5.15-.63 10.237-1.26 15.273-1.882 14.888-1.843 28.95-3.584 43.23-5.166.977-.108 1.967-.366 2.924-.615 3.329-.868 4.439-.88 5.373.711.755 1.287.156 2.357-1.5 4.67-.623.873-1.27 1.775-1.744 2.753-4.5 9.268-9.146 18.574-14.067 28.43a8632 8632 0 0 0-5.772 11.57l-1.84 3.692 4.037-.858c5.51-1.172 10.729-2.293 15.753-3.372 10.28-2.207 19.99-4.292 29.579-6.252 10.076-2.058 17.355-3.543 19.065-1.817 1.755 1.775.18 9.077-2.207 20.125q-.061.3-.101.602c-.02.125-.027.25-.065.37-1.2 3.87-2.1 7.515.028 9.597 2.109 2.062 5.88 1.176 9.29.036 10.98-3.667 22.418-6.636 33.48-9.506 3.95-1.024 7.9-2.05 11.839-3.107 3.83-1.029 4.414-.474 4.438-.45.006.006.62.788-.572 4.616-.473 1.52-.982 3.038-1.494 4.567-2.292 6.844-4.662 13.92-4.504 22.471l.055 2.945 2.712-1.147c4.188-1.773 8.295-3.5 12.344-5.203 9.602-4.04 18.672-7.853 27.804-11.827 4.324-1.88 5.442-1.437 5.68-1.259.263.196 1.07 1.247.404 6.464-.356 2.79-.834 5.531-1.34 8.435-1.326 7.608-2.697 15.477-1.687 23.97l.33 2.794 2.526-1.243a5531 5531 0 0 1 10.353-5.08c7.934-3.885 15.428-7.553 22.924-11.35 3.318-1.68 4.182-1.279 4.185-1.279.007.006.665.77-.138 4.744-1.007 4.973-1.862 9.937-2.853 15.686-.464 2.696-.957 5.558-1.507 8.655l-.736 4.153 3.675-2.07c4.698-2.646 9.204-5.167 13.57-7.609 9.995-5.59 19.437-10.873 28.696-16.276 3.734-2.18 4.93-1.82 5.206-1.657.287.167 1.216 1.074 1.127 5.655-.137 7.064-.11 13.968-.078 21.961.014 3.588.029 7.34.029 11.332v3.634l13.575-8.665c6.82-4.35 12.949-8.26 19.076-12.176.68-.435 1.31-.943 1.92-1.434 2.079-1.677 2.899-2.109 3.99-1.55 1.143.587 1.247 1.462 1.009 4.168-.072.825-.148 1.678-.117 2.533.108 3.087 0 6.173-.116 9.44-.257 7.323-.524 14.897 1.59 23.658l.899 3.726 2.532-2.877c6.527-7.415 14.726-12.66 22.655-17.732 10.82-6.923 21.968-14.053 29.174-26.78.867 5.311.99 10.577 1.12 16.071.175 7.401.356 15.053 2.515 22.956l1.049 3.842 2.444-3.144c5.01-6.448 11.236-11.562 17.258-16.507 8.974-7.373 18.215-14.964 23.044-26.889 2.044 7.044 2.406 13.73 2.559 19.618.075 2.838.486 6.25 3.026 7.441 2.52 1.18 5.384-.665 7.595-2.408 2.602-2.053 5.35-4.046 8.01-5.974 4.569-3.315 9.295-6.74 13.55-10.657 3.084-2.838 3.958-2.79 4.104-2.757.146.038.94.433 2.269 4.495 5.065 15.482 6.163 31.87 7.225 47.72.375 5.587.76 11.365 1.317 17.041.242 2.467-.854 3.822-4.51 5.577a4632 4632 0 0 1-8.104 3.87c-13.045 6.221-26.535 12.652-39.483 19.664-16.338 8.85-38.327 19.231-63.574 20.993-13.307.927-26.357 2.805-40.173 4.795-6.106.878-12.42 1.788-18.81 2.616l-3.028.393 9.068 14.986c5.453 9.017 10.628 17.573 15.82 26.116.66 1.09 1.299 2.201 1.937 3.312 4.05 7.058 8.642 15.058 19.508 15.931 1.002.081 1.91.914 2.02 1.577.06.348-.25.675-.92.97-5.027 2.222-7.55 4.514-7.937 7.212-.494 3.433 2.52 5.982 5.438 8.447.843.713 1.639 1.385 2.335 2.062 5.937 5.776 10.96 10.505 15.808 14.881 1.224 1.106 2.44 2.284 3.616 3.426 5.324 5.162 10.828 10.501 19.579 11.742 1.814.257 3.798.314 5.899.374 6.729.19 11.188.591 11.842 4.276.338 1.911-6.141 3.746-10.012 4.842-2.287.648-4.448 1.261-6.278 1.991-3.01 1.203-5.847 2.674-6.224 5.277-.386 2.675 2.06 4.848 4.82 7.024a682 682 0 0 0 4.187 3.267c6.84 5.307 13.914 10.795 19.588 17.258 10.8 12.302 23.836 16.718 39.85 13.501.677-.137 1.367-.339 2.097-.554 3.403-1 4.364-.943 4.91.284.837 1.885-.052 2.8-3.34 4.77-.691.413-1.344.804-1.927 1.235-2.713 2.003-6.28 5.094-5.94 8.785.336 3.64 4.235 6.001 8.004 7.832l2.534 1.23c10.453 5.068 21.26 10.31 31.399 16.278 8.494 5.001 18.975 9.547 32.305 5.352.593-.186 1.224-.39 1.883-.605 4.616-1.496 13.209-4.283 14.815-1.737 1.638 2.595-.273 5.22-3.526 9.292-1.871 2.341-3.807 4.761-4.804 7.461-.166.451-.548.958-.953 1.496-.243.322-.485.646-.705.976-1.996 2.998-1.78 5.154-1.245 6.436.507 1.22 1.777 2.802 4.95 3.426 2.143.421 4.292.9 6.44 1.38 6.327 1.413 12.745 2.845 19.074 2.845 8.164 0 16.179-2.385 23.642-10.276.734-.777 1.828-1.366 2.984-1.992 1.179-.638 2.398-1.297 3.479-2.259 19.204-17.085 35.537-17.23 51.4-.465 1.158 1.222 2.677 1.913 4.015 2.522 1.084.493 2.106.958 2.744 1.6 14.39 14.455 29.928 10.422 44.957 6.523 3.225-.838 6.56-1.705 9.853-2.379l2.8-.577-1.511-2.427a1997 1997 0 0 1-3.39-5.476c-2.55-4.128-4.957-8.027-7.437-11.838-.46-.705-.995-1.342-1.514-1.958-1.733-2.059-2.111-2.793-1.47-4.032.717-1.389 1.046-1.444 3.54-.567 1.125.395 2.405.868 3.736.806 3.752-.096 7.477.83 11.43 1.814 6.8 1.698 13.834 3.446 21.154-.236 8.357-4.203 16.749-8.67 24.863-12.993 7.219-3.842 14.684-7.817 22.082-11.583 2.409-1.225 5.204-2.989 5.454-5.772.249-2.77-2.224-4.995-4.105-6.427-1.03-.783-1.98-1.715-2.988-2.7a61 61 0 0 0-1.896-1.802q-.347-.311-.714-.625c-2.188-1.888-2.524-2.496-1.998-3.618.453-.966 1.106-1.673 4.5-.58 22.623 7.283 38.025-5.828 47.644-16.32 2.018-2.203 4.224-4.332 6.358-6.39 1.1-1.06 2.198-2.12 3.28-3.195 7.478-7.433 10.892-10.826 10.16-14.43-.728-3.588-5.11-5.349-14.712-9.205-.596-.239-1.248-.443-1.91-.648-3.017-.93-3.392-1.35-3.286-2.534.09-1.006.417-1.306 3.196-1.714.868-.129 1.764-.26 2.628-.53 2.887-.907 5.984-1.163 9.264-1.436 5.964-.493 12.13-1.003 17.205-5.622 7.602-6.916 14.957-14.344 22.072-21.528 2.66-2.687 5.32-5.373 7.999-8.04l.51-.496c1.424-1.37 3.374-3.248 3.076-5.595-.174-1.376-1.064-2.527-2.643-3.42-5.21-2.946-6.5-4.449-6.816-4.976.824-.589 3.458-1.199 5.086-1.578 1.606-.372 3.267-.758 4.65-1.277 3.027-1.132 5.386-3.09 7.009-5.814a12768 12768 0 0 1 22.177-37.01l8.896-14.816-2.96-.432c-3.601-.525-7.034-1.018-10.352-1.493-6.868-.986-13.355-1.917-19.762-2.917-6.642-1.037-13.471-1.622-20.076-2.188-13.555-1.16-27.571-2.359-40.176-7.564-18.212-7.52-36.205-16.63-53.608-25.44-7.993-4.048-16.26-8.234-24.452-12.216-4.16-2.025-5.962-3.397-5.651-6.179.677-6.068 1.135-12.255 1.579-18.238 1.175-15.85 2.39-32.242 7.796-47.613 1.255-3.569 2.025-4.017 2.23-4.07.156-.04 1.043-.112 3.8 2.366l.799.72c8.094 7.28 16.462 14.808 27.707 19.998l2.584 1.191.235-2.835c.217-2.605.419-5.137.617-7.616.547-6.87 1.065-13.362 1.772-19.795.108-.984.893-2.35 1.742-3.087.134.15.286.393.344.671 2.739 13.132 11.709 20.657 20.385 27.935 3.734 3.131 7.595 6.37 10.804 9.973.335.377.684.807 1.049 1.256 2.042 2.507 5.134 6.297 9.24 4.55 4.27-1.82 3.807-6.183 3.5-9.072-.117-1.103-.23-2.146-.151-2.998.318-3.51.21-7.1.107-10.575-.155-5.176-.314-10.492.864-16.005 8.976 14.685 21.518 23.097 34.733 31.961 6.356 4.262 12.926 8.671 19.07 13.848l3.275 2.76v-4.282c0-4.418.016-8.45.03-12.224.032-7.953.059-14.823-.08-21.657-.1-4.91.859-5.569.969-5.629.04-.023 1.088-.53 5.023 2.187 1.94 1.338 3.897 2.787 5.789 4.187 7.14 5.284 14.523 10.747 24.57 13.41l2.5.661-.008-11.177c-.01-6.64-.018-12.878.03-19.117.008-1.01-.098-2.026-.201-3.006-.318-3.068-.411-4.865 1.419-6.123 1.802-1.246 3.064-.515 5.72 1.581.678.533 1.378 1.086 2.099 1.538l3.007 1.883c11.3 7.09 22.988 14.42 38.567 20.35l5.55 2.112-3.155-5.03c-2.968-4.734-3.613-9.174-4.238-13.466-.474-3.253-.92-6.326-2.3-9.369-1.436-3.167-1.122-4.322-.15-5.159.788-.679 1.442-.545 3.684.74.448.258.889.51 1.32.725a474 474 0 0 1 7.956 4.09c7.925 4.133 16.119 8.407 25.016 11.36l2.255.747.343-2.35c.886-6.06.089-11.654-.683-17.063-.331-2.313-.641-4.498-.831-6.724-.158-1.87-.766-3.766-1.353-5.6-1.254-3.913-1.924-6.399-.005-8.1 2.233-1.98 4.247-1.07 8.316 1.482 1.57.985 3.194 2.004 4.898 2.598 3.834 1.34 7.525 2.992 11.433 4.744 7.057 3.163 14.354 6.43 22.924 7.95l3.16.558-.901-3.08c-.877-2.992-1.686-5.787-2.456-8.444-1.655-5.712-3.085-10.647-4.62-15.646-1.46-4.76-.768-5.752-.615-5.9.09-.088.998-.816 5.286.612 9.605 3.198 20.2 6.367 32.389 9.687 11.92 3.245 17.356 4.725 20.24 1.891 2.894-2.847 1.465-8.437-1.665-20.686-.767-3.004-2.364-9.255-1.358-10.297.959-.993 6.87.295 9.396.845q4.322.944 8.648 1.904c15.084 3.343 30.68 6.798 47.28 8.878l3.66.46-1.624-3.312a2340 2340 0 0 1-6.11-12.58c-4.655-9.635-9.051-18.734-13.798-27.737-2.265-4.297-1.666-5.405-1.59-5.517.117-.17.913-.993 5.315-.535 1.387.145 2.769.31 4.154.473 1.212.144 2.425.288 3.639.42 13.474 1.457 26.95 2.91 41.303 4.457l16.089 1.735-2.16-3.47c-1.58-2.539-3.021-4.91-4.387-7.156-2.911-4.787-5.426-8.92-8.216-12.96-3.068-4.44-2.918-5.882-2.712-6.296.16-.32 1.084-1.385 6.239-1.593 11.865-.477 23.74-1.388 36.315-2.353a2821 2821 0 0 1 16.932-1.263l4.849-.342-20.782-17.757-.46-.386c-1.79-1.5-2.296-2.122-1.976-3.078.365-1.097.943-1.936 4.283-1.11 16.619 4.12 32.889 1.14 48.623-1.746 8.1-1.485 16.473-3.02 24.914-3.617l3.238-.228-1.67-2.783c-4.905-8.17-11.438-13.01-17.756-17.693-2.302-1.706-4.477-3.317-6.565-5.077a25 25 0 0 0-1.332-1.024c-2.113-1.55-2.507-2.097-2.212-3.072.396-1.31 1.065-2.318 5.256-1.352 25.98 5.986 47.26-4.267 69.79-15.12 5.55-2.673 11.288-5.437 17.093-7.935l3.82-1.646-15.534-8.215c-10.68-5.653-20.768-10.992-30.805-16.234-.568-.296-1.19-.557-1.815-.817-2.787-1.156-2.962-1.52-2.616-2.864.397-1.537 1.405-1.753 4.63-1.695.357.006.725.004 1.057.012 2.965-.005 5.973-.08 8.882-.156 6.264-.157 12.738-.324 18.989.227 18.707 1.655 32.136-8.089 45.127-17.51 5.442-3.946 11.067-8.025 16.967-11.157l3.854-2.044-4.071-1.572c-21.215-8.195-42.457-14.985-62.395-21.237-.784-.246-1.595-.402-2.377-.552-3.17-.61-3.59-.938-3.462-2.704.12-1.662.66-1.983 3.847-2.289.852-.082 1.735-.167 2.589-.367l8.605-2.008c11.867-2.766 24.138-5.626 36.173-8.608 2.09-.519 5.89-1.79 7.844-4.486 7.632-10.537 15.222-21.433 22.562-31.972 2.392-3.432 4.788-6.872 7.198-10.319l2.204-3.15Z"/></g></svg>