<svg xmlns="http://www.w3.org/2000/svg" width="2048" height="1920" viewBox="0 0 2048 1920"><defs><clipPath id="clip_1"><path d="M0 0h2048v1920H0Z"/></clipPath></defs><g clip-path="url(#clip_1)"><path fill="#231f20" d="M1692.72 1111.003c-6.113-.733-4.768-9.36-6.1-14.64-8.736-34.52-4.9-69.426-.838-103.932 10.322-87.627 3.702-173.627-21.895-258.04-4.74-15.666-11.48-30.72-17.22-46.08-.773-2.053-2.556-4-.693-7.479 11.64 11.213 19.991 23.987 27.275 37.32 30.791 56.333 54.164 115.372 59.265 179.985 5.46 68.986-2.277 136.306-31.177 200.106-2.197 4.867-4.408 13.28-8.617 12.76m-44.255-150.559c-3.396 65.6-17.207 128.946-45.8 188.412-34.88 72.533-83.677 133.106-155.418 172.133-46.095 25.066-95.917 38.626-148.482 41.28-13.664.693-27.329 2.066-40.992.747-.2-.867-.413-1.734-.612-2.614 12.717-4.24 25.37-8.666 38.154-12.72 73.794-23.386 140.411-59.053 195.76-114.133 57.932-57.679 94.73-126.892 112.442-206.452 16.155-72.587 19.95-145.933 12.586-219.892-.08-.84-.307-1.68-.653-3.494-4.475 6.827-5.048 14.32-8.164 20.76-1.425 2.947-1.69 7.88-5.9 7.44-3.489-.373-3.356-5.04-3.955-7.947-13.198-64.239-38.822-124.013-65.604-183.372-8.79-19.467-19.55-37.84-31.03-55.8-1.013-1.586-1.585-3.44-3.037-6.653 7.085 3.067 11.36 7.226 15.942 10.907 51.7 41.6 84.275 96.04 105.73 157.892 24.012 69.213 32.815 140.6 29.033 213.506m-402.08 429.598c-36.704 4.48-73.527 3.253-110.378 2.573-54.723-1.013-106.703-18.253-159.348-30.426-39.634-9.173-83.729-13.907-122.75-.52-62.554 21.466-98.1 70.306-119.754 131.573-12.187 34.466-12.773 69.386 2.277 105.812-8.324-3.573-14.53-7.186-21.522-8.6-6.725-1.359-13.504-2.507-21.32-3.96 1.943 5.027 5.326 7.187 8.19 9.694 13.183 11.48 22.572 25.106 25.995 42.653 4.422 22.626 12.692 43.613 27.888 61.413 1.225 1.44 2.81 2.933 2.224 5.186-1.186 1.161-2.264.374-3.103-.253-35.306-26.24-65.63-56.8-85.142-97.013-22.932-47.266-22.973-95.453-6.885-144.506 8.457-25.813 19.364-50.453 33.521-73.733 16.475-27.093 42.937-39.173 71.171-48.399 59.238-19.36 118.69-14.934 177.9.266 67.308 17.28 135.416 29.253 204.802 34.307 32.402 2.36 64.605 7.226 97.153 8.026 2.704.067 5.754-.426 8.351 2.267-2.49 3.427-6.072 3.253-9.27 3.64m-96.873 67.146c-29.22 22.173-54.67 48.294-75.766 78.747 1.68-11.974 4.715-23.507 6.34-35.32 1.638-11.787 1.758-23.293-1.639-35.013-3.089 1.613-4.353 4.253-5.726 6.64-13.864 24.133-35.319 37.932-61.316 45.973-26.249 8.106-51.619 18.093-72.662 36.68-12.145 10.733-20.855 23.6-26.396 38.853-5.9 16.266-4.887 31.573 5.367 46.773 2.304-5.36 3.836-10.747 6.7-15.28 8.67-13.72 21.841-21.787 36.65-27.493 16.381-6.32 32.855-12.387 49.156-18.907 14.77-5.893 17.441-7.244 37.22-16.038 1.931-.858 5.731-2.809 5.753-2.44.254 4.293-1.952 7.904-2.724 9.958-8.59 22.853-16.383 30.733-35.228 46.266-42.364 34.92-90.655 54.2-146.004 53.227-22.307-.386-42.976-6.12-60.383-21.733-11.107-9.987-22.706-19.467-33.974-29.32-24.997-21.84-32.588-49.893-30.298-81.733 2.184-30.387 10.721-58.8 26.396-85 2.332-3.893 4.954-7.573 8.337-10.44 2.197 1.347 1.76 2.854 1.28 4.08-10.269 26.32-9.816 53.934-7.22 81.067 4.57 47.666 51.807 74.24 98.473 56.96 33.974-12.574 54.923-41.8 54.137-75.493-.333-14.2-8.11-40.427-15.062-50.267-3.157 2.307-3.157 5.8-3.41 9-3.37 42.72-38.103 62.146-78.229 55.426-9.229-1.546-8.949-1.973-6.925 6.841 2.983 13.026 11.48 20.772 23.28 25.786 5.766 2.453 11.373 5.307 17.366 8.12-13.105 7.386-31.07 5.573-43.643-4.547-15.222-12.24-24.105-28.72-28.154-47.373-7.418-34.12-1.97-66.466 16.594-96.226 11.121-17.8 28.34-28.267 46.56-37.32 1.611-.8 3.688-2.48 5.54-.627 1.811 1.827.266 3.827-.586 5.534-2.078 4.106-4.422 8.08-6.566 12.16-13.025 24.88-1.186 50.16 26.383 56.266.026-.52.292-1.253.053-1.507-17.02-18.187-12.439-38.386-4.422-58.119 7.258-17.854 18.845-23.934 38.196-23.2 29.912 1.12 58.518 8.68 86.952 17.146 67.455 20.093 136.122 31.72 206.72 29.8 14.37-.386 28.713-1.386 43.07-2.08.12 0 .28.373.826 1.16-34.24 13.293-71.184 20.386-101.016 43.013M650 1679.214c-14.556-5.173-25.157-15.227-30.43-29.893-27.356-76.2-21.616-148.733 24.597-216.573 8.936-13.119 19.684-24.786 30.684-36.186 1.678-1.747 3.25-3.974 7.498-4.174-6.113 12.654-11.933 24.64-17.713 36.64-15.755 32.654-27.46 66.467-28.979 103.12-2.304 55.787 20.123 101.746 56.428 142.213 9.428 10.507 20.296 19.466 30.511 29.466-23.387-10.987-48.57-16.08-72.596-24.613M552.873 557.54c-.558 1.04-.919 2.586-1.904 3.386-3.49 2.88-5.128 6.627-6.234 10.894-.772 2.933-2.676 5.4-6.219 4.054-3.196-1.2-4.382-4.415-2.77-7.028 2.385-3.853 2.77-7.786 3.143-12.066.32-3.6 2.877-6.52 6.792-6.307 3.797.2 5.528 3.494 7.192 7.067m47.984 5.933c.653-2.426-2.424-6.226 1.345-7.413 3.063-.974 4.621 2.773 6.286 4.946 7.245 9.401 5.288 18.774-4.648 23.36-1.638.747-3.329 1.587-4.86.547-1.998-1.347-1.652-3.586-.867-5.467 2.118-5.093 3.956-10.186 2.744-15.973m506.478 320.6c-23.959-25.548-51.46-46.895-79.388-67.774-4.075-3.054-8.577-5.747-10.947-11 33.188 12.946 61.928 33.493 91.108 53.6-21.269-28.894-50.421-49.507-76.898-73.2 15.382 1.56 60.276 33.426 95.89 67.533 28.793 27.587 52.964 58.946 75.458 91.84-5.208-16.814-12.613-32.547-21.162-47.68-43.39-76.72-104.359-136.56-178.753-182.693-17.632-10.947-28.687-21.813-31.203-44.319-4.768-42.827-22.108-81.494-50.728-114.413-10.454-12.027-22.414-22.347-35.985-30.76-2.89-1.8-5.634-3.827-9.429-6.414 24.265 2.081 93.158 60.187 110.911 93.04-.666-9.24-4.475-16.333-7.91-23.387-17.168-35.28-42.192-64.559-71.17-90.439-45.495-40.64-98.553-68.613-155.074-90.48-4.009-1.56-8.27-2.493-12.439-3.613-1.039-.294-2.184-.187-4.208-.32 3.595 7.306 10.334 10.533 14.782 15.813 2.344 2.773 7.152 5.386 5.82 8.826-1.478 3.827-6.632 1.854-10.122 1.654-7.418-.427-14.796-1.387-22.865-2.2 1.291 5.093 4.606 7.987 7.15 11.293a121 121 0 0 1 6.513 9.333c1.824 11.121-.733 27.64-14.543 47.147-17.34 24.52-18.912 24.48-31.79 33.507-4.328 3.04-9.016 5.133-14.237 5.84-2.543.333-5.447.8-7.285-1.454-1.984-2.44-.253-4.946.866-7.227 1.146-2.319 2.597-4.492 3.73-6.813 1.091-2.253 3.448-4.853 1.57-7.093-2.157-2.547-4.874.12-6.965 1.107-9.92 4.72-19.936 9.04-30.91 10.653-2.797.413-6.526 1.92-7.83-1.2-1.786-4.227 3.141-3.626 5.18-5.053 21.028-14.76 35.491-34.24 42.31-59.134 2.159-7.879 5.793-15.479 4.675-24.466-11.707 22.293-29.925 37.64-51.007 50.093-20.763 12.24-43.536 19.2-66.643 25.787 15.502 2.333 30.537-3.067 45.973-1.48-24.292 15.226-52.925 15.6-79.52 23.386 15.474 3.134 31.962.013 45.413 10.44 3.862 2.987 7.591 6.12 9.842 11.293-4.608 1.44-7.099-1.813-9.642-3.946-9.975-8.347-21.174-9.88-33.282-6.427-10.547 3.013-20.842 6.72-30.058 12.867-1.864 1.24-4.435 2.333-3.942 5.093.506 2.96 3.063 1.654 4.927 1.72 5.048.173 6.034 3.853 6.14 7.773.173 6.72-1.292 13.2-4.475 19.134-1.598 2.986-1.198 4.56 1.971 5.893 10.641 4.48 21.695 7.187 35.532 9.506-10.8-10.159-30.496-10-26.076-29.946 3.343.333 3.956 2.813 5.114 4.64 8.271 13.133 24.518 16.573 37.344 7.84.958-.64 1.824-1.466 2.85-1.933 2.663-1.24 5.713-6 7.751-3.187 2.637 3.613-2.05 6.52-4.928 8.547-3.65 2.586-7.75 4.506-13.012 7.48 6.246.653 11.001.933 15.675 1.68 4.368.693 5.221 3.133 2.424 6.653-4.142 5.226-8.99 8.707-16.208 7.946-8.643-.919-16.927-3.319-25.33-5.319-4.742-1.134-9.509-2.32-14.344-2.92-3.155-.4-7.31.24-7.338 4.093-.013 3.547 4.13 1.84 6.38 2.267 9.415 1.826 18.032 5.946 26.928 9.2 15.942 5.826 29.98 4.68 40.7-10.227 1.092-1.52 2.291-3.413 4.661-3.427 1.878 16.36-10.308 31.413-35.572 43.947 16.727 2.026 31.87-3.974 43.83-17.16 4.833-5.32 8.642-11.587 14.476-15.974 6.18-4.626 10.495-3.413 13.238 3.907 2.01 5.307 1.451 10.734-.08 16.107-7.298 25.426-22.574 45.746-41.02 63.986-4.634 4.587-9.668 8.773-13.717 14.227 19.564-1.547 34.973-13.854 53.551-18.88-.546 4.72-2.995 7.2-5.114 9.747-14.623 17.493-30.577 33.693-48.29 48.04-2.437 1.972-7.059 10.32-10.242-.374-.666-2.226-2.983-.12-4.075.88-4.447 4.093-8.948 8.16-13.078 12.56-15.209 14.333-27.66 24.307-44.242 35.453-2.863 1.92-5.82 3.707-8.817 5.427-2.25 1.293-4.994 3.026-7.27 1.64-2.585-1.573-.987-4.747-.654-7.16 1.56-11.12 2.904-18.627 4.25-29.76 4.367-36.106 4.14-72.48 6.245-108.719.04-.734-.333-1.494-.52-2.24-2.49.266-2.65 2.306-3.209 3.8-23.213 61.56-63.846 110.053-113.055 152.44-29.246 25.185-60.25 48.265-88.404 74.732-6.685 6.293-13.105 12.773-18.046 20.6 2.198 1.933 3.103.12 3.902-.654 29.832-29.479 66.084-49.919 101.23-71.853 23.28-14.506 46.025-29.546 65.363-49.253 9.15-9.32 17.7-18.906 22.108-31.533.8-2.28 1.757-6.053 4.595-5.533 3.808.68 2.37 4.746 2.184 7.28-1.465 20.72-7.764 40.08-17.58 58.253-22.627 41.933-56.4 73.226-95.822 98.8-31.603 20.48-65.057 37.012-102.375 44.412-6.045 1.201-8.349 3.214-7.284 10.414 4.288 28.906 3.622 57.306-10.055 84.373-6.179 12.226-11.786 25.026-10.534 39.6 1.451 16.826 4.448 20.76 20.935 24.493 11.8 2.653 23.76 4.253 35.812 5.347 7.098.653 11.44-2.374 14.584-8.28 3.848-7.228 7.044-14.934 6.911-22.974-.187-11.733 5.22-18.666 14.423-25.266 10.934-7.827 20.177-17.974 30.391-26.827a344 344 0 0 1 21.602-17.227c3.183-2.333 7.071-3.853 10.84-5.133 1.905-.64 4.995-1.32 5.968 1.52.878 2.587-2.025 3.134-3.623 4.027-10.362 5.8-17.153 15.213-24.545 24-11.64 13.827-21.655 29.226-38.329 37.973-2.384 1.253-3.103 3.586-3.383 6.493-1.638 16.747-8.936 30.8-21.415 42.013-7.777 6.973-16.527 8.56-26.356 3.987-10.348-4.8-21.602-5.893-32.789-6.893-14.729-1.333-19.537-6.014-21.733-20.693-3.557-23.68-1.852-46.174 10.308-67.76 10.747-19.067 8.43-39.8 3.688-60.36-3.396 17.773-13.265 32-23.613 46.026-9.349 12.667-17.672 25.761-15.834 42.613.173 1.681.372 3.707-1.772 4.321-2.064.6-3.049-1.187-4.048-2.507-9.123-12.04-7.512-38.8 4.874-47.44 24.411-17.013 26.462-40.093 20.63-65.853-1.852-8.16-.373-15.28 2.796-22.586 10.254-23.52 27.728-41.547 45.254-59.48 44.056-45.107 89.976-88.413 130.968-136.466 19.271-22.587 37.836-45.68 53.618-70.907 10.96-17.506 17.646-36.346 22.6-56.519 17.952-73.067 57.454-130.6 125.082-166.64 10.52-5.6 21.96-8.626 33.494-11.146 4.514-.987 6.632-2.894 6.112-7.52-.093-.854-.026-1.734-.013-2.6.2-14.027-1.012-27.934 8.537-40.454 14.636-19.2 29.74-37.533 52.512-47.479 3.81-1.653 9.016-4.88 12-1.44 2.37 2.707-1.505 7.386-3.117 11-9.256 20.853-21.415 40.053-34.906 59.786 5.954-.133 9.79-2.627 13.651-4.666 27.355-14.36 49.036-34 59.717-64.067 1.691-4.747 2.038-8.507-.879-12.906-14.982-22.587-25.21-46.96-29.259-74.067-2.344-15.653-11.094-28.893-20.51-41.453-4.74-6.32-9.295-12.773-14.223-19.56 1.785-.413 2.49-.814 2.77-.613 23.4 16.36 46.52 33.253 65.843 54.32 24.4 26.6 26.97 58.68 19.658 92.453-1.279 5.88-2.73 11.706-4.102 17.56.625.56 1.252 1.12 1.877 1.693 3.25-3.72 6.38-7.547 9.762-11.16 9.456-10.093 19.272-19.854 30.711-27.734 7.22-4.972 14.903-8.773 24.172-7.386 6.66 1 7.325-3.2 6.113-8.027-2.424-9.546-6.752-18.08-14.596-25.026 14.743 1.08 27.421 7.413 40.073 14.506-6.885-12.893-17.02-22.986-27.195-32.88-18.83-18.306-35.239-38.093-42.377-64.053-2.05-7.48-3.729-15.066-5.394-22.653-3.369-15.413-7.085-30.68-16.514-44.147 8.577 2.694 15.25 7.867 21.655 13.374 25.757 22.107 47.078 48.253 66.79 75.613 20.375 28.28 40.312 44.813 75.338 49.547 6.792.92 5.527 4.32 3.742 8.96-18.472 48.106-11.679 97.906 10.175 144.838a17.5 17.5 0 0 0 1.744 2.961c.267.373.88.48 2.505 1.293-.746-12.907-1.452-25.2-2.238-38.666 5.221 2.333 5.66 6.44 7.125 9.493 21.548 44.947 43.216 89.813 71.943 130.813 30.884 44.08 68.8 81.08 111.671 113.44 72.741 54.892 134.377 119.878 178.978 200.092 25.863 46.52 40.366 95.732 38.422 149.466-1.678 46.346-13.332 88.68-45.867 123.4-.905.96-1.624 2.092-2.024 3.492 32.815-19.306 58.093-46.279 79.761-77.199-17.86 35.373-41.965 66.4-66.017 97.693 21.602-7.227 35.625-25.014 53.578-37.56-11.2 22.386-28.34 40.2-45.866 60.213 14.783-4.813 25.024-13.134 34.506-22.053 34.6-32.534 63.3-70.04 88.91-109.84 37.97-59.013 63.965-123.026 76.178-192.306 6.647-37.666 8.336-75.546 1.226-113.439-.347-1.827-1.093-3.894 1.197-6.68 1.48 3.533 2.85 6.507 3.996 9.573 20.696 55.08 31.95 111.986 29.3 170.893-5.94 132.666-60.597 238.28-174.944 309.812-20.59 12.88-42.99 22.08-65.724 30.453-4.54 1.68-9.295 2.907-13.476 5.907 37.608-3.094 74.14-9.68 108.34-26.654-10.002 15.72-22.48 29.04-36.239 41.134-50.82 44.626-109.245 75.36-173.77 94.892-7.1 2.147-13.745-.319-20.297-2.053-4.542-1.2-2.623-5.907-2.583-9.04.306-27.666-.228-55.32-1-82.986-.679-24.173-1.865-48.48 1.345-72.533 4.062-30.347 5.114-60.8 6.18-91.347 2.957-84.373-29.631-154.105-86.18-214.385m-169.443-36.96c-38.795 66.186-99.244 92.96-173.984 91.76-19.098-.307-37.757-3.84-56.309-8.067-2.477-.574-5.007-.973-8.589-1.667 2.024 3.787 4.874 5.107 7.378 6.52 25.596 14.334 51.78 26.733 82.291 24.853 4.008-.239 8.057.08 12.092.201 1.425.053 3.024.16 3.662 1.72.867 2.093-.772 3.066-2.157 4.106a72.6 72.6 0 0 1-18.046 10.053c-46.892 17.92-92.399 14.267-136.92-8.266-20.057-10.147-40.087-20.214-58-34.04-3.502-2.707-7.244-5.533-12.039-5.933-1.398 2.866.16 4.8 1.24 6.693 6.152 10.88 5.752 15.253-2.545 25.426-18.845 23.12-42.644 38.227-71.717 45.24-16.487 3.974-32.84 8.52-49.195 13.027-6.14 1.693-11.787 1-17.687-1.187-39.687-14.746-77.763-12.627-113.6 11.44-4.303 2.88-8.685 5.667-13.199 8.186-7.35 4.107-10.109 2.827-11.933-5.559-2.557-11.64-.998-22.933 3.81-33.72 9.828-22 26.395-38.227 45.546-52.026 15.196-10.96 30.938-21.107 48.157-28.694 2.105-.933 4.236-1.867 6.433-2.507 2.171-.64 4.821-1.599 6.406.601 1.492 2.08.266 4.44-.986 6.44-5.127 8.16-12.199 14.506-19.324 20.813-3.834 3.413-8.644 5.733-12.998 12.347 12.652-5.84 22.214-12.387 31.83-18.84 33.534-22.493 52.725-55.574 67.042-92.04 1.891-4.827 4.887-7.627 8.897-9.907 20.256-11.56 42.296-19.986 61.354-33.52 47.638-33.813 90.07-72.72 117.677-125.426 2.49-4.759 5.553-9.413 5.886-16.066-11.373 2.373-17.686 12.653-29.992 17.12 9.003-12.987 16.741-24.134 24.48-35.294 3.621-5.2 7.164-10.466 10.853-15.613 2.33-3.24 1.665-4.72-2.198-5.92-7.31-2.266-15.822-3.586-16.78-13.599-.986-10.267 7.977-12.387 14.25-16.347 36.797-15.187 81.585-21.947 100.856-60.574.892-1.813 1.744-3.639 2.677-5.426 5.393-10.373 7.95-11.747 19.27-8.24 27.036 8.333 51.461 21.533 72.65 40.413 44.842 39.973 63.433 91.333 64.578 150.12.32 16.693.04 33.4.04 52.292 8.976-14.36 13.744-28.626 17.82-44.012 4.58 2.733 5.326 7.132 6.551 10.933 13.957 43.133 6.78 84.12-15.528 122.186M618.757 994.044c-14.038 16.933-29.806 32.013-48.49 43.76-20.976 13.173-43.004 24.386-65.738 34.2-12.079 5.213-15.409 2.8-15.368-10.534-.214-3.08 1.304-4.507 4.208-5.533 33.92-11.88 64.272-30.6 94.45-49.64 9.004-5.667 17.806-11.64 26.822-17.307 1.745-1.106 3.93-3.773 6.02-1.573 2.397 2.533-.399 4.8-1.904 6.627m-144.26 51.293c-1.984.826-4.794 1.933-6.379-.254-1.572-2.173.626-4.226 1.745-6.16a4.9 4.9 0 0 1 1.105-1.306c18.472-16.027 40.634-24.12 62.075-29.8 3.596-.067 5.647-.2 6.406 1.6 1.052 2.493-1.293 3.533-2.89 4.493-19.937 11.933-40.54 22.587-62.062 31.427m-47.997 20.786c-12.066 11.52-24.132 23.04-36.518 34.2-14.755 13.307-24.318 29.613-30.018 48.494-2.317 7.692-4.848 15.386-8.178 22.68-2.916 6.4-8.137 10.986-15.848 8.853-7.63-2.107-12.079-7.334-12.132-15.774-.067-11.493 4.847-21.213 10.907-30.386 20.284-30.774 47.891-53.227 80.387-70 5.606-2.893 11.32-5.613 17.047-8.28.586-.28 1.584.28 2.623.507-1.278 4.693-5.287 6.84-8.27 9.706m1.784 96.747c-2.17 14.093-14.276 23.053-32.002 23-.679-.04-2.438.08-4.115-.254-2.77-.56-6.14-.707-7.193-3.867-1.078-3.186 1.52-5.253 3.517-7.306 8.031-8.28 16.647-15.867 26.835-21.414 3.276-1.773 6.992-3.506 10.481-.559 3.25 2.733 3.063 6.64 2.478 10.4m-253.172-145.546c-7.712-8.04-8.47-17.64-2.158-27.2.785-1.187 2.077-3.32 2.982-2.534 5.168 4.467 12.213 2.72 18.326 5.547.932-1.786-.692-4.066 1.28-5.84.638.32 1.557.48 1.983 1.04 8.07 10.427 7.831 16.147-1.092 27.413-10.348 13.04-10.348 13.04-21.322 1.574m316.485-586.358c4.875-40.88 67.455-114.092 98.82-114.986-35.52 36.666-59.905 80.4-98.82 114.986m124.016-84.973c6.34-6.24 13.611-11.013 22.934-12 .56 4.187-2.118 5.974-4.222 7.653-18.006 14.307-27.355 33.813-32.922 55.387-4.368 16.88-14.756 28.96-28.447 38.787-1.85 1.32-3.982 3.4-6.126 1.866-2.09-1.493-1.225-4.427-.426-6.467 12.092-30.893 24.984-61.359 49.21-85.226m32.668 10.4c2.398 2.506-1.452 4.933-3.01 7-8.616 11.453-17.792 22.427-29.045 31.453-2.798 2.254-5.475 4.76-8.884 5.773-1.878-2.226 18.818-32.506 32.51-42.333 2.463-1.773 6.005-4.44 8.43-1.893m-16.156-147.906c-19.537-26.013-24.717-56.346-24.37-88.453 3.769-.28 4.86 1.654 5.978 3.174 25.997 35.32 50.648 71.412 64.58 113.572 3.821 11.56 6.418 23.387 4.247 35.654-.586 3.346-1.905 6.613-3.21 9.786-1.93 4.68-4.328 6.24-7.11.467-2.745-5.693-5.808-11.267-8.259-17.094-8.509-20.226-18.578-39.426-31.856-57.106m317.631 72.253c.253-5.293 2.837-4.52 6.193-3.614 11.36 3.067 23.067 8.987 33.454 15.041 1.825 1.053 4.21 3.106 6.233.853 1.904-2.094.173-4.306-.999-6.387-1.078-1.906-3.436-4.199-1.49-6.226 2.263-2.374 4.926.146 6.978 1.253 16.101 8.68 30.417 17.293 43.362 30.133 3.862 3.827 8.231 7.147 12.492 10.56 1.32 1.054 3.104 2.013 4.768.867 1.598-1.12 1.226-3.04 1.026-4.76-.653-5.68-4.461-10.573-4.302-17.653 10.121 5.093 13.957 16.093 24.558 22.373-3.303-9.334-5.993-16.96-9.456-26.76 13.944 9.76 21.375 22.973 33.921 32.253 1.691-7.453-3.102-12.426-3.29-20.08 18.872 12.347 34.121 27.294 52.394 41.067-6.806-22.294-15.143-41.84-30.765-59.586 5.66.546 8.443 2.986 11.266 4.986 19.885 14.014 38.21 29.56 49.597 51.733.692 1.347 1.212 2.76 2.85 2.747 2.396-.027 2.45-2.053 2.543-3.734.427-7.266-.026-14.52-2.556-21.319-2.81-7.574-.215-8.494 6.444-6.534 25.451 7.48 49.956 17.493 74.314 27.88 50.995 21.747 100.537 46.093 143.74 81.533 17.207 14.12 33.441 29.24 42.817 50.133 1.053 2.347 1.957 4.787 2.81 7.214.253.746.107 1.626.24 4.506-82.73-58-170.601-100.159-269.872-115.293 1.65 3.267 4.78 3.72 7.576 4.693 98.646 34.414 175.037 96.16 229.627 185.427 30.724 50.24 53.058 103.36 61.382 161.946 6.805 47.813 4.088 95.386-3.556 142.84-6.419 39.892-16.208 78.918-30.658 116.705-1.091 2.867-2.41 5.653-4.674 10.907-1.265-9.054-2.185-15.627-3.102-22.2-6.208 12.533-6.194 27.68-17.328 38.226 6.166-36.467 12.626-72.706 4.715-109.706-6.633 22.826-7.805 46.92-17.713 68.947.532-11.147 1.358-22.28 1.545-33.44.733-45.84 1.332-91.827-10.374-136.573-11.36-43.373-29.273-83.68-62.355-115.546-.892-.854-1.505-2.52-4.315-1.64 23.76 39.373 39.035 81.48 42.683 127.372 1.24 15.601 2.211 31.214 3.317 46.8-3.969.387-4.062-1.973-4.462-3.293-9.628-31.547-28.646-57.413-48.956-82.706-55.707-69.36-120.778-128.56-191.07-182.88-71.45-55.226-127.666-123.999-170.922-203.639-18.047-33.213-22.28-68.973-20.63-105.426m897.664 937.943c-43.79-8.374-85.208-22.067-119.275-52.667-23.147-20.8-23.839-24.466-10.868-52.479 16.661-35.92 29.38-73.254 35.865-112.373 5.327-32.227 4.315-64.907 4.355-97.467.093-84.119-23.133-161.306-68.453-231.999-6.273-9.786-13.332-19.106-18.446-29.706 7.53 3.648 75.152 35.413 112.457 45.693 11.92 3.28 23.931 6.387 36.45 6.427 1.971 0 4.422.133 4.861-2.454.466-2.639-2.01-3.173-3.822-3.867-5.114-1.933-10.242-3.84-15.422-5.586-32.722-11.027-66.203-19.894-97.766-34.227-4.049-1.84-8.404-3.239-11.48-7.293 18.924 4.84 37.822 8.48 58.053 5.694-1.945-4.294-4.955-4.56-7.579-5.494-15.462-5.493-30.857-11.173-46.359-16.533-37.504-12.947-64.685-37.8-83.703-72.16-8.31-15-7.87-17.64 6.153-27.506 10.228-7.187 17.846-16.32 22.28-27.92 4.608-12.067 6.287-24.267.08-36.48-2.65.853-2.223 2.987-2.982 4.44-7.366 14.066-17.246 23.16-34.654 24.306-22.933 1.534-42.976-4.879-62.673-15.52-38.196-20.639-69.493-48.932-95.448-83.506-4.21-5.613-4.183-8.693 3.328-10.773 9.442-2.627 18.964-4.774 28.527-6.826 19.67-4.214 39.687-7.24 58.185-15.747 3.01-1.387 7.418-2.64 7.032-6.654-.453-4.653-5.407-3.48-8.457-3.906-15.475-2.187-31.07-.56-46.599-1.147-7.044-.266-9.987-2.054-6.978-9.799 4.315-11.094 1.611-22.174-2.184-32.907-.798-2.24-1.518-5.68-4.715-5.414-3.582.307-2.663 3.787-2.995 6.2-.148 1.134-.108 2.307-.188 3.454-1.81 25.667-19.923 44.466-45.48 47.48-11 1.306-21.868.626-32.708-1.107-33.735-5.414-65.75-16.8-97.368-29.24-62.128-24.453-123.283-51.36-185.89-74.653-4.422-1.654-8.737-3.973-14.69-4 6.22 7.546 15.276 10.626 19.658 19.107-27.288-10.76-54.404-21.654-83.636-25.747 14.822 8.48 30.604 15.346 41.99 29-14.863-4.333-28.22-12.187-42.763-17.133-14.743-5.014-29.632-9.347-44.895-12.44-14.956-3.04-30.005-4.734-47.518-2.907 11.986 4.213 21.908 7.227 31.43 11.186 9.55 3.974 18.831 8.64 28.007 13.44 17.766 9.307 20.763 11.653 24.625 18.401-13.624-4.147-25.517-10.88-38.648-13.907-21.016-4.854-42.11-9.413-63.126-14.307-23.32-5.44-43.044-16.32-54.964-38.186-12.878-23.613-30.684-43.147-50.487-60.92-19.55-17.533-40.007-33.946-64.845-43.653-4.62-1.8-10.907-5.174-14.37-.907-2.783 3.44 2.091 8.453 4.542 12.147 21.468 32.226 18.058 69.426 22.187 107.08-16.634-12.84-32.07-24.294-48.37-34.52-32.083-20.12-61.596-43.507-88.91-69.72-7.898-7.573-16.235-14.68-24.479-21.88-2.144-1.867-4.634-3.893-7.75-2.787-3.49 1.24-3.064 4.68-3.037 7.413.293 34.72 4.262 68.96 23.786 98.613 18.325 27.827 26.675 59.094 36.024 90.213 1.905 6.36-1.212 6.373-5.567 5.107-8.03-2.32-15.98-4.88-23.972-7.293-9.668-2.933-19.178-5.187-29.632-3.213-18.152 3.412-33.573 11.826-47.318 23.626-33.814 29.04-55.003 66.48-68.348 108.186-5.527 17.28-14.809 28.84-30.11 37.653-18.939 10.907-37.69 22.427-52.074 39.467-1.252 1.48-4.075 2.666-1.945 6.106 16.09-9.733 32.43-18.733 50.13-24.946 18.964-6.654 18.977-6.627 16.713 12.827 2.332-1.587 3.063-4.227 3.795-6.614 3.144-10.48 10.348-17.12 19.964-21.386 27.874-12.4 48.037-33.187 64.152-58.493 3.955-6.227 8.057-12.347 13.411-20.52 1.067 8.906-.706 14.746-2.077 20.56-6.02 25.546-11.32 51.546-29.086 72.2-31.23 36.292-50.528 78.812-65.485 123.638-7.032 21.067-14.21 42.027-24.65 61.707-21.895 41.24-53.058 75.2-85.515 108-47.012 47.493-93.838 95.16-136.946 146.32-17.075 20.252-34.335 40.412-48.132 63.16-5.633 9.292-13.318 20.145-7.618 30.865 11.014 20.734 15.542 42.187 13.838 64.733-2.078 27.76 6.192 52.08 20.203 75.373 5.353 8.907 12.386 14.68 21.655 18.76 18.298 8.054 37.77 9.814 57.306 11.187 8.27.573 14.011 3.893 17.633 11.56 4.701 9.933 12.932 15.853 23.36 19.08 24.904 7.706 50.154 10.586 75.791 4.6 28.274-6.614 52.246-19 64.446-47.907 5.007-11.893 12.373-22.746 19.524-33.586 8.443-12.773 19.763-21.36 34.36-26.08 19.457-6.32 38.262-14.293 56.707-23.2 36.837-17.787 72.702-37.427 108.727-56.76 6.885-3.693 13.637-6.56 21.854-6.893 31.338-1.267 62.688-2.307 93.68-8.053 47.93-8.894 91.638-26.36 128.262-59.587 22.401-20.333 44.03-41.466 65.271-62.986 2.744-2.787 4.835-6.054 9.87-2.107 22.066 17.28 43.548 35.24 59.676 58.386 55.55 79.64 63.992 165.133 30.591 255.56-1.252 3.386-3.902 6.453-2.57 11.6 19.511-11.414 32.75-28.654 47.771-46.307-.399 34.84-11.572 64.547-29.193 92.586 16.581-2.467 29.42-10.12 40.94-20.373 2.33-2.067 3.994-6.507 6.951-5.84 3.876.894 2.025 6.013 3.543 8.987.506.973.4 2.253.612 3.386 6.206 33.68 8.657 58.346 11.814 97.893 1.411 5.413-.76 6-5.207 4.706-36.838-10.759-66.31-19.359-98.033-42.066-.96-.693-2.024-2.213-3.397-.907 5.66 18.121 16.554 31.414 34.094 39.067 3.81 1.667 8.71 3.08 9.55 8.906-7.379.667-14.29.881-21.057-.733-16.234-3.853-32.349-8.173-48.596-11.933-52.38-12.12-104.013-27.573-157.498-34.693-32.375-4.307-64.79-7.293-97.206-1.627-52.02 9.107-92.812 37.334-126.733 76.574-30.205 34.946-50.607 75.386-65.75 118.732-5.034 14.413-10.282 28.773-17.446 42.307-9.856 18.613-24.785 28.146-46.427 26.12-12.532-1.188-24.85-3.107-36.89-7.2 15.422 15.093 33.215 25.493 54.404 29.76 11.573 2.333 22.92 2.226 33.867-2.534 11.973-5.2 12.491-5.307 12.026 7.506-1.692 45.44 18.112 79.16 55.19 103.947 15.354 10.253 31.376 19.293 47.65 27.96 26.143 13.933 53.471 25.866 76.111 45.68 14.77 12.92 26.343 27.492 26.05 48.506-.027 1.16.453 2.24 2.624 2.4 24.971-36.013 12.346-65.013-18.472-90.706 6.392 1.28 10.814 4.813 18.22 5.506-17.98-32.626-22.282-68.279-33.043-102.532 3.796.76 4.861 3.386 6.592 5.2 29.74 31.2 65.964 48.333 109.06 51.092 32.15 2.067 61.37-8.159 89.803-21.186 29.818-13.653 57.826-30.44 78.802-56.24 23.998-29.493 47.971-58.986 73.527-87.16 25.238-27.826 52.113-53.839 85.688-71.732 40.34-21.494 83.755-35.24 126.865-49.68 20.99-7.026 41.578-15.466 63.526-19.28 11.388-1.974 14.465 2.147 10.082 13.013-3.329 8.28-7.445 16.266-10.36 24.68-12.08 34.76-16.196 69.653.891 104.106 12.652 25.494 34.082 42.347 57.813 56.613 9.922 5.974 20.403 10.694 32.03 12.494-3.01-3.294-6.3-6.014-9.657-8.653-59.783-47.027-76.19-122.347-41.338-189.787 13.985-27.039 33.961-49.359 56.481-69.253 54.151-47.826 105.211-98.213 143.408-160.386 10.467-17.012 10.36-11.919 19.922-6.266 6.007 3.173 6.22 6.36 2.304 11.373-10.108 12.92-15.715 27.107-25.982 39.893-19.47 24.24-40.567 47.307-55.696 74.72-20.629 37.413-24.039 75.72-4.728 114.946 14.383 29.227 34.52 54.4 55.576 78.893 16.86 19.586 36.17 37.64 37.69 65.96.012.187.385.346.585.52 17.487-27.427 16.661-51.853-2.57-77.44-9.443-12.573-21.269-22.68-33.294-32.546-34.495-28.267-47.932-65.08-44.336-108.813.36-4.347.08-9.146 4.341-13.133 3.197 8.36 1.813 16.48 2.611 24.333 2.69 26.586 19.431 45.2 43.856 48.36 21.148 2.746 40.66-1.813 58.318-13.787 2.331-1.586 5.727-2.746 5.874-6.4-2.304-1.507-4.316-.88-6.233-.414-17.02 4.2-34.226 3.867-51.514 2.334-16.553-1.467-27.38-11.694-30.098-28.106-2.477-14.947.373-29.28 4.741-43.374 11.827-38.16 32.163-71.893 55.23-104.106 9.31-13 9.921-13.32 23.186-4.88 43.656 27.8 91.56 39.6 142.928 38.507 17.1-.374 34.332.333 53.417-4.973-15.09-2.6-27.874-4.6-40.58-7.027"/></g></svg>