<svg xmlns="http://www.w3.org/2000/svg" width="1984.25" height="1984.25" viewBox="0 0 1984.25 1984.25"><defs><clipPath id="clip_1"><path d="M0-.002h1984.252V1984.25H0Z"/></clipPath></defs><g clip-path="url(#clip_1)"><path d="M1318.424 997.071c-7.601-.224-4.457-26.788 1.527-32.433-.02 7.64 10.13 32.17-1.527 32.433m-658.877 4.465c-3.852-2.544-6.394-5.934-6.34-8.449 1.113-13.54 3.875-25.66 6.546-37.38.54-1.8 1.177-7.966 3.226-7.012.604.086 2.059 1.686 2.296 2.904 3.347 17.247 6.373 34.14 8.89 48.39.269 7.3-9.204 5.128-14.618 1.547m-38.084-42.134c-.02-4.266 31.008-44.07 27.743-26.919-3.957 14.643-8.208 31.573-8.795 48.99-.033 1.002-.134 4.015-1.113 4.245-8.666.715-22.028-18.26-17.835-26.316m713.327-43.243c.786-3.063 1.797-6.65 2.726-10.034 11.906 15.601 5.365 34.706 23.098 47.756 4.945 4.263 8.459 7.85 5.074 11.951-3.481 4.218-8.475 3.54-16.197-2.204-15.206-11.312-20.014-26.839-14.701-47.469m-87.54 72.958c6.268-10.459 4.498-19.199-.087-29.104-15.493-33.462-30.993-69.449-35.461-109.115-9.015-49.329 20.362-44.104 13.693-71.477-8.842-27.806-4.594-54.192 12.983-80.667 3.067-4.618 5.362-10.699 6.824-18.075.856-4.32 1.819-5.048 2.193-5.16 23.986 18.225 35.033 50.45 51.549 74.977 69.927 98.868 7.737 146.421-2.593 245.172.16 9.39-7.568 8.514-14.233 8.673-11.123.267-22.625.543-33.7 4.04-8.872 1.913-4.216-14.88-1.168-19.264m-81.295-319.126c3.27-5.766.57-10.75-.962-16.025-3.768-13.07 3.22-28.429 14.955-32.868 1.116-.438 3.299-1.83 3.599-.834.94 1.143.687 1.74-1.504 3.55-8.861 6.791-18.351 18.517-10.401 30.112 10.162 15.022 52.682-1.645 58.252-20.864 8.466-12.53 17.509-15.819-1.721-22.792-5.948-2.558-12.3-3.57-19.976-3.179-6.061.598-9.463-4.092-2.786-8.66 7.187-4.539 15.189-8.903 22.78-13.362-10.58-4.847-19.018-7.763-21.115-20.67-1.274 12.48-6.053 25.094-15.558 29.57-3.313 1.941-7.446 6.023-10.27 2.626-7.093-8.425 5.055-14.777 8.537-21.426 12.726-16.38 28.66-30.087 40.073-47.042 4.638-6.939 8.869-8.787 14.698-5.065 6.102 2.812 11.865 5.468 11.4 14.472 1.096 20.774-10.418 41.283-6.892 61.173 2.866 15.682-1.567 28.893-13.551 40.39-27.298 23.49-15.628 57.682-56.181 35.26 4.813 18.692 24.533 26.604 38.643 12.25 6.925-6.767 10.872-15.202 16.52-22.848.039 7.81-3.89 16.613-8.25 25.058-5.483 10.633-16.66 13.405-26.113 19.086 17.952 7.23 9.63 10.217-2.373 29.494 2.387 3.012 5.294 2.88 8.333.896 2.665-1.447 3.464-1.622 4.574.172 2.506 3.876-8.902 17.255-10.86 22.323 3.728 1.915 6.456 2.466 9.167-1.193 1.77-1.953 2.372-2.332 3.762-1.308 3.02 1.91 1.59 6.448.699 10.261-4.9 11.96 1.849 32.325-12.928 37.954-5.088 1.65-7.678-1.99-10.673-6.209-2.885-3.494-4.422-8.13-10.145-8.24 1.23 21.15 20.592 27.535 21.05 50.43 3.834 36.771 7.71 74.787 28.967 107.54 2.499 3.85 3.74 7.878 3.692 11.975.813 26.367-28.74-3.563-56.621 17.422-5.698 3.423-6.207 2.861-6.34-3.616 2.063-54.259-7.494-106.987-2.67-161.319 1.602-10.607-3.577-22.648-1.143-32.757 3.233-1.289 9.494-.317 9.964-2.686 1.358-4.456-4.074-10.232-5.45-14.77-13.234-21.118 8.36-24.039-1.954-30.787-5.52-3.272-2.193-7.739-3.84-12.552-.77-4.355-1.075-7.119 1.132-8.77 4.16-2.033 7.848 8.642 17.444 5.19-7.036-6.747-10.264-15.216-15.421-22.81-6.405-9.144-7.166-16.486-2.543-24.552m32.102-30.342c-.382-6.974 17.51-19.752 19.646-8.693-.877 4.75-20.133 22.747-19.646 8.693m32.589-232.097c1.54-10.255 4.663-20.77 9.287-31.274 9.275 30.697-9.722 77.428-.288 109.495.777 3.126 1.51 6.077-.26 8.258-6.763 8.328-12.866 17.386-18.77 26.146-10.706 15.892-21.778 32.325-37.1 44.771-7.867 4.438-12.98 11.142-12.908-3.036-5.031-63.583 55.822-88.7 60.039-154.36m86.71-58.765c6.993-7.779 14.224-15.824 21.048-24.002 3.009-2.4 5.972-5.733 4.757-11.082-16.597 10.938-30.466 24.437-44.055 37.502-10.608 7.98-37.82 45.303-39.461 13.334.37-20.442 6.406-35.49 18.996-47.359 37.91-38.428 88.107-42.26 138.476-36.032 34.637 1.56 71.928 4.77 103.892 19.286 1.892.867 5.234 1.836 4.356 3.448-25.553 6.567-58.162.54-81.445-.814-27.078-2.265-60.322-6.112-74.283 20.431-4.364 7.44-10.327 13.577-17.244 17.746-55.151 28.506-45.631 90.806-85.54 134.248-6.631 9.385-13.47 3.513-12.3-6.302-1.293-53.522 32.662-85.117 62.804-120.404M588.84 875.491c10.593-12.738 21.664-25.438 29.292-40.784 1.793-3.613 4.635-6.05 8.943-7.667 19.008-7.14 33.398-20.146 43.993-39.76 17.295-30.267 39.347-58.047 63.686-80.646-13.69 52.114-25.251 102.94-44.381 153.397-18.637 54.497-59.021 40.33-80.195 84.97-1.427 4.153-2.325 5.894-4.955 5.106-34.782-5.236-37.703-52.224-16.383-74.616m-56.382 7.818c10.505-61.99 28.796-82.022 86.738-105.47 6.987 27.93-10.575 58.75-32.31 85.232-8.013 9.773-16.298 19.88-19.545 33.203-.881 3.063-1.755 3.692-5.502 1.322-5.693-3.724-13.315-7.893-22.59-7.893-4.773.871-8.2-1.54-6.791-6.394M768.07 714.196c-3.706-.546-6.642-7.712-8.954-10.948-2.97-4.706-5.114-8.106-4.555-9.326-.09-2.366 17.046-1.683 10.724-6.402-20.461-6.204-24.596-22.4-28.595-38.064-3.09-12.103 1.153-19.298 13.354-22.64 8.63-2.305 37.51-7.102 37.232 5.797-.107 6.231-6.595 6.713-11.294 6.056-17.511-3.276-38.623 12.11-24.276 28.171 8.02 12.858 32.998 20.868 45.603 6.973 2.485-3.69 6.076-2.18 3.464 1.794-7.6 14.111-15.64 35.42-32.703 38.59m-141.323 93.072c2.866-11.09 3.615-23.146 2.405-35.865-.322-3.328.828-6.178 3.618-8.968 29.459-30.85 35.63-77.043 74.333-106.454 9.835-10.643 7.716 10.3 13.238 16.12 6.975 11.238 5.12 22.251-5.838 34.66-21.604 24.46-41.073 51.908-57.868 81.581-4.85 8.567-12.647 15.761-24.542 22.64-3.295 2.893-7.266 1.301-5.346-3.714m138.435-144.725c-3.096-.112-8.555.288-7.91-6.304 5.56-23.836 46.209 3 7.91 6.304m-3.948-57.528c3.59-.732 11.807 4.463 5.758 6.16-7.916.383-14.445 4.123-20.76 7.74-4.367 3.413-12.39 5.574-9.423-2.728 2.564-5.397 16.253-11.172 24.425-11.172m-21.143-47.832c-4.132-29.602 14.217-42.327 33.643-55.799 5.117-1.814 17.373-17.763 19.19-6.388 1.69 7.547 5.055 14.924 5.06 22.595.03 10.917.672 20.643 8.273 29.111 2.134 2.378 2.09 6.576.945 9.493-11.634 27.656 3.586 52.156 7.319 77.962-14.418-7.524-17.763-21.056-20.133-35.442-2.59-16.192 5.497-30.663 7.014-46.705-8.187 3.064-11.66 10.176-12.99 16.006-2.8 13.674-13.75-9.759-27.168-11.887-4.868 11.146 27.436 30.174 15.402 37.482-15.196-14.919-24.333-8.666-38.024 3.873-15.805 12.47 3.342-34.884 1.469-40.3m24.563 131.417h.006zM325.993 532.965c12.32-6.053 20.789 8.715 30.828 13.356 8.174 5.212 16.626 10.602 22.088 19.556 3.495 5.811 10.8 7.705 16.89 10.562-20.94 3.261-19.17 20.93-28.914 29.438-3.741.32-11.775-11.81-15.646-15.876-11.706-12.997-22.237-28.8-24.605-46.919.089-2.595-3.123-9.489-.641-10.117M457.869 758.24c-2.074-5.23-3.48-11.436-7.311-15.48-17.074-16.438-.194-30 6.88-47.609 3.065-5.387 6.24-11.363 12.266-12.062 15.803-1.83 23.368-15.854 36.673-21.595l-2.446-5.144c-21.288 8.48-42.655 16.471-63.86 25.7-7.536 3.694-14.252 20.091-20.641 4.983-8.608-16.357-33.48-22.415-39.001-42.103-3.357-9.336-5.117-16.897 5.034-22.17 1.403-.73 3.063-2.24 3.605-3.969 12.294-46.487 107.095-11.227 148.885-73.463-23.374 11.805-50.164 1.548-73.46 14.318-2.233 1.241-5.36.766-8.161-1.239-12.488-8.942-26.586-9.643-41.11-9.629-37.028 4.305-18.794-30.793-42.865-27.926-7.423 1.875-12.328-.72-16.396-8.675-11.318-25.542-37.35.885-44.221-26.839-6.791-47.78-36.467-70.68-21.794-117.433 10.316-42.958 39.239-42.753 48.666-76.507 9.212-49.172 63.323-50.06 106.124-54.526 39.81-4.773 80.98-9.705 121.755-11.088 37.706-1.083 83.718 3.014 121.457-6.226 27.024-5.415 56.57 3.93 83.997 6.464 13.409 2.22 33.807 9.224 40.086 22.994.332 6.86-8.84 11.971-9.888 19.14-4.86 21.69-21.471 23.988-39.058 26.421-33.668 5.072-66.988 1.554-100.701 2.711-7.196-.055-14.88-.43-22.343 4.717 29.718 14.493 62.174 13.975 93.494 10.638 10.175.232 30.096-7.896 25.418 10.015-7.794 24.056-19.798 45.58-26.482 68.226-11.65 32.847-84.836-12.587-94.6-27.373-44.81-54.095-303.707-49.439-312.466 27.72 3.582 3.996 7.557.453 10.187-1.89 10.682-7.969 21.444-15.365 32.52-22.787 21.634-15.406 55.244-18.065 84.898-17.254 49.444 2.452 118.345-10.782 156.784 25.251 35.626 41.854 125.254 46.534 101.72 119.474-14.921 48.281-10.237 96.21-4.49 132.57.974 6.158-.837 10.658-6.251 15.53-58.495 49.47-40.364 99.515-113.577 135.217-53.997 30.897-51.174 38.681-70.045 91.008-21.837-5.988-50.152-87.578-59.282-110.11m278.165 201.864c.239 4.127.144 7.248-3.273 9.833-7.236 5.475-14.504 11.155-21.532 16.647-41.856 35.261-8.656 1.525-31.22-40.513-8.881-17.102-8.55-31.814 1.019-44.979 23.146-31.849 33.71-70.562 42.199-101.667 6.767-24.798 10.382-49.888 19.129-74.238 1.759-4.76 2.764-5.508 3.465-5.572 15.214 16.304 26.459 40.348 25.69 66.11-1.885 11.224-3.281 22.724-4.63 33.846-3.657 30.141-7.44 61.31-21.36 89.827-7.37 15.095-10.562 32.155-9.487 50.706m34.435 365.056c-41.477-101.77-41.335-212.014-9.628-314.794 2.716-8.212 5.534-17.807 4.66-27.77-.604-6.9 2.81-9.275 8.914-11.046 16.33-4.72 39.65 9.691 43.547 25.13.576 2.183.69 3.814-.522 5.197-10.275 11.722-14.03 26.295-17.66 40.387-22.697 80.79-38.68 192.863-29.311 282.896m51.803-498.746c-1.138 10.713-7.548 8.378-9.171-.63-3.737-8.479-7.24-17.127-12.062-25.269-3.124 16.28-5.363 34.101 7.845 50.073 16.903 27.842 14.12 80.33 12.019 107.207.554 15.708-15.585-4.265-40.06-3.21-6.575-.84-14.22 3.176-20.814 3.212-6.955-8.68-4.764-22.959.623-32.57 27.425-46.742 22.859-99.166 28.488-149.549 2.929-6.874.525-11.658-7.815-11.42-2.091-5.929 1.78-14.464-1.211-20.184-3.132-5.836-4.022-10.586-2.721-14.523 1.422-4.303 5.597-7.96 13.138-11.51 15.313-4.535 16.34-43.234 26.592-41.268 13.475 3.565 1.739 36.935 8.03 50.495 3.25 19.087-17.804 29.951-23.686 47.901 9.042-2.583 16.428-8.737 21.005-13.717 2.66-1.66 5.285-7.57 8.32-6.7 1.272.593 1.165 2.083.858 4.287-2.944 22.262-5.983 44.905-9.378 67.375m54.543 186.534c39.176-23.932 81.498-24.593 122.34-25.132l.003-1.385c19.89 2.146 78.809-10.039 65.656 26.47-13.023 22.32 2.372 36.833-29.902 25.134-18.09-8.626-43.051-2.693-60.308.186-26.205 4.69-52.284 6.372-78.285 13.17-10.447 2.741-19.952 6.36-29.06 11.064-2.423 1.252-4.193 1.6-5.254 1.036-9.974-27.485-13.111-35.119 14.81-50.543m108.453 564.227c-15.386-1.156-66.186-2.152-65.974-16.922-1.531-21.122-1.762-42.952-.687-64.884-.013-4.658 1.239-9.319 6.417-5.864 28.597 15.621 59.957 14.223 87.106 11.682 9.45-.883 19.106-1.749 28.65-3.099 8-1.039 9.707 1.123 7.884 9-4.374 17.845-8.84 37.134-13.653 58.967-1.116 11.58-42.152 10.682-49.743 11.12m-63.382 112.036c-.265-8.269 3.554-10.393 10.443-8.865 25.367 4.595 51.599 9.348 78.36 3.75 1.658-.348 3.938-.504 5.397.724 3.084 3.353 1.04 11.02 1.467 15.24 2.927 33.71-18.808 23.645-46.046 31.772 31.307 16.752 44.436-.233 44.068 13.154-2.02 36.49 8.872 27.935-23.81 45.273-2.78 1.572-3.788 3.556-3 5.9 6.282 9.432 23.049-16.663 30.29 19.835 3.859 16.86 19.089 20.54 35.539 14.936 5.715-1.947 10.572-3.459 12.13-2.203 2.985 5.273-1.038 20.822-2.514 28.014-2.731 17.76-12.965 32.732-29.53 37.031-79.71 17.531-116.61-136.927-112.794-204.56m-1.431-71.39c.815-6.032-3.553-39.525 7.39-34.58 32.966 11.258 69.226 4.124 100.154 5.466 2.272 4.092-1.907 19.758-2.613 26.353-2.423 14.34-4.927 29.165-5.354 44.05-.228 7.928-4.228 12.522-12.228 14.044-10.745 2.952-93.666 9.312-87.19-13.82-.11-13.663.149-27.862-.16-41.513m209.204-1057.147c-27.614 13.861-61.001 14.365-92.992 15.715-2.405.097-6.431.26-6.455 4.762.714 10.534 54.234 8.474 68.744 7.622 14.935-.205 48.39-4.958 52.613 13.856 8.326 33.981-13 53.591-4.657 89.37 2.852 13.772-8.46 7.84-16.168 5.112-18.514-6.703-37.661-13.635-57.644-16.817-14.877-2.364-29.913-5.328-45.431-2.108-3.784.788-6.444.51-8.135-.857-4.597-6.382-2.113-18.55-5.162-26.334-3.561-15.87 4.94-26.189 21.152-23.175 13.942 2.396 28.204 3.744 41.995 5.048 16.308.6 32.97 5.258 49.384 4.764-10.377-30.538-50.934-23.432-76.245-24.313-24.832 1.326-77.576-3.582-95.582 15.456 15.246 8.777 27.68-1.85 39.328.065 1.414.936 2.29 3.062 2.762 6.691 1.77 13.633 2.193 25.16-1.497 37.104-2.578 8.346-3.451 13.224-1.067 16.721 2.257 3.31 7.078 4.894 17.199 5.65 30.869 2.303 62.392.16 90.915 16.603 11.326 6.57 24.43 7.974 37.986 8.932 4.672.404 6.007 1.592 5.726 6.203-2.25 29.927.089 57.317 7.145 83.738 3.216 11.094-7.581 19.03-17.99 15.348-8.54-2.814-13.465-9.939-18.543-17.07-1.992-2.963-4.475-6.649-8.97-6.116-6.248 1.18-5.313 8.514-7.932 12.766-13.674 30.1 4.432 19.298 22.42 31.995 10.525 14.371 24.005 28.51 22.005 47.698-4.898 46.89-3.248 93.053-7.673 139.877-4.3 46.272-17.073 87.962-21.49 134.804.028 10.316-8.656 9.78-16.103 9.037-18.742-6.746-36.735-1.8-54.88 1.113-32.927 5.246-65.264-1.132-98.195-.435-3.382-.049-7.961-3.077-9.91 2.335-2.023 9.008 13.439 12.863 20.366 12.123 36.242-4.879 62.203 6.476 95.393 1.358 16.396-2.149 37.665-2.446 51.935.907 4.7 1.015 6.475 3.535 5.755 8.173-1.472 9.481-3.044 19.112-4.564 28.425-2.321 14.221-4.721 28.926-6.82 43.434-1.091 7.48-6.696 7.71-11.961 8.277-27.765 3.006-55.14 8.091-83.41 7.19-28.797-.07-29.653 1.357-29.9-28.242-2.141-19.182 18.257-13.186 30.77-14.125-3.388-7.662-9.482-7.273-14.938-6.96-15.926-1.197-12.755-11.007-13.831-22.378-1.364-7.374-12.332-9.293-14.661-1.878-5.875 18.308-18.544 8.854-27.424 17.255-2.5 2.916-2.296 9.862 1.452 11.92 4.784 2.42 11.956-4.152 16.26-1.595 13.192 16.05 10.733 48.13 10.132 62.66-1.652 18.347 2.164 37.075-4.091 54.917-1.781 5.598-.725 13.492 5.442 15.205 4.44.157 4.574-3.539 4.646-5.524 3.823-22.86-2.176-32.849 10.076-55.164 3-7.328 6.49-16.45 15.925-15.083 19.405 1.534 39.75-.07 64.03-5.054 5.226-1.07 7.607.144 8.78 4.494 2.425 7.954 7.32 7.617 11.743 2.338 3.403-4.476 7.87-5.485 13.277-3.01 3.064 1.401 2.712 3.534 1.252 7.736-6.028 25.267-10.867 51.338-16.442 76.315-5.743 26.902-11.682 54.72-17.378 82.113-1.226 5.898-4.406 8.903-10.973 10.373-47.033 10.523-85.315 8.131-120.478-7.533-7.433-3.312-9.946-7.3-9.963-15.81 1.21-110.879-.91-235.864-40.367-330.56-4.093-10.746-6.44-22.02-9.541-33.063-1.797-6.4-.172-9.999 5.798-12.836 44.38-22.209 101.43-26.744 151.665-28.885 9.478 0 18.044 1.856 26.04 5.63 6.677 3.15 11.904 4.862 15.713 2.96 10.975-8.215 9.764-46.748 18.397-62.467 4.618-11.223-2.194-16.726-7.721-19.889-15.01-9.053-34.392-5.57-51.207-7.14-18.24-.87-37.104-1.769-55.726 1.828-22.333 5.123-53.8-11.456-72.423 9.655-13.675 12.95-25.827 14.808-38.245 5.846-2.181-1.575-5.697-2.35-8.357-1.847-4.77.902-8.005.533-9.891-1.132-2.687-2.37-2.75-7.619-2.417-12.936.79-12.633.385-25.522-.007-37.986-.452-10.78 4.829-17.19 15.709-18.59 65.779-9.86 133.602-16.453 200.819-6.41 6.72-.482 14.37 4.558 18.06-4.889-69.082-25.606-148.891-20.957-213.79-6.133-6.946 1.584-8.207.581-8.063-6.55.467-11.716 8.139-19.138 15.558-26.316 11.073-10.713 23.825-18.705 34.839-25.109 5.168-2.815 10.745-5.447 14.266-11.845-26-8.909-33.392 31.145-50.964-5.827.437 12.306-5.381 22.913-11.564 29.595-4.173 4.086-8.306 15.393-14.583 10.406-7.48-4.972 4.79-11.937 3.959-18.142.273-2.804-5.034-5-5.937-7.65 2.422-9.159 15.838-11.347 17.259-21.926-2.546-2.429-5.582-1.278-7 .027-1.672 1.22-3.463 1.406-4.855 2.956-1.794 1.551-2.587 2.124-4.208.697-5.716-5.2 6.792-22.697 11.318-27.16 5.342-4.425 6.01-9.5-.931-13.839-24.212-17.81 19.43-36.177-4.584-52.366-5.585-2.989 12.7-15.766 13.782-32.25-15.784 7.221-10.835-8.445-14.658-18.07-5.55-15.87 2.068-13.125 2.29-21.957-6.381-12.063 1.119-16.292 9.059-20.769 10.048-6.493 20.768-11.734 31.918-15.807 13.805-4.779 26.434-12.22 39.05-20.059-10.488-3.49-17.971 1.238-26.905 3.386-16.872 4.624-34.32 9.406-49.63 19.763-5.791 3.918-10.29 5.153-13.37 3.671-9.443-4.448-1.05-23.769-13.268-23.044-6.723.162-3.495-22.117-2.216-26.874 4.202-13.35 6.374-27.607 12.333-40.256 17.078-32.532 59.514-37.366 91.559-49.262-29.806-.348-77.34 1.5-98.877 36.128-2.685 2.86-5.615 11.517-9.554 10.462-3.445-1.033-3.587-4.692-3.41-9.748.355-12.27-.885-23.954-3.598-34.344-6.965-24.519 22.394-35.507 20.558-61.915-17.31 22.1-41.266 36.344-58.253 58.887-3.155 3.577-19.82 22.87-22.951 19.978-2.2-1.284-2.413-3.648-2.056-6.805 3.029-59.856 18.899-128.69 56.757-172.114 5.449-6.06 13.247-17.217 22.79-12.955 3.1.768.48 6.207.512 8.994-2.378 19.453 22.09 23.832 13.382 44.391-3.821 7.834 4.596 11.99 9.66 4.911 14.926-15.008-13.4-28.928-1.608-57.37 2.912-6.677 23.534-22.317 27.713-9.916 16.505 29.766 18.31 57.541 3.336 82.485-1.178 1.483-2.232 3.97.232 5.978 19.604-6.974 31.273-33.48 25.805-57.657-.962-8.564-5.966-19.42-3.286-27.476 10.004-7.635 25.8-4.053 38.213 1.041 56.347 24.361 103.283-26.499 168.53 7.545 7.136 3.178 7.51 5.893 5.042 12.976-5.744 16.635-18.573 27.633-30.278 40.055-4.307 4.147-9.558 7.641-9.376 15.735 24.049-1.697 32.886-20.853 47.598-34.858 8.855-8.193 13.686-17.984 14.36-29.102.16-2.673.664-4.299 1.492-4.833.816-.524 2.395-.308 4.975.68 8.342 4.204 20.64 5.544 28.26 10.776-.61 12.374-10.477 24.447-18.772 34.601-13 13.746-25.55 31.863-32.18 51.54 10.73-16.226 25.526-29.666 40.467-41.23 17.675-13.348 30.695-24.569 34.127-47.816.162-6.624 4.879-9.61 6.457-.905 2.672 12.032 11.674 18.603 19.617 24.4 13.309 9.715 13.698 11.852 4.63 25.41-7.907 11.833-13.173 26.064-27.586 31.29-6.304 2.887-1.765 9.204 3.22 7.717 5.549-1.238 11.29-2.5 16.805-4.255 3.91-1.62 5.13 1.096 3.268 4.358-15.976 27.706-16.392 56.998-42.47 78.146-38.753 36.847-19.35 63.302-47.567 74.22m91.98 687.257c-.615-50.472-10.644-107.334-26.975-163.933-6.963-19.859-7.736-44.962-24.983-59.353-6.104-4.424-4.11-10.63-1.042-16.679 8.476-19.352 46.7-28.676 58.946-4.092 11.268 16.036-8.626 17.52-1.886 54.224 4.975 50.746 11.07 100.618 14.695 151.746 1.259 32.39-1.517 73.723-19.084 110.795 1.078-24.269.788-47.329.329-72.708m155.168-390.38c-6.087-2.432-11.436 1.773-7.95 7.542 4.853 7.977 6.22 16.773 7.668 26.085.046 21.822 22.184 38.012 6.579 53.19-8.464 9.751-21.286 2.858-17.43-10.747 14.67-45.567-32.423-33.313-21.293-67.535 2.07-7.14 3.234-14.696 3.77-24.496.23-4.215 1.017-6.67 2.337-7.3 7.595-.044 16.095 11.34 23.22 14.973 17.175 12.92 36.176-.419 52.872 14.74 5.115 4.584 5.53 6.65.673 11.503-7.504 7.283-13.591 16.22-19.476 24.861-2.717 4.27-5.718 8.431-9.598 2.69-18.857-19.67-1.862-38.095-21.372-45.507m188.556-320.644c-10.412-7.726-23.105-7.078-31.75-5.92-22.08 2.937-44.114 1.051-65.468 10.21-5.904 2.546-13.886 2.124-21.903-1.157-27.253-11.01-51.648 2.39-78.086 4.903 8.992 9.25 20.872 12.926 31.185 7.64 34.21-17.316 51.81 13.18 88.983.528 26.682-7.052 77.05-18.04 90.056 15.553.155.486.769 2.103 2.047 2.57 18.889 6.886 23.51 29.406 40.352 39.365 34.444 18.325-7.845 53.256-21.72 72.18-19.093 18.21-42.38 80.824-63.756 83.44-28.541-4.86-53.657-47.77-61.206-71.454-8.904-28.465-25.59-50.158-49.592-64.479-31.18-17.012-14.352-36.112-45.882-43.117 6.045 11.473 13.114 23.42 16.38 34.71 1.58 5.361 5.648 9.687 11.16 11.867 35.645 14.098 50.672 45.568 61.603 77.474 4.113 12.01 8.85 24.616 17.477 35.177 12.383 16.01 23.204 57.418-4.287 64.865-35.718 11.002-56.113 38.01-97.992 25.291-30.001-7.795-38.56-41.95-53.453-65.442-21.064-33.608-31.656-73.873-62.233-100.67-5.606-4.885-7.182-13.469-10.73-20.069-1.7-3.203-.798-5.642 1.459-9.02 4.934-7.385 7.358-15.303 7.012-22.902-.943-20.597.752-41.254 5.178-63.15 8.169-27.412-7.625-59.358 12.904-76.184 45.685-32.683 32.728-100.708 79.559-124.25 9.809-5.149 18.423-12.425 25.608-21.625 22.97-29.243 67.926-11.542 99.33-8.29 30.77 3.15 59.23-9.025 91.108-10.502 2.673-.469 5.104-2.672 7.729-3.778-9.743-8.105-20.752-11.75-31.452-15.404-47.93-17.938-102.525-30.886-155.245-27.31-83.795-.899-84.802-9.648-147.167 55.245-18.081 18.961-48.24-5.837-41.222-26.483 3.609-12.393.352-23.908-2.797-35.045-3.524-18.768-12.483-18.788 7.685-23.836 56.987-19.292 99.97-46.554 158.738-13.633 21.03 10.663 41.849 15.252 63.647 14.031 37.467-3.644 76.516 25.98 112.027 21.988 41.315-3.417 66.3 29.762 84.225 66.922 10.08 17.497 20.8 30.223 33.74 40.05 42.51 32.498 6.32 111.437 3.975 156.68-1.804 11.745-8.393 20.656-15.57 29.5-9.304 10.5-27.63-.967-40.481-3.06-16.394-6.128-38.208-1.71-51.175-13.409m110.89-186.44c-40.97-36.923-47.26-102.885-110.917-107.475-21.773-2.032-44.01-1.389-64.704-10.696-21.884-9.865-45.331-14.17-71.698-13.163-49.247-.476-99.367-50.306-148.873-30.377-27.92 9.203-53.163 18.071-77.17 27.106-18.011 6.778-24.126 19.153-18.695 37.833 2.379 8.182 1.218 13.552-3.882 17.956-21.065 17.764-75.258-55.489-160.08-31.02-74.154 19.972-93.31-24.038-170.354 16.731-12.223 5.567-13.126 5.528-16.181-7.593-10.634-53.85-72.394-55.999-117.42-54.376-22.826 2.05-44.821 8.047-67.694 9.47-18.036 1.104-36.432 1.015-54.222.928-46.505-1.985-94.485 5.554-140.806 10.431-49.227 5.02-116.911 4.69-131.11 62.848-2.972 9.66-6.866 20.51-15.52 26.968-22.276 16.626-31.511 40.18-38.173 63.156-5.68 19.59-5.628 34.385.165 47.974 13.539 31.757 21.59 65.711 29.377 98.547 15.887 89.288 41.842 69.29 62.852 133.28 2.219 8.021 4.985 18.003 12.668 22.825 21.857 13.164 36.24 34.908 46.64 62.16 18.66 21.586 24.143 49.688 36.292 74.66 12.053 28.398 24.519 57.763 49.346 79.184 7.516 4.985 6.052 17.098 12.77 21.29 14.994 5.856 25.877-9.48 38.287 15.024 7.112 13.053 9.683 33.898 25.3 38.978 9.405 2.438 14.952 8.963 19.827 15.438 22.016 27.89 65.6 65.193 101.667 37.536 11.883-8.615 23.51-17.094 35.256-25.887 2.55-2.219 4.228-3.484 6.027-2.322 2.6 1.677 1.817 4.04.218 7.73-19.311 52.246-27.101 108.052-24.903 171.208.292 89.081 6.039 165.23 53.829 248.908 22.626 43.353 68.032 106.46 36.52 6.214-26.061-70.532-28.062-179.499-16.674-254.566 5.185-46.282 14.967-89.964 27.78-131.755 1.786-7.192 3.437-12.309 8.274-12.25 4.014.151 4.565 11.543 5.579 16.316 16.054 91.033 54.597 161.953 57.838 249.124 7.39 92.087 1.274 174.46 6.119 263.537 5.804 81.963-7.251 180.805 21.384 256.246 12.58 36.927 46.26 106.334 98.197 106.438 39.234-2.12 61.4-22.402 66.587-70.733 9.674-72.324-46.99-12.223-50.73-36.643-3.045-80.18-.83-148.389 17.134-232.947 30.415-132.535 66.597-286.059 83.175-415.966 5.05-34.672 8.968-69.554 17.475-103.93 1.176-5.189 2.935-13.025 6.319-13.005 5.06.047 6.722 6.84 8.188 12.834 23.389 80.145 40.025 153.335 35.827 240.897-1.643 48.008-11.965 95.02-21.508 141.231-2.462 11.091-4.891 23.398-2.33 36.791 26.547-27.905 37.593-68.013 52.734-100.483 48.578-94.835 18.679-229.556 11.522-325.975-4.314-27.219 25.272-23.286 44.31-23.279 40.12 3.131 51.247-25.309 82.605-38.4 46.204-15.835 46.073-72.41 100.328-97.03 25.172-15.818 27.049-49.128 47.508-69.446 30.204-32.986 56.778-63.27 76.076-99.906 12.689-23.946 33.642-41.156 47.977-63.989 32.708-43.942-8.608-55.248 22.128-84.409 31.47-27.383 25.873-63.443 34.64-98.746 11.229-42.196 13.229-96.877-23.1-121.43"/></g></svg>