<svg xmlns="http://www.w3.org/2000/svg" xmlns:xlink="http://www.w3.org/1999/xlink" xmlns:inkscape="http://www.inkscape.org/namespaces/inkscape" version="1.1" width="2016" height="1728" viewBox="0 0 2016 1728">
<defs>
<clipPath id="clip_1">
<path transform="matrix(1,0,0,-1,0,1728)" d="M0 1728H2016V0H0Z"/>
</clipPath>
</defs>
<g inkscape:groupmode="layer" inkscape:label="Layer 1">
<g clip-path="url(#clip_1)">
<path transform="matrix(1,0,0,-1,501.5073,629.31399)" d="M0 0C3.748 1.732 12.005-3.366 12.729 3.118 13.381 8.956 4.409 9.065-.401 11.556-1.035 11.884-1.872 11.952-2.608 11.931-8.155 11.768-15.856 12.825-16.348 5.708-16.895-2.229-8.969 .692-4.234 .023-3.126-.133-1.977 0 0 0M-63.334 4.801V4.698C-59.938 4.698-56.541 4.689-53.144 4.7-49.699 4.711-46.077 4.669-44.721 8.721-43.603 12.059-45.771 14.391-47.827 16.7-53.614 23.2-68.835 26.138-75.919 21.543-79.967 18.918-84.35 15.631-82.678 9.697-81.216 4.511-76.509 4.959-72.391 4.821-69.375 4.72-66.354 4.801-63.334 4.801M-212.343-185.792C-223.304-185.792-234.266-185.734-245.226-185.837-247.691-185.86-251.177-184.875-251.895-188.357-252.546-191.515-249.201-192.309-247.129-193.844-229.997-206.537-210.247-205.384-190.722-203.968-185.936-203.622-181.188-199.946-176.859-197.13-174.19-195.395-171.028-192.808-172.684-188.772-174.115-185.285-177.623-185.852-180.594-185.839-191.177-185.794-201.76-185.821-212.343-185.792M-143.857 46.043C-167.858 46.195-167.58 46.2-167.268 24.24-167.157 16.5-164.657 13.392-156.716 13.481-144.708 13.615-132.702 14.157-120.69 11.461-115.427 10.28-107.563 7.753-104.18 14.277-100.941 20.521-103.561 27.376-107.387 33.491-109.502 36.869-112.333 38.961-115.408 41.203-124.163 47.588-134.172 45.676-143.857 46.043M-174.013-168.215C-151.141-168.215-135.274-168.321-119.412-168.134-115.875-168.092-111.151-169.99-109.084-165.91-106.867-161.531-111.121-158.241-113.102-154.822-115.879-150.03-120.683-149.37-125.897-149.379-141.001-149.408-156.154-149.822-171.199-148.794-206.208-146.403-241.21-144.48-276.318-144.881-282.394-144.95-285.286-147.172-285.305-153.564-285.323-159.827-283.816-163.572-276.552-163.662-239.997-164.113-203.689-170.667-174.013-168.215M-100.084-215.446C-109.647-223.625-111.578-234.075-114.958-243.611-124.47-270.443-133.562-297.423-143.095-324.248-145.804-331.869-143.446-335.377-135.808-337.07-119.198-340.749-103.036-337.579-86.913-334.31-82.969-333.51-77.828-330.605-79.055-326.112-81.661-316.569-79.2-306.705-82.682-297.142-86.087-287.791-87.346-277.642-89.391-267.811-92.926-250.823-96.341-233.811-100.084-215.446M14.941-58.241C14.941-53.326 14.938-48.41 14.942-43.494 14.964-20.647 14.965-20.647-5.973-15.622-19.982-12.26-24.99-14.95-25.758-29.647-27.394-60.955-27.798-92.328-28.672-123.675-28.757-126.717-28.86-130.769-25.175-131.07-16.869-131.75-9.501-136.394-.903-135.867 7.743-135.338 12.739-131.65 12.561-122.73 12.131-101.183 16.567-79.824 14.941-58.241M-94.478-79.785C-94.478-96.808-94.368-109.682-94.526-122.551-94.6-128.526-92.529-131.881-86.05-131.782-76.215-131.633-66.376-131.694-56.54-131.754-51.585-131.784-48.726-129.858-48.511-124.526-47.14-90.555-45.671-56.587-44.297-22.616-44.142-18.764-44.269-14.122-49.062-13.604-58.792-12.55-67.878-8.561-77.847-8.388-86.245-8.242-88.793-12.098-90.081-19.618-93.733-40.939-95.801-62.305-94.478-79.785M78.473 47.035H78.581C78.581 55.735 78.15 64.464 78.712 73.128 79.193 80.546 75.964 84.741 69.266 86.307 54.721 89.705 40.209 93.504 25.474 95.784-3.322 100.238-31.822 106.3-60.618 110.844-89.682 115.431-118.493 119.58-147.957 118.857-154.249 118.702-158.39 116.581-159.785 110.781-162.493 99.524-164.814 88.162-166.86 76.765-167.691 72.13-165.412 69.435-160.397 67.878-152.558 65.444-144.677 66.514-136.832 65.873-121.738 64.64-106.098 62.97-95.66 50.9-88.837 43.011-81.803 39.965-72.162 41.079-57.125 42.817-43.555 38.771-32.22 29.155-27.193 24.891-23.19 24.423-18.21 27.566-3.017 37.155 17.507 30.517 26.574 14.866 31.042 7.155 35.636 6.435 43.13 10.479 51.389 14.936 60.473 15.504 69.288 11.494 75.843 8.512 78.462 10.888 78.47 17.53 78.481 27.365 78.473 37.2 78.473 47.035M-198.672-127.282C-175.625-127.282-152.569-126.891-129.537-127.468-119.792-127.712-116.092-124.852-116.46-114.679-117.646-81.895-114.843-49.38-108.076-17.224-106.233-8.467-109.232-3.651-119.26-3.855-137.385-4.225-155.529-3.626-173.66-3.856-181.757-3.959-185.369-1.188-184.92 7.392-184.368 17.946-184.951 28.556-184.813 39.139-184.734 45.246-187.259 48.281-193.528 48.176-205.992 47.967-218.511 48.587-230.912 47.625-251.692 46.01-257.34 40.382-262.855 19.691-267.482 2.328-270.463-15.211-272.659-33.089-276.086-60.996-280.22-88.771-280.822-116.956-280.995-125.015-277.744-127.465-270.077-127.366-246.279-127.057-222.475-127.253-198.672-127.282M-286.145 212.51C-313.021 212.417-339.896 212.454-366.754 212.965-391.189 213.43-410.167 202.369-426.472 185.834-433.705 178.501-437.664 169.167-437.435 158.222-436.907 132.881-436.139 95.203-435.559 69.876-432.222-75.973-428.323-222.571-431.366-368.426-432.53-424.004-435.755-479.544-434.929-535.155-434.726-548.882-423.869-559.298-410.565-559.174-390.879-558.992-371.367-556.071-351.696-556.614-347.026-556.742-343.899-555.779-343.539-549.919-340.246-496.363-353.856-444.757-354.454-391.591-354.799-360.983-352.31-330.364-353.9-299.766-355.527-268.457-362.813-237.678-365.636-206.458-371.181-145.137-376.68-83.955-379.537-22.437-381.408 17.851-381.785 58.354-375.706 98.624-371.924 123.671-349.418 145.46-324.53 145.421-277.603 145.347-230.671 145.45-183.752 144.759-175.077 144.632-173.133 147.528-173.913 155.013-174.696 162.525-174.811 182.46-175.87 189.927-178.606 209.221-182.885 212.814-202.129 212.826-230.124 212.843-258.135 212.606-286.145 212.51M91.889-180.332C92.218-259.812 90.68-339.246 87.717-418.679 86.182-459.836 73.049-496.611 51.092-530.731 34.122-557.1 8.771-571.594-21.57-571.485-90.066-571.237-158.351-577.126-226.813-576.644-251.031-576.474-275.259-576.625-299.472-577.106-321.688-577.546-321.342-590.172-321.694-612.551-321.937-627.947-315.676-637.86-301.541-644.492-291.23-649.329-280.509-652.125-269.849-655.569-243.69-664.022-216.423-667.283-189.483-670.469-171.765-672.566-153.674-674.61-136.15-677.132-109.57-680.958-82.811-682.153-56.304-683.955-13.729-686.848 29.176-684.782 71.94-685.071 79.053-685.12 83.891-682.518 88.316-677.044 105.952-655.23 110.893-628.577 114.34-602.372 119.739-561.336 124.74-507.755 124.056-466.163 124.024-464.275 123.887-462.305 124.333-460.507 132.208-428.75 129.937-396.025 132.242-363.842 134.525-331.966 137.929-300.067 138.801-267.958 139.421-245.119 140.696-221.981 142.719-199.096 146.639-154.767 149.644-110.387 151.037-65.943 152.24-27.563 158.041-25.027 109.668-24.193 97.24-23.979 93.985-29.975 92.315-39.488 91.604-43.545 91.905-47.796 91.903-51.958 91.88-94.75 91.889-137.541 91.889-180.332M-311.958-314.771C-312.331-290.921-311.506-258.803-309.819-226.676-308.391-199.487-308.637-172.209-307.225-145.019-306.291-127.021-304.933-108.88-301.601-91.212-297.523-69.595-293.907-47.858-289.89-26.243-285.843-4.472-281.467 17.143-275.254 38.313-269.493 57.945-254.077 67.678-233.488 67.297-221.015 67.067-208.475 68.528-196.058 67.744-184.811 67.035-181.12 72.895-180.45 82.201-179.667 93.087-180.929 104.061-178.333 114.905-177.067 120.196-179.507 123.062-185.662 123.383-229.436 125.668-273.205 128.085-317.06 127.674-338.563 127.472-357.855 107.686-357.957 86.05-358.412-10.865-357.269-108.217-345.005-205.217-340.005-244.758-336.664-286.287-335.907-326.823-334.511-401.535-331.262-475.155-321.806-549.426-320.942-556.21-318.492-558.695-311.996-558.75-258.617-559.195-205.229-558.636-151.873-557.058-124.694-556.253-97.523-555.184-70.365-553.836-35.167-552.09 10.636-558.882 33.65-525.943 57.162-492.289 67.818-453.003 68.605-413.494 71.017-292.448 68.869-171.33 73.603-50.276 74.854-18.263 79.129-23.548 45.069-22.373 37.781-22.121 35.679-25.055 34.793-32.227 31.533-58.63 33.267-85.098 32.587-111.526 32.318-121.988 33.769-132.477 28.788-142.669 26.669-147.005 27.592-152.793 30.469-157.903 37.242-169.932 39.811-183.064 39.516-196.9 39.178-212.782 37.782-228.709 37.888-244.492 38.434-325.863 34.042-407.113 33.234-488.426 33.047-507.258 27.744-522.25 15.499-535.438 10.055-541.3 3.658-545.096-5.178-545.007-41.881-544.639-78.59-544.929-115.296-544.823-137.995-544.757-161.706-520.676-162.115-498.105-162.326-486.486-158.366-475.897-155.474-465.013-152.277-452.984-153.105-451.618-165.381-451.598-195.654-451.551-225.928-451.623-256.201-451.75-264.757-451.785-272.307-449.185-279.564-444.723-302.547-430.594-309.065-407.364-311.542-383.243-313.581-363.384-311.958-343.149-311.958-314.771M15.301-260.537C15.301-235.55 15.271-210.563 15.312-185.577 15.339-168.516 3.998-155.288-13.19-154.205-35.417-152.805-57.722-152.7-79.968-151.543-88.312-151.109-91.471-154.845-89.816-162.199-85.623-180.825-85.903-200.261-79.41-218.457-77.772-223.046-76.949-227.827-76.136-232.689-72.999-251.457-69.059-270.09-65.461-288.782-62.562-303.847-57.753-318.539-58.055-334.219-58.21-342.25-61.877-346.142-68.603-349.668-76.73-353.929-85.753-352.15-93.687-354.818-111.154-360.693-128.886-358.384-146.474-358.177-159.246-358.026-169.5-346.86-166.018-337.254-162.237-326.828-162.518-315.793-158.793-305.479-146.303-270.885-135.5-235.642-118.88-202.662-116.812-198.558-115.832-194.675-119.84-191.457-124.135-188.008-145.26-191.151-149.372-194.893-172.219-215.681-197.465-230.93-229.844-221.707-249.511-216.104-267.663-206.917-276.078-186.004-277.631-182.142-280.534-181.095-284.233-181.582-288.42-182.132-289.758-185.067-289.738-188.864-289.676-200.588-290.866-212.225-291.677-223.905-294.823-269.217-295.506-314.67-293.702-360.001-292.958-378.72-289.957-398.103-279.995-415.098-273.126-426.817-264.46-434.688-249.257-433.825-195.606-430.776-141.873-431.674-88.173-431.989-77.188-432.053-68.555-427.9-59.623-423.025-56.756-421.459-54.248-419.653-55.333-416.083-56.339-412.777-59.584-413.149-62.092-413.545-88.374-417.698-115.036-412.926-141.328-417.055-150.174-418.444-158.694-417.166-165.646-410.805-168.479-408.213-171.039-404.841-169.64-400.921-168.284-397.122-164.547-395.468-160.507-395.458-126.455-395.375-92.356-394.285-58.37-395.757-40.724-396.523-24.971-411.92-36.8-428.434-45.658-440.799-57.189-450.522-74.47-449.441-85.4-448.756-96.407-449.3-107.38-449.32-133.864-449.37-138.905-453.781-142.002-480.425-144.954-505.824-134.468-519.538-114.183-521.93-82.023-525.724-49.382-525.39-16.951-526.938-11.238-527.21-7.056-525.205-2.897-521.25 10.364-508.637 8.487-491.307 9.909-475.984 12.629-446.682 10.487-417.104 12.15-387.579 14.53-345.316 16.533-302.937 15.301-260.537M-279.369 234.235C-251.327 234.071-223.287 234.214-195.358 235.318-176.88 236.04-164.48 221.929-160.386 208.849-155.836 194.311-154.478 166.913-154.021 152.007-153.681 140.896-148.528 136.236-139.228 136.589-79.348 138.868-17.027 127.418 41.09 113.688 56.411 110.068 71.507 105.773 85.557 98.685 92.606 95.128 96.472 89.12 96.314 80.29 95.877 55.684 96.44 31.06 96.034 6.452 95.897-1.838 98.667-4.053 106.97-4.99 123.635-6.87 140.731-7.864 156.153-15.85 165.995-20.947 172.966-28.163 170.837-40.033 166.834-62.344 168.418-85.47 166.873-108.023 163.21-161.473 160.336-214.957 157.544-268.458 154.358-329.514 154.777-390.75 149.532-451.699 144.797-506.725 140.574-562.407 131.559-616.987 126.836-645.579 118.559-674.242 95.777-695.659 89.507-701.553 82.493-705.027 74.702-704.695-15.507-700.85-108.148-703.646-197.455-688.639-232.524-682.747-267.845-677.062-301.392-664.646-327.103-655.129-340.422-636.544-339.36-608.184-338.688-590.225-339.289-577.619-357.684-577.111-375.083-576.63-392.497-576.702-409.905-576.598-436.375-576.44-452.687-560.06-452.701-533.652-452.774-389.772-447.685-245.886-451.051-102.035-452.927-21.845-454.932 70.648-455.483 150.866-455.708 183.519-440.414 204.282-414.733 219.955-397.704 230.346-378.888 235.079-358.84 234.966-332.41 234.817-305.889 234.389-279.369 234.235"/>
<path transform="matrix(1,0,0,-1,1117.5869,1104.2285)" d="M0 0C3.027 0 6.055 .048 9.08-.011 13.348-.094 18.512 .062 19.807 4.325 21.296 9.23 16.213 11.299 12.429 12.737 .16 17.398-12.519 20.388-25.679 21.12-48.504 22.392-71.268 24.328-93.646 29.212-100.179 30.637-102.37 27.543-101.837 22.151-101.061 14.313-98.332 8.891-88.85 6.56-59.49-.659-29.343 5.462 0 0M-2.743 112.359V112.141C-17.889 112.141-33.035 112.072-48.18 112.171-55.191 112.217-64.637 111.37-64.684 104.441-64.732 97.197-55.106 98.018-48.769 98.121-3.778 98.856 40.971 96.279 85.431 89.027 101.241 86.448 100.732 86.773 101.412 103.99 101.812 114.083 98.362 117.433 88.464 117.022 74.202 116.432 60.214 115.452 45.992 112.987 30.186 110.246 13.538 112.359-2.743 112.359M-92.916 202.738C-92.925 183.213-92.211 182.875-75.978 187.382-41.333 197.002-6.315 205.316 27.822 216.708 40.297 220.871 52.854 224.976 64.431 231.409 66.907 232.786 70.911 233.501 70.158 237.374 69.489 240.819 65.748 239.139 63.443 239.956 48.058 245.411 32.035 242.383 17.629 238.924-14.779 231.143-47.844 226.716-80.14 218.302-91.679 215.295-94.51 211.021-92.916 202.738M-78.634 163.925C-72.53 160.988-67.929 161.882-63.485 161.9-17.399 162.096 28.471 168.756 74.652 166.517 79.486 166.282 84.482 166.8 89.218 167.826 93.877 168.837 97.298 171.502 97.062 177.286 96.614 188.255 97.28 199.317 96.129 210.196 94.539 225.215 94.014 225.138 81.457 217.971 80.167 217.235 78.582 217.037 77.224 216.4 37.933 197.981-4.007 187.687-45.418 175.624-56.082 172.517-68.451 173.102-78.634 163.925M29.788 52.446C58.169 52.446 79.401 52.566 100.632 52.38 107.753 52.316 111.138 56.193 112.147 62.404 113.221 69.01 109.599 74.774 103.613 75.053 93.26 75.533 83.846 80.133 73.632 80.363 36.875 81.194 .107 81.675-36.639 82.827-53.211 83.347-69.609 85.951-84.474 94.021-93.947 99.164-94.604 106.002-86.141 112.496-75.736 120.479-63.679 124.896-50.559 125.215-18.733 125.991 13.055 120.836 44.819 123.429 61.21 124.767 77.878 123.73 94.096 128.708 101.68 131.035 103.76 134.45 102.964 141.523 102.08 149.376 96.354 148.666 91.094 148.55 56.641 147.787 22.121 147.968-12.24 145.741-36.89 144.145-61.472 144.654-86.08 144.27-93.375 144.155-97.393 142.435-97.448 134.138-97.599 111.454-97.158 88.782-99.406 66.098-100.822 51.807-99.725 51.873-86.355 56.054-82.855 57.147-78.866 57.127-75.132 56.955-37.784 55.233-.599 49.538 29.788 52.446M-119.815-60.745H-119.718C-119.718-45.944-119.831-31.144-119.665-16.345-119.594-10.108-121.235-6.546-128.449-6.083-189.604-2.16-251.562 .048-312.393 7.542-330.095 9.723-329.561-16.598-329.347-27.907-329.111-40.425-331.219-73.81-321.839-82.262-316.066-87.463-296.68-88.929-289.138-90.091-237.002-98.126-184.893-106.681-132.754-114.855-122.8-116.416-119.508-113.614-119.729-104.006-120.06-89.593-119.815-75.166-119.815-60.745M19.053 34.715C18.918 33.731 18.783 32.748 18.648 31.764 21.745 29.735 24.979 27.885 27.914 25.644 36.485 19.097 42.253 5.298 38.525-2.408 33.788-12.203 25.109-15.851 14.213-15.374 3.237-14.894-7.778-15.39-18.773-15.219-32.396-15.009-46.507-17.573-59.499-13.696-71.255-10.188-82.688-11.457-94.286-10.889-99.412-10.638-101.999-13.177-101.997-18.39-101.983-48.758-102.009-79.125-101.995-109.492-101.993-113.153-101.27-116.053-96.635-116.649-88.795-117.659-81.042-120.165-73.216-120.328-26.254-121.303 20.678-124.922 67.672-122.791 82.388-122.124 94.118-116.244 100.91-101.533 106.152-90.179 108.082-78.883 108.206-66.521 108.513-36.198 109.641-5.877 110.842 24.43 111.162 32.515 108.141 35.093 100.336 34.805 87.84 34.343 75.313 34.708 62.799 34.714 48.217 34.72 33.635 34.715 19.053 34.715M-115.163 151.975C-115.163 171.228-115.156 186.029-115.165 200.831-115.169 207.897-117.612 211.878-125.579 209.362-145.293 203.137-165.609 203.579-185.988 203.19-198.886 202.945-205.292 210.239-210.901 219.437-216.305 228.298-211.191 235.207-205.566 241.777-202.867 244.93-200.436 248.31-197.772 251.494-179.996 272.749-170.874 297.321-169.867 324.921-169.739 328.441-168.281 333.065-172.873 334.985-177.121 336.761-180.697 334.89-184.139 331.856-233.157 288.653-277.822 241.602-313.298 186.355-324.366 169.119-320.532 126.931-305.984 112.681-290.18 97.199-270.247 89.712-249.231 84.236-227.642 78.61-205.733 80.066-183.858 79.891-181.125 79.869-177.125 81.434-176.248 77.246-175.657 74.424-178.584 72.691-180.687 71.125-182.494 69.78-184.411 68.444-186.483 67.619-210.268 58.152-234.735 59.241-258.509 65.982-281.122 72.395-301.25 84.716-319.979 99.047-322.271 100.802-324.582 103.83-327.891 101.857-330.511 100.295-329.562 97.068-329.575 94.537-329.662 77.079-329.111 59.598-329.855 42.17-330.243 33.065-326.655 28.439-318.307 27.473-296.663 24.967-275.011 22.354-253.291 20.751-237.45 19.582-221.342 21.233-205.626 19.347-179.986 16.269-154.355 15.974-128.643 15.966-122.481 15.964-119.539 18.317-119.678 24.677-120.641 68.676-113.508 112.398-115.163 151.975M185.432 513.423C187.468 525.299 185.479 567.424 168.324 567.938 154.454 568.354 94.044 579.14 91.048 562.002 83.628 519.553 100.785 477.015 104.406 435.104 106.594 409.79 109.415 384.392 106.708 359.139 103.326 327.604 104.156 296.094 108.443 265.102 111.438 243.459 114.967 221.914 116.559 200.088 117.884 181.919 118.979 163.572 138.773 154.324 139.742 153.871 140.419 152.774 141.209 151.955 152.342 140.429 151.081 128.298 136.688 121.257 124.923 115.501 123.141 107.277 125.172 95.631 126.306 89.13 130.96 87.256 135.033 84.297 143.36 78.249 150.131 71.6 148.324 59.972 147.013 51.526 140.018 47.361 134.531 42.715 128.994 38.025 127.621 33.226 127.135 26.422 124.966-3.926 125.995-34.297 125.59-64.654 125.415-77.762 125.763-90.632 121.288-103.603 115.737-119.696 100.185-137.108 85.925-138.322 72.345-139.479 58.61-140.874 45.071-140.054 20.565-138.569-5.761-138.659-30.979-138.668-44.548-138.673-58.155-138.854-71.719-138.361-78.642-138.11-95.071-133.25-100.245-138.789-105.68-144.61-100.988-164.981-102.259-173.531-111.732-237.303 19.646-206.844 52.871-207.562 85.033-208.258 121.372-211.762 151.363-197.59 194.505-177.203 186.901-123.493 187.497-83.64 188.484-17.647 182.279 48.146 181.307 114.035 180.348 178.896 177.456 243.732 178.062 308.617 178.094 312.006 177.293 315.395 177.174 318.793 174.899 383.403 179.169 448.485 185.432 513.423M-342.862 280.021C-340.682 338.643-347.019 402.578-332.271 465.979-325.171 496.5-318.717 526.187-298.367 550.732-264.588 591.473-200.048 583.936-152.369 585.333-106.214 586.685-59.811 584.428-13.745 588.067 10.851 590.011 35.466 590.188 60.103 590.254 63.71 590.264 67.62 589.497 69.204 594.742 77.187 621.181 67.646 650.171 41.441 659.834 20.194 667.668-1.893 671.313-24.312 674.515-113.852 687.303-203.278 693.56-293.727 690.74-309.032 690.262-330.606 693.731-343.142 682.618-360.211 667.486-360.884 629.389-365.661 608.597-370.52 587.445-371.936 556.062-374.516 534.51-382.831 465.059-382.682 395.069-389.556 325.515-394.199 278.533-393.875 231.26-396.896 184.178-398.367 161.25-401.804 138.525-402.269 115.547-402.755 91.479-401.613 67.327-404.347 43.354-404.937 38.173-403.216 34.479-397.069 34.215-383.858 33.647-370.791 31.258-357.456 31.782-350.33 32.062-347.377 34.192-347.184 41.683-345.946 89.819-344.023 137.94-342.98 186.081-342.34 215.678-342.862 245.301-342.862 280.021M-325.911 295.71C-325.911 268.377-325.844 241.044-326.013 213.713-326.03 210.906-326.637 207.921-323.568 207.005-320.631 206.129-320.597 209.611-319.286 211.246-310.762 221.868-301.699 232.084-293.61 243.024-269.218 276.015-242.275 306.748-212.115 334.491-203.037 342.842-192.171 349.452-181.492 355.792-171.566 361.683-159.638 357.655-157.132 348.022-152.497 330.202-153.388 312.033-155.518 293.958-158.241 270.842-173.549 254.617-187.057 237.459-189.803 233.972-194.127 230.975-191.329 225.694-188.775 220.876-183.969 221.418-179.375 221.039-163.683 219.744-148.589 223.998-133.348 226.18-119.28 228.192-109.512 234.841-107.708 251.93-105.535 272.508-106.82 293.354-102.034 313.825-100.273 321.356-98.677 323.993-91.044 323.86-81.728 323.697-72.022 322.126-63.379 327.802-59.813 330.145-56.71 332.494-60.82 336.542-69.282 344.876-74.428 355.65-81.961 364.641-92.203 376.865-98.828 390.007-97.146 406.893-95.909 419.299-96.948 431.932-96.942 444.463-96.939 448.994-97.849 452.982-103.209 453.668-107.761 454.25-109.57 451.311-111.495 447.548-115.374 439.968-115.154 431.292-118.461 423.758-120.726 418.598-121.875 409.226-128.647 410.71-136.642 412.462-132.107 420.592-131.268 426.233-131.101 427.357-131.132 428.511-130.954 429.633-130.164 434.604-129.029 440.449-135.343 441.951-140.942 443.282-145.421 439.831-147.647 434.287-150.178 427.981-152.211 421.438-155.222 415.376-157.445 410.9-159.469 404.136-166.012 405.781-171.573 407.18-169.268 413.445-169.712 417.746-169.945 420.005-169.542 422.363-169.996 424.559-170.93 429.084-172.514 433.561-177.313 435.282-182.723 437.223-185.738 433.177-188.647 429.692-194.211 423.025-197.892 414.857-204.691 409.186-207.099 407.178-209.064 402.813-213.022 405.292-216.935 407.742-215.829 412.477-214.659 415.705-212.722 421.055-210.512 426.042-210.665 432.015-210.816 437.889-214.113 441.049-218.463 443.592-223.183 446.351-226.61 442.618-229.516 440.094-233.751 436.416-236.695 431.197-241.062 427.737-245.988 423.835-249.488 413.139-256.089 417.377-263.116 421.889-254.592 429.252-253.112 435.437-251.274 443.116-248.99 451.239-255.081 457.944-261.91 465.46-268.162 458.312-274.519 456.187-276.297 455.592-277.917 454.495-279.712 453.988-283.369 452.958-287.241 447.926-290.764 452.775-293.619 456.707-290.559 460.726-287.906 464.058-281.296 472.36-275.837 480.671-283.553 491.432-284.714 493.051-286.983 496.232-283.99 498.554-281.513 500.474-278.925 499.289-276.667 497.712-269.227 492.521-262.042 486.93-254.368 482.118-230.144 466.928-204.71 454.2-175.191 456.21-146.109 458.19-120.241 470.798-94.959 484.361-91.832 486.038-89.72 490.475-85.203 487.923-80.402 485.209-79.09 480.911-79.152 475.474-79.393 454.97-78.163 434.385-79.586 413.978-80.906 395.038-71.954 381.445-60.879 368.258-56.983 363.62-52.117 359.787-48.317 355.083-32.071 334.972-36.276 317.872-60.059 309.365-65.944 307.259-71.345 302.964-78.22 303.704-83.645 304.288-83.792 299.78-85.034 296.321-90.048 282.36-88.185 267.857-88.356 253.536-88.542 237.992-86.779 236.617-71.475 239.523-69.279 239.94-67.262 241.25-65.071 241.756-48.71 245.538-32.438 249.857-15.919 252.756 .699 255.673 17.521 257.781 34.343 259.064 49.66 260.233 65.433 262.691 79.92 254.645 87.854 250.238 89.898 253.436 89.772 261.22 89.527 276.347 88.219 291.462 87.862 306.514 86.831 350.128 84.002 393.719 85.118 437.379 85.177 439.647 85.174 441.974 84.752 444.188 77.555 481.962 74.063 520.179 71.677 558.484 71.136 567.161 68.651 570.716 59.642 570.418 41.48 569.819 23.203 568.216 5.197 568.549-74.087 570.013-153.116 562.172-232.357 563.259-255.18 563.573-273.222 552.768-286.724 535.346-309.849 505.507-319.792 469.844-321.97 433.376-324.702 387.625-327.089 341.663-325.911 295.71M203.857 494.623C203.738 492.948 203.62 491.341 203.507 489.813 197.594 409.653 196.867 329.366 197.081 249.021 197.225 195.502 198.171 141.987 199.655 88.489 201.746 13.115 199.367-62.352 204.146-137.532 205.785-163.354 186.401-190.589 168.811-207.649 150.061-225.835 124.996-226.528 100.427-225.865 71.412-225.082 42.448-225.479 13.49-227.737-15.65-230.01-44.804-229.845-73.975-229.763-97.121-229.697-118.92-208.248-119.616-184.818-119.93-174.224-120.113-154.271-121.486-143.67-122.496-135.888-126.427-133.235-132.702-131.781-195.108-117.327-261.73-120.807-322.968-101.869-341.953-95.998-347.275-88.634-347.294-69.343-347.316-46.185-347.571-23.023-347.217 .13-347.081 9.027-350.519 12.018-359.291 12.16-375.39 12.42-391.682 9.785-407.445 16.502-419.521 21.648-422.888 26.904-421.449 39.822-418.755 64.011-421.983 88.458-419.856 112.594-413.28 187.214-413.109 262.486-408.017 337.267-401.53 432.533-396.404 528.838-384.56 623.594-382.058 642.75-377.021 660.297-368.057 677.078-358.022 695.862-343.14 706.01-321.254 707.357-210.429 714.18-96.386 709.489 12.591 687.74 31.173 684.031 49.151 680.728 64.793 669.267 80.287 657.914 89.903 644.075 89.361 623.731 88.658 597.37 89.217 587.927 116.101 587.93 130.513 587.932 145.064 586.656 159.308 588.227 208.891 593.691 206.332 529.473 203.857 494.623"/>
<path transform="matrix(1,0,0,-1,1762.7149,747.1694)" d="M0 0C10.143-2.955 14.333 3.933 17.324 12.963 18.909 17.75 21.176 23.586 15.81 25.892 8.778 28.912 10.516 21.458 8.799 17.93 6.243 12.673 2.158 7.572-4.292 10.137-11.4 12.963-7.871 19.572-7.07 24.738-6.811 26.419-4.945 27.794-4.167 29.472-3.453 31.009-1.708 32.669-3.567 34.496-5.632 36.523-7.606 35.357-9.622 34.191-16.882 29.991-20.601 18.176-17.553 8.179-15.009-.164-8.173-.408 0 0M36.584 24.473C36.549 7.157 40.108 4.932 55.237 13.379 60.958 16.573 71.307 19.07 70.417 24.53 69.417 30.669 59.564 33.423 52.827 36.093 39.546 41.357 36.613 39.029 36.584 24.473M-45.516 5.266C-39.5 4.424-35.546 5.602-38.165 11.487-40.365 16.431-40.389 21.455-39.064 26.519-37.884 31.036-37.424 34.459-42.693 36.305-49.758 38.779-55.374 33.045-61.329 30.192-65.027 28.42-68.435 26.048-71.998 23.989-78.521 20.221-77.703 16.259-71.503 13.705-68.932 12.645-54.779 6.561-45.516 5.266M-205.136 122.376C-211.819 122.376-217.073 122.449-222.324 122.353-226.336 122.28-231.408 123.223-232.282 117.653-233.258 111.435-228.58 109.603-223.473 108.25-201.416 102.41-179.183 97.972-156.191 99.328-151.775 99.589-144.651 97.354-145.271 104.85-145.716 110.218-147.77 117.185-155.458 117.737-172.527 118.964-189.272 123.714-205.136 122.376M-268.124 13.476C-244.39 9.934-217.075 18.691-189.219 18.077-185.652 17.998-179.154 15.569-178.957 21.106-178.792 25.757-185.314 26.375-189.634 27.424-190.35 27.598-191.134 27.512-191.886 27.518-230.263 27.813-268.66 26.807-306.999 29.542-313.15 29.98-320.521 29.559-320.25 21.363-320.023 14.52-313.48 13.408-307.399 13.452-295.727 13.535-284.054 13.476-268.124 13.476M-263.106-117.307C-258.946-116.924-255.119-116.279-252.587-115.96-236.156-113.894-219.801-111.231-203.564-107.979-188.459-104.954-173.618-100.725-158.289-98.856-154.303-98.376-152.613-95.043-151.605-91.945-148.909-83.651-150.771-74.655-154.871-68.318-158.131-63.281-166.428-67.662-172.436-68.854-172.796-68.926-173.123-69.155-173.482-69.249-206.646-77.955-239.434-87.902-271.973-98.705-277.738-100.619-285.975-102.611-285.413-108.103-284.437-117.664-272.859-118.205-263.106-117.307M-234.756-22.625C-221.271-22.653-207.787-22.696-194.306-22.696-182.31-22.7-166.285-25.508-155.089-20.35-147.471-16.84-148.247-10.313-148.821-3.959-149.475 3.265-155.339 .919-159.32 .909-184.019 .847-208.718 .742-233.417 .594-245.766 .52-258.115 .435-270.464 .339-279.223 .271-319.932 4.102-316.352-12.956-314.769-20.497-309.981-22.977-302.456-22.875-279.895-22.569-257.324-22.576-234.756-22.625M-227.647 69.146C-246.659 69.531-265.682 69.82-284.631 69.638-293.661 69.551-302.694 69.005-311.712 68.429-316.355 68.132-319.405 65.183-320.449 60.864-321.403 56.92-318.359 54.375-315.403 52.874-308.856 49.552-302.892 45.559-295.355 45.055-273.28 43.578-251.177 42.978-229.079 41.348-218.168 40.544-207.24 39.867-196.298 39.68-182.979 39.452-167.821 42.557-155.243 36.949-152.381 35.672-148.655 35.466-146.875 38.142-141.892 45.633-144.068 54.174-145.098 62.168-145.93 68.633-152.026 67.979-156.885 67.989-180.344 68.041-203.986 68.668-227.647 69.146M-181.381-38.28C-197.682-38.999-213.999-40.386-230.305-40.532-254.141-40.746-277.977-40.268-301.812-40.393-306.525-40.417-311.67-40.743-311.755-46.893-311.956-61.486-313.556-76.194-309.388-90.575-307.363-97.562-303.256-98.568-297.663-94.584-273.696-77.511-245.396-71.482-217.945-63.271-198.316-57.4-178.705-51.467-159.062-45.642-156.355-44.839-153.604-43.864-154.116-40.65-154.683-37.093-158.068-37.904-160.561-37.874-167.496-37.79-174.437-37.974-181.381-38.28M-262.972 243.27C-267.483 243.568-271.981 243.909-276.463 244.3-301.87 246.516-309.582 233.035-316.54 214.671-320.271 204.827-319.154 194.585-319.696 184.654-321.288 155.431-321.386 126.126-322.063 96.854-322.265 88.176-318.018 85.767-309.454 85.507-287.956 84.853-266.667 87.799-245.245 88.08-240.703 88.139-233.639 85.526-232.315 91.382-231.104 96.743-238.409 98.061-242.402 99.906-250.866 103.818-253.559 109.911-253.013 118.799-252.487 127.348-247.248 131.471-240.378 134.387-231.712 138.063-222.87 140.192-213.15 140.046-192.819 139.743-172.468 139.971-152.249 137.697-146.068 137.002-144.054 138.708-143.988 144.582-143.668 173.472-145.219 202.413-141.723 231.224-140.963 237.485-143.904 239.726-150.183 239.944-187.437 241.236-225.652 240.805-262.972 243.27M114.016 158.592H114.063C114.063 170.628 114.05 182.665 114.069 194.701 114.076 198.638 113.783 202.486 108.966 203.455 84.499 208.375 60.133 213.944 35.502 217.852 14.49 221.185-6.882 223.609-27.562 227.712-50.946 232.353-74.131 234.752-97.689 235.306-118.902 235.803-119.437 235.547-123.296 215.822-128.13 191.113-127.922 165.94-128.394 140.875-128.491 135.664-127.235 131.287-120.481 130.806-102.143 129.5-83.85 127.113-65.496 126.556-43.293 125.881-21.503 121.261 .769 120.959 9.24 120.845 17.991 120.008 26.595 119.233 51.93 116.95 77.301 115.058 102.637 112.786 111.859 111.959 114.494 116.236 114.133 124.745 113.656 136.009 114.016 147.308 114.016 158.592M113.821 55.671H113.759C113.759 65.453 113.39 75.253 113.871 85.012 114.281 93.322 109.967 96.349 102.662 97.423 77.03 101.192 51.075 101.019 25.31 103.595 4.445 105.681-16.393 108.66-37.359 110.019-64.322 111.766-91.256 114.032-118.235 115.433-128.561 115.969-133.541 107.968-129.64 99.018-127.831 94.869-123.74 93.353-120.383 91.078-111.775 85.246-110.818 77.555-118.094 70.87-132.282 57.833-134.264 49.936-127.439 31.988-124.727 24.851-122.986 18.172-126.016 10.323-129.111 2.3-129.132-6.537-128.874-15.213-128.744-19.597-127.464-22.629-122.532-22.633-113.251-22.642-106.733-28.477-105.319-36.036-103.93-43.459-111.194-49.217-117.867-51.602-132.757-56.923-134.536-67.782-133.333-81.209-132.74-87.826-130.286-90.184-123.66-90.66-110.959-91.572-99.415-86.523-87.438-84.226-67.038-80.315-46.604-78.041-26.027-79.148-4.597-80.3 1.134-92.824-10.518-111.036-17.979-122.699-25.937-134.043-33.607-145.574-44.029-161.24-46.552-178.667-44.74-196.959-44.366-200.737-42.983-204.65-39.326-206.253-35.438-207.958-33.339-204.118-30.916-201.98-22.752-194.781-14.814-187.321-6.546-180.246 23.001-154.963 49.214-126.467 74.47-97.035 94.377-73.834 103.683-46.799 102.725-16.447 101.87 10.616 87.27 18.676 65.063 5.079 47.381-5.747 28.718-14.785 8.016-17.401-31.37-22.379-66.555-9.385-99.723 10.295-110.394 16.626-110.823 22.522-100.202 28.473-60.995 50.439-20.974 69.111 26.328 58.924 55.703 52.598 83.073 42.715 105.869 22.482 107.532 21.006 109.121 18.654 111.496 19.46 114.727 20.558 113.754 23.845 113.779 26.325 113.882 36.106 113.821 45.889 113.821 55.671M-229.576 261.875C-210.712 260.92-186.64 261.894-162.497 260.341-129.487 258.218-135.595 257.061-134.949 286.064-134.915 287.568-134.942 302.856-134.95 304.361-135.057 325.804-148.704 340.208-170.272 339-207.945 336.893-245.711 338.849-283.269 336.403-304.845 334.998-326.832 337.675-348.156 330.634-372.466 322.607-399.558 298.377-398.544 266.614-396.748 210.308-396.863 140.19-394.316 83.84-392.301 39.261-390.729-5.522-391.73-50.191-393.738-139.84-389.913-230.283-395.143-319.769-396.693-346.297-396.149-372.875-395.624-399.425-395.247-418.503-391.111-436.153-367.924-436.107-349.856-436.07-331.835-435.779-313.779-434.176-304.749-433.375-302.104-430.387-302.365-421.885-303.326-390.517-305.797-359.194-310.993-328.218-315.44-301.708-318.552-273.074-318.817-246.202-319.133-214.288-315.101-183.181-318.314-151.252-321.694-117.666-322.812-83.667-328.885-50.409-330.956-39.064-334.932-33.447-344.271-28.453-362.854-18.514-368.58-7.689-345.991 5.56-331.307 14.172-331.326 32.103-345.84 41.21-366.445 54.141-363.8 65.812-349.201 79.06-348.364 79.819-347.622 80.699-346.719 81.365-340.437 85.996-338.416 92.05-338.518 99.892-338.891 128.857-339.33 157.853-338.399 186.793-337.675 209.315-328.552 236.045-311.846 251.773-291.704 270.737-254.959 261.875-229.576 261.875M131.648-77.414C129.395-137.472 133.771-206.306 127.54-275.037 123.505-319.552 115.295-366.888 89.472-404.86 79.598-419.381 68.335-437.249 52.002-445.076 45.765-448.064 39.26-449.072 32.433-449.702 3.48-452.373-25.622-452.039-54.655-452.996-122.862-455.245-191.153-454.886-259.408-455.825-288.189-456.221-285.273-465.089-284.48-497.597-284.173-510.179-278.631-521.588-264.623-525.938-208.891-543.242-151.362-554.551-93.315-560.492-34.222-566.54 24.568-564.694 83.826-565.751 89.31-565.849 94.793-565.992 100.272-566.201 106.863-566.452 113.844-565.819 119.265-562.07 130.491-554.306 135.655-534.543 139.341-522.12 144.266-505.519 147.602-488.435 150.237-471.337 159.379-412.039 162.376-352.129 166.668-292.358 171.072-231.026 175.869-169.721 181.06-108.45 186.281-46.812 189.084 14.144 188.838 76.039 188.81 83.102 185.598 86.227 179.468 87.919 167.712 91.166 155.682 90.68 143.669 91.177 134.489 91.557 131.352 88.755 131.439 79.185 131.891 29.883 131.648-19.425 131.648-77.414M109.34-187.439H109.492C109.492-155.828 109.56-124.216 109.396-92.606 109.378-89.133 111.341-83.727 106.95-82.611 102.633-81.515 100.069-86.411 97.991-89.882 65.115-144.788 15.292-183.685-31.157-225.709-39.886-233.606-48.79-231.863-54.383-221.295-74.646-183-50.114-142.589-29.239-111.275-27.027-107.957-21.262-104.845-24.963-99.72-27.919-95.625-32.861-94.442-38.022-94.423-66.497-94.32-95.033-103.693-122.229-111.061-131.461-113.562-134.653-119.582-134.988-127.136-135.824-145.992-136.338-164.86-136.857-183.727-137.21-196.505-143.539-215.347-134.05-226.188-127.699-233.442-119.876-236.192-115.868-246.013-112.071-255.319-112.201-265.801-113.008-275.644-114.424-292.916-119.665-299.573-136.427-297.467-150-295.762-160.811-301.313-170.161-310.686-175.719-316.256-191.676-331.292-191.62-339.328-191.605-341.454-190.646-343.454-189.567-345.288-184.115-354.562-175.359-361.368-166.68-367.741-141.742-386.05-106.361-383.416-82.318-363.899-77.318-359.841-66.474-357.538-68.729-351.28-71.094-344.718-81.334-343.381-89.35-343.11-92.364-343.007-95.384-343.016-98.4-343.007-118.389-342.949-138.378-342.901-158.366-342.847-163.348-342.834-169.353-342.931-169.704-336.613-170.007-331.158-164.813-330.192-159.93-329.706-130.356-326.759-100.688-325.731-71.005-325.753-62.442-325.76-53.862-329.968-50.524-337.74-47.157-345.579-48.728-353.845-54.795-361.836-61.216-370.294-69.227-376.067-77.813-381.22-101.339-395.34-125.766-402.956-153.474-392.626-166.707-387.694-178.488-379.838-189.164-370.705-195.723-365.093-218.052-349.357-215.292-339.673-210.033-321.227-186.605-307.256-174.45-293.515-166.35-284.357-157.479-277.732-144.228-280.072-138.062-281.162-134.339-277.319-132.003-272.149-129.708-267.071-129.319-261.868-133.21-257.348-137.13-252.795-140.805-247.699-145.629-244.323-155.956-237.095-158.452-227.188-157.152-215.766-154.12-189.132-155.557-162.392-154.984-135.706-154.645-119.807-155.139-119.808-170.165-121.42-171.658-121.581-173.182-121.549-174.687-121.502-190.181-121.016-205.129-124.968-219.927-128.361-245.32-134.181-270.329-135.041-295.356-127.638-300.555-126.101-303.895-128.066-302.28-132.367-298.897-141.379-299.589-150.864-297.382-159.845-291.079-185.493-293.288-211.306-295.773-236.973-296.714-246.688-298.401-256.061-296.957-265.926-293.882-286.93-292.845-308.167-290.214-329.264-286.803-356.616-285.553-384.367-282.602-411.89-279.612-439.756-279.783-440.117-250.899-439.952-218.486-439.767-186.079-438.645-153.666-438.368-124.704-438.119-95.766-434.338-66.791-433.083-50.571-432.379-34.802-429.448-18.673-428.343-.468-427.096 17.813-427.191 35.985-425.417 58.563-423.211 69.049-410.01 78.352-390.801 96.603-353.116 109.672-308.605 109.38-266.465 109.187-240.125 109.34-213.781 109.34-187.439M-213.851 352.666C-202.903 352.723-191.962 352.625-181.031 352.448-170.021 352.271-158.229 354.675-147.454 351.705-137.505 348.962-131.123 341.772-126.176 333.153-116.713 316.666-111.472 291.759-112.951 272.852-113.219 269.43-113.526 265.881-112.343 262.652-108.888 253.246-91.703 254.001-83.801 253.702-67.918 253.1-52.203 250.606-36.471 248.313 6.278 242.081 48.395 231.602 91.074 225.52 99.768 224.281 112.449 221.977 120.12 217.704 126.991 213.876 129.123 207.324 129.778 199.934 131.974 175.15 131.985 150.338 131.691 125.528 131.583 116.352 135.06 111.859 143.972 109.839 154.855 107.372 165.741 108.684 176.609 108.417 196.719 107.923 206.819 98.475 207.153 78.097 208.14 17.813 202.306-41.837 198.691-101.822 194.989-163.272 190.485-224.673 185.182-286.006 181.535-328.172 177.068-370.262 172.504-412.337 168.198-452.022 166.74-492.765 154.067-530.894 149.064-545.959 141.352-570.641 126.13-578.503 121.722-580.781 116.801-581.88 111.897-582.655 57.973-591.174 2.306-584.887-51.706-580.124-118.493-574.234-186.139-566.018-251.715-551.874-275.226-546.296-289.993-531.544-298.236-509.237-301.569-500.218-303.155-476.641-302.328-467.213-301.534-458.175-305.471-455.426-314.186-455.602-334.548-456.013-354.927-455.76-375.297-455.556-400.464-455.304-414.39-442.642-415.396-417.63-417.293-370.46-412.375-323.436-410.458-276.22-408.116-218.524-406.408-159.595-406.652-101.387-406.799-66.371-406.695-31.333-408.445 3.651-410.182 38.356-414.333 72.755-415.563 107.499-416.671 138.735-418.746 171.125-419.003 202.843-419.357 246.555-424.942 301.409-383.632 329.263-353.656 349.475-321.544 350-286.629 351.297-262.394 352.197-238.118 352.539-213.851 352.666"/>
</g>
</g>
</svg>
