<svg xmlns="http://www.w3.org/2000/svg" xmlns:xlink="http://www.w3.org/1999/xlink" xmlns:inkscape="http://www.inkscape.org/namespaces/inkscape" version="1.1" width="1984.25" height="1984.25" viewBox="0 0 1984.25 1984.25">
<defs>
<clipPath id="clip_1">
<path transform="matrix(1,0,0,-1,0,1984.25)" d="M0 1984.252H1984.252V0H0Z"/>
</clipPath>
</defs>
<g inkscape:groupmode="layer" inkscape:label="Layer 1">
<g clip-path="url(#clip_1)">
<path transform="matrix(1,0,0,-1,1573.1904,496.90235)" d="M0 0C-6.047-.336-12.229-4.351-12.719-13.163-13.223-22.232-8.297-28.527 1.176-29.332 11.266-30.188 16.189-23.273 16.24-14.758 16.285-7.064 12.133-.271 0 0M-133.13-1145.931C-113.296-1143.191-87.077-1153.114-64.126-1136.047-59.729-1132.775-55.163-1130.696-55.323-1124.753-55.512-1117.745-61.728-1118.816-65.933-1118.114-91.79-1113.794-117.695-1112.542-143.267-1119.755-159.805-1124.42-218.828-1124.907-234.489-1116.825-236.827-1115.619-241.224-1113.065-241.675-1115.903-242.989-1124.178-243.476-1132.856-242.434-1141.144-241.657-1147.313-234.765-1145.662-230.512-1145.766-213.979-1146.17-154.432-1145.931-133.13-1145.931M-180.618-527.681C-180.733-527.687-226.154-527.579-228.452-528.058-234.887-529.398-244.065-527.461-242.869-538.823-241.854-548.475-248.506-561.137-231.314-564.265-215.802-567.087-157.405-569.42-141.741-567.074-121.434-564.033-101.099-563.465-80.85-566.571-74.318-567.573-70.625-566.276-69.19-560.049-67.343-552.026-59.317-542.716-65.25-536.366-70.705-530.528-81.366-534.672-89.643-536.52-92.872-537.241-96.106-538.143-99.162-539.394-114.634-545.727-129.578-544.527-144.451-537.185-155.105-531.924-166.124-527.48-180.618-527.681M-242.06-601.098C-243.352-618.233-246.093-632.563-230.749-642.877-218.812-650.901-163.969-650.716-151.297-646.618-133.075-640.726-114.582-637.992-95.371-640.354-90.209-640.987-81.168-646.234-80.867-636.12-80.566-626.016-72.4-612.597-87.237-606.04-102.86-599.137-119.854-598-135.9-603.14-157.123-609.938-220.661-615.933-242.06-601.098M-93.134-897.388C-68.943-896.817-69.416-896.839-70.39-875.426-70.807-866.266-74.357-863.766-83.039-862.758-99.877-860.804-116.071-862.364-131.936-867.793-151.848-874.607-214.79-880.128-235.856-873.067-240.768-871.422-242.222-873.295-243.002-878.25-247.484-906.731-198.378-913.674-169.689-911.107-161.271-910.354-152.788-909.033-144.64-906.84-126.831-902.047-109.048-897.484-93.134-897.388M-58.271-457.369C-82.14-469.016-106.695-465.432-131.372-458.58-147.407-454.127-163.31-455.906-179.005-460.941-201.362-468.114-245.242-469.47-241.079-495.024-214.265-478.859-146.041-487.414-120.713-498.928-111.293-503.211-101.005-505.394-90.339-505.491-57.08-505.794-54.714-503.62-56.15-471.014-56.333-466.873-54.864-462.45-58.271-457.369M-242.932-696.856C-242.932-710.682-242.833-721.075-242.98-731.466-243.04-735.62-241.608-738.535-238.21-741.059-226.327-749.883-170.713-755.399-155.542-751.297-139.581-746.981-123.62-742.668-107.653-738.377-76.452-729.991-76.693-730.038-81.864-698.442-82.877-692.258-85.418-690.637-90.939-690.34-111.524-689.232-131.999-690.113-150.863-699.009-166.767-706.508-224.94-710.479-242.932-696.856M-242.919-774.115C-242.919-789.812-241.735-802.584-243.215-815.039-245.125-831.125-235.25-835.611-223.216-838.794-215.221-840.909-163.782-840.24-156.381-837.347-131.573-827.647-106.224-823.771-79.843-827.848-74.912-828.61-73.358-827.24-72.816-822.249-68.809-785.319-75.841-777.176-113.015-777.186-120.545-777.187-128.447-777.284-135.533-779.446-156.913-785.971-220.857-789.833-242.919-774.115M-242.902-985.128C-242.802-1009.664-191.812-1021.17-170.953-1025.659-165.499-1026.833-159.365-1027.564-154.066-1026.303-123.854-1019.108-94.103-1019.953-64.547-1029.471-57.023-1031.894-57.001-1027.952-57.95-1022.021-59.743-1010.822-61.326-999.531-61.946-988.223-62.435-979.328-66.868-976.405-74.919-974.574-94.332-970.158-113.372-971.101-132.562-975.555-149.034-979.377-165.267-979.544-181.087-971.908-199.873-962.841-242.993-963.09-242.902-985.128M49.81-539.096C48.633-539.003 49.929-544.713 48.752-544.62 45.525-549.483 42.299-554.348 37.483-561.606 38.591-490.143 35.896-421.635 31.4-353.239 29.473-323.914 35.878-294.203 28.291-265.375 21.445-239.363 12.192-213.97 12.381-186.448L8.777-186.21C7.711-194.067 6.202-201.893 5.653-209.786 3.119-246.228 .106-282.593-5.211-318.776-8.184-339.009-8.359-359.328-2.817-379.5 4.839-407.368 12.062-435.37 18.704-463.495 22.059-477.701 27.681-493.77 18.477-506.422 .465-531.178 1.047-556.647 5.379-585.36 10.952-622.294 12.714-659.987 13.498-697.408 14.398-740.406 18.167-783.816 5.932-826.142 4.522-831.015 6.713-835.407 7.868-839.995 15.741-871.252 24.745-902.295 30.947-933.886 44.017-1000.455 43.952-1067.798 39.5-1135.226 39.223-1139.428 35.396-1144.9 43.922-1145.632 44.829-1145.71 88.638-1145.715 89.359-1145.653 94.902-1145.188 95.249-1140.836 95.045-1135.786 94.987-1134.364 95.009-1132.938 95.01-1131.515 95.1-948.801 95.191-766.087 95.281-583.373 95.287-570.548 95.282-557.724 95.282-544.898L94.885-284.096C94.99-246.172 95.068-215.813 95.066-177.889 95.063-95.406 94.976-12.923 95.031 69.561 95.036 76.934 94.354 83.452 84.631 81.747 78.213 80.621 24.249 87.154 25.276 71.955 25.871 63.159 19.252 54.01 12.287 53.439-8.836 51.711-6.394 39.111-3.953 25.184-3.558 22.929-3.947 20.405-4.507 18.136-6.303 10.86-5.432 7.214 3.844 6.634 13.486 6.031 20.125-1.263 22.338-10.681 24.356-19.276 20.185-26.513 13.519-31.848 2.282-40.84-11.021-36.835-19.334-22.098-20.861-19.39-20.64-14.79-25.372-15.971-29.441-16.986-28.937-20.934-29.102-24.243-29.573-33.695-29.729-43.188-30.797-52.576-31.517-58.91-29.437-60.437-23.286-61.196 7.953-65.057 25.061-79.603 31.267-110.114 39.894-152.519 42.815-195.633 40.131-238.802 38.776-260.585 44.257-280.546 49.308-301.803 56.81-387.096 54.129-466.085 49.81-539.096M-24.777-676.938C-31.906-679.751-30.931-683.535-31.69-686.578-36.381-705.363-35.073-725.795-44.986-743.043-56.673-763.377-55.121-783.444-48.562-804.75-42.881-823.2-36.033-842.113-35.239-861.054-34.049-889.441-33.454-917.911-32.277-946.347-29.725-1007.995-28.849-1069.66-31.66-1131.339-31.873-1136.014-34.533-1142.081-28.029-1145.174-10.492-1153.516 22.367-1135.575 23.258-1116.336 24.993-1078.847 20.073-1041.634 16.788-1004.384 16.003-995.479 9.587-988.171 8.891-978.825 6.713-949.59 2.332-920.652-4.375-892.071-13.452-853.385-21.773-814.818-20.649-774.426-19.758-742.386-23.202-710.226-24.777-676.938M-194.19-318.096C-172.873-308.274-157.263-302.715-142.539-284.135-134.01-273.374-124.93-262.985-115.415-253.084-100.646-237.715-90.043-218.572-72.765-205.563-52.993-190.675-53.341-178.824-74.405-165.588-89.849-155.883-92.826-137.858-78.204-129.938-62.104-121.218-61.249-109.297-62.978-94.456-64.223-83.763-61.791-74.054-50.605-69.964-41.206-66.527-39.078-60.152-39.656-51.253-40.056-45.117-39.986-38.887-39.409-32.767-38.486-22.986-40.696-16.479-52.148-15.644-61.326-14.975-63.265-10.468-60.236-1.095-55.756 12.776-52.388 27.076-49.792 41.571-48.479 48.895-53.904 58.551-47.178 62.801-41.077 66.656-32.641 61.583-25.27 60.027-18.786 58.66-8.268 69.375-9.098 77.494-9.924 85.581-17.18 81.652-21.311 81.673-75.876 81.939-173.446 81.496-228.007 82.037-239.618 82.152-243.29 79.249-243.199 67.128-242.638-7.833-242.938-265.761-242.938-320.186-242.938-320.186-243.19-400.096-243.133-410.761-244.755-424.494-239.115-428.666-225.945-429.227-185.005-430.969-101.512-424.891-60.77-423.597-53.812-423.376-53.816-419.003-53.166-414.132-51.285-400.036-49.977-385.79-46.925-371.938-39.733-339.299-39.779-307.266-50.288-275.198-55.286-259.945-58.374-244.054-60.13-227.661-65.071-227.855-66.333-230.747-68.085-232.825-95.055-264.813-123.237-294.492-161.971-313.838-187.923-326.8-185.19-328.096-207.19-342.096-207.19-323.096-194.19-318.096-194.19-318.096M-289.643-532.307C-289.643-321.625-289.473-110.942-290.048 99.739-290.084 112.923-285.254 116.008-267.815 115.933-141.147 115.383-14.474 115.7 112.199 115.74 141.827 115.749 141.945 115.742 141.949 93.91 141.966-4.315 141.891-102.54 141.883-200.765 141.858-518.691 141.839-836.617 141.854-1154.543 141.855-1179.742 141.989-1179.718 107.459-1179.721-17.295-1179.732-142.05-1179.514-266.799-1180.064-284.791-1180.144-289.982-1176.964-289.935-1162.927-289.221-952.722-289.44-742.514-289.44-532.307Z"/>
<path transform="matrix(1,0,0,-1,835.6221,1459.9287)" d="M0 0C.231-17.783 .264-17.938 18.532-14.186 25.574-12.739 32.624-11.907 39.673-12.827 54.66-14.782 69.55-17.48 84.545-19.357 104.146-21.81 121.765-15.646 138.684-6.304 150.024-.041 145.598 10.235 143.192 17.521 140.357 26.11 133.4 18 129.407 16.414 94.199 2.424 59.588 2.571 24.46 17.105 4.853 25.218-.272 20.944 0 0M169.955-.551C168.729-.762 167.505-.973 166.279-1.184 164.63-50.819 162.723-100.468 165.013-150.142 165.47-160.058 170.312-169.461 175.516-177.893 181.515-187.61 192.258-184.511 200.226-182.568 206.378-181.069 203.107-173.263 202.346-168.633 198.893-147.624 194.897-126.701 190.822-105.801 183.977-70.696 176.922-35.632 169.955-.551M.512-103.806C2.412-103.806 4.062-104.311 5.115-103.731 31.232-89.368 56.538-89.501 81.03-107.546 82.896-108.921 85.205-109.853 87.447-110.537 108.711-117.03 126.384-108.129 143.157-96.812 153.27-89.989 146.864-79.478 147.6-70.582 148.181-63.561 145.147-61.552 138.206-62.74 125.583-64.9 112.838-66.138 99.973-64.548 90.123-63.329 80.24-59.176 70.442-61.334 46.975-66.503 23.732-74.293 .512-57.021ZM70.51-183.147C70.51-183.206 70.511-183.265 70.511-183.323 78.091-183.323 85.672-183.324 93.252-183.323 101.307-183.322 109.361-183.341 117.416-183.316 144.468-183.234 154.899-170.75 151.504-143.874 150.458-135.594 148.592-133.446 140.191-136.594 116.445-145.489 92.296-146.658 67.75-138.933 58.327-135.967 48.446-134.02 38.341-134.79 9.719-136.971-.438-147.005-.194-171.061-.098-180.478 3.25-183.464 12.246-183.273 31.659-182.863 51.088-183.147 70.51-183.147M127.377 364.101C130.185 373.232 128.594 381.007 126.955 388.727 120.272 420.213 118.699 451.69 127.879 482.952 136.804 513.343 145.851 543.742 158.421 572.868 165.478 589.218 169.424 605.688 168.745 623.708 166.358 687.087 167.583 750.646 158.75 813.683 158.113 818.231 158.252 824.882 152.262 824.536 146.016 824.174 147.579 817.356 147.257 812.937 144.54 775.585 141.744 738.347 128.659 702.641 123.931 689.738 123.901 675.708 124.037 661.858 124.157 649.583 126.901 636.99 123.147 625.042 111.567 588.188 107.21 550.014 101.506 512.073 100.456 505.083 98.658 498.229 99.975 490.944 106.717 453.642 113.156 416.284 119.895 378.981 120.768 374.146 120.165 368.406 127.377 364.101M252.303 1045.218C261.851 1036.107 260.338 1027.947 258.886 1020.037 256.232 1005.576 252.927 991.235 250.242 976.78 246.853 958.528 247.037 958.786 228.319 960.973 222.393 961.666 218.24 964.788 214.943 955.388 208.957 938.322 210.638 928.89 227.826 924.85 272.483 914.355 288.001 895.863 290.708 850.2 293.15 808.995 297.258 767.88 296.552 726.51 296.416 718.518 297.46 710.302 299.313 702.512 313.307 643.709 318.909 585.641 326.378 525.931 328.308 510.504 330.378 498.931 336.173 478.732 338.343 504.05 338.347 529.082 338.342 554.113 338.315 698.402 338.309 842.69 338.226 986.979 338.216 1003.109 337.687 1019.238 337.57 1035.369 337.527 1041.317 336.342 1045.374 328.983 1045.304 304.869 1045.075 280.752 1045.218 252.303 1045.218M269.852 258.083C270.184 265.334 268.621 272.118 264.681 278.353 235.665 324.249 220.857 376.792 196.131 424.684 193.086 430.582 193.773 442.368 185.538 440.898 177.303 439.429 180.131 428.409 179.959 421.4 178.437 359.229 175.381 297.197 165.474 235.679 163.497 223.405 163.877 211.285 167.61 199.111 174.32 177.234 177.094 155.386 172.399 132.077 167.446 107.485 165.541 81.465 169.777 56.972 183.103-20.074 199.189-96.64 213.849-173.459 215.761-183.484 222.445-182.692 229.573-183.458 237.671-184.327 240.498-180.433 241.306-173.231 242.469-162.868 244.598-152.583 245.241-142.197 250.527-56.939 254.6 28.345 248.494 113.752 247.165 132.333 249.343 150.564 252.704 168.873 258.169 198.65 268.727 227.449 269.852 258.083M89.538 555.094C90.697 555.001 91.855 554.908 93.015 554.816 102.443 603.86 111.489 653.434 112.602 703.12 113.925 762.19 122.109 820.204 128.802 878.542 131.077 898.363 141.88 914.051 155.547 927.533 166.496 938.334 180.081 929.274 192.417 930.206 192.885 930.241 193.365 930.091 193.833 930.1 201.675 930.248 199.403 932.063 200.977 940.723 203.678 955.584 198.304 965.989 197.4 979.015 196.13 997.335 195.28 1016.109 201.526 1034.004 204.743 1043.22 201.555 1045.605 192.437 1045.404 170.617 1044.921 148.779 1045.25 126.948 1045.276 89.457 1045.321 51.964 1045.234 14.475 1045.539 4.451 1045.621 .38 1043.451 5.444 1032.724 10.897 1021.171 15.092 1009.024 19.82 997.131 21.169 993.737 24.607 989.726 20.89 986.772 14.367 981.592 17.316 975.852 18.341 969.949 34.487 876.965 50.673 783.989 66.686 690.982 74.479 645.716 81.931 600.392 89.538 555.094M287.876 695.968C286.908 709.087 287.378 724.931 282.378 740.931 271.521 775.676 267.84 809.828 259.784 844.288 258.481 849.858 263.233 859.679 256.387 860.245 249.076 860.849 247.486 850.587 245.409 843.962 244.298 840.419 243.793 836.401 244.182 832.721 246.153 814.007 241.891 796.07 238.986 777.776 232.075 734.232 229.282 690.151 222.572 646.515 213.087 584.831 212.537 523.108 236.538 464.196 265.071 394.161 279.158 320.696 292.256 246.856 293.92 237.476 294.979 227.751 292.654 218.523 283.666 182.822 282.369 146.301 280.04 109.866 276.139 48.82 263.508-11.426 262.9-72.746 262.644-98.615 253.778-123.098 252.308-148.745 251.779-157.967 254.366-162.542 263.396-165.198 280.167-170.133 296.561-176.34 313.19-181.776 332.424-188.064 338.004-184.091 338.011-164.454 338.081 28.719 338.094 221.892 338.337 415.064 338.352 426.758 338.083 437.697 328.552 446.248 324.345 450.021 324.049 455.519 324.101 460.792 324.245 475.639 321.26 489.923 317.007 504.063 298.468 565.717 288.743 628.742 287.876 695.968M4.27 978.581C2.982 978.554 1.694 978.526 .405 978.5 .187 973.607-.222 968.716-.221 963.824-.174 802.889-.063 641.954-.017 481.019 .025 340.018 .044 199.017-.1 58.017-.108 49.654 .467 45.068 10.683 49.596 25.597 56.204 40.988 54.095 54.636 46.558 81.019 31.988 105.396 37.173 130.3 50.249 139.835 55.256 143.23 61.218 141.633 71.556 139.817 83.313 140.629 95.21 141.315 107.084 142.597 129.272 147.898 152.362 143.696 173.522 130.78 238.548 118.357 303.613 107.91 369.083 104.302 391.689 104.73 415.775 87.662 434.377 81.968 440.582 82.747 448.182 83.591 455.939 85.48 473.313 89.318 490.729 85.515 508.245 58.836 631.108 47.503 756.562 22.659 879.738 16.034 912.586 10.374 945.628 4.27 978.581M-46.6 430.89C-46.6 641.142-46.458 851.395-46.93 1061.647-46.96 1075.194-43.67 1078.98-28.777 1078.915 100.089 1078.349 228.96 1078.67 357.829 1078.693 384.396 1078.697 384.464 1078.631 384.485 1053.954 384.564 959.037 384.628 864.119 384.64 769.202 384.675 495.853 384.681 222.503 384.701-50.846 384.704-102.096 384.518-153.347 384.928-204.594 384.997-213.206 384.103-217.121 373.039-217.085 238.106-216.633 103.17-216.499-31.762-216.965-45.504-217.013-47.082-212.103-47.069-201.28-46.805 9.442-46.873 220.166-46.873 430.89Z"/>
<path transform="matrix(1,0,0,-1,670.2002,1639.8682)" d="M0 0C-4.04-1.78-43.16 3.58-47.02 5.06-47.46 5.22-47.84 5.53-48.25 5.771-62.79 14.11-71.26 21.54-69.91 43.45-62.76 159.89-49.51 275.66-36.54 391.49-36.5 391.84-36.3 392.41-35.88 393.26L-35.85 392.86C-29.2 403.87-22.04 419.81-27.2 430.87-29.41 435.61-31.56 439.9-33.45 443.55-33.9 444.42-34.35 445.26-34.77 446.06-37.27 449.57-39.07 452.97-40.45 456.26-40.46 456.28-40.47 456.29-40.47 456.29-43.44 463.33-44.53 469.89-46.48 475.98-65.71 536.181-95.32 591.12-130.49 643.25-138.34 654.89-144.93 666.63-144.95 681.11-145.09 753.67-152.46 826.32-142.16 898.74-141.44 903.84-142.06 909.21-138.9 913.85-118.11 867.07-116.72 861.53-116.15 814.62-115.78 784.34-107.72 755.63-98.91 727.07-90.1 698.57-83.59 669.36-72.73 641.49-70.35 635.4-67.35 629.55-63.81 621.78-59.39 638.15-59.503 651.275-67.2 663.87-78.2 681.87-84.64 699.37-85.25 719.08-86.53 760.58-91.34 801.93-102.2 841.87-107.58 861.67-108.2 874.87-111.2 901.87-113.395 921.619-115.03 941.15-124.3 959.8-128.67 968.6-125.61 977.44-118.75 984.64-116.48 987.02-114.05 989.29-111.8 991.88-108.37 995.85-106.22 1006.23-114.6 1011.82-125.57 1019.13-128.57 1022.3-128.87 1030.92-129.11 1037.56-129.37 1044.24-128.91 1050.86-128 1064.19-131.7 1074.04-146.3 1076.91-154.26 1078.48-156.59 1083.75-156.38 1091.44-156.14 1100.44-156.84 1109.47-157.12 1118.48-157.22 1121.77-158.03 1126.81-154.62 1127.34-139.85 1129.64-145.31 1140.04-146.02 1147.99-147.31 1162.64-149.99 1177.17-151.03 1191.82-151.66 1200.8-154.74 1204.86-164.05 1203.84-168.17 1203.39-173.56 1202.49-176.11 1206.23-179.66 1211.45-186.09 1216.98-184 1223.28-182.18 1228.8-174.72 1225.73-169.83 1225.75-129.47 1225.9-53.08 1224.88-12.76 1226.17 2.63 1226.66 2.82 1219.25 2.81 1208.34 2.69 1092.01 2.77 975.67 2.74 859.34 2.71 726.86 2.62 594.39 2.55 461.91 2.55 457.34 2.8 453.36 2.8 444.87L2.68 396.63C2.68 352.101 2.69 310.46 2.68 268.82 2.66 183.47 2.67 98.12 2.47 12.771 2.46 8.44 5.43 2.38 0 0M-81.75 50.53C-81.64 39.64-81.68 28.771-81.2 17.87-80.04-8.8-77.47-2.49-99.42-3.83-117.09-4.899-132.98-1.66-147.81 8.49-154.08 12.78-156.71 17.28-156.78 24.69-156.87 35.21-155.58 45.45-153.97 55.81-135.99 171.11-115.08 286.07-109.5 402.931-107.89 436.58-108.13 470.32-110.86 503.96-111.16 507.64-112.55 511.44-108.86 517.39-102.5 506-96.68 496.41-91.67 486.41-81.65 466.44-70.79 447.07-56.2 429.97-47.88 420.22-44.53 409.29-50.31 397.09-66.05 363.84-67.79 327.49-73.2 292.08-85.44 211.96-82.5 131.17-81.75 50.53M-183.199 1128.315C-185.266 1120.896-188.866 1114.771-196.953 1115.667-204.973 1116.562-211.792 1120.4-210.678 1130.439-209.725 1139.06-204.296 1143.327-196.019 1142.832-187.189 1142.298-184.599 1135.459-183.199 1128.315M-176.21 169.01C-197.77 171.57-219.74 171.3-241.51 167.8-257.55 165.21-273.52 164.66-288.49 173.55-296.25 178.15-334.01 185.181-333.99 194.49-333.7 306.06-333.76 417.62-333.83 529.181-333.9 641.21-334.1 748.34-334.21 860.37-334.21 860.37-334.17 955.52-334.21 965.03-334.56 1048.03-334.23 1131.03-334.54 1214.03-334.58 1224.15-332.57 1228.45-321.22 1227.9-300.42 1226.89-245.02 1225.84-224.18 1226.2-216.4 1226.33-212.46 1225.48-215.22 1216.05-217.2 1209.28-214.15 1202.25-208.1 1198.73-197.56 1192.6-194.51 1183.97-195.48 1172.48-195.9 1167.41-194.65 1162.11-193.58 1157.04-192.5 1151.89-193.68 1148.59-199.21 1147.84-212.37 1146.07-218.88 1138.04-217.53 1125.39-216.5 1115.75-210.1 1108.28-199.77 1108.02-186.33 1107.68-179.13 1115.63-177.46 1128.83-177.32 1129.95-175.96 1130.92-173.31 1134.41-169.05 1116.2-169.87 1100.04-170.57 1083.97-170.7 1080.98-174.53 1080.19-177.27 1079.56-211.16 1071.75-231.67 1048.55-246.39 1019.02-259.75 992.23-275.89 967.06-290.96 941.27L-293.71 936.54-297.33 930.31-304.29 918.33C-307.38 913-307.82 906.53-305.46 900.83L-298.95 885.07-296.65 879.5-296.53 879.68C-292.55 871.96-289.99 864.53-287.51 857.41V857.4C-285.87 852.71-284.27 848.15-282.32 843.74-270.94 818.04-260.66 794.47-244.2 771.87-233.54 757.24-229.2 736.87-231.59 724.18-234.368 709.431-231.44 697.12-218.22 685.71-213.99 712.29-215.55 737.41-225.08 760.26-244.21 806.14-259.45 853.8-284.74 896.97-288.23 902.93-289.85 907.38-285.13 913.53-260.46 945.65-241.15 980.99-223.56 1017.33-222.58 1019.35-222.16 1022-217.39 1022.23-212.64 1003.18-208.45 983.64-206.04 963.73-200.41 917.14-192.91 870.85-184.92 824.59-177.47 781.46-186.27 738.93-199.73 698.51-212.51 660.15-204.83 627.89-180.19 599.34-165.54 582.38-162.28 564.37-161.29 543.46-158.59 486.63-157.04 429.61-144.35 373.75-143.83 371.44-144.02 368.7-142.82 366.86-128.76 345.24-135.7 324.67-142.72 302.3-154.56 264.61-157.16 224.99-158.63 185.601-159.1 172.95-160.89 167.19-176.21 169.01M-168.8 113.15C-188.73 111.49-207.83 105.5-229.23 103.63-249.73 106.58-305.12 112.81-327.28 115.41-339 116.78-332.66 129.63-332.68 136.98-332.7 145.45-325.74 140.75-322.05 139.55-299.19 132.16-242.55 132.73-219.51 139.11-203.95 143.42-187.81 144.44-171.61 143.88-164.34 143.62-161.09 140.26-162.15 133.21-163.23 126.01-157.67 114.08-168.8 113.15M-165.3 65.351C-165.85 58.3-168.81 29.38-168.2 22.87-166.95 9.7-171.71 10.26-181.95 13.78-192.26 17.32-202.45 20.97-211.84 26.64-224.3 34.17-237.37 35.78-251.31 30.91-257.54 28.74-264.03 27.351-270.81 27.81-292.65 29.29-338.38 59.21-334.46 80.53-333.36 86.49-330.9 86.351-326.85 83.73-324.86 82.45-287.97 65.03-286.02 63.681-264.21 48.51-241.61 46.94-217.63 58.69-204.95 64.9-192.55 71.72-178.6 75.45-168.22 78.23-164.46 76.15-165.3 65.351M49.73 610.49H49.41C49.41 722.08 49.43 833.68 49.41 945.27 49.39 1044.99 49.34 1144.71 49.28 1244.43 49.27 1251.91 51.22 1258.91 35.06 1258.84-98.1 1258.22-231.26 1258.24-364.42 1258.32-374.39 1258.33-378.99 1256.42-379.1 1248.15-379.34 1231.64-381.28 1215.14-381.33 1198.64-381.57 1119.45-381.4 1040.26-381.43 961.07-381.46 868.05-381.56 775.03-381.61 682.01-381.74 450.27-381.85 218.54-381.98-13.2-381.99-36.71-382.03-36.83-351.69-36.85-223.47-36.899-95.24-36.68 32.99-37.16 47.46-37.22 50.04-33.77 50.02-23.47 49.63 187.851 49.73 399.17 49.73 610.49"/>
</g>
</g>
</svg>
