<svg xmlns="http://www.w3.org/2000/svg" width="2048" height="1920" viewBox="0 0 2048 1920"><defs><clipPath id="clip_1"><path d="M0 0h2048v1920H0Z"/></clipPath></defs><g clip-path="url(#clip_1)"><path fill="#231f20" d="M575.15 759.873c-4.071 9.378-5.985 20.276-6.57 24.113L280.89 633.019l13.156-23.45Zm1243.89 652.566c.509 1.976-.287 4.385-2.506 7.58-1.483 2.14-2.6 4.507-3.495 6.538-2.464 5.554-4.947 8.522-7.815 9.34-2.567.733-5.754-.23-9.743-2.94-19.78-13.434-41.325-24.251-62.161-34.711-10.118-5.08-20.581-10.332-30.697-15.813-42.043-22.784-88.35-47.316-145.73-77.203-5.245-2.731-4.924-6.36-4.583-10.203.167-1.888.34-3.838-.202-5.627.3-9.513.619-15.804 2.143-16.648.946-.523 3.447.935 6.614 2.782 1.81 1.054 4.06 2.367 6.703 3.725 41.46 21.289 83.435 43.298 124.027 64.582a37171 37171 0 0 0 53.072 27.793q6.178 3.227 12.352 6.463c18.293 9.58 37.208 19.487 56.023 28.79 3.523 1.744 5.484 3.56 5.998 5.552M1250.423 1171.5v.002c.074.81-.06 1.397-.397 1.745-.424.438-1.284.63-2.49.559-1.352-.082-2.974.059-4.542.194-2.338.202-5.871.508-6.11-.521-.814-3.496-.088-7.38.752-11.876.29-1.555.589-3.152.834-4.805 1.033.5 2.01.959 2.94 1.396 2.57 1.208 4.792 2.25 6.827 3.525 2.467 1.544 2.344 3.924 2.202 6.679-.053 1.022-.108 2.078-.016 3.102m-70.997-19.99c1.65-1.31 2.759-.461 4.893 1.79.478.505.974 1.027 1.476 1.46 2.983 2.577 3.947 6.032 5.063 10.034.425 1.524.86 3.088 1.433 4.674l-3.73.004c-3.08.006-5.905.01-8.734-.006-3.29-.022-4.012-2.041-4.813-5.363-.177-.738-.362-1.502-.602-2.191-1.543-4.445 1.669-7.751 5.014-10.401m-449.305-22.388c-.171.68-.718 1.277-1.674 1.828-.79.45-1.882.923-2.612.616-.925-.388-1.348-2.011-1.688-3.316a26 26 0 0 0-.257-.938c-.618-2.012-.68-4.218-.767-7.272q-.026-.983-.065-2.085c.483.585.939 1.132 1.37 1.65 1.923 2.307 3.312 3.974 4.462 5.795.802 1.284 1.506 2.623 1.23 3.722m803.99 34.554c-1.805.546-3.03-.732-4.54-3.127-.16-.253-.288-.524-.417-.792-.445-.926-1.055-2.194-2.784-2.533-2.67-.51-4.308.894-5.893 2.25l-.331.282c-2.01 1.702-4.751 2.478-7.654 3.299-6.17 1.745-13.16 3.723-12.396 15.816.509 8.047.362 13.122-1.898 15.245-2.411 2.265-7.982 1.755-16.208.719-12.396-1.562-26.063-2.888-41.78-4.055-5.114-.38-7.992-1.367-9.332-3.2-1.311-1.793-1.404-4.652-.303-9.27l.197-.824c1.693-7.085 3.292-13.777-2-20.731-.713-.936-1.005-1.725-.868-2.347.245-1.115 1.885-1.984 3.332-2.751.573-.303 1.113-.59 1.594-.9q1.25-.8 2.509-1.592c8.055-5.076 16.383-10.326 18.715-21.94l.3-1.491-1.49.318a91 91 0 0 0-2.428.563c-1.57.379-3.053.736-4.511.887-1.202.127-2.87.076-3.994-.895-.792-.684-1.224-1.755-1.282-3.185-.02-.465-.063-.94-.107-1.416-.26-2.858-.431-4.746 3.428-5.262 2.933-.388 5.3-2.326 7.59-4.201 3.732-3.056 6.955-5.695 12.338-2.476.674.404 1.432.375 2.028-.077 1.26-.956 1.486-3.548 1.094-4.987-1.114-4.058-2.306-8.115-3.686-12.813-.62-2.11-1.28-4.356-1.992-6.804l-.761-2.616-1.112 2.487c-3.26 7.287-8.014 8.272-13.437 8.745-7.828.679-13.23 3.359-14.148 14.232-1.156 13.53-6.276 26.516-14.81 37.554-3.421 4.43-6.981 5.889-11.206 4.586-4.244-1.303-4.443-4.614-4.694-8.805q-.037-.637-.081-1.281c-.635-8.977.28-18.622 2.722-28.665 1.71-7.056 1.078-13.275-1.991-19.575-7.52-15.397-.138-27.64 8.065-38.858.19-.26.512-.484.854-.721.85-.592 2.136-1.486 1.924-3.66-.405-4.1.14-5.373.67-5.72.527-.344 1.896-.343 5.43 1.626 8.68 4.83 16.467 11.432 23.779 20.163-3.145 2.37-7.203 3.49-11.136 4.576-6.401 1.766-13.02 3.592-14.644 11.012q-.206.931-.426 1.908c-2.317 10.274-5.49 24.345 12.123 28.653l.716.175.379-.632c2.586-4.307.972-8.598-.588-12.747-.666-1.773-1.296-3.448-1.601-5.102-.762-4.152-.453-7.055.947-8.874 1.11-1.446 2.954-2.25 5.63-2.46 15.56-1.196 26.705-10.784 34.674-19.001 3.35-3.453 5.709-4.916 7.635-4.742 1.852.165 3.723 1.844 6.256 5.61 12.244 18.177 25.422 35.532 38.973 53.189 7.647 9.968 12.38 23.795 14.07 41.096.04.424.116.883.194 1.359.455 2.776.442 4.153-1.635 4.777Zm-1.06 76.486c-.93.599-4.322-.992-9.02-3.195l-.472-.221v-.001c-.38-.177-.753-.373-1.127-.567-.834-.435-1.698-.885-2.65-1.17l-.272-.08c-5.19-1.517-9.67-2.828-8.687-9.423.245-1.638.723-2.72 1.419-3.214.417-.295.939-.4 1.527-.4.705 0 1.504.15 2.328.308 1.602.304 3.398.646 4.828-.225 1.395.216 2.83.249 4.22.28 4.989.115 8.593.197 8.69 7.579l.015 1.146c.065 4.99.113 8.596-.798 9.183M989.91 935.494v.002c-.046 2.148-1.181 2.745-3.184 3.614-.668.29-1.353.587-1.993.989-3.364-1.791-5.35-3.131-4.796-6.082.548-2.962 2.053-4.458 4.478-4.458q.345 0 .714.04c3.526.379 4.866 2.032 4.78 5.896m538.147 38.348c-.071-2.964 1.902-5.988 3.794-7.33.465-.33 1.27-.8 2.082-.8.219 0 .439.035.653.116 9.587 3.639 17.812.519 25.766-2.498 3.254-1.235 6.596-2.503 9.995-3.274-5.248 6.262-11.6 11.038-17.76 15.672-1.98 1.488-4.025 3.027-6 4.588-1.54 1.213-8.1-.048-13.496-2.594-3.955-1.865-5.022-3.352-5.033-3.878Zm-216.97-128.902c-9.54 7.129-11.211 17.27-12.276 28.094-2.791-5.35-3.138-10.995-.936-16.156 2.263-5.307 6.924-9.461 13.212-11.938m117.53-7.42c1.92-.935 4.286.62 5.377 2.6.533.967.663 1.837.357 2.388-.31.552-1.133.888-2.325.946-.958.049-1.916.024-2.93-.002-2.768-.072-5.628-.145-8.373 1.372-.578.16-1.092-.022-1.426-.21-.48-.27-.783-.643-.898-.854 1.57-2.677 4.349-3.795 7.287-4.977.974-.392 1.98-.797 2.932-1.262m-389.471-20.77c-.255-.196-.49-.412-.726-.628-.932-.85-2.07-1.886-4.192-1.886q-.32 0-.667.032l-.17.017-.153.07a66 66 0 0 0-2.255 1.107c-1.841.93-3.927 1.987-6.08 2.624-1.436.427-2.918.332-3.961-.255-.788-.443-1.315-1.147-1.563-2.09-.22-.84-.148-1.231-.072-1.33.159-.205 1.03-.203 1.548-.202.995.003 2.128.004 2.849-.786 3.442-3.807 6.627-5.652 9.742-5.62 2.857.025 5.766 1.708 8.647 5.006.44.503 1 .958 1.54 1.397 1.954 1.588 2.583 2.344 1.419 3.99-.587.828-1.16 1.279-1.706 1.339-.948.104-2.09-.925-3.096-1.833a21 21 0 0 0-1.104-.951m-70.82-58.35.385-.8c2.377-4.95 6.527-7.957 10.922-11.14l.194-.14a1977 1977 0 0 1-3.952 7.66c-4.371 8.443-8.89 17.172-12.9 25.975-8.722 19.158-10.417 37.343-5.333 57.228 4.079 15.974 9.31 32.469 16.96 53.483 1.093 3.002 1.286 5.902.573 8.623l-.106.412c-.81 3.167-1.66 5.794-3.854 5.86-1.273.044-2.821-1.856-4.214-5.208-9.725-23.328-15.444-46.294-17.487-70.208-2.361-27.572 7.924-49.028 18.813-71.744m11.03 51.876c.366-.283.744-.576 1.055-.895.897-.914 1.779-1.892 2.632-2.838 4.612-5.115 8.974-9.954 16.87-6.615-.03 1.106-.395 2.083-1.022 2.683-.496.475-1.13.68-1.827.597-7.218-.866-11.247 3.172-15.406 8.137-.161.192-.33.414-.505.646-.495.655-1.174 1.553-1.685 1.568-.267.006-.624-.241-1.021-.704-.247-.287-.535-.701-.501-1.036.049-.487.772-1.048 1.41-1.543m200.964 189.118c1.267-1.644 3.158-2.556 5.222-2.5 4.517-.026 7.732 1.266 10.45 4.174 5.008 5.374 10.058 10.884 14.942 16.212 4.879 5.322 9.923 10.826 14.928 16.197 1.818 1.956 2.23 3.633 1.339 5.436-.978 1.974-2.765 2.657-6.17 2.355-11.124-.95-19.271-7.92-27.15-14.66a279 279 0 0 0-4.423-3.73c-4.896-4.008-8.451-9.412-10.28-15.627h.002c-.861-2.936-.446-5.8 1.14-7.857m-53.118 12.41c1.116-2.396 2.27-4.874 3.06-7.19 1.324-3.897 2.624-7.804 3.925-11.71 3.089-9.281 6.284-18.877 9.754-28.178 1.79-4.807.335-8.734-1.07-12.532-.506-1.366-.984-2.657-1.318-3.991-.83-3.316-1.944-6.598-3.02-9.772-.877-2.583-1.782-5.253-2.528-7.921-1.253-4.482-.027-7.484 3.646-8.926 3.113-1.23 4.367.914 6.062 4.59.19.414.377.819.565 1.202.762 1.553 1.292 3.202 1.854 4.95.498 1.549 1.013 3.15 1.704 4.672 2.875 6.323 4.5 9.656 7.179 10.372 2.49.666 5.28-1.014 10.43-4.665-.142 3.897-1.203 7.428-2.234 10.858-1.217 4.052-2.476 8.242-2.073 12.8.658 7.524 1.692 15.428 6.362 22.113 3.377 4.83 3.824 9.856 1.197 13.443-4.596 6.276-6.16 13.36-7.67 20.213-.447 2.027-.91 4.123-1.443 6.164-1.25 4.796-3.622 8.094-6.857 9.538-3.277 1.464-7.383 1.014-11.875-1.301-2.053-1.055-4.418-2.003-6.705-2.92-5.397-2.163-10.978-4.401-12.473-8.013-1.364-3.294 1.123-8.632 3.528-13.795m-48.286-250.146c-.015 2.24-.486 3.779-1.44 4.706-1.272 1.237-3.484 1.448-6.411 1.384-3.098-.064-6.385-.023-9.437.703-1.351.324-2.614 1.119-3.835 1.886-2.963 1.864-4.607 2.704-6.707-.117-2.102-2.816-4.68-6.961-2.796-10.414 1.845-3.362 5.133-4.914 10.537-4.914q.972 0 2.037.067c.747.045 1.487.034 2.202.022q.482-.01.954-.011c.796.006 1.599-.012 2.4-.03 1.565-.033 3.184-.07 4.727.088 4.712.475 7.798 1.193 7.769 6.63m17.937 13.78-.342.085c-1.066.266-2.677.669-3.185.31-3.9-2.761-6.804-5.508-8.187-9.714 4.353-.993 6.353 1.634 8.644 4.645.959 1.259 1.949 2.56 3.132 3.556.032.268-.003.765-.062 1.118m114.365 193.66c-1.785 1.118-2.693.244-4.273-1.53-.42-.472-.854-.96-1.32-1.364-4.315-3.751-7.114-8.85-9.822-13.78-1.015-1.847-2.065-3.76-3.184-5.582-4.744-7.711-9.731-13.366-18.65-15.901-5.088-1.446-7.724-2.964-8.296-4.778-.598-1.9.74-4.667 4.476-9.253 1.852-2.272 3.408-4.735 5.21-7.587.584-.924 1.192-1.886 1.843-2.893 1.056 2.517 2.036 5.012 2.99 7.439 2.877 7.325 5.596 14.244 9.846 20.53.367.543.733 1.098 1.1 1.656 2.49 3.786 5.068 7.702 9.048 9.053 6.662 2.262 8.753 7.516 10.966 13.079.492 1.236 1 2.514 1.558 3.747 1.06 2.348 1.224 5.463-1.492 7.165m74.322 33.473c8.725 12.117 13.757 24.28 15.38 37.188.618 4.906-.323 7.935-2.961 9.53-2.413 1.457-4.404-.52-7.167-3.704-7.82-9.013-13.276-19.75-18.552-30.134l-1.4-2.75c-5.97-11.7-13.578-23.107-28.707-27.32l-6.32-1.761 5.509 3.564c12.48 8.07 19.744 20.676 26.768 32.866 3.219 5.585 6.546 11.36 10.344 16.658 2.382 3.313 4.123 7.25 4.777 10.804l.107.57c.842 4.455 1.203 7.99-2.344 9.585-3.79 1.707-6.155-1.321-8.64-5.147-1.988-3.076-3.771-6.39-5.495-9.593-1.794-3.335-3.648-6.783-5.756-10.005l-2.024-3.106c-8.286-12.738-16.854-25.908-30.09-35.147l-5.11-3.568 11.598 15.464a8579 8579 0 0 1 16.149 21.563c5.193 6.95 9.254 13.003 12.2 19.942 1.466 3.466 1.093 5.62-1.427 8.233-2.23 2.322-3.84 1.433-6.068.2-.32-.175-.636-.35-.954-.514-9.173-4.711-15.346-12.656-20.651-20.54-5.278-7.84-11.836-14.666-18.178-21.27-4.61-4.796-9.375-9.757-13.586-15.047-2.726-3.424-3.788-5.853-3.34-7.645.469-1.874 2.589-3.474 7.32-5.521 11.87-5.138 25.638-8.275 39.815-9.073 17.32-.975 29.834 13.21 38.803 25.678m76.11 17.195c-.391.637-.834 1.358-1.396 1.804l-.004.003c-1.434 1.143-3.205 1.095-4.308-.115-6.115-6.753-14.202-7.872-22.023-8.953-.964-.134-1.926-.267-2.881-.41-2.813-.421-4.17-2.26-5.604-4.208-1.094-1.484-2.224-3.02-4.021-3.947-.39-.198-.793-.493-1.22-.805-.893-.651-2.012-1.47-3.341-1.47-.597 0-1.237.167-1.917.587-2.882 1.778-2.205 4.18-1.61 6.3.098.347.199.704.29 1.075.328 1.315.996 2.779 1.642 4.194 1.038 2.272 2.214 4.848 1.653 6.322-.197.52-.628.92-1.317 1.225-2.486 1.105-4.082-1.261-6.417-5.29-.827-1.427-1.683-2.902-2.632-4.047-14.882-17.922-32.842-34.123-54.907-49.53-9.828-6.868-18.475-15.708-26.434-27.026-1.71-2.426-2.946-5.59-1.296-7.193.45-.44.854-.65 1.196-.623.777.06 1.696 1.28 2.436 2.262.43.573.839 1.114 1.278 1.55 33.14 32.729 72.687 59.007 117.543 78.104 2.224.949 4.419 2.129 6.543 3.27 1.742.937 3.543 1.905 5.376 2.757 1.712.794 2.994 1.542 3.634 3.742q-.127.2-.263.422m-7.507 38.24c-.6.552-1.403.603-1.97.548-1.601-.154-3.452-1.312-4.606-2.88-.784-1.068-1.834-1.978-2.85-2.86-2.692-2.336-4.276-3.925-2.981-7.014.636-1.513.859-2.996 1.075-4.431.187-1.238.363-2.408.796-3.476.479-1.188.754-2.737 1.046-4.378.394-2.212.933-5.242 1.959-5.488a.7.7 0 0 1 .15-.016c.567 0 2.19.573 5.819 5.376 1.545 2.05 4.123 1.74 6.397 1.468.806-.097 1.565-.191 2.254-.18 3.21.042 4.725 1.518 4.892 4.78-2.212 6.944-6.352 13.355-11.981 18.552m36.915 33.138c4.12 7.91 7.677 14.742-2.518 20.876-3.502 2.11-3.806 7.55-3.816 12.484-.005 5.127-1.232 14.314-9.385 18.234-3.911 1.885-5.856 3.766-6.304 6.099-.366 1.906.328 4.038 2.225 6.68-21.358-9.042-39.84-19.06-55.606-27.818-4.157-2.308-5.783-5.314-5.436-10.05.376-5.033.226-10.147.08-15.093-.244-8.35-.497-16.983 1.804-25.321.844-3.032.664-5.325-.535-6.816-1.005-1.25-2.665-1.88-4.943-1.88q-.363 0-.746.02c-1.427.08-3.264-.024-3.916-.98-.938-1.377.49-4.487 1.177-5.981 2.582-5.608 5.707-11.09 8.729-16.391l.936-1.641c.552-.973 1.098-1.536 1.623-1.676.73-.193 1.692.377 2.805 1.038.564.336 1.148.683 1.782.978 6.57 3.069 11.835 8.095 16.926 12.955 2.914 2.782 5.928 5.659 9.176 8.17 3.18 2.46 5.743 3.403 8.065 2.969 2.919-.547 4.893-3.244 6.437-5.808 3.035-5.024 6.068-10.163 8.999-15.135 2.877-4.876 5.85-9.92 8.825-14.844 3.6-5.947 6.733-8.782 12.094-5.673 7.665 4.433 10.669 9.853 9.183 16.566-1.037 4.662-2.884 8.802-5.2 11.657-8.754 10.823-9.558 22.723-2.461 36.38m-389.761-144.933c.426-1.646 1.579-1.811 4.146-2.03 1.455-.122 3.102-.262 4.768-.895l1.58-.602-1.288-1.095c-18.146-15.413-22.42-36.805-26.552-57.493-1.667-8.347-3.391-16.978-6-25.121-2.57-8.032 2.975-14.484 8.337-20.724 1.726-2.01 3.51-4.086 4.979-6.171 2.025-2.88 4.699-5.422 7.286-7.881 1.373-1.306 2.793-2.656 4.119-4.056 2.189-2.307 2.479-5.187.704-7.005-.748-.763-1.544-1.143-2.382-1.126-1.424.026-2.492 1.197-3.35 2.139-.223.243-.44.48-.651.686-2.59 2.498-5.15 5.103-7.626 7.622q-1.341 1.366-2.687 2.728c-1.892 1.919-4.12 2.128-6.114.57-1.376-1.071-1.07-1.948.157-4.182.176-.32.352-.641.518-.967 4.458-8.801 11.436-13.078 21.332-13.078h.059c.507.002 1.06.053 1.648.108 2.24.209 5.309.495 6.725-2.641 1.398-3.093-.794-4.746-2.395-5.952-.636-.48-1.237-.933-1.607-1.417-.908-1.198-1.98-2.258-3.015-3.282-1.204-1.191-2.342-2.316-3.217-3.62l-.156-.231c-3.753-5.584-5.637-8.386-8.234-8.741-2.637-.361-5.157 1.795-10.706 6.54-.987.85-1.984 1.693-3.1 2.636-.77.65-1.596 1.348-2.515 2.13l-1.17.994 1.383.668c3.532 1.708 6.072.023 8.313-1.464 1.952-1.294 3.336-2.121 5.069-1.702-1.487 3.4-4.313 5.813-7.29 8.355-4.393 3.75-8.936 7.63-9.3 14.967-.19 3.937.21 7.252.599 10.457.552 4.56 1.077 8.895-.16 14.636-10.504-17.517-12.141-33.011-5.351-49.953 6.958-17.336 16.33-33.736 25.396-49.596 1.81-3.168 3.62-6.337 5.415-9.514 2.153-3.808 4.889-5.98 9.44-7.5 9.195-3.063 15.084-7.4 19.099-14.06 1.854-3.081 5.1-4.73 9.653-4.898 20.934-.796 45.354.246 67.758 14.01 7.363 4.522 15.364 9.005 25.068 9.82 4.957.418 9.095 4.654 12.746 8.393l.25.257c11.012 11.248 22.42 23.62 31.255 37.86 3.2 5.164 5.165 10.364 6.003 15.896.877 5.799.134 9.86-2.15 11.747-2.16 1.785-5.767 1.8-10.72.049h-.001c-5.876-2.077-11.208-6.071-16.78-12.57-1.19-1.386-1.733-2.68-1.613-3.846.104-1.015.73-1.973 1.863-2.846 1.18-.912 2.398-1.234 3.522-.934 1.135.304 2.107 1.255 2.667 2.61 1.966 4.76 5.778 6.845 9.463 8.86 1.444.79 2.808 1.535 4.075 2.437 2.02 1.44 5.31 1.635 7.1-.562.907-1.117 1.938-3.488-1.346-6.814-1.803-1.825-3.571-3.802-5.28-5.712-8.264-9.235-16.81-18.783-32.798-15.737-5.005.959-10.915-1.782-15.058-6.982-2.578-3.252-4.59-6.181-3.075-9.111 1.337-2.607 3.37-2.128 6.578-1.13.762.237 1.549.482 2.31.644 1.267.268 2.503.617 3.81.987q.866.246 1.749.486l.916.246.295-.902c1.556-4.768-1.983-6.145-3.885-6.885-29.002-11.281-63.6-22.611-100.316-21.11-.517.022-1.191-.087-1.907-.202-1.687-.271-3.6-.578-4.961.552-.87.722-1.312 1.862-1.354 3.484-.134 4.865 4.023 5.398 7.058 5.786.403.052.8.103 1.188.162 7.447 1.133 15.043 1.245 22.39 1.353 4.753.07 9.668.142 14.477.492 20.668 1.499 31.502 14.94 42.972 29.172a697 697 0 0 0 2.827 3.494c.434.532.948 1.034 1.445 1.519 1.455 1.42 2.736 2.67 2.358 4.648-8.351-1.728-9.83-2.418-21.096-16.191-4.481-5.47-9.704-8.525-15.104-8.834-13.252-.748-29.746-1.68-45.027 4.068-7.123 2.676-11.464 6.57-12.552 11.264-1.078 4.645 1.058 9.972 6.176 15.406 7.39 7.84 15.07 12.36 24.166 14.225l1.39.285-.2-1.406c-.252-1.78-1.021-3.484-1.764-5.132-1.737-3.854-3.11-6.898 1.93-10.033 7.426-4.622 21.529-5.702 26.946-2.062 1.077.725 1.674 1.408 1.68 1.923.009.72-1.186 1.568-1.977 2.127q-.258.18-.484.348c-.767.569-1.665 1.02-2.615 1.5-2.776 1.397-5.923 2.98-7.661 8.164l-.655 1.953 1.94-.693c2.242-.801 4.336-1.56 6.332-2.283 4.495-1.627 8.377-3.033 12.347-4.352 19.323-6.446 34.337.163 43.418 19.113 3.364 7.016 7.67 14.354 13.162 22.432 2.088 3.072 3.372 5.54 2.853 7.607-.388 1.545-1.832 2.95-4.415 4.3-2.23 1.163-3.406 2.46-3.602 3.969-.3 2.32 1.829 4.255 3.707 5.962l.423.386c7.802 7.178 11.27 27.98 6.186 37.097-.193.343-.344.715-.49 1.074-.152.375-.435 1.074-.613 1.156-.001 0-.051.008-.177-.034-1.185-.392-2.585-1.674-2.775-2.54-.498-2.291-.801-4.711-1.095-7.053-.477-3.811-.971-7.753-2.321-11.363-1.007-2.698-2.043-5.374-3.077-8.046-3.835-9.911-7.802-20.16-10.038-31.081-.603-2.952-1.916-5.106-3.903-6.405-3.962-2.588-9.733-1.346-14.824-.25-1.281.275-2.491.535-3.607.72-5.611.929-11.74 3.48-18.215 7.586-12.634 8.02-26.59 8.992-42.662 2.968-1.533-.576-3.4-.528-5.205-.481-4.24.109-5.977-.16-6.077-3.294-.043-1.363.209-2.301.77-2.867.979-.987 3.067-.938 5.087-.891 1.68.039 3.419.079 4.87-.423 3.692-1.278 5.812-3.008 6.67-5.444 1.256-3.561-.352-8.608-5.213-16.364l-1.967-3.138.12 3.702c.048 1.455.278 2.734.48 3.86.49 2.71.565 3.599-1.086 4.272-1.045.425-1.444.03-2.407-1.304-.371-.514-.754-1.045-1.245-1.46-7.077-5.974-15.52-11.625-26.176-3.001-4.235 3.419-5.926 7.33-5.322 12.31 2.146 17.722 2.23 18.414 9.832 20.71l.98.296.273-.987c.047-.173.13-.366.21-.56.286-.692.609-1.476.13-2.144-.364-.52-.758-1.038-1.152-1.557-2.62-3.445-4.076-5.716-1.144-8.851 1.309-1.402 2.423-2.1 3.3-2.067.504.017.966.293 1.414.847 2.802 3.439 3.086 7.108.896 11.543-1.152 2.324-2.161 4.75-3.136 7.097-2.08 5.004-4.231 10.179-7.847 14.443-1.776 2.09-2.485 3.94-2.108 5.5.305 1.26 1.275 2.237 2.884 2.903 1.18.49 2.21.535 3.06.132 1.412-.671 1.908-2.331 2.346-3.797.105-.35.208-.697.323-1.023 1.603-4.575 3.363-8.155 6.738-10.764 1.825-1.415 3.665-2.088 5.182-1.894 1.002.128 1.86.648 2.55 1.543.52.675.732 1.27.649 1.818-.183 1.2-1.766 2.316-3.163 3.299q-.391.275-.758.54c-3.461 2.543-6.742 5.42-7.296 9.226-.385 2.64.547 5.403 2.848 8.447l.655.865.809-.722c8.974-8.011 17.339-12.584 26.325-14.391 2.075-.418 6.389-1.287 6.344-6.114-.02-1.644-.546-2.936-1.561-3.84-1.94-1.724-5.06-1.396-6.234-1.273l-.171.017c-4.515.452-7.848-.073-9.142-1.44-.567-.597-.764-1.387-.604-2.417.193-1.26.66-2.121 1.43-2.634 1.98-1.32 5.845-.365 9.254.479l.753.185c.846.207 1.695.426 2.546.646 5.104 1.318 10.38 2.68 16.025 1.69 3.232-.568 5.625.932 6.916 4.335.379 1.007.818 2.009 1.242 2.979 1.864 4.257 3.624 8.28.535 12.7-3.37 4.823-8.577 4.726-13.611 4.632-1.122-.021-2.182-.041-3.23-.01-13.657.41-27.575 2.709-36.858 16.648-4.263 6.416-4.868 13.616-4.886 20.44-.012 4.019 1.327 7.36 3.873 9.665 2.817 2.55 7.009 3.68 11.802 3.187 3.624-.375 7.27-1.006 10.797-1.615 7.814-1.352 15.894-2.75 23.988-1.364.895.153 1.783.114 2.642.077.877-.038 1.705-.074 2.443.1 8.059 1.885 17.707 5.14 20.815 13.66 2.118 5.818-2.883 9.92-7.72 13.887-1.006.826-1.956 1.605-2.85 2.405-11.692 10.46-24.216 15.207-38.291 14.507-8.4-.415-14.17-.003-16.973 3.332-2.66 3.164-2.278 8.42-.57 16.334-2.446-.366-4.225-1.248-5.413-2.68-2.255-2.718-2.081-7.178-1.613-11.182.086-.734.214-1.49.342-2.245.645-3.813 1.447-8.558-4.122-9.601a8.6 8.6 0 0 0-1.55-.154c-1.071 0-1.956.259-2.681.78-1.685 1.216-2.006 3.513-2.317 5.735-.168 1.212-.342 2.456-.732 3.447-4.88-1.401-8.294-4.842-11.901-8.473a216 216 0 0 0-1.658-1.658c-2.23-2.198-4.213-4.55-3.623-6.831m185.798 85.17c-3.167 7.323-8.485 12.504-14.76 14.318-4.73 1.368-9.58.609-13.787-2.13 7.443-5.972 20.812-11.657 28.547-12.187m323.088 155.268c-.051-3.663.262-5.322 2.248-5.463h.002c.848-.063 1.457.076 1.813.409.73.68.719 2.366.709 3.996-.006.826-.011 1.677.077 2.468-.321 1.01-.192 2.156-.065 3.266.132 1.169.269 2.377-.23 2.955-.34.392-1.046.608-2.097.642-.918.027-1.57-.182-1.988-.637-.983-1.067-.724-3.411-.57-4.812l.056-.53c.067-.69.056-1.47.045-2.294m-667.006-313.19-.001.003c-.457 1.37-.822 2.01-1.261 2.207-.52.233-1.544.015-3.133-.668-3.757-1.608-7.011-2.781-9.627-3.724-4.974-1.793-7.976-2.875-8.648-4.754-.976-2.728 2.258-8.334 9.665-20.754 2.094-3.506 4.294-7.01 6.623-10.72.956-1.521 1.94-3.09 2.962-4.727 11.545 14.794 8.038 29.412 3.42 43.137M730.46 816.5q5.026-.002 10.053-.012c12.04-.018 24.49-.038 36.728.156.69.01 1.412.152 2.177.304 1.143.225 2.438.48 3.854.309 6.699-.824 11.213.067 13.798 2.725 2.696 2.773 3.47 7.652 2.367 14.916-1.182 7.808-2.482 12.937-5.308 14.377-2.388 1.217-6.241.176-13.746-3.712-4.45-2.301-9.024-4.544-13.446-6.714-12.348-6.058-25.11-12.32-36.536-20.502Zm-99.84-104.604.584 1.894 1.176-1.594a922 922 0 0 1 6.95-9.26c5.383-7.107 10.949-14.458 15.865-22.02 3.419-5.247 7.468-7.081 12.744-5.766 6.612 1.634 10.944-1.001 14.64-4.091 9.007-7.53 20.01-7.263 31.44-6.27 10.66.924 21.666 3.438 29.935 15.474 2.799 4.076 8.904 5.664 14.809 7.2 1.69.44 3.289.856 4.789 1.325 7.426 2.308 13.048 4.722 18.475 7.956-10.235 6.647-21.348 6.583-31.868 5.484-10.896-1.145-16.896 5.292-22.7 11.518-.825.886-1.652 1.774-2.494 2.64-3.303 3.396-3.548 8.798-.548 12.04 2.718 2.942 5.48.737 7.496-.874.575-.46 1.118-.893 1.645-1.225q1.185-.748 2.372-1.504c4.279-2.722 8.703-5.538 13.328-7.582 3.418-1.516 7.086-2.937 8.379-1.977 1.344.998.998 5.334.484 9.44-.027.208-.132.472-.242.752-.373.939-.997 2.513.884 4.123l.304.26.4-.021c5.53-.298 9.397-3.703 13.137-6.996 1.603-1.412 3.26-2.872 4.999-4.022 14.64-9.665 22.242-9.292 35.365 1.73 4.406 3.7 8.649 5.977 12.97 6.96 11.839 2.696 14.607 11.415 17.81 21.51.515 1.619 1.04 3.273 1.613 4.935-2.521-2.01-3.614-4.54-4.678-7.002-.721-1.668-1.466-3.393-2.633-4.858-2.831-3.552-5.28-5.156-7.72-5.048-2.458.11-4.7 1.89-7.266 5.776-3.96 5.984-5.956 8.88-8.093 9.338-2.118.454-5.05-1.375-10.95-5.222-7.04-4.604-12.372-.653-15.77 2.718-4.291 4.248-8.027 9.453-3.195 15.84 2.32 3.07 3.205 4.76 1.308 6.994-1.34 1.577-2.4 1.075-4.496-.445-.465-.338-.905-.656-1.35-.906-5.771-3.225-11.081-4.165-15.784-2.793-5.095 1.486-9.512 5.588-13.473 12.522-3.434-4.215-3.355-8.606-3.272-13.234.02-1.096.04-2.23.008-3.336-.094-3.376-.512-5.81-2.248-6.717-1.477-.771-3.46-.248-6.424 1.697-9.73 6.388-13.121 20.8-7.56 32.129l.373.745c1.248 2.47 1.828 3.847.299 5.715-1.433 1.754-2.91 1.525-5.297.443-1.376-.627-3.433-.958-4.7-.202-1.827 1.085-3.443 1.443-4.672 1.035-1.031-.342-1.858-1.245-2.458-2.686-1.264-3.022-.252-5.847 3.189-8.893.642-.57 1.572-1.072 2.558-1.603 1.872-1.01 3.994-2.153 4.592-4.202.364-1.25.12-2.612-.746-4.167-2.472-4.44-6.65-10.582-12.511-14.63-1.156-.795-2.094-.636-2.677-.363-1.965.919-2.694 4.504-2.96 7.35-.041.449-.034.904-.027 1.345.029 1.823-.082 2.433-1.52 2.685-1.673.296-3.033-.427-4.156-2.211-.372-.592-.752-1.184-1.131-1.775-4.37-6.817-8.497-13.256-1.44-21.061 2.16-2.391 3.839-6.342-.443-11.59-3.375-4.15-7.851-3.762-11.373-2.963-4.89 1.115-4.793 5.592-4.723 8.86l.022 1.187c.017.896.033 1.743-.017 2.585-.043.695-.013 1.44.016 2.16.124 3.053-.034 4.429-2.058 4.793-1.344.242-1.822-.51-2.671-3.048-.29-.867-.588-1.764-1.034-2.5-.318-.523-.622-1.074-.928-1.628-1.481-2.68-3.16-5.716-6.658-5.978-4.485-.332-6.977 4.86-7.634 6.458-1.971 4.789.899 8.712 3.23 11.247 2.395 2.594 5.674 6.147 9.826 6.598 15.188 1.643 22.469 9.78 22.26 24.876-.056 3.793 2.133 6.729 6.505 8.726 2.764 1.269 3.945 3.073 4.387 7.044a1662 1662 0 0 0-8.996-4.244c-7.562-3.55-14.704-6.902-21.75-10.562-11.362-5.907-22.866-12.017-33.99-17.926-11.027-5.857-22.428-11.913-33.693-17.77-4.75-2.466-6.136-4.322-4.453-9.827 1.729-5.64 2.64-11.601 3.52-17.367.51-3.337 1.039-6.786 1.718-10.124.687-3.405 1.88-6.936 3.549-10.493 2.603-5.56 5.959-10.525 12.835-9.225 4.906.93 4.693 3.755 4.399 7.666-.151 2.007-.307 4.083.293 6.028m-82.317 312.56c26.586 1.65 50.872 10.855 74.247 28.138 27.564 20.38 49.402 37.527 68.726 53.959 4.925 4.189 8.782 9.979 12.51 15.577.653.979 1.3 1.953 1.954 2.916.78 1.152.99 2.1.62 2.82-.476.932-1.992 1.59-3.77 1.64-2.17.059-4.35.15-6.53.24-7.69.32-15.642.65-23.2-.49-14.794-2.226-27.673-3.311-39.314-3.311q-.745 0-1.483.006c-11.966.085-19.164-5.41-26.897-14.317-13.317-15.36-19.892-33.868-26.526-54.72-2.844-8.956-7.97-19.588-22.481-22.334a601 601 0 0 1-4.123-.795c-8.66-1.69-17.581-3.43-26.792-2.685 6.575-4.951 14.317-7.185 23.059-6.644m52.18-202.405c2.157.53 4.193 1.03 5.987 2.146 4.052 2.526 8.366 4.726 12.538 6.854 3.288 1.677 6.688 3.41 9.919 5.285.47.273.996.515 1.505.75 2.403 1.107 4.138 1.908 2.588 5.426-.814 1.85-1.455 2.259-1.765 2.338-.571.146-1.407-.504-2.216-1.131-.816-.633-1.66-1.287-2.626-1.487-1.26-.26-2.522-.702-3.861-1.171-2.065-.724-4.258-1.493-6.455-1.493-2.524 0-5.051 1.016-7.392 4.285-.298.416-1.136.819-1.475.778-2.095-.262-6.471-5.101-10.404-11.506-4.42-7.195-6.13-12.64-5.534-14.3l.003-.007c.213-.61.392-.77.558-.791 2.526 2.524 5.628 3.286 8.63 4.024m332.468 190.695c-7.012 4.049-13.31 5.778-19.818 5.439-6.108-.312-11.483 2.11-16.681 4.453-1.612.727-3.28 1.478-4.918 2.12-22.112 8.678-46.2 13.97-75.804 16.658-3.926.358-7.906.852-11.754 1.33-11.995 1.488-24.4 3.027-36.57.567-14.257-2.886-28.198-8.984-42.477-18.597 20.995 3.815 34.627-9.837 46.76-21.99 18.463-18.496 33.607-37.046 46.297-56.712 3.662-5.671 6.243-7.481 12.748-4.007 26.532 14.167 53.644 28.307 79.862 41.98a19793 19793 0 0 1 37.138 19.403c1.46.77 2.799 1.764 4.207 2.82-6.501.705-12.463 2.769-18.99 6.536m-685.348 73.326.272-.173c9.414-5.98 19.68-12.248 31.387-19.162l15.426-9.11c41.327-24.407 84.062-49.645 126.177-74.311 19.219-11.26 38.805-22.626 57.746-33.62 23.316-13.531 47.426-27.523 71.058-41.434l.897-.528c13.86-8.17 28.177-16.608 44.05-24.111-4.037 35.609-26.428 59.247-47.172 78.64-8.025 7.493-18.406 12.77-28.446 17.872-4.136 2.102-8.412 4.276-12.474 6.578-40.908 23.18-65.357 58.933-72.668 106.263-.878 5.68-3.672 10.34-7.868 13.123-4.255 2.822-9.793 3.574-15.591 2.116-7.505-1.891-15.182-2.296-22.605-2.687-3.626-.191-7.376-.39-11.032-.758-14.354-1.443-28.995-2.35-43.155-3.225-16.332-1.01-33.221-2.055-49.727-3.93-4.02-.456-8.13-.54-12.104-.621-7.388-.15-15.027-.306-22.204-2.898-.835-.303-1.715-.348-2.567-.393-2.01-.106-2.908-.24-3.162-2.293-.344-2.733 1.743-4.057 3.762-5.338m246.44-45.134c-2.706 7.246-3.225 14.848-3.726 22.199l-.17 2.442c-.966 13.32-.68 26.944-.302 39.756.113 3.867-1.664 4.784-4.603 5.833-8.497 3.028-17.181 1.668-25.58.353-2.77-.434-5.635-.882-8.465-1.171-.797-.081-1.446-.424-1.88-.992-.577-.76-.77-1.923-.541-3.274 5.15-30.431 15.946-55.263 33.004-75.915 14.2-17.206 33.073-27.604 51.326-37.66 4.745-2.614 9.65-5.317 14.412-8.103 17.535-10.256 31.944-25.294 45.348-47.325a2029 2029 0 0 1 4.093-6.686c8.094-13.19 16.456-26.815 23.243-41.71l.925 1.008c5.259 5.735 10.226 11.15 17.772 13.462.428.13.86.28 1.294.43 2.67.92 5.995 2.066 8.05-1.367 2.019-3.361-.65-5.008-2.416-6.097-.603-.372-1.173-.723-1.597-1.108-1.68-1.52-3.446-3.007-5.154-4.444-7.46-6.277-14.507-12.206-16.948-22.224q-.19-.77-.388-1.54c-1.181-4.637-2.301-9.033.325-13.59l8.7 7.417c3.652 3.113 7.27 6.199 10.846 9.243l.476.405.572-.25c1.458-.634 2.362-1.455 2.762-2.51.59-1.555-.114-3.075-.681-4.297-.131-.283-.257-.553-.355-.807-.837-2.161-1.691-4.854-.855-6.5.394-.774 1.164-1.305 2.355-1.622.485-.13.984-.28 1.49-.433 3.743-1.126 7.277-2.19 9.944 3.313 2.693 5.568 4.039 11.304 4.497 19.18l.086 1.483 1.342-.638c4.495-2.138 5.16-5.988 5.696-9.08a31 31 0 0 1 .396-2.027c.74-3.044 1.68-4.73 2.958-5.304 1.249-.561 3.143-.151 5.79 1.253 35.605 18.897 67.752 35.906 100.626 52.695 6.002 3.06 7.963 7.529 6.17 14.064-.413 1.512-.647 3.203-.873 4.838-.86 6.212-1.6 11.575-10.548 10.98-3.66-.24-6.352 1.95-8.955 4.068-1.415 1.15-2.877 2.34-4.527 3.197l-1.855.964 4.374 1.924c2.174.962 4.228 1.87 6.293 2.714.035.014 3.547 1.4 4.35 1.029l.399-.185.135-.416c1.547-4.766 5.863-7.285 10.432-9.951 6.493-3.788 13.207-7.706 12.022-18.335-.098-.858.82-3.614 2.107-4.22.215-.101.787-.37 1.809.689 1.402 1.45 3.426 2.068 5.383 2.665 3.539 1.079 6.096 1.86 5.342 6.553-1.327 8.274-6.31 15.272-10.5 20.445-8.104 10.004-16.88 19.739-25.366 29.155a1912 1912 0 0 0-9.827 10.958c-.267.297-.53.624-.796.956-1.52 1.893-2.286 2.583-3.764 1.769-1.04-.573-1.693-1.307-1.944-2.183-.293-1.023-.045-2.287.717-3.655 1.323-2.374 1.343-4.777.065-7.788-.946-2.241-1.713-4.483-.921-5.704.555-.856 1.957-1.313 4.166-1.358 3.318-.07 4.313-2.626 5.112-4.68.533-1.371 1.038-2.67 2.098-3.324.55.086.78.59 1.137 2.255.282 1.32.6 2.818 1.864 3.547.848.49 1.924.515 3.29.074 2.776-.908 2.835-3.277 2.878-5.007l.002-.105c.146-6.077-4.127-7.08-7.354-7.304-5.084-.353-9.486-2.563-14.146-4.903-3.89-1.953-7.911-3.972-12.364-4.811-5.612-1.063-11.05-.818-15.63-.437-2.077.179-3.872 1.084-4.924 2.485-.89 1.18-1.191 2.645-.876 4.232.297 1.498.977 2.557 2.022 3.15 1.732.98 3.904.424 5.997-.324a99 99 0 0 0 2.557-.977c4.613-1.81 8.969-3.52 14.05-.82 3.422 1.823 4.568 3.634 3.836 6.057-.777 2.57-1.497 5.209-2.193 7.76-3.402 12.464-6.615 24.237-16.807 33.112-4.548 3.96-8.906 4.973-14.13 3.286-33.682-10.87-60.13-33.215-78.606-66.415-1.334-2.396-2.54-4.935-3.706-7.39-1.005-2.115-2.044-4.302-3.168-6.408-.858-1.615-2.157-2.752-3.657-3.2-1.278-.381-2.601-.228-3.821.443-.982.535-1.556 1.18-1.756 1.972-.31 1.23.404 2.327 1.034 3.295.282.433.548.842.682 1.194 7.4 19.497 18.83 37.795 34.944 55.939 12.139 13.666 22.166 23.194 32.51 30.892 2.208 1.644 3.607 2.945 3.76 4.348.127 1.172-.586 2.61-2.248 4.528-5.285 6.114-6.913 13.797-8.487 21.228-.575 2.713-1.17 5.519-1.933 8.176-.591 2.056-1.101 3.832-1.714 4.085-.695.289-2.67-.718-4.51-1.74-9.151-5.092-18.005-11.058-26.567-16.827-12.515-8.433-25.457-17.153-39.671-23.392-21.474-9.431-40.68-14.666-58.715-16.003-21.763-1.61-48.78 6.75-59.344 35.038m340.277 98.646c.322.517.626 1.005.835 1.496.522 1.217 1.386 2.458 2.22 3.657 2.405 3.455 3.344 5.262 1.572 6.906-4.184 3.875-10.686 1.903-14.982-.963-6.832-4.551-11.844-8.717-9.162-17.33 4.322-13.88 1.377-21.151-11.672-28.817-1.851-1.085-3.763-2.128-5.611-3.137-3.122-1.703-6.35-3.464-9.325-5.453-4.877-3.27-6.152-6.708-4.136-11.15 1.355-2.986 1.49-5.106.414-6.482-.862-1.101-2.3-1.46-3.926-1.46-1.16 0-2.416.184-3.625.408-2.488.46-7.173 1.682-10.588 4.677-9.672 8.499-21.09 9.372-34.905 2.669-10.572-5.127-19.611-9.025-29.364-11.385-4.817-1.164-6.284-2.824-5.607-6.347 1.74-9.122 3.914-18.69 9.587-26.587 4.355-6.08 7.868-8.08 16.052-3.017 12.382 7.662 25.322 14.846 37.836 21.793 13.566 7.532 27.594 15.32 40.923 23.725 8.318 5.239 16.907 10.306 25.214 15.207 9.069 5.35 18.447 10.882 27.477 16.642 3.504 2.233 6.789 4.528 8.48 8.04.43.895 1.04 1.702 1.629 2.482 1.58 2.092 2.83 3.745.994 6.732-2.276 3.696-4.968 4.763-11.08 4.395l-.087-.005-.085.01c-2.772.313-6.858-.906-10.41-3.106-3.391-2.101-6.506-1.96-8.767.4-2.204 2.299-.872 4.438.099 6m110.227-60.817c11.652-8.913 21.825-17.333 28.307-30.151 2.427-4.788 5.1-11.823.312-17.605-1.67-2.021-3.532-2.73-5.454-2.73-2.41 0-4.91 1.113-7.24 2.15-.871.388-1.696.754-2.511 1.066-11.174 4.26-21.115 11.71-31.285 23.445-6.513 7.513-13.61 10.58-21.694 9.377-7.388-1.1-14 1.258-20.393 3.539-4.657 1.66-9.474 3.38-14.482 3.68-7.56.457-15.164 1.76-22.52 3.022-5.156.884-10.49 1.799-15.747 2.41-12.776 1.489-23.371-5.151-33.617-11.574l-1.466-.918c-1.807-1.128-1.925-1.991-1.547-2.933.067-.167.123-.235.12-.248.142-.007.51.138.734.226.5.196 1.067.419 1.688.34 5.748-.743 11.622-1.407 17.304-2.048 23.614-2.666 48.033-5.423 70.622-14.733 9.265-3.821 19.085-6.187 28.58-8.474 10.115-2.437 20.573-4.956 30.469-9.245 3.99-1.732 8.426-2.107 13.122-2.504 6.747-.57 13.718-1.16 19.62-5.978.16.112.343.245.487.35.445.327.906.664 1.335.89q10.559 5.551 21.115 11.108c24.155 12.71 49.132 25.855 73.774 38.63 1.447.75 2.81 1.552 2.99 2.314.15.636-.37 1.723-1.685 3.527-7.6 10.419-16.07 20.438-24.26 30.126-11.712 13.855-23.823 28.182-33.646 43.97-3.471 5.578-7.701 5.342-12.597 5.07-2.26-.126-4.593-.256-6.863.256-3.901-.264-7.807-.49-11.714-.714-8.53-.492-17.348-1-25.966-1.92-20.151-2.15-36.865-16.678-36.497-31.723.437-17.757 7.37-31.887 20.605-41.998m89.31 74.087c10.772-14.55 21.857-29.243 32.578-43.454l8.254-10.946a371 371 0 0 1 4.48-5.805l1.838-2.355c3.804-4.907 8.006-7.338 12.85-7.338 3.16 0 6.595 1.036 10.368 3.094 10.676 5.83 21.686 11.469 32.334 16.923 3.426 1.755 6.852 3.509 10.272 5.273 9.996 5.16 15.44 10.63 16.647 16.723 1.19 6.024-1.685 13.026-8.794 21.405-11.335 13.368-21.966 19.072-35.478 19.072h-.022c-10.125-.668-20.598-1.738-30.725-2.773-17.206-1.757-34.997-3.574-52.786-3.665-1.332-.005-3.023-.216-3.51-1.187-.493-.981.156-2.885 1.694-4.967m499.686 131.283c.02 2.173.042 4.398.048 6.694-23.926-9.96-46.463-22.173-68.273-33.993-9.642-5.225-19.611-10.628-29.507-15.727-17.833-9.19-35.828-18.816-53.23-28.125-8.033-4.297-16.065-8.594-24.11-12.865a38141 38141 0 0 1-32.875-17.48c-26.094-13.885-53.077-28.243-79.687-42.22-16.996-8.925-34.331-17.888-51.095-26.556-19.144-9.897-38.94-20.132-58.324-30.36-33.094-17.465-66.69-35.33-99.178-52.605-28.402-15.103-57.772-30.72-86.693-46.01-19.692-10.413-39.783-20.863-59.213-30.97-15.031-7.817-30.574-15.902-45.826-23.914a239242 239242 0 0 1-158.542-83.398c-27.213-14.323-54.426-28.646-81.632-42.96-.296-.16-.59-.208-.806-.245a2 2 0 0 0-.158-.018c-7.223-4.184-10.965-8.203-11.777-12.65-.831-4.552 1.378-9.852 6.95-16.677.826-1.01 1.43-1.385 2.052-1.385.584 0 1.183.332 1.997.783.217.12.438.243.66.359 15.796 8.284 31.583 16.58 47.37 24.877 15.894 8.353 31.788 16.707 47.692 25.047 8.664 4.54 17.343 9.053 26.022 13.566 14.133 7.348 28.746 14.947 43.053 22.549 15.313 8.133 30.848 16.48 45.87 24.554 20.936 11.25 42.583 22.884 63.979 34.12 23.83 12.517 48.14 25.079 71.65 37.227 21.964 11.349 44.675 23.085 66.943 34.757 36.444 19.103 73.45 38.623 109.237 57.5 32.818 17.31 66.754 35.21 100.167 52.743 20.63 10.824 41.663 21.706 62.003 32.229 20.506 10.609 41.709 21.579 62.503 32.49 30.088 15.787 60.612 31.972 90.13 47.626 16.039 8.503 32.076 17.008 48.123 25.49 2.8 1.482 5.596 2.974 8.393 4.466 10.023 5.348 20.387 10.878 30.82 15.822 4.395 2.085 5.609 3.896 5.413 8.078-.258 5.594-.206 11.222-.15 17.18m38.994-82.851c-21.542-1.431-21.49-2.795-20.598-25.576l.03-.767c.793-20.485 10.599-36.48 20.082-51.948 2.234-3.645 4.545-7.414 6.713-11.197 6.957-12.146 14.872-24.007 22.526-35.478 3.039-4.555 6.182-9.264 9.223-13.93.349-.537.829-1.102 1.338-1.701 1.625-1.914 4.082-4.808 1.005-7.46-.95-.815-2.035-1.177-3.227-1.073-2.556.223-4.998 2.6-6.596 4.555-11.381 13.91-20.873 28.83-28.214 44.343-2.466 5.214-5.567 10.252-8.567 15.124-1.613 2.619-3.28 5.328-4.838 8.045-1.22 2.13-2.843 4.62-4.593 4.982-.69.142-1.392-.064-2.15-.631a2 2 0 0 1-.827-1.497c-.132-1.534 1.062-3.883 3.04-5.982 5.987-6.343 9.832-13.674 11.756-22.414l.24-1.095-1.115-.114c-4.684-.482-7.173 2.132-9.368 4.438-.587.616-1.141 1.199-1.73 1.723-6.47 5.77-12.702 8.41-18.522 7.852-5.62-.541-10.955-4.083-15.86-10.528-7.857-10.331-15.505-21.111-22.901-31.536q-3.051-4.303-6.11-8.598c-4.45-6.24-3.985-10.985 1.552-15.868l.24-.211c6.416-5.655 13.05-11.501 17.373-20.876l.895-1.941-2.064.557c-12.847 3.47-22.99 10.538-32.276 17.48l-.271.204c-13.67 10.218-20.53 15.348-27.15 15.502-6.607.154-13.493-4.65-27.2-14.223l-1.596-1.114c-2.01-1.401-4.047-2.89-6.02-4.327-9.503-6.936-19.332-14.108-31.678-16.285-1.537-.275-4.122-1.764-3.801-3.756.207-1.314 1.34-1.638 3.7-2.021.462-.075.924-.151 1.368-.244 3.589-.755 7.362-1.317 11.01-1.86 9.809-1.458 19.952-2.967 28.268-8.406 21.66-14.16 30.132-25.331 23.073-54.104-1.86-7.6-4.115-14.67-6.891-21.617l-1.446-3.616-.475 3.865c-1.766 14.357-4.264 29.4-13.504 41.668-10.046 13.342-21.6 24.673-34.34 33.68-1.572 1.113-3.74 1.588-5.835 2.047l-.444.098c-2.123.477-3.991-.46-4.876-2.445-.63-1.417.373-2.531 2.316-3.975 2.1-1.56 4.342-3.04 6.51-4.471 3.779-2.493 7.686-5.071 11.054-8.2 19.918-18.517 28.98-36.038 29.384-56.811.009-.425.03-.86.053-1.3.14-2.79.317-6.263-3.144-8.076-3.556-1.854-6.351.615-8.393 2.417q-.389.346-.757.658c-5.866 4.964-12.808 7.167-18.827 8.668-5.951 1.494-12.724 3.492-17.793 8.319-5.272 5.012-9.451 6.824-17.66 2.815-2.47-1.211-3.81-2.224-3.98-3.015-.146-.69.647-1.646 1.652-2.857.326-.393.672-.81 1.017-1.257 2.448-3.144 4.886-6.356 7.709-10.076l5.144-6.767-2.248.194c-7.46.64-11.52 4.542-15.1 7.984-1.655 1.59-3.218 3.094-5.002 4.185-.587.36-1.147.82-1.69 1.265-1.972 1.619-2.91 2.16-4.261.963-1.866-1.66-1.2-2.898.764-5.33.377-.467.734-.908 1.037-1.357 2.646-3.943 5.889-7.6 9.064-11.18.889-1.003 2.054-2.536 1.922-4.267-.091-1.195-.753-2.287-2.025-3.342-1.042-.861-1.98-1.21-2.865-1.067-1.277.207-1.991 1.348-2.62 2.354-.163.259-.327.522-.503.77-2.703 3.846-6.515 6.225-10.552 8.744-3.846 2.399-7.823 4.88-10.783 8.749-6.536 8.544-7.04 16.92-1.418 23.592 2.295 2.713 4.293 3.828 6.11 3.413 1.797-.412 3.087-2.235 3.946-5.575.17-.666.304-1.4.432-2.11.623-3.428 1.097-4.605 2.522-4.386 2.017.308 2.084 1.66 1.759 4.904-.101 1.013-.206 2.06-.131 3.004.064.835.002 1.703-.063 2.62-.155 2.186-.332 4.662 1.392 6.889l.225.29.359.076c3.483.736 4.464-1.73 5.113-3.361.22-.554.428-1.078.684-1.42.396-.53.793-1.096 1.197-1.673 2.675-3.821 4.645-6.234 7.534-5 4.014 1.713 8.258 6.152 8.089 11.849l-.055 1.836c-.214 7.346-.435 14.943-2.627 21.672-.922 2.827-2.452 4.769-4.547 5.773-2.894 1.387-6.973 1.103-12.124-.845-3.083-1.163-6.207-2.394-9.23-3.584-11.61-4.572-23.613-9.3-36.233-11.372-1.891-.311-3.81-.465-5.665-.614-5.438-.437-10.574-.85-14.966-5.011-6.606-6.258-7.885-11.77-4.416-19.021.48-1.007.993-2.013 1.51-3.031 2.422-4.765 4.927-9.693 5.338-16.338l.116-1.881-1.623.958c-3.707 2.187-5.097 5.244-6.324 7.94-.605 1.33-1.177 2.587-1.971 3.61-.59.757-1.126 1.628-1.692 2.549-2.198 3.574-3.746 5.635-6.707 4.133-2.97-1.516-3.164-4.654-.667-10.832 2.7-6.703 5.43-12.023 9.975-16.198l.317-.287c1.184-1.057 2.805-2.505 2.31-5.972l-.145-1.023-1.018.179c-6.49 1.143-8.907 6.087-11.04 10.449-.564 1.155-1.096 2.245-1.696 3.273-.965 1.659-1.64 3.48-2.291 5.24-.671 1.815-1.305 3.529-2.226 5.069-.356.592-.6 1.343-.836 2.069-.31.95-.694 2.133-1.232 2.392q-.312.149-.902-.075c-2.444-.92-3.293-3.48-2.163-6.518.294-.79.58-1.582.867-2.372 1.949-5.384 3.79-10.47 7.729-14.594 9.506-9.97 15.362-10.441 27.242-2.19 3.368 2.336 6.344 5.213 9.222 7.995 2.694 2.604 5.48 5.297 8.617 7.587 3.465 2.534 6.003 3.39 8.224 2.777 2.19-.604 3.889-2.581 5.509-6.408 1.98-4.686 4.779-10.004 10.51-13.907 4.986-3.386 2.97-7.011 1.35-9.923-.96-1.725-1.866-3.354-1.621-4.947l.244-1.59-1.535.485c-2.333.739-2.381 3.739-2.424 6.385-.022 1.436-.057 3.606-.653 3.879-.193.088-1.372.348-5.686-3.24-1.098-.911-2.81-.581-4.162.802-1.534 1.57-2.255 4.334-.208 6.69 3.233 3.718 1.493 5.436-.915 7.815-1.252 1.236-2.547 2.515-3.027 4.16-.131.442-.433.723-.924.862-1.066.3-2.606-.167-3.661-1.115-.67-.602-1.026-1.148-1.001-1.537.038-.605.994-1.267 1.76-1.8.354-.243.686-.476.95-.701q.367-.309.73-.607c2.388-1.966 5.359-4.413 1.767-8.823-1.316-1.617-2.54-2.354-3.744-2.253-1.67.139-2.608 1.788-3.362 3.113-.3.529-.642 1.129-.87 1.313-3.364 2.7-6.032 1.499-9.171-.352-4.07-2.392-8.128-4.98-12.054-7.48a935 935 0 0 0-5.33-3.377c-8.151-5.123-13.305-6.75-17.79-5.615-4.52 1.142-8.326 5.08-13.137 13.593-1.037 1.832-1.797 3.817-2.532 5.736-.48 1.25-.975 2.544-1.537 3.764-.601 1.316-.457 2.833-.32 4.3.258 2.729.172 3.71-1.805 4.019-1.781.278-2.755-1.19-4.15-3.637-.596-1.047-1.213-2.13-1.981-2.977-17.751-19.591-24.046-43.94-19.81-76.628.25-1.942.237-3.922.223-5.836-.025-3.565-.05-6.933 1.456-10.251l3.184-7.023-4.871 5.978c-2.82 3.462-4.497 7.54-6.118 11.487-2.303 5.6-4.482 10.902-9.67 14.315-3.223-2.147-4.902-5.596-6.232-9.027-3.695-9.475-8.98-15.217-16.632-18.07-1.376-.511-3.268-1.351-3.813-2.734-.311-.788-.183-1.728.39-2.873 1.157-2.301 2.28-1.993 4.712-1.076.665.25 1.352.509 2.059.674 5.06 1.186 6.676 5.28 8.387 9.616l.403 1.014c2.478 6.195 5.723 9.509 9.642 9.85 4.09.36 5.953-3.532 7.45-6.66.43-.901.838-1.751 1.276-2.496 6.327-10.734 9.988-21.215 11.522-32.987 1.602-12.347 10.679-23.637 24.279-30.201 12.535-6.05 25.98-6.737 34.252-1.751 17.916 10.793 36.989 7.9 55.434 5.103q2.075-.317 4.145-.623c15.306-2.256 26.314-.254 37.993 6.91 16.316 10.009 30.889 19.866 44.55 30.134.46.347.908.676 1.335.99 2.447 1.802 4.215 3.103 4.378 4.667.156 1.497-1.068 3.646-3.852 6.766-12.203 13.672-15.467 13.198-25.158 11.79q-.826-.12-1.71-.245c.06-.376.159-.967.282-1.097.757-.656 2.004-1.1 3.21-1.53 2.436-.866 5.772-2.053 4.839-5.871-1.015-4.17-5.196-3.686-8.25-3.334-1.021.118-1.987.23-2.812.205-3.264-.092-5.481-1.265-7.29-3.892 2.295-2.653 5.138-2.613 8.4-2.567 1.49.02 3.03.043 4.533-.224 1.872-.332 3.692.259 5.619.884 2.588.84 5.522 1.792 8.823.363l.892-.387-.361-.903c-3.974-9.936-11.358-9.443-17.872-9.008-3.42.228-6.651.443-9.294-.732-4.105-1.824-7.261-2.176-9.65-1.075-3.244 1.494-4.363 5.254-5.445 8.89-1.494 5.02-2.651 8.144-6.828 7.73-.716-2.174-.418-4.664-.104-7.288.326-2.724.663-5.54-.051-8.372-.654-2.584-1.62-5.332-3.817-6.127-1.64-.594-3.59-.01-6.133 1.836-1.38.997-2.731 2.086-4.038 3.14-3.12 2.516-6.337 5.11-10.478 6.927.206-6.205 4.196-9.214 8.404-12.386.986-.743 2.005-1.512 2.944-2.31.604-.512 1.282-1 1.938-1.471 2.427-1.743 5.178-3.72 4.899-7.737-.2-2.936-2.61-5.071-6-5.313-5.086-.358-8.77 2.234-10.373 7.302-3.967 12.544-12.182 17.586-25.848 15.87-6.075-.772-11.264 1.74-16.283 4.17-2.046.99-4.16 2.014-6.274 2.775-1.117.403-2.143 1.017-3.136 1.612-1.807 1.082-3.406 2.04-5.364 1.767 5.233-9.23 13.947-11.508 23.15-13.914 7.099-1.855 14.438-3.773 20.032-9.142l4.845-4.648-5.99 3.035c-5.322 2.697-11.618 3.41-17.706 4.099-8.638.978-16.797 1.902-22.267 8.063-8.93 10.069-18.795 14.327-28.962 18.142l-.14.054c-.803.306-1.572.6-3.523-.798 12.589-2.478 20.14-10.842 27.459-18.945 3.357-3.716 6.827-7.56 10.748-10.797l1.548-1.278-1.952-.466c-10.837-2.586-15.6 5.043-19.426 11.174q-.412.662-.82 1.305c-3.592 5.672-9.014 7.41-14.755 9.253-3.771 1.209-7.67 2.46-10.983 4.914-.376.277-.777.153-1.007-.037-.395-.328-.617-1.094-.054-2.257 1.259-2.584 2.335-4.483 4.716-5.39 6.782-2.591 11.666-7.325 16.837-12.338 4.027-3.903 8.19-7.94 13.41-10.99l3.617-2.114-4.182.253c-12.857.776-39.793 20.876-43.34 30.423-1.495 4.03-1.572 7.043-.236 9.21 1.248 2.026 3.633 3.208 7.293 3.616 3.078.344 4.588 1.135 5.048 2.643.436 1.449-.208 1.874-2.16 2.722-.63.273-1.278.555-1.833.936l-1.064.726c-3.468 2.357-7.053 4.794-9.098 9.08l-.362.76.685.486c4.27 3.038 7.456 1.097 10.267-.614l.61-.37c26.197-15.74 51.384-22.67 76.999-21.188 5.55.318 11.107 1.637 18.113 4.336-4.431.64-8.793.726-13.037.808-7.94.153-15.44.298-22.85 3.855-15.406 7.38-24.63 17.303-29.031 31.228-3.918 12.405-1.23 19.136 9.278 23.23 14.763 5.752 34.726 4.454 46.043-11.413l1.008-1.414-1.728-.163c-2.965-.28-5.343 1.159-7.641 2.55-2.471 1.496-4.632 2.804-7.364 2.1.69-3.647 3.413-6.023 6.284-8.528 3.602-3.143 7.684-6.705 7.639-13.241l-.01-1.351-1.29.403c-7.24 2.268-11.244 7.715-15.116 12.982-1.98 2.694-4.016 5.463-6.47 7.743-.064-19.57 4.43-24.277 24.338-27.232 1.635-.241 3.404-.906 4.982-1.875 15.944-9.808 35.673-9.1 51.488 1.852 2.304 1.595 4.627 3.27 6.874 4.89 7.626 5.499 15.512 11.185 24.41 15.085l.36.158c4.514 1.98 9.18 4.029 12.387-3.047.944-2.087 2.976-2.8 6.038-2.118.555.123 1.27.36 1.533.783.3.487.085 1.36-.144 2.288-.252 1.019-.513 2.074-.226 3.098 1.35 4.83.37 8.625-3.176 12.303-4.697 4.864-4.14 11.35 1.492 17.354 4.666 4.978 9.31 9.984 13.955 14.99 17.975 19.376 36.56 39.41 56.273 57.54 9.384 8.627 22.235 20.442 38.983 22.452 2.807.333 4.292 1.353 4.414 3.034.172 2.233-.956 4.267-2.743 4.947-5.574 2.128-8.211 6.69-10.763 11.102-1.29 2.23-2.508 4.338-4.086 6.16-2.723 3.14-2.968 6.302-.75 9.668 2.369 3.576 5.819 2.832 8.103 2.34l.316-.068c3.024-.637 5.853-1.91 8.589-3.142 4.346-1.956 8.45-3.806 13.384-3.401 1.342.11 2.42-.43 2.959-1.484.779-1.527.245-3.917-1.27-5.681-4.823-5.623-4.592-10.798.73-16.287 1.438-1.495 1.879-4.038 2.18-6.303 2.728-20.463 9.063-27.894 25.105-29.45 19.715-1.916 44.252-4.302 62.19 14.34 8.056 8.382 12.835 19.194 17.456 29.65 1.398 3.163 2.843 6.434 4.359 9.593 13.675 28.494 19.36 59.49 23.118 86.054 1.027 7.274 1.605 15.487 1.82 25.847.202 9.449.847 19.029 1.47 28.293 1.038 15.42 2.112 31.366 1.165 47.092-.227 3.73-.483 6.254-1.904 7.275-1.132.814-3.231.79-6.417-.071-3.21-.868-6.59-1.072-9.965-1.072-1.516 0-3.033.04-4.534.082-2.92.08-5.94.162-8.826-.068-23.125-1.847-46.623-3.851-69.348-5.788q-13.275-1.134-26.545-2.257l-.753-.067c-.782-.07-1.568-.14-2.352-.195m142.84-35.568c-1.207-49.381-4.838-90.455-18.64-130.408-7.074-20.466-15.29-42.061-27.396-61.326-8.64-13.737-22.595-22.248-41.48-25.296-6.356-1.024-12.844-.758-19.12-.5-9.457.389-19.237.79-28.607-3.291-7.678-3.341-14.79 2.318-20.504 6.865l-.851.676c-7.016 5.558-13.55 6.26-20.566 2.212-2.723-1.568-6.471-3.064-8.865-1.276-7.826 5.847-12.244 1.155-16.92-3.813-.901-.956-1.832-1.945-2.761-2.813-8.041-7.495-15.78-15.628-23.261-23.494-2.922-3.071-5.843-6.142-8.787-9.182-.063-.072-.163-.35-.222-.517-.168-.473-.377-1.06-.921-1.416-22.872-15.09-21.315-36.441-16.903-62.786 2.72-16.255-6.421-40.452-18.81-49.79-18.785-14.154-38.905-29.075-60.15-42.243-14.847-9.205-30.87-7.432-45.007-5.868-2.024.223-4.031.468-6.025.712-14.683 1.792-28.552 3.485-43.687-4.184-14.775-7.485-36.135-5.446-54.418 5.196-15.683 9.128-26.565 23.01-30.511 38.4-2.471-18.322-13.722-32.248-24.658-45.786-1.492-1.848-2.984-3.693-4.451-5.548-5.103-6.443-11.18-12.215-17.057-17.798-1.633-1.551-3.265-3.101-4.877-4.666l-.096-.093c-2.757-2.667-5.881-5.691-9.457-6.593-9.951-2.51-19.336-7.095-28.411-11.53-10.122-4.945-20.588-10.06-31.956-12.376-16.24-3.3-33.56-6.126-51.08-1.39-3.134.846-6.641 1.943-8.594 4.287-6.683 8.045-15.802 12.7-24.621 17.204-6.84 3.492-13.911 7.103-19.926 12.29-11.62 10.032-24.791 21.402-29.945 35.77-1.774 4.945-4.082 9.914-6.314 14.719-6.103 13.138-12.414 26.724-9.628 42.726.879 5.074.476 10.622.12 15.516-2.878 39.6 14.219 73.475 31.976 104.777.405.716 1.005 1.294 1.584 1.854 1.415 1.367 2.062 1.99.4 3.743-.782.823-.99.666-1.987-.093-.328-.25-.7-.532-1.116-.746-12.458-6.421-24.92-12.832-37.381-19.243a42952 42952 0 0 1-50.485-26c-3.741-1.938-7.46-4.102-11.053-6.196l-1.345-.782c-4.464-2.605-7.19-4.3-7.401-5.86-.217-1.61 2.137-4.148 6.039-8.14 2.777-2.842 5.835-5.495 8.793-8.06 5.722-4.962 11.64-10.094 16-16.97 12.032-18.97 11.405-40.32-1.636-55.714-8.661-10.238-13.27-19.61-14.94-30.386-.65-4.193-2.195-8.254-3.69-12.181-.7-1.84-1.423-3.742-2.04-5.618-2.241-6.83-3.367-10.26-2.474-12.644.887-2.37 3.966-4.18 10.099-7.786l.284-.167a93769 93769 0 0 0 77.848-45.804c38.895-22.901 79.115-46.582 118.723-69.785 28.83-16.888 58.193-33.977 86.588-50.503 28.397-16.527 57.76-33.617 86.593-50.506 44.086-25.827 84.974-50.037 125.002-74.013 5.742-3.445 13.207-7.505 20.012-8.335 5.235-.645 6.996 4.184 8.86 9.297.726 1.992 1.477 4.052 2.449 5.699 12.628 21.403 25.118 43.383 37.197 64.639 7.426 13.068 15.105 26.582 22.74 39.826 8.145 14.127 16.56 28.403 24.699 42.209 7.704 13.07 15.67 26.585 23.393 39.946a38201 38201 0 0 1 86.787 150.965c7.014 12.267 14.015 24.54 21.017 36.815 25.696 45.046 52.267 91.626 79.034 137.06 9.354 15.88 18.418 32.31 27.183 48.2 11.558 20.952 23.509 42.618 36.279 63.295 9.899 16.023 19.25 32.749 28.292 48.924 11.773 21.058 23.946 42.835 37.466 63.306l27.263 45.558.102.142c.145.18.799 1.26.417 2.012-.242.476-1.327 1.558-6.148 1.347-13.962-.614-28.117-2.147-41.804-3.631-7.27-.787-14.787-1.602-22.193-2.27a912 912 0 0 1-7.332-.696c-8.644-.841-17.578-1.711-26.393-1.711-3.92-.005-7.833-.601-11.618-1.191-3.895-.608-7.922-1.237-12.002-1.204-1.534.008-2.63-.326-3.344-1.037-1.253-1.248-1.35-3.74-1.34-5.978.014-3.16.037-6.321.06-9.481.073-9.66.147-19.647-.094-29.473m172.837 74.715-24.521-41.961c-2.882-5.124-5.764-10.37-8.55-15.44-6.247-11.373-12.707-23.133-19.642-34.348-10.297-16.648-20.83-34.654-34.152-58.385-6.922-12.327-13.867-24.963-20.585-37.183-6.225-11.325-12.662-23.035-19.075-34.492-11.416-20.392-23.345-40.935-34.881-60.801-7.588-13.067-15.434-26.58-23.06-39.92-23.004-40.24-46.317-81.201-68.863-120.815q-14.583-25.627-29.175-51.248a72219 72219 0 0 1-18.84-33.111c-14.251-25.06-28.988-50.972-43.56-76.415-10.641-18.582-21.511-37.444-32.022-55.686-13.101-22.735-26.648-46.244-39.876-69.423-23.188-40.627-45.831-80.405-67.924-120.401-2.407-4.36-4.842-6.75-7.662-7.522-2.884-.791-6.114.045-10.801 2.796-19.06 11.189-38.511 22.442-57.322 33.323-18.667 10.8-37.97 21.967-56.89 33.07-49.367 28.972-99.501 58.527-147.986 87.109-25.737 15.17-51.474 30.343-77.22 45.5-53.897 31.739-125.066 73.627-197.594 116.19a35 35 0 0 0-1.697 1.085c-2.49 1.657-4.641 3.087-7.582 1.493a422 422 0 0 0-6.604-3.478c-12.587-6.536-25.603-13.295-33.057-26.685-3.07-5.503-7.552-7.781-12.3-10.192-.714-.363-1.438-.731-2.17-1.115-3.23-1.697-6.755-3.03-10.164-4.32-9.98-3.772-19.406-7.336-23.336-19.511-1.451-4.484-6.457-7.291-13.734-7.702-14.66-.835-25.855 1.377-35.236 6.96-6.317 3.756-11.242 3.65-17.563-.38-14.5-9.24-20.772-9.087-30.508.744-7.631 7.714-16.601 12.163-28.227 13.999-17.524 2.758-30.495 15.254-35.585 34.282-2.237 8.367-2.816 18.43-3.377 28.164l-.198 3.4c-.66 11.028-1.06 17.684-3.574 19.096-2.557 1.437-8.615-1.774-18.652-7.094-16.766-8.895-33.78-18.005-50.233-26.815-20.436-10.942-41.568-22.257-62.415-33.262-22.974-12.127-52.326-28.484-80.713-44.302-27.28-15.202-55.488-30.921-78.9-43.385-6.327-3.374-14.018-1.047-17.51 5.296l-22.817 41.447a9.45 9.45 0 0 0-.771 7.314c.73 2.433 2.354 4.419 4.574 5.59l306.598 162.12c2.635 1.38 5.13 3.182 5.54 6.99 1.334 12.247 6.075 24.218 14.492 36.599 1.656 2.44 2.205 3.88 1.956 5.138-.256 1.295-1.458 2.614-3.783 4.15-14.791 9.785-30.313 18.88-45.324 27.676a4821 4821 0 0 0-9.016 5.29A77346 77346 0 0 1 374.785 978.8c-27.217 15.95-54.916 32.117-81.704 47.75-19.32 11.278-38.64 22.553-57.948 33.845-8.896 5.203-17.783 10.425-26.67 15.646-14.705 8.64-29.912 17.577-44.916 26.276-3.656 2.123-5.051 4.875-4.39 8.66.654 3.739 3.15 5.696 7.63 5.983 5.175.33 10.43.763 15.515 1.184 3.72.307 7.44.614 11.162.885 7.973.589 15.946 1.155 23.918 1.719 12.643.897 25.716 1.824 38.564 2.834 19.322 1.522 38.965 3.135 57.96 4.695 13.816 1.134 27.63 2.268 41.447 3.379l7.36.594c16.713 1.35 33.995 2.748 51.005 3.889 4.308.289 7.222 1.485 8.909 3.657 1.758 2.264 2.195 5.613 1.336 10.238-1.045 5.623-.86 11.294-.68 16.778.093 2.788.187 5.67.116 8.489-.173 6.818 4.119 12.06 10.436 12.747 5.946.643 9.939-3.3 11.239-11.108 1.04-6.237 1.032-12.507 1.022-18.571-.005-3.183-.01-6.474.139-9.7.303-6.588 2.719-8.963 8.91-8.766 5.71.185 11.46.77 17.02 1.339 2.78.284 5.656.577 8.495.818 5.826.485 6.82 2.602 6.843 7.16.01 2.963.005 5.925 0 8.888-.01 7.787-.021 15.839.23 23.757.019.61.026 1.228.034 1.847.067 5.538.143 11.814 8.594 13.775 2.155.504 3.049 3.856 2.819 6.906-2.422 31.567-1.2 63.61-.02 94.6.563 14.76 1.145 30.022 1.324 45.027l.034 3.142c.139 13.732.283 27.93 3.393 41.716l.194.882c.698 3.238 1.567 7.268 6.673 6.879 6.1-.467 5.829-6.351 5.712-8.865-.353-7.61-.205-15.372-.063-22.88.243-12.786.494-26.01-1.7-39.052-.966-5.76-.725-11.786-.471-18.167.102-2.551.206-5.175.238-7.868a100 100 0 0 0 1.832.802c1.573.677 2.71 1.166 3.554 1.867 3.285 2.732 5.96 3.682 8.18 2.902 2.375-.834 3.948-3.52 4.954-8.45.18-.886.375-1.773.57-2.664.7-3.192 1.426-6.493 1.448-9.795.14-21.376.134-43.114.126-64.137q-.005-9.955-.003-19.912c.004-5.903-.001-11.807-.005-17.71-.006-9.837-.013-19.674.014-29.512.01-4.551 1.293-6.508 4.288-6.545 1.272-.013 2.195.288 2.819.925 1.18 1.206 1.26 3.575 1.198 5.504-.058 1.833-.041 3.686-.025 5.478.01.99.019 1.983.016 2.976-.08 24.134 1.226 50.069 4.104 81.616.316 3.502.75 8.297 6.295 8.362 4.174.056 5.14-3.192 5.985-6.052q.158-.54.326-1.08c2.667-8.38 2.274-16.915 1.895-25.17-.174-3.773-.353-7.675-.231-11.48.239-7.425 2.803-13.58 6.299-20.437.959 5.286 2.123 10.543 3.256 15.653 2.854 12.884 5.806 26.208 5.334 39.819-.354 10.29.866 20.632 2.146 30.34.882 6.798 4.218 10.276 9.916 10.34 2.353.028 4.232-.637 5.584-1.965 1.613-1.584 2.409-3.992 2.434-7.363.022-3.742.123-7.55.22-11.231.283-10.74.575-21.845-1.008-32.866-1.606-11.112-2.591-22.524-3.544-33.56-.486-5.63-.988-11.452-1.568-17.168-.551-5.424 1.709-9.895 4.102-14.628q.391-.769.775-1.541c.949-1.915 2.428-4.042 4.085-3.302 1.483.666 3.166 3.113 3.274 4.76.232 3.496.695 7 1.142 10.39.529 4.004 1.076 8.146 1.243 12.284.284 7.022.115 14.19-.047 21.123-.302 12.896-.615 26.232 1.946 39.337 1.497 7.688 5.983 11.5 13.714 11.655 4.782.093 7.577.397 8.652 1.725 1.105 1.364.796 4.308-.16 9.262-2.492 12.949-2.356 23.61.427 33.554 1.08 3.85 3.214 8.918 9.209 8.476 5.584-.401 6.598-6.228 7.143-9.356 1.345-7.638 2.084-15.337 2.198-22.885.135-9.257-.485-18.628-1.085-27.691-.74-11.167-1.503-22.714-.851-34.09.068-1.203-.165-2.375-.39-3.508-.127-.64-.246-1.242-.313-1.841-.616-5.587-1.057-11.297-1.484-16.818-.834-10.807-1.698-21.983-3.912-32.864-.691-3.375-.391-5.783.89-7.157 1.345-1.442 3.92-1.921 7.658-1.426 6.195.818 12.528 1.337 18.652 1.84l3.832.317c5.658.478 11.316.966 16.975 1.455 17.592 1.518 35.783 3.089 53.702 4.306 5.589.382 8.618 2.932 9.82 8.266 3.164 14.106 6.523 30.549 6.33 47.202-.12 11.03-.424 22.253-.72 33.105-.31 11.474-.633 23.338-.737 34.992-.104 11.587-.277 23.372-.444 34.769-.63 43.03-1.28 87.526 1.62 131.305.553 8.32.516 16.842.48 25.083-.057 13.12-.116 26.686 2.185 39.922.169.97.318 2.013.474 3.092 1.016 7.047 2.394 16.594 11.24 16.594q.553 0 1.146-.05c9.07-.784 9.304-10.807 9.49-18.861q.022-.965.048-1.887c.79-25.623-.111-51.627-.982-76.775-.526-15.17-1.07-30.853-1.235-46.281-.075-7.033.069-14.2.208-21.13.339-16.855.689-34.284-2.06-51.406-.48-2.99-.35-6.183-.223-9.272.07-1.735.145-3.53.113-5.295-.037-1.981.302-3.32.956-3.77.572-.392 1.532-.133 2.238.154 4.363 1.765 8.037 1.768 10.917.008 4.519-2.76 5.719-9.03 6.033-12.52 1.326-14.694 1.303-30.296-.07-46.372-2.221-25.847-2.386-50.94-.501-76.636q.54.527.987.952c1.054 1.005 1.749 1.669 2.028 2.353 5.68 13.969 15 18.442 27.699 13.294 1.967-.8 2.623-.607 2.813-.487.415.26.485 1.377.548 2.362.04.648.083 1.319.213 1.966.196.982.377 1.988.559 3.003 1.53 8.499 3.262 18.132 14.765 18.322 2.4.04 3.908.417 4.609 1.15.765.799.725 2.27.676 4.133l-.02.817c-.08 4.053-.23 8.18-.375 12.17-.283 7.708-.575 15.679-.36 23.517.269 9.764.489 19.695.702 29.299.876 39.526 1.783 80.398 6.25 120.448.72 6.479 2.602 10.824 5.75 13.282 2.848 2.222 6.75 2.962 11.932 2.26 3.609-.493 7.154-2.883 9.726-6.56 2.904-4.15 4.015-9.087 3.046-13.543-2.315-10.691-2.411-21.743-2.504-32.432-.05-5.711-.1-11.617-.49-17.41-.222-3.31-.454-6.621-.686-9.935-1.426-20.358-2.901-41.41-2.315-62.197.09-3.217-.252-6.455-.582-9.586-.585-5.544-1.19-11.275.632-16.957 1.095-3.416 2.557-4.898 5.046-5.114 11.745-1.022 15.587-5.161 15.812-17.034.14-7.61.123-15.34.105-22.816-.016-6.646-.032-13.52.063-20.271.009-.591-.085-1.24-.184-1.928-.166-1.152-.373-2.586.125-3.14.323-.36 1.036-.411 1.578-.391 1.149.04 2.485.722 2.614 5.669l.03 1.103c.243 8.879.493 18.06 1.149 27.069.786 10.714 1.676 21.598 2.536 32.123.813 9.937 1.652 20.212 2.403 30.32.576 7.794 3.953 9.299 6.693 9.188 1.35-.053 2.604-.698 3.626-1.864 1.562-1.784 2.37-4.62 2.11-7.4-.203-2.191-.247-4.437-.29-6.61-.073-3.652-.147-7.43-.964-11.238-1.655-7.7-4.424-20.584.139-26.84 4.992-6.837 4.947-13.354 4.903-19.656-.016-2.301-.033-4.682.206-7.022.296-2.896.228-5.848.16-8.703-.045-2-.093-4.066-.013-6.076l.015-.403c.17-4.62.58-7.472 4.83-8.105 5.618-.831 7.272 4.004 7.723 6.123 1.705 7.957 3.022 16.52 3.915 25.45 2.024 20.137 2.048 40.696 2.072 60.579.01 8.636.02 17.565.195 26.347.298 15.085 1.315 31.336 3.203 51.14.073.774.076 1.699.079 2.678.01 3.157.022 6.735 2.232 8.8 1.2 1.12 2.906 1.618 5.069 1.478 7.074-.467 7.192-7.088 7.277-11.923.016-.906.03-1.762.088-2.518.516-6.888-.167-13.834-.83-20.552-.582-5.918-1.184-12.037-.962-18.088.444-12.125.048-24.851-1.18-37.823-1.55-16.461-.754-32.808.338-48.022.357-4.985 2.183-9.758 3.948-14.373 2.694-7.043 5.479-14.325 3.305-22.68-.265-1.017-.038-1.855.693-2.564 1.006-.976 2.65-1.337 3.303-1.146 4.85 1.396 9.735 1.295 14.456 1.197 3.063-.064 6.23-.13 9.29.23 33.43 3.93 66.853 6.642 99.339 8.06 6.679.297 9.88 1.706 10.01 8.91.122 6.774.373 13.656.615 20.31.382 10.486.777 21.329.668 31.973-.065 6.764.629 13.547 1.299 20.107.795 7.773 1.617 15.81 1.159 23.774-.19 3.29.414 8.013 2.737 10.493 1.028 1.097 2.28 1.66 3.727 1.672 1.475.008 2.693-.453 3.605-1.366 2.095-2.102 2.064-5.993 2.037-9.425l-.006-1.046c-.003-4.82.006-9.64.014-14.46.023-12.852.047-26.142-.147-39.214-.048-3.13-.322-6.264-.587-9.295-.472-5.387-.96-10.958-.174-16.617.312-2.241 1.748-3.16 3.41-4.224 2.045-1.31 4.364-2.794 3.947-6.844-.43-4.15.344-7.157 2.3-8.941 2.118-1.932 5.746-2.458 10.492-1.522 2.468.488 5.033.363 7.512.243a73 73 0 0 1 3.013-.107c4.374-.046 7.273.798 9.11 2.64 1.872 1.875 2.755 4.967 2.703 9.453-.262 22.017-.244 44.405-.227 66.056.012 14.908.023 30.323-.056 45.48-.028 5.223 1.18 9.93 2.347 14.483.825 3.215 3.027 4.954 6.193 4.892 3.012-.06 5.076-1.713 6.134-4.915 1.405-4.226 2.005-8.922 1.89-14.78l-.254-13.018c-.615-31.476-1.251-64.023-1.726-96.042-.011-.773-.074-1.593-.135-2.387-.191-2.493-.39-5.071.934-6.486.883-.944 2.422-1.394 4.705-1.371 2.054.018 3.48.456 4.24 1.302 1.13 1.26.907 3.525.689 5.716-.088.89-.18 1.81-.176 2.66.067 15.912.052 32.09.039 47.736-.02 24.01-.041 48.838.226 73.26.063 5.518.049 11.128.036 16.553-.036 14.48-.073 29.455 1.339 44.265.762 8.005.708 16.244.656 24.212-.072 11.152-.147 22.682 1.98 33.957 1.195 6.318 3.203 13.099 11.964 13.592 7.807.44 12.917-4.424 14.398-13.701 3.346-20.916 3.866-43.577 1.59-69.278-1.268-14.258-1.152-28.755-1.04-42.775.077-9.537.157-19.384-.195-29.173 6.154 1.676 10.266 1.549 12.878-.382 2.242-1.657 3.346-4.61 3.375-9.026.046-6.601.175-13.318.3-19.815.386-20.045.785-40.772-1.215-61.131l-.084-.832c-.468-4.577-.997-9.765 1.883-11.744 4.684-3.223 11.59-1.874 17.083-.34 3.235.913 3.335 3.995 3.12 8.594-.04.833-.077 1.65-.075 2.415.018 21.305.019 42.609.022 63.915.002 21.474.004 42.95.022 64.427 0 .718-.015 1.473-.03 2.248-.09 4.666-.193 9.955 2.62 12.837 1.279 1.31 3.04 1.98 5.236 1.989 2.577-.003 4.613-.772 6.069-2.335 3.325-3.57 2.81-10.313 2.436-15.238-1.781-23.408-2.41-46.964-1.871-70.012.018-.786-.07-1.646-.155-2.48-.354-3.46-.388-5.435 3.035-5.801 7.785-.83 7.514-6.832 7.335-10.803a2106 2106 0 0 0-.915-18.34c-.372-7.025-.756-14.29-1.047-21.438-.017-.443-.052-.922-.088-1.42-.143-1.971-.32-4.425.634-5.458.36-.39.907-.582 1.668-.587.9-.001 1.658.299 2.264.925 1.209 1.25 1.86 3.844 1.743 6.937-.412 10.44.365 20.989 1.117 31.19.817 11.088 1.662 22.553.969 33.85-.231 3.765-.153 7.926 2.177 10.238 1.264 1.254 3.037 1.812 5.272 1.658 1.897-.133 3.36-.78 4.349-1.92 1.906-2.2 1.649-5.705 1.422-8.798-.045-.61-.09-1.206-.114-1.772-.36-8.287-.756-16.572-1.152-24.858-.576-12.053-1.171-24.516-1.641-36.78a45 45 0 0 0-.126-1.87c-.19-2.332-.404-4.976.828-6.322.68-.742 1.794-1.108 3.406-1.12 3.98-.03 4.897 3.087 5.86 7.847.086.427.17.849.259 1.255.324 1.51.248 3.129.165 4.843-.036.768-.072 1.534-.072 2.292q.003 12.323-.001 24.645c-.006 18.82-.01 38.284.045 57.43.022 6.483 1.03 10.622 3.084 12.653.95.94 2.117 1.423 3.437 1.403 5.71-.035 5.716-6.363 5.72-10.983 0-.977 0-1.9.044-2.736.837-16.067-.09-32.331-.984-48.06-.688-12.085-1.4-24.581-1.303-36.883.048-6.287 1.28-10.105 3.766-11.671 2.524-1.591 6.565-1.044 12.35 1.67 13.35 6.254 26.61 13.338 39.432 20.188 5.807 3.103 11.813 6.312 17.752 9.404 5.902 3.072 8.14 6.858 7.727 13.068-.45 6.619-.332 13.366-.22 19.89.055 3.158.11 6.422.102 9.62-.008 1.816-.037 7.342 5.622 7.798 5.589.444 6.284-5.123 6.658-8.114.099-.794.193-1.543.326-1.885 1.547-3.92 2.113-8.552 1.729-14.161-.417-6.068.344-9.777 2.262-11.023 1.465-.952 3.895-.541 7.222 1.22a6465 6465 0 0 1 27.875 14.863c22.207 11.887 45.17 24.179 68.083 35.595 8.546 4.249 11.216 8.79 10.582 17.998-2.273 32.707-2.924 68.092-1.99 108.176.013.555.018 1.143.024 1.752.04 4.474.093 10.04 3.107 12.995 1.349 1.32 3.154 1.975 5.373 1.953 6.825-.074 7.147-6.88 7.406-12.347.067-1.423.13-2.766.29-3.954 2.583-19.125 2.368-38.631 2.16-57.495-.046-4.267-.093-8.534-.11-12.8-.047-11.437.66-21.621 2.162-31.135.585-3.726 1.638-5.92 3.22-6.704 1.368-.678 3.325-.34 5.815 1.003 2.152 1.164 4.886 2.664 7.786 4.256 5.129 2.816 10.942 6.007 14.84 8.045l14.458 7.56c30.512 15.96 62.06 32.462 93.165 48.558 6.526 3.377 13.26 6.62 19.774 9.757 12.06 5.809 24.533 11.815 36.095 18.874 20.08 12.26 41.365 22.469 60.145 31.477 2.535 1.216 4.999 2.24 7.278 1.432 1.597-.567 2.91-1.982 4.018-4.328 7.935-16.79 14.537-30.244 20.779-42.343.95-1.848 1.759-3.642 1.214-5.27-.405-1.211-1.493-2.19-3.525-3.171-2.21-1.064-4.321-2.524-6.362-3.934-1.825-1.261-3.712-2.566-5.712-3.627a68467 68467 0 0 0-85.34-44.957 91810 91810 0 0 1-60.464-31.833 22470 22470 0 0 1-39.124-20.697c-25.454-13.485-51.774-27.431-77.761-40.948-10.751-5.59-12.813-10.195-10.028-22.4 1.683-7.4 5.658-6.792 10.693-6.02 1.443.22 2.935.449 4.398.472 22.883.378 46.034 2.605 68.424 4.758 17.516 1.685 35.63 3.427 53.524 4.277 7.659.365 15.507.988 23.097 1.59 3.868.309 7.737.616 11.6.893 9.258.66 18.518 1.302 27.778 1.942 16.673 1.155 33.914 2.348 50.892 3.648l80.525 3.438c2 .083 3.814-.898 4.853-2.63a5.6 5.6 0 0 0 .016-5.733"/></g></svg>