<svg xmlns="http://www.w3.org/2000/svg" width="1984.25" height="1984.25" viewBox="0 0 1984.25 1984.25"><defs><clipPath id="clip_1"><path d="M0-.002h1984.252V1984.25H0Z"/></clipPath></defs><g clip-path="url(#clip_1)"><path d="m1445.795 985.767-8.84 49.382-163.141-284.161 171.42 232.433c.495.67.699 1.524.56 2.346m-218.69-156.07 7.83-123.054 135.257 242.545ZM1381.45 976.98l-119.335 18.306-34.385-142.384Zm-345.082 354.47 2.024-218.171 86.957 173.43Zm.257 17.577 89.9-44.594-41.522 198.65Zm43.65 182.24-46.02 94.785v-241.65Zm175.7-234.204 7.594 42.856-102.667-40.91Zm-6.985-15.3h-103.41l15.919-109.144Zm-10.425-270.627-31.371 31.666 104.584 238.638-43.755.317-194.971-242.602-.988-9.628Zm-88.353 148.34-17.48 110.953-91.988-179.484 29.775-31.226Zm82.154 180.934-98.79-3.85 7.082-32.716Zm-18.003-492.29 34.649 149.623-175.28 20.496Zm-148.1-150.688 151.58-.37-6.08 124.33Zm-2.072 311.45-10.987-307.2 153.724 133.153Zm-13.974-6.35-84.842-129.015 72.337-143.193Zm-4.923 18.437-162.973 18.439 73.338-155.698Zm-101.897-143.89-68.674 146.245-20.2-231.556Zm-84.454 121.405-53.194-155.962 33.647-60.28ZM709.529 817.878l-79.301 48.6V828.53Zm135.33-363.184-93.626 313.328-7.94-147.734ZM732.415 639.336l6.06 160.508-107.08 14.222Zm11.56 171.682 43.455 32.086 69.059 188.109L635.497 878.94Zm103.132-417.691L696.784 290.22l-25.711-134.266Zm-209.452-1.373-86.064 16.1-73.183-30.663 48.142-48.413ZM547.986 502.84h-14.542L481.22 392.963l64.726 25.79Zm-18.241-185.532v-53.571l126.27 29.76Zm9.898-63.847 115.596-104.604 25.583 137.76Zm141.79 48.882-26.112 86.168-110.47-62.616Zm155.709 1023.628-6.053-20.537 125.59-1.878-104.764 22.415Zm50.554 6.652 135.527-26.874v30.75Zm421.7-35.585-30.788 37.757-7.51-37.757Zm209.014-317.133h.002L1232.4 686.12a14.4 14.4 0 0 0-10.266-4.338H1044.89c-3.252 0-6.447.573-9.494 1.706L840.127 756a14.4 14.4 0 0 0-7.483 6.365l-38.484 65.806-38.301-29.178 113.468-386.805a8.8 8.8 0 0 0-.18-5.556l-66.51-176.457a8.7 8.7 0 0 0-3.307-4.221l-135.741-92.91a6.78 6.78 0 0 0-6.653-.507l-57.107 28.027a15.5 15.5 0 0 0-5.395 4.207l-72.161 88.258a15.83 15.83 0 0 0-3.561 9.99v53.57a9.87 9.87 0 0 1-2.757 6.87l-51.923 54.123 92.927 204.288V416.919l106.465-12.595 28.297-96.708 160.753 104.957-247.742 408.792-.191.315v66.358l262.296 164.595.388.243 188.035-18.91 9.45 15.207-37.038 33.71-.427.388-1.917 209.018H814.186l-133.362 98.495c-1.055.779-1.36 2.13-.742 3.289.612 1.146 1.899 1.65 3.122 1.217l148.967-51.931 191.052 4.177v512.362l108.358-508.522c.463-2.172 2.416-3.655 4.592-3.523l134.805 7.955a7.08 7.08 0 0 0 5.94-2.643l48.27-60.191a7.12 7.12 0 0 0 .967-7.33l-103.932-237.014a5.04 5.04 0 0 1 1.019-5.576l31.035-31.212a4.97 4.97 0 0 1 2.826-1.41l132.185-18.143a4.9 4.9 0 0 1 4.692 2.045l43.239 61.105c.407.574 1.042.95 1.74 1.033a2.53 2.53 0 0 0 1.932-.601l77.194-67.677a5.67 5.67 0 0 0 1.942-4.073 5.66 5.66 0 0 0-1.617-4.215"/></g></svg>