<svg xmlns="http://www.w3.org/2000/svg" width="2048" height="1920" viewBox="0 0 2048 1920"><defs><clipPath id="clip_1"><path d="M0 0h2048v1920H0Z"/></clipPath></defs><g clip-path="url(#clip_1)"><path fill="#231f20" d="M1839.422 447.116c.035-13.74-5.479-15.647-16.71-15.591l-263.456.57c-25.556 26.302-95.49 91.927-102.8 97.195-34.647 24.943-69.202 55.879-78.272 98.962-2.768 13.12-3.719 20.19 10.584 23.746 5.845 1.458 11.126 5.148 16.964 6.662 13.753 3.549 28.26 9.359 39.964 14.077 17.443 7.035 37.267 15.549 52.907 28.035 6.373 5.084 14.077-3.845 18.711 5.887 11.014 23.16 33.443 28.562 56.041 33.654 25.027 5.64 51.167 7.373 74.33 17.887-.79 9.71-16.43 4.09-11.564 10.302 13.67 17.465-4.218 9.908-8.134 10.95-8.436 2.24-17.366 1.536-26.154 3.458-11.739 2.564-12.817 7.627-10.028 17.986 3.247 12.084 9.655 23.436 6.253 37.28-6.119 24.908-3.605 48.443 16.204 67.619 7.817 7.57 15.05 15.724 22.563 23.597 13.288 13.916 11.563 18.866-6.345 27.577-42.33 20.59-73.188-5.915-102.209-27.9-15.97-12.092-35.633-14.451-51.217-27.817-7.71-6.62-13.158-8.146-28.935-14.74-29.042-6.956-54.992-21.71-86.224-16.864-14.548 2.26-11.478 7.126-6.063 14.816 8.866 12.62 16.465 25.4 8.056 41.23-21.865 41.148-43.703 82.323-65.914 123.287-3.168 5.838-8.168 10.753-12.675 15.774-7.373 8.218-13.415 8-18-2.98-9.197-22.012-10.147-43.385 3.754-63.99 11.746-17.401 24.865-33.893 34.055-52.977 7.19-14.944-2.33-20.021-13.26-26.021-14.387-7.908-15.359 3.148-18.556 11.598-38.605 102.075-73.23 205.509-105.723 309.655-5.056 16.21-13.619 31.985-12.894 51.632 78.533-54.808 142.138-121.06 189.538-204.03 4.366 8.12 1.468 16.72-.778 20.588-45.478 78.399-104.353 141.422-176.71 196.554-17.648 13.45-29.725 30.697-37.514 51.077-14.978 39.167-28.985 78.73-44.78 117.567-5.585 13.732-.564 14.718 10.654 14.542 23.852-.366 47.753-.923 71.562.09 28.126 1.206 42.3-2.796 63.426-28.852.035-.077 37.804-40.314 38.867-39.997 0 8.45-14.788 36.619-23.239 45.069-5.056 5.057-20.168 21.225-16.9 22.535 3.52 1.408 14.78.81 21.914.83 79.752.233 234.343.438 314.087-.083 22.246-.148 56.08 3.033 65.45-4.05 16.002-12.095 14.504-26.771 23.722-47.06 6.401-14.083 15.408-27.83 11.197-44.308-3.782-14.788-1.902-39.201-1.958-54.145-.254-62.611 1.943-125.236-3.296-187.784-1.416-16.915 1.51-36.827 7.65-53.496 13.683 91.153 6.127 183.805 21.281 274.986 4.057-2.563 5.824-5.24 7.303-8.07 50.555-96.554 89.934-198.143 134.116-297.57 3.993-8.971 9.176-17.591 9.162-28.577-.359-196.79-.472-393.581-.007-590.372m-383.212-14.774c-7.958-.035-11.127 4.669-13.169 10.408-12.83 36.098-25.33 72.322-39.217 112.166 21.95-13.211 101.16-93.42 139.151-122.821Zm18.071 379.852c2.22-14.512-2.702-17.61-12.548-18.348-13.618-1.021-16.263 13.09-18.724 22.639-2.668 10.35 8.625 17.697 14.128 18.383 13.815 1.72 13.898-14.194 17.144-22.674m-151.624 106.65c.118.659.75 6.038 2.094 11.233 1.458 5.63 1.292 12.858 9.403 13.85 8.491 1.04 12.977-5.737 14.886-11.51 3.32-10.032 5.36-20.894 5.543-31.45.215-12.342-10.304-16.982-21.302-10.963-9.853 5.393-11.293 14.244-10.624 28.84m-47.294 109.844c.66 4.227.464 10.02 2.59 14.782 2.543 5.7 7.073 11.577 12.807 2.126 8.726-14.382 17.24-28.892 25.788-43.381 2.233-3.784 2.87-7.633-.909-10.92-3.546-3.084-7.355-2.22-11.369-.754-17.388 6.35-28.647 17.386-28.907 38.147m208.016-149.704c.806-.668 2.915-2.063 4.588-3.862 7.254-7.8 14.066-16.034 21.626-23.518 12.656-12.53 6.493-23.22-.35-31.684-8.652-10.7-15.94 1.737-22.06 7.538-7.28 6.898-14.276 14.497-19.64 22.909-6.866 10.766 1.978 28.517 15.836 28.617m-581.897 14.948c1.182-26.327-3.735-29.725-24.208-18.316-11.093 6.182-21.355 14.057-31.267 22.064-5.176 4.18-10.017 6.767-6.684 13.645 3.441 7.1 9.503.088 14.423.385 6.722.405 13.565-.764 20.242-.106 18.766 1.848 40.714 11.576 27.494-17.672m213.713-156.473c1.372 6.249-2.76 15.165 3.71 18.343 6.273 3.083 11.341-5.198 17.278-7.703 22.774-9.611 14.296-29.348 18.705-47.115 1.608-6.484-5.88-6.423-10.602-5.577-15.552 2.786-29.92 25.226-29.09 42.052m419.277 9.075c-16.083-27.433-75.766-56.105-97.485-52.81.836 1.845 1.147 4.15 2.46 5.184 16.893 13.287 36.863 23.318 44.644 45.8 1.812 5.235 7.62 7.362 13.864 4.817 12.75-5.197 22.22-6.133 36.517-2.991m-780.542-37.51c-11.8 16.794-35.32 26.268-33.343 48.65 1.69 19.115 4.261 38.913 13.578 60.505zM1387.35 855.64c-14.775-12.35-24.556-21.891-35.858-29.283-14.837-9.705-26.9-14.771-44.897-9.092-4.906 1.549-12.302 2.712-11.983 9.743.264 5.816 6.81 5.937 11.307 7.89 6.232 2.71 13.832 5.17 17.591 10.176 18.31 24.38 36.981 10.859 63.84 10.566m-695.004 459.636c20.165-.334 43.914-18.874 42.843-33.292-1.342-18.056-15.717-20.168-29.662-20.316-22.378-.237-39.446 13.7-37.748 30.638 1.541 15.376 12.544 21.19 24.567 22.97m908.862-543.04c-22.886-7.696-45.08-18.408-69.916-17.673-23.174.687-40.226 20.872-35.9 41.685 1.235 5.946 3.168 12.058 10.484 5.853 27.551-23.367 61.811-24.112 95.332-29.865m-46.879 88.674c10.838-8.453 20.078-18.003 33.212-28.482.62-.495.264-2.68-.139-3.915-4.952-15.152-2.476-32.04-22.373-35.59-19.222-3.427-25.889 7.34-30.615 24.072-1.09 3.86-2.972 8.673-3.915 12.596-5.276 21.958-3.117 31.129 23.83 31.319m57.92 65.206c-.566-7.57-7.992-10.615-10.416-16.495-12.49-30.293-32.575-45.073-66.697-35.54-7.58 2.118-16.818-.665-20.343 9.269-3.59 10.12-.548 19.077 7.56 25.5 13.112 10.389 25.822 21.606 42.198 27.352 2.941-25.022 16.032-25.4 47.697-10.086m-191.805-70.523c7.31.306 14.453-.696 17.587-8.211 2.182-5.233 2.372-10.663-3.206-15.297-22.879-19.007-45.446-38.388-68.118-57.644-3.787-3.216-7.617-3.913-12.17-1.265-3.92 2.279-4.572 5.58-4.58 9.604-.067 29.26 46.926 70.584 70.487 72.813M209.06 1273.245c24.122-15.222 43.247-29.117 54.876-50.638 5.9-10.918 15.977-22.741 6.875-35.521-8.447-11.861-22.536-6.063-34.327-5.755-5.264.138-10.564 2.454-15.668 4.28-7.65 2.736-12.143 7.395-11.927 16.597.526 22.308.171 44.637.171 71.037m977.34-422.638c-1.75-3.574-2.349-6.11-3.895-7.757-22.569-24.045-22.913-24.21-5.862-51.86 3.847-6.24 4.39-9.575-1.855-13.696-4.15-2.74-8.745-5.75-11.29-9.798-7.722-12.287-15.899-9.867-25.16-2.301-28.894 23.607-22.327 58.683 12.033 72.776 11.294 4.633 21.718 12.382 36.03 12.636m-75.97 111.984c38.165-10.41 71.714-30.241 107.222-45.564 11.872-5.123 27.875-11.837 27.224-23.668-.528-9.598-17.84-14.483-28.928-19.363-23.453-10.324-34.864-8.314-47.257 13.42-15.822 27.748-33.44 53.536-58.262 75.175m-537.906 508.475c16.805 1.029 24.402-11.574 28.173-24.361 10.633-36.056 32.23-65.44 54.12-94.766 16.712-22.39 16.383-23.566-6.67-40.526-13.63-10.03-20.779-5.65-25.406 8.46-1.477 4.503-3.466 9.13-3.579 13.742-1.008 41.137-22.092 73.195-46.792 103.493-5.82 7.14-9.472 14.693-10.642 23.603-1.02 7.775 2.14 11.678 10.796 10.355m56.353-393.614c25.182-10.812 37.092-16.054 57.593-24.651 7.054-2.96 14.206-6.273 17.635-13.108 13.773-27.46 28.241-54.444 51.698-78.893-77.643 5.692-96.225 57.882-126.926 116.652m765.726-398.978c-1.72-10.024-8.56-15.316-17.268-18.57-21.298-7.954-43.328-12.886-65.637-17.344-16.682-3.334-31.153 1.92-46.104 6.305-4.43 1.299-10.18 4.174-9.284 10.427.908 6.326 7.237 4.12 10.963 4.563 24.921 2.958 46.142 11.213 59.932 34.234 4.87 8.128 14.606 15.298 24.245 9.143 11.687-7.462 22.815-15.03 36.471-18.638 3.55-.94 7.454-4.83 6.682-10.12m38.364 131.543c3.817-19.978 14.342-26.922 29.743-35.018 16.767-8.815 18.187-20.225 5.161-33.646-14.067-14.493-30.26-25.823-50.222-30.876-13.355-3.381-27.942-6.27-38.457 3.925-10.839 10.509-7.22 25.516-3.449 38.447 8.19 28.078 34.396 38.703 57.224 57.168m-528.626 277.508c10.897-36.137 21.774-70.816 22.98-108.657 1.048-32.877-17.137-52.31-49.475-52.88-20.208-.357-41.596.445-60.132 9.639-9.185 4.557-21.38 10.498-19.617 19.677 2.186 11.379 16.374 2.9 24.822 5.713 1.827.607 4.056-.046 6.098-.018 33.012.459 49.99 12.85 59.732 44.27 8.258 26.629 12.03 54.066 15.592 82.256M448.158 628.37c2.634-5.306 3.913-7.398 4.757-9.653 19.313-51.574 42.575-101.417 65.432-151.481 18.413-40.33 24.135-37.928-24.779-38.365-6.134-.055-12.317.345-18.392-.286-13.374-1.388-19.909 3.202-20.743 17.68-1.878 32.599-5.396 65.098-7.71 97.675-1.908 26.849-3.574 53.764 1.435 84.43M1215.6 807.207c-11.547-.275-23.036 1.72-27.776 12.688-5.084 11.76 4.501 19.816 12.264 27.156 17.208 16.269 24.941 17.159 47.461 24.469 11.033 3.582 33.006 20.233 42.18 26.99 16.417 12.09 17.472 12.36 20.304-6.955 1.334-9.096 13.077-17.76 5.015-26.564-26.996-29.48-56.816-54.976-99.448-57.784m-962.514 342.958c17.332 1.673 36.978-10.03 47.368 12.509.62 1.345 6.267.965 9.427.46 20.062-3.2 40.025-7.086 60.148-9.8 6.932-.935 9.07-5.44 11.16-10.168 12.393-28.026 29.876-52.971 46.895-78.204 4.122-6.11 11.4-12.852 6.387-19.794-5.108-7.074-13.847-2.243-20.654.286-40.735 15.135-74.916 40.83-112.65 61.868-18.539 10.335-32.866 23.41-48.08 42.843m985.97-361.207c18.564 1.8 35.102-3.943 50.287-13.127 19.158-11.586 32.937-42.287 27.142-58.054-5.46-14.861-36.563-30.472-56.26-26.765-21.702 4.084-42.743 11.194-59.21 26.62-10.216 9.569-29.025 18.304-26.217 31.557 3.496 16.503 20.742 27.536 36.974 35.265 8.565 4.077 17.908 5.9 27.283 4.504m-299 248.968c22.284-18.71 46.312-31.976 72.062-42.445 26.303-10.693 49.682-26.518 73.467-41.992 24.66-16.043 52.112-29.62 63.46-60.068 5.604-15.04 13.567-27.078-.91-38.616-13.254-10.561-29.096-6.702-43.972.548-18.576 9.053-33.322 23.276-49.134 35.834-28.96 23-64.423 38.493-84.826 71.585-14.29 23.18-32.058 44.956-30.148 75.154m-468.477 94.524c11.562 0 23.285 1.248 34.656-.22 44.262-5.715 80.987-16.833 101.542-62.64 9.438-21.03 16.351-41.598 34.538-57.283 3.172-2.736 5.777-6.526 3.578-10.723-2.383-4.546-7.04-2.542-10.882-2.12-19.575 2.148-33.243 4.718-52.847 5.079-80.323 1.478-125.292 49.648-157.215 116.146-4.666 9.718-1.269 11.97 7.843 11.837 12.927-.19 25.86-.048 38.787-.076m634.7-352.763c0-7.455.511-14.951-.1-22.355-1.534-18.595-8.32-22.84-24.998-14.226-42.108 21.748-83.859 43.648-122.746 71.555-54.672 39.236-50.294 75.767-25.21 127.1 10.114 20.7 16.108 24.322 31.488 6.979 20.428-23.036 42.738-45.853 68.596-62.128 41.745-26.273 75.94-53.013 72.97-106.925m-403.575 707.046-.002.869c26.54 0 53.08.18 79.614-.187 4.207-.058 12.43 3.434 10.937-6.54-8.683-58.058-17.65-116.074-26.196-174.151-1.339-9.1-4.694-9.924-11.97-5.623-14.593 8.625-29.142 17.394-44.206 25.139-60.185 30.945-78.604 90.127-100.003 147.19-3.796 10.122.995 13.97 12.264 13.59 26.494-.896 53.038-.287 79.562-.287m1136.493-355.296c-59.64 117.426-109.332 238.58-172.942 356.285 56.206 0 109.726-.15 163.243.126 10.834.056 9.7-6.826 9.7-13.653zm-1477.743 56.448c-39.793 20.518-64.316 34.727-107.38 69.62-9.84 7.974-22.56 19.113-33.422 25.873-8.654 5.386-11.839 11.23-11.769 21.249.398 57.095.366 111.113-.266 168.204-.133 12.049 4.033 15.054 15.228 14.814 26.527-.568 53.11-.867 79.601.293 13.785.604 18.024-5.04 21.474-17.432 15.686-56.348 18.012-114.785 28.076-171.998 6.283-35.717 11.395-71.942 8.458-110.623m523.358-128.75c0-6.115.764-12.346-.132-18.328-3.879-25.897-9.509-51.556-37.342-62.622-36.506-14.515-86.565 7.915-102.052 44.629-8.694 20.607-14.452 43.123-26.548 61.482-24.437 37.092-28.777 76.063-22.599 118.655 6.387 44.037 39.26 63.075 79.503 43.683 18.801-9.06 33.273-23.362 45.316-39.947 32.248-44.411 65.894-88.342 63.854-147.551M385.023 856.59c5.997-7.957 4.368-16.92 4.708-25.502 1.83-46.163-.29-92.903 6.364-138.361 12.031-82.183 15.161-164.478 15.061-247.21-.015-12.055-4.549-15.49-15.418-15.461-42.915.114-85.83.023-128.745-.26-14.79-.098-19.129 5.948-15.396 20.375 12.49 48.26 23.913 89.03 38.901 133.38 1.342 3.972 2.781 8.815 7.91 10.188 7.547-47.851 42.757-128.131 54.73-141.511-3.215 22.646-54.829 154.934-45.946 182.435 6.843 21.186 5.434 78.227 73.038 4.285-9.859 23.239-52.11 55.633-44.336 78.797 12.783 38.083 27.18 75.226 38.691 113.564 2.506 8.349-.146 19.477 10.438 25.28m299.53 215.75c-20.959 15.749-48.183 22.867-59.267 48.755-3.442 8.04-12.2 6.353-16.252 5.749-10.696-1.594-19.742.78-29.052 4.807-23.238 10.05-47.163 15.84-72.937 15.76-7.804-.024-18.776-.033-25.114-.033-27.564.856-27.976.092-51.177 7.49-5.678 1.81-8.037 8.95-8.56 15.324-5.382 65.6-11.574 126.61-15.75 192.288-2.29 36.016-4.594 71.904-17.159 105.894-5.343 14.455-.03 15.44 11.853 16.667 39.425 4.066 78.92 1.719 118.363 2.746 9.006.235 12.06-2.786 15.258-11.401 6.087-16.402 15.912-31.395 22.443-47.671 2.09-5.206 19.181-14.41-1.419-19.365-3.498-.841-.809-4.977 1.104-6.318 27.598-19.336 31.331-50.96 40.89-79.453 3.973-11.846 8.25-22.162 20.125-29.011 49.9-28.781 70.922-73.234 59.734-129.545-4.313-21.703-4.804-42.755-1.022-64.105 1.717-9.69 5.236-19.061 7.938-28.577m-315.94-30.142c-2.508-.291-6.387.317-7.274-1.035-3.049-4.646 1.97-1.965 2.951-2.28 10.895-3.502 8.023-13.367 8.514-20.465 2.392-34.572 3.8-62.6 5.507-97.22.372-7.544-1.172-14.693-3.395-21.991-45.186-148.376-98.034-308.085-137.069-450.723-3.002-10.97-4.539-20.538-18.457-19.991-11 .433-9.715 14.318-9.736 22.153-.554 201.472-.685 402.945-.876 604.418-.032 33.673-.004 67.347-.004 105.848 33.76-31.004 65.221-56.49 99.01-79.012 10.565-7.043-3.648-6.276-4.466-10.613 26.747 2.486 44.17-16.422 65.295-29.09m199.02-340.534c3.631 6.87 1.326 10.099-.57 13.716-34.337 65.509-71.509 129.569-101.433 197.339-11.264 25.51-23.193 50.772-33.305 76.736-8.106 20.815-.976 29.924 20.765 28.156 13.49-1.098 27.41-4.39 40.218-8.616 33.532-11.063 61.58-15.431 92.24-21.636 38.57-7.805 75.8-20.027 114.135-28.11 7.655-1.615 13.3-4.614 11.35-16.872-8.512-53.478-15.24-107.25-21.972-160.996-13.216-105.526-32.439-209.945-56.843-313.431-9.754-41.363-8.953-39.601-54.399-39.601-1.356 0-3.235.06-4.51 0-23.859-1.134-27.868 10.087-34.81 29.157-21.593 59.319-48.96 116.83-69.429 176.518-14.609 42.6-35.57 84.09-31.384 131.543 1.062 12.045-2.079 24.4-1.937 36.599.44 37.688-4.82 75.456 2.04 113.9 40.205-73.058 85.692-142.371 129.843-214.402m641.392 242.434c-3.99 0-5.95-.486-7.546.069-96.575 33.59-182.767 73.702-260.852 141.24-41.357 35.77-76.82 74.314-99.505 124.056-6.845 15.008-16.87 27.857-26.868 40.72-5.253 6.759-6.758 12.905-5.317 22.178 10.611 68.31 27.297 135.608 34.447 204.44 1.2 11.546 7.156 10.848 14.852 10.838 44.966-.055 89.937-.365 134.895.228 10.583.139 15.051-4.064 19.693-13.013 23.073-44.491 42.887-90.495 59.727-137.488 32.764-91.433 62.964-183.781 94.631-275.611 14.186-41.14 26.722-75.584 41.843-117.657M1054.08 688.296c9.796-3.733 21.697-2.591 29.69-10.041 34.46-32.116 75.081-49.36 121.831-54.031 7.142-.714 14.645-3.33 21.85-2.682 12.366 1.11-.026-14.604 6.4-11.138 23.341 12.593 49.893 3.19 73.48 12.882 9.3 3.822 19.77 8.622 25.571-7.93 16.057-45.81 33.887-90.996 50.731-136.534 5.593-15.121 18.885-36.074 13.447-44.573-4.199-6.562-31.075-4.408-47.49-4.444-228.348-.492-456.696-.268-685.043-.741-14.105-.03-15.56 4.354-12.836 16.475 16.514 73.476 32.527 147.066 48.592 220.643 5.078 23.259 8.9 42.286 13.786 65.587 17.162-26.076 48.59-37.383 49.798-71.29 5.23 9.49 5.188 9.459 10.726 2.055 8.63-11.534 14.555-25.287 26.797-33.923-9.374 16.6-15.742 34.525-26.712 49.888-4.81 6.738-7.68 21.936-8.454 30.525-1.577 17.53-5.363 35.066-8.34 52.412-9.73 56.7-26.76 102.128-9.885 160.332 4.981 17.179 9.491 19.293 23.785 10.997 15.335-8.9 30.324-18.163 44.172-29.23 40.248-32.164 88.17-53.59 125.17-90.436 38.884-38.722 73.188-82.122 117.975-114.88 12.844-9.395-6.006-5.176-5.04-9.923m125.281-11.798c-4.484 8.662-9.31 17.168-13.325 26.04-2.5 5.526.687 11.558 6.092 8.796 21.21-10.84 46.103-15.057 63.2-33.3 5.871-6.265 6.825-14.44 2.79-22.483-4.007-7.986-11.644-5.057-18.093-5.765-7.41-.815-12.453 5.115-19.089 6.435.877-6.351 12.316-8.955 6.967-17.083-5.407-8.217-12.634-1.481-18.544-.12-13.692 3.154-27.432 6.713-40.519 11.748-31.007 11.93-55.63 32.037-73.61 60.384 34.374-13.453 65.392-35.53 104.131-34.652M1867.235 384c16.572-.035 20.84 4.966 20.744 20.614-.67 110.248-1.199 1007.23.014 1106.583.247 20.234-6.575 24.974-25.826 24.686-94.64-1.416-1670.639-.466-1685.567.085-11.883.44-16.742-3.592-16.597-16.554.654-58.468 3.146-1061.536 2.69-1107.804-.265-26.74-.302-26.798 26.375-26.8 266.531-.014 1410.257-.245 1678.167-.81"/></g></svg>