<svg xmlns="http://www.w3.org/2000/svg" xmlns:xlink="http://www.w3.org/1999/xlink" xmlns:inkscape="http://www.inkscape.org/namespaces/inkscape" version="1.1" width="2048" height="1920" viewBox="0 0 2048 1920">
<defs>
<clipPath id="clip_1">
<path transform="matrix(1,0,0,-1,0,1920)" d="M0 1920H2048V0H0Z"/>
</clipPath>
</defs>
<g inkscape:groupmode="layer" inkscape:label="Layer 1">
<g clip-path="url(#clip_1)">
<path transform="matrix(1,0,0,-1,1839.4223,447.11573)" d="M0 0C.035 13.739-5.479 15.647-16.711 15.591L-280.166 15.021C-305.722-11.281-375.656-76.906-382.966-82.174-417.613-107.117-452.168-138.053-461.238-181.136-464.006-194.256-464.957-201.326-450.654-204.882-444.809-206.34-439.528-210.03-433.69-211.544-419.937-215.093-405.43-220.903-393.726-225.621-376.283-232.656-356.459-241.17-340.819-253.656-334.446-258.74-326.742-249.811-322.108-259.543-311.094-282.704-288.665-288.105-266.067-293.197-241.04-298.838-214.9-300.57-191.738-311.084-192.527-320.795-208.167-315.175-203.301-321.386-189.632-338.851-207.519-331.294-211.435-332.337-219.871-334.576-228.801-333.872-237.589-335.794-249.328-338.358-250.406-343.421-247.617-353.78-244.37-365.864-237.962-377.216-241.364-391.061-247.483-415.968-244.969-439.503-225.16-458.679-217.343-466.249-210.111-474.403-202.597-482.276-189.309-496.192-191.034-501.142-208.942-509.853-251.272-530.444-282.13-503.938-311.151-481.953-327.122-469.861-346.784-467.502-362.368-454.136-370.079-447.517-375.526-445.99-391.303-439.397-420.345-432.44-446.295-417.687-477.527-422.532-492.075-424.792-489.005-429.658-483.59-437.348-474.724-449.968-467.125-462.749-475.534-478.579-497.399-519.726-519.237-560.901-541.448-601.865-544.616-607.703-549.616-612.618-554.123-617.639-561.496-625.857-567.538-625.639-572.123-614.66-581.32-592.647-582.27-571.274-568.369-550.669-556.623-533.268-543.504-516.776-534.314-497.692-527.124-482.748-536.645-477.671-547.574-471.671-561.961-463.763-562.933-474.819-566.13-483.269-604.735-585.344-639.361-688.778-671.853-792.924-676.909-809.134-685.472-824.909-684.747-844.556-606.214-789.748-542.609-723.496-495.209-640.526-490.843-648.646-493.741-657.247-495.987-661.114-541.465-739.513-600.34-802.536-672.698-857.668-690.345-871.119-702.422-888.365-710.211-908.745-725.189-947.912-739.196-987.475-754.991-1026.312-760.576-1040.044-755.555-1041.03-744.337-1040.854-720.485-1040.488-696.584-1039.931-672.775-1040.945-644.649-1042.15-630.475-1038.148-609.349-1012.092-609.314-1012.015-571.545-971.778-570.482-972.095-570.482-980.546-585.27-1008.714-593.721-1017.164-598.777-1022.221-613.889-1038.389-610.622-1039.699-607.101-1041.107-595.841-1040.509-588.707-1040.53-508.955-1040.762-354.364-1040.967-274.62-1040.446-252.374-1040.298-218.541-1043.479-209.171-1036.396-193.168-1024.301-194.666-1009.625-185.448-989.337-179.047-975.253-170.04-961.507-174.251-945.028-178.033-930.24-176.153-905.827-176.209-890.883-176.463-828.272-174.266-765.647-179.505-703.099-180.921-686.184-177.995-666.272-171.855-649.603-158.172-740.756-165.728-833.408-150.574-924.589-146.517-922.026-144.75-919.35-143.271-916.519-92.716-819.965-53.337-718.376-9.155-618.949-5.162-609.978 .021-601.358 .007-590.372-.352-393.582-.465-196.791 0 0M-383.212 14.774C-391.17 14.809-394.339 10.105-396.381 4.366-409.211-31.732-421.711-67.956-435.598-107.8-413.648-94.589-334.439-14.38-296.447 15.021ZM-365.141-365.078C-362.922-350.566-367.843-347.469-377.689-346.73-391.307-345.709-393.952-359.82-396.413-369.369-399.081-379.719-387.788-387.066-382.285-387.752-368.47-389.473-368.387-373.558-365.141-365.078M-516.765-471.728C-516.647-472.387-516.016-477.766-514.671-482.961-513.213-488.592-513.379-495.819-505.268-496.812-496.777-497.851-492.291-491.074-490.382-485.302-487.063-475.269-485.022-464.407-484.839-453.852-484.624-441.509-495.143-436.869-506.141-442.888-515.994-448.281-517.434-457.132-516.765-471.728M-564.059-581.572C-563.4-585.799-563.595-591.593-561.47-596.354-558.926-602.055-554.396-607.931-548.662-598.48-539.936-584.098-531.422-569.588-522.874-555.099-520.641-551.315-520.004-547.466-523.783-544.179-527.329-541.095-531.138-541.959-535.152-543.425-552.54-549.776-563.799-560.811-564.059-581.572M-356.043-431.868C-355.237-431.2-353.128-429.805-351.455-428.006-344.201-420.207-337.389-411.972-329.829-404.488-317.173-391.958-323.336-381.269-330.18-372.804-338.831-362.104-346.119-374.541-352.24-380.342-359.519-387.24-366.515-394.839-371.88-403.251-378.745-414.017-369.901-431.768-356.043-431.868M-937.94-446.816C-936.758-420.489-941.675-417.091-962.148-428.5-973.241-434.682-983.503-442.557-993.415-450.564-998.591-454.744-1003.432-457.331-1000.099-464.209-996.658-471.31-990.596-464.297-985.676-464.594-978.954-464.999-972.111-463.83-965.434-464.488-946.668-466.336-924.72-476.064-937.94-446.816M-724.227-290.343C-722.855-296.592-726.987-305.508-720.518-308.686-714.244-311.769-709.176-303.488-703.239-300.983-680.465-291.372-688.943-271.635-684.534-253.868-682.926-247.384-690.414-247.445-695.136-248.291-710.688-251.077-725.056-273.517-724.227-290.343M-304.949-299.418C-321.032-271.985-380.715-243.313-402.434-246.608-401.598-248.453-401.287-250.758-399.974-251.792-383.081-265.079-363.111-275.11-355.33-297.592-353.518-302.827-347.711-304.954-341.466-302.409-328.716-297.212-319.246-296.276-304.949-299.418M-1085.491-261.908C-1097.291-278.702-1120.811-288.176-1118.834-310.558-1117.145-329.673-1114.573-349.471-1105.256-371.063-1098.178-331.976-1091.834-296.942-1085.491-261.908M-452.073-408.524C-466.848-396.175-476.629-386.633-487.931-379.241-502.768-369.536-514.832-364.47-532.828-370.149-537.734-371.698-545.13-372.861-544.811-379.892-544.547-385.708-538.001-385.829-533.504-387.783-527.272-390.492-519.672-392.952-515.913-397.958-497.604-422.338-478.932-408.817-452.073-408.524M-1147.077-868.16C-1126.912-867.826-1103.163-849.286-1104.234-834.868-1105.576-816.812-1119.951-814.7-1133.896-814.552-1156.274-814.315-1173.342-828.253-1171.644-845.19-1170.103-860.566-1159.1-866.381-1147.077-868.16M-238.215-325.12C-261.101-317.424-283.296-306.712-308.131-307.447-331.305-308.134-348.357-328.319-344.031-349.132-342.796-355.078-340.863-361.19-333.547-354.985-305.996-331.618-271.736-330.873-238.215-325.12M-285.094-413.794C-274.256-405.341-265.016-395.791-251.882-385.312-251.262-384.817-251.618-382.632-252.021-381.397-256.973-366.245-254.497-349.357-274.394-345.808-293.616-342.38-300.283-353.147-305.009-369.879-306.099-373.739-307.981-378.552-308.924-382.475-314.2-404.433-312.041-413.604-285.094-413.794M-227.175-479C-227.74-471.43-235.166-468.385-237.59-462.505-250.08-432.212-270.165-417.432-304.287-426.966-311.867-429.083-321.105-426.3-324.63-436.234-328.221-446.355-325.178-455.311-317.071-461.734-303.958-472.123-291.248-483.34-274.872-489.086-271.931-464.064-258.84-463.686-227.175-479M-418.98-408.477C-411.671-408.783-404.527-407.781-401.393-400.266-399.211-395.033-399.021-389.603-404.599-384.969-427.478-365.962-450.045-346.581-472.717-327.325-476.504-324.109-480.334-323.412-484.888-326.06-488.807-328.339-489.459-331.64-489.468-335.664-489.534-364.925-442.541-406.248-418.98-408.477M-1630.363-826.129C-1606.241-810.907-1587.116-797.012-1575.487-775.491-1569.587-764.573-1559.51-752.75-1568.612-739.97-1577.059-728.109-1591.148-733.907-1602.939-734.215-1608.203-734.353-1613.503-736.669-1618.607-738.495-1626.257-741.231-1630.75-745.89-1630.534-755.092-1630.008-777.4-1630.363-799.729-1630.363-826.129M-653.022-403.491C-654.773-399.917-655.371-397.382-656.917-395.734-679.486-371.689-679.83-371.525-662.779-343.874-658.932-337.635-658.389-334.299-664.634-330.178-668.785-327.439-673.379-324.429-675.924-320.38-683.646-308.093-691.823-310.513-701.084-318.079-729.978-341.686-723.411-376.762-689.051-390.855-677.757-395.488-667.333-403.237-653.022-403.491M-728.992-515.475C-690.826-505.066-657.277-485.234-621.769-469.911-609.897-464.788-593.894-458.074-594.545-446.243-595.073-436.645-612.385-431.76-623.473-426.88-646.926-416.556-658.337-418.566-670.73-440.301-686.552-468.048-704.17-493.836-728.992-515.475M-1266.898-1023.95C-1250.093-1024.979-1242.496-1012.376-1238.725-999.589-1228.092-963.533-1206.496-934.15-1184.605-904.823-1167.893-882.433-1168.222-881.257-1191.275-864.297-1204.906-854.268-1212.054-858.648-1216.681-872.757-1218.158-877.26-1220.147-881.888-1220.26-886.499-1221.268-927.636-1242.352-959.694-1267.052-989.992-1272.872-997.133-1276.524-1004.685-1277.694-1013.595-1278.714-1021.37-1275.555-1025.273-1266.898-1023.95M-1210.545-630.336C-1185.363-619.524-1173.453-614.282-1152.952-605.685-1145.898-602.726-1138.746-599.412-1135.317-592.577-1121.544-565.118-1107.076-538.133-1083.619-513.684-1161.262-519.376-1179.844-571.566-1210.545-630.336M-444.819-231.358C-446.539-221.334-453.379-216.042-462.087-212.789-483.385-204.834-505.415-199.902-527.724-195.444-544.406-192.11-558.877-197.365-573.828-201.749-578.258-203.048-584.009-205.923-583.112-212.176-582.204-218.502-575.875-216.297-572.149-216.739-547.228-219.697-526.007-227.952-512.217-250.973-507.348-259.101-497.611-266.271-487.972-260.116-476.285-252.654-465.157-245.087-451.501-241.478-447.951-240.539-444.047-236.648-444.819-231.358M-406.455-362.901C-402.638-342.923-392.113-335.979-376.712-327.883-359.945-319.068-358.525-307.658-371.551-294.237-385.618-279.744-401.812-268.414-421.773-263.361-435.128-259.98-449.715-257.092-460.23-267.286-471.069-277.795-467.451-292.802-463.679-305.733-455.489-333.811-429.283-344.436-406.455-362.901M-935.081-640.409C-924.184-604.272-913.307-569.593-912.101-531.752-911.053-498.875-929.238-479.443-961.576-478.872-981.784-478.515-1003.172-479.317-1021.708-488.511-1030.893-493.068-1043.089-499.009-1041.325-508.188-1039.139-519.567-1024.951-511.089-1016.503-513.901-1014.676-514.508-1012.447-513.855-1010.405-513.883-977.393-514.342-960.416-526.734-950.673-558.153-942.415-584.782-938.643-612.219-935.081-640.409M-1391.264-181.254C-1388.63-175.948-1387.351-173.856-1386.507-171.601-1367.194-120.027-1343.932-70.184-1321.075-20.12-1302.662 20.209-1296.94 17.808-1345.854 18.245-1351.988 18.3-1358.171 17.9-1364.246 18.531-1377.62 19.919-1384.155 15.329-1384.989 .85-1386.867-31.748-1390.385-64.247-1392.699-96.824-1394.607-123.673-1396.273-150.588-1391.264-181.254M-623.823-360.091C-635.37-359.816-646.859-361.811-651.599-372.779-656.683-384.54-647.098-392.595-639.335-399.935-622.127-416.204-614.394-417.094-591.874-424.404-580.841-427.986-558.868-444.637-549.694-451.394-533.277-463.484-532.222-463.755-529.39-444.439-528.056-435.343-516.313-426.679-524.375-417.875-551.371-388.396-581.191-362.899-623.823-360.091M-1586.337-703.049C-1569.005-704.722-1549.359-693.02-1538.969-715.558-1538.349-716.903-1532.702-716.523-1529.542-716.019-1509.48-712.819-1489.517-708.932-1469.394-706.218-1462.462-705.283-1460.325-700.778-1458.234-696.05-1445.841-668.024-1428.358-643.079-1411.339-617.846-1407.217-611.736-1399.94-604.994-1404.952-598.052-1410.06-590.978-1418.799-595.809-1425.606-598.338-1466.341-613.473-1500.522-639.168-1538.257-660.206-1556.795-670.541-1571.122-683.617-1586.337-703.049M-600.367-341.842C-581.802-343.642-565.264-337.899-550.079-328.715-530.921-317.129-517.142-286.428-522.937-270.661-528.398-255.8-559.5-240.189-579.197-243.896-600.899-247.98-621.94-255.09-638.408-270.516-648.623-280.085-667.432-288.82-664.624-302.073-661.128-318.576-643.882-329.609-627.65-337.338-619.085-341.415-609.742-343.238-600.367-341.842M-899.368-590.81C-877.083-572.101-853.055-558.834-827.305-548.365-801.002-537.672-777.623-521.847-753.838-506.373-729.178-490.33-701.726-476.753-690.378-446.305-684.774-431.266-676.811-419.227-691.289-407.689-704.542-397.128-720.384-400.987-735.26-408.237-753.836-417.29-768.582-431.513-784.394-444.071-813.354-467.072-848.817-482.564-869.22-515.656-883.511-538.836-901.278-560.612-899.368-590.81M-1367.845-685.334C-1356.283-685.334-1344.56-686.582-1333.189-685.114-1288.927-679.399-1252.202-668.281-1231.647-622.475-1222.209-601.444-1215.296-580.876-1197.109-565.191-1193.937-562.455-1191.332-558.665-1193.531-554.468-1195.914-549.922-1200.572-551.926-1204.413-552.348-1223.988-554.496-1237.656-557.066-1257.26-557.427-1337.583-558.905-1382.552-607.075-1414.475-673.573-1419.141-683.291-1415.744-685.543-1406.632-685.41-1393.705-685.221-1380.772-685.362-1367.845-685.334M-733.145-332.571C-733.145-325.116-732.634-317.62-733.245-310.216-734.779-291.621-741.565-287.376-758.243-295.99-800.351-317.738-842.102-339.638-880.989-367.545-935.661-406.781-931.283-443.312-906.2-494.645-896.085-515.346-890.091-518.967-874.711-501.624-854.283-478.588-831.973-455.771-806.115-439.496-764.37-413.223-730.175-386.483-733.145-332.571M-1136.72-1039.617C-1136.721-1039.907-1136.722-1040.196-1136.722-1040.486-1110.183-1040.486-1083.642-1040.667-1057.108-1040.299-1052.901-1040.241-1044.679-1043.733-1046.171-1033.759-1054.854-975.701-1063.821-917.685-1072.367-859.608-1073.706-850.508-1077.061-849.684-1084.338-853.985-1098.93-862.61-1113.479-871.379-1128.543-879.124-1188.728-910.069-1207.147-969.251-1228.546-1026.314-1232.342-1036.436-1227.551-1040.285-1216.282-1039.904-1189.788-1039.008-1163.244-1039.617-1136.72-1039.617M-.227-684.321C-59.868-801.747-109.559-922.902-173.169-1040.606-116.963-1040.606-63.443-1040.456-9.926-1040.732 .908-1040.788-.226-1033.906-.226-1027.079-.228-912.826-.227-798.573-.227-684.321M-1477.969-740.769C-1517.762-761.287-1542.285-775.496-1585.349-810.39-1595.189-818.363-1607.909-829.502-1618.771-836.262-1627.425-841.648-1630.61-847.492-1630.54-857.511-1630.142-914.606-1630.174-968.624-1630.806-1025.715-1630.939-1037.764-1626.773-1040.769-1615.578-1040.529-1589.051-1039.961-1562.468-1039.662-1535.977-1040.822-1522.192-1041.426-1517.953-1035.782-1514.503-1023.39-1498.817-967.042-1496.491-908.605-1486.427-851.392-1480.144-815.675-1475.032-779.45-1477.969-740.769M-954.611-612.02C-954.611-605.904-953.847-599.673-954.743-593.691-958.622-567.794-964.252-542.135-992.085-531.069-1028.591-516.554-1078.65-538.984-1094.137-575.698-1102.831-596.305-1108.589-618.821-1120.685-637.18-1145.122-674.272-1149.462-713.243-1143.284-755.835-1136.897-799.872-1104.025-818.91-1063.781-799.518-1044.98-790.458-1030.508-776.156-1018.465-759.571-986.217-715.16-952.571-671.229-954.611-612.02M-1454.399-409.475C-1448.402-401.518-1450.031-392.555-1449.691-383.973-1447.862-337.81-1449.982-291.07-1443.327-245.612-1431.296-163.429-1428.166-81.134-1428.266 1.598-1428.281 13.653-1432.815 17.088-1443.684 17.059-1486.599 16.945-1529.515 17.036-1572.429 17.319-1587.22 17.417-1591.558 11.371-1587.825-3.056-1575.336-51.316-1563.912-92.086-1548.924-136.437-1547.582-140.408-1546.143-145.251-1541.015-146.624-1533.467-98.773-1498.257-18.493-1486.285-5.113-1489.499-27.759-1541.113-160.047-1532.23-187.548-1525.387-208.734-1526.796-265.775-1459.192-191.833-1469.051-215.072-1511.303-247.466-1503.528-270.63-1490.745-308.713-1476.348-345.856-1464.837-384.194-1462.331-392.543-1464.983-403.671-1454.399-409.475M-1154.87-625.225C-1175.828-640.973-1203.052-648.091-1214.136-673.979-1217.578-682.019-1226.337-680.332-1230.388-679.728-1241.084-678.134-1250.13-680.509-1259.44-684.535-1282.678-694.585-1306.603-700.375-1332.377-700.295-1340.181-700.271-1351.153-700.262-1357.491-700.262-1385.055-701.118-1385.467-700.354-1408.668-707.752-1414.346-709.562-1416.705-716.702-1417.228-723.076-1422.61-788.676-1428.802-849.687-1432.978-915.364-1435.268-951.38-1437.572-987.268-1450.137-1021.258-1455.48-1035.713-1450.168-1036.699-1438.284-1037.925-1398.859-1041.991-1359.365-1039.644-1319.921-1040.671-1310.915-1040.906-1307.861-1037.885-1304.663-1029.27-1298.576-1012.868-1288.751-997.875-1282.22-981.599-1280.131-976.393-1263.039-967.189-1283.639-962.234-1287.137-961.393-1284.448-957.257-1282.535-955.916-1254.937-936.58-1251.204-904.956-1241.646-876.463-1237.672-864.617-1233.395-854.301-1221.52-847.452-1171.62-818.671-1150.598-774.218-1161.786-717.907-1166.099-696.204-1166.59-675.152-1162.808-653.802-1161.091-644.112-1157.572-634.741-1154.87-625.225M-1470.81-595.083C-1473.318-594.792-1477.197-595.4-1478.084-594.048-1481.133-589.402-1476.114-592.083-1475.133-591.768-1464.238-588.266-1467.11-578.401-1466.619-571.303-1464.227-536.731-1462.82-508.703-1461.112-474.084-1460.74-466.539-1462.284-459.39-1464.507-452.092-1509.693-303.716-1562.541-144.007-1601.576-1.369-1604.578 9.601-1606.115 19.169-1620.033 18.622-1631.033 18.189-1629.748 4.304-1629.769-3.531-1630.323-205.003-1630.454-406.476-1630.645-607.949-1630.677-641.622-1630.649-675.296-1630.649-713.797-1596.89-682.793-1565.428-657.308-1531.639-634.785-1521.074-627.742-1535.287-628.509-1536.105-624.172-1509.358-626.658-1491.935-607.75-1470.81-595.083M-1271.791-254.548C-1268.159-261.418-1270.464-264.647-1272.36-268.264-1306.697-333.773-1343.869-397.833-1373.793-465.603-1385.057-491.114-1396.986-516.375-1407.098-542.339-1415.204-563.154-1408.074-572.263-1386.333-570.495-1372.843-569.397-1358.923-566.105-1346.115-561.879-1312.583-550.816-1284.536-546.448-1253.876-540.243-1215.306-532.438-1178.075-520.216-1139.74-512.133-1132.085-510.518-1126.44-507.519-1128.391-495.261-1136.902-441.783-1143.63-388.011-1150.362-334.265-1163.578-228.739-1182.801-124.32-1207.205-20.834-1216.959 20.529-1216.158 18.767-1261.604 18.767-1262.96 18.767-1264.839 18.706-1266.115 18.767-1289.973 19.901-1293.982 8.68-1300.924-10.39-1322.517-69.709-1349.884-127.221-1370.353-186.908-1384.962-229.509-1405.923-270.999-1401.737-318.451-1400.675-330.496-1403.816-342.852-1403.674-355.05-1403.234-392.738-1408.495-430.506-1401.635-468.951-1361.429-395.892-1315.942-326.579-1271.791-254.548M-630.399-496.982C-634.39-496.982-636.349-496.496-637.945-497.051-734.52-530.641-820.712-570.753-898.797-638.291-940.154-674.062-975.617-712.605-998.302-762.347-1005.147-777.355-1015.173-790.204-1025.17-803.068-1030.423-809.826-1031.928-815.972-1030.487-825.245-1019.876-893.555-1003.19-960.853-996.04-1029.686-994.841-1041.231-988.884-1040.533-981.188-1040.523-936.222-1040.468-891.251-1040.158-846.293-1040.751-835.71-1040.89-831.242-1036.687-826.6-1027.738-803.527-983.247-783.713-937.243-766.873-890.25-734.109-798.817-703.909-706.469-672.242-614.639-658.056-573.499-645.52-539.055-630.399-496.982M-785.343-241.18C-775.547-237.447-763.646-238.589-755.653-231.139-721.194-199.023-680.572-181.78-633.822-177.108-626.68-176.394-619.177-173.779-611.972-174.426-599.606-175.536-611.998-159.822-605.573-163.288-582.231-175.881-555.679-166.478-532.092-176.17-522.793-179.992-512.322-184.792-506.521-168.24-490.464-122.43-472.634-77.244-455.79-31.706-450.197-16.585-436.905 4.368-442.343 12.867-446.542 19.429-473.418 17.275-489.834 17.311-718.181 17.803-946.529 17.579-1174.876 18.052-1188.981 18.081-1190.436 13.698-1187.712 1.577-1171.198-71.899-1155.185-145.489-1139.12-219.066-1134.042-242.325-1130.22-261.352-1125.334-284.653-1108.172-258.577-1076.745-247.27-1075.536-213.363-1070.306-222.853-1070.348-222.822-1064.81-215.418-1056.181-203.884-1050.255-190.131-1038.013-181.495-1047.387-198.095-1053.755-216.02-1064.725-231.383-1069.536-238.121-1072.406-253.319-1073.179-261.908-1074.756-279.439-1078.542-296.974-1081.519-314.32-1091.25-371.02-1108.279-416.448-1091.404-474.652-1086.423-491.831-1081.913-493.945-1067.619-485.649-1052.284-476.75-1037.295-467.486-1023.447-456.419-983.199-424.255-935.277-402.829-898.277-365.983-859.393-327.261-825.089-283.861-780.302-251.103-767.458-241.708-786.308-245.927-785.343-241.18M-660.061-229.382C-664.545-238.044-669.371-246.55-673.386-255.422-675.887-260.948-672.699-266.98-667.294-264.218-646.084-253.379-621.191-249.161-604.095-230.918-598.223-224.653-597.269-216.478-601.304-208.435-605.311-200.449-612.948-203.378-619.397-202.67-626.807-201.855-631.85-207.785-638.486-209.105-637.609-202.754-626.17-200.15-631.519-192.022-636.926-183.805-644.153-190.541-650.063-191.902-663.755-195.056-677.495-198.615-690.582-203.65-721.589-215.58-746.213-235.687-764.193-264.034-729.818-250.581-698.8-228.505-660.061-229.382M27.813 63.116C44.385 63.151 48.652 58.15 48.557 42.502 47.887-67.746 47.358-964.728 48.571-1064.081 48.818-1084.315 41.996-1089.055 22.745-1088.767-71.896-1087.351-1647.894-1088.301-1662.822-1088.852-1674.705-1089.292-1679.564-1085.26-1679.419-1072.298-1678.765-1013.83-1676.273-10.762-1676.73 35.506-1676.994 62.246-1677.031 62.304-1650.354 62.306-1383.823 62.32-240.097 62.551 27.813 63.116" fill="#231f20"/>
</g>
</g>
</svg>
