<svg xmlns="http://www.w3.org/2000/svg" width="1984.25" height="1984.25" viewBox="0 0 1984.25 1984.25"><defs><clipPath id="clip_1"><path d="M0-.002h1984.252V1984.25H0Z"/></clipPath></defs><g clip-path="url(#clip_1)"><path d="M1077.95 927.593c.612 3.37.826 6.815 1.587 10.149 2.175 9.56.294 14.365-11.742 7.679 3.008 28.89 4.595 56.07 2.831 84.39-8.127-3.836-10.008-12.6-17.473-17.78-5.13 19.93-6.662 40.375-15.235 60.293-4.78-8.224-3.536-16.92-7.772-26.45a47201 47201 0 0 0-9.37 29.35c-7.433-17.443-9.32-33.978-13.875-49.948-6.129 1.52-7.66 7.844-13.954 10.308-4.579-25.991-5.639-51.841-4.689-79.47-7.44 6.877-9.297 15.684-16.669 25.024 2.763-31.292 7.152-59.27 14.205-90.42-4.608 5.932-7.366 9.487-10.124 13.035q-1.23-1.03-2.45-2.06c7.85-24.452 17.9-47.943 31.083-70.575l24.22 15.953 25.782-12.607c7.76 13.765 15.561 27.499 23.21 41.325 1.972 3.566 3.351 7.464 5.974 13.397-5.527-2.666-8.984-4.333-13.887-6.705 2.917 15.757 5.657 30.428 8.347 45.112m-88.214-98.52c4.964-12.122 12.171-22.657 21.29-31.8 2.2-2.213 5.106-.135 7.502.74 8.414 3.072 16.86 4.947 25.464.927 2.966-1.386 4.928-.766 6.79 1.82 6.582 9.119 13.274 18.159 20.745 28.356-8.139-.098-12.36-3.916-18.63-6.551-7.704-4.437-28.222-13.618-49.5-1.042 0 0-11.645 6.742-13.66 7.55m434.261-111.587c-.496-4.552-4.118-3.602-6.968-3.682-4.554-.128-9.18-.533-13.66.068-10.352 1.384-13.52-2.671-13.643-13.102-.686-58.166-1.9-116.326-3.309-174.486-.889-36.458-2.446-86.89-3.8-126.16-9.598 9.752-14.543 17.806-14.77 29.592-1.605 82.109-4.327 178.194-3.432 260.34.245 22.505.172 22.505-22.473 23.577-.38.018-.76-.013-1.139-.006-3.108.049-6.075.018-6.749 4.269-.643 4.03.607 6.487 4.493 7.914 6.772 2.493 13.336 5.593 20.212 7.718 5.7 1.764 6.784 3.963 4.473 9.77-4.516 11.375-11.54 20.63-21.297 27.564-2.782 1.978-4.743 4.128-5.999 6.572a513 513 0 0 0-.557-5.9c-1.282-12.886-1.227-13.027-12.809-7.618-37.2 17.37-74.217 35.11-111.632 52.022-24.036 10.866-47.698 13.917-72.984 6.217-9.414-2.867-19.263-4.435-29.007-6.015-7.286-1.188-6.827-7.136-8.402-11.938-.117-.361.675-1.03.993-1.483 2.911-1.2 2.917 4.68 6.51 2.402-1.393-13.574-1.674-27.405-4.56-40.673-1.999-9.181.035-11.497 8.757-13.292 36.954-7.601 73.181-17.726 106.568-35.992 5.731-3.136 11.86-5.996 17.185-12.251-5.534-1.611-9.445-2.86-13.415-3.89-40.566-10.51-81.914-16.826-123.325-22.693-8.622-1.225-13.66-4.3-15.965-13.035-2.813-10.64-7.03-20.9-10.308-31.43-13.557-43.575-24.71-87.91-41.312-130.518-2.238-5.745-4.285-11.692-10.137-18.13-5.265 25.579-9.922 48.965-14.917 72.278-8.053 37.56-15.37 75.287-27.002 112.014-3.248 10.26-9.1 15.638-19.33 18.26-19.139 4.912-38.094 10.553-57.032 16.2-26.414 7.878-52.827 15.78-78.929 26.389 3.371 4.49 7.716 4.79 11.485 5.997 36.998 11.79 74.99 19.699 112.838 28.054 8.942 1.972 11.167 5.966 9.536 14.082-2.169 10.817-4.566 21.628-5.889 32.556-.79 6.517-3.328 8.055-9.493 7.644-15.953-1.072-32.298-2.364-47.429 3.627-34.075 13.487-67.113 9.193-99.956-3.798-21.916-8.668-43.623-17.88-65.643-26.272-19.348-7.368-39.43-11.246-60.305-10.247-7.354.349-9.836 2.205-6.864 10.376.037.098.073.202.104.3-5.657-9.378-13.63-16.918-26.616-20.428-6.184-1.666-8.169-5.457-9.303-11.21-5.436-27.624-11.546-55.121-16.78-82.777-5.755-30.4-13.863-60.12-1.814-91.843 7.618-20.054-6.668-45.67-24.919-55.042 2.415 9.12 4.921 17.806 6.993 26.596 2.795 11.883 4.952 23.895 3.524 36.183-.49 4.263-1.888 8.538-6.876 9.328-4.615.735-6.686-3.02-8.396-6.42-1.532-3.043-2.93-6.26-3.696-9.554-3.358-14.426-6.465-28.906-9.665-43.362-8.843 24.232-6.459 46.743 10.486 66.693 5.645 6.646 12.025 12.655 13.753 21.879 7.924 42.253 15.977 84.48 24.097 126.697 1.085 5.666 1.557 10.143-5.828 12.01-5.969 1.514-8.899 6.794-10.743 12.442-6.19 18.92 5.644 51.973 22.877 61.54 5.185 2.874 6.7 6.334 7.477 11.455 3.947 25.953 8.102 51.875 12.16 77.81 24.746 158.26 49.23 316.563 76.508 474.419 1.22 7.05 1.667 14.143 11.754 12.09 10.358-2.1 3.812-9.34 3.163-13.487-28.608-183.472-57.504-366.894-86.578-550.292-1.22-7.707-.386-12.76 7.317-16.54 6.748-3.307 12.705-8.292 18.864-12.746 1.054-.765 2.243-1.506 3.101-2.462 4.701 15.779 8.74 31.753 12.171 47.875 7.293 34.266 14.893 68.727 7.57 103.916-1.98 9.538.992 9.758 8.518 9.268 26.886-1.746 52.331-9.268 77.3-18.707 35.93-13.586 71.917-26.976 109.387-35.796 20.555-4.84 22.627-3.345 26.561 17.8.208 1.12.288 2.267.454 3.4 4.902 33.585.81 66.882-3.996 100.026-14.378 99.236-39.75 196.022-66.146 292.557-9.014 32.973-18.434 65.835-27.48 98.055 22.118 0 43.685.073 65.251-.007a8638 8638 0 0 1 32.99-.06c-3.138 3.748-4.303 10.707-5.492 23.398-.74 7.95.411 11.718 6.215 11.534l58.074.82c2.482-.067 5.375 1.103 6.422-4.434 1.92-10.162-2.923-24.434-9.4-31.13 43.028.265 86.056.81 129.08 1.52-2.907 3.24-3.777 9.715-5.395 22.695-1.15 9.298-.012 13.843 7.012 13.506l58 .196c2.501-.05 5.522.845 6.846-3.97 2.353-8.532-2.678-23.9-8.832-31.404 31.74.607 63.48 1.275 95.225 1.954 12.858.27 12.883.196 7.79-11.987-18.202-43.526-35.239-87.513-51.008-131.97-33.725-95.101-65.214-190.847-79.848-291.18-4.683-32.108-6.68-64.315-1.422-96.651 1.14-7.001 4.131-8.931 10.75-7.362 11.514 2.73 22.54 6.829 33.461 11.27 31.684 12.888 62.873 27.055 95.654 37.107 22.222 6.818 44.775 11.908 68.051 13.72 8.378.657 10.731-1.916 9.303-10.118-1.495-8.594-1.863-17.39-2.604-26.106-3.487-41.052-3.567-82.281-5.792-123.407 1.49.38 3.383.41 5.62.306 9.267-.428 17.086-5.096 25.568-8.018-1.367 8.484.221 17.53 5.804 25.034 1.912 2.573 5.087 3.48 8.22 2.922 3.461-.612 3.087-3.785 3.45-6.345 1.01-7.137 2.015-14.28 3.137-22.192.318-1.446.582-3.1.055-4.325 7.281-3.356 9.953-9.74 11.081-21.53.54-5.618 0-11.375-.473-17.035-.594-7.161-3.983-15.117-1.85-21.212 2.518-7.18 12.84-6.652 19.194-10.591.643-.392 1.361-.686 2.06-.967 3.99-1.63 4.283-4.974 3.891-8.545"/></g></svg>