<svg xmlns="http://www.w3.org/2000/svg" width="2016" height="1728" viewBox="0 0 2016 1728"><defs><clipPath id="clip_1"><path d="M0 0h2016v1728H0Z"/></clipPath></defs><g clip-path="url(#clip_1)"><path d="M302.745 747.918c-11.078-14.055-19.58-29.319-25.268-45.369-4.781-13.489-7.093-27.378-7.067-42.461.126-74.738-.001-121.505-.163-180.715-.055-20.467-.116-42.579-.172-68.039-.003-1.643.245-2.654.784-3.182.493-.484 1.37-.712 2.748-.712q.15 0 .308.004c1.08.024 2.005.017 2.799.01 1.752-.011 2.909-.023 3.288.354.529.525.528 2.546.527 5.895v.501c-.004 28.015.004 51.979.01 74.155.019 57.225.034 102.425-.156 174.61-.036 13.779 2.936 27.586 9.353 43.454 9.732 24.063 25.848 44.843 47.9 61.763 16.787 12.879 36.306 21.825 58.015 26.589 14.552 3.194 30.12 4.126 46.275 2.778 23.625-1.976 45.91-9.678 66.238-22.89 19.217-12.491 34.763-28.16 46.207-46.572 8.81-14.174 14.8-28.192 18.313-42.854.982-4.099 1.44-8.445 1.443-13.678.02-40.069.019-80.137.017-120.205l-.001-33.683h-.021V412.85c0-2.659 0-4.264.506-4.777.498-.506 2.073-.507 4.682-.51 2.97-.005 4.77-.005 5.375.601.619.618.618 2.492.617 5.599-.01 27.832-.028 51.632-.045 73.648-.045 56.943-.08 101.92.085 173.874.029 12.781-2.294 25.884-7.102 40.058-7.73 22.784-20.924 43.45-39.217 61.42-20.824 20.458-45.876 34.332-74.46 41.237-13.71 3.312-27.238 4.771-40.203 4.342-32.053-1.066-61.136-10.445-86.441-27.877-13.82-9.52-25.655-20.47-35.174-32.547m199.1-250.062c-.008 54.16-.015 99.648-.005 169.146 0 4.312-1.751 7.974-3.605 11.85-.404.844-.807 1.689-1.192 2.539-4.752 10.517-12.005 19.639-22.176 27.884-1.974 1.601-3.367 1.645-5.522.181-18.648-12.68-38.947-21.966-60.333-27.6-4.387-1.156-8.944-1.905-13.35-2.63-2.508-.412-5.102-.839-7.618-1.334-6.465-1.272-12.96-1.283-19.24-1.294-3.03-.005-6.162-.01-9.235-.158-3.692-.178-5.09-1.677-5.745-6.166-.154-1.051-.136-2.134-.116-3.28q.012-.574.014-1.143-.005-66.566-.004-133.131v-19.919h-.096V487.73c.003-27.438.004-35.544-.032-76.414-.001-1.668.037-2.72.579-3.261.425-.424 1.26-.63 2.556-.63h.045c37.482.142 75.59.154 112.445.164l27.943.011c2.293.001 3.807.002 4.245.453.453.466.453 2.043.453 4.431ZM343.484 485.15c.046 56.724.082 101.528-.327 173.699-.081 14.366 4.334 27.415 13.893 41.066 11.68 16.679 28.245 28.048 47.904 32.875 35.24 8.655 65.539-.94 90.056-28.514 8.053-9.057 13.76-20.268 17.447-34.275.353-1.341.323-2.741.294-4.096q-.014-.543-.016-1.079l-.007-74.279c-.007-58.301-.014-104.457.009-177.76 0-.537-.073-1.111-.143-1.664-.236-1.87-.244-2.796.7-3.22 2.582-1.157 5.819-.574 8.42-.104.155.027.628.113.659 1.422.03 1.347.046 2.79.046 4.538v101.554q-.003 15.655-.012 31.309c-.02 39.198-.041 79.73.102 119.595.02 5.965-1.182 11.736-3.677 17.647-12.305 29.149-33.71 48.797-63.616 58.399-12.941 4.156-27.204 5.057-42.395 2.679-21.68-3.393-40.673-13.409-56.451-29.77-10.638-11.029-18.287-24.71-22.734-40.66-1.11-3.976-1.337-7.834-1.338-12.403l-.006-35.482c-.014-78.343-.023-125.63.019-213.241 0-.581-.081-1.207-.16-1.812-.286-2.214-.28-3.231.983-3.678 1.286-.456 2.742-.684 4.297-.684 1.573 0 3.246.234 4.94.7.748.206 1.027 1.33 1.039 2.232q.039 2.894.04 5.791c0 26.077.017 48.503.034 69.215m-21.426-56.875c-.001 23.372-.006 43.788-.011 62.658-.015 60.716-.026 104.585.117 179.067.017 8.692 3.84 16.756 7.213 23.872 12.764 26.926 33.517 45.927 61.68 56.476 15.838 5.929 32.476 7.879 49.449 5.785 19.024-2.345 36.55-9.431 52.095-21.062 19.22-14.381 32.546-33.917 39.605-58.064.578-1.977.539-4.1.5-6.154q-.016-.754-.018-1.497c.017-88.518.017-137.027.017-215.827V414.78c.003-3.769.64-6.021 2.003-7.086 1.373-1.072 3.74-1.139 7.45-.211.99.248 1.445.777 1.566 1.826.137 1.179.136 2.419.136 3.62-.001 26.048-.01 48.603-.018 69.479-.025 58.896-.044 105.416.16 179.709.03 10.677-2.36 21.205-7.522 33.131-11.982 27.685-32.228 48.276-60.173 61.202-12.598 5.827-25.57 9.146-38.554 9.864-10.797.595-19.78.426-28.274-.533-9.07-1.026-18.36-3.779-29.234-8.665-15.413-6.923-27.883-15.614-38.122-26.57-14.467-15.477-24.413-33.536-29.561-53.673-.287-1.124-.264-2.358-.241-3.664q.012-.536.013-1.064c-.01-44.762-.01-89.522-.01-134.284v-22.102h-.07v-19.793c-.001-32.715-.002-39.673.04-83.786.002-.483-.065-1.007-.13-1.514-.238-1.891-.175-2.561.668-2.804 2.924-.839 6.053-.811 8.809.082.346.113.424.487.36 1.743-.013.267-.026.528-.023.769.054 5.328.08 11.157.08 17.819m232.023 53.046c.007-20.296.015-42.22.014-67.41 0-.753.01-1.506.02-2.259.01-.767.02-1.535.02-2.302 0-.686.154-1.182.458-1.474.297-.285.78-.416 1.438-.39 1.763.072 3.165.047 4.292.028 1.59-.03 2.74-.049 3.072.279.454.447.45 2.333.444 5.187l-.002 1.276c.008 35.897.007 46.912.006 67.523l-.001 36.078c0 13.374-.015 26.747-.03 40.12-.04 35.635-.081 72.484.173 108.727.078 11.124-2.265 22.063-7.375 34.425-7.841 18.972-19.26 35.421-33.94 48.892-19.266 17.678-41.471 29.296-65.998 34.531-14.315 3.057-26.821 4.013-38.233 2.918-22.534-2.156-41.358-7.733-57.548-17.05-16.011-9.214-29.121-19.999-40.078-32.971-12.356-14.628-21.181-31.346-26.978-51.109-2.56-8.726-3.08-17.28-3.076-27.439.029-70.193.025-114.155.018-169.206l-.007-74.981c0-4.186.408-6.161 1.457-7.045.578-.486 1.456-.727 2.826-.727 1.166 0 2.686.175 4.678.52 1.373.238 2.014.893 2.145 2.19.156 1.554.154 3.172.152 4.738l-.001.554c-.011 76.058-.023 116.824-.043 180.539l-.013 44.156c-.002 6.057-.054 12.216-.104 18.174-.031 3.612-.061 7.223-.081 10.834-.057 10.063 2.929 19.16 5.536 25.962 5.037 13.145 11.147 24.022 18.676 33.252 13.759 16.867 30.266 29.763 49.06 38.331 11.467 5.227 22.066 8.399 32.404 9.698 11.788 1.479 21.782 2.202 32.234.931 15.637-1.905 29.868-5.874 43.507-12.133 15.638-7.177 29.51-17.751 42.41-32.327 8.36-9.447 15.066-20.061 19.932-31.548 6.068-14.326 8.759-25.966 8.723-37.745-.224-75.139-.208-122.185-.187-181.747m-435.886 765.62c-.007 20.258-.014 42.209-.014 67.599 0 2.742 0 4.398-.527 4.93-.522.528-2.154.528-4.857.528h-.161c-16.454.001-33.097.051-47.207.1-2.336.007-3.801-.012-4.293-.502-.498-.497-.535-2.013-.535-4.449l-.002-451.814h-.014V413.95c0-3.313 0-5.503.738-6.239.718-.717 2.76-.712 6.165-.703 66.26.178 132.21.319 187.985.434 2.06.005 3.548.008 3.976.432.434.43.433 1.995.432 3.975-.01 33.618-.021 61.784-.032 88.033-.021 54.69-.04 101.064-.041 171.104 0 8.934 2.522 17.499 4.96 25.782l.188.641c1.107 3.762.379 5.549-3.118 7.645-19.134 11.474-36.071 26.943-50.342 45.977-14.407 19.217-24.945 40.924-31.318 64.519-3.54 13.104-5.443 25.259-5.82 37.156l-.075 2.354c-.29 8.89-.588 18.085.302 27.112 1.42 14.408 3.84 26.752 7.4 37.735 2.173 6.7 4.197 12.725 6.98 18.608.585 1.236.107 1.734-1.303 2.745l-.23.165c-8.396 6.084-16.13 12.714-22.991 19.706-18.974 19.339-32.73 42.234-40.884 68.05-3.76 11.9-5.567 24.618-5.528 38.88.202 74.528.187 118.299.166 178.88m241.7-47.05.009 109.649c0 1.81-.021 3.619-.043 5.429q-.018 1.427-.032 2.853c-.007.816-.178 1.385-.51 1.691-.312.29-.845.413-1.581.356-.613-.043-1.22-.032-1.804-.023q-.372.008-.744.009l-136.211.056c-3.94.008-6.097.003-6.915-.833-.83-.846-.83-3.068-.831-7.102-.004-34.638-.004-43.586-.003-62.524v-33.845c.002-12.762.027-25.526.052-38.29.067-34.462.137-70.098-.28-105.144-.132-11.166 2.76-21.285 9.098-31.846 5.767-9.608 13.809-17.679 24.585-24.671 1.859-1.206 3.136-1.16 4.878.179 13.299 10.213 28.404 18.542 44.898 24.758 11.792 4.443 22.946 7.543 34.097 9.473 8.17 1.417 16.762 2.425 27.04 3.172 2.338.171 4.348 3.749 4.388 7.816.019 1.831-.014 3.7-.046 5.508a251 251 0 0 0-.052 4.427c.002 53.053.005 90.258.008 128.902m10.395 113.006c-.012-1.002-.025-2.005-.025-3.007-.001-23.445-.008-43.805-.016-62.566-.022-59.494-.038-102.479.188-176.47.034-11.036-2.298-20.869-7.131-30.061-11.554-21.974-29.315-36.718-52.79-43.827-8.583-2.599-17.04-3.901-25.29-3.901a75.5 75.5 0 0 0-17.473 2.027c-29.185 6.918-50.115 23.978-62.208 50.708-3.168 7.002-4.637 14.215-4.626 22.699.124 92.877.1 140.191.055 226.086l-.01 19.999c-.001.519.066 1.083.13 1.629.27 2.26.167 3.059-.974 3.342-2.437.601-6.096 1.066-9.687-.146-.53-.178-.596-.674-.528-2.073.013-.263.025-.522.026-.767q.016-12.89.04-25.78c.034-20.223.07-41.135.054-61.704-.012-15.4-.09-19.543-.152-22.871-.072-3.858-.12-6.405-.005-24.578.225-35.293.099-70.103-.053-99.499-.028-5.234-.037-10.862.079-16.551.266-13.047 5.9-24.499 11.378-33.981 11.166-19.329 27.582-33.42 48.793-41.884 17.373-6.932 35.848-8.473 54.913-4.583 22.072 4.505 40.465 15.26 54.667 31.968 9.288 10.926 16.002 23.315 19.957 36.822.338 1.154.322 2.511.307 3.823q-.007.43-.007.854c.013 44.797.013 89.596.013 134.395v21.575h.053v92.603l-.001 1.934c-.002 1.291-.003 2.582 0 3.894.013 3.73.02 5.983-.744 6.692-.76.705-2.98.534-6.658.248l-.201-.015c-1.673-.13-2.098-.572-2.065-2.147.033-1.633.012-3.287-.01-4.887m19.943-140.205c-.022-36.403-.044-74.045.16-111.064.043-7.793-1.483-15.106-4.664-22.359-12.032-27.426-31.65-47.087-58.308-58.437-15.535-6.613-32.272-9.127-51.165-7.678-18.033 1.382-34.77 7.046-49.745 16.836-17.917 11.713-31.472 27.779-40.288 47.753-4.702 10.652-6.874 21.985-6.834 35.666.24 83.919.234 128.199.224 201.56l-.005 39.965c0 .54.073 1.12.144 1.681.237 1.884.249 2.816-.66 3.208-2.255.976-4.96.561-7.576.162q-.637-.098-1.265-.187c-.294-.041-.39-.394-.414-1.507-.025-1.158-.024-2.317-.023-3.476v-.651c.003-26.631.017-49.435.03-70.465.038-56.787.067-101.64-.196-174.385-.051-14.186 3.12-27.531 9.697-40.797 14.212-28.672 37.1-48.841 68.028-59.947 12.382-4.446 25.107-6.683 37.949-6.683q4.741 0 9.498.407c24.783 2.121 47.19 11.365 66.597 27.474 18.985 15.758 31.994 36.115 38.666 60.504.86 3.142 1.433 5.81 1.432 8.623-.01 78.157-.003 124.948.002 188.507l.006 63.802-.002 1.242c-.008 3.719-.255 6.229-1.455 7.242-1.222 1.032-3.857.834-7.712.183-1.21-.204-1.73-.74-1.86-1.911-.21-1.879-.238-3.807-.24-5.275-.008-42.796-.008-48.878-.008-79.201v-22.182q.001-19.304-.013-38.61m31.233.096c.01 12.667.02 25.333.02 37.999v.9h.07l-.003 27.269c-.005 27.109-.006 36.242.076 77.768.003 1.402-.201 2.254-.64 2.678-.437.422-1.286.587-2.758.535-1.104-.04-2.045-.052-2.848-.061-1.77-.021-3.05-.036-3.353-.385-.344-.393-.33-1.873-.31-3.921q.01-.9.012-2.026c-.003-24.251-.012-45.391-.022-64.922-.028-61.958-.05-106.725.177-182.808.04-13.323-3.087-26.171-9.841-40.437-11.096-23.438-28.11-42.105-50.566-55.485-10.034-5.979-20.672-10.466-31.616-13.337-13.828-3.628-26.385-5.2-38.387-4.793-18.351.615-36.185 5.117-53.007 13.379-20.175 9.908-36.95 24.602-49.86 43.673-8.558 12.643-14.87 27.174-18.76 43.19-.427 1.761-.365 3.609-.305 5.396.02.617.04 1.232.04 1.84.002 66.53.006 110.206.012 160.964l.009 90.499q-.001 1.34-.008 2.681a373 373 0 0 0-.004 3.959c.01 1.907-.75 2.692-2.624 2.711a9 9 0 0 0-.47.017c-3.983.286-6.28.409-7.168-.419-.883-.822-.926-3.106-.925-7.073.002-24.645.009-46.059.016-65.833.02-61.339.036-105.657-.111-181.071-.017-9.041 1.69-18.246 5.538-29.849 7.825-23.599 22.097-44.418 42.419-61.877 12.274-10.545 27.174-18.864 45.55-25.431 14.72-5.261 29.7-6.734 43.126-6.734 6.418 0 12.482.336 17.988.758 15.706 1.2 32.089 6.484 48.696 15.707 22.988 12.766 41.05 30.209 53.687 51.842 4.536 7.767 9.123 16.234 11.947 25.52 2.082 6.852 4.443 14.617 4.388 23.008-.246 38.057-.215 76.75-.185 114.169m10.877 79.683c.006-18.561.006-34.276.006-48.459 0-46.621 0-77.421.213-139.157.042-12.027-2.097-23.739-6.537-35.805-6.39-17.364-15.507-32.701-27.874-46.887-15.957-18.304-35.54-32.082-58.201-40.953-17.5-6.85-35.601-10.307-53.913-10.307q-3.855 0-7.717.204c-27.914 1.477-53.316 9.777-75.497 24.669-18.28 12.273-33.077 27.532-43.981 45.35-8.626 14.095-14.851 28.961-18.506 44.185-1.112 4.635-2.196 9.599-2.174 14.843.057 13.793.015 27.821-.025 41.386-.068 22.986-.14 46.756.27 70.13.302 17.27.252 34.83.203 51.812-.04 13.579-.08 27.619.06 41.433.22 21.513.214 22.413.18 28.275-.02 3.601-.051 9.042-.05 22.067 0 2.324-.037 3.885-.55 4.39-.503.498-1.981.515-4.356.484-2.726-.036-4.371-.058-4.905-.586-.53-.523-.53-2.123-.53-4.774l-.003-69.552v-33.899c-.001-13.34.012-26.68.023-40.02.032-35.67.066-72.557-.16-108.834-.072-11.547 2.813-22.412 5.644-31.52 6.625-21.304 17.99-40.874 33.78-58.161 15.137-16.571 33.594-29.709 54.859-39.051 11.432-5.022 20.393-7.923 29.057-9.408 15.048-2.58 32.595-5.111 50.427-2.519 13.03 1.895 30.05 4.965 46.144 11.942 26.016 11.276 47.727 28.339 64.527 50.714 11.34 15.102 19.289 30.248 24.3 46.303 3.105 9.947 5.974 20.75 5.948 32.328-.154 68.184-.158 112.941-.163 164.766-.003 25.667-.006 53.307-.026 86.705 0 .546.08 1.141.158 1.715.298 2.207.21 2.996-.89 3.318-2.878.838-6.183.82-9.307-.054-.434-.122-.552-.397-.438-1.888.025-.32.048-.633.048-.921-.031-23.86-.05-43.92-.044-64.264M663.136 865.37h.034v40.987c0 146.128 0 255.279-.003 409.007 0 2.161-.036 3.613-.523 4.078-.49.467-1.906.507-4.178.507h-.11l-35.11-.018c-54.314-.031-110.478-.061-165.717.021h-.034c-1.993 0-3.087-.244-3.654-.814-.563-.569-.808-1.653-.794-3.516.145-18.923.119-38.161.094-56.766q-.014-9.953-.02-19.907c-.003-19.794-.007-29.547-.011-37.977-.005-10.989-.01-19.73-.011-45.53q.001-28.119.015-56.235l.007-19.171c0-2.753.039-5.557.075-8.269.086-6.406.174-13.03-.21-19.533-.296-4.987-1.435-10.433-3.483-16.65-1.044-3.173.054-4.131 2.809-5.559 15.969-8.282 30.886-19.478 44.336-33.28 17.509-17.966 30.926-38.39 39.878-60.705 3.985-9.934 7.239-20.685 9.67-31.954 2.89-13.381 4.444-26.896 4.62-40.171.106-7.984-1.056-15.965-2.18-23.683a551 551 0 0 1-.89-6.279c-2.07-15.428-7.13-29.92-11.808-42.062l-.131-.341c-3.28-8.508-3.28-8.508 3.418-14.336 19.414-16.889 34.297-37.264 44.238-60.559 8.359-19.589 12.23-36.28 12.184-52.527-.21-72.965-.193-118.613-.17-176.404.008-21.549.018-44.841.016-71.932 0-.537.017-1.074.034-1.611.037-1.128.075-2.293-.046-3.454-.132-1.277-.002-2.112.4-2.555.428-.472 1.314-.693 2.782-.693l.124.001c15.812.127 31.887.105 47.435.084l11.873-.014c2.556-.003 4.096-.003 4.585.477.49.481.49 2.09.49 4.525-.002 33.012-.01 53.187-.016 73.302-.007 20.306-.014 40.549-.016 73.876q-.005 107.352-.002 214.704Zm2.886-468.643-111.76.007c-106.03.008-212.06.015-318.088.037-54.656.011-112.902.058-178.07.144-7.178.01-7.681.515-7.681 7.719l-.001 458.94h-.015l-.002 460.161c0 3.396 0 5.099 1.05 6.153 1.053 1.056 2.756 1.056 6.149 1.056q61.063.004 122.125.003c91.49 0 186.096 0 279.143.038 43.353.018 87.433.094 130.06.166 25.802.044 51.603.089 77.404.121h.559c2.865 0 4.49-.057 5.489-1.054 1.05-1.05 1.05-2.72 1.05-6.046.002-341.673.002-578.232-.002-919.904 0-7.118-.415-7.541-7.41-7.541"/><path d="M1948.586 854.983c-27.427-.023-54.854-.07-82.281-.119-37.776-.065-76.276-.132-114.89-.132-29.646 0-59.362.04-88.86.15h-.483c-25.341 0-49.231-7.45-75.13-23.42-19.784-12.2-36.422-28.932-49.451-49.729-9.672-15.438-16.636-32.328-20.7-50.199-3.873-17.03-4.86-35.045-2.934-53.543 1.278-12.279 4.58-25.217 10.095-39.557 10.085-26.223 26.688-48.83 49.345-67.194 12.222-9.906 26.572-17.983 43.87-24.692 13.415-5.202 27.459-7.732 42.925-7.732h.276c81.65.16 164.667.094 244.95.031l46.064-.035h.254c1.806.004 3.36-.007 4.113.775.532.553.763 1.566.702 3.096-.303 7.811-.303 7.811-5.552 7.813-39.161.013-78.322.012-117.483.01h-35v-.178h-.897c-13.188 0-26.374.03-39.562.06-32.956.074-67.033.152-100.541-.264-15.533-.164-30.65 3.215-46.207 10.421-21.01 9.731-38.904 23.39-53.19 40.594-13.52 16.282-23.362 35.272-29.255 56.444-3.478 12.493-5.287 25.172-5.377 37.686-.134 18.617 3.47 37.44 10.713 55.943 12.837 32.797 35.08 58.373 66.109 76.017 13.68 7.78 28.716 13.181 44.69 16.054 4.83.868 9.876.753 14.754.638 1.594-.037 3.242-.075 4.848-.077 85.544-.13 186.67-.299 288.106-.562h.046c2.93 0 3.706.75 3.767 3.607l.003.118c.086 4.03.134 6.25-.702 7.103-.822.84-3.02.88-7.135.873m7.814-430.804c-.008.217-.008.217-.011 8.187l-.002 5.313c-.013 28.901-.02 57.081-.024 86.006-.001 2.958-.001 4.743-.605 5.34-.62.611-2.554.601-5.47.61q-32.069-.017-64.138-.027c-75.85-.024-154.284-.05-231.424-.262h-.253c-11.296 0-22.63 2.121-36.7 6.865-20.824 7.02-39.651 17.753-55.957 31.906-17.954 15.583-31.988 33.735-41.711 53.953-7.046 14.65-11.978 29.701-14.66 44.736-2.972 16.675-3.197 34.548-.688 54.64.916 7.333 2.71 14.325 5.125 22.567.513 1.752.155 3.336-1.126 4.987-11.543 14.88-20.62 31.037-26.978 48.026-6.874 18.372-10.7 35.375-11.696 51.983-.448 7.46-.621 14.836-.744 23.616-.028 2.105-.814 2.89-2.894 2.89h-.003q-2.436 0-4.88.004c-1.55.005-3.093.01-4.654.007l-20.312-.002c-26.115-.003-52.232-.005-78.348-.02-2.604 0-4.325-.002-4.86-.525-.522-.51-.522-2.175-.523-4.694l-.023-142.058c-.02-103.47-.034-196.86-.05-315.57 0-2.859.04-4.64.592-5.285.477-.558 1.736-.619 4.296-.62q108.652-.026 217.307-.057l73.973-.017h6.84v-.24h45.368c82.25 0 167.305.006 250.958-.08h.016c1.742 0 2.84.287 3.455.903.614.617.886 1.701.879 3.515-.046 12.71-.066 13.195-.075 13.403m-603.13 765.876c.032-.115.125-.466 1.599-.466.704.011 1.412-.003 2.117-.008q1.014-.008 2.028-.009c25.718-.004 51.437-.027 77.156-.05 70.082-.06 142.55-.129 213.822.212l.49.002c19.36 0 38.29-5.522 59.512-17.353 16.024-8.932 30.125-20.978 41.912-35.8 12.919-16.248 22.125-34.147 27.365-53.2a155.1 155.1 0 0 0 5.487-45.24c-.556-21.16-5.441-41.386-14.521-60.114-10.627-21.919-25.905-40.43-45.411-55.022-18.44-13.792-39.002-22.816-61.114-26.82-2.91-.526-5.93-.482-8.848-.438-.827.012-1.66.005-2.473.024-82.546-.059-165.091-.1-247.637-.144l-41.272-.022c-.806 0-1.613-.012-2.42-.022-1.8-.026-3.662-.05-5.502.047-1.08.053-1.79-.09-2.17-.456-.388-.372-.57-1.093-.557-2.207l.015-1.734c.02-2.859.034-4.75.5-5.198.347-.334 1.54-.295 3.189-.245.807.025 1.756.054 2.87.054h.035c38.03-.023 76.062-.02 114.092-.018l38.93.002v-.095c12.606 0 25.213.012 37.82.022 34.862.033 70.908.065 106.362-.145h.466c9.887 0 19.785 1.864 31.098 5.855 28.87 10.186 53.198 27.2 72.304 50.565 14.4 17.61 24.915 38.62 31.25 62.446 4.21 15.826 5.222 33.104 3.283 56.024-2.036 24.086-10.404 47.51-24.87 69.617-13.935 21.296-32.011 38.541-53.73 51.252-13.125 7.683-27.688 13.553-43.287 17.45-5.642 1.41-10.738 2.095-15.575 2.095h-.08c-68.754-.107-138.66-.123-206.266-.139q-46.296-.007-92.592-.028h-.005c-.526 0-1.092.053-1.64.106-2.286.22-3.405.183-3.807-1.09-1.124-3.567-.58-7.248.076-9.71M1956.36 826.47l-.006.363c-.078 3.827-.12 5.937-.961 6.733-.861.813-3.063.811-7.063.811l-63.213-.029c-76.28-.03-155.157-.062-232.736-.199-11.283-.02-22.053-4.139-32.116-8.356-35.482-14.868-61.148-40.64-76.285-76.603-4.84-11.496-7.97-24.202-9.572-38.842-2.254-20.61.478-41.164 8.35-62.835 8.249-22.702 21.916-42.176 40.623-57.879 18.556-15.575 38.674-25.433 59.797-29.298 6.204-1.136 12.577-1.45 18.938-1.45 4.008 0 8.012.124 11.962.248 2.05.064 4.097.128 6.138.175 15.266.352 30.773.155 45.772-.037 13.529-.173 27.518-.35 41.27-.124 2.087.034 4.174.081 6.25.128 8.669.198 16.858.383 24.355-.344h35.867c39.455 0 78.296 0 117.138.003 5.165 0 5.369.194 5.45 5.167.006.237-.002.476-.007.715-.018.631-.036 1.284.11 1.947.303 1.363.247 2.312-.164 2.823-.466.58-1.53.861-3.368.84-19.428-.058-39.181-.045-58.282-.032-9.59.006-19.181.01-28.764.011q-28.865-.007-57.731-.022c-51.858-.026-105.483-.052-158.225.035-7.175.011-13.847 2.672-20.3 5.246-1.105.441-2.21.881-3.313 1.307-19.761 7.63-36.563 19.443-49.936 35.115-10.434 12.226-18.174 25.403-23.664 40.282-6.66 18.05-9.197 36.722-7.541 55.5 1.845 20.926 8.504 40.443 19.792 58.007 6.433 10.011 14.263 19.05 23.934 27.63 14.136 12.543 30.706 21.6 49.25 26.917 7.509 2.154 14.878 2.437 21.05 2.43 41.05-.049 82.1-.08 123.15-.112 55.82-.042 113.543-.086 170.314-.175 1.592.005 2.549.237 3.055.753s.717 1.487.682 3.151m-2.761-234.325c-1.834.137-3.782.27-5.68.27h-.044c-95.035-.13-196.232-.274-296.756-.469-3.387-.042-6.665.536-10.014 1.657-35.158 11.766-58.827 35.208-70.348 69.676-4.42 13.22-5.918 27.616-4.582 44.011 1.724 21.14 9.643 40.54 23.54 57.658 15.737 19.387 35.5 31.66 58.742 36.475 2.728.566 5.478.483 8.138.4a96 96 0 0 1 2.786-.057c67.878-.058 119.769-.124 168.253-.214 29.58-.055 59.654-.146 88.738-.233l34.352-.102c.323 0 .655-.013.99-.024 2.113-.072 3.435-.043 4.015 1.436 1.073 2.737 1.134 6.051.176 9.584-.126.464-.542.566-2.03.501-.272-.013-.541-.027-.787-.022-10.47.085-19.268.143-28.176.145-30.693.013-61.387.01-92.08.008h-31.774v-.192h-.9q-17.927 0-35.853-.008c-36.88-.012-75.017-.024-112.525.083h-.102c-6.438 0-12.331-1.706-19.19-4.266-26.967-10.069-48.064-28.067-62.704-53.492-10.823-18.797-15.697-39.794-14.904-64.193.417-12.818 3.343-25.92 8.945-40.058 7.945-20.045 21.064-36.715 40.106-50.96 11.382-8.516 25.078-14.776 41.872-19.139.808-.21 1.729-.174 2.705-.133.402.018.783.056 1.199.034q130.194-.05 260.39-.095l37.198-.012q.521-.001 1.042-.005l.207-.002c4.058-.03 6.59.03 7.503 1.033.919 1.01.73 3.617.31 7.79-.198 1.964-.971 2.782-2.758 2.915m2.728 17.26c.102 1.162-.042 1.94-.44 2.371-.428.466-1.306.693-2.682.693h-.06c-12.406-.058-25.02-.034-37.216-.01-7.352.013-14.707.021-22.054.024q-42.5-.02-85.001-.046c-51.101-.03-102.204-.06-153.307-.063-10.327 0-19.18 4.845-27.361 9.806-18.222 11.05-30.677 26.493-37.021 45.904-9.193 28.124-5.541 54.473 10.852 78.315 11.29 16.421 26.558 27.541 46.67 33.991 2.23.715 4.466.814 6.363.814h.038l118.79-.096q87.114-.067 174.228-.143 1.131-.002 2.084-.013c2.965-.024 4.755-.04 5.39.596.71.716.682 2.848.632 6.718q-.015.941-.024 2.031c-.016 1.646-.771 2.361-2.528 2.393l-.582.01c-.768.015-1.535.03-2.302.03l-54.031-.028a525497 525497 0 0 0-243.133-.089c-3.888 0-7.5-1.378-10.994-2.71-.853-.325-1.701-.649-2.552-.954-16.348-5.848-30.34-15.577-41.588-28.915-9.311-11.04-15.495-22.499-18.903-35.03-4.36-16.023-5.367-28.686-3.275-41.058 2.87-16.962 7.223-29.189 14.11-39.648 11.257-17.089 24.586-28.995 40.75-36.396 10.372-4.75 19.065-6.879 28.113-6.879l.462.002c34.943.28 70.472.238 104.829.196 12.582-.015 25.164-.03 37.745-.03h.9v-.11l148.297.001c2.34 0 3.886 0 4.334.46.456.468.458 2.06.459 4.468q-.001.54-.02 1.08c-.02.752-.04 1.531.028 2.314m.065 158.604c.002 1.431-.208 2.31-.662 2.763-.447.446-1.267.646-2.66.646h-.038c-38.417-.1-78.417-.149-122.082-.149l-6.784.001c-2.506 0-3.91-.81-5.178-2.987-9.84-16.877-22.691-32.3-38.193-45.84-10.283-8.984-22.032-17.017-34.922-23.874-11.607-6.177-23.722-11.157-36.005-14.803-14.961-4.442-28.672-6.792-41.914-7.186-12.27-.365-25.432-.407-38.546 1.738-9.452 1.547-19.31 3.89-30.137 7.163-1.86.562-2.37.26-2.481.153-.086-.08-.343-.449-.027-1.747 2.579-10.612 6.75-24.268 16.2-35.759 10.005-12.165 22.798-20.873 38.022-25.88 1.34-.44 2.955-.402 4.518-.365.457.011.912.022 1.36.022h.007c41.06-.016 82.119-.013 123.178-.014h23.995v-.29h35.669c36.568 0 73.135-.003 109.702.008 3.443 0 5.52.001 6.253.743.724.735.723 2.707.72 6.321l-.014 23.92c-.024 37.828-.05 76.944.019 115.416M1352.85 1171c.239-1.05.655-1.398 1.714-1.427l1.132-.034c1.389-.04 2.825-.084 4.23-.085q33.18-.022 66.363-.049c73.482-.059 149.464-.12 224.196-.024h.087c14.689 0 27.676-4.797 38.444-9.495 13.287-5.794 25.872-14.565 37.405-26.069 14.159-14.123 24.659-31.127 31.21-50.54 5.76-17.072 7.787-34.896 6.024-52.98-1.565-16.057-6.157-31.524-13.648-45.969-10.381-20.019-25.09-36.458-43.716-48.865-12.262-8.167-26.016-14.236-40.878-18.038-1.251-.32-2.55-.295-3.805-.272q-.48.01-.954.012c-44.705-.008-89.41-.007-134.113-.008h-15.866v-.082h-22.156c-42.52-.004-85.033 0-127.548-.003l-.697.001c-1.53 0-3.106.004-4.641-.079-2.03-.11-2.777-.906-2.854-3.037l-.01-.286c-.145-3.992-.225-6.19.57-7.016.802-.832 3.035-.832 7.096-.832q34.591 0 69.185.007c73.376.014 149.245.028 223.868-.167h.194c10.89 0 21.785 2.412 34.259 7.586 20.538 8.514 37.913 20.761 51.645 36.401 16.169 18.415 27.02 39.161 32.256 61.66 3.02 12.988 4.147 23.58 3.543 33.334-.885 14.294-2.221 26.238-5.862 38.068-5.884 19.116-15.095 36.128-27.377 50.564-15.538 18.262-35.046 31.9-57.984 40.537-11.486 4.325-23.796 6.428-37.625 6.382-72.33-.163-145.872-.184-216.991-.204q-34.508-.01-69.015-.025l-.823-.002c-3.697-.024-5.767-.565-6.708-1.754-.961-1.213-1.007-3.437-.15-7.21m143.8-202.242h.025c2.733 0 4.24.763 5.747 2.907 17.809 25.341 40.158 45.271 66.429 59.236 16.476 8.76 33.887 15.021 51.75 18.616 14.91 3.001 30.89 3.986 48.853 3.01 14.515-.788 27.564-3.055 39.893-6.927 2.14-.672 2.82-.627 3.017-.469.186.151.369.775.185 2.897-2.722 31.121-19.145 53.717-48.815 67.16-4.108 1.86-8.59 2.778-13.236 2.786-27.162-.07-54.65-.086-81.76-.086-10.57 0-21.084.002-31.497.004l-30.94.005v-.055l-35.428.001c-37.408 0-74.814.002-112.221-.007-2.775 0-4.61 0-5.195-.582-.577-.572-.578-2.282-.58-5.113q-.043-68.451-.061-136.904c0-3.17-.001-5.083.67-5.736.674-.658 2.635-.658 5.946-.659l14.665-.002c40.167-.004 81.702-.01 122.553-.082m-143.36-20.87c.214-.702.797-.774 2.449-.633.378.033.78.051 1.137.065 16.369-.03 32.738-.03 49.107-.03l10.578-.002q25.353-.002 50.706.001c59.866.002 121.77.01 182.654-.13h.13c7.043 0 13.715 1.3 20.392 3.971 23.325 9.338 40.182 24.308 51.535 45.766 9.285 17.548 13.133 34.667 11.765 52.335-1.734 22.41-10.105 42.248-24.88 58.966-9.135 10.336-20.558 18.624-33.95 24.633-7.79 3.495-14.575 5.125-21.343 5.125h-.124c-36.744-.109-74.101-.097-110.23-.08q-18.249.005-36.5.006h-.9v.071l-25.796-.002c-40.836-.004-83.06-.007-124.59.063h-.023c-2.241 0-2.55-.552-2.584-2.727l-.004-.26c-.054-3.494-.088-5.604.625-6.329.708-.72 2.787-.723 6.232-.727h.077q79.626-.097 159.253-.202l45.5-.059c8.084-.01 16.167-.04 24.25-.07 9.962-.036 20.097-.073 30.27-.073 9.593 0 19.222.032 28.77.13 11.478.088 22.684-3.616 35.23-11.75 18.324-11.879 30.685-28.91 36.742-50.622 4.358-15.62 4.01-31.695-1.031-47.774-7.852-25.043-24.255-43.436-48.752-54.67-6.715-3.08-12.735-4.516-18.936-4.516h-.083c-91.587.193-184.71.15-274.765.11l-17.445-.007h-.003c-.54 0-1.118.06-1.68.116-2.262.227-3.377.198-3.813-1.069-.981-2.84-.97-6.349.03-9.627m-.451-16.28c.009-2.183.014-3.625.443-4.037.455-.437 2.067-.438 4.299-.439q26.164-.013 52.329-.016c31.074-.006 63.207-.013 94.81-.063q14.127-.021 28.253-.033c37.747-.034 76.778-.07 115.163-.543 12.348-.15 24.109 2.415 35.958 7.852 35.057 16.085 57.812 43.808 67.632 82.402 3.516 13.825 3.87 28.596 1.114 46.486-2.096 13.6-7.158 27.226-15.477 41.66-6.503 11.281-15.744 21.477-29.083 32.086-11.346 9.022-24.142 15.635-39.12 20.216-5.264 1.611-9.647 2.367-13.88 2.342-38.36-.112-77.363-.103-115.083-.094q-15.789.005-31.58.006v-.046l-23.855.001c-41.384-.003-84.176.003-126.264-.05h-.01c-.532 0-1.11.067-1.668.131-2.076.238-3.093.23-3.486-.87-1.02-2.859-1.024-6.424-.018-10.037.11-.393.373-.549 1.154-.549.27 0 .603.02 1.014.053.363.03.715.058 1.037.058h.008c14.122-.02 28.247-.02 42.369-.02l14.83.001c20.135-.002 40.27-.016 60.405-.029 56.957-.037 115.855-.077 173.78.156l.325.001c13.906 0 26.919-3.6 39.773-11.003 27.76-15.987 45.569-40.067 52.934-71.57 6.333-27.098 2.07-52.725-13.035-78.347-11.107-18.843-27.042-33.134-47.36-42.475-11.2-5.149-23.01-7.654-36.093-7.654h-.267c-71.102.186-143.4.115-213.314.047-22.012-.02-44.023-.042-66.036-.057-2.52 0-4.622-.015-6.618-.047-2.71-.043-4.347-.069-4.873-.609-.527-.54-.52-2.184-.51-4.91m603.354 308.936.008 62.365c0 2.303.022 4.606.044 6.91.022 2.26.043 4.52.044 6.778 0 4.645-.433 5.074-5.155 5.095-12.923.06-26.17.064-39.37.012-17.406-.067-34.811-.148-52.216-.228-28.525-.132-58.02-.269-87.03-.34-15.24-.037-30.615-.048-45.9-.048-12.175 0-24.293.006-36.226.013-11.83.008-23.661.016-35.49.016v-.182h-.898c-18.193 0-36.69.034-54.58.07-44.195.082-89.897.166-134.838-.263-9.945-.095-20.055.044-29.83.18-16.7.228-33.97.465-50.934-.46-4.578-.25-9.206-.025-13.682.193-4.481.218-9.114.443-13.656.188-2.976-.168-3.702-.906-3.697-3.763l.017-10.35c.065-41.345.069-43.819-.08-91.965-.004-1.5.249-2.485.773-3.012.722-.724 2.122-.727 3.895-.722h.154c65.32.021 131.734.011 195.963.003l31.606-.005c6.86.003 13.705.01 20.557.022 17.854.03 36.319.06 54.479-.139 5.91-.065 11.632-1.754 17.165-3.389 1.81-.534 3.683-1.087 5.523-1.57 22.395-5.884 43.48-17.078 62.673-33.275 20.844-17.59 36.595-38.918 46.813-63.39 10.552-25.269 14.904-52.384 12.935-80.593-.845-12.11-3.085-23.627-6.658-34.226-.996-2.953-.612-4.795 1.522-7.298 19.94-23.394 33.476-49.747 40.232-78.326 3.787-16.015 5.37-29.177 4.985-41.42-.038-1.215.172-2.044.643-2.529.487-.502 1.354-.747 2.65-.747h.005c35.329.016 70.472-.018 104.46-.098h.019c1.155 0 1.948.231 2.423.706.545.546.785 1.521.779 3.163-.046 13.337-.051 26.898-.057 40.012l-.026 50.822c-.022 44.113-.046 88.226-.05 132.34-.006 64.346-.001 100.451.006 149.45m9.399-489.097c-.008-35.668-.056-71.934-.103-107.005-.032-24.486-.065-48.973-.085-73.459l-.141-166.82c-.005-5.972-.606-6.589-6.428-6.598q-93.068-.143-186.133-.269-211.623-.29-423.246-.568c-3.102 0-4.808-.007-5.841 1.027-1.051 1.05-1.051 2.781-1.051 6.23v460.55l.003 455.794c0 .971.01 1.943.02 2.915.015 1.376.029 2.752.015 4.127-.014 1.311.3 2.268.964 2.925.667.661 1.642.957 2.962.94 2.015-.046 4.074-.019 6.064.006 1.235.015 2.47.032 3.706.032q.289 0 .577-.002c12.908-.055 25.816-.136 38.725-.216 28.467-.177 57.905-.36 86.854-.262 28.12.095 56.708.024 84.355-.044l10.93-.027c64.797-.155 130.136-.232 191.506-.298 56.902-.06 124.054-.115 190.686-.058h.013c2.072 0 3.377-.385 4.232-1.246.845-.85 1.215-2.12 1.2-4.118-.06-8.162-.018-16.464.023-24.492.024-4.83.048-9.66.052-14.489.015-21.11.029-34.226.04-45.542.02-17.889.033-31.282.04-64.653.006-30.907.003-61.814 0-92.72q-.006-44.487-.001-88.976.01-45.946.032-91.895c.02-50.263.04-100.526.03-150.789"/><path d="M1309.182 587.457c.006 35.944.012 73.112-.025 109.668-.036 34.428-.123 69.433-.21 103.285q-.062 24.207-.117 48.414c-.007 3.6-.005 7.198-.003 10.797l-.025 4.955q-.001 23.885-.007 47.772c-.007 35.555-.014 72.321.016 108.481.024 29.23.077 58.457.129 87.686.044 24.102.087 48.204.114 72.305.019 15.585.042 25.443.062 33.33.038 16.01.057 24.046-.038 55.983-.011 3.846-.035 7.693-.06 11.54-.072 11.437-.148 23.265.139 34.902.035 1.43-.136 2.262-.553 2.697-.424.443-1.262.652-2.72.678-29.106.524-58.707.286-87.333.055-15.963-.128-32.305-.26-48.632-.26-7.12 0-14.236.025-21.317.086-13.231.115-26.685.1-39.696.085-7.887-.01-15.773-.018-23.658 0h-.088c-2.377.007-3.951.01-4.425-.464-.496-.496-.495-2.146-.495-4.644.01-47.917.023-82.304.035-116.8.012-33.939.023-67.984.035-115.126q.002-4.658.009-9.317c.013-9.855.027-20.046-.075-30.07-.027-2.476.69-3.598 2.843-4.449 15.79-6.248 30.544-14.654 43.85-24.984 13.292-10.317 24.959-21.928 34.675-34.509 11.087-14.356 20.144-30.665 26.92-48.477 4.224-11.1 7.322-22.99 9.47-36.347 2.067-12.845 2.845-25.79 2.314-38.474-1.315-31.38-10.204-61.146-26.422-88.469-14.278-24.058-33.265-44.093-56.43-59.55-12.741-8.5-23.795-14.346-34.786-18.397-2.295-.846-2.401-2.21-2.4-4.749.007-20.233 0-40.466-.006-60.7l-.007-21.373c-.008-36.2-.017-62.043-.025-86.789-.011-30.604-.02-59.53-.03-104.297 0-2.232.035-3.73.507-4.2.46-.458 1.86-.482 4.108-.482 53.11-.014 108.006-.046 163.16-.098l4.546-.004c17.379-.014 35.349-.029 53.025-.21 1.404-.019 2.354.236 2.892.77.698.692.837 1.98.835 3.832l-.04 31.497a57620 57620 0 0 0-.063 80.834q-.006 31.793.002 63.587m-300.642 572.06c.005 46.314.01 93.554.01 152.003 0 .881.007 1.677.014 2.397.025 2.93.04 4.696-.506 5.283-.53.567-2.19.58-4.94.602-1.035.01-2.236.018-3.63.057-.811.02-1.373-.12-1.677-.424-.294-.294-.43-.83-.407-1.593a61 61 0 0 0 .007-2.5c-.004-.419-.01-.838-.01-1.257V863.198h-.04v-34.94c-.001-150.809-.001-259.77.05-415.172 0-.557-.073-1.146-.144-1.715-.271-2.182-.244-3.198 1.154-3.76 2.839-1.144 6.126-.736 9.254-.124.222.044.812.16.848 2.231.042 2.318.06 4.103.06 5.787l-.023 228.97c-.012 108.981-.024 214.198-.03 338.11-.002 68.946.004 122.296.01 176.931m-21.374 156.88c.108 1.334-.055 2.213-.497 2.687-.48.515-1.471.746-3.132.727q-1.044-.012-1.911-.014c-2.52-.013-4.186-.02-4.606-.454-.357-.368-.324-1.69-.278-3.52.02-.827.044-1.79.044-2.918a13192 13192 0 0 0-.043-30.583c-.035-14.392-.048-20.35.14-50.457.22-34.602.246-71.42.085-119.379-.085-25.546.004-51.52.089-76.64.062-17.935.125-36.48.125-54.72 0-24.7-.102-49.814-.2-74.1-.044-11.222-.09-22.445-.124-33.667-.007-2.077-.005-4.154-.004-6.232l.002-1.98h.118v-.899q-.001-8.412-.007-16.824c-.01-12.419-.017-25.259.017-37.889.025-9.225.079-18.45.133-27.675.08-13.617.162-27.698.145-41.549-.052-40.78-.141-82.245-.227-122.343-.07-32.45-.14-64.9-.19-97.352l-.051-32.689c-.04-25.758-.057-37.19-.137-77.57-.003-1.289.193-2.076.618-2.477.399-.378 1.14-.528 2.267-.463 1.795.104 3.199.074 4.328.048 1.409-.03 2.427-.054 2.748.261.536.524.535 2.794.533 6.554l-.004 893.343c0 .937-.022 1.873-.045 2.811-.046 1.952-.095 3.97.064 5.962m-20.702-.31c0 1.64-.234 2.631-.74 3.12-.5.482-1.44.67-3.046.614-.875-.03-1.651-.05-2.338-.066-2.19-.05-3.637-.085-4.04-.489-.39-.39-.37-1.776-.342-3.873.009-.669.019-1.425.019-2.279-.027-333.152-.046-561.232-.065-894.384 0-.834.019-1.67.037-2.506.04-1.779.08-3.619-.061-5.437-.102-1.307.079-2.192.552-2.705.523-.566 1.54-.83 3.204-.83h.771c2.938 0 4.724.028 5.35.664.668.676.668 2.646.668 5.907.004 138.646.004 241.837.004 368.227v81.894h-.051v53.584c-.001 138.854-.002 248.53.078 398.558M707.323 863.878h-.146V759.161q.005-135.793-.003-271.585v-1.869c-.003-33.726-.003-33.726-.074-56.936l-.053-17.464c-.005-1.64.22-2.599.73-3.11s1.457-.745 3.083-.733c39.674.092 80.01.08 119.02.065l29.023-.008c27.215-.005 55.357-.01 83.037-.13 1.539.005 2.492.231 3.01.75.533.528.77 1.517.769 3.204-.072 109.514-.071 165.677 0 273.161.003 2.786-.941 4.104-3.74 5.225-27.445 10.995-51.24 27.677-70.72 49.584-18.105 20.36-31.27 43.803-39.128 69.68-4.145 13.646-6.633 26.497-7.606 39.285-.841 11.07-.735 22.93.336 37.328.708 9.514 3.054 19.05 5.198 27.24 5.014 19.148 13.098 37.44 24.029 54.363 15.323 23.724 35.385 43.247 59.628 58.028 10.374 6.326 20.098 11.092 29.728 14.57 2.105.76 2.183 1.936 2.144 4.124-.004.243-.01.487-.008.73.022 15.361.02 30.724.02 46.085v18.577c.008 50.34.017 82.525.026 117.755l.02 87.684c.002 2.543.002 4.077-.486 4.554-.5.487-2.073.491-4.708.485l-227.36-.11c-2.938-.003-4.712-.003-5.3-.576-.573-.56-.572-2.28-.57-5.127v-.083c.015-28.43.03-48.588.046-66.992.024-28.283.044-52.433.05-96.125.012-66.57.01-133.144.007-199.715Zm321.192-417.638v867.35q0 1.013-.01 2.028-.01 1.268-.008 2.533c.005 1.434-.58 1.56-1.23 1.567-2.66.033-5.26.051-7.817-.053-1.09-.044-1.265-.376-1.253-2.396.069-12.986.115-25.973.153-38.96l.028-9.107c.036-11.276.074-22.937.066-34.407-.004-5.468-.013-8.574-.024-10.315-.005-.873-.01-1.405-.015-1.716a3 3 0 0 0-.022-.382q.004-.106.004-.19l.02-1.71c.017-1.74.046-4.846.09-10.313.173-20.9.07-42.152-.028-62.702-.062-12.992-.128-26.426-.122-39.638.006-16.587.078-33.454.148-49.766.07-16.83.146-34.234.148-51.352 0-9.792-.1-19.744-.195-29.37-.135-13.46-.275-27.38-.14-41.065.297-30.026.263-60.55.23-90.07q-.016-12.571-.02-25.144c-.003-10.3.064-20.775.128-30.906.123-19.346.25-39.35-.097-59.024-.312-17.69-.3-35.677-.287-53.073.005-7.444.01-14.888-.008-22.33-.181-71.523-.154-116.019-.12-172.352.013-21.443.027-44.649.03-71.773 0-.326-.015-.673-.032-1.027-.112-2.279.065-3.016 1.386-3.19l.852-.117c2.693-.373 5.475-.76 7.828.607.443.258.468.815.356 2.047-.031.35-.064.713-.063 1.063.026 11.751.025 23.502.024 35.253m21.523.271c-.002 5.625-.005 12.58-.005 28.955l-.021 836.46c0 3.964-.25 6.631-1.488 7.681-1.26 1.07-4.04.86-8.12.176-1.305-.219-1.533-.629-1.547-1.467-.02-1.098-.022-2.199-.022-3.298l-.001-451.727h-.055v-32.8c0-151.944 0-261.725.05-418.15 0-.507-.07-1.055-.137-1.586-.284-2.236-.168-2.977 1.113-3.255 3.204-.69 6.569-1.227 9.416.451.944.557.94 1.558.855 3.144-.02.36-.04.715-.04 1.055.007 21.763.004 26.887.002 34.361m20.008 330.095v86.485h-.013l-.001 450.064c0 3.766-.424 5.656-1.462 6.528-1.067.895-3.11.972-7.048.274-1.531-.27-1.581-.99-1.554-2.734l.006-.489q.026-11.417.058-22.837c.045-16.427.09-33.414.094-50.122l.018-70.28c.03-129.04.057-230.918.065-371.42.004-57.45-.03-116.166-.102-174.514-.018-14.375-.086-28.989-.154-43.122-.125-26.475-.253-53.85-.051-80.77.145-19.304-.018-28.08-.161-35.825-.172-9.283-.321-17.3.155-40.814.099-4.88-.061-9.836-.215-14.628l-.05-1.579c-.047-1.474.199-2.455.752-3 .489-.483 1.306-.72 2.488-.72q.219 0 .456.011c1.398.063 2.545.043 3.469.028 1.382-.025 2.38-.042 2.702.273.554.545.553 2.995.553 6.386-.006 136.68-.006 238.791-.005 362.805m249.324 261.774q0-27.391.009-54.782c.007-23.606.015-47.21.004-70.817l-.002-4.034c-.042-94.588-.087-192.395-.178-288.594a14628 14628 0 0 0-.153-48.16c-.072-16.95-.146-34.478-.154-51.717-.012-25.978.019-36.144.056-47.916.029-9.543.062-20.186.079-41.177.003-4.294-.025-8.588-.053-12.882-.033-5.286-.068-10.753-.042-16.127.009-1.95-.417-3.249-1.34-4.084-.87-.787-2.115-1.078-3.806-.902-.591.065-1.204.046-1.854.025q-.474-.017-.946-.02-35.17-.043-70.341-.09c-52.614-.07-105.23-.14-157.842-.179-81.684-.06-163.366-.093-245.05-.126l-74.257-.03c-6.49-.006-12.983.002-19.474.007-13.705.014-27.878.026-41.815-.048-2.11-.006-3.523.43-4.43 1.384-.86.907-1.225 2.262-1.118 4.141.128 2.23.12 4.52.112 6.733l-.003 1.085c-.038 19.464-.093 28.073-.141 35.67-.057 9.021-.106 16.811-.112 39.766-.025 90.928-.021 181.857-.016 272.785l.003 105.185h-.108v198.621l.017 193.622c.005 23.27.01 46.541-.012 69.812-.002 1.755.09 3.422 1.216 4.542.822.818 2.045 1.2 3.845 1.2h.095c34.976-.256 69.109-.365 101.454-.384 31.195.003 62.914.047 93.587.09 32.56.045 66.24.08 99.345.09 26.815-.002 54.08-.072 80.446-.14 20.593-.053 41.887-.109 62.829-.13 69.538-.072 123.183-.07 173.937.015h.029c2.22 0 3.629-.418 4.562-1.354.927-.93 1.337-2.333 1.33-4.552-.026-6.898.035-13.915.093-20.7.064-7.34.13-14.93.086-22.396-.094-16.402-.038-21.815.007-26.165.055-5.284.095-9.1-.156-28.763-.242-18.914-.072-38.154.092-56.76.092-10.583.189-21.526.209-32.29.038-21.05.014-42.45-.01-63.148a36612 36612 0 0 1-.03-36.306"/></g></svg>