<svg xmlns="http://www.w3.org/2000/svg" width="2048" height="1920" viewBox="0 0 2048 1920"><defs><clipPath id="clip_1"><path d="M0 0h2048v1920H0Z"/></clipPath></defs><g clip-path="url(#clip_1)"><path fill="#231f20" d="M204.828 728.868c-6.153.283-9.79 3.56-9.812 9.58-.023 6.286 3.418 10.482 9.668 10.294 5.743-.171 9.09-4.26 9.08-10.061-.012-5.908-3.587-9.334-8.936-9.813m1643.586 10.4c.017-6.46-2.984-10.112-8.756-10.45-6.172-.361-10.028 3.243-10.157 9.763-.117 5.9 3.138 10.107 8.85 10.46 6.132.378 9.556-3.36 10.063-9.772m-211.91 351.196c1.83-.69 2.525-.715 2.814-1.093 19.444-25.362 37.586-51.745 54.816-78.854 3.207-5.045 1.34-6.233-3.327-6.328-16.65-.34-33.3-.713-49.95-1.171-3.485-.096-4.385 1.762-4.38 5.049.045 27.182.026 54.365.026 82.397m-1232.65-37.466h.033l.001-43.092c0-3.481.065-6.996-4.635-6.934-18.377.244-36.756.437-55.132.75-4.6.078-5.324 2.284-2.938 6.409 17.775 30.722 36.956 60.41 57.666 88.974.801 1.104 2.32 2.553 3.292 2.392 2.232-.37 1.7-2.74 1.702-4.492.018-14.67.01-29.338.01-44.007M1492.85 234.422c-.245 1.247-.592 1.899-.427 2.33 10.291 26.878 20.714 53.699 30.88 80.63 2.246 5.95 5.405 3.84 8.838 2.08 22.771-11.674 45.545-23.343 68.293-35.07 1.661-.856 4.475-.824 4.344-3.538-.117-2.418-2.736-2.9-4.416-3.918-23.063-13.991-47.34-25.033-72.699-33.331-11.427-3.738-22.863-7.607-34.813-9.183M429.282 279.714c27.735 13.977 53.712 26.977 79.588 40.199 4.341 2.218 6.006.633 7.586-3.545 9.762-25.812 19.653-51.568 29.59-77.304 1.746-4.522 1.31-6.387-3.8-4.994-10.282 2.8-20.717 5.007-30.915 8.104-28.28 8.589-55.096 20.857-82.049 37.54m1.978 253.419c1.348-1.13 1.96-1.378 2.13-1.82 20.922-54.033 41.742-108.11 62.804-162.081 2.227-5.707-.964-6.93-4.409-8.673-21.302-10.778-42.606-21.551-63.904-32.34-10.84-5.49-21.669-11.006-34.155-17.351zm1214.37-222.008c-4.083 1.875-6.448 2.865-8.736 4.027-29.32 14.889-58.548 29.985-88.005 44.559-6.023 2.979-7.174 5.622-4.573 12.304 19.247 49.447 38.051 99.089 57.15 148.602 1.508 3.91 2.335 8.485 6.685 12.867zM241.66 711.412c2.015-.677 2.922-.774 3.607-1.241 44.568-30.324 89.081-60.741 133.716-90.953 5.62-3.804 3.008-5.372-.759-7.81-38.566-24.955-77.105-49.958-115.587-75.061-3.772-2.461-5.817-2.82-7.156 2.585-13.972 56.419-19.018 113.607-13.822 172.48m1402.44-142.375c2.297-.605 3.195-.62 3.858-1.048 37.858-24.448 75.644-49.027 113.607-73.29 4.765-3.046 4.407-5.97 2.582-10.414-19.43-47.331-42.867-92.061-75.009-131.151-1.919-2.334-3.426-5.534-7.505-5.84-12.497 73.833-24.94 147.347-37.534 221.743m156.727 105.624c1.236-45.05-5.625-88.96-17.083-132.173-1.232-4.645-1.553-9.858-8.652-5.217-38.227 24.99-76.66 49.628-115.07 74.3-3.917 2.517-5.21 4.219-.418 7.47 44.865 30.439 89.656 61 134.415 91.616 4.892 3.347 6.756 1.676 6.79-3.86.064-10.712.018-21.424.018-32.136m-386.006 664.632c-9.25-1.367-18.552-2.734-27.852-4.116-51.837-7.701-103.672-15.426-155.52-23.038-2.152-.316-4.992-2.196-6.518.018-1.888 2.737 1.06 5.056 2.245 7.249 23.944 44.333 48.107 88.532 71.901 132.955 3.47 6.479 5.62 5.574 9.873 1.066 33.646-35.657 67.48-71.114 101.213-106.677 1.775-1.871 4.302-3.244 4.658-7.457M395.173 570.104l-38.462-228.082c-2.18 1.718-3.22 2.293-3.963 3.157-35.01 40.763-60.336 87.812-79.837 138.706-2.225 5.806.62 7.508 4.282 9.875 25.584 16.532 51.092 33.196 76.652 49.769 13.151 8.527 26.358 16.954 41.328 26.575M612.824 1341q-.346 1.31-.694 2.618c2.52 2.46 5.08 4.876 7.554 7.385 35.401 35.889 70.896 71.675 106.075 107.808 5.513 5.662 7.921 5.346 11.71-1.72 24.658-45.997 49.683-91.772 74.516-137.664 1.231-2.276 3.278-4.386 2.461-8.591zM635.29 226.96c-.87 3.28.73 4.949 1.687 6.695 29.59 53.96 59.31 107.842 88.758 161.889 3.055 5.606 5.538 5.202 10.136 2.355 37.571-23.266 75.176-46.474 113.025-69.221 7.313-4.396 6.351-6.726.862-11.966-47.402-45.242-103.027-72.043-165.279-84.113-16.304-3.162-32.708-5.652-49.189-5.64m773.124 1.254c.33-3.123.217-3.318-5.46-3.344-20.507-.095-40.84 2.088-61.008 5.878-60.844 11.432-115.538 36.803-162.05 80.86-5.316 5.037-5.516 7.366 1.053 11.335 41.06 24.807 81.948 49.94 122.756 75.214 5.27 3.263 7.614 2.144 10.62-3.208 30.262-53.898 60.774-107.64 91.21-161.428 1.037-1.834 2.013-3.707 2.88-5.307M851.844 627.15c1.225-1.704 1.868-2.294 2.153-3.04 23.396-61.232 46.751-122.481 70.166-183.705 1.294-3.383 1.16-6.348-.35-9.633-10.5-22.823-21.047-45.594-34.47-66.728-3.154-4.965-5.52-6.166-10.845-2.851-40.469 25.194-81.088 50.117-121.814 74.839-5.315 3.226-5.737 5.644-2.678 11.217 26.112 47.566 51.9 95.332 77.79 143.035 6.566 12.1 13.153 24.189 20.048 36.866m189.617 195.323c15.872-10.261 30.64-16.708 46.948-18.375 3.38-.345 4.76-3.02 6.22-5.7 21.065-38.64 42.126-77.282 63.24-115.891 2.034-3.72 2.246-7.051.64-11.221-22.8-59.16-45.4-118.406-68.174-177.578-.868-2.256-.674-5.721-4.45-6.4-1.228 2.997-2.576 5.992-3.703 9.079-12.917 35.357-25.745 70.752-38.749 106.074-2.137 5.804-3.198 11.579-3.143 17.83.478 54.178.817 108.357 1.16 162.536.08 12.509.011 25.018.011 39.646m-91.49-329.781c-1.622 3.502-2.336 4.827-2.87 6.23-21.952 57.57-43.843 115.167-65.908 172.688-1.864 4.86-1.004 8.569 1.252 12.897 19.815 38.013 39.521 76.09 59.045 114.274 2.23 4.359 5.016 5.856 9.422 6.278 14.848 1.425 28.582 6.595 41.302 14.88 2.141 1.396 4.23 4.588 6.701 3.35 3.097-1.552 1.458-5.46 1.441-8.257-.417-66.454-.975-132.906-1.409-199.36-.025-3.817-.963-7.204-2.36-10.585-9.843-23.812-19.653-47.64-29.51-71.444-5.42-13.086-10.915-26.135-17.107-40.951m236.792 133.59c2.576-.412 3.061-2.738 4.025-4.515 31.67-58.361 63.247-116.78 95.1-175.026 3.086-5.643 1.483-7.648-3.087-10.427-43.497-26.455-86.96-52.977-130.21-79.883-6.062-3.771-9.032-2.447-12.44 3.2-10.929 18.107-19.792 37.313-28.04 56.91-2.285 5.425-2.543 9.922-.385 15.542 23.952 62.376 47.632 124.87 71.466 187.298.915 2.396 1.212 5.335 3.571 6.9m306.555 376.77c-30.517 0-61.035-.061-91.55.09-3.206.016-7.806-1.986-9.352 1.702-1.183 2.822 2.681 5.65 4.556 8.227 20.432 28.08 40.945 56.095 61.465 84.103 25.111 34.275 50.217 68.554 75.436 102.738 2.11 2.859 3.786 8.67 8.941 2.855 16.176-18.246 32.484-36.361 48.867-54.397 2.828-3.114 3.834-6.405 3.823-10.666-.112-41.96-.254-83.92.097-125.874.065-7.702-2.635-8.977-9.004-8.918-31.09.289-62.185.13-93.279.14m-945.825.02v-.045c-31.685 0-63.37.148-95.053-.13-5.989-.053-7.878 1.78-7.847 8.245.23 46.88.166 93.763.078 140.645-.009 4.848 1.044 8.77 4.266 12.443 13.352 15.218 26.603 30.543 39.601 46.102 3.846 4.604 6.014 4.687 9.678-.337 48.533-66.527 97.248-132.906 145.87-199.361 1.331-1.82 3.98-3.543 2.941-6.133-1.137-2.84-4.103-1.36-6.21-1.365-31.108-.093-62.216-.064-93.324-.064M532.986 653.38l-.457 2.346c2.682 1.7 5.348 3.43 8.05 5.096 30.133 18.573 60.255 37.166 90.413 55.694 71.277 43.79 142.611 87.478 213.78 131.466 5.202 3.214 7.491 2.562 10.934-2.453 9.87-14.375 22.72-25.182 38.234-31.945 5.53-2.411 5.93-4.831 3.142-10.105-17.348-32.82-34.487-65.765-51.514-98.775-2.024-3.924-4.535-5.884-8.617-6.464-17.394-2.47-34.765-5.131-52.146-7.707-68.96-10.22-137.92-20.443-206.883-30.643-14.973-2.215-29.957-4.342-44.936-6.51m1037.805-91.564 1.363-1.347-122.617-318.17c-2.552 4.16-4.01 6.389-5.326 8.71-30.909 54.558-61.67 109.21-92.85 163.592-4.244 7.402-3.867 10.585 3.55 15.095 67.73 41.19 135.204 82.857 202.763 124.367 4.331 2.66 8.743 5.172 13.117 7.753m-61.955 93.364c-4.417-2.473-7.488-1.162-10.474-.715-30.47 4.564-60.919 9.307-91.397 13.814-68.067 10.067-136.148 20.032-204.225 30.024-3.849.565-6.809 1.873-8.99 5.942-17.824 33.236-35.8 66.38-53.982 99.396-2.866 5.203-1.67 7.064 3.133 9.189 15.937 7.05 29.893 17.288 40.126 32.238 4.17 6.092 7.406 6.13 13.186 2.558 70.92-43.827 141.993-87.375 213.006-131.032 32.86-20.201 65.674-40.485 99.617-61.414m-917.57-416.235-123.902 321.38c4.562.823 6.575-1.803 8.903-3.23 69.793-42.768 139.482-85.73 209.385-128.293 6.368-3.877 6.82-6.651 3.243-13.052-23.522-42.091-46.685-84.41-69.968-126.651-8.97-16.274-17.948-32.543-27.662-50.154M511.04 694.33l-1.278 1.298c1.636 2.462 3.182 4.997 4.92 7.374 61.14 83.656 122.324 167.274 183.367 251.01 3.012 4.133 6.257 5.439 10.945 5.418 38.888-.173 77.778-.321 116.664-.006 7.35.06 8.004-2.92 6.713-9.297-3.314-16.372-3.21-32.894.04-49.218 1.314-6.593-.56-9.69-5.882-12.948-82.577-50.554-165.01-101.373-247.499-152.091-22.627-13.913-45.324-27.697-67.99-41.54m1019.584.555-1.446-1.438c-1.005.507-2.05.94-3.01 1.533-105.112 64.739-210.199 129.522-315.38 194.133-4.446 2.73-5.056 5.673-3.986 10.458 3.794 16.956 3.783 34.12.245 51.02-1.594 7.614.467 8.776 6.934 8.74 38.31-.214 76.622-.2 114.931.112 6.176.05 9.842-2.307 13.547-7.388 52.404-71.871 105.02-143.567 157.577-215.311 10.212-13.94 20.393-27.905 30.588-41.86m-1085.169-14.14c-.258 4.406-.423 5.917-.424 7.427-.083 87.629-.07 175.258-.37 262.885-.026 7.446 2.816 8.38 8.715 8.365 61.06-.166 122.12-.057 183.178-.171 3.532-.006 8.657 2.19 10.308-1.441 1.612-3.545-2.963-6.684-5.164-9.691-52.35-71.508-104.756-142.97-157.176-214.421-12.493-17.028-25.07-33.986-39.067-52.952m368.96-30.241c.84-3.656-1.074-5.45-2.17-7.467-31.535-58.013-63.207-115.941-94.527-174.085-3.459-6.421-6.103-4.902-10.704-2.07-62.738 38.635-125.576 77.086-188.378 115.605-9.785 6-19.514 12.109-29.269 18.168l.7 1.89zm408.45.583 327.408-48.475c-.77-3.315-2.939-3.846-4.6-4.866-71.328-43.784-142.716-87.458-213.935-131.442-5.519-3.408-7.573-2.226-10.469 3.145-23.925 44.38-48.12 88.597-72.19 132.892-8.448 15.547-16.769 31.173-26.214 48.746m370.906 31.547c-2.99.019-3.858 2.685-5.162 4.464a276456 276456 0 0 0-193.862 264.582c-1.319 1.802-3.994 3.5-2.827 6.18 1.223 2.807 4.14 1.352 6.251 1.355 62.818.1 125.637-.027 188.454.309 7.418.04 8.48-3.14 8.47-9.784-.129-85.83-.06-171.661-.123-257.492-.003-3.192.972-6.685-1.2-9.614m-562.423 1058.82 1.387.932c11.051-11.798 22.107-23.59 33.151-35.394 65.977-70.527 132.897-140.034 200.347-208.961 5.385-5.504 5.663-9.421 1.926-16.186-25.512-46.18-50.564-92.647-75.825-138.983-1.399-2.566-2.076-6.95-4.864-7.022-3.904-.101-3.618 4.914-4.684 7.707-46.45 121.623-92.756 243.309-139.067 364.992-4.168 10.953-8.249 21.943-12.37 32.915m-34.51-147.11 1.71-.245c.133-1.408.382-2.815.383-4.223.032-136.613.024-273.226.151-409.84.005-4.771-1.58-8.038-4.683-11.16-9.196-9.257-18.514-18.41-27.215-28.18-5.359-6.015-7.914-5.148-11.626 1.805-23.867 44.716-47.952 89.302-72.333 133.703-3.47 6.322-3.383 11.325-.876 17.85 24.27 63.172 48.233 126.478 72.312 189.734 14.032 36.864 28.116 73.705 42.177 110.556m267.27-591.256v.028c-22.468 0-44.936.162-67.399-.12-5.192-.066-8.292 1.469-11.033 6.395-4.976 8.94-10.309 17.796-16.534 25.768-5.16 6.61-4.877 9.598 2.431 13.984 39.35 23.62 78.413 47.778 117.544 71.81 68.045 41.79 136.12 83.529 204.01 125.603 6.06 3.756 8.625 1.569 12.865-2.813 5.043-5.212 2.251-8.365-.668-12.333-54.465-74.03-108.956-148.037-163.268-222.192-3.387-4.624-6.82-6.351-12.28-6.268-21.886.334-43.779.138-65.669.138m-389.498 39.024c-.719-1.003-1.56-2.213-2.439-3.392-6.98-9.376-13.508-19.112-18.943-29.575-2.398-4.62-5.276-6.201-10.25-6.18-44.629.205-89.259.202-133.888-.026-5.44-.027-8.867 1.682-12.229 6.348-21.004 29.154-42.364 58.016-63.566 87.009-35.515 48.566-70.889 97.25-106.637 145.62-4.497 6.087-2.237 9.422 2.121 12.523 3.206 2.283 5.902-1.005 8.542-2.626a556057 556057 0 0 0 210.783-129.507 95339 95339 0 0 0 121.037-74.493c2.11-1.302 4.977-1.95 5.47-5.701m165.616 552.496c4.007-2.783 4.458-5.936 5.508-8.69 35.584-93.292 70.834-186.732 107.046-279.748 5.895-15.144 6.386-26.493-2.15-41.154-23.625-40.571-45.29-82.435-67.553-123.895-2.906-5.411-4.754-7.268-9.643-1.71-8.638 9.822-17.855 19.1-27.233 28.135-4.72 4.547-6.157 9.507-6.147 16.134.18 122.818.154 245.636.172 368.454zm405.814-295.08c11.188 1.47 13.428-6.486 18.235-10.31 5.011-3.987 5.822-6.74-.9-10.858-105.483-64.625-210.739-129.671-316.213-194.314-15.053-9.225-10.14-9.806-22.527 2.915-2.899 2.977-5.32 6.646-8.592 9.009-6.297 4.55-5.596 8.923-2.09 15.309 26.55 48.38 52.81 96.942 79.008 145.538 2.22 4.117 4.767 6.156 9.277 6.812 56.148 8.172 112.267 16.573 168.4 24.876 26.213 3.877 52.438 7.668 75.402 11.023m-866.729 2.199c11.651-1.733 24.76-3.681 37.868-5.633 72.635-10.816 145.26-21.713 217.925-32.298 5.815-.847 9.035-3.376 11.873-8.666 23.676-44.134 47.564-88.14 71.504-132.114 10.797-19.832 10.917-19.758-4.199-36.123-9.72-10.524-9.718-10.52-21.663-3.16-85.168 52.478-170.329 104.965-255.509 157.418-23.419 14.42-46.92 28.688-70.298 43.182-1.929 1.196-5.524 1.308-4.863 5.336.65 3.964 11.614 12.275 17.362 12.058m428.222 442.47 1.421-1.437-155.415-408.446c-3.467 1.863-4.337 4.552-5.606 6.89-26.61 49.042-53.109 98.154-79.964 147.044-3.563 6.487-3.193 10.117 2.12 15.394 64.348 63.93 128.667 127.898 191.768 193.23 15.23 15.77 30.451 31.55 45.676 47.325M1637.067 655.87c-.325 3.035-.563 4.226-.564 5.417-.025 96.765.028 193.529-.17 290.293-.015 6.829 2.622 8.029 8.128 8.082 17.83.173 35.784-.507 53.445 1.54 18.44 2.138 28.52-4.451 36.962-22.64 24.82-53.472 45.978-108.085 57.556-166.632 1.362-6.887.426-10.911-5.683-14.96-34.666-22.97-68.989-46.526-103.439-69.866-14.98-10.15-29.985-20.26-46.235-31.234M403.708 807.942h-.372c0-47.183.02-94.366-.046-141.548-.004-2.884 1.551-6.88-1.402-8.374-2.737-1.384-5.142 1.957-7.492 3.549-46.856 31.74-93.65 63.585-140.565 95.229-4.49 3.029-6.017 5.849-4.876 11.827 12.456 65.28 34.093 126.988 62.732 186.088 2.532 5.225 5.478 6.87 10.724 6.694 23.594-.798 47.2-1.64 70.8-1.623 8.131.006 10.786-2.13 10.701-11.214-.44-46.872-.204-93.751-.204-140.628m764.678 118.516c.016-64.172-51.493-96.17-101.269-66.728-17.257 10.208-30.849 24.503-41.967 41.572-3.138 4.82-4.83 5.623-8.45.352-7.67-11.162-16.8-20.995-27.017-29.575-15.47-12.99-32.724-21.905-52.653-23.023-41.325-2.316-70.525 34.577-65.774 81.46 3.628 35.805 19.437 65.12 41.503 90.964 32.157 37.663 67.868 71.568 102.016 107.127 4.096 4.265 6.496 4.09 10.448-.165 10.72-11.541 21.917-22.58 32.912-33.832 27.79-28.438 56.85-55.613 80.474-88.291 17.758-24.563 29.213-51.935 29.777-79.861M1021.01 431.972c7.022-18.837 13.357-35.81 19.678-52.786 19.537-52.477 45.264-100.414 86.724-137.347 59.546-53.044 127.777-85.951 204.211-98.866 99.457-16.806 195.185-2.908 286.086 43.905 73.607 37.906 132.4 93.732 175.72 167.71 43.74 74.695 74.446 154.67 85.861 242.293 10.512 80.694 3.937 160.085-17.02 238.28-25.515 95.205-69.473 180.466-123.85 260.114-36.463 53.409-78.085 102.042-120.199 150.429-36.014 41.379-72.953 81.738-110.452 121.508-88.096 93.43-177.072 185.918-266.282 278.152-63.19 65.332-125.963 131.142-186.394 199.4-12.967 14.648-27.37 23.134-46.807 17.7-8.107-2.265-14.432-7.404-20.283-13.43-115.442-118.873-230.638-238.01-347.88-354.9-78.577-78.34-155.375-158.678-228.573-242.795-78.367-90.056-145.156-188.615-193.142-300.695-38.626-90.22-61.837-184.463-62.183-284.197-.369-106.737 26.376-205.657 76.727-297.658 52.133-95.261 126.211-163.935 223.781-200.693 141.451-53.291 277.84-41.02 405.162 46.652 62.51 43.042 105.504 105.046 139.318 174.655 6.464 13.307 12.501 26.849 19.797 42.569"/></g></svg>