<svg xmlns="http://www.w3.org/2000/svg" xmlns:xlink="http://www.w3.org/1999/xlink" xmlns:inkscape="http://www.inkscape.org/namespaces/inkscape" version="1.1" width="2048" height="1920" viewBox="0 0 2048 1920">
<defs>
<clipPath id="clip_1">
<path transform="matrix(1,0,0,-1,0,1920)" d="M0 1920H2048V0H0Z"/>
</clipPath>
</defs>
<g inkscape:groupmode="layer" inkscape:label="Layer 1">
<g clip-path="url(#clip_1)">
<path transform="matrix(1,0,0,-1,204.8283,728.8677)" d="M0 0C-6.153-.283-9.79-3.56-9.812-9.58-9.835-15.866-6.394-20.062-.144-19.874 5.599-19.703 8.946-15.615 8.935-9.813 8.924-3.905 5.349-.479 0 0M1643.586-10.401C1643.603-3.941 1640.602-.288 1634.83 .05 1628.658 .411 1624.802-3.193 1624.673-9.713 1624.556-15.614 1627.811-19.82 1633.523-20.173 1639.655-20.551 1643.079-16.814 1643.586-10.401M1431.675-361.597C1433.506-360.908 1434.201-360.882 1434.49-360.504 1453.934-335.142 1472.076-308.759 1489.306-281.65 1492.513-276.605 1490.646-275.417 1485.979-275.322 1469.328-274.982 1452.678-274.609 1436.029-274.151 1432.544-274.055 1431.644-275.913 1431.649-279.2 1431.694-306.382 1431.675-333.565 1431.675-361.597M199.024-324.131H199.058C199.058-309.767 199.058-295.403 199.059-281.039 199.059-277.558 199.124-274.043 194.424-274.105 176.047-274.349 157.668-274.542 139.292-274.855 134.691-274.933 133.968-277.139 136.354-281.264 154.129-311.986 173.31-341.674 194.02-370.238 194.821-371.342 196.34-372.791 197.312-372.63 199.544-372.261 199.011-369.89 199.014-368.138 199.032-353.469 199.024-338.8 199.024-324.131M1288.021 494.446C1287.776 493.199 1287.429 492.547 1287.594 492.116 1297.885 465.238 1308.308 438.417 1318.474 411.485 1320.72 405.536 1323.879 407.645 1327.312 409.405 1350.083 421.08 1372.857 432.749 1395.605 444.475 1397.266 445.332 1400.08 445.3 1399.949 448.014 1399.832 450.432 1397.213 450.913 1395.533 451.932 1372.47 465.923 1348.193 476.965 1322.834 485.263 1311.407 489.001 1299.971 492.87 1288.021 494.446M224.454 449.154C252.189 435.177 278.166 422.177 304.042 408.955 308.383 406.737 310.048 408.322 311.628 412.5 321.39 438.312 331.281 464.068 341.218 489.804 342.964 494.326 342.527 496.191 337.418 494.798 327.136 491.997 316.701 489.791 306.503 486.694 278.223 478.105 251.407 465.837 224.454 449.154M226.432 195.735C227.78 196.864 228.391 197.113 228.562 197.555 249.484 251.588 270.304 305.665 291.366 359.636 293.593 365.343 290.402 366.566 286.957 368.309 265.655 379.087 244.351 389.86 223.053 400.648 212.213 406.138 201.384 411.655 188.898 418 201.588 342.855 213.958 269.603 226.432 195.735M1440.801 417.743C1436.719 415.868 1434.354 414.878 1432.066 413.716 1402.746 398.827 1373.518 383.731 1344.061 369.157 1338.038 366.178 1336.887 363.535 1339.488 356.853 1358.735 307.406 1377.539 257.764 1396.637 208.251 1398.146 204.34 1398.973 199.766 1403.323 195.384 1415.887 269.928 1428.18 342.859 1440.801 417.743M36.83 17.457C38.846 18.134 39.753 18.231 40.438 18.698 85.006 49.022 129.519 79.439 174.154 109.651 179.774 113.455 177.162 115.023 173.395 117.46 134.829 142.416 96.29 167.419 57.808 192.522 54.036 194.983 51.991 195.342 50.652 189.937 36.68 133.518 31.634 76.33 36.83 17.457M1439.269 159.832C1441.567 160.437 1442.465 160.452 1443.128 160.88 1480.986 185.328 1518.772 209.907 1556.735 234.17 1561.5 237.216 1561.142 240.139 1559.317 244.584 1539.886 291.915 1516.45 336.645 1484.308 375.735 1482.389 378.069 1480.882 381.269 1476.803 381.574 1464.306 307.742 1451.862 234.228 1439.269 159.832M1595.996 54.208C1597.232 99.258 1590.371 143.168 1578.913 186.381 1577.681 191.026 1577.36 196.239 1570.261 191.598 1532.034 166.607 1493.601 141.97 1455.191 117.297 1451.274 114.781 1449.98 113.079 1454.773 109.827 1499.638 79.389 1544.429 48.827 1589.188 18.212 1594.08 14.865 1595.944 16.536 1595.977 22.072 1596.042 32.784 1595.996 43.496 1595.996 54.208M1209.99-610.424C1200.739-609.057 1191.438-607.69 1182.138-606.308 1130.301-598.607 1078.466-590.882 1026.617-583.27 1024.466-582.954 1021.626-581.074 1020.1-583.288 1018.212-586.025 1021.16-588.344 1022.345-590.537 1046.289-634.87 1070.452-679.069 1094.246-723.492 1097.716-729.971 1099.865-729.066 1104.119-724.558 1137.765-688.901 1171.598-653.444 1205.332-617.881 1207.107-616.01 1209.634-614.637 1209.99-610.424M190.345 158.764C177.32 236.003 164.682 310.945 151.883 386.846 149.703 385.128 148.663 384.553 147.92 383.689 112.909 342.926 87.584 295.877 68.083 244.983 65.858 239.177 68.702 237.475 72.365 235.108 97.949 218.576 123.457 201.912 149.017 185.339 162.168 176.812 175.375 168.385 190.345 158.764M407.996-612.133C407.765-613.006 407.533-613.879 407.302-614.751 409.822-617.211 412.381-619.627 414.856-622.136 450.257-658.025 485.752-693.811 520.931-729.944 526.444-735.606 528.852-735.29 532.64-728.224 557.299-682.227 582.324-636.452 607.157-590.56 608.388-588.284 610.435-586.174 609.618-581.969 542.42-592.023 475.208-602.078 407.996-612.133M430.462 501.908C429.591 498.628 431.192 496.959 432.149 495.213 461.738 441.252 491.458 387.371 520.907 333.324 523.962 327.718 526.445 328.122 531.043 330.969 568.614 354.235 606.219 377.443 644.068 400.19 651.381 404.586 650.419 406.916 644.93 412.156 597.528 457.398 541.903 484.199 479.651 496.269 463.347 499.431 446.943 501.921 430.462 501.908M1203.586 500.655C1203.916 503.778 1203.803 503.973 1198.125 503.999 1177.619 504.094 1157.285 501.911 1137.118 498.121 1076.274 486.689 1021.58 461.318 975.068 417.26 969.752 412.224 969.552 409.895 976.121 405.926 1017.181 381.119 1058.069 355.986 1098.877 330.712 1104.146 327.449 1106.491 328.568 1109.496 333.92 1139.759 387.818 1170.271 441.559 1200.707 495.348 1201.744 497.182 1202.72 499.055 1203.586 500.655M647.017 101.717C648.242 103.421 648.885 104.011 649.17 104.756 672.566 165.989 695.921 227.238 719.336 288.462 720.63 291.845 720.496 294.81 718.985 298.095 708.485 320.918 697.939 343.689 684.515 364.823 681.362 369.788 678.995 370.989 673.671 367.674 633.202 342.48 592.583 317.557 551.857 292.835 546.542 289.609 546.12 287.191 549.179 281.618 575.291 234.052 601.078 186.286 626.968 138.583 633.535 126.482 640.122 114.394 647.017 101.717M836.634-93.606C852.506-83.345 867.273-76.898 883.582-75.231 886.961-74.886 888.341-72.211 889.802-69.531 910.867-30.892 931.928 7.751 953.042 46.36 955.076 50.08 955.288 53.411 953.681 57.581 930.882 116.741 908.281 175.987 885.508 235.159 884.64 237.415 884.834 240.88 881.058 241.558 879.83 238.562 878.482 235.567 877.355 232.48 864.438 197.123 851.61 161.728 838.606 126.406 836.469 120.602 835.408 114.827 835.463 108.576 835.941 54.398 836.28 .219 836.623-53.96 836.702-66.469 836.634-78.978 836.634-93.606M745.143 236.175C743.522 232.673 742.808 231.348 742.273 229.945 720.322 172.375 698.431 114.778 676.366 57.257 674.502 52.397 675.362 48.688 677.618 44.36 697.433 6.347 717.139-31.731 736.663-69.914 738.892-74.273 741.679-75.77 746.085-76.192 760.933-77.617 774.667-82.787 787.387-91.073 789.528-92.468 791.617-95.66 794.088-94.422 797.185-92.87 795.546-88.962 795.529-86.165 795.112-19.711 794.554 46.741 794.12 113.195 794.095 117.012 793.157 120.399 791.76 123.78 781.917 147.592 772.107 171.42 762.249 195.224 756.829 208.31 751.335 221.359 745.143 236.175M981.935 102.585C984.511 102.997 984.996 105.323 985.96 107.1 1017.63 165.461 1049.207 223.879 1081.06 282.126 1084.146 287.769 1082.543 289.774 1077.973 292.553 1034.476 319.008 991.013 345.53 947.763 372.436 941.701 376.207 938.731 374.883 935.322 369.235 924.394 351.129 915.531 331.923 907.282 312.325 904.998 306.901 904.74 302.404 906.898 296.784 930.85 234.408 954.53 171.914 978.364 109.486 979.279 107.09 979.576 104.151 981.935 102.585M1288.49-274.184C1257.973-274.184 1227.455-274.123 1196.939-274.274 1193.734-274.29 1189.134-272.288 1187.588-275.976 1186.405-278.798 1190.269-281.626 1192.144-284.203 1212.576-312.283 1233.089-340.298 1253.609-368.306 1278.72-402.581 1303.826-436.86 1329.045-471.044 1331.154-473.903 1332.831-479.714 1337.986-473.899 1354.162-455.653 1370.47-437.538 1386.853-419.502 1389.681-416.388 1390.687-413.097 1390.676-408.836 1390.564-366.877 1390.422-324.917 1390.773-282.962 1390.838-275.26 1388.138-273.985 1381.769-274.044 1350.678-274.333 1319.584-274.175 1288.49-274.184M342.665-274.204V-274.159C310.98-274.159 279.294-274.307 247.612-274.029 241.623-273.976 239.734-275.809 239.765-282.274 239.995-329.155 239.931-376.037 239.843-422.919 239.834-427.767 240.887-431.689 244.109-435.362 257.461-450.58 270.712-465.905 283.71-481.464 287.556-486.068 289.724-486.151 293.388-481.127 341.921-414.6 390.636-348.221 439.258-281.766 440.589-279.947 443.237-278.223 442.199-275.633 441.062-272.794 438.096-274.274 435.989-274.268 404.881-274.175 373.773-274.204 342.665-274.204M328.158 75.488C328.005 74.706 327.853 73.924 327.701 73.142 330.383 71.442 333.049 69.711 335.751 68.046 365.884 49.473 396.006 30.88 426.164 12.352 497.441-31.438 568.775-75.126 639.944-119.114 645.146-122.328 647.435-121.676 650.878-116.661 660.748-102.286 673.598-91.479 689.112-84.716 694.642-82.305 695.041-79.885 692.254-74.611 674.906-41.791 657.767-8.846 640.74 24.164 638.716 28.088 636.205 30.048 632.123 30.628 614.729 33.098 597.358 35.759 579.977 38.335 511.017 48.555 442.057 58.778 373.094 68.978 358.121 71.193 343.137 73.32 328.158 75.488M1365.963 167.052C1366.417 167.501 1366.872 167.95 1367.326 168.399 1326.648 273.95 1285.971 379.502 1244.709 486.569 1242.157 482.408 1240.698 480.18 1239.383 477.858 1208.474 423.301 1177.712 368.649 1146.533 314.267 1142.289 306.865 1142.666 303.682 1150.082 299.172 1217.813 257.982 1285.287 216.315 1352.846 174.805 1357.177 172.144 1361.589 169.633 1365.963 167.052M1304.008 73.688C1299.591 76.161 1296.52 74.85 1293.534 74.403 1263.063 69.839 1232.615 65.096 1202.137 60.589 1134.07 50.522 1065.989 40.557 997.912 30.565 994.063 30 991.103 28.692 988.921 24.623 971.098-8.613 953.122-41.758 934.94-74.773 932.074-79.976 933.269-81.837 938.073-83.962 954.01-91.012 967.966-101.25 978.199-116.2 982.369-122.292 985.605-122.33 991.385-118.758 1062.305-74.931 1133.378-31.383 1204.391 12.274 1237.25 32.475 1270.065 52.759 1304.008 73.688M386.437 489.923C344.818 381.969 303.755 275.458 262.536 168.542 267.098 167.72 269.111 170.346 271.439 171.772 341.232 214.541 410.921 257.502 480.824 300.066 487.192 303.943 487.643 306.717 484.067 313.118 460.545 355.209 437.382 397.527 414.099 439.769 405.129 456.043 396.151 472.312 386.437 489.923M306.212 34.538C305.786 34.105 305.36 33.672 304.934 33.24 306.57 30.778 308.116 28.243 309.854 25.866 370.993-57.79 432.178-141.408 493.221-225.144 496.233-229.277 499.478-230.583 504.166-230.562 543.054-230.389 581.944-230.241 620.83-230.556 628.179-230.616 628.834-227.637 627.543-221.259 624.229-204.887 624.332-188.365 627.583-172.041 628.897-165.448 627.023-162.351 621.701-159.093 539.124-108.539 456.69-57.72 374.202-7.002 351.575 6.911 328.878 20.695 306.212 34.538M1325.796 33.983C1325.314 34.462 1324.832 34.942 1324.35 35.421 1323.345 34.914 1322.299 34.48 1321.339 33.888 1216.228-30.851 1111.141-95.634 1005.96-160.245 1001.514-162.976 1000.904-165.918 1001.974-170.703 1005.768-187.659 1005.757-204.823 1002.219-221.723 1000.625-229.337 1002.686-230.499 1009.153-230.463 1047.463-230.249 1085.775-230.264 1124.084-230.575 1130.26-230.625 1133.926-228.268 1137.631-223.187 1190.035-151.316 1242.651-79.62 1295.208-7.876 1305.42 6.064 1315.601 20.029 1325.796 33.983M240.627 48.123C240.369 43.718 240.204 42.207 240.203 40.697 240.12-46.932 240.133-134.561 239.833-222.188 239.807-229.634 242.649-230.569 248.548-230.553 309.607-230.387 370.667-230.496 431.726-230.382 435.258-230.376 440.383-232.572 442.034-228.941 443.646-225.396 439.071-222.257 436.87-219.25 384.52-147.742 332.114-76.28 279.694-4.829 267.201 12.199 254.624 29.157 240.627 48.123M609.587 78.364C610.426 82.02 608.513 83.814 607.416 85.831 575.882 143.844 544.21 201.772 512.89 259.916 509.431 266.337 506.787 264.818 502.186 261.985 439.448 223.351 376.61 184.9 313.808 146.381 304.023 140.38 294.294 134.272 284.539 128.213 284.772 127.583 285.005 126.952 285.239 126.322 393.343 110.338 501.447 94.353 609.587 78.364M1018.037 77.781C1128.517 94.138 1236.913 110.187 1345.445 126.256 1344.674 129.571 1342.506 130.102 1340.845 131.122 1269.517 174.906 1198.129 218.58 1126.91 262.564 1121.391 265.972 1119.337 264.79 1116.441 259.419 1092.516 215.038 1068.32 170.822 1044.251 126.527 1035.803 110.98 1027.482 95.354 1018.037 77.781M1388.943 46.234C1385.952 46.215 1385.085 43.549 1383.781 41.77 1319.11-46.382 1254.49-134.577 1189.919-222.812 1188.6-224.614 1185.925-226.313 1187.092-228.992 1188.315-231.799 1191.231-230.344 1193.343-230.347 1256.161-230.448 1318.98-230.32 1381.797-230.656 1389.215-230.696 1390.276-227.516 1390.266-220.872 1390.138-135.042 1390.206-49.211 1390.144 36.62 1390.141 39.812 1391.116 43.305 1388.943 46.234M826.521-1012.586C826.983-1012.897 827.446-1013.207 827.908-1013.518 838.959-1001.72 850.015-989.929 861.059-978.124 927.036-907.597 993.956-838.09 1061.406-769.163 1066.791-763.659 1067.069-759.742 1063.332-752.977 1037.82-706.797 1012.768-660.33 987.507-613.994 986.108-611.428 985.431-607.044 982.643-606.972 978.739-606.871 979.025-611.886 977.959-614.679 931.509-736.302 885.203-857.988 838.892-979.671 834.724-990.624 830.643-1001.614 826.521-1012.586M792.012-865.476C792.582-865.395 793.152-865.313 793.722-865.231 793.855-863.823 794.104-862.416 794.105-861.008 794.137-724.395 794.129-587.782 794.256-451.169 794.261-446.397 792.675-443.13 789.573-440.008 780.377-430.751 771.059-421.598 762.358-411.829 756.999-405.813 754.444-406.68 750.732-413.633 726.865-458.349 702.78-502.935 678.399-547.336 674.929-553.658 675.016-558.661 677.523-565.186 701.793-628.358 725.756-691.664 749.835-754.92 763.867-791.784 777.951-828.625 792.012-865.476M1059.281-274.22V-274.248C1036.814-274.248 1014.346-274.41 991.883-274.128 986.691-274.062 983.591-275.597 980.85-280.523 975.874-289.464 970.541-298.319 964.316-306.291 959.155-312.901 959.439-315.889 966.747-320.275 1006.096-343.896 1045.16-368.053 1084.291-392.085 1152.336-433.875 1220.411-475.614 1288.301-517.688 1294.361-521.444 1296.926-519.257 1301.166-514.875 1306.209-509.663 1303.417-506.51 1300.498-502.542 1246.033-428.513 1191.542-354.505 1137.23-280.35 1133.843-275.726 1130.409-273.999 1124.95-274.082 1103.064-274.416 1081.171-274.22 1059.281-274.22M669.783-313.244C669.064-312.241 668.222-311.031 667.344-309.852 660.363-300.476 653.836-290.74 648.401-280.277 646.003-275.658 643.125-274.076 638.151-274.098 593.522-274.302 548.892-274.299 504.263-274.071 498.822-274.044 495.396-275.753 492.034-280.419 471.03-309.573 449.67-338.435 428.468-367.428 392.953-415.994 357.579-464.678 321.831-513.049 317.334-519.135 319.594-522.47 323.952-525.571 327.158-527.854 329.854-524.566 332.494-522.945 402.765-479.794 473.024-436.621 543.277-393.438 583.636-368.631 623.989-343.814 664.314-318.945 666.424-317.643 669.291-316.995 669.783-313.244M835.4-865.74C839.407-862.957 839.858-859.804 840.908-857.051 876.492-763.758 911.742-670.318 947.954-577.302 953.849-562.158 954.34-550.809 945.803-536.148 922.179-495.577 900.514-453.713 878.251-412.253 875.345-406.842 873.497-404.985 868.608-410.544 859.97-420.365 850.753-429.644 841.375-438.678 836.655-443.225 835.218-448.185 835.228-454.812 835.408-577.63 835.382-700.448 835.4-823.266 835.401-837.021 835.4-850.777 835.4-865.74M1241.214-570.66C1252.402-572.13 1254.642-564.174 1259.449-560.35 1264.46-556.363 1265.271-553.61 1258.549-549.492 1153.066-484.867 1047.81-419.821 942.336-355.178 927.283-345.953 932.195-345.372 919.809-358.093 916.91-361.07 914.488-364.739 911.217-367.102 904.92-371.652 905.621-376.025 909.126-382.411 935.677-430.791 961.936-479.353 988.135-527.949 990.354-532.066 992.902-534.105 997.412-534.761 1053.56-542.933 1109.679-551.334 1165.811-559.637 1192.025-563.514 1218.25-567.305 1241.214-570.66M374.485-572.859C386.136-571.126 399.245-569.178 412.353-567.226 484.988-556.41 557.613-545.513 630.278-534.928 636.093-534.081 639.313-531.552 642.151-526.262 665.827-482.128 689.715-438.122 713.655-394.148 724.452-374.316 724.572-374.39 709.456-358.025 699.736-347.501 699.738-347.506 687.793-354.866 602.625-407.343 517.464-459.83 432.284-512.283 408.865-526.703 385.363-540.971 361.986-555.465 360.057-556.661 356.462-556.773 357.123-560.801 357.772-564.765 368.737-573.076 374.485-572.859M802.707-1015.329 804.128-1013.892C752.359-877.837 700.589-741.781 648.713-605.446 645.246-607.309 644.376-609.998 643.107-612.336 616.496-661.378 589.998-710.49 563.143-759.38 559.58-765.867 559.95-769.497 565.262-774.774 629.611-838.704 693.93-902.672 757.031-968.005 772.261-983.774 787.482-999.554 802.707-1015.329M1432.239 72.998C1431.914 69.963 1431.676 68.772 1431.675 67.581 1431.65-29.184 1431.703-125.948 1431.504-222.712 1431.49-229.541 1434.127-230.741 1439.633-230.794 1457.462-230.967 1475.417-230.287 1493.078-232.334 1511.517-234.472 1521.597-227.883 1530.04-209.694 1554.859-156.222 1576.018-101.609 1587.596-43.062 1588.958-36.175 1588.022-32.151 1581.913-28.103 1547.247-5.132 1512.924 18.424 1478.474 41.764 1463.494 51.913 1448.489 62.023 1432.239 72.998M198.88-79.074C198.756-79.074 198.632-79.074 198.508-79.074 198.508-31.891 198.527 15.292 198.462 62.474 198.458 65.358 200.013 69.354 197.06 70.848 194.323 72.232 191.918 68.891 189.568 67.299 142.712 35.559 95.917 3.714 49.003-27.93 44.512-30.959 42.986-33.779 44.127-39.757 56.583-105.037 78.22-166.745 106.859-225.845 109.391-231.07 112.337-232.716 117.583-232.539 141.177-231.741 164.782-230.899 188.382-230.916 196.514-230.922 199.169-228.787 199.084-219.702 198.644-172.83 198.88-125.951 198.88-79.074M963.558-197.59C963.574-133.418 912.065-101.421 862.289-130.862 845.032-141.07 831.44-155.365 820.322-172.434 817.184-177.254 815.492-178.057 811.871-172.786 804.202-161.624 795.072-151.791 784.855-143.211 769.385-130.221 752.131-121.306 732.202-120.188 690.877-117.872 661.677-154.765 666.428-201.648 670.056-237.453 685.865-266.769 707.931-292.612 740.088-330.275 775.799-364.18 809.947-399.739 814.043-404.004 816.443-403.829 820.395-399.574 831.115-388.033 842.312-376.995 853.307-365.742 881.097-337.304 910.156-310.129 933.781-277.451 951.539-252.888 962.994-225.516 963.558-197.59M816.182 296.896C823.204 315.733 829.539 332.705 835.86 349.682 855.397 402.159 881.124 450.096 922.584 487.029 982.13 540.073 1050.361 572.98 1126.795 585.895 1226.252 602.701 1321.98 588.803 1412.881 541.99 1486.488 504.084 1545.28 448.258 1588.6 374.28 1632.341 299.585 1663.047 219.61 1674.462 131.987 1684.974 51.293 1678.399-28.098 1657.442-106.294 1631.927-201.498 1587.969-286.759 1533.591-366.407 1497.129-419.816 1455.507-468.449 1413.393-516.836 1377.379-558.215 1340.44-598.574 1302.941-638.344 1214.845-731.775 1125.869-824.262 1036.659-916.496 973.469-981.828 910.696-1047.638 850.265-1115.897 837.298-1130.544 822.895-1139.03 803.458-1133.597 795.351-1131.331 789.026-1126.192 783.175-1120.167 667.733-1001.293 552.537-882.157 435.295-765.267 356.718-686.927 279.92-606.588 206.722-522.471 128.355-432.415 61.566-333.856 13.58-221.776-25.046-131.556-48.257-37.313-48.603 62.421-48.972 169.158-22.227 268.078 28.124 360.079 80.257 455.34 154.335 524.014 251.905 560.772 393.356 614.063 529.745 601.791 657.067 514.12 719.576 471.078 762.571 409.074 796.385 339.465 802.849 326.158 808.886 312.616 816.182 296.896" fill="#231f20"/>
</g>
</g>
</svg>
