<svg xmlns="http://www.w3.org/2000/svg" width="2016" height="1728" viewBox="0 0 2016 1728"><defs><clipPath id="clip_1"><path d="M0 0h2016v1728H0Z"/></clipPath></defs><g clip-path="url(#clip_1)"><path d="M1286.702 886.52c2.91 0 5.821.003 8.731-.001a70 70 0 0 0 2.297-.034c8.256-.286 7.791 1.125 7.695-8.14-.039-3.692-.533-4.183-4.452-3.682-6.717.857-13.452.722-20.188.728-19.913.018-39.826.013-59.738-.001-3.064-.002-6.126-.133-9.189-.141-8.726-.024-17.449.1-26.17.471-11.609.493-23.193 1.534-34.824 1.529-19.147-.007-38.295-.072-57.442.038-7.952.044-15.893.736-23.835 1.123-9.233.45-18.356-.04-27.349-1.774-8.42-1.623-16.682-1.433-24.988.215-3.697.731-3.716.824-3.794 4.353a219 219 0 0 0-.022 8.725c.07 3.822.107 3.875 3.846 3.938 8.73.148 17.458.31 26.187.33 4.28.009 8.603.04 12.831-.519 7.432-.981 14.925-1.373 22.36-1.513 18.361-.347 36.726.012 55.1.653 19.871.692 39.78.12 59.674-.653 8.093-.313 16.15-1.545 24.272-1.103.451.024.915-.077 1.365-.16 6.184-1.14 12.482-1.043 18.715-1.452 5.934-.389 11.884-.888 17.803-1.335 10.368-.784 20.698-1.875 31.115-1.596m-47.69-19.27c2.295 0 4.595.068 6.89-.01 17.584-.601 35.197 1.005 52.774-.826 6.838-.712 6.861-.479 6.765-7.547-.008-.611-.04-1.223-.02-1.834.06-1.91-.84-2.763-2.76-2.77-9.64-.04-19.217-1.155-28.822-1.691-12.81-.716-25.658-.841-38.49-1.02-13.46-.187-26.913-.094-40.367.801-8.693.58-17.438.036-26.168.48-6.256.317-12.392 1.73-18.71 1.518-3.39-.115-6.664-.984-10.029-.986-11.332-.007-22.665-.048-33.996.064-11.933.12-23.86.347-35.763-.871-1.509-.154-3.08-.154-4.576.082-7.32 1.159-14.619.629-21.965.188-9.16-.548-18.355-.532-27.533-.814-2.307-.072-2.849 1.147-2.815 3.141.058 3.519-.066 7.04.027 10.558.084 3.197.433 3.306 3.531 2.937 4.083-.487 8.114-1.398 12.26-1.405 6.6-.016 12.993 1.646 19.505 2.272 5.904.567 11.764 1.803 17.777 1.199 9.424-.946 18.877-1.608 28.355-1.644 11.331-.046 22.664.05 33.995.031 10.565-.017 21.147.25 31.691-.256 12.058-.578 24.107-1.432 36.18-1.558 14.085-.15 28.175-.037 42.263-.038m37.088 64.284c7.25.194 16.737-.29 26.221-.822 1.046-.058 2.451.192 2.78-1.048.55-2.067.771-4.332-.068-6.316-.743-1.757-2.696-1.065-4.13-1.05-11.344.126-22.674-.511-34.008-.59-13.786-.094-27.575.469-41.363.534-32.023.152-64.03-1.583-96.06-.89-1.683.038-3.407-.101-5.039.215-5.427 1.048-10.954.973-16.42 1.497-7.747.741-15.508 1.475-23.245 2.245-8.044.802-16.107 1.611-24.154 2.293a341 341 0 0 1-37.64 1.106c-2.144-.057-4.292.058-6.435-.014-2.133-.07-3.066.85-3.046 2.992.036 3.673-.093 7.348-.059 11.021.04 4.231.19 4.4 4.418 4.413 12.107.038 24.212.025 36.32.01 1.22-.001 2.468-.024 3.66-.255 5.728-1.115 11.577-.653 17.357-1.37 3.452-.427 6.923-1.318 10.464-1.07 5.227.368 10.412-.575 15.507-1.231 9.866-1.271 19.81-2.066 29.656-2.2 16.536-.222 33.046-1.373 49.583-1.178 4.31.05 8.5-.88 12.756-1.245 6.373-.544 12.696-1.64 19.051-2.422 6.357-.782 12.736-1.396 19.09-2.206 9.096-1.16 18.194-2.288 27.378-2.408 5.055-.065 10.113-.01 17.426-.01m-30.475-17.57c7.497-.125 14.99-.389 22.497-.165 11.323.34 22.66.244 33.991.245 3.132 0 3.223-.176 3.291-3.531.078-3.825.068-7.65.047-11.476-.022-4.361-.045-4.406-4.295-4.408-9.647-.003-19.305-.22-28.938.162-6.1.242-12.264.347-18.292 1.12-7.267.93-14.57 1.871-21.833 2.245-11.145.572-22.274 1.411-33.412 1.925-16.357.758-32.749.792-49.126 1.015-7.476.104-14.949-.483-22.409-.706-17.748-.525-35.522-.18-53.286-.157-1.677.001-3.353.184-5.029.31-6.235.472-12.424 1.519-18.7 1.505-10.873-.02-21.746-.038-32.618.004-3.799.014-3.987.212-4.058 3.793-.076 3.823.056 7.653-.045 11.476-.063 2.38.95 3.188 3.272 3.203 14.992.096 29.988.143 44.934-1.116 3.336-.283 6.735-.327 10.017-.952 5.273-1.008 10.628-.872 15.925-1.543 7.71-.978 15.483-1.436 23.227-2.143 5.616-.512 11.233-1.574 16.841-1.517 20.652.208 41.297-.435 61.968.529 18.638.868 37.35.183 56.031.183m59.802-79.552c0-2.601.067-5.205-.017-7.803-.106-3.337-.605-3.85-3.77-3.465-12.573 1.532-25.135 3.105-37.779 3.978-4.132.284-8.325.942-12.366.246-6.827-1.177-13.713-.602-20.57-1.38-10.915-1.24-21.955-1.754-32.949-1.851-24.795-.224-49.596-.782-74.392.353-13.293.61-26.613.666-39.897 1.403-6.249.347-12.518.514-18.747 1.046-10.405.889-20.769 1.002-31.158-.038-5.62-.563-11.313.236-16.924-.957-1.829-.389-3.353.424-3.364 2.692-.02 4.284-.04 8.567-.022 12.851.005 1.712.761 2.343 2.615 2.164 2.731-.264 5.516-.355 8.25-.146 12.193.93 24.385 1.766 36.626 1.69 9.335-.058 18.67-.014 28.005.025 1.522.006 3.066.09 4.561.359 3.5.625 7.086.904 10.524.378 7.94-1.214 15.892-.573 23.837-.738 4.285-.09 8.652-.475 12.842.173 7.365 1.135 14.606.92 21.872-.359 1.655-.29 3.265-.779 4.974-.766 16.98.12 33.946-.16 50.916-.865 9.454-.394 18.931.333 28.391.588 8.393.226 16.84.159 25.241.418 5.008.154 10.103.353 15.064 1.1 5.061.763 10.081.347 15.115.568 2.457.109 3.19-1.187 3.134-3.401-.07-2.753-.016-5.509-.012-8.263m-263.308-42.684c9.675.894 19.846-.355 29.968-1.875 9.372-1.41 18.771-2.394 28.234-2.514 11.946-.153 23.9-.177 35.843.018 7.026.113 14.062.598 21.065 1.096 8.68.616 17.368 1.091 26.052 1.575 9.786.547 19.55-.651 29.322-.808 8.878-.142 17.695-1.552 26.586-1.054.303.018.615-.024.915-.077 8.014-1.393 16.17-1.338 24.218-1.501 12.553-.255 25.076-1.46 37.64-1.137.153.004.307-.016.46-.005 2.101.163 3.09-.716 3.025-2.91a157 157 0 0 1-.01-9.643c.077-2.403-.979-3.207-3.296-3.196-5.196.024-10.346-.793-15.523-1.155-6.692-.466-13.362-1.38-20.084-1.428-12.407-.09-24.814-.038-37.222-.116-19.126-.121-38.214.66-57.326 1.46-20.022.838-40.098.953-60.153 1.231-17.608.245-35.227-.317-52.82.881-3.663.25-7.39-.173-11.013.293-10.34 1.33-20.673 2.17-31.094 1.255-2.785-.245-3.32.11-3.408 2.879-.135 4.281.023 8.572-.092 12.854-.065 2.45 1.062 3.16 3.332 3.147 8.267-.048 16.484 1.369 25.381.73m206.476 172.88c13.112.726 29.93-.674 46.77-.95 2.587-.043 5.162-.626 7.752-.843 1.48-.125 2.272-.751 2.272-2.249.001-6.276 0-12.552-.018-18.827-.003-1.284-.7-1.971-1.984-2.025a63 63 0 0 0-2.757-.052c-15.013.022-30.026.042-45.038.085-1.374.002-2.752.115-4.12.257-7.592.8-15.184 1.604-22.77 2.45-8.645.962-17.318 1.743-25.916 3.031-7.104 1.063-14.257 2.215-21.373 2.308-11.642.153-23.245 1.53-34.88 1.067-14.415-.573-28.706 1.188-43.037 2.064-3.932.24-7.916.51-11.858.944-7.434.818-14.845 2.108-22.298 2.42-13.149.55-26.297 1.47-39.478 1.038-4.438-.146-8.886.023-13.328-.052-2.084-.034-3.159.708-3.09 2.907.06 1.987-.018 3.98-.02 5.97-.008 6.85-.005 6.92 6.755 6.89 24.66-.101 49.32-.255 73.978-.393a49 49 0 0 0 2.297-.076c16.813-.91 33.683.269 50.478-1.36 4.555-.442 9.175-.446 13.672-1.206 7.084-1.197 14.24-1.829 21.36-2.269 11.746-.729 23.54-.197 35.318-1.004 9.15-.626 18.376-.125 31.313-.125m-202.85-145.096c8.32-.116 14.9-.624 21.44-.764 10.71-.229 21.372-1.688 32.098-1.164.762.038 1.538.004 2.294-.098 11.57-1.539 23.248-1.135 34.854-1.49 26.784-.822 53.597-.19 80.38.822 4.55.172 9.137.591 13.698.99 9.593.837 19.201 1.48 28.824 1.495 3.79.007 7.565-1.023 11.42-.8 1.985.115 3.937-.261 5.915-.538 8.454-1.18 16.873-2.696 25.422-3.122 3.137-.158 3.263-.228 3.32-3.536.075-4.44.054-8.881.002-13.322-.049-4.188-.359-4.541-4.429-4.26-11.475.793-22.965.798-34.457.822-3.217.006-6.449-.125-9.648.133-9.907.796-19.799 1.798-29.756 1.73-.919-.005-1.858-.067-2.754.09-8.942 1.58-18.019.667-27.023 1.546-11.297 1.102-22.62-1.044-33.96-.774-.456.011-.918-.056-1.37-.13-6.957-1.156-14.012-1.416-21.013-1.577-12.705-.29-25.414-.72-38.142-.239-5.357.204-10.644 1.137-16.004 1.054-4.909-.073-9.709.896-14.545 1.519-5.602.723-11.195 1.903-16.813 2.046-9.79.247-19.606.499-29.39-.607-3.182-.36-6.43-.108-9.646-.209-2.143-.067-3.053.88-3.025 3.013.054 3.98-.055 7.962.008 11.942.06 3.78.464 4.44 4.228 4.334 9.97-.28 19.846 1.702 28.071 1.094M711.71 759.32c1.354-3.507 2.66-6.874 3.958-10.245 8.836-22.961 20.242-44.604 34.394-64.7 13.424-19.06 28.526-36.721 45.82-52.488 21.178-19.31 44.442-35.538 69.978-48.533 23.866-12.144 49.022-20.667 75.06-26.73 10.268-2.39 20.695-3.843 31.107-5.368 2.132-.311 2.983-1.174 2.91-3.216-.043-1.225.003-2.45.003-3.676.001-27.562.02-100.305-.012-127.867-.008-7.312.955-6.9-6.95-6.904-40.455-.019-80.91-.015-121.365-.007-42.14.01-84.282.033-126.423.06-2.297.002-4.594.14-6.892.173-1.46.022-2.31.603-2.274 2.168.017.765-.006 1.531-.006 2.298-.003 98.918-.007 243.017.01 341.936.001.965-.46 2.072.682 3.099m-.195 206.818c-.774 2.012-.494 3.502-.495 4.933-.032 70.878-.057 141.757-.064 212.635-.002 28.015.038 101.607.061 129.622.004 4.632.011 4.632 4.788 4.672h.46c84.414 0 168.828.002 253.243-.003 5.415 0 5.43-.022 5.43-5.64.005-28.78.002-103.14.002-131.92 0-.765.028-1.532-.012-2.296-.16-3.05-.739-3.806-3.757-4.039-2.593-.198-5.15-.573-7.724-.884-13.838-1.66-27.376-4.74-40.765-8.47-29.554-8.232-57.123-20.992-83.062-37.25-24.15-15.136-45.767-33.418-64.75-54.629-23.769-26.553-42.61-56.33-56.352-89.258-2.334-5.592-4.513-11.247-7.003-17.472m572.301 44.985c-2.317 7.526-2.409 7.594-9.404 7.615-9.348.024-18.73-.448-28.033.203-14.518 1.015-29.062.843-43.584 1.412-17.882.7-35.826.502-53.75-.56-13.594-.804-27.195.174-40.778 1.5-7.133.698-14.234 1.666-21.36 2.402-6.744.695-13.446.653-20.163.214-5.629-.368-11.238-1.037-16.862-1.5-5.638-.463-11.313-.604-16.917-1.315-5.514-.7-11.015-.333-16.519-.519-2.157-.072-3.045.874-3.012 3.005.06 3.674-.035 7.35-.003 11.026.036 4.35.065 4.293 4.28 4.433 13.942.467 27.83-.99 41.758-1.168 14.382-.182 28.754-1.098 43.134-1.534 9.182-.277 18.361.013 27.552-.74 7.154-.584 14.417-.498 21.59-.048 11.29.707 22.56 1.68 33.885 1.67 25.727-.022 51.456-.019 77.183.027 1.697.003 3.6-.588 5.034.701-1.84 5.788-5.406 7.654-11.43 7.57-26.046-.36-52.099-.151-78.149-.163-1.99-.002-3.995.026-5.968-.186-9.74-1.043-19.489-1.755-29.299-1.647-10.722.12-21.443.02-32.158.638-5.808.333-11.673-.1-17.453.448-13.435 1.276-26.922.917-40.376 1.514-11.76.52-23.529 1.683-35.333 1.123-.458-.022-.918.018-1.377.044-1.826.106-2.806 1.037-2.82 2.9-.022 2.603-.088 5.207-.05 7.808.057 4.077.132 4.128 4.113 4.161.92.007 1.84-.066 2.757-.04 17.16.485 34.28-.947 51.428-1.08 12.392-.096 24.77.074 37.181-.636 14.654-.839 29.388-.256 44.076-1.097 7.197-.41 14.375.9 21.563.78 23.754-.392 47.48.96 71.225 1.033 1.454.004 3.051-.44 4.571.847-3.026 4.339-5.778 7.586-12.209 7.513-27.729-.32-55.443-1.411-83.167-1.512-20.209-.072-40.426.73-60.632 1.053-23.584.38-47.16 1.434-70.756 1.242-2.444-.02-4.888.351-7.335.442-1.917.07-2.776 1.039-2.78 2.872-.01 2.755-.015 5.512.012 8.267.012 1.187.452 2.136 1.818 2.162 3.22.065 6.306 1.193 9.573 1.013 5.366-.294 10.683.688 16.004 1.115 8.071.65 16.148 1.33 24.228 1.54 11.942.31 23.893-.451 35.831-.544 39.686-.307 79.374-.168 119.062-.153 1.938 0 3.976-.287 5.833.707-2.769 5.04-6.17 7.335-10.992 7.345-49.797.099-99.596-.37-149.39.72-6.71.148-13.452-.456-20.16-.953-9.44-.7-18.86-1.653-28.293-2.442-2.828-.236-3.445.333-3.519 3.399a302 302 0 0 0-.02 13.32c.062 3.066.441 3.487 3.521 3.394 3.664-.11 7.317-.721 10.98-.797 9.641-.196 19.278-.47 28.916-.775 17.741-.56 35.486-.867 53.212-1.953 8.238-.505 16.52-.558 24.761-.75 14.083-.33 28.145-1.589 42.248-1.176 4.44.131 8.871-.168 13.306-.57 4.648-.421 9.338-.614 14.696.073-3.104 3.034-5.859 5.344-8.882 7.316-.586.383-1.47.428-2.218.428-6.737.004-13.408 1.237-20.169.95-13.64-.579-27.227 1.453-40.869.947a7.5 7.5 0 0 0-1.376.078c-9.567 1.428-19.245.808-28.86 1.6-7.913.65-15.903.306-23.865.632-17.746.726-35.512.918-53.27 1.36-3.213.08-6.424.303-9.634.49-1.98.116-2.468 1.378-2.474 3.144-.005 1.888.737 2.976 2.693 2.814 2.801-.23 5.427.891 8.191.923 11.015.125 22.044-.406 33.03.953 4.387.543 8.832.614 13.218 1.16 5.907.732 11.792 1.68 17.766 1.584 8.102-.13 16.215-.485 24.3-.661 18.834-.413 37.677-.697 56.516-1.079.917-.018 2.17-.583 2.876 1.116-2.427 1.49-4.923 2.933-7.323 4.519-2.909 1.925-5.996 2.563-9.517 2.533-8.564-.074-17.135.313-25.696.566-13.76.407-27.51 1.802-41.295 1.178-5.186-.235-10.42-.338-15.528-1.152-8.468-1.35-17.003-1.852-25.519-2.399-9.002-.575-18.05.01-27.074-.93-6.626-.69-6.696-.374-6.685 6.17.001.612.057 1.23.001 1.836-.225 2.487 1.082 3.16 3.328 3.076 4.284-.162 8.584-.032 12.86-.305 7.646-.493 15.335-1.21 22.94-.397 9.607 1.027 19.284.13 28.86 1.555 4.82.719 9.7 1.04 14.556 1.492 8.801.817 17.422 3.08 26.315 3.2 1.713.023 3.418.545 5.127.837-4.482 2.864-9.122 4.719-13.907 6.184-1.125.343-2.472.293-3.652.074-4.498-.832-9.045-1.315-13.556-2.014-9.384-1.45-18.837-2.163-28.282-2.397a1068 1068 0 0 0-47.8-.131c-6.888.137-6.828-.129-6.79 7.396.01 1.868.681 2.947 2.675 2.805 3.247-.23 6.387.78 9.576.871 10.402.304 20.604 2.49 30.991 3.083 4.111.236 8.55-.009 12.43 1.817-2.252 1.844-5.178 1.53-7.82 1.987-7.34 1.272-14.67 2.988-22.224 2.271-6.685-.633-13.413-.705-20.075-1.696-4.81-.716-5.533-.094-5.538 4.53-.033 30.471-.033 106.52-.014 136.992.003 4.074.082 4.077 4.087 4.171.766.018 1.533.007 2.298.007 93.167 0 186.334.003 279.501-.005 6.766 0 6.106.46 6.11-6.272.017-63.085.023-171.748.02-234.833 0-35.371-.023-70.742-.057-106.113 0-1.266.256-2.621-.807-4.69-1.075 3.993-2.863 5.956-6.579 5.803-10.88-.449-21.735.625-32.604.804-10.104.166-20.22-.385-30.325-.183-19.736.394-39.48.544-59.188 2.03-7.919.598-15.756 1.915-23.708 2.226-6.715.261-13.412 1.442-20.116 1.447-20.992.016-41.97.56-62.957.865-17.456.252-34.927.577-52.382-.27-2.095-.102-3.259.468-3.252 2.69.003.764.025 1.533-.017 2.296-.105 1.864.624 2.91 2.624 2.844 1.071-.034 2.147.058 3.217.01 13.79-.622 27.53.779 41.291 1.17 5.628.159 11.281.668 16.937.732.306.004.62-.005.916.058 6.072 1.28 12.181.698 18.303.553 5.965-.141 11.97-.121 17.904.405 9.14.81 18.285 1.303 27.446 1.702 4.482.197 8.827-.974 13.273-.93 8.12.085 16.205-.91 24.16-2.092 10.936-1.624 21.923-1.577 32.872-2.379 13.304-.974 26.604 1.23 39.935.817.754-.023 1.512.202 2.271.27 8.058.721 16.077 1.683 24.23.985 5.421-.465 10.914-.089 16.501-.089.104 1.68-.957 2.93-1.35 4.369-.775 2.84-2.608 3.784-5.484 3.6-2.74-.176-5.588-.327-8.25.2-8.155 1.62-16.175-.247-24.243-.573-5.944-.24-11.86-1.077-17.802-1.465-2.27-.15-4.6.496-6.859.291-13.335-1.212-26.66-.25-39.9.84-9.85.81-19.694 2.284-29.548 3.23-13.57 1.303-27.245 1.078-40.819-.02-9.33-.757-18.63-1.032-27.965-.999-4.289.014-8.583.036-12.867-.129-10.239-.394-20.442-1.57-30.706-1.462a25 25 0 0 1-3.665-.245c-9.767-1.333-19.582-.32-29.369-.637-2.134-.068-3.066.856-3.04 2.993.044 3.827.06 7.657-.059 11.482-.079 2.512 1.202 3.114 3.406 3.072 3.062-.057 6.185-.293 9.18.19 7.734 1.246 15.563.632 23.328 1.534 5.59.65 11.221 1.154 16.84 1.64 6.415.556 12.903.837 19.264-.027 9.828-1.336 19.673-2.707 29.55-3.194 11.436-.562 22.87-1.014 34.39-.61 23.1.814 46.23.718 69.368-.217 21.548-.87 43.147-.894 65.08-.591m13.58-268.506c-2.424.79-4.728.368-7.004.387-9.638.082-19.307-.32-28.909.314-13.149.868-26.324 1.113-39.469 1.43-22.499.542-44.958 1.523-67.43 2.688-16.346.848-32.784 1.038-49.147.725-15.01-.29-30.022-.14-45.025-.547-5.7-.154-11.3.672-16.909 1.192-7.457.692-14.806 1.46-22.36.895-9.085-.678-7.48-.604-7.707 6.87-.005.154-.003.307-.004.46-.04 6.82.3 7.17 7.15 7.308.458.009.918-.001 1.378.005 9.951.131 19.824-.98 29.73-1.692 9.616-.692 19.28-.924 28.924-1.006 32.608-.28 65.218.212 97.812-1.75 11.896-.716 23.88-.91 35.82-.942 28.317-.08 56.641-.229 84.89 2.457 7.298.692 6.287.015 6.287-5.956.011-98.3-.005-241.783-.018-340.083q0-1.61-.039-3.216c-.043-1.67-.937-2.512-2.585-2.57a75 75 0 0 0-2.757-.05q-139.747.025-279.496.054c-1.224 0-2.45.1-3.675.069-2.224-.058-3.523.764-3.325 3.205.05.608-.03 1.224-.03 1.837-.027 37.973-.062 121.126-.066 159.099 0 4.01.298 4.262 4.414 4.734 6.913.794 13.793-.177 20.588-1.012 7.207-.886 14.38-.783 21.527-.394 8.688.472 17.344 1.574 26.066 1.582 16.55.017 33.102.214 49.646-.087 7.75-.14 13.133 4.543 19.39 7.654-1.463.48-2.806.594-4.15.596-22.985.015-45.972.142-68.954-.053-7.167-.06-14.322-1.076-21.49-1.512-6.574-.401-13.162-.573-19.729.12-6.236.66-12.449 1.442-18.745 1.501-2.67.026-6.005-1.664-7.878.463-1.743 1.98-.628 5.293-.657 8.014-.049 4.404.036 4.371 4.708 4.467 8.422.176 16.772-1.371 25.2-1.03.151.005.305-.034.455-.06 10.241-1.862 20.468-.283 30.66.39 8.538.563 17.068 1.433 25.62 1.534 10.25.12 20.49-.098 30.751-.666 13.908-.771 27.89-.108 41.811-.731 6.642-.298 10.486 3.664 15.923 7.094-2.366.85-3.876.68-5.343.687-8.887.04-17.78-.163-26.659.135-11.317.382-22.629 1.14-33.939 1.523-11.757.399-23.54.538-35.342-.506-6.974-.62-14.032-.95-21.035-1.469-5.524-.408-10.982-.55-16.496-.215-9.317.563-18.638 1.137-27.968 1.416-8.936.268-8.454-1.195-8.36 9.489.014 1.664.693 2.588 2.446 2.568 3.98-.043 7.951.072 11.936-.277 8.832-.773 17.703-1.606 26.557-1.034 8.702.56 17.442.963 26.12 1.13 25.884.497 51.785.1 77.68.074a10570 10570 0 0 1 45.048.038c3.885.012 8.515 3.382 10.113 7.367-2.413 0-4.702-.008-6.99.002-15.17.068-30.348-.173-45.507.279-28.179.837-56.332.947-84.52-.077-19.874-.722-39.8-.808-59.685.673-2.377.179-3.263 1.094-3.203 3.368.073 2.754-.068 5.514.017 8.266.1 3.18.194 3.209 3.524 3.251 4.592.06 9.24-.315 13.765.27 8.901 1.151 17.687.695 26.465-.776 4.73-.793 9.518-.885 14.175-.192 9.695 1.442 19.461 2.174 29.202 2.322 13.453.205 26.93.757 40.398-.611 5.306-.54 10.613-.96 15.907-1.702 6.491-.912 13.03-1.896 19.563-2.01 16.235-.285 32.48-.102 48.722-.088 4.552.004 8.503 3.104 10.2 8.12-1.46 0-2.829.011-4.198-.001-11.336-.109-22.674-.21-34.01-.336-11.179-.124-22.408-.057-33.429 1.627-11.673 1.784-23.396 2.543-35.124 3.17-10.084.539-20.223.248-30.333.058-6.107-.115-12.296-.218-18.288-1.253-9.612-1.66-19.148-1.77-28.708-.263-6.574 1.038-13.095.866-19.654.128-5.037-.569-10.08-.52-15.122-.023-1.678.167-3.009.755-3.02 2.735-.02 3.52-.028 7.04.005 10.562.013 1.25.715 2.087 1.99 2.005 4.018-.26 7.901.859 11.881 1.027 14.4.614 28.734-1.314 43.122-1.042.608.012 1.218-.13 1.83-.177 10.372-.8 20.765-1.235 31.163-.91 3.825.118 7.654.154 11.476.318 4.31.186 8.528-.56 12.79-.897 5.053-.398 10.074.585 15.105.702 10.414.244 20.84.22 31.257.063 7.497-.112 15.006-.4 22.476-1.015 6.674-.552 13.286-1.817 19.953-2.486 9.752-.98 19.555-1.027 29.348-1.183 1.327-.021 2.38.231 3.331 1.132 1.76 1.665 3.201 3.515 4.217 6.402-6.057-.582-11.47.897-16.975.776-9.819-.213-19.556 1.005-29.238 2.126-9.58 1.11-19.185 1.803-28.77 2.23-12.99.582-26.026.701-39.038-.439-4.86-.425-9.836-.418-14.685.094-6.74.71-13.438.674-20.176.348-11.03-.534-22.07.01-33.06.615-8.232.452-16.49.682-24.73 1.317-8.188.63-16.523.813-24.75-.58-1.793-.302-3.672-.061-5.509-.13-2.118-.08-3.13.877-3.052 3.01.034.917-.016 1.837-.022 2.755-.047 7.371-.033 7.193 7.403 7.816 11.452.962 22.885-.471 34.354.128 11.458.597 22.974.038 34.462.175 10.416.125 20.762-1.248 31.196-1.015 13.321.298 26.65.087 39.974-.61 10.531-.553 21.087-.448 31.637-1.018 9-.487 18.016-1.055 27.04-1.35 5.636-.184 11.363-.005 16.938-.79 8.725-1.226 17.442-.411 26.154-.731 1.243-.046 2.545-.044 3.387 1.024 1.568 1.983 3.382 3.848 4.241 7.118-2.255 0-4.043.072-5.824-.011-19.625-.919-39.126 1.983-58.723 1.878-.458-.001-.917.058-1.374.106-8.822.957-17.664 1.58-26.54 1.705-5.358.074-10.71.106-16.07.347-23.107 1.04-46.25.195-69.366 1.41-10.238.537-20.536.335-30.793.03-14.39-.428-28.806.717-43.175-.78-.757-.08-1.53-.034-2.296-.013-1.658.041-2.567.894-2.575 2.561-.025 5.054-.016 10.106-.027 15.159-.004 1.695.825 2.524 2.524 2.51.92-.009 1.84.007 2.758.033 11.477.326 22.862-.732 34.295-1.63 9.108-.714 18.281-1.38 27.486-1.222 15.47.262 30.947.032 46.42-.005 30.764-.072 61.528.653 92.273-1.6 9.738-.713 19.51-1.413 29.23-2.24 10.12-.86 20.196-.295 30.281-.688 1.242-.048 2.511-.031 3.323 1.116 1.396 1.976 2.774 3.974 3.005 6.409-1.18.81-2.257.438-3.305.447-9.65.084-19.322-.181-28.946.369-12.495.714-24.935 2.43-37.432 3.076-15.136.78-30.305.946-45.46 1.28-19.602.433-39.183-1.26-58.807-.306-12.69.615-25.43.168-38.145.418-9.018.178-18.027.654-27.004 1.685-8.354.958-16.714 2.024-25.16 1.082-1.515-.168-3.064-.018-4.596-.028-1.6-.01-2.69.586-2.7 2.355-.025 3.98-.028 7.96-.019 11.94.003 1.484.785 2.236 2.275 2.273 2.143.054 4.36-.21 6.415.248 6.622 1.473 13.092-.402 19.626-.632 4.556-.16 9.087-1.252 13.638-1.324 11.796-.19 23.603-.28 35.395.018 20.382.513 40.756.014 61.13-.196 7.017-.072 14.14-.185 21.065-1.063 9.611-1.217 19.232-.41 28.848-1.39 11.081-1.129 22.324-.594 33.49-.864 17.606-.423 35.205-1.537 52.83-1.231 6.742.115 6.746.03 9.1 6.436.098.267.053.588.107 1.312m-602.864 121.12c0-139.177-.005-323.534.014-462.713.001-8.01-1.029-7.132 7.055-7.132 204.403-.017 408.805-.014 613.207-.007 6.93 0 6.725-.764 6.725 6.712-.003 278.66-.003 648.079-.016 926.739 0 8.122.574 7.087-7.202 7.088q-306.142.031-612.285 0c-8.785-.001-7.476 1.063-7.478-7.58-.028-139.177-.02-323.93-.02-463.107"/><path d="M524.089 454.311c.036 18.64-.333 37.29.979 55.907.064.913.167 1.823.259 2.735.52 5.147 1.113 10.287 1.55 15.441.68 8.041 1.275 16.09 1.862 24.139.139 1.904 1.078 2.735 2.943 2.674 1.835-.06 3.672-.103 5.508-.111 3.419-.017 3.367-.05 3.576-3.571.184-3.1-1.043-6.032-.89-9.107.3-5.978-.674-11.906-1.218-17.8-.883-9.564-1.727-19.151-2.27-28.716-.665-11.722-1.718-23.464-1.193-35.248.239-5.343-.417-10.763.222-16.04 1.172-9.699 1.125-19.483 2.513-29.163.779-5.43.174-5.791-5.178-5.815-1.377-.007-2.756-.01-4.132.035-4.476.146-4.516.155-4.523 4.725-.022 13.305-.008 26.61-.008 39.915m-7.24-.222h-.014v-9.638c0-10.25.032-20.502-.017-30.753-.017-3.77-.26-3.997-3.828-4.074a197 197 0 0 0-10.105.036c-3.462.104-3.46.232-3.598 3.741-.31 7.807.965 15.536 1.15 23.328.088 3.607.345 7.318.834 10.911.558 4.107.299 8.267 1.017 12.298.94 5.281 1.083 10.624 1.427 15.915.417 6.387 1.233 12.74 1.397 19.16.258 10.066 1.297 20.116 1.48 30.183.164 9.004.636 18.045-.572 27.034-.286 2.126.714 3.107 2.868 3.115 3.212.012 6.394-.524 9.63-.272 2.789.218 2.723-.087 3.004-3.152.328-3.58-.968-6.951-.986-10.462-.046-9.016-1.77-17.899-2.072-26.906-.261-7.77-1.373-15.517-1.542-23.286-.271-12.388-.073-24.785-.073-37.178m96.578 30.851h-.01c0-20.496.003-40.993-.003-61.489-.001-1.682.102-3.385-.113-5.043-1.24-9.578 1.674-8.976-10.238-8.592-1.978.064-2.7.952-2.961 2.66-.161 1.055-.477 2.098-.538 3.157-.62 10.82-1.595 21.65-1.734 32.454-.226 17.561-.583 35.13.504 52.721.695 11.25 1.172 22.574 1.125 33.877-.025 5.97 1.566 11.823 1.034 17.818-.166 1.882.939 2.811 2.82 2.75 2.14-.071 4.28-.184 6.422-.254 3.549-.116 3.559-.107 3.68-3.522.038-1.069.01-2.14.01-3.212q.002-31.662.002-63.325m7.14-2.647h.096v50.956c.002 6.273.067 12.548-.011 18.82-.03 2.334.83 3.416 3.224 3.237 1.525-.114 3.06-.073 4.592-.105 5.164-.108 5.218-.109 5.178-5.49-.065-8.868.26-17.74-.436-26.604-.71-9.019.444-18.02.447-27.035.002-4.435.298-8.846.616-13.273.35-4.866.968-9.71 1.212-14.582.418-8.384 1.606-16.698 2.095-25.084.487-8.356 1.65-16.67 2.435-25.01.186-1.974.036-3.978.06-5.966.02-1.463-.616-2.329-2.132-2.385-5.204-.19-10.408-.342-15.611-.004-1.422.092-2.255.853-2.334 2.31-.058 1.07-.062 2.141-.095 3.212-.272 8.728.544 17.431.629 26.147.134 13.618.036 27.237.036 40.856m-48.67-12.244c.104 10.057.364 21.218.684 32.381.41 14.368 1.195 28.737 1.179 43.12-.003 2.614.473 5.166.878 7.736.24 1.53.954 2.112 2.409 2.076 4.747-.119 9.494-.218 14.24-.329 1.277-.03 2.003-.612 1.95-1.973-.03-.765-.03-1.53-.033-2.297-.055-9.936-1.07-19.816-1.672-29.721-.613-10.074-.351-20.172-.908-30.272-1.113-20.178.313-40.376.809-60.564.019-.763.102-1.533.248-2.281 1.008-5.162.3-10.393.649-15.58.115-1.715-.656-2.626-2.356-2.642-4.29-.04-8.58-.025-12.87-.05-1.758-.01-2.156.97-2.483 2.561-.715 3.476-.693 6.98-.992 10.475-.884 10.35-1.805 20.691-1.737 31.093.033 5.052.006 10.106.006 16.267m-29.426-6.73c-.847 11.176.653 22.285 1.105 33.418.389 9.577 1.909 19.104 2.45 28.68.493 8.686 1.194 17.346 1.936 26.008.33 3.846.28 3.903 3.856 3.92 3.826.019 7.652-.058 11.478-.124 3.823-.067 4.647-.849 4.049-4.679-1.445-9.242-.97-18.585-1.615-27.87-.656-9.436-.166-18.925-.687-28.405-.914-16.646-.316-33.333-.355-50.003-.003-1.219.19-2.437.272-3.658.62-9.439 1.219-18.879 1.868-28.316.119-1.722-.44-2.556-2.27-2.544-5.203.033-10.41-.112-15.61.001-3.372.072-3.608.31-3.6 3.818.01 4.9-.961 9.698-1.253 14.574-.517 8.666-1.74 17.29-1.63 26.002.039 3.06.006 6.118.006 9.177m-271.998 35.368h-.008l-.001-55.56c0-10.102.034-20.203-.03-30.305-.017-2.76-.504-3.087-3.293-3.08-2.766.007-3.001.318-3.305 3.113-1.261 11.563-1.052 23.201-1.632 34.796-.848 16.94-1.033 33.917-1.842 50.87-.525 11.003-.215 22.022-.573 33.04-.481 14.831-.284 29.687-.333 44.532-.091 27.243-.363 54.49-.157 81.73.18 23.7-.722 47.401.762 71.106.887 14.17 2.396 28.331 1.986 42.571-.044 1.519.326 3.045.364 4.572.048 1.89.906 2.802 2.809 2.783a913 913 0 0 1 9.649-.043c1.819 0 2.34-1.02 2.298-2.665-.181-7.035.17-14.125-.59-21.095-1.132-10.368-.298-20.774-1.4-31.152-.852-8.023-.621-16.189-.804-24.274-.3-13.149-1.195-26.279-1.201-39.434-.002-5.202-.034-10.395-.55-15.587-.804-8.088.065-16.229-.483-24.317-1.158-17.101-1.238-34.235-1.557-51.351-.437-23.41-.11-46.833-.11-70.25m7.242 7.525c.6 23.15-.682 53.593.664 84.045.889 20.151 1.176 40.338 1.896 60.507.69 19.401.912 38.817 1.93 58.211.417 7.932.479 15.889.724 23.825.39 12.678 1.554 25.333 1.217 38.047-.233 8.753-1.146 8.025 8.165 7.976 3.694-.019 3.926-.16 3.805-3.953-.198-6.25-.248-12.555-1.152-18.721-.716-4.886-.378-9.765-.953-14.63a228 228 0 0 1-1.464-19.175c-.211-6.413-.882-12.79-1.21-19.193-.555-10.826-1.545-21.638-1.57-32.486-.04-16.982.352-33.959.685-50.939.629-32.115.25-64.237 1.844-96.351.932-18.775.328-37.62.97-56.438.602-17.582.25-35.195.304-52.795.013-4.111-.011-4.136-3.942-4.356-1.987-.112-3.98-.156-5.97-.161-5.862-.013-5.926.001-5.931 5.736-.025 27.854-.012 55.708-.012 90.851m-58.88 220.987h-.074v45.462c0 1.224.033 2.45.014 3.673-.025 1.691.747 2.538 2.478 2.52 2.45-.024 4.902.043 7.352-.01 3.974-.086 3.98-.13 4.1-4.22.223-7.659-.435-15.296-.557-22.946-.981-61.212.67-122.442-1.23-183.65-.39-12.54.392-25.07.777-37.606.324-10.544 1.483-21.062 1.083-31.63-.03-.756.172-1.519.226-2.282.527-7.458 1.238-14.91 1.528-22.378.755-19.43-.173-38.87.032-58.306a96 96 0 0 0-.055-3.673c-.041-1.475-.793-2.225-2.294-2.25-3.37-.058-6.74-.249-10.105-.183-3.077.06-2.96.192-3.394 3.518-.956 7.345-.007 14.67.017 22.004.094 30.154.042 60.308.087 90.463.012 7.957-.398 15.9-.237 23.868.358 17.742.81 35.487 1.023 53.226.357 29.985.36 59.978-.704 89.963-.407 11.465-.066 22.957-.066 34.437m20.989-220.83c0 4.757.293 8.154-.055 11.485-.987 9.434-1.322 18.904-1.562 28.366-.43 16.828.574 33.652.686 50.471.334 50.358.194 100.72.054 151.08-.026 9.33 1.607 18.573.999 27.907-.01.152.013.306.008.458-.072 1.947.92 2.758 2.809 2.734 3.064-.038 6.129.041 9.19-.044 3.279-.092 3.92-.69 3.383-3.833-.654-3.814-.543-7.628-.542-11.447.002-7.653-.805-15.269-1.17-22.9-.53-11.138-1.627-22.247-1.614-33.418.034-28.165-.042-56.33.035-84.494.042-15.916.185-31.828.639-47.745.909-31.809-.246-63.643 1.054-95.464.474-11.599 1.57-23.2 1.114-34.837-.03-.756.14-1.522.239-2.28 1.26-9.724-.02-19.577 1.482-29.29.023-.149-.005-.306.004-.458.104-1.927-.823-2.787-2.736-2.78-2.91.01-5.822-.15-8.73-.058-3.152.099-3.294.212-3.294 3.537 0 7.804-.31 15.642.303 23.403 1.09 13.795-.108 27.538-.52 41.278-.296 9.897-1.163 19.808-1.776 28.33m81.985 160.495c.132 13.387.286 29.132.742 44.885.482 16.655 1.578 33.31 1.149 49.995-.117 4.581.27 9.174.327 13.764.028 2.248.879 3.451 3.26 3.363 1.682-.062 3.37.014 5.054-.012 4.354-.066 4.296-.075 4.338-4.294.068-6.887-.574-13.739-.86-20.605-.58-13.889-1.077-27.778-1.792-41.664-.621-12.061-.867-24.168-.593-36.239.184-8.102.373-16.207.46-24.313.009-.765-.004-1.534.073-2.293 1.41-14.015.966-28.104 1.614-42.152.64-13.898-.022-27.85.163-41.774.395-29.673-.457-59.342.639-89.03.722-19.539 1.514-39.145.435-58.733-.472-8.573-.351-8.58-9.08-8.088-3.584.202-4.12.461-4.022 4.026.27 9.804-1.31 19.534-.995 29.331.368 11.481-1.445 22.903-.95 34.387.013.305.009.62-.05.916-1.61 8.303-1.52 16.804-1.553 25.122-.126 30.435-.737 60.873.404 91.323.624 16.639 1.61 33.3 1.26 49.98-.14 6.576-.023 13.16-.023 22.105m-8.93-123.87h-.154c0-12.095-.133-24.19.046-36.282a422 422 0 0 1 1.095-24.749c.797-10.823 1.236-21.659 1.574-32.498.3-9.63-.293-19.279.859-28.895.326-2.717.055-5.505.086-8.26.019-1.662-.587-2.523-2.428-2.494-3.061.05-6.127-.18-9.188-.124-3.16.057-3.437.37-3.68 3.356-.185 2.286-.372 4.58-.393 6.871-.213 23.105.269 46.212-.855 69.315-.662 13.588.143 27.212-.877 40.828-.786 10.504-.401 21.08-.856 31.631-.938 21.706.089 43.448-.782 65.182-.668 16.663-.278 33.367-.34 50.053-.004 1.528.108 3.058.197 4.585.53 9.143 1.218 18.28 1.554 27.431.225 6.11.836 12.201 1.317 18.271.362 4.556.14 9.165.905 13.691 1.019 6.034.886 12.17 1.329 18.245.409 5.617 1.623 11.206 1.17 16.891-.15 1.873.8 2.843 2.735 2.814 1.99-.03 3.983.01 5.975-.014 4.565-.055 4.75-.073 4.517-4.544-.782-14.98-.23-29.974-.91-44.973-.785-17.26-.883-34.574-1.095-51.864-.395-32.275.104-64.556-1.688-96.819-.694-12.513-.113-25.097-.113-37.649m49.486-118.436c0-3.369.022-6.737-.005-10.105-.037-4.617-.115-4.712-4.517-4.79a247 247 0 0 0-9.193-.009c-4.355.084-4.568.276-4.637 4.797-.396 26.311-.321 52.623-.888 78.94-.783 36.267-.196 72.564-.197 108.847 0 4.59-.233 9.168-.418 13.752-.85 21.088-1.754 42.181-2.082 63.28-.202 12.99.597 25.996.949 38.994.008.306.032.611.047.917.502 10.07 1.028 20.136 1.497 30.207.392 8.393 1.299 16.766 1.07 25.186-.011.457.1.916.096 1.374-.021 2.17 1.157 2.961 3.195 2.927 2.757-.045 5.518.064 8.272-.032 3.149-.109 3.093-.176 3.174-3.573.135-5.666-.687-11.288-.834-16.92-.26-9.935-.65-19.895-1.308-29.775-1.062-15.902-.23-31.809-1.34-47.71-1.053-15.091.21-30.228 1.44-45.34.839-10.327 2.133-20.599 3.2-30.889.928-8.957 1.589-17.937 2.33-26.899.692-8.362.797-16.82.873-25.2.164-18.057 1.609-36.082 1.156-54.146-.112-4.437.024-8.879.004-13.319-.038-8.266.278-16.558-.255-24.793-.771-11.902-1.041-23.817-1.63-35.721m22.95 97.881c0-27.562.066-55.125-.037-82.687-.033-8.876-.485-17.752-.794-26.626-.11-3.162-.281-3.335-3.48-3.45-2.754-.1-5.515-.013-8.273-.017-2.003-.003-3.136.76-3.108 2.986.106 8.42-.294 16.871.298 25.253.722 10.222 1.21 20.467 1.358 30.678.279 19.12.149 38.247-.488 57.386-.54 16.2-1.242 32.418-1.242 48.646 0 5.942-.607 11.895-1.15 17.823-.707 7.736-1.665 15.448-2.443 23.178-.763 7.575-1.47 15.155-2.138 22.738-.562 6.38-1.467 12.769-1.458 19.152.02 14.071-.202 28.133.568 42.223.717 13.115.702 26.297 1.093 39.449.236 7.951 1.09 15.86 1.246 23.821.08 4.087.65 8.205.717 12.336.047 2.998.52 3.439 3.526 3.521 3.675.101 7.356-.038 11.032.026 2.116.038 3.093-.798 3.046-2.973-.052-2.447.06-4.898.117-7.346.56-23.863 1.25-47.723 1.638-71.588.247-15.156-.087-30.32.095-45.478.117-9.807-.95-19.59-.598-29.376 1.188-33.22-.001-66.454.476-99.675M60.68 594.044v21.125c0 52.97-.001 105.938.008 158.907 0 4.731.03 4.796 4.345 4.797q70.783.012 141.565-.026c4.828-.003 4.917-.14 4.96-4.863.354-37.949-.224-75.895.739-113.853.718-28.283.152-56.609-.461-84.926-.712-32.882-1.105-65.81.63-98.696.415-7.829-.95-15.568-.918-23.376.048-11.788.009-23.576-.083-35.363-.062-7.877 1.338-8.097-7.915-8.092-45.653.03-91.306.083-136.96.146-6.69.01-5.895-.207-5.896 6.027-.016 59.397-.01 118.795-.014 178.193m594.958 224.39h-.173c0-24.192-.003-48.385 0-72.577l.048-238.88q.01-46.398 0-92.796c0-4.219-.822-4.916-4.738-4.644-1.867.13-2.846.973-3.035 2.748-.195 1.823-.295 3.657-.431 5.486-.354 4.722-.406 9.49-1.122 14.156-1.252 8.157-1.67 16.398-2.356 24.585-.751 8.96-1.722 17.911-2.232 26.905-.762 13.436-2.01 26.85-1.17 40.311.525 8.417.38 16.831.55 25.247.052 2.591-1.453 6.053 2.979 6.904.289.056.508 1.066.558 1.65.105 1.218.096 2.447.097 3.671.004 39.508-.036 79.016.072 118.524.009 3.411-1.596 6.595-1.017 9.976.882 5.152.659 10.371 1.124 15.534 1.233 13.702 1.85 27.45 2.346 41.172.59 16.361.453 32.751.975 49.13.689 21.574.215 43.165.817 64.755.785 28.154.005 56.329-1.374 84.47-.412 8.41-.091 16.825-.692 25.241-.992 13.91-.264 27.86-.433 41.791-.017 1.378-.053 2.756-.043 4.133.016 1.96-1 2.593-2.876 2.666-3.866.15-4.248-.104-4.337-3.868-.018-.766-.001-1.532-.003-2.297-.048-25.699.422-51.377 1.717-77.052.67-13.293.547-26.642.356-39.958-.57-39.648.53-79.31-1.134-118.95-.57-13.604.268-27.226-.754-40.854a619 619 0 0 1-1.166-19.657c-.373-8.689-.521-17.395-1.691-26.036-.641-4.736-.596-4.745-5.543-4.645-.92.018-1.838.075-2.757.098-1.938.05-2.744 1.081-2.594 2.958.208 2.59.659 5.19.575 7.771-.337 10.268 1.325 20.47.914 30.734-.018.456.032.919.087 1.374 1.198 9.874 1.703 19.807 1.676 29.73-.054 19.739.528 39.482-.54 59.221-.941 17.42.29 34.886-1.114 52.325-.76 9.431-.32 18.944-.8 28.43-.556 10.986-1.65 21.931-2.241 32.913-.22 4.081-.347 8.25-.978 12.3-.945 6.053-1.263 12.186-1.451 18.228-.497 15.91-.18 31.845-.144 47.77.004 1.517.227 3.047.473 4.551.732 4.478.1 5.12-4.378 4.925-1.903-.084-2.834-.814-2.963-2.66-.128-1.829-.405-3.66-.366-5.485.372-17.43-.787-34.866.774-52.308.828-9.26 1.053-18.589 1.875-27.876 1.13-12.775 2.44-25.576 2.624-38.38.18-12.705 1.216-25.367 1.188-38.072-.033-14.232.405-28.465.612-42.691.414-28.44.86-56.898-1.373-85.334-.715-9.109-1.465-18.31-1.102-27.504.134-3.384-.344-6.704-.733-10.048-.221-1.908-.933-2.766-2.841-2.725-2.604.055-5.212-.015-7.815.064-3.433.104-3.48.15-3.555 3.76-.091 4.439.176 8.903-.201 13.315-1.267 14.808-.572 29.665-1.312 44.497-.585 11.743-1.73 23.502-1.286 35.296.029.76-.125 1.525-.165 2.29-.52 10.077-1.453 20.155-1.451 30.233.004 14.854-1.513 29.663-1.008 44.52.015.457.003.923-.067 1.375-1.801 11.391-.965 22.918-1.47 34.366-.616 14.041-1.853 28.1-1.301 42.19.035.911-.106 1.832-.18 2.748-.924 11.618-1.075 23.276-.293 34.877.907 13.468.033 26.95.912 40.402.029.456.01.922-.044 1.376-.097.814-.483 1.35-1.34 1.621-3.263 1.035-5.04-.202-5.368-3.613-1.413-14.653-1.076-29.372-1.342-44.05-.324-17.88.089-35.784 1.313-53.662.595-8.683.182-17.418.884-26.136.66-8.213.496-16.49.81-24.734.484-12.68 1.155-25.388 1.05-38.083-.104-12.403 1.614-24.731 1.119-37.132-.02-.456.03-.918.086-1.374 1.277-10.637 1.113-21.361 1.51-32.03.55-14.823 1.556-29.654 1.127-44.508-.021-.758.117-1.523.198-2.283.764-7.167.793-14.358.623-21.55-.08-3.362-.403-3.653-3.751-3.709a367 367 0 0 0-12.412.028c-3.985.068-3.971.115-4.087 4.183-.356 12.525.119 25.04-.774 37.593-.823 11.568-.84 23.247-.93 34.87-.298 38.432-.408 76.863-.888 115.297-.554 44.402-.193 88.815-.234 133.222a137 137 0 0 1-.11 5.51c-.032.76-.226 1.491-.972 1.947-2.613 1.6-6.034-.058-6.167-3.005-.02-.459-.01-.919-.006-1.378.164-33.685-.383-67.374.377-101.055.64-28.325.78-56.654.54-84.98-.287-34.148.698-68.278.995-102.416.012-1.376.056-2.76.226-4.123 1.348-10.838.37-21.72.672-32.577.056-2.022-.605-3.185-2.856-3.155-5.364.071-10.727.076-16.091.058-1.938-.007-2.798.906-2.768 2.789.01.611-.052 1.225-.042 1.836.252 14.828.255 29.652 1.244 44.472.855 12.801 1.399 25.643 1.824 38.458.642 19.394.758 38.85.002 58.234a2010 2010 0 0 0-1.475 60.56c-.206 23.098-.551 46.203.508 69.321.806 17.575.188 35.213.197 52.824 0 .917-.032 1.836-.111 2.75-.072.837-.563 1.349-1.378 1.616-3.518 1.15-5.618-.219-5.712-3.838-.076-2.907-.018-5.818-.054-8.728-.21-16.68-.103-33.361-.478-50.048-.626-27.845-1.16-55.713.385-83.566.524-9.462.383-18.947.84-28.43.79-16.339-.001-32.735.964-49.097.278-4.718-.986-9.416-.777-14.19.43-9.798-1.52-19.525-.988-29.334.009-.152-.02-.305-.031-.458-.921-12.807-1.582-25.624-1.782-38.468-.123-7.954-.601-15.9-.82-23.854-.06-2.218-1.058-2.866-3.135-2.865-2.175.002-2.513 1.191-2.492 2.935.028 2.45.116 4.911-.075 7.348-.72 9.145-1.068 18.317-1.53 27.47-.353 7.017-1.157 14.001-1.363 21.036-.147 5.013-.261 10.11-1.027 15.067-.89 5.758-.893 11.557-1.39 17.321-.495 5.762-1.098 11.534-1.331 17.342-.358 8.983-1.63 17.927-1.624 26.948.013 20.21.036 40.42-.008 60.63-.025 11.323 1.569 22.589 1.046 33.932-.155 3.352.059 6.734.299 10.088.832 11.592.85 23.217 1.318 34.821.406 10.076 1.535 20.144 1.086 30.255-.034.756.085 1.533.235 2.28 1.49 7.399-.013 14.994 1.477 22.392.059.293-.01.61-.02.917-.066 2.237-1.672 2.278-3.251 2.173-1.532-.102-3.645.7-3.854-1.964-.25-3.197-1.1-6.319-.972-9.573.124-3.209.362-6.49-.133-9.633-1.41-8.96-1.001-18.012-1.504-27.004-.905-16.176-1.344-32.392-1.781-48.59-.396-14.683-.963-29.37-1.123-44.056-.204-18.669-.642-37.336-.158-56.015.202-7.802 1.504-15.533 1.169-23.35-.026-.603.124-1.217.227-1.82.897-5.274.903-10.637 1.337-15.945.434-5.31.699-10.699 1.27-15.97 1.152-10.629 1.48-21.308 2.37-31.946.75-8.95 1.57-17.975 1.166-27.014-.068-1.519-.003-3.094.327-4.569.918-4.103.344-8.242.54-12.359.116-2.439-1.077-3.17-3.352-3.134-4.596.073-9.195-.057-13.792-.05-4.052.006-4.007.039-4.154 4.061-.226 6.136.899 12.234.852 18.312-.174 22.351.776 44.69.282 67.047-.62 28.006.093 56.025-1.02 84.04-.801 20.182-.426 40.408-.66 60.61-.354 30.615-1.303 61.224-1.286 91.843 0 1.53-.024 3.061-.052 4.593-.013.775-.056 1.721-.767 2.048-1.73.797-3.65.74-5.381.162-1.443-.482-1.03-2.068-1.02-3.223.09-9.029-.131-18.055.506-27.087 1-14.217-.145-28.488.527-42.705 1.463-30.905.844-61.838 1.46-92.754.923-46.228.205-92.487.327-138.732.023-8.736-1.05-17.394-1.244-26.119-.114-5.16-.275-10.394-.775-15.558-1.005-10.358-1.536-20.737-1.683-31.13-.231-16.376.398-32.722 1.657-49.059.705-9.143.778-18.337 1.02-27.51.137-5.206.592-10.396.752-15.587.31-10.096.827-20.267-.05-30.293-.758-8.69-.39-17.399-1.367-26.089-.66-5.874-1.183-11.845-1.407-17.81-.136-3.63-.081-7.402-.833-10.94-1.124-5.291-.931-10.662-1.397-15.958-.52-5.9-1.3-11.819-1.334-17.8a109 109 0 0 0-.951-13.704c-.981-7.328-.013-6.424-6.967-6.58-1.38-.032-2.76.038-4.138.014-2.084-.038-3.085.945-3.131 3.037-.076 3.521-.292 7.04-.327 10.56-.147 14.842.2 29.672.72 44.51.355 10.082 1.682 20.131 1.188 30.246-.03.605.104 1.219.164 1.828 1.227 12.374.909 24.8.299 37.154-.414 8.376-.612 16.785-1.332 25.171-.611 7.122-.976 14.332-1.296 21.506-.265 5.94-.41 11.917-.904 17.848-.874 10.516-1.484 21.053-1.598 31.587-.121 11.156-.312 22.31.674 33.49.993 11.26.39 22.621.83 33.946.61 15.728.55 31.477 2.026 47.175.799 8.498.905 17.081 2.085 25.52 1.229 8.785 1.862 17.631 2.389 26.428.585 9.752 1.246 19.536 1.163 29.35-.228 26.943-.508 53.887-.736 80.828-.295 34.722-1.373 69.488 1.579 104.175.358 4.202-.777 5.096-5.065 4.557-1.243-.157-2.135-.567-2.08-1.894.14-3.397-.99-6.691-.927-10.034.246-13.174-1.033-26.296-1.037-39.469-.012-36.138.35-72.269.907-108.402.207-13.472-.028-26.95.08-40.426.049-6.132-.621-12.235-1.181-18.287-.815-8.805-1.416-17.639-2.338-26.442-1.142-10.905-2.247-21.854-2.72-32.803-.396-9.155-1.438-18.276-1.213-27.48.334-13.772-1.361-27.52-.841-41.309.017-.456-.043-.917-.088-1.374-1.481-14.973-.96-29.971-.477-44.96.369-11.458 1.089-22.904 1.432-34.362.196-6.574.924-13.111 1.309-19.665.278-4.723.125-9.494.753-14.18 1.078-8.045 1.375-16.147 1.567-24.218.457-19.272-.714-38.514-1.475-57.77-.544-13.74-1.49-27.497-1.165-41.276.162-6.887.132-13.78.116-20.671-.007-3.373-.227-3.53-3.635-3.836a20 20 0 0 0-1.837-.057c-8.291.03-6.624.282-6.717 6.713-.36 24.947.66 49.904-.616 74.846-.687 13.443-.315 26.903-1.051 40.367-.824 15.097-1.207 30.232-1.82 45.35-.42 10.385-.93 20.785-1.087 31.189-.275 18.074.48 36.126.904 54.184.34 14.511-.736 29.024.803 43.546.819 7.722.582 15.583.834 23.376.548 16.965 1.114 33.925 1.926 50.881.446 9.317.333 18.649.844 27.984.753 13.74.77 27.535.87 41.289.393 54.358.16 108.722.154 163.084 0 1.224-.034 2.45-.086 3.673-.033.767-.111 1.66-.844 2.01-1.582.751-3.32.578-4.953.24-1.666-.347-1.177-1.89-1.292-3.036-.06-.608-.017-1.225-.016-1.837.014-16.845.118-33.69.025-50.533-.23-41.335.755-82.679-.655-124-.485-14.223-.087-28.44-.943-42.679-.991-16.467-1.204-32.994-1.932-49.493-.79-17.868-1.19-35.757-1.803-53.635-.567-16.513-.688-33.053-.99-49.581-.451-24.789.207-49.566 1.608-74.334.845-14.954 1.53-29.946 1.77-44.908.305-18.828 1.064-37.649 1.08-56.482.014-16.232.006-32.464.007-48.695 0-10.33 0-10.33-10.352-9.285a4 4 0 0 1-.46.024c-1.571-.05-2.087.796-2.177 2.27-.212 3.508-.767 7.007-.79 10.512-.104 16.84-.544 33.673-.846 50.508-.583 32.452-.64 64.916-.858 97.373-.465 68.907-.198 137.818-.177 206.727.008 29.4-.023 58.803.284 88.2.295 28.161 1.013 56.317 1.53 84.475.122 6.582-.161 13.19.345 19.741 1.18 15.291-.138 30.614.903 45.9.183 2.693-.351 2.952-3.328 2.953-2.928.002-3.1-.215-3.378-2.959-1.677-16.478-.674-33.039-1.636-49.553-.89-15.265-.34-30.594-.866-45.906-.828-24.014-.913-48.071-.97-72.096-.25-106.113-.524-212.228.585-318.342.373-35.672 1.656-71.337 1.133-107.019-.047-3.207.282-6.42.457-9.629.122-2.25-.795-3.464-3.177-3.433-3.371.043-6.746-.076-10.112.046-2.946.107-3.741.671-3.78 3.452-.074 5.66-1.083 11.275-.674 16.951.208 2.897.504 5.801.485 8.7-.207 30.774.483 61.551-.498 92.325-.79 24.797-.318 49.61-.353 74.417-.004 2.446.23 4.893.324 7.34.509 13.292 1.55 26.563 1.504 39.877-.027 7.656.176 15.318-.043 22.968-.417 14.551.527 29.067 1.122 43.581.224 5.478.41 11 .918 16.468.962 10.364 1.558 20.758 1.59 31.14.078 24.945.45 49.892-.731 74.838-.462 9.764-1.591 19.526-1.084 29.333.016.302-.028.612-.073.914-1.533 10.344-1.334 20.83-1.07 31.163.398 15.442.244 30.895.932 46.349.815 18.321 1.8 36.686 1.186 55.06-.093 2.752-.006 5.512-.011 8.267-.001.92.048 1.847-.061 2.754-.321 2.701-1.075 3.042-4.534 3.036-2.383-.002-2.684-1.143-2.66-3.152.328-26.48-.741-52.927-1.628-79.388-.882-26.308-.374-52.649.777-78.961.027-.612.029-1.228.113-1.833 1.308-9.41 1.537-18.934 1.523-28.366-.04-26.318.948-52.643-.577-78.968-.467-8.069-.935-16.171-1.327-24.252-.525-10.832-1.202-21.665-1.55-32.507-.641-20.03.279-40.065-.746-60.124-.873-17.096-1.375-34.25-1.221-51.407.184-20.517.613-41.028.849-61.542.319-27.713.217-55.433.087-83.148-.033-6.88-.62-13.755.057-20.634.075-.757-.01-1.53-.013-2.295-.006-1.5-.732-2.236-2.256-2.233-2.145.004-4.29-.07-6.436-.058-4.57.028-4.5.046-4.74 4.548-.461 8.583.422 17.138.402 25.714-.128 53.284.63 106.57-.49 159.851-.267 12.708.276 25.405.323 38.102.11 29.691.678 59.378-.455 89.084-.636 16.653-1.2 33.344-1.194 50.032.019 56.352.04 112.704-.01 169.057-.018 20.515-1.311 41.013-.986 61.535.02 1.218-.128 2.446-.282 3.659-.884 6.965-1.558 13.913-1.517 20.975.163 28.481.073 56.965.05 85.447-.002 4.602-.06 4.604-4.54 4.669-1.072.017-2.145.007-3.218.008-25.746.007-51.493.02-77.24.02-78.924.002-157.85 0-236.775.004-5.521 0-5.521.012-5.536 5.494q-.002 1.148 0 2.296c0 30.167-.01 151.094.008 181.261.004 7.11-.718 6.52 6.308 6.52q291.027.009 582.054.005c1.073 0 2.149-.067 3.217.002 2.304.147 3.417-.813 3.346-3.19-.07-2.296.02-4.594.02-6.89zm-611.427.135c0-139.179-.005-278.359.014-417.538 0-8.003-.955-7.13 7.084-7.13q306.16-.024 612.32 0c8.475 0 7.584-1.01 7.584 7.615.01 278.512.007 647.783-.001 926.295-.001 7.37.64 6.636-6.694 6.637q-306.85.018-613.7-.001c-7.465 0-6.594.705-6.595-6.662-.016-139.485-.012-369.73-.012-509.216"/><path d="M1653.837 631.094c-7.595-.85-16.26.632-24.964.96-3.794.142-7.64.46-11.404.973-15.564 2.12-30.608 6.904-46.145 9.218-2.156.321-3.623 1.57-3.82 3.911-.32 3.821-1.441 7.48-2.248 11.203-.665 3.067-.515 3.29 2.455 2.56 13.487-3.319 26.96-6.69 40.437-10.055 9.792-2.446 19.647-4.302 29.819-4.108 10.388.197 20.764-.263 31.16.836 7.568.798 15.134 1.54 22.668 2.62 9.203 1.318 18.353 2.928 27.473 4.728 2.708.534 3.353-.005 3.457-2.68.094-2.443-.036-4.895-.063-7.34-.023-2.099-.892-3.24-3.107-3.809-21.19-5.434-42.518-9.794-65.718-9.017m-106.558 57.946c1.376.667 2.07.176 2.767-.034 16.096-4.844 32.449-8.806 48.4-14.135a88 88 0 0 1 20.112-4.18c5.614-.5 11.244-.93 16.885-1.228 11.289-.598 22.549-1.644 33.87-1.746 11.787-.106 23.528.184 35.079 2.856 5.207 1.204 10.412 2.417 15.593 3.723 1.969.496 2.899.045 2.83-2.108a129 129 0 0 1-.02-7.345c.059-2.194-.821-3.082-3.078-3.642-16.316-4.039-32.91-6.34-49.584-8.066-11.27-1.167-22.61-1.312-33.932-.948-4.555.147-9.103.855-13.633 1.473-7.274.994-14.298 3.122-21.4 4.905-12.435 3.124-24.884 6.2-37.322 9.316-1.528.382-2.782 1.154-3.576 2.631-3.551 6.603-7.743 12.775-12.991 18.528m178.367 208.397c0-10.163.004-19.295-.007-28.426-.002-1.125-.601-2.023-1.242-2.9-3.922-5.367-8.596-10.075-14.098-13.695-11.061-7.276-23.63-9.659-36.641-10.018-2.571-.07-5.153.675-7.742.808-10.37.53-20.75 1.03-30.992 2.814-12.144 2.116-23.816 5.842-34.285 12.43-17.962 11.304-29.444 27.7-36.198 47.602-2.827 8.325-3.46 17.006-4.12 25.671-.37 4.877-1.04 9.822-.22 14.654 1.125 6.621 1.799 13.315 2.388 19.954.972 10.97 5.134 20.295 11.715 28.845 2.657 3.454 5.694 6.433 9.51 8.505 5.112 2.776 10.299 5.427 15.777 7.423 2.294.836 4.624 1.771 7.015 2.102 9.087 1.256 18.257 1.621 27.415 1.83 4.266.097 8.547-.72 12.819-.704 7.353.027 14.58-1.066 21.864-1.76 10.907-1.04 20.749-4.97 30.309-9.898 3.687-1.9 6.845-4.447 9.8-7.446 6.216-6.306 10.78-13.68 14.95-21.355 1.153-2.123 2.769-4.174 2.786-6.715.07-10.189.03-20.38.03-31.422-1.384 1.85-1.604 3.165-1.926 4.464-2.33 9.38-5.358 18.52-10.086 26.987-3.972 7.111-8.748 13.513-15.28 18.684-6.85 5.421-14.24 9.292-22.661 11.595-10.508 2.872-21.004 5.2-32.02 4.847-5.68-.18-11.214-.963-16.788-1.882-12.231-2.014-24.175-5.126-35.886-9.112-5.611-1.909-10.238-5.363-13.985-10.02-6.02-7.48-8.257-16.219-8.712-25.56-.163-3.36-.175-6.727-.293-10.089-.314-8.863-.29-17.87 1.902-26.422 8.015-31.254 28.164-51.067 58.877-60.34 7.166-2.165 14.639-2.73 22.028-3.797 6.835-.986 13.42-.273 20.027.712 6.048.902 11.843 3.03 17.59 5.118 12.962 4.711 22.989 13.078 30.433 24.637 2.236 3.472 3.8 7.281 5.947 11.88m1.608 120.465c-1.725-.126-2.278.406-2.838.934-4.818 4.537-10.273 8.22-15.84 11.747-6.117 3.877-12.622 6.864-19.762 8.302-4.183.842-8.392 1.561-12.578 2.392-10.042 1.993-20.086 3.968-30.414 3.18-9.772-.745-19.558-1.22-29.352-.85-4.486.168-8.876-.512-13.212-1.206-15.505-2.482-28.043-10.96-39.775-20.719-5.73-4.764-9.095-11.468-12.983-17.69-6.435-10.298-10.085-21.472-10.886-33.63-.38-5.766-1.37-11.487-1.992-17.237-.671-6.208-1.724-12.398-1.36-18.676.159-2.74.675-5.467.762-8.207.25-7.809 1.372-15.453 3.53-22.978 2.16-7.53 5.78-14.477 8.404-21.814 4.423-12.369 12.056-22.677 21.05-31.943 7.81-8.045 16.985-14.509 26.72-20.075 7.884-4.506 16.276-7.747 25.328-9.093 7.83-1.165 15.648-2.426 23.483-3.557 6.524-.94 13.06-1.487 19.63-.262 1.34.25 2.753.237 4.123.17 4.01-.2 7.92.674 11.813 1.291 7.992 1.268 15.739 3.701 23.598 5.61 4.975 1.207 9.572 3.09 13.863 5.871 1.972 1.277 4.28 4.196 6.124 2.986 1.977-1.298.483-4.812.768-7.337.228-2.012-.95-3.1-2.524-3.95-3.232-1.743-6.395-3.63-9.707-5.204-9.3-4.413-19.084-7.447-29.203-9.192-7.508-1.294-15.105-2.82-22.758-1.953-7.577.86-15.194 1.151-22.756 2.44-13.121 2.234-26.101 4.92-38.638 9.403-10.194 3.645-19.567 8.714-26.923 16.947-6.227 6.97-12.087 14.23-17.291 21.991-9.064 13.515-16.651 27.801-22.432 43.045-2.878 7.588-5.465 15.21-6.723 23.271-1.18 7.56-1.238 15.183-1.857 22.77-1.036 12.69.887 25.017 3.72 37.206 3.194 13.745 10.233 25.915 17.949 37.491 6.138 9.211 14.345 16.493 24.45 21.718 10.456 5.408 21.348 9 32.895 10.895 6.03.99 12.126 1.311 18.183 1.978 6.98.767 13.916 1.748 20.968 1.656 7.81-.1 15.626-.087 23.437-.008 11.438.115 22.42-2.34 33.278-5.615 10.265-3.097 18.215-9.857 26.274-16.452.86-.705 1.449-1.58 1.45-2.744.007-4.24.004-8.48.004-12.902m-2.788-162.737.97-.39c0-3.473-.007-6.945.004-10.417.003-1.372-.73-2.32-1.782-3.032-6.695-4.525-12.942-9.869-21.274-11.373-2.094-.378-4.15-1.025-6.186-1.66-13.712-4.284-27.768-5.692-42.082-5.372-9.041.202-17.91 1.736-26.77 3.197-5.541.914-11.132 1.886-16.438 3.996-13.44 5.343-25 13.468-35.341 23.457-7.334 7.083-13.551 15.017-17.784 24.314-3.103 6.82-5.893 13.791-8.57 20.792-4.017 10.508-6.032 21.414-5.907 32.696.088 7.936-.18 15.87.992 23.78 1.139 7.685 1.094 15.637 3.025 23.096 4.775 18.445 12.949 34.977 29.944 45.553 2.34 1.457 4.673 2.93 6.959 4.467 3.587 2.411 7.455 4.142 11.587 5.44 7.359 2.312 14.903 3.292 22.563 3.48 10.867.265 21.752-.402 32.607.657 1.972.193 4.012.247 5.964-.029 10.723-1.514 21.376-3.466 31.905-5.984 15.067-3.605 26.337-13.174 36.775-23.95 1.397-1.444 1.564-3.207 1.507-5.112-.158-5.355-.202-10.714-.34-16.069-.021-.814.412-1.897-.846-2.287-1.095.507-1.325 1.642-1.89 2.513-4.446 6.861-9.448 13.45-16.16 18.026-12.706 8.66-26.94 13.47-42.378 14.791-5.333.456-10.692.516-15.993 1.127-9.33 1.074-18.682.866-27.984.346-4.542-.252-9.146-.379-13.698-1.058-7.85-1.17-14.914-4.432-21.934-7.809-15.761-7.582-24.621-20.593-28.645-37.182-1.652-6.808-2.267-13.804-3.022-20.774-1.51-13.934-.647-27.747 1.594-41.514 1.57-9.642 5.397-18.55 10.163-26.903 10.709-18.768 25.57-32.953 46.312-40.535 9.973-3.646 20.098-6.516 30.627-7.397 6.527-.547 13.108-.95 19.649-1.402 7.96-.55 15.808-1.029 23.727.241 11.026 1.767 21.44 5.006 30.408 11.935 2.638 2.04 5.165 4.226 7.742 6.345m2.832 187.117c-2.155.164-2.934 1.205-3.85 1.971-13.865 11.592-30.52 15.856-47.918 17.527-8.957.861-18.046.358-27.076.61-7.448.21-14.95-.245-22.404-1.262-7.397-1.01-14.951-.962-22.302-2.185-12.396-2.063-24.357-5.695-35.558-11.627-11.62-6.152-21.336-14.532-28.334-25.546-9.624-15.147-17.92-31.01-20.138-49.235-.828-6.795-2.488-13.472-2.18-20.438.237-5.35 1.049-10.664 1.07-16.002.04-10.645 1.846-20.967 5.208-31.012 8.892-26.562 22.458-50.494 40.54-71.913 9.886-11.709 22.239-19.422 36.752-24.02a238 238 0 0 1 32.03-7.788c7.655-1.304 15.386-2.425 23.126-2.878 6.68-.39 13.4-.24 20.148.562 8.85 1.052 17.468 2.817 25.889 5.61a165 165 0 0 1 19.14 7.717c3.809 1.817 3.996 1.67 3.96-2.672-.017-2.14-.365-4.296-.21-6.419.216-2.908-1.161-4.344-3.622-5.623-8.053-4.184-16.768-6.639-25.125-10.017-11.785-4.763-23.846-4.673-36.084-2.988-7.695 1.06-15.361 2.335-23.054 3.406-9.96 1.387-19.976 2.505-29.78 4.735-24.304 5.527-44.46 17.57-59.105 38.17-8.147 11.46-13.345 24.414-19.063 37.08-5.034 11.145-8.928 22.812-14.125 33.875-7.041 14.984-7.843 30.723-6.607 46.668.6 7.721 1.348 15.481 2.45 23.193 1.669 11.653 3.877 23.188 7.189 34.45 4.676 15.905 13.569 29.316 25.54 40.77 8.527 8.157 17.816 14.944 29.483 17.905 1.475.374 2.859 1.091 4.302 1.602 9.799 3.46 19.599 6.674 30.09 7.736 6.34.641 12.707 1.742 19.05 2.256 5.609.454 11.257 1.735 16.915 1 9.234-1.2 18.542-1.462 27.797-2.468 12.05-1.31 23.855-3.389 35.332-7.31 6.122-2.092 11.76-5.168 17.398-8.254 1.612-.882 3.155-1.93 3.137-4.152-.035-4.248-.011-8.497-.011-13.034m37.105 17.824-.46-.828c-1.265.435-2.526.885-3.797 1.301-9.45 3.091-18.956 5.968-28.746 7.801-1.683.315-3.56 1.527-4.46-1.288-.297-.935-1.282-.416-1.96-.074-2.05 1.032-4.067 2.134-6.15 3.093-10.903 5.024-22.373 8.164-34.203 10.002a270 270 0 0 1-15.897 1.978c-6.99.663-13.998 1.101-20.998 1.641-5.202.403-10.414.508-15.598-.029-6.967-.72-13.9-1.777-20.871-2.438-5.625-.534-11.196-1.294-16.707-2.519-9.143-2.033-17.757-5.679-26.584-8.676-4.057-1.378-8.144-2.703-11.81-4.994-13.19-8.24-23.712-19.223-32.608-31.853-1.055-1.497-1.96-3.105-2.872-4.697-9.461-16.493-12.87-34.8-15.843-53.215-1.044-6.463-1.89-12.959-2.11-19.529-.33-9.88-2.256-19.617-.86-29.672 1.106-7.96 2.888-15.562 5.803-22.98 7.775-19.795 15.95-39.419 25.126-58.612 6.679-13.969 15.409-26.366 27.553-36.229 13.438-10.914 28.514-18.357 45.475-21.842 6.86-1.41 13.785-2.527 20.709-3.596 7.075-1.093 14.209-1.816 21.272-2.983 5.425-.897 10.865-1.56 16.329-2.122 9.009-.926 17.982-1.319 26.81 1.302 10.423 3.094 20.747 6.457 30.647 11.012 2.744 1.263 3.078 1.027 3.099-2.07.033-4.746-.056-9.493-.043-14.24.004-1.766-.217-3.31-1.967-4.305-4.67-2.658-9.396-5.162-14.77-6.092-3.45-.597-6.9-1.478-10.371-1.597-4.44-.154-8.817-1.694-13.226-1.003-7.292 1.143-14.67.981-21.977 1.374-9.92.533-19.88 1.034-29.826 1.11-6.783.052-13.383 1.08-19.924 2.585-13.678 3.151-26.202 9.278-38.761 15.295-20.046 9.605-35.447 24.293-47.213 42.988-6.378 10.134-11.34 21.002-16.286 31.848-8.141 17.853-13.932 36.571-19.208 55.43a85.4 85.4 0 0 0-2.855 15.724c-.578 6.848-.541 13.76-.53 20.642.009 4.427.27 8.873.736 13.276.687 6.505 1.639 12.983 2.512 19.467 1.035 7.693 1.86 15.425 3.212 23.062 2.434 13.738 7.068 26.881 11.58 40.031 1.88 5.48 3.865 10.973 7.5 15.665 10.823 13.968 25.105 23.108 41.262 29.65.705.284 1.457.46 2.196.654 7.394 1.948 14.906 3.041 22.527 3.798 9.279.921 18.529 1.954 27.869 1.805.306-.005.615.01.918.052 10.939 1.551 21.99 1.05 32.977 1.537 14.642.648 29.339.56 43.964-1.51 7.84-1.108 15.762-1.689 23.495-3.476 14.208-3.284 26.949-9.875 39.192-17.577 6.25-3.93 11.74-8.706 16.728-14.077m59.89-30.277c-.52-.05-.885-.205-1.102-.088-5.44 2.908-9.866 6.118-11.743 12.93-3.501 12.701-8.531 24.901-17.818 34.811-6.593 7.035-12.695 14.545-20.025 20.86-10.492 9.035-22.701 15.191-35.782 19.183-11.776 3.593-23.264 8.271-35.861 9.227-11.284.857-22.573 1.538-33.863 1.77-19.3.396-38.612.196-57.917.287-11.018.052-22.003-.478-32.816-2.65-10.785-2.168-21.421-4.909-31.633-9.172-9.5-3.965-18.313-9.24-27.407-13.964-5.97-3.1-11.352-7.322-15.738-12.525-4.238-5.028-8.43-10.106-12.165-15.54-7.223-10.506-13.837-21.312-17.21-33.77-2.355-8.693-4.725-17.382-7.028-26.088-1.253-4.735-2.04-9.53-1.858-14.476.124-3.36.003-6.737-.166-10.098-.527-10.53-1.405-21.054-1.631-31.59-.264-12.378-.236-24.759.833-37.136.393-4.546.662-9.152 1.233-13.66 1.148-9.054 2.72-18.073 4.549-27.017 1.952-9.55 3.445-19.215 6.436-28.534 5.103-15.898 13.513-30.018 22.803-43.784 7.296-10.81 15.738-20.23 26.57-27.577 7.72-5.234 14.809-11.467 23.489-15.16 10.298-4.38 20.299-9.334 30.17-14.59 7.297-3.886 14.752-7.473 22.119-11.23 11.048-5.637 22.959-8.25 35.12-9.847 5.434-.713 10.81-1.893 16.343-1.924 8.885-.05 17.687.75 26.509 1.725 8.66.96 17.193 2.417 25.683 4.332 5.529 1.248 10.946 2.85 16.39 4.382 3.092.87 3.467.576 3.518-2.636.035-2.136-.161-4.276-.262-6.414-.166-3.513-.17-3.516-3.758-4.509-.882-.244-1.766-.489-2.658-.695-13.234-3.05-26.706-4.84-40.167-6.17-11.237-1.11-22.648-.468-33.905.922-6.644.82-13.242 2.13-19.8 3.514-12.415 2.623-24.8 5.433-36.383 10.846-14.437 6.75-29.374 12.244-44.376 17.544-16.347 5.775-30.072 15.62-42.773 27.048-5.136 4.622-8.687 10.655-12.97 16.034-6.981 8.768-12.956 18.165-17.14 28.648-3.858 9.662-8.093 19.174-11.9 28.856-3.068 7.802-6.888 15.356-8.197 23.786a599 599 0 0 0-2.506 18.097c-1.334 10.764-2.234 21.531-2.591 32.381-.306 9.34-.053 18.65.055 27.976a587 587 0 0 0 1.769 39.367c.977 12.42 3.57 24.425 7.443 36.213 4.592 13.975 11.023 27.22 16.254 40.941 1.145 3.006 2.87 5.748 4.905 8.268 6.656 8.247 13.963 15.838 22.563 22.096 4.835 3.52 9.57 7.13 13.709 11.49 10.649 11.217 24.079 17.672 38.63 22.028 8.225 2.462 16.892 2.312 25.306 3.714 4.372.73 8.779.951 13.227 1.033 11.03.203 22.018-.8 33.023-.944 20.836-.27 41.678-.047 62.517-.098 5.5-.014 10.973-.685 16.4-1.506 7.984-1.208 15.94-2.6 23.889-4.032 10.382-1.87 20.664-4.107 30.522-8.033 8.485-3.379 16.364-7.555 22.603-14.459 3.08-3.41 6.835-6.12 10.49-8.908 4.545-3.467 8.546-7.392 11.1-12.649 1.266-2.607 2.71-5.175 4.419-7.509 8.714-11.908 14.459-25.169 18.013-39.396.98-3.919 2.464-7.789 2.547-11.93m116.363-134.782c-.725.031-1.025.57-1.28 1.11-4.312 9.146-9.263 17.95-14.465 26.613-1.037 1.726-1.205 3.551-.733 5.306 1.203 4.483 1.292 9.127 1.38 13.635.278 14.197.43 28.407-1.474 42.563-1.448 10.772-3.825 21.291-6.944 31.68-3.225 10.738-8.278 20.737-12.478 31.08-4.727 11.64-10.09 22.972-17.092 33.461-2.971 4.451-6.355 8.626-8.927 13.347-5.942 10.902-12.573 21.302-20.512 30.934-7.695 9.336-15.245 18.651-24.69 26.415-10.226 8.405-20.587 16.31-33.147 21.034-6.72 2.528-13.145 5.831-19.728 8.73-8.542 3.76-17.1 7.496-26.126 9.99-10.47 2.893-20.802 6.224-31.128 9.588-10.314 3.361-20.675 6.558-31.314 8.81-8.512 1.801-17.142 2.797-25.724 4.112-5.268.806-10.585 1.797-15.882 1.806-14.99.028-29.98.806-44.974-.694-11.471-1.147-22.56-3.566-33.451-7.245-9.143-3.088-17.976-6.93-26.951-10.428-18.592-7.244-36.517-15.8-53.742-25.847-8.13-4.743-15.023-11.05-22.094-17.154-9.733-8.398-19.678-16.552-28.94-25.486-12.641-12.193-23.454-25.837-32.066-41.129-2.991-5.31-4.892-11.227-7.767-16.61-7.585-14.208-14.17-28.81-19.064-44.174-2.97-9.315-6.082-18.582-7.551-28.28-.911-6.024-1.311-12.134-2.446-18.11-1.761-9.273-3.987-18.458-5.95-27.693-1.843-8.666-3.11-17.353-3.18-26.295-.1-12.474 2.537-24.549 4.254-36.758 1.932-13.742 4.754-27.307 8.83-40.608 4.353-14.2 8.717-28.43 15.782-41.533 10.603-19.666 22.12-38.778 34.698-57.302 9.305-13.705 20.273-25.636 32.66-36.444 1.709-1.49 3.313-3.103 5.299-4.974-3.91-1.915-7.45-3.632-10.972-5.38-1.584-.787-2.566.21-3.66 1.08-4.695 3.737-9.078 7.823-12.534 12.73-5.732 8.141-11.897 15.925-18.21 23.621-6.496 7.922-12.066 16.58-18.851 24.291-6.938 7.886-12.245 16.808-16.485 26.37-5.89 13.285-11.842 26.55-17.417 39.968-2.087 5.024-4.367 10.108-4.363 15.81.03 51.447.019 102.897.019 154.346 0 1.836.21 3.612.66 5.43 3.616 14.587 9.458 28.43 14.222 42.63 2.966 8.843 5.914 17.828 10.714 25.83 11.098 18.495 22.565 36.64 38.459 51.786 12.29 11.714 23.944 24.107 37.1 34.893 8.167 6.696 16.378 13.533 25.69 18.476 14.336 7.608 28.286 15.914 42.752 23.278 4.66 2.371 9.378 4.59 14.395 5.961 12.822 3.506 25.706 6.794 38.575 10.13 12.36 3.205 24.917 4.852 37.683 3.903 6.88-.512 13.747-.888 20.645-.862 13.484.05 26.968-.005 40.452.021 7.368.015 14.656-.912 21.773-2.594 13.379-3.165 26.628-6.877 39.99-10.119 14.633-3.549 28.799-8.142 41.943-15.722 11.409-6.579 23.045-12.766 33.545-20.784 11.068-8.453 22.484-16.523 31.866-26.944 8.089-8.984 15.99-18.137 23.953-27.236 3.53-4.035 6.914-8.216 9.547-12.889 6.684-11.862 13.458-23.672 20.762-35.164 7.084-11.144 12.246-23.284 18.378-34.92 4.43-8.408 8.216-17.073 11.21-26.11 5.313-16.027 8.087-32.539 9.618-49.276.923-10.092-.71-20.162-1.041-30.246-.365-11.12-1.691-22.209-2.596-33.31-.075-.906.012-1.867-.905-2.448m-135.861 146.648c-.89-.093-1.251-.25-1.457-.134-7.071 3.996-14.462 7.333-21.878 10.622-1.423.631-2.57 1.576-3.498 2.872-5.217 7.282-11.717 13.485-18.622 18.953-13.292 10.523-28.294 18.216-44.584 23.134-11.318 3.417-23.151 3.706-34.777 5.242-5.775.762-11.622.5-17.365 1.17-5.216.608-10.42.915-15.576.455-15.253-1.365-30.564-1.493-45.838-2.392-11.14-.655-22.234-1.466-33.28-2.973-8.358-1.139-16.417-3.204-24.02-7.11-12.105-6.222-23.008-13.889-32.223-24.007-3.888-4.268-7.122-8.796-9.141-14.16a835 835 0 0 1-6.724-18.54c-6.017-17.222-9.61-34.959-11.365-53.104-.586-6.058-1.765-12.059-2.347-18.119-.758-7.887-2.011-15.766-.807-23.749.455-3.014.659-6.115.538-9.158-.302-7.592 1.175-14.893 3.189-22.12 7.155-25.689 15.978-50.732 28.348-74.454 7.995-15.33 17.482-29.536 30.548-41.002 17.959-15.76 39.487-24.94 61.837-32.35 11.255-3.732 23.05-4.738 34.824-4.62 10.434.105 20.816-.669 31.19-1.258 8.729-.496 17.384-1.13 26.05.241 8.115 1.285 16.44 1.656 23.927 5.705 2.29 1.238 2.719.906 2.819-1.559.118-2.905-.006-5.818.05-8.727.043-2.164-.94-3.364-3.012-3.983-2.343-.699-4.583-1.739-6.922-2.459-19.56-6.027-39.73-8.125-60.048-9.219-1.37-.073-2.777-.06-4.122.172-5.56.96-11.17 1.576-16.745 2.387-12.555 1.824-24.264 5.756-35.53 11.6-14.401 7.467-28.723 15.112-43.593 21.67-15.603 6.88-29.028 17.025-40.943 29.064-6.912 6.985-11.688 15.693-17.082 23.854-8.171 12.363-13.941 25.86-17.277 40.278-2.094 9.05-3.264 18.307-5.156 27.408-3.43 16.496-4.846 33.181-5.268 49.982-.205 8.12.586 16.206.746 24.303.23 11.624 1.575 23.201 1.196 34.855-.113 3.447.926 6.926 1.384 10.398.784 5.934 2.824 11.562 4.178 17.355 3.774 16.141 10.21 31.062 20.389 44.261 5.41 7.016 10.305 14.445 17.49 19.955 4.3 3.3 9.147 5.566 13.805 8.195 11.086 6.257 22.482 11.77 34.816 15.243 13.45 3.788 27 6.241 41.08 5.945 30.007-.63 60.048 1.002 90.032-1.053 6.808-.466 13.717-.88 20.329-2.935 8.474-2.63 17.05-4.99 25.36-8.069 13.758-5.096 26.533-11.87 36.415-23.199 4.019-4.607 8.206-9.097 12.414-13.522 8.43-8.864 12.529-19.739 16.246-31.344m-307.51-327.872c-1.208-1.3-2.17-.902-3.033-.904-6.12-.01-12.284.187-18.267-1.225-2.787-.658-4.631.266-6.7 1.768-7.09 5.15-13.227 11.37-19.683 17.23-6.522 5.92-10.998 13.488-16.271 20.423-12.835 16.878-22.698 35.592-33.486 53.728-5.41 9.095-9.211 18.98-12.72 28.956-5.684 16.166-10.3 32.615-13.003 49.551-1.608 10.071-3.142 20.161-4.333 30.287-.568 4.831-1.735 9.67-1.103 14.598 1.026 8.006 1.36 16.09 3.204 24.007 2.003 8.611 4.35 17.156 5.704 25.91 1.209 7.823 2.035 15.72 3.553 23.481 2.647 13.547 7.565 26.437 12.372 39.321 4.127 11.06 10.663 21.035 15.197 31.89 4.356 10.428 10.08 19.848 16.967 28.737 6.38 8.237 12.73 16.426 20.489 23.485 11.326 10.305 23.264 19.895 34.65 30.125 3.299 2.963 6.657 5.864 10.493 8.164 24.52 14.703 50.73 25.733 77.395 35.823 17.95 6.792 36.49 9.921 55.628 9.88 6.742-.016 13.483.016 20.225-.017 1.679-.008 3.37-.087 5.036-.299 6.05-.773 12.07-1.82 18.137-2.388 12.508-1.167 24.769-3.615 36.785-7.134 14.089-4.126 28.02-8.787 42.087-12.997 7.48-2.238 14.97-4.41 22.142-7.516 10.535-4.564 20.976-9.349 31.554-13.81 8.252-3.48 15.986-7.708 22.638-13.765 5.882-5.358 12.765-9.62 17.928-15.735 7.5-8.88 15.144-17.674 21.599-27.37 7.459-11.205 13.55-23.27 21.456-34.203 2.339-3.233 4.084-6.82 5.928-10.35 5.538-10.594 9.648-21.82 14.56-32.693 3.406-7.538 6.353-15.256 8.323-23.293 2.213-9.02 4.225-18.06 5.269-27.349.839-7.468.785-14.964 1.129-22.41.313-6.785-.332-13.73-.572-20.604-.025-.714.087-1.573-.932-1.808-.253.147-.597.23-.745.447-6.295 9.228-12.82 18.285-19.958 26.884-.81.973-1.403 2.001-1.361 3.307.24 7.5-1.421 14.9-1.04 22.428.412 8.098-.338 16.141-1.713 24.151-2.212 12.881-6.094 25.238-11.464 37.107-4.357 9.63-10.183 18.494-15.12 27.822-5.608 10.594-12.078 20.481-20.072 29.505-7.423 8.377-14.475 17.001-24.301 22.76-.521.305-.934.79-1.414 1.17-5.875 4.663-11.222 9.947-17.008 14.692-7.225 5.924-15.468 10.435-23.351 15.434-16.45 10.432-35.033 14.951-53.651 19.433-8.454 2.034-16.958 3.897-25.154 6.931-8.78 3.25-17.972 4.853-27.234 5.86-6.517.708-13.002 1.582-19.493 2.47-7.254.99-14.522 1.96-21.852 2.184-14.15.433-27.99-1.816-41.677-5.108-16.382-3.94-32.243-9.528-47.878-15.736-6.536-2.594-13.354-4.658-19.395-8.313-12.702-7.685-25.303-15.54-37.84-23.494-9.231-5.857-16.907-13.629-24.87-21.01-6.724-6.234-13.594-12.347-18.626-20.192-2.805-4.374-5.955-8.535-9.066-12.704-6.446-8.635-11.79-17.85-15.5-28.006-1.624-4.45-3.632-8.757-5.416-13.149-4.89-12.038-10.087-24-13.241-36.627-4.8-19.214-10.35-38.259-13.218-57.93-1.292-8.863-1.082-17.74-.438-26.532.58-7.895 1.853-15.756 1.554-23.698-.198-5.247.61-10.393 1.355-15.5 1.557-10.689 3.157-21.377 5.157-32.003 2.498-13.275 5.932-26.21 12.192-38.266q7.191-13.855 14.414-27.692c2.692-5.153 5.203-10.438 8.827-15.019 10.93-13.817 22.1-27.4 36.732-37.643 7.034-4.924 12.8-11.386 19.602-16.606 3.864-2.964 7.817-5.81 11.919-8.85m362.998 288.526c-.484-.125-.696-.243-.764-.187-7.972 6.444-15.916 12.923-24.247 18.903-1.327.952-2.032 2.161-2.41 3.737-1.137 4.75-2.394 9.47-3.595 14.205-3.548 13.985-7.731 27.704-16.13 39.732-3.33 4.768-6.386 9.7-9.08 14.876-1.975 3.798-4.493 7.238-8.138 9.794-2.744 1.924-5.1 4.391-7.773 6.427-4.89 3.72-8.685 8.642-13.678 12.236-8.195 5.897-17.511 9.36-27.04 12.317-9.204 2.858-18.805 3.904-28.176 5.973-15.9 3.512-32.017 4.654-48.197 5.057-10.088.25-20.18.312-30.293-.647-12.374-1.174-24.763.967-37.167.865-.603-.004-1.203.22-1.811.292-4.885.596-9.745.411-14.656.02-7-.56-13.953-1.51-20.931-2.145-11.535-1.046-22.652-3.236-32.962-8.73-3.106-1.655-6.257-3.232-9.411-4.8-4.983-2.477-9.451-5.677-13.344-9.636-5.814-5.913-12.281-11.05-18.812-16.125-13.76-10.688-25.151-23.15-30.925-40.066-3.307-9.692-8.052-18.832-11.452-28.514-4.061-11.562-6.904-23.415-8.748-35.493-1.431-9.374-1.288-18.902-1.742-28.347-.734-15.268-1.474-30.562-1.122-45.877.116-5.06.734-10.065 1.16-15.075.815-9.553 2.35-19.044 3.413-28.58.884-7.934 2.615-15.636 5.654-23.018 4.249-10.323 8.83-20.517 12.777-30.953 5.238-13.859 12.109-26.725 21.419-38.268 4.895-6.07 8.852-13.019 14.779-18.114 13.393-11.516 27.6-21.694 44.72-27.412a408 408 0 0 0 38.052-14.863c10.389-4.672 20.945-8.497 31.995-11.115 10.987-2.604 22.05-4.66 33.266-6.1 5.204-.669 10.415-.222 15.539-.984 6.926-1.03 13.839-.224 20.604.511 11.952 1.297 23.892 2.981 35.734 5.21 6.93 1.304 6.946 1.22 6.82-5.692-.128-7.064-.121-7.09-7.176-8.776-9.942-2.375-19.973-4.32-30.194-4.869-12.558-.674-25.07 1.135-37.637 1.03-4.541-.039-9.192.354-13.716.96-10.415 1.393-20.826 2.918-31.071 5.365-13.092 3.13-26.194 6.313-38.566 11.7-14.743 6.417-29.216 13.444-43.14 21.516-16.958 9.832-33.456 20.151-47.705 34.006-17.823 17.331-30.123 38.106-40.285 60.312-7.441 16.26-9.842 33.918-12.17 51.484-1.12 8.458-1.79 16.975-2.927 25.432-.836 6.215-1.71 12.442-1.52 18.695a251 251 0 0 0 3.218 33.223c1.98 12.017 3.325 24.153 5.98 36.047 2.53 11.324 4.8 22.75 8.722 33.7 4.279 11.952 8.862 23.8 13.518 35.613 2.248 5.701 5.167 11.12 9.073 15.9 11.042 13.517 22.569 26.591 35.06 38.816 6.282 6.145 13.012 11.555 20.759 15.756 9.023 4.891 17.957 10 27.845 12.958 18.576 5.56 37.167 11.014 56.656 12.665 8.99.76 17.999.925 26.99 1.54 8.088.553 16.189-.45 24.282-.717 7.216-.239 14.26-1.312 21.333-2.497 10.065-1.689 20.12-3.475 30.226-4.879 8.614-1.197 17.212-2.373 25.69-4.36 17.578-4.117 33.069-12.935 48.176-22.19 13.908-8.52 25.42-19.959 35.404-33 9.014-11.777 18.399-23.226 26.66-35.606 10.066-15.088 17.618-31.094 21.389-48.824.734-3.443 1.91-6.874 1.798-10.414m-284.677-58.414c-.166 7.472-.37 15.12 1.873 22.567 2.504 8.322 7.134 14.934 15.468 18.201 4.688 1.838 9.527 3.37 14.403 4.63 9.593 2.48 19.247 4.614 29.129 5.848 5.675.71 11.323 1.103 16.89.421 7.863-.96 15.55-2.99 23.202-5.159 13.244-3.753 23.45-11.708 30.08-23.33 9.753-17.094 15.122-35.62 14.307-55.605-.462-11.343-4.657-21.23-12.183-29.465-7.421-8.12-16.277-14.363-27.33-16.826-1.19-.265-2.342-.7-3.511-1.06-5.274-1.623-10.605-2.808-16.186-2.576-5.18.216-10.33.182-15.531.808-13.301 1.601-25.656 5.49-36.861 12.894-16.415 10.847-27.26 25.694-32.073 44.797-1.956 7.766-1.884 15.735-1.677 23.855m311.985 30.608c-.511-.13-.884.105-1.17.476-4.514 5.837-9.94 10.815-15.126 16.016-1.466 1.471-2.177 3.103-2.57 5.184-1.981 10.493-4.24 20.938-7.298 31.175-6.48 21.682-19.736 39.591-32.702 57.588-5.084 7.058-11.16 13.392-16.34 20.415-4.01 5.436-8.592 10.373-13.614 14.887-12.383 11.128-26.452 19.615-41.174 27.336-16.684 8.748-34.36 13.272-52.876 15.414a321 321 0 0 0-22.126 3.368c-12.314 2.303-24.698 4.19-37.193 4.733-15.751.688-31.525.132-47.254-.967-3.17-.222-6.407-.458-9.546-1.056-13.037-2.484-25.91-5.688-38.766-8.962-16.504-4.202-31.466-11.85-45.871-20.63-8.963-5.462-16.116-13.165-23.308-20.676-7.617-7.953-14.897-16.233-22.195-24.484-6.113-6.91-11.515-14.422-14.97-22.982-5.377-13.32-10.291-26.829-15.231-40.319-2.784-7.604-4.213-15.6-6.112-23.45-2.401-9.922-4.538-19.893-5.7-30.068-.827-7.256-2.457-14.42-3.275-21.678-.853-7.559-2.594-15.036-2.224-22.725.27-5.63.164-11.236.839-16.897.827-6.939 1.56-13.926 2.263-20.892 1.222-12.112 2.818-24.202 5.35-36.137 2.833-13.346 6.44-26.433 13.03-38.5 2.86-5.237 5.974-10.337 8.777-15.603 10.626-19.962 26.036-35.889 43.176-50.145 8.922-7.42 19.18-13.127 29.16-19.117 14.866-8.922 30.457-16.435 46.22-23.556 13.552-6.124 27.91-9.912 42.395-13.266 14.01-3.245 28.182-5.545 42.493-6.198 11.449-.523 22.903-1.494 34.39-1.245 7.94.172 15.85.333 23.712 1.832 5.842 1.115 11.694 2.165 17.507 3.434 2.725.595 3.285.171 3.293-2.64.009-2.907-.29-5.816-.255-8.72.028-2.433-1.118-3.46-3.373-4.11-5.283-1.522-10.572-2.99-15.967-4.06-9.436-1.873-18.88-3.366-28.583-3.23-7.965.11-15.894.623-23.84.957-7.03.296-14.02 1.097-21.066 1.25-4.102.088-8.28.275-12.35.883-7.247 1.082-14.382 2.727-21.332 5.156-16.32 5.701-33.213 9.465-49.704 14.625-22.44 7.022-42.09 18.858-60.392 33.228-6.133 4.816-11.33 10.758-17.851 15.12-6.678 4.467-12.256 10.138-17.68 15.978-1.872 2.016-3.525 4.245-5.474 6.18-8.684 8.616-15.294 18.666-20.818 29.505-3.473 6.816-7.06 13.575-10.587 20.364-5.02 9.662-9.385 19.56-11.691 30.29-2.18 10.134-4.027 20.31-5.646 30.556-1.98 12.536-3.612 25.036-3.506 37.763.042 4.848-.857 9.702-1.295 14.556-.691 7.628-.723 15.242.054 22.883.853 8.39 3.022 16.49 5.013 24.632 2.973 12.156 5.5 24.42 9.023 36.44 4.575 15.604 11.404 30.345 17.28 45.452 3.462 8.895 7.724 17.316 13.355 25.034 1.804 2.473 3.76 4.857 5.343 7.466 9.533 15.72 23.552 27.222 36.886 39.368 5.805 5.288 12.457 9.426 19.112 13.494 11.096 6.784 21.744 14.38 33.559 19.894 15.83 7.388 32.317 13.171 49.066 18.066 13.473 3.938 27.102 7.13 41.305 7.72a145.5 145.5 0 0 0 24.176-.99c5.29-.659 10.563-1.45 15.862-2.018 7.727-.825 15.42-1.839 23.074-3.202 7.269-1.295 14.06-4.179 21.146-6.053 10.635-2.813 21.246-5.773 31.985-8.137 18.875-4.157 35.662-12.688 51.41-23.546 4.655-3.21 9.567-6.065 13.649-10.083 6.78-6.673 14.188-12.616 22.02-17.995 3.727-2.559 6.74-5.74 9.569-9.175a306 306 0 0 1 3.239-3.864c6.946-8.142 14.182-16.05 18.94-25.82 2.007-4.12 4.327-8.099 6.683-12.035 7.48-12.507 14.15-25.339 18.257-39.443 2.913-10.005 5.269-20.102 5.988-30.462.517-7.466.082-14.997.05-22.499 0-.427-.018-.948-.598-1.083m68.03-115.249c-1.02.795-1.37.925-1.454 1.153-2.371 6.46-4.6 12.972-7.422 19.257-.461 1.025-.34 2.021-.197 3.12.825 6.34 1.716 12.68 2.238 19.05 1.037 12.63 2.122 25.264 2.685 37.921.707 15.898.456 31.81-2.911 47.461-3.872 17.994-9.174 35.505-18.06 51.792-6.52 11.951-11.926 24.487-19.12 36.096-6.852 11.056-13.265 22.376-19.858 33.587-8.435 14.343-20.566 25.798-31.195 38.41-11.123 13.198-25.035 23.35-38.83 33.534-9.623 7.106-20.177 12.722-30.542 18.663-11.646 6.674-23.862 11.768-36.804 15.156-12.104 3.17-24.4 5.683-36.355 9.326-14.97 4.561-30.284 5.81-45.721 6.107-9.616.186-19.285-.33-28.882-.295-11.308.04-22.655.18-33.98.472-7.084.183-13.968-1.125-20.857-2.473-11.85-2.32-23.418-5.768-35.067-8.866-8.546-2.272-17.023-4.756-24.99-8.922-14.79-7.736-29.021-16.489-43.99-23.888-1.362-.674-2.597-1.616-3.864-2.474-17.427-11.79-33.507-25.208-48.304-40.15-7.973-8.05-15.924-16.128-23.678-24.386-9.715-10.346-16.235-22.967-23.968-34.698-8.664-13.146-13.055-28.268-18.24-42.974-1.348-3.82-2.403-7.749-4.438-12.112-.786 2.53-.541 4.336-.542 6.1-.024 37.054-.025 74.11-.036 111.163-.01 41.036.003 127.625-.116 168.661-.007 2.375.73 3.006 2.799 2.901.764-.039 1.53.005 2.298.005 194.6 0 389.203-.002 583.804.005 6.353 0 5.499-.226 5.503-5.519.037-39.809.037-125.174.044-164.984l.05-274.69zm-1.08-205.352.827-.125c.078-2.812.225-5.624.226-8.437.014-61.863.016-169.24.008-231.103-.001-5.075-.07-5.098-5.13-5.139-.307-.003-.614 0-.92 0-193.848.033-387.695.064-581.542.105-7.477.002-6.737-.539-6.74 6.62-.018 62.324-.02 170.16-.018 232.483.003 55.892.014 111.784.044 167.676 0 1.708-.306 3.504.643 5.827.872-1.69 1.466-2.715 1.946-3.792 3.174-7.127 6.506-14.19 9.44-21.416 5.69-14.008 13.417-26.686 22.852-38.54 11.526-14.48 23.424-28.69 34.023-43.898 3.512-5.038 7.648-9.554 12.35-13.54 2.692-2.28 2.657-2.32-.123-4.669-15.232-12.868-24.68-29.114-27.553-48.825-2.427-16.644.338-32.527 8.446-47.46 15.216-28.026 44.49-43.586 77.554-40.047 16.9 1.808 31.657 9.263 43.86 21.184 14.513 14.176 22.233 31.558 23.472 51.805.184 3.003.664 3.464 3.65 2.861 6.728-1.358 13.492-2.598 20.139-4.285 15.609-3.962 31.498-5.832 47.527-6.465 9.639-.38 19.315-.332 28.956.02 6.839.248 13.68 1.096 20.462 2.085 9.663 1.41 19.2 3.528 28.717 5.726 3.839.887 4.075.6 4.129-3.502q.01-.918-.005-1.837c-.361-25.099-1.522-50.17-2.461-75.25-.373-9.939-.338-19.884-1.105-29.819-.53-6.856-.263-13.772-.383-20.66-.031-1.787-.038-3.55 2.385-3.6 3.98-.082 7.849-1.125 11.876-1.009 12.378.356 24.636 1.66 36.863 3.6 20.628 3.276 40.603 8.59 59.702 17.218 33.407 15.091 61.654 36.855 84.788 65.174 15.683 19.197 28.137 40.408 37.806 63.237 1.1 2.597 2.193 5.198 3.29 7.797m-609.781 209.84V425.628c0-11.177.007-15.1.017-26.278.006-6.257-.218-5.799 5.703-5.799 45.047-.007 90.096-.005 135.144-.005 159.815 0 319.629-.002 479.442.004 7.096.001 6.74-.726 6.74 6.661 0 278.822 0 648.711-.007 927.533 0 7.448.533 6.676-6.68 6.677q-307.064.018-614.127.004c-6.701 0-6.218.62-6.218-6.165-.008-139.64-.006-324.836-.006-464.477Z"/></g></svg>