<svg xmlns="http://www.w3.org/2000/svg" width="1984.25" height="1984.25" viewBox="0 0 1984.25 1984.25"><defs><clipPath id="clip_1"><path d="M0-.002h1984.252V1984.25H0Z"/></clipPath></defs><g clip-path="url(#clip_1)"><path d="m1756.878 681.27 28.092-31.404c0 25.127-28.092 31.403-28.092 31.403m-15.57 145.46c-13.177-1.263-3.54-8.698-2.587-13.07 2.8-12.816 6.427-25.472 9.738-38.19 7.977 12.44 7.807 25.622 7.96 38.821.127 9.993-6.794 13.23-15.11 12.44m-26.142-49.639 17.876-19.986c0 15.99-17.876 19.986-17.876 19.986m-28.73 73.398c-1.362-26.798 25.512-36.23 36.382-56.977 6.683 29.66-1.864 42.547-36.382 56.977m-80.137 63.692c34.212-19.699 64.636-37.215 95.868-55.194-5.771 50.933-27.845 64.156-95.868 55.194m43.149 59.935c-1.66 2.934-1.514 9.521-7.925 6.875-3.703-1.519-6.682-5.053-9.364-8.155-3.813-4.388-.314-7.53 3.142-10.025 7.857-5.676 15.935-11.088 23.912-16.604a950 950 0 0 1 2.817 2.902c-4.145 8.362-7.993 16.868-12.582 25.007m-.4 46.504-9.006-14.559 12.36-3.037Zm-32.39-19.835c-6.605 3.271-14.658 3.982-27.666 7.132 8.24-9.737 12.922-15.582 17.979-21.122 3.048-3.334 5.66-10.16 10.972-7.33 5.108 2.717 10.446 8.553 11.433 13.742 1.404 7.354-8.291 5.388-12.718 7.578m6.002 31.826-9.007-14.557 12.36-3.038Zm-22.984 3.998-9.007-14.558 12.36-3.038Zm-24.823-59.559 27.028-6.588-15.145 20.194Zm3.295-30.699c10.972-3.046 14.565 7.546 20.813 13.998-8.24 5.996-17.051 8.626-23.665 1.967-3.414-3.43-3.891-14.087 2.852-15.965m-20.822-180.364c26.9 16.381 49.406 30.443 72.365 43.842 6.274 3.661 5.337 6.891 2.349 11.464-17.4 26.605-34.748 53.243-56.558 78.754-5.796-42.795-11.593-85.59-18.156-134.06m-10.275 35.176c5.03 24.44 8.98 48.143 9.909 73.437-23.887-25.455-26.51-45.297-9.91-73.437m-16.828-80.52a749410 749410 0 0 1-70.288-81.138c18.71-4.98 35.046-8.889 51.032-13.782 6.623-2.023 9.73-.424 10.675 5.324 4.818 29.396 9.432 58.816 14.114 88.22-1.848.463-3.687.92-5.533 1.375m2.162 46.903c-9.781 15.478-18.055 31.82-26.517 47.992-4.163 7.946-8.07 10.481-15.637 2.95-38.443-38.222-77.116-76.236-115.711-114.322 1.038-1.007 2.077-2.015 3.115-3.014 49.356 16.741 98.712 33.497 148.076 50.222 8.92 3.021 12.692 6.643 6.674 16.172m-43.227 76.828c-12.683 20.074-24.686 40.532-39.438 64.971-28.415-64.659-54.915-124.97-75.107-170.93 30.033 25.27 70.783 59.487 111.412 93.84 3.653 3.093 6.81 6.3 3.133 12.12m-28.066 157.274c1.6 5.837-2.01 10.346-6.044 14.44-28.806 29.26-57.596 58.535-86.394 87.803 20.737-54.299 47.475-104.225 76.495-156.565 9.32 19.427 11.27 37.255 15.943 54.322m-5.431 149.354c2.724 4.558 1.668 8.738-4.801 10.953-23.75 8.114-47.364 16.605-71.03 24.95-.842-1.51-1.692-3.013-2.535-4.516a751703 751703 0 0 1 57.877-70.8c11.227 12.032 13.092 27.054 20.489 39.413m12.539 95.551c2.06 8.17-3.371 9.281-10.258 5.7-28.585-14.886-57.162-29.796-90.14-46.984 33.413-11.688 62.305-21.793 91.043-31.85 11.355 24.183 3.362 49.366 9.355 73.134m12.276-58.536c30.9 35.448 59.638 68.417 88.368 101.386-.612 1.08-1.235 2.158-1.856 3.246-25.776-8.578-51.535-17.196-77.344-25.678-3.823-1.263-6.445-3.382-6.376-7.139.408-22.608-8.496-44.874-2.792-71.815m146.219 187.095c-34.995-26.342-69.99-52.676-106.91-80.465 52.558 3.398 79.875 23.577 106.91 80.465m26.168 44.833c-6.35 6.956-7.056 19.043-17.808 21.354-5.873 1.263-6.93-7.307-9.542-11.704-11.476-19.275-22.61-38.717-33.872-58.104q1.747-1.774 3.48-3.55c18.185 13.68 36.29 27.453 54.627 40.956 4.35 3.206 8.01 5.692 3.115 11.048m35.676 55.202c-48.265-16.188-49.05-17.955-22.09-45.816zm14.225 49.938c-15.075-9.665-28.874-18.507-45.943-29.443 40.308-7.404 40.989-6.948 45.943 29.443m-55.811-52.203 21.28 7.195s-17.023 12.791-21.28-7.195m1.646 31.283 17.85 13.04s-20.413 7.202-17.85-13.04m-267.516-387.955c6.239-13.734 43.32-52.57 65.802-68.937-6.674 41.037-15.033 49.79-65.802 68.937m-39.84 74.87c-10.682-6.549-23.341-10.354-33.488-21.522 32.68-16.493 64.61-32.61 96.54-48.727.989.8 1.968 1.591 2.955 2.391a374204 374204 0 0 1-52.846 66.458c-3.847 4.837-8.214 4.428-13.16 1.4m-105.616.015c0-31.555-.145-60.806.103-90.059.05-6.883 2.784-10.64 10.564-5.068 23.758 16.988 47.653 33.801 73.318 51.972a304191 304191 0 0 1-83.985 43.155m-10.011-132.453c-20.983-25.287-38.433-46.504-56.148-67.538-3.958-4.709-3.814-8.346 1.08-12.064 23.316-17.7 46.616-35.423 73.388-55.777-6.326 46.744-11.978 88.491-18.32 135.38m-13.11 280.83c-1.488.391-2.978.792-4.468 1.183-19.468-38.238-38.987-76.45-58.337-114.745-1.897-3.766-1.557-7.835.903-11.648 22.482-34.848 44.904-69.728 67.35-104.6 1.755.583 3.509 1.175 5.262 1.767-3.567 76.011-7.134 152.023-10.71 228.043m43.72 267.177c-38.017 4.31-68.101 2.4-75.762-33.577 14.804 6.787 53.629 27.981 75.762 33.577m4.985 12.122c5.2.048 7.83 2.183 7.559 7.26-.221 4.053.077 9.026-5.985 8.514-19.935-1.663-39.821-3.917-59.723-5.94 18.872-10.96 38.553-10.025 58.149-9.834m-80.481-130.498c29.47 30.324 29.52 33.61 0 60.383Zm30.04 50.758c13.868 32.138 13.868 32.138-19.425 27.893 1.209-11.656 11.058-17.828 19.426-27.893m-3.287-48.615c-32.228-23.208-32.534-44.69 1.252-83.559 1.08 30.316 1.507 56.77-1.252 83.56m-34.05-66.515q-10.305-75.284-20.608-150.569c1.473-.495 2.953-.99 4.426-1.479 17.025 33.473 34.349 66.827 50.812 100.555 2.91 5.964-4.112 10.952-7.21 16.03-7.398 12.12-15.23 24.007-22.891 35.983-1.507-.176-3.013-.352-4.528-.52m-32.06-220.257c-9.61-27.005-17.228-49.254-25.502-71.287-3.277-8.714 1.872-9.977 8.784-12.256 27.437-9.057 54.634-18.739 85.799-25.334-22.158 34.92-44.308 69.832-69.08 108.877m-25.58 6.635c-35.668-3.605-71.514-6.083-106.96-11.112-13.688-1.935-28.866 2.822-43.874-7.299 42.597-19.706 83.423-38.573 124.24-57.473 8.42-3.9 13.315-1.614 16.038 6.868 6.394 19.89 12.974 39.741 20.005 59.44 3.413 9.561-1.422 10.392-9.45 9.576m-181.785-34.903c-14.497-41.94-29.94-83.59-46.632-129.759 67.386 25.302 131.392 49.334 200.539 75.292-48.888 22.225-92.701 41.755-136.073 62.133-11.083 5.213-14.318 2.511-17.834-7.666m-174.712-58.649c37.183-23.479 71.31-45 105.394-66.57 4.768-3.02 8.104-4.956 10.752 2.64 14.582 41.754 29.683 83.342 46.155 129.326-58.124-18.308-107.003-44.01-162.301-65.396m126.548 107.295c-12.505 35.008-11.458 36.375-50.028 34.544-36.204-1.718-72.263-5.916-108.391-9.017-.23-1.352-.468-2.71-.697-4.062 23.026-5.236 46.112-10.257 69.053-15.78 25.53-6.156 50.846-13.128 76.434-19.044 11.152-2.582 19.622-3.413 13.629 13.36m-126.948 93.24c1.524-11.577 2.74-18.172 3.218-24.816 1.94-27.302 2-28.373 30.058-25.007 17.297 2.078 34.757 3.726 52.352 4.245.298 1.656.604 3.318.91 4.981-27.775 13.031-55.543 26.054-86.538 40.596m-13.356-17.972c-13.74-11.416-29.862-24.822-45.108-37.494 4.009.288 9.696.888 15.399 1.088 38.315 1.367 41.703 6.811 29.709 36.406m-56.276 49.622c6.444-19.29 11.892-35.615 17.34-51.924 1.958.376 3.71.192 4.486.927 32.84 30.804 32.833 30.811-21.826 50.997m-8.48-34.712V1272.4c27.599 13.535 5.458 28.308 5.21 41.963q-2.604-.074-5.21-.16m-3.855-82.27a4774 4774 0 0 0 2.026-52.829c.204-6.164 1.54-10.857 9.84-9.482 54.19 8.994 108.39 17.956 162.573 27.006 1.32.216 2.486 1.271 7.755 4.093-59.111 14.215-115.013 27.677-170.923 41.084-9.066 2.174-11.595-2.334-11.271-9.873m-9.075 123.827c-2.34 13.95-24.652 14.182-42.716 22.824l35.02-93.072c1.704.095 3.406.183 5.117.28 1.32 23.392 6.393 47.343 2.579 69.968m-68.1 17.5c-11.356-9.162-23.367-17.636-35.361-26.063-6.59-4.629-9.075-9.273-.366-13.366 23.282-10.936 46.836-21.37 75.515-34.385-9.97 27.19-17.877 49.598-26.517 71.76-2.452 6.3-7.1 7.026-13.271 2.054m-1.413 18.867c-3.414 7.195-12.718 12.16-19.987 17.436-5.857 4.245-6.862-1.215-8.071-4.757-4.681-13.735-9.193-27.517-15-44.96 14.31 5.842 22.15 12.526 29.906 19.274 4.869 4.23 16.404 6.148 13.152 13.007m-18.753 199.07 17.876 17.588-39.158-.8Zm-54.858.363 34.332.2-18.404 14.981Zm2.522-233.969c-.698 15.613 4.069 31.641-6.001 46.136.298-15.734-7.321-32.026 6-46.136m1.49 197.72V1529c10.446 2.838 17.452 9.033 25.096 16.028-6.657 7.18-15.391 8.051-25.095 10.282m25.844 6.22c7.032-1.584 12.225-2.239 15.289 5.283 4.537 11.122.229 13.887-22.661 13.8-7.635-.073-16.523.671-17.408-4.437-2.145-12.424 14.88-12.424 24.78-14.647m-25.095-57.425c9.764-15.229 19.349-30.546 31.973-50.54 1.788 29.532 3.218 53.227 4.725 78.146-15.238-2.862-23.427-13.135-34.331-19.01-3.048-1.632-4.844-4.725-2.367-8.596m12.522-125.017c23.656 23.855 21.426 47.902-11.704 89.73 3.89-29.836 7.78-59.67 11.704-89.73m-4.775-145.068c-11.39 7.043-16.625 6.02-21.52-5.86-8.47-20.57-17.12-41.18-27.513-60.927-7.78-14.782-1.208-17.803 12.573-18.315 61.623-2.295 122.709-9.873 183.897-16.46 6.265-.68 12.386-2.503 23.725-4.878-10.028 12.752-21.188 15.966-30.475 21.554-46.93 28.244-94.132 56.105-140.687 84.886m-40.835 12.686c-23.631-.264-47.28-.087-74.502-.087 16.114-28.613 30.867-54.827 48.087-85.406 13.127 28.077 24.023 51.182 34.723 74.373 3.482 7.54.988 11.225-8.308 11.12m-117.448 117.273a798 798 0 0 1-3.047-2.007c12.079-31.826 24.09-63.685 36.306-95.463 1.753-4.572 4.843-7.755 11.1-7.69 24.082.255 48.173.103 78.375.103-44.027 37.686-83.38 71.367-122.734 105.057m-19.383.934c-22.022-60.678-21.792-46.863 32.492-83.838-10.427 26.902-20.847 53.795-32.492 83.838m-54.123 14.07c9.109-15.7 17.127-29.507 25.044-43.146 9.645 2.95 6.01 9.698 7.38 14.215 11.9 39.213 11.748 39.253-32.424 28.931m-38.868 95.383q-2.237-1.113-4.486-2.238c11.279-24.304 20.268-49.902 34.705-72.423 8.598-13.414 25.657 3.382 38.954-3.5l1.507 5.811c-23.563 24.111-47.117 48.231-70.68 72.35m219.684-351.247c9.815-24.99 19.442-50.069 28.048-75.444 2.835-8.354 5.202-11.144 12.088-3.949 25.648 26.845 51.118 53.843 78.852 83.095-38.392 5.852-73.174 7.754-107.94 10.001-12.283.791-15.356-2.734-11.048-13.703m47.508-110.939c22.244-25.223 44.598-50.358 69.7-78.674 8.565 44.074 16.285 83.79 24.636 126.808-32.135-12.83-61.341-24.638-90.692-36.103-7.33-2.86-8.394-6.643-3.644-12.03m-37.4-100.783c-9.993 1.247-9.907-3.42-6.877-11.016 8.019-20.099 13.845-36.5 21.055-56.87 2.886-8.163 6.427-10.002 13.177-2.974 21.682 22.56 43.559 44.953 69.369 71.543-36.485 1.311-66.095-4.504-96.723-.683m-130.452 48.77c97.895-47.97 179.615-35.177 179.615-35.177Zm-63.265-1.48c-.52-1.926-.477-4.037-.4-6.05.63-16.102-4.784-36.6 3.754-47.025 8.325-10.169 29.862 1.031 45.474 3.181 27.504 3.79 54.82 8.834 82.206 13.352l-.385.081c-40.962 12.271-80.501 28.931-121.405 41.386-5.712 1.735-8.044-.408-9.244-4.925m198.58-129.31c-10.98 29.131-20.421 53.338-29.137 77.762-2.776 7.786-8.896 6.172-13.961 5.388-41.465-6.38-82.861-13.175-125.237-24.663 54.055-18.779 108.118-37.558 168.336-58.488m151.439 54.123c-14.123 8.434-25.65 14.702-36.375 21.993-5.482 3.733-8.827 2.83-12.7-1.27-18.728-19.884-37.498-39.726-53.748-62.918 33.267 13.654 66.534 27.301 102.823 42.195m-100.917-61.606c26.406-2.318 52.829-4.557 79.235-7.003 9.832-.919 13.56 2.614 15.067 12.12 2.086 13.08 6.913 25.774 11.577 42.171-38.536-11.712-72.05-28.213-106.756-42.043.298-1.743.588-3.494.877-5.245m109.378 72.774c2.324 31.483 4.393 59.671 6.895 93.6-21.264-22.28-32.28-44.617-47.313-64.204-3.83-4.997 1.158-6.747 4.895-8.858 10.973-6.204 21.818-12.59 35.523-20.538m52.463 220.776c-27.81 3.166-55.613 6.356-83.432 9.466-4.384.487-8.376-.015-11.688-3.59-23.103-24.879-46.36-49.645-69.564-74.444 57.52 18.18 111.625 40.364 164.684 68.568m9.44-19.362c-.825 1.047-1.643 2.103-2.468 3.15-23.59-10.025-47.126-20.154-70.782-30.044-12.31-5.132-8.326-16.14-10.198-24.743-6.13-28.068-11.45-56.297-17.076-84.462 1.804-.455 3.609-.919 5.414-1.382 31.7 45.824 63.4 91.657 95.11 137.481m-32.74-214.373c14.787-3.813 29.08-9.337 49.595-16.1-19.655 41.155-37.03 77.514-54.395 113.873-1.975-.376-3.941-.759-5.916-1.143 2.417-25.687-2.46-50.86-4.265-76.26-.8-11.28 3.03-17.284 14.982-20.37m82.138 254.497c38.187 15.982 76.144 32.426 114.196 48.687-.47 1.208-.937 2.407-1.405 3.605a1029328 1029328 0 0 1-188.885-29.867c9.023-14.015 25.265-16.46 35.59-25.55 15.349-13.51 27.658-2.247 40.504 3.125m-28.586-34.432c-17.22-25.35-34.85-50.46-54.48-78.738 56.302 5.477 108.008 10.505 166.293 16.173-37.37 24.071-69.54 44.785-101.708 65.507-4.708 3.03-7.167 1.384-10.105-2.942m16.898-224.949c33.19 48.398 66.015 97.021 102.006 150.088-59.392-5.907-112.647-11.328-165.935-16.396-8.794-.839-8.922-3.942-5.772-10.433 19.51-40.22 38.886-80.505 57.92-120.925 3.32-7.043 7.184-9.034 11.78-2.334m188.725-4.198c-24.61 49.23-48.2 96.43-73.983 148.011-36.417-53.468-71.03-104.28-108.663-159.53 63.87 4.03 121.78 7.682 182.646 11.52m58.158 88.571c4.162 6.891-.971 8.058-5.39 10.025-35.241 15.717-70.5 31.37-111.548 49.622 24.618-49.03 46.479-92.56 69.906-139.225 16.625 28.23 31.58 54.035 47.032 79.578m50.947-117.648c7.517-2.246 12.182-.088 12.028 8.675-.417 24.91 7.26 49.445 3.619 77.266-33.038-20.378-63.862-39.388-98.065-60.486 30.066-9.33 56.174-17.596 82.418-25.455m-53.127 86.99c-7.015-12.033-14.012-24.073-18.217-38.903 26.185 16.245 52.369 32.498 80.887 50.19-41.584 24.92-41.584 24.92-62.67-11.288m19.17 60.63c20.405 36.894 41.04 73.67 61.605 110.492-1.285 1.016-2.561 2.04-3.847 3.054-61.3-22.945-122.598-45.88-188.34-70.487 40.622-18.38 77.31-35.144 114.187-51.533 8.76-3.893 12.769 1.91 16.396 8.474m59.238 1.727c1.575 27.301 6.028 54.466 9.186 81.688-1.788.2-3.584.4-5.372.607-17.153-30.307-34.306-60.606-51.45-90.905-3.626-6.396-5.79-10.353 4.538-15.19 38.128-17.875 40.783-16.357 43.098 23.8m25.598 86.613c-8.99-66.947-18.702-133.517-17.758-201.319 16.744 31.731 33.284 63.557 50.403 95.103 3.218 5.932 4.137 11.552 2.06 17.38-10.572 29.7-21.46 59.296-34.705 88.836m47.15-82.72 62.986 76.54c-34.35 11.92-66.662 23.136-103.173 35.807a404960 404960 0 0 0 40.187-112.347m71.158-93.168c9.202 3.797 9.9 6.547 2.68 12.088-21.723 16.668-43.72 33.033-65.18 49.998-9.38 7.418-11.696 1.095-14.973-5.26-19.06-36.904-38.196-73.758-59.733-115.298 49.058 21.018 92.923 40.181 137.206 58.472m-125.23-79.353c12.719-7.355 25.897-14.007 38.972-20.818 6.716-3.502 11.049-1.727 16.054 4.221 21.188 25.223 43.193 49.83 64.9 74.661-1.141 1.183-2.281 2.358-3.422 3.542-38.664-16.597-77.192-33.498-116.095-49.599-11.364-4.708-6.342-8.586-.408-12.007m69.82-37.239c29.82-16.908 59.792-33.56 95.409-53.49-6.725 54.258-12.812 103.416-19.571 157.898-28.661-33.345-53.56-62.668-78.962-91.608-5.738-6.532-2.026-9.882 3.124-12.8m34.97-59.343c24.49-28.173 28.483-29.124 51.807-9.72-18.881 3.54-34.408 6.45-51.807 9.72m-17.868-36.287c-.46-1.128-.911-2.254-1.37-3.374 23.137-9.265 46.265-18.523 69.402-27.773 3.286-1.319 6.614-2.558 9.926-3.837 35.863-13.854 35.863-13.854 59.469 20.554-47.228 4.956-92.327 9.697-137.427 14.43m81.405-77.435-.561-4.477c41.005-10.113 81.993-20.314 123.04-30.267 7.449-1.799 13.62-.672 17.595 7.227 6.35 12.6 13.893 24.663 23.623 41.652-57.494-4.965-110.595-9.546-163.697-14.135m154.384-30.787c27.717 10.777 50.267 19.54 73.94 28.74-38.766 23.05-46.623 20.274-73.94-28.74m12.99 63.804c5.72-2.654 8.794-2.134 12.59 2.351 23.52 27.757 47.254 55.354 70.91 83.015a954 954 0 0 0-2.017 3.398c-51.331-17.533-102.661-35.073-158.896-54.283 29.113-12.887 53.443-23.344 77.413-34.48m-115.31.2c1.71-6.74 8.087-4.062 12.462-4.118 22.847-.272 45.695-.128 68.543-.128.468 1.447.927 2.894 1.396 4.341-17.69 7.86-35.268 15.95-53.127 23.424-5.925 2.478-30.765-17.676-29.274-23.52m90.378 225.062c-39.62-46.968-79.202-93.968-118.913-140.864-5.312-6.276-6.444-9.425 2.545-15.149 40.963-26.086 40.963-26.662 59.673 15.261 20.6 46.13 40.529 92.53 60.746 138.81-1.353.647-2.698 1.294-4.051 1.942m-152.478-174.6c15.697-.64 28.15-8.17 42.129-3.494-21.911 21.202-23.674 21.434-42.13 3.494m56.023 209.256c-13.63-1.167-27.284-1.99-40.878-3.382-8.214-.839-15.893-2.614-14.463-13.31 6.58-49.167 13.008-98.34 20.133-152.392 51.373 60.758 100.005 118.28 151.48 179.15-42.213-3.662-79.243-6.892-116.272-10.066m-36.587 13.542c.697-1.479 1.395-2.949 2.093-4.428 39.993 3.933 79.976 7.858 119.968 11.792 10.564 1.04 28.704-.408 30.245 3.653 4.35 11.504-7.312 21.913-12.607 32.706-6.614 13.48-14.241 26.525-21.444 39.756-3.124 5.74-6.29 8.38-12.972 2.83-34.92-28.956-70.161-57.576-105.283-86.309m102.108 114.035c-17.315 35.127-32.408 65.778-47.518 96.43-3.49 7.082-8.444 5.987-13.816 2.102-24.192-17.5-48.377-35.008-75.26-54.467 45.33-14.622 87.945-28.372 136.594-44.065m-129.612-68.074c1.676-13.727 3.549-27.429 5.873-45.2 35.386 28.387 67.692 54.298 99.997 80.208-.818 1.247-1.626 2.494-2.444 3.75-31.777-9.114-63.443-18.588-95.408-27.078-7.763-2.062-8.717-5.9-8.018-11.68m8.154 24.68c34.663 9.97 69.259 20.146 103.879 30.258q.551 2.293 1.09 4.597c-38.341 12.456-76.656 24.967-115.031 37.334-8.18 2.64-12.266-.12-11.015-8.522 2.886-19.29 6.044-38.549 8.598-57.88 1.14-8.626 6.87-7.395 12.479-5.788m144.288-446.286c33.234-3.725 65.215 1.336 96.916 6.132 20.83 3.158 20.702 26.814 34.85 37.806-1.192 1.543-2.383 3.08-3.567 4.621-42.733-16.188-85.465-32.377-128.2-48.559m146.137 84.974c-1.652 15.222-3.167 30.451-5.295 51.125-8.691-20.833-8.538-38.062-10.786-54.738-.92-6.867 5.116-6.836 10.292-6.58 7.848.392 6.3 5.468 5.789 10.193m44.138-40.052c-24.883-16.149-47.025-30.508-72.7-47.176 49.28 3.166 63.165 12.088 72.7 47.176m4.587 29.324c6.785 2.414 1.643 6.747.298 9.65-5.448 11.735-9.1 24.422-20.847 33.488 3.72-12.535 7.482-25.055 11.126-37.598 1.362-4.709 4.8-7.187 9.423-5.54m39.073 5.012c11.466 4.157 1.055 10.377-1.421 13.431-15.35 18.867-31.658 37.046-47.646 55.45-1.285-.744-2.57-1.495-3.855-2.239 10.428-21.545 20.949-43.05 31.258-64.643 5.966-12.496 15.186-4.349 21.664-1.999m10.173-31.05c-10.812-14.87-20.15-27.717-30.076-41.364 27.556 9.402 34.145 17.796 30.076 41.363m4.894 46.37c10.769 18.674 9.483 38.244 14.838 56.064 1.617 5.396-5.125 5.38-8.717 6.803-26.73 10.593-53.518 21.042-80.291 31.54q-1.788-1.597-3.575-3.19c25.35-29.749 50.709-59.504 77.745-91.218m25.964 43.226c-2.427-12.368-4.42-22.457-6.623-33.689 26.108 17.092 26.347 18.044 6.623 33.69m38.518.822c-.484 12.384-8.435 18.996-12.061 27.262-1.754 3.997-4.648 9.69-10.88 4.101-4.307-3.869-8.078-8.962-2.144-13.815 7.244-5.93 15.416-10.872 25.085-17.548m-103.112 54.595c34.612-24.287 59.299-27.677 71.6-9.634-23.844 3.206-45.764 6.156-71.6 9.634m-44.997-119.23c10.377 2.286 1.396 16.165-.52 24.966-.808 3.702.34 7.971-4.843 11.92-6.07-5.836-2.741-11.104-.775-15.493 3.337-7.45-3.277-23.472 6.138-21.393m83.746 310.578c-31.93 33.761-36.876 34.057-61.596 4.038 20.097-7.29 40.443-3.774 61.596-4.038m-55.178-32.12c14.462-21.978 28.925-43.955 43.993-66.85 9.662 7.993 10.3 18.506 15.212 26.868 4.324 7.363 1.073 11.32-5.108 14.822-16.872 9.561-33.803 19.043-50.71 28.548-1.123-1.127-2.255-2.254-3.387-3.389m51.995-96.71c-3.576 2.758-7.806 2.606-11.96-.024-21.648-13.71-43.39-27.293-69.982-43.994 56.199-7.01 106.594-13.303 156.989-19.595.613 1.248 1.225 2.503 1.838 3.75-25.606 19.978-51.161 40.013-76.885 59.863m24.865 50.11s-17.026-5.597-15.322-27.182c0 0 17.024 11.992 15.322 27.182m-12.77-35.176c15.289-7.467 32.034-25.615 43.415-31.179.85 10.393-17.655 43.578-43.414 31.18m78.477-135.116c19.153 38.19 15.348 42.746-24.644 43.37 6.479-15.55 13.118-30.227 24.644-43.37M197.939 1579.02c-7.364 15.054-20.142.184-29.727-.51-9.083-.664-1.66-9.635 1.6-14.008 25.522-34.208 51.315-68.225 77.023-102.306 1.115.592 2.238 1.192 3.354 1.783-17.281 38.406-33.736 77.164-52.25 115.041m-23.316 38.001 14.309-12.254 12.973 11.775Zm-20.661-2.902c-2.4-9.466-.808-18.795 5.108-27.98l16.523 10.344ZM273.13 965.642c-48.13-5.893-96.277-11.64-144.4-17.62-2.586-.32-4.936-2.31-10.325-4.957 54.149-13.279 105.42-25.934 156.743-38.35 9.03-2.182 15.033-.479 14.232 10.593-.868 12.104-1.03 24.367.043 36.447 1.098 12.36-4.835 15.294-16.293 13.887M1790.34 629.68c-9.073-7.075-15.585 1.111-22.643 7.02-4.18 3.501-12.64 10.568-17.63 13.278-32.346 17.588-39.463 11.72-55.203-21.545-10.743-22.696-18.702-48.087-35.258-66.418-21.155-23.392-49.8-40.796-74.997-61.03-3.737-2.998-7.72-5.053-11.534-2.535-5.44 3.582-2.86 8.003.298 12.272 7.874 10.641 15.416 21.49 25.486 35.615-18.685-7.178-21.46-24.798-36.127-28.1-45.823-10.305-71.884-9.657-117.895-19.227-5.355-1.119-12.938-3.909-14.812 3.238-1.728 6.627 6.359 7.515 11.237 9.993 19.664 10.01 22.069 5.268 43.699 21.273-13.671.08-22.388-.112-31.633-1.287-33.454-4.269-67.078-7.419-100.712-10.273-5.456-.463-14.42-4.317-16.625 4.126-2.256 8.682 7.72 8.554 12.855 10.744 18.71 7.97 37.838 15.086 56.812 22.528-60.754 18.668-120.087 33.066-179.444 47.344-6.708 1.615-16.983.767-15.468 9.93 1.303 7.906 11.075 6.395 18.183 6.931 20.77 1.583 41.508 3.485 62.329 5.268-1.447 6.052-4.554 6.148-7.16 7.163-51.542 20.178-103.043 40.468-154.621 60.582-5.456 2.127-12.233 3.694-10.334 10.545 1.974 7.131 8.41 4.373 14.326 3.966 22.907-1.59 45.576-7.644 73.906-5.373-14.735 11.528-25.623 20.114-36.596 28.604-3.566 2.75-6.41 5.9-4.281 10.321 2.417 5.03 6.63 2.974 10.982 2.095 15.73-3.174 31.589-5.812 47.397-8.65.536 1.095 1.08 2.198 1.617 3.301-29.947 16.781-59.945 33.482-89.833 50.35-84.836 47.88-173.545 77.811-275.5 63.316-57.052-8.114-115.788-15.613-170.481 12.928-1.865.967-3.967 1.543-5.942 2.342-8.674 3.517-12.53 1.567-14.386-7.915-2.971-15.133-8.7-29.779-12.071-44.865-2.698-12.087-8.521-16.597-22.252-15.173-25.044 2.598-50.675 1.423-75.345 5.556-21.128 3.534-42.53 2.102-63.7 9.074-82.895 27.293-163.381 61.133-248.975 81.144-54.735 12.8-109.386 25.926-163.977 39.253-6.3 1.543-16.26 1.551-15.953 10.257.332 9.481 10.01 5.108 15.527 5.892 48.913 6.915 97.852 13.678 146.85 20.01 23.384 3.014 48.363 12.042 70.853 8.677 69.08-10.32 141.987-25.948 210.667-38.667 25.427-4.709 45.822-9.982 77.106-15.458-12.811 14.805-21.792 25.054-30.637 35.415-24.984 29.26-52.905 56.21-63.486 94.655-16.046 58.256-44.19 111.932-74.936 164.615-11.773 20.154-26.372 36.535-45.713 49.814-28.874 19.826-53.467 42.74-67.19 74.837-6.07 14.198-13.994 28.044-23.247 40.643-43.661 59.447-87.612 118.727-132.498 177.358-13.935 18.205-14.625 40.133-10.624 57.538 3.286 14.277 28.006 4.148 43.023 6.235 5.652.783 11.577.28 17.33-.136 9.969-.727 17.196-2.838 11.297-15.086-3.132-6.508-6.912-15.852-4.231-21.193 14.54-28.996 19.843-62.58 45.219-86.26 51.229-47.8 96.209-101.035 150.46-146.349 66.738-55.737 130.412-114.584 208.064-157.65 28.704-15.926 27.946-17.046 38.732 13.917 1.992 5.725 4.665 11.24 6.64 16.973 8.01 23.208-1.6 42.482-25.087 54.602-38.834 20.05-82.13 32.37-116.775 59.76-5.857 4.628-10.53 8.233-9.968 16.332 2.4 34.512 2.45 69.192 3.047 103.681.732 42.243 13.629 84.294 1.72 127.041-4.733 16.988 13.27 31.985 32.228 29.58 19.434-2.463 38.843-3.35 58.397-3.15 6.239.063 14.207 2.046 17.127-5.237 2.954-7.363-5.5-10.105-9.304-14.598-9.51-11.232-22.431-18.475-25.504-35.879-5.61-31.714-1.881-63.5-6.053-95.135-5.21-39.469 8.215-60.479 48.505-77.147 70.842-29.308 137.376-66.818 208.056-96.07 36.8-15.222 62.6-34.912 66.798-73.7 1.728-15.95 10.734-19.7 26.244-18.165 62.218 6.156 124.53 11.448 186.706 17.924 7.5.783 20.49.4 20.848 10.912 1.038 30.227 12.717 59.424 8.002 90.226-5.687 37.183-4.385 74.813 10.529 109.677 9.756 22.816 12.76 45.417 13.169 69.057.324 18.995-.578 38.03.213 57.008 1.2 28.5 20.133 52.165 26.568 79.906 3.08 13.262 34.757 2.086 52.642 8.034 4.579 1.527 10.01.983 15.049 1.096 26.006.56 25.29.575 23.18-23.865-.8-9.233-5.04-12.743-12.275-18.435-15.731-12.367-29.905-26.373-37.064-46.264-16.565-46.032-20.09-91.377-.715-137.322 2.027-4.805 1.03-10.664 1.967-15.957 3.899-22.089-10.045-41.652-9.304-63.732 1.012-29.828 6.665-60.103 3.618-89.21-3.96-37.798 11.653-58.04 46.97-69.609 1.968-.64 3.67-2.07 5.373-3.294 5.363-3.86 10.964-2.574 15.68.392 67.36 42.291 144.67 69.001 207.902 117.903 31.778 24.583 62.117 48.935 78.759 86.301 12.079 27.15 29.717 52.18 45.696 77.698 3.02 4.83 3.703 7.396.808 12.28-11.97 20.21-.476 47.736 22.857 55.45 17.509 5.796 35.625 10.257 52.573 17.236 15.195 6.26 17.442-1.15 14.726-11.216-5.95-22.065-9.908-44.474-18.787-66.066-22.167-53.94-56.881-100.955-89.501-149.186-3.464-5.117-8.436-9.514-8.453-16.029-.06-17.156-8.82-30.923-19.255-43.987-27.07-33.856-60.405-62.052-94.557-89.169-28.561-22.673-46.828-71.719-33.78-104.145 14.294-35.496 25.693-70.528 8.744-108.126-3.013-6.684-2.477-14.806-5.678-21.36-4.528-9.267-2.29-16.534 2.844-24.633 12.113-19.114 23.485-38.637 35.24-57.952 3.099-5.084 4.572-12.112 13.05-11.719 8.87.407 13.545 5.18 17.298 12.838 9.892 20.186 22.415 39.317 31.216 59.88 8.878 20.737 7.977 44.872-7.9 60.23-18.353 17.764-11.713 28.99 1.779 41.995 13.927 13.44 29.3 29.06 49.322 29.508 31.879.72 63.7-25.575 70.927-56.05 11.058-46.695 25.427-92.144 48.215-135.043 3.763-7.075 6.444-16.453 16.565-16.86 33.378-1.367 33.276-22.193 30.918-44.84-1.115-10.786-2.18-21.587-2.885-32.395-1.745-26.59-7.773-53.444 16.948-75.66 9.704-8.714 12.573-23.6 12.573-36.39 0-7.788.852-17.589-5.695-22.698"/></g></svg>