<svg xmlns="http://www.w3.org/2000/svg" xmlns:xlink="http://www.w3.org/1999/xlink" xmlns:inkscape="http://www.inkscape.org/namespaces/inkscape" version="1.1" width="2048" height="1920" viewBox="0 0 2048 1920">
<defs>
<clipPath id="clip_1">
<path transform="matrix(1,0,0,-1,0,1920)" d="M0 1920H2048V0H0Z"/>
</clipPath>
</defs>
<g inkscape:groupmode="layer" inkscape:label="Layer 1">
<g clip-path="url(#clip_1)">
<path transform="matrix(1,0,0,-1,895.7607,149.56739)" d="M0 0C-22.153-.154-23.325-1.348-18.355-21.045-15.748-31.375-12.037-41.438-8.937-51.657-8.121-54.348-6.979-57.551-4.071-57.064-2.062-56.729 .362-53.818 1.042-51.602 4.809-39.319 7.826-26.817 11.656-14.569 15.276-2.988 11.169 .571 0 0M-62.27-76.136C-62.209-85.656-45.632-98.668-35.833-97.145-30.734-96.353-29.674-93.388-30.405-89.16-34.411-65.989-38.405-42.827-42.59-19.712-43.023-17.323-43.714-14.005-47.153-14.016-50.445-14.026-51.51-16.916-52.002-19.573-55.489-38.406-58.88-57.266-62.27-76.136M518.972-361.054C473.821-362.454 430.649-367.409 389.856-384.969 385.186-386.98 377.074-385.381 377.599-392.793 378.205-401.325 386.342-399.262 391.918-399.168 435.962-398.422 478.595-389.97 520.067-375.974 526.571-373.779 539.047-376.097 537.41-365.842 535.801-355.758 524.245-363.64 518.972-361.054M-23.461-772.793C-9.973-769.743 .055-761.269 9.115-751.456 20.679-738.932 32.017-726.347 47.056-717.48 55.67-712.402 71.861-708.487 69.33-699.157 66.049-687.063 50.294-695.327 40.127-693.753 27.785-691.844 13.4-698.028 4.946-682.739 2.477-678.274-3.189-678.955-4.645-685.106-10.666-710.536-23.598-733.435-32.28-757.91-35.121-765.917-33.844-771.901-23.461-772.793M50.603-585.417C50.477-595.432 54.711-607.702 58.249-607.785 66.097-607.969 71.182-602.698 75.91-597.253 76.988-596.011 78.188-594.874 79.278-593.642 113.623-554.826 152.915-522.291 198.747-497.357 219.891-485.855 240.891-474.324 263.227-465.311 268.112-463.339 272.009-460.444 270.737-454.466 269.15-447.009 262.986-449.577 258.777-450.275 250.171-451.702 241.674-453.97 233.265-456.356 171.48-473.889 113.882-498.955 68.838-546.698 57.809-558.387 52.924-572.26 50.603-585.417M73.388-409.103C47.497-407.594 33.328-426.336 17.248-441.418 13.14-445.272 17.613-450.39 18.607-455 20.694-464.683 25.931-473.212 23.432-484.508 14.88-523.174 4.147-560.741-18.968-594.088-26.752-605.316-21.47-615.979-13.776-625.059-9.206-630.451-4.051-631.248-2.95-622.127-1.197-607.619 5.557-595.231 14.656-584.327 30.496-565.343 38.327-543.912 42.227-519.751 46.662-492.272 56.013-466.582 82.248-450.029 104.855-435.765 126.144-419.514 148.186-404.431 152.035-401.797 155.941-399.568 153.79-394.525 151.749-389.742 146.928-389.397 142.468-390.419 137.68-391.516 133.134-393.618 128.36-394.812 110.019-399.399 93.129-409.507 73.388-409.103M84.164-316.675C70.172-326.142 60.56-323.066 53.468-310.152 50.87-305.42 47.673-300.994 45.259-296.182 25.836-257.465 3.213-220.906-27.263-189.491-30.267-186.395-32.899-181.734-37.959-184.415-43.36-187.277-40.221-191.422-38.577-195.516-24.572-230.412-14.167-266.887 6.863-298.795 11.572-305.94 11.584-312.75 9.271-320.333 7.285-326.847 5.17-330.708-2.563-325.279-40.507-298.635-83.117-290.691-129.187-294.849-140.507-295.871-151.887-294.918-162.465-299.995-165.515-301.459-168.377-303.592-167.461-307.45-166.744-310.469-163.654-311.273-160.996-311.524-152.764-312.3-144.493-313.31-136.248-313.195-117.974-312.938-99.744-313.833-82.19-318.474-44.026-328.565-18.798-352.661-5.799-389.297-3.475-395.846-2.813-406.364 8.781-398.42 46.019-372.904 86.586-353.931 128.585-337.795 139.428-333.628 141.779-328.249 136.541-316.84 118.46-277.458 111.804-235.676 115.757-192.813 117.471-174.228 122.577-155.909 126.789-137.626 128.144-131.746 131.904-126.527 139.585-127.672 148.361-128.98 144.223-135.898 144.887-140.554 145.255-143.14 144.626-145.913 144.166-148.555 134.598-203.612 145.076-255.053 172.955-303.572 177.875-312.134 183.877-314.794 193.187-312.137 276.268-288.426 361.695-282.738 447.176-280.869 511.093-279.471 575.134-277.8 638.889-284.71 646.571-285.543 653.877-286.545 653.906-274.293 654.11-186.07 654.71-98.045 655.635-10.224 655.783 3.785 649.094 6.628 637.257 3.886 592.332-6.521 548.639-20.379 506.672-39.71 445.795-67.751 389.881-103.165 339.744-147.448 335.188-151.471 330.719-154.788 325.671-150.26 320.176-145.331 322.369-139.522 326.761-134.599 334.674-125.731 342.769-117.022 350.582-108.08 377.202-77.61 403.869-47.235 430.013-16.493 433.477-12.419 439.38-7.134 436.445-1.297 433.725 4.114 426.614 1.6 421.384 1.722 321.351 4.052 221.19 3.053 120.895 1.241 92.8 .733 94.53 3.398 86.797-24.461 84.887-31.341 81.998-37.962 78.909-46.021 78.494-47.103 76.957-47.217 76.394-46.203 70.499-35.582 65.925-25.197 62.734-14.843 61.535-10.952 61.227-5.992 57.723-5.822 51.949-5.543 50.63-10.533 48.723-13.917 33.876-40.243 25.499-69.302 12.899-96.611 8.761-105.581 14.518-108.415 19.519-111.749 37.563-123.774 51.604-139.203 61.847-157.969 64.246-162.364 68.597-166.964 61.791-171.978 55.64-176.509 50.196-175.899 46.019-170.423 17.346-132.836-26.325-122.311-68.59-109.239-74.017-107.561-81.123-103.147-84.65-110.667-88.079-117.978-79.175-118.739-75.337-121.386-36.437-148.209-3.247-180.485 25.361-217.817 48.847-248.465 64.078-283.581 84.164-316.675M255.318-1073.457C246.121-1076.356 239.363-1078.356 232.689-1080.611 183.284-1097.304 134.222-1115.492 83.255-1127.236 67.583-1130.847 51.792-1132.473 37.888-1141.515 33.417-1144.423 28.685-1146.937 31.103-1152.943 38.599-1171.566 41.531-1191.945 53.058-1209.075 57.94-1216.329 61.044-1224.531 62.906-1233.288 71.547-1273.907 75.005-1314.861 71.77-1356.577 69.736-1382.8 69.462-1395.534 100.448-1410.965 117.368-1419.391 130.808-1413.559 144.472-1406.214 213.001-1369.373 281.548-1332.836 349.141-1294.901 413.187-1258.956 476.36-1221.708 539.361-1184.468 574.377-1163.77 611.851-1147.039 642.849-1119.943 648.715-1114.816 653.062-1109.942 652.286-1102.039 650.62-1059.514 649.743-790.572 648.774-695.202 648.736-691.429 651.353-685.323 644.556-684.904 638.323-684.52 639.528-690.321 638.462-694.406 630.423-725.227 621.474-755.72 605.865-783.966 598.98-796.424 592.218-810.176 575.328-803.566 559.49-797.368 565.061-782.161 567.687-770.52 577.724-726.017 573.309-681.908 566.067-637.812 564.743-629.753 560.853-626.933 552.128-630.404 518.251-643.88 483.719-655.876 450.086-670.047 337.887-717.322 228.704-771.786 118.484-824.866 111.7-828.133 104.93-831.874 96.701-832.046 56.791-832.881 17.282-830.05-21.92-822.316-37.375-819.267-52.236-820.538-65.601-831.811-96.45-857.831-124.009-887.878-158.819-909.263-168.729-915.35-168.547-919.576-161.171-927.994-135.928-956.806-105.545-979.277-73.209-999.357-51.763-1012.674-28.742-1023.617-16.503-1047.692-7.578-1065.248-5.921-1084.423-3.017-1103.249-1.334-1114.157-.044-1118.597 12.073-1111.695 25.908-1103.814 41.33-1099.44 57.061-1095.756 103.574-1084.863 151.281-1077.497 191.864-1049.083 204.164-1040.47 217.394-1044.643 228.834-1052.785 237.289-1058.802 245.226-1065.533 255.318-1073.457M-239.232-328.266C-233.895-322.021-231.395-318.339-228.169-315.434-175.48-267.969-115.291-256.832-48.261-278.489-43.343-280.078-37.877-285.329-33.056-280.339-28.35-275.467-33.603-270.319-35.57-265.6-48.589-234.364-60.148-202.643-66.227-169.393-67.989-159.756-71.332-152.145-78.949-146.085-105.733-124.776-135.966-110.37-169.597-102.709-176.492-101.138-185.558-100.503-183.459-90.891-181.622-82.48-174.152-80.849-165.246-81.391-143.269-82.731-121.195-82.487-99.207-83.576-90.819-83.992-87.314-81.091-86.289-73.177-83.465-51.382-80.406-29.624-77.032-7.929-75.609 1.223-79.637 2.689-88.034 2.81-185.442 4.206-282.965 6.12-380.673 4.46-392.085 4.266-396.068 1.729-395.746-9.93-394.675-48.706-389.281-1554.159-389.585-1597.845-389.732-1618.955-386.75-1622.176-365.702-1622.355-326.37-1622.689-287.038-1623.075-247.745-1622.162-156.122-1620.032-64.646-1622.969 26.753-1619.382 61.479-1618.02 61.599-1618.865 69.621-1584.989 73.552-1568.39 81.167-1528.516 99.111-1522.537 169.563-1499.061 233.836-1463.454 294.15-1420.737 297.505-1418.361 302.415-1416.842 301.547-1409.833 296.28-1409.824 290.788-1408.904 285.687-1409.948 235.374-1420.251 185-1430.524 134.743-1441.576 101.953-1448.786 76.263-1436.191 52.869-1415.712 37.216-1402.009 42.036-1383.112 41.386-1365.99 39.124-1306.302 46.838-1245.115 13.052-1190.943 12.765-1190.482 12.474-1189.955 12.418-1189.432 10.843-1174.789 1.575-1166.147-10.786-1159.9-24.664-1152.885-30.597-1141.521-29.455-1126.191-28.507-1113.474-29.439-1100.89-32.173-1088.466-36.936-1066.822-42.836-1046.476-66.072-1036.001-79.49-1029.952-91.546-1020.944-104.086-1013.07-140.565-990.162-175.027-965.131-201.692-930.656-211.164-918.41-206.901-910.216-197.124-903.258-186.407-895.632-173.862-890.515-164.142-881.391-129.25-848.64-85.424-825.18-69.83-774.06-57.956-735.135-41.042-699.887-64.718-659.346-79.125-634.678-81.438-605.481-70.68-577.547-62.296-555.777-51.953-534.751-42.832-513.276-37.237-500.104-32.839-486.396-39.514-472.501-46.959-457.001-43.42-444.656-30.676-433.608-19.808-424.185-18.441-412.196-23.252-399.471-40.198-354.645-77.215-329.659-126.761-329.268-163.071-328.981-199.398-328.624-239.232-328.266M676.721 53.522C704.351 53.802 704.454 53.637 704.036 26.383 704.298-233.81 704.054-1632.541 704.239-1654.477 704.298-1669.471 699.305-1672.418 687.046-1672.253 653.71-1671.804-354.023-1673.818-416.021-1674.298-430.825-1674.413-447.47-1676.969-447.04-1653.447-446.683-1633.943-447.825 22.552-447.758 36.599-447.698 49.178-447.765 53.516-434.887 53.288" fill="#231f20"/>
</g>
</g>
</svg>
