<svg xmlns="http://www.w3.org/2000/svg" width="2048" height="1920" viewBox="0 0 2048 1920"><defs><clipPath id="clip_1"><path d="M0 0h2048v1920H0Z"/></clipPath></defs><g clip-path="url(#clip_1)"><path fill="#231f20" d="M895.76 149.567c-22.152.154-23.324 1.348-18.354 21.045 2.607 10.33 6.318 20.393 9.418 30.612.816 2.691 1.958 5.894 4.866 5.407 2.009-.335 4.433-3.246 5.113-5.462 3.767-12.283 6.784-24.785 10.614-37.033 3.62-11.58-.487-15.14-11.656-14.569m-62.27 76.136c.06 9.52 16.638 22.532 26.437 21.01 5.099-.793 6.159-3.758 5.428-7.986-4.006-23.17-8-46.333-12.185-69.448-.433-2.389-1.124-5.707-4.563-5.696-3.292.01-4.357 2.9-4.85 5.557-3.486 18.833-6.877 37.693-10.267 56.563m581.242 284.918c-45.151 1.4-88.323 6.355-129.116 23.915-4.67 2.011-12.782.412-12.257 7.824.606 8.532 8.743 6.47 14.319 6.375 44.044-.746 86.677-9.198 128.149-23.194 6.504-2.195 18.98.123 17.343-10.132-1.61-10.084-13.165-2.202-18.438-4.788M872.3 922.361c13.488-3.05 23.516-11.525 32.576-21.338 11.564-12.524 22.902-25.109 37.94-33.976 8.615-5.078 24.806-8.993 22.275-18.323-3.281-12.094-19.036-3.83-29.203-5.404-12.342-1.909-26.727 4.275-35.181-11.014-2.47-4.465-8.135-3.784-9.591 2.367-6.021 25.43-18.953 48.33-27.635 72.804-2.841 8.007-1.564 13.991 8.819 14.883m74.064-187.376c-.126 10.015 4.108 22.285 7.646 22.368 7.848.184 12.933-5.087 17.66-10.532 1.079-1.242 2.279-2.379 3.369-3.61 34.345-38.817 73.637-71.352 119.469-96.286 21.144-11.502 42.144-23.033 64.48-32.046 4.885-1.972 8.782-4.867 7.51-10.845-1.587-7.457-7.751-4.889-11.96-4.19-8.606 1.426-17.103 3.694-25.512 6.08-61.785 17.533-119.383 42.6-164.427 90.342-11.03 11.69-15.914 25.562-18.235 38.72m22.785-176.315c-25.891-1.509-40.06 17.233-56.14 32.315-4.108 3.854.365 8.972 1.359 13.582 2.087 9.683 7.324 18.212 4.825 29.508-8.552 38.666-19.285 76.233-42.4 109.58-7.784 11.228-2.502 21.891 5.192 30.971 4.57 5.392 9.725 6.19 10.826-2.932 1.753-14.508 8.507-26.896 17.606-37.8 15.84-18.984 23.67-40.415 27.57-64.576 4.436-27.479 13.787-53.169 40.022-69.722 22.607-14.264 43.896-30.515 65.938-45.598 3.849-2.634 7.755-4.863 5.604-9.906-2.041-4.783-6.862-5.128-11.322-4.106-4.788 1.097-9.334 3.2-14.108 4.393-18.341 4.587-35.231 14.695-54.972 14.291m10.776-92.428c-13.992 9.467-23.604 6.391-30.696-6.523-2.598-4.732-5.795-9.158-8.21-13.97-19.422-38.717-42.045-75.276-72.521-106.69-3.004-3.097-5.636-7.758-10.696-5.077-5.401 2.862-2.262 7.007-.618 11.101 14.005 34.896 24.41 71.371 45.44 103.28 4.709 7.144 4.72 13.954 2.408 21.537-1.986 6.514-4.101 10.375-11.834 4.946-37.944-26.644-80.554-34.588-126.624-30.43-11.32 1.022-22.7.07-33.278 5.146-3.05 1.464-5.912 3.597-4.996 7.455.717 3.02 3.807 3.823 6.465 4.074 8.232.776 16.503 1.786 24.748 1.671 18.274-.257 36.504.638 54.058 5.28 38.164 10.09 63.392 34.186 76.39 70.822 2.325 6.55 2.987 17.067 14.58 9.123 37.239-25.516 77.806-44.489 119.805-60.625 10.843-4.167 13.194-9.546 7.956-20.955-18.081-39.382-24.737-81.164-20.784-124.027 1.714-18.585 6.82-36.904 11.032-55.187 1.355-5.88 5.115-11.099 12.796-9.954 8.776 1.308 4.638 8.226 5.302 12.882.368 2.586-.261 5.36-.721 8.001-9.568 55.057.91 106.498 28.789 155.017 4.92 8.562 10.922 11.222 20.232 8.565 83.08-23.71 168.508-29.399 253.989-31.268 63.917-1.398 127.958-3.069 191.713 3.841 7.682.833 14.988 1.835 15.017-10.417.204-88.223.804-176.248 1.729-264.069.148-14.009-6.541-16.852-18.378-14.11-44.925 10.407-88.618 24.265-130.585 43.596-60.877 28.041-116.791 63.455-166.928 107.738-4.556 4.023-9.025 7.34-14.073 2.812-5.495-4.929-3.302-10.738 1.09-15.66 7.913-8.869 16.008-17.578 23.82-26.52 26.62-30.47 53.288-60.845 79.432-91.587 3.464-4.074 9.367-9.359 6.432-15.196-2.72-5.41-9.831-2.897-15.061-3.019-100.033-2.33-200.194-1.33-300.49.481-28.094.508-26.364-2.157-34.097 25.702-1.91 6.88-4.8 13.501-7.888 21.56-.415 1.082-1.952 1.196-2.515.182-5.895-10.62-10.47-21.006-13.66-31.36-1.2-3.89-1.507-8.85-5.011-9.02-5.774-.28-7.093 4.71-9 8.094-14.847 26.326-23.224 55.385-35.824 82.694-4.138 8.97 1.619 11.804 6.62 15.138 18.044 12.025 32.085 27.454 42.328 46.22 2.399 4.395 6.75 8.995-.056 14.01-6.151 4.53-11.595 3.92-15.772-1.556-28.673-37.587-72.344-48.112-114.61-61.184-5.426-1.678-12.532-6.092-16.06 1.428-3.428 7.311 5.476 8.072 9.314 10.72 38.9 26.822 72.09 59.098 100.698 96.43 23.486 30.648 38.717 65.764 58.803 98.858m171.154 756.782c-9.197 2.9-15.955 4.9-22.63 7.154-49.404 16.693-98.466 34.881-149.433 46.625-15.672 3.611-31.463 5.237-45.367 14.28-4.471 2.907-9.203 5.421-6.785 11.427 7.496 18.623 10.428 39.002 21.955 56.132 4.882 7.254 7.986 15.456 9.848 24.213 8.64 40.62 12.099 81.573 8.864 123.29-2.034 26.222-2.308 38.956 28.678 54.387 16.92 8.426 30.36 2.594 44.024-4.75 68.529-36.842 137.076-73.379 204.669-111.314 64.046-35.945 127.219-73.193 190.22-110.433 35.016-20.698 72.49-37.429 103.488-64.525 5.866-5.127 10.213-10 9.437-17.904-1.666-42.525-2.543-311.467-3.512-406.837-.038-3.773 2.579-9.879-4.218-10.298-6.233-.384-5.028 5.417-6.094 9.502-8.04 30.821-16.988 61.314-32.597 89.56-6.885 12.458-13.647 26.21-30.537 19.6-15.838-6.198-10.267-21.405-7.641-33.046 10.037-44.503 5.622-88.612-1.62-132.708-1.324-8.059-5.214-10.879-13.94-7.408-33.876 13.476-68.408 25.472-102.041 39.643-112.2 47.275-221.382 101.74-331.602 154.82-6.784 3.266-13.554 7.007-21.783 7.18-39.91.834-79.42-1.997-118.621-9.73-15.455-3.05-30.316-1.779-43.681 9.494-30.85 26.02-58.408 56.067-93.218 77.452-9.91 6.087-9.728 10.313-2.352 18.731 25.243 28.812 55.626 51.283 87.962 71.363 21.446 13.317 44.467 24.26 56.706 48.335 8.925 17.556 10.582 36.731 13.486 55.557 1.683 10.908 2.973 15.348 15.09 8.446 13.835-7.88 29.257-12.255 44.988-15.939 46.513-10.893 94.22-18.259 134.803-46.673 12.3-8.613 25.53-4.44 36.97 3.702 8.455 6.017 16.392 12.748 26.484 20.672m-494.55-745.19c5.337-6.246 7.837-9.928 11.063-12.833C720.28 417.536 780.47 406.4 847.5 428.056c4.918 1.59 10.384 6.84 15.205 1.85 4.706-4.872-.547-10.02-2.514-14.739-13.02-31.236-24.578-62.957-30.657-96.207-1.762-9.637-5.105-17.248-12.722-23.308-26.784-21.309-57.017-35.715-90.648-43.376-6.895-1.57-15.961-2.206-13.862-11.818 1.837-8.41 9.307-10.042 18.213-9.5 21.977 1.34 44.05 1.096 66.039 2.185 8.388.416 11.893-2.485 12.918-10.399 2.824-21.795 5.883-43.553 9.257-65.248 1.423-9.152-2.605-10.618-11.002-10.739-97.408-1.396-194.931-3.31-292.64-1.65-11.411.194-15.394 2.731-15.072 14.39 1.07 38.776 6.465 1544.23 6.16 1587.915-.146 21.11 2.836 24.331 23.884 24.51 39.332.334 78.664.72 117.957-.193 91.623-2.13 183.099.807 274.498-2.78 34.726-1.362 34.846-.517 42.868-34.393 3.93-16.599 11.546-56.473 29.49-62.452 70.452-23.476 134.725-59.083 195.039-101.8 3.355-2.376 8.265-3.895 7.397-10.904-5.267-.009-10.76-.929-15.86.115-50.313 10.303-100.687 20.576-150.944 31.628-32.79 7.21-58.48-5.385-81.874-25.864-15.653-13.703-10.833-32.6-11.483-49.722-2.262-59.688 5.452-120.875-28.334-175.047-.287-.46-.578-.988-.634-1.51-1.575-14.644-10.843-23.286-23.204-29.533-13.878-7.015-19.811-18.379-18.67-33.709.949-12.717.017-25.3-2.717-37.725-4.763-21.644-10.663-41.99-33.9-52.465-13.417-6.049-25.473-15.057-38.013-22.93-36.48-22.909-70.941-47.94-97.606-82.415-9.472-12.246-5.21-20.44 4.568-27.398 10.717-7.626 23.262-12.743 32.982-21.867 34.892-32.75 78.718-56.21 94.312-107.33 11.874-38.926 28.788-74.174 5.112-114.715-14.407-24.668-16.72-53.865-5.962-81.799 8.384-21.77 18.727-42.796 27.848-64.27 5.595-13.173 9.993-26.88 3.318-40.776-7.445-15.5-3.906-27.845 8.838-38.893 10.868-9.423 12.235-21.412 7.424-34.137-16.946-44.826-53.963-69.812-103.51-70.203-36.31-.287-72.636-.644-112.47-1.002m915.953-381.788c27.63-.28 27.733-.115 27.315 27.14.262 260.192.018 1658.923.203 1680.86.059 14.993-4.934 17.94-17.193 17.775-33.336-.449-1041.07 1.565-1103.067 2.045-14.804.115-31.45 2.671-31.02-20.85.358-19.505-.784-1676-.717-1690.047.06-12.579-.007-16.917 12.87-16.689"/></g></svg>