<svg xmlns="http://www.w3.org/2000/svg" xmlns:xlink="http://www.w3.org/1999/xlink" xmlns:inkscape="http://www.inkscape.org/namespaces/inkscape" version="1.1" width="2016" height="1728" viewBox="0 0 2016 1728">
<defs>
<clipPath id="clip_1">
<path transform="matrix(1,0,0,-1,0,1728)" d="M0 1728H2016V0H0Z"/>
</clipPath>
</defs>
<g inkscape:groupmode="layer" inkscape:label="Layer 1">
<g clip-path="url(#clip_1)">
<path transform="matrix(1,0,0,-1,820.5635,727.2129)" d="M0 0C-.368 6.693-.174 13.347-1.124 20.069-3.303 35.528-10.975 47.82-21.203 58.959-37.582 76.801-55.966 92.357-75.416 106.721-85.683 114.306-95.699 122.2-104.523 131.479-112.175 139.528-116.902 148.778-115.827 160.305-115.517 163.598-114.742 166.562-111.109 169.226-110.548 167.473-110.15 166.649-110.015 165.778-107.497 149.176-97.811 137.077-85.538 126.549-77.256 119.449-68.713 112.688-59.918 106.256-45.66 95.844-32.081 84.579-19.324 72.433-3.138 57.032 8.698 38.918 10.693 16.001 12.146-.62 9.347-16.379-2.296-29.427-3.371-30.627-4.523-31.79-5.744-32.846-6.403-33.427-7.274-34.008-8.233-33.388-9.125-32.807-9.279-31.819-8.94-30.937-8.185-29-7.449-27.015-6.413-25.223-1.86-17.416 .494-9.086 0 0M72.103-126.461C78.031-122.345 84.414-121.309 91.194-124.312 95.417-126.181 97.636-129.745 97.374-134.23 96.822-143.374 89.034-150.629 79.804-150.59 73.198-150.561 68.994-147.906 67.289-142.677 65.284-136.497 67.125-129.92 72.103-126.461M127.382-214.886C114.354-210.354 100.919-207.195 87.349-205.094 69.798-202.382 52.121-199.892 34.318-199.021 33.213-198.962 31.857-199.194 31.199-198.004 30.289-196.376 31.673-195.446 32.603-194.517 39.345-187.804 46.057-181.043 52.934-174.456 57.332-170.243 62.863-168.596 68.858-168.499 73.508-168.432 78.157-168.615 82.797-168.441 100.483-167.782 113.996-155.801 117.134-141.862 118.229-136.991 118.267-132.225 118.267-127.382 118.277-114.625 111.816-106.518 99.65-103.05 93.451-101.288 87.223-101.85 80.995-101.772 77.76-101.733 76.355-100.483 76.442-97.219 76.549-93.044 76.472-88.86 76.433-84.686 76.326-73.13 72.433-68.132 61.197-65.584 46.271-62.204 30.966-61.594 15.808-59.977 6.596-58.998-2.712-58.998-11.972-58.436-18.888-58.01-25.785-57.41-33.088-56.848-31.306-54.823-29.107-54.823-27.247-54.165-16.283-50.291-5.396-46.329 3.826-38.89 13.309-31.228 20.757-22.21 22.704-9.802 24.506 1.744 24.089 13.28 21.193 24.651 15.962 45.195 5.163 62.582-9.318 77.808-24.119 93.383-41.37 105.995-59.018 118.044-70.011 125.561-80.124 133.998-89.015 143.868-92.425 147.645-95.466 151.83-97.665 156.45-101.433 164.383-103.264 172.616-100.145 181.295-99.176 183.997-99.476 186.535-102.092 187.968-104.581 189.344-106.586 187.542-108.213 185.924-111.177 182.98-113.841 179.735-116.814 176.81-123.672 170.088-126.597 161.826-126.83 152.401-127.179 138.346-122.335 126.064-114.18 114.877-107.467 105.666-99.786 97.268-91.95 89.025-76.607 72.859-60.451 57.467-46.3 40.188-40.875 33.572-36.797 26.385-35.422 17.938-34.308 11.042-34.211 3.981-35.17-2.887-36.12-9.628-38.745-15.817-44.653-20.099-60.413-31.509-73.924-27.78-81.199-9.667-84.812-.687-86.245 8.621-83.504 18.2-81.886 23.857-78.487 26.656-73.111 26.753-68.132 26.85-62.718 23.886-61.565 20.437-59.918 15.517-61.71 10.732-66.466 7.148-68.316 5.753-70.292 4.446-71.842 2.76-75.019-.668-73.663-4.514-69.082-5.337-66.999-5.715-64.945-5.376-62.94-4.611-59.172-3.177-55.821-1.153-53.273 1.995-51.917 3.681-51.046 4.01-48.818 2.654-45.041 .368-42.997 1.308-40.875 4.988-39.452 7.458-38.899 10.18-38.667 12.979-37.563 26.424-43.82 37.126-56.47 43.277-68.151 48.944-80.172 49.515-93.035 47.578-126.956 42.454-147.18 2.605-126.365-28.39-118.917-39.48-109.25-47.82-97.026-53.254-95.282-54.029-93.055-54.271-91.96-56.46-94.556-57.448-96.861-56.935-99.147-56.829-122.093-55.666-145.059-54.678-167.977-57.206-176.733-58.165-185.354-60.112-193.422-63.86-201.2-67.493-206.45-73.13-208.232-81.925-209.133-86.342-208.881-90.691-209.104-95.079-210.314-119.032-202.992-140.816-191.794-161.506-184.084-175.735-173.439-187.678-161.613-198.633-160.073-200.047-157.768-201.103-157.448-204.348-170.834-204.735-183.668-206.11-196.473-207.68-207.079-208.978-217.521-211.051-227.304-215.555-229.609-216.62-231.789-217.976-233.881-219.419-235.624-220.62-235.789-222.567-235.227-224.456-234.704-226.229-233.251-226.81-231.479-227.013-230.016-227.178-228.263-226.354-226.771-228.379-229.212-230.984-232.399-233.086-232.757-237.213-233.425-244.981-228.718-251.635-220.64-253.446-216.785-254.309-212.833-254.521-208.871-254.561-195.873-254.657-182.864-253.911-169.865-254.841-163.356-255.306-156.625-257.389-153.37-260.498H-160.702C-204.135-260.488-247.567-260.488-290.99-260.479-295.639-260.479-300.308-260.759-304.928-260.421-317.52-259.472-324.872-256.759-329.725-242.221-333.463-230.994-336.088-219.458-338.839-207.961-346.104-177.565-351.731-146.821-358.473-116.32-360.372-107.719-362.725-99.147-367.452-91.553-371.995-84.24-380.354-84.395-384.936-91.699-386.679-94.478-387.599-97.617-388.568-100.716-393.556-116.717-394.331-133.465-397.14-149.854-399.396-163.075-401.237-176.364-403.339-189.615-403.494-190.594-403.552-191.949-405.489-192.337-405.693-184.172-406.032-176.112-406.894-168.054-408.366-154.261-408.569-140.322-410.119-126.539-410.768-120.795-411.04-115.013-411.727-109.279-412.715-101.007-413.539-92.706-414.032-84.395-415.127-65.875-415.543-47.307-417.122-28.826-417.713-21.891-417.316-14.858-418.507-8.049-420.164 1.366-420.105 10.877-420.774 20.312-421.461 29.988-422.294 39.703-422.789 49.409-423.157 56.538-422.963 63.812-424.096 70.883-425.792 81.44-425.83 92.105-426.392 102.702-426.925 112.872-427.544 123.081-428.349 133.193-429.617 149.34-430.75 165.506-431.913 181.653-433.405 202.43-434.218 223.274-436.504 243.993-437.415 252.255-438.732 260.507-442.616 268.092H127.382ZM-150.27-215.564C-150.319-218.586-153.021-218.741-154.135-220.224-156.721-223.633-155.733-227.246-151.568-228.185-148.808-228.805-145.931-228.592-143.403-227.255-134.162-222.364-125.173-224.32-115.914-227.469-95.486-234.413-74.302-236.302-52.896-235.227-42.958-234.723-33.156-232.554-23.634-229.521-9.173-224.921 5.172-226.451 19.527-229.958 20.854-230.287 22.2-230.675 23.237-232.002 20.602-234.811 16.834-234.511 13.599-235.198-10.49-240.342-34.948-242.113-59.512-242.53-76.908-242.821-94.314-242.772-111.71-242.521-120.718-242.385-129.668-240.573-138.734-241.049-141.204-241.174-143.093-239.702-145.185-238.704-156.489-233.328-167.744-227.855-180.104-225.153-185.721-223.923-191.61-224.456-198.372-222.044-181.74-219.168-166.194-217.424-150.27-215.564M-141.582-152.023C-118.035-155.83-94.372-158.048-70.496-157.516-68.646-157.477-66.786-157.486-64.936-157.641-63.211-157.787-60.645-157.39-60.567-159.781-60.509-161.951-63.066-162.329-64.761-162.658-74.108-164.499-83.436-165.226-93.006-163.831-101.666-162.562-110.489-162.542-119.227-161.69-128.864-160.75-138.511-159.656-147.771-156.604-150.067-155.85-152.808-155.491-154.28-151.937-149.689-151.937-145.543-151.384-141.582-152.023M-162.01-140.923C-161.535-139.47-159.859-139.306-158.426-139.451-153.835-139.916-149.176-140.1-144.652-140.991-132.419-143.412-120.021-145.146-107.651-145.854-94.265-146.618-80.908-148.565-67.435-147.839-65.362-147.732-61.827-146.561-61.526-149.485-61.226-152.508-64.897-151.752-66.979-152.275-71.745-153.467-76.627-153.467-81.528-153.815-93.732-152.75-105.917-151.52-118.132-150.677-129.213-149.912-140.216-148.739-151.064-146.367-153.98-145.728-156.828-144.691-159.646-143.693-160.876-143.248-162.572-142.608-162.01-140.923M-163.656-129.367C-160.189-129.358-156.634-128.99-153.253-129.581-124.031-134.637-94.469-134.618-63.88-134.84-66.282-138.599-69.236-138.86-71.667-139.083-80.869-139.906-90.052-141.078-99.37-139.857-104.397-139.198-109.56-139.683-114.645-139.393-129.639-138.54-144.643-137.639-159.259-133.717-161.467-133.116-163.744-132.699-166.136-130.365-164.829-129.823-164.248-129.377-163.656-129.367M-174.737-116.533C-174.553-115.313-173.468-115.081-172.674-115.139-170.378-115.294-168.073-115.565-165.826-116.059-148.187-119.904-130.423-122.297-112.32-122.675-99.37-122.946-86.449-124.098-73.469-123.536-72.781-123.507-72.065-123.518-71.396-123.682-69.769-124.089-66.989-123.43-67.251-126.045-67.464-128.206-69.982-128.176-71.832-128.195-78.545-128.234-85.257-128.206-91.97-128.206-117.211-128.234-142.279-126.384-166.988-120.941-169.226-120.457-171.425-119.681-173.556-118.82-174.321-118.509-174.893-117.589-174.737-116.533M-169.923-104.697C-159.85-105.908-149.815-107.525-139.751-108.872-121.096-111.371-102.324-111.681-83.533-111.506-78.661-111.458-73.789-111.497-68.917-111.526-67.677-111.536-66.437-112.078-66.234-113.279-66.021-114.519-67.144-115.235-68.268-115.749-69.982-116.524-71.755-117.008-73.634-117.066-107.797-118.044-141.698-115.797-175.183-108.659-177.711-108.116-177.721-108.155-180.897-104.784-177.052-103.38-173.401-104.28-169.923-104.697M-132.399-188.879C-131.973-187.339-130.598-186.815-129.174-186.748-127.333-186.671-125.387-186.457-123.653-186.913-104.92-191.931-85.819-192.744-66.583-192.191-64.5-192.134-62.378-192.095-60.345-192.424-58.562-192.705-56.306-193.209-56.16-195.407-56.015-197.538-57.991-198.546-59.831-198.953-62.766-199.582-65.74-200.086-68.732-200.356-71.251-200.59-73.818-200.405-76.355-200.405-90.953-198.322-105.966-200.521-120.427-196.57-124.031-195.582-127.44-194.226-130.607-192.289-131.828-191.542-132.845-190.468-132.399-188.879M-146.687-166.785C-147.732-166.34-148.721-165.478-148.43-164.121-148.13-162.707-146.822-162.494-145.698-162.562-142.706-162.746-139.635-162.756-136.749-163.443-115.943-168.441-94.875-170.543-73.499-169.934-69.023-169.807-64.442-169.43-59.86-170.602-60.519-173.953-62.602-174.902-64.858-175.474-67.764-176.21-70.67-176.858-73.721-177.004-95.854-178.089-117.521-175.057-138.918-169.7-141.582-169.032-144.139-167.86-146.687-166.785M-143.877-175.832C-143.674-174.96-142.899-174.263-141.843-174.204-139.063-174.05-136.312-173.895-133.542-174.573-115.943-178.854-98.072-180.917-79.949-181.179-73.479-181.275-67.066-182.786-60.538-182.477-59.182-182.418-57.429-182.486-57.245-184.229-57.061-186.061-58.495-187.339-60.131-187.678-63.754-188.414-67.425-188.937-71.106-189.363-72.937-189.576-74.815-189.401-76.675-189.401-97.026-188.191-117.279-186.157-136.991-180.559-138.957-180.007-141.078-179.638-142.744-178.205-143.509-177.556-144.09-176.723-143.877-175.832M-61.42-222.723C-67.493-224.466-73.798-224.35-80.056-224.359-92.493-224.747-104.494-222.723-115.943-217.821-118.384-216.775-122.297-215.971-121.454-212.658-120.437-208.6-116.688-210.973-114.374-211.612-98.082-216.039-81.46-216.193-64.781-215.835-63.851-215.815-62.921-215.768-62.001-215.854-59.802-216.058-56.451-214.983-55.918-217.695-55.24-221.162-58.931-222.006-61.42-222.723M-58.243-209.984C-60.422-210.721-62.669-211.67-64.917-211.768-70.68-212.019-76.462-211.845-82.235-211.845-94.014-212.038-105.821-211.719-117.086-207.65-118.393-207.176-119.759-206.837-121.009-206.266-123.624-205.064-127.992-204.251-126.869-200.812-125.832-197.616-121.483-198.865-118.742-199.495-110.412-201.403-102.024-202.875-93.597-204.125-85.538-205.316-77.412-204.464-69.314-204.677-65.846-204.765-62.369-204.696-58.892-204.765-57.507-204.784-55.87-204.881-55.531-206.527-55.114-208.503-56.664-209.462-58.243-209.984M-25.397-94.333C.988-93.578 27.305-91.175 53.147-85.257 53.37-85.199 53.593-85.092 53.816-85.092 55.152-85.073 56.857-84.608 57.196-86.487 57.429-87.833 56.053-88.376 54.988-88.686 52.557-89.403 50.086-90.042 47.597-90.565 27.838-94.769 7.846-96.842-12.331-97.781-38.735-99.021-65.12-100.987-91.573-100.183-109.405-99.651-127.208-98.401-144.972-96.561-156.256-95.389-167.541-94.42-178.67-92.086-180.946-91.602-183.145-91.127-185.518-88.376-178.98-86.604-173.672-88.909-168.345-89.625-149.97-92.095-131.586-94.12-113.027-94.808-83.804-95.902-54.591-95.176-25.397-94.333M-93.122-13.667C-90.933-17.483-88.541-21.184-86.575-25.097-85.364-27.518-86.478-29.068-88.734-28.525-99.089-25.998-112.087-14.646-114.209-4.098-114.519-2.528-114.422-.881-114.596 2.122-113.773 11.681-109.637 20.844-100.668 27.509-99.738 28.196-98.779 28.884-97.733 29.358-95.214 30.511-92.057 32.196-89.994 30.066-87.824 27.828-90.614 25.436-91.989 23.459-100.396 11.304-100.348-1.065-93.122-13.667M127.382-541.666H-491.918C-491.396-540.271-490.959-538.838-490.562-537.404-487.347-525.752-486.484-513.702-485.293-501.769-484.102-489.816-482.958-477.825-481.961-465.844-481.448-459.635-481.748-453.31-480.566-447.179-478.987-438.965-478.919-430.605-478.338-422.334-477.728-413.567-477.215-404.733-476.382-396.026-474.803-379.414-473.883-362.764-472.808-346.143-471.219-321.85-470.735-297.47-469.989-273.129-468.981-240.651-470.444-208.145-468.594-175.638-467.839-162.475-467.015-149.253-466.657-136.032-466.424-127.75-466.386-119.313-465.204-111.071-463.712-100.726-463.606-90.265-463.102-79.92-462.424-66.04-460.545-52.179-461.378-38.231-461.417-37.543-461.359-36.836-461.223-36.148-458.772-23.324-459.702-10.248-459.053 2.683-458.259 18.394-456.312 34.124-457.165 49.922-457.194 50.62-457.087 51.316-457.029 52.014-455.479 70.04-455.15 88.134-454.414 106.208-453.891 119.197-452.729 132.157-452.845 145.166-452.845 145.688-452.883 146.444-451.731 146.628-451.227 141.794-450.394 136.981-450.278 132.157-449.881 116.388-447.905 100.716-447.004 84.976-446.568 77.382-446.345 69.711-445.6 62.107-444.65 52.431-443.459 42.745-443.304 33.04-443.12 21.436-442.083 9.87-441.347-1.666-440.766-10.693-440.756-19.74-440.04-28.749-439.081-40.759-438.335-52.789-437.618-64.81-436.998-75.222-437.124-85.732-435.836-96.057-434.79-104.387-435.109-112.736-434.18-121.047-433.153-130.249-432.668-139.509-432.039-148.759-431.458-157.08-431.467-165.478-430.373-173.73-428.6-187.058-428.058-200.474-426.692-213.82-425.53-225.105-424.038-236.302-422.14-247.461-421.481-251.345-420.231-255.122-418.42-258.657-413.141-268.944-404.927-269.69-397.828-260.624-393.14-254.638-390.524-247.771-388.819-240.457-383.957-219.71-381.303-198.585-377.758-177.604-376.605-170.824-375.511-164.024-374.387-157.234-373.089-158.125-372.595-158.93-372.479-159.792-370.532-174.94-368.023-189.993-365.098-204.987-361.127-225.289-355.809-245.213-347.828-264.344-342.016-278.263-331.381-285.536-316.396-285.41-286.447-285.168-256.556-287.174-226.558-286.021-187.358-284.52-148.082-285.071-108.853-284.016-96.096-283.667-85.286-286.292-74.215-293.072-55.55-304.502-37.427-316.493-20.612-330.489-13.299-336.573-5.87-342.529 2.131-347.73 11.09-353.562 20.806-357.088 31.528-357.301 49.273-357.649 61.555-341.551 55.947-324.746 51.045-310.062 41.069-299.446 26.297-294.622 16.408-291.387 6.005-290.515-4.621-291.881-17.29-293.509-30.134-293.586-42.726-290.922-48.683-289.663-54.368-287.192-59.56-283.551-57.274-282.95-55.075-282.757-52.876-282.767-14.326-282.883 24.215-282.34 62.766-283.541 84.298-284.219 105.84-284.384 127.382-284.374ZM-497.584-274.001C-497.488-276.315-497.507-278.649-497.71-280.955-499.725-303.862-499.425-326.867-500.074-349.813-500.742-373.225-502.708-396.627-501.837-420.076-501.808-420.948-502.099-421.82-502.389-423.68-504.19-421.48-504.336-420.058-504.326-418.72-504.268-410.129-505.44-401.624-506.012-393.081-506.593-384.286-507.058-375.491-507.736-366.706-508.462-357.232-509.789-347.799-510.099-338.325-510.409-328.824-511.145-319.312-511.949-309.897-513.373-293.062-514.409-276.199-515.485-259.365-516.211-248.061-517.925-236.748-517.199-225.356-517.141-224.437-517.218-223.487-517.393-222.577-519.291-212.3-518.478-201.81-519.921-191.484-520.841-184.84-520.909-178.089-521.684-171.425-522.003-168.713-522.875-165.952-524.028-163.453-526.721-157.622-531.021-153.806-537.792-153.234-544.998-152.634-550.413-155.181-554.093-161.506-558.336-168.81-561.232-176.636-562.908-184.85-565.911-199.572-568.574-214.373-571.383-229.153-573.03-237.842-575.277-246.317-579.49-254.183-581.35-257.67-584.004-259.771-587.878-260.876-593.157-262.396-598.495-261.67-603.783-262.135-609.062-262.6-611.968-260.914-614.428-255.79-622.061-239.876-638.372-232.069-654.887-235.896-668.622-239.082-679.674-250.695-682.376-264.702V268.092H-465.649C-468.4 263.52-470.231 258.386-470.851 253.03-472.488 238.781-474.241 224.514-475.036 210.198-476.392 185.653-477.554 161.07-477.825 136.487-478.038 116.989-480.314 97.558-479.414 78.041-479.384 77.353-479.394 76.646-479.491 75.958-482.097 57.109-481.729 38.057-483.327 19.12-484.654 3.458-485.254-12.301-486.204-28.012-487.279-45.825-488.15-63.667-488.955-81.489-489.826-100.949-490.775-120.398-491.763-139.848-493.081-166.01-494.408-192.173-495.802-218.334-496.791-236.854-498.427-255.394-497.584-274.001M-682.376-541.666V-278.001C-682.018-279.88-681.495-281.769-680.797-283.657-673.853-302.458-655.458-309.306-642.324-307.32-630.09-305.48-620.792-298.923-614.932-288.026-613.159-284.723-610.893-283.735-607.648-284.277-602.32-285.168-597.042-284.461-591.724-284.394-576.788-284.2-566.879-276.461-559.866-264.246-552.408-251.267-547.284-237.377-544.64-222.606-544.262-220.523-543.913-218.383-542.48-216.077-539.99-234.878-539.768-253.204-538.169-271.434-536.939-285.469-536.232-299.591-535.341-313.675-534.024-334.49-532.329-355.276-531.205-376.092-530.043-397.634-527.737-419.069-526.595-440.611-526.275-446.587-525.704-452.612-525.132-458.607-523.97-471.035-522.178-483.424-521.335-495.87-520.492-508.365-518.788-520.715-516.753-533.035-516.279-535.941-515.727-538.896-514.603-541.666ZM-709.497-568.787H154.50299V295.213H-709.497ZM-709.497 295.213"/>
<path transform="matrix(1,0,0,-1,1877.8125,1268.8789)" d="M0 0H-809.758V255.916C-800.004 254.899-790.279 254.919-780.535 254.482-735.959 252.487-691.364 253.466-646.789 253.873-637.549 253.95-628.24 254.425-619.087 256.217-613.459 257.321-608.423 259.355-604.606 263.84-601.148 267.907-600.005 272.276-602.466 277.312-604.315 281.101-606.476 284.655-609.498 287.609-617.624 295.571-625.576 303.736-633.984 311.389-649.434 325.463-664.824 339.585-679.276 354.695-685.214 360.904-690.493 367.665-695.19 374.91-703.172 387.221-709.778 400.269-715.58 413.693-723.6 432.252-724.791 451.508-718.824 470.764-713.43 488.16-702.349 501.817-685.775 509.305-665.667 518.4-645.19 517.47-625.519 506.709-611.135 498.834-599.821 487.772-591.084 473.94-586.997 467.471-583.326 460.671-578.309 454.859-572.274 447.875-566.54 448.253-561.377 455.837-558.636 459.867-556.321 464.177-553.764 468.323-545.356 481.922-535.157 493.729-521.325 502.205-498.602 516.143-474.377 518.904-451.053 506.525-420.512 490.33-412.173 464.961-416.047 434.102-417.49 422.682-422.091 412.269-426.963 401.973-437.841 378.988-454.259 360.022-471.364 341.677-483.869 328.262-497.274 315.699-510.089 302.574-515.436 297.111-520.851 291.591-524.541 284.791-529.025 276.558-528.87 265.806-517.867 259.732-511.979 256.487-505.653 255.161-499.231 254.812-484.634 254.028-469.998 253.631-455.372 253.495-432.853 253.281-410.322 253.505-387.793 253.369-380.334 253.33-372.943 253.901-365.572 254.725-356.681 255.723-349.687 259.665-346.152 268.383-345.028 271.172-343.866 273.962-342.937 276.828-338.297 291.193-334.936 305.877-331.787 320.629-331.284 323.003-330.974 325.404-329.056 328.127-325.637 309.81-322.354 292.278-319.089 274.736-315.118 253.35-311.214 231.943-307.146 210.566-306.071 204.88-304.802 199.194-301.78 194.109-298.681 188.879-294.39 185.963-288.055 186.496-282.176 186.98-278.998 190.768-276.81 195.61-275.772 197.906-275.221 200.444-274.649 202.924-272.373 212.862-271.162 222.974-270.02 233.096-268.401 247.344-266.648 261.583-264.953 275.831-263.704 286.398-262.444 296.966-261.225 307.544-260.11 317.181-259.035 326.828-257.94 336.466-256.739 347.023-255.558 357.582-254.299 368.13-253.243 377.09-252.1 386.039-250.986 394.989-249.814 404.404-248.681 413.819-247.441 423.224-245.891 434.925-244.244 446.607-242.646 458.288-241.029 470.183-239.401 482.077-237.784 493.972-235.614 481.631-234.094 469.272-232.767 456.893-231.101 441.444-229.628 425.985-228.001 410.545-226.858 399.716-225.521 388.907-224.388 378.077-223.265 367.481-222.441 356.846-221.211 346.259-219.612 332.476-217.889 318.701-215.932 304.957-214.363 293.944-212.581 282.95-207.68 272.741-204.513 266.154-199.572 261.603-192.928 258.687-184.239 254.89-174.931 253.94-165.729 253.679-133.465 252.749-101.2 253.786-68.984 255.693-64.742 255.945-62.281 254.822-59.898 251.17-50.958 237.455-33.911 232.709-20.902 236.477-11.487 239.198-4.523 244.157 0 251.189ZM-809.758 809.758H0V292.239C-2.46 295.648-5.656 298.719-9.569 301.412-22.239 310.139-35.693 309.994-48.982 302.458-56.799 298.031-61.836 291.145-64.616 282.718-65.769 279.25-67.715 278.098-71.241 278.107-80.53 278.127-89.819 277.962-99.108 277.643-122.316 276.828-145.533 276.15-168.693 278.378-180.181 279.482-188.017 285.217-189.741 296.966-190.681 303.368-191.794 309.752-192.453 316.184-193.605 327.468-194.371 338.791-195.466 350.075-196.705 362.958-198.022 375.83-199.533 388.684-200.173 394.205-200.608 399.735-201.199 405.257-202.217 414.671-204.037 424.009-204.899 433.434-206.343 449.106-208.57 464.701-211.051 480.208-214.75 503.309-216.106 526.633-218.741 549.841-220.358 564.099-222.073 578.318-224.854 592.373-225.831 597.332-227.352 602.311-230.161 606.679-233.783 612.316-238.675 612.82-243.383 608.064-246.095 605.333-247.383 601.827-248.352 598.233-250.744 589.283-252.352 580.159-253.631 571.005-255.762 555.662-257.621 540.291-259.597 524.928-261.341 511.407-263.151 497.885-264.817 484.353-266.358 471.945-267.685 459.519-269.206 447.11-270.426 437.23-271.85 427.389-273.1 417.519-274.349 407.668-275.492 397.798-276.684 387.947-277.826 378.532-278.969 369.118-280.093 359.713-281.245 350.065-282.369 340.418-283.521 330.78-284.713 320.91-285.943 311.04-287.125 301.16-288.171 292.434-288.868 283.647-290.37 274.998-290.961 271.627-290.699 267.946-292.172 263.811-293.11 265.312-293.663 265.825-293.77 266.416-295.368 275.065-296.918 283.716-298.438 292.365-302.681 316.522-306.846 340.68-311.176 364.817-312.444 371.879-314.023 378.92-316.735 385.594-319.748 393.023-326.286 395.105-333.173 391.048-335.855 389.468-337.783 387.221-339.207 384.471-341.357 380.324-342.714 375.889-344.156 371.472-348.961 356.69-351.605 341.367-355.325 326.305-358.773 312.348-362.919 298.603-367.171 284.868-368.798 279.608-371.472 276.896-377.447 276.509-383.928 276.083-390.398 275.637-396.888 275.628-427.312 275.589-457.736 275.356-488.131 276.8-490.204 276.896-492.325 277.109-494.291 277.69-497.885 278.766-498.553 280.364-496.238 283.183-493.448 286.583-490.291 289.711-487.085 292.724-477.603 301.615-467.974 310.362-458.462 319.225-434.596 341.464-415.311 367.122-401.218 396.597-390.214 419.622-386.271 443.488-391.492 468.885-395.59 488.819-405.537 504.607-420.279 518.438-438.363 535.409-459.741 540.988-483.54 539.99-490.697 539.69-497.865 538.664-504.917 537.375-522.623 534.121-538.605 527.427-551.333 514.002-556.447 508.598-560.873 502.65-565.9 497.197-570.511 492.189-570.55 492.034-575.199 497.41-579.006 501.788-582.726 506.254-586.726 510.447-605.613 530.246-628.512 540.668-656.155 540.397-662.471 540.339-668.631 539.477-674.801 538.595-688.042 536.707-700.673 532.755-711.531 524.686-740.222 503.367-751.951 474.076-747.747 439.371-743.524 404.53-729.062 373.351-706.252 346.607-686.937 323.961-664.824 304.027-642.469 284.413-640.881 283.009-638.439 282.107-638.343 278.446-646.75 278.543-654.702 276.993-662.752 276.839-706.397 275.996-750.033 277.517-793.659 278.369-794.822 278.389-795.984 278.708-797.137 278.649-802.6 278.369-806.687 279.647-809.758 282.194ZM-836.879-27.121H27.120972V836.879H-836.879ZM-836.879 836.879"/>
</g>
</g>
</svg>
