<svg xmlns="http://www.w3.org/2000/svg" width="2016" height="1728" viewBox="0 0 2016 1728"><defs><clipPath id="clip_1"><path d="M0 0h2016v1728H0Z"/></clipPath></defs><g clip-path="url(#clip_1)"><path d="M820.564 727.213c-.369-6.693-.174-13.347-1.125-20.07-2.178-15.458-9.85-27.75-20.078-38.89-16.38-17.841-34.764-33.397-54.213-47.761-10.268-7.585-20.284-15.48-29.108-24.758-7.651-8.05-12.379-17.3-11.303-28.826.31-3.293 1.085-6.257 4.717-8.921.562 1.753.96 2.577 1.095 3.448 2.518 16.602 12.203 28.7 24.476 39.229a423 423 0 0 0 25.62 20.293c14.259 10.412 27.837 21.677 40.595 33.823 16.185 15.4 28.021 33.515 30.016 56.432 1.453 16.62-1.346 32.38-12.989 45.428a38 38 0 0 1-3.448 3.419c-.659.58-1.53 1.162-2.488.542-.893-.581-1.047-1.57-.708-2.451.755-1.937 1.491-3.922 2.527-5.714 4.553-7.807 6.908-16.137 6.413-25.223m72.103 126.46c5.928-4.115 12.311-5.151 19.091-2.148 4.224 1.869 6.442 5.433 6.18 9.918-.552 9.144-8.34 16.399-17.57 16.36-6.606-.03-10.81-2.684-12.514-7.913-2.005-6.18-.164-12.757 4.813-16.216m55.28 88.425c-13.029-4.532-26.464-7.691-40.033-9.792-17.552-2.712-35.229-5.202-53.032-6.073-1.105-.06-2.46.173-3.119-1.017-.91-1.628.475-2.558 1.404-3.487 6.742-6.713 13.454-13.474 20.331-20.061 4.399-4.213 9.93-5.86 15.924-5.957 4.65-.067 9.3.116 13.94-.058 17.685-.66 31.198-12.64 34.337-26.58 1.095-4.87 1.133-9.636 1.133-14.48.01-12.756-6.452-20.863-18.618-24.331-6.198-1.762-12.427-1.2-18.654-1.278-3.236-.04-4.64-1.29-4.553-4.553.106-4.175.03-8.36-.01-12.533-.106-11.556-4-16.554-15.236-19.102-14.926-3.38-30.23-3.99-45.389-5.607-9.211-.98-18.52-.98-27.78-1.541-6.916-.426-13.812-1.026-21.115-1.588 1.781-2.025 3.98-2.025 5.84-2.683 10.964-3.874 21.851-7.836 31.073-15.275 9.483-7.662 16.931-16.68 18.878-29.088 1.802-11.546 1.385-23.082-1.51-34.453-5.231-20.544-16.03-37.931-30.511-53.157-14.802-15.575-32.053-28.187-49.7-40.236-10.994-7.517-21.107-15.954-29.998-25.824-3.41-3.777-6.45-7.962-8.65-12.582-3.768-7.933-5.599-16.166-2.48-24.845.97-2.702.67-5.24-1.947-6.673-2.489-1.376-4.494.426-6.12 2.044-2.965 2.944-5.629 6.189-8.601 9.114-6.859 6.722-9.784 14.984-10.017 24.409-.348 14.055 4.495 26.337 12.65 37.524 6.713 9.21 14.394 17.609 22.23 25.852 15.343 16.166 31.5 31.558 45.65 48.837 5.425 6.616 9.503 13.803 10.878 22.25 1.115 6.896 1.212 13.957.253 20.825-.95 6.74-3.576 12.93-9.484 17.212-15.76 11.41-29.27 7.68-36.545-10.432-3.614-8.98-5.047-18.288-2.306-27.867 1.619-5.657 5.018-8.456 10.394-8.553 4.978-.097 10.393 2.867 11.545 6.316 1.647 4.92-.145 9.705-4.9 13.289-1.85 1.395-3.827 2.702-5.376 4.388-3.178 3.428-1.822 7.274 2.76 8.097 2.082.378 4.137.039 6.141-.726 3.768-1.434 7.12-3.458 9.667-6.606 1.356-1.686 2.227-2.015 4.456-.66 3.777 2.287 5.82 1.347 7.942-2.333 1.423-2.47 1.976-5.192 2.208-7.991 1.105-13.445-5.153-24.147-17.803-30.298-11.68-5.667-23.702-6.238-36.564-4.301-33.922 5.124-54.146 44.973-33.33 75.968 7.447 11.09 17.115 19.43 29.339 24.864 1.743.775 3.97 1.017 5.065 3.206-2.596.988-4.9.475-7.187.369-22.946-1.163-45.912-2.151-68.83.377-8.755.959-17.377 2.906-25.445 6.654-7.778 3.633-13.028 9.27-14.81 18.065-.9 4.417-.649 8.766-.872 13.154-1.21 23.953 6.113 45.737 17.31 66.427 7.71 14.229 18.356 26.172 30.181 37.127 1.54 1.414 3.845 2.47 4.165 5.715-13.386.387-26.22 1.762-39.024 3.332-10.606 1.298-21.048 3.37-30.832 7.875-2.305 1.065-4.485 2.42-6.577 3.864-1.743 1.2-1.908 3.148-1.346 5.037.524 1.773 1.976 2.354 3.748 2.557 1.464.165 3.216-.66 4.709 1.366-2.442 2.605-5.629 4.707-5.987 8.834-.668 7.768 4.04 14.422 12.117 16.233 3.856.863 7.808 1.075 11.77 1.115 12.997.096 26.006-.65 39.005.28 6.51.465 13.24 2.548 16.495 5.657h-7.332c-43.433-.01-86.865-.01-130.288-.02-4.649 0-9.317.28-13.937-.057-12.592-.95-19.945-3.662-24.798-18.2-3.738-11.227-6.363-22.763-9.114-34.26-7.264-30.396-12.892-61.14-19.634-91.641-1.899-8.601-4.252-17.173-8.978-24.767-4.544-7.313-12.903-7.158-17.485.146-1.743 2.779-2.663 5.918-3.632 9.017-4.988 16-5.763 32.749-8.572 49.138-2.256 13.22-4.097 26.51-6.199 39.76-.155.98-.213 2.335-2.15 2.723-.204-8.165-.543-16.225-1.405-24.283-1.471-13.793-1.675-27.732-3.225-41.515-.649-5.744-.92-11.526-1.608-17.26-.988-8.272-1.812-16.573-2.305-24.884-1.095-18.52-1.51-37.088-3.09-55.57-.59-6.934-.193-13.967-1.385-20.776-1.656-9.415-1.598-18.926-2.267-28.361-.687-9.676-1.52-19.391-2.014-29.097-.368-7.13-.175-14.403-1.308-21.474-1.695-10.557-1.733-21.222-2.296-31.82-.533-10.17-1.151-20.378-1.957-30.49-1.268-16.147-2.4-32.313-3.564-48.46-1.491-20.777-2.305-41.621-4.59-62.34-.912-8.262-2.229-16.514-6.113-24.1h569.999Zm-277.653.678c-.048 3.022-2.75 3.177-3.865 4.66-2.586 3.409-1.597 7.022 2.567 7.96 2.76.62 5.637.408 8.165-.93 9.241-4.89 18.23-2.934 27.49.215 20.428 6.944 41.611 8.833 63.018 7.758 9.938-.504 19.74-2.673 29.261-5.706 14.462-4.6 28.807-3.07 43.162.437 1.327.329 2.673.717 3.71 2.044-2.636 2.809-6.404 2.509-9.639 3.196-24.089 5.144-48.547 6.915-73.11 7.332-17.397.29-34.803.242-52.199-.01-9.007-.135-17.957-1.947-27.024-1.471-2.47.125-4.358-1.347-6.45-2.345-11.305-5.376-22.56-10.85-34.92-13.551-5.616-1.23-11.505-.697-18.268-3.11 16.632-2.875 32.178-4.62 48.102-6.48m8.688-63.54c23.548 3.807 47.21 6.025 71.087 5.493 1.85-.04 3.71-.03 5.56.125 1.724.146 4.29-.251 4.368 2.14.058 2.17-2.499 2.548-4.193 2.877-9.347 1.84-18.676 2.568-28.245 1.173-8.66-1.27-17.484-1.29-26.221-2.141-9.638-.94-19.284-2.034-28.544-5.086-2.297-.754-5.038-1.113-6.51-4.667 4.591 0 8.737-.553 12.698.086m-20.428-11.1c.476-1.453 2.151-1.617 3.585-1.472 4.59.465 9.25.649 13.773 1.54 12.234 2.42 24.632 4.155 37.002 4.863 13.385.764 26.742 2.71 40.216 1.985 2.072-.107 5.607-1.278 5.909 1.646.3 3.023-3.372 2.267-5.454 2.79-4.765 1.192-9.647 1.192-14.548 1.54-12.204-1.065-24.39-2.295-36.605-3.138-11.08-.765-22.084-1.938-32.932-4.31-2.916-.64-5.764-1.676-8.582-2.674-1.23-.445-2.926-1.085-2.364-2.77m-1.645-11.556c3.466-.01 7.021-.377 10.403.214 29.221 5.056 58.783 5.037 89.372 5.259-2.402 3.759-5.356 4.02-7.787 4.243-9.202.823-18.385 1.995-27.702.774-5.028-.66-10.19-.174-15.275-.464-14.995-.853-29.999-1.754-44.615-5.676-2.207-.601-4.485-1.018-6.876-3.352 1.307-.542 1.887-.988 2.48-.998m-11.082-12.834c.184-1.22 1.27-1.452 2.063-1.394 2.297.155 4.601.426 6.848.92 17.64 3.845 35.404 6.238 53.507 6.616 12.95.27 25.87 1.423 38.85.86.688-.028 1.404-.017 2.073.147 1.627.407 4.407-.252 4.145 2.363-.212 2.16-2.73 2.13-4.58 2.15-6.713.039-13.426.01-20.139.01-25.24.029-50.308-1.821-75.018-7.264-2.238-.484-4.437-1.26-6.568-2.121-.764-.311-1.337-1.231-1.18-2.287m4.813-11.836c10.073 1.21 20.108 2.828 30.173 4.175 18.654 2.499 37.427 2.809 56.217 2.634 4.872-.048 9.745-.01 14.616.02 1.24.01 2.48.552 2.683 1.753.214 1.24-.91 1.956-2.034 2.47-1.713.775-3.486 1.259-5.365 1.317-34.163.978-68.064-1.27-101.55-8.407-2.528-.543-2.538-.504-5.713-3.875 3.844-1.404 7.495-.504 10.973-.087m37.524 84.182c.427-1.54 1.802-2.064 3.226-2.131 1.84-.077 3.787-.291 5.52.165 18.734 5.018 37.835 5.83 57.07 5.278 2.083-.057 4.205-.096 6.238.233 1.784.28 4.04.785 4.186 2.983.144 2.13-1.832 3.139-3.672 3.546-2.934.629-5.909 1.133-8.9 1.403-2.52.234-5.087.049-7.624.049-14.597-2.083-29.61.116-44.072-3.835-3.603-.988-7.013-2.344-10.18-4.281-1.22-.747-2.238-1.821-1.792-3.41m-14.288-22.094c-1.044-.445-2.034-1.307-1.743-2.664.3-1.414 1.608-1.627 2.732-1.56 2.992.185 6.063.195 8.95.882 20.805 4.998 41.873 7.1 63.25 6.49 4.475-.126 9.056-.503 13.638.669-.659 3.35-2.741 4.3-4.997 4.872-2.907.736-5.812 1.384-8.864 1.53-22.133 1.085-43.8-1.947-65.197-7.304-2.663-.668-5.22-1.84-7.769-2.915m2.81 9.047c.203-.872.978-1.57 2.034-1.628 2.78-.154 5.531-.31 8.301.369 17.6 4.28 35.47 6.344 53.594 6.606 6.47.096 12.882 1.607 19.41 1.298 1.356-.06 3.11.009 3.293 1.752.184 1.832-1.25 3.11-2.885 3.449-3.624.736-7.294 1.259-10.976 1.685-1.83.213-3.709.038-5.568.038-20.351-1.21-40.605-3.244-60.317-8.842-1.966-.552-4.087-.921-5.753-2.354-.764-.65-1.346-1.482-1.132-2.373m82.457 46.89c-6.073 1.744-12.379 1.628-18.637 1.637-12.436.388-24.437-1.636-35.886-6.538-2.442-1.046-6.355-1.85-5.511-5.163 1.016-4.058 4.765-1.685 7.08-1.046 16.291 4.427 32.913 4.58 49.592 4.223.93-.02 1.86-.067 2.78.019 2.2.204 5.55-.871 6.083 1.84.678 3.468-3.013 4.312-5.501 5.029m3.176-12.74c-2.179.738-4.426 1.687-6.674 1.785-5.763.25-11.544.077-17.317.077-11.78.193-23.586-.126-34.851-4.195-1.308-.474-2.673-.813-3.923-1.384-2.615-1.202-6.983-2.015-5.86-5.454 1.036-3.196 5.385-1.947 8.126-1.317 8.33 1.908 16.718 3.38 25.145 4.63 8.06 1.19 16.185.339 24.284.552 3.467.088 6.944.019 10.421.088 1.385.019 3.022.116 3.361 1.762.417 1.976-1.133 2.935-2.712 3.457m32.846-115.651c26.385-.755 52.702-3.158 78.544-9.076.223-.058.446-.165.67-.165 1.336-.02 3.04-.484 3.38 1.395.232 1.346-1.144 1.889-2.208 2.199a96 96 0 0 1-7.392 1.879c-19.759 4.204-39.75 6.277-59.928 7.216-26.404 1.24-52.788 3.206-79.241 2.402-17.832-.532-35.635-1.782-53.4-3.622-11.284-1.172-22.568-2.141-33.697-4.475-2.277-.484-4.476-.96-6.849-3.71 6.538-1.772 11.846.533 17.173 1.249 18.375 2.47 36.76 4.495 55.318 5.183 29.224 1.094 58.437.368 87.63-.475m-67.725-80.666c2.19 3.816 4.582 7.517 6.547 11.43 1.211 2.42.097 3.97-2.159 3.428-10.354-2.527-23.352-13.88-25.475-24.427-.31-1.57-.213-3.217-.387-6.22.823-9.56 4.96-18.722 13.928-25.387.93-.687 1.89-1.375 2.936-1.85 2.519-1.152 5.675-2.837 7.738-.707 2.17 2.238-.62 4.63-1.995 6.607-8.406 12.155-8.358 24.524-1.132 37.126m220.504 527.999h-619.3c.521-1.395.958-2.828 1.355-4.262 3.216-11.652 4.079-23.702 5.27-35.635 1.19-11.953 2.334-23.944 3.331-35.925.514-6.21.214-12.534 1.396-18.665 1.578-8.214 1.647-16.574 2.227-24.845.61-8.767 1.123-17.601 1.956-26.308 1.58-16.612 2.5-33.262 3.575-49.883 1.589-24.293 2.072-48.673 2.819-73.014 1.007-32.478-.456-64.984 1.394-97.491.755-13.163 1.58-26.385 1.938-39.606.233-8.282.27-16.72 1.452-24.961 1.493-10.345 1.599-20.806 2.103-31.151.678-13.88 2.556-27.741 1.724-41.69a8.4 8.4 0 0 1 .154-2.082c2.452-12.824 1.522-25.9 2.17-38.831.794-15.711 2.741-31.441 1.888-47.24-.029-.697.078-1.393.136-2.091 1.55-18.026 1.88-36.12 2.615-54.194.523-12.99 1.685-25.95 1.57-38.958 0-.522-.038-1.278 1.113-1.462.505 4.834 1.337 9.647 1.453 14.47.397 15.77 2.373 31.442 3.274 47.182.436 7.594.66 15.265 1.404 22.869.95 9.676 2.141 19.362 2.296 29.067.184 11.604 1.221 23.17 1.957 34.706.581 9.027.591 18.074 1.307 27.083.96 12.01 1.705 24.04 2.422 36.06.62 10.413.494 20.923 1.782 31.248 1.046 8.33.728 16.679 1.656 24.99 1.027 9.202 1.512 18.462 2.142 27.712.58 8.32.572 16.719 1.666 24.97 1.772 13.329 2.315 26.745 3.68 40.09 1.163 11.286 2.654 22.483 4.553 33.642a38.8 38.8 0 0 0 3.72 11.196c5.278 10.287 13.492 11.033 20.591 1.967 4.688-5.986 7.304-12.853 9.01-20.167 4.861-20.747 7.515-41.872 11.06-62.853 1.153-6.78 2.247-13.58 3.371-20.37 1.298.89 1.792 1.696 1.909 2.558 1.947 15.148 4.455 30.2 7.38 45.195 3.971 20.302 9.29 40.226 17.27 59.357 5.812 13.919 16.447 21.192 31.432 21.066 29.95-.242 59.84 1.764 89.839.61 39.2-1.5 78.476-.95 117.705-2.004 12.756-.35 23.566 2.276 34.637 9.056 18.666 11.43 36.789 23.42 53.604 37.417 7.313 6.084 14.741 12.04 22.742 17.24 8.96 5.833 18.676 9.359 29.398 9.572 17.745.348 30.026-15.75 24.418-32.555-4.902-14.684-14.878-25.3-29.65-30.124-9.889-3.235-20.292-4.107-30.918-2.741-12.668 1.628-25.513 1.705-38.105-.96-5.957-1.258-11.642-3.73-16.833-7.37 2.285-.601 4.484-.794 6.683-.784 38.55.116 77.092-.427 115.642.774 21.533.678 43.075.843 64.617.833Zm-624.967-267.665c.096 2.314.077 4.648-.125 6.954-2.016 22.907-1.716 45.912-2.365 68.858-.668 23.412-2.634 46.814-1.762 70.263.029.872-.262 1.744-.553 3.604-1.8-2.2-1.947-3.622-1.937-4.96.058-8.591-1.114-17.096-1.686-25.64-.58-8.794-1.046-17.59-1.724-26.374-.726-9.474-2.053-18.907-2.363-28.381-.31-9.501-1.046-19.013-1.85-28.428-1.424-16.835-2.46-33.698-3.536-50.532-.726-11.304-2.44-22.617-1.713-34.01a11 11 0 0 0-.195-2.778c-1.898-10.277-1.084-20.767-2.528-31.093-.92-6.644-.988-13.395-1.762-20.06-.32-2.711-1.192-5.472-2.345-7.971-2.693-5.831-6.993-9.647-13.764-10.22-7.206-.6-12.62 1.948-16.3 8.273-4.244 7.304-7.14 15.13-8.816 23.344-3.002 14.722-5.665 29.523-8.475 44.303-1.647 8.689-3.894 17.164-8.107 25.03-1.86 3.487-4.514 5.588-8.388 6.693-5.279 1.52-10.617.794-15.905 1.259-5.279.465-8.184-1.221-10.645-6.345-7.633-15.914-23.943-23.721-40.458-19.894-13.735 3.186-24.787 14.799-27.49 28.806V459.12h216.727c-2.75 4.572-4.582 9.706-5.202 15.062-1.637 14.249-3.39 28.516-4.185 42.832-1.356 24.545-2.517 49.128-2.788 73.71-.214 19.499-2.49 38.93-1.59 58.447.03.688.02 1.395-.077 2.083-2.606 18.849-2.238 37.9-3.836 56.838-1.327 15.662-1.927 31.42-2.877 47.132-1.075 17.813-1.945 35.655-2.75 53.477-.872 19.46-1.82 38.909-2.808 58.359-1.319 26.162-2.646 52.325-4.04 78.486-.989 18.52-2.625 37.06-1.782 55.667m-184.791 267.665v-263.665a35.4 35.4 0 0 0 1.578 5.656c6.945 18.8 25.34 25.649 38.474 23.663 12.233-1.84 21.531-8.397 27.391-19.294 1.773-3.303 4.04-4.291 7.284-3.75 5.328.892 10.606.185 15.924.118 14.936-.194 24.845-7.933 31.858-20.148 7.458-12.98 12.582-26.87 15.226-41.64.379-2.083.727-4.223 2.16-6.53 2.49 18.802 2.712 37.128 4.311 55.358 1.23 14.035 1.938 28.157 2.828 42.24 1.317 20.816 3.013 41.602 4.136 62.418 1.162 21.542 3.469 42.977 4.61 64.519.32 5.976.892 12 1.464 17.996 1.161 12.428 2.953 24.817 3.796 37.263.844 12.495 2.547 24.845 4.582 37.165.474 2.906 1.026 5.86 2.15 8.63Zm-27.121 27.12h864V432h-864Zm0-864"/><path d="M1877.813 1268.879h-809.759v-255.916c9.755 1.017 19.48.997 29.224 1.434 44.576 1.995 89.17 1.016 133.746.609 9.24-.077 18.549-.552 27.702-2.344 5.628-1.104 10.663-3.138 14.48-7.623 3.458-4.067 4.601-8.436 2.14-13.472-1.849-3.79-4.01-7.343-7.032-10.297-8.126-7.962-16.078-16.127-24.485-23.78-15.45-14.074-30.84-28.196-45.292-43.306-5.938-6.21-11.217-12.97-15.915-20.215-7.982-12.311-14.588-25.36-20.39-38.783-8.02-18.56-9.21-37.815-3.244-57.071 5.395-17.396 16.475-31.053 33.05-38.541 20.108-9.095 40.584-8.165 60.255 2.596 14.385 7.875 25.699 18.937 34.436 32.769 4.087 6.469 7.757 13.269 12.774 19.08 6.036 6.985 11.77 6.607 16.933-.977 2.74-4.03 5.056-8.34 7.612-12.486 8.409-13.6 18.607-25.406 32.44-33.882 22.723-13.938 46.947-16.7 70.272-4.32 30.54 16.195 38.88 41.564 35.005 72.423-1.443 11.42-6.043 21.833-10.916 32.129-10.877 22.985-27.295 41.95-44.4 60.296-12.506 13.415-25.91 25.978-38.726 39.103-5.347 5.463-10.762 10.983-14.452 17.783-4.484 8.233-4.328 18.985 6.675 25.059 5.888 3.245 12.214 4.57 18.636 4.92 14.596.784 29.232 1.18 43.858 1.317 22.52.214 45.05-.01 67.58.126 7.458.039 14.85-.532 22.22-1.356 8.891-.998 15.886-4.94 19.42-13.658 1.124-2.79 2.286-5.58 3.216-8.445 4.64-14.365 8-29.05 11.15-43.801.502-2.374.813-4.775 2.73-7.498 3.42 18.317 6.702 35.849 9.967 53.39 3.972 21.387 7.876 42.794 11.944 64.17 1.075 5.687 2.343 11.373 5.366 16.458 3.099 5.23 7.39 8.146 13.725 7.613 5.879-.484 9.056-4.272 11.245-9.114 1.038-2.296 1.589-4.834 2.16-7.314 2.276-9.938 3.487-20.05 4.63-30.172 1.619-14.248 3.371-28.487 5.067-42.735 1.249-10.567 2.509-21.135 3.728-31.713 1.114-9.637 2.19-19.284 3.284-28.922 1.201-10.557 2.382-21.116 3.641-31.664 1.057-8.96 2.2-17.91 3.314-26.86 1.171-9.414 2.304-18.83 3.544-28.234 1.55-11.701 3.197-23.383 4.795-35.064 1.618-11.895 3.245-23.79 4.862-35.684 2.17 12.34 3.69 24.7 5.017 37.079 1.666 15.449 3.14 30.908 4.766 46.348 1.144 10.829 2.48 21.638 3.614 32.468 1.123 10.596 1.947 21.23 3.177 31.818 1.598 13.783 3.321 27.558 5.278 41.302 1.57 11.013 3.351 22.007 8.252 32.216 3.168 6.587 8.108 11.138 14.753 14.054 8.688 3.797 17.996 4.747 27.198 5.008 32.265.93 64.53-.107 96.746-2.014 4.242-.252 6.703.87 9.086 4.523 8.94 13.715 25.986 18.46 38.995 14.693 9.415-2.721 16.38-7.68 20.902-14.712ZM1068.054 459.12h809.758v517.52c-2.46-3.41-5.655-6.48-9.568-9.173-12.67-8.727-26.124-8.582-39.413-1.046-7.817 4.427-12.854 11.313-15.634 19.74-1.153 3.468-3.1 4.62-6.625 4.61a764 764 0 0 0-27.867.465c-23.208.815-46.425 1.493-69.585-.735-11.488-1.104-19.324-6.84-21.048-18.588-.94-6.402-2.053-12.786-2.712-19.218-1.152-11.284-1.918-22.607-3.013-33.891-1.24-12.883-2.556-25.755-4.067-38.61-.64-5.52-1.075-11.05-1.667-16.572-1.018-9.414-2.838-18.752-3.7-28.177-1.444-15.672-3.67-31.267-6.151-46.774-3.7-23.101-5.055-46.425-7.69-69.633-1.617-14.258-3.332-28.477-6.113-42.532-.977-4.96-2.499-9.938-5.308-14.306-3.621-5.637-8.514-6.141-13.222-1.385-2.712 2.73-4 6.237-4.969 9.83-2.391 8.95-4 18.075-5.279 27.229-2.13 15.343-3.99 30.714-5.966 46.077-1.743 13.52-3.553 27.043-5.22 40.575-1.54 12.408-2.867 24.834-4.389 37.243-1.22 9.88-2.643 19.72-3.893 29.59-1.25 9.852-2.392 19.722-3.584 29.573-1.142 9.415-2.285 18.829-3.41 28.234-1.151 9.648-2.276 19.295-3.428 28.933-1.191 9.87-2.421 19.74-3.603 29.62-1.047 8.726-1.744 17.513-3.245 26.162-.591 3.37-.33 7.052-1.803 11.187-.938-1.501-1.49-2.014-1.598-2.605a3058 3058 0 0 1-4.668-25.95c-4.243-24.156-8.408-48.314-12.737-72.451-1.268-7.062-2.848-14.103-5.56-20.777-3.013-7.43-9.55-9.511-16.437-5.454-2.683 1.58-4.61 3.827-6.034 6.577-2.15 4.147-3.507 8.582-4.95 12.999-4.804 14.782-7.448 30.105-11.168 45.167-3.449 13.957-7.594 27.702-11.847 41.437-1.627 5.26-4.3 7.972-10.276 8.359-6.48.426-12.95.872-19.44.88-30.424.04-60.848.273-91.243-1.171-2.073-.096-4.195-.31-6.16-.89-3.594-1.076-4.262-2.674-1.947-5.493 2.79-3.4 5.947-6.528 9.152-9.541 9.482-8.891 19.111-17.638 28.623-26.501 23.867-22.24 43.152-47.897 57.245-77.372 11.004-23.025 14.947-46.891 9.726-72.288-4.098-19.934-14.045-35.722-28.787-49.553-18.085-16.971-39.463-22.55-63.262-21.552-7.157.3-14.324 1.326-21.376 2.615-17.707 3.254-33.688 9.948-46.417 23.373-5.114 5.404-9.54 11.352-14.567 16.805-4.61 5.008-4.65 5.163-9.299-.213-3.806-4.378-7.527-8.844-11.527-13.037-18.887-19.8-41.785-30.221-69.428-29.95-6.316.058-12.476.92-18.646 1.802-13.241 1.888-25.872 5.84-36.73 13.909-28.691 21.319-40.42 50.61-36.216 85.315 4.223 34.84 18.685 66.02 41.495 92.764 19.315 22.646 41.428 42.58 63.783 62.194 1.588 1.404 4.03 2.306 4.126 5.967-8.408-.097-16.36 1.453-24.41 1.607-43.644.843-87.28-.678-130.907-1.53-1.163-.02-2.324-.34-3.477-.28-5.463.28-9.55-.998-12.621-3.545ZM1040.935 1296h864V432h-864Zm0-864"/></g></svg>