<svg xmlns="http://www.w3.org/2000/svg" width="2048" height="1920" viewBox="0 0 2048 1920"><defs><clipPath id="clip_1"><path d="M0 0h2048v1920H0Z"/></clipPath></defs><g clip-path="url(#clip_1)"><path fill="#231f20" d="M600.825 1384.326c-.471-3.585-2.16-6.894-4.709-9.459-7.34-7.385-15.781-14.57-25.717-6.213-11.356 9.555-5.743 18.812-.543 31.061 8.818 20.804 29.467 41.395 39.219 64.975 1.801 4.356 4.217 9.833 5.167 12.666 2.096 6.206 3.561 17.161 13.599 11.11 6.624-3.995 12.339-8.703 6.436-21.262-13.191-28.058-29.308-51.303-33.452-82.878m127.644-160.052c-33.234-5.166-53.007 13.812-67.262 39.873-12.044 22.016-29.018 37.564-51.804 47.307-14.223 6.075-22.871 14.405-32.868 25.916-7.205 8.294-4.127 14.058 4.839 13.231 15.358-1.406 20.309 7.671 22.295 18.244.198 1.052 1.539 1.41 2.245.604 7.476-8.539 6.063-20.168 19.75-25.425 28.215-10.824 51.689-30.097 74.124-50.066 26.184-23.31 51.779-47.275 80.674-73.745-21.018-.58-36.059 6.542-51.993 4.061M316.665 904.711c-9.593 5.808-52.827 16.275-62.008 17.201-5.482.553-7.921 1.968-7.983 5.792-.111 6.704 1.129 13.477 2.343 20.123.283 1.553 2.796 3.425 4.558.574 12.325-19.947 58.798-28.015 63.09-43.69m1206.899-426.519c-23.44-18.61-42.549-10.648-63.778 17.884 21.034-13.73 38.675-20.612 63.778-17.884m99.938 42.633c-24.449 14.297-29.929 16.178-15.145 37.984 8.507-13.814 10.209-18.992 15.145-37.984m-270.424-29.994c19.079-23.89 41.026-35.254 66.531-42.056-23.857-15.725-49.293-.352-66.531 42.056m193.545 9.366c-25.882-23.493-61.321-12.098-78.582 24.956 43.189-29.768 41.193-30.28 78.582-24.956M316.605 820.057c-21.337-1.7-42.418 6.213-64.353.36-6.849-1.829-7.573 8.442-6.64 14.413.673 4.313 2.158 8.736 9.516 6.138 20.17-7.122 42.221-8.464 61.477-20.912m.429 39.487c-20.97-3.455-36.101 16.698-56.142 10.082 2.831-5.53 11.61-2.108 12.388-10.835-6.958-.433-13.638-1.04-20.33-1.212-6.628-.17-8.834 3.481-6.414 9.35 2.605 6.32-4.477 20.023 5.985 18.547 22.406-3.16 46.822-4.7 64.513-25.932m1135.677-407.079c-40.077-1.673-69.187 18.667-94.801 46.45 11.143-2.437 23.348 7.185 33.377-5.202 16.068-19.844 36.785-33.424 61.424-41.248m-85.382-4.074c-34.756 12.482-46.709 31.611-64.663 64.86 40.284-6.95 38.652-44.275 64.663-64.86M325.925 951.51c-24.84 13.178-45.166 28.535-71.743 30.084-10.837.632-7.356 10.921-7.593 18.166-.158 4.832.412 7.76 6.279 7.733 25.674-.116 61.34-26.145 73.057-55.983m1160.75-490.34c-28.741-.165-56.943 2.374-75.652 28.618-2.916 4.09-13.467 9.188-5.453 13.562 6.535 3.566 18.103 13.228 25.472 2.386 14.055-20.676 33.612-33.142 55.633-44.567M1210.117 822.9c3.074-55.795-11.229-83.753-50.955-86.676 17.873 28.26 31.142 55.35 50.955 86.676m135.101-379.419c-61.479 10.191-79.246 40.298-68.634 90.621 21.918-29.524 33.183-66.92 68.634-90.62m-41.877 151.158c38.268-8.762 70.748-19.064 105.271-10.194 5.537 1.423 13.146-7.068 14.913-14.833 2.216-9.74-6.569-8.903-12.618-9.559-7.909-.858-16.697-1.352-24.564 0-28.933 4.973-55.872 11.072-83.002 34.586m321.054 582.15-.037.032c3.513 6.49 5.706 14.367 10.796 19.2 13.412 12.731 27.281 24.457 28.008 44.293 7.21 21.066 12.461 33.134 30.298 38.07 7.698 2.13 16.53-.856 10.742-11.219-19.018-34.045-44.102-63.712-72.436-90.315-2.061-1.935-5.268-1.952-7.371-.062m-594.442-477.41c43.976-16.522 84.72-31.975 134.242-9.324-14.333-29.787-27.083-39.07-50.155-35.092-32.246 5.56-59.361 22.237-84.087 44.416m436.285-148.073c29.871-3.839 46.875 10.955 64.119 25.24 7.706 6.383 15.18 16.252 26.354 8.183 11.852-8.558 27.643-16.904 24.295-34.55-3.411-17.982 1.66-34.447 3.547-51.505-26.949 13.14-41.119 34.755-42.789 65.976-1.826-26.532-22.269-21.456-39.304-23.353 10.385-10.043 24.33-6.339 34.365-14.615-26.527-4.049-47.644 3.953-70.587 24.624m-57.247 311.205c1.828-19.254-6.139-33.948-7.71-50.493-1.165-12.264-21.906-18.976-25.976-10.674-5.879 11.992-13.743 23.577-14.283 37.657-.96 25.037 5.488 50.513-5.794 74.66-2.114 4.524-3.485 12.83 8.539 8.977 29.647-9.497 45.2-33.307 45.224-60.127m-595.436-92.944c-25.889-10.465-46.764-16.974-68.976 2.972-17.463 15.681-40.865 22.918-64.467 23.101-39.475.306-72.383 17.554-96.41 51.042-3.263 4.548-8.306 9.18-3.396 14.198 4.498 4.598 9.163-1.528 12.367-3.887 29.538-21.744 62.763-35.018 97.948-44.1 40.714-10.508 80.286-24.23 122.934-43.326m-66.597-14.554c-155.738-11.049-203.692 47.814-240.306 148.836 7.105-.446 10.481-5.654 14.47-10.298 13.922-16.21 27.564-32.7 42.175-48.276 26.304-28.042 52.714-54.3 93.68-60.449 30.258-4.543 63.854-5.42 89.981-29.813m-71.527 319.091c32.338-39.519 72.543-32.639 111.075-22.327-31.732-33.44-54.6-68.977-59.368-114.835-.711-6.843 2.608-25.567-12.953-22.846-12.935 2.262-24.764 12.545-27.136 27.761-1.237 7.94 1.284 15.873 4.425 24.075 5.624 14.685 6.073 28.41 2.496 44.71-4.038 18.407-11.337 37.446-18.539 63.462m576.383-450.79c17.522-14.877 28.459-29.272 43.922-38.806 32.334-22.775 73.414-48.474 119.937-35.792 4.556 1.242 10.094 4.682 14.524 4.393 10.043-.655 16.782-4.44 21.454-13.377 2.241-4.289-2.403-7.74-6.26-9.027-34.486-11.503-67.806-28.88-106.378-17.522-29.817 8.781-55.951 22.038-68.463 52.261-7.13 17.225-11.621 35.54-18.736 57.87m4.141-112.37c-45.517 21.316-77.543 49.938-106.093 82.61-10.419 11.921-13.784 27.661-.112 38.23 17.014 13.152 36.894 22.603 57.475 34.801-2.53-33.193 16.213-54.465 30.589-77.38 3.685-5.874 8.501-10.574 7.501-18.266-2.48-19.07-2.725-37.943 10.64-59.995m-192.142 547.633c-4.962-.28-8.202-1.046-11.236-.55-49.687 8.116-97.876-2.54-146.184-11.523-46.819-8.706-89.4-28.379-131.147-50.393-4.621-2.437-11.488-8.165-15.445-3.395-2.989 3.605 2.079 10.56 5.432 14.975 20.389 26.844 41.29 51.91 73.727 62.69 52.239 17.36 105.336 20.392 159.987 13.431 23.853-3.038 45.235-7.668 64.866-25.235m559.34 97.422c-18.256-42.616-30.242-54.316-57.012-67.514-53.301-26.277-102.259-59.479-148.647-96.636-6.507-5.21-13.397-8.898-22.289-8.906-17.992-.016-28.848 11.764-34.98 25.258-6.381 14.043 10.205 17.866 18.196 22.578 28.71 16.93 59.849 29.05 91.396 39.703 19.188 6.48 35.526 21.997 57.066 20.111 8.554-.749 10.517-.185 13.709 8.474 13.193 35.79 49.479 60.36 82.561 56.932m-277.677-391.022c4.62-9.556-.238-15.735.313-22.61 2.623-32.694 14.775-60.142 37.882-83.677 19.618-19.982 21.295-50.895 2.672-59.283-26.451-11.915-52.374-1.547-76.547 6.368-16.058 5.257-17.453 21.131-18.681 35.848-.519 6.213-2.124 12.335-4.265 24.216l-10.68-30.494c-16.222 7.865-25.311 21.114-34.683 33.67-7.867 10.537-7.247 20.616 3.508 30.743 9.037 8.51 20.172 11.768 30.642 16.188 26.529 11.201 49.321 27.645 69.839 49.031M796.117 989.6c-1.381 4.365 6.102 7.402 9.002 8.331 43.227 13.837 74.716 32.795 121.022 38.128 48.815 5.621 94.6 2.285 135.714-24.146 30.133-19.372 32.491-32.97 14.208-65.517-4.645-8.269-13.067-14.506-17.269-22.915-4.654-9.31-7.756-6.53-13.35-1.595-28.995 25.582-63.249 42.14-98.31 57.615-29.876 13.188-59.932 21.933-93.319 20.796-22.761-.775-34.824-6.454-57.698-10.697m25.466 202.59c15.771-7.047 31.327-14.215 43.018-27.238 18.272-20.354 14.44-61.593-6.701-64.524-27.165-3.766-50.469-15.82-74.263-27.32-29.909-14.457-58.916-17.105-87.221 3.614-20.456 14.974-31.888 37.521-47.644 56.435-2.013 2.416-3.299 4.997-.638 8.986 17.926 26.873 58.165 53.702 93.709 21.406 5.048-4.587 10.434-9.034 16.304-12.446 20.096-11.683 40.238-6.212 58.752 3.137 16.158 8.158 2.58 22.002 3.162 33.25.067 1.303.81 2.571 1.522 4.7m749.324-455.967c27.141-36.845 41.823-109.47 25.106-144.278-5.377 4.304 1.985 12.618-6.025 17.373 3.718-21.353-16.717-19.682-22.03-16.712-32.966 18.431-43.22-.56-59.007-17.076-17.666-18.482-71.084-7.557-76.372 25.77-6.737 42.46 10.138 99.208 67.034 114.42 9.978 2.666 20.135 4.665 31.254 7.212-7.079 8.718-14.349 10.032-22.145 7.424-14.016-4.688-21.057-5.3-24.188 12.685-2.919 16.77 2.086 31.02 2.429 48.004 24.446-20.19 31.598-21.423 40.897-4.144 9.87 18.342 16.095 13.796 23.915-4.518.366 6.79.737 9.535.615 12.26-.269 5.981.911 12.743 7.386 12.7 8.39-.056 5.499-8.517 4.864-12.752-6.311-42.13-.501-87.259-30.799-123.608-6.186-7.42 3.183-33.548 10.924-33.636 16.902-.193 34.02 24.426 28.196 39.81-8.368 22.103-10.253 33.087-2.054 59.066m-403.632-77.425c5.126 24.811 11.068 44.762 29.182 63.45 9.026 9.312 14.519 22.561 19.224 35.651 18.987 52.833 14.74 106.206 12.758 160.06-.583 15.838-3.184 31.452.899 46.61 7.195 26.718 26.765 37.05 52.734 27.032 26.932-10.389 43.901-30.788 53.588-56.335 26.215-69.136-1.354-158.944-61.696-201.829-31.168-22.15-66.633-34.528-91.369-65.549-3.362-4.215-9.84-5.95-15.32-9.09m-533.618 486.218c-45.954 29.703-78.7 73.3-116.687 110.78-15.542 15.334-32.814 29.228-36.106 53.28-2.448 17.89-19.082 26.19-32.59 35.828-50.265 35.87-66.155 93.274-96.367 144.344 84.983 0 164.594.983 248.131.983-9.961-21.726-17.204-43.355-28.167-63.137-11.184-20.183-20.935-43.13-31.319-63.773-8.988-17.867-1.037-29.629 15.816-36.726 37.296-15.706 67.906-42.074 90.776-73.974 12.332-17.203 18.717-36.196 4.929-58.109-8.868-14.093-12.069-31.745-18.416-49.496m567.071-202.463c7.095-1.668 15.405-1.976 14.586-12.458-1.436-18.359 2.079-36.673-3.588-55.205-15.258-49.894-42.588-93.903-65.829-139.917-5.543-10.974-15.405-18.014-25.771-23.053-15.249-7.413-31.307-9.895-45.33 3.714-11.381 11.046-18.112 23.191-6.467 40.186-12.433-12.176-16.183-7.07-19.681 4.996-7.722 26.631-4.137 53.178.577 79.242 6.112 33.794 11.449 67.304 34.868 96.596 17.402 21.767 22.172 49.488 18.808 78.398-1.666 14.317 7.576 20.583 18.943 27.503 2.935-11.025 2.346-22.303 15.348-33.628-4.745 30.13 2.008 53.236 15.845 74.046 8.378 12.6 16.209 25.633 19.939 40.027 8.379 32.342 29.313 61.58 19.762 98.748-2.967 11.544 2.031 31.014 20.946 35.543 5.177 1.24 11.521 8.258 16.266-.198 3.618-6.447 3.387-13.124-2.633-18.808-4.414-4.167-11.717-8.812-7.745-15.339 11.477-18.858 3.808-38.542 4.041-57.772.538-44.549-7.732-88.373-11.924-132.539-1.092-11.509-9.075-28.75 1.807-33.579 12.38-5.493 7.047-10.595 6.937-17.465-.258-16.08-9.964-27.188-19.705-39.038M1032.81 821.761v-21.769c0-38.928.841-41.165-38.318-41.459-29.592-.222-58.881 3.336-87.775 8.67-48.149 8.885-97.176 16.44-143.306 35.23-10.843 4.415-17.038 8.255-18.831 20.52-3.331 22.794-2.735 42.152-11.848 63.75-2.035 4.822-.851 9 .398 13.866 20.372 79.372 71.949 86.002 143.163 82.975 53.025-7.854 110.558-31.46 158.076-67.719 7.079-5.402 11.71-13.12 8.946-23.377-6.674-24.763-11.847-50.316-10.505-70.687m-537.711 253.985c1.336 32.697-6.833 55.992-22.694 79.65-20.312 30.294-38.083 63.475-35.576 102.85 1.303 20.465 15.794 29.824 34.697 21.347 7.895-3.54 12.903-10.29 19.322-15.46 46.021-37.075 68.184-93.344 122.328-122.089 1.54-.817 6.141-4.635 7.584-5.946 25.869-28.096 39.492-68.383 54.19-106.25 8.887-22.895 16.71-49.46-.929-71.866-12.821-16.286-8.669-27.072 4.607-37.895 27.132-22.12 51.327-47.308 52.926-84.328.749-17.312-3.77-20.652-18.35-16.892-45.899 11.837-90.723 29.277-128.367 56.25-68.203 48.867-86.472 125.557-89.738 200.63m-21.62-276.2c-20.744-6.926-48.432 7.63-57.014 33.083-6.078 18.03-14.816 34.495-22.648 51.531-3.725 8.103-8.272 16.052-11.822 23.948-30.123 67.014-61.881 93.54-118.869 110.635-15.02 4.506-18.012 9.151-17.809 22.83.924 62.052 1.033 124.097 2.675 186.161 1.653 62.497-.362 125.1-1.184 187.65l-.558 72.271c1.637 1.637 30.294 1.637 39.419 1.668 7.041.024 10.995-2.052 15.197-6.792 9.248-10.432 13.677-16.973 20.062-25.804 27.963-38.672 43.397-83.87 58.81-127.447 10.014-28.315 14.238-56.998 32.296-83.727 14.187-20.999 22.359-47.71 32.623-72.118 4.12-9.798 9.076-19.808 9.061-31.16-.06-43.527-.146-87.02 3.939-130.47 5.026-53.476 16.032-105.303 40.688-153.325 23.656-47.049-24.866-58.935-24.866-58.935m549.542 685.37c41.65-9.725 80.894-6.25 119.947.74 42.919 7.682 85.953 3.39 128.951 4.776-4.846-18.239-8.302-33.922-29.087-38.897-10.165-2.432-16.521-13.21-15.199-26.39 5.675-56.588-8.566-108.164-39.423-155.793-6.529-10.078-14.132-22.772-13.32-33.673 2.528-33.95-13.69-62.556-22.588-93.094-5.274-18.097-13.496-35.86-23.404-51.92-7.987-12.944-18.954-21.69-38.231-13.192-58.574 25.827-122.312 19.746-184.024 25.535-14.796 1.39-15.751 6.521-16.378 18.487-.907 17.302-.658 38.265-15.188 50.734-29.653 25.447-57.069 54.621-92.256 72.463-6.225 3.156-11.727 6.736-16.677 11.696-34.667 34.74-72.731 65.155-114.639 90.902-29.284 17.991-42.956 34.81-34.091 56.65 8.997 22.167 19.471 43.755 29.805 65.355 5.899 12.331 11.045 21.723 26.815 21.466 69.709-1.134 139.447-.488 209.174-.486 6.79 0 14.094 1.785 18.888-5.272 5.018-7.388 12.64-6.543 20.287-7.459 15.763-1.887 29.592 4.79 43.752 8.956 16.146 4.752 19.34-2.022 20.488-15.944 2.06-24.972-.217-49.404-9.088-77.649 16.698 17.81 23.65 34.825 27.473 56.683 10.457-21.802 13.545-42.058 17.057-62.247 4.515 24.42-1.181 48.007-5.634 72.944 9.466-4.547 8.679-14.617 15.259-20.775.201 3.896.961 6.758.374 9.31-2.592 11.251-5.572 22.412-9.043 36.093M555.903 787.056c59.616-53.38 130.848-48.743 200.025-42.742 42.805 3.713 85.602 16.948 129.234 10.565 66.787-9.77 108.947-55.908 154.398-98.415-19.186 4.92-37.317 13.006-57.686 13.978 37.54-21.779 84.368-21.962 117.215-54.22-7.445-6.045-12.787 6.168-18.32-1.304 9.309-9.909 29.02-2.617 34.557-19.727-7.214-6.752-14.19 6.741-22.763-3.928 28.457-4.607 48.924-20.4 69.213-38.58-10.346-5.752-17.63 7.43-25.799-.062 22.762-12.42 51.768-15.303 66.633-38.265 6.985-10.79 16.985-13.238 25.065-20.115 10.081-8.58 19.714-17.684 29.541-26.562-8.827.99-16.179 2.282-21.428-10.019 33.158 10.608 57.347-16.758 83.062-26.183l-1018.578-1.282c-16.453-.026-49.11.464-53.204.464 0 0 0 32.75.302 49.844.06 3.41-.057 6.881-.093 10.326-.619 58.54-1.427 117.077-1.806 175.618-.256 39.4.442 78.808.004 118.205-.186 16.678 4.479 23.614 23.41 24.966 24.762 1.767 45.449-5.124 65.576-17.117 38.119-22.713 73.373-48.543 103.786-81.662 36.262-39.489 78.988-16.615 86.629 22.256 0 0 10.712 66.486 31.027 53.961m1198.29 568.145c-26.223-8.556-49.163-22.425-72.625-35.26-5.609-3.069-8.457-7.662-8.184-13.179.671-31.725-25.85-57.827-40.187-85.837-7.517-14.685-24.814-24.029-35.593-37.466-25.252-31.476-57.182-54.649-91.801-73.763-64.789-35.77-140.769-46.444-202.788-88.88-2.684-1.836-6.31-2.392-9.57-3.282-30.504-8.328-62.421 20.696-64.019 52.095-1.274 25.041 11.666 47.846 8.872 73.1-2.661 24.037.324 47.641 10.566 70.192 3.304 7.275 4.952 16.031 4.738 24.04-.797 29.872-4.116 59.421 1.473 88.744 4.949 25.961 18.149 47.311 32.095 69.324 8.836 13.948 16.981 26.311 32.042 32.736 24.478 10.441 42.46 27.461 53.408 51.502 2.852 6.261 8.874 10.488 15.721 11.165 54.563 5.398 109.274 1.585 163.889 2.905 76.814 1.856 233.016-2.309 309.905-2.356 18.706-.01 23.929-4.472 23.892-23.69-.636-333.22-.457-666.44-.46-999.66 0-36.299.534-32.879-35.937-32.906l-398.138-3.248c4.525-.327 24.497 8.347 28.078 10.231 26.632 14.017 56.861 17.146 74.279 46.246 5.652 9.443 9.058 12.105 21.619 1.5 6.32-5.337 15.964-8.58 23.158-13.55 9.346 18.142-7.94 28.65-3.209 46.963 14.816-10.473 27.544-16.569 43.533-27.87-4.554 32.296-7.453 51.7-21.263 80.024-1.882 4.638-2.874 8.54-1.324 13.748 7.719 25.943.944 52.901.443 78.708-.122 6.304 1.564 16.3-4.407 21.391-19.023 16.221-19.766 40.08-25.739 61.218-6.096 21.571-14.96 42.544-10.307 67.08 3.71 19.554-17.697 43.778-30.669 44.903-16.334 1.416-32.867 1.83-48.79-4.499-28.67-11.393-37.662-33.502-30.67-63.48 8.667-37.158.91-69.644-23.539-101.455-8.735-11.365-17.523-22.687-27.363-35.42-21.97 20.9-29.667 42.081-37.051 69.001-3.673 13.392-.821 27.327 10.826 37.901 3.922 3.56 6.73 8.634 9.206 13.448 23.742 46.167 32.413 92.086 10.561 140.026-8.67 19.02-11.877 36.408 5.569 50.381 14.986 12.003 33.145 22.444 46.958 35.815 33.289 32.224 73.529 54.45 114.282 74.477 25.393 12.48 43.021 28.474 51.373 54.365 5.123 15.881 15.214 31.405 25.222 44.366 26.864 34.787 58.866 63.883 74.428 107.137 1.919 5.334 8.266 9.08 12.381 13.373 0 0 18.144 24.31 15.116 57.696m172.996 180.8H199.784c.196-174.266.27-348.53.638-522.795.198-93.832 1.335-187.664 1.264-281.496-.081-107.304-.503-214.615-2.049-321.905-.311-21.578 7.094-25.827 27.353-25.805 532.558.557 1144.376.548 1676.933.007 18.953-.02 23.734 4.737 23.704 23.672-.588 376.106-.438 752.213-.438 1128.321"/></g></svg>