<svg xmlns="http://www.w3.org/2000/svg" width="2048" height="1920" viewBox="0 0 2048 1920"><defs><clipPath id="clip_1"><path d="M0 0h2048v1920H0Z"/></clipPath></defs><g clip-path="url(#clip_1)"><path fill="#231f20" d="M1838.14 1247.91c.855 27.045.21 54.12.21 81.18 0 38.55.015 77.085 0 115.636 0 26.594-.885 27.06-25.2 14.25-29.43-15.512-50.265-39.96-64.98-68.52-37.62-73.035-99.105-114.961-174.675-140.897-50.1-17.174-98.4-39.164-148.785-55.964-32.7-10.89-41.895-42.615-60.885-69.81-8.7-12.465-30.825-31.02-26.7-37.815 7.605-12.524 29.595-8.085 45.78-8.685 53.37-1.98 102.51 11.46 145.95 42.464 73.74 52.636 155.19 75.526 245.64 67.891 20.19-1.71 46.38-10.32 59.445 1.38 13.44 12.015 3.57 38.686 4.2 58.89m-.42 303.27c1.695 12.466-10.635 9.405-18.15 9.51-23.025.314-46.05.12-69.06.12v.736c-18.09 0-36.42-1.846-54.21.418-28.35 3.617-47.46-30.659-56.325-53.789-26.07-76.86-69.105-103.634-115.17-147.24-39.945-37.8-69.36-84.75-96.735-132.524-2.475-4.306-6.66-8.026-3.375-13.11 2.925-4.515 7.17-1.711 10.935-.45 79.83 27.028 159.69 54.284 231.15 100.213 31.155 20.025 49.305 51.93 67.62 83.071 22.83 38.79 50.025 72.015 94.635 88.665 20.55 7.665 6.66 49.574 8.685 64.38m-203.355 8.34c-5.355 7.2-27.705 1.83-42.42 2.04-6.57.09-13.14.015-19.71.015-49.5 12.96-76.41-31.335-102.435-72.15-37.68-59.07-101.715-90.87-163.68-119.13-18.525-8.46-37.845-11.745-56.655-19.635-39.75-16.65-58.065-51.21-71.685-88.666-5.34-14.654.45-25.333 18.42-26.578 31.695-2.19 62.34-11.13 94.62-12.512 15.33-.644 33.48-12.958 51.96-15.9 42.495-6.764 48.345-4.093 71.43 31.71 40.845 63.376 84.585 124.367 141.945 174.452 26.745 23.37 49.26 50.204 59.85 85.14.465 1.56 1.47 3 1.77 4.573 2.685 14.116 25.59 44.537 16.59 56.642m-153.39-1.681c-3.42 7.396-11.76 3.48-17.775 3.525-54.27.3-108.54.03-162.795.285-11.37.06-19.935-21.586-25.185-34.5-16.665-40.936-29.535-83.055-41.835-125.37-1.965-6.75-5.655-15.614 2.145-20.37 8.235-5.04 13.95 3.225 18.21 8.34 12.045 14.505 25.08 25.8 35.355 40.68 8.7 12.6 16.935 25.62 31.98 33.585-3.33-22.32-20.475-36.795-31.11-55.02-4.935-8.445-20.655-16.05-12.045-26.16 6.6-7.755 19.425 1.89 28.44 5.956 66.51 29.985 128.46 86.7 166.92 152.16 3.12 5.293 10.86 10.02 7.695 16.889m-228.18 3.616c-37.725.164-75.45.12-113.16.014-4.785-.014-10.335.375-12.135-5.716-5.115-17.19-9.975-55.064-14.925-72.298 24.945 15.18 42.54 37.365 77.49 44.835-11.7-10.815-16.44-22.065-24.105-27.015-51.105-33.016-74.43-82.41-98.13-134.356-2.88-6.3-7.95-14.37-2.76-20.76 6.06-7.47 13.53.344 20.25 1.62 25.635 4.86 51.045 11.04 76.785 15.105 21.81 3.45 37.725 12.18 47.49 33.33 20.16 43.77 27.87 84.12 48.72 135.255 11.295 25.274.81 29.955-5.52 29.986m-159.825.014c-288.495-.315-576.99-.09-865.47.18-11.115.015-18.27-21.436-18.21-36.09.57-117.33.36-234.66.495-351.99 0-2.205 1.29-4.41 2.805-9.255 9.945 13.08 7.56 24.93 7.47 36.03-.21 29.774 12 51.795 37.95 66.765 10.425 6.014 21.045 11.324 28.275 22.68 35.325 55.5 85.005 65.114 139.485 28.02 2.715-1.83 5.76-3.51 7.785-5.97 30.225-36.54 65.655-56.445 116.37-51.15 46.41 4.86 90.39-12.54 132.03-32.7 29.055-14.056 57.75-22.485 91.335-17.88 42.825 5.85 86.7 11.446 128.64-7.32 7.425-3.33 10.185 2.265 12.84 7.56 19.845 39.87 50.445 70.395 85.665 96.51 21.78 16.14 36.915 36.6 47.475 61.26 21.525 50.265 41.235 99.9 57.03 152.296 5.61 18.643 5.145 41.083-11.97 41.054M234.625 361.26c296.745.885 593.49.78 890.235.915 23.355.014 46.695.014 71.355 5.52-14.325 8.445-28.905 16.5-42.945 25.41-38.88 24.644-76.485 73.246-104.79 110.355-9.975 13.08-24.075 15.75-38.745 18.21-41.1 6.9-82.515 11.64-119.745 33.616-12.81 7.56-21.195 13.68-25.455 20.1-8.925-12.9-18.96-25.322-20.1-26.85-23.4-31.576-46.725-63.196-70.785-94.26-4.155-5.356-11.37-11.76-19.065-7.546-6.885 3.75-3.075 11.85-2.55 18.09 2.82 33.885-6.75 66.72-8.415 100.23-.18 3.69.27 8.88-5.13 9.825-6.105 1.05-8.58-4.14-10.875-8.175-15.465-27.3-26.745-56.055-30.015-87.57-.72-7.005.66-16.23-10.005-16.62-10.17-.36-10.785 9.6-12.555 15.81-16.515 58.05-29.205 116.385-1.845 174.855 6.03 12.9 2.145 19.635-9.54 27.405-46.5 30.885-90.375 65.37-132.705 101.73-27.255 23.416-43.71 55.11-61.26 85.515-26.97 46.74-62.715 82.515-111.93 106.68-51.33 25.2-98.07 58.516-148.275 95.596v-29.82c.03-210.075.315-442.425-.315-652.485-.045-19.71 4.005-26.596 25.455-26.536m1096.14 4.096c-39.885 42.885-76.455 110.534-119.49 148.664-30.825 27.315-74.61 30.99-115.125 37.336-17.925 2.804-35.79 5.294-53.97 3.48-4.245-.42-8.715-1.876-9.435-6.346-.765-4.68 3.06-6.764 7.365-8.16 19.5-6.315 39.18-12.15 58.275-19.53 30.765-11.865 61.515-24.27 80.895-62.534-36.84 19.98-63.45 47.1-107.835 50.983 31.095-39.375 66.75-64.349 102.81-88.964 47.175-32.19 98.55-66.39 156.51-54.93m22.785 5.175c8.28-6.81 16.665-9.15 27.03-8.775 17.235.615 34.5.226 51.75.255 8.85.015 19.065-2.534 23.595 8.236 4.71 11.204-2.895 41.265-10.11 47.865-28.545 26.144-60.33 48.51-94.785 65.414-52.425 25.725-103.59 52.635-146.55 92.895-2.4 2.25-5.01 4.186-10.44 1.216 10.2-25.245 28.155-44.356 49.11-61.006 11.52-9.15 23.79-17.37 35.61-26.16 7.545-5.61 19.5-10.005 3.93-20.865-5.58-3.9.54-8.445 3.735-11.82 21.375-22.68 42.945-67.38 67.125-87.255m118.77 10.365c-1.92-17.55 2.85-21.3 17.745-19.125 2.415.36 5.055-.51 7.365.09 13.905 3.54 32.22-8.88 41.64 10.454 9.87 20.31 3.765 77.836-13.665 92.821-16.68 14.356-35.25 26.565-53.145 39.48-17.01 12.27-30.27 27.945-39.84 46.245-22.35 42.765-47.445 83.715-74.385 123.81-20.385 30.33-47.34 40.74-81.72 38.88-10.785-.57-14.025-4.365-6.465-13.14 13.89-16.155 28.095-32.01 42.99-48.93-12.06-12.465-19.26-3.06-26.13 5.265-12.015 14.58-23.535 29.49-39.33 40.486-10.785 7.5-21.735 9.75-30.9-.706-10.935-12.48 2.31-18.885 9.105-25.904 6.225-6.406 13.68-11.64 20.745-17.176 8.4-6.6 19.44-10.62 12.825-25.98-1.905-4.425 5.865-12.6 10.56-18.195 55.995-63.81 114.93-125.61 186.03-174.465 10.035-6.9 17.925-41.58 16.575-53.91m93.735-18.48c8.955-1.185 16.575-.585 17.085 11.4.75 17.88 10.17 54.75 18.465 69.855 15 27.315 13.92 35.85-14.4 50.88-47.1 24.99-82.095 61.575-111.03 105.24-14.13 21.316-24.195 44.37-32.985 68.175-8.925 24.09-33.705 40.83-58.545 39.825-10.875-.434-16.095-3.42-12.69-16.8 1.65-6.51 4.485-12.6 7.5-18.014 23.235-41.64 42.36-74.851 65.79-111.796 20.865-32.865 50.865-52.544 80.49-74.01 22.92-16.59 35.895-37.5 35.88-69.21-.525-4.2-.9-33.885-2.505-41.025-1.605-7.11-2.76-13.23 6.945-14.52m59.85-.255c64.11-.15 128.235-.39 192.345-.435 2.085 0 4.155 1.65 8.115 3.33-56.685 41.745-97.44 122.355-163.74 150.45-44.16 18.72-74.97 57.525-106.725 91.635-27.915 29.985-54.54 58.59-92.175 76.275-5.625-9.27-2.82-16.995-.06-23.1 23.835-52.876 53.91-101.1 104.04-133.65.69-.434 1.41-.84 2.114-1.245 73.606-31.89 70.981-70.694 35.896-132.93-12.105-21.495-4.875-30.285 20.19-30.33m209.414 19.185c4.861 2.31 2.956 7.125 2.956 10.875.12 60.645.075 143.55.075 204.195 0 6.915-.315 14.446-9.93 12.84-55.785-9.375-110.67 5.295-171 7.305 36.03-70.62 81.15-127.935 134.805-178.874 10.68-10.14 21.765-42.15 32.79-51.931 2.865-2.55 5.535-6.675 10.304-4.41m-4.589 291.45c-86.925 37.995-163.77 96.885-256.305 123.15-2.37.66-4.65 1.74-7.065 2.145-9.285 1.515-21.285 9.375-27.09-1.11-6.195-11.175 8.16-15.3 14.265-22.02 6.045-6.646 12.66-12.84 18.075-19.95 24.87-32.654 53.55-59.07 95.775-68.16 16.455-3.54 31.53-12.885 47.325-27.645-26.04-.84-44.235 11.984-64.485 17.475-5.295 1.44-11.64 5.07-15.63-1.26-3.615-5.745.615-10.606 4.32-15.225 11.97-14.925 28.74-21.435 46.395-25.485 44.34-10.17 89.28-13.215 134.64-9.45 7.86.645 18.57-.54 17.025 11.895-1.5 12.076 8.655 28.696-7.245 35.64m-569.775 348.886c-5.445-6.15-7.275-11.057 2.115-14.64 25.155-9.602 50.295-19.276 76.38-23.7 44.4 4.875 74.22 31.23 100.575 62.684 7.11 11.325 4.23 18.285-9.18 15.6-32.595-6.54-65.355-2.175-97.995-3.33-29.85-1.065-52.71-14.94-71.895-36.615m-110.19 120.87c-11.565-7.77-24.99-14.264-36.48-22.14-14.175-9.705-23.355-22.95-25.23-40.38-1.38-12.705 2.745-20.235 16.665-13.665 46.8 22.065 96.42 16.305 145.56 15.36 46.5-.9 105.6 43.17 118.08 87.946 2.775 9.93-1.29 13.108-10.245 14.49-22.695 3.493-45.93 3.69-67.185 11.398-48.33-16.708-98.175-24.103-141.165-53.008m-55.905 13.064c-2.25-5.13-6.165-10.306-2.775-15.96 3.285-5.505 9.255-3.675 13.11-1.364 43.59 26.204 91.605 42.6 137.97 62.655 1.08.465 1.41 2.64 2.1 4.019-56.355 29.836-125.595 7.08-150.405-49.35m20.715 95.79c22.665.676 39.345 9.45 44.13 33.555a280144 280144 0 0 1-44.13-33.556m-131.01-29.414c-.45-1.125.705-2.88.885-3.495 71.13 12 126.105 54.556 181.92 95.534.66.496 1.575.796 1.98 1.441 5.79 9.344 20.13 17.34 14.73 28.38-3.675 7.515-17.805 1.426-27.15.36-73.65-8.46-133.65-37.83-166.155-108.93-2.025-4.455-4.395-8.76-6.21-13.29m-47.31-21.75c4.92-3.36 9.225 1.5 12.705 4.62 19.32 17.25 26.64 41.58 37.29 64.26-23.52-13.05-38.49-32.91-50.16-55.59-2.34-4.514-4.71-9.96.165-13.29M720.19 1095.706c-13.515-4.53-32.115.418-50.76 2.565-10.845 1.26-19.815.435-21.075-13.457-3.135-34.199-6.69-68.369-9.645-102.599-.435-5.1-3.33-12.33 4.23-14.79 5.04-1.65 8.76 3.06 12.81 5.745 39.915 26.55 61.14 67.155 81.945 108.12 7.095 13.95 1.53 17.865-17.505 14.416m-13.065 43.918c-36.39 18.931-75.915 27.78-116.115 35.101 31.455-29.94 65.4-53.955 110.49-55.02 7.545-.18 16.785-.854 19.305 6.854 3.33 10.141-7.89 10.052-13.68 13.065M543.7 1227.885c44.475-21.21 91.905-34.636 138.12-51.27 5.25-1.89 11.34-1.814 17.07-1.965 8.37-.21 18.855.104 20.94 9.015 1.995 8.49-8.58 10.334-14.865 13.56-49.245 25.29-100.215 45.015-157.005 47.22-5.28-1.455-14.055 4.47-16.59-4.154-2.61-8.792 6.93-9.826 12.33-12.406m58.935-175.02c5.865-4.11 11.895-12.915 21.525-6.63 7.74 5.056 5.115 13.216 5.235 20.13.87 48.06-53.61 103.86-107.79 105.676 33.495-37.936 39.42-90.06 81.03-119.176m-49.455-49.11c4.305-3.48 9.15-8.67 15.15-5.745 7.245 3.54 2.445 10.395 1.68 15.36-6.405 41.43-20.01 80.504-40.575 117.03-4.23 7.5-9.12 18.735-19.395 15.495-10.605-3.33-9.855-15.39-10.065-31.305 8.955-36.87 15.945-80.745 53.205-110.835M408.565 990.78c54.75-55.814 77.295-135.314 139.875-185.355-32.475 72.21-61.71 146.79-139.875 185.356M528.61 903.6c14.655-60.27 73.32-151.11 112.59-173.896-25.5 68.866-72.165 119.37-112.59 173.895m146.76-128.235c22.275-15.36 43.86-31.784 66.675-46.305 17.73-11.294 26.325-6.6 30.48 14.356 4.275 21.554 8.235 43.2 21.15 61.784 5.73 8.235 3.765 15.075-2.895 21.855-7.23 7.365-13.725 1.995-20.175-.704-3.69-1.546-6.78-4.56-10.11-6.977-37.23-26.984-64.71-25.889-97.86 6.871-21.255 21.015-44.7 36.51-79.05 45.69 26.355-41.384 55.95-71.85 91.785-96.57m139.8-133.95c-1.47 8.446-5.715 15.42-14.925 17.55-10.305 2.385-14.955-4.875-18.87-12.165-9.33-17.43-16.005-36.36-17.505-55.65-2.49-31.664 2.895-63.105 8.28-101.16 30.165 32.85 32.25 67.8 40.23 100.32 4.095 16.65 5.82 33.916 2.79 51.106m27.405 57.044c14.07 23.925 27.675 48.135 42.165 71.805 7.395 12.06 3.24 16.995-8.91 19.965-7.92 1.935-15.555 5.115-23.205 8.04-36.675 14.055-45.03 10.635-57.015-27.195-6.72-21.21-9.18-43.125.03-64.77 5.055-11.865 13.56-18.15 26.25-18.164 9.645-1.68 16.155 2.609 20.685 10.32m37.365-65.34c-6.195 7.934-16.305 10.2-26.115 11.64-9.255 1.35-14.04-4.11-15.75-12-5.49-25.395-10.47-50.91-15.63-76.216 6.12-4.74 6.795-2.43 12.75 3.255 1.627 1.554 8.995 12.024 17.231 22.586 5.788 7.422 11.035 15.235 15.85 23.322 1.842 3.096 4.038 6.432 6.58 10.058 3.584 5.1 10.02 11.054 5.084 17.355m31.935 36.15c5.31 4.89 10.17 10.979 13.26 17.46 20.085 41.984 25.98 86.654 23.085 133.41-31.605-38.011-65.835-73.44-84.465-119.355-4.035-9.96-15.6-23.086.555-32.356 15.315-8.774 32.28-13.245 47.565.84m-9.495-95.235c17.64-13.23 72.315-26.174 93.675-24.794-17.595 14.774-73.86 20.054-93.675 24.794m238.155 10.456c-43.86 11.054-88.59 13.5-133.635 11.04-4.695-.255-11.07 1.365-12.825-4.245-2.535-8.145 5.94-9.39 10.38-10.56 12.57-3.33 25.485-5.73 38.415-7.26 45.12-5.341 90.285-10.156 140.97-15.78-13.215 19.664-28.74 23.128-43.305 26.804m54.405 148.635c-8.64-1.605-20.61-1.29-21.99-12.945-.735-6.074 8.94-8.385 15.57-8.28 9.42.135 19.155 3.795 21.03 12.914 1.83 8.881-7.86 7.5-14.61 8.31m50.235 59.625c22.23 14.806 23.82 21.721 6.135 42.361-29.16 34.005-67.86 46.71-111.345 48.06-5.73.18-11.46.57-18.645.93-30.63-4.154-64.56-.165-92.46-22.065-8.235-6.45-20.34-11.91-18.615-23.61 1.545-10.486 14.235-13.064 23.16-15.63 31.23-9.014 62.94-16.41 94.305-25.005 10.98-3.014 22.23-6.45 32.1-11.925 30.33-16.845 58.05-11.31 85.365 6.884m51.615-21.734c-3.03 10.38-10.545 15.435-20.04 13.59-17.94-3.48-32.235-14.97-46.665-25.47-4.095-2.97-5.385-8.175-2.25-13.11 4.065-6.36 10.035-7.71 17.625-7.276 13.44 5.625 26.865 11.296 40.335 16.861 6.93 2.865 13.98 5.144 10.995 15.405m-59.205 219.9c-33.945-.314-54.69-23.445-74.49-45.824-9.48-10.711-.855-19.41 12.15-22.11 22.86-4.726 45.48-3.495 68.415.48 25.23 4.394 48.51 14.1 72.075 23.235 5.25 2.024 11.43 4.064 11.415 11.144-.03 5.835-5.295 8.295-9.735 9.87-26.085 9.255-50.985 22.725-79.83 23.205m-169.68 10.665c46.005 22.53 91.335 23.73 137.355 18.555 3.195-.36 6.615.165 9.795.885 19.47 4.47 45.945 11.31 45.135 30.33-.705 16.546-28.29 12.33-44.715 12.03-46.08-.855-92.13-2.925-130.98-32.925-7.68-5.94-16.125-11.31-16.59-28.875m-57.63 120.81c-.63-4.23-.345-8.266 3.705-10.755 5.49-3.375 9.495.33 12.675 3.825 26.805 29.55 53.52 59.175 79.92 89.085 2.895 3.285 7.515 7.845 4.425 12.93-2.955 4.846-8.565 3.3-13.365 2.566-31.29-4.74-87.18-67.232-87.36-97.65m-36.465 30.6c8.685-6.557 19.38-2.867 26.475 5.008 12.525 13.905 24.24 28.546 36.045 43.082 2.25 2.774 6.825 5.668 3.42 10.155-2.895 3.81-7.11 3.12-11.265 1.71-20.565-6.9-43.125-10.5-55.845-31.231-5.835-9.54-8.985-21.06 1.17-28.725m-17.745-494.235c44.175 5.31 86.73 16.71 125.775 38.625 16.065 9.015 16.62 18.915-.765 28.14-15.585 8.294-32.415 10.815-45.93 12.375-47.415.33-79.455-21.9-92.73-59.835-5.235-14.97-.525-21 13.65-19.305m157.605 16.635c-69.435-9.6-135.405-31.425-200.235-57.195 73.83-6.105 138.855 18.93 200.235 57.195m-38.595-44.715c-4.86-.795-10.635-2.264-11.28-7.89-.99-8.46 6.66-7.424 11.835-8.73 23.955-6.014 48.12-6.014 79.035-3.194-27.72 21.42-52.875 24.194-79.59 19.814m29.79 120.21c6.135-6.705 13.545-12.48 23.04-13.2 14.58-1.08 34.26-5.61 40.035 9.87 6.6 17.7-14.85 20.415-26.07 25.875-21 10.216-42.84 19.47-73.575 19.516 15.24-17.625 25.605-30.106 36.57-42.06m-118.005 34.62c-12.18-4.095-18.24-12.75-20.67-24.855-1.875-9.345 1.29-15.914 11.01-12.975 30.675 9.27 62.055 10.275 98.805 7.29-24.72 30.96-58.335 40.92-89.145 30.54m-13.695 116.4c-10.515-20.76-12.495-41.61-1.005-66.63 16.155 17.566 19.515 37.89 26.13 56.43 1.995 5.61 7.14 15.555-2.505 19.035-8.43 3.03-17.505 1.26-22.62-8.835m59.385 94.2c-17.895-12.315-30.66-28.335-39.735-47.34-1.725-3.615-3.99-7.664.375-10.92 4.14-3.06 7.41-.03 10.83 2.175 20.505 13.2 19.98 36.72 28.53 56.085m-12.285-94.98c-1.605-4.65-4.965-9.135-1.275-13.65 3.96-4.875 9.135-2.22 13.275.015 14.805 8.01 29.58 16.155 45.57 32.625-27.3 2.85-48.255 7.89-57.57-18.99m-9.525 108.87c26.145 17.07 56.01 31.875 53.04 75.42-25.68-22.965-42.585-46.666-53.04-75.42m56.175 109.125c-1.755 1.486-3.525 2.97-5.295 4.456-19.8-16.02-34.17-36.63-43.695-61.305 16.335 18.945 32.67 37.89 48.99 56.849m27-215.564c21.18-4.666 37.35-3.69 53.745-.766-25.965 15.196-26.07 15.196-53.745.765m84.405 78.69c4.335 3.72 9.9 7.665 7.215 14.22-2.385 5.76-8.49 7.155-14.43 7.755-7.365.75-14.7 1.65-20.985 2.37-32.925-2.25-62.025-12.33-87.855-31.005-8.835-6.375-17.46-15.48-13.23-26.79 3.555-9.495 15.675-7.26 24.075-7.575 40.845-1.53 74.955 15.09 105.21 41.025m-278.925 71.1c15.075-31.545 37.305-59.64 46.14-94.185 2.58-10.065 4.98-20.174 7.47-30.27 19.89 50.145 33.975 100.95 30.525 154.695-.66 10.425-1.605 20.986-6.9 30.675-6.465 11.85-10.83 15.614-22.635 2.97-13.74-14.73-31.155-26.264-47.88-37.89-10.695-7.424-12.69-13.485-6.72-25.995m-312.75-14.94c-.675-19.08 5.22-35.564 12.75-51.63 1.665-3.54 4.11-7.62 8.985-6.78 4.545.795 5.985 5.01 7.605 8.865 8.07 19.155.135 33.12-29.34 49.545m-45.015-95.61c.87.346-2.94.015-4.515-2.024-3.165-4.11.525-7.56 3.105-10.53 23.445-26.97 53.97-42.316 88.155-49.186 17.175-3.434 31.11 10.425 43.335 19.95 8.79 6.826-4.905 11.715-10.11 14.145-36.63 17.13-75.705 24.96-119.97 27.645m289.725 132.165c-11.415 3.945-23.625 5.61-32.355 7.56-27.96-.044-56.64-26.445-57.795-50.385-.435-9.255 5.91-8.595 11.445-6.36 27.075 10.89 54.27 21.54 80.79 33.645 10.515 4.8 6.075 12.735-2.085 15.54m-156.3-113.58c-17.52-14.414-17.625-20.94 2.91-31.44 51.045-26.085 96.075-61.02 141.855-94.845 17.385-12.84 37.155-21.18 57.54-26.79 19.635-5.414 36.105 5.37 46.485 20.55 10.995 16.08 18.96 34.62 17.265 50.01-3.66 57.18-19.38 104.835-47.415 148.515-10.905 16.994-25.32 26.475-45.57 19.02-60.615-22.305-122.07-43.05-173.07-85.02m739.335-81.93c20.7 10.68 20.295 15.645 2.655 30.21-40.095 33.076-81.315 36.046-125.925 9.826-25.245-14.82-54.39-14.16-83.19-18.63 65.985-35.146 133.14-59.25 206.46-21.406m-45.99-82.605c.42 10.68-16.08 14.745-26.94 14.85-12.525.12-33.555 7.53-34.545-10.86-.93-17.01 60.99-16.935 61.485-3.99m-19.5-44.43c-3.105-1.83-5.115-3.794-4.335-7.514 1.335-6.42 6.66-8.85 11.79-11.34 8.985-4.366 51.915-12.046 68.28-12.376-8.805 25.216-54.21 43.86-75.735 31.23M1838.38 889.5c-29.955-19.964-54.525-38.459-85.545-45.854-15.15-3.6-30.195-5.835-45.225-6.72-9.45-9.914-92.085-20.79-104.73-26.73-1.38-3.615.36-6.39 3.555-7.5 71.82-24.69 134.61-67.245 201.54-101.566 1.455-.75 2.865-1.604 4.35-2.294 25.395-11.82 26.1-11.295 26.07 17.055-.045 55.74-.015 111.48-.015 173.61m.21 104.79c.525 15.375-5.28 14.19-17.58 11.46-58.605-13.034-113.415-36.27-168.24-59.595-44.955-19.125-89.85-38.4-140.445-60.03 32.925-13.5 61.575-19.155 90.345-23.475 46.965-7.065 93.69-11.04 141.57-2.895 36.375 6.195 59.685 32.836 90.33 47.445 5.07 2.43 3.645 8.64 3.66 13.38.135 24.57-.495 49.17.36 73.71m-360.9-179.804c46.335 5.97 92.805 11.01 139.26 16.004 5.19.57 19.155 5.384 36.24 8.895-1.68.255-3.345.51-5.025.795-6.435 1.08-13.11 2.266-19.53 1.726-40.23-3.36-78.54 4.8-115.425 19.755-34.995 14.174-68.76 11.174-102.54-3.57-10.5-4.576-21.495-7.98-32.175-12.135-5.76-2.22-15.24-.99-15.465-9.21-.225-8.55 8.895-10.83 15.48-13.576 32.1-13.44 65.325-13.05 99.18-8.684m83.22-96.736c5.04-.45 11.46-6.45 15.3 1.035 3.3 6.42-2.94 10.486-6.39 14.67-22.395 27.225-46.71 51.645-81.285 60.45-6.84 1.74-13.995 2.115-20.955.885-16.905-3-39.09.45-41.955-12.644-4.125-18.916 23.865-22.397 38.82-30.18 30.375-15.81 61.44-31.066 96.465-34.216m-15.855-71.625c13.575-28.41 114.645-114.795 150.69-124.905-24.285 37.305-44.07 72.72-68.926 104.13-17.25 21.795-47.234 24.524-73.274 31.305-6.945 1.8-13.65.27-8.49-10.53m64.755 17.925c-32.07 36.9-79.77 36.285-121.485 50.01 33.465-33.555 76.215-44.82 121.485-50.01m-393.375-72.27c30.675-30.78 61.785-55.875 102.135-68.804-25.665 32.73-45.735 74.13-102.135 68.804m28.965 22.725c-23.76 17.28-45.375 22.726-66.225 29.775-4.44 1.5-10.515 2.025-13.215-3.21-2.76-5.4 1.815-9.256 5.415-12.42 20.145-17.64 43.755-17.34 74.025-14.145m-553.62-71.37c13.845 23.91 28.155 46.89 43.71 69.15 5.91 8.476 5.205 18.106-3.375 23.67-9.21 5.955-15.315-2.91-19.56-9.105-17.235-25.17-19.62-54.195-20.775-83.715m52.635 116.4c18.9-9.914 27.45 9.586 34.785 19.154 7.2 9.406-8.07 12.256-15.285 15.75-35.97 17.447-70.86 36.572-102.87 62.087 16.08-42.735 43.2-75.885 83.37-96.99m-371.85 388.65c-2.925-.706-5.64-2.265-15.765-6.45 74.145-27.016 131.85-75.96 213.285-81.422-61.845 47.521-111.09 108.721-197.52 87.872m111.27 133.334c-32.13 2.49-64.275 4.92-98.715 15.884 21.39-48.134 70.98-62.069 97.56-99.988 4.74 24.945-1.92 49.695 11.715 71.94 4.17 6.81-2.865 11.564-10.56 12.164m-27.585 39.375c4.005-5.04 8.22-10.29 15.66-10.92 8.13-.674 17.895-.495 11.055 10.71-24.03 39.285-55.815 70.755-98.76 89.67 28.305-26.804 48.36-59.625 72.045-89.46m-73.125 17.535c10.92-14.07 28.005-21.345 46.08-26.355-18.135 55.125-72.42 97.86-113.055 80.565 36.99-6.09 49.755-32.055 66.975-54.21m-33.705-142.35c-6.285-22.74 1.365-30.975 25.47-28.215 33.27 3.81 66.525 1.574 99.375-10.11-22.86 44.79-55.32 76.334-101.94 91.29-22.08 7.065-28.41 1.334-26.07-21.57 1.065-10.454 6.15-20.55 3.165-31.394m-71.79 16.365c.435-13.545 2.775-24.285 16.455-25.515 16.98-1.53 17.415 12.974 18.48 23.52 1.14 11.144-3.42 21.553-17.37 21.884-14.97.375-15.525-11.534-17.565-19.89m12.51 63.015c26.52-.345 53.07-.075 83.265-.075-16.515 23.49-30.195 44.235-45.3 63.87-7.59 9.855-19.38 17.13-31.98 13.35-17.835-5.356-31.545-17.804-36.735-36.15-8.91-31.47-1.74-40.575 30.75-40.995m581.28-5.88c1.515 14.76 16.2 2.19 24.21 5.805 2.685 1.216 6.21.554 9.36.765-27.675 15.164-56.025 20.79-85.725 18.93-17.19-1.08-34.605-4.68-51.48-2.97-22.65 2.31-26.475-14.176-33.63-27.96-3.03-5.836-.015-9.526 5.58-13.77 15.285-11.55 33.165-21.045 38.04-42.45 1.995-8.715 10.71-6.255 16.665-5.835 16.785 1.2 32.16-2.295 47.715-8.804 32.76-13.696 79.23 2.985 96.705 33.299 4.635 8.055 3.09 13.844-5.325 17.94-11.28 5.46-23.16 7.844-35.655 7.92-12.585.075-28.215.12-26.46 17.13m966.975-20.896c.06 8.986-.525 15.345-12.345 16.486-93.54 9.06-185.28 8.144-268.575-44.31-2.76-1.74-5.565-3.464-8.04-5.58-1.095-.93-1.41-2.76-4.785-9.975 39.255 14.43 74.37 27.33 111.225 40.875-2.835-14.25-10.395-20.13-19.815-23.985-20.37-8.325-40.215-19.005-61.395-24.044-63.135-15.03-112.485-50.296-154.5-97.966-8.07-9.15-17.37-17.25-26.49-25.41-11.85-10.62-13.17-19.65 2.16-28.32 14.955-8.46 29.085-18.405 44.25-26.415 27.975-14.79 56.775-16.485 87.66-7.514 48.225 16.245 92.61 33.674 136.845 56.67 48.24 25.064 100.86 40.844 153.3 54.48 15.09 3.93 21.585 10.02 20.85 26.638-1.44 32.731-.57 65.565-.345 98.37M1888 336.541c.03-20.01-6.12-24.36-24.93-24.36-560.145.36-1120.305.27-1680.465-.181-16.65-.014-22.635 3.84-22.605 21.72.48 404.01.42 850.904.075 1254.9-.015 14.52 2.805 19.41 18.87 19.38 281.295-.584 1404.855-2.16 1685.325-1.425 20.475.044 23.565-6.72 23.55-24.99-.465-400.725-.48-844.336.18-1245.045"/></g></svg>