<svg xmlns="http://www.w3.org/2000/svg" width="1984.25" height="1984.25" viewBox="0 0 1984.25 1984.25"><defs><clipPath id="clip_1"><path d="M0-.002h1984.252V1984.25H0Z"/></clipPath></defs><g clip-path="url(#clip_1)"><path d="M1296.694 964.6c4.595.286 17.865-13.742 12.651-17.75-6.02-2.857-11.125 8.48-15.457 11.706-3.089 2.364-.684 6.271 2.806 6.044m282.986-314.88c1.457 4.373.055 23.293 8.63 15.545 11.276-11.342-10.229-32.297-8.63-15.545M477.932 1278.438c4.06-.058 16.36-5.845 18.9-8.897 3.734-4.226-.386-9.776-5.465-7.606-5.133 3.644-9.735 7.69-16.317 8.548-5.473.997-1.312 8.586 2.882 7.955m31.291 15.27c-.234-3.102-4.598-6.12-6.966-3.313-4.348 4.417-9.094 8.141-15.065 10.153-1.618.545-2.283 2.183-1.667 4.05 3.816 10.752 23.293-3.932 23.698-10.89m813.603-394.37c1.035-6.736-7.55-5.157-8.929-.64-1.654 7.884-18.416 16.098-15.016 23.204 6.101 7.982 22.865-16.939 23.945-22.564m-20.065 570.631c.737-5.717-2.836-9.96-8.364-12.87-15.203-5.344-10.29 13.338-2.613 18.908 5.998 6.066 12.071 3.046 10.977-6.038M1198.793 278.166c-1.26-9.947-15.522 24.277-17.73 26.291-2.868 7.28 8.495 8.77 13.111 10.563 2.596.708 1.87-2.94 1.282-4.338-3.556-6.07 3.378-10.616.184-13.647-1.877-1.528-2.167-3.546-.573-5.037 4.273-3.996 1.58-9.65 3.726-13.832m192.672 1296.283c-6.745.272-31.008 18.048-24.56 25.134 1.573 1.333 3.423 1.032 4.831-.293 6.804-6.398 15.204-10.155 23.228-14.547 5.516-2.614 1.942-10.48-3.499-10.294m-72.009-709.155c.611-7.626-7.798-4.507-8.616.688-3.739 11.511-14.48 18.638-19.054 29.526-.71 2.153.357 3.785 2.013 5.015 2.546 1.828 4.736-1.228 6.231-2.962 7.353-10.082 17.528-19.475 19.426-32.267m197.694-163.429c.411-6.299-.042-12.349-4.769-17.177-1.172-1.197-1.893-3.625-3.969-2.827-2.475 1.041-1.656 4.346-1.748 6.566 1.412 10.73 1.764 21.522 2.845 32.28.166 3.886 1.82 5.286 5.45 5.131 8.88-.386.284-17.992 2.191-23.973m44.363-11.945c.305-3.324-1.524-8.549-5.243-9.19-5.098 1.212-9.608 24.692-13.143 30.602-1.38 4.93-7.696 14.795-.398 17.141 2.28.623 3.647-.094 5.07-3.267 4.332-11.794 12.182-22.703 13.714-35.286m-160.738 978.71c-.665-9.246-31.91 6.625-37.41 8.388-3.903 1.958-13.16 9.043-10.464 13.801 1.877 2.04 4.653.84 6.541-.555 10.79-9.71 36.547-9.009 41.333-21.634m115.304-798.378c-.27-10.248 2.25-10.672-8.434-13.973-2.059-1.175-3.54-.762-4.91 1.175-2.729 4.752-7.928 8.705-9.303 13.984 1.045 4.868.816 19.326 8.212 17.707 9.143-4.377 16.61-7.148 14.435-18.893m1.52-60.5c3.895.113 4.094.197 4.933-1.82 5.701-12.706 7.546-18.237-2.496-29.502-5.714-5.788-11.938 6.726-15.535 10.421-3.354 5.874 2.631 12.782 3.617 18.853 1.35 4.872 6.207 1.704 9.481 2.048m-402.128 772.3c-24.7 1.253-31.895 28.926-45.79 45.13-1.98 3.114-1.992 5.674-.272 6.536 5.871 1.61 8.95-6.53 11.423-10.599 7.05-14.557 20.25-24.975 34.498-31.943 8.504-3.24 11.754-8.382.141-9.124m366.94-719.783c6.401.3 8.952-8.342 13.25-12.067 2.61-2.602-.014-5.24-.905-7.957-2.43-6.168-10.694-3.996-15.877-5.782-7.8.105-11.138 10.482-16.082 15.421-5.255 5.796 15.711 9.695 19.613 10.385m-142.054 649.608c-.799-6.168-.412-13.35-3.014-19.253-2.992-5.34-13.689-35.482-19.59-32.87-1.52.731-1.884 3.496-.752 6.697 4.431 12.528 7.876 25.312 10.167 38.424 1.631 4.716 1.442 14.967 7.532 15.458 4.274-.194 5.958-4.522 5.657-8.456m209.165-717.269c-8.822-.57-10.718 7.89-15.477 13.825-3.172 4.618-3.168 4.595.508 8.508 2.273 2.368 3.84 6.52 7.826 4.951 5.33-2.304 12.13-2.316 16.471-6.365 3.276-4.348 5.213-9.338 6.353-14.587 1.027-8.4-9.986-5.28-15.68-6.332M447.235 1391.446c-.372 6.35 4.155 24.494 12.737 16.83 7.866-6.96 13.895-18.82 7.554-28.84-2.42-5.886-7.396-13.225-13.167-5.878-4.287 5.126-7.763 10.782-7.124 17.888m1106.662-516.71c.367-9.912-10.54-13.983-16.584-19.99-1.32-1.062-2.653-2.626-4.649-1.309-1.874 1.238-3.86 2.393-3.859 5.126.707 7.72-1.962 17.534 2.493 24.146 13.851 8.485 21.974 12.758 22.6-7.974m32.066 173.074c-2.079-17.488-17.84-29.58-29.033-41.8-1.108-.995-2.199-3.184-3.893-1.833-4.187 3.281 14.502 22.062 7.313 24.713-2.815 1.725-2.732 2.015-1.096 5.011 6.805 12.712 8.46 16.553 20.416 25.043 6.41 4.844 5.4-7.53 6.293-11.134m-377.17 481.961c-7.719.362-2.823 8.236.081 11.571 4.904 5.79 7.188 12.907 9.274 20.113 2.34 8.406 5.118 16.702 5.65 25.538.196 3.241 1.212 6.387 2.908 9.204 4.208 6.961 11.741-1.255 9.906-7.082-4.09-16.269-10.374-53.697-27.82-59.344m275.47-731.946c-6.752 2.041-25.406-1.963-20.972 7.586 7.638 18.263 9.728 17.615 27.471 23.732 4.768 1.938 3.873-7.359 7.476-9.453 1.941-2.063 1.637-3.94.163-6.063-4.177-4.429-7.679-15.908-14.139-15.802m56.41 43.557c.191 4.817 12.464 10.793 16.074 14.756 1.362 1.072 2.871 1.592 4.486.802 3.968-3.268 26.262-8.778 19.472-15.275-5.304-5.109-11.35-12.61-19.03-13.168-4.078 1.163-8.348.393-12.413 1.476-11.1-.235-6.628 3.364-8.589 11.41m67.192 6.271c.611-8.12-7.907-8.8-9.503-1.685-6.11 36.873-30.46 62.358-66.9 69.203-7.735 1.377-6.198 10.496 1.48 9.48 38.174-5.506 69.856-38.7 74.923-76.998m-177.014-20.469c3.022-.04 4.327-1.62 5.238-5.809 6.773-35.182 34.093-60.315 69.146-65.347 6.745-1.078 5.14-10.135-1.312-9.509-36.962 4.392-68.902 32.87-76.948 69.66-1.358 4.161-2.293 11.062 3.876 11.005m178.073-6.335c-6.027-39.855-40.563-71.846-80.232-75.287-6.207-.185-7.706 7.91-1.456 9.673 37.885 4.694 64.93 30.606 72.677 68.14 2.005 4.763 9.345 2.956 9.011-2.526M1505.83 925.247c7.893-.654 5.402-10.727-1.683-10.306-31.22-5.225-57.428-29.984-64.168-61.284-1.307-4.767-1.313-14.398-8.265-13.11-2.665.616-4.37 3.245-4.006 6.333 6.378 41.61 36.65 72.353 78.122 78.367M448.94 1108.452c-8.42-17.877-21.207-34.227-28.554-53.004-1.119-3.109-4.76-8.375-7.494-3.608-4.166 11.37 2.964 22.922-4.035 35.1-7.538 18.942 14.898 21.172 28.144 24.058 5.008 1.091 11.71 4.49 11.94-2.546m741.2 30.674c3.054-.623 6.533.174 8.377-2.397 2.703-3.765 5.78-7.728 5.65-12.656-.176-6.613 2.84-11.495 7.126-15.905 14.506-13.365 6.72-7.393 12.838-22.18 4.87-8.193 8.671-16.533 10.5-25.908.092-1.237.152-2.772-.98-3.56-1.668-1.6-11.128 8.025-14.347 9.091-12.98 10.943-13.743 31.818-29.938 39.606-11.274 4.184-.198 15.015-4.714 22.936-2.928 6.092-1.698 10.433 5.488 10.973m269.803 59.594c1.52-10.945-5.897-15.676-10.956-23.527-.89-1.216-1.923-2.362-3.434-2.473-7.832-.994-10.685-14.863-16.888-20.226-15.916-12.016-2.617 36.23-.418 41.276 4.851 13.764 11.447 26.816 16.984 40.307 1.164 4.674 7.517 4.79 8.442-.119 2.016-6.13 3.962-12.283 5.954-18.422 1.436-5.017-.745-12.766.316-16.816M398.81 1031c-.25-12.205 1.64-22.219-4.285-32.582-1.815-4.138-8.472-10.06-9.524-1.42.177 6.64 1.277 10.427-3.7 16.388-4.523 6.757-5.572 14.757-8.228 22.177-.153 8.484-1.57 17.912 1.803 25.93 5.05 8.835 9.81 28.761 23.448 20.236 4.13-2.136 4.056-7.322 2.364-11.089-5.195-12.165-1.079-27.642-1.878-39.64m722.862 608.03c-.96 3.857 2.561 6.145 5.15 3.877 5.001-4.422 6.05-11.763 9.436-17.349 5.571-10.795 11.186-21.57 16.994-32.237 7.635-15.382 15.577-30.55 24.4-45.286 4.272-7.388 7.563-15.487 14.544-20.992 11.984-18.909 23.857-38.178 35.186-57.577 1.597-2.818 5.812-9.237-.15-9.324-3.479.303-4.768 4.113-6.727 6.5-15.345 19.907-27.867 41.652-41.542 62.683-21.48 34.972-43.842 70.768-57.29 109.704m431.304-530.366h-.03c-1.323 14.251 2.274 27.693 9.727 39.848 1.855 4.812 7.486 5.541 9.71 9.785 3.713 9.012 11.178 15.951 13.815 25.553.713 1.317 1.633 3.315 3.464 2.682 5.64-1.415-8.542-33.592-11.267-37.614-1.089-2.46-3.35-5.996-2.276-8.609 3.817-1.97 8.762 12.196 11.278 3.8 6.213-20.536-7.519-28.386-13.236-45.032-1.468-7.343-10.903-24.266-18.58-13.813-4.187 7.008-2.163 15.626-2.605 23.4m-31.419-125.233c2.715 3.993.725 7.797 1.64 11.962.341 8.72 4.246 25.665-4.35 30.687-2.36 2.214-7.923 2.262-8.219 5.894 1.297 3.675 5.984.76 8.711 1.058 8.917.538-.155 13.697-3.62 16.597-.853.735-1.692 1.735-1.046 2.964 2.105 3.113 6.79 1.318 9.08-.545 2.99-2.165 5.523-2.863 8.438.191 3.177 3.325 9.753.348 8.603-4.376-.994-24.72-4.25-49.307-5.416-74.113-.415-7.769-2.41-15.389-1.86-23.24.556-6.09-4.776-11.087-11.024-8.705-4.044 1.038-4.143 4.268-2.463 9.17 3.531 9.712-6.37 17.421-7.562 26.821-1.554 6.82-8.58 10.513-15.088 10.395-10.819 1.45 4.006 16.377 24.176-4.76m54.462 428.041h.076c2.771-24.75-9.27-26.14-17.69-46.178-10.828-24.848-15.92-35.663-22.052-.653-8.214 32.693-.075 50.41 23.553 72.96 2.363 2.54 6.761-.04 4.667-3.269-4.31-9.693-13.256-17.902-10.6-29.275 3.14-6.197 15.735 17.147 16.652 20.431.791 1.321 1.441 3.373 3.403 2.776 4.044-2.946 1.161-12.08 1.991-16.792m13.646-673.318c.838 5.273-3.45 21.954 6.091 18.06 16.961-8.56 30.958-26.96 29.856-46.739-2.017-7.067-.294-14.747-3.227-21.409-2.936-5.762-6.359-11.262-8.972-17.199-2.079-4.724-6.648-4.725-10.69-5.139-8.525-.005-8.137 12.145-14.477 16.166-3.115 4.273-1.065 11.018-1.24 16.082 1.562 13.354 2.771 26.717 2.66 40.178m-1181.974 377.77c-9.05-1.286-17.2 5.916-14.199 15.185 2.046 4.476-2.853 8.392-1.135 12.72 3.851 20.073.137 23.12 20.756 32.714 19.657 11.775 27.672-16.677 28.137-31.66-.28-5.849 5.19-9.413 6.725-14.74 2.847-7.744-8.376-7.762-13.2-9.243-9.04-.988-18.103-4.6-27.084-4.977m604.541 28.218c25.38-2.673 18.556-1.842 31.333-22.29 6.527-8.76 1.004-25.67-.89-35.832-2.093-10.062-34.125-74.806-31.582-32.679-.083 18.136-.962 36.03 4.947 53.4.61 4.075-.62 7.373-4.398 9.406-7.757 4.176-10.252 11.107-10.144 19.49.098 7.79.795 8.54 10.734 8.505m599.515-531.482c.43-15.863-4.526-29.918-17.918-39.284-8.32-5.098-11.695-15.068-19.677-20.542-4.958-3.222-25.793-16.807-19.8-1.295 5.568 15.748 10.8 31.607 14.418 47.941 1.61 7.26 4.013 14.376 4.432 21.871.366 6.54 3.478 9.925 9.981 9.862 4.572-.045 8.975.428 13.232 2.082 11.992 3.873 16.834-11.138 15.332-20.635m-26.196 610.965c-1.599-15.454-14.993-37.867-26.07-48.676-6.052-5.832-6.329 4.25-4.909 8.278 2.531 14.737 10.668 26.944 17.277 39.92.738 6.808-5.91 2.09-7.38-1.187-18.596-28.838-14.078 7.697-13.639 20.856-2.076 10.28 9.581 19.693 8.155 30.855-3.038 6.532-3.847-5.025-7.346-4.078-8.175 7.108-1.09 31.322 1.362 40.972 1.952 7.058 10.202 21.583 18.718 19.084 4.548-3.287-3.538-17.662-4.24-22.883-1.596-4.856-6.17-24.853 4.527-17.59 4.77 2.902 13.946 15.158 15.75 3.575 3.512-23.273-6.852-45.869-2.205-69.126m-143.52-156.747c-.636 20.058 5.09 40.186 13.21 58.233 3.777 7.206 11.013 12.083 13.804 19.765 2.336 5.15 2.847 20.753 8.397 21.781 2.243.087 2.534-2.273 2.886-3.922 8.39-28.275 9.046-29.789 1.528-57.914 4.24-7.07 7.61 15.7 11.386 7.99.832-4.79 3.325-9.85 2.085-14.704-3.554-10.083-6.909-20.255-11.729-29.822-3.564-7.916-10.997-13.147-14.597-21.074-2.956-3.47-8.416-22.507-13.853-17.466-2.01 3.27-4.143 6.378-2.669 10.804 2.184 6.553 2.47 13.635 5.011 20.133.984 2.283-1.513 4.566-3.384 2.61-7.707-17.54-13.294-14.652-12.075 3.586m-12.892-136.65c-5.77 1.711-10.356-1.348-15.728-.207-5.337 2.085 1.111 7.27 4.425 7.441 7.66 1.801-4.066 11.017-7.409 11.325-11.78 2.633-18.428 13.725-29.927 17.023-1.759.834-4.49 1.5-4.169 4 1.033 3.223 5.7 1.43 8.258 1.873 14.221-1.904 29.412 6.71 42.434-2.153 9.75-6.489 18.524-14.342 27.715-21.692 1.395 1.558 1.058 2.897.293 4.198-2.109 3.363-2.54 13.096-.053 15.776 6.68-2.02-.45 16.272 13.588 29.916 2.355 2.387 2.102 3.014-1.113 4.09-10.877 5.197 6.594 14.065 4.147 21.638-.136.5.332 1.245.668 1.782 4.967 7.965 9.68 16.148 17.15 22.116 2.058 1.645 3.791 3.452 4.934 5.867.616 1.3 1.461 2.958 3.094 2.621 4.413-3.706-2.2-16.995-3.705-21.797-3.154-11.175-2.929-21.152-16.292-25.127 4.757-3.824 7.102 2.451 20.077.475 5.228-.664 3.021-7.639-1.865-6.566-11.405.183-11.224-8.412-16.087-15.986-4.07-6.985-17.096-20.269-13.216-28.29 2.071-7.54 1.047-15.963 5.885-22.762 2.913-6.755-8.596-11.568-13.672-8.66-10.6 5.373-20.005-4.082-29.315-8.13-5.667-2.243-9.752-6.674-14.676-10.014-1.526-.689-2.647-.216-2.404 1.646.476 11.966 11.773 11.958 16.963 19.596m29.168-310.982c1.468 35.42 2.538 71.902 3.74 107.507.105 5.055 1.088 9.99 1.181 15.025-.234 4.112 4.497 2.583 6.608 1.108 4.748-5.28 24.796-8.322 12.662-16.768-4.698-3.83-5.04-4.916-1.43-10.04 4.851-6.89 8.892-14.3 13.727-21.187 8.653-7.015-3.305-33.637 11.92-29.65 6.802 5.543 7.936 1.225 11.083-4.85 2.792-4.91 2.762-6.249-1.694-9.892-9-7.358-18.285-14.366-28.16-20.485-8.335-5.164-16.51-10.668-25.707-14.267-1.399-.547-1.909-1.638-1.84-3.079-.357-3.265 13.697-4.737 17.145-7.364 3.158-1.305 5.23-.017 6.314 3.268.381 4.17 3.118 9.965 7.413 5.3 3.85-6.664 5.97-2.198 7.534 2.902 1.43 12.145 9.625 3.088 12.322-3.035.777-2.224.858-4.364.074-6.649-3.524-10.265-6.96-20.56-10.41-30.852-1.955-5.833-7.078-9.053-13.04-8.154-8.285.71 5.927 18.98-6.399 14.793-3.307-1.64-6.647-1.392-5.339 3.291 6.825 14.446-4.582 13.03-14.205 18.031-5.806 2.942-2.73 9.15-3.499 15.047m-41.685 473.311c.457 3.72-.417 7.162.902 10.48 3.943 6.85 8.901 29.891 15.05 31.895 4.941 1.051 7.591 4.35 9.524 8.771 3.16 7.226 8.174 13.191 13.435 18.918 4.014 4.676 11.49-.193 6.887-5.702-21.02-25.669-24.455-35.769-32.485-65.982-6.675-17.224-7.074-36.579 2.496-53.839 5.058-13.16 9.023-26.704 14.586-39.628 2.401-4.02-2.536-15.636-5.016-16.183-2.376-.13-2.994 2.691-3.927 4.381-13.043 29.808-23.55 60.724-36.159 90.65-33.568 93.077-76.733 182.007-116.962 272.23-3.39 7.662-7.415 15.057-10.676 22.831-1.78 7.935-19.074 32.164-12.179 36.64 3.731 1.454 5.386-2.588 6.724-5.366 13.218-28.335 26.864-56.44 40.443-84.587 37.076-78.36 70.046-158.364 104.448-237.944.368-1.036.46-2.636 1.838-2.48 3.705 1.732.622 11.471 1.071 14.915m-61.727-74.927c4.354-1.359 13.641-8.308 16.928-3.784.974 2.618-1.962 3.263-3.68 4.217-7.91 1.825-7.28 9.927-14.262 11.204-7.778 1.13-28.303 13.192-22.91 22.531 3.97 1.215 7.47-4.469 11.022-5.972 4.352-4.646 17.358 2.444 10.514 4.855-12.013 3.79-18.724 15.395-28.845 22.3-10.125 8.307-21.87 15.93-26.422 28.921-4.099 11.666-13.029 21.771-15.66 33.781-.695 5.183 2.37 7.343 5.982 2.673 10.404-10.685 25.151-6.4 38.293-9.422 40.99-6.296 51.353-30.104 62.34-66.673 4.39-8.57-11.179-3.79-15.125-3.239-4.59.922-2.22-4.956.563-5.748 4.845-3.278 11.304-1.64 15.586-5.812 5.907-4.166 30.73-32.215 15.626-34.726-7.047-1.127-25.454 6.781-12.16-6.797 3.402-4.452-5.215-4.859-7.86-5.359-12.347-2.322-21.362 3.61-29.358 12.031-1.14 1.201-1.773 2.712-.572 5.02m165.226 309.1c-.116-6.169 3.468-17.128-6.186-12.294-7.558 3.301-14.472 8.426-21 13.5-19.316 16.815-46.726 25.871-62.109 46.696-4.405 7.732-10.377 15.281-12.13 24.145-.315 7.722-2.083 15.06-5.669 21.948-2.255 5.298-10.496 22.071.06 21.92 4.071.661 1.312 4.404-.194 6.331-3.437 5.328-9.083 9.858-9.656 16.545-.922 5.294 4.402 8.323 8.185 4.191 13.914-12.553 27.647-26.409 45.941-32.16 3.251-.96 6.508-2.124 9.131-4.274 6.797-6.199 15.618-10.005 21.714-16.895 6.297-13.59-24.756 4.282-29.047 4.691-6.609 1.292-11.317 5.956-17.042 8.626-5.099.332-9.07 3.002-12.958 5.967-5.816 5.28-13.327.461-7.398-5.316 5.272-3.09 11.14-5.044 16.117-8.705 4.174-2.623 7.874-6.218 13.207-6.438 10.654-4.133 20.293-10.485 30.485-15.648 6.272-3.992 4.22-1.254 13.427-5.56 24.355-15.727 14.108-13.279 19.274-35.349 2.67-10.416 5.642-21.096 5.848-31.922m.974-192.609c3.045-6.453 5.858-11.632 8.742-17.922 2.752-6.248-3.478-13.82-9.77-8.032-6.395 5.347-14.535 10.477-15.358 19.61-1.64 6.526-3.979 12.8-4.824 19.583-1.107 3.902 1.118 5.34 5.012 4.16 6.898-3.033 4.82 5.55 2.504 8.934-6.312 9.901-23.465 19.923-19.215 33.12 3.716.892 6.16-3.915 9.385-5.18 4.55-.867.225 4.687-1.316 5.762-10.053 10.84-18.823 23.647-20.504 38.773-1.056 4.09 5.662 6.242 6.695 1.921 3.281-8.297 9.698-14.496 15.893-20.527 3.028-2.928 7.771 1.747 4.324 4.535-4.494 4.778-7.114 10.74-10.434 16.287-4.486 7.493-9.793 14.44-18.09 18.274-3.586 1.655-7.008 4.035-8.036 7.966-1.4 5.348-5.05 8-9.49 10.216-9.843 6.227-8.558-22.804-16.234-24.264-3.327 1.87-2.703 7.541-1.26 10.647.815 1.582 1.804 3.183 1.735 5.012-.278 7.366 2.996 13.862 4.924 20.672 1.233 4.357 4.221 5.24 7.611 2.261 7.067-6.207 26.461-11.74 10.246 2.078-10.4 8.361-12.812 21.532-16.1 33.874-1.075 5.025-5.787 22.38 4.247 15.154 11.863-6.265 22.735-14.076 33.447-22.122 2.253-1.692 3.97-3.937 4.78-6.6 4.68-14.51 19.381-20.542 27.8-32.329 13.34-16.763 10.951-38.679 11.756-58.72-1.639-16.247-20.474 4.732-20.07-9.036 3.46-12.682 14.067-3.285 17.057-20.502 1.998-14.657 6.048-29.282 4.87-44.207-.435-7.417-.39-10.222-10.327-9.398m-209.852 206.84c-3.924 6.186-5.65 20.655-2.859 27.484-.183 5.483 1.388 10.546 3.443 15.516 4.707 16.593 14.152 30.833 25.701 43.392 5.872 7.276 12.314 14.187 15.798 23.161 2.451 4.3 3.931 13.428 7.85 15.705 6.703-2.226 5.577-21.224 1.177-26.18-3.949-10.64-9.372-20.479-15.092-30.237-4.73-5.049-9.714-9.88-13.327-15.91-2.99-4.326 4.883-10.265 9.193-1.314 3.981 6.062 11.623 7.921 16.132 13.653 5.29 5.25 10.754 10.308 18.36 12.006 2.655.593 3.541 2.422 3.432 5.058-.189 4.07-1.054 14.3 5.668 10.104 13.612-9.465 8.091-27.662 8.812-41.759-1.3-14.868-12.603-26.53-19.215-39.352-3.972-5.754 3.585-11.052 8.154-6.892 1.606 1.346 3.353 2.747 4.16 4.691 2.77 6.676 7.536 12.061 11.208 18.147 3.847 6.376 5.548 6.28 9.745.08 9.396-17.023 25.12-34.174 23.17-54.628-5.892-21.327-15.164-41.583-21.069-62.957-3.022-10.388-7.109-20.25-9.965-30.734-.755-5.27-4.642-21.25-11.447-12.17-1.834 2.675-3.569 5.377-5.879 7.675-1.947 3.088-2.56 7.024-4.678 10.095-4.27 7.757 1.775 15.63 1.167 23.744.374 10.503.93 20.927 6.547 30.296 2.32 3.695-2.31 8.701-5.968 5.771-7.946-4.126-8.496-4.768-10.975-13.553-1.049-3.518-7.397-25.518-9.686-12.528.298 3.666-.495 7.057-2.154 10.325-1.79 6.17-.31 13.004-.815 19.398.687 8.223 3.092 16.192 4.738 24.228.88 3.407-2.089 7.058-5.487 4.884-5.929-2.092-12.512-32.41-18.305-22.988-7.16 15.125-14.126 31.473-14.627 48.398.95 8.346 2.304 16.676 5.505 24.518 2.275 5.574 2.197 6.021-3.172 8.353-.584.254-1.157.548-1.925.263-4.812-9.28-9.044-19.549-9.557-30.153.244-2.24-.854-4.442-3.758-5.59m-122.23-17.6c-.685 4.82 5.23 4.624 8.351 3.575 14.172-6.076 29.105-8.497 44.141-11.016 3.78-.382 2.372 4.338-.709 4.495-5.225.861-9.577 3.663-13.989 6.335-6.166 3.49-13.325 4.714-19.889 7.282-14.039 4.698-27.24 12.994-31.194 28.092-.96 1.89.694 3.4 2.983 2.958 10.767-3.77 21.66-6.742 32.823-9.1 56.016-16.979 68.911-40.724 92.341-91.139 18.327-39.3 37.104-78.457 52.223-119.157 5.694-20.857-21.936 6.421-28.474 7.782-32.913 17.382-70.706 30.85-90.744 64.601-7.8 21.05 18.464-3.785 22.233 3.363 1.826 3.123-23.818 18.69-27.6 20.734-6.764 3.432-10.373 9.501-12.816 16.408-1.683 6.25 7.251 1.191 9.651-.004 6.374-3.854 13.704-5.529 20.122-9.247 1.56-1.286 3.324.494 2.473 2.236-2.928 5.006-10.04 6.377-14.966 9.101-22.139 9.832-44.378 38.05-46.96 62.7m268.307-725.26c5.664-5.938 5.998-13.87 9.485-20.93 5.088-12.454 8.51-25.369 12.26-38.245 5.763-11.222-11.579-11.695-18.235-15.41-10.783-4.245-21.602-8.36-32.622-11.932-3.052-1.938-23.29-4.489-15.347-10 5.565-1.836 17.283-13.735 21.373-6.457 9.16 16.974 8.981-8.29 15.36.941 2.53 3.07 3.19 11.066 8.293 9.871 4.735-2.1 7.514-10.57 4.785-14.996-2.975-4.825-6.064-9.573-8.538-14.699-2.75-5.702-6.392-10.896-9.422-16.432-2.992-5.464-7.644-7.04-13.32-6.865-8.965-.376-2.105 7.986-1.043 12.406 2.712 8.03-11.329 2.587-7.429 11.45 1.632 3.378 4.405 7.336.147 9.806-4.119 2.077-19.424 16.471-16.496 3.688 4.556-20.63 6.4-41.566 9.943-62.376 1.215-5.47-1.576-8.442-7.21-9.145-14.223-1.459-28.203-4.333-42.342-5.825-7.269.708-14.413-.566-21.523-1.96-8.833-2.25 4.6-8.1 6.58-11.129 5.447-5.192 6.442-5.123 11.788.14 2.834 3.712 6.47.861 6.525-2.99.257-2.066.058-4.782 2.26-5.41 4.787-1.06 13.492 18.973 16.95 8.448 3.27-12.037-.605-15.636-8.572-23.675-4.995-6.853-11.62-12.136-17.127-18.486-3.885-4.604-10.083.145-15.083-.178-9.663 2.544 16.411 16.216 4.852 18.415-17.106 2.01 3.25 9.11-5.468 15.625-4.99 3.988-8.848 9.751-15.126 11.755-.079-10.434 1.294-20.37.107-30.805-1.246-13.368.39-27.068-2.572-40.254-1.745-11.57-33.382-1.52-41.846-1.163-8.95 1.013-17.834 2.254-26.54 4.644-8.666.408.547-9.653 2.12-13.093 6.592-14.337 13.872 6.025 17.143-4.8 1.847-7.373 1.847-7.373 8.012-3.105 7.048 4.943 8.793 5.133 10.09-3.897.85-4.548-.493-8.2-4.653-10.718-10.32-6.585-20.28-13.793-30.308-20.833-3.027-2.187-5.979-2.126-8.927-.044-2.444 2.12-9.323 5.361-4.764 8.712 3.195 3.234 12.832 7.315 5.168 11.42-10.232 5.647 7.431 10.446.72 17.713-2.969 3.652-3.65 8.887-7.585 11.675-4.397-8.548-3.962-19.029-7.884-27.962-4.319-8.334-10.692-46.389-22.54-41.195-21.136 4.421-3.359 19.121-.949 31.412 3.476 6.174-3.63 12.806 1.692 17.968 5.817 8.721 2.24 23.283 12.387 29.394 65.68 44.21 123.871 99.52 173.28 161.594 17.973 22.577 34.05 46.46 48.884 71.225 5.22 8.215 2.665 17.043 3.267 26.707m-470.449 486.298c1.475-12.852-1.337-26.606-3.765-39.425-2.438-14.303-14.957-23.628-17-38.177-1.89-4.519-1.4-22.944-9.326-15.987-7.04 4.88-11.873 13.654-20.198 16.232-5.846.441-23.499 6.035-24.029-3.097-.138-2.843 1.427-4.834 3.037-6.927 5.602-7.285 11.936-14.086 15.09-23.026.647-1.837 1.635-3.67 3.326-4.692 4.987-3.01 7.208-7.708 9.52-12.929 7.991-18.224-.987-36.272-6.576-53.585-1.437-4.89-6.434-5.524-10.746-5.257-16.754 2.896-27.695-32.346-36.36-17.959-39.169 70.138-76.525 141.311-115.358 211.637-10.558 15.624-5.046 36.603-18.484 50.805-9.182 10.007-18.03 20.335-27.704 29.882-2.717 2.578-2.565 3.632.43 5.691 4.547 2.48 9.147 7.498 14.683 6.316 23.437-4.787 47.168-7.952 70.395-13.745 27.418-7.575 54.456-15.706 82.415-20.889 6.32-1.207 12.701-1.973 19.133-.607 11.452 1.843 50.162 7.846 51.875-8.252 3.134-17.575 20.61-15.114 17.258-23.197-.882-3.273-.739-6.448.328-9.585 2.801-7.734 1.958-14.998 2.056-23.227m137.298 51.977c12.934 2.343 26.077-6.629 26.94-20.647.24-3.97 1.496-7.447 5.344-9.116 5.978-2.592 9.928-7.002 12.391-12.965 2.292-3.908 5.442-7.558 5.26-12.327.19-4.712 2.177-8.517 5.173-11.758 8.453-11.138 21.523-17.085 30.61-27.319 1.146-3.544 38.101-49.308 19.112-37.242-4.314 4.26-31.118 21.76-35.663 17.88-.14-4.168 6.497-8.644 10.09-10.652 8.501-4.424 15.725-10.294 21.008-18.77 4.74-9.1 12.453-16.893 15.84-26.566.202-1.355-.369-2.616-1.806-1.764-21.245 7.962-24.066 34.2-41.554 46.596-4.8 4.38-8.88-.344-3.996-4.414 4.527-4.174 7.032-9.604 9.663-15 1.486-3.049 3.026-6.033 4.914-8.902 7.504-11.408 16.856-23.855 27.504-31.408 4.506-3.197 6.835-6.423 7-12-.084-15.433-8.492-26.18-11.277-41.127-2.425-9.41-5.455-18.66-8.16-27.997-2.749-6.558-1.563-16.089-8.916-19.466-19.239-11.145-38.453 4.101-56.813 10.156-14.206 5.594-28.652 10.605-42.668 16.638-22.59 8.676-47.109 10.17-69.943 17.102-.95.556-2.114 1.185-3.13 1.108-5.307.32-19.522 2.282-20.533 7.95-2.243 6.425-4.403 12.811-3.666 19.847.86 7.197-1.416 14.808 1.88 21.632 1.746 11.245 5.143 22.391 10.03 32.825 3.965 12.215 10.322 24.074 12.317 36.731-1.502 11.908 2.694 22.511 7.59 33.087 5.485 14.03 12.05 27.597 17.182 41.776 2.15 5.934 4.854 11.668 7.713 17.315 1.865 3.684 1.408 5.32-1.45 8.227-15.8 8.717-7.469 8.043-7.623 22.348.16 9.137 11.446 1.046 16.66 3.9 14.456-.14 28.338-6.285 42.977-5.678M493.95 576.943c-5.362 2.02-11.49-3.208-16.379-5.345-4.47-4.888 6.474-12.113-7.467-12.423-9.327-.15 11.812-19.68-9.852-14.578-4.47-.017-7.364 2.128-8.733 6.28-3.252 9.86-7.378 19.386-10.799 29.188-4.596 8.481 7.694 30.9 12.641 14.072 5.282-11.685 8.997 10.361 15.468-5.91 3.731-7.562 3.73-7.58 11.631-4.718 2.57.931 5.222 1.716 7.523 3.253 7.274 3.914-13.184 11.751-15.854 14.434-13.234 7.761-25.92 16.352-38.173 25.598-4.838 3.652-5.206 5.38-2.604 10.707 10.125 18.472 21.631 36.162 34.123 53.098 5.85 8.224-13.169.793-16.16.597-3.259-.899-3.99-2.308-4.167-6.19.57-12.569-10.942-2.67-10.286-10.296 4.484-20.932-21.877-5.463-20.41 7.402-.654 8.564-1.656 17.086-2.829 25.59-2.089 10.91 15.27 29.897 16.383 9.117 1.083-12.737 12.612 7.977 14.217-6.225.566-5.333 2.803-7.888 7.932-7.786 2.661.157 19.086 1.117 13.848 5.795-16.832 13.564-32.584 28.461-48.572 43.031-4.783 4.371-4.817 4.858-1.329 10.18 7.122 10.863 15.681 20.562 24.387 30.13 6.431 7.067 14.374 12.528 20.648 19.761.678.782 1.953 1.283 1.48 3.044-4.536 1.7-9.398.728-14.144.838-9.134 1.286-3.488-14.55-11.339-12.134-11.797 7.698-7.833-1.2-9.902-9.65-1.85-6.493-7.237-2.21-10.499.601-4.874 3.405-3.779 8.558-3.305 13.764.28 10.037.767 20.116 2.21 30.052 1.041 6.351 7.461 10.247 12.557 13.296 9.145 3.231 1.5-14.665 4.036-18.988 8.091 3.72 11.38 11.756 12.85-2.753.607-6.583 9.488-3.843 13.93-4.47 3.278-.625 4.451 2.876 2.098 4.982a315.6 315.6 0 0 0-35.367 50.96c-3.034 4.908 2.477 9.41 6.057 12.065 15.104 10.542 30.624 20.373 47.16 28.501 2.134 1.05 4.154 2.278 5.433 5.034-4.708 1.598-9.026 3.277-13.466 4.505-8.757 3.387-7.244-18.304-17.208-7.759-4.71 4.742-5.867-5.124-7.842-8.02-.864-1.872-2.15-2.686-4.272-1.793-5.79 2.438-8.847 8.372-7.09 14.498 3.133 10.915 6.66 21.72 9.583 32.688 2.065 7.745 7.473 9.605 14.188 9.787 10.581.194-2.777-14.889 6.213-15.836 12.625-.509.463-9.13 6.838-14.05 3.764-1.727 18.74-10.073 14.706.082-4.012 8.513-6.673 17.57-10.458 26.187-4.368 9.942-7.657 20.323-10.53 30.807-3.8 8.95 15.771 13.428 21.615 16.921 8.285 3.528 16.69 6.76 25.306 9.413 2.844 1.76 21.701 4.605 15.381 9.246-3.774 2.301-11.278 12.84-15.134 7.044-2.305-3.945-6.87-12.61-10.457-4.723-3.97 12.417-9.14-12.608-15.236-4.119-3.16 4.088-6.098 9.701-2.07 16.546 5.006 8.508 10.054 17.018 14.735 25.703 3.278 6.082 7.75 8.844 14.288 8.693 6.512 1.18 8.497-2.634 3.98-7.566-11.119-15.233 13.834-1.792 4.833-18.282-3.402-6.754 3.641-11 8.215-14.479 1.392-1.014 3.184-2.704 4.674-1.76 1.737 1.098.895 3.535.682 5.408-2.893 19.575-3.406 39.351-5.432 59.02-1.86 10.158 3.883 12.004 12.478 13.495 10.05 1.12 19.61 5.2 29.912 4.404 9.101.873 18.231 1.214 27.366 1.428 1.102.025 2.323-.467 2.874.975.348 4.842-8.162 10.178-10.99 14.141-2.812 2.737-5.577 2.518-8.557-.135-8.047-8.204-8.609-6.77-12.482 2.824-4.899-.666-11.122-15.348-14.47-8.158-2.28 7.394-3.763 15.04 2.196 21.011 8.845 7.73 20.351 29.471 32.608 27.085 3.835-.547 14.276-.49 9.587-6.762-19.678-16.089 8.32-8.656-.01-18.424-2.078-3.244-7.076-6.729-3.69-10.774 3.835-5.186 8.675-9.422 13.157-14.954 5.78 24.654-2.634 51.637 6.387 75.2 11.711 10.472 26.201-3.395 38.326-6.859 16.101-7.989 34.99-5.605 52.231-9.773 1.75-.3 3.768-.44 4.953-2.183-263.003-165.297-316.59-528.329-109.082-761.787C738.714 270.2 969.958 218.392 1159.73 300.41c2.308.957 3.726.747 4.99-1.719 3.031-5.909 6.377-11.652 9.524-17.502 5.868-11.079-7.508-2.534-11.945-1.986-4.97.721 1.407-10.543 1.876-13.275 1.42-3.475 2.34-3.812 5.971-3.264 3.486.963 8.104 2.088 7.941-3.079-.93-4.084 2.067-5.135 5.625-4.599 5.403.848 7.286-4.364 8.862-8.543 1.438-3.95.927-5.316-2.94-6.722-12.475-4.233-24.69-9.492-37.429-12.83-5.319-1.503-8.707 3.004-11.996 6.493-5.272 6.418 14.192 5.694 9.902 12.978-8.466 10.161 6.468 7.673 4.927 15.21-1.842 5.11-3.73 10.202-5.615 15.338-2.608-1.05-3.868-2.883-4.894-4.965-10.26-18.425-18.994-38.329-32.898-54.298-2.466-2.61-3.138-2.8-6.278-1.053-7.878 4.385-15.573 9.1-23.375 13.62-7.52 4.36-14.574 9.538-21.848 14.332-2.937 1.07-11.986 10.641-12.316 3.77.604-7.39-3.366-17.693 7.65-16.76 5.291-.3 6.02-1.06 5.985-6.25-1.397-9.497 17.425.707 13.077-9.543-2.976-5.229-4.309-12.546-11.563-12.763-10.37-1.068-20.772-1.959-30.977-4.284-4.159-2.092-19.399 11.695-12.158 14.32 5.632 2.345 12.651 1.59 7.602 9.722-3.129 9.144 12.684 3.17 11.67 10.591-1.88 5.395.953 12.026-2.977 16.507-15.804-16.06-30.749-33.696-48.048-48.39-6.698-10.35-45.214 38.886-52.59 44.171-4.94 4.35-3.659-7.814-4.355-10.517-.27-5.306.923-6.86 6.186-8.592 9.737-1.572-3.268-13.022 4.466-14.26 3.863-.989 13.88 1.496 12.036-4.873-3.419-5.198-6.537-13.027-14.009-10.695-11.068 2.813-22.495.731-33.59 2.794-12.33 1.761-16.498 19.843-.078 16.97 5.588-.997 3.923 3.797 2.802 7.328-1.46 9.746 13.881.022 13.216 9.732.218 4.43 3.042 11.897.597 15.583-1.588.913-2.938-.777-4.145-1.756-17.045-12.896-33.477-27.264-52.67-36.812-4.455-2.533-6.539.05-8.94 3.65-10.614 16.662-21.75 32.993-31.242 50.366-1.057 2.183-4.017 6.037-5.653 2.146-1.747-5.662-9.308-13.935-1.498-17.895 5.972-3.756 5.972-3.756 3.05-10.41-4.065-7.478 15.604-6.289 6.93-14.455-11.6-13.119-26.613.028-40.206 2.518-5.963 1.533-10.278 4.427-11.833 10.711-3.398 6.505-1.905 10.493 6.35 8.361 15.333-4.772-3.744 16.008 18.7 9.432 2.516-.077 4.401.731 5.467 3.12.847 2.73 8.672 16.971 1.84 15.103-20.292-8.693-40.667-17.04-62.252-21.978-5.443-1.644-6.856-1.488-9.24 3.656-10.338 19.714-14.17 42.304-23.147 62.297-3.213 3.93-8.72-10.776-11.14-12.984-1.223-1.944-1.049-3.65.845-5.107 4.21-4.125 13.203-7.24 5.072-12.342-2.553-2.068-2.877-4.244-.03-6.234 3.445-2.16 9.752-5.979 4.125-9.73-5.707-3.822-12.173-6.953-18.532-2.14-12.33 9.8-35.127 14.901-32.925 34.866 2.233 9.532 16.28-9.899 16.31 2.634.502 14.098 14.761-3.878 18.784 5.551 1.664 3.844 7.57 8.357 6.708 12.456-1.269 2.236-4.394 1.153-6.645.796-14.735-3.447-29.697-5.436-44.682-7.405-7.638.087-22.838-7.227-25.604 3.08-2.67 22.2-2.38 45.747-5.324 67.5-1.228.696-2.177-.2-2.987-.935-21.88-18.864 1.958-15.369-7.36-25.168-3.335-2.344-7.34-3.22-3.118-7.443 12.703-12.795 2.491-13.488-9.665-12.738-8.008 1.445-20.92 16.956-27.53 22.995-3.894 3.586-2.62 9.491-3.225 14.288.063 11.634 5.657 9.39 11.624 2.342 10.675-13.169 1.81 11.936 12.716 5.787 11.317-7.615 13.117-.09 20.24 8.197 5.158 8.874-16.465 3.174-20.62 3.86-13.507-.06-26.962 1.626-40.485 1.144-4.859.55-12.39-.06-11.935 6.964-1.015 21.027 3.74 41.582 6.536 62.275.89 9.194-9.356-1.446-11.82-3.694-2.95-2.683-2.992-2.917-1.176-6.595 6.023-9.168-8.002-6.07-4.79-13.734.97-3.81 7.111-10.598.228-11.972-7.564-2.083-13.132.068-17.522 6.648-4.21 8.494-22.3 28.26-18.566 36.156 4.213 11.951 9.554 10.535 14.808.068 4.727-6.21 6.698 13.98 15.01 1.174 4.873-7.484 12.783 1.138 17.708 4.654 3.294 3.484-3.049 4.444-5.438 5.094-14.824 3.193-29.009 8.521-43.362 13.272-5.667 2.898-19.046 4.105-16.678 12.504 3.241 22.274 12.692 42.972 20.128 63.7m675.827-249.848c-23.114 37.864-41.88 78.495-64.026 117.047-8 13.05 7.102 23.656 9.717 35.957 3.071 14.436 6.978 28.166 7.003 43.146.03 16.26-4.74 32.672-.827 48.808.707 2.915 1.702 5.855 1.4 8.84-.166 1.627-.713 3.19-.95 4.808-1.152 7.835 4.243 14.904 4.597 22.618.438 9.516-.659 19.755-.68 29.421-.013 5.37.387 5.846 5.672 6.088 12.874.026 26.285-.15 38.776-3.374 14.537-3.707 28.814-10.217 43.803-11.133 15.257.28 30.345-8.613 45.67-3.938 3.871 1.311 7.704 2.207 11.792 2.012 21.355.96 58.535 35.083 74.67 50.394 15.546 17.126 31.463 33.891 44.634 53.014 2.538 3.52 3.684 7.482 4.554 11.661 1.762 14.713 3.882 29.977-.618 44.417-9.89 29.171-20.749 58.014-31.503 86.87-2.38 6.272-3.315 12.595-2.326 19.087.994 17.371-8.458 33.254-20.456 45.02-9.237 10.427-30.896 30.152-31.159 43.841.494 4.894-1.039 9.203-3.82 13.25-11.734 17.077-23.262 34.3-35.049 51.338-17.713 22.581-2.414 51.05-21.187 53.644-3.665.721-6.499 2.83-8.208 6.22-5.37 8.798 1.403 18.27-.425 27.65-1.459 7.874 9.425 4.701 13.968 5.4 4.216.107 6.852-2.043 8.562-5.848 6.176-13.748 12.437-27.458 18.7-41.166 5.418-12.453 16.001-21.632 26.608-29.58 4.471-2.202 3.57-5.387-1.225-5.18-18.5-1.606 21.734-38.953 24.12-45.802 4.727-9.624 9.674-19.094 17.984-26.22 5.273-3.609-1.51-8.703 1.837-12.945 6.165-10.766 18.655-12.073 27.688-19.369 5.598-4.832 10.894-10.132 17.9-13.075 2.18-.916 2.412-2.99 1.402-4.962-3.485-6.013-10.993-14.809-4.29-21.286 7.773-6.608.758-16.714-2.175-24.09-6.859-11.873 9.224-10.786 14.316-4.308 4.944 4.54 8.811 10.671 14.846 13.771 8.257 3.778 9.754-7.008 5.89-12.326-21.6-40.676-15.079-93.58 18.113-125.88 7.003-6.786 1.541-22.289 1.87-31.482-9.766-103.96-50.237-204.484-117.658-283.932-27.674-30.264-56.05-61.268-92.028-81.505-.168 5.297 7.76 13.144.753 15.017-4.268 2.266 4.583 8.005 6.5 9.518 9.03 6.003 11.715 14.87 12.025 25.123.227 11.717-14.17 1.013-18.9-1.974-5.347-3.816-9.24-8.484-8.354-15.834 1.323-15.558-4.494-14.435-6.198-.153-15.343-4.132-1.31-25.197-6.425-28.428-4.7-1.249-6.882 11.397-10.83 1.735-10.126-25.26 3.311-28.064-15.19-33.158-.83 1.176-.305 1.884.008 2.587 2.286 5.121 3.483 10.441 3.023 16.094-.175 2.141.272 4.167 1.21 6.13 3.578 7.507 2.898 15.51 2.421 23.442-1.424 12.571-7.13 10.89-13.799 2.53-5.619-5.1-4.083-12.935-4.207-19.764.615-6.283-6.507-1.25-5.886-6.71 2.771-9.978-4.887-10.015-3.937-19.195-.34-4.892 1.916-8.835.304-13.88M614.131 851.692c3.122-2.134 3.124-2.178 6.171-2.085 4.68.144 9.345.408 13.59-2.249 4.364-1.455 9.323-.7 13.811-1.728 9.613-.06 16.692-7.528 18.403-16.86.303-2.185 1.294-3.512 3.106-4.552 2.595-2.148 11.115-5.084 8.146-9.439-1.795-3.115-3.547-4.753 1.23-5.647 4.322-1.206 10.125 1.32 12.996-3.218 3.113-4.399 7.23-7.838 10.92-11.682 4.465-4.653 10.096-6.774 16.403-6.917 9.158-.209 25.33-8.958 32.188-14.879 6.551-5.653 6.537-13.443 16.957-14.317 2.94-.247 5.093-1.475 7.21-3.402 17.054-15.52 36.095-22.302 57.98-28.708 11.925-8.917 32.401-4.042 38.65-18.252 1.16-2.664 2.943-5.054 5.414-6.745 13.851-12.068 26.01-26.109 40.088-37.983 2.533-1.993 3.178-4.749 2.906-7.843-.014-9.52-24.579-1.216-30.909-1.614-2.969.403-17.47.993-13.149-4.61 4.36-4.095 7.941-10 13.926-11.68 9.072-2.128 16.95-6.902 25.046-11.222 5.332-2.676 4.432-9.596 7.957-13.9 6.06-8.644 14.101-25.25 26.215-23.813 5.02.355 10.676.573 12.61-5.197 3.93-9.386 9.285-17.79 17.095-24.43 2.64-2.244 3.975-5.27 3.817-8.616-.066-25.565 8.288-51.495-3.424-75.769-1.492-4.918-7.12-15.895-12.37-8.513-7.092 7.804 8.24 23.868-6.124 26.082-24.908 2.72-18.527 12.624-28.834 6.77-13.1-10.353-26.572-.326-36.492-14.073-3.422-6.628-11.6 8.13-12.295 11.62-.617 3.001-3.265 4.76-5.502 6.58-2.427 2.74-6.773-2.754-7.926 1.4-1.613 3.96-1.436 11.477-7.498 9.053-3.767-1.23-5.362 2.544-7.452 4.828-1.979 3.62-15.029 7.355-13.148.491 1.667-6.073 7.5-7.886 11.862-11.51 2.367-4.263 11.284-6.04 10.127-11.248-3.413-6.485-14.219.087-19.833-5.754-4.89-3.14 5.777-9.038 8.486-8.62 6.175.367 11.24-1.445 15.801-5.387 21.353-10.85-10.093-44.67 57.566-59.143 51.78 11.67 31.626-11.467 67.094-21.538 14.95-4.245 38.977 5.03 53.644 7.855 3.188.614 6.504 1.284 9.083 3.273 3.316 2.557 4.993 6.683 8.596 8.941 2.95 1.847 6.438 1.731 9.403 3.991 5.946 4.534 8.018 12.695 14.657 16.585 21.443-36.889 41.503-74.627 62.2-111.97 3.427-6.4 4.954-5.928-3.527-9.258-39.248-15.57-80.336-25.85-122.23-30.725-172.587-21.182-352.316 62.15-448.42 208.533-97.023 142.03-109.24 336.328-30.156 489.357 32.872 65.122 80.436 122.562 138.544 166.16 7.478 5.633 15.106 11.066 22.721 16.511 3.05 2.181 4.384 1.89 6.172-1.298 9.271-22.36 10.387-48.918 35.117-60.488 12.956-12.346 18.327-31.273 27.966-46.294 31.031-57.795 62.683-115.244 93.645-173.077 5.743-7.557 1.236-10.039-6.594-10.319-12.623.65-25.609-1.542-37.95 1.745-11.173 3.524-23.238 4.117-34.203 8.09-11.523 4.603-22.523 10.392-32.94 17.218-6.222 3.672-7.302 10.984-5.734 17.65 3.02 14.685-.03 31.64-11.15 42.278-4.47 4.3-8.205 9.067-11.049 14.64-8.74 15.906-15.317 32.885-23.89 48.864-4.736 7.61-1.426 16.571-.29 24.632-.48 4.076-8.695 14.207-12.63 15.207-12.034 2.972-26.573 5.968-37.592-1.574-14.69-7.975-12.248-55.556-13.123-71.51-1.987-15.472 2.884-32.043-2.44-46.902-1.9-7.007-.52-14.766-2.76-21.629-3.87-9.41-12.58 7.266-17.765.991 1.093-2.689 6.373-2.297 5.62-5.415-5.365-8.122 8.844-8.494 9.183-33.177 2.322-4.044 2.306-8.725 3.744-13.01 1.527-4.549.48-6.46-3.67-8.629-6.838-3.574-13.688-7.125-20.997-10.927m600.71 820.43c-9.825 24.244 3.29 52.752-11.856 75.552-5.139 7.66-11.068 14.777-15.424 22.977-.872 1.641-.998 1.573-4.34 1.954 4.72-14.04 1.173-28.705 6.2-42.73 1.472-8.365 8.331-24.138-3.107-27.776-5.94-.397-8.629 6.854-8.866 11.95-.709 10.396-2.89 20.54-4.83 30.73-1.947 13.524-16.056 55.23-32.104 53.213-4.192-1.72-7.434-.306-10.696 2.198-7.69 5.906-15.552 11.554-24.678 15.083-22.847 7.508-42.144 22.247-59.222 39.007-9.202 6.548-6.458-6.056-5.119-11.315 1.597-7.438-2.439-14.647-4.572-21.583-5.948-14.813-10.097-30.124-12.99-45.807-3.779-20.763-5.389-42.03-1.156-62.825.92-12.838 4.485-25.182 7.182-37.686.32-1.483.493-2.917-.489-4.187-1.474-1.907-.855-3.62.34-5.334 6.853-9.82 10.381-21.202 14.796-32.166.87-2.157 1.133-4.392.59-6.687-1.508-6.362-.48-12.7 1.01-18.796 3.344-8.995 4.54-24.228 11.577-30.423 4.918-3.323 8.497-7.825 11.456-12.962 7.41-12.862 17.944-22.699 29.542-31.69 22.86-17.145 49.876-26.896 76.45-36.41 8.826-4.167 21.651-8.585 24.315-18.945.441-1.945-.468-2.776-2.384-2.38-21.684 14.096-28.974 6.851-50.994 13.268-20.33 7.575-36.865 22.687-57.702 29.06-5.435 1.73-7.339 7.218-12.504 9.314-2.046-6.774 7.545-16.976 10.178-23.683 4.77-8.368 4.325-18.937 11.311-26.096 8.486-8.384 6.606-21.277 13.983-29.95 7.51-7.648 13.342-16.639 19.361-25.467 1.05-1.539 1.867-3.205 1.071-5.005-3.04-9.292 6.858-15.747 11.124-22.89 16.265-26.486 16.753-28.01-13.512-16.382-96.414 28.094-199.443 25.5-296.815 4.355-77.066-16.734-149.63-50.275-215.109-94.178-24.005-17.599-48.068-35.634-69.732-56.13-13.692-14.2-28.009-27.775-42.06-41.61-1.335-1.246-3.916-4.396-4.479-1.279-.492 9.38-4.396 18.325-3.284 27.935 2.08 11.041 9.078 20.435 7.37 32.296-.543 11.154 10.694 19.31 11.1 31.087 1.897 15.972 13.86 27.455 21.094 41.127 6.445 12.522 7.262 27.426 14.437 39.674 24.718 35.466 7.365 27.627 19.092 48.617 4.448 14.937-2.59 32.055-.64 47.795-.366 38.311-39.895 37.324-53.662 72.535-1.163 2.366-1.394 4.991-2.175 7.456-3.805 9.277-11.67-3.266-9.347-8.598 2.635-23.104 23.845-38.24 39.798-52.897 9.382-6.773 9.608-29.942 5.648-40.187-3.1-6.042-10.99-8.827-10.136-16.853-.937-15.354-13.47-16.663-11.605-38.128.215-13.102-3.976-25.93-12.833-35.762-2.667-2.103-5.328-1.385-6.44 1.842-2.288 7.57 2.523 14.443 5.491 21.053-6.375 2.97-6.989-4.54-10.179-8.118-6.06-8.89 1.6-34.159-9.707-38.106-1.468.156-2.259 1-2.784 2.322-4.55 11.464-9.95 22.532-15.42 33.565-.997 2.011-1.088 3.963-.3 6.097 6.363 18.93 3.297 39.468-5.61 56.944-8.444 15.98 1.307 34.925-5.74 51.937-5.224 16.736-10.773 33.331-17.569 49.487-4.346 9.28.766 28.05-6.189 34.716-2.66 2.05-4.922 1.448-6.018-1.75-3.292-20.824 1.565-42.366 9.127-61.776 1.213-3.205 2.753-6.236 4.75-9.006 8.013-11.705 7.686-26.584 2.968-39.434-8.973 3.55-12.18 13.496-16.23 21.49-1.013 2.555-2.47 6.045-5.696 5.675-1.239-.317-1.128-1.425-1.157-2.362.04-10.85 5.481-21.097 10.17-30.637 4.09-5.5 8.588-10.937 4.45-17.889-8.145-14.48-10.334-31.839-3.313-47.129 3.058-8.534 11.043-14.317 14.87-22.592 1.767-2.983 1.895-5.85-.712-8.885-10.92-12.063-7.233-28.003-8.762-42.776-.614-15.93-.63-32.247.375-48.12 2.075-13.563-20.899-2.372-31.954-12.44-9.44-5.92 4.635-11.197 9.876-12.682 10.058-3.914 19.056-9.485 25.646-18.274 3.911-6.1 6.184-15.482 2.058-22.075-3.422-5.638-5.675-5.929-10.378-1.442-4.302 4.105-8.164 8.814-14.47 10.057-8.796 1.687-18.987 3.715-26.395-2.61-7.596-5.338-11.938-14.045-18.928-20.038-2.005-1.688-3.287-3.742-3.37-6.213.13-9.168-7.6-17.34-3.659-26.379 3.753-10.257 4.762-21.204 7.748-31.656 1.185-5.418-11.314-13.628-12.25-23.012-1.375-9.797-9.249-17.427-9.614-27.269-.114-13.858-2.51-28.25 4.992-40.896 3.508-5.976 6.764-12.014 8.034-19.129.956-7.748 8.962-14.757 5.615-22.947-9.544-28.772-16.395-58.456-23.45-87.905-9.429-59.278-15.203-119.827-7.873-179.614 9.384-116.973 54.352-232.567 125.564-325.239C540.05 291.361 632.204 221.861 735.058 179.1c32.694-12.879 66.372-24.328 100.808-31.2 128.135-25.57 264.135-16.933 385.351 37.398 4.586 1.96 5.296 1.625 7.655-2.646q13.856-25.098 27.707-50.199c2.366-4.289 4.858-5.333 8.576-3.387 5.08 2.66 6.741 6.368 4.445 10.556-9.112 16.804-18.08 33.691-27.047 50.574-1.789 3.431-1.633 3.586 1.76 5.645 24.947 15.144 50.294 29.597 75.441 44.4 78.778 46.374 139.83 122.336 187.641 199.426 16.64 26.83 30.246 55.491 42.412 84.64 1.421 3.467 3.137 5.496 7.228 5.867 30.22 2.455 48.34 30.316 62.065 54.604 7.437 13.386 6.254 29.028 6.278 43.808 1.418 11.19-11.062 20.378-2.916 30.92 17.88 25.692 26.908 64.695 3.944 90.068-5.179 5.341-10.534 10.51-15.656 15.905-6.496 6.842-6.474 7.195-2.123 15.542 16.8 26.85 21.45 61.061 10.75 91.122-7.524 18.555-19.274 35.702-35.002 48.168-8.189 5.845-17.236 10.043-26.175 14.448-3.636 2.198-4.516 5.42-3.62 9.614 3.957 17.32 25.335 20.176 40.112 22.484 5.716.57 11.153.126 16.681-.788 2.046-.339 4.055-.156 5.091 1.782 3.073 8.851-18.043 14.418-10.148 23.018 2.405 2.873 6.818 5.341 4.68 9.623-2.704 6.236-8.005 8.18-14.28 6.264-7.195-1.85-11.586-8.434-17.769-12.23-6.987-4.59-13.38-10.303-20.866-14.004-.825 1.591.266 2.606.901 3.607 1.648 2.597 3.274 5.236 5.208 7.612 9.025 9.926 16.34 24.86 30.49 27.713 10.847 1.828 4.176 21.132 8.926 29.16 4.923 12.74-8.723 16.005-7.657 27.494 2.537 9.912-1.458 20.16 2.018 29.778 5.555 14.576 4.1 30.926 4.1 46.241-.19 10.398 1.486 20.262 4.991 30.03 6.583 19.46 6.821 40.876 5.04 61.148-.79 6.141-10.69 4.653-8.662 11.661.73 27.822 12.436 57.95-.607 84.287-1.594 2.931-2.49 3.127-4.439.424-4.25-4.387-9.652-19.404-15.88-18.925-.542.474-.437 1.222-.237 1.83 3.355 9.993 7.8 19.58 11.748 29.343 4.71 27.665-2.19 56.38-5.746 83.976-1.373 9.463-2.915 18.901-4.28 28.365-.164 14.024 8.714 1.963 2.595 29.088-1.573 6.503-9.839 6.29-10.309 14.401-2.175 11.364-12.666 33.824-15.683 8.116-.319-6.766-6.163-33.527-15.804-30.354-5.385 3.571 3.408 26.522 2.484 35.851.51 22.206 2.713 45.15-.837 67.001-4.193 10.324-3.855 21.477-6.749 31.99-5.307-1.886-3.628-8.299-7.386-11.584-.906 1.873-.784 3.692-.5 5.275 1.291 7.23-.76 14.177-1.598 21.211-2.11 9.694-.957 21.113-6.115 29.704-5.177 7.703-13.44 13.67-15.86 22.94-1.86 6.693-3.397 13.555-5.45 20.17-5.159 7.21-15.416 39.836-24.638 37.14-3.723-1.112-4.652-.576-5.204 3.203-2.568 11.446-8.567 21.69-13.45 32.232-4.544 8.211-22.167 21.06-17.819 1.734.784-4.145 5.845-14.319.562-16.514-1.675-.428-2.86.273-3.574 1.732-7.498 19.642-20.535 36.02-39.577 45.135-10.416 6.136-18.535 15.794-30.589 19.045-13.107 2.531-18.493 10.915-28.265 18.495-11.57 7.247-6.117-12.584-8.26-18.275-2.945-11.477-10.71-21.14-12.647-33.017-3.715-13.667-1.236-27.642-.347-41.56.807-11.85 4.235-22.818 9.644-33.332.654-1.804.648-3.687-1.066-4.842-6.243-6.027-.353-18.803-.313-26.63 1.933-12.832 2.77-25.725 4.951-38.536.47-6.375.631-12.712 4.356-18.18 2.983-5.042 4.905-10.328 6.018-16.248 3.882-16.608 7.335-37.416 22.581-47.42 3.633-1.846 6.875-4.43 9.167-7.774 6.525-9.325 17.545-12.862 26.444-19.15 9.38-6.552 17.007-14.836 22.573-24.95 2.256-2.8-.365-6.72-3.887-5.428-10.388 1.782-19.198 6.136-25.269 15.287-4.305 4.518-12.199 21.962-19.407 18.416-1.588-1.125-2.034-2.873-1.165-4.292 3.491-5.703 3.026-12.057 3.758-18.315 2.042-10.532 8.054-20.239 11.73-30.329.297-.707.904-1.54.101-2.21-1.914-1.33-3.329 1.511-4.453 2.674-3.286 5.515-9.624 9.252-11.107 15.668-1.763 9.285-9.635 15.065-13.408 23.412-1.556 3.397-3.898 5.538-7.935 4.828-3.323-.585-5.215 1.116-6.113 4.122-2.548 8.528-6.82 16.005-12.847 22.536-12.369 14.828-10.295 39.635-26.982 51.202-15.507 8.596-1.89 26.546-15.486 38.17-10.263 11.164-4.729 31.262-19.824 39.046-9.204 3.531-1.768-24.523-2.254-29.366 1.685-6.726-5.436-10.78-4.722-17.38-.08-10.248-1.472-21.788-10.463-27.943-15.019-5.226-3.09 28.977-4.849 36.498 1.207 23.001.576 46.245-14.839 64.704-4.688 5.081-19.7 30.501-16.808 8.993 2.648-11.49 6.45-50.585-2.26-58.533"/></g></svg>