<svg xmlns="http://www.w3.org/2000/svg" width="1984.25" height="1984.25" viewBox="0 0 1984.25 1984.25"><defs><clipPath id="clip_1"><path d="M0-.002h1984.252V1984.25H0Z"/></clipPath></defs><g clip-path="url(#clip_1)"><path d="M1265.47 693.624c42.14-4.304 75.694 5.346 107.179 23.653-37.162 5.655-71.793 1.262-107.178-23.653m98.292 118.117c-25.617 2.015-2.53 16.038-6.918 25.092-47.355-6.922-70.918-29.349-70.437-72.996 19.602 26.526 41.543 38.87 70.552 30.124 4.497-1.35 8.994 1.076 10.662 6.059 1.594 4.75.095 11.405-3.86 11.721m-13.523-36.526c.699 8.465-10.011 7.115-17.173 5.456-24.357-5.654-41.442-19.849-50.584-43.544-3.731-9.671-1.405-15.778 10.22-17.163 20.24 5.36 40.438 12.618 57.964 25.504 12.209 8.979-1.268 19.534-.427 29.747m-17.268 87.219c-.875 4.187-2.463 10.555-5.277 11.569-9.028 3.263-11.775-6.347-15.593-11.275-11.395-14.681-29.043-25.812-32.95-51.693-.427-2.817 3.297-4.223 4.796-1.81 11.408 18.349 23.46 28.588 40.83 32.701 8.865 2.097 9.97 12.009 8.194 20.508m-36.782 80.117c-.414.898-1.743.658-1.811-.329-.644-9.157-2.706-32.735-7.603-47.218-.76-2.241 1.933-4.037 3.675-2.454 24.377 22.112 17.927 23.592 5.739 50.001m-25.32-117.191c.367-.898 1.628-.925 2.049-.049 6.118 12.838 12.229 25.669 18.347 38.5.562 1.193-.726 2.413-1.865 1.762-14.793-8.465-27.687-18.006-18.531-40.213m1.405 82.242c-11.05-13.64-17.492-28.65-16.074-48.253.087-1.22 1.545-1.809 2.434-.973 15.166 14.208 15.634 31.474 16.184 48.267.047 1.384-1.676 2.028-2.544.959m-29.456-205.232c30.025 27.094 36.869 57.848 12.092 97.924-10.132-34.784-1.526-67.753-12.092-97.924m-.882 189.159c-16.082 64.661-29.403 131.071-51.961 194.094-12.283 34.332-38.457 61.297-65.228 86.238-25.584 23.832-53.304 44.785-86.946 68.932-1.451 1.049-3.33-.582-2.522-2.193 8.62-17.183 17.647-27.246 28.737-34.298 46.155-29.369 74.724-75.93 111.484-114.443 10.812-11.33 13.363-23.88-2.285-34.051-5.76-3.743-11.15-12.296-18.49-8.005-7.785 4.55-1.878 13.249-1.084 19.87 3.33 27.683-3.555 36.512-36.45 45.113-20.673 5.408-44.69-5.942-51.411-24.503-4.171-11.515-.32-21.797 6.85-30.405 7.644-9.178 14.216-1.056 21.094 2.686 9.074 4.936 19.987 16.581 28.608 5.951 9.122-11.248 1.269-23.757-8.688-33.305-4.788-4.585-12.677-6.875-13.58-16.203 12.427-3.42 22.404 17.429 32.219 3.818 2.013-2.79 6.266-24.27-13.905-28.335 20.592-3.489 35.73-11.906 46.467-29.665-11.164-5.168-22.246-10.294-33.614-15.558 10.093-10.062 23.176-11.056 38.097-19.007-33.342-20.137-65.784-26.169-100.626-18.273-14.894 3.372-29.347 8.808-43.87 13.701-21.716 7.307-39.297 3.681-50.142-20.404-6.837 7.252-1.384 16.786-9.183 18.958-8.1 2.262-11.03-5.545-12.894-10.993-3.9-11.372-24.668-12.564-17.601-31.166 1.065-2.811-9.271-1.351-14.277-1.056-20.89 1.213-26.805-13.646-27.883-29.554-1.078-15.895 6.518-26.862 25.15-21.235 6.864 2.071 14.575 3.777 19.893 8.143 31.11 25.559 66.896 20.932 102.254 21.899 5.025.137 8.959-4.435 7.962-9.418-.04-.219-.075-.342-.102-.349-96.59-14.894-82.17-23.366-124.398-32.029-8.52-1.741-15.241-3.517-13.375-12.502 2.048-9.843 8.417-16.621 19.106-15.511 19.914 2.063 39.176 7.142 56.05 18.465 14.909 10.007 30.787 14.962 48.618 12.844 14.888-1.768 28.622 2.392 41.978 8.212 5.276 2.296 10.485 4.551 16.583 4.468 5.88-.088 6.922-7.899 1.533-10.288-48.407-21.453-96.564-28.307-144.794-45.374-4.827-1.708-2.301-9.422 2.693-8.327 40.79 8.945 80.807 15.113 119.46 11.987 5.592-.452 8.05-6.936 3.399-10.096-10.82-7.347-21.413-8.876-39.563-6.271-20.314 2.906-39.285 2.879-56.77-9.993-7.481-5.511-16.671-6.827-25.91-5.278-10.363 1.741-20.462 1.974-25.53-9.349-3.526-7.875-3.186-16.868 3.86-22.66 9.496-7.813 18.266.748 26.574 5.086 40.344 21.056 88.174 29.473 128.97 21.68 2.46-.471 4.89-1.097 7.326-1.748 2.909-.775 4.686-3.811 3.845-6.731-.068-.253-.13-.391-.176-.391-49.947 4.305-94.711-16.415-140.934-29.842-15.607-4.531-32.801-8.63-30.786-31.111 2.143-24.01 6.287-47.835 29.863-60.371 13.199-7.018 19.459 5.038 24.899 14.421 18.747 32.338 43.497 57.417 78.019 73.003 20.402 9.212 40.336 11.755 63.173 6.834 3.113-.672 2.883-5.257-.285-5.614-11.727-1.33-23.698 1.131-36.843-8.273 26.493-3.612 47.973-9.856 68.985-8.547 23.02 1.439 26.052 24.771 35.277 45.689 1.044 2.372 4.489 1.947 4.99-.596 2.904-14.86-.921-24.907-6.13-34.277-9.082-16.347.767-17.204 12.194-15.531 15.472 2.268 27.206 9.924 29.762 27.067 9.144 61.241 26.737 125.758 12.264 183.97m-39.733 349.298c2.252 3.324 4.389 9.384 2.883 12.098-3.106 5.634-9.224 2.659-14.447 1.679-32.753-6.121-37.365-16.634-19.351-62.55 1.113-2.838 5.087-2.866 6.234-.034 7.664 18.889 14.969 34.475 24.68 48.807m2.979 63.97c-19.215 24.805-31.94 52.715-41.713 83.146-.624 1.948-3.235 2.256-4.28.501-9.074-15.319-11.842-30.932-8.294-47.883 2.034-9.747 3.506-19.753 3.892-29.699 1.75-45.737 2.042-45.606 42.88-28.224 12.887 5.49 15.464 11.898 7.515 22.159m-62.434-69.617c4.789 18.129-5.73 23.811-20.327 21.864-14.78-1.974-29.198-6.765-43.747-10.534a3.7 3.7 0 0 1-2.726-3.002c0-.021-.007-.042-.007-.063a3.72 3.72 0 0 1 2.55-4.146c9.977-3.098 19.96-6.203 30.053-9.342 2.686-9.26-20.91-10.281-7.528-22.612 8.553-7.875 19.77-10.082 29.897-4.798 6.83 3.564 21.99 6.313 9.4 20.549-3.912 4.427 1.378 8.053 2.435 12.084m-37.032 269.496c-28.053-16.094-42.717-34.531-54.287-55.519-6.654-12.069-8.465-26.011-4.755-39.568 3.052-11.152 6.206-25.847 19.459-26.34 14.955-.563 12.935 15.606 13.89 25.086 3.12 30.877 17.81 58.335 28.982 93.647.63 1.988-1.492 3.722-3.29 2.694m-125.388-289.503c-1.851.15-2.59-2.372-.956-3.263 16.298-8.869 32.556-12.906 50.74-19.616 6.159-2.276 13.735-.048 15.01 7.607 1.376 8.233-5.942 10.295-12.181 10.906-17.52 1.7-35.067 2.988-52.613 4.366m10.615 45.751c-8.865 14.592-21.304 25.867-38.776 24.921-15.688-.85-32.454-3.242-35.744-25.003-1.505-9.959-14.46-13.256-17.512-24.572-.4-1.481.454-3.016 1.926-3.407 29.904-8.094 57.807 6.134 86.403 8.465 10.737.877 8.234 12.139 3.703 19.596m-23.542 47.731c-9.753 17.424-24.546 27.438-40.044 35.669-37.21 19.781-76.155 36.237-111.2 60.138-4.26 2.906-9.258 7.389-14.42 2.598-5.527-5.134.095-9.898 2.252-14.339 8.268-17.053 21.467-31.234 38.939-35.443 40.729-9.807 76.656-30.034 113.845-47.738 2.848-1.357 5.975-2.104 9.075-2.913 1.18-.309 2.15.966 1.553 2.028m-124.04 140.756c-16.257 2.982-27.292 5.312-38.443 6.539-7.291.795-15.335-1.262-13.3-11.473 1.458-7.314 6.66-13.73 15.125-11.46 10.845 2.898 21.372 7.011 36.924 12.549 1.913.679 1.689 3.482-.305 3.845m-48.814-246.631c-2.34-3.365-5.372-8.54-.054-11.748 3.839-2.309 10.96-2.289 11.822 2.112 3.438 17.642 27.075 27.882 17.363 51.645-13.681-11.988-19.615-28.355-29.131-42.009m-8.573-117.582c-7.19-62.447-21.725-122.695-55.257-180.249l-8.465 16.629c-1.974-1.803-3.886-2.701-3.954-3.736-1.594-22.872.19-45.436 9.434-66.615 3.066-7.025 4.897-23.078 15.098-15.565 8.974 6.613 30.325 15.483 18.184 32.646-10.703 15.12-5.806 20.034 5.589 29.623 9.902 8.328 31.505 10.85 22.342 33.016 17.214 3.934 34.034 11.803 52.279 5.483 8.533-2.954 17.01-6.223 26.276-4.633 6.735 1.151 12.94 5.38 13.91 11.426 1.5 9.403-7.25 7.704-13.062 8.931-6.267 1.323-24.207-.165-2.367 9.616 3.194 1.432-5.21 5.257-8.614 6.134-11.652 3.009-23.447 5.422-38.77 8.719-2.441.521-2.542 3.989-.148 4.688 19.289 5.586 35.384-6.052 53.154-1.021-22.952 37.759-40.695 76.148-67.744 108.85-3.364 4.078-6.26 9.677-12.784 7.559-5.298-1.713-4.6-7.162-5.101-11.501m-8.933 94.313c-21.005-15.011-28.635-35.669-32.413-57.842-2.578-15.141-2.612-30.72-3.677-46.114-.434-6.32-1.458-14.195 6.193-15.936 8.09-1.837 16.902 6.224 15.864 11.316-7.562 37.232 23.278 69.021 14.033 108.576m-67.29 110.906c-17.505 6.635-36.096 10.384-54.287 15.093-4.103 1.062-9.38 2.591-12.317-1.796-2.87-4.278-.02-8.753 2.38-12.536 10.785-17.026 24.343-32.173 41.022-42.592 28.832-18.013 36.388-42.303 29.327-74.312-2.55-11.563-5.737-24.023 1.106-36.772 10.14 31.755 25.658 61.009 36.28 92.092 6.993 20.466-14.8 49.925-43.51 60.823m8.288-290.613c.034 6.264-.34 12.33-8.756 17.683-6.037-13.784-1.08-23.948 1.709-34.106 2.19-7.965 1.072-21.083 14.372-17.882 10.744 2.583 23.488 6.895 24.363 21.439.685 11.481 3.866 23.29-3.052 39.719-3.656-12.398-5.657-21.364-8.994-29.801-2.3-5.798-6.552-13.119-12.82-12.488-7.663.767-6.856 9.122-6.822 15.436m1.666-208.393c-2.83 12.937 2.117 27.431-5.784 40.068-.921 1.472-3.102 1.308-3.786-.29-8.324-19.44-7.414-24.514 7.872-40.691.698-.739 1.917-.084 1.698.913m51.885-246.439c-9.822 21.322-29.432 31.059-46.82 36.971-1.684.573-3.204-1.215-2.398-2.814 10.09-20.012 25.598-32.632 46.578-37.484 1.908-.441 3.467 1.533 2.64 3.327m56.95-57.681c-18.377-13.112-36.96-20.329-59.926-23.77-1.814-.272-2.068-2.814-.341-3.436 32.674-11.774 46.87-5.906 62.667 25.102.784 1.539-1.001 3.103-2.4 2.104m23.976-42.978c13.833 12.463 14.39 28.195 9.575 48.749-.471 2.01-3.075 2.52-4.262.839-15.408-21.83-28.575-41.117-52.151-53.403-1.926-1.004-1.74-3.834.306-4.559 19.326-6.844 34.008-2.912 46.532 8.374m-4.583-47.372 25.986 49.895c.494.949-.67 1.886-1.475 1.189-14.351-12.421-31.521-24.057-27.831-50.498.239-1.718 2.52-2.121 3.32-.586m-17.38 317.506c3.393-13.297 16.422.487 25.11-1.35 5.189-1.097 10.58-1.324 15.66-2.735 7.557-2.098 16.944-7.937 18.253 5.613 1.079 11.159-2.313 21.762-17.31 24.031-5.941-2.303-12.628-4.73-19.18-7.478-9.462-3.976-25.882-4.956-22.532-18.081m5.989 35.004c9.109-4.14 23.665-1.501 33.56 3.084 10.093 4.681 3.717 11.152-4.042 14.791-18.32 8.602-16.482 22.2-11.72 39.891-8.831-8.664-21.942-15.977-25.163-26.416-2.673-8.622-3.161-26.566 7.365-31.35M825.21 872.845c12.018-8.527 15.606 3.742 20.632 12.529 10.194 17.821 25.347 1.83 40.078 3.886-15.43 24.065-33.323 13.427-50.306 8.677-3.04-.849-5.67-2.727-7.501-5.325-4.517-6.436-13.382-12.33-2.903-19.767m-54.104-153.518q-.469-4.48-.815-8.948c-.338-4.349 1.919-8.501 5.738-10.536 6.14-3.272 12.135-7.365 17.945-12.264 1.633-1.376 4.05.209 3.486 2.28a267 267 0 0 0-3.091 12.456c-1.546 6.977-4.978 13.619-8.186 20.076-1.872 3.776-3.86 8.794-9.563 7.731-5.996-1.124-5.074-6.553-5.514-10.795m6.47 156.177c5.297-5.497 14.026-4.715 19.446 1.611 6.246 7.293 12.805 13.742 21.066 17.362 6.762 2.96 10.188 10.76 7.284 17.607-1.356 3.215-3.716 5.71-8.464 6.498-9.38 1.563-13.063-8.074-18.557-13.811-4.361-4.551-9.353-8.485-13.79-12.975-4.475-4.523-15.198-7.758-6.985-16.292m113.295 332.814c-11.57-6.744-22.66-14.298-32.434-26.752 15.105 1.81 27.334 3.249 39.55 4.75 5.676.7 13.375-3.145 15.878 5.224 1.654 5.552-2.32 10.273-5.942 14.331-4.945 5.538-11.232 5.847-17.052 2.447m-39.243-47.814c19.683-1.068 37.75 5.217 61.735 12.879.773.247.637 1.398-.177 1.453-26.1 1.652-44.778-2.44-61.816-13.311-.441-.288-.265-.994.258-1.021m22.66 134.615c10.975 4.928 21.474 10.925 36.687 18.992 1.892 1.001 1.709 3.79-.292 4.537-23.657 8.767-42.458 15.526-61.063 22.797-14.603 5.71-20.687-1.131-20.944-14.626-.285-14.51.25-30.309 12.039-40.207 13.13-11.02 22.89 3.709 33.573 8.507m55.766-159.933c2.666.665 3.866 3.844 2.306 6.126-8.708 12.743-19.452 18.006-33.065 12.084-19.16-8.334-38.253-8.889-57.984-5.325-12.025 2.18-22.3-1.385-34.706-8.876-1.6-.973-1.2-3.427.624-3.832 10.968-2.426 20.517-3.982 9.726-18.951-10.88-15.086.794-18.623 12.324-20.878 10.317-2.008 19.48 2.324 28.297 6.916 23.108 12.023 45.34 25.915 72.478 32.736m133.644 39.931c-39.577 1.31-74.046 30.487-115.162 23.448-.55-.089-.481-.912.082-.919 39.719-.322 75.022-24.64 115.08-23.091.366.014.366.555 0 .562m-17.113-96.999c-15.424-.479-28.554-8.013-29.423-25.106-.42-8.39-.142-20.09 12.67-25.395 10.628 9.452 27.97 12.831 29.776 30.803.854 8.554-.95 20.068-13.023 19.698m1.43-147.096c6.28-6.463 8.669-.164 11.497 4.305 7.217 11.419 17.736 15.058 29.925 10.541 9.278-3.44 21.48-4.852 22.403 4.517 1.166 11.803-13.402 6.56-19.555 9.157-17.105 1.2-31.416-2.179-42.593-14.27-3.826-4.14-6.431-9.356-1.676-14.25m46.752 114.745c-38.213-16.388-69.36-29.678-91.13-63.113 46.854-2.405 66.74 26.923 91.13 63.113m-120.281-19.24c-.957-7.827-7.603-10.849-12.63-14.983-6.768-5.559-17.16-9.246-14.914-20.542 2.21-11.13 15.105-1.411 20.198-9.061-3.412-10.986-15.776-9.41-23.705-15.524 16.834-4.962 51.168 19.973 54.735 34.654 4.362 17.917-2.957 31.515-10.085 45.813-4.938 9.911-8.947 19.061 6.056 23.221 8.39 2.331 12.52 6.608 9.245 15.84-.705 1.989 1.336 6.58 2.699 4.332 6.444-10.59 13.002-10.624 21.582-2.995 17.472 15.531 35.799 30.172 52.382 46.608 5.317 5.271 6.782 15.662 2.74 23.296-4.483 8.479-12.344 4.428-19.242 2.434-13.844-4.003-25.766-.075-38.6 6.374-14.595 7.334-29.653 16.855-46.392 13.599-3.276-.631-3.473-5.223-.278-6.183 19.032-5.695 32.047-27.642 53.372-27.025 1.078.027 1.302-1.501.264-1.789-12.35-3.413-28.63-1.288-41.115 9.643-13.77 12.057-30.495 14.765-49.282 5.47 9.509-18.259 41.04-14.846 40.01-42.255-8.024-4.559-15.518.28-23.04 1.288-33.303 4.489-42.941-3.851-35.46-36.669 2.578-11.316 3.073-22.721 5.644-33.9 6.158-26.793 21.175-34.291 43.042-19.891 1.28.85 2.964-.213 2.774-1.755m-77.877 72.729c-12.663.473-32.17-7.691-31.92-23.338.265-16.176 11.64-39.384 25.93-40.206 18.13-1.049 7.258 23.783 15.22 35.394-5.84 9.569 10.886 27.403-9.23 28.15m5.643-585.34c9.434-5.305 19.608 5.737 25.19 15.018 11.463 19.061 13.138 41.419 17.987 62.537 2.598 11.322-9.387 16.957-16.434 22.721-21.867 17.903-34.625 39.055-30.216 68.417 1.39 9.253 1.594 15.052-11.876 13.469-18.747-2.201-34.191 11.309-55.298-3.921-22.62-16.326 6.178-33.681 7.013-52.214 1.194-26.485 9.679-52.475 7.264-79.466-.115-1.296-1.926-1.447-2.26-.192-7.39 28.12-19.014 54.699-29.626 81.609-3.551 9.006-8.585 17.359-14.994 24.573l-.123.138c-7.117 7.988-14.481 14.453-22.068 19.39-3.283 2.135-7.586-.27-7.566-4.216.233-45.519 9.384-89.893 25.029-132.865 13.53-37.157 39.902-47.629 77.782-37.41 9.672 2.604 17.655 9.472 30.196 2.412m41.197-106.827c-1.181-3.784.04-9.295 2.02-12.968 13.322-24.682 81.887-35.107 101.088-14.915 13.877 14.585 30.358 25.511 46.019 37.664 30.115 23.379 29.7 52.632-.922 76.203-19.038 14.661-44.948 20.864-86.375 20.014 9.495-14.722 22.307-24.51 29.117-38.485 1.092-2.242-1.75-4.298-3.487-2.523-3.791 3.886-7.636 7.704-11.991 10.768-7.59 5.339-10.615 17.697-27.225 6.792-12.894-8.465-28.622 13.434-52.144 21.844 19.818-37.91 14.277-71.159 3.9-104.394m210.42 38.129c15.417 1.426 31.79 5.052 34.056 24.647 2.53 21.899-13.083 27.403-32.034 30.597-12.527-2.275-30.847 2.488-35.771-17.389-2.984-12.043 21.514-38.986 33.75-37.855m66.327 5.387c-23.068-2.063-41.408-14.037-57.815-30.165 24.668-.582 38.898 19.24 57.815 30.165m40.62 67.787c-2.462 11.042-3.846 17.149-16.407 11.536-6.47-2.893-13.708-3.983-20.442-6.333-26.141-9.123-26.351-10.782-7.936-30.405 5.148-5.49 8.512-12.687 13.633-20.535 9.848 16.203 37.419 17.588 31.152 45.737m44.229-61.817c-20.45 16.107-28.304 16.039-59.836 4.819 34.584 2.275 36.592 5.318 59.836-4.819M1214.2 575.768c-26.994-6.806-51.641-24.147-81.803-16.758 52.259-18.657 101.826-13.75 149.154 15.407-22.471 5.765-45.287 6.91-67.351 1.351m-12.384 46.71c3.859-8.019 9.57-6.696 13.796 1.077 7.5 13.797 3.343 24.894-8.411 33.146-14.36 10.075-31.016 13.571-49.16 13.139 17.615-13.735 34.035-27.08 43.775-47.362m-24.831-.87c-8.682 29.171-28.208 43.908-64.42 49.651 21.595-14.51 43.462-28.65 64.42-49.651m-48.061-18.253c15.024-13.824 34.489 5.224 52.57-.849-37.48 23.489-62.71 72.187-119.833 54.099 23.862-16.484 46.163-33.838 67.263-53.25m-44.175-13.146c7.149-8.087 18.144-18.869 27.192-9.938 8.89 8.767-4.647 17.156-10.724 23.935-19.696 21.994-43.706 33.228-74.67 26.175 27.308-2.405 42.128-21.987 58.202-40.172m-108.744-18.348c-12.61 3.68-10.472-5.566-5.908-12.605 10.473-16.141 24.824-27.265 44.5-26.169 21.447 1.186 40.432-5.38 59.93-12.858 32.666-12.522 65.69-18.533 97.419 7.54-51.385-17.403-89.516 20.075-133.06 33.263-21.054 6.381-42.282 4.811-62.881 10.829m100.198-6.744c-14.67 47.786-40.288 59.445-85.195 38.924 38.016 4.023 63.105-6.888 85.195-38.924m191.444 56.793c19.385-.055 34.19 2.117 47.458 10.733 5.724 3.722 9.197 8.835 7.107 16.086-1.886 6.512-8.166 8.555-12.852 7.225-11.653-3.304-37.82 12.564-28.928-20.864.624-2.351-6.375-6.772-12.785-13.18m95.498 39.993c-24.33-15.422-39.962-40.501-67.554-48.938 41.103 3.372 60.195 17.382 67.554 48.938m-1.133-139.398c4.66-2.365 10.54-6.107 14.413-.528 4.647 6.696-1.078 12.824-5.751 15.922-21.501 14.249-39.827 5.572-57.15-10.363 17.553 8.471 33.105 2.762 48.488-5.031M695.406 861.913c-10.351-17.986-11.083-49.933-1.296-73.641 1.167-3.393 2.842-6.778 5.175-10.137-1.967 3.139-3.696 6.539-5.175 10.137-8.35 24.27 9.272 49.391 1.296 73.641m721.899-124.334c-6.18-6.203-12.596-11.652-14.054-18.231-10.94-49.151-53.23-90.201-35.04-147.672 3.847-12.145 3.21-22.331 15.913-29.582 12.359-7.053 23.489-24.668 16.007-33.743-10.627-12.873-5.764-32.651-19.925-42.127a4.83 4.83 0 0 0-6.054.542c-4.35 4.199-5.116 10.828-8.693 15.526-12.08 15.846-36.416 19.034-53.195 7.999-10.643-6.999-14.475-12.406-1.255-21.118 19.744-13.002 25.902-34.044 29.3-56.094.65-4.215 2.205-9.65-2.753-12.283-5.128-2.727-10.602-1.075-15.37 1.728-6.776 3.989-8.512 11.46-11.395 18.067-13.463 30.96-27.537 36.814-59.482 24.154-27.11-10.74-50.177-28.547-74.506-44.147-27.05-17.355-55.027-31.611-88.75-23.928-8.613 1.967-15.837-.014-21.704-7.155-25.631-31.173-57.021-30.467-90.67-16.334-21.526 9.047-42.946 11.296-65.681 3.297-17.743-6.251-35.54-5.202-50.604 8.677-3.778 3.475-6.64 7.321-13.708 4.394-23.365-9.685-38.558 1.096-33.926 26.731 3.656 20.206-4.992 26.059-20.666 30.514-62.942 17.869-82.49 44.806-82.103 112.414.197 35.491-15.342 56.005-48.95 64.052-15.56 3.721-35.73 10.843-32.867 26.21 2.848 15.291-6.532 28.663-1.35 43.256 9.882-4.757 4.97-18.342 15.552-21.892-.923 13.941 11.632 27.759-1.628 41.413-13.571 13.975-15.986 32.056-16.373 50.562-.02.822 2.11 1.7 2.55 2.036 9.767-1.138 3.622-16.642 13.104-16.039 5.29 40.693 34.632 81.975-2.49 120.461 7.95 7.286 14.238-11.625 20.824-2.193 5.622 8.053-2.89 15.071-6.54 21.94-3.892 7.326-8.172 14.448-13.47 23.358-1.552 2.611 1.649 5.504 4.003 3.592 16.976-13.77 22.803-33.003 35.499-47.636 9.306 30.494 7.855 56.162-13.66 78.15-3.811 3.893-13.273 5.634-8.281 14.346 3.5 6.12 11.76-5.278 16.136 4.105-11.056 10.412-22.118 20.83-34.381 32.386-1.913 1.796-.366 4.976 2.218 4.592 10.574-1.576 16.909-9.472 25.59-10.672 4.775 5.71-8.376 8.842-1.268 15.477 10.784-8.403 21.31-16.594 36.619-28.513-4.951 20.686-20.43 27.793-28.372 43.633-.752 1.494.875 3.057 2.3 2.2 7.189-4.318 12.622-7.588 18.679-11.227.305 14.976.285 28.321.963 41.625.346 6.69 1.2 14.086-6.844 15.49-38.504 6.752-67.275 34.586-102.551 47.451-14.447 5.271-20.782 11.255-22.383 25.559-5.168 46.245-10.492 92.475-5.745 139.09.563 5.559-.488 11.954 2.144 17.698 1.627 3.543 6.918 2.419 7.128-1.481 2.075-38.157 3.222-75.039 11.97-111.215 8.507 35.245 7.218 71.366 10.88 107.356.367 3.619 5.535 3.674 5.99.061 4.4-34.92-1.71-74.003 44.859-85.394-2.204-15.272-27.503-13.928-18.068-28.185 19.669-29.718 41.04-58.869 68.103-83.729 6.335 9.281 2.516 15.367 1.343 21.33-15.05 76.354-36.144 150.249-77.721 217.24-13.667 22.016-23.454 46.581-19.14 77.226.86 6.155 8.634 8.183 12.432 3.297 38.633-49.747 92.778-68.171 145.207-88.871 39.644-15.648 53.216-5.285 45.606 37.423-5.711 32.03-17.648 63.003-27.788 94.121-10.242 31.46-10.418 32.653 23.569 30.631 42.337-2.508 84.619-6.278 126.8-10.672 15.749-1.638 21.094 1.631 18.272 18.698-2.055 12.433-7.657 24.572-7.095 42.235.109 3.365 4.409 4.627 6.28 1.851 24.058-35.779 45.926-68.281 69.08-102.723 4.342-6.449 14.02-5.552 17.127 1.598 14.833 34.16 28.914 66.573 42.852 98.657 2.007 4.64-4.232 8.328-7.237 4.284-9.733-13.085-16.204-28.136-23.597-42.783-2.123-4.195-8.423-1.653-7.114 2.872 14.48 50.11 33.519 100.103 9.272 149.652-2.26 4.619 3.6 8.917 7.216 5.284 47.112-47.299 79.26-104.203 109.816-161.235 15.43-28.809 25.753-61.742 39.52-92.339 2.328-5.161 4.655-12.241 9.619-12.008 38.593 1.782 38.078-33.174 49.39-55.032 11.91-23.036 5.379-46.053-13.191-64.62-4.477-4.476-10.574-7.45-14.19-12.686-39.114-56.698-42.078-76.801-17.41-131.408 28.486-63.057 48.156-165.183 63.735-176.527 14.122 20.665 8.2 41.598 4.626 66.43-.333 2.297 2.842 3.255 3.79 1.138 4.294-9.569 7.686-18.842 10.108-27.999.264-.994 1.675-.939 1.858.069 1.919 10.336 7.21 20.706 16.346 29.034 1.147 1.041 2.897-.227 2.292-1.659-2.51-5.915-4.341-9.713-5.168-13.729-3.561-17.3 13.856-55.271 27.042-55.874 21.31-.967 27.3-16.238 25.299-31.084-3.791-28.136 8.573-51.55 15.979-76.375 4.647-15.559 10.513-29.39 7.733-47.122-3.1-19.781 14.128-35.052 33.939-33.674 2.273.157 3.54-2.584 1.927-4.202"/></g></svg>