<svg xmlns="http://www.w3.org/2000/svg" width="2048" height="1920" viewBox="0 0 2048 1920"><defs><clipPath id="clip_1"><path d="M0 0h2048v1920H0Z"/></clipPath></defs><g clip-path="url(#clip_1)"><path fill="#231f20" d="M1303.114 1457.864c12.399-15.101 18-32.52 21.8-50.46 5.74-27.1 21.62-47.04 42.34-64.02 12.04-9.88 25.179-18.52 36.839-33.76-1.72 9.38-5.26 14.34-8.52 19.24-12.38 18.68-23.48 38.08-34.28 57.72-7.24 13.2-8.42 28.56-16.12 41.54-9.64 16.2-24.34 24.92-42.06 29.74m175-265.498c-1.24 34.099-6.6 67.679-19.38 99.679-2.5 6.28-6.7 10.54-12.5 13.66-7.9 4.259-15.24 9.36-21.84 15.5-3.72 3.44-5.16 7.339-3.5 12.059 1.82 5.16 6.62 4.24 10.48 4.22 13.68-.04 10.189.016 5.03 12.856-21.56 53.479-45.12 105.66-87.86 146.579-30.2 28.92-59.12 59.18-88.58 88.88-11.12 11.179-23.5 19.559-38.42 25.939-44.8 19.16-84.35 40.545-128.63 60.964-3.6 1.66-6.88 4.5-13.56 3 48.94-89.898 108.8-170.32 178.04-243.778 1.1.68 2.2 1.36 3.28 2.04-8.14 14.34-16.4 28.62-24.38 43.04-2.92 5.28-10.7 11.039-6.42 16.24 3.86 4.679 12.078 2.26 17.937.36 20.2-6.481 40.34-13.201 60.54-19.7 19.08-6.14 38.018-24.388 51.457-38.628 3.92-4.14 7.16-9.46 6.9-15.04-1.06-23.36 11.426-36.02 21.727-54.82 6.08-11.1 13.88-21.22 20.84-31.82 5.179-7.86 8.05-16.645 8.65-26.245.262-4.48-1.32-12.453-7.638-14.713-5.26-1.86-9.158 2.29-11.94 5.53-10.02 11.639-17.424 18.445-29.504 27.945-8.38 6.62-16.42 13.7-26.6 22.24.4-8.321.64-14.42 1.02-20.481 2.36-37 6.718-66.378 14.758-102.637 1.64-7.42 3.114-16.79 8.634-22.39 3.779-3.82 6.82-8.38 10.76-13.3-6.56-1.5-10.3 1.48-14.02 3.48-14.1 7.62-32.916 17.444-45.515 27.385-2.58 2.04-6.46 4.66-4.46 7.979 1.859 3.08 6.04 1.14 9.219.18 3.8-1.16 7.62-2.24 13.68-4.02-17.8 26.2-24.324 51.996-38.864 77.436-4.24 7.42-8.901 14.58-13.26 21.939-1.86 3.1-2.74 7.46-7.68 6.54-5.36-1-3.581-6.04-4.14-9.2-7.1-40.76-6.1-79.958 16.94-116.858 16.199-25.92 29.44-53.7 43.98-80.68 1.78-3.28 3.299-6.88 6.66-8.82 5.139-2.96 15.38-1.38 7.32-13.62-2.38-3.62 5.62-15.48 10.68-22.18 3.44-4.52 9.96-1.2 14.66.66 29.439 11.66 59.819 10.18 90.439 7.62 4.96-.42 10.04-7.26 13.8-2.38 2.62 3.38 1.28 10.06 1.3 15.259.14 30.7 1.06 61.44-.04 92.1m.14 504.358h-.16c0 21.34-.28 42.679.16 63.979.14 7.46-2.14 9.46-9.54 9.4-39.9-.36-79.78-.1-119.68-.14-11.8-.02-11.94-.58-7.26-11.78 13.38-32.04 24.9-64.84 39.92-96.22 3.72-7.78 7.96-14.16 15.28-18.5 16.9-10 31.92-22 41.7-39.56 2.2-3.96 4.22-4.42 7.56-.9 8 8.46 16.88 15.7 28.36 19.18 5.52 1.68 3.5 6.88 3.54 10.58.24 21.32.12 42.64.12 63.96m-168.97 73.074c-44.34-.1-88.68-.06-133.02-.16-1.72 0-3.46-1.02-6.078-1.84 13.199-18.08 28.239-33.54 42.899-49.34 36.28-39.08 70.38-80.24 110-116.1 2.36-2.14 4.04-6.62 7.7-5.438 3.96 1.28 2.12 5.819 2.32 8.899.64 9.6 4.38 14.6 14.9 12.22 6.5-1.46 13.5-1.14 19.78-3.2 9.1-2.96 8.439 1.52 6.84 7.48-13.36 49.48-35.38 95.459-56.82 141.68-1.76 3.759-4.12 5.799-8.52 5.799m169.03-184.536c.279 8.44-2.84 8.68-9.06 5.18-4.94-2.8-9.22-6.02-12.48-10.86-2.44-3.64-5.58-7-8.96-9.84-5.74-4.84-10.16-5.44-14.48 2.92-8.821 16.98-23.321 28.18-40.54 37.06-1.96-6.84 1.6-11.22 3.5-15.84 3.46-8.38-.581-10.56-7.64-9.36-7.641 1.32-15.12 3.74-22.68 5.58-4.5 1.1-9.3 1.86-11.541-3.52-2.06-5-.84-9.48 3.88-12.74 29.06-20.1 60.66-34.94 94.82-43.56 14.72-3.72 25.36 6.34 25.3 21.34-.04 11.22-.5 22.44-.12 33.64m-338.46 183.022c-.9-4.86 2.26-7.96 4.02-11.44 30.08-59.28 74.22-107.346 122.082-153.165 35.32-33.8 69.96-68.32 105.559-101.82 36.98-34.8 58.82-78.5 75.62-125.36a1526 1526 0 0 0 14.84-43.518c3.18-9.761 7.239-18.994 15.14-28.635 2.62 19.96.84 37.52 1.04 55 .54 46.76.26 93.54.46 140.32.019 7.499-2.061 10.2-8.601 4.82-19.52-16.061-36.1-13.301-56.62 1.899-75.98 56.28-149.66 115-212.6 186.02-18.52 20.879-34.46 44.059-51.52 66.259-2.7 3.52-5.02 7.32-9.42 9.62m-53.28-68.84c-1.86-4.44 3.84-5.7 6.92-7.16 29.54-14.04 59.18-27.9 91.06-42.88-6 14.44-17.26 19.32-27.8 24.18-19.88 9.2-40.26 17.34-60.46 25.9-3.318 1.4-7.98 4.16-9.72-.04m-31.64-364.258c-1.38 26.1-5.36 51.98-9.538 77.8-1.161 7.1-4.241 12.28-9.241 17.199-39.68 39-82.98 74.14-121.06 114.84a1133 1133 0 0 0-31.44 35c-4.54 5.28-7.94 9.94-7.74 18.96.24 11.12-5.1 23.4-13.18 32.52-37.38 42.24-71.2 87.359-106.06 131.619-3.9 4.94-8.16 6.86-14.28 6.82-43.28-.181-86.58-.34-129.86.04-9.58.08-13.46-3-13.18-12.8.36-13.38-2-27 5.12-40.06 8.96 8.6 20 12.9 31.12 17.02 21.96 8.14 41.78 4.6 58.84-11.72 7.22-6.92 15.22-11.46 25.22-13.24 8.22-1.48 15.92-5.72 20.4-12.88 16.76-26.88 41.2-47.04 61.18-71.12 11.16-13.44 16.38-29.22 21.46-45.2 2.24-7.08 4.56-11.04 13.08-12.178 21.74-2.881 31.14-19.141 26.94-40.74-5.98-30.78-14.08-61.301-14.46-92.98-.02-1.86-.34-3.74-.6-5.58-4.16-31.9-11-38.98-43.02-38.4-55.16 1-110.32 2.96-165.44 5.32-13.2.58-25.06-1.24-36.3-7.96-3.52-2.12-7.06-4.58-10.92-5.6-19.36-5.1-24.94-17.74-22.36-36.7 1.48-11.04.58-22.44.22-33.66-.18-5.84 1.76-9.32 7.5-10.52 79.06-16.66 146.12-58.06 211.88-102.578 48.34-32.74 99.94-59.4 155.36-78.3 6.36-2.18 8.2 1.56 10.88 4.579 27.28 30.78 52.18 63.36 73.62 98.54.96 1.58 1.62 3.44 2.82 4.8 27.92 31.34 25.02 69.5 23.04 107.159M590.228 1699.88c-4.107-.213-10.182 2.486-11.954-3.837-1.245-4.395 10.825-19.97 14.973-20.01 6.19-.076 5.8 5.186 7.436 9.158-3.134 5.416.429 15.247-10.455 14.689m.307 24.322c-.88 5.84-.16 11.94-.16 17.94h-.58c0 5.22-.14 10.46.02 15.7.199 6.2 2.399 12.44-8.44 12.28-9.8-.16-12.12-3.88-11.56-12.72.619-9.32-.101-18.72.26-28.06.24-6.04 1.16-12.38 8.54-14.04 7.04-1.56 13.599-2.32 11.92 8.9m-19.27-198.123c2.59-1.523 4.77.693 6.62 2.35 28.678 25.62 63.274 42.815 93.937 65.58 6.055 4.493 8.683 6.787-.43 10.892-19.447 8.79-39.598 15.654-59.436 23.403-5.296 2.082-9.424 1.735-12.344-4.492-2.083-4.453-5.977-8.115-10.435-10.755-2.395-1.427-4.79-2.064-6.736.539-1.577 2.082-.643 4.048.856 5.82 1.169 1.37 2.317 2.758 3.466 4.146 7.827 9.349 7.69 9.793-4.166 13.957-12.694 4.453-12.713 4.453-12.713-9.35-.02-15.132 0-30.265 0-45.396h.038c0-16.58-.077-33.157.059-49.736.019-2.352-1.265-5.474 1.285-6.958m2.667-124.472c-3.368-2.988-5.568-6.747-3.426-10.332 2.764-4.645 6.54-.385 9.17 1.118 8.157 4.685 17.716 7.075 25.835 14.38-12.227 2.487-22.506 2.93-31.58-5.166m161.942 228.663c-6.678.714-12.947 1.137-15.322-7.711-1.227-4.51-5.88-7.21-9.928-9.542-7.555-4.337-6.134-8.038-.137-12.683 11.72-9.061 24.18-16.984 36.503-25.157 5.646-3.74 8.353-1.947 11.02 2.89 3.563 6.459 4.867 13.418 4.984 24.097-.04 15.133-9.598 26.294-27.12 28.106m-25.096 56.558c3.427-12.471 6.93-24.924 10.689-37.32.974-3.238 1.713-7.344 6.658-7.305 2.53.019 5.257-.174 6.93 2.139 1.636 2.256-.31 3.99-1.362 5.803-2.355 4.048-4.711 8.077-7.028 12.145-1.09 1.888-2.375 4.009-.331 5.84 2.726 2.429 5.043.096 6.406-1.716 5.762-7.75 11.194-15.73 16.743-23.614.895.502 1.77 1.003 2.647 1.504-7.378 18.987-17.911 35.932-34.595 48.675-2.025 1.54-5.53 3.219-8.002.693-2.201-2.216.642-4.587 1.245-6.844m-16.256-21.455c-7.223 3.644-20.87 6.729-31.091 6.63-6.152-2.273-18.476 3.009-18.631-12.24-.02-2.196-2.941-2.93-5.296-2.66-2.122.25-4.925 3.49-5.977-.866-.642-2.603 1.285-4.935 3.407-6.304 18.515-11.991 36.893-24.232 55.797-35.585 5.938-3.567 20.286 9.58 21.319 18.698 1.363 11.913-7.223 26.14-19.528 32.327m-71.78 26.14c3.017-2.14 4.769.52 6.015 2.564 4.848 7.884 10.552 14.612 19.859 17.484 3.485 1.079 7.942 3.142 9.929-.347 2.647-4.627-3.037-5.687-5.705-7.306-6.99-4.183-13.706-8.405-15.166-17.233-1.031-6.285-.117-11.065 8.274-9.041 20.052 4.8 39.326.944 59.866-6.246-2.842 11.836-7.028 20.993-12.42 29.475-13.571 21.32-46.26 27.353-66.37 11.816-4.185-3.238-6.385-9.388-8.683-14.554-1.421-3.257 2.18-5.012 4.4-6.612m-41.877-28.954c-3.66 1.022-9.19 3.278-10.67-3.22-.972-4.318-.525-8.596 5.024-10.39 32.24-10.351 64.072-21.782 96.39-32.924-28.25 19.219-57.317 37.166-90.744 46.534m36.777 11.16c2.803.329 6.249-.095 5.373 2.874-1.207 4.029-5.315 5.648-9.306 6.477-1.83.385-4.07-.212-3.816-2.544.506-4.878 4.536-5.88 7.749-6.806m16.879-235.756c-.682-7.692 2.355-5.494 6.463-3.51 44.31 21.244 88.66 42.372 132.952 63.654 6.172 2.949 12.188 6.265 18.067 9.792 22.603 13.61 26.088 31.325 10.552 52.78-3.543 4.917-6.931 9.967-10.416 14.96-3.738-2.024-2.842-9.33-8.293-7.095-4.44 1.832-2.803 6.806-2.337 10.584 1.13 9.175-.486 17.792-3.834 26.37-1.928 4.916-4.011 10.14-1.422 17.465 13.822-13.725 15.01-34.023 29.125-47.228-5.198 26.969-17.872 48.674-39.21 67.353-.428-13.05 3.095-24.25 5.256-35.565 1.714-9.061 1.81-17.91-1.05-26.68-1.363-4.222-4.75-8.116 1.674-11.855 3.66-2.14.7-5.38-2.103-6.4-37.418-13.744-65.882-41.465-98.745-62.322-23.246-14.767-47.31-27.99-71.333-41.311-6.717-3.72-14.096-5.841-21.747-6.457-6.483-.521-8.255-3.682-8.313-9.87-.137-15.46 8.099-23.71 23.109-24.848 12.908-.983 22.312 2.062 27.88 14.4 1.42 3.142 4.38 5.744 7.028 8.154 3.426 3.122 7.067 1.735 6.697-2.371m38.762-23.653c-1.285-.463-2.823-.52-2.94-2.468 1.363-2.351 3.816-1.62 5.822-1.696 43.143-1.677 86.284-3.354 129.427-4.858 9.54-.327 19.43 6.747 21.377 16 1.869 8.926 2.823 18.217-8.313 22.959-1.908.809-3.621 2.506-4.906 4.183-2.24 2.91-7.34 5.764-4.05 9.754 2.979 3.663 6.308-1.118 9.637-2.487 3.407 1.775-.681 7.904 4.517 8.174 4.107.23 4.692-3.855 7.262-7.672 4.906 16.154 6.56 31.653 9.695 46.842 2.337 11.47 4.77 22.728-3.718 32.944-1.441 1.736-1.928 4.165-.468 6.073 3.25 4.299 6.075-1.831 9.482-.752-.974 5.61-5.14 8.695-9.151 11.489-3.796 2.66-8.371 5.84-13.024 3.875-5.354-2.275-2.317-7.884-1.986-11.605 1.908-21.551-6.736-36.703-25.854-46.843-9.95-5.281-11.78-20.587-4.167-29.031 1.616-1.773 4.108-2.756 6.192-4.086-.877-1.003-1.753-1.986-2.63-2.988-7.611-.193-11.914 5.86-16.82 10.08-6.016 5.168-11.545 6.132-18.787 2.854-14.485-6.572-29.827-11.623-39.99-29.782-.135 14.014-5.587 11.315-11.992 8.732-27.178-10.968-52.78-25.003-78.711-38.592 8.585-.983 15.75 3.546 23.556 5.3 6.056 1.369 12.09 2.044 18.204 2.584 3.29.308 7.3.694 8.39-3.104 1.286-4.453-3.114-4.8-6.054-5.88m-103.223 62.477c.312-4.3-2.901-10.775 3.173-12.356 6.756-1.754 15.089-3.257 20.093 3.836 9.909 14.09 23.75 24.232 35.724 36.24 13.589 13.61 29.106 24.964 44.506 36.396 2.687 2.004 6.463 5.628 9.286 1.33 2.278-3.47-2.394-5.475-4.614-7.48-3.212-2.891-6.658-5.725-10.435-7.788-18.281-9.908-27.081-29.513-43.415-41.522 5.879-.096 10.007 2.814 14.153 5.513 33.954 22.014 69.192 42.159 100.459 68.144 6.444 5.359 6.853 7.692-1.012 11.47-14.037 6.708-27.704 14.188-41.488 21.397-4.07 2.14-7.574 3.2-12.012.038-34.771-24.808-70.905-47.672-104.84-73.637-7.32-5.591-10.941-11.702-9.851-21.031.799-6.766-.195-13.726.273-20.55m-4.304-201.962c-.54-5.42 1.379-8.32 6.259-9.5 79.74-19 142.54-68 204.74-117.6 36.6-29.18 74.36-56.18 117.32-75.18 2.72-1.22 5.34-2.66 8.12-3.738 2.12-.821 4.84-1.381 6 1.019 1.22 2.52.4 4.72-2.7 6.18-27.54 12.92-48.08 36.24-74.44 50.94-19.56 10.92-37.32 24.519-55.74 37.16-2.6 1.779-7.22 3.54-4.84 7.479 2.6 4.34 5.88.12 8.36-1.34 24-14.3 46.46-31.08 71.08-44.42 22.96-12.44 47.18-22.12 70.78-33.16 7.42-3.46 9.4 1.642 12.14 5.68 3.46 5.1-.78 6.28-4.5 7.4-69.34 21.16-129.02 60.66-188.42 100.52-50.58 33.94-104.36 60.36-163.86 74.36-6.2 1.46-11.58 3.36-10.3-5.8m25.78-770.795c-7.14.12-14.18-.22-22.8-6.941 10.3-1.24 16.72 2 22.8 6.94m-4.54-139.458c20.44-6.721 40.98-13.141 61.5-19.601 3.42-1.08 6.98-1.76 10.48-2.62-19.02 15.24-41.6 21.92-62 33-4.16 2.28-15.14.58-7.64 12.8 2.82 4.58-8.96 6.12-14.24 8.44-5.04 2.22-4.84-2.22-5.12-5.68-1.62-19.34-1.14-20.36 17.02-26.34m-7.14-77.82c31.16 3.32 62.42 5.02 93.74 5.68 21.64.46 43.26 1.08 64.88 2.12 4.22.2 11.88-2.58 11.98 3.7.06 4.68-7.44 2.44-11.52 2.54-11.94.34-23.88.12-41.2.12-26.1-2.36-57.1 3.82-88.34 5.5-9.68.52-19.4.26-29.06.92-8.72.6-10.6-3.52-10.54-11.42.08-7.62 2.94-9.92 10.06-9.16m38.96-25.92c39.44-8.78 78.12-18.018 119.68-16.98 75.58 1.882 138.68 29.6 193.14 80.02 27.7 25.64 53.2 53.46 74.96 84.52 1.72 2.44 3.4 4.9 4.82 7.5.46.82.08 2.12.08 3.2-.7.68-1.42 1.34-2.14 2.02-10.04-10.8-20.06-21.6-30.14-32.36-28.56-30.52-55.38-63.26-92.38-84.12-57.3-32.34-118.22-52.66-185.02-50.98-7.72.2-14.96 2.662-20.84 7.18-10.48 8.02-22.04 10.12-34.7 9.6-8.94-.36-17.9-.08-26.86-.1-3.08 0-6.58-.18-7.16-3.8-.74-4.68 3.24-4.96 6.56-5.7m141.44-108.458c46.28 7.099 92.84 12.94 138.24 24.679 45.1 11.64 89.32 26.14 127.36 54.5 23.12 17.24 42.22 38.88 62.14 59.6 2.52 2.64 4.96 5.6 2.88 12.26-18.92-21.68-40.48-37.58-62.34-53.1-2.14-1.5-4.04-3.36-6.26-4.7-3.1-1.86-6.7-5.12-10.04-1.78-3.22 3.22 3.52 5.06 2.52 8.52-.72.22-1.66.78-1.96.52-43.5-36.38-96.84-51.52-149.06-68.58-34.26-11.2-69.28-19.92-104.78-26.44-2.06-.38-4.56-.4-5.8-3 .96-4.52 4.66-2.86 7.1-2.48m373.74 284.119c.18 5.16-13.76 21.14-18.88 21.64-1.02.1-2.72-.06-3.04-.68-4.64-8.88-12.58-10.36-21.6-11.08-5.06-.42-3.94-4.48-1.18-7.34 3.5-3.64 8.18-5.02 12.96-6 9.46-1.94 12.74-7.66 11.4-17.1-1.38-9.8-4.24-19.02-9.42-27.36-11.8-19.04-22.62-38.92-36.26-56.56-11.16-14.42-28.44-22.58-43.44-32.94-6.42-4.44-12.84-8.9-19.12-13.52-1.72-1.26-4-2.96-2.64-5.5 1.58-2.94 4.52-2.4 6.86-1.16 8.86 4.74 17.84 9.3 26.34 14.62 33.54 21 63.42 45.88 82.34 81.68 10.1 19.08 15.12 39.66 15.68 61.3m16.08-111.26c.24-3.54.1-8.3 4.86-8.98 5.04-.72 5.34 4.3 6.62 7.5 3.18 7.94 5.94 16.04 9.02 24.04 3.3 8.56 8.8 15.56 15.78 21.4 14.12 11.8 22.78 10.38 31.92-5.14 2.659-4.52 5.26-9.06 8.159-13.42 1.76-2.62 4.4-4.26 7.68-2.66 3.08 1.5 4.42 4.58 3.38 7.54-4.22 11.94-8.3 25.08-17.86 32.84-7.96 6.46-20.42 4.8-29.76-.34-9.82-5.4-14.58-2.64-18.478 6.66-2.741 6.52-6.861 12.44-9.601 18.94-1.9 4.48-3.94 8.84-9.16 7.76s-5.7-6.24-5.8-10.9c-.02-1.12-.08-2.24-.08-3.36 0-12.72 2.36-67.32 3.32-81.88m12.26-171.598c49.68 38.039 88.36 85.579 117.32 140.758 16.18 30.86 36.8 57.76 61.2 82.14 9.48 9.46 15.02 9.56 24.52.22 24.219-23.84 30.94-58.74 17.58-90.92-.38-.94-.281-2.08-.42-3.32 9.179 6 15.32 20.1 16.2 35.52 1.6 27.82-2.641 54.42-17.12 78.56-9.58 16-10.5 30.9-1.88 48.3 8.54 17.24 13.74 36.26 12.56 56.199-.161 2.84.86 6.94-3.1 7.42-5.021.62-4.28-4.04-4.72-7.14-7.041-49.1-26.1-91.86-61.1-128.058-22.98-23.78-46.9-44.7-78.74-55-5.36-1.72-7.16-4.94-6.52-11 5-48.58-10.46-89.04-48.22-120.5-14-11.68-27.76-23.66-42.32-36.1 6.82-4.1 10.66-.24 14.76 2.92m31.2-7.92c28.58 23.38 59.24 44.12 86.18 69.54 2.98 2.82 5.98 5.68 8.52 8.88 1.52 1.9 3.4 4.88 1.18 7.02-2.861 2.78-4.46-.76-6.18-2.42-30.74-29.58-65.38-54.32-98.82-80.54-1.14-.9-2.24-1.9-4.08-3.48 5.66-3.86 9.66-1.9 13.2 1m122.059 166.799c2.38-2.64 4.68-.5 6.9.8 17.52 10.22 17.86 10.28 21.66-9.34 9.82-50.738 3.4-98.96-22.8-144.04-1.7-2.938-5.08-5.678-3.76-10.04 4.34-.96 6.38 2.222 7.98 4.822 34.12 55.4 54.4 113.699 36 179.659-5.6 20.099-8.32 20.819-23.8 6.66-7.4-6.78-14.22-14.2-21.1-21.521-1.74-1.84-3.36-4.52-1.08-7m34.56 531.238c-17.88 3.46-35.62 7.78-53.82 9.039-17.6 1.22-35.56.14-51.26 11.46 3.94-11.42 13.08-16.32 22.38-20.38 17.8-7.74 36.46-13.16 55.36-17.16 8.9-1.86 17.08-5.02 25.3-8.42 4.04-1.66 9.26-2.98 9.88-8.1.68-5.72-7.22-2.92-8.34-7.38 7.26-4.28 14.62-1.8 17.5 6.42 4.36 12.44-1.02 31.42-17 34.52m-52.28 66.8c.1 1.78.4 3.54.82 7.2-17.02-5.9-30.06-14.22-41.48-25.06-3.34-3.18-8.4-7.6-5.62-12.34 4.4-7.5 11.68-12.96 20.78-13.32 20.88-.84 41.54-3.32 62.08-6.9a250 250 0 0 0 23.9-5.4c5.24-1.46 7.08.5 6.84 5.3-.72 14.16-1.58 28.34-2.42 42.5-.24 4.24-2.94 5.46-6.76 5.78-11.12.9-22.24 2.1-33.36 2.98-2.9.22-6.48.34-6.4-4.12.14-7.4-3.74-10.36-10.52-9.32-7.14 1.1-8.26 6.6-7.86 12.7m44.98-236.758c2.98 7.419 8.74 14.139 5.1 26.08-13.82-18.14-31.32-31.04-33.96-53.54-1.42-12.141-7.64-19.66-18.72-24.1-17.08-6.84-32.88-15.64-45.2-29.94-4.2-4.9-4.98-7.94 1.68-10.58 6.42-2.52 10.94-7.08 15.18-12.62 5.52-7.24 13.4-10.14 22.82-8.58 11.96 1.98 23.3 3 26.7-13.52 1.24-6.06 8.34-5.26 13.42-5.68 19.84-1.66 19.58-1.68 13 17.54-9.14 26.78-11.06 54.68-11.8 82.7-.34 12.18 7.48 21.62 11.78 32.24m117.06 9.52c-.8 3.34-.08 7.819-6.7 8.56 3.72-17.241 3.5-34.3 3.42-51.36-.22-39.48-16.88-70.52-47.66-94.38-13.68-10.62-23.3-10.22-35.18 2.42-7.5 8-14 16.96-20.94 25.48 5.68-18.5 14.18-35.3 28.68-48.1 9.28-8.22 20.28-6.72 29.94 2.22 34.76 32.18 48.62 73.28 50.28 119.38.42 11.899 1 23.979-1.84 35.78m1.14 57c-2.56 1.779-3.72-1-4.44-3.221-2.84-8.6-7.6-15.94-15.18-22.04 5.84-1.52 13.56 6.54 15.18-1.18 1.62-7.82-8.52-5.58-13.24-8.2-1.44-.8-3.68.28-5.32-2.76 10.12-1.88 19.02 1.02 27.44 4.94 5.68 2.64 5.5 8.48 4.34 13.78-1.52 6.86-2.42 14.28-8.78 18.68m-3 83.9c-.86 1.1-2.24 1.759-2.86 2.259-5.42.48-10.72-7.84-7.98-12.16 4.42-6.96 10.76-12.1 18-16.02 2.54-1.38 5.52.68 4.04 2.24-6.42 6.8-5.7 16.7-11.2 23.68m-20.26 20.08c2.48-4.08 4.98-.28 7.36.8 2 .9 3.96 1.88 5.9 2.9 3.02 1.56 8.78 1.1 7.78 5.92-.98 4.8-6.32 1.3-9.28 2.42-3.5-.3-7.02.38-9.72-2.08-3.02-2.78-4.2-6.42-2.04-9.96m-25.258-19.752c8.98 23.82 13.98 48.499 20.28 72.819.84 3.26-.24 5.58-3.3 5.58-4.78-.02-10.54 3.6-14.02-2.64-1.04-1.88-1.46-4.28-1.56-6.48-1.16-23.04-3.12-46.08-1.4-69.28m-15.201-44.767c4.74-2.82 12.08 3.56 15.12-3.12 3.479-7.66 2.32-16.04-.62-23.918-1.26-3.401-2.8-6.681-3.3-10.381 10.12 6.9 13.479 16.98 12.5 28.74-.521 6.12-2.84 11.8-9.24 14.099-5.88 2.1-11.18 1-15.42-3.62.639-1.22.7-1.66.96-1.8m-3.56-85.358c7-7.16 6.5-17.08-1.04-25.7 5.16 2.7 9.5 6.139 15.1 7.16 6.599 1.179 7.7 4.799 4.52 10.319-1.88 3.2-3.761 6.4-5.6 9.62-6.14 10.7-5.18 13 6.64 17.22 2.84 1 8.26 1.06 6.86 5.36-1.56 4.7-5.76.5-8.52-.08-5.42-1.14-10.74-2.96-15.061-6.78-5.56-4.9-11.4-8.42-2.9-17.12m-14.36-56.12c9.8 2.7 19.74 5.72 27.48 16.6-8.12.84-14.12 2.38-18.42 9.36-4.3-7.3-7.96-14-12.08-20.38-2.8-4.34-1.74-6.9 3.02-5.58m43.06-10.26c7.62 5.96 6.72 14.46 5.88 22.74-5.22-6.84-5.48-14.78-5.88-22.74m-64.38 1.26c2.14 7.68 6.54 14.2 10 21.18 1.74 3.54 5.04 6.38 5.04 11.04-21.8-20.34-25.28-33.96-14.98-57.54 1.02-2.34 1.16-5.54 4.54-5.58 3.1-.04 4.76 2.14 4.74 5.1-.02 7.1 3.82 7.34 8.76 4.94 5.32-2.58 11.62-4.88 8.5-13.06-1.24-3.3-4.2-5.058-6.78-7.218-4.12-3.441-12.7-4.401-8.76-12.92 4-8.681 9.18-16.761 20.34-16.58 10.8.16 34.32 19.759 37.8 31.399-7.54-5.28-14.64-10.46-21.92-15.36-2.84-1.88-7-3.62-9.2-.68-2.84 3.84 2.06 5.76 4.26 7.66 10.74 9.22 22.96 16.54 33.12 26.58 5.78 5.74 9.36 12.16 11.16 20.12 6.14 26.96.68 45.44-18.92 58.639 1.38-9.14 6.42-14.94 9.6-21.52 8.72-18.04 3.02-40.08-13.2-51.42-10.54-7.38-21.06-5.48-31.86-1.22-9.3 3.68-18.2 8.62-28.44 9.46-4.9.4-4.9 3.02-3.8 6.98m70.64 125.08c-2.48-12.04-13.16-18.28-20.1-27.82 20.02 1.3 34.08 11.16 37 25.42 3.22 15.88-3.44 30.62-17.76 37.88 2.6-12.1 3.26-23.78.86-35.48M925.214 502.25c-.018-5.241 0-10.46 0-18.94 1.12-24.74-1.42-52.86 3.062-80.7.599-3.72-.601-10.48 3.96-10.34 6.319.18 5.179 7.06 5.179 11.7.02 25.76-.24 51.54 4.62 76.98.76 4.019 1.8 8.019 3.24 11.819 2.14 5.74 3.7 10.32-4.6 12.84-5.4 1.64-5.02 7.78-5.18 12.58-.52 14.58.24 29.12 1.7 43.64.36 3.48 2.9 9.54-2.82 10.3-5.26.7-7-4.8-7.56-9.4-2.5-20.1-1.48-40.3-1.6-60.48m197.64 295.098c-9.1 8.18-19 9.38-30 5.12-2.36-.9-5.82-1.56-4.86-4.9 1.12-3.9 4.92-3.28 7.4-1.78 6.34 3.84 8.94 2.98 9.04-5.02.04-2.86 4.4-3.88 7.16-4.48 3.5-.78 2.32 2.72 3.12 4.48.54 1.2 1.86 3.04 2.66 2.96 2.84-.28 4.58-2.46 5.26-5.12 1.46-5.9 3.54-19.08 11.1-2.22 1.16 2.58 5.48-4.68 6.96-7.16 3.34-5.68 8.62-7.52 16.56-9.04-13.36 24.52-27.34 45.14-57.72 46.24-12.52.46-24.94 3.88-37.42 5.84-2.06.34-4.76 1.48-6.12-.88-1.36-2.38.96-4.02 2.34-5.72 9.78-12.16 15.16-13.62 29.8-8.1 20.72 7.82 38.66 1.2 50.34-19-7.94-1.54-11.32 4.9-15.62 8.78m-182.9 126.14c-2.96-6.98 1.84-11.26 7.14-12.8 6.08-1.76 5.2 4.98 5.88 8.14 2.52 11.72 7.18 23.14 6.44 37.52-8.82-11.1-14.7-21.68-19.46-32.86m-117.56-22.42c19.78 4.36 25.24 24.96 39.56 35.98 3.88-6.86-2.58-11.72-.66-17.84 5.2 1.28 12.96 1.74 10.94 7.98-3.56 10.94.2 13.64 11.26 12.98-10.32 5.46-20.42 1.58-30.66 4.54 27.76 44.179 55.96 87.299 89.1 126.999-.66.78-1.32 1.56-1.96 2.34-4-3.6-8.02-7.16-12-10.78-9.9-9.02-19.44-18.5-29.76-27.04-30-24.8-69.72-94.96-75.82-135.16m23.44-89.438c8.36-5.04 17.32-2.96 26.16-1.32-8.5 5.18-17.32 3.18-26.16 1.32m2.08 27.039c6.14.44 13.16.88 20.18 1.48 1.88.16 3.9.98 3.88 3.18-.02 2.24-2.16 2.94-3.98 2.98-12.58.3-25.16.58-37.74.56-2.62 0-5.54-1.76-5.48-4.6.06-4.26 4-3.44 6.7-3.54 5.18-.2 10.36-.06 16.44-.06m36.9-38.92c12.62 6.12 20.92 15.54 31.38 25.24-12.9-1.36-27.3-13.2-31.38-25.24m3.96 70.6c2.94.76 2.26 8.6 8.38 4.8 1.96-1.22 3.06-4.54 7.16-2.64-5.08 6.6-10.96 10.68-19.18 11.12-7.92.4-14.16-6.76-22.74-5.06-.96 5.9 4.36 6.08 7.26 8.08 1.8 1.24 4.64 1.8 4.64 4.24 0 3.46-3.64 2.96-5.78 4.12-3.1 1.68-6.46 1.7-9.8 1.64-7.42-.16-16.38-1.96-17.84-8.76-1.46-6.9 8.08-7.74 13.5-9.98 8.24-3.4 16.74-7.04 25.56-1.84 7.36 4.32 4.6-6.82 8.84-5.72m-74.58-4.8c4.74-.46 9.46-1.08 14.92.06-2.46 1.74-4.9 3.48-7.38 5.18-15.72 10.8-16.1 10.72-25.5-5.78-5.38-9.42-.08-19.54 10.6-20.4 3.68-.3 5.44 2.26 7.06 4.66 2.32 3.46-1.08 4.34-3.1 5.72-3.84 2.64-7.72 5.28-12.74 8.7 6.66 2.08 11.38 2.32 16.14 1.86m-199.24 91.84c3.44-1.38 5.34 1.26 7.28 3.64 16.82 20.6 16.82 20.6 37.5 30.84-26.68 7.94-45.22-2.901-47.18-26.681-.22-2.84-1.2-6.34 2.4-7.8m152.36-185.2c10.68 11.902 19.6 24.862 25.1 39.942 1.28 3.5.18 6.879-2.62 9.059-4.44 3.48-6.9 8.36-10.22 14.72-4.32-22.48-8.28-43.1-12.26-63.72m-188.94 155.86c8.04-6.7 16.1-11.78 27.68-12.54 16.06-1.08 28.14-10.72 35.76-25.44 4.02-7.74 6.12-14.4-8.54-17.3 23.56-13.14 44.975-24.025 67.12-33.4 27.755-11.747 32.68-27.68 33.24-41.58.56-13.86-1.24-27.88 3.62-41.82.36 4.18.86 8.342 1.08 12.52 1.22 24.5 9.98 45.72 26.92 63.5 2.3 2.42 4.42 5.1 6.04 8 1.12 1.98 1.2 4.64-2.38 4.48-15.64-.72-28.12 8.2-41.52 13.96-50.46 21.64-95.92 52.46-143.5 79.36-4 2.28-9.22 9.44-13 4.3-4.5-6.1 3.02-10.32 7.48-14.04m95.02-117.02c-19.62 23.1-42.94 17.12-65.12 16.44 20.2-7.9 40.62-14.78 65.12-16.44m-48.8-188.298c-2.98-3.36 1.6-5.86 4.02-7.76 3.98-3.1 7.46-7.96 13.22-6.96 3.3.58 2.74 4.12 1.92 6.56-9.06 26.92-28.24 43.66-53.98 53.72-1.36.54-2.88.679-3.68.86-3.42-.101-6-.681-6.68-3.801-.58-2.76 1.46-4.14 3.58-4.86 14.64-5.06 22.14-20.7 37.54-25.1 4.08-1.16 10.54-5.36 4.06-12.66m87.4-47.68c-1.6 7.44-8.72 11.28-20.82 10.3 6.6-6.96 13.92-8.08 20.82-10.3m-15.18-15.3c-1.64-.96-3.8-1.92-3.04-3.88.54-1.32 2.8-2.68 4.36-2.758 12.28-.761 22.52-6.12 32.8-15.641-.68 19.48-19.76 30.66-34.12 22.28m54.88-36.4c1.04-10.06 2.98-21.04 12.76-28.98 2.9 7.5-4.08 13.14-.6 19.78 7.92-2.72 10.46-10.96 16-16.02 3.74-3.4 6.92-9.38 12.52-3.34 5.42 5.86-2.18 7.52-4.6 10-7.8 7.96-16.12 15.44-24.5 22.78-6.1 5.32-12.26 2.52-11.58-4.22m-12.76 176.1c19.8 13.04 23.1 33.139 23.72 54.399-8.34-17.88-32.5-28.76-23.72-54.4m-22.88 8.4c2.82-17.24 6.96-34.22 12-50.96.62-2.1 1.56-4.22 2.84-6 1.18-1.64 2.62-4.12 5.24-2.56 1.7 1.04 1.9 3.1 1.06 4.98-10.36 23.06-11.88 48.04-15.14 75.3-7.18-7.66-7.06-14.34-6-20.76m111.52-238.338c-.72 3.12-18.84 15.94-22.62 15.679-3.32-1.38-8.26-3-4.36-8.18 5.56-7.36 13.78-10.92 22.84-12.18 3.24-.46 4.9 1.32 4.14 4.68m56.7 216.959c13.62 19.4 30.86 34.24 52.38 43.9 9.7 4.36 15.84 12.1 21.72 20.32 1.64 2.3 2.78 4.52.64 7.04-2.42 2.88-4.7.58-6.94-.36-13.38-5.64-27.46-10-39.92-17.2-25.18-14.56-41.4-36.8-49.4-64.92-.66-2.36-1.6-5.04.64-7.92 9.36 3.68 15.42 11.38 20.88 19.14m-39.44-146.398c-17.28 15.399-19.24 37.999-23.48 58.999-3.16 15.66-4.8 31.64-6.98 47.5-.48 3.46-1.04 7.8-4.68 7.76-4.68-.04-3.36-4.96-3.32-7.92.82-49.02 6.96-96.32 43.34-133.76 7.26-7.48 8.26-17.28 9.04-27.02.52-6.64 1.16-13.16 6.34-18.58-.24 26.06 2.5 52.74-20.26 73.02m-166.14-170.78c7.6-12.058 16.58-22.998 27.48-32.2 2.1-1.778 5.48-3.12 8.22-.54 3.28 3.062-.1 5.602-1.4 7.8-6.52 10.9-12.8 22.12-25.36 27.42-2.06.86-4.1 1.762-6.16 2.642-3.82-.161-4.64-2.161-2.78-5.121m11.32 61.74c37.28-15.38 75.36-27.9 116.08-30.02 2.22-.1 4.5-.8 6.64-.52 5.48.74 11.44 3.46 11.6 8.74.16 5.66-6.68 5.86-11.18 6.2-24.98 1.86-49.28 7.24-73.28 14.02-3.8 1.06-10.46.72-10 6.739.46 5.58 6.54 3.54 10.2 4.22 12.06 2.2 24.16 4.06 35.38 9.46 9.5 4.56 10.76 12.56 9.42 21.64-.24 1.56-1.74 3.78-3.06 4.12-2.04.54-2.86-1.66-3.44-3.54-.68-2.12-1.44-4.24-2.4-6.24-7.24-15.3-21.86-17.6-31.18-3.64-6.68 10.02-11.84 10.06-21.18 4.16-15.42-9.74-33.6-11.46-51.08-14.9-4.58-.92-9.48-.58-14.34-4.12 10.04-7.48 21.06-11.88 31.82-16.32m-54.7 47.54c-5.52-5.08-.54-6.38 3.02-6.78 29.78-3.34 57.64 2.54 83.28 18.22 3.02 1.86 6.76 5.04 4.06 9.1-2.74 4.1-6.94 1.68-9.94-.34-10.22-6.88-21.12-9.92-33.62-9.46-8.88.32-16.84 1.56-20.66 10-3.98 8.8-3.78 18.14 2.24 26.52 4.12 5.74 8.26 11.48 12.44 17.2 1.4 1.9 2.38 3.8.3 7.02-16.94-10.28-32.86-21.06-37.56-42.32-1.76-7.86-4.54-11.64-12.22-4.08-4.56 4.46-13.16 11.16-17 5.4-4.08-6.1 7.1-7.92 11.36-11.78 3.84-3.46 8.48-6.02 12.78-8.96 3.94-2.7 6.04-5.6 1.52-9.74m-34.28 105.5c17.82-4 30.66-10.34 42.72-18.32 1.68-1.12 3.84-3.52 5.68-.82 1.6 2.36-.66 4.24-2.5 5.32-27.78 16.16-49.12 40.58-76.02 59.84-2.4-8.1 2.82-11.14 7.08-14.48 8.78-6.86 17.76-13.5 26.6-20.28 4.62-3.56 9.44-7.24-3.56-11.26m-21.28-66.9c2.34-.1 6.84.08 5.2 3.36-2.58 5.12-6.88 10.2-12.78 11.32-3.34.64-1.68-3.96-1.76-4.3-1.7-10 4.06-10.14 9.34-10.38m-9.94 181.959c-.18-6.66 1.72-10.8 8.54-12.04 8.92-1.62 17-9.16 26.74 1.5 4.36 4.76 14.76-2.18 22.62-1.9 10.46.38 12.18-7.26 14.28-15.12 2.52-9.38 5.72-18.58 8.82-27.78.82-2.42 2.2-5.42 5.24-5.04 3.74.48 3.98 4 3.82 7-.7 13.06-1.6 26.12-2.28 39.18-.12 2.42-1.56 5.84 1.42 7.02 3.5 1.38 5.48-1.96 6.76-4.48 4.56-9 9.5-17.9 12.98-27.32 6.68-18.1 17.26-34 27.4-50.04 8.44-13.34 18.82-25.44 28.34-38.1-10.32 22.72-9.28 48.54-20.76 70.56-10.02 19.2-14.34 39.76-14.02 61.56.52 36.66 1.98 73.18 9.76 109.08a61 61 0 0 0-2-2.18c-14.56-15.3-29.7-25.48-42.06-41.88-5.82-7.72-12.28-10.82-22.18-7.94-11.42 3.32-23.16 5.94-35.26 5.36-6.84-.3-14.34 1.56-18.66-6.64-.78-1.44-4.14-2.52-6.02-2.2-13.76 2.4-13.88-5.96-13.52-15.9.5-14.22.44-28.48.04-42.7m214.82 416.398c-1.2 3.42-5.04 2.14-7.94 1.76-25.24-3.38-47.52-15.94-71.64-23.36 8.24-3.6 16.48-3.66 24.12-1.38 16.68 5 33.08 10.98 49.52 16.74 2.9 1 7.56 1.62 5.94 6.24m-14.16-88.54c-3.92.94-7.86 2.5-11.3 4.58-7.6 4.58-7.32 9.9.54 14.02 3.16 1.64 6.54 2.84 10.58 4.58-9.36 3.18-17.98.04-23.86-10.6-4.9-8.92-11.22-10.52-20.52-10.82-23.76-.74-47.7-1.28-70.26-10.52-4.38-1.8-9.4-2.8-11.02-8.34 3.68-2.86 6.42.28 9.24 1.46 30.68 12.92 60.28 10.84 88.62-6.56 11.62-7.16 11.46-8.18-2.32-18.64 25.98-1.12 47.72 2.7 68.36 12.94 15.78 7.84 29.98 17.94 43 29.78 1.9 1.72 4.86 3.72 2.84 6.4-2.04 2.72-4.68.06-6.8-1.1-24.7-13.44-50.62-13.52-77.1-7.18m301.7 65.78c-2.44-1.3-6.84-.82-6.2-4.84.44-2.74 4.1-2.82 6.68-2.84 15.02-.06 30.06-.04 45.1-.04-25.6 13-47.42 35-79.42 31.9-10.22-.98-20.72 4.239-30.82-.38-3.36-1.52-10.32-1.5-7.56-8.1 2.12-5.06 6.7-6.38 12.1-3.46 9.62 5.22 19.64 5.759 30.22 2.72 9.34-2.68 19.28 1.14 28.76-1.78 3.86-1.2 8.96-1.2 9.64-6.16.78-5.78-5.16-5.26-8.5-7.02m190.28 9.82c7.5 8.72 16.7 14.48 28.26 16.58 4.82.88 10.28-.3 15.78 3.76-8.72 4.839-17.58 2.339-25.481 4.6-2.34.68-6.02-.6-6.42 2.84-.18 1.6 2.08 3.819 3.68 5.22 11.26 9.759 11.4 10.339 2.98 22.099-18.48 25.78-37.52 51.18-55.3 77.42-18.36 27.1-43.8 40.5-75.62 43.42-6.66.6-13.3 1.64-19.9 2.739-12.78 2.1-20.28-1.2-25.958-12.86-3.101-6.38-4.541-13.14 5.339-15.64 6.72-1.72 7.68-7.84 8.74-13.18 4.48-22.46 18-35.08 40.2-39.42 7.98-1.558 15.78-4.378 23.46-7.178 15.68-5.721 24.94-23.861 20.98-40.301-2.04-8.52-11.44-12.06-19.52-6.94-9.18 5.8-18.94 10.22-29.04 14.06-4.18 1.58-8.32 3.16-12.74 1.34-1.5-3.88 6.78-7.06.84-10.7-4.26-2.6-7.08 1.58-9.34 4.08-23.16 25.56-54.8 28.18-85.82 31.48-13.52 1.44-27.06-.9-32.68-16.88 2.92-1.36 5.22.48 7.54 1.34 5.86 2.14 7.7-.56 7.22-5.82-1.68-18.68 5.14-27.88 28.16-27.92 6.92-.02 12.06-3.14 17.06-7.22 8.1-6.62 16.1-13.36 24.42-19.68 15.72-11.92 32.34-11.88 49.3-2.86 4.92 2.62 9.52 5.82 14.36 8.58 3.3 1.9 6.84 6.84 10.54 2.82 3.14-3.42 1.54-8.74-.82-12.64-8.6-14.18-22.1-23.36-37.34-26.3-21.5-4.14-43.66-5.42-65.6-6.1-10.32-.32-19.3 6.982-28.44 11.94-5.02 2.72-11.86 8.4-15.74 2.64-3.3-4.9 4.28-10.04 8.68-12.4 17.52-9.34 20.86-25.76 24.12-43.04 1.74-9.2 2.24-19.84 12.18-25.3 2.92-1.62 5.6-6.54 8.78 1.34 2.26 5.602 9.2.982 14 .222 3.28-.52 5.32-2.7 5.18-6.261-.18-5.16-4.22-7.02-8.06-8.2-10.68-3.34-20.44.86-30.26 4.44-7.12 2.6-14.4 10.2-21.58-.16-.46-.66-3.34-.68-4 .04a717 717 0 0 0-20.14 22.5c-.72.84-.76 3.18-.1 4.08 1.62 2.24 4.1 1.52 5.98.26 4.64-3.1 8.84-6.98 13.74-9.54 3.08-1.62 7.5-2.72 10.5.3 2.74 2.76.98 6.52-.18 9.54-4.24 11.08-12.48 17.98-24.08 19.2-11.5 1.22-19.94-5.12-25.84-14.58-6.54-10.5-7.7-22.5-8.24-34.52-.32-7.3-.34-14.64-4.42-22.14-4.78 6.38-3.72 12.8-4 18.92-.5 11.06 1.32 22.5-6.34 32.24-3.18 4.04 1 5.9 3.44 7.9 5.4 4.46 12.32 6.94 16.94 12.8-24.38 1.4-39.82-16.12-35.18-38.86 1.98-9.68 6.9-18.06 9.94-27.22 7.88-23.82 3.36-47.38-1.88-70.9-2.76-12.4-6.9-24.68-7.94-37.22-2.36-28.138-19.46-48.8-33.4-71.138-3.84-6.16-11.34-7.24-17.46-9.06-33.34-9.86-64.06-24.1-89.24-48.96-3.86-3.8-9.2-6.08-14.74-7.66-14.12-4-22.94-15.02-31.56-25.78-4.72-5.9-.92-10.96 4.66-15.58 4.78 10.02 10.52 18.64 18.84 25.14 3.18 2.48 6.7 4.8 10.42 6.28 4.24 1.68 10.18 2.54 11.78-2.46 1.48-4.62-4.42-4.54-7.74-5.84-7.8-3.08-12.42-9.32-15.28-16.96-1.64-4.38-5.06-9.6 1.12-12.7 5.64-2.84 11.82-2.58 15.9 3.32 2.54 3.64 4.68 7.7 6.2 11.88 15.54 42.8 47.5 64.12 90.98 70.72 19.2 2.9 38.44 5.44 57.88 4.34 7.36-.42 8.74 2.92 10.66 9.299 7.2 23.92.52 47.28-1.32 70.84-.6 7.84-1 15.68-1.32 23.54-.08 1.82 0 5 .8 5.28 17.2 5.96 10.42 22.46 14.5 33.92 4.46 12.54 4.835 25.897 8.015 38.916.76 3.12 2.925 7.583 7.505 6.404 3.52-.92 5.054-5.861 4.495-8.74-5.161-26.42-2.25-53.174-11.49-78.093-4.96-13.361-4.007-24.923-4.007-37.404.019-4.42 2.099-7.08 6.28-8.04 15.14-3.498 22.682-8.043 35.742-17.843 1.2 6.2-5.4 7.96-4.62 12.92 6.98 2.54 5.928-4.504 12.648-5.044-8.34 12.079-18.008 19.985-15.288 37.364 8.24-4.7 6.38-14.5 12.32-19.44 3.18 3.34.04 8.42 3.88 11.74 4.48-.1 6.32-10.22 13.32-4.08 3.44 3.04 9.12 4.46 1.08 8.74-3.56 1.9-3.46 5.12.12 6.86 13.12 6.36 22.68 18.32 36.66 23.26 2.8.98 5.56 2.1 8.4 3 2.3.74 4.78.42 5.98-1.66 1.6-2.76-1.54-3.58-2.84-5.16-1.96-2.4-7.76-2.86-5.88-6.8 2.1-4.4 6.74-.8 10.06-.32 5.48.8 10.78 2.76 16.24 3.82 2.98.58 7.02.24 7.78-2.86 1.02-4.14-3.64-3.9-6.12-4.76-5.6-1.92-11.42-3.18-17.06-4.98-3.54-1.14-8-2.56-8.28-6.6-.34-4.74 4.78-5.04 8.1-6.2 8.08-2.82 16.3-5.26 24.46-7.88 1.86-.6 3.2-1.78 3.9-4.28-6.36-4.84-16.12-2.36-22.44-9.92 8.02-7.04 17.96-11.34 25.66-18.66 3.08-2.92 5.38 1.72 6.52 3.98 4.2 8.3 7.94 16.84 11.66 25.36 1.04 2.38 1.28 5.8 4.68 5.14 4.22-.82 3.02-4.54 2.44-7.32-1.98-9.52-4.18-18.98-6.28-28.48-4-18.08 1.58-27.54 19.04-33.4 4.9-1.64 14.52-1.46 12.74-7.54-2.06-7.038-10.34-1.18-15.82-.7-3.2.26-6.2 2.74-9.94.52.72-5.32 5.22-5.34 8.88-6.44 8.9-2.64 17.86-5.2 26.76-7.9 1.76-.54 3.92-1.5 3.74-3.6-.24-2.88-2.82-2.98-5.081-2.94-10.96.26-21.1 4.36-31.58 6.8-5.08 1.18-10.02 2.56-16.78 1.802 8.44-7.08 18.18-7.641 26.74-10.861 5.54-2.08 11.36-3.44 16.98-5.4 2.48-.88 5.3-2.76 4.74-5.54-.8-4.04-4.74-3.22-7.44-2.56-15.2 3.72-29.96 8.88-44.46 14.78a480 480 0 0 1-62.1 20.5c6.62-8.74 16.58-10.48 25.92-13.74 5.04-1.78 14.78-2.2 12.42-9.24-2.24-6.7-10.96-2.3-15.94-.24-22.86 9.4-45.028 18.676-62.968 36.155-9.74 9.48-19.39 18.074-34.71 26.074 9.36-16.16 18.79-26.933 32.17-35.234 35.52-22.02 73.029-38.515 113.829-49.735 12.64-3.46 25.42-4.46 37.9-7.72 3.04-.8 6.66-.3 9.36-5.98-22.28 1.46-39.74-10.5-59.16-15.96-11.84-3.3-22.76 2.34-33.68 5.04-9.24 2.28 2.38 7.28-.08 11.96-5.26-1.98-10.94-2.84-16.8-2.14-3.56.42-5.34-.82-5.46-4.96-.22-7.56-3.86-5.06-6.54-1.5-18.56 24.56-46.3 35.76-72.16 49.42-16.72 8.82-17.34 8-28.38-7.9-8.84-12.7-21.34-20.44-34.42-27.88-25.72-14.6-48.04-33.98-62.86-59.3-11.76-20.06-12-43.42-2.8-65.76.9-2.16 2.1-4.96 6.2-4.76 1.98 24.34 5.54 48.5 9.54 72.56 5.34 1.22 5.6-3.1 6.66-5.88 7.72-20.12 16.96-40.42 32.94-54.18 34.02-29.3 56.16-68.54 87.5-99.838.7-.721 1.78-1.061 3.64-2.12.04 10.019-1.18 19.139-4.14 27.66-3.74 10.739 1.42 10.439 8.94 8.839 11.84-2.52 22.46-6.68 30.8-16.44 7.22-8.44 15.92-15.58 25.18-24.5-.98 9.94-5.74 16.68-8.74 23.98-2.52 6.16-2.26 8.66 5.3 8.6 24.56-.22 49.22-1.66 73.36 4.84 6.82 1.84 11.1-3.08 15.56-7 32.92-29.12 69.18-53.04 108.96-71.72 20.86-9.78 33.42-13.18 55.559-18.04 2.38-.52 4.72-.48 5.78 1.94 1.72 3.96-1.72 5.54-4.2 6.4-11.18 3.92-15.38 13.36-19.24 23.28-3.36 8.6-3.7 17.68 2.48 24.28 5.6 5.98 14.04 2.62 21.32 1.46 3.78-.6 8.38-6.7 11.06.52 2.58 6.9-3.96 7.8-8.24 9.34-11.4 4.12-23.54 5.06-32.66-3.52-8.78-8.24-9.26-20-5.7-31.5 1-3.2 2.34-6.3 3.44-9.48.68-1.98 3-4.08 1.02-6.06-2.28-2.3-4.66-.58-6.98.84-12.42 7.62-21.72 18.8-32.78 28.28-27.78 23.82-47.123 53.393-65.342 85.112-3.521 6.12-3.401 10.6.979 16.16 12 15.3 25.38 29.38 39.1 43.02 7.96 7.9 20.24 8.66 30.42 13.04 8.2 3.56 12.64 8.74 13.68 17.26 3 24.3 20.886 39.746 34.62 57.439 10.213 13.157 21.632 4.199 29.373.779 7.779-3.44 10.259.18 12.5 5.74 3.119 7.68 3.65 13.289 10.53 20.029 5.22 5.12 3.5 18.32-1.76 23.46-4.7 4.62-2.94 6.42-1.92 10.359 8.16 31.74 15.4 63.68 19.78 96.2 1.28 9.6 1.92 19.32 2.52 29 .18 3.2 2.54 8.34-3.9 8.22-4.38-.08-8.98-.46-10.04-6.58-4.34-25.08-9.82-50.08-7.18-75.76 1.54-14.92-2.12-27.18-13.96-36.94-10.52-8.68-17.26-19.52-16.24-34 .16-2.44.48-5.298-2.62-7.74-3.82 2.28-4.28 6.46-4.2 10.18.34 16.8-7.76 31.76-10.06 47.98-.92 6.36-6.02 8.96-11.6 10.82-18.34 6.12-36.7 12.16-54.9 18.64-10.28 3.66-19.5 9.2-26.58 17.92-14.52 17.94-13.68 36.8 2.74 52.9 18.22 17.86 42.16 24.72 64.96 33.72 1.34.52 2.74.86 4.56 1.439-2.14 5.74-7.18 5.18-11.14 5.96-37.94 7.56-75.92 14.96-113.88 22.46-4.38.86-8.8 1.74-12.96 3.28-3.66 1.34-8.6 2.14-8.62 7.42-.02 4.84 3.802 6.76 7.78 8.48 29.74 12.76 59.38 25.8 89.2 38.38 19.2 8.08 38.68 15.5 58 23.28 1.92.76 3.66 1.94 8.44 4.52-11.18 0-18.82.1-26.44-.04-4.5-.08-8.56.54-8.74 6.08-.18 5.36 3.82 6.5 8.2 7.16 9.22 1.36 14.597 2.367 23.817 3.588 9.16 1.2 10.2 5.599 5.7 12.779-2.96 4.74-6.06 9.44-8.7 14.36-2.5 4.66-6.04 5.44-11.04 5.4-16.32-.16-27.496-5.807-43.196-8.646-3.26-.581-7.78-3.601-10.16.679-2.16 3.88 1.68 6.98 4 9.68m172.04-54.16c-8.12 6.58-17.38 7.3-26.46 7.22-15.26-.16-29.8-3.14-44.3-8.98-49.7-20.04-99.9-38.84-148.96-60.42-3.18-1.38-7.5-1.4-9.94-6.94 13.92-3 27.4-6.18 41-8.82 47.82-9.28 95.719-18.2 143.5-27.74 6.04-1.2 16.96-.2 14.48-10.938-2.24-9.841-11.261-5.601-17.96-4.5-11.36 1.859-22.74 3.659-34.04 5.879-6.881 1.36-12.261-.88-19.52-6.66 14.759-4.28 27.799-4.34 40.6-5.56 33.36-3.18 66.819-5.62 98.36-18.3 5.06-2.04 6.64-1.3 6.64 4.1.1 39.66.3 79.34.4 119.019 0 1.8-.281 3.86-1.161 5.36-2.16 3.64-29.1 11.04-33.68 9.58-13.54-4.34-27.14-7.54-43.66-1.78 12.1 5.88 24.6 2 34.7 9.48m-10.84-725.895c18.38-8.261 28.98-13.74 47.92-20.42 5.48-1.94 6.78.42 6.76 5.06 0 6.74-.16 13.48-.16 20.219-.24 114.52-.46 229.039-.72 343.559 0 1.42-.38 2.819-.6 4.239-.42-26.04-3.62-51.4-9.02-76.74-7.06-33.1-17.12-59.838-41.32-80.4-13.56-11.5-17.1-21.818-17.4-36.958-.34-16.16-7.78-30.3-14.36-44.5-3.6-7.74-3.76-15.02-.56-22.7 11.08-26.58 22.3-53.16 21.84-82.82-.08-5.18 3.86-6.86 7.62-8.54m102.92 1328.113c.08-513.137.16-1026.295.2-1539.431 0-18.16 1.08-15-14.82-15-329.9-.06-648-.06-977.9-.02-17.218.02-14.898-2.4-14.898 14.7-.061 283.158-.061 566.337-.061 849.494h.04c0 283.159.1 566.317-.3 849.495-.02 11.84 3.5 14.12 14.32 14.12 331.38-.34 650.98-.42 982.34-.26 8.96 0 11.4-2.44 11.339-11.3-.4-53.92-.26-107.86-.26-161.798"/></g></svg>