<svg xmlns="http://www.w3.org/2000/svg" width="1984.25" height="1984.25" viewBox="0 0 1984.25 1984.25"><defs><clipPath id="clip_1"><path d="M0-.002h1984.252V1984.25H0Z"/></clipPath></defs><g clip-path="url(#clip_1)"><path d="M1165.23 516.335c-21.006.78-41.939-.231-62.662-4.732-9.73-2.117-12.887-4.264-14.635-18.279-.477-3.841-1.334-4-2.667-14.667 5.651-.094.603-.195 6.333.157 56.86 3.429 113.757 9.129 169.636 20.256-20.52 19.777-88.063 16.965-96.004 17.265m-102.95-21.165c-.73 12.893-14.758 10.381-22.083 11.007-14.409 1.243-29.029.403-43.25 3.326 19.256-20.608 39.581-28.866 64.318-30.846 1.333 8 1.257 12.03 1.014 16.513M934.6 882.657c3.845-.214 8.892-.982 16-1.333-24.617 25.88-18.42 25.994-42.786 11.035-39.559-24.302-78.755-49.215-118.687-72.916-30.527-18.119-30.69-17.821-14.024-56.002 1.012.66 3.011 3.563 3.497 4.549 6.233 12.661-.878 27.674 12.138 33.366 11.366 4.98 23.832-8.093 35.998-12.636 11.56-4.312 17.056-.926 18.408 12.336 1.643 16.072-4.978 38.952 7.512 46.05 9.034 5.135 27.62-7.569 41.527-13.416 14.87-6.257 18.593-.565 17.857 14.736-1.716 35.275-10.006 36.023 22.56 34.231m-26.705 33.229c-53.312-32.987-98.617-61.964-151.93-94.95a974 974 0 0 1 2.826-5.375c53.717 32.257 99.434 60.515 153.16 92.773-1.352 2.52-2.696 5.04-4.056 7.552M897.3 615.071l-12.547-3.215 9.714-7.715c4.857 1.715 15.38-2.572 15.38-2.572-2.428 5.144-12.547 13.502-12.547 13.502m660.126-380.156c-15.145-41.867-42.408-76.277-73.655-106.631-.502-.489-2.08.274-3.618.54-.202 11.992 8.67 18.233 14.757 25.777 18.124 22.511 28.696 47.919 28.955 77.776.226 26.369-14.887 38.199-38.613 30.261-10.32-3.455-17.589-11.882-26.38-17.822-5.764-3.9-10.37-11.984-20.294-9.035 6.451 13.073 17.582 18.422 26.591 26.119 20.19 17.273 38.774 35.832 43.81 64.473 2.711 15.413-.025 29.574-14.045 37.915-13.38 7.981-26.883 6.438-38.329-4.337-8.273-7.802-15.243-17.162-22.957-25.649-4.03-4.449-5.213-12.704-14.636-12.884-.784 11.752 5.804 19.099 10.305 27.123 12.086 21.559 18.392 44.533 15.26 69.692-4.033 32.335-23.92 53.269-53.095 58.37-11.082 1.937-15.866-1.672-17.112-13.031-3.158-28.631 2.153-55.257 16.076-80.005 4.8-8.521 9.478-17.119 14.207-25.674-31.693 24.517-45.202 61.095-60.93 95.967-9.058 20.102-14.054 28.057-26.504 28.726a47 47 0 0 0 2.68-3.798c22.852-35.943 31.335-75.856 32.063-118.169 2.122-61.755-22.365-111.911-60.557-155.793-8.58-9.866-23.548-28.203-29.91-20.625-9.398 11.196 8.136 24.08 16.482 34.409 12.538 15.474 24.162 31.178 28.573 51.494 5.15 23.686-7.486 37.675-29.942 34.889-15.687-1.937-25.855-12.044-36.476-22.588-3.999-3.968-10.466-9.326-15.485-3.154-5.285 6.506 1.393 11.478 5.69 15.173 13.762 11.847 27.742 23.488 38.937 38.121 8.889 11.632 23.168 24.465 14.603 39.887-9.196 16.57-28.113 14.607-44.635 12.532-3.853-.471-7.657-1.928-11.332-3.403-6.719-2.7-13.284-5.803-19.962-8.615-3.02-1.277-6.792-2.923-8.75.866-2.47 4.766.972 7.707 4.605 9.79 2.867 1.654 5.853 3.086 8.872 4.414 47.144 20.642 57.41 35.009 56.672 86.28-18.472-3.497-37.026-6.403-55.612-8.983.099-.935.139-1.98.09-3.138-.81-23.008 3.82-45.296 7.908-68.304-16.489 18.842-24.099 42.005-28.784 66.513a17 17 0 0 0-.277 2.117c-4.484-.574-8.968-1.14-13.462-1.697-16.602-2.075-21.353-8.264-19.45-24.586 6.013-51.288-9.593-95.941-38.888-135.897-6.8-9.283-9.925-22.442-22.787-27.096.59 12.832.47 12.918 9.123 26.668 23.118 36.69 34.071 76.799 26.89 120.621-3.43 20.985-12.045 33.963-35.77 31.152-6.42-.755-12.87-1.226-19.307-1.355-.324-1.157-.769-2.357-1.223-3.532-13.566-35.163-35.309-63.589-63.657-86.503 7.731 13.107 15.785 25.777 21.476 39.836 6.694 16.527 13.275 33.166 18.634 50.199.146.463.3.909.453 1.329-18.262 2.434-35.852 8.341-51.564 19.013-28.348 19.254-49.33 8.272-70.935-8.855-26.04-20.642-43.364-47.928-50.949-81.78-1.287-5.726-.38-12.55-8.337-17.753-2.21 15.636-1.482 29.506 3.318 43.153 8.168 23.188 20.861 43.136 37.738 60.238 3.934 3.994 7.933 7.937 11.851 11.958-43.615-14.89-77.84-42.853-102.262-86.614 2.995 22.047 11.268 40.975 25.482 56.919 22.852 25.623 49.055 45.219 81.653 54.752 8.67 2.529 19.072 3.831 23.605 13.904.056.129.097.24.145.36 6.776 18.002-1.319 31.041-21.459 32.883a161 161 0 0 0-14.247 1.946c-15.623-26.051-61.998-22.853-70.975-53.697-2.93 20.866 14.935 53.783 28.202 64.43 1.336 1.08 2.671 1.852 3.983 2.366a144 144 0 0 0-16.813 10.158c-38.71 27.157-76.278 56.26-124.078 65.012-14.862 2.718-12.013 19.511-9.689 31.59 2.468 12.849 10.28 14.084 20.78 8.486 7.471-3.986 15.687-5.203 23.814-.772-3.01 10.725-14.959 16.373-9.649 30.038 28.13-15.636 57.886-21.748 89.1-21.663 14.384.043 28.882-1.276 43.13-3.428 27.481-4.166 36.414-24.154 49.976-48.477 8.077-14.483-16.238 50.131-44.165 52.712-29.91 2.76-48.18 20.162-67.454 39.664-8.49 8.589-18.05 16.175-27.87 23.025-6.048 4.2-10.626 12.03-19.1 6.116-7.78-5.418-10.026-12.383-6.245-22.189 3.148-8.161-.648-14.882-7.893-19.022-5.432-3.104-10.296-1.312-14.223 3.034-5.043 5.589-6.945 12.533-2.145 18.834 5.87 7.723 4.347 15.104 2.064 23.411-3.48 12.652-6.905 25.425-8.993 38.386-2.104 13.082-8.378 20.497-20.148 24.997-11.762 4.509-24.778 7.998-32.412 20.985 7.221 3.446 14.887-2.666 21.5 3.858-10.264 13.818-27.87 18.465-35.245 34.323 5.74 3.729 10.434-5.092 15.68 2.04-9.422 12.336-18.934 24.586-28.178 37.059-2.008 2.691-6.533 9.061-.632 8.941 15.235-.318 6.816 6.583 3.991 11.469-5.553 9.627-11.543 23.96-15.048 38.061-1.465-3.446-3.602-6.789-6.557-9.849-11.438-11.856-19.072-26.351-27.296-40.504-10.782-18.568-22.463-22.357-41.276-13.845-9.988 4.526-17.039 12.636-24.235 20.745-23.799 26.823-46.125 56.894-76.585 74.151-33.076 18.756-42.23 54.254-67.932 83.229 18.011-2.11 30.72-4.279 43.493-4.887 11.341-.557 19.34-4.089 20.075-17.385.51-9.189 5.076-13.355 13.381-14.633 5.545-.84 9.131-4.971 11.365-10.432 16.004-39.107 51.71-56.954 80.147-82.483 9.301-8.349 18.958-3.617 23.532 8.281a72 72 0 0 0 2.98 6.712c-12.54-4.938-24.067-6.035-29.814-2.503-15.016 9.215-15.42 23.582-13.397 39.964 6.208 50.225 14.416 100.433 6.265 151.396-.736 4.645-.76 10.054.761 14.376 7.431 21.173 16.545 41.858 12.798 66.547 11.891-12.2 21.76-24.714 30.89-37.805 4.241-6.086 4.217-14.23-.672-19.425-8.937-9.541-8.484-18.627-2.93-29.54 1.586-3.129.987-8.384-.203-12.096-10.75-33.757-9.252-68.244-7.22-103.046.955-16.339 6.516-18.748 19.897-13.58 0 0 27.7 11.419 52.778 39.922 10.41 11.847 16.756 27.097 18.165 43.221.64 7.304 1.684 13.819 5.893 24.105 9.406-3.256 4.363-14.083 12.587-17.804 9.115 12.901 18.222 26.145 27.75 39.047 2.17 2.924 6.483 10.278 9.236 1.921 3.877-11.745 7.01-3.43 9.997-.576 13.121 12.534 26 25.34 38.944 38.019 5.723-5.23-3.115-10.87 1.927-15.91 1.546.488 3.626.556 5.01 1.645 47.898 37.993 104.133 59.243 157.13 86.967-11.244 16.013-12.685 35.789-12.685 35.789-4.938 69.427 37.48 142.206 37.48 142.206 7.73 11.041 1.002 18.439 1.002 18.439-35.868 25.289-143.416 18.911-143.416 18.911-18.707 9.695-52.527 30.26-52.527 30.26l53.798 23.025c2.825-1.792 13.672-19.639 13.672-19.639l8.208.42c3.344 6.944 15.154 8.504 15.154 8.504 23.143-26.9 124.952-15.002 124.952-15.002 33.003-2.203 38.248-17.428 38.248-17.428-24.398-26.385-13.292-70.301-13.292-70.301 2.033-3.017 3.554-5.923 4.688-8.684 11.73 64.224 42.586 120.27 87.246 170.512 10.685 12.018 15.995 25.099 15.785 41.07-.47 34.743.64 69.658-2.243 104.179-2.509 30.089.057 52.832-26.826 73.07-15.518 11.599-17.34 25.126-19.67 35.541-.841 3.773-1.465 7.733 2.639 8.599 10.644 2.254 38.943 2.254 39.851-8.376 1.74-20.238 6.128-28.279 15.315-28.186 17.332.163 17.72-11.409 17.411-25.193-1.343-60.881 4.493-120.802 24.876-178.235 4.396-12.397-.194-19.538-8.055-27.081-16.367-15.739-29.958-34.134-32.5-57.897-3.91-36.449.056-72.342 15.6-105.671 14.262-30.586 37.024-55.472 44.585-90.292.188-.849.34-1.715.446-2.58.371-3.283 1.521-7.227 2.274-10.493 1.15 3.232 1.1 9.301.591 13.005a45 45 0 0 0-.397 4.886c-.21 7.86 1.668 14.958 2.227 22.21.695 8.967-10.257 29.266-8.436 39.896 0 0 10.046-32.866 12.863-22.554 2.371 8.709 4.906 17.753 6.412 27.989 5.285-13.656 9.252-14.187 17.04-4.904 11.275 13.442 24.64 11.71 38.126-1.448-21.185 10.612-27.289-1.697-30.113-19.348-.98-6.164-2.307-12.258-3.359-18.414-14.304-83.871-48.998-154.069-116.356-204.826-34.152-25.734-66.928-53.414-102.172-77.683-31.999-22.03-59.27-50.49-84.155-81.145-13.802-16.99-23.094-37.023-29.805-58.283-2.339-7.407-4.638-15.447 3.788-20.205 21.322-12.053 35.342-37.924 63.756-36.955 6.686.223 12.344-5.983 12.894-13.613.624-8.323-3.724-14.847-11.34-17.488-7.019-2.434-14.477-.028-16.724 7.09-4.48 14.191-22.493 9.711-36.48 10.191.25-2.572-.376.405-.044-.084 5.828-8.367 11.357-17.008 17.647-24.98 39.503-50.062 62.265-107.128 66.41-172.612 1.263-20.085 4.954-39.715-23.136-40.135-1.935-.026-5.456-.635-5.423-8.59 33.205 10.099 57.927-16.921 88.792-20.968-41.955 2.872-68.296-54.039-115.327-29.454 10.701-14.342 26.057-4.227 37.933-13.45-7.747-7.347-14.49-14.71-16.806-22.725 3.15.677 8.468-.258 16.878-1.749 24.81-4.381 49.638-4.149 74.433 0 43.655 7.303 131.533 17.625 180.822.223 15.574-5.495 31.133-15.096 45.363-28.537 59.222 6.463 115.78-2.349 170.04-35.173 75.007-45.364 113.435-150.855 82.576-236.175"/></g></svg>