<svg xmlns="http://www.w3.org/2000/svg" xmlns:xlink="http://www.w3.org/1999/xlink" xmlns:inkscape="http://www.inkscape.org/namespaces/inkscape" version="1.1" width="1984.25" height="1984.25" viewBox="0 0 1984.25 1984.25">
<defs>
<clipPath id="clip_1">
<path transform="matrix(1,0,0,-1,0,1984.25)" d="M0 1984.252H1984.252V0H0Z"/>
</clipPath>
</defs>
<g inkscape:groupmode="layer" inkscape:label="Layer 1">
<g clip-path="url(#clip_1)">
<path transform="matrix(1,0,0,-1,1165.2305,516.33499)" d="M0 0C-21.006-.78-41.939 .231-62.662 4.732-72.392 6.849-75.549 8.996-77.297 23.011-77.774 26.852-78.631 27.011-79.964 37.678-74.313 37.772-79.361 37.873-73.631 37.521-16.772 34.092 40.126 28.392 96.005 17.265 75.484-2.512 7.941 .3 0 0M-102.95 21.165C-103.679 8.272-117.707 10.784-125.033 10.158-139.441 8.915-154.061 9.755-168.283 6.832-149.026 27.44-128.701 35.698-103.964 37.678-102.631 29.678-102.707 25.648-102.95 21.165M-230.63-366.322C-226.785-366.108-221.738-365.34-214.63-364.989-239.247-390.869-233.05-390.983-257.416-376.024-296.975-351.722-336.171-326.809-376.103-303.108-406.63-284.989-406.794-285.287-390.127-247.106-389.115-247.766-387.116-250.669-386.63-251.655-380.397-264.316-387.508-279.329-374.492-285.021-363.126-290.001-350.66-276.928-338.494-272.385-326.935-268.073-321.438-271.459-320.086-284.721-318.443-300.793-325.064-323.673-312.574-330.771-303.54-335.906-284.955-323.202-271.047-317.355-256.177-311.098-252.454-316.79-253.19-332.091-254.906-367.366-263.196-368.114-230.63-366.322M-257.335-399.551C-310.647-366.564-355.952-337.587-409.265-304.601-408.326-302.8-407.387-301.017-406.439-299.226-352.722-331.483-307.005-359.741-253.279-391.999-254.631-394.519-255.975-397.039-257.335-399.551M-267.931-98.736-280.478-95.521-270.764-87.806C-265.907-89.521-255.384-85.234-255.384-85.234-257.812-90.378-267.931-98.736-267.931-98.736M392.195 281.42C377.05 323.287 349.786 357.697 318.54 388.051 318.038 388.54 316.46 387.777 314.922 387.511 314.72 375.519 323.591 369.278 329.679 361.734 347.803 339.223 358.375 313.815 358.634 283.958 358.86 257.589 343.747 245.759 320.021 253.697 309.7 257.152 302.432 265.579 293.641 271.519 287.877 275.419 283.271 283.503 273.347 280.554 279.798 267.481 290.929 262.132 299.938 254.435 320.127 237.162 338.712 218.603 343.747 189.962 346.459 174.549 343.723 160.388 329.703 152.047 316.322 144.066 302.82 145.609 291.374 156.384 283.101 164.186 276.131 173.546 268.417 182.033 264.386 186.482 263.204 194.737 253.781 194.917 252.996 183.165 259.585 175.818 264.086 167.794 276.172 146.235 282.478 123.261 279.345 98.102 275.313 65.767 255.425 44.833 226.251 39.732 215.169 37.795 210.385 41.404 209.139 52.763 205.981 81.394 211.292 108.02 225.215 132.768 230.015 141.289 234.693 149.887 239.421 158.442 207.729 133.925 194.22 97.347 178.491 62.475 169.434 42.373 164.438 34.418 151.988 33.749 152.911 34.915 153.794 36.184 154.668 37.547 177.52 73.49 186.003 113.403 186.731 155.716 188.853 217.471 164.366 267.627 126.174 311.509 117.594 321.375 102.626 339.712 96.264 332.134 86.866 320.938 104.399 308.054 112.745 297.725 125.284 282.251 136.908 266.547 141.319 246.231 146.468 222.545 133.832 208.556 111.377 211.342 95.689 213.279 85.522 223.386 74.901 233.93 70.902 237.898 64.435 243.256 59.416 237.084 54.13 230.578 60.809 225.606 65.106 221.911 78.868 210.064 92.848 198.423 104.043 183.79 112.931 172.158 127.211 159.325 118.646 143.903 109.45 127.333 90.533 129.296 74.011 131.371 70.158 131.842 66.354 133.299 62.679 134.774 55.96 137.474 49.395 140.577 42.717 143.389 39.697 144.666 35.925 146.312 33.966 142.523 31.497 137.757 34.938 134.816 38.572 132.733 41.438 131.079 44.425 129.647 47.444 128.319 94.588 107.677 104.853 93.31 104.116 42.039 85.644 45.536 67.09 48.442 48.504 51.022 48.602 51.957 48.642 53.002 48.594 54.16 47.784 77.168 52.414 99.456 56.502 122.464 40.013 103.622 32.403 80.459 27.717 55.951 27.571 55.197 27.482 54.485 27.441 53.834 22.957 54.408 18.473 54.974 13.979 55.531-2.623 57.606-7.374 63.795-5.472 80.117 .542 131.405-15.064 176.058-44.359 216.014-51.159 225.297-54.284 238.456-67.146 243.11-66.556 230.278-66.677 230.192-58.023 216.442-34.905 179.752-23.952 139.643-31.133 95.821-34.564 74.836-43.178 61.858-66.903 64.669-73.323 65.424-79.774 65.895-86.21 66.024-86.534 67.181-86.979 68.381-87.433 69.556-100.999 104.719-122.742 133.145-151.09 156.059-143.359 142.952-135.305 130.282-129.614 116.223-122.92 99.696-116.339 83.057-110.98 66.024-110.834 65.561-110.681 65.115-110.527 64.695-128.789 62.261-146.379 56.354-162.091 45.682-190.439 26.428-211.421 37.41-233.026 54.537-259.067 75.179-276.39 102.465-283.975 136.317-285.262 142.043-284.355 148.867-292.312 154.07-294.522 138.434-293.794 124.564-288.994 110.917-280.826 87.729-268.133 67.781-251.256 50.679-247.322 46.685-243.323 42.742-239.405 38.721-283.02 53.611-317.245 81.574-341.667 125.335-338.672 103.288-330.399 84.36-316.185 68.416-293.333 42.793-267.13 23.197-234.532 13.664-225.862 11.135-215.46 9.833-210.927-.24-210.871-.369-210.83-.48-210.782-.6-204.006-18.602-212.101-31.641-232.241-33.483-237.074-33.929-241.817-34.572-246.488-35.429-262.111-9.378-308.486-12.576-317.463 18.268-320.394-2.598-302.528-35.515-289.261-46.162-287.925-47.242-286.59-48.014-285.278-48.528-291.009-51.468-296.603-54.846-302.091-58.686-340.801-85.843-378.369-114.946-426.169-123.698-441.031-126.416-438.182-143.209-435.858-155.288-433.39-168.137-425.578-169.372-415.079-163.774-407.607-159.788-399.391-158.571-391.264-163.002-394.275-173.727-406.223-179.375-400.913-193.04-372.784-177.404-343.027-171.292-311.813-171.377-297.429-171.42-282.931-170.101-268.684-167.949-241.202-163.783-232.269-143.795-218.707-119.472-210.63-104.989-234.945-169.603-262.872-172.184-292.782-174.944-311.052-192.346-330.326-211.848-338.817-220.437-348.377-228.023-358.197-234.873-364.244-239.073-368.822-246.903-377.297-240.989-385.076-235.571-387.322-228.606-383.542-218.8-380.393-210.639-384.189-203.918-391.434-199.778-396.866-196.674-401.73-198.466-405.657-202.812-410.7-208.401-412.602-215.345-407.802-221.646-401.933-229.369-403.455-236.75-405.738-245.057-409.218-257.709-412.643-270.482-414.731-283.443-416.835-296.525-423.109-303.94-434.879-308.44-446.641-312.949-459.657-316.438-467.291-329.425-460.07-332.871-452.404-326.759-445.791-333.283-456.055-347.101-473.662-351.748-481.036-367.606-475.296-371.335-470.602-362.514-465.356-369.646-474.778-381.982-484.29-394.232-493.534-406.705-495.542-409.396-500.067-415.766-494.166-415.646-478.931-415.328-487.35-422.229-490.175-427.115-495.728-436.742-501.718-451.075-505.223-465.176-506.688-461.73-508.825-458.387-511.78-455.327-523.218-443.471-530.852-428.976-539.076-414.823-549.858-396.255-561.539-392.466-580.352-400.978-590.34-405.504-597.391-413.614-604.587-421.723-628.386-448.546-650.712-478.617-681.172-495.874-714.248-514.63-723.403-550.128-749.104-579.103-731.093-576.993-718.385-574.824-705.611-574.216-694.27-573.659-686.272-570.127-685.536-556.831-685.026-547.642-680.46-543.476-672.155-542.198-666.61-541.358-663.024-537.227-660.79-531.766-644.786-492.659-609.08-474.812-580.643-449.283-571.342-440.934-561.685-445.666-557.111-457.564-556.212-459.887-555.225-462.133-554.132-464.276-566.671-459.338-578.198-458.241-583.945-461.773-598.961-470.988-599.366-485.355-597.342-501.737-591.134-551.962-582.926-602.17-591.077-653.133-591.813-657.778-591.838-663.187-590.316-667.509-582.885-688.682-573.771-709.367-577.518-734.056-565.627-721.856-555.759-709.342-546.628-696.251-542.387-690.165-542.411-682.021-547.3-676.826-556.237-667.285-555.784-658.199-550.23-647.286-548.644-644.157-549.243-638.902-550.433-635.19-561.183-601.433-559.685-566.946-557.653-532.144-556.698-515.805-551.137-513.396-537.756-518.564-537.756-518.564-510.056-529.983-484.978-558.486-474.568-570.333-468.222-585.583-466.813-601.707-466.174-609.011-465.129-615.526-460.92-625.812-451.514-622.556-456.557-611.729-448.333-608.008-439.218-620.909-430.111-634.153-420.583-647.055-418.414-649.979-414.1-657.333-411.347-648.976-407.47-637.231-404.337-645.546-401.35-648.4-388.229-660.934-375.35-673.74-362.406-686.419-356.683-681.189-365.522-675.549-360.479-670.509-358.933-670.997-356.853-671.065-355.469-672.154-307.571-710.147-251.336-731.397-198.34-759.121-209.583-775.134-211.024-794.91-211.024-794.91-215.962-864.337-173.545-937.116-173.545-937.116-165.814-948.157-172.542-955.555-172.542-955.555-208.41-980.844-315.958-974.466-315.958-974.466-334.665-984.161-368.485-1004.726-368.485-1004.726L-314.687-1027.751C-311.862-1025.959-301.015-1008.112-301.015-1008.112L-292.807-1008.532C-289.463-1015.476-277.653-1017.036-277.653-1017.036-254.51-990.136-152.701-1002.034-152.701-1002.034-119.698-999.831-114.453-984.606-114.453-984.606-138.851-958.221-127.745-914.305-127.745-914.305-125.713-911.288-124.191-908.382-123.058-905.621-111.328-969.845-80.471-1025.891-35.812-1076.133-25.126-1088.151-19.816-1101.232-20.026-1117.203-20.496-1151.946-19.387-1186.861-22.269-1221.382-24.778-1251.471-22.212-1274.214-49.095-1294.452-64.613-1306.051-66.435-1319.578-68.766-1329.993-69.607-1333.766-70.23-1337.726-66.127-1338.592-55.482-1340.846-27.183-1340.846-26.275-1330.216-24.535-1309.978-20.148-1301.937-10.96-1302.03 6.371-1302.193 6.76-1290.621 6.451-1276.837 5.108-1215.956 10.944-1156.035 31.327-1098.602 35.723-1086.205 31.133-1079.064 23.272-1071.521 6.905-1055.782-6.687-1037.387-9.228-1013.624-13.138-977.175-9.172-941.282 6.371-907.953 20.634-877.367 43.396-852.481 50.957-817.661 51.144-816.812 51.297-815.946 51.402-815.081 51.774-811.798 52.924-807.854 53.677-804.588 54.826-807.82 54.777-813.889 54.268-817.593 54.041-819.204 53.92-820.85 53.871-822.479 53.661-830.339 55.539-837.437 56.098-844.689 56.793-853.656 45.841-873.955 47.662-884.585 47.662-884.585 57.708-851.719 60.525-862.031 62.896-870.74 65.431-879.784 66.937-890.02 72.222-876.364 76.188-875.833 83.976-885.116 95.252-898.558 108.616-896.826 122.103-883.668 100.918-894.28 94.814-881.971 91.99-864.32 91.01-858.156 89.683-852.062 88.631-845.906 74.327-762.035 39.633-691.837-27.725-641.08-61.877-615.346-94.653-587.666-129.897-563.397-161.896-541.367-189.168-512.907-214.052-482.252-227.854-465.262-237.146-445.229-243.857-423.969-246.196-416.562-248.495-408.522-240.069-403.764-218.747-391.711-204.727-365.84-176.313-366.809-169.627-367.032-163.969-360.826-163.419-353.196-162.795-344.873-167.143-338.349-174.759-335.708-181.778-333.274-189.236-335.68-191.483-342.798-195.964-356.989-213.976-352.509-227.964-352.989-227.713-350.417-228.339-353.394-228.007-352.905-222.179-344.538-216.65-335.897-210.36-327.925-170.857-277.863-148.095-220.797-143.95-155.313-142.687-135.228-138.996-115.598-167.086-115.178-169.021-115.152-172.542-114.543-172.509-106.588-139.304-116.687-114.582-89.667-83.717-85.62-125.672-88.492-152.013-31.581-199.044-56.166-188.343-41.824-172.987-51.939-161.111-42.716-168.858-35.369-175.601-28.006-177.917-19.991-174.768-20.668-169.449-19.733-161.039-18.242-136.229-13.861-111.401-14.093-86.606-18.242-42.951-25.545 44.927-35.867 94.216-18.465 109.79-12.97 125.349-3.369 139.579 10.072 198.801 3.609 255.359 12.421 309.619 45.245 384.626 90.609 423.053 196.1 392.195 281.42"/>
</g>
</g>
</svg>
