<svg xmlns="http://www.w3.org/2000/svg" width="1984.25" height="1984.25" viewBox="0 0 1984.25 1984.25"><defs><clipPath id="clip_1"><path d="M0-.002h1984.252V1984.25H0Z"/></clipPath></defs><g clip-path="url(#clip_1)"><path d="M1181.7 387.327c-8.658 22.934-4.855 41.974 14.293 58.627-17.459-1.32-42.099 16.933-44.306-16.667 1.942-2.04 3.883-4.08 5.838-6.12 1.542 4.36 2.314 9.28 4.866 12.947 2.527 3.613 6.902 5.827 11.69 3.893-10.466-31.44-30.172-58.293-52.937-89.68 17.538 4.387 21.395 13.894 32.205 23.787-8.829-19-10.17-36.747-29.16-41.68-7.553-1.96-15.49-1.107-14.387 13.36-10.252-13-5.519-27.907-16.409-39.44 21.741-1.534 36.58 5.84 48.654 18.693 11.236 11.973 21.568 24.84 31.965 37.573 5.798 7.107 10.971 16 7.687 24.707m20.517 252.48c-32.165-43.586-40.237-104.52-96.23-130.747 16.754-2.426 32.02 2.721 47.536 5.214 5.585.907 9.03 4.587 10.584 10.32 10.56 38.96 23.47 77.12 38.11 115.213M1104.43 418.1c-5.93-.693-15.344 4.574-16.634-5.253-1.317-9.986-15.239-9.947-10.465-23.227-10.903 5.134-4.374 12.814-11.223 15.707-5.212-8.146-4.667-16.32 2.514-21.613 6.795-5.013 12.153 2.587 17.632 5.88 5.664 3.413 11.102 7.227 16.607 10.933 4.43 2.987 8.763 6.533 9.295 12.067.48 4.933-4.002 5.946-7.726 5.506m152.797-31.919c9.706.386 23.083-.107 24.108 13.213.917 11.773-10.864 9.373-14.627 9.813-14.906 1.147-23.922-2.12-25.25-14.173-1.438-13 9.918-9.08 15.77-8.853m78.638 264.2c-12.699-20.8-31.754-38.88-31.714-62.52.054-27.4 2.154-54.347-9.454-80.56 21.808 24.56 50.183 125.533 41.168 143.08m-282.137-86.227c-3.577 32 5.16 62.48 9.933 93.894-15.186-31.614-34.692-58.734-64.69-77.454-14.693-9.16-14.587-26.16-9.215-38.36 5.705-12.92 22.591-12.133 35.596-12.48 23.137-.627 30.663 14.013 28.376 34.4m-137.53-136.773c-12.807-4.12-23.125-11.8-28.577-24.334-1.17-2.68 1.583-7.56 6.955-5.467 12.845 5.027 23.402 12.814 30.264 24.747-1.25 5.454-4.933 6.253-8.643 5.054m-3.059 399.334c-.266 9.64-.598 10.306 8.537 7.533 22.18-6.734 43.375-5.147 64.252 8.746-15.61 0-31.222.334-46.819-.119-9.255-.267-17.832.933-25.212 6.8-4.454 3.547-8.443 10.64-14.746 4.573-5.598-5.4-14.933-10.6-12.367-19.573 1.835-6.48 7.806-13.147 13.736-16.707 7.075-4.24 12.846.267 12.62 8.747m19.812-16.36c-14.188-17.187-12.047-32.014-12.539-51.28 17.592 15.853 14.88 31.226 12.54 51.28m-1.663-107.96c7.26 17.013 12.965 34.36 10.132 54-13.763-15.654-10.557-35.094-10.132-54m66.286 158.133c2.872 2.107 7.485 3.507 6.755 8-.825 5-4.88 6.56-9.76 7.067-22.699 2.386-45.383 5.053-68.08 7.546-6.823.747-11.663-2.493-13.99-8.68-2.779-7.4 2.845-11.373 7.86-14.266 11.926-6.854 25.09-8.587 38.241-6.987 13.91-.867 27.352-1.24 38.974 7.32m-66.632 72.267c3.192-10.107 12.247-9.053 19.188-11.8 9.308-3.68 16.993-9 20.331-18.84 2.42-7.147 4.055-16.8 14.148-12.347 12.406 5.494-7.18 10.467-1.436 17.307 7.78-3.054 12.605-12.494 25.57-10.507-20.398 28.12-51.287 27.413-77.8 36.187m88.158-15.453c-2.685 14.506 26.262 1.453 17.034 17.493-11.569 45.427-17.978 89.813-32.817 132.013-2.353 6.708-6.143 14.708-14.44 16.094-8.817 1.48-9.415-7.4-13.178-12.56-13.683-18.76-30.344-32.774-55.302-32.867-11.968-.04-24.068-5.107-27.246-15.867-3.537-12 9.388-17.133 18.191-22.599 33.15-20.574 59.038-50.054 89.794-73.56 5.718-4.36 18.191-9.374 17.964-8.147m-143.395-302.6c-2.579-6.108-4.042-11.854 3.032-15.16 5.704-2.654 13.177-6.8 17.924-5.028 8.417 3.147.133 10.147-.359 15.294-2.087 21.613 4.31 42.013 10.306 68.053-21.342-20.787-22.632-43.533-30.903-63.16m333.81 511.907c-22.606 5.374-41.102 22.774-66.127 21.014-18.164-1.28-33.868-.573-48.44 15.347-9.974 10.893-30.105 10.226-41.036 24.133 28.575-58.426 89.795-64.08 155.602-60.494m-98.77-29.066h.013c8.151 4.213 26.315 5.76 33.096 7.707-13.429 11.466-22.047 4.973-38.987 6.32 2.221-5.134 3.724-9.933 5.878-14.027m61.352 654.601c75.713 8.161 147.864-2.253 216.995-34.627 17.565-8.212 29.56-22.773 48.002-38.693-39.28 84.227-292.6 118.16-374.87 67.067 39.558-2.053 74.862 2.466 109.873 6.253m-11.049-88.64c67.083 3.333 132.344-7.573 196.69-25.627 4.281-1.199 8.815-1.506 13.23-2.239 13.31-6.12 26.9-11.694 39.865-18.507 12.751-6.707 24.865-14.654 38.042-20.667-18.828 25.467-47.39 33.52-76.059 41.387-80.34 34.013-213.803 47.48-251.035 22.96 15.212 1.053 27.22 2.093 39.267 2.693m147.876-43.52c-53.414 15.666-107.108 15.694-161.014 2.933 53.667 1.947 107.347 2.813 161.014-2.933m125.018 118.44c-33.987 21.893-70.753 37.853-113.277 30.933 56.3-17.04 112.214-33.092 140.031-90.933 6.383 16.346-3.324 44.893-26.754 60m-18.522 50.16c11.847-16.453 27.405-25.413 43.561-37.08-3.35 23.574-18.496 36.267-43.56 37.08m-51.115-5.92c17.778-7.507 35.65-13.133 53.162-19.893-12.62 20.586-31.514 24.666-53.162 19.893m-213.018 9.721c-32.71.812-62.138-14.6-91.272-25.908 30.863 6.521 61.725 13.04 92.588 19.574a3645 3645 0 0 0-1.316 6.334M861.466 623.021c2.58 5 4.495 10.613 1.968 17.253-7.99 20.973-5.345 46.507-13.589 64.574-20.052 43.867 6.196 84.573-.253 126.387-.718 4.653 4.07 11.067-2.753 13.48-5.97 2.12-9.932-4.2-11.515-8.227-7.5-19.147-14.042-38.667-20.583-58.174-.706-2.093-1.503-7.093 2.872-6.293 2.273.413 3.79 5.04 6.967 9.707 3.843-47.013-10.026-90.987-6.98-136.107 5.477 20.587 9.945 41.347 20.49 60.56 1.808-37.053-21.754-70.187-19.453-107.653 11.235 16.066 16.435 34.453 22.724 52.76 2.22-29.214-9.773-58.4 1.53-86.16-6.21-7.534-8.737 18.893-15.997.266-.266-.667-.439 6.947-2.194 10.253-3.032 5.721-5.106 14.894-12.672 13.281-11.489-2.467-2.753-11.667-1.835-16.507 4.973-26.2 11.794-52.053 11.595-79.014-.093-13.08 4.667-18.426 21.581-5.693-24.706-31.507-24.467-55.427-3.444-74.48 1.422 13.426 1.503 13.467 14.042 4.76-.599 9.773-8.072 20.853 6.528 25.933 1.93.667 2.341 13.934-.558 19.08-17.818 31.494-3.138 59.747 7.1 88.574 5.386 15.146-7.539 26.773-7.832 41.533-.199 10.32-2.925 19.84 2.261 29.907m-71.033 1.947c-7.273 15.92-11.542 31.4-7.46 48.866.878 3.747 1.53 9.534-4.44 11.134-3.71.986-8.059.6-9.175-3.88-1.09-4.4-10.678-6.427-4.016-12.76 12.805-12.134 7.007-26 3.337-39.134-3.723-13.36-11.289-25.893-8.683-40.44 2.061-11.587-12.472-3.507-13.722-15.467 11.41 6.174 24.054-.96 31.221 10.52-4.042-8.106-.744-21.853-18.523-17.879-5.039 1.133-8.39-11.268-7.339-18.907 4.002-29.107 7.938-58.254 13.23-87.147.984-5.36 4.495-13.827 13.031-13.533 8.178.266 3.896 8.24 6.157 12.333 7.712 13.906.292 27.6-.77 41.507-2.488 32.24.517 64.347 6.86 96.013 1.954 9.814 4.215 20.2.292 28.774m-24.626 411.587c-1.742 4.027-9.56 3.454-12.18 1.001-11.01-10.334 3.378-20.188 1.516-30.788 8.75 9.054 15.664 18.227 10.664 29.787m-23.509-175.627c-16.675-24.547-16.595-52.24-20.065-78.094-3.112-23.199 8.935-48.48-12.805-68.933-4.109-3.88-5.146-15.747 4.255-19.213 25.357-9.374 21.607-29.814 19.786-49.534-.466-5.08-3.125-9.973 3.47-16.467 13.297 20.12 12.686 43.374 11.941 63.761-.904 24.506 2.686 49.293-.306 72.827-2.646 20.866-3.563 40.506-.598 61.013 1.582 10.84 1.808 22.187-5.678 34.64m-34.266 278.121c-8.43 10.346-12.912 21.4-12.5 34.48.36 11.666 1.25 23.32 1.915 34.986-8.364-12.28-8.563-25.813-8.297-39.693.306-16.72 5.717-33.813-5.306-49.8-7.247-10.507 11.915-8.72 8.936-21.507 7.273 9.347 4.361 18.973 11.781 25.241 5.478 4.626 6.33 12.786 3.471 16.293M669.79 906.77c-2.406-22.28-4.295-44.614-6.023-66.948-1.623-20.746-3.43-41.387-15.345-62.8 21.767 3.293 27.471 17.68 28.176 32.48 1.556 32 1.503 64.067 8.617 95.534 1.436 6.32-2.06 11.533-6.728 12.466-6.729 1.347-8.19-5.933-8.697-10.733m-6.489 61.774c-7.287-.307-15.53-8.694-12.446-17.734 3.098-9.066 3.923-18.16 4.694-33.026 11.29 13.186 11.622 24.466 13.856 34.68 1.29 5.933 2.233 16.427-6.104 16.08m-21.727-231.974c4.521-24.72 5.186-49.414 2.832-78.974-6.263 14.48.093 26.427-6.82 37.001-10.2-23.348-7.806-48.054 5.318-61.987 8.417-8.934 17.34-8.174 29.825.466-23.749-4.8-18.816 8.827-18.177 20.36 1.57 28.494 7.978 57.827-12.978 83.134m-17.885 168.013c-15.012-39.546-29.546-79.187-24.572-122.893.08 42.8 33.974 78.027 24.572 122.893m62.124-154.093c21.328 30.386 28.443 97.693 11.116 118.987 2.394-41.44-3.616-78.027-11.116-118.987m-8.696-228.974c-.984-5.213 10.89-5.066 15.345-2.84 6.53 3.254 4.295 11.88 1.13 15.734-6.423 7.786-14.946 13.813-23.283 21.173-5.85-13.68 9.202-21.414 6.808-34.067m747.307-298.894c34.572 25.333 69.144 34.667 98.398 65.333-1.197-16.253-8.018-39.186-22.778-44.133-16.382-5.493-30.517-14.826-44.612-24.48-25.144-17.213-50.674-33.773-78.146-47.16-31.395-15.28-61.964-18.507-93.173 1.68-8.257 5.347-18.934 13.36-30.463 5.24-15.012-10.573-27.857-6.187-39.97 5.013-4.934 4.574-9.72 9.294-14.6 13.934-4.84 4.587-7.315 12.64-20.426 12.2 17.473-25.187 37.498-40.52 63.653-49.72 21.21-7.454 44.732-11.067 65.941-32.4-29.773.4-50.556 16-74.822 17.52-9.082.56-19.414 5.48-29.853 5.386-9.268-.066-19.36.227-20.916 11.84-1.728 12.8-11.063 19.467-18.828 27.174-17.274 17.16-30.823 36.666-38.828 59.573-3.204 9.173-7.114 16.84-16.422 19.707-12.393 3.813-22.06 11.667-32.006 19.32-8.43 6.48-18.018 11.613-28.469 11.493-24.346-.253-48.042-2.853-58.6 28-7.393 21.614-35.862 22.547-46.593 43.294-10.41 20.146-25.836 22.307-43.375 5.813-8.51-8-20.463-11.88-25.636-24.107-1.649-3.893-7.513-5.4-13.497-3.813-8.696 2.293-4.122 6.533-3.749 11.454 1.422 18.813-14.202 38.506-31.568 34.16-39.239-9.827-54.158 33.586-86.816 36.24-1.543.12-4.135 5.106-3.816 7.506 2.141 16.32-10.93 22.307-20.677 28.947-29.48 20.053-54.757 43.32-63.227 79.493-2.195 9.334-20.292 16.174-5.532 28.694-13.43 12.653-26.86 25.293-40.29 37.933-12.433-13.64-10.265 4.307-11.396 6.667-21.594 45.187-32.125 94.227-48.109 141.387-4.135 12.213-1.954 21.533 7.514 30.066 9.228 8.321 13.137 19.64 16.381 31.427 8.91 32.454 14.733 65.481 18.55 98.867 1.09 9.6 3.35 19.04 13.975 20.08 12.233 1.214 2.7-12.546 9.294-18.92 14.481 29.16 26.528 56.654 34.945 86.027 21.901 76.333 19.866 156.401 38.096 233.72 8.91 37.814 16.143 79.067 11.888 120.201-1.596 15.52.332 34.84 8.563 47.08 9.853 14.666 21.475 26.2 17.632 45.64-1.05 5.293 1.383 11.6 7.207 12.427 7.845 1.12 9.614-5.84 10.478-11.947.625-4.426 1.077-9.2.146-13.506-8.018-37.24-7.273-75.72-19.08-112.735-8.112-25.413 4.161-53.387-1.025-80.226-.239-1.253.6-3.227 1.596-4.133 16.05-14.707 8.962-30.96 3.842-47.52-3.137-10.16-4.534-20.868-6.714-31.334 15.796 18.76 18.815 42.347 28.136 63.8 13.31-23.88 1.383-50.653 12.486-77.72 15.478 34.947 32.525 61.666 74.224 53.454 12.194-2.4 18.204 7.747 19.706 19.827 7.021 56.56 18.536 113.08.692 169.746-1.516 4.813 1.024 8.707 3.031 12.773 8.537 17.254 2.195 31.92-9.108 44.774-21.887 24.867-44.678 49.306-74.13 65.027-46.248 24.68-204.589 89.467-259.147 101.587-47.15 10.467-91.138 34.892-143.58 45.16 23.321 10.066 43.52 10.546 63.306 13.48 6.555.973 19.094.333 18.283 8.334-1.316 12.92-17.618 16.826-23.895 28.533-3.23 6.026-11.395 2.587-18.057-.814-12.659-6.453-19.746-22.386-37.192-22.893 21.09 42.386 76.485 95.867 146.081 91.413 113.757-5.533 189.855-27.8 244.453-50.72 25.77-10.813 47.617-28.773 65.275-50.479 3.165-3.88 7.181-5.815 12.912-3.495 19.188 7.774 23.23-7.172 18.908-18.212-3.816-9.76 3.777-28.974-17.685-29.587-5.093-.134-2.699-5.347 1.051-7.467 6.528-3.667 5.372-9.6 1.755-13.253-11.555-11.653-.2-18.2 4.082-26.987 14.76 14 24.972 28.92 22.552 49.653-2.128 18.174 1.25 35.267 6.595 52.921 7.952 26.266 16.395 53.507 17.193 80.56 1.21 40.813 24.095 55.16 58.215 65.546 35.57 10.827 71.645 14.84 108.171 18.068 103.518 9.132 206.836 9.653 309.315-10.254 38.83-7.533 78.333-12.934 115.02-29.36 17.686-7.92 35.916-22.52 31.142-39.427-7.02-24.894-7.22-51.16-18.497-75.387-22.085-47.467-33.787-97.827-29.958-150.814 2.62-36.294-9.334-69.32-22.099-102.12-3.696-9.48-10.664-16.867-21.927-24.2 0 23.72-.705 43.987.213 64.187.824 18.346-6.529 34.52-15.664 48.24-28.948 43.533-125.577 72.294-176.824 57.04-18.616-5.533-26.688-17.547-36.912-31.946-12.154-17.12-14.827-45.254 3.47-54.68 24.387-12.56 43.547-31.68 66.193-46.134 18.761-11.973 31.567-27.493 39.598-49.294 10.28-27.92 24.16-54.373 51.672-71.093 25.198-15.334 35.171-42.36 46.261-68.334-4.003.934-6.86 2.894-9.32 5.281-17.78 17.173-34.215 35.493-49.839 54.733-13.03 16.026-29.187 21.627-49.664 9.906-11.569-6.613-27.273-2.839-39.067-11.986-2.367-1.84-8.722-1.693-10.398 4.773-4.016 15.547-9.122 5.507-13.55.227-3.803-4.533-1.556-13.64-11.196-15.066-2.673 7.36-4.175 14.84-7.95 20.906-3.592 5.773-3.91 16.933-13.884 14.986-6.7-1.306-14.746-4.92-16.103-13.733-1.196-7.84-6.98-10.213-12.525-14.227-8.857-6.413-17.818-13.026-19.893-25.892-3.909-24.16-8.284 4.826-12.95.012-2.887-10.012 2.38-15.04 11.142-18.439 9.215-3.587 20.624-8.228 22.684-17.16 4.442-19.2 20.664-21.507 33.67-25.4 13.575-4.053 23.016-12.534 34.292-19.28 8.496-5.094 4.587-9.04 3.55-14.44-1.409-7.347-5.598-10.347-12.725-8.52-6.503 1.68-12.898 3.746-19.28 5.866-25.425 8.4-51.182 12.453-75.05-2.907-8.31-5.347-16.434-8.267-32.15-8.8 56.191-31.36 116.028-40.693 187.833-46.026-28.164-19.56-53.042-56.587-88.479-64.6l31.301 28.6c-21.354-1.494-33.282-6.787-51.765 4.4-5.678 3.426-15.412 1.106-17.884-5.387-7.699-20.16-27.512-18.2-44.785-18.867 3.111-13.827 4.282-19.386 2.74-34.813-.799-7.96-1.424-20.787 3.735-26.774 3.644-4.213 5.931-11.213 13.777-8.44 6.767 2.387 8.443 7.907 8.057 14.454-.997 17.36 5.36 28.267 14.095 43.56 10.08-3.987 13.43-14.293 21.714-22.706-16.66 10.173-21.182 7.213-23.708-8.814-.426-2.667-3.045-5.44-.97-7.96 1.927-2.32 5.478-3.494 8.004-1.107 20.876 19.787 51.898 4.64 71.126 28.801-6.144-12.575-13.67-24.868-26.74-28.348-12.048-3.199-24.587-9.359-35.903-14.666-7.845-3.68-13.457-5.854-11.715-14.52 2.181-10.907 12.18-5.387 18.83-5.84 8.27-.547 19.931 5.106 18.402-10.76-1.25-12.814-10.638-23.28-21.927-19.52-15.956 5.306-32.538 6.466-53.055 10.666 26.421 14.814 9.813 19.04-1.449 22.908-6.848 2.36-14.32.986-21.755-2.108-8.642-3.6-17.67-8.653-27.87-5.04-.81 8.027-3.07 16 3.936 23.054 5.997 6.04 5.293 12.587-2.99 15.813-7.236 2.814-13.67-.24-15.945-7.747-4.268-14.133-3.018-26.666 13.164-32.826 8.59-9.427 20-8.374 31.168-8.76 4.707-.16 11.077 3.293 13.763-3.294 2.82-6.88-2.14-11.4-6.928-15.12-12.366-9.626-16.834-23.68-23.76-36.973-7.834-15.04 2.06-28.014-1.185-40.387-4.867-18.587-12.459-36.573-17.712-55.28-7.007-24.934-16.395-48.347-47.218-52.414-4.64-.613-10.983-4.186-12.738-8.093-9.215-20.627-19.772-18.44-30.969-1.653-2.832-14.774 3.444-26.467-15.783-32.147 3.244 9.187 1.994 17.88 3.643 25.373 1.516 6.88 4.441 11.52-3.31 15.014-4.03 1.827-7.793 2.546-9.375-1.307-2.248-5.493-8.617-10.973-.958-17.866 8.138-7.334.692-15.147-.545-22.934-4.667-29.213-23.815-53.534-26.793-83.507-1.609-16.2 2.552-32.76-4.482-48.88-2.633-6.026-20.464-21.066 6.131-21.013 3.603.013 3.244-7.667 3.35-12.174.173-6.773.52-13.533.572-20.306.12-14.974 17.313-30.2-.718-45.147-1.117-.92.532-8.013 1.383-8.12 20.996-2.453 5.505-14.427 4.188-20.467-1.303-6.026-9.16-13.08-1.462-17.04 6.994-3.613 10.531 6.413 13.922 11.627 2.672 4.12 5.266 10.266 4.188 14.573-6.196 24.747-.904 42.107-8.696 70.88l-4.215-6.293c-1.848 1.36-3.683 2.707-5.532 4.067 23.23 26.453-9.454 59.693 12.858 86.266-.983-10.333-2.034-20.68-2.899-31.053-.57-6.84 1.97-14.426 9.335-10.186 22.153 12.76 50.542 16.84 64.04 42.173 10.038 18.84 23.401 36.053 27.523 58.013 1.783 9.48 6.49 18.6 19.907 16.24 14.094-2.479 15.318-11.946 14.48-23.413-2.38-32.533-.918-65.493-8.51-97.467-8.205-34.56-2.3-71.293-21.767-104.707-9.096-15.626-19.24-34.933-15.877-56.267 1.264-7.959 1.888-16.426 11.727-15.573 8.431.734 12.167 8.254 11.743 16.654-.719 13.866.24 26.586 12.02 36.746 3.084 2.667 4.84 12.547 2.766 14.627-11.237 11.227 1.182 17.067 4.414 24.787 7.512 17.92 26.434 23.067 39.4 34.92 36.021 32.96 52.43 78.826 78.132 118.573 12.832 19.84 7.554 27.574-13.27 33.614-30.636 8.866-49.917 33.226-47.377 58.466 6.223-22.693 23.642-28.466 42.324-38.533 6.622-3.587 12.991-9.64 20.517-4.667 8.484 5.587 2.74 9.187 3.631 16.654 4.03 33.8-35.596 56.16-22.792 91.64.24.654-.943 2.173-1.82 2.853-20.983 16.307-5.745 17.267 7.871 18.467 10.013.88 18.018 6.613 26.953 10.133 22.618 8.934 43.826 24.347 71.18 17.574-5.44-9.293-19.707 1.466-21.862-12 8.75-3.987 19.334 1.973 30.664-8.347-28.23 2.974-52.43 3.04-78.905-10.347 6.967-.92 9.161-1.48 11.356-1.453 17.405.213 36.407 5.08 42.244-20.373 2.54-11.094 10.28-5.454 15.585-1.507 10.424 7.787 20.677 12.773 33.268.92-34.133-16.094-67.535-30.76-106.948-16.08 13.484-12.68 18.151-25.64 9.494-42.187-3.67-6.987-.69-14.867 3.764-21.253 13.762-19.694 13.443-42.32 7.885-63.174-8.058-30.16-7.925-61.76-24-89.12-2.993-5.067-6.145-9.72-6.398-16.373-1.063-27.734-17.738-52.88-27.098-78.814-3.604-9.96-4.908-19.347 4.786-26.213 5.824-4.134 11.608-1.774 15.664 3.746 5.811 7.894 16.355 15.227 4.282 26.107-8.165 7.36-3.378 14.734-.226 23.854 1.728-5.187 2.938-8.84 4.15-12.48-.413 24.533 19.332 32.613 34.757 42.88 80.54 53.613 107.866 139.654 128.595 225.68 13.723 56.96 32.58 110.547 55.037 164.374 5.745-4.294 3.045-7.987 2.752-11.414-2.819-33.226-21.767-62.533-24.04-95.613-2.06-30.133-9.163-59.36-12.779-89.134-3.657-30.12-23.23-54.933-25.45-85.893-1.144-15.947 5.212-32.107-.094-47-18.15-51.094-37.378-101.76-67.68-147.347-6.969-10.494-18.365-19.107-19.123-33.48 8.231-2.427 11.276 3.213 14.002 6.827 6.41 8.52 12.433 17.346 18.111 26.373a383 383 0 0 1 5.16 8.4c12.976 21.68 24.173 44.373 36.58 66.387 6.195 10.986 12.671 21.8 19.812 32.2 6.236 9.093 12.58 19.506 22.26 25.267 3.43 2.04 9.148 5.933 13.216 3.786 5.851-3.093 5.346-15.027 4.946-20.467-.704-9.706-3.656-19.226-7.977-27.893 2.233 4.48 3.67 39.267-7.354 27.534-7.486-7.96-14.826-16.254-21.102-25.227-1.61-2.32-16.209-26.6-13.47-28.04 5.04-2.654 26.195 24.413 29.054 27.453-2.02-6.52-21.595-34.547-23.736-41.387 13.777.52 62.896 36.747 72.63 43.96.89-1.626-28.722-36.933-35.145-41.44-26.182-17.48-64.61-68.267-77.588-82.253-2.687-2.894-8.164-6.147-3.524-9.747 3.896-3.026 11.595 3.747 15.957 5.333 8.111 2.947 35.902 17.334 51.406 18.894.811-1.707-20.584-14.627-23.828-17.054-39.386-24.04-70.648-64.333-125.83-57.36 28.655-6.973 69.902-1.266 115.351 26.254-7.513-10.147-48.693-39.294-56.712-47.653-7.565-7.894-9.002-24.947-19.612-24.974-11.263-.026-18.164-15.907-30.982-8.2 5.464 12.267 16.713 10.507 23.721 22.093-10.597 0-16.368-.52-24.306-2.786-7.06-2.027-18.23-3.68-26.222-7.88-27.924-14.667-40.25-29.88-34.572-40 11.966-21.334 14.76-29.827 25.263-38.667 14.494-12.2 24.135-22.747 42.79-22.787 16.53-.027 33.495 2.867 49.492.067 53.774-9.44 97.747 7.12 135.218 45.587 5.612 5.746 25.025 7.266 37.112 2.466-41.859-42.32-96.803-72.973-155.509-82.187-3.31-.52-5.758-.879-6.037-4.6-.359-4.64 85.341 12.067 116.336 34.787"/></g></svg>