<svg xmlns="http://www.w3.org/2000/svg" width="2048" height="1920" viewBox="0 0 2048 1920"><defs><clipPath id="clip_1"><path d="M0 0h2048v1920H0Z"/></clipPath></defs><g clip-path="url(#clip_1)"><path fill="#231f20" d="M1575.504 1771.684c.02 12.48-3.62 14.61-14.97 14.51-59.98-.54-163.03-.45-223.03-.08-11.61.08-18.57-4.31-25.69-13.83-20.19-27.01-46.07-39.49-79.88-29.96-15.81 4.46-30.84 3.64-45.67-2.92-21.48-9.51-42.93-19.16-64.49-28.48-34.49-14.9-69.26-28.87-106.25-36.64-13.49-2.83-22.1-8.74-20.45-28.48 4.91-58.45 10.74-116.87 10.12-175.64-.21-20.56-3.5-40.69-7.76-60.77-10.37-48.92-47.44-72.81-86.85-94.43-16.54-9.06-34.92-13.86-52.31-20.97-5.78-2.35-11.56-4.95-16.81-8.26-7.94-5.03-10.04-13.19-2.61-19.32 23.37-19.29 23.56-48.3 28.59-75.58 3.09-16.69 9.81-34.91 18.5-50.95 12.7-23.44 17.92-51.43 10.55-77.73-4.56-16.28-2.29-32.34 1.03-48.56 3.92-19.1-.8-40.92-14.98-54.96-6.78-6.72-13.98-8.68-18.46-16.98-1.9-3.52-3.24-7.23-2.48-11.32.86-4.53 3.36-8.67 7.62-9.69 4.34-1.04 5.14 4.14 6.68 6.92 13.34 24 26.4 48.16 39.62 72.22 1.45 2.63 1.98 7.09 5.5 6.89 3.94-.21 4.74-4.78 5.88-7.92 3.16-8.59 4.36-17.71 3.79-26.74-1.77-28.28.78-56.72-2.75-84.93-1-8.12.71-10.46 9.2-6.81 41.75 17.91 83.7 35.36 125.64 52.75 2.82 1.16 5.78 5.62 9.26 1.76 4-4.45-.73-7.13-3-9.86-29.79-35.55-59.69-71-89.5-106.55-2.45-2.92-5.86-5.25-6.7-9.65 3.68-3.35 8.16-1.62 12.15-1.67 58.81-.73 117.61-1.45 175.76-11.93 10.79-1.95 21.46-4.64 31.06-10.31 2.64-1.56 6.17-3.34 5.83-6.81-.37-3.73-4.49-3.74-7.33-4.62-33.34-10.14-66.83-19.79-100-30.45-23.12-7.43-46.05-15.71-66.35-29.59-12.36-8.45-12.77-10.16-.86-19.31 54.65-42 104.32-89.43 152.17-138.94 24.09-24.89 46.04-44.39 63.01-74.95 5.64-10.14 12.37-26.6 14.1-40.3-80.82 40.64-160.01 69.41-226.52 99.19-.65-6.03 54.82-80.8 74.8-119.11 33.27-63.82 60.41-130.45 86.56-197.47 8.69-22.27 26.41-57.25 32.88-80.38l.024-.082a11.3 11.3 0 0 1 10.864-8.189c113.296-.022 225.758-.083 329.382-.229 11.13-.02 15.17 1.68 15.15 14.4-.39 541.24-.39 1082.47-.02 1623.71m-324.97-17.61c22.06 1.7 38.33 12.97 49.72 31.72-16.71-10.66-32.01-23.12-49.72-31.72m-28.55 27.62c-52.79-20.24-104.82-42.49-159.11-58.55-15.03-4.44-30.63-6.95-45.67-11.34-7.29-2.13-18.67-3.15-16.3-14.56 2.63-12.77 13.36-6.95 20.4-5.02 42.04 11.56 82.5 27.71 122.71 44.42 26.83 11.14 53.45 22.82 78.92 36.9 5.37 2.97 11.28 5.36 15.95 11.39-7.11 2.04-11.91-1.34-16.9-3.24m-241.72-284.47c-1.54 45.98-5.03 91.91-7.64 137.85-2.23 38.87-1.15 77.75-.49 116.64.11 7.34.92 14.81-1.47 23.42-7.36-3.76-10.03-10.21-12.57-16.49-6.99-17.3-8.56-35.81-12.05-53.92-7.38-38.29 3.97-75.01 8.06-112.32 4.65-42.59 10.28-85.07 15.13-127.65 3.85-33.76-5.44-63.84-26.78-90.18-7.14-8.83-14.61-17.41-21.92-26.12 22.12 8.46 35.34 25.87 44.29 46.91 13.87 32.58 16.61 67.17 15.44 101.86m-151.06-154.66c-7.47-11.63-14.92-23.27-23.88-37.24-3.06 13.23-3.99 23.59-4.26 34.08-.65 24.79.2 49.62-2.27 74.33-.35 3.26.8 7.94-3.66 8.91-3.37.71-5.01-3.23-7.2-5.36-10.37-10.08-14.2-21.46-10.23-36.22 7.26-26.9 15.21-53.66 19.58-81.31 1.4-8.87 4.8-17.63 13.11-22.89 6.07-3.85 10.68-4.61 11.88 5.03 2.45 19.86 5.64 39.66 8.52 59.48-.53.4-1.07.79-1.59 1.19m-122.42-108.45c-3.39-28.59-4.41-57.26-5.48-85.98-.34-8.88 2.74-13.52 11.71-15.74 11.79-2.9 23.68-5.77 34.77-11.02 13.25-6.28 21.88-16.22 25.25-30.71 1.54-6.56-.29-9.17-7.38-9.37-21.62-.57-43.22-2.1-64.85-2.53-8.17-.16-10.91-2.9-10.75-11.07.18-9.34 5.55-8.63 11.78-7.86 13.78 1.69 27.57 3.3 41.95 2.92-5.03-2.72-10.06-5.44-15.13-8.2-.29-2.67 1.97-3.08 3.47-3.75 25.49-11.3 48.28-20.77 73.66-32.33 7.58-3.45 9.6-1.52 9.69 6.24.33 26.36 1.25 51.83 7.02 77.73 1.72 7.74 1.41 14.72 7.2 22.04 7.06 8.94 13.46 14.4 6.48 27.8-9.8 18.81-12.23 26.11-17.41 39.69-3.03 7.95-10.61 38.34-12.75 53.71-.09.07-.15.13-.15.16-3.12 19.51-14.2 20.11-29.34 19.18-18.89-1.18-37.52-3.92-55.07-11.6-8.55-3.73-13.47-9.21-14.67-19.31m14.56-136.65c1.58-7.61 8.29-8.83 14.76-8.92 6.73-.09 13.92.61 17.87 6.77 3.32 5.18-1.34 8.83-5.07 11.63-11.37 8.45-24.48 13.22-38.52 16.73 4.46-8.83 9.03-16.84 10.96-26.21m-11.11 7.97c-3.67 1.88-4.81-1.34-5.28-3.95-.98-5.49-7.63-3.21-9.78-7.29 4.37-2.83 8.97-2.53 13.54-2.33 3.35.14 4.82 2.25 4.8 5.37s-.19 6.61-3.28 8.2m-41.24 14.21c-1.6-.92-3.53-2.44-2.51-4.68 1-2.18 3.31-1.86 5.1-1.13 8.67 3.59 17.68 5.4 27.08 6.02-10.1 6.13-19.99 5.34-29.67-.21m12.07 116.26c-39.32-22.3-73.42-44.69-112.49-67.42-17.55-10.21-35.75-16.26-56.22-12.34-5.94 1.13-8.72-.5-8.45-7.13.32-8.26.84-16.41 2.09-24.63 1.47-9.63 5.13-18.89-1.21-29.33-4.98-8.21 2.93-12.67 10.88-13.17 18.44-1.15 36.9-2.02 55.37-2.6 12.55-.37 25.13-.07 41-.07-12.86 11.64-23.27 22.28-34.93 31.27-9.46 7.29-20.13 5.06-29.79-1.2-4.22-2.74-8.13-5.96-12.39-9.11-1.33 12.39 1.59 17.53 13.97 21.6 16.12 5.32 32.24 10.32 44.87 26.26-.36-4.37-.32-5.9-.63-7.37-4.39-21-4.41-21.04 15.57-28.03 7.41-2.59 14.86-6.98 22.33-7.03 9.1-.06 5.64 13.55 13.95 16.67-10.31 2.85-20.04-2.06-31.52-.47 6.43 7.69 14.49 8.06 22.19 8.69 10.18.83 20.46-.09 30.52 2.42 9.19 2.29 15.59 7.36 17.72 16.84 5.89 26.08 7.14 52.06 8.07 78.98.43 12.43-.25 13.21-10.9 7.17m-153.3-272.41c-5.09-3.39-7.6 1.66-10.47 4.64-1.09 1.12-2.07 2.36-3.06 3.58-2.04 2.52-4.62 5.19-7.79 4.39-4.15-1.06-2.26-5.25-2.36-8.06-.68-16.91 1.84-20.91 12.73-21.05 13.79-.2 25.65 12.32 25.54 26.96-.14 17.23-13.61 33.12-28.51 33.4-4.75.11-9.53.2-9.92-6.86-.34-6.11 2.29-8.56 7.97-9.06 9.76-.9 17.42-4.71 19.81-15.26 1.12-4.98.3-9.87-3.94-12.68m144.86 117.51c-11.1 3.48-22.41 5.99-36.29 7.72 8.9-13 19.76-18.61 32.1-21.72 2.96-.76 7.7-2.58 8.27 3.11.4 4.03 1.81 9.05-4.08 10.89m-146.73-14.08c-21.89.6-21.9-.05-21.9-21.44 0-3.52.23-7.09-.04-10.62-.39-5.39 1.54-8.27 7.27-7.84.77.05 1.58-.04 2.35-.13 20.81-2.04 38.42-8.97 45.67-30.91 6.72-20.3-1.04-45.34-18.32-59.68-8.08-6.72-17.62-7.9-27.73-7.35-3.74.22-9.22 2.92-9.19-4.78.02-5.93-1.12-12.25 7.56-13.22 7.96-.89 15.75-.16 23.25 2.51 8.51 3.01 16.87 6.45 25.35 9.57 16.37 6.01 34.03-5.57 34.69-22.73.16-4.09-.21-8.21-4.85-9.66-3.93-1.22-7.44.92-8.92 4.16-5.52 12.12-14.64 10.21-23.77 6.16-14.6-6.47-29.81-10.03-45.66-10.48-6.36-.18-7.95-2.65-7.75-8.51.36-10.62.39-21.28 0-31.88-.25-6.88 1.77-9.92 9.22-9.92 37.83 0 75.26-5.54 112.86-8.72 21.39-1.83 23.86-.81 34 18.78 2.34 4.54 4.97 8.91 7.64 13.26.72 1.16 2.03 1.97 4.52 4.3 0-9.64.41-17.34-.11-24.97-.63-9.01 3.76-9.06 9.94-6.2 9.14 4.25 15.91 11.47 22.46 18.83 15.21 17.08 27.85 36.11 40.87 54.86 4.93 7.09 9.95 14.13 15.25 20.94 9.08 11.62 9.33 11.62 17.66-.07 4.51-6.36 8.49-13.1 12.91-19.98 7.22 5.88 5.88 13.29 5.52 20.08-.31 5.84-1.81 11.63-2.9 17.43-6.65 35.54-25.49 58.98-60.67 72.58-66.97 25.9-135.25 43.68-207.18 45.63m152.43 28.39a4.12 4.12 0 0 1 4.12-4.12c2.27 0 4.12 1.85 4.12 4.12 0 2.28-1.85 4.14-4.12 4.14-2.28 0-4.12-1.86-4.12-4.14m6.79 11.93c3.86-.62 5.57-1.02 7.91.75 4.14 3.14-3.99 5.29-7.91 5.29-3.95 0-7.13-.25-7.13-1.92 0-1.66 2.83-3.4 7.13-4.12m148.46-24.34c-3.12-7.47-3.02-13.17-3.44-17.68-1.11-12.09-1.24-22.35-2.06-34.39-1.48-21.56 1.97-27.08 19.33-34.12-2.51 29.13-7.51 56.6-13.83 86.19m13.79 44.96c-15.74-14.96-6.95-28.82-.71-43.74 18.98 15.1 13.29 73.69-9.73 90.02 2.17-9.6 7.36-15.1 11.07-21.33 5.07-8.53 6.77-17.95-.63-24.95m38.57-52.62c2.79 10.9 2.25 21.86-1.46 32.56-2.45 7.06-4.53 14.31-7.64 21.04-14.17 30.54-24.31 62.16-27.64 95.83-1.49 15.03-7.96 25.69-20.57 33.84-3.97 2.58-4.55 3.5-10.25 2.57-5.51-.91-5.36-5.77-4.34-9.62.85-3.24 1.87-6.72 2.8-11.83 0 0 5.5-21.27 5.91-22.81 4.44-16.73 11.35-30.88 25-41.12 2.78-2.08 5.86-4.75 7.02-7.81 10.3-26.81 17.84-54.25 4.01-81.87-6.48-12.95-6.12-21.59.5-34.08 6.99-13.18 13.68-26.96 20.2-40.4 2.15-4.46 4.2-11.51.81-20.04-13.29 21.41-19.94 37.65-29.99 56.63 3.65-28.76 4.68-44.47 10.65-66.46 1.33-4.92 4.01-10.28 9.83-10.66 5.84-.38 8.42 5.03 11.13 9.33 6.3 10 6.84 21.05 3.95 31.92-5.58 21.12-5.32 41.95.08 62.98m-381.62-394.64c1.31-39.64 13.93-77.25 24.45-115.15 6.54-23.52 15.92-46.05 23.95-69.07 1.91-5.46 4.67-10.82 3.72-20.56-17.77 23.19-33.89 44.22-50.28 65.59-3.35-4.03-2.07-7.68-2.09-10.98-.09-63.41.14-122.44-.25-185.86-.07-12.05 4.3-19.49 14.56-25.79 39.87-24.41 121.87-81.5 132.25-85.78-27.56 25.49-37.29 50.46-62.34 77.25 7.14 2.94 258.94-113.28 328.64-144.12-18.38 18.18-60.51 40.02-93.29 59.25-52.13 30.6-83.54 75.43-99.16 133.19 4.39-5.68 8.87-11.28 13.13-17.05 37.6-51.1 78.43-72.71 142.21-75.17 39.34-1.5 90.78-6.59 129.02-16 34.25-8.42 69.71-16.56 103.49-29.27-82.05 60.37-204.65 138.84-282.08 223.25-56.37 61.45-107.13 126.87-145.21 201.48-1.38 2.71-2.49 5.57-2.33 10.16 4.64-3.03 9.52-5.75 13.87-9.14 48.48-37.73 105.08-53.66 164.82-56.81 101.63-5.36 182.58-33.09 280.89-79.58 19.89-9.41 51.52-19.75 80.83-34.09-26.13 33.86-112.15 115.6-176.83 164.81-63.08 48-140.87 55.27-221.31 69.1 20.23 21.81 30.67 45.71 39.19 70.66 8.37 24.45 14.96 49.33 21.68 77.61-55.13-41.13-107.61-80.24-160.09-119.38 14.56 34.07 16.22 69.78 17.46 106.45-45.39-54.96-102.54-94.99-164.17-135.29 3.34 28.03 6.12 52.14 9.15 76.21 2.18 17.32 2.33 17.09-15.21 18.11-19.63 1.17-39.28 2.51-58.86 4.32-7.36.68-10.38-.66-10.31-9.01.43-39.78-.81-79.62.5-119.34m73.32-457.25c28.97-30.05 60.28-57.47 91.97-84.32 4.99-4.22 10.01-5.32 16.07-5.3 48.23.13 96.47.07 144.69.07 36.67 0 74.43.064 112.95.01 5.859-.008 10.56 2.72 1.09 6.23-55.48 20.566-179.58 69.94-297.55 125.52 13.62-16.34 39.55-54.24 49.47-70.36-32.15 11.29-39.67 16.31-53.1 23.15-46.16 23.47-135.25 83.53-139.53 85.79 2.59-4.35 18.79-23.6 73.94-80.79m45.13-65.87c-43.73 39.11-80.11 72.13-118.59 111.71 0-25.04-.15-37.68.09-59.8.07-5.45 4.74-8.14 9.09-9.87 33.89-13.54 74.39-30.47 109.41-42.04m-118.81 17.92c0-12.55.18-22.04.02-34.61-.07-4.89 1.63-7.06 6.79-7.04 32.64.1 87.49.09 109.39.08 1.9 0 2.37 2.63.59 3.3-21.93 8.18-79.4 29.62-112.73 42.08-4.93 1.82-4.06-2.81-4.06-3.81m458.66-28.63c15.09-13.2 16.96-12.96 27.65-12.96 69.474 0 140.863 0 212.198-.009 1.19 0 1.72 1.492.792 2.24-12.96 10.42-28.162 24.725-38.76 31.85-29.49 19.86-61.49 33.96-95.27 44.78-41.75 13.36-82.3 20.69-125.75 26.33-27.78 3.6-79.45 11.23-110.98 9.31 43.49-35.2 85.64-62.63 130.12-101.54m653.55 1661c.04-565.28.04-1130.54.04-1695.82 0-15.92-.02-15.94-15.72-15.94-359.16 0-761.39 0-1120.55.04-17.43 0-15.4-1.81-15.4 16.06-.04 282.82-.04 565.66-.04 848.49 0 282.84.09 565.66-.28 848.49 0 11.91 2.82 14.92 14.77 14.91 359.56-.34 762.18-.27 1121.73-.33 17.18 0 15.45 2.49 15.45-15.9"/></g></svg>