<svg xmlns="http://www.w3.org/2000/svg" width="2048" height="1920" viewBox="0 0 2048 1920"><defs><clipPath id="clip_1"><path d="M0 0h2048v1920H0Z"/></clipPath></defs><g clip-path="url(#clip_1)"><path fill="#231f20" d="M873.645 743.422c6.86-2 20.31 3.83 20 11.35-.39 9.37-10.42 9.83-21.04 13.86-2.57.98-5.3-.93-5.3-3.68.01-9.77-4.22-18.44 6.34-21.53m201.1-55.04c16.78 1.42 33.56 2.76 50.33 4.35 3.18.3 4.77 2.74 4.38 6.06-.42 3.54-2.23 3.7-5.68 3.44-16.73-1.28-33.4-2.48-49.03-13.85m19.86 43.74c-.44-7 1.57-14.03 9.67-13.33 6.67.58 13.56 4.1 15.79 12.27-2.93 8.61-10.22 11.57-17.9 12.68-9.34 1.34-7.23-6.45-7.56-11.62m93.5-61.75c-18.84 16.24-39.72 10.34-60.29 4.82-6.79-1.82-13.11-5.34-19.76-7.75-4.64-1.68-13.54 2.13-12.14-7.05.91-6 8.03-6.91 14.01-7.39 17.03-1.37 34.02-3.09 51.02-4.67 14.39-.16 28.42.31 41.47 7.55 7.58 4.21 12.27 9.33 9.59 18.85-1.29 4.59.08 11.36-6.84 11.24-7.38-.13-4.58-5.21-4.56-10.36.02-6.68-4.41-12.23-12.5-5.24m209.91-200.45c0 8.17-11.65 2.65-17.56-.26-46.15-22.82-83.77-55.31-129.97-77.9-41.04-20.07-100.83-26.7-121.59 6.3 56.84-14.28 92.25 4.39 124.25 23.17 23.05 13.81 34.65 22.55 47.02 41.92-54.51-35.79-91.62-55.54-163.19-45.83 39.11 1.91 73.25 15.72 108.59 32.54 5.01 2.39 19.53 1.08 7.85 13.79-.42.45.28 2.98.92 3.2 24.29 8.19 35.23 24.51 66.72 36.12 19.98 7.37 42.05 10.86 62.75 12.81 5.84.55 14.21.43 14.21 10.56 0 5.7-12.54 2.7-17.43 1.73-60-11.91-119.28-25.98-173.4-56.34-8.76-4.91-18.62-10.02-31.18-5.29 47.24 29.93 100.8 56.32 208.54 74.45 4.8.81 12.94 1.7 13.47 8.34v5.36c-2.75 11.35-11.51 8.15-20.36 5.19-46.99-15.65-96.47-28.87-141.87-50.38-.17-.08-6.74-2.91-6.64-2.55 1.62 5.84 3.45 8.22 5.96 9.96 48.09 33.16 102.02 51.64 158.17 65.01-82.48 10.74-141.26-41.99-206.72-77.64 18.92 31.02 51.18 40.29 81.82 72.97 81.08 74.01 120.92 73.37 129.63 80.57v4.54c-66.87-9.89-120.98-37.44-162.14-90.11-6.2 15.56-.81 25.83 3.45 36.9 2.85 7.38 10.74 16.32 3.54 23.8-7.53 7.82-20.23 7-28.38 2.8-57.4-29.56-116.51-15.49-175.4-8.64-13.44 1.56-26.92 3.12-40.2 5.63-18.52 3.49-31.4 15.1-35.83 32.96-5.08 20.52-3.89 41.14 10.75 58.56 1.77 2.11 4.59 4.8 6.9 4.78 21.6-.23 38.58 7.3 56.22 21.15 17 13.36 40.67 9.64 61.77 2.95 6.09-1.93 12.27-3.81 18.54-4.9 6.67-1.17 14.83-.02 16.47 6.61 2.14 8.63-7.09 7.45-12.06 8.27-6.7 1.1-12.92 2.2-16.55 8.44 22.36 2.78 37.59 2.11 49.98-24.23 4.05-8.59 9.06-17.21 20.22-16.22 28.6 2.53 46.21-14.97 63.6-33.51 27.04-28.82 51.61-24.86 67.05 11.87 7.11 16.93 13.8 34.87 15.89 52.91 3.72 32.13-19.71 50.31-41.92 67.17-14.1 10.71-29.73 19.76-45.59 27.74-36.61 18.4-59.3 47.2-71.52 86.18-7.17 22.85-11.56 41.66-28.3 60.61-22.9 25.92-41.35 30.36-84.25 24.23-14.06-2.01-29.03-4.23-41.61-10.51-26.48-13.23-54.73-8.43-82.25-10.16-12.95-.81-35.46 21.93-37.35 34.99-1.04 7.22 3.35 12.16 8.32 16.45 4.45 3.83 9.08 3.74 13.27-.57 3.67-3.78 7.89-6.18 13.29-5.65 51.62 5.06 103.32-5.25 154.93-1.4 9.67.72 17.69-1.46 21.87 9.58 2.89 7.62-.26 12.45-5.17 16.97-7.77 7.15-17.48 8.92-25.48 2.54-25.6-20.44-48.66-11.61-71.79 4.17-18.76 12.79-39.34 15.03-61.46 9.2 16.05 29.17 21.58 31.88 52.63 25.45 21.08-4.37 40.95 2.37 60.93 6.81 11.27 2.51 15.73 11.86 14.73 23.06-1.25 13.97-10.19 22.8-23.05 24.34-15.49 1.86-31.36.24-47.06.63-5.31.14-12.57-2.61-15.28 4.16-2.78 6.92-1.35 14.38 4.57 19.59 7.36 6.5 15.29 12.37 27.27 21.95-21.97 2.61-32.21-4-40.98-14.07-83.51-95.79-129.02-210.19-161.11-331.03-7.4-27.86-6.42-58.24-3.64-86.9 1.21-12.51 3.95-19.05 18.53-10.38 14.39 8.57 30.44 6.24 44.83 2.69 9.63-2.37 13.38-7.98 24.46-4.34-6 16.28-19.62 13.34-30.16 22.48 31.16 3.02 22.9.53 16.58 30.12-2.97 13.88-7.74 29.79-11.26 43.58-8.3 32.48.68 53.78 43.71 64.11 20.68 4.97 27.31 14.2 24.16 34.05-1 6.34-2.13 16.67 7.34 16.89 7.98.18 14.01-6.98 13.3-16.37-.81-10.57 12.27-17.97 5.42-30.79-2.33-4.36 6.34-7.46 12.85-5.97 31.06 7.13 31.08 7.04 49.76-16.44-19.9-2.95-39.49-5.92-59.11-8.75-19.13-2.76-37.26 6.23-56.91 3.71-18.65-2.39-28.71-6.33-25.62-28.23 5.68-40.22 14.82-79.65 25.43-118.67 7.2-26.48 3.52-48.49-18.98-64.72-9.6-6.92-8.33-17.38-12.97-25.71-12.69-22.77-33.28-30.92-58.14-30.68-7.87.07-15.73.44-23.59.72-11.42.41-18.21-5.48-17.92-16.48 1.08-40.71-3.69-81.48 2.38-122.15 4.4-29.41 11.96-74.36 37.81-95.58-17.13.96-27.77 10.92-33.01 21.57-20.08 40.85-18.51 61.64-24.17 85.44-3 12.64-5.57 24.05-13.86 34.43-15.35 19.19-17.55 40.45-6.78 62.99 8.22-2.89 4.74-13.12 16.83-16.06-9.49 16.688-3.892 31.114 5.282 46.235 14.624 24.1 18.018 47.752 16.06 75.493-1.51 21.364-5.213 42.579-9.893 63.46-5.413 24.15-12.855 47.839-21.93 70.86-8.295 21.228-12.387 44.042-12.239 66.812.13 21.52.62 43.04 1.44 64.54.8 20.71 3.58 41.4 2.2 62.15-.67 10.06-3.91 19.8-8.35 28.79-9.41 19.04-23.87 34.93-35.86 52.3-3.99 5.77-7.75 11.72-10.89 17.99-.36.72-.71 1.44-1.06 2.17-7.1 14.94-12.93 32.74-12.43 49.42.43 14.42 3.92 28.86 8.86 42.38.46 1.24.92 2.48 1.43 3.71 0 0-5.82-5.68-8.78-9.26-15.9-19.23-15.93-59.98-1.94-88.02 4.06-8.17 8.57-16.13 13.72-23.67 4.92-7.19 10.77-13.51 16.15-20.33 10.01-12.69 17.6-27.94 20.15-44.18 6.13-39.08-5.8-78.27-5.02-117.44.07-3.49-1.18-12.8.58-16-15.35 22.76-25.06 49.38-29.06 76.49-4.08 27.6.71 52.58 4.87 79.75.96 6.32-5.75 10.39-11.29 7.75-20.14-9.58-20-44.44-20.6-63.3-.99-30.92 7.74-61.56 26.37-86.42 2.41-3.21 29.05-35.64 30.58-34.4-23.01-18.59-18.49-53.81-4.31-89.63 4.15-10.49 8.87-21.3 15.76-30.05 28.06-35.58 26.51-72.9 5.72-109.93-14.44-25.72-26.65-50.59-14.44-79.88-8.33-4.71-10.55 5.35-18.21 3.11 6.52-23.4 13.08-46.91 20.18-72.38-17.26 4.72-20.25 23.82-34.32 30.31-6.22-6.12.76-10.68 3.08-13.97 16.62-23.53 31.58-47.51 30.2-77.91-1.15-25.49 28.12-54.67 31.08-79.03-4.75-6.4-13.36-.17-19.14-4.78.61-8.46 8.77-8.44 13.91-10.7 11.43-5.01 20.55-7.42 25-23.91 4.03-14.94 21.1-29.54 39.46-29.55 90.8-.03 181.6.61 272.39.5 18.52-.02 36 27.52 57.49 11.25-6.24 15.8-29.21 12.18-23.81 25.49 3.4 8.37 19.96 3.11 30.08 2.99 61.25-.74 115.85 13.45 165.91 52.55 20.15 15.74 41.93 29.2 66.77 37.07 5.76 1.83 13.46 5.82 17.64 10.45 1.64 1.81 2.49 3.57 2.48 6.72 0 0 .02 4.63.01 4.65m-104.36 198.02c-23.92-12.83-32.29-23.97-31.09-44.82 32.17 51.15 84.78 47.17 133.33 54.7-18.26 14.16-66.58 9.25-102.24-9.88m104.35 134.35c-2.69 23.87-14.74 45.97-42.17 68.2-58.77 47.63-51.67 68.8-28.64 125.4 8.83 21.7 19.48 42.66 28.45 64.32 15.181 36.659 21.606 76.969 12.612 115.64-2.21 9.507-7.443 20.474-14.953 27.335-12.599 11.64-30.962 12.303-46.243 6.218-2.495-.994-4.939-2.115-7.35-3.296-2.32-1.137-5.337-3.611-7.826-4.097 48.45 9.46 66.31-6.24 69.81-53.23 3.45-46.45-14.18-86.5-32.82-126.7-7.17-15.47-14.04-31.14-22.09-46.15-20.95-39.04-3.77-69.99 20.58-99.2 11.44-13.73 23.97-26.57 36.43-39.4 16.2-16.7 19.55-35.9 11.68-57.22-7.15-19.34-15.2-38.35-22.27-57.72-1.97-5.41-9.44-11.85-2.14-17.1 6.56-4.72 15.26-3.41 22.22 1.04 3.38 2.16 6.77 5.8 8.08 9.51 8.2 23.32 14.69 44.3 16.64 63.85Zm-205.69 760.39c-9.83 0-17.7-14.61-22.12-22.45-6.9-12.25-15.89-21.94-26.88-30.05-14.63-10.8-20.17-23.73-10.46-40.6 7.22-12.53 2.64-21.84-7.87-29.39-9.82-7.05-19.95-13.69-29.88-20.6-8.02-5.57-14.85-13.63-12.3-22.99 6.26-22.92-8.29-18.95-19.43-14.95-7.42 2.67-11.38 8.97-9.88-4.83.71-6.52-6.37-6.07-10.78-7.83-18.44-7.35-27.01-10.92-47.53-26.14-14.01-10.4-30.61-19.12-33.96-42.13 44.19 38.85 62.52 44.04 91.41 57.45 5.37 2.49 29.72 9.57 41.1 16.6 12.81 7.91 23.35 20.02 23.42 37.99-10.24-5.87-13.09-18.13-24.84-20.47-.4 12.11 6.14 19.39 15.19 25.55 9.42 6.41 19 12.72 27.63 20.11 10.42 8.93 16.61 19.23 8.23 33.71-9.32 16.09 2.57 25.03 13.3 33.74 27.6 22.4 61.6 27.91 94.69 35.8 3.82.91 8.82-.78 12.57 8.96-28.22-5.52-54.12-10.58-79.7-15.57 4.23 14.58 18.81 28.09 8.09 28.09m-155-261.96c-63.83-18.38-86.74-37.97-97.52-96.85 20.92 23.32 26.03 48.42 41.06 58.15 19.02 12.3 38.26 24.74 56.46 38.7m109.53 48.14c19.23 9.11 20.67 14.2 5.27 27.39-9.41 8.06-5.69 13.7 1.62 18.38 14.02 8.99 25.02 21.28 37.17 32.28 16.57 14.99 20.54 32.13 5.88 50.91-4.25 5.45-3.65 14.08-11.61 17.49-5.3-10.23.25-17.87 5.85-24.96 9-11.41 6.32-20.95-3.33-30.04-21.01-19.81-44.63-35.95-62.15-60.68-6.53-9.21-25.87-17.75-41-25.55-22.47-12.76-37.96-11.41-50.55-34.72 40.85 13.62 70.32 40.99 107.24 52.13 1.03-2.41 2.27-6.31 3.31-8.73-11.54-5.72-21.84-11.29-33.34-17.1-29.88-15.11-32.22-17.18-11.59-45.45-17.75-5.73-34.76-11.88-52.15-16.64-17.73-4.85-27.43-16.56-32.74-33.29-1.46-4.61-5.67-10.11.16-12.99 4.43-2.19 10.51 1.36 12.68 5.91 11.98 25.19 36.97 29.44 59.42 37.35 38.3 13.49 38.42 13.16 11.62 42.39 13.27 13.94 31.76 18.12 48.24 25.92m-245.57-174.37c1.11.65 3.08 1.19 3.17 1.96 4.28 34.52 16.02 64.78 42.24 89.66 10.99 10.43 8.49 19.21.51 24.86-11.65-15.35-27.83-24.94-44.08-34.39-17.12-9.95-25.26-23.46-17.75-44.63 8.46 10.05-2.2 20.78 18.75 32.06-7.73-42.88-10.11-52.06-2.84-69.52m233.31 388.19c-13.15 0-14.55-3.58-40.17-30.39-7.25-7.59-11.46-15.91-21.25-19.39-7.61-19.04-23.2-41.48-36.89-43.32-34.64-4.63-48.23-28.34-64.54-51.33-6.37-8.99-10.98-19.84-9.24-32.8 11.82 7.47 9.77 24.23 22.28 30.14 8.39-35.74 4.02-46.47-28.37-57.65-30.09-10.39-57.88-22.78-75.57-51.87 2.31 8.39 4.62 16.77 6.93 25.15-25.77-43.01-38.97-70.03-66.31-99.85 11.84 33.46 24.88 53.01 51.07 96.71-25.17-18.67-30.88-36.99-47.97-51.2 5.25 22.31 7.73 28.55 18.84 45.06-24.51-11.66-39.7-8.03-58.68-41.47-7.15-12.6-6.98-23.49-2.9-34.04 2.9-7.49 9.81-10.79 17.61-4.58-4.13-15.7-8.69-22.13-12.07-37.98-1.13-5.3-5.38-22.89 9.01-20.61 7.82 1.24-2.1-12.22 4.34-17.94 9.12-.49 9.8 10.62 21.7 15.4-14.62-28.65-21.73-43.56-12.49-67.44 8.51 7.75 11.23 11.96 30.63 29.32-25.19-82.05-47.78-74.82-55.89-120.3-5.49-30.77-7.96-62.09-11.64-93.17-1.41-11.97-7.704-26.318-5.514-39.138-8.598 11.022-6.754 9.119-12.456 20.007-.128.244-3.623-10.668 2.488-25.636 17.617-43.15 38.187-123.506 37.342-135.053 2.76 37.71-13.21 74.4-7.26 112.77 4.68 30.19 8.15 61.09 19.36 90.24 4.63 12.04 5.74 24.31.88 37.31-7.08 18.97 1.37 35.49 13.14 49.34 40.4 47.55 36.61 94.49 44.63 151 .78 5.53 5.22 22.07-4.23 20.88-4.76-16.59 4.68-18.22-9.92-40.47 4.07 15.39 5.41 19.53-4.37 33.49-3.74 5.32-.72 13.2 1.27 18.99 2.54 7.38 4.28 15.37 8.44 21.73 4.05 6.18-1.74 21.55 16.67 17.54 3.54-.77 13.39 20.02 17.67 31.84 7.36 20.29 20.11 33.13 40.65 40.02 49.7 16.64 86.58 47.87 106.49 97.49 1.54 3.85 4.45 7.16 7.01 11.16 11.6-6.24 1.02-25.42 20.99-29.05-19.21 48.93 9.69 80.57 37.94 110.46 29.19 30.9 38.57 38.63 30.35 38.63m-89.11 0c15.07-16.34 3.93-31.29-22.12-45.79-29.93-16.67-51.41-40-67.58-69.48 3.92 25.4 12.9 40.93 22.3 54.34 10.64 15.16 19.07 17.69 28.06 37.3 5.35 11.68 12.07 23.63-3.76 23.63-16.51 0-15.23-3.7-18-14.64-8.34-33.02-52.13-64.63-92.19-79.85-22.68-8.6-45.23-17.59-67.37-27.51-5.28-2.36-10.33-4.73-14.86-8.37-9.44-7.59-15.97-17.96-23.17-27.53-12.18-16.21-22.02-35.35-26.21-55.29-1.85-8.8 12.86-16.53.59-27.3-3.32-2.92 6.42-6.09 10.42-3.5 37.92 24.54 73.08 30.97 112.28 52.5 16.85 9.25 30.38 23.24 36.51 43.66 3.99 13.29-2.34 31.58-16.6 33.96 13.06 7.38 30.46 17.57 44.4 25.45-2.38-22.75-8.2-41.58-14.18-60.31-1.61-5.07-4.03-9.38 2.33-12.59 7.55-3.82 10.17 1.54 12.54 6.9 9.73 22.04 16.02 45.94 34.31 63.35 4.62 4.4 8.44 10.06 13.76 13.27 26.22 15.8 52.65 31.22 75.69 51.66 9.62 10.48 12.59 16.11 13.71 26.14Zm-82.68 0c-7.75 0-12.27-.06-16.13-5.32-31.62-43.06-75.14-44.93-119.93-58.36-35.29-10.59-66.58-25.23-84.98-59.13-5.32-9.8-9.53-6.97-17.82-2.35-41.04 22.86-84.41 40.67-128.07 58.78-5.4 2.23-10.15 3.54-14.62 1.82v-18.29c1.31-1.24 2.62-2.65 4.29-3.62 16.57-9.62 38.71-22.11 56.8-28.17 18.34-6.15 34.19-8.27 50.51-18.85 2.45-1.59 2.42-1.64 4.81-3.33 13.46-9.5 25.69-20.94 32.63-36.15 8.87-19.43 11.77-41.67 11.47-62.69-.08-5.62.69-18.61 3.5-21.59 6.65 41.42 3.12 66.56-9.81 104.87 8.87-4.54 4.26-8.7 13.87-10.82 3.96 20.61 9.55 37.67 32.55 52.05-1.1-.68-2.35-4.74-3.03-6.07-1.27-2.49-2.56-4.97-3.85-7.45-3.6-6.97-6.69-14.19-9.9-21.34-4.15-9.23-6.25-27.02-6.66-30.92 1.08 7.96 6.76 15.56 10.71 22.31 4.58 7.81 9.82 15.25 15.67 22.16 4.61 5.44 9.87 10.43 15.96 14.2 6.44 4 13.69 6.52 20.11 10.58 32.62 20.68 68.87 34.74 101.95 54.64 12.1 7.28 24.48 14.67 34.06 25.22 3.94 4.34 21.34 27.82 5.91 27.82m-381.55-129.41c4.42-5.95 12.18-9.6 24.19-13.34 21.97-6.85 44.87-9.85 66.48-17.22 25.27-8.61 44.66-29.26 56.63-59.27.41 15.34-5.4 30.67-15.04 42.51-10.71 13.17-26.56 20.11-42 26.26-4.26 1.7-8.59 3.26-12.97 4.65a335 335 0 0 0-40.8 15.94c-12.82 5.99-24.23 15.57-36.49 22.72Zm136.19-118.42c-11.01 19-10.97 44.1-33.19 57.14.33-47.73 32.5-80.49 54.18-121.74 4.39 18.2 5.53 18.86-20.99 64.6m40.94 70.5c-.03-.24-.04-.37-.04-.37.01.12.03.25.04.37m-51.75-215.99c4.05-5.01 6.88-12.45 14.52-5.94 5.72 4.87 9.74 12.83 3.15 18.68-13.12 11.63-15.06 26.63-16.34 42.28-18.92-24.54-18.98-33.17-1.33-55.02m-54.95 141.52c18.42-25.99 56.62-72.46 56.62-72.46 22.98-25.87 34.95-52.65 53.29-78.83-9.36-1.39-11.91 17.12-20.69 5.99-7.44-9.44-11.92-21.4-3.33-31.46 27.89-32.72 25.88-69.56 16.69-107.52-6.96-28.77-4.93-56.95 2.48-85.25 4.87 26.23 5.92 46.82 7.38 57.59 4.27 31.4 10.04 44.65 17.11 69.19 7.9 27.38 6.81 48.2-1.62 75.83-28.25 92.67-6.88 103.83-27.03 136.73-2.08-21.64 1.47-43.01-14.21-64.75-14.79 53.36-62.36 89.26-65.15 148.51-3.08.58-12.93-16.3-12.84 2.59.02 4.13-5.69 7.02-10.01 6.21-6.01-1.13-9.42-5.76-10.64-11.96-3.67-18.65 1.17-35.19 11.95-50.41m46.54-641.27c-8.42 31.67-16.83 63.35-26.11 98.27-6.45-22.84 4.66-68.32 26.11-98.27m-35.59 144.07c20.66-37.84 47.3-72.91 55.29-118.33 16.52 13.96 8.55 28.06 1.96 40.62-11.57 22.05-23.23 44.33-37.57 64.58-22.02 31.11-20.91 61.97-5.03 94.44 3.33 6.8 8.03 13.52 5.04 24.17-33.95-24.08-40.88-66.67-19.69-105.48m598.69-495.43s6.18 2.74 14.47 8.48c27.38 18.98 58.72 43.1 94.98 90.42-28.6-5.96-63.5-44.24-119.49-67.75-29.83-12.52-79.66-31.15-79.66-31.15Zm73.57.19 63.12-.19v57.68c-.19 1.52-.44 3.05-.77 4.58-.35 1.58-3.46 2.98-3.28 4.17.33 2.26 2.41 4.53 4.05 6.77v7.88c-.5.38 1.52 10.33-20.02-7.37-19.3-15.86-78.2-73.71-78.2-73.71Zm68.1-25.09h-826.71c-10.3 0-18.65 8.35-18.65 18.65v1258.71c0 10.29 8.35 18.64 18.65 18.64h826.71c10.29 0 18.64-8.35 18.64-18.64V312.002c0-10.3-8.35-18.65-18.64-18.65"/></g></svg>