<svg xmlns="http://www.w3.org/2000/svg" width="1984.25" height="1984.25" viewBox="0 0 1984.25 1984.25"><defs><clipPath id="clip_1"><path d="M0-.002h1984.252V1984.25H0Z"/></clipPath></defs><g clip-path="url(#clip_1)"><path d="M1184.903 1597.787c-3.696.228-6.4-.56-8.055-2.337-3.453-3.712-2.342-11.316-1.532-16.87.283-1.939.527-3.613.546-4.897.163-10.942 1.218-22.084 2.238-32.857.375-3.965.762-8.052 1.103-12.1l.485-.022q1.081 5.437 2.167 10.872c2.204 11.014 4.481 22.403 6.547 33.632.553 3.01-1.612 22.183-3.499 24.58m-490.88 1.11c-5.795 0-27.385-22.732-31.453-29.34-17.429-28.299-27.066-56.346-29.462-85.742a20 20 0 0 0-.239-1.678c-.526-3.09-.304-3.786 1.315-4.139a2 2 0 0 1 .435-.052c.858 0 1.387.738 2.383 3.066.157.365.311.726.472 1.071 15.555 33.156 43.628 54.761 85.82 66.048 1.736.465 3.472.956 5.212 1.45 8.688 2.46 17.67 5.008 27.222 4.257l5.673-.443-5.158-2.406c-40.334-18.815-46.449-56.488-52.363-92.922a29 29 0 0 0-.187-.989c-.574-2.856-.403-3.657.871-4.08 1.538-.512 1.936-.079 3.117 2.165.344.652.7 1.326 1.15 1.97 16.672 23.753 33.844 46.085 60.494 58.291 7.403 3.39 15.012 4.39 22.807 5.192.29.03.588.071.89.113 1.955.271 5.226.721 6.325-2.84.96-3.095-1.456-4.935-3.053-6.153-.264-.2-.523-.398-.763-.596-4.395-3.627-8.919-7.248-13.294-10.748l-1.289-1.03c-12.494-9.984-18.78-24.109-19.78-44.45a22 22 0 0 0-.122-1.32c-.236-2.092-.178-2.853.628-3.239 1.293-.619 2.002-.11 3.772 1.957.236.276.47.55.705.808l1.166 1.294c11.257 12.504 22.898 25.432 38.54 33.507 8.015 4.14 18.848 8.554 31.574 5.88 2.87-.603 6.256-1.615 6.993-4.129.73-2.48-1.426-5.046-3.86-7.449-.57-.565-1.215-1.069-1.837-1.557-1.748-1.37-3.302-2.588-3.587-5.082 11.803 4.733 24.018 9.37 37.277 9.54.91.01 2.123.937 2.36 1.803.066.246.081.455-.38.737-4.924 3-4.893 7.557-4.867 11.576.023 3.447.043 6.425-2.663 8.582-2.424 1.93-4.658 4.124-6.818 6.246-3.854 3.786-7.494 7.362-12.297 9.735-2.412 1.19-4.155 2.048-4.09 3.818.06 1.622 1.693 2.604 4.31 3.662.513.208 1.378.667 1.41 1.407.026.67-.6 1.674-2.06 2.407-6.523 3.281-12.602 7.521-18.48 11.623-10.206 7.12-20.759 14.481-33.704 16.725-9.312 1.618-18.556 3.44-28.343 5.366-4.516.89-9.137 1.8-13.915 2.721l-11.964 2.302 12.165.662c31.27 1.698 59.484-4.209 83.842-17.563 22.656-12.42 35.715-33.813 47.274-55.759-7.016 32.112-22.076 78.7-52.212 96.086v.001c-2.578 1.487-5.247 1.504-8.067 1.476h-.72c-17.303.023-32.43.024-46.922.024-26.08 0-50.715.001-82.247.137Zm19.997-1208.5c-11.09 62.642-17.202 155.456-14.863 225.705 2.634 79.098 15.943 147.336 40.69 208.612 11.935 29.555 26.833 57.83 45.545 86.44 5.027 7.69 5.106 22.86.154 29.512-1.454 1.955-2.29 2.112-2.587 2.1-1.029-.072-2.275-2.346-3.1-3.85l-.31-.563q-2.919-5.239-5.845-10.475c-8.108-14.516-16.492-29.526-24.343-44.484-27.856-53.063-49.25-109.526-63.589-167.82-18.545-75.442-23.1-145.705-13.928-214.804.51-3.837 1.073-8.177 1.683-12.879 3.74-28.86 9.394-72.477 15.4-95.667 2.255-8.702 5.996-12.418 12.925-12.418q1.566 0 3.361.25l.256.035.254-.054c3.616-.756 6.104-.504 7.395.75 1.494 1.448 1.79 4.592.902 9.61m164.432-1.585c-2.152 4.96-4.134 16.477-6.233 28.673-1.873 10.882-3.81 22.135-5.65 26.618-20.773 50.638-29.478 104.454-35.25 150.417-5.803 46.17-5.317 93.198-4.847 138.678.221 21.418.451 43.565.018 65.323-.08 4.065.217 8.277.503 12.35.591 8.416 1.15 16.364-1.26 23.348-4.937 14.305-5.25 27.774-1.05 45.037 2.228 9.171.862 19.497-4.299 32.498-1.72 4.336-3.418 8.68-5.117 13.026-12.453 31.85-25.33 64.784-46.459 92.975-6.67 8.904-14.9 16.56-22.859 23.965a909 909 0 0 0-4.53 4.231c-1.347 1.264-2.427 1.88-3.153 1.827-.155-.01-.628-.04-1.263-.819-.783-.958-1.118-1.832 1.71-4.382 17.301-15.568 28.568-35.67 39.463-55.112 1.482-2.642 2.964-5.287 4.463-7.925 23.231-40.884 33.222-88.062 31.443-148.469-.829-28.168-2.473-56.743-4.063-84.378-.633-11.004-1.288-22.383-1.882-33.577-1.142-21.445-.854-49.557 11.618-76.818 6.24-13.63 5.78-29.79-1.262-44.338-13.953-28.808-6.534-55.22 2.563-77.258 1.657-4.013 3.462-8.053 5.207-11.96.842-1.885 1.684-3.769 2.514-5.659l2.447-5.573-4.749 3.802c-11.918 9.541-16.263 23.111-20.466 36.233-1.014 3.17-2.058 6.43-3.202 9.606-1.676-1.649-1.3-3.255-.815-5.33.132-.562.26-1.117.347-1.66 5.346-33.74 18.213-101.605 32.53-141.959 2.846-8.029 7.885-11.259 15.863-10.16h.001c6.604.904 13.417.615 20.005.333q1.677-.073 3.347-.136c2.791-.108 4.588.303 5.19 1.184.422.62.623 2.056-.823 5.39m23.1 441.714c27.375-20.333 49.351-42.863 66.871-68.563-7.843 24.118-43.739 61.004-66.872 68.563m108.824-90.634c-7.299 20.626-19.52 37.163-33.96 46.178 19.893-38.858 31.7-71.546 37.726-104.542 4.7 17.213 3.401 38.113-3.766 58.364m215.693 641.071c-26.519 6.383-48.932 4.658-68.514-5.265-11.78-5.97-19.4-14.882-22.648-26.484-.809-2.895-.835-4.834-.075-5.764.588-.72 1.84-1.083 3.728-1.083q.617 0 1.323.052c2.215.163 4.448.136 6.605.11 1.13-.015 2.257-.03 3.39-.016 23.741.266 23.741.266 36.823 19.164l1.362 1.968 1.17-2.089c10.535-18.812 28.828-24.847 43.587-28.003 18.292-3.916 36.873-7.974 54.843-11.899q9.63-2.104 19.262-4.203c-21.81 28.773-44.794 54.832-80.856 63.512m-28.659-53.877h.001c-11.083 2.888-19.245-.636-24.959-10.763l-1.46-2.59-1.208 2.718a58 58 0 0 1-1.609 3.292c-.937 1.81-1.677 3.24-1.786 4.84-.188 2.894-1 4.926-2.41 6.036-1.479 1.162-3.817 1.472-6.942.925-7.146-1.257-14.647-2.437-22.283-2.437-2.52 0-5.057.13-7.599.425-1.313.15-2.355-.076-3.102-.683-.929-.752-1.22-1.95-1.302-2.824a97 97 0 0 0-.39-3.31c-.779-6.023-1.453-11.224 3.838-15.802 6.182-5.347 11.435-3.57 17.912 1.023 7.108 5.06 12.687 3.71 19.381-.099 20.967-11.953 45.056-14.874 75.808-9.19 10.398 1.915 21.027 3.51 31.305 5.051 4.028.604 8.057 1.208 12.08 1.832 1.937.302 3.358.594 4.475 1.834-30.998 4.71-61.312 12.318-89.75 19.722m-181.022-440.484c.75.601 1.396 1.806.746 3.222-.648 1.41-1.358 1.425-3.827.733-19.636-5.523-38.096-1.155-53.568 3.847-4.735 1.534-8.71 4.162-12.555 6.704-2.819 1.863-5.734 3.79-8.863 5.203-6.224 2.815-9.766-.263-13.515-3.525-.884-.769-1.799-1.565-2.735-2.26q-.474-.355-.47-.63c.024-1.282 3.374-3.589 4.474-4.346 8.81-6.058 19.22-7.814 29.288-9.512 3.832-.649 7.666-1.258 11.5-1.868q2.648-.419 5.293-.845l11.943-1.925-12.05-1.044c-24.137-2.09-41.536 1.666-56.426 12.18-5.314 3.751-9.614 8.562-12.78 14.3-1.974 3.573-4.188 5.573-6.4 5.784-2.605.254-5.074-1.985-6.676-3.907-10.754-12.872-18.176-28.525-22.06-46.52-.418-1.938-.275-3.536.372-4.17.312-.306.79-.41 1.302-.41.446 0 .92.08 1.327.176 29.333 7 59.564 7.26 88.8 7.51 6.863.058 13.96.12 20.924.266 12.771.274 20.555 7.334 28.797 14.808 2.3 2.085 4.677 4.241 7.16 6.23M865.59 979.476c.184-.232.494-.62 1.81.336 19.932 14.504 31.75 29.96 36.772 48.24-3.31-3.79-6.687-7.51-9.985-11.144-9.524-10.489-19.37-21.336-27.174-33.425-.223-.346-.48-.69-.739-1.038-1.197-1.596-1.403-2.062-.684-2.969m170-34.434c-2.124 1.165-4.32 2.37-5.056 2.605-8.155 2.621-18.715 1.017-28.249-4.29-9.192-5.116-15.87-12.93-17.864-20.904a46 46 0 0 0-.58-2.037c-.77-2.552-1.643-5.444-.572-7.305.608-1.056 1.9-1.823 3.84-2.28q1.913-.456 3.44-.455c1.638 0 2.934.393 3.873 1.176 1.585 1.324 2.294 3.873 2.101 7.574-.356 6.928 3.485 11.893 11.744 15.18 7.646 3.044 15.6 4.841 21.964-2.567 2.703-3.145 4.267-3.623 5.106-3.47.843.155 2.155 1.178 3.601 5.175a385 385 0 0 1 2.895 8.285c-2.023.998-4.244 2.216-6.244 3.313M912.497 1062.33c14.842 16.48 22.441 37.165 29.823 57.26l.31.844c-3.623-6.944-7.14-13.913-10.6-20.764-6.228-12.334-12.624-25-19.533-37.34m-277.695 371.02.002-.002c1.233-.226 1.646.245 2.587 2.927 10.527 30.043 29.013 58.18 58.177 88.546.484.506 1.051.932 1.6 1.344 1.91 1.435 1.938 1.702 1.248 2.71-.443.643-.888.771-1.185.812-1.036.134-2.499-.633-3.484-1.46-4-3.377-8.258-6.633-12.374-9.784-13.995-10.71-28.467-21.785-34.973-39.203-2.418-6.478-4.487-13.188-6.487-19.679-2.207-7.157-4.293-13.923-6.786-20.323.013-.579.01-1.14.006-1.677-.02-3.438.183-3.949 1.67-4.212m380.445-1044.54c.552-3.04 1.545-5.01 3.033-6.02.862-.584 1.935-.875 3.248-.875q1.09 0 2.405.267c1.128.228 2.576.681 3.071 1.545.586 1.024-.042 2.852-.649 4.618-.265.77-.537 1.565-.73 2.344-6.848 27.554-10.41 71.16-13.273 106.197-.983 12.034-1.912 23.402-2.872 32.933q-.04.439-.062.891c-.06 1.031-.114 1.977-.74 2.984-1.49-46.602-.049-108.519 6.57-144.885m-103.366 1.161c-4.173 10.866-8.087 30.48-11.873 49.446-2.648 13.264-5.148 25.791-7.446 33.67-23.835 81.701-23.535 163.84.894 244.137.786 2.577 1.882 5.077 3.15 7.972.672 1.536 1.407 3.214 2.195 5.123l2.493 6.05.38-6.534c.177-3.027-.436-5.604-.976-7.877-.708-2.98-1.257-5.292-.01-7.806 2.393 4.011 4.264 8.342 6.081 12.55 3.248 7.518 6.607 15.292 12.968 21.275l4.763 4.478-2.344-6.106c-20.57-53.587-30.877-104.019-31.365-153.689.432 2.701.824 5.444 1.225 8.245 2.172 15.177 4.418 30.872 14.308 45.833l3.583 5.42-.855-6.443c-.724-5.458-1.512-10.633-2.274-15.638-1.549-10.174-3.012-19.783-3.53-29.305-5.13-94.776 3.651-162.076 26.848-205.745.337-.635.73-1.258 1.145-1.916.788-1.248 1.603-2.539 2.084-4.018 1.015-3.127 2.681-5.269 4.951-6.366 2.6-1.255 6.13-1.158 9.94.268 3.615 1.354 3.016 4.752 1.69 9.781-.198.752-.389 1.476-.54 2.151-9.654 43.327-11.92 115.806-12.413 155.153-.013.944.053 1.87.162 3.4.071.992.161 2.255.262 3.97l.43 7.282 2.47-6.863c3.812-10.598 4.97-20.142 6.088-29.374.447-3.684.87-7.165 1.451-10.656 1.411-8.476 2.883-18.859 4.441-29.85 4.423-31.198 9.928-70.023 18.011-93.046 3.18-9.045 6.802-13.73 16.817-12.638 2.615.29 4.264.938 4.9 1.93.58.904.5 2.382-.25 4.65-15.118 45.621-9.489 118.47-.075 166.99 20.835 107.345-33.73 227.687-126.923 279.926a117 117 0 0 0-3.1 1.824c-4.644 2.793-9.906 5.958-13.554 4.321-2.892-1.295-2.552-4.544-1.647-9.742.351-2.026.716-4.12.676-6.009-.33-15.944-.276-32.172-.224-47.865.02-5.576.037-11.15.04-16.727l1.09-.355 20.758 31.278 1.185-2.186c2.148-3.964.348-7.14-1.099-9.692-1.274-2.248-2.03-3.74-1.429-5.48 1.96.575 3.096 2.157 4.591 4.236 1.603 2.23 3.42 4.758 6.754 6.541l4.063 2.173-2.015-4.148c-18.136-37.328-27.979-67.59-31.915-98.12-4.225-32.762-3.874-62.829 1.092-91.584 2.885 22.711 7.146 45.395 11.63 68.505l.911 4.73c4.612 24.028 9.38 48.875 25.612 69.663l5.096 6.525-4.034-12.76c-1.29-4.063-2.624-8.264-3.886-12.403-1.828-5.993-3.609-11.87-5.286-17.873-11.56-41.24-11.632-83.574-9.989-123.177 2.268-54.592 12.277-132.466 23.28-181.144.201-.887.378-1.806.556-2.733 1.272-6.618 2.381-12.332 12.08-11.545 3.801.307 5.903.977 6.615 2.11.635 1.011.404 2.911-.707 5.807M734.814 678.023c-1.43-52.1-2.404-107.67 2.65-163.905l.354-3.969c3.025-33.81 8.09-90.397 15.652-121.617 1.773-7.336 5.057-8.278 10.5-7.448 1.814.278 3.05.867 3.672 1.751 1.07 1.518.568 4.117.084 6.631a49 49 0 0 0-.384 2.158c-2.346 15.935-4.919 58.868-5.713 74.066l-.499 9.56 3.39-8.952c3.312-8.748 6.705-24.934 9.987-40.586 3.018-14.397 5.868-27.994 8.571-35.793 2.33-6.72 5.725-9.108 12.106-8.516 3.375.314 6.803.332 10.117.35 1.428.008 2.855.015 4.28.046 5.014.108 9.592.324 10.521 1.762.92 1.421-.749 5.671-2.386 9.543-10.564 25.001-17.993 71.888-22.909 102.914-.74 4.672-1.43 9.025-2.072 12.947q-.311 1.905-.617 3.812c-1.019 6.335-2.063 12.827-3.598 19.208-3.07-28.936.413-59.605 10.811-95.768l-2.822-.977c-28.155 69.577-27.012 143.215-24.103 214.973-7.337-43.71-8.906-89.454-4.807-139.154l1.032-12.517-3.942 11.924c-5.54 16.763-6.417 32.242-7.265 47.212-.113 1.998-.225 3.99-.349 5.98-1.078 17.458-.796 35.328.841 53.115.52 5.654.993 11.31 1.468 16.965.951 11.323 1.934 23.03 3.27 34.54 2.05 17.712 6.095 35.144 10.008 52.002l.76 3.267c3.066 13.167 6.22 26.71 8.627 40.348-12.62-22.984-17.91-48.66-23.04-73.568-2.33-11.306-4.739-22.997-7.8-34.307l-2.103-7.765-.828 8.003c-2.305 22.294 1.515 43.82 5.21 64.636 4.13 23.243 10.481 46.3 16.624 68.595 5.79 21.013 11.776 42.741 15.867 64.524 2.456 13.046 4.596 25.843 3.81 38.94-.052.834-.087 4.266-1.083 4.266s-2.866-2.72-3.284-3.377c-12.392-19.513-21.077-41.27-29.477-62.31a2130 2130 0 0 0-4.48-11.168c-14.58-35.954-25.058-74.663-31.143-115.05-9.677-64.173-11.099-128.347-4.228-190.743 1.148-10.419 2.613-20.995 4.03-31.222.524-3.78 1.048-7.56 1.557-11.343l.09-.714c.198-1.606.388-3.154 1.427-4.939-.44 12.714-1.067 25.494-1.675 37.894-2.954 60.228-5.744 117.116 10.358 174.223l3.262 11.572Zm-142.46-292.24c-.004-2.578.45-4.282 1.385-5.209.975-.966 2.74-1.387 5.724-1.349 24.238.28 45.496.342 64.988.192 2.641-.008 4.381.487 5.227 1.51 1.291 1.56.681 4.655.142 7.387l-.138.71c-1.936 10.064-4.205 28.454-6.4 46.24-1.64 13.298-3.19 25.86-4.43 33.471-8.374 51.348-9.802 105.408-4.248 160.68 7.367 73.215 26.565 145.912 57.06 216.074 17.041 39.201 37.73 78.054 61.493 115.48 3.656 5.757 4.11 10.077 1.672 15.938-20.585 49.472-59.277 82.496-118.287 100.96-2.514.784-5.13 1.45-7.66 2.091-1.182.3-2.364.6-3.543.913l-10.797 2.87 11.171.073c64.982.444 108.771-19.85 137.725-63.818.636-.967 2.326-3.534 3.137-3.534h.001c.29.001 1.186.347 3.267 3.536 32.582 49.934 56.903 108.381 76.54 183.94 17.89 68.82 25.085 141.14 21.996 221.095-.296 7.646-.965 15.421-1.612 22.943-.466 5.431-.949 11.047-1.29 16.585-.35 5.624-2.287 7.23-8.286 6.85-3.8-.237-7.679-.268-11.43-.298-13.777-.109-26.79-.213-38.116-9.595-2.406-1.994-4.71-4.033-7.378-6.394a844 844 0 0 0-4.163-3.668l-2.828-2.47.356 3.74c.967 10.123 5.231 18.24 13.421 25.54.465.416.978.803 1.522 1.214 2.564 1.937 3.587 2.981 2.632 4.855-.844 1.661-1.616 1.554-4.3.425-.966-.407-1.965-.827-2.969-.954-9.552-1.214-18.592-5.627-28.449-13.886-6.54-5.487-12.875-11.479-19.002-17.273-3.304-3.127-6.72-6.358-10.138-9.48-4.059-3.71-6.34-8.509-8.758-13.589a208 208 0 0 0-1.646-3.407l-2.188-4.39-.63 4.865c-1.863 14.348-.654 29.17 3.806 46.643 3.594 14.046 12.043 25.236 20.677 34.484-27.958-10.345-44.468-32.692-61.886-56.266-4.798-6.494-9.759-13.209-14.973-19.654l-2.18-2.696-.463 3.44c-2.423 18.036-1.856 35.09 1.733 52.138 1.977 9.37 5.914 18.045 9.721 26.434.836 1.842 1.673 3.685 2.49 5.536.218.497.49.991.776 1.517 1.45 2.652 1.72 3.72.452 4.827-1.896 1.658-3.026.887-5.544-1.56-.285-.277-.566-.55-.845-.807-24.952-23.07-49.726-49.238-61.939-84.21-1.097-3.144-2.394-6.268-3.648-9.289-3.552-8.556-6.906-16.638-6.593-25.98l.47-14.03-3.414 13.615c-5.793 23.106-8.479 47.133-8.214 73.451.337 33.278 8.496 64.665 24.25 93.29 2.633 4.786 10.643 19.352 6.28 26.745-1.894 3.207-6.112 4.833-12.538 4.833-4.428 0-8.936-.07-13.297-.138-4.384-.069-8.853-.139-13.336-.139-3.255 0-6.518.037-9.759.14-3.92.116-6.81-.782-8.825-2.757-2.469-2.419-3.693-6.648-3.637-12.57.415-44.889.32-104.59.244-152.563-.014-9.257-.029-18.185-.039-26.63-.06-48.724-.139-97.446-.22-146.17-.124-75.06-.252-152.679-.298-229.015-.019-35.257.074-71.108.165-105.778.086-32.59.174-66.29.168-99.435-.004-28.216-.12-56.904-.234-84.646-.109-26.48-.22-53.862-.233-80.792-.01-35.865.024-76.029.062-118.553.048-53.182.097-108.176.047-154.278m364.144 1196.21c.047-.799.093-1.566.124-2.287 2.466-54.766 1.47-119.979.592-177.516l-.17-11.236c-.864-57.76-12.108-111.924-33.417-160.979-.4-.93-1.132-1.522-2.059-2.27a28 28 0 0 1-1.512-1.287l-3.589-3.317 1.121 4.76c1.542 6.543 3.142 13.047 4.69 19.337 3.435 13.965 6.68 27.155 9.32 40.691 17.844 91.403 18.94 161.592 3.555 227.584-4.515 19.361-11.497 37.655-18.26 54.734-1.813 4.566-13.567 27.235-16.622 28.172l-.477.015c-17.304.558-24.413.79-41.086-1.355 31.28-29.156 40.714-86.123 45.087-126.876 9.347-87.009 2.034-175.489-22.357-270.498-13.689-53.349-31.996-104.615-54.415-152.374l-2.322-4.956c-7.046-15.047-14.332-30.607-22.538-45.419-1.22-2.202-1.264-3.574-.175-5.648 2.72-5.179 5.368-10.496 7.928-15.638 1.647-3.309 3.294-6.618 4.97-9.91.985-1.933 1.7-2.433 2.126-2.512 1.062-.203 3.137 1.68 3.816 2.293 30.217 27.395 50.283 62.252 65.925 92.735 21.153 41.237 35.708 87.385 44.497 141.082l1.403 8.571 1.543-8.546c2.115-11.705-.319-22.959-2.672-33.843l-.126-.585c-.074-.34-.16-.7-.249-1.073-.843-3.513-.744-4.614.442-4.906.501-.123 1.182-.216 1.576.045.696.46.977 2.168 1.203 3.54.108.66.221 1.342.38 1.973 4.571 18.26 8.68 34.58 12.565 49.9.47 1.81 2.303 2.403 3.848 2.717l2.158.44-9.535-53.252.732-.098c26.14 80.094 32.09 161.901 32.961 259.976l.092 10.351 2.84-9.954c15.95-55.89 9.708-112.462 3.674-167.17-.889-8.063-1.796-16.278-2.635-24.522a2007 2007 0 0 0 5.456 21.192c10.976 41.477 22.952 90.761 28.572 141.824 7.398 67.16 3.952 122.071-10.842 172.81-3.743 12.838-11.352 30.677-16.46 30.108-3.533-.383-6.548-.48-9.349-.48-1.449 0-2.84.025-4.216.051-3.964.074-8.065.15-13.312-.416-5.274-.569-5.294-7.573-4.8-15.978m185.98-59.896c-.865 16.115-1.758 32.777-.505 49.211.03.37.073.884.127 1.516 1.92 22.474-.008 25.472-.567 25.836-7.97-.276-17.193-.173-26.956-.063-15.346.17-31.21.347-43.697-.948-4.523-.466-2.766-20.307-2.189-26.828.141-1.599.263-2.978.33-4.025 1.893-29.499-1.252-59.29-4.577-84.546l-2.977.141c-1.249 33.608-4.929 60.806-11.584 85.59-3.436 12.805-10.69 30.882-16.057 30.98-2.772.051-6.172-.276-9.766-.623-3.66-.355-7.4-.717-10.854-.717-1.846 0-3.61.104-5.237.366-.45-1.367-.063-6.475 5.94-24.564.38-1.15.657-1.989.772-2.385 8.796-30.083 14.058-61.708 16.088-96.683.474-8.158.594-16.464.712-24.498.118-8.113.24-16.423.725-24.717 2.948 16.338 3.401 33.037 3.843 49.278.4 14.724.814 29.95 3.072 44.808l1.974 12.984.995-13.095c.591-7.792 1.241-15.713 1.87-23.374 3.445-42.073 7.01-85.58 2.816-128.566-4.2-43.012-12.412-74.527-26.63-102.189l-.277-.528c-.565-1.074-1.339-2.543-1.104-3.215.106-.298.515-.529.844-.673 1.114-.49 2.17.301 4.16 3.134 14.591 20.768 25.825 45.292 34.347 74.974 16.536 57.576 22.215 121.507 17.874 201.197-.245 4.526.032 8.606.85 12.474l1.45 6.864 1.472-6.859c14.494-67.405 9.193-134.16 1.331-191.51 24.922 50.63 25.68 106.38 26.415 160.383l.224 16.357 2.761-14.525c7.118-37.44 8.862-74.837 5.317-114.192 14.65 13.41 22.721 30.108 26.015 53.596 2.787 19.823 1.702 40.061.652 59.634m246.305 6.034c.012 4.745-.747 7.384-4.929 8.635-42.165 12.653-87.723 23.891-135.22 20.48-31.98-2.302-52.122-16.513-63.385-44.725-24.629-61.676-60.05-119.046-94.219-172.52-6.238-9.765-12.503-19.514-18.768-29.264-29.903-46.54-60.823-94.663-88.384-143.704-22.9-40.746-48.08-88.742-56.995-142.789-1.702-10.305-2.49-20.972-3.253-31.289-.28-3.793-.56-7.585-.885-11.368-.087-1.024-.352-4.138.437-4.702.086-.06.291-.159.724-.159.67 0 1.886.233 4.052 1.19 10.91 4.817 23.273 10.28 37.44 6.124l5.891-1.727-6.025-1.178c-14.493-2.833-26.31-6.197-36.872-13.402-4.22-2.878-12.932-20.949-12.106-25.11.302-1.5.617-1.553 3.007-1.507l.378.007c6.035.1 6.811.112 20.57 11.141l2.68 2.147-.254-3.426c-1.334-18.042 5.201-30.214 19.976-37.21 4.971-2.356 7.82-2.988 9.523-2.109 1.636.845 2.76 3.418 3.641 8.346 3.028 16.905 10.501 27.69 23.521 33.938 2.99 1.434 3.093 2.35 3.095 2.45.003.18-.149 1.167-3.535 2.97-.56.296-1.22.528-1.919.772-2.195.77-4.929 1.728-6.88 5.494l-1.64 3.163 3.404-1.043c5.261-1.612 10.683-2.4 15.926-3.162 8.984-1.306 18.274-2.657 26.422-8.25 1.191-.823 5.932-4.462 9.83-7.858 7.95 25.416 10.918 46.961 9.331 67.631-1.943 25.318-4.19 55.164-6.117 84.566-.927 14.204-4.86 28.044-8.66 41.43-.979 3.442-1.99 7-2.934 10.51-7.756 28.79 20.987 46.437 29.982 51.16 11.464 6.023 24.09 8.564 35.024 10.473 24.425 4.275 30.172 16.59 32.231 37.82 1.141 11.708-.323 23.943-4.609 38.5-1.094 3.7-2.7 5.9-5.547 7.592-6.495 3.86-10.78 10.89-11.76 19.291-1.005 8.628 1.786 17.057 7.47 22.55.455.437.925.835 1.386 1.224 1.332 1.124 2.385 2.012 2.764 3.715 8.864 39.792 40.831 52.83 67.69 59.74 17.518 4.516 35.368 2.351 52.632.255q2.932-.358 5.83-.697c6.055-.705 11.502.234 17.271 1.228 4.896.842 9.98 1.705 15.79 1.676l3.135-.02-1.99-2.426c-7.226-8.807-16.253-10.278-24.983-11.703-2.898-.473-5.868-.957-8.76-1.715 2.69-1.85 5.348-3.648 7.94-5.402 7.443-5.038 14.473-9.797 21.255-15.024 8.81-6.789 16.966-14.59 24.853-22.135 11.631-11.128 23.662-22.635 37.893-30.95 10.998-6.428 24.286-12.206 39.461-6.314 6.191 2.404 8.272 5.28 8.25 11.394-.216 60.747-.24 125.975-.076 205.275M1349.38 452.112c-5.593-2.592-11.378-5.273-17.342-6.819-6.224-1.618-12.312-4.97-18.198-8.213l-9.334-5.114 5.59 6.368c11.28 12.85 25.091 23.565 41.054 31.85 9.333 4.85 19.461 9.445 30.1 13.658 5.685 2.253 7.598 4.96 7.583 10.727-.23 77.197-.222 144.72.025 206.422.014 3.432-.526 5.564-1.699 6.71-1.2 1.171-3.313 1.624-7.072 1.515-7.275-.217-14.667-.127-21.818-.038-9.463.117-19.248.237-28.803-.363-38.375-2.404-75.034 9.506-115.38 37.471-24.526 16.985-45.774 37.456-67.183 58.695-3.548 3.52-4.859 3.56-5.265 3.411-.512-.188-1.775-1.4-2.409-8.583l-.565-6.408-2.319 6c-4.839 12.528-7.9 23.787-9.925 36.507-.998 6.26-.188 10.41 2.48 12.686 2.592 2.215 6.604 2.388 12.268.53 4.485-1.474 6.21-1.156 6.865-.632 1.19.95.88 4.365.576 7.67-.638 7.007-2.506 13.721-4.484 20.83-1.76 6.323-3.58 12.863-4.609 19.968l-.57 3.952 3.023-2.603c4.24-3.645 5.83-7.869 7.233-11.596.596-1.584 1.158-3.08 1.885-4.45.997-1.887 2.154-2.999 3.437-3.306 1.4-.337 3.15.226 5.198 1.67 3.61 2.544 8.996 3.382 14.057 2.184 4.191-.99 7.396-3.204 9.023-6.233l1.127-2.09c4.804-8.9 9.771-18.104 13.503-27.663 3.28-8.416 5.27-17.945-4.826-24.81-1.112-.758-1.697-1.53-1.735-2.295-.039-.787.441-2.167 2.957-4.28 58.836-49.359 120.008-70.589 187.002-64.914 5.844.498 7.818 2.512 7.823 7.981l.007 12.403c.008 14.631.015 29.261.051 43.893.014 4.875-1.284 6.712-4.964 7.022-2.29.194-3.683.007-4.139-.557-.246-.304-.552-1.169.168-3.534.448-1.47.058-2.903-1.05-3.832-1.22-1.028-3.106-1.223-4.583-.469-5.686 2.9-10.003.452-15-2.384a84 84 0 0 0-2.992-1.647c-1.13-.585-2.414-1.214-3.842-1.172-8.479.226-17.209-.143-25.65-.498-26.812-1.13-54.528-2.297-79.478 15.013-1.097.76-2.21 1.496-3.325 2.232-1.924 1.271-3.913 2.586-5.8 4.02-2.968 2.262-6.339 5.154-8.837 9.455l-2.49 4.29 4.445-2.196a432 432 0 0 0 6.408-3.254c9.27-4.77 18.12-9.324 28.326-11.059-35.784 21.692-51.194 59.44-63.71 90.094l-4.136 10.127 6.7-8.644c1.323-1.707 2.542-3.618 3.721-5.466 2.602-4.08 5.06-7.933 8.466-9.682 2.87-1.472 3.814-.309 5.995 3.671 1.725 3.146 3.858 7.071 8.664 6.77.547-.032 1.205.474 1.978 1.06 1.464 1.111 3.471 2.632 6.414 1.493l1.856-.72-1.208-1.584c-1.183-1.553-2.378-3.07-3.562-4.576-2.652-3.37-5.157-6.555-7.43-9.955-3.808-5.699-3.303-11.56 1.285-14.932 2.118-1.555 4.23-3.125 6.338-4.696 15.938-11.864 32.418-24.133 52.697-29.154 3.173-.786 5.216-.797 6.244-.029.942.704 1.422 2.312 1.557 5.216.945 20.431 9.583 34.491 26.407 42.984 2.43 1.225 2.683 2.094 2.702 2.33.091 1.092-2.347 2.886-3.656 3.85-4.133 3.035-8.808 4.8-13.76 6.666-3.81 1.438-7.753 2.924-11.399 5.042l-5.935 3.447 6.83-.663c26.063-2.53 44.813-7.696 67.733-27.649 3.772-3.284 7.63-7.31 10.962-10.975 2.238-2.462 3.986-4.989 6.552-9.036.253-.4.598-.754.882-1.145 1.191-1.635 1.484-1.802 2.411-1.395 1.033.454 1.144 1.172.993 3.406q-.036.478-.056.943c-.208 5.364-3.415 8.87-6.85 11.858l-3.586 3.13c-17.645 15.426-35.89 31.375-60.583 35.868l.28 2.968c23.847-.193 45.835-7.975 69.005-24.455.214 2.071.444 4.061.67 6.006.624 5.418 1.214 10.534 1.223 15.527.058 45.37.077 90.741.097 136.111.03 69.708.06 141.788.235 212.684.018 6.882-2.206 10.611-8.496 14.25-18.903 10.926-40.913 14.291-69.262 10.596-13.345-1.742-26.832-4.293-39.874-6.759-12.659-2.392-25.75-4.868-38.737-6.61-7.64-1.028-15.692-1.82-23.92-1.82-16.334 0-33.346 3.127-49.114 13.754-3.232 2.175-7.003 2.468-10.089.784-3.159-1.725-4.998-5.167-4.918-9.21.142-7.412 1.286-14.98 2.393-22.297l.24-1.588c3.408-22.657 4.777-46.262-17.916-64.624 27.221-11.494 50.873-19 76.56-18.57-.068 1.49-.97 2.28-2.134 3.298-1.499 1.31-3.55 3.105-2.582 6.646l.35 1.284 1.316-.2c19.518-2.975 32.895-14.618 39.761-34.609 5.09-14.82-3.424-33.189-24.62-53.123l-4.715-4.433 2.293 6.054c1.64 4.331 3.503 8.39 5.306 12.314 3.884 8.456 7.552 16.443 8.05 25.311.046.816.107 1.627.17 2.434.235 3.14.46 6.103-.258 9.157-3.13 13.204-4.614 14.326-17.623 13.384-4.76-.346-9.598-.963-14.276-1.557-8.536-1.087-17.359-2.208-26.257-1.787-25.126 1.178-45.337 13.401-61.794 25.202-14.662 10.512-26.569 10.29-43.935-.819-13.678-8.753-20.104-23.384-17.192-39.14.532-2.913 1.331-5.644 2.375-8.116 18.28-43.275 19.694-89.625 21.062-134.449.16-5.213.32-10.425.502-15.63 1.097-30.92-5.463-59.128-19.495-83.843-13.163-23.186-33.313-44.002-59.889-61.872-3.086-2.076-6.16-4.174-9.232-6.27-6.47-4.417-13.163-8.983-19.882-13.274-2.489-1.593-3.003-2.23-2.996-2.486 0-.006.104-.603 2.098-1.735 22.197-12.63 38.454-29.404 49.697-51.282 9.61-18.699 15.521-41.284 18.071-69.042 2.735-29.746.467-59.657-1.725-88.583-.839-11.068-1.707-22.513-2.28-33.778-.667-12.97-1.302-26.797-1.125-40.704.413-32.442 16.692-50.946 48.385-55 13.711-1.759 27.74-2.957 41.308-4.116 9.078-.775 18.465-1.578 27.683-2.54 43.808-4.573 83.256-17.993 117.253-39.884 7.302-4.7 14.526-10.77 22.084-18.557 10.01-10.313 21.87-11.699 33.394-3.902 6.707 4.54 13.428 9.318 19.927 13.94 8.772 6.236 17.844 12.686 27.03 18.653 5.455 3.545 11.338 6.242 18.148 9.364 2.161.99 4.37 2.002 6.671 3.09-14.586 2.627-26.14-2.728-37.345-7.922m30.678 399.271c-.677 18.002-15.702 32.99-35.793 35.67-13.438 1.787-31.183-11.948-34.544-26.732-.127-.56-.266-1.138-.408-1.727-1.776-7.359-2.406-12.358 4.737-14.695.984-.322 1.838-.484 2.576-.484.705 0 1.303.148 1.804.441 1.652.97 2.466 3.585 3.182 7.216 2.755 13.984 10.12 20.222 23.883 20.221h.044c10.654-.014 17.952-7.876 19.521-21.03.8-6.72 4.057-6.663 8.98-6.579.713.013 1.434.024 2.145.014 1.618-.029 2.68.25 3.217.805.722.746.651 2.321.582 3.844-.046 1.016-.094 2.065.074 3.036m8.816-425.457c1.057 1.434 1.037 3.798-.05 5.75-.965 1.735-2.372 1.628-5.132 1.002-17.712-4.026-32.216-10.565-44.2-19.944 2.6-.166 5.2-.427 7.742-.683 11.985-1.202 23.307-2.34 33.565 5.76 3.341 2.64 6.06 5.37 8.075 8.115m-236.183 1065.788c-.689-5.454-1.404-11.095-2.056-16.642a37 37 0 0 0-.206-1.462c-.344-2.239-.578-3.754.866-5.335l.23.388c7.116 11.942 13.838 23.223 14.756 37.383.931 14.428-.132 29.03-1.159 43.151-.46 6.32-.937 12.856-1.229 19.304v.001c-.016.367-.034.952-.055 1.708-.709 24.538-3.365 26.598-3.874 26.76-.07-.002-.23-.003-.495-.289-1.725-1.86-3.159-10.215-2.006-28.08l.012-.2c1.652-25.852-1.62-51.695-4.784-76.687m271.422-1128.729c-.007-7.74-.412-12.176-2.612-14.936-2.287-2.87-6.077-3.425-12.257-3.425h-.112c-309.88.301-581.95.59-831.76.884-15.32.02-17.076 1.793-17.076 17.253V990.44h-.166l-.002 174.14c-.003 150.235-.006 307.192.008 448.727.007 25.461.75 26.197 26.486 26.223h.192c71.664.062 143.33.147 214.995.231l185.832.208c138.338.143 281.387.293 422.077.656h.11c5.387 0 8.78-.992 10.987-3.212 2.274-2.287 3.226-5.81 3.183-11.779-.246-35.583-.148-85.587-.06-129.703.04-20.304.076-39.51.078-55.774.042-248.32.062-496.643.082-744.965l.02-200.522c.007-42.025.015-96.625-.005-131.684"/></g></svg>