<svg xmlns="http://www.w3.org/2000/svg" xmlns:xlink="http://www.w3.org/1999/xlink" xmlns:inkscape="http://www.inkscape.org/namespaces/inkscape" version="1.1" width="1984.25" height="1984.25" viewBox="0 0 1984.25 1984.25">
<defs>
<clipPath id="clip_1">
<path transform="matrix(1,0,0,-1,0,1984.25)" d="M0 1984.252H1984.252V0H0Z"/>
</clipPath>
</defs>
<g inkscape:groupmode="layer" inkscape:label="Layer 1">
<g clip-path="url(#clip_1)">
<path transform="matrix(1,0,0,-1,1184.9033,1597.7871)" d="M0 0C-3.696-.228-6.401 .56-8.055 2.337-11.508 6.049-10.397 13.653-9.587 19.207-9.304 21.146-9.06 22.82-9.041 24.104-8.878 35.046-7.823 46.188-6.803 56.961-6.428 60.926-6.041 65.013-5.7 69.062L-5.215 69.083C-4.496 65.458-3.771 61.835-3.048 58.211-.844 47.197 1.433 35.808 3.499 24.579 4.052 21.57 1.887 2.396 0 0M-490.881-1.11C-496.675-1.11-518.265 21.621-522.333 28.229-539.762 56.528-549.399 84.575-551.795 113.971-551.84 114.514-551.938 115.092-552.034 115.649-552.56 118.739-552.338 119.435-550.719 119.788-550.564 119.821-550.42 119.84-550.284 119.84-549.426 119.84-548.897 119.102-547.901 116.774-547.744 116.409-547.59 116.048-547.429 115.703-531.874 82.547-503.801 60.942-461.609 49.655-459.873 49.19-458.137 48.699-456.397 48.206-447.709 45.746-438.727 43.197-429.175 43.948L-423.502 44.391-428.66 46.797C-468.994 65.612-475.109 103.285-481.023 139.719-481.074 140.028-481.14 140.361-481.21 140.708-481.784 143.564-481.613 144.365-480.339 144.788-478.801 145.3-478.403 144.867-477.222 142.623-476.878 141.971-476.522 141.297-476.072 140.654-459.4 116.9-442.228 94.568-415.578 82.362-408.175 78.972-400.566 77.972-392.771 77.17-392.481 77.14-392.183 77.099-391.882 77.057-389.926 76.786-386.655 76.336-385.556 79.898-384.597 82.992-387.012 84.832-388.609 86.05-388.873 86.251-389.132 86.448-389.372 86.646-393.767 90.273-398.291 93.894-402.666 97.394L-403.955 98.425C-416.449 108.408-422.735 122.533-423.736 142.875-423.757 143.293-423.806 143.739-423.857 144.194-424.093 146.286-424.035 147.047-423.229 147.433-421.936 148.052-421.227 147.544-419.457 145.476-419.221 145.2-418.987 144.927-418.752 144.668L-417.586 143.374C-406.329 130.87-394.688 117.942-379.046 109.867-371.031 105.727-360.198 101.313-347.472 103.988-344.603 104.59-341.216 105.602-340.479 108.116-339.75 110.596-341.905 113.162-344.34 115.565-344.91 116.13-345.554 116.634-346.176 117.122-347.924 118.492-349.478 119.71-349.763 122.204-337.96 117.471-325.745 112.834-312.486 112.665-311.576 112.654-310.363 111.727-310.127 110.861-310.06 110.615-310.045 110.406-310.507 110.124-315.43 107.124-315.399 102.567-315.373 98.548-315.35 95.101-315.33 92.123-318.036 89.966-320.46 88.036-322.694 85.842-324.854 83.72-328.708 79.934-332.348 76.358-337.151 73.985-339.563 72.796-341.306 71.937-341.241 70.167-341.181 68.545-339.548 67.563-336.932 66.505-336.418 66.297-335.553 65.838-335.522 65.098-335.495 64.429-336.121 63.424-337.581 62.691-344.104 59.41-350.183 55.17-356.062 51.068-366.267 43.949-376.82 36.587-389.765 34.343-399.077 32.725-408.321 30.903-418.108 28.977-422.624 28.087-427.245 27.177-432.023 26.256L-443.987 23.954-431.822 23.292C-400.552 21.594-372.338 27.501-347.98 40.855-325.324 53.276-312.265 74.668-300.706 96.614-307.722 64.502-322.782 17.915-352.918 .528L-352.919 .527C-355.496-.96-358.165-.977-360.985-.949H-361.706C-379.008-.972-394.135-.973-408.627-.973-434.708-.973-459.342-.974-490.874-1.11ZM-470.883 1207.39C-481.974 1144.747-488.085 1051.933-485.746 981.684-483.112 902.586-469.803 834.348-445.057 773.072-433.121 743.517-418.223 715.243-399.511 686.633-394.484 678.943-394.405 663.773-399.357 657.12-400.811 655.165-401.648 655.008-401.944 655.021-402.973 655.092-404.219 657.366-405.045 658.871L-405.354 659.433C-407.299 662.926-409.249 666.417-411.199 669.908-419.307 684.424-427.691 699.434-435.542 714.392-463.398 767.455-484.792 823.918-499.131 882.213-517.676 957.654-522.232 1027.917-513.059 1097.016-512.549 1100.853-511.986 1105.193-511.376 1109.895-507.636 1138.756-501.982 1182.372-495.976 1205.562-493.721 1214.264-489.98 1217.98-483.051 1217.98-482.006 1217.98-480.887 1217.896-479.69 1217.731L-479.434 1217.695-479.18 1217.749C-475.564 1218.505-473.076 1218.253-471.785 1217-470.291 1215.551-469.996 1212.407-470.883 1207.39M-306.451 1208.974C-308.603 1204.015-310.585 1192.497-312.684 1180.301-314.557 1169.419-316.494 1158.166-318.334 1153.683-339.107 1103.045-347.812 1049.229-353.585 1003.266-359.387 957.096-358.901 910.068-358.431 864.588-358.21 843.17-357.98 821.023-358.413 799.265-358.493 795.2-358.196 790.988-357.91 786.915-357.319 778.499-356.761 770.551-359.17 763.567-364.107 749.262-364.421 735.793-360.22 718.53-357.992 709.359-359.358 699.033-364.519 686.032-366.239 681.696-367.937 677.352-369.636 673.006-382.089 641.156-394.966 608.222-416.095 580.031-422.765 571.127-430.995 563.471-438.954 556.066-440.468 554.659-441.981 553.251-443.484 551.835-444.831 550.571-445.911 549.956-446.637 550.008-446.792 550.018-447.265 550.049-447.9 550.827-448.683 551.785-449.018 552.659-446.19 555.209-428.889 570.777-417.622 590.88-406.727 610.321-405.245 612.963-403.763 615.608-402.264 618.246-379.033 659.13-369.042 706.308-370.821 766.715-371.65 794.883-373.294 823.458-374.884 851.093-375.517 862.097-376.172 873.476-376.766 884.67-377.908 906.115-377.62 934.227-365.148 961.488-358.908 975.118-359.368 991.279-366.41 1005.826-380.363 1034.634-372.944 1061.046-363.847 1083.084-362.19 1087.097-360.385 1091.137-358.64 1095.044-357.798 1096.929-356.956 1098.813-356.126 1100.703L-353.679 1106.276-358.428 1102.474C-370.346 1092.933-374.691 1079.363-378.894 1066.241-379.908 1063.071-380.952 1059.812-382.096 1056.635-383.772 1058.284-383.396 1059.89-382.911 1061.965-382.779 1062.527-382.651 1063.082-382.564 1063.626-377.218 1097.365-364.351 1165.23-350.035 1205.584-347.188 1213.613-342.149 1216.843-334.171 1215.745H-334.17C-327.566 1214.84-320.753 1215.129-314.165 1215.411-313.047 1215.458-311.932 1215.506-310.818 1215.547-308.027 1215.655-306.23 1215.244-305.628 1214.363-305.206 1213.744-305.005 1212.307-306.451 1208.974M-283.352 767.259C-255.976 787.592-234 810.122-216.48 835.822-224.323 811.704-260.219 774.818-283.352 767.259M-174.528 857.893C-181.827 837.267-194.048 820.73-208.488 811.715-188.595 850.573-176.789 883.261-170.762 916.257-166.063 899.044-167.361 878.144-174.528 857.893M41.165 216.822C14.646 210.439-7.767 212.164-27.349 222.087-39.129 228.058-46.749 236.969-49.997 248.571-50.806 251.466-50.832 253.405-50.072 254.335-49.484 255.056-48.232 255.418-46.344 255.418-45.933 255.418-45.492 255.4-45.021 255.366-42.806 255.203-40.573 255.23-38.416 255.257-37.286 255.271-36.159 255.287-35.026 255.272-11.285 255.006-11.285 255.006 1.797 236.108L3.159 234.14 4.329 236.229C14.864 255.041 33.157 261.076 47.916 264.232 66.208 268.148 84.789 272.206 102.759 276.131 109.179 277.533 115.6 278.935 122.021 280.334 100.211 251.561 77.227 225.502 41.165 216.822M12.506 270.699H12.507C1.424 267.811-6.738 271.335-12.452 281.462L-13.913 284.053-15.12 281.334C-15.69 280.049-16.242 278.982-16.729 278.042-17.666 276.232-18.406 274.803-18.515 273.203-18.703 270.308-19.515 268.276-20.925 267.166-22.404 266.004-24.742 265.694-27.867 266.241-35.013 267.498-42.514 268.678-50.15 268.678-52.671 268.678-55.207 268.549-57.749 268.253-59.062 268.103-60.104 268.329-60.851 268.936-61.78 269.688-62.072 270.887-62.153 271.76-62.257 272.861-62.4 273.967-62.543 275.071-63.322 281.093-63.996 286.294-58.705 290.872-52.523 296.219-47.27 294.443-40.793 289.849-33.685 284.79-28.106 286.14-21.412 289.948-.445 301.901 23.644 304.822 54.396 299.139 64.794 297.223 75.423 295.629 85.701 294.087 89.729 293.483 93.758 292.879 97.781 292.255 99.718 291.953 101.139 291.661 102.256 290.421 71.258 285.711 40.944 278.103 12.506 270.699M-168.516 711.183C-167.767 710.582-167.12 709.377-167.77 707.961-168.418 706.551-169.128 706.536-171.597 707.228-191.233 712.751-209.693 708.383-225.165 703.381-229.9 701.847-233.876 699.219-237.72 696.677-240.539 694.814-243.454 692.887-246.583 691.474-252.807 688.659-256.349 691.737-260.098 694.999-260.982 695.768-261.897 696.564-262.833 697.26-263.148 697.495-263.306 697.707-263.303 697.889-263.279 699.171-259.929 701.478-258.829 702.235-250.02 708.293-239.609 710.049-229.541 711.747-225.709 712.396-221.875 713.005-218.041 713.615-216.276 713.896-214.512 714.176-212.748 714.46L-200.805 716.385-212.856 717.429C-236.992 719.519-254.391 715.763-269.281 705.25-274.595 701.498-278.895 696.687-282.061 690.949-284.035 687.376-286.249 685.376-288.462 685.165-291.066 684.911-293.535 687.15-295.137 689.072-305.891 701.944-313.313 717.597-317.198 735.593-317.615 737.53-317.472 739.128-316.825 739.763-316.513 740.068-316.036 740.173-315.523 740.173-315.077 740.173-314.604 740.093-314.196 739.996-284.863 732.997-254.632 732.737-225.396 732.487-218.533 732.428-211.436 732.367-204.472 732.22-191.701 731.946-183.917 724.886-175.675 717.412-173.376 715.327-170.998 713.171-168.516 711.183M-319.313 618.31C-319.129 618.542-318.819 618.931-317.504 617.974-297.571 603.47-285.753 588.015-280.731 569.735-284.041 573.524-287.418 577.244-290.716 580.878-300.24 591.367-310.087 602.214-317.89 614.303-318.113 614.649-318.37 614.994-318.629 615.341-319.826 616.937-320.032 617.403-319.313 618.31M-149.314 652.744C-151.437 651.579-153.634 650.375-154.369 650.139-162.524 647.518-173.084 649.122-182.618 654.429-191.81 659.545-198.488 667.36-200.482 675.333-200.641 675.969-200.847 676.655-201.062 677.37-201.833 679.922-202.705 682.814-201.634 684.675-201.026 685.731-199.735 686.498-197.794 686.956-196.519 687.259-195.372 687.41-194.355 687.41-192.716 687.41-191.42 687.017-190.481 686.234-188.896 684.91-188.187 682.361-188.38 678.66-188.736 671.732-184.895 666.767-176.636 663.481V663.48C-168.99 660.436-161.037 658.639-154.672 666.047-151.969 669.192-150.405 669.67-149.566 669.517-148.723 669.362-147.411 668.339-145.965 664.342-144.91 661.425-143.959 658.701-143.07 656.057-145.093 655.059-147.314 653.841-149.314 652.744M-272.406 535.458C-257.564 518.978-249.965 498.293-242.583 478.198L-242.273 477.354C-245.896 484.298-249.414 491.267-252.874 498.118-259.101 510.452-265.497 523.119-272.406 535.458M-550.101 164.439-550.099 164.44C-548.866 164.666-548.453 164.195-547.512 161.513-536.985 131.47-518.499 103.334-489.335 72.967-488.851 72.461-488.284 72.035-487.736 71.623-485.825 70.188-485.797 69.921-486.487 68.914-486.93 68.27-487.375 68.142-487.672 68.101-488.708 67.967-490.171 68.734-491.156 69.562-495.157 72.938-499.414 76.194-503.53 79.345-517.525 90.055-531.997 101.13-538.503 118.548-540.921 125.026-542.99 131.736-544.99 138.227-547.197 145.384-549.283 152.15-551.776 158.55-551.763 159.129-551.767 159.69-551.77 160.227-551.79 163.665-551.587 164.176-550.101 164.439M-169.655 1208.98V1208.98C-169.103 1212.02-168.11 1213.989-166.622 1214.999-165.76 1215.583-164.687 1215.874-163.374 1215.874-162.647 1215.874-161.847 1215.785-160.969 1215.607-159.841 1215.379-158.393 1214.926-157.898 1214.062-157.312 1213.038-157.94 1211.21-158.547 1209.444-158.812 1208.674-159.084 1207.879-159.277 1207.1-166.125 1179.546-169.687 1135.941-172.55 1100.903-173.533 1088.869-174.462 1077.501-175.422 1067.97-175.45 1067.678-175.468 1067.381-175.484 1067.079-175.544 1066.048-175.598 1065.102-176.225 1064.095-177.715 1110.697-176.273 1172.614-169.655 1208.98M-273.02 1207.819C-277.193 1196.953-281.107 1177.34-284.893 1158.373-287.541 1145.109-290.041 1132.582-292.339 1124.703-316.174 1043.002-315.874 960.863-291.445 880.566-290.659 877.989-289.563 875.489-288.295 872.594-287.623 871.058-286.888 869.38-286.1 867.471L-283.607 861.422-283.227 867.955C-283.05 870.982-283.663 873.559-284.203 875.832-284.911 878.813-285.46 881.124-284.214 883.638-281.82 879.627-279.949 875.296-278.132 871.088-274.884 863.57-271.525 855.796-265.164 849.813L-260.401 845.335-262.745 851.441C-283.315 905.028-293.622 955.46-294.11 1005.13-293.678 1002.429-293.286 999.686-292.885 996.885-290.713 981.708-288.467 966.013-278.577 951.052L-274.994 945.632-275.849 952.075C-276.573 957.533-277.361 962.708-278.123 967.713-279.672 977.887-281.135 987.496-281.653 997.018-286.784 1091.794-278.002 1159.094-254.805 1202.763-254.468 1203.398-254.075 1204.021-253.66 1204.679-252.872 1205.927-252.057 1207.218-251.576 1208.697-250.561 1211.824-248.895 1213.966-246.625 1215.063-244.025 1216.318-240.496 1216.221-236.685 1214.795-233.07 1213.441-233.669 1210.043-234.996 1205.014-235.193 1204.262-235.384 1203.538-235.535 1202.863-245.189 1159.536-247.456 1087.057-247.948 1047.71-247.961 1046.766-247.895 1045.841-247.786 1044.31-247.715 1043.318-247.625 1042.055-247.524 1040.34L-247.094 1033.058-244.625 1039.921C-240.812 1050.519-239.655 1060.063-238.536 1069.295-238.089 1072.979-237.667 1076.46-237.085 1079.951-235.674 1088.427-234.202 1098.81-232.644 1109.801-228.221 1140.999-222.716 1179.824-214.633 1202.847-211.454 1211.892-207.831 1216.577-197.816 1215.485-195.201 1215.196-193.552 1214.547-192.917 1213.555-192.337 1212.651-192.417 1211.173-193.167 1208.906-208.284 1163.284-202.655 1090.436-193.241 1041.916-172.406 934.57-226.972 814.228-320.164 761.989-321.166 761.428-322.205 760.803-323.265 760.165-327.908 757.372-333.17 754.207-336.818 755.844-339.71 757.139-339.37 760.388-338.465 765.586-338.114 767.612-337.749 769.707-337.789 771.595-338.119 787.539-338.065 803.767-338.013 819.46-337.994 825.036-337.976 830.611-337.974 836.187-337.61 836.305-337.248 836.424-336.884 836.542L-316.125 805.264-314.94 807.45C-312.792 811.414-314.592 814.59-316.039 817.142-317.313 819.39-318.07 820.882-317.468 822.623-315.508 822.047-314.372 820.465-312.877 818.386-311.274 816.156-309.458 813.628-306.123 811.845L-302.06 809.672-304.075 813.82C-322.211 851.148-332.054 881.41-335.99 911.941-340.215 944.702-339.864 974.769-334.898 1003.524-332.013 980.813-327.752 958.129-323.268 935.019L-322.357 930.29C-317.745 906.261-312.977 881.414-296.745 860.626L-291.649 854.101-295.683 866.861C-296.973 870.924-298.307 875.125-299.569 879.264-301.397 885.257-303.178 891.134-304.855 897.137-316.415 938.378-316.487 980.711-314.844 1020.314-312.576 1074.906-302.567 1152.78-291.564 1201.458-291.363 1202.345-291.186 1203.264-291.008 1204.191-289.736 1210.809-288.627 1216.523-278.929 1215.736H-278.928C-275.127 1215.429-273.025 1214.759-272.313 1213.626-271.678 1212.615-271.909 1210.715-273.02 1207.819M-450.089 919.764C-451.519 971.864-452.493 1027.435-447.44 1083.669L-447.085 1087.638C-444.06 1121.448-438.996 1178.035-431.433 1209.255-429.66 1216.591-426.376 1217.533-420.933 1216.703-419.119 1216.425-417.883 1215.836-417.261 1214.952-416.191 1213.434-416.693 1210.835-417.177 1208.321-417.32 1207.583-417.459 1206.856-417.561 1206.163-419.907 1190.228-422.48 1147.295-423.274 1132.097L-423.773 1122.537-420.383 1131.489C-417.071 1140.237-413.678 1156.423-410.396 1172.075-407.378 1186.472-404.528 1200.069-401.825 1207.868-399.495 1214.589-396.1 1216.976-389.719 1216.384-386.344 1216.07-382.916 1216.052-379.602 1216.034-378.174 1216.026-376.747 1216.019-375.322 1215.988-370.308 1215.88-365.73 1215.664-364.801 1214.226-363.882 1212.805-365.55 1208.555-367.187 1204.683-377.751 1179.682-385.18 1132.795-390.096 1101.769-390.836 1097.097-391.526 1092.744-392.168 1088.822-392.376 1087.552-392.581 1086.281-392.785 1085.01-393.804 1078.675-394.848 1072.183-396.383 1065.802-399.453 1094.738-395.97 1125.407-385.572 1161.57L-388.394 1162.547C-416.549 1092.97-415.406 1019.332-412.497 947.574-419.834 991.285-421.403 1037.028-417.304 1086.728L-416.272 1099.245-420.214 1087.321C-425.754 1070.558-426.631 1055.079-427.479 1040.109-427.592 1038.111-427.704 1036.119-427.828 1034.129-428.906 1016.671-428.624 998.801-426.987 981.014-426.468 975.36-425.994 969.705-425.519 964.049-424.568 952.726-423.585 941.019-422.249 929.509-420.2 911.797-416.154 894.365-412.241 877.507L-411.481 874.24C-408.415 861.073-405.261 847.53-402.854 833.892-415.474 856.876-420.764 882.553-425.895 907.46-428.225 918.766-430.633 930.457-433.695 941.767L-435.797 949.532-436.625 941.529C-438.93 919.235-435.11 897.709-431.415 876.893-427.286 853.65-420.934 830.594-414.791 808.298-409.001 787.285-403.015 765.557-398.924 743.774-396.468 730.728-394.328 717.931-395.115 704.834-395.166 704-395.201 700.568-396.197 700.568-397.193 700.568-399.063 703.289-399.481 703.945-411.873 723.458-420.558 745.215-428.958 766.256-430.445 769.982-431.932 773.708-433.439 777.423-448.019 813.377-458.496 852.086-464.581 892.473-474.258 956.646-475.68 1020.82-468.809 1083.216-467.661 1093.635-466.196 1104.211-464.779 1114.438-464.255 1118.219-463.731 1121.999-463.222 1125.781L-463.132 1126.495C-462.934 1128.101-462.744 1129.649-461.705 1131.434-462.146 1118.72-462.772 1105.94-463.38 1093.54-466.334 1033.312-469.124 976.424-453.022 919.317L-449.76 907.745ZM-592.55 1212.004C-592.553 1214.582-592.099 1216.286-591.164 1217.213-590.189 1218.179-588.424 1218.6-585.44 1218.562-561.202 1218.283-539.944 1218.22-520.452 1218.37-517.811 1218.378-516.071 1217.883-515.225 1216.861-513.934 1215.301-514.544 1212.205-515.083 1209.473L-515.221 1208.763C-517.157 1198.699-519.426 1180.309-521.621 1162.524-523.261 1149.225-524.812 1136.663-526.052 1129.052-534.425 1077.704-535.853 1023.644-530.299 968.372-522.932 895.157-503.734 822.46-473.239 752.298-456.198 713.097-435.509 674.244-411.746 636.819-408.09 631.061-407.637 626.741-410.074 620.88-430.659 571.408-469.351 538.384-528.361 519.921-530.875 519.136-533.491 518.471-536.021 517.829-537.203 517.529-538.385 517.229-539.564 516.916L-550.361 514.046-539.19 513.973C-474.208 513.529-430.419 533.824-401.465 577.791-400.829 578.758-399.139 581.325-398.328 581.325H-398.327C-398.038 581.324-397.141 580.978-395.06 577.789-362.478 527.855-338.157 469.408-318.52 393.85-300.63 325.03-293.435 252.709-296.524 172.754-296.82 165.108-297.489 157.333-298.136 149.811-298.602 144.38-299.085 138.764-299.426 133.226-299.777 127.602-301.713 125.997-307.712 126.376-311.512 126.613-315.391 126.644-319.142 126.674-332.919 126.783-345.933 126.887-357.258 136.269-359.664 138.263-361.968 140.302-364.636 142.663-365.943 143.82-367.317 145.036-368.799 146.331L-371.627 148.802-371.271 145.061C-370.304 134.938-366.04 126.822-357.85 119.521-357.385 119.105-356.872 118.718-356.328 118.307-353.764 116.37-352.741 115.326-353.696 113.452-354.54 111.791-355.312 111.898-357.996 113.027-358.962 113.434-359.961 113.854-360.965 113.981-370.517 115.195-379.557 119.608-389.414 127.867-395.954 133.354-402.289 139.346-408.416 145.14-411.72 148.267-415.137 151.498-418.554 154.62-422.613 158.33-424.895 163.129-427.312 168.209-427.851 169.343-428.393 170.481-428.958 171.616L-431.146 176.007-431.777 171.141C-433.639 156.793-432.43 141.972-427.97 124.498-424.376 110.452-415.927 99.262-407.293 90.014-435.251 100.359-451.761 122.706-469.179 146.28-473.977 152.774-478.938 159.489-484.152 165.934L-486.333 168.63-486.795 165.191C-489.218 147.154-488.651 130.1-485.062 113.052-483.085 103.682-479.148 95.007-475.341 86.618-474.505 84.776-473.668 82.933-472.851 81.082-472.633 80.585-472.362 80.091-472.075 79.565-470.625 76.913-470.356 75.845-471.623 74.738-473.519 73.08-474.649 73.851-477.167 76.299-477.452 76.575-477.733 76.849-478.012 77.105-502.964 100.175-527.738 126.343-539.951 161.316-541.048 164.459-542.345 167.583-543.599 170.604-547.151 179.16-550.505 187.242-550.192 196.584L-549.723 210.615-553.136 196.999C-558.929 173.893-561.615 149.866-561.35 123.548-561.013 90.27-552.854 58.883-537.1 30.258-534.467 25.472-526.457 10.906-530.821 3.513-532.714 .306-536.932-1.32-543.358-1.32-547.786-1.32-552.294-1.25-556.655-1.182-561.039-1.113-565.508-1.043-569.991-1.043-573.246-1.043-576.509-1.08-579.75-1.182-583.671-1.299-586.56-.401-588.575 1.574-591.044 3.993-592.268 8.222-592.212 14.144-591.797 59.033-591.892 118.735-591.968 166.707-591.982 175.964-591.997 184.892-592.007 193.338-592.067 242.061-592.146 290.783-592.227 339.507-592.351 414.568-592.479 492.186-592.525 568.522-592.544 603.779-592.451 639.63-592.36 674.3-592.274 706.891-592.186 740.591-592.192 773.735-592.196 801.951-592.313 830.639-592.426 858.381-592.535 884.861-592.647 912.243-592.659 939.173-592.67 975.038-592.635 1015.202-592.597 1057.726-592.549 1110.908-592.5 1165.902-592.55 1212.004M-228.406 15.794C-228.359 16.593-228.313 17.36-228.282 18.081-225.816 72.847-226.812 138.06-227.69 195.597L-227.86 206.833C-228.724 264.594-239.968 318.757-261.277 367.812-261.677 368.742-262.409 369.334-263.336 370.083-263.781 370.442-264.286 370.85-264.848 371.369L-268.437 374.686-267.316 369.926C-265.774 363.383-264.174 356.879-262.627 350.589-259.191 336.624-255.946 323.434-253.307 309.898-235.462 218.495-234.366 148.306-249.751 82.314-254.266 62.953-261.248 44.659-268.012 27.58-269.824 23.014-281.578 .345-284.633-.592L-285.11-.607C-302.414-1.165-309.523-1.396-326.196 .748-294.917 29.904-285.482 86.871-281.109 127.624-271.762 214.633-279.075 303.113-303.466 398.122-317.155 451.471-335.462 502.737-357.881 550.496L-360.203 555.452C-367.249 570.499-374.535 586.059-382.741 600.871-383.962 603.073-384.005 604.445-382.916 606.519-380.196 611.698-377.548 617.015-374.988 622.157-373.341 625.466-371.694 628.775-370.019 632.068-369.033 634-368.318 634.5-367.892 634.579-366.83 634.782-364.755 632.9-364.076 632.286-333.859 604.891-313.793 570.034-298.151 539.551-276.998 498.314-262.443 452.166-253.654 398.469L-252.251 389.898-250.708 398.444C-248.593 410.149-251.027 421.403-253.38 432.287L-253.506 432.872C-253.58 433.212-253.667 433.572-253.755 433.945-254.598 437.458-254.499 438.559-253.313 438.851-252.812 438.974-252.131 439.067-251.737 438.806-251.041 438.346-250.76 436.638-250.534 435.267-250.426 434.606-250.313 433.924-250.155 433.293-245.583 415.033-241.474 398.713-237.589 383.394-237.12 381.584-235.286 380.99-233.741 380.676L-231.583 380.236-241.118 433.488-240.386 433.586C-214.247 353.492-208.296 271.685-207.425 173.61L-207.333 163.259-204.493 173.213C-188.544 229.103-194.785 285.675-200.819 340.384-201.708 348.446-202.615 356.661-203.454 364.905-201.679 357.886-199.859 350.747-197.998 343.713-187.022 302.236-175.046 252.952-169.426 201.889-162.028 134.729-165.474 79.818-180.268 29.08-184.011 16.241-191.62-1.598-196.728-1.029-200.261-.646-203.276-.548-206.077-.548-207.526-.548-208.918-.574-210.293-.6-214.257-.674-218.358-.75-223.605-.184-228.879 .385-228.899 7.389-228.406 15.794M-42.426 75.69C-43.29 59.575-44.183 42.913-42.93 26.479-42.901 26.109-42.857 25.595-42.803 24.963-40.884 2.489-42.811-.509-43.37-.873-51.341-.597-60.563-.7-70.326-.81-85.672-.979-101.536-1.157-114.023 .138-118.546 .604-116.789 20.445-116.212 26.966-116.071 28.565-115.949 29.944-115.882 30.991-113.989 60.49-117.134 90.282-120.459 115.537L-123.436 115.396C-124.685 81.788-128.365 54.59-135.02 29.806-138.456 17.001-145.71-1.076-151.077-1.174-153.849-1.225-157.249-.898-160.843-.551-164.503-.196-168.243 .166-171.697 .166-173.543 .166-175.307 .062-176.934-.2-177.385 1.167-176.997 6.275-170.995 24.364-170.614 25.515-170.337 26.353-170.222 26.749-161.426 56.832-156.164 88.457-154.134 123.432-153.66 131.59-153.54 139.896-153.422 147.93-153.304 156.043-153.183 164.353-152.697 172.647-149.749 156.309-149.296 139.61-148.854 123.369-148.454 108.645-148.04 93.419-145.782 78.561L-143.808 65.577-142.813 78.672C-142.222 86.464-141.572 94.385-140.944 102.046-137.498 144.119-133.933 187.626-138.127 230.612-142.327 273.624-150.539 305.139-164.757 332.801L-165.034 333.329C-165.599 334.403-166.373 335.872-166.138 336.544-166.032 336.842-165.623 337.073-165.294 337.217-164.18 337.708-163.125 336.916-161.135 334.083-146.543 313.315-135.309 288.791-126.787 259.109-110.251 201.533-104.572 137.602-108.913 57.912-109.158 53.386-108.881 49.306-108.064 45.438L-106.614 38.574-105.141 45.433C-90.647 112.838-95.948 179.593-103.81 236.944-78.888 186.313-78.131 130.563-77.395 76.56L-77.171 60.203-74.41 74.728C-67.292 112.169-65.548 149.565-69.093 188.92-54.444 175.511-46.372 158.812-43.078 135.324-40.291 115.501-41.376 95.263-42.426 75.69M203.879 69.656V69.655C203.891 64.91 203.132 62.271 198.95 61.02 156.785 48.367 111.227 37.129 63.729 40.541 31.75 42.842 11.608 57.053 .345 85.265-24.284 146.941-59.705 204.311-93.874 257.786-100.112 267.55-106.377 277.299-112.642 287.049-142.545 333.589-173.465 381.712-201.026 430.753-223.927 471.499-249.107 519.495-258.021 573.542-259.723 583.847-260.511 594.514-261.274 604.831-261.555 608.624-261.835 612.416-262.159 616.199-262.246 617.223-262.511 620.337-261.722 620.901-261.636 620.962-261.431 621.06-260.998 621.06-260.328 621.06-259.112 620.827-256.946 619.871-246.037 615.053-233.673 609.591-219.506 613.746L-213.615 615.473-219.64 616.651C-234.133 619.484-245.95 622.848-256.512 630.053-260.733 632.931-269.444 651.002-268.618 655.163-268.316 656.663-268.001 656.716-265.611 656.67L-265.233 656.663C-259.198 656.564-258.422 656.551-244.663 645.522L-241.984 643.375-242.237 646.801C-243.571 664.843-237.036 677.015-222.261 684.011-217.29 686.367-214.441 686.999-212.738 686.12-211.102 685.275-209.979 682.702-209.097 677.774-206.069 660.869-198.596 650.085-185.576 643.836-182.587 642.402-182.483 641.486-182.481 641.386-182.478 641.207-182.63 640.219-186.016 638.417-186.576 638.12-187.236 637.888-187.935 637.644-190.13 636.874-192.864 635.916-194.816 632.15L-196.456 628.987-193.051 630.03C-187.79 631.642-182.368 632.431-177.125 633.192-168.141 634.498-158.851 635.849-150.703 641.442-149.512 642.265-144.771 645.904-140.874 649.3-132.923 623.884-129.955 602.339-131.542 581.669-133.485 556.351-135.732 526.505-137.659 497.103-138.586 482.899-142.519 469.059-146.32 455.673-147.298 452.231-148.309 448.673-149.253 445.164-157.009 416.373-128.266 398.726-119.271 394.004-107.807 387.98-95.181 385.439-84.247 383.53-59.822 379.255-54.075 366.94-52.016 345.711-50.875 334.002-52.339 321.767-56.625 307.21-57.719 303.51-59.326 301.31-62.172 299.618-68.667 295.759-72.953 288.728-73.933 280.327-74.937 271.699-72.146 263.27-66.462 257.777-66.007 257.34-65.537 256.942-65.076 256.553-63.744 255.429-62.691 254.541-62.312 252.838-53.448 213.046-21.481 200.009 5.377 193.098 22.896 188.582 40.746 190.747 58.01 192.843 59.965 193.08 61.908 193.315 63.839 193.54 69.895 194.245 75.342 193.306 81.111 192.312 86.007 191.47 91.09 190.607 96.9 190.636L100.036 190.656 98.046 193.082C90.82 201.889 81.793 203.36 73.063 204.785 70.165 205.258 67.195 205.742 64.303 206.5 66.993 208.35 69.651 210.148 72.243 211.902 79.686 216.94 86.716 221.699 93.498 226.926 102.308 233.715 110.464 241.517 118.351 249.061 129.982 260.189 142.013 271.696 156.244 280.011 167.242 286.439 180.53 292.217 195.705 286.325 201.896 283.921 203.977 281.046 203.955 274.931 203.739 214.184 203.715 148.956 203.879 69.656M164.477 1145.675C158.884 1148.267 153.099 1150.948 147.135 1152.494 140.911 1154.112 134.823 1157.464 128.937 1160.707L119.603 1165.821 125.192 1159.453C136.472 1146.603 150.284 1135.888 166.247 1127.604 175.58 1122.753 185.708 1118.158 196.347 1113.945 202.032 1111.692 203.945 1108.985 203.93 1103.218 203.699 1026.021 203.708 958.499 203.955 896.796 203.969 893.364 203.429 891.232 202.256 890.087 201.056 888.915 198.943 888.462 195.184 888.571 187.909 888.788 180.517 888.698 173.366 888.609 163.903 888.492 154.118 888.372 144.563 888.972 106.188 891.376 69.529 879.466 29.182 851.501 4.657 834.516-16.591 814.045-38 792.806-41.548 789.286-42.859 789.246-43.265 789.395-43.777 789.583-45.04 790.796-45.674 797.978L-46.239 804.386-48.558 798.386C-53.397 785.858-56.459 774.599-58.483 761.879-59.481 755.62-58.671 751.469-56.004 749.193-53.411 746.978-49.399 746.805-43.735 748.663-39.25 750.137-37.526 749.819-36.87 749.295-35.68 748.346-35.991 744.93-36.294 741.626-36.932 734.618-38.8 727.904-40.778 720.796-42.539 714.472-44.359 707.932-45.387 700.827L-45.958 696.875-42.934 699.478C-38.695 703.123-37.104 707.347-35.701 711.074-35.105 712.658-34.543 714.154-33.816 715.525-32.819 717.411-31.662 718.523-30.379 718.83-28.979 719.167-27.229 718.604-25.181 717.16-21.572 714.616-16.185 713.778-11.124 714.976-6.933 715.966-3.728 718.18-2.101 721.209L-.974 723.299C3.83 732.199 8.797 741.403 12.529 750.962 15.808 759.378 17.798 768.907 7.703 775.773 6.591 776.53 6.006 777.302 5.968 778.067 5.929 778.854 6.409 780.234 8.925 782.348 67.761 831.706 128.933 852.936 195.927 847.261 201.771 846.763 203.745 844.749 203.75 839.28L203.757 826.877C203.765 812.246 203.772 797.616 203.808 782.984 203.822 778.109 202.524 776.272 198.844 775.962 196.554 775.768 195.161 775.955 194.705 776.519 194.459 776.823 194.153 777.688 194.873 780.053 195.321 781.523 194.931 782.956 193.823 783.885 192.603 784.913 190.717 785.108 189.24 784.354 183.554 781.455 179.237 783.902 174.24 786.738 173.269 787.291 172.262 787.861 171.248 788.385 170.117 788.97 168.834 789.599 167.406 789.557 158.927 789.331 150.197 789.7 141.755 790.055 114.944 791.185 87.228 792.352 62.278 775.042 61.181 774.282 60.067 773.546 58.953 772.81 57.029 771.539 55.04 770.224 53.152 768.79 50.185 766.528 46.814 763.636 44.316 759.335L41.825 755.045 46.271 757.241C48.421 758.303 50.552 759.4 52.679 760.495 61.948 765.265 70.798 769.819 81.005 771.554 45.221 749.862 29.811 712.115 17.294 681.46L13.159 671.333 19.858 679.977C21.182 681.684 22.401 683.595 23.58 685.443 26.182 689.523 28.64 693.376 32.046 695.125 34.916 696.597 35.86 695.434 38.041 691.454 39.766 688.308 41.899 684.383 46.705 684.684 47.252 684.716 47.91 684.21 48.683 683.625 50.147 682.513 52.154 680.992 55.097 682.131L56.953 682.851 55.745 684.435C54.562 685.988 53.367 687.506 52.183 689.011 49.531 692.382 47.026 695.566 44.753 698.966 40.945 704.665 41.45 710.526 46.038 713.898 48.156 715.453 50.267 717.023 52.376 718.594 68.314 730.458 84.794 742.727 105.073 747.748 108.246 748.534 110.289 748.545 111.317 747.777 112.259 747.073 112.739 745.465 112.874 742.561 113.819 722.13 122.457 708.07 139.281 699.577 141.71 698.352 141.964 697.483 141.983 697.247 142.074 696.155 139.636 694.361 138.327 693.398 134.194 690.362 129.519 688.598 124.567 686.731 120.756 685.293 116.814 683.807 113.168 681.689L107.233 678.242 114.063 678.905C140.126 681.436 158.876 686.601 181.796 706.554 185.568 709.838 189.426 713.865 192.758 717.529 194.996 719.991 196.744 722.518 199.31 726.565 199.563 726.966 199.908 727.319 200.192 727.71 201.383 729.345 201.676 729.512 202.603 729.105 203.636 728.651 203.747 727.933 203.596 725.699 203.573 725.381 203.552 725.065 203.54 724.756 203.332 719.392 200.125 715.886 196.69 712.898 195.494 711.856 194.3 710.812 193.104 709.768 175.459 694.342 157.214 678.393 132.521 673.9L132.801 670.932C156.648 671.125 178.636 678.907 201.806 695.387 202.02 693.316 202.25 691.326 202.475 689.381 203.1 683.963 203.69 678.847 203.699 673.854 203.757 628.484 203.776 583.113 203.796 537.743 203.825 468.035 203.856 395.955 204.031 325.059 204.049 318.177 201.825 314.448 195.535 310.81 176.632 299.883 154.622 296.518 126.273 300.213 112.928 301.955 99.441 304.506 86.399 306.972 73.74 309.364 60.649 311.84 47.662 313.583 40.022 314.61 31.97 315.403 23.742 315.403 7.408 315.403-9.604 312.275-25.372 301.648-28.604 299.473-32.375 299.18-35.461 300.864-38.62 302.589-40.459 306.031-40.379 310.074-40.237 317.486-39.093 325.054-37.986 332.371L-37.747 333.959C-34.338 356.616-32.969 380.221-55.662 398.583-28.441 410.077-4.789 417.584 20.897 417.153 20.83 415.663 19.927 414.874 18.764 413.855 17.265 412.546 15.213 410.75 16.182 407.209L16.532 405.925 17.848 406.126C37.366 409.1 50.743 420.743 57.609 440.734 62.699 455.554 54.185 473.923 32.988 493.857L28.274 498.29 30.567 492.236C32.207 487.905 34.07 483.847 35.873 479.922 39.757 471.466 43.425 463.479 43.923 454.611 43.969 453.795 44.03 452.984 44.092 452.177 44.328 449.038 44.553 446.074 43.835 443.02 40.705 429.816 39.221 428.694 26.212 429.636 21.451 429.982 16.614 430.599 11.936 431.193 3.4 432.28-5.423 433.401-14.321 432.98-39.447 431.802-59.658 419.579-76.115 407.778-90.777 397.266-102.684 397.489-120.05 408.597-133.728 417.35-140.154 431.981-137.242 447.738-136.71 450.65-135.911 453.381-134.867 455.853-116.588 499.128-115.173 545.478-113.805 590.302-113.646 595.515-113.486 600.727-113.303 605.932-112.206 636.852-118.766 665.06-132.798 689.775-145.961 712.961-166.111 733.777-192.687 751.647-195.773 753.723-198.847 755.821-201.919 757.917-208.39 762.334-215.082 766.9-221.801 771.191-224.29 772.784-224.804 773.422-224.797 773.677-224.797 773.683-224.693 774.28-222.699 775.412-200.502 788.042-184.245 804.816-173.002 826.694-163.393 845.393-157.481 867.978-154.931 895.736-152.196 925.482-154.464 955.393-156.656 984.319-157.495 995.387-158.363 1006.832-158.937 1018.097-159.603 1031.067-160.238 1044.894-160.061 1058.801-159.648 1091.243-143.369 1109.747-111.676 1113.801-97.965 1115.56-83.936 1116.758-70.368 1117.917-61.29 1118.692-51.903 1119.495-42.685 1120.458 1.123 1125.03 40.571 1138.45 74.568 1160.341 81.87 1165.042 89.094 1171.112 96.652 1178.898 106.662 1189.211 118.521 1190.597 130.046 1182.8 136.753 1178.26 143.474 1173.482 149.973 1168.861 158.745 1162.624 167.817 1156.174 177.002 1150.207 182.458 1146.662 188.341 1143.965 195.151 1140.843 197.312 1139.853 199.521 1138.841 201.822 1137.753 187.236 1135.126 175.682 1140.481 164.477 1145.675M195.155 746.404C194.478 728.402 179.453 713.415 159.362 710.735 145.924 708.947 128.179 722.682 124.818 737.466 124.691 738.027 124.552 738.604 124.41 739.193 122.634 746.552 122.004 751.551 129.147 753.888 130.131 754.21 130.985 754.372 131.723 754.372 132.428 754.372 133.026 754.224 133.527 753.931 135.179 752.962 135.993 750.346 136.709 746.715 139.464 732.731 146.829 726.493 160.592 726.494H160.636C171.29 726.508 178.588 734.37 180.157 747.525 180.957 754.245 184.214 754.187 189.137 754.103 189.85 754.09 190.571 754.079 191.282 754.089 192.9 754.118 193.961 753.839 194.499 753.284 195.221 752.538 195.15 750.963 195.081 749.44 195.035 748.424 194.987 747.375 195.155 746.404M203.971 1171.861C205.028 1170.427 205.008 1168.063 203.921 1166.112 202.956 1164.376 201.549 1164.483 198.789 1165.109 181.077 1169.135 166.573 1175.674 154.589 1185.053 157.188 1185.219 159.788 1185.48 162.331 1185.736 174.316 1186.938 185.638 1188.077 195.896 1179.977H195.895C199.237 1177.336 201.955 1174.606 203.971 1171.861M-32.212 106.073C-32.901 111.527-33.616 117.168-34.268 122.715-34.325 123.212-34.4 123.699-34.474 124.177-34.818 126.416-35.052 127.931-33.608 129.512L-33.378 129.124C-26.262 117.182-19.54 105.901-18.622 91.741-17.691 77.313-18.754 62.712-19.781 48.59-20.241 42.27-20.718 35.734-21.01 29.286V29.285C-21.026 28.918-21.044 28.333-21.065 27.577-21.774 3.039-24.43 .979-24.939 .818-25.009 .819-25.169 .82-25.434 1.106-27.159 2.966-28.593 11.321-27.44 29.187L-27.428 29.386C-25.776 55.238-29.048 81.081-32.212 106.073M239.21 1234.802V1234.803C239.203 1242.542 238.798 1246.978 236.598 1249.738 234.311 1252.609 230.521 1253.163 224.341 1253.163H224.229C-85.651 1252.862-357.722 1252.574-607.532 1252.279-622.852 1252.259-624.607 1250.486-624.607 1235.026V607.348H-624.773L-624.775 433.208C-624.778 282.973-624.781 126.016-624.767-15.519-624.76-40.98-624.017-41.716-598.281-41.742H-598.089C-526.425-41.804-454.759-41.889-383.094-41.973L-197.262-42.181C-58.924-42.324 84.125-42.474 224.815-42.837H224.924C230.312-42.837 233.705-41.845 235.912-39.625 238.186-37.338 239.138-33.814 239.095-27.846 238.849 7.737 238.947 57.741 239.034 101.857 239.074 122.161 239.111 141.367 239.113 157.631 239.155 405.952 239.175 654.274 239.195 902.596L239.214 1103.118C239.222 1145.143 239.23 1199.743 239.21 1234.802"/>
</g>
</g>
</svg>
