<svg xmlns="http://www.w3.org/2000/svg" width="2424.63" height="2547.7" viewBox="0 0 2424.63 2547.7"><defs><clipPath id="clip_1"><path d="M0 .002h2424.632V2547.7H0Z"/></clipPath></defs><g fill="#231f20" clip-path="url(#clip_1)"><path d="m2216.814 701.462 1.404-.128V171.211c0-19.59 0-19.58-20.392-19.46-4.578.027-8.447-.202-11.648 4.81-18.337 28.71-37.198 57.106-55.939 85.573-28.861 43.84-56.949 88.13-83.426 133.37-2.049 3.501-5.182 6.394.084 10.554 18.071 14.275 32.349 31.971 46.077 50.067 45.806 60.38 75.75 128.367 100.906 198.61 7.931 22.146 15.305 44.48 22.934 66.727m-446.62 1071.89c-5.059 46.522-11.606 90.593-18.972 134.582-12.527 74.817-36.409 145.647-76.096 211.177-10.78 17.801-21.914 35.387-35.845 51.123-3.916 4.423-8.8 5.664-14.155 3.486-5.451-2.216-7.511-6.834-7.145-12.41.136-2.07.682-4.119 1.094-6.168 10.221-50.855 16.296-102.24 20.879-153.813 5.031-56.612 9.241-113.328 20.46-169.22 9.673-48.189 21.591-95.812 42.402-140.836 9.745-21.083 20.508-41.695 40.767-55.58 3.706-2.54 2.407-5.819 2.136-8.92-2.819-32.195-4.849-64.435-5.626-96.735-.346-14.354-.059-28.723-.059-43.798-3.769 1.948-3.637 4.3-4.347 6.2-18.574 49.727-39.05 98.708-60.187 147.464-40.499 93.413-92.037 179.906-165.264 253.148-12.237 12.24-24.217 24.788-39.318 33.9-4.376 2.64-9.813 4.328-13.958 1.546-4.746-3.184-5.836-8.949-4.551-14.642.392-1.736 1.046-3.43 1.717-5.09 7.644-18.91 15.508-37.74 22.945-56.728 33.691-86.013 63.85-173.346 101.93-257.719 29.212-64.725 61.106-128.1 103.932-185.64 15.005-20.163 30.841-39.859 53.635-52.52 5.145-2.858 7.289-5.655 7.621-11.527 1.871-33.144 4.269-66.26 6.565-99.383 1.247-17.988 2.647-35.966 3.978-53.948-2.626 1.576-3.913 3.504-5.012 5.528-21.257 39.161-43.508 77.787-67.463 115.453-39.711 62.44-79.958 124.517-135.655 175.363-36.526 33.345-75.083 64.006-120.332 85.744-5.278 2.535-6.854 5.176-6.851 10.693.148 266.444.164 532.888-.05 799.332-.006 7.437 2.595 8.748 9.442 8.741 141.064-.157 282.127-.162 423.19.008 7.233.008 9.326-1.53 8.67-9.03-5.103-58.26-14.982-115.47-32.556-171.642-19.396-61.997-39.836-123.968-44.479-189.296-4.079-57.398-5.082-114.76 2.36-172.028.84-6.467 4-12.896 2.032-19.472-5.483-18.319-11.332-36.535-17.834-57.344m17.709-837.693-1.154-.53c-.784 1.204-1.629 2.377-2.343 3.62-21.637 37.617-44.624 74.44-68.2 110.948-43.213 66.917-92.836 128.307-158.048 176.666-24.789 18.382-50.334 35.594-78.45 48.946-5.783 2.747-11.468 3.294-15.915-2.05-4.049-4.868-3.311-10.092.541-14.826 15.328-18.842 27.661-39.59 40.479-60.008 37.698-60.05 69.45-123.302 105.138-184.438 39.512-67.686 84.275-131.696 141.066-187.063 20.028-19.525 40.93-38.345 69.328-46.322 2.302-.646 3.672-2.024 4.279-4.239 7.81-28.514 16.943-56.65 25.484-85.306-1.714.845-2.539 2.344-3.646 3.611-25.154 28.804-52.006 56.043-80.13 82.134-58.881 54.627-124.151 99.21-203.155 122.4-28.679 8.418-57.598 15.605-87.75 16.744-6.898.261-12.177-2.053-14.185-8.929-1.87-6.404 1.218-10.918 6.372-14.579 4.474-3.178 8.957-6.362 13.217-9.799 39.27-31.68 73.949-67.78 107.517-104.969 38.418-42.563 76.42-85.572 123.084-120.167 39.266-29.11 79.565-56.695 125.999-74.367 16.426-6.25 33.358-11.318 51.297-8.945 6.328.837 8.493-1.225 10.689-6.367 13.202-30.932 27.68-61.313 42.596-91.503 2.548-5.157 6.227-9.998 7.265-17.153-31.33 21.443-62.817 40.19-95.055 57.86-66.391 36.391-137.891 48.241-213.116 43.515-6.851-.43-12.365-2.532-13.72-9.555-1.374-7.126 3.358-10.962 9.427-13.664 4.198-1.869 8.408-3.739 12.47-5.865 36.5-19.098 69.9-42.735 103.099-66.626 45.338-32.627 93.343-60.425 147.616-76.767 29.043-8.745 58.437-15.462 89.025-7.415 4.232 1.113 5.275-1.8 6.789-4.378 8.238-14.029 16.221-28.206 24.795-42.039 35.904-57.929 75.218-113.83 109.324-172.829 1.588-2.746 4.34-5.135 3.787-9.267-2.754-.127-5.489-.363-8.225-.363-232.136-.017-464.272.021-696.408-.177-7.684-.007-9.714 1.901-9.711 9.417.193 456.573.171 913.146.236 1369.72 0 2.448-1.183 5.267 1.708 8.03 4.74-6.918 9.341-13.55 13.858-20.238 41.476-61.395 74.474-127.377 110.315-191.82 41.502-74.623 89.891-144.436 152.501-204.193 17.863-17.049 36.767-33.13 61.362-40.487 5.919-1.77 7.71-4.343 8.344-9.717 1.96-16.634 4.138-33.25 6.634-49.818 4.365-28.967 9.031-57.89 13.57-86.833m-3.213 476.205c-.844 2.972-1.549 4.353-1.586 5.751-1.014 38.912-.962 77.83-.573 116.75.038 3.802 1.944 5.16 5.044 6.318 12.175 4.552 23.345 10.957 33.697 18.541 47.975 35.151 89.643 75.717 118.8 127.548 40.998 72.882 73.221 149.476 103.723 226.833 8.032 20.37 15.577 40.92 23.337 61.39 2.493 6.576 2.344 12.593-4.976 16.121-7.22 3.478-11.613-1.013-15.434-6.076-2.364-3.133-4.418-6.486-6.667-9.703-35.966-51.423-78.807-97.442-120.662-144.229-39.847-44.543-79.883-88.933-111.488-139.658-4.276-6.863-8.483-13.765-12.722-20.648 6.621 53.136 18.387 104.894 37.118 155.052.715 1.915 1.865 3.776 3.194 5.361 18.566 22.15 30.891 47.48 39.872 74.405 20.01 59.985 26.564 122.192 31.013 184.606 4.069 57.103 4.482 114.35-3.628 171.144-5.719 40.055-9.618 80.193-12.864 120.457-.698 8.654 2.17 10.296 10.395 10.28 102.495-.21 204.992-.198 307.487.115 8.53.026 10.633-2.283 10.63-10.444-.203-522.795-.188-1045.59-.114-1568.384.001-5.552-1.218-10.398-3.91-15.35-22.183-40.823-48.676-79.072-74.459-117.738-45.508-68.246-84.738-139.589-113.82-215.96-3.876-10.179-7.16-20.569-11.506-33.137-13.704 26.426-26.398 50.926-39.12 75.412-1.559 3 .4 5.09 1.776 7.384 5.578 9.304 11.547 18.414 16.632 27.966 40.868 76.756 70.363 157.95 98.007 239.76 28.318 83.806 44.898 170.21 57.171 257.43 1.79 12.722 4.49 25.413 4.199 38.33-.211 9.366-7.043 14.636-15.011 12.14-5.647-1.769-7.85-6.253-9.483-11.307-7.49-23.18-17.716-45.234-29.302-66.733-24.022-44.578-51.902-86.967-78.852-129.859-40.542-64.527-69.178-133.325-83.237-207.766-3.852-20.398-6.253-40.977-8.658-62.878-1.415 1.958-2.056 2.572-2.368 3.316-20.802 49.6-38.755 100.158-54.295 151.535-1.384 4.575 0 6.235 4.466 7.598 14.955 4.566 27.744 12.884 39.506 22.74 19.068 15.976 34.835 34.738 48.49 55.164 44.268 66.22 75.792 138.011 99.778 213.228 14.059 44.088 21.014 89.741 33.154 134.235 6.935 25.418 14.145 50.788 19.419 76.617 1.289 6.31.358 12.014-6.026 14.203-6.244 2.142-12.147.144-15.481-6.339-2.199-4.276-4.966-8.289-6.989-12.634-27.72-59.537-62.345-114.725-108.034-163.095-63.956-67.709-106.624-146.725-131.949-234.89-.36-1.256.026-3.482-2.484-3.688-.359.91-.805 1.715-.998 2.574-11.896 53.217-21.004 106.902-28.942 160.792-.824 5.595 2.046 8.252 6.129 10.784 12.464 7.73 25.649 14.361 37.28 23.358 40.525 31.35 72.802 69.82 100.758 111.696 55.331 82.88 94.417 173.133 126.334 266.5 5.425 15.867 9.959 32.035 14.412 48.192 1.119 4.06 2.508 9.398-1.801 12.498-4.077 2.931-9.382 3.19-14.108.913-3.367-1.622-5.345-4.857-7.353-7.907-9.154-13.898-19.531-26.912-30.512-39.483-37.572-43.01-80.264-81.248-120.82-121.463-53.116-52.668-95.715-111.62-120.504-181.836-.535-1.516-.134-4.555-3.973-4.115-1.155 12.162-2.49 24.308-3.432 36.483-3.511 45.346-6.865 90.703-10.364 136.05-.353 4.576.016 7.638 5.69 9.332 18.715 5.588 35.704 14.82 51.738 25.55 65.709 43.972 120.46 98.897 168.128 160.56 41.174 53.262 74.079 110.834 92.095 175.62 2.488 8.95 4.795 17.983 4.814 27.34.009 4.593-.858 10.077-5.456 11.418-4.374 1.276-10.009.363-13.698-3.538-2.902-3.068-5.549-6.413-7.948-9.87-32.147-46.35-70.56-86.504-117.629-119.4-67.771-47.364-122.759-107.092-170.286-173.435-3.443-4.806-6.653-9.768-10.764-15.827m466.263-139.026c0 379.324.008 758.65-.031 1137.974-.002 14.751 2.088 12.95-13.129 12.951-279.054.04-558.107.042-837.161-.008-15.276-.003-13.482 2.337-13.483-13.52-.035-511.955-.019-1023.909-.033-1535.864-.007-247.295-.066-494.59-.069-741.885-.001-14.523-1.25-12.517 12.736-12.518 279.672-.015 559.344.01 839.015.06 13.903.001 12.13-1.389 12.131 12.136.03 380.225.024 760.45.024 1140.674"/><path d="M1288.675 842.304v-8.782q.03-153.702.057-307.402c.005-28.894.023-57.788-.042-86.682-.006-2.304.983-4.993-1.125-6.848-3.277-2.884-20.64.206-23.108 3.938-6.693 10.125-13.444 20.214-20.1 30.36-28.542 43.522-57.215 86.96-83.639 131.752-2.943 4.988-2.635 7.555 1.997 11.059 7.62 5.766 13.844 13.012 19.965 20.265 34.45 40.818 58.24 87.332 77.478 136.29 9.877 25.136 18.72 50.619 28.517 76.05M953.681 1650.89c-6.859 50.337-13.342 100.488-26.36 149.487-13.54 50.965-36.503 97.852-68.572 140.408-3.47 4.605-6.93 10.643-14.557 7.293-7.3-3.208-5.737-9.267-4.514-15.234 5.272-25.706 8.897-51.65 11.821-77.7 5.25-46.763 7.333-93.852 14.924-140.37 7.12-43.63 17.022-86.613 35.325-127.31 7.283-16.192 15.467-32.057 30.936-42.785 2.964-2.055 1.858-4.76 1.68-7.298-1.387-19.735-3.424-39.435-3.499-59.242-.055-14.554-.01-29.108-.01-43.662l-2.652-.308c-.91 2.377-1.837 4.75-2.733 7.134-12.737 33.869-26.506 67.336-40.84 100.603-28.989 67.275-64.793 130.462-115.91 184.626-12.097 12.817-24.08 25.787-38.946 35.766-3.733 2.507-8.388 4.637-12.18 1.547-4.02-3.278-4.608-8.287-2.315-13.271 1.905-4.141 3.752-8.316 5.4-12.558 23.784-61.215 46.971-122.655 71.443-183.61 23.92-59.58 51.36-117.606 88.562-170.745 12.707-18.151 25.865-36.204 45.713-47.866 4.92-2.891 6.774-5.846 7.09-11.157 1.675-28.286 3.854-56.544 5.493-84.831.524-9.045 2.616-18.081 1.492-28.49-13.655 23.555-26.098 46.138-39.612 68.102-30.795 50.052-61.292 100.39-103.63 142.54-29.573 29.442-61.795 55.734-99.637 74.767-5.835 2.935-7.7 5.902-7.677 12.077.26 67.69.226 135.38.222 203.07-.008 130.297.014 260.594-.242 390.89-.014 7.373 2.062 9.307 9.611 9.236 39.72-.37 79.445-.173 119.17-.173 64.825 0 129.652-.068 194.478.112 5.953.017 8.22-1 7.416-7.437-2.645-21.221-4.2-42.576-7.922-63.665-5.824-33.004-16.113-64.944-26.51-96.723-25.028-76.497-30.288-154.521-22.179-233.865.648-6.336 3.876-12.677 2.211-18.89-3.65-13.62-8.268-26.994-12.49-40.468m273.63-1218.95h-9.675c-172.959 0-345.918.062-518.876-.194-7.913-.012-8.744 2.724-8.742 9.197.112 340.05.067 680.1.072 1020.15 0 3.028-.6 6.212 1.31 10.239 2.924-4.083 5.278-7.241 7.5-10.485 32.534-47.522 58.131-98.813 85.978-148.881 30.513-54.862 66.26-106.086 111.83-150.376 13.862-13.473 28.661-26.095 47.845-32.057 4.58-1.424 5.862-3.292 6.408-7.59 2.323-18.298 5.01-36.555 7.73-54.804 2.275-15.281 4.78-30.53 7.292-46.49-4.058 2.38-5.034 5.899-6.715 8.796-20.696 35.65-42.835 70.428-66.348 104.399-39.209 56.647-88.374 102.966-149.829 136.627-3.11 1.703-6.313 3.33-9.644 4.55-4.192 1.537-8.274 1.209-10.99-2.805-2.433-3.592-1.7-7.068.981-10.355 2.22-2.72 4.391-5.49 6.386-8.364 26.655-38.42 49.607-78.934 71.815-119.854 32.14-59.222 65.941-117.4 111.096-168.533 18.33-20.757 36.334-42.948 62.124-54.434 16.17-7.202 21.733-17.463 25.33-32.074 3.29-13.362 8.023-26.39 12.356-40.326-4.263 1.786-5.874 4.715-7.99 7.08-18.634 20.823-38.364 40.603-59.08 59.49-43.529 39.687-91.9 71.505-149.806 88.216-20.394 5.885-41.004 10.546-62.279 12.013-5.282.364-10.103-.66-12.072-6.241-1.948-5.523 1.07-9.105 5.456-12.146a189 189 0 0 0 11.105-8.333c38.515-31.154 70.655-68.266 103.544-104.65 36.297-40.15 77.724-74.293 125.442-100.953 23.895-13.35 48.205-26.39 77.408-24.032 4.44.359 4.61-3.234 5.675-5.68 10.836-24.84 22.547-49.29 34.615-73.584.813-1.637 3.14-3.28 1.048-5.78-8.035 5.247-15.972 10.54-24.022 15.667-47.189 30.055-96.316 55.24-154.297 58.797a502 502 0 0 1-50.423.54c-5.283-.205-10.137-1.531-11.03-7.546-.799-5.386 2.612-8.282 7.377-10.235 3.542-1.452 6.978-3.182 10.357-4.972 27.424-14.525 52.513-32.448 77.566-50.401 31.416-22.513 64.62-41.84 101.81-54.051 23.898-7.847 48.063-14.363 73.605-8.005 4.111 1.023 4.666-1.87 5.883-4.028 20.39-36.141 43.884-70.44 66.304-105.377 12.772-19.903 24.96-40.158 38.57-62.124m-217.999 538.578c-.263 1.007-.549 1.978-.769 2.964-8.615 38.676-14.98 77.73-21.192 116.82-.953 5.997 1.891 8.983 6.552 11.429 39.197 20.578 67.252 52.479 92.251 87.017 42.931 59.315 72.062 125.322 97.164 193.155 6.513 17.599 12.46 35.393 16.91 53.585.997 4.075 3.755 9.937-2.907 12.46-6.11 2.316-10.37-.503-13.746-5.704-3.957-6.098-8.289-12.001-12.862-17.684-27.582-34.281-60.537-63.667-91.879-94.52-33.034-32.517-63.474-66.856-83.638-108.725-6.247-12.972-11.687-26.258-17.63-41.033-.767 2.81-1.313 4.036-1.415 5.294-3.418 42.109-6.755 84.224-10.245 126.326-.313 3.775 1.476 5.174 4.702 6.168 15.938 4.906 30.18 13.037 43.684 22.359 42.802 29.55 79.312 65.496 111.775 105.317 35.331 43.339 63.578 90.45 78.495 144.312 1.721 6.213 3.08 12.482 3.278 18.925.107 3.519-.139 7.796-3.537 9.189-3.855 1.58-8.28.126-11.319-3.032-2.238-2.325-4.027-5.076-5.893-7.718-23.059-32.65-49.567-61.905-83.054-85.227-55.034-38.33-99.92-86.252-137.312-140.913-.788-1.152-1.103-3.246-4.623-2.72 0 27.827.21 55.816-.146 83.799-.09 7.062 1.895 11.14 9.173 13.367 4.874 1.49 9.388 4.505 13.648 7.41 38.82 26.472 71.893 58.142 94.928 98.912 39.183 69.346 67.986 142.995 95.85 217.036 1.758 4.67 1.757 9.284-3.483 11.8-5.663 2.72-9.464-.53-12.387-4.878-27.82-41.39-62.062-77.768-95.27-114.956-33.04-37-66.29-73.851-90.85-117.043-.493-.865-.732-1.864-1.089-2.801 4.181 39.118 12.563 76.359 25.621 112.537.998 2.766 1.925 5.509 3.931 7.873 14.044 16.552 23.548 35.529 29.796 55.882 22.124 72.069 26.347 146.102 24.294 220.674-1.252 45.476-11.689 90.15-13.572 135.625-.259 6.257.552 8.189 7.41 8.168 76.69-.243 153.38-.307 230.07 0 7.788.032 8.824-2.544 8.79-9.117-.252-47.891-.112-95.784-.113-143.677-.007-343.811-.022-687.621.016-1031.432 0-3.852-.822-7.23-2.697-10.68-11.967-22.02-25.406-43.187-39.548-63.922-30.898-45.301-59.645-91.756-82.674-141.386-10.247-22.081-19.465-44.536-26.725-67.562-2.8.09-3.137 1.966-3.828 3.257-6.093 11.379-11.198 23.365-18.344 34.074-8.322 12.472-7.006 22.189.755 35.177 30.52 51.078 49.75 107.004 69.923 162.386 28.5 78.245 44.038 159.34 54.485 241.463.747 5.875 1.281 12.677-6.49 14.557-8.455 2.045-10.724-4.55-12.66-10.604-3.436-10.74-7.868-21.095-12.766-31.26-17.783-36.897-40.494-71.088-62.54-105.592-33.154-51.89-57.543-106.972-68-167.43-2.394-13.84-4.146-27.783-6.23-41.93-2.455 1.476-2.659 3.736-3.456 5.632-13.636 32.428-25.15 65.578-35.738 99.04-3.974 12.562-3.934 12.533 8.568 18.339a79 79 0 0 1 8.66 4.674c18.644 11.674 33.003 27.514 45.29 45.11 33.16 47.497 56.604 99.478 74.887 153.83 16.18 48.1 23.38 98.353 37.751 146.884 2.351 7.94 3.887 16.119 5.53 24.239.88 4.355-.568 8.333-5.149 9.732-4.346 1.327-8.13-.46-10.524-4.4-1.537-2.531-3.177-5.027-4.442-7.686-21.23-44.625-46.295-86.817-80.927-123.22-48.197-50.663-80.789-109.762-99.788-176.05-.436-1.523-.495-3.244-2.73-3.895m304.024 301.328c0 284.676-.039 569.352.198 854.027.006 8.03-1.876 10.026-10.268 10.015-209.1-.27-418.203-.28-627.304-.057-8.186.009-10.405-1.676-10.4-9.918.232-509.955.21-1019.91.206-1529.865 0-59.932.08-119.864-.222-179.794-.034-6.741 1.856-8.328 8.688-8.322 209.653.183 419.307.198 628.96-.044 8.226-.01 10.36 1.743 10.351 9.933-.25 284.675-.209 569.35-.209 854.025"/><path d="M583.281 984.424V719.45c0-.945-.096-1.9.006-2.833.371-3.406-1.28-4.287-4.64-4.57-6.365-.538-10.526 1.016-14.244 6.817-21.959 34.258-44.905 67.92-65.423 103.04-1.397 2.392-4.255 4.452-.504 7.817 24.954 22.393 41.306 50.469 55.145 80.082 11.327 24.24 20.09 49.437 29.66 74.62m-239.96 396.464c-8.317 20.367-16.499 40.786-24.977 61.088-20.503 49.102-45.398 95.669-83.122 134.793-7.49 7.769-14.798 15.723-23.897 21.78-2.483 1.654-5.58 3.87-8.597 1.19-2.786-2.475-2.716-5.714-1.37-9.15 17.361-44.334 34.174-88.88 52.096-133 16.706-41.127 35.674-81.271 62.435-117.41 7.682-10.375 15.811-20.494 27.72-26.771 2.091-1.103 2.611-2.53 2.743-4.504 1.694-25.43 3.402-50.86 5.221-77.996-2.272 3.927-3.83 6.512-5.286 9.152-18.615 33.77-38.638 66.727-61.494 97.974-25.149 34.383-56.084 62.783-94.272 83.25-4.57 2.45-6.004 4.938-5.999 9.75.118 130.988.145 261.975-.055 392.962-.01 6.44 2.045 7.786 8.277 7.767 67.976-.204 135.953-.227 203.93.023 6.925.026 8.3-1.835 7.788-8.306-2.646-33.416-10.109-65.847-20.963-97.523-17.905-52.253-22.015-105.762-16.855-160.244 1.352-14.268-1.203-28.798-7.21-40.48-3.558 30.85-7.716 61.286-14.816 91.235-8.73 36.823-24.75 70.506-47.572 101.113-2.37 3.179-4.99 7.226-10.005 4.986-4.852-2.167-3.675-6.415-2.908-10.518 1.822-9.753 3.796-19.51 4.915-29.35 4.113-36.154 7.383-72.405 11.97-108.501 4.091-32.19 11.635-63.7 25.136-93.568 4.505-9.968 9.766-19.67 19.171-26.307 2.241-1.581 2.32-3.322 2.088-5.481-2.422-22.57-3.155-45.214-4.092-67.954m55.354-396.837c-12.39 12.436-24.448 24.953-37.123 36.895-28.93 27.256-60.629 50.362-99.475 62.853-15.752 5.065-31.69 9.206-48.356 10.11-3.555.195-6.905-.058-8.398-3.996-1.212-3.194.197-5.625 2.66-7.43 27.228-19.955 49.373-44.85 71.461-69.725 27.277-30.72 58.152-57.136 94.923-76.665 13.915-7.39 28.224-14.182 44.79-13.072 3.84.257 4.354-2.194 5.416-4.495 5.067-10.981 10.071-21.99 15.187-32.95 2.837-6.078 5.851-12.078 9.687-19.968-3.928 2.602-5.904 3.95-7.919 5.24-29.109 18.642-58.379 36.97-93.684 42.835-17.582 2.92-35.269 4.195-53.093 2.749-3.076-.25-5.86-1.284-6.589-4.603-.714-3.25 1.028-5.441 3.955-6.793 21.916-10.117 41.128-24.298 60.555-38.121 20.528-14.607 42.234-27.06 66.394-35.128 15.751-5.26 31.704-9.48 48.585-5.662 2.828.639 3.92-.834 5.044-2.834 19.972-35.471 44.301-68.376 64.792-103.543 4.421-7.59 4.452-7.604-4.626-7.604-113.05-.008-226.103.068-339.154-.172-7.41-.016-9.264 1.837-9.258 9 .203 224.855.163 449.71.211 674.565 0 2.444-.865 5.11 1.056 7.534 2.684-1.26 3.583-3.815 4.971-5.871 11.348-16.8 21.653-34.195 31.383-51.922 19.668-35.834 37.888-72.505 63.285-105.077 16.621-21.316 32.347-44.594 57.095-56.921 14.933-7.438 17.297-17.057 18.223-29.986.168-2.35.632-4.681.994-7.015 2.104-13.547 4.218-27.092 6.328-40.638-6.442 8.619-11.628 17.646-17.162 26.466-21.532 34.319-42.79 68.828-73.194 96.858-18.808 17.339-39.078 32.687-62.217 44.262-2.93 1.466-5.993 2.55-8.663-.366-2.567-2.804-1.679-5.601.355-8.353 20.916-28.295 37.583-59.022 54.28-89.714 22.211-40.831 46.033-80.61 78.271-114.99 12.804-13.652 25.716-27.247 44.451-33.514 1.578-.528 2.316-1.615 2.742-3.025 3.944-13.07 7.88-26.142 11.817-39.214m39.34-39.317c-11.055 23.874-19.478 48.466-27.194 73.303-.752 2.42-.248 3.816 2.451 4.82 19.191 7.138 31.544 21.794 42.461 37.618 21.136 30.634 36.053 64.18 48.016 99.05 9.785 28.524 14.061 58.362 22.3 87.253 2.53 8.868 4.606 17.859 6.75 26.826.698 2.923.392 5.953-3.004 7.12-3.33 1.145-6.21.149-7.97-3.12-1.467-2.72-3.273-5.291-4.507-8.101-14.3-32.55-35.352-60.703-59.193-87.202-16.858-18.738-31.57-38.966-41.6-62.141-6.865-15.862-13.216-31.886-18.392-48.751-.724.945-1.394 1.44-1.53 2.049-5.713 25.632-10.109 51.484-13.889 77.445-.597 4.102 1.53 6.104 4.75 7.772 21.8 11.294 38.036 28.547 52.872 47.133 27.086 33.933 45.748 72.347 62.147 111.89 8.448 20.369 16.01 41.06 21.766 62.314.831 3.067 2.763 7.41-1.96 9.316-4.39 1.772-7.17-.946-9.534-4.424-3.213-4.73-6.63-9.35-10.265-13.782-17.65-21.52-38.488-40.12-58.293-59.666-20.203-19.94-39.258-40.721-52.673-65.806-5.775-10.801-10.47-22.062-15.782-33.244-2.916 28.374-5.107 56.628-7.413 84.873-.254 3.118.802 4.696 3.884 5.65 9.83 3.045 18.79 7.896 27.036 13.786 49.075 35.054 88.384 78.219 114.741 131.852 7.33 14.916 13.47 30.376 15.39 47.03.327 2.842.344 6.214-2.96 7.255-2.876.905-5.762-.552-7.697-2.984-1.933-2.43-3.753-4.948-5.547-7.478-14.472-20.4-31.207-38.682-52.265-52.974-22.705-15.41-42.187-34.22-60.573-54.191-11.955-12.986-22.514-27.02-32.92-41.944-1.619 2.58-1.47 4.67-1.494 6.722-.148 13.235-.08 26.477-.515 39.703-.317 9.632 1.914 15.678 12.008 21.52 29.743 17.218 52.74 41.512 69.081 71.475 24.418 44.775 43.27 91.823 60.94 139.369 1.323 3.56 2.386 6.984-2.046 9.126-4.637 2.24-6.713-1.317-8.687-4.21-17.136-25.115-37.673-47.578-57.954-70.242-22.196-24.804-44.882-49.235-62.15-77.756-1.02-1.687-1.343-4.117-4.22-4.785.133 2.023.091 3.902.404 5.723 3.525 20.522 8.2 40.786 14.956 60.55 1.364 3.989 2.23 8.195 5.11 11.645 8.062 9.656 13.894 20.58 17.734 32.353 17.91 54.917 20.34 111.373 16.617 168.274-1.495 22.844-6.15 45.419-7.453 68.334-.743 13.08-.767 10.489 9.532 10.51 48.493.099 96.986-.047 145.478.156 6.22.026 8.703-.994 8.698-7.95-.209-259.65-.185-519.301-.106-778.952.002-4.442-1.105-8.282-3.272-12.1a565 565 0 0 0-24.953-39.982c-29.555-43.23-55.999-87.992-72.57-137.665-.16-.48-.74-.826-1.614-1.752-6.167 11.87-11.989 23.279-18.039 34.572-1.419 2.65-.297 4.348 1.026 6.42 7.706 12.069 14.158 24.775 19.94 37.799 30.556 68.827 53.681 139.743 63.747 214.307 1.263 9.36 2.25 18.757 3.205 28.153.322 3.169-1.172 5.626-4.555 6.304-3.366.676-5.648-1.073-6.926-3.95-1.056-2.376-1.802-4.882-2.712-7.321-10.192-27.313-26.22-51.634-41.814-76.134-20.932-32.89-39.699-66.616-48.447-104.821-3.318-14.49-5.923-29.068-8.352-43.942m161.85 327.11c0 188.679.006 377.358-.014 566.037 0 11.572.862 9.822-10.104 9.825-137.66.037-275.32-.028-412.979.178-6.959.01-8.905-1.54-8.902-8.496.187-378.305.186-756.61.007-1134.914-.004-6.823 1.711-8.601 8.805-8.59 137.903.217 275.807.16 413.71.16 9.464 0 9.475.006 9.475 9.053q.003 283.373.002 566.747"/></g></svg>