<svg xmlns="http://www.w3.org/2000/svg" xmlns:xlink="http://www.w3.org/1999/xlink" xmlns:inkscape="http://www.inkscape.org/namespaces/inkscape" version="1.1" width="2048" height="1920" viewBox="0 0 2048 1920">
<defs>
<clipPath id="clip_1">
<path transform="matrix(1,0,0,-1,0,1920)" d="M0 1920H2048V0H0Z"/>
</clipPath>
</defs>
<g inkscape:groupmode="layer" inkscape:label="Layer 1">
<g clip-path="url(#clip_1)">
<path transform="matrix(1,0,0,-1,454.824,1443.7098)" d="M0 0C.384-.053 .767-.106 1.151-.159 1.151 4.028 1.146 8.215 1.151 12.402 1.281 106.109 1.428 199.816 1.539 293.523 1.677 409.476 1.707 525.429 1.949 641.382 2.038 684.282 2.503 727.182 2.979 770.081 3.268 795.988 3.889 821.892 4.398 847.797 4.659 861.096 5.133 874.392 5.25 887.692 5.3 893.324 1.118 896.665-5.044 896.606-12.17 896.538-14.475 894.387-14.59 887.814-14.645 884.666-14.905 881.52-14.93 878.372-15.293 832.669-15.745 786.966-15.948 741.262-16.179 689.075-15.693 636.891-15.396 584.705-14.975 510.819-13.848 436.946-12.365 363.076-11.824 336.127-11.406 309.173-10.58 282.231-9.063 232.73-7.429 183.232-5.574 133.743-3.903 89.155-1.872 44.581 0 0M-163.99 799.139C-163.297 801.312-161.781 801.663-160.64 802.405-133.621 819.971-107.296 838.46-82.551 859.012-65.462 873.205-49.042 888.063-35.833 905.961-30.194 913.602-25.86 921.872-24.903 931.322-21.498 964.939-18.45 998.59-14.961 1032.199-14.401 1037.594-16.13 1038.462-21.188 1038.448-78.908 1038.277-136.629 1038.35-194.349 1038.326-202.225 1038.323-201.189 1039.184-201.19 1031.616-201.211 873.253-201.206 714.889-201.206 556.525-201.206 349.287-201.184 142.048-201.331-65.19-201.335-70.323-199.985-71.511-194.841-71.469-164.191-71.217-133.537-71.359-102.884-71.308-101.039-71.305-99.007-71.975-96.987-70.377-102.317-62.578-105.945-54.064-108.764-45.205-118.994-13.05-125.521 19.864-130.437 53.155-131.311 59.075-129.86 62.2-125.143 65.653-100.19 83.916-75.504 102.528-50.761 121.064-49.804 121.781-48.112 122.075-48.263 124.133-49.607 123.839-50.811 123.618-51.991 123.31-78.434 116.391-104.896 109.536-131.292 102.449-134.874 101.487-136.562 102.125-137.586 105.559-138.785 109.58-140.357 113.493-141.713 117.471-151.791 147.04-157.631 177.048-151.766 208.317-148.991 223.112-145.746 237.866-143.983 252.782-143.012 260.998-138.755 266.147-132.971 271.052-121.454 280.82-109.234 289.693-96.92 298.453-95.791 299.256-94.761 300.193-93.686 301.068-108.296 298.571-122.494 295.729-136.44 291.991-142.198 290.448-143.226 292.477-144.315 297.151-153.014 334.494-161.29 371.949-171.001 409.043-178.679 438.369-180.99 467.583-175.639 497.415-175.003 500.96-173.393 502.907-170.432 504.657-147.447 518.234-124.529 531.921-101.615 545.611-99.752 546.724-97.583 547.524-95.449 550.453-123.851 542.076-151.088 534.042-179.043 525.797-178.458 528.051-178.194 529.231-177.845 530.386-170.582 554.42-164.655 578.732-161.929 603.704-159.834 622.909-160.625 641.509-169.358 659.612-177.822 677.159-184.429 695.566-187.648 714.861-192.987 746.865-185.091 753.559-165.833 765.922-146.329 778.442-125.28 788.18-104.138 797.712-102.372 798.509-100.2 798.836-98.427 801.292-120.667 800.562-142.104 799.858-163.99 799.139M-42.962-71.344C-40.85-71.344-38.739-71.344-36.628-71.344 35.429-71.331 107.486-71.334 179.542-71.285 188.03-71.28 187.622-72.993 187.622-63.537 187.61 166.637 187.587 396.811 187.574 626.984 187.566 761.866 187.546 896.747 187.674 1031.628 187.679 1036.665 186.766 1038.473 181.008 1038.448 125.802 1038.214 70.594 1038.265 15.386 1038.45 10.751 1038.466 9.819 1037.235 10.103 1032.926 11.914 1005.507 13.329 978.064 15.119 950.645 16.143 934.955 16.19 919.178 20.255 903.757 26.946 878.378 40.091 858.765 64.849 845.911 99.587 827.877 128.549 802.562 151.565 771.146 158.797 761.274 165.126 750.719 167.039 738.563 170.255 718.126 168.88 697.743 164.503 677.528 163.764 674.113 162.196 674.871 160.035 676.073 147.743 682.906 135.433 689.708 123.083 696.44 122.062 696.997 121.065 698.499 119.259 697.224 132.438 683.336 145.537 669.533 158.738 655.621 136.325 644.021 129.582 628.92 136.08 605.301 141.516 585.54 146.726 565.724 151.136 545.723 155.662 525.198 159.816 504.622 161.607 483.623 163.021 467.033 157.596 451.432 155.583 435.348 154.92 430.047 152.675 430.032 148.34 431.142 131.032 435.574 113.646 439.715 96.289 443.964 94.955 444.291 93.657 445.049 91.835 444.102 93.095 443.406 94.13 442.79 95.204 442.247 111.093 434.205 126.958 426.115 142.905 418.185 146.148 416.573 147.557 415.258 146.299 411.12 140.799 393.03 140.163 374.619 143.967 356.083 146.255 344.931 150.853 334.389 152.759 323.118 158.845 287.133 158.588 250.991 156.247 214.746 155.953 210.192 154.572 210.262 150.927 211.297 124.297 218.857 97.62 226.259 70.95 233.681 69.978 233.952 68.914 235.076 67.712 233.511 90.35 221.736 112.929 210.01 135.486 198.243 140.368 195.696 147.675 194.018 149.338 190.103 151.19 185.744 145.776 180.114 143.577 175.024 129.915 143.402 116.777 111.523 111.026 77.496 105.207 43.064 94.973 10.103 80.339-21.62 74.746-33.745 68.906-45.804 59.909-56.005 50.819-66.311 39.668-68.01 27.708-61.016 22.286-57.845 17.711-53.682 13.4-49.184 10.749-46.418 8.884-41.362 5.435-41.343 2.153-41.325-1.191-44.999-4.437-47.151-16.996-55.476-29.997-63.096-42.962-71.344M-222.718 483.777C-222.718 673.487-222.694 863.198-222.847 1052.908-222.851 1058.196-221.581 1059.501-216.131 1059.495-76.677 1059.332 62.776 1059.366 202.23 1059.366 209.143 1059.366 209.151 1059.362 209.151 1052.612 209.153 816.656 209.153 580.701 209.153 344.746 209.153 201.456 209.157 58.166 209.142-85.124 209.141-93.671 209.75-92.352 201.658-92.353 62.384-92.378-76.89-92.335-216.165-92.505-221.691-92.512-222.846-91.095-222.841-85.88-222.695 104.006-222.718 293.891-222.718 483.777" fill="#231f20"/>
<path transform="matrix(1,0,0,-1,1616.4198,1324.5957)" d="M0 0C.202-.004 .404-.007 .606-.011 .606 1.028 .601 2.066 .607 3.105 .966 66.27 1.321 129.435 1.687 192.6 2.041 253.651 2.384 314.703 2.773 375.755 3.099 426.953 3.462 478.151 3.854 529.349 4.177 571.747 4.54 614.144 4.934 656.542 5.254 691.021 5.617 725.5 6.014 759.979 6.46 798.678 6.974 837.376 7.43 876.075 7.464 878.951 7.917 881.604 9.621 884.073 19.061 897.746 29.802 910.165 44.318 919.011 45.042 919.452 45.978 919.76 45.54 920.754H-46.746C-34.074 907.469-24.118 893.243-11.629 881.122-9.708 879.258-8.702 877.535-8.687 874.795-8.565 851.753-8.233 828.712-8.041 805.67-7.653 759.226-7.318 712.782-6.951 666.338-6.598 621.653-6.242 576.969-5.869 532.284-5.523 490.942-5.161 449.599-4.79 408.256-4.441 369.203-4.087 330.15-3.707 291.097-3.368 256.266-2.989 221.436-2.633 186.606-2.21 145.264-1.872 103.922-1.341 62.582-1.072 41.719-.458 20.861 0 0M-163.219 354.95C-163.577 355.098-163.935 355.245-164.294 355.392-164.294 358.005-164.298 360.619-164.293 363.232-164.211 402.477-163.862 441.724-164.134 480.966-164.333 509.612-166.636 538.261-163.401 566.877-161.244 585.967-158.298 604.873-150.475 622.713-145.122 634.917-137.1 644.586-124.616 650.574-112.518 656.378-100.65 662.645-88.716 668.774-75.026 675.805-61.169 682.586-49.392 692.633-43.804 697.399-39.94 703.058-38.795 710.453-37.737 717.289-38.274 723.662-44.031 728.26-50.166 733.16-56.977 731.623-63.374 728.631-98.394 712.249-133.846 696.788-169.177 681.069-174.643 678.637-174.834 678.738-175.19 684.812-176.246 702.82-174.758 720.673-171.529 738.398-164.575 776.571-151.044 812.626-134.413 847.652-123.639 870.344-111.637 892.354-95.301 911.816-92.861 914.723-90.221 917.471-86.981 921.059-90.014 921.059-91.944 921.059-93.874 921.059-124.3 921.046-154.725 921.033-185.151 921.02-192.349 921.017-192.352 921.016-192.352 913.952-192.353 764.861-192.354 615.77-192.354 466.679-192.353 249.995-192.338 33.312-192.454-183.372-192.456-187.841-191.135-188.853-186.743-188.837-145.155-188.686-103.566-188.761-61.978-188.768-42.73-188.771-26.949-188.769-7.652-188.769-7.492-186.091-8.734-184.074-9.546-181.987-21.246-151.932-30.678-122.37-43.973-92.96-55.24-68.036-69.037-44.3-79.873-19.191-89.283 2.612-95.467 25.01-92.133 49.043-90.08 63.844-84.576 77.593-78.736 91.214-66.977 118.636-52.07 144.562-38.679 171.209-33.54 181.435-28.036 191.602-26.219 203.079-25.651 206.661-25.782 210.483-29.685 212.278-33.468 214.018-36.193 211.283-38.613 208.943-44.557 203.196-48.801 196.214-52.97 189.224-74.478 153.163-92.169 115.304-108.352 76.735-109.096 74.963-109.421 72.874-111.353 71.316-111.775 72.889-112.149 74.065-112.403 75.265-121.491 118.302-130.156 161.419-137.232 204.821-142.05 234.379-146.063 263.965-141.892 294.048-137.7 324.273-128.228 352.223-107.606 375.775-94.59 390.641-79.491 403.514-65.647 417.588-58.658 424.693-51.89 431.961-47.047 440.747-42.673 448.681-43.991 456.002-49.155 462.963-52.64 467.661-56.934 468.69-62.426 466.326-67.298 464.229-71.209 460.831-74.805 457.116-95.218 436.027-115.172 414.546-133.49 391.658-143.328 379.367-153.305 367.183-163.219 354.95M167.644 445.745C165.219 447.696 163.721 448.848 162.283 450.066 127.067 479.913 91.851 509.762 56.662 539.639 54.981 541.066 53.426 542.309 50.963 541.873 47.071 541.183 43.152 540.663 39.513 539.011 32.009 535.603 29.383 529.915 31.83 522.156 33.832 515.811 37.672 510.498 41.959 505.485 57.915 486.83 76.443 470.555 93.213 452.648 102.458 442.776 111.065 432.418 119.425 421.821 144.983 389.425 152.695 352.611 149.775 312.495 147.411 280.036 145.372 247.571 141.178 215.277 139.867 205.18 138.346 195.11 136.728 183.659 135.089 186.411 134.276 187.757 133.483 189.113 107.263 233.996 81.218 278.98 52.717 322.54 47.098 331.128 41.616 339.857 34.451 347.345 30.308 351.674 24.858 350.747 22.256 345.399 20.608 342.011 20.165 338.366 20.596 334.589 21.571 326.038 25.056 318.396 28.977 310.819 56.036 258.537 80.035 205.019 98.574 149.196 111.78 109.432 112.367 69.824 99.942 29.896 91.216 1.853 78.808-24.652 64.55-50.317 45.73-84.194 30.206-118.378 20.785-156.162 18.094-166.952 14.936-177.631 11.88-188.77H15.672C73.823-188.77 131.975-188.685 190.125-188.909 195.564-188.93 196.425-187.343 196.419-182.474 196.278-50.987 196.307 80.502 196.307 211.99 196.307 446.275 196.288 680.559 196.429 914.844 196.432 919.945 195.169 921.233 189.947 921.187 159.163 920.914 128.377 921.046 97.591 920.983 95.93 920.979 94.076 921.659 92.224 920.113 98.753 915.74 104.518 910.792 109.798 905.302 130.238 884.045 143.932 858.865 154.193 831.77 168.215 794.745 175.422 756.266 178.91 717.066 179.756 707.563 180.9 698.014 179.929 687.893 178.157 688.845 176.923 689.495 175.701 690.166 158.929 699.382 142.283 708.824 125.358 717.762 103.069 729.534 80.765 741.338 56.73 749.517 48.115 752.448 39.244 753.757 30.176 752.23 20.947 750.675 17.914 744.637 22.045 736.389 24.858 730.771 29.072 726.202 33.817 722.099 46.774 710.893 61.005 701.267 74.574 690.82 98.372 672.497 121.443 653.407 140.382 630.089 153.719 613.669 164.645 595.991 167.404 574.626 171.836 540.303 172.075 505.873 169.788 471.399 169.245 463.214 168.429 455.046 167.644 445.745M-214.038 366.228C-214.038 555.797-214.042 745.367-214.025 934.936-214.024 943.196-214.98 942.207-206.504 942.208-67.342 942.216 71.821 942.202 210.983 942.173 218.979 942.171 217.893 943.019 217.894 935.473 217.913 555.982 217.913 176.49 217.894-203.001 217.894-210.56 218.969-209.705 210.989-209.707 71.647-209.737-67.696-209.744-207.038-209.755-214.033-209.756-214.037-209.751-214.037-203.004-214.038-13.26-214.037 176.484-214.038 366.228" fill="#231f20"/>
<path transform="matrix(1,0,0,-1,1013.1737,1324.3858)" d="M0 0C-2.926-.385-5.879-.631-8.773-1.177-64.34-11.672-109.924-40.369-151.53-76.273-153.223-77.734-156.082-79.66-153.49-82.029-150.292-84.952-148.876-80.753-147.254-79.369-104.114-42.567-57.018-13.442 1.107-5.48 3.29-5.181 5.614-5.158 5.072-2.013 4.502 1.295 1.989 .022 0 0M27.512-332.241C28.156-331.91 28.8-331.578 29.444-331.247 41.333-342.113 53.151-353.055 65.199-363.749 66.708-365.089 68.091-369.582 71.249-366.209 74.029-363.24 70.254-361.567 68.549-359.992 56.249-348.626 43.842-337.37 31.396-326.156 29.169-324.15 27.145-322.315 27.154-318.99 27.217-295.164 27.188-271.338 27.188-247.594 27.248-247.614 29.048-248.014 30.704-248.731 48.054-256.246 63.335-266.909 77.794-278.749 84.381-284.143 90.634-289.927 97.064-295.507 98.193-296.486 99.281-298.069 101.025-296.232 102.404-294.779 102.19-293.455 100.855-292.139 99.529-290.833 98.261-289.467 96.88-288.22 76.473-269.794 55.118-252.681 29.106-242.18 26.316-241.054 24.662-239.785 24.591-236.602 24.111-215.063 23.53-193.527 22.934-171.991 22.848-168.885 23.724-167.608 27.121-168.874 33.878-171.394 40.931-173.247 47.479-176.19 76.364-189.176 101.178-207.868 124.095-229.176 125.479-230.462 126.768-234.148 129.626-231.17 132.106-228.587 129.387-226.93 127.696-225.399 122.176-220.404 116.736-215.308 110.984-210.579 86.998-190.86 61.688-173.093 31.146-164.467 23.667-162.355 22.38-158.52 22.33-152.285 22.19-134.677 21.856-117.071 21.552-99.465 21.398-90.524 21.357-90.513 30.545-93.042 68.105-103.383 100.911-122.545 131.736-145.349 136.662-148.993 141.361-152.93 146.197-156.692 147.381-157.613 148.64-159.126 150.21-157.268 151.437-155.816 151.17-154.373 149.76-153.125 148.565-152.068 147.402-150.97 146.156-149.973 110.506-121.424 71.946-98.055 26.979-86.208 23.579-85.313 21.253-84.7 21.21-80.365 20.973-56.456 20.501-32.547 19.889-8.643 19.772-4.078 21.297-3.496 25.53-4.343 40.31-7.303 54.625-11.604 68.483-17.415 104.702-32.603 136.284-54.558 165.144-80.548 166.591-81.851 168.004-85.519 170.803-83.161 173.479-80.907 170.849-78.915 169.126-77.366 127.829-40.249 82.477-10.137 26.331 1.008 21.449 1.977 19.756 3.654 19.776 8.593 19.84 25.412 19.162 42.233 19.224 59.051 19.268 71.098 16.314 70.958 30.892 68.327 74.276 60.496 113.681 43.061 150.485 19.639 162.431 12.036 173.838 3.714 184.793-5.205 186.125-6.29 187.539-8.247 189.345-5.696 190.527-4.025 189.736-2.736 188.425-1.606 186.812-.218 185.209 1.186 183.53 2.495 136.578 39.11 84.618 65.296 24.855 75.014 20.403 75.738 19.081 77.364 19.078 81.557 19.066 100.744 19.011 119.937 18.483 139.115 18.326 144.842 20.891 145.63 25.662 145.458 38.849 144.984 51.869 143.411 64.738 140.571 112.968 129.928 155.691 108 195.351 79.73 197.208 78.406 199.3 74.474 201.843 77.56 204.763 81.102 200.164 82.388 198.147 83.914 186.663 92.604 174.566 100.439 162.009 107.557 119.256 131.792 74.419 149.85 24.107 151.081 19.043 151.205 18.543 153.456 18.563 157.409 18.673 178.972 18.614 200.535 18.614 222.098 18.613 243.641 18.651 243.812 40.437 239.19 101.167 226.305 157.029 203.344 204.322 162.812 205.969 161.401 207.677 158.429 210.107 161.337 212.503 164.204 209.075 165.414 207.521 166.831 191.112 181.801 172.525 193.803 153.011 204.446 113.725 225.874 71.67 239.622 27.495 247.488 23.622 248.178 18.31 247.066 18.462 254.416 19.028 281.748 19.062 309.092 19.069 336.432 19.07 341.105 20.589 342.355 25.21 341.555 100.076 328.578 167.081 299.295 224.525 249.994 226.105 248.637 227.468 244.211 230.586 247.499 233.366 250.431 229.588 252.158 227.869 253.719 214.249 266.086 199.465 277.005 183.89 286.9 135.746 317.485 83.42 337.583 26.771 346.842 23.211 347.423 19.468 347.285 19.576 352.97 20.039 377.416 20.113 401.869 20.171 426.32 20.181 430.212 21.335 431.481 25.372 430.574 33.739 428.693 42.234 427.347 50.584 425.403 116.155 410.133 178.156 386.852 232.922 347.372 234.353 346.34 235.858 343.401 238.201 345.986 240.78 348.831 237.835 350.153 236.064 351.512 226.332 358.982 216.042 365.665 205.416 371.846 151.544 403.183 93.348 423.225 32.039 434.941 24.437 436.394 19.903 437.786 20.456 447.377 21.758 469.925 21.63 492.56 21.734 515.161 21.76 520.833 23.005 522.375 29.11 520.948 78.277 509.448 126.279 494.595 172.535 474.511 195.867 464.38 218.565 453.102 240.214 439.82 241.703 438.906 243.468 435.158 245.984 438.591 248.702 442.299 244.56 442.928 242.772 444.283 240.238 446.203 237.389 447.739 234.618 449.347 170.98 486.279 101.962 509.607 30.355 526.197 23.594 527.763 21.982 530.387 22.267 536.682 23.156 556.364 23.554 576.069 23.951 595.77 24.244 610.31 24.09 610.18 38.972 608.077 110.79 597.927 177.833 574.633 240.17 538.323 241.093 537.785 242.021 537.253 242.923 536.683 244.366 535.771 245.364 536.217 246.173 537.574 246.906 538.801 247.362 539.96 245.842 540.939 244.275 541.949 242.725 542.991 241.111 543.925 176.299 581.452 106.696 605.486 31.869 614.459 25.695 615.199 24.468 617.171 24.699 622.635 25.574 643.372 26.12 664.124 26.648 684.874 26.945 696.509 26.854 696.515 38.389 694.799 106.07 684.728 169.038 661.729 228.373 628.679 230.515 627.486 233.341 623.474 235.63 627.291 237.797 630.902 233.003 631.566 230.913 633.203 229.877 634.015 228.617 634.556 227.446 635.199 166.983 668.417 103.007 691.809 34.021 700.954 28.85 701.639 27.453 703.33 27.665 708.201 28.637 730.514 29.455 752.836 29.948 775.162 30.086 781.42 32.267 782.979 38.551 782.268 70.492 778.652 101.151 770.17 131.242 759.5 158.006 750.009 183.986 738.73 209.333 726.032 210.822 725.286 213.229 721.756 215.139 725.868 216.696 729.221 213.643 729.821 211.67 730.864 208.365 732.609 204.987 734.225 201.599 735.814 148.637 760.657 94.462 781.866 35.432 788.224 31.075 788.694 30.899 790.766 31.049 793.928 31.931 812.562 32.998 831.192 33.468 849.837 33.609 855.417 35.235 856.947 40.893 856.474 65.832 854.388 90.401 850.337 114.63 844.237 140.148 837.812 164.995 829.555 188.835 818.486 190.395 817.762 192.378 815.171 194.199 818.3 196.151 821.655 193.126 822.198 191.13 823.244 189.95 823.862 188.697 824.345 187.481 824.898 141.227 845.961 92.434 857.665 41.781 862.034 35.044 862.615 34.116 864.986 34.425 870.503 35.892 896.733 37.105 922.977 38.43 949.215 38.632 953.215 39.426 956.842 32.971 957.216 26.627 957.583 26.804 954.295 26.624 950.048 25.463 922.747 24.057 895.456 23.02 868.151 22.825 863.024 21.49 860.704 15.75 860.62-2.253 860.357-20.184 858.797-37.996 856.18-66.237 852.032-93.896 845.83-119.652 833.217-121.637 832.245-124.835 831.613-123.309 828.302-121.552 824.491-119.121 827.536-117.368 828.328-75.096 847.453-30.048 853.111 15.829 854.976 21.109 855.191 22.076 853.092 21.842 848.522 20.941 830.942 20.136 813.351 19.728 795.755 19.574 789.133 17.688 786.671 10.197 786.419-45.107 784.56-98.009 771.462-149.526 752.381-151.699 751.576-155.889 751.688-154.452 747.774-152.71 743.034-149.424 746.854-147.231 747.542-135.488 751.223-123.971 755.609-112.187 759.151-72.006 771.227-31.128 779.588 11.076 780.848 16.996 781.025 18.866 779.669 18.524 773.487 17.292 751.192 16.614 728.864 16.022 706.541 15.891 701.588 14.219 700.063 9.091 699.635-45.871 695.052-99.027 683.25-149.337 660.56-156.394 657.377-163.252 653.766-170.147 650.249-171.97 649.319-174.393 648.348-172.632 645.54-170.75 642.537-169.029 645.155-167.305 645.822-166.314 646.205-165.428 646.841-164.474 647.322-110.226 674.657-52.295 688.862 8.252 693.842 13.081 694.239 15.511 693.826 15.262 687.949 14.295 665.11 13.766 642.251 13.315 619.395 13.217 614.395 10.763 613.453 6.317 613.161-46.489 609.694-97.865 599.44-147.628 581.68-164.034 575.825-180.013 569.023-195.434 561.001-197.343 560.008-200.587 559.242-198.469 555.949-196.671 553.153-194.764 555.444-192.984 556.225-191.272 556.978-189.622 557.864-187.937 558.677-126.354 588.383-60.781 602.808 7.332 607.564 11.018 607.821 12.773 607.079 12.642 602.969 11.986 582.222 11.745 561.461 10.974 540.718 10.455 526.758 10.116 527.097-4.348 524.828-57.791 516.444-109.965 503.633-159.294 481.22-174.9 474.13-190.038 466.204-204.014 456.311-205.795 455.05-208.784 453.864-206.181 450.877-203.842 448.192-202.543 451.244-201.065 452.082-197.589 454.055-194.403 456.515-190.947 458.527-130.329 493.818-63.55 510.407 5.383 520.55 10.7 521.332 10.367 518.655 10.3 515.297 9.825 491.39 9.111 467.481 9.123 443.573 9.127 436.87 6.781 435.357 .424 434.952-46.813 431.941-92.455 422.03-136.01 403.584-155.53 395.317-174.188 385.543-191.202 372.955-193.007 371.62-195.899 370.32-193.211 367.46-190.837 364.935-189.455 367.898-188.071 368.862-179.09 375.114-169.849 380.936-160.146 386.064-109.14 413.026-54.079 425.402 3.245 429.842 8.685 430.263 8.761 427.658 8.707 423.833 8.372 399.917 7.969 375.999 8.003 352.082 8.01 346.663 5.565 345.63 .898 345.076-35.708 340.727-71.558 332.979-106.463 321.288-136.773 311.136-165.946 298.587-192.572 280.9-194.555 279.582-198.355 278.391-195.816 275.067-193.579 272.139-191.51 275.393-189.841 276.475-180.424 282.574-170.69 288.114-160.631 293.121-109.298 318.676-54.396 332.239 2.336 339.799 8.578 340.631 7.308 336.884 7.303 333.719 7.261 307.688 6.852 281.652 7.258 255.628 7.368 248.542 5.142 246.431-1.825 245.553-47.821 239.758-92.5 228.871-135.262 211.024-151.089 204.419-166.406 196.857-180.72 187.455-182.481 186.298-184.71 185.202-183.138 182.553-181.225 179.326-179.453 182.117-177.911 182.975-171.382 186.609-165.109 190.705-158.466 194.116-108.365 219.842-54.345 232.728 1.2 240.64 5.954 241.318 7.186 239.952 7.148 235.406 6.955 212.792 7.091 190.177 7.04 167.562 7.027 161.807 8.871 154.578 6.039 150.695 2.914 146.408-4.945 149.727-10.693 149.069-12.026 148.916-13.364 148.793-14.703 148.699-61.207 145.418-103.476 129.518-143.613 107.274-156.242 100.275-168.381 92.527-180.095 84.146-181.752 82.959-184.181 81.8-182.222 79.196-180.055 76.314-178.623 79.281-176.978 80.078-176.026 80.54-175.192 81.239-174.316 81.846-143.659 103.058-110.735 119.919-74.988 131.345-50.569 139.151-25.594 143.676 .181 143.204 3.344 143.146 7.218 144.217 7.162 138.442 6.972 118.725 7.15 99.002 7.394 79.284 7.444 75.238 5.958 74.034 1.905 73.577-60.713 66.514-115.174 40.655-164.702 3.703-167.226 1.82-173.34-.109-170.413-3.869-167.186-8.014-164.233-2.237-161.779-.421-113.629 35.21-60.882 60.177-.329 67.796 6.751 68.687 7.383 66.451 7.447 60.646 7.952 14.66 8.705-31.324 9.554-77.305 9.638-81.893 8.702-84.347 3.528-85.348-39.874-93.748-78.468-112.817-114.711-136.978-116.708-138.309-118.655-139.721-120.541-141.197-122.191-142.489-121.63-143.866-120.544-145.278-119.292-146.905-118.226-145.821-117.183-145.135-114.955-143.669-112.801-142.097-110.578-140.625-76.286-117.925-39.672-100.365 .963-91.246 8.268-89.606 9.946-91.858 9.991-98.075 10.128-116.74 9.988-135.42 10.82-154.057 11.076-159.805 9.618-161.747 4.149-162.956-34.648-171.536-68.989-189.798-102.184-210.447-104.073-211.622-107.244-212.635-105.376-215.697-103.273-219.147-101.344-215.817-99.436-214.996-98.465-214.579-97.627-213.872-96.718-213.313-65.233-193.94-32.533-177.214 3.924-168.484 8.932-167.285 11.372-167.785 11.446-173.554 11.699-193.523 12.22-213.491 12.752-233.456 12.838-236.681 11.636-238.074 8.36-238.737-19.982-244.477-44.89-257.887-69.09-272.662-72.089-274.493-79.634-275.405-76.294-280.567-73.818-284.393-69.625-278.831-66.589-277.082-43.179-263.597-19.58-250.662 7.273-244.636 11.939-243.589 13.274-244.389 13.364-249.189 13.736-268.89 14.186-288.601 15.287-308.271 15.695-315.555 13.335-319.248 6.518-322.401-10.899-330.459-25.13-343.037-39.168-355.712-40.731-357.122-42.717-358.773-40.439-360.944-37.949-363.319-36.764-360.428-35.249-359.298-34.188-358.507-33.348-357.441-32.344-356.57-18.089-344.19-3.594-332.149 14.377-324.667 16.068-327.726 15.839-330.623 15.951-333.483 17.353-369.443 18.878-405.399 20.082-441.366 20.247-446.296 21.771-447.568 26.678-447.354 31.706-447.136 32.208-444.808 31.962-440.836 31.36-431.135 31.002-421.42 30.616-411.708 29.562-385.22 28.544-358.73 27.512-332.241M52.173-467.849H62.118C141.388-467.849 220.658-467.881 299.929-467.818 312.945-467.807 311.537-469.65 311.538-456.541 311.561-268.812 311.519-81.082 311.514 106.647 311.505 467.119 311.489 827.591 311.658 1188.063 311.661 1194.874 310.115 1196.925 302.839 1196.887 245.605 1196.59 188.368 1196.763 131.133 1196.719 128.903 1196.717 126.389 1197.648 124.339 1195.805 132.708 1183.778 133.013 1180.067 125.922 1170.414 88.352 1119.265 65.645 1061.829 51.063 1000.973 48.259 989.268 52.25 981.23 62.965 975.35 99.132 955.502 130.772 930.068 158.718 900.234 235.984 817.749 272.812 718.905 281.182 608.709 284.748 561.766 284.891 514.784 283.22 467.726 280.149 381.237 271.378 295.265 259.723 209.562 247.19 117.405 231.504 25.741 211.719-65.21 195.688-138.908 179.086-212.492 152.279-283.374 127.552-348.759 100.244-412.854 52.173-467.849M-7.411-467.848C-14.79-458.711-21.366-451.128-27.321-443.104-63.344-394.563-90.295-341.186-113.783-286.057-166.621-162.041-197.586-32.518-213.55 100.569-225.29 198.439-233.812 296.61-236.195 395.18-238.135 475.383-236.087 555.375-223.826 634.968-208.221 736.262-168.567 825.94-94.592 899.819-61.193 933.174-25.855 964.026 17.134 985.37 21.851 987.712 25.456 991.47 26.758 996.506 28.131 1001.818 28.793 1007.323 29.521 1012.774 37.625 1073.466 51.982 1132.517 77.576 1188.632 81.274 1196.741 81.247 1196.768 71.967 1196.767-39.011 1196.751-149.989 1196.743-260.967 1196.694-272.932 1196.689-271.566 1197.945-271.567 1186.026-271.591 949.129-271.586 712.232-271.586 475.335-271.586 163.766-271.557-147.802-271.758-459.37-271.762-466.549-269.589-467.966-262.721-467.943-196.618-467.712-130.515-467.831-64.411-467.847-45.91-467.852-27.408-467.848-7.411-467.848M-303.901 363.858C-303.901 648.351-303.907 932.844-303.878 1217.338-303.877 1229.753-305.439 1228.309-292.796 1228.312-84.001 1228.358 124.794 1228.369 333.589 1228.386 343.824 1228.386 343.824 1228.378 343.824 1218.128 343.824 712.245 343.823 206.362 343.825-299.521 343.826-363.414 343.756-427.307 343.996-491.198 344.02-497.617 342.42-499.621 335.579-499.614 125.172-499.417-85.234-499.381-295.641-499.605-303.553-499.614-304.006-496.55-304.004-490.407-303.885-205.652-303.901 79.103-303.901 363.858" fill="#231f20"/>
</g>
</g>
</svg>
