<svg xmlns="http://www.w3.org/2000/svg" width="2048" height="1920" viewBox="0 0 2048 1920"><defs><clipPath id="clip_1"><path d="M0 0h2048v1920H0Z"/></clipPath></defs><g fill="#231f20" clip-path="url(#clip_1)"><path d="m454.824 1443.71 1.151.159c0-4.187-.005-8.374 0-12.561.13-93.707.277-187.414.388-281.121.138-115.953.168-231.906.41-347.86.089-42.9.554-85.8 1.03-128.698.289-25.907.91-51.811 1.419-77.716.261-13.3.735-26.595.852-39.895.05-5.632-4.132-8.973-10.294-8.914-7.126.068-9.431 2.219-9.546 8.792-.055 3.148-.315 6.294-.34 9.442-.363 45.703-.815 91.406-1.018 137.11-.231 52.187.255 104.37.552 156.557.421 73.886 1.548 147.759 3.031 221.629.541 26.949.959 53.903 1.785 80.845 1.517 49.5 3.151 98.999 5.006 148.488 1.671 44.588 3.702 89.162 5.574 133.743m-163.99-799.14c.693-2.172 2.209-2.523 3.35-3.265 27.019-17.566 53.344-36.055 78.089-56.607 17.089-14.193 33.509-29.051 46.718-46.95 5.639-7.64 9.973-15.91 10.93-25.36 3.405-33.617 6.453-67.268 9.942-100.877.56-5.395-1.169-6.263-6.227-6.25-57.72.172-115.441.099-173.161.123-7.876.003-6.84-.858-6.841 6.71-.021 158.363-.016 316.727-.016 475.09 0 207.239.022 414.478-.125 621.716-.004 5.133 1.346 6.32 6.49 6.279 30.65-.252 61.304-.11 91.957-.161 1.845-.003 3.877.667 5.897-.931-5.33-7.8-8.958-16.313-11.777-25.172-10.23-32.155-16.757-65.07-21.673-98.36-.874-5.92.577-9.045 5.294-12.498 24.953-18.263 49.639-36.875 74.382-55.411.957-.717 2.649-1.011 2.498-3.07-1.344.295-2.548.516-3.728.824-26.443 6.919-52.905 13.774-79.301 20.86-3.582.963-5.27.325-6.294-3.11-1.199-4.02-2.771-7.933-4.127-11.911-10.078-29.57-15.918-59.577-10.053-90.846 2.775-14.795 6.02-29.55 7.783-44.465.971-8.216 5.228-13.365 11.012-18.27 11.517-9.768 23.737-18.641 36.051-27.401 1.129-.803 2.159-1.74 3.234-2.615-14.61 2.497-28.808 5.339-42.754 9.077-5.758 1.543-6.786-.486-7.875-5.16-8.699-37.343-16.975-74.798-26.686-111.892-7.678-29.326-9.989-58.54-4.638-88.372.636-3.545 2.246-5.492 5.207-7.242 22.985-13.577 45.903-27.264 68.817-40.954 1.863-1.113 4.032-1.913 6.166-4.842l-83.594 24.656c.585-2.254.849-3.434 1.198-4.59 7.263-24.033 13.19-48.345 15.916-73.317 2.095-19.205 1.304-37.805-7.429-55.908-8.464-17.547-15.071-35.954-18.29-55.25-5.339-32.003 2.557-38.697 21.815-51.06 19.504-12.52 40.553-22.258 61.695-31.79 1.766-.797 3.938-1.124 5.711-3.58zm121.028 870.483h6.334c72.057-.013 144.114-.01 216.17-.06 8.488-.004 8.08 1.709 8.08-7.747-.012-230.174-.035-460.348-.048-690.521-.008-134.882-.028-269.763.1-404.644.005-5.037-.908-6.845-6.666-6.82-55.206.234-110.414.183-165.622-.002-4.635-.016-5.567 1.215-5.283 5.524 1.811 27.419 3.226 54.862 5.016 82.28 1.024 15.69 1.071 31.468 5.136 46.889 6.691 25.379 19.836 44.992 44.594 57.846 34.738 18.034 63.7 43.349 86.716 74.765 7.232 9.872 13.561 20.427 15.474 32.583 3.216 20.437 1.841 40.82-2.536 61.035-.739 3.415-2.307 2.657-4.468 1.455a5096 5096 0 0 0-36.952-20.367c-1.021-.557-2.018-2.06-3.824-.784 13.179 13.888 26.278 27.69 39.479 41.603-22.413 11.6-29.156 26.7-22.658 50.32 5.436 19.76 10.646 39.577 15.056 59.578 4.526 20.525 8.68 41.1 10.471 62.1 1.414 16.59-4.011 32.19-6.024 48.275-.663 5.3-2.908 5.316-7.243 4.206-17.308-4.432-34.694-8.573-52.051-12.822-1.334-.327-2.632-1.085-4.454-.138 1.26.696 2.295 1.312 3.369 1.855 15.889 8.042 31.754 16.132 47.701 24.062 3.243 1.612 4.652 2.927 3.394 7.065-5.5 18.09-6.136 36.5-2.332 55.037 2.288 11.152 6.886 21.694 8.792 32.965 6.086 35.985 5.829 72.127 3.488 108.372-.294 4.554-1.675 4.484-5.32 3.449-26.63-7.56-53.307-14.962-79.977-22.384-.972-.271-2.036-1.395-3.238.17 22.638 11.775 45.217 23.5 67.774 35.268 4.882 2.547 12.189 4.225 13.852 8.14 1.852 4.359-3.562 9.989-5.761 15.079-13.662 31.622-26.8 63.5-32.551 97.528-5.819 34.432-16.053 67.393-30.687 99.116-5.593 12.125-11.433 24.184-20.43 34.385-9.09 10.306-20.241 12.005-32.201 5.01-5.422-3.17-9.997-7.333-14.308-11.831-2.651-2.766-4.516-7.822-7.965-7.841-3.282-.018-6.626 3.656-9.872 5.808-12.559 8.325-25.56 15.945-38.525 24.193m-179.756-555.12c0-189.71.024-379.421-.129-569.131-.004-5.288 1.266-6.593 6.716-6.587 139.454.163 278.907.129 418.361.129 6.913 0 6.921.004 6.921 6.754q.003 353.933.002 707.866c0 143.29.004 286.58-.011 429.87-.001 8.547.608 7.228-7.484 7.229-139.274.025-278.548-.018-417.823.152-5.526.007-6.681-1.41-6.676-6.625.146-189.886.123-379.771.123-569.657"/><path d="m1616.42 1324.596.606.01c0-1.038-.005-2.076 0-3.115.36-63.165.715-126.33 1.08-189.495.355-61.051.698-122.103 1.087-183.155.326-51.198.689-102.396 1.08-153.594.324-42.398.687-84.795 1.08-127.193.32-34.48.684-68.958 1.08-103.437.447-38.7.96-77.397 1.417-116.096.034-2.876.487-5.53 2.19-7.998 9.44-13.673 20.182-26.092 34.698-34.938.724-.441 1.66-.75 1.222-1.743h-92.286c12.672 13.285 22.628 27.51 35.117 39.632 1.92 1.864 2.927 3.587 2.942 6.327.122 23.042.454 46.083.646 69.125.388 46.444.723 92.888 1.09 139.332.353 44.685.709 89.369 1.082 134.054q.52 62.013 1.079 124.028c.349 39.053.703 78.106 1.083 117.159.339 34.83.718 69.66 1.074 104.49.423 41.343.76 82.685 1.292 124.025.269 20.863.883 41.72 1.34 62.582m-163.218-354.95-1.075-.442c0-2.613-.004-5.227 0-7.84.083-39.245.432-78.492.16-117.734-.2-28.646-2.502-57.295.733-85.911 2.157-19.09 5.103-37.996 12.926-55.836 5.353-12.204 13.375-21.873 25.859-27.861 12.098-5.804 23.966-12.071 35.9-18.2 13.69-7.031 27.547-13.812 39.324-23.86 5.588-4.765 9.452-10.424 10.597-17.82 1.058-6.835.52-13.208-5.236-17.806-6.135-4.9-12.946-3.363-19.343-.371-35.02 16.382-70.472 31.843-105.803 47.562-5.466 2.432-5.657 2.33-6.013-3.743-1.056-18.008.432-35.861 3.66-53.586 6.955-38.173 20.486-74.228 37.117-109.254 10.774-22.692 22.776-44.702 39.112-64.164 2.44-2.907 5.08-5.655 8.32-9.243h-6.893l-91.277.039c-7.198.003-7.201.004-7.201 7.068l-.002 447.273c0 216.684.016 433.367-.1 650.05-.002 4.47 1.319 5.482 5.71 5.466 41.589-.151 83.178-.076 124.766-.07 19.248.004 35.029.002 54.326.002.16-2.678-1.082-4.695-1.894-6.782-11.7-30.055-21.132-59.617-34.427-89.027-11.267-24.924-25.064-48.66-35.9-73.77-9.41-21.802-15.594-44.2-12.26-68.233 2.053-14.801 7.557-28.55 13.397-42.171 11.759-27.422 26.666-53.348 40.057-79.995 5.139-10.226 10.643-20.393 12.46-31.87.568-3.582.437-7.404-3.466-9.2-3.783-1.74-6.508.996-8.928 3.336-5.944 5.747-10.188 12.729-14.357 19.719-21.508 36.06-39.2 73.92-55.382 112.489-.744 1.772-1.07 3.86-3.001 5.419-.422-1.573-.796-2.75-1.05-3.95-9.088-43.036-17.753-86.153-24.83-129.555-4.817-29.558-8.83-59.144-4.66-89.227 4.193-30.225 13.665-58.175 34.287-81.727 13.016-14.866 28.115-27.74 41.959-41.813 6.989-7.105 13.757-14.373 18.6-23.16 4.374-7.933 3.056-15.254-2.108-22.215-3.485-4.698-7.78-5.727-13.271-3.363-4.872 2.097-8.783 5.495-12.38 9.21-20.412 21.089-40.366 42.57-58.684 65.458-9.838 12.29-19.815 24.475-29.73 36.708m330.864-90.795c-2.425-1.951-3.923-3.103-5.361-4.321a158466 158466 0 0 1-105.621-89.573c-1.681-1.427-3.236-2.67-5.7-2.234-3.891.69-7.81 1.21-11.45 2.862-7.503 3.408-10.13 9.096-7.682 16.855 2.002 6.345 5.842 11.658 10.129 16.67 15.956 18.656 34.484 34.93 51.254 52.838 9.245 9.872 17.852 20.23 26.212 30.827 25.558 32.396 33.27 69.21 30.35 109.326-2.364 32.459-4.403 64.924-8.597 97.218-1.311 10.097-2.832 20.167-4.45 31.618-1.64-2.752-2.452-4.098-3.245-5.454-26.22-44.883-52.265-89.867-80.766-133.427-5.62-8.588-11.101-17.317-18.266-24.805-4.143-4.33-9.593-3.402-12.195 1.946-1.648 3.388-2.091 7.033-1.66 10.81.975 8.55 4.46 16.193 8.38 23.77 27.06 52.282 51.059 105.8 69.598 161.623 13.206 39.764 13.793 79.372 1.368 119.3-8.726 28.043-21.134 54.548-35.392 80.213-18.82 33.877-34.344 68.06-43.765 105.845-2.691 10.79-5.85 21.469-8.905 32.608h3.792c58.15 0 116.303-.085 174.453.139 5.439.02 6.3-1.566 6.294-6.435-.141-131.487-.112-262.976-.112-394.464 0-234.285-.02-468.57.122-702.854.003-5.101-1.26-6.39-6.482-6.343-30.784.273-61.57.14-92.356.204-1.661.004-3.515-.676-5.367.87 6.529 4.373 12.294 9.32 17.574 14.81 20.44 21.258 34.134 46.438 44.395 73.533 14.022 37.025 21.229 75.504 24.717 114.704.846 9.503 1.99 19.052 1.019 29.173-1.772-.952-3.006-1.602-4.228-2.273-16.772-9.216-33.418-18.658-50.343-27.596-22.29-11.772-44.593-23.576-68.628-31.755-8.615-2.931-17.486-4.24-26.554-2.713-9.23 1.555-12.262 7.593-8.131 15.84 2.813 5.619 7.027 10.188 11.772 14.29 12.957 11.207 27.188 20.833 40.757 31.28 23.798 18.323 46.869 37.413 65.808 60.73 13.337 16.42 24.263 34.099 27.022 55.464 4.432 34.323 4.67 68.753 2.384 103.227-.543 8.185-1.36 16.353-2.144 25.654m-381.682 79.517c0-189.57-.004-379.14.013-568.708 0-8.26-.955-7.271 7.52-7.272q208.745-.01 417.488.035c7.996.002 6.91-.846 6.91 6.7q.03 569.236 0 1138.474c0 7.559 1.076 6.704-6.904 6.706-139.342.03-278.685.037-418.027.048-6.995 0-7-.004-7-6.751z"/><path d="M1013.174 1324.386c-2.926.385-5.88.63-8.773 1.177-55.567 10.495-101.151 39.192-142.757 75.096-1.693 1.46-4.552 3.387-1.96 5.756 3.198 2.923 4.614-1.276 6.236-2.66 43.14-36.802 90.236-65.927 148.36-73.89 2.184-.298 4.508-.321 3.966-3.466-.57-3.308-3.083-2.035-5.072-2.013m27.512 332.24 1.932-.993c11.889 10.866 23.707 21.808 35.755 32.502 1.509 1.34 2.892 5.833 6.05 2.46 2.78-2.97-.995-4.642-2.7-6.217-12.3-11.366-24.707-22.622-37.153-33.836-2.227-2.006-4.251-3.841-4.242-7.166.063-23.826.034-47.652.034-71.396.06.02 1.86.42 3.516 1.137 17.35 7.515 32.63 18.178 47.09 30.018 6.587 5.394 12.84 11.178 19.27 16.758 1.129.979 2.217 2.562 3.96.725 1.38-1.453 1.166-2.777-.17-4.093-1.325-1.306-2.593-2.672-3.974-3.92-20.407-18.425-41.762-35.538-67.774-46.04-2.79-1.125-4.444-2.394-4.515-5.577-.48-21.54-1.061-43.075-1.657-64.611-.086-3.106.79-4.383 4.187-3.117 6.757 2.52 13.81 4.373 20.358 7.316 28.885 12.986 53.699 31.678 76.616 52.986 1.384 1.286 2.673 4.972 5.53 1.994 2.48-2.583-.238-4.24-1.93-5.771-5.52-4.995-10.96-10.091-16.711-14.82-23.986-19.72-49.296-37.486-79.838-46.112-7.48-2.112-8.766-5.947-8.816-12.182-.14-17.608-.474-35.214-.778-52.82-.154-8.941-.195-8.952 8.993-6.423 37.56 10.34 70.366 29.503 101.19 52.307 4.927 3.644 9.626 7.58 14.462 11.343 1.184.92 2.443 2.434 4.013.576 1.227-1.452.96-2.895-.45-4.143-1.195-1.057-2.358-2.155-3.604-3.152-35.65-28.55-74.21-51.918-119.177-63.765-3.4-.895-5.726-1.508-5.77-5.843-.236-23.91-.708-47.818-1.32-71.722-.117-4.565 1.408-5.147 5.64-4.3 14.78 2.96 29.096 7.26 42.954 13.072 36.219 15.188 67.8 37.143 96.66 63.133 1.448 1.303 2.86 4.97 5.66 2.613 2.676-2.254.046-4.246-1.677-5.795-41.297-37.117-86.65-67.23-142.795-78.374-4.882-.97-6.575-2.646-6.555-7.585.064-16.82-.614-33.64-.552-50.458.044-12.047-2.91-11.907 11.668-9.276 43.384 7.83 82.789 25.266 119.593 48.688 11.946 7.603 23.353 15.925 34.308 24.844 1.332 1.085 2.746 3.042 4.552.49 1.182-1.67.39-2.96-.92-4.09-1.613-1.387-3.216-2.791-4.895-4.1-46.952-36.615-98.912-62.801-158.675-72.52-4.452-.723-5.774-2.35-5.777-6.542-.012-19.187-.067-38.38-.595-57.558-.157-5.727 2.408-6.515 7.179-6.343 13.187.474 26.207 2.047 39.076 4.887 48.23 10.643 90.953 32.57 130.613 60.84 1.857 1.325 3.949 5.257 6.492 2.17 2.92-3.541-1.68-4.827-3.696-6.353-11.484-8.69-23.581-16.525-36.138-23.643-42.753-24.235-87.59-42.293-137.902-43.524-5.064-.124-5.564-2.375-5.544-6.328.11-21.563.05-43.126.05-64.69 0-21.542.038-21.713 21.824-17.091 60.73 12.885 116.592 35.846 163.885 76.378 1.647 1.41 3.355 4.383 5.785 1.475 2.396-2.867-1.032-4.077-2.586-5.494-16.41-14.97-34.996-26.972-54.51-37.615-39.286-21.428-81.341-35.176-125.516-43.042-3.873-.69-9.185.422-9.033-6.928.566-27.332.6-54.676.607-82.016 0-4.673 1.52-5.923 6.14-5.123 74.867 12.977 141.872 42.26 199.316 91.56 1.58 1.358 2.943 5.784 6.06 2.496 2.78-2.932-.997-4.66-2.716-6.22-13.62-12.367-28.404-23.286-43.98-33.181-48.143-30.585-100.47-50.683-157.118-59.942-3.56-.581-7.303-.443-7.195-6.128.463-24.446.537-48.9.595-73.35.01-3.892 1.164-5.161 5.2-4.254 8.368 1.88 16.863 3.227 25.213 5.17 65.57 15.27 127.572 38.552 182.338 78.032 1.43 1.032 2.936 3.97 5.279 1.386 2.579-2.845-.366-4.167-2.137-5.526-9.732-7.47-20.022-14.153-30.648-20.334-53.872-31.337-112.068-51.38-173.377-63.095-7.602-1.453-12.136-2.845-11.583-12.436 1.302-22.548 1.174-45.183 1.278-67.784.026-5.672 1.27-7.214 7.376-5.787 49.167 11.5 97.169 26.353 143.425 46.437 23.332 10.13 46.03 21.409 67.679 34.69 1.489.915 3.254 4.663 5.77 1.23 2.718-3.708-1.424-4.337-3.212-5.692-2.534-1.92-5.383-3.456-8.154-5.064-63.638-36.932-132.656-60.26-204.263-76.85-6.761-1.566-8.373-4.19-8.088-10.485.889-19.682 1.287-39.387 1.684-59.088.293-14.54.139-14.41 15.02-12.307 71.819 10.15 138.862 33.444 201.199 69.754.923.538 1.85 1.07 2.753 1.64 1.443.912 2.44.466 3.25-.891.733-1.227 1.189-2.386-.331-3.365-1.567-1.01-3.117-2.052-4.731-2.986-64.812-37.527-134.415-61.561-209.242-70.534-6.174-.74-7.401-2.712-7.17-8.176.875-20.737 1.42-41.49 1.949-62.24.297-11.634.206-11.64 11.74-9.924 67.682 10.07 130.65 33.07 189.985 66.12 2.142 1.193 4.968 5.205 7.257 1.388 2.167-3.611-2.627-4.275-4.717-5.912-1.036-.812-2.296-1.353-3.467-1.996-60.463-33.218-124.44-56.61-193.425-65.755-5.171-.685-6.568-2.376-6.356-7.247.972-22.313 1.79-44.635 2.283-66.961.138-6.258 2.319-7.817 8.603-7.106 31.94 3.616 62.6 12.098 92.69 22.768 26.765 9.49 52.745 20.77 78.092 33.468 1.489.746 3.896 4.276 5.806.164 1.557-3.353-1.496-3.953-3.47-4.996-3.304-1.745-6.682-3.361-10.07-4.95-52.962-24.843-107.137-46.052-166.167-52.41-4.357-.47-4.533-2.542-4.383-5.704.882-18.634 1.949-37.264 2.419-55.91.14-5.58 1.767-7.11 7.425-6.636 24.939 2.086 49.508 6.137 73.737 12.237 25.518 6.425 50.365 14.682 74.205 25.75 1.56.725 3.543 3.316 5.364.187 1.952-3.355-1.073-3.898-3.07-4.944-1.18-.618-2.432-1.101-3.648-1.654-46.254-21.063-95.047-32.767-145.7-37.136-6.737-.581-7.665-2.952-7.356-8.47 1.467-26.23 2.68-52.473 4.005-78.711.202-4 .996-7.627-5.46-8.001-6.343-.367-6.166 2.92-6.346 7.168-1.161 27.3-2.567 54.592-3.604 81.897-.195 5.127-1.53 7.447-7.27 7.53-18.003.264-35.934 1.824-53.746 4.44-28.241 4.149-55.9 10.35-81.656 22.964-1.985.972-5.183 1.604-3.657 4.915 1.757 3.81 4.188.766 5.94-.026 42.273-19.125 87.32-24.783 133.198-26.648 5.28-.215 6.247 1.884 6.013 6.454-.901 17.58-1.706 35.17-2.114 52.767-.154 6.622-2.04 9.084-9.531 9.336-55.304 1.859-108.206 14.957-159.723 34.038-2.173.805-6.363.693-4.926 4.607 1.742 4.74 5.028.92 7.22.232 11.744-3.681 23.26-8.067 35.045-11.61 40.18-12.075 81.059-20.436 123.263-21.696 5.92-.177 7.79 1.179 7.448 7.36-1.232 22.296-1.91 44.624-2.502 66.947-.131 4.953-1.803 6.478-6.931 6.906-54.962 4.583-108.118 16.385-158.428 39.075-7.057 3.183-13.915 6.794-20.81 10.31-1.823.93-4.246 1.902-2.485 4.71 1.882 3.003 3.603.385 5.327-.282.99-.383 1.877-1.02 2.83-1.5 54.249-27.335 112.18-41.54 172.727-46.52 4.829-.397 7.259.016 7.01 5.893-.967 22.839-1.496 45.698-1.947 68.554-.098 5-2.552 5.942-6.998 6.234-52.806 3.467-104.182 13.72-153.945 31.48-16.406 5.856-32.385 12.658-47.806 20.68-1.91.993-5.153 1.759-3.035 5.052 1.798 2.796 3.705.505 5.485-.276 1.712-.753 3.362-1.64 5.047-2.452 61.583-29.706 127.156-44.131 195.269-48.887 3.686-.257 5.44.485 5.31 4.595-.656 20.747-.897 41.508-1.668 62.25-.52 13.96-.858 13.622-15.322 15.89-53.443 8.385-105.617 21.196-154.946 43.609-15.606 7.09-30.744 15.016-44.72 24.909-1.781 1.26-4.77 2.447-2.167 5.434 2.339 2.685 3.638-.367 5.116-1.205 3.476-1.973 6.662-4.433 10.118-6.445 60.618-35.291 127.397-51.88 196.33-62.023 5.317-.782 4.984 1.895 4.917 5.253-.475 23.907-1.19 47.816-1.177 71.724.004 6.703-2.342 8.216-8.7 8.62-47.236 3.012-92.878 12.923-136.433 31.369-19.52 8.267-38.178 18.04-55.192 30.629-1.805 1.335-4.697 2.635-2.01 5.495 2.375 2.525 3.757-.438 5.14-1.402 8.982-6.252 18.223-12.074 27.926-17.202 51.006-26.962 106.067-39.338 163.39-43.778 5.44-.421 5.517 2.184 5.463 6.009-.335 23.916-.738 47.834-.704 71.75.007 5.42-2.438 6.453-7.105 7.007-36.606 4.349-72.456 12.097-107.361 23.788-30.31 10.152-59.483 22.7-86.11 40.388-1.982 1.318-5.782 2.509-3.243 5.833 2.237 2.928 4.306-.326 5.975-1.408a298 298 0 0 1 29.21-16.646c51.333-25.555 106.235-39.118 162.967-46.678 6.242-.832 4.972 2.915 4.967 6.08-.042 26.03-.451 52.067-.045 78.09.11 7.087-2.116 9.198-9.083 10.076-45.996 5.795-90.675 16.682-133.437 34.529-15.827 6.605-31.144 14.167-45.458 23.569-1.761 1.157-3.99 2.253-2.418 4.902 1.913 3.227 3.685.436 5.227-.422 6.529-3.634 12.802-7.73 19.445-11.141 50.1-25.726 104.12-38.612 159.666-46.524 4.754-.678 5.986.688 5.948 5.234-.193 22.614-.057 45.229-.108 67.844-.013 5.755 1.83 12.984-1.001 16.867-3.125 4.287-10.984.968-16.732 1.626a91 91 0 0 1-4.01.37c-46.504 3.28-88.773 19.18-128.91 41.425-12.63 6.999-24.768 14.747-36.482 23.128-1.657 1.187-4.086 2.346-2.127 4.95 2.167 2.882 3.599-.085 5.244-.882.952-.462 1.786-1.161 2.662-1.768 30.657-21.212 63.58-38.073 99.328-49.5 24.419-7.805 49.394-12.33 75.169-11.858 3.163.058 7.037-1.013 6.98 4.762-.19 19.717-.011 39.44.233 59.158.05 4.046-1.436 5.25-5.49 5.707-62.617 7.063-117.078 32.922-166.606 69.874-2.524 1.883-8.638 3.812-5.711 7.572 3.227 4.145 6.18-1.632 8.634-3.448 48.15-35.631 100.897-60.598 161.45-68.217 7.08-.891 7.712 1.345 7.776 7.15.505 45.986 1.258 91.97 2.107 137.95.084 4.589-.852 7.043-6.026 8.044-43.402 8.4-81.996 27.469-118.24 51.63a95 95 0 0 0-5.83 4.219c-1.65 1.292-1.088 2.669-.002 4.08 1.252 1.628 2.318.544 3.36-.142 2.229-1.466 4.383-3.038 6.606-4.51 34.292-22.7 70.906-40.26 111.54-49.38 7.306-1.64 8.984.613 9.029 6.83.137 18.665-.003 37.345.829 55.982.256 5.748-1.202 7.69-6.671 8.899-38.797 8.58-73.138 26.842-106.333 47.49-1.89 1.176-5.06 2.189-3.192 5.25 2.103 3.45 4.032.12 5.94-.7.97-.417 1.809-1.124 2.718-1.683 31.485-19.373 64.185-36.1 100.642-44.83 5.008-1.198 7.448-.698 7.522 5.07.253 19.97.774 39.938 1.306 59.903.086 3.225-1.116 4.618-4.392 5.28-28.342 5.74-53.25 19.15-77.45 33.926-3 1.83-10.544 2.743-7.204 7.905 2.476 3.826 6.669-1.736 9.705-3.485 23.41-13.485 47.009-26.42 73.862-32.446 4.666-1.047 6-.247 6.09 4.553.373 19.7.823 39.412 1.924 59.082.408 7.284-1.952 10.977-8.77 14.13-17.416 8.058-31.647 20.636-45.685 33.31-1.563 1.41-3.55 3.062-1.271 5.233 2.49 2.375 3.675-.516 5.19-1.646 1.06-.791 1.9-1.857 2.905-2.728 14.255-12.38 28.75-24.421 46.72-31.903 1.692 3.059 1.463 5.956 1.575 8.816 1.402 35.96 2.927 71.916 4.13 107.883.166 4.93 1.69 6.202 6.597 5.988 5.028-.218 5.53-2.546 5.284-6.518-.602-9.701-.96-19.416-1.346-29.128-1.054-26.488-2.072-52.978-3.104-79.467m24.66 135.608h9.946c79.27 0 158.54.032 237.81-.031 13.017-.011 11.609 1.832 11.61-11.277.023-187.73-.02-375.46-.024-563.188-.01-360.472-.025-720.944.144-1081.416.003-6.811-1.543-8.862-8.82-8.824-57.233.297-114.47.124-171.705.168-2.23.002-4.744-.93-6.794.914 8.369 12.027 8.674 15.738 1.583 25.39-37.57 51.15-60.277 108.586-74.86 169.442-2.803 11.705 1.188 19.743 11.903 25.623 36.167 19.848 67.807 45.282 95.753 75.116 77.266 82.485 114.094 181.329 122.464 291.525 3.566 46.943 3.709 93.925 2.038 140.983-3.071 86.489-11.842 172.46-23.497 258.164-12.533 92.157-28.22 183.82-48.004 274.772-16.031 73.698-32.633 147.282-59.44 218.164-24.727 65.385-52.035 129.48-100.106 184.475m-59.584-.001c-7.38-9.137-13.955-16.72-19.91-24.744-36.023-48.541-62.974-101.918-86.462-157.047-52.838-124.016-83.803-253.54-99.767-386.626-11.74-97.87-20.262-196.041-22.645-294.611-1.94-80.203.108-160.195 12.369-239.788 15.605-101.294 55.259-190.972 129.234-264.851 33.399-33.355 68.737-64.207 111.726-85.551 4.717-2.342 8.322-6.1 9.624-11.136 1.373-5.312 2.035-10.817 2.763-16.268 8.104-60.692 22.46-119.743 48.055-175.858 3.698-8.11 3.67-8.136-5.61-8.135-110.977.016-221.955.024-332.933.073-11.965.005-10.6-1.251-10.6 10.668-.024 236.897-.02 473.794-.02 710.69 0 311.57.03 623.138-.171 934.706-.004 7.179 2.169 8.596 9.037 8.573 66.103-.231 132.206-.112 198.31-.096 18.5.005 37.003 0 57 0m-296.49-831.705c0-284.493-.006-568.986.023-853.48 0-12.415-1.561-10.971 11.082-10.974 208.795-.046 417.59-.057 626.385-.074 10.235 0 10.235.008 10.235 10.258v1517.649c.002 63.893-.068 127.786.172 191.677.024 6.419-1.576 8.423-8.417 8.416-210.407-.197-420.813-.233-631.22-.01-7.912.01-8.365-3.054-8.363-9.197.119-284.755.103-569.51.103-854.265"/></g></svg>