<svg xmlns="http://www.w3.org/2000/svg" width="2048" height="1920" viewBox="0 0 2048 1920"><defs><clipPath id="clip_1"><path d="M0 0h2048v1920H0Z"/></clipPath></defs><g clip-path="url(#clip_1)"><path fill="#231f20" d="m695.952 449.143 1.154-1.47c39.514 23.455 76.094 8.85 113.003-11.38l-.013-.008c20.92-12.487 35.462-34.1 54.8-48.834l1.49 1.568c-8.467 13.328-21.717 21.952-31.979 33.585-12.27 14.596-26.733 26.105-41.918 36.673-5.656 3.762-12.978 4.979-19.287 7.348-9.655 5.81-19.823 8.739-30.956 7.082-1.826-.216-3.652.666-4.992 1.916l-.686 2.444c14.947 9.072 38.11-5.632 55.75-3.548-5.45 13.137-43.846 7.87-34.057 17.613 7.741 2.714 13.33 8.34 18.876 14.426 1.938 2.126 5.933 2.098 8.988 3.053l1.08-1.836-4.069-8.827c11.225-2.46 22.831-2.448 34.204-4.235 15.872-3.55-13.323-13.17 26.953-14.957 15.733 3.64-44.923 34.758-51.18 32.064-4.38.698-9.453-.17-13.616-1.926-38.005-12.67-58.633-29.351-83.545-60.751M366.485 1545.929c4.502-7.968 10.21-15.593 15.494-23.371 16.24 12.395 46.274 1.702 65.767 1.142-72.349 60.629-46.898 154.173 9.602 221.878-19.119-3.407-39.377-7.795-59.152-15.868-64.559-37.711-68.745-119.674-31.71-183.781M654.06 927.884c31.452 36.367 64.525 80.53 70.367 130.015-1.895-1.112-4.84-1.737-5.517-3.412-27.029-83.907-58.107-137.507-144.285-164.397l-.03-1.242c25.878.569 60.273 19.272 79.465 39.036M905.452 727.81c14.826-8.396 34.284-8.283 45.507 5.117l-1.113 1.47c-47.04-23.888-26.193 23.258-19.557 48.08-10.303-5.85-10.622-21.165-23.122-25.112-1.284 12.574 2.701 24.342-.054 35.718l-2.25.257c-5.104-17.204-5.337-35.105-6.588-52.876-.384-5.907 1.806-9.592 7.177-12.654m-23.375-233.17c8.078-.19 16.137-1.368 24.203-2.19l-5.719 4.634.827 2.279 29.264-6.966.382 2.215c-21.602 8.7-43.7 14.623-67.524 12.075 5.68-4.917 9.857-11.841 18.567-12.046m-81.822-171.592c49.827 7.427 97.004-14.603 145.527-23.724.362 4.895 3.598 4.752 7.518 3.927 31.67-7.376 64.211-11.883 95.407-20.834l-.44-2.487-44.298 2.57-.304-2.303 66.36-10.734-.065-1.705-8.009-1.181q-.06-.639-.122-1.276c44.715-4.993 97.764-7.371 133.58 24.752l-1.644 1.976c-6.16-7.082-13.197-12.04-23.515-11.886 2.617 7.563 10.156 6.723 15.132 12.7-24.343-6.684-46.543-12.748-71.697-9.142-33.958.813-67.632 5.957-100.927 12.527-43.51 10.104-87.755 18.495-130.336 32.143-1.359.455-2.61 1.282-3.598 3.493 40.76 3.178 78.211-15.283 116.29-27.295-3.063 6.774-42.23 18.648-79.107 27.23-27.907 6.497-55.846 1.238-84.11 5.04l19.911 6.836.024 2.427c-7.863 3.474-14.939-.897-22.077-4.082-11.924-5.955-22.795-11.181-34.59-17.812 2.672-.642 3.966-1.387 5.09-1.16M953.323 216.16l.862 1.439-6.282 4.398q.166.552.328 1.106l8.334-1.202.302 1.06c-14.24 5.154-27.754 13.917-42.089 18.423-4.336 6.468-11.189 7.452-17.276 10.248-2.04 1.068-3.499 4.456-4.746 6.526-6.459 4.324-12.615 9.426-19.533 12.636-10.868 6.763-36.503 6.506-38.979 20.73-.4 2.276-5.457 3.605-8.38 5.369l1.948 6.414c10.86 1.956 20.97 1.63 31.586-4.44 26.756-14.121 54.426-30.923 82.64-41.14 5.023 6.243 8.805 10.94 12.565 15.612-33.24 40.144-92.225 39.712-139.332 31.46l-.374 2.179c7.801 6.19 17.901 4.593 26.703 7.533-22.765 4.085-40.816-12.322-60.713-20.315 9.1 12.185 22.646 17.396 34.553 25.125l-.414 1.775c-24.756-.884-43.476-26.378-58.695-44.705 37.685 18.16 78.508 2.946 114.71-11.226 27.491-15.683 54.182-34.03 82.282-49.005m81.376-47.986c2.693.276 5.288.542 7.717 1.179-6.735 3.086-14.38.743-21.594 1.149l-2.01 4.266 1.48 1.092c-9.498-1.643-19.154-3.25-28.685-5.318-14.823-15.217-29.479-34.078-42.19-48.206 19.021 13.859 40.271 23.943 63.184 29.224 3.012 13.08 13.488 16.343 22.098 16.614m70.717 2.118c18.406 5.252 37.513 10.423 50.366 25.567-16.018-8.131-33.467-16.99-50.366-25.567m118.557 70.556-17.677-30.344.94-.753 12.663 16.309c2.601-7.462 1.513-11.348-3.905-15.048-8.736-7.934-16.866-16.46-26.724-23.401q2.582.614 5.163 1.232l1.056-1.911c-10.786-9.917-23.827-16.228-36.028-23.89 22 7.356 39.524 22.112 55.995 39.996 1.03-2.525 1.752-4.302 3.047-7.481l8.256 44.237zm-130.26-75.094-.15 1.648-5.12.529-1.094 1.486 3.225 1.784-25.217-2.718c-.163-1.621-.42-4.201-.789-7.863zm62.208 42.07c-8.346 4.776-17.988.305-26.727-.963-3.072-6.814-7.047-13.314-14.963-15.49-.35-6.031-4.362-5.768-7.229-7.624l-4.483-5.162 53.468 28.637Zm-75.32 37.608c8.87-2.803 18.796-1.173 23.722-11.311 21.803 2.652 48.263-4.863 63.152 16.25l-5.745-1.1c.302 6.359 2.62 9.164 11.24 16.887-31.75-13.087-65.7-11.538-98.472-18.728 2.091-.757 4.068-1.471 6.102-1.998m86.873-16.84c-.886-.653-1.765-1.978-1.903-2.834 10.115-16.834 16.884-6.39 31.785-8.355l16.547 27.969c-17.478 2.317-32.747-5.54-46.429-16.78m-104.86-86.75-11.779-6.283c9.114-1.143 20.475 3.07 28.154-3.15 6.846 1.615 14.12 3.47 21.453 5.976-11.085-1.175-23.4.006-37.829 3.458m-61.704 93.55c-.495 1.387-.464 2.968.1 4.783l-58.61-2.01c5.813-3.103 11.235-6.95 17.718-8.607 5.24-.728 8.9-4.287 11.882-8.394l-.916-2.234c24.442-8.14 50.041-10.976 77.866-8.605-11.776 5.354-21.9 13.656-34.499 17.303-4.64 2.269-10.92 2.465-13.54 7.765m224.164 69.905 6.565-1.224c-10.705 22.002-24.612 40.597-41.035 57.188 4.531-4.747 8.033-10.113 10.778-16.09q-.534-.74-1.067-1.483l-10.917 3.296c3.77-6.731 6.064-10.375 7.161-17.22-13.749-3.912-25.517 1.81-34.029 12.309-11.159 12.092-23.718 21.764-37.632 29.693-5.653 3.97-20.142 9.508-11.197 17.54 7.982 8.255 16.31 7.966 25.588 3.096 11.762-6.173 23.704-11.951 35.988-18.11-6.675 10.774-19.004 17.42-28.568 25.482-5.599 4.02-12.055 5.267-19.203 4.533-5.208-.534-10.884 1.11-15.988 2.945-32.996 11.086-70.592 15.16-102.468.957 26.608 7.383 52.965 7.308 76.346-8.844 1.61-.985 3.43-3.795 3.242-5.522-.38-13.882 16.631-10.321 22.791-20.691l-46.63 5.488-.392-1.782c29.11-10.841 58.391-21.251 86.962-33.485 19.026-8.381 34.728-22.468 50.35-36.537 5.42-5.43 13.586-7.54 17.658-14.312l18.92-2.625-13.974 14.047zm-10.734 116.957c10.316-17.126 22.295-33.172 24.406-54.072-1.035-10.08-4.676-20.406-3.32-30.927l-2.407-.442-10.77 16.353-.924-.734 19.643-49.44c11.381 38.303-1.657 99.548-26.628 119.262m57.042-142.516-14.525-22.945-1.98-.454-5.399 16.119q-.761-.12-1.524-.238c1.651-19.566 9.102-13.255-1.897-31.764 12.031 10.258 18.312 25.096 27.281 37.776zm-3.385 101.33c-3.399-12.915-9.545-24.773-10.419-38.598 6.642 6.32 11.428 12.299 12.322 21.272 2.486 7.984 6.29 14.802 8.544 23.499-5.532-.465-4.292-10.732-10.447-6.172m6.804 96.232c10.397-8.902 14.165-1.48 12.02 11.47zm-2.965 16.748 1.62.887c-5.404 10.3-10.806 20.603-15.864 30.247-1.39-12.911 10.24-20.048 14.244-31.134m2.964-60.952-7.959-10.106-1.58.773-.723 8.61c-4.237-10.745-4.456-22.06-3.624-33.722 9.877 8.68 15.49 19.47 13.886 34.445m-22.193 131.696c1.394-7.172 2.59-14.39 3.871-21.586l1.166.24-2.632 21.902 2.05.948c5.24-15.853 7.935-33.86 26.52-37.922-3.133 11.845-26.504 51.124-35.68 58.903 1.72-8.171 3.311-15.306 4.705-22.485m-727.86 582.639c24.26 7.725 44.913-2.081 68.567-5.33 4.18 20.667-12.468 90.557-40.735 67.443-13.405-11.615-31.84-11.61-43.329 2.245-9.446 13.665-4.486 36.734-5.156 50.904 1.631 14.906-8.303 33.695-15.73 48.209-5.256 10.532-10.69 21.423-15.45 32.455-5.044 11.648-7.574 24.369-14.787 34.976-4.758 19.174-7.56 38.93-11.506 58.555-1.073 9.565-8.51 6.31-15.353 7.862-2.087.507-5.33.74-7.734 1.138l17.013 32.817c-20.472-7.295-25.42-29.244-33.335-47.103-2.957-9.552-12.462-23.932-2.93-32.28 18.33-17.153 31.133-29.281 37.85-51.663 12.338-29.226 25.01-58.183 36.73-88.024 5.852-21.722 11.285-42.102 7.705-65.75-.558-2.547 1.405-7.02 3.623-9.87 7.525-7.622 26.178-36.574 34.556-36.584m230.978 82.668-2.3.819c-7.077-19.676-8.03-41.427-14.595-61.266-6.07-20.465-14.293-40.2-21.634-60.228-3.222-7.287-4.12-16.23-11.29-20.81 3.44 37.943 23.576 74.529 30.268 112.507l-2.229.864-18.18-49.683-1.999.43c-4.445 7.365-3.21 27.45.253 35.827 3.614 8.448 6.048 17.468 9.507 26 4.44 12.214 12.044 23.27 14.324 36.18l-2.406.967-8.672-19.263-2.44.71c.877 15.09 8.861 29.497 3.924 44.56-3.127 6.82-6.977 25.829-13.94 27.876-.733-22.516.098-45.073-.105-67.604 1.602-16.876-17.9-1.824-24.285 2.194-10.092 6.05-18.628 19.957-31.27 19.422-11.348-3.726-29.294-5.955-28.276-21.832 1.248-30.792-.949-62.117 8.814-91.82 2.263-8.178 5.07-15.903 3.905-24.797-.338-2.58 1.926-6.592 4.115-8.336 22.22-17.345 44.325-33.22 65.408-52.311 28.921 52.694 44.292 108.814 43.103 169.594m93.355-469.84 41.827-22.73c1.683 27.337 2.336 59.992 18.913 86.145Zm193.408-406.002-.328-1.605c19.075-5.582 38.3-10.893 57.477-15.96 8.496-3.346 15.073-1.931 19.391 7.602-24.087 14.634-50.352 11.977-76.54 9.963m-13.449 91.324c-3.08 3.93-9.749 7.857-.402 13.057-8.724.324-16.773 3.064-24.845-1.7-6.396-3.207-14.049-4.08-20.945-6.124 9.62-7.756 36.08-10.034 46.192-5.233m180.961-88.861c-6.995 10.657-19.358 17.549-24.372 29.303 8.804.603 15.184-9.616 23.421-14.903-6.97 23.225-14.186 45.88-31.299 61.296-12.265 10.517-24.883 27.885-43.578 17.767 8.804-5.876 16.565-12.13 25.158-16.511 9.88-5.04 14.202-12.907 15.027-24.015 1.081-13.336-14.384-2.297-20.16.177-5.132 3.009-9.939 6.776-4.982 14.659-16.434 2.624-31.324 7.27-46.05 15.259-10.13 3.339-6.13 9.066-4.804 17.9l-50.695 15.668c75.018-48.062 119.732-65.007 176.095-140.812-4.958 8.91-8.497 17.317-13.76 24.212m81.583 1127.977-28.486-18.801c11.046-10.886 17.44 2.03 25.795 4.342 6.785-2.244 5.701-15.548 16.931-13.51zm-76.696 263.407c-7.078.434-10.219-6.41-14.684-10.694 2.681-2.365 5.034-5.563 8.1-6.952 13.602-6.164 25.29-15.307 37.36-24.246 8.232-6.098 19.393-8.007 29.496-10.71 4.806-1.286 9.023 4.46 7.486 9.814-4.424 13.802-7.983 28.082-14.329 41.109-4.656 10.357-3.169 13.575 7.247 15.25 9.14 2.052 23.68-1.035 23.674 12.502.528 6.86 1.642 13.67 2.533 20.498.485 3.715-7.61 14.52-11.15 14.586-2.776.05-5.559-.295-8.292-.462-.056-11.612-1.059-12.92-11.503-16.153-7.803-2.417-15.537-5.102-23.38-7.351-22.5-7.19-1.953-38.315-32.558-37.191m-27.082-.967c1.706.222 4.214-.255 4.995.773 7.232 11.217 29.355 30.103 22.29 44.48l-2.522-.618c-8.217-13.142-16.492-26.245-24.555-39.495-.753-1.236-.17-3.405-.208-5.14m-96.812-84.454 16.153 10.472c6.6-3.536 7.488-14.407 17.963-12.635l-15.05 20.987-20.253-16.917zm18.331-3.67c-2.804 5.515-3.127 4.918-7.488.72l3.018-4.64Zm-7.97-23.388 22.294 18.573c-7.707 5.115-13.858-6.493-19.797-9.593-6.092 3.712-6.15 14.52-16.562 13.087zm-29.317-158 .646-1.758c14.673 4.736 15.437 18.066 28.45 1.895 1.661-1.727 4.356-2.314 6.574-3.428l.28 1.086-16.013 18.858zm.861 170.373c-1.404 4.677-3.507 5.219-7.674 3.067-14.997-7.748-30.11-15.258-45.377-22.368-3.77-1.755-8.312-2.404-12.462-2.27-12.313.397-23.819-2.601-34.785-8.246-7.669-3.948-13.768-4.136-20.79 3.084-4.883 5.02-12.8 6.83-19.558 9.508-3.925 1.555-5.33-1.336-4.466-5.027 4.635-17.923 11.392-35.772 13.76-54.101 1.977-18.303 1.704-36.912 1.897-55.396.071-6.85-3.759-11.74-9.687-14.631-2.193-1.07-4.985-2.033-6.167-3.977-13.29-23.578-43.442-32.856-50.495-59.777-1.277-7.181.547-11.636 6.852-14.535 54.885-25.145 107.752-54.486 161.428-82.124 5.312-2.79 7.23-1.75 8.92 4.197 12.832 43.435 18.028 95.419-15.386 131.072 42.961 45.709 53.006 112.97 33.99 171.524m-276.664 83.576c5.835-5.707 18.62-24.085 24.608-9.468 1.618 3.869 2.356 8.759 5.027 11.408 26.695 20.074 28.358-28.91 46.811-37.018 8.052-4.37 17.217-6.505 25.731-9.836 13.322-8.672 28.53-11.27 43.302-14.966 12.188-3.05 19.44-12.995 28.134-20.97 1.516-2.941-1.144-7.902-4.657-9.305l.722-2.491c9.77 1.289 17.641 7.402 25.15 13.38 13.868 11.969 29.197 21.352 45.483 28.618 13.713 6.118 21.046 15.916 23.475 31.665 6.126 23.788 23.207 46.41 11.811 71.859-2.912 7.5-7.509 12.322-15.85 10.967-7.994-1.298-16.354-1.317-23.944-3.928-32.403-11.148-65.624-13.865-99.382-13.532-26.652.263-53.325-.313-79.968-1.22-28.317-.484-85.048-2.34-56.453-45.163m-391.46-261.835c.857-1.393 1.71-2.777 2.553-4.144 3.962 4.804 18.745 13.494 18.022 19.269-9.86 8.366-20.03 17.016-30.633 24.52-.754.534-2.967 1.122-9.317-.934-1.109-.36-1.826-.954-2.133-1.767-.58-5.263 5.304-10.386 7.602-14.933 4.783-7.126 9.451-14.797 13.905-22.011m235.378 13.117c1.998.02 3.993.44 5.99.674l.35 1.919c-17.528 4.398-36.694 4.524-54.614 4.179-15.62-1.175-31.035-5.896-46.454-9.486-5.984-1.394-11.324-5.491-18.008-1.552-4.766 2.808-4.432 5.417-.9 8.06 8.632 6.193 16.08 10.337 25.432 16.187-2.462 1.2-3.63 2.29-4.756 2.242-21.527-.72-83.372-.1-60.829-36.464 6.406-7.395 9.898-15.34 8.243-25.346-1.718-10.393 1.583-19.653 4.621-29.203 3.916-12.311 6.423-25.16 10.688-37.312 6.76-17.255 23.6-27.875 28.51-46.356 5.415-16.668 1.313-34.635 1.682-51.837-.086-10.23-2.89-31.448 13.504-23.466 11.837 4.843 21.376 13.236 30.58 22.152 13.623 12.367 25.301 28.83 17.468 47.738-4.589 12.949-3.944 25.904-2.653 39.166.333 3.417.214 8.17-1.673 10.329-12.92 15.98-2.47 36.039-6.899 54.42-2.713 7.978.293 21.039-9.078 24.16-13.933 4.186-14.182 16.678 1 18.179 18.96 5.493 37.89 11.405 57.796 11.617m175.978-41.893c4.938-.718 9.99-1.836 14.57.82-10.349 27.255-68.682 25.142-89.61 11.444l.564-2.427c24.891-2.468 49.851-4.416 74.476-9.837m-343.958 320.88c93.208 13.214 180.01-10.963 269.507-32.94 2.233 16.058 1.795 34.087 11.75 48.552.181.417.051 2.027-.505 3.398-3.476 5.876-7.93 26.668-14.987 26.516-66.767.395-217.097.005-285.66.142 6.646-15.4 13.383-31.158 19.895-45.668m300.593-165.717c1.904-15.25 2.811-52.531 25.343-55.963-20.236 50.643-23.686 107.003-11.048 160.555-16.629-31.771-16.485-71.37-14.295-104.592m-11.895-32.467c.801-8.318 6.317-16.793 11.23-24.342.965-.78 5.03-.435 6.581-.414-14.615 22.228-14.16 49.548-16.095 75.083-1.187-16.64-3.162-33.726-1.716-50.327m38.995-.585c11.681-33.2 4.285-21.633 41.467-23.785-33.512 34.832-46.148 77.122-51.365 128.053-3.914-38.11 0-74.835 9.898-104.268m-48.806 25.066c3.018 38.512 8.983 78.918 27.17 117.428l-38.607 13.339c-7.665-41.127-4.027-82.966 11.437-130.767m-302.872-51.958c10.317-8.75 21.425-19.471 36.097-16.715-74.943 55.28-38.04 164.308-5.393 232.138-56.918-44.76-99.21-158.33-30.704-215.423m280.811-6.376c-19.948.108-40.058-.605-59.774-.982-3.379.01-11.095-.18-11.724-2.096-1.64-1.557.885-11.097 3.69-13.892 34.493-38.461 42.395-43.116 51.725-96.495 4.766 5.883 6.407 12.963 7.265 21.538 3.05 30.445 5.393 60.466 13.26 91.909q-2.235.006-4.442.018m3.204 93.4c-5.47 27.008-6.695 55.78-3.727 87.835-33.472-47.068-46.956-100.255-37.339-161.454 1.637-10.75 4.104-12.185 10.963-12.185 19.233.523 39.107.256 58.89.2-13.92 30.196-23.089 57.475-28.787 85.605m-210.64-94.31c-50.203 71.57-31.666 160.06 23.161 227.599-6.008-.774-19.14 2.326-22.564-2.647-21.976-24.074-46.577-53.74-62.407-91.227-22.884-53.657-11.625-104.713 34.258-138.027 9.042-6.397 20.283-.507 30.473-.347-.983 1.575-1.958 3.122-2.92 4.65m28.571 10.32c-24.9 89.187 9.851 133.243 39.608 212.555-10.7 1.064-21.407 2.267-31.868 2.937-29.62-27.832-44.89-65.182-52.547-95.651-10.06-45.79-1.648-88.447 25.003-126.788 5.776-8.532 14.317-4.907 22.314-3.637a1013 1013 0 0 1-2.51 10.585m8.771 60.602c-.033 18.954-.328 38.094 1.834 57.326-13.2-35.872-13.349-80.93-1.783-115.528 2.114-4.777 2.585-13.972 9.698-11.195-6.613 26.699-9.713 48.792-9.749 69.397m61.921-61.57c-20.532 58.439-45.112 109.787-17.185 171.294 4.114 11.438 7.068 23.414 10.885 35.466-11.067-13.233-22.563-26.515-31.306-41.497-19.092-45.257-19.63-100.277-9.354-152.41 2.243-5.341-.02-19.887 7.427-19.997 13.91 1.213 27.647.765 41.427 2.16zm-15.734 153.133c-12.016-50.122 3.413-97.217 23.847-148.446 1.153-3.04 3.08-8.13 4.541-8.455 8.015-1.698 16.332.084 24.59.699-24.093 47.625-47.643 98.832-52.978 156.202m73.858-91.654c3.473 47.26 19.04 87.717 47.28 123.066l-47.322 11.759c-3.839-49.83-5.196-92.86.042-134.825m-61.616 68.192c7.941-41.067 23.886-78.414 45.384-121.856 4.618-11.303 12.408-7.76 21.16-8.158-24.253 64.864-15.763 133.032-14.935 198.855-11.154 3.933-25.22 4.662-37.059 7.872-21.8.813-18.94-65.298-14.55-76.713m-12.325 81.019c-8.464 3.468-9.074-9.2-12.518-15.032Zm-93.53 7.229c-28.993 6.09-38.53-43.193-46.098-61.053 13.94 23.014 30.215 42.884 46.098 61.053m128.305-333.908c28.668-6.813-1.137-13.381 2.645-33.872-.199-21.353 6.536-31.182-2.819-52.044-4.722-12.51-2.259-23.54 6.76-30.263 12.198-12.544 20.795 32.402 37.43 5.777l3.72 16.313c3.611-2.792 7.407-7.11 11.288-8.884 2.463 8.955-5.307 16.652 5.871 22.366l10.171-22.042c3.71 4.297-6.905 27.9-9.176 33.777-7.743 14.05-25.477 20.524-34.853 33.15l1.92 4.269c4.895-1.155 14.923-4.551 18.756-2.411.617 3.279-.449 8.759-2.423 12.018-3.47 6.769-4.465 12.687-3.226 19.188 1.933 10.153-.89 17.165-8.395 20.839-14.248 7.962-26.708-10.616-38.284-17.985zm176.958 171.906c-.856 29.194.982 43.703 10.401 93.034l-28.077 10.213c-.25-41.571 5.264-73.986 17.676-103.247m10.074-6.801c2.008-16.453 8.61-29.067 19.644-37.56-.68 10.775-1.372 21.93-2.066 32.53-1.676 25.58-.243 49.272 4.383 72.432 1.456 7.339-2.83 16.983-5.554 24.776-.628 1.722-5.212 3.614-7.52 4.997-7.515-31.445-13.149-67.133-8.887-97.175m29.594-40.304c10.692-1.156 21.513.329 35.534 4.879l-35.337 92.056c-4.724-13.484-5.893-54.92-.197-96.935m62.517-18.112c.042-2.132.006-4.266.006-6.895 7.765.81 10.23 3.247 9.785 9.535-1.9 23.686-17.108 149.447-47.652 142.698 2.075-13.463 10.976-25.321 16.676-37.551 18.174-32.75 21.851-70.846 21.185-107.787m-148.05-191.59c3.381.324 7.096-3.338 10.878-5.298 4.835 6.502-.644 17.067 8.181 23.618 2.591-7.036.344-23.891 9.948-22.726 4.473.65 8.378 1.048 8.047 7.819.553 14.539 16.74-6.55 21.645-8.487 19.864-4.651 7.71 17.867.974 25.179l.998 2.112c4.466-1.721 9.133-3.013 13.343-5.28 6.176-3.092 10.76-9.525 18.154-9.771-5.668 18.037-36.313 20.715-49.43 32.279l.582 1.775c19.433-2.971 37.736-12.178 56.688-17.596 9.77-3.284 9.295-3.03 11.843 7.15 1.62 6.475-.802 14.35 5.291 19.409-1.375 1.882-2.423 4.877-4.177 5.468-12.355 4.165-24.87 7.779-37.305 11.673-26.317 8.24-53.32 11.242-80.59 12.163-7.054.239-11.22-2.873-11.859-10.06-.983-14.851-5.61-70.924 16.788-69.426m-51.702-490.074c5.35 9.45 10.295 19.2 14.842 28.327.505 1.015.64 2.804.3 3.988-16.222 49.466 17.96 80.463 64.163 81.742 11.06 2.74 32.93-34.862 31.86-17.144 1.35 50.873-2.214 103.284 11.257 152.814 1.586 7.274 11.145 7.348 14.888 1.128 2.276-5.026 3.091-10.488 4.597-15.731 6.525-22.623 6.04-45.925 5.57-68.462.242-22.726-1.079-46.381-6.052-68.16-3.365-33.382-26.495-17.103-32.944-41.705-2.646-9.363-6.936-17.683-12.649-24.636 35.656 39.34 80.898 81.826 135.86 84.999 4.592-.353 5.448 2.52 3.796 7.445-12.4 37.807-25.63 78.155-39.043 115.469-5.235 14.119 12.58 34.56 17.115 46.489 32.02 63.243 68.407 125.44 98.031 189.365-21.167 14.623-46.443 25.227-69.428 37.904-13.98 6.117-27.612 13.409-42.806 15.613.121-9.557 6.236-17.525 2.366-27.345 7.564-12.547 2.116-24.968 1.184-37.633-.945-14.227-2.989-28.388-5.056-41.571-5.369-17.023 2.745-17.931-.135-32.2-6.734-32.368-9.816-67.581-16.855-102.458-1.784.885-4.017.577-5.393 2.183-24.159 30.317-18.076 57.378-22.957 90.667-6.53-8.671-2.81-29.642-4.408-40.832.45-12.505-2.669-24.262-13.006-32.17-2.137-1.743-4.052-2.381-5.854-1.95-9.417 5.686-5.842 21.59-24.657 35.954-5.766-5.827-3.663-15.22-9.24-21.115l-2.006-3.281c-7.143 12.768-4.548 28.045-6.366 42.127-.595 8.129 2.063 14.395 8.366 19.72 12.126 9.782 13.706 37.112-1.183 45.695-3.21.02-5.546-5.275-9.517-4.013-4.463 1.689-3.948 7.42-6.676 11.026-4.667-9.496-8.893-5.371-15.662-10.116 9.868-17.491 22.884-16.421 11.087-39.166-4.07-9.208-5.035-18.214-2.786-26.045 5.938-20.671 7.612-43.042 5.428-72.537-1.507-15.2 3.036-37.075-13.877-45.415-.642 22.966 1.607 46.226-1.49 69.036-1.473-8.721-2.984-17.445-4.387-26.268-1.083-9.252-3.018-10.702-9.773-13.85-3.253 12.433.371 24.37 2.017 36.34-20.97-107.966-52.76-225.601-152.042-276.87 33.014-9.578 66.684-19.387 100.02-28.828.795-.226 3.085.737 3.501 1.47m46.344-14.965c5.851 14.532 11.743 29.046 17.516 43.615 1.323 3.34-.463 4.949-3.416 5.202-2.19.187-12.286 1.899-16.21 2.727-12.747 2.69-20.843-1.922-25.355-15.752-3.029-9.284-8.736-17.565-13.533-26.852 11.751-4.087 22.828-7.706 33.726-11.86 3.696-1.41 5.791-.758 7.272 2.92m-62.486-4.883c20.253-19 38.478-34.878 60.408-7.332-37.476 9.958-65.07 22.277-101.179 31.075 13.39-7.756 28.918-13.435 40.771-23.743m167.464 51.675c3.836 7.629 10.198 10.926 9.887 21.946 4.032 22.49 32.504 34.87 48.613 43.378-47.664-6.036-78.935-39.798-106.743-72.437 13.63 8.138 22.794.065 13.211-13.493-7.73-16.398-23.884-24.762-29.355-42.812-7.539-19.413-26.219-7.173-13.52 10.014-20.329-8.154-32.266-40.12-58.057-33.722 16.418-6.506 32.69-13.215 49.78-17.501 5.113 1.985 8.512 9.59 12.401 13.496 15.491 17.296 26.22 38.655 41.748 55.966 10.338 12.099 26.854 19.458 32.035 35.165m260.371-354.42 28.27-23.012c-4.415 19.553-8.653 22.865-28.27 23.012m32.746-7.094 13.52-21.931c3.638 19.174 2.551 20.882-13.52 21.93m13.705 14.383.893 3.513-22.205 5.92-.763-2.941zm5.072 23.382c9.131-1.09 12.013-13.562 21.974-11.021.461 12.525-8.586 20.37-24.412 20.443l9.11-5.002zm4.006-116.673-1.383-1.47q8.48-9.933 16.958-19.87c4.513 10.953-1.045 17.038-15.575 21.34m-78.985 221.63c.228-2.602 1.46-5.144 2.553-7.565 2.332-.931 4.616 2.07 3.994 4.505-.53 2.422-1.636 4.7-3.308 9.195-1.68-3.022-3.367-4.67-3.239-6.135m1.062-112.868c-6.158 10.836-11.279 23.236-16.953 34.82l22.938-3.315-2.358-7.046 10.507-5.785-.904 3.96h10.976c-11.488 29.672-22.622 58.47-32.602 88.7-2.115 6.545-7.829 12.283-13.895 13.952-11.358 2.922-19.304-9.77-29.113-14.055 18.413-34.91 33.918-69.537 44.735-109.512 1.682-6.052 3.621-9.558 8.578-10.061.545 2.609-.042 5.073-1.909 8.342m100.02-32.94 1.681 1.748c-1.313 4.428.456 11.839-4.544 13.965-6.956 1.216-13.956 2.138-21.39 2.112 6.7-8.51 18.195-8.486 24.253-17.825m11.254-72.851c-2.289 17.517-3.587 35.592-8.144 52.748l-2.923-3.506c-7.976 5.212-12.375 16.152-22.066 17.729 1.267-12.242-.209-25.048 7.881-35.243 8.955-11.37 17.144-23.155 25.567-34.768zm-60.21 124.879 10.691-4.376c-1.329 7.202-1.329 7.202-10.69 4.376m86.655-7.604c-9.669 79.605-81.175 165.115-145.26 220.283-2.42 2.327-6.535 4.08-11 4.693-48.133 2.724-82.056-47.844-116.393-85.873-13.494-16.706-21.172-37.375-28.984-59.662-7.277-16.697-10.848-31.141-4.067-49.388 2.09-8.536-4.663-18.217 3.035-25.1 2.292-1.991 8.505-6.807 14.947-6.807 13.66 2.579 11.562 12.962 37.72 14.705l-4.529 1.595.363 5.218c14.897 1.026 28.864-6.023 43.252-9.021 5.681-2.946 17.54.739 18.682-7.204l4.374 2.366-17.26 38.683 4.243 3.226c11.917-15.811 20.831-33.556 31.807-50.152 5.6-8.88 5.906-9.364 16.437-12.76-2.849 18.715-29.76 86.889-43.02 109.168l-.843-4.161-5.132-1.026c-1.15 20.754-5.412 22.034-17.614 37.353l2.367 4.256c9.843-2.102 13.691-14.11 21.185-19.348 3.191 1 5.762 4.54 8.622 6.296 4.956 4.28 11.758 7.386 11.12 15.035 1.146 5.048-31.952 6.718-37.534 8.937-3.695 1.252-10.37-.067-11.094 5.056 21.244 16.55 37.725 37.847 69.268 30.127 18.141-3.581 30.865-19.115 47.575-26.67-16.086-11.715-33.352-16.531-52.239-13.096 1.107-15.026 27.64-16.626 33.324-29.582 3.806-11.254 3.114-20.19-1.336-29.314l-4.437 4.5c44.366-99.512 6.53-52.612 82.635-67.268.655 10.56-7.729 13.203-16.964 14.46l7.85 17.274-7.748 4.852 4.314 1.13c-.978 13.872-11.7 24.514-16.936 36.976l3.937 4.246c10.39-8.047 14.283-21.486 20.05-33.082 2.733-8.045 8.22-7.492 14.305-10.261 1.443-.775 3.93-1.78 5.487-2.467-13.165-7.966 3.158-20.21-6.855-24.28 2.831-24.553 18.382-39.093 34.378-52.018l-1.064-4.744-20.378 1.255c2.64-22.868 10.583-11.69 27.284-18.577l.05-6.187-21.32-4.29c3.79-22.65 7.3-45 10.626-67.97 7.987 10.53 9.522 21.668 11.322 33.839 6.12 30.838 6.508 64.372 1.448 94.779m30.458 238.05c-30.625-15.72-67.683-47.911-104.642-52.21 1.223-7.78.02-16.501 3.093-23.473 24.956-31.555 42.497-58.875 56.436-87.973l83.961 195.086c-10.484-15.428-26.198-24.293-38.848-31.43m160.67 108.123c-18.296-20.368-38.203-36.877-66.124-39.346-9.49-.717-18.583-1.27-27.41-4.893-17.479-4.53-20.882 6.133-23.817-17.568 30.41 11.106 61.058 22.363 90.906 33.153 16.454 5.95 26.234 16.623 30.337 33.3Zm178.5 624.119c-35.417-39.84-22.298-20.975-38.834-67.5-3.954-10.538-12.1-10.26-16.834-19.591-15.138-22.394-24.399-49.142-25.59-77.015-1.23-15.084-.786-30.75-15.834-41.432-12.4-8.167-9.16-26.93-12.674-40.101-10.077-26.563-22.87-52.382-29.208-80.342l141.826 329.175q-1.432-1.606-2.853-3.194m15.91 61.649c-.509 34.66-15.882 58.1-33.507 83.679-6.913 13.175-16.34 23.548-29.113 31.496 47.413-66.62 50.352-154.84-5.735-214.586 13.686-.046 41.794 43.418 53.893 54.725 10.216 12.967 15.59 25.21 14.462 44.686m-244.95 215.918c-.619-2.62 1.571-3.202 4-3.887 32.827-9.207 67.06-19.532 100.837-28.023 10.847-2.115 14.29-12.155 16.913-21.613 3.257-9.41 6.616-19.116 2.398-30.866 30.591 1.13 70.271-.06 86.548-30.805 22.108-35.554 44.826-57.922 43.31-107.604l96.058 222.798Zm-92.223-506.555c2.971-33.476 18.678-62.341 28.736-93.231 11.236-32.357 19.4-66.197 35.751-96.223 6.337-33.268 12.391-66.598 18.437-99.93 1.62-8.933 3.51-17.473 11.84-22.4 6.347-3.753 8.731-2.925 9.933 4.8 2.233 14.338 4.134 28.735 6.225 43.098 3.314 17.26 6.64 34.504-2.775 50.368-2.716 15.009 2.523 31.27 2.493 46.585.665 16.812 1.787 33.716 1.223 50.536l-1.985-.044-5.169-69.512q-1.059-.151-2.119-.3c-8.986 36.655-19.48 72.633-32.695 107.838-11.839 32.708-29.697 61.959-38.598 95.882-2.755 7.839-3.55 8.225-10.432 3.93-5.62-3.51-10.968-7.551-16.715-10.791-4.456-2.512-4.6-5.544-4.15-10.606M803.14 868.418c-3.204-2.26-6.636-4.348-10.059-4.341-6.65.017-8.682-4.24-11.383-11.182-3.193-8.207-6.753-16.35-10.204-24.264 15.24 15.824 29.491 32.939 43.045 50.26a60.3 60.3 0 0 0-11.399-10.473m-15.862 73.918-1.18 1.3c-63.918-17.503-41.08-67.677-20.179-48.494 7.55 15.49 14.325 31.416 21.36 47.194m17.596-45.48c11.286 13.633 11.845 28.835.432 43.86-8.278-17.328-15.85-33.184-23.629-49.466 13.036-5.65 15.368-5.255 23.197 5.607m42.186-122.614c34.258 26.354 66.188 67.449 98.1 111.662 9.712 5.865 24.484 18.276 29.12 25.926-5.186-4.062-10.996-1.75-15.49 2.574 13.827 7.037 24.83 16.027 31.306 27.008-12.007.774-21.416-.971-30.106-10.122-10.682-11.25-22.254-21.857-33.445-32.116-21.185-17.562-38.02-39.917-55.898-60.662-16.499-17.336-24.75-36.654-23.587-64.27m112.421-72.161c.232-2.647.471-5.368.676-8.077 11.133 22.294 20.39 45.607 31.01 68.2 5.36 9.954 8.188 18.126 9.172 26.495 12.375 24.4 49.88 33.46 76.997 33.15 19.548.206 30.056-17.504 40.73-31.103 13.592-17.544 27.748-35.503 44.655-49.957-2.924 18.416-6.875 36.203-9.036 54.468-.178 2.874.536 6.896 2.533 9.402 14.126 17.727 20.171 35.38 18.48 53.97-5.39 38.013-19.986 73.682-28.14 111.237-6.817 35.765-12.307 71.538-16.095 107.698-9.159-3.906-15.874-12.082-26.68-13.126-14.497-27.661-29.432-55.818-44.078-83.763-7.15-15.29-13.532-37.972-24.808-50.427-8.789-11.85-17.36-21.54-26.204-29.622-32.668-28.31-43.879-64.88-61.12-101.491-4.338-9.66-8.823-19.65-13.305-29.44-1.507-3.292-1.222-4.175 1.91-5.901 29.055-11.694 19.946-35.314 23.303-61.713m123.83 463.994a10.6 10.6 0 0 1-.835-2.411 4875 4875 0 0 1 40.097 26.058c7.46 4.89 15.174 9.947 22.785 14.882 7.923 5.138 10.57 4.688 17.698-3.003 19.268-20.7 38.631-41.761 58.04-62.366 2.582 16.266 5.383 32.717 7.568 48.562 3.51 25.734-.895 50.942-2.225 76.47-1.37 22.833-1.535 44.05-1.818 66.396.048 30.026-4.173 62.594 6.82 91.144 21.133 70.07 41.46 140.074 61.73 210.39 3.91 13.165 4.17 12.713-6.79 20.805-47.422 36.059-95.64 71.74-133.39 118.42-11.47-43.511-12.562-88.563-16.968-132.923-5.87-66.925-13.18-150.28-15.698-213.476-8.23-104.306-2.493-169.604-37.014-258.948m226.562-213.28c-.124.892-.372 1.783-.69 2.686-.196-22.422 6.227-49.284-2.254-70.118-5.772-25.783-3.932-34.416-25.975-55.766-2.765 10.206-5.962 19.848-5.05 30.3-.434 31.694-.433 64.875 7.666 96.342-.039 4.36 7.098 16.822-1.059 15.977-3.215-.163-11.678.29-12.599-.766-.568-.62-.334-3.558-.063-6.961 1.615-18.988-11.027-44.06-2.446-60.597 13.497-34.245 8.497-78.52-17.196-110.203 14.465 7.98 29.984 14.808 42.635 25.506 31.07 30.776 22.621 93.21 17.031 133.6m-378.9 135.726c12.911-35.361 25.887-69.67 38.793-105.042 2.401-10.088 18.343-10.393 21.868-2.654 4.114 8.256 8.37 16.778 11.86 25.452 25.985 64.572 51.442 128.343 77.096 192.4 6.06 13.09-2.9 26.594-2.613 40.293-2.453 16.794-2.2 34.537-7.388 50.702-8.615-6.593-10.006-24.88-20.844-27.63-6.21 1.639-6.182 18.35-8.477 23.996-34.715-72.222-73.66-126.534-109.982-190.17-.949-1.69-1.1-5.192-.313-7.347m345.174-85.382c1.988-8.248 12.811-10.778 19.618-14.334 18.386-8.8 27.42-22.7 27.618-42.494.515-25.886.176-45.366 1.926-67.594 13.388 4.41 27.002 8.463 39.796 13.454 8.694 3.477 13.258 23.202 8.597 30.157-15.504 5.459-9.01 26.828-20.64 33.042-7.31 3.577-5.693 32.189-7.78 40.807-3.499 32.902-6.506 66.525-11.226 99.11-11.34-16.264-22.898-32.685-33.774-48.577-6.729-12.41-25.654-31.98-24.135-43.571m-79.152 97.085-5.634 4.169-27.68-26.062-13.95 19.152 26.773 23.197c-4.544 4.417-8.816 8.567-13.49 13.108l-20.466-19.11-16.167 19.009-11.438-10.054c18.671-25.496 10.928-19.61-6.022-42.383l-18.505 22.52-4.95-4.232c26.343-28.388 14.181-32.863 48.717-9.58 3.226 2.2 5.847 2.192 8.65-.668 4.268-4.354 9.022-8.218 12.934-12.901 3.237-3.874 6.343-3.541 9.57-1.064 10.205 7.835 20.254 15.9 31.658 24.899m39.98-285.936c-9.672-11.353-19.507-22.496-28.904-34.318-3.704-4.661-7.199-7.698-13.175-8.433-12.704-1.561-16.064-3.842-20.77-16.224 12.227 1.482 26.265 6.254 40.894 15.134 6.84 11.662 13.753 23.549 20.438 35.045 1.225 2.725 5.083 6.103 1.516 8.796m4.986 147.44c-8.17-4.282-25.908-5.482-27.354-15.47-2.663-16.304 6.386-39.997 21.928-46.293 4.946 2.34 2.15 11.899 3.167 16.75.623 15.039 2.045 29.963 2.26 45.013m-170.445 165.07c23.627 17.475 47.247 34.853 70.618 52.996 5.64 4.409 9.805 4.014 14.855-1.408 19.572-21.018 39.193-41.474 58.776-62.1 3.644 8.21 2.934 10.639-3.088 17.244a10494 10494 0 0 1-17.433 19.059c-12.35 13.48-25.123 27.42-37.54 41.286-3.57 3.987-5.576 4.28-9.755 1.427-22.593-15.427-45.696-30.64-65.316-43.486-10.368-6.257-11.744-19.211-16.799-29.2q2.84 2.092 5.682 4.182m77.773 31.758c3.326-.212 5.523-3.181 7.673-5.631 17.37-19.805 36.078-40.962 53.987-61.263.66 4.518 3.634 8.919 2.318 12.922-20.99 22.435-42.406 45.18-64.055 68.194-26.183-18.572-50.17-39.005-76.563-57.278-12.963-8.152-19.88-22.036-24.7-37.213 13.987 10.853 28.074 21.515 41.94 32.81 20.935 17.063 37.637 31.172 52.561 44.403 2.513 2.229 4.686 3.199 6.84 3.056m61.738-342.374c6.477-3.568 15.806-3.181 16.392 5.155-4.438 7.965-4.728 16.533-5.009 24.818.794 19.289-5.493 21.786-20.469 30.094-.026-.321-3.227-47.062-3.26-47.356.89-6.661 5.718-9.863 12.346-12.711m-22.752 29.299c-.613 4.487-2.246 8.977-3.778 13.499-.562-21.481-5.244-41.13-19.784-58.775-1.11-1.401-1.886-3.836-1.69-5.317 1.32-9.99 3.017-19.886 4.622-29.726 11.368 25.337 24.123 50.985 20.63 80.319m-164.082 86.696c3.776 4.922 8.222 9.11 10.336 15.232-2.249-.8-4.949-1.493-6.554-2.887-17.42-14.93-34.493-29.99-51.585-44.95l1.296-.994c-3.13-15.842-12.169-29.687-17.199-44.85 14.046 21.498 27.165 41.677 42.99 55.127 7.562 6.853 14.25 15.226 20.716 23.322m246.237 218.178c-33.734 8.003-29.737-84.793-34.557-107.794-.475-4.996-.9-9.886-.886-14.79-.38-11.57 13.98-20.003 20.433-7.048 17.673 27.763 33.321 57.679 54.412 83.174 4.816 5.09 8.274 11.972 2.98 17.31-11.314 12.343-25.302 24.969-42.382 29.148m156.1-136.277c-3.272-19.487-5.8-41.968-7.967-58.41-5.599-21.482-24.015-20.386-20.516-56.436.591-.605 2.407-1.461 2.977-1.413 15.215 2.74 24.962 13.778 34.686 24.894 5.977 6.649 7.936 15.02 5.824 24.882-4.716 19.829-8.543 44.255-15.005 66.483m134.016 461.76c-12.679-30.231 10.997-20.342 15.168 9.169-5.766-2.678-12.194-3.157-15.168-9.17m-60.346 245.32c12.587 11.414 1.812 24.679-.754 37.558-1.844 5.61-5.783 8.492-12.803 8.522 10.192-13.423 12.415-28.763 13.557-46.08m-10.587-362.316c9.431-1.106 7.242 34.662 8.685 40.782.052 1.034-1.424 3.244-2.926 4.379-9.616 6.538 3.39 14.438 6.876 20.696-1.876 9.405 5.798 7.316 9.4 11.9-12.539 10.975-32.456 11.73-49.368 9.39-10.22-2.425-28.535-.985-36.15-8.016 3.017-11.977 38.27 3.109 34.726-23.524-4.959-51.31-40.096-40.681 28.757-55.607m41.86 110.864c-4.796 7.804-13.957 3.96-21.53 4.703l-.3-2.211c7.414-1.965 14.74-8.472 21.83-2.492m-58.809 5.185c11.52-14.655 45.613-24.86 64.79-20.223-21.759 7.027-41.909 15.43-64.79 20.223m7.003 107.438c-9.78-29.846-29.634-52.251-45.877-78.397 5.227-1.521 11.108-7.63 16.197-4.383 27.138 32.87 41.356 64.239 44.746 98.723 2.445 16.586-4.914 34.046-.173 50.27 1.882-2.464 5.911-3.801 6.593-7.03 9.714-53.537-3.993-96.601-42.268-146.522 44.49-21.47 63.893 62.26 68.091 91.696 3.96 30.603-.244 62.79-7.538 96.14 4.716 3.168 9.31.896 10.007-4.568 14.743-61.068 10.765-124.54-23.288-176.747 9.792 15.669 20.035 30.88 27.952 47.54 4.256 9.56 5.952 12.34 14.355 18.673-.742-4.005.363-8.957-1.253-12.715-10.566-19.66-21.065-39.333-31.875-58.507 36.6 31.309 52.231 78.178 45.99 126.34-3.797 29.149-14.315 57.046-33.102 87.797-4.552 7.794-13.94.97-20.742 1.099-9.426-2.92-27.405.049-26.406-14.572 3.67-38.44 9.592-75.764-1.409-114.837m-19.345 49.429c-1.322 17.175 5.161 44.992-4.546 58.803-8.945 11.37-18.84 41.625-35.408 24.935 6.198-1.29 12.527-3.3 8.05-10.381-3.137-3.251 5.32-6.226 4.408-11.762-.752-19.29-1.883-38.284-2.477-57.595-2.449-21.792 4.557-44.021-2.125-65.8-2.188-10.142-4.569-20.473-7.404-30.326-1.56-7.054-5.66-14.201-1.978-21.227 13.164 9.803 30.151 18.208 24.652 38.112-2.155 10.626-3.856 21.52-5.5 32.057-1.54 6.943-2.19 13.92 1.953 20.302 7.292-14.035 10.53-29.537 13.75-44.573.382 14.64-7.205 28.213-3.544 42.927 8.831-5.866 11.17-15.788 13.117-25.13-.862 16.78-2.489 32.947-2.948 49.658m99.333 74.904c-5.859 9.393-15.308 6.855-25.323 8.528 19.131-31.025 31.68-63.78 36.538-100.08l1.96 21.556 3.045.238c4.738-26.715-6.129-53.29-11.406-79.057 21.725 31.218 18.826 70.46 10.858 105.729l2.17.83c29.192-72.23-11.322-116.28-51.504-170.468 39.318-12.47 58.136 37.352 67.547 67.173 14.04 51.273-4.495 103.516-33.885 145.55M951.125 711.1c-.356 2.88-.72 5.84-1.008 8.773l-26.632-6.644 21.097-49.076c10.513 14.729 8.497 31.093 6.542 46.947m137.95 744.393c-6.262 4.41-8.313 15.008-17.257 16.443l-1.35-1.494 18.021-23.152 19.246 21.622-1.488 1.808c-7.722-2.197-9.979-12.11-17.172-15.227m6.69 17.452-5.532 5.058-5.653-5.046 5.34-7.24Zm195.615-26.145c-8.195-5.683-8.773-5.396-15.006 2.17-3.315 4.023-7.756 6.98-11.689 10.419l-1.572-1.676 17.09-26.542 23.101 19.2-1.246 2.607c-3.57-2.042-7.294-3.83-10.678-6.178m-.89 9.075-2.97 4.709-7.07-4.344 3.808-4.87Zm169.763-148.693c3.72 3.06 21.11 6.068 12.882 12.108-12.359 6.336-24.867 12.365-36.962 18.197-2.69 1.51-11.81 5.207-13.9 3.808-1.648-2.873 1.336-13.187 1.856-17.361 4.153-20.938 5.577-43.03 7.947-64.08 2.583-12.883.631-36.731 8.216-46.783 7.275 13.947 6.247 33.248 8.143 49.084l.243.018c1.14 15.298-5.06 36.47 11.575 45.009m-369.73-829.275c7.231-10.406 15.617-13.621 27.124-11.016-8.142 6.733-16.959 8.75-27.124 11.016m6.072 17.668c14.634-4.847 27.09-16.37 42.207-19.468-23.332 24.472-54.996 38.947-89.283 32.596l4.796-4.775-.398-1.226-35.538 5.58-.29-1.907c11.681-2.102 23.336-4.4 35.056-6.224 14.93-1.161 28.791 3.26 43.45-4.576m-164.89-29.861c12.374-11.953 26.148-15.633 41.943-3.556-14.35 4.87-28.058 5.28-41.944 3.556M920.018 579c3.851 15.46 7.784 31.125 11.575 46.833.358 1.48.263 3.316-.23 4.464-9.002 20.963-18.509 42.716-27.98 64.453-5.065-32.604 2.981-88.887 16.635-115.75M711.24 805.778a50 50 0 0 1 5.074-4.303 120 120 0 0 0-5.074 4.303m-112.006 278.404c12.562-29.496 29.056-68.415 45.233-107.893 3.841-39.354-46.347-52.36-73.476-60.525l2.731-16.69c57.653 11.799 127.621 77.958 125.753 142.285-33.493 40.445-105.958 100.828-167.815 85.157-.36-6.275 1.843-9.201 8.484-11.677 12.712-6.06 55.067-19.566 59.09-30.657m742.38 548.93c-15.204-11.87-10.633 4.112-23.273 10.752l-1.834-2.062c4.763-8.361 7.963-16.62 13.865-24.424l18.786 16.695-.856 1.862c-2.24-.921-4.678-1.5-6.688-2.823m2.642 19.202-5.006 10.147-19.314-13.282c8.553-2.666 12.482 5.826 19.43 8.42l4.163-5.691zm-12.616-9.698 2.558-5.05 5.575 3.734-2.649 5.204Zm34.66-17.01c-42.559-18.94-40.494-87.63-50.625-128.082-4.156-15.771 13.385-36.614 1.767-50.074-17.092-20.488-36.063-46.74-28.959-75.426 1.047-12.39 9.296-20.38 15.78-29.361.795-1.101 5.107-1.06 6.116.11 3.52 4.079 7.69 8.434 9.132 13.495 22.417 58.71 52.333 113.558 66.714 175.398 4.138 20.967 5.255 42.948 10.624 63.819 1.46 4.322 6.732 9.383 9.018 12.778-2.46 15.624-4.785 29.294-6.656 43.035-.703 6.526 2.187 13.329 2.65 19.784-.4 8.254.65 29.988-12.72 23.676-8.425-7.302-29.549-17.175-26.35-30.13 2.235-9.467 5.464-18.672 8.471-27.917 1.838-5.652.993-8.224-4.963-11.104M1190.01 306.754l.747 1.599c-15.82 13.895-34.594 21.529-53.506 28.867l-.619-1.77zm-65.468 20.66 33.863-16.702c-.92 8.48-22.85 19.273-33.863 16.702m-85.153-19.725c7.94.579 15.456-3.392 22.77-6.056 28.993-13.21 59.89-8.364 90.887-9.261-3.439 7.448-4.239 8.453 2.733 12.766-24.72 6.389-47.872 17.74-74.4 20.846 12.673-10.871 27.722-12.225 41.14-17.696l-.202-1.951c-83.762-6.97-80.019 27.447-149.355 46.78l-.544-1.651c14.367-6.22 26.983-15.478 39.92-24.181l-.75-2.357c-12.44 1.466-23.525 8.088-36.079 10.067-9.63 2.056-18.246 9.569-28.03 15.084l3.882 3.965-31.855 19.86-.513-.457c9.124-9.585 20.247-17.95 28.327-28.326 12.342-20.78 49.477-29.74 70.685-41.366 3.43-1.523 7.173-5.296 11.224-.238 11.13-.882 23.5-7.583 34.681-10.534l.55 1.514-25.528 10.32zm-103.38 118.05c-14.299 5.335-28.916 10.32-43.03 16.112-6.54 3.238-10.328-1.905-15.436-4.298 1.891-3.477 8.006-5.3 4.294-11.492-.269-.45 4.886-4.627 7.52-7.072l2.116 2.328c-2.014 3.35-3.923 6.697-4.644 10.598 7.006 3.926 31.771-10.48 40.37-13.595l.805 1.567-8.098 6.656.79 2.07 25.328-8.035-1.055 5.393c9.853 2.507 20.7-2.38 31.061 5.242l-65.158 12.962q-.21-.921-.424-1.842c6.536-2.042 13.076-4.07 19.607-6.13 5.216-1.362 10.157-2.333 11.937-8.216-2.013-.813-4.348-2.774-5.983-2.247m-54.5 159.695c.582 2.257 1.547 6.595 2.28 10.193l5.497.203 1.863-7.536c2.051 2.429 2.868 5.16 2.741 8.824-.844 23.813-1.133 47.268-1.78 70.907-8.004-26.797-12.457-54.82-10.602-82.591m-49.29 176.127c-15.337 11.758-20.29 27.18-8.763 44.333 1.293 2.022 2.25 3.517 1.3 5.69l-29.46-39.751c15.92-15.638 25.386-18.368 37.035-10.375Zm48.998-562.091c76.514-8.47 74.145-36.892 161.52-7.501l-.32 1.615c-16.662 1.51-33.324 3.023-51.199 4.644l9.032 3.463-.148 1.175h-48.743l-.255 1.88 17.48 3.709-.183 1.8c-30.486-3.557-59.539-6.55-90.51-9.35 1.522-.68 2.42-1.42 3.326-1.435M842.761 378.33c-1.17 1.838-1.675 3.618-2.696 4.074-6.572 2.936-9.073 9.333-12.125 15.402-6.904 12.778-19.253 14.673-30.454 23.058 9.664 6.058 17.167.972 25.177.695-7.797 3.458-17.748 7.717-26.205 5.445-9.468-5.83-20.012-10.71-28.72-17.507 22.828-9.003 45.351-17.998 59.322-39.788 5.861-8.39 13.617-14.057 23.363-16.226.586 1.715 1.182 3.447 2.003 5.829l-19.073 18.502zm20.878-24.966h-12.976c8.757-4.605 18.767-4.675 29.038-5.841l-21.369 14.487-.92-1.315 6.56-5.55ZM778.592 522.07l.72.78-6.216 7.185.831 1.74c13.747-3.35 26.092-8.965 40.563-5.585 6.426.068 16.087-2.722 20.46 3.417 5.835 8.675-4.16 16.042-11.859 18.676-24.405 9.512-42.314-2.345-65.01-11.751 7.395-5.215 13.953-9.84 20.511-14.462m996.794 1311.169c-77.34-183.197-157.712-366.654-236.147-549.352-22.505-51.223-44.52-104.912-67.546-156.784-6.123-12.782-12.455-26-12.129-41.52.517-24.404-2.262-48.664-.114-73 2.802-31.255 4.496-57.563 3.652-84.37-1.794-14.638-3.28-42.628-19.057-47.564-28.233-11.554-56.328-22.847-85.22-33.214-6.397-2.278-9.854-5.438-12.327-11.27-30.893-72.597-68.86-160.271-100.13-233.11 15.021-13.932 23.841-35.75 33.624-50.877 8.371-15.75 16.756-37.161 17.287-59.404-6.81-15.302 9.093-32.99-18.012-37.195 12.111-62.218 22.423-97.291-2.228-165.757 9.305-1.703 1.38-12.225-.987-17.373-7.055-13.631-16.035-34.297-30.785-39.49-26.445-11.015-10.973-27.69-28.604-48.925l-4.259 2.432-.602 3.058c-20.658-22.808-46.07-31.183-72.844-41.434-30.418-17.47-78.12-35.468-118.745-32.733l.512 4.302 35.027 9.226h-20.892l-1.376 5.78 17.37 9.452c-7.773-1.797-15.825-2.616-24.012-1.736l-.744 4.099c-12.01-2.67-23.355-6.748-35.344-9.528-21.975-5.392-36.984-26.776-59.682-31.713 11.921 26.61 32.951 45.099 51.121 66.492-16.609 1.98-32.567 6.232-48.406 10.885-21.62 6.127-43.979 12.463-66.885 13.33-2.595.154-4.345 2.03-6.576 2.917l.3 5.753 87.56 8.81c-16.339 9.398-32.803 18.27-49.2 27.895-15.45 8.994-29.4 21.125-47.012 25.75-41.844 12.19-61.236 19.557-101.806.958l-2.91 4.415c9.967 21.2 29.262 32.07 44.27 48.399l-3.022 5.89 49.554 25.309c-31.784 30.445-28.853 37.765-78.716 54.327l-.5 4.382 42.331 24.91c-16.818 5.762-33.035 16.34-50.2 18.517-17.49-.17-34.01-.327-48.945-10.657-3.53-2.396-7.913-2.4-11.78-3.76l-2.384 4.41c20.606 34.205 46.503 56.028 91.084 71.27l-38.96 25.693c26.165.332 46.23 17.583 72.362 19.135l-2.98 8.096c21.59-6.654 43.59-.523 64.354-12.702 2.317 25.383-2.079 50.159 2.752 75.515 4.893 19.066 11.464 44.17 18.913 69.277 3.054 8.883.165 13.547-3.15 20.39-1.745 4.086-3.253 7.615-7.325 9.577-13.81 6.653-27.47 14.084-39.523 20.64-13.545 6.79-23.936-14.995-44.73 3.858-10.88 10.376-11.56 8.623-24.113 10.375-32.995 12.104-76.818 23.734-87.62 58.77-4.64 5.55-13.047 7.699-18.777 12.148-11.635 7.135-23.665 14.514-37.383 17.115-3.193.605-5.916 2.713-8.549 4.75-5.272 4.386-10.667 7.657-17.434 8.28-16.325 2.667-38.846 10.2-41.69 29.428-7.44 40.98-14.778 81.883-22.443 123.223-10.447 44.95-11.284 83.815-26.26 121.186-9.626 9.96-18.193 21.876-27.932 31.698-8.324 7.337-11.396 16.13-10.269 29.403 1.597 18.826-1.45 38.16-9.056 57.468-12.632 32.05-25.94 62.866-38.83 94.7-3.235 7.988-6.744 13.5-11.378 17.875-8.027 7.579-15.238 15.668-23.122 23.349-9.407 8.337-2.873 19.72-.602 29.5 8.23 25.584 8.903 29.606-6.013 52.77-5.178 11.388-19.852 22.112-12.966 35.5 2.225 3.218-1.467 6.538-3.342 9.409-46.947 60.994-51.826 140.543-3.16 198.97 20.071 23.455 50.295 25.079 77.623 33.458l-33.773 78.944Z"/></g></svg>