<svg xmlns="http://www.w3.org/2000/svg" width="2048" height="1920" viewBox="0 0 2048 1920"><defs><clipPath id="clip_1"><path d="M0 0h2048v1920H0Z"/></clipPath></defs><g clip-path="url(#clip_1)"><path fill="#231f20" d="M1733.696 1420.444c-11.013 5.374 13.214 25.429 15.827 30.097-18.36-3.449-24.387-18.255-26.92-30.097l-27.4-2.383c7.987 14.599 15.04 29.765 25.28 43.172-18.24-7.95-25.44-25.831-34.946-41.537-2.921-4.82-3.654-12.369-10.881-11.815-8.427.652-18.133-9.251-23.96-1.62-4.96 6.482 4.48 14.667 7.16 22.16 3.094 8.671 8.987 16.261 12.48 25.333-11.493-10.776-20.653-23.587-27.533-38.185-2.853-6.053-31.827-17.785-37.226-14.335-5.161 3.282-1.627 7.229-.267 10.761 7.586 19.654 17.987 37.645 31.693 54.196-8.053 3.726-10.773-2.077-13.947-5.47-11.986-12.812-23.813-27.299-27.426-44.086-3.68-17.077-13.613-10.651-22.413-12.867-16.214-4.086-15.601.97-12.134 15.415 5.32 22.133 17.867 39.543 32.987 61.232-17.08-5.733-24.267-16.011-29.28-26.426-6.947-14.46-18.907-27.119-17.96-45.055.027-.581.173-1.551-.227-1.717-11.293-4.931-27.88-.817-36.666-1.897-6.893-2.064-7.027 4.556-7.707 10.29-2.813 23.781 5.16 43.67 19.827 61.842-8.907-1.455-13.694-7.563-16.56-14.668-6.587-16.343-19.707-30.858-14.134-50.927.4-1.427-.72-4.765-1.187-4.779-13.2-.235-26.786-2.091-39.453.623-6.72 1.454-.986 11.219-.852 17.313.506 22.41 4.586 43.74 19.759 66.398-12.973-5.166-16.533-12.631-19.213-19.888-5.694-15.332-12.36-30.706-14.907-46.703-2.04-12.77-7.133-13.615-16.973-12.465-34.8 4.03-67.386 15.733-99.346 29.847-4.414 1.953-8.64 6.481-15.107.97 10.586-11.552 24.6-16.206 38.053-20.596 27.093-8.836 54.52-16.662 82.04-23.892 11.386-2.992 18.333-7.645 22.853-20.083 7.2-19.792 19.333-36.745 39.174-45.996-6.907 13.628-19.947 22.742-25.174 37.506-2.747 7.798-11.986 14.584-5.387 23.781 3.72 5.207 29.467-3.588 34.28-10.942 10.214-15.637 20.934-30.83 35.907-42.063a26.8 26.8 0 0 1 10.253-4.778c-10.493 15.498-23.16 28.85-32.36 44.944-2.093 3.642-6.293 8.31-2.693 11.219 2.2 1.786 6.2 1.315 9.454 1.121.573-.028 1.146-.277 1.692-.193 23.107 3.656 38.868-3.242 46.44-28.795 3.227-10.873 12.214-20.859 25.614-24.834-7.573 11.939-15.227 23.823-22.707 35.831-2.8 4.487-6.08 9.778-3.213 14.792 3.16 5.567 9.253 2.313 14.107 2.299 3.386-.014 7.12-1.69 10.106-.693 15.48 5.181 20.2-4.14 23.173-17.118 3.16-13.851 8.08-26.801 24.04-37.327-6.346 14.917-11.546 26.177-15.893 37.784-2.24 5.997-7.693 16.371 1.4 17.493 8.774 1.08 22.107 7.285 28.253-7.605 4.534-10.982 6.8-23.462 19.307-32.395-.426 11.939-6.773 19.335-9.68 27.812-3.973 11.592-2.493 16.633 13.653 20.165 32.627 7.327 16.627-39.598 26.533-42.853 5.228 8.227-5.706 42.618 2.747 44.945 6.427 1.191 23.467 10.138 21.014 2.105-2.067-6.745 7.186-38.005 16.146-40.636-2.506 7.894-14.28 29.597-7.44 42.229 3.8 7.021 63.693 3.144 64.294 9.265.866 8.712-45.374-.595-56.374 4.779m-551.665 59.21c54.174-39.792 104.573-76.814 156.093-114.653-5.293 42.285-100.973 98.143-156.093 114.653m102.199 126.771c1.68-5.249-10.692-30.761 5.454-43.268-5.373 14.723-3.053 42.091 5.107 40.664 7.146-1.26 19.186-4.155 21.106-9.044 3.04-7.715-6.786-25.596-1.973-34.75 1.814 8.822 2.147 22.451 8.987 31.177 1.093 1.385 3.013 1.662 4.533.817 37.68-21.246 66.586-16.856 65.786-16.676-37.733 8.518-67.133 24.862-68.44 25.72-14.04 9.058 10.987 35.706 14.24 36.426-17.906 2.576-23.133-34.764-27.72-32.049-19.44 11.537-20.572 9.681-3.96 28.947 2.907 3.366 5.147 6.094 10.8 11.398-10.4-3.296-19.026-8.975-22.2-17.645-4.906-13.379-11.492-15.318-21.893-8.795-8.52 5.333-.773 16.095 2.254 22.368 3.6 7.48 9.106 13.158 17.279 19.433-14.586-4.696-23.48-15.624-30.626-28.671-6.8-12.382-23.72-13.808-31.893-2.354-4.187 5.886-1.28 8.726 1.106 11.967 7.867 10.706 15.627 20.179 29.44 27.506-14.8-.914-25.44-10.623-32.253-21.676-9.96-14.154-17.773-13.614-34.253-10.18-3.08.637-6.227 1.068-9.653 3.574 4.159 8.463 9.799 14.058 16.093 20.471 6.4 6.523 15.107 11.136 23.4 17.215-17.947-1.496-30-13.988-42.413-25.636-2.907-2.729-4.6-6.912-7.641-9.405-8.2-6.689-16.32-.332-21.52 3.934-5.373 4.404-2.28 11.024.56 14.487 9.748 11.926 21.64 21.399 37.507 30.512-19.853-5.346-36.786-15.816-48.226-33.254-6.147-9.363-12.294-11.371-22.44-10.512-16.387 1.399-32.867.29-48.733-7.95 14.226 0 28.466.291 42.679-.098 10.68-.29 15.974-3.323 13.4-17.479-2.733-15.069-7.733-31.702 2.867-46.717 2.787 14.779.853 29.848 4.2 44.488 2.28 10.027 5.134 13.309 16.827 12.936 11.853-.388 22.44-1.233 19.76-7.895-8-19.903-4.507-34.792-1.347-43.684-1.813 12.923 5.84 36.884 9.027 40.803 2.866 3.532 6.413 4.709 14.466 4.28 34.987-1.87 9.214-35.291 21.88-51.413.08 4.571 1.173 15.125 1.28 18.976.134 4.695 1 10.802 1.947 14.75 1.187 4.986 1.293 9.876 9.6 8.961 7.613-1.136 19.48.499 20.373-13.13.76-11.745.014-23.601 9.693-35.664-.72 12.506-1.32 22.562-1.88 32.617-.493 8.795 3.147 9.349 10.88 7.729 4.627-.97 15.893-2.244 16.533-4.211m-274.32 3.546c27.36-28.698 63.08-41.232 97.814-55.706-27.426 28.199-54.733 56.578-97.813 55.706m-116.72-474.274c-18.52-25.042-12.452-50.111-11.652-75.693 1.719-54.971 35.866-92.187 69.066-129.43 10.214-11.441 21.64-21.69 32.226-32.77 5.08-5.318 13.28-5.36 18.44-.139 47.614 48.075 101.334 80.415 171.253 68.587 2.173-.374 8.027-1.648 10.134-1.08 1.467.402 2.533 1.814 2.44 6.122.04 3.42-.907 7.312-2.333 11.204-3.068 8.685-3.454 6.718-5.854 17.909-3.613 16.841 15.986 42.922 32.24 44.334 8.2.707 10.2-4.653 15.067-14.141a41 41 0 0 0 2.333-5.512c3.346-9.889 4.066-13.186 4.093-19.03.014-7.008 1.107-16.87-9.133-21.731-5.306-1.579-6.12-4.571-6.12-11.15.853-6.994-.92-18.642 11.707-20.679 10.466-1.689 19.734-1.648 26.294-10.678 1.28-1.773 4.053-4.252 5.373-3.823 11.773 3.754 23.187 10.637 35.08 11.607 16.173 1.329 21.098 10.887 23.765 25.305 12.586 68.033 25.127 129.846 37.794 197.864 2.439 13.158-4.933 23.504-13.894 32.383-33.24 32.991-70.066 61.508-106.212 90.774-44.214 35.803-89.6 70.013-134.426 104.999-9.574 7.479-19.734 13.725-30.694 18.822-8.534 3.961-11.48.125-12.534-7.894-1.533-11.593 2.574-22.133 5.734-32.797 2.346-7.895 5.466-15.527 7.96-23.366 12.84-40.471 9.173-45.069-23.253-72.395-54.4-45.845-111.36-88.725-154.893-147.602m6 395.909c-5.093 13.241-5.467 25.678-.134 39.293 8.747 22.368-1.4 43.85-5.573 65.485-.907 4.625-5.64 7.312-8.36 1.412-30.013-65.165-84.693-109.348-128.386-162.796-21.667-26.496-25.934-56.509-21.214-89.404 1.534-10.678 5.707-7.866 12.627-5.124 33.334 13.255 66.387 27.977 102.893 29.279 5.094.194 10.2.236 15.293.152 5.747-.11 8.774-1.994 5.454-8.656-10.16-20.401-21.64-50.941-32.294-76.051 12.667 20.899 24.96 42.146 41.694 60.041.773.858 2.64 3.683 3.013 5.997 5 31.149 24.48 54.099 27.48 86.107 1.867 19.612-5.8 36.855-12.493 54.265m-171.24-196.604c2.16-7.936 3.107-16.219 5.307-24.141 5.746-20.637 4.947-38.407-12.107-54.709-10.986-10.499-18.2-25.401-26.507-38.753-4.28-6.897-2.6-14.044.454-21.717 17.68-44.1 39.8-83.67 80.92-110.013 42.187-27.05 77.56-62.936 111.146-106.259 0 9.39-7.747 14.598-9.533 19.93-10.121 30.443-9.854 62.548-14.587 93.794-4.147 27.189-19.453 49.958-25.147 76.191-11.266 52.049-28.48 98.918-47.426 147.685-2.76 7.133-3.333 14.211-1.294 25.693 7.414-12.064 8.48-19.211 10.974-27.493 1.48-4.876 1.867-13.491 7.106-12.382 4.2.9 6.44-.361 10.667 1.98 4.534 21.897 15.32 49.446 22.333 65.816 2.654 6.192 9.6 11.995 5.24 19.072-5.04 5.07-17.706.817-23.746-.637-32.6-7.77-59.8-15.193-87.44-36.648-6.867-5.318-8.453-9.667-6.36-17.409m-62.933-143.78c-36.893-44.93-68.693-79.667-109.92-119.999-19.813-19.362-36.186-41.523-56.4-67.049 132.587 40.512 245.96 45.485 364.32-35.886-12.174 20.567-24.24 40.304-40.08 57.063-20.334 21.482-43.44 39.625-67.68 56.038-37.213 25.194-61.24 60.138-74.307 103.864-2.493 8.337-4.693 19.639-15.933 5.969m-194.92-339.138c-20.6-33.974-15.733-72.533-18.013-110.816-3.107-52.451 2.813-101.051 18.494-150.414 2.493-7.894-6.28-17.035 4.093-19.584 10.093-2.479 7.427 9.515 12.253 15.346 25.573 30.928 51.987 40.776 88.173 28.767 13.653-4.515 18.8-4.03 18.44 12.909-.933 3.892-1.12 9.612-3.52 14.044-8.773 16.191-8.866 30.609.52 47.631 7.773 14.1-6.906 26.62-15.24 31.274-37.533 20.983-46.933 57.41-62.253 94.75-5.6 13.628-12.907 26.149-21.52 37.783-8.786 11.8-13.907 10.693-21.426-1.69m9.733 147.256c-14.173-10.304-19.96-24.459-26.227-38.226-1.187-2.591-2.533-5.526-.12-8.2 1.734-1.925 3.68-2.036 6.027-.692 7.6 4.335 21.533 34.902 20.32 47.118m67.306-439.552c-4.533 23.158-9.48 27.383-24.786 18.989-3.44-1.884-5.8-5.512-5.854-9.543-.026-2.008.64-3.31 3.507-2.202 10.347 3.989 17.933-.956 27.133-7.244m277.586-3.476c10.787 11.371 1.707 19.279-5.24 26.648-4.04 4.293-8.106 1.758-10.72-3.435-3.493-6.911-6.293-14.238-5.84-21.884.627-10.484.52-20.055-8.693-26.952-2.507-1.884-3.08-5.152-2.04-8.005.84-2.314 3.173-3.117 6.4-2.327 5.894 3.074 12.48 6.468 19.026 9.944 8.987 4.765 5.027 11.081 2.32 17.728-1.64 4.045 2.44 5.818 4.787 8.283m-374.972 45.013c-4.96-28.088-4.494-56.453-3.334-84.749.28-6.815 6.347-12.701 13.347-10.333 16.974 5.748 23.853-5.706 30.614-17.59 19.36-33.974 50.973-42.105 85.106-40.733 27.533 1.108 43.826 23.033 58.453 44.168 6.054 8.754 8.453 13.13 18.827 5.042 11.733-9.155 27.226-9.031 38.44-.097 11.173 8.933 14.719 3.158 21.4-4.516 24.906-28.683 55.346-42.173 92.706-32.243 26.067 6.925 43.546 25.222 53.453 50.291 4.04 10.221 9.254 14.916 18.667 13.241 17.853-3.186 26.813 5.013 36.413 20.539 21.174 34.21 40.053 69.723 59.947 104.667 8.386 14.723 11.573 30.65 10.013 47.631-.533 5.831-.214 12.216-10.774 13.559 10.454-35.387-11.546-59.376-26.533-85.857-10.893-19.266-21.386-38.879-33.653-57.188-17.52-26.136-46.826-25.125-59.133 4.03-17.987 42.631-62.933 49.376-98.413 44.986-13.427-1.662-22.347-12.355-32.747-27.008 15.854 7.41 26.56 15.872 39.88 19.169 42.387 10.512 91.893-31.26 87.333-74.57-4.867-46.302-58.266-76.468-100.08-55.928-23.266 11.441-40.76 28.033-39.933 57.88.093 3.394.173 7.784-4.426 8.089-2.88.194-4.534-2.701-6.227-5.263-18.68-28.323-37.534-29.404-59.053-3.49-3.613 4.362-6.68 11.953-12.88 9.03-6.187-2.922-.253-9.432.16-14.197 2.599-30.082-16.24-56.771-48.56-67.907-32.693-11.274-63.226.36-80.587 30.72-14.56 25.457-9.587 63.323 8.907 81.55 3.853 3.795 7.454 7.826 10.734 12.147 5.84 7.742 14.772 10.651 24.453 11.897 7.226.928 14.706.041 23.013 4.959-10.826 11.024-22.52 7.521-33.133 4.376-12.174-3.601-23.187-11.107-30.307-21.828-9.56-14.404-23.413-25.526-29.787-42.285-1.106-2.895-2.866-5.374-6.333-4.127-3.56 1.274-5.307 4.197-5.387 8.116-.24 12.992-.306 25.997-.773 38.975-.186 5.235-1 10.485-1.986 15.637-.254 1.33-2.107 3.033-3.441 3.282-2.613.499-3.933-1.509-4.386-4.072m107.413-179.472c25.253-24.223 56.306-33.476 89.32-39.597 50.159-9.322 94.053 8.587 137.173 30.83 42.013 21.676 79.533 49.916 111.759 85.484 2.52 2.784 7.387 5.153 4.68 10.042-1.933 3.49-6.133 1.592-9.373 1.994-14.214 1.718-23.2-2.161-29.84-17.811-13-30.623-39.573-45.443-84.093-47.257-21.16.664-46.64 11.592-66.666 34.376-6.387 7.257-10.92 9.404-19.8 3.975-10.574-6.455-22.961-8.02-34.307-1.579-10 5.693-14.04.845-20.573-6.815-20.427-24.001-42.626-46.093-77.173-43.932-2.48.165-4.64-.208-5.347-2.868-.96-3.67 2.24-4.93 4.24-6.842m373.572 452.946c-.853-.429-.6-4.419-.026-6.51 9.56-35.29 13.293-71.606 17.519-107.797 2.534-21.731 15.64-23.794 29.587-33.129 8.667-5.804 12.84 2.327 16.334 9.501 2.84 5.831 1.586 11.718 1.373 22.327-11.334 35.705-5.627 63.461-11.334 98.641-.826 5.041-3.48 9.903-5.866 14.515-5.693 10.983-4.92 21.205-17.934 21.441-13.84.235-18.32-13.255-29.653-18.989m-11.666 17.354c1.253-3.795 4.68-6.122 7.893-2.964 7.134 7.036 15.227 10.776 24.64 14.044 7.307 2.521.066 9.017-3.133 11.801-14.653 12.7-29.774 24.806-44.72 37.132-1.093-.733-2.174-1.468-3.267-2.188 6.174-19.294 12.24-38.601 18.587-57.825M566.299 520.98c-4.026-1.995-9.466-2.203-9.693-8.102-.187-4.516 3.573-6.87 7.16-8.892 2.427-1.372 4.906-2.84 6.947-4.751 4.213-3.961 1.613-17.646 8.933-13.518 10.24 5.776 23.853 4.529 31.253 15.374 4.734 6.939 9.613 13.13 2.026 23.213-4.866 6.468-3.12 17.936-5.906 26.62-2.106 6.538-3.2 17.77-12.84 15.152-8.893-2.41-9.08-13.421-11.026-18.476 5.813-19.944-7.494-21.966-16.854-26.62m158.68 234.125c-15.84-12.05-28.653-27.59-38.84-44.252-6.333-10.415-19.387-23.158-3.72-39.418 6.12-6.357.773-19.224-5.546-27.534-3.801-5.014-8.521-8.587-14.467-3.462-5.307 4.557-5.134 9.958-1.027 15.581 5.4 7.396 17.933 13.282 9.04 24.792-7.36 9.515-17.027 1.052-25.16-1.357-10.52-3.075-20.334.706-29.933 2.548 1.333-7.229 2.96-16.856 8.133-21.011 6.694-5.346 9.174-13.698 5.427-22.493-1.56-3.628-3.64-8.49-8.694-4.473-9.066 7.147-8.373 19.902-14.68 29.002-2.546 3.684 2.734 13.892 7.32 19.363-12.746 1.482-21.28-5.831-18.72-19.889.814-4.487 3.4-8.67 5.374-12.895 6.466-13.781 12.427-27.7 12.906-43.434.947-31.496 19.654-48.67 39.187-69.168 16.88-17.729 35.294-9.543 41.893 14.113 18.88 67.77 51.494 92.437 117.226 74.404 22.827-6.26 38.614-23.726 50.694-43.933 16.44-27.424 25.466-27.286 42.48-.347 16.986 26.953 37 47.59 28.493 76.565-2.253 41.731 8.507 76.314-11.787 106.688-27.253 40.817-61.133 75.858-95.426 110.096-15.987 15.969-34.813 10.485-43.987-10.955-6.413-15.056-10.987-30.984-15.946-46.662-7.8-24.626-19.76-46.274-40.24-61.869m-140.546 10.166c-.094-11.08 7.093-14.585 13.039-18.144 18.44-11.053 71.453-2.354 86.414 13.781 2.973 3.213 8.346 6.8 4.08 11.662-4.321 4.931-8.107-.568-11.347-3.297-27.4-23.115-53.774-25.401-84.053-7.216-2.2 1.316-4.787 1.912-8.133 3.214m-26.52 8.878c1.679-10.817 10.333-16.08 17.146-22.368 2.867-.277 4.72.36 5.24 3.296.92 5.111-12.52 24.155-17.267 24.391-3.626.179-5.6-2.272-5.12-5.319m168.667 103.96c9.333 33.545-7.36 59.902-40.493 60.872-31.987.928-64.254 4.64-95.387-11.219-13.16-6.717-31.133-4.861-37.946-21.911-8.6-21.496-18.801-42.769-10.174-67.894 3.467-10.097 8.814-12.95 10.054-24.071.453-3.962 4.666-1.939 7.08-.915 11.48 4.889 27.226 8.684 35.586 17.174 29.947 30.416 63.147 27.549 92.52-8.074-23.133-3.767-44.333-8.117-66-6.69-22.52 1.496-41.72-10.097-62.36-15.928-1.76-.498-3.306-2.811-4.293-4.667-.28-.527 2.066-3.629 2.707-3.463 16.799 4.432 27.947-10.831 43.226-13.019 33.933-4.861 65.427-.512 94.466 19.03 2.827 1.898 5.694 3.823 8.774 5.18 3.347 1.469 7.306 5.526 10.466.692 2.267-3.462-1.52-6.218-3.133-9.238-4.36-8.185-13.52-14.279-9.84-26.19 5.28 14.903 31.507 19.363 18.627 43.476-2.387 4.446 3.52 4.861 5.414 7.299 10.546 13.518 14.613 27.908 4.613 43.698-3.107 4.916-5.894 8.725-3.907 15.858m477.665 107.353c8.614.084 17.187 4.03 17.054 15.651-.08 6.413-1.414 19.142-6.813 26.621-2.601 3.586-7.081 4.861-11.107 3.227-11.614-4.71-17.72-16.718-17.8-27.008-.08-8.338 5.52-18.601 18.666-18.491m-262.4-543.235c11.214 22.535 21.334 41.897 30.6 61.689 14.614 31.233 28.654 62.77 42.947 94.154 11.774 25.873 16.814 52.881 8.84 80.72-5.453 19.016-3.68 29.626 15.534 41.675 43.573 27.299 84.079 59.888 125.946 90.138 9.307 6.717 15.453 8.947 25.253 14.833 9.347 5.61 13.667-.083 12.187-8.78-11.666-68.698 24.546-115.304 66.2-161.924 21.573-24.127 46.266-45.498 56.013-78.711 2.04-6.981 7.04-5.803 12.32-2.548 6.933 4.293 9.84 8.711 5.213 17.105-19.133 34.736-35.32 65.179-58.36 97.644-19.2 27.049-38.053 50.817-56.706 78.268-15.24 22.451-19.093 56.578-15.92 88.171 1 9.917 3.04 19.709 4.72 29.542 5.266 30.873 5.2 28.185-21.84 29.349-55.32 2.396-104.546-15.18-146.493-57.105-12.707-12.687-24.133-26.841-37.454-38.725-11.946-10.651-12.546-21.925-8.453-36.316 5.027-17.673 13.48-35.594 1.534-54.292-1.547-2.424.347-8.214 2.026-11.718 21.827-45.373 14.92-88.683-6.706-131.965-19.56-39.141-37.52-79.141-55.84-118.933-2.493-5.415-7.44-10.9-1.56-22.271m314.292-254.678c36.134 11.648 72.92 23.212 104.627 44.583 19.079 12.854 37.253 28.38 56.68 40.651 33.279 21.025 56.76 51.981 82.946 80.165 9.786 10.541 17.4 24.585 13.28 41.275-1.613 6.564-1.533 17.285-10.373 14.763-6.893-1.966-18.053-7.174-17.347-16.481.934-12.327-2.96-18.809-11.933-25.969-7.24-5.762-7.227-19.53-12.413-25.277-13.961-15.471-25.574-36.966-51.027-35.581-3.88.207-7.827-.873-13.213-1.538 1.333-6.828 13.627-15.637-4.493-15.927-5.707-.084-14.934-5.305-9.134-16.247 3.52-6.648-1.32-7.174-5.453-6.441-8.213 1.455-15.4 6.039-24.04-2.506-3.027-3.005-13.88 4.861-19.947 11.343-.213-2.036-.76-3.421-.347-3.906 6.347-7.382 18.334-14.999 17.92-21.842-.546-9.349-17.613-7.243-22.866-14.404-16.987-23.13-45.4-15.208-65.013-27.922-19.907-12.908-34.587.693-52.227 5.457 8.267-18.324 28.054-29.459 44.373-24.196m257.413 389.344c8.626-1.232 10.334-11.509 17.387-14.806 3.72 3.463-2.4 7.577 0 10.914 10.72 14.862 7.253 26.717-9.694 33.296-7.933 3.09-16.013 6.039-23.426 10.194-44.04 24.667-52.094 72.811-36.493 121.328 8.039 25.028 2.16 43.089-22.707 50.471-16.893 5-26.08 12.438-21.56 31.967.827 3.573-.8 8.185-2.36 11.8-1.8 4.169-4.227 9.792-9.227 9.002-3.386-.539-4.32-6.107-6.106-9.75-22.947-46.523-19.933-96.079-15.694-145.58 2.107-24.626 5.787-49.086 10.96-73.351 3.04-14.321 7.854-21.025 22.8-15 5.787 2.327 13.027.125 18.92 4.349-8.68-6.385-15.093-14.404-26.893-17.728-17.187-4.834-3.56-18.574-1.534-35.055 6.694 24.362 16.454 17.507 26.894 10.886 13.52-8.573 22.52-22.451 35.013-33.642 3.387 9.127-1.426 14.224-3.36 20.138-1.866 5.72-9.066 9.695-4.827 19.348 14.32-8.794 24.44-25.664 43.707-22.229-1.306 5-3.133 12.036-4.946 19.044 7.48 3.587 8.786-8.255 15.186-4.931 3.814 6.76-5.947 11.441-2.04 19.335m20.667-179.776c3.679 4.141 5.813 15.623 14.146 3.892 2.147-3.02 4.96.193 6.813 2.396 29.28 34.902 38.8 89.653 21.68 136.466-4.732-10.761-7.293-20.359-3.12-31.522 1.547-4.1 4.107-11.634-2.36-13.934-5.733-2.036-6.053 5.374-8.533 8.878-3.587 5.069-4.986 11.925-13.947 16.523 6.4-25.747 19.16-48.06 6.04-74.071-5.133 19.142-4.573 38.462-13.812 55.263.506-18.005 3.613-35.942.693-53.684-.947-5.72 2.426-20.388-12.654-10.665-4.413 2.84-5.626-2.603-4.746-5.955 3.573-13.739 2.653-27.369-1.414-40.747 7.68-2.009 8.347 3.933 11.214 7.16m-9.294 228.379c-6.613 7.23-12.947 14.793-19.987 21.538-16.173 15.484-23.187 34.501-22.76 57.132.2 10.388-.44 28.144-7.907 27.603-10.76-.789-8.92-17.049-9.4-27.727-.133-2.937-.013-5.886-.013-8.823-1.373-50.568 19.787-59.169 53.2-80.415 2.946-1.87 8.213-3.823 10.907.332 2.773 4.281-1.373 7.438-4.04 10.36m-171.546-70.68c-2.226 5.485-5.64 9.502-11.44 6.773-6.12-2.867-4.987-8.241-2.053-13.352 8.013-13.947 16-27.908 33.213-41.025-7.906 19.045-13.906 33.283-19.72 47.604m15.907 17.894c-5.573-1.578-8.107-6.509-6.36-12.576 3.867-13.545 9.28-26.384 18.28-41.37 4.293 17.52-1.52 31.149-1.974 45.124-.186 5.859-3.546 10.623-9.946 8.822m14.28 305.856c-6.853 3.698-11.96 8.31-14.107 16.44-12.173 46.302-33.533 57.936-78.293 42.064-17.133-6.081-30.346-15.139-47.373-21.551-6.814-2.563-9.96-7.022-10.96-14.072-4.08-28.67-6.68-57.493-3.747-86.384 3.08-30.291 18.374-51.427 35.507-73.905 33.546-43.975 62.733-90.678 87.04-140.719 1.013-2.064 1.413-4.612 2.826-6.274 3.44-4.031 4.187-12.687 11.96-9.903 6.654 2.368 6.68 9.39 5.56 15.124-4.667 23.837-4.56 48.171-7.373 72.16-4.707 40.069-.173 79.528 6.053 118.78 1.507 15.207 11.534 53.227 18.774 65.083 6.373 10.456 4 17.839-5.867 23.157m100.026 396.907c-22.76 20.498-73.946 43.42-99.906 60.512 16.613-42.839 58.506-73.697 99.906-60.512m-81.426-39.085c3.146-2.396 6.44-4.598 9.627-6.953 10.173-7.535 19.92-15.817 30.586-22.493 29.546-18.532 43.613-34.598 24.613-75.068-4.04-8.56-5.48-23.851-4.28-35.208 3.213 16.815 5.227 19.169 10.094 33.684 2.426 7.23 10.666 31.163 20.586 26.204 8.04-4.016 19.187-6.301 14.374-22.52-5.481-18.531-6.654-37.645-3.507-56.98 1.787 15.845 5.32 31.274 8.986 46.689.827 3.435 1.534 12.798 7.494 11.87 11.933-1.869 18.266-13.061 24.28-20.401 4.493-5.471 3.159-9.335.946-14.196-6.373-14.073-8.453-28.989-7.12-44.806 3.774 12.284 7.88 24.473 11.2 36.897 2.24 8.407 6.427 8.282 12.587 4.875 20.947-11.62 21.64-14.003 13.147-37.853-3.28-9.238-8.84-18.033-6.801-30.152 7.667 9.128 8.534 20.623 14.027 29.473 3.2 5.167 4.76 15.554 14.44 9.986 7.094-4.071 19.267-6.093 11.693-20.041-.92-1.703-13.853-24.764-14.173-32.479 7.6 16.191 23.907 36.537 37.587 28.878 3.426-1.773 5.053-2.839 8.013-5.138 6.454-5.014-2.667-10.526-6.173-19.253-4.293-10.692-5.667-22.007-4.347-22.7 1.04-.554 5.334 12.549 11.32 21.967 5.12 8.06 9.76 13.6 15.454 10.429 3.56-1.98 7.386-3.227 10.359-5.097 4.44-2.798-3.093-7.853-4.906-15.914-1.733-7.687-2.173-15.471-.694-16.288.707-.388 1.16 8.366 4.44 15.623 3.227 7.161 7.427 12.382 10.04 12.535 3.214.194 8.587-4.405 13.854-8.213 14.96-10.845 33.52-10.125 38.56-10.679-11.4 2.964-31.694 13.615-35 15.623-19.8 12.008-5.987 23.947 1.373 28.961 4.427 3.02 17.227 4.529 17.227 4.529-1.894 4.432-11.6 2.784-15.747.817-4.853-2.313-10.347-7.922-13.067-10.526-12.546-11.981-17.08-9.294-26.893 2.465a79315 79315 0 0 0 46.946 29.751c-20.706-.139-34.266-8.892-47.066-19.723-8.093-6.842-26.24-2.341-29.44 7.437-1.786 5.444 2.88 6.33 6.227 8.601 8.267 5.638 18.466 8.962 23.559 20.083-12.893-1.371-22.813-7.395-31.466-16.121-14.546-14.696-20.466 3.864-26.813 9.681-9.4 8.629 3.973 10.43 8.147 13.518 12.666 9.39 26.08 17.673 39.213 26.399-20.267.415-37.24-7.438-50.107-21.621-9.293-10.235-14.173-8.712-22.867.25-9.292 9.556-4.106 13.171 2.614 20.29 13.64 14.474 31.053 23.158 45.813 36.233-22.84-.665-40.24-13.228-55.813-28.989-6.134-6.233-11.067-16.094-19.453-4.169-6.4 9.127-24.254 14.488-8.294 32.147 14.467 15.997 28.92 31.135 51.987 41.26-13.654 4.986-22.133 1.302-29.786-4.225-13.054-9.446-25.974-19.404-33.227-34.75-4.947-10.499-9.787-9.737-15.787-1.246-3.027 4.279-5.866 8.905-9.667 12.34-6.56 5.941-4.866 10.111.56 15.831 17.054 18.005 33.36 36.814 55.973 49.653-8.733 7.05-14.226 1.773-19.28-1.648-17.106-11.621-34.186-23.49-47.172-40.221-7.307-9.419-12.68-9.89-22-1.33-21.96 20.166-44.494 40.027-73 50.83-1.267-6.343 3.346-6.772 6-8.808M430.273 876.475c-11.92-5.402-17.187-13.449-14.786-29.128 4.573-29.958 4.533-60.345 1.386-90.677-1.053-10.194-1.2-20.664 4.187-30.041 3.067-5.333 4.813-13.504 12.48-11.206 7.253 2.175 8.853 9.433 7.613 17.106.466 44.39-4.867 88.863 2.453 133.17 1.68 10.194-4.48 14.807-13.333 10.776m1454.796 540.964c-2.4-1.511-4.853-2.992-7.453-4.1-30.587-12.978-56.573-31.773-75.44-60.761-10.587-16.289-25.573-28.117-42.48-37.064-36.307-19.238-74.813-29.542-115.52-32.16-21.8-1.399-43.48-4.709-69.772-7.687 11.946-5.776 20.292-8.324 26.959-13.282 63.987-47.659 114.92-105.747 141.693-184.805 9.04-26.675 14.854-58.101 47.72-68.78 6.533-2.119 1.587-6.856-2.8-9.639-30.546-19.35-61.8-38.283-97.32-44.321-50.613-8.615-102.213-16.219-144.306 27.049-6.067 6.233-12.56 12.064-18.2 18.67-5.88 6.884-10.6 7.992-18.8 2.452-12.253-8.255-25.627-15.056-39.133-20.928-32.88-14.307-61.561-24.546-96.974-30.945-4.56-.817-20.107-.042-11.267-12.064 9.294-12.645 15.107-25.636 18.973-40.636 2.68-10.375 11.856-11.337 19.506-16.464 5.276-3.536 7.455 1.246 12.536 5.179 7.426 5.748 18.16 12.77 30.666 12.867-19.631-12.205-19.661-13.092-29.075-25.086-2.413-3.061-10.863-13.526-10.213-14.082 1.116-.953 6.912 6.581 9.192 9.725 6.866 9.501 12.425 12.377 28.403 12.49-14.827-9.002-17.378-13.027-22.964-20.977-2.014-2.868-6.747-5.554-3.881-8.408 12.04-12.021 15.217-20.144 12.123-35.906-.88-4.501 4.04-9.681 8.533-9.362 7.147.512 3.387 6.149 3.147 10.582-.84 15.096 1.935 11.731 14.042 6.15 6.08-2.812 10.586-13.366 16.879-9.169 7.734 5.152.64 15.152 1.294 23.005.133 1.662-1.414 3.629-1 5.111 2.747 9.875 9.786 22.935 17.64 19.418 13.16-5.9 16.987-6.205 15.907 9.321-.054.831 1.106 2.188 2 2.576 9.212 4.003 18.173.291 26.226-3.033 7.387-3.047 17.107-6.842 15.813-18.269-3.506-30.803 7.6-58.032 18.694-85.234 10.533-25.872 16.706-52.119 15.746-80.775-1.84-54.944 7.206-109.17 15.206-163.864 6.067-41.495 1.92-83.296-21.746-119.043-19.894-30.069-48.785-65.965-70.918-94.4-14.387-18.476-32.36-32.077-53.106-42.935-39.254-20.527-73.243-54.09-116.216-69.076-31.226-10.873-60.386-28.961-93.893-33.407-65.52-8.684-127.352 16.609-177.432 64.808-33.587 32.312-60.453 70.359-86.733 108.863-16.053 23.517-30.92 47.88-46.893 71.454-3.56 5.248-9.16 16.135-16.134 3.892-22.466-39.474-54.56-66.108-94.56-85.235-37.893-18.13-76.72-26.828-117.12-17.867-36.266 8.033-68.693 29.362-106.146 35.443-32.213 5.221-54.733 29.542-78.493 50.235-41.026 35.706-81.613 73.364-84.173 134.666-1.2 28.628-8.613 56.855 6 84.5 12.893 24.404-.773 49.806-.2 74.806.293 12.686-13.427 6.8-19.066 13.794-4.787 5.942-11.04 13.449-11.467 21.621-.427 8.254-1.026 16.537-.827 24.778.787 32.437 3.08 64.708-2.453 97.174-4.36 25.567 8.386 37.658 33.76 44.071 12.107 3.061 9.6 14.543 13.387 22.174 2.813 5.692-1.761 10.595-7.08 11.994-15.947 4.197-17.653 17.05-20.107 30.984-4.667 26.495-8.36 53.642-29.867 73.129-4.866 4.418-8.746 11.011-5.466 19.114 5.773 14.237-.334 24.985-9.84 34.735-8.893 9.128-17.574 18.477-26.387 27.687-48.907 51.163-96.813 104.002-170.866 114.695-8.24 1.19-9 6.994-10.453 13.67-5.88 27.118-7.547 54.861-11.934 82.118-4.026 25.096 5.094 39.847 23.827 53.004 30.76 21.607 64.493 37.175 97.586 53.961 124.013 62.867 248.64 124.431 372.453 187.7 80.493 41.134 160.092 84.167 239.839 126.854 10.4 5.568 16.733 4.764 24.666-4.529 21.148-24.778 44.934-46.662 72.427-63.836 27.56-17.23 53.867-14.861 79.04 5.471 10.786 8.712 21.24 17.922 32.533 25.844 38.24 26.814 81.573 38.961 126.267 31.357 107.413-18.282 179.226-93.309 246.466-174.36 8.813-10.624 3.733-13.421-5.454-16.219-64.986-19.834-127.253-49.723-195.653-56.994-.346-.042-.52-1.87-1.013-3.767 34.373-10.181 68.16-17.812 102.746.415 25.28 13.324 50.854 26.717 77.52 36.468 75.134 27.451 152.933 28.254 231.066 19.903 38.053-4.072 71.094-20.485 97.16-50.041 11.36-12.867 25.533-21.039 39.28-30.443 21.64-14.834 43.787-28.822 66.306-42.535-1.453-1.758-2.013-2.922-2.933-3.489"/></g></svg>