<svg xmlns="http://www.w3.org/2000/svg" width="2048" height="1920" viewBox="0 0 2048 1920"><defs><clipPath id="clip_1"><path d="M0 0h2048v1920H0Z"/></clipPath></defs><g clip-path="url(#clip_1)"><path fill="#231f20" d="M1271.277 1765.696c8.32 11.072 19.09 19.471 29.647 28.126 5.956 4.158 3.343 8.017-3.703 8.11-30.097-14.345-31.23-15.815-63.35-5.198-2.492.633-5.437.724-6.518-2.46-.981-2.893 1.469-3.85 3.492-4.652 12.579-4.985 22.774-13.284 32.136-22.925 2.029-2.088 5.122-5.225 8.296-1m-329.378 21.972c-9.078 2.64-11.865-5.697-4.346-7.92 11.53-4.897 21.967-11.529 31.575-19.524 3.68-3.064 6.078-1.628 9.443.967 7.468 8.277 34.698 19.967 35.399 29.151-.457 5.023-12.003 1.76-14.651.12-18.197-12.68-38.336-7.48-57.42-2.794m-52.19-75.68c8.198 1.592 13.263 13.282 1.222 12.255-42.987-8.99-82.061-28.998-117.192-55.342-4.178-2.92-7.26-.752-10.888 1.303-34.673 19.631-71.454 33.342-110.761 39.863-10.528 3.362-13.357-6.976-2.894-10.377 41.583-25.028 79.51-56.152 111.71-92.644 3.493-4.607 7.218-7.915 12.966.563 30.04 44.31 67.128 81.032 115.838 104.38m425.808-54.04c19.587-11.323 27.76 43.176 2.21 9.573-1.921-2.627-8.128-6.05-2.21-9.574m-422.955-2.422c33.91-8.494 50.8-41.729 54.496-30.31 6.395 15.605 23.178 18.53 33.849 28.86 2.72 2.632 8.778 3.663 6.095 8.786-2.731 5.215-7.323.71-10.718-.342-17.543-3.347-28.167-21.262-45.8-8.716-5.468 3.148-40.865 13.504-42.197 6.054-.356-2.575 2.137-3.598 4.275-4.332m-51.208-14.225c1.26-.959 3.927-1.524 5.126-.82 6.002 3.526 18.854-2.375 18.115 6.43-.656 7.811-14.327 2.285-19.344 6.892-9.97 1.74-10.237-8.405-3.897-12.502m123.34-855.419c2.459-24.494 5.002-49.82 7.322-74.75.384-4.125 1.619-5.093 5.977-6.499 57.647-18.669 116.639-20.659 175.108-6.565 7.367 1.217 6.4 9.341 6.907 16.01 5.727 53.828 10.556 106.906 15.923 160.417 14.79 124.613 17.129 45.98-125.017 55.886-32.483 2.274-64.19 11.252-93.611 20.615-8.335 1.97-7.286 2.636-7.266-5.104 4.164-52.952 9.017-104.74 14.657-160.01m215.253 348.393c-11.96.865-24.67-.204-24.084-17.043-1.858-26.787-5.123-53.626-8.224-79.893-1.144-9.704 1.197-10.017 7.4-8.415 15.25.904 15.275 1.193 16.569 16.302 1.38 29.181 9.224 60.581 8.339 89.05M959.084 484.84c.426-28.657-.894-58.35 1.745-86.294 19.94-38.029 95.9-39.79 130.263-40.523 11.306-.13 13.169 1.673 13.323 12.904.166 17.288-.666 34.636-.445 51.945.866 136.61 17.88 49.323-138.704 103.208-3.337 1.093-4.578.71-5.021.385-2.97-12.279-.288-29.205-1.161-41.625m193.274-175.277c-179.025-48.618-270.765 87.918-203.625-11.083 38.185-58.057 73.964-119.227 112.674-176.684 27.135 40.707 49.517 87.126 71.432 128.908 8.843 17.318 14.89 36.2 20.79 55.644-.11 1.223-.427 2.634-1.271 3.215M1026.58 565.16c52.733-10.96 123.43.76 180.715 16.23 11.285 1.778 7.818 14.116 8.355 22.51.018 4.985.928 14.878-2.297 18.076-92.655-29.47-195.851-31.11-285.932 11.005-6.211 2.09-5.557 2.346-6.214-3.725.927-22.319-6.033-35.848 20.904-41.679 22.745-7.492 52.902-16.81 84.469-22.417m67.918-41.823c5.649.884 110.004 3.51 100.029 33.478-93.901-19.774-164.951-22.218-254.761 12.605-11.893-28.093 113.064-47.36 154.732-46.083m78.95-92.726c.054 6.34-.028 12.718.096 19.06h.055c-4.497 73.95 19.057 68.167-43.097 56.982-2.734-.129-5.261-.989-5.253-6.358 2.354-54.795-4.4-98.856 2.24-136.679 55.42 14.394 45.674 13.848 45.959 66.995m130.04 1195.822c-6.55-.839-39.121-49.448-20-40.092 6.009 6.046 30.579 33.553 20 40.092m-135.187 65.878c-10.703 3.16 12.263-21.272 13.442-24.498 9.166-12.337 8.817-25.14 8.414-39.965-5.016-31.423 15.914-40.648 16.978-69.017-.016-2.393-1.215-6.62-.292-8.223 6.95-2.288 15.856-.667 18.352 5.502 21.303 45.361 40.813 87.608 82.225 121.307 23.747 20.508 42.45 35.927 60.644 49.998 3.747 2.898 3.002 4.72 2.643 5.596-.687 1.677-1.306 1.8-4.732.935-25.45-4.123-47.646-16.564-69.956-30.639-35.427-23.873-86.2-23.158-127.718-10.996m72.895-157.99c-2.611.933-3.786-.193-6.215-4.286-8.804-14.259-18.106-26.104-27.964-35.788-11.925-11.835-28.645-19.852-43.82-28.858 19.738 93.7 36.757 44.466-127.192 53.857-50.191.64-93.852 5.633-133.477 15.265-10.95 4.588-2.461-21.026-3.893-26.73 5.569-70.642 13.159-141.22 19.423-211.487 1.897-20.343 4.402-40.543 5.324-61.156.376-8.42 2.049-11.998 10.7-15.298 92.944-35.45 179.93-37.503 271.886-3.979 6.74 2.463 6.974 7.833 7.243 14.05 8.186 80.482 16.244 161.196 24.34 241.61 2.375 18.898 4.003 38.335 5.186 57.415.63 3.931.415 4.686-1.541 5.384m-284.593 74.99c-13.706-20.985-29.285 23.512-53.592 17.936-17.708-1.417-35.22-1.307-52.81-1.857-4.788-.15-6.376-1.955-6.536-7.429-.94-31.955 17.41-54.259 51.66-62.803 78.209-20.212 200.505-22.635 276.552-11.988 13.879-1.029 6.722 14.941 8.393 27.223.157 13.506-2.8 69.324-23.04 65.29-43.162-2.942-90.163-4.455-147.917-4.766-21.5.396-41.382-1.365-52.71-21.607m430.673 72.861c-2.957-2.967-29.363 1.544-21.471-8.452 6.557-5.269 9.036-17.667 17.03-16.98 6.509.558 9.746 11.777 14.256 18.17 5.056 7.167-2.152 7.79-9.815 7.262m61.275 4.84c-25.96-12.297-27.581-17.435-55.776-43.907-4.116-3.899-7.23-5.502-10.403-5.35-3.745.174-6.775 2.805-10.448 6.994-22.536 25.7-22.527 24.483-23.91 16.32-1.877-12.307-5.592-23.892-8.077-35.998-13.286-71.827-61.966-61.83-64.147-94.469-13.59-135.246-27.545-274.664-41.768-408.382-9.767-106.53-24.708-214.858-31.238-321.088 9.867-4.662 20.31 10.204 30.337 7.212 7.925-3.356 6.672-14.06 10.615-20.227 5.627-7.726 14.683-12.65 20.172-21.074-29.99-6.382-26.906 25.183-51.016 19.591-6.45-1.976-14.711 4.322-14.26-7.088-6.24-84.965-22.831-63.324 30.042-131.963 2.624-3.462 5.598-7.383 4.673-13.359-2.734-17.663-2.714-35.362.06-52.604 1.216-7.564-2.044-13.195-9.181-15.857-29.07-6.717 5.339-32.005-23.537-40.455-8.164-2.342-11.31-6.988-11.222-16.57.3-32.773.522-71.577-.127-110.9-1.89-25.93 32.136-26.988 34.164-53.218 4.129-16.979-10.437-32.774-19.832-46.702-7.386-12.576 14.269.152 18.07 4.843 1.71 1.654 3.748 3.396 6.27 3.166 12.186-7.067 15.99-24.913 31.872-27.918 8.15-2.179 2.11-13.633-5.434-9.505-17.085 2.528-20.636 14.236-29.895 15.27-34.341-5.4-34.66-5.405-54.177-35.878-11.644-17.888-24.105-35.756-35.652-53.33-88.492-118.983-52.074-140.149-134.967-8.495-12.01 20.558-34.912 54.983-46.814 74.875-14.291 30.167-66.325 82.27-49.147 114.05 11.827 28.646 41.849 14.557 40.046 34.011-.088 25.408-.08 51.238-.074 76.216-2.521 14.095 6.667 47.441-7.094 54.115-22.865 8.252-5.395 31.24-16.41 38.401-15.684 5.885-15.15 18.873-14.72 29.308 1.536 21.398-6.173 48.867 13.845 61.623 11.03 8.49-10.26 15.566-10.708 25.065-9.062 21.608-23.246-2.272-57.044 29.034 14.297 10.837 27.306-13.466 52.21 1.79 23.14 13.396 7.825-28.09 30.595-39.853 23.562 14.775 20.76 25.47 17.95 49.567-3.556 36.68-5.977 73.097-9.251 109.915-3.598 43.29-9.028 95.805-13.344 146.91-.178 6.88-.563 11.83-3.924 12.875-15.752 4.896-26.691 25.351-44.86 12.16-12.487-4.72-29.728-6.724-38.42 7.84 24.83-1.02 44.318 7.85 53.683 27.847 29.714-41.88 30.1-31.919 26.495 14.82-5.816 56.56-11.106 112.837-15.541 169.504-5.822 56.164-10.153 112.032-15.197 168.304-4.816 44.411-8.335 83.582-10.76 119.753-.803 11.975-3.336 19.287-14.402 23.621-31.896 10.518-41.112 49.627-40.32 80.882l.488 11.465c-19.64-23.157-30.836-46.177-48.48-70.4-2.47-3.39-5.52-6.828-9.507-6.727-70.442 86.074-87.778 104.107-170.411 151.501-17.03 9.767 2.705 11.546 14.304 12.31 46.495 3.064 66.332-1.93 132.866-19.844 19.685-4.94 36.434-3.564 54.308 4.473 55.982 25.168 85.214 32.14 141.869 25.86 11.818 2.282 13.77-8.878 1.78-13.032-28.924-10.02-45.022-21.073-75.287-43.979-3.654-2.046 33.386-5.853 71.824-19.214 4.773-1.689 8.028-1.634 10.55.18 27.073 19.11 77.505 28.934 114.437 13.32-11.691-8.573-24.565-8.905-37.145-14.177-3.565-.85-10.98-3.919-8.975-6.809 2.717-9.043 49.865-.549 60.889-2.146 22.09.753 44.174 1.703 66.268 2.33 9.303-.773 8.819 6.706 4.174 12.996-31.346 49.206-76.53 78.462-138.134 89.442-5.741 1.023-10.76 1.518-14.032-2.809-7.523-6.856-14.534-26.824-24.082-30.44-3.38-.273-6.206 2.311-10.548 7.505-24.605 34.941-72.478 59.641-116.152 61.147 2.074 2.286 3.524 5.93 6.16 7.275 40.002 11.971 79.019 12.2 115.967.683 7.12-2.22 12.998-1.889 20.29 1.141 30.567 14.884 59.702 14.95 97.897 10.933 62.175 13.9 118.826 12.206 173.188-5.173 5.283-1.689 9.897-1.375 15.927 1.086 20.574 8.397 44.329 16.402 70.119 16.401 6.845-1.11 31.417 1.476 30.739-8.778-.316-5.209-5.41-6.338-8.146-6.945-34.768-7.75-65.235-27.203-93.358-59.54-6.948-7.993-12.082-8.773-20.347-3.095-73.091 51.395-146.82 66.27-221.267 34.756-22.518-6.605 20.95-13.363 26.049-16.094 42.6-12.556 86.652-25.538 126.899-47.383 29.816-16.183 61.392-14.892 96.534 3.948 40.076 21.486 74.854 33.338 109.447 37.301 17.28 2.003 35.209 3.988 53.199 3.032 10.168.89 11.502-12.067.69-13.748-29.79-10.297-52.93-22.779-80.114-39.8-7.49-4.78-12.78-8.066-2.325-10.303 11.744-2.514 20.518-5.819 31.66-1.432 7.544 3.727 53.995 13.78 58.957.537 1.6-5.973-4.106-8.232-7.171-9.446"/></g></svg>