<svg xmlns="http://www.w3.org/2000/svg" xmlns:xlink="http://www.w3.org/1999/xlink" xmlns:inkscape="http://www.inkscape.org/namespaces/inkscape" version="1.1" width="1984.25" height="1984.25" viewBox="0 0 1984.25 1984.25">
<defs>
<clipPath id="clip_1">
<path transform="matrix(1,0,0,-1,0,1984.25)" d="M0 1984.252H1984.252V0H0Z"/>
</clipPath>
</defs>
<g inkscape:groupmode="layer" inkscape:label="Layer 1">
<g clip-path="url(#clip_1)">
<path transform="matrix(1,0,0,-1,1575.1123,395.0371)" d="M0 0C-26.378-26.359-27.544-25.285 7.546-43.174-19.847-71.585-46.646-100.162-74.361-127.905-100.759-154.332-128.383-179.626-154.881-205.966-163.191-214.224-167.674-213.333-174.949-204.63-198.543-176.413-198.835-177.71-223.806-205.444-243.351-227.166-265.779-246.604-287.917-266.013-300.527-277.087-299.774-283.999-285.967-293.379-255.58-314.007-255.66-314.801-282.5-339.854-288.78-345.71-293.111-359.001-303.312-354.945-315.741-350.008-326.926-340.822-336.743-331.597-342.913-325.798-334.402-321.761-329.88-319.215-319.067-313.107-321.077-308.132-330.322-302.846-345.969-293.892-361.574-284.851-379.199-274.696-356.841-255.684-334.845-237.34-313.279-218.541-278.129-187.894-243.069-157.149-208.421-125.988-197.85-116.482-191.86-116.386-184.113-129.483-169.603-154.022-168.679-153.684-145.546-134.797-115.48-110.258-86.992-84.121-59.579-56.823-50.214-47.491-54.746-44.5-64.131-41.519-73.688-38.489-83.204-35.323-97.021-30.822-21.072 22.207 48.123 77.761 121.771 127.004 81.274 84.586 41.501 41.489 0 0M-190.766-491.621C-160.237-522.597-158.358-553.709-184.816-586.438-188.896-591.482-193.298-597.9-200.372-596.293-209.929-594.125-202.141-586.971-202.553-582.208-203.939-565.917-217.294-555.084-234.115-558.414-241.13-559.808-248.144-562.557-254.384-565.994-264.784-571.734-274.502-577.746-286.842-570.466-299.091-563.245-294.207-551.87-295.062-542.519-294.146-517.708-306.738-494.079-333.759-487.526-387.037-474.603-418.238-436.811-450.727-400.036-463.247-385.864-478.119-377.258-495.493-371.431-519.992-363.212-541.617-350.241-560.459-333.465-580.506-315.624-576.627-292.963-552.47-279.981-523.358-264.348-483.485-264.706-460.584-288.219-409.838-340.357-346.279-375.467-286.369-415.166-251.812-438.06-219.495-462.493-190.766-491.621M-249.902-705.932C-258.172-729.444-277.697-736.976-293.424-718.709-316.525-691.876-339.959-690.994-371.532-704.034-409.456-719.706-428.157-712.63-452.495-680.792-491.625-629.583-547.637-599.013-601.367-565.316-642.145-539.741-686.721-519.471-721.017-484.573-736.724-468.591-747.405-454.506-735.879-431.071-720.896-400.607-706.507-388.274-677.868-388.293-667.699-388.245-657.469-386.958-649.912-396.376-596.714-462.647-517.018-490.914-443.853-528.105-381.752-559.682-319.278-590.175-269.286-639.187-250.063-658.023-240.416-678.962-249.902-705.932M-312.988-770.382C-323.077-775.997-333.628-776.606-336.542-771.747-339.457-766.888-333.628-758.398-323.539-752.783-313.45-747.169-302.899-746.56-299.985-751.419-297.071-756.278-302.899-764.768-312.988-770.382M-447.31-847.011C-456.233-851.222-462.052-851.261-463.709-839.393-465.709-825.144-472.582-812.83-483.184-802.375-509.763-776.161-528.554-773.993-560.137-794.021-589.168-812.442-589.941-812.259-604.954-782.967-625.434-743.017-650.375-708.825-692.971-685.235-737.487-660.579-781.731-633.426-816.611-595.412-832.267-578.355-847.27-561.086-846.536-536.353-847.802-520.497-838.055-510.961-824.791-505.376-811.768-499.907-798.785-498.784-786.605-510.439-730.202-564.367-663.548-605.527-598.744-648.992-563.714-672.496-520.847-681.015-485.997-704.953-464.483-719.735-442.547-733.781-425.855-753.926-400.11-784.999-410.44-829.645-447.31-847.011M-485.294-847.931C-485.736-854.097-495.604-858.085-502.155-858.869-510.194-859.837-529.167-862.964-529.287-856.934-529.438-849.46-510.466-844.116-505.17-843.381-499.141-842.413-484.781-840.893-485.294-847.931M-618.249-878.046C-626.811-889.023-636.236-892.992-650.113-890.137-700.92-879.652-731.86-846.808-753.455-804.282-760.147-791.098-767.945-784.254-783.571-781.456-807.417-777.178-830.317-769.376-837.542-741.922-839.241-735.485-848.435-733.897-854.866-730.606-872.221-721.729-886.138-709.213-884.902-687.955-884.038-673.154-874.984-665.255-859.519-663.483-837.261-665.807-822.289-681.76-805.216-692.834-750.741-728.157-698.92-767.052-648.365-807.419-635.382-817.776-625.092-830.719-616.641-844.891-609.818-856.323-609.355-866.643-618.249-878.046M-782.646-931.887C-795.991-943.581-809.185-955.449-823.022-967.753-831.493-956.021-839.884-944.704-847.923-933.165-853.459-925.218-857.077-920.968-867.015-930.59-893.866-956.543-921.932-981.383-950.309-1005.796-964.277-1017.809-965.935-1027.479-947.968-1035.64-929.569-1043.984-931.608-1050.45-945.295-1063.519-994.162-1110.158-1047.4-1151.986-1098.508-1196.139-1110.617-1206.603-1120.113-1212.875-1123.75-1190.563-1125.549-1179.556-1132-1177.078-1140.12-1184.6-1187.118-1228.093-1240.044-1264.839-1288.53-1306.609-1292.107-1309.688-1295.021-1313.492-1300.307-1315.312-1245.29-1245.217-1181.853-1181.782-1126.042-1109.2-1117.832-1119.49-1116.304-1129.209-1114.294-1138.222-1110.295-1156.256-1103.452-1152.248-1093.172-1142.539-1068.091-1118.842-1042.416-1095.744-1016.913-1072.474-991.389-1049.183-992.012-1042.629-1021.716-1026.134-1024.841-1024.401-1028.338-1023.278-1033.865-1020.926-973.19-961.838-912.707-906.108-854.967-842.906-848.727-860.544-843.461-873.642-839.502-887.087-834.467-904.144-826.589-904.782-813.084-894.212-806.07-888.723-801.819-875.045-786.666-885.374-755.635-906.506-754.952-907.629-782.646-931.887M-569.401-352.516C-568.216-357.985-573.15-360.521-577.471-359.592-587.49-357.452-593.197-349.97-596.634-341.219-598.674-336.04-595.237-333.533-589.409-333.116-579.29-335.885-571.703-341.925-569.401-352.516M-830.478-403.511C-820.369-379.891-806.14-358.624-789.982-338.518-787.007-334.82-785.138-328.605-779.039-329.496-771.984-330.532-772.919-338.16-769.774-342.409-765.011-348.875-774.014-363.57-761.283-362.128-752.821-361.169-758.007-347.559-756.791-339.718-752.922-314.685-745.235-291.666-723.771-275.064-714.114-267.601-709.23-259.663-713.34-246.372-720.655-222.694-708.356-211.204-681.857-216.266-657.479-220.922-633.211-225.336-608.492-228.463-579.933-232.083-551.816-234.049-523.258-231.145-519.62-230.777-515.902-230.351-512.295-230.67-501.372-231.609-487.133-231.871-487.283-245.336-487.444-260.118-502.166-250.331-509.873-253.109-511.803-253.796-514.234-253.206-510.547-253.206-547.988-252.161-575.753-260.669-597.468-283.708-604.924-291.627-612.903-296.176-624.499-292.546-639.13-287.958-646.214-293.94-648.003-308.315-649.028-316.583-650.756-325.275-654.585-332.594-659.549-342.08-666.633-349.815-680.44-347.607-698.267-344.752-712.144-350.057-723.781-365.226-741.295-388.032-763.011-407.141-791.328-417.654-799.548-420.703-807.909-422.417-816.922-422.804-833.462-423.5-835.955-416.328-830.478-403.511M278.682 264.464C275.557 268.007 270.462 267.165 266.402 265.326 261.8 263.244 257.358 260.698 253.187 257.891 218.459 234.542 184.022 210.807 149.103 187.738 66.462 133.142-16.5 78.991-99.101 24.336-119.479 10.842-140.683-1.472-158.489-18.664-168.799-28.605-170.759-31.684-155.534-38.072-112.164-56.271-112.707-56.659-149.776-86.987-160.026-95.379-166.99-99.329-172.266-83.415-179.239-62.351-189.529-65.487-205.115-77.239-248.998-110.297-287.395-149.056-328.905-184.544-360.358-211.436-392.122-237.989-424.71-265.5-436.316-227.97-470.593-199.616-503.935-203.904-566.96-212.017-627.313-199.084-688.087-187.845-722.223-181.524-749.646-196.383-761.855-228.211-774.567-261.337-789.419-293.186-813.416-320.784-830.307-340.212-845.451-361.199-859.75-382.505-873.979-403.705-883.807-425.882-866.644-451.08-858.886-462.454-845.531-465.242-835.824-473.751-879.255-490.836-907.281-535.559-896.8-580.95-890.459-608.403-898.096-625.12-918.173-642.564-941.999-663.271-943.647-685.573-929.82-713.346-916.043-741.032-895.694-763.964-875.165-786.771-866.231-796.693-865.92-803.46-876.391-813.004-919.952-852.693-958.167-897.436-1002.02-936.988-1027.021-959.534-1051.892-982.379-1073.215-1008.671-1082.882-1020.597-1081.395-1028.612-1069.618-1033.927-1049.531-1043.007-1055.63-1052.31-1066.563-1063.49-1072.07-1069.124-1076.421-1075.804-1081.877-1081.495-1089.947-1089.917-1097.604-1095.764-1102.096-1078.243-1104.166-1070.179-1108.969-1062.773-1112.536-1055.078-1119.439-1040.199-1126.614-1037.179-1138.12-1052.329-1162.709-1084.689-1188.424-1116.247-1213.164-1148.541-1276.562-1231.316-1342.703-1312.146-1407.316-1394.07-1420.51-1410.807-1435.422-1426.596-1443.692-1446.624-1445.562-1451.154-1449.882-1455.598-1444.024-1459.605-1438.628-1463.303-1433.845-1459.334-1430.639-1455.83-1424.378-1448.957-1417.606-1442.916-1409.999-1437.38-1365.011-1404.631-1318.616-1373.402-1275.969-1338.012-1232.739-1302.146-1185.681-1271.499-1140.612-1235.518-1138.15-1240.357-1136.271-1243.281-1135.116-1246.446-1128.705-1263.891-1119.038-1268.469-1104.075-1254.22-1095.855-1246.398-1088.037-1238.034-1079.023-1231.133-1015.345-1182.422-957.183-1127.922-899.061-1073.315-869.487-1045.533-869.085-1045.949-906.336-1026.676-907.07-1026.299-907.049-1024.537-908.376-1020.025-901.462-1014.228-892.77-1007.713-884.993-1000.308-858.916-975.468-858.263-974.79-835.684-1003.763-824.047-1018.699-813.737-1018.061-801.89-1006.241-783.159-987.559-764.146-969.06-746.802-949.225-733.397-933.891-723.68-930.3-704.939-944.742-662.845-977.181-627.263-978.952-590.042-955.633-578.968-948.692-570.789-940.387-564.83-927.967-551.163-899.497-525.278-889.256-493.343-887.794-454.395-886.003-413.808-884.115-397.418-840.003-389.208-817.912-372.628-808.048-349.917-805.435-336.141-803.856-322.123-803.701-308.507-801.34-238.849-789.239-202.543-704.198-212.913-650.531-214.31-643.3-220.027-637.347-206.502-633.388-146.26-615.75-116.354-540.176-147.466-487.09-167.754-452.454-199.608-428.622-229.755-402.872-240.808-393.424-265.447-394.499-262.835-378.052-260.966-366.271-242.999-356.746-231.976-346.456-196.252-313.088-197.076-308.016-242.125-285.703-242.918-285.306-243.009-283.602-243.431-282.508-242.728-281.279-242.226-279.895-241.29-278.858-234.538-271.424-227.755-264.009-220.892-256.681-196.915-231.106-197.046-231.222-176.697-258.801-172.467-264.522-168.809-273.37-158.619-263.312-91.253-196.751-23.354-130.693 44.073-64.18 70.673-37.937 70.28-37.395 35.321-21.374 56.303 4.046 75.918 30.309 98.176 54.277 152.278 112.533 206.371 170.769 258.453 230.719 264.562 237.747 271.326 244.232 277.656 251.086 281.465 255.209 282.339 260.301 278.682 264.464"/>
</g>
</g>
</svg>
