<svg xmlns="http://www.w3.org/2000/svg" width="2048" height="1920" viewBox="0 0 2048 1920"><defs><clipPath id="clip_1"><path d="M0 0h2048v1920H0Z"/></clipPath></defs><g fill="#030404" clip-path="url(#clip_1)"><path d="M305.876 613.42c-8.953 36.996 15.927 23.361 37.313 17.693 28.512-6.788 30.416-7.233 51.159-27.866 3.003-3.64 22.744-3.917 46.622-1.165-5.365 15.021-36.21 16.157-38.691 16.82 40.79 18.391 65.003-6.922 65.865-15.415 8.645.032 17.387-.356 25.982-1.15 1.812 1.65 11.352 10.457 27.566 27.535.15.125 3.392 2.783 8.952 5.426-62.082 35.932-41.287 37.103-66.451 77.818-6.566 12.077-9.512 12.005-10.26 11.695-21.411-8.459-51.046-6.104-63.114 16.875 14.438-.594 36.938-3.096 51.593-3.295-11.13 11.798-35.992 27.552-50.134 16.411-13.567-17.024-38.742-18.735-59.21-22.078-5.71-1.183-14.224-2.122-17.684 1.67-5.73 4.915-4.29 16.678.025 22.876 11.247 20.723-32.62 37.551-6.067 59.545 15.338 19.916 16.623 41.85 49.216 34.907 1.952-.405 6.015-1.25 7.43-.19 14.324 9.15 43.948 11.485 54.223-1.007 4.59-5.788 3.304-16.629-1.122-25.817-29.936-62.605 43.695-74.265 61.607-124.29-1.15 10.241 12.064 39.328 21.103 47.883 9.297-20.839 2.869-45.655-6.885-62.625-6.604-20.226 41.103-41.849 47.66-46.326 7.555 1.62 15.059 1.476 22.416-.419 4.284-1.103 8.479 2.02 8.479 6.444v648.048c0 4.462-4.976 7.117-8.681 4.631-13.207-8.863-34.507-23.182-28.74-33.612 9.917-16.82 16.652-41.686 7.543-62.556-9.046 8.367-22.673 37.473-21.596 47.68-17.38-50.197-90.856-62.507-60.316-124.844 4.509-9.133 5.956-20 1.41-25.834-10.151-12.636-39.793-10.49-54.214-1.533-1.43 1.048-5.478.161-7.42-.264-32.522-7.224-34.027 14.616-49.583 34.434-26.782 21.78 16.91 38.941 5.439 59.596-4.38 6.181-5.944 17.902-.26 22.88 11.096 7.18 31.907-1.858 45.124-2.515 22.564-1.716 28.027-20.749 43.326-20.848 12.26.628 30.008 10.211 38.612 20.587-14.708-.338-37.07-3.057-51.56-3.788 11.847 23.104 41.436 25.713 62.94 17.475.468-.633 4.48.631 10.337 12.174 21.442 37.208 7.998 40.015 53.13 70.078 4.417 2.942 4.868 9.297.886 12.804-43.25 38.082-24.862-22.977-85.67-.044 10.799 12.083 41.053 10.333 48.48 25.807-26.411 6.372-54.543-2.473-78.56-16.568-22.276-15.169-4.946-63.988-16.045-89.826-4.456-13.37-18.57-14.477-26.823-3.518-5.618 6.403-9.537 10.11-18.932 5.793-24.9-12.503-33.082 6.433-46.65 24.045-10.728 11.753-12.087 25.232-3.931 38.976 3.715 13.363 5.287 28.218 11.622 40.963 8.794 17.575 26.916 5.223 36.74-4.789 29.039-14.727 16.8-31.399 77.216 7.461-23.473-.676-35.771 25.18-47.667 19.837-1.404 3.873 3.253 6.607 5.277 6.36 41.045 5.765 53.357-15.656 55.607-20.556 32.339 16.842 75.536-.348 95.25-16.667 3.418-2.829 8.574-.46 8.599 3.976.563 98.688-.09 209.697.186 307.238l-2.374 1.147C213.019 1424.104 91.818 948.248 291.047 582.956c14.599 5.548 20.449 15.976 14.829 30.464m64.87-70.138c6.543 8.203 13.37 17.1 20.093 25.781l-27.517-19.76-1.255 1.552c.238.217 21.84 19.71 29.529 25.491-15.088.946-29.09-7.12-42.584-11.988 7.775 10.888 17.664 10.885 33.509 15.692-25.615-.656-49.941-6.172-75.461-7.513 10.194 3.993 24.499 12.604 81.356 17.532-24.916 10.415-106.051 11.526-84.374-32.51 39.908-66.704 25.31-63.503 66.705-14.277m72.984-110.1c25.334-10.162 52.675-20.379 68.82 10.69-24.046-9.942-36.087 8.596-55.494-1.804 4.71 9.664 31.808 34.128 61.967 10.864 17.728 13.643 33.03 21.942 49.412 26.827 5.649 2.52 5.726 7.356 5.807 12.478.638 37.394.669 88.204.026 128.681-3.511 2.202-11.878-.982-14.357-3.652-13.526-14.376-25.756-13.612-40.112-18.15-26.155-6.922-38.783-30.798-29.15-47.374 10.636-18.786 64.506-28.535 30.293-54.167-6.743-4.982-14.737-7.995-22.037-12.055-8.096-7.11-15.872-16.14-26.948-15.176-12.008.577-20.452 5.696-34.277 7.723-8.901 1.753-15.388 10.73-16.527 22.873-.427 4.575-2.068 10.396-4.836 14.145-2.723-34.613-44.596-25.108-65.175-10.465-3.107.924-5.506-1.69-8.418-6.59 27.035-33.073 49.497-60.61 74.668-91.388 2.284 14.598 10.483 31.388 26.338 26.54m19.109-20.51c-6.134-.106-18.514-6.815-20.901-1.995 3.634 1.424 16.759 5.957 26.078 7.86-24.453 9.482-40.826 19.495-46.833-15.992 5.08-7.456 10.775-13.7 12.473-15.512 15.788 8.337 35.38 19.141 50.313 27.495-5.758-.243-16.023-1.206-21.13-1.856m25.209-26.903c-1.995-3.132-3.187-5.08-4.63-6.804l-.11.05c-1.948-1.895-11.802-18.397-12.008-15.187l-.86.396c2.829 7.3 16.59 31.425 21.104 40.781-10.534-6.949-25.931-23.898-34.31-33.072.1 8.668 18.209 25.846 26.635 34.225-14.55-7.596-30.182-16.064-45.096-24.149 6.36-7.995 21.654-25.685 41.719-38.592 2.895 13.96 8.472 34.051 11.619 48.612-1.362-1.999-2.764-4.21-4.063-6.26m14.08 22.09c-3.95-18.282-10.195-45.279-14.083-63.39 15.875 10.898 19.876 49.557 14.083 63.39m7.09-57.459c.51-3.569 13.71-12.34 20.008-9.286 3.796 13.186-.835 33.563-6.834 46.36 1.239-10.636 2.454-21.822-.632-29.822-1.324 9.608-4.422 24.992-10.935 35.513-.986-13.379-3.245-31.82-1.606-42.765m2.78 98.723c-17.851 11.885-36.587 1.456-36.587 1.456 20.446-1.999 21.61-8.503 36.587-1.456m-49.11 906.735c-12.444 10.3-36.51 13.055-36.51 13.055 4.136-.81 6.77-4.376 6.77-4.376 12.553-12.954 29.74-8.679 29.74-8.679m-101.457-35.157c-6.943-.894-19.041-4.524-22.385-6.688-.348-.872-.818-4.164-.935-5.896 16.314 3.13 44.358 6.818 63.468 9.446-9.66 7.832-24.186 17.463-33.79 26.366-16.198 12.484-22.45-8.77-26.761-22.439 8.39.655 18.715 2.574 26.695.022Zm24.327-45.845c3.38 5.664 10.936 17.41 15.598 24.643-8.688-6.152-18.063-20.528-21.77-28.182-7.004 7.484 15.156 29.503 19.703 33.947-11.423-2.73-20.291-10.099-30.668-15.017-.212.294-.631.952-.747 1.293 4.194 7.991 12.285 11.272 21.07 17.116-16.744-2.792-33.317-4.783-50.02-8.257-14.245-8.215-4.897-27.88 7.615-35.507 4.996 4.22 12.786 18.236 20.002 17.795-3.633-4.745-8.76-14.835-11.47-20.103-7.392-9.332 1.622-15.284 9.77-16.568 30.157-2.928 44.116 28.691 44.648 51.598-10.21-14.75-22.585-27.85-32.492-42.756l-1.711 1.033c3.477 6.331 6.722 12.705 10.472 18.965m41.396 14.112c-.54 4.534-1.307 7.621-2.037 9.486-1.801-11.056-1.897-29.978-4.366-38.856-3.476-2.46-3.064 17.712-5.313 21.412-4.766-10.073-11.083-23.315-17.22-33.179 4.435-4.307 12.019-11.367 17.97-11.916 10.036 12.627 11.992 36.964 10.966 53.053m92.905 41.017c-16.102 1.843-37.28-8.42-37.886-8.716 3.905 1.54 8.156-.009 8.156-.009 17.966-4.027 29.73 8.725 29.73 8.725m-37.492-113.503c-14.538 14.296-32.567 1.247-33.1 1.083 7.659 1.644 30.71.676 33.1-1.083m-119.4-16.77c3.08-1.617 3.824-4.922 4.48-7.839 1.703-13.093 21.162-3.24 30.107-4.352 8.993 1.776 22.41-1.617 26.32 6.87-17.307 8.422-35.194 13.32-54.192 15.204-2.385.34-6.133-.512-6.583-1.074-1.09-3.572-.89-8.389-.131-8.81m43.896-58.062c-1.85.6 14.395 14.351 21.19 19.582-9.474-2.472-23.65-10.62-31.065-6.19 4.118 1.05 22.407 6.723 28.396 11.952-15.487-1.742-43.9-7.082-58.434-8.525l-.278 1.978c18.85 3.516 36.605 10.602 55.394 14.51-26.532 11.174-63.991 5.258-69.21-28.49-.885-19.692 23.44-10.93 35.612-10.734l-24.066-7.734c28.21-60.336 50.724.088 68.406 27.181-3.25 1.028-17.307-8.329-26.13-15.863Zm12.1-24.795c-3.14-4.639-6.383-9.433-8.764-13.322.05-.54.326-1.022.8-1.22 7.215 8.936 8.995 9.22 14.552 12.816-2.958-5.016-7.18-10.107-8.312-15.91 7.063-4.278 28.986-5.499 34.832 2.687 12.223 8.404-4.184 30.494-4.925 45.332-.326 4.997-.623 7.842-5.21 6.358-6.807-2.583-11.044-17.613-14.89-24.505-2.218-3.573-5.198-7.977-8.082-12.236m108.722 135.524s7.293-13.177 9.398-31.867c0 0 9.466 12.734-9.398 31.867M486.648 697.7c18.62 19.283 9.04 31.925 9.04 31.925-1.856-18.133-8.637-31.134-9.04-31.925M365.67 760.522c-10.833.544-21.867 2-32.632 2.786-10.231 1.074-4.74-11.033-11.682-14.57-1.16-3.348-2.093-11.4 6.816-9.815 18.976 2.071 36.808 7.138 54.03 15.726-3.928 5.893-7.108 5.89-16.532 5.873m-19.507 52.43c-12.252.121-36.593 8.577-35.478-11.063 5.577-33.687 43.096-39.26 69.504-27.823-18.685 3.69-36.717 10.651-55.538 13.973l.259 1.98c14.563-1.307 43.007-6.37 58.513-7.96-6.355 5.32-24.15 10.567-28.516 11.677 7.353 4.505 21.643-3.51 31.127-5.89-8.668 7.233-23.584 17.381-21.58 21.687 8.822-7.349 22.964-16.682 26.275-15.594-14.194 19.741-23.948 48.254-40.71 52.272-13.5.755-23.987-12.85-27.98-25.747Zm30.998 30.185c1.777-3.032 4.054-6.218 5.878-9.197-5.59 3.521-7.354 3.772-14.68 12.655-.47-.205-.74-.686-.788-1.227 6.156-10.34 15.427-20.519 20.235-31.889 3.83-7.659 7.65-20.48 16.18-17.604-.418 17.265 18.274 40.793 5.442 51.522-5.895 8.117-27.881 6.737-34.856 2.358.522-2.276 1.353-4.395 2.589-6.618m63.762-110.012c-2.367-1.788-25.412-2.976-33.087-1.41.539-.156 18.698-13.028 33.087 1.41m-94.49-130.707c9.447-.779 19.987-1.648 28.313-2.157-8.586 4.701-24.433 11.606-31.487 11.792 6.239 11.46 32.266-11.294 40.093-4.793-19.06 18.743-43.21 19.133-65.927 26.13-14.382 1.854-6.255-23.184-1.246-26.824 8.399-4.575 19.803-2.369 30.254-4.148m46.275-40.3c-12.168-17.5-27.344-34.603-38.025-52.619 5.119-9.33 36.622-12.727 36.817-12.755 28.167 1.507 12.62 34.09 7.293 51.698-1.593-8.566-2.36-21.68-5.514-28.257-.31 6.733-1.93 25.037-.571 41.932m13.594-3.973c.398-4.06.817-9.155 1.206-13.633 32.352 26.594 72.224 8.113 80.462 50.723-27.447 3.513-77.463 8.5-81.668-37.09m51.006-2.367c-17.974-1.423-30.28-8.21-44.64-17.379-8.862-6.552 3.34-17.993 11.19-17.617 10.062 13.492 21.265 22.883 33.45 34.996m-.93-58.65c1.345 1.64 6.04 5.852 8.46 3.243-3.428-3.586-9.797-11.138-14.044-18.755 53.632-17.713 35.633 23.16 30.03 57.183-1.412-10.798-4.221-25.044-4.026-34.957-5.252 12.071-2.238 26.663-1.43 39.684-33.024-38.522-37.975-36.963-44.171-38.314 14.196 15.034 26.734 30.156 39.565 47.393-15.475-6.617-31.031-20.955-38.97-32.504-11.547-17.848 3.438-54.87 24.586-22.974m50.46 22.58.104-.566c-4.59-2.47-14.808 14.391-19.442 18.494 3.104-14.502 5.408-29.253 8.207-43.83 1.756.045 7.833 1.032 22.342 10.318 4.06 2.601 6.688 6.537 6.858 10.273-1.842 11.916-17.895 15.11-29.015 23.31 4.369-5.964 10.45-15.329 10.946-17.999m-79.872 99.75c18.948-1.152 24.065-13.876 24.065-13.876 6.425 18.667-24.065 13.876-24.065 13.876m121.573 2.807c-13.201 7.065-16.537 3.952-25.82-4.71-3.461-3.213-12.412-11.73-17.621-17.536 14.103 4.49 31.183 14.091 43.44 22.246M534.84 304.067c11.99-9.074 25.514-19.309 38.225-28.81 0 51.796.04 116.794.05 169.04-6.687-12.806-22.425-19.116-33.458-25.146.526 15.67 14.696 41.25 29.208 50.418-21.543-8.977-77.238-35.83-51.735-62.915 19.133-16.487 20.167-39.899 21.836-61.76.872-9.666-10.93-14.247-18.896-10.885-9.44 3.36-17.176 14.383-24.178-.592 12.559-9.382 26.039-19.589 38.948-29.349ZM547 428.005c14.138 14.276 20.13 10.938 23.612 26.812C549.867 448.58 547 428.005 547 428.005m61.794-226.833C8.635 523.953 13.205 1404.078 610.914 1719.76l-.617-1519.458Z"/><path d="M1472.38 756.98c.117-12.263 4.484-16.225 19.306-17.092-2.696 28.242-8.776 51.514-19.053 72.848-.962-18.279-.148-37.051-.253-55.756m130.343 8.72c-1.345 5.207-2.216 25.37-4.321 30.228-12.128-9.298-1.902-36.755.597-51.765 6.109-9.374 16.756-4.045 25.954 9.952-5.941 8.539-14.434 27.066-19.096 39.192-1.375-11.23-2.479-23.524-.041-33.81Zm75.514 73.536c8.142 4.45 3.408 13.047-3.468 17.763-17.692 8.658-27.908-11.495-42.839-20.744 11.544 2.28 11.89 1.157 12.199.154.284-.923.746-2.428-13.577-8.418 15.207-2.516 37.9-5.888 52.645-8.332-5.266 3.67-13.661 5.824-18.675 10.785 6.776-.693 19.596-6.035 23.992-1.005 1.21 7.412-8.195 8.059-13.691 7.988Zm-5.97-72.938c-2.638 6.373-7.171 13.497-10.529 19.995 5.736-5.371 11.487-10.41 16.242-16.879 40.42 47.35-11.797 46.376-49.642 52.97 17.592-10.106 23.225-12.024 27.622-17.135-11.145 2.456-23.236 7.543-31.764 13.295 4.164-9.816 14.437-21.127 23.034-26.88-7.489 1.284-16.348 9.337-24.404 15.46 10.259-14.408 22.045-34.745 24.458-51.881-12.576 17.136-25.154 43.924-37.509 59.07-1.291-11.152 11.475-44.011 22.983-53.84 10.031-11.878 43.384-14.932 39.509 5.825m-8.219 131.798c1.309-19.921 23.863-21.266 24.383-21.478-6.935 3.529-23.767 18.649-24.383 21.477m116.206 42.817c2.174.7 4.279 1.238 6.501 2.084 2.428.93 4.495 2.043 6.457 3.48-2.663 7.926-18.371 22.177-28.233 19.639-17.062-.154-18.528-30.033-30.542-42.69 7.073-9.267 22.356 4.176 30.985 6.486 8.708 2.808 21.578 6.058 30.183 8.887.327.437.461.93.26 1.383-11.599-2.293-13.071-1.393-19.862-.64Zm31.023-54.452c-5.625 4.932-14.896 9.501-21.007 14.293l23.436-9.125c5.558 12.125 6.768 28.654-3.684 36.716-15.797 7.84-42.563-8.446-66.703-14.692 1.842-2.798 19.179-4.465 30.691-4.2-2.127-4.877-20.277-3.023-31.155-3.337 8.778-4.005 25.02-6.617 27.702-14.644-4.194 1.88-21.127 8.749-29.62 8.6 12.939-8.336 38.088-21.987 50.087-29.957l-1.036-1.707c-16.743 9.115-35.058 14.817-52.005 23.607 6.788-12.577 16.984-22.337 31.08-29.77 12.638-6.034 55.899 3.428 42.214 24.216m-43.28-41.346c2.107 3.722 3.63 6.412-1.054 9.547-8.16 5.455-17.219 11.414-25.47 16.885-6.973 5.698-10.904 9.37-18.036 6.784 8.694-17.739 19.331-38.617 36.52-48.582 8.998 5.203 3.593 9.096 8.04 15.366m-162.743 54.022s3.423 14.549 14.532 30.046c0 0-15.841-3.76-14.532-30.046m8.42 133.608.465-.68c.427-.621.492-.717-4.09-15.85a1207 1207 0 0 1-2.504-8.335c9.185 14.394 21.927 34.22 30.772 40.59-3.161-18.782-22.001-30.34-24.45-48.67 13.602 4.182 25.86 20.028 26.078 34.104-.54 11.351-1.291 28.958-13.256 32.18-12.173.149-18.082-17.477-25.482-25.437 6.101 18.234 14.806 29.402-12.599 27.822-40.895-2.457-9.081-47.517-.278-68.489 1.785 10.161 3.518 19.29 5.02 29.79 4.387-9.12 4.701-14.633 5.399-26.263 3.399 9.926 4.787 21.16 14.925 29.238m12.993-52.421c15.57 6.31 42.982 23.85 49.691 37.91-5.597 6.4-16.911 9.072-24.894 11.207-7.735-12.784-23.914-35.688-24.797-49.118m-64.161 40.894c-2.277.826-7.092 10.459-10.152 16.904-2.375 4.09-5.765.838-9.409-1.866-35.318-23.496 10.784-37.63 32.863-43.037-4.938 7.027-8.537 14.113-11.409 20.26 5.018-3.434 8.879-8.003 12.81-12.368l-16.052 40.662c.452-8.01 1.263-16.484 3.669-21.711Zm1.265-113.317c-.548 6.365-7.301 28.894-7.301 28.894-1.634-20.132 7.301-28.894 7.301-28.894m0-66.256v10.66c0 1.494-.654 5.63-4.799 4.903-1.539-.269-.972-11.232-.972-12.726.787-4.793-.598-16.538 2.172-20.131 2.566 1.95 3.395 13.034 3.599 17.293m79.191-409.17c5.92-11.613 12.466-5.531 21.159 5.398 19.608 26.368 37.531 53.589 57.239 79.904 9.042 13.506-17.93 27.976-24.454 38.368-14.418 15.02-29.325 30.553-42.994 46.966-20.438 24.872-41.204 51.1-62.172 82.49-4.609 7.564-8.965 14.705-17.464 13.26-9.457-1.41-46.223 2.46-50.331-2.39-2.373-1.497 2.663-14.32 5.162-21.25 31.378-86.61 69.737-162.716 113.855-242.745m-170.695-140.677c-1.288-23.274 12.292-10.69 22.584-2.625 45.763 33.407 90.718 69.588 130.277 110.52 6.754 6.219 6.035 10.735 2.026 17.924-35.85 64.408-76.521 141.044-106.343 221.108-6.716 18.036-12.282 36.644-17.297 54.064-3.547 14.933-20.059 8.836-31.394 13.014-.016-135.682.121-278 .147-414.006m125.474 1005.27s-14.589-7.095-.768-24.093c0 0-3.261 13.867.768 24.094m74.889-114.168c-1.428 2.542-6.282 13.797-8.246 18.382-8.505-15.368.976-41.795 1.239-57.225 6.026-13.884 18.03 3.424 23.554 9.442a37064 37064 0 0 0-16.547 29.401m25.335 47.166c1.418-4.746 49.328-10.317 53.882-12.244-.289 7.233-9.998 10.143-15.467 11.67 5.767 2.55 11.979-.77 17.455-2.9-.152 30.665-16.423 44.379-39.387 19.505-7.601-5.764-18.621-14.113-16.483-16.032m36.102-51.668-6.034 8.814 20.246-18.402c35.268 50.279-6.489 39.339-43.311 48.563 5.224-5.28 15.077-7.27 20.832-12.262-11.296 1.067-23.088 2.416-32.3 6.467 4.985-8.004 15.674-12.966 10.785-24.835-2.565 5.737-6.597 11.105-11.436 14.94 7.291-16.168 26.152-33.082 23.865-50.762-7.572 19.83-20.467 38.314-36.554 53.543-5.896-64.24 85.905-72.295 53.907-26.066m-157.098 72.512c6.075-4.962 6.932-5.382 8.886-9.99-6.682 4.082-12.389 8.785-19.904 12.674 4.583-16.21 10.227-37.088 14.677-52.858 54.583 29.307 34.192 36.657-10.4 55.894 1.906-1.794 4.488-3.891 6.741-5.72m-38.955-43.355c4.987-10.271-2.283-13.39-5.998-19.752 58.77-19.602 38.756 27.675 27.031 60.728-1.047-9.748-2.131-20.5-3.908-29.805-.222 11.079-2.083 23.243-3.105 34.648-5.266-8.841-11.03-18.76-16.058-27.111-1.005 9.344 4.481 20.563 7.36 30.475-12.031-15.217-27.946-33.764-34.537-50.687-2.382 23.536 29.338 48.29 39.29 69.085-24.181-11.967-63.577-52.31-40.129-83.168 11.964-14.75 21.399 9.145 29.343 17Zm-60.539 32.63c2.535-4.815 9.705-9.046 15.361-8.968 13.138 15.248 21.335 26.803 38.577 43.357-14.143 1.572-53.882-18.662-53.938-34.389m43.284 134.38c-8.06 15.644-23.516 8.76-23.516 8.76 11.282-.514 23.516-8.76 23.516-8.76m-48.551-87.83c-.195-7.101-.183-19.262-.16-29.547.007-2.898 3.736-4.023 5.366-1.628 10.482 15.406 30.402 27.295 50.998 25.532 10.91-.11 21.867 11.682 24.543 22.956l-47.663-7.546-2.844 3.235c11.026 14.622 24.458 29.907 45.756 25.96 1.979-.421 6.176 1.534 7.237 3.372 9.611 16.67 18.654 33.47 27.781 50.152-31.591-16.286-66.096-27.835-99.384-41.524-21.961-6.24-7.898-34.311-11.63-50.963m-.252 101.1c-5.375-55.91 18.979-30.546 53.522-20.342-12.674 6.434-27.197 13.75-43.822 11.289 9.402 19.402 34.234 11.24 47.102-.384 10.06-7.237 31.885-.397 48.69 9.306-22.362 8.011-52.705 14.022-74.741 22.391 18.231 14.532 71.259-11.892 103.099-15.97 15.954-2.032 76.208 1.572 95.491 22.843-41.301 90.549-145.031 174.142-229.311 230.629V1397.18c0-3.117-.014-6.233-.03-9.35m253.418-119.88c-8.904-13.538-38.726-3.618-55.065-1.476-13.215.737-23.044 8.936-25.045 21.016 2.547 41.165-32.789 14.123-31.424 42.299 5.688 14.893 49.117 40.806 65.896 39.536 16.824.584 22.986 17.152 28.432 30.908.554 1.399-.954 2.726-2.263 1.985-24.646-13.956-51.314-25.065-77.575-24.24-6.878.227-26.226 1.813-27.144-1.743-.752-.783-1.038-1.764-.888-2.924l13.889-66.438c11.429-31.046 30.093-55.598 59.911-71.908-8.417 10.587-19.333 23.84-26.988 33.902 9.403-6.772 20.407-16.16 29.811-23.481 24.778-22.307 50.678 44.512 73.801 14.244 7.259-10.459 14.132-23.283 10.072-39.113-.51-1.983.431-5.352 2.014-7.21 11.008-12.91 10.677-29.599-.842-42.516-13.823-16.931-24.546-40.504-51.566-28.29-10.888 4.615-17.859 3.17-24.857-5.151-6.486-8.343-26.162-12.707-27.114 2.57-4.161 23.106-11.612 43.257-.452 66.818 14.035 24.188-49.4 64.02-54.398 95.072-5.522-6.65-2.336-32.215-3.334-45.12-19.036 17.233-17.117 35.671-3.37 53.774 5.26 18.423-4.226 39.04-7.252 59.615-18.928-31.201-36.787-69.173-23.428-102.001 14.034-15.65 80.434-22.085 45.604-55.364-9.746-8.173-22.173-12.978-31.438-21.491-11.486-16.231-25.806-20.64-45.063-13.874-23.833 2.969-39.868 3.019-43.497 32.849-2.73 1.625-16.357 10.306-19.716 23.452.021-110.726.114-220.783-.118-332.416-.978-19.852 11.703-30.038 19.973-45.984 4.938 3.712 32.528 26.816 48.326 58.694 1.176-.566 10.03-4.693 15.178-8.301-.751-1.35-4.465-5.294-8.805-15.764 8.963-7.125 12.946-6.031 19.669 5.918-3.421 7.904-22.047 14.068-13.131 44.656.205.079 3.14 10.105 1.383 14.208 10.995-1.268 3.252-10.615 12.117-20.767 6.475-7.5-.27-22.46 6.06-26.026 47.193 104.053-45.215 70.712-51.759 108.529-3.413 21.912 25.721 27.76 37.029 41.396 10.084 17.65 22.251 22.856 43.386 18.563 6.1-1.238 13.172-.134 18.854.753 13.589.839 28.505-16.538 28.745-31.241-.374-20.298 53.004-16.507 28.088-39.367-51.252-50.892-73.954-20.19-79.141-51.326-3.9-25.795-17.871-47.193-27.467-70.34 11.163.413 18.585 1.619 20.404 10.288 3.836 18.985 16.04 42.279 36.763 52.145 1.167-12.332-8.298-42.58-15.922-49.611 46.288 26.991 111.517-9.215 130.566 57.019 2.852 9.93 9.172 19.048 16.68 20.567 15.823 3.053 37.05-16.673 41.977-32.769.365-1.657 4.16-3.567 5.779-4.383 29.532-14.65 15.954-32.588 14.241-57.12 5.42-33.36-39.341-18.947-44.644-41.836-.893-7.604-7.92-17.516-15.541-17.502-5.272-.638-11.15 5.58-14.816 10.088-13.321 15.018-31.156 31.775-30.088 53.007-3.689 17.456-32.898 20.3-49.418 18.292 11.422-8.947 30.199-20.781 41.694-29.292-26.287-9.935-47.679 5.83-59.614 26.042-.358.683-2.545 2.514-15.651-2.63-19.477-9.072-39.626-14.564-54.681-27.381-.959-3.11 6.641-10.65 8.845-14.852-8.092-2.84-17.85 22.595-17.674 4.427 6.63-11.404 17.397-17.993 31.95-21.98 9.543-4.895 32.667 9.077 53.293 26.528 21.918 15.154 34.473-12.562 40.562-28.825 3.897-9.18-9.038-15.514.731-23.638 19.269-20.828-11.348-46.293-21.009-62.473-19.825-23.203-36.524 10.725-50.838-7.067-.486-.577-12.027-14.021-22.605-10.798-16.834 7.486-20.873 54.076-10.847 72.4 12.244 25.028-8.108 32.827-23.436 45.217 2.788-18.696-2.947-33.631-13.879-47.224-1.257 17.077.189 30.51-.16 47.563.522 12.404-1.194 14.793-5.504 15.722-3.549.773-14.351 3.121-23.464-1.957-12.732-9.031-30.258-37.499-30.376-49.288 6.279-25.723 14.19-54.141 20.357-79.823 2.464-11.436 3.484-16.168 18.634-17.553 4.987-.2 33.817-3.346 40.636-3.814-5.102 8.145-14.477 28.02-15.274 29.67l15.762 5.668c40.399-73.158 100.022-139.662 162.264-207.336 135.475 230.393 153.603 522.785 36.142 766.307-14.408-15.272-31.814-24.384-46.937-38.683m14.864 67.663c-6.12 3.069-12.415 6.225-17.255 8.39 3.775-5.922 10.96-13.582 12.701-19.53-5.073 4.044-11.431 9.68-17.066 14.513.278-.764.501-1.434.628-1.824l12.674-44.123c5.719 3.755 2.891 9.39 1.522 14.428l11.146-11.434 2.715 8.881c8.71-2.786 14.218-.03 16.955 10.05 3.16 14.252-13.54 13.133-24.02 20.65m-27.673 35.113c2.035-21.274 30.665-25.079 46.218-33.896-9.95 20.449-20.088 41-34.14 58.897-2.997 3.815-9.078 2.428-10.135-2.307-1.757-7.873-3.111-16.2-1.943-22.694m-39.899-8.672c-20.106-5.599-35.956-20.409-49.782-33.724 4.277-7.054 14.629-9.683 22.26-12.151 12.78 20.636 25.798 30.406 51.434 44.034-4.711 2.684-20.276 2.889-23.912 1.841m32.442-46.344c.318 7.66-1.187 16.855-.977 24.634-22.593-14.998-38.949-40.547-43.407-46.842-2.646 13.149 30.115 43.63 36.851 57.603-14.153-7.663-36.481-22.346-44.499-42.025-4.297-11.611 3.128-33.426 16.525-34.29 7.575 1.184 10.922 12.879 16.521 17.856l1.68-1.074c-2.858-5.416-6.674-11.911-5.776-18.268 59.723-16.126 40.525 27.014 27.719 63.147-1.113-9.435-1.545-20.301-5.056-28.553Zm179.545-424.245c-16.951-288.257-195.086-553.572-450.482-692.427-.002 507.338.506 1015.614.012 1522.67 300.99-164.786 484.282-491.992 450.47-830.243"/><path d="M696.083 1239.637c-.01-10.244.015-36.817.025-47.38 10.429-4.444 55.05-23.23 72.243-26.715 24.068 22.09 60.772-30.743 101.394 18.063-5.634 10.345-3.683 13.792-15.027 24.585-2.756 3.08-9.844 12.687-13.54 12.488-22.38-5.072-51.188-1.868-60.947 22.833 14.296-1.957 36.445-6.601 50.997-8.194-7.557 11.013-24.274 22.073-36.402 23.802-15.254 1.324-22.882-17.373-45.23-17.03-13.257.475-34.716-6.72-45.184 1.368-5.21 5.492-2.524 16.999 2.397 22.777 13.343 19.52-28.552 40.532.159 59.82 17.036 18.213 21.366 40.18 52.59 30.029 1.902-.585 5.86-1.807 7.372-.897 15.16 7.718 44.822 7.263 53.84-6.148 3.985-6.19 1.592-16.88-3.77-25.597-15.536-25.956-14.34-49.552 10.352-71.902 22.665-23.236 38.42-41.108 46.427-50.47 10.059 43.384 55.113 75.598 11.022 116.644-7.41 7.227-12.614 17.23-10.162 24.222 5.61 15.138 34.185 22.172 50.68 18.278 1.714-.544 5.229 1.555 6.917 2.564 27.229 17.083 37.91-3.41 58.61-17.005 32.819-12.375-2.8-42.21 15.198-58.016 6.187-4.417 11.744-14.996 8.013-21.575-1.936-4.561-9.983-6.515-15.708-7.19-20.695-3.493-45.095-10.037-63.845 1.648-16.963 6.037-35.197-16.957-41.456-31.628 13.76 4.919 34.018 14.517 47.44 19.738-3.388-25.737-30.628-37.253-53.533-36.23-2.293 1.547-5.601-11.417-6.365-19.883 6.052-8.582 22.749-21.466 25.272-23.39 56.603 12.094 124.57-21.216 128.058-33.318 15.037 6.244 26.15 9.318 32.06 10.7-4.441 9.959-7.765 19.608-10.04 29.165l15.629 4.29c5.247-47.031 81.452-119.422 137.78-178.993 3.179-1.771 57.695-31.866 138.804-66.331l-.575 362.47c-37.03 2.517-41.267 5.15-51.49 11.55-9.204 5.432-38.693 27.489-47.888 24.792-13.726-18.612-40.298-31.114-62.744-18.1 12.549 6.919 32.9 16.283 45.432 23.646-16.046 4.118-45.484 5.04-51.521-11.764-2-21.487-22.48-35.844-37.908-49.185-4.167-3.93-10.606-8.803-15.518-7.522-7.535 1.035-13.061 11.71-12.89 19.344-2.01 23.344-48.44 14.878-38.356 47.226 1.758 24.548-9.151 44.088 22.14 54.745 1.864.65 5.747 2.005 6.346 3.61 7.114 15.326 31.008 32.165 46.287 27.005 7.155-2.516 12.117-12.281 13.538-22.444 9.568-68.155 79.15-40.627 121.395-73.407-6.571 7.865-11.726 39.357-8.83 51.219 19.202-12.52 27.935-37.053 29.11-56.423 1.906-13.915 30.159-11.111 42.886-13.51.216 88.653 1.256 177.618 1.062 266.504.03 45.525.062 92.598.352 138.895.068 10.333-3.134 14.835-13.176 18.532-201.035 74.374-422.402 76.384-624.337 3.933-15.36-5.484-15.36-5.484-15.36-20.86-.078-158.455.022-316.925-.025-475.378m650.632-548.82c-9.614-9.44-40.328-30.53-41.851-42.772 15.304-16.996 21.963-44.77 3.242-62.715-3.946 13.309-8.576 34.595-12.985 47.977-7.394-10.998-11.17-30.11-7.954-41.435 4.633-13.941 25.613-12.713 34.695-32.757 5.066-11.875 20.084-27.118 17.3-39.783-2.858-7.118-15.303-9.51-22.757-7.542-23.933 3.767-27.391-41.547-57.073-24.26-23.6 7.483-46.993 1.989-50.103 33.832-.21 1.884-.641 5.809-2.116 6.748-13.43 10-24.7 35.437-16.602 49.052 4.074 6.513 15.616 8.557 26.51 7.748 63.672-4.728 53.233 61.547 103.484 95.018-8.95-5.962-42.17-1.44-53.922 4.195 17.943 15.238 44.314 16.94 64.18 13.494 8.527-3.22 16.466 13.272 17.719 22.56-48.878.496-120.702-59.802-199.36 11.957-10.643-.908-22.79-2.43-26.764-4.104 1.255-4.922 5.75-30.133-26.52-51.362-6.445-4.164-14.87-3.436-6.84 6.182.227.008 7.136 6.639 6.576 13.262.273.71 6.662 17.287 12.832 24.825v3.266c-2.21 2.366-104.898-52.885-79.735-90.082 16.528-13.491 21.556-36.134 25.02-56.591 6.914-18.291-10.82-25.115-25.088-17.1-12.681 7.726-23.555-7.722-34.74-12.304-15.95-10.382-26.625 7.696-41.4 12.582-19.517 6.187-27.528 18.986-23.811 38.038 2.376 9.3-9.2 15.262-8.202 33.152-4.257 44.608 31.183 24.414 57.112 20.055 23.08-1.106 34.057 4.03 51.049 23.893 4.87 7.73 22.442 20.552 17.207 20.638-33.94-6.352-26.553 17.248-47.653 11.134-10.014 9.43 9.125 6.236 17.813 11.125.755.293 25.49 5.876 41.184-15 5.536 4.695 37.595 30.453 81.125 36.525-26.657 20.524-30.12 26.236-69.742 39.01-12.366-18.312-33.022-36.898-63.35-14.725 22.5-5.135 17.737 12.907 48.32 17.104-12.703 6.632-57.982 15.434-64.158-7.084-5.658-19.951-24.556-33.948-41.684-45.192-14.054-13.713-28.803-4.411-27.776 13.789.114 23.432-46.861 18.919-33.835 50.29 4.173 24.527-5.333 44.366 27.112 52.644 1.922.492 5.927 1.517 6.674 3.06 12.725 21.727 57.529 40.46 59.718 2.312 1.717-31.406 13.192-49.195 49.114-55.14 28.658-8.628 67.237-9.814 100.313-34.006 33.427-21.036 89.476-72.95 170.245-36.576.274.09 27.703 9.3 49.223 9.272l-.277 175.332c-55.891 38.602-163.156 73.956-286.11 122.545 10.529-13.593 15.643-21.407 10.279-44.84-1.397 2.29-5.281 9.553-9.45 14.447-.188.147-17.276 13.755-22.284 36.102-1.03-8.793-2.708-23.743-3.783-36.531l.038-.063c-5.416-43.888 27.423-29.331 49.7-48.678 10.592-11.6 45.894-30.225 19.823-43.958 12.339.566 25.08-3.35 37.147-5.135 20.006-.793 21.713-17.91 7.556-28.897-12.225-8.342-1.398-23.743-1.206-35.383 4.002-18.251-17.744-20.872-27.823-32.048-17.417-19.772-32.165-13.51-52.575-4.105-16.563-3.761-44.995 3.663-50.448 18.828-4.594 16.11 20.35 29.51 25.288 44.133-21.662-4.897-42.651-6.62-52.17 16.602-3.555 8.883-16.976 7.744-26.528 22.699-36.337 43.042 30.597 34.384 47.86 58.337-3.066 27.763-12.295 30.919-24.043 60.993-1.905-1.478-5.338-5.33-5.526-10.263-.122-.406-6.13-15.237-18.77-23.756-.314.669-4.965-3.667-3.401-8.917-17.962 3.458-6.95 44.804 20.75 54.997-1.69 4.187-8.25 21.972-8.303 45.9-35.012 22.426-52.545 50.793-77.112 72.976l-.67.007v.1c-19.713 1.412-32.24-1.077-24.128-11.723 16.464-13.465 21.518-35.96 24.96-56.362 1.376-5.275 2.438-12.813-.964-16.24-4.76-6.035-17.404-5.05-24.064-1.085-21.854 10.013-38.904-32.38-61.926-7.748-20.482 13.63-44.44 14.599-38.037 46.07.359 1.859 1.107 5.733-.025 7.033-8.873 10.822-8.225 23.964-8.47 36.48-9.928 2.388-39.972 10.267-67.65 24.123 1.403-191.712-.385-383.713.044-575.11a4.32 4.32 0 0 1 3.335-4.192c27.356-6.48 86.576-25.302 134.275-73.71a705 705 0 0 0-6.658 26.255c-16.843 19.343-36.637 26.023-23.177 57.914 8.107-11.434 19.513-30.266 28.086-41.62 3.32 15.437 1.368 44.492-16.175 48.345-22.16.2-38.638 18.332-54.008 32.42-4.271 3.566-9.987 9.42-9.067 14.24 2.103 17.075 27.932 8.76 32.406 24.005 2.508 6.366 4.58 12.904 7.88 18.994 6.97 17.34 26.723 8.24 41.512 12.35 19.68 5.594 33.87-.521 42.168-18.171.82-1.732 2.527-5.336 4.254-5.792 24.427-8.217 49.856-43.841 12.225-56.137-57.235-18.701-61.195-70.254-34.61-142.556 6.359-17.29 18.535-34.476 25.367-69.67 15.435 1.437 34.312-18.88 35.316-44.121-6.76-4.908-5.676 8.336-14.572 8.107-.824.513-10.134 6.27-17.603 14.548 3.162-28.654 2.705-60.405-1.363-94.44 6.16-5.638 83.5-77.553 134.219-176.525a3.18 3.18 0 0 1 2.809-1.74c63.122-.328 185.628 6.209 314.448 52.119 7.793 2.777 11.126 7.368 11.146 15.349.339 165.12.08 330.27.144 495.383-1.037-1.5-1.681-2.291-1.805-2.425m-263.343 656.01 24.52 6.008c-10.396-6.216-35.633-11.448-23.745-27.481 23.18-25.138 57.44-12.071 74.31 12.069-17.893-6.482-37.024-9.823-54.827-16.672l-.801 1.83c13.027 6.35 39.843 16.622 53.837 23.217-7.677 1.306-26.638-3.461-30.558-4.714 3.76 7.61 20.255 8.118 29.519 10.952-10.673 1.723-28.932 2.199-30.37 7.304 11.59-1.734 28.812-2.296 30.967.228-35.945 17.12-82.67 49.876-72.852-12.741m39.654 42.618c-1.97 0-7.33.314-15.134 3.18-.27-.415-.208-.928.056-1.401 10.97-5.591 24.5-9.447 34.907-16.594 7.532-4.475 17.739-13.381 23.502-6.64-10.213 14.854-7.154 43.63-24.204 46.354-9.394 3.794-27.08-8.338-30.753-15.822 4.297-4.33 10.723-6.381 16.087-9.077Zm29.122-71.851c-9.102-4.43-18.598-8.996-27.613-13.438-9.197-4.326 2.195-11.752-1.72-18.27.945-3.59 4.838-10.632 11.299-4.817 14.829 11.439 27.067 24.806 36.846 40.936-6.692 3.468-11.12.337-18.812-4.411m80.446 16.325c-1.01-2.718-19.813-15.525-27.181-18.132.54.138 23.074-1.438 27.18 18.132m48.226 25.089c8.829-16.787 10.176-31.64 10.176-31.64 4.99 25.882-10.176 31.64-10.176 31.64m-384.501-134.466c18.619-8.956 31.203 9.022 31.65 9.345-6.677-3.954-28.791-10.26-31.65-9.345m90.966 63.203c-9.17-4.058-18.847-8.436-28.06-12.563-8.54-2.85-13.942-4.296-15.18-11.434 20.322-1.72 44.028-3.516 62.274 5.648-.232 10.219-6.488 7.58-9.798 14.379-2.226 3.516-3.986 6.292-9.236 3.97m-54.91 11.917c-1.333-2.15-2.625-4.234-3.63-5.933 8.129 5.31 18.82 17.497 27.273 15.628-3.66-2.392-18.742-13.232-22.774-20.22 14.045 6.495 39.114 20.466 52.368 26.387l.89-1.79c-16.606-9.221-30.963-21.475-47.381-31.053 28.71-2.21 62.238 14.777 55.69 48.57-5.686 18.724-25.593 3.285-37.252-.951l20.033 14.798c-47.077 47.85-47.772-14.863-55.373-47.096 3.412-.001 13.52 13.258 19.292 23.159 1.866-5.514-1.11-7.634-9.135-21.5m-16.054 42.596c1.057 4.3 2.23 9.086 1.517 13.492-7.916 1.85-29.264-3.794-32.01-13.428-8.427-14.021 17.884-30.752 23.158-46.747 9.104-.18 8.224 13.302 9.133 21.729.525 12.21 5.688 24.852 7.848 36.56-.237.504-.666.875-1.191.924-3.755-10.664-5.345-11.514-9.344-16.62Zm-205.2-93.806c19.803-4.942 42.537 2.46 61.882 8.79-3.08 8.752-16.653 6.556-25.425 9.069-9.166-.272-27.445 11.097-30.54-1.728-.926-2.85-1.977-6.077-5.192-7.422l-.387.92.386-.921c-.801-.351-1.452-5.131-.724-8.708m32.12 70.238c-12.237 1.31-35.593 12.002-36.491-7.64 2.076-34.161 38.91-43.116 66.27-34.302-18.347 5.51-35.365 14.087-53.805 19.207l.447 1.946c14.37-2.696 42.145-10.448 57.405-13.503-5.526 5.753-23.113 12.916-27.162 14.345 7.768 3.773 21.182-5.575 30.378-8.841-7.895 8.014-21.672 19.577-19.256 23.68 7.14-7.372 20.65-18.648 24.54-18.063-12.046 21.015-18.814 50.233-34.994 55.878-13.41 2.108-25.271-10.475-30.59-22.936Zm35.919 23.092c.717-1.317 2.213-4.35 2.9-5.711-5.178 4.026-6.908 4.457-13.266 13.978-.492-.163-.813-.618-.916-1.157 5.048-10.877 13.216-21.902 16.818-33.67 3.01-7.98 5.49-21.101 14.256-19.04 1.393 17.176 22.436 38.856 10.786 50.756-5.052 8.664-27.115 9.325-34.445 5.656.37-3.668 2.06-7.558 3.867-10.812m50.034-111.571c-2.55-1.538-25.594-.525-33.067 1.769.51-.212 17.245-14.76 33.067-1.77m-59.537-90.81c.383-5 2.587-14.14 4.06-14.641 5.979 1.29 11.128 5.533 16.266 8.637-3.575-5.59-3.756-7.247-12.75-14.536.28-.428.772-.625 1.353-.645 10.607 6.237 21.02 15.496 32.647 20.422 7.77 3.95 20.96 7.776 17.84 15.947-5.415 1.358-16.11.495-21.536 3.195-22.693 10.899-40.236 4.329-37.88-18.38m74.485-3.9c-5-5.48-10.49-23.861-11.31-27.675-4.871 6.825 3.06 20.906 5.197 29.978-7.025-7.996-16.813-22.965-21.988-21.473 8.297 9.65 16.823 23.35 15.453 25.68-11.234-8.853-50.802-24.893-53.303-40.854.088-13.421 14.62-22.357 27.878-25.74l6.945 23.013c.18-12.686-7.551-34.995 12.76-33.264 34.129 6.422 40.154 40.714 26.743 67.523-3.266-18.215-9.922-35.52-12.794-53.77l-1.987.214c.886 14.003 5.256 41.46 6.406 56.368m22.664-23.467c-1.893-39.36-6.007-22.901 14.014-34.91 3-.876 12.096-1.95 10.132 6.772-2.8 18.246-8.738 35.157-18.187 51.236-8.274-3.915-4.908-14.344-5.96-23.098m110.642-82.42c-13.4-9.877-18.948-33.823-18.948-33.823 13.389 7.82 18.948 33.823 18.948 33.823m37.672 97.169c-34.861 38.265-85.956 29.136-95.348 27.052 4.21-5.087 22.238-25.633 58.604-51.434 10.713 7.209 31.959 21.227 36.744 24.382m-24.581-232.813c.488-.218 1.042-.122 1.537.179 4.965 10.925 7.976 24.22 14.567 34.627 4.06 7.489 12.548 18.029 5.053 22.863-14.118-10.598-45.066-10.363-46.426-26.682-3.287-9.47 11.337-25.58 18.919-28.098 4.088 4.295 5.786 10.577 8.147 15.893.39-6.405 1.212-7.936-1.797-18.782m30.492 88.138c13.33 14.038 6.453 33.01 13.597 64.374-18.112 9.49-34.998 19.505-50.233 29.792 2.814-48.706 21.808-49.19 33.192-91.287.538-.957 1.96-2.93 3.444-2.88m15.893-61.27c-3.138 6.209-5.072 14.519-7.901 21.079-.933-10.724-.121-27.041-5.126-28.81.94 11.264.188 27.838-2.695 29.552-12.52-31.074-47.614-83.616 18.952-68.553l-8.082 22.749c4.828-6.284 8.845-15.65 14.104-21.25 1.084 13.895-4.361 31.449-9.252 45.234m65.826-31.784c9.888-4.078 19.854-9.18 29.594-13.475 9.289-4.331 8.477 8.775 16.239 9.773 2.258 2.824 6.282 9.855-2.775 11.469-18.627 4.4-37.224 5.548-56.406 3.236 1.538-6.826 4.51-7.877 13.348-11.003m-48.556 33.256c2.048-9.684 13.866-18.118 20.333-19.052 1.19 19.926-16.012 33.899-30.456 43.24 3.833-7.837 7.012-16.1 10.096-24.118l-.907-.43Zm9.896 21.128c6.522-7.022 13.88-27.252 21.947-29.918 4.606.216 9.385 5.186 14.417 2.979 3.03.86 11.086 5.043 4.25 11.055-13.218 13.468-28.232 24.082-45.55 32.079-2.602-6.553-.712-8.971 4.936-16.195m62.544-73.44c-13.717 8.069-27.614 11.742-42.39 11.184 16.26-9.736 30.526-22.187 47-31.585l-.91-1.777c-13.19 6.072-38.07 20.316-52.043 26.97 3.98-7.061 18.869-18.014 22.524-20.471-8.442-1.796-19.025 10.527-27.07 15.917 5.474-9.591 15.835-24.25 12.415-27.553-5.643 9.967-15.582 23.327-19.002 23.367 6.013-22.926 5.153-53.383 19.014-62.456 12.547-5.444 27.354 4.02 35.78 14.744l-19.851 15.02c7.35-2.723 16.054-8.186 23.288-10.416 25.1-1.757 13.542 39.026 1.245 47.056m-64.585-54.571c-.565 3.426-1.537 7.143-2.167 10.534 3.935-5.142 5.517-6.02 9.14-16.721.526.042.962.41 1.203.91-1.68 8.563-5.082 20.867-6.837 29.506-1.11 7.354-.067 20.52-4.107 26.444-2.034-.151-4.284-.09-6.84.187-4.925-14.695-30.945-31.402-22.212-44.147 3.696-9.968 21.665-15.17 31.846-13.782.338 2.317.328 4.58-.026 7.069m11.85 315.344-.331.606c-29.69-4.012-67.028-30.277-79.542-39.636 13.938-9.113 28.988-17.994 44.77-26.416 2.469 10.362 21.067 45.632 35.104 65.446m60.97-77.21c-.31.278-30.85 27.905-54.433 66.017-6.69-7.668-24.74-30.28-32.592-58.985 38.769-19.92 82.202-37.37 129.16-51.892-7.011 8.259-29.175 33.998-42.135 44.86m-85.085-16.383c1.664-16.115 19.919-33.307 19.919-33.307.173 15.028-19.92 33.307-19.92 33.307M933.78 846.635c3.054-1.93 6.65-3.797 9.722-5.658-6.794.668-9.042.339-19.227 4.855-.313-.39-.306-.914-.09-1.41 10.403-6.496 23.519-11.486 33.23-19.49 7.085-5.1 16.457-14.831 22.806-8.613-8.75 15.529-3.14 44.15-19.814 48.226-9.035 4.574-27.771-6.022-32.102-13.156 1.564-1.802 3.318-3.324 5.475-4.754m-1.136-90.347c-5.306-2.07-4.444-5.016-3.251-9.097.84-2.88 1.794-6.145-.154-8.963-.412-.461 1.883-6.161 4.865-7.755 19.103 6.98 33.77 23.945 46.434 39.649-6.331 4.023-11.057 1.272-19.144-2.79-9.412-3.613-19.422-7.416-28.75-11.044m-37.046 46.003 25.046 3.91c-10.912-5.298-36.62-8.34-26.273-25.37 20.874-27.108 56.232-16.76 75.135 5.706-18.527-4.953-37.727-6.622-56.134-11.943l-.642 1.89c13.545 5.219 41.21 13.175 55.774 18.554-7.568 1.952-26.853-1.188-30.89-2.1 4.456 7.258 20.923 6.363 30.43 8.398-10.417 2.623-28.636 4.64-29.506 9.844 12.722-3.047 29.019-4.52 30.797-2.381-27.368 15.047-78.415 60.07-73.737-6.508m131.429-40.88s20.978.544 28.413 12.052c6.732 9.619-24.171-7.952-28.413-12.052m-12.868-49.257s15.888-13.12 29.479-9.407c11.734 2.774-23.468 9.703-29.48 9.407m-70.043-93.048c-1.248-2.021-4.256-6.078-10.495-10.858.262-.338.5-.58 1.345-.644 10.594 6.23 21.023 15.5 32.645 20.427 7.775 3.948 20.962 7.77 17.854 15.948-17.285-.993-43.681 16.16-54.063 3.532-8.26-5.884-6.1-26.846-1.296-33.363 5.95 1.29 11.133 5.546 16.275 8.62Zm56.415 5.787c-5.004-5.472-10.5-23.86-11.318-27.674-4.867 6.825 3.079 20.915 5.203 29.977-6.975-7.948-16.841-22.997-21.986-21.48 8.299 9.65 16.82 23.353 15.447 25.683-11.115-8.798-50.834-24.891-53.303-40.857.095-13.418 14.63-22.358 27.886-25.74l6.94 23.076c.186-12.698-7.56-35.037 12.763-33.326 34.135 6.443 40.146 40.719 26.745 67.524-3.266-18.212-9.921-35.521-12.793-53.761l-1.987.214c.883 13.986 5.246 41.454 6.403 56.364m22.503-25.865c-1.817-36.762-5.421-20.6 14.167-32.507 2.999-.867 12.105-1.976 10.13 6.762-2.793 18.247-8.732 35.168-18.185 51.244-8.771-4.135-4.637-16.572-6.112-25.5m93.894 114.196c.328 11.583-16.013-19.09-17.312-24.72 0 0 17.428 11.186 17.312 24.72m204.615-26.95c-25.007 10.89-34.52-1.823-34.52-1.823 19.14 4.155 34.52 1.824 34.52 1.824M1218.03 545.116c-.596-2.274-2.272-6.978-6.856-13.256.398-.346.943-.414 1.508-.276 8.309 8.858 15.563 20.58 25.236 28.443 6.3 5.886 17.839 13.22 12.379 20.155-16.235-5.658-46.576 3.669-52.878-11.285-6.212-7.944 2.236-27.573 8.667-32.354 5.3 2.832 8.989 8.29 13 12.62Zm62.885-5.648c.31-9.557.613-19.424 2.01-28.928l-1.962-.382c-3.294 13.688-7.238 41.235-10.551 55.838-3.217-6.871-2.983-25.618-2.657-29.652-6.671 5.183-3.24 20.895-3.881 30.208-4.373-9.61-9.351-26.578-14.755-26.644 4.542 10.158 9.37 26.313 7.222 28.876-21.356-25.004-73.223-64.932-4.643-70.768l-.153 23.968c3.894-12.173 3.202-35.63 22.107-28.442 31.192 15.74 26.072 50.28 5.627 71.992 1.07-8.702 1.357-17.513 1.636-26.066m16.357 17.05c2.854-9.955 4.925-20.576 7.515-30.554v-.001c1.302-5.46 4.947-4.93 8.945-4.483 7.373 1.616 9.723-4.56 17.847 1.42-3.485 19.499-19.875 36.317-33.626 50.505-4.655-5.456-3.66-8.317-.681-16.886m3.514 77.044c2.51-1.595 10.946-22.17 11.802-29.65-.01.544 7.03 21.108-11.802 29.65m-544.43-103.12c13.508-2.915 26.414 4.316 28.797 8.799-12.523-5.15-28.796-8.8-28.796-8.8m3.49-87.123c13.503-2.915 26.4 4.313 28.787 8.799-12.522-5.151-28.786-8.8-28.786-8.8m147.973-49.034c-1.757 13.698-13.072 22.417-18.12 23.163 9.185-9.638 18.12-23.163 18.12-23.163m-29.466 293.838c-.487.219-1.042.123-1.536-.178-4.98-10.916-8.01-24.21-14.612-34.61-4.071-7.48-12.574-18.014-5.083-22.855 14.127 10.58 45.079 10.309 46.459 26.627 3.302 9.464-11.303 25.593-18.882 28.12-4.095-4.293-5.797-10.57-8.167-15.885-.381 6.406-1.2 7.942 1.82 18.78M844.97 669.02c-.944-11.258-.205-27.825 2.66-29.55 12.4 30.932 47.938 83.515-18.864 68.575l8.054-22.755c-7.668 10.246-14.726 32.93-30.381 20.372-24.746-24.783-7.605-55.907 18.317-70.004-8.13 16.663-13.02 34.559-21.511 51.05l1.732.997c7.623-11.985 20.432-36.96 28.378-49.824.765 7.616-5.61 25.187-7.245 28.954 8.03-2.877 9.95-18.84 13.633-27.521.99 10.385.137 28.034 5.227 29.706m-57.404-3.542c-3.018 4.704-6.097 3.322-9.993 1.574-2.822-1.285-6.08-2.67-9.162-1.326-3.06-.872-11.08-5.035-4.264-11.052 13.2-13.481 28.2-24.116 45.509-32.132 3.15 6.643-.59 10.733-6.047 17.66-5.267 8.314-10.765 17.045-16.043 25.276m39.156-100.898c-2.908.755-17.673 17.74-20.945 24.576.186-.506.265-22.151 20.945-24.576m-130.67-31.261c-.203-15.814.182-34.114.269-50.473a4.22 4.22 0 0 1 3.832-4.18c28.448-2.67 104.118-11.147 161.849-29.936-6.67 17.1-25.733 55.85-70.476 88.517-9.448-14.114-28.735-17.96-52.534-12.683-2.8 7.458 11.443 3.404 12.783 10.605.975.73 12.017 8.985 24.21 12.498-22.044 13.533-47.114 23.927-74.637 30.95-2.676.684-5.29-1.301-5.301-4.062-.056-13.463.132-28.433.005-41.236m.682-273.312c.077-12.845.173-25.69.23-38.506-.26-28.326-.26-28.326 27.558-38.204 6.194-3.113 183.073-54.214 267.514-52.518 2.378.048 3.858 2.6 2.739 4.699-18.582 34.846-74.37 128-164.978 195.698 13.477 16.389 2.122 21.59 36.432-3.464 1.04 12.567 6.729 85.875.029 109.087-5.711 1.933-30.4 9.974-68.78 18.096-4.105-15.044-30.588-24.593-55.003-17.456-2.597 7.923 10.084 2.447 12.78 10.606.83.617 9.569 7.155 20.253 11.2a891 891 0 0 1-74.393 10.48 4.304 4.304 0 0 1-4.723-4.291c.044-42.514-.343-86.92-.08-126.475.085-26.315.253-52.634.422-78.952m689.624-90.284c-7.023-2.708-40.338-15.356-46.92-17.757-220.05-80.79-457.588-72.991-679.826 14.018 1.007 525.334-.04 1055.585.284 1580.652 219.327 104.854 497.962 97.133 726.337 11.188.046-254.1.03-534.62.029-794.703h.038c-.036-258.792.109-538.871.058-793.398"/></g></svg>