<svg xmlns="http://www.w3.org/2000/svg" width="2048" height="1920" viewBox="0 0 2048 1920"><g fill="#040506"><path d="M369.343 649.702v129.96l-5.97 5.96v-135.92Zm398.907 262.76-9.545-9.58 1.408-246.74-246.393.826-7.239-7.266h261.77Zm-205.864 357.832 5.783-5.763h193.81l-.825-192.355 7.096-7.073v205.19ZM363.374 899.04l5.816-5.82v377.073h-5.817Zm404.876 30.93-3.025-2.923 3.025-3.061Zm0 25.369-15.591-15.578 5.954-6.026 9.637 9.623Zm-28.45-2.568 6.19-6.264 22.26 21.99v11.667Zm-6.687 6.764 35.137 33.212v13.134l-40.749-40.67Zm35.137 72.135-53.717-53.337 5.752-5.82 47.966 47.238Zm-2.323 23.014-63.686-63.916 5.968-6.04 60.042 60.89v6.752Zm-179.332 191.479H743.12l-.793-155.223 11.151-11.114v175.923h-176.5Zm-83.959-.583v-10.668l35.676 35.38h-10.87Zm0 13.939 11.191 10.774h-11.19ZM484.88 777.484l9.675-9.68v502.49h-9.674Zm-17.644 17.65 9.334-9.337v484.497h-9.334Zm-17.53 17.538 9.486-9.49v467.112h-9.486Zm-18.211 18.22 9.333-9.337v448.739h-9.334Zm-18.593 18.6 9.637-9.641v430.443h-9.637Zm-17.454 17.462 9.41-9.414v412.754h-9.41Zm-8.12 8.123v395.217H377.31V885.098Zm115.31 202.997.416 12.372 171.049-171.86-170.745-171.094-139.984 139.063v-12.993l139.53-140.104 184.63 185.089L502.637 1103.1Zm0 132.855 53.245 52.996-5.19 5.17-48.056-48.16Zm6.374-292.113-6.375 4.925v-10.033Zm88.9-.27-95.274-94.714V811.19l108.897 107.625-108.898 107.587v-13.617Zm-50.88 0-44.394-43.381v-12.513l57.9 56.164-57.9 56.152v-13.491Zm-44.394-29.95 32.061 30.22-32.062 30.188v-13.286l18.706-17.171-18.706-17.555Zm0 98.883 70.233-68.932-70.234-69.398v-11.797l82.945 81.464-82.945 81.427Zm0-202.914L636.16 918.989l-133.523 132.72v-12.737l121.23-120.425-121.23-120.884Zm.455-25.301L661.81 918.547l-159.172 158.365v-11.642l146.498-146.684-146.499-146.23V759.72Zm2.343 430.613 62.368 62.174-5.135 5.116-60.032-60.25v-4.208Zm13.215-13.37 62.47 62.278-6.543 6.517-62.21-62.436Zm12.491-12.636 62.567 62.374-5.812 5.79-62.314-62.54Zm12.077-12.218 62.662 62.467-5.394 5.373-62.412-62.637Zm13.216-13.37 62.764 62.57-6.55 6.525-62.505-62.731Zm12.49-12.637 62.861 62.667-5.82 5.798-62.607-62.834Zm11.962-12.103 62.956 62.76-5.287 5.266-62.703-62.931Zm13.216-13.37 63.058 62.863-6.548 6.522-62.797-63.024Zm12.49-12.636 63.155 62.96-5.817 5.794-62.9-63.127Zm13.216-13.37 63.257 63.063-6.546 6.52-62.995-63.225Zm12.361-12.506 63.355 63.158-5.687 5.664-63.098-63.328Zm12.344-12.488 63.45 63.255-5.668 5.644-63.193-63.424Zm12.464-12.611 63.548 63.35-5.79 5.769-63.29-63.521Zm12.962-13.112 63.648 63.45-6.293 6.27-63.389-63.617Zm-64.877 204.309h121.003l-.796-119.816 9.352-9.32v138.76H595.406Zm17.542-17.485h84.906l-.756-83.875 10.811-10.777v103.356H613.872Zm18.005-17.946h48.69l-.68-47.854 10.392-10.358v67.377h-67.597Zm17.541-17.485h13.846l-.5-13.302 9.303-9.272v31.278h-31.38Zm24.426-164.18 63.746 63.55-5.962 5.942-63.489-63.72Zm12.733-12.881 63.846 63.648-6.065 6.043-63.586-63.818ZM547.948 691.325l-9.6-9.637 196.916.647-1.938 195.07-8.8-8.833 1.396-177.485ZM715.39 832.52l-.16 13.014-7.224 6.457-5.595-5.616Zm.308-25.148-.153 12.4-19.913 19.797-5.97-5.993Zm.31-25.386-.15 12.33L682.9 826.79l-6.249-6.272Zm.315-25.65-.143 11.66-46.047 45.979-5.99-6.014Zm.322-26.156-.158 12.766-58.913 58.422-6.152-6.176Zm.305-24.964-.148 12.054-71.89 71.388-6.435-6.46Zm-22.052-4.68 12.261.05-74.853 75.418-5.979-6.001Zm-24.779-.098 12.353.05-62.803 62.83-6.018-6.04Zm-25.004-.1 11.793.048-49.995 50.13-5.937-5.96Zm-25.874-.102 12.102.049-37.164 37.447-6.149-6.172Zm-25.56-.102 12.858.052-25.012 24.847-5.957-5.98Zm-25.24-.1 12.438.05-11.966 12.287-6.2-6.224Zm180.795 193.343-6.45-6.475 1.392-214.105-214.45.24-7.387-7.416 228.857.059ZM504.078 657.37l259.74 261.177-261.182 258.245v-60.807L699.79 918.547l-196.81-196.67L363.373 861.65v-13.31l139.68-139.807 210.054 210.052-210.205 209.438v12.577L724.87 918.586 503.433 696.494l-140.06 140.49v-14.251L503.357 682.92l235.248 235.666-235.4 233.979-.303 13.19 246.782-247.4-246.478-246.94-139.833 139.51v-12.97ZM386.785 762.239l-8.792 8.782V649.7h8.424v112.9Zm18.527-18.504-10.13 10.118V649.702h10.13Zm17.985-17.964-9.334 9.323v-85.392h9.334Zm18.441-18.418-10.359 10.346v-67.997h10.36Zm16.846-16.827-8.65 8.64v-49.464h8.65Zm27.092-40.824h13.781l-13.78 13.765Zm-8.574 22.33-10.668 10.655.724-32.985h9.943Zm-127.288 611.966H781.81v-648H349.813Z"/><path d="m1226.286 652.097-15.069 14.816v-17.207h15.07Zm-46.375 618.2 13.361-13.115h25.153v-24.693l7.861-7.717v45.526Zm-358.5-507.012 8.151 8.165v498.848h-8.152Zm404.875 354.813L821.41 713.645v-19.12l404.876 405.434Zm-133.815 45.07-164.998-168.07v-9.922l176.373 176.399-105.418 108.469h13.064l10.347-10.416 106.45.95-9.817 9.72H987.908Zm-24.028 0-140.97-143.774v-10.86l154.823 154.635-107.862 107.129h-10.553Zm-23.126 0-117.844-120.405v-9.97l130.797 130.376-107.863 107.129h-9.652Zm-135.865-311.72 9.611 9.625v409.225h-9.61Zm-17.569-17.592 9.16 9.173v427.269h-9.16Zm-18.17-18.196 9.76 9.775v444.863h-9.76Zm-17.57-17.594 9.16 9.173v463.059h-9.16Zm-8.41-8.421v480.653h-9.76V779.87Zm361.568 362.066 8.335 8.346h-99.929l-8.425-8.346Zm-18.792-18.818 8.032 8.043h-100.136l-8.119-8.043Zm-16.822-16.845 7.75 7.76-99.477.836-8.677-8.596Zm-16.67-16.694 7.88 7.892h-100.499l-7.966-7.892Zm-17.77-17.793 8.828 8.839h-100.68l-8.924-8.84Zm-16.177-16.201 7.554 7.565-100.337.528-8.168-8.093Zm-16.822-16.845 7.443 7.454-100.333.713-8.243-8.167Zm-16.67-16.693 7.728 7.74H996.077l-7.813-7.74Zm-17.562-17.585 8.03 8.04-100.848.563-8.684-8.603Zm-17.162-17.186 8.694 8.707H961.955l-8.789-8.707Zm-16.595-16.618 8.24 8.252H944.722l-8.33-8.252Zm-110.786-92.705v-9.704l8.313-.205 9.895 9.909Zm0 16.845v-8.802h26.24l8.79 8.802Zm0 16.845v-8.802h43.062l8.79 8.802Zm0 33.368V929.46h59.884l25.29 25.325Zm0 16.81v-8.767h93.206l9.225 9.238H927.947Zm92.166 191.573-92.166-94.45v-12.555l107.671 107.005-107.67 106.94v-12.348Zm-23.126 0-69.04-71.046v-10.025l81.992 81.07-81.992 81.017v-9.835Zm-33.225 0-35.815 34.475v-10.038l22.863-24.437-22.863-24.288v-10.236Zm-35.815 47.867 45.99-47.867-45.99-47.732v-10.03l58.866 57.762-58.866 57.722Zm0-59.278 12.69 11.41-12.69 11.294Zm280.256 30.153h-108.69l9.956-10.023 106.94 1.896Zm-18.084 17.907H1081.25l7.425-7.474h108.518Zm-17.547 17.376H1063.99l8.668-8.726h108.252Zm-17.394 17.225H1046.88l9.155-9.217 106.527 1.436Zm-16.55 16.389H1030.6l7.98-8.033h107.685ZM821.41 729.348l404.876 405.434v17.253L821.41 747.582Zm404.876 458.64-82.017 82.31h-12.142l94.16-93.624Zm-16.083 52.573v8.199h-8.352Zm-42.184 29.737h-12.437l70.704-69.464v11.575Zm-150.197-413.24 208.464 207.776v18.456L821.41 679.408V661.29ZM829.093 653.317l-3.619-3.611h3.62Zm18.04 17.997-9.518-9.495v-12.113h9.517Zm17.663 17.622-9.142-9.12v-30.11h9.142Zm18.02 17.978-9.498-9.476v-47.732h9.498Zm18.584 18.54-10.062-10.038v-65.71H901.4Zm16.485 16.447-7.964-7.945v-84.25h7.964Zm17.828 17.787-9.305-9.284V649.706h9.305Zm177.988 3.102-9.179 9.025v-122.11h9.18Zm17.701-17.403-9.179 9.024V649.706h9.18Zm17.945-17.644-9.423 9.265v-87.302h9.423Zm17.458-17.164-8.936 8.785v-69.658h8.936Zm17.87-17.57-9.348 9.19v-52.493h9.348Zm8.522-8.38v-34.923h9.498v25.586Zm-147.994 172.747 181.083 179.52v12.684l-192.569-192.204 192.57-192.053v11.537Zm181.083-157.743L1067.88 857.376l158.406 156.758v7.52L1060.23 857.376l166.057-167.24Zm0 25.03-133.628 132.713 133.628 131.745v9.788l-143.914-141.533 143.914-144.492Zm0 239.984v9.254l-9.373-9.178Zm0-17.505v8.148l-18.687.312-8.883-8.698Zm0-16.758v7.605l-36.804-.128-7.703-7.543Zm0-17.31v7.718l-54.482-.241-7.886-7.723Zm0-16.503v7.013l-71.955-.144-7.428-7.274Zm0-16.23v6.86l-88.428.108-7.984-7.818Zm0-17.473v7.668H1120.73l-8.565-8.386Zm-106.074-18.462 106.074.763v8.444l-114.528-.721Zm16.332-16.396 89.742.765v7.137l-96.858-.758Zm33.727-33.855 56.015.34v25.023l-80.532-.752Zm17.068-17.133 38.947.5v7.762l-46.436-.745Zm17.423-17.49 21.524.179v8.302l-29.91-.062Zm16.745-16.81h4.78v7.455l-12.553.349Zm-178.242 89.32-9.377 9.22V721.06l9.377-9.494Zm16.895-16.61-8.373 8.232V702.937l8.373-8.476Zm18.082-17.78-9.56 9.4v-121.22l9.56-9.68Zm8.523-8.378V667.523l9.235-9.351v122.022Zm-70.81-68.577 9.278 9.127.02-.021.11 119.324-9.518-9.495Zm-17.897-17.6 9.263 9.11v118.92l-9.263-9.24Zm-17.203-16.921 8.681 8.539v118.67l-8.68-8.662Zm-18.224-17.924 9.702 9.542v118.428l-9.702-9.68Zm-18.396 99.938V650.159l9.874 9.71v118.17Zm80.998-63.292 54.475-55.192h13.987l-68.612 67.522-69.125-67.522h12.491Zm-.184-22.764L1057 649.706h11.847l-43.764 42.596-44.44-42.596h10.281Zm.184-23.067 9.167-9.361h11.674l-21.175 19.832-21.673-19.832h11.25ZM807.85 1284.002h431.997v-648H807.85Z"/><path d="m1279.748 1013.797 8.333-7.198v252.972l256.741.563 10.156 10.16h-275.23Zm9.267-364.094-.316 119.405-8.95 8.903V649.703Zm30.28 350.908 350.533-350.908H1683l-350.047 351.022 269.438 269.57h-13.35Zm-23.256 0 350.535-350.908h12.27l-350.049 351.022 269.438 269.57h-12.447Zm229.284 240.014 10.745 10.75-240.198.895-.184-241.395 10.625 10.63v218.559Zm-19.379-19.39 10.628 10.635-202.47.893-.185-203.648 8.424 8.429v183.126Zm-175.96-141.838-.038-34.244 17.192 17.2Zm.051 46.53-.037-34.068 22.892-23.751 18.5 18.509Zm.027 25.289-.013-12.731 47.51-45.697 5.906 5.91Zm.026 23.625-.012-11.364 59.54-58.625 5.77 5.773Zm.026 23.444-.012-11.17 71.435-70.336 5.68 5.682Zm8.744 15.037-8.728.047-.002-1.847 83.246-82.901 5.756 5.76Zm24.864-.134-12.296.067 73.855-72.72 6.228 6.23Zm24.472-.131-11.905.064 61.371-60.202 6.051 6.055Zm23.11-.125-10.542.057 49.101-47.86 5.41 5.412Zm23.655-.127-11.084.06 37.55-36.17 5.583 5.587Zm24.931-.134-12.344.067 25.615-24.301 6.191 6.194Zm37.292-.2-24.637.132 12.954-11.822Zm-217.434-227.123v-7.627l14.265 14.508-3.485 3.495Zm0 11.786 3.611 3.206-3.61 2.925Zm0-46.172 27.543 27.952-7.538 7.56-20.005-20.162Zm56.5-1.084-56.5-57.027v-13.273l62.99 63.79Zm-11.863 11.894-44.637-45.042v-12.508l50.751 51.42Zm-11.349 11.38-33.288-33.575v-11.471l38.891 39.429Zm41.307-41.421-5.858 5.874-68.737-69.393v-12Zm5.748-5.764-80.343-81.123v-12.872l86.634 87.686Zm18.46-18.511-6.422 6.44-92.38-93.287v-13.14Zm-94.59-119.238 106.262 107.534-5.923 5.939-104.552-105.585v-3.645Zm11.648-11.73 106.286 107.559-5.923 5.939-106.383-107.434Zm10.357-24.554-8.553 8.506-.16-110.737h9.033Zm16.462-16.374-7.74 7.699-.163-93.556h8.216Zm16.517-16.427-7.806 7.764-.158-77.194h8.278Zm17.278-17.185-8.564 8.518-.158-60.763h9.028Zm17.038-16.946-8.335 8.29-.153-43.59h8.796Zm17.14-17.046-8.434 8.387-.147-26.64h8.856Zm8.682-8.637-.126-9.616h9.795Zm116.72 110.503L1409.174 662.14l6.34-6.383 106.53 107.806Zm-11.672 11.704-106.606-107.658 6.021-6.062 106.507 107.782Zm-12.806 12.842-106.579-107.632 7.152-7.201 106.482 107.757Zm-11.672 11.704-106.555-107.607 6.02-6.062 106.457 107.73Zm-11.607 11.64-106.532-107.583 5.956-5.997 106.433 107.706Zm-11.673 11.705-106.507-107.56 6.021-6.062 106.408 107.683Zm-12.805 12.84-106.48-107.532 7.15-7.201 106.385 107.659Zm-11.673 11.705-106.457-107.508 6.021-6.062 106.36 107.632Zm-11.445 11.478-106.434-107.485 5.795-5.834 106.335 107.608Zm-12.805 12.84-106.408-107.457 7.152-7.201L1414.7 871.206Zm126.411-126.763-6.262 6.28L1421.14 650.09l.385-.388h11.93Zm12.09-12.121-6.34 6.356-95.117-96.05h12.844Zm11.784-11.82-6.036 6.054-83.12-83.927h12.241Zm11.994-12.027-6.245 6.263-71.427-72.11h12.657Zm12.013-12.045-6.263 6.28-59.524-60.081h12.69Zm11.71-11.743-5.96 5.978-47.605-48.036h12.088Zm12.634-12.67-6.886 6.905-35.983-36.293h13.268Zm11.931-11.964-6.172 6.19-23.432-23.614h11.85Zm11.983-12.016-6.219 6.237-11.587-11.645h12.927Zm54.432 16.44-328.42 329.174 269.438 269.57h-12.447l-269.747-269.684 341.176-341.513ZM1584.01 1000.34l100.617-100.662v12.23l-88.425 88.432 88.425 86.41v13.49Zm100.617 124.51-125-124.51 125-125.271v12.447l-112.583 112.824 112.583 110.779Zm0 50.764h-70.91l-9.538-9.526h80.448Zm0 16.427h-54.463l-8.167-8.156h62.63Zm0 16.428h-38.016l-8.166-8.157h46.182Zm0 14.374h-23.624l-6.11-6.104h29.734Zm0 23.595-15.343-15.325h15.343Zm-269.38-245.827 269.38-268.937v12.412l-256.625 256.639 256.625 256.632v12.572Zm-24.158 0 293.538-293.334v13.315l-279.879 280.133 269.438 269.57h-13.35Zm293.538-304.431-304.037 304.545 269.438 269.57h-13.576l-269.747-269.684 317.922-317.971Zm-89.378 148.123h89.378v8.832h-98.234Zm17.16-17.111h72.218v8.84h-81.084Zm17.16-17.112h55.058v8.84h-63.925Zm16.397-16.352h38.661v8.08h-46.764Zm17.39-17.34h21.271v9.07h-30.367Zm21.271-8.271h-12.978l12.978-12.941Zm-6.932 101.739h-108.072l8.475-8.45h106.53v1.495Zm-15.906 15.96h-108.17l7.711-7.69h108.123Zm-17.129 17.189h-108.279l8.943-8.917h108.223Zm-17.128 17.188h-108.387l8.942-8.917h108.331Zm-16.598 16.656h-108.492l8.41-8.385h108.438Zm-17.28 17.34h-108.6l9.095-9.07h108.542Zm-16.525 16.58h-108.703l8.333-8.31h108.652Zm-17.43 17.493h-108.814l9.247-9.221h108.755Zm-117.109 8.27h108.865l-3.794 3.808 4.901 4.844H1443.08l-4.578-4.573Zm17.527 25.669-8.758-8.746h109.571l8.85 8.746Zm17.633 17.612-9.353-9.342h109.75l9.451 9.342Zm15.737 15.718-7.456-7.447h109.935l7.534 7.447Zm17.742 17.72-9.46-9.45h110.1l9.56 9.45Zm17.742 17.72-9.46-9.45h110.286l9.561 9.45Zm14.582 14.565-6.3-6.293h110.473l6.367 6.293Zm18.123 18.1-9.842-9.83h110.627l9.945 9.83Zm122.951 16.385H1578.08l-8.124-8.114h110.818l3.853 3.808Zm-98.266 8.27h98.266v9.526h-88.729Zm98.266-211.754-64.042 63.803 64.042 61.838v13.683l-76.459-75.521 76.46-76.275Zm-3.46 63.803 3.46-3.072v5.874Zm-24.383 0 27.843-27.236v12.389l-15.426 14.847 15.426 13.326v13.25Zm27.843-39.352-39.809 39.352 39.81 37.482v13.454l-52.077-50.936 52.076-51.655Zm-418.44 323.01h432v-648h-432Z"/></g></svg>