<svg xmlns="http://www.w3.org/2000/svg" xmlns:xlink="http://www.w3.org/1999/xlink" xmlns:inkscape="http://www.inkscape.org/namespaces/inkscape" version="1.1" width="2048" height="1920" viewBox="0 0 2048 1920">
<defs>
<clipPath id="clip_1">
<path transform="matrix(1,0,0,-1,0,1920)" d="M0 1920H2048V0H0Z"/>
</clipPath>
</defs>
<g inkscape:groupmode="layer" inkscape:label="Layer 1">
<g clip-path="url(#clip_1)">
<path transform="matrix(1,0,0,-1,935.7388,803.27957)" d="M0 0C3.39 5.754 5.54 10.128 8.358 14.021 12.809 20.168 13.265 25.983 10.253 33.178 5.372 44.836 1.683 56.992-2.469 68.951-7.352 83.019-7.318 83.003-19.858 74.298-23.187 71.987-26.753 70.291-24.649 64.878-16.524 43.98-8.695 22.968 0 0M177.243 .008C184.75 19.573 191.714 37.451 198.468 55.406 204.062 70.28 203.841 70.157 190.865 78.883 186.311 81.945 184.153 81.796 182.302 76.259 176.915 60.152 171.181 44.158 165.461 28.164 164.555 25.63 163.716 23.344 165.226 20.774 168.986 14.373 172.668 7.927 177.243 .008M517.178-87.649C511.985-87.649 506.791-87.586 501.6-87.682 499.665-87.718 497.055-86.716 495.952-88.573 494.429-91.136 497.261-92.664 498.662-94.214 509.469-106.17 520.725-117.741 531.141-130.021 535.788-135.5 539.492-135.166 545.052-131.956 560.232-123.19 559.534-123.753 552.036-107.939 544.775-92.624 536.085-82.024 517.178-87.649M-339.828-87.629C-357.146-83.195-366.701-90.947-373.782-106.464-382.019-124.514-382.924-123.905-364.93-133.38-360.739-135.587-358.407-135.063-355.384-131.681-344.644-119.666-333.552-107.964-322.765-95.99-320.936-93.96-317.083-91.99-318.271-89.23-319.716-85.872-323.904-87.963-326.85-87.72-331.149-87.366-335.499-87.629-339.828-87.629M-40.424-544.853C-41.173-544.876-41.923-544.899-42.672-544.922-45.068-581.268-47.463-617.614-49.86-653.96-50.2-659.122-47.85-658.481-44.831-656.257-33.688-648.046-22.59-639.774-11.4-631.627-8.689-629.654-7.78-627.65-9.102-624.323-19.617-597.863-30-571.35-40.424-544.853M220.153-544.849 218.077-544.827C209.349-566.732 200.669-588.657 191.877-610.536 184.609-628.625 184.464-628.72 200.464-640.214 208.947-646.308 216.812-653.382 227.585-658.948 225.042-619.897 222.597-582.373 220.153-544.849M479.611-101.182C469.474-116.066 460.77-128.882 452.015-141.664 450.53-143.832 450.554-145.801 451.857-148.065 460.18-162.542 468.48-177.033 476.667-191.587 478.751-195.29 480.52-195.802 483.729-192.557 490.007-186.207 496.668-180.233 503.145-174.075 505.286-172.038 506.977-170.06 505.574-166.576 497.101-145.527 488.807-124.406 479.611-101.182M-302.022-101.143C-308.041-116.193-313.503-129.154-318.399-142.323-321.884-151.695-330.044-161.257-327.797-170.308-325.566-179.296-314.132-184.4-307.353-191.807-303.636-195.869-301.228-195.831-298.456-190.753-290.735-176.607-282.72-162.619-274.706-148.635-273.282-146.149-272.758-144.066-274.521-141.502-283.3-128.742-291.975-115.912-302.022-101.143M-139.773 347.71C-141.064 346.789-141.943 346.444-142.391 345.8-156.08 326.148-169.623 306.393-183.46 286.845-186.422 282.66-183.746 280.626-181.52 278.039-158.375 251.125-135.264 224.182-112.033 197.341-110.303 195.342-109.202 192.237-105.152 192.115-116.692 243.98-128.184 295.627-139.773 347.71M282.378 192.243C285.305 191.913 286.209 193.549 287.311 194.822 311.269 222.52 335.135 250.297 359.26 277.85 362.811 281.906 362.764 284.704 359.733 288.971 346.713 307.301 334.05 325.884 321.199 344.334 320.342 345.565 319.767 347.58 317.018 346.853 305.502 295.455 293.95 243.895 282.378 192.243M706.869-359.55C706.869-332.338 706.85-307.865 706.892-283.392 706.898-280.068 704.812-278.155 702.602-276.27 683.925-260.335 665.25-244.4 646.524-228.524 645.077-227.297 643.689-225.07 641.407-226.084 639.042-227.135 640.059-229.642 640.047-231.508 639.955-246.801 641.173-262.214 639.653-277.358 637.833-295.487 643.48-308.087 658.6-318.814 674.958-330.418 689.442-344.648 706.869-359.55M267.641-170.955C266.361-165.034 265.351-160.616 264.455-156.174 259.176-129.983 249.947-104.588 248.262-77.676 246.912-56.13 245.749-34.57 244.696-13.007 244.42-7.343 243.676-4.758 237.507-8.94 224.619-17.68 211.469-26.051 198.201-34.209 193.595-37.041 192.816-39.645 194.999-44.661 209.592-78.187 224.743-111.517 237.818-145.632 243.316-159.978 253.233-165.967 267.641-170.955M-529.127-359.324C-506.362-339.765-485.643-321.956-464.912-304.161-462.673-302.238-462.624-299.695-462.625-297.057-462.633-275.145-462.586-253.232-462.637-231.319-462.641-229.437-461.719-226.953-463.92-225.829-466.259-224.635-467.526-227.07-468.94-228.276-487.829-244.369-506.644-260.549-525.52-276.658-527.571-278.408-529.176-280.105-529.167-283.092-529.096-307.563-529.127-332.034-529.127-359.324M-16.439-41.757C-15.146-37.442-17.387-36.62-18.984-35.582-33.248-26.312-47.568-17.125-61.839-7.865-65.467-5.511-66.839-6.433-67.018-10.677-67.419-20.171-68.197-29.649-68.641-39.142-70.015-68.475-71.251-97.772-79.892-126.227-83.733-138.874-86.333-151.904-89.231-164.819-89.634-166.619-91.379-171.981-87.393-170.035-79.002-165.937-68.641-164.65-64.157-153.862-49.237-117.969-33.667-82.346-18.359-46.614-17.453-44.5-16.667-42.336-16.439-41.757M-176.293-290.572C-177.22-288.102-177.473-286.976-178.025-286.022-200.707-246.736-227.692-210.283-253.057-172.762-256.657-167.437-258.309-170.755-260.185-174.057-268.594-188.857-276.777-203.793-285.579-218.359-288.574-223.316-287.846-226.353-284.153-230.362-269.092-246.713-254.321-263.33-239.485-279.886-237.543-282.054-235.799-284.433-232.623-284.763-214.257-286.675-195.888-288.555-176.293-290.572M352.983-290.705C373.194-288.602 391.283-286.752 409.362-284.805 412.388-284.479 414.472-282.483 416.47-280.26 431.716-263.289 446.949-246.305 462.413-229.532 465.761-225.901 465.831-223.132 463.354-218.955 454.818-204.56 446.485-190.033 438.551-175.301 435.041-168.784 432.973-168.868 428.896-174.922 413.742-197.422 398.162-219.638 382.78-241.987 372.331-257.169 363.215-273.143 352.983-290.705M8.943-219.741C35-227.99 58.685-235.458 82.345-243.007 86.353-244.286 90.214-244.38 94.244-243.111 116.002-236.264 137.805-229.555 159.534-222.616 161.771-221.901 165.511-222.279 165.693-219.002 165.821-216.686 162.818-215.657 160.969-214.375 138.904-199.069 116.685-183.978 94.808-168.41 89.811-164.854 86.507-165.459 81.879-168.778 66.159-180.054 50.111-190.875 34.222-201.917 26.273-207.442 18.397-213.07 8.943-219.741M-230.08 16.626C-220.773 38.492-212.864 58.222-203.958 77.494-199.741 86.618-198.795 95.449-200.693 105.041-201.977 111.531-203.65 118.142-203.54 124.672-203.246 142.22-210.623 153.047-227.44 159.603-242.593 165.51-256.591 174.358-272.686 182.735-270.212 158.457-268.064 135.87-265.548 113.323-264.274 101.899-265.681 89.676-261.1 79.216-252.107 58.688-241.284 38.956-230.08 16.626M450.494 183.252C428.168 171.591 407.773 160.929 387.367 150.29 383.68 148.367 383.575 144.793 383.095 141.384 381.367 129.125 379.363 116.893 378.067 104.588 377.448 98.701 374.825 92.823 377.449 86.718 386.551 65.542 395.532 44.314 404.607 23.126 405.252 21.62 405.392 19.424 407.466 19.155 409.72 18.862 410.094 21.117 410.75 22.529 424.219 51.506 443.398 78.034 443.703 112.297 443.907 135.197 447.941 158.062 450.494 183.252M296.018-857.276C296.653-857.289 297.289-857.303 297.924-857.316 307.712-825.439 317.564-793.58 327.183-761.652 328.06-758.743 327.864-755.333 327.461-752.247 322.837-716.854 318.012-681.488 313.414-646.092 312.59-639.751 310.797-638.817 305.509-642.837 288.743-655.585 271.849-668.176 254.69-680.39 249.62-683.998 249.123-687.023 251.707-692.47 265.538-721.621 278.895-750.996 292.639-780.189 295.048-785.306 296.129-790.365 296.084-795.972 295.918-816.406 296.018-836.841 296.018-857.276M-120.454-857.162C-119.745-857.145-119.037-857.128-118.329-857.112-118.329-837.849-117.986-818.577-118.484-799.327-118.708-790.645-116.629-782.996-112.999-775.286-99.858-747.373-87.165-719.25-73.929-691.382-71.537-686.347-72.465-683.87-76.736-680.795-93.615-668.644-110.253-656.16-126.972-643.789-134.168-638.465-134.63-638.576-135.872-647.54-139.552-674.088-143.373-700.622-146.603-727.226-147.985-738.613-152.882-750.27-149.743-761.425-140.704-793.54-130.313-825.276-120.454-857.162M-24.425 98.149C-24.235 98.977-24.045 99.805-23.855 100.634-49.125 116.74-74.387 132.858-99.672 148.941-102.869 150.974-106.448 150.103-109.825 149.687-125.311 147.781-140.8 145.866-156.242 143.635-164.44 142.45-175.527 144.659-180.062 139.089-184.9 133.144-181.01 122.472-181.532 113.883-182.188 103.089-181.146 93.007-174.668 83.493-167.873 73.514-162.383 62.629-156.646 51.968-154.446 47.88-151.377 45.488-147.209 43.706-107.118 26.567-67.089 9.287-27.016-7.892-25.024-8.746-23.072-10.518-20.167-9.008-20.544-8.014-20.786-6.962-21.305-6.07-46.461 37.108-46.464 37.106-90.52 61.209-91.534 61.764-92.551 62.312-93.567 62.865-111.827 72.808-130.008 82.903-148.402 92.593-153.292 95.17-155.115 99.496-154.854 103.817-154.609 107.896-149.456 107.016-146.356 107.811-139.652 109.528-132.669 110.308-126.115 112.434-110.29 117.567-95.263 117.641-80.387 108.958-73.722 105.068-65.845 103.306-58.86 99.884-47.359 94.251-35.904 98.114-24.425 98.149M201.506 98.115C213.507 98.028 225.212 94.445 237.027 100.021 246.945 104.701 257.422 108.192 267.424 112.711 275.1 116.179 282.478 117.323 290.851 114.998 302.245 111.835 313.968 109.863 325.498 107.161 327.834 106.613 331.798 107.168 332.016 104.258 332.277 100.784 331.535 96.776 328.11 94.351 326.701 93.353 325.155 92.537 323.633 91.709 305.871 82.043 288.129 72.339 270.33 62.742 225.907 38.79 225.887 38.815 199.755-4.417 198.868-5.883 196.535-7.225 198.432-9.546 199.082-9.546 199.718-9.722 200.192-9.52 242.471 8.457 284.721 26.5 327.031 44.403 330.568 45.899 332.366 48.513 334.064 51.585 341.324 64.717 348.632 77.823 355.988 90.902 357.412 93.434 358.851 95.848 358.834 98.919 358.77 111.036 358.732 123.154 358.848 135.27 358.885 139.192 357.409 140.718 353.366 141.205 330.69 143.938 308.037 146.878 285.411 149.995 280.741 150.638 277.082 149.439 273.254 146.951 251.216 132.622 229.04 118.503 206.98 104.208 204.98 102.912 201.982 102.395 201.506 98.115M-121.768-388.383C-122.506-390.642-122.833-391.184-122.84-391.73-123.723-462.596-124.547-533.462-125.527-604.326-125.592-609.02-123.562-611.711-119.97-614.18-106.175-623.661-92.518-633.339-78.776-642.895-70.713-648.501-70.484-648.488-69.066-638.53-63.59-600.059-59.064-561.428-52.459-523.153-49.853-508.055-52.9-497.765-65.708-489.829-74.924-484.12-78.676-475.289-80.414-464.755-82.849-450.006-86.478-435.449-89.714-420.836-90.263-418.354-90.7-415.235-92.378-413.716-101.701-405.28-111.391-397.247-121.768-388.383M303.21-517.247C302.635-517.247 302.06-517.247 301.484-517.247 301.484-501.67 301.621-486.091 301.453-470.515 301.185-445.72 300.803-420.925 300.159-396.138 300.108-394.184 301.829-386.294 295.935-391.142 281.589-402.944 264.661-413.065 263.636-435.285 263.178-445.216 259.209-454.937 257.639-464.879 255.982-475.365 251.867-484.11 242.801-489.936 230.621-497.762 227.037-507.457 229.653-522.473 236.374-561.055 240.825-600.029 246.307-638.829 247.659-648.399 247.908-648.415 256.177-642.728 270.218-633.073 284.126-623.222 298.286-613.744 302.147-611.159 303.341-608.243 303.31-603.729 303.114-574.903 303.21-546.075 303.21-517.247M155.139 365.163C151.512 366.31 149.847 364.325 147.951 363.258 132.329 354.467 116.254 346.349 101.336 336.492 91.927 330.276 84.95 330.71 75.72 336.579 58.994 347.215 41.385 356.474 24.061 366.357 22.495 363.197 23.507 360.988 24.049 358.828 36.044 311.019 48.914 263.406 59.679 215.324 63.729 197.239 74.173 184.473 85.34 171.356 86.596 169.881 88.243 167.288 90.105 169.69 98.155 180.07 110.26 187.805 113.771 201.133 123.542 238.219 132.592 275.494 141.934 312.692 146.329 330.191 150.74 347.687 155.139 365.163M-183.358 354.484C-183.253 355.092-183.148 355.7-183.043 356.309-184.49 357.162-185.928 358.031-187.385 358.867-223.954 379.86-260.502 400.889-297.125 421.786-301.316 424.178-304.219 427.13-306.231 431.637-314.219 449.527-322.729 467.187-330.731 485.071-332.764 489.614-334.325 490.503-338.817 487.553-386.121 456.495-433.536 425.606-481.012 394.809-486.057 391.536-487.052 389.589-481.076 386.159-467.553 378.4-454.287 370.19-441.001 362.026-438.171 360.287-435.422 359.441-432.049 359.649-411.858 360.892-391.657 361.983-371.456 363.084-335.127 365.065-298.897 368.375-262.456 362.868-236.267 358.911-209.737 357.198-183.358 354.484M359.73 356.102 360.375 354.304C378.179 356.201 395.953 358.464 413.794 359.91 441.999 362.195 469.948 367.741 498.49 365.894 533.988 363.597 569.526 361.914 605.032 359.728 611.038 359.358 616.146 360.143 621.379 363.533 633.497 371.383 645.959 378.725 658.48 385.931 664.068 389.146 664.919 390.971 658.777 394.936 611.441 425.49 564.245 456.261 517.171 487.214 512.039 490.588 510.133 489.699 507.822 484.443 500.624 468.076 492.744 452.006 485.645 435.599 482.629 428.63 478.33 423.794 471.59 420.084 449.567 407.962 427.857 395.272 406.047 382.768 390.591 373.907 375.167 364.992 359.73 356.102M155.668-18.131C151.555-6.307 148.553 3.218 144.904 12.49 142.566 18.429 142.512 23.935 144.205 30.066 149.803 50.344 154.756 70.8 160.36 91.077 161.972 96.907 161.114 101.397 157.669 106.352 144.65 125.078 131.827 143.948 119.397 163.065 115.909 168.43 113.426 168.424 108.817 164.667 102.578 159.582 96.069 152.022 89.119 151.363 81.487 150.639 75.315 159.64 68.764 164.685 64.08 168.292 61.683 168.487 58.176 163.095 45.586 143.737 32.572 124.649 19.437 105.652 16.169 100.926 15.647 96.596 17.136 91.116 22.8 70.266 27.94 49.275 33.481 28.39 34.879 23.121 34.544 18.314 32.613 13.23 28.976 3.649 25.804-6.108 21.924-17.273 25.916-15.753 28.313-15.016 30.559-13.958 46.247-6.566 62.168 .395 77.462 8.529 85.551 12.831 92.028 12.48 100.004 8.375 117.409-.583 135.337-8.534 155.668-18.131M366.504 72.271C357.103 59.105 348.606 47.536 340.511 35.696 337.452 31.222 333.796 28.171 328.824 25.964 308.481 16.934 288.362 7.399 267.982-1.548 262.914-3.774 261.124-6.643 261.459-12.021 262.284-25.256 262.308-38.545 263.281-51.766 264.737-71.525 262.354-91.599 268.444-110.996 274.316-129.702 280.836-148.292 285.204-167.359 289.637-186.711 305.608-195.579 318.23-210.016 319.867-203.078 320.852-198.04 322.253-193.119 326.741-177.365 327.72-160.741 334.904-145.63 354.723-103.944 374.237-62.115 393.921-20.365 395.687-16.621 396.906-13.107 395.364-8.825 385.892 17.477 376.598 43.842 366.504 72.271M-189.219 72.038C-199.184 43.546-208.545 16.714-217.972-10.094-219.261-13.76-217.9-16.799-216.4-19.98-205.341-43.437-194.141-66.831-183.365-90.417-168.438-123.084-150.098-154.482-145.229-190.972-144.624-195.509-142.871-199.883-142.055-204.406-141.298-208.607-139.793-209.597-136.669-206.328-124.699-193.801-110.394-183.565-106.803-164.322-103.598-147.149-96.984-130.612-91.956-113.769-90.313-108.265-87.882-102.738-87.597-97.131-86.131-68.362-85.391-39.557-84.026-10.781-83.784-5.684-85.887-3.768-90.056-1.911-110.636 7.258-131.026 16.852-151.634 25.959-156.628 28.166-160.314 31.241-163.367 35.638-171.543 47.411-179.951 59.025-189.219 72.038M338.305-262.984C342.749-261.966 343.561-258.573 345.171-256.062 384.883-194.14 424.589-132.215 464.125-70.182 466.94-65.765 470.051-63.907 475.288-63.871 490.615-63.766 505.938-62.92 521.264-62.866 528.605-62.84 529.14-60.665 526.426-54.328 506.563-7.955 487.049 38.566 467.348 85.008 466.65 86.654 466.653 89.223 463.303 89.287 462.357 87.494 461.233 85.529 460.259 83.493 432.146 24.709 403.855-33.991 376.022-92.906 359.658-127.545 339.057-160.621 341.526-201.693 342.738-221.852 339.534-242.274 338.305-262.984M-285.879 89.552C-287.307 88.728-287.689 88.645-287.778 88.437-308.493 39.924-329.15-8.613-349.945-57.091-351.946-61.757-350.089-62.505-346.009-62.601-330.395-62.966-314.784-63.788-299.171-63.799-292.881-63.803-289.378-66.171-286.079-71.356-246.588-133.424-206.874-195.351-167.163-257.279-165.784-259.43-165.138-262.664-160.926-262.797-162.777-231.36-164.733-200.334-166.342-169.289-166.755-161.327-168.956-154.159-172.382-147.046-200.912-87.812-229.297-28.509-257.722 30.775-267.053 50.235-276.371 69.702-285.879 89.552M11.282 409.025C12.507 412.732 13.012 414 13.346 415.31 29.457 478.651 45.488 542.012 61.767 605.309 63.15 610.686 61.541 612.847 56.889 615.222 22.162 632.958-12.418 650.982-47.022 668.956-51.162 671.106-55.402 672.615-60.085 673.25-86.143 676.777-112.176 680.491-138.228 684.065-139.634 684.258-141.81 685.399-142.239 681.986-91.578 591.91-40.72 501.485 11.282 409.025M164.852 411.55C165.602 411.367 166.352 411.183 167.102 410.999 218.175 501.7 269.248 592.401 321.205 684.67 296.405 681.237 273.837 678.195 251.297 674.951 242.494 673.684 233.457 673.634 225.219 669.34 190.626 651.308 156.01 633.316 121.256 615.594 115.81 612.817 114.667 609.83 116.184 604.03 123.766 575.039 130.907 545.934 138.236 516.877 147.091 481.764 155.978 446.659 164.852 411.55M88.6-536.218V-536.183C101.333-536.183 114.067-536.049 126.796-536.25 131.658-536.327 135.698-535.019 139.686-532.238 168.36-512.246 196.924-492.083 226.022-472.722 234.783-466.892 239.246-460.274 239.86-449.815 240.179-444.388 239.168-442.257 234.043-440.537 212.946-433.459 191.961-426.04 171.035-418.468 165.097-416.319 159.257-415.859 153.15-416.853 144.591-418.246 136.067-419.979 127.456-420.897 113.414-422.396 99.535-427.209 85.456-425.83 64.777-423.804 44.28-419.94 23.698-416.912 19.126-416.239 14.653-415.872 10.026-417.507-12.313-425.402-34.745-433.032-57.119-440.83-59.204-441.557-61.707-441.93-62.578-444.555-64.599-450.651-59.28-465.11-53.644-469.001-24.169-489.354 5.379-509.603 34.689-530.189 40.903-534.553 47.091-536.717 54.751-536.355 66.011-535.823 77.315-536.218 88.6-536.218M295.36 350.734C296.684 355.338 294.082 356.066 290.878 356.583 278.346 358.607 265.81 360.62 253.327 362.916 249.516 363.617 246.654 362.352 243.622 360.465 218.872 345.055 194.116 329.652 169.247 314.434 165.766 312.304 163.759 309.596 162.623 305.871 150.853 267.304 139.103 228.73 127.185 190.209 125.876 185.979 126.145 182.723 128.855 179.028 143.522 159.03 158.119 138.974 172.308 118.638 175.696 113.783 177.951 113.803 182.448 116.999 204.091 132.382 225.797 147.692 247.862 162.461 253.916 166.513 256.833 171.299 258.266 178.158 265.446 212.528 272.963 246.828 280.362 281.153 285.396 304.509 290.431 327.866 295.36 350.734M-73.526 363.274C-86.362 361.165-99.182 358.948-112.043 356.998-117.425 356.182-118.99 354.347-117.674 348.443-104.695 290.215-92.065 231.91-79.477 173.597-78.759 170.269-77.568 167.803-74.757 165.853-51.013 149.384-27.276 132.904-3.656 116.258 .086 113.621 2.002 114.158 4.615 117.841 19.144 138.321 33.885 158.652 48.703 178.925 51.356 182.555 51.777 185.924 50.448 190.185 38.426 228.718 26.546 267.294 14.701 305.881 13.545 309.647 11.582 312.274 8.099 314.408-16.788 329.658-41.534 345.135-66.331 360.531-68.533 361.897-70.676 363.472-73.526 363.274M534.662 599.353C508.576 603.669 483.064 607.871 457.561 612.132 453.876 612.748 450.743 611.184 447.531 609.971 397.816 591.198 348.128 572.352 298.386 553.651 294.082 552.033 291.163 549.647 288.883 545.563 267.234 506.784 245.378 468.119 223.615 429.403 222.69 427.756 221.01 426.244 222.185 423.385 227.401 424.369 232.717 425.347 238.023 426.379 307.49 439.884 376.937 453.494 446.453 466.745 452.987 467.99 454.639 470.603 454.549 476.849 454.209 500.498 454.577 524.157 454.282 547.807 454.215 553.132 455.846 555.92 460.662 558.401 482.237 569.517 503.587 581.069 524.958 592.574 528.136 594.286 531.945 595.213 534.662 599.353M-43.609 423.337C-44.541 425.821-44.796 426.905-45.32 427.839-67.627 467.6-90.004 507.322-112.21 547.139-114.279 550.849-117.458 552.23-120.98 553.559-171.29 572.543-221.604 591.519-271.895 610.557-274.644 611.597-277.31 612.595-280.286 612.103-305.769 607.892-331.251 603.671-357.048 599.401-355.461 595.832-352.767 595.233-350.55 594.051-328.103 582.079-305.73 569.965-283.111 558.326-278.322 555.862-276.802 553.196-276.88 547.893-277.217 524.812-276.639 501.715-277.222 478.645-277.421 470.776-275.204 467.854-267.323 466.365-205.422 454.666-143.618 442.457-81.776 430.448-69.45 428.054-57.089 425.843-43.609 423.337M-229.218-788.746C-228.508-787.888-227.792-787.365-227.544-786.674-209.554-736.625-188.447-687.881-179.757-634.54-166.007-550.144-146.991-466.595-139.758-381.169-139.468-377.743-139.262-374.413-140.62-370.981-148.366-351.419-156.007-331.814-163.431-312.129-164.957-308.083-167.138-306.587-171.219-307.678-187.102-311.924-203.37-311.463-219.512-310.794-228.229-310.433-230.556-312.785-230.537-321.662-230.201-474.227-230.254-626.793-230.169-779.358-230.167-782.347-230.952-785.494-229.218-788.746M405.161-787.452C405.79-787.335 406.42-787.217 407.049-787.1 407.185-785.744 407.441-784.389 407.442-783.033 407.474-628.16 407.464-473.287 407.596-318.415 407.6-312.836 405.933-310.799 400.203-310.854 382.884-311.022 365.463-312.153 348.441-307.573 343.442-306.228 341.938-309.348 340.476-313.15 333.23-331.986 325.871-350.779 318.498-369.565 317.32-372.567 316.59-375.552 316.965-378.812 320.748-411.73 323.425-444.817 328.522-477.53 334.77-517.634 342.565-557.52 350.555-597.328 359.258-640.693 363.408-685.12 381.661-726.316 390.494-746.254 397.389-767.047 405.161-787.452M224.661-169.296C224.269-168.343 223.765-166.998 223.173-165.692 206.39-128.672 189.575-91.666 172.845-54.622 171.32-51.247 168.917-49.22 165.671-47.57 142.24-35.657 118.817-23.723 95.553-11.491 90.711-8.945 86.823-8.791 81.923-11.373 58.682-23.62 35.277-35.555 11.878-47.501 8.656-49.145 6.266-51.173 4.734-54.569-11.854-91.345-28.464-128.112-45.316-164.768-47.551-169.63-46.644-172.615-42.814-175.948-33.458-184.094-24.193-192.365-15.284-200.988-11.183-204.958-8.055-204.926-3.303-201.979 24.668-184.631 52.951-167.78 80.867-150.346 86.597-146.768 90.696-146.771 96.426-150.355 124.341-167.815 152.6-184.728 180.618-202.028 184.895-204.669 187.941-205.237 191.966-201.38 201.545-192.2 211.589-183.501 221.45-174.614 222.95-173.262 224.622-172.036 224.661-169.296M-512.431-224.864C-511.679-225.34-510.927-225.816-510.175-226.292-509.172-224.994-508.211-223.662-507.161-222.404-461.662-167.923-416.149-113.454-370.683-58.946-369.228-57.201-368.007-55.166-367.088-53.086-341.929 3.862-316.873 60.856-291.61 117.758-289.696 122.07-290.076 124.973-292.958 128.664-308.766 148.902-324.416 169.265-339.841 189.793-343.41 194.543-345.949 195.003-350.834 191.271-368.949 177.431-387.393 164.015-405.833 150.604-409.337 148.055-411.109 144.663-412.702 140.913-435.354 87.595-458.104 34.317-480.656-19.044-485.118-29.6-489.799-39.945-491.107-51.785-494.996-86.992-499.916-122.084-504.312-157.237-507.129-179.765-509.732-202.321-512.431-224.864M687.417-225.678C688.092-225.441 688.768-225.204 689.443-224.967 689.041-220.569 688.752-216.157 688.219-211.774 682.69-166.294 677.348-120.789 671.422-75.36 669.68-61.996 670.399-48.073 665.073-35.39 640.178 23.886 615.01 83.048 589.954 142.257 588.592 145.476 586.991 148.342 583.997 150.522 565.316 164.118 546.641 177.727 528.198 191.64 523.327 195.316 520.703 194.55 517.153 189.846 501.855 169.574 486.294 149.496 470.566 129.554 467.079 125.132 466.813 121.652 469.156 116.402 493.596 61.631 517.709 6.715 541.859-48.185 544.322-53.784 547.577-58.748 551.519-63.452 592.111-111.892 632.581-160.434 673.105-208.93 677.813-214.564 682.643-220.098 687.417-225.678M-565.202-73.349C-564.757-73.558-564.312-73.767-563.867-73.976-562.649-71.739-561.301-69.561-560.231-67.255-526.76 4.943-493.253 77.124-459.972 149.409-456.932 156.011-452.551 160.721-446.648 164.704-411.455 188.45-376.26 212.197-341.385 236.401-335.6 240.415-331.822 240.088-326.149 236.57-289.321 213.733-252.457 190.937-215.136 168.917-203.771 162.211-191.09 158.331-177.037 160.88-159.701 164.024-142.158 166.022-124.714 168.58-122.504 168.904-119.502 168.143-118.362 170.449-116.816 173.577-120.359 174.88-121.896 176.59-146.211 203.631-170.644 230.565-195.115 257.467-196.838 259.361-198.887 261.089-201.078 262.412-238.912 285.24-276.15 309.075-315.402 329.515-319.836 331.824-323.821 332.441-328.592 331.093-353.891 323.943-379.218 316.892-404.594 310.024-409.889 308.591-413.6 305.983-416.807 301.397-446.569 258.829-476.521 216.391-506.604 174.048-509.872 169.448-511.943 164.666-513.145 159.262-522.219 118.485-531.373 77.726-540.502 36.961-548.736 .191-556.969-36.579-565.202-73.349M741.286-75.238C742.079-73.009 742.3-72.718 742.249-72.486 724.845 6.007 707.422 84.495 690.005 162.985 689.309 166.12 688.016 168.955 686.151 171.583 655.244 215.136 624.321 258.677 593.53 302.31 590.686 306.341 587.316 308.516 582.52 309.812 556.848 316.748 531.256 323.983 505.692 331.309 500.858 332.694 496.986 331.743 492.612 329.457 456.704 310.69 422.389 289.237 387.878 268.113 382.487 264.813 376.671 262.15 372.278 257.303 347.65 230.133 322.925 203.051 298.294 175.883 297.005 174.461 294.534 173.213 295.171 171.03 295.959 168.33 298.879 168.871 301.074 168.547 316.518 166.265 332.1 164.668 347.376 161.571 366.49 157.695 383.222 162.46 399.301 172.371 434.234 193.904 469.362 215.122 504.288 236.667 509.264 239.736 512.976 240.327 518.232 236.69 554.36 211.695 590.708 187.015 627.105 162.409 631.14 159.681 633.891 156.387 635.878 152.086 659.947 99.972 684.047 47.873 708.184-4.21 718.949-27.44 729.811-50.625 741.286-75.238M-377.793-667.123C-377.222-667.124-376.651-667.125-376.08-667.126-370.683-643.881-364.802-620.733-360.071-597.353-357.255-583.436-351.627-571.664-342.558-560.615-315.087-527.145-288.475-492.976-261.313-459.252-257.806-454.897-256.41-450.552-256.425-445.095-256.533-406.148-256.751-367.196-256.201-328.256-256.038-316.711-257.69-306.936-266.712-298.744-272.216-293.747-276.484-287.376-281.189-281.529-315.204-239.26-349.172-196.953-383.195-154.69-392.481-143.154-392.523-143.213-398.313-156.427-408.728-180.201-419.197-203.951-429.592-227.733-436.124-242.675-442.562-257.657-449.785-274.336-445.313-272.871-442.618-272.16-440.057-271.12-421.313-263.512-402.503-256.054-383.932-248.046-378.659-245.772-375.805-246.45-372.722-251.239-368.358-258.018-363.322-264.379-358.381-270.771-356.098-273.725-355.502-276.546-356.128-280.345-369.159-359.354-382.051-438.387-394.887-517.428-397.419-533.019-400.609-548.396-396.964-564.536-392.082-586.157-388.73-608.121-384.705-629.935-382.417-642.334-380.098-654.727-377.793-667.123M553.35-666.49C553.904-666.552 554.458-666.615 555.013-666.677 555.589-664.81 556.363-662.978 556.713-661.069 562.018-632.169 567.496-603.298 572.421-574.333 574.481-562.217 577.928-550.302 575.822-537.561 562.901-459.396 551.172-381.024 537.094-303.07 533.388-282.549 535.442-266.626 549.759-251.484 554.246-246.738 556.856-246.045 562.431-248.458 580.46-256.259 598.713-263.547 616.93-270.909 619.664-272.014 622.328-274.409 626.065-272.465 624.984-269.703 624.038-267.007 622.893-264.398 606.897-227.961 590.883-191.532 574.851-155.111 569.707-143.423 569.678-143.435 561.587-153.238 561.219-153.684 560.854-154.131 560.493-154.582 520.087-205.074 480.127-255.926 438.575-305.495 434.976-309.788 433.598-314.186 433.623-319.676 433.811-360.063 433.96-400.452 433.687-440.837 433.631-449.087 435.832-455.555 441.059-462.03 470.066-497.958 498.648-534.227 527.436-570.331 530.914-574.693 533.257-579.289 534.497-584.874 540.546-612.131 547.024-639.294 553.35-666.49M-24.358-959.239C-14.322-946.494-5.468-934.846 3.866-923.594 7.542-919.163 8.591-915.044 7.256-909.399 1.42-884.722-3.922-859.93-9.651-835.227-10.633-830.991-10.691-827.858-7.18-824.411 23.314-794.48 53.682-764.42 83.836-734.15 87.774-730.197 89.653-730.691 93.301-734.328 123.557-764.492 153.997-794.473 184.487-824.403 187.498-827.358 188.409-830.04 187.389-834.302 181.755-857.832 176.94-881.567 170.86-904.977 168.565-913.814 170.001-920.123 175.927-926.881 184.725-936.916 192.545-947.804 201.533-959.289 203.451-954.066 204.798-950.597 206.004-947.081 220.409-905.104 234.675-863.079 249.313-821.183 251.396-815.221 251.016-810.393 248.38-804.749 223.981-752.495 199.023-700.474 176.086-647.584 168.537-630.177 158.928-618.966 140.114-615.45 134.934-614.482 131.729-614.703 127.978-618.572 116.728-630.179 104.885-641.213 93.597-652.784 90.033-656.437 87.901-657.183 84.05-653.043 76.982-645.444 68.114-639.286 62.055-631.026 50.538-615.326 37.507-611.973 20.268-621.043 15.469-623.569 11.732-625.646 9.331-630.881-17.603-689.589-44.776-748.187-71.984-806.769-73.934-810.967-74.077-814.607-72.521-819.099-60.44-853.957-48.71-888.935-36.801-923.852-32.933-935.193-28.858-946.464-24.358-959.239M246.589-285.153C246.646-284.63 246.703-284.107 246.759-283.584 261.998-282.32 277.251-281.214 292.47-279.75 309.215-278.138 309.221-277.997 311.183-261.646 311.595-258.214 311.565-254.718 312.149-251.321 313.262-244.85 311.299-239.821 306.833-234.916 297.899-225.103 289.518-214.784 281.014-204.586 278.733-201.85 276.291-199.824 272.687-198.85 242.479-190.687 242.494-190.641 220.08-212.059 219.04-213.053 217.809-213.863 216.848-214.922 209.306-223.23 199.622-229.603 193.658-239.287 183.675-255.497 174.093-271.953 164.379-288.327 162.446-291.586 160.44-294.431 156.515-295.868 135.624-303.519 114.794-311.335 94.006-319.258 89.918-320.815 86.273-320.49 82.3-318.966 68.81-313.793 55.513-307.824 41.626-304.05 23.458-299.115 11.199-289.189 2.816-272.063-4.083-257.97-11.362-243.506-22.349-231.875-33.839-219.71-46.253-208.417-58.136-196.615-60.788-193.981-63.392-192.486-67.302-193.175-86.399-196.541-103.269-201.159-116.664-218.655-129.118-234.922-138.432-249.269-133.393-270.396-131.965-276.381-130.647-278.461-124.559-278.873-106.048-280.126-87.583-282.048-67.02-283.896-70.431-285.869-71.837-286.794-73.336-287.531-89.927-295.693-106.556-303.777-123.109-312.013-125.802-313.353-129.073-314.094-129.637-318.162-131.726-333.251-134.831-347.635-118.811-358.98-111.664-364.042-107.256-366.035-99.298-362.344-87.526-356.882-75.167-352.68-63.058-347.941-68.568-358.638-74.685-368.055-81.343-377.075-84.318-381.105-84.728-384.53-82.535-388.946-77.917-398.245-73.423-407.622-69.353-417.168-67.356-421.852-64.655-422.837-59.914-421.819-13.589-411.876 32.789-402.182 79.094-392.148 85.5-390.759 91.488-390.691 97.875-392.073 144.173-402.095 190.531-411.836 236.833-421.838 241.961-422.946 244.746-421.915 246.85-416.807 250.579-407.752 254.828-398.878 259.395-390.209 262.179-384.923 261.776-380.876 258.247-376 251.836-367.14 244.972-358.486 239.223-347.208 254.513-353.319 268.135-358.805 281.796-364.191 284.629-365.307 287.367-367.142 290.575-364.295 302.612-353.615 314.609-343.035 308.014-324.314 307.825-323.778 307.699-323.173 307.735-322.612 308.13-316.443 304.537-313.696 299.329-311.221 281.619-302.805 264.15-293.882 246.589-285.153M-551.371-415.924C-553.066-386.04-554.725-358.431-556.173-330.812-557.591-303.742-558.304-276.624-560.299-249.599-561.283-236.275-558.117-223.842-555.438-211.217-549.635-183.869-543.506-156.589-537.55-129.273-537.198-127.66-537.2-125.97-536.864-122.553-568.757-137.485-599.379-151.822-631.739-166.972-627.59-149.82-623.945-134.516-620.183-119.24-595.445-18.77-570.659 81.689-545.986 182.175-544.515 188.162-542.094 193.4-538.368 198.363-509.774 236.457-481.45 274.752-452.772 312.782-448.94 317.864-448.686 320.156-454.594 323.818-485.547 343.006-516.089 362.853-547.024 382.07-553.82 386.292-553.029 388.097-546.934 392.149-475.946 439.354-405.109 486.784-334.264 534.2-331.938 535.757-329.098 536.827-327.364 540.387-366.81 563.721-406.232 587.041-447.91 611.696-432.643 614.264-419.735 616.441-406.826 618.606-363.489 625.873-320.146 633.105-276.824 640.463-273.584 641.013-270.568 640.831-267.402 640.226-227.366 632.582-187.318 624.995-147.264 617.443-145.355 617.083-143.359 617.179-139.251 616.935-171.251 647.262-201.849 676.261-232.599 705.403-229.514 708.093-226.813 707.1-224.378 707.102-165.326 707.165-106.274 707.081-47.223 707.256-41.387 707.273-36.599 705.325-31.701 702.725 6.084 682.663 43.969 662.789 81.654 642.544 86.945 639.702 90.901 640.052 96.003 642.777 134.499 663.341 173.158 683.604 211.727 704.032 215.097 705.818 218.347 707.267 222.323 707.263 283.69 707.193 345.058 707.222 406.426 707.202 407.483 707.202 408.541 706.881 411.354 706.426 379.702 676.465 349.067 647.465 318.431 618.465 318.681 617.829 318.932 617.194 319.182 616.558 330.316 618.623 341.458 620.646 352.582 622.76 383.811 628.693 414.944 635.195 446.301 640.353 458.57 642.372 470.839 637.558 483.04 635.605 527.55 628.481 571.977 620.845 616.428 613.365 618.678 612.987 620.87 612.267 624.647 611.312 607.653 601.235 591.849 591.844 576.027 582.485 554.626 569.827 533.336 556.975 511.728 544.68 505.049 540.88 503.974 539.122 511.143 534.352 581.153 487.762 650.963 440.873 720.827 394.065 723.916 391.995 726.977 389.883 731.148 387.043 716.813 377.841 703.296 369.13 689.743 360.474 670.5 348.183 651.401 335.651 631.869 323.831 625.815 320.167 626.318 317.71 630.052 312.757 658.729 274.719 687.102 236.452 715.751 198.394 719.316 193.658 721.72 188.721 723.121 183.021 751.206 68.817 779.363-45.368 807.504-159.558 807.975-161.469 808.957-163.349 807.475-166.363 796.085-161.068 784.673-155.818 773.309-150.465 756.316-142.46 739.376-134.343 722.363-126.382 720.154-125.348 717.613-122.717 715.331-124.718 713.241-126.552 714.877-129.631 715.413-132.095 722.33-163.917 729.084-195.776 736.352-227.519 739.263-240.235 737.374-252.854 736.812-265.44 734.755-311.532 732.083-357.596 729.612-403.67 729.431-407.056 729.015-410.431 728.555-415.505 680.251-374.448 633.089-334.362 584.691-293.226 583.911-304.774 586.698-314.163 588.135-323.585 601.042-408.198 614.212-492.772 627.42-577.34 628.531-584.451 627.343-590.823 624.74-597.515 597.875-666.587 571.268-735.759 544.567-804.895 543.449-807.79 542.111-810.6 540.064-815.325 533.904-785.035 528.146-756.682 522.371-728.333 512.996-682.303 503.619-636.274 494.198-590.253 493.798-588.299 493.34-586.176 492.256-584.57 474.513-558.262 456.664-532.026 436.639-506.041 438.113-635.666 439.586-765.291 441.063-895.14 436.345-894.956 434.207-892.363 431.753-890.568 412.63-876.577 393.902-862.017 374.349-848.657 367.158-843.743 365.171-837.76 364.216-830.144 361.529-808.699 358.579-787.288 355.704-765.867 355.568-764.852 355.159-763.874 354.178-760.412 332.56-830.896 311.638-899.111 290.717-967.327 290.181-967.338 289.645-967.35 289.109-967.361 282.948-922.365 276.787-877.369 270.626-832.372 269.994-832.361 269.362-832.35 268.73-832.339 249.534-895.012 230.337-957.684 211.074-1020.576 206.327-1018.661 204.626-1015.107 202.252-1012.33 183.298-990.159 164.494-967.861 145.505-945.72 141.932-941.554 140.348-937.748 141.348-931.787 146.644-900.23 151.133-868.539 156.195-836.942 157.014-831.831 156.122-828.46 152.053-824.962 132.553-808.199 113.24-791.213 94.118-774.023 90.042-770.358 87.372-770.142 83.248-773.856 64.357-790.871 45.313-807.722 26.095-824.369 21.633-828.234 20.522-832.169 21.447-837.886 26.599-869.761 31.346-901.7 36.365-933.596 36.879-936.867 37.177-939.565 34.744-942.405 12.764-968.07-9.082-993.848-30.995-1019.57-31.321-1019.953-31.991-1020.045-33.503-1020.72-52.737-957.916-71.926-895.258-91.115-832.6-91.777-832.59-92.439-832.581-93.102-832.571-99.239-877.316-105.376-922.061-111.513-966.806-112.084-966.896-112.656-966.987-113.227-967.078-134.124-899.11-155.021-831.143-175.919-763.175-176.561-763.199-177.204-763.224-177.846-763.248-180.208-780.685-182.837-798.091-184.869-815.566-187.916-841.785-187.746-841.795-208.836-857.242-226.51-870.187-244.163-883.16-263.661-897.467-262.172-766.04-260.705-636.458-259.239-507.039-262.848-505.791-263.052-508.651-263.997-510.036-280.443-534.116-296.755-558.288-313.212-582.361-316.111-586.602-316.896-591.388-317.868-596.179-332.139-666.511-346.393-736.848-360.67-807.18-361.127-809.431-361.794-811.639-362.849-815.767-368.064-802.501-372.717-790.842-377.24-779.133-401.036-717.521-424.752-655.878-448.654-594.306-450.748-588.91-450.813-583.732-449.964-578.216-435.847-486.483-421.785-394.741-407.705-303.002-407.315-300.461-406.483-297.937-408.102-293.83-455.562-334.275-502.597-374.359-551.371-415.924" fill="#231f20"/>
</g>
</g>
</svg>
