<svg xmlns="http://www.w3.org/2000/svg" width="2048" height="1920" viewBox="0 0 2048 1920"><defs><clipPath id="clip_1"><path d="M0 0h2048v1920H0Z"/></clipPath></defs><g clip-path="url(#clip_1)"><path fill="#231f20" d="M935.739 803.28c3.39-5.754 5.54-10.128 8.358-14.021 4.45-6.147 4.907-11.962 1.895-19.157-4.881-11.658-8.57-23.814-12.722-35.773-4.883-14.068-4.85-14.052-17.39-5.347-3.328 2.31-6.894 4.007-4.79 9.42 8.125 20.898 15.954 41.91 24.649 64.878m177.243-.008c7.507-19.565 14.47-37.443 21.225-55.398 5.594-14.874 5.373-14.751-7.603-23.477-4.554-3.062-6.712-2.913-8.563 2.624-5.387 16.107-11.121 32.1-16.841 48.095-.906 2.534-1.745 4.82-.235 7.39 3.76 6.4 7.442 12.847 12.017 20.766m339.935 87.657c-5.193 0-10.387-.063-15.578.033-1.935.036-4.545-.966-5.648.89-1.523 2.564 1.309 4.092 2.71 5.642 10.807 11.956 22.063 23.527 32.479 35.807 4.647 5.479 8.35 5.145 13.91 1.935 15.18-8.766 14.483-8.203 6.985-24.017-7.261-15.315-15.951-25.915-34.858-20.29m-857.006-.02c-17.318-4.434-26.873 3.318-33.954 18.835-8.237 18.05-9.142 17.44 8.852 26.916 4.19 2.207 6.523 1.683 9.546-1.7 10.74-12.014 21.832-23.716 32.619-35.69 1.829-2.03 5.682-4 4.494-6.76-1.445-3.358-5.633-1.267-8.58-1.51-4.298-.354-8.648-.091-12.977-.091m299.404 457.224-2.248.069-7.188 109.038c-.34 5.162 2.01 4.52 5.029 2.297 11.143-8.211 22.24-16.483 33.43-24.63 2.712-1.973 3.62-3.977 2.299-7.304-10.515-26.46-20.898-52.973-31.322-79.47m260.577-.004-2.076-.022c-8.728 21.905-17.408 43.83-26.2 65.709-7.268 18.089-7.413 18.184 8.587 29.678 8.483 6.094 16.348 13.168 27.12 18.734-2.542-39.051-4.987-76.575-7.431-114.1m259.458-443.666c-10.137 14.884-18.841 27.7-27.596 40.482-1.485 2.168-1.461 4.137-.158 6.4 8.323 14.478 16.623 28.969 24.81 43.523 2.084 3.703 3.853 4.215 7.062.97 6.278-6.35 12.939-12.324 19.416-18.482 2.14-2.037 3.832-4.015 2.429-7.5-8.473-21.048-16.767-42.17-25.963-65.393m-781.633-.04c-6.02 15.05-11.481 28.012-16.377 41.18-3.485 9.373-11.645 18.935-9.398 27.986 2.23 8.988 13.665 14.092 20.444 21.499 3.717 4.062 6.125 4.024 8.897-1.054 7.72-14.146 15.736-28.134 23.75-42.118 1.424-2.486 1.948-4.57.185-7.133-8.78-12.76-17.454-25.59-27.501-40.36M795.966 455.57c-1.291.92-2.17 1.266-2.618 1.91-13.69 19.652-27.232 39.407-41.07 58.955-2.961 4.185-.285 6.219 1.94 8.806 23.146 26.914 46.257 53.857 69.488 80.698 1.73 1.999 2.83 5.104 6.88 5.226zm422.15 155.467c2.928.33 3.832-1.306 4.934-2.58 23.958-27.697 47.824-55.474 71.949-83.027 3.55-4.056 3.504-6.854.473-11.121-13.02-18.33-25.683-36.913-38.534-55.363-.857-1.231-1.432-3.246-4.181-2.52zm424.49 551.794c0-27.212-.018-51.685.024-76.158.006-3.324-2.08-5.237-4.29-7.122-18.677-15.935-37.352-31.87-56.078-47.746-1.447-1.227-2.835-3.454-5.117-2.44-2.365 1.05-1.348 3.558-1.36 5.424-.092 15.293 1.126 30.706-.394 45.85-1.82 18.129 3.827 30.729 18.947 41.456 16.358 11.604 30.842 25.834 48.269 40.736M1203.38 974.235c-1.28-5.921-2.29-10.34-3.186-14.781-5.28-26.191-14.508-51.586-16.193-78.498-1.35-21.546-2.513-43.106-3.566-64.67-.276-5.663-1.02-8.248-7.19-4.066-12.887 8.74-26.037 17.11-39.305 25.269-4.606 2.832-5.385 5.436-3.202 10.452 14.593 33.526 29.744 66.856 42.819 100.97 5.498 14.347 15.415 20.336 29.823 25.324m-796.768 188.369c22.765-19.56 43.484-37.368 64.215-55.163 2.239-1.923 2.288-4.466 2.287-7.104-.008-21.912.039-43.825-.012-65.738-.004-1.882.918-4.366-1.283-5.49-2.34-1.194-3.606 1.24-5.02 2.447-18.89 16.093-37.704 32.273-56.58 48.382-2.051 1.75-3.656 3.447-3.647 6.434.07 24.47.04 48.942.04 76.232M919.3 845.037c1.293-4.315-.948-5.137-2.545-6.175-14.264-9.27-28.584-18.457-42.855-27.717-3.628-2.354-5-1.432-5.18 2.812-.4 9.494-1.178 18.972-1.622 28.465-1.374 29.333-2.61 58.63-11.251 87.085-3.841 12.647-6.441 25.677-9.34 38.592-.402 1.8-2.147 7.162 1.839 5.216 8.39-4.098 18.752-5.385 23.236-16.173 14.92-35.893 30.49-71.516 45.798-107.248.906-2.114 1.692-4.278 1.92-4.857m-159.854 248.815c-.927-2.47-1.18-3.596-1.732-4.55-22.682-39.286-49.667-75.74-75.032-113.26-3.6-5.325-5.252-2.007-7.128 1.295-8.41 14.8-16.592 29.736-25.394 44.302-2.995 4.957-2.267 7.994 1.426 12.003 15.06 16.35 29.832 32.968 44.668 49.524 1.942 2.168 3.686 4.547 6.862 4.877 18.366 1.912 36.735 3.792 56.33 5.809m529.276.133c20.21-2.103 38.3-3.953 56.379-5.9 3.026-.326 5.11-2.322 7.108-4.545 15.246-16.971 30.479-33.955 45.943-50.728 3.348-3.631 3.418-6.4.94-10.577-8.535-14.395-16.868-28.922-24.802-43.654-3.51-6.517-5.578-6.433-9.655-.38-15.154 22.5-30.734 44.717-46.116 67.066-10.45 15.182-19.565 31.156-29.797 48.718m-344.04-70.964c26.057 8.249 49.742 15.717 73.402 23.266 4.008 1.279 7.869 1.373 11.899.104 21.758-6.847 43.56-13.556 65.29-20.495 2.237-.715 5.977-.337 6.159-3.614.128-2.316-2.875-3.345-4.724-4.627-22.065-15.306-44.284-30.397-66.161-45.965-4.997-3.556-8.301-2.951-12.93.368-15.72 11.276-31.767 22.097-47.656 33.139-7.95 5.525-15.825 11.153-25.28 17.824M705.66 786.654c9.307-21.866 17.216-41.596 26.122-60.868 4.217-9.124 5.163-17.955 3.265-27.547-1.284-6.49-2.957-13.101-2.847-19.631.294-17.548-7.083-28.375-23.9-34.931-15.153-5.907-29.151-14.755-45.246-23.132 2.474 24.278 4.622 46.865 7.138 69.412 1.274 11.424-.133 23.647 4.448 34.107 8.993 20.528 19.816 40.26 31.02 62.59m680.574-166.626c-22.326 11.66-42.721 22.323-63.127 32.962-3.687 1.923-3.792 5.497-4.272 8.906-1.728 12.259-3.732 24.49-5.028 36.796-.62 5.887-3.242 11.765-.618 17.87 9.102 21.176 18.083 42.404 27.158 63.592.645 1.506.785 3.702 2.859 3.97 2.254.294 2.628-1.961 3.284-3.373 13.469-28.977 32.648-55.505 32.953-89.768.204-22.9 4.238-45.765 6.79-70.955m-154.475 1040.528 1.906.04c9.788-31.877 19.64-63.736 29.259-95.664.877-2.91.68-6.32.278-9.405-4.624-35.393-9.45-70.76-14.047-106.155-.824-6.341-2.617-7.275-7.905-3.255-16.766 12.748-33.66 25.339-50.82 37.553-5.07 3.608-5.566 6.633-2.982 12.08 13.83 29.15 27.188 58.526 40.932 87.719 2.409 5.117 3.49 10.176 3.445 15.783-.166 20.434-.066 40.869-.066 61.304m-416.472-.114 2.125-.05c0-19.263.343-38.535-.155-57.785-.224-8.682 1.855-16.331 5.485-24.041 13.14-27.913 25.834-56.036 39.07-83.904 2.392-5.035 1.464-7.512-2.807-10.587-16.88-12.151-33.517-24.635-50.236-37.006-7.196-5.324-7.658-5.213-8.9 3.75-3.68 26.549-7.501 53.083-10.731 79.687-1.382 11.387-6.28 23.044-3.14 34.199 9.039 32.115 19.43 63.85 29.289 95.737m96.029-955.311.57-2.485c-25.27-16.106-50.532-32.224-75.817-48.307-3.197-2.033-6.776-1.162-10.153-.746-15.486 1.906-30.975 3.82-46.417 6.052-8.198 1.185-19.285-1.024-23.82 4.546-4.838 5.945-.948 16.617-1.47 25.206-.656 10.794.386 20.876 6.864 30.39 6.795 9.979 12.285 20.864 18.022 31.525 2.2 4.088 5.269 6.48 9.437 8.262 40.09 17.139 80.12 34.419 120.193 51.598 1.992.854 3.944 2.626 6.849 1.116-.377-.994-.62-2.046-1.138-2.938-25.156-43.178-25.16-43.176-69.215-67.28-1.014-.554-2.031-1.102-3.047-1.655-18.26-9.943-36.441-20.038-54.835-29.728-4.89-2.577-6.713-6.903-6.452-11.224.245-4.08 5.398-3.2 8.498-3.994 6.704-1.717 13.687-2.497 20.24-4.623 15.826-5.133 30.853-5.207 45.729 3.476 6.665 3.89 14.542 5.652 21.527 9.074 11.5 5.633 22.956 1.77 34.435 1.735m225.93.034c12.002.087 23.707 3.67 35.522-1.906 9.918-4.68 20.395-8.171 30.397-12.69 7.676-3.468 15.054-4.612 23.427-2.287 11.394 3.163 23.117 5.135 34.647 7.837 2.336.548 6.3-.007 6.518 2.903.26 3.474-.481 7.482-3.906 9.907-1.41.998-2.955 1.814-4.477 2.642-17.762 9.666-35.504 19.37-53.303 28.967-44.423 23.952-44.443 23.927-70.575 67.159-.887 1.466-3.22 2.808-1.323 5.129.65 0 1.286.176 1.76-.026 42.279-17.977 84.529-36.02 126.839-53.923 3.537-1.496 5.335-4.11 7.033-7.182a6160 6160 0 0 1 21.924-39.317c1.424-2.532 2.863-4.946 2.846-8.017-.064-12.117-.102-24.235.014-36.351.037-3.922-1.44-5.448-5.482-5.935a4042 4042 0 0 1-67.955-8.79c-4.67-.643-8.33.556-12.157 3.044-22.038 14.329-44.214 28.448-66.274 42.743-2 1.296-4.998 1.813-5.474 6.093M813.97 1191.663c-.738 2.259-1.065 2.8-1.072 3.347-.883 70.866-1.707 141.732-2.687 212.596-.065 4.694 1.965 7.385 5.557 9.854 13.795 9.48 27.452 19.159 41.194 28.715 8.063 5.606 8.292 5.593 9.71-4.365 5.476-38.471 10.002-77.102 16.607-115.377 2.606-15.098-.441-25.388-13.25-33.324-9.215-5.71-12.967-14.54-14.705-25.074-2.435-14.75-6.064-29.306-9.3-43.92-.55-2.481-.986-5.6-2.664-7.12-9.323-8.435-19.013-16.468-29.39-25.332m424.978 128.864h-1.726c0-15.577.137-31.156-.031-46.732-.268-24.795-.65-49.59-1.294-74.377-.051-1.954 1.67-9.844-4.224-4.996-14.346 11.802-31.274 21.923-32.3 44.143-.457 9.93-4.426 19.652-5.996 29.594-1.657 10.486-5.772 19.23-14.838 25.057-12.18 7.826-15.764 17.52-13.148 32.537 6.72 38.582 11.172 77.556 16.654 116.356 1.352 9.57 1.6 9.586 9.87 3.899 14.04-9.655 27.949-19.506 42.109-28.984 3.86-2.585 5.055-5.501 5.024-10.015-.196-28.826-.1-57.654-.1-86.482m-148.071-882.41c-3.627-1.147-5.292.838-7.188 1.905-15.622 8.79-31.697 16.909-46.615 26.766-9.41 6.216-16.386 5.782-25.616-.087-16.726-10.636-34.335-19.895-51.66-29.778-1.565 3.16-.553 5.369-.011 7.529 11.995 47.809 24.865 95.422 35.63 143.504 4.05 18.085 14.494 30.85 25.66 43.968 1.257 1.475 2.904 4.068 4.766 1.666 8.05-10.38 20.155-18.115 23.666-31.443 9.77-37.086 18.82-74.361 28.163-111.56 4.395-17.498 8.806-34.994 13.205-52.47M752.38 448.796l.315-1.825c-1.447-.853-2.885-1.722-4.342-2.558-36.57-20.993-73.117-42.022-109.74-62.92-4.191-2.391-7.094-5.343-9.106-9.85-7.988-17.89-16.498-35.55-24.5-53.434-2.033-4.543-3.594-5.432-8.086-2.482-47.304 31.058-94.72 61.947-142.195 92.744-5.045 3.273-6.04 5.22-.064 8.65 13.523 7.759 26.789 15.969 40.075 24.133 2.83 1.739 5.579 2.585 8.952 2.377 20.19-1.243 40.392-2.334 60.593-3.435 36.329-1.981 72.559-5.291 109 .216 26.189 3.957 52.719 5.67 79.098 8.384m543.088-1.618.645 1.798c17.804-1.897 35.578-4.16 53.419-5.606 28.205-2.285 56.154-7.831 84.696-5.984 35.498 2.297 71.036 3.98 106.542 6.166 6.006.37 11.114-.415 16.347-3.805 12.118-7.85 24.58-15.192 37.1-22.398 5.589-3.215 6.44-5.04.298-9.005a19950 19950 0 0 1-141.606-92.278c-5.132-3.374-7.038-2.485-9.35 2.77-7.197 16.368-15.077 32.438-22.176 48.845-3.016 6.969-7.315 11.805-14.055 15.515-22.023 12.122-43.733 24.812-65.543 37.316-15.456 8.86-30.88 17.776-46.317 26.666M1091.407 821.41c-4.113-11.824-7.115-21.35-10.764-30.621-2.338-5.94-2.392-11.445-.7-17.576 5.599-20.278 10.552-40.734 16.156-61.011 1.612-5.83.754-10.32-2.691-15.275-13.02-18.726-25.842-37.596-38.272-56.713-3.488-5.365-5.971-5.36-10.58-1.602-6.24 5.085-12.748 12.645-19.698 13.304-7.632.724-13.804-8.277-20.355-13.322-4.684-3.607-7.081-3.802-10.588 1.59-12.59 19.358-25.604 38.446-38.74 57.443-3.267 4.726-3.79 9.056-2.3 14.536 5.664 20.85 10.804 41.84 16.345 62.726 1.398 5.269 1.063 10.076-.868 15.16-3.637 9.58-6.81 19.338-10.69 30.503 3.993-1.52 6.39-2.257 8.636-3.315 15.688-7.392 31.609-14.353 46.903-22.487 8.089-4.302 14.566-3.951 22.542.154 17.405 8.958 35.333 16.909 55.664 26.506m210.836-90.402c-9.401 13.166-17.898 24.735-25.993 36.575-3.06 4.474-6.715 7.525-11.687 9.732-20.343 9.03-40.462 18.565-60.842 27.512-5.068 2.226-6.858 5.095-6.523 10.473.825 13.235.849 26.524 1.822 39.745 1.456 19.759-.927 39.833 5.163 59.23 5.872 18.706 12.392 37.296 16.76 56.363 4.433 19.352 20.404 28.22 33.026 42.657 1.637-6.938 2.622-11.976 4.023-16.897 4.488-15.754 5.467-32.378 12.65-47.49 19.82-41.685 39.334-83.514 59.018-125.264 1.766-3.744 2.985-7.258 1.443-11.54-9.472-26.302-18.766-52.667-28.86-81.096m-555.723.233c-9.965 28.492-19.326 55.324-28.753 82.132-1.29 3.666.072 6.705 1.572 9.886 11.059 23.457 22.259 46.85 33.035 70.437 14.927 32.667 33.267 64.065 38.136 100.555.605 4.537 2.358 8.91 3.174 13.434.757 4.2 2.262 5.19 5.386 1.922 11.97-12.527 26.275-22.763 29.866-42.006 3.205-17.173 9.819-33.71 14.847-50.553 1.643-5.504 4.074-11.031 4.359-16.638 1.466-28.77 2.206-57.574 3.57-86.35.243-5.097-1.86-7.013-6.03-8.87-20.58-9.17-40.97-18.763-61.577-27.87-4.994-2.207-8.68-5.282-11.733-9.68-8.176-11.772-16.584-23.386-25.852-36.4m527.524 335.023c4.444-1.018 5.256-4.411 6.866-6.922 39.712-61.922 79.418-123.847 118.954-185.88 2.815-4.417 5.926-6.275 11.163-6.311 15.327-.105 30.65-.951 45.976-1.005 7.34-.026 7.876-2.201 5.162-8.538-19.863-46.373-39.377-92.894-59.078-139.336-.698-1.646-.695-4.215-4.045-4.28-.946 1.794-2.07 3.759-3.044 5.795-28.113 58.784-56.404 117.484-84.237 176.399-16.364 34.639-36.965 67.715-34.496 108.787 1.212 20.159-1.992 40.58-3.221 61.29M649.86 713.729c-1.428.824-1.81.907-1.9 1.115-20.714 48.513-41.371 97.05-62.166 145.528-2.001 4.666-.144 5.414 3.936 5.51 15.614.365 31.225 1.187 46.838 1.198 6.29.004 9.793 2.372 13.092 7.557 39.49 62.068 79.205 123.995 118.916 185.923 1.379 2.15 2.025 5.385 6.237 5.518-1.851-31.437-3.807-62.463-5.416-93.508-.413-7.962-2.614-15.13-6.04-22.243-28.53-59.234-56.915-118.537-85.34-177.821-9.331-19.46-18.65-38.927-28.157-58.777m297.16-319.473c1.226-3.707 1.73-4.975 2.065-6.285 16.11-63.341 32.142-126.702 48.42-190 1.384-5.376-.225-7.537-4.877-9.912-34.727-17.736-69.307-35.76-103.911-53.734-4.14-2.15-8.38-3.66-13.063-4.294-26.058-3.527-52.091-7.241-78.143-10.815-1.406-.193-3.582-1.334-4.011 2.079 50.66 90.076 101.519 180.5 153.52 272.96m153.57-2.524 2.25.55 154.104-273.67c-24.8 3.433-47.368 6.475-69.908 9.719-8.803 1.267-17.84 1.317-26.078 5.61-34.593 18.033-69.21 36.025-103.963 53.747-5.446 2.777-6.59 5.764-5.072 11.564 7.582 28.99 14.723 58.096 22.052 87.153 8.855 35.113 17.742 70.218 26.616 105.327m-76.252 947.768v-.035c12.733 0 25.467-.134 38.196.067 4.862.077 8.902-1.231 12.89-4.012 28.674-19.992 57.238-40.155 86.336-59.516 8.76-5.83 13.224-12.448 13.838-22.907.319-5.427-.692-7.558-5.817-9.278-21.097-7.078-42.082-14.497-63.008-22.07-5.938-2.148-11.778-2.608-17.885-1.614-8.56 1.393-17.083 3.126-25.694 4.044-14.042 1.499-27.921 6.312-42 4.933-20.68-2.026-41.176-5.89-61.758-8.918-4.572-.673-9.045-1.04-13.672.595-22.34 7.895-44.771 15.525-67.145 23.323-2.085.727-4.588 1.1-5.46 3.725-2.02 6.096 3.299 20.555 8.935 24.446 29.475 20.353 59.023 40.602 88.333 61.188 6.214 4.364 12.402 6.528 20.062 6.166 11.26-.532 22.564-.137 33.849-.137m206.76-886.952c1.324-4.604-1.278-5.332-4.482-5.85-12.532-2.023-25.068-4.036-37.551-6.332-3.811-.701-6.673.564-9.705 2.45-24.75 15.41-49.506 30.814-74.375 46.032-3.481 2.13-5.488 4.838-6.624 8.563-11.77 38.567-23.52 77.14-35.438 115.662-1.31 4.23-1.04 7.486 1.67 11.18 14.667 19.999 29.264 40.055 43.453 60.39 3.388 4.856 5.643 4.836 10.14 1.64 21.643-15.383 43.349-30.693 65.414-45.462 6.054-4.052 8.97-8.838 10.404-15.697 7.18-34.37 14.697-68.67 22.096-102.995zm-368.886-12.54c-12.836 2.109-25.656 4.326-38.517 6.276-5.382.816-6.947 2.65-5.631 8.555 12.979 58.228 25.609 116.533 38.197 174.846.718 3.328 1.909 5.794 4.72 7.744 23.744 16.469 47.48 32.949 71.1 49.595 3.743 2.637 5.659 2.1 8.272-1.583 14.529-20.48 29.27-40.811 44.088-61.084 2.653-3.63 3.074-7 1.745-11.26-12.022-38.533-23.902-77.11-35.747-115.696-1.156-3.766-3.12-6.393-6.602-8.527-24.887-15.25-49.633-30.727-74.43-46.123-2.202-1.366-4.345-2.941-7.195-2.743m608.188-236.08c-26.086-4.315-51.598-8.517-77.101-12.778-3.685-.616-6.818.948-10.03 2.16-49.715 18.774-99.403 37.62-149.145 56.32-4.304 1.619-7.223 4.005-9.503 8.089-21.65 38.779-43.505 77.444-65.268 116.16-.925 1.647-2.605 3.159-1.43 6.018 5.216-.984 10.532-1.962 15.838-2.994 69.467-13.505 138.914-27.115 208.43-40.366 6.534-1.245 8.186-3.858 8.096-10.104-.34-23.65.028-47.308-.267-70.958-.067-5.325 1.564-8.113 6.38-10.594 21.575-11.116 42.925-22.668 64.296-34.173 3.178-1.712 6.987-2.64 9.704-6.78M892.13 379.944c-.932-2.484-1.187-3.568-1.711-4.502-22.307-39.761-44.684-79.483-66.89-119.3-2.07-3.71-5.248-5.091-8.77-6.42-50.31-18.984-100.624-37.96-150.915-56.998-2.75-1.04-5.415-2.038-8.391-1.546-25.483 4.21-50.965 8.432-76.762 12.702 1.587 3.569 4.28 4.168 6.498 5.35 22.447 11.972 44.82 24.086 67.439 35.725 4.789 2.464 6.309 5.13 6.23 10.433-.336 23.08.242 46.178-.341 69.248-.2 7.869 2.018 10.79 9.899 12.28 61.9 11.699 123.705 23.908 185.547 35.917 12.326 2.394 24.687 4.605 38.167 7.11M706.52 1592.027c.71-.858 1.427-1.381 1.675-2.072 17.99-50.05 39.097-98.793 47.787-152.134 13.75-84.396 32.766-167.945 39.999-253.371.29-3.426.496-6.756-.862-10.188-7.746-19.562-15.387-39.167-22.811-58.852-1.526-4.046-3.707-5.542-7.788-4.451-15.883 4.246-32.151 3.785-48.293 3.116-8.717-.361-11.044 1.99-11.025 10.868.336 152.565.283 305.13.368 457.696.002 2.989-.783 6.136.95 9.388m634.38-1.294 1.888-.352c.136-1.356.392-2.711.393-4.067.032-154.873.022-309.746.154-464.618.004-5.58-1.663-7.616-7.393-7.561-17.32.168-34.74 1.299-51.762-3.281-5-1.345-6.503 1.775-7.965 5.577-7.246 18.836-14.605 37.629-21.978 56.415-1.178 3.002-1.908 5.987-1.533 9.247 3.783 32.918 6.46 66.005 11.557 98.718 6.248 40.104 14.043 79.99 22.033 119.798 8.703 43.365 12.853 87.792 31.106 128.988 8.833 19.938 15.728 40.73 23.5 61.136m-180.5-618.156c-.392-.953-.896-2.298-1.488-3.604-16.783-37.02-33.598-74.026-50.328-111.07-1.525-3.375-3.928-5.402-7.174-7.052-23.431-11.913-46.854-23.847-70.118-36.08-4.842-2.545-8.73-2.7-13.63-.117-23.241 12.247-46.646 24.182-70.045 36.128-3.222 1.644-5.612 3.672-7.144 7.068-16.588 36.776-33.198 73.543-50.05 110.199-2.235 4.862-1.328 7.847 2.502 11.18 9.356 8.146 18.62 16.417 27.53 25.04 4.1 3.97 7.229 3.938 11.98.99 27.972-17.347 56.255-34.198 84.17-51.632 5.73-3.578 9.83-3.575 15.56.009 27.915 17.46 56.174 34.373 84.192 51.673 4.277 2.64 7.323 3.209 11.348-.648 9.579-9.18 19.623-17.88 29.484-26.766 1.5-1.352 3.172-2.578 3.21-5.318m-737.091 55.568 2.256 1.428c1.003-1.298 1.964-2.63 3.014-3.888 45.499-54.481 91.012-108.95 136.478-163.458 1.455-1.745 2.676-3.78 3.595-5.86 25.159-56.948 50.215-113.942 75.478-170.844 1.914-4.312 1.534-7.215-1.348-10.906-15.808-20.238-31.458-40.601-46.883-61.13-3.57-4.75-6.108-5.21-10.993-1.477-18.115 13.84-36.56 27.256-55 40.667-3.503 2.549-5.275 5.94-6.868 9.69-22.652 53.319-45.402 106.597-67.954 159.958-4.462 10.556-9.143 20.9-10.451 32.74-3.89 35.208-8.81 70.3-13.205 105.453-2.817 22.528-5.42 45.084-8.12 67.627m1199.849.814 2.026-.711c-.402-4.398-.691-8.81-1.224-13.193-5.53-45.48-10.871-90.985-16.797-136.414-1.742-13.364-1.023-27.287-6.35-39.97-24.894-59.276-50.062-118.438-75.118-177.647-1.362-3.22-2.963-6.085-5.957-8.265-18.681-13.596-37.356-27.205-55.8-41.118-4.87-3.676-7.494-2.91-11.044 1.794-15.298 20.272-30.86 40.35-46.587 60.292-3.487 4.422-3.753 7.902-1.41 13.152 24.44 54.77 48.553 109.687 72.703 164.587 2.463 5.599 5.718 10.563 9.66 15.267 40.592 48.44 81.062 96.982 121.586 145.478 4.708 5.634 9.538 11.168 14.312 16.748m-1252.62-152.33 1.336.628c1.218-2.237 2.566-4.415 3.636-6.721 33.47-72.198 66.978-144.38 100.259-216.664 3.04-6.602 7.42-11.312 13.324-15.295 35.193-23.746 70.388-47.493 105.263-71.697 5.785-4.014 9.563-3.687 15.236-.17 36.828 22.838 73.692 45.634 111.013 67.654 11.365 6.706 24.046 10.586 38.099 8.037 17.336-3.144 34.879-5.142 52.323-7.7 2.21-.324 5.212.437 6.352-1.87 1.546-3.127-1.997-4.43-3.534-6.14-24.315-27.041-48.748-53.975-73.22-80.877-1.722-1.894-3.771-3.622-5.962-4.945-37.834-22.828-75.072-46.663-114.324-67.103-4.434-2.31-8.42-2.926-13.19-1.578-25.3 7.15-50.626 14.2-76.002 21.069-5.295 1.433-9.006 4.04-12.213 8.627-29.762 42.568-59.714 85.006-89.797 127.349-3.268 4.6-5.34 9.382-6.541 14.786-9.074 40.777-18.228 81.536-27.357 122.3zm1306.488 1.89c.793-2.23 1.014-2.52.963-2.752-17.404-78.493-34.827-156.981-52.244-235.471-.696-3.135-1.99-5.97-3.854-8.598-30.907-43.553-61.83-87.094-92.621-130.727-2.844-4.031-6.214-6.206-11.01-7.502-25.672-6.936-51.264-14.171-76.828-21.497-4.834-1.385-8.706-.434-13.08 1.852-35.908 18.767-70.223 40.22-104.734 61.344-5.391 3.3-11.207 5.963-15.6 10.81-24.628 27.17-49.353 54.252-73.984 81.42-1.29 1.422-3.76 2.67-3.123 4.853.788 2.7 3.708 2.159 5.903 2.483 15.444 2.282 31.026 3.879 46.302 6.976 19.114 3.876 35.846-.89 51.925-10.8 34.933-21.533 70.06-42.751 104.987-64.296 4.976-3.07 8.688-3.66 13.944-.023 36.128 24.995 72.476 49.675 108.873 74.28 4.035 2.729 6.786 6.023 8.773 10.324a132280 132280 0 0 0 72.306 156.296c10.765 23.23 21.627 46.415 33.102 71.028m-1119.08 591.885q.858 0 1.714.003c5.397-23.245 11.278-46.393 16.009-69.773 2.816-13.917 8.444-25.69 17.513-36.738 27.47-33.47 54.083-67.64 81.245-101.363 3.507-4.355 4.903-8.7 4.888-14.157-.108-38.947-.326-77.9.224-116.84.163-11.544-1.49-21.32-10.511-29.511-5.504-4.997-9.772-11.368-14.477-17.215-34.015-42.27-67.983-84.576-102.006-126.84-9.286-11.535-9.328-11.476-15.118 1.738-10.415 23.774-20.884 47.524-31.28 71.306-6.531 14.942-12.97 29.924-20.192 46.603 4.472-1.465 7.167-2.176 9.728-3.216 18.744-7.608 37.554-15.066 56.125-23.074 5.273-2.274 8.127-1.596 11.21 3.193 4.364 6.779 9.4 13.14 14.34 19.532 2.284 2.954 2.88 5.775 2.254 9.574-13.031 79.009-25.923 158.042-38.76 237.083-2.531 15.59-5.721 30.968-2.076 47.108 4.882 21.62 8.234 43.585 12.259 65.399 2.288 12.399 4.607 24.792 6.912 37.188m931.143-.633 1.663.187c.576-1.867 1.35-3.7 1.7-5.608 5.305-28.9 10.783-57.771 15.708-86.736 2.06-12.116 5.507-24.031 3.4-36.772-12.92-78.165-24.65-156.537-38.727-234.491-3.706-20.521-1.652-36.444 12.665-51.586 4.487-4.746 7.097-5.44 12.672-3.026 18.029 7.8 36.282 15.089 54.499 22.45 2.734 1.106 5.398 3.5 9.135 1.557-1.081-2.762-2.027-5.458-3.172-8.067a120588 120588 0 0 0-48.042-109.287c-5.144-11.688-5.173-11.676-13.264-1.873q-.552.668-1.094 1.344c-40.406 50.492-80.366 101.344-121.918 150.913-3.6 4.293-4.977 8.69-4.952 14.18.188 40.388.337 80.777.064 121.162-.056 8.25 2.145 14.718 7.372 21.193 29.007 35.928 57.589 72.197 86.377 108.3 3.478 4.363 5.82 8.959 7.06 14.544 6.05 27.257 12.528 54.42 18.854 81.616M911.38 1762.519c10.036-12.745 18.89-24.393 28.224-35.645 3.676-4.431 4.725-8.55 3.39-14.195-5.836-24.677-11.178-49.47-16.907-74.172-.982-4.236-1.04-7.37 2.47-10.816 30.495-29.931 60.863-59.991 91.017-90.261 3.938-3.953 5.817-3.46 9.465.178 30.256 30.164 60.696 60.145 91.186 90.075 3.01 2.955 3.922 5.637 2.902 9.899-5.634 23.53-10.45 47.265-16.53 70.675-2.294 8.837-.858 15.146 5.068 21.904 8.798 10.035 16.618 20.923 25.606 32.408 1.918-5.223 3.265-8.692 4.47-12.208 14.406-41.977 28.672-84.002 43.31-125.898 2.083-5.962 1.703-10.79-.933-16.434-24.4-52.254-49.357-104.275-72.294-157.165-7.55-17.407-17.158-28.618-35.972-32.134-5.18-.968-8.385-.747-12.136 3.122-11.25 11.607-23.093 22.64-34.381 34.212-3.564 3.653-5.696 4.399-9.547.259-7.068-7.6-15.936-13.757-21.995-22.017-11.517-15.7-24.548-19.053-41.787-9.983-4.8 2.526-8.536 4.603-10.937 9.838-26.934 58.708-54.107 117.306-81.315 175.888-1.95 4.198-2.093 7.838-.537 12.33 12.08 34.858 23.81 69.836 35.72 104.753 3.868 11.34 7.943 22.612 12.443 35.387m270.947-674.086.17-1.57c15.239-1.263 30.492-2.37 45.71-3.833 16.746-1.612 16.752-1.753 18.714-18.104.412-3.432.382-6.928.966-10.325 1.113-6.471-.85-11.5-5.316-16.405-8.934-9.813-17.315-20.132-25.82-30.33-2.28-2.736-4.722-4.762-8.326-5.736-30.208-8.163-30.193-8.21-52.607 13.209-1.04.994-2.271 1.804-3.232 2.863-7.542 8.308-17.226 14.68-23.19 24.365-9.983 16.21-19.565 32.666-29.28 49.04-1.932 3.259-3.938 6.104-7.863 7.54-20.891 7.652-41.721 15.468-62.51 23.39-4.087 1.558-7.732 1.233-11.705-.291-13.49-5.173-26.787-11.142-40.674-14.916-18.168-4.935-30.427-14.861-38.81-31.987-6.9-14.093-14.178-28.557-25.165-40.188-11.49-12.165-23.904-23.458-35.787-35.26-2.652-2.634-5.256-4.13-9.166-3.44-19.097 3.366-35.967 7.984-49.362 25.48-12.454 16.267-21.768 30.614-16.73 51.74 1.429 5.986 2.747 8.066 8.835 8.478 18.51 1.253 36.976 3.175 57.539 5.023-3.411 1.973-4.817 2.898-6.316 3.635-16.591 8.162-33.22 16.246-49.773 24.482-2.693 1.34-5.964 2.08-6.528 6.149-2.09 15.089-5.194 29.473 10.826 40.818 7.147 5.062 11.555 7.055 19.513 3.364 11.772-5.462 24.13-9.664 36.24-14.403-5.51 10.697-11.627 20.114-18.285 29.134-2.975 4.03-3.385 7.455-1.192 11.87 4.618 9.3 9.112 18.677 13.182 28.223 1.997 4.684 4.698 5.669 9.439 4.65 46.325-9.942 92.703-19.636 139.008-29.67 6.406-1.39 12.394-1.457 18.78-.075 46.299 10.022 92.657 19.763 138.959 29.765 5.128 1.108 7.913.077 10.017-5.031 3.729-9.055 7.978-17.93 12.545-26.598 2.784-5.286 2.38-9.333-1.148-14.21-6.411-8.86-13.275-17.513-19.024-28.791 15.29 6.11 28.912 11.597 42.573 16.983 2.833 1.116 5.57 2.95 8.779.104 12.037-10.68 24.034-21.26 17.439-39.981-.19-.536-.315-1.141-.28-1.702.396-6.17-3.197-8.916-8.405-11.391-17.71-8.416-35.18-17.34-52.74-26.068m-797.96 130.77c-1.695-29.883-3.354-57.492-4.802-85.111-1.418-27.07-2.131-54.188-4.126-81.213-.984-13.324 2.182-25.757 4.86-38.382 5.804-27.348 11.933-54.628 17.889-81.944.352-1.613.35-3.303.686-6.72L304 970.252c4.149-17.152 7.794-32.456 11.556-47.732 24.738-100.47 49.524-200.93 74.197-301.415 1.47-5.987 3.892-11.225 7.618-16.188 28.594-38.094 56.918-76.39 85.596-114.42 3.832-5.081 4.086-7.373-1.822-11.035-30.953-19.188-61.495-39.035-92.43-58.252-6.796-4.222-6.005-6.027.09-10.08 70.988-47.204 141.825-94.634 212.67-142.05 2.326-1.557 5.166-2.627 6.9-6.187l-120.546-71.31c15.267-2.567 28.175-4.744 41.084-6.91 43.337-7.266 86.68-14.498 130.002-21.856 3.24-.55 6.256-.368 9.422.237a53168 53168 0 0 0 120.138 22.783c1.909.36 3.905.264 8.013.508L703.14 97.877c3.085-2.69 5.786-1.697 8.22-1.7 59.053-.062 118.105.022 177.156-.153 5.836-.017 10.624 1.93 15.522 4.53 37.785 20.063 75.67 39.937 113.355 60.182 5.29 2.842 9.247 2.492 14.349-.233 38.496-20.564 77.155-40.827 115.724-61.255 3.37-1.786 6.62-3.235 10.596-3.231 61.367.07 122.735.04 184.103.06 1.057 0 2.115.322 4.928.777-31.652 29.96-62.287 58.96-92.923 87.96l.75 1.908c11.135-2.065 22.277-4.088 33.4-6.202 31.23-5.933 62.363-12.435 93.72-17.593 12.269-2.02 24.538 2.795 36.739 4.748 44.51 7.124 88.937 14.76 133.388 22.24 2.25.378 4.442 1.098 8.219 2.053-16.994 10.077-32.798 19.468-48.62 28.827-21.401 12.658-42.691 25.51-64.3 37.805-6.678 3.8-7.753 5.558-.584 10.328 70.01 46.59 139.82 93.479 209.684 140.287 3.089 2.07 6.15 4.182 10.32 7.022-14.334 9.202-27.851 17.913-41.404 26.569-19.243 12.29-38.342 24.823-57.874 36.643-6.054 3.664-5.551 6.12-1.817 11.074 28.677 38.038 57.05 76.305 85.699 114.363 3.565 4.736 5.969 9.673 7.37 15.373 28.085 114.204 56.242 228.389 84.383 342.579.47 1.91 1.453 3.79-.03 6.805-11.39-5.295-22.801-10.545-34.165-15.898-16.993-8.005-33.933-16.122-50.946-24.083-2.21-1.034-4.75-3.665-7.032-1.664-2.09 1.834-.454 4.913.082 7.377 6.917 31.822 13.67 63.68 20.939 95.424 2.91 12.716 1.022 25.335.46 37.92-2.057 46.093-4.73 92.157-7.2 138.23-.181 3.387-.597 6.762-1.057 11.836l-143.864-122.28c-.78 11.549 2.007 20.938 3.444 30.36 12.907 84.613 26.077 169.187 39.285 253.755 1.11 7.11-.077 13.483-2.68 20.175-26.865 69.072-53.472 138.244-80.173 207.38-1.118 2.895-2.456 5.705-4.503 10.43-6.16-30.29-11.918-58.643-17.693-86.992-9.375-46.03-18.752-92.06-28.173-138.08-.4-1.954-.858-4.077-1.942-5.683-17.743-26.308-35.592-52.544-55.617-78.53l4.424 389.1c-4.718-.184-6.856-2.777-9.31-4.572-19.123-13.991-37.851-28.551-57.404-41.911-7.191-4.914-9.178-10.897-10.133-18.513-2.687-21.445-5.637-42.856-8.512-64.277-.136-1.015-.545-1.993-1.526-5.455l-63.461 206.915-1.608.034-18.483-134.99-1.896-.032-57.656 188.237c-4.747-1.915-6.448-5.47-8.822-8.246-18.954-22.171-37.758-44.47-56.747-66.61-3.573-4.166-5.157-7.972-4.157-13.933 5.296-31.557 9.785-63.248 14.847-94.845.819-5.111-.073-8.482-4.142-11.98a3479 3479 0 0 1-57.935-50.94c-4.076-3.664-6.746-3.88-10.87-.166a3940 3940 0 0 1-57.153 50.513c-4.462 3.865-5.573 7.8-4.648 13.517 5.152 31.875 9.899 63.814 14.918 95.71.514 3.27.812 5.969-1.621 8.809-21.98 25.665-43.826 51.443-65.74 77.165-.325.383-.995.475-2.507 1.15l-57.612-188.12-1.987-.03-18.411 134.236q-.857.134-1.714.272l-62.692-203.903-1.927.073c-2.362 17.437-4.991 34.843-7.023 52.318-3.047 26.219-2.877 26.229-23.967 41.676-17.674 12.945-35.327 25.918-54.825 40.225l4.422-390.428c-3.61-1.248-3.813 1.612-4.758 2.997-16.446 24.08-32.758 48.252-49.215 72.325-2.9 4.24-3.684 9.027-4.656 13.818-14.271 70.332-28.525 140.669-42.802 211-.457 2.252-1.124 4.46-2.18 8.588-5.214-13.266-9.867-24.925-14.39-36.634-23.796-61.612-47.512-123.255-71.414-184.827-2.094-5.396-2.16-10.574-1.31-16.09 14.117-91.733 28.179-183.475 42.259-275.214.39-2.541 1.222-5.065-.397-9.172z"/></g></svg>