<svg xmlns="http://www.w3.org/2000/svg" xmlns:xlink="http://www.w3.org/1999/xlink" xmlns:inkscape="http://www.inkscape.org/namespaces/inkscape" version="1.1" width="3025.02" height="1655.19" viewBox="0 0 3025.02 1655.19">
<defs>
<clipPath id="clip_1">
<path transform="matrix(1,0,0,-1,0,1655.19)" d="M0 1655.195H3025.023V0H0Z"/>
</clipPath>
</defs>
<g inkscape:groupmode="layer" inkscape:label="Layer 1">
<g clip-path="url(#clip_1)">
<path transform="matrix(1,0,0,-1,2569.1588,1402.1565)" d="M0 0ZM-312.694-.141V-.141L-310.77 .403C-320.282 34.045-345.349 148.547-268.576 209.441-263.513 213.457-257.801 216.772-251.6 219.293-250.832 219.605-249.998 219.951-249.12 220.319-246.383 213.973-244.208 208.6-242.097 203.389-235.94 188.184-230.623 175.053-214.674 146.061-194.976 113.379-181.985 103.152-166.203 96.531-142.635 86.635-117.266 76.35-91.441 68.168-77.043 63.601-54.995 55.955-36.292 48.192-4.025 34.798-2.33 29.602-2.318 28.704L-2.315 28.434C-2.299 26.709-2.32 24.474-2.343 21.947-2.404 15.205-2.479 6.825-2.002-.026-6.193-.079-15.923-.196-20.845-.208ZM-534.354 26.696C-533.624 129.056-533.94 231.428-533.926 333.8-533.885 617.984-533.831 902.167-533.899 1186.351-533.899 1199.837-535.787 1211.775-515.121 1211.691-369.854 1211.06-224.57 1211.342-73.319 1211.345-82.593 1203.326-100.808 1193.126-121.718 1184.307-130.326 1180.67-147.338 1172.665-156.414 1166.638-157.525 1165.99-170.471 1158.274-186.246 1141.463-188.733 1138.809-191.223 1136.157-193.713 1133.506-230.708 1094.124-268.961 1053.4-292.446 1001.953-294.046 998.447-295.925 994.971-297.742 991.61-305.165 977.875-312.84 963.673-302.038 945.811-300.837 943.824-301.02 942.257-301.762 940.598-322.748 927.157-343.742 923.137-343.937 923.101L-346.786 922.597C-364.119 919.535-372.819 917.999-383.25 914.361-391.247 911.581-398.411 907.749-404.543 902.97-421.953 889.404-416.685 878.948-393.797 841.115-388.746 832.751-387.283 822.088-389.324 808.516-389.471 807.532-389.606 806.562-389.716 805.604-392.577 794.971-401.285 777.054-427.531 775.316-440.106 774.476-441.976 746.968-442.196 735.18L-442.237 732.746C-442.497 716.524-442.72 702.513-458.46 693.603-464.003 690.464-467.317 683.81-466.337 677.778-462.572 654.607-474.071 636.695-485.191 619.374-489.151 613.204-493.247 606.825-496.604 600.294-507.371 579.365-510.189 562.349-505.223 548.273-500.072 533.676-486.908 522.105-463.796 511.861-390.44 479.314-312 432.479-286.406 331.883L-286.363 331.737C-283.161 322.242-280.71 313.36-278.116 303.958-274.951 292.488-271.678 280.627-266.93 267.595-266.93 267.595-259.585 247.778-253.278 230.842-253.469 230.764-253.661 230.687-253.854 230.609-267.685 225.101-280.472 216.508-290.835 205.76-308.831 187.093-321.342 163.402-328.02 135.345-337.179 96.861-334.85 51.279-321.103-.139L-509.361-.096C-530.854-1.314-534.479 7.885-534.354 26.696M221.216 1211.222C234.883 1211.304 242.971 1208.829 242.929 1193.074 242.687 1109.148 242.792 1025.23 240.561 939.405 235.34 955.27 226.789 967.001 214.52 975.126 202.626 983.003 187.413 987.301 168.008 988.265 149.429 989.18 129.977 989.203 113.816 979.072L113.815 979.073 112.517 978.249C110.125 976.731 98.416 968.651 96.214 966.857 73.788 948.578 23.658 943.318 21.435 943.094 .612 942.67-2.925 928.845-3.677 916.842-3.877 913.661-3.515 910.39-3.164 907.226-2.523 901.442-1.864 895.49-4.433 889.316-7.098 894.104-9.038 898.91-10.925 903.585-14.022 911.257-16.948 918.504-22.633 924.75-51.553 956.522-86.292 980.326-125.885 995.5-148.846 1004.298-169.699 1005.269-189.635 998.467-190.711 998.1-191.803 997.76-192.889 997.421-199.953 995.218-207.958 992.721-209.364 982.774-211.032 970.963-202.352 965.969-194.694 961.562-194.141 961.244-193.588 960.926-193.04 960.606-178.237 951.963-160.248 946.73-138.045 944.607-105.522 941.496-90.308 927.321-87.174 897.21-86.192 887.77-87.12 882.229-90.095 879.775-92.833 877.517-97.843 877.536-105.413 879.834-123.75 885.403-139.912 895.791-154.895 905.953-167.425 914.452-181.375 922.028-198.466 919.939-205.737 919.051-210.271 916.801-212.33 913.062-214.31 909.465-213.889 904.801-211.045 898.804L-209.969 896.526C-202.938 881.62-199.065 873.409-176.102 859.846L-175.944 859.753-100.247 832.055C-56.741 816.437-21.845 785.145-.232 761.644 22.695 736.715 35.823 715.323 37.158 713.111 38.433 709.598 38.579 706.852 37.556 705.561 36.507 704.238 34.014 704.244 32.107 704.483 22.746 705.653 16.277 704.225 12.335 700.116 8.149 695.752 7.037 688.717 8.834 677.974 9.613 673.322 9.051 669.03 7.5 667.769 6.75 667.159 5.542 667.172 3.909 667.808-5.326 671.407-14.1 676.91-22.586 682.231-26.658 684.785-30.869 687.425-35.107 689.844-39.532 692.37-39.178 695.022-38.105 699.88-37.636 702.002-37.152 704.197-37.371 706.434-38.476 717.732-45.058 725.017-55.904 726.946-60.644 727.79-65.479 728.721-70.156 729.623-92.145 733.862-114.885 738.246-137.609 735.404-142.152 734.836-146.763 734.499-151.644 734.142-172.536 732.614-194.138 731.033-207.566 710.947-214.75 700.2-223.062 690.082-231.101 680.297-239.094 670.567-247.359 660.505-254.54 649.803-256.187 647.347-258.574 643.616-260.272 639.575-263.034 633.003-262.012 628.092-257.149 624.562-251.837 620.706-246.277 620.95-240.623 625.289L-239.491 626.163C-234.679 629.889-230.878 632.833-225.78 631.31-213.092 627.524-199.367 636.036-187.257 643.546-184.634 645.172-182.157 646.709-179.756 648.084-176.452 649.976-173.113 651.964-169.884 653.887-159.06 660.334-147.866 667-136.125 671.136-113.191 679.214-91.747 675.391-74.109 660.077-68.625 655.314-64.771 650.196-62.652 644.864-60.753 640.083-61.519 634.576-64.652 630.492-71.436 621.647-86.459 606.28-110.927 602.581-126.439 602.956-140.369 605.274-153.842 607.517-169.621 610.143-185.933 612.857-204.478 612.331-215.189 612.026-223.387 608.758-234.726 600.272-237.848 597.936-240.798 595.281-243.496 592.382-247.657 587.908-253.35 581.217-256.799 574.818-275.643 542.963-280.84 511.638-271.83 484.229-262.936 457.175-240.801 435.475-207.821 421.476L-183.663 411.187C-177.637 408.555-173.264 406.851-169.036 405.203-164.493 403.433-160.202 401.761-154.502 399.157-124.94 385.651-116.465 378.023-121.006 356.721-121.057 356.527-126.313 337.063-144.172 312.358-160.447 289.845-190.778 258.3-243.156 235.115-243.164 235.138-243.171 235.161-243.179 235.183-250.858 258.354-256.77 274.279-256.815 274.399-261.028 286.467-264.92 298.906-268.684 310.935-280.76 349.528-293.247 389.435-318.398 423.92-353.671 472.282-404.369 496.22-453.397 519.371-496.799 539.856-503.457 556.978-484.366 599.023-480.092 608.442-474.575 617.549-469.239 626.357-467.247 629.646-465.186 633.047-463.215 636.424L-462.817 637.105C-458.103 645.161-453.65 652.77-456.862 665.036-458.447 671.081-456.715 677.487-451.987 683.076-444.622 691.782-431.981 696.697-419.781 695.597-395.415 693.374-373.9 683.621-356.068 674.373-349.33 670.878-344.059 668.61-338.976 667.019-337.778 666.646-336.521 666.158-335.19 665.641-329.726 663.519-322.925 660.877-317.65 666.24-311.325 672.68-316.237 680.185-319.488 685.151-319.958 685.869-320.411 686.561-320.817 687.223-326.512 696.501-331.654 706.413-336.625 715.998-348.892 739.647-361.577 764.102-383.895 781.897-390.637 787.273-388 792.541-383.208 799.963-382.618 800.877-382.047 801.762-381.538 802.612L-381.503 802.67C-381.06 803.301-380.606 803.92-380.142 804.538-374.747 811.686-370.11 816.503-365.019 816.785-361.667 816.969-358.206 815.124-354.431 811.143-349.417 805.051-340.773 801.42-334.457 798.768-332.134 797.791-329.87 796.435-327.472 794.999-320.165 790.624-311.882 785.664-301.358 792.608-288.43 801.163-291.031 814.384-292.931 824.038-293.203 825.421-293.468 826.765-293.682 828.052-295.475 838.777-299.119 847.932-304.821 856.039-307.082 859.254-313.086 867.796-320.242 864.019-334.591 856.478-343.21 862.19-352.465 873.852-356.843 879.36-362.796 877.796-367.578 876.54-368.859 876.203-370.069 875.885-371.265 875.668L-373.466 875.264C-384.659 873.19-398.59 870.61-402.039 880.173-406.326 892.093-394.678 897.749-380.13 903.43-378.192 904.186-376.327 904.943-374.504 905.683-366.489 908.937-359.567 911.748-350.732 912.754-312.956 917.056-292.628 933.6-291.266 934.741-289.89 935.782-288.453 936.819-286.988 937.876-281.875 941.566-276.587 945.381-272.16 950.455L-272.081 950.55C-271.046 951.895-270.121 953.127-269.283 954.281L-269.205 954.226C-268.467 955.25-267.698 956.406-266.88 957.714-265.602 959.643-264.717 961.193-264.178 962.451-257.014 976.135-252.072 996.529-261.675 1009.089-267.12 1016.205-263.264 1032.609-253.584 1043.505L-253.444 1043.682C-231.339 1075.08-206.017 1105.892-178.181 1135.262-164.879 1149.3-143.526 1161.826-142.301 1162.539L-141.008 1163.174C-108.584 1179.111-80.582 1192.875-46.828 1204.235-38.116 1207.155-31.334 1209.217-23.277 1209.194L-23.27 1211.194C58.226 1210.903 139.72 1210.737 221.216 1211.222M-283.428 952.307C-286.921 951.758-291.507 954.197-294.582 958.237-296.107 960.241-299.369 965.531-296.726 971.363-292.46 980.792-285.662 990.424-276.52 999.99-274.632 1001.962-273.624 1002.208-273.238 1002.208-273.189 1002.208-273.15 1002.205-273.12 1002.2-272.051 1002.018-270.845 999.366-269.964 997.43-269.434 996.266-268.886 995.062-268.258 994.01-263.079 985.363-265.545 977.029-269.014 969.306-273.442 962.108-281.362 952.766-283.428 952.307M-366.763 866.685C-363.883 864.812-361.013 862.421-357.974 859.889-347.145 850.866-333.689 839.652-313.25 850.003-312.46 849.253-310.579 846.369-308.284 838.896-304.583 826.845-302.325 810.648-305.127 805.496-306.532 802.918-308.008 801.458-309.641 801.033-311.493 800.55-313.786 801.29-317.31 803.507-325.087 808.396-330.762 815.164-335.169 824.804-343.801 843.709-356.393 853.503-372.593 853.915-378.127 854.06-384.232 854.44-386.62 857.139-387.505 858.14-387.853 859.481-387.684 861.237-387.264 865.536-384.654 865.942-377.301 866.007-374.263 866.034-370.819 866.065-367.352 866.765-367.13 866.812-366.914 866.782-366.763 866.685M-343.133 819.022-381.738 843.92C-381.738 843.92-352.64 841.292-343.133 819.022M46.205 167.885 46.32 167.918C48.346 168.577 95.994 184.172 106.617 196.67 107.396 197.485 122.059 212.569 137.349 213.866L137.606 213.905C139.002 214.209 171.999 221.635 189.336 246.864 190.648 248.586 216.79 283.854 194.292 321.642L194.105 321.905C193.915 322.131 174.952 344.752 164.61 360.672 164.539 360.783 157.487 371.832 157.352 385.639 157.568 387.395 159.017 401.834 149.551 410.694 142.707 417.1 132.032 418.853 117.894 415.918L113.718 415.205C84.906 410.28 49.218 404.18 20.799 407.165 20.827 407.368 20.851 407.554 20.873 407.724 20.883 407.804 20.894 407.887 20.905 407.968 26.981 410.382 33.188 412.743 39.2 415.03 52.36 420.035 65.969 425.211 78.962 431.231 98.995 440.514 117.916 449.282 138.528 434.195 145.443 429.132 152.475 430.056 157.337 436.667 162.903 444.235 157.186 450.758 154.745 453.544 150.883 457.95 146.837 462.311 142.925 466.529 136.664 473.279 130.189 480.258 124.378 487.524 114.515 499.858 104.673 515.855 116.207 530.201 132.46 550.418 138.607 568.808 134.474 584.858 130.522 600.208 117.34 612.581 95.294 621.633 79.308 628.199 68.845 636.472 66.083 657.399 63.083 680.125 56.15 701.183 45.472 720.011L45.486 720.033 44.206 722.24C43.85 722.853 43.494 723.462 43.135 724.07L42.833 724.588 42.832 724.585C14.699 772.076-20.942 801.729-46.119 818.339-73.199 836.204-93.648 842.981-95.577 843.599-108.028 849.259-120.521 852.87-132.604 856.363-153.681 862.456-173.589 868.21-188.339 883.941-192.137 887.991-203.695 900.317-201.255 909.095-200.947 910.205-200.341 910.883-199.293 911.294-194.225 913.284-181.519 908.134-171.586 902.02-167.182 899.309-162.811 896.314-158.584 893.418-147.939 886.126-136.933 878.586-124.023 874.558-122.277 874.013-120.475 873.401-118.733 872.809-107.707 869.064-95.21 864.82-83.419 873.491-72.035 881.865-75.489 891.751-78.537 900.473-79.733 903.894-80.863 907.127-81.197 910.258-81.077 910.541-80.637 911.157-80.278 911.66-80.068 911.955-79.836 912.28-79.589 912.64-76.922 911.337-74.202 910.066-71.557 908.831-64.34 905.459-56.876 901.972-50.135 897.667-45.728 894.852-40.648 893.819-35.735 892.82-28.324 891.313-21.324 889.89-17.155 882.522L-16.969 882.192C-14.02 876.974-9.567 869.088-1.417 871.468 8.571 874.386 8.208 886.424 8.087 890.38 7.989 893.674 7.524 896.959 7.074 900.136 6.561 903.761 6.076 907.186 6.083 910.64 6.115 926.13 9.385 933.3 28.677 934.834L28.853 934.856C74.194 942.532 91.104 950.29 102.544 959.577 106.82 963.047 116.442 970.281 118.083 971.512 137.654 978.52 158.315 977.361 181.342 975.271 202.105 973.393 217.521 961.626 225.925 941.241 236.985 914.463 242.321 886.558 242.238 855.932 241.61 598.938 241.691 327.8 242.486 27.024 242.508 15.717 241.045 9.683 237.435 6.199 233.954 2.839 228.009 1.506 218.148 1.875 197.468 2.639 176.615 2.902 155.818 2.902 132.546 2.902 109.346 2.573 86.559 2.25L78.684 2.138C67.915 1.985 59.412 3.792 52.937 13.122 50.052 17.264 44.02 23.907 39.304 27.416 32.708 32.324 23.147 37.597 10.872 43.097L10.736 112.176C10.968 114.448 16.052 160.044 46.205 167.885M-413.096 724.562C-407.53 731.976-401.33 740.787-391.369 730.911-380.759 720.412-371.281 708.765-358.413 694.365-383.433 690.838-399.663 703.094-417.271 708.336-425.221 710.702-416.83 719.596-413.096 724.562M-426.166 759.894C-421.815 766.396-413.149 770.431-397.19 773.387-391.448 774.451-388.154 770.991-384.342 766.984-383.547 766.149-382.725 765.285-381.883 764.477-369.561 752.646-361.448 737.668-353.602 723.185-347.835 712.538-341.881 701.546-334.245 691.706-335.036 691.02-335.83 690.334-336.625 689.648-340.506 693.769-344.404 697.873-348.303 701.976-358.001 712.186-368.031 722.743-377.606 733.382V733.383C-387.615 744.496-394.041 750.253-400.67 750.253-400.906 750.253-401.142 750.246-401.379 750.231-408.443 749.795-414.542 742.837-424.012 729.284-424.841 728.088-426.186 727.072-427.744 725.896-427.765 725.879-427.787 725.863-427.808 725.847-431.191 743.163-430.68 753.146-426.166 759.894M-52.385 934.046C-73.304 943.87-95.956 947.67-118.029 951.375-136.776 954.52-156.162 957.772-173.999 964.702-176.213 965.562-178.677 966.329-181.286 967.14-192.254 970.552-199.946 973.468-199.014 979.947-197.803 988.356-188.835 989.22-176.299 989.521-174.05 989.575-171.927 989.626-169.877 989.762-167.218 989.937-164.615 990.022-162.049 990.022-116.367 990.022-85.145 962.911-52.385 934.046M-154.186 682.582C-160.893 678.239-167.326 673.38-173.611 668.633-194.843 652.597-214.898 637.449-243.36 641.498-243.603 641.532-243.729 641.698-243.783 641.794-243.838 641.892-243.915 642.091-243.813 642.325-229.436 675.376-200.408 678.094-169.675 680.97-164.563 681.449-159.345 681.937-154.186 682.582M55.72 644.533C55.631 643.128 55.541 641.698 55.471 640.247 52.161 642.228 48.629 643.604 45.422 644.854 38.063 647.721 32.25 649.987 31.554 657.6 31.38 659.503 33.392 663.088 37.06 665.792 38.352 666.745 41.23 668.561 44.383 668.561 45.323 668.561 46.287 668.4 47.239 668.007 56.95 664.003 56.407 655.411 55.72 644.533M22.534 693.089C23.713 693.741 25.626 694.098 27.795 694.098 30.539 694.098 33.689 693.527 36.27 692.262 38.103 691.364 40.375 689.734 40.792 687.068 41.814 680.523 37.844 678.529 30.739 675.569 27.283 674.129 23.496 672.551 20.59 669.906 20.24 671.497 19.826 673.082 19.419 674.639 17.052 683.702 15.937 689.443 22.534 693.089M90.769 531.596C89.442 531.259 88.066 530.784 86.736 530.324 81.605 528.552 78.044 527.59 75.396 530.257 72.121 533.557 73.53 535.654 76.764 539.712 78.26 541.59 79.808 543.532 80.51 545.767 81.721 549.622 82.597 553.585 80.039 559.646L79.247 561.525 77.383 560.696C69.505 557.189 63.97 550.005 58.616 543.057 50.234 532.179 42.317 521.904 26.124 525.886 25.535 526.031 25.155 526.65 25.259 527.296 25.879 531.134 26.92 533.928 28.635 536.356L28.721 536.489C31.966 541.949 36.318 547.099 42.097 552.299 50.195 560.343 65.94 574.046 80.42 575.45 93.792 576.747 103.972 586.573 113.818 596.076 114.796 597.02 115.744 597.934 116.682 598.829 125.059 577.851 126.482 562.325 121.042 551.42 116.382 542.081 106.48 535.596 90.769 531.596M-49.625 703.187C-49.903 700.082-51.022 697.731-52.86 696.391-54.632 695.098-57.04 694.746-59.82 695.372-103.847 705.274-146.48 697.831-191.619 689.951-197.912 688.853-204.386 687.722-210.872 686.641-201.655 708.43-184.151 719.97-156.086 722.859-146.144 723.883-136.274 724.394-126.491 724.394-102.896 724.394-79.83 721.419-57.627 715.496-49.578 713.349-49.007 710.096-49.625 703.187M64.051 441.223C73.845 450.697 85.474 457.697 96.779 464.502 101.571 467.387 106.527 470.371 111.275 473.5 113.016 474.648 114.658 475.237 116.297 475.237 119.43 475.237 122.553 473.083 126.344 468.55 128.307 466.203 130.522 464.029 132.664 461.927 137.352 457.327 141.828 452.935 144.203 446.641 118.745 460.892 95.412 452.48 72.807 444.331 69.929 443.293 66.997 442.236 64.051 441.223M-2.541 48.765C-21.062 56.171-37.895 61.361-39.062 61.719-54.132 67.348-69.408 73.2-84.181 78.859-101.948 85.665-120.319 92.703-138.475 99.408L-138.604 99.45C-177.944 111.015-198.034 136.36-216.094 170.857-224.89 187.656-232.762 205.706-239.505 224.537-221.045 232.99-194.543 247.149-169.976 267.655-139.049 293.469-119.403 322.457-111.596 353.758-106.218 372.987-113.159 389.062-131.138 399.023-143.922 406.106-156.239 411.831-171.073 417.585-181.772 421.737-191.425 425.793-200.581 429.986L-202.348 430.795C-210.059 434.506-216.212 438.445-222.726 442.616L-224.543 443.779C-253.675 462.388-268.298 490.501-263.658 518.984-261.005 535.269-257.998 553.728-248.31 569.085-245.349 573.778-240.336 580.053-236.654 584.492-230.485 591.925-222.69 597.357-214.112 600.2-200.576 604.687-185.884 604.295-169.196 599-134.659 588.044-106.369 587.963-82.709 598.754-73.699 602.864-66.095 608.792-60.111 616.374-52.517 625.995-49.617 638.16-52.154 649.75-55.1 663.214-65.129 672.225-96.688 688.141-91.141 687.709-85.561 687.667-80.085 687.627-63.124 687.501-47.103 687.381-33.024 676.707-4.045 654.736 27.43 637.807 63.202 624.952 67.698 623.337 71.926 621.271 76.402 619.084 82.159 616.271 88.111 613.363 94.617 611.542 97.513 610.731 101.174 609.07 102.167 605.759 103.034 602.869 101.702 599.194 98.416 595.411 93.134 589.329 86.194 585.913 75.915 584.336 65.431 582.729 50.958 573.886 37.151 560.635 31.716 555.067 26.183 548.683 20.245 541.129 13.886 533.159 12.72 526.481 16.463 519.479 24.432 504.575 39.642 512.343 50.749 518.015 51.564 518.431 52.365 518.84 53.147 519.233 59.443 522.393 62.983 523.113 67.318 519.03 72.255 514.375 77.976 513.214 85.868 515.266 87.852 515.781 89.905 517.237 92.079 518.777 94.596 520.562 97.731 522.782 99.346 522.119 100.029 521.838 101.298 520.661 102.135 515.924 102.718 512.617 104.249 509.254 105.729 506.002 110.043 496.527 113.768 488.344 98.151 480.022 77.354 468.939 57.622 455.139 38.54 441.792 30.095 435.886 21.364 429.778 12.668 423.998 9.132 421.647 2.549 417.273 3.37 409.667 4.282 401.21 11.592 398.739 17.467 396.752 26.954 393.546 36.329 394.442 45.396 395.307 49.744 395.722 54.241 396.151 58.613 396.097L58.76 396.095 58.906 396.115C61.155 396.419 113.809 403.559 119.325 405.124 120.164 405.31 133.439 408.124 140.492 401.876 144.125 398.659 145.569 393.416 144.785 386.292L144.773 386.108C144.759 385.348 144.561 367.319 154.174 352.521 154.915 351.452 172.375 326.252 181.882 315.743 182.946 314.3 203.275 285.754 177.497 253.515L177.343 253.294C177.238 253.12 166.415 235.76 131.301 226.721L131.185 226.688C130.636 226.51 117.513 222.171 98.953 207.075L98.876 207.009C98.694 206.846 80.201 190.526 40.797 180.692 40.396 180.598 30.857 178.266 20.622 168.613 11.281 159.805-.441 142.925-3.238 112.535L-3.248 112.432ZM258.897 1253.202C-10.966 1252.109-280.83 1252.248-550.694 1252.871-571.665 1252.926-578.071 1247.476-578.001 1225.967-577.23 1019.714-577.533 813.448-577.533 607.181-577.533 402.449-577.533 197.719-577.52-7.013-577.52-41.953-577.203-42.078-541.67-42.091-276.408-42.285-11.132-42.506 254.13-42.797 284.18-42.825 285.902-41.33 285.902-10.263 285.915 284.599 285.93 579.475 285.942 874.351 285.942 990.459 285.957 1106.581 285.998 1222.689 286.012 1240.975 284.331 1253.299 258.897 1253.202" fill="#231f20"/>
<path transform="matrix(1,0,0,-1,949.1127,1397.9706)" d="M0 0-89.575 .571C-94.297 .601-98.642 3.162-100.95 7.281-102.481 10.012-103.892 12.579-105.33 15.81-116.11 40.04-124.039 61.491-96.74 67.031-60.64 74.38-24.25 75.601 12.45 71.531 27.71 69.82 33.36 61.92 33.3 47.82 33-9.73 35.849-.79 0 0M-115.79 .73C-159.99 .43-204.199 .73-248.399 .43-257.289 .36-263.549 1.78-268.709 10.41-287.589 42.07-310.019 71.451-326.799 104.531-331.559 113.891-332.539 118.22-324.759 124.821-302.259 143.881-280.029 163.301-257.829 182.691-247.449 191.771-243.999 185.661-238.589 176.321-210.319 127.561-153.67 45.55-109.12 .68ZM-403.788 .73C-408.298 .77-415.328-2.17-416.318 6.12-417.628 16.97-413.828 27.27-408.498 35.95-405.798 40.38-399.888 35.05-395.189 32.2-367.509 15.4-336.909 12.04-305.259 15.08-293.669 16.19-282.599 16.04-273.269 .58-318.629 .58-361.208 .47-403.788 .73M-425.268 21.19C-426.428 8.57-431.448-.15-443.248 .26-507.718-.17-575.908-1.93-648.277-.17-582.568 135.811-500.298 270.282-438.168 408.693-423.939 375.483-416.998 354.662-415.828 325.162-414.368 288.872-421.058 252.232-411.238 216.361-409.058 208.441-403.359 191.901-397.379 185.531-379.268 157.471-388.868 149.351-400.488 129.321-413.848 106.311-416.578 95.811-420.238 56.82-421.398 44.43-424.158 33.12-425.268 21.19M-692.807-.11C-744.317 1.93-744.977 .53-745.017 51.59-745.147 171.821-744.277 292.042-744.427 412.273-744.697 614.614-745.427 816.945-745.927 1019.287-746.077 1076.297-745.987 1133.327-746.307 1190.338-746.367 1202.268-743.777 1207.968-729.467 1207.698-674.767 1206.748-620.017 1207.328-563.898 1207.328-565.338 1195.868-572.448 1188.498-580.428 1182.028-620.597 1149.588-650.407 1108.367-678.647 1065.987-721.647 1001.457-703.737 911.796-628.137 878.456-579.528 857.056-530.008 837.876-481.648 815.985-448.608 801.045-452.768 801.505-456.168 765.555-465.688 664.834-435.858 568.254-426.618 541.334-430.288 543.164-434.229 544.444-438.498 544.934-453.238 546.584-461.158 539.924-461.998 524.303-463.348 498.853-456.988 475.023-448.068 451.743-441.988 435.933-442.848 421.943-451.048 406.572-497.328 319.502-543.638 232.452-588.077 144.461-608.537 103.97-630.177 64.17-651.557 24.21-660.467 7.56-671.527-.95-692.807-.11M-247.599 721.305C-238.979 723.245-222.959 726.815-210.109 721.095-141.09 690.304-66.61 611.594-72.01 527.903-73.43 505.753-79.26 483.983-88.02 464.833-112.15 412.103-144.82 364.152-181.63 319.122-186.73 313.102-208.139 289.482-240.209 257.362-196.429 434.183-195.92 621.594-247.599 721.305M-411.598 513.403C-410.788 504.874-428.338 487.923-436.608 488.553-452.718 489.793-457.348 505.664-456.618 517.213-456.768 529.553-451.868 540.803-440.998 539.814-424.268 538.254-412.958 527.263-411.598 513.403M-415.979 788.685C-396.558 782.325-381.839 776.286-362.729 768.995-354.719 765.915-350.619 760.645-351.229 751.595-351.799 743.375-348.089 725.935-345.779 724.755-337.189 763.725-350.629 801.885-339.518 839.646-339.229 839.706-339.199 839.706-338.899 839.765-336.179 835.765-329.519 828.646-314.739 823.465-306.699 820.655-297.869 821.816-290.869 826.696-286.539 829.696-281.949 834.066-278.249 840.396-279.399 820.086-282.249 802.595-284.819 782.685-287.179 764.305-286.489 747.355-279.529 732.495-268.169 708.255-263.549 683.665-262.479 657.334-262.479 657.334-262.479 564.654-295.809 456.733-306.039 425.923-320.669 391.902-334.489 353.212-350.429 373.373-360.699 417.053-365.129 440.793-369.909 466.413-384.288 490.213-395.488 508.883-399.908 516.313-405.068 523.274-411.089 529.423-412.379 530.734-413.698 532.013-415.058 533.223-461.038 681.904-444.668 772.595-444.668 772.595-441.198 792.375-436.068 795.246-415.979 788.685M-278.009 848.126C-280.389 842.856-285.659 834.135-295.939 829.095-301.149 826.526-307.089 825.986-312.639 827.666-318.979 829.606-329.479 832.926-338.899 844.456-317.349 915.656-281.989 890.986-281.989 890.986-279.789 889.496-278.459 883.706-278.229 875.976-277.639 866.676-277.639 857.396-278.009 848.126M-204.019 874.186C-214.779 867.436-226.909 862.426-236.609 854.446-246.489 846.286-255.809 837.656-269.239 830.736-279.889 878.746-245.529 891.646-205.419 885.276-203.549 884.976-201.509 882.926-200.379 881.146-197.9 877.286-202.009 875.446-204.019 874.186M-177.909 925.936C-177.67 926.946-172.009 926.386-165.289 924.666-158.579 922.976-153.349 920.776-153.61 919.766-153.86 918.776-159.519 919.336-166.209 921.046-172.929 922.726-178.179 924.926-177.909 925.936M-160.059 906.336C-150.26 903.116-156.539 897.296-160.51 895.556-165.749 893.266-172.179 893.496-178.119 893.096-205.119 891.276-232.219 895.726-259.349 888.976-273.919 885.356-283.219 892.216-277.859 901.236-263.979 924.626-246.129 925.486-246.129 925.486-216.019 929.256-188.299 915.656-160.059 906.336M-195.749 1000.476C-195.799 1001.516-190.249 1002.717-183.349 1003.147-176.429 1003.577-170.769 1003.087-170.709 1002.057-170.659 1001.027-176.19 999.847-183.11 999.407-190.009 998.957-195.67 999.467-195.749 1000.476M-166.959 988.537C-175.159 972.167-181.999 964.587-196.549 958.247-215.719 949.906-230.419 945.116-255.979 930.366-255.979 930.366-270.509 921.206-283.279 905.626-286.579 901.636-292.349 902.926-297.319 902.696-310.909 902.116-322.259 894.516-331.109 880.866-337.169 871.546-340.179 867.336-346.349 847.636-350.279 835.106-352.489 822.296-352.489 806.786-358.819 809.276-364.419 811.526-369.578 813.606-368.569 828.276-368.229 855.076-365.958 872.956-361.299 909.676-361.099 930.666-331.129 943.486-299.329 957.107-265.319 969.857-233.999 984.667-213.209 994.476-191.319 987.016-166.959 988.537M-344.369 1083.027C-340.359 1088.677-336.419 1092.767-335.579 1092.188-334.729 1091.567-337.299 1086.517-341.319 1080.877-345.329 1075.227-349.268 1071.137-350.109 1071.747-350.949 1072.347-348.379 1077.407-344.369 1083.027M-344.259 1063.187C-341.389 1066.457-332.219 1081.757-328.319 1086.947-319.699 1072.717-317.759 1048.207-322.409 1035.627-334.099 1003.917-346.449 972.346-360.869 941.816-370.359 921.736-379.419 848.946-374.699 815.675-387.828 820.975-398.589 825.325-412.698 830.356-426.198 835.176-426.968 842.936-426.468 856.436-423.448 938.446-396.819 1003.447-344.259 1063.187M-336.998 100.63C-332.458 95.021-316.989 75.241-312.959 61.47-311.199 55.44-315.869 49.641-325.599 51.07-327.479 51.33-329.329 51.911-331.099 52.661-339.049 55.98-344.149 59.241-349.529 67.491-356.558 78.281-354.699 94.121-340.149 101.311-339.059 101.831-337.729 101.571-336.998 100.63M-345.479 163.581C-356.109 156.461-361.359 154.941-368.989 165.871-396.689 205.571-414.498 247.942-406.359 297.572-400.029 336.242-408.629 372.512-422.979 408.012-433.568 434.213-444.068 460.443-453.238 488.443-436.398 478.223-422.939 484.053-414.408 496.153-406.208 507.763-403.479 503.763-396.948 495.763-377.748 472.113-372.288 443.493-365.409 415.163-358.828 388.043-353.879 359.953-332.109 338.172-331.469 339.832-311.309 391.962-311.309 391.962-304.089 412.553-296.199 432.933-289.639 453.753-255.979 554.364-255.209 645.704-255.209 645.704V717.025C-199.719 619.044-209.709 405.592-252.279 245.272-285.059 212.702-321.829 178.621-345.479 163.581M-483.728 1198.928C-321.939 1199.098-160.179 1198.868 1.59 1199.998 25.95 1200.158 24.23 1186.778 24.23 1170.758 24.11 866.416 24.13 562.074 24.13 257.721 24.13 221.102 23.849 184.481 24.3 147.891 24.41 137.631 22.01 133.671 10.54 132.941-45.29 129.431-100.27 120.121-153.73 103.591-162.76 100.8-168.309 102.001-173.749 108.041-194.639 131.161-213.749 155.391-226.009 184.611-230.589 195.501-229.309 200.961-220.499 209.341-159.88 267.162-101.3 326.982-59.91 400.813-39.42 437.383-23.14 475.883-16.01 517.684-2.87 594.884-37.26 652.535-91.53 702.385-137.32 744.465-196.289 760.005-251.569 783.135-278.799 794.496-279.489 801.175-258.789 823.635-234.529 849.946-203.289 864.916-171.59 879.556-156.74 886.446-136.959 891.916-137.19 911.456-137.43 934.076-160.34 935.086-175.499 936.346-195.13 937.976-198.67 938.896-212.039 939.966-201.969 949.806-189.88 952.226-179.469 957.607-169.789 962.636-161.34 968.716-156.67 978.967-151.849 989.587-148.059 1000.747-156.48 1010.777-164.679 1020.507-175.829 1017.717-186.029 1014.157-238.909 995.657-290.179 973.287-344.729 947.037-334.999 972.777-326.279 994.177-318.909 1016.007-313.619 1031.627-308.759 1047.647-306.319 1063.867-304.019 1079.147-309.929 1093.067-325.679 1098.597-340.879 1103.938-346.419 1091.267-353.389 1081.027-377.859 1045.227-399.578 1008.507-415.778 963.317-428.958 930.366-431.169 911.576-434.298 884.646-434.898 879.376-434.828 874.006-435.148 868.726-436.198 850.416-445.688 846.576-461.848 852.475-506.078 868.646-548.758 888.396-587.048 915.626-645.067 956.877-652.197 1016.137-609.177 1076.597-578.178 1120.198-536.348 1153.958-502.518 1194.968-496.898 1201.798-490.308 1198.928-483.728 1198.928M75.849 8.78C74.389 222.242 75.009 435.753 75.019 649.234 75.019 837.555 75.269 1025.837 75.42 1214.158 75.46 1250.048 75.529 1250.048 38.72 1250.048-227.159 1250.048-493.008 1249.768-758.887 1250.548-781.187 1250.629-788.137 1246.318-788.007 1222.438-786.907 1017.297-787.377 812.186-787.377 607.044H-787.487C-787.487 500.263-787.467 393.483-787.507 286.702-787.527 184.531-787.206 82.311-788.107-19.88-788.257-35.52-783.337-42.08-768.637-42.85-751.187-43.77-733.747-45.451-716.287-45.451-470.318-45.451-224.379-45.3 21.579-44.931 73.9-44.86 76.299-53.931 75.849 8.78" fill="#231f20"/>
<path transform="matrix(1,0,0,-1,1894.1958,720.6765)" d="M0 0C-.77-6.78-.16-12.72-7.24-17.53-61.8-54.66-116.28-91.69-180.37-111.26-200.911-117.52-219.631-120.47-235.561-101.31-251.351-82.31-253.531-63.94-241.201-39.44-225.591-8.48-201.741 15.71-177.181 39.4-149.95 65.67-124.941 89.99-91.13 108.59-85.7 110.51-80.68 119.68-83.05 124.57-89.65 138.23-94.12 154.48-101.8 165.51-132.86 210.11-183.191 224.09-237.531 208.21-255.461 202.97-272.951 196.25-290.621 190.09-310.581 183.15-313.041 167.45-310.381 149.47-308.192 134.83-296.681 135.85-281.681 137.22-307.121 113.79-323.66 90.687-339.13 65.316-348.47 50.006-345.052 30.57-336.911 14.62-329.592 .26-308.712-10.93-320.741-30.22-330.382-45.67-346.241-46.88-362.502-46.59-359.002-44.55-356.322-41.57-354.972-37.82-351.192-27.37-359.132-14.9-372.712-9.96-386.262-5.02-400.332-9.48-404.102-19.92-405.622-24.15-405.232-28.73-403.302-32.99-403.972-32.18-404.582-31.36-405.142-30.56-409.032-24.97-409.492-17.6-406.232-11.62-390.272 17.67-389.794 53.473-358.194 74.763-341.364 86.083-334.091 108.237-335.981 129.657-341.971 197.216-329.871 256.4-289.562 312.22-284.291 319.5-279.621 320.32-273.061 319.71-239.651 316.64-209.081 324.6-180.441 341.9-176.071 344.54-170.531 350.56-163.841 340.61-126.151 284.48-80.08 234.51-45.74 175.73-13.8 121.05 7.33 64.55 0 0M-23.77-678.66C-55.67-677.08-87.69-677.83-119.66-678.42-131.191-678.63-136.87-677.13-137.771-663.03-141.171-610.89-145.18-558.72-151.16-506.83-158.111-446.63-178.6-389.86-201.651-334.31-212.651-307.79-229.951-308.24-269.391-309.14-306.841-310-341.092-311.87-376.732-313.99-394.692-315.05-406.232-295.4-408.092-276.79-410.712-250.21-402.572-235.71-390.192-223.02-375.302-207.75-358.331-205.89-337.431-204.3-295.361-201.13-251.911-199.38-210.111-190.68-137.961-175.66-70.874-144.898-31.554-89.918-23.134-78.057-14.43-57.78-.13-44.56V-78.48C-.13-270.74-.45-463.02 .35-655.28 .43-674.92-5.22-679.57-23.77-678.66M-158.021-678.74C-161.061-678.6-161.901-678.22-164.941-678.22-360.411-678.22-555.883-678.08-751.344-678.48-766.874-678.51-773.034-674.38-772.534-657.82-771.384-618.97-771.884-580.07-771.874-541.18-771.874-521.73-764.543-504.36-756.734-487.21-733.694-436.62-704.453-389.48-674.673-342.76-662.103-323.07-656.673-301.63-653.443-279.38-648.603-246.16-626.263-226.58-592.323-224.74-560.883-223.03-530.863-231.61-500.352-235.79-468.902-240.11-440.482-238.54-414.992-217.85-412.022-215.44-407.702-214.66-399.272-211.19-421.372-240.42-422.102-267.92-415.722-296.22-411.502-314.94-396.302-324.66-377.602-324.13-332.761-322.9-287.551-320.37-242.711-319.47-226.521-319.14-218.971-325.99-211.811-341.49-184.461-400.7-170.571-462.08-161.431-526.34-154.811-572.93-156.251-620.93-149.421-667.32-148.271-675.05-149.51-679.13-158.021-678.74M-751.974 530.14C-706.573 529.34-661.163 527.84-615.773 528.35-604.703 528.49-599.623 521.79-596.303 516-562.693 457.65-525.852 400.82-509.552 334.04-505.932 319.22-505.342 303.98-503.742 289.34-501.572 269.35-493.932 258.54-476.972 249.15-448.042 233.13-419.532 216.22-392.802 196.42-371.411 180.58-369.762 172.51-383.682 150.16-391.932 136.89-406.282 130.1-414.892 117.5-417.422 113.83-420.912 113.06-424.362 116.55-427.472 119.7-431.872 122.61-433.052 126.44-434.942 132.62-427.762 132.95-424.392 134.75-417.232 138.55-408.472 139.69-401.942 144.21-390.472 152.15-393.332 167.36-406.392 172.36-427.932 180.61-451.102 171.16-461.712 149.69-464.252 144.54-467.572 140.15-473.812 141.78-481.512 143.79-487.412 148.52-488.782 156.99-490.962 170.39-485.062 180.96-475.202 188.78-462.622 198.76-467.612 206.52-477.072 213.98-488.892 223.3-501.542 231.61-513.072 241.29-541.102 264.86-549.352 299.16-561.253 331.28-551.263 337.31-533.802 326.71-531.273 341.88-528.983 355.72-541.642 364.67-552.892 372.98-607.133 413.09-683.873 414.6-738.574 368.42-743.643 364.16-751.634 360.08-748.293 352.21-744.293 342.77-735.143 346.85-728.533 348.87-703.933 356.38-679.523 362.69-653.213 361.3-620.303 359.56-586.033 335.31-576.843 304.15-574.943 297.7-572.803 289.69-578.373 284.86-582.903 280.95-589.413 283.53-595.363 286.07-621.803 297.38-650.253 300.71-678.263 305.61-684.873 306.77-691.973 306.23-698.714 305.35-703.193 304.75-706.833 301.63-707.774 296.46-708.793 290.82-705.033 289.28-701.103 286.47-689.873 278.46-676.903 274.46-664.793 268.51-645.263 258.91-626.273 248.61-609.583 233.95-589.823 216.58-590.076 206.376-607.046 184.806-630.266 155.276-649.823 122.22-665.763 88.22-681.563 54.54-683.852 19.777-667.642-14.343-660.002-30.423-645.123-38.38-627.193-37.33-573.993-34.25-524.742-49.35-476.232-69.28-454.292-78.31-437.542-93.31-423.062-110.77-412.912-123.01-405.862-137.97-416.242-154.35-422.962-164.97-419.662-176.62-420.232-187.84-421.222-207.87-428.642-220.02-451.212-221.29-492.282-223.63-534.332-212-575.213-211.19-636.693-209.94-657.363-225.07-666.113-286.51-667.783-298.22-670.563-311.02-676.933-320.59-710.884-371.72-738.643-428.5-771.874-481.15V74.45C-771.884 219.34-771.543 364.23-772.434 509.11-772.554 526.13-766.293 530.39-751.974 530.14M-422.662-7.18C-429.522-5.15-431.052 .36-428.822 5.34-423.982 16.15-418.232 26.6-412.042 36.71-410.202 39.74-407.672 45.33-401.832 42.03-398.122 39.93-397.652 36.24-397.472 32.32-396.952 19.98-414.732-7.75-422.662-7.18M-434.712 20.82C-440.932 11.61-436.402 1.46-440.782-10.46-448.392-6.05-454.892-2.72-460.902 1.32-469.462 7.08-483.372 11.21-482.832 21.84-482.232 33.91-466.662 35.23-457.522 40.99-449.542 46.02-440.452 48.46-432.522 41.16-424.872 34.09-431.052 26.22-434.712 20.82M-433.702 57.67C-451.882 63.14-464.722 51.9-478.802 43.2-465.922 63.9-448.772 79.17-427.732 89.98-421.892 92.98-416.822 96.54-413.242 85.94-409.682 75.32-394.972 65.98-403.262 54.5-412.062 42.28-423.472 54.61-433.702 57.67M-446.712 157.91C-433.892 166.4-419.662 164.52-401.492 163.07-412.802 145.42-429.002 146.83-442.542 143.13-444.842 142.51-449.502 146.06-451.192 148.83-453.642 152.85-449.542 156.01-446.712 157.91M-593.593 350.9C-633.713 375.82-674.113 375.4-716.623 361.48-718.603 360.83-721.053 361.59-726.143 361.82-671.583 405.12-571.773 395.13-542.932 342.28-561.372 345.07-580.653 342.86-593.593 350.9M-596.583 238.72C-620.033 263.29-650.833 273.37-679.653 287.66-683.243 289.44-686.504 290.48-687.533 296.15-662.713 298.72-641.163 286.91-618.393 281.64-612.623 280.3-607.383 276.79-601.663 274.98-570.583 265.15-562.642 270.99-563.323 302.77-555.602 280.78-544.803 260.93-529.403 243.18-513.842 225.26-493.242 217.393-478.802 199.104-485.623 186.854-500.273 182.062-500.663 165.401-501.223 140.041-489.932 128.65-464.732 127.6-456.382 127.25-449.162 127.58-442.912 119.27-434.802 108.44-432.442 100.7-444.672 91.32-462.602 77.56-478.732 61.88-492.772 43.82-505.302 27.68-511.843 14.425-496.833-3.875-477.023-28.015-454.45-49.581-426.242-76.92-453.762-66.16-475.542-57.87-497.162-49.16-530.282-35.81-565.413-29.11-600.343-28.9-669.423-28.49-673.023 12.67-663.993 59.67-656.043 101.13-628.533 133.37-606.093 167.72-601.583 174.64-595.273 180.45-591.353 187.63-581.563 205.56-580.173 221.53-596.583 238.72M-400.822-65.59C-408.242-71.7-417.932-71.96-423.812-66.9-440.872-52.23-457.792-36.98-468.852-16.73-471.652-11.59-472.972-6.6-463.622-5.65-445.092-23.3-417.992-30.16-402.022-51.98-399.292-55.73-394.562-60.43-400.822-65.59M-391.672-83.89C-388.712-81.6-386.092-78.86-382.002-75.13-376.452-94.45-357.422-101.96-348.572-118.8-357.132-118.86-365.182-110.91-372.601-116.38-385.332-125.78-390.212-117.37-396.542-108.37-403.862-97.93-400.432-90.7-391.672-83.89M-381.784-36.496C-391.043-31.615-396.367-23.485-393.683-18.335-390.982-13.193-381.298-12.993-372.039-17.884-362.772-22.764-357.448-30.894-360.149-36.044-362.833-41.186-372.517-41.385-381.784-36.496M-382.342-135.19C-382.342-135.19-378.372-128.38-362.962-130.96-362.962-130.96-351.282-135.19-344.752-135.19-344.752-135.19-349.391-143.83-382.342-135.19M-381.092-155.98C-364.242-157.72-347.391-159.67-330.531-161.52-347.252-173.16-364.002-177.49-382.182-175.37-388.962-174.57-393.182-173.14-393.042-164.72-392.892-155.37-387.472-155.33-381.092-155.98M-208.311 83.48C-223.241 80.76-235.921 72.65-250.661 82.24-262.161 89.71-264.141 98.24-258.171 108.79-233.711 152.15-182.421 153.91-149.821 110.25-170.241 108.2-188.241 106.95-206.041 104.34-215.031 103.02-228.841 103.1-229.681 92.73-230.521 82.58-215.641 89.04-208.311 83.48M-104.18 132.06C-96.8 128.07-91.25 126.27-93.45 115.95-93.23 116.04-93.45 115.94-93.45 115.95-121.901 106.21-140.231 119.45-161.711 135.26-184.981 152.4-210.831 165.13-244.621 142.3-230.721 162.89-211.221 163.43-193.521 178.12-225.171 175.73-248.641 167.1-272.111 156.68-281.391 152.56-295.062 134.98-303.091 155.47-309.732 172.47-292.641 177.53-280.201 181.94-261.301 188.64-241.861 193.81-223.051 200.71-186.491 214.1-157.811 198.75-129.51 177.13-139.001 168.45-146.571 177.54-154.51 177.6-162.231 177.66-170.471 179.65-181.04 173.74-153.531 158.82-128.88 145.41-104.18 132.06M-321.252 11.86C-339.161 35.16-340.092 45.44-323.962 69.98-309.062 92.65-293.351 114.7-268.321 127.69-266.981 125.88-265.191 124.35-265.471 123.7-272.341 107.78-275.161 92.14-262.841 77.39-249.591 61.52-231.961 67.08-216.351 70-198.561 73.34-180.341 71.41-162.04 76.66-191.231 44.93-218.431 12.66-242.071-22.24-256.081-42.93-266.171-66.35-257.841-92.31-248.081-122.74-223.491-134.14-191.581-126.65-149.49-116.78-112.18-97.02-75.86-74.5-55.09-61.63-33.6-49.93-12.43-37.7-50.01-113.66-117.561-157.75-202.001-179.32-243.261-186.77-274.861-191.67-326.572-192.89-347.502-191.12-367.592-196.06-391.562-202.17-377.332-182.81-357.862-186.46-342.882-179.88-334.891-176.37-325.462-175.68-316.581-174.84-306.991-173.93-296.891-171.78-294.301-162.43-291.731-153.18-300.151-146.23-306.601-139.81-324.922-121.57-343.971-103.97-361.132-84.69-376.672-67.24-373.081-57.87-350.541-56.09-335.652-54.92-324.831-46.81-315.522-38-296.671-20.18-309.471-3.48-321.252 11.86M-116.84 528.75C-190.541 510.83-249.713 472.483-285.343 402.403-295.133 383.143-301.531 361.61-292.662 340.55-290.292 334.961-288.161 331.57-292.361 326.54-339.871 269.72-349.982 201.81-346.612 131.19-345.302 103.46-359.291 87.59-377.552 72.05-385.302 65.45-389.592 67.02-394.722 76.01-412.062 106.41-412.242 106.3-389.142 129.99-381.752 137.55-374.742 145.73-368.952 154.55-360.172 167.92-360.842 180.43-373.092 192.67-395.212 214.79-422.612 228.89-448.772 244.91-459.612 251.54-466.795 259.636-478.195 265.146-489.205 270.476-494.235 279.576-494.045 290.416-492.915 353.296-521.613 406.29-551.863 458.99-564.863 481.66-577.473 504.57-591.033 528.75ZM-162.271 372.18C-169.811 398.18-157.321 413.93-144.171 429.32-142.64 431.1-140.54 434.49-136.921 431.33-133.83 428.61-131.93 425.74-133.72 421.56-140.7 405.12-145.281 387.35-162.271 372.18M-15.38 506.49C-6.45 503.91 .2 499.99 .14 487.77-.34 366.71-.15 245.67-.15 124.61-30.12 171.44-58.87 217.18-91.45 260.36-111.88 287.42-136.151 311.49-150.591 343.09-155.66 354.2-156.97 361.49-148.1 371.3-136.481 384.12-130.33 400.65-125.18 417.1-122.231 426.46-119.441 438.07-131.74 442.57-142.381 446.47-154.2 443.55-158.64 431.94-165.021 415.32-175.961 399.63-173.591 380.51-171.891 366.75-177.37 355.9-188.151 349.19-212.591 334.01-238.351 322.08-268.141 333.05-286.191 339.7-290.521 352.02-285.491 370.91-270.851 425.86-232.901 460.92-187.041 489.04-132.88 522.23-74.88 523.67-15.38 506.49M45.79 536.69C45.76 570.2 44.29 571.57 12.36 571.57-255.461 571.57-523.282 571.33-791.094 572.01-812.174 572.06-818.184 566.38-818.114 545.07-817.334 338.39-817.654 131.7-817.654-74.98V-685.88C-817.654-722.21-817.004-723.29-779.134-723.34-514.392-723.69-249.661-723.87 15.09-723.99 43.39-724 45.6-721.34 45.611-691.9 45.69-403.63 45.81-115.36 45.87 172.91 45.901 294.18 45.89 415.44 45.79 536.69" fill="#231f20"/>
</g>
</g>
</svg>
