<svg xmlns="http://www.w3.org/2000/svg" width="2048" height="1920" viewBox="0 0 2048 1920"><defs><clipPath id="clip_1"><path d="M0 0h2048v1920H0Z"/></clipPath></defs><g clip-path="url(#clip_1)"><path fill="#231f20" d="m644.794 639.975-2.318-.007c-6.403-13.73-13.193-27.31-19.134-41.22-17.25-40.39-39.623-77.332-75.668-105.44-42.103-32.832-90.31-47.029-144.06-39.73-65.238 8.86-111.996 44.551-145.23 97.308-38.52 61.151-42.302 127.528-30.648 195.935 11.114 65.232 41.305 122.206 82.991 174.253 39.25 49.006 85.474 91.897 130.536 135.798 46.693 45.49 93.057 91.246 135.643 140.342 21.842 25.181 42.246 51.371 61.088 78.651 3.441 4.981 5.512 6.283 9.185.272 4.047-6.625 8.77-12.883 13.338-19.209 53.746-74.429 118.303-140.008 184.06-204.628 31.441-30.899 63.532-61.216 93.312-93.626 3.131-3.408 5.43-6.312 3.752-11.592-14.146-44.497-19.706-90.059-18.62-136.52 2.182-93.492 37.44-172.489 112.026-234.412 4.18-3.47 5.095-6.095 2.396-11.05-12.713-23.34-28.767-44.176-48.77-62.316-70.385-63.827-171.937-68.429-247.158-11.073-31.514 24.03-53.674 54.657-69.61 89.708-8.899 19.576-18.065 39.041-27.11 58.556m-.2 758.698c-14.267-21.19-28.112-41.375-41.556-61.8-38.713-58.816-85.168-111.768-134.599-162.512-41.916-43.029-86.3-83.766-128.648-126.389-50.004-50.33-97.368-102.655-129.949-165.333-48.969-94.204-63.815-193.08-35.76-295.155 21.64-78.732 70.044-140.552 146.861-178.709 92.9-46.147 209.705-26.163 282.036 46.088 12.946 12.931 25.58 26.065 35.537 41.213 4.506 6.856 6.531 4.963 10.363-.368 31.168-43.358 71.047-76.728 122.893-96.038 93.408-34.792 199.048-10.267 268.054 62.174 20.607 21.632 38.585 45.101 51.921 71.46 3.542 7 7.053 5.723 12.708 3.682 57.02-20.576 114.237-20.768 171.248-.249 52.093 18.75 91.962 52.23 123.613 95.25 6.401 8.7 6.187 8.585 12.68-.206 41.848-56.657 96.33-95.867 169.378-106.882 73.403-11.068 139.657 6.111 196.04 52.77 65.43 54.145 101.017 123.178 108.718 205.425 8.6 91.851-12.597 177.052-61.78 256.272-32.194 51.853-73.323 96.867-116.349 140.524-46.5 47.182-94.852 92.671-140.453 140.683-57.418 60.455-107.484 125.906-149.767 196.79-3.54 5.934-7.32 11.737-11.639 18.637-3.959-5.936-7.605-11.055-10.89-16.377-50.475-81.774-111.759-155.532-180.739-223.787-50.898-50.363-103.907-98.789-152.385-151.385-34.157-37.06-64.538-76.55-88.247-120.5-2.606-4.829-4.22-5.675-8.345-1.348C902.671 1088.55 834.4 1149.658 774 1217.836c-43.22 48.79-80.474 101.444-114.288 156.433-4.794 7.796-9.639 15.563-15.118 24.404M991.06 891.25c1.622-.326 1.98-.295 2.147-.45.6-.559 1.208-1.132 1.683-1.785 51.846-71.268 76.621-149.693 68.622-236.714-.34-3.7.567-9.503-2.603-10.615-4.277-1.5-6.78 4.023-9.48 6.86-66.797 70.211-77.135 153.16-60.369 242.704m415.685-114.422-2.337-.067c-5.738-12.259-11.656-24.444-17.178-36.79-15.872-35.486-33.334-70.022-63.432-97.01-57.282-51.367-122.975-66.99-198.195-42.359-6.09 1.994-7.59 4.637-6.419 10.85 13.753 72.886 7.504 144.311-18.717 214.004-18.326 48.707-45.355 92.894-78.81 133.497-5.14 6.237-6.088 11.021-2.1 18.268 7.353 13.366 14.733 26.69 23.008 39.556 32.277 50.18 73.803 93.124 116.686 134.943 42.04 40.995 84.715 81.416 125.34 123.693 41.808 43.508 81.353 88.83 115.258 138.355 3.49 5.1 5.46 6.011 9.192.202 6.005-9.345 12.566-18.375 19.15-27.367 49.434-67.512 108.03-127.54 167.861-186.549 43.782-43.18 88.647-85.375 128.706-131.882 57.842-67.15 97.39-141.678 102.076-230.08 3.82-72.028-15.079-136.908-68.356-190.532-75.892-76.388-194.93-77.668-272.753-3.387-28.79 27.48-46.617 60.883-61.968 96.016-5.385 12.327-11.325 24.433-17.012 36.64"/></g></svg>