<svg xmlns="http://www.w3.org/2000/svg" width="2048" height="1920" viewBox="0 0 2048 1920"><defs><clipPath id="clip_1"><path d="M0 0h2048v1920H0Z"/></clipPath></defs><g fill="#030404" clip-path="url(#clip_1)"><path d="M491.874 834.238c17.043-2.305 30.396 12.712 45.585 18.835 7.335 2.607 11.598 22.818 4.927 31.478-12.499-1.136-22.215-5.72-27.182 10.291-4.726 25.098 32.673 15.267 29.773 44.655-.173 12.654.27 24.998.061 37.645-1.135 21.558-14.649-3.656-34.744-.515-19.17.055-39.68 3.63-57.076-5.957-2.618-1.49-6.908-2.9-10.384-1.957-14.802 4.005-29.542-1.257-44.914-.604-3.94.078-5.332-.698-5.216-4.398-2.457-12.4 1.146-19.638 7.002-29.57 5.523-11.14 10.972-21.65 23.61-26.532 7.68-3.21 12.113-10.395 12.495-19.842.296-21.808 30.785-60.334 56.063-53.529m-5.76 255.933c6.726-22.725 25.954-38.309 38.09-58.215-21.29 10.442-38.718 27.224-44.794 50.35-1.352 5.247-2.124 6.584-4.98 5.985-8.584-1.797-13.879-4.22-13.757-10.734.44-23.348 5.96-42.129 16.875-57.417 14.19-15.452 40.316-9.915 57.574-21.807 5.556-3.745 7.553-1.089 8.133 5.462 3.177 45.68 1.14 90.418 1.943 135.94.026 8.323-2.142 8.907-10.115 6.208-18.663-6.797-29.539-21.194-41.052-36.437-3.64-6.523-12.628-10.645-7.917-19.335m87.625-63.25-1.9-1.155c-9.426 7.225-5.996-32.648 15.767-21.233l1.166-1.895c9.921 6.87-12.912 16.404-15.033 24.283m139.238-40.696c-10.894-13.698 67.244 9.715 51.048 19.764-40.39 30.803-22.163-2.5-51.048-19.764m-133.24 48.637c10.864-16.543 35.143-48.79 53.496-40.69 6.576 5.601 18.813-4.957 21.9 4.254 2.145 16.524-20.359 40.055-22.718 57.223 10.963-9.464 22.585-21.799 30.576-49.613 1.391-8.188 12.235-14.139 10.353-20.754-.52-6.293-6.508-10.277-12.847-14.496-32.246-21.346-55.574-52.619-77.933-82.622-4.134-5.547-8.409-11.282-12.645-16.824-2.117-3.912 5.298-36.203 8.983-39.24 4.5-3.413 7.285 2.385 11.71 2.54 18.824.27 22.62 14.348 26.64 29.251 7.143 28.688 45.215 97.037 69.705 106.563 9.982-.275 8.378-21.547 22.345-16.866 23.2 3.784 40.508 1.656 54.474-6.699 17.57-12.83 85.856-23.863 96.828-3.545.667 3.764-1.478 5.178-6.53 7.508-24.015 14.346-46.984 29.597-70.764 44.206-5.856 3.71-9.977 1.194-16.068-3.39-25.652-19.414-56.052-16.924-86.252-14.345 12.166 5.434 66.48 42.757 41.091 54.792-35.455 20.505-69.446 42.051-103.899 63.938-2 1.074-7.663 6.67-8.045 3.285-3.655-19.789-3.655-19.79-6.08-19.476-2.252.29-2.162 1.501-1.734 7.322 3.8 16.85-6.36 24.856-20.379 30.064-3.207 1.04-10.429 5.786-12.813 4.681-5.067-27.88-4.445-61.384 10.606-87.067m692.005-803.93c-15.656 20.303-20.086 46.125-31.04 68.753-10.502 18.857-14.857 26.438-16.578 48.56-.613.588-2.196.644-3.306-.107-15.598-5.175-5.453-16.424-1.368-25.95 8.417-32.986 12.714-64.497 37.813-94.927 12.298-14.229-6.273-37.904-23.278-26.948-3.826 2.18-7.622 6.6-3.979 15.287 2.802 6.68 1.201 12.554-2.064 19.318-7.25 15.12-14.14 29.335-20.004 42.055-1.65 4.336-2.554.922-2.937-2.162-4.248-25.023-11.597-57.345-30.888-85.41-2.946-4.285-1.675-6.317-.239-7.609 8.125-6.455 3.766-14.324-2.918-19.149-7.233-6.45-15.938-5.689-23.88 2.091-6.403 5.814-11.292 14.134-3.12 19.947 17.152 12.424 20.66 30.168 24.372 48.954 2.05 15.18 9.567 29.903 9.063 45.271-.738 5.454.121 10.568-8.343 5.56-13.632-7.573-28.603-11.155-45.773-10.957-16.976.135-32.243-11.376-49.06-14.224-15.755-3.177-32.045-6.463-43.273 12.145-2.48 4.11-7.559 4.058-10.367 3.66-29.439-5.295-51.66 9.858-70.309 31.553-8.464 7.605-16.575 17.18-20.353 28.91 18.325-9.207 36.298-17.873 54.55-8.323 3.56 1.441 3.615 1.841 3.263 3.14-.264.971-1.073 1.253-4.959.233-16.744-4.548-29.883 5.92-44.985 8.938-8.768 2.216-12.549 22.072-7.846 28.384 1.814 2.45 2.623 4.108 2.405 4.928-7.328 4.3-14.594 9.026-20.36 15.022-4.33 3.816-25.353 23.75-25.208 9.275-1.457-28.537-17.755-49.136-33.517-69.057-8.725-7.88-14.209-28.04-28.147-24.91-15.95-.562-20.29-13.669-25.284 10.535-9.454 46.041-2.569 88.518 2.607 132.171 2.96 21.88 6.02 44.503 5.504 67.083.873 29.492 17.468 54.622 26.885 81.652 2.24 4.508 3.962 9.387 6.241 13.88 7.54 11.196-8.676 9.238-1.4 19.818 6.44 13.59 13.813 26.33 22.51 36.231 14.598 17.003 19.253 37.171 24.181 58.523.347 5.441 9.554 25.821-1.808 18.166-33.919-21.03-86.934-69.017-106.96-13.882-6.882 16.857-7.172 22.84-5.494 41.243 17.711-.252 12.566-27.595 59.481-10.22 13.91 5.135 26.843 12.863 39.351 20.337 13.882 10.61 36.075 13.456 41.497 32.261 1.256 3.761.334 6.283-2.487 4.5-25.397-15.92-36.145 25.303-46.093 9.816-15.605-20.346-46.295-22.393-68.408-33.033-21.418-6.189-42.493-23.903-64.908-5.886-3.13 2.825-7.317 5.144-11.485 6.363-24.807 7.19-39.639 24.371-43.799 50.178-.83 4.998-1.484 6.286-4.5 5.826-1.954-.298-2.213-.9-1.98-4.605-.056-14.973-4.455-30.195 8.745-41.879 10.903-11.475-8.166-28.555-19.558-18.959-6.615 4.661-8.097 11.112-3.332 17.6 4.376 6.622.968 15.603-.862 22.596-9.496-.536-17.55-1.225-25.674 7.26-1.296-.465-3.08-3.868-3.292-6.28-1.972-22.58-3.528-44.736-4.626-65.853-.205-3.933 1.984-7.347 6.005-9.367 11.78-5.916 6.296-17.18 4.494-20.882-6.344-14.513-34.793-2.063-26.513 14.448 4.636 10.086 2.405 22.473 2.512 33.536-.37 12.812-.753 26.06.335 39.192.938 12.001-3.392 13.872-13.819 7.916-6.72-3.886-11.98-8.912-21.932-4.879-9.96-175.299-.359-347.64-3.652-524.82 1.547-20.492-2.936-126.178 1.762-144.579 119.708-4.974 245.241 1.822 364.118-.596 112.662-.472 227.643.885 341.434.523 8.145-.079 10.57 2.031 11.742 10.273 3.106 21.848 3.764 47.434-14.905 71.541m198.566 296.65c-30.773-33.498-66.835-3.805-101.844-28.722-23.809-16.793-55.734 3.634-77.557-15.214-9.8-8.626-20.886-17.562-34.15-22.527-2.397-.84-2.722-1.162-2.74-1.996 24.282-16.602 56.228-15 86.97-1.535 11.71 6.022 25.005 10.576 38.611 11.02-32.595-19.465-66.846-37.937-108.9-30.414 21.071-21.988 48.338-26.526 76.808-23.835-29.266-12.733-55.22-7.79-76.034 7.75-3.455 2.184-9.69 10.578-12.325 7.263-4.524-2.563 1.977-10.153 4-14.644 9.992-18.257 21.254-42.192 45.216-38.44 44.622-3.3 77.418-13.325 107.435 33.007 17.665 26.274 38.142 48.986 62.597 69.43 11.39 9.52 21.748 20.668 20.427 37.634-.199 14.705-18.422 24.501-28.514 11.223m-266.087 146.134c-9.858 6.883-32.925 6.648-36.897 17.13-2.49 6.996 4.948 15.814 11.847 19.421 12.443 6.133 10.505 17.544-3.966 16.565-15.565 2.512-30.032 5.532-40.51-9.63-29.514-34.242-65.489-51.287-101.94-53.163-9.538.392-7.055-3.165.252-4.675 41.121-16.346 61.608 11.681 71.151 2.242-.147-7.895-7.094-9.69-11.733-13.196-15.192-13.287-31.708-26.947-51.826-35.174-5.31-6.088-18.009-1.804-20.755-9.284-2.995-18.503 19.58-51.217 6.294-66.766-5.278-6.66-1.75-14.538 2.316-22.035 25.998-43.97 51.896-100.81 110.118-95.194l.572-4.392c-24.729-4.259-28.709-18.938-45.994-32.24-30.516-10.15-46.438-40.516-77.62-50.759-13.86-5.963-22.817-21.839-40.15-20.716-4.638.29-6.696-.518-7.595-2.984 3.472-15.9 31.277-25.643 45.686-22.597 29.805 6.614 26.142-25.315 50.65-17.486 24.945 5.868 46.014 19.535 73.111 17.465 8.71-.95 17.362 3.968 25.73 8.726 5.432 3.482 11.922 4.136 11.16 12.624 5.601 43.675-8.617 88.151-1.26 130.934 12.923 52.297-33.622 83.424-42.112 129.823 24.68-29.036 43.435-61.319 52.776-94.674 2.654-9.194 5.232-11.669 18.204-11.588 35.8-.845 31.181 35.038 46.867 33.315 3.886-8.905-6.88-18.397-3.847-23.444 5.296-4.618 17.467 4.017 22.665 7.234 23.853 16.768 48.52 34.105 58.811 63.392 9.612 26.46 4.077 57.735-19.892 74.488-28.405 31.993-59.325 42.497-102.113 56.638m-288.008 179.44c-22.145-4.963-34.417 19.52-40.59 15.773-10.489-7.386 4.43-39.47 17.557-43.424 10.596-6.324 16.631 10.776 28.104-.83 13.38-13.329-9.216-40.864-12.022-57.839-6.56-19.095-10.56-35.296-12.588-50.984-4.298-30.676-19.517-53.865-35.572-73.267-3.806-3.942-5.123-5.829-2.794-8.66 1.606-1.953 2.934-1.592 6.997.767 5.286 3.021 11.221 4.333 17.054 6.072 16.891.963 12.212 20.038 27.251 22.14 16.5 1.967 18.244-27.429 58.343-38.513 33.714-8.425 45.112-13.503 41.058 26.802-.339 5.236-3.643 6.73-9.004 8.736-19.836 13.992-24.306-11.31-38.844-10.41-18.906 9.363-34.388 52.78-34.27 79.296 3.196 26.671 6.473 53.69 9.762 80.868 1.89 24.448-.042 47.705 11.614 71.5.865 2.608 4.611 7.008.83 8.268-6.386 1.051-8.41-31.943-32.886-36.296m-106.966 69.04c-10.338 1.171-7.958-.659-5.233-9.154 10.284-30.644 24.634-4.478 47.084-37.633 8.292-9.308 7.72-10.366 12.897 1.44 2.978 7.092 7.558 13.068 10.477 20.07 2.171 10.836 15.858 7.438 13.231-2.514-.246-1.153-.134-1.863-.03-2.728-.63-13.233 12.981-28.673 26.36-28.47 12.19-1.48 17.288 24.628 22.96 33.167.987 2.254-.028 3.752-4.346 6.413-17.243 10.625-34.474 21.002-51.735 31.916-3.49 2.207-5.938 2.132-9.35-.287-16.847-12.542-40.344-15.602-62.315-12.22m426.051-497.982c-.974-.187-1.814-.347-1.032-4.88 2.312-15.574 4.712-31.947 7.047-47.457.58-2.746 1.657-6.213 3.651-5.858 6.563 4.023 15.294-3.016 20.25 2.284.276 4.788-6.272 11.7-8.334 16.491-6.605 11.111-13.432 22.601-17.957 35.195-1.457 4.054-2.65 4.411-3.625 4.225m-42.554 5.811c.207-9.969-.438-20.118-.063-30.093l.53.003c1.147-7.989-2.7-45.988 2.26-48.082 2.935-1.58 6.725 2.534 9.333 4.652 1.962 1.771 3.991 3.602 6.58 4.377 13.177 3.196 3.62 20.651 2.596 30.073-4.942 19.291-8.769 41.277-3.609 61.035-13.065 6.61-19.766-11-17.627-21.965m-280.542 212.21c9.152-10.303 11.83-24.93 16.873-37.92-11.514 3.348-15.272 12.654-21.219 20.077-3.199 4.173-9.926 7.74-8.504-.6 2.01-30.035.11-60.6-1.287-90.059-1.267-19.674-1.534-40.107-2.428-60.043-1.855-8.843 5.036-8.447 11.083-4.162 17.71 11.131 11.503 35.122 28.944 50.12 30.27 37.254 23.663 45.55 73.31 25.972 7.47-2.103 10.815.316 8.246 7.78-3.23 9.473-4.369 19.258-5.47 28.721-1.88 10.655.312 24.664-14.763 24.987-35.856 3.926-63.206 15.741-82.953 38.096-1.267 2.1-2.994 3.43-4.17.751-.086-.932 1.373-2.61 2.338-3.72m32.956-267.454c3.05-8.182-12.317-20.582 1.036-25.026 36.067-15.183 87.137-2.912 111.847 24.953-30.343 9.191-75.37 2.562-102.015 29.765 13.938-2.528 91.857-31.74 128.241-11.455 5.365 1.792 4.187 5.463-1.473 4.084-44.498-14.748-112.56 22.832-129.342 42.747 8.845-1.885 8.792-1.46 19.763-8.028 13.083-7.638 34.98-20.423 55.88-26.097 15.025-4.079 28.442-2.9 41.418-1.76 8.553 2.946 28.91-4.132 30.523 7.811.297 2.485-1.583 3.465-6.199 4.851-11.32 3.4-20.798 11.01-28.976 23.266-19.318 28.86-46.12 52.012-52.88 88.593-.969 5.32-4.399 6.273-9.914 7.387-24.17 7.994-28.706 15.73-45.326-8.285-12.548-15.677-26.287-30.08-29.409-50.776-1.88-12.225-13.007-17.583-22.493-20.885-24.206-7.682-28.108-32.3-4.469-44.67 14.327-8.387 24.037-21.899 38.441-30.034 2.804-1.57 4.603-3.737 5.347-6.44M847.11 492.513c7.73-58.54-5.006-122.206-16.843-175.552.734-.308 1.037-.435 2.317 2.572 6.638 13.317 17.202 23.393 25.795 35.16 32.652 44.177 8.094 67.063 20.363 94.193 5.873 8.233 6.173 18.582 6.534 28.541 1.623 40.957 2.777 85.04 4.37 129.003.521 5.435.326 7.853-2.239 8.751-4.188 2.22-6.628-4.337-8.927-8.64-2.675-4.173-7.568-10.31-10.76-14.85.086 4.973-.23 12.523.054 16.996.437 3.971 3.646 10.283-1.136 11.158-14.41.954-26.487-52.529-35.25-64.485-10.957-20.279-12.037-42.42-13.082-63.834-2.304-46.637-14.273-91.236-11.833-141.109 1.563-7.659-.39-34.847 7.141-36.128 2.376-.285 4.611.274 5.967 6.47 14.001 68.92 15.366 120.781 25.392 186.77Zm172.814 127.906c10.372-.749 25.6 9.927 35.536 14.723 11.266 6.241-1.489 8.428-7.576 8.818-6.414.891-13.046 1.811-19.154 4.157-7.567 2.727-9.67 1.671-10.594-6.376-.745-7.098-.98-19.004 1.788-21.322M784.865 749.486c-12.855 10.016 6.258-30.92 9.483-33.16 15.523-18.91 59.523 17.747 75.444 26.466 12.174 8.038 26.42 16.323 29.125 30.695 10.543 22.242-14.764 0-22.278-2.779-26.148-14.72-62.785-37.323-91.774-21.222M711.951 934.53c14.145-20.61 28.583-42.4 54.721-53.238-11.864-2.519-23.95-.088-29.507 8.184-51.259 62.16-24.664 23.078-39.849-23.853-.606 9.376-1.297 16.307-1.076 27.357-.417 8.127 1.747 30.903-4.37 22.925-9.559-16.29-16.545-35.03-16.842-51.375 21.243-12.792 6.461-49.895 47.67-61.517 11.192-.267 26.004-24.977 33.517-9.29-10.12 11.021-34.665 26.128-36.822 45.866 13.445-6.606 26.137-30.592 40.99-37.335 8.253-5.192 27.174-6.259 32.275 4.471.706 16.755-29.063 34.78-23.899 54.98 13.442-18.225 33.044-50.926 58.788-46.099 13.468 2.754 36.873 18.575 30.911 34.952-1.369 2.376-2.696 2.294-6.449 1.421-23.02-4.472-43.432 23.172-50.56 42.575-4.828 9.346-9.818 19.01-12.567 29.652-.363 1.41-2.594 3.458-5.078 4.666-18.749 9.112-40.81 18.703-65.377 17.1-11.983-1.577-12.763-1.383-6.476-11.442m134.538-71.865c1.93 2.437-21.683 23.213-23.514 20.843-12.785-3.33 20.752-31.828 23.514-20.843M689.611 946.63c-8.562 3.677-17.913-6.439-22.627-14.98-7.398-18.689-42.578-69.928-31.062-90.886 6.032-8.894 19.415-7.258 18.721 5.302 2.485 27.286 6.76 61.731 28.153 85.86 3.36 3.456 8.851 10.256 6.815 14.704m598.617-613.76c.022 19.912-1.229 21.513-20.585 19.191-21.422-1.91-19.026-3.178-14.403-22.9 5.632-23.299 17.586-43.482 27.011-65.093 1.785-3.863 2.542-5.019 4.907-4.606 2.434-.115 1.695 3.098 1.263 5.908-1.927 22.81 3.407 45.388 1.807 67.5m-275.952 520.92c-16.372 8.551-32.414 21.621-49.322 28.191-7.299-13.936-17.95-32.224-12.832-48.287-1.472-29.334-4.918-58.5-10.872-92.054-5.222-29.415 7.22-54.47 20.08-75.1 3.573-5.64 6.403-5.17 10.113.373 7.525 11.497 18.055 13.655 29.65 6.075 10.07-6.58 16.048-8.158 22.8.675 9.62 9.666 20.573-2.178 45.288 11.967 4.39 1.65 4.086 4.981 1.75 11.824-8.268 24.19-16.974 47.571-25.152 71.835-6.25 18.551-12.249 37.522-18.049 55.87-4.05 9.737-3.998 22.09-13.454 28.63m274.742-185.717c-3.229 13.61-4.606 19.77-14.613 25.738-34.505 20.92-69.39 42.505-103.127 63.38-32.249 19.754-64.878 41.252-98.839 58.542-5.524 3.85-5.737-1.599-3.345-6.086 11.15-27.04 25.134-53.373 33.857-81.479 1.837-5.055 3.213-14.429 7.65-17.495 1.735-.364 5.21 2.651 8.983 6.753 23.115 34.507 51.618 21.283 85.553 14.624 8.742-2.035 10.538-6.776 10.505-10.394-1.782-12.715-20.97-12.21-28.393-21.358-7.37-4.512-6.202-7.729 2.132-8.669 32.19-10.728 63.701-19.129 90.61-35.722 9.892-9.876 12.856 4.093 9.027 12.166m45.804-4.967c-14.247 4.037-18.883.354-22.087-14.333-2.983-14.445 5.378-28.359 17.624-36.696 8.035 6.943 17.725 7.427 26.851 10.897 8.155 3.59 9.061 10.97 7.89 20.95-2.297 18.942-17.877 12.488-30.278 19.182m149.826-49.855c-11.646 18.624-24.95 40.893-49.949 40.705-27.19-9.91-30.828 26.064-54.459 22.766-8.182-1.818-13.646 8.93-21.036 5.68-4.983-1.588-16.573-2.475-15.888-9.113 2.014-5.518 13.374-1.514 18.364-3.5 10.544-2.545 14.48-7.707 15.042-19.73 1.728-26.338-5.249-39.949-37.3-46.725-1.967-2.778-1.694-7.889-.784-11.747 7.292-30.88 1.792-58.698-16.348-82.679-8.055-10.83 5.205-7.72 11.238-7.969 17.154-1.147 31.901 7.025 46.205 14.82 49.446 24.16 66.21-24.499 105.608 50.227 10.186 16.21 9.97 31.653-.693 47.265M565.816 910.17c1.252-19.052 37 36.573 42.361 40.266 2.127 2.63 5.11 6.005 1.42 8.888-3.033 2.366-5.314-1.809-7.248-3.423-10.834-9.043-21.228-18.609-31.944-27.796-5.839-5.005-4.195-11.717-4.589-17.935m1.36 59.41c.182-3.914-1.787-20.207 5.774-12.478 9.828 11.723 23.178 17.252 35.935 23.966 7.125 2.872 3.888 7.127-1.824 8.53-11.375 5.275-23.13 2.928-35.18-.173-8.94-1.637-2.226-13.449-4.705-19.845m-99.848 17.3c2.996 1.79 6.89.582 10.127.531 5.82 1.281 45.768-3.774 44.021 3.107.425 4.544-9.584 3.927-13.323 5.39-46.782 5.627-52.675 36.658-58.633 79.732-.633 6.786-.066 16.27 12.118 20.246 8.786 2.867 16.278 9.524 20.556 18.266 5.764 11.78 15.296 22 29.996 32.165 25.785 10.998-.199 61.024 23.806 48.838 166.892-96.418 328.44-200.873 493.434-300.068 99.74-60.923 191.992-117.449 293.427-180.77 17.05-6.174 5.115-18.294 9.925-24.647 1.472-1.168 6.173.822 10.322 2.578 19.037 10.516 38.463.081 55.854-8.152 9.635-3.636 13.137-20.862 25.06-17.284 36.041 5.116 59.386-31.405 73.774-57.783 19.74-36.376-19.956-60.257-7.042-64.713 37.494-22.483 17.995-60.083-9.959-81.29-45.927-31.183-63.386-105.882-129.44-103.722-41.48-3.292-3.728-42.948 15.271-51.244 20.832-10.416 46.75-27.855 30.746-54.175-9.447-10.759-29.965-4.047-23.667 9.87 1.228 26.275-21.889 27.205-40.249 33.875-6.056-26.842 14.525-66.996 41.22-72.726 5.164-.915 17.257-3.063 16.374-17.056-1.537-15.882-17.202-22.76-28.398-19.16-12.502 10.91-6.653 25.68-29.104 41.01-4.664-30.869 1.986-60.05 17.238-81.904 3.275-4.722 5.89-6.192 11.652-6.553 12.631-.609 19.994-13.2 17.094-25.338-6.004-31.115-50.07-13.97-41.015 9.253.988 3.79.362 6.507-3.477 7.112-3.036 1.482-2.706-4.289-3.65-6.817.898-14.377-.39-21.858-17.652-21.027-262.078 1.046-508.95.8-775.62.643-9.96-.536-13.505 4.867-13.144 13.294.731 203.981-1.59 404.225.252 608.168.441 35.302-7.056 70.141 5.987 104.98 3.054 7.587-11.624 1.27-14.182-1.476-17.655-12.33-42.737-6.015-60.71 5.127-15.85 10.41-26.538 26.45-29.455 44.062-2.103 10.8-3.765 19.33-15.765 22.006-28.887 25.804-36.675 64.222-24.273 99.222 3.957-13.233 11.297-25.284 24.681-21.78 18.791 3.227 38.754-2.128 55.823 8.21"/><path d="M484.857 1287.92c-5.705 1.044-35.514-15.558-23.821-15.656 3.658-1.958 62.038 20.875 23.82 15.655m23.204-8.69c.563 2.23.203 3.1-.686 3.111-5.182-4.733-13.9-9.813-17.31-17.136-3.12-3.716-8.354-20.146-4.855-18.479 8.193 6.586 15.89 16.83 22.85 32.504m805.842-128.906q-.013 0-.013.002c-.645-5.759 2.542-12.409 3.576-18.23.924-5.023 2.065-6.024 4.44-4.61.658 7.523.865 22.448-8.003 22.838m-333.784-124.108c-1.826-16.12-10.363-38.692 11.75-44.693 1.576.084 2.424.857 2.025 2.671a5693 5693 0 0 1-9.501 51.93c-2.958 10.462-3.585-7.575-4.274-9.908m94.969 84.65c6.913-19.795 12.646-40.313 17.81-59.535 5.476-20.355 7.562-22.048 27.905-22.647 5.756-.17 11.893-.24 17.77.405 9.618.756 20.023 17.323 15.683 26.095-13.053-5.968-15.345 4.13-14.665 14.125-4.237 21.996 9.642 42.016 7.878 63.103-1.962 5.654-1.641 5.593-7.366 1.168-3.801-4.065-4.792-13.682-13.911-9.64-17.821 13.434-2.61 49.584 7.507 69.19 2.797 3.68 7.279 20.245-2.276 15.62-23.895-10.745-12.793 50.884-7.957 61.34 2.566 4.198 1.604 7.731 1.139 12.135-.325 5.158-.762 7.498-3.582 8.266-4.775 2.034-6.248-8.752-8.803-12.263-4.162-11.824-16.605-5.955-15.892 4.888-1.757 12.354.199 24.523 5.507 34.262 21.124 41.661-4.492 89.656-10.548 132.74-6.442 29.275-13.1 59.546-20.088 89.213-5.91 24.86-20.135 46.157-29.262 69.803-16.804 39.592-29.875 81.818-49.463 119.003.587-193.772-4.113-379.167 7.248-575.446-.36-10.817 3.383-10.704 12.198-7.568 19.123 6.508 52.407-3.376 63.168-34.258m101.874-242.647c6.419 12.946 3.295 31.767 2.25 46.005-2.943 11.065 1.5 28.791-4.327 37.284a25315 25315 0 0 0-13.12-35.282c-10.365 18.248.887 26.09-2.43 38.378-72.467 8.235-123.192 78.768-154.021 145.278-1.302-3.218-.332-6.747.978-10.618 12.975-38.967 20.668-78.916 29.277-118.395 3.669-16.888 13.604-25.883 27.395-34.192 34.91-20.29 73.508-46.116 113.998-68.458m84.79 534.87c-14.662-2.185 20.95-17.462 24.426-9.952 5.218 7.341 1.56 20.376 2.63 29.341-6.442-9.234-13.837-18.142-27.055-19.389m-248.571-288.799c27.056-58.808 60.652-118.378 118.322-141.426.096 2.818-3.456 5.376-5.76 7.62-14.802 14.968-22.484 34.51-37.226 49.39-5.027 5.04-5.173 12.691-6.72 19.248-4.724 19.683-10.032 40.531-18.34 60.02-12.15 34.922-69.921 29.461-50.276 5.148m181.032-111.207c.547-1.102 1.112-2.237 1.675-2.868-3.181 15.612-5.73 12.252-16.832 16.978-1.253-2.515-.1-9.519 1.972-11.963 5.387 5.846 10.815 4.094 13.185-2.147m-13.708 99.441c-12.967.76 10.245-31.76 15.12-35.775 10.655-7.764-9.1 37.77-15.12 35.775m-9.438-93.523c-1.354 3.722-.581 8.937-3.17 12.006-2.157.574-4.545-18.992-5.314-20.286l-5.913-.138c-3.224 4.96-1.436 13.893-5.856 17.573-11.015-4.984-24.793 2.614-33.765-5.452 4.028-11.956 14.382-22.094 22.523-35.464 10.28-18.643 30.817-7.44 32.969 7.16 2.034 8.038.33 16.084-1.474 24.601m-3.532 71.772c2.837-6.507-1.141-19.209 5.28-22.506 2.178-1.41 3.75 2.114 5.434 4.363 9.388 10.012-7.91 22.58-12.371 32.544-.176-5.093.752-9.804 1.657-14.4m17.543-47.585c4.624-.496 5.258 3.394 5.378 7.204-1.191 3.136.576 8.733-5.32 8.475-8.945-.817-9.794-15.758-.058-15.679m-24.292 132.037c1.13-14.21 8.514-24.45 20.68-31.576-2.74 13.06-11.651 22.327-20.68 31.576m-10.122-65.036c-3.328-7.292-9.532-37.522-.278-34.73 9.113 1.512.279 24.447.278 34.73m-2.68 141.971c6.137-9.089 16.668-21.933 32.42-32.448 11.71 27.901-43.118 54.911-32.42 32.448m-19.498-94.957c-.947-3.754-2.266-8.775 3.546-8.218.943-.004 1.596.108 1.59 1.028 1.247 14.744 7.189 29.043 6.78 43.697-6.747-11.255-9.37-24.065-11.916-36.507m19.065 162.07h-.001c2.577-11.528 14.34-20.863 25.112-24.87 3.429 3.71-21.68 25.838-25.111 24.87m-22.528-89.114c10.428-12.048 9.836 31.014 4.743 35.643-5.577-6.946-8.553-29.273-4.743-35.643m-12.92 93.934c-6.835-10.52-8.15-24.37-7.655-29.819 4.143 4.358 15.727 24.311 16.64 41.98-2.06-1.87-5.81-6.893-8.985-12.16m145.12-84.519c3.647-11.968 5.274-24.893 11.167-35.79 2.126 13.09 5.399 25.946-5.43 36.854-2.757 3.628-7.982 5.278-5.737-1.064m-54.82 220.322c-5.418 8.336-5.418 8.336-21.235 5.398 7.105-5.914 13.574-7.978 21.236-5.398m-29.165-18.192c-12.91 3.751 9.967-21.916 15.096-23.133.772 11.413-8.8 15.908-15.096 23.133m78.482-43.509c-7.92 3.83-9.21 12.82-17.167 8.851-2.501-1.23-6.926-3.632-3.195-8.892 5.775-8.137 11.252-1.845 20.362.041m-62.985-430.165c-.796-9.845 6.817-28.432 12.864-32.883-.3 5.717-4.161 21.6-12.864 32.883m100.185 326.441.009 18.526h.755c.006 18.69.073 37.341-.04 56.206-.391 7.886-14.363 24.23-23.423 20.225-.813-.778-.808-2.499-.661-3.806 1.899-9.635-6.604-11.418-12.7-8.29-23.023 8.881-38.084 26.261-48.51 43.97-1.165 2.896-1.501 2.961-2.6 2.751-3.2.166-1.3-4.975-1.431-7.635.114-14.02-5.603-16.61-16.99-8.789-18.038 11.436-30.472 29.146-38.012 54.15-2.468 7.152-9.795 20.551-15.95 19.221-1.921-1.219-1.897-2.073.17-6.09 40.94-76.128 95.306-167.582 153.518-233.798 11.099-1.9 3.963 44.748 5.865 53.36m.823-289.21c-.095 56.677.048 124.413 0 178.897-.27 6.745.01 26.628-7.77 28.2-1.781-.03-1.34-2.206-.615-5.013.892-7.646 6.274-34.333-4.885-35.373-5.141-.67-6.841 3.72-8.594 6.671-20.57 30.523-12.437 69.617-33.01 97.62-38.15 49.966-69.111 103.51-100.804 155.672-7.442 12.116-15.31 24.626-21.218 37.92-1.9 4.512-2.721 5.285-4.896 4.59-2.963-.467-2.046-4.752-1.031-8.809 6.95-34.263 14.258-68.706 21.369-102.546 4.576-38.796 22.012-8.039 58.743-65.347 7.464-7.14 1.903-19.468-7.858-14.926-13.007 3.897-26.85 2.986-36.736 15.095-7.887-7.26 3.174-25.728 12.556-26.702 18.356-3.03 41.164-35.337 38.132-54.016-6.75-31.546-29.574 13.734-41.507 13.436-.494-.26-1.648-.867-.815-4.448 3.724-15.828 1.742-32.187 18.71-42.386 14.417-8.69 20.649-25.699 26.147-40.705 7.36-22.394-20.965-12.364-27.288-1.072-1.601 1.667-2.298 4.357-4.253 1.373-2.323-2.93-.812-8.745 2.872-9.895 23.908-8.672 30.64-30.152 41.6-49.084 7.89-18.516-11.682-37.279-3.368-64.686 2.62-7.37 10.568-25.84-3.867-24.046-7.99 3.258-7.772-4.044-10.776-8.797-5.56-9.906 14.924-13.799 17.187-43.614.847-5.963 4.784-14.528-2.326-17.845-5.392-2.633-8.884 1.74-10.377 3.61-3.885 6.55-7.688 5.94-8.196-1.049 2.987-6.944 14.482-7.829 10.099-18.07-5.603-14.235 3.202-28.216 2.196-42.83-.162-2.484 1.28-3.802 4.578-5.817 24.146-14.768 49.805-30.508 74.71-46.319 9.7-5.535 7.717-3.565 9.313 5.561 4.555 61.823.292 124.912 1.978 184.75m-56.574 719.418-3.034-4.25c-2.954 29.99-8.853 61.09-40.682 71.583-26.774 9.625-39.43-20.477-48.483-41.446-1.947 6.285-.91 30.64-7.636 30.17-12.681-3.916-14.607-44.343-15.851-56.696-6.04 15.215-11.355 30.938-17.88 45.995-5.532 12.366-10.148 12.696-18.3 1.868-20.662-28.4-3.284-44.65-11.906-62.455-18.317 19.114-27.28 45.532-20.11 73.56 5.523 10.902-13.317 9.167-18.682 5.68 18.345-70.219 39.439-141.217 52.433-212.787 15.928-34.285 45.987-63.268 72.926-93.299 14.422-15.345 25.484 12.342 63.384-8.989 14.308-4.836 14.594-20.84-1.362-25.497-2.958-2.327-11.307.16-11.31-4.174-.262-2.26 1.044-3.107 4.562-4.78 9.54-6.242 17.285-11.56 28.347-4.263 15.24 8.68 35.14 7.954 49.225-1.729 1.522 115.712.48 231.982 1.107 347.675 3.7 20.35-24.591 8.813-24.693-5.25-.755-7.8-.618-15.633-5.201-23.125-6.261 1.173-8.937 6.678-9.584 11.04-.47 3.865-2.532 5.468-4.253 8.213-1.43 3.04-3.404 2.097-2.68-1.408.943-13.81.359-30.316-10.337-45.636m-275.36-522.907c-3.252 19.062-4.212 38.158-2.265 56.891.474 3.385.4 4.535-.973 5.136-2.304 1.77-4.064-2.77-5.598-5.266-8.831-13.238-17.606-26.8-26.222-40.008-6.158-9.473-12.054-17.747-21.88-23.088-2.29-1.248-3.527-2.467-3.781-3.73 11.69-22.034 33.514-41.896 33.2-73.417 5.25-31.76 23.71-45.955-.882-79.55-8.432-9.609 7.217-11.9 12.618-17.057 5.047-2.783 5.294-3.566 7.077 3.214 10.489 62.625 19.758 116.662 8.706 176.875m-88.023-31.92c.706 15.264-5.362 19.747-16.292 7.913a14366 14366 0 0 1-40.86-26.808c-4.46-3.04-14.281-5.263-13.026-10.829.45-3.412 2.762-4.059 8.329-4.818 23.453-7.272 60.1 5.853 61.849 34.541m13.5-90.86c-5.087-7.692-8.158-12.335-7.561-14.945 1.089-5.076 19.688-12.316 25.544-17.63 4.95-4.149 7.739-6.148 12.164-2.57 18.856 14.932 20.38 30.197 12.095 48.973-15.71 35.43 2.815 38.543-19.356 44.651-2.014 2.525-.146 6.3.025 9.055-.003 14.951-10.603 34.286-25.976 34.907-1.698-.915-2.682-3.84-2.698-8.025 1.302-47.08-51.956-53.097-88.674-46.68-10.836.213-13.383-5.566-2.106-10.023 23.28-14.367 46.266-28.01 69.527-42.554 8.896-6.734 13.464 2.648 20.762 6.062 2.382 1.098 9.62 6.1 11.996 7.46Zm-150.377 78.851c-6.342 21.903-13.396 61.043 4.632 84.938 4.54 4.843 3.31 8.015-3.963 10.98-13.033 7.636-30.623-2.605-45.687-4.038-7.742-1.882-17.658 11.313-22.74.161-7.077-12.863-9.725-24.696-8.378-37.388-4.396-11.606 1.669-18.105 13.074-24.416 20.219-11.41 39.469-23.696 58.986-35.878 5.414-4.11 5.643.537 4.076 5.641M620.81 1208.64c6.959-6.625 26.325-22.59 24.636-2.657-1.445 7.952 3.288 14.014 5.428 21.39 16.106 36.816 10.194 18.741-19.832 26.965-15.968 1.234-18.602-38.09-10.232-45.698m-33.876 121.961c6.26-4.338 25.025 28.101 18.098 31.377-6.28 4.335-25.025-28.11-18.098-31.377m135.428 194.848c9.249 3.742 13.244 8.193 13.307 9.376-2.751 3.857-30.276-7.504-29.453-11.878 4.507-1.498 8.863-.087 16.146 2.502m-11.947-72.973c19.074-.559 14.199 33.192 17.159 45.767-7.1-13.602-24.1-30.802-17.16-45.767m-7.627 36.307c-7.095 2.318-19.027-3.88-25.357-7.534-1.075-11.133 26.36.672 25.357 7.534m-103.262-90.13c-6.528-2.466-5.255-5.717.907-7.703 9.995-4.056 17.43.791 26.114 7.551 3.745 3.834-1.767 6.252-5.295 4.595-10.092.256-16.184-.99-21.726-4.443m40.433-2.565c-4.423 1.611-19.341-24.323-15.925-27.485 4.532-1.406 19.273 24.556 15.925 27.485m26.099 46.31c-6.777 5.224-29.943-4.232-35.797-10.94-.158-.144 1.497-1.889 2.473-1.506 13.67-.459 26.74 1.916 33.324 12.445m2.505-33.732q.004-.002.01-.002Zm.059-.002c4.69-.636 15.09 27.305 11.316 29.672-4.582.86-15.204-27.067-11.316-29.672m184.895 296.27c-1.454-1.503-2.778-2.839-3.75-3.764a60 60 0 0 0-1.2-5.719c1.486 2.821 3.156 6.016 4.95 9.482m-25.115-18.748c-10.995-9.228-15.857-26.475-12.661-24.947 7.11-.349 45.31 52.042 12.66 24.947m-42.152-23.26c-12.324-7.383-19.826-23.656-16.433-22.644s17.267 8.017 27.825 22.862c9.328 13.12-11.392-.218-11.392-.218m39.256 40.824c14.249 7.481-10.281 4.941-10.281 4.941-14.328-1.032-28.36-12.165-24.867-12.8 3.473-.616 19.013-.635 35.148 7.86m-84.227-51.919c-14.27-1.607-27.824-13.316-24.332-13.793 4.883-4.369 66.795 18.318 24.332 13.793m20.948 27.35c-32.213-4.473-.141-11.926 22.177-8.735 18.18 3.792-15.49 8.65-22.177 8.734m-10.807-188.182c3.394-1.303 12.953 63.85-.26 33.502-.165-4.379-2.62-7.617-3.077-11.637-1.537-4.809.085-24.336 3.337-21.865m108.868 65.062c-2.753-14.4 4.544-31.16 6.076-27.889 1.53 3.271 5.635 18.595 1.499 36.724-3.64 16.011-7.575-8.835-7.575-8.835m-10.607-70.512c1.97-10.613 7.29-19.115 8.197-16.538 1.265.994 4.272 30.37-5.095 41.762a3410 3410 0 0 1-3.102-25.224m-17.9-23.273q.044.52.092 1.044c-.75-.777-1.418-1.434-1.996-2.006.627.433 1.263.761 1.905.962m-1.278-69.532c-2.802-.822-8.302-12.14-8.302-12.14-6.818-12.98-4.707-31.137-2.291-28.452 5.212 3.99 13.028 27.557 10.593 40.592m8.709-73.133c2.904-14.37 16.002-27.122 16.18-23.515.18 3.608-1.821 19.346-12.512 34.56-9.427 13.443-3.668-11.045-3.668-11.045m9.813 32.863c1.2 3.408 3.77 19.062-2.137 36.693-5.202 15.573-6.666-9.54-6.666-9.54-1.315-14.603 7.602-30.559 8.803-27.153m-10.026 156.656c-11.264-8.614-15.957-41.148-10.235-40.442 8.3 7.89 8.548 27.877 10.235 40.442m-13.681-67.969c-6.82-12.98-4.707-31.137-2.291-28.452 7.322 6.05 10.388 28.241 10.235 40.442-2.886-1.579-7.944-11.99-7.944-11.99m22.248 126.947c-2.224 1.876-10.202-11.104-10.202-11.104-8.067-12.242-7.761-30.519-5.092-28.086 5.607 3.075 15.475 27.35 15.294 39.19m-3.91-136.804c12.633-52.397 13.314 22.2 2.449 23.043-.83-7.552-1.647-15.238-2.448-23.043m-146.412 322.655c-10.883 6.031-15.687 23.92-30.631 15.653-13.83-7.827-11.597-26.867-19.996-39.243-3.784 32.981-5.497 67.753-18.051 9.76-5.926 8.83-9.44 25.658-19.253 29.64-11.942-6.64-13.936-25.819-8.814-39.133 2.906-7.878 3.845-13.897 4.762-21.278-12.404 10.156-21.453 24.237-27.605 37.303-1.7 3.466-3.346 12.397-6.903 10.427.05-136.662-2.131-259.428 1.123-393.495 12.85-.902 25.558 7.4 33.445 16.26-3.987 3.53-20.12 4.058-20.641 11.144 1.663 13.071 27.607 25.168 40.822 20.687 7.108-2.369 13.667 2.742 14.83 9.14-3.508 1.382-10.315 1.123-14.283 2.941-2.43 1.026-4.53 2.27-5.605 7.1-1.186 8.583 7.974 9.85 12.965 13.24 24.453 16.626 35.094 1.493 45.867 17.13 4.48 4.464 1.398 7.275-4.648 6.761-13.78-3.51-31.501 13.745-13.032 20.708 11.9 6.53 26.33 13.001 43.125 11.477 4.964-.448 8.412-.486 11.012 2.926 4.26 5.007 3.699 9.94-3.367 8.118-10.773-2.788-28.957 9.625-13.114 19.026 12.586 9.585 25.6 19.497 43.948 14.781 2.665-.686 4.667.095 6.916 2.697 30.4 34.987 54.542 72.76 81.044 117.117-6.561-5.78-20.185-17.248-23.67-.978-3.076-5.439-40.997-47.428-48.204-20.446-8.601-7.842-27.098-20.919-44.233-10.838-2.253 1.133-11.768 11.664-3.714 16.232 1.912 1.68 21.035 17.851 41.953 12.735-2.642 5.215-10.583 8.032-10.165 14.45.11 2.506 1.475 6.824 9.39 7.576 11.762 1.121 30.584-2.44 37.114-4.614 1.349-.754 10.107-.597 10.627 4.18-1.155 5.182-12.078 6.015-14.923 11.356-4.334 9.167 25.604 26.52 48.518 17.88 15.504 7.148 49.175 36.235 53.654 69.1-.768 1.872-2.054 1.997-6.08 1.45-19.33-.82-38.756-.023-58.116-.298-28.943-.01-58.871-.023-88.315.124-9.68.027-17.085-1.996-23.537-6.479-10.072-5.775-14.232-13.133-9.57-25.107Zm267.08 14.426c.109 6.84-.49 10.158-2.134 11.834-7.777 4.583-26.396 1.832-36.588 2.223-17.395-.89-20.245-3.22-23.455-19.174-3.674-18.32-8.293-36.714-12.76-54.5-14.098-57.207-13.47-54.015-25.073-130.033 20.075-14.75 10.414-53.088 5.269-57.27-3.623-8.06-9.163-.573-12.294 6.826q-.815-6.173-1.638-12.592c16.8-20.3 9.975-46.643 6.095-53.044-2.387-7.969-8.683-1.89-12.02 4.068a2836 2836 0 0 1-.681-6.039c17.524-19.209 11.1-47.843 6.964-54.008-2.464-7.987-8.635-1.922-12.14 4.281q-.416-4.336-.823-8.71c20.502-15.323 14.399-50.672 9.846-56.127-3.28-9.086-10.01-.283-13.951 7.56-.313-4.149-.616-8.285-.907-12.382 23.067-13.168 28.865-48.726 19.762-55.049-11.86-.05-32.723 33.74-27.394 53.005a354 354 0 0 0-1.22 15.021c-4.441-4.907-8.478-13.422-13.623-11.279-4.792 3.338-7.694 25.2.43 40.778 2.113 5.177 7.053 15.897 12.42 17.864.057 2.76.13 5.578.22 8.435-15.341-21.837-18.918 15.887-9.524 34.257 1.586 3.883 4.73 10.812 8.45 14.9-9.891-.677-10.353 24.977-2.714 41.08 1.324 2.995 6.878 16.674 13.1 18.081.386 2.925.786 5.893 1.197 8.885-18.747-23.025-19.372 14.556-7.642 33.496 2.208 3.985 9.05 16.653 15.382 16.722 5.927 34.833 13.259 71.767 21.885 109.698 1.517 4.507.847 5.847-.714 6.543-2.154.951-3.018.344-5.142-3.61-30.573-50.983-61.197-106.94-101.872-151.269 7.545-38.524-18.15-90.249-17.795-29.336-18.104-.532 1.566-35.787-20.778-61.449-7.154-10.57-22.334-9.973-19.826 3.944 2.023 9.594-7.32 12.835-8.401 1.818-.6-19.115-5.235-37.488-19.486-51.896-9.923-10.852-17.893-.39-15.61 10.976.973 4.04-.625 5.436-3.531 3.737-1.72-1.5-1.754-6.09-1.976-9.052-1.092-14.529-6.518-27.612-16.126-38.886-4.07-4.88-6.391-12.284-14.762-12.11-9.09.745-5.67 8.383-7.064 12.773-2.41-1.317-2.385-5.45-2.88-8.495-1.434-10.08-21.32-55.963-32.277-29.614-3.135-13.538-12.4-24.773-11.2-38.986 1.45-16.174 1.32-31.6-.384-45.852-.707-5.876 1.576-9.44 7.397-11.554 4.117-2.053 5.708 3.678 8.539 6.118 15.13 14.212 32.08 27.726 58.108 23.417 14.726-2.412 28.974-2.995 41.973-12.332 4.92-3.636 12.069.798 17.785 2.712 28.256 10.611 71.22-14.912 71.56-46.318-2.847 3.285-7.471 7.87-9.671 11.603-11.386 20.113-27.526-.29-26.556-16.27-5.536-27.718 8.882-44.642 11.6-69.2.353-5.576 1.794-6.885 6.976-4.705 6.587 4.845 16.916-4.266 22.62 1.362 14.212 15.815 32.979 23.484 50.383 34.114 6.42 5.536 24.837 10.426 19.473 20.027-4.443 1.712-12.661-3.53-16.807 1.081-1.742 2.04-1.224 4.966-.585 5.63.873 1.34 2.372 1.853 3.454 1.766 19.257-1.372 29.686 10.695 40.73 23.47 16.082 18.143 33.596 35.59 41.704 58.465 4.099 11.292 9.51 22.157 14.744 32.664 20.097 34.508 26 75.162 25.887 114.307 8.376 115.767 5.22 230.17 6.072 345.6m-369.217-544.415c5.504-4.078 9.833 2.072 9.838 8.165-.192 3.504 2.885 7.82 2.024 10.881-5.108-2.195-14.084-11.186-11.862-19.046m732.145-16.552c-11.134 8.792-22.466 16.751-37.35 12.92 11.57-7.145 23.358-13.515 37.35-12.92m54.458-63.388c3.459 9.472-30.85 16.172-37.827 17.068-.436-1.29-.853-2.56-1.29-3.83 8.039-1.788 34.343-19.339 39.117-13.238m2.683-82.896c3.479 3.34-6.391 20.986-6.925 26.64-.798 6.823-6.768 6.924-5.763.125-.595-9.745.698-17.62 8.54-25.91 1.768-1.957 3.206-1.43 4.148-.855m171.056-166.25c.474.233 1.697 2.074 2.404 3.036-10.778 5.56-17.18 16.276-21.798 28.46-1.64 3.708-1.987 6.056-4.982 5.267-2.2-5.285 18.472-41.158 24.376-36.763m18.718 35.9c-4.444 8.473-19.472 10.09-28.31 13.374 4.37-6.567 25.445-27.015 28.31-13.375m-29.353 41.514c9.336 11.42-23.956 10.5-30.107 10.541-6.332-.894-15.35 2.014-20.521-1.412 12.555-4.645 30.049-2.73 43.896-8.9 2.145-.778 5.04-1.247 6.732-.229m-60.46-2.575c.317-3.454 4.326-18.06 16.492-31.02 10.757-11.43 1.985 10.955 1.985 10.955-4.684 13.198-18.794 23.498-18.477 20.065m-24.59 61.86c10.936-3.275 21.93-6.43 32.885-9.626-3.09 9.166-35.262 26.908-37.986 14.508-.415-3.156 2.66-4.148 5.1-4.882m-6.127-24.498c6.319 13.416-28.15 34.948-20.534 13.43 4.265-6.427 9.82-28.709 16.245-29.794 6.569.033 3.52 11.412 4.289 16.364m-21.22 77.17c-6.552 7.494-20.446 10.583-29.987 8.892-6.272-3.932 20.66-13.179 27.09-15.204 3.632-1.02 5.047 3.958 2.898 6.311m192.963-217.83c1.41-3.156 9.923-15.699 25.64-24.034 13.855-7.363-1.666 10.994-1.666 10.994-8.692 10.976-25.383 16.176-23.974 13.04m-27.601-1.01c9.306-9.407.61 18.286-10.34 19.508 2.838-6.805 7.042-12.9 10.34-19.508m-6.027 37.694c.449-7.875 15.068-11.91 22.187-9.345 4.49 9.36-8.704 9.93-14.403 13.068-3.93-.61-8.282.414-7.784-3.723M461.83 1258.15c-5.788.566-34.184-18.59-22.35-17.602 3.397-1.776 60.038 26.018 22.35 17.602m1203.91-420.634c-5.88-9.915-21.948-2.984-31.165 4.565-6.608 4.51-15.442 20.547-20.981 22.935-1.555 1.118-3.493-12.964-7.275-12.872-18.381-.567-22.813 25.72-31.722 37.801-3.89 8.233-8.974 6.977-7.77-1.672.13-2.785.328-6.994-4.248-9.06-8.91-3.118-11.49 5.148-16.22 9.45-33.89 32.443-17.174 56.785-32.945 58.117-4.878-.226-.145-7.607-.947-10.83 1.823-10.713-9.988-13.204-15.238-4.456-13.868 14.613-21.577 32.743-22.914 53.888 1.059 8.14-11.668 17.87-10.553 5.491-1.05-6.669 2.572-15.49-5.842-18.97-4.867-1.228-7.18 2.25-9.72 4.65-19.934 19.6-26.224 42.36-29.514 63.986-.725 6.891-1.353 12.841-7.517 17.02-3.54 3.63-8.79 7.767-8.062-1-.683-7.342 4.05-24.016-5.455-26.74-4.921-1.23-8.702 2.823-10.96 5.245-35.632 34.324-12.452 70.53-37.882 89.132-7.193 5.907-2.691-6.396-3.29-9.825.776-10.203 1.654-21.769-11.133-29.303-1.88-20.273.236-42.408-.31-63.179.602-93.879 1.222-190.955-1.464-286.439.497-10.227-3.98-13.793-13.157-7.265-110.197 67.564-221.465 134.8-330.913 202.763-149.317 92.101-286.66 176.524-453.02 278.558-6.915 4.22-9.667 8.988-9.5 16.393l-.401 65.132c-2.76-.258-7.756-2.53-10.857-5.506-6.668-29.069-49.371-72.087-33.537-28.225-3.034-2.905-7.773-6.088-10.843-9.205l-.01.994c-70.25-38.952-42.218 12.848 7.278 16.608 2.029 2.638 4.47 5.647 7.098 8.757-70.41-25.725-20.393 24.55 18.55 19.383 11.804 10.405 22.56 21.527 22.943 32.614 5.476 158.644-.38 313.925-.32 471.784-2.345 27.856 9.582 25.986 32.644 28.362 246.057.887 507.153.046 758.635.337 12.32-.049 16.159-3.888 16.303-16.156-.015-55.036.91-108.659.993-163.648-.467-134.83 1.3-266.718-1.152-400.149-.558-14.123-.864-21.913 13.319-30.51 29.405-14.749-4.14-33.736-23.081-26.678-7.287 2.952-7.876-2.702-1.576-8.386 5.632-5.588 14.422-10.67 18.098-10.45 23.168 1.305 45.965-4.643 67.75-17.677 22.512-16.424-22.105-33.373-34.072-22.442-6.14 3.92-9.78-1.138-4.435-5.796 7.596-6.357 15.502-22.293 24.993-21.469 17.149 5.532 30.982-1.634 44.36-8.565 7.913-4.354 25.03-9.498 19.927-19.792-3.687-10.178-16.592-11.237-26.126-8.275-9.444-1.027-2.54-8.835 6.383-15.522 5.964-4.34 9.82-5.363 10.854-4.986 15.523 7.67 62.66-6.652 59.043-27.597-2.708-13.462-17.838-5.165-24.55-10.506-1.188-1.573.743-3.378 2.555-5.173 5.572-5.77 10.954-10.368 20.4-8.17 12.917 2.797 50.007-.966 50.797-20.036-1.204-17.123-20.21-7.313-24.761-13.84-.852-4.418 7.629-7.459 11.848-6.936 15.325-.83 60.096-14.04 39.573-31.157-1.852-1.196-6.152-2.427-4.704-4.42.597-1.933 2.362-2.106 6.462-1.199 13.414 3.49 38.53-7.825 42.807-18.886 1.726-5.198-10.607-13.829-8.828-17.24.49-1.81 3.609-3.564 9.27-5.214 9.249-2.69 17.398-7.376 24.22-13.929 6.707-6.45 16.282-12.555 11.867-24.614"/></g></svg>