<svg xmlns="http://www.w3.org/2000/svg" width="2048" height="1920" viewBox="0 0 2048 1920"><defs><clipPath id="clip_1"><path d="M0 0h2048v1920H0Z"/></clipPath></defs><g clip-path="url(#clip_1)"><path fill="#231f20" d="M1349.825 1539.97c40.371 67.752 56.322 139.811 49.56 216.746-11.39-49.284-11.65-101.521-40.012-146.57-1.489 41.697-5.325 82.692-22.113 122.748-4.274-4.94-1.692-8.363-.913-11.664 10.953-46.368 10.206-92.841 1.414-139.398-2.85-15.097-9.494-28.622-18.014-41.29-17.935-26.664-42.599-47.12-66.758-70.901-1.403 14.7-.457 29.637-8.588 39.043-7.743 8.958-5.456 17.597-7.148 26.54-5.599 29.609 4.034 55.67 18.785 80.691 4.398 7.46 9.443 14.733 10.327 24.008-18.43-22.405-38.672-43.522-47.05-73.011-8.602 12.666-13.786 36.766-14.449 62.807-.91 35.73 4.935 70.969 7.603 106.438.668 8.874 1.404 17.755 1.596 26.644.062 2.912 2.154 8.035-3.042 8.243-3.839.153-3.293-4.508-3.783-7.439-3.128-18.695-6.225-37.396-9.366-56.089-.29-1.727-.818-3.417-2.023-8.342-4.218 16.782-3.964 32.187-16.735 42.321-.862-.93-1.827-1.75-1.73-1.898 10.381-15.964 9.948-33.416 8.601-51.464-1.38-18.504-1.325-37.258 2.433-55.54 2.645-12.865-3.775-24.671-1.76-37.709 4.494-29.082 15.245-55.964 26.462-82.754 9.371-22.383 9.58-44.422-.32-66.424-6.313-14.029-13.3-27.764-21.298-44.354l-1.667 12.744c-15.614-11.726-28.915-24.848-42.422-37.692-5.107-4.856-7.814-5.788-12.075 1.097-7.204 11.642-16.823 21.582-28.358 29.122-7.482 4.89-9.84 11.357-10.56 19.402-1.799 20.079 2.695 39.229 8.435 58.223 6.937 22.956 16.315 45.203 20.543 68.949 1.971 11.071 2.704 22.139 1.053 33.378-1.085-.229-2.39-.314-2.415-.536-3.32-29.923-17.307-55.949-31.047-82.004-11.233-21.302-21.212-43.005-25.096-68.601-20.924 15.653-36.752 33.446-49.149 54.331-3.796 6.394-3.87 6.351-10.15.627.864 24.993 13.657 42.988 25.832 63.579 13.037 22.049 25.29 45.637 36.421 68.833 2.784 5.8 6.114 11.438 5.666 18.68-19.995-36.524-50.879-65.28-72.34-104.595-3.323 21.557-1.028 39.482 1.081 57.318 4.644 39.273 15.936 77.275 23.394 116.015 6.475 33.633 9.486 67.427 3.814 101.52-.98 5.892-.968 5.894-6.253 12.258 2.377-42.884-.484-85.051-16.35-126.85-7.362 8.278-7.92 18.227-11.769 26.679-1.599 3.513-2.296 7.43-3.95 10.911-1.15 2.42-.86 7.383-5.414 5.854-3.46-1.161-1.133-4.77-.67-7.161 1.472-7.594 2.475-15.405 5.085-22.631 8.36-23.139 4.175-45.733-1.723-68.427-7.193-27.678-18.153-54.462-20.522-83.285-.594-7.22-.893-14.463-2.927-22.168-8.268 19.323-16.362 38.722-24.848 57.952-11.594 26.272-23.984 52.153-41.294 75.395-2.32 3.117-4.68 6.256-7.415 9.007-2.537 2.554-5.276 7.954-9.093 4.967-4.24-3.319.976-6.755 3.058-9.624 23.883-32.906 37.908-70.437 49.721-108.468 19.254-61.987 51.251-116.076 97.027-162.309 10.937-11.047 23.276-20.75 35.028-31.007 8.004-6.986 15.234-14.673 19.983-24.143 6.968-13.895 9.385-27.358-2.119-40.982-7.196-8.522-12.254-18.798-18.229-28.221-3.25-.427-4.004 2.174-5.13 3.985-38.374 61.748-92.05 107.158-156.38 140.717-21.916 11.433-37.492 26.902-46.179 50.074-12.643 33.731-22.802 68.282-35.836 101.911-4.682 12.081-2.408 26.773-3.348 40.271-.703 10.094-1.092 20.254-4.133 29.916l-2.977-.233v-40.324l-2.628-.566c-3.045 6.397-6.272 12.718-9.105 19.205-19.569 44.795-37.642 90.134-50.906 137.202-6.525 23.152-21.889 39.797-40.886 53.738-2.9 2.129-6.246 4.467-9.194.625-2.366-3.085-.092-5.998 2.295-8.1 31.115-27.393 41.718-63.91 49.765-102.578 9.467-45.492 27.138-88.801 41.336-133.032 9.334-29.076 18.073-58.316 23.881-89.348-5.18 1.529-6.984 5.515-9.493 8.462-20.984 24.643-42.966 48.296-69.029 67.899-2.463 1.852-5.282 6.78-8.703 3.143-3.683-3.916 2.05-5.946 4.081-7.876 29.878-28.398 52.598-62.479 77.778-94.597 12.261-15.638 27.486-29.001 39.211-44.691 18.117-24.242 44.728-37.658 66.694-56.834 29.83-26.04 58.43-52.873 78.752-87.12 2.357-3.972 4.468-8.086 7.465-13.541-6.754.725-10.053 4.659-13.745 7.507-26.469 20.421-47.724 45.885-69.792 70.542-12.485 13.948-26.066 26.758-39.775 39.528-26.938 25.092-60.464 30.179-95.405 33.036.195-5.843 6.082-7.583 6.788-11.638-55.834 15.504-91.35 51.694-105.435 109.06l-5.129-3.814c9.166-28.756 14.626-58.908 36.85-84.695-23.653 1.889-40.457 12.097-54.457 27.37-18.973 20.697-28.08 46.28-35.618 72.435-12.117 42.052-23.354 84.382-45.865 122.654-21.36 36.314-47.534 68.217-84.673 90.129-2.02 1.192-3.963 2.592-6.12 3.461-4.05 1.631-8.838 6.445-12.357.739-3.17-5.143 2.95-7.158 6.078-9.518 52.408-39.521 88.655-90.252 108.942-152.078 1.395-4.252 3.906-8.442 1.351-15.572-11.028 12.991-23.2 22.993-37.32 30.211-4.637 2.37-10.753 9.611-14.92 3.414-2.909-4.327 5.877-6.861 9.77-9.325 25.64-16.224 40.98-40.154 52.142-67.091 8.155-19.679 15.001-39.887 23.214-59.541 15.753-37.695 44.463-59.774 85.115-67.183 31.255-5.696 62.493-11.514 93.63-17.803 23.065-4.659 42.347-15.773 56.92-34.474 22.242-28.544 45.031-56.658 69.54-83.375.951-1.038 1.562-2.378 3.344-5.153-31.89-1.068-61.302 4.33-90.499 11.537-29.252 7.221-57.106 18.373-85.12 30.65-.89-6.923 4.182-10.923 4.27-17.871-14.909 13.19-28.817 25.751-43.005 37.997-35.732 30.84-73.608 59.24-107.637 92.027-14.338 13.815-28.085 28.123-40.407 43.727-47.112 59.661-108.562 93.751-185.213 100.415-4.758.414-12.99 4.323-13.862-2.805-.673-5.506 8.014-4.313 12.596-4.964 66.797-9.491 117.59-44.88 159.136-95.187 11.762-14.243 22.914-28.975 33.422-44.616-26.532 10.234-51.044 24.39-78.972 30.367 51.582-31.934 109.112-55.301 149.232-106.594-12.336 0-23.056.116-33.772-.02-43.58-.555-87.066-4.085-130.706-3.34-58.915 1.007-114.294 12.79-163.99 46.041-23.679 15.843-48.565 30.122-75.88 39.337-5.37 1.812-14.006 7.524-16.783.74-3.345-8.171 7.696-7.666 12.503-9.948 19.145-9.089 37.514-19.448 55.427-30.628 34.806-21.725 69.31-44.011 110.36-52.935-.63-4.757-4.19-3.571-6.47-4.045-18.113-3.763-36.197-8.118-52.593-16.54-23.134-11.882-47.656-14.921-73.057-14.266-16.088.415-32.163 1.34-48.247 1.95-3.37.128-7.835 1.218-8.122-3.973-.229-4.137 3.813-4.479 6.785-4.946 45.193-7.102 90.3-12.725 135.035 3.113 18.46 6.535 37.663 11.122 55.884 18.204 29.646 11.523 60.51 10.87 93.446 11.814-2.789-2.204-5.339-3.379-5.25-4.308.25-2.6 2.976-1.564 4.606-1.613 17.663-.539 35.327-1.166 52.995-1.317 35.347-.301 70.75.167 105.39-8.415 29.2-7.234 54.607-20.908 75.368-43.391-3.61-4.318-8.22-3.034-12.165-3.359-109.957-9.07-219.92-18.057-329.885-27.05-59.87-4.896-173.564-9.971-233.467-14.451-8.472-.633-12.456-2.761-11.035-11.457.308-1.888.066-3.863.073-5.798.106-26.182-6.742-27.981 23.806-30.061 105.76-7.202 265.33-14.786 371.074-22.219 104.576-7.35 209.152-14.692 313.728-22.04 21.15-1.486 42.29-3.159 63.455-4.361 5.982-.34 9.256-1.821 9.938-8.393 4.6-44.319 8.557-88.572 1.798-133.096-1.324-8.723-5.308-13.723-12.5-17.972-34.608-20.442-72.888-30.472-111.914-37.842-69.77-13.176-139.839-24.782-207.865-45.776-21.125-6.52-40.004 3.136-58.363 12.248-4.826 2.395-9.335 5.408-13.676 9.107 19.147-3.838 38.248-6.597 57.563-8.213 9.628-.806 11.595.66 7.2 9.981-12.01 25.459-31.382 38.892-60.12 38.573-6.675-.074-13.466.425-19.997-.606-15.816-2.498-30.356.949-46.06 8.904 4.936-28.222 14.24-52.455 36.236-72.799-16.604-1.414-30.564 2.076-44.447 4.871-25.006 5.034-50.037 9.727-75.328 13.243-14.474 2.012-27.557 8.305-42.504 18.516 19.412-3.548 35.515-6.936 52.066-6.683-2.675 18.567-17.85 33.398-37.272 35.972-6.958.922-14.15 1.178-21.14.602-13.002-1.071-25.687-1.074-38.42 6.72.704-10.833 3.724-19.093 7.118-27.218 3.263-7.812 7.96-14.883 13.73-22.504-26.897-5.18-50.624-2.049-74.548 15.79 14.641-2.412 26.277-4.167 37.843-6.29 7.905-1.451 8.75 1.159 6.014 7.881-7.523 18.493-23.65 28.16-48.58 27.123-12.372-.515-24.258-.202-37.169 6.929 3.767-26.974 12.92-48.251 37.963-60.13-4.808-5.602-14.152-3.827-18.309-14.08 47.41 12.966 93.304 8.446 141.798 1.869-10.654-11.526-21.97-20.617-31.133-30.344-3.043-3.232-7.352-2.14-11.176-2.312-40.12-1.807-53.268-14.758-60.939-52.875-2.984-14.829-7.925-28.137-18.922-39.124 31.483-10.3 72.97 4.096 89.316 30.598 7.662 12.423 11.981 24.845 8.465 38.979-1.73 6.957-.723 11.779 4.75 16.276 12.057 9.905 22.805 20.99 34.578 31.219 4.257 3.699 8.724 2.917 13.286 1.845 13.36-3.139 26.747-6.208 39.98-9.814 25.696-7 51.124-15.057 78.335-18.319-29.982-17.207-60.122-33.695-88.42-56.457-.659 9.64 1.52 17.888-.704 26.764-16.05-7.306-29.423-17.201-43.158-27.006 6.437 14.078 17.651 24.433 30.172 36.109-19.507 3.677-34.258-1.983-46.698-14.421-17.36-17.357-21.526-47.964-10.264-77.036 7.705 8.549 15.298 16.786 29.53 20.466-3.755-4.61-5.91-7.359-8.174-10.017-5.552-6.517-11.993-12.47-16.565-19.591-13.179-15.086-22.71-26.424-42.45-33.977-28.248-9.289-40.957-40.953-33.673-71.191 5.542-23.01 18.88-41.276 37.715-60.198.22 31.171 25.896 46.254 38.047 72.724 5.54-23.809 21.737-41.939 15.25-65.902 22.245 3.953 49.832 34.578 54.405 59.917 4.26 23.61-5.303 46.233-24.819 57.235 0-9.583.424-18.752-.122-27.866-.524-8.774-1.655-17.57-5.676-29.177-2.292 20.258-5.069 37.11-9.532 53.698-2.158 8.025-4.77 7.281-9.756 2.553-5.633-5.341-10.299-11.464-15.535-19.26-3.71 9.71-6.248 18.165-11.19 25.434-3.602 5.296 1.084 7.824 3.561 10.808 34.126 41.111 76.415 72.033 124.2 95.989 31.164 15.624 60.336 26.991 94.852 35.209-14.887-13.282-24.225-27.642-31.128-45.841-1.49-3.933-5.874-3.556-9.079-4.428-24.97-6.791-35.757-23.868-38.474-48.89-1.816-16.727-.324-34.271-15.62-49.588 25.292.89 45.725 5.151 63.134 18.405 21.87 16.649 28.204 37.449 14.57 65.784-3.836 7.969-3.28 13.395 2.487 19.509 18.237 19.337 39.817 42.585 62.837 56.405 6.392 3.838 9.411 3.537 16.884 5.037 83.963 16.846 170.23 16.447 256.338 33.768-3.069-4.529-5.173-7.885-7.523-11.064-19.706-26.66-41.757-51.331-65.999-74.033-25.986-24.335-60.117-28.509-93.982-10.85 20.457-1.539 38.925-1.233 57.293 1.688-4.38 15.907-21.849 30.219-38.975 31.953-8.662.876-17.252.276-25.756-1.624-8.028-1.794-16.025-3.813-24.135-5.14-7.793-1.275-15.41 1.399-23.34 2.961 5.228-23.481 18.98-40.38 48.593-59.766-19.769-6.993-39.523-10.981-59.085-15.683-3.715-.893-10.516.441-9.807-5.495.53-4.438 6.531-2.918 10.266-2.988 32.8-.618 65.067 2.829 96.496 12.526 1.78.55 3.636.859 6.772-.486-4.065-3.734-8-7.617-12.218-11.177-16.102-13.594-32.467-26.889-48.406-40.663-18.324-15.834-40.549-15.781-62.925-15.968 18.74 6.875 36.755 14.95 53.688 25.361-11.663 15.707-40.884 20.504-55.37 14.388-9.832-4.15-18.986-9.231-27.52-15.488-17.22-12.627-20.036-13.862-39.012-16.869 9.143-17.385 34.915-32.178 69.25-39.004-7.705-5.827-14.514-10.772-21.069-16.024-3.15-2.524-9.784-4.848-7.269-8.982 2.794-4.592 7.607.658 10.99 2.382 40.834 20.798 80.301 43.886 118.686 68.818 56.814 36.903 111.32 76.715 161.177 122.491 12.224 11.223 24.622 22.261 36.365 32.866-9.225-37.095-15.152-76.497-29.353-113.93-13.732-36.198-40.736-60.863-72.366-81.578-35.62-23.329-74.037-42.189-109.453-66.96-2.423 4.483 2.805 7.405.954 11.946-12.608-3.767-24.978-9.428-38.999-9.244 12.362 7.938 26.037 13.862 37.487 23.433-19.46 15.217-40.055 13.823-60.826-4.275-9.688-8.442-18.765-17.464-32.979-18.57 15.861-18.73 39.064-26.772 69.387-22.851-19.325-15.637-32.507-33.97-49.839-46.893-14.56-10.857-35.018-9.539-53.773-9.68 13.665 5.989 27.73 10.951 40.685 18.19 4.628 2.586 12.85 3.931 12.702 8.663-.168 5.371-8.016 7.553-13.147 10.083-25.33 12.489-47.39 4.256-67.658-11.484-11.99-9.312-24.61-16.445-40.297-17.365 16.186-28.324 53.298-41.36 95.627-33.154-8.945-13.524-15.608-27.168-29.786-35.691-16.426-9.875-33.17-19.163-49.733-28.771-23.953-13.896-45.697-4.481-68.053 3.191 19.347 1.166 38.716.748 57.796 4.523-7.203 22.358-31.683 36.534-57.816 33.345-6.209-.758-12.474-1.889-18.42-3.755-14.496-4.547-28.963-6.565-46.07-.149 9.237-25.185 22.317-44.363 44.98-58.852-16.049-4.085-30.787-4.09-45.262-5.699-7.395-.821-15.01.012-22.333-1.12-16.23-2.509-26.777 1.016-34.757 17.66-9.43 19.672-30.169 23.101-50.704 22.515-15.4-.439-30.616-.776-45.984 9.685 3.641-28.702 11.78-52.581 35.483-68.253 18.333-12.122 39.625-13.55 57.67.731 9.08 7.187 18.056 7.188 28.384 4.912-16.504-22.024-28.324-31.446-45.095-39.05 13.731-15.624 48.162-23.613 69.287-16.076 18.897 6.741 31.423 22.471 31.933 40.659-12.962-6.494-25.129-14.396-41.642-16.545 13.578 12.195 24.888 17.152 35.954 29.835 4.874 5.586 17.831 1.889 28.318 2.001-4.574-11.958-11.192-16.137-16.989-26.453 10.532 5.713 18.396 14.375 25.491 23.573 4.388 5.69 9.272 8.276 16.55 9.105 32.426 3.697 62.26 15.438 91.107 29.931 3.726 1.872 7.508 3.635 14.148 6.84-11.814-26.125-19.813-50.577-27.205-75.241-1.965-6.554-8.904-8.396-14.239-11.355-8.438-4.679-17.113-9.034-29.653-11.797 16.332 13.355 31.085 24.073 42.387 38.527-19.543 10.37-42.376 8.034-58.056-6.116-5.183-4.677-10.2-9.787-14.174-15.46-8.612-12.294-18.025-23.429-33.589-28.341 21.775-15.99 61.276-26.304 90.117-8.281-5.212-12.999-12.678-24.539-24.237-33.229-3.408-2.563-7.226-4.683-11.073-6.578-17.41-8.574-17.439-8.519-31.157 4.588-19.104 18.253-37.823 20.452-64.536 6.577-15.517-8.061-30.189-17.951-49.593-15.544 16.934-33.325 55.434-52.503 87.462-44.582 11.344 2.805 21.89 7.819 28.524 17.29 5.745 8.204 12.956 8.366 22.057 11.495 11.918 4.099 21.674 12.11 33.305 19.807-5.529-22.972 4.015-36.297 16.05-52.933 8.204-11.34 13.981-23.255 13.43-37.577 19.98 7.275 41.997 43.091 41.972 67.875-.025 24.803-13.583 45.514-35.84 53.217 4.19-18.387 7.918-36.258 5.412-54.809-5.736 16.722-11.826 33.212-19.905 48.892-1.246 2.417-.806 4.42.548 6.488 11.731 17.932 19.173 37.916 28.726 57.106 2.245-13.87-2.458-26.121-11.427-39.37 32.741 3.301 61.31 10.086 78.615 37.944 11.84 19.061 12.552 39.242.004 60.528-7.912-18.119-15.188-34.935-28.579-48.272 5.26 15.412 9.165 31.06 12.252 46.902 2.383 12.234 1.738 12.683-10.6 8.433-2.827-.974-5.653-1.952-11.128-3.843 19.8 32.792 42.273 59.6 68.241 83.798 3.517-2.599 1.53-5.435 1.111-7.712-6.564-35.711-6.144-71.624-3.358-107.6.34-4.393 0-7.805-3.14-11.632-19.6-23.897-18.65-52.992 2.29-75.866 12.381-13.525 27.936-22.166 47.58-28.335-6.694 17.733-2.73 33.681 1.196 49.826 6.206 25.517-2.905 46.507-24.162 60.69-14.744 9.838-11.328 21.239-8.986 36.246 13.422-16.958 28.845-28.398 46.614-37.358-16.003 17.18-32.262 35.296-39.54 59.045-7.525 24.553-3.213 42.962 4.198 66.556 7.777-28.899 27.71-46.559 55.906-60.869-5.81 20.017 2.808 35.479 8.148 51.713 6.468 19.66 5.066 38.274-10.26 54.023-3.548 3.645-2.777 5.63 1.485 7.668 27.108 12.963 54.17 26.021 83.057 39.92-1.142-10.676-2.438-19.318-2.932-28.004-2.154-37.866-.996-75.228 20.102-108.899 3.075-4.907 1.324-6.536-3.25-8.298-24.666-9.499-34.678-28.72-36.1-53.511-.99-17.239.495-35.017-13.372-49.869 45.157-1.618 76.76 21.064 88.916 64.175 3.252-7.175 6.065-12.465 8.104-18.03 11.637-31.75 14.415-64.808 14.572-98.231.016-3.515-.042-6.822-3.049-9.552-11.485-10.426-23.667-19.796-38.39-25.787 12.02 12.724 22.461 26.484 32.46 40.617 4.904 6.934 2.72 8.804-5.044 9.533-28.19 2.647-47.706-9.375-60.136-33.655-7.909-15.45-14.245-31.943-32.106-40.503 34.067-19.055 71.994-12.021 105.194 18.98.621-21.212-8.968-38.196-20.057-54.97-2.527-3.823-5.584-3.278-9.204-2.227-35.937 10.433-59.098-3.428-77.575-34.182-6.98-11.617-17.082-19.815-30.138-24.993 23.025-18.374 72.37-26.395 97.962-3.104 9.222 8.392 17.036 17.853 18.68 30.061 1.318 9.791 5.77 17.106 11.373 24.69 12.317 16.67 17.237 31.901 23.855 53.483 5.898-10.751 10.66-13.729 6.497-25.078-8.35-22.768-1.548-43.481 16.397-60.097 14.11-13.065 31.418-19.765 52.894-24.311-9.627 16.35-7.15 31.837-5.898 47.528 2.446 30.626-7.123 47.78-31.287 59.061-3.179 1.484-6.774 4.057-9.988 2.443-11.467-5.757-14.077 1.812-17.166 9.927-4.723 12.406-8.407 25.076-8.818 38.313-1.115 35.885-.666 71.878-11.374 110.307 20.47-13.685 39.53-24.333 52.13-41.502 8.415-11.465 4.804-26.748 3.19-40.869-4.555 13.967-8.524 28.061-15.034 41.306-18.917-13.962-22.913-34.752-10.929-57.963 6.195-11.996 14.365-23.202 12.054-40.422 22.444 15.93 33.438 28.488 34.224 58.083 11.876-17.465 20.325-33.165 27.457-49.624 1.563-3.605-.767-5.665-2.603-8.213-20.432-28.361-16.84-42.08 2.44-72.185 8.1-12.645 15.343-25.282 14.07-41.692 7.204 1.028 11.056 6.176 15.165 10.261 19.858 19.74 33.704 41.977 27.827 71.471-4.213 21.144-15.352 37.106-35.825 44.588-3.488 1.275-7.573 1.422-9.212 6.136-9.407 27.039-23.275 50.903-39.68 76.515 10.422-5.956 10.86-6.494 19.067-22.943 12.924 20.767 21.077 41.301 13.008 64.893-5.89 17.22-19.61 27.362-38.839 29.039 7.045-12.543 14.365-24.218 17.02-38.924-8.732 10.284-16.873 19.47-24.538 29.026-6.342 7.906-8.55 4.304-10.693-2.856-2.379-7.952-2.279-15.947-1.014-27.46-29.493 29.016-64.979 47.621-88.167 84.08 9.981-3.913 15.362-9.974 24.265-12.051-4.03 16.5 1.008 30.461 6.445 44.738 11.93 31.324 4.568 54.916-20.94 69.776-6.409-17.045-7.245-35.084-10.053-56.001-13.983 40.63-3.818 74.593 13.954 107.458 1.058 1.957 2.993 3.605 4.844 4.972 30.183 22.294 52.83 50.509 68.5 84.252.632 1.362 1.646 2.553 2.474 3.81 22.724-31.34 28.952-67.151 29.628-102.843-4.117 4.035-6.765 8.276-11.1 20.492-2.838 7.994-5.068 16.197-7.963 25.584-13.949-15.331-15.822-32.339-10.074-49.968 10.316-31.637 37.231-42.559 68.75-50.939-8.05 17.305-8.145 33.34-3.236 51.14 15.026-16.193 29.694-31.091 45.852-44.445 2.45-2.025 2.022-4.83 1.807-7.546-1.275-16.101-1.686-32.21-.387-48.465-9.626 16.312-12.437 34.432-15.025 54.242-16.815-14.905-21.273-32.716-17.4-52.126 6.934-34.75 34.121-49.63 67.832-63.127-9.754 20.332-3.494 37.346.063 54.612 2.776 13.475 2.41 26.825-2.878 39.94-1.626 4.035-3.675 8.544-1.646 14.567 24.284-35.948 40.793-71.859 41.675-116.304.111-5.564-1.63-8.218-7.055-10.065-31.205-10.627-38.657-32.492-37.938-64.328.34-15.025-2.244-29.186-12.628-42.908 13.47-.857 24.414 3.071 37.048 5.47-14.286-38.173 1.726-66.814 28.223-96.441.41 24.272 16.84 36.509 28.093 51.911 16.181 22.147 17.214 44.199 3.837 65.079-3.34 5.214-5.829 6.863-9.498.361-4.384-7.771-9.457-15.17-13.712-23.005-4.023-7.406-7.374-15.167-11.937-22.585-.006 17.09 1.99 34.518 11.63 48.727 16.165 23.827 14.5 47.216 3.272 71.504-2.172 4.698-3.75 9.12-3.385 14.368 1.51 21.687-1.806 43.02-6.35 66.692 23.144-16.12 45.15-30.416 63.251-48.773 9.44-9.574 4.604-25.009 3.325-38.305-5.382 13.567-8.137 28.062-15.276 40.985-18.962-14.1-22.408-34.984-10.04-59.15 2.998-5.859 6.831-11.404 9.033-17.529 2.053-5.711 2.448-12.001 3.571-18.022 23.221 7.724 36.068 32.807 35.68 71.759 13.824-12.581 26.68-24.307 39.575-35.991 2.19-1.984 3.066-4.37 3.033-7.232-.186-16.553 2.19-32.87 4.814-49.277-10.5 13.949-15.109 30.174-19.28 46.704-12.94-9.775-17.05-29.216-10.75-49.404 7.763-24.875 38.484-46.895 68.67-48.305-12.357 19.788-3.339 40.254-4.105 62.952 11.522-12.977 18.466-23.819 28.456-36.472 7.925-8.994 12.352-16.882 6.821-30.515-8.01-19.742.372-36.709 14.613-52.311 18.386-20.143 43.058-26.403 71.771-28.483-11.604 15.432-12.739 31.264-13.197 47.754-1.01 36.325-14.212 53.684-50.538 58.754-6.759.943-9.874 3.938-13.344 9.236-7.424 11.333-12.937 20.653-22.148 32.307 20.022-5.414 39.608.948 57.985-12.99-2.233 25.267-8.067 46.103-28.445 59.985-15.275 10.406-33.882 10.49-48.95.863 12.445-6.143 25.527-10.583 35.305-20.82-13.829 3.797-27.733 6.863-41.77 9.333-1.403.247-2.916 1.334-3.855 2.455-10.933 13.059-21.765 26.199-34.776 41.916 41.047-11.368 80.92-5.966 119.243-14.633 16.18-3.659 30.202-11.986 44.34-20.799 5.723-3.567 7.792-6.588 4.721-13.912-15.77-37.615-.133-67.271 38.25-82.804 12.718-5.147 25.947-8.641 42.95-8.132-14.598 16.971-11.517 36.397-13.662 54.863-3.294 28.353-14.495 41.491-42.408 48.818-8.23 2.16-14.58 5.622-20.638 11.802-14.715 15.012-34.345 21.131-54.379 25.912-2.987.713-6.328.392-9.23 3.463 9.614 8.054 20.933 13.079 31.704 18.972 4.125 2.257 5.716-.062 6.813-3.341 9.482-28.347 30.553-38.495 59.272-36.851 10.145.58 18.881-4.074 28.676-8.838-1.44 18.768-5.663 35.516-17.535 49.238-13.443 15.54-31.7 24.02-51.804 18.654-16.695-4.456-34.16-8.136-48.794-17.026-36.212-21.995-71.637-19.939-108.642-8.658-20.94 6.384-38.955 18.562-55.096 32.792-43.007 37.913-86.624 75.265-127.843 115.01-56.527 54.506-83.618 123.28-92.369 199.766-.17 1.487-.02 3.009-.02 4.392 1.094.407 1.99 1.071 2.41.851 44.936-23.415 93.718-29.722 143.541-31.492 5.48-.195 11.191.062 16.368-1.377 14.083-3.915 19.945-13.941 18.02-28.341-1.953-14.588-2.127-29.273-2.249-44.185-9.13 16.112-10.608 34.17-12.574 53.489-18.658-15.008-22.726-33.714-18.876-53.958 6.321-33.235 32.246-48.308 64.373-62.739-9.55 22.149-.248 39.978 3.285 58.509 2.316 12.152 2.21 24.311-1.456 36.655 20.785-16.664 37.457-36.5 54.418-56.201 15.637-18.16 22.847-38.35 20.483-62.525-4.026 3.793-8.084 7.364-11.845 11.217-5.537 5.674-9.038 6.584-10.715-2.887-2.695-15.219-5.837-30.354-7.084-46.046-6.849 15.752-7.048 32.507-7.03 51.282-17.524-12.755-24.03-28.816-22.387-47.849 2.8-32.441 25.716-49.273 55.023-65.783-8.627 24.284 5.537 41.422 10.382 65.154 15.953-60.302 60.845-59.004 107.207-56.337-14.489 12.289-16.728 29.587-22.248 45.491-9.6 27.664-30.73 41.577-57.43 37.944 6.402-17.595 15.617-33.542 25.367-49.433-11.85 6.912-19.304 18.508-29.474 26.768-13.439 10.915-12.913 24.13-11.195 37.876 3.34 26.719-3.668 50.28-18.47 72.538-13.782 20.721-27.432 41.473-43.26 60.767-2.61 3.182-6.415 5.748-7.11 11.62 37.474-5.832 71.992-19.187 107.81-32-5.876-4.372-13.2-3.513-17.975-9.191 12.866-6.102 25.588-11.061 37.968-22.04-15.213 3.653-27.563 7.661-40.41 9.62-6.94 1.059-7.3-1.146-5.753-6.648 5.242-18.644 21.398-30.392 44.691-31.158 13.413-.441 26.762-.182 39.55-9.787-.47 20.889-6.87 37.428-20.05 54.381 27.776-9.411 51.486-20.866 74.13-34.611 3.463-2.102 4.141-5.406 4.488-8.942 1.135-11.548 1.31-23.075-.885-37.842-4.323 14.998-7.975 26.951-11.18 39.019-2.493 9.384-5.819 7.856-10.92 1.7-14.058-16.964-13.127-34.811-3.537-53.092 5.931-11.306 12.291-22.358 10.81-36.031 30.871 13.306 43.233 42.472 33.11 80.187 15.582-11.865 29.052-23.339 41.117-36.424 2.102-2.279 1.846-4.875 1.12-7.626-4.352-16.48-6.149-33.381-8.153-52.891-7.286 18.424-7.444 35.215-7.175 54.34-17.395-12.4-23.579-27.8-22.469-45.933 2.032-33.211 25.251-50.402 53.905-66.583-8.396 30.14 16.657 52.637 10.711 83.459 11.66-12.435 13.428-27.987 20.053-39.531 2.183-3.804-.312-6.478-2.113-9.494-18.508-31.016-5.539-62.266 25.847-80.695 16.138-9.477 33.727-14.121 54.672-14.859-11.676 16.403-11.895 33.691-12.762 51.108-1.547 31.062-10.206 48.269-40.895 55.544-8.839 2.096-8.689 8.445-12.897 15.417 12.855-4.204 18.23-7.336 29.951-6.887 11.667.447 22.32-2.422 33.596-8.836-2.263 24.488-7.983 45.775-29.263 59.115-14.946 9.37-30.86 10.183-48.3 1.087 13.09-6.608 26.084-11.131 36.521-20.69-34.384 1.113-48.139 9.603-67.766 42.414 35.871-7.251 62.518 7.773 87.772 32.237-18.435 1.859-31.09 10.843-43.643 20.908-25.69 20.6-49.922 22.426-73.648 7.533-6.192-3.887-5.53-5.717.223-9.199 15.325-9.272 31.526-16.706 48.05-24.001-19.734.146-40.39.336-56.118 12.69-23.06 18.115-45.59 36.673-71.632 50.589-1.303.696-2.825 1.441-2.078 4.477 48.25 1.381 96.751-1 145.341-1.714-22.647 7.447-46.334 9.061-70.228 14.265 22.318 12.289 28.86 41.066 57.988 48.479-25.879 15.556-50.37 24.871-78.297 15.409-20.665-7.002-33.056-23.191-35.215-44.743 15.5 7.733 29.732 17.175 47.387 18.994-15.056-10.071-28.279-22.12-41.566-34.098-.567-.51-1.36-1.181-2.008-1.141-25.223 1.557-51.517-6.157-79.106 9.275 25.307 6.337 34.363 31.306 61.167 35.317-19.279 15.813-37.787 25.279-60.598 21.938-18.97-2.778-32.253-13.242-38.324-33.609 14.905 4.27 28.06 11.365 44.662 11.623-11.945-7.171-22.6-13.617-33.31-19.97-3.146-1.866-6.072-.338-8.894 1.072-62.262 31.095-129.362 44.159-197.916 52.474-32.859 3.985-64.889 11.771-93.452 29.569-7.666 4.778-14.78 10.193-21.072 16.665-11.916 12.257-19.22 24.372-12.47 43.297 7.52 21.085 8.728 43.944 8.762 66.488.008 4.701.381 9.061 3.088 13.276 22.605 35.207 38.288 73.583 52.186 112.691 2.73 7.678 6.442 10.672 14.86 11.254 130.046 8.986 260.068 18.316 390.091 27.626 96.732 6.926 246.281 13.938 343.01 20.914 1.174.085 2.361.372 3.52.278 12.44-1.016 15.261 4.909 14.873 16.454-.886 26.353 6.33 29.283-25.027 31.559-113.943 8.27-280.683 16.895-394.616 25.298-67.349 4.967-134.714 9.742-202.065 14.683-6.149.451-12.514-.029-19.747 3.395 30.322 11.895 60.562 19.626 91.104 26.246 89.735 19.448 180.478 28.913 272.42 26.127 17.697-.537 34.283-4.367 50.88-10.502 44.377-16.402 90.25-15.057 134.808-2.723 12.455 3.447 25.18 9.931 37.775 13.494-13.185 3.369-25.97.062-38.778-1.551-12.454-1.568-24.86-3.575-37.229-5.719-29.029-5.031-56.03 2.702-82.86 12.168-10.687 3.77-21.619 6.863-32.738 10.359-.962 3.66 2.897 3.609 4.98 4.615 60.6 29.276 119.615 61.694 181.276 88.868 3.568 1.573 8.16 2.969 6.774 7.949-1.652 5.937-6.935 3.82-10.925 3.244-11.827-1.708-22.396-6.945-32.939-12.12-21.422-10.515-42.773-21.173-64.235-31.609-3.302-1.606-6.429-4.298-12.116-3.307 23.84 34.749 42.665 71.924 73.318 100.927 1.7 1.608 3.47 3.146 5.103 4.816 1.568 1.603 3.911 3.276 1.261 5.665-1.744 1.572-3.764.802-5.299-.523-4.423-3.819-16.927-10.238-21.056-14.354-16.693-16.637-35.53-40.117-46.752-60.369-29.053-52.433-64.788-66.891-120.09-79.111-21.41-4.731-43.105-7.109-67.918-6.751 7.118 7.5 16.067 12.09 20.972 18.231 7.514 9.407 14.636 18.82 20.88 29.05 23.34 38.233 54.65 59.914 97.135 73.985.96.318 1.67 4.983 2.246 6.475-12.754-.395-24.4-4.902-35.712-10.156-11.515-5.349-22.73-11.323-36.332-18.155 12.594 23.835 28.081 42.474 45.23 59.903 17.01 17.29 36.12 32.111 55.907 46.151 2.867 2.033 8.802 3.746 5.576 8.354-3.154 4.505-8.98.81-11.95-.884-43.582-24.86-76.639-58.88-104.852-98.95-17.008-24.156-31.4-51.68-48.309-75.901-19.452-27.865-46.694-38.617-79.975-38.052-82.313 1.4-162.758-10.726-241.548-33.701-19.003-5.541-37.462-12.894-58.563-20.247 15.65 20.661 33.581 34.816 54.327 45.355 44.435 22.574 92.163 32.394 141.824 33.979 23.124.738 46.37-1.662 69.364 2.311 14.516 2.509 28.566 6.44 40.863 15.757-49.48-18.313-98.883 2.204-148.369-.931 11.452 6.266 24.237 7.74 36.48 10.853 39.63 10.076 79.011 20.739 113.213 44.194 17.442 11.961 32.61 24.655 50.338 36.354 28.042 18.506 55.183 38.453 83.064 57.192 2.571 1.728 6.973 5.781 4.508 10.103-2.162 3.79-6.515.613-9.45-.609-16.439-6.839-30.134-18.043-44.704-27.847-7.353-4.948-14.704-9.862-26.29-14.6 19.373 34.045 35.826 65.813 55.873 95.585 20.387 30.279 44.04 57.187 80.645 72.171-6.429 4.672-10.69 1.282-14.496-.124-25.778-9.524-45.365-27.266-63.078-47.271-26.15-29.533-46.649-63.152-70.09-94.646-24.026-32.277-50.775-61.177-90.917-74.218-2.513-.816-5.066-1.514-9.579-2.854 9.393 22.781 23.656 40.447 37.27 58.354-3.677 3.415-5.498.565-7.37-1.096-12.016-10.659-26.266-21.495-34.776-35.132-11.718-18.78-24.64-32.196-47.077-35.188-24.119-3.215-48.152-6.79-72.042-11.36-23.458-4.487-46.225-11.302-69.137-19.157 31.123 36.051 66.846 67.918 94.464 106.471-1.92 3.304-5.774-.399-7.548 3.645 25.218 16.245 48.654 35.941 78.65 44.8 7.51 2.219 14.736 5.364 22.233 7.633 25.53 7.728 40.041 27.384 53.843 47.852 1.07 1.585 2.48 3.593.263 5.065-2.643 1.756-4.357-.569-5.798-2.263-27.347-32.166-66.833-42.035-104.49-55.244-.977-.342-2.184-.043-6.063-.043"/></g></svg>