<svg xmlns="http://www.w3.org/2000/svg" xmlns:xlink="http://www.w3.org/1999/xlink" xmlns:inkscape="http://www.inkscape.org/namespaces/inkscape" version="1.1" width="2048" height="1920" viewBox="0 0 2048 1920">
<defs>
<clipPath id="clip_1">
<path transform="matrix(1,0,0,-1,0,1920)" d="M0 1920H2048V0H0Z"/>
</clipPath>
</defs>
<g inkscape:groupmode="layer" inkscape:label="Layer 1">
<g clip-path="url(#clip_1)">
<path transform="matrix(1,0,0,-1,1814.9513,1358.1516)" d="M0 0C-19.439 19.977-41.258 37.677-61.285 57.119-70.463 66.037-70.178 72.904-63.123 83.156-61.368 85.687-58.41 87.411-54.221 91.067-18.493 57.436 17.317 23.724 54.524-11.304 32.273-17.673 15.388-15.804 0 0M-51.759-6.414C-62.673 2.395-73.522 11.277-84.363 20.176-93.982 28.078-94.432 31.19-87.22 41.469-84.445 45.415-81.331 49.144-76.747 55.077-52.944 33.513-29.655 12.42-6.238-8.8-18.3-18.181-38.842-16.838-51.759-6.414M-113.614-1.452C-114.964 2.259-110.555 8.945-107.21 13-105.263 15.368-98.832 17.228-96.728 15.867-85.41 8.482-74.818 .018-62.902-8.882-77.087-20.149-108.855-14.579-113.614-1.452M-150.83-20.013C-135.093-4.6-126.025-4.745-113.742-20.013ZM-205.391-14.661C-212.85-14.996-216.415-11.059-218.766-2.912-209.809-1.697-201.376-.871-193.08 .644-153.705 7.838-126.797 32.478-105.373 63.678-93.348 81.205-83.159 99.976-72.484 118.374-64.464 132.209-57.197 146.462-49.186 160.297-45.264 167.074-39.623 172.018-28.029 171.292-32.54 162.066-36.022 154.1-40.202 146.516-63.738 103.822-85.576 60.149-115.699 21.265-134.018-2.368-158.39-13.255-187.844-14.525-193.677-14.779-199.548-14.389-205.391-14.661M-229.598 26.046C-243.525 41.995-255.587 59.532-268.256 76.279-244.38 78.329-203.737 57.463-169.378 22.091-182.093 19.605-194.798 15.332-207.522 15.305-215 15.286-224.545 20.276-229.598 26.046M-239.648-15.985C-248.164-17.446-255.854-13.572-257.379-6.106-261.623 14.697-273.327 30.982-290.81 42.131-302.394 49.525-316.202 53.517-329.045 58.96-331.572 60.022-334.236 60.774-336.863 61.6-344.709 64.05-350.065 68.413-348.678 77.404-347.245 86.676-340.217 86.44-332.895 86.05-296.202 81.432-266.465 65.229-247.558 32.95-241.21 22.109-237.058 9.898-232.933-2.032-230.994-7.666-230.572-14.425-239.648-15.985M-269.91-14.225C-276.148-14.516-282.183-15.922-287.604-14.688-292.096-13.663-297.369-10.424-299.693-6.614-310.332 10.841-324.893 22.581-344.948 27.915-351.103 29.548-356.367 32.832-354.695 40.843-352.986 49.035-348.549 52.528-339.592 51.303-319.647 48.591-303.24 39.165-289.404 24.921-279.602 14.833-269.496 5.008-269.404-10.388-269.395-11.277-269.625-12.166-269.91-14.225M-325.527-14.987C-341.907-14.479-353.868-4.718-365.462 4.926-370.579 9.181-364.893 18.09-357.019 18.897-345.931 20.022-319.445 5.135-314.19-5.171-310.534-12.365-313.391-14.815-325.527-14.987M-404.166-20.258C-390.202-3.402-369.339-3.42-354.309-20.258ZM-435.374-13.164C-449.302-16.285-451.001-15.831-455.539-2.45-462.025 16.666-472.958 31.943-491.037 41.868-492.314 42.576-493.306 43.782-494.4 44.735-486.692 55.322-463.881 57.844-452.122 50.949-442.623 45.388-432.352 38.666-421.888 37.622-397.635 35.209-381.42 48.863-376.459 72.405-374.934 79.636-371.186 83.609-363.487 83.428-351.902 44.39-376.091 3.075-417.634-9.081-423.45-10.778-429.449-11.83-435.374-13.164M-467.822-21.701C-472.599-21.02-475.851-20.549-479.6-20.013-482.466-.735-492.709 13.019-511.928 18.652-519.434 20.848-527.564 21.029-535.428 21.946-540.398 22.535-545.874 22.562-546.067 29.285-546.25 35.89-541.161 36.497-535.979 37.259-499.884 42.567-473.132 15.413-467.877-13.409-467.464-15.686-467.822-18.099-467.822-21.701M-512.58-13.581C-517.293-4.509-527.123-2.214-536.981-1.896-543.604-1.678-550.237-1.851-557.422-1.851-551.505 8.473-536.972 12.202-519.884 8.936-506.251 6.332-491.956-3.311-492.222-21.002-500.647-21.955-507.675-23.025-512.58-13.581M-556.54-20.022C-546.204-10.46-528.657-10.932-522.291-20.022ZM-594.344-13.999C-597.329-14.298-601.105-10.887-603.677-8.355-604.265-7.775-601.932-3.003-599.929-1.424-592.754 4.237-584.422 8.619-577.835 14.824-565.01 26.917-571.349 49.053-588.593 52.755-596.567 54.46-605.055 53.735-613.167 55.032-616.502 55.567-619.451 58.516-622.565 60.357-620.103 63.396-618.257 67.978-615.069 69.239-590.604 78.874-558.285 55.15-558.405 28.051-558.478 10.297-577.283-12.266-594.344-13.999M-627.609 13.645C-631.017 14.887-634.187 16.756-638.569 18.879-630.328 32.914-618.56 41.696-603.76 46.441-595.896 48.954-586.011 42.521-582.989 33.767-580.168 25.593-584.789 15.722-593.03 11.848-604.918 6.26-616.309 9.499-627.609 13.645M-614.334-21.093H-667.186C-662.675-1.388-652.689 7.339-638.606 5.788-625.781 4.382-611.229-8.882-614.334-21.093M-704.182-10.315C-708.068-7.956-711.614-5.062-716.464-1.597-712.698 5.307-709.253 12.302-705.091 18.852-703.86 20.775-700.58 22.499-698.265 22.472-691.559 22.381-684.687 22.091-678.21 20.53-665.881 17.573-662.482 7.521-669.584-3.003-677.264-14.389-692.165-17.618-704.182-10.315M-743.869-20.639C-733.579-13.318-722.326-13.209-713.35-20.639ZM-750.492 1.08C-744.833 14.397-734.783 20.04-721.673 17.264-725.55 4.609-735.793-1.134-750.492 1.08M-769.528 12.991C-769.27 24.876-767.231 34.275-759.725 41.46-757.658 43.447-753.965 43.782-751.016 44.88-750.345 41.85-748.517 38.53-749.197 35.835-751.806 25.593-758.88 18.779-769.528 12.991M-784.649 77.25C-784.318 87.356-770.786 100.348-760.745 100.202-749.813 100.048-743.271 90.912-743.318 75.834-743.345 64.395-756.455 51.548-768.269 51.376-772.761 51.312-784.87 70.446-784.649 77.25M-804.291-20.875C-802.839-12.32-798.117-8.764-790.951-8.963-783.795-8.764-779.063-12.32-777.621-20.875ZM-813.634 51.376C-825.457 51.548-838.567 64.395-838.594 75.834-838.631 90.912-832.09 100.048-821.158 100.202-811.116 100.348-797.584 87.356-797.254 77.25-797.033 70.446-809.151 51.312-813.634 51.376M-832.706 35.835C-833.395 38.53-831.566 41.85-830.896 44.88-827.947 43.782-824.254 43.447-822.177 41.46-814.681 34.275-812.641 24.876-812.375 12.991-823.032 18.779-830.096 25.593-832.706 35.835M-860.229 17.264C-847.12 20.04-837.078 14.397-831.419 1.08-846.118-1.134-856.353 4.609-860.229 17.264M-868.553-20.639C-859.586-13.209-848.323-13.318-838.034-20.639ZM-912.319-3.003C-919.429 7.521-916.021 17.573-903.692 20.53-897.225 22.091-890.353 22.381-883.647 22.472-881.332 22.499-878.043 20.775-876.821 18.852-872.65 12.302-869.205 5.307-865.438-1.597-870.289-5.062-873.844-7.956-877.721-10.315-889.747-17.618-904.639-14.389-912.319-3.003M-967.569-21.093C-970.674-8.882-956.131 4.382-943.297 5.788-929.214 7.339-919.227-1.388-914.726-21.093ZM-988.882 11.848C-997.123 15.722-1001.734 25.593-998.914 33.767-995.901 42.521-986.007 48.954-978.143 46.441-963.343 41.696-951.583 32.914-943.334 18.879-947.716 16.756-950.885 14.887-954.294 13.645-965.603 9.499-976.985 6.26-988.882 11.848M-978.225-8.355C-980.798-10.887-984.583-14.298-987.568-13.999-1004.628-12.266-1023.434 10.297-1023.507 28.051-1023.618 55.15-991.298 78.874-966.834 69.239-963.646 67.978-961.808 63.396-959.337 60.357-962.461 58.516-965.4 55.567-968.735 55.032-976.847 53.735-985.336 54.46-993.319 52.755-1010.563 49.053-1016.893 26.917-1004.068 14.824-997.481 8.619-989.158 4.237-981.983-1.424-979.971-3.003-977.646-7.775-978.225-8.355M-1044.922-1.896C-1054.789-2.214-1064.609-4.509-1069.322-13.581-1074.228-23.025-1081.256-21.955-1089.689-21.002-1089.956-3.311-1075.661 6.332-1062.028 8.936-1044.931 12.202-1030.397 8.473-1024.49-1.851-1031.665-1.851-1038.298-1.678-1044.922-1.896M-1059.612-20.022C-1053.254-10.932-1035.698-10.46-1025.363-20.022ZM-1114.09-21.701C-1114.09-18.099-1114.448-15.686-1114.035-13.409-1108.771 15.413-1082.018 42.567-1045.932 37.259-1040.751 36.497-1035.652 35.89-1035.845 29.285-1036.038 22.562-1041.504 22.535-1046.484 21.946-1054.348 21.029-1062.478 20.848-1069.974 18.652-1089.203 13.019-1099.437-.735-1102.312-20.013-1106.051-20.549-1109.313-21.02-1114.09-21.701M-1146.529-13.164C-1152.454-11.83-1158.462-10.778-1164.268-9.081-1205.811 3.075-1230.009 44.39-1218.416 83.428-1210.726 83.609-1206.978 79.636-1205.453 72.405-1200.483 48.863-1184.268 35.209-1160.015 37.622-1149.56 38.666-1139.289 45.388-1129.781 50.949-1118.031 57.844-1095.22 55.322-1087.503 44.735-1088.605 43.782-1089.588 42.576-1090.875 41.868-1108.945 31.943-1119.887 16.666-1126.373-2.45-1130.911-15.831-1132.601-16.285-1146.529-13.164M-1227.593-20.258C-1212.564-3.42-1191.709-3.402-1177.745-20.258ZM-1267.712-5.171C-1262.457 5.135-1235.981 20.022-1224.883 18.897-1217.01 18.09-1211.333 9.181-1216.44 4.926-1228.043-4.718-1239.996-14.479-1256.385-14.987-1268.511-14.815-1271.378-12.365-1267.712-5.171M-1294.299-14.688C-1299.719-15.922-1305.755-14.516-1312.002-14.225-1312.278-12.166-1312.507-11.277-1312.507-10.388-1312.406 5.008-1302.301 14.833-1292.498 24.921-1278.672 39.165-1262.255 48.591-1242.32 51.303-1233.363 52.528-1228.916 49.035-1227.208 40.843-1225.545 32.832-1230.799 29.548-1236.964 27.915-1257.01 22.581-1271.571 10.841-1282.218-6.614-1284.533-10.424-1289.807-13.663-1294.299-14.688M-1342.264-15.985C-1351.34-14.425-1350.918-7.666-1348.97-2.032-1344.845 9.898-1340.693 22.109-1334.344 32.95-1315.447 65.229-1285.7 81.432-1249.017 86.05-1241.695 86.44-1234.667 86.676-1233.234 77.404-1231.847 68.413-1237.203 64.05-1245.039 61.6-1247.667 60.774-1250.331 60.022-1252.857 58.96-1265.7 53.517-1279.517 49.525-1291.102 42.131-1308.584 30.982-1320.289 14.697-1324.533-6.106-1326.058-13.572-1333.738-17.446-1342.264-15.985M-1374.39 15.305C-1387.105 15.332-1399.81 19.605-1412.525 22.091-1378.166 57.463-1337.523 78.329-1313.646 76.279-1326.324 59.532-1338.378 41.995-1352.314 26.046-1357.358 20.276-1366.903 15.286-1374.39 15.305M-1376.521-14.661C-1382.355-14.389-1388.225-14.779-1394.068-14.525-1423.521-13.255-1447.894-2.368-1466.213 21.265-1496.336 60.149-1518.164 103.822-1541.701 146.516-1545.89 154.1-1549.372 162.066-1553.883 171.292-1542.28 172.018-1536.648 167.074-1532.716 160.297-1524.705 146.462-1517.448 132.209-1509.427 118.374-1498.752 99.976-1488.564 81.205-1476.529 63.678-1455.106 32.478-1428.197 7.838-1388.823 .644-1380.527-.871-1372.103-1.697-1363.136-2.912-1365.488-11.059-1369.062-14.996-1376.521-14.661M-1468.16-20.013C-1455.877-4.745-1446.81-4.6-1431.073-20.013ZM-1519.009-8.882C-1507.085 .018-1496.492 8.482-1485.174 15.867-1483.08 17.228-1476.649 15.368-1474.692 13-1471.348 8.945-1466.948 2.259-1468.289-1.452-1473.048-14.579-1504.825-20.149-1519.009-8.882M-1575.674-8.8C-1552.248 12.42-1528.959 33.513-1505.156 55.077-1500.572 49.144-1497.457 45.415-1494.692 41.469-1487.48 31.19-1487.921 28.078-1497.54 20.176-1508.38 11.277-1519.23 2.395-1530.144-6.414-1543.07-16.838-1563.602-18.181-1575.674-8.8M-1581.912 0C-1597.3-15.804-1614.176-17.673-1636.436-11.304-1599.229 23.724-1563.419 57.436-1527.691 91.067-1523.502 87.411-1520.534 85.687-1518.789 83.156-1511.724 72.904-1511.439 66.037-1520.626 57.119-1540.654 37.677-1562.472 19.977-1581.912 0M-1519.45 207.744C-1486.056 227.095-1452.809 246.737-1418.836 265.044-1406.351 271.776-1392.323 276.648-1378.405 279.687-1347.978 286.346-1321.483 275.641-1297.423 257.923-1295.815 256.743-1294.575 252.969-1295.31 251.354-1296.09 249.649-1299.379 248.388-1301.676 248.215-1303.908 248.043-1306.315 249.386-1308.566 250.256-1333.94 260.009-1359.912 263.375-1386.765 257.496-1416.254 251.037-1442.042 236.53-1467.48 221.289-1486.093 210.139-1504.623 198.835-1523.318 187.822-1531.641 182.923-1540.295 182.378-1550.732 187.976-1539.469 195.125-1529.685 201.811-1519.45 207.744M-1521.15 367.732C-1522.712 373.121-1522.51 379-1523.189 385.333-1506.451 381.313-1498.514 376.224-1492.083 363.387-1487.939 355.122-1485.744 345.878-1482.868 337.014-1476.254 316.611-1468.996 296.362-1463.457 275.668-1458.496 257.142-1463.714 250.102-1483.943 244.55-1484.981 247.018-1485.964 248.878-1486.552 250.855-1498.155 289.793-1509.832 328.713-1521.15 367.732M-1505.045 405.364C-1485.009 410.898-1464.963 416.468-1444.771 421.422-1423.613 426.611-1402.327 431.292-1381.023 435.856-1370.55 438.106-1366.581 434.032-1368.281 423.581-1370.017 412.903-1376.264 406.072-1386.893 403.658-1414.684 397.362-1442.768 392.137-1470.273 384.825-1489.033 379.835-1500.783 390.259-1516.07 399.884-1511.237 402.334-1508.316 404.457-1505.045 405.364M-1426.535 328.713C-1425.487 329.121-1424.449 329.53-1423.402 329.938-1403.2 322.517-1393.701 315.014-1387.904 302.032-1385.387 296.371-1385.24 291.653-1391.781 288.305-1401.822 283.18-1410.108 283.161-1412.828 289.839-1418.009 302.558-1422.033 315.731-1426.535 328.713M-1465.23 373.022C-1465.156 374.237-1462.529 375.834-1460.765 376.324-1455.161 377.893-1449.437 379.036-1443.742 380.307-1420.49 385.532-1397.238 390.74-1373.444 396.074-1372.02 392.019-1370.531 388.726-1369.732 385.278-1365.911 368.712-1370.155 363.287-1387.518 361.482-1396.567 360.547-1405.928 360.203-1414.481 357.526-1432.818 351.774-1447.756 358.062-1462.033 368.213-1463.576 369.302-1465.322 371.461-1465.23 373.022M-1439.975 332.678C-1433.884 318.507-1429.208 303.755-1423.071 289.612-1418.147 278.253-1427.867 272.112-1439.001 268.074-1449.52 264.255-1451.045 272.402-1452.827 278.843-1457.531 295.763-1461.086 313.009-1466.148 329.82-1469.024 339.373-1473.948 348.327-1478.936 359.84-1460.783 354.242-1446.645 348.2-1439.975 332.678M-1362.272 336.261C-1361.841 328.74-1367.619 327.851-1373.223 326.844-1390.88 323.66-1403.301 333.503-1415.933 342.829-1416.043 344.117-1416.153 345.397-1416.264 346.685-1402.584 349.134-1388.96 352.047-1375.198 353.852-1367.665 354.841-1362.943 347.883-1362.272 336.261M-1339.195 292.433C-1339.673 291.671-1340.141 290.918-1340.619 290.165-1349.126 290.827-1357.734 290.936-1366.113 292.324-1374.344 293.676-1381.161 303.955-1378.469 310.768-1375.217 319.024-1368.134 317.654-1361.253 315.939-1348.354 312.737-1346.802 300.045-1339.195 292.433M-1357.109 451.278C-1356.825 473.968-1355.428 496.639-1354.436 521.815-1344.027 515.482-1340.445 508.624-1340.408 500.377-1340.362 489.463-1341.74 478.54-1341.62 467.626-1341.317 438.487-1341.023 409.329-1339.838 380.216-1338.396 344.861-1324.671 314.941-1297 291.753-1292.305 287.825-1287.547 283.914-1283.385 279.478-1281.897 277.89-1280.868 273.917-1281.833 272.556-1282.99 270.932-1286.49 270.506-1289.007 270.388-1290.652 270.315-1292.379 271.667-1294.042 272.447-1336.623 292.352-1356.365 326.2-1356.586 372.042-1356.714 398.451-1357.431 424.869-1357.109 451.278M-1321.713 536.158C-1280.868 536.457-1240.032 536.439-1199.197 536.702-1167.53 536.911-1137.351 531.54-1114.292 508.406-1103.745 497.819-1096.414 484.047-1088.146 471.382-1086.695 469.151-1087.834 465.268-1087.769 462.156-1091.453 462.8-1095.652 462.573-1098.693 464.315-1101.981 466.211-1104.388 469.786-1106.86 472.879-1127.153 498.227-1153.299 514.766-1185.747 518.385-1213.179 521.452-1241.006 521.361-1268.668 522.096-1288.318 522.622-1307.997 522.069-1327.656 522.277-1334.804 522.359-1339.563 525.925-1341.345 534.325-1334.344 535.006-1328.033 536.113-1321.713 536.158M-1255.705 560.254C-1248.53 589.221-1241.557 618.234-1234.125 647.138-1230.184 662.461-1225.444 677.575-1220.676 694.123-1206.803 680.07-1199.674 665.927-1203.515 648.653-1209.707 620.792-1216.808 593.131-1223.285 565.334-1225.765 554.692-1231.424 548.26-1242.935 546.754-1254.538 545.239-1258.479 549.013-1255.705 560.254M-1061.412 660.247C-1067.944 639.527-1074.007 635.598-1092.988 640.96-1118.499 648.163-1143.46 657.426-1169.165 663.813-1189.109 668.757-1198.379 681.73-1204.736 700.746-1154.641 692.526-1107.512 678.201-1061.412 660.247M-1183.625 553.44C-1184.094 551-1188.953 547.725-1191.765 547.734-1199.729 547.77-1207.695 549.304-1216.146 550.311-1208.163 582.68-1200.639 613.163-1192.821 644.861-1182.826 637.703-1177.304 629.974-1175.127 620.212-1169.946 597.032-1179.326 575.495-1183.625 553.44M-1107.99 602.566C-1118.095 605.878-1127.75 611.094-1138.077 613.154-1160.704 617.653-1170.166 633.24-1176.505 654.559-1164.287 651.384-1153.63 649.007-1143.221 645.832-1124.48 640.116-1105.831 634.101-1087.328 627.687-1085.509 627.052-1084.205 622.825-1084.085 620.212-1083.975 617.699-1085.316 614.859-1086.713 612.582-1093.998 600.707-1094.623 598.184-1107.99 602.566M-1156.092 542.336C-1164.489 542.527-1173.455 548.052-1172.518 553.994-1170.543 566.45-1167.061 578.688-1163.818 590.918-1163.625 591.643-1158.628 592.324-1158.159 591.598-1152.904 583.406-1147.135 575.332-1143.414 566.45-1139.032 555.953-1147.052 542.127-1156.092 542.336M-1116.791 564.871C-1121.118 567.666-1128.715 570.796-1133.685 576.248-1139.096 582.181-1142.183 590.201-1145.996 597.459-1146.878 599.128-1146.611 601.378-1146.868 603.365-1144.608 603.501-1142.054 604.381-1140.134 603.646-1129 599.382-1117.801 595.154-1107.117 589.92-1104.306 588.55-1100.879 582.444-1101.834 580.63-1104.756 575.087-1103.699 565.897-1116.791 564.871M-1108.752 522.468C-1109.689 521.96-1110.626 521.452-1111.563 520.944-1117.783 525.026-1124.462 528.583-1130.093 533.345-1136.138 538.453-1136.23 546.047-1133.152 552.433-1131.885 555.073-1124.921 557.877-1122.734 556.688-1117.691 553.948-1111.968 549.494-1110.231 544.486-1107.907 537.764-1109.074 529.862-1108.752 522.468M-1044.591 661.536C-1032.262 683.082-1018.932 704.066-1005.262 726.574-995.864 715.379-1000.173 706.742-1005.152 698.006-1024.61 663.895-1044.398 629.955-1063.259 595.526-1075.009 574.071-1081.109 550.8-1076.819 526.315-1074.485 512.997-1069.203 500.196-1065.96 486.996-1065.078 483.376-1066.768 479.148-1067.283 475.193-1070.654 477.034-1075.661 478.032-1077.14 480.845-1084.471 494.707-1092.124 508.615-1097.287 523.321-1103.855 542.037-1098.876 560.925-1090.47 577.781-1076.277 606.241-1060.411 633.902-1044.591 661.536M-995.607 693.742C-989.792 703.213-986.558 703.839-976.921 698.142-945.033 679.29-926.917 658.36-929.728 614.115-931.501 607.964-932.98 601.696-934.652 595.499-936.315 589.303-938.171 583.188-940.688 577.355-946.145 564.726-953.871 563.229-965.851 570.215-981.266 579.206-991.078 593.013-998.051 608.781-1010.692 637.385-1012.676 665.954-995.607 693.742M-985.878 731.827C-982.277 729.985-979.576 728.661-976.93 727.237-954.588 715.207-932.08 703.477-909.976 691.039-880.385 674.4-850.151 658.732-824.97 635.417-799.1 611.466-797.29 580.575-798.613 548.732-798.687 546.863-801.011 544.033-802.802 543.579-804.603 543.125-807.809 544.504-808.994 546.101-810.887 548.632-812.421 551.934-812.724 555.037-816.454 593.648-834.525 624.766-866.899 645.668-901.745 668.167-938.465 687.863-974.679 708.249-984.077 713.538-987.826 720.251-985.878 731.827M-895.847 714.073C-873.109 737.543-850.197 760.858-827.258 784.128-819.008 792.502-810.501 800.613-801.103 809.839-799.523 805.938-798.319 804.133-798.089 802.218-796.243 786.877-798.126 772.198-809.077 760.341-828.149 739.693-847.57 719.353-867.12 699.14-870.399 695.747-874.8 693.016-879.191 691.138-886.072 688.199-898.483 692.508-902.112 698.786-906.393 706.171-899.834 709.954-895.847 714.073M-807.543 503.525C-814.69 500.967-822.177 498.798-828.663 495.034-855.287 479.565-868.81 454.989-875.921 426.33-878.337 416.604-883.417 411.814-891.244 412.649-900.762 413.665-902.287 419.925-901.928 427.79-901.469 431.374-901.102 434.967-900.523 438.532-897.372 457.847-888.203 474.349-875.682 489.128-857.675 510.384-834.791 523.693-807.093 528.492-804.575 528.927-800.469 527.893-799.128 526.079-793.735 518.776-798.677 506.7-807.543 503.525M-790.951 408.222C-788.774 408.149-786.459 407.578-785.265 406.616-777.281 400.093-772.568 391.13-775.885 380.932-779.063 371.144-784.318 362.017-788.655 352.6H-793.248C-797.593 362.017-802.848 371.144-806.027 380.932-809.334 391.13-804.621 400.093-796.638 406.616-795.453 407.578-793.138 408.149-790.951 408.222M-782.775 526.079C-781.443 527.893-777.327 528.927-774.819 528.492-747.112 523.693-724.227 510.384-706.221 489.128-693.699 474.349-684.531 457.847-681.389 438.532-680.801 434.967-680.443 431.374-679.974 427.79-679.625 419.925-681.141 413.665-690.668 412.649-698.495 411.814-703.566 416.604-705.982 426.33-713.093 454.989-726.616 479.565-753.248 495.034-759.734 498.798-767.213 500.967-774.36 503.525-783.234 506.7-788.168 518.776-782.775 526.079M-783.813 802.218C-783.583 804.133-782.38 805.938-780.809 809.839-771.411 800.613-762.895 792.502-754.654 784.128-731.705 760.858-708.793 737.543-686.056 714.073-682.069 709.954-675.509 706.171-679.79 698.786-683.428 692.508-695.84 688.199-702.721 691.138-707.112 693.016-711.503 695.747-714.792 699.14-734.342 719.353-753.754 739.693-772.826 760.341-783.786 772.198-785.669 786.877-783.813 802.218M-671.936 691.039C-649.832 703.477-627.315 715.207-604.982 727.237-602.327 728.661-599.626 729.985-596.025 731.827-594.077 720.251-597.825 713.538-607.223 708.249-643.438 687.863-680.167 668.167-715.004 645.668-747.387 624.766-765.449 593.648-769.178 555.037-769.482 551.934-771.016 548.632-772.908 546.101-774.103 544.504-777.309 543.125-779.109 543.579-780.892 544.033-783.216 546.863-783.299 548.732-784.612 580.575-782.803 611.466-756.932 635.417-731.76 658.732-701.517 674.4-671.936 691.039M-586.296 693.742C-569.236 665.954-571.211 637.385-583.861 608.781-590.834 593.013-600.636 579.206-616.052 570.215-628.032 563.229-635.758 564.726-641.215 577.355-646.258 589.022-648.629 601.823-652.184 614.115-652.193 614.651-652.193 615.177-652.193 615.712-652.193 656.637-636.961 678.818-606.461 697.253-605.974 697.552-605.478 697.852-604.982 698.142-595.345 703.839-592.111 703.213-586.296 693.742M-576.64 726.574C-562.979 704.066-549.649 683.082-537.311 661.536-521.492 633.902-505.635 606.241-491.441 577.781-483.026 560.925-478.047 542.037-484.616 523.321-489.779 508.615-497.431 494.707-504.762 480.845-506.251 478.032-511.248 477.034-514.629 475.193-515.134 479.148-516.834 483.376-515.943 486.996-512.709 500.196-507.417 512.997-505.084 526.315-500.794 550.8-506.894 574.071-518.644 595.526-537.504 629.955-557.293 663.895-576.751 698.006-581.739 706.742-586.048 715.379-576.64 726.574M-377.176 700.746C-383.524 681.73-392.802 668.757-412.747 663.813-438.452 657.426-463.403 648.163-488.915 640.96-507.895 635.598-513.958 639.527-520.49 660.247-474.4 678.201-427.271 692.526-377.176 700.746M-361.227 694.123C-356.468 677.575-351.728 662.461-347.787 647.138-340.345 618.234-333.373 589.221-326.207 560.254-323.423 549.013-327.373 545.239-338.967 546.754-350.478 548.26-356.147 554.692-358.627 565.334-365.104 593.131-372.196 620.792-378.388 648.653-382.237 665.927-375.099 680.07-361.227 694.123M-471.681 544.486C-469.944 549.494-464.221 553.948-459.177 556.688-456.982 557.877-450.027 555.073-448.75 552.433-445.682 546.047-445.764 538.453-451.809 533.345-457.441 528.583-464.129 525.026-470.349 520.944-471.286 521.452-472.223 521.96-473.16 522.468-472.829 529.862-474.005 537.764-471.681 544.486M-474.786 589.92C-464.111 595.154-452.912 599.382-441.768 603.646-439.857 604.381-437.294 603.501-435.034 603.365-435.301 601.378-435.034 599.128-435.907 597.459-439.729 590.201-442.816 582.181-448.217 576.248-453.197 570.796-460.785 567.666-465.112 564.871-478.213 565.897-477.147 575.087-480.068 580.63-481.033 582.444-477.597 588.55-474.786 589.92M-425.811 542.336C-434.851 542.127-442.871 555.953-438.489 566.45-434.777 575.332-429.008 583.406-423.744 591.598-423.275 592.324-418.287 591.643-418.094 590.918-414.842 578.688-411.36 566.45-409.394 553.994-408.457 548.052-417.414 542.527-425.811 542.336M-389.091 644.861C-381.264 613.163-373.74 582.68-365.756 550.311-374.217 549.304-382.173 547.77-390.138 547.734-392.949 547.725-397.809 551-398.287 553.44-402.577 575.495-411.957 597.032-406.776 620.212-404.598 629.974-399.086 637.703-389.091 644.861M-443.835 613.154C-454.161 611.094-463.807 605.878-473.922 602.566-487.28 598.184-487.905 600.707-495.19 612.582-496.595 614.859-497.937 617.699-497.826 620.212-497.707 622.825-496.402 627.052-494.583 627.687-476.081 634.101-457.432 640.116-438.691 645.832-428.282 649.007-417.616 651.384-405.397 654.559-411.745 633.24-421.199 617.653-443.835 613.154M-260.199 536.158C-253.87 536.113-247.558 535.006-240.567 534.325-242.34 525.925-247.099 522.359-254.255 522.277-273.915 522.069-293.594 522.622-313.235 522.096-340.906 521.361-368.724 521.452-396.155 518.385-428.604 514.766-454.749 498.227-475.043 472.879-477.514 469.786-479.921 466.211-483.219 464.315-486.251 462.573-490.449 462.8-494.133 462.156-494.078 465.268-495.217 469.151-493.757 471.382-485.498 484.047-478.167 497.819-467.62 508.406-444.561 531.54-414.382 536.911-382.715 536.702-341.88 536.439-301.035 536.457-260.199 536.158M-227.476 521.815C-226.474 496.639-225.087 473.968-224.802 451.278-224.472 424.869-225.188 398.451-225.317 372.042-225.537 326.2-245.28 292.352-287.87 272.447-289.524 271.667-291.26 270.315-292.895 270.388-295.422 270.506-298.913 270.932-300.07 272.556-301.035 273.917-300.015 277.89-298.527 279.478-294.365 283.914-289.597 287.825-284.912 291.753-257.232 314.941-243.516 344.861-242.074 380.216-240.879 409.329-240.585 438.487-240.282 467.626-240.172 478.54-241.541 489.463-241.495 500.377-241.467 508.624-237.884 515.482-227.476 521.815M-203.434 310.768C-200.751 303.955-207.568 293.676-215.79 292.324-224.178 290.936-232.776 290.827-241.283 290.165-241.761 290.918-242.239 291.671-242.717 292.433-235.101 300.045-233.548 312.737-220.65 315.939-213.778 317.654-206.686 319.024-203.434 310.768M-219.639 336.261C-218.959 347.883-214.247 354.841-206.713 353.852-192.942 352.047-179.327 349.134-165.648 346.685-165.758 345.397-165.859 344.117-165.97 342.829-178.611 333.503-191.031 323.66-208.679 326.844-214.292 327.851-220.071 328.74-219.639 336.261M-200.889 435.856C-179.585 431.292-158.299 426.611-137.141 421.422-116.939 416.468-96.903 410.898-76.857 405.364-73.587 404.457-70.665 402.334-65.833 399.884-81.129 390.259-92.879 379.835-111.639 384.825-139.144 392.137-167.219 397.362-195.009 403.658-205.648 406.072-211.895 412.903-213.622 423.581-215.321 434.032-211.353 438.106-200.889 435.856M-60.753 367.732C-72.08 328.713-83.747 289.793-95.359 250.855-95.947 248.878-96.93 247.018-97.959 244.55-118.198 250.102-123.416 257.142-118.455 275.668-112.916 296.362-105.649 316.611-99.034 337.014-96.168 345.878-93.972 355.122-89.829 363.387-83.398 376.224-75.452 381.313-58.713 385.333-59.402 379-59.191 373.121-60.753 367.732M-155.377 328.713C-159.879 315.731-163.903 302.558-169.075 289.839-171.803 283.161-180.09 283.18-190.122 288.305-196.663 291.653-196.525 296.371-193.999 302.032-188.211 315.014-178.703 322.517-158.501 329.938-157.463 329.53-156.415 329.121-155.377 328.713M-102.966 359.84C-107.964 348.327-112.888 339.373-115.764 329.82-120.816 313.009-124.381 295.763-129.075 278.843-130.867 272.402-132.382 264.255-142.911 268.074-154.045 272.112-163.765 278.253-158.832 289.612-152.695 303.755-148.019 318.507-141.937 332.678-135.267 348.2-121.12 354.242-102.966 359.84M-119.87 368.213C-134.156 358.062-149.084 351.774-167.421 357.526-175.974 360.203-185.345 360.547-194.394 361.482-211.748 363.287-216.001 368.712-212.17 385.278-211.38 388.726-209.883 392.019-208.468 396.074-184.674 390.74-161.413 385.532-138.161 380.307-132.474 379.036-126.742 377.893-121.138 376.324-119.383 375.834-116.747 374.237-116.673 373.022-116.581 371.461-118.336 369.302-119.87 368.213M-127.523 118.882C-143.021 116.387-157.849 117.385-172.575 122.203-176.636 123.527-180.834 124.788-184.49 126.884-194.329 132.554-196.369 138.977-191.013 149.038-182.818 164.416-169.69 174.975-153.577 181.018-139.429 186.325-124.528 189.663-116.103 192.095-93.715 191.042-78.713 188.248-65.318 179.902-56.15 174.195-55.047 169.396-60.854 160.306-76.352 136.038-99.144 123.436-127.523 118.882M-136.112 79.472C-155.69 85.333-175.359 90.903-194.917 96.837-198.574 97.953-201.872 100.193-205.831 102.171-200.77 109.755-196.194 117.34-186.585 113.874-155.093 102.516-123.857 108.05-92.511 114.028-91.694 114.183-90.821 114.047-86.77 114.047-95.69 102.507-102.672 91.974-111.225 82.884-117.849 75.844-127.164 76.796-136.112 79.472M-202.249 87.284C-177.508 80.425-152.933 72.995-128.331 65.655-126.393 65.075-124.767 63.514-121.606 61.546-126.402 54.86-130.187 48.591-134.964 43.174-141.808 35.418-151.409 33.875-160.081 38.167-175.037 45.561-189.323 54.315-203.562 63.042-211.729 68.05-219.226 74.12-227.659 80.162-219.171 87.837-210.857 89.679-202.249 87.284M-239.63 220.101C-248.146 203.408-256.387 186.561-265.574 170.24-270.176 162.075-276.837 155.216-288.752 152.93-285.518 176.091-282.725 198.264-279.097 220.291-278.435 224.319-275.174 228.846-271.766 231.35-259.593 240.277-245.482 243.715-228.1 243.77-232.381 234.943-235.872 227.449-239.63 220.101M-147.302 223.04C-136.893 218.141-126.08 214.059-115.451 209.631-115.552 208.815-115.662 208.007-115.773 207.2-126.87 202.963-138.115 199.044-149.038 194.408-166.447 187.032-181.753 176.618-194.688 162.782-204.545 152.24-210.315 152.213-221.826 162.492-204.159 181.507-187.099 200.087-169.773 218.422-163.59 224.954-156.314 227.277-147.302 223.04M-169.635 234.779C-188.597 212.543-205.841 188.557-231.169 172.599-237.25 168.761-244.903 167.373-251.83 164.86-252.96 166.275-254.09 167.69-255.22 169.106-241.568 192.013-228.174 215.065-214.164 237.755-208.101 247.571-198.436 248.678-188.138 244.931-181.835 242.636-175.754 239.715-169.929 237.22-169.755 235.913-169.378 235.088-169.635 234.779M-274.641 142.515C-255.211 151.578-235.937 150.453-217.637 138.659-210.305 133.933-209.414 128.235-213.594 120.842-226.153 98.651-252.859 86.041-278.463 90.559-290.782 92.736-303.12 94.813-315.375 97.327-318.83 98.034-321.999 100.13-326.391 102.071-310.819 119.082-294.521 133.234-274.641 142.515M-353.538 131.746C-337.461 145.881-327.41 163.662-320.483 183.449-315.467 197.765-316.221 212.053-320.382 226.397-323.258 236.304-317.571 245.14-307.19 245.349-304.149 245.412-299.151 241.493-298.242 238.463-294.953 227.567-293.033 216.272-291.177 207.79-295.036 167.781-305.068 134.16-338.582 111.924-349.642 104.584-353.023 104.194-358.269 110.844-363.983 118.066-362.973 123.464-353.538 131.746M-381.42 141.49C-382.844 143.45-384.259 145.427-386.169 148.076-373.703 161.657-362.614 175.366-359.463 193.51-358.793 197.384-357.901 201.376-358.204 205.231-358.976 214.83-353.712 220.618-346.252 225.081-337.874 230.089-332.105 227.494-330.938 217.751-328.513 197.338-332.243 177.933-343.258 160.369-347.75 153.202-353.271 146.552-358.976 140.238-368.292 129.932-373.409 130.422-381.42 141.49M-506.986 156.768C-524.386 173.587-545.12 181.253-571.634 180.636-565.148 188.693-560.499 195.47-554.822 201.249-548.382 207.808-540.417 209.16-531.055 206.919-505.81 200.877-480.72 217.034-476.32 242.391-475.245 248.587-476.494 255.772-478.709 261.769-481.161 268.437-480.913 273.409-474.639 278.898-472.057 276.974-468.309 275.477-466.637 272.747-452.544 249.631-445.581 224.972-454.85 198.482-461.795 178.613-477.79 165.767-495.006 154.79-497.606 153.13-504.524 154.382-506.986 156.768M-611.367 166.139C-613.985 163.254-619.534 162.964-623.741 161.485-624.237 165.858-625.864 170.485-624.945 174.549-623.686 180.056-620.287 185.046-618.137 190.38-610.154 210.239-616.392 230.733-633.544 241.493-650.714 252.271-673.654 249.585-687.958 234.417-693.543 228.483-697.916 221.407-702.537 214.648-704.806 211.328-706.772 206.547-711.191 210.883-713.846 213.487-716.391 218.885-715.435 221.951-707.966 245.938-683.787 262.005-658.155 260.944-623.576 259.519-599.029 234.77-599.102 198.699-599.617 188.411-602.446 175.983-611.367 166.139M-680.387 166.439C-680.342 182.796-672.808 194.572-664.825 205.957-663.649 207.626-657.54 208.207-656.079 206.837-654.049 204.932-652.763 200.151-653.755 197.574-658.651 184.882-667.14 174.803-680.387 166.439M-689.262 188.874C-697.576 196.214-697.209 204.025-688.922 216.934-677.769 234.317-658.431 241.883-642.556 235.07-629.529 229.49-622.905 212.045-627.389 195.143-632.285 176.663-642.207 166.883-655.748 168.099-651.66 176.572-646.286 184.483-644.164 193.174-642.556 199.788-643.291 208.216-646.231 214.322-649.492 221.117-658.256 221.18-664.108 217.452-670.796 213.197-676.318 206.955-681.747 201.04-684.751 197.765-686.534 193.401-689.262 188.874M-757.833 167.854C-756.914 174.803-753.322 181.054-745.081 182.832-735.904 184.819-728.738 181.099-723.116 174.685-718.099 168.979-719.468 162.61-722.803 156.132-728.766 144.547-736.804 134.958-748.949 127.002-757.024 140.311-759.679 153.801-757.833 167.854M-768.921 168.652C-771.687 165.187-773.937 160.043-779.725 163.59-785.164 166.919-784.282 171.682-781.333 176.273-773.91 187.822-766.661 199.352-752.247 204.034-736.335 209.214-719.533 205.531-708.628 193.011-698.89 181.825-695.619 168.38-697.549 154.028-698.091 150.027-701.683 146.434-703.869 142.651-705.293 142.66-706.708 142.678-708.132 142.687-709.85 147.804-712.11 152.821-713.12 158.065-714.03 162.782-713.139 167.808-713.8 172.599-715.077 181.88-719.671 189.237-728.903 192.576-737.916 195.832-746.707 194.336-753.451 187.649-759.22 181.925-763.813 175.03-768.921 168.652M-828.452 187.649C-835.195 194.336-843.987 195.832-852.999 192.576-862.232 189.237-866.835 181.88-868.112 172.599-868.764 167.808-867.882 162.782-868.792 158.065-869.802 152.821-872.062 147.804-873.78 142.687-875.195 142.678-876.619 142.66-878.033 142.651-880.229 146.434-883.821 150.027-884.354 154.028-886.292 168.38-883.022 181.825-873.284 193.011-862.379 205.531-845.567 209.214-829.656 204.034-815.25 199.352-807.993 187.822-800.579 176.273-797.621 171.682-796.748 166.919-802.178 163.59-807.965 160.043-810.216 165.187-812.991 168.652-818.099 175.03-822.683 181.925-828.452 187.649M-859.109 156.132C-862.434 162.61-863.803 168.979-858.796 174.685-853.174 181.099-845.999 184.819-836.821 182.832-828.581 181.054-824.989 174.803-824.079 167.854-822.223 153.801-824.888 140.311-832.963 127.002-845.108 134.958-853.137 144.547-859.109 156.132M-900.165 201.04C-905.594 206.955-911.106 213.197-917.794 217.452-923.655 221.18-932.411 221.117-935.681 214.322-938.612 208.216-939.356 199.788-937.739 193.174-935.626 184.483-930.242 176.572-926.154 168.099-939.696 166.883-949.617 176.663-954.523 195.143-959.006 212.045-952.374 229.49-939.356 235.07-923.481 241.883-904.142 234.317-892.98 216.934-884.703 204.025-884.326 196.214-892.641 188.874-895.369 193.401-897.161 197.765-900.165 201.04M-928.148 197.574C-929.14 200.151-927.854 204.932-925.823 206.837-924.363 208.207-918.254 207.626-917.087 205.957-909.103 194.572-901.561 182.796-901.515 166.439-914.772 174.803-923.26 184.882-928.148 197.574M-982.8 198.699C-982.874 234.77-958.336 259.519-923.756 260.944-898.125 262.005-873.945 245.938-866.476 221.951-865.521 218.885-868.066 213.487-870.712 210.883-875.13 206.547-877.106 211.328-879.375 214.648-883.987 221.407-888.359 228.483-893.945 234.417-908.249 249.585-931.198 252.271-948.368 241.493-965.52 230.733-971.749 210.239-963.765 190.38-961.615 185.046-958.216 180.056-956.967 174.549-956.039 170.485-957.674 165.858-958.161 161.485-962.369 162.964-967.927 163.254-970.536 166.139-979.465 175.983-982.295 188.411-982.8 198.699M-1086.897 154.79C-1104.113 165.767-1120.107 178.613-1127.062 198.482-1136.331 224.972-1129.358 249.631-1115.266 272.747-1113.603 275.477-1109.854 276.974-1107.264 278.898-1100.998 273.409-1100.741 268.437-1103.194 261.769-1105.408 255.772-1106.667 248.587-1105.583 242.391-1101.182 217.034-1076.102 200.877-1050.857 206.919-1041.486 209.16-1033.521 207.808-1027.09 201.249-1021.404 195.47-1016.764 188.693-1010.278 180.636-1036.782 181.253-1057.526 173.587-1074.926 156.768-1077.388 154.382-1084.297 153.13-1086.897 154.79M-1222.936 140.238C-1228.641 146.552-1234.153 153.202-1238.654 160.369-1249.66 177.933-1253.399 197.338-1250.965 217.751-1249.807 227.494-1244.029 230.089-1235.65 225.081-1228.19 220.618-1222.926 214.83-1223.698 205.231-1224.01 201.376-1223.119 197.384-1222.449 193.51-1219.288 175.366-1208.2 161.657-1195.733 148.076-1197.644 145.427-1199.059 143.45-1200.483 141.49-1208.494 130.422-1213.611 129.932-1222.936 140.238M-1256.449 328.867C-1244.267 329.457-1232.058 330.845-1219.913 330.382-1210.634 330.037-1201.199 327.878-1195.338 320.566-1213.629 312.256-1231.323 303.447-1249.678 296.289-1256.541 293.613-1266.573 291.807-1272.315 294.846-1283.082 300.535-1291.984 309.816-1301.171 318.135-1303.091 319.877-1302.852 323.932-1303.523 326.563-1287.005 327.37-1271.727 328.123-1256.449 328.867M-1319.425 380.152C-1307.335 377.93-1295.144 375.834-1283.348 372.477-1267.299 367.914-1251.442 362.543-1235.806 356.737-1232.453 355.494-1230.377 350.904-1227.713 347.855-1231.443 345.723-1235.108 341.886-1238.921 341.732-1255.742 341.051-1272.609 341.441-1289.467 341.441-1320.665 339.59-1322.448 341.015-1328.244 370.536-1328.309 370.835-1328.419 371.125-1328.474 371.425-1329.76 379.136-1327.473 381.631-1319.425 380.152M-1328.924 441.036C-1322.282 435.847-1315.466 430.848-1309.026 425.423-1291.515 410.698-1272.425 399.131-1249.577 394.232-1245.553 393.37-1240.611 391.538-1238.489 388.517-1236.036 385.015-1235.751 379.708-1235.687 375.163-1235.668 374.364-1241.667 372.223-1244.378 372.849-1266.95 378.066-1289.467 383.573-1311.864 389.469-1319.985 391.601-1326.352 396.609-1327.611 405.5-1329.227 416.949-1330.302 428.489-1331.616 439.984-1330.716 440.337-1329.815 440.682-1328.924 441.036M-1223.964 428.008C-1221.925 413.257-1229.706 404.103-1244.791 405.573-1253.693 406.434-1262.715 409.229-1270.992 412.74-1306.6 427.854-1326.628 454.69-1330.835 489.772-1331.129 507.218-1324.827 512.652-1310.229 510.62-1307.5 510.239-1304.772 509.803-1302.062 509.304-1262.963 502.065-1229.348 467.064-1223.964 428.008M-1196.9 446.742C-1194.548 436.881-1192.674 426.919-1190.552 416.858-1205.866 415.325-1210.441 419.535-1214.438 432.027-1218.811 445.699-1223.744 459.598-1231.112 471.836-1238.865 484.709-1249.78 495.723-1260.482 509.005-1255.788 509.667-1251.543 510.974-1247.418 510.674-1240.694 510.202-1234.061 508.569-1227.364 507.626-1217.111 506.174-1210.515 500.613-1207.943 490.752-1204.13 476.118-1200.4 461.457-1196.9 446.742M-1159.133 451.986H-1160.639C-1160.639 440.156-1160.483 428.317-1160.777 416.486-1160.832 414.073-1162.569 411.705-1163.533 409.31-1165.94 410.263-1169.321 410.526-1170.58 412.277-1175.605 419.308-1181.87 426.257-1184.204 434.232-1189.183 451.206-1192.362 468.742-1195.614 486.161-1199.968 509.504-1197.176 511.699-1173.813 504.795-1163.212 501.656-1159.197 496.467-1159.151 485.653-1159.096 474.431-1159.133 463.208-1159.133 451.986M-1130.112 315.141C-1130.782 314.279-1131.444 313.426-1132.105 312.564-1144.021 316.121-1156.331 318.724-1167.759 323.433-1194.475 334.41-1217.304 349.116-1218.994 381.967-1219.536 392.382-1213.969 400.057-1203.276 399.685-1188.448 399.159-1174.705 394.886-1163.8 384.489-1143.846 365.455-1138.095 339.754-1130.112 315.141M-1136.79 273.681C-1140.667 274.525-1144.535 275.378-1148.393 276.285-1182.017 284.177-1213.464 281.665-1241.034 258.44-1254.823 246.827-1260.611 247.961-1271.222 263.547-1249.394 288.968-1221.585 302.195-1189.091 306.985-1167.18 310.206-1146.924 305.778-1128.541 293.975-1125.619 292.098-1122.992 286.437-1123.653 283.216-1124.884 277.237-1128.789 271.939-1136.79 273.681M-1157.599 198.536C-1138.031 198.309-1126.823 183.313-1121.908 166.475-1126.841 166.021-1131.618 165.286-1136.414 165.196-1152.188 164.923-1163.451 171.319-1168.43 183.113-1172.748 193.31-1168.77 198.663-1157.599 198.536M-1201.466 221.797C-1200.088 223.294-1199.123 225.054-1197.635 225.861-1180.97 234.934-1163.836 233.509-1147.052 226.741-1144.59 225.743-1143.074 219.71-1143.276 216.127-1143.396 213.977-1147.392 211.255-1150.185 210.23-1153.823 208.896-1157.975 208.815-1161.935 208.479-1176.928 207.236-1191.434 207.508-1201.466 221.797M-1231.176 237.066C-1237.8 242.309-1238.36 246.655-1231.259 251.037-1214.171 261.56-1196.376 270.297-1174.962 270.306-1164.296 267.975-1153.538 265.997-1143.01 263.203-1133.116 260.563-1136.377 253.622-1138.426 247.181-1140.732 239.951-1145.077 237.791-1152.491 240.159-1170.35 245.875-1188.09 243.743-1203.946 234.888-1214.621 228.928-1222.421 230.144-1231.176 237.066M-1202.899 205.095C-1197.12 202.02-1190.726 198.69-1186.914 193.737-1181.659 186.924-1177.92 178.722-1174.888 170.612-1173.685 167.373-1174.76 161.458-1177.157 159.154-1181.034 155.425-1186.427 155.343-1190.589 160.659-1194.511 165.676-1199.748 169.823-1203.018 175.184-1207.345 182.242-1210.322 190.117-1213.868 197.638-1212.472 205.159-1209.697 208.724-1202.899 205.095M-1074.099 422.529C-1086.143 410.082-1095.385 395.167-1097.636 379.091-1099.832 363.469-1095.11 346.857-1093.153 330.718-1092.574 325.964-1090.305 321.337-1090.167 316.611-1089.965 309.716-1095.22 306.051-1101.228 305.161-1104.278 304.717-1109.505 306.667-1110.893 309.117-1119.492 324.295-1125.766 340.344-1126.014 358.297-1124.517 368.159-1123.837 378.22-1121.366 387.846-1115.348 411.306-1103.277 431.347-1084.361 447.151-1080.346 450.516-1077.361 450.816-1073.511 446.706-1064.958 437.57-1064.398 432.544-1074.099 422.529M-1058.73 418.319C-1045.822 405.736-1044.876 400.129-1052.235 385.759-1058.601 373.312-1061.467 360.203-1059.354 346.159-1058.5 340.471-1058.16 334.664-1058.151 328.913-1058.142 319.405-1066.649 319.614-1072.666 318.244-1074.467 317.835-1078.628 322.308-1079.804 325.275-1086.547 342.303-1088.835 359.985-1084.26 377.875-1080.163 393.906-1073.374 408.621-1058.73 418.319M-993.365 538.961C-984.693 531.05-981.422 521.733-984.022 507.726-1007.054 519.692-1029.102 530.624-1050.563 542.581-1057.591 546.491-1064.857 552.597-1063.544 561.959-1062.478 569.571-1059.4 577.01-1056.516 584.25-1053.897 590.845-1049.984 591.952-1044.205 586.409-1027.485 570.36-1010.499 554.574-993.365 538.961M-978.042 538.118C-982.653 542.953-987.017 547.979-991.859 552.497-1005.235 565.017-1018.859 577.282-1032.308 589.729-1038.528 595.49-1042.588 602.984-1039.851 610.967-1035.606 623.36-1029.516 635.135-1024.206 647.174-1023.379 646.966-1022.552 646.757-1021.716 646.548-1017.922 634.773-1014.789 622.734-1010.186 611.276-1003.094 593.594-991.583 578.761-977.885 565.361-968.276 555.962-968.643 548.605-978.042 538.118M-964.013 471.518C-988.166 474.757-1010.315 477.052-1032.143 481.044-1038.721 482.242-1046.309 486.805-1050.122 492.14-1058.087 503.307-1061.284 516.598-1060.117 530.315-1038.62 520.962-1017.113 512.316-996.296 502.273-983.26 495.995-973.163 485.689-964.013 471.518M-922.13 392.917C-919.751 394.278-915.929 393.162-912.778 393.198-912.925 389.76-912.172 385.94-913.476 383.001-914.882 379.853-918.152 377.494-920.716 374.881-931.134 364.276-934.707 352.001-931.115 337.45-926.834 320.14-915.084 310.133-899.228 303.538-884.354 297.35-876.766 281.029-881.681 263.792-902.59 275.25-924.234 275.976-946.466 272.039-953.375 270.814-957.941 274.18-960.522 280.385-962.709 285.638-965.015 290.864-966.999 296.198-983.159 339.627-958.464 372.259-922.13 392.917M-1039.208 382.829C-1028.036 373.539-1024.72 366.272-1025.455 354.442-1025.813 348.735-1025.942 342.965-1025.437 337.286-1024.867 330.917-1025.482 325.021-1032.74 323.687-1039.878 322.38-1044.114 326.989-1046.116 333.431-1051.454 350.668-1052.336 367.37-1039.208 382.829M-1014.568 443.721C-1025.014 444.619-1035.799 442.052-1046.401 440.827-1054.596 439.875-1059.391 444.256-1062.175 454.935-1064.269 462.954-1057.701 463.689-1053.245 464.732-1042.552 467.236-1031.601 468.679-1022.8 470.194-1012.869 469.141-1005.124 468.933-997.646 467.427-967.366 461.321-941.377 448.239-925.089 420.986-922.948 417.394-921.91 411.297-923.508 407.75-927.9 398.043-936.342 397.562-943.747 405.7-962.81 426.656-985.676 441.226-1014.568 443.721M-1027.053 403.758C-1030.131 403.695-1034.669 405.917-1036.112 408.439-1039.465 414.282-1041.339 420.95-1043.81 427.282-1037.563 429.024-1031.325 430.766-1025.078 432.499-1024.793 432.571-1024.463 432.508-1021.964 432.508-994.808 431.583-970.27 420.959-951.115 398.387-944.464 390.549-950.94 387.011-954.854 382.674-958.859 378.238-964.068 376.025-969.121 381.232-984.959 397.589-1004.463 404.176-1027.053 403.758M-985.171 307.856C-1005.565 310.224-1017.113 324.712-1014.192 344.272-1013.053 351.947-1009.47 353.925-1001.872 351.012-985.878 344.898-975.24 328.332-985.171 307.856M-1009.056 368.349C-1013.687 371.271-1017.325 376.17-1020.421 380.824-1022.203 383.491-1022.01 387.437-1022.708 390.812-1018.363 391.52-1013.19 394.078-1009.819 392.608-999.805 388.236-989.994 382.992-981.046 376.768-970.095 369.139-970.187 364.73-979.732 352.609-989.396 357.699-999.631 362.398-1009.056 368.349M-1057.627 217.588C-1074.476 217.279-1091.894 232.575-1091.949 247.734-1091.995 259.937-1077.581 273.835-1064.637 274.071-1050.682 274.334-1035.037 258.286-1034.642 243.316-1034.228 227.385-1042.726 217.86-1057.627 217.588M-1074.402 286.845C-1082.496 285.747-1091.086 281.665-1097.388 290.764-1083.158 307.874-1038.399 318.879-1012.823 308.781-994.128 301.397-982.617 286.337-971.188 271.377-969.305 268.909-970.674 262.531-972.585 259.057-975.919 252.996-982.13 248.333-984.821 242.119-990.857 228.157-995.478 213.605-1000.917 198.627-1016.387 203.716-1026.383 219.112-1023.535 235.124-1017.839 267.222-1041.504 291.299-1074.402 286.845M-891.988 372.459C-876.205 372.278-864.676 358.86-864.722 340.715-864.768 324.259-875.764 310.977-889.232 312.229-907.615 313.934-919.374 332.07-918.198 346.377-918.061 360.801-906.182 372.622-891.988 372.459M-790.951 197.892C-799.44 207.028-802.876 231.359-797.125 239.379-795.958 241.012-793.22 242.201-790.951 242.436-788.691 242.201-785.954 241.012-784.787 239.379-779.036 231.359-782.463 207.028-790.951 197.892M-790.722 254.72C-790.795 254.711-790.878 254.702-790.951 254.693-791.034 254.702-791.108 254.711-791.19 254.72-795.297 255.065-800.717 250.629-804.006 246.954-806.854 243.77-808.011 238.798-809.049 234.417-810.914 226.56-812.127 218.558-814.111 207.917-818.062 212.244-822.912 215.084-823.271 218.395-824.768 232.23-825.384 246.283-817.538 258.975-811.392 268.909-801.185 274.008-790.951 273.799-780.717 274.008-770.511 268.909-764.374 258.975-756.528 246.283-757.135 232.23-758.632 218.395-758.99 215.084-763.841 212.244-767.791 207.917-769.785 218.558-770.997 226.56-772.862 234.417-773.901 238.798-775.049 243.77-777.906 246.954-781.195 250.629-786.615 255.065-790.722 254.72M-777.897 293.921C-752.311 288.278-729.996 269.889-730.346 236.548-730.346 233.818-730.318 231.078-730.346 228.347-730.419 222.922-732.036 218.703-738.577 218.731-745.32 218.749-745.458 223.475-745.32 228.275-744.925 241.638-747.341 254.003-755.692 265.18-766.597 279.796-778.108 283.878-790.951 283.524-803.795 283.878-815.315 279.796-826.22 265.18-834.561 254.003-836.977 241.638-836.582 228.275-836.445 223.475-836.582 218.749-843.335 218.731-849.867 218.703-851.493 222.922-851.557 228.347-851.594 231.078-851.566 233.818-851.566 236.548-851.915 269.889-829.591 288.278-804.015 293.921-799.651 294.883-795.278 295.345-790.951 295.345-786.634 295.345-782.26 294.883-777.897 293.921M-663.704 346.377C-662.537 332.07-674.287 313.934-692.68 312.229-706.147 310.977-717.135 324.259-717.181 340.715-717.236 358.86-705.706 372.278-689.914 372.459-675.73 372.622-663.851 360.801-663.704 346.377M-585.616 502.273C-564.798 512.316-543.283 520.962-521.786 530.315-520.619 516.598-523.825 503.307-531.79 492.14-535.594 486.805-543.191 482.242-549.769 481.044-571.597 477.052-593.737 474.757-617.889 471.518-608.739 485.689-598.643 495.995-585.616 502.273M-549.594 589.729C-563.044 577.282-576.668 565.017-590.053 552.497-594.895 547.979-599.249 542.953-603.861 538.118-613.268 548.605-613.627 555.962-604.017 565.361-590.32 578.761-578.818 593.594-571.725 611.276-567.123 622.734-563.981 634.773-560.187 646.548-559.36 646.757-558.533 646.966-557.697 647.174-552.387 635.135-546.305 623.36-542.061 610.967-539.323 602.984-543.384 595.49-549.594 589.729M-531.349 542.581C-552.81 530.624-574.858 519.692-597.89 507.726-600.49 521.733-597.219 531.05-588.537 538.961-571.404 554.574-554.417 570.36-537.697 586.409-531.919 591.952-528.014 590.845-525.387 584.25-522.502 577.01-519.425 569.571-518.359 561.959-517.045 552.597-524.321 546.491-531.349 542.581M-497.652 377.875C-493.068 359.985-495.364 342.303-502.098 325.275-503.274 322.308-507.436 317.835-509.236 318.244-515.263 319.614-523.77 319.405-523.761 328.913-523.752 334.664-523.412 340.471-522.557 346.159-520.435 360.203-523.302 373.312-529.677 385.759-537.027 400.129-536.09 405.736-523.173 418.319-508.529 408.621-501.749 393.906-497.652 377.875M-567.343 443.721C-596.236 441.226-619.093 426.656-638.165 405.7-645.569 397.562-654.012 398.043-658.394 407.75-660.002 411.297-658.964 417.394-656.814 420.986-640.526 448.239-614.536 461.321-584.256 467.427-576.778 468.933-569.034 469.141-559.103 470.194-550.311 468.679-539.36 467.236-528.667 464.732-524.211 463.689-517.642 462.954-519.737 454.935-522.521 444.256-527.307 439.875-535.502 440.827-546.103 442.052-556.889 444.619-567.343 443.721M-556.448 354.442C-557.183 366.272-553.866 373.539-542.695 382.829-529.567 367.37-530.449 350.668-535.796 333.431-537.789 326.989-542.024 322.38-549.162 323.687-556.429 325.021-557.045 330.917-556.475 337.286-555.97 342.965-556.089 348.735-556.448 354.442M-612.791 381.232C-617.844 376.025-623.052 378.238-627.058 382.674-630.962 387.011-637.439 390.549-630.788 398.387-611.633 420.959-587.104 431.583-559.939 432.508-557.44 432.508-557.109 432.571-556.824 432.499-550.586 430.766-544.339 429.024-538.102 427.282-540.573 420.95-542.447 414.282-545.8 408.439-547.242 405.917-551.772 403.695-554.858 403.758-577.44 404.176-596.953 397.589-612.791 381.232M-596.732 307.856C-606.672 328.332-596.025 344.898-580.04 351.012-572.442 353.925-568.859 351.947-567.711 344.272-564.798 324.712-576.346 310.224-596.732 307.856M-572.855 368.349C-582.272 362.398-592.506 357.699-602.18 352.609-611.725 364.73-611.808 369.139-600.857 376.768-591.918 382.992-582.097 388.236-572.084 392.608-568.712 394.078-563.54 391.52-559.195 390.812-559.893 387.437-559.7 383.491-561.482 380.824-564.587 376.17-568.225 371.271-572.855 368.349M-661.196 374.881C-663.75 377.494-667.03 379.853-668.426 383.001-669.731 385.94-668.977 389.76-669.134 393.198-665.983 393.162-662.152 394.278-659.772 392.917-623.447 372.259-598.744 339.627-614.913 296.198-616.897 290.864-619.194 285.638-621.38 280.385-623.971 274.18-628.528 270.814-635.436 272.039-657.668 275.976-679.313 275.25-700.222 263.792-705.137 281.029-697.558 297.35-682.675 303.538-666.819 310.133-655.069 320.14-650.797 337.45-647.205 352.001-650.778 364.276-661.196 374.881M-489.963 247.734C-490.018 232.575-507.436 217.279-524.284 217.588-539.176 217.86-547.683 227.385-547.261 243.316-546.875 258.286-531.23 274.334-517.275 274.071-504.321 273.835-489.917 259.937-489.963 247.734M-507.509 286.845C-540.407 291.299-564.073 267.222-558.368 235.124-555.529 219.112-565.524 203.716-580.995 198.627-586.434 213.605-591.045 228.157-597.09 242.119-599.782 248.333-605.992 252.996-609.318 259.057-611.229 262.531-612.598 268.909-610.714 271.377-599.286 286.337-587.784 301.397-569.08 308.781-543.513 318.879-498.754 307.874-484.515 290.764-490.817 281.665-499.406 285.747-507.509 286.845M-460.537 387.846C-458.075 378.22-457.386 368.159-455.898 358.297-456.136 340.344-462.42 324.295-471.019 309.117-472.406 306.667-477.625 304.717-480.674 305.161-486.692 306.051-491.938 309.716-491.735 316.611-491.598 321.337-489.338 325.964-488.759 330.718-486.802 346.857-482.08 363.469-484.267 379.091-486.517 395.167-495.759 410.082-507.812 422.529-517.505 432.544-516.944 437.57-508.391 446.706-504.542 450.816-501.556 450.516-497.542 447.151-478.635 431.347-466.554 411.306-460.537 387.846M-418.103 384.489C-407.198 394.886-393.464 399.159-378.636 399.685-367.933 400.057-362.375 392.382-362.908 381.967-364.599 349.116-387.437 334.41-414.143 323.433-425.572 318.724-437.891 316.121-449.797 312.564-450.468 313.426-451.13 314.279-451.791 315.141-443.808 339.754-438.066 365.455-418.103 384.489M-386.298 486.161C-389.541 468.742-392.72 451.206-397.699 434.232-400.032 426.257-406.298 419.308-411.332 412.277-412.582 410.526-415.962 410.263-418.369 409.31-419.334 411.705-421.07 414.073-421.134 416.486-421.419 428.317-422.77 440.156-422.77 451.986-422.77 458.89-422.788 465.794-422.788 472.707-422.788 477.016-422.779 481.334-422.76 485.653-422.715 496.467-418.691 501.656-408.089 504.795-384.727 511.699-381.943 509.504-386.298 486.161M-350.791 471.836C-358.159 459.598-363.101 445.699-367.474 432.027-371.47 419.535-376.046 415.325-391.351 416.858-389.238 426.919-387.354 436.881-385.012 446.742-381.512 461.457-377.773 476.118-373.96 490.752-371.388 500.613-364.801 506.174-354.539 507.626-347.842 508.569-341.209 510.202-334.484 510.674-330.359 510.974-326.115 509.667-321.42 509.005-332.123 495.723-343.046 484.709-350.791 471.836M-251.077 489.772C-255.284 454.69-275.302 427.854-310.911 412.74-319.197 409.229-328.219 406.434-337.121 405.573-352.206 404.103-359.978 413.257-357.947 428.008-352.564 467.064-318.949 502.065-279.85 509.304-277.14 509.803-274.411 510.239-271.674 510.62-257.076 512.652-250.773 507.218-251.077 489.772M-254.301 405.5C-255.56 396.609-261.926 391.601-270.038 389.469-292.445 383.573-314.953 378.066-337.525 372.849-340.235 372.223-346.234 374.364-346.225 375.163-346.161 379.708-345.876 385.015-343.414 388.517-341.292 391.538-336.358 393.37-332.334 394.232-309.487 399.131-290.387 410.698-272.886 425.423-266.437 430.848-259.63 435.847-252.988 441.036-252.087 440.682-251.187 440.337-250.286 439.984-251.6 428.489-252.675 416.949-254.301 405.5M-292.436 341.441C-309.294 341.441-326.161 341.051-342.991 341.732-346.804 341.886-350.46 345.723-354.19 347.855-351.526 350.904-349.449 355.494-346.096 356.737-330.46 362.543-314.613 367.914-298.554 372.477-286.758 375.834-274.577 377.93-262.478 380.152-254.43 381.631-252.151 379.136-253.438 371.425-253.484 371.125-253.603 370.835-253.658 370.536-259.455 341.015-261.246 339.59-292.436 341.441M-332.233 296.289C-350.589 303.447-368.273 312.256-386.564 320.566-380.703 327.878-371.268 330.037-361.99 330.382-349.854 330.845-337.635 329.457-325.463 328.867-310.185 328.123-294.898 327.37-278.38 326.563-279.051 323.932-278.821 319.877-280.741 318.135-289.919 309.816-298.821 300.535-309.588 294.846-315.339 291.807-325.361 293.613-332.233 296.289M-433.509 276.285C-437.368 275.378-441.245 274.525-445.121 273.681-453.123 271.939-457.018 277.237-458.25 283.216-458.911 286.437-456.283 292.098-453.362 293.975-434.979 305.778-414.722 310.206-392.812 306.985-360.318 302.195-332.509 288.968-310.681 263.547-321.292 247.961-327.089 246.827-340.869 258.44-368.448 281.665-399.895 284.177-433.509 276.285M-377.956 234.888C-393.822 243.743-411.553 245.875-429.421 240.159-436.835 237.791-441.171 239.951-443.477 247.181-445.535 253.622-448.787 260.563-438.902 263.203-428.365 265.997-417.607 267.975-406.95 270.306-385.526 270.297-367.741 261.56-350.653 251.037-343.552 246.655-344.103 242.309-350.736 237.066-359.491 230.144-367.281 228.928-377.956 234.888M-407.014 170.612C-403.992 178.722-400.244 186.924-394.998 193.737-391.176 198.69-384.782 202.02-379.004 205.095-372.214 208.724-369.431 205.159-368.035 197.638-371.59 190.117-374.566 182.242-378.884 175.184-382.155 169.823-387.391 165.676-391.314 160.659-395.476 155.343-400.868 155.425-404.745 159.154-407.143 161.458-408.227 167.373-407.014 170.612M-413.473 183.113C-418.461 171.319-429.715 164.923-445.489 165.196-450.284 165.286-455.071 166.021-459.995 166.475-455.08 183.313-443.872 198.309-424.304 198.536-413.133 198.663-409.155 193.31-413.473 183.113M-419.968 208.479C-423.927 208.815-428.089 208.896-431.727 210.23-434.52 211.255-438.516 213.977-438.635 216.127-438.838 219.71-437.313 225.743-434.86 226.741-418.075 233.509-400.932 234.934-384.277 225.861-382.779 225.054-381.815 223.294-380.446 221.797-390.469 207.508-404.984 207.236-419.968 208.479M-436.513 459.643C-435.457 442.723-433.068 425.858-432.784 408.948-432.591 397.725-433.812 386.031-443.734 376.605-452.443 396.029-461.391 414.554-468.998 433.606-473.013 443.63-471.58 454.445-464.221 462.882-456.908 471.274-448.383 478.631-440.39 486.442-439.132 485.952-437.873 485.462-436.605 484.972-436.605 476.526-437.046 468.053-436.513 459.643M-677.053 495.714C-676.52 510.157-672.735 523.275-662.409 533.835-654.986 541.42-647.039 550.982-635.363 547.834-624.32 544.849-622.125 533.082-619.185 523.257-615.639 511.409-616.208 499.488-623.025 489.255-633.902 472.916-645.992 457.357-657.678 441.544-658.909 439.875-660.774 438.614-662.455 437.316-663.135 436.79-664.136 436.672-666.626 435.792-673.598 455.678-677.797 475.184-677.053 495.714M-688.821 625.764C-691.816 635.453-690.401 643.99-682.556 650.54-673.846 657.807-664.531 664.375-655.482 671.252-654.701 670.608-653.92 669.973-653.139 669.338-654.903 659.123-656.474 648.88-658.458 638.71-662.482 618.044-659.625 597.876-654.012 577.953-650.484 565.398-653.038 560.172-667.103 554.91-669.749 562.848-672.569 570.705-674.967 578.688-679.689 594.347-683.98 610.133-688.821 625.764M-689.308 493.936C-693.341 495.215-696.657 495.46-698.908 497.111-710.658 505.739-721.526 515.655-733.828 523.384-761.553 540.821-759.459 565.343-741.985 590.537-738.825 586.137-735.839 582.018-732.909 577.863-722.417 562.975-711.898 548.115-701.508 533.164-693.699 521.933-690.034 509.404-689.308 493.936M-696.428 544.704C-706.689 560.145-716.979 575.595-726.809 591.308-738.265 609.625-732.918 624.53-711.448 635.38-709.841 636.188-708.049 636.642-706.396 637.24-684.669 603.755-673.589 549.285-686.561 532.284-690.291 536.938-693.699 540.603-696.428 544.704M-721.49 398.651C-712.817 400.52-703.933 402.089-695.114 402.27-691.494 402.343-687.783 398.396-684.108 396.274-686.919 393.253-689.28 388.281-692.624 387.528-711.072 383.373-724.696 374.609-729.179 355.313-732.89 339.346-728.187 325.656-717.962 313.299-709.446 303.021-709.859 283.234-719.174 273.862-720.314 272.71-725.991 273.463-726.882 274.933-738.402 293.803-756.014 303.583-776.721 309.643-780.258 310.677-782.692 315.359-784.135 316.828-785.182 358.887-760.377 390.286-721.49 398.651M-783.74 491.777C-750.786 491.94-712.67 446.57-716.317 411.47-722.647 410.272-729.133 409.038-735.307 407.877-740.58 418.41-744.548 428.725-750.584 437.688-755.747 445.354-762.095 453.746-770.024 457.783-785.834 465.812-784.805 478.241-783.74 491.777M-780.552 446.878C-777.024 447.767-771.714 445.563-768.471 443.032-756.85 433.996-751.659 420.995-749.28 407.16-748.784 404.248-752.55 399.467-755.628 397.489-757.805 396.092-763.859 396.745-765.228 398.605-771.659 407.333-777.291 416.659-782.692 426.067-784.245 428.77-784.061 432.444-784.925 437.026-783.749 439.938-782.894 446.289-780.552 446.878M-860.413 398.651C-821.534 390.286-796.73 358.887-797.768 316.828-799.21 315.359-801.654 310.677-805.191 309.643-825.889 303.583-843.509 293.803-855.03 274.933-855.921 273.463-861.598 272.71-862.737 273.862-872.044 283.234-872.466 303.021-863.95 313.299-853.716 325.656-849.021 339.346-852.724 355.313-857.216 374.609-870.84 383.373-889.287 387.528-892.622 388.281-894.983 393.253-897.794 396.274-894.129 398.396-890.417 402.343-886.789 402.27-877.969 402.089-869.085 400.52-860.413 398.651M-796.978 437.026C-797.851 432.444-797.658 428.77-799.21 426.067-804.612 416.659-810.253 407.333-816.684 398.605-818.043 396.745-824.097 396.092-826.275 397.489-829.362 399.467-833.128 404.248-832.623 407.16-830.243 420.995-825.062 433.996-813.441 443.032-810.189 445.563-804.879 447.767-801.351 446.878-799.008 446.289-798.154 439.938-796.978 437.026M-811.879 457.783C-819.816 453.746-826.155 445.354-831.318 437.688-837.354 428.725-841.323 418.41-846.596 407.877-852.779 409.038-859.265 410.272-865.585 411.47-869.242 446.57-831.116 491.94-798.172 491.777-797.106 478.241-796.068 465.812-811.879 457.783M-919.503 533.835C-909.177 523.275-905.383 510.157-904.859 495.714-904.106 475.184-908.313 455.678-915.277 435.792-917.767 436.672-918.768 436.79-919.448 437.316-921.138 438.614-922.994 439.875-924.234 441.544-935.911 457.357-948 472.916-958.887 489.255-965.704 499.488-966.273 511.409-962.727 523.257-959.778 533.082-957.592 544.849-946.54 547.834-934.863 550.982-926.917 541.42-919.503 533.835M-849.003 577.863C-846.072 582.018-843.078 586.137-839.926 590.537-822.444 565.343-820.349 540.821-848.084 523.384-860.376 515.655-871.254 505.739-883.004 497.111-885.254 495.46-888.562 495.215-892.595 493.936-891.869 509.413-888.213 521.933-880.404 533.164-870.004 548.115-859.485 562.975-849.003 577.863M-855.094 591.308C-864.933 575.595-875.213 560.145-885.484 544.704-888.213 540.603-891.612 536.938-895.342 532.284-908.323 549.285-897.234 603.755-875.507 637.24-873.863 636.642-872.062 636.188-870.454 635.38-848.994 624.53-843.638 609.625-855.094 591.308M-923.453 638.71C-925.438 648.88-927.009 659.123-928.763 669.338-927.982 669.973-927.202 670.608-926.421 671.252-917.372 664.375-908.065 657.807-899.356 650.54-891.511 643.99-890.096 635.453-893.091 625.764-897.923 610.133-902.223 594.347-906.935 578.688-909.342 570.705-912.163 562.848-914.799 554.91-928.874 560.172-931.427 565.398-927.891 577.953-922.286 597.876-919.42 618.044-923.453 638.71M-1145.297 484.972C-1144.039 485.462-1142.771 485.952-1141.512 486.442-1133.52 478.631-1124.995 471.274-1117.682 462.882-1110.323 454.445-1108.899 443.63-1112.905 433.606-1120.511 414.554-1129.469 396.029-1138.168 376.605-1148.09 386.031-1149.312 397.725-1149.128 408.948-1148.834 425.858-1146.455 442.723-1145.389 459.643-1144.866 468.053-1145.297 476.526-1145.297 484.972M-1290.725 207.79C-1288.87 216.272-1286.949 227.567-1283.67 238.463-1282.751 241.493-1277.763 245.412-1274.713 245.349-1264.332 245.14-1258.654 236.304-1261.53 226.397-1265.691 212.053-1266.435 197.765-1261.419 183.449-1254.492 163.662-1244.451 145.881-1228.365 131.746-1218.939 123.464-1217.929 118.066-1223.634 110.844-1228.889 104.194-1232.26 104.584-1243.33 111.924-1276.844 134.16-1286.876 167.781-1290.725 207.79M-1368.308 120.842C-1372.498 128.235-1371.606 133.933-1364.275 138.659-1345.966 150.453-1326.692 151.578-1307.262 142.515-1287.381 133.234-1271.084 119.082-1255.512 102.071-1259.913 100.13-1263.073 98.034-1266.536 97.327-1278.782 94.813-1291.12 92.736-1303.44 90.559-1329.053 86.041-1355.75 98.651-1368.308 120.842M-1453.581 65.655C-1428.978 72.995-1404.394 80.425-1379.654 87.284-1371.046 89.679-1362.741 87.837-1354.243 80.162-1362.677 74.12-1370.182 68.05-1378.349 63.042-1392.58 54.315-1406.875 45.561-1421.831 38.167-1430.503 33.875-1440.104 35.418-1446.948 43.174-1451.725 48.591-1455.501 54.86-1460.296 61.546-1457.145 63.514-1455.51 65.075-1453.581 65.655M-1489.391 114.028C-1458.055 108.05-1426.819 102.516-1395.318 113.874-1385.708 117.34-1381.133 109.755-1376.08 102.171-1380.04 100.193-1383.338 97.953-1386.985 96.837-1406.544 90.903-1426.222 85.333-1445.799 79.472-1454.738 76.796-1464.054 75.844-1470.677 82.884-1479.24 91.974-1486.222 102.507-1495.142 114.047-1491.081 114.047-1490.209 114.183-1489.391 114.028M-1465.808 192.095C-1457.384 189.663-1442.483 186.325-1428.335 181.018-1412.221 174.975-1399.094 164.416-1390.899 149.038-1385.534 138.977-1387.582 132.554-1397.421 126.884-1401.078 124.788-1405.276 123.527-1409.328 122.203-1424.054 117.385-1438.882 116.387-1454.389 118.882-1482.767 123.436-1505.551 136.038-1521.058 160.306-1526.855 169.396-1525.753 174.195-1516.593 179.902-1503.19 188.248-1488.188 191.042-1465.808 192.095M-1412.139 218.422C-1394.812 200.087-1377.743 181.507-1360.086 162.492-1371.588 152.213-1377.367 152.24-1387.224 162.782-1400.15 176.618-1415.464 187.032-1432.864 194.408-1443.797 199.044-1455.032 202.963-1466.139 207.2-1466.24 208.007-1466.35 208.815-1466.461 209.631-1455.822 214.059-1445.019 218.141-1434.601 223.04-1425.588 227.277-1418.312 224.954-1412.139 218.422M-1353.812 243.77C-1336.421 243.715-1322.319 240.277-1310.137 231.35-1306.729 228.846-1303.477 224.319-1302.815 220.291-1299.186 198.264-1296.384 176.091-1293.16 152.93-1305.075 155.216-1311.736 162.075-1316.329 170.24-1325.525 186.561-1333.757 203.408-1342.273 220.101-1346.03 227.449-1349.521 234.943-1353.812 243.77M-1326.692 169.106C-1327.813 167.69-1328.943 166.275-1330.073 164.86-1337 167.373-1344.661 168.761-1350.734 172.599-1376.062 188.557-1393.306 212.543-1412.267 234.779-1412.525 235.088-1412.157 235.913-1411.983 237.22-1406.149 239.715-1400.076 242.636-1393.765 244.931-1383.476 248.678-1373.802 247.571-1367.739 237.755-1353.729 215.065-1340.334 192.013-1326.692 169.106M-1131.416 71.289C-1133.446 59.25-1144.792 51.158-1160.052 50.849-1170.607 50.641-1181.209 54.941-1186.28 61.482-1193.501 70.8-1193.446 82.267-1186.124 92.654-1179.215 102.452-1167.438 105.319-1153.125 100.683-1138.104 95.82-1129.303 83.891-1131.416 71.289M-1193.363 106.099C-1196.404 103.151-1199.913 100.366-1203.726 98.578-1206.317 97.354-1209.817 98.016-1212.904 97.834-1212.968 100.683-1214.052 104.04-1212.894 106.272-1209.973 111.869-1206.464 117.294-1202.458 122.203-1185.499 142.978-1164.847 157.956-1136.414 155.452-1123.791 154.345-1111.563 148.993-1099.134 145.645-1090.507 143.314-1087.338 138.777-1089.855 129.515-1094.072 113.983-1093.897 98.261-1088.192 82.893-1086.217 77.567-1084.435 72.169-1082.524 66.699-1103.424 64.186-1116.221 70.536-1123.194 88.635-1132.041 111.606-1169.716 129.034-1193.363 106.099M-1003.774 148.094C-1025.271 157.194-1046.484 151.479-1060.264 131.42-1068.468 119.481-1069.533 101.482-1055.413 83.119-1049.267 75.127-1040.668 70.618-1032.327 65.619-1028.156 63.124-1023.581 59.74-1027.945 55.05-1030.315 52.492-1036.461 50.904-1039.796 52.047-1068.863 62.017-1080.861 95.167-1077.949 117.086-1072.942 154.79-1022.047 181.861-985.07 157.149-974.468 150.063-974.027 149.7-980.357 136.609-988.524 140.646-995.965 144.783-1003.774 148.094M-984.656 88.826C-999.713 88.055-1010.857 92.473-1020.172 100.756-1022.478 102.806-1022.91 107.542-1022.938 111.053-1022.947 112.087-1018.115 114.573-1016.342 113.974-1003.379 109.565-992.832 101.944-984.656 88.826M-984.95 111.243C-990.6 114.065-995.836 117.086-1001.395 119.345-1006.401 121.386-1011.675 123.391-1016.985 123.963-1023.994 124.725-1031.224 124.471-1034.807 116.324-1038.583 107.741-1035.753 100.565-1029.442 94.986-1022.212 88.608-1014.091 83.219-1006.365 77.395-1006.493 76.188-1006.622 74.973-1006.741 73.766-1011.509 73.476-1016.636 71.924-1020.981 73.113-1037.297 77.576-1048.018 88.735-1052.611 104.421-1055.845 115.453-1053.006 126.258-1043.728 134.196-1035.753 141.027-1026.098 143.368-1016.185 139.93-1007.118 136.781-998.574 132.127-989.911 127.909-982.883 124.48-981.33 119.054-984.95 111.243M-905.75 133.089C-913.587 135.393-920.927 139.422-928.791 141.581-945.548 146.171-960.954 131.855-956.866 115.353-954.927 107.515-950.573 100.284-948.285 92.5-947.192 88.79-946.714 82.512-948.827 80.733-953.981 76.424-959.374 80.643-961.671 85.152-966.512 94.677-970.058 104.847-974.128 114.745-973.457 115.063-972.777 115.389-972.107 115.707-971.739 119.299-971.859 123.019-970.931 126.466-961.882 159.943-920.321 163.091-898.373 143.731-896.132 141.753-896.177 137.235-895.158 133.896-898.713 133.561-902.581 132.164-905.75 133.089M-947.229 119.989C-945.07 126.684-940.357 132.273-932.447 133.252-925.18 134.16-918.63 132.028-915.277 125.332-909.765 114.364-905.024 103.006-899.503 90.804-917.326 86.621-930.215 92.292-942.002 101.073-948.368 105.818-949.425 113.158-947.229 119.989M-927.799 77.976C-912.282 83.083-899.126 74.247-897.023 58.498-894.23 37.604-894.23 37.604-915.148 27.434-927.036 21.655-938.134 25.021-944.023 36.851-946.375 41.596-947.247 47.048-948.791 52.183-948.497 68.413-939.2 74.229-927.799 77.976M-844.575 30.691C-853.229 30.138-860.836 28.187-867.661 29.684-872.916 30.845-878.52 35.481-881.57 40.117-886.072 46.931-889.774 54.787-884.529 63.542-879.099 72.596-870.932 72.931-862.094 71.171-853.201 69.411-845.411 61.673-844.704 53.435-844.097 46.286-844.575 39.037-844.575 30.691M-873.55 81.514C-888.525 85.043-893.927 88.536-893.982 103.985-894.065 124.779-877.078 136.836-856.435 130.64-839.972 125.695-835.884 113.638-842.636 98.261-848.994 83.764-856.5 77.495-873.55 81.514M-790.226 19.587-790.951 18.861-791.677 19.587C-802.407 31.916-802.058 48.173-790.951 56.012-779.844 48.173-779.495 31.916-790.226 19.587M-790.795 97C-790.85 97-790.905 97.009-790.951 97.009-791.006 97.009-791.062 97-791.108 97-800.037 96.7-820.074 114.908-820.166 123.391-820.331 139.848-807.883 152.676-791.659 152.785-791.42 152.785-791.19 152.776-790.951 152.767-790.722 152.776-790.483 152.785-790.253 152.785-774.02 152.676-761.581 139.848-761.746 123.391-761.829 114.908-781.865 96.7-790.795 97M-700.332 40.117C-703.382 35.481-708.995 30.845-714.25 29.684-721.067 28.187-728.674 30.138-737.328 30.691-737.328 39.037-737.815 46.286-737.199 53.435-736.492 61.673-728.71 69.411-719.808 71.171-710.98 72.931-702.803 72.596-697.383 63.542-692.138 54.787-695.84 46.931-700.332 40.117M-708.352 81.514C-725.403 77.495-732.918 83.764-739.275 98.261-746.028 113.638-741.939 125.695-725.467 130.64-704.834 136.836-687.838 124.779-687.921 103.985-687.985 88.536-693.387 85.043-708.352 81.514M-633.626 92.5C-631.33 100.284-626.975 107.515-625.037 115.353-620.949 131.855-636.364 146.171-653.112 141.581-660.985 139.422-668.316 135.393-676.152 133.089-679.322 132.164-683.199 133.561-686.745 133.896-685.725 137.235-685.78 141.753-683.529 143.731-661.591 163.091-620.021 159.943-610.972 126.466-610.044 123.019-610.172 119.299-609.805 115.707-609.125 115.389-608.454 115.063-607.775 114.745-611.854 104.847-615.391 94.677-620.232 85.152-622.529 80.643-627.921 76.424-633.075 80.733-635.197 82.512-634.72 88.79-633.626 92.5M-682.399 90.804C-676.878 103.006-672.138 114.364-666.635 125.332-663.272 132.028-656.722 134.16-649.455 133.252-641.546 132.273-636.842 126.684-634.683 119.989-632.478 113.158-633.544 105.818-639.901 101.073-651.697 92.292-664.577 86.621-682.399 90.804M-654.104 77.976C-642.712 74.229-633.415 68.413-633.112 52.183-634.665 47.048-635.528 41.596-637.889 36.851-643.778 25.021-654.876 21.655-666.754 27.434-687.673 37.604-687.673 37.604-684.88 58.498-682.776 74.247-669.63 83.083-654.104 77.976M-549.576 65.619C-541.234 70.618-532.635 75.127-526.489 83.119-512.378 101.482-513.435 119.481-521.639 131.42-535.419 151.479-556.641 157.194-578.129 148.094-585.937 144.783-593.388 140.646-601.546 136.609-607.876 149.7-607.435 150.063-596.833 157.149-559.856 181.861-508.961 154.79-503.954 117.086-501.042 95.167-513.049 62.017-542.116 52.047-545.442 50.904-551.588 52.492-553.967 55.05-558.322 59.74-553.747 63.124-549.576 65.619M-597.246 88.826C-589.07 101.944-578.524 109.565-565.561 113.974-563.797 114.573-558.956 112.087-558.965 111.053-558.992 107.542-559.433 102.806-561.739 100.756-571.046 92.473-582.189 88.055-597.246 88.826M-552.47 94.986C-546.158 100.565-543.329 107.741-547.105 116.324-550.687 124.471-557.908 124.725-564.918 123.963-570.237 123.391-575.501 121.386-580.517 119.345-586.066 117.086-591.303 114.065-596.953 111.243-600.572 119.054-599.029 124.48-591.992 127.909-583.328 132.127-574.785 136.781-565.717 139.93-555.814 143.368-546.158 141.027-538.184 134.196-528.906 126.258-526.058 115.453-529.291 104.421-533.885 88.735-544.615 77.576-560.922 73.113-565.276 71.924-570.393 73.476-575.161 73.766-575.29 74.973-575.418 76.188-575.538 77.395-567.812 83.219-559.691 88.608-552.47 94.986M-395.623 61.482C-400.703 54.941-411.295 50.641-421.86 50.849-437.12 51.158-448.465 59.25-450.486 71.289-452.609 83.891-443.799 95.82-428.778 100.683-414.465 105.319-402.697 102.452-395.788 92.654-388.466 82.267-388.402 70.8-395.623 61.482M-458.709 88.635C-465.682 70.536-478.479 64.186-499.388 66.699-497.477 72.169-495.686 77.567-493.711 82.893-488.006 98.261-487.84 113.983-492.048 129.515-494.565 138.777-491.405 143.314-482.778 145.645-470.349 148.993-458.112 154.345-445.489 155.452-417.056 157.956-396.403 142.978-379.454 122.203-375.448 117.294-371.93 111.869-369.017 106.272-367.851 104.04-368.935 100.683-368.999 97.834-372.095 98.016-375.586 97.354-378.186 98.578-381.999 100.366-385.499 103.151-388.549 106.099-412.186 129.034-449.862 111.606-458.709 88.635M-62.461 207.744C-52.227 201.811-42.434 195.125-31.18 187.976-41.616 182.378-50.261 182.923-58.594 187.822-77.289 198.835-95.81 210.139-114.422 221.289-139.87 236.53-165.657 251.037-195.147 257.496-222 263.375-247.971 260.009-273.336 250.256-275.596 249.386-277.994 248.043-280.227 248.215-282.523 248.388-285.812 249.649-286.593 251.354-287.328 252.969-286.097 256.743-284.489 257.923-260.42 275.641-233.925 286.346-203.507 279.687-189.58 276.648-175.561 271.776-163.067 265.044-129.094 246.737-95.856 227.095-62.461 207.744M63.123-6.314C57.262-1.424 51.832 3.974 46.283 9.217 17.235 36.697-11.915 64.059-40.753 91.747-52.448 102.96-51.823 105.12-43.105 118.946-31.401 137.48-20.367 156.441-9.38 175.402-4.364 184.066-5.705 187.903-14.653 193.129-35.535 205.322-56.453 217.443-77.418 229.49-85.024 233.863-88.093 239.207-85.153 248.324-77.923 270.787-71.575 293.531-64.804 316.148-57.161 341.704-49.232 367.179-41.874 392.808-38.594 404.257-41.451 408.086-53.109 410.88-101.138 422.42-149.167 433.969-197.177 445.572-211.114 448.938-214.375 453.492-214.274 467.663-214.127 488.865-214.09 510.075-214.247 531.286-214.348 544.16-216.562 546.101-229.286 546.092-251.784 546.065-274.283 545.874-296.781 546.137-310.488 546.301-312.564 548.024-315.917 561.043-321.062 581.029-325.867 601.115-330.855 621.146-337.681 648.544-344.158 676.033-351.535 703.295-355.357 717.411-359.16 718.972-373.308 715.679-376.863 714.853-380.391 713.919-383.891 712.893-428.365 699.866-472.829 686.811-517.303 673.792-528.997 670.372-531.312 671.379-537.376 681.767-549.337 702.288-561.464 722.719-573.315 743.303-577.715 750.942-583.025 752.412-590.751 747.903-610.825 736.191-631.063 724.751-651.256 713.22-663.86 706.026-665.477 706.298-675.675 716.658-711.274 752.829-746.983 788.891-782.407 825.234-785.513 828.419-788.214 830.133-790.951 830.152-793.689 830.133-796.39 828.419-799.504 825.234-834.92 788.891-870.638 752.829-906.228 716.658-916.425 706.298-918.042 706.026-930.656 713.22-950.839 724.751-971.078 736.191-991.151 747.903-998.877 752.412-1004.197 750.942-1008.597 743.303-1020.448 722.719-1032.566 702.288-1044.536 681.767-1050.59 671.379-1052.914 670.372-1064.609 673.792-1109.083 686.811-1153.538 699.866-1198.012 712.893-1201.512 713.919-1205.049 714.853-1208.604 715.679-1222.752 718.972-1226.555 717.411-1230.377 703.295-1237.745 676.033-1244.231 648.544-1251.047 621.146-1256.036 601.115-1260.841 581.029-1265.994 561.043-1269.338 548.024-1271.424 546.301-1285.131 546.137-1307.62 545.874-1330.128 546.065-1352.626 546.092-1365.341 546.101-1367.555 544.16-1367.656 531.286-1367.821 510.075-1367.785 488.865-1367.628 467.663-1367.527 453.492-1370.789 448.938-1384.725 445.572-1432.745 433.969-1480.774 422.42-1528.803 410.88-1540.452 408.086-1543.318 404.257-1540.029 392.808-1532.679 367.179-1524.742 341.704-1517.099 316.148-1510.337 293.531-1503.98 270.787-1496.75 248.324-1493.819 239.207-1496.878 233.863-1504.494 229.49-1525.459 217.443-1546.377 205.322-1567.25 193.129-1576.198 187.903-1577.548 184.066-1572.532 175.402-1561.545 156.441-1550.502 137.48-1538.807 118.946-1530.089 105.12-1529.464 102.96-1541.15 91.747-1569.996 64.059-1599.146 36.697-1628.195 9.217-1633.735 3.974-1639.173-1.424-1645.026-6.314-1653.928-13.763-1656.776-22.826-1653.836-33.848H71.933C74.873-22.826 72.025-13.763 63.123-6.314" fill="#040506"/>
</g>
</g>
</svg>
