<svg xmlns="http://www.w3.org/2000/svg" width="963.78" height="1417.32" viewBox="0 0 963.78 1417.32"><defs><clipPath id="clip_1"><path d="M0-.003h963.78V1417.32H0Z"/></clipPath></defs><g clip-path="url(#clip_1)"><path d="M876.89 1024.387c-32.36-6.96-65.42-11.16-97.27-19.89-38.11-10.45-73.57-27.09-97.24-61.4-1.05-1.52-2.14-3.02-3.08-4.61-10.29-17.37-8.41-23.33 11.05-24.84 50.01-3.87 90.96-27.54 129.2-57.21 13.45-10.45 23.77-23.84 24.42-42.26.03-1.1.13-2.41.71-3.25 12.29-17.67 26.46-33.64 41.64-48.69 1.07.51 2.14 1.03 3.21 1.54 0 34.02-.02 68.03 0 102.05.02 49.44-.2 98.87.3 148.3.1 10.63-3.01 12.4-12.94 10.26m-164.99 76.96c.17 6.76-4.12 9.15-9.16 11.08-9.32 3.55-19.14 2.92-28.83 3.01-13.1.11-26.2.16-39.29-.13-10.92-.24-19.09 5.68-27.42 11.36-2.24 1.52-3.84 3.84-2.87 6.74 1.23 3.7 4.35 2.61 6.55 1.62 18.62-8.32 37.43-7.47 56.92-3.12 11.49 2.56 23.58 3.39 35.48 1.73 5.65-.79 8.55.69 8.23 6.94-1.97 38.8 1.37 77.9-6.13 116.38-3.29 16.88-8.96 52.13-14.61 68.34-3.22 9.25-8.7 13.76-19.91 13.68-83.09-.59-166.18-.48-249.28-.17-9.45.03-12.22-1.76-10.2-11.83 3.2-15.86 8.16-49.77 15.68-64.08 8.81-16.76 5.41-27.3-11.37-35.04-9.91-4.56-2.94-9.23-.33-12.75 5.27-7.11 11.95-12.69 13.58-22.56 2.36-14.29-.88-27.37-5.15-40.51-2.61-8.06-5.59-15.99-9.27-26.44 9.35 4.81 16.77 5.38 24.3 5.09 13.84-.54 26.83 1.71 37.78 11.07 2 1.71 4.42 3.86 6.85 1.58 2.97-2.8.18-5.33-1.37-7.8-4.31-6.91-9.9-11.58-18.1-13.91-14.61-4.15-28.59-10.3-43.52-13.74-10.62-2.44-13.97-12.49-15.72-21.38-5.81-29.39-10.48-59.01-14.76-88.94 15.13 23.98 37.63 41.35 54.28 63.73 3 4.03 6.67 7.03 11.36 8.75 5.55 2.04 9.31 5.75 12.06 11.04 3.52 6.79 8.22 12.99 16.75 13.15 5.45.1 4.26 4.02 5.3 6.86 1.7 4.68 4.85 5.55 9.74 4.93 5.56-.72 5.66-3.99 5.24-7.89-.9-8.36-2-16.7-3.02-24.99 2.85-.59 3.45 1.71 4.91 2.64 6.45 4.09 7.24 18.47 14.62 15.12 6.65-3.01 14.99-3.9 22.06-12.53 0 7.66-.31 12.34.1 16.95.33 3.88-.58 9.23 4.42 10.45 4.97 1.2 6.61-3.68 8.68-7.18 4.4-7.44 6.16-15.88 9.16-23.85 8.23-21.87 20.81-41.52 31.69-62.18.15 7.4.23 14.1-4.33 20.43-1.34 1.86-2.148 5.446 1.24 7.13 3.76 1.87 6.28-.85 7.76-3.13 8.43-12.99 10-29 15.54-42.92 1.507-3.785 3.29-7.47 5.12-11.11 10.45-20.73 16.48-23.5 38.05-14.99 16.83 6.64 31.13 17.69 44.7 29.48 4.7 4.09 5.62 10.16 6.04 16.29 2.02 29.2-.28 58.41.45 87.6m-356.39-156.07c-.42.61-.68 1.49-1.26 1.83-12.91 7.47-18.05 15.52-2.43 25.81 1.85 1.22 1.79 4.13.39 6.21-3.98 5.9-2.46 12.91-4.61 19.07 4.22 2.14 5.22-2.71 7.46-2.76 14.05 17.78 7.54 37.89 7.29 57.26-.06 5.1 2.34 9.22 4.56 13.59 7.85 15.48 3.14 24.26-13.84 25.57-9.31.72-18.74.01-28.04.84-8.88.8-13.17-2.84-14.66-11.3-3.78-21.46-5.8-42.84 1.56-63.99 1.09-3.12 2.12-6.95 4.48-8.84 9.82-7.9 4.49-12.76-3.25-16.26-15.06-6.81-26.5-16.06-25.12-37.42-10.73 12.19-6.96 22.66-4.78 32.45 1.44 6.47 2.49 11.76-5.07 14.18-7.77 2.49-9.33-4.52-11.14-9.02-2.67-6.62-8.06-9.99-13.52-12.65-12.18-5.93-15.32-12.74-6.17-28.48 3.78-6.5 6.05-13.3 8.75-21.32-4.16.72-8.507.749-10.11 3.95-6.28 12.54-14.66 23.31-15.14 37.99-.2 6.22-4.18 3.9-7.03 2.81-10.32-3.93-15.01-15.61-9.87-27.75 6.73-15.88 21.04-25.95 32.11-38.46 2.86-3.24 5.34-.19 4.15 3.75-1.37 4.51-.6 8.6 3.39 10.76 4.74 2.57 7.51-1.68 10.21-4.66 17.68-19.53 35.17-39.32 49.51-61.42 7.22-11.13 15.95-14.97 28.26-12.43 26.3 5.43 53.31 6.63 79.37 13.47 5.62 1.47 10.72.72 12.15-6.17 2.39-11.57 12.06-17.24 20.16-26.17 6.44 22.61 22.65 34.3 41.5 43.89 10.32 5.25 20.43 3.42 30.64 1.79 25.97-4.13 54.48-31.18 58.36-55.28-8.32 2.38-11.46 9.57-14.91 15.72-13.33 23.79-45.8 28.61-66.02 22.37-6.66-2.06-13.23-5.8-13.74-14.32-.23-3.84-3.83-4.23-5.67-6.39-2.41-2.83-6.24-5.31-4.9-9.36 1.57-4.7 5.69-6.67 10.87-5.88 1.91 1.75-.13 2.41-.99 3.17-2.3 2.02-5.26 4.4-2.22 7.15 1.51 1.37 4.2 2.4 7.92-.59 8.81-7.08 14.82-3.65 15.33 9.16 3.59-5.57-.06-12.69 6.12-16.23 2.36 3.14.39 7.56 4.41 10.84.31-2.08.22-4.01.91-5.61 1.34-3.1 3.04-6.35 7.25-5.73 3.55.52 6.04 2.28 6.73 6.34.67 3.98-.37 6.35-4.24 7.82-5.88 2.24-11.63 4.83-17.98 7.5 7.69 5.53 22.64 1.73 28.36-3.08 10.82-9.11 13.77-17.19 18.75-31.26 3.06-8.67 11.69-5.58 17.5-7.04 8.35-2.09 8.61-3.74 2.96-9.31-12.55-12.36-26.09-23.51-40.3-33.86-5.45-3.97-11.11-5.88-17.77-2.81-10.31 4.76-19.42-.34-28.69-3.88-2.3-.89-3.84-2.69-3.97-5.01-.46-7.71-4.08-14.07-8.23-20.54 5.68 1.67 8.05 6.82 11.6 10.49 10.55 10.94 21.12 10.98 29.94-1.1 3.18-4.35 8.85-6.97 9.37-13.46.24-3 3.27-2.16 5.43-1.62 1.6.4 3.19 2.83 4.79.48 1.34-1.97.72-4.21-.32-6.34-3.21-6.55-11.72-9.26-17.89-5.16-3.38 2.25-6.24 5.33-9.19 8.19-6.38 6.17-12.97 7.36-19.49.51-5.79-6.09-11.66-9.45-20.77-6.77-6.52 1.92-12.82-9.13-8.57-15.95 9.54-15.3 16.39-31.72 23.43-48.19 4.44-10.39 23.91-10.77 30.54-.96 3.5 5.19 6.61 11.13 8.06 17.17 8.68 36.3 35.47 48.23 68.55 51.96 19.01 2.14 38.04 2.89 57.13.74 3.45-.39 8.28-2.4 10.18 1.29 1.8 3.51-2.28 6.8-4.36 9.64-5.96 8.11-12.56 15.74-18.56 23.82-1.87 2.52-4.72 5.52-2.64 9.12 2.53 4.39 6.81 2.37 10.13 1.49 8.76-2.32 11.6-2.76 10.49 9.42-5.23 57.68-39.75 93.23-86.43 120.72-18.75 11.04-37.44 21.78-60.08 21.98-28.62.26-54.03-9.36-77.04-25.7-5.12-3.64-10.08-5.49-16.34-5.67-14.92-.42-29.81-1.51-44.71-2.29-4.52-.24-9.06.03-13.07 2.31-6.18 3.52-12.05 5.14-17.75-2 6.58 12.5-3.98 17.13-9.52 23.96-2.99 3.67-11.08 6.22-6.75 11.79 3.1 3.99 8.85-1.1 12.71-3.63 22.96-15.06 48.29-11.68 72.65-7.26 12.45 2.26 21.21 14.74 31.4 22.9 4.36 3.5 8.12 7.77 12.54 11.19 3.78 2.94 3.82 6.24 2.01 9.87-1.97 3.95-5.09 4.49-9.38 3.26-12.28-3.51-24.22-7.55-32.64-17.85-3.24-3.98-5.06-4.26-9.23-.57-5.16 4.55-12.08 3.05-18.1.87-14.42-5.21-25.45-1.05-33.86 11.34M179.5 778.317c-1.054.337-2.224.459-2.661-.498l-.034-.08c-.623-1.527-.9-3.254-.916-4.971-.015-1.43.06-2.915.397-4.31.31-1.286 1.322-3.91 3.112-3.393.687.198 1.318.556 1.669 1.084 1.29 1.934 1.697 4.503 2.395 6.693.746 2.343-.337 3.87-2.453 4.86-.37.17-.921.426-1.508.615m354.61-377.77c7.409 8.34 32.609 20.39 44.929 27.212 2.3 1.5 13.42 7.059 16.2 9.839-13.4-4.85-43.53-19.45-54.5-27.85-2.93-1.79-5.7-6.42-6.63-9.2m-102.63 151.63c-11.27 4.09-21.1.91-29.54-6.83-6.91-6.35-14.68-10.31-24.11-10.13-6.17.11-9-.81-6.62-8.23 2.34-7.26 4.3-14.73 2.7-22.96-.92-4.77 1.82-10.09 5.79-13.98 2.67-2.61 5.55-5.18 7.53-8.27 8.65-13.47 21.12-16.06 35.97-14.23 42.9 5.29 84.81 14.17 123.09 35.19 20.16 11.07 43.65 24.91 59.13 45.37-5.55 0-13.19.34-17.51.25-32.61-.62-50.49 19.69-62.98 45.79-5.04 10.52-11.18 11.62-21.08 11.13-9.97-.49-13.42-5.22-14.97-14.11-2.04-11.72-9.33-20.83-17.07-29.37-11.15-12.31-24.74-15.27-40.33-9.62m-140.84 109.84c-3.17-3.35-1.62-14.37 2.01-21.01 6.1-11.13 4.72-16.99-6.68-23.29-15.44-8.52-15.81-11.37-3.2-23.92 4.8-4.79 8.85-10.94 4.03-16.77-5.36-6.49-2.64-10.33 1.39-15.12 3.77-4.47 4.34-9.21.93-14.4-3.12-4.75-4.54-10.07-4.38-15.89.26-9.77-4.96-14.65-14.49-14.32-8.32.28-14.69-3.68-19.3-9.53-6.55-8.3-8.26-21.63 9.84-29.66 1.65 6.05 2.71 12.37 7.2 17.17 4.1 4.38 9.28 8 14.82 5.31 7.46-3.63 10.93.67 15.31 4.85 9.09 8.7 17.29 18.83 32.49 15.87 4.57-.88 6.26 3.17 6.13 8.38-.4 15.66 5.21 21.68 20.49 23.06 11.48 1.04 19.02 7.94 25.37 16.6 2.91 3.97 2.34 7.95.3 12.58-6.12 13.91-1.82 20.42 13.71 22.61 3.99.56 9.83-2.22 11.36 4.11 1.43 5.88 1.79 11.98-3.79 16.5-5.09 4.11-6.11 9.29-3.24 15.02 3.95 7.88 1.77 14.38-3.84 20.41-6.64 7.14-4.2 10.95 4.62 12.61 7.37 1.39 14.54 3.58 21.09 7.33 5.31 3.03 10.34 7.07 11.62 13.11 3.49 16.53 11.87 30.24 22.38 43.04 1.76 2.14 2.33 5.44 2.9 8.31.91 4.61 2.65 9 6.62 11.26 17.46 9.95 31.95 24.56 50.93 32.15 7.96 3.18 15.39 7.32 22.28 12.72 7.15 5.61 8.38 10.54 1.39 16.84-11.73-15.03-29.25-15.98-45.06-15.25-20.94.97-38.56-5.78-53.87-17.59-16.19-12.49-30.25-27.81-43.66-43.48-6.26-7.32-13.36-13.21-24.12-10.93-4.28.9-6.94-.92-8.63-5.1-2.07-5.15-4.7-10.08-7.27-15.01-2.66-5.1-6.38-11.52-12.45-8.8-10.16 4.54-15.66-5.87-21.87-9.79-6.06-3.82-12.4-4.62-19.51-5.85-2.46-.42-4.5-1.39-4.42-4.09.27-8.43-3.55-13.82-9.43-20.04m413.8-198.4c-33.39 2.58-65.2.4-91.43-22.92 21.83 9.51 44.76 11.63 68.3 11.45 9.02-.07 16.56 5.27 23.13 11.47m-488.51 404.37c-4.56-2.35-5.14 3.08-6.8 5.48-12.66 18.23-20.16 39.06-28.75 59.26-5.32 12.52-3.06 25.8.54 38.63 1.01 3.59 2.31 7.1 3.6 10.61 8.94 24.36 5.67 32.04-19.56 41.37-23.71 8.77-48.74 13-73.04 19.79-9.67 2.7-11.76-.91-11.72-10.34.32-98.14.2-196.28.19-294.42 0-191.79 0-422.83-.01-614.61 0-22.59-.68-19.68 20.28-19.69 204.33-.1 408.66-.16 612.99-.17 54.27 0 108.54.43 162.8.08 10.27-.06 13.14 3.13 13.12 13.28-.32 153.11-.28 345.47-.29 498.57-.01 12.72.01 25.44.3 38.15.14 5.77-.75 8.29-7.51 5.86-20.36-7.31-30.24-24.66-39.84-41.79-5.17-9.21 5.26-10.88 13.18-15.83-27.33 1.3-27.81.7-22.9-24.78-1.25-1.19-1.86.2-2.41.78-7.05 7.35-12.42 5.83-16.55-2.98-7.68-16.34-18.56-30.58-29.39-44.86-.68-.89-1.59-1.85-1.73-2.86-3.21-23.18-20.01-37.71-34.1-54-4.92-5.67-11.33-11.94 4.62-14.9-16.25-.54-16.63-1.43-12.18-25.03-2.93 3.81-4.24 9.68-7.9 8-4.17-1.9-3.54-8.1-5.08-12.42-4.62 1.6-.43 6.71-4.55 8.77-4.31-9.63-11.96-17.16-15.99-27.28-2.78-6.99-2.93-12.42 2.85-16.85 4.92-3.78 5.36-9.27 2.63-12.55-3.13-3.74-8.12.39-10.46 3.09-5.36 6.21-8.12 3.67-12.84-1.06-25.08-25.12-51.36-48.8-83.57-64.76-19.2-9.52-39.59-10.51-60.06-6.9-21.36 3.75-41.58 11.36-60.91 21.43-19.24 10.02-40.39 8.4-60.51 5.78-45.8-5.95-91.7-6.2-137.68-5.91-12.02.07-36.01 22.02-35.87 33.73.1 8.4 4.02 17.05 9.77 23.13 5.9 6.24 5.5 11.07 2.09 17.89-3.45 6.91-5.59 14.39-7.77 21.92-3.05 10.54-14.61 11.23-23.74 13.12-8.22 1.7-13.66-3.45-15.83-10.98-1.82-6.3-2.3-12.99-3.61-21.03-5.96 5.68-9.05 12.02-11.1 18.42-6.45 20.04-10.57 40.6-9.05 61.8 2.33 32.59-2.37 65.07-1.17 97.65.3 8.33.66 16.71 3.7 24.24 3.14 7.8.9 12.43-4.9 17.29-5.73 4.81-9.83 10.99-11.36 19.02 6.08-7.1 17.29-.32 23.14-11.62 4.91 20.76 20.57 38.27 2.07 57.51 1.89.93 2.65 1.64 3.11 1.48 14.76-5.13 14.75-5.14 22.92 9 1.12 1.94 2.14 3.99 3.58 5.68 8.86 10.39 17.08 20.88 12.99 36.05-.5 1.83 1.07 4.21 1.76 6.61 6.57-6.84 11.57-13.84 6.57-29.84-.883-2.828-1.745-5.705-2.091-8.658-.164-1.396-.215-2.82.062-4.206.266-1.332.328-2.844 1.263-3.918 1.516-1.742 5.279-2.107 7.335-1.292 2.228.882 3.56 3.12 4.74 5.074 7.142 11.82 6.348 25.255 7.912 38.12 2.779 22.88 2.659 24.33-23.221 18.88-5.28-1.12-32-5-38.19-5.03 1.6 6.5 26.86 13.06 31.66 14.49 10.32 3.07 20.68 6.06 31.16 8.5 6.39 1.49 11.54.04 13.65-7.69 5.58-20.45 14.62-39.81 19.38-60.57.87-3.82 1.95-9.04 6.33-9.69 5.47-.82 7.27 4.82 8.73 8.73 4.03 10.79 3.55 22.12 1.92 33.29-1.41 9.61-3.5 19.13-5.56 28.64-1.58 7.34-3.44 13.82 3.31 20.59 4.65 4.67 2.04 12.36-3.12 15.88-12.37 8.44-19.26 21.67-29.69 31.7-2.16 2.07-4.18 4.29-6.43 6.26-2.19 1.93-5.05 1.91-7.44.96-3.91-1.56-.62-4.25-.66-6.51-.2-13.82 8.91-23.31 15.82-33.58 4.49-6.68 2.54-9.64-3.97-10.6-24.32-3.61-47.01-13.59-71.33-17.67-4.41-.74-8.967-.83-13.245-2.234-4.898-1.61-8.171-5.065-9.711-9.972-1.365-4.351-1.117-9.073-3.534-13.093-1.243-2.068-3.284-3.976-5.715-4.455-5.942-1.171-10.047 2.317-12.265 7.534a26.5 26.5 0 0 0-2.11 10.01c.03 3.43.5 6.9 1.91 10.18.71 1.63 1.63 3.24 2.97 4.64 1.43 1.495 3.359 2.543 5.459 2.615 2.475.085 4.936.692 7.423.833 11.692.663 22.629 1.985 33.929 5.252 12.549 3.63 25.159 7.05 37.77 10.44 12.77 3.42 8.79 11.89 6.75 20.4-2.221 9.3-7.641 8.42-14.131 5.53-3.2-1.42-8.73-2.68-9.43-.8-5.14 13.74-22.85 5.98-28.77 17.47-3.01 5.85-1.95 10.85 3.95 14.41 2.21 1.33 4.34 2.79 6.51 4.18-5.77 8.05-.86 18.03-3.99 25.87-4.59 11.52-13.04 21.16-21.44 30.6 2.83-11.92 4.83-23.96 11.82-34.38 2.68-4 4.95-8.35 6.83-12.79 1.37-3.24 3.79-7.69-.62-9.95m686.19-798.38c-276.29-.03-552.57-.06-828.86-.08-19.48-.01-19.76.28-19.89 20.11-.01 1.13.02 2.25.02 3.37.01 178.28.01 390.56.02 568.83.02 223.61.08 466.21-.08 689.81-.01 10.12 3.32 13.9 13.69 13.83 52.02-.33 104.04-.05 156.06-.06 137.35-.04 274.71-.18 412.07-.17 87.57.01 175.15.26 262.72.28 16.72 0 19.11-2.71 19.08-18.46-.14-74.48-.28-167.97-.3-242.45-.05-126.54-.02-253.08-.02-379.62h.58c0-48.65-.01-97.3 0-145.95.04-153.51.09-341.02.12-494.54 0-14.52-.43-14.9-15.21-14.9"/></g></svg>