<svg xmlns="http://www.w3.org/2000/svg" xmlns:xlink="http://www.w3.org/1999/xlink" xmlns:inkscape="http://www.inkscape.org/namespaces/inkscape" version="1.1" width="2048" height="1920" viewBox="0 0 2048 1920">
<defs>
<clipPath id="clip_1">
<path transform="matrix(1,0,0,-1,0,1920)" d="M0 1920H2048V0H0Z"/>
</clipPath>
</defs>
<g inkscape:groupmode="layer" inkscape:label="Layer 1">
<g clip-path="url(#clip_1)">
<path transform="matrix(1,0,0,-1,1632.1589,1783.6487)" d="M0 0H-109.12C-119.918 26.551-119.051 54.593-118.704 82.717-118.567 93.89-119.499 104.455-106.904 110.17-104.39 111.31-102.458 115.396-101.672 118.487-92.993 152.629-83.081 186.553-76.535 221.117-69.649 257.472-69.644 294.747-67.448 331.679-63.128 404.336-59.456 476.94-65.195 549.791-67.733 581.996-71.145 614.595-67.453 646.83-61.306 700.487-64.419 752.698-78.205 805.276-90.308 851.435-104.684 896.238-126.326 938.687-131.647 949.125-134.75 961.067-143.208 969.42-186.106 1011.784-227.784 1055.687-282.399 1083.702-297.782 1091.592-312.116 1101.022-320.356 1117.281-322.577 1121.664-326.197 1125.116-331.142 1124.697-336.938 1124.205-339.39 1127.594-342.015 1131.493-350.217 1143.677-358.499 1155.805-366.648 1168.024-368.933 1171.452-371.956 1174.767-370.561 1179.493-367.274 1190.629-370.822 1200.95-373.896 1211.468-377.645 1224.293-382.704 1237.138-383.797 1250.261-386.902 1287.546-382.214 1324.908-382.949 1362.321-383.284 1379.385-385.062 1396.477-383.979 1413.66-382.499 1437.166-393.194 1460.065-389.244 1483.532-387.533 1493.695-389.715 1503.556-387.935 1513.577-386.91 1519.347-390.658 1524.769-395.816 1528.462-402.328 1533.126-409.279 1536.79-416.896 1539.341-431.482 1544.225-446.739 1547.864-460.343 1554.762-483.421 1566.465-505.204 1580.255-530.47 1587.83-563.743 1597.806-596.213 1606.285-630.648 1592.741-649.009 1585.52-668.713 1583.165-688.492 1583.116-696.925 1583.095-705.047 1582.719-712.908 1578.903-729.47 1570.864-746.693 1566.228-765.496 1568.017-773.352 1568.765-781.523 1560.542-789.416 1569.857-791.8 1572.67-797.519 1570.019-799.262 1566.881-806.564 1553.731-819.965 1549.678-831.939 1543.407-836.069 1541.243-838.761 1537.733-841.795 1534.171-853.91 1519.952-848.531 1503.506-848.206 1487.925-848.019 1478.942-846.997 1468.115-839.909 1462.438-827.985 1452.887-817.698 1440.88-802.356 1435.684-790.188 1431.564-788.736 1426.455-793.753 1414.404-801.98 1394.649-811.366 1375.289-818.159 1355.048-825.095 1334.382-834.609 1312.889-817.825 1291.823-814.992 1288.267-817.136 1283.832-818.688 1279.806-826.989 1258.274-835.197 1236.705-843.324 1215.105-849.421 1198.902-843.266 1187.941-826.307 1184.532-820.174 1183.3-814.047 1182.007-807.876 1181.003-801.491 1179.965-798.405 1178.468-801.721 1170.552-805.594 1161.304-806.433 1150.959-794.839 1145.696-784.292 1140.908-771.779 1138.74-772.456 1122.839-772.51 1121.556-769.84 1119.511-768.076 1118.932-764.705 1117.825-763.088 1116.183-764.007 1112.57-766.572 1102.483-762.136 1094.434-756.208 1087.077-752.537 1082.522-751.302 1077.46-751.135 1071.878-750.013 1034.519-725.857 1012.466-688.488 1011.921-664.379 1011.569-640.88 1014.947-617.965 1020.757-598.228 1025.761-585.831 1018.234-574.968 1003.731-571.696 999.365-568.518 994.921-565.104 990.67-560.58 985.037-561.101 981.021-566.923 975.976-612.628 936.373-654.384 892.78-694.278 847.334-708.494 831.141-717.781 812.888-719.659 790.989-720.627 779.705-721.452 768.104-724.727 757.384-732.004 733.561-730.619 710.272-724.979 686.496-722.779 677.221-718.092 668.181-719.64 658.226-726.82 612.058-729.961 565.473-733.227 518.941-734.193 505.164-735.676 497.811-752.579 498.405-776.723 499.254-800.982 495.932-823.931 506.931-831.174 510.402-839.623 512.282-847.208 509.768-864.287 504.109-878.462 514.954-893.771 517.773-915.172 521.714-932.775 538.628-955.528 541.092-957.597 541.316-959.874 543.697-961.253 545.65-975.954 566.468-995.518 583.812-1005.368 608.109-1007.678 613.806-1012.058 618.154-1017.468 620.442-1035.556 628.091-1053.926 635.179-1073.104 639.496-1082.122 641.526-1092.008 639.525-1096.19 630.796-1102.197 618.26-1111.629 616.731-1123.711 615.979-1144.198 614.704-1153.578 602.334-1147.299 585.279-1143.843 575.894-1145.058 568.666-1149.369 560.281-1156.386 546.629-1161.485 532.489-1151.97 517.435-1148.36 511.722-1150.184 506.43-1154.937 501.59-1161.968 494.431-1162.276 485.999-1158.167 477.12-1156.761 474.081-1154.112 470.693-1154.556 467.866-1158.308 443.971-1141.856 431.786-1125.096 424.662-1094.524 411.668-1063.583 398.695-1030.281 393.243-1013.77 390.54-997.48 386.243-985.52 372.885-982.472 369.481-979.066 367.913-974.39 369.926-962.835 374.899-953.881 370.42-944.711 362.877-930.236 350.967-913.109 342.317-894.553 341.796-846.816 340.458-802.474 321.057-755.337 317.166-747.217 316.496-746.127 311.454-746.785 303.806-747.717 292.957-756.703 286.278-759.004 276.69-765.372 250.151-783.608 228.857-789.439 201.657-794.129 179.777-806.361 159.794-813.412 138.195-816.756 127.954-819.183 116.157-827.972 109.325-838.544 101.108-844.306 90.526-848.752 78.616-851.874 70.251-856.713 62.993-862.076 55.914-868.142 47.906-874.897 39.996-878.915 30.95-884.629 18.084-892.93 8.451-904.474 .849-904.902 .567-905.332 .284-905.762 0H-1223.082V1654.565H0ZM-372.75 253.557C-372.651 243.593-378.957 240.288-386.671 239.882-395.732 239.401-400.165 244.925-399.968 254.235-399.723 266.418-401.009 278.749-399.478 290.746-397.764 304.199-399.038 318.244-397.225 331.722-382.472 336.21-372.897 332.116-372.554 316.457-372.088 295.506-372.946 274.519-372.75 253.557M-528.905 49.865C-529.191 54.694-528.583 59.942-536.033 61.011-542.979 62.008-552 62.578-555.932 67.049-560.995 72.805-553.874 80.872-552.653 88.058-545.763 128.623-536.433 168.867-531.592 209.658-529.248 229.415-527.3 249.219-527.908 268.691H-480.112C-480.1 266.675-480.092 264.659-480.057 262.642-479.778 246.497-479.52 246.501-494.778 251.629-498.988 238.358-492.654 231.082-483.25 224.593-471.008 216.144-456.924 217.585-443.41 215.775-441.505 215.52-439.592 216.36-439.475 217.99-439.056 223.826-438.731 229.724-439.127 235.547-439.508 241.165-444.573 239.671-447.955 240.115-453.838 240.888-453.777 245.035-453.893 249.395-454.605 276.105-453.05 302.699-449.525 329.162-446.51 351.793-455.609 373.409-483.565 372.734-489.761 372.584-492.187 371.815-493.087 365.009-495.296 348.292-495.77 348.338-478.485 346.35-474.76 345.922-471.018 345.656-467.283 345.315-474.583 344.243-475.925 339.339-476.644 333.008-478.366 317.864-479.45 302.694-479.896 287.498H-529.381C-532.252 309.623-539.439 331.144-554.26 351.479-568.943 371.624-586.419 386.049-611.146 388.214-624.286 389.365-629.296 395.093-629.182 406.845-629.093 415.929-633.097 421.767-640.358 426.467-651.253 433.518-661.779 441.146-672.619 448.286-678.24 451.99-681.893 456.678-682.286 463.564-683.604 486.671-685.813 509.939-682.887 532.887-678.776 565.123-675.347 596.604-687.24 628.413-690.307 636.615-699.503 652.669-679.61 657.688-679.015 657.839-678.877 659.942-678.577 661.148-676.245 670.529-662.351 667.684-660.791 678.028-660.756 678.262-658.234 678.653-657.349 678.14-647.718 672.548-649.325 680.709-648.772 685.422-648.236 689.991-648.493 694.661-648.504 699.286-648.514 702.996-649.654 707.556-644.184 708.06-639.75 708.469-639.297 704.367-638.358 701.173-638.002 699.965-637.163 698.762-637.22 697.59-638.879 663.962-627.99 630.353-637.054 596.714-637.815 593.887-638.217 590.963-638.89 588.108-646.763 554.699-634.418 523.242-629.502 491.085-628.702 485.853-625.018 482.213-619.764 480.484-600.894 474.275-582.15 466.932-561.867 468.198-552.78 468.766-543.696 468.485-535.004 467.023-527.677 465.791-521.176 465.259-514.356 468.23-508.577 470.748-502.95 469.541-497.421 466.903-490.64 463.667-483.93 460.142-476.868 457.671-462.569 452.667-456.222 457.697-457.549 472.28-457.816 475.211-457.528 478.242-458.154 481.081-459.398 486.72-455.419 496.989-468.266 493.143-470.147 492.58-472.378 494.719-472.69 496.872-476.162 520.778-474.541 544.811-474.18 568.808-474.17 569.438-472.906 569.957-472.598 570.686-465.983 586.335-452.363 596.045-440.957 607.412-427.777 620.549-411.516 621.885-394.397 615.331-389.701 613.532-386.106 610.797-386.37 605.483-386.884 595.085-381.578 586.925-376.463 578.88-362.477 556.887-362.233 531.535-358.541 507.036-357.942 503.061-359.743 499.077-364.696 499.402-373.493 499.978-374.046 493.937-374.083 487.905-374.137 479.078-372.966 470.212-373.475 461.43-373.959 453.078-368.669 451.672-362.807 450.516-356 449.172-347.017 445.777-343.727 453.785-338.707 465.998-331.571 463.763-322.739 460.416-318.886 458.956-314.114 456.566-310.772 457.678-289.701 464.689-268.391 453.328-247.141 459.533-235.266 463-222.547 463.784-210.472 467.231-203.857 469.12-200.412 473.471-200.375 479.976-200.159 518.638-197.092 558.217-215.217 593.867-230.556 624.036-225.623 657.003-232.754 688.143-233.61 691.883-234.245 697.608-228.842 698.725-222.847 699.964-223.022 693.948-221.95 690.262-219.05 680.296-216.504 670.226-213.817 660.197-210.454 663.972-211.182 667.549-212.668 671.009-214.503 675.283-217.363 680.233-211.617 683.032-205.658 685.935-200.467 680.584-200.133 676.475-198.942 661.84-184.367 661.727-176.938 654.179-171.547 648.701-167.667 643.961-166.812 636.912-165.533 626.381-166.487 615.793-169.613 605.69-172.211 597.297-171.877 589.395-169.803 580.969-160.286 542.299-149.1 504.177-145.94 463.898-144.463 445.078-149.895 435.705-164.044 425.836-180.56 414.318-200.824 406.882-210.92 387.256-212.384 384.411-215.506 384.128-218.561 383.822-251.87 380.494-291.928 347.107-297.635 314.34-299.188 305.419-300.603 296.47-301.846 287.498H-347.187C-346.434 300.954-346.048 314.433-345.996 327.875-345.935 343.621-359.098 357.295-369.982 358.073-378.455 358.679-386.775 354.75-393.154 344.451-393.51 343.877-394.392 344.281-394.169 344.92-392.349 350.132-389.7 355.192-385.839 360.021-405.453 361.414-424.199 345.385-425.29 325.976-426.636 302.079-427.126 278.133-428.056 254.21-428.288 248.217-427.162 242.446-424.946 236.996-419.13 222.717-405.907 214.357-394.091 216.885-384.369 218.969-380.696 227.218-375.798 235.048-373.239 226.725-379.386 221.953-381.933 214.899-363.26 215.726-353.172 227.132-351.249 242.274-350.138 251.045-349.243 259.858-348.504 268.691H-304.167C-306.816 243.885-307.799 218.913-305.973 193.838-303.253 156.469-293.64 120.192-287.657 83.333-286.017 73.234-285.642 64.777-297.397 61.257-304.982 58.985-304.75 53.111-304.134 47.052-302.538 31.365-300.603 15.703-299.252 0H-526.238C-527.454 16.592-527.917 33.249-528.905 49.865M-1259.541-36.718H36.458986V1691.282H-1259.541ZM-1259.541 1691.282" fill="#231f20"/>
</g>
</g>
</svg>
