<svg xmlns="http://www.w3.org/2000/svg" width="2048" height="1920" viewBox="0 0 2048 1920"><defs><clipPath id="clip_1"><path d="M0 0h2048v1920H0Z"/></clipPath></defs><g clip-path="url(#clip_1)"><path fill="#231f20" d="M1632.159 1783.649h-109.12c-10.798-26.551-9.931-54.593-9.584-82.717.137-11.173-.795-21.738 11.8-27.453 2.514-1.14 4.446-5.226 5.232-8.317 8.679-34.142 18.59-68.066 25.137-102.63 6.886-36.355 6.89-73.63 9.087-110.562 4.32-72.657 7.992-145.261 2.253-218.112-2.538-32.205-5.95-64.804-2.258-97.04 6.147-53.656 3.034-105.867-10.752-158.445-12.103-46.16-26.48-90.962-48.121-133.411-5.321-10.438-8.424-22.38-16.882-30.733-42.898-42.364-84.576-86.267-139.191-114.282-15.383-7.89-29.717-17.32-37.957-33.58-2.221-4.382-5.841-7.834-10.786-7.415-5.796.492-8.248-2.897-10.873-6.796-8.202-12.184-16.484-24.312-24.633-36.531-2.285-3.428-5.308-6.743-3.913-11.47 3.287-11.135-.261-21.456-3.335-31.974-3.75-12.825-8.808-25.67-9.901-38.793-3.105-37.285 1.583-74.647.848-112.06-.335-17.064-2.113-34.156-1.03-51.34 1.48-23.505-9.215-46.404-5.265-69.871 1.71-10.163-.471-20.024 1.309-30.045 1.025-5.77-2.723-11.192-7.881-14.885-6.512-4.664-13.463-8.328-21.08-10.88-14.586-4.883-29.843-8.522-43.447-15.42-23.078-11.703-44.861-25.493-70.127-33.068-33.273-9.976-65.743-18.455-100.178-4.911-18.361 7.22-38.065 9.576-57.844 9.625-8.433.02-16.555.397-24.416 4.213-16.562 8.039-33.785 12.675-52.588 10.886-7.856-.748-16.027 7.475-23.92-1.84-2.384-2.813-8.103-.162-9.846 2.976-7.302 13.15-20.703 17.203-32.677 23.474-4.13 2.164-6.822 5.674-9.856 9.236-12.115 14.219-6.736 30.665-6.411 46.246.187 8.983 1.209 19.81 8.297 25.487 11.924 9.55 22.21 21.558 37.553 26.754 12.168 4.12 13.62 9.229 8.603 21.28C830.179 389 820.793 408.36 814 428.6c-6.936 20.666-16.45 42.159.334 63.225 2.833 3.556.689 7.99-.863 12.017a8553 8553 0 0 0-24.636 64.7c-6.097 16.204.058 27.165 17.017 30.574 6.133 1.232 12.26 2.525 18.43 3.529 6.386 1.038 9.472 2.535 6.156 10.45-3.873 9.249-4.712 19.594 6.882 24.857 10.547 4.788 23.06 6.956 22.383 22.857-.054 1.283 2.616 3.328 4.38 3.907 3.37 1.107 4.988 2.749 4.069 6.362-2.565 10.087 1.87 18.136 7.799 25.493 3.67 4.555 4.906 9.617 5.073 15.199 1.122 37.359 25.278 59.412 62.647 59.957 24.109.352 47.608-3.026 70.523-8.836 19.737-5.004 32.134 2.523 42.997 17.026 3.272 4.366 6.45 8.81 9.864 13.06 4.524 5.634 4.003 9.65-1.82 14.695-45.704 39.603-87.46 83.196-127.354 128.642-14.216 16.193-23.503 34.446-25.381 56.345-.968 11.284-1.793 22.885-5.068 33.605-7.277 23.823-5.892 47.112-.252 70.888 2.2 9.275 6.887 18.315 5.339 28.27-7.18 46.168-10.321 92.753-13.587 139.285-.966 13.777-2.45 21.13-19.352 20.536-24.144-.85-48.403 2.473-71.352-8.526-7.243-3.471-15.692-5.351-23.277-2.837-17.08 5.659-31.254-5.186-46.563-8.005-21.401-3.941-39.004-20.855-61.757-23.32-2.07-.223-4.346-2.604-5.725-4.557-14.701-20.818-34.265-38.162-44.115-62.46-2.31-5.696-6.69-10.044-12.1-12.332-18.088-7.65-36.458-14.737-55.636-19.054-9.018-2.03-18.904-.03-23.086 8.7-6.007 12.536-15.44 14.065-27.521 14.817-20.487 1.275-29.867 13.645-23.588 30.7 3.456 9.385 2.24 16.613-2.07 24.998-7.017 13.652-12.116 27.792-2.601 42.846 3.61 5.713 1.786 11.005-2.967 15.845-7.031 7.159-7.34 15.59-3.23 24.47 1.406 3.039 4.055 6.427 3.61 9.254-3.751 23.895 12.7 36.08 29.46 43.204 30.573 12.994 61.514 25.967 94.816 31.419 16.51 2.703 32.8 7 44.76 20.358 3.049 3.404 6.455 4.972 11.13 2.959 11.556-4.973 20.51-.494 29.68 7.049 14.475 11.91 31.602 20.56 50.158 21.08 47.737 1.339 92.079 20.74 139.216 24.63 8.12.67 9.21 5.713 8.552 13.36-.932 10.85-9.918 17.529-12.22 27.117-6.367 26.539-24.603 47.833-30.434 75.033-4.69 21.88-16.922 41.863-23.973 63.462-3.344 10.24-5.771 22.038-14.56 28.87-10.572 8.217-16.334 18.799-20.78 30.709-3.122 8.365-7.961 15.623-13.324 22.702-6.066 8.008-12.821 15.918-16.84 24.964-5.713 12.866-14.014 22.499-25.558 30.1l-1.288.85h-317.32V129.084h1223.082Zm-372.75-253.557c.099 9.964-6.207 13.269-13.921 13.675-9.061.48-13.494-5.043-13.297-14.353.245-12.183-1.041-24.514.49-36.511 1.714-13.453.44-27.498 2.253-40.976 14.753-4.488 24.328-.394 24.67 15.265.467 20.95-.391 41.938-.195 62.9m-156.155 203.692c-.286-4.83.322-10.077-7.128-11.146-6.946-.997-15.967-1.567-19.9-6.038-5.062-5.756 2.059-13.823 3.28-21.01 6.89-40.564 16.22-80.808 21.06-121.6 2.345-19.756 4.293-39.56 3.685-59.032h47.796c.012 2.016.02 4.032.055 6.049.279 16.145.537 16.14-14.721 11.013-4.21 13.27 2.124 20.547 11.528 27.036 12.242 8.449 26.326 7.008 39.84 8.818 1.905.255 3.818-.585 3.935-2.215.419-5.836.744-11.734.348-17.557-.381-5.618-5.446-4.124-8.828-4.568-5.883-.773-5.822-4.92-5.938-9.28-.712-26.71.843-53.304 4.368-79.767 3.015-22.631-6.084-44.247-34.04-43.572-6.196.15-8.622.919-9.522 7.725-2.21 16.717-2.683 16.67 14.602 18.659 3.725.428 7.467.694 11.202 1.035-7.3 1.072-8.642 5.976-9.361 12.307a544 544 0 0 0-3.252 45.51h-49.485c-2.871-22.125-10.058-43.646-24.88-63.981-14.682-20.145-32.158-34.57-56.885-36.735-13.14-1.151-18.15-6.88-18.036-18.631.089-9.084-3.915-14.922-11.176-19.622-10.895-7.051-21.421-14.68-32.261-21.82-5.621-3.703-9.274-8.391-9.667-15.277-1.318-23.107-3.527-46.375-.601-69.323 4.11-32.236 7.54-63.717-4.353-95.526-3.067-8.202-12.263-24.256 7.63-29.275.595-.151.733-2.254 1.033-3.46 2.332-9.381 16.226-6.536 17.786-16.88.035-.234 2.557-.625 3.442-.112 9.63 5.592 8.024-2.57 8.577-7.282.536-4.57.279-9.24.268-13.864-.01-3.71-1.15-8.27 4.32-8.774 4.434-.41 4.887 3.693 5.826 6.887.356 1.208 1.195 2.41 1.138 3.583-1.66 33.628 9.23 67.237.166 100.876-.761 2.827-1.163 5.75-1.836 8.606-7.873 33.409 4.472 64.866 9.388 97.023.8 5.232 4.484 8.872 9.738 10.6 18.87 6.21 37.614 13.553 57.897 12.287 9.087-.568 18.17-.287 26.863 1.175 7.327 1.232 13.828 1.764 20.648-1.207 5.779-2.518 11.406-1.311 16.935 1.327 6.78 3.236 13.49 6.76 20.553 9.232 14.299 5.004 20.646-.026 19.319-14.61-.267-2.93.02-5.961-.605-8.8-1.244-5.64 2.735-15.908-10.112-12.062-1.881.563-4.112-1.576-4.424-3.73-3.472-23.905-1.851-47.938-1.49-71.935.01-.63 1.274-1.15 1.582-1.878 6.615-15.65 20.235-25.36 31.64-36.726 13.18-13.137 29.442-14.473 46.56-7.92 4.697 1.8 8.292 4.535 8.028 9.849-.514 10.398 4.792 18.558 9.907 26.603 13.986 21.993 14.23 47.345 17.922 71.844.599 3.975-1.202 7.959-6.155 7.634-8.797-.576-9.35 5.465-9.387 11.497-.054 8.827 1.117 17.693.608 26.475-.484 8.352 4.806 9.758 10.668 10.914 6.807 1.344 15.79 4.739 19.08-3.27 5.02-12.212 12.156-9.977 20.988-6.63 3.853 1.46 8.625 3.85 11.967 2.738 21.07-7.011 42.38 4.35 63.63-1.855 11.876-3.467 24.595-4.251 36.67-7.698 6.615-1.89 10.06-6.24 10.097-12.745.216-38.662 3.283-78.241-14.842-113.891-15.34-30.17-10.406-63.136-17.537-94.276-.856-3.74-1.491-9.465 3.912-10.582 5.995-1.24 5.82 4.777 6.892 8.463 2.9 9.966 5.446 20.036 8.133 30.065 3.363-3.775 2.635-7.352 1.149-10.812-1.835-4.274-4.695-9.224 1.05-12.023 5.96-2.903 11.15 2.448 11.485 6.557 1.19 14.635 15.766 14.748 23.195 22.296 5.39 5.478 9.27 10.218 10.126 17.267a74.8 74.8 0 0 1-2.801 31.222c-2.598 8.393-2.264 16.295-.19 24.72 9.517 38.67 20.703 76.793 23.863 117.072 1.477 18.82-3.955 28.193-18.104 38.062-16.516 11.518-36.78 18.954-46.876 38.58-1.464 2.845-4.586 3.128-7.641 3.434-33.31 3.328-73.367 36.715-79.074 69.482a783 783 0 0 0-4.211 26.842h-45.341a777 777 0 0 0 1.19-40.377c.062-15.746-13.101-29.42-23.985-30.198-8.473-.606-16.793 3.323-23.172 13.622-.356.574-1.238.17-1.015-.47 1.82-5.211 4.469-10.271 8.33-15.1-19.614-1.393-38.36 14.636-39.451 34.045-1.346 23.897-1.836 47.843-2.766 71.766-.232 5.993.894 11.764 3.11 17.214 5.816 14.279 19.039 22.639 30.855 20.11 9.722-2.083 13.395-10.332 18.293-18.162 2.559 8.323-3.588 13.095-6.135 20.149 18.673-.827 28.76-12.233 30.684-27.375 1.11-8.771 2.006-17.584 2.745-26.417h44.337c-2.65 24.806-3.632 49.778-1.806 74.853 2.72 37.369 12.333 73.646 18.316 110.505 1.64 10.099 2.015 18.556-9.74 22.076-7.585 2.272-7.353 8.146-6.737 14.205 1.596 15.687 3.53 31.349 4.882 47.052H1105.92c-1.216-16.592-1.68-33.25-2.667-49.865m-730.636 86.583h1296v-1728h-1296Zm0-1728"/></g></svg>