<svg xmlns="http://www.w3.org/2000/svg" width="1984.25" height="1984.25" viewBox="0 0 1984.25 1984.25"><defs><clipPath id="clip_1"><path d="M0-.002h1984.252V1984.25H0Z"/></clipPath></defs><g clip-path="url(#clip_1)"><path d="M1449.746 1342.965c-7.084 5.334-31.457 40.384-41.963 30.166-4.49-4.285 2.255-6.942 5.277-9.69 22.16-19.018 20.553-20.516-4.459-35.6-47.47-29.115-94.033-58.072-140.366-88.138-14.078-11.946-34.719-11.547-30.35-34.331 5.867-61.92 1.656-122.55 2.225-184.16.04-5.862-3.383-8.83-8.929-11.716-26.09-13.544-51.153-27.558-76.933-41.382-4.988-2.627-11.803-5.494-7.82-11.457 2.403-4.145 6.314-1.638 9.596.41 26.538 14.173 54.026 27.708 80.564 42.68 10.027 5.594 14.975 14.324 14.726 25.94-.459 21.317-.359 42.992-.269 63.958.03 8.34.07 16.69.07 25.03h-.679c-.009 31.195.38 62.32-.359 93.794-.13 5.534 1.687 7.61 5.537 9.948 63.543 38.656 128.493 76.862 191.13 117.816 3.57 2.237 6.185 3.456 3.002 6.732M913.863 1539.69c9.648-19.877 25.761-26.35 50.933-28.08-13.1 15.614-27.177 25.922-44.158 32.345-4.58 2.467-11.175.959-6.775-4.265m129.821-13.874c8.051-20.716 24.653-29.407 44.047-37.297-6.534 15.043-22.737 28.776-44.047 37.297m63.672 2.787c14.896-10.648 32.186-13.975 50.105-10.07-13.649 11.258-27.936 16.87-44.817 17.62-6.275 1.529-13.179-3.825-5.288-7.55m-99.699 53.109c17.25-.25 34.83 1.827 48.498 16.21-19.974 6.934-35.448 1.759-48.498-16.21m388.612-230.996c-14.167 15.442-31.357 19.228-49.655 19.228-8.56 0-17.36-.83-26.21-1.678-44.966-3.575-91.478-7.281-137.322.67l-.679.119c-1.985 7.86 4.85 5.254 8.351 7.62-16.202 8.032-35.428 8.002-52.779 13.286 55.952 1.358 110.375-4.075 166.466-1.838-131.685 4.765-241.622 15.473-344.424 33.492l.33 1.978c8.66-1.42 17.36-.75 26.767.489l-36.585 9.459.44 1.948c121.798-23.543 243.207-30.585 387.794-33.821-125.75 130.93-259.69 253.819-386.389 382.183-5.018 5.363-7.812 3.645-9.986-2.278-12.7-25.93-26.43-53.15-39.569-81.277-5.787-14.863-28.993-49.313-26.15-63.187 21.341 14.003 49.426 17.379 61.778 42.73.598-35.77-25.6-70.58-73.21-101.803 47.848 5.904 107.171-13.904 143.707 26.539 23.545 24.313 58.504 3.956 88.046 9.91-26.848-23.234-48.398-51.492-91.788-48.406 13.16-6.901 26.49-7.311 40.207-11.386 13.64-3.037 27.457-7.012 42.393-4.754 42.571 6.94 73.96-16.702 109.048-31.865-77.95-46.446-93.464 22.544-158.315 28.588 53.467-21.905 68.024-53.23 91.98-102.293-34.88 21.775-84.965 38.396-104.72 76.443-4.02 7.27-8.17 14.793-14.278 20.796-24.104 24.6-63.173 19.527-93.583 23.913-6.016.479-11.873 1.697-17.3-3.867 63.603-2.606 84.345-53.598 117.22-93.562-35.17 30.585-101.486 23.203-118.966 65.665-5.657 12.695-15.076 21.915-26.519 25.96-12.43 4.545-41.773 3.106-44.687-14.684-.209-4.514 2.036-8.59 6.146-11.186 24.663-15.543 48.03-33.452 71.874-54.827-25.92 2.756-49.964 11.047-75.356 9.948-8.55-.22-17.39-.44-26.1 1.438-4.31.929-6.704-4.705-8.819-9.67-33.433-73.525-71.285-141.546-101.765-216.71 180.383 145.553 260.488 210.079 464.457 51.81 24.713-18.17 53.467-32.642 67.364-62.14 1.318-2.866 2.924-4.544 4.89-5.133 11.313-.19 26.358 14.683 36.964 19.887 24.833 16.41 51.78 31.604 77.102 47.656 15.804 10.108 32.136 20.566 50.394 27.379 4.69 1.498 4.4 4.384 1.436 7.23M853.732 1592.68c22.09 5.603 37.194 20.337 50.014 36.029-19.973-8.091-41.204-13.984-50.014-36.03m-5.557-89.866c-8.4 8.54-16.712 12.805-25.272 18.848-2.095 1.938-3.88 3.527-5.856.929-18.617-26.73 14.796-18.708 31.128-19.777m514.542-73.176c-71.475 68.54-142.55 140.209-213.716 211.188-71.166 70.969-142.432 141.248-214.266 207.034-2.374-.52-4.41-3.097-6.056-7.672-9.997-27.708-23.495-54.388-36.546-80.178-29.97-61.96-60.939-124.478-90.92-185.857 4.83-7.083 11.164.369 13.24 6.243 28.614 60.37 57.607 121.1 87.498 181.462 9.737 20.146 19.804 40.972 32.245 60.29 2.315 3.587 4.31 5.295 6.486 5.524 134.46-123.46 262.244-258.914 393.8-387.066 9.877-9.82 20.083-19.07 29.522-29.427 5.557-6.113 10.366-7.472 16.941-4.705-2.354 10.348-11.184 16.222-18.228 23.164m-581.058 103.49c-36.087-70.09-68.482-139.87-102.913-210.228-68.023-140.33-140.017-283.306-206.024-424.484 3.013-4.445 9.238-5.014 10.465 1.658 11.663 25.2 24.155 50.033 36.067 75.124 90.431 189.244 186.71 374.64 275.345 565.613-6.675-1-9.877-1.73-12.94-7.682M461.3 864.882c-4.14 2.098-5.698.28-7.414-3.646-12.282-23.972-24.214-48.654-35.608-72.566-18.996-44.84-47.22-86.192-63.862-132.76 88.525 55.258 175.604 109.636 262.813 164.084l144.237 90.047c-1.796-19.11-7.742-34.601-20.123-51.212 26.977-2.417 33.492 47.676 34.051 72.867C646.72 851.588 514.984 769.54 387.14 689.932c19.793 59.023 50.064 110.564 74.04 167.099 1.295 3.067 5.047 6.033.118 7.85m258.374-37.965c9.278-2.058 14.337 5.504 21.181 9.758 12.81 10.369 28.913 1.419 26.41 24.642-8.372-9.63-19.945-12.006-30.25-13.464-2.037-.21-3.373-2.367-5.09-3.366-4.3-3.616-15.923-11.747-12.25-17.57m-22.579-25.831c.468-.2.898-.4 1.307-.58 1.866-1.627 5.876.95 7.702 1.349 16.462 5.874 33.473 11.946 49.975 18.449 1.825.72 3.142 2.008 3.821 3.716 2.035 6.243-2.894 11.877-8.62 6.572-17.57-11.846-41.584-9.16-54.185-29.506m-48.758-66.214c-.199-3.007-.259-6.063-.259-9.1 0-2.527.04-5.044.08-7.531.04-2.247.08-4.495.09-6.742l2.414-.27c10.106 35.18 27.806 76.343 70.108 72.247 11.873-.44 22.05 4.555 30.66 9.27 6.375 1.788 9.058 17-.929 13.205-21.08-.39-38.42-11.946-59.013-15.563-20.114-2.596-41.714-33.981-43.15-55.516m-20.822-136.913c-6.735-10.32-13.699-20.996-24.334-28.737-7.842-5.714-12.362-12.037-13.809-19.348-4.18-21.086-8.649-42.532-11.583-64.057-1.356-9.97 2.634-19.338 6.505-28.397 6.216-12.197 7.114-23.663 6.076-36.538-.399-11.258-.818-22.904 2.694-34.191 1.636-5.225 3.182-10.16 1.137-16.272-4.09-12.256.17-21.346 12.302-26.28 8.68-3.546 12.072-9.13 10.985-18.09-1.397-11.556 2.284-22.354 11.263-33.001 21.511-37.947 17.37-66.824 72.613-66.724 31.537.939 4.69-17.84 33.632-31.544 37.165-24.292 65.718-8.121 99.231-21.206 8.251-3.995 17.97-2.427 30.47.68-74.558 33.75-52.699 6.702-109.208 24.122-13.848 4.755-32.515 18.479-22.797 34.58 5.158 7.272 12.421 9.869 21.001 7.512 12.561-3.436 25.062-6.373 39.59-4.625-22.02 22.634-60.93 2.048-88.168 2.797-63.333 3.396-41.983 30.385-68.442 67.733-6.465 8.54-9.079 17.31-7.163 24.042 9.02 25.48-33.992 16.9-23.556 44.589 2.794 14.044-16.472 31.364-4.739 49.823 15.305 22.964-21.17 32.543-8.02 80.478 6.045-2.557 6.564-7.492 5.775-11.077-4.06-29.996 24.893-42.712 21.501-60.711-1.427-5.923-7.842-12.975.03-17.01 8.88-4.765 10.326 8.939 17.73 10.927.747-9.02-8.74-16.281-4.69-25.211 6.554 6.892 3.372 18.449 12.032 24.422 5.168-4.685-.09-8.65-.389-12.975.45-2.497-.739-6.553.848-8.361 2.933-2.347 9.648-.55 11.563 1.778 6.226 19.418-13.13 36.329-2.754 58.264 6.276 19.497 40.876 23.932 26.948 35.119-30.43 24.882-.639 85.762-58.265 28.558 11.912-1.958 19.185 8.32 30.29 9.139-5.039-16.361-35.079-28.138-49.855-19.148-7.124 3.366-10.306 8.71-6.765 17.41 2.285 9.379 4.66 19.079 15.046 22.834 15.534 4.735 10.027 26.74 27.357 37.167 9.278 7.272 14.805 15.723 16.332 26.24 3.551 22.834 14.536 43.69 10.316 67.723l1.956.389c3.791-17.54 17.25-26.03 31.497-35.01 5.777-3.825 11.633-7.221 11.024 2.368-1.716 6.642 11.344 21.156 18.917 14.403 5.307-5.393-3.372-7.641-6.715-10.238-2.674-2.757-5.028-4.934-3.512-8.79 10.436 2.607 15.245 11.307 20.812 19.058 6.326 8.31-20.622 9.989-25.66 12.506 20.093 8.82 35.278-6.543 36.136 2.827 2.145 17.999-36.067 10.687-45.684.669-3.223-2.697-7.653-5.084-12.75-5.304 6.245 8.64 15.533 17.08 20.641 26.14-10.825 10.918-26.768 22.255-41.923 7.58-3.412 22.516 19.026 21.157 34.052 14.175 6.644-1.898 13.25-9.918 19.494-2.746 7.563 8.46 10.047 18.348 6.984 27.828-10.336 29.536-51.44 14.193-59.722-10.42-5.707-12.974-10.266-26.268-15.185-39.424-1.107-2.976-2.853-6.502-2.504-9.358 2.075-17.551-1.566-34.601-5.088-51.092-6.984-37.697-1.836-17.66-21.5-47.995m432.661-285.274c-8.89-5.364.767-8.43 6.973-9.18 2.325-.02 2.485 2.428 2.944 4.655 2.474 14.494 9.907 20.068 23.854 15.932 12.032-3.675 6.874 19.548-3.64 18.849-25.233.659-14.079-18.25-30.13-30.256m-173.47-124.148c5.477-2.906 11.901-5.444 18.077-2.187 16.333 8.59 34.72 8.11 49.496 7.72 28.045-.728 50.105 4.346 69.39 15.983 13.68 9.489 33.882 9.739 49.775 16.59 5.178 4.506 23.266 7.343 19.465 15.013-3.74 9.33-17.899 10.349-29.9 8.2-14.138-2.536-30.21-3.664-45.346-5.573 10.236 9.729 21.45 11.158 32.475 12.626 11.144 1.868 22.378 4.405 33.233 6.862 20.323 6.223 42.731 5.674 62.495 13.375 9.987 5.384 17.8 13.435 25.362 21.226 19.695 19.667-21.44 3.096-13.269 31.034 8.27 33.572-14.008 66.954-49.655 68.292-3.244-8.251 5.107-14.853 9.578-20.836 5.048-6.093 10.325-12.666 15.014-19.348-10.087 3.106-17.569 13.225-28.793 11.836-9.459-1.398-12.162-11.167-19.545-15.991 18.607-3.766 25.492-14.034 22.947-33.921-.299-2.368.02-4.066.968-5.164 3.562-3.557 12.72-1.25 17.75-3.077-3.772-6.303-16.503-13.305-6.176-19.598 3.032.35 5.436 5.544 9.248 4.285 4.66-16.091-17.2-19.337-21.63-5.413-2.863 8.7-10.885 13.364-16.282 20.327-2.375 3.056-6.575 5.933-10.606 3.985-10.276-3.766-1.996-17.05-7.084-21.725-2.624-2.617-7.413-2.298-14.796-.87-13.07 2.538-26.528.59-37.872-5.473-4.26-2.277-7.673-2.877-10.426-1.828-7.393 1.918-7.154 19.208-15.245 21.106-5.637-1.768 1.886-17.33-4.15-21.306-23.047-9.34-47.84 18.21-70.238-21.315-4.15 36.338 28.754 34.36 55.542 25.95 8.91-2.228 12.002.13 10.266 9.14-.708 3.276-4.06 7.27-2.694 10.648 5.208 8 16.103 3.365 22.448-3.836 3.672-3.047 6.595-11.147 10.317-10.638 2.633-.19 5.676 2.118 9.08 6.872 7.083 9.699 21.678 6.223 28.562 16.36-8.09.36-15.823-3.994-23.984 2.668 25.302 2.408 35.687 18.399 40.726 41.533 1.297 5.493 3.203 10.677-1.975 16.49-4.4-22.693-27.377-26.13-45.405-12.954 8.968 6.562 16.621-3.207 25.301.409 6.046.38 11.074 6.273 7.492 11.697-2.015 1.658-6.445-.1-9.088.349-43.16 6.154-75.406-14.633-95.57-53.38 6.745 31.076 32.645 47.697 59.243 63.639-9.088 2.107-16.442 3.795-25.17 5.833 25.34 21.565 36.334-14.653 78.088-7.671 4.52.459 10.087.349 12.941-4.755 5.627-10.408 12.57-5.154 20.083-1.828 7.074 2.937 2.444 8.01 1.497 12.905-2.694 18.899-22.559 14.095-33.314 6.503-8.43-6.772-17.259-7.182-26.239-1.218-14.616 8.609-31.806 15.472-43.439 11.017-36.786-14.144-26.639-60.86-73.9-77.302 0-.01-5.427-2.866-5.767-3.046 33.313 27.608 15.924 56.315-.249 83.085 7.822-5.164 16.482-17.5 25.611-16.871 11.523 2.937 9.937 15.562 28.823 19.868-20.642 7.9-21.859-28.788-36.785-8.551-6.196 8.35-12.61 16.97-25.48 16.65-1.019-.02-2.475.06-3.194 1.09-1.237 2.567 2.525 6.962.04 9.159-2.684 2.348-8.04.29-11.593 1.399-4.09.639-6.664.859-8.14-2.598-1.957-3.735 4.05-5.193 6.344-7.511 7.922-6.303 21.251-19.707 3.632-22.135-24.803-2.726-32.754-21.934-35.728-41.202.62-3.516-5.178-7.621-4.829-10.758 7.304-6.882 17.081.39 18.897 9.849.918 4.045.31 9.209.708 13.584 27.008-33.112-46.942-44.11-29.073-20.526 7.702 9.659 8.6 19.418 1.098 27.918-4.829 5.164-3.282 15.252 4.65 12.535 8.83-3.376 12.46.54 16.661 5.065 9.797 14.034 26.388 4.265 26.08 12.206-2.505 6.842-15.445-3.766-17.59.739-2.374 1.368.17 7.042 1.267 11.876-.818 1.528-4.879 2.148-6.844 2.907-25.232 11.357-57.847-22.514-45.475-47.286 1.935-3.845 5.697-7.461 3.073-12.515-40.118 22.354 3.003 74.914 35.168 78.44 23.526 2.787 26.82 30.544 56.57 12.365-38.112 44.61-112.79-14.863-125.41-55.206-12.083-33.971 11.453-60.651 33.063-81.936-24.294 1.248-42.572 15.092-63.972 23.293-14.736 6.353-6.416 17.17-10.626 26.529-27.027 5.484-47.11 9.22-60.07 34.15-8.54-15.081 23.944-16.54 35.068-51.23.62-1.598 1.896-4.914 3.412-5.214 3.043.459 6.555 6.383 9.18 5.304 2.803-.21 4.39-3.766 6.055-6.153 2.694-4.714 8.96-8.5 9.667-14.214-2.174-18.66-30.828-11.896-34.639-21.575-5.647-12.356 24.274-27.14 26.41-29.067-22.549.579-36.986 23.523-30.76 31.155 10.844 11.287 22.288 6.912 30.27 12.915 2.534 1.858 2.514 5.404.42 7.63-12.762 19.089-12.043 2.048-23.188.95-1.915.569-3.252 2.806-4.2 7.062-6.635 37.497-36.964 54.867-73.39 50.532 30.08-10.338 62.426-23.144 62.326-64.686l-1.986-.15c-5.008 34.33-41.325 57.085-75.286 56.456 8.59-7.013 19.745-7.582 26.5-16.801-10.198-.33-18.828 6.083-28.695 5.254-8.31.2-10.336-4.725-4.579-9.64 22.278-10.657 35.06-32.822 61.428-37.137-8.19-3.545-19.066-8.24-27.098-11.726 3.033 10.767-5.447 25.24-16.003 27.988-3.332.839-3.63.049-4.868-3.266-3.383-8.98-1.607-17.491 5.766-27.6 10.027-13.743 21.241-28.357 34.281-44.698 7.293-9.12 16.373-12.046 28.574-9.21 28.884 8.19 41.404-5.673 62.845-3.865 15.604 2.957 24.444-6.353 33.004-15.362 3.073-3.107 4.54-6.323 3.612-8.68-.09-1.828-4.67-4.455-9.249-4.545-12.87-1.688-26.2-3.426-38.242 4.784-10.755 5.394-23.336 8.26-19.934-7.961 10.546-14.983 38.142-14.213 59.433-14.553 34.201.899 17.47 29.377 58.126 17.23-7.942-1.828-16.133-3.096-23.436-7.421-12.99-6.982-5.288-17.96 7.562-13.664 9.35 9.079 47.222 11.547 20.673 27.588-15.544 8.42-21.33 29.287-17.919 44.279 4.1 21.645 29.103 34.13 49.017 40.055-7.772-16.671-38.75-18.31-41.953-47.227-2.165-24.112 31.228-37.526 32.624-50.342 1.048-4.704-21.779-10.258-30.858-13.824-6.206-3.536-5.188-7.801 1.745-6.672 12.003-.54 22.58-3.327 32.356-8.531m231.915 72.957c-.39.779-.918.809-3.004.159-6.974-1.937-14.846-3.555-22.537-5.353 11.742-8.501 25.89-9.42 25.541 5.194m-96.967-82.566c36.536 11.947 67.075 34.57 97.266 56.116 23.984 17.82 58.305 31.074 71.614 58.793 13.19 47.286 85.483 77.33 71.246 122.02-.868 2.947.01 6.612.898 9.16 8.101 23.383 3.542 46.886-.858 69.61-1.956 17.969-9.597 36.089-27.636 41.982-18.647 6.882-30.66 22.105-48.179 30.565-5.836 2.797-5.019 7.76-3.9 11.257 28.582 97.908-7.713 175.26-41.126 257.925-3.562 7.76-9.149 29.716-19.186 16.27 35.708-86 76.863-182.93 49.416-280.378-1.856-7.99.25-12.206 7.513-15.032 11.174-4.386 20.881-11.208 29.691-20.867 2.604-2.857 5.198-4.954 9.39-5.903 32.014-6.702 32.963-31.224 36.434-57.344 4.74-20.427 4.2-34.711-3.592-55.147 18.538-42.352-52.648-66.764-63.802-110.604-8.929-28.937-49.286-45.497-73.18-63.987-21.62-15.472-45.127-30.025-68.503-43.46-12.32-7.551-25.052-15.342-40.377-17.98-3.99-.668-8.42-3.635-12.49-5.652 11.243-5.834 19.783-.51 29.361 2.656m-57.657 949.754c17.48 5.034 30.53 15.322 41.065 25.31-16.93-3.836-34.1-6.472-41.065-25.31m29.283 108.036c20.592 8.53 21.88 25.1 23.445 42.53-12-12.165-24.533-23.343-23.445-42.53m-46.194-38.985c5.787 19.627 8.461 36.517 3.502 53.428-4.25-17.68-12.012-34.3-3.502-53.428m-76.842-122.9c15.345 19.138 12.791 39.954 11.234 60.48-8.4-17.89-15.564-37.317-11.234-60.48m-72.283-24.732c-33.403-20.177-49.945-51.66-51.92-98.797 37.463 26.59 41.943 32.074 51.92 98.797m349.413-457.027c2.674 0 4.85-2.087 4.85-4.654.138-2.987-3.313-4.056-3.663-6.872l-1.137-5.524c10.297 4.445 10.515 18.998 5.378 26.849-1.427 2.587-4.949 3.206-7.284 1.339-7.462-4.755-9.088-20.597-3.242-28.278l1.326 6.423c.201 4.484-3.72 9.718 3.772 10.717m-62.366 160.726c2.434 5.044-.209 8.9-4.918 7.272-7.084-6.435-7.216-21.192 3.352-23.27 1.24-.242 2.296.94 1.974 2.163-1.307 4.952-1.774 10.896-.408 13.835m24.314-183.55a303 303 0 0 1-6.874 3.117c2.384-13.814 24.813-14.913 37.633-12.306.4.08.31.669-.1.639-10.835-.59-20.543 3.856-30.659 8.55m24.893 19.868c.947 3.206-.32 5.214.388 8.1.26 1.898 1.637 4.076.77 5.954-6.437 4.994-21.232-3.946-27.638-9.93-2.064-2.136-2.035-3.135-1.974-3.385 2.284-10.338 11.682-11.037 19.983-11.647 2.235-.1 4.29-.56 6.445-.33 4.58.32 1.806 5.904 1.866 8.73l-.01.1c-.05.81-.02 1.629.17 2.408m36.146-45.588c-3.322-3.167-5.188-5.054-3.253-8.93 5.18-8.38.27-16.251 7.134-18.16 1.127 10.269-.798 17.82-3.88 27.09m3.74-42.701c6.446-7.791 19.236-11.148 28.464-17.131-4.11 10.958-11.053 17.98-22.806 23.234-2.046 1.678-6.316-3.546-5.658-6.103m76.574-47.256c-3.213 4.175-5.428 3.835-8.22-.81-10.518-10.467-16.793-19.677-20.355-29.855-1.815-8.181-7.382-12.825-15.932-8.6 13.458 8.55 14.565 25.56 25.67 36.278 1.616 1.658 2.015 4.875 4.161 6.163 15.114 9.389 11.753 21.865 8.19 35.08-6.384 35.51-43.12 24.97-65.079 44.979-1.337-12.176 2.235-19.938 13.14-29.067 14.974-12.566 26.55-27.908 45.056-36.488l-.779-1.838c-39.778 16.96-51.26-4.275-53.277-39.605-3.292 10.798-8.17 21.895-17.559 9.849-4.63-6.942-17 .479-19.825-6.263-.219-1.808-.219-3.276 1.417-3.586 21.201-2.947 35.26-20.606 57.198-21.466 15.575-.57 22.728 4.036 25.532 16.402 1.406 4.065 4.938 8.96 6.764 12.905-6.715-21.795-.579-56.136-24.923-67.852-5.557-1.508-9.188-5.674-12.7-9.7-5.338-6.482-11.055-10.747-14.816-9.818-20.303 8.05-5.118 46.127-39.15 41.143 28.554-14.993 12.162-43.56 25.601-59.672 30.988 6.333 59.084 40.444 70.757 63.807 4.31 9.02 4.908 18.979 5.537 29.527-.3 9.528 2.953 19.277 3.592 28.487m-272.63 103.92c3.88 4.506 1.685 10.619 5.008 15.963 3.003 6.193 13.18 3.326 14.306-3.346.968-3.416-.897-5.934-4.419-6.433-6.346.189-9.738-7.571-2.295-7.392 11.115 1.159 17.19 15.762 8.7 23.943-7.293 10.158-24.304 5.793-26.918-4.945-1.397-5.833-5.298-20.846 5.617-17.79m-6.704 27.45c-.898 4.205-7.114.469-10.027.459-10.805-1.618-57.577-13.575-24.613-21.815 10.695-3.066 29.651-11.357 28.733 7.6-.668 6.364 4.001 8.91 5.907 13.756m61.21-67.044c-5.45 3.586-17.78.06-17.91-5.923-1.407-5.763-2.565-8.9-4.989-10-2.634-.947-4.36-.078-7.652 1.49-9.189 4.774-19.106 6.232-28.794 9.219-.998-2.457-1.556-4.135-1.107-4.894-.08-1.22 8.49-2.238 14.257-2.827-11.992-14.753-23.316 1.558-35.708-1.04.908-5.053 10.217-3.904 9.26-11.605-15.994 5.483-33.743 5.893-49.936 8.11-3.342-8.57 17.24-22.114 26.25-23.932 22.268-7.462 51.97 3.855 74.348 15.312 8.471 3.936 13.588 6.323 22.768 8.46 10.944 2.677 14.695 7.272 10.515 17.39l-15.813-13.324c.728 3.915 5.268 10.258 4.51 13.564M652.716 587.09c-12.162-2.707-12.162-2.707-16.232-10.098-5.478-7.841-6.605-19.977-16.452-24.242-3.802-1.878-6.395-3.786-7.942-5.864-3.462-4.674-6.046-8.8-2.664-11.866 3.103-2.807 5.248-1.02 8.51 2.127 15.465 11.717 25.252 28.448 44.248 36.039 5.777 2.197 7.264 9.879 9.35 15.612 5.506 16.172 11.203 32.883 23.385 46.807 2.574 2.946 3.671 5.504 3.352 7.81-.579 4.805-15.494 15.583-20.473 14.085-9.378-4.285-15.095-30.386-14.077-40.364 6.665-.74 8.96 7.152 15.713 7.92-6.065-14.902-17.23-26.14-26.718-37.966m91.45 121.73c6.514-.62 10.156 6.374 9.827 12.566-.479 4.006.808 9.27 6.754 11.667.858-8.54 3.133-16.911-1.667-24.921-3.81-8.181-3.53-16.152 1.916-23.503.65-1.15 1.257-2.518 2.724-2.717 7.293 2.207 8.351 13.554 8.131 16.98-1.127 27.069 11.633 49.763 23.975 71.698l1.766-.93c-17.729-36.117-19.076-76.591-24.574-116.376-4.409 3.436-7.682 5.674-6.914 11.727 1.108 15.003-18.158 5.923-22.238-.57-6.515-7.381-14.736-13.414-26.679-19.567-37.363-20.217-52.448-81.307-39.119-118.125 21.081-47.855 61.06-10.198 77.491 19.977l1.736-.99c-7.134-14.801-6.027-31.203-24.494-40.063-14.955-7.091-20.762-25.331-31.347-37.646l-1.517 1.298c1.018 5.334 4.161 11.277 4.29 16.64-3.083 1.33-8.21-1.397-11.633-1.937-5.906-.59-9.348-5.184-13.459-8.77-7.243-5.274 7.383-8.67 1.317-18.668-5.866 2.027-5.966 14.333-13.239 11.426-15.355-7.481-2.145-47.675 3.891-56.565 9.09-15.752 11.583.63 20.892 2.837 2.344 0 4.77-1.618 7.852-5.304 14.566-20.596 44.098-35.81 66.526-14.553-9.797-18.968-5.278-32.983 13.828-41.333-8.41 33.322 8.241 62.618 32.076 92.964-1.277 5.274-4.889 1.818-7.792-.62-20.243-13.095-66.187-30.455-85.144-3.016-4.828 7.71-4.599 17.939-.419 27.069 14.866-31.294 25.222-38.836 58.096-28.537-23.106-.28-52.179 23.602-30.23 46.077 10.506-8.071 12.761-23.673 25.621-28.747 11.074-4.276 21.34.11 31.277 4.355 17.351 5.433 29.463 18.309 27.816 37.786-10.445-19.977-22.917-31.723-44.866-26.37 3.502 13.176 16.163-.64 29.083 15.173 4.43 3.956 7.323 7.082 4.2 11.337-3.013 4.745-8.51-1.288-12.63-2.167-4.839-1.15-10.506-5.294-14.956-.74-5.418 6.583 9.847 18.05 6.585 27.779-6.635-12.097-11.134-27.26-31.129-21.246 5.797 10.308 18.957 20.177 18.927 32.103.828 5.474-12.072 10.049-11.314 15.513 5.557 7.86 19.156-4.285 18.298 13.175 4.32 20.106-15.305 13.524-11.544 24.222 2.464 5.034 5.927 1.958 8.88 1.118 4.64-1.088 5.846.41 5.776 5.285-.279 10.128-3.96 15.132-11.912 16.22-3.77.53-3.352 1.389-9.877-4.045-12.51-15.951-15.235 12.257-29.662.84-5.946-3.796-12.082-2.977-18.267-2.767-7.373.27-11.544-2.547-14.876-10.08-5.996-13.563 2.065-20.725 11.673-26.448 7.981-4.735 17.29-9.14 16.103-20.387-2.245-17.68-16.97-48.355-40.128-38.077-21.849 7.332-15.454 40.214-16.67 58.184-2.575 22.314 7.192 44.699 30.778 52.51-17.23-15.363-26.26-34.741-22.708-56.366.778-8.17 8.84-49.463 20.732-45.937 2.535 1.179 1.706 2.757.45 4.864-1.388 2.108-1.647 4.425-2.605 6.733-2.514 4.684-2.514 15.93 1.298 18.589 1.975 1.967 8.7.868 15.174-.7-2.963-4.045-8.899-9.56-7.862-14.533 2.245-5.684 7.852-3.776 9.33 1.738 15.274 27.528-22.37 17.839-26.03 45.537-4.152 13.635 8.25 38.147 22.796 34.25 16.263-9.518 38.641 22.835 43.271-5.802 15.793 23.633 26.558 3.825 33.372 16.97.77 2.508 6.406 5.065 3.911 7.452-7.113 6.942-9.897-12.825-23.156-2.677-2.844 1.758-5.338 3.047-8.32 2.437-1.208 16.96 21.06 3.297 25.65 8.86 2.115.749 2.414 17.54-1.447 21.136-1.826 1.528-6.685-.02-10.007-.79 1.816 14.954 15.285 15.343 17.151.86 4.51-13.904 8.5-28.747 3.501-44.04-1.406-4.285.13-7.921 2.106-11.876 1.855-3.686 3.611-8.68.638-14.703-11.553-23.514-5.497-47.875-1.815-71.708 1.346-4.735 8.88-6.413 11.274-11.327 1.725 3.246 3.601 6.782 5.247 9.858 14.996-15.212 17.74-29.146 7.333-48.983-1.656-3.167 1.656-6.633 4.87-5.055 24.593 12.087 49.894 21.875 80.373 5.075-5.157 10.737-22.577 25.24-16.182 36.428 3.113 4.265 6.944.919 10.446.23 20.951-3.736 39.638 6.113 59.881 8.5 11.075 10.258 27.167-10.708 35.31 1.059 1.466 3.846-4.062 4.405-6.915 5.733-21.79 9.869-46.632 1.509-67.285 13.445 6.007 6.243 12.641-.01 19.565 1.788-23.695 6.452-40.456 12.515-58.515 21.076 14.517 2.946 25.96-3.776 38.152-8.221 18.727-5.654 45.256-8.93 68.362.14.65.719.72 2.857-.17 3.436-1.067.689-3.58.06-4.579-.18-37.653-12.376-88.925 12.056-89.433 12.306l-1.646.789c21.36 12.696 36.485 33.352 62.156 39.185-10.426-.24-20.563-3.296-31.338 1.249 39.11 13.495 61 9.349 89.424-21.925-7.233 2.377-20.722 9.499-27.826 7.102 6.396-7.292 20.782-5.664 25.232-13.395-13.129-7.152-3.422-26.11-17.06-32.972-2.266-1.21-3.742-2.108-3.932-4.275 4.53-.3 8.88-.58 13.3-.86l.18-3.176-21.53-3.865c6.304-2.208 12.26-6.273 18.805-6.912 16.263-.56 34.96-3.247 45.765 8.38 5.038 5.204.34 8.63 6.016 10.578 4.27-3.955 6.804-8.121 6.854-12.246-2.743-2.297-6.405-3.316-10.026-4.295-24.384-4.635 3.791-24.163-22.129-33.532-30.12-13.244-59.683-37.097-89.255-29.626-7.462 1.069-22.408 7.83-25.73-1.268l.61-.93-.65.41c-.199-3.216 4.99-8.06 6.964-11.477 1.586-2.487 3.552-5.583 1.147-8.53-4.15-5.214-15.574 2.118-20.412 4.125-7.364 4.715-15.275 6.213-23.586.83-10.326-3.826-5.118-10.628 4.081-8.161 25.62 5.813 41.324-42.801 56.39-26.26 9.318 9.928-2.764 9.319-12.153 9.449 14.626 7.71 28.504 4.015 35.2-3.486 16.99-16.691 33.212 9.519 61.696-13.095 31.208-25.031 41.954 26.989 76.394 1.089 22.14-15.662 40.916 4.694 65.52-20.746 5.776-5.914 44.506-2.558 44.247 8.46-6.146 3.106-15.305 3.146-22.349 4.015-37.732.6-14.716 20.587-63.293 23.993 4.788-9.15 16.072-8.441 21.72-16.621-19.067-.49-31.947 15.282-50.155 17.889 22.688-1.987 28.833 17.41 49.935 15.832 7.861-1.328 1.865 15.882 3.871 20.706 1.786 12.676 11.992 18.07 24.164 14.104 2.514-.83 5.697-2.586 7.174-.33 2.225 2.168-1.996 4.725-3.603 6.723-4.848 7.92-13.817 4.904-17.898 9.829-1.546 1.978-2.025 4.795-1.446 8.63.42 2.856-2.125 4.615-4.43 5.254-2.275.819-3.243-1.748-4.42-3.616-4.38-6.962-11.733-13.465-10.685-22.464 3.771-18.69-15.374-29.876-32.056-14.823-2.235-16.731-13.509-23.783-28.265-6.223-3.542-13.145-14.916-21.516-25.94-4.845l1.526 1.279c8.7-9.29 19.375-8.091 22.38 9.809 9.188-11.457 25.53-21.446 27.715 7.072 6.185-6.233 29.402-20.587 30.72 4.834-1.648 4.165-2.157 7.82.07 12.006 6.334 15.133-17.012 8.09-25.333 8.92 1.396 6.862 5.477 9.29 10.815 8.1 9.478-1.238 30.65 2.278 33.732 6.533 3.931 13.575-6.814 26.34-23.027 19.088-5.787-2.726-12.17-.13-15.394 5.784 12.801 11.716 29.202-.76 41.993 11.267-2.564 4.125-.269 14.603-7.763 10.638-4.01-2.977-8.2-1.748-12.47-2.188-6.446-3.805-19.076-9.3-32.486-4.355-7.213 2.607-9.986.59-9.557-7.062.768-12.725-4.18-24.581-3.91-37.247l-1.987-.14c-1.507 12.496-1.456 24.832-1.546 37.028.06 2.227.48 4.954-1.757 4.984-3.62.48-6.444.21-7.96-.77-8.29-5.653-17.44-2.396-17.82 7.852-.708 23.813 7.763 89.917 23.157 115.068-1.556-8.41-15.834-75.963-16.372-106.358-1.896-12.336 12.701-13.384 19.236-7.801 4.71 5.604-1.717 14.673-.749 21.605 9 38.796 3.272 78.67 21.3 115.918 7.025 22.434-26.478 11.626-38.21 12.595 11.712 5.574 21.251 14.743 36.416 7.422-26.25 33.81-36.347-18.27-67.685-9.01-13.269 3.216-15.833 1.498-15.175-12.066-.139-12.056 7.673-22.185 23.387-26.72-22.029.05-40.028 6.603-43.609 24.233 6.744-1.43 7.551-10.01 15.773-8.411-6.485 8.98-1.357 33.212 7.043 38.386.738.09 1.388-.24 1.816-.908 5.528-8.261 14.636 1.748 21.5-5.165 3.563-5.114 18.738 6.533 20.743 11.228-14.467 7.62-5.467 16.95-10.107 26.409-33.582-2.127-44.258 15.712-73.25 24.253 27.525-.81 46.313 22.004 72.103 28.057 6.116 2.657 29.721-3.685 28.614 5.604-16.282 21.945-31.278-7.581-49.655 7.422 20.243-7.442 36.126 21.305 53.924-6.973 2.056-3.266 5.298-10.078 2.984-13.324-4.809-4.875-15.106-1.988-20.722-2.248-15.874 1.159-30.27-2.936-47.69-13.624 27.128-.63 53.507 10.148 79.407-.01-29.223-3.596-57.129-12.296-87.289-9.38 28.714-19.827 58.306-5.913 88.266.12-7.042-13.837-22.634-18.45-25.368-35.085-.277-1.685.992-3.232 2.695-3.346 29.212-1.958 38.212-16.701 28.93-46.561-6.167-21.706-16.722-48.225-11.026-73.276 6.097-1.68 5.567 8.96 15.993 7.122-3.102-11.497-17.739-11.448-20.522-23.683 16.342 13.764 34.061 29.306 62.465 13.055-6.764-.77-20.642 2.547-25.6.13-1.247-2.797.488-3.736 4.45-3.876 11.004-.93 13.568-10.977 13.458-23.383-1.018-21.106-16.89-16.442-29.552-16.821 4.48-1.25 8.89-2.567 12.461-5.444a3.44 3.44 0 0 1 4.161-.12c46.743 33.552 21.271 127.824 9.2 172.044-24.414 67.322-36.737 175.378-137.354 162.244-6.575-1.21-11.184-3.466-19.126-2.158-1.557 4.834 2.085 7.192 6.136 7.302 20.164 4.565-11.543 19.607-2.155 46.387 15.415-59.043 22.01-27.858 61.378-42.272 1.377 9.539-28.803 52.22-29.482 64.197 17.001-18.71 47.321-74.985 66.038-78.73-7.992 36.188-28.903 65.175-48.678 94.042 30.68-19.698 40.886-54.707 59.972-84.024 7.313 19.708 6.345 38.127 9.937 57.524 11.952 60.45-1.856 120.033-37.972 162.255-3.452.869-8.36-2.258-18.139-8.491-27.217-17.07-55.73-34.72-82.599-51.701-50.892-32.003-103.53-65.105-156.379-95.94-28.783-16.801-37.743-39.375-42.352-68.102-5.777-36.088-12.272-72.686-18.547-108.086l-3.263-18.47c-.838-4.154-3.85-7.97-5.487-11.975l-.798 2.287c-2.564 6.692-1.058 19.028-4.03 19.678-2.146 1.438-7.244-.37-16.493-3.646-2.923-1.03-7.473-2.487-7.652-3.846 10.555-21.885 17.38-25.201-.389-51.93 10.356.409 15.045 17.39 16.083 45.138 11.313-21.266 4.07-40.304-1.497-59.202M573.46 918.53c35.698 4.395 56.63 24.98 71.565 70.529-29.61-18.19-66.207-30.894-71.565-70.53m25.911-62.168c13.11 1.418 29.302 17.33 41.114 24.502-31.128-4.275-61.118-10.608-93.025-11.557 17.42-4.275 34.231-9.79 51.911-12.945m-41.814-7.771c-1.537-.06-3.023.579-4.45 1.199-8.53 4.145-7.782-7.432-3.542-11.727 6.485-11.127 19.226 1.598 28.285 3.306-7.014 3.816-13.349 7.552-20.293 7.222m-55.193 14.483c-7.373-.16-8.61-4.075-10.036-8.6-12.342-30.015-31.867-57.664-40.118-89.338.02-.35.04-.73.06-1.15 28.345 17.052 57.397 34.902 84.964 51.373 2.763 1.189 3.133 2.357 1.397 5.204-5.069 8.46-9.229 17.59-13.25 26.42-3.98 10.498-9.129 16.85-23.017 16.09m53.357 61.12c15.903 49.165 60.92 65.646 98.054 91.866 4.02 3.586 8.81 7.372 15.454 8.48 2.135-16.631-4.36-31.154-10.675-44.888-9.159-23.184-20.712-46.337-40.477-60.73-15.744-12.237-36.146-16.612-54.105-26.021 40.766-3.516 105.656 25.24 119.484 63.807 6.425-4.884 3.891-11.956 5.398-18.45 10.775 33.713 11.194 66.745 21.73 100.517 3.841-14.824 1.975-29.647-.46-42.562-2.913-14.124-2.753-28.098-3.46-42.311-1.478-11.747 12.49-12.167 16.59-5.354 18.597 22.474 7.892 58.013 29.901 79.818 4.6 5.364 3.792 6.073-1.476 10.688-37.484 34.94-97.724 45.108-126.389 87.869-36.924-73.665-76.383-153.424-115.193-238.187 23.645 5.294 39.808 17.839 45.624 35.459m592.243 355.624c-3.393 7.49 5.776 12.195 4.57 17.729-.579 3.916-4.87 6.612-9.409 9.469-39.299 26.75-77.82 53.17-121.32 71.798-110.655 49.244-208.858-45.03-294.64-110.134-37.723-30.515-62.535-43.82-78.479-92.135-6.455-19.558-20.373-28.407-.967-47.065 31.118-36.03 78.818-49.724 117.28-76.024 6.434-4.175 10.036-4.304 13.927 2.977 8.151 14.613 23.296 23.294 31.856 37.967 10.995-31.025 1.287-59.592-5.377-88.42 18.886 25.64 26.428 77.98 35.218 111.204 44.927 130.37-121.05 56.764-181.3 44.189 36.774 33.58 164.61 72.047 201.963 25.19 10.386-15.001.568-41.042-3.512-59.051-9-36.9-18.308-75.015-31.677-114.51 17.71 15.483 28.055 29.527 25.87 49.653-2.454 22.475 3.333 43.96 8.93 64.737 4.72 26.16 19.016 47.336 23.355 74.235 8.212-14.124 9.758-28.028 10.965-41.143 6.735-41.682 7.593-75.793-23.535-109.894 20.512 15.662 32.774 35.339 44.806 56.285 11.204 20.347 30.25 38.596 18.847 63.847-21.79 52.76 11.104 95.052 4.51 145.823 14.027-19.437 25.53-57.664 31.077-95.06 11.255 51.87 36.966 84.912 79.596 104.23-16.89-17.341-17.08-40.334-21.45-61.87-3.52-16.211-9.717-26.738-20.093-34.16-31.827-21.056-41.774-59.342-59.613-91.086 25.062 36.398 72.633 44.659 117.73 33.56-20.474-3.854-37.904-13.303-53.408-29.854-14.047-14.933-31.378-25.272-51.52-30.715-27.548-7.481-45.107-27.01-62.098-45.888-13.069-14.883-25.132-24.771-34.21-45.838 95.41 59.773 192.575 117.197 286.966 177.997-14.007 17.46-39.598 12.346-58.763 14.863-8.93.529-17.86 1.059-26.789 1.538-3.702-.03-7.493 1.728-7.762 6.613 38.501 5.463 106.205 1.168 88.456 58.943m68.641-260.133c-18.048 24.173-23.276 52.63-28.325 80.158-5.187 24.402-7.702 51.58-19.394 74.016-25.652-7.272-47.102-27.77-70.947-39.735-4.838-2.677-5.028-4.465-1.826-8.86 28.804-37.576 43.34-82.476 43.211-133.437-.01-5.924 1.896-8.51 6.365-8.62 23.396 7.54 47.531 13.634 68.522 25.3 4.58 2.468 5.487 7.072 2.394 11.178m-58.804 211.568c.5-1.368.948-2.827 1.417-4.355 2.145-7.631 7.891-23.104 17.84-14.293 7.84 6.572 17.04 11.706 25.878 16.83 7.543 4.375 11.694 6.782 12.153 9.3-3.552 13.004-33.99 42.72-48.808 36.737-10.506-9.918-2.244-30.505-8.48-44.22m71.585-67.672c-.349 14.573 2.184 33.612-4.74 47.166-9.288-3.136-18.347-13.104-30.29-16.64-15.075-5.554-15.842-14.614-12.18-27.44 8.928-31.344 16.671-62.867 24.542-94.061 1.457-7.852 6.844-13.985 10.835-20.876 1.298-3.137 2.405-4.665 5.158-3.506 3.253 1.178 3.383 5.982 3.971 9.518 5.337 34.44 1.965 70.34 2.704 105.839m235.097 170.255h-.01c-60-37.127-117.789-74.784-178.268-111.512-32.994-20.027-21.52-24.551-20.732-56.215-.869-46.257-.04-93.373-2.874-140.32-.798-20.297-10.715-33.162-27.217-41.562-18.377-10.858-37.394-22.085-57.228-30.795-14.386-6.313-21.39-15.622-23.435-31.125-4.64-29.596-18.787-55.516-.29-83.254 33.273-75.564 63.483-151.317 43.5-251.273-1.098-4.764-1.268-9.608 4.818-12.765 6.455-3.356 12.302-7.731 17.96-11.966 16.042-14.144 43.808-17.85 47.58-42.462 6.424-30.465 19.384-59.841 6.544-91.944-2.963-19.788 8.201-26.8-6.206-51.162-17.28-32.662-49.216-46.197-61.757-79.09-7.862-20.146-20.803-34.99-37.843-45.817-60.05-37.906-130.09-107.207-204.378-93.103-11.902 1.957-25.46-.88-41.444-8.68-16.472-8.021-32.485-8.721-48.937-2.148-22.947 9.179-47.59 11.297-71.415 13.345-30.669 3.576-78.02 4.834-95.21 33.62-4.929 11.608-11.953 13.306-22.928 14.724-56.749 8.38-49.585 39.995-73.829 77.332-16.782 20.107-4.969 38.346-16.103 43.07-16.352 8.39-19.166 20.177-18.627 38.986.618 23.483-6.804 46.097-5.767 69.7-21.03 39.235-2.285 62.619-.419 101.414.57 12.816 5.358 23.613 13.15 29.636 13.938 10.808 20.293 26.74 32.605 38.776 11.712 11.177 15.504 24.342 18.327 40.024 3.173 16.022 6.446 32.583 1.647 48.045-8.072 26.06-4 51.102 12.83 78.83 8.9 14.623 24.184 21.355 35.498 33.292 15.434 16.5 24.234 37.027 41.484 52.2 2.564 2.247 5.258 5.054 5.477 10.009C591.198 787.67 459.073 700.93 317.66 618.474c159.162 334.707 325.867 666.548 487.345 1000.775 39.688 80.997 80.843 160.266 117.818 243.29 5.078 11.668 11.323 12.517 19.824 3.847 150.522-152.365 305.205-304.312 456.576-454.69 22-21.645 44.506-44.3 66.925-66.213 4.88-3.886 4.99-7.942-1.666-11.648"/></g></svg>