<svg xmlns="http://www.w3.org/2000/svg" xmlns:xlink="http://www.w3.org/1999/xlink" xmlns:inkscape="http://www.inkscape.org/namespaces/inkscape" version="1.1" width="1984.25" height="1984.25" viewBox="0 0 1984.25 1984.25">
<defs>
<clipPath id="clip_1">
<path transform="matrix(1,0,0,-1,0,1984.25)" d="M0 1984.252H1984.252V0H0Z"/>
</clipPath>
</defs>
<g inkscape:groupmode="layer" inkscape:label="Layer 1">
<g clip-path="url(#clip_1)">
<path transform="matrix(1,0,0,-1,1449.7461,1342.9649)" d="M0 0C-7.084-5.334-31.457-40.384-41.963-30.166-46.453-25.881-39.708-23.224-36.686-20.477-14.526-1.458-16.133 .04-41.145 15.123-88.615 44.239-135.178 73.196-181.511 103.262-195.589 115.208-216.23 114.809-211.861 137.593-205.994 199.512-210.205 260.143-209.636 321.752-209.596 327.615-213.019 330.582-218.565 333.469-244.655 347.013-269.718 361.027-295.498 374.851-300.486 377.478-307.301 380.345-303.319 386.308-300.915 390.453-297.004 387.946-293.722 385.898-267.184 371.725-239.696 358.19-213.158 343.217-203.131 337.624-198.183 328.894-198.432 317.277-198.891 295.961-198.791 274.286-198.701 253.32-198.671 244.979-198.632 236.629-198.632 228.289H-199.31C-199.319 197.095-198.931 165.97-199.669 134.496-199.799 128.962-197.982 126.885-194.132 124.548-130.589 85.892-65.639 47.686-3.003 6.732 .568 4.495 3.183 3.276 0 0M-535.883-196.725C-526.235-176.848-510.122-170.375-484.95-168.646-498.05-184.259-512.127-194.567-529.108-200.99-533.688-203.457-540.283-201.949-535.883-196.725M-406.062-182.851C-398.011-162.135-381.409-153.444-362.015-145.554-368.549-160.597-384.752-174.33-406.062-182.851M-342.39-185.638C-327.494-174.99-310.204-171.663-292.285-175.569-305.934-186.826-320.221-192.439-337.102-193.188-343.377-194.717-350.281-189.363-342.39-185.638M-442.089-238.747C-424.839-238.497-407.26-240.574-393.591-254.958-413.565-261.891-429.039-256.716-442.089-238.747M-53.477-7.751C-67.644-23.193-84.834-26.979-103.132-26.979-111.692-26.979-120.492-26.15-129.342-25.301-174.308-21.726-220.82-18.02-266.664-25.971L-267.343-26.09C-269.328-33.951-262.494-31.344-258.992-33.711-275.194-41.742-294.42-41.712-311.771-46.996-255.819-48.354-201.396-42.921-145.305-45.158-276.99-49.923-386.927-60.631-489.729-78.65L-489.4-80.628C-480.74-79.209-472.04-79.879-462.632-81.117L-499.217-90.576-498.778-92.524C-376.979-68.981-255.57-61.939-110.983-58.703-236.733-189.633-370.674-312.522-497.372-440.886-502.39-446.249-505.184-444.531-507.358-438.608-520.059-412.678-533.788-385.459-546.927-357.331-552.714-342.468-575.92-308.018-573.077-294.144-551.736-308.147-523.651-311.523-511.299-336.874-510.701-301.105-536.9-266.295-584.51-235.071-536.661-240.975-477.338-221.167-440.802-261.61-417.257-285.923-382.298-265.566-352.756-271.52-379.604-248.286-401.154-220.028-444.544-223.114-431.384-216.213-418.055-215.803-404.337-211.728-390.698-208.691-376.88-204.716-361.944-206.974-319.373-213.915-287.985-190.272-252.896-175.109-330.847-128.663-346.36-197.653-411.211-203.697-357.744-181.792-343.187-150.468-319.232-101.404-354.112-123.179-404.196-139.8-423.951-177.847-427.972-185.118-432.122-192.64-438.229-198.643-462.333-223.244-501.402-218.17-531.812-222.556-537.828-223.035-543.685-224.253-549.112-218.689-485.509-216.083-464.767-165.091-431.893-125.127-467.062-155.712-533.378-148.33-550.858-190.792-556.515-203.487-565.934-212.707-577.377-216.752-589.808-221.297-619.15-219.858-622.064-202.068-622.273-197.554-620.028-193.478-615.918-190.882-591.255-175.339-567.889-157.43-544.044-136.055-569.964-138.811-594.008-147.102-619.4-146.003-627.95-145.783-636.79-145.563-645.5-147.441-649.81-148.37-652.204-142.736-654.319-137.772-687.752-64.246-725.604 3.775-756.084 78.939-575.701-66.614-495.596-131.14-291.627 27.129-266.914 45.298-238.16 59.771-224.263 89.268-222.945 92.135-221.339 93.813-219.373 94.402-208.06 94.592-193.015 79.719-182.409 74.515-157.576 58.104-130.629 42.911-105.307 26.859-89.503 16.751-73.171 6.293-54.913-.52-50.224-2.018-50.514-4.904-53.477-7.751M-596.014-249.714C-573.925-255.317-558.82-270.051-546-285.743-565.973-277.652-587.204-271.759-596.014-249.714M-601.571-159.847C-609.972-168.388-618.283-172.652-626.843-178.695-628.938-180.633-630.724-182.222-632.699-179.624-651.316-152.895-617.903-160.916-601.571-159.847M-87.029-86.671C-158.504-155.212-229.58-226.88-300.745-297.859-371.911-368.828-443.177-439.107-515.011-504.893-517.385-504.373-519.421-501.796-521.067-497.221-531.064-469.513-544.562-442.833-557.613-417.043-587.583-355.084-618.552-292.565-648.533-231.186-643.704-224.103-637.369-231.555-635.293-237.429-606.679-297.799-577.686-358.529-547.795-418.891-538.058-439.037-527.991-459.863-515.55-479.182-513.235-482.768-511.24-484.476-509.064-484.705-374.605-361.246-246.82-225.791-115.264-97.639-105.387-87.819-95.181-78.57-85.742-68.212-80.185-62.099-75.376-60.74-68.801-63.507-71.155-73.855-79.985-79.729-87.029-86.671M-668.087-190.162C-704.174-120.072-736.569-50.292-771 20.067-839.023 160.396-911.017 303.373-977.024 444.551-974.011 448.996-967.786 449.565-966.559 442.893-954.896 417.692-942.404 392.86-930.492 367.769-840.061 178.525-743.783-6.872-655.147-197.844-661.822-196.845-665.024-196.115-668.087-190.162M-988.448 478.083C-992.588 475.985-994.145 477.803-995.861 481.729-1008.143 505.701-1020.075 530.383-1031.469 554.295-1050.465 599.134-1078.689 640.487-1095.331 687.054-1006.806 631.797-919.727 577.419-832.518 522.971L-688.281 432.924C-690.077 452.033-696.023 467.525-708.404 484.136-681.427 486.553-674.912 436.46-674.353 411.269-803.026 491.377-934.762 573.424-1062.606 653.033-1042.813 594.01-1012.542 542.469-988.567 485.934-987.271 482.867-983.519 479.901-988.448 478.083M-730.074 516.049C-720.796 518.107-715.737 510.545-708.893 506.291-696.083 495.922-679.98 504.872-682.484 481.649-690.855 491.278-702.428 493.655-712.734 495.113-714.77 495.323-716.106 497.48-717.823 498.479-722.123 502.095-733.746 510.226-730.074 516.049M-752.652 541.88C-752.184 542.08-751.754 542.279-751.345 542.459-749.479 544.087-745.469 541.51-743.643 541.111-727.181 535.237-710.17 529.165-693.668 522.662-691.843 521.942-690.526 520.654-689.847 518.946-687.812 512.703-692.741 507.069-698.467 512.374-716.037 524.22-740.051 521.533-752.652 541.88M-801.41 608.094C-801.609 611.101-801.669 614.157-801.669 617.193-801.669 619.721-801.629 622.238-801.589 624.725-801.549 626.972-801.509 629.22-801.5 631.467-800.701 631.557-799.893 631.647-799.085 631.737-788.979 596.557-771.279 555.394-728.977 559.49-717.104 559.929-706.928 554.935-698.318 550.22-691.942 548.432-689.259 533.22-699.246 537.015-720.327 537.405-737.667 548.961-758.259 552.578-778.373 555.174-799.973 586.559-801.41 608.094M-822.231 745.007C-828.966 755.326-835.93 766.003-846.565 773.744-854.407 779.458-858.927 785.781-860.374 793.092-864.554 814.178-869.023 835.624-871.957 857.149-873.313 867.118-869.323 876.487-865.452 885.546-859.236 897.743-858.338 909.209-859.376 922.084-859.775 933.342-860.194 944.988-856.682 956.275-855.046 961.5-853.5 966.434-855.545 972.547-859.635 984.803-855.375 993.893-843.243 998.827-834.563 1002.373-831.171 1007.956-832.258 1016.916-833.655 1028.473-829.974 1039.271-820.995 1049.918-799.484 1087.865-803.625 1116.742-748.382 1116.642-716.845 1115.703-743.693 1134.481-714.75 1148.186-677.585 1172.478-649.032 1156.307-615.519 1169.392-607.268 1173.387-597.55 1171.819-585.049 1168.712-659.607 1134.961-637.748 1162.01-694.257 1144.59-708.105 1139.835-726.772 1126.111-717.054 1110.009-711.896 1102.738-704.633 1100.141-696.053 1102.498-683.492 1105.934-670.991 1108.871-656.464 1107.123-678.483 1084.489-717.394 1105.075-744.631 1104.326-807.964 1100.93-786.614 1073.941-813.073 1036.593-819.538 1028.053-822.152 1019.283-820.236 1012.551-811.217 987.07-854.228 995.65-843.792 967.962-840.998 953.918-860.264 936.598-848.531 918.139-833.226 895.175-869.702 885.596-856.552 837.661-850.506 840.218-849.987 845.153-850.776 848.738-854.836 878.734-825.883 891.45-829.275 909.449-830.702 915.372-837.117 922.424-829.246 926.459-820.366 931.224-818.919 917.52-811.516 915.532-810.768 924.552-820.256 931.813-816.206 940.743-809.651 933.851-812.833 922.294-804.173 916.321-799.005 921.006-804.263 924.971-804.562 929.296-804.113 931.793-805.301 935.849-803.714 937.657-800.781 940.004-794.066 938.206-792.151 935.879-785.925 916.461-805.281 899.55-794.905 877.615-788.629 858.118-754.029 853.683-767.957 842.496-798.387 817.614-768.596 756.734-826.222 813.938-814.31 815.896-807.037 805.618-795.932 804.799-800.971 821.16-831.011 832.937-845.787 823.947-852.911 820.581-856.093 815.237-852.552 806.537-850.267 797.158-847.893 787.458-837.506 783.703-821.972 778.968-827.479 756.963-810.149 746.536-800.871 739.264-795.344 730.813-793.817 720.295-790.266 697.462-779.281 676.605-783.501 652.573L-781.545 652.184C-777.754 669.724-764.295 678.214-750.048 687.193-744.271 691.019-738.415 694.415-739.024 684.826-740.74 678.184-727.68 663.67-720.107 670.423-714.8 675.816-723.479 678.064-726.822 680.661-729.496 683.418-731.85 685.595-730.334 689.451-719.898 686.844-715.089 678.144-709.522 670.393-703.196 662.082-730.144 660.404-735.183 657.887-715.089 649.067-699.904 664.43-699.046 655.06-696.901 637.061-735.113 644.373-744.73 654.391-747.953 657.088-752.383 659.475-757.481 659.695-751.235 651.055-741.947 642.614-736.839 633.555-747.664 622.637-763.607 611.3-778.762 625.974-782.174 603.459-759.736 604.818-744.71 611.8-738.066 613.698-731.461 621.718-725.216 614.546-717.653 606.086-715.169 596.198-718.232 586.718-728.568 557.182-769.673 572.525-777.954 597.137-783.661 610.112-788.22 623.406-793.139 636.562-794.246 639.538-795.992 643.064-795.643 645.92-793.568 663.471-797.209 680.521-800.731 697.012-807.715 734.709-802.567 714.672-822.231 745.007M-389.57 1030.281C-398.46 1035.645-388.803 1038.711-382.597 1039.46-380.272 1039.48-380.112 1037.033-379.653 1034.806-377.179 1020.312-369.746 1014.738-355.799 1018.874-343.767 1022.549-348.925 999.326-359.44 1000.025-384.672 999.366-373.518 1018.274-389.57 1030.281M-563.04 1154.429C-557.562 1157.335-551.138 1159.873-544.962 1156.616-528.629 1148.026-510.242 1148.505-495.466 1148.895-467.421 1149.624-445.361 1144.55-426.076 1132.913-412.397 1123.424-392.194 1123.174-376.301 1116.322-371.123 1111.817-353.035 1108.98-356.836 1101.31-360.577 1091.98-374.735 1090.961-386.737 1093.109-400.874 1095.646-416.947 1096.774-432.082 1098.683-421.846 1088.954-410.632 1087.525-399.607 1086.057-388.463 1084.189-377.229 1081.652-366.374 1079.195-346.051 1072.972-323.643 1073.521-303.879 1065.82-293.892 1060.436-286.079 1052.385-278.517 1044.594-258.822 1024.927-299.957 1041.498-291.786 1013.56-283.516 979.988-305.794 946.606-341.441 945.268-344.685 953.519-336.334 960.121-331.863 966.104-326.815 972.197-321.538 978.77-316.849 985.452-326.936 982.346-334.418 972.227-345.642 973.616-355.101 975.014-357.804 984.783-365.187 989.607-346.58 993.373-339.695 1003.641-342.24 1023.528-342.539 1025.896-342.22 1027.594-341.272 1028.692-337.71 1032.249-328.552 1029.941-323.523 1031.769-327.294 1038.072-340.025 1045.074-329.698 1051.367-326.666 1051.017-324.262 1045.823-320.45 1047.082-315.791 1063.173-337.65 1066.419-342.08 1052.495-344.943 1043.795-352.965 1039.131-358.362 1032.168-360.737 1029.112-364.937 1026.235-368.968 1028.183-379.244 1031.949-370.964 1045.233-376.052 1049.908-378.676 1052.525-383.465 1052.206-390.848 1050.777-403.918 1048.24-417.376 1050.188-428.72 1056.251-432.98 1058.528-436.393 1059.128-439.146 1058.079-446.539 1056.161-446.3 1038.871-454.391 1036.973-460.028 1038.741-452.505 1054.303-458.542 1058.279-481.588 1067.618-506.381 1040.069-528.779 1079.594-532.93 1043.256-500.025 1045.233-473.237 1053.644-464.328 1055.872-461.235 1053.514-462.971 1044.504-463.679 1041.228-467.032 1037.233-465.665 1033.856-460.457 1025.856-449.562 1030.491-443.217 1037.692-439.545 1040.739-436.622 1048.839-432.9 1048.33-430.267 1048.52-427.224 1046.212-423.821 1041.458-416.737 1031.759-402.142 1035.235-395.258 1025.097-403.349 1024.737-411.081 1029.092-419.242 1022.43-393.94 1020.022-383.555 1004.031-378.516 980.897-377.219 975.404-375.313 970.22-380.491 964.406-384.892 987.1-407.868 990.536-425.896 977.361-416.928 970.799-409.275 980.568-400.595 976.952-394.549 976.572-389.521 970.679-393.103 965.255-395.118 963.597-399.548 965.355-402.191 964.906-445.352 958.752-477.597 979.539-497.761 1018.285-491.016 987.21-465.116 970.589-438.518 954.647-447.606 952.54-454.96 950.852-463.689 948.814-438.348 927.249-427.354 963.467-385.6 956.485-381.08 956.026-375.513 956.136-372.659 961.24-367.032 971.648-360.089 966.394-352.576 963.068-345.502 960.131-350.132 955.057-351.079 950.163-353.773 931.264-373.638 936.068-384.393 943.66-392.823 950.432-401.652 950.842-410.632 944.878-425.248 936.269-442.438 929.406-454.071 933.861-490.857 948.005-480.71 994.721-527.971 1011.163-527.971 1011.173-533.398 1014.029-533.738 1014.209-500.425 986.601-517.814 957.894-533.987 931.124-526.165 936.288-517.505 948.624-508.376 947.995-496.853 945.058-498.439 932.433-479.553 928.127-500.195 920.227-501.412 956.915-516.338 936.678-522.534 928.328-528.949 919.708-541.819 920.027-542.837 920.047-544.293 919.967-545.012 918.938-546.249 916.371-542.487 911.976-544.972 909.779-547.656 907.431-553.013 909.489-556.565 908.38-560.656 907.741-563.229 907.521-564.706 910.978-566.662 914.713-560.656 916.171-558.361 918.489-550.439 924.792-537.11 938.196-554.729 940.624-579.532 943.35-587.483 962.558-590.457 981.826-589.838 985.342-595.635 989.447-595.286 992.584-587.982 999.466-578.205 992.194-576.389 982.735-575.471 978.69-576.08 973.526-575.681 969.151-548.673 1002.263-622.623 1013.26-604.754 989.677-597.052 980.018-596.154 970.259-603.656 961.759-608.485 956.595-606.938 946.507-599.007 949.224-590.177 952.6-586.546 948.684-582.345 944.159-572.548 930.125-555.957 939.894-556.266 931.953-558.77 925.111-571.71 935.719-573.855 931.214-576.229 929.846-573.686 924.172-572.588 919.338-573.406 917.81-577.467 917.19-579.432 916.431-604.664 905.074-637.279 938.945-624.907 963.717-622.972 967.562-619.21 971.178-621.834 976.232-661.952 953.878-618.831 901.318-586.666 897.792-563.14 895.005-559.847 867.248-530.096 885.427-568.208 840.817-642.886 900.29-655.506 940.633-667.589 974.604-644.053 1001.284-622.443 1022.569-646.737 1021.321-665.015 1007.477-686.415 999.276-701.151 992.923-692.831 982.106-697.041 972.747-724.068 967.263-744.152 963.527-757.112 938.596-765.652 953.678-733.167 955.137-722.043 989.827-721.424 991.425-720.147 994.741-718.631 995.041-715.588 994.582-712.076 988.658-709.452 989.737-706.648 989.947-705.062 993.503-703.396 995.89-700.702 1000.604-694.437 1004.39-693.729 1010.104-695.903 1028.763-724.557 1022-728.368 1031.679-734.015 1044.035-704.094 1058.818-701.959 1060.746-724.507 1060.167-738.944 1037.223-732.718 1029.591-721.874 1018.304-710.43 1022.679-702.448 1016.676-699.914 1014.818-699.934 1011.272-702.029 1009.045-714.79 989.957-714.071 1006.998-725.216 1008.096-727.131 1007.527-728.468 1005.29-729.416 1001.034-736.051 963.537-766.38 946.167-802.807 950.502-772.726 960.84-740.38 973.646-740.48 1015.188L-742.466 1015.338C-747.474 981.007-783.791 958.253-817.752 958.882-809.162 965.895-798.007 966.464-791.253 975.683-801.45 976.013-810.08 969.6-819.947 970.429-828.258 970.229-830.283 975.154-824.526 980.068-802.248 990.726-789.467 1012.891-763.098 1017.206-771.289 1020.751-782.164 1025.446-790.196 1028.932-787.163 1018.165-795.643 1003.691-806.199 1000.944-809.531 1000.105-809.83 1000.895-811.067 1004.21-814.45 1013.19-812.674 1021.701-805.301 1031.809-795.274 1045.553-784.06 1060.167-771.02 1076.508-763.727 1085.627-754.647 1088.554-742.446 1085.717-713.562 1077.527-701.042 1091.391-679.601 1089.583-663.997 1086.626-655.157 1095.936-646.597 1104.945-643.524 1108.052-642.058 1111.268-642.985 1113.625-643.075 1115.453-647.655 1118.08-652.234 1118.17-665.104 1119.858-678.434 1121.596-690.476 1113.386-701.231 1107.992-713.812 1105.125-710.41 1121.347-699.864 1136.33-672.268 1135.56-650.977 1135.9-616.776 1135.001-633.507 1106.523-592.851 1118.669-600.793 1120.498-608.984 1121.766-616.287 1126.091-629.277 1133.073-621.575 1144.05-608.725 1139.755-599.376 1130.676-561.503 1128.208-588.052 1112.167-603.596 1103.747-609.383 1082.88-605.971 1067.888-601.871 1046.243-576.868 1033.757-556.954 1027.833-564.726 1044.504-595.705 1046.143-598.907 1075.06-601.072 1099.172-567.679 1112.586-566.283 1125.402-565.235 1130.106-588.062 1135.66-597.141 1139.226-603.347 1142.762-602.329 1147.027-595.396 1145.898-583.393 1146.438-572.817 1149.225-563.04 1154.429M-331.125 1081.472C-331.515 1080.693-332.043 1080.663-334.129 1081.313-341.103 1083.25-348.975 1084.868-356.666 1086.666-344.924 1095.167-330.776 1096.085-331.125 1081.472M-428.092 1164.038C-391.556 1152.091-361.017 1129.467-330.826 1107.922-306.842 1090.102-272.521 1076.848-259.212 1049.129-246.022 1001.843-173.729 971.798-187.966 927.109-188.834 924.162-187.956 920.497-187.068 917.949-178.967 894.566-183.526 871.063-187.926 848.339-189.882 830.37-197.523 812.25-215.562 806.357-234.209 799.475-246.222 784.252-263.741 775.792-269.577 772.995-268.76 768.031-267.642 764.535-239.059 666.627-275.354 589.275-308.767 506.61-312.329 498.849-317.916 476.894-327.953 490.339-292.245 576.34-251.09 673.27-278.537 770.718-280.393 778.708-278.287 782.924-271.024 785.75-259.85 790.136-250.143 796.958-241.333 806.617-238.729 809.474-236.135 811.571-231.944 812.52-199.929 819.222-198.98 843.744-195.509 869.864-190.77 890.291-191.309 904.575-199.101 925.011-180.563 967.363-251.749 991.775-262.903 1035.615-271.832 1064.552-312.189 1081.112-336.084 1099.602-357.704 1115.074-381.21 1129.627-404.586 1143.062-416.907 1150.613-429.638 1158.404-444.963 1161.041-448.953 1161.71-453.383 1164.677-457.454 1166.694-446.21 1172.528-437.67 1167.204-428.092 1164.038M-485.749 214.284C-468.269 209.25-455.219 198.962-444.684 188.974-461.614 192.81-478.785 195.446-485.749 214.284M-456.466 106.248C-435.874 97.718-434.587 81.147-433.021 63.717-445.022 75.883-457.554 87.061-456.466 106.248M-502.66 145.233C-496.873 125.606-494.199 108.716-499.158 91.805-503.408 109.484-511.17 126.105-502.66 145.233M-579.502 268.133C-564.157 248.995-566.711 228.179-568.268 207.652-576.668 225.542-583.832 244.97-579.502 268.133M-651.785 292.865C-685.188 313.042-701.73 344.525-703.705 391.662-666.242 365.072-661.762 359.588-651.785 292.865M-302.372 749.892C-299.698 749.892-297.523 751.979-297.523 754.546-297.384 757.533-300.835 758.602-301.185 761.418L-302.322 766.942C-292.025 762.497-291.807 747.944-296.944 740.093-298.371 737.506-301.893 736.887-304.228 738.754-311.69 743.509-313.316 759.351-307.47 767.032L-306.144 760.609C-305.943 756.125-309.864 750.891-302.372 749.892M-364.738 589.166C-362.304 584.122-364.947 580.266-369.656 581.894-376.74 588.329-376.872 603.086-366.304 605.163-365.064 605.406-364.008 604.223-364.33 603.001-365.637 598.049-366.104 592.105-364.738 589.166M-340.424 772.715C-342.659 771.677-344.953 770.618-347.298 769.599-344.914 783.413-322.485 784.512-309.665 781.905-309.266 781.825-309.355 781.236-309.765 781.266-320.6 781.855-330.308 777.41-340.424 772.715M-315.531 752.848C-314.584 749.642-315.851 747.634-315.143 744.748-314.883 742.85-313.506 740.672-314.374 738.794-320.81 733.8-335.605 742.74-342.011 748.723-344.075 750.86-344.046 751.859-343.985 752.109-341.701 762.447-332.303 763.146-324.002 763.756-321.767 763.855-319.712 764.315-317.557 764.085-312.978 763.766-315.751 758.182-315.691 755.355L-315.701 755.255C-315.751 754.446-315.721 753.627-315.531 752.848M-279.385 798.436C-282.707 801.603-284.573 803.49-282.638 807.366-277.459 815.746-282.368 823.617-275.504 825.525-274.377 815.257-276.302 807.706-279.385 798.436M-275.644 841.137C-269.198 848.928-256.408 852.285-247.18 858.268-251.29 847.31-258.233 840.288-269.986 835.034-272.032 833.356-276.302 838.58-275.644 841.137M-199.07 888.393C-202.283 884.218-204.498 884.558-207.291 889.202-217.808 899.67-224.083 908.88-227.645 919.058-229.46 927.239-235.027 931.883-243.577 927.658-230.119 919.108-229.012 902.098-217.907 891.38-216.291 889.722-215.892 886.505-213.746 885.217-198.632 875.828-201.993 863.352-205.556 850.137-211.94 814.627-248.676 825.166-270.635 805.158-271.972 817.334-268.4 825.096-257.495 834.225-242.521 846.791-230.946 862.133-212.439 870.713L-213.218 872.551C-252.996 855.591-264.479 876.826-266.495 912.156-269.787 901.358-274.666 890.261-284.054 902.307-288.684 909.249-301.055 901.828-303.879 908.57-304.098 910.378-304.098 911.846-302.462 912.156-281.261 915.103-267.203 932.762-245.264 933.622-229.689 934.191-222.536 929.586-219.732 917.22-218.326 913.155-214.794 908.26-212.968 904.315-219.683 926.11-213.547 960.451-237.891 972.167-243.448 973.675-247.079 977.841-250.592 981.866-255.929 988.349-261.646 992.614-265.407 991.685-285.71 983.634-270.525 945.558-304.557 950.542-276.003 965.535-292.395 994.102-278.956 1010.214-247.968 1003.881-219.872 969.77-208.199 946.407-203.89 937.387-203.291 927.428-202.662 916.88-202.962 907.352-199.709 897.603-199.07 888.393M-471.701 784.472C-467.82 779.967-470.015 773.854-466.692 768.51-463.689 762.317-453.513 765.184-452.386 771.856-451.418 775.272-453.283 777.79-456.805 778.289-463.151 778.1-466.543 785.86-459.1 785.681-447.985 784.522-441.91 769.919-450.4 761.738-457.693 751.58-474.704 755.945-477.318 766.683-478.715 772.516-482.616 787.529-471.701 784.472M-478.405 757.023C-479.303 752.818-485.519 756.554-488.432 756.564-499.237 758.182-546.009 770.139-513.045 778.379-502.35 781.445-483.394 789.736-484.312 770.778-484.98 764.415-480.311 761.868-478.405 757.023M-417.196 824.067C-422.645 820.481-434.976 824.007-435.105 829.99-436.512 835.753-437.67 838.89-440.094 839.989-442.728 840.937-444.454 840.068-447.746 838.5-456.935 833.726-466.852 832.268-476.54 829.281-477.538 831.738-478.096 833.416-477.647 834.175-477.727 835.394-469.157 836.413-463.39 837.002-475.382 851.755-486.706 835.444-499.098 838.041-498.19 843.095-488.881 841.946-489.839 849.647-505.832 844.164-523.581 843.754-539.774 841.537-543.116 850.107-522.534 863.651-513.524 865.469-491.256 872.931-461.554 861.614-439.176 850.157-430.705 846.221-425.588 843.834-416.408 841.697-405.464 839.02-401.713 834.425-405.893 824.307L-421.706 837.631C-420.978 833.716-416.438 827.373-417.196 824.067M-797.03 755.875C-809.192 758.582-809.192 758.582-813.262 765.973-818.74 773.814-819.867 785.95-829.714 790.215-833.516 792.093-836.109 794.001-837.656 796.079-841.118 800.753-843.702 804.879-840.32 807.945-837.217 810.752-835.072 808.964-831.81 805.818-816.345 794.101-806.558 777.37-787.562 769.779-781.785 767.582-780.298 759.9-778.213 754.167-772.706 737.995-767.009 721.284-754.827 707.36-752.253 704.414-751.156 701.856-751.475 699.549-752.054 694.745-766.969 683.967-771.948 685.465-781.326 689.75-787.043 715.851-786.025 725.829-779.36 726.568-777.066 718.677-770.312 717.908-776.377 732.811-787.542 744.048-797.03 755.875M-705.581 634.144C-699.066 634.764-695.424 627.771-695.753 621.579-696.232 617.573-694.945 612.309-688.999 609.912-688.141 618.452-685.866 626.823-690.666 634.833-694.477 643.014-694.197 650.985-688.75 658.336-688.101 659.485-687.493 660.854-686.026 661.053-678.733 658.846-677.675 647.499-677.895 644.073-679.022 617.004-666.262 594.31-653.92 572.375L-652.154 573.304C-669.883 609.422-671.23 649.896-676.728 689.681-681.137 686.245-684.41 684.007-683.642 677.954-682.534 662.951-701.8 672.031-705.88 678.523-712.395 685.905-720.616 691.938-732.559 698.091-769.922 718.308-785.007 779.398-771.678 816.216-750.597 864.071-710.619 826.414-694.187 796.239L-692.451 797.228C-699.585 812.03-698.478 828.432-716.945 837.292-731.9 844.383-737.707 862.623-748.292 874.938L-749.809 873.64C-748.791 868.306-745.648 862.363-745.519 856.999-748.602 855.67-753.73 858.397-757.152 858.937-763.058 859.526-766.5 864.121-770.611 867.707-777.854 872.981-763.228 876.377-769.294 886.375-775.16 884.348-775.26 872.042-782.533 874.949-797.888 882.43-784.678 922.624-778.642 931.514-769.553 947.266-767.059 930.884-757.75 928.677-755.406 928.677-752.981 930.295-749.898 933.981-735.332 954.577-705.8 969.79-683.372 948.534-693.169 967.502-688.65 981.517-669.544 989.867-677.955 956.545-661.303 927.249-637.468 896.903-638.745 891.629-642.357 895.085-645.26 897.522-665.503 910.618-711.447 927.978-730.404 900.539-735.232 892.828-735.003 882.6-730.823 873.47-715.957 904.764-705.601 912.306-672.727 902.007-695.833 902.287-724.906 878.405-702.957 855.93-692.451 864.001-690.196 879.603-677.336 884.677-666.262 888.953-655.996 884.567-646.059 880.322-628.708 874.889-616.596 862.013-618.243 842.536-628.688 862.513-641.16 874.259-663.109 868.905-659.607 855.73-646.946 869.545-634.026 853.733-629.596 849.777-626.703 846.651-629.826 842.396-632.839 837.651-638.336 843.684-642.457 844.563-647.295 845.712-652.962 849.857-657.412 845.302-662.83 838.72-647.565 827.253-650.827 817.524-657.462 829.621-661.961 844.783-681.956 838.77-676.159 828.462-662.999 818.593-663.029 806.667-662.201 801.193-675.101 796.618-674.343 791.154-668.786 783.293-655.187 795.439-656.045 777.979-651.725 757.873-671.35 764.455-667.589 753.757-665.125 748.723-661.662 751.799-658.709 752.639-654.07 753.727-652.863 752.229-652.933 747.354-653.212 737.226-656.894 732.222-664.845 731.133-668.616 730.604-668.197 729.745-674.722 735.179-687.233 751.13-689.957 722.922-704.384 734.339-710.33 738.135-716.466 737.316-722.651 737.106-730.024 736.836-734.195 739.653-737.527 747.185-743.523 760.749-735.462 767.911-725.854 773.634-717.873 778.369-708.564 782.774-709.751 794.021-711.996 811.701-726.722 842.376-749.879 832.098-771.728 824.766-765.333 791.884-766.55 773.914-769.124 751.6-759.357 729.215-735.771 721.404-753.001 736.767-762.031 756.145-758.479 777.77-757.701 785.94-749.639 827.233-737.747 823.707-735.212 822.528-736.041 820.95-737.298 818.843-738.685 816.735-738.944 814.418-739.902 812.11-742.416 807.426-742.416 796.179-738.604 793.521-736.629 791.554-729.905 792.653-723.43 794.221-726.393 798.266-732.329 803.78-731.292 808.754-729.047 814.438-723.44 812.53-721.963 807.016-706.688 779.488-744.332 789.177-747.993 761.479-752.144 747.844-739.742 723.332-725.196 727.228-708.933 736.747-686.555 704.394-681.925 733.031-666.132 709.398-655.367 729.206-648.553 716.061-647.784 713.553-642.147 710.996-644.642 708.609-651.755 701.667-654.539 721.434-667.798 711.286-670.642 709.528-673.136 708.239-676.119 708.849-677.326 691.888-655.058 705.552-650.468 699.989-648.353 699.24-648.054 682.449-651.915 678.853-653.741 677.325-658.6 678.873-661.922 679.642-660.106 664.689-646.637 664.3-644.771 678.783-640.262 692.687-636.271 707.53-641.27 722.823-642.676 727.108-641.14 730.744-639.164 734.699-637.309 738.385-635.553 743.379-638.526 749.402-650.079 772.916-644.023 797.277-640.341 821.11-638.995 825.845-631.462 827.523-629.067 832.437-627.342 829.191-625.466 825.655-623.82 822.579-608.824 837.791-606.081 851.725-616.487 871.562-618.143 874.729-614.831 878.195-611.618 876.617-587.024 864.53-561.723 854.742-531.244 871.542-536.401 860.805-553.821 846.301-547.426 835.114-544.313 830.849-540.482 834.195-536.98 834.884-516.029 838.62-497.342 828.771-477.099 826.384-466.024 816.126-449.932 837.092-441.79 825.325-440.323 821.479-445.851 820.92-448.704 819.592-470.494 809.723-495.336 818.083-515.989 806.147-509.982 799.904-503.348 806.157-496.424 804.359-520.119 797.907-536.88 791.844-554.939 783.283-540.422 780.337-528.979 787.059-516.787 791.504-498.06 797.158-471.531 800.434-448.425 791.364-447.776 790.645-447.706 788.507-448.595 787.928-449.662 787.239-452.176 787.868-453.174 788.108-490.827 800.484-542.099 776.052-542.607 775.802L-544.253 775.013C-522.893 762.317-507.768 741.661-482.097 735.828-492.523 736.067-502.66 739.124-513.435 734.579-474.325 721.084-452.436 725.23-424.011 756.504-431.244 754.127-444.733 747.005-451.837 749.402-445.441 756.694-431.055 755.066-426.605 762.797-439.734 769.949-430.027 788.907-443.666 795.769-445.931 796.978-447.407 797.877-447.597 800.044-443.067 800.344-438.717 800.624-434.297 800.903L-434.118 804.08-455.648 807.945C-449.343 810.153-443.387 814.218-436.842 814.857-420.579 815.417-401.882 818.104-391.077 806.477-386.039 801.273-390.738 797.847-385.061 795.899-380.791 799.854-378.257 804.02-378.207 808.145-380.95 810.442-384.612 811.461-388.233 812.44-412.617 817.075-384.442 836.603-410.362 845.972-440.483 859.216-470.045 883.069-499.617 875.598-507.079 874.529-522.025 867.767-525.347 876.866L-524.738 877.795-525.387 877.386C-525.586 880.602-520.398 885.446-518.423 888.863-516.837 891.35-514.871 894.446-517.276 897.393-521.426 902.607-532.85 895.275-537.688 893.268-545.052 888.553-552.963 887.055-561.274 892.438-571.6 896.264-566.392 903.066-557.193 900.599-531.573 894.786-515.869 943.4-500.804 926.859-491.485 916.931-503.567 917.54-512.956 917.41-498.33 909.699-484.452 913.395-477.757 920.896-460.766 937.587-444.544 911.377-416.06 933.991-384.852 959.022-374.106 907.002-339.666 932.902-317.527 948.564-298.75 928.208-274.147 953.648-268.37 959.562-229.64 956.206-229.899 945.188-236.045 942.082-245.204 942.042-252.248 941.173-289.98 940.573-266.964 920.586-315.541 917.18-310.753 926.33-299.469 925.621-293.821 933.801-312.888 934.291-325.768 918.519-343.976 915.912-321.288 917.899-315.143 898.501-294.041 900.08-286.18 901.408-292.176 884.198-290.17 879.374-288.384 866.698-278.178 861.304-266.006 865.27-263.492 866.099-260.309 867.856-258.832 865.599-256.607 863.432-260.828 860.875-262.435 858.877-267.283 850.956-276.252 853.973-280.333 849.048-281.879 847.07-282.358 844.253-281.779 840.418-281.36 837.562-283.904 835.803-286.209 835.164-288.484 834.345-289.452 836.912-290.629 838.78-295.009 845.742-302.362 852.245-301.314 861.244-297.543 879.933-316.688 891.12-333.37 876.067-335.605 892.798-346.879 899.85-361.635 882.29-365.177 895.435-376.551 903.806-387.575 887.135L-386.049 885.856C-377.349 895.146-366.674 893.947-363.67 876.047-354.481 887.504-338.14 897.493-335.954 868.975-329.769 875.208-306.552 889.562-305.235 864.141-306.882 859.976-307.391 856.32-305.165 852.135-298.83 837.002-322.176 844.044-330.497 843.215-329.101 836.353-325.02 833.925-319.682 835.114-310.204 836.353-289.032 832.837-285.95 828.582-282.019 815.007-292.764 802.242-308.977 809.494-314.764 812.22-321.148 809.624-324.371 803.71-311.57 791.994-295.169 804.469-282.378 792.443-284.942 788.318-282.647 777.84-290.141 781.805-294.151 784.782-298.341 783.553-302.611 783.993-309.057 787.798-321.687 793.292-335.097 788.348-342.31 785.741-345.083 787.758-344.654 795.41-343.886 808.135-348.835 819.991-348.565 832.657L-350.551 832.797C-352.058 820.301-352.007 807.965-352.097 795.769-352.037 793.542-351.618 790.815-353.854 790.785-357.475 790.305-360.298 790.575-361.814 791.554-370.105 797.208-379.254 793.951-379.634 783.703-380.342 759.89-371.871 693.786-356.477 668.635-358.033 677.045-372.311 744.598-372.849 774.993-374.745 787.329-360.148 788.377-353.613 782.794-348.904 777.19-355.33 768.121-354.362 761.189-345.362 722.393-351.09 682.519-333.062 645.271-326.037 622.837-359.54 633.645-371.272 632.676-359.56 627.102-350.021 617.933-334.856 625.254-361.106 591.443-371.203 643.523-402.541 634.264-415.81 631.048-418.374 632.766-417.716 646.33-417.855 658.386-410.043 668.515-394.329 673.05-416.358 673-434.357 666.447-437.938 648.817-431.194 650.246-430.387 658.826-422.165 657.228-428.65 648.248-423.522 624.016-415.122 618.842-414.384 618.752-413.734 619.082-413.306 619.75-407.778 628.011-398.67 618.002-391.806 624.915-388.243 630.029-373.068 618.382-371.063 613.687-385.53 606.066-376.53 596.737-381.17 587.278-414.752 589.405-425.428 571.566-454.421 563.025-426.895 563.834-408.107 541.021-382.317 534.968-376.201 532.311-352.596 538.653-353.703 529.364-369.985 507.419-384.981 536.945-403.358 521.942-383.115 529.384-367.232 500.637-349.434 528.915-347.378 532.181-344.136 538.993-346.45 542.239-351.259 547.114-361.556 544.227-367.172 544.487-383.046 543.328-397.442 547.423-414.862 558.111-387.734 558.74-361.355 547.963-335.455 558.121-364.678 561.717-392.584 570.417-422.744 567.5-394.03 587.328-364.438 573.414-334.478 567.38-341.52 581.218-357.112 585.83-359.846 602.466-360.123 604.151-358.854 605.698-357.151 605.812-327.939 607.77-318.939 622.513-328.222 652.373-334.388 674.079-344.943 700.598-339.247 725.649-333.15 727.328-333.68 716.689-323.254 718.527-326.356 730.024-340.993 729.975-343.776 742.21-327.434 728.446-309.715 712.904-281.311 729.155-288.075 729.924-301.953 726.608-306.911 729.025-308.158 731.822-306.423 732.761-302.462 732.901-291.457 733.83-288.893 743.878-289.003 756.284-290.021 777.39-305.894 772.726-318.555 773.105-314.075 774.354-309.665 775.672-306.094 778.549-304.886 779.518-303.19 779.568-301.933 778.669-255.19 745.117-280.662 650.845-292.734 606.625-317.147 539.303-329.47 431.247-430.087 444.381-436.662 445.59-441.271 447.847-449.213 446.539-450.77 441.705-447.128 439.347-443.077 439.237-422.913 434.672-454.62 419.63-445.232 392.85-429.817 451.893-423.223 420.708-383.854 435.122-382.477 425.583-412.657 382.902-413.336 370.925-396.335 389.634-366.015 445.91-347.298 449.655-355.29 413.467-376.201 384.48-395.976 355.613-365.297 375.311-355.09 410.32-336.004 439.637-328.691 419.929-329.659 401.51-326.067 382.113-314.115 321.662-327.923 262.08-364.039 219.858-367.491 218.989-372.4 222.116-382.178 228.349-409.395 245.419-437.909 263.069-464.777 280.05-515.669 312.053-568.308 345.155-621.156 375.99-649.939 392.791-658.899 415.365-663.508 444.092-669.285 480.18-675.78 516.778-682.055 552.178L-685.318 570.647C-686.156 574.802-689.169 578.618-690.805 582.623L-691.603 580.336C-694.167 573.644-692.661 561.308-695.634 560.658-697.779 559.22-702.877 561.028-712.126 564.304-715.049 565.333-719.599 566.791-719.778 568.15-709.223 590.035-702.398 593.351-720.167 620.08-709.811 619.671-705.122 602.69-704.084 574.942-692.771 596.208-700.014 615.246-705.581 634.144M-876.287 424.434C-840.589 420.039-819.658 399.453-804.722 353.905-834.333 372.094-870.929 384.799-876.287 424.434M-850.376 486.603C-837.267 485.185-821.074 469.273-809.262 462.101-840.39 466.376-870.38 472.709-902.287 473.658-884.867 477.933-868.056 483.447-850.376 486.603M-892.19 494.374C-893.727 494.434-895.213 493.795-896.64 493.175-905.17 489.03-904.422 500.607-900.182 504.902-893.697 516.029-880.956 503.304-871.897 501.596-878.911 497.78-885.246 494.044-892.19 494.374M-947.383 479.891C-954.756 480.05-955.993 483.966-957.419 488.491-969.761 518.506-989.286 546.155-997.537 577.829-997.517 578.178-997.497 578.558-997.477 578.978-969.132 561.927-940.08 544.077-912.513 527.606-909.75 526.417-909.38 525.249-911.116 522.402-916.185 513.942-920.345 504.812-924.366 495.982-928.347 485.484-933.495 479.131-947.383 479.891M-894.026 418.771C-878.123 369.607-833.106 353.126-795.972 326.906-791.952 323.32-787.163 319.534-780.518 318.426-778.383 335.057-784.878 349.58-791.193 363.314-800.352 386.498-811.905 409.651-831.67 424.044-847.414 436.281-867.816 440.656-885.775 450.065-845.009 453.581-780.119 424.824-766.291 386.258-759.866 391.142-762.4 398.214-760.893 404.707-750.118 370.995-749.699 337.963-739.164 304.191-735.322 319.015-737.188 333.838-739.623 346.753-742.536 360.877-742.376 374.851-743.084 389.064-744.561 400.811-730.593 401.231-726.493 394.418-707.896 371.944-718.601 336.405-696.592 314.6-691.992 309.236-692.8 308.527-698.068 303.912-735.552 268.972-795.792 258.804-824.457 216.043-861.381 289.708-900.84 369.467-939.65 454.23-916.005 448.936-899.842 436.391-894.026 418.771M-301.783 63.147C-305.176 55.656-296.007 50.952-297.214 45.418-297.792 41.502-302.083 38.806-306.622 35.949-345.921 9.199-384.442-17.221-427.942-35.849-538.597-85.093-636.8 9.18-722.582 74.285-760.305 104.8-785.117 118.104-801.061 166.42-807.516 185.978-821.434 194.827-802.028 213.485-770.91 249.515-723.21 263.209-684.749 289.509-678.314 293.684-674.712 293.813-670.821 286.532-662.67 271.919-647.525 263.238-638.965 248.565-627.97 279.59-637.678 308.157-644.342 336.984-625.456 311.344-617.914 259.004-609.124 225.781-564.197 95.411-730.174 169.017-790.425 181.592-753.65 148.011-625.815 109.545-588.461 156.401-578.075 171.403-587.893 197.444-591.973 215.453-600.973 252.352-610.281 290.468-623.65 329.962-605.941 314.48-595.595 300.436-597.78 280.31-600.234 257.835-594.447 236.35-588.851 215.573-584.131 189.413-569.834 168.237-565.495 141.338-557.283 155.462-555.737 169.366-554.53 182.481-547.795 224.163-546.937 258.274-578.065 292.375-557.553 276.713-545.291 257.036-533.259 236.09-522.055 215.743-503.009 197.494-514.412 172.243-536.202 119.483-503.308 77.191-509.903 26.42-495.875 45.857-484.372 84.084-478.825 121.48-467.57 69.61-441.859 36.568-399.229 17.25-416.119 34.591-416.309 57.584-420.679 79.119-424.2 95.331-430.396 105.858-440.772 113.28-472.599 134.336-482.546 172.622-500.385 204.366-475.323 167.968-427.752 159.707-382.656 170.805-403.129 174.66-420.559 184.109-436.063 200.66-450.11 215.593-467.441 225.932-487.584 231.375-515.131 238.856-532.69 258.385-549.681 277.263-562.75 292.146-574.813 302.034-583.892 323.101-488.482 263.328-391.316 205.904-296.925 145.104-310.932 127.644-336.523 132.758-355.688 130.241-364.618 129.712-373.548 129.182-382.477 128.703-386.179 128.732-389.97 126.975-390.239 122.09-351.738 116.627-284.034 120.922-301.783 63.147M-233.142 323.28C-251.19 299.107-256.418 270.65-261.467 243.122-266.654 218.72-269.169 191.541-280.861 169.106-306.513 176.378-327.963 196.875-351.808 208.841-356.646 211.518-356.836 213.306-353.634 217.701-324.83 255.277-310.294 300.177-310.423 351.138-310.434 357.062-308.527 359.648-304.058 359.758-280.662 352.217-256.527 346.124-235.536 334.457-230.957 331.99-230.049 327.386-233.142 323.28M-291.946 111.712C-291.447 113.08-290.998 114.539-290.529 116.067-288.384 123.698-282.638 139.171-272.69 130.36-264.849 123.788-255.649 118.654-246.811 113.53-239.268 109.155-235.117 106.748-234.658 104.23-238.21 91.226-268.649 61.51-283.466 67.493-293.972 77.411-285.71 97.998-291.946 111.712M-220.361 179.385C-220.71 164.812-218.177 145.773-225.101 132.219-234.389 135.355-243.448 145.323-255.391 148.859-270.466 154.413-271.233 163.473-267.572 176.298-258.643 207.643-250.9 239.166-243.029 270.36-241.572 278.212-236.185 284.345-232.194 291.236-230.896 294.373-229.789 295.901-227.036 294.742-223.783 293.564-223.653 288.76-223.065 285.224-217.728 250.783-221.1 214.884-220.361 179.385M14.736 9.13H14.726C-45.275 46.257-103.063 83.914-163.542 120.642-196.536 140.669-185.062 145.193-184.274 176.857-185.143 223.114-184.314 270.23-187.148 317.177-187.946 337.474-197.863 350.339-214.365 358.739-232.742 369.597-251.759 380.824-271.593 389.534-285.979 395.847-292.983 405.156-295.028 420.659-299.668 450.255-313.815 476.175-295.318 503.913-262.045 579.477-231.835 655.23-251.818 755.186-252.916 759.95-253.086 764.794-247 767.951-240.545 771.307-234.698 775.682-229.041 779.917-212.998 794.061-185.232 797.767-181.461 822.379-175.036 852.844-162.076 882.22-174.916 914.323-177.879 934.111-166.715 941.123-181.122 965.485-198.402 998.147-230.338 1011.682-242.879 1044.574-250.741 1064.721-263.682 1079.564-280.722 1090.392-340.773 1128.298-410.812 1197.599-485.1 1183.495-497.002 1181.538-510.561 1184.375-526.544 1192.175-543.016 1200.196-559.029 1200.896-575.481 1194.323-598.428 1185.144-623.071 1183.026-646.896 1180.978-677.565 1177.402-724.917 1176.144-742.106 1147.357-747.035 1135.75-754.059 1134.052-765.034 1132.634-821.783 1124.253-814.619 1092.639-838.863 1055.302-855.645 1035.195-843.832 1016.956-854.966 1012.231-871.318 1003.841-874.132 992.055-873.593 973.246-872.975 949.763-880.397 927.149-879.36 903.546-900.391 864.311-881.645 840.927-879.779 802.132-879.21 789.316-874.421 778.519-866.629 772.496-852.691 761.688-846.336 745.756-834.024 733.72-822.312 722.543-818.52 709.378-815.697 693.696-812.524 677.674-809.251 661.113-814.05 645.651-822.122 619.591-818.051 594.549-801.22 566.821-792.321 552.198-777.036 545.466-765.722 533.529-750.288 517.028-741.488 496.502-724.238 481.329-721.674 479.082-718.98 476.275-718.761 471.32-858.548 555.294-990.673 642.035-1132.086 724.491-972.924 389.784-806.219 57.943-644.741-276.284-605.053-357.281-563.898-436.55-526.923-519.575-521.845-531.242-515.6-532.091-507.099-523.421-356.577-371.056-201.894-219.109-50.523-68.731-28.524-47.086-6.017-24.432 16.402-2.518 21.281 1.368 21.391 5.424 14.736 9.13"/>
</g>
</g>
</svg>
