<svg xmlns="http://www.w3.org/2000/svg" width="2048" height="1920" viewBox="0 0 2048 1920"><defs><clipPath id="clip_1"><path d="M0 0h2048v1920H0Z"/></clipPath></defs><g clip-path="url(#clip_1)"><path fill="#231f20" d="M1601.965 1234.554h-2.252c-2.691 0-4.521-2.778-3.386-5.21a71 71 0 0 0 3.602-9.443c8.329-27.503 16.299-55.123 24.232-82.757a3.71 3.71 0 0 1 3.568-2.68h1.226c2.403 0 4.185 2.244 3.616 4.57-7.667 31.355-17.37 62.126-27.064 92.928a3.71 3.71 0 0 1-3.542 2.592m-791.677 78.122a3.68 3.68 0 0 1 3.66-3.672c13.3-.092 26.617-.16 39.657.069 26.747.469 55.882-1.274 82.629-.634 30.8.736 61.616 1.006 92.42.414 26.465-.51 52.97.199 79.449-.284 27.229-.497 55.299.317 82.503.997 14.23.356 28.57.708 42.954.942a3.674 3.674 0 0 1 3.625 3.666v7.854a3.68 3.68 0 0 1-3.683 3.672c-139.848.126-279.692.253-419.534-.073a3.68 3.68 0 0 1-3.68-3.673Zm-345.016-64.748c.03 0 .057-.01.086-.01 7.882 7.925 17.596 14.023 29.273 18.274 50.032 18.216 101.847 29.059 154.435 35.215 27.347 3.2 54.817 5.334 82.325 6.536 13.879.606 27.768.976 41.659 1.13a1357 1357 0 0 0 20.109.055c2.04-.007 3.703 1.637 3.703 3.67v9.108a3.68 3.68 0 0 1-3.697 3.673 56223 56223 0 0 1-86.144-.288c-69.024-.297-137.9-5.653-206.268-16.594-7.848-1.255-15.438-3.538-22.8-6.542-9.525-3.884-16.123-10.555-19.466-21.327-2.917-9.392-5.955-18.744-9.04-28.081-.783-2.376.99-4.82 3.5-4.82Zm-45.361-113.464a3.684 3.684 0 0 1 3.542 2.658c7.075 24.538 14.203 49.06 21.154 73.637 1.89 6.69 4.292 12.835 7.207 18.446 1.269 2.443-.508 5.349-3.27 5.349h-2.484a3.69 3.69 0 0 1-3.5-2.515c-10.24-30.702-20.384-61.437-27.796-93.078-.538-2.3 1.228-4.497 3.598-4.497Zm1064.82-303.41c-4.872 12.205-11.311 23.462-17.442 34.916-11.52 21.534-23.266 42.94-34.458 64.653-2.907 5.623-6.141 7.175-12.104 7.056-48.12-.988-91.733-3.057-139.525 5.186a28 28 0 0 0-4.043 1.01c16.767-23.371 35.062-65.974 40.394-85.834 5.02-18.7 12.16-26.327 29.412-27.047 34.625-1.444 69.225-3.567 103.833-5.458 2.303-.126 5.566.995 6.473-2.02 1.185-3.936-2.734-4.371-4.906-5.587-16.814-9.417-34.521-15.874-53.666-17.006-13.054-.772-26.125-1.163-39.234 1.24 12.366 3.513 25.278 4.329 38.65 8.723 2.912.956 2.668 5.148-.34 5.743-18.507 3.662-37.885 3.367-54.414 6.047-4.182.679-5.891-5.182-1.973-6.788 5.653-2.317 11.645-4.03 17.14-7.737-7.422-2.947-15.116.424-20.404-3.67-9.374-7.257-12.794-2.788-14.976 6.592-.103.438-.9.695-1.788 1.335 1.96-11.127-5.085-12.772-12.486-13.384-4.266-.353-8.531-.721-12.796-1.094a4.706 4.706 0 0 1-4.303-4.681v-4.74c0-2.671 2.238-4.807 4.918-4.692q7.012.298 14.014.61c42.82 1.898 81.555 1.56 124.436 1.858 7.42.049 13.503 1.917 19.218 6.908 8.66 7.56 17.71 14.656 26.669 21.84 5.417 4.34 6.39 9.28 3.7 16.02m-146.025 477.305c26.93-2 53.586-6.446 80.312-10.16 46.754-6.498 92.322-15.94 136.722-32.975 10.16-3.896 19.162-9.21 26.55-16.247a3.75 3.75 0 0 1 2.582-1.048h10.593c2.499 0 4.28 2.409 3.54 4.787a2261 2261 0 0 0-5.028 16.382c-7.768 25.705-22.84 35.973-45.58 39.56-84.124 13.274-168.834 16.92-253.723 16.989q-20.186.016-40.372.036a3.68 3.68 0 0 1-3.69-3.672v-7.601a3.674 3.674 0 0 1 3.708-3.666c28.245.178 56.538-.318 84.386-2.385m-538.212-23.34c-.387-1.554-1.283-4.635-1.435-6.224-.301-3.135-1.22-5.321-1.563-8.453-1.815-16.632-1.21-22.462 16.46-22.413 140.182.416 280.373.228 420.554.228 2.124 0 3.11-.238 5.233-.228 7.67.029 11.708 4.03 12.51 12.155.427 4.303.539 8.672-.104 12.942-.897 5.959-3.603 13.176-7.21 16.456-9.178 8.348-12.177 7.408-23.434 7.228-6.078-.097-37.482-.686-44.45-.95l-4.803-.182c-1.416-.053-2.84-.152-4.256-.152-96.318-3.251-192.636-3.687-288.954.049-10.338.406-20.677.9-31.005 1.473h-.11c-7.232.099-14.197.217-20.953.326-3.83.059-3.031-.096-6.722-.036-6.943-1.1-17.796-4.341-19.758-12.22m-292.28-53.721c.03.02.05.029.07.039 21.986 12.907 45.719 20.299 69.996 26.733 17.472 4.625 29.616-4.566 43.477-13.806-5.527-4.408-11.59-5.1-17.065-7.066-16.877-6.048-32.662-13.905-45.302-27.702-7.501-8.183-11.608-17.976-12.77-29.164-.337-3.202-1.805-7.353 3.096-8.716a8.7 8.7 0 0 1 1.578-.3c3.943 24.549 25.345 43.368 51.083 43.368 19.81 0 37.05-11.154 45.74-27.485.872.435 1.813 1.089 2.869 1.949 21.202 17.245 42.73 34.066 64.013 51.212 2.242 1.809 7.5 2.728 3.453 8.302-1.25 1.729 1.686 3.053 3.373 3.36 14.704 2.668 29.497 4.289 44.459 3.992 4.97-.1 5.556-2.935 4.633-6.918q-.466-2.012-.928-4.027c-.448-1.96 1.05-3.826 3.066-3.826h2.649a3.14 3.14 0 0 1 3.034 2.312c3.209 11.819 6.306 23.667 9.805 35.407.963 3.23 1.07 6.754 2.505 9.833a20.6 20.6 0 0 0 1.766 3.025 21 21 0 0 0 2.927 3.34 25 25 0 0 0 3.224 2.54c-65.85.83-113.671-.336-194.84-15.26l-.03.14c-23.324-4.606-46.422-10.308-69.082-18.195-6.31-2.194-12.412-5.208-18.405-8.272-8.552-4.378-13.057-11.474-14.922-20.398-.764-3.676 3.304-6.345 6.528-4.417m57.583-45.99c-2.706-5.417-4.741-10.696-5.644-16.151h6.785c5.187 2.943 12.912 2.796 12.94 12.114.002.28.887.837 1.317.794 8.479-.838 14.507 2.79 18.383 10.81a.47.47 0 0 0 .889-.126c.96-5.531 4.325-9.657 5.816-16.931 1.143 6.086 1.808 9.496 2.415 12.917.366 2.06 1.205 3.93 3.368 3.755 2.512-.204 2.173-2.701 2.21-4.481.11-5.32.04-10.641.04-16.331 3.313 2.177 2.732 12.952 8.72 5.036 3.113-4.115 5.503-5.511 9.89-5.63 1.083-.028 2.102-.19 3.033-.493h8.283c-.073.423-.137.844-.221 1.272-2.31 11.626-9.95 18.903-18.542 27.176a42.7 42.7 0 0 1-23.102 6.75c-15.495 0-29.066-8.2-36.58-20.48m72.652-28.092c-.928-.583-1.995-1.065-3.101-1.535-6.874-2.92-12.802-7.02-15.49-15.214-.317-.971-1.558-1.246-2.236-.48-.876.99-1.533 1.733-2.222 2.44-1.782 1.828-.478 6.776-4.535 5.983-3.872-.757-4.208-4.84-5.248-8.234-.96-3.133.752-7.238-2.97-9.622-5.255 4.49-2.827 12.776-8.44 18.535.852-6.05-2.12-9.692-4.028-14.578-.391-1-1.762-1.094-2.278-.153-5.41 9.867-11.951 17.066-21.731 20.833-.345.133-.648.346-.93.592h-4.888c2.338-12.54 8.926-21.953 19.407-28.354 18.285-11.177 41.928-7.224 55.749 9.487 5.102 6.165 8.145 12.91 9.12 20.3Zm121.035 27.84h.003c1.383 0 2.606.9 3.01 2.217a1708 1708 0 0 1 10.79 36.614c.566 1.997-.946 3.982-3.028 3.982H768.6a3.136 3.136 0 0 1-3.061-2.437c-2.778-12.21-5.662-24.386-9.07-36.388a3.128 3.128 0 0 1 3.013-3.988m660.04 12.275a1.9 1.9 0 0 0-.368-.532c-7.337-7.438-13.573-15.466-15.634-25.842h10.178c.94.185 1.929.304 2.944.38 2.19.166 5.06-1.624 6.36 1.859 5.04 13.486 7.325 3.615 10.615-3.172 0 4.393-.312 6.999.069 9.486.669 4.372-2.621 11.932 2.354 12.394 4.888.454 3.057-7.745 4.755-11.9.173-.421.673-.693 1.324-1.333l4.597 12.16c.405 1.072 1.922 1.14 2.396.098 1.556-3.434 3.86-5.95 7.022-6.998 5.876-1.948 13.122-.956 13.808-10.58.21-2.97 2.099-.262 3.192-.373 3.096-.316 5.714-1.785 7.624-3.871h5.917q-1.367 7.676-5.076 16.354c-7.534 12.194-21.052 20.328-36.482 20.328a42.73 42.73 0 0 1-25.594-8.458m67.528-42.808c.06.402.119.803.166 1.21h-4.433c-1.881-2.133-5.27-1.062-7.245-3.024-5.53-5.5-11.45-10.555-15.825-18.847-.508-.962-1.924-.807-2.248.23-1.743 5.57-5.276 8.937-4.447 14-3.912-4.927-2.664-11.726-6.551-16.082-.707-.792-1.973-.695-2.57.184-1.421 2.095-.942 4.61-1.275 6.826-.588 3.908-1.106 8.237-5.366 9.147-4.46.954-3.152-4.605-5.275-6.514a27 27 0 0 1-1.115-1.074c-.907-.917-2.48-.626-2.962.568-2.888 7.152-7.977 11.543-14.568 14.259-1.602.66-3.292 1.258-4.62 2.178h-5.526c1.189-8.72 4.916-16.38 11.036-22.822 15.21-16 40.629-18.105 57.803-4.744.337.263.66.532.986.799 7.04 6.033 12.096 14.3 14.035 23.706m-204.925 43.32q1.638-5.494 3.325-10.975a2.57 2.57 0 0 1 2.46-1.812h1.302a2.556 2.556 0 0 1 2.462 3.268c-3.566 12.382-6.593 24.937-9.444 37.548a2.565 2.565 0 0 1-2.504 1.997h-2.871l-2.48-3.26a1953 1953 0 0 1 7.75-26.766m-34.956 101.59c3.21-1.124 8.685-6.684 10.436-12.38 3-9.76 5.548-19.675 8.269-29.516 1.317-4.761 2.489-9.551 3.659-14.341a2.57 2.57 0 0 1 2.497-1.954h3.594c1.64 0 2.862 1.51 2.51 3.108q-.515 2.353-1.033 4.706c-1.072 4.853.208 7.026 5.347 7.026 14.029.02 27.959-1.086 41.72-3.854 2.609-.533 8.632.366 3.929-6.354-1.418-2.016 2.094-3.42 3.622-4.655 22.036-17.68 44.24-35.163 66.166-53.001a16 16 0 0 1 1.465-1.07c8.682 16.357 25.934 27.535 45.766 27.535 25.743 0 47.148-18.826 51.086-43.38a8.3 8.3 0 0 1 1.95.33c5.527 1.593 3.205 6.317 2.927 9.598-1.012 12.422-6.647 22.533-15.13 30.952-11.995 11.909-26.372 19.33-41.83 24.688-5.734 1.986-11.488 3.923-19.317 6.592 14.228 8.074 24.576 19.498 41.284 15.02 13.82-3.705 27.82-6.551 41.283-11.7 11.886-4.546 23.227-10.317 35.28-17.067 2.025-1.137 4.476.563 4.119 2.846-1.717 10.989-6.508 18.925-16.043 24.014-17.8 9.478-36.968 14.38-56.215 19.064-13.276 3.222-26.62 6.069-40.004 8.629l-.03-.18c-79.005 14.529-124.117 16.046-187.307 15.344m229.855-305.845a26 26 0 0 0-1.103-2.56 26 26 0 0 0-1.737-2.957c-.412-.608-.914-1.131-1.344-1.726-.668-.925-1.435-1.462-2.224-2.298-1.126-1.194-1.98-1.88-3.797-2.86-.414-.224-.876-.384-1.32-.55-1.501-.56-3-.54-4.403.29 3.075 3.637 8.69 4.338 10.437 10.822-4.475-2.61-9.227 6.018-12.85-2.125-.356-.81-1.05-.465-1.16.534-1.438 12.739-4.911-1.216-7.401.75-.585 3.756 1.1 8.717-5.923 8.855-7.58.159-2.808-5.811-4.534-8.548-6.181 4.309-3.621 11.128-4.723 17.572-2.758-12.838.784-22.711 9.624-28.265 1.989-1.25 4.116-2.3 6.364-2.997 2.003-.622 4.098-.957 6.197-.907 4.62.11 9.123 1.106 12.878 3.55 3.294 2.144 6.107 5.31 8.165 8.777.837 1.41 1.436 2.952 1.853 4.534.016.062.027.124.043.186Zm-.72 15.406a14.6 14.6 0 0 0 .983-2.022l3.402.086c-1.322 9.268-8.472 16.767-17.262 19.606-9.614 3.103-14.317-1.996-18.345-11.533 4.862 0 9.297-.494 13.602.109 7.065.998 15.279-2.323 17.62-6.246m-789.426-8.973-.021-.002-7.044-.18c.01-.604-.007-1.211-.081-1.822-.491-4.072-.897-8.048-3.464-11.183-.905-1.104-2.747-.314-2.545 1.097.447 3.142 2.667 6.207.343 8.58-2.52 2.574-6.337-.311-9.608.384-.128-4.18 1.33-8.028.699-12.496-.145-1.027-1.533-1.25-1.96-.303-1.937 4.29-1.877 10.448-7.167 7.989-4.644-2.157 1.097-8.18.296-12.555-.09-.482-.397-.92-.68-1.547-3.561 1.698-2.421 5.795-3.941 8.454-.693 1.212-1.388 4.292-2.835 1.975-6.164-9.876-8.11-2.01-11.293 4.93-1.546-11.027 3.532-14.854 9.813-18.061 1.204-.615 4.16-.875 2.518-3.65-.335-.564-2.382.006-3.64.052-5.68.212-11.38 5.199-14.361 9.754a15.3 15.3 0 0 0-1.557 3.153 5 5 0 0 0-.574-.047l-3.997-.102a40 40 0 0 1 1.7-3.074c7.029-11.426 19.843-19.303 33.633-16.025 15.762 3.748 26.367 18.832 25.766 34.679m99.756 3.277h-5.754c.079-3.128-.306-6.205-1.251-9.104-.331-1.015-1.578-1.365-2.44-.731-7.201 5.294-12.22 2.782-15.63-7.05-1.025-2.97-1.16-6.228-2.664-9.64-.407-.921-1.71-.87-2.047.08-2.016 5.682-6.374 8.5-10.984 11.455-4.07 2.61-6.778.608-10-.825-4.1-1.825-1.78-5.012-1.404-7.946.404-3.14 1.082-6.374 1.605-9.504.295-1.767 1.05-4.25-1.354-5.074-2.503-.844-3.361 1.762-4.05 3.39-2.602 6.106-4.463 12.226-7.468 19.223-1.803-3.455-3.064-6.017-4.444-8.313-3.372-5.61-.92-9.09 5.072-12.927 5.976-3.824 10.936-6.505 18.239-7.738 1.202-.203 2.7-2.355.355-3.393-2.865-1.267-5.701-.688-8.51-.485-1.04.075-2.071.244-3.08.504l-.095.024c-2.523.657-4.882 1.79-7.216 2.927-2.746 1.338-5.422 2.713-7.725 4.754-1.18 1.046-2.256 2.208-3.456 3.224-.478.404-.94.83-1.333 1.319-3.812 4.737-6.688 9.754-8.515 15.072l-4.693-.12c1.69-5.775 4.566-11.358 8.632-16.722 1.735-2.29 3.506-4.853 5.87-6.641 1.14-.862 5.53-3.638 8.585-5.266 2.267-1.21 4.534-2.431 6.963-3.271a38 38 0 0 1 7.523-1.76 40.4 40.4 0 0 1 7.838-.238c2.67.177 5.324.612 7.913 1.288a44 44 0 0 1 7.744 2.823 45 45 0 0 1 3.66 1.947c16.477 9.747 27.387 30.183 24.114 48.718m558.35-22.524c-1.826-5.318-4.703-10.336-8.515-15.072-.392-.488-.855-.916-1.333-1.32-1.2-1.015-2.276-2.177-3.456-3.223-2.303-2.041-4.978-3.416-7.725-4.754-2.333-1.136-4.693-2.27-7.216-2.927l-.095-.024a17.4 17.4 0 0 0-3.081-.504c-2.808-.203-5.643-.783-8.508.485-2.347 1.037-.848 3.19.355 3.393 7.303 1.232 12.262 3.914 18.238 7.738 5.99 3.837 8.444 7.317 5.072 12.927-1.38 2.295-2.64 4.858-4.443 8.312-3.006-6.997-4.866-13.116-7.468-19.221-.69-1.63-1.548-4.235-4.05-3.391-2.404.825-1.65 3.307-1.354 5.073.522 3.13 1.2 6.364 1.604 9.505.375 2.934 2.696 6.12-1.404 7.946-3.221 1.433-5.931 3.435-10 .825-4.61-2.955-8.968-5.773-10.984-11.455-.338-.95-1.64-1.001-2.047-.08-1.505 3.412-1.64 6.67-2.665 9.64-3.408 9.83-8.428 12.344-15.63 7.049-.861-.634-2.108-.283-2.44.732-.944 2.899-1.33 5.975-1.25 9.103h-4.782c-.944-11.59 2.233-23.473 8.775-33.106 8.146-11.994 21.916-19.751 36.524-19.898 4.37-.044 8.745.593 12.91 1.91 11.01 3.484 21.986 13.236 27.004 23.584 1.036 2.137 1.872 4.363 2.554 6.637Zm73.858 2.59a5.3 5.3 0 0 0-1.731.249c-3.171-6.163-8.073-10.284-14.101-13.074-1.671.54-4.391-.876-4.896 1.473-.515 2.39 2.289 2.79 3.854 3.522 6.813 3.187 10.78 8.049 9.817 16.578-2.346-.661-2.813-2.44-3.16-4.024-1.468-6.704-5.807-4.382-7.484-1.494-3.331 5.74-3.562 2.465-4.746-.926-.877-2.513-.181-5.948-3.57-7.342-1.47 3.119-.017 5.973.439 8.9.312 2.009 1.926 5.052-.652 5.765-2.36.65-5.176-.368-6.093-4.05-.494-1.981-.103-4.733-3.628-6.334 0 2.653.099 4.932-.027 7.196-.132 2.349 2.653 5.607-.584 6.83-2.528.956-5.96 2.619-8.484.465-2.592-2.213-.314-5.255.098-7.95.2-1.301.034-2.666.034-4.307a21.8 21.8 0 0 0-6.31 14.857c-.006.274 0 .56 0 .842l-6.663-.17c-.415-7.081 1.566-14.205 5.975-21.014 8.285-12.8 22.65-17.72 36.7-12.581 4.134 1.512 9.244 3.658 12.334 6.706 2.689 2.654 5.102 6.209 6.983 9.987Zm-48.9 30.613c.093.002.183-.005.273-.007 1.888 4.45 4.892 8.234 9.324 9.846 1.204.438 4.754.84 5.519 1.812-3.424-4.344-6.014-7.391-8.324-10.66-1.17-1.654-1.525-4.086-.261-5.638 1.81-2.224 3.62.013 4.575 1.29 3.594 4.813 10.942 2.538 13.93 8.487.294.584 1.874-.576 2.215-1.71.729-2.427 1.362-4.887 2.164-7.81 2.138 2.03 4.286 5.244 7.25 3.035 9.858-7.346 5.985 1.267 5.34 6.03 6.715-5.947 9.48-12.978 8.609-21.867l6.05.153c-.055 2.48-.441 4.98-.791 7.372-1.915 12.986-9.267 22.344-21.014 26.84-11.658 4.448-22.651 2.877-31.947-6.62a849 849 0 0 0-3.047-2.847c-2.058-2.56-3.758-5.18-5.104-7.84Zm-76.56 23.108c.944.23 1.96-1.694 1.135-2.205-6.67-4.121-7.717-5.551-11.146-8.326-1.962-1.59-4.82-3.81-3.124-6.813 1.064-1.894 3.199-1.656 5.75-2.117 1.982-.354 5.115-.334 6.09.932 7.3 9.46 13.736 1.452 20.633-.775 1.78 4.554 5.084 8.195 7.357 12.783.582 1.177 2.32.985 2.61-.294 1.318-5.773 2.114-11.708 8.674-13.991 1.685-.58 3.458-2.307 4.897-1.992 9.212 2.05 9.202-5.428 10.246-11.17.563-3.092.802-6.096.766-9.023l4.369-.111c.01.492.032.985.03 1.476-.048 7.992-1.87 16.019-5.486 23.166-12.86 25.405-50.857 34.72-70.942 12.383-4.29-4.771-7.925-10.285-10.304-16.104h4.678c4.477 10.555 13.43 19.656 23.767 22.18m-489.261-6.318c-.387-14.913-5.158-26.982-8.085-41.401-2.232-11.01-2.49-11.1 8.483-11.1 147.216-.038 294.43.03 441.647-.206 7.253-.01 7.947 2.43 6.409 8.795-2.936 12.127-5.477 22.337-7.997 34.573-2.943 14.323-.035 24.705 8.84 30.214-130.03 3.694-283.898 3.834-459.63.418 7.108-4.056 10.596-11.322 10.333-21.293m-103.156-25.882c1.044 5.74 1.034 13.22 10.247 11.169 1.438-.314 3.212 1.413 4.896 1.992 6.56 2.283 7.356 8.219 8.673 13.99.292 1.28 2.029 1.473 2.612.296 2.272-4.588 5.576-8.23 7.357-12.784 6.897 2.227 13.33 10.236 20.632.775.975-1.266 4.109-1.286 6.089-.932 2.552.46 4.687.223 5.75 2.117 1.696 3.003-1.161 5.225-3.123 6.813-3.428 2.775-4.475 4.206-11.146 8.327-.826.51.19 2.435 1.136 2.204 10.336-2.524 19.29-11.626 23.766-22.18h5.539c-2.928 8.53-7.692 15.302-17.564 22.289-8.866 5.55-21.912 5.298-28.123 4.9-17.791-1.14-31.282-12.126-38.128-30.29-2.294-6.088-3.463-12.031-3.562-17.816l4.183.106a47 47 0 0 0 .766 9.024m-78.974-7.161 6.6.167c-.2 6.358 1.069 12.29 5.428 17.34.758.878 2.194.224 1.996-.92-.727-4.22-1.891-8.92 5.908-2.573 2.347 1.91 4.793-1.068 7.037-2.31 1.79 2.725.927 6.73 3.776 8.786 2.432.14.3-7.588 5.392-3.16.76.663 4.476-2.447 6.808-3.843 2.042-1.222 3.778-5.436 6.254-2.633.099.11.179.226.259.34a5.3 5.3 0 0 0 .597 1.552c.23 2.036-1.31 4.329-2.785 6.2-1.143 1.45-2.74 2.532-3.868 4.267-.611.94.324 2.124 1.392 1.779 2.152-.695 4.34-.888 6.092-2.431 2.263-1.993 3.477-4.48 4.299-7.134l6.302.16c-7.991 16.156-28.526 25.807-45.296 15.595a33.4 33.4 0 0 1-5.088-3.822c-6.026-5.48-9.982-12.96-10.988-21.035a31 31 0 0 1-.115-6.325m256.019-173.72c108.222-2 216.48-3.113 324.677 1.683 33.704 1.494 67.349 4.444 101.029 6.589 8.575.546 11.162 5.15 9.143 13.484-.753 3.104-1.423 6.235-2.311 9.295-6.62 22.808-18.553 42.789-28.166 64.26-1.044 2.334-15.477 26.293-18.57 35.722-1.22 1.967-2.376 4.183-3.48 6.709-2.357 5.398-5.833 6.987-11.42 6.977-149.952-.168-299.906-.158-449.86-.01-3.223.003-6.771-.395-9.078-2.901-1.18-1.281-2.057-2.747-2.825-4.277-1.44-6.937-21.627-40.641-23.95-45.675-9.992-21.65-20.044-43.302-25.791-66.75-3.334-13.603-1.523-16.372 11.327-17.236 43.08-2.898 86.152-7.072 129.275-7.87m99.599-47.214c123.473.792 212.082 2.773 296.213 6.09a4.7 4.7 0 0 1 4.525 4.694v3.69c0 2.753-2.364 4.91-5.117 4.679-13.877-1.172-27.76-2.214-41.658-2.781-137.707-5.612-275.436-5.382-413.144-.064-14.741.569-29.465 1.683-44.182 2.946-2.755.236-5.124-1.924-5.124-4.678v-3.86c0-2.518 2.003-4.588 4.53-4.691 77.427-3.143 148.017-7.012 203.957-6.025m1.439-101.635c32.225.01 64.45.069 96.675 0 10.973-.02 12.48-1.65 13.365-13.223 2.182-28.581-3.116-35.024-30.013-36.438-3.641-.197-7.382.277-10.914-.444-3.056-.633-8.652 3.31-8.552-4.378.089-6.681 3.582-8.53 9.465-8.292 17.006.702 34.05.494 51.036 1.562 49.439 3.123 98.888 6.117 148.238 10.772 15.795 1.492 27.909 6.64 32.622 24.746 2.967 11.385 8.096 22.118 11.945 33.266.923 2.698 2.679 6.7-1.736 8.094-4.107 1.304-3.978-3.192-4.931-5.416-3.988-9.36-7.848-18.797-11.311-28.384-3.343-9.24-9.732-13.835-18.661-14.38-25.221-1.541-50.452-.948-75.652.614-10.785.662-17.76 7.402-22.731 16.969-1.32 2.53-3.175 4.96-3.74 7.679-3.294 15.88-12.868 18.974-27.165 18.51-34.32-1.117-68.687-.366-103.045-.366v.188c-38 0-76-.118-114 .129-5.961.039-9.702-1.384-11.557-7.867-7.937-27.732-25.31-39.166-52.892-36.596-16.222 1.512-32.771-.128-49.191.346-11.876.346-20.24 4.704-24.258 17.403-2.887 9.102-6.965 17.78-10.685 26.565-.894 2.105-1.211 5.614-4.713 4.615-3.324-.948-2.74-4.012-2.024-6.374 4.92-16.198 10.139-32.297 17.809-47.318 3.274-6.414 9.167-9.004 15.716-10.29 25.488-5.01 51.393-5.216 77.129-7.174 40.599-3.093 81.208-6.73 121.956-7.154 4.862-.05 9.733.257 14.585.118 5.784-.178 6.032 4.15 6.409 8.4.506 5.693-3.701 3.855-6.28 4.062-8.483.662-17.016.75-25.47 1.62-11.012 1.147-14.881 5.12-17.014 16.495-.476 2.52-.645 5.1-.903 7.66-2.044 20.723.962 24.28 20.488 24.28m-376.79 324.62c-5.85-1.088-4.075-4.776-4.133-8.18-.02-1.091-1.466-1.454-1.997-.498-1.874 3.378-3.953 6.249-6.091.42-.236-.641-1.087-.726-1.471-.161-3.393 4.994-8.103-2.187-12.154 1.304.978-6.185 5.22-7.544 8.729-10.185.887-.668.324-2.087-.784-1.978-5.345.528-8.52 4.104-11.01 8.545a30 30 0 0 0-2.11 4.628l-3.032-.077c2.208-6.581 6.677-12.11 12.434-14.7 17.819-8.005 34.536 5.218 32.7 26.288-1.045-3.98-.263-8.603-3.383-12.567-.435-.553-1.32-.34-1.433.354-.576 3.544.06 7.984-6.265 6.808m-31.824 7.252c.507 2.255 1.326 4.536 2.483 6.849.256.51 1.02.448 1.194-.096.573-1.797-.893-3.94.942-4.706 2.252-.94 1.875 1.739 2.758 2.728 3.79 4.21 8.394 3.893 13.404 3.172 3.522-.504 7.223.425 11.817.79-4.604 7.976-8.434 14.696-18.474 11.089-8.712-3.12-15.944-10.88-17.526-19.913Zm-89.834 27.238c-1.271-5.523 4.89-4.072 7.253-3.646 21.539 3.913 43.079 7.926 64.49 12.59 54.563 11.897 109.525 16.466 164.763 16.066 113.367 2.76 218.354 4.14 314.508 4.14 103.15 0 196.132-1.588 278.349-4.762 21.24.692 42.517.505 63.813.032 61.78-1.373 121.648-16.128 182.05-27.316a404 404 0 0 1 4.89-.87c3.756-.644 7.027 2.656 6.274 6.377-2.96 14.644-7.711 27.85-17.692 38.67-7.74 8.4-17.89 10.248-28.396 10.93-48.545 3.182-97.052 6.512-145.51 11.257-34.803 3.409-57.494 21.909-71.196 54.503-2.454 5.839-4.68 11.752-6.737 17.72a2.56 2.56 0 0 1-2.424 1.728h-1.286c-1.742 0-2.976-1.693-2.437-3.343l.01-.034c.634-1.94 1.076-4.2 1.99-6.021 6.658-19.874 3.67-16.277-11.191-16.306-86.06-.198-172.12-.1-258.168-.09-87.578 0-175.155-.02-262.732.02-11.55.01-11.896.426-8.136 11.8q1.631 4.94 3.22 9.892c.65 2.018-.866 4.082-2.994 4.082a3.14 3.14 0 0 1-2.962-2.106c-2.967-8.498-6.322-16.865-10.251-25.041-14.02-29.184-36.74-43.623-67.496-46.716-48.14-4.842-96.33-9.072-144.627-10.97-32.403-1.264-41.758-28.177-47.375-52.586m-15.825 95.428c-9.477-2.29-20.666-4.162-28.603-10.158-7.031-5.313-11.47-13.253-15.105-21.088a31 31 0 0 0-.667-1.36c-2.388-4.54-9.336-1.46-7.643 3.379.562 1.606 1.206 3.173 1.469 4.74.606 3.614 1.354 7.239 3.006 10.51a3.677 3.677 0 0 1-3.27 5.376c-1.37-1.126-2.27-1.867-3.638-2.994-9.024-47.253-13.575-94.556-9.65-142.046a2.93 2.93 0 0 1 2.928-2.677 2.923 2.923 0 0 1 2.915 3.145c-.805 11.15-.69 22.406.038 33.66.973 14.884 21.788 20.35 34.517 9.716 3.285-2.748 5.725-6.621 8.632-9.893 2.59-2.915 4.346-8.094 9.098-6.542 4.505 1.472 4.157 6.75 4.644 10.712 2.272 18.48 3.938 37.06 6.439 55.502 6.528 48.01 13.017 96.05 28.098 142.183 0 .02.009.039.019.059.77 1.534.45 4.313-1.54 4.713-4.27.856-7.414-9.652-8.485-12.318-2.6-6.461-4.527-13.17-6.125-19.94-2.421-10.266-4.738-20.581-6.283-31.021-.622-4.202-.522-8.418-1.01-12.617-.706-6.097-3.783-9.59-9.784-11.041m1165.465-36.623c-2.03 1.065-3.256 3.119-3.94 4.808-3.875 9.576-9.592 18.766-18.935 23.835-10.207 5.538-23.362 3.819-30.733 14.29-5.487 7.794-5.9 17.864-6.496 27.028-.693 10.657-3.201 20.313-6.767 30.389-1.624 4.586-3.184 14.909-7.931 17.376-4.015 2.086-3.364-2.885-2.833-5.272 1.124-5.063 3.175-9.951 4.554-14.958 3.73-13.556 6.162-27.421 8.567-41.258 3.546-20.403 6.905-40.841 9.877-61.335 3.122-21.541 5.818-43.146 7.854-64.816.646-6.83-.912-16.632 5.547-19.163 6.697-2.63 9.574 7.126 13.672 11.79 6.895 7.857 15.16 10.546 24.744 8.757 7.828-1.463 13.83-6.02 14.198-15.091.447-11.021.396-22.017-.45-32.921a2.92 2.92 0 0 1 2.91-3.154 2.93 2.93 0 0 1 2.925 2.677c2.224 27.199 1.709 54.552-.623 82.11-1.721 20.378-4.906 40.326-9.05 59.996a3.71 3.71 0 0 1-3.638 2.934c-2.467 0-4.248-2.353-3.57-4.716a13983 13983 0 0 1 5.434-18.881c.12-.418.138-.861.189-1.312.519-4.528-3.59-4.12-5.505-3.113m-134.667-261.48c1.679-3.992 1.093-7.577 1.292-11.041.117-2.035 1.57-2.89 3.796-.45 21.33 23.396 44.284 43.474 74.363 55.133 18.782 7.274 36.025 18.51 52.237 31.23 6.43 5.05 10.428 11.078 12.273 19.409 2.272 10.262 4.052 20.542 5.41 30.843.23 1.743-1.143 3.288-2.908 3.288h-.338a2.926 2.926 0 0 1-2.881-2.43c-1.15-6.607-2.663-13.163-4.611-19.654-5.972-19.884-12.908-23.491-32.155-18.273-10.194 2.764-21.111 2.186-30.71-2.346-10.335-4.88-16.97-13.542-23.167-22.757a583 583 0 0 0-14.827-21.003c-2.25-3.046-4.491-6.07-7.661-8.231-.984-.675-2.284-1.617-3.554-1.477-5.818.638 5.458 17.846 6.844 19.953.7 1.067 1.424 2.117 2.137 3.175q.599.888 1.195 1.777c3.634 5.436 7.454 10.745 11.119 16.16 19.702 29.11 27.805 61.239 28.108 96.09.139 14.903-1.39 16.316-14.575 18.945-13.423 2.688-26.927 4.97-40.311 7.896-6.53 1.434-8.602-1.097-9.028-7.678-.824-12.868-2.325-21.234-6.701-33.321-9.177-25.31-25.954-41.735-51.344-46.815-8.631-1.73-8.334-4.407-4.534-11.365 15.16-27.84 29.874-55.956 44.657-84.023 2.213-4.2 4.028-8.637 5.874-13.035m-1.538-106.003c-1.28-3.805 2.599-5.11 5.576-6.117 6.806-2.313 13.81-1.69 20.815-2.254 13.285 1.305 26.56 2.758 39.865 3.855 6.618.533 10.596 3.696 9.772 10.85-.862 7.482.804 17.395-10.268 18.284-8.761.712-17.591.702-26.391.593-15.438-.188-27.324 5.06-32.424 21.95-.556 1.848-.694 6.167-4.475 3.498-2.52-1.78-7.054-3.004-5.13-7.67 5.795-14.052 7.67-28.115 2.66-42.99m-30.818 41.787c3.456 5.69-4.944 11.16-8.672 5.645a33 33 0 0 1-1.556-2.583c-26.371-48.15-56.175-93.906-87.14-138.892-20.786-30.182-48.467-44.215-82.805-46.993-87.628-7.086-175.373-11.968-263.22-13.114-51.65-.672-103.312 3.073-154.894 6.503-31.848 2.115-63.666 4.823-95.534 6.433-37.553 1.888-67.556 17.097-89.691 50.343-29.923 44.947-59.638 89.993-85.871 137.479-2.363 4.276-4.973 6.723-8.355 7.546-3.766.915-6.718-3.287-4.695-6.582l.033-.055c32.017-51.963 62.694-104.866 97.688-154.714 4.346-6.197 9.058-12.097 13.712-18.036 26.113-33.384 59.886-49.8 100.574-52.675 136.084-9.606 272.207-9.745 408.38-3.49 21.242.98 42.425 3.37 63.647 4.883 38.585 2.767 68.448 22.543 92.449 53.328 29.268 37.524 53.517 78.795 78.36 119.59 9.66 15.866 18.18 29.899 27.59 45.384m-897.9 49.076c11.044-9.082 22.096-18.145 33.069-27.326 2.858-2.391 6.112-2.678 9.455-2.658 48.697.265 96.877-1.028 142.972-2.756a4.7 4.7 0 0 1 4.883 4.692v4.99a4.704 4.704 0 0 1-4.293 4.679q-5.142.46-10.282.904c-6.864.592-14.652 1.093-13.303 12.757-4.321-3.627-3.925-8.66-6.892-14.395-7.38 11.307-18.987 7.395-29.854 10.703 6.688 4.699 14.29 6.92 21.055 10.77 4.212 2.397 1.939 8.854-2.863 8.167-20.292-2.905-40.185-5.015-60.576-10.948-2.091-.61-2.207-3.542-.152-4.262 14.364-5.03 28.267-5.465 41.187-9.895-32.604-2.898-64.484-1.663-93.594 16.547-1.693 1.059-4.657 1.505-4.16 4.388.606 3.51 3.788 2.529 6.014 2.675 11.532.757 23.093 1.09 34.605 2.07 26.648 2.269 53.434 4.09 80.003 8.329 10.674 1.704 12.71 3.844 16.09 14.566 7.69 24.385 15.686 49.862 28.155 72.066 4.099 8.457 8.169 14.994 11.943 20.117-5.115-1.427-10.73-1.653-15.952-2.221a540 540 0 0 0-20.671-1.83c-27.547-1.917-55.184-1.873-82.78-1.394-8.748.15-13.49.346-22.237.537-6.002.138-9.128-1.582-12.044-7.146-15.45-29.52-31.372-58.753-47.03-88.154-2.231-4.18-4.027-8.637-5.774-13.084-1.963-4.981-1.21-9.41 3.027-12.888m-20.141 5.983c3.453-4.167 4.347-1.72 5.58 3.693.878 3.85 2.545 8.568 5.703 14.863 14.803 29.51 30.628 58.447 46.373 87.423 3.969 7.293 4.267 10.002-5 11.78-30.49 5.84-50.907 31.259-56.474 68.517-.813 5.396-.957 6.184-1.125 11.61-.19 6.404-2.541 8.45-8.513 7.175-15.488-3.281-30.995-6.444-46.582-9.131-5.248-.9-6.984-3.756-7.868-8.747-2.184-12.344-.855-24.874.916-37.178 2.124-14.764 5.347-28.962 12.135-42.343 6.933-13.665 15.738-26.268 23.074-39.708 1.519-2.783 3.143-5.575 4.324-8.52.73-1.821 1.569-4.07 1.233-6.074-1-5.96-10.092 5.106-11.352 6.8a128 128 0 0 0-6.741 10.034c-14.307 23.609-32.841 34.905-60.125 26-13.027-4.24-20.14.13-25.111 13.689-3.041 8.288-5.24 16.728-6.77 25.267a2.93 2.93 0 0 1-2.88 2.42h-.316c-1.766 0-3.14-1.546-2.91-3.29a377 377 0 0 1 4.76-27.925c2.103-10.061 6.717-17.365 14.436-23.462 17.938-14.192 37.86-24.707 58.329-33.483 25.92-11.101 47.087-27.916 64.904-49.41m-27.282-71.427c-9.406-.098-18.831-.02-28.217-.691-9.257-.672-11.747-5.021-11.965-17.69-.15-8.292 3.929-11.177 11.142-11.741 12.997-.998 25.964-2.48 38.95-3.775 7.036.385 14.01.336 20.807 2.53 4.494 1.452 6.38 3.903 4.574 9.299-4.167 12.413-2.927 24.836 2.4 36.458 2.66 5.8.259 8.41-3.67 10.663-5.546 3.192-5.011-2.905-5.834-5.267-4.871-14.044-14.704-19.657-28.187-19.786m1143.373 598.815c-3.961-.4-7.983-.853-11.774-1.286 7.352-10.066 8.27-21.762 9.085-32.111.188-2.388.365-4.643.613-6.882 6.27-56.725 4.272-111.473 1.007-177.151-.344-6.93-.832-13.952-1.303-20.742-1.314-18.932-2.673-38.51-1.003-57.595 3.21-36.681.918-73.073-1.75-103.833-2.727-35.02-16.222-55.7-45.125-69.142-3.365-1.565-6.61-3.402-10.057-5.355-2.465-1.395-5.014-2.84-7.62-4.176-10.907-5.6-22.026-11.218-32.78-16.651l-.257-.13q-4.846-2.447-9.691-4.898c-16.37-8.281-28.512-21.56-41.708-38.95-3.08-4.057-2.015-8.76.106-16.02q.22-.75.433-1.491c.605.013 1.383.12 2.213.236 1.084.15 2.314.32 3.563.32q.54 0 1.046-.041a496 496 0 0 1 8.496-.615c10.896-.725 22.163-1.475 33.229-5.023 6.597-2.115 14.738-5.814 19.178-15.732 6.009-13.428 7.555-27.928 4.727-44.33-1.886-10.948-8.448-17.45-18.974-18.804-17.413-2.24-31.655-3.282-44.823-3.282-3.281 0-6.552.067-9.722.2-11.231.47-17.917 2.789-22.355 7.753-4.261 4.764-6.124 11.757-6.231 23.382-.06 6.563-.11 13.544.01 20.4.062 3.482-.61 6.74-2.051 9.96q-.135.3-.258.567l-.016-.027c-4.482-7.795-9.313-15.485-13.993-22.935-3.113-4.956-6.331-10.08-9.398-15.16q-3.505-5.805-7.004-11.614c-22.986-38.144-46.754-77.587-73.532-114.058-26.114-35.57-51.581-54.91-82.575-62.712-15.857-3.993-31.84-5.457-49.59-6.834-57.437-4.455-115.707-5.672-175.323-6.617a3464 3464 0 0 0-54.498-.44c-81.467 0-156.23 2.993-228.562 9.146-35.182 2.992-65.116 17.73-88.97 43.8-9.501 10.386-17.592 20.363-24.733 30.502-23.89 33.907-45.831 69.932-67.06 104.784-9.71 15.943-19.75 32.428-29.87 48.527-.671 1.07-1.192 2.219-1.71 3.358-.128.284-.283.626-.447.972-.45-1.076-.958-2.815-1.514-5.177l-.188-.798c-.372-1.553-.355-3.484-.337-5.528q.01-.993.005-1.972a532 532 0 0 1 .01-8.092v-.031c.028-4.645.058-9.448-.127-14.22-.666-17.157-8.055-25.368-23.96-26.621a190 190 0 0 0-14.822-.564c-16.22 0-32.488 1.934-46.263 3.826-8.67 1.19-14.554 7.025-16.573 16.43-2.87 13.369-2.334 26.693 1.588 39.6 3.673 12.082 11.24 19.513 23.138 22.716 11.517 3.103 23.165 3.849 34.438 4.572 3.24.208 6.59.422 9.876.69.296.025.599.037.926.037.745 0 1.456-.064 2.083-.12l.034-.003c.23.939.474 1.874.69 2.7 1.76 6.72 2.673 11.052-.605 15.279-16.704 21.536-33.41 35.489-52.577 43.91-26.741 11.75-49.388 24.459-69.234 38.852-11.508 8.345-18.432 19.645-21.17 34.543-4.812 26.173-9.976 60.765-7.183 96.229 2.644 33.559.994 67.655-.601 100.629-.317 6.56-.646 13.346-.937 20.075-.166 3.8-.334 7.6-.504 11.41-1.867 41.967-3.797 85.362.306 128.136.46 4.79.685 9.802.903 14.649.736 16.325 1.495 33.204 10.776 48.256-2.741.343-5.685.726-8.69 1.193-.476.075-1.278.08-2.056.086-2.732.023-6.475.052-9.2 2.837-1.671 1.708-2.493 3.992-2.442 6.788.066 3.659 1.828 6.512 4.964 8.033 2.062 1 4.253 1.205 6.185 1.385.852.08 1.732.162 2.257.297.954.244 1.776.257 2.32.264h.072q.105.001.203.006c39.352 3.947 79.836 7.338 123.763 10.368 80.046 5.52 152.323 10.138 226.27 10.737 125.158 1.013 236.168 1.505 339.372 1.505 33.328 0 66.5-.052 98.595-.156 151.319-.488 298.91-6.826 438.675-18.837a1450 1450 0 0 0 42.805-4.32l.123-.014c1.452-.168 3.645-.421 5.662-1.461 3.153-1.625 4.874-4.64 4.722-8.27-.338-8.077-8.153-8.865-10.721-9.124"/></g></svg>