<svg xmlns="http://www.w3.org/2000/svg" xmlns:xlink="http://www.w3.org/1999/xlink" xmlns:inkscape="http://www.inkscape.org/namespaces/inkscape" version="1.1" width="1296" height="1296" viewBox="0 0 1296 1296">
<g inkscape:groupmode="layer" inkscape:label="Layer 1">
<path transform="matrix(1,0,0,-1,1068.7959,643.1309)" d="M0 0-31.981 77.97-.037 95.601ZM-184.883-363.653-133.383-299.292-101.893-317.039ZM-653.668 313.835-707.592 246.995-740.189 265.239ZM-315.091 353.606-320.838 355.828V388.226L-239.631 342.615ZM-99.441 263.876-129.49 247.292-178.499 308.28ZM-44.71 109V165.689L-.043 109.304-.042 107.949-36.112 88.041ZM-44.71-19.921V70.945L-41.711 72.6-3.761-19.921ZM-33.088-131.511 .021-52.029 .059-150.191ZM-227.432-337.449-146.181-292.079-143.049-293.845-206.24-372.818ZM-321.727-403.046-231.22-389.68-321.843-440.581ZM-522.109-402.74-522.223-439.453-609.985-390.159ZM-709.236-297.458-654.596-365.103-742.306-315.838ZM-780.49-244.835-728.124-274.075-716.133-288.919-752.621-309.199-772.35-264.187ZM-809.671-129.755-841.747-147.583-841.709-52.69ZM-841.65 98.112-809.101 79.894-841.689 .602ZM-725.245 225.114-780.237 194.407-752.13 258.533-751.242 259.032-714.48 238.457ZM-614.389 287.015-696.838 240.976-697.9 241.571-634.354 320.338ZM-521.22 355.828-539.721 348.674-609.498 338.644-521.22 388.226ZM-286.318 330.928-292.231 323.065-320.838 339.039V343.595L-318.015 343.184ZM-237.292 292.387-282.573 317.671-268.964 335.77-270.08 336.202-215.815 328.298ZM-143.091 239.785-227.687 287.023-205.803 323.615-204.102 322.66-139.222 241.92ZM-61.342 74.116-86.061 82.266-55.801 103.431V77.174ZM-226.09-19.921-229.859-18.313-97.072 74.564-60.188 62.402-55.801 64.824V-19.921ZM-55.801-118.71-60.877-115.849-96.535-127.259-229.403-33.28-223.23-30.648H-55.801ZM-44.71-124.961V-30.648H-3.03L-42.771-126.053ZM-318.247-185.872-318.83-180.682-169.982-243.279-161.766-283.296-157.221-285.857-232.992-328.168ZM-321.647-377.671-321.629-371.999-347.085-350.113-331.052-190.642-326.112-194.14-242.598-333.531ZM-321.686-390.079-237.037-342.812-216.739-376.689-321.692-392.19ZM-333.883-445.771-404.426-436.28-353.244-407.701-332.822-404.685-332.948-445.249ZM-604.527-343.09-522.066-389.136-522.075-391.901-624.914-377.179ZM-697.716-291.055-614.133-337.727-634.766-372.228-699.523-292.059ZM-720.847-265.66-686.193-250.904-691.325-275.131-697.703-278.676-720.711-265.828ZM-797.352-159.388V-216.205L-841.48-160.847-841.475-159.804-805.493-139.805ZM-797.352-30.648V-122.907L-799.96-124.357-838.919-30.648ZM-797.352 73.318V-19.921H-838.188L-799.397 74.463ZM-797.352 108.481-804.959 89.97-841.199 110.252-841.2 111.295-797.352 165.96ZM-524.055 136.241-523.411 130.517-672.894 194.065-680.807 232.003-685.76 234.776-608.829 277.734ZM-552.928 308.95-498.671 236.794-509.067 137.48-514.123 141.06-599.224 283.098ZM-521.22 340.489V339.041L-549.828 323.066-555.74 330.928-536.807 338.249ZM-331.929 326.009-347.514 312.691-350.657 343.305-331.929 332.847ZM-341.809 257.133-346.162 299.532-320.838 321.173V326.654L-298.79 314.342ZM-327.689 141.234-329.757 139.77-340.161 241.086-289.132 308.949-242.845 283.103ZM-159.506 230.725-167.001 195.879-318.503 131.807-318.037 135.95-233.239 277.739-154.245 233.628ZM-121.274 215.217-154.538 201.149-149.665 223.806-143.122 227.417ZM-325.468 22.458-181.347 102.352-109.935 78.805-241.617-13.3ZM-335.842-66.947-336.147-66.776-314.581-30.648H-251.913L-251.465-30.965ZM-180.002-153.966-323.938-73.595-241.125-38.278-109.472-131.397ZM-329.849-82.681-186.525-162.709-172.611-230.477-320.211-168.404ZM-415.483-117.569V-117.432H-372.07L-340.186-170.649-340.207-170.865ZM-415.483-291.305V-130.863L-341.455-183.276-357.342-341.294ZM-476.287-402.312-481.648-351.408-426.575-304.631V-430.07ZM-510.935-376.283-491.881-360.101-488.133-395.697-510.956-382.953ZM-515.08-193.525-509.816-189.799-493.261-346.996-522.011-371.415-522.028-376.771-598.974-333.805ZM-512.016-80.955-521.942-169.243-671.02-232.723-655.749-160.635ZM-742.01-138.14-676.22-159.619-786.261-220.62V-169.394ZM-780.115-125.699-754.872-133.941-786.261-156.111V-129.115ZM-618.828-30.648-612.468-33.36-743.91-126.198-781.306-113.989-786.261-116.743V-30.648ZM-781.172 64.263-746.279 75.541-612.253-18.337-615.969-19.921H-786.261V67.111ZM-786.261 103.546-757.327 83.28-779.945 75.97-786.261 79.504ZM-512.287 31.576-655.706 111.658-670.212 181.208-522.028 118.211ZM-510.253 113.206-478.709 60.556-500.079 24.759-500.383 24.929-510.311 113.23ZM-426.575 65.78V65.643H-468.938L-500.011 117.505-499.985 117.755ZM-426.575 140.916V79.074L-498.689 130.132-488.885 223.781ZM-482.182 287.812-426.575 240.291V159.153L-487.209 239.791ZM-492.415 296.557-496.995 252.804-543.269 314.343-521.22 326.655V321.173ZM-415.483 254.608V310.689L-362.432 349.429-357.76 303.936ZM-415.483 159.153V240.293L-356.409 290.776-351.615 244.092ZM-415.483 79.074V140.916L-349.967 228.045-340.147 132.414ZM-426.575-130.863V-290.354L-483.028-338.304-499.441-182.453ZM-469.572-117.432H-426.575V-117.569L-501.445-170.578ZM-479.025-111.814-510.188-163.921-500.319-76.145ZM-589.822-30.648H-527.478L-506.615-65.598-507.818-66.265-590.393-31.051ZM-372.896 65.643H-415.483V65.78L-341.479 118.177ZM-342.389 25.442-363.238 60.369-331.776 112.976-341.566 25.897ZM-588.478-19.921-505.67 15.392-526.75-19.921ZM-426.575 310.918V254.605L-480.807 300.951-475.787 348.899ZM-517.47 22.083-600.5-13.324-733.34 79.723-661.994 102.783ZM-663.367-152.493-731.048-130.397-600.742-38.36-519.771-72.891ZM-362.825-111.467-341.74-76.145-331.98-162.949ZM-315.309-19.921-336.389 15.392-253.581-19.921ZM-329.669 32.493-319.885 119.515-169.771 183-184.879 112.758ZM-487.856 345.286-487.305 345.365-491.039 309.695-510.129 326.009V332.849ZM-674.823 109.946-744.389 87.462-786.261 116.791V172.171ZM-673.75-245.605-523.327-181.554-523.927-186.895-608.58-328.441-686.599-284.876-681.464-282.021ZM-363.34-400.952-415.483-430.068V-305.657L-358.67-354.505ZM-332.758-383.875-351.533-394.359-348.413-363.324-332.735-376.804ZM-85.537-135.038-62.141-127.552-55.801-131.125V-156.07ZM-55.801-169.36V-223.316L-167.139-161.148-98.474-139.178ZM-55.801 116.669-98.923 86.507-168.528 109.458-55.801 171.949ZM-60.884 181.495-172.018 119.888-157.309 188.27-109.344 208.555ZM-571.237 333.299-559.487 317.673-604.784 292.379-624.696 325.614ZM-696.845 228.586-690.69 225.142-685.309 199.343-720.052 214.113-717.829 216.869ZM-733.505 208.115-682.627 186.485-668.511 118.809-780.977 181.607ZM-782.884-231.112-668.577-167.745-683.464-238.021-732.85-259.05ZM-511.022-404.327-489.286-407.439-438.156-435.99-510.218-445.256-511.148-444.729ZM-146.155-279.679-151.861-276.463-157.605-248.484-119.556-264.485-120.049-265.102ZM-107.26-257.96-160.234-235.682-173.754-169.841-61.601-232.465ZM-89.308 257.119-61.824 194.406-107.479 219.899-122.615 238.735ZM-331.929 394.456V360.116L-399.441 386.22-332.861 394.979ZM-509.197 394.979-442.618 386.22-510.129 360.116V394.456ZM-89.93-310.32-90.859-310.843-126.536-290.735-112.612-273.336-61.761-244.94-81.895-291.988ZM-23.058-190.389-44.71-217.215V-159.412L-37.276-141.565-1.041-161.987ZM11.046 114.825-44.71 184.056-45.262 185.158-78.405 264.636-88.152 270.107-88.302 270.024-196.667 330.889-209.812 338.271-323.597 402.18-330.582 406.105-419.9 394.354H-422.162L-470.006 400.649-511.476 406.105-512.148 405.728-761.694 266.386-796.746 184.225-852.735 114.825-852.845-164.136-852.589-164.465V-164.479L-852.207-164.959-797.495-235.539-782.59-268.308-762.09-317.019-511.476-457.895-421.029-445.993-330.583-457.895-90.869-323.252-90.784-323.301-80.986-317.914-71.682-296.172-44.194-235.539-14.241-196.898 11.155-164.136Z" fill="#030505"/>
</g>
</svg>
