<svg xmlns="http://www.w3.org/2000/svg" width="1296" height="1296" viewBox="0 0 1296 1296"><path fill="#030505" d="m1068.796 643.13-31.981-77.97 31.944-17.63Zm-184.883 363.654 51.5-64.361 31.49 17.747ZM415.128 329.296l-53.924 66.84-32.597-18.244Zm338.577-39.771-5.747-2.222v-32.398l81.207 45.61Zm215.65 89.73-30.05 16.584-49.008-60.988Zm54.73 154.876v-56.69l44.668 56.386v1.355l-36.07 19.908Zm0 128.92v-90.865l3-1.655 37.95 92.52Zm11.623 111.59 33.109-79.481.038 98.162ZM841.364 980.58l81.25-45.37 3.133 1.766-63.191 78.973Zm-94.295 65.597 90.507-13.366-90.623 50.9Zm-200.382-.306-.114 36.713-87.762-49.294ZM359.56 940.589l54.64 67.645-87.71-49.265Zm-71.254-52.623 52.366 29.24 11.99 14.844-36.487 20.28-19.73-45.012Zm-29.181-115.08-32.076 17.828.038-94.893Zm-31.98-227.867 32.55 18.218-32.588 79.292Zm116.406-127.002-54.992 30.707 28.107-64.126.888-.5 36.762 20.576Zm110.856-61.901-82.45 46.039-1.061-.595 63.546-78.767Zm93.169-68.813-18.501 7.154-69.777 10.03 88.278-49.582Zm234.902 24.9-5.913 7.863-28.607-15.974v-4.556l2.823.41Zm49.026 38.54-45.281-25.283 13.609-18.1-1.116-.431 54.265 7.904Zm94.2 52.603-84.595-47.238 21.884-36.592 1.7.955 64.88 80.74Zm81.75 165.669-24.72-8.15 30.26-21.165v26.257Zm-164.748 94.037-3.77-1.608 132.788-92.877 36.884 12.162 4.387-2.422v84.745Zm170.289 98.789-5.076-2.861-35.658 11.41-132.868-93.98 6.173-2.631h167.429Zm11.09 6.25V673.78h41.68l-39.74 95.405ZM750.55 829.004l-.583-5.19 148.848 62.597 8.216 40.017 4.545 2.56-75.771 42.312Zm-3.4 191.799.018-5.672-25.456-21.886 16.033-159.471 4.94 3.498 83.514 139.39Zm-.04 12.408 84.65-47.267 20.298 33.877-104.953 15.5Zm-12.196 55.692-70.543-9.491 51.182-28.58 20.422-3.015-.126 40.564ZM464.269 986.22l82.46 46.046-.008 2.765-102.84-14.722Zm-93.19-52.035 83.584 46.672-20.633 34.5-64.757-80.168Zm-23.13-25.395 34.654-14.756-5.132 24.227-6.378 3.545-23.008-12.848Zm-76.505-106.272v56.817l-44.128-55.358.005-1.043 35.982-20Zm0-128.74v92.259l-2.608 1.45-38.96-93.71Zm0-103.966v93.239h-40.836l38.79-94.384Zm0-35.163-7.607 18.51-36.24-20.281-.001-1.043 43.848-54.665Zm273.297-27.76.644 5.724-149.483-63.548-7.913-37.938-4.953-2.773 76.93-42.958Zm-28.873-172.71 54.257 72.157-10.396 99.314-5.056-3.58-85.101-142.038Zm31.708-31.538v1.448l-28.608 15.975-5.912-7.862 18.933-7.321Zm189.29 14.48-15.584 13.318-3.143-30.614 18.728 10.458Zm-9.88 68.876-4.352-42.4 25.324-21.64v-5.481l22.048 12.312Zm14.12 115.899-2.067 1.464-10.404-101.316 51.029-67.863 46.287 25.846Zm168.184-89.491-7.495 34.846-151.502 64.072.466-4.143 84.798-141.79 78.994 44.112Zm38.232 15.508-33.264 14.068 4.873-22.657 6.543-3.611Zm-204.194 192.76 144.12-79.894 71.413 23.547-131.682 92.105Zm-10.374 89.405-.305-.171 21.566-36.128h62.668l.448.317Zm155.84 87.019-143.936-80.371 82.813-35.317 131.653 93.119Zm-149.847-71.285L882.27 805.84l13.914 67.768-147.6-62.073ZM653.313 760.7v-.137h43.413l31.884 53.217-.021.216Zm0 173.736V773.994l74.028 52.413-15.887 158.018Zm-60.804 111.007-5.361-50.904 55.073-46.777V1073.2Zm-34.648-26.03 19.054-16.181 3.748 35.596-22.823-12.744Zm-4.145-182.757 5.264-3.726 16.555 157.197-28.75 24.419-.017 5.356-76.946-42.966Zm3.064-112.57-9.926 88.288-149.078 63.48 15.27-72.088ZM326.786 781.27l65.79 21.479-110.041 61v-51.225Zm-38.106-12.44 25.243 8.242-31.39 22.17v-26.996Zm161.287-95.051 6.36 2.712-131.442 92.838-37.396-12.21-4.955 2.755v-86.095Zm-162.344-94.911 34.893-11.278 134.026 93.878-3.716 1.584H282.535V576.02Zm-5.09-39.283 28.935 20.266-22.618 7.31-6.316-3.534Zm273.975 71.97-143.42-80.082-14.505-69.55 148.184 62.997Zm2.034-81.63 31.544 52.65-21.37 35.797-.304-.17-9.928-88.301Zm83.678 47.426v.137h-42.363l-31.073-51.862.026-.25Zm0-75.136v61.842l-72.114-51.058 9.804-93.65Zm-55.607-146.896 55.607 47.52v81.139l-60.634-80.638Zm-10.233-8.745-4.58 43.753-46.274-61.54 22.049-12.311v5.482Zm76.932 41.949v-56.081l53.05-38.74 4.673 45.493Zm0 95.455v-81.14l59.074-50.483 4.794 46.684Zm0 80.079v-61.842l65.516-87.13 9.82 95.632ZM642.22 773.994v159.49l-56.453 47.95-16.413-155.85Zm-42.997-13.431h42.997v.137l-74.87 53.009Zm-9.453-5.618-31.163 52.107 9.869-87.776Zm-110.797-81.166h62.344l20.863 34.95-1.203.667-82.575-35.214ZM695.9 577.488h-42.587v-.137l74.004-52.397Zm30.507 40.2-20.85-34.926 31.463-52.607-9.79 87.079Zm-246.09 45.364 82.809-35.313-21.08 35.313Zm161.904-330.84v56.314l-54.232-46.346 5.02-47.948Zm-90.895 288.836-83.03 35.407-132.84-93.047 71.346-23.06ZM405.429 795.624l-67.681-22.096 130.306-92.037 80.97 34.53Zm300.542-41.026 21.085-35.322 9.76 86.804Zm47.516-91.546-21.08-35.313 82.808 35.313Zm-14.36-52.414 9.784-87.022 150.114-63.485-15.108 70.242ZM580.94 297.845l.55-.08-3.733 35.67-19.09-16.313v-6.84Zm-186.967 235.34-69.566 22.484-41.872-29.33v-55.38Zm1.073 355.55 150.423-64.05-.6 5.34-84.653 141.547-78.02-43.565 5.136-2.855Zm310.41 155.348-52.143 29.116V948.788l56.813 48.848Zm30.582-17.077-18.775 10.484 3.12-31.035 15.678 13.48Zm247.22-248.837 23.397-7.486 6.34 3.573V799.2Zm29.737 34.322v53.956l-111.338-62.168 68.665-21.97Zm0-286.03-43.122 30.163-69.605-22.951 112.727-62.491Zm-5.083-64.825-111.134 61.607 14.709-68.382 47.965-20.285ZM497.559 309.832l11.75 15.626-45.297 25.294-19.912-33.235ZM371.95 414.545l6.155 3.444 5.38 25.799-34.742-14.77 2.223-2.756Zm-36.66 20.47 50.878 21.63 14.116 67.677-112.466-62.798Zm-49.38 439.228 114.308-63.367-14.887 70.276-49.386 21.029Zm271.863 173.215 21.736 3.112 51.13 28.55-72.062 9.267-.93-.527ZM922.64 922.81l-5.706-3.216-5.744-27.98 38.049 16.002-.493.617Zm38.895-21.72-52.974-22.277-13.52-65.841 112.153 62.624Zm17.952-515.078 27.484 62.713-45.655-25.493-15.136-18.836Zm-242.62-137.337v34.34l-67.512-26.104 66.58-8.76Zm-177.268-.523 66.579 8.759-67.511 26.104v-34.34ZM978.866 953.45l-.93.523-35.676-20.108 13.924-17.4 50.85-28.395-20.133 47.048Zm66.872-119.931-21.652 26.826v-57.803l7.434-17.847 36.235 20.422Zm34.104-305.214-55.756-69.231-.552-1.102-33.143-79.478-9.747-5.471-.15.083-108.365-60.865-13.145-7.382-113.785-63.91-6.985-3.924-89.318 11.75h-2.262l-47.844-6.294-41.47-5.456-.672.377-249.546 139.342-35.052 82.16-55.99 69.4-.11 278.962.257.329v.014l.382.48 54.712 70.58 14.905 32.769 20.5 48.71 250.614 140.877 90.447-11.902 90.446 11.902 239.714-134.643.085.049 9.798-5.387 9.304-21.742 27.488-60.633 29.953-38.641 25.396-32.762Z"/></svg>