<svg xmlns="http://www.w3.org/2000/svg" width="2048" height="1920" viewBox="0 0 2048 1920"><defs><clipPath id="clip_1"><path d="M0 0h2048v1920H0Z"/></clipPath></defs><g clip-path="url(#clip_1)"><path fill="#231f20" d="M1273.322 793.818c13.488-5.867 27.58-10.492 39.668-19.233-15.778 1.167-28.487 8.631-39.668 19.233m-201.553 150.135c5.968.193 10.137-.74 14.12-2.89 3.274-1.768 5.497-4.325 5.227-7.908-.272-3.6-3.035-5.71-6.38-7.059-5.62-2.267-10.725-.783-15.572 2.045-3.898 2.275-7.623 5.15-6.512 10.36 1.22 5.722 6.31 5.158 9.117 5.452m-34.775-78.93c-3.861.157-8.35-.95-9.625 3.551-1.355 4.79 3.038 6.706 6.327 8.526 6.177 3.417 13.174 4.231 19.996 5.401 3.119.535 6.597.033 7.725-3.41 1.206-3.684-.975-6.367-4.206-8.222-6.373-3.658-13.165-5.766-20.217-5.847m162.172 56.832c5.087.285 8.28-.2 11.485-1.595 6.637-2.889 8.75-8.21 7.117-14.534-1.752-6.78-7.71-6.78-13.335-6.014-2.535.345-5.161.996-7.428 2.14-5.372 2.71-13.576 4.5-12.132 12.01 1.42 7.382 9.582 7.344 14.293 7.993m-214.95 215.531c-7.854.601-15.235 1.77-21.763 6.118-2.481 1.653-4.715 3.584-4.628 6.73.104 3.718 3.288 5.112 6.095 6.382 7.913 3.583 15.877 4.381 24.005.331 5.387-2.685 12.102-4.856 10.697-12.313-1.465-7.776-8.954-6.316-14.405-7.248m181.477-331.274c-1.697 2.432-3.485 4.807-5.076 7.307-8.084 12.698-18.903 23.536-25.572 37.163-3.265 6.67-1.606 13.631 3.586 15.56 7.079 2.631 9.416-3.166 12.19-7.804 9.529-15.927 10.515-34.437 14.872-52.226m13.509 160.707c-5.435.711-10.864 1.276-16.232 2.2-1.944.333-4.247 1.004-4.744 3.444-.435 2.135 1.21 3.397 2.734 4.325 13.382 8.151 27.333 14.941 43.349 15.572 8.269.325 10.634-3.99 6.607-11.42-6.938-12.805-19.61-12.77-31.714-14.12m-161.372-24.707c2.34 0 4.703.214 7.013-.045 4.686-.524 9.674-1.16 11.185-6.642 1.469-5.33-2.482-8.71-5.815-11.77-2.011-1.847-4.925-2.91-7.608-3.79-12.197-3.999-24.523-3.863-36.865-.632-3.064.803-6.47 1.793-7.052 5.297-.57 3.416 2.177 5.657 4.72 7.497 10.266 7.431 21.912 10.272 34.422 10.085m-22.717 69.087c5.479-.492 10.306.134 15.239-1.392 4.1-1.268 8.253-1.426 9.18-6.664.93-5.248-2.114-8.413-6.052-10.8-17.937-10.87-35.892-7.734-53.62.488-6.734 3.123-6.685 6.331-.061 10.102 11.115 6.327 23.405 7.844 35.314 8.266m76.57 132.502c-10.006-.114-14.888 7.682-10.783 17.774 6.58 16.183 20.05 23.874 36.02 27.814 6.199 1.53 9.77-2.039 10.036-8.523.619-15.125-20.093-36.89-35.272-37.065m-140.107 311.507c-9.363.608-15.152 6.376-19.044 14.09-4.66 9.234-8.547 18.854-13.025 28.183-2.047 4.265-.785 5.191 3.555 5.618 10.096.992 20.188 1.165 30.309 1.123 11.672-.049 11.66.007 10.817-11.683-.112-1.55.116-3.133-.06-4.673-.962-8.459-1.76-16.948-3.106-25.347-.796-4.959-4.217-7.522-9.446-7.31m65.947-396.167c-12.595-.484-22.182 1.802-28.436 6.135-8.456 5.86-8.704 13.46-.64 19.657 11.839 9.098 36.39 10.476 48.846 2.485 4.463-2.863 8.353-6.897 8.063-12.517-.303-5.869-4.395-9.84-9.577-12.248-6.493-3.014-13.495-3.667-18.256-3.512m102.04 23.826c-11.445.005-17.037 9.121-11.534 19.103 1.48 2.686 3.495 5.23 5.752 7.308 11.163 10.282 24.01 18.116 37.4 25.107 5.003 2.611 10.59 2.998 14.54-.872 3.829-3.749 2.77-9.286.638-13.938-6.738-14.692-17.791-25.354-31.956-32.767-4.544-2.378-9.501-4.114-14.84-3.94m72.49-17.592c7.193.068 10.96-5.1 7.984-14.15-.801-2.434-1.741-4.983-3.258-6.996-7.673-10.174-16.161-19.494-27.235-26.236-5.632-3.428-11.338-6.356-17.938-6.995-6.428-.622-11.87 1.45-15.376 7.11-3.473 5.604-2.092 11.08 1.535 15.973 7.73 10.43 18.16 17.663 29.393 23.778 7.094 3.862 14.522 6.948 24.896 7.516m-64.814-384.936c1.115-17.214-3.205-33.033-12.924-47.142-9.138-13.266-19.63-25.175-36.968-27.439-12.231-1.597-16.635 3.493-12.107 14.897 10.18 25.64 20.82 51.102 31.588 76.503 2.624 6.191 6.37 11.934 12.39 15.662 6.878 4.26 11.676 2.594 14.635-4.876 3.538-8.934 2.979-18.345 3.386-27.605m-56.421 771.821c2.026-26.973-7.95-57.379-15.793-77.086-3.41-8.57-8.074-16.329-15.507-21.966-4.18-3.169-9.01-5.745-14.434-3.357-5.732 2.524-5.12 7.954-4.767 12.9.202 2.83.785 5.702 1.659 8.406 13.285 41.127 20.69 83.264 21.883 126.48.066 2.39-.17 4.84 3.208 5.16 4.917.465 9.827.996 14.742 1.473 3.894.377 5.33-1.313 5.84-5.318 1.975-15.513 3.499-31.033 3.169-46.692m-183.754 52.033c4.42 0 7.825-.227 11.185.066 3.157.276 4.829-1.228 5.937-3.808 7.455-17.35 16.102-34.442 19.91-52.937 3.42-16.618 11.082-30.997 18.55-45.71 4.313-8.498 10.116-16.245 12.425-25.77 1.378-5.686-.422-7.416-5.838-5.958-6.024 1.622-11.88 3.575-17.198 7.042-13.965 9.103-22.672 22.765-31.341 36.334-16.935 26.505-26.455 56.312-37.385 85.485-1.378 3.677.225 3.97 3.03 3.988 7.275.045 14.424 2.237 20.725 1.268m473.826-233.506 1.026-.4c-2.18-13.777-4.261-27.57-6.56-41.328-4.401-26.338-14.39-49.912-33.226-69.492-16.573-17.228-33.717-33.84-51.717-49.523-10.706-9.328-21.044-19.454-34.881-24.412-3.51-1.257-7.39-2.442-10.343.427-3.084 2.996-1.467 6.86.079 10.126 1.774 3.75 3.722 7.482 6.096 10.871 10.069 14.376 22.572 26.537 35.643 38.104 24.834 21.975 48.738 44.78 65.358 73.96 9.735 17.093 19.03 34.437 28.525 51.667M879.32 1066.62c-13.474.662-33.04 3.062-51.966 9.337-26.064 8.643-48.788 22.091-64.468 45.403-2.492 3.706-6.71 8.56-3.638 12.476 2.535 3.233 8.209 1.07 12.514-.03 14.547-3.714 28.347-9.54 42.352-14.793 28.203-10.578 57.935-15.066 87.086-21.874 9.054-2.114 18.093-4.453 25.77-10.053 3.583-2.614 7.204-5.5 6.442-10.762-.807-5.572-5.604-6.622-9.762-7.52-12.511-2.702-25.21-3.617-44.33-2.184m206.327 435.762c14.534 1.051 27.22 2.166 40.003 1.856 4.538-.11 6.707-1.094 6.114-6.285-4.08-35.734-6.403-71.652-13.637-107.03-6.136-30.012-12.421-59.939-25.621-87.75-7.101-14.963-14.48-30.11-27.725-40.998-5.22-4.29-11.808-9.152-18.078-4.643-5.994 4.311-2.196 11.468-.188 17.287 6.75 19.563 17.498 37.164 27.48 55.112 24.425 43.91 34.48 91.265 33.998 141.101-.12 12.297-3.705 23.222-17.015 27.88-1.37.478-2.512 1.604-5.331 3.47M875.522 731.9c6.223 3.605 12.4 7.293 18.678 10.801 37.243 20.812 74.234 42.016 108.243 67.984 34.313 26.2 66.743 54.823 102.285 79.444 10.18 7.052 9.973 7.114 5.475 18.75-1.36 3.516-2.495 4.746-6.728 3.635-26.301-6.903-52.905-12.704-79.047-20.143-49.272-14.02-98.213-29.205-147.472-43.27-18.37-5.245-37.292-8.327-56.735-6.872 1.888 1.328 3.917 2.207 6.026 2.8 28.668 8.062 57.457 15.715 85.998 24.202 41.722 12.407 83.368 25.072 125.447 36.217 20.255 5.364 40.714 9.957 61.013 15.163 2.613.671 7.68.646 5.19 6.123-6.371 14.018-8.845 29.344-14.69 43.544-1.755 4.262-3.773 4.837-8.31 3.271-17.187-5.932-35.095-8.956-53.055-11.453-42.294-5.88-84.766-10.239-127.335-13.41-42.145-3.139-84.358-4.629-126.315 2.46-13.123 2.215-26.12 5.256-39.427 10.941 1.714.838 2.367 1.463 2.909 1.38 27.248-4.238 54.65-6.417 82.206-7.674 40.998-1.87 81.662 2.103 122.359 5.572 21.964 1.873 43.838 4.828 65.744 7.361 23.7 2.741 47.246 6.227 70.12 13.411 4.45 1.398 5.84 2.724 4.015 7.522-5.266 13.843-10.094 27.856-14.866 41.881-1.43 4.201-4.214 4.768-7.878 4.194-13.92-2.182-27.968-2.763-42.014-3.46-58.951-2.925-117.768-2.502-176.025 8.366-29.02 5.413-57.117 13.75-82.102 30.365-6.657 4.427-10.621 7.813-12.213 11.843 22.992-11.9 46.712-21.113 71.232-27.796 45.952-12.524 93.237-14.649 140.502-15.419 32.52-.53 65.013 1.694 97.46 4.137 5.08.382 5.589 2.465 4.265 6.421-7.01 20.954-14.068 41.891-20.994 62.872-1.24 3.755-3.201 4.557-7.038 3.738-8.12-1.733-16.377-2.7-24.727-2.637-21.646.166-43.235 1.345-64.82 2.968-51.287 3.856-100.941 14.273-146.982 37.962-27.283 14.038-54.354 28.745-75.993 51.263-3.687 3.837-8.125 7.254-11.143 14.04 15.233-10.48 28.814-20.03 42.6-29.27 32.115-21.524 66-39.479 103.482-49.809 28.034-7.727 56.432-13.3 85.602-14.882 28.846-1.563 57.594-4.426 86.563-1.435 7.664.791 7.427 3.658 5.794 9.145-6.9 23.186-14.037 46.31-20.307 69.667-2.096 7.811-5.71 12.083-13.318 15.21-49.386 20.3-97.301 43.546-141.664 73.572-8.95 6.058-20.245 16.832-23.71 23.077 54.033-36.882 111.449-64.835 172.147-90.616-17.224 66.344-33.124 131.237-37.902 198.213 10.338-49.368 20.152-98.832 34.567-148.64 32.69 37.29 50.126 80.264 61.374 126.39.694-1.489.807-2.768.672-4.02-.332-3.094-.808-6.172-1.173-9.262-5.33-45.19-26.008-83.496-53.643-118.53-3.024-3.835-3.772-6.734-2.467-11.142 4.568-15.428 10.14-30.539 13.98-46.208 2.369-9.665 5.97-19.027 8.84-27.969 70.507 60.97 109.029 139.25 125.506 229.613 2.52-1.343 2.15-2.366 2.135-3.36-.318-21.578-5.281-42.283-11.788-62.688-11.105-34.827-24.627-68.489-46.462-98.274-14.797-20.185-31.692-38.584-47.88-57.595-6.003-7.052-16.568-12.403-17.31-21.136-.75-8.833 4.817-18.257 7.85-27.344 3.51-10.516 7.276-20.948 10.979-31.552 15.13 9.927 27.842 21.341 40.463 32.955 38.587 35.505 69.215 76.72 91.205 124.402 11.006 23.865 19.597 48.821 32.423 71.851 3.339 5.995 7.137 11.735 10.724 17.592-5.346-18.336-12.193-35.714-19.193-53.03-14.257-35.267-30.07-69.744-51.776-101.203-25.994-37.669-58.744-68.823-94.173-97.327-4.473-3.598-5.812-6.106-3.246-11.85 7.287-16.318 14.099-32.887 20.146-49.7 2.486-6.913 3.885-7.067 9.218-2.486 31.21 26.81 61.224 54.928 91.014 83.267 36.684 34.897 68.852 73.75 97.863 115.221 7.082 10.123 13.645 20.586 19.249 32.561 1.105-3.704.249-6.097-.441-8.633-2.976-10.927-8.158-20.827-14.316-30.167-27.064-41.05-58.925-78.136-94.076-112.405-31.714-30.919-64.76-60.414-97.538-90.19-3.112-2.826-3.797-5.12-2.033-9.287 5.96-14.075 11.346-28.396 16.865-42.656 4.73-12.22 4.682-12.248 15.447-5.18 2.61 1.712 5.274 3.366 7.747 5.264 43.572 33.431 87.78 66.033 129.18 102.243 32.582 28.496 63.56 58.561 92.749 90.494 6.719 7.351 13.168 14.948 20.07 22.807 1.195-3.183-.654-4.74-1.43-6.5-8.834-20.02-24.24-34.902-39.243-50.118-36.41-36.93-74.641-71.839-115.583-103.697-31.154-24.24-62.48-48.266-93.897-72.164-4.616-3.512-6.12-6.316-3.308-12.018 4.69-9.516 8.317-19.558 12.39-29.379 4.034-9.727 4.029-9.722 12.965-3.877 2.612 1.71 5.302 3.304 7.87 5.075 22.968 15.828 48.435 25.062 76.194 26.25 22.628.966 45.243 1.96 67.863 3.174 30.673 1.646 59.866 9.045 88.435 19.68 4.744 1.766 9.108 4.621 14.505 5.46-.414-3.224-2.832-4.022-4.58-5.35-14.072-10.7-29.918-17.457-47.107-21.338-38.578-8.709-77.928-9.129-117.134-10.879-31.788-1.418-59.588-12.534-84.173-32.472-3.458-2.804-3.744-3.986.23-6.456 13.885-8.627 27.68-17.52 42.918-23.494 36.164-14.175 73.333-25.756 108.577-42.322 12.959-6.09 26.923-9.13 40.847-12.554-12.72-3-25.302-2.244-37.241 2.373-17.72 6.852-34.928 15.027-52.656 21.852-17.44 6.715-34.895 13.703-53.627 16.167-3.802.5-8.424.95-10.808-2.809-2.478-3.907.534-7.526 2.685-10.665 15.578-22.73 30.432-45.97 47.589-67.594 7.318-9.223 15.392-17.764 23.443-26.45-5.841 1.165-10.183 4.736-14.583 8.138-15.517 11.997-25.22 28.993-37.513 43.766-5.204 6.254-9.557 13.407-17.294 17.876-1.02-4.52-.408-8.27.862-11.943 3.23-9.347 6.428-18.707 9.787-28.009 14.758-40.864 28.688-82.056 44.602-122.465 16.772-42.584 35.67-84.324 53.243-126.598 15.686-37.736 30.867-75.682 46.109-113.6.823-2.049 4.326-5.259-.328-6.936-3.64-1.312-6.4.2-7.596 4.29-.873 2.984-2.285 5.813-3.463 8.708-11.178 27.456-22.114 55.013-33.598 82.34-14.116 33.59-28.523 67.061-43.1 100.455-30.391 69.627-51.958 142.61-81.041 212.736-6.663 16.065-13.14 32.195-21.47 47.484-7.004 12.86-15.181 12.93-23.184.73-8.367-12.754-9.991-25.987-6.215-40.848 3.155-12.422 9.002-23.852 11.673-36.386 5.739-26.93 4.259-53.887.588-80.832-1.292-9.477-2.356-19.099-5.962-29.64-.66 2.142-.991 2.646-.928 3.094 4.15 29.573 4.863 59.222 1.272 88.874-1.851 15.283-5.405 30.232-13.567 43.575-3.985 6.514-5.418 6.416-9.365-.32-3.013-5.142-5.737-10.484-8.188-15.918-18.39-40.773-38.082-80.969-53.843-122.906-4.818-12.82-11.613-24.698-21.177-36.839.193 2.664.034 3.71.365 4.564 6.955 17.966 13.392 36.16 21.077 53.81 19.644 45.118 39.887 89.974 59.8 134.975 5.05 11.412 9.918 22.912 14.526 34.508 1.4 3.524 2.845 8.096-1.224 10.727-3.437 2.222-7.038-.004-10.04-2.226-10.637-7.88-21.476-15.515-31.8-23.79-46.617-37.366-92.39-75.837-145.053-104.89-17.1-9.433-34.43-17.829-54.392-20.594m539.352 201.246c-7.314-13.246-13.995-24.972-24.725-33.582-24.71-19.826-52.875-25.567-83.554-19.74-17.737 3.367-34.945 8.541-49.095 20.557-3.913 3.323-9.035 7.642-7.597 12.732 1.607 5.691 8.727 5.225 13.608 5.267 25.038.214 49.88 2.883 74.802 4.75 28.872 2.162 56.292 8.191 81.227 23.596 8.169 5.047 10.283 3.842 9.654-5.88-1.771-27.386-.077-54.738-.025-82.106.248-132.268.06-264.537.024-396.806-.003-12.522-.03-25.043-.056-37.565-.011-5.475-1.624-8.705-8.253-8.153-7.767.647-15.812 1.265-23.411-.026-19.558-3.323-29.595 6.67-37.872 22.722-15.995 31.024-30.02 62.885-43.608 94.987-27.775 65.618-55.731 131.16-83.535 196.764-.948 2.236-3.086 4.385-1.54 7.532 13.89-9.446 29.482-14.36 45.909-15.12 22.859-1.057 41.736 9.125 58.275 24.046 9.822 8.861 21.139 16.937 24.762 30.441 2.145 7.998 5.898 14.181 11.888 19.494 3.5 3.106 6.907 6.375 9.977 9.901 16.39 18.823 31.45 38.633 34.175 64.45 2.103 19.923 2.788 40.02-1.03 61.74m-129.27 477.567c6.195-24.06 4.973-47.63 1.11-70.93-5.604-33.809-18.735-65.16-35.865-94.6-15.478-26.603-35.64-49.84-56.904-71.98-7.474-7.784-14.906-16.108-26.02-19.235-6.926-1.949-9.46.297-7.63 7.348a32.2 32.2 0 0 0 3.64 8.6c5.152 8.425 10.319 16.862 15.933 24.981 24.306 35.15 47.232 71.037 63.749 110.71 9.916 23.817 19.695 47.64 23.535 73.328 2.423 16.206 1.504 32.042-11.23 44.378-16.122 15.62-34.802 28.664-47.82 49.495-4.151-14.776-4.477-28.858-11.372-43.443-.636 4.471-1.144 6.647-1.224 8.838-.382 10.361-5.185 18.434-13.046 24.725-13.443 10.758-25.255 23.283-38.067 34.718-1.558 1.391-3.262 2.57-2.754 5.63 7.786-1.57 15.363.932 23.112.93 84.503-.03 169.007-.042 253.51-.068 11.077-.003 11.096-.026 11.095-11.248-.003-126.797.034-253.594-.101-380.39-.012-11.06-1.172-22.119-1.85-34.096-5.775 7.33-6.22 16.273-10.744 22.835-9.03-29.267-22.348-54.88-49.665-70.874-14.591-8.542-30.145-15.1-45.323-22.439-13.333-6.448-26.741-12.739-41.513-15.04-11.85-1.848-23.854-2.965-35.481 1.16-8.894 3.153-10.592 9.545-4.764 17.035 2.547 3.274 5.463 6.32 8.529 9.12 21.19 19.365 44.479 36.09 67.512 53.107 30.022 22.181 59.409 44.91 80.924 76.16 14.74 21.411 21.558 43.867 14.079 70.01-7.321 25.587-20.982 47.353-36.733 68.241-8.103 10.746-18.184 20.102-22.88 33.298-9.536 26.808-26.693 48.664-45.805 69.158-6.505 6.977-13.283 13.7-19.937 20.538m-546.512-630.68c8.396-7.905 16.248-15.06 23.834-22.488 14.969-14.655 24.802-33.292 37.94-49.379 20.257-24.806 45.876-34.148 76.876-25.397 20.622 5.821 37.809 18.231 54.179 31.74 18.47 15.24 35.613 32.044 54.83 46.4 7.774 5.806 15.95 10.947 25.478 13.204 12.005 2.844 19.715-1.498 20.818-13.347 2.3-24.712-2.3-48.449-20.053-66.629-25.427-26.037-56.818-42.294-92.585-49.656-3.804-.783-7.753-.8-11.726-2.692 17.352-10.92 33.843-21.806 50.833-31.847 16.008-9.46 32.634-17.448 52.27-12.234 11.327 3.007 22.635 1.893 33.979-.465 10.584-2.2 21.315-5.609 31.922-5.409 28.595.541 52.254 12.91 64.665 38.906 19.118 40.047 35.404 81.405 38.604 126.787 2.378-1.924 2.643-4.61 3.47-6.947 4.67-13.209 8.979-26.552 13.9-39.665 23.032-61.37 46.776-122.48 69.137-184.094 12.164-33.519 24.26-67.248 27.765-103.242.563-5.78-.677-7.47-6.283-7.469-86.276.026-172.553-.07-258.83-.13-101.67-.072-203.34-.133-305.01-.207-32.588-.024-65.175-.074-97.762-.115-4.983-.006-9.283.153-9.014 7.321.498 13.276.413 26.577.419 39.868.033 79.48.06 158.961.015 238.441-.042 73.457-.245 146.913-.247 220.37-.001 38.295.407 76.59.407 114.886-.001 68.523-.241 137.046-.252 205.57-.013 81.524.129 163.05.155 244.574.006 17.191-.092 17.512 17.285 17.554 56.6.136 113.203-.026 169.805.06 5.859.007 8.455-1.174 5.677-7.6-1.065-2.463-.587-5.644-.604-8.499-.065-11.076 3.988-21.35 6.335-31.958 5.233-23.648 14.194-45.112 31.42-63.147 16.396-17.164 33.694-33.33 50.55-49.983 13.83-13.664 29.317-25.73 40.79-41.723 3.537-4.927 6.106-10.506 3.142-15.926-2.828-5.173-9.054-4.486-14.23-4.168-18.704 1.15-33.486 10.482-46.35 23.225-22.327 22.122-39.825 48.072-57.592 73.776-7.255 10.497-14.127 21.257-21.247 31.85-2.187 3.252-4.756 6.602-8.626 7.47-3.145.705-4.671-2.646-6.487-4.823-1.335-1.599-3.35-1.354-5.113-1.11-2.51.346-3.786-.896-4.987-2.834-1.146-1.849-1.55-5.226-4.344-4.673-2.82.557-2.845 4.045-3.875 6.352-.788 1.765.788 4.048-1.423 6.12-5.166-7.519-7.707-15.658-5.62-24.268 4.662-19.232 11.344-37.88 21.559-54.866 25.474-42.356 61.046-73.396 105.639-94.865 24.247-11.673 47.985-24.645 69.673-40.887 12.527-9.38 12.222-23.483-.808-32.36-5.274-3.595-11.18-5.37-17.668-5.313-29.726.26-58.14 8.153-86.703 15.007-16.957 4.068-33.451 9.42-48.66 18.467-23.596 14.036-37.683 36.93-54.635 57.191-9.26 11.067-19.63 20.688-33.773 25.212 4.325-4.868 9.224-9.1 13.607-13.812 13.99-15.039 25.676-31.957 38.527-47.928 2.89-3.592 5.68-7.297 7.099-11.995 1.78-5.899-.481-7.916-5.9-7.498-5.918.456-10.84 3.502-15.442 6.95-19.897 14.901-37.362 32.338-53.224 51.428-6.658 8.014-13.326 16.02-20.976 25.214.634-16.759-2.116-31.529-4.97-46.257-3.978-20.54-1.222-38.746 16.223-52.756 6.007-4.825 6.074-11.534 2.178-17.635-12.625-19.766-16.407-42.965-25.298-64.173-2.992-7.135-2.527-14.535 4.49-19.583 8.15-5.864 13.708-14.123 20.513-21.219 11.009-11.478 22.49-22.199 37.692-28.063 16.774-6.469 34.21-10.13 51.913-12.77a2374 2374 0 0 1 80.23-10.59c13.549-1.55 27.364-2.21 40.422-6.697 5.18-1.78 12.627-2.919 12.213-9.9-.407-6.868-7.89-7.373-13.216-8.56-18.233-4.068-36.617-4.02-55.15-1.82-31.001 3.678-60.591 12.104-89.135 24.646-15.322 6.732-28.137 17.901-43.634 24.212-19.57 7.97-40.336 11.216-62.653 15.666 9.19-9.272 11.12-19.875 12.172-30.777 1.072-11.12 1.399-22.37 3.33-33.339 4.275-24.298 14.347-44.827 38.823-55.203 20.843-8.836 42.746-12.337 65.116-13.407 42.81-2.049 85.142 5.396 127.784 6.711 9.306.287 18.703.514 27.863-2.117 3.448-.99 6.8-2.66 7.565-5.96.853-3.689-2.647-6.054-5.33-7.984-2.915-2.099-6.19-3.784-9.481-5.264-19.387-8.72-40.171-10.095-60.934-10.789-23.737-.794-47.452.918-71.045 3.283-29.406 2.948-57.977 9.648-84.462 23.333-13.284 6.864-26.263 14.317-40.203 21.955 5.813-19.93 11.483-39.218 17.06-58.532 6.8-23.544 17.398-44.403 35.65-61.815 16.519-15.758 34.666-24.285 57.342-23.185 29.614 1.436 57.938 8.203 85.312 19.674 26.58 11.14 53.286 22.071 81.31 29.237 9.277 2.371 18.515 5.245 28.154 5.504 9.284.25 12.795-5.333 8.86-13.708-1.875-3.993-4.394-7.656-7.61-10.78-24.64-23.959-55.114-36.739-87.787-44.504-47.605-11.314-95.287-3.43-143.862.87m716.72 180.623c0 188.015.003 376.031-.006 564.046 0 11.194-.162 11.3-11.515 11.298-275.68-.03-551.36-.058-827.04-.093-5.215 0-10.44-.305-15.645-.079-7.178.312-9.648-3.19-9.605-10.086.164-26.597.068-53.196.069-79.795.01-195.147.01-390.295.035-585.442.02-155.11.072-310.219.117-465.329.003-10.34.492-10.89 10.48-10.895a9121299 9121299 0 0 1 843.487-.28c8.755-.004 9.802 1.101 9.805 11.027.02 86.633-.015 173.265-.022 259.897-.007 101.911-.001 203.821-.001 305.731Z"/></g></svg>