<svg xmlns="http://www.w3.org/2000/svg" width="1984.25" height="1984.25" viewBox="0 0 1984.25 1984.25"><defs><clipPath id="clip_1"><path d="M0-.002h1984.252V1984.25H0Z"/></clipPath></defs><g clip-path="url(#clip_1)"><path d="M1407.78 874.266c-5.338-25.136-29.846-42.597-30.899-69.914-.06-1.628-2.38-3.093-3.458-4.746-12.733-19.617-3.004-41.906-7.623-62.507-.228-1.032.778-3.258 1.555-3.434 24.185-5.543 9.526-19.395 4.728-28.043-9.06-16.324-12.147-35.859-13.463-51.632-1.448-17.309-3.974-36.55-2.549-52.676 2.118-23.836-3.674-46.453-1.938-69.562.932-12.305-3.89-22.348-13.14-32.965-5.852 12.117-12.039 21.352-9.837 34.546 4.751 28.383-11.512 50.04-26.973 71.543-1.843 2.567-6.019 4.243-5.002 7.805 1.065 3.715 4.284 3.797 8.114 2.496 11.44-3.879 8.974 4.453 7.335 9.504-2.932 8.988-9.622 15.738-17.017 21.68-6.94 5.578-12.553 11.707-10.147 21.304 7.874 3.282 10.865-8.67 20.235-3.914.168 9.926-10.77 19.571-4.69 30.74 7.167-.846 6.653-11.732 18.643-10.947-8.34 23.543-1.556 44.262 10.842 64.547 2.25 3.668 4.907 22.582-14.528 13.664-9.01-4.137-11.344 6.586-15.568 11.531-2.872 3.375-9.693 8.121-1.915 12.81 8.7 5.25 4.057 10.91 2.19 17.038-3.459 11.38-12.446 20.648-11.417 33.972.432 5.684-6.138 12.61-12.552 7.301-10.627-8.8-20.727-19.148-18.322-35.062.634-4.184 1.7-7.946 7.444-6.469 18.178 4.664 13.785-9.41 11.62-16.113-7.516-23.192-12.206-46.172-11.87-70.887.142-10.617 5.611-22.863-.659-32.449-17.508-26.719-19.578-56.836-22.116-86.894-.993-11.825-5.013-19.98-19.039-22.629-1.519 14.625 2.633 29.601-6.006 42.492-21.923 32.72-28.96 70.125-35.254 107.742-.419 2.496-.67 6.328.777 7.617 14.982 13.36 4.356 25.875-.036 39.222-1.878 5.684-7.838 11.344-3.877 18.27 7.695 2.367 6.091-10.699 17.173-6.62-11.668 21.643-10.017 47.401-23.815 68.53-5.54 8.484-8.723 24.082-20.33 21.703-13.81-2.848-14.349-18.527-15.414-30.996-.036-.445.802-.949 1.233-1.44 7.85-1.665 9.297 11.671 18.595 7.675.635-8.708-4.954-14.497-8.615-21.422-10.28-19.418-24.509-36.27-32.634-57.446-7.395-19.254-6.462-38.789-11.045-57.832-1.042-4.336-5.277-9.445-1.173-12.995 6.486-5.626 7.863 7.347 18.967 3.62-37.575-43.769-12.134-100.089-36.163-149.46-2.453 7.734-4.523 13.91-6.366 20.144-2.776 9.4-17.089 18.024-11.596 25.746 11.99 16.864.658 29.872-1.52 44.696-.98 6.715-20.032 16.734 1.986 21.855.3.071.551 4.324-.454 5.18-7.85 6.703-19.435 11.777-9.454 24.914-21.839 8.542-13.81 22.77-11.105 39.433 3.638 22.371-1.712 45.598-11.823 66.762-3.028 6.34-3.339 9.492 3.734 14.133 11.212 7.36 1.866 15.082-2.909 21.351-6.617 8.696-10.889 1.231-15.843-3.035-15.964-13.71-31.09-29.016-35.123-49.512-4.583-23.238-18.919-34.324-39.167-42.984-13.367-5.707-21.313-8.52-24.616 10.055-1.747 9.88-9.07 19.992-20.583 22.617-8.89 2.04-14.707-7.207-16.07-12.457-8.066-31.008-39.467-41.192-56.867-63.586-7.288-9.363-12.374-10.265-21.468.34-12.159 14.156-18.86 31.558-32.37 45-9.562 9.504-14.408 9.527-21.002-.774-3.554-5.554-7.419-11.039-10.076-17.015-7.599-17.075-15.94-33.762-31.22-45.469-10.484-8.039-21.72-15.42-33.46-21.55-17.64-9.223-14.396-30.89-27.56-42.118-11.536-9.832-14.025-21.55-12.242-35.53.91-7.149.024-14.52-.012-21.786-.06-15.14-13.044-22.218-22.976-27.773-8.508-4.758-12.457 8.894-18.022 14.66-8.1 8.39-12.936 20.73-28.146 19.535-1.783-.14-5.768 3.54-5.48 4.63 4.942 18.96-13.45 27.655-20.488 40.487-12.517 22.805-32.178 39.844-38.162 68.766-3.374 16.288-21.097 35.437-36.582 50.484-1.23 2.11-9.23 4.11-13.23-1.89l-.679-2.083-283.17-570.713H1804.67l-391.445 745.861c-1.616-8.906-3.566-17.813-5.445-26.672m-29.785 12.703c-2.489 6.902-2.944 13.805-3.71 20.836-.31 2.79-2.298 4.488-5.314 4.77-4.726-1.23-6.102-4.559-5.325-8.883 1.03-5.684 2.753-11.274 3.327-16.98.36-3.657-1.842-8.895 3.71-9.083 5.098-.175 8.904 4.922 7.312 9.34m-76.408-22.5c6.75.574 10.09 5.24 7.827 10.734-2.777 6.727-.515 19.067-9.837 18.903-7.803-.14-6.175-11.367-7.229-18.223-.239-6.386.492-12.152 9.24-11.414m28.468 134.168c-11.2.14-17.483 10.476-28.3 11.636-25.98 2.801-29.128 1.196-39.683-26.319 10.674 2.683 19.386 4.558 24.424-9.094 2.561-6.949 14.96-1.676 18.596 3.551 5.9 8.46 11.908 11.472 21.696 8.79 3.195-.88 7.05-.75 7.862 3.667.658 3.655-1.77 7.745-4.595 7.77m-122.384-288.329c1.005-14.413 7.372-24.808 16.42-34.183 3.23 14.731.37 26.801-16.42 34.183m20.774 99c-1.16 8.907-3.722 16.83-14.55 18.375-4.573.657-6.487-2.53-5.446-5.882 2.608-8.45 2.49-19.477 13.02-22.465 4.978-1.406 6.39 5.273 6.976 9.972m-7.635-29.109c-5.145-1.5-13.127-2.226-12.505-10.43.395-5.343 2.944-11.367 9.585-10.265 5.84.972 11.321 4.64 10.89 11.73-.766 5.11-1.818 10.746-7.97 8.965m11.74 355.921c.263 3.234-4.99 2.38-8.4 2.18-15.366-.914-27.105-8.789-26.782-23.25.287-12.692 15.101-18.188 25.56-23.075 8.617-4.03 13.858 4.606 18.501 12.832-10.422 8.227-9.848 19.49-8.879 31.313m-57.812-252.796c-1.699-16.196 6.235-27.657 20.332-41.05 5.014 22.09-9.502 30.831-20.332 41.05m3.674 55.816c-3.003 3.434-7.503 6.703-4.846 11.848 3.877 7.511 5.121 14.812-4.87 17.04-9.873 2.214-14.289-9.06-13.978-13.536 1.64-23.59-18.824-38.614-22.067-59.872-.167-1.1.767-2.367 1.341-3.984 21.037 2.38 24.46 39.211 54.676 26.31-.395 9.913-5.014 16.194-10.256 22.194m-9.059 248.941c-1.496 4.465-7.994 4.77-10.11-1.758-3.71-11.39-4.07-23.789-12.028-33.96-1.58-2.005-.79-8.028 6.438-8.52 7.527 7.007 17.483 13.511 23.251 22.558 4.393 6.914-5.062 14.25-7.55 21.68m-30.157-182.402c-.682-6.164 1.795-11.825 8.748-9.387 9.406 3.293 19.745 5.976 26.303 13.36-1.807 9.878-7.097 14.812-15.473 14.624-11.823-.269-18.32-7.195-19.578-18.597m-34.967 19.664c-11.356-.926-12.648-9.586-13.977-17.332 1.496-5.52-1.172-14.86 5.206-13.407 10.602 2.391 12.924 13.735 15.233 23.24 1.125 4.616-1.675 7.885-6.462 7.5m-25.058 417.127c-1.759 1.617-24.675-29.954-24.04-34.348 1.112-7.629 7.251-10.242 16.25-12.68 7.443 6.492 20.008 12.492 23.072 21.563 2.824 8.38-7.516 18.363-15.282 25.465m3.35-723.479c7.695 8.977 15.007 16.16 6.462 27.047-1.567 2.004-3.96 5.11-6.018 2.684-7.612-9.024-6.02-18.598-.444-29.73m-16.992 519.666c7.371-3.89 24.603 10.02 25.441 19.956 1.591 18.715-8.149 33.668-18.285 52.22-7.037-17.392-12.84-31.794-18.692-46.172-5.074-12.457 1.567-20.743 11.536-26.004m-68.522-136.875c-2.525.574-4.918 2.672-7.335 2.625-10.436-.21-23.336-27.07-20.643-43.406 2.381-14.449 11.237-20.719 25.872-16.71 10.208 2.811 31.054 1.604 10.028 20.05-4.08 3.586-4.104 7.968.215 11.976 4.19 3.891 8.006 3.61 12.434.164 7.072-5.53 14.133-11.754 29.318-7.828-18.452 13.828-30.455 28.688-49.889 33.13m-6.007 292.803c-1.652-15.446-3.686-30.856-4.799-46.324-.8-11.192 9.06-14.145 16.993-16.489 10.782-3.176 8.64 7.231 10.782 12.434 9.466 23.015-8.88 35.73-22.976 50.38m5.732 132.41c-2.549 4.43-6.474 3.667-10.615 1.91-11.727-.622-22.198-4.548-29.617-14.063-3.399-4.336-14.732-6.797-7.037-14.368 5.625-5.543 14.396-12.76 23.275-6.69 8.641 5.905 15.665 14.237 22.773 22.042 2.561 2.812 3.447 7.301 1.221 11.168m-7.192-390.737c.155 8.191-1.22 11.226-4.296 12.95-1.293.737-4.81.468-4.954 0-5.42-18.82-27.81-27.622-29.738-48.388-.227-2.437-.909-5.578.275-7.266 2.477-3.492 6.486-1.78 8.736.293 14.157 13.102 18.166 32.52 29.977 42.411m-21.026-268.969c-2.02-2.718-7.189-5.124-6.944-7.238 3.147-27.192-12.933-52.249-8.71-79.64 1.106-7.154 3.913-7.862 9.071-6.279 8.072 2.468 12.698 8.03 14.102 16.475 3.488 21.121 14.336 38.43 30.65 52.166 10.368 8.728 17.771 19.944 27.13 29.494 7.306 7.457 3.764 19.933-2.84 29.432-11.89 17.1-16.655 36.804-22.429 56.498 9.816 2.76 13.06-5.769 20.27-8.633 3.658 12.05-4.988 19.6-9.284 28.483-8.806 18.225-26.12 27.984-41.243 39.815-3.605 2.822-10.954 7.092-13.208-.739-2.2-7.655-16.059-13.914-6.413-22.673 11.06-10.04 6.115-20.402 3.861-30.639-1.766-8.05-10.912-14.164.818-23.63 4.531-3.646-3.626-15.977-6.923-24.089-4.126-10.176-11.624-19.309-10.294-31.192.521-4.697.935-10.238 5.625-12.289 4.754-2.083 9.136 1.49 12.975 4.322 8.944 6.613 13.24 17.892 25.268 24.464-.563-18.12-14.07-24.162-21.482-34.108m-37.025 165.492c-5.24 1.277-5.888-3.434-7.3-7.195-3.23-8.614-8.4-17.11 3.602-26.707 2.681 9.468 4.488 17.062 7.05 24.41 1.554 4.465 1.423 8.332-3.352 9.492m-1.975 81.305c-1.71 7.336-1.1 15.937-8.484 20.672-2.166 1.394-4.906-1.746-4.715-4.606.671-9.598-3.9-21.515 12.446-26.519.455 5.414 1.304 8.086.753 10.453m-14.778 112.183c-2.143.586-5.397-.222-7.204-1.582-2.585-1.933-.575-4.582.502-6.914 5.122-11.086 13.977-20.672 12.984-36.457 14.803 13.735 9.023 40.746-6.282 44.953m-33.89-14.12c-1.963 3.14-7.743 3.198-7.443-.669 1.136-14.918-11.752-26.426-9.98-46.394 15.27 20.988 24.435 6 37.611-3.727.203 22.641-11.177 36.363-20.188 50.79m-33.567-97.993c-2.788-3.527-5.469-8.883-10.674-7.629-5.289 1.277-9.358 5.754-9.765 11.52-1.269 17.953-4.344 34.922-17.292 49.183-3.458 3.81-5.48 11.098 2.022 15.317.575.328 1.34.34 1.903.68 14.3 8.46-16.37 19.406 2.55 29.718 17.315 9.445 1.124 21.082-2.454 31.442-4.918 14.225-20.356 26.59-3.243 43.756 5.648 5.661-3.172 15.528-6.76 23.332-3.879 8.45-15.714 22.301 8.662 20.58 6.08-.435 9.083 5.026 6.858 9.444-9.299 18.387-5.154 38.242-21.56 53.394-6.773 6.246-10.052 6.657-14.444-2.308-24.412-49.899-49.375-103.539-74.014-153.33-4.428-8.966-3.088-18.74.622-27.072 20.99-47.25 9.39-92.203 16.366-141.375.694-4.898-2.238-12.093 4.093-14.015 7.766-2.344 8.975 6.234 12.565 10.441 7.563 8.848 10.686 21.211 24.28 29.297-2.334-22.816-14.3-38.098-28.864-49.652-14.312-11.356-22.892-23.414-23.036-41.39-.108-12.539-1.233-25.055-1.388-37.594-.347-27.363 3.183-55.125-14.755-84.457 53.994 31.992 84.605 76.008 112.07 122.777 20.198 34.406 43.594 66.54 75.557 91.418 11.92 9.281 13.714 17.625 5.505 29.507-3.35 4.852-5.493 10.536-8.03 15.903-2.286 4.828-4.02 9.75-11.297 9.035-6.39-.645-9.693-4.524-11.63-9.55-3.795-9.868-7.18-19.91-13.847-28.372m-155.563 10.518c-2.873-3.282-1.884-6.125 1.436-8.653 3.403-2.589 8.866-3.883 5.213-10.435-4.683-8.428-7.097.947-10.688 1.05-4.63.131-7.96-.653-10.146-4.82-6.827-13.005-16.838-25.57-2.394-42.478-10.313.785-19.513 5.962-23.426-4.219-3.267-8.52 1.343-13.35 8.982-17.539 3.902-2.13 2.466-9.916-1.894-8.367-8.087 2.894-13.644-12.3-21.792-1.448-2.863 3.802-5.142-1.192-5.288-3.25-.707-10.202-10.906-19.842-1.248-30.829 3.55-4.025.51-8.56-3.35-11.903-5.236-4.525-4.497-10.313-2.697-15.918.646-2.049 2.061-7.297 5.142-3.76 11.842 13.615 18.857-2.437 28.608-4.027-10.875-1.06-18.077-6.848-20.013-15.286-2.08-9.07 8.212-12.76 13.873-17.733 4.58-4.026 11.718-4.912 15.548-10.63 3.278-4.89 7.94-5.666 11.166-.499 2.665 4.29 1.863 9.244-4.069 11.037-7.576 2.293-9.886 7.276-8.887 14.462.322 2.262.395 4.372 3.018 5.635 13.633 6.523 14.174 14.197 2.02 25.356-5.496 5.055-10.408 10.894-16.517 15.072-3.528 2.416-8.71 4.556-6.036 8.316 2.57 3.628 8.648 2.58 12.27-1.059 2.32-2.314 3.746-5.483 6.983-10.436 3.653 11.75 9.418 20.7 1.332 30.33-1.54 1.843-3.643 3.21-1.53 5.431 2.071 2.181 4.548 3.006 7.67.896 8.16-5.502 9.116-1.477 9.46 6.176.5 11.12 8.117 21.962.23 33.408-1.625 2.353 1.28 6.43 4.068 6.38 8.43-.164 1.301-9.296 6.744-11.793 6.41 1.642 8.741 6.34 9.147 12.678.99 15.338 2.28 30.666 3.185 46.014.312 5.39-1.3 10.13-6.754 12.994-3.32 1.732-6.42 3.2-9.366-.153M596.71 1005.14c-31.34-36.883-33.17-68.778-8.485-105.965 11.727-17.676 15.365-39.292 28.547-56.81 7.565-10.06 11.235-11.506 20.041-2.4 12.83 13.275 15.504 12.982 32.56 1.141 4.664 15.1 3.412 27.181-8.946 36.36-12.754 9.471-17.408 24.947-34.143 33.644-13.193 6.852-11.49 32.974-15.365 50.787-3.199 14.711-7.083 29.118-14.209 43.243m190.93-237.87c1.702 27.832-17.872 43.765-36.216 59.59-7.915 6.847-10.374 12.588-6.158 21.672 2.36 5.063 4.215 10.427-2.448 14.18-3.294 1.848-6.774 3.493-10.33.978-5.797-4.107-3.843-9.224-2.01-14.632 1.307-3.827 2.328-8.19-2.02-12.309-4.479 3.924-4.808 15.75-15.007 9.558-8.485-5.16-1.668-9.805.934-14.998 1.778-3.536 2.228-8.288 1.657-12.276-1.427-10.074 3.711-14.438 12.735-16.567 22.373-5.267 42.561-13.083 47.853-38.808.691-3.322 3.677-7.053 8.068-5.709 4.7 1.43 2.734 5.966 2.942 9.32m98.534 30.884c-9.33 21.446-13.059 46.06-39.31 57.034-8.417 3.52-11.698 14.013-15.292 22.647-8.372 20.156-22.625 36.781-34.635 54.75-4.14 6.186-9.219 8.864-14.52 1.126-6.486-9.433-18.116-15.795-17.96-28.889 1.317-24.145 6.976-47.524 24.846-64.335 18.885-17.772 25.37-38.715 26.408-62.838.313-7.366 1.808-14.69 2.545-22.046.982-9.728 5.703-21.86 13.64-21.729 9.397.164 22.97 1.847 28.718 12.58 7.277 13.554 13.505 27.534 23.73 39.448 2.533 2.951 3.84 7.63 1.83 12.252m21.85 136.29c-.98-11.638 5.912-21.646 12.961-29.603 5.037-5.66 14.6-.14 14.383 6.364-.406 11.976-4.296 23.894-10.686 34.558-.86 1.418-3.088 2.051-4.416 2.871-8.472-1.605-11.703-7.922-12.242-14.19m-13.749 104.612c6.425 1.523 17.758-3.633 18.07 6.61.3 10.288 8.208 16.136 10.28 24.878-16.67 2.38-34.777-11.496-34.298-25.852.132-4.125 2.13-6.539 5.948-5.636m-8.94-59.437c-2.836-6.528-4.45-16.582 3.471-19.137 9.25-3 11.751 8.121 15.88 14.062 2.07 2.965 1.711 7.56 1.974 8.953.622 11.238-7.742 18.54-3.004 28.594 1.7 3.586-5.325 3.926-9.226 2.707-6.342-1.969-14.36-3.34-10.627-12.656 3.028-7.57 5.123-14.285 1.532-22.523m23.793-126.877c-5.775-5.089-5.786 4.13-9.48 4.01-2.369-.067-5.062.24-7.02-.753-2.58-1.296-2.459-4.173-.924-6.363 14.064-20.08 14.041-45.39 27.115-69.763 6.02 12.235.523 22.575 1.87 32.13 2.647 18.708 5.751 37.644-2.305 56.515-6.007 14.1-15.665 21.29-30.64 22.771-3.783.371-8.234.927-7.333 6.026.913 5.175 5.653 3.323 9.124 3.4 4.272.097 10.258-5.983 12.305 1.96 1.58 6.102-4.35 9.904-8.333 13.434-10.625 9.436-21.74 18.36-32.744 27.391-4.428 3.64-13.318 6.712-7.388 13.424 7.633 8.64 6.331-8.815 15.766-4.75-3.483 12.072 11.382 28.796-11.104 36.575-2.948 1.014.411 6.32 3.215 9.087 4.507 4.456 3.45 9.48-1.179 12.595-4.962 3.345-9.702.371-13.15-3.552-7.322-8.357-4.985-18.598-5.097-28.262-.055-4.87 7.143-11.125-1.023-14.219-7.254-2.735-4.75 9.348-12.695 9.457-5.118-12.879-10.592-28.927 2.926-37.23 12.717-7.8 21.117-12.115 14.765-28.13-1.258-3.172 2.781-10.2 11.114-8.75 10.792 1.884 15.054-1.155 7.054-11.604-4.862-6.34.813-8.4 5.92-9.806 13.15-3.617 20.983-17.269 35.87-17.912 3.671-.153 4.05-4.053 3.371-7.68m-351.004 69.95c-14.714-22.475-26.957-44.056-7.123-70.945 16.383-22.223 28.058-47.226 48.46-67.335 18.598-18.344 29.305-44.153 17.162-69.146-15.983-32.916 7.824-58.986 9.995-88.458.478-6.55 6.121-4.273 9.95-1.46 7.146 5.242 14.937 11.433 15.693 19.934 1.748 19.772 15.938 29.777 30.953 36.142 34.636 14.693 42.472 48.23 59.212 75.434 4.875 7.913-3.606 10.224-9.795 11.5-22.716 4.675-42.216 13.09-49.807 37.307-3.383 10.79-16.873 5.646-23.974 14.79-10.918 14.082-16.127-4.14-20.635-9.307-10.429-11.935-15.092-10.562-22.883 2.452-18.954 31.641-33.99 65.036-49.35 98.333-1.703 3.685-1.703 8.545-7.858 10.758m-39.917-138.07c-7.709-16.297-19.156-28.104-21.264-47.169-1.364-12.342 13.64-38.598 30.164-43.583 10.172-3.069 10.11-7.535 5.677-14.327-6.89-10.527-2.649-16.088 5.757-23.165 7.787-6.549 13.791-14.417 13.77-26.78-.024-12.165 15.17-17.67 19.816-29.517 2.895-7.384 4.332-17.109 12.905-22.043 3.277-1.89 6.6-5.154 10.234-3.583 4.074 1.758 3.445 6.714 2.267 9.857-5.409 14.396-4.949 27.561 5.768 39.715 3.075 3.494 3.636 8.868.36 12.12-13.097 13.045-12.053 29.342-12.76 45.627-.37 8.286.124 17.956-8.079 23.517-7.34 4.978-.315 7.198 1.48 9.857 3.973 5.857 6.061 12.077 6.992 18.978.471 3.43.247 6.154-2.783 7.956-3.356 1.99-5.824-.209-8.383-2.12-13.32-9.989-26.696-19.89-43.057-32.056.572 16.297 12.792 20.231 20.165 27.594 4.556 4.527 14.061 7.572 6.711 15.725-6.733 7.451-10.65-.626-14.948-4.604-9.415-8.726-11.323 2.011-15.418 6.011-5.678 5.55-5.376 11.011 2.21 14.857 2.177 1.11 5.263.715 7.194 2.044 5.554 3.792 17.505-1.066 17.438 6.66-.09 10.483-12.647 13.351-20.962 15.736-6.823 1.945-16.788 2.143-21.254-7.308m-71.334-6.13c45.773 93.128 36.02 73.651 97.326 198.268 63.603 129.293 127.206 258.597 190.702 387.948 52.714 107.391 105.26 214.863 157.89 322.311 25.86 52.805 51.72 105.61 77.616 158.403 2.346 4.804 5.122 9.75 11.01 10.594 7.216 1.043 8.544-5.52 10.818-9.915 7.3-14.132 14.228-28.44 21.108-42.773 123.618-257.237 247.27-514.476 370.755-771.77l472.03-903.432h-1728Z"/></g></svg>