<svg xmlns="http://www.w3.org/2000/svg" xmlns:xlink="http://www.w3.org/1999/xlink" xmlns:inkscape="http://www.inkscape.org/namespaces/inkscape" version="1.1" width="1984.25" height="1984.25" viewBox="0 0 1984.25 1984.25">
<defs>
<clipPath id="clip_1">
<path transform="matrix(1,0,0,-1,0,1984.25)" d="M0 1984.252H1984.252V0H0Z"/>
</clipPath>
</defs>
<g inkscape:groupmode="layer" inkscape:label="Layer 1">
<g clip-path="url(#clip_1)">
<path transform="matrix(1,0,0,-1,1407.7793,874.2661)" d="M0 0C-5.337 25.136-29.845 42.597-30.898 69.914-30.958 71.542-33.279 73.007-34.356 74.66-47.089 94.277-37.36 116.566-41.979 137.167-42.207 138.199-41.201 140.425-40.424 140.601-16.239 146.144-30.898 159.996-35.696 168.644-44.756 184.968-47.843 204.503-49.159 220.276-50.607 237.585-53.133 256.827-51.708 272.952-49.59 296.788-55.382 319.405-53.646 342.514-52.714 354.819-57.536 364.862-66.786 375.479-72.638 363.362-78.825 354.127-76.623 340.933-71.872 312.55-88.135 290.894-103.596 269.39-105.439 266.823-109.615 265.147-108.598 261.585-107.533 257.87-104.314 257.788-100.484 259.089-89.045 262.968-91.51 254.636-93.149 249.585-96.081 240.597-102.771 233.847-110.166 227.905-117.106 222.327-122.719 216.198-120.313 206.601-112.439 203.319-109.448 215.272-100.078 210.515-99.91 200.589-110.848 190.944-104.769 179.776-97.601 180.621-98.115 191.507-86.125 190.722-94.466 167.179-87.681 146.46-75.283 126.175-73.033 122.507-70.376 103.593-89.811 112.511-98.821 116.648-101.155 105.925-105.379 100.98-108.251 97.605-115.072 92.859-107.294 88.171-98.594 82.921-103.237 77.261-105.104 71.132-108.563 59.753-117.55 50.484-116.521 37.16-116.089 31.476-122.659 24.55-129.073 29.859-139.7 38.66-149.8 49.007-147.395 64.921-146.761 69.105-145.695 72.867-139.951 71.39-121.773 66.726-126.166 80.8-128.331 87.503-135.847 110.695-140.537 133.675-140.202 158.39-140.059 169.007-134.59 181.253-140.86 190.839-158.368 217.558-160.438 247.675-162.976 277.733-163.969 289.558-167.989 297.714-182.015 300.362-183.534 285.737-179.382 270.761-188.021 257.87-209.944 225.151-216.981 187.745-223.275 150.128-223.694 147.632-223.946 143.8-222.498 142.511-207.516 129.152-218.142 116.636-222.534 103.289-224.412 97.605-230.372 91.945-226.411 85.019-218.716 82.652-220.32 95.718-209.238 91.64-220.906 69.996-219.255 44.238-233.053 23.109-238.593 14.625-241.776-.973-253.384 1.406-267.193 4.254-267.732 19.933-268.797 32.402-268.833 32.847-267.995 33.351-267.564 33.843-259.715 35.507-258.267 22.171-248.969 26.167-248.334 34.875-253.923 40.664-257.584 47.589-267.864 67.007-282.093 83.859-290.218 105.035-297.613 124.289-296.68 143.824-301.263 162.867-302.305 167.203-306.54 172.312-302.436 175.862-295.95 181.488-294.573 168.515-283.469 172.242-321.044 216.011-295.603 272.331-319.632 321.702-322.085 313.968-324.155 307.792-325.998 301.558-328.774 292.159-343.087 283.534-337.594 275.812-325.604 258.948-336.936 245.94-339.114 231.116-340.095 224.401-359.146 214.382-337.128 209.261-336.828 209.19-336.577 204.937-337.582 204.081-345.433 197.378-357.017 192.304-347.036 179.167-368.875 170.625-360.846 156.398-358.141 139.734-354.503 117.363-359.853 94.136-369.964 72.972-372.992 66.632-373.303 63.48-366.23 58.839-355.018 51.48-364.364 43.757-369.139 37.488-375.756 28.792-380.028 36.257-384.982 40.523-400.946 54.234-416.072 69.539-420.105 90.035-424.688 113.273-439.024 124.359-459.272 133.019-472.639 138.726-480.585 141.539-483.888 122.964-485.635 113.085-492.958 102.972-504.471 100.347-513.362 98.308-519.178 107.554-520.542 112.804-528.607 143.812-560.008 153.996-577.408 176.39-584.696 185.753-589.782 186.655-598.876 176.05-611.035 161.894-617.736 144.492-631.247 131.05-640.808 121.546-645.654 121.523-652.248 131.824-655.802 137.378-659.667 142.863-662.324 148.839-669.923 165.914-678.264 182.601-693.545 194.308-704.028 202.347-715.265 209.729-727.004 215.858-744.644 225.081-741.4 246.749-754.564 257.976-766.1 267.808-768.589 279.526-766.806 293.507-765.896 300.655-766.782 308.026-766.818 315.292-766.878 330.433-779.862 337.51-789.794 343.065-798.302 347.823-802.251 334.171-807.816 328.405-815.917 320.015-820.752 307.675-835.962 308.87-837.745 309.011-841.73 305.331-841.442 304.241-836.5 285.28-854.893 276.585-861.93 263.753-874.447 240.948-894.108 223.909-900.092 194.987-903.466 178.699-921.189 159.55-936.674 144.503-937.905 142.394-945.905 140.394-949.905 146.394L-950.583 148.476-1233.753 719.189H396.89L5.445-26.672C3.829-17.766 1.879-8.859 0 0M-29.785-12.703C-32.274-19.605-32.729-26.508-33.495-33.539-33.806-36.328-35.793-38.027-38.809-38.309-43.535-37.078-44.911-33.75-44.134-29.426-43.104-23.742-41.381-18.152-40.807-12.445-40.447-8.789-42.649-3.551-37.097-3.363-31.999-3.188-28.193-8.285-29.785-12.703M-106.193 9.797C-99.443 9.223-96.104 4.558-98.366-.937-101.143-7.664-98.881-20.004-108.203-19.84-116.006-19.699-114.378-8.473-115.432-1.617-115.671 4.769-114.94 10.535-106.193 9.797M-77.724-124.371C-88.925-124.511-95.207-134.847-106.025-136.007-132.005-138.808-135.152-137.203-145.707-109.688-135.033-112.371-126.321-114.246-121.283-100.594-118.722-93.645-106.324-98.918-102.687-104.145-96.787-112.605-90.779-115.617-80.991-112.934-77.796-112.055-73.942-112.184-73.129-116.602-72.471-120.257-74.899-124.347-77.724-124.371M-200.108 163.957C-199.103 178.37-192.736 188.765-183.689 198.14-180.459 183.409-183.318 171.339-200.108 163.957M-179.334 64.957C-180.494 56.05-183.056 48.128-193.885 46.582-198.457 45.925-200.371 49.113-199.33 52.464-196.722 60.914-196.841 71.941-186.311 74.929-181.332 76.335-179.92 69.656-179.334 64.957M-186.969 94.066C-192.114 95.566-200.096 96.292-199.474 104.496-199.079 109.839-196.53 115.863-189.889 114.761-184.049 113.789-178.568 110.121-178.999 103.031-179.765 97.921-180.817 92.285-186.969 94.066M-175.229-261.855C-174.966-265.089-180.22-264.234-183.63-264.035-198.995-263.121-210.734-255.246-210.411-240.785-210.124-228.093-195.31-222.597-184.851-217.71-176.234-213.679-170.993-222.316-166.35-230.542-176.772-238.769-176.198-250.031-175.229-261.855M-233.041-9.059C-234.74 7.137-226.806 18.598-212.709 31.992-207.695 9.902-222.211 1.16-233.041-9.059M-229.367-64.875C-232.37-68.309-236.87-71.578-234.213-76.723-230.336-84.234-229.092-91.535-239.084-93.762-248.956-95.977-253.372-84.703-253.061-80.227-251.422-56.637-271.885-41.613-275.128-20.355-275.295-19.254-274.361-17.988-273.787-16.371-252.75-18.75-249.327-55.582-219.111-42.68-219.506-52.594-224.125-58.875-229.367-64.875M-238.426-313.816C-239.922-318.281-246.42-318.585-248.537-312.058-252.247-300.667-252.606-288.269-260.564-278.097-262.144-276.093-261.354-270.07-254.126-269.578-246.599-276.585-236.643-283.089-230.875-292.136-226.482-299.05-235.937-306.386-238.426-313.816M-268.582-131.414C-269.264-125.25-266.787-119.589-259.834-122.027-250.428-125.32-240.089-128.003-233.531-135.386-235.338-145.265-240.628-150.199-249.004-150.011-260.827-149.742-267.325-142.816-268.582-131.414M-303.549-151.078C-314.905-150.152-316.197-141.492-317.526-133.746-316.03-128.226-318.698-118.886-312.32-120.339-301.718-122.73-299.396-134.074-297.087-143.578-295.962-148.195-298.762-151.464-303.549-151.078M-328.607-568.206C-330.366-569.823-353.282-538.252-352.648-533.858-351.535-526.229-345.396-523.616-336.397-521.178-328.954-527.67-316.389-533.67-313.325-542.741-310.501-551.12-320.841-561.104-328.607-568.206M-325.257 155.273C-317.562 146.296-310.25 139.113-318.795 128.226-320.362 126.222-322.755 123.117-324.813 125.542-332.425 134.566-330.833 144.14-325.257 155.273M-342.249-364.394C-334.878-360.503-317.646-374.414-316.808-384.35-315.217-403.065-324.957-418.018-335.093-436.569-342.13-419.178-347.934-404.776-353.785-390.398-358.859-377.941-352.218-369.655-342.249-364.394M-410.771-227.519C-413.296-228.093-415.689-230.191-418.106-230.144-428.542-229.933-441.442-203.074-438.749-186.738-436.368-172.289-427.512-166.019-412.877-170.027-402.669-172.839-381.823-171.632-402.849-190.078-406.93-193.664-406.953-198.046-402.634-202.054-398.445-205.945-394.628-205.664-390.2-202.218-383.128-196.687-376.067-190.464-360.882-194.39-379.334-208.218-391.337-223.078-410.771-227.519M-416.778-520.323C-418.43-504.877-420.464-489.467-421.577-473.999-422.378-462.807-412.518-459.854-404.584-457.51-393.802-454.334-395.944-464.741-393.802-469.944-384.336-492.959-402.682-505.674-416.778-520.323M-411.046-652.733C-413.595-657.163-417.52-656.401-421.661-654.643-433.388-654.022-443.859-650.096-451.278-640.581-454.677-636.245-466.01-633.784-458.315-626.213-452.69-620.67-443.919-613.452-435.04-619.522-426.399-625.428-419.375-633.76-412.267-641.565-409.706-644.377-408.82-648.866-411.046-652.733M-418.238-261.996C-418.083-270.187-419.458-273.222-422.534-274.945-423.827-275.683-427.345-275.414-427.488-274.945-432.909-256.125-455.299-247.324-457.226-226.558-457.453-224.121-458.135-220.98-456.951-219.292-454.474-215.8-450.465-217.511-448.215-219.585-434.058-232.687-430.049-252.105-418.238-261.996M-439.264 6.973C-441.285 9.691-446.453 12.097-446.208 14.211-443.061 41.403-459.141 66.46-454.919 93.851-453.812 101.005-451.005 101.713-445.847 100.13-437.775 97.662-433.149 92.101-431.745 83.655-428.257 62.534-417.409 45.225-401.096 31.489-390.727 22.761-383.324 11.545-373.966 1.995-366.659-5.462-370.201-17.938-376.805-27.437-388.695-44.537-393.46-64.241-399.234-83.935-389.418-86.695-386.175-78.166-378.964-75.302-375.306-87.351-383.952-94.902-388.248-103.785-397.054-122.01-414.368-131.769-429.491-143.6-433.096-146.422-440.445-150.692-442.699-142.861-444.9-135.206-458.758-128.947-449.112-120.188-438.052-110.148-442.997-99.786-445.251-89.549-447.017-81.498-456.163-75.385-444.433-65.918-439.902-62.273-448.059-49.942-451.356-41.83-455.482-31.654-462.98-22.521-461.65-10.638-461.129-5.941-460.715-.4-456.025 1.651-451.271 3.734-446.889 .162-443.05-2.671-434.106-9.284-429.81-20.563-417.782-27.135-418.345-9.014-431.852-2.973-439.264 6.973M-476.289-158.519C-481.53-159.796-482.177-155.085-483.589-151.324-486.82-142.71-491.989-134.214-479.987-124.617-477.306-134.085-475.499-141.679-472.938-149.027-471.383-153.492-471.514-157.359-476.289-158.519M-478.264-239.824C-479.975-247.16-479.364-255.761-486.748-260.496-488.914-261.89-491.654-258.75-491.463-255.89-490.792-246.292-495.364-234.375-479.017-229.371-478.562-234.785-477.713-237.457-478.264-239.824M-493.042-352.007C-495.185-352.593-498.439-351.785-500.246-350.425-502.831-348.492-500.821-345.843-499.744-343.511-494.622-332.425-485.767-322.839-486.76-307.054-471.957-320.789-477.737-347.8-493.042-352.007M-526.932-337.886C-528.895-341.027-534.675-341.085-534.375-337.218-533.239-322.3-546.127-310.792-544.356-290.824-529.086-311.812-519.92-296.824-506.744-287.097-506.541-309.738-517.921-323.46-526.932-337.886M-560.499-239.894C-563.287-236.367-565.968-231.011-571.173-232.265-576.462-233.542-580.531-238.019-580.938-243.785-582.207-261.738-585.282-278.707-598.23-292.968-601.688-296.777-603.711-304.066-596.208-308.285-595.633-308.613-594.868-308.625-594.305-308.964-580.005-317.425-610.676-328.371-591.756-338.683-574.44-348.128-590.631-359.765-594.209-370.125-599.127-384.35-614.565-396.714-597.452-413.881-591.804-419.542-600.624-429.409-604.213-437.213-608.091-445.663-619.926-459.514-595.55-457.792-589.471-457.358-586.467-462.819-588.692-467.237-597.991-485.624-593.846-505.479-610.252-520.631-617.025-526.877-620.304-527.288-624.696-518.323-649.108-468.424-674.071-414.784-698.71-364.992-703.138-356.027-701.798-346.253-698.088-337.921-677.099-290.671-688.699-245.718-681.722-196.546-681.028-191.648-683.96-184.453-677.629-182.531-669.863-180.187-668.654-188.765-665.064-192.972-657.501-201.82-654.378-214.183-640.784-222.269-643.118-199.453-655.084-184.171-669.648-172.617-683.96-161.261-692.54-149.203-692.684-131.226-692.792-118.688-693.917-106.172-694.072-93.633-694.419-66.27-690.889-38.508-708.827-9.176-654.833-41.168-624.222-85.184-596.758-131.953-576.559-166.359-553.163-198.492-521.2-223.371-509.281-232.652-507.486-240.996-515.695-252.878-519.046-257.73-521.188-263.414-523.725-268.781-526.011-273.609-527.746-278.531-535.022-277.816-541.412-277.171-544.715-273.292-546.653-268.265-550.447-258.398-553.833-248.355-560.499-239.894M-716.062-250.412C-718.935-247.13-717.946-244.287-714.626-241.759-711.223-239.17-705.76-237.876-709.413-231.324-714.096-222.896-716.51-232.271-720.101-232.374-724.731-232.505-728.062-231.721-730.247-227.553-737.074-214.549-747.085-201.983-732.641-185.076-742.954-185.861-752.154-191.038-756.067-180.857-759.334-172.337-754.724-167.506-747.085-163.318-743.183-161.188-744.619-153.402-748.979-154.951-757.066-157.845-762.623-142.65-770.771-153.503-773.634-157.305-775.913-152.311-776.059-150.252-776.766-140.051-786.965-130.411-777.307-119.424-773.758-115.399-776.797-110.864-780.658-107.521-785.893-102.996-785.154-97.208-783.354-91.603-782.708-89.554-781.293-84.306-778.212-87.842-766.37-101.458-759.355-85.406-749.604-83.816-760.479-82.756-767.681-76.968-769.617-68.53-771.698-59.459-761.405-55.77-755.744-50.797-751.165-46.771-744.026-45.885-740.196-40.167-736.918-35.276-732.256-34.501-729.03-39.668-726.365-43.958-727.167-48.912-733.099-50.705-740.675-52.998-742.985-57.981-741.986-65.167-741.664-67.429-741.591-69.539-738.968-70.802-725.335-77.325-724.794-84.999-736.949-96.158-742.444-101.213-747.356-107.052-753.465-111.23-756.993-113.646-762.176-115.786-759.501-119.546-756.931-123.174-750.853-122.125-747.231-118.487-744.911-116.173-743.485-113.004-740.248-108.051-736.595-119.801-730.83-128.75-738.916-138.38-740.457-140.224-742.559-141.59-740.446-143.812-738.375-145.993-735.898-146.818-732.776-144.708-724.617-139.206-723.66-143.231-723.316-150.884-722.816-162.003-715.199-172.846-723.087-184.292-724.711-186.645-721.807-190.722-719.018-190.671-710.588-190.508-717.717-181.376-712.274-178.879-705.864-180.521-703.533-185.218-703.127-191.557-702.138-206.895-700.848-222.223-699.942-237.571-699.63-242.961-701.243-247.701-706.696-250.565-710.016-252.297-713.117-253.765-716.062-250.412M-811.07-130.874C-842.41-93.991-844.24-62.096-819.555-24.909-807.828-7.233-804.19 14.383-791.008 31.902-783.443 41.961-779.773 43.407-770.967 34.302-758.138 21.026-755.463 21.319-738.408 33.16-733.743 18.061-734.995 5.979-747.353-3.199-760.107-12.671-764.761-28.147-781.496-36.844-794.689-43.696-792.987-69.818-796.861-87.631-800.06-102.342-803.944-116.749-811.07-130.874M-620.14 106.997C-618.438 79.164-638.012 63.231-656.356 47.407-664.271 40.559-666.73 34.818-662.514 25.734-660.154 20.671-658.299 15.307-664.962 11.555-668.256 9.706-671.736 8.061-675.292 10.576-681.089 14.683-679.135 19.8-677.302 25.208-675.995 29.035-674.974 33.399-679.322 37.517-683.801 33.593-684.13 21.768-694.329 27.959-702.814 33.12-695.997 37.764-693.395 42.957-691.617 46.493-691.167 51.245-691.738 55.233-693.165 65.307-688.027 69.671-679.003 71.8-656.63 77.067-636.442 84.883-631.15 110.608-630.459 113.93-627.473 117.661-623.082 116.317-618.383 114.887-620.348 110.351-620.14 106.997M-521.606 76.113C-530.937 54.667-534.665 30.053-560.917 19.079-569.333 15.559-572.614 5.066-576.208-3.568-584.58-23.724-598.833-40.349-610.843-58.318-614.983-64.504-620.062-67.182-625.364-59.444-631.849-50.011-643.479-43.649-643.323-30.555-642.006-6.41-636.347 16.969-618.477 33.78-599.592 51.552-593.107 72.495-592.069 96.618-591.756 103.984-590.261 111.308-589.524 118.664-588.542 128.392-583.821 140.524-575.885 140.393-566.487 140.229-552.915 138.546-547.166 127.813-539.889 114.259-533.661 100.279-523.437 88.365-520.903 85.414-519.597 80.736-521.606 76.113M-499.756-60.176C-500.737-48.539-493.844-38.531-486.795-30.574-481.758-24.914-472.196-30.434-472.412-36.938-472.818-48.914-476.708-60.832-483.098-71.496-483.959-72.914-486.186-73.547-487.514-74.367-495.986-72.762-499.217-66.445-499.756-60.176M-513.505-164.789C-507.08-166.312-495.747-161.156-495.436-171.398-495.136-181.687-487.227-187.535-485.156-196.277-501.826-198.656-519.932-184.781-519.453-170.425-519.321-166.3-517.323-163.886-513.505-164.789M-522.445-105.352C-525.281-98.824-526.896-88.77-518.974-86.215-509.724-83.215-507.223-94.336-503.095-100.277-501.024-103.242-501.383-107.836-501.12-109.23-500.498-120.468-508.862-127.769-504.124-137.824-502.424-141.41-509.449-141.75-513.35-140.531-519.692-138.562-527.71-137.191-523.977-127.875-520.949-120.304-518.854-113.59-522.445-105.352M-498.652 21.525C-504.427 26.614-504.438 17.396-508.132 17.516-510.501 17.582-513.194 17.276-515.152 18.268-517.733 19.564-517.611 22.441-516.076 24.631-502.012 44.711-502.035 70.021-488.961 94.394-482.942 82.159-488.438 71.819-487.092 62.264-484.444 43.556-481.34 24.62-489.396 5.749-495.403-8.35-505.061-15.541-520.037-17.022-523.819-17.393-528.27-17.949-527.369-23.048-526.456-28.223-521.716-26.371-518.245-26.447-513.973-26.545-507.987-20.465-505.94-28.408-504.36-34.51-510.29-38.312-514.273-41.842-524.898-51.278-536.014-60.201-547.017-69.233-551.445-72.873-560.335-75.945-554.405-82.657-546.772-91.297-548.074-73.842-538.639-77.906-542.122-89.979-527.257-106.703-549.743-114.482-552.691-115.496-549.332-120.801-546.528-123.569-542.021-128.025-543.079-133.048-547.707-136.164-552.669-139.509-557.409-136.535-560.858-132.612-568.179-124.255-565.842-114.014-565.954-104.35-566.009-99.479-558.811-93.225-566.977-90.131-574.231-87.396-571.728-99.479-579.672-99.588-584.79-86.709-590.264-70.661-576.746-62.358-564.029-54.557-555.629-50.243-561.981-34.227-563.239-31.056-559.2-24.028-550.867-25.478-540.075-27.362-535.813-24.323-543.813-13.874-548.675-7.533-543-5.473-537.894-4.068-524.743-.451-516.91 13.201-502.023 13.844-498.352 13.997-497.974 17.897-498.652 21.525M-849.656-48.425C-864.37-25.951-876.613-4.37-856.779 22.519-840.396 44.742-828.721 69.745-808.319 89.854-789.721 108.198-779.014 134.007-791.157 159-807.14 191.916-783.333 217.986-781.162 247.458-780.684 254.009-775.041 251.731-771.212 248.919-764.066 243.676-756.275 237.485-755.519 228.984-753.771 209.212-739.581 199.207-724.566 192.842-689.93 178.149-682.094 144.612-665.354 117.408-660.479 109.495-668.96 107.184-675.149 105.909-697.865 101.233-717.365 92.819-724.956 68.601-728.339 57.811-741.829 62.955-748.93 53.811-759.848 39.729-765.057 57.952-769.565 63.118-779.994 75.053-784.657 73.68-792.448 60.666-811.402 29.025-826.439-4.37-841.798-37.667-843.501-41.352-843.501-46.212-849.656-48.425M-889.573 89.646C-897.282 105.942-908.729 117.749-910.837 136.814-912.201 149.156-897.197 175.412-880.673 180.397-870.501 183.466-870.563 187.932-874.996 194.724-881.886 205.251-877.645 210.812-869.239 217.889-861.452 224.438-855.448 232.306-855.47 244.669-855.493 256.834-840.299 262.339-835.653 274.186-832.758 281.57-831.321 291.295-822.748 296.229-819.471 298.12-816.149 301.383-812.514 299.812-808.44 298.054-809.069 293.098-810.247 289.955-815.656 275.559-815.196 262.394-804.479 250.24-801.404 246.746-800.843 241.372-804.12 238.12-817.216 225.075-816.172 208.778-816.879 192.493-817.25 184.207-816.755 174.537-824.958 168.976-832.298 163.998-825.273 161.778-823.478 159.119-819.505 153.262-817.417 147.042-816.486 140.141-816.015 136.712-816.239 133.987-819.269 132.185-822.625 130.195-825.093 132.394-827.652 134.306-840.972 144.294-854.348 154.196-870.709 166.361-870.137 150.064-857.917 146.13-850.544 138.767-845.988 134.24-836.483 131.195-843.833 123.042-850.566 115.591-854.483 123.668-858.781 127.646-868.196 136.372-870.104 125.635-874.199 121.635-879.877 116.085-879.575 110.624-871.989 106.778-869.812 105.668-866.726 106.063-864.795 104.734-859.241 100.942-847.29 105.8-847.357 98.074-847.447 87.591-860.004 84.723-868.319 82.338-875.142 80.393-885.107 80.195-889.573 89.646M-960.907 95.777C-915.134 2.648-924.887 22.125-863.581-102.492-799.978-231.785-736.375-361.089-672.879-490.44-620.165-597.831-567.619-705.303-514.989-812.751-489.129-865.556-463.269-918.361-437.373-971.154-435.027-975.958-432.251-980.904-426.363-981.748-419.147-982.791-417.819-976.228-415.545-971.833-408.246-957.701-401.317-943.392-394.437-929.06-270.819-671.823-147.167-414.584-23.682-157.289L448.347 746.142H-1279.653Z"/>
</g>
</g>
</svg>
