<svg xmlns="http://www.w3.org/2000/svg" width="2048" height="1920" viewBox="0 0 2048 1920"><defs><clipPath id="clip_1"><path d="M0 0h2048v1920H0Z"/></clipPath></defs><g clip-path="url(#clip_1)"><path fill="#231f20" d="M1313.948 525.156c8.395 4.26 19.147 2.482 23.122-1.495-4.932-3.68-18.114-4.49-23.122 1.495m27.516 12.515c-.204-2.803-1.183-5.396-4.005-5.948-2.324-.453-2.203 1.975-2.11 3.503.16 2.653 1 5.426 3.85 5.975 2.216.427 2.043-1.996 2.265-3.53M1092.75 398.843c-.18-2.49-.686-5.26-3.482-5.572-2.43-.272-3.37 2.259-3.148 4.33.27 2.519.85 5.735 3.921 5.935 2.543.166 2.546-2.635 2.71-4.693m-457.866 498.04c2.792-3.84 4.706-6.292 6.406-8.886.743-1.135 1.982-2.627.321-3.902-1.477-1.134-2.69.155-3.958.889-4.432 2.563-2.879 6.568-2.769 11.899m313.67-247.092c.171-5.203-.235-9.13-2.407-12.687-.762-1.248-1.659-2.688-3.419-1.881-1.658.76-1.596 2.398-1.034 3.814 1.474 3.715 3.764 6.9 6.86 10.754m360.164-157.868c5.401 3.834 15.332 6.059 20.622 4.668-6.563-3.393-12.704-5.195-20.622-4.668m-182.772-11.668c0-10.783-6.93-29.406-17.829-34.64 0 12.96 8.915 28.333 17.83 34.64m-86.488 43.755c5.226 2.188 9.135.26 12.918-2.06 1.095-.672 2.027-1.792 1.565-3.23-.602-1.87-2.288-1.642-3.699-1.39-4.14.74-7.269 3.232-10.784 6.68m56.66 911.494c-2.6.204-6.48-.04-6.442 3.286.037 3.202 4.018 3.31 6.67 3.276 2.404-.032 5.99.039 5.914-3.39-.075-3.436-3.544-2.922-6.142-3.172m13.74-1038.6c.044-1.36-.104-2.517-1.908-2.685-3.178-.295-7.155 3.514-7.262 7.163-.057 1.924.27 3.853 2.637 4.23 2.571.41 6.286-4.646 6.532-8.707m-215.743-15.698-.485-1.891c-8.235 2.317-16.473 4.624-24.699 6.968-.727.207-1.35.729-.994 1.63.324.82 1.061.88 1.83.739 8.427-1.55 16.6-3.862 24.348-7.446m349.39-.511c5.29 4.976 11.854 6.677 18.565 7.977.603.117 1.63-.107 1.906-.532.588-.905-.02-1.816-.83-2.331-5.968-3.797-12.317-6.237-19.642-5.114M1097.43 600.922c2.922 6.619 7.423 12.026 12.753 16.8.662.594 1.556 1.277 2.394.309.903-1.042.216-2.162-.302-3.071-3.5-6.145-8.11-11.163-14.845-14.038m209.966-62.968c6.282 4.69 12.347 5.617 18.692 5.554 1.037-.01 2.418.394 2.84-1.006.523-1.733-1.154-2.263-2.158-2.724-5.79-2.66-11.743-4.331-19.374-1.824m-578.523 606.398c.064-1.713.365-3.275-1.108-3.81-1.436-.52-2.49.766-3.042 1.833-2.358 4.56-4.568 9.2-6.757 13.847-.27.576-.378 1.558-.067 2.014.697 1.02 1.657.352 2.39-.138 5.061-3.384 7.568-8.336 8.584-13.746m361.452 6.955c7.388-2.016 13.244-6.151 17.537-12.393.752-1.093 2.6-2.307 1.303-3.75-1.233-1.372-2.81-.042-3.917.787-5.736 4.305-10.995 9.113-14.923 15.356M768.776 978.986c-2.264 6.79-5.044 13.423-2.964 20.733.35 1.225.696 2.682 2.346 2.643 1.32-.032 1.908-1.238 2.023-2.311.757-7.07.403-14.08-1.405-21.065M980.33 594.074c4.993-2.43 8.091-5.81 10.565-9.616 1.702-2.618 4.892-6.654 1.765-8.706-3.02-1.982-4.7 2.975-6.329 5.262-2.63 3.692-6.057 7.234-6 13.06m36.242 643.203c2.758 0 5.522.102 8.273-.043 1.362-.071 2.484-.862 2.39-2.48-.078-1.314-1.073-1.888-2.21-2.09-6.002-1.055-12.027-1.767-18.123-.886-1.079.155-2.447.228-2.706 1.467-.305 1.455.818 2.36 2.041 2.93 3.3 1.542 6.863 1.05 10.335 1.102m76.613-10.01c-7.908 1.974-14.33 6.4-20.539 11.183-1.049.809-1.698 2.092-.836 3.418.687 1.057 1.995 1.219 3 .796 7.694-3.24 13.49-8.746 18.375-15.397M970.75 448.652c-4.61 11.979-3.803 24.559-3.717 37.07 4.794-11.936 7.043-24.155 3.717-37.07m274.913 269.768c4.815 6.663 9.627 11.328 15.281 15.124 1.962 1.318 3.91.787 5.511-.821 1.355-1.36 1.713-3.167.243-4.423-5.729-4.895-12.16-8.401-21.035-9.88m-338.74-98.078c12.066 3.578 24.338 2.713 36.608 1.648.538-.047 1.381-.874 1.425-1.395.091-1.056-.822-1.532-1.819-1.65-12.098-1.44-24.18-2.296-36.214 1.397m187.375 803.66c3.164.062 4.825-1.518 4.85-4.662.045-5.525-4.299-12.846-7.49-12.271-4.51.813-5.365 4.598-5.55 8.433-.233 4.833 3.371 8.46 8.19 8.5m199.153-866.357c.247-2.304-1.668-2.806-2.997-3.56-7.715-4.374-15.81-7.96-24.08-11.134-1.517-.582-3.81-2.306-4.829.01-.759 1.726 1.324 3.328 2.822 4.293 7.203 4.642 15.144 7.642 23.325 10.028 1.847.538 3.758 1.639 5.76.363m-290.555 717.288c-8.766-2.868-16.024-5.284-23.845-4.982-1.846.072-4.576-.147-4.984 2.5-.43 2.796 2.013 4.106 4.14 4.505 8.027 1.505 14.22 1.133 24.69-2.023m123.615-768.984c12.082 6.896 24.913 9.993 38.754 7.698-12.248-5.876-25.508-6.673-38.754-7.698m128.065 69.295c9.542 9.97 20.29 16.13 31.626 21.42.807.378 1.976.366 2.37-.682.475-1.268-.594-2.041-1.415-2.748-6.479-5.581-13.822-9.887-21.157-14.19-3.14-1.843-6.34-3.67-11.424-3.8M906.898 359.99c-.683-3.158-.606-7.478-5.56-7.823-3.817-.266-8.2 4.585-8.135 8.312.077 4.349 3.565 8.64 7.018 8.634 3.645-.008 6.76-4.077 6.677-9.123m292.428 220.53c-1.779.438-4.22.619-4.803 2.879-.587 2.28 1.704 3.162 3.311 3.823a600 600 0 0 0 21.25 8.3c1.342.494 3.514 1.844 4.4-.331.666-1.64-1.425-2.297-2.613-3.041-5.032-3.151-10.062-6.307-15.167-9.335-1.887-1.12-3.813-2.343-6.378-2.295m-129.872-47.278c-.946-.03-1.898-.004-2.259 1.093-.405 1.23.318 2.159 1.06 2.96 5.66 6.11 11.946 11.489 18.938 16.022 2.21 1.433 3.08.46 2.882-1.851-.552-6.484-14.066-18.397-20.62-18.224m-15.253 688.9c.336.317.633.796.836.759 11.85-2.143 23.137-5.99 33.888-11.388 1.234-.62 2.883-1.621 1.977-3.4-.906-1.777-2.526-.8-3.924-.433-9.852 2.587-19.365 6.078-28.398 10.793-1.664.868-3.924 1.278-4.379 3.669m18.393-796.737c1.353-.673 1.956-.79 2.265-1.154 3.292-3.886 5.962-28.112 3.591-32.51-.33-.613-.819-1.5-1.343-1.583-1.422-.226-1.794 1.16-2.165 2.113-4.163 10.68-3.13 21.623-2.348 33.134m-137.75 769.872c2.783.073 3.431-1.663 3.54-3.638.37-6.766 2.92-12.586 7.266-17.722.93-1.097 2.145-2.705.822-3.936-1.386-1.29-2.81.295-3.76 1.23-4.64 4.563-9.1 9.303-12.717 14.75-1.086 1.635-3.024 3.284-1.386 5.44 1.588 2.09 3.734 3.602 6.234 3.876m229.457 210.154c3.098.616 4.402-.87 5.728-2.045 6.232-5.518 12.404-11.103 18.574-16.692.678-.614 1.28-1.35 1.775-2.12.954-1.483 1.514-3.137.013-4.537-1.6-1.491-3.155-.627-4.345.687-1.73 1.91-3.306 3.964-4.945 5.957-2.054 2.499-4.319 4.806-7.904 4.16-5.239-.945-9.295 1.76-13.486 4.06-1.003.55-2.809 1.048-2.008 2.733.677 1.42 2.375 1.065 3.494.649 3.671-1.365 7.256-2.963 12.422-5.118zM947.034 555.266c5.253.11 8.9-4.095 8.985-10.44.053-3.92-1.736-6.403-5.815-6.578-4.417-.19-12.168 6.793-12.56 11.114-.246 2.69 4.71 5.805 9.39 5.904M1203.89 666.26c-10.864-20.106-41.6-49.47-51.676-48.93 19.07 13.603 34.3 31.223 51.676 48.93m-200.054 509.54c-2.094-1.922-3.44-1.446-4.573-.98-11.316 4.67-22.728 9.14-33.398 15.225-.954.544-1.767 1.347-2.614 2.066-.874.742-1.636 1.607-1.14 2.855.507 1.28 1.74 1.273 2.83 1.229 1.29-.051 2.668-.05 3.841-.504 12.498-4.844 23.263-12.65 35.054-19.89m-27.06 49.518c.927 0 1.855.003 2.783 0 6.56-.021 9.711-4.603 7.514-10.762-.574-1.611-1.684-2.285-2.912-1.452-7.249 4.919-15.07 4.139-23.077 2.856-1.5-.241-4.11-.945-4.659 1.657-.536 2.55 1.684 3.492 3.527 4.355 5.324 2.493 11.036 3.103 16.823 3.346m312.477 249.233c-4.894-4.824-9.534-9.306-14.07-13.89-6.023-6.09-12.208-11.972-19.834-16.052-1.92-1.028-4.537-2.582-6.066-.426-1.477 2.082 1.295 3.519 2.63 4.86 9.88 9.945 21.91 17.133 32.98 25.553 1.03.782 2.188 1.487 4.36-.045m-139.894-48.326c15.17 3.25 48.043-19.86 46.702-33.812-10.772 18.717-30.489 22.875-46.702 33.812m-229.535-1005.8c-6.99.74-9.644 6.048-12.106 11.537-1.352 3.012-2.293 6.178 1.106 8.37 3.143 2.028 6.371 1.563 9.105-1.078 3.373-3.257 5.798-7.175 7.401-11.55 1.46-3.981-1.147-7.314-5.506-7.28m361.59 493.948c1.166-10.406-14.07-50.26-20.786-55.281-.085 8.56 14.161 46.893 20.785 55.28m-69.743-552.81c-23.555-2.34-46.34-1.146-66.154 14.15 21.632-6.838 43.516-12.42 66.154-14.15m-189.397 17.874c-14.005.667-26.185 6.745-37.717 14.446-2.138 1.428-5.037 3.753-3.634 6.098 1.322 2.212 4.496.11 6.41-1.004 11.91-6.933 24.575-12.024 37.68-16.156 1.211-.382 3.657-.161 3.351-2.118-.37-2.362-2.738-.916-4.199-1.247-.529-.12-1.108-.02-1.89-.02m-64.285 255.09c4.316.5 7.46-1.277 10.805-1.963 1.453-.297 3.242-2.281 4.443-.227.933 1.596-.698 3.127-1.685 4.386-2.292 2.923-4.748 5.717-7.137 8.563 9.2-8.595 19.245-16.268 27.297-25.99 1.147-1.385 3.875-2.704 1.87-5-1.752-2.005-3.93-.312-5.558.626-6.414 3.7-12.732 7.572-19.02 11.485-3.674 2.286-7.685 4.17-11.015 8.12m263.548 903.839c-2.286.087-3.786.297-4.584 1.792-.673 1.262-.469 2.698.473 3.627 8.026 7.919 16.621 15.176 25.836 21.68.861.608 2.07 1.08 3.08.242 1.112-.926.422-2.006-.05-2.99-4.582-9.52-10.758-17.643-20.265-22.746-1.592-.854-3.436-1.238-4.49-1.605m60.486-726.534c5.444-.25 8.15-3.128 8.982-7.87.43-2.448.83-4.285 4.106-3.707 3.402.6 3.171-1.752 2.335-3.827-.754-1.873-1.844-3.638-2.975-5.324-1.557-2.324-3.306-4.994-6.522-4.293-3.412.744-3.493 4.103-3.583 6.795-.165 4.86-2.512 7.943-6.739 9.97-1.912.917-5.345 1.11-5.117 3.41.266 2.675 3.725 3.203 6.086 4.15 1.176.473 2.52.523 3.427.696M929.867 517.32c6.565.03 13.287-4.573 15.512-10.376 1.327-3.462 1.387-6.715-2.214-8.755-3.487-1.975-6.965-2.466-9.9 1.31-2.392 3.078-5.083 5.92-7.507 8.974-1.455 1.83-3.736 3.658-2.5 6.334 1.331 2.886 4.407 2.169 6.61 2.514m4.587-53.032c.144-5.51-2.358-7.451-7.019-5.962-5.32 1.698-8.459 5.863-11.144 10.388-1.993 3.358-4.325 6.974-.575 10.54 3.361 3.197 8.715 2.802 12.768-.532 4.778-3.93 5.21-9.57 5.97-14.434m259.415 690.375v.789c-5.189.349-10.372.794-15.564 1.023-6.685.295-13.37.594-19.795 2.632-1.376.436-4.053.165-3.715 2.409.321 2.132 2.618 1.507 4.221 1.3 18.468-2.376 37.066-1.854 55.61-2.532 3.335-.122 6.664-.452 9.991-.745.913-.081 1.914-.335 2.056-1.462.163-1.295-1.009-1.35-1.823-1.633-3.723-1.293-7.583-1.767-11.504-1.777-6.492-.016-12.984-.004-19.477-.004m-57.117-352.96c4.932 21.168 10.78 42.182 10.738 64.186 6.485-23.088 6.047-45.011-10.738-64.185M1244.87 609.56c5.191 12.745 47.695 36.448 59.195 32.86-20.23-10.01-40.05-20.743-59.195-32.86m-104.478-81.28c2.78 3.044 6.151 3.632 9.292 4.415a403 403 0 0 0 20.084 4.474c12.187 2.383 24.213 5.689 36.651 6.646 1.701.13 4.431 1.002 4.85-1.183.476-2.481-2.397-2.08-4.024-2.512-19.357-5.136-39.06-8.667-58.672-12.63-2.495-.503-5.065-1.017-8.18.79m-231.23-140.47c-7.466-.148-13.85 5.052-16.286 12.643-.97 3.02-.312 5.505 1.823 7.63 2.14 2.128 4.757 1.962 7.253.85 5.022-2.234 9.012-5.82 12.276-10.18 1.684-2.25 3.302-4.836 1.73-7.673-1.496-2.695-4.422-3.103-6.796-3.27m332.312 627.555c10.421 20.313 26.395 36.204 41.465 52.8.876.965 2.52 2.43 3.783.916 1.28-1.533-.245-3.186-1.148-4.492-12.625-18.243-27.69-34.322-44.1-49.224m-113.808 429.286c.536.097 1.08.312 1.607.273 26.432-1.916 50.466-11.33 73.551-23.65 2.034-1.086 3.166-3.001 3.76-5.292.533-2.054.417-3.822-1.759-4.582-2.069-.722-3.848.12-4.234 2.335-.626 3.592-3.02 5.334-6.017 6.707-11.644 5.335-23.365 10.454-35.493 14.644-10.323 3.567-21.018 5.759-31.415 9.565m132.531-528.571c-.778 1.19-.065 1.69.362 2.21 17.474 21.273 37.921 39.676 57.194 59.21.857.869 2.213 2.2 3.321.96 1.374-1.54-.557-2.597-1.407-3.605-10.906-12.917-22.727-24.976-34.732-36.86-7.833-7.754-15.542-15.653-24.738-21.915m-44.985 200.016c-4.183-6.852-42.344-35.851-47.388-35.753 12.057 17.125 23.96 34.052 47.388 35.753M1102.99 651.463l1.608-1.497-66.289-71.07-1.3 1.209c16.855 28.566 42.833 48.646 65.981 71.358m87.893 37.999 1.06-1.164c-2.022-2.371-3.927-4.854-6.084-7.095-9.657-10.032-19.433-19.951-29.073-30.001-6.159-6.42-12.505-12.704-17.586-20.053-1.242-1.796-1.864-4.943-4.557-3.25-2.718 1.712-.263 3.925.978 5.619 10.334 14.093 21.661 27.362 33.872 39.845 6.291 6.432 12.913 12.606 21.39 16.099m17.175 555.628c2.455 2.25 4.398 1.652 6.17 1.726 18.884.789 37.24-2.811 55.544-6.786 3.415-.742 7.015-.976 9.867-3.377 1.232-1.037 3.217-1.875 2.417-3.851-.809-1.998-2.855-1.314-4.429-1.048-8.766 1.483-17.543 2.915-26.268 4.61-14.154 2.748-28.27 5.686-43.3 8.726m-33.968-223.332c-.773-6.775-1.687-11.956-3.152-17.14-4.79-16.94-14.637-32.02-17.993-49.462-.372-1.933-1.676-3.065-3.48-2.923-2.379.186-2.863 2.136-2.588 4.126.302 2.183.624 4.42 1.376 6.475 5.278 14.429 10.565 28.857 16.078 43.198 2.041 5.308 4.617 10.429 9.76 15.726m121.251 488.864c1.415-1.451.832-2.608.582-3.563-1.359-5.192-2.88-10.343-4.294-15.522-.434-1.591-1.204-3.41.214-4.75 1.521-1.435 3.604-.881 5.277-.302 4.48 1.55 6.538 5.33 7.726 9.563 1.203 4.285 1.813 8.75 3.191 12.97 1.21 3.705 4.766 2.978 7.596 2.719 1.844-.17 1.481-1.832.768-3.04-5.043-8.526-7.562-17.676-7.084-27.627.074-1.542-.347-3.302-2.557-2.327-7.358 3.248-15.517 3.74-22.924 6.79-2.214.912-4.189 1.949-2.743 4.902 3.666 7.486 8.803 13.876 14.248 20.187m-61.2-748.394c4.976 4.388 9.841 8.912 14.961 13.128 5.835 4.804 12.723 6.78 20.245 6.484 3.453-.136 7.811.824 9.456-3.058 1.658-3.91-2.734-5.515-4.76-7.948-1.614-1.938-4.108-3.507-2.372-6.668 2.825-5.144-.162-9.196-2.729-13.213-.564-.883-1.778-2.458-3.156-1.077-2.714 2.718-6.25 3.063-9.672 3.85-1.097.254-2.299.644-2.322 2.009-.023 1.343 1.18 1.735 2.213 2.172 2.75 1.164 5.47.622 8.192-.11 1.632-.44 3.887-1.111 4.205 1.06.55 3.755-1.477 7.178-2.868 10.547-1.075 2.603-3.727 1.892-5.916 1.562-8.953-1.351-16.797-5.586-25.478-8.738m110.881 717.632c-7.126.054-13.142 6.024-13.214 13.114-.07 6.963 6.203 13.078 13.29 12.954 6.798-.12 12.597-6.161 12.561-13.085-.035-6.881-6.024-13.033-12.637-12.983M933.807 582.446c-.739-.064-1.48-.203-2.218-.177-1.564.055-3.615-.9-4.39 1.19-.66 1.78.857 3.116 1.898 4.365 3.522 4.229 8.015 5.759 13.432 4.68 9.714-1.932 18.073-6.477 25.368-13.082 4.037-3.655 5.447-8.244 4.786-13.582-.269-2.181-1.01-4.156-3.27-4.671-2.388-.544-3.049 1.66-3.84 3.262-6.524 13.2-19.189 15.517-31.766 18.015m336.337-236.166c2.277 4.715 5.76 6.909 9.028 9.3 7.692 5.627 16.675 8.912 24.83 13.689 2.12 1.242 5.792 2.02 5.433 4.879-.37 2.963-4.282.482-6.574 2.514 10.311 5.855 19.695 12.669 28.137 20.75 1.306 1.25 3.332 3.732 5.09 2.18 2.02-1.781-.308-4.008-1.28-5.912-.166-.327-.418-.614-.654-.901-14.402-17.516-30.757-32.697-51.299-42.863-3.796-1.88-7.659-3.551-12.71-3.636m-122.254 40.067c22.838 3.135 46.125 1.819 68.588 7.922 11.64 3.163 23.637 4.767 35.767 4.827 1.026.005 2.226.447 3.166-1.065-.912-1.92-2.85-1.704-4.575-2.007-14.057-2.464-28.137-4.858-41.967-8.411-16.975-4.362-34.02-7.684-51.674-5.48-3.314.414-6.6.875-9.305 4.214m-174.257 847.397c-1.165 0-3.772-.131-6.36.034-3.087.196-4.99 2.025-4.585 5.114.958 7.284 4.912 13.165 9.732 18.418 3.49 3.803 7.628 1.172 11.527.548 1.28-.205 2.607-.113 3.883-.331 2.517-.43 3.838-1.9 3.978-4.555.66-12.473-4.67-18.608-18.175-19.228m299.39 313.884c.096-4.142-.053-8.45-2.71-11.705-4.335-5.31-5.792-11.55-6.782-17.96-1.103-7.14-1.762-14.348-2.65-21.522-.18-1.46-.317-3.18-2.118-3.512-1.57-.29-2.087 1.307-2.83 2.292-4.32 5.716-5.997 11.733-2.632 18.648 2.267 4.658 3.923 9.609 6.078 14.326 4.546 9.956 7.318 19.903 1.217 30.29-.692 1.178-1.77 2.777-.418 4.06 1.175 1.116 2.818.444 4.25.142 5.53-1.166 8.438-6.276 8.594-15.06M998.574 419.418c.006-.776 1.026-3.072-1.325-4.333-2.2-1.18-3.255.938-4.646 2.05-1.583 1.267-3.11 2.723-5.336 2.734-1.407.007-2.47.312-2.985 1.878-1.585 4.82-1.337 9.605.693 14.135 1.025 2.287 3 3.775 4.637.21.62-1.347.671-2.988 2.938-2.087 4.661 1.85 7.55 9.076 5.503 13.613-.66 1.465-3.445 2.833-1.243 4.635 1.63 1.332 3.93.866 5.697-.547 7.855-6.275 14.996-13.314 21.862-20.636 1.021-1.09 1.933-2.643.788-4.001-1.306-1.548-2.808-.061-4.003.517-4.797 2.318-9.708 3.696-15.083 2.743-5.24-.93-8.05-4.504-7.497-10.911m-75.43 1075.38c8.471-.08 16.513 2.599 23.866-1.435 15.28-8.382 30.33-17.185 45.371-25.99 6.881-4.028 13.86-8.012 20.03-14.492-20.614 6.595-82.693 35.588-89.267 41.917m406.331-33.611c14.392-3.75 27.498-2.335 37.558 9.559 10.192 12.05 9.366 25.224 1.696 39.865 11.147-8.451 15.785-18.312 13.9-30.5-1.998-12.901-9.327-22.197-21.896-26.313-11.598-3.797-22.063-.83-31.258 7.389M1010.95 568.834c-5.928 11.613-13.678 21.715-22.444 31.085-1.905 2.036-1.463 3.03 1.277 3.488 5.957.996 10.447 4.544 14.52 8.732 2.357 2.426 5.143 4.249 8.132 5.78 1.71.875 3.43 1.934 5.651.077-1.003-.561-1.749-1.03-2.537-1.412-6.759-3.272-8.273-6.327-5.726-13.332 1.448-3.981 3.56-7.756 5.67-11.453 5.06-8.864 10.447-17.522 13.56-27.382 2.227-7.061 6.827-7.781 11.668-1.947 2.6 3.134 4.764 6.628 7.167 9.928.51.7.993 1.762 2.158 1.263 1.064-.457.892-1.525.798-2.412-.418-3.941-1.76-7.587-3.85-10.926-3.964-6.334-10.168-7.404-16.128-2.783-4.24 3.288-6.51 8.032-8.928 12.619-3.72 7.062-7.173 14.268-11.017 21.26-2.038 3.709-4.167 7.494-7.79 10.018-1.42.988-2.95 1.756-4.522.249-1.482-1.422-1.252-3.055-.234-4.551 1.668-2.45 3.522-4.772 5.218-7.204 4.398-6.308 9.56-12.35 7.357-21.097m124.514 689.749c-.154-3.536-.286-6.69-.43-9.841-.162-3.495-1.686-4.268-4.612-2.324-4.948 3.287-9.934 6.518-14.862 9.834-13.989 9.41-14.168 12.197-1.704 23.937 1.696 1.598 3.49 2.68 5.945 2.41 7.263-.803 14.186-7.553 15.067-14.944.373-3.127.423-6.293.596-9.072m99.316-840.51c5.01 0 10.021.033 15.031-.02 1.556-.015 3.94.758 4.15-1.485.197-2.124-2.184-2.193-3.789-2.341-7.398-.685-14.796-1.436-22.21-1.865-21.745-1.257-43.279-3.96-64.504-8.926-1.816-.424-4.078-.833-4.785-2.518-1.628-3.888-4.983-4.078-8.244-4.551-5.728-.831-11.517-.767-17.255-.337-3.885.29-9.932.093-9.88 4.654.045 3.97 6.136 3.92 9.867 4.08 8.937.384 17.814 1.164 26.572 2.91 24.797 4.949 49.594 9.817 75.047 10.4M752.02 818.919c2.055-.647 4.578-1.28 6.98-2.222 19.573-7.675 35.003-19.923 43.658-39.656 4.762-10.857 12.684-19.124 22.08-26.024 10.76-7.903 21.68-15.591 32.557-23.333 5.976-4.253 9.342-12.647 18.745-11.611 1.246.137 3.302-1.44 2.53-3.561-.829-2.274-2.742-2.166-4.657-1.401-3.479 1.389-6.563 3.463-9.485 5.752-11.4 8.936-23.023 17.593-35.353 25.184-13.722 8.447-23.879 19.836-30.486 34.456-6.063 13.419-15.908 23.035-29.064 29.486-5.995 2.939-11.765 6.275-18.626 6.983-1.998.206-4.299 1.584-4.005 3.888.3 2.338 2.9 1.637 5.125 2.059m348.688 425.036c10.244-2.348 20.492-4.676 30.725-7.07 1.11-.26 1.77-1.083 2.075-2.344 2.423-10.023 3.19-20.18 2.552-30.446-.153-2.455-1.563-3.51-3.719-1.894-6.409 4.803-13.77 9.59-16.945 16.617-3.976 8.8-9.428 16.252-14.688 25.137m93.517-347.276c-.008 4.316 2.15 6.846 4.152 9.375 16.604 20.969 33.363 41.815 51.044 61.892 7.5 8.515 15.5 16.563 25.438 22.33 1.28.743 2.66 3.048 4.16 1.303 1.29-1.5-.802-2.961-1.623-4.311-2.427-3.994-5.635-7.364-8.76-10.806-22.226-24.475-45.664-47.845-66.742-73.365-1.948-2.358-4.02-4.731-7.669-6.418m-154.138 447.175c.625-4.165-1.047-5.976-2.635-7.7-4.658-5.054-9.43-10.003-14.106-15.041-.854-.92-2.44-1.73-2.083-3.093.476-1.817 2.441-1.265 3.806-1.481 8.622-1.36 17.248-2.701 25.886-3.96 20.763-3.024 41.437-6.715 62.393-8.296 5.04-.38 9.228-2.74 12.737-6.21 1.631-1.614 4.187-3.566 2.606-6.083-1.444-2.3-4.158-.8-6.119-.067-25.65 9.586-52.724 12.296-79.467 16.624-10.446 1.69-20.86 3.582-31.269 5.49-4.188.77-4.504 3-1.316 5.438 9.84 7.524 19.401 15.39 29.567 24.379m225.212-10.09c.408-.591.808-1.188 1.226-1.772 11.883-16.625 14.775-36.567 20.332-55.505 1.467-4.997-.342-6.828-5.155-5.952-25.689 4.67-51.644 5.687-77.67 5.985-5.183.059-10.38.634-15.525 1.32-1.825.245-4.946.184-4.92 2.598.027 2.462 3.094 2.334 4.962 2.417 6.861.307 13.735.33 20.604.436 21.44.33 42.563-3.066 63.78-5.397 6.762-.743 7.243-.07 5.87 6.344-3.583 16.709-9.472 32.757-13.504 49.526M1152.601 771.1c1.454 1.849 2.783 3.816 4.382 5.53 18.813 20.174 35.617 41.807 49.53 65.723 6.273 10.782 14.764 20.022 24.144 28.318 1.122.992 2.208 2.978 4.207 1.738 1.882-1.168 1.717-3.114 1.34-5.014-.805-4.05-2.309-7.81-4.44-11.352-9.747-16.204-22.498-29.97-35.365-43.64-13.732-14.588-27.686-28.951-43.798-41.303M865.204 350.85c12.634-.62 23.36-6.002 32.014-16.036 2.012-2.333 3.382-4.973 1.814-8.326-1.48-3.17-4.04-4.25-7.09-4.234-9.915.049-18.915 3.299-27.108 9.18-3.279 2.354-5.58 5.618-7.36 9.3-2.922 6.043-2.023 8.082 4.198 9.599 1.082.264 2.21.329 3.532.518m236.551 905.338c-2.67-.902-4.427-.258-6.115.265-12.593 3.904-25.16 7.89-37.754 11.795-20.36 6.31-40.07 15.497-61.629 17.275-3.545.293-6.862.81-10.128 2.213-1.724.74-3.512.936-3.199 3.408 1.13 8.954 9.178 14.742 18.263 14.888 6.927.11 9.276-1.702 8.828-6.052-.975-9.45-.525-10.867 8.85-13.481 25.036-6.978 49.324-16.137 73.75-24.9 3.058-1.097 6.375-1.906 9.134-5.411M924.858 725.386c1.278 1.167 2.398.955 3.46.855 33.336-3.137 66.798-2.93 100.222-3.743 2.444-.06 4.846-.024 7.021 1.273 14.976 8.927 30.373 17.166 44.074 28.129 7.546 6.037 13.041 13.646 18.191 21.62.824 1.277 1.95 2.863 3.484 2.028 1.765-.96.466-2.59-.142-3.888-3.014-6.432-6.73-12.291-12.11-17.134-10.822-9.742-22.597-18.157-35.323-25.114-10.014-5.474-19.447-12.767-31.39-13.592-29.982-2.07-59.698 2.006-89.476 4.418-3.264.264-6.195 1.958-8.01 5.148m106.181 635.179c4.41 1.659 7.17.218 9.903-.731 22.944-7.97 45.718-16.362 67.486-27.256 4.732-2.37 9.458-3.69 13.408 1.6 1.205 1.614 2.946 1.953 4.996 1.492 12.404-2.794 19.57-14.956 15.751-26.863-2.414-7.525-4.852-8.341-10.7-2.755-9.18 8.767-18.92 16.66-30.177 22.644-16.109 8.56-33.545 14.019-50.054 21.633-6.647 3.065-13.486 5.765-20.613 10.236m-90.298-684.583c-1.88 3.382-3.775 5.944-4.775 8.818-1.095 3.145-4.877 6.277-2.176 9.71 2.806 3.568 7.366 2.854 11.471 2.439.551-.056 1.086-.253 1.635-.345 12.96-2.167 25.425-6.803 38.837-6.826 23.985-.04 47.6 1.342 69.238 13.306.972.538 1.977 1.08 3.035 1.383 1.19.339 2.69.953 3.401-.664.56-1.272-.597-2.043-1.467-2.674-5.4-3.913-10.529-8.298-17.176-10.092-27.419-7.398-55.003-10.783-83.066-3.594-2.513.644-6.39 2.494-7.404-.1-.92-2.362 3.122-4.008 5.38-5.467 9.818-6.346 19.737-12.538 29.54-18.908 2.515-1.635 5.124-3.342 6.291-6.601-4.057 1.33-7.954 2.907-11.53 5.025-10.868 6.435-21.526 13.224-32.434 19.587-6.713 3.917-8.099 3.097-8.8-4.997m74.054 522.859c3.632 1.119 6.713.794 9.737.224 9.66-1.82 19.341-3.561 28.93-5.707 4.946-1.107 8 .156 9.216 5.149 1.192 4.888 4.221 6.24 8.78 4.632 2.266-.8 4.524-1.651 6.72-2.63 17.913-7.986 35.367-17.076 54.242-22.745 2.046-.614 2.686-1.843 2.86-3.547.29-2.85-.003-5.723-2.297-7.702-2.354-2.03-5.006-.987-7.284.294-6.306 3.545-12.439 7.398-18.773 10.89-9.008 4.965-18.252 9.27-29.006 8.088-2.786-.306-6.009-.303-7.006-3.43-1.018-3.187 3-3.17 4.164-5.09.168-.277.115-.69.203-1.307-5.464-.724-9.753 2.146-13.754 4.894-7.698 5.289-16.178 8.089-25.245 9.673-4.743.828-9.45 1.944-14.093 3.224-2.74.755-5.5 1.843-7.394 5.09m43.971-731.888c.92-2.845 3.206-3.678 4.653-5.283.923-1.023 2.923-1.878 1.75-3.512-1.09-1.521-2.784-.197-4.053.323-3.374 1.384-5.83 3.957-7.809 6.917-5.87 8.773-6.235 18.863-6.544 28.895-.106 3.427 2.66 4.14 5.448 4.19 8.634.157 14.576-4.68 19.717-10.87 2.674-3.217 4.562-6.668 1.277-11.353 3.582.52 6.32.842 9.027 1.327 3.952.706 5.638-.563 4.743-4.767-.83-3.904-.004-7.733.931-11.554 2.357-9.626 7.071-18.321 10.64-27.467.66-1.692 2.26-3.808-.83-5.096-5.056-2.106-10.95 1.213-11.644 6.74-.276 2.203-.148 4.453-.264 6.679-.584 11.225-15.124 24.764-27.042 24.83m112.411 752.534c4.868 2.192 4.945 2.117 11.01 2.246 27.321.58 53.947-4.72 80.578-9.72 10.938-2.053 13.804-6.02 14.274-17.235.362-8.663-1.532-17.331.066-26.01 1.181-6.414.148-7.922-6.26-9.971-1.262-.403-2.745-1.132-3.632-.022-1.04 1.3.37 2.49 1.254 3.26 7.042 6.115 5.951 12.833 1.74 19.92-1.326 2.229-2.564 4.544-3.519 6.948-1.425 3.586-3.646 5.004-7.679 4.768-16.318-.956-32.653-1.614-48.985-2.315-1.963-.085-4.224-.87-6.413 1.652 19.255 2.913 37.9 4.222 56.644 4.373 1.9.015 4.926-.994 5.277 1.47.364 2.553-2.859 2.19-4.655 2.847-.694.254-1.423.434-2.15.568-24.467 4.516-48.942 8.977-73.392 13.57-4.478.842-9.175 1.01-14.158 3.65m69.211 230.36c-.187-.847-.466-2.882-1.089-4.805-2.683-8.275-8.009-15.035-12.91-22.016-3.72-5.296-4.837-5.407-9.13-.551-6.813 7.707-14.988 13.247-24.755 16.439-30.638 10.013-60.792 22.544-94.306 16.652-5.39-.948-7.36 2.833-4.68 7.799.957 1.775 2.262 3.38 3.536 4.96.907 1.126 2.03 1.624 3.244.238 3.032-3.457 7.2-3.344 11.287-3.663 6.663-.521 13.354-.59 19.978-1.775 25.016-4.48 49.09-11.723 71.201-24.514 5.163-2.986 8.872-2.583 13.071 1.653 5.805 5.854 11.36 11.744 14.341 19.612.74 1.952 1.724 3.894 4.201 3.839 2.181-.05 3.124-1.836 3.884-3.555 1.282-2.898 2.271-5.888 2.127-10.313m-44.779-470.386c1.776 6.206 3.601 12.398 5.32 18.62 4.876 17.649 15.03 32.96 22.035 49.679 3.966 9.463 10.335 17.599 18.256 24.312 16.206 13.736 34.242 24.864 52.001 36.384a7.5 7.5 0 0 0 1.487.755c1.738.63 3.64 1.613 5.121-.223 1.326-1.643.121-3.26-.86-4.538-1.46-1.9-3.063-3.736-4.836-5.344-11.856-10.756-25.064-19.792-37.907-29.261-12.364-9.115-22.394-19.858-28.918-33.924-5.462-11.78-11.443-23.322-17.39-34.87-3.95-7.664-7.704-15.485-14.309-21.59M971.04 534.062c1.952-1.906 1.55-3.874 1.67-5.643.628-9.24-2.142-17.821-6.837-25.422-10.007-16.201-9.718-32.99-4.44-50.36 3.683-12.127 9.23-23.438 15.207-34.562.823-1.532 3.058-4.052-1.096-4.108-12.433-.17-24.869-.138-37.304-.115-3.085.006-4.804 1.1-3.97 4.795 2.144 9.517 2.208 19.6 8.347 27.98 1.136 1.55 1.777 3.836 1.775 5.782-.006 8.086 3.255 15.182 6.398 22.297 2.504 5.667 4.067 11.478 4.414 17.674.34 6.068 2.004 11.66 6.507 16.123 2.378 2.358 3.343 5.41 2.834 8.675-1.082 6.948 2.48 11.83 6.495 16.884M1137.6 1546.67c3.86-.488 7.741-.841 11.574-1.484 19.225-3.223 38.55-6.505 56.035-15.563 21.858-11.324 37.207-29.711 50.846-49.627 5.037-7.354 4.441-9.776-2.702-15.177-3.24-2.45-5.628-2.783-6.478 2.143-1.548 8.974-7.033 15.696-12.567 22.542-5.889 7.285-10.91 15.264-14.128 24.13-1.19 3.282-2.948 4.094-6.149 4.048-4.756-.068-9.66-.887-14.1 1.907-13.08 8.23-27.783 12.253-42.505 16.165-12.192 3.24-24.15 3.939-35.372-3.464-5.745-3.79-11.476-7.575-16.134-12.697-2.529-2.781-5.636-2.426-8.11-.92-2.559 1.557-.25 4.09.464 5.917 2.265 5.803 6.57 9.796 12.222 12.33a2004 2004 0 0 0 16.293 7.204c3.431 1.5 6.957 2.613 10.81 2.546m-45.972-158.851c-2.13-.266-5.064.627-5.987-2.473-.79-2.658.182-5.173 2.157-7.115 1.046-1.03 2.284-1.915 3.562-2.645 6.51-3.721 13.575-6 20.864-7.53 3.31-.695 6.673-.694 9.32 2.142 2.476 2.654 5.666 2.848 8.77 1.739 8.59-3.068 16.753-7.027 24.213-12.352 3.973-2.835 5.385-6.67 3.987-11.221-1.41-4.594-3.232-9.07-5.033-13.534-1.129-2.796-2.649-3.746-5.092-.884-15.692 18.383-36.918 27.6-58.972 35.42-5.419 1.923-10.852 3.815-16.215 5.883-2.766 1.067-4.117 2.897-2.739 6.126 3.428 8.035 10.103 12.43 18.824 12.206 6.902-.177 13.692-1.268 20.394-2.771 19.456-4.363 38.357-10.181 55.003-21.722 1.446-1.003 3.751-2.571 4.964-.79 1.287 1.892-1.229 3.073-2.61 4.193-8.937 7.247-17.595 14.883-27.834 20.34-2.517 1.34-3.889 3.469-2.385 5.89 1.445 2.327 3.653.312 5.368-.382 1.344-.545 2.531-1.55 3.69-2.474 11.228-8.971 20.462-19.938 30.215-30.38.895-.958 2.534-2.194 1.287-3.784-1.01-1.288-2.45-.14-3.614.19-10.022 2.846-19.486 7.173-29.107 11.08-17.065 6.932-34.236 13.478-53.03 14.848m239.14-475.847c-3.045-11.61-4.124-23.146-2.245-34.907.228-1.428-.026-2.968-.26-4.424-.169-1.044-.438-2.364-1.857-2.357-1.382.008-1.814 1.306-1.946 2.343-.49 3.864-.742 7.759-1.227 11.625-.177 1.412-.073 3.37-1.752 3.805-1.739.45-2.42-1.421-3.232-2.577-5.04-7.18-6.074-15.53-6.158-23.896-.169-16.937-6.844-29.77-22.32-37.384-2.639-1.298-5.874-4.841-8.315-2.044-2.039 2.336 1.817 5.11 3.19 7.569 1.337 2.399 3.184 4.565 5.06 6.602 2.896 3.147 4.446-1.818 7.162-1.683-1.08 5.569.343 9.78 4.996 12.764 1.543.989 2.807 2.424 4.161 3.696 1.395 1.31 2.986 3.174 1.826 4.776-1.568 2.166-3.374-.112-4.716-1.023-5.416-3.675-9.98-8.358-14.278-13.23-25.082-28.432-47.86-58.738-71.547-88.305-1.292-1.613-2.46-3.386-2.439-5.512.042-4.096-2.129-6.931-4.84-9.642-20.103-20.105-40.413-40.012-60.09-60.526-5.978-6.231-14.266-4.138-20.49-8.533.36 1.4.943 2.35 1.754 3.028 2.137 1.784 4.26 3.62 6.585 5.134 28.968 18.849 52.213 43.776 71.262 72.019 15.585 23.107 35.47 42.735 50.137 66.53 8.526 13.834 21.94 24.095 31.94 37.095 14.503 18.853 26.176 39.527 39.64 59.057m-118.955-396.336-.043 1.174c.814.377 1.592.894 2.447 1.11 19.807 5.04 39.616 10.073 59.445 15.02 1.772.443 3.686.402 5.535.41 1.308.006 2.81-.254 3.122-1.78.36-1.761-1.357-2.084-2.466-2.443-3.883-1.261-7.832-2.321-11.748-3.482-9.3-2.758-18.597-5.53-27.895-8.297l.223-1.731 65.696 2.257c.055-2.054-.698-2.236-1.4-2.446-35.6-10.618-71.936-16.76-109.089-18-7.799-.261-15.639-.403-23.368-1.35-7.869-.965-9.998-5.82-6.112-12.464 1.875-3.207 3.602-6.55 5.867-9.466 3.531-4.545 2.901-7.875-1.798-11.09-4.633-3.168-5.515-7.487-3.2-12.715 1.408-3.18 3.136-3.437 5.48-1.397 6.445 5.613 10.796 12.309 10.033 21.298-.393 4.626-.942 7.982-1.395 12.604-.22 2.244-.989 4.357 1.543 5.089 3.086.892 3.821-.881 5.005-3.7.541-2.305.61-3.374.732-5.021.586-7.89.155-14.306-2.8-21.672-2.366-5.896-6.305-10.555-12.312-12.982-3.897-1.574-8.095-2.32-11.537.954-3.222 3.062-3.338 7.52-1.778 10.952 4.035 8.878 3.164 17.45.918 26.525-2.674 10.803-4.272 12.42-15.498 12.149-7.624-.185-15.265-1.071-22.927.45 41.651 6.537 84.33 3.61 125.718 14.666zM899.58 1581.805c2.735-.268 4.762-.334 6.74-.68 14.811-2.59 29.641-5.086 44.411-7.894 40.297-7.66 75.58-13.743 115.603-22.817 3.898-.884 7.421-2.354 10.428-4.973 2.105-1.833 3.673-4.311 2.337-6.892-4.88-9.425-12.527-17.154-22.363-19.686-8.404-2.164-17.972-1.68-26.776 2.142-43.622 18.94-82.093 37.12-125.335 56.919-1.6.733-3.588 1.042-5.045 3.88m387.058-1150.516c4.121 9.35 7.394 17.658-.024 26.06-2.486 2.816-1.095 4.836 2.294 5.41 1.81.307 3.716.31 5.551.146 6.287-.566 12.554-1.373 18.845-1.871 2.88-.228 6.132.08 5.742 4.118-.923 9.536 3.944 13.733 10.295 19.094 2.981 2.517 5.016 2.594 5.031-1.996.02-5.955.662-11.914.208-17.866-.318-4.174-1.557-8.275-3.738-11.857-.888-1.46-2.528-2.852-2.853-4.57-.493-2.604 2.186-5.468 4.854-4.857 2.445.56 3.861 3.43 5.122 5.339 2.244 3.393 4.364 7 5.064 11.066 1.128 6.539.75 13.465.283 20.048-.165 2.33-.37 4.658-.586 6.984-.158 1.696-.104 3.844 1.695 4.259 2.211.51 3.343-.354 3.752-2.51.168-.89.42-2.09.523-2.996.885-7.746 1.77-15.493 2.57-23.25 1.74-16.856-4.03-30.37-17.284-41.154-12.426-10.112-25.114-19.781-39.432-27-14.266-7.191-25.88-1.5-29.538 13.926-1.814 7.65-2.234 15.425-2.154 23.24.07 6.793-2.518 11.695-8.999 14.59-4.56 2.039-9.024 4.5-12.775 7.877-8.557 7.706-16.05 16.112-16.554 28.515-.156 3.84 1.43 6.608 5.447 7.143 3.914.522 6.313-1.453 7.28-5.275.246-.98-.258-2.317 1.771-3.13 5.85 11.74 17.262 12.13 28.375 13.399 11.22 1.28 22.718 1.267 33.294 5.979 10.236 4.559 21.096 7.094 31.764 10.266 1.825.542 3.654.719 5.47.029 2.342-.89 5.055-2.29 4.748-4.823-.416-3.432-3.706-1.44-5.44-1.32-16.117 1.117-30.94-2.063-43.874-12.237-2.636-2.072-5.378-4.047-6.809-7.205-.606-1.338-1.002-2.806.145-4.198 1.138-1.381 2.467-1.37 4.011-.87 3 .975 5.984 2.065 9.056 2.726 1.862.4 4.414 3.132 5.672.026 1.238-3.058-1.499-4.555-4.096-5.5-1.044-.378-2.13-.65-3.158-1.067-6.172-2.516-14.492-4.617-20.138-8.345-2.684-1.771-5.39-3.845-4.003-7.674 3.453-9.535 8.756-18.383 12.593-28.67M960.831 1036.84c1.28-15.908-4.08-28.836-13.619-40.185-4.178-4.971-9.863-7.704-16.292-8.915-2.634-.496-4.818-.06-6.505 2.009-1.672 2.047-1.076 4.176.105 6.23.74 1.286 1.32 2.727 2.296 3.803 5.132 5.657 6.774 12.63 7.87 19.878 3.082 20.422 3.752 41.059 5.551 61.594 1.264 14.426 1.862 29.139 6.226 42.876 3.355 10.562 5.826 21.004 6.842 31.95 1.19 12.818 8.385 18.037 21.204 15.72 9.34-1.69 18.371-4.543 27.335-7.558 7.791-2.621 10.467-6.27 10.595-14.407.147-9.287-.13-18.576-.353-27.866-.316-13.226-5.618-23.84-14.376-33.398-9.176-10.014-18.928-19.433-28.599-28.935-6.699-6.582-10.309-14.012-8.28-22.796m-263.22 227.512c-2.06-2.716-1.014-5.212-.286-7.65 2.973-9.957 6.04-19.888 8.975-29.857.992-3.366 2.354-6.691 2.076-10.318-.083-1.096-.09-2.43-1.383-2.78-1.393-.376-1.838.96-2.37 1.874-2.525 4.328-4.893 8.75-7.542 13-1.645 2.64-3.318 3.882-5.425-.084-2.628-4.946-3.22-4.742-6.51-.045-6.6 9.42-9.696 20.42-14.082 30.84-2.375 5.645-4.579 11.392-8.14 16.433-.895 1.266-1.78 3.308-3.768 2.677-1.714-.544-2.04-2.551-2.324-4.152-.525-2.963-.12-5.92.494-8.851 2.605-12.427 7.744-24.013 12.11-35.834 2.633-7.13 3.58-14.721 7.156-21.608 16.69-32.153 34.835-63.504 52.635-95.03 15.746-27.886 24.602-57.092 23.387-89.29-.505-13.364.041-26.81 2.705-39.971 2.885-14.257 4.446-28.581 4.743-43.122.14-6.86 1.15-13.903 5.385-19.643 12.14-16.453 19.592-35.345 28.17-53.635 3.373-7.193 7.293-14.235 9.118-22.077.357-1.53.883-3.79-.75-4.603-1.839-.915-2.754 1.304-3.698 2.493-7.227 9.098-13.042 19.167-16.746 30.063-4.964 14.606-13.275 26.51-25.189 35.984-9.014 7.168-14.43 16.333-16.572 27.547-2.754 14.43-8.628 27.604-16.115 40.13-5.086 8.507-9.616 17.277-10.69 27.297-.853 7.94-1.11 15.942-1.817 23.9-1.083 12.194-1.069 24.527-4.288 36.464-.708 2.625-2.187 5.169-5.108 5.203-3.359.039-2.945-3.285-3.462-5.46-4.078-17.16-5.3-34.563-3.12-52.041 2.305-18.478 5.352-36.704 18.155-51.74 5.17-6.07 9.744-12.97 11.578-21.534-2.387.172-3.293 1.673-4.418 2.769-7.47 7.274-14.09 15.299-20.71 23.336-5.197 6.31-7.623 13.424-7.73 21.559-.085 6.312-.595 12.62-1.019 18.924-.237 3.526-1.26 7.06-5.262 7.535-4.567.543-3.842-4.107-5.277-6.603-.175-.304-.133-.727-.22-1.087-7.638-31.22 2.526-56.245 26.69-76.303 10.443-8.67 21.506-16.507 33.103-23.565 11.484-6.99 21.205-15.556 26.847-28.165 4.474-9.998 9.432-19.78 13.93-29.767 12.217-27.134 28.92-50.876 51.38-70.636 21.49-18.907 35.04-31.398 57.221-49.48 5.447-4.424.766-8.338-2.524-6.032-8.827 6.189-17.712 12.294-26.5 18.539-4.1 2.914-9.459 3.015-13.289 6.769-10.089 9.89-20.205 19.732-29.69 30.22-12.11 13.393-21.915 28.615-33.856 42.145-9.234 10.462-20.554 16.395-34.484 16.978-7.752.325-14.447 3.21-20.62 7.554-12.352 8.692-23.465 18.865-34.208 29.417-16.026 15.742-32.699 30.927-44.564 50.384-3.247 5.324-5.77 10.856-6.385 17.07-1.517 15.349-2.915 30.708-4.307 46.068-.754 8.32-7.696 16.304-7.61 24.806.417 41.834-.07 83.654.21 125.49.538 80.325-.92 160.845-.324 241.169.007 1.057 5.925 2.446 7.905 3.04 4.108-5.36 6.91-11.4 9.721-17.453 6.301-13.563 10.027-27.925 13.418-42.404 1.078-4.6 3.12-8.997 8.435-8.911 4.718.077 6.717-2.514 8.497-5.84 3.501-6.544 6.77-13.212 10.28-19.751 1.025-1.91 2.094-4.695 4.41-4.623 3.984.124 5.012-2.586 6.39-5.16 2.192-4.091 4.4-8.18 6.391-12.37a612 612 0 0 0 8.514-18.752c.81-1.864 1.558-4.503-.514-5.586-2.14-1.12-2.84 1.718-3.782 3.052-1.599 2.262-2.809 4.798-4.21 7.202-2.763 4.738-5.029 9.815-9.142 13.882m403.573-93.807c18.024-7.267 30.551-21.25 43.197-35.074.596-.652 1.105-1.611 1.185-2.471.54-5.765 3.721-9.94 7.785-13.706 3.814-3.535 2.941-6.848-.9-9.718a35 35 0 0 0-4.707-2.964c-18.097-9.427-34.85-20.332-46.848-37.573-5.403-7.762-5.998-9.653.98-16.128.816-.76 1.62-1.548 2.52-2.198 8.381-6.056 13.042-14.518 15.856-24.228 5.697-19.658 6.451-39.907 7.164-60.147.217-6.148-.932-12.191-2.469-18.163-3.613-14.037-9.803-27.278-12.863-41.466-2.327-10.795-4.3-21.62 3.01-31.618 1.93-2.64 1.761-5.99 1.462-9.187-1.509-16.095-2.833-32.21-5.52-48.17-1.408-8.368-4.472-16.08-8.956-23.24-1.26-2.01-2.433-4.357-5.543-3.722-3.133.639-3.39 3.238-3.529 5.61-.446 7.607-.663 15.226-1.025 22.838-.962 20.254-11.852 35.11-26.267 47.99-1.136 1.017-2.63 2.618-4.406 1.413-1.84-1.25-1.356-3.287-.85-5.103 1.35-4.867 3.786-9.272 6.02-13.751 8.075-16.196 15.667-32.435 14.74-51.313-.389-7.915-3.322-13.827-9.648-18.432-9.626-7.01-19.533-13.58-30.023-19.194-10.782-5.771-21.509-12.49-34.183-12.412-21.063.129-26.244 7.685-21.59 27.076 2.74 11.413 7.582 22.136 12.827 32.616 3.738 7.468 7.823 14.76 11.718 22.15.688 1.306 1.48 2.75.266 4.138-1.236 1.414-2.712.57-4.137.222-4.814-1.176-8.097-4.288-10.776-8.266-5.93-8.806-11.178-17.996-15.145-27.85-3.604-8.95-6.663-18.124-10.426-27.003-3.003-7.084-7.383-8.458-14.397-5.18a100 100 0 0 0-17.21 10.27c-9.258 6.87-17.085 15.013-20.307 26.49-7.748 27.61 10.565 59.007 38.802 65.282 21.553 4.789 43.641 7.055 64.88 13.497 3.064.929 7.037 1.908 9.432-1.114 2.435-3.073-.634-5.883-1.9-8.621-2.578-5.575-5.028-11.185-5.892-17.327-.283-2.006-.82-4.62.931-5.743 2.25-1.445 4.162.942 5.705 2.276 1.932 1.67 3.451 3.868 4.961 5.97 6.53 9.092 10.82 19.476 16.617 29.002 2.866 4.708 6.13 5.946 11.08 3.768a447 447 0 0 1 17.463-7.272c3.052-1.191 6.488-3.022 9.255.268 2.515 2.988 1.414 6.357-.225 9.417-5.26 9.826-10.506 19.663-15.957 29.384-1.715 3.06-2.376 5.959-1.974 9.515 2.192 19.37 5.921 38.594 5.327 58.237-.3 9.932-1.665 19.608-5.023 28.969-1.126 3.139-3.624 5.128-6.746 4.915-3.467-.236-3.646-3.518-4.088-6.323-1.255-7.964-.535-15.967-.554-23.947-.06-25.692-4.3-50.682-12.534-74.974-5.576-16.454-18.842-23.175-34.663-25.862-6.493-1.103-9.707 2.008-10.285 8.629-.502 5.75-.232 11.498.453 17.249 1.487 12.468 6.445 24.015 9.355 36.108 6.564 27.268 11.021 55.029 19.243 81.91 2.333 7.626 5.895 14.879 7.12 22.83.344 2.238 1.302 5.028-1.907 6.22-3.302 1.23-5.29-.56-6.717-3.287-1.81-3.458-3.707-6.876-5.35-10.411-8.322-17.901-16.108-35.927-16.182-56.255-.034-9.283-3.389-17.784-7.416-26.05-4.622-9.482-11.594-17.226-18.25-25.208-4.069-4.88-6.636-10.25-6.348-16.763.517-11.697.771-23.41 1.592-35.085.313-4.442-1.29-6.237-5.317-7.356-10.893-3.026-21.84-5.974-32.227-10.527-23.495-10.3-38.665-25.913-36.167-55.632.11-1.296-.006-2.618.183-3.9 1.64-11.1.744-22.786 7.603-32.69.967-1.396 1.618-3.133.02-4.55-1.744-1.546-3.705-1.512-5.635-.203-2.14 1.452-2.964 3.704-3.75 6.017-6.83 20.083-5.705 40.244-.522 60.412 1.53 5.953 2.628 11.963 3.481 18.04 2.881 20.53 1.823 41.202 2.325 61.819.316 12.998.294 26.012 2.04 38.954.685 5.083 2.795 8.674 7.531 10.775 5.492 2.435 12.657 1.552 18.524 2.579 11.842 2.073 21.471 8.249 28.796 18.04 6.188 8.272 8.674 19.094 10.32 28.94 3.001 17.962 10.988 32.642 23.814 45.517 16.448 16.512 24.423 36.96 24.535 60.403.027 5.564.296 11.14 1.693 16.606 2.841 11.116 10.584 15.729 21.797 13.403 10.728-2.226 20.348-6.604 29.375-12.774 9.384-6.415 18.056-13.664 26.752-20.932 2.966-2.48 3.261-4.516 1.733-8.008-8.374-19.126-20.564-35.661-34.11-51.316-4.745-5.483-9.514-10.948-13.213-17.225-1.033-1.753-2.333-3.794-.644-5.637 1.985-2.165 4.125-.358 6.086.494.83.36 1.587.985 2.251 1.62 14.751 14.123 30.397 27.4 42.243 44.286 3.405 4.853 7.82 8.41 13.102 10.947 5.703 2.738 11.563 5.005 17.746 6.513 6.624 1.616 8.14 5.082 5.04 11.122-4.424 8.622-9.827 16.615-15.788 24.257-8.024 10.288-18.007 18.669-26.827 28.266M914.67 678.688c-.63-1.43-1.365-1.316-2.106-1.338-9.685-.296-18.847 1.419-27.16 6.73-1.154.736-2.637 2.178-3.996 1.122-1.274-.99-.577-2.86-.226-4.23 3.766-14.68-1.034-13.735 15.657-12.503 13.933 1.029 18.502-1.226 24.96-13.634a121 121 0 0 0 2.9-6.018c4.43-9.798 2.123-13.851-8.572-14.64-4.713-.345-9.065-1.083-12.973-4.15-12.13-9.52-14.679-20.942-7.466-35.502 5.118-10.332 11.32-20.047 17.446-29.795 1.543-2.456 2.397-4.873 1.678-7.862-4.818-20.014-8.542-40.321-16.106-59.591-1.094-2.788-2.134-5.643-1.94-8.638.34-5.284-1.57-9.827-4.112-14.212-3.282-5.663-5.789-11.642-7.15-18.04-2.875-13.507-7.423-26.417-13.186-38.955-1.574-3.425-3.317-5.006-7.422-4.996-67.657.152-135.315.11-202.973.115-8.364 0-16.729.07-25.092.004-3.908-.03-5.625 1.33-5.402 5.618.378 7.23.162 14.495.164 21.745.028 135.97.17 418.609.028 427.9-.063 4.069 4.18 4.295 7.358 2.536 3.738-2.068 7.651-3.608 11.846-4.682 27.026-6.921 48.015-21.835 59.19-47.94 5.39-12.59 14.4-20.036 26.122-25.872 7.93-3.947 17.012-6.834 21.52-15.775.434-.861 2.215-1.272 3.44-1.472 13.787-2.247 24.448-10.018 32.706-20.503 7.1-9.014 14.183-18.212 20.358-27.84 5.137-8.008 11.988-10.851 20.361-12.52 14.334-2.856 27.617-8.374 40.164-15.872 7.458-4.458 14.977-8.763 23.63-10.912 5.981-1.486 11.311-4.857 16.354-8.278m535.493-260.835c-.018-2.5.563-5.39-3.647-5.35-15.242.145-70.672.17-85.914.15-3.444-.004-4.64 1.25-3.877 4.736 2.226 10.153 3.651 20.475 6.7 30.459 1.132 3.71 2.792 7.675 1.807 11.458-3.196 12.273-3.74 24.99-6.52 37.282-3.36 14.865-5.392 29.299-.066 44.374 2.982 8.439.774 16.939-7.4 22.736-1.76 1.249-3.715 3.064-4.284 4.999-1.832 6.223-4.586 11.52-10.054 15.406-1.646 1.169-2.44 3.726-2.523 6.034-.23 6.445-3.044 11.767-7.028 16.614-2.846 3.462-5.117 7.269-7.127 11.283-3.774 7.538-5.97 15.603-8.238 23.647-.97 3.446-2.583 5.293-6.63 5.107-6.674-.305-13.39-.231-20.063.152-10.345.593-19.626 3.727-24.064 14.12-2.31 5.412-5.743 8.107-11.45 9.116-8.895 1.574-10.95 6.266-6.927 14.46 3.501 7.127 9.193 12.564 14.268 18.472 6.173 7.187 13.475 13.372 18.97 21.149 2.358 3.338 5.106 7.114 1.54 11.038-3.198 3.52-2.854 7.033-1.292 10.796 1.277 3.077 2.44 6.343 4.394 8.974 11.895 16 20.407 34.027 30.588 51.043 6.627 11.074 13.411 20.643 19.442 35.619 6.08 18.266 8.008 37.574 8.96 56.705.934 18.816 1.805 35.64-7.47 52.74-3.625 6.68-4.545 12.038-1.7 19.336 2.494 6.398 1.072 12.137-2.642 17.902-10.372 16.102-12.462 33.01-5.812 50.386 1.667 4.356 3.29 8.802 1.535 12.929-4.892 11.509-2.843 22.32 1.088 33.553 4.89 13.973 5.908 28.426 1.128 42.704-3.063 9.148-6.82 18.069-10.439 27.022-1.875 4.637-4.828 8.409-10.078 9.584-4.547 1.017-6.457 4-6.513 8.442-.256 20.195-5.295 40.446 2.056 60.55 2.464 6.739 1.573 14.462-.188 21.534-2.804 11.254 1.151 20.316 8.005 28.743 4.303 5.289 7.155 11.2 8.013 18.087 2.08 16.682.981 33.426 1.058 50.138.115 24.739-.596 49.424-6.993 73.584-3.042 11.489-5.67 23.09-8.349 34.672-1.45 6.268.022 7.432 6.211 5.52 4.468-1.38 7.566-4.32 10.492-7.838 12.278-14.763 33.597-19.333 50.553-10.403 16.732 8.812 24.03 23.186 22.327 41.93-.396 4.358 1.156 5.704 5.087 5.655 4.646-.058 42.242-.334 46.845.126 5.294.529 6.505-1.477 6.454-6.558-.573-56.518-.11-1054.37-.233-1070.917M908.826 729.068c-3.093 1.285-3.95 3.248-5.09 4.866-14.349 20.343-28.379 40.912-43.382 60.789-4.675 6.195-7.55 13.219-8.859 20.827-.879 5.115-1.438 10.29-1.993 15.456-1.554 14.483-8.389 26.728-15.765 38.905-10.44 17.238-22.968 33.707-23.487 55.185-.279 11.523-.66 23.055-.486 34.575.63 41.46 1.248 82.922 2.38 124.37.351 12.864-3 23.5-12.115 32.8-10.82 11.04-16.939 24.656-19.472 39.953-2.277 13.748-4.704 27.477-7.414 41.146-4.412 22.262-9.345 44.376-21.016 64.302-3.023 5.16-5.014 10.874-5.745 16.798-1.1 8.932-4.796 16.71-9.507 24.155-5.838 9.228-9.999 19.167-11.374 30.016-2.666 21.038-8.116 41.169-18.322 59.87-5.6 10.262-10.477 20.976-18.18 29.936-1.338 1.558-3 4.05-5.353 3.088-2.65-1.083-2.492-4.086-1.877-6.407 4.06-15.3 8.78-30.485 17.485-43.788 4.74-7.24 7.758-14.73 9.072-23.044 2.617-16.555 6.036-32.851 13.53-48.032 2.546-5.158 4.88-10.423 7.188-15.693.562-1.282 1.4-3.04-.222-4.054-1.907-1.195-3.016.513-4.089 1.78-.479.566-.896 1.187-1.318 1.799-9.402 13.63-17.919 27.778-25.318 42.606-6.8 13.63-10.833 28.53-19.102 41.479-1.399 2.19-2.465 4.968-4.888 5.949-8.373 3.39-10.042 17.097-13.037 24.514-7.989 19.786-29.737 73.807-29.744 83.279-.007 9.308-.864 8.634 7.202 8.685.372.002.744-.021 1.116-.021 38.487.002 85.215-.003 123.702.009 44.623.014 89.245.044 133.868.065 8.233.004 8.145-.028 10.52-8.168.982-3.37 2.01-6.848 3.75-9.852 6.687-11.55 12.093-23.58 22.307-33.288 7.861-7.471 11.271-19.175 12.18-30.514 1.346-16.808-1.969-33.345-4.04-49.916-1.612-12.88-.999-24.96 6.412-36.344 5.57-8.556 9.906-17.887 10.871-28.35.177-1.917.81-3.714 2.017-5.116 2.574-2.988 2.744-6.291 2.028-9.933-4.028-20.48-10.844-40.118-18.056-59.624-1.92-5.193-5.202-9.99-10.846-11.2-12.86-2.758-18.38-15.921-15.894-29.612 1.955-10.762 7.417-19.79 14.536-27.8 3.424-3.853 2.515-6.024-1.668-7.893-3.048-1.362-5.983-3.114-9.16-4.018-4.935-1.404-6.21-3.855-4.845-8.925 8.49-31.503 5.494-63.564 4.548-96.024-.232-7.954-1.974-15.313-7.019-21.851-4.312-5.587-7.847-11.691-8.669-19.03-.353-3.154-1.92-6.067-3.907-8.538-2.28-2.836-3.57-6.024-4.542-9.456-2.236-7.894-3.709-15.947-4.497-24.082-2.584-26.651-4.132-52.363-14.776-76.942-8.903-20.558-11.859-42.045-9.63-64.34.776-7.77 3.28-14.86 7.033-21.545 5.726-10.201 11.817-20.197 17.487-30.428 5.813-10.488 11.967-20.852 15.472-33.374m25.472 788.693c-5.675 0-11.349.003-17.024 0-97.056-.05-202.354-.1-299.41-.145-9.062-.005-9.049.012-9.11-9.121-1.309-197.854.581-1060.292.015-1110.682-.084-7.425-.044-7.44 7.584-7.441 79.765-.01 159.53-.014 239.295-.022 7.45-.001 7.13.08 5.171-7.03-2.68-9.723-11.279-17.92-13.413-27.878-5.75-26.835 17.49-45.187 45.796-43.382 8.204 1.258 11.912 4.08 14.331 10.194 6.602 16.679 6.947 35.516 11.844 52.636 4.765 16.657 1.321 15.117 19.25 15.26 8.924.072 17.848.1 26.773.134 1.841.007 3.763.277 5.246-1.246 11.2-11.506 25.946-15.431 40.842-18.79 13.306-3.001 26.896-3.463 40.491-3.214 8.228.15 15.513 3.513 22.617 7.259 6.752 3.56 13.625 6.757 20.976 8.962 12.12 3.635 22.713.878 32.206-7.086 5.15-4.321 9.468-9.417 13.727-14.597 18.664-22.697 41.827-35.444 72.085-36.016 44.9-.848 82.612 15.455 115.681 44.52 4.901 4.308 9.275 9.225 12.618 14.815 2.532 4.234 5.801 5.565 10.521 5.537 24.171-.143 88.53.082 112.698-.167 5.217-.054 7.02 1.177 7.046 6.74.507 112.318-.696 1005.808-.008 1112.358.054 8.235.015 8.242-8.136 8.242-10.227-.001-53.38.338-63.587-.11-13.902-.608-26.842 1.12-39.666 7.688-11.83 6.059-24.866 5.667-36.764-1.801-6.46-4.054-13.158-4.453-20.298-2.08-3.07 1.02-3.859 2.31-2.202 5.24 2.927 5.173 5.582 10.499 8.44 15.712 2.632 4.8 3.512 9.32-.947 13.694-4.366 4.283-8.035 4.97-14.127 2.183-.676-.31-1.333-.658-2.004-.98-6.923-3.318-8.956-2.434-9.675 5.382-.88 9.574-6.44 14.968-14.617 18.646-4.35 1.957-8.593 2.035-12.918.159-1.534-.666-3.139-1.234-4.55-2.108-8.554-5.295-16.014-5.317-22.943 3.19-3.52 4.324-9.049 4.745-14.458 3.402-3.785-.94-7.605-1.772-11.335-2.9-6.164-1.864-11.276-1.273-16.225 3.703-4.729 4.755-10.915 4-16.64 1.15-2.305-1.147-4.715-2.457-6.462-4.282-5.182-5.414-10.356-8.3-17.248-2.581-2.112 1.752-4.924 1.246-7.378-.146-5.354-3.037-10.733-6.083-13.8-11.747-1.335-2.465-3.373-2.511-5.686-2.365-10.29.648-13.659-1.364-18.12-10.878-2.323-4.95-4.555-9.942-7.262-14.751-1.168 8.49 1.068 16.037 6.118 22.76 7.181 9.563 7.22 9.53.044 19.334-1.536 2.099-2.94 4.305-4.598 6.3-1.789 2.153-1.928 3.692.021 6.152 4.134 5.219 1.643 10.249-5.028 10.86-12.206 1.118-24.428 1.549-36.697 1.508-74.929-.248-149.859-.338-224.789-.48-7.07-.013-14.116-.18-21.07-1.768-4.216-.963-7.27-3.095-7.75-7.55-.462-4.29 2.665-5.894 6.06-7.545 23.216-11.281 45.104-24.993 67.771-37.286 18.43-9.996 36.653-20.374 54.957-30.602 2.065-1.153 4.061-2.43 6.09-3.65z"/></g></svg>