<svg xmlns="http://www.w3.org/2000/svg" width="2048" height="1920" viewBox="0 0 2048 1920"><defs><clipPath id="clip_1"><path d="M0 0h2048v1920H0Z"/></clipPath></defs><g clip-path="url(#clip_1)"><path fill="#231f20" d="M1403.994 1271.394c10.39-20.95 18.66-42.68 23.44-65.74.1 24.95-5.01 47.93-23.44 65.74m5.09 36.16c-1.29 1.2-3 2.61-4.83.88-1.32-1.25-.86-3.02.28-3.94 6.35-5.15 7.69-14.23 15.12-20.82-.13 10.92-4.19 17.97-10.57 23.88m-29.73 66.46c-2.39 3.3-6.38 3.41-9.95.68-2.52-1.91-4.44-4.24-4.14-7.56.39-4.42 4.17-5.41 7.32-5.53 16.13-.66 21.44-13.95 29.17-25.11-1.89 15.95-13.82 25.71-22.4 37.52m-136.02-425.18c-1.12-.18-1.96-1.15-2.02-2.31l-.14-2.75c-.05-.77-.91-1.2-1.52-.74-1.9 1.41-5.41 3.64-8.6 3.69-1.48.02-2.68-1.19-2.64-2.71.06-2.49 1.05-6.97 5.94-13.16.5-.64 1.21-1.09 2-1.25 2.35-.49 7.29-.8 8.69 4.77 0 0 13.73-6.18 18.62 5.02a3.91 3.91 0 0 0 2.82 2.27c5.17 1.03 18.34 4.2 23.71 10.64 0 0 6.69 6.17 13.4 8.93.47.19.92.44 1.33.76 2.29 1.79 9.96 8.33 10.46 15.55.07.93-.34 1.84-1.1 2.37-1.32.91-3.9 1.75-8.06-.56 0 0-29.88-25.23-62.89-30.52m21.54 51.46c3-8.59 6.33-17.06 6.32-26.47 0-2.34 1.84-4.11 4.63-3.63 6.51.68 13.95 12.42 11.09 18.51-3.24 6.91-8.07 12.76-14.77 16.67-2.05 1.2-4.11 1.92-6.12.12-1.56-1.38-1.83-3.23-1.15-5.2m-51.76-63.81c2.56-5.19 6.63-8.37 9.1-7.09 2.46 1.29 2.37 6.54-.19 11.73-2.56 5.2-6.64 8.37-9.1 7.09s-2.38-6.53.19-11.73m-16.85 2.94c2.57-5.2 6.64-8.37 9.1-7.09s2.38 6.54-.19 11.73c-2.56 5.19-6.63 8.37-9.09 7.09s-2.38-6.53.18-11.73m-18.16 5.5c2.56-5.19 6.64-8.36 9.1-7.08s2.37 6.53-.19 11.73c-2.56 5.19-6.64 8.36-9.1 7.08s-2.37-6.53.19-11.73m-18.6 6.53c2.56-5.19 6.64-8.36 9.1-7.08s2.38 6.53-.19 11.73c-2.56 5.19-6.63 8.36-9.1 7.08-2.46-1.28-2.37-6.53.19-11.73m-16.43 9.31c1.25-3.77 3.92-6.25 5.98-5.54 2.05.72 2.71 4.36 1.47 8.14-1.25 3.77-3.93 6.25-5.98 5.54-2.06-.72-2.72-4.36-1.47-8.14m-14.56 9.3c1.24-3.77 3.92-6.26 5.98-5.54 2.05.71 2.7 4.36 1.46 8.13-1.24 3.78-3.92 6.26-5.98 5.54-2.05-.71-2.71-4.35-1.46-8.13m16.53 66.77c-6.78 2.36-10.5-4.31-15.95-6.02-.64-.19-1.45-2.27-1.15-2.71.74-1.06 2.09-1.66 2.71-2.1 1.16.17 1.58.1 1.87.29 4.61 2.9 10.95 2.56 14.13 7.97.24.41-.84 2.3-1.61 2.57m-2.71-14.06c-11.43-4-23.31.28-34.52-4.5-1.05-.45-1.42-1.78-.76-2.72 2.33-3.34 5.31-4.36 9.9-4.21 8.88.27 17.6 1.21 26.09 3.91 2.09.66 4.81 1.61 4.44 4.24-.33 2.31-3.18 3.97-5.15 3.28m-10.55-24.26c-2.06-.49-3.11-2.13-1.81-4.28 5.24-8.71 8.96-18.75 20.01-22.09 8.8-2.66 17.39-6 26.11-8.91 5.96-2 11.77-4.22 11.38 6.56-.14 4.02 14.79 4.28 19.6.21 1.41-1.2 2.36-3.01 3.84-4.08 1.75-1.28 3.88-3.05 6.07-1.51 3.02 2.11 1.32 4.49-.14 6.85-4.19 6.76-3.65 13.25 2.48 18.26 4.11 3.35 9.34 3.22 13.51.03 5.01-3.82 6.74-9.29 3.33-15.15-5.13-8.8-4.06-11.32 6.75-10.61 6.14.41 11.56 1.27 16.82 4 2.22 1.14 5.17 2.62 3.9 5.93-1.39 3.63-4.59 3.07-7.63 2.39-3.54-.8-5.82-4.84-10.79-4.06 3.2 8.99 21.76 5.94 14.93 21.03-5.04 11.11-11.39 1.05-16.34-1.16-3.17 3.69-.47 5.84-.08 8.28.75 4.58-2.08 7.15-5.65 8.74-3.73 1.67-7.42 1.62-9.28-2.99-1.19-2.95-2.4-6.97-5.74-2.88-5.45 6.68-9.85 4.39-15.1.07-2.69-2.21-6.76-2.36-9.44-.42-3.34 2.44.1 5.4.91 8.07.97 3.22 2.93 6.38-.25 9.51-2.61 2.57-5.31 1.82-8.23.62-19.51-8.04-38.51-17.5-59.16-22.41m32.15 36.39c0-1.79 2.71-3.24 6.06-3.24 3.34 0 6.06 1.45 6.06 3.24s-2.72 3.24-6.06 3.24c-3.35 0-6.06-1.45-6.06-3.24m12.93 20.98c1.85 1.23 2.31 3.37.85 4.81-2.42 2.4-6.18 2.11-8.13.24-6.29-6-11.98-12.65-17.9-19.05.32-.6.64-1.22.96-1.83 8.08 5.27 16.17 10.52 24.22 15.83m55.68-16.23c-14.79 2.86-28.38-4.49-42.75-2.14-5.11.84-7.94-2.55-9.94-8.3 7.61.41 14.46.24 21.15 1.24 17.57 2.62 33.63-2.98 49.44-9.28 12.55-4.99 26.53-5.88 37.94-14.3 1.81-1.34 7.23-2.51 7.59.87.38 3.45 4.49 5.93 2.51 9.15-2.25 3.65-7.13 6.92-10.24 5.42-7.53-3.63-10.16 2.42-15.09 5.14-12.57 6.95-26.52 9.49-40.61 12.2m-33.45 71.24c-3.35 0-6.07-1.45-6.07-3.24s2.72-3.24 6.07-3.24c3.34 0 6.06 1.45 6.06 3.24s-2.72 3.24-6.06 3.24m2.91 29.39c1.3-3.17 3.65-5.18 5.25-4.49 1.61.69 1.86 3.82.56 7-1.29 3.17-3.65 5.18-5.25 4.49-1.61-.69-1.86-3.83-.56-7m19.62-18.39c-2.27 5.57-5.68 9.4-7.62 8.56-1.94-.83-1.67-6.02.61-11.58 2.27-5.56 5.68-9.4 7.62-8.56 1.94.83 1.66 6.02-.61 11.58m-2.41-30.68c0-1.79 2.72-3.24 6.07-3.24 3.34 0 6.06 1.45 6.06 3.24s-2.72 3.24-6.06 3.24c-3.35 0-6.07-1.45-6.07-3.24m18.05-26.6c3.07 8.25-3.45 12.21-7.66 13.04-6.78 1.33-3.97-7.31-6.9-11.34-7.01 6.46-13.3 11.16-20.21-1.14-4.43-7.89-6.21 4.76-11.15 3.21-2.99-2.88-2.63-7.29-2.62-11.25.01-6.33 6.12-12.19 9.41-10.3 10.54 6.03 18.98-3.41 28.62-1.87 5.8.93 11.51.64 16.91 4.15 6.62 4.31 13.47 6.81 17.56-3.97 1.45-3.82 5.78-5.97 9.18-3.52 3.81 2.73-.69 5.27-2.12 7.33-3.64 5.24-7.59 10.29-11.79 15.07-4.1 4.66-4.65 4.58-6.69-1.85-1.59-5.01-4.8-2.74-7-1.88-2.06.81-7.4-.67-5.54 4.32m110.86 178.84c-30.74 40.64-70.18 67.25-118.87 79.13-15.65 3.81-27.25-5.57-37.89-15.14-41.02-36.9-78.68-77.26-116.33-117.76-22.09-23.76-46.18-46.17-73.33-64.3-21.67-14.48-21.4-19.88-1.7-37.7 14.08-12.74 28.78-23.69 45.91-31.63 16.86-7.81 16.39-24.87 17.89-40.25.84-8.69.2-17.54.16-26.32-.3-56.83 21.89-100.45 72.25-126.27 27.19-13.94 52.98-30.78 81.27-42.37 14.6-5.98 30.04-14.25 45.27-2.49 8.5 6.57 16.07 14.79 22.85 23.28 18.08 22.68 32.6 48.12 51.37 70.35 6.97 8.26 4.51 16.47-3.6 23.94-8.33 7.66-14.74 3.21-19.78-3.35-30.55-39.76-73.64-43.8-116.92-35.19-32.08 6.38-59.89 20.57-85.86 41.42-1.42 1.14-2.9 2.89-3.24 6.26 12.79-2.68 22.47-10.97 33.29-16.64 35.87-18.8 73.4-28.67 113.75-20.93 16.41 3.15 29.44 12.7 39.69 27.91-70.09-32.95-132.58-22.15-191.26 32.41 8.72.25 15.71-1.62 18.36 5.81 2.71 7.59-1.92 13.36-5.9 18.7-4.25 5.73-9.63 10.56-14.23 16.03-2.73 3.24-5.4 6.31-2.25 11.62v.01c5.04 11.4 18.17 14.25 27.65 19.07 46.87 23.82 62.99 65.28 64.27 115.33.63 24.74 1.44 49.56-1.41 74.29-.74 6.4-.18 12.9 2.6 20.59 8.66-11.09 11.97-23.51 14.26-35.73 5.27-28.13 11.9-56.03 20.54-83.08 10.69-33.53 28.38-63.56 54.1-87.85 8.98-8.48 17.44-17.58 26.78-25.6 8.36-7.17 20.12-5.38 30.34 3.39 9.06 7.76 11 15.14 4.31 25.93-10.96 17.69-16.42 37.46-22.54 57.03-2.23 7.11-6.09 15.7.92 21.26 7.12 5.66 16.33 4.54 24.32.38 6.92-3.61 14.03-6.81 20.45-11.54 7.37-5.43 14.1-2.39 16.35 6.78.71 2.91 1.02 6.14.61 9.08-5.58 39.91-8.96 80.44-34.45 114.14m-433.44-149.92c-9.72-2.6-14.61-9.6-12.07-19.64 3.34-13.27 7.04-26.56 11.95-39.27 18.98-49.13 10.46-93.85-18.37-136.23-15.06-22.14-32.06-42.93-44.37-67.03-12.24-23.98-17-48.94-13.42-76.09 1.94-14.63 5.27-30.5 5.25-45.38-.07-40.96 10.45-74.38 40.86-100.57 31.16-26.82 57.69-57.83 83.72-89.69 26.55-32.49 73.02-49.08 114.4-18.8 23.88 17.47 48.31 34.24 76.31 44.32 7 2.52 14.09 5.2 21.64 4.83 7.24-.36 8.82 3.73 8.77 9.97-.11 12.6-.03 25.19-.03 37.79-.82 41.88-1.62 83.77-8.66 125.18-2.94 17.32-7.35 34.28-14.56 50.27-11.2 24.85-30.66 41.07-54.75 51.02-30.44 12.58-59.4 27.14-84.33 49.76-15.7 14.25-35.88 21.22-54.49 30.65-4.34 2.2-11.73 3.3-11.22 9.32.41 4.89 7.56 5.04 11.78 7.12 5.34 2.63 10.99 4.61 16.43 7.05 14.31 6.43 17.96 15 12.56 30.24-2.53 7.15-5.36 14.24-8.64 21.06-9.68 20.12-14.85 41.03-14.64 63.76.37 37.89-28.31 59.94-64.12 50.36m-24.37-134.47c-2.81-.09-5.01-2.3-4.93-4.93.08-2.62 2.42-4.68 5.22-4.58 2.81.09 5.02 2.3 4.94 4.92-.09 2.63-2.43 4.68-5.23 4.59m3.26 40.8c-2.42 0-3.89-.51-3.89-.51-3.4-1.49-5.91-4.87.07-9.21 2.3-1.67 3.69-4.6 5.65-6.81 2.65-2.97 5.19-7.55 9.69-5.68 3.96 1.66 6.96 5.56 8.52 9.9 1.38 3.84-.9 5.2-3.56 7.82-1.93 1.89-9.75 4.67-16.49 4.48Zm-39.85-54.52c-3.17.18-5.95-3.52-6.21-8.27-.25-4.75 2.12-8.74 5.29-8.92 3.18-.18 5.96 3.53 6.21 8.27.25 4.75-2.11 8.74-5.29 8.92m-20.83-20.35c2.31-.68 5.23 2.47 6.51 7.04 1.27 4.57.43 8.83-1.89 9.51-2.32.69-5.23-2.47-6.51-7.03-1.28-4.57-.43-8.83 1.89-9.52m-15.34-2.59c2.31-.68 5.22 2.47 6.5 7.04s.44 8.83-1.88 9.51c-2.32.69-5.24-2.46-6.51-7.03-1.28-4.57-.43-8.83 1.89-9.52m-38.67 25.84c-1.46 1.22-5.02-.77-7.95-4.45s-4.11-7.66-2.65-8.89c1.46-1.22 5.01.77 7.94 4.45 2.93 3.69 4.12 7.66 2.66 8.89m6.51-12.95c2.93 3.68 4.12 7.67 2.66 8.89s-5.02-.77-7.95-4.45-4.11-7.66-2.65-8.88c1.46-1.23 5.01.77 7.94 4.44m10.64 5.83c-1.24 1.04-4.62-1.1-7.55-4.78s-4.3-7.51-3.06-8.55 4.62 1.1 7.55 4.78 4.3 7.51 3.06 8.55m6.29-16.59c1.23-1.04 4.61 1.1 7.54 4.78 2.93 3.69 4.3 7.51 3.06 8.55s-4.62-1.1-7.55-4.78-4.3-7.51-3.05-8.55m-.38 5.96c2.93 3.69 4.3 7.52 3.06 8.55-1.23 1.05-4.61-1.1-7.54-4.77-2.93-3.69-4.3-7.52-3.06-8.55 1.24-1.05 4.62 1.1 7.54 4.77m-32 90.41c6.2 5.17.86 9.42-.47 14-.41 1.45-1.56 3.12-3.16 2.21-4.35-2.46-5.28-6.93-5.57-11.58-.09-1.51-.01-3.04-.01-3.73-.72-7.01 2.02-11.82 5.8-16.22 2.01-2.34 4.21-3.1 6.61-.7 2.46 2.45 1.85 4.69-.74 6.57-3.39 2.49-7.73 5.04-2.46 9.45m15.31 57.66c-2.32.69-5.54-3.45-7.2-9.26s-1.12-11.08 1.19-11.78 5.53 3.45 7.19 9.26 1.13 11.08-1.18 11.78m-.1-45.9c-2.95 0-5.33-5.47-5.33-12.21s2.38-12.21 5.33-12.21 5.34 5.47 5.34 12.21-2.39 12.21-5.34 12.21m19.89 11.46c0 5.51-2.39 9.97-5.34 9.97s-5.33-4.46-5.33-9.97 2.38-9.97 5.33-9.97 5.34 4.46 5.34 9.97m34.57-59.94c4.4 10.92 4.88 15.84-22.22 16.77-1.24.04-4.33.54-6.41-.01-14.39-3.86-26.39-11.68-35.94-23.45-2.27-2.8-4.57-6.03-.85-8.78 4.58-3.41 7.66-13.3 13.15-9.89 7.22 4.47 9.91.26 14.3-2.74 2.77-1.89 5.68-3.71 8.77-4.9 6.12-2.36 10.23-.46 10.86 6.72.31 3.41.16 6.86.29 10.28.07 2.01.78 3.91 2.65 4.62 2.03.77 3.95-.52 4.56-2.27 3.35-9.7 13.5-6.12 19.52-10.7 2.22-1.69 4.02.49 4.26 4.46-2.49 3.23-4.97 4.13-7.41 5.34-5.36 2.66-7.76 9-5.53 14.55m34.77-34.61c.16-4.9 1.58-8.84 3.18-8.79s2.77 4.07 2.62 8.99c-.16 4.91-1.58 8.84-3.18 8.79s-2.77-4.07-2.62-8.99m-9.37-7.99c1.73-3.27 4.28-5.29 5.68-4.5 1.41.79 1.14 4.08-.59 7.35-1.74 3.27-4.28 5.28-5.69 4.5-1.4-.79-1.14-4.08.6-7.35m5.31 36.7c4.37 1.11 8.54 3.14 10.3 7.88 1.38 3.72-.45 6.92-3.21 9.02-3.53 2.67-7.29 5.01-11.41 7.66-10.24-1.15-22.19-2.16-21.74-5.16.91-6.01 6.36-3.89 9.99-4.78 4.8-1.19 7.64-3.9 8.96-8.96.85-3.25 2.84-6.75 7.11-5.66m27.99 47.94c-15.64-2.63-30.75-8.46-47.09-7.46 10.82 5.11 21.28 11.1 33.57 12.01 2.46.18 5.93-.07 6.34 3.29.42 3.41-3.15 3.79-5.41 4.71-4.12 1.7-8.45 2.88-12.58 4.56-9.66 3.91-14.55 11.15-14.14 22 .48 12.93-.5 25.81 1.66 38.79 2.29 13.76-1.34 25.99-12.03 36.13-25.06 23.78-49.76 47.93-80.14 64.68-17.04 9.4-35.12 16.36-53.48 22.42-8.57 2.84-15.92-2.89-16.36-14.88-.84-22.66-5.2-45.28 1.05-68.14 6.31-23.1 10.63-46.86 19.47-69.12 5.29-13.32 12.93-25.63 19.3-38.5 14.07-28.44 15.86-57.03 3.47-87.03-10.52-25.49-5.87-51.79 1.69-77.16 4.45-14.93 15.24-21.59 30.65-17.31 25.81 7.15 50.22 18.39 71.55 35.49 2.62 2.09 7.5 4.31 5.62 8.78-1.86 4.43-6.79 2.49-10.07 1.9-17.99-3.25-35.87-3.52-54.15-2.18-23.53 1.72-31.96 9.06-33.55 33.27-1.02 15.44.77 30.45 5.42 45.08 2.99 9.38 3.69 18.35-.38 27.73-6.23 14.35-3.12 28.74 2.6 42.14 14.43 33.78 16.27 70.14 21.9 105.75.21 1.34.8 2.61 2.28 4.05 1.87-21.44 9.71-40.84 16.7-60.61 7.11-20.1 17.16-38.26 29.52-55.54-3.94 3.55-7.87 7.11-13.94 12.59.05-14.29 4.47-23.57 13.54-32.83-7.93-.58-14.45-.6-20.68-2.52-2.87-.88-6.44-.89-6.45-4.83-.02-4.76 3.96-4.57 7.29-5.04 8.03-1.13 15.46-.87 24.15-.34 10.65.64 39.2-.21 44.55-1.81h.01c.76.11 1.5.28 2.24.52 0 0 8.45 2.43 17.75-2.53 6.06-3.23 1.95 12.88 6.55 18.92 2.14 2.81-5.01 3.6-8.42 3.02m-210.21 85.67c-27.63-66.42 19.81-277.93 74.56-331.46-16.49 33.75-32.05 67.93-44.47 103.43-12.82 36.65-20.86 74.48-25.05 113.29-4.12 38.12-3.98 76.36-5.04 114.74m-7.51 83.55c-5.72 1.42-6.93-6.75-8.42-11.5-7.02-22.54-11.03-45.81-15.09-69.02-4.37-25.07-9.41-50.08-9.29-75.78.46-35.85 8.38-70.11 20.92-103.39 1.03-2.74 1.67-6.86 5.28-6.28 4.01.64 2.9 4.89 2.52 7.62-2.31 16.17-3.73 32.6-7.57 48.39-14.02 57.59-9.09 113.93 8.31 169.8 2.59 8.32 4.01 17.02 6.21 25.48 1.46 5.63 3.7 13.04-2.87 14.68m160.92-365.2c1.92 2.47 3.01 5.54 1.23 8.46-2.21 3.61-5 1.57-7.7.29-11.41-5.41-23.32-9.33-35.53-12.33-1.85-.44-3.87-1.06-3.88-3.26-.01-2.29 2.1-2.67 3.94-3.14 5.73-1.47 11.44-3.06 17.57-1.8 10.96-2.54 18.12 3.73 24.37 11.78m-65.56-38.84c5.46-16.33 11.77-34 11.45-51.37-.1-5.82.34-11.65 2.91-16.76 8.33-16.57 13.85-32.15 22.77-48.4 3.01-5.48 6.77-12.15 14.59-9.42 7.63 2.67 6.81 9.94 6.75 16.62-4.47 27.46-10.48 54.61-22.16 79.88-5.43 11.76-9.38 24.03-14.49 35.86-1.8 4.18-3.34 8.59-5.85 12.3-2.34 3.46-6.1 6.08-10.54 4.78-4.62-1.34-7.37-4.68-7.5-10.07-.11-4.64.58-8.99 2.07-13.42m421.57-18.86c1.19 1.93 3.01 2.04 4.72.55 1.9-1.64 2.72-3.64 1.22-6-5.73-8.96 8.22-13.05 4.99-21.38 10.27-1.33 18.5 6.91 28.81 6.38 3.09-.17 4.82 4.44 5.49 7.89.72 3.68-1.57 6.05-4.57 6.83-16.01 4.1-30.2 12.41-44.86 19.69-2.51 1.24-5.8.81-7.52 1.01-4.39-.71-8.47.93-10.16-3.1-1.8-4.29 1.5-7.1 3.99-9.87 5.36-5.93 10.57-13.81 17.89-2m22.99-173.28c5.93-5.51 13.21-4.31 19.95-1.27 15.96 7.22 26.84 19.85 35.18 35.23 14.97 27.64 14.46 56.83 9.17 86.77-2.25 12.75-2.99 25.78.73 38.52 5.65 19.34 15.46 27.57 34.99 29.66 13.29 1.43 17.95 6.24 14.55 19.13-7.45 28.27 1.62 53.33 10.38 78.85.72 2.12 2.13 4.32 2.48 6.55.07.47-.79 1.1-1.77 2.37-5.27-4.01-6.52-10.85-10.41-15.52-23.21-27.86-35.36-62.42-53.95-93.04-11-18.09-23.02-35.55-33.6-53.89-13.27-23.01-17.77-49.22-23.35-74.87-2.84-13.04-7.99-25.36-9.93-38.68-1.16-7.92.06-14.69 5.58-19.81m219.37 501.12c-9.8-23.75-25.16-45.59-28-71.84-3.07-28.34-13.42-53.72-25.31-78.84-17.36-36.63-36.65-72.52-41.59-113.96-.7-5.86-2.09-11.64-.25-17.34 23.98 58.6 51.66 116 75.64 174.6-3.59-19.8-11.89-37.77-16.01-57.19-6.37-29.98-18.18-57.84-31.58-85.14-26.08-53.1-39.11-108.58-32.73-168.79 2.99-28.17-5.43-53.43-32.93-68.13-13.42-7.17-27.78-12.88-39.64-22.99-1.81-1.55-5.55-2.08-3.92-5.69 1.29-2.87 4.5-2.68 6.96-2.22 37.49 7.03 64.8 16.82 98.5 49.93 11.05 10.86 21.5 22.28 34.67 31.34-4.2-12.55-10.52-23.66-19.11-33.64-10.95-12.72-24.72-21.82-37.53-32.15-1.93-1.55-5.12-3.06-3.86-6.15 1.41-3.47 4.9-3.02 7.81-2.19 3.56 1.02 6.98 2.55 10.51 3.71 9.16 3 15.21 11.17 24.65 16.51-.7-6.61-4.74-9.13-7.63-12.07-28.83-29.22-63.36-49.15-101.41-61.99-36.73-12.4-73.22-23.73-103.62-50.54-20.55-18.14-42.45-34.24-56.85-58.69-5.86-9.96-11.4-20.55-20.81-28.35-1.22 4.6 1.66 7.52 3.08 10.86 4.44 10.49 9.15 20.86 13.35 31.45 1.29 3.22 4.29 8.39.07 10.16-4.76 1.98-4.82-4.2-6.31-7.29-7.9-16.34-13.55-34.03-26.76-47.16-15.65-15.56-31.55-16.69-48.68-3.45-6.21 4.8-12.11 10.03-18.39 14.73-8.63 6.44-13.74 4.53-17.01-6.08-1.33-4.36-1.06-9.42-5.66-14.45-3.4 10.97-6.26 20.35-9.21 29.69-8.45 26.71-12.8 55.34-31.51 77.48-28.75 34.02-60.76 64.76-92.5 95.75-12.31 12.03-27.94 21.09-35.97 37-16.49 32.72-38.05 53.98-57.68 84.42-9.04 14.02-18.92 30.89-26.66 50.14 15.7-14.69 26.7-32.59 37.72-50.46 1.66-2.68 2.71-5.99 6.42-4.46 4.56 1.88 2.82 5.34 1.27 8.56-12.18 25.33-25 50.17-44.53 70.67-8.28 8.69-16.24 17.82-23.35 27.53-16.26 22.22-31.4 45.32-47.92 67.34-31.42 41.86-56.33 86.9-65.9 139.46-3.36 18.46-10.69 37.09-6.41 55.9 5.77 25.31 7.72 50.87 9.69 76.56 1.14 14.78 2.3 29.59 4.12 44.29 1.8 14.71 6.54 28.41 15.55 40.78 3.18-3.81 1.71-7.19 1.18-10.38-3.97-23.88-10.02-47.3-6.25-72.22 2.08-13.7 1.71-28.21-.62-42.2-6.26-37.52-3.1-74.33 7.42-110.63.59-2.05 1.03-4.55 4.87-4.77 2.07 8.04 1.48 16.39.29 24.35-3.36 22.33-4.02 44.96-1.02 66.98 5.57 40.74 14.5 80.93 28.1 119.78 6.02 17.21 11.9 35.24 25.18 47.86 11.81 11.24 19.53 24.15 22.26 39.75 4.17 23.96 7.04 48.16 10.18 72.3 5.27 40.58 3.1 82.33 18.73 121.31 5.24 13.07 6.39 27.81 14.83 41.39 1.8-3.54 2.96-5.4 3.74-7.41 5.43-14 4.87-29.12 7.62-43.64 3.74-19.82 6.66-39.81 12.51-59.16.84-2.8 1.05-7.05 4.53-7 4.64.08 4.01 5.15 4.21 8.05 1 14.43 1.65 28.9-.29 43.35-.51 3.78-2.36 7.89 1.16 12.35 8.41-9.56 13.41-18.92 12.14-32.08-1.5-15.5-.57-31.09-7.63-45.76-3.23-6.72 2.02-12.29 7.43-14.47 7-2.82 9.56 3.2 11.2 9.13 2.87 10.39 2.14 21.18 3.33 31.76 3.47 30.97 8.7 61.87 3.32 93.25-.79 4.6-1.69 10.23 1.83 16.12 13.17-18.57 21.25-37.55 21.83-59.75.63-24.01 1.88-48.1 11.34-70.56 4.35-10.31 6.92-20.81 7.7-31.91.23-3.22-1.19-8 3.11-8.7 4.52-.73 3.89 4.44 5.24 7.31 9.62 20.33 6.09 42.71 9.58 63.99 2.76 16.83 2.77 34.16 8.71 50.41 6.21 16.98 22.23 21.17 35.09 9.02 11.74-11.1 22.93-22.84 34.92-33.62 24.39-21.93 49.27-42.99 83.12-47.94 14.35-2.09 26.77 4.92 31 19.09 3.12 10.45 2.89 21.01 1.27 31.7-2.27 15.03-4.26 30.11-6.84 48.53 8.27-10.46 12.05-19.34 15.4-28.52 4.23-11.57 10.78-21.7 18.85-30.77 2.2-2.46 5.1-5.13 8.74-3.5 3.72 1.67 1.63 5.25 1.66 8.11.13 15.06-6.88 27.93-12.06 41.34-3.07 7.95-7.11 18.59-1.24 23.52 5.82 4.9 14.06-2.93 20.08-7.89 22.65-18.68 46.49-35.18 73.71-46.39 27.95-11.51 55.85-22.6 86.06-26.42 31.79-4.02 62.23-12.03 90.66-28.57 39.88-23.2 66.2-55.47 73.72-102.79 5.24-33.06 7.61-66.65 16.29-99.08 10.43-38.96 4.11-75.68-10.97-112.23"/></g></svg>