<svg xmlns="http://www.w3.org/2000/svg" width="2048" height="1920" viewBox="0 0 2048 1920"><defs><clipPath id="clip_1"><path d="M0 0h2048v1920H0Z"/></clipPath></defs><g clip-path="url(#clip_1)"><path fill="#231f20" d="M1514.864 295.435c-2.49-.236-7.121-.758-11.767-1.086-2.711-.191-5.822-.44-6.853 2.877-.791 2.543 1.344 4.212 2.895 5.962 8.82 9.95 23.107 10.526 33.088 1.1 1.882-1.777 4.583-4.525 4.279-6.403-.72-4.457-5.058-2.077-7.821-2.353-3.842-.384-7.752-.097-13.821-.097m334.01 444.222c.66-28.327-32.74-50.904-48.994-40.578 19.1 9.647 36.703 20.454 48.994 40.578m-461.2-18.052c6.975.068 11.554.764 13.443-3.398 1.903-4.191-3.073-5.501-4.901-8.187-5.762-8.47-10.912-17.983-23.357-8.725-.655.487-2.227-.29-3.38-.42-7.16-.807-7.434 2.904-4.325 7.473 6.057 8.9 15.262 12.345 22.52 13.257m21.754-598.354c-11.835 2.003-25.002 6.094-38.82 5.338-.77-.042-1.58.016-2.323.21-4.954 1.305-6.796 3.315-2.568 7.932 12.969 14.164 39.85 11.394 49.643-5.402 1.074-1.842 3.268-3.83 1.915-6.326-1.343-2.48-3.96-1.841-7.847-1.752M1258.022 487.59c21.309 7.547 38.677 19.737 55.616 32.638 8 6.094 15.998 12.209 24.255 17.947 3.164 2.199 7.53 3.948 10.825.95 3.383-3.078-.025-6.575-1.544-9.405-10.72-19.97-25.063-35.253-49.215-38.493-9.215-1.236-18.21-4.064-27.345-5.967-3.576-.744-7.398-3.111-12.592 2.33M967.985 940.814c1.708-10.207-1.22-19.288-3.603-28.47-8.464-32.597-21.42-64.178-22.528-98.442-.591-18.248-.794-36.514-1.77-54.741-.737-13.797-9.221-25.928-20.586-30.631-.394 4.316 2.049 7.498 3.533 10.919 6.68 15.395 12.853 30.994 12.026 48.15-1.765 36.626 4.427 71.998 16.275 106.51 5.366 15.632 11.09 31.14 16.653 46.705m272.634-551.603c21.012 17.089 40.287 29.072 65.253 23.52 6.754-1.501 11.998-.384 17.748 2.576 14.454 7.44 29.983 10.424 46.193 9.888 3.325-.11 8.32 1.516 9.238-2.696 1.22-5.607-5.11-5.045-8.116-6.138-32.687-11.886-66.786-18.16-100.848-24.548-8.604-1.614-17.191-3.056-29.468-2.602m131.618 120.183c6.414 2.949 8.48 9.013 11.969 13.953 2.178 3.083 2.18 9.855 8.014 7.754 4.67-1.683 5.17-7.16 5.468-12.004.323-5.251-2.006-9.466-5.862-12.03-20.534-13.641-35.821-33.077-54.681-48.547-11.92-9.78-25.613-14.568-40.853-14.374-4.732.06-10.952.794-11.636 7.365-.648 6.238 4.923 6.896 9.348 8.34 3.31 1.08 6.607 2.302 9.74 3.81 26.052 12.544 49.059 28.15 57.629 57.95 1.196 4.162 3.04 7.32 8.06 6.154 4.95-1.151 5.285-5.354 5.07-9.224-.165-2.966-1.411-5.872-2.266-9.147M697.42 1307.932c1.546 0 3.515.196 5.43-.041 4.01-.495 9.642 1.174 10.699-4.47.862-4.604-4.062-6.012-7.393-7.68-7.608-3.81-5.544-8.18-.802-12.504 4.523-4.125 7.485-8.98 2.268-13.765-11.711-10.746-21.972-22.694-32.137-34.824-3.16-3.77-7.912-6.248-13.221-6.793-4.503-.463-10.64-4.757-13.068-.786-3.105 5.075 4.724 6.64 7.359 10.049 2.334 3.019 5.88 5.074 8.493 7.917 9.378 10.205 9.01 22.11-.995 31.784-6.347 6.136-13.807 9.492-22.946 9.768-11.006.333-21.624-1.99-32.394-3.323-2.02-.251-4.245-.26-4.78 2.004-.231.979 1.05 2.849 2.138 3.517 11.642 7.155 23.342 13.907 38.06 10.74 10.03-2.156 19.826-1.905 29.265 3.488 7.152 4.085 15.258 5.64 24.024 4.919m123.578 75.04c.03-9.374-1.252-18.477-4.738-27.28-12.624-31.873-26.281-63.347-37.304-95.842-1.903-5.61-5.11-10.856-10.357-13.588-5.868-3.054-12.134-10.224-18.877-5.153-6.217 4.676-1.252 12.274-.25 18.564.239 1.486 1.088 2.872 1.625 4.316 15.38 41.41 36.74 80.347 50.95 122.254 1.98 5.838 5.029 11.322 7.692 16.918.993 2.086 2.16 4.569 4.912 4.294 2.597-.261 3.517-2.732 4.342-4.93 2.38-6.343 1.92-12.978 2.005-19.552M1438.32 224.045l-.785-3.152c-10.07 0-20.143.189-30.208-.033-38.57-.852-76.784-6.48-115.261-8.594-2.95-.162-6.59-1.565-8.538 1.815-2.074 3.593 1.363 5.485 3.258 7.77 13.343 16.089 23.744 33.685 26.602 54.74 1.384 10.198 5.979 11.242 13.863 6.303 1.968-1.233 4.223-2.023 6.147-3.311 27.427-18.368 57.129-32.394 87.195-45.782 6.13-2.731 12.766-4.971 17.727-9.756m-617.164 955.99c-1.218-23.864-1.62-41.367-3.192-58.765-.895-9.904-1.544-20.067-6.286-29.317-4.432-8.645-8.33-9.157-14.321-1.295-9.521 12.49-12.002 26.517-9.573 41.858 2.733 17.26 5.975 34.517 5.79 52.076-.08 7.528 2.46 17.43-5.254 21.424-9.258 4.793-14.106-5.548-20.11-10.356-14.83-11.875-28.557-25.282-46.512-32.657-3.026-1.243-6.76-3.623-9.84-.605-3.447 3.379.036 6.537 1.562 9.373 9.074 16.866 21.743 30.288 39.232 38.59 13.033 6.188 25.37 13.26 36.729 22.273 11.35 9.006 18.423 6.583 24.118-6.681 7.22-16.82 9.242-34.267 7.657-45.918m138.537-816.631c-.05-6.324-1.473-10.52-3.931-13.926-10.15-14.06-22.74-24.051-41.123-25.607-20.76-1.757-39.787 3.276-56.602 14.6-15.435 10.394-31.265 18.694-49.916 21.005-7.132.884-9.833 6.125-10.338 12.255-.56 6.785 4.222 9.393 10.195 10.376 13.3 2.19 22.123 10.485 29.24 21.193 1.704 2.56 3.465 5.313 5.84 7.157 6.202 4.817 13.078 5.557 19.138.068 6.289-5.698 1.022-10.704-2.324-15.166-3.943-5.256-8.546-10.023-12.9-14.97-4.123-4.685-2.538-8.83 1.862-11.758 4.115-2.738 8.267-3.19 11.794 2.027 3.94 5.828 7.959 11.586 9.977 18.326 2.02 6.75 6.916 10.313 12.992 12.292 3.907 1.274 8.973 2.684 11.723-1.667 2.214-3.503.346-7.455-2.202-10.713-5.264-6.727-10.636-13.378-15.648-20.29-7.206-9.933-3.727-18 8.268-20.26 8.556-1.612 13.329 3.327 16.718 9.716 3.62 6.824 5.753 14.45 9.548 21.159 3.937 6.96 9.752 11.62 18.202 6.06 8.353-5.498 4.93-11.926.767-17.98-3.517-5.11-7.843-9.691-11.106-14.942-2.046-3.293-2.947-8.076.198-10.875 3.299-2.935 6.11.85 8.885 2.816 7.64 5.413 11.824 13.194 15.504 21.436 1.759 3.94 3.922 8.25 9.4 6.213 4.559-1.695 5.665-5.993 5.839-8.545m532.603 201.938c11.003 2.054 16.774-.25 19.466-9.76 3.2-11.304.849-22.442-.272-33.522-2.542-25.138-11.053-45.895-40.06-50.868-6.495-1.114-11.423-6.413-16.526-10.622-6.41-5.285-13.517-9.118-21.902-10.192-4.968-.636-9.802.103-12.175 4.872-4.871 9.789-11.192 6.98-18.14 2.914-7.346-4.298-14.488-9.255-22.355-12.286-14.12-5.442-28.787-9.16-47.295-7.901 5.24 4.162 7.83 6.326 10.529 8.346 18.622 13.933 39.26 25.068 56.69 40.662 9.824 8.788 18.58 17.259 13.17 32.828-3.004 8.649 3.947 11.939 12.07 12.927 8.458 1.029 11.416-3.346 11.857-10.534.41-6.685-1.122-13.064-4.19-19.077-2.61-5.113-5.07-10.302-7.596-15.458 10.794 6.493 22.88 10.717 29.2 21.507 5.195 8.867-2.828 16.012-4.92 23.956-1.378 5.242 1.327 7.31 6.437 6.226 5.729-1.216 10.009-4.007 11.09-10.352.732-4.294 1.839-8.524 3.138-14.416 8.173 8.609 9.902 17.014 10.087 26.065.05 2.51-.94 6.035 2.662 6.847 3.103.699 4.599-2.353 6.336-4.313 4.656-5.26 2.478-12.955 6.046-19.28 14.186 24.872 14.175 25.078-3.347 41.43m110.22 586.68c-3.42.037-3.57 2.28-4.25 3.954-5.444 13.422-3.038 26.762.604 40.036 4.554 16.597 4.139 32.237-8.09 45.9-5.124 5.727-10.693 7.94-18.672 5.605-12.98-3.8-20.734-13.357-27.5-23.637-11.09-16.85-18.928-35.384-26.6-54.023-6.81-16.544-12.102-17.48-26.087-7.094-9.243 6.864-15.882 15.486-21.175 25.772-7.101 13.799-16.314 14.752-28.208 4.796-6.772-5.668-11.167-12.9-14.975-20.512-4.945-9.887-12.548-17.434-22.552-20.94-14.48-5.074-26.64-11.966-34.154-25.945-3.23-6.008-8.553-9.022-15.62-4.993-7.751 4.418-12.498 17.544-9.906 28.037 2.58 10.45 10.336 13.144 19.752 11.852 21.37-2.933 34.693 7.67 44.188 25.156 2.222 4.09 4.246 8.29 6.44 12.397 4.802 8.992 11.047 16.829 18.844 23.457 8.83 7.508 17.75 7.924 27.553 1.553 6.459-4.198 10.355-10.393 14.917-16.142 14.097-17.768 32.777-16.05 43.865 3.963 4.196 7.57 6.247 15.887 8.656 24.062 5.036 17.085 17.197 25.32 34.14 27.21 10.076 1.123 18.839-3.631 27.403-8.093 6.905-3.598 12.373-2.897 17.548 3.196 10.557 12.432 21.049 24.957 32.27 36.78 19.986 21.058 55.137 25.48 80.302 10.742 4.373-2.561 7.047-6.241 6.542-11.39-.536-5.465-4.538-7.851-9.421-8.982-6.691-1.551-13.251-.277-19.643 1.529-33.308 9.409-70.223-13.283-77.083-47.204-2.603-12.868-4.8-26.03-10.761-37.846-5.995-11.885-7.867-24.254-7.627-37.26.074-3.985 1.218-8.194-.7-11.935M803.854 1646.18c-2.423-11.96 5.09-16.778 13.412-21.107 11.218-5.836 23.077-9.098 35.787-9.243 12.51-.142 24.954.57 37.353 2.26 3.61.492 7.414.128 9.274-3.428 1.65-3.158-.457-6.082-2.463-8.45-5.021-5.928-10.03-11.892-15.434-17.465-19.497-20.11-38.35-40.602-49.624-66.821-30.742-71.488-72.031-134.776-139.863-177.21-11.065-6.921-21.537-14.95-34.857-20.672 1.247 5.219 4.05 6.872 6.227 9.019 24.65 24.307 50.514 47.476 71.884 74.883 9.294 11.919 18.484 23.98 25.245 37.61 2.41 4.86 5.833 10.236 1.618 15.185-4.116 4.834-9.57 1.277-14.161-.24-6.997-2.31-13.615-5.834-20.683-7.831-7.76-2.193-14.937-7.27-24.981-6.252 14.8 19.904 32.286 35.395 48.18 52.3 17.089 18.177 32.024 37.347 33.43 63.523.646 12.03.009 24.134.768 36.153 1.104 17.472 4.2 34.427 18.888 47.786m672.812-1042.715c8.594-12.391 6.278-23.123-5.491-31.616-4.038-2.915-8.868-4.793-12.72-7.902-15.258-12.312-30.72-23.153-52.17-17.097-4.316 1.219-9.312.328-13.968.01-8.284-.563-15.403 1.633-21.01 7.922-4.008 4.496-8.604 8.832-14.948 7.599-16.875-3.28-26.653 5.636-35.918 17.904-5.26 6.964-8.844 14.507-12.592 22.093-3.775 7.639-7.661 14.922-13.286 21.632-19.431 23.177-18.978 30.153 1.363 53.559 3.558 4.093 7.49 7.863 11.225 11.805 7.924 8.363 17.786 10.739 28.82 9.017 13.834-2.158 24.65-11.847 38.34-14.796-12.944-3.571-25.374-3.15-38.091-.618-17.54 3.49-29.272-6.286-28.416-22.695.134-2.564-1.065-6.216 2.013-7.321 3.8-1.365 5.192 2.697 6.785 4.983 10.067 14.448 22.584 15.15 39.018 9.648 13.424-4.495 28.04-2.936 42.153-1.971 18.392 1.257 27.317 17.397 18.586 33.376-1.458 2.667-3.223 5.703-3.167 8.537.094 4.823 2.239 9.485 7.89 9.887 6.134.436 6.92-4.577 6.38-8.86-1.078-8.567 2.964-14.832 7.639-21.258 4.312-5.928 6.055-8.9 9.767-15.23 6.877-11.722 4.078-20.764-11.223-24.796-16.351-5.16-27.465-7.61-42.412-5.617-3.213.429-5.902.063-4.288-4.138 3.27-8.513-2.302-11.158-8.65-13.176-3.884-1.235-7.713-2.327-7.105-7.516.664-5.662 5.065-4.782 8.914-4.832 3.63-.046 8.287 2.248 9.946-3.076 1.565-5.023-2.375-7.677-5.595-10.548-3.986-3.553-9.895-5.71-10.36-13.507 17.71 8.316 28.292 25.744 47.178 30.075.798.182 1.09 2.017 1.89 2.805 10.153 9.999 17.298 24.128 35.42 22.488 7.833-.708 13.276-2.1 15.837-10.275 2.044-6.523 3.083-13.556 8.474-18.811 2.152-2.098 7.298-3.81 4.51-8.091-2.79-4.288-6.015 1.635-10.738.407m264.837 390.63c6.847-9.22 8.53-19.366 12.776-28.367 1.548-3.282 3.617-6.172 7.995-5.35 2.455.46 5.597 2.356 4.516 4.276-6.26 11.125-2.06 17.15 8.95 20.525.252.077.298.702.52 1.014 4.593 6.456.999 18.272 13.114 19.973.439.062.645 2.846.702 4.37.38 10.248-5.936 14.729-14.907 16.067-4.952.739-10.183-.426-15.154.25-7.382 1.002-12.7 7.589-12.967 12.993-.3 6.07 7.866 3.642 12.44 4.009 9.39.753 16.355-4.242 22.335-10.724 5.874-6.367 12.07-12.105 20.778-14.4 11.762-3.098 20.654-10.453 28.653-19.213 23.428-25.658 34.535-55.556 31.76-90.357-.756-9.5-2.053-18.54-11.968-23.43-1.706-.842-5.435-1.6-3.398-4.705 7.985-12.178 4.322-27.432 10.966-39.923 4.534-8.523 5.159-17.763 4.589-27.18-.75-12.377-1.558-24.753-2.17-37.14-.328-6.644-2.78-10.427-10.172-8.72-10.93 2.525-15.716-3.583-18.248-12.892-.71-2.608-1.638-5.16-2.298-7.78-6.624-26.301-18.377-31.92-47.333-33.372-2.887-.145-7.111-.856-8.041 2.94-.99 4.037 3.322 4.37 5.92 5.798 17.476 9.605 34.03 20.152 42.899 39.222 2.423 5.212 6.432 9.776 6.323 15.904-.047 2.594 1.055 5.947-1.655 7.557-3.275 1.946-4.796-1.655-6.488-3.371-8.996-9.122-19.271-16.856-27.516-26.862-7.413-8.996-18.051-13.314-29.647-15.42 19.182 15.769 30.655 37.873 48.48 54.786-11.584-1.33-21.84-4.623-30.825-10.65-9.06-6.075-17.757-12.234-31.541-7.346 25.722 11.76 48.31 24.818 58.829 51.162.397.993 1.68 1.599 2.408 2.5 11.714 14.51 4.755 50.498-11.492 60.03-2.452 1.44-4.424 3.187-7.062.357-8.33-8.938-14.241-8.041-18.503 3.63-2.862 7.84-7.32 14.508-11.882 21.264-3.255 4.82-7.461 9.523-7.778 15.444-.972 18.144-7.316 34.794-13.36 51.57-1.182 3.28-2.274 6.575-.548 11.562m-355.02 207.474c-10.913 5.572-17.212 12.424-23.961 18.726-24.983 23.333-49.195 47.435-81.151 61.997-23.013 10.486-46.785 19.306-68.953 31.73-23.06 12.924-42.722 29.769-60.441 49.042-4.823 5.246-8.496 10.788 2.449 14.383 22.403 7.358 22.422 7.738 4.433 23.194-11.774 10.117-20.923 21.837-25.068 36.999-.714 2.612-1.812 5.553.954 7.48 2.755 1.923 5.043-.117 7.348-1.65 11.15-7.414 21.049-16.332 28.648-27.223 12.302-17.631 28.418-30.545 47.357-40.066 48.74-24.504 100.314-39.163 154.884-42.483 13.422-.817 26.1 1.822 36.06 12.616 5.206 5.64 10.056 11.919 17.154 15.672 8.059 4.262 19.839 2.334 24.219-4.518 5.216-8.161-1.36-12.9-6.014-17.785-5.941-6.236-13.052-10.921-21.271-13.812-11.267-3.964-22.517-7.975-34.362-12.175 10.247-3.906 21.477-3.343 32.16-13.6h-39.623c10.495-11.525 24.828-9.998 37.582-13.627-12.487-5.038-25.247-4.918-37.906-5.901-12.731-.99-25.096 3.146-39.38 3.575 22.483-16.898 47.555-26.107 68.905-46.092-23.548.753-42.01 8.11-60.665 15.593 15.303-14.337 29.696-28.685 36.643-52.075m-329.961 84.502c12.37 2.085 22.889 5.73 32.87 11.045 13.803 7.348 26.265 16.45 38.442 26.128 14.99 11.913 25.544 12.634 37.859 3.323 8.574-6.483 8.684-10.982-.55-16.772-14.77-9.262-29.992-17.807-44.811-26.994-9.711-6.02-19.248-12.384-29.374-22.32 17.98 4.702 32.592 10.615 46.824 17.605 13.55 6.656 27.143 13.232 40.81 19.644 2.365 1.108 5.778 2.257 7.574-.332 1.72-2.481-.31-5.036-2.195-7.152-8.876-9.96-18.865-18.46-31.026-24.267-13.968-6.671-27.871-13.48-41.802-20.228 3.495-.91 6.584-.745 9.614-.237 33.725 5.652 66.507 14.935 98.918 25.629 17.928 5.916 33.72 1.803 47.813-10.143 2.345-1.988 5.307-4.17 4.61-7.523-.76-3.651-4.631-3.848-7.593-4.15-29.822-3.037-59.18-9.864-89.363-10.181-13.992-.146-28.011-1.716-41.935-3.344-33.59-3.926-64.66-16.867-96.39-27.407-4.418-1.468-8.954-2.687-13.192-4.567-27.753-12.308-60.706-18.1-68.29-56.325-8.068 6.957-9.775 12.998-5.591 20.84 4.608 8.638 9.47 16.798 17.8 22.607 6.46 4.505 10.22 10.639 7.507 19.053-1.534 4.757-.14 7.744 4.628 10.267 4.349 2.302 7.957 6.12 11.616 9.562 6.35 5.976 4.84 11.61-1.252 16.767-10.556 8.937-10.655 13.416.158 22.033 7 5.579 13.978 11.072 20.187 17.613 5.876 6.19 5.8 12.015 1.669 18.889-9.635 16.03-8.508 21.058 6.829 32.649 4.962 3.75 10.07 7.43 13.199 12.909 2.004 3.509 2.408 7.912-.218 11.025-3.365 3.99-6.153-.647-9.038-1.873-3.574-1.518-6.82-3.917-10.478-5.1-7.98-2.58-13.191-.642-12.467 9.046.319 4.27 1.172 8.846-1.268 12.563-11.72 17.845-2.594 33.573 5.252 49.08 2.325 4.596 5.463 12.224 13.91 4.8 4.309-3.785 9.905-.23 13.669 3.048 4.949 4.31 9.17 9.452 13.674 14.264 5.533 5.913 9.71 13.19 17.435 16.882 5.539 2.647 11.788 4.347 16.289-.263 5.284-5.413-1.691-8.896-4.273-12.553-4.035-5.715-5.782-9.63 3.618-10.715 8.354-.964 6.74-4.97 1.98-8.84-7.086-5.763-14.683-10.93-21.044-18.283 11.789-5.481 20.1 1.146 28.834 5.91 3.514 1.917 6.468 6.81 11.164 3.609 4.215-2.874 3.083-8.01 2.228-11.916-2.567-11.73-12.046-17.336-21.652-22.762-10.731-6.062-10.931-7.637-.408-14.35 7.643-4.877 6.848-7.815-.37-12.176-5.885-3.556-11.263-7.94-13.293-15.402-1.502-5.522-.62-10.215 3.139-13.91 3.646-3.584 7.905-1.362 11.914.379 9.046 3.929 16.14 10.617 23.93 16.344 7.447 5.475 15.39 8.98 24.923 5.01 2.098-.875 4.685-.52 4.892-3.76.176-2.753-1.447-4.502-3.483-5.604-21.481-11.623-36.813-30.99-56.704-44.631-6.264-4.296-11.832-9.6-17.718-14.443m163.604 496.795c-.883-4.744-4.14-5.16-6.838-6.556-27.634-14.307-55.083-28.915-78.728-49.54-41.288-36.01-82.971-71.578-123.822-108.072-33.441-29.875-63.564-62.701-87.11-101.287-20.223-33.143-32.078-69.34-41.826-106.384-9.244-35.13-13.285-70.728-7.61-107.047 1.452-9.285 1.123-18.71-9.2-24.2-11.577-6.155-20.104-15.716-27.89-26.01-1.341-1.773-2.338-4.54-5.048-4.255-3.674.387-3.37 3.839-3.703 6.353-2.272 17.105-1.392 34.103 1.82 51.042 3.245 17.108 9.419 33.924 6.883 51.698-2.29 16.044.309 30.884 8.657 44.776 7.928 13.193 8.43 26.946 3.894 41.483-3.103 9.945-5.845 19.983-4.1 30.868 3.087 19.253 14.893 33.822 25.294 49.16 20.897 30.816 38.198 64.025 63.456 91.954 19.26 21.297 39.773 41.692 54.678 66.572 10.933 18.25 5.636 27.13-15.991 27.953-15.09.573-29.341-2.85-43.534-7.231-18.39-5.677-36.5-12.58-59.381-14.37 21.836 13.533 38.513 28.618 58.112 39.579 37.573 21.013 78.42 32.908 119.958 42.938 31.315 7.562 62.433 17.397 95.18 13.794 18.49-2.035 36.728-5.663 55.524-4.465 6.88.439 13.607 3.98 21.325 1.247m128.3-317.61c-6.534-3.051-6.91-6.122-7.877-9.024-4.824-14.475.638-27.357 5.97-40.3 2.944-7.144 6.745-14.116 5.762-22.231-.99-8.163-4.89-13.95-13.797-14.578-13.903-.982-24.325 6.012-28.343 19.32-8.26 27.36-16.19 54.82-24.477 82.174-.761 2.509-.481 6.855-5.203 6.353-3.536-.376-5.148-3.26-6.641-5.977-1.685-3.065-.157-5.987.687-8.975 4.507-15.958 9.185-31.875 13.286-47.938 4.43-17.357-4.01-29.827-21.64-32.946-8.913-1.577-17.056.423-24.303 5.584a1767 1767 0 0 0-34.834 25.45c-14.295 10.718-15.78 20.522-5.943 35.969 5.199 8.165 11.72 15.49 15.396 24.632 2.219 5.519 2.418 10.536-2.113 15.014-4.438 4.385-9.66 6.75-15.891 5.069-4.865-1.314-9.406-3.465-13.424-6.718-2.551-2.065-4.937-6.142-8.857-3.884-3.591 2.068-4.246 6.363-4.242 10.3.005 3.47-.188 7.22.996 10.364 7.526 19.984 12.277 40.853 20.5 60.662 6.667 16.057 12.372 32.744 9.17 50.877-1.31 7.425 3.133 12.522 8.89 16.273 2.777 1.808 6.042 4.509 9.64 2.348 3.71-2.227 2.398-6.21 1.99-9.562-.371-3.043-1.523-5.996-1.856-9.04-.337-3.085-.496-6.836 2.988-8.112 3.44-1.26 5.924 1.757 7.55 4.205 3.42 5.15 6.373 10.623 9.34 16.059 3.26 5.975 5.17 15.24 13.465 13.707 7.619-1.408 8.349-10.047 8.82-17.278.327-5.003 1.57-9.941 2.144-14.937.338-2.944 2.246-4.836 3.758-7.07 2.69-3.974 5.15-4.518 7.59.15 1.252 2.398 2.444 4.828 3.775 7.18 7.56 13.364 12.264 13.685 21.922 1.922 6.139-7.477 10.058-16.635 17.783-22.901 12.409-10.067 18.227-10.091 27.915 2.176 6.442 8.158 11.627 6.08 14.87-1.168 7.773-17.37 19.088-32.646 28.087-49.284 6.552-12.112 5.465-20.922-5.004-28.964-7.983-6.132-9.521-13.606-5.71-22.566 7.71-18.121 10.365-38.033 20.389-55.405 5.057-8.764 6.324-19.045 7.189-29.022.985-11.357-6.342-20.71-17.163-23.008-9.601-2.04-16.74 2.084-19.094 10.985-5.811 21.955-26.33 37.82-23.46 64.115m-281.323 68.278c-4.476-.138-5.953-2.54-7.748-4.505-19.645-21.52-38.414-43.923-59.16-64.332-29.728-29.248-43.485-64.362-43.598-105.273-.055-20-5.642-37.927-16.386-54.726-22.983-35.937-37.056-75.505-47.07-116.707-8.302-34.167-10.754-69.498-21.043-103.266-6.97-22.873-17.126-44.808-19.761-68.97-1.573-14.43 2.379-19.471 16.907-19.108 9.367.234 18.48 1.9 27.567 4.443 11.925 3.337 23.649 7.623 36.244 8.378 15.334.919 25.533-4.218 29.527-15.518 3.736-10.565-1.694-21.781-13.867-30.468-10.897-7.776-23.288-8.93-35.777-8.238-25.335 1.403-45.378-8.118-61.815-26.842-4.584-5.221-10.266-9.494-15.505-14.133-6.022-5.33-10.393-5.766-11.011 3.945-.47 7.357-1.26 14.72-1.24 22.079.069 26.392-9.917 48.117-29.123 66.186-15.4 14.488-32.33 26.826-50.073 38.194-20.158 12.917-26.67 31.589-17.955 53.249 2.638 6.557 4.697 15.08 13.545 15.9 9.51.88 11.453-8.006 14.699-14.262 3.186-6.142 5.405-12.788 7.948-19.252 3.165-8.044 7.708-15.24 13.51-21.605 8.174-8.964 17.867-11.794 29.435-6.92 17.414 7.34 29.172 20.05 36.384 37.282 6.955 16.616 7.234 34.253 6.959 51.668-.513 32.525 8.32 60.95 31.084 85.108 20.735 22.005 26.675 48.796 20.449 77.982-4.717 22.117-2.565 43.213 6.046 63.94 8.799 21.177 17.18 42.528 26.11 63.649 20.005 47.31 47.872 89.235 90.506 118.973 41.565 28.99 83.178 59.14 137.497 59.835 7.483.095 11.685-.875 11.843-9.642.18-10.07-2.067-19.386-7.083-27.755-10.42-17.382-17.975-34.844-12.761-56.05 1.47-5.98-.575-14.447-9.648-16.012-8.726-1.506-12.661 4.082-15.265 11.269-3.173 8.755-3.133 17.707-1.048 26.92-4.574-.56-4.281-4.167-5.352-6.264-4.734-9.27-8.383-19.115-13.435-28.193-5.736-10.306-20.518-14.615-31.787-10.446-11.818 4.373-12.543 13.414-10.634 23.869.898 4.92 1.22 9.944 1.885 15.618m406.24-276.955c28.44 25.51 70.066 26.847 96.782 55.018-8.327-1.687-16.245-4.5-24.328-6.712-26.272-7.194-52.522-14.257-74.516-31.593-3.556-2.804-8.286-4.308-12.673-5.848-6.677-2.344-11.148-.237-13.336 6.937-3.78 12.399 2.412 21.644 10.424 29.086 27.879 25.892 55.564 52.1 88.424 71.97 18.63 11.266 32.318 26.297 37.423 49.829-10.71-6.208-16.971-15.73-27.714-19.206-.935 16.639-2.648 17.318-16.57 8.923-9.38-5.656-15.03-14.388-21.017-22.97-8.168-11.71-14.905-24.608-28.344-31.775-4.524-2.414-8.982-6.422-13.87-3.151-4.283 2.865-4.685 8.363-5.004 13.565-1.156 18.819 8.788 33.28 18.344 47.945 44.01 67.545 92.912 132.094 126.606 205.956 4.265 9.349 14.527 10.914 22.282 4.075 4.79-4.224 7.635-9.55 9.026-15.886 3.237-14.745 3.306-29.98 7.842-44.563 6.829-21.954 6.496-22.057-15.716-24.971-11.1-1.457-20.88-15.915-14.195-22.545 11.566-11.473 14.498-25.897 19.45-40.084 5.317-15.226 13.052-17.5 26.552-8.795 7.71 4.972 14.943 5.475 21.12-.983 19.319-20.2 42.428-22.214 67.703-15.167 4.263 1.188 8.914 2.529 12.08-1.15 3.506-4.073 1.184-8.83-.72-13.091-5.884-13.18-14.365-24.772-22.915-36.263-21.724-29.194-49.998-50.873-81.14-69.094-47.951-28.055-95.347-57.33-149.832-71.817-13.8-3.668-27.555-7.836-42.168-7.64m-423.57-610.352c6.31 12.417 14.314 20.603 25.884 16.582 13.864-4.818 27.109-11.14 41.9-13.238 7.353-1.044 6.619-5.486 2.198-9.66-2.508-2.37-5.501-4.307-8.492-6.077-45.412-26.863-91.543-51.18-146.58-51.618-15.52-.124-31.037-4.638-34.301 17.316-5.31-2.697-6.644-6.634-8.47-9.904-8.59-15.39-22.72-19.197-39.992-23.441-7.173-1.762-14.197-4.142-21.393-5.788-31.407-7.187-60.11-12.705-88.394 5.109-9.523 5.997-9.754 8.579-1.18 15.507 6.819 5.507 15.43 9.849 16.519 20.018.358 3.342 1.657 7.957-1.408 9.747-3.278 1.915-6.13-1.55-8.55-4.157-13.376-14.426-27.451-27.136-48.991-28.25-6.28-.323-17.07-3.29-16.487-9.724.513-5.674 11.316-4.993 18.027-5.55 40.672-3.375 72.308-32.115 79.002-71.48 1.422-8.362 3.435-16.707 7.655-24.2 5.827-10.348 9.798-29.25 9.305-39.983-.523-11.387-6.832-15.42-17.115-16.431-22.385-2.202-40.451 5.639-54.678 22.687-8.47 10.148-17.318 19.875-27.977 27.837-3.974 2.967-7.725 5.973-11.683.074-5.128-7.644-10.538-5.026-15.263.126-15.246 16.622-30.681 33.296-40.806 53.627-13.697 27.504-16.461 53.51 14.246 77.589 15.565 12.205 31.742 23.634 47.353 35.783 11.824 9.2 24.81 14.2 39.91 13.769 6.407-.182 12.546 2.163 17.49 5.69 21.2 15.119 42.19 30.52 57.419 52.277 4.7 6.716 11.563 11.468 18.479 15.869 4.548 2.895 10.175 7.378 14.733 4.44 5.048-3.254.267-9.335-.9-13.905-1.567-6.141-4.208-12.532 1.675-17.126 5.97-4.663 10.863 1.186 15.598 3.868 16.75 9.484 33.683 10.987 51.017 1.969 8.586-4.468 9.595-12.12.848-15.438-14.012-5.316-25.33-16.417-41.392-17.5-10.95-.736-21.082-5.26-29.667-15.08 6.738 0 11.487-.593 16.038.1 21.809 3.33 43.717 9.744 63.642-6.585 4.1-3.36 6.59.246 6.173 4.518-1.966 20.133 11.995 28.153 27.05 34.544 21.296 9.04 35.723 7.169 32.199-18.758-.43-3.16-.896-7.712 3.236-9.095 3.412-1.142 5.236 2.676 7.6 4.516 15.036 11.702 22.522 9.702 28.524-10.574m19.86-126.506c13.836 2.82 27.516 5.234 41.566 3.748 3.695-.391 8.562 1.103 10.12-3.711 1.844-5.7-3.61-7.516-7.05-9.124-23.666-11.06-44.883-26.225-67.373-39.24-15.385-8.902-16.41-11.915-2.426-23.897 12.399-10.625 18.023-22.725 14.72-38.785-.568-2.761-3.781-6.25.053-8.233 3.058-1.582 5.646 1.936 7.984 3.662 10.91 8.06 22.685 11.284 36.21 8.37 7.399-1.592 10.186-5.368 10.212-12.943.04-11.936-8.698-19.224-15.01-29.775 17.996 4.883 31.658 13.089 42.63 26.282 6.585 7.917 15.417 10.67 25.025 5.112 9.512-5.504 9.779-13.647 6.12-23.12-3.168-8.203-5.2-16.791-2.005-25.891 4.995 1.359 6.749 5.502 9.357 8.682 12.079 14.724 27.096 22.065 46.296 17.328 10.105-2.493 19.99-5.941 29.845-9.333 5.746-1.978 7.674-5.988 2.206-10.15-22.09-16.808-39.673-38.097-58.524-58.103-4.198-4.455-7.974-4.822-13.41-3.404-62.915 16.416-125.882 32.63-188.827 48.93-22.638 5.863-22.807 5.889-24.355 29.56-.47 7.173-2.011 13.325-9.468 15.66-8.855 2.776-12.111 8.807-12.43 17.519-.437 11.924-7.577 18.658-18.048 23.354-17.992 8.068-36.095 8.694-54.673 2.695-5.24-1.691-10.52-3.294-15.518.809-11.117 9.126-22.324 18.448-27.687 32.169-6.916 17.697-12.883 35.77-18.998 53.769-3.24 9.536.739 15.34 10.196 18.299 9.209 2.879 18.526 2.067 27.849 1.632 19.567-.913 38.274.894 52.63 16.376 10.14 10.936 22.71 12.768 37.078 12.579 24.756-.326 49.492-5.895 74.363.554 30.789 7.982 58.233 20.542 82.235 40.819 3.728 3.149 7.39 6.943 12.135 3.223 7.034-5.516 13.71-3.814 22.224-2.642 5.707.785 9.777-2.177 11.367-7.821 1.61-5.72-2.29-8.51-6.363-11.096-4.871-3.094-10.153-5.694-14.55-9.352-12.315-10.247-12.661-18.26-1.91-29.89 1.467-1.586 4.399-2.602 2.697-5.461-1.584-2.661-4.644-2.498-7.321-2.878-19.45-2.758-36.065-10.937-49.171-26.282m165.68 387.317c1.769.506 2.669 1.098 3.175.86 54.968-25.811 108.03-54.795 155.44-93.13 2.89-2.335 7.568-4.554 4.666-9.162-2.901-4.606-7.775-6.905-13.173-4.025-7.228 3.857-14.067 8.42-19.198 14.984-14.177 18.132-32.672 30.937-52.535 41.912-4.356 2.407-8.648 6.35-15.033 5.155 7.163-11.901 18.135-19.941 25.309-31.265-7.434 1.945-14.138 4.71-20.746 7.688-18.113 8.16-35.972 17.467-55.837 20.26-16.387 2.306-30.8 11.088-47.096 12.838-10.553 1.134-14.265-3.278-12.812-13.748.693-4.994 2.602-9.28 6.635-13.07 9.343-8.777 20.312-14.178 32.514-17.125 47.322-11.431 91.309-30.215 130.779-58.834 4.798-3.48 15.115-6.812 10.206-13.99-4.834-7.068-12.016.409-16.77 4.32-22.087 18.172-48.83 22.91-76.025 27.027 20.56-12.505 38.17-28.91 58.613-41.38 4.836-2.95 10.826-7.141 7.267-13.836-3.631-6.832-9.92-11.24-18.508-7.995-3.598 1.358-7.1 3.203-10.292 5.347-6.853 4.604-13.988 6.552-22.132 4.066-15.113-4.614-29.42-1.42-43.01 5.373-11.11 5.554-21.796 11.946-32.736 17.847-4.087 2.204-7.914 5.39-15.09 5.155l35.182-37.926-1.992-2.181-66.06 39.758c4.997-12.017 11.506-22.086 18.066-32.123 1.582-2.421 6.105-4.476 3.546-7.521-2.956-3.517-6.504.107-9.147 1.943-14.718 10.225-28.596 21.509-41.951 33.46-9.353 8.37-19.043 16.368-28.582 24.532 4.11-19.304 16.246-32.841 29.549-45.016 23.285-21.308 51.696-34.443 81.118-44.462 15.969-5.438 24.94-13.243 24.435-30.347-.007-.246 1.25-.528 1.927-.773 9.09 17.659 22.47 30.957 38.99 37.765 3.569 1.47 8.409 5.619 11.473 2.125 4.127-4.707-4.277-5.08-6.585-8.761-.603-.962-5.146-4.508-6.011-5.293-17.296-15.708-20.79-33.51-10.36-53.877 4.802-9.38 12.178-18.408 3.499-26.571-1.238-1.164-3.81-3.572-1.642-4.494 11-4.68 7.869-22.021 22.392-23.85 4.453-.56 6.665-6.147 6.926-11.205.305-5.902-3.962-6.664-8.321-7.684-3.135-.734-5.38-2.843-6.846-5.845-4.976-10.191-13.703-13.245-23.308-8.802-10.547 4.878-8.271 14.555-5.361 23.434 5.488 16.74 4.815 20.09-8.734 31.123-11.134 9.067-19.117 21.315-32.57 29.372 12.84 5.899 10.64 11.944 2.7 18.773-9.417 8.098-18.672 16.407-27.661 24.974-12.381 11.8-27.122 16.172-43.896 15.153-19.178-1.165-37.891-4.681-56.113-10.731-6.606-2.193-13.112-2.913-18.943 1.658-10.067 7.89-21.951 11.515-33.9 15.237-16.804 5.234-32.821 12.3-47.912 21.434-7.746 4.689-13.046 11.217-14.96 19.935-1.135 5.169-3.084 11.768 1.578 15.44 5.17 4.072 10.159-1.07 14.682-3.761 2.634-1.566 4.946-3.756 7.174-5.901 23.474-22.595 51.153-21.88 83.396-14.727-19.31 6.149-35.954 10.272-51.652 16.694-32.288 13.207-56.228 34.482-62.143 70.936-.725 4.464-2.635 9.328 1.54 15.163 10.51-23.911 23.754-43.91 44.563-58.632 1.18 4.287-1.417 6.37-3.016 8.885-8.11 12.759-16.363 25.432-24.186 38.363-8.145 13.463-8.624 28.125-4.215 42.693 2.002 6.617 2.582 16.902 11.366 17.148 8.45.238 10.169-9.59 12.696-16.152 10.908-28.318 25.457-54.761 41.82-80.162 11.904-18.478 30.237-27.555 53.02-32.176-4.515 10.065-11.104 16.155-16.496 23.118-10.88 14.049-26.115 25.86-29.4 44.179-3.715 20.713-16.266 38.687-17.1 60.14-.277 7.11-3.116 11.835-10.18 3.933-2.01-2.25-4.312-5.458-7.772-3.696-3.831 1.95-4.92 6.014-4.21 10.075 1.002 5.724 2.666 11.33 3.722 17.045 1.459 7.902 1.548 15.66-4.185 23.857l-14.235-19.077c.526 26.617 8.41 50.329 25.466 70.328 5.649 6.624 13.922 8.43 22.423 4.919 8.02-3.313 8.359-11.156 8.377-17.825.03-11.207-1.227-22.452-2.47-33.623-3.13-28.145 9.313-50.914 36.296-63.743-3.146 6.07-5.91 10.949-8.258 16.018-6.726 14.516-12.51 29.327-12.212 45.703.046 2.572-.386 6.01 2.982 6.706 2.618.54 3.906-2.248 4.987-4.248a738 738 0 0 0 10.233-19.614c7.377-14.68 19.72-23.592 34.326-30.06-4.108 7.599-9.224 14.325-13.695 21.453-17.82 28.412-21.626 58.582-9.156 89.858 6.174 15.485 14.25 30.123 16.132 47.15.568 5.143 3.26 10.553 6.392 14.806 6.01 8.16 13.36 6.656 17.683-2.685 1.889-4.082 2.553-8.267 1.846-12.484-2.051-12.238-4.803-23.828-13.061-34.24-20.423-25.747-15.774-45.904 12.825-61.85 11.549-6.438 23.185-12.747 34.473-19.62 8-4.87 16.574-9.252 23.907-18.652-18.542.557-32.863 7.023-46.086 15.765-12.936 8.554-25.151 18.187-37.747 27.257-2.507 1.806-5.472 3.905-8.571 2.3-3.784-1.961-2.968-6.083-2.76-9.46.659-10.665 7.195-17.105 16.675-20.325 28.38-9.642 54.664-24.032 82.189-35.606 11.867-4.99 23.537-9.975 36.499-11.558 8.347-1.02 10.334 1.46 5.939 8.514-4.77 7.656-9.843 15.125-14.96 22.945m-27.534 191.11c-11.046-.688-19.534-3.318-27.277-7.132-14.922-7.35-30.278-9.395-46.61-7.288-5.335.688-10.883-.457-16.325-.342-6.546.138-9.643-2.754-8.628-9.191 1.878-11.91-4.172-19.785-12.682-26.883-9.522-7.943-19.511-15.611-24.263-27.747-4.307-10.998-12.993-14.92-24.097-14.406-8.118.376-13.707 4.7-16.987 12.12-4.611 10.429-1.731 19.262 6.59 26.066 11.706 9.57 15.853 20.499 12.706 35.897-3.581 17.529 2.053 24.45 19.474 29.856 2.969.92 6.033 2.183 9.055 2.187 16.806.023 31.947 5.272 46.42 13.376 8.89 4.978 17.033 5.968 24.675-3.641 6.39-8.036 17.56-6.374 21.667 3.027 3.032 6.94 7.597 8.585 14.277 9.444 15.47 1.987 30.479 5.648 42.67 16.368 1.98 1.742 5.149 3.032 3.323 6.394-1.304 2.399-4.12 1.66-6.337 1.63-11.473-.152-22.131-4.303-33.117-6.851-15.112-3.506-15.362-3.534-17.046 11.376-1.24 10.98-7.84 13.024-17.256 11.813-8.697-1.118-12.301-4.976-9.903-14.163 1.854-7.105 1.827-14.958-8.013-16.105-23.153-2.698-44.655-13.28-68.663-12.588-17.788.513-45.422-19.53-46.618-33.471-1.271-14.823-7.326-28.113-10.265-41.783-4.162-19.362-4.177-39.497-14.945-57.2-.178-.292-.03-.768-.086-1.152-.365-2.515.747-6.013-3.021-6.595-3.126-.483-4.594 2.515-6.335 4.503-6.23 7.11-6.06 15.766-5.328 24.335.428 5.009 1.29 10.12 2.904 14.866 11.065 32.54 10.94 63.907-7.648 94.2-4.748 7.738-6.264 17.86.028 25.269 5.745 6.764 14.819 3.9 21.929.992 7.133-2.918 12.376-.573 16.963 3.792 5.03 4.787 9.34 10.365 13.698 15.81 9.898 12.37 20.093 14.964 33.659 7.078 6.214-3.612 10.759-3.252 15.483 1.677 2.958 3.087 6.447 5.755 8.987 9.14 16.102 21.459 37.24 27.369 63.017 22.059 17.435-3.592 35.132-7.1 50.588 7.442 3.71 3.49 10.814 3.695 16.793 3.649 10.503-.08 20.927.22 31.44 1.735 18.213 2.623 25.069-3.028 29.568-21.937 2.212-9.3 8.599-12.297 17.479-8.455 10.454 4.523 8.943 12.017 5.643 20.348-.995 2.513-5.536 6.94 1.5 7.556 16.265 1.425 28.769-9.872 28.91-26.166.062-7.176 2.384-11.003 10.039-10.903 3.239.043 7.734 1.302 8.633-3.571.705-3.817-2.144-6.453-5.072-8.55-2.86-2.047-5.877-3.688-9.501-4.236-11.288-1.707-16.107-9.657-18.306-19.708-1.243-5.686-1.662-11.55-2.894-17.24-.605-2.793-.805-7.12-4.974-6.6-2.695.336-3.47 3.888-3.94 6.576-.333 1.899-.43 3.873-.353 5.803.19 4.77.678 9.424-5.724 10.934-7.781 1.835-14.037-1.181-18.59-6.704-3.658-4.44-1.764-8.757 2.585-12.95 3.638-3.505 8.675-8.16 5.41-14.171-5.784-10.653-3.836-16.43 8.76-18.605 3.535-.61 9.182-5.941 1.696-8.371-12.391-4.021-8.27-10.383-4.326-17.273 4.465-7.797 10.138-14.622 17.594-19.863a8679 8679 0 0 0 38.95-27.546c6.699-4.763 14.263-5.738 22.212-5.478 4.88.16 5.444 2.4 2.794 5.745-2.885 3.64-6.363 6.81-9.328 10.394-4.064 4.913-4.354 9.936.715 14.4 4.954 4.365 9.524 2.42 13.249-1.722 3.89-4.326 7.665-8.855 10.81-13.731 14.174-21.973 31.577-40.087 56.173-50.786 18.139-7.89 35.455-19.094 56.388-15.123 13.02 2.47 25.429 2.372 37.87-1.891 9.696-3.323 19.075-2.07 28.446 1.526 10.762 4.128 20.204 10.646 27.449 19.089 21.226 24.737 50.99 31.14 80.25 38.806 3.977 1.042 8.933 1.72 12.46-1.222 7.698-6.424 16.438-8.343 26.137-7.73 2.707.17 5.644-.133 7.136-2.98 1.92-3.662-1.146-5.928-3.028-8.052-8.875-10.012-19.83-14.483-33.388-11.945-16.577 3.103-29.436-4.2-40.971-15-4.574-4.282-4.968-9.48-3.358-15.011 1.708-5.872 6.478-5.698 11.365-5.522 2.244.08 5.709.094 6.594-1.218 7.377-10.938 15.507-9.455 24.437-2.298.81.65 2.225.733 3.366.756 3.819.079 7.805.799 6.928 5.524-.932 5.02-4.614 6.934-9.755 4.627-3.027-1.358-6.547-2.311-7.61 1.94-1.036 4.143 3.079 4.88 5.83 5.873 13.126 4.734 23.37-2.315 33.262-9.013 6.712-4.543 7.967-11.573 6.665-19.696-2.058-12.84-7.382-24.217-13.103-35.68-18.378-36.823-46.056-52.488-86.811-51.088-21.297.732-43.036.904-63.552-6.906-6.71-2.554-13.914-5.44-5.036-14.415 5.094-5.151 2.968-9.571-3.733-12.398-3.978-1.678-8.94-2.172-10.004-8.328-3.203-18.512-9.352-22.916-28.702-22.481-16.29.367-32.558 2.61-48.883-1.238-6.821-1.608-13.353.473-13.858 9.795-.353 6.515-5.435 9.288-10.774 10.81-13.922 3.967-22.777 12.645-27.248 26.359-1.624 4.982-3.936 9.977-8.322 13.564-10.076-14.406-10.01-14.28-26.886-5.345-10.372 5.492-19.93 12.046-29.027 19.434-9.05 7.349-17.787 15.092-27.848 21.2-27.163 16.495-57.231 26.279-86.636 37.564-16.033 6.153-20.466 6.843-33.742 25.318-5.271 7.334-.248 12.889 8.85 16.248 19.022 7.023 35.488 11.83 55.13 16.37 12.057 2.787 20.325-2.68 25.088-14.667 4.105-10.33 15.188-12.62 23.236-4.737 3.157 3.092 5.326 6.974 5.62 11.3.815 11.967 8.506 12.538 17.382 10.523 4.876-1.106 9.479-3.394 14.222-5.104 24.362-8.781 48.749-17.194 55.416-47.117 1.267-5.69 7.553-8.54 14.225-7.857 7.7.787 15.406 1.71 23.132 2.01 7.004.273 12.92-2.85 12.796-10.333-.222-13.255 7.227-14.35 17.533-13.236 5.039.544 9.953 1.23 14.918 2.339 25.309 5.655 48.96 5.758 64.662-20.046 2.066-3.396 5.546-7.46 10.612-4.55 4.269 2.45 6.802 6.5 6.21 11.7-.474 4.193-2.642 8.46-.438 12.539 5.148 9.525-.445 12.465-8.337 14.256-5.428 1.232-9.876 3.017-12.551 8.974-13.007 28.954-23.198 30.789-46.827 9.07-12.671-11.646-20.206-12.122-33.97-1.79-3.41 2.559-6.34 5.75-9.496 8.644-15.534 14.243-31.325 28.51-51.631 35.39-23.815 8.068-45.751 19.267-66.68 33.05-9.53 6.276-20.351 10.796-33.495 12.219 2.176-5.227 3.726-9.071 5.37-12.873 3.639-8.413.705-11.965-8.163-10.69-6.15.884-12.35 1.808-18.326 3.44-26.225 7.16-50.764 4.454-73.843-10.68-10.036-6.581-20.658-12.307-31.964-16.728-8.818-3.447-16.184-2.416-21.607 5.456-5.97 8.666-6.461 17.437 1.685 25.307 7.325 7.078 16.167 11.896 24.88 17.08 10.316 6.14 22.014 11.182 28.036 23.029-5.07 3.124-9.027.83-12.945-.484-10.722-3.597-20.801-8.625-30.67-14.09-10.692-5.921-14.41-3.646-15.227 8.669-1.108 16.694 8.26 26.632 21.485 34.242 9.253 5.325 19.684 8.855 28.766 18.769m-443.376-716.92c9.777-2.573 17.759-5.07 21.875-15.916 3.337-8.794 12.66-11.273 20.853-15.788 14.418-7.943 32.813-9.841 43.303-24.773 1.904-2.711 5.577-6.467 7.985-6.166 13.237 1.649 23.009-7.422 34.353-9.925 20.365-4.495 40.143 2.185 56.778 14.719 6.12 4.613 11.21 5.559 17.964 3.794 66.384-17.348 132.812-34.533 199.17-51.982 12.107-3.184 12.302-4.917 6.798-16.034-4.634-9.361-8.81-18.973-12.702-28.67-9.937-24.755-5.328-37.96 16.783-53.76 25.256-18.048 54.426-26.402 83.779-33.59 62.14-15.218 124.565-29.295 186.94-43.548 8.647-1.975 17.45-4.067 26.51-3.493 2.616.165 5.822-.985 7.468 1.916 2.03 3.578-1.427 5.57-3.028 8.022-3.935 6.025-9.852 9.946-15.624 13.855-17.73 12.005-35.704 23.649-53.442 35.64-12.33 8.335-25.018 10.316-38.393 2.943-16.828-9.277-34.161-9.176-52.085-3.712-28.702 8.747-57.525 17.099-86.23 25.842-6.684 2.036-13.188 4.618-19.193 8.485-13.83 8.907-18.882 20.679-15.481 36.826 2.299 10.92 8.747 19.776 14.066 29.225 3.588 6.374 9.308 5.074 14.447 3.86 13.966-3.295 27.689-7.663 41.716-10.636 8.668-1.838 7.172-5.084 2.853-9.831-8.11-8.915-16.468-17.615-24.303-26.762-3.88-4.53-10.305-9.363-6.925-15.948 3.032-5.906 10.413-6.011 16.739-6.315 21.505-1.035 42.984.243 64.262 2.756 45.4 5.362 90.935 6.454 136.57 7.145 15.008.227 30.323.253 45.21 3.808 3.105.742 6.596.86 7.547 4.31 1.098 3.984-2.028 6.41-4.754 8.629-13.492 10.98-29.56 17.334-45.228 24.175-45.343 19.799-90.724 39.435-131.602 67.824-3.126 2.17-6.637 3.922-10.18 5.348-14.512 5.84-21.788 1.853-24.822-13.361-6.28-31.491-6.28-31.491-37.691-22.28-25.358 7.436-25.41 7.482-7.206 27.855 6.976 7.807 13.664 16.01 21.5 22.884 22.713 19.919 49.342 21.892 77.753 16.017 29.46-6.092 56.073-20.541 85.066-27.906 12.018-3.052 24.069-6.041 35.918-9.667 10.629-3.252 11.292-6.263 4.286-14.111-1.713-1.92-5.098-3.227-4.087-6.384 1.073-3.355 4.594-2.366 7.092-2.337 31.217.359 62.434.77 93.646 1.42 4.49.094 11.453.112 12.525 3.773 1.648 5.63-5.56 7.447-9.44 10.028-8.516 5.663-18.822 7.129-28.267 10.655-54.743 20.43-110.704 36.898-167.298 51.327-16.653 4.246-33.594 6.93-50.581 9.399-2.177.316-5.025-.15-5.851 2.756-1.033 3.635 2.033 4.3 4.36 5.709 22.282 13.477 47.233 19.26 72.236 24.708 13.73 2.992 24.562 9.218 30.773 22.297 2.244 4.726 5.692 7.805 11.41 8.875 5.616 1.052 11.189 3.028 14.697 8.529 2.81 4.406 7.386 5.273 12.399 4.363 3.032-.551 6.209-1.605 9.142-1.187 18.097 2.576 51.005 38.459 51.085 57.166.088 20.558-.203 41.333-3.078 61.627-2.6 18.354-5.475 37.112-22.007 47.853-8.851 5.75-15.922 12.57-18.922 23.865-1.722 6.48-8.183 11.97-13.187 17.272-10.544 11.167-18.783 24.236-24.483 37.91-7.642 18.333-17.026 37.909-6.355 57.873 7.562 14.146 16.52 18.2 32.398 17.949 19.912-.317 39.518.99 58.862 6.689 19.69 5.802 37.366 15.106 48.909 31.796 13.707 19.819 32.289 25.63 54.862 27.064 41.789 2.65 76.673 18.586 98.718 56.263 1.175 2.008 2.43 3.997 3.876 5.814 6.577 8.26 11.04 8.264 15.35-.96 6.255-13.377 14.125-25.818 21.102-38.767 9.859-18.3 6.54-32.864-9.495-46.292-7.603-6.367-16.321-10.54-25.566-13.61-14.835-4.923-19.078-12.453-12.738-27.038 4.257-9.79 7.755-19.08 6.148-30.072-.766-5.238.902-12.347 5.899-14.202 10.366-3.85 16.41-13.438 26.208-17.527 6.165-2.574 8.262-7.403 9.78-13.325 6.175-24.101 19.642-29.885 41.548-17.81 34.858 19.215 53.172 50.85 66.152 86.836 6.879 19.069 9.24 37.545.58 56.597-3.943 8.677-3.994 18.047-3.583 27.477.977 22.47 1.898 44.95 2.31 67.436.51 27.795-7.323 52.555-26.717 73.487-17.678 19.08-32.261 40.942-52.134 58.086-13.59 11.723-29.278 17.428-47.343 16.207-.39-.026-.786-.078-1.17-.031-61.866 7.535-109.257-27.523-158.913-54.748-19.538-10.712-38.307-18.396-60.848-14.65-10.266 1.706-20.232-.21-28.632-7.081-3.627-2.966-7.85-4.682-11.802-1.814-26.745 19.404-58.194 32.009-82.09 55.38-12.96 12.677-21.968 29.108-37.894 39.165-4.823 3.046-4.451 9.079-1.803 13.837 6.409 11.518 13.305 22.766 19.88 34.193 4.227 7.347 11.085 11.839 18.869 12.213 15.572.747 22.879 10.154 27.396 22.974 2.495 7.082 5.075 13.897 14.076 12.436 8.362-1.358 14.477-6.686 14.99-15.527.745-12.862 5.842-19.874 19.793-19.496 7.018.19 10.876-5.76 13.45-11.4 4.875-10.675 9.669-8.31 15.964-1.206 10.02 11.307 16.427 24.447 21.152 38.53 6.629 19.758 9.904 41.02 25.56 56.692 5.353 5.357 10.627 14.103 19.046 10.24 7.714-3.537 5.297-13.328 4.28-20.147-2.501-16.767-5.927-33.437-9.843-49.942-3.58-15.085-2.023-28.37 9.67-39.526 5.366-5.12 7.895-11.538 7.457-18.908-.38-6.397.972-12.396 3.879-17.958 4.006-7.666 9.253-13.84 19.206-9.921 9.202 3.622 15.3 9.637 12.026 20.479-5.715 18.93-4.477 39.227-12.434 57.828-4.664 10.904-1.662 21.336 7.94 29.205 8.514 6.978 12.276 16.005 10.76 26.836-5.66 40.488 34.77 65.852 73.31 61.914 10.049-1.026 15.856-7.99 16.42-18.128.32-5.757-.752-11.584-1.091-17.386-.798-13.66 11.056-21.38 23.492-15.34 18.188 8.838 25.38 25.124 16.763 43.399-7.423 15.743-6.87 28.737 3.149 43.366 9.368 13.679 15.877 29.295 19.174 45.946 2.058 10.389 1.357 20.35-4.307 29.237-8.637 13.55-6.55 25.329 3.51 37.157 15.999 18.808 18.444 41.388 16.636 64.849-.996 12.935-9.171 21.844-17.93 30.29-12.406 11.965-12.334 13.902 1.176 23.529 15.837 11.286 17.307 13.755 12.198 32.015-4.492 16.055-3.953 32.284-4.456 48.578-.391 12.662-4.744 15.154-16.35 10.209-12.013-5.12-18.874-14.441-21.811-26.873-3.434-14.538-13.212-22.37-27.34-25.17-9.947-1.972-13.973 1.499-11.817 10.948 5.708 25.017 11.54 50.05 29.65 69.97 10.868 11.953 14.513 26.31 12.469 42.174-1.838 14.259-3.723 28.499-8.651 42.148-14.44 39.995-57.322 52.916-92.097 28.133-13.845-9.867-24.42-22.617-34.58-35.77-10.097-13.071-22.415-23.691-35.013-34.111-6.252-5.172-14.032-7.04-21.623-8.062-6.05-.815-9.623-4.061-11.4-8.605-14.368-36.735-39.824-66.242-64.037-96.292-24.032-29.825-36.707-64.232-46.626-100.236-2.164-7.856-4.86-15.483-9.644-22.25-7.02-9.925-10.48-9.978-15.963 1.255-7.186 14.722-7.236 29.81-.228 44.867 11.81 25.37 24.057 50.488 40.443 73.349.678.945 1.33 1.935 1.813 2.987 1.805 3.929 7.709 8.122 2.63 12.089-4.318 3.372-7.26-2.662-10.242-5.284-10.22-8.99-18.457-20.132-29.89-27.782-4.153-2.78-8.537-8.955-14.064-3.092-5.497 5.832-7.05 13.312-2.12 20.325 3.086 4.389 7.234 8.18 11.412 11.634 11.342 9.375 18.705 21.688 25.626 34.217 9.1 16.477 4.794 27.128-12.732 33.34-12.278 4.352-12.775 5.63-5.337 15.552 3.527 4.705 1.826 8.654-1.095 12.692-10.5 14.512-24.824 15.578-40.72 11.657 17.168-18.366 14.429-27.633-10.46-34.005-12.632-3.234-24.091-7.943-33.326-17.571-3.44-3.586-8.222-5.693-13.202-7.182-6.153-1.842-11.753-1.434-16.182 3.349-4.2 4.535-3.512 10.069-1.648 15.415 3.614 10.368 8.882 19.91 15.763 28.438 8.827 10.94 6.986 22.226 2.282 34.02-2.033 5.098-4.084 6.106-8.162 1.97-2.44-2.474-5.164-4.822-8.144-6.58-5.131-3.027-10.535-3.1-15.252.923-4.406 3.755-2.806 8.512-1.266 12.956 1.4 4.035 3.125 7.962 4.79 11.903 7.449 17.632 3.243 31.373-13.155 41.913-31.9 20.503-67.313 30.636-104.772 33.474-71.203 5.395-139.87-5.178-205-35.106-22.103-10.157-39.507-27.356-59.105-41.271-12.322-8.75-23.298-19.47-37.458-25.511-3.83-1.635-8.096-5.235-11.966-2.128-4.474 3.59-1.015 8.754-.067 13.026 1.51 6.81 3.875 13.43 5.718 20.174.482 1.767 1.54 3.89-.212 5.485-2.398 2.18-4.298.125-6.088-1.207-3.427-2.548-7.033-4.947-10.077-7.905-22.576-21.944-44.961-44.083-67.55-66.014-18.064-17.537-24.627-39.877-26.961-63.862-1.986-20.416-3.193-40.907-4.936-61.348-2.095-24.555-14.463-44.005-31.798-60.48-21.682-20.607-44.024-40.523-65.845-60.986-6.641-6.23-13.706-12.39-17.29-22.418 6.618-.426 12.086-.323 17.803 1.349 11.932 3.489 24.042 6.389 36.129 9.326 4.14 1.005 8.969 2.212 11.58-2.47 2.089-3.741.248-7.477-2.428-10.597-5.302-6.183-10.502-12.458-15.935-18.525-13.461-15.032-27.317-29.723-40.496-44.995-29.197-33.834-67.552-51.57-109.71-62.664-15.446-4.064-30.865-8.11-45.296-15.083-12.842-6.206-23.471-15.192-31.764-26.741-6.788-9.453-5.683-13.527 5.517-16.59 24.617-6.732 47.563-2.077 69.176 11.156 14.892 9.118 28 20.91 44.272 28.007 16.992 7.41 34.18 10.1 52.242 5.34 13.852-3.651 16.385-11.738 7.235-22.76-9.944-11.977-24.23-17.995-36.76-26.415-3.86-2.594-8.263-4.407-12.032-7.112-9.064-6.507-8.817-14.378.923-20.026 7.485-4.34 15.123-6.35 24.47-3.671 25.204 7.219 47.712 20.557 71.936 29.908 6.109 2.358 14.26 7 18.322 1.793 4.209-5.397-3.841-10.717-7.544-15.333-13.701-17.082-31.44-29.9-47.855-44.1-21.176-18.317-23.95-42.427-21.65-68.011.739-8.231 4.804-7.424 9.752-2.475 8.786 8.786 17.71 17.438 26.716 26.002 5.49 5.22 12.094 8.529 19.633 9.616 13.51 1.946 19.183-4.302 16.157-17.486-3.21-13.984-10.531-26.526-13.823-40.571-2.203-9.397-2.711-18.69-.474-27.616 2.675-10.67-.616-18.204-8.541-24.625-4.52-3.661-9.296-7.013-13.754-10.745-9.561-8.004-12.385-21.571-7.06-32.692 3.882-8.107 10.158-11.861 18.909-9.044 16.143 5.197 30.503 13.728 42.26 25.929 6.213 6.446 6.393 14.66 3.28 22.919-1.086 2.883-2.958 6.353-.54 8.769 3.105 3.1 6.385-.253 9.558-1.29 13.03-4.26 21.303-13.533 27.755-25.127 6.41-11.521 13.427-22.706 20.13-34.065 9.605-16.274 12.97-33.682 10.876-52.531-1.325-11.928-1.42-24.041-1.304-36.063.08-8.347 4.89-13.277 13.639-11.85 21.797 3.562 41.233 11.504 53.067 31.65 4.723 8.039 8.545 16.602 13.262 24.644 4.74 8.084 11.325 8.839 18.605 3.148 3.975-3.108 7.967-6.254 11.543-9.793 5.913-5.853 12.569-7.502 20.254-4.403 3.77 1.52 8.242 2.767 11.099.32 3.608-3.087 1.678-7.987.26-11.943-5.34-14.897-10.77-29.764-16.367-44.567-8.662-22.908-11.216-46.215-8.315-70.722 2.187-18.48-3.611-25.67-21.84-27.39-18.572-1.751-31.837-10.645-43.862-23.58-12.673-13.63-25.893-26.761-39.033-39.954-9.884-9.924-21.607-16.536-35.782-18.076-18.048-1.962-32.921-11.14-47.458-20.861-19.351-12.94-39.093-25.33-57.035-40.286-15.707-13.093-29.258-27.648-36.253-47.37-1.615-4.554-2.678-9.14-1.73-13.68 8.236-39.434 20.078-76.686 59.097-97.821 9.2-4.984 17.69-11.29 26.389-17.161 2.306-1.556 6.926-2.52 4.699-6.52-1.522-2.734-4.978-.74-7.546-.095-32.904 8.249-65.021 19.13-97.441 28.994C549.552 474.61 231.659 561.71 184.4 578.616c-1.406.503-5.941 2.159-7.427 2.506-6.851 1.6-11.411 1.602-15.164-6.431-6.16-13.184 4.735-16.003 12.74-19.26Z"/></g></svg>