<svg xmlns="http://www.w3.org/2000/svg" xmlns:xlink="http://www.w3.org/1999/xlink" xmlns:inkscape="http://www.inkscape.org/namespaces/inkscape" version="1.1" width="2048" height="1920" viewBox="0 0 2048 1920">
<defs>
<clipPath id="clip_1">
<path transform="matrix(1,0,0,-1,0,1920)" d="M0 1920H2048V0H0Z"/>
</clipPath>
</defs>
<g inkscape:groupmode="layer" inkscape:label="Layer 1">
<g clip-path="url(#clip_1)">
<path transform="matrix(1,0,0,-1,1552.1309,1021.5269)" d="M0 0C-.326-1.232-.125-3.234-.839-3.632-10.544-9.137-12.974-22.818-25.096-25.795-29.868-26.963-32.973-26.758-34.877-21.83-35.453-20.354-35.916-18.724-36.855-17.518-39.636-13.924-38.258-5.826-43.393-6.404-47.237-6.84-46.436-14.553-48.001-18.917-49.504-23.062-50.13-27.579-51.858-31.609-53.436-35.254-55.102-39.104-60.9-36.319-65.333-34.175-68.051-38.731-70.893-41.632-72.321-43.095-73.223-46.034-75.94-44.879-77.981-44.031-77.268-41.568-77.531-39.771-78.883-30.723-82.427-22.702-88.15-15.67-89.703-13.757-90.843-10.703-93.848-11.833-96.666-12.898-96.34-16.157-96.328-18.583-96.278-25.924-95.576-33.328-99.496-40.027-100.861-42.363-101.487-45.957-105.094-45.507-108.625-45.071-107.461-41.465-108.049-39.258-110.141-31.378-110.629-22.985-116.39-13.963-118.569-27.091-120.372-38.077-122.238-49.049-122.664-51.552-123.277-54.016-123.916-56.467-124.405-58.328-125.081-60.51-127.097-60.843-130.265-61.357-130.178-58.123-130.854-56.3-137.667-37.782-144.153-19.109-152.557-1.258-166.42 28.208-181.547 56.814-207.996 76.937-208.973 77.694-209.8 78.887-210.889 79.208-213.719 80.042-216.612 84.495-219.129 81.569-221.834 78.425-217.075 76.462-215.535 74.075-195.774 43.467-175.95 12.885-167.058-23.383-164.253-34.856-163.139-46.47-165.067-59.752-172.18-53.246-174.184-45.11-177.678-38.115-194.434-4.633-215.172 25.269-247.144 45.392-250.988 47.817-254.995 49.973-259.203 52.412-260.681 48.228-259.617 45.52-257.412 43.762-249.874 37.73-244.827 29.581-239.454 21.766-236.248 17.107-229.323 13.629-234.683 5.531-236.173 3.285-231.44-.09-229.611-2.977-218.929-19.776-206.781-35.703-202.223-55.902-199.956-65.925-200.457-75.692-202.824-85.817-207.896-73.459-212.667-61.28-217.626-49.178-237.851 .205-267.406 43.492-300.204 84.714-304.337 89.911-308.194 95.34-312.088 100.73-313.316 102.437-315.971 103.784-315.056 106.261-314.067 108.956-311.237 107.762-309.221 107.852-281.582 109.046-254.47 105.824-228.071 97.162-206.193 89.975-184.503 82.134-162.437 75.589-154.197 73.138-144.855 71.662-136.514 73.009-109.377 77.347-84.606 70.687-60.437 59.136-58.007 57.969-55.628 55.992-51.495 57.186-58.22 65.553-66.535 71.251-75.94 78.81-65.734 79.272-57.281 79.901-48.815 79.978-38.659 80.055-29.141 82.686-20.237 87.37-14.326 90.476-9.755 89.462-4.896 85.265 1.841 79.439 7.652 72.855 12.786 65.528 15.616 61.472 18.897 58.161 12.598 53.888 8.741 51.282 13.375 47.599 13.237 44.25 13.124 41.478 14.489 38.68 14.702 35.857 14.852 33.803 15.516 31.07 12.874 29.979 10.858 29.158 9.442 31.083 7.952 32.058 1.691 36.177-4.471 40.451-10.745 44.571-12.198 45.52-13.951 47.368-15.691 45.482-17.557 43.467-15.241 42.158-14.276 40.708-9.543 33.649-3.469 27.489-1.077 18.891 .664 12.641 1.716 6.43 0 0M-172.881-174.804C-178.98-176.28-184.503-179.052-189.349-183.287-192.455-186.008-194.597-188.972-193.206-193.207-191.841-197.353-188.11-197.096-184.678-197.52-180.633-198.02-175.925-195.594-172.017-200.728-184.566-205.707-196.801-209.852-210.075-208.492-212.718-208.223-217.476-209.031-215.134-202.537-207.52-181.516-163.477-159.353-141.549-167.759-152.005-170.094-162.475-172.302-172.881-174.804M-227.044-238.125C-232.316-239.883-237.739-241.204-243.036-242.899-248.308-244.593-253.505-246.543-259.617-248.686-252.879-237.136-239.003-229.821-227.62-231.528-225.879-231.785-223.475-231.425-223.024-233.812-222.485-236.726-225.128-237.496-227.044-238.125M-249.598-48.395C-238.778-51.86-231.69-62.242-231.214-75.692-240.444-67.696-244.551-58.521-249.598-48.395M-267.281-110.996C-272.991-106.325-277.437-100.139-280.806-93.273-241.333-120.891-213.594-158.673-229.185-190.833-231.076-191.141-231.227-189.563-231.126-188.498-227.833-155.118-242.911-130.901-267.281-110.996M-234.257-500.504C-231.928-499.169-228.822-495.371-226.167-499.169-224.439-501.633-227.595-504.303-228.472-506.908-230.087-511.682-238.878-512.632-235.81-518.599-233.969-522.205-228.108-523.489-224.326-526.235-219.004-530.085-213.907-534.282-208.785-538.414-207.583-539.377-206.068-540.698-206.869-542.392-207.959-544.677-210.075-543.779-211.728-543.098-217.501-540.737-223.224-538.234-228.948-535.745-236.687-532.395-244.338-528.815-252.165-525.696-259.604-522.745-265.603-518.035-271.213-512.285-283.761-499.413-296.535-486.76-309.559-474.414-313.992-470.23-321.168-463.826-325.425-468.177-330.147-473.015-322.007-478.559-318.6-482.858-309.847-493.882-297.286-501.813-293.166-516.572-292.79-517.906-291.312-519.498-290.035-519.896-272.29-525.362-262.096-540.775-249.235-552.544-241.596-559.525-239.93-569.676-238.114-579.609-242.322-580.367-243.875-578.018-245.753-576.478-257.225-567.122-268.783-557.96-281.782-550.824-294.806-543.689-303.209-531.625-312.401-520.319-324.273-505.727-340.654-495.063-347.491-476.031-349.745-469.781-354.053-471.154-356.633-476.762-360.202-484.526-359.351-491.854-353.302-497.873-347.717-503.43-341.705-508.551-335.795-513.748-331.437-517.573-328.418-521.641-331.662-527.788-336.058-536.104-331.637-541.276-325.112-544.921-319.665-547.962-313.729-550.105-307.956-552.493-300.843-555.431-294.706-559.679-290.561-566.391-286.303-573.283-288.983-579.263-293.742-584.538-296.472-587.579-299.014-586.116-301.857-583.896-319.477-570.151-337.26-556.612-354.955-542.97-363.571-536.322-372.262-531.189-384.009-532.447-395.38-533.666-397.484-530.868-398.335-519.1-398.435-517.817-398.21-516.482-398.51-515.263-399.45-511.464-398.936-505.432-404.371-506.074-409.568-506.69-411.497-511.849-410.958-517.201-410.257-524.272-407.727-530.881-404.859-537.208-396.707-555.123-397.145-575.22-390.759-593.611-388.605-599.822-393.338-601.965-398.874-601.965-405.235-601.965-412.085-599.912-417.558-607.651-424.859-590.313-426.249-573.385-427.063-556.509-427.602-545.511-430.958-535.976-436.856-527.082-439.924-522.462-444.019-519.908-449.479-520.781-455.253-521.705-456.267-526.71-457.194-531.471-457.619-533.64-457.907-535.937-457.732-538.132-456.054-558.319-468.878-568.547-483.204-578.146-483.592-577.133-484.168-576.298-483.981-576.029-475.928-564.928-477.957-554.084-482.616-541.892-489.491-523.925-489.253-504.559-485.07-486.131-478.783-458.475-470.856-431.191-462.992-403.945-457.519-384.965-446.975-376.687-427.464-375.699-411.572-374.89-395.567-374.608-379.888-378.137-368.981-380.589-361.304-388.237-354.254-396.502-352.225-398.863-352.551-401.661-355.519-402.765-362.118-405.229-359.701-409.926-357.948-413.699-352.438-425.647-344.811-436.221-335.231-445-315.194-463.326-294.143-480.356-272.49-496.654-260.142-505.958-247.983-508.384-234.257-500.504M-184.378-615.132C-181.61-614.824-178.792-614.709-176.087-614.08-169.062-612.463-165.543-609.229-171.654-601.76-166.056-604.519-157.716-605.918-158.78-612.373-159.645-617.545-167.76-617.327-173.207-618.277-189.713-621.151-206.256-621.254-222.924-619.265-210.075-617.892-197.226-616.518-184.378-615.132M-159.369-518.651C-154.41-514.775-149.05-514.775-144.153-519.51-138.28-525.196-132.507-530.958-128.149-538.029-127.16-539.633-125.795-540.968-125.932-543.098-126.158-546.602-128.725-548.45-131.33-548.861-137.692-549.874-144.366-551.26-150.165-546.743-153.057-544.484-151.53-541.776-150.666-538.979-149.851-536.322-146.145-532.883-150.365-530.778-153.734-529.11-155.562-533.332-157.779-535.347-159.144-536.604-160.358-538.145-161.298-539.775-165.092-546.397-168.411-547.847-172.919-540.031-175.599-535.398-181.397-534.474-186.294-531.356-175.599-530.252-167.371-524.888-159.369-518.651M-162.562-572.59C-159.807-577.107-161.423-582.741-165.53-585.295-170.389-588.311-172.255-582.484-174.635-579.545-184.666-567.11-184.227-565.172-169.425-558.935-164.416-556.817-159.269-554.186-152.945-555.855-154.21-560.218-157.265-560.847-159.419-562.515-162.75-565.108-165.844-567.225-162.562-572.59M-93.297-588.169C-89.728-582.574-91.819-577.197-95.313-572.217-95.977-571.281-96.303-570.1-97.931-566.494-91.256-571.345-86.823-574.245-82.753-577.607-76.792-582.51-76.679-588.003-83.254-591.185-97.856-598.256-112.62-605.174-127.798-610.743-138.643-614.722-147.773-608.985-155.387-601.016-158.255-598.013-159.407-594.637-157.215-590.608-154.948-586.411-151.492-583.934-146.971-583.049-146.207-582.895-144.83-583.216-144.554-583.767-137.065-598.295-121.837-592.263-110.617-596.806-103.917-599.514-97.305-594.445-93.297-588.169M-408.692-710.446C-412.11-716.08-423.757-717.71-430.745-712.872-435.604-709.484-439.611-704.838-444.27-701.104-457.306-690.631-470.906-681.481-488.552-688.681-494.037-690.927-499.184-693.904-499.196-701.656-499.209-707.649-504.907-708.059-508.814-708.868-529.552-713.193-549.138-709.368-567.159-698.267-578.881-691.042-590.828-683.881-595.662-669.187-599.669-657.021-596.726-643.867-587.371-636.167-584.967-634.19-582.362-631.79-578.968-633.625-575.863-635.294-572.957-637.719-573.258-641.711-573.608-646.523-578.054-646.048-581.135-646.934-594.359-650.745-597.665-660.653-589.625-671.972-587.547-674.872-584.842-675.976-581.811-676.656-578.768-677.349-575.612-677.529-572.557-678.17-555.049-681.828-555.049-681.854-548.85-666.364-545.895-670.688-547.335-675.809-545.982-680.288-544.592-684.882-543.328-690.17-537.028-689.361-531.218-688.617-527.348-685.139-526.597-678.825-526.459-677.58-526.522-676.258-526.734-675-528.15-666.633-531.042-657.226-516.553-660.717-515.827-660.884-514.575-660.255-514.074-659.6-504.631-647.306-494.938-655.532-485.759-659.639-478.383-662.95-471.808-668.186-463.317-668.468-461.138-668.532-458.771-669.033-456.818-668.353-451.784-666.607-445.748-664.516-445.585-658.317-445.422-652.17-451.496-650.104-456.279-649.68-467.776-648.666-476.467-644.29-480.599-632.612-481.689-629.519-485.483-626.31-481.726-623.243-478.683-620.766-476.016-623.885-473.586-625.861-472.647-626.618-471.608-627.504-469.792-626.182-470.155-622.717-473.336-620.754-475.001-617.969-480.311-609.088-479.497-606.2-469.917-602.235-468.189-601.503-466.386-600.99-464.607-600.374-451.02-595.715-450.456-594.406-456.392-580.7-457.006-579.263-458.408-577.903-457.144-576.414-455.49-574.489-453.7-575.862-452.134-576.838-449.479-578.506-446.962-580.392-444.282-581.997-426.224-592.764-424.896-597.166-426.938-618.546-427.927-628.941-430.62-637.655-436.856-645.676-440.676-650.578-438.847-652.85-432.911-653.325-428.678-653.671-422.279-650.386-420.714-656.623-419.173-662.732-425.197-665.901-429.292-669.187-438.159-676.309-438.133-678.581-428.478-684.818-424.784-687.205-420.927-689.31-417.157-691.555-407.264-697.42-404.521-703.581-408.692-710.446M-617.69-606.406C-623.037-616.044-624.803-616.082-631.428-606.868-632.354-605.584-633.582-604.417-634.133-602.992-635.235-600.117-639.079-597.871-637.426-594.496-635.761-591.108-632.417-594.65-629.8-593.855-627.783-593.251-625.341-594.098-623.576-592.417-618.629-587.695-614.484-585.32-609.562-593.187-606.895-597.435-603.939-593.675-603.263-590.39-601.56-582.112-595.612-580.405-588.786-579.327-576.576-577.376-564.417-575.041-552.194-573.141-547.31-572.384-547.222-569.06-547.473-565.416-547.886-559.204-545.644-556.663-539.208-557.6-530.617-558.858-521.838-557.344-513.172-559.577-508.037-560.898-504.656-556.484-501.676-552.749-497.455-547.475-495.752-550.324-494.425-554.892-492.859-560.282-494.763-564.877-497.368-569.42-504.832-582.51-502.803-588.118-488.764-590.261-484.607-590.89-475.665-598.796-475.728-585.012-475.74-583.19-470.744-583.062-468.114-584.396-465.246-585.834-465.309-588.4-466.799-590.89-469.767-595.818-474.538-598.102-479.723-599.578-486.498-601.49-490.555-605.238-489.954-613.156-489.34-621.087-493.586-620.073-497.881-616.891-503.993-612.373-510.58-608.87-517.542-606.111-525.482-602.966-529.74-596.639-532.758-589.004-534.01-585.834-534.975-580.88-538.707-581.573-542.401-582.266-540.109-587.014-540.347-589.953-540.76-594.971-539.796-602.222-545.619-602.633-551.38-603.03-551.906-596.011-552.394-590.826-552.72-587.412-552.407-583.498-556.802-582.33-559.032-581.727-561.085-582.253-562.813-583.999-565.093-586.283-564.842-589.209-564.955-592.071-565.068-595.125-563.565-599.296-567.322-600.528-570.766-601.645-572.945-598.218-574.172-595.356-576.539-589.812-578.856-590.698-580.646-595.33-586.169-609.601-600.308-608.189-610.977-612.848-615.348-614.76-615.16-608.356-617.69-606.406M-642.949-399.928C-642.974-403.278-646.518-403.098-648.697-403.073-657.263-402.983-664.802-408.386-673.468-407.552-676.398-407.128-680.957-408.257-681.633-404.754-682.535-400.134-677.362-400.326-674.557-399.12-666.179-395.514-657.626-392.434-648.296-395.334-645.829-396.104-642.924-397.195-642.949-399.928M-658.778-518.895C-661.721-504.932-661.308-490.289-667.92-477.07-673.681-465.584-678.502-464.096-688.996-471.937-695.108-476.506-700.455-482.576-710.286-483.282-705.201-475.659-697.7-473.567-692.277-468.818-682.397-460.156-680.668-452.34-687.256-441.201-691.438-434.13-697.237-430.69-705.377-433.064-713.742-435.503-722.133-437.916-730.36-440.803-736.434-442.933-742.67-442.394-748.832-442.985-751.299-443.216-754.066-442.6-755.219-439.956-756.383-437.287-754.855-435.143-753.127-433.09-745.989-424.582-736.985-419.294-726.466-416.548-720.53-414.995-714.581-413.506-706.892-411.53-717.574-406.602-726.566-409.746-734.643-412.364-776.47-425.942-818.122-440.071-859.611-454.676-871.02-458.693-881.502-465.392-892.672-470.204-898.107-472.54-905.997-476.852-909.128-469.191-911.895-462.427-904.469-458.398-898.896-455.459-896.442-454.15-893.674-453.239-890.932-452.725-864.433-447.733-839.962-436.17-814.478-427.905-761.956-410.875-709.459-393.743-656.987-376.546-642.961-371.952-628.923-367.87-613.945-369.616-612.443-369.796-610.777-369.577-609.162-372.093-617.402-378.137-627.408-379.215-636.65-381.744-649.599-385.273-662.61-388.584-674.958-393.948-691.877-401.302-694.82-410.606-684.325-425.826-672.228-443.37-665.541-463.043-660.318-483.5-657.814-493.369-654.27-502.917-649.536-511.913-643.012-524.272-636.036-526.954-623.238-521.025-612.693-516.148-601.998-514.352-590.502-514.955-572.093-515.93-566.758-508.551-571.843-490.058-575.888-475.338-583.74-462.825-592.806-450.813-599.606-441.817-606.807-432.692-606.018-420.038-605.329-408.758-601.247-398.953-593.833-390.804-589.926-386.518-585.505-380.896-578.768-386.068-572.456-390.919-567.973-397.105-571.329-405.793-573.145-410.503-575.449-415.123-578.167-419.346-585.919-431.409-584.954-443.267-578.555-455.497-572.394-467.278-564.642-478.148-559.833-490.738-558.318-494.678-557.291-498.643-556.59-502.686-554.649-513.825-559.758-519.818-570.941-519.459-589.4-518.843-607.759-518.907-625.379-525.748-629.75-527.442-633.932-529.675-638.34-531.202-649.636-535.116-656.248-530.932-658.778-518.895M-657.391-624.91C-664.091-626.45-670.878-627.156-677.741-627.143-678.054-627.143-678.367-627.182-678.68-627.143-683.301-626.527-691.491-629.697-691.805-625.077-692.23-618.686-683.589-618.558-678.555-617.672-671.605-616.466-664.304-616.35-657.241-617.929-655.199-618.391-652.607-619.405-652.532-621.933-652.444-625.064-655.4-624.461-657.391-624.91M-704.693-616.122C-712.983-617.521-717.141-613.902-718.857-603.854-719.896-597.822-720.86-591.623-718.731-585.835-716.239-579.059-719.696-578.353-724.442-579.277-731.768-580.702-738.944-582.858-746.232-584.449-753.846-586.13-761.435-587.773-769.2-588.8-782.261-590.519-787.508-597.899-786.206-610.283-785.793-614.184-783.213-618.381-786.882-622-787.27-622.385-788.911-622.167-789.312-621.666-792.255-618.047-790.627-613.748-790.814-610.63-790.101-597.257-793.069-592.175-804.74-586.58-810.075-584.026-815.66-581.972-821.083-579.598-827.269-576.878-825.804-573.746-821.233-570.936-814.433-566.752-804.415-567.894-800.119-574.221-795.987-580.304-790.314-581.279-784.052-582.268-767.033-584.963-751.592-578.122-735.663-574.234-735.375-574.157-735.037-574.016-734.849-573.797-731.768-570.397-730.553-564.622-723.39-569.511-711.142-577.879-695.263-582.037-692.02-599.811-690.617-607.498-696.778-614.775-704.693-616.122M-771.874-627.093C-775.781-627.093-780.966-627.247-781.743-622.666-782.268-619.586-777.535-620.407-774.968-619.945-771.424-620.561-766.627-619.945-766.151-624.783-765.776-628.531-769.745-627.106-771.874-627.093M-797.607-622.842C-797.545-628.566-800.099-630.221-805.334-628.386-814.539-625.139-822.641-619.788-831.044-614.975-832.647-614.064-833.799-612.794-833.085-611.292-830.017-604.85-832.81-598.626-833.849-592.53-834.951-586.074-831.933-586.857-828.226-588.128-823.806-589.629-819.585-591.901-815.09-593.043-797.971-597.432-797.733-597.586-797.607-616.117-797.607-618.363-797.632-620.596-797.607-622.842M-785.929-565.19C-776.937-562.598-767.921-560.082-758.804-558.029-755.961-557.387-751.54-557.426-751.34-561.571-751.152-565.485-755.435-564.459-757.915-564.805-762.711-565.46-766.906-567.487-770.801-570.169-773.193-571.825-775.409-573.455-779.968-572.852-781.195-572.364-783.913-571.568-786.367-570.234-789.673-568.437-789.586-566.242-785.929-565.19M-754.981-458.282C-757.535-462.094-758.738-466.97-762.833-469.909-766.039-466.791-768.643-463.531-766.74-459.001-765.262-455.433-761.605-454.471-758.262-453.854-754.893-453.239-753.09-455.459-754.981-458.282M-774.179-448.208C-783.458-451.904-792.638-455.908-802.017-459.322-824.897-467.676-848.09-475.171-870.469-484.963-875.966-487.376-881.877-488.184-887.876-488.081-891.708-487.273-898.107-489.775-898.758-485.361-899.51-480.253-892.697-480.189-888.953-479.072-857.833-469.807-827.577-458.051-797.572-445.616-790.496-442.677-783.22-441.393-775.656-441.547-773.577-441.599-770.722-441.085-770.134-443.883-769.545-446.655-772.125-447.387-774.179-448.208M-927.737-464.596C-931.106-471.539-936.503-475.402-944.18-474.979-956.027-474.337-967.899-474.786-979.708-472.976-993.558-470.846-1001.849-462.004-1007.184-449.761-1010.54-442.048-1007.572-437.646-999.181-437.133-975.45-435.721-951.731-435.503-927.975-436.658-915.915-437.248-903.793-436.76-890.431-436.76-894.663-442.433-900.148-443.164-904.907-444.794-915.201-448.311-922.891-454.625-927.737-464.596M-986.871-314.278C-978.343-272.12-962.852-231.952-952.27-190.346-943.128-154.374-939.822-117.978-942.589-81.056-945.031-48.498-958.531-23.678-989.438-9.933-1014.873 1.373-1036.788 18.326-1054.045 40.99-1055.773 43.249-1057.213 45.751-1058.666 48.202-1059.255 49.216-1059.53 50.423-1060.357 52.643-1048.748 52.014-1039.067 47.74-1029.512 43.57-1008.048 34.188-986.884 24.14-965.419 14.797-954.161 9.895-942.376 7.02-929.903 8.29-924.431 8.842-918.182 9.625-916.93 15.464-915.439 22.407-922.615 23.857-927.161 25.731-941.5 31.634-956.089 36.922-971.43 42.774-966.847 45.071-962.213 46.662-958.393 49.434-950.592 55.12-947.899 64.385-945.194 73.086-943.203 79.452-941.062 85.727-938.62 91.9-935.151 100.678-931.394 102.205-923.629 97.021-909.315 87.473-900.562 73.112-892.86 57.969-880.249 33.162-880.362 6.237-880.437-20.649-880.55-64.86-885.684-108.763-888.439-152.821-890.393-184.263-887.463-215.512-886.248-246.838-885.321-271.094-885.158-295.477-878.083-319.001-874.238-331.796-869.73-344.347-866.299-357.309-863.055-369.577-868.941-379.485-884.62-380.306-893.649-380.794-902.691-381.782-911.707-381.679-930.505-381.487-947.774-388.353-965.494-393.114-984.041-398.106-990.277-394.141-992.882-374.967-995.712-354.267-990.904-334.208-986.871-314.278M-1070.851 96.7C-1072.667 93.081-1073.731 87.755-1078.29 87.691-1083.186 87.627-1084.952 92.927-1087.081 96.764-1095.158 111.253-1094.182 116.156-1080.231 124.638-1070.25 130.709-1063.851 138.383-1062.097 150.703-1060.244 163.755-1051.716 167.759-1037.84 162.959-1040.645 158.698-1044.415 158.377-1048.034 157.531-1050.288 157.004-1052.292 155.387-1052.004 152.885-1051.653 149.779-1048.735 150.382-1046.744 150.421-1036.137 150.626-1025.505 151.627-1014.948 149.946-1012.431 149.535-1008.085 150.19-1008.06 146.738-1008.035 142.579-1012.619 143.042-1015.386 142.913-1028.448 142.259-1041.522 142.028-1054.583 141.566-1056.362 141.502-1058.34 141.54-1059.831 139.102-1052.655 134.584-1044.841 137.177-1037.427 136.715-1034.96 136.561-1032.455 137.1-1029.976 137.292-1024.904 137.664-1019.606 136.792-1019.431 130.747-1019.243 124.484-1024.766 123.458-1029.675 123.83-1050.1 125.357-1062.185 113.845-1070.851 96.7M-1033.069 182.466C-1023.664 174.676-1013.62 167.72-1003.903 160.315-1002.312 159.096-999.294 158.185-1000.546 155.451-1001.698 152.91-1004.454 154.207-1006.395 154.669-1016.789 157.197-1026.356 161.483-1034.684 168.554-1044.152 176.588-1053.594 184.609-1060.995 194.94-1050.426 193.118-1041.234 189.229-1033.069 182.466M-874.614 155.413C-873.499 155.323-871.959 154.925-871.446 154.117-870.306 152.307-872.072 151.178-873.224 150.344-875.991 148.342-878.721 145.878-881.865 144.864-889.729 142.297-897.619 139.859-905.771 135.303-899.648 147.662-885.759 156.311-874.614 155.413M-837.095 251.972C-833.576 252.485-832.085 249.918-832.173 246.8-832.273 243.938-833.238 241.192-837.032 240.922-839.975 241.153-842.192 242.667-842.054 246.081-841.929 249.123-840.125 251.535-837.095 251.972M-809.556 250.701C-809.331 248.905-810.558 247.262-812.311 247.031-814.052 246.787-815.655 248.058-815.893 249.841-816.118 251.638-814.891 253.281-813.138 253.512-811.397 253.743-809.794 252.485-809.556 250.701M-811.034 260.609C-811.31 259.017-812.599 258.478-813.739 258.876-822.317 261.815-831.184 261.161-840.401 260.07-838.685 266.409-833.037 265.986-828.917 266.281-823.194 266.692-818.798 265.652-812.913 263.368-812.036 263.021-810.771 262.174-811.034 260.609M-784.989 117.973C-778.715 122.259-767.303 126.089-760.416 125.023-764.949 118.209-776.673 115.406-784.989 117.973M-696.873 263.124C-698.614 262.893-700.217 264.151-700.455 265.947-700.68 267.731-699.453 269.374-697.7 269.605-695.959 269.849-694.356 268.591-694.118 266.794-693.893 264.998-695.12 263.355-696.873 263.124M-841.853 358.258C-837.809 359.182-837.833 354.498-836.519 351.829-832.712 344.167-829.931 335.954-824.534 329.126-818.373 321.324-810.521 318.603-801.178 320.977-795.443 322.44-789.82 324.263-783.846 324.699-777.673 325.161-777.297 328.113-780.716 332.771-785.399 339.162-790.233 345.579-790.985 353.921-791.26 357.052-790.784 360.273-790.446 363.43-790.208 365.753-789.206 368.05-786.727 368.333-783.796 368.666-783.383 365.856-782.92 363.79-780.615 353.471-777.585 343.474-771.286 334.863-770.234 333.413-769.457 331.385-766.615 331.616-765.212 339.829-770.697 347.696-768.606 357.424-759.239 347.748-757.009 332.553-741.368 328.818-744.411 339.175-750.485 346.541-752.977 355.615-755.469 364.675-753.904 374.069-756.696 383.078-750.76 377.213-748.732 369.526-746.803 361.98-743.685 349.84-739.715 338.161-732.464 327.882-727.392 320.708-729.621 316.344-737.398 313.547-744.436 311.006-752.125 310.621-758.7 306.501-761.38 304.82-764.085 303.344-766.126 300.803-767.717 298.852-768.155 296.517-767.153 294.553-765.913 292.128-763.359 292.859-761.33 293.603-758.7 294.566-755.907 295.426-753.641 297.017-737.273 308.554-718.801 309.876-699.854 308.901-695.558 308.683-694.093 309.102-690.887 305.419-686.166 299.977-682.384 293.381-686.541 286.335-690.699 279.277-692.227 285.52-697.287 288.227-713.078 296.62-729.759 295.169-744.061 282.695-745 281.874-745.914 281.001-746.69 280.026-747.054 279.577-747.054 278.832-747.58 276.907-731.825 281.206-717.574 290.754-701.106 281.938-704.099 277.831-707.43 279.23-710.298 279.281-719.515 279.41-728.294 277.562-736.534 273.455-741.506 270.978-744.787 266.833-745.689 261.071-745.939 259.467-745.751 257.593-744.035 257.067-743.159 256.797-741.844 257.683-740.855 258.26-740.053 258.722-739.452 259.531-738.738 260.147-728.281 269.027-728.206 269.04-724.7 255.963-724.124 253.833-723.322 252.793-721.193 252.254-698.702 246.428-669.687 274.827-675.874 298.44-678.053 306.782-680.243 314.971-677.763 323.21-676.085 328.793-676.849 334.581-677.913 340.33-678.74 344.796-680.155 349.48-677.513 355.255-668.058 343.038-671.163 328.934-668.646 316.742-664.451 315.626-663.975 319.27-662.335 320.72-659.216 323.48-657.163 324.583-653.781 321.105-648.271 315.446-641.91 310.839-635.347 306.488-631.59 304.024-628.848 300.392-628.773 295.477-628.122 254.795-620.482 214.755-618.942 174.073-617.69 140.911-628.848 116.874-656.198 99.382-680.518 83.815-704.237 67.363-732.351 59.534-742.983 56.583-753.803 55.415-764.749 56.365-779.927 57.686-792.325 71.688-792.562 87.216-792.663 93.774-788.831 95.981-783.32 97.085-774.705 98.792-766.64 95.468-758.312 94.57-755.494 94.274-752.827 93.684-750.072 94.839-747.154 96.058-745.263 98.176-745.488 101.346-745.714 104.246-748.043 105.414-750.685 106.043-755.995 107.326-765.212 107.73-765.7 110.111-767.087 116.868-758.035 115.521-750.748 118.504-749.605 118.972-748.456 119.518-747.317 120.031-742.295 122.251-736.81 125.229-736.684 131.004-736.547 136.727-743.209 137.703-747.079 140.654-764.223 153.77-783.346 145.583-801.579 145.993-807.991 146.147-808.617 139.371-807.966 134.238-806.864 125.575-803.758 117.58-797.547 111.266-796.107 109.79-794.767 108.237-795.894 106.312-797.209 104.041-799.2 105.594-800.84 106.222-804.76 107.737-808.241 109.995-809.832 114.141-819.287 138.717-833.889 160.995-840.689 186.765-843.381 196.942-844.897 207.209-845.811 217.745-846.525 225.933-843.231 229.385-836.769 232.042-830.407 234.647-826.33 236.75-820.219 239.933-812.743 243.821-810.964 239.625-811.816 233.452-813.469 221.478-815.886 209.607-817.927 197.685-820.595 182.131-809.53 169.419-794.153 172.751-795.33 178.411-800.703 178.205-804.171 180.079-811.36 183.967-812.201 189.002-810.999 197.844-809.195 211.204-805.176 223.948-802.27 236.986-799.903 247.6-801.365 260.067-809.53 267.972-818.171 276.339-829.769 273.465-840.401 271.206-844.045 270.436-847.151 268.283-850.682 267.077-853.7 266.037-856.681 264.664-859.185 267.975-861.577 271.158-860.839 274.802-859.874 278.101-858.785 281.809-855.403 282.143-852.147 282.002-848.716 281.874-845.285 281.476-841.853 281.501-839.612 281.527-836.381 280.09-835.792 283.927-835.341 286.866-837.533 288.637-839.812 289.83-844.108 292.089-848.866 291.961-853.538 292.269-856.268 292.448-859.837 291.678-860.776 295.143-861.703 298.583-860.413 302.048-857.795 304.704-854.965 307.566-851.321 308.311-847.564 308.875-840.388 309.94-837.871 313.251-841.34 320.695-845.673 329.999-848.491 339.778-846.324 350.379-845.66 353.638-844.834 357.578-841.853 358.258M-797.008 334.157C-803.946 337.109-812.888 372.298-810.007 379.408-807.315 374.185-805.336 363.931-800.94 352.676-800.289 351.007-796.294 335.915-797.008 334.157M-796.82 466.739C-795.906 467.946-794.491 468.806-793.164 469.601-788.555 472.373-784.736 477.032-778.612 476.198-778.361 476.159-777.885 474.157-778.236 473.785-783.133 468.626-788.154 463.582-793.164 458.526-793.339 458.359-793.765 458.449-794.867 458.359-794.403 461.426-799.901 462.697-796.82 466.739M-728.344 355.089C-730.185 354.601-731.249 356.051-731.625 357.617-733.792 366.703-735.845 375.827-737.937 384.926-731.074 377.136-727.605 368.538-726.804 358.964-726.678 357.386-726.39 355.589-728.344 355.089M-702.885 376.443C-696.635 367.319-697.6 359.221-697.287 351.431-702.121 358.091-703.974 365.484-702.885 376.443M-691.238 318.667C-690.211 325.315-691.877 332.348-687.694 338.841-686.655 332.194-685.615 325.533-684.551 318.885-684.238 316.922-684.037 314.522-686.291 314.214-689.046 313.842-691.639 316.139-691.238 318.667M-650.162 447.579C-660.131 452.315-667.406 460.425-676.085 468.177-667.156 467.112-654.821 457.538-650.162 447.579M-629.186 455.69C-627.408 457.268-625.654 455.985-624.052 455.099-617.59 451.519-612.267 446.308-608.648 440.046-592.881 412.8-581.698 383.668-576.176 352.381-575.8 350.263-576.126 348.017-576.126 343.359-583.927 352.021-584.541 360.864-587.083 368.795-594.56 392.023-606.732 412.634-619.906 432.769-623.526 438.3-626.243 444.46-629.198 450.415-629.975 452.007-631.002 454.086-629.186 455.69M-545.932 431.537C-549.714 432.115-550.403 435.798-551.994 438.082-564.266 455.651-579.983 468.69-599.281 477.34-609.55 481.947-614.208 493.125-625.379 499.208-603.576 498.913-555.174 456.665-545.932 431.537M-552.839 64.436C-542.975 131.194-549.877 192.052-554.273 234.582-535.739 206.567-540.646 108.092-552.839 64.436M-588.799 37.82C-580.546 73.882-577.453 110.688-573.709 147.392-572.582 109.983-577.077 73.382-588.799 37.82M-594.184 177.576C-588.799 170.013-585.163 111.798-590.062 93.783-587.885 130.406-595.424 166.078-594.184 177.576M-606.381 48.408C-611.128 55.864-611.466 78.99-607.02 92.375-600.621 84.88-600.358 66.195-606.381 48.408M-625.216 30.633C-623.889 23.806-627.095 18.134-632.367 14.014-649.11 .885-666.931-5.249-687.944 3.478-701.92 9.279-715.683 15.028-724.938 27.926-732.877 38.975-732.589 44.506-719.215 48.344-693.755 55.659-670.299 68.531-645.654 78.194-640.119 80.363-635.56 85.124-629.036 89.77-630.025 68.415-628.848 49.46-625.216 30.633M-532.933-50.782C-532.683-68.723-532.871-86.664-532.871-106.312-534.073-132.069-532.245-159.712-536.853-186.97-539.946-205.322-548.049-221.441-560.146-235.25-569.563-245.991-577.866-246.351-588.561-237.188-590.953-235.147-593.044-232.747-595.286-230.514-604.866-220.953-604.841-220.966-613.044-230.797-617.677-236.354-623.5-236.79-630.1-235.378-647.257-231.695-659.818-220.851-670.7-207.786-701.219-171.134-721.97-129.438-731.375-82.031-735.908-59.214-743.597-37.204-747.542-14.232-749.671-1.822-749.821 10.588-749.195 23.087-749.07 25.693-749.057 28.824-746.528 29.812-743.885 30.852-742.057 27.99-740.366 26.309-729.696 15.631-720.216 3.362-705.089-1.335-699.441-3.08-693.73-4.633-688.082-6.417-680.982-8.663-677.212-13.578-677.275-21.316-677.35-29.324-677.287-37.345-677.663-45.341-677.863-49.678-676.198-52.001-672.228-52.72-663.211-54.337-651.728-44.622-651.477-35.177-651.427-33.264-651.602-31.339-651.815-29.427-654.833-3.119-629.975 15.682-605.968 5.031-597.59 1.309-589.738 1.206-581.799 5.916-576.651 8.945-571.417 11.832-566.157 14.63-552.757 21.766-544.329 18.352-539.821 3.26-534.561-14.309-533.184-32.52-532.933-50.782M-524.217 198.893C-521.011 200.317-519.471 196.634-518.244 194.337-509.991 178.796-505.433 162.022-503.078 144.594-502.565 140.77-502.928 136.869-505.307 133.583-509.427 127.911-512.583 121.802-515.163 114.718-515.752 122.2-516.578 129.682-516.879 137.177-517.63 155.747-522.452 173.649-525.019 191.924-525.357 194.375-526.747 197.776-524.217 198.893M-498.282 207.453C-508.901 220.145-515.664 234.634-517.392 251.24-509.014 237.393-502.703 222.853-498.282 207.453M-488.013 245.491C-482.09 233.8-473.361 225.638-462.904 217.976-438.484 200.073-415.116 180.656-407.001 148.662-406.538 146.814-405.736 144.979-405.661 143.106-405.561 141.052-404.409 138.28-406.926 137.1-409.431 135.932-410.983 138.357-412.248 140-419.587 149.484-426.024 159.84-434.176 168.503-455.653 191.372-476.254 214.857-491.394 242.783-495.802 250.932-499.76 259.351-503.93 267.641-495.539 262.072-492.07 253.512-488.013 245.491M-408.116 205.194C-425.573 218.977-440.964 234.762-453.662 253.191-436.856 238.792-420.301 224.162-408.116 205.194M-416.544 312.096C-402.067 342.82-392.499 375.609-379.125 406.807-375.405 415.47-371.949 423.529-360.703 424.466-348.418 425.467-343.096 417.228-337.21 408.719-319.339 382.937-314.142 354.216-317.548 323.326-317.937 319.861-317.599 316.293-317.599 312.777-319.615 285.98-318.012 258.979-322.846 232.388-325.338 218.682-330.072 206.028-338.65 195.017-347.767 183.339-361.029 180.4-374.14 177.871-381.141 176.524-383.746 181.875-384.221 188.587-385.386 205.168-387.365 221.569-391.36 237.817-395.893 256.284-405.736 271.71-415.692 287.11-421.24 295.695-420.739 303.19-416.544 312.096M-419.775 770.225C-419.775 770.225-388.667 709.279-390.934 631.418-390.934 631.418-404.659 733.611-419.775 770.225M-418.485 555.572C-434.802 557.844-447.263 564.607-454.651 581.483-469.967 616.454-490.192 648.782-509.302 681.674-510.83 684.305-514.036 687-511.782 690.221-510.016 692.736-506.56 691.414-503.805 691.325-491.782 690.927-480.048 692.8-468.289 694.456-468.314 695.265-468.339 696.073-468.352 696.894-473.123 697.395-477.894 697.972-482.666 698.383-499.634 699.833-503.304 706.391-495.364 722.202-489.528 733.842-483.292 745.276-476.905 756.608-467.989 772.419-457.419 787.036-445.484 800.589-443.744 802.565-442.266 806.286-438.935 804.772-435.591 803.271-437.62 799.652-437.532 796.995-436.856 776.551-441.177 756.839-447.776 737.859-453.95 720.123-452.435 703.914-444.746 687.089-431.546 658.227-419.361 628.864-406.7 599.745-403.52 592.43-400.865 585-399.124 577.171-395.981 562.964-404.171 553.57-418.485 555.572M-390.934 474.157C-378.073 504.187-379.125 533.435-387.139 562.939-376.532 550.195-371.41 489.891-390.934 474.157M-315.144 137.266C-306.616 162.612-300.292 188.254-298.163 215.409-295.232 252.832-295.783 290.138-296.096 327.522-296.121 330.628-296.272 333.926-292.728 337.25-280.067 318.693-272.328 298.454-263.699 278.768-246.367 239.28-228.86 199.842-214.433 159.096-211.891 151.909-209.724 144.582-207.646 137.228-204.941 127.68-207.295 124.664-216.9 125.524-228.709 126.589-240.469 128.039-252.278 129.117-270.524 130.76-288.282 125.447-306.403 124.998-319.264 124.69-319.214 125.165-315.144 137.266M-307.342 50.448C-320.905 76.731-338.487 98.856-364.861 112.806-375.656 118.517-383.758 127.385-388.016 139.41-389.055 142.349-391.209 145.788-388.354 148.316-385.323 151.011-382.293 147.841-379.964 146.211-347.416 123.573-320.504 95.75-304.424 58.264-300.392 48.844-295.47 39.707-292.991 27.374-300.204 35.176-303.523 43.043-307.342 50.448M-405.536-69.75C-404.709-70.417-403.87-71.072-403.044-71.726-410.645-82.275-418.247-92.824-425.848-103.373-424.308-88.512-416.944-77.719-405.536-69.75M-409.142-31.609C-416.231-46.752-426.587-60.06-432.761-75.717-431.02-57.571-423.356-42.748-409.142-31.609M-402.743 30.864C-408.291 14.348-417.796-.026-426.687-14.656-420.764 1.694-413.951 17.505-402.743 30.864M-439.323 81.865C-443.13 81.839-444.445 77.155-450.431 77.565-432.724 109.097-449.467 136.599-459.961 164.961-455.115 165.782-454.677 162.099-453.349 160.007-444.032 145.3-434.564 130.683-435.967 111.779-437.42 92.234-437.094 92.118-420.263 100.011-421.916 87.101-427.201 81.942-439.323 81.865M-470.706 133.262C-455.641 113.922-452.31 80.029-472.447 61.96-468.502 87.229-461.79 110.265-470.706 133.262M-482.691 113.756C-473.737 97.047-475.59 80.055-487.713 68.197-485.02 82.737-481.2 97.136-482.691 113.756M-523.103 52.181C-518.557 66.529-514.812 81.043-513.372 96.097-513.297 95.814-513.209 95.545-512.809 94.236-513.71 80.26-512.27 64.77-523.103 52.181M-844.709 80.941C-838.81 77.026-832.474 76-833.325 70.571-834.052 65.874-854.134 64.572-859.631 64.726-857.239 69.411-825.181 63.564-844.709 80.941M-836.919-405.075C-840.075-419.885-854.076-427.764-867.526-421.835-879.56-416.509-891.683-415.457-904.832-415.957-927.349-416.83-949.953-415.149-972.52-414.546-972.557-413.66-972.595-412.787-972.632-411.902-958.544-407.885-943.804-408.167-929.515-405.306-909.065-401.237-888.427-398.209-867.952-394.282-860.55-392.857-853.237-391.574-845.723-392.447-838.334-393.307-835.341-397.644-836.919-405.075M-841.929-341.523C-842.417-343.205-842.217-345.553-845.56-345.836-848.641-336.814-848.391-327.15-848.115-317.91-847-279.23-853.938-241.474-858.822-203.41-863.694-165.513-851.809-131.53-831.685-100.178-830.295-97.996-828.754-95.814-825.724-96.456-822.305-97.188-821.867-100.255-821.14-103.027-816.269-121.623-817.922-140.603-818.686-159.391-819.713-184.648-821.704-209.852-823.745-235.044-826.663-271.094-831.735-306.783-841.929-341.523M-607.433-387.159C-610.79-394.038-616.287-397.387-622.561-397.798-628.961-397.516-636.55-397.439-637.476-392.575-638.541-387.018-631.039-386.8-626.519-385.363-621.81-383.861-617.251-381.897-612.543-380.37-610.476-379.703-608.097-379.588-606.695-381.833-605.53-383.681-606.582-385.427-607.433-387.159M-561.386-379.818C-572.093-371.721-580.972-363.135-582.913-348.864-583.727-342.794-588.761-342.255-593.007-343.436-607.934-347.607-623.162-348.069-638.441-348.595-642.435-348.723-646.944-349.48-649.611-352.881-661.446-367.896-678.878-371.297-695.383-376.713-737.448-390.496-779.238-405.152-821.867-417.074-823.657-417.574-825.511-418.819-827.026-416.984-828.554-415.11-827.302-413.352-826.049-411.902-816.745-401.161-815.981-388.327-816.92-374.865-817.847-361.518-814.015-348.89-809.669-336.57-803.821-320.027-790.972-313.534-774.667-312.635-745.075-311.018-715.508-308.862-686.755-300.893-673.555-297.235-660.544-292.705-647.633-288.034-619.643-277.895-590.465-279.577-561.549-278.447-558.43-278.332-555.312-278.434-551.355-278.434-528.525-280.423-504.719-278.601-481.05-281.886-472.622-283.067-463.718-280.385-455.015-279.859-451.533-279.654-446.036-278.601-446.148-283.966-446.261-289.176-451.383-289.676-455.566-288.688-489.228-280.783-523.215-284.556-557.128-285.583-566.495-285.865-575.875-285.903-585.242-286.134-592.443-286.301-597.34-289.112-597.102-297.505-596.876-305.924-591.091-307.297-584.779-307.117-544.154-305.988-503.579-306.694-463.042-309.632-446.248-310.852-437.745-319.245-434.076-338.995-431.459-353.061-436.005-361.467-451.997-368.256-467.187-374.698-475.928-385.568-479.284-401.931-483.567-422.798-488.764-443.459-493.01-464.339-494.575-471.988-497.718-476.403-505.671-476.993-518.782-477.981-531.781-478.277-544.655-474.837-551.756-472.951-556.652-468.472-560.259-462.145-564.867-454.073-564.251-448.527-566.781-439.658-570.45-426.748-564.314-416.661-556.186-407.639-547.407-397.886-550.979-387.685-561.386-379.818M-286.504 13.668C-277.337 .128-270.462-13.899-277.324-30.954-281.557-16.337-279.866-.423-286.504 13.668M-288.595-311.326C-287.43-341.639-288.77-372.093-283.623-402.187-282.033-411.453-278.238-419.859-274.018-428.047-265.753-444.076-267.648-453.954-273.722-470.176-275.525-475.014-277.479-475.284-281.185-472.691-293.345-464.17-304.416-454.404-313.733-442.661-316.187-439.581-317.114-436.026-316.626-431.894-315.173-419.458-317.26-413.75-323.597-402.983-324.762-401.006-326.29-399.004-324.699-396.887-323.196-394.898-320.679-395.27-318.575-395.783-310.636-397.721-303.335-401.302-296.096-405.062-293.717-406.294-290.398-409.284-288.608-406.384-286.378-402.79-290.255-399.414-292.559-397.681-300.361-391.816-309.657-385.505-319.951-384.915-331.347-384.261-340.666-382.064-350.609-376.584-363.308-369.577-376.545-363.777-391.172-363.186-401.616-362.776-405.573-357.578-406.387-347.311-408.053-326.598-411.296-306-412.561-285.262-415.391-239.292-418.622-193.323-418.647-147.187-418.647-138.473-416.018-132.749-409.343-127.86-381.066-107.172-350.685-90.591-318.175-78.143-304.111-72.753-301.056-74.832-300.467-90.296-299.49-115.886-301.068-141.553-298.538-167.091-296.197-190.91-294.155-214.793-290.849-238.484-287.455-262.752-290.16-287.084-288.595-311.326M-297.274 529.97C-263.824 474.388-224.702 423.157-184.215 372.863-135.037 311.776-84.944 251.394-40.713 186.303-36.092 179.514-32.009 172.289-28.177 165-22.053 153.385-23.28 147.739-34.939 143.144-60.75 132.967-86.848 123.907-114.461 119.389-146.094 114.218-164.04 133.211-180.283 155.554-197.151 178.744-207.282 205.81-219.543 231.592-247.895 291.242-273.78 352.124-303.823 410.952-308.407 419.923-313.24 428.611-316.484 438.442-320.679 451.185-316.81 463.133-316.371 475.415-315.532 499.375-321.105 522.321-326.791 545.216-329.996 558.126-333.778 570.87-337.31 583.703-320.992 568.021-308.845 549.194-297.274 529.97M-315.507 617.558C-313.341 621.703-311.85 626.22-309.696 631.418-306.516 628.646-306.378 625.836-306.353 622.961-306.228 611.757-306.102 600.554-305.965 589.35-305.939 587.117-305.414 584.461-307.818 583.382-310.46 582.202-311.613 585.089-312.84 586.578-323.923 600.182-323.91 601.49-315.507 617.558M-280.893 687.731C-279.328 711.614-277.049 735.446-273.405 759.136-271.075 774.229-268.546 789.321-267.005 804.503-266.078 813.614-261.883 819.556-254.069 822.636-231.89 831.389-208.798 830.606-185.743 828.257-178.016 827.462-182.512 822.277-184.065 819.133-191.791 803.502-199.781 788.012-207.671 772.458-208.61 770.597-210.413 769.275-209.449 766.464-207.17 759.791-211.014 758.88-215.685 760.984-222.723 764.167-222.774 759.278-223.562 754.747-226.768 736.306-228.196 717.479-236.486 700.244-244.864 682.803-257.024 668.43-270.023 654.621-274.745 649.603-276.686 653.235-277.424 657.354-279.228 667.377-282.584 677.246-280.893 687.731M-259.754 874.009C-249.097 883.274-239.905 894.221-227.921 902.024-219.956 907.222-212.855 908.03-204.615 902.678-188.235 892.052-178.016 876.023-168.235 859.738-164.04 852.744-170.627 846.25-176.413 846.494-204.239 849.214-228.209 846.545-251.138 854.142-253.205 854.835-255.371 855.272-257.362 856.157-269.197 861.419-269.597 865.436-259.754 874.009M-233.869 596.524C-195.298 631.418-202.762 706.892-201.534 719.378-192.104 633.651-210.037 605.187-233.869 596.524M43.518 10.921C47.5 31.634 42.766 51.59 36.981 71.213 27.163 104.541 16.518 137.51-1.816 167.31-25.985 206.58-52.297 244.182-80.862 280.27-133.121 346.323-183.514 413.93-236.812 479.136-254.382 500.645-255.108 523.078-236.436 544.048-208.121 575.824-191.979 612.001-189.763 655.07-188.974 670.355-186.469 685.601-183.902 700.706-177.365 739.078-162.062 775.037-153.934 812.973-148.825 836.83-144.178 861.098-160.884 882.735-169.613 894.042-179.281 904.514-189.525 914.421-202.236 926.716-217.602 928.948-231.703 920.389-264.25 900.612-289.584 875.074-289.184 831.941-288.946 806.312-293.404 781.069-297.724 755.851-302.308 729.145-305.714 702.233-309.884 675.45-312.527 658.522-313.704 641.223-320.667 625.271-325.901 613.259-331.099 612.399-339.714 622.293-348.656 632.547-356.921 643.456-366.364 653.184-373.965 661.025-379.175 670.342-380.903 680.493-386.15 711.114-397.045 740.079-404.547 770.006-407.928 783.52-410.758 797.47-420.714 808.25-433.287 821.866-447.914 821.019-458.333 805.606-462.416 799.575-465.81 793.055-470.005 787.113-485.308 765.425-502.352 745.058-516.09 722.151-526.234 705.249-526.81 688.527-517.43 671.407-511.181 659.998-504.431 648.859-498.207 637.437-491.707 625.502-483.63 614.452-478.733 601.632-477.932 599.553-475.139 596.909-478.107 594.817-480.624 593.059-482.766 595.51-484.669 597.076-491.707 602.864-498.557 608.883-505.733 614.478-509.24 617.224-513.735 619.752-517.818 616.788-522.076 613.695-521.575 608.472-520.661 603.544-518.707 593.02-510.742 587.592-503.166 582.048-494.212 575.49-485.258 568.919-480.148 558.601-465.534 529.033-448.916 500.453-437.094 469.486-431.559 454.984-422.768 443.665-409.806 435.31-395.342 425.968-393.852 419.422-402.217 404.369-411.985 386.813-419.912 368.525-425.285 349.057-426.975 342.935-428.866 336.839-431.221 330.962-433.562 325.109-435.779 318.192-443.293 317.833-450.381 317.499-454.614 323.261-457.782 328.639-463.555 338.469-468.715 348.736-473.611 359.067-492.684 399.312-514.274 437.505-548.537 466.791-572.406 487.196-596.726 505.984-627.658 514.056-667.457 524.438-706.692 518.625-745.138 508.718-811.322 491.662-858.735 448.182-893.912 389.906-910.267 362.814-909.892 334.799-892.685 307.733-886.849 298.557-881.489 289.112-879.035 278.46-873.474 254.192-868.428 229.783-865.835 204.989-864.383 191.116-867.263 178.115-878.396 168.516-886.724 161.329-894.889 153.886-903.63 147.264-930.93 126.589-939.358 128.078-958.732 156.144-958.907 156.414-959.107 156.658-959.283 156.927-970.04 174.252-979.591 185.305-998.676 189.271-1013.391 192.325-1028.105 195.264-1039.414 206.814-1060.277 228.143-1071.602 270.542-1056.086 297.376-1046.807 313.418-1032.781 324.673-1019.494 336.66-980.985 371.425-972.169 412.3-993.371 460.13-1000.634 476.506-1006.77 493.24-1008.386 511.259-1010.903 539.017-998.793 566.545-969.915 574.297-961.512 576.555-952.996 578.557-944.831 581.522-940.11 583.229-935.451 587.104-935.764 592.597-936.14 599.052-942.364 599.232-947.21 600.22-948.125 600.4-949.076 600.31-950.016 600.361-993.145 602.35-1025.993 572.641-1030.765 528.648-1033.858 500.158-1026.532 474.298-1015.111 449.068-999.494 414.533-998.943 395.437-1030.276 364.457-1038.141 356.693-1046.594 349.557-1054.583 341.921-1070.162 327.022-1083.274 310.03-1085.904 287.803-1090.375 250.098-1091.903 215.103-1074.245 180.799-1068.547 169.724-1069.324 163.14-1077.677 153.926-1081.496 149.704-1087.917 143.64-1091.762 139.444-1109.332 120.232-1111.51 106.192-1099.363 83.284-1090.559 66.678-1074.282 50.14-1069.586 31.84-1064.026 10.203-1050.338-2.143-1030.226-8.996-1014.522-14.361-999.795-22.215-986.057-31.737-973.922-40.143-962.814-49.973-962.676-66.567-962.526-85.779-963.278-104.99-963.929-124.189-964.367-136.971-965.306-149.676-967.648-162.317-972.52-188.498-981.812-213.279-989.789-238.445-1004.779-285.762-1017.903-333.374-1013.094-383.887-1010.765-408.373-1017.014-430.433-1027.07-452.25-1034.509-468.382-1045.429-478.187-1062.698-480.985-1069.073-482.011-1075.647-483.333-1080.995-487.722-1083.75-489.981-1086.467-492.522-1086.029-496.359-1085.528-500.645-1081.521-501.569-1078.277-502.198-1069.661-503.879-1060.908-503.815-1052.141-503.687-1021.535-503.25-990.916-502.865-960.31-502.724-921.475-502.545-883.055-507.755-844.734-513.299-828.466-515.648-810.971-514.544-796.269-522.578-774.166-534.667-751.086-534.962-727.167-534.461-707.042-534.038-687.832-540.185-669.185-547.757-666.004-549.04-661.546-550.362-666.605-554.571-673.856-560.616-681.107-566.673-689.372-571.332-692.365-573.026-694.87-572.371-697.224-570.677-707.017-563.632-718.163-559.653-729.171-555.175-748.656-547.244-767.904-544.202-788.192-552.595-797.973-556.638-808.68-558.498-819.249-558.935-833.989-559.551-843.219-565.968-846.487-581.214-849.017-592.982-856.631-599.822-868.277-601.991-876.918-603.595-885.146-606.316-892.672-611.218-896.755-613.888-902.052-617.122-901.15-621.626-900.073-627.016-893.862-624.411-889.817-624.398-874.827-624.385-859.824-624.116-844.834-623.936-840.802-623.898-835.078-623.153-834.239-627.414-833.438-631.444-839.424-631.957-842.667-633.125-854.802-637.463-867.451-639.375-880.274-640.106-890.881-640.71-901.488-641.3-912.083-642.031-915.164-642.25-918.633-642.635-919.634-646.33-920.649-650.104-917.731-652.221-915.264-654.108-907.625-659.934-898.971-662.013-889.592-660.73-880.011-659.433-870.431-658.112-860.876-656.584-835.717-652.555-810.183-651.554-785.161-645.869-771.674-642.801-757.848-640.466-743.434-642.545-720.805-645.792-698.126-645.548-675.734-638.643-664.639-635.217-653.506-637.578-643.4-644.213-631.603-651.952-622.649-662.539-614.434-673.833-586.257-712.525-554.473-748.228-525.432-786.228-514.838-800.101-494.663-808.981-475.164-796.52-461.439-787.729-447.864-778.695-434.013-770.122-384.347-739.399-334.066-709.651-290.236-670.098-282.133-662.796-272.778-659.883-261.62-662.257-249.773-664.759-237.851-667.352-225.591-667.121-171.091-666.068-118.343-656.674-68.313-633.536-53.248-626.567-38.108-620.176-27.2-606.534-16.292-592.879-17.495-580.084-31.283-569.625-37.281-565.056-43.543-560.821-49.303-555.958-87.85-523.463-126.133-490.635-164.854-458.346-183.276-442.998-192.004-443.447-211.666-457.268-221.133-463.929-229.937-471.783-241.132-475.594-244.188-476.634-247.269-478.097-250.024-475.89-253.079-473.438-251.489-470.089-250.625-467.022-245.215-447.784-246.179-429.253-255.521-411.273-260.23-402.2-262.259-392.177-263.962-381.987-267.882-358.464-265.377-334.683-267.469-311.083-268.521-299.25-262.86-290.331-253.48-283.799-245.215-278.062-236.887-272.428-228.572-266.743-211.503-255.078-192.931-246.607-172.644-243.861-143.302-239.896-113.998-235.198-84.193-235.93-73.987-236.174-63.617-235.07-54.851-228.358-53.048-226.985-51.107-225.74-51.307-223.174-51.545-220.209-54.275-220.158-56.241-219.606-67.412-216.462-78.87-215.563-90.404-214.691-106.196-213.484-122.301-212.766-135.901-202.563-143.665-196.737-143.49-191.796-135.275-186.47-130.729-183.518-125.707-181.901-120.56-180.477-101.137-175.099-81.45-178.167-61.877-178.731-47.475-179.142-33.149-178.449-18.847-177.037-16.292-176.781-12.586-176.883-12.047-173.226-11.496-169.491-15.266-168.824-17.545-167.669-21.151-165.847-25.084-164.692-28.928-163.383-42.103-158.891-56.028-159.532-69.516-157.248-80.185-155.451-82.452-151.165-75.251-142.9-56.479-121.327-34.376-105.568-4.533-106.03 3.281-106.145 11.071-107.134 18.872-107.262 22.554-107.313 27.012-106.787 28.089-102.295 29.129-97.983 27.125-94.274 23.318-91.708 20.4-89.731 17.37-88.371 13.838-87.909 3.707-86.549-6.399-84.983-18.947-83.135-10.87-76.167-4.533-70.558 1.941-65.143 25.597-45.392 37.757-19.019 43.518 10.921" fill="#231f20"/>
</g>
</g>
</svg>
