<svg xmlns="http://www.w3.org/2000/svg" width="2048" height="1920" viewBox="0 0 2048 1920"><defs><clipPath id="clip_1"><path d="M0 0h2048v1920H0Z"/></clipPath></defs><g clip-path="url(#clip_1)"><path fill="#231f20" d="M1552.13 1021.527c-.325 1.232-.124 3.234-.838 3.632-9.705 5.505-12.135 19.186-24.257 22.163-4.772 1.168-7.877.963-9.781-3.965-.576-1.476-1.04-3.106-1.978-4.312-2.781-3.594-1.403-11.692-6.538-11.114-3.844.436-3.043 8.149-4.608 12.513-1.503 4.145-2.13 8.662-3.857 12.692-1.578 3.645-3.244 7.495-9.042 4.71-4.433-2.144-7.151 2.412-9.993 5.313-1.428 1.463-2.33 4.402-5.047 3.247-2.041-.848-1.328-3.311-1.591-5.108-1.352-9.048-4.896-17.07-10.62-24.101-1.552-1.913-2.692-4.967-5.697-3.837-2.818 1.065-2.492 4.324-2.48 6.75.05 7.34.752 14.745-3.168 21.444-1.365 2.336-1.991 5.93-5.598 5.48-3.531-.436-2.367-4.042-2.955-6.25-2.092-7.88-2.58-16.272-8.341-25.294-2.18 13.128-3.982 24.114-5.848 35.086-.426 2.503-1.04 4.967-1.678 7.418-.49 1.86-1.165 4.043-3.181 4.376-3.168.514-3.081-2.72-3.757-4.543-6.813-18.518-13.3-37.191-21.703-55.042-13.863-29.466-28.99-58.072-55.44-78.195-.976-.757-1.803-1.95-2.892-2.271-2.83-.834-5.723-5.287-8.24-2.361-2.705 3.144 2.054 5.107 3.594 7.494 19.76 30.608 39.585 61.19 48.477 97.458 2.805 11.473 3.919 23.087 1.99 36.369-7.112-6.506-9.116-14.642-12.61-21.637-16.756-33.482-37.494-63.384-69.466-83.507-3.844-2.425-7.851-4.581-12.06-7.02-1.477 4.184-.413 6.892 1.792 8.65 7.538 6.032 12.585 14.18 17.958 21.996 3.206 4.659 10.13 8.137 4.77 16.235-1.49 2.246 3.244 5.62 5.073 8.508 10.682 16.799 22.83 32.726 27.388 52.925 2.267 10.023 1.766 19.79-.601 29.915-5.072-12.358-9.843-24.537-14.802-36.64-20.225-49.382-49.78-92.67-82.578-133.891-4.133-5.197-7.99-10.626-11.884-16.016-1.228-1.707-3.883-3.054-2.968-5.531.989-2.695 3.819-1.501 5.835-1.591 27.639-1.194 54.75 2.028 81.15 10.69 21.878 7.187 43.568 15.028 65.634 21.573 8.24 2.45 17.582 3.927 25.923 2.58 27.137-4.338 51.908 2.322 76.077 13.873 2.43 1.167 4.809 3.144 8.942 1.95-6.725-8.367-15.04-14.065-24.445-21.624 10.206-.462 18.659-1.091 27.125-1.168 10.156-.077 19.674-2.708 28.578-7.392 5.91-3.106 10.482-2.092 15.34 2.105 6.738 5.826 12.549 12.41 17.683 19.737 2.83 4.056 6.11 7.367-.188 11.64-3.857 2.606.777 6.289.639 9.638-.113 2.772 1.252 5.57 1.465 8.393.15 2.054.814 4.787-1.828 5.878-2.016.82-3.432-1.104-4.922-2.08-6.261-4.118-12.423-8.392-18.697-12.512-1.453-.95-3.206-2.797-4.946-.911-1.866 2.015.45 3.324 1.415 4.774 4.733 7.059 10.807 13.219 13.199 21.817 1.74 6.25 2.793 12.46 1.077 18.89m-172.881 174.805c-6.1 1.476-11.622 4.248-16.468 8.483-3.106 2.72-5.248 5.685-3.857 9.92 1.365 4.146 5.096 3.889 8.528 4.313 4.045.5 8.753-1.926 12.66 3.208-12.548 4.979-24.783 9.124-38.057 7.764-2.643-.27-7.401.539-5.06-5.955 7.615-21.021 51.658-43.184 73.586-34.778-10.456 2.335-20.926 4.543-31.332 7.045m-54.163 63.32c-5.272 1.759-10.695 3.08-15.992 4.775-5.272 1.694-10.47 3.644-16.581 5.787 6.738-11.55 20.614-18.865 31.997-17.158 1.74.257 4.145-.103 4.596 2.284.539 2.914-2.104 3.684-4.02 4.313m-22.554-189.73c10.82 3.465 17.908 13.847 18.384 27.297-9.23-7.996-13.337-17.171-18.384-27.297m-17.683 62.6c-5.71-4.67-10.156-10.856-13.525-17.722 39.473 27.618 67.212 65.4 51.62 97.56-1.89.308-2.041-1.27-1.94-2.335 3.293-33.38-11.785-57.597-36.155-77.502m33.024 389.508c2.329-1.335 5.435-5.133 8.09-1.335 1.728 2.464-1.428 5.134-2.305 7.739-1.615 4.774-10.406 5.724-7.338 11.69 1.84 3.607 7.702 4.89 11.484 7.637 5.322 3.85 10.419 8.047 15.54 12.179 1.203.963 2.718 2.284 1.917 3.978-1.09 2.285-3.206 1.387-4.86.706-5.772-2.361-11.495-4.864-17.22-7.353-7.738-3.35-15.39-6.93-23.216-10.05-7.44-2.95-13.438-7.66-19.048-13.41-12.548-12.872-25.322-25.525-38.346-37.871-4.433-4.184-11.61-10.588-15.866-6.237-4.722 4.838 3.418 10.382 6.825 14.68 8.753 11.025 21.314 18.956 25.434 33.715.376 1.334 1.854 2.926 3.13 3.324 17.746 5.466 27.94 20.879 40.8 32.648 7.64 6.98 9.306 17.132 11.122 27.065-4.208.758-5.761-1.591-7.64-3.131-11.471-9.356-23.03-18.518-36.028-25.654-13.024-7.135-21.427-19.2-30.62-30.505-11.871-14.592-28.252-25.256-35.09-44.288-2.253-6.25-6.561-4.877-9.141.73-3.57 7.765-2.718 15.093 3.33 21.112 5.586 5.557 11.598 10.678 17.508 15.875 4.358 3.825 7.377 7.893 4.133 14.04-4.396 8.316.025 13.488 6.55 17.133 5.447 3.04 11.383 5.184 17.156 7.572 7.113 2.938 13.25 7.186 17.395 13.898 4.258 6.892 1.578 12.872-3.181 18.147-2.73 3.04-5.272 1.578-8.115-.642-17.62-13.745-35.403-27.284-53.098-40.926-8.616-6.648-17.307-11.781-29.054-10.523-11.371 1.219-13.475-1.58-14.326-13.347-.1-1.283.125-2.618-.175-3.837-.94-3.8-.426-9.831-5.861-9.19-5.197.617-7.126 5.776-6.587 11.128.7 7.07 3.23 13.68 6.099 20.007 8.152 17.915 7.714 38.012 14.1 56.403 2.154 6.21-2.58 8.354-8.115 8.354-6.361 0-13.211-2.053-18.684 5.686-7.301-17.338-8.691-34.266-9.505-51.142-.54-10.998-3.895-20.533-9.793-29.427-3.068-4.62-7.163-7.174-12.623-6.301-5.774.924-6.788 5.929-7.715 10.69-.425 2.169-.713 4.466-.538 6.66 1.678 20.188-11.146 30.416-25.472 40.015-.388-1.013-.964-1.848-.777-2.117 8.053-11.101 6.024-21.945 1.365-34.137-6.875-17.967-6.637-37.333-2.454-55.761 6.287-27.656 14.214-54.94 22.078-82.186 5.473-18.98 16.017-27.258 35.528-28.246 15.892-.81 31.897-1.091 47.576 2.438 10.907 2.452 18.584 10.1 25.634 18.365 2.029 2.36 1.703 5.159-1.265 6.263-6.6 2.464-4.182 7.16-2.43 10.934 5.51 11.948 13.138 22.522 22.718 31.3 20.037 18.327 41.088 35.357 62.74 51.655 12.349 9.304 24.508 11.73 38.234 3.85m49.879 114.628c2.768-.308 5.586-.423 8.29-1.052 7.026-1.617 10.545-4.851 4.434-12.32 5.598 2.759 13.938 4.158 12.874 10.613-.865 5.172-8.98 4.954-14.427 5.904-16.506 2.874-33.05 2.977-49.717.988 12.849-1.373 25.698-2.747 38.546-4.133m25.009-96.481c4.959-3.876 10.319-3.876 15.216.859 5.873 5.686 11.646 11.448 16.004 18.519.989 1.604 2.354 2.939 2.217 5.069-.226 3.504-2.793 5.352-5.398 5.763-6.362 1.013-13.036 2.399-18.835-2.118-2.892-2.26-1.365-4.967-.501-7.764.815-2.657 4.52-6.096.3-8.201-3.368-1.668-5.196 2.554-7.413 4.569a19 19 0 0 0-3.52 4.428c-3.793 6.622-7.112 8.072-11.62.256-2.68-4.633-8.478-5.557-13.375-8.675 10.695-1.104 18.923-6.468 26.925-12.705m-3.193 53.939c2.755 4.517 1.139 10.15-2.968 12.705-4.86 3.016-6.725-2.811-9.105-5.75-10.031-12.435-9.592-14.373 5.21-20.61 5.009-2.118 10.156-4.75 16.48-3.08-1.265 4.363-4.32 4.992-6.474 6.66-3.331 2.593-6.425 4.71-3.143 10.075m69.265 15.579c3.569-5.595 1.478-10.972-2.016-15.952-.664-.936-.99-2.117-2.618-5.723 6.675 4.85 11.108 7.75 15.178 11.113 5.96 4.903 6.074 10.396-.501 13.578-14.602 7.07-29.366 13.989-44.544 19.558-10.845 3.979-19.975-1.758-27.59-9.727-2.867-3.003-4.02-6.38-1.827-10.408 2.267-4.197 5.723-6.674 10.244-7.56.764-.153 2.14.168 2.417.719 7.489 14.528 22.717 8.496 33.937 13.039 6.7 2.708 13.312-2.361 17.32-8.637m-315.395 122.277c-3.418 5.634-15.065 7.264-22.053 2.426-4.86-3.388-8.866-8.034-13.525-11.768-13.036-10.473-26.636-19.623-44.282-12.423-5.485 2.246-10.632 5.223-10.644 12.975-.013 5.993-5.711 6.403-9.618 7.212-20.738 4.325-40.324.5-58.345-10.601-11.722-7.225-23.67-14.386-28.503-29.08-4.007-12.166-1.064-25.32 8.29-33.02 2.405-1.977 5.01-4.377 8.404-2.542 3.105 1.669 6.01 4.094 5.71 8.086-.35 4.812-4.796 4.337-7.877 5.223-13.224 3.81-16.53 13.719-8.49 25.038 2.078 2.9 4.783 4.004 7.814 4.684 3.043.693 6.199.873 9.254 1.514 17.508 3.658 17.508 3.684 23.707-11.806 2.955 4.324 1.515 9.445 2.868 13.924 1.39 4.594 2.654 9.882 8.954 9.073 5.81-.744 9.68-4.222 10.43-10.536.139-1.245.076-2.567-.136-3.825-1.416-8.367-4.308-17.774 10.18-14.283.727.167 1.979-.462 2.48-1.117 9.443-12.294 19.136-4.068 28.315.039 7.376 3.31 13.95 8.547 22.442 8.829 2.179.064 4.546.565 6.499-.115 5.034-1.746 11.07-3.837 11.233-10.036.163-6.147-5.911-8.213-10.694-8.637-11.497-1.014-20.188-5.39-24.32-17.068-1.09-3.093-4.884-6.302-1.127-9.37 3.043-2.476 5.71.643 8.14 2.619.939.757 1.978 1.643 3.794.32-.363-3.464-3.544-5.427-5.21-8.212-5.31-8.881-4.495-11.77 5.085-15.734 1.728-.732 3.53-1.245 5.31-1.861 13.587-4.66 14.15-5.968 8.215-19.674-.614-1.437-2.016-2.797-.752-4.286 1.654-1.925 3.444-.552 5.01.424 2.655 1.668 5.172 3.554 7.852 5.159 18.058 10.767 19.386 15.169 17.344 36.549-.99 10.395-3.682 19.109-9.918 27.13-3.82 4.902-1.991 7.174 3.945 7.649 4.233.346 10.632-2.94 12.197 3.298 1.54 6.109-4.483 9.278-8.578 12.564-8.867 7.122-8.841 9.394.814 15.63 3.694 2.388 7.55 4.493 11.32 6.738 9.894 5.865 12.637 12.026 8.466 18.89m-208.998-104.04c-5.347 9.639-7.113 9.677-13.738.463-.926-1.284-2.154-2.451-2.705-3.876-1.102-2.875-4.946-5.121-3.293-8.496 1.665-3.388 5.009.154 7.626-.641 2.017-.604 4.459.243 6.224-1.438 4.947-4.722 9.092-7.097 14.014.77 2.667 4.248 5.623.488 6.299-2.797 1.703-8.278 7.65-9.985 14.477-11.063 12.21-1.951 24.369-4.286 36.592-6.186 4.884-.757 4.972-4.081 4.72-7.725-.412-6.212 1.83-8.753 8.266-7.816 8.59 1.258 17.37-.256 26.036 1.977 5.135 1.32 8.516-3.093 11.496-6.828 4.22-5.274 5.924-2.425 7.25 2.143 1.567 5.39-.337 9.985-2.942 14.528-7.464 13.09-5.435 18.698 8.604 20.84 4.157.63 13.099 8.536 13.036-5.248-.012-1.822 4.984-1.95 7.614-.616 2.868 1.438 2.805 4.004 1.315 6.494-2.968 4.928-7.74 7.212-12.924 8.688-6.775 1.912-10.832 5.66-10.231 13.578.614 7.93-3.632 6.917-7.927 3.735-6.112-4.518-12.7-8.021-19.661-10.78-7.94-3.145-12.198-9.472-15.216-17.107-1.252-3.17-2.217-8.124-5.95-7.431-3.693.693-1.401 5.44-1.64 8.38-.412 5.018.552 12.269-5.271 12.68-5.761.397-6.287-6.622-6.775-11.807-.326-3.414-.013-7.328-4.408-8.496-2.23-.603-4.283-.077-6.011 1.669-2.28 2.284-2.03 5.21-2.142 8.072-.113 3.054 1.39 7.225-2.367 8.457-3.444 1.117-5.623-2.31-6.85-5.172-2.367-5.544-4.684-4.658-6.474-.026-5.523 14.27-19.662 12.859-30.331 17.518-4.371 1.912-4.183-4.492-6.713-6.442m-25.26-206.478c-.024 3.35-3.568 3.17-5.747 3.145-8.566-.09-16.105 5.313-24.771 4.479-2.93-.424-7.49.705-8.165-2.798-.902-4.62 4.27-4.428 7.076-5.634 8.378-3.606 16.93-6.686 26.26-3.786 2.468.77 5.373 1.86 5.348 4.594m-15.83 118.967c-2.942-13.963-2.53-28.606-9.141-41.825-5.761-11.486-10.582-12.974-21.076-5.133-6.112 4.569-11.46 10.639-21.29 11.345 5.085-7.623 12.586-9.715 18.009-14.464 9.88-8.662 11.609-16.478 5.02-27.617-4.181-7.071-9.98-10.511-18.12-8.137-8.365 2.439-16.756 4.852-24.983 7.739-6.074 2.13-12.31 1.59-18.472 2.182-2.467.23-5.234-.385-6.387-3.03-1.164-2.668.364-4.812 2.092-6.865 7.138-8.508 16.142-13.796 26.66-16.542 5.937-1.553 11.886-3.042 19.575-5.018-10.682-4.928-19.674-1.784-27.751.834-41.827 13.578-83.48 27.707-124.968 42.312-11.41 4.017-21.891 10.716-33.061 15.528-5.435 2.336-13.325 6.648-16.456-1.013-2.767-6.764 4.659-10.793 10.232-13.732 2.454-1.31 5.222-2.22 7.964-2.734 26.499-4.992 50.97-16.555 76.454-24.82a52487 52487 0 0 0 157.49-51.36c14.027-4.593 28.065-8.675 43.043-6.93 1.502.18 3.168-.038 4.783 2.478-8.24 6.044-18.246 7.122-27.488 9.65-12.95 3.53-25.96 6.84-38.308 12.205-16.92 7.354-19.862 16.658-9.367 31.878 12.097 17.544 18.784 37.217 24.007 57.674 2.504 9.869 6.048 19.417 10.782 28.413 6.524 12.359 13.5 15.04 26.298 9.112 10.545-4.877 21.24-6.673 32.736-6.07 18.409.975 23.744-6.404 18.659-24.897-4.045-14.72-11.897-27.233-20.963-39.245-6.8-8.996-14.001-18.121-13.212-30.775.689-11.28 4.77-21.085 12.185-29.234 3.907-4.286 8.328-9.908 15.065-4.736 6.312 4.85 10.795 11.037 7.439 19.725-1.816 4.71-4.12 9.33-6.838 13.553-7.752 12.063-6.787 23.92-.388 36.15 6.16 11.782 13.913 22.652 18.722 35.242 1.515 3.94 2.542 7.905 3.243 11.948 1.94 11.139-3.168 17.132-14.351 16.773-18.46-.616-36.818-.552-54.438 6.289-4.371 1.694-8.553 3.927-12.961 5.454-11.296 3.914-17.908-.27-20.438-12.307m1.387 106.015c-6.7 1.54-13.487 2.246-20.35 2.233-.313 0-.626.039-.94 0-4.62-.616-12.81 2.554-13.124-2.066-.425-6.391 8.216-6.52 13.25-7.405 6.95-1.206 14.25-1.322 21.314.257 2.042.462 4.634 1.476 4.709 4.004.088 3.13-2.868 2.528-4.86 2.977m-47.301-8.788c-8.29 1.399-12.448-2.22-14.164-12.268-1.04-6.032-2.003-12.231.126-18.02 2.492-6.775-.965-7.481-5.711-6.557-7.326 1.425-14.502 3.58-21.79 5.172-7.614 1.68-15.203 3.324-22.968 4.35-13.061 1.72-18.308 9.1-17.006 21.484.413 3.9 2.993 8.098-.676 11.717-.388.385-2.03.167-2.43-.334-2.943-3.62-1.315-7.918-1.502-11.036.713-13.373-2.255-18.455-13.926-24.05-5.335-2.554-10.92-4.608-16.343-6.982-6.186-2.72-4.721-5.852-.15-8.662 6.8-4.184 16.818-3.042 21.114 3.285 4.132 6.083 9.805 7.058 16.067 8.047 17.019 2.695 32.46-4.146 48.389-8.034.288-.077.626-.218.814-.437 3.08-3.4 4.296-9.175 11.459-4.286 12.248 8.368 28.127 12.526 31.37 30.3 1.403 7.687-4.758 14.964-12.673 16.31m-67.181 10.972c-3.907 0-9.092.154-9.87-4.427-.524-3.08 4.209-2.26 6.776-2.721 3.544.616 8.34 0 8.817 4.838.375 3.748-3.594 2.323-5.723 2.31m-25.733-4.251c.062 5.724-2.492 7.379-7.727 5.544-9.205-3.247-17.307-8.598-25.71-13.411-1.603-.911-2.755-2.181-2.041-3.683 3.068-6.442.275-12.666-.764-18.762-1.102-6.456 1.916-5.673 5.623-4.402 4.42 1.5 8.64 3.773 13.136 4.915 17.119 4.389 17.357 4.543 17.483 23.074 0 2.246-.025 4.479 0 6.725m11.678-57.652c8.992-2.592 18.008-5.108 27.125-7.161 2.843-.642 7.264-.603 7.464 3.542.188 3.914-4.095 2.888-6.575 3.234-4.796.655-8.991 2.682-12.886 5.364-2.392 1.656-4.608 3.286-9.167 2.683-1.227-.488-3.945-1.284-6.4-2.618-3.305-1.797-3.218-3.992.439-5.044m30.948-106.908c-2.554 3.812-3.757 8.688-7.852 11.627-3.206-3.118-5.81-6.378-3.907-10.908 1.478-3.568 5.135-4.53 8.478-5.147 3.369-.615 5.172 1.605 3.28 4.428m-19.197-10.074c-9.28 3.696-18.46 7.7-27.838 11.114-22.88 8.354-46.073 15.849-68.452 25.64-5.497 2.414-11.408 3.222-17.407 3.119-3.832-.808-10.231 1.694-10.882-2.72-.752-5.108 6.06-5.172 9.805-6.29 31.12-9.264 61.376-21.02 91.38-33.455 7.077-2.94 14.353-4.223 21.917-4.07 2.079.053 4.934-.461 5.522 2.337.589 2.772-1.991 3.504-4.045 4.325m-153.558 16.388c-3.37 6.943-8.766 10.806-16.443 10.383-11.847-.642-23.72-.193-35.528-2.003-13.85-2.13-22.141-10.972-27.476-23.215-3.356-7.713-.388-12.115 8.003-12.628 23.73-1.412 47.45-1.63 71.206-.475 12.06.59 24.182.102 37.544.102-4.232 5.673-9.717 6.404-14.476 8.034-10.294 3.517-17.984 9.83-22.83 19.802m-59.134-150.318c8.528-42.158 24.019-82.326 34.6-123.932 9.143-35.972 12.449-72.368 9.682-109.29-2.442-32.558-15.942-57.378-46.85-71.123-25.434-11.306-47.35-28.26-64.606-50.923-1.728-2.26-3.168-4.761-4.621-7.212-.59-1.014-.864-2.221-1.691-4.441 11.609.629 21.29 4.903 30.845 9.073 21.464 9.382 42.628 19.43 64.093 28.773 11.258 4.902 23.043 7.777 35.516 6.507 5.472-.552 11.72-1.335 12.973-7.174 1.49-6.943-5.685-8.393-10.231-10.267-14.34-5.903-28.928-11.191-44.27-17.043 4.584-2.297 9.218-3.888 13.038-6.66 7.8-5.686 10.494-14.951 13.199-23.652 1.99-6.366 4.132-12.641 6.574-18.814 3.469-8.778 7.226-10.305 14.99-5.121 14.315 9.548 23.068 23.909 30.77 39.052 12.61 24.807 12.498 51.732 12.423 78.618-.113 44.21-5.247 88.114-8.002 132.172-1.954 31.442.976 62.69 2.19 94.017.928 24.256 1.09 48.639 8.166 72.163 3.845 12.795 8.353 25.346 11.784 38.308 3.244 12.268-2.642 22.176-18.321 22.997-9.03.488-18.071 1.476-27.087 1.373-18.798-.192-36.067 6.674-53.787 11.435-18.547 4.992-24.783 1.027-27.388-18.147-2.83-20.7 1.978-40.76 6.01-60.69m-83.98-410.977c-1.815 3.619-2.88 8.945-7.438 9.009-4.896.064-6.662-5.236-8.791-9.073-8.077-14.49-7.101-19.392 6.85-27.874 9.98-6.071 16.38-13.745 18.134-26.065 1.853-13.052 10.38-17.056 24.257-12.256-2.805 4.26-6.575 4.582-10.194 5.428-2.254.527-4.258 2.144-3.97 4.646.35 3.106 3.269 2.503 5.26 2.464 10.607-.205 21.239-1.206 31.796.475 2.517.41 6.863-.244 6.888 3.208.025 4.159-4.56 3.696-7.326 3.825-13.062.654-26.136.885-39.197 1.347-1.78.064-3.757.026-5.248 2.464 7.176 4.518 14.99 1.925 22.404 2.387 2.467.154 4.972-.385 7.45-.577 5.073-.372 10.37.5 10.546 6.545.188 6.263-5.335 7.289-10.244 6.917-20.425-1.527-32.51 9.985-41.176 27.13m37.782-85.766c9.405 7.79 19.449 14.746 29.166 22.15 1.59 1.22 4.609 2.13 3.357 4.865-1.152 2.54-3.908 1.244-5.85.782-10.393-2.528-19.96-6.814-28.288-13.885-9.468-8.034-18.91-16.055-26.311-26.386 10.569 1.822 19.76 5.71 27.926 12.474m158.455 27.053c1.115.09 2.655.488 3.168 1.296 1.14 1.81-.626 2.939-1.778 3.773-2.767 2.002-5.497 4.466-8.641 5.48-7.864 2.567-15.754 5.005-23.906 9.56 6.123-12.358 20.012-21.007 31.157-20.11m37.519-96.558c3.519-.513 5.01 2.054 4.922 5.172-.1 2.862-1.065 5.608-4.86 5.878-2.942-.231-5.16-1.745-5.021-5.16.125-3.041 1.929-5.453 4.959-5.89m27.539 1.27c.225 1.797-1.002 3.44-2.755 3.67-1.741.245-3.344-1.026-3.582-2.81-.225-1.796 1.002-3.44 2.755-3.67 1.74-.231 3.344 1.027 3.582 2.81m-1.478-9.907c-.276 1.592-1.565 2.13-2.705 1.733-8.578-2.94-17.445-2.285-26.662-1.194 1.716-6.34 7.364-5.916 11.484-6.211 5.723-.411 10.119.629 16.004 2.913.877.347 2.142 1.194 1.879 2.759m26.045 142.636c6.274-4.286 17.686-8.116 24.573-7.05-4.533 6.814-16.257 9.617-24.573 7.05m88.116-145.151c-1.741.23-3.344-1.027-3.582-2.823-.225-1.784 1.002-3.427 2.755-3.658 1.74-.244 3.344 1.014 3.582 2.81.225 1.797-1.002 3.44-2.755 3.67m-144.98-95.133c4.044-.924 4.02 3.76 5.334 6.429 3.807 7.662 6.588 15.875 11.985 22.703 6.16 7.802 14.013 10.523 23.356 8.149 5.735-1.463 11.358-3.286 17.332-3.722 6.173-.462 6.549-3.414 3.13-8.072-4.683-6.391-9.517-12.808-10.27-21.15-.274-3.131.202-6.352.54-9.51.238-2.322 1.24-4.62 3.719-4.902 2.93-.333 3.344 2.477 3.807 4.543 2.305 10.319 5.335 20.316 11.634 28.927 1.052 1.45 1.829 3.478 4.67 3.247 1.404-8.213-4.081-16.08-1.99-25.808 9.367 9.676 11.597 24.87 27.238 28.606-3.043-10.357-9.117-17.723-11.61-26.797-2.491-9.06-.926-18.454-3.718-27.463 5.936 5.865 7.964 13.552 9.893 21.098 3.118 12.14 7.088 23.819 14.339 34.098 5.072 7.174 2.843 11.538-4.934 14.335-7.038 2.54-14.727 2.926-21.302 7.046-2.68 1.68-5.385 3.157-7.426 5.698-1.591 1.95-2.03 4.286-1.027 6.25 1.24 2.425 3.794 1.694 5.823.95 2.63-.963 5.423-1.823 7.689-3.414 16.368-11.537 34.84-12.86 53.787-11.884 4.296.218 5.76-.201 8.967 3.482 4.72 5.442 8.503 12.038 4.346 19.084-4.158 7.058-5.686.815-10.746-1.892-15.791-8.393-32.472-6.942-46.774 5.532-.94.82-1.853 1.694-2.63 2.669-.363.449-.363 1.194-.89 3.119 15.756-4.3 30.007-13.847 46.475-5.031-2.993 4.107-6.324 2.708-9.192 2.657-9.217-.13-17.996 1.719-26.236 5.826-4.972 2.477-8.253 6.622-9.155 12.384-.25 1.604-.062 3.478 1.654 4.004.876.27 2.19-.616 3.18-1.193.802-.462 1.403-1.271 2.117-1.887 10.457-8.88 10.532-8.893 14.038 4.184.576 2.13 1.378 3.17 3.507 3.709 22.49 5.826 51.506-22.573 45.319-46.186-2.18-8.342-4.37-16.531-1.89-24.77 1.679-5.583.915-11.371-.15-17.12-.826-4.466-2.241-9.15.4-14.925 9.456 12.217 6.35 26.32 8.868 38.513 4.195 1.116 4.67-2.528 6.31-3.978 3.12-2.76 5.173-3.863 8.555-.385 5.51 5.659 11.87 10.266 18.434 14.617 3.757 2.464 6.499 6.096 6.574 11.01.65 40.683 8.29 80.723 9.83 121.405 1.253 33.162-9.905 57.199-37.255 74.69-24.32 15.568-48.04 32.02-76.153 39.849-10.632 2.95-21.452 4.119-32.398 3.169-15.178-1.321-27.576-15.323-27.813-30.851-.101-6.558 3.73-8.765 9.242-9.87 8.615-1.706 16.68 1.618 25.008 2.516 2.818.296 5.485.886 8.24-.27 2.918-1.218 4.809-3.336 4.584-6.506-.226-2.9-2.555-4.068-5.197-4.697-5.31-1.283-14.527-1.687-15.015-4.068-1.387-6.757 7.665-5.41 14.952-8.393 1.143-.468 2.292-1.014 3.43-1.527 5.023-2.22 10.508-5.198 10.634-10.973.137-5.723-6.525-6.7-10.395-9.65-17.144-13.116-36.267-4.93-54.5-5.34-6.412-.153-7.038 6.623-6.387 11.756 1.102 8.663 4.208 16.658 10.419 22.972 1.44 1.476 2.78 3.029 1.653 4.954-1.315 2.27-3.306.718-4.946.09-3.92-1.515-7.401-3.773-8.992-7.92-9.455-24.575-24.057-46.853-30.857-72.623-2.692-10.177-4.208-20.444-5.122-30.98-.714-8.188 2.58-11.64 9.042-14.297 6.362-2.605 10.439-4.708 16.55-7.891 7.476-3.888 9.255.308 8.403 6.48-1.653 11.975-4.07 23.846-6.111 35.768-2.668 15.554 8.397 28.266 23.774 24.934-1.177-5.66-6.55-5.454-10.018-7.328-7.19-3.888-8.03-8.923-6.828-17.765 1.804-13.36 5.823-26.104 8.729-39.142 2.367-10.614.905-23.081-7.26-30.986-8.641-8.367-20.24-5.493-30.871-3.234-3.644.77-6.75 2.923-10.281 4.129-3.018 1.04-6 2.413-8.503-.898-2.392-3.183-1.654-6.827-.69-10.126 1.09-3.708 4.472-4.042 7.728-3.901 3.43.128 6.862.526 10.294.5 2.24-.025 5.472 1.412 6.06-2.425.452-2.94-1.74-4.71-4.02-5.903-4.295-2.26-9.053-2.131-13.725-2.44-2.73-.178-6.3.592-7.238-2.873-.927-3.44.363-6.905 2.98-9.561 2.83-2.862 6.475-3.607 10.232-4.171 7.176-1.065 9.693-4.376 6.224-11.82-4.333-9.304-7.151-19.083-4.984-29.684.664-3.26 1.49-7.2 4.47-7.88m44.846 24.102c-6.938-2.952-15.88-38.141-13-45.251 2.693 5.223 4.672 15.477 9.068 26.732.65 1.669 4.646 16.76 3.932 18.519m.188-132.582c.914-1.207 2.329-2.067 3.656-2.862 4.609-2.772 8.428-7.431 14.552-6.597.25.039.727 2.04.376 2.413-4.897 5.159-9.918 10.203-14.928 15.259-.175.167-.601.077-1.703.167.464-3.067-5.034-4.338-1.953-8.38m68.476 111.65c-1.841.488-2.905-.962-3.281-2.528-2.167-9.086-4.22-18.21-6.312-27.31 6.863 7.79 10.332 16.389 11.133 25.963.126 1.578.414 3.375-1.54 3.875m25.459-21.354c6.25 9.124 5.285 17.222 5.598 25.012-4.834-6.66-6.687-14.053-5.598-25.012m11.647 57.776c1.027-6.648-.64-13.681 3.544-20.174 1.039 6.647 2.079 13.308 3.143 19.956.313 1.963.514 4.363-1.74 4.67-2.755.373-5.348-1.924-4.947-4.452m41.076-128.912c-9.97-4.736-17.244-12.846-25.923-20.598 8.929 1.065 21.264 10.639 25.923 20.598m20.976-8.111c1.778-1.578 3.532-.295 5.134.59 6.462 3.58 11.785 8.792 15.404 15.054 15.767 27.246 26.95 56.378 32.472 87.665.376 2.118.05 4.364.05 9.022-7.801-8.662-8.415-17.505-10.957-25.436-7.477-23.228-19.65-43.84-32.823-63.974-3.62-5.531-6.337-11.691-9.292-17.646-.777-1.592-1.804-3.671.012-5.275m83.254 24.153c-3.782-.578-4.471-4.261-6.062-6.545-12.272-17.57-27.99-30.608-47.287-39.258-10.27-4.607-14.927-15.785-26.098-21.868 21.803.295 70.205 42.543 79.447 67.67m-6.907 367.102c9.864-66.758 2.962-127.616-1.434-170.146 18.534 28.015 13.627 126.49 1.434 170.146m-35.96 26.616c8.253-36.062 11.346-72.868 15.09-109.572 1.127 37.409-3.368 74.01-15.09 109.572m-5.385-139.756c5.385 7.563 9.02 65.778 4.122 83.793 2.177-36.623-5.362-72.295-4.122-83.793M945.75 973.119c-4.747-7.456-5.085-30.582-.64-43.967 6.4 7.495 6.663 26.18.64 43.967m-18.835 17.775c1.327 6.827-1.88 12.499-7.151 16.619-16.743 13.129-34.564 19.263-55.577 10.536-13.976-5.801-27.74-11.55-36.994-24.448-7.94-11.05-7.651-16.58 5.723-20.418 25.46-7.315 48.916-20.187 73.56-29.85 5.536-2.17 10.095-6.93 16.619-11.576-.99 21.355.188 40.31 3.82 59.137m92.283 81.415c.25 17.94.062 35.882.062 55.53-1.202 25.757.626 53.4-3.982 80.658-3.093 18.352-11.196 34.47-23.293 48.28-9.417 10.74-17.72 11.1-28.415 1.938-2.392-2.041-4.483-4.441-6.725-6.674-9.58-9.561-9.555-9.548-17.758.283-4.633 5.557-10.456 5.993-17.056 4.58-17.157-3.682-29.718-14.526-40.6-27.591-30.52-36.652-51.27-78.348-60.675-125.755-4.533-22.817-12.222-44.827-16.167-67.8-2.13-12.41-2.28-24.82-1.653-37.318.125-2.606.138-5.737 2.667-6.725 2.643-1.04 4.47 1.822 6.162 3.503 10.67 10.678 20.15 22.947 35.277 27.644 5.648 1.745 11.359 3.298 17.007 5.082 7.1 2.246 10.87 7.16 10.807 14.899-.075 8.008-.012 16.029-.388 24.025-.2 4.337 1.465 6.66 5.435 7.379 9.017 1.617 20.5-8.098 20.75-17.543.05-1.913-.124-3.838-.337-5.75-3.018-26.308 21.84-45.11 45.847-34.458 8.378 3.722 16.23 3.825 24.169-.885 5.148-3.03 10.382-5.916 15.642-8.714 13.4-7.136 21.828-3.722 26.336 11.37 5.26 17.569 6.637 35.78 6.888 54.042m8.716-249.675c3.206-1.424 4.746 2.259 5.973 4.556 8.253 15.54 12.81 32.315 15.166 49.743.513 3.824.15 7.725-2.23 11.01-4.12 5.673-7.275 11.782-9.855 18.866-.59-7.482-1.415-14.964-1.716-22.46-.751-18.57-5.573-36.471-8.14-54.746-.338-2.451-1.728-5.852.802-6.97m25.935-8.56c-10.62-12.691-17.382-27.18-19.11-43.786 8.378 13.847 14.689 28.387 19.11 43.787m10.269-38.038c5.923 11.69 14.652 19.853 25.109 27.515 24.42 17.903 47.788 37.32 55.903 69.314.463 1.848 1.265 3.683 1.34 5.556.1 2.054 1.252 4.826-1.265 6.006-2.505 1.168-4.057-1.257-5.322-2.9-7.34-9.484-13.776-19.84-21.928-28.503-21.477-22.87-42.078-46.354-57.218-74.28-4.408-8.15-8.366-16.568-12.536-24.858 8.39 5.569 11.86 14.129 15.917 22.15m79.897 40.297c-17.457-13.783-32.848-29.568-45.546-47.997 16.806 14.399 33.36 29.029 45.546 47.997m-8.428-106.902c14.477-30.724 24.045-63.513 37.419-94.711 3.72-8.663 7.176-16.722 18.422-17.66 12.285-1 17.607 7.239 23.493 15.748 17.87 25.782 23.068 54.503 19.662 85.393-.39 3.465-.051 7.033-.051 10.549-2.016 26.797-.413 53.798-5.247 80.389-2.492 13.706-7.226 26.36-15.804 37.37-9.117 11.679-22.38 14.618-35.49 17.147-7.001 1.347-9.606-4.004-10.081-10.716-1.165-16.581-3.144-32.982-7.14-49.23-4.532-18.467-14.375-33.893-24.331-49.293-5.548-8.585-5.047-16.08-.852-24.986m-3.231-458.13s31.108 60.947 28.84 138.808c0 0-13.724-102.193-28.84-138.807m1.29 214.653c-16.317-2.272-28.778-9.035-36.166-25.911-15.316-34.971-35.541-67.3-54.651-100.191-1.528-2.631-4.734-5.326-2.48-8.547 1.766-2.515 5.222-1.193 7.977-1.104 12.023.398 23.757-1.475 35.516-3.131-.025-.81-.05-1.617-.063-2.438-4.771-.501-9.542-1.078-14.314-1.49-16.968-1.45-20.638-8.007-12.698-23.818 5.836-11.64 12.072-23.074 18.459-34.406 8.916-15.811 19.486-30.428 31.42-43.981 1.74-1.976 3.219-5.697 6.55-4.183 3.344 1.5 1.315 5.12 1.403 7.777.676 20.444-3.645 40.156-10.244 59.136-6.174 17.736-4.66 33.945 3.03 50.77 13.2 28.862 25.385 58.225 38.046 87.344 3.18 7.315 5.835 14.745 7.576 22.574 3.143 14.207-5.047 23.6-19.361 21.599m27.55 81.415c12.862-30.03 11.81-59.278 3.796-88.782 10.607 12.744 15.729 73.048-3.795 88.782m75.79 336.89c8.528-25.345 14.852-50.987 16.98-78.142 2.932-37.423 2.38-74.73 2.068-112.113-.025-3.106-.176-6.404 3.368-9.728 12.66 18.557 20.4 38.796 29.029 58.482 17.332 39.488 34.839 78.926 49.266 119.672 2.542 7.187 4.709 14.514 6.787 21.868 2.705 9.548.35 12.564-9.254 11.704-11.81-1.065-23.57-2.515-35.378-3.593-18.246-1.643-36.004 3.67-54.125 4.119-12.861.308-12.811-.167-8.741-12.268m7.802 86.818c-13.563-26.283-31.145-48.408-57.52-62.358-10.794-5.711-18.896-14.58-23.154-26.604-1.04-2.94-3.193-6.378-.338-8.906 3.03-2.695 6.06.475 8.39 2.105 32.548 22.638 59.46 50.46 75.54 87.947 4.032 9.42 8.954 18.557 11.433 30.89-7.213-7.802-10.532-15.67-14.351-23.074m-98.194 120.198c.827.667 1.666 1.322 2.492 1.976l-22.804 31.647c1.54-14.861 8.904-25.654 20.312-33.623m-3.606-38.141c-7.09 15.143-17.445 28.45-23.62 44.108 1.742-18.146 9.406-32.97 23.62-44.108m6.399-62.473c-5.548 16.516-15.053 30.89-23.944 45.52 5.923-16.35 12.736-32.161 23.944-45.52m-36.58-51.001c-3.807.026-5.122 4.71-11.108 4.3 17.707-31.532.964-59.034-9.53-87.396 4.846-.821 5.284 2.862 6.612 4.954 9.317 14.707 18.785 29.324 17.382 48.228-1.453 19.545-1.127 19.66 15.704 11.768-1.653 12.91-6.938 18.069-19.06 18.146m-31.383-51.397c15.065 19.34 18.396 53.233-1.741 71.302 3.945-25.27 10.657-48.305 1.74-71.302m-11.984 19.506c8.954 16.709 7.1 33.7-5.022 45.559 2.693-14.54 6.513-28.94 5.022-45.56m-40.412 61.576c4.546-14.348 8.29-28.862 9.73-43.916.076.283.164.552.564 1.86-.901 13.977.539 29.467-10.294 42.056m-321.606-28.76c5.899 3.915 12.235 4.94 11.384 10.37-.727 4.697-20.81 5.999-26.306 5.845 2.392-4.685 34.45 1.162 14.922-16.215m7.79 486.016c-3.156 14.81-17.157 22.689-30.607 16.76-12.034-5.326-24.157-6.378-37.306-5.878-22.517.873-45.121-.808-67.688-1.411l-.112-2.644c14.088-4.017 28.828-3.735 43.117-6.596 20.45-4.07 41.088-7.097 61.563-11.024 7.402-1.425 14.715-2.708 22.229-1.835 7.389.86 10.382 5.197 8.804 12.628m-5.01-63.552c-.488 1.682-.288 4.03-3.631 4.313-3.081-9.022-2.831-18.686-2.555-27.926 1.115-38.68-5.823-76.436-10.707-114.5-4.872-37.897 7.013-71.88 27.137-103.232 1.39-2.182 2.93-4.364 5.96-3.722 3.42.732 3.858 3.799 4.585 6.57 4.87 18.597 3.218 37.577 2.454 56.365-1.027 25.257-3.018 50.46-5.06 75.653-2.917 36.05-7.99 71.739-18.183 106.479m234.496 45.636c-3.357 6.879-8.854 10.228-15.128 10.639-6.4-.282-13.99-.36-14.915-5.223-1.065-5.557 6.437-5.775 10.957-7.212 4.709-1.502 9.268-3.466 13.976-4.993 2.067-.667 4.446-.782 5.848 1.463 1.165 1.848.113 3.594-.738 5.326m46.047-7.341c-10.707-8.097-19.586-16.683-21.527-30.954-.814-6.07-5.848-6.61-10.094-5.428-14.927 4.17-30.155 4.633-45.434 5.159-3.994.128-8.503.885-11.17 4.286-11.835 15.015-29.267 18.416-45.772 23.832-42.065 13.783-83.855 28.439-126.484 40.36-1.79.5-3.644 1.746-5.16-.09-1.527-1.873-.275-3.631.978-5.081 9.304-10.741 10.068-23.575 9.129-37.037-.927-13.347 2.905-25.975 7.25-38.295 5.849-16.543 18.698-23.036 35.003-23.935 29.592-1.617 59.159-3.773 87.912-11.742 13.2-3.658 26.21-8.188 39.122-12.86 27.99-10.138 57.168-8.456 86.084-9.586 3.119-.115 6.237-.013 10.194-.013 22.83 1.989 46.636.167 70.305 3.452 8.428 1.18 17.332-1.501 26.035-2.027 3.482-.205 8.979-1.258 8.867 4.107-.113 5.21-5.235 5.71-9.418 4.722-33.662-7.905-67.65-4.132-101.562-3.105-9.367.282-18.747.32-28.114.55-7.201.168-12.098 2.979-11.86 11.372.226 8.419 6.01 9.792 12.323 9.612 40.625-1.13 81.2-.423 121.737 2.515 16.794 1.22 25.297 9.613 28.966 29.363 2.617 14.066-1.93 22.472-17.921 29.26-15.19 6.443-23.931 17.313-27.287 33.676-4.283 20.867-9.48 41.528-13.726 62.408-1.565 7.649-4.708 12.064-12.661 12.654-13.111.988-26.11 1.284-38.984-2.156-7.101-1.886-11.997-6.365-15.604-12.692-4.608-8.072-3.992-13.618-6.522-22.487-3.67-12.91 2.467-22.997 10.595-32.02 8.779-9.752 5.207-19.953-5.2-27.82m274.882-393.486c9.167 13.54 16.042 27.567 9.18 44.622-4.233-14.617-2.542-30.531-9.18-44.622m-2.091 324.994c1.165 30.313-.175 60.767 4.972 90.86 1.59 9.267 5.385 17.673 9.605 25.86 8.265 16.03 6.37 25.908.296 42.13-1.803 4.838-3.757 5.108-7.463 2.515-12.16-8.521-23.231-18.287-32.548-30.03-2.454-3.08-3.381-6.635-2.893-10.767 1.453-12.436-.634-18.144-6.971-28.911-1.165-1.977-2.693-3.98-1.102-6.096 1.503-1.99 4.02-1.617 6.124-1.104 7.939 1.938 15.24 5.519 22.479 9.279 2.379 1.232 5.698 4.222 7.488 1.322 2.23-3.594-1.647-6.97-3.951-8.703-7.802-5.865-17.098-12.176-27.392-12.766-11.396-.654-20.715-2.851-30.658-8.331-12.7-7.007-25.936-12.807-40.563-13.398-10.444-.41-14.401-5.608-15.215-15.875-1.666-20.713-4.91-41.311-6.174-62.05-2.83-45.97-6.061-91.938-6.086-138.074 0-8.714 2.629-14.438 9.304-19.327 28.277-20.688 58.658-37.27 91.168-49.717 14.064-5.39 17.119-3.311 17.708 12.153.977 25.59-.601 51.257 1.929 76.795 2.34 23.819 4.383 47.702 7.689 71.393 3.394 24.268.689 48.6 2.254 72.842m-8.68-841.296c33.45 55.582 72.573 106.813 113.06 157.107 49.178 61.087 99.27 121.469 143.502 186.56 4.62 6.789 8.704 14.014 12.536 21.303 6.124 11.615 4.897 17.26-6.762 21.856-25.811 10.177-51.91 19.237-79.522 23.755-31.633 5.17-49.58-13.822-65.822-36.165-16.868-23.19-27-50.256-39.26-76.038-28.352-59.65-54.237-120.532-84.28-179.36-4.584-8.971-9.417-17.66-12.661-27.49-4.195-12.743-.326-24.691.113-36.973.839-23.96-4.734-46.906-10.42-69.801-3.205-12.91-6.987-25.654-10.52-38.487 16.319 15.682 28.466 34.509 40.037 53.733m-18.233-87.588c2.166-4.145 3.657-8.662 5.81-13.86 3.18 2.772 3.319 5.582 3.344 8.457.125 11.204.25 22.407.388 33.61.026 2.234.55 4.89-1.853 5.969-2.642 1.18-3.795-1.707-5.022-3.196-11.083-13.604-11.07-14.912-2.667-30.98m34.614-70.173c1.565-23.883 3.844-47.715 7.488-71.405 2.33-15.093 4.859-30.185 6.4-45.367.927-9.111 5.122-15.053 12.936-18.133 22.179-8.753 45.27-7.97 68.326-5.621 7.727.795 3.23 5.98 1.678 9.124-7.726 15.63-15.716 31.12-23.606 46.675-.94 1.86-2.742 3.183-1.778 5.994 2.279 6.673-1.565 7.584-6.236 5.48-7.038-3.183-7.09 1.706-7.877 6.237-3.206 18.44-4.634 37.268-12.924 54.503-8.378 17.44-20.538 31.814-33.537 45.623-4.722 5.018-6.663 1.386-7.401-2.733-1.804-10.023-5.16-19.892-3.47-30.377m21.14-186.278c10.657-9.265 19.849-20.212 31.833-28.015 7.965-5.198 15.066-6.006 23.306-.654 16.38 10.626 26.599 26.655 36.38 42.94 4.195 6.994-2.392 13.488-8.178 13.244-27.826-2.72-51.796-.051-74.725-7.648-2.067-.693-4.233-1.13-6.224-2.015-11.835-5.262-12.235-9.28-2.392-17.852m25.885 277.485c38.57-34.894 31.107-110.368 32.335-122.854 9.43 85.727-8.503 114.19-32.335 122.854m277.387 585.603c3.982-20.713-.752-40.67-6.537-60.292-9.818-33.328-20.463-66.297-38.797-96.097a1169 1169 0 0 0-79.046-112.96c-52.26-66.053-102.652-133.66-155.95-198.866-17.57-21.51-18.296-43.942.376-64.912 28.315-31.776 44.457-67.953 46.673-111.022.789-15.285 3.294-30.531 5.86-45.636 6.538-38.372 21.84-74.331 29.969-112.267 5.109-23.857 9.756-48.125-6.95-69.762-8.73-11.307-18.397-21.78-28.641-31.686-12.711-12.295-28.077-14.527-42.178-5.968-32.547 19.777-57.881 45.315-57.481 88.448.238 25.629-4.22 50.872-8.54 76.09-4.584 26.706-7.99 53.618-12.16 80.4-2.643 16.929-3.82 34.228-10.783 50.18-5.234 12.012-10.432 12.872-19.047 2.978-8.942-10.254-17.207-21.163-26.65-30.891-7.601-7.841-12.811-17.158-14.54-27.31-5.246-30.62-16.141-59.585-23.643-89.512-3.381-13.514-6.211-27.464-16.167-38.244-12.573-13.616-27.2-12.77-37.62 2.644-4.082 6.03-7.476 12.55-11.671 18.493-15.303 21.688-32.347 42.055-46.085 64.962-10.144 16.902-10.72 33.624-1.34 50.744 6.249 11.409 12.999 22.548 19.223 33.97 6.5 11.935 14.577 22.985 19.474 35.805.8 2.079 3.594 4.723.626 6.815-2.517 1.758-4.66-.693-6.562-2.26-7.038-5.787-13.888-11.806-21.064-17.401-3.507-2.746-8.002-5.274-12.085-2.31-4.258 3.093-3.757 8.316-2.843 13.244 1.954 10.524 9.919 15.952 17.495 21.496 8.954 6.558 17.908 13.129 23.018 23.447 14.614 29.568 31.232 58.148 43.054 89.115 5.535 14.502 14.326 25.82 27.288 34.176 14.464 9.342 15.954 15.888 7.589 30.94-9.768 17.557-17.695 35.845-23.068 55.313-1.69 6.122-3.581 12.218-5.936 18.095-2.341 5.853-4.558 12.77-12.072 13.129-7.088.334-11.321-5.428-14.49-10.806-5.772-9.83-10.932-20.097-15.828-30.428-19.073-40.245-40.663-78.438-74.926-107.724-23.87-20.405-48.19-39.193-79.121-47.265-39.8-10.382-79.034-4.57-117.48 5.338-66.184 17.056-113.597 60.536-148.774 118.812-16.355 27.092-15.98 55.107 1.227 82.173 5.836 9.176 11.196 18.62 13.65 29.273 5.56 24.268 10.607 48.677 13.2 73.47 1.452 13.874-1.428 26.875-12.561 36.474-8.328 7.187-16.493 14.63-25.234 21.252-27.3 20.675-35.728 19.186-55.102-8.88-.175-.27-.375-.514-.551-.783-10.757-17.325-20.308-28.378-39.393-32.344-14.715-3.054-29.43-5.993-40.738-17.543-20.863-21.33-32.188-63.728-16.672-90.562 9.279-16.042 23.305-27.297 36.592-39.284 38.509-34.765 47.325-75.64 26.123-123.47-7.263-16.376-13.4-33.11-15.015-51.13-2.517-27.757 9.593-55.285 38.47-63.037 8.404-2.258 16.92-4.26 25.085-7.225 4.72-1.707 9.38-5.582 9.067-11.075-.376-6.455-6.6-6.635-11.446-7.623-.915-.18-1.866-.09-2.806-.141-43.13-1.99-75.977 27.72-80.75 71.713-3.092 28.49 4.234 54.35 15.655 79.58 15.617 34.535 16.168 53.63-15.165 84.61-7.865 7.765-16.318 14.9-24.307 22.537-15.58 14.899-28.691 31.89-31.321 54.118-4.471 37.705-6 72.7 11.659 107.004 5.698 11.075 4.92 17.659-3.432 26.873-3.82 4.222-10.24 10.286-14.085 14.482-17.57 19.212-19.748 33.252-7.601 56.16 8.804 16.606 25.08 33.144 29.777 51.444 5.56 21.637 19.248 33.983 39.36 40.836 15.704 5.365 30.43 13.219 44.169 22.74 12.135 8.407 23.243 18.237 23.38 34.83.15 19.213-.601 38.424-1.252 57.623-.438 12.782-1.377 25.487-3.72 38.128-4.871 26.18-14.163 50.962-22.14 76.128-14.99 47.317-28.114 94.929-23.305 145.442 2.329 24.486-3.92 46.546-13.976 68.363-7.44 16.132-18.36 25.937-35.628 28.735-6.375 1.026-12.95 2.348-18.297 6.737-2.755 2.259-5.472 4.8-5.034 8.637.5 4.286 4.508 5.21 7.752 5.839 8.616 1.68 17.369 1.617 26.136 1.489 30.606-.437 61.225-.822 91.83-.963 38.836-.18 77.256 5.03 115.577 10.575 16.268 2.349 33.763 1.245 48.465 9.279 22.103 12.089 45.183 12.384 69.102 11.883 20.125-.423 39.335 5.724 57.982 13.296 3.18 1.283 7.639 2.605 2.58 6.814-7.251 6.045-14.502 12.102-22.767 16.76-2.993 1.695-5.498 1.04-7.852-.654-9.793-7.045-20.94-11.024-31.947-15.502-19.485-7.931-38.733-10.973-59.021-2.58-9.781 4.043-20.488 5.903-31.057 6.34-14.74.616-23.97 7.033-27.238 22.279-2.53 11.768-10.144 18.608-21.79 20.777-8.641 1.604-16.87 4.325-24.395 9.227-4.083 2.67-9.38 5.904-8.478 10.408 1.077 5.39 7.288 2.785 11.333 2.772 14.99-.013 29.993-.282 44.983-.462 4.032-.038 9.756-.783 10.595 3.478.8 4.03-5.185 4.543-8.428 5.71-12.135 4.339-24.784 6.25-37.607 6.982-10.607.604-21.214 1.194-31.81 1.925-3.08.219-6.55.604-7.55 4.299-1.015 3.774 1.903 5.89 4.37 7.778 7.639 5.826 16.293 7.905 25.672 6.622 9.58-1.297 19.16-2.618 28.716-4.146 25.159-4.03 50.693-5.03 75.715-10.715 13.487-3.068 27.313-5.403 41.727-3.324 22.629 3.247 45.308 3.003 67.7-3.902 11.095-3.426 22.228-1.065 32.334 5.57 11.797 7.739 20.75 18.326 28.966 29.62 28.177 38.692 59.96 74.395 89.002 112.395 10.594 13.873 30.769 22.753 50.268 10.292 13.725-8.791 27.3-17.825 41.15-26.398 49.667-30.723 99.948-60.471 143.778-100.024 8.103-7.302 17.458-10.215 28.616-7.841 11.847 2.502 23.769 5.095 36.029 4.864 54.5-1.053 107.248-10.447 157.278-33.585 15.065-6.97 30.205-13.36 41.113-27.002 10.908-13.655 9.705-26.45-4.083-36.91-5.998-4.568-12.26-8.803-18.02-13.666-38.547-32.495-76.83-65.323-115.551-97.612-18.422-15.348-27.15-14.9-46.812-1.078-9.467 6.66-18.271 14.515-29.466 18.326-3.056 1.04-6.137 2.503-8.892.296-3.055-2.452-1.465-5.801-.601-8.868 5.41-19.238 4.446-37.77-4.896-55.75-4.71-9.072-6.738-19.095-8.441-29.285-3.92-23.523-1.415-47.304-3.507-70.904-1.052-11.833 4.609-20.752 13.989-27.284 8.265-5.737 16.593-11.371 24.908-17.056 17.069-11.665 35.64-20.136 55.928-22.882 29.342-3.965 58.646-8.663 88.45-7.931 10.207.244 20.577-.86 29.343-7.572 1.803-1.373 3.744-2.618 3.544-5.184-.238-2.965-2.968-3.016-4.934-3.568-11.171-3.144-22.63-4.043-34.163-4.915-15.792-1.207-31.897-1.925-45.497-12.128-7.764-5.826-7.59-10.767.626-16.093 4.546-2.952 9.568-4.57 14.715-5.993 19.423-5.378 39.11-2.31 58.683-1.746 14.402.41 28.728-.282 43.03-1.694 2.555-.256 6.26-.154 6.8-3.811.55-3.735-3.22-4.402-5.498-5.557-3.606-1.822-7.54-2.977-11.383-4.286-13.175-4.492-27.1-3.851-40.588-6.135-10.67-1.797-12.936-6.083-5.735-14.348 18.772-21.573 40.875-37.332 70.718-36.87 7.814.115 15.604 1.104 23.405 1.232 3.682.05 8.14-.475 9.217-4.967 1.04-4.312-.964-8.021-4.771-10.587-2.918-1.977-5.948-3.337-9.48-3.8-10.131-1.36-20.237-2.925-32.785-4.773 8.077-6.968 14.414-12.577 20.888-17.992 23.656-19.751 35.816-46.124 41.577-76.064"/></g></svg>