<svg xmlns="http://www.w3.org/2000/svg" xmlns:xlink="http://www.w3.org/1999/xlink" xmlns:inkscape="http://www.inkscape.org/namespaces/inkscape" version="1.1" width="4517.56" height="1920" viewBox="0 0 4517.56 1920">
<defs>
<clipPath id="clip_1">
<path transform="matrix(1,0,0,-1,0,1920)" d="M0 1920H4517.556V0H0Z"/>
</clipPath>
</defs>
<g inkscape:groupmode="layer" inkscape:label="Layer 1">
<g clip-path="url(#clip_1)">
<path transform="matrix(1,0,0,-1,661.1018,679.5929)" d="M0 0C8.68-12.373-7.395-7.583-11.427-14.711-12.508-16.098-13.006-16.214-13.712-15.952-15.285-.987-7.757 14.666-6.646 30.507-6.443 38.604 2.049 31.254 5.879 29.525 13.497 25.144-11.894 16.625 0 0M-70.153-42.533C-78.364-34.673-106.543-31.273-98.725-16.295-92.87-16.524-87.264-21.018-81.557-22.691-74.487-26.725-64.356-27.437-58.277-32.665-60.177-36.615-64.878-45.717-70.153-42.533M185.068-169.455C187.993-177.382 180.086-166.675 168.584-173.768 122.836-186.223 130.118-155.48 93.726-204.605 92.195-206.809 88.748-208.815 87.122-205.423 85.239-200.848 79.817-196.775 79.182-191.989 132.441-139.155 117.39-165.974 172.663-148.251 178.462-144.877 183.553-147.892 189.115-149.729 191.454-150.333 195.23-151.493 194.913-153.707 192.789-160.55 180.987-157.661 185.068-169.455M-139.304-298.123C-130.788-299.715-127.51-313.428-117.428-313.545-95.842-319.047-74.128-323.651-77.558-292.929-77.143-286.443-70.69-287.082-65.806-286.554-51.749-286.389-49.074-267.544-58.12-261.202-73.626-251.26-89.335-242.764-103.608-231.067-118.035-219.013-137.109-233.246-142.195-210.271-151.915-187.676-166.777-139.641-195.65-171.863-204.157-183.251-225.187-177.728-227.691-193.236-232.107-206.233-210.548-209.369-218.407-218.028-238.662-232.12-224.151-234.061-225.726-250.346-227.075-258.349-234.688-262.026-233.387-250.768-232.181-239.71-236.34-228.885-247.995-225.978-263.403-223.09-278.342-208.895-270.134-193.017-264.631-170.826-259.241-158.559-233.166-156.142-222.293-153.419-217.492-139.772-214.85-128.987-210.24-117.174-193.105-115.893-189.164-103.407-179.934-80.352-168.86-83.861-157.429-69.584-152.422-54.676-140.03-55.474-128.583-47-123.994-43.816-119.87-38.075-113.633-41.706-98.067-51.364-82.405-60.424-65.72-67.637-50.083-71.149-48.233-84.607-49.005-98.882-48.418-129.445-14.987-144.175 .133-167.08 2.787-177.142-11.215-185.664-4.107-196.278 11.158-235.644 28.73-226.311 54.677-203.207 64.865-196.453 70.004-219.383 76.508-224.439 80.037-229.59 86.916-236.801 80.213-242.265 72.575-248.579 60.12-244.093 50.945-243.454 35.768-239.831 30.994-260.651 15.452-258.772-16.169-261.372-2.787-294.838 .441-314.642 2.909-324.643 4.567-334.937 6.288-345 8.698-361.319 18.165-376.547 15.6-393.196 14.63-405.107 13.627-417.424 15.667-429.65 17.049-436.74 12.159-438.792 8.219-432.284-5.374-416.052-25.047-387.78-46.259-383.925-82.656-377.351-118.172-373.974-152.866-388.524-171.91-392.198-156-345.158-155.718-335.171-153.316-328.452-144.143-299.993-139.304-298.123M-203.332-230.003C-193.649-214.243-178.589-234.064-167.617-238.854-148.047-255.141-126.078-235.184-107.078-246.001-97.614-252.159-88.293-259.559-78.23-264.419-69.886-268.531-79.748-271.284-83.501-269.289-92.339-266.249-100.159-271.762-97.853-281.359-97.609-286.41-91.165-290.473-92.281-294.725-108.805-294.821-100.115-269.893-111.881-261.576-118.325-254.729-129.507-252.442-133.937-262.875-137.925-270.786-137.925-270.786-146.366-268.484-153.593-265.959-157.963-271.333-164.917-267.301-177.265-260.104-190.834-252.284-201.771-243.518-207.764-238.319-207.982-236.424-203.332-230.003M-210.15-192.335C-197.959-192.925-191.873-181.996-182.967-175.779-180.029-173.539-175.264-168.52-172.256-173.501-162.645-188.596-155.065-205.086-149.362-220.91-139.787-236.38-145.923-236.64-160.485-230.677-166.737-226.63-193.458-217.66-188.822-208.969-184.733-198.927-213.209-196.118-210.15-192.335M-127.815-269.554C-119.87-257.743-107.201-287.157-113.693-291.811-119.178-287.582-133.21-277.541-127.815-269.554M393.143-199.332C385.744-203.76 377.807-208.541 373.435-216.045 370.144-218.28 371.148-228.442 365.795-224.232 359.228-214.738 347.129-203.007 352.412-190.814 356.644-183.847 360.718-173.744 369.352-173.483 384.963-174.01 390.269-187.53 393.143-199.332M554.045-54.321C539.347-61.77 525.828-71.012 511.85-79.618 505.899-84.691 501.669-76.536 498.53-72.653 491.636-58.025 464.852-67.067 461.297-49.958 459.22-42.037 451.76-35.464 454.938-26.931 459.864-17.341 449.08-9.432 456.097-1.693 466.368 5.877 464.602 19.638 471.314 28.626 475.961 34.76 476.358 45.966 485.028 47.852 489.26 48.998 497.215 45.408 494.442 40.258 486.938 31.05 477.343 17.17 492.182 8.744 501.277 2.682 492.083-6.176 489.243-13.387 481.235-29.961 505.774-32.966 513.191-22.128 520.002-14.538 523.11-3.609 532.013 1.01 539.299 6.34 552.864-2.795 549.46-11.431 544.329-24.746 542.273-41.341 554.154-50.282 555.752-51.404 555.691-53.22 554.045-54.321M654.223-883.217C665.229-878.958 662.618-862.803 659.177-853.615 658.025-851.522 658.157-849.705 659.602-847.725 669.754-836.23 679.014-824.462 688.527-812.533 702.865-796.218 725.984-791.96 737.654-772.488 741.428-765.049 739.656-758.538 733.696-752.944 707.189-728.022 690.558-694.968 667.818-667.048 655.443-648.368 631.716-621.965 617.638-596.263 616.664-594.272 616.689-592.522 617.723-590.41 624.275-577.02 630.687-563.296 636.888-550.024 648.849-527.974 655.415-499.323 676.943-484.474 688.896-472.829 716.572-454.855 717.522-438.606 716.044-407.083 714.832-375.297 712.503-343.032 713.714-328.309 691.748-298.652 703.612-287.154 728.556-262.682 749.498-229.964 744.919-193.027 740.327-152.199 697.929-127.401 668.087-102.197 654.759-90.515 647.202-75.57 631.904-65.872 625.928-61.628 620.776-56.322 616.59-50.102 611.074-41.91 604.534-34.452 598.201-27.213 594.578-23.072 594.388-22.652 597.947-18.164 616.175 15.779 586.436 47.368 558.502 67.872 534.448 84.203 490.52 78.104 473.463 55.467 470.165 49.535 462.838 46.552 463.243 38.941 463.486 35.278 462.224 32.247 459.385 29.674 448.995 14.979 462.297 15.829 439.575-3.488 427.802-16.451 448.891-13.595 445.332-24.135 437.906-43.54 451.151-37.675 449.046-51.395 445.051-75.536 486.06-65.284 494.262-83.098 502.348-97.467 509.592-92.393 509.761-102.465 513.567-130.626 493.726-144.494 494.396-170.866 494.709-198.426 501.017-223.23 494.846-247.722 493.243-253.168 492.121-253.827 487.031-251.472 467.47-241.513 441.423-229.123 422.527-214.99 388.893-189.45 407.021-167.955 369.277-162.792 356.015-161.962 347.204-177.2 342.062-186.413 329.464-208.959 370.317-235.476 362.964-246.144 359.657-249.897 355.327-255.988 361.7-258.849 374.202-264.355 384.374-273.2 396.369-279.605 508.114-344.238 488.548-296.832 481.612-422.79 478.909-454.939 493.642-502.327 524.126-515.775 533.383-518.474 528.098-526.838 525.333-532.639 513.361-558.779 499.886-583.508 497.831-612.818 497.191-645.755 508.886-671.195 520.665-699.518 537.739-742.997 560.24-785.462 580.596-827.708 585.766-843.736 567.141-839.307 584.795-854.347 584.865-855.544 583.438-856.917 582.229-857.858 565.188-870.117 554.1-878.588 535.439-877.515 529.777-877.517 520.967-875.833 519.073-882.747 518.491-885.617 514.968-883.993 512.928-884.421 337.269-879.79 157.225-893.786-16.297-878.853-29.886-878.433-39.492-870.968-51.874-867.917-66.933-864.45-89.987-850.551-87.257-831.26-85.943-826.055-86.924-813.361-79.588-815.911-65.168-820.765-50.205-819.778-37.003-818.907-28.578-818.581-21.677-816.586-20.546-807.426-17.632-794.204-16.88-780.005-11.824-767.439-1.033-735.804 11.946-705.183 22.347-673.471 26.058-658.257 36.993-644.324 37.907-628.659 38.499-623.223 41.401-631.594 41.143-633.133 42.827-647.345 46.569-661.111 50.048-674.692 54.521-688.01 52.424-707.811 63.633-717.283 70.729-721.946 81.964-708.573 84.139-721.516 89.326-732.255 88.225-743.772 88.625-755.196 82.017-773.599 75.868-788.166 93.892-803.606 97.064-806.261 100.809-807.799 105.024-808.175 114.361-809.523 113.455-828.053 123.083-832.807 132.859-842.145 175.964-837.788 159.22-820.547 153.275-818.13 145.84-818.449 144.351-810.638 141.283-798.805 142.586-785.863 142.486-773.587 141.135-753.696 131.416-734.613 126.256-715.375 125.735-709.752 118.723-697.725 125.629-694.861 135.16-690.105 144.788-684.687 154.665-680.788 159.458-679.269 160.521-675.575 158.021-671.176 130.149-621.785 110.896-566.378 86.769-515.631 78.258-507.311 69.596-498.818 60.816-490.605 52.328-479.964 28.049-466.3 27.897-451.743 28.102-426.218 26.411-401.584 27.804-376.417 27.881-373.297 27.815-369.7 26.041-366.499 15.099-340.531 12.019-308.901 8.33-280.371 9.802-263.37 41.479-277.766 42.486-259.449 42.828-254.857 48.301-257.16 51.227-257.212 65.541-259.479 80.889-258.461 99.526-254.007 115.332-250.433 99.75-236.673 95.395-229.431 88.147-220.9 102.698-213.677 106.362-206.511 114.45-199.07 118.509-184.129 132.036-186.244 146.21-188.039 158.813-187.573 170.563-184.817 172.887-184.361 177.251-182.844 174.992-186.89 169.395-197.625 178.04-202.634 184.607-195.7 187.793-193.614 193.429-184.653 196.204-190.687 197.672-195.034 201.626-208.418 206.648-205.308 210.155-203.926 210.234-200.781 210.293-198.484 210.62-189.741 208.71-176.835 200.064-171.019 190.627-163.356 207.424-160.756 211.959-165.507 217.008-167.899 228.075-179.249 232.867-172.571 236.326-164.227 223.21-161.986 219.029-156.97 209.868-149.897 200.793-143.382 187.493-138.386 179.323-135.467 172.928-135.789 166.755-139.431 158.402-144.179 148.283-143.999 138.962-144.496 111.94-143.765 91.383-165.095 73.252-183.001 70.599-185.75 68.517-186.263 65.824-184.828 62.057-182.821 58.864-184.677 56.79-186.248 46.527-194.021 35.526-200.888 24.806-207.716 15.528-214.167 13.719-198.604 8.803-193.569 2.462-182.314 23.761-178.798 8.578-157.733-2.189-143.886-14.644-131.41-26.498-119.99-46-103.411-27.607-64.923-55.715-56.868-56.667-56.469-57.852-55.798-58.096-54.866-58.466-53.349-56.797-51.912-56.015-50.749-53.799-47.908-51.507-44.971-49.315-42.014-44.651-35.994-38.798-47.255-34.689-49.496-27.538-56.86-17.815-48.533-16.224-39.779-14.098-34.377-7.329-30.958-4.935-25.186-.87-15.773 9.062-21.384 14.552-16.863 19.864-8.241 4.515 3.664 10.594 12.186 15.579 18.553 20.178 25.211 27.185 29.195 29.975 30.803 31.607 33.563 32.037 37.394 38.373 75.932 4.775 92.032-23.504 104.682-43.926 118.204-74.992 118.145-92.899 99.201-112.24 81.937-126.645 61.797-138.558 41.314-148.893 25.387-142.294 14.498-127.926 6.456-107.382-4.996-111.661-.776-112.288-23.015-113.741-32.124-120.372-17.512-124.168-17.034-125.221-16.535-128.014-15.209-130.618-17.153-132.947-18.891-132.487-21.602-132.266-22.905-128.614-35.286-145.304-39.499-153.261-45.165-156.937-48.259-163.148-46.253-166.842-49.375-168.153-50.88-168.063-53.021-167.881-54.5-165.804-63.064-177.32-68.531-184.047-71.385-200.113-77.848-196.811-106.649-216.581-107.27-236.071-105.382-220.311-144.789-243.296-144.044-252.146-142.329-259.777-145.528-264.638-153.071-286.687-174.252-275.41-172.171-285.369-192.818-291.485-201.122-289.885-210.675-281.295-217.153-264.494-226.113-280.74-235.082-269.048-237.857-237.843-229.046-250.119-261.258-242.598-278.163-240.961-283.772-235.299-284.713-231.447-280.602-222.45-272.653-212.15-264.476-209.968-252.095-192.398-256.217-179.24-279.056-159.498-275.77-154.077-274.037-142.893-276.767-148.063-283.475-173.532-321.075-174.629-367.814-172.322-411.162-173.542-420.487-164.825-414.58-163.505-421.276-159.075-452.451-124.273-451.126-111.183-475.192-102.209-491.901-94.574-509.608-87.19-526.731-74.843-554.907-61.043-582.399-54.142-612.776-49.96-628.225-58.031-642.055-65.026-655.331-78.562-682.118-93.183-708.928-106.972-735.65-114.123-749.331-121.517-763.479-129.404-777.046-134.389-785.64-134.027-790.984-125.095-796.247-121.098-798.768-120.986-799.33-123.595-803.76-134.799-823.872-149.772-844.688-157.159-866.068-158.87-870.749-159.722-875.898-159.691-881.372-158.964-886.224-164.322-883.806-167.335-884.419-234.343-884.361-301.643-884.522-368.617-884.37-364.416-484.698-377.397-72.07-364.15 321.529-321.759 321.057-278.54 321.86-236.103 321.454 66.707 321.158 369.205 321.423 672.059 321.559 726.436 321.5 780.58 321.175 835.01 321.752 846.762-71.357 835.182-484.563 838.984-884.219 776.822-884.78 714.291-884.243 652.055-884.405 652.636-883.873 653.376-883.567 654.223-883.217M883.138-899.807C882.987-528.989 883.147-154.172 883.133 217.121 882.567 262.26 883.808 312.271 883.114 357.441 882.609 379.253-393.645 357.584-404.124 365.013-407.98 364.702-412.541 365.693-411.63 360.032-413.011 274.025-411.854 179.098-412.165 98.851-412.307-57.155-412.284-214.304-412.133-370.35-411.875-550.705-412.818-733.096-411.993-913.271-411.761-918.188-413.556-927.462-407.104-927.654-392.005-928.988-377.096-928.273-361.998-928.521-204.421-928.343-45.361-928.309 112.322-928.462 299.698-928.562 487.071-928.232 674.446-928.247 741.774-928.08 808.583-928.974 876.212-927.513 888.299-928.845 881.678-906.53 883.138-899.807" fill="#231f20"/>
<path transform="matrix(1,0,0,-1,3716.3616,976.558)" d="M0 0C-22.406-16.164-15.177 8.87-22.097 21.372-24.649 28.115-23.906 30.019-17.129 34.107-.814 43.949 16.53 54.477 33.444 65.457 45.537 73.307 47.759 81.234 41.643 94.707 25.905 146.49-11.479 98.649-10.658 67.767-10.127 64.385-12 61.96-17.123 59.4-33.842 51.045-50.127 41.351-65.875 31.976-79.318 24.358-92.438 15.269-106.791 9.239-119.09 5.749-112.944-5.919-121.15-13.015-134.519-30.972-139.869-52.168-148.517-72.569-149.559-76.256-151.132-80.142-153.687-79.285-155.926-78.887-156.205-77.48-155.906-73.456-155.769-55.068-155.896-36.856-155.912-18.612H-155.96C-156.486 10.783-153.285 36.479-163.323 66.405-166.351 76.279-166.494 83.928-163.776 90.477-154.291 113.368-153.149 137.629-151.49 161.33-151.511 178.618-146.204 193.674-148.363 211.456-150.542 228.265-152.524 245.118-155.242 262.037-159.323 280.93-155.518 312.229-156.402 332.564-158.914 353.975-135.925 371.244-145.372 392.911-152.492 403.146-143.575 418.572-139.038 429.688-129.237 452.798-117.339 477.454-115.78 502.109-113.02 504.214-106.254 502.066-102.836 500.601-96.347 498.096-95.491 496.109-98.019 489.41-106.908 465.849-110.972 443.64-110.442 421.515-109.964 401.539-109.999 379.645-110.55 352.614-107.947 327.54-129.367 289.909-105.205 273.265-92.635 268.352-101.495 251.001-93.347 242.996-86.824 232.737-67.8 240.395-60.93 231.253-67.311 209.78-66.671 181.49-72.334 161.242-78.002 142.726-53.754 139.357-49.364 156.979-43.149 173.811-36.29 206.533-14.939 208.679-4.057 211.73 4.704 224.417 16.979 217.19 39.192 206.688 51.066 194.357 60.03 175.951 79.608 140.333 100.945 101.864 98.047 59.571 98.429 50.186 94.672 44.104 86.563 40.981 56.853 28.657 28.705 14.186 0 0M-339.841-586.501C-335.35-585.26-329.729-586.118-325.77-583.57-319.578-578.696-312.442-579.539-305.196-579.779-282.777-578.411-236.849-586.856-221.035-568.269-218.076-560.232-236.414-556.042-232.365-548.747-223.298-523.461-220.666-496.538-212.674-470.794-206.944-445.827-200.027-419.158-187.017-397.6-142.139-318.32-108.51-245.789-53.231-178.239-34.262-162.165-17.287-246.751-13.867-255.624-8.592-275.923-2.708-309.644-11.384-331.151-15.077-344.112-15.698-355.348-13.282-365.503-2.385-411.301 .209-458.513 1.785-499.171 2.413-515.379 4.667-527.496 9.094-538.457 10.314-544.511 18.956-559.746 9.141-560.89-63.826-591.198 15.134-593.051-103.04-591.309-185.654-590.377-269.634-592.796-351.803-589.513-347.78-587.761-343.754-587.122-339.841-586.501M-72.139 565.709C-73.607 550.709-80.412 539.32-85.856 523.188-88.03 517.531-90.472 517.003-93.958 518.002-107.708 521.42-89.689 539.344-100.318 561.921-106.016 574.988-86.413 572.56-81.355 580.854-73.987 586.405-72.302 570.325-72.139 565.709M-25.464 258.319C-23.218 242.726-32.928 225.117-40.24 211.324-44.669 206.278-48.236 188.514-54.358 188.087-55.611 188.373-56.714 189.104-56.322 192.502-56.345 204.314-50.464 215.177-49.297 226.614-44.134 255.177-86.823 238.766-87.458 262.565-87.202 272.202-90.438 280.783-94.065 289.452-99.977 301.007-95.811 330.36-77.832 330.439-4.989 329.188-32.643 330.191-25.464 258.319M.256 69.778C.95 76.937 18.886 117.518 25.944 101.54 41.099 76.101 27.274 77.084 7.745 64.821 3.462 61.711 .1 63.502 .256 69.778M-13.593-32.016C-20.531-25.261-34.728-30.272-29.884-44.188-27.486-52.448-22.266-60.172-22.059-68.815-21.633-72.581-25.379-71.732-25.901-70.08-31.585-63.145-32.165-37.166-44.659-46.653-50.5-54.499-44.261-66.702-44.924-75.912-45.48-78.373-44.36-82.609-47.757-83.508-48.973-83.654-49.838-82.685-49.85-81.517-49.918-71.89-54.892-63.219-54.99-53.802-54.823-48.948-56.542-39.546-63.047-39.233-71.99-39.033-65.729-53.589-70.105-58.019-72.488-61.557-76.29-58.804-75.437-56.436-74.043-51.169-73.605-45.743-73.181-40.496-74.18-28.562-63.504-13.293-71.748-3.211-75.504 1.01-83.379-.249-88.844-1.338-93.185-1.867-95.12 1.036-90.673 3.389-77.481 12.136-62.932 16.195-51.098 27.48-47.742 30.64-45.29 31.977-43.391 31.686-33.145 24.188-26.878 6.2-27.523-7.646-28.452-20.172-11.411-23.874-6.318-33.898-4.45-36.193-4.439-36.767-5.373-37.554-7.78-38.622-11.227-33.196-13.593-32.016M-433.254 260.841C-460.216 309.821-443.346 280.22-415.306 307.919-407.481 317.071-401.747 309.641-401.83 299.815-408.393 243.102-368.23 238.048-374.638 260.596-379.8 269.106-378.2 276.541-369.451 284.705-359.678 291.405-366.495 306.376-353.36 308.049-336.786 308.714-339.135 330.232-328.435 332.303-320.174 319.417-346.304 298.853-336.746 278.287-332.263 261.336-356.478 252.565-363.942 239.468-372.114 231.159-384.885 246.068-394.997 243.965-417.975 238.555-421.314 238.255-433.254 260.841M-426.211-453.561C-426.196-454.887-426.193-456.394-426.195-457.727H-425.555C-426.811-476.188-422.811-497.171-427.952-514.89-436.828-533.253-433.335-554.978-444.354-565.535-450.56-570.957-454.416-577.126-456.145-584.395-457.541-589.675-466.207-594.649-471.396-589.212-478.936-575.089-509.65-577.894-510.826-567.373-509.441-556.61-513.603-546.223-507.675-538.256-479.935-506.194-463.803-473.339-444.953-432.572-415.985-370.006-427.054-423.511-426.211-453.561M-393.983-113.915C-386.911-80.904-388.954-46.963-381.8-13.581-380.44-4.626-378.668 4.113-367.938 1.682-340.644-3.592-318.84 25.44-294.452 33.464-278.559 39.537-283.964 61.64-283.826 75.149-286.169 109.554-254.88 120.538-292.702 150.242-300.474 159.72-316.925 156.565-326.42 155.649-337.11 153.868-334.111 146.926-335.533 140.337-336.83 129.963-338.715 119.581-333.238 109.25-326.505 100.77-345.179 94.355-349.93 88.031-364.068 76.845-361.889 104.509-366.55 111.84-368.925 119.528-371.382 127.477-372.656 135.532-374.212 145.37-374.062 145.617-364.625 148.728-361.635 149.714-358.105 151.444-357.328 156.125-356.78 159.424-355.176 161.439-352.127 162.66-343.044 165.65-336.039 173.762-329.014 176.972-328.03 176.686-326.889 173.297-326.46 172.021-321.391 158.21-306.965 174.419-307.371 183.107-306.055 198.59-305.513 216.072-321.797 222.386-346.795 232.478-358.849 232.572-373.419 210.018-386.936 188.486-406.519 211.427-411.721 226.881-412.437 236.824-386.051 233.248-380.377 230.775-371.355 226.64-363.64 223.482-357.198 233.051-351.918 242.61-337.447 240.163-336.462 251.686-336.145 255.193-334.627 258.049-331.822 260.419-319.418 272.487-337.195 291.17-324.359 301.886-316.953 311.986-320.925 325.33-313.297 335.81-309.553 341.844-309.884 350.872-314.122 358.275-328.739 391.1-370.804 408.991-408.843 397.988-424.781 392.772-436.321 379.787-448.033 366.33-464.12 345.86-439.554 329.929-478.781 333.712-521.756 332.046-493.094 296.954-521.325 300.395-534.069 303.718-548.891 304.749-559.168 294.604-580.978 274.906-590.268 253.714-599.621 226.508-606.436 208.634-613.861 197.922-614.645 174.943-621.598 87.475-619.002-1.765-664.66-81.767-697.43-139.645-674.857-122.278-617.272-142.996-594.593-148.944-583.387-173.479-567.595-189.322-560.683-196.745-554.087-201.676-546.834-204.841-538.913-208.298-533.377-214.139-529.908-222.7-523.863-236.715-514.593-249.227-514.01-266.262-513.016-293.265-509.49-291.56-494.712-310.629-504.459-322.591-523.111-321.559-509.197-344.182-507.453-347.268-507.578-349.935-509.566-352.107-522.022-365.712-529.121-382.413-535.985-398.564-543.993-416.942-552.135-435.847-559.482-454.277-564.766-467.936-573.194-483.541-571.957-497.779-570.469-514.503-592.281-521.531-591.997-537.518-592.679-542.846-596.5-547.42-599.25-552.132-605.098-563.458-602.589-573.869-606.278-585.667-606.709-592.942-618.77-590.072-624.198-590.882-631.024-591.065-638.083-591.254-645.017-591.274-675.226-591.537-706.706-591.175-736.736-591.299-744.992-591.124-750.281-590.474-749.491-580.426-749.492-580.427-749.426-563.922-749.426-563.922-748.966-373.077-749.298-176.113-749.207 15.174H-749.162C-748.152 214.714-751.156 416.229-747.986 615.518-747.664 622.244-746.245 623.095-739.849 623.361-521.493 624.533-302.825 622.406-84.525 623.824-84.631 616.977-85.719 603.044-85.508 597.045-85.095 572.607-128.958 590.437-108.747 556.658-103.025 543.413-107.144 531.012-111.854 519.445-114.784 512.265-129.554 522.239-128.758 508.977-128.243 474.109-147.582 445.364-158.264 413.641-160.757 405.956-160.513 399.703-157.472 393.368-153.517 385.128-153.738 376.579-158.095 369.296-170.083 351.621-167.785 332.607-167.663 312.257-170.628 292.914-169.575 272.493-164.25 246.045-157.815 213.533-160.098 182.489-163.799 152.876-165.016 132.594-166.467 113.518-175.311 93.025-178.403 85.335-178.337 76.55-175.113 66.916-159.275 17.168-171.463-44.134-166.018-100.811-162.711-148.3-190.767-197.807-204.941-236.63-212.843-254.91-216.557-271.587-216.297-287.611-216.152-296.57-218.536-305.472-223.585-314.827-244.493-353.557-262.354-395.702-276.672-440.091-283.571-461.96-294.965-487.909-308.867-515.126-313.951-525.153-319.209-535.521-322.796-546.497-324.545-552.865-334.843-552.738-333.265-544.265-332.967-517.825-329.798-493.208-323.577-469.008-315.326-441.233-318.073-401.084-314.529-369.499-311.781-338.652-310.05-302.169-308.518-276.876-307.344-255.462-314.03-236.452-328.39-220.373-346.788-194.812-405.952-146.068-393.983-113.915M-322.167 100.954C-324.912 117.102-336.433 148.523-309.895 148.19-296.572 146.254-277.208 125.278-284.552 113.207-290.169 104.991-288.89 95.387-294.526 89.273-303.279 85.652-317.508 94.318-322.167 100.954M-364.839 205.339C-359.024 210.605-354.555 220.752-345.287 218.967-327.594 217.926-313.309 209.703-315.894 190.065-317.9 176.732-327.088 195.392-339.717 181.713-344.675 178.038-355.974 167.007-357.748 178.907-357.909 191.937-372.658 198.86-364.839 205.339M65.506-587.579C113.337-580.392 75.534-561.374 90.568-552.938 93.694-551.089 93.52-547.638 93.381-544.866 76.644-496.635 61.867-447.84 66.535-395.725 72.217-301.467 69.486-225.957 69.739-135.924 69.571-120.635 68.122-102.86 58.643-86.952 56.932-84.079 56.453-81.258 57.136-78.072 60.132-52.202 42.352-31.913 40.69-6.57 39.45 3.829 41.243 7.206 50.28 11.497 63.6 18.127 84.454 25.053 98.751 33.713 115.404 40.306 107.641 59.015 109.157 72.623 105.852 126.597 85.978 150.763 61.204 197.099 53.067 212.704 36.657 219.698 22.24 228.365 17.905 230.385 15.774 234.948 21.532 236.11 34.235 239.924 43.049 248.436 49.486 262.966 56.599 278.39 36.133 283.987 34.448 320.319 30.427 386.585-24.092 410.988-81.802 378.351-86.003 377.477-98.761 358.127-99.384 369.619-97.867 408.942-101.465 449.439-87.106 486.863-81.813 504.153-78.209 522.456-70.415 539.03-63.062 553.967-59.763 570.794-67.64 585.14-72.754 595.534-73.404 611.687-73.96 623.54 45.78 623.774 166.945 623.722 286.576 623.651 336.285 623.682 390.66 623.767 457.697 623.919 465.648 623.836 467.316 622.094 467.408 614.259 465.866 217.62 467.219-169.784 467.013-561.982 465.349-571.887 473.425-591.911 458.014-591.075 435.492-591.772 412.578-591.683 390.419-591.597 280.341-589.286 168.746-595.321 59.419-589.354 61.131-587.933 63.183-587.767 65.506-587.579M416.362 648.079C416.38 649.443 418.498 650.061 418.557 648.192 418.303 645.905 415.914 646.387 416.362 648.079M-624.247 647.895C-624.258 648.571-624.23 648.638-623.605 648.684-623.622 648.782-623.205 647.99-623.425 647.546-623.666 647.295-624.297 647.411-624.247 647.895M506.781-180.438C506.874 92.056 506.633 374.743 506.812 647.906 506.998 663.185 505.949 664.43 490.682 664.224 95.691 664.029-300.931 664.505-696.06 664.437-721.903 664.441-747.744 664.445-773.586 664.436-786.66 664.432-787.188 663.018-788.014 650.149-789.72 623.14-789.028 596.513-789.049 569.779-788.854 172.668-789.544-221.603-788.687-618.697-790.084-632.113-777.572-631.033-767.942-631.083-711.013-631.121-654.083-631.151-597.153-631.18-454.114-630.291-280.253-632.115-138.605-631.374V-630.996C72.494-629.833 284.193-633.448 495.353-629.508 504.482-629.347 507.193-626.757 506.513-617.927 506.054-609.062 506.77-600.414 506.768-591.574 506.817-455.133 506.84-316.722 506.781-180.438" fill="#231f20"/>
<path transform="matrix(1,0,0,-1,2061.8953,684.3601)" d="M0 0C-5.572-7.522-6.572-15.396-1.13-24.057 7.174-40.066-18.108-29.023-15.961-49.029-16.027-49.868-16.054-50.885-16.21-51.668-20.334-61.129-25.761-49.935-24.199-42.903-23.031-27.871-21.825-11.552-20.595 3.036-20.329 12.714-18.865 12.574-10.784 10.061-5.098 8.778 5.043 8.196 0 0M169.885-173.55C169.148-184.395 150.928-187.183 143.937-188.013 120.417-188.586 95.898-215.995 79.746-226.991 73.62-233.462 68.34-226.526 71.549-220.125 79.655-210.935 92.019-205.425 101.931-197.956 119.34-189.79 117.717-166.281 134.37-165.036 140.153-164.533 145.817-161.582 151.685-156.014 154.041-154.174 158.648-147.834 161.25-151.721 163.003-159.621 167.745-166.029 169.885-173.55M-322.851-340.758C-341.642-330.027-341.577-320.293-329.356-304.248-322.61-288.334-301.646-276.077-305.428-257.346-311.183-235.181-306.097-205.492-322.042-187.91-327.369-181.404-337.246-170.917-327.731-164.517-317.681-156.662-307.289-148.54-293.712-146.732-286.872-145.817-281.885-143.103-278.891-138.667-269.156-121.939-250.378-135.994-238.479-125.283-205.099-111.593-228.117-89.828-193.394-91.16-170.167-92.725-163.911-65.013-140.701-65.391-126.549-66.08-117.487-44.637-106.861-57.533-62.612-90.911-68.063-93.445-56.387-146.033-54.707-162.736-45.933-180.167-36.426-195.589-32.403-208.598-23.681-218.343-15.246-227.767-4.475-246.551 22.912-244.921 37.559-236.585 43.695-233.202 48.551-230.692 50.591-231.687 54.273-235.155 55.871-252.657 57.571-259.763 58.867-274.886 39.045-259.005 31.514-260.059 24.196-258.853 18.718-261.072 15.232-266.653 1.563-284.122-29.041-277.554-42.734-261.559-53.413-251.745-67.838-244.589-75.656-232.431-82.884-220.993-97.273-213.885-107.495-225.562-122.288-239.644-141.479-262.505-140.033-285.347-139.51-310.288-165.282-310.374-168.283-347.849-173.771-376.505-182.312-382.539-162.318-409.573-161.017-412.786-156.08-418.201-158.245-421.055-160.512-421.055-163.482-416.77-165.764-415.456-173.425-410.109-180.713-411.988-183.732-420.819-187.317-434.308-201.102-449.147-206.799-463.863-209.522-470.276-212.348-479.162-218.882-470.167-228.073-459.636-236.834-449.187-244.923-439.11-272.525-405.002-286.876-368.743-322.851-340.758M-76.518-62.598C-77.481-59.824-106.501-41.559-100.392-40.841-89.249-45.351-76.654-44.161-66.254-50.317-57.259-55.626-47.924-59.845-38.508-62.856-33.063-63.82-29.931-69.404-35.707-71.042-47.648-72.378-57.637-54.086-69.136-63.073-71.592-65.09-73.867-64.946-76.518-62.598M634.475-883.066C630.484-881.524 597.222-887.094 604.217-878.463 608.5-871.747 613.565-865.032 621.575-861.395 641.224-852.721 675.73-837.758 656.967-811.549 644.184-798.711 633.116-784.013 625.812-767.359 622.017-758.533 625.609-744.262 618.189-736.792 607.764-720.49 598.331-703.201 589.208-686.48 573.752-657.29 557.531-628.659 538.034-602.43 536.256-600.461 538.698-597.617 539.49-596.79 546.066-591.19 542.431-583.146 546.139-576.337 563.047-547.101 562.336-521.49 587.118-500.541 598.336-493.79 596.721-478.078 611.204-475.227 639.662-465.824 667.75-453.52 693.761-439.382 703.607-433.991 717.043-430.45 715.427-416.295 707.804-355.116 674.575-295.385 670.227-233.118 661.232-158.814 659.848-69.972 585.562-28.544 568.772-18.291 543.224 .058 567.932 17.339 584.763 35.796 546.314 51.569 531.609 47.839 523.582 46.244 517.72 48.878 513.16 56.13 504.98 68.377 498.562 80.458 483.906 87.091 456.656 99.855 416.5 105.981 391.06 83.351 381.317 74.362 372.182 63.679 361.443 48.709 354.557 40.711 358.797 33.891 365.785 27.344 376.615 17.985 382.764 5.614 388.618-6.63 394.068-12.794 396.455-20.251 396.13-30.098 396.063-32.214 395.858-38.656 403.096-39.923 404.956-40.251 406.341-41.285 407.104-42.914 413.079-56.067 425.373-51.307 433.523-60.123 443.203-71.75 455.473-63.059 465.428-56.715 473.267-51.363 490.672-54.976 486.97-66.565 486.969-66.565 484.447-76.425 484.447-76.425 479.357-96.498 473.981-117.304 467.846-137.136 463.522-151.522 459.05-166.398 455.775-181.376 454.859-185.542 453.642-187.929 451.944-188.889 441.001-190.836 426.643-181.588 421.259-172.525 406.076-148.518 380.914-140.451 359.394-125.031 356.983-123.393 352.949-120.649 349.605-125.039 345.087-132.453 354.5-136.786 358.622-140.905 379.721-157.959 336.944-157.791 328.959-158.146 323.569-158.799 308.687-155.124 308.166-162.548 308.128-164.879 309.856-166.644 312.57-167.048 322.92-168.169 335.951-168.598 345.403-173.436 355.979-178.644 342.725-181.399 336.89-180.144 323.001-177.559 312.556-199.912 317.004-210.265 327.875-220.729 351.366-209.199 372.967-221.86 377.478-223.997 386.658-224.9 385.645-231.332 383.262-243.015 386.74-248.545 398.885-245.699 402.677-245.431 404.041-246.194 404.292-248.723 405.61-261.902 431.318-250.05 439.424-262.798 447.086-278.081 437.289-294.943 433.975-314.305 429.124-333.131 423.823-351.906 420.289-371.296 419.248-376.996 416.503-381.165 411.392-384.814 376.265-409.794 347.923-434.691 324.744-460.931 314.266-472.79 310.579-484.979 313.141-499.292 319.146-530.687 323.21-563.385 326.664-595.396 328.554-619.135 336.245-640.929 341.297-663.797 344.504-678.356 348.244-693.764 355.519-708.021 362.569-730.055 350.894-732.884 382.034-729.425 396.493-727.542 393.257-747.653 388.128-755.184 380.681-766.635 379.005-778.245 383.004-790.677 385.295-801.077 388.052-814.001 382.004-823.352 374.665-831.228 369.889-860.996 389.556-850.093 401.487-842.915 407.104-834.098 407.232-822.345 415.42-793.781 441.554-769.093 461.038-742.143 466.025-735.012 464.625-731.902 458.471-725.626 452.452-714.763 448.549-702.612 443.385-691.182 437.646-677.326 446.764-659.542 432.051-648.042 427.372-644.531 427.56-637.626 427.161-632.164 425.852-606.261 424.213-579.386 417.018-554.487 413.848-541.708 412.349-528.906 408.823-516.146 407.366-512.044 409.919-509.565 413.496-509.45 422.553-510.411 440.165-501.602 447.71-504.887 451.354-509.751 445.59-517.788 443.358-522.749 435.101-539.35 427.722-557.505 429.623-577.763 430.383-616.568 448.417-641.56 462.992-673.812 481.208-717.874 507.788-759.172 537.45-787.86 545.133-800.348 580.326-804.966 571.287-820.99 568.327-826.663 564.975-833.089 571.736-840.443 576.71-855.786 531.695-878.903 519.102-878.195 516.744-878.51 513.981-878.188 512.008-879.656 506.597-883.718 500.138-882.774 493.806-882.774 281.009-882.662 78.632-882.64-137.899-882.968-166.52-881.348-193.298-870.345-217.203-855.244-224.255-847.211-239.121-849.042-239.826-835.747-241.052-823.511-234.854-813.825-230.896-803.088-228.854-798.13-228.852-798.13-223.55-799.898-212.43-803.003-191.337-809.976-179.753-804.102-172.795-789.568-184.014-766.568-172.696-749.699-169.176-742.213-161.954-746.011-166.167-752.954-182.169-807.344-138.01-783.47-144.449-815.11-151.389-844.37-118.989-845.337-98.561-842.45-92.817-842.929-83.753-839.974-90.054-834.316-113.44-826.246-133.551-762.042-127.595-739.669-109.545-703.937-112.046-662.693-103.831-624.289-98.411-598.143-107.506-576.551-117.927-554.085-130.044-526.084-142.407-496.952-154.176-468.823-157.061-460.5-162.746-451.614-164.108-443.291-159.011-443.686-150.597-454.354-145.406-457.579-142.565-460.077-140.003-466.021-135.084-463.571-129.865-460.558-134.054-455.516-134.871-451.834-139.782-426.691-148.295-405.795-160.898-387.954-164.74-383.192-161.659-375.115-160.439-369.278-150.634-305.815-132.276-327.451-128.663-291.309-128.039-275.565-122.364-261.802-111.799-250.404-105.313-245.513-98.591-225.203-89.531-235.258-81.149-244.309-72.882-261.05-60.444-263.52-58.005-264.25-54.625-265.478-53.44-267.707-48.137-277.939-36.742-280.044-29.374-287.527-21.639-295.927-10.272-285.077 .336-289.8 10.63-292.737 14.229-291.173 19.594-281.435 25.161-271.29 26.475-270.806 37.177-274.973 46.506-277.625 59.245-283.469 68.829-279.554 72.454-272.622 68.66-261.929 68.971-253.999 69.209-241.514 90.382-234.199 98.478-225.438 107.823-218.282 117.166-211.124 126.541-204.016 131.836-200.01 137.877-198.033 145.011-197.975 159.884-197.707 188.125-187.249 178.354-167.366 171.388-152.111 167.411-147.252 182.587-135.38 186.412-129.54 205.63-119.009 199.511-112.228 189.056-102.516 142.672-158.466 128.101-155.318 122.393-155.282 117.886-158.331 115.56-163.666 99.266-197.526 50.706-220.945 15.668-229.339 3.625-233.43-1.053-222.893-8.548-216.43-19.549-207.318-22.433-194.605-28.508-182.924-46.275-159.907-45.995-130.704-53.191-103.922-53.143-91.822-75.744-58.504-48.282-81.713-36.741-91.268-26.418-98.564-9.189-96.3 11.879-94.381-6.023-56.568-4.053-44.35 21.3-39.422 4.442-34.781 5.14-17.49 6.306 11.24 35.324-16.648 19.257 39.734 13.928 57.162-4.283 57.324-16.874 66.963-36.785 79.261-65.956 94.106-96.558 73.433-124.183 55.112-140.588 20.25-148.971-7.501-156.22-25.552-141.765-30.066-128.051-35.194-113.418-40.203-148.61-54.547-155.178-56.645-180.227-62.98-181.182-78.932-192.429-77.771-199.533-77.676-206.341-79.385-213.261-81.296-240.465-89.057-217.43-116.892-270.384-118.409-276.249-118.029-280.845-120.416-283.668-125.302-286.104-129.498-289.93-131.843-295.708-132.68-302.884-133.678-309.172-137.868-316.416-137.812-320.527-137.799-323.242-141.969-325.25-145.153-329.978-154.849-346.626-157.86-348.002-168.863-349.546-187.181-320.91-196.575-323.014-218.525-322.712-229.77-320.288-240.509-318.473-251.41-317.046-259.997-318.751-266.621-324.233-273.989-340.86-296.632-358.052-320.044-364.88-348.353-372.509-373.946-371.44-405.694-352.157-427.298-334.198-451.221-315.858-475.488-298.256-500.164-278.188-532.786-240.188-565.031-240.596-605.05-240.716-617.921-235.555-629.937-241.974-642.152-255.065-683.578-260.015-724.977-270.626-766.885-271.546-770.633-272.498-774.508-271.443-778.361-268.224-788.122-273.867-799.942-274.426-810.407-273.531-836.645-297.934-845.282-290.818-869.914-287.108-884.63-270.776-876.071-265.352-881.516-307.264-882.838-352.071-882.569-394.551-882.75-404.803-882.756-415.054-882.859-425.303-882.806-432.317-882.417-433.121-881.567-433.121-874.546-433.391-734.465-432.652-418.913-432.941-278.306H-432.911C-431.977-78.887-434.678 122.567-431.882 321.769-431.508 329.905-430.805 330.57-422.467 330.665-400.562 330.794-378.574 330.266-356.753 330.735-32.551 330.484 289.829 330.195 613.862 330.829 666.5 330.45 719.01 331.296 771.728 330.8 780.746 330.585 780.706 330.268 781.085 321.27 781.077 308.114 781.044 294.954 781.011 281.795 780.744-93.03 781.183-468.127 781.059-842.942L781.039-872.286C781.039-881.475 780.568-881.947 770.959-882.387 725.498-883.815 679.749-882.663 634.475-883.066M398.041-224.178C383.952-215.54 367.637-208.395 350.271-207.446 344.93-207.253 339.512-205.459 334.071-206.37 333.897-206.452 332.798-206.268 331.376-205.387 324.974-202.743 324.939-195.285 333.875-196.206 339.597-196.411 346.433-201.364 351.503-197.104 363.945-203.052 390.093-214.509 398.041-224.178M364.829-175.398C358.003-162.418 376.626-170.596 378.477-153.062 379.098-148.373 380.445-148.804 384.613-151.375 396.475-158.764 408.441-166.735 416.572-178.632 430.455-188.403 423.414-209.458 415.825-221.993 405.786-216.289 373.006-193.869 356.669-189.188 364.126-187.54 368.766-182.821 364.829-175.398M400.444-7.003C394.024 1.628 395.235 11.957 387.243 18.857 381.197 25.536 381.119 27.356 386.548 35.077 390.656 42.32 396.968 47.496 395.292 34.731 394.722 5.991 423.911 28.444 429.721 5.077 431.588-1.07 435.65-8.593 442.251-9.472 458.384-11.059 465.432 8.903 458.886 21.509 452.708 37.021 463.261 37.317 472.562 27.35 481.196 17.316 492.23 12.377 505.756 6.964 509.101 5.827 516.348 3.458 516.835 .749 514.311-8.17 504.771-17.334 500.954-26.196 495.173-35.811 489.503-49.859 475.88-44.852 471.096-43.291 465.688-44.388 460.237-48.022 439.395-64.409 438.25-46.438 419.285-39.983 400.16-35.042 409.101-19.217 400.444-7.003M808.227 371.84-458.811 372.035C-474.474 373.995-471.665 361.95-472.812 350.249-475.187-34.854-472.894-419.984-473.572-805.12-473.578-839.527-473.586-873.932-473.549-908.331-473.533-920.421-471.188-922.763-458.789-923.066-387.979-924.374-316.046-923.37-245.064-923.606 74.852-923.488 394.761-923.745 714.677-923.423 745.979-923.462 778.345-923.502 810.185-921.914 819.656-921.446 821.829-919.127 821.812-909.511 821.903-701.812 821.614-484.808 821.753-276.511H822.007C822-74.102 822.015 156.724 822.082 357.582 822.082 369.308 819.621 371.84 808.227 371.84" fill="#231f20"/>
</g>
</g>
</svg>
