<svg xmlns="http://www.w3.org/2000/svg" width="2016" height="1728" viewBox="0 0 2016 1728"><defs><clipPath id="clip_1"><path d="M0 0h2016v1728H0Z"/></clipPath></defs><g clip-path="url(#clip_1)"><path d="m108.79 600.008-.387-1.455c-4.662 1.038-9.337 2.02-13.983 3.124-9.571 2.274-19.377 3.55-28.737 6.714-3.115 1.053-6.285 2.061-8.761 4.36-2.033 1.885-2.202 4.276-1.069 6.625 1.015 2.102 3.08 2.29 5.126 1.936a30 30 0 0 0 4.456-1.142c15.209-5.133 29.118-12.992 43.355-20.162m470.121 214.453-.118 1.456c10.037 3.053 20.076 6.1 30.11 9.163 5.042 1.54 10.065 3.137 15.115 4.651 1.95.584 3.962 1.016 4.955-1.554 2.693-6.97-1.154-13.484-8.603-13.636-13.814-.28-27.639-.08-41.459-.08m-34.471 282.981c-1.34 2.063-1.027 3.381-.772 4.66 2.096 10.527 4.008 21.094 6.372 31.56 5.103 22.578 11.902 44.555 23.242 64.948 11.498 20.675 27.993 36.513 47.33 49.657 4.693 3.191 6.121 2.495 7.746-3.123 2.002-6.919.985-13.405-2.637-19.637-3.775-6.495-9.699-10.809-15.471-15.122-19.095-14.269-33.152-32.5-43.878-53.599-6.515-12.815-11.12-26.29-15.253-39.982-1.889-6.259-3.644-12.577-6.679-19.362M55.595 524.067c-.269.423-.665.76-.68 1.11-.411 9.902.036 19.795.545 29.677.218 4.225 2.499 7.29 6.296 9.412 8.592 4.8 18.044 5.793 27.477 5.515 12.495-.368 24.946-1.912 37.272-4.132 19.668-3.543 39.144-7.987 58.535-12.8 5.633-1.399 11.461-2.207 17.484-4.654-1.126-.422-1.489-.677-1.852-.677-27.522-.035-55.045.205-82.553-1.173-11.125-.557-21.776-2.663-31.781-7.623-8.481-4.204-16.911-8.51-25.401-12.698-1.697-.837-3.215-2.348-5.342-1.957m392.457 290.308c1.912 2.931 3.965 3.217 5.74 3.914 20.263 7.956 40.68 15.537 60.769 23.906 21.749 9.06 42.911 19.352 62.441 32.738 18.296 12.54 33.272 27.945 43.039 48.071 1.341 2.764 2.914 5.425 4.529 8.042.73 1.182 1.068 3.088 3.266 2.62.888-2.724 1.516-5.509 1.428-8.395-.323-10.518.452-21.02-1.048-31.572-1.375-9.673-5.004-17.62-12.601-23.75-10.401-8.39-22.239-14.32-34.68-18.745-33.775-12.01-68.401-21.224-103.082-30.199-9.51-2.46-19.054-4.83-29.801-6.63m-87.41-39.72c-1.69-5.814-5.315-10.467-8.486-15.35-6.393-9.843-9.781-20.52-9.86-32.299-.093-13.844.409-27.597 2.416-41.357 2.403-16.47 5.029-32.897 7.81-49.304 2.953-17.409 3.066-34.5-4.71-50.968-3.79-8.029-7.459-16.198-15.167-21.165-11.865-7.646-24.434-14.007-38.002-18.174-1.093-.335-2.462-1.405-3.653.69 1.475 3.004 4.679 4.244 7.32 5.99 6.446 4.264 12.705 8.652 17.531 14.861 9.854 12.677 13.746 27.376 14.516 43.01.674 13.676-1.797 27.105-4.569 40.426-2.414 11.598-4.574 23.26-5.69 35.02-.848 8.943-.309 18.027-.221 27.047.08 8.224 2.102 16.081 5.217 23.648 7.007 17.023 20.269 28.332 35.548 37.924M70.309 661.534c3.856.097 5.799-.989 7.834-1.673 13.64-4.582 27.799-5.479 41.753-3.402 16.95 2.522 29.518 13.092 40.03 26.033 9.193 11.318 16.549 23.887 23.351 36.717 17.426 32.871 33.38 66.471 49.238 100.117 9.19 19.498 17.759 39.303 28.683 57.956 14.844 25.35 34.982 44.873 61.557 57.877 21.883 10.706 44.91 18.02 68.27 24.444 24.615 6.77 49.298 13.276 72.749 23.598 18.88 8.311 35.218 19.9 47.355 36.845 9.031 12.61 15.701 26.492 21.466 40.802 2.692 6.682 5.923 13.29 5.695 20.836-.044 1.436.521 2.99 2.163 3.76 2.219-1.343 1.534-3.55 1.324-5.343-.456-3.913-1.227-7.794-1.982-11.666-2.946-15.104-9.324-28.865-17.067-41.994-7.292-12.365-16.018-23.728-26.645-33.433-15.05-13.742-32.191-24.416-50.293-33.72-30.197-15.527-61.82-27.817-92.883-41.38-18.984-8.29-37.673-17.137-55.15-28.377-21.601-13.892-38.329-31.963-49.533-55.244-7.675-15.948-13.143-32.632-18.159-49.494-6.578-22.117-11.503-44.703-18.763-66.63-6.999-21.14-14.444-42.092-28.406-59.926-11.821-15.1-27.086-23.188-46.521-20.56a194.3 194.3 0 0 0-53.141 15.086c-4.424 1.97-8.278 4.745-12.925 8.77M407.67 775.806c1.224-2.094.003-3.09-.726-4.01-3.656-4.62-5.575-9.93-6.586-15.644-2.319-13.115-1.626-26.375-.667-39.462.86-11.74 2.536-23.493 4.686-35.147 2.821-15.294 5.318-30.662 7.384-46.075 1.481-11.044 3.216-22.133.681-33.377-4.78-21.198-14.751-38.878-33.14-51.28-12.33-8.315-25.76-14.298-39.714-19.2-24.526-8.617-49.824-14.34-75.19-19.768-27.498-5.883-55.065-11.47-81.992-19.709-18.572-5.68-36.851-12.17-53.322-22.67-14.515-9.255-27.497-20.199-38.605-33.642-11.948-14.458-23.668-28.916-32.167-45.73-.521-1.03-.618-2.716-2.955-2.345 0 13.364.043 26.771-.016 40.178-.036 8.155 2.086 15.688 6.582 22.437 6.595 9.896 14.141 19.103 22.206 27.797 14.333 15.451 32.246 24.931 52.663 29.794 13.246 3.156 26.693 5.047 40.189 6.863 10.444 1.405 20.947 2.26 31.399 3.357 8.253.867 16.677 1.211 24.943 2.03 14.608 1.445 29.248 2.71 43.817 4.737 14.587 2.03 29.103 4.215 43.324 8.02 21.111 5.648 39.685 15.171 53.048 33.42 8.712 11.896 14.531 24.17 13.867 39.471-.685 15.805-1.643 31.59-2.964 47.331-1.539 18.326-5.034 36.444-6.747 54.776-1.396 14.94.393 29.398 5.822 43.334 4.512 11.581 13.212 19.126 24.18 24.514m218.081 7.67c-5.982-.985-10.496-.767-15.059-.265-11.117 1.223-22.229 2.592-33.381 3.357-8.102.556-16.215 1.221-24.307 1.801-15.405 1.103-30.661 1.015-46.072-.114-28.745-2.109-54.196-27.733-59.277-51.027-4.097-18.787-2.491-37.563-.139-56.32 1.198-9.556 3.146-19.017 4.553-28.55 2.496-16.9 5.3-33.748 6.983-50.778 1.11-11.226 1.61-22.314-.413-33.426-2.576-14.142-9.332-26.165-20.021-35.57-13.33-11.73-28.909-20.046-45.132-27.093-31.748-13.79-64.688-24.233-97.653-34.627-32.95-10.388-66.047-20.388-97.698-34.475-16.993-7.562-32.872-16.975-47.174-28.838-16.558-13.735-29.764-30.499-42.033-48.02-17.054-24.355-32.269-49.883-47.901-75.145-1.428-2.308-2.59-4.855-5.292-7.167-.925 11.445-.87 21.79 3.506 31.834 4.667 10.71 9.782 21.181 15.554 31.317 10.36 18.191 22.357 35.303 34.898 52.047 13.048 17.418 28.301 32.38 47.024 43.785 23.31 14.201 48.38 24.218 74.372 32.118 27.364 8.317 54.942 15.93 82.076 25.003 26.116 8.733 52.146 17.697 76.567 30.613 17.301 9.15 33.002 20.232 43.576 37.342 5.653 9.146 9.699 18.955 10.603 29.546 1.062 12.454.705 24.96-.828 37.484-1.866 15.25-4.843 30.287-7.371 45.41-3.218 19.256-6.464 38.448-6.343 58.118.087 14.153 4.104 26.894 11.324 38.7 5.556 9.085 13.445 15.617 23.966 18.552 8.928 2.492 18.021 3.992 27.281 4.174 9.032.178 18.07.083 27.105.073 13.222-.015 26.493.644 39.652-.274 16.643-1.16 33.387-1.33 49.911-3.836 5.48-.83 11.447-.73 17.143-5.75m.258 395.817c2.525-10.68 3.702-19.56-1.448-28.177-2.496-4.174-5.395-7.98-8.83-11.465-13.83-14.032-26.07-29.218-33.829-47.58-6.175-14.61-11.306-29.593-15.95-44.742-5.882-19.188-12.946-37.886-22.521-55.572-11.814-21.82-27.455-40.24-48.133-54.224-30.1-20.357-60.918-39.593-91.774-58.77-35.903-22.313-72.408-43.698-106.988-68.067-14.362-10.122-28.707-20.37-39.602-34.566-7.413-9.66-12.748-20.365-13.62-32.41-1.11-15.336-.401-30.774 1.345-46.083 1.319-11.57 1.939-23.17 2.459-34.788.316-7.064-.73-14.029-1.211-21.04-.652-9.515-2.384-18.792-6.064-27.529-5.862-13.916-16.238-22.283-31.705-23.08-16.378-.844-32.491 1.297-48.237 5.766-6.57 1.864-13.069 4.168-19.857 8.403 15.654 1.118 30.204-.359 44.691 1.495 8.413 1.077 15.719 3.837 21.896 9.62 10.643 9.964 16.573 22.59 20.642 36.28 7.25 24.4 8.632 49.646 10.425 74.781.875 12.271 2.169 24.451 4.175 36.557 3.755 22.654 13.66 42.021 30.906 57.565 12.498 11.265 26.31 20.63 40.589 29.387 32.491 19.926 66.524 37.102 99.806 55.616 23.489 13.065 46.66 26.613 68.816 41.86 15.162 10.433 28.608 22.85 40.501 36.73 12.731 14.854 20.975 32.431 27.467 50.824 6.452 18.276 10.687 37.175 15.966 55.781 4.15 14.624 8.915 28.972 17.753 41.694 11.663 16.788 27.28 29.776 42.332 45.734m.237-78.43c3.02-11.927 2.141-22.448.159-32.8-6.506-33.977-16.468-66.982-29.124-99.164-11.567-29.414-30.089-53.318-56.114-71.623-22.772-16.017-46.999-29.459-71.617-42.258-33.799-17.573-68.154-34.079-101.391-52.726-19.215-10.78-37.947-22.312-54.931-36.457-11.085-9.233-20.108-19.769-21.947-34.817-.612-5.004-1.524-9.997-1.742-15.019-.803-18.475.22-36.93 1.517-55.345.353-5.01.521-10.09 1.259-15.075 2.033-13.712 3.218-27.466 2.451-41.329-.57-10.285-4.715-19.076-11.626-26.637-11.691-12.79-26.877-17.812-43.548-19.275-2.865-.25-6.093-1.013-9.266 1.185 2.989 3.25 6.925 4.28 10.309 6.117 6.447 3.5 12.526 7.462 17.029 13.334 5.908 7.704 10.842 16.058 15.141 24.74 3.141 6.345 4.578 13.124 4.851 20.325.48 12.685-2.592 24.833-4.664 37.137-3.317 19.693-6.593 39.387-6.004 59.458.269 9.161 2.651 17.762 7.576 25.601 5.226 8.316 12.006 15.157 19.857 20.96 33.675 24.888 68.792 47.626 105.06 68.496 40.874 23.52 80.919 48.273 119.267 75.723 12.197 8.73 23.838 18.124 33.027 30.133 15.808 20.658 27.135 43.642 35.264 68.276 5.236 15.865 9.525 32.03 15.766 47.583 5.997 14.946 13.904 28.774 23.441 43.456M72.186 690.313c-3.325-.404-7.222.41-11.098 1.226-4.552.961-5.837 2.644-5.902 7.301-.079 5.59 2 8.697 8.747 10.808 6.449 2.017 12.283 5.027 17.322 9.315 5.518 4.694 11.353 9.012 16.453 14.236 5.083 5.206 9.618 10.884 14.611 16.132 8.505 8.94 16.251 18.51 23.9 28.13 17.529 22.043 33.627 45.158 49.942 68.104 30.587 43.021 60.947 86.218 93.935 127.462 12.055 15.073 23.828 30.464 39.23 42.572 8.851 6.958 18.318 12.511 29.52 13.752 9.59 1.063 19.24 2.197 28.99 1.502 22.618-1.61 45.259-2.74 67.95-2.415 6.155.088 12.279-.008 18.391 1.241 8.982 1.836 17.343 4.715 24.342 10.963 14.335 12.798 23.94 28.537 29.938 46.674 8.229 24.882 13.321 50.518 18.186 76.18 4.131 21.794 8.006 43.623 13.475 65.142 4.47 17.59 11.214 34.28 20.724 49.66 11.931 19.292 30.055 31.853 49.471 42.64 5.417 3.01 8.255 1.263 8.899-4.827 1.135-10.708-2.229-19.439-11.404-25.676-6.188-4.207-12.271-8.576-18.286-13.028-15.254-11.29-27.733-24.875-36.154-42.147-8.954-18.363-14.143-37.855-18.73-57.585-5.813-25.008-9.124-50.544-15.918-75.344-5.54-20.225-12.048-40.028-24.53-57.315-12.083-16.733-27.969-27.829-48.129-32.45-21.619-4.958-43.65-7.519-65.602-10.39-14.374-1.879-28.722-3.739-42.784-7.283-16.464-4.15-31.198-11.594-44.262-22.62-11.897-10.04-21.551-21.972-30.687-34.355-19.623-26.597-36.629-54.904-53.804-83.098-17.514-28.752-34.035-58.109-52.43-86.324-13.467-20.656-27.321-41.024-45.539-57.979-13.569-12.628-29.295-20.014-48.767-20.204m557.09 687.827c-.007-9.794-.936-11.238-9.759-15.827a185 185 0 0 1-9.799-5.476c-11.517-6.913-22.894-14.03-33.407-22.449-19.495-15.612-30.748-36.475-38.003-59.784-8.709-27.98-12.842-56.913-17.424-85.749-3.997-25.16-8.523-50.197-16.944-74.379-6.584-18.903-16.727-35.27-32.125-48.299-9.54-8.07-20.42-12.305-32.838-10.975-12.686 1.358-24.992 4.775-37.21 8.495-15.999 4.87-32.14 8.982-49.142 8.362-17.016-.62-31.794-6.342-44.009-18.246-17.831-17.377-33.399-36.745-49.291-55.845-18.703-22.476-36.681-45.517-54.655-68.566-14.192-18.2-28.015-36.693-42.328-54.799-15.668-19.819-31.612-39.424-47.63-58.963-8.772-10.7-18.117-20.93-26.872-31.642-5.019-6.14-11.075-11.315-15.735-17.792-2.548-3.543-5.783-6.67-9.382-9.243-4.453-3.18-6.692-2.15-7.308 3.385-.819 7.353-.186 14.462 3.757 21.04 3.511 5.854 7.118 11.626 11.244 17.077 9.421 12.445 19.113 24.676 28.194 37.39 34.297 48.021 66.289 97.56 98.008 147.288 20.364 31.926 41.198 63.504 70.443 88.384 11.501 9.785 23.848 18.08 38.684 21.983 7.483 1.97 14.894 3.087 22.735 1.125 10.263-2.567 20.414-5.41 30.291-9.162 12.554-4.766 25.069-9.619 37.873-13.698 10.094-3.217 20.433-6.095 30.928-6.124 23.663-.066 41.961 10.17 53.349 31.314 7.829 14.535 10.619 30.632 13.472 46.643 2.461 13.815 4.14 27.743 5.709 41.688 1.471 13.074 3.296 26.108 4.85 39.173 1.372 11.548 2.62 23.111 3.856 34.674.89 8.323 2.764 16.48 4.045 24.733 4.907 31.6 18.338 58.455 43.259 79.184 17.519 14.572 37.867 23.058 59.727 28.282 8.633 2.063 12.889-1.623 13.43-10.56.053-.878.007-1.762.007-2.642M106.672 258.69c0 .907-.134 1.388.02 1.743 2.452 5.65 4.976 11.267 7.415 16.922 14.454 33.512 33.077 64.585 55.119 93.63 6.108 8.05 12.55 15.814 20.821 21.911 19.899 14.667 42.491 23.98 65.204 33.047 38.245 15.267 77.458 27.891 116.015 42.307 22.702 8.488 45.187 17.492 66.372 29.376 14.388 8.071 27.093 18.137 35.623 32.582 4.232 7.166 8.841 14.272 9.153 23.04.68 19.147-.132 38.293-1.579 57.342-1.212 15.961-2.045 31.96-3.422 47.918-1.206 13.968-2.102 28.044-1.638 42.148.262 7.955 1.17 15.78 3.158 23.42 3.263 12.541 10.147 22.5 22.475 27.65 7.122 2.976 14.74 4.306 22.483 4.573 16.348.563 32.372-1.957 48.384-4.89 16.871-3.09 33.466-7.372 50.193-11.079 6.786-1.504 6.763-1.607 6.816-8.753l.002-.66c0-154.955.001-309.909-.006-464.865-.001-7.86-.039-7.866-8-7.866-168.797-.007-337.594-.015-506.391-.003-2.624 0-5.284-.339-8.217.506M56.189 863.684l-1.489.847c0 3.481.003 6.962-.001 10.443-.093 101.265-.258 202.53-.263 303.795-.007 125.7.109 161.682.204 287.383.007 9.142-1.657 8.861 8.85 8.861q278.363.003 556.726-.004c1.983 0 3.966-.04 5.948-.093 1.837-.048 2.852-1.049 2.985-2.847.113-1.534.13-3.079.13-4.618.007-33.902.015 21.915-.005-11.987-.004-6.637-.032-6.715-6.295-8.927-11.022-3.892-21.764-8.306-31.933-14.196-12.227-7.084-23.804-15.059-34.995-23.635-19.993-15.323-35.506-33.94-44.013-58.062-6.685-18.952-10.978-38.487-14.697-58.117-5.472-28.889-9.957-57.962-15.093-86.915-2.763-15.572-6.047-31.042-10.649-46.215-3.916-12.91-10.315-24.095-20.31-33.39-15.35-14.28-33.326-21.877-54.219-22.234-13.05-.223-25.737 2.596-38.309 5.85-10.888 2.818-21.441 6.632-31.982 10.505-5.161 1.895-10.491 3.331-15.659 5.207-11.452 4.158-21.992 1.982-32.216-3.978-13.597-7.926-25.539-17.986-36.987-28.615-7.082-6.574-13.528-13.808-19.993-21.038-12.174-13.615-23.815-27.657-34.992-42.05-23.483-30.24-45.563-61.523-67.617-92.813-12.679-17.99-25.574-35.799-41.083-51.518-7.23-7.329-14.688-14.433-22.043-21.639M18.335 908.52c-.001-227.63-.003-455.259.007-682.888 0-10.593-.926-9.604 9.573-9.605 209.38-.014 418.759-.012 628.139-.005 10.833 0 10.239-.98 10.238 10.487-.005 310.624-.005 621.248-.024 931.872-.001 25.315-.136 50.63-.21 75.946-.004 1.1.129 2.228-.06 3.298-4.059 22.984-.97 46.118-1.426 69.175-.2 10.118.129 20.251.374 30.374 2.073 85.61 1.132 81.515 1.325 167.134.003 1.101-.059 2.203-.02 3.302.108 2.995-1.176 4.53-4.311 4.371-1.758-.09-3.525.007-5.289.007-209.819.001-419.639.004-629.459-.007-9.479 0-8.851.864-8.851-8.972-.006-228.069-.004-366.419-.006-594.489"/><path d="M1946.615 605.267c-15.28 16.387-30.8 32.604-44.9 50.061-21.412 26.53-41.67 53.931-61.512 81.643-19.97 27.9-39.5 56.122-60.52 83.263-9.68 12.505-19.572 24.84-29.792 36.935-9.68 11.445-19.76 22.46-30.5 32.884-8.18 7.953-17.45 14.094-28.86 16.406-14.22 2.891-27.57 1.011-39.7-7.343-.75-.51-1.342-1.13-1.442-2.38 2.08-2.042 4.861-1.132 7.311-1.132 7.94.021 15.78-.219 23.51-2.45 13.37-3.852 23.86-12.166 33.611-21.449 18.85-17.978 34.42-38.766 49.931-59.574 26.56-35.645 51.171-72.659 76.981-108.824 16.74-23.45 33.841-46.629 51.711-69.238 13.09-16.547 26.511-32.783 40.441-48.65 7.55-8.613 16.19-16.196 23.23-25.26.78-1 1.62-2.12 3.78-2.55 2.861 18.156-.429 33.873-13.28 47.658m14.05 616.94c-.01 15.636-.29 31.262-.279 46.89.06 87.374.19 108.213.27 195.598.01 11.675.78 10.284-10.29 10.284-152.724.021-305.446.13-458.169-.099-28.85-.04-57.7-1.522-86.582-1.24-4.15.04-8.31-1-12.48-1.202-3.33-.16-4.72-1.85-5.02-4.89-.04-.442-.11-.882-.09-1.312.72-12.136-1.34 42.396-1.35 30.281-.06-53.92-.21-107.853-.47-161.786-.04-8.783-1.16-17.556-.7-26.37.3-5.922.62-11.854.8-17.787.09-2.75 1.26-4.572 3.76-5.633 1.01-.439 1.94-1.09 2.97-1.46 11.98-4.272 21.78-12.255 32.511-18.708 13.36-8.043 23.33-19.487 32.84-31.212 6.87-8.463 12.01-18.377 17.56-27.85 17.801-30.384 30.251-63.057 40.211-96.67 10.061-33.924 19.45-68.048 29.28-102.04 4.151-14.367 8.771-28.583 14.12-42.559 4.881-12.765 12.301-23.809 21.521-33.704 8.25-8.852 18.511-14.295 30.631-15.136 7.68-.54 15.24 1.471 22.76 3.122 15.3 3.341 29.92 8.923 44.881 13.416 7.59 2.28 15.25 4.571 23.071 5.322 13.67 1.31 26.2-2.392 36.671-11.595 9.98-8.773 18.15-19.148 25.61-30.082 16.75-24.54 33.27-49.23 50.211-73.63 10.27-14.806 21.32-29.042 32.77-42.988 12.151-14.786 25.101-28.84 37.691-43.217 15.46-17.647 33.07-32.893 50.361-48.499 7.44-6.703 14.93-13.586 23.84-19.288 1.561 3.121 1.05 5.572 1.05 7.933.04 182.033.051 364.077.04 546.11m-290.055-965.62c-18.75 7.433-37.42 15.066-55.78 23.43-16.63 7.573-32.972 15.646-47.432 27.141-12.6 10.014-20.2 23-24.5 38.175-4.1 14.466-6.46 29.192-5.36 44.238.58 7.853.99 15.726 2.19 23.56 1.36 8.863 2.02 17.846 3 26.77 1.2 10.885 2.99 21.75 3.48 32.663.54 12.056 2.28 24.08 1.22 36.205-.87 10.044-1.29 20.108-4.56 29.842-3.83 11.385-11.83 17.347-23.39 18.258-6.88.55-13.43-1.98-19.632-4.953-12.75-6.112-24.419-14.015-36.04-21.978-22.32-15.306-43.88-31.723-66.88-46.049a202 202 0 0 0-5.09-3.06c-1.42-.832-2.272-1.962-2.46-3.653-.39-3.49-1.362-6.983-1.24-10.444.5-13.455-1.52-26.78-1.492-40.206.13-49.07-.009-98.14-.04-147.21-.01-7.572-.01-15.156 0-22.729Zm139.332 0c-29.03 10.865-58.63 20.088-88.03 29.882-24.65 8.214-49.252 16.567-72.883 27.491-14.439 6.663-28.5 14.046-40.66 24.36-14.69 12.475-24.57 28.262-28.23 47.24-2.58 13.345-2.95 26.86-2.12 40.616 1.32 22.05 6.42 43.347 10.2 64.926 1.59 9.063 3.18 18.127 3.49 27.371.11 3.281 1.13 6.523 1.24 9.794.44 13.275-.71 26.471-5.38 38.916-7.76 20.688-25.09 34.193-48.78 35.194-17.392.74-34.072-3.11-50.702-7.243-27.52-6.823-54.75-14.766-82.422-21.018-3.42-.77-6.87-1.46-10.28-2.302-6.09-1.51-8.53-4.44-8.65-10.693a582 582 0 0 1 0-21.79c.11-6.222 2.19-7.983 8.23-6.752 7.99 1.62 15.66 4.412 23.35 7.073 24.141 8.323 47.652 18.357 72.052 25.97 12.38 3.862 24.8 7.553 37.63 9.684 5.7.95 11.501 1.18 17.1.24 7.951-1.35 13.801-6.523 18.831-12.555 8.39-10.074 11.66-21.719 11.92-34.774.451-22.519-2.8-44.598-6.13-66.747-2.51-16.677-5.48-33.283-7.38-50.07-1.22-10.775-2.01-21.539-.89-32.213 1.62-15.517 6.44-30.002 17.181-42.007 9.24-10.324 20.31-18.127 32.44-24.59 26.311-14.006 54.101-24.57 81.951-34.984 19.281-7.213 38.611-14.286 58.072-21.019Zm134.793 0c-8.17 11.475-17.18 22.26-28.31 31.183-12.36 9.904-26.662 16.166-42.032 19.998-16.65 4.162-33.58 6.373-50.64 8.193-18.97 2.031-37.992 3.722-56.93 6.123-23.762 3.011-47.513 5.792-70.683 12.075-14.58 3.951-28.32 9.693-39.74 19.987-12.73 11.485-20.64 25.381-22.59 42.668-1.56 13.846-1.12 27.571-.14 41.427.99 14.005 2.16 28.001 3.27 41.986 1.18 14.867 1.69 29.783 3.4 44.63 1.01 8.682.35 17.586.17 26.38-.07 3.071-1.12 6.162-2.76 8.743-4.35 6.863-9.52 13.075-15.78 19.188-1.73-2.942-1.15-5.172-1.16-7.294-.07-10.124-.12-20.257-.01-30.382.15-13.195-1.35-26.27-2.46-39.395-2.13-25.2-7.23-49.87-11.452-74.72-2.229-13.106-1.679-26.35 5.46-38.416 4.031-6.813 7.931-13.706 11.871-20.568 4.95-8.654 12.22-14.827 20.67-19.918 14.25-8.594 29.571-14.646 45.301-19.799 29.301-9.594 59.291-16.556 89.242-23.669 24.83-5.903 49.71-11.645 73.631-20.728 16.96-6.433 32.261-15.477 45.771-27.692Zm14.271 103.952c-.66 3.182-2.73 5.382-5.94 6.503-3.96 1.371-8.03 2.501-12.18 2.711-9.202.45-18.372.82-27.652.411-17.18-.78-34.08-3.202-50.73-7.074-13.88-3.23-27.52-7.503-41.26-11.344-.34-.1-.58-.58-1.7-1.74 19.75 0 38.68.5 57.58-.14 18.67-.63 37.2-2.722 54.241-11.606 8.48-4.41 15.67-10.484 22.771-16.717 1.63-1.43 3.18-2.95 4.64-4.32 2.49.76 1.8 2.6 1.81 3.941.09 9.883.01 19.777.09 29.662.03 3.36-1 6.502-1.67 9.713m-5.5 64.456c-3.59-1-7.23-1.96-10.64-3.42a351 351 0 0 1-36.582-18.139c-.55-.31-1.22-.64-1.02-1.83 4.46.06 8.76 1.571 13.1 2.551 10.461 2.371 21.161 3.791 31.311 7.443 2.91 1.05 5.81 2.101 8.22 4.082 1.97 1.62 3.47 3.541 2.14 6.252-1.319 2.701-3.59 3.882-6.53 3.061m-30.2 30.672c7.79 3.622 15.41 7.604 23.04 11.545 2.49 1.291 4.791 2.961 7.17 4.462-3.339 1.06-5.91-.17-8.5-1.26-16.99-7.163-34.8-9.184-53.01-8.063-7.77.47-14.152 4.602-19.76 9.763-15.86 14.596-28.482 31.673-39.032 50.411-16.57 29.422-29.12 60.654-41.76 91.857-11.07 27.321-22.352 54.522-37.36 80.062-18.472 31.443-44.882 53.092-78.513 66.567-19.24 7.713-38.96 13.876-58.812 19.768-23.88 7.083-47.51 14.816-69.3 27.251-17.99 10.264-32.38 23.95-42.43 42.267-10.08 18.357-15.592 38.206-20.42 58.324-5.642 23.48-9.57 47.33-15.952 70.64-6.06 22.167-13.58 43.766-27.43 62.464-12.48 16.836-27.93 30.432-46.63 40.095-7.012 3.622-7.302 2.922-8.082-4.75-1.309-12.946 5.981-21.019 14.781-28.483 10.39-8.814 20.84-17.527 30.611-27.09 14.68-14.377 24.55-31.474 31.2-50.65 7.65-22.05 12.41-44.849 17.45-67.569 4.101-18.487 9.061-36.664 17.481-53.8 9.65-19.639 24.131-35.025 41.23-48.2 23.681-18.258 50.321-31.473 76.892-44.829 26.581-13.345 54.231-24.41 80.571-38.215 21.871-11.465 41.182-26.25 56.661-45.639 7.46-9.333 13.261-19.638 17.471-30.892 11.67-31.153 20.21-63.216 28.511-95.369 4.61-17.877 9.4-35.714 16.02-53 5.09-13.307 12.61-25 21.99-35.746 8.86-10.163 20.12-13.575 32.941-13.775 18.6-.29 36.2 4.072 52.97 11.854m-59.45-45.348c-15.23-2.18-30.26-1.23-44.94 3.452-7.03 2.241-11.74 7.523-15.942 13.295-8.04 11.065-12.44 23.67-15.73 36.765-4.18 16.637-6.27 33.563-7.91 50.61-1.35 14.186-1.91 28.432-3.56 42.598-1.3 11.094-2.33 22.21-4.04 33.263-1.35 8.723-4.84 16.387-9.7 23.56-7.35 10.824-16.57 19.808-26.64 28.141-26.43 21.87-55.942 38.926-85.732 55.593-32.07 17.957-64.502 35.314-94.652 56.482-16.43 11.535-32.07 24.06-45.25 39.236-16.52 19.017-27.852 41.017-35.83 64.846-5.042 15.026-8.802 30.393-12.992 45.64-4.26 15.525-10.02 30.501-16.46 45.218-4.36 9.953-10.8 18.626-17.55 27.05a199 199 0 0 1-13.09 14.806c-6.95 7.123-15.13 12.726-22.492 19.328-.939.84-2.059 1.66-4.5 1.62 0-7.613-.399-15.076.151-22.469.35-4.63 2.57-9.034 6.97-11.444 12.37-6.793 20.64-17.607 28.6-28.712 14.13-19.698 24.011-41.367 30.501-64.716 5.6-20.118 12.03-40.006 20.04-59.344 9.901-23.91 23.58-45.268 43.191-62.375 13.77-12.005 28.68-22.549 43.941-32.614 44.471-29.33 89.191-58.283 133.192-88.325 14.54-9.924 28.971-20.008 42.891-30.803 10.481-8.133 20.15-16.946 26.87-28.67 4.49-7.844 7.061-16.018 7.051-25.05-.04-34.765-.29-69.539.1-104.313.14-12.906 1.19-25.92 7.46-37.776 7.57-14.316 19.97-21.548 35.59-22.789 24.281-1.94 45.851 6.383 65.992 19.148.29.19.36.74.69 1.47-5.54-.94-10.86-1.95-16.22-2.72M1670.31 464.91c-2.69-14.236-5.11-28.572-5.64-43.018-.99-27.12 10.04-48.56 32.65-63.846 5.301-3.58 10.891-6.602 17.061-8.513 3.46-1.08 6.81-.94 10.74-.42-.51 2.05-1.28 2.841-2.3 3.321-11.75 5.582-18.54 15.887-24.99 26.451-1.82 2.991-2.98 6.372-4.68 9.454-6.19 11.234-5.74 23.4-4.39 35.414 2 17.837 5.38 35.504 7.55 53.331 1.82 15.026 4.23 29.982 3.82 45.188-.28 10.275-2.49 20.12-8.1 28.832-8.28 12.886-19.062 23.53-31.19 32.824-2.08 1.59-4.412 2.751-7.812 3.681.971-3.19 2.771-4.952 4.49-6.713 13.811-14.115 19.611-31.362 20.181-50.76.66-22.119-3.33-43.668-7.39-65.226m-276.405 427.682c6.98-15.936 11.63-32.713 16.59-49.36 6.65-22.329 12.27-44.968 20.94-66.667 6.191-15.506 15.261-29.03 26.521-41.396 24.06-26.41 53.461-45.559 84.092-63.176 29.01-16.697 58.861-31.843 88.151-48.009 21.791-12.025 43.381-24.42 63.111-39.646 9.771-7.543 18.761-15.997 25.46-26.56 7.731-12.176 11.571-25.38 11.901-39.867.46-19.908-2.93-39.326-6.34-58.774-2.75-15.646-5.06-31.613-2.66-47.199 4.22-27.41 19.001-45.868 46.791-52.62 4.3-1.042 8.64-1.692 13.07-1.362 1.93.15 4.34-.3 4.89 2.261.49 2.291-1.42 3.612-3.14 4.552-3.07 1.701-6.21 3.351-9.46 4.672-11.15 4.532-19.38 12.155-24.12 23.17-3.21 7.462-5.04 15.316-6.14 23.47-1.25 9.243-1.27 18.436-.99 27.63.35 11.615 1.65 23.16 3.41 34.664 2.95 19.158 3.85 38.465 2.93 57.803-.31 6.473-3.48 12.315-6.87 17.697-6.37 10.115-14.572 18.638-23.74 26.351-38.732 32.563-82.483 57.773-124.633 85.325-28.74 18.787-57.272 37.875-84.502 58.823-20.91 16.087-39.43 34.404-52.73 57.483-8.632 14.967-14.372 31.113-19.382 47.55-4.49 14.706-7.79 29.742-12.879 44.298-7.11 20.348-17.27 38.955-30.42 55.973-1.58 2.04-3.17 4.181-5.902 5.122-1.84-2.272-1.58-4.723-1.559-7.064.09-12.245 2.66-23.849 7.61-35.144m-7.25-245.789V610.17c0-2.26 1.12-2.92 3.34-2.87 13.83.37 27.62 1.48 41.41 2.51 8.101.61 16.211 1.03 24.291 1.791 12.86 1.2 25.78 2.13 38.36 5.342 1.621.41 3.471.54 4.691 3.221-18.91 3.301-37.77 5.002-56.192 9.494-18.6 4.542-36.43 11.424-55.9 17.147m2.68 70.738c.89-4.2 2.85-7.723 5.77-10.894 8.4-9.084 17.821-16.926 27.88-24.11 19.7-14.065 41.192-24.229 64.321-31.402 33.601-10.425 67.202-20.809 101.243-29.743 1.87-.489 3.76-.91 7.13-1.73-2.88 3.151-5.55 3.832-7.92 4.832-16.83 7.053-34.02 13.255-50.662 20.798-30.51 13.826-60.37 28.702-86.74 49.8-17.592 14.066-31.342 31.283-43.282 50.141-4.85 7.643-8.64 15.806-12.38 24.02-2.08 4.552-4.33 9.033-6.5 13.545-.5-.1-1-.19-1.51-.29 0-11.845.13-23.7-.04-35.545-.13-9.914.63-19.708 2.69-29.422m209.044 160.846c-2.96 2.13-6.64 2.76-10.02 3.981-10.65 3.861-20.49 8.964-28.98 16.677-9.572 8.674-15.88 19.408-20.432 31.192-6.58 17.077-10.46 34.895-13.34 52.932-6.03 37.665-11.11 75.511-21.15 112.415-6.6 24.27-14.87 47.84-27.32 69.868-15.77 27.922-39.1 47.13-67.892 60.355-4.83 2.221-10.06 3.001-14.97 4.932-4.89 1.931-6.88-.27-7.77-5.542-2.08-12.265 2.73-20.119 13.96-25.18 10.62-4.802 20.961-10.285 31.201-15.867 19.07-10.394 33.87-24.92 43.29-44.808 5.12-10.804 9.03-21.979 12.11-33.453 6.49-24.18 10.651-48.83 14.731-73.52 5.23-31.583 10.22-63.235 18.751-94.158 2.63-9.534 5.79-18.888 10.04-27.892 4.9-10.384 12.41-18.147 22.27-23.619 14.03-7.773 29.13-10.934 45.16-9.274.09.01.141.36.361.961m-23.56-32.994c-14.63-.03-26.86 5.852-37.622 15.316-12.769 11.245-20.47 25.711-26.25 41.367-8.03 21.71-12.89 44.248-17.09 66.938-5.37 28.901-10.04 57.943-18.48 86.174-6.08 20.308-13.18 40.197-25.99 57.443-7 9.414-15.71 17.157-24.992 24.301-11.23 8.653-23.87 14.915-36.22 21.678-.32.17-.82.02-1.63.02-.47-6.322-.71-12.675.58-18.858.96-4.602 3.94-8.163 8.08-10.824 8.51-5.463 17.31-10.564 24.971-17.227 14.84-12.885 28.74-26.68 38.7-43.858 6.14-10.574 9.14-22.369 12.39-34.014 7.25-26.02 11.79-52.65 17.321-79.072 4.69-22.379 9.81-44.658 18.26-65.996 4.31-10.875 9.581-21.249 16.871-30.503 9.7-12.315 22.31-20.458 36.93-25.63 14.77-5.232 30.16-7.663 45.631-9.804 20.62-2.84 41.61-3.07 61.761-9.174 22.29-6.753 42.52-16.946 58.701-34.084 7.73-8.183 13.98-17.547 20.11-26.94 17.83-27.27 34.051-55.503 50.211-83.784 19.22-33.614 37.051-68.038 57.751-100.8 9.63-15.257 19.71-30.203 31.731-43.758 13.45-15.177 29.73-25.42 49.93-28.612 7.381-1.17 14.412 1.25 20.891 4.712 3.141 1.671 2.94 4.002-.229 5.942a19.7 19.7 0 0 1-4.81 2.121c-12.88 3.721-22.982 11.965-32.732 20.528-13.49 11.855-23.42 26.791-33.9 41.167-32.04 43.948-62.182 89.186-91.532 134.944-16.88 26.311-33.4 52.832-50.36 79.082-10.54 16.307-22.79 31.263-37.022 44.57-12.46 11.653-27.08 17.806-44.13 17.945-15.65.131-31.34.731-46.93-.189-13.652-.8-27.26-1.1-40.902-1.12m422.848 656.156c0-119.099-.02-171.65-.01-290.749 0-318.069.01-636.137.02-954.216v-35.745a4.84 4.84 0 0 0-4.839-4.84h-638.293a4.84 4.84 0 0 0-4.84 4.84v35.745c-.02 209.855-.02 419.7-.02 629.555h.14c0 121.298.02 242.597 0 363.897-.02 106.322-.1 146.11-.13 252.433 0 10.664-.83 9.483 9.65 9.483 209.384.021 418.768.021 628.142 0 10.97 0 10.18 1.331 10.18-10.403"/><path d="M1291.834 1467.485c0 5.862-1.857 5.942-7.527 6.032-13.33.21-26.67.48-40 .49-77.809.04-155.628.02-232.527.02-12.75.23-25.46.421-38.119.57 3.1-3.07 5.92-6.47 8.5-10.163 8.199-11.745 14.239-24.53 19.249-37.835 9.23-24.539 15.69-49.889 21.21-75.479 2.72-12.555 5.35-25.129 7.94-37.725 6.089-29.62 12.23-59.272 19.879-88.523 5.571-21.269 11.581-42.567 22.241-62.094 5.09-9.323 11.409-17.557 20.829-22.959 13.44-7.703 27.13-6.962 40.88-.98 10.519 4.582 19.859 11.174 28.179 18.897 12.81 11.875 25.24 24.2 36.509 37.564 10.53 12.505 20.561 25.43 31 38.005 13.66 16.447 27.4 32.823 42.85 47.678 3.49 3.361 7.479 6.003 11.33 8.854 5.819 4.321 8.599 9.683 8.699 17.256.54 40.835-1.122 158.505-1.122 160.392m-543.911 6.603c-7.669.01-15.259-.81-22.879-1.28-2.61-.172-4.01-1.23-4.73-2.872.01-.06.03-.12.05-.18 1.39-4.632 1.43-4.562 6.35-3.942 12.97 1.65 25.59 4.902 38.169 8.253-5.65 0-11.299.011-16.96.021m-26.609-92.696c.97-2.2 2.39-2.98 4.65-1.99 2 .87 4.04 1.67 5.99 2.62 22.75 11.164 45.659 21.918 69.879 29.661 21.41 6.853 43.069 12.865 65.299 16.116 17.04 2.492 34.269 3.373 51.329-.86 23.36-5.792 40.57-19.548 52.63-40.085 9.289-15.806 14.66-33.043 18.51-50.819 6.809-31.492 12.649-63.145 17.399-95.017 2.18-14.616 5.14-29.12 7.51-43.707 4.68-28.83 10.5-57.402 18.75-85.432 4.88-16.597 11.03-32.673 21.92-46.478 7.279-9.234 16.609-15.396 28.039-18.067 6.95-1.63 13.37.98 19.599 3.701 9.931 4.332 18.21 11.125 26.3 18.138 15.54 13.464 29.32 28.73 43.46 43.585 11.86 12.456 22.88 25.71 33.699 39.125 13.161 16.327 27.32 31.823 43.44 45.298 8.33 6.953 16.939 13.646 28.069 16.246 11.05 2.581 14.22 13.475 14.04 20.478-.189 7.653-5.099 11.015-12.3 8.654a34.1 34.1 0 0 1-11.889-6.773c-14.45-12.665-28.32-25.92-41.22-40.205-10.54-11.675-19.85-24.3-29.569-36.624-13.4-16.996-28.56-32.372-45.03-46.468-5.969-5.102-11.74-10.414-18.04-15.126-6.71-5.022-14.09-8.693-21.899-11.614-9.55-3.572-18.64-2.782-27.8 1.79-17.43 8.683-28 23.29-35.559 40.425-8.831 20.008-14.47 41.016-19.47 62.294-4.05 17.167-7.78 34.394-10.96 51.73-4.43 24.17-8.279 48.438-12.59 72.64-5.38 30.21-10.249 60.551-19.55 89.903-3.97 12.515-8.84 24.63-17.229 35.043-9.84 12.215-22.98 18.527-38.02 21.14-7.04 1.22-14.23 2.35-18.49 1.72-26.889-.61-50.159-5.094-73.169-11.165-26.029-6.873-51.119-16.356-75.688-27.28-10.371-4.622-20.811-9.084-30.35-15.377-2.94-1.95-5.64-4.142-8.04-6.683-5.71-6.002-6.9-13.164-3.65-20.537m-1.81-81.65c.14-4.144.32-8.255 1.96-12.266 3.01.06 4.93 1.99 7 3.431 20.439 14.195 40.709 28.641 61.279 42.646 16.63 11.315 33.83 21.708 52.909 28.532 9.51 3.39 19.3 5.511 29.41 5.641 19.71.271 35.549-7.332 47.139-23.518 5.64-7.883 10.02-16.426 13.53-25.36 3.5-8.903 7.6-17.596 9.94-26.95 4.6-18.378 9.05-36.794 12.77-55.372 6.14-30.722 10.8-61.703 16.08-92.565 4.74-27.66 9.72-55.33 19.459-81.84 4.15-11.306 9.08-22.24 16.65-31.724 4.36-5.462 9.23-10.464 15.1-14.415 3.919-2.642 8.339-4.172 12.89-4.292 11.14-.3 22.289-.06 33.43-.01.849.01 1.76.14 2.529 1.91-3.97.872-7.729 1.912-11.559 2.482-12.55 1.881-21.39 8.974-28.371 19.157-8.469 12.355-14.449 25.87-19.469 39.865-8.11 22.61-13.74 45.888-18.35 69.417-3.729 19.007-7.22 38.044-9.28 57.342-.739 6.912-2.67 13.695-3.759 20.588-2.48 15.676-4.8 31.382-8.02 46.938-4.7 22.628-9.87 45.137-18.57 66.666-8.12 20.107-20.12 37.154-38.76 48.95-10.5 6.64-22.059 10.232-34.349 11.813-23.19 2.971-45.029-2.86-66.579-10.204-24.26-8.273-46.929-20.138-69.749-31.622-6.63-3.342-13.25-6.713-19.93-9.964-2.59-1.26-3.95-2.94-4.06-6.022-.48-13.085-1.71-26.14-1.27-39.255m571.742-583.884c-1.91 7.442-5.46 14.265-8.939 21.058-17.77 34.643-38.14 67.726-62.05 98.467-18.1 23.28-40.86 41.136-68.319 52.491-9.12 3.771-18.75 5.261-28.669 5.912-18.36 1.2-36.69 1.581-55.039.63-25.56-1.31-51.15-1.13-76.7-.53-16.289.38-32.709.89-48.809 4.162-23.03 4.691-40.49 17.596-53.969 36.454-11.49 16.066-18.01 34.323-23.48 53-6.37 21.748-11.04 43.917-15.82 66.055-5.34 24.73-11.45 49.28-21.11 72.738-3.729 9.064-7.769 18.067-14.869 25.24-15.27 15.435-34.97 16.796-50.809 1.95-20.75-19.457-33.51-43.847-40.21-71.417-.14-.58.17-1.26.4-2.67 3.41 2.2 4.57 5.101 6.15 7.612 7.63 12.115 17.86 21.208 30.559 27.901 14.02 7.392 29.8 4.441 40.94-6.282 11.06-10.655 18.89-23.41 25.76-36.845 11.459-22.389 20.3-45.877 28.609-69.576 9.09-25.94 17.51-52.13 28.42-77.41 6.67-15.457 13.83-30.802 25.129-43.467 13.5-15.106 30.02-25.97 49.99-30.792 14.43-3.49 29.179-4.47 43.989-5.562 25.34-1.86 50.7-.04 75.99-1.32 18.879-.95 37.989-.93 56.478-5.622 29.13-7.373 55.869-20.088 79.949-38.015 22.96-17.107 42.3-37.704 57.2-62.274 4.87-8.023 9.549-16.156 14.57-24.089 1.119-1.78 2.18-5.422 4.729-4.262 2.781 1.26.48 4.352-.07 6.463m-570.862 413.65c2.42 1.85 3.43 4.03 4.7 5.97 10.37 15.917 19.08 32.853 29.68 48.62 4.509 6.701 9.529 12.964 15.059 18.916 13.6 14.616 41.44 13.846 54.77.731 9.309-9.163 15.339-20.048 20.139-31.813 7.53-18.436 12.35-37.684 16.38-57.132 4.99-24.059 9.56-48.208 14.65-72.247 3.03-14.286 6.38-28.55 12.5-41.906 12.54-27.4 34.039-44.177 62.879-51.92 15.37-4.132 31.119-6.123 46.899-8.133 15.771-2.01 31.6-3.252 47.399-4.782 10.38-1.01 20.831-1.78 31.17-3.07 26.14-3.292 52.16-7.504 77.529-14.817 19.97-5.752 39.38-12.955 57.469-23.449 21.701-12.585 39.53-29.27 54.06-49.629 5.319-7.453 10.85-14.756 16.289-22.129.391-.52.75-1.11 1.261-1.5 1.79-1.41 2.979-4.67 5.59-3.682 2.34.871 1.179 3.872 1.29 5.953.739 13.765-2.021 27.42-1.271 41.185.16 3.041-1.33 5.533-3.139 7.713-5.18 6.193-10.27 12.486-15.821 18.328-10.069 10.614-21.249 20.087-32.319 29.622-12.239 10.533-27.109 15.645-42.589 19.056-15.101 3.322-30.39 5.372-45.8 6.813-16.479 1.531-32.949 3.031-49.479 3.981a4728 4728 0 0 0-41.11 2.592 1060 1060 0 0 0-56.559 5.281c-14.48 1.741-28.849 4.392-42.619 9.604-12.03 4.551-22.36 11.644-31.93 20.118-18.31 16.206-27.14 37.555-33.389 60.363-6.09 22.27-9.77 45.057-14.42 67.636-5.4 26.24-10.86 52.48-19.75 77.84-4.06 11.594-9.28 22.558-16.63 32.503-7.04 9.523-16.919 15.095-27.379 19.397-6.8 2.801-14.29 1.361-21.13-1.43-6.52-2.662-12.07-6.643-17.19-11.655-7.17-7.003-14.639-13.655-20.829-21.608-9.27-11.885-18.41-23.84-25.4-37.265-5.89-11.334-10.32-23.109-10.42-36.103-.02-2.392-1.64-4.573-.54-7.953m.09-251.097c1.62-.17 2.23 1.211 3 2.15 6.69 8.114 14.48 15.156 21.83 22.64 3.54 3.611 7.69 6.452 12.11 8.863 12.989 7.072 25.429 4.102 37.319-2.722 13.19-7.562 22.559-19.126 30.979-31.44 15.25-22.28 26.37-46.709 36.8-71.478 8.81-20.918 16.92-42.106 26.26-62.815 11.609-25.76 28.679-47.068 49.599-65.885 15.29-13.745 32.6-22.468 52.679-25.81 10.51-1.74 21.12-2.71 31.79-3.38 39.97-2.492 79.959-.45 119.919-1.392 10.699-.25 21.429-.55 32.079-1.31 21.019-1.49 39.46-10.324 56.699-21.959 8.67-5.852 15.19-13.715 21.26-22.008 10.3-14.086 20.529-28.23 30.739-42.386 1.511-2.09 3.08-4.032 5.2-5.312 1.72 1.3 1.161 2.601.92 3.841-2.759 13.986-7.519 27.311-13.649 40.146-9.8 20.507-20.45 40.545-33.89 58.962-5.65 7.753-11.82 15.056-18.5 21.998-10.03 10.425-22.529 15.557-36.329 17.928-11.6 1.99-23.38 2.211-35.14 2.871-42.599 2.41-85.229.33-127.828 1.25-11.74.25-23.6.66-35.1 3.231-14.939 3.332-28.069 10.704-40.239 19.838-16.67 12.525-27.15 29.891-37.23 47.548-13.549 23.72-24.099 48.96-36.659 73.178-12.77 24.61-25.65 49.16-41.34 72.098-9 13.164-18.939 25.57-30.529 36.623-13.52 12.896-29.33 14.577-46.22 8.974-7.5-2.49-12-9.213-16.609-15.315-9.32-12.335-13.65-26.73-16.73-41.546-1.68-8.074-2.71-16.286-3.97-24.45-.15-.99-.35-2.16.78-2.93m-.83 96.006c0-.58.37-1.15.82-2.43 3.72 2.48 6.19 5.642 8.84 8.723 7.4 8.602 15.21 16.796 24.179 23.848 9.181 7.203 19.68 6.763 30.02 4.752 8.42-1.64 15.62-6.343 22.05-12.255 13.58-12.474 23.07-27.84 31.679-43.837 13.26-24.628 24.16-50.369 35.67-75.819 8.81-19.487 17.78-38.934 28.63-57.4 16.589-28.252 41.199-46.319 72.229-56.103 17.709-5.582 35.819-9.324 54.189-11.834 12.499-1.7 24.97-3.572 37.499-4.982 10.8-1.21 21.69-1.71 32.51-2.83 11.25-1.162 22.5-2.412 33.67-4.143 12.689-1.97 25.35-4.182 37.759-7.623 19.759-5.482 37.95-13.755 54.099-26.86 13.41-10.885 23.83-24.169 34.05-37.735 9.319-12.384 17.55-25.52 25.909-38.574 1.571-2.452 2.62-5.423 6.12-7.204.831 6.073.781 11.595.05 17.157-2.859 21.74-11.38 41.526-21.069 60.894-8.82 17.637-19.24 34.263-31.97 49.328-11.25 13.315-24.93 23.81-40.059 32.343-16.701 9.424-34.6 15.826-53.589 18.367-10.981 1.48-22.16 2.581-33.33 1.27-6.97-.81-13.95-.85-20.95-.85-11.36.02-22.599-1.68-33.91-2.2-8.069-.37-16.099-1.15-24.109-1.86-13.52-1.182-27.07-.692-40.56-1.702-8.329-.63-16.679-.43-24.86.74-11.799 1.701-21.559 8.003-30.219 15.996-16.08 14.846-27.639 33.103-38.829 51.6-15.72 25.98-29.12 53.221-43.45 79.961-13.6 25.38-27.21 50.79-43.719 74.478-5.24 7.513-10.5 15.096-17.55 21.058-7.55 6.383-15.71 11.685-25.72 13.646-5.38 1.06-10.439.45-15.389-1.5-9.33-3.663-17.25-9.395-23.65-17.068-4.65-5.572-6.69-12.494-6.98-19.417-.55-13.295-.12-26.63-.06-39.935m569.812 26.73c-2.05 7.093-6.159 12.605-12.149 16.517-9.66 6.292-20.42 9.523-31.88 11.004-25.05 3.22-48.94-2.68-72.809-8.774-22.229-5.672-43.55-14.245-65.47-20.938-12.079-3.692-24.389-6.062-37.059-7.332-15.31-1.54-30.56-.89-45.829-.92-14.63-.02-26.89 6.302-37.829 15.715-15.221 13.095-24.33 29.992-31.04 48.5-8.49 23.448-13.52 47.747-17.85 72.197-5.62 31.682-9.84 63.594-15.12 95.336-1.899 11.434-5.48 22.308-7.79 33.553-2.279 11.104-5.88 21.918-10.19 32.422-4.219 10.294-9.179 20.248-16.289 28.952-12.37 15.155-28.59 19.987-47.48 14.315-13.25-3.972-24.4-11.664-35.149-19.897-15.82-12.116-30.35-25.84-43.03-41.046-9.619-11.545-21.379-21.169-29.579-33.934-4.39-6.822-8.69-13.595-11.03-21.428-.82-2.74-1.54-5.452-.56-8.483 3.12-.46 4.55 2.041 6.43 3.642 10.64 9.093 19.26 20.247 29.839 29.361 15.53 13.375 30.55 27.48 49.47 36.283 5.18 2.422 10.54 4.393 16.07 5.513 6.36 1.29 12.579-.44 18.399-3.112 13-5.982 23.44-14.935 31.24-27.01 6.66-10.293 11.86-20.988 15.32-32.983 10.869-37.734 18.189-76.269 26.979-114.473 4.6-19.958 9.09-39.986 15.78-59.364 10.7-30.94 32.07-50.249 64.46-56.77 15.259-3.072 30.699-3.502 46.218-2.952 10.25.35 20.491.63 30.691 1.68 8.859.92 17.699 2.072 26.549 3.131 9.29 1.112 18.62 1.911 27.83 3.442 6.899 1.15 13.939.61 20.759 2.181.64.15 1.3.26 1.951.24 13.339-.36 26.579 2.341 39.919 1.321 9.549-.73 19.16-1.06 28.589-2.91 10.47-2.073 19.57-7.304 28.5-12.857 12.82-7.953 24.66-17.257 36.69-26.3 2.25-1.69 4.559-3.3 8.3-5.992.109 12.614.259 23.67.269 34.723 0 5.883-.47 11.695-2.12 17.447m.7 142.885c.04 2.31-.28 4.642-3.259 4.702-12.14.24-24.43 2.53-36.251-2.32-6.909-2.832-13.269-6.654-19.219-11.115-14.489-10.844-27.749-23.12-41.209-35.214-14.26-12.805-27.65-26.54-42.409-38.845-12.731-10.594-25.281-21.378-38.951-30.762-5.029-3.44-10.369-6.432-15.549-9.674-1.6-1-3.4-1.8-4.59-4.03 3.57.02 6.18 1.63 8.87 2.92 31.099 14.945 60.979 32.112 90.759 49.5 14.87 8.683 29.769 17.355 46.229 22.898 14.36 4.832 28.65 4.682 42.98.05 2.07-.67 4.11-1.47 6.189-2.1 4.24-1.272 5.231-.63 6.32 3.781 2.06 8.383 1.451 16.926 1.21 25.39-.24 8.272-1.269 16.515-1.12 24.82M719.664 385.77c-.13-46.498 1.59-76.319 1.28-122.827-.04-6.263.09-6.333 6.8-6.333 26.889-.029 53.769-.02 80.659-.02h472.133c10.38 0 9.33-.489 9.641 9.594 1.619 51.73.5 86.814 1.779 138.533.54 22.27.731 44.518.851 66.786.019 3.081-.21 6.012-1.691 8.874-13.25 25.57-25.069 51.89-39.76 76.73-8.469 14.304-17.789 27.98-29.229 40.114-12.23 12.975-26.039 23.34-44.299 25.95-6.03.86-12 2.051-18.17 2.051-6.32.01-12.66 1.16-18.96.951-14.17-.46-28.329-1.01-42.479-2.05-13.699-1.012-27.28-2.773-40.9-4.303-8.42-.94-16.779-2.45-25.17-3.67-3.869-.572-7.799-.812-11.689-1.212-14.32-1.48-28.77-2.74-43.12-1.45-17.129 1.55-34.259 3.751-49.909 11.944-20.22 10.604-35.43 25.73-44.559 46.948a2411 2411 0 0 0-41.37 102.58c-8.08 21.438-15.509 43.136-24.809 64.084-5.21 11.765-10.53 23.5-18.49 33.813-3.79 4.912-8.97 7.553-14.4 9.863-2.28.971-4.73.591-6.98-.589-24-12.616-42.399-30.492-52.559-56.032-2.87-7.203-3.06-14.956-3.24-22.519-3.33-139.253-.97-278.536-1.36-417.81m607.912 896.734c-.55-34.903.2-69.837.26-104.74.31-191.904.91-383.818-.3-575.72-.81-130.12-.64-243.564-.69-373.694 0-1.96.02-3.922-.01-5.892-.11-6.193-.24-6.323-6.15-6.443-.66-.02-1.32-.01-1.97-.01H692.494c-8.639 0-8.309-.5-8.28 8.143.88 225.747-1.81 434.817-1.469 660.564.46 225.086-.071 391.21-1.161 616.295-.06 12.385-1.41 10.935 10.69 10.945 208.087.02 416.175.02 624.262.02 12.96 0 12.96 0 12.97-12.725.07-91.906-.51-124.838-1.93-216.743"/></g></svg>