<svg xmlns="http://www.w3.org/2000/svg" width="1984.25" height="1984.25" viewBox="0 0 1984.25 1984.25"><defs><clipPath id="clip_1"><path d="M0-.002h1984.252V1984.25H0Z"/></clipPath></defs><g clip-path="url(#clip_1)"><path d="M1330.849 911.19c-5.403 4.971-12.326 8.042-19.534 7.936-20.261-.288-40.188 2.62-60.213 4.827-2.815.307-5.855 1.257-7.806-1.708-1.647-2.524.167-4.674 1.736-6.209 17.74-17.378 35.863-34.19 66.263-34.248 2.442.384 7.658 1.008 12.788 2.054 6.53 1.333 13.994 2.082 16.142 9.711 2.304 8.214-4.228 12.897-9.376 17.637m-9.12 65.041c-.823 13.07-14.572 25.65-27.831 26.062-4.776.145-9.786.192-14.318-1.026-18.77-5.038-37.06-1.794-55.436 1.986-4.462.912-10.474 3.646-13.191-1.036-2.735-4.712 3.042-8.377 5.845-11.746 21.438-25.726 43.787-38.124 71.197-37.885 1.912.289 7.737.577 13.2 2.122 11.022 3.128 21.397 7.734 20.534 21.523m-31.527 80.73c-.795 10.709-7.002 19.461-19.212 21.063-6.09.806-12.376.144-21.516.144-9.953.72-22.8 1.698-35.656 2.563-6.806.451-8.72-2.179-5.551-8.387 10.454-20.469 41.933-36.312 63.83-31.648 9.11 1.939 18.918 5.249 18.105 16.265m-99.617-197.704c-29.007-.662-52.906-19.768-52.552-42.011.352-22.569 17.71-40.264 39.392-40.178 28.586.115 47.68 16.898 47.532 41.781-.146 24.508-14.072 40.878-34.372 40.408m13.798 499.716c-.127 7.207-3.334 12.379-9.433 15.104-5.522 2.466-11.533 2.15-16.191-2.139-9.836-9.049-15.857-19.97-15.357-33.624.284-7.448 4.51-12.418 11.248-14.904 7.305-2.696 13.13.308 17.407 6.305 6.403 8.973 10.473 18.885 12.326 29.258m17.407 92.274c-.108 10.604.736 23.77-10.1 27.156-12.386 3.868-18.476-8.76-24.096-17.761-9.512-15.229-6.697-31.513-2.853-47.654 2.177-9.126 7.62-10.056 14.504-4.587 13.955 11.093 23.31 24.614 22.545 42.846m-15.72 112.637c-10.18 1.065-18.515-9.912-20.005-26.466-.932-10.459-.971-20.832 6.669-29.324 3.883-4.328 8.698-7.447 15.11-6.392 6.847 1.123 9.308 6.372 10.543 11.938 1.638 7.312 2.413 14.806 3.149 19.604.646 19.173-5.13 29.566-15.465 30.64m-14.691 96.247c-1.892 5.038-7.051 5.335-12.288 3.215-13.25-5.355-19.407-19.489-13.25-32.425a197.5 197.5 0 0 0 11.897-31.6c3.932-13.971 9.042-15.248 19.466-5.392 5.276 4.99 9.218 10.776 9.993 19.547-4.953 14.825-9.914 30.908-15.818 46.655m-50.76 65.079c-11.011.048-19.876-13.012-15.072-23.145 5.11-10.738 13.73-19.106 22.085-27.445 3-2.983 7.06-4.136 11.797-1.611 8.08 4.308 10.386 11.783 12.62 18.692.344 12.686-19.622 33.461-31.43 33.509m-23.211 27.214c-12.19 6.919-20.427 20.008-34.833 22.09-4.188-.355-7.983.144-9.836-3.215-2.1-3.8 1.402-5.93 3.54-8.252 6.678-7.283 13.719-14.278 20.093-21.812 4.62-5.46 10.297-6.39 16.663-5.306 4.147.71 8.786 1.525 10.237 6.333 1.53 5.095-2.305 8.137-5.864 10.162m-28.518-46.972c-4.64 20.41-19.623 25.929-33.48 32.608 6.767-13.972 17.074-24.307 33.48-32.608m-34.823 87.304c-1.403 10.594-8.218 16.533-18.231 19-10.11 2.485-20.397 4.299-30.626 6.285-3.314.652-6.893 1.066-8.737-2.639-1.657-3.31-.118-6.276 1.834-9.078 4.217-6.064 10.238-9.394 17.16-11.85 8.915-3.167 17.467-7.331 26.42-10.373 7.552-2.573 13.582-1.651 12.18 8.655m-65.41-8.262c-1.05-1.545-.755-4.453-.166-6.507 1.215-4.221 4.246-7.359 8.276-9.182 9.07-4.108 18.269-7.917 27.39-11.928 4.247-1.871 7.256-1.718 7.59 3.56-.01 5.863-4.158 8.531-8.375 10.613-9.336 4.577-18.887 8.751-28.39 13.003-2.04.921-4.707 2.82-6.325.441m-74.687 33.115c19.299-7.543 38.942-7.581 63.086-2.917-23.311 13.108-43.306 5.757-63.086 2.917m-21.172-29.498c-1.314 4.539-5.885 2.802-8.532 2.188-16.78-3.925-35.215-4.663-49.23-24.297 20.683 3.455 37.452 6.171 52.69 14.5 3.002 1.641 6.15 3.867 5.072 7.609m-66.587 4.204c16.554-2.064 55.515 13.347 65.528 26.724-24.546-5.038-48.092-7.533-65.528-26.724m-47.866-71.048c18.544 9.739 30.812 23.346 46.08 35.956-20.3 2.667-37.833-11.103-46.08-35.956m-20.476 18.491c20.2 10.968 32.695 26.148 50.16 38.384-18.848.71-34.048-11.075-50.16-38.384m-9.71-67.238c-.43-.654.53-3.042 1.433-3.494 3.324-1.66 5.845.778 6.992 3.071 4.285 8.589 8.05 17.426 12.013 26.177-1.216.644-2.432 1.287-3.648 1.939-9.816-6.564-10.944-18.626-16.79-27.693m-2.706-27.176c-3.814-.442-3.236-4.203-3.02-6.842.873-10.719-4.12-22.234 3.109-32.118 1.314.173 2.638.355 3.952.528.569 10.604 1.373 21.207 1.579 31.811.059 3.099-1.236 7.11-5.62 6.621m-22.26 29.651c15.023 11.208 17.318 28.26 22.515 43.997-16.347-10.383-19.681-27.08-22.515-43.997m-10.474-36.541c-2.814-9.106-2.766-18.482-1.451-27.742.539-3.79.676-9.884 6.07-9.749 5.845.153 6.53 6.064 6.855 10.689.402 5.566.098 11.189.098 15.143.235 4.442.843 7.302.44 10.008-.705 4.721 3.522 12.398-2.421 13.52-6.011 1.133-7.943-6.582-9.591-11.869m7.414-67.987c2.716-17.599 11.385-31.235 28.272-39.641-5.756 15.037-9.198 30.736-18.505 43.949-2.01 2.86-4.824 7.207-9.13 4.798-3.324-1.851-1.137-5.891-.637-9.106m49.768-31.417c-1.608 18.654-6.952 32.52-16.043 45.216-1.324 1.833-3.187 2.725-4.717 1.459-1.177-.98-1.647-3.225-1.726-4.943-.804-16.783 7.257-29.123 22.486-41.732m39.638-55.8c-17.945 10.632-30.88 24.604-51.327 32.443 12.14-23.519 30.008-34.938 51.327-32.443m6.679 17.531c-.314 2.159-1.04 4.424-2.246 6.267-3.648 5.623-27.468 22.271-36.068 25.515.353-15.133 18.279-33.068 33.685-33.499 1.609-.039 4.688 1.343 4.629 1.717m108.255 282.849c6.835-2.859 14.14-1.41 21.839-2.504 4.854 1.957 14.563-4.684 15.504 2.696 1.07 8.435-9.561 8.511-16.27 9.337-6.57.796-13.326.23-19.994.115-2.942-.058-6.385-.806-6.64-3.982-.245-2.936 2.845-4.519 5.56-5.662m132.008-405.83c-6.07-14.595-3.462-25.64 9.03-36.484 9.445-8.185 20.517-13.932 32.393-17.627 16.75-5.21 27.8-.729 36.588 13.473 9.796 15.842 8.62 33.73-2.981 45.455-9.925 10.029-28.194 17.686-42.502 17.82-15.974.144-25.938-6.785-32.528-22.637m2.51 53.67c14.524 8.348 21.359 22.57 23.153 50.081-9.591-18.251-20.211-31.849-23.153-50.081m-52.76-89.452c22.056 17.771 35.628 37.308 39.197 63.985-20.397-8.925-41.02-41.848-39.196-63.985m-52.848-141.243c-3.658-10.306-2.59-20.113 6.972-26.523 27.223-18.261 54.574-36.503 86.023-47.375 4.855-1.688 10.357-1.583 12.337-1.861 40.56.959 58.575 31.675 38.56 62.315-17.544 26.859-41.59 46.761-74.638 53.152-26.096 5.038-60.556-15.162-69.254-39.708m36.833 120.006c-5.815 3.945-11.395 2.505-15.896-1.132-10.68-8.656-20.868-17.886-31.067-27.099-4.325-3.915-8.101-8.608-5.041-14.825 3-6.113 8.6-8.435 15.396-8.166 13.259-.077 40.933 22.589 43.052 35.302 1.078 6.526-.51 11.9-6.444 15.92m-72.725-76.316c-26.135-4.385-56.673-32.654-61.694-57.422-1.706-8.453-2.657-17.416 5.05-23.625 7.307-5.892 15.485-2.744 23.232.096 29.88 10.939 51.476 37.884 52.024 64.887.314 15.344-3.461 18.607-18.612 16.064m-74.364-102.772c-22.37-7.101-39.275-21.044-47.326-43.537-4.482-12.512-2.982-24.152 6.884-33.797 9.346-9.144 20.564-8.828 32.136-4.999 26.105 8.646 46.64 33.068 46.385 55.062-.255 21.226-17.063 33.94-38.08 27.271m-71.371-145.598c.01-24.441 22.123-47.539 45.816-47.836 21.359-.278 43.57 29.853 43.277 58.688-.216 20.44-17.485 33.701-43.248 33.193-26.87-.528-45.845-18.77-45.845-44.045m58.026-169.781c17.063-8.482 44.266 7.773 40.402 27.886-4.814 27.665-17.328 51.77-39.373 69.647-16.053 13.012-44.336-1.765-46.316-22.819-2.04-21.668 25.104-64.667 45.287-74.714m23.22-80.049c13.289-11.457 26.803-22.752 41.042-33.038 14.13-10.21 24.379-9.03 34.235 1.938 11.856 13.194 14.425 31.801 3.56 42.222-17.103 16.409-36.403 30.659-57.496 41.713-15.426 8.09-31.558-8.195-31.44-30.38-.52-9.164 3.51-16.774 10.1-22.455m87.358-83.493c12.57-9.52 26.34-16.976 42.462-18.905 9.238-1.094 15.956 3.004 19.093 11.496 2.992 8.09-1.588 13.665-8.266 17.417-13.122 7.389-25.91 15.622-41.276 17.934-8.071.634-12.867-3.972-15.828-10.123-3.12-6.487-2.157-13.31 3.815-17.819m57.29 277.791c-40.904.192-71.216-11.668-95.095-37.53-21.055-22.8-18.171-41.866 8.689-57.489 21.76-12.647 45.934-17.455 70.666-13.895 40.668 5.854 77 22.474 108.118 48.844 14.69 12.446 13.7 23.587-2.295 34.296-28.723 19.23-61.811 23.951-90.083 25.774m-109.197 68.016c-12.905-15.651-10.15-29.268 7.09-40.639 18.153-11.985 38.315-17.148 60.31-15.497 36.06 1.535 71.51 7.59 106.559 15.862 6.895 1.621 16.544 2.639 17.71 11.966 1.089 8.723-6.716 13.252-12.944 17.301-30.576 19.864-62.88 36.599-99.615 41.771-31.715 4.463-58.85-6.218-79.11-30.764m15.975 68.428c1.863-1.449 3.864-2.984 6.07-3.742 37.933-13.195 75.864-26.437 114.924-29.661 16.955 1.151 32.244 2.495 46.169 9.816 12.994 6.843 15.789 15.728 5.737 25.843-28.252 28.423-60.918 51.73-101.88 56.337-30.852 3.455-56.37-11.65-74.864-36.493-6.296-8.464-4.13-15.891 3.844-22.1m213.489-270.422c-17.671 16.946-38.745 27.252-69.341 27.867-29.99-4.789-64.292-13.559-95.752-29.767-20.78-10.709-23.36-26.408-8.7-44.237 28.646-34.823 55.487-39.784 87.71-23.164 25.489 13.146 52.398 22.953 78.867 33.825 19.798 8.137 22.486 20.842 7.216 35.476m42.199 155.012c-24.301.595-44.895-20.468-44.68-45.715.197-23.932 14.75-39.717 36.913-40.053 26.565-.393 40.48 13.857 40.629 41.598.156 28.011-11.475 43.642-32.862 44.17M1135.61 1136.3c3.138-4.51 9.149-3.752 13.17-1.698 12.11 6.16 19.77 15.852 20.908 30.716-2.167 8.368-.951 20.881-12.131 23.98-11.493 3.196-16.77-7.897-22.428-15.823-.54-.758-1.058-1.574-1.412-2.428-5.001-11.88-5.747-23.75 1.893-34.747m-23.801-138.795c2.04-13.415 13.023-16.121 24.154-18.136a51.8 51.8 0 0 1 11.424-.758c18.594.864 31.353 12.685 31.038 28.49-.284 14.126-12.386 22.934-34.49 23.165-2.06-.308-7.001-.374-11.443-1.871-11.974-4.012-22.4-19.605-20.683-30.89m7.807 263.158c.333 18.693-19.575 42.635-43.101 51.809-21.055 8.214-39.933 4.01-54.505-12.12-12.16-13.444-12.16-23.76 2.148-34.527 15.524-11.668 31.597-22.885 48.533-32.414 22.75-12.792 46.454 1.564 46.925 27.252m-4.933-188.512c.127-11.697 10.316-21.907 21.73-21.782 16.299.173 36.286 19.317 36.197 34.66-.06 12.35-10.895 23.203-22.662 22.723-16.643-.671-35.432-19.643-35.265-35.601m34.666 158.151c4.394-8.013 9.59-7.735 16.229-3.225 11.494 7.802 18.575 23.088 18.026 40.649-.628 4.73-1.501 10.747-2.217 16.793-.638 5.382-2.266 10.574-7.914 12.292-5.59 1.708-10.091-1.948-14.004-5.365-15.406-13.423-20.015-43.104-10.12-61.144m-21.78 246.087c-20.87.326-32.411-11.948-33.02-35.102-.51-19.538 13.2-29.748 40.816-30.39 19.397-.452 28.978 10.248 29.429 32.875.422 21.341-11.993 32.223-37.225 32.617m22.73 69.829c-14.21.038-26.82-13.578-27.046-29.2-.216-14.942 9.533-24.47 24.949-24.393 13.424.066 18.318 7.773 18.504 29.123.148 16.851-4.942 24.432-16.406 24.47m-25.174 69.81c-3.804-5.421-6.09-13.838-6.236-24.354.216-1.747.44-5.048 1.059-8.263 1.824-9.365 3.344-19.68 16.573-18.673 10.532.816 20.348 14.336 18.485 25.093-1.608 9.251-5.178 18.079-10.375 26.025-6.737 10.325-12.445 10.238-19.506.172m-30.851-93.493s12.749 13.435 6.865 42.222Zm4.56 159.686c4.443-8.761 8.385-17.829 13.553-26.168 2.912-4.693 8.443-9.385 14.308-6.209 5.51 2.994 1.009 8.617-.383 12.638-4.09 11.832-10.15 22.272-23.614 25.986-5.001.018-5.865-2.294-3.864-6.247m-79.776-1009.739c23.937-26.676 55.76-32.961 88.504-17.599 15.17 7.12 29.978 14.711 41.943 26.677 11.003 11.006 12.474 23.049 2.805 35.342-12.337 15.68-28.577 24.738-54.584 24.738-25.693-3.109-52.976-15.258-76.855-33.922-14.003-10.948-13.502-22.224-1.813-35.236m1.598-60.684c8.816-14.125 25.664-18.827 37.843-29.143 2.04-1.717 4.207.182 4.472 3.205 1.393 15.45-20.23 38.72-38.667 38.192-6.354-.307-7.541-6.027-3.648-12.254m23.83-126.628c-7.835-1.334-18.525.192-19.78-6.765-1.471-8.089 9.934-7.792 15.749-10.824 28.35-14.739 54.064-31.762 64.39-63.909 2.344-7.293 5.119-15.497 15.73-11.044 8.836 3.704 13.847 10.401 10.052 20.266-8.581 22.339-20.878 42.299-42.364 54.84-13.817 8.071-27.518 17.197-43.777 17.436m-79.688-72.142c.549-7.321 5.462-7.907 11.277-7.062 11.15 1.621 20.682 7.178 30.479 12.1 2.727 1.373 5.374 5.134 8.718 1.747 2.344-2.38.344-5.374-.736-7.869-2.991-6.919-5.658-14.048-9.414-20.554-6.6-11.419-1.951-13.962 9.278-12.868a125 125 0 0 0 18.672.402c3.686-.192 7.815-.93 8.874-5.661 1.157-5.124-1.608-7.984-5.992-9.778-6.188-2.524-12.591-4.606-18.584-7.504-3.952-1.9-10.326-2.208-9.708-8.666.598-6.131 6.914-5.987 11.023-7.475 5.776-2.082 12.248-2.283 18.083-4.27 4.109-1.391 11.13-1.66 10.12-7.849-.862-5.364-6.295-7.667-12.052-8.118-8.61-.691-17.18-1.862-25.791-2.428-7.943-.518-14.396-3.877-20.545-10.46 26.458 1.046 48.748-9.183 71.069-20.19 9.237-4.548 17.495-1.496 22.006 8.982 27.782 64.6 3.51 133.134-71.873 156.193-21.211 6.477-46.591-16.246-44.904-38.672m28.606 79.282c-2.442 5.805-6.865 9.97-13.465 11.39-11.493 2.466-30.488-9.097-32.058-20.429-1.343-9.76 4.404-14.539 14.66-14.951 10.112 1.957 19.496 6.324 27.96 12.561 3.932 2.908 4.618 7.341 2.903 11.429m-51.475-44.986c-11.21 9.126-28.606 14.337-48.327 14.077-13.788.778-28.037-4.27-42.767-5.987-37.716-4.414-74.667 2.629-111.776 7.149-31.98 3.896-62.85 11.102-92.78 23.759-28.144 11.899-59.222-1.42-72.961-27.857-4.295-8.262-1.372-11.65 7.522-10.507 8.08 1.036 16.152 2.351 24.134 3.991 39.972 8.253 78.08-4.251 116.944-9.356 41.785-5.488 81.12-17.416 119.719-34.017 34.352-14.778 68.028-4.779 99.34 11.908 13.367 7.121 12.984 17.033.952 26.84m-331.65 73.62c-3.893.422-9.62 1.957-11.366-2.821-1.696-4.635 3.148-7.149 6.669-9.538 14.534-9.865 31.607-8.541 48.435-9.635-14.936 6.976-26.488 20.132-43.737 21.994m267.308-177.025c5.609-3.935 9.885-.47 14.12 2.523a121 121 0 0 1 9.984 7.888c4.099 3.599 6.963 8.138 5.296 13.607-1.981 6.497-8.238 4.913-14.838 5.863-3.58-.786-8.767-1.545-13.68-3.137-5.423-1.757-11.307-3.973-11.238-10.921.078-7.129 4.746-11.889 10.356-15.823m25.29-30.141c9.464-.096 14.358 6.113 17.82 13.722-.373 5.096-3.541 9.26-7.836 8.291-7.747-1.747-16.191-4.558-17.828-13.933-.873-5.019 3.108-8.032 7.845-8.08m23.967-20.228c9.356-.998 11.836 5.949 14.563 12.571-.58 4.682-2.54 8.607-7.865 7.897-8.13-1.075-14.632-5.403-15.72-13.761-.686-5.268 4.815-6.256 9.022-6.707m40.766 69.925c-1.716 8.387-6.707 15.593-18.328 15.737-9.17.106-19.741-10.229-19.888-18.903-.128-8.263 10.297-18.233 18.868-18.05 9.042.192 19.544 10.68 19.348 21.216m156.7-94.183c5.226-8.157 12.61-10.69 20.064-2.937 13.425 13.953 26.762 28.049 39.148 42.884 9.904 11.851 1.677 20.871-7.345 28.769-10.316 9.02-23.526 10.852-30.98 2.667-13.905-15.257-22.908-33.23-25.34-53.833-.666-6.467 1.168-12.436 4.453-17.55m94.957 118.461c-.068 16.476-9.61 26.782-24.653 26.657-16.398-.144-29.646-14.912-29.872-33.298-.215-17.416 9.375-31.129 21.869-31.254 16.907-.163 32.744 18.204 32.656 37.895m31.116 59.312c4.02 9.884 3.119 20.363 3.04 26.494 0 6.564.069 8.924-.01 11.276-.412 12.109 1.373 25.889-14.504 30.102-13.827 3.666-32.626-7.024-38.971-20.631-7.434-15.958-5.972-32.156-.481-48.181 3.619-10.556 9.984-17.887 23.007-17.436 13.503.47 22.938 6.141 27.919 18.376m-81.561 279.471c.715-24.278 28.105-52.24 50.544-51.607 18.337.528 32.429 15.104 31.919 33.02-.735 26.264-26.712 53.708-50.22 53.055-18.27-.508-32.792-16.034-32.243-34.468m-69.921-242.383c11.798-9.528 24.007-18.568 36.176-27.646 14.975-11.169 23.29-9.087 31.156 7.524 3.285 6.937 3.99 14.384 4.187 18.443 1.922 24.652-11.012 36.215-28.605 44.151-14.358 6.467-29.097 10.277-42.973-1.372-15.975-13.396-16.073-28.059.059-41.1m28.194 64.782c22.24-9.73 38.285-2.946 46.307 19.528 5.344 14.989 5.48 30.477.647 45.6-6.581 20.573-18.907 28.5-46.886 28.154-13.513-.912-29.89-5.988-42.492-19.998-9.581-10.632-10.267-22.099-3.05-33.691 10.974-17.637 26.164-31.149 45.474-39.593m134.938 48.383c2.727 22.857-5.687 41.685-29.086 52.815-17.142 8.147-28.322 3.638-32.362-14.374-4.12-18.405-6.168-37.155-3.314-56.069 2.952-19.537 14.856-32.098 32.812-39.583 12.62-5.268 21.36-1.813 26.096 11.15 5.207 14.26 6.394 29.287 5.854 46.061m-381.27 878.293c-22.212 5.077-47.082 3.886-59.948-2.409 15.024-12.129 39.315-11.562 59.948 2.409m-4.001 21.735c-1.07 2.581-4.06 2.044-6.257 1.861-13.013-1.112-26.556 3.014-42.531-4.327 16.632-8.655 30.253-11.745 44.689-3.839 2.373 1.306 5.54 2.812 4.099 6.305m46.502 36.33c-9.875-12.11-19.446-22.281-30.027-31.648 19.888 4.108 28.792 13.56 30.027 31.648m16.054-15.066c-12.337-15.123-29.655-25.092-41.874-40.283 19.025 8.415 38.549 16.37 41.874 40.283m-13.23 69.34-1.46-42.73s10.944 14.874 1.46 42.73m22.223-52.978c8.786 21.543 7.227 42.471-5.06 62.641 3.334-20.765 4.893-41.617 5.06-62.641m439.698-625.999c-2.226-24.805-4.266-49.994-15.484-72.794-10.22-20.756-21.487-23.433-41.874-12.427-13.82 7.447-26.724 16.668-42.296 20.689-7.19 1.852-15.201 3.579-19.84-3.311-4.187-6.218 2.04-11.707 5.669-16.178 10.816-13.329 16.544-27.32 10.836-44.477-7.335-22.061-2.785-42.654 8.797-62.297 14.622-24.815 16.505-50.705 6.198-77.458-9.023-23.424-9.777-47.058-.55-70.415 9.13-23.078 7.689-45.417-4.217-66.701-9.14-16.313-10.433-32.29-5.756-50.234 5.364-20.545 3.697-41.234-14.651-55.599-23.908-18.722-33.656-41.848-31.106-71.633 1.834-21.467-7.444-40.668-28.243-48.009-27.89-9.835-47.337-29.143-68.863-47.087-18.23-15.209-29.665-32.856-34.107-55.474-1.363-6.928-2.667-13.942-4.913-20.612-10.7-31.714-37.265-39.055-63.242-17.618-5.14 4.242-10.101 8.694-15.004 13.195-10.033 9.231-21.281 16.38-35.265 17.656-23.38 2.14-37.236 15.248-45.11 35.908-2.521 6.602-5.708 12.983-8.013 19.652-8.688 25.247-25.085 42.731-51.533 50.705-12.602 3.8-21.928 12.033-27.047 23.731-10.865 24.853-27.723 46.118-41.933 68.956-8.855 14.25-22.221 23.356-37.912 29.028-28.488 10.296-58.447 14.643-88.132 19.901-35.657 6.305-70.49 5.115-104.058-10.488-9.512-4.424-20.378-5.307-31.116-3.762-27.312 3.925-44.581 32.588-29.646 54.726 17.182 25.448 30.93 51.443 36.795 81.373.265 1.344 1.177 2.562 1.805 3.829 7.815 15.631 19.309 20.861 36.578 16.649 11.346-2.764 21.75-8.013 31.283-14.135 49.278-31.609 103.106-49.486 161.769-54.246 51.897-4.212 100.812 1.584 142.157 36.503 5.07 4.28 11.032 7.543 16.563 11.285 12.729 8.627 25.439 9.5 38.913 1.103 10.12-6.304 20.71-12.292 33.087-13.089 7.502-.479 16.328-2.446 21.183 5.211 4.814 7.591 1.716 15.497-2.628 22.608-16.976 27.781-43.865 42.654-74.65 48.43-24.535 4.607-41.176 14.519-50.571 37.52-6.65 16.275-18.603 29.844-36.883 33.106-29.596 5.268-43.011 23.27-47.983 50.379-4.011 21.898-16.348 37.817-35.451 50.541-13.76 9.165-31.234 19.02-29.832 38.797 2.177 30.764-8.61 57.057-23.938 82.582-12.74 21.207-14.582 43.403-4.864 66.25 6.335 14.893 5.306 29.056-2.54 43.297-10.414 18.903-9.571 38.067 1.118 56.625 5.639 9.798 11.552 19.567 18.437 28.548 11.17 14.548 17.053 30.035 14.543 48.526-2.697 19.873 5.325 35.879 20.868 48.354 7.03 5.642 14.338 11.036 21.938 15.92 21.045 13.55 35.774 30.764 38.598 56.501 1.785 16.303 12.298 27.108 27.194 33.883 9.15 4.165 18.387 8.147 27.576 12.225 9.179 4.078 17.417 10.498 18.71 20.036 3.424 25.353 20.31 36.532 42.572 44.16 17.7 6.075 29.194 18.358 29.949 37.559.589 15.056 6.815 25.813 20.447 32.933 13.277 6.938 20.349 17.743 21.23 32.933.638 11.055 5.845 20.871 13.868 28.769 10.483 10.325 15.582 22.377 14.259 36.982-1.11 12.187 2.098 23.319 9.217 33.308 8.453 11.86 9.66 24.306 3.03 37.174-6.295 12.206-7.698 25.151-6.628 38.451.93 11.514-3.021 21.332-10.151 29.997-24.702 29.987-52.533 54.831-90.956 68.745-51.935 18.808-125.2 4.788-162.632-35.141-42.208-45.052-46.16-117.904-8.738-160.798 11.964-13.703 26.635-23.087 45.023-25.622 21.103-2.897 38.735 5.384 47.885 21.573 11.013 19.499 8.159 45.292-7.13 63.342-4.59 5.421-9.845 10.364-14.043 16.044-8.61 11.66-10.208 29.018-3.961 36.791 7.815 9.74 22.594 12.11 38.51 5.95 3.06-1.191 6.012-2.869 8.669-4.788 16.328-11.775 30.38-25.929 42.777-41.513 17.073-21.466 23.133-46.501 20.289-73.12-7.707-72.238-87.033-122.137-162.358-104.672-60.604 14.058-127.407 76.249-134.948 156.441-7.11 75.655 20.23 140.628 79.816 190.556 52.916 44.343 116.58 59.466 184.589 61.913 56.27-1.958 109.942-10.978 153.474-50.475 8.864-8.042 19.995-12.849 31.322-17.061 11.65-4.328 21.516-11.19 25.369-23.366 5.777-18.252 18.849-30.045 34.51-39.939 18.377-11.601 28.37-27.914 27.34-49.63-.784-16.763 4.178-31.55 13.887-45.043 12.298-17.09 15.563-36.023 12.66-56.443-2.255-15.919-3.354-31.926 1.089-47.729 5.903-21.025 4.844-41.877-1.06-62.729-3.873-13.731-6.374-27.77-3.167-41.905 3.589-15.815.637-29.959-9.483-42.52-8.953-11.122-11.454-23.625-9.62-37.242 2.402-17.887-1.461-34.382-9.65-50.465-6.835-13.425-15.122-27.789-9.394-43.056 8.629-22.973 5.53-43.451-5.14-65.08-10.895-22.109-8.306-44.448 9.847-62.843 17.053-17.273 37.392-15.67 58.702-8.387 23.163 7.907 33.057 3.599 43.904-18.338 3.128-6.305 5.266-13.117 7.453-19.825 3.403-10.383 6.933-20.775 15.112-28.538 17.044-16.189 22.045-35.696 18.22-58.122-3.52-20.594 1.756-38.154 18.927-51.694 7.659-6.035 14.65-13.654 13.749-23.721"/></g></svg>