<svg xmlns="http://www.w3.org/2000/svg" xmlns:xlink="http://www.w3.org/1999/xlink" xmlns:inkscape="http://www.inkscape.org/namespaces/inkscape" version="1.1" width="1984.25" height="1984.25" viewBox="0 0 1984.25 1984.25">
<defs>
<clipPath id="clip_1">
<path transform="matrix(1,0,0,-1,0,1984.25)" d="M0 1984.252H1984.252V0H0Z"/>
</clipPath>
</defs>
<g inkscape:groupmode="layer" inkscape:label="Layer 1">
<g clip-path="url(#clip_1)">
<path transform="matrix(1,0,0,-1,466.1426,495.729)" d="M0 0C-10.546 17.533-20.94 35.146-31.653 52.574-33.897 56.225-36.747 60.951-41.457 60.574-64.129 58.745-87.272 57.99-107.095 44.71-114 40.081-116.768 34.196-105.458 30.812-85.635 24.882-66.624 18.814-43.904 8.387-34.947 4.276-25.891 .379-16.79-3.397-13.233-4.873-9.973-6.225-6.107-7.583-3.824-8.385-1.357-9.797 .663-7.807 3.289-5.215 1.533-2.552 0 0M-31.464-7.736C-60.745 3.709-80.575 13.152-108.717 19.349-88.131-5.676-70.351-27.3-52.53-48.891-50.318-51.572-47.121-52.537-44.95-49.618-34.425-35.475-17.336-31.02-3.989-21.814-7.876-15.912-18.45-12.641-31.464-7.736M250.948-19.183C256.016-19.634 259.023-18.474 257.699-14.931 254.571-6.569 251.003-1.617 244.44 .177 237.815 1.987 237.861-6.095 237.417-9.92 236.519-16.73 238.685-17.456 250.948-19.183M188.07 32.822C187.464 33.061 186.91 32.377 187.262 31.827 196.63 17.168 203.342 10.272 215.464-1.487 218.692-4.619 225.846-9.699 228.549-5.382 232.355 .697 239.239 11.066 227.333 16.953 215.971 22.572 203.836 26.614 188.07 32.822M259.865 5.172C275.898-34.805 310.427-30.801 340.413-36.34 314.361-22.914 288.31-9.487 259.865 5.172M198.426-9.492C201.029-9.936 204.531-10.159 205.633-7.834 206.804-5.365 204.627-3.502 203.023-1.825 194.347 7.247 185.559 16.213 177.002 25.397 172.216 30.536 168.486 30.89 166.134 23.575 163.855 16.492 161.788 9.332 159.912 2.131 158.452-3.473 160.024-6.399 166.681-6.637 177.283-7.017 187.846-8.485 198.426-9.492M-14.271 42.237C-4.646 25.983 5.034 9.763 14.562-6.548 16.928-10.6 20.173-12.262 24.677-11.637 32.716-10.522 40.816-9.697 48.75-8.057 52.111-7.362 57.026-4.316 51.565-.883 29.498 12.989 10.685 31.556-14.271 42.237M139.919 219.279C155.02 211.39 168.196 209.656 181.006 208.299 204.218 205.839 226.384 208.486 242.361 228.923 247.249 235.176 247.635 238.102 238.153 238.584 205.021 240.268 173.481 234.464 139.919 219.279M136.473-4.843C110.417 16.943 87.705 35.934 62.305 57.172 64.39 34.443 73.354 17.769 76.735-.299 77.291-3.263 79.637-4.026 82.058-4.365 98.818-6.711 115.526-6.251 136.473-4.843M86.072 57.172C85.355 55.843 84.638 54.513 83.921 53.183 103.182 36.893 122.481 20.65 141.674 4.28 146.495 .168 148.928 2.039 150.337 7.208 152.765 16.121 155.188 25.038 157.413 34.003 158.528 38.496 156.197 41.138 151.963 42.112 130.006 47.163 108.037 52.158 86.072 57.172M62.746 2.764C60.058 23.421 53.074 39.515 47.558 56.018 46.449 59.338 43.776 59.985 40.925 60.532 23.25 63.923 5.557 63.646-14.578 61.946 10.762 40.362 35.34 22.174 62.746 2.764M-56.011-68.343C-55.786-65.118-58.056-59.858-61.876-55.373-82.813-30.793-103.901-6.343-124.819 18.253-130.513 24.947-133.683 22.041-135.244 15.51-137.688 5.278-134.335-4.338-130.022-13.305-116.177-42.088-91.83-61.213-67.26-79.726-58.248-86.517-55.721-79.519-56.011-68.343M644.979 227.472C732.006 181.65 811.753 132.729 886.661 75.973 835.534 139.538 773.755 188.535 693.912 217.243 701.16 220.946 704.936 223.158 708.922 224.871 788.773 259.174 873.001 266.913 958.54 265.502 990.74 264.971 1023.049 267.577 1055.161 263.011 1058.976 262.469 1063.827 262.046 1064.91 266.945 1065.95 271.65 1061.541 271.727 1058.303 271.908 1017.856 274.167 977.342 278.932 936.977 277.889 895.561 276.818 853.87 275.937 812.693 269.213 757.446 260.192 702.702 249.301 644.979 227.472M641.206-1093.819C606.355-1081.578 570.383-1074.631 535.768-1062.557 462.712-1037.076 393.373-1003.247 323.821-969.657 252.728-935.322 184.501-895.53 113.849-860.457 64.901-836.159 13.009-822.895-42.122-829.144-57.339-830.869-73.33-832.178-90.048-842.377-83.899-843.112-81.151-844.002-78.562-843.667-10.344-834.811 51.319-857.409 109.518-888.088 198.876-935.193 286.812-985.071 379.365-1025.732 443.915-1054.089 509.465-1080.081 579.576-1091.374 599.871-1094.643 620.427-1098.378 641.206-1093.819M329.441-417.115C328.855-486.533 342.746-553.339 363.719-618.948 365.212-623.619 366.651-630.206 372.101-630.137 379.194-630.048 376.993-622.439 377.58-618.206 388.313-540.78 419.667-474.804 482.464-426.216 488.917-421.224 489.866-418 482.621-412.666 439.242-380.729 394.636-350.819 346.446-326.581 338.276-322.472 334.74-323.313 334.32-333.685 333.191-361.515 331.131-389.308 329.441-417.115M20.382-58.945C8.4-61.588-8.777-68.104-15.36-82.018-20.555-92.997-15.762-101.189-9.453-109.254-.213-121.063 10.359-131.937 18.614-144.383 33.498-166.822 53.535-183.361 76.424-195.996 150.01-236.617 230.824-254.05 312.488-268.519 352.925-275.684 393.424-282.335 434.323-286.184 444.275-287.12 449.407-290.904 447.133-301.932 446.136-306.772 448.015-312.368 446.492-316.91 443.368-326.225 447.116-330.11 454.689-335.231 544.606-396.03 630.51-461.634 702.704-543.882 752.788-600.941 797.373-661.298 831.683-729.686 870.007-806.074 887.403-884.906 879.917-970.793 873.773-1041.263 862.621-1109.124 825.352-1170.517 820.683-1178.208 815.214-1185.971 813.289-1197.409 836.618-1189.749 857.295-1180.81 877.518-1170.708 881.701-1168.618 885.44-1166.064 885.216-1160.814 884.439-1142.667 897.892-1130.844 904.205-1114.124 928.039-1141.559 954.005-1165.681 948.907-1208.9 954.154-1204.018 955.938-1202.795 957.145-1201.146 959.77-1197.553 962.486-1193.939 964.491-1189.989 980.991-1157.472 984.891-1123.391 977.462-1087.683 972.019-1061.515 972.386-1061.429 998.03-1059.86 1000.248-1059.724 1002.52-1059.511 1004.697-1059.822 1017.397-1061.636 1025.106-1056.492 1030.832-1044.685 1049.664-1005.85 1060.078-964.591 1068.59-922.56 1081.969-856.503 1083.904-789.734 1083.222-722.642 1082.873-688.431 1079.35-655.422 1067.892-622.622 1037.336-535.157 991.783-456.124 938.404-381.243 926.014-363.86 926.637-349.463 942.687-336.046 951.724-328.491 959.012-326.907 966.935-339.101 997.911-386.774 1028.651-434.516 1051.994-486.624 1054.253-491.666 1055.2-498.423 1063.623-499.291 1065.588-487.124 1060.717-476.937 1056.875-466.684 1039.135-419.33 1016.967-374 993.99-329.059 989.382-320.045 986.22-309.208 968.332-310.877 1070.719-235.808 1188.149-229.452 1304.921-211.274 1270.824-177.157 1232.896-155.059 1196.452-130.998 1188.169-125.529 1179.347-118.431 1170.131-117.279 1135.744-112.984 1102.539-102.515 1067.072-102.923 1013.001-103.544 959.46-107.26 906.135-115.795 897.976-117.101 889.501-117.667 881.291-117.028 873.442-116.418 867.632-111.14 867.374-102.928 867.131-95.167 870.741-88.786 879.422-87.375 914.246-81.715 936.367-80.582 970.301-80.685 998.133-80.926 1019.573-80.641 1045.114-82.379 1044.234-73.965 1039.207-73.758 1034.347-72.331 940.726-58.945 886.963-54.365 804.268-67.813 793.423-71.004 784.443-68.777 777.316-60.051 761.763-41.009 740.976-27.004 725.79-8.026 714.502 6.08 706.646 2.143 696.572-6.9 675.397-25.908 648.495-34.697 624.325-48.865 672.375 7.096 709.596 66.376 697.4 144.458 691.424 126.756 686.754 108.528 683.438 90.055 681.297 78.121 678.19 71.689 666.1 81.327 653.662 91.24 645.53 89.633 642.939 72.667 642.523 69.944 641.31 67.331 640.36 64.705 628.176 31.023 606.205 6.312 573.051-8.988 618.015 48.341 632.672 112.161 617.902 182.587 616.022 175.234 616.428 167.515 615.912 159.858 615.352 151.522 614.945 142.957 612.709 134.992 604.448 105.563 604.026 104.085 580.394 121.078 578.591 122.374 576.427 123.202 574.746 124.624 565.756 132.233 560.729 131.145 558.583 118.616 555.538 100.85 549.213 84 538.896 69.233 529.91 56.372 519.191 44.986 498.959 41.393 529.917 100.615 537.402 158.461 508.796 222.694 505.975 200.76 503.645 183.463 501.552 166.137 499.72 150.961 490.635 146.144 476.884 149.007 409.711 162.992 343.859 182.958 274.344 192.601 282.039 207.627 293.908 217.699 299.449 231.795 305.94 248.305 302.813 258.122 287.69 266.966 271.364 276.514 253.746 280.323 234.935 278.941 203.047 276.598 173.42 267.836 147.435 248.394 154.063 248.83 160.25 250.731 166.337 252.912 191.765 262.022 217.841 266.667 244.904 264.717 258.312 263.751 269.702 259.534 276.52 246.593 283.192 233.928 274.741 225.533 268.904 216.283 252.644 190.516 227.357 182.86 199.079 180.541 180.108 178.985 162.036 184.434 143.533 188.068 142.619 177.18 154.683 177.814 156.053 167.529 141.15 170.352 129.259 177.07 118.83 186.474 114.117 190.723 109.385 193.894 102.795 194.31 60.168 196.996 17.58 201.602-25.074 202.287-93.203 203.38-161.608 204.068-227.126 179.934-234.762 177.121-243.437 178.041-249.953 171.143-271.015 148.849-277.708 148.45-300.138 168.412-305.882 173.524-310.743 170.926-315.242 168.62-321.781 165.268-317.986 160.921-315.449 156.205-280.788 91.789-236.145 35.302-182.479-14.099-180.501-15.919-179.142-19.091-175.924-18.292-171.447-17.18-172.455-13.355-172.734-10.095-176.377 32.543-143.935 60.778-108.638 73.078-31.978 99.791 46.486 98.303 124.575 82.257 232.158 60.152 331.752 17.135 424.683-41.415 436.739-49.011 456.357-53.168 458.281-66.196 460.12-78.649 443.87-89.996 436.659-102.506 431.11-112.133 425.948-114.119 415.797-106.794 377.759-79.347 334.197-64.472 289.123-53.62 279.432-51.287 270.251-49.704 261.732-58.59 255.188-65.416 245.601-64.989 236.493-63.095 236.493-63.095 95.103-42.458 20.382-58.945M1189.199 289.625C1155.465 264.004 1124.715 241.202 1094.563 217.627 1043.722 177.879 999.271 132.602 972.587 72.242 962.472 49.359 963.88 30.391 985.017 13.348 999.6 1.589 1012.033-13.191 1024.031-27.781 1041.249-48.719 1063.857-57.542 1089.287-63.674 1132.257-74.036 1171.719-93.758 1210.101-115.309 1259.681-143.146 1304.092-178.294 1346.928-215.523 1349.354-217.632 1352.515-219.534 1351.514-225.148 1304.633-235.949 1257.228-247.404 1209.541-257.517 1196.069-260.374 1192.696-263.835 1197.092-278.147 1227.394-376.817 1247.62-477.552 1245.295-581.208 1242.352-712.42 1216.241-838.449 1151.571-954.261 1126.224-999.654 1095.465-1041.189 1060.89-1079.947 1054.286-1087.348 1047.207-1093.85 1039.724-1100.322 1020.224-1117.189 1008.589-1136.498 1005.541-1164.981 998.993-1226.187 960.738-1268.2 908.483-1301.02 906.938-1273.349 912.246-1248.131 912.518-1222.703 912.554-1219.353 913.064-1216.011 913.146-1212.66 913.631-1192.605 912.725-1191.982 894.617-1201.292 815.723-1241.859 732.57-1265.365 643.399-1264.549 636.176-1264.483 630.764-1266.681 625.611-1271.683 533.403-1361.216 419.823-1390.992 295.765-1387.429 251.122-1386.147 206.539-1378.603 160.503-1369.034 197.629-1341.332 233.303-1315.019 265.987-1285.145 288.981-1264.127 307.941-1239.448 321.86-1211.189 325.25-1204.306 321.684-1199.829 317.649-1194.763 288.458-1158.121 254.725-1125.912 220.756-1093.927 206.595-1080.593 192.022-1067.692 178.076-1054.136 162.858-1039.345 163.63-1035.917 182.128-1024.853 197.882-1015.43 215.566-1010.604 232.397-1001.25 218.694-999.765 205.021-997.832 191.281-996.894 166.891-995.23 142.469-993.482 118.042-993.131 104.638-992.938 93.235-988.935 82.188-982.059 30.717-950.03-21.715-919.94-78.459-897.959-133.394-876.68-190.967-867.655-248.678-858.935-250.182-858.708-251.625-858.084-255.72-856.864-224.25-841.118-194.489-827.247-162.577-818.517-107.675-803.5-51.807-794.989 5.144-796.831 72.524-799.009 136.148-816.613 196.953-845.849 281.481-886.491 363.487-931.976 446.562-975.412 505.038-1005.987 563.388-1036.247 628.515-1051.686 665.943-1060.559 694.062-1044.961 720.903-1025.061 767.773-990.313 798.017-943.754 806.959-885.248 813.831-840.285 807.555-796.348 791.9-753.656 760.418-667.799 702.13-600.65 640.956-535.707 612.002-504.969 581.031-476.254 548.345-449.376 538.599-441.362 531.599-441.792 521.828-447.611 454.936-487.451 417.155-547.407 402.648-622.876 398.033-646.888 396.652-671.527 393.773-696.03 387.659-696.702 385.89-691.276 382.659-687.824 327.421-628.81 304.324-555.737 291.525-478.062 282.484-423.196 283.74-367.872 285.42-312.71 285.838-298.987 281.928-297.226 271.117-295.09 227.001-286.375 182.649-278.319 139.737-264.581 89.805-248.596 38.151-232.481 4.966-189.292-15.207-163.038-39.625-149.023-67.854-135.406-173.12-84.626-257.839-9.419-323.045 88.131-339.451 112.674-354.271 138.049-368.615 163.794-379.985 184.2-380.35 184.317-358.609 194.578-330.491 207.85-301.88 220.089-273.974 233.787-202.725 268.758-127.784 293.2-50.622 309.9 4.522 321.835 60.469 329.894 116.787 335.781 174.548 341.819 232.159 340.992 289.738 337.952 336.184 335.499 382.413 329.61 428.325 320.833 496.285 307.841 561.505 286.47 625.499 260.754 632.785 257.826 639.148 258.118 646.319 261.001 758.77 306.226 876.511 317.188 996.109 313.649 1054.322 311.926 1112.046 303.47 1169.598 294.546 1174.885 293.727 1180.027 291.96 1189.199 289.625"/>
</g>
</g>
</svg>
