<svg xmlns="http://www.w3.org/2000/svg" width="1984.25" height="1984.25" viewBox="0 0 1984.25 1984.25"><defs><clipPath id="clip_1"><path d="M0-.002h1984.252V1984.25H0Z"/></clipPath></defs><g clip-path="url(#clip_1)"><path d="M1235.532 1282.281c-2.124-9.756-11.113-10.444-18.639-11.333-8.32-.983-14.554 3.066-13.678 11.69.937 9.233 8.568 11.854 17.302 12.054 9.11.21 11.941-6.314 15.015-12.41m-467.786-11.772c-7.692 2.233-18.593 1.701-18.788 11.1-.155 7.467 5.873 13.807 15.981 13.035 8.971-.685 15.931-4.363 15.844-13.49-.069-7.269-5.965-10.18-13.037-10.645m467.323-242.515c-8.323 3.304-20.308 3.83-20.504 14.822-.17 9.555 8.571 13.33 18.317 13.165 10.68-.179 15.9-7.094 16.613-15.494.666-7.849-6.362-11.188-14.426-12.493m-485.329.136c-8.504.496-15.353 3.994-15.368 11.594-.018 8.56 5.317 15.457 15.723 16.211 9.721.704 18.522-2.947 19.14-12.36.75-11.466-11.639-11.77-19.495-15.445m207.33 557.697c-16.753-.745-27.989 2.565-36.987 10.141-8.15 6.864-7.373 16.095-3.186 24.563 2.97 6.007 10.847 7.344 15.096 3.781 19.228-16.117 33.526-5.893 47.477 6.474 8.727 7.736 16.061 7.574 23.826-1.033 12.243-13.57 24.634-19.48 43.31-6.557 10.138 7.015 21.445 3.411 21.41-12.143-.033-15.568-18.143-28.644-42.375-25.36-24.624 3.337-48.563 9.273-68.57.134M731.602 1394.72c44.365.35 84.957-52.903 70.926-89.959-1.885-4.977-4.408-12.782-11.379-8.698-9.442 5.532-22.605 7.208-26.569 19.78-5.336 16.916-12.054 33.462-17.328 50.395-1.912 6.14-2.586 13.432-10.736 13.297-7.572-.125-9.203-7.297-11.8-13.185-11.58-26.256-17.14-53.635-19.8-81.713-.749-7.898-.032-18.539-11.739-19.35-11.645-.81-20.87 5.086-26.028 15.72-16.48 33.98 15.316 100.192 53.848 111.504 4.194 1.23 8.613 1.803 10.605 2.21m590.198-90.508c-.367-6.404-1.763-12.22-3.443-18.267-3.682-13.264-13.195-21.012-26.593-20.702-14.52.336-12.44 13.608-13.21 22.416-2.403 27.501-8.913 53.964-19.765 79.628-2.492 5.893-4.32 12.685-12.51 12.164-6.968-.443-7.815-6.733-9.558-12.168-5.416-16.894-12.015-33.468-17.298-50.394-4.408-14.122-18.525-16.779-29.934-21.447-4.488-1.836-7.739 6.86-9.099 12.246-5.335 21.15 13.221 64.864 32.761 77.26 21.318 13.523 51.974 13.117 69.742-2.644 23.865-21.166 34.214-48.598 38.907-78.092m-526.144-221.576c-2.584-6.442.23-20.27-15.049-18.442-13.077 1.566-31.413-.985-33.597 18.971-2.03 18.555-13.813 34.087-19.395 51.602-2.876 9.027-8.835 7.234-14.239 1.141-5.223-5.888-8.799-12.328-10.798-19.899-6.664-25.238-11.692-50.647-12.442-76.686-.23-8.036 1.364-17.834-10.047-20.086-9.969-1.967-19.412 2.26-25.353 9.791-5.566 7.056-9.622 14.974-10.149 24.417-1.422 25.47 6.307 49.28 21.287 69.335 14.945 20.007 34.812 39.087 65.036 35.233 35.95-4.58 65.18-39.343 64.746-75.377m543.66-20.709c.98-14.522-2.87-27.168-14.93-36.962-6.558-5.327-14.928-7.968-22.687-5.429-7.87 2.576-7.586 10.64-8.142 17.637-1.296 16.313-1.914 32.816-5.243 48.81-3.437 16.513-4.385 34.088-16.375 48.285-6.373 7.545-12.932 10.623-16.523-1.304-5.29-17.578-16.795-32.97-19.054-51.722-2.179-18.092-20.64-15.514-33.054-17.02-14.9-1.808-15.104 11.412-14.792 20.395.578 16.57 5.964 32.194 17.051 45.78 18.847 23.094 50.544 34.38 70.87 25.22 42.354-19.088 58.37-53.118 62.88-93.69m71.191-252.546c33.533.123 60.118-17.853 66.561-39.902 5.563-19.03 9.415-37.192 34.124-45.796 13.05-4.544 19.924-18.676 5.193-31.589-4.912-4.306-10.15-8.88-7.709-15.84 7.01-19.974 3.711-40.72 5.881-61.047 4.842-45.357 16.502-88.803 46.63-125.724 13.8-16.912 23.19-34.697 26.322-55.237 1.476-9.666 4.082-18.679 9.563-26.839 10.815-16.1 13.573-30.578-3.615-45.549-18.402-16.026-51.339-28.642-65.989-18.52-26.014 17.971-59.269 31.806-66.725 65.08-8.939 39.888-44.102 66.57-57.796 103.8-1.518 4.127-6.412 7.582-10.479 10.458-24.632 17.418-32.167 40.015-24.545 67.354 4.173 14.971.266 26.8-14.448 35.353-13.808 8.027-25.263 17.8-19.499 35.092 5.425 16.27 19.38 17.068 35.197 18.071 14.596.925 30.954 6.971 36.32 19.91 5.333 12.862-9.054 21.745-18.65 29.382-14.065 11.192-22.249 25.075-27.995 40.86-2.339 6.424-3.276 13.334 2.926 16.898 17.893 10.284 35.012 22.657 48.733 23.785M619.441 565.197c-5.023-33.515-45.928-53.293-57.575-88.27-.186-.559-1.048-.94-1.625-1.369-11.956-8.868-18.306-20.535-23.055-33.986-11.713-33.179-26.016-63.9-60.356-85.056-32.237-19.86-61.718-19.363-88.834 7.96-11.117 11.201-11.36 21.336-6.065 35.198 16.316 42.71 32.431 85.298 61.65 122.434 2.926 3.72 3.384 9.011 5.622 13.29 23.573 45.066 16.911 94.863 26.195 142.155 1.245 6.341-3.67 9.79-7.347 14.081-11.555 13.486-9.509 28.027 7.576 34.157 17.78 6.378 24.856 17.494 27.584 33.266 3.222 18.626 14.324 31.638 31.778 41.752 24.15 13.994 64.72 8.05 86.68-14.454 9.237-9.467-.415-37.312-18.925-54.278-2.069-1.896-4.898-3.1-6.896-5.044-8.41-8.179-22.2-16.219-17.936-28.006 4.92-13.594 22.051-16.63 35.973-20.869 3.348-1.02 7.363-.295 11.065-.179 14.301.447 21.381-7.51 25.161-18.817 4.09-12.237-1.173-22.542-12.079-28.302-22.554-11.913-28.057-28.386-20.184-50.224 1.14-3.158.765-6.78 1.593-15.439m834.82 917.518c14.931 1.281 27.09 3.216 39.25 3.225 91.807.067 183.615-.127 275.42-.68 6.776-.04 16.198 4.731 20.252-2.454 3.702-6.557-4.057-12.294-7.622-18.032-68.086-109.597-135.707-219.446-204.68-328.564-16.575-26.22-29.404-55.189-56.554-79.248 3.714 48.141 1.87 92.593-18.575 133.99-14.11 28.566-20.96 55.753-3.122 85.183 5.623 9.278 6.8 20.868 9.934 31.42 14.561 49.03 8.927 94.597-26.017 135.707-9.902 11.65-17.826 24.734-28.286 39.453m-989.608-428.287c-24.895 25.201-37.245 49.883-51.847 73.221-71.41 114.132-142.732 228.31-214.279 342.367-7.284 11.612-7.368 15.763 9.884 15.64 85.875-.616 171.761.088 257.642.046 20.255-.01 40.82 2.34 62.613-4.659-11.543-16.016-22.453-31.283-33.506-46.46-22.34-30.68-32.585-63.23-25.075-100.912 5.666-28.43 13.884-55.894 24.437-82.899 3.353-8.579 6.848-17.265 2.37-25.787-27.376-52.1-40.678-106.633-32.239-170.557m417.148 725.091c4.446 0 8.971.505 13.327-.077 49.623-6.634 85.29-25.782 79.644-73.875-3.229-27.504-22.082-41.94-46.582-52.367-37.788-16.08-46.38-33.155-33.715-69.104 1.161-3.293 3.485-6.857.741-9.659-12.227-12.485-3.9-24.314 1.004-36.135 7.026-16.928 13.17-35.067 3.227-51.414-16.747-27.532-26.52-57.282-37.91-86.595-1.363-3.509-7.046-7.018-3.179-10.605 10.542-9.78 1.176-13.507-5.245-19.188-9.24-8.178-14.77.045-20.974 3.49-14.492 8.044-28.117 17.48-42.885 25.031-52.943 27.07-104.98 14.102-134.732-34.479-10.854-17.724-18.312-37.26-26.799-56.168-3.72-8.288-7.07-16.528-15.13-22.188-11.296-7.929-24.219-9.322-34.793-1.365-9.315 7.01-5.695 18.08-.043 26.223 11.541 16.624 20.478 34.35 29.928 51.974 13.3 24.801 30.992 47.806 60.111 57.575 17.717 5.946 17.456 14.801 11.035 25.665-24.075 40.733-7.347 76.918 19.277 107.476 24.316 27.91 35.388 57.287 35.285 91.515-.255 84.631 71.767 131.323 148.408 134.27m215.37.071c78.575-1.359 155.383-48.992 153.536-138.248-.659-31.87 10.512-59.766 33.501-85.787 27.574-31.212 44.894-67.363 20.902-109.007-6.1-10.588-8.672-21.794 10.743-25.62 9.811-1.934 17.572-9.337 25.75-15.34 32.814-24.09 40.014-62.865 63.25-92.412 6.831-8.69 11.984-21.623-.223-29.302-12.826-8.069-27.022-4.679-37.954 6.206-5.656 5.631-7.94 12.902-11.097 19.838-10.293 22.61-17.858 46.515-34.29 66.354-23.582 28.465-53.366 41.825-93.055 33.694-29.693-6.084-53.848-20.979-77.899-36.83-5.352-3.528-11.834-11.206-19.114-5.522-6.014 4.697-14.852 10.627-7.555 20.72 1.32 1.824 1.501 5.61.34 7.518-14.943 24.52-15.487 54.22-33.745 77.694-14.598 18.768-14.248 39.644-4.867 60.511 12.121 26.961 4.116 55.494 7.465 83.182 1.583 13.085-10.727 22.074-22.052 28.88-8.58 5.154-18.235 8.801-27.48 12.987-26.16 11.848-37.956 32.04-36.64 58.03 1.332 26.335 16.891 44.725 43.363 54.228 15.784 5.665 32.207 10.076 47.121 8.226m124.592-1210.903c-2-3.428-4.289-7.575-6.793-11.606-41.779-67.248-83.516-134.517-125.455-201.68-6.658-10.662-15.994-16.269-30.676-15.997-44.452.824-88.943.848-133.393.018-14.582-.273-24.247 4.955-30.91 15.617-42.336 67.74-84.345 135.652-126.65 203.406-3.809 6.098-6.826 11.554-2.368 18.473 16.602 25.77 33.037 51.633 49.508 77.476 5.885 9.234 12.231 14.754 24.89 7.763 31.442-17.367 65.7-26.437 102.204-30.569 68.998-7.812 135.585-3.24 197.382 28.625 14.343 7.396 22.591 5.677 30.432-7.088 15.657-25.487 32.028-50.598 48.01-75.914 1.475-2.336 2.278-5.032 3.82-8.524M615.015 992.205l-1.486-5.533c-3.494-.347-6.98-.787-10.483-1.022-7.865-.528-20.087 2.682-21.524-5.535-1.462-8.355 10.7-9.082 18.437-10.74 61.302-13.147 121.524-13.388 177.647 16.774 14.48 7.781 24.191 6.28 37.251-1.672 31.922-19.434 64.431-38.15 97.642-55.632 20.09-10.574 32.988-19.035 27.471-45.818-9.22-44.77 8.782-87.685 24.774-129.664 9.922-26.044 14.601-52.796 16.936-80.165 1.145-13.414-3.448-19.434-18.516-16.682-32.645 5.961-66.59 10.585-94.742 26.934-25.22 14.646-47.235 14.63-75.062 7.956-53.509-12.832-111.575 5.521-100.084 72.64 1.035 6.047.851 12.276 1.95 18.308 4.931 27.067-7.843 45.447-37.33 46.45-31.278 1.062-55.376 10.882-73.933 34.16-11.632 14.591-26.794 14.842-43.23 6.044-15.614-8.357-28.294-19.138-38.655-32.906-8.299-11.029-20.959-17.946-34.096-8.315-20.63 15.122-38.719 33.165-32.239 60.634 10.89 46.161 29.515 88.254 73.606 117.058 12.393 8.098 24.868 12.115 39.326 9.965 23.943-3.56 44.182-15.562 66.34-23.239m753.637-1.36c19.411 10.582 40.088 18.37 61.308 23.858 15.132 3.915 29.84.521 43.884-8.714 44.687-29.383 64.344-71.747 74.121-119 4.476-21.639-15.058-54.513-35.116-61.212-24.17-8.073-31.096 12.587-43.089 24.425-2.52 2.487-5.097 5-8.016 7.055-40.825 28.737-50.94 20.458-72.029-4.57-13.868-16.459-33.01-21.948-54.475-23.106-38.967-2.1-51.283-15.914-45.584-50.854 12.31-75.466-25.74-94.079-88.312-90.02-8.689.564-17.303 3.623-25.7 6.224-17.196 5.33-32.726 4.017-48.413-5.478-32.233-19.51-69.625-25.716-106.516-32.875-14.854-2.882-19.702 3.178-19.2 16.51 1.201 31.9 10.11 61.972 21.532 91.876 15.631 40.922 27.904 83.075 19.452 126.715-2.988 15.422 1.375 22.747 13.866 29.667 41.126 22.786 82.453 45.281 123.022 68.888 10.472 6.094 16.06.68 23.548-3.217 57.958-30.158 119.23-31.225 182.148-17.453 7.117 1.558 17.755 2.415 17.216 9.8-.623 8.545-11.438 5.616-18.353 6.336-4.73.493-10.366-2.402-15.294 5.144m-309.27 259.354c0-18.419-2.744-37.26.488-55.182 12.278-68.098 40.476-129.232 98.277-175.84 11.462-9.244 8.548-14.48-3.548-20.978-33.783-18.147-66.924-37.316-100.305-56.102-15.108-8.502-27.034-12.108-39.937 5.904-15.689 21.904-24.64 20.88-45.202 1.943-3.149-2.9-6.549-5.623-9.315-8.812-7.179-8.279-13.68-8.53-23.848-2.503-34.189 20.267-68.714 40.174-104.228 58.356-16.299 8.346-16.162 13.651-3.555 24.82 52.606 46.602 82.622 104.107 93.165 170.44 3.06 19.241.997 38.39-1.706 58.102-3.344-1.254-5.572-1.488-5.84-2.286-2.189-6.478-4.538-12.973-5.858-19.63-7.996-40.337-34.936-66.409-73.593-83.498-10.068-4.45-18.293-5.647-29.757 2.635-64.414 46.532-135.149 30.908-172.527-35.808-12.917-23.055-25.304-46.37-38.623-69.22-4.846-8.315-12.887-14.618-23.483-7.787-10.87 7.008-3.456 15.258 1.871 20.983 6.835 7.345 13.43 14.355 16.46 23.846 11.328 35.482 28.316 67.146 67.061 83.995 3.404 1.48 6.57 3.77 6.09 7.74-.574 4.74-4.542 6.542-9.085 7.444-17.57 3.491-32.704-.865-43.783-13.764-9.516-11.08-19.275-10.585-30.612-3.478-31.998 20.062-47.855 65.117-36.092 99.77 3.408 10.038 8.87 11.154 15.415 4.711 26.25-25.84 61.476-32.154 98.578-38.38-9.377-6.364-18.013-7.209-26.865-7.75-5.407-.33-13.1 1.516-11.748-7.75 1.02-6.996 6.111-8.238 12.814-8.166 20.757.222 41.52.102 62.28.086 50.053-.043 94.918 15.994 132.398 44.733 91.211 69.94 117.872 161.66 98.466 267.166-2.602 14.145-5.137 28.301-7.516 42.48-1.45 8.642 2.516 13.457 12.25 12.156 30.774-4.11 61.425 9.74 92.457-.033 7.165-2.257 16.265-.592 24.177.76 22.316 3.808 23.697 1.763 20.626-18.476-4.987-32.885-17.369-64.91-14.667-98.692 3.557-44.45 14.967-87.142 36.547-127.124 57.27-106.108 165.798-131.337 270.604-122.968 7.046.562 8.776 5.008 9.12 9.638.398 5.418-4.68 6.025-9.33 6.173-9.748.31-19.545.491-29.152 8.2 37.357 5.545 71.621 12.426 97.797 37.663 8.12 7.828 12.972 4.54 16.041-6.032 10.462-36.028-2.046-73.705-34.152-96.744-10.81-7.757-21.68-10.75-32.522 1.712-9.71 11.162-22.632 17.401-39.193 14.621-5.894-.989-12.506-.832-13.837-7.54-1.199-6.037 4.964-7.94 9.412-9.968 33.667-15.334 49.72-42.925 60.578-74.07 3.877-11.123 8.395-21.488 17.621-30.19 6.285-5.928 15.274-14.4 3.997-22.355-11.202-7.9-19.443-.396-24.685 8.75-12.802 22.338-26.036 44.534-37.314 67.533-23.354 47.63-69.374 70.417-123.769 58.762-17.839-3.822-35.266-9.734-49.664-21.256-6.74-5.393-14.01-10.892-23.9-6.132-27.609 13.287-53.789 27.504-69.219 54.71-9.76 17.208-12.065 36.957-26.16 52.682M991.874 128.124c24 37.863 39.94 65.59 58.824 95.46 61.523 97.311 122.694 194.82 182.991 292.781 10.39 16.878 17.515 15.476 27.5 1.508 34.954-48.898 73.281-95.519 116.23-138.538 44.405-44.476 82.943-94.683 140.462-126.904 19.322-10.823 39.063-17.68 62.463-15.194 21.057 2.238 33.424 12.594 40.055 30.074 29.438 77.604 39.334 158.234 43.28 239.78.474 9.836-2.728 18.733-6.376 27.822-27.477 68.485-36.297 138.881-23.856 211.204 2.925 17.001 10.522 32.75 18.538 48.158 11.28 21.684 9.884 28.916-14.463 37.66-19.005 6.825-21.487 13.662-10.745 29.728 7.51 11.231 10.803 25.493 13.313 38.83 5.892 31.322-5.919 46.696-39.816 51.578-24.669 3.553-45.059 12.012-59.416 31.78-5.67 7.808-6.456 13.607-1.067 22.181 83.137 132.281 165.824 264.804 248.65 397.252 20.334 32.515 40.84 64.937 61.173 97.453 10.885 17.408 9.232 20.188-13.462 20.206-129.75.106-259.5.296-389.247-.34-17.716-.088-30.403 4.035-42.265 16.69-38.706 41.29-78.529 81.69-118.24 122.167-8.139 8.295-13.727 16.932-16.517 28.157-18.262 73.472-107.708 112.038-163.112 119.272-15.272 1.996-26.589 5.501-37.976 16.397-46.99 44.962-108.267 43.491-157.646-2.805-8.924-8.366-17.809-12.205-30.484-13.22-77.849-6.239-147.565-58.759-168.373-126.353-4.319-14.027-15.304-23.613-25.483-32.828-39.19-35.474-71.74-76.363-109.72-112.815-10.809-10.373-21.217-14.633-36.526-14.577-129.747.48-259.497.375-389.246.161-7.604-.012-18.246 3.764-22.246-3.903-3.612-6.922 4.007-13.737 8.062-20.225 92.404-147.829 184.695-295.719 277.033-443.584 8.497-13.607 16.193-27.763 26.024-40.503 10.485-13.586 8.324-23.652-3.114-35.938-13.615-14.625-30.594-20.753-49.938-24.045-40.046-6.815-50.456-21.675-42.053-58.922 3.05-13.519 7.405-26.68 15.28-38.276 6.932-10.207 4.911-15.258-6.663-20.465-34.58-15.557-34.55-15.99-18.802-47 31.368-61.762 22.687-125.44 10.907-189.273-4.583-24.84-8.478-49.7-22.306-72.372-7.102-11.645-3.836-25.654-2.724-38.47 6.148-70.912 15.554-141.018 38.073-209.806 13.621-41.605 49.606-49.426 86.195-35.45 35.326 13.493 63.161 36.955 88.925 62.883 64.827 65.24 130.426 129.83 182.193 204.96 1.188 1.724 2.7 3.262 4.086 4.868 16.62 19.25 18.158 19.401 31.156-1.505 70.283-113.052 140.302-226.244 210.575-339.3 8.028-12.916 19.793-31.522 29.894-46.399"/></g></svg>