<svg xmlns="http://www.w3.org/2000/svg" width="2048" height="1920" viewBox="0 0 2048 1920"><defs><clipPath id="clip_1"><path d="M0 0h2048v1920H0Z"/></clipPath></defs><g clip-path="url(#clip_1)"><path fill="#231f20" d="M1578.21 1178.977c-1.452 7.751-1.333 15.65-1.466 23.506-.841 49.723-6.124 98.806-12.984 147.88-6.824 48.826-16.183 96.783-28.529 143.976-7.584 28.993-15.976 57.688-24.707 86.246-9.306 30.437-20.176 60.09-30.98 89.815-17.603 48.43-38.599 94.776-60.44 140.647-1.095 2.297-1.862 5.036-4.257 6.538-.192-3.967 1.408-7.226 2.438-10.62 25.313-83.327 47.55-167.76 65.511-253.706 11.484-54.96 20.234-110.558 25.47-166.818 5.822-62.565 6.277-125.233.95-187.948-.758-8.938-2.417-16.782-6.98-23.942-2.929-4.592-4.275-10.126-5.363-15.688-1.483-7.584.233-13.316 6.17-17.62 9.953-7.218 10.37-12.29 2.596-22.952-7.444-10.207-17.957-15.289-27.262-22.327-47.04-35.577-90.158-76.669-126.692-126.633-32.555-44.524-68.553-84.787-106.104-123.299-14.946-15.327-30.565-29.323-48.933-38.52-26.07-13.054-53.303-16.54-81.31-13.292-1.194.14-2.349.74-4.025 1.29 2.726 5.13 6.735 8.024 10.082 11.498 21.89 22.722 43.208 46.141 63.55 70.78 13.884 16.818 30.787 27.276 50.149 32.033 4.67 1.147 5.483 3.184 5.276 8.358-2.393 59.76-2.836 119.57-2.01 179.371.826 59.787 2.096 119.572 3.752 179.336 1.21 43.738 1.217 87.467.86 131.203-.493 60.481-9.993 119.272-25.003 176.914-12.69 48.73-27.653 96.418-48.242 141.442-17.925 39.197-37.678 77.06-59.66 113.29-2.099 3.46-4.794 10.41-7.334 8.587-3.359-2.409.357-8.392 1.6-12.418 11.468-37.139 23.415-74.075 34.846-111.23 18.112-58.869 31.965-119.159 41.233-180.789 6.364-42.315 10.34-84.99 12.008-128.013 1.68-43.27 1.761-86.519-.623-129.658-3.295-59.62-6.872-119.238-13.137-178.588-3.023-28.637-6.818-57.226-6.7-86.249.067-16.69 3.034-32.855 5.347-49.15 2.663-18.75-2.476-34.697-12.834-48.432-18.157-24.076-39.283-44.54-59.283-66.372-7.692-8.395-15.146-17.12-23.595-24.498-1.915-1.672-3.838-4.63-6.585-2.743-2.543 1.748-3.249 5.154-3.2 8.423.207 14.06 3.697 27.17 8.6 39.848 4.561 11.791 10.455 22.572 18.122 31.863 3.793 4.597 2.258 9.802 1.813 14.718-3.525 38.82-8.707 77.34-15.23 115.622-13.333 78.262-33.824 153.89-60.129 227.393-3.582 10.008-7.395 19.903-11.192 29.802-1.177 3.068-1.917 6.972-5.61 7.147-3.61.171-5.105-3.218-6.115-6.44-2.08-6.638-6.753-6.649-11.396-6.528-5.047.131-10.834-1.6-13.403 6.211-.786 2.391-1.967 4.31-4.578 4.238-2.903-.078-3.839-2.507-4.82-5.026-9.374-24.034-17.727-48.555-25.47-73.376-21.88-70.124-35.925-142.452-43.627-216.5-3.343-32.132-4.737-64.459-4.869-96.85-.02-5.158 1.258-9.408 3.76-13.724 9.084-15.677 19.085-30.857 22.46-50.094.761-4.348 1.54-8.699 2.083-13.088.409-3.309 0-6.748-2.714-8.47-2.303-1.463-4.408.503-6.33 2.02-8.059 6.353-15.068 14.198-22.177 21.873-22.263 24.038-44.768 47.773-65.193 74.068-13.529 17.417-18.923 37.105-12.674 60.043 9.428 34.606 6.908 69.21.792 103.95-7.022 39.892-13.388 79.946-17.835 120.346-5.957 54.117-11.214 108.286-12.412 162.982-1.34 61.174 1.557 122 8.513 182.508 9.777 85.043 29.008 167.242 56.407 246.781 3.232 9.38 6.633 18.678 9.918 28.032.758 2.157 1.363 4.388.794 7.291-8.226-14.83-16.838-29.386-24.612-44.536-34.634-67.495-60.222-139.484-76.46-216.003-10.233-48.225-16.759-97.123-20.195-146.709-4.274-61.7-4.245-123.398-2.172-185.16 1.144-34.093 5.298-67.864 8.081-101.78 2.543-30.986 4.372-62.035 5.633-93.115 1.964-48.38 3.165-96.796 2.897-145.24-.028-5.176 1.222-7.632 5.87-7.965 6.9-.496 13.757-1.82 20.656-2.428 2.925-.257 5.232-1.464 7.32-3.69 27.988-29.83 55.992-59.64 83.946-89.518 1.632-1.745 3.726-3.186 4.695-6.829-10.896-2.253-21.566-2.025-32.1-1.117-22.045 1.9-42.896 9.26-62.173 22.038-18.498 12.263-33.249 29.967-48.162 47.365-40.533 47.285-80.303 95.51-123.444 139.598-24.815 25.36-52.417 46.02-80.428 66.026-9.485 6.774-18.764 14.041-26.689 23.393-9.464 11.17-9.837 21.835 2.68 28.711 4.621 2.54 3.578 6.665 2.902 10.69-3.5 20.847-6.085 41.857-8.47 62.914-3.553 31.363-5.436 62.862-6.714 94.458-1.409 34.857-.857 69.676.912 104.445 2.927 57.511 9.558 114.453 20.303 170.72 11.206 58.682 26.328 115.91 45.321 171.727 4.507 13.245 9.418 26.3 13.223 40.014-5.026-10.147-10.155-20.226-15.06-30.452-28.184-58.743-52.66-119.44-72.393-182.9-20.16-64.832-34.824-131.28-45.324-199.038-5.912-38.144-9.875-76.638-10.892-115.502-1.097-41.946-3.466-83.889-1.458-125.848 1.31-27.336 4.048-54.558 6.9-81.744.621-5.92 2.684-6.838 7.44-5.25 24.367 8.14 48.734 6.77 72.22-3.689 15.368-6.845 28.382-19.106 41.167-31.184 37.441-35.374 70.806-75.776 103.768-116.69 31.936-39.643 63.962-79.188 98.495-115.788 5.731-6.075 12.096-8.432 19.737-9.027 22.153-1.724 44.255-4.329 66.386-6.456 13.332-1.28 26.636-3.998 40.54-1.089-1-4.783-3.593-7.563-6.22-10.132-14.37-14.05-28.952-27.806-43.165-42.07-5.353-5.374-10.75-6.403-17.733-6.078-21.213.988-42.336 2.505-63.312 6.446-35.508 6.67-70.119 17.343-104.022 31.441-22.584 9.392-44.259 21.143-65.597 33.777-19.223 11.381-37.24 8.312-53.699-6.43-22.063-19.763-32.654-45.417-27.141-78.885 6.315-38.348 7.492-77.475 11.856-116.117 6.215-55.065 15.257-109.38 28.89-162.777 14.91-58.398 34.407-114.348 58.326-168.277 14.957-33.722 31.595-66.276 50.808-98.767-.388 8.368-2.974 14.443-5.27 20.464-23.592 61.83-41.716 125.857-56.356 191.345-10.204 45.644-17.655 91.914-23.175 138.6-4.685 39.624-7.235 79.487-8.585 119.5-1.017 30.167-1.46 60.267.144 90.394.86 16.125 4.552 19.854 17.812 16.081 17.105-4.868 34.102-10.345 50.981-16.216 27.541-9.579 55.068-19.258 82.373-29.719 19.602-7.51 39.342-14.087 59.82-16.867 30.22-4.104 59.967-3.555 87.478 14.975 12.23 8.238 21.544 20.333 31.302 31.872 1.432 1.693 2.773 3.493 4.63 5.844.978-11.84-2.093-21.846-5.814-31.246-12.765-32.25-32.168-56.878-60.629-70.704-36.718-17.837-75.006-24.52-114.524-22.794-4.095.18-6.728 3.742-9.997 5.796-5.737 3.606-11.043 9.587-17.064 10.752-6.295 1.218-10.872-7.02-16.436-10.644-11.729-7.637-22.942-16.415-34.827-23.799-2.097-1.303-2.884-3.024-2.996-5.836-1.594-39.764-2.34-79.49 2.161-119.107 8.782-77.284 29.723-149.576 63.146-217 14.985-30.229 32.666-57.993 51.868-84.548.912-1.26 2.064-2.28 3.996-2.863l-9.458 30.311c-13.8 44.24-27.193 88.653-39.024 133.678-10.404 39.59-20.11 79.452-26.523 120.25-3.81 24.235-7.896 48.501-7.208 73.411.302 10.93 1.743 21.643 4.024 32.14 3.391 15.6 16.931 27.942 30.587 27.834 16.372-.13 32.748-1.526 49.11-1.278 47.324.717 91.334 16.344 133.007 42.09 3.255 2.01 4.066 5.215 5.058 8.752 7.446 26.531 20.56 48.835 37.928 70.298-.39-15.968 4.444-27.773 15.168-34.403 9.907-6.124 20.675-4.448 31.646-.879-5.185 9.013-10.113 17.263-14.735 25.745-2.477 4.544-6.599 10.834-4.6 14.562 2.242 4.182 8.026-.17 12.093-1.395 9.066-2.728 16.562-.9 22.198 8.457 1.33 2.21 2.97 4.161 4.472 6.227 3.84 5.278 6.071 4.746 8.044-1.993.887-3.028 1.56-6.143 2.445-9.172 2.974-10.167 6.212-12.048 15.137-8.719 2.192.817 4.307 1.937 6.425 3.002 4.827 2.426 5.797.2 4.643-5.073-2.683-12.254-6.74-23.907-11.42-35.232-1.763-4.266-1.3-5.523 2.723-5.67 12.881-.473 23.901 4.123 32.326 15.945 3.398 4.768 4.322 10.618 4.473 16.644.104 4.148.02 8.303.02 12.638 3.083-.124 4.257-2.757 5.784-4.525 17.752-20.54 31.274-44.452 40.522-71.63 1.441-4.236 3.488-6.844 6.964-8.74 30.391-16.593 62.226-27.544 94.96-35.73 26.195-6.553 51.905-5.766 77.885.883 9.966 2.551 19.52-1.54 28.22-7.226 6.159-4.026 7.031-11.858 7.918-19.248 4.207-35.047 4.97-70.229 4.284-105.612-1.37-70.639-12.194-139.214-29.869-206.553-6.95-26.477-15.904-51.976-25.018-77.443-.708-1.978-1.432-3.948-1.149-6.733 2.602 3.918 5.332 7.73 7.786 11.77 32.12 52.867 56.11 110.531 72.951 172.33 8.716 31.983 14.88 64.681 18.683 97.992 4.812 42.147 7.851 84.415 6.307 126.982-.366 10.102-1.359 20.175-2.134 30.253-.145 1.888.123 3.994-1.56 5.366-12.724 10.361-24.627 22.097-39.91 27.672-10.079 3.677-17.466-.402-24.577-7.747-4.555-4.705-8.72-9.89-14.636-12.592-11.245-5.134-22.744-4.92-34.111-1.917-30.055 7.942-60.283 15.321-88.438 30.877-34.94 19.303-57.34 52.068-72.275 92.89-.137.374.04.907.144 2.515 9.81-6.258 19.332-12.154 28.708-18.354 18.116-11.979 36.227-23.972 54.17-36.303 5.447-3.744 10.533-4.436 16.622-2.429 33.505 11.04 67.118 21.624 100.653 32.535a1007 1007 0 0 1 77.296 28.707c8.277 3.466 16.006 8.72 24.233 12.386 15.085 6.723 30.576 8.173 46.384 3.497 4.947-1.463 7.008-4.082 7.044-10.718.24-43.516-1.288-86.982-3.147-130.398-1.223-28.558-4.755-56.973-7.02-85.477-2.756-34.684-8.514-68.85-13.43-103.113-5.542-38.63-14.514-76.468-23.675-114.169-12.045-49.579-25.582-98.553-42.224-146.29-.545-1.564-1.054-3.143-.962-5.333.707.902 1.52 1.718 2.107 2.717 30.796 52.341 58.04 107.046 77.866 166.427 12.334 36.941 22.044 74.94 30.193 113.487 10.518 49.756 22.437 99.171 28.545 150.037 3.078 25.63 4.662 51.521 6.486 77.337 1.217 17.226 1.536 34.537 2.483 51.792 3.93 71.62-56.2 110.75-101.806 96.801-6.507-1.99-12.224-6.565-17.554-11.396-33.33-30.217-70.302-51.963-110.809-65.074-30.173-9.765-60.999-13.972-92.22-9.578-13.088 1.842-25.664 6.46-37.292 14.655-16.3 11.49-28.369 27.332-38.55 47.357 4.147.53 7.545 1.17 10.961 1.364 29.343 1.672 58.678 3.71 88.038 4.678 13.3.44 23.643 4.902 33.17 16.776 46.855 58.408 93.313 117.287 141.649 174.023 38.296 44.954 82.464 80.053 131.798 106.161 3.301 1.746 6.694 2.83 10.34 2.812 12.185-.056 24.391.413 36.545-.319 5.215-.314 7.137 1.266 7.473 7.162 1.11 19.456 2.986 38.845 2.771 58.407-.107 9.853.005 19.761 1.401 29.55Z"/></g></svg>