<svg xmlns="http://www.w3.org/2000/svg" width="2048" height="1920" viewBox="0 0 2048 1920"><defs><clipPath id="clip_1"><path d="M0 0h2048v1920H0Z"/></clipPath></defs><g clip-path="url(#clip_1)"><path fill="#231f20" d="M1056.664 555.46c-.657-3.45 2.844-9.783-3.319-11.82-5.72-1.888-8.868 3.74-12.322 7.28-13.616 13.957-26.964 28.148-41.244 41.556-6.223 5.843-5.857 9.272.616 14.367 16.657 13.11 31.75 11.209 42.941-5.936 8.977-13.753 11.544-29.011 13.328-45.447m-164.038 6.15c.21 16.366 7.994 37.418 17.306 47.295 12.41 13.164 29.344 12.525 45.175-1.868 15.2-13.82-4.279-16.8-10.299-22.327-11.593-10.643-25.363-19.435-38.326-28.893-3.372-2.46-5.959-7.907-11.369-5.163-4.686 2.378-2.073 7.515-2.487 10.956m89.362 984.732c21.075-38.241 38.242-73.76 54.591-114.69-28.686 28.063-33.367 29.47-60.965 18.206-9.047-3.693-17.16-9.144-25.889-13.498-6.674-3.33-11.725-9.707-22.933-9.171zm36.992-840.647c-3 12.749 3.383 23.398 6.278 34.727 1.445 5.657 3.706 15.905-3.122 15.473-21.345-1.35-40.258 15.053-62.08 5.687-5.37-2.304-10.497-5.475-17.11-4.18-21.298 4.168-20.568-6.681-16.978-19.565 2.917-10.47 10.293-20.36 5.23-36.202-13.204 19.878-21.163 37.375-22.83 56.896-.22 2.576 3.07 5.242 3.713 8.049 1.481 6.453-3.542 10.038-8.62 6.676-5.479-3.63-2.668-11.242-1.8-16.85 1.26-8.142 4.447-16.04 6.566-24.094 2.19-8.331 8.927-15.745 7.033-25.68-2.48.765-4.948.826-5.87 1.914-16.746 19.745-21.549 43.547-25.964 66.807-2.083 10.968 8.334 16.9 21.793 13.305 7.434-1.986 13.626-7.88 23.118-5.468-10.968 12.934-24.78 23.01-40.498 29.166-14.535 5.693-16.609 13.457-13.63 25.092 1.185 4.63 1.4 9.472 2.805 14.037 6.161 20.02 9.754 41.04 25.994 59.387 1.653-3.551 2.8-4.756 2.552-5.666-4.069-14.985-8.844-29.834-12.408-44.91-7.785-32.922-.048-44.861 36.67-57.842 0 15.644-1.04 31.208.233 46.62 2.155 26.083 5.901 52.069 18.555 76.193 1.9 3.619 5.228 8.596 10.34 6.754 6.304-2.271 1.966-7.007.3-10.546-12.238-26.005-12.657-53.446-11.968-80.872.3-11.917-4.085-24.281 3.953-40.963 4.373 15.763 7.211 26.984 10.661 38.057 2.08 6.672 2.822 15.679 12.728 16.33 12.216.803 11.801-10.035 14.308-16.604 4.043-10.597 6.017-21.813 8.866-32.768 5.367 42.857 9.226 85.165-6.504 126.829 21.07-18.533 24.048-42.216 27.811-65.425 3.723-22.966 6.51-46.09-2.705-69.947 51.405 34.98 53.28 39.779 35.167 87.62-1.708 4.51-3.522 8.992-5.36 13.463-1.756 4.272-5.66 8.328-1.472 13.253 4.683-.04 7.522-2.873 9.365-5.918 14.881-24.596 20.225-51.54 24.142-78.79 1.014-7.056-5.234-8.397-10.786-10.871-17.34-7.727-31.974-18.55-47.314-32.714 11.278-.825 16.837 4.086 23.425 6.318 11.961 4.053 22.764-.54 22.541-10.574-.58-26.053-9.692-50.28-29.684-74.656-3.275 16.828 5.426 26.945 8.534 38.177 2.391 8.64 6.554 17.04 5.293 26.149-.602 4.347-3.067 8.479-9.34 6.344-3.734-1.27-5.617-3.171-3.465-8.054 10.55-23.938-8.929-40.961-18.466-60.164m143.675 456.249c-6.642 2.136-10.94 3.47-15.202 4.898-45.1 15.095-83.383 29-132.57 19.028-16.955-3.437-35.26-2.536-51.593 4.109-41.422 16.85-93.99-6.395-136.125-22.313-3.303-1.248-7.463-4.698-10.875-.865-4.084 4.586 9.171 19.869 12.597 22.307 18.544 13.192 26.821 19.069 56.894 23.386 34.516-.842 56.934 23.819 61.855 54.092 3.756 23.105 14.3 41.053 32.586 57.498 19.675 17.694 27.462 26.792 42.51 7.14 2.608-3.406 11.113-15.781 13.847-18.983 12.973-15.196 19.956-33.204 21.602-57.648 1.908-28.33 19.387-46.044 48.75-55.414 10.098-3.222 20.501-5.708 30.537-9.066 13.265-4.438 23.144-11.803 25.187-28.17M848.468 959.179c-1.944-21.261-6.468-40.37-13.588-59.13-10.035-26.44-25.5-51.554-29.203-79.537-6.878-51.965-28.214-100.164-45.985-149.41-8.15-22.585-23.302-36.257-48.108-43.933-20.855-6.453-42.028-13.163-59.792-25.266-16.863-11.49-33.744-14.55-54.33-7.784-11.62 3.819-25.09 3.98-37.78 4.336-23.493.656-23.612.249-14.203 20.232C593.8 721.318 642.366 823.86 690.29 926.638c5.675 12.176 14.247 19.826 28.006 23.435 30.68 8.047 58.008 21.887 84.141 37.844 28.545 17.432 36.513 14.477 43.614-16.192 1.077-4.652 1.812-9.366 2.418-12.547m594.982-391.531c-5.627 0-8.985-.388-12.195.058-39.908 5.545-79.824 10.737-120.433 7.3-5.587-.472-10.658 1.196-14.912 4.453-25.09 19.206-54.2 33.035-82.415 48.01-14.093 7.479-22.4 17.476-26.534 31.796-23.435 81.198-47.659 162.217-71.499 243.324-7.114 24.203-4.8 48.28 1.511 72.364 3.904 14.895 10.457 16.366 24.406 7.162 34.712-22.902 72.69-40.608 115.2-49.312 12.56-2.572 18.92-8.525 23.768-18.883 40.36-86.208 81.41-172.164 122.127-258.241 13.647-28.852 26.934-57.837 40.976-88.031M983.02 395.249c-101.039 0-202.078-.005-303.117.002-73.422.004-146.844-.044-220.265.138-7.53.018-19.957-3.836-12.899 11.092 17.12 36.21 33.708 72.62 50.083 109.099 3.727 8.305 9.07 8.77 17.16 5.682 69.616-26.584 140.091-9.27 210.437-3.384 43.838 3.669 87.684 4.524 128.047 24.653 15.104 7.533 24.395-.792 24.662-17.685.217-13.74.736-27.308 4.083-40.834 11.245-45.433 52-73.587 101.696-69.812 48.014 3.647 85.126 39.462 87.302 84.326.376 7.738-.2 15.557.821 23.217 2.107 15.783 9.687 19.96 25.69 13.35 17.692-7.305 34.733-16.035 54.861-16.69 50.637-1.65 90.758-3.738 136.81-24.058 7.224-3.188 22.722-6.052 29.255-5.483 46.053 4.01 92.988 2.555 137.436 16.82 12.041 3.864 17.981-.166 22.562-10.633 12.146-27.752 24.571-55.5 39.087-82.313 9.09-16.792 2.287-17.715-14.37-17.678-173.113.394-346.227.243-519.34.19m-.337 1255.589c-29.8-63.594-57.659-123.362-85.794-183.03-133.485-283.086-267.102-566.123-400.409-849.276-6.77-14.383-14.538-21.137-34.874-22.728-6.792-.531-8.619-.132-16.038.998-7.676 1.169-6.502.72-12.648 2.699-13.269 4.272-9.617 9.46-7.069 17.659 3.738 12.029-.879 26.848 15.111 34.952 4.482 2.272 2.953 6.142-.01 9.142-3.715 3.762-8.42 6.42-14.11 5.272-6.706-1.352-12.344-4.85-16.399-9.844-8.444-10.398-20.21-15.39-34.166-16.924-13.658-1.502-26.34-2.892-34.028 11.83-3.174 6.08-11.443 1.752-14.32-3.304-3.905-6.86-13.209-15.995-2.036-21.744 14.334-7.375 26.957-10.661 7.705-26.266-7.278-5.9-3.549-16.167 11.261-15.165 10.426.705 23.617 4.67 16.491-13.28-2.32-5.847 4.38-12.678 12.073-9.71 10.895 4.202 16.153-1.09 22.646-6.363 11.937-9.696 27.254-13.931 42.37-15.262 19.984-1.76 18.44-9.08 12.253-21.801-23.119-47.525-45.548-95.315-68.042-143.077-9.372-19.9-9.15-20.091 14.345-20.1 391.313-.138 782.625-.142 1173.937-.678 19.152-.026 20.956 3.734 13.622 18.489-20.846 41.934-40.382 84.385-59.898 126.826-2.763 6.009-11.563 14.81-2.599 19.102 10.715 5.13 19.428 18.402 35.683 11.056 13.536-6.118 29.182-13.917 18.103 11.4-2.003 4.577 1.418 6.45 6.428 6.15 3.984-.24 15.486-9.795 15.08-5.657-1.91 19.456 20.876 33.505 19.131 52.215-.446 4.778-.236 10.504-5.752 12.546-5.3 1.962-8.02-3.02-10.852-6.238-7.504-8.534-16.19-6.541-25.16-2.303-21.006 9.925-40.498 21.119-51.92 40.88-2.934 5.077-6.412 15.068-14.88 11.226-9.747-4.42-5.445-13.578-.876-20.422 9.487-14.211 8.014-28.394 1.026-42.798-6.06-12.495-13.295-13.306-22.352-1.932-3.822 4.8-6.47 10.426-9.046 15.9-106.927 227.303-213.736 454.649-320.67 681.949-57.055 121.275-114.312 242.476-173.317 367.61"/></g></svg>