<svg xmlns="http://www.w3.org/2000/svg" xmlns:xlink="http://www.w3.org/1999/xlink" xmlns:inkscape="http://www.inkscape.org/namespaces/inkscape" version="1.1" width="2048" height="1920" viewBox="0 0 2048 1920">
<defs>
<clipPath id="clip_1">
<path transform="matrix(1,0,0,-1,0,1920)" d="M0 1920H2048V0H0Z"/>
</clipPath>
</defs>
<g inkscape:groupmode="layer" inkscape:label="Layer 1">
<g clip-path="url(#clip_1)">
<path transform="matrix(1,0,0,-1,1718.708,950.8152)" d="M0 0C-4.128-40.005-15.673-74.197-34.14-95.241-12.137-58.186-5.766-17.216-6.99 25.172-8.477 76.395-19.237 126.001-32.503 175.337-57.698 269.076-97.123 354.844-161.275 427.084-180.787 449.065-202.254 469.273-223.377 489.694-264.879 529.855-291.134 578.554-301.854 636.102-302.666 640.498-300.877 645.419-300.312 650.099-296.005 648.51-290.928 647.915-287.57 645.107-280.745 639.406-274.305 632.982-268.663 626.033-182.59 520.141-105.434 408.01-47.323 283.044-5.697 193.532 10.238 99 0 0M-34.773-20.152C-39.989 115.407-80.073 213.343-107.608 264.07-171.788 382.328-253.925 470.535-368.552 536.209-424.447 568.23-482.586 594.437-545.995 604.463-583.575 610.405-621.899 611.71-659.961 613.724-685.459 615.071-711.068 613.979-727.594 613.979-394.463 662.592-20.682 413.37-34.773-20.152M-381.542 218.094C-380.399 217.881-362.153 214.251-360.433 199.46-360.433 199.46-376.491 216.222-381.542 218.094M-378.019 198.325C-372.308 192.469-368.042 185.279-373.615 173.834-375.074 190.426-389.096 198.722-401.26 205.657-390.39 209.685-383.729 204.168-378.019 198.325M-439.969 204.125C-418.296 195.815-403.462 182.91-392.798 164.148-394.986 163.099-396.912 162.177-399.293 161.029-390.348 149.754-377.083 141.458-379.766 123.902-401.99 146.819-423.828 169.353-445.033 191.206-435.593 188.37-435.346 194.284-439.969 204.125M-336.379-195.489C-350.663-194.865-354.736-203.516-357.804-215.527-369.418-260.964-385.697-304.501-408.127-345.584-420.553-368.359-441.607-378.555-463.459-387.092-489.081-397.104-515.611-401.33-542.693-392.524-569.732-383.731-586.493-364.885-595.313-337.231-600.776-320.114-607.023-303.04-615.073-287.1-621.073-275.245-629.811-274.039-638.618-284.023-658.117-306.131-680.093-307.152-704.325-295.51-737.791-279.442-771.119-263.035-804.269-246.301-808.177-244.329-812.539-239.862-813.516-235.75-820.892-204.863-827.469-173.777-833.964-144.252-817.947-162.461-801.2-181.095-784.921-200.141-776.926-209.486-770.321-208.507-761.982-200.339-747.644-186.285-735.52-186.37-724.732-203.416-715.485-218.037-710.201-235.367-703.72-251.732-701.312-257.816-701.958-265.587-698.532-270.678-695.339-275.429-688.899-278.861-683.271-280.364-680.918-280.988-675.442-275.755-673.942-272.082-660.484-239.096-634.517-219.484-605.661-202.807-602.95-201.232-600.226-199.729-594.556-196.51-605.028-194.085-612.569-192.44-620.069-190.596-670.832-178.131-718.76-157.852-764.5-132.453-784.27-121.485-800.875-106.08-812.393-84.339-814.24-80.854-812.632-76.468-808.967-75.223-788.416-68.242-771.181-71.032-748.647-72.019-740.762-72.374-733.153-78.16-725.337-81.266-705.948-88.952-685.12-96.545-665.195-102.275-636.325-110.585-615.55-129.411-597.117-147.534-591.292-153.26-585.805-155.072-581.167-161.851-572.347-174.784-558.091-173.792-552.834-159.057-547.33-143.6-546.669-127.632-555.944-110.16-557.953-123.292-559.632-134.254-561.311-145.216-563.404-145.286-562.947-145.271-565.04-145.342-566.967-136.55-568.907-127.759-570.792-119.151-607.601-113.89-620.784-104.53-617.206-87.612-631.132-85.173-645.196-83.358-658.929-80.053-665.369-78.508-671.176-74.14-677.244-71.02-685.046-66.992-688.817-61.107-685.996-51.818-685.363-49.734-685.9-47.28-685.9-40.587-698.78-61.206-713.834-56.371-729.287-51.989-754.055-44.969-778.975-38.524-804.994-31.587-808.583-30.63-810.396-26.422-808.571-23.102-793.119 5.006-769.411 22.237-739.786 32.844-781.151 37.807-820.905 35.496-859.435 10.636-856.078 22.364-853.367 31.837-850.16 43.083-875.728 41.608-898.708 35.907-920.601 25.257-924.95 23.144-929.105 20.52-933.577 18.705-948.219 12.763-962.544 18.734-967.896 34.12-971.117 43.381-973.277 53.378-973.91 63.178-976.8 107.877-979.043 152.605-981.409 197.333-982.579 219.668-988.51 228.205-1009.068 233.608-1028.32 238.671-1047.832 242.713-1068.363 247.464-1044.708 258.156-1020.242 261.858-995.473 262.51-979.043 262.949-962.53 261.12-946.1 259.773-909.427 256.738-875.315 267.374-841.491 279.882-834.681 282.4-827.656 284.283-820.738 286.48-820.98 288.524-820.925 288.062-821.167 290.107-839.315 291.254-857.463 292.402-875.611 293.564-875.598 294.013-875.604 293.813-875.59 294.262H-797.87C-826.231 267.615-862.27 257.674-895.997 243.082-895.681 242.046-895.364 241.011-895.061 239.99-862.594 245.983-830.126 251.991-797.658 257.984-796.898 256.167-797.02 256.457-796.26 254.64-809.965 244.259-823.685 233.864-840.225 221.327H-772.316C-780.889 202.693-795.049 186.98-811.631 173.281-816.653 169.126-822.034 165.453-827.125 161.397-852.472 141.246-852.39 103.949-825.378 86.406-781.151 57.675-732.479 49.067-680.671 55.917-663.745 58.157-646.324 58.214-629.302 56.895-623.289 56.427-616.725 49.762-612.321 44.302-605.235 35.538-599.861 28.814-594.563 18.788-592.086 14.08-591.742 7.712-592.141 2.224-592.238 .806-598.065-3.162-601.051-4.127-592.74-11.515-583.479-19.755-576.42-26.023-578.346-19.074-588.109-10.494-572.725 2.156-550.061-3.205-540.188 19.116-523.964 34.985-518.02 12.366-512.625-8.154-506.461-31.582-496.526 7.005-501.672 41.892-511.332 79.458-521.831 60.554-532.152 44.174-549.421 30.901-548.637 34.248-548.458 35.865-547.88 37.311-537.271 64.326-540.876 77.699-563.155 95.44-572.044 102.531-580.988 103.651-591.24 98.617-615.459 86.719-626.068 90.874-635.825 116.712-639.664 126.88-641.645 137.814-644.838 149.769-647.521 146.039-649.516 143.274-652.172 139.601-670.116 172.331-676.694 205.416-663.979 241.252-661.86 247.194-661.722 254.072-661.598 260.524-661.378 271.132-667.735 275.273-677.203 274.947-687.881 274.578-698.546 273.784-712.444 272.99-694.555 286.519-679.267 298.303-663.759 309.762-644.453 324.014-624.775 337.727-605.675 352.235-597.969 358.092-590.07 358.872-583.685 352.816-578.69 348.051-573.227 340.238-573.337 333.884-574.645 257.376-543.573 194.426-497.833 137.317-496.883 136.14-495.535 135.304-492.741 132.935V153.186C-486.219 150.18-481.389 148.606-477.219 145.911-463.239 136.878-449.285 127.773-435.745 118.073-425.603 110.813-424.433 106.175-427.612 92.334-445.434 101.383-462.954 110.29-480.459 119.183-481.136 118.349-481.036 118.472-481.713 117.638-473.985 107.047-466.931 95.826-458.298 86.095-438.745 64.057-419.328 41.721-398.096 21.47-366.818-8.381-350.938-45.947-346.562-87.924-343.259-119.718-345.915-152.179-345.915-186.342-334.425-191.561-273.548-188.696-261.205-190.908-269.929-193.475-316.977-197.021-336.379-195.489M-815.896-287.341C-793.411-291.695-770.803-295.921-748.772-302.132-719.159-310.485-699.371-333.884-678.771-355.369-676.652-357.581-678.083-364.842-679.735-368.983-680.891-371.904-684.923-374.131-688.143-375.563-717.59-388.794-742.717-408.605-766.964-429.835-769.083-431.693-771.56-433.153-773.995-434.6-796.508-448.029-802.741-445.292-815.305-421.794-821.125-410.889-830.207-401.472-839.056-392.722-854.165-377.789-862.022-360.134-862.339-335.033-861.458-330.41-860.591-322.114-858.279-314.271-852.004-292.943-837.005-283.257-815.896-287.341M-850.05-75.728C-859.862-77.416-866.714-73.473-868.93-62.852-872.494-45.806-861.554-30.773-842.372-26.136-844.973-42.912-847.436-58.838-850.05-75.728M-1087.339-770.129C-1077.073-773.178-1066.822-776.241-1056.556-779.262-1021.797-789.472-987.244-800.52-952.223-809.695-894.291-824.854-836.207-821.621-779.816-803.115-726.37-785.587-674.148-764.102-621.39-744.347-618.073-743.099-614.826-741.71-611.537-740.391-762.45-859.4-945.563-867.157-1087.339-770.129M-1123.584 395.332C-1153.431 363.296-1173.508 324.454-1194.906 286.377-1226.39 230.361-1251.27 171.735-1266.64 108.969-1282.575 43.905-1286.263-22.08-1279.286-88.746-1278.199-99.17-1273.672-106.104-1264.838-112.784-1256.925-118.782-1249.907-129.872-1248.05-139.813-1242.655-168.658-1241.21-198.283-1236.023-227.17-1231.661-251.505-1223.79-275.145-1218.203-299.268-1207.855-343.981-1197.988-388.808-1188.108-433.635-1187.351-437.053-1187.998-440.811-1187.998-444.413-1189.14-445.023-1190.282-445.633-1191.411-446.257-1198.112-438.244-1205.447-430.714-1211.391-422.149-1229.198-396.537-1246.343-370.444-1264.081-344.79-1266.42-341.386-1270.727-339.429-1274.112-336.791-1276.686-340.677-1280.772-344.237-1281.584-348.477-1287.24-377.704-1291.409-407.244-1297.574-436.344-1307.358-482.405-1319.935-527.898-1328.136-574.229-1332.347-597.996-1329.403-623.055-1330.269-647.503-1330.476-653.218-1333.021-658.834-1334.48-664.507-1339.021-660.522-1344.388-657.189-1347.924-652.424-1357.887-638.938-1358.025-623.721-1355.507-607.385-1350.91-577.533-1346.989-547.511-1344.278-517.418-1339.255-461.714-1334.976-405.939-1331.012-350.136-1328.907-320.369-1328.026-290.49-1326.76-260.652-1323.197-176.982-1320.926-93.242-1315.752-9.686-1312.738 38.899-1298.923 85.655-1279.63 130.071-1268.553 155.583-1266.998 179.025-1281.185 203.459-1290.997 220.363-1302.846 223.28-1317.142 209.926-1320.239 207.032-1331.364 194.339-1332.974 191.46-1333.636 194.751-1328.418 203.822-1326.471 205.799-1319.733 214.859-1312.105 222.646-1303.505 229.056-1294.671 235.651-1282.424 229.439-1276.974 215.612-1273.231 206.139-1271.897 195.645-1269.557 185.59-1268.567 181.35-1267.755 177.068-1264.081 172.26-1253.306 192.823-1242.531 213.386-1231.743 233.949-1204.745 285.384-1177.664 336.763-1150.776 388.27-1138.446 411.896-1113.443 432.487-1083.046 435.734-1096.6 422.305-1110.581 409.3-1123.584 395.332M-1359.304-22.321C-1362.497-28.377-1371.4-33.652-1378.267-34.531-1385.023-35.396-1391.573-19.372-1391.009-10.948-1383.881-9.374-1374.414-9.969-1372.24-6.141-1369.487-1.319-1371.441 7.573-1373.657 13.855-1376.45 21.768-1381.569 28.816-1385.67 36.247-1386.853 36.148-1388.023 36.035-1389.193 35.935-1390.293 25.952-1391.38 15.968-1392.66 4.24-1398.165 15.103-1398.206 15.103-1389.413 51.818-1385.684 67.432-1381.734 82.975-1377.606 99.709-1372.184 86.747-1367.836 97.695-1360.529 99.978-1381.266 70.098-1383.537 41.594-1359.015 12.635-1352.644 18.677-1346.576 24.42-1340.521 30.149-1339.503 29.767-1338.484 29.384-1337.466 29.001-1344.567 11.785-1350.663-5.984-1359.304-22.321M-1234.716 371.734C-1226.253 417.667-1218.203 463.7-1208.722 509.42-1202.433 539.669-1194.961 569.776-1185.962 599.273-1182.535 610.533-1173.357 619.921-1166.807 630.16-1165.582 629.394-1164.357 628.628-1163.146 627.876-1198.952 566.656-1194.177 497.48-1202.653 430.898-1201.47 430.359-1200.286 429.821-1199.103 429.282-1196.709 432.614-1194.287 435.933-1191.92 439.28-1189.402 442.839-1186.911 446.427-1183.154 449.249-1194.686 404.748-1214.02 364.275-1241.898 327.645-1239.518 342.35-1237.426 357.099-1234.716 371.734M-980.598 756.614C-942.591 800.761-867.76 822.472-824.937 825.847-841.629 789.671-855.472 754.983-890.121 736.151-920.931 719.403-951.604 702.186-989.735 706.228-977.777 719.714-966.108 731.485-956.104 744.603-948.494 754.586-941.338 765.52-936.949 777.418-934.802 783.261-967.36 765.733-980.598 756.614M-798.902 314.583H-855.1C-848.206 325.021-843.996 332.58-838.519 338.99-836.73 341.088-830.538 341.897-828.24 340.337-817.644 333.175-807.709 324.978-798.902 314.583M-744.093 92.207C-749.887 84.435-755.501 83.953-761.845 89.2-769.551 95.596-771.683 104.516-766.895 112.514-759.368 105.807-751.951 99.198-744.093 92.207M-753.217 133.318C-754.111 132.694-755.501 132.808-758.9 132.141-762.423 149.91-766.22 166.786-768.973 183.86-770.596 193.872-765.216 199.843-755.405 200.197-745.346 200.566-735.232 200.637-725.228 199.758-712.788 198.666-706.788 189.263-702.564 177.635-698.958 178.642-695.78 179.521-690.537 180.982-694.349 169.183-697.431 158.66-701.284 148.464-702.151 146.195-706.348 143.061-707.93 143.614-725.214 149.698-739.442 142.905-753.217 133.318M-783.793 434.302C-753.698 425.311-728.97 386.327-735.865 355.95-738.809 343.003-747.905 331.544-755.749 316.47-794.127 351.37-838.092 367.522-884.975 380.328-878.686 389.673-874.599 397.374-869.026 403.67-857.798 416.377-845.169 410.978-832.578 406.581-819.932 402.157-805.328 395.672-795.145 386.227-784.302 376.187-775.674 363.594-766.069 352.107-765.147 353.043-764.239 353.979-763.317 354.915-776.128 383.93-789.572 411.938-824.373 420.305-837.845 423.553-850.697 429.58-865.201 434.827-854.068 444.229-843.184 448.455-830.703 445.775-814.974 442.385-799.205 438.897-783.793 434.302M-724.539 816.005C-706.761 817.693-688.844 819.154-671.341 822.656-635.302 829.846-600.941 826.939-568.507 808.234-527.762 784.75-487.471 760.358-446.161 737.98-420.924 724.295-394.146 713.687-368.097 701.619-363.089 699.293-358.272 696.585-353.374 694.061-353.47 692.969-353.566 691.862-353.662 690.771-357.653 690.232-361.63 689.494-365.648 689.196-393.307 687.083-420.305 682.588-447.469 675.582-483.178 666.35-520.235 662.422-556.825 657.076-576.282 654.24-596.098 653.956-615.569 651.162-635.274 648.312-648.058 657.884-657.58 673.625-666.511 688.388-674.093 704.002-682.831 718.878-701.958 751.438-721.443 783.757-742.016 818.26-735.397 817.324-729.865 815.495-724.539 816.005M18.494 126.001C10.252 198.396-12.99 266.24-46.772 330.197-101.98 434.685-165.609 533.231-240.646 623.92-280.125 671.654-324.022 712.34-381.61 735.796-406.201 745.808-430.117 757.947-453.455 770.824-485.352 788.423-516.231 807.95-547.866 826.074-586.149 848.027-626.77 858.351-670.928 852.026-701.16 847.686-731.392 843.943-762.175 849.544-839.468 863.612-913.019 849.516-979.07 807.312-1034.663 771.788-1087.724 731.669-1139.574 690.473-1180.691 657.799-1212.272 616.049-1222.895 561.622-1228.826 531.188-1232.211 500.245-1237.564 469.698-1245.999 421.581-1255.315 373.649-1263.888 325.56-1267.218 306.826-1269.117 287.823-1272.502 269.104-1274.553 257.816-1280.332 248.002-1292.951 248.258-1312.958 248.669-1325.577 237.522-1337.48 222.901-1372.171 180.272-1392.812 130.709-1404.591 77.203-1414.608 31.681-1419.727-14.295-1407.783-60.753-1397.697-99.964-1391.188-106.643-1352.218-110.614-1344.718-111.38-1340.989-114.797-1341.76-122.484-1342.544-130.283-1344.113-138.012-1344.911-145.826-1349.08-187.065-1353.319-228.305-1357.158-269.572-1362.841-330.637-1368.386-391.73-1373.657-452.837-1378.363-507.378-1381.542-562.089-1387.417-616.489-1392.412-662.692-1377.193-697.266-1337.728-719.232-1309.78-734.803-1281.199-749.325-1252.178-762.67-1148.367-810.446-1043.195-854.196-929.133-868.958-885.801-874.56-842.276-875.014-799.205-867.767-749.501-859.4-702.068-842.666-655.695-822.302-610.753-802.576-572.182-775.192-548.926-729.854-523.551-680.404-499.03-630.458-475.802-579.901-446.891-516.979-419.383-453.362-391.876-389.758-379.147-360.332-367.341-330.452-356.098-300.388-347.608-277.627-340.934-254.157-332.953-231.198-328.838-219.37-320.307-213.726-307.688-214.279-296.047-214.804-284.35-214.393-272.667-214.393-212.506-216.009-153.817-207.827-98.691-181.691-20.228-144.479 19.801-78.933 24.673 8.197 26.847 47.238 22.939 86.974 18.494 126.001" fill="#231f20"/>
</g>
</g>
</svg>
