<svg xmlns="http://www.w3.org/2000/svg" width="2048" height="1920" viewBox="0 0 2048 1920"><defs><clipPath id="clip_1"><path d="M0 0h2048v1920H0Z"/></clipPath></defs><g clip-path="url(#clip_1)"><path fill="#231f20" d="M1718.708 950.815c-4.128 40.005-15.673 74.197-34.14 95.241 22.003-37.055 28.374-78.025 27.15-120.413-1.487-51.223-12.247-100.829-25.513-150.165-25.195-93.739-64.62-179.507-128.772-251.747-19.512-21.98-40.979-42.189-62.102-62.61-41.502-40.16-67.757-88.86-78.477-146.408-.812-4.396.977-9.317 1.542-13.997 4.307 1.59 9.384 2.184 12.742 4.992 6.825 5.701 13.265 12.125 18.907 19.074 86.073 105.892 163.229 218.023 221.34 342.99 41.626 89.511 57.561 184.043 47.323 283.043m-34.773 20.152c-5.216-135.559-45.3-233.495-72.835-284.222-64.18-118.258-146.317-206.465-260.944-272.139-55.895-32.02-114.034-58.228-177.443-68.254-37.58-5.942-75.904-7.247-113.966-9.26-25.498-1.348-51.107-.256-67.633-.256 333.131-48.613 706.912 200.61 692.821 634.131m-346.769-238.246c1.143.213 19.389 3.843 21.109 18.634 0 0-16.058-16.762-21.109-18.634m3.523 19.77c5.711 5.855 9.977 13.045 4.404 24.49-1.459-16.592-15.481-24.888-27.645-31.823 10.87-4.028 17.531 1.49 23.241 7.332m-61.95-5.8c21.673 8.31 36.507 21.215 47.171 39.977-2.188 1.05-4.114 1.971-6.495 3.12 8.945 11.274 22.21 19.57 19.527 37.126-22.224-22.917-44.062-45.45-65.267-67.304 9.44 2.836 9.687-3.078 5.064-12.919m103.59 399.614c-14.284-.624-18.357 8.027-21.425 20.038-11.614 45.437-27.893 88.974-50.323 130.057-12.426 22.775-33.48 32.971-55.332 41.508-25.622 10.012-52.152 14.238-79.234 5.432-27.039-8.793-43.8-27.639-52.62-55.293-5.463-17.117-11.71-34.19-19.76-50.13-6-11.856-14.738-13.062-23.545-3.078-19.499 22.108-41.475 23.13-65.707 11.487a5613 5613 0 0 1-99.944-49.209c-3.908-1.972-8.27-6.439-9.247-10.55-7.376-30.888-13.953-61.974-20.448-91.499 16.017 18.21 32.764 36.843 49.043 55.89 7.995 9.344 14.6 8.365 22.939.197 14.338-14.054 26.462-13.969 37.25 3.077 9.247 14.621 14.531 31.951 21.012 48.316 2.408 6.084 1.762 13.855 5.188 18.946 3.193 4.751 9.633 8.183 15.261 9.686 2.353.624 7.829-4.609 9.329-8.282 13.458-32.986 39.425-52.598 68.281-69.275 2.711-1.575 5.435-3.078 11.105-6.297-10.472-2.425-18.013-4.07-25.513-5.914-50.763-12.465-98.691-32.744-144.431-58.143-19.77-10.968-36.375-26.373-47.893-48.114-1.847-3.485-.239-7.87 3.426-9.116 20.551-6.98 37.786-4.19 60.32-3.204 7.885.355 15.494 6.141 23.31 9.247 19.389 7.686 40.217 15.28 60.142 21.01 28.87 8.31 49.645 27.135 68.078 45.258 5.825 5.726 11.312 7.538 15.95 14.317 8.82 12.933 23.076 11.941 28.333-2.794 5.504-15.457 6.165-31.425-3.11-48.897-2.009 13.132-3.688 24.094-5.367 35.056l-3.729.126c-1.927-8.792-3.867-17.583-5.752-26.19-36.809-5.262-49.992-14.622-46.414-31.54-13.926-2.439-27.99-4.254-41.723-7.559-6.44-1.545-12.247-5.913-18.315-9.033-7.802-4.028-11.573-9.913-8.752-19.202.633-2.084.096-4.538.096-11.23-12.88 20.618-27.934 15.783-43.387 11.401-24.768-7.02-49.688-13.465-75.707-20.402-3.589-.957-5.402-5.165-3.577-8.485 15.452-28.108 39.16-45.339 68.785-55.946-41.365-4.963-81.119-2.652-119.649 22.208 3.357-11.728 6.068-21.2 9.275-32.447-25.568 1.475-48.548 7.176-70.441 17.826-4.349 2.113-8.504 4.737-12.976 6.552-14.642 5.942-28.967-.029-34.319-15.415-3.221-9.26-5.381-19.258-6.014-29.058-2.89-44.699-5.133-89.427-7.499-134.155-1.17-22.335-7.101-30.872-27.659-36.275-19.252-5.063-38.764-9.105-59.295-13.856 23.655-10.692 48.121-14.394 72.89-15.046 16.43-.439 32.943 1.39 49.373 2.737 36.673 3.035 70.785-7.6 104.609-20.109 6.81-2.518 13.835-4.4 20.753-6.598l-.429-3.627a66269 66269 0 0 1-54.444-3.457l.021-.698h77.72c-28.361 26.647-64.4 36.588-98.127 51.18.316 1.036.633 2.071.936 3.092 32.467-5.993 64.935-12 97.403-17.994l1.398 3.344a161226 161226 0 0 0-43.965 33.313h67.909c-8.573 18.634-22.733 34.347-39.315 48.046-5.022 4.155-10.403 7.828-15.494 11.884-25.347 20.151-25.265 57.448 1.747 74.991 44.227 28.731 92.899 37.34 144.707 30.49 16.926-2.24 34.347-2.298 51.369-.979 6.013.468 12.577 7.133 16.981 12.593 7.086 8.764 12.46 15.488 17.758 25.514 2.477 4.708 2.821 11.076 2.422 16.564-.097 1.418-5.924 5.386-8.91 6.351 8.311 7.388 17.572 15.628 24.631 21.896-1.926-6.949-11.689-15.529 3.695-28.179 22.664 5.361 32.537-16.96 48.761-32.829 5.944 22.62 11.339 43.14 17.503 66.567 9.935-38.587 4.789-73.474-4.871-111.04-10.499 18.904-20.82 35.284-38.089 48.557.784-3.347.963-4.964 1.541-6.41 10.609-27.015 7.004-40.388-15.275-58.129-8.889-7.09-17.833-8.21-28.085-3.177-24.219 11.898-34.828 7.743-44.585-18.095-3.839-10.168-5.82-21.102-9.013-33.057-2.683 3.73-4.678 6.495-7.334 10.168-17.944-32.73-24.522-65.815-11.807-101.65 2.119-5.943 2.257-12.82 2.381-19.273.22-10.608-6.137-14.749-15.605-14.423-10.678.37-21.343 1.163-35.241 1.957 17.889-13.529 33.177-25.313 48.685-36.772 19.306-14.252 38.984-27.965 58.084-42.473 7.706-5.857 15.605-6.637 21.99-.58 4.995 4.764 10.458 12.577 10.348 18.931-1.308 76.508 29.764 139.458 75.504 196.567.95 1.177 2.298 2.013 5.092 4.382v-20.25c6.522 3.005 11.352 4.58 15.522 7.274 13.98 9.033 27.934 18.138 41.474 27.838 10.142 7.26 11.312 11.898 8.133 25.74-17.822-9.05-35.342-17.957-52.847-26.85l-1.254 1.545c7.728 10.591 14.782 21.812 23.415 31.543 19.553 22.038 38.97 44.374 60.202 64.625 31.278 29.851 47.158 67.417 51.534 109.394 3.303 31.794.647 64.255.647 98.418 11.49 5.22 72.367 2.354 84.71 4.566-8.724 2.567-55.772 6.113-75.174 4.581m-479.517 91.852c22.485 4.354 45.093 8.58 67.124 14.791 29.613 8.353 49.401 31.752 70.001 53.237 2.119 2.212.688 9.473-.964 13.614-1.156 2.921-5.188 5.148-8.408 6.58-29.447 13.231-54.574 33.042-78.821 54.272-2.119 1.858-4.596 3.318-7.031 4.765-22.513 13.43-28.746 10.692-41.31-12.806-5.82-10.905-14.902-20.322-23.751-29.072-15.109-14.933-22.966-32.588-23.283-57.689.881-4.623 1.748-12.919 4.06-20.762 6.275-21.328 21.274-31.014 42.383-26.93m-34.154-211.613c-9.812 1.688-16.664-2.255-18.88-12.876-3.564-17.046 7.376-32.079 26.558-36.716-2.601 16.776-5.064 32.702-7.678 49.592m-237.289 694.401c10.266 3.05 20.517 6.112 30.783 9.133 34.759 10.21 69.312 21.258 104.333 30.433 57.932 15.16 116.016 11.926 172.407-6.58 53.446-17.528 105.668-39.013 158.426-58.768 3.317-1.248 6.564-2.637 9.853-3.956-150.913 119.01-334.026 126.766-475.802 29.738m-36.245-1165.46c-29.847 32.035-49.924 70.877-71.322 108.954-31.484 56.016-56.364 114.642-71.734 177.408-15.935 65.064-19.623 131.05-12.646 197.715 1.087 10.424 5.614 17.358 14.448 24.038 7.913 5.998 14.931 17.088 16.788 27.03 5.395 28.844 6.84 58.47 12.027 87.356 4.362 24.335 12.233 47.975 17.82 72.098 10.348 44.713 20.215 89.54 30.095 134.367.757 3.418.11 7.176.11 10.778-1.142.61-2.284 1.22-3.413 1.844-6.701-8.013-14.036-15.543-19.98-24.108-17.807-25.612-34.952-51.705-52.69-77.359-2.339-3.404-6.646-5.36-10.031-7.999-2.574 3.886-6.66 7.446-7.472 11.686-5.656 29.227-9.825 58.767-15.99 87.867-9.784 46.061-22.361 91.554-30.562 137.885-4.211 23.767-1.267 48.826-2.133 73.274-.207 5.715-2.752 11.331-4.211 17.004-4.541-3.985-9.908-7.318-13.444-12.083-9.963-13.486-10.101-28.703-7.583-45.039 4.597-29.852 8.518-59.874 11.229-89.967 5.023-55.704 9.302-111.479 13.266-167.282 2.105-29.767 2.986-59.646 4.252-89.484 3.563-83.67 5.834-167.41 11.008-250.966 3.014-48.585 16.829-95.34 36.122-139.757 11.077-25.512 12.632-48.954-1.555-73.388-9.812-16.904-21.661-19.82-35.957-6.467-3.097 2.894-14.222 15.587-15.832 18.466-.662-3.29 4.556-12.362 6.503-14.339 6.738-9.06 14.366-16.847 22.966-23.257 8.834-6.595 21.081-.383 26.531 13.444 3.743 9.473 5.077 19.967 7.417 30.022.99 4.24 1.802 8.522 5.476 13.33 10.775-20.563 21.55-41.126 32.338-61.689 26.998-51.435 54.079-102.814 80.967-154.32 12.33-23.627 37.333-44.218 67.73-47.465-13.554 13.43-27.535 26.434-40.538 40.402m-235.72 417.653c-3.193 6.056-12.096 11.331-18.963 12.21-6.756.865-13.306-15.159-12.742-23.583 7.128-1.574 16.595-.979 18.769-4.807 2.753-4.822.799-13.714-1.417-19.996-2.793-7.913-7.912-14.96-12.013-22.392-1.183.1-2.353.212-3.523.312-1.1 9.983-2.187 19.967-3.467 31.695-5.505-10.863-5.546-10.863 3.247-47.578 3.729-15.614 7.679-31.157 11.807-47.89 5.422 12.961 9.77 2.013 17.077-.27-20.737 29.88-23.008 58.384 1.514 87.343 6.371-6.042 12.439-11.785 18.494-17.514l3.055 1.148c-7.101 17.216-13.197 34.985-21.838 51.322m124.588-394.055c8.463-45.933 16.513-91.966 25.994-137.686 6.289-30.249 13.761-60.356 22.76-89.853 3.427-11.26 12.605-20.648 19.155-30.887 1.225.766 2.45 1.532 3.661 2.284-35.806 61.22-31.031 130.396-39.507 196.978l3.55 1.616c2.394-3.332 4.816-6.65 7.183-9.998 2.518-3.559 5.009-7.147 8.766-9.969-11.532 44.501-30.866 84.974-58.744 121.604 2.38-14.705 4.472-29.454 7.182-44.089m254.118-384.88c38.007-44.147 112.838-65.858 155.661-69.233-16.692 36.176-30.535 70.864-65.184 89.696-30.81 16.748-61.483 33.965-99.614 29.923 11.958-13.486 23.627-25.257 33.631-38.375 7.61-9.983 14.766-20.917 19.155-32.815 2.147-5.843-30.411 11.685-43.649 20.804m181.696 442.031h-56.198c6.894-10.438 11.104-17.997 16.581-24.407 1.789-2.098 7.981-2.907 10.279-1.347 10.596 7.162 20.531 15.36 29.338 25.754m54.809 222.376c-5.794 7.772-11.408 8.254-17.752 3.007-7.706-6.396-9.838-15.316-5.05-23.314 7.527 6.707 14.944 13.316 22.802 20.307m-9.124-41.11c-.894.623-2.284.51-5.683 1.176-3.523-17.769-7.32-34.645-10.073-51.719-1.623-10.012 3.757-15.983 13.568-16.337 10.059-.369 20.173-.44 30.177.44 12.44 1.091 18.44 10.494 22.664 22.122 3.606-1.007 6.784-1.886 12.027-3.347-3.812 11.8-6.894 22.322-10.747 32.518-.867 2.27-5.064 5.403-6.646 4.85-17.284-6.084-31.512.71-45.287 10.296m-30.576-300.984c30.095 8.991 54.823 47.975 47.928 78.352-2.944 12.947-12.04 24.406-19.884 39.48-38.378-34.9-82.343-51.052-129.226-63.858 6.289-9.345 10.376-17.046 15.949-23.342 11.228-12.707 23.857-7.308 36.448-2.91 12.646 4.423 27.25 10.908 37.433 20.353 10.843 10.04 19.471 22.633 29.076 34.12.922-.936 1.83-1.872 2.752-2.808-12.811-29.015-26.255-57.023-61.056-65.39-13.472-3.248-26.324-9.275-40.828-14.522 11.133-9.402 22.017-13.628 34.498-10.948 15.729 3.39 31.498 6.878 46.91 11.473m59.254-381.703c17.778-1.688 35.695-3.149 53.198-6.65 36.039-7.19 70.4-4.284 102.834 14.421 40.745 23.484 81.036 47.876 122.346 70.254 25.237 13.685 52.015 24.293 78.064 36.361 5.008 2.326 9.825 5.034 14.723 7.558l-.288 3.29c-3.991.54-7.968 1.277-11.986 1.575-27.659 2.113-54.657 6.608-81.821 13.614-35.709 9.232-72.766 13.16-109.356 18.506-19.457 2.836-39.273 3.12-58.744 5.914-19.705 2.85-32.489-6.722-42.011-22.463-8.931-14.763-16.513-30.377-25.251-45.253-19.127-32.56-38.612-64.879-59.185-99.382 6.619.936 12.151 2.765 17.477 2.255m743.033 690.004c-8.242-72.395-31.484-140.239-65.266-204.196-55.208-104.488-118.837-203.034-193.874-293.723-39.479-47.734-83.376-88.42-140.964-111.876-24.591-10.012-48.507-22.15-71.845-35.028-31.897-17.599-62.776-37.126-94.411-55.25-38.283-21.953-78.904-32.277-123.062-25.952-30.232 4.34-60.464 8.083-91.247 2.482-77.293-14.068-150.844.028-216.895 42.232-55.593 35.524-108.654 75.643-160.504 116.84-41.117 32.673-72.698 74.423-83.321 128.85-5.931 30.434-9.316 61.377-14.669 91.924-8.435 48.117-17.751 96.05-26.324 144.138-3.33 18.734-5.229 37.737-8.614 56.456-2.051 11.288-7.83 21.102-20.449 20.846-20.007-.41-32.626 10.736-44.529 25.357-34.691 42.63-55.332 92.192-67.111 145.698-10.017 45.522-15.136 91.498-3.192 137.956 10.086 39.211 16.595 45.89 55.565 49.861 7.5.766 11.229 4.183 10.458 11.87-.784 7.8-2.353 15.528-3.151 23.342-4.169 41.24-8.408 82.48-12.247 123.746-5.683 61.065-11.228 122.158-16.499 183.265-4.706 54.541-7.885 109.252-13.76 163.652-4.995 46.203 10.224 80.777 49.689 102.743a1243 1243 0 0 0 85.55 43.438c103.811 47.776 208.983 91.526 323.045 106.288 43.332 5.602 86.857 6.056 129.928-1.19 49.704-8.368 97.137-25.102 143.51-45.466 44.942-19.726 83.513-47.11 106.769-92.448 25.375-49.45 49.896-99.396 73.124-149.953 28.911-62.922 56.419-126.539 83.926-190.143 12.729-29.426 24.535-59.306 35.778-89.37 8.49-22.76 15.164-46.23 23.145-69.19 4.115-11.828 12.646-17.472 25.265-16.919 11.641.525 23.338.114 35.021.114 60.161 1.616 118.85-6.566 173.976-32.702 78.463-37.212 118.492-102.758 123.364-189.888 2.174-39.04-1.734-78.777-6.179-117.804"/></g></svg>