<svg xmlns="http://www.w3.org/2000/svg" width="1133.86" height="1332.28" viewBox="0 0 1133.86 1332.28"><defs><clipPath id="clip_1"><path d="M0-.003h1133.858V1332.28H0Z"/></clipPath></defs><g clip-path="url(#clip_1)"><path d="M158.7 957.332c0 .97.026 1.94-.005 2.909-.214 6.565 3.815 11.573 8.818 14.036 4.354 2.143 9.908-1.374 13.406-4.492 4.31-3.841-.086-8.403-1.218-12.505-.843-3.054-2.636-5.862-4.036-8.766-4-8.303-8.668-8.64-14.419-1.27-2.42 3.103-2.55 6.525-2.547 10.088m670.113-603.746c-11.117 28.03-16.73 57.37-25.406 85.87-1.694 5.566 1.125 6.876 6.488 5.73 4.695-1 6.635-3.507 7.2-8.017 1.094-8.737 2.77-17.404 3.934-26.135 2.56-19.172 8.32-37.913 7.784-57.448m97.51-223.713c-.528 2.618-.82 5.944 2.341 6.49 2.728.473 2.971-2.655 3.566-4.877 1.931-7.207 4.041-14.368 6.157-21.527 1.013-3.432 2.081-6.771 5.667-8.79 2.075-1.167 5.757-1.665 4.836-5.13-.774-2.907-3.744-1.595-5.925-1.961-4.315-.725-6.416-4.242-5.618-7.881.907-4.126 4.966-2.083 7.572-1.622 4.152.734 9.887 3.869 11.785-.415 2.282-5.152-5.072-6.232-8.138-9.082-2.685-2.498-6.445-3.614-10.24-2.918-4.082.749-7.269 2.266-7.64 7.376-1.223 16.795-2.877 33.56-4.364 50.337M518.252 179.68c-2.083 8.802-.193 15.85 7.937 21.199 3.771 2.48 6.447 6.537 9.651 9.849 2.384 2.464 3.55 7.83 7.725 6.329 4.074-1.466 4.807-6.367 5.445-10.712 2.175-14.83-7.336-23.72-17.353-31.913-3.85-3.151-5.849-11.27-11.244-9.047-4.917 2.025-.858 9.495-2.16 14.295m-397.22 665.304c-.524 10.977 2.501 21.33 5.914 31.593.662 1.989 1.106 4.69 4.536 3.863 4.804-1.158 16.564-15.531 15.737-20.083-1.39-7.656-3.102-15.295-5.316-22.76-1.875-6.324-6.127-11.906-13.422-10.688-7.368 1.23-7.47 8.138-7.45 14.167.004 1.306 0 2.61 0 3.908m756.617-542.83c-.636-1.894-1.449-5.043-2.73-8-4.146-9.566-8.45-19.067-12.726-28.58-.832-1.852.275-5.35-3.309-4.964-2.876.31-2.895 3.36-3.17 5.46-2.539 19.37-4.876 38.764-7.412 58.134-.473 3.615-.015 5.443 4.465 5.23 15.583-.741 25.277-10.697 24.882-27.28m-689.582 698.347c.243 1.762.341 3.4.69 4.997 4.243 19.498 8.604 32.357 12.243 48.498 7 29 12.277 50.682 18 76 1.307 5.784 1.727 11.26 7 10 2.662-.72.81-6.572 0-10-6.517-27.591-12.837-56.56-20-84-3.949-15.128-6-26-11.804-44.913-.688-2.242-1.469-4.645-4.447-4.336-2.386.247-1.562 2.392-1.682 3.754m698.15-721.424c11.096-23.864 17.683-46.132 23.15-70.881-13.477 6.139-24.883 11.32-36.272 16.538-2.59 1.186-4.704 2.88-3.62 6.042 5.245 15.299 10.583 30.566 16.742 48.3M209 1118.998c-6.039-25.54-12.088-49.432-18-75-2.915-12.604-5-22-9.21-38.903-.569-2.282-2.604-5.283-6.235-4.236-3.408.984-3.745 4.137-3.013 7.316 8.333 36.2 16.718 72.39 24.88 108.63 1.138 5.059 4.676 7.659 8.467 10.337 1.346.95 3.111 2.856 4.111 1.856s-.627-8.422-1-10M945.136 57.469c-1.135-7.121-2.165-13.363-3.114-19.616-.505-3.328-1.469-5.728-5.776-4.226-10.165 3.544-19.413 18.239-18.403 29.042.285 3.05 1.3 4.05 4.374 3.166 14.102-4.06 27.512-1.87 39.23 6.3 7.998 5.578 11.468 2.38 14.498-4.497 1.176-2.67 1.971-5.502 3.217-8.137 2.41-5.095-.74-8.626-4.382-10.476-6.288-3.195-10.83-8.435-17.933-11.26-6.812-2.711-6.558-1.281-8.169 3.355-1.754 5.05 1.128 11.048-3.542 16.349M830.294 454.646c4.217 5.957 8.791 10.117 14.572 13.542 27.461 16.27 52.35 5.389 77.122-6.592 2.414-1.168 6.351-2.516 5.618-6.061-.81-3.914-5.2-4.087-8.217-4.152-20.987-.45-41.989-.881-62.973-.54-8.465.138-17.116 1.008-26.122 3.803M378.551 119.972c4.15-5.81.577-13.425 5.857-19.023 6.33-6.71 11.88-14.116 18.186-20.85 31.123-33.231 73.628-26.435 98.51-2.244 7.637 7.426 10.15 17.335 13.613 26.79.616 1.68.42 4.424 3.233 4.113 2.87-.317 2.228-2.95 2.021-4.676-.616-5.16-1.395-10.312-2.402-15.414-3.379-17.107-23.54-37.896-39.227-39.02-12.62-.904-25.38-.115-38.073.14-13.439.27-24.177 6.445-33.692 15.162-4.628 4.24-8.897 9.088-14.168 12.384-16.885 10.562-16.953 26.089-13.858 42.638m125.63-19.26c-4.729-16.01-31.097-34.006-47.738-34.92-30.39-1.67-48.56 15.889-64.049 37.894-1.942 2.758-3.66 6.747-.796 8.933 3.07 2.34 4.96-2.123 7.034-3.78 18.956-15.141 39.927-24.791 65.078-22.377 13.993 1.344 26.692 7.012 40.47 14.25m498.331 305.443c18.52-1.381 35.251-1.386 50.85-8.261 4.41-1.944 9.174-3.996 8.531-9.4-.585-4.924-5.756-4.708-9.603-5.284-23.975-3.59-48.008-2.28-71.997-.31-9.259.762-18.718 1.08-27.364 5.273-1.743.844-4.419.779-4.678 3.01-.375 3.222 2.977 2.959 4.915 3.819 16.286 7.237 33.638 9.745 49.346 11.153m-82.62-320.64c-21.859 36.432-36.73 75.562-51.859 114.93 9.604-3.72 18.195-8.373 27.005-12.594 13.941-6.68 22.238-15.307 22.463-32.51.303-23.207 2.467-46.457 2.39-69.826M520.666 228.022c.126 2.449-.188 3.628.276 4.29 13.932 19.92 27.235 40.018 30.993 64.693 1.027 6.74 24.542 18.143 31.1 16.09 1.2-.377 2.49-1.141 3.252-2.095 8.411-10.513 6.172-36.276-3.755-46.541-16.88-17.453-38.227-27.557-61.866-36.437m-142.789-57.526c-4.26 7.59-3.32 14.126-3.146 20.324.167 5.916-1.25 10.863-5.207 15.286-8.023 8.969-12.563 19.92-17.885 30.406-5.763 11.354-4.097 21.835 3.496 32.084 5.734 7.739 12.826 14.118 19.422 21.015 3.333 3.484 6.698 4.966 11.525 2.895 4.933-2.117 7.242-5.486 6.83-10.666-.617-7.78-.65-15.661-2.034-23.31-2.36-13.036-.145-26.864-6.723-39.147-4.476-8.356-5.623-17.152-5.577-26.46.034-6.813 1.974-13.816-.7-22.427m617.864 65.163c.011.048 2.024-3.79-1.87-3.947-2.897-.117-3.146 3.515-3.863 6.027-7.047 24.632-14.243 49.223-21.284 73.858a4820 4820 0 0 0-15.985 57.152c-.786 2.885-3.397 7.714 3.596 6.734 8.22-1.152 16.337-3.073 24.576-4.004 7.487-.846 9.374-4.356 9.612-11.522 1.352-40.673 3.343-81.326 5.218-124.298m-490.009-104.12c4.396-.735 8.897 1.117 10.937-2.977 2.857-5.733-1.43-6.316-4.837-9.762-20.857-21.102-54.1-33.972-86.57-17.747-10.147 5.07-19.263 11.509-28.37 18.138-13.905 10.123-19.842 20.034-21.902 36.082-.265 2.066-1.288 1.869 1.544 3.078 2.353 1.004 3.251-1.461 4.745-2.62 14.704-11.397 26.987-26.357 47.007-29.996 2.68-.487 5.073-2.986 7.378-4.82 11.723-9.314 23.045-10.035 35.674-2.04 10.524 6.665 22.432 9.672 34.394 12.665m502.374 87.154c-1.215 1.444-1.556 1.66-1.578 1.904-4.177 46.547-1.043 93.163-1.429 139.746-.047 5.766 3.03 6.016 7.572 6.147 13.651.393 27.37-1.004 40.941 1.92 8.76 1.888 9.282-2.37 6.791-9.221-9.095-25.014-17.768-50.174-26.852-75.191-7.858-21.634-15.08-43.52-25.445-65.305M879.012 333.76c-10.207 4.525-19.827 9.043-29.667 13.047-5.214 2.122-7.62 5.267-8.508 10.813-4.009 25.022-8.356 49.996-12.914 74.929-1.063 5.806 1.181 6.73 6.331 6.497 26.03-1.177 52.056-2.795 78.138-1.637 4.244.188 6.508-.941 4.645-5.653-12.88-32.577-23.104-66.15-38.025-97.996m49.415 64.417c3.836-6.926 6.26-12.195 7.96-17.87 11.206-37.383 22.412-74.768 33.93-112.06 8.054-26.082 16.627-52.01 23.25-78.493 1.321-5.281.956-8.31-6.192-6.263-17.348 4.966-34.818 9.535-52.295 14.054-4.68 1.21-7.062 3.582-8.58 8.223-10.474 32.002-19.115 64.5-28.217 96.876-.91 3.238-1.454 6.443-.327 9.633 9.911 28.05 19.883 56.079 30.471 85.9M326.272 505.876c15.485-15.892 28.114-33.173 35.124-53.871 1.436-4.238 4.176-8.194 3.042-13.01-5.362-22.773-10.614-45.571-16.177-68.296-.99-4.048-3.238-7.81-4.969-11.677-1.104-2.466-2.129-3.922-5.887-3.48-23.56 2.778-49.475 23.872-55.97 46.123-7.91 27.092-11.596 54.979-16.117 82.688-5.692 34.89-19.2 67.983-24.488 102.923-2.378 15.714-7.39 30.108-16.483 43.553-6.193 9.158-11.274 19.194-14.937 29.83-15.847 46.027-23.728 93.85-30.96 141.51-5.052 33.282-14.622 62.5-41.394 84.894-10.67 8.927-12.476 20.036-7.397 32.782 3.29 8.254 7.206 16.133 11.632 23.82 1.128 1.958 1.895 4.775 4.72 4.366 2.681-.388 3.065-3.488 3.437-5.428 1.6-8.357 7.278-13.01 13.876-17.941 15.218-11.378 26.635-24.615 25.062-45.786-.77-10.37-.115-21.306 2.423-32.02 5.322-22.47 17.723-42.001 25.99-63.228 11.261-28.912 23.628-57.917 24.841-88.83 1.452-36.983 14.918-69.556 30.338-102.092 6.117-12.905 15.232-24.473 18.508-38.631 7.472-32.298 14.397-64.723 22.413-96.89 2.972-11.93 5.273-24.576 15.053-34.174-3.128 27.54-1.743 55.026-1.68 82.865m115.708-360.82c2.233-6.444 3.626-13.845 13.57-13.265 2.553.149 3.24-1.824 3.241-3.98.004-2.92.523-6.252-3.022-7.596-4.54-1.721-8.507.043-12.01 2.886-5.556 4.506-9.759 10.89-17.74 11.992-8.885 1.226-16.31 5.549-23.212 10.765-15.85 11.98-17.96 35.028-4.436 49.927 6.961 7.667 9.418 15.704 3.713 24.935-2.038 3.297-3.096 7.227-1.957 10.34 5.197 14.214-1.048 28.727 1.398 42.65 4.355 24.794-3.768 43.687-24.055 58.407-4.388 3.184-4.013 6.554-.069 10.53a1666 1666 0 0 1 37.704 39.26c4.282 4.608 9.227 7.163 15.33 8.444 21.166 4.443 42.483 8.379 63.376 13.839 28.51 7.452 58.143 11.662 84.402 26.102 3.13 1.72 5.148.609 6.003-2.577.755-2.82 1.41-5.684 1.85-8.567 3.221-21.16 4.796-42.758 25.468-56.784 7.814-5.303 14.143-12.688 22.448-20.318-.944 6.365-1.829 10.5-2.1 14.676-.274 4.215.026 8.468.136 12.703.373 14.338 8.156 21.363 22.591 18.416 14.912-3.044 30.036-5.417 44.501-10.508 22.207-7.814 44.375-15.812 66.901-22.662 18.65-5.67 35.438-16.86 55.686-17.784 3.232-.148 4.111-3.211 4.746-5.686 7.751-30.202 15.401-60.43 23.271-91.411-4.217 2.058-5.77 5.012-6.426 8.084-2.142 10.027-6.849 19.135-10.915 28.386-4.219 9.596-10.236 17.897-21.568 21.645-35.918 11.88-72.915 19.486-109.86 27.344-6.56 1.396-13.233 2.832-19.895 1.199-18.475-4.526-37.29-3.844-55.97-3.046-28.36 1.21-56.932 2.187-82.516 16.886-2.433 1.398-5.782 1.666-8.73 1.769-24.784.87-49.568 1.879-74.36 2.243-18.504.273-18.307-.1-16.14-17.633 1.49-12.056 5.042-22.17 16.834-28.958 6.383-3.674 15.142-6.951 17.433-14.085 4.994-15.547 8.03-31.692 11.964-48-4.91-.141-6.075 3.352-8.636 4.587-4.647 2.242-9.792 13.084-13.909-.66-.658-2.196-3.58-.834-5.389-.378-10.333 2.61-19.853-.214-29.205-4.058-5.789-2.38-11.329-6.283-11.2-12.424.12-5.758 6.055-8.758 11.376-11.048 16.073-6.915 31.542-5.973 46.9 2.473 13.211 7.265 13.53 6.997 21.794-5.271 1.803-2.678 3.354-5.705 4.186-8.786 3.875-14.342 2.311-29.19 3.925-43.756.331-2.992-1.495-4.767-3.96-6.231-9.108-5.405-17.782-11.422-28.013-15.016-6.778-2.381-8.89-.747-7.579 5.719.562 2.774 1.137 5.31-1.882 6.795-3.479 1.71-5.714-.912-7.735-2.913-9.269-9.177-9.217-9.227-18.258.399m-120.397 405.88c-3.713 1.07-4.77 3.567-6.434 5.587-8.339 10.119-11.908 22.516-17.399 33.998-11.444 23.933-19.448 49.335-32.444 72.574-2.505 4.48-3.57 8.697-4.04 13.704-1.633 17.39.907 35.014-6.307 52.106-12.862 30.472-28.363 59.787-40.83 90.386-5.619 13.789-13.578 26.717-14.982 42.153-2.867 31.518-2.205 63.29-7.45 94.643-.896 5.353-7.08 11.603-2.985 15.274 3.57 3.2 11.381 2.884 17.211 2.513 14.443-.92 29.941 2.629 42.851-5.735 5.821-3.771 9.797-3.03 14.28.02 3.67 2.498 9.181 5.017 7.577 10.36-1.517 5.052-6.988 6.604-12.067 7.505-5.587.993-11.279 2.922-16.879 1.46-8.423-2.195-16.612-1.025-24.879.266-9.184 1.436-13.12 6.552-12.062 15.699.375 3.236.848 6.48 1.573 9.655 8.546 37.433 17.793 74.729 25.435 112.335 3.295 16.22 10.361 28.168 25.697 35.418 4.48 2.117 8.402 5.323 12.734 7.769 2.747 1.552 5.073 5.343 8.731 3.5 3.677-1.853 1.993-5.924 1.906-8.898-.98-33.32-.576-66.646 2.212-99.834 4.07-48.433 5.012-97.025 9.086-145.47a1252 1252 0 0 1 11.953-96.884c5.961-36.515 16.118-72.195 27.697-107.42 9.69-29.475 15.071-59.36 8.885-90.201-4.9-24.431-6.225-49.805-19.07-72.482m94.505 253.655c-8.154-6.507-14.724-13.688-19.845-22.206-10.967-18.242-21.887-36.537-33.733-54.234-3.307-4.941-6.342-15.797-11.306-13.218-5.484 2.849-.25 12.44 1.77 18.733 7.733 24.077 24.033 43.476 37.847 64.187 7.692 11.534 16.311 22.48 25.768 35.409-8.6-1.422-12.05-5.867-16.024-9.557-23.905-22.197-41.005-49.694-61.202-74.78-1.227-1.524-1.829-3.821-4.082-3.85-3.43-.044-2.81 3.123-3.409 5.084-3.807 12.47-7.177 25.075-11.317 37.437-2.79 8.335-1.966 15.319 2.871 23.005 6.836 10.86 13.678 21.705 21.754 31.673 22.834 28.184 37.927 35.053 80.721 19.818 8.681-3.091 16.117-8.387 24.848-11.593-12.222 13.195-24.818 25.928-40.597 35.032-23.426 13.517-45.016 10.037-65.866-8.326-10.31-9.081-17.56-20.48-27.078-30.071-1.513-1.525-2.027-4.587-5.088-3.48-2.316.837-1.706 3.273-1.883 5.146-1.35 14.298-3.393 28.575-3.883 42.902-2.286 66.942-3.983 133.9-2.24 200.889.054 2.076-1.279 5.037 1.7 6.007 2.824.92 3.763-2.145 5.356-3.602 15.202-13.91 27.04-30.504 39.411-46.71 48.238-63.186 96.1-126.632 141.67-191.695 13.717-19.583 27.853-38.887 41.797-58.318l2.424 1.418c-49.669 94.303-107.936 183.813-163.495 274.953 44.11-38.985 72.992-89.14 106.057-136.137 33.334-47.381 64.142-96.36 94.102-145.917-2.833 14.416-8.076 27.76-14.424 40.917-36.763 76.193-76.514 150.886-117.18 225.147-10.857 19.825-24.133 38.54-31.644 59.979-10.489 29.94-20.179 60.148-30.497 90.148-7.82 22.74-7.777 22.317 13.016 35.684 7.426 4.775 10.798 3.87 15.438-3.303 22.953-35.483 46.441-70.637 69.758-105.895.57-.861 1-1.91 1.631-2.738.934-1.224 2.874-.03 2.143 1.32-18.233 33.68-36.454 67.25-54.58 100.87-12.252 22.72-11.417 25.127 11.584 38.117 4.146 2.342 6.965 2.914 9.675-2.052 9.095-16.665 19.7-32.635 27.671-49.78 33.306-71.63 58.865-146.124 84.275-220.652 5.416-15.884 10.821-31.773 16.227-47.662.492-1.445 2.715-.912 2.463.59-15.713 94.008-38.72 186.373-64.157 278.788 25.402-6.256 88.816-37.88 105.01-51.882 2.24-1.94 2.85-4.117 2.944-6.872.51-15.018 1.583-30.03 1.688-45.05.533-77.127.91-154.281-2.317-231.345-1.19-28.405.948-57.291-9.378-85.096-8.342-22.461-9.67-47.306-22.267-68.345-8.796-14.691-14.856-31.087-27.659-43.452-3.228-3.118-8.154-3.892-12.275-2.026-11.773 5.328-24.039 9.603-38.207 15.124 3.441-7.29 5.774-12.28 8.147-17.25 4.971-10.412 4.987-10.701-6.132-12.193-20.969-2.814-41.285-7.965-61.063-15.258-3.455-1.274-6.645-2.597-9.218-5.485-9.427-10.582-19.19-20.88-28.628-31.455-3.906-4.377-8.2-8.473-9.576-14.658-2.956-13.286-7.472-26.182-9.935-39.633-3-16.384-5.838-32.687-4.487-50.712 17.681 28.14 34.82 54.953 51.451 82.063 9.561 15.586 20.956 26.167 41.326 19.263 1.823-.618 4.001-.17 5.996-.38 16.266-1.697 32.537-3.36 48.78-5.25 2.093-.243 5.422.346 6.007-2.425.733-3.47-3.022-3.742-5.157-4.891-14.602-7.86-30.166-13.915-43.79-23.631-18.905-13.48-37.733-27.115-54.893-42.598-15.775-14.232-30.187-29.901-47.23-46.973 30.848 19.996 59.26 38.57 87.918 56.774 3.351 2.128 8.036 8.375 11.21 3.987 2.905-4.02-4.534-6.842-7.664-9.711-14.563-13.346-29.485-26.32-44.396-39.53 2.946-2.155 4.413-.076 5.996.764 28.148 14.933 56.242 29.962 84.404 44.868 2.45 1.296 5.685 4.239 7.974 1 1.745-2.468-1.807-4.458-3.509-6.317-18.494-20.202-37.049-40.35-55.547-60.548-12.53-13.683-12.396-15.823 5.925-20.526 21.774-5.59 33.788-6.974 45.365 16.156 2.191 4.377 5.118 8.399 7.612 12.637 2.448 4.159 4.24 11.989 7.72 11.488 5.524-.795 3.724-8.511 5.504-13.12.152-.392.828-.59 1.675-1.153 6.763 24.105 12.13 48.328 18.233 72.357 7.551-20.318 9.873-41.023 13.491-61.468.747-4.222 3.461-10.392-.538-12.787-4.609-2.76-4.342 6.324-8.129 6.482 0-16.483-.26-32.953.15-49.407.132-5.265-.898-8.642-6.248-10.594-14.056-5.131-27.614-11.64-42.287-15.046-35.76-8.3-71.566-16.411-107.358-24.578-8.867-2.024-16.367-5.197-22.75-12.638-12.832-14.96-24.714-30.817-39.566-44.062-2.05-1.827-3.477-6.124-6.845-4.436-3.957 1.984-1.215 5.805-.484 8.762 5.485 22.202 13.638 43.608 20.57 65.38 8.35 26.225 1.348 49.392-16.25 69.924-8.91 10.394-13.438 20.37-7.42 34.652 18.234 43.269 41.438 84.086 62.948 125.745 1.493 2.89 5.317 5.382 2.317 10.33-19.916-10.126-31.65-27.298-43.08-44.878-11.465-17.638-18.13-37.727-30.482-55.124 19.251 84.379 52.583 164.538 75.957 247.55m157.625-141.085c-.376 16.772 4.014 27.53 11.831 36.972 22.918 27.684 33.756 60.527 42.34 94.28 11.866 46.668 17.407 94.376 23.99 141.902 8.74 63.1 17.258 126.228 26.1 189.313 2.771 19.763 3.161 19.802 21.314 9.35 49.676-28.603 99.215-57.436 149.057-85.762 7.08-4.022 9.438-8.46 9.42-16.29-.219-95.1-.122-190.203-.013-285.304.093-82.355.315-164.71.457-247.064.021-12.807-.442-13.646-13.152-14.038-18.05-.556-38.008-4.44-53.769-13.226-10.679-5.953-12.058-12.72-3.804-21.394 1.388-1.458 2.57-2.753 3.13-4.783 7.862-28.446 16.854-56.6 22.653-85.575 1.192-5.951-.766-6.205-5.583-4.502-14.466 5.116-25.918 10.29-40.51 15.048-22.524 7.34-44.39 17.209-67.799 21.152-16.054 2.705-31.298 6.644-45.823 13.476-18.596 8.747-34.377 20.916-41.954 40.144-8.567 21.747-9.326 45.282-13.64 67.99-5.538 29.15-9.154 58.646-13.873 87.95-3.48 21.608-7.4 43.148-10.372 60.36m369.342-509.644c19.363-2.496 36.898-8.512 54.635-13.74 5.106-1.505 10.194-3.078 15.346-4.41 8.552-2.21 11.678-.05 10.293 8.55-1.735 10.779-.74 22.225-7.22 32.047-1.47 2.227.292 4.38 1.075 6.476 21.677 57.957 43.46 115.877 64.92 173.91 2.865 7.745 6.637 14.007 14.296 17.97 6.504 3.365 11.368 8.07 10.407 16.259-.997 8.506-7.2 12.045-14.37 14.643-25.966 9.408-52.852 14.956-80.482 15.574-25.259.566-50.806 2.755-76.902-6.538 3.248 9.389 3.695 17.634 12.128 23.585 10.021 7.07 9.451 22.496-.302 31.053-15.034 13.188-28.38 17.724-48.176 21.306-13.436 2.432-12.468 5.065-12.468 19.245 2.654 26.664 4.156 52.67 4.156 81.03 2.078 49.633 1.834 91.809 2.142 137.852.73 109.17.565 218.345 1 327.516.03 7.445-2.378 11.545-9.209 15.36-123.143 68.797-246.105 137.9-369.094 206.96-19.43 10.91-38.9 21.763-58.134 32.997-6.234 3.64-11.216 3.5-17.376-.396-77.894-49.261-155.944-98.288-233.922-147.424-57.27-36.087-114.44-72.33-171.824-108.244-5.25-3.286-7.067-6.847-7.045-12.683.357-92.498.551-184.997.758-277.495.076-33.985 7.036-67.267 10.773-100.878 3.453-31.063 7.096-62.108 10.793-93.145 1.218-10.237 2.64-20.45 4.963-30.604.32-1.396 2.436-1.162 2.438.268.01 13.789.033 27.577-.013 41.365-.292 86.278-.579 172.554-.93 258.83-.249 60.778-.472 121.555-1.057 182.33-.075 7.704 1.873 12.78 9.107 16.624 34.898 18.536 69.603 37.42 104.334 56.255 5.031 2.727 6.355.286 5.425-3.827-4.942-21.86-10.2-43.651-15.253-65.487-1.042-4.503-5.364-7.5-10.077-7.053-15.605 1.478-31.52 1.092-45.675 9.54-7.036 4.203-14.468.578-21.505-.727-3.284-.61-1.785-14.956.655-20.076 7.238-15.188 21.28-16.99 35.723-18.091 8.76-.667 16.946-3.162 25.26-5.695 5.834-1.778 6.161-3.727 2.853-8.103-10.323-13.654-18.916-28.355-26.643-43.518-6.107-11.984-12.06-24.064-7.397-38.158 1.043-3.153-.182-6.366-1.352-9.525-5.167-13.946-5.859-28.575-6.563-43.19-.603-12.5 3.757-22.792 13.3-31.378 7.473-6.725 17.323-7.09 24.33.284 4.203 4.423 8.056 9.164 12.632 14.409 5.911-10.172 5.824-21.13 7.56-31.443 5.618-33.384 10.17-67.014 18.826-99.768 7.543-28.541 16.58-56.618 32.341-82.48 10.196-16.73 13.601-36.55 17.481-55.63 9.653-47.46 18.432-95.091 28.15-142.54 2.46-12.013 6.35-23.902 11.055-35.27a35.94 35.94 0 0 1 15.46-17.52c20.744-11.814 41.388-23.744 63.86-32.385 4.803-1.846 8.778-5.846 12.977-9.05 5.136-3.92 5.323-8.103 1.47-13.461-9.572-13.307-19.908-26.113-27.595-40.688-3.486-6.61-4.395-13.775-1.954-19.871 6.388-15.956 11.9-32.482 22.906-46.304 2.98-3.743 4.832-7.691 4.521-12.576-1.88-29.578 2.22-59.011 2.567-88.555.125-10.68 9.854-18.22 17.11-25.534 12.047-12.148 25.735-22.587 40.07-32.223 6.141-4.128 12.656-3.956 19.17-3.556 8.788.539 17.143.65 25.36-3.44 9.607-4.781 18.041-.94 26 4.765 17.256 12.366 35.021 24.203 41.71 45.764 1.584 5.105 1.893 10.146 1.677 15.445-.677 16.647-.915 33.31-1.426 49.963-.108 3.509 1.17 6 3.67 8.616 5.907 6.18 11.41 12.744 16.848 19.33 4.331 5.246 7.295 11.384 6 18.145-3.963 20.677 2.746 35.887 22.248 45.824 5.204 2.652 9.376 7.32 13.824 11.273 13.274 11.798 19.63 26.16 15.816 43.738-1.913 8.815 1.854 10.002 9.948 9.977 22.015-.07 43.937-.441 66.086 1.993 15.188 1.668 31.332-4.56 47-7.503 17.671-3.32 34.523-9.498 51.762-14.33 10.995-3.081 19.098-9.18 24.927-18.286 8.653-13.517 20.202-26.41 24.34-41.21 3.985-14.265 13.72-24.575 18.687-37.707 12.095-31.972 24.071-64.026 41.925-93.59 3.781-6.258 1.296-13.496.84-20.216-1.295-18.992 17.453-49.471 35.746-55.81 11.752-4.071 22.785 1.197 33.435 5.49 8.403 3.389 15.517 9.06 22.39 14.755 8.057 6.673 9.733 22.355 4.104 34.57-6.886 14.947-13.317 30.335-32.852 33.729-1.538.267-3.462 2.456-3.898 4.084-3.68 13.76-10.224 26.714-12.895 41.632"/></g></svg>