<svg xmlns="http://www.w3.org/2000/svg" width="2048" height="1920" viewBox="0 0 2048 1920"><defs><clipPath id="clip_1"><path d="M0 0h2048v1920H0Z"/></clipPath></defs><g clip-path="url(#clip_1)"><path fill="#030505" d="M1684.648 1027.254c-2.716-1.726-5.671-3.331-8.865-3.574-3.344-.272-6.597.97-9.582 2.514a49.5 49.5 0 0 0-13.313 9.964c-.388.394-1.105 1.545-1.732 1.363-.746-.212-.447-1.605-.418-2.15.06-1.666.209-3.332.448-4.967.418-3.301 1.164-6.542 2.149-9.722a58.4 58.4 0 0 1 8.985-17.626 56 56 0 0 1 7.313-8.026c1.135-1 2.538-2.03 4-1.696.896.242 1.612.939 2.239 1.636 8.478 8.994 16.567 18.443 23.343 28.83 4.776 7.33 8.985 15.568 8.716 24.32-6.657-8.085-14.447-15.263-23.283-20.866m-85.73-169.66c-1.82.03-3.432-1.212-4.865-2.363a182 182 0 0 0-9.79-7.42c-5.702-3.997-11.702-7.753-18.358-9.751-10.358-3.12-21.97-1.696-31.283 3.906-1.284.757-2.507 1.575-3.91 1.969-3.911 1.12-5.105-1.726-4.687-4.755.06-.606.209-1.211.418-1.817a58.8 58.8 0 0 1 8.716-16.264c3.702-4.845 8.478-9.297 14.418-10.448 6.298-1.211 12.656 1.484 18.238 4.694 13.97 8.086 25.82 20.019 33.582 34.284.775 1.423 1.522 2.937 1.313 4.543-.24 1.847-1.94 3.392-3.791 3.422m-35.014 169.176c-1.343 1.968-5.761-3.483-6.776-4.422-3.642-3.271-8.21-5.845-12.358-8.39-4.537-2.725-9.224-5.21-14.09-7.298-8.447-3.635-17.641-6.24-26.894-5.785-4.597.243-9.134 1.333-13.283 3.27-2.15 1.03-4.18 2.242-6.06 3.696-1.731 1.333-4.477 2.938-5.253-.242-.568-2.423.417-5.361 1.134-7.602.537-1.726 1.522-3.392 2.388-4.937a73.5 73.5 0 0 1 7.85-11.57c4.239-5.087 9.194-9.6 14.687-13.264a75 75 0 0 1 4.208-2.574c1.85-1.03 3.224-2.09 4.777-2.03.805.03 1.67.394 2.686 1.212 10.179 8.329 20.686 16.385 29.7 26.016 6.03 6.39 11.94 13.567 15.254 21.836.836 2.119 1.492 4.33 1.82 6.602.21 1.423 1.105 4.179.21 5.482m-117.967-199.613c-.747.545-2.358-.243-3.612-.788-3.791-1.605-7.672-2.938-11.671-3.937-8.985-2.271-18.358-2.907-27.582-2-14.238 1.425-28.447 6.573-39.85 15.477-2.597 2.029-3.074-2.786-3.104-4.361-.24-10.54 6.448-19.141 13.79-25.864a101 101 0 0 1 16.448-12.356c2.597-1.545 5.283-3.03 8.239-3.635 4.477-.94 9.134.152 13.402 1.787 11.463 4.3 21.433 12.478 28.238 22.745 1.463 2.21 2.926 4.42 4.179 6.723.657 1.242 1.493 2.605 1.79 3.998.3 1.272.12 1.938-.267 2.21m-75.85 185.288c-3.7 3.635-7.163.969-10.417-1.665a121 121 0 0 0-8.985-6.603c-7.014-4.664-15.671-9.782-24.357-9.964-4.03-.09-8.03.818-11.821 2.12-9.611 3.332-18.596 8.753-26.477 15.204-1.134.908-2.925 3.089-3.82 1.03-.39-.91.119-2.423.388-3.302.567-2.09 1.522-4.058 2.417-6.057 2-4.543 4.687-8.782 7.552-12.841 6.567-9.358 14.418-17.656 22.06-26.106 2.925-3.21 5.73-7.3 9.94-8.844 1.64-.605 3.462-.696 5.432.03 11.045 3.998 19.642 15.81 26.447 24.926 4.299 5.784 8.329 11.75 12.149 17.868 2.448 3.998 3.135 10.6-.507 14.204m-89.85-177.595c-.596 1.393-2.297 1.999-3.79 1.757-1.492-.212-2.776-1.06-4.09-1.848-10.446-6.178-23.103-8.025-35.132-6.481-13.134 1.666-25.015 7.208-36.268 13.992-1.314.788-4.597 2.635-5.881 1.03-1.014-1.212.448-3.513.985-4.664 6.597-14.144 18.388-24.834 30.955-33.526 4.179-2.908 10.716-9.207 15.82-6.088 13.522 8.299 25.67 18.626 35.76 30.952.598.727 1.195 1.575 1.553 2.453.328.788.418 1.605.089 2.423m-104.952 192.617a7.8 7.8 0 0 1-1.731-1.06c-14.985-12.144-35.97-5.542-49.044 6.239-2.537 2.27-4.567 5.239-7.224 7.299-2.477 1.908-5.641 2.18-7.522-.666-2.358-3.574.329-7.935 1.612-11.358 3.164-8.268 6.955-16.263 11.194-24.016 3.343-6.087 7.164-12.175 11.582-17.596 2.298-2.786 4.746-5.421 7.402-7.844 3.344-3.03 5.79-6.057 10.03-2.877 15.79 11.78 25.91 28.377 29.88 47.76.985 4.755-2.896 5.633-6.18 4.119m-103.49-150.368c-.715.545-2.566 2.483-3.491 2.12-1.075-.394-.36-2.726-.21-3.544.538-2.786 1.523-5.512 2.627-8.116 6.299-15.052 17.045-28.408 31.164-36.252 2.567-1.424 5.343-2.696 8.268-2.726 3.105-.06 6.06 1.333 8.716 2.998 8.448 5.36 14.478 13.902 18.925 22.927.209.424.418.878.538 1.332.209.727.209 1.484-.24 2.06-.417.545-1.074.757-1.731.878-4.984.969-9.82-2-14.775-3.21-8.24-2.03-16.895.938-24.477 4.815-9.015 4.573-17.343 10.449-25.313 16.718m-53.73 161.907c-.06 1.06.209 7.299-.567 7.814-.776.575-.955.696-1.761 1.24-1.523-.362-3.314-.18-4.717.122-6.537 1.303-12.06 5.755-16.805 10.267-4.925 4.695-8.657 10.509-13.671 15.022-.3-.242-.24-.515-.33-.91-1.133-4.39.24-10.66 1.195-15.02 1.075-4.907 2.806-9.631 4.985-14.144 3.97-8.207 9.403-16.414 16.03-22.684 6.596-6.208 13.82 4.119 15.074 9.934.597 2.726.657 5.573.567 8.359m-150.623-48.306s-10.12 32.315-5.463 58.27q.18.818 0 1.635c-.21 1.333-.806 3.907-2.12 6.512-1.462 2.907-5.432 3.3-7.551.848-6.507-7.451-20.626-22.29-33.163-26.743-1.493-.545-2.747-1.696-3.135-3.24-.596-2.272-.656-5.361 2.926-6.027 2.656-.515 4.149-3.422 3.373-6.057-2.328-7.844-8.09-21.564-21.701-31.982-2.866-2.211-2.18-6.784 1.194-8.116 4.507-1.817 13.492-2.605 31.253.666 0 0 38.835 5.997 34.387 14.234m-109.52 57.089c-2.596 7.57-17.76 53.605-19.104 108.725-.03 1.666-2.268 2.15-2.895.606-5.731-13.538-21.791-37.766-61.79-30.376-.686.15-1.402-.213-1.671-.848-1.134-2.575-4.537-9.056-11.522-12.387-1.164-.576-1.254-2.151-.15-2.787 9.373-5.21 37.88-22.714 41.82-44.156.06-.424.269-.788.627-1 3.672-2.332 24.955-16.838 22.298-40.491-.03-.485.149-1 .537-1.333 2.06-1.757 8.776-7.723 12.239-13.63.746-1.271 2.597-.877 2.806.547 1.403 9.6 5.433 27.62 16.238 35.403.538.394.806 1.09.567 1.727m-41.64 262.546c-1.105 1.363-3.164 1.302-4.3-.03-3.014-3.544-9.043-9.994-14.983-12.57-1.015-.453-1.672-1.513-1.672-2.634v-13.477a2.91 2.91 0 0 0-2.418-2.877l-.477-.091a2.91 2.91 0 0 1-2.418-2.877v-20.291c0-.212.03-.394.059-.606.388-1.817 2.627-11.51 6.866-18.626 1.373-2.271 4.806-1.605 5.313 1 1.91 10.236 7.015 30.71 18.836 45.459.328.424.567.908.626 1.453.359 3.604 1.373 17.839-5.432 26.167m-60 304.523c-4.745.423-8.357 3.21-10.864 6.026-2.657 3.029-4.12 6.996-4.15 11.085-.477 71.565 4.03 113.087 5.672 125.686a14.3 14.3 0 0 1-1.164 7.722c-2.985 6.48-5.463 16.02-6.477 20.23a2.756 2.756 0 0 1-2.687 2.15h-1.642c-1.433 0-2.656-1.12-2.746-2.543-.567-9.6-4.12-16.96-6.328-20.685a12.63 12.63 0 0 1-1.731-6.723l2.388-132.106c.209-6.088-6.538-7.602-10.597-7.965-1.672-.152-2.896-1.666-2.776-3.362l8.298-122.142c.209-2.756 2.448-4.906 5.194-4.906h20.089c2.746 0 5.015 2.15 5.164 4.936l7.194 119.174c.089 1.726-1.134 3.27-2.836 3.423m-46.267-505.53c-13.94 4.786-22.626 14.478-25.015 17.416a2.33 2.33 0 0 1-1.82.847h-10.627c-1.314 0-2.388-1.09-2.388-2.422v-34.102c0-1.938 2.149-3.09 3.76-1.968 13.434 9.267 36.09 17.232 36.09 17.232Zm1247.699-97.155s-26.775-157.365-71.64-220.45c0 0-2.358-41.551-36.208-70.293 0 0-18-12.97-25.074-46.526 0 0 80.177 3.4 102.206 1.794 0 0-21.661-14.794-105.897-21.185 0 0 3.83-4.957-12.676-28.913l79.23-8.201-80.157-7.8s1.226-7.564-4.385-15.65c0 0 62.395-2.324 109.617-13.408 0 0-53.166-8.1-114.3-2.103 0 0-4.085-19.763-17.368-31.726 0 0 2.955-36.252-35.432-86.587 0 0-3.821-29.044-67.88-59.905 0 0-6.207-38.04.598-55.998 0 0 19.463-7.783 19.463-26.076 0 0-3.045-154.851-41.611-223.145 0 0-43.313 73.504-61.82 183.713 0 0-8.238 20.776 6.896 41.946 0 0-34.835-7.602-71.252 5.602 0 0-24.776 5.967-42.895 4.392 0 0 4.537-97.066-5.91-122.808 0 0-3.134-5.815-10.03-4.604 0 0-7.283 3.392-6.507 10.57 0 0 11.573 81.83-.06 112.027 0 0-49.133-26.137-86.923-16.173 0 0-34.447 24.168-45.67 27.772 0 0-14.15 6.572-16.12 17.172 0 0-6.895 3.18-6.895-8.601V332.44s20.089-13.386 23.612-39.341c3.73-24.773-21.851-113.207-69.461-194.1 0 0-48.238 72.503-48.238 221.448 0 0 2.269 22.684 29.432 25.38 0 0 2.657 27.832 1.194 35.646 0 0-1.791 8.48-7.701 12.962 0 0-105.971 46.64-132.328 189.618 0 0-53.04-2.21-84.95 4.392 0 0 10.59 9.559 82.319 9.559 0 0 .449 21.26-8.416 27.56l-27.546 5.099 19.509 12.185s-8.76 34.248-12.313 36.367c0 0-60.33 9.566-92.21 25.133l5.315 2.696s63.506-11.85 80.938-11.85c0 0-9.21 49.01-11.567 53.038 0 0-17.552 14.083-23.611 38.948 0 0-11.97 30.406-15.373 34.434h-4.27s-55.042-39.098-108.981-45.458c0 0-36.417-29.256-102.535-21.17 0 0-45.76 4.785-87.102-4.815 0 0-36.596-5.09-82.953 10.206 0 0-86.804-4.816-126.952 18.262 0 0-202.711 20.655-244.83 196.796 0 0 85.43-23.956 167.31 22.35 0 0 68.475-22.35 121.996-9.963 0 0-27.641 31.346-14.656 39.129 0 0-3.821 31.74 11.522 39.826 0 0 1.463 15.294 15.343 11.387 0 0 2.179-8.298 11.313-2.09 0 0 19.88-11.296 22.447-34.858 0 0 11.612-3 12.388-18.656l-.09-28.166 6-.091s6.896 22.866 18.806 33.133c0 0-5.91 33.799 25.67 40.098l.299 57.21s-19.492-3.453-28.03 21.109c0 0-9.61 43.278-23.491 63.055 0 0-5.313 24.107 24.507 24.864l.448 8.238s-17.403 18.868-5.91 43.429c0 0 11.373 16.627 19.492 17.536 0 0 15.94-9.147 18.298-17.536l4.298 4.483s-40 41.037-58.894 91.977c0 0-13.015 44.005-25.402 63.479 0 0 4.268 18.293 34.685 17.838 0 0 28.925-1.514 42.955 13.326l.298 49.123s-16.537 41.34-3.85 90.766c0 0-20.657 0-19.463 22.745 0 0 .776 69.112 4.717 88.252 0 0 5.522 26.773-4.717 51.123 0 0-4.447 31.375 25.67 37.342 0 0 34.538 6.602 62.895-.576 0 0 9.134-14.688 16.806.576 0 0 54.625 19.17 81.49-7.784 0 0 2.955-28.438-.597-47.61 0 0-6.776-19.775 1.194-38.643 0 0 4.716-74.594 1.463-88.374 0 0 0-11.387-15.045-11.963 0 0-2.955-9.6 1.194-16.778 0 0 1.76-64.993 0-80.59 0 0 10.896-18.262 16.806-51.516 0 0 38.387-5.391 48.118-28.135 0 0-23.014-34.465-26.566-53.333v-18.263s5.014-34.162 2.955-70.081c0 0 22.447-12.901 26.865-27.862 0 0-2.06-10.782-11.791-17.082 0 0-.896-41.34-5.91-64.387 0 0-6.21-127.321 35.999-137.194 0 0 25.999-3.604 32.178 22.775 0 0-.687 35.949-1.373 47.003 0 0 3.164 9.904 14.388 9.904l.567 19.776s-12.388 38.342-10.328 83.558c0 0-2.358 67.386 8.865 94.34 0 0 .896 38.342 12.687 76.683 0 0-.3 23.653-4.717 36.858 0 0-2.358 12.569 6.209 15.87l10.627-19.474s7.372-2.695 6.179 11.69c0 0-10.33 22.169-20.657 35.344 0 0-2.656 11.962 8.269 11.387 0 0 25.55-24.29 29.969-38.07 0 0-.448-4.027 0 0 0 0-11.164 224.357 137.22 322.604 0 0-38.178 1.605-52.356 22.775 0 0 33.46 1.18 39.372-2.393v10.388s14.954 3.968 42.118-6.39c0 0 16.119-2 21.253-1.212 0 0 4.418 6.785 2.358 11.57 0 0 18.597 1.514 58.447-14.66 0 0 160.025 32.649 514.673 4.302 0 0 34.745-1 71.938 6.48 0 0 14.746 3.605 21.552 6.573 0 0 13.284 1.212 1.76-14.658 0 0 17.135 1.484 28.359 6.269 0 0 4.716-6.875-3.254-11.66 0 0-22.835-11.297-51.461-16.385 0 0 70.058-44.732 75.968-192.102 0 0 18.895-60.207 13.283-94.945 0 0 1.164-9.298 11.522-1.484 0 0 10.896-.303-1.492-19.777 0 0-4.418-15.294 8.865-8.39 0 0 20.358 22.776 28.925 19.475 0 0 9.164-5.391-17.134-35.041 0 0-6.18-10.781 3.254-8.692 0 0 15.074 18.566 23.91 16.476 0 0 7.402-9.298-21.851-39.25 0 0 80.207-169.631 7.79-411.643"/></g></svg>