<svg xmlns="http://www.w3.org/2000/svg" xmlns:xlink="http://www.w3.org/1999/xlink" xmlns:inkscape="http://www.inkscape.org/namespaces/inkscape" version="1.1" width="2048" height="1920" viewBox="0 0 2048 1920">
<defs>
<clipPath id="clip_1">
<path transform="matrix(1,0,0,-1,0,1920)" d="M0 1920H2048V0H0Z"/>
</clipPath>
</defs>
<g inkscape:groupmode="layer" inkscape:label="Layer 1">
<g clip-path="url(#clip_1)">
<path transform="matrix(1,0,0,-1,218.213,837.31057)" d="M0 0C-5.514-.675-9.143-3.4-9.4-9.257-9.66-15.197-6.104-18.561-.663-18.962 5.533-19.418 9.271-15.38 9.319-9.529 9.364-4.064 5.646-.746 0 0M1615.548 .236C1609.949-.882 1605.945-3.855 1606.281-10.105 1606.586-15.77 1610.102-19.214 1615.853-19.072 1622.011-18.919 1625.462-15.105 1625.275-9.045 1625.097-3.292 1621.209-.51 1615.548 .236M875.896-545.204C884.05-546.26 891.072-543.369 894.466-533.856 897.535-525.254 895.804-519.617 886.728-512.239 880.036-506.799 875.391-500.259 872.72-492.002 868.817-479.935 859.74-472.465 848.562-467.613 839.826-463.82 835.808-467.072 834.898-476.438 833.694-488.821 838.936-497.954 847.367-506.271 854.12-512.931 860.252-519.858 859.648-530.814 859.008-542.415 862.536-545.131 875.896-545.204M1056.401-904.397C1041.989-903.855 1031.306-904.093 1020.965-906.898 1015.123-908.484 1009.493-911.056 1008.014-918.111 1004.067-936.945 1012.735-947.93 1032.028-947.682 1060.72-947.314 1083.693-933.844 1104.265-915.219 1105.814-913.816 1107.35-912.115 1106.534-910.027 1105.268-906.787 1101.96-906.894 1099.179-906.729 1083.679-905.811 1068.17-905.027 1056.401-904.397M501.81-754.971C502.67-747.193 498.626-745.328 492.335-746.73 488.709-747.538 485.097-748.744 481.726-750.303 466.494-757.349 451.773-765.643 439.607-777.09 428.592-787.453 417.069-794.95 402.005-798.204 389.139-800.983 385.126-813.104 391.52-824.736 395.965-832.824 402.971-838.369 410.667-843.056 426.942-852.968 437.292-847.918 439.039-829.099 439.473-824.433 440.361-820.156 442.425-815.887 452.294-795.479 468.09-781.419 488.593-772.44 496.588-768.939 502.775-764.516 501.81-754.971M937.689-670.782C930.874-671.801 923.974-672.439 917.264-673.93 908.14-675.956 898.617-678.718 896.011-689.092 893.476-699.184 901.526-704.935 908.088-710.276 924.39-723.546 940.582-736.597 950.727-755.811 954.681-763.299 961.741-768.622 971.503-766.229 981.444-763.792 989.555-754.154 990.981-744.368 992.857-731.499 985.186-723.233 977.326-715.143 967.83-705.369 958.982-695.267 954.972-681.853 952.392-673.219 946.357-670.14 937.689-670.782M352.022-783.856C371.656-784.038 389.804-779.657 407.823-774.553 418.296-771.586 424.239-764.41 426.524-754.003 429.081-742.359 423.178-735.73 411.462-738.097 384.314-743.581 358.27-739.714 332.774-730.004 328.122-728.232 323.421-727.281 318.444-727.75 309.641-728.58 304.675-733.906 305.574-742.622 306.248-749.167 308.793-755.591 308.925-762.101 309.092-770.339 313.365-774.836 319.958-778.029 330.311-783.042 341.379-784.362 352.022-783.856M466.235-850.465C465.951-859.55 467.156-868.251 472.138-876.119 484.959-896.363 521.229-903.387 540.794-889.356 544.375-886.788 549.316-883.628 548.265-879.157 545.705-868.267 544.214-846.296 532.21-839.422 520.55-832.745 511.984-823.909 506.266-811.66 500.99-800.358 493.86-799.169 484.531-807.418 471.665-818.796 466.493-833.646 466.235-850.465M1549.856-202.011C1531.695-203.133 1511.586-210.414 1491.407-217.143 1476.934-221.969 1462.644-227.466 1449.791-235.947 1444.423-239.489 1441.427-243.819 1445.85-250.335 1450.536-257.239 1451.526-265.306 1452.265-273.361 1453.342-285.098 1455.781-286.635 1466.113-280.887 1484.867-270.454 1504.868-263.418 1525.368-257.311 1547.256-250.791 1566.273-238.888 1582.588-222.944 1590.053-215.65 1588.596-209.983 1578.736-206.297 1570.57-203.245 1561.991-202.201 1549.856-202.011M1248.925-751.04C1249.153-740.611 1247.349-731.697 1244.08-722.955 1235.708-700.562 1221.319-682.551 1203.895-666.622 1194.489-658.023 1184.631-650.188 1172.412-645.928 1166.909-644.01 1161.673-644.198 1157.115-648.42 1152.29-652.89 1151.696-658.315 1153.53-664.26 1154.881-668.64 1156.493-672.872 1156.948-677.563 1159.711-706.047 1173.366-728.166 1197.521-743.26 1207.499-749.494 1217.792-755.276 1227.805-761.505 1232.786-764.603 1238.028-770.129 1244.134-767.126 1250.929-763.785 1248.382-756.024 1248.925-751.04M1304.015-802.801C1331.022-802.907 1356.737-784.82 1368.387-758.641 1376.981-739.329 1373.559-725.285 1356.793-712.413 1352.95-709.464 1348.731-706.827 1344.336-704.803 1315.051-691.317 1296.642-699.838 1288.036-730.689 1287.343-733.173 1286.934-735.742 1286.473-738.286 1283.569-754.326 1285.234-771.087 1278.13-786.516 1275.479-792.276 1279.435-796.467 1284.558-798.888 1291.176-802.015 1298.294-803.04 1304.015-802.801M1619.182-155.612C1617.632-130.256 1611.653-107.01 1597.029-86.878 1583.195-67.832 1565.511-55.291 1540.385-56.615 1523.518-57.505 1505.717-70.879 1501.076-86.958 1499.652-91.889 1499.798-95.799 1505.554-98.133 1529.028-107.651 1549.482-121.613 1566.912-140.073 1575.589-149.264 1584.371-158.418 1593.799-166.812 1599.108-171.538 1605.023-179.087 1613.063-175.172 1620.978-171.316 1617.516-161.836 1619.182-155.612M245.113 211.966C250.26 212.533 255.401 213.152 260.553 213.659 286.308 216.19 312.067 220.447 337.811 213.556 341.37 212.604 345.58 210.507 348.18 214.186 350.592 217.598 348.013 221.493 346.258 224.698 338.739 238.432 329.337 250.798 317.665 261.255 297.586 279.244 276.479 276.921 261.049 254.923 255.846 247.505 249.08 244.666 240.396 244.98 227.652 245.442 217.289 251.545 207.505 258.846 199.841 264.564 200.217 267.771 209.116 270.991 220.76 275.205 232.499 279.131 243.562 284.773 245.237 285.627 247.934 285.798 247.458 288.468 247.13 290.307 244.987 290.737 243.324 291.143 224.944 295.631 207.26 294.567 191.241 283.555 183.666 278.348 180.076 270.589 183.06 261.671 190.683 238.877 211.128 209.832 245.113 211.966M1135.194-743.994C1135.495-733.17 1133.183-722.706 1130.924-712.323 1126.998-694.28 1122.286-676.413 1111.54-660.922 1104.219-650.368 1093.744-645.93 1084.241-649.031 1074.417-652.237 1069.791-660.239 1069.92-673.906 1069.944-676.496 1069.919-679.118 1070.302-681.668 1071.5-689.64 1075.43-694.901 1084.172-695.543 1092.311-696.14 1100.043-698.155 1106.913-702.886 1118.762-711.047 1118.481-717.315 1105.873-723.719 1104.079-724.63 1102.207-725.401 1100.466-726.403 1082.321-736.847 1065.635-749.003 1054.002-766.885 1049.566-773.703 1047.208-780.951 1051.373-788.862 1059.47-804.243 1091.625-817.879 1110.21-801.526 1127.572-786.247 1134.694-766.546 1135.194-743.994M323.467-667.659C324.045-675.392 323.974-683.202 326.118-690.754 331.935-711.238 354.37-722.134 373.963-713.992 384.129-709.767 393.601-704.357 401.665-696.807 408.433-690.471 413.01-688.257 415.183-678.857 416.463-673.32 417.428-669.747 411.918-666.773 400.718-660.727 375.062-657.014 365.153-664.789 363.293-666.249 361.608-670.225 359.125-668.128 356.849-666.205 357.517-662.178 358.738-659.21 360.379-655.223 363.905-652.834 367.728-651.604 387.717-645.171 408.524-636.625 428.939-645.969 437.934-650.086 454.276-645.314 456.329-635.655 457.274-631.21 454.899-628.499 451.374-626.594 446.506-623.962 441.197-622.709 435.715-622.13 415.977-620.043 396.045-620.53 376.371-617.531 347.536-613.135 319.411-629.743 323.467-667.659M237.763-136.744C229.236-136.456 217.528-133.683 207.046-127.16 191.5-117.485 190.702-103.604 204.713-92.063 216.247-82.562 230.03-80.02 244.354-79.877 254.57-79.774 264.433-78.441 273.865-74.52 291.626-67.135 299.062-52.644 294.671-34.2 291.964-22.828 288.356-21.558 278.726-28.658 275.484-31.048 272.453-33.738 269.124-35.995 243.237-53.544 215.004-65.293 183.804-68.794 170.252-70.314 166.215-74.512 168.287-88.397 170.962-106.323 174.685-124.038 178.972-141.645 182.493-156.104 186.027-158.984 200.674-155.448 213.184-152.427 225.736-152.434 238.365-151.971 246.412-151.676 254.49-151.379 262.476-150.429 288.587-147.322 297.499-140.538 301.944-120.355 303.613-112.774 304.498-105.019 303.863-97.194 302.993-86.488 297.877-83.508 288.275-88.559 279.02-93.429 272.176-100.529 269.438-111.015 268.642-114.066 267.637-117.084 266.463-120.011 261.253-132.998 255.332-136.939 237.763-136.744M185.728 146.807C182.97 171.195 167.501 195.627 145.216 216.363 143.022 218.404 139.669 219.322 136.725 220.409 131.235 222.436 125.89 221.421 120.899 218.734 109.592 212.646 97.9 189.456 99.509 176.58 101.615 159.723 111.675 152.31 127.905 156.014 132.431 157.047 136.383 156.547 140.348 154.358 146.899 150.743 153.413 147.039 160.125 143.743 166.33 140.696 167.752 135.708 165.249 130.104 158.887 115.863 149.83 103.497 135.142 97.057 116.609 88.93 103.887 96.743 101.692 116.528 100.742 125.096 99.94 133.779 96.002 141.656 93.153 147.353 88.359 150.122 81.916 149.588 75.731 149.076 73.187 144.682 71.557 139.473 69.97 134.401 69.976 129.191 71.13 124.1 75.533 104.663 86.224 89.403 102.806 78.491 111.267 72.923 120.768 70.801 130.889 73.119 163.02 80.477 184.773 107.122 185.728 146.807M1358.748-596.359C1358.565-611.07 1361.864-616.755 1376.459-621.037 1391.745-625.523 1400.42-633.743 1401.943-650.44 1403.26-664.877 1412.114-667.68 1423.085-657.841 1440.697-642.047 1454.237-623.199 1462.802-601.019 1465.219-594.76 1466.262-588.261 1464.23-581.578 1457.394-559.092 1428.255-541.218 1403.895-544.606 1379.699-547.971 1359.056-571.635 1358.748-596.359M932.732-647.859C946.983-646.932 957.886-652.874 966.159-664.065 975.067-676.117 984.759-687.365 995.635-697.787 1024.452-725.4 1017.988-757.739 989.706-773.536 987.989-774.495 986.422-775.932 985.156-777.455 980.315-783.281 981.988-793.666 988.512-799.13 994.062-803.78 997.768-802.685 1004.058-794.946 1008.226-789.817 1012.639-784.885 1017.004-779.917 1024.591-771.281 1032.79-763.146 1037.876-752.568 1044.714-738.344 1045.266-724.397 1036.766-710.607 1030.226-699.996 1026.39-688.252 1022.066-676.641 1013.42-653.426 998.7-634.869 975.684-624.633 962.225-618.647 949.172-612.246 936.686-604.414 924.946-597.05 912.416-590.986 898.054-590.916 885.657-590.855 876.907-599.007 876.987-611.169 877.13-632.547 898.749-656.784 921.642-649.414 925.143-648.287 929.026-648.348 932.732-647.859M1020.182-834.923C1020.026-850.392 1028.484-861.948 1044.817-867.507 1062.374-873.483 1080.549-876.552 1099.093-876.574 1120.576-876.598 1134.727-869.908 1134.935-844.997 1134.994-838.007 1138.732-832.53 1146.281-832.092 1153.653-831.664 1156.744-837.229 1158.396-843.415 1161.631-855.525 1165.62-857.659 1177.086-851.682 1193.527-843.112 1206.515-830.592 1215.844-814.56 1223.118-802.061 1220.841-791.687 1209.14-782.867 1199.26-775.418 1187.781-771.726 1175.697-769.861 1166.168-768.39 1162.367-770.448 1159.744-779.951 1155.967-793.635 1147.123-802.89 1135.552-810.095 1124.689-816.858 1112.531-820.344 1100.443-824.162 1082.382-829.866 1066.266-827.117 1050.484-816.522 1030.549-803.14 1022.651-807.424 1020.343-831.475 1020.233-832.619 1020.221-833.773 1020.182-834.923M110.039-558.378C110.621-577.789 115.826-593.868 127.612-612.661 140.243-632.803 158.596-639.758 181.681-633.152 191.649-630.3 193.079-625.995 185.765-619.03 168.514-602.602 157.008-582.504 147.969-560.829 145.772-555.561 144.057-549.958 143.081-544.343 141.44-534.902 146.029-530.104 155.664-530.668 166.129-531.281 173.29-537.172 178.06-546.023 181.741-552.853 184.734-560.051 188.257-566.971 193.868-577.993 199.104-589.336 208.031-598.198 217.465-607.564 228.685-604.605 232.579-591.852 234.731-584.802 234.263-577.476 232.684-570.472 224.146-532.588 207.381-498.446 184.812-467.018 181.504-462.41 177.065-459.356 171.645-457.733 166.02-456.049 162.945-458.03 161.903-463.94 159.552-477.286 160.244-479.323 171.945-486.819 176.228-489.562 178.814-493 178.014-498.196 177.149-503.818 172.543-505.238 167.96-506.147 164.884-506.757 161.652-506.541 158.499-506.812 127.618-509.462 109.162-529.113 110.039-558.378M995.639-905.059C995.779-857.442 956.572-799.295 912.392-781.602 904.497-778.439 899.306-781.394 898.164-791.782 896.959-802.753 892.613-812.049 887.396-821.432 878.454-837.513 881.558-847.254 897.857-856.148 903.713-859.344 909.194-862.978 913.822-867.762 931.497-886.035 944.35-907.302 952.664-931.28 955.264-938.782 956.005-946.489 952.467-954.015 949.641-960.026 951.125-963.748 957.751-965.653 970.792-969.403 983.403-967.635 995.781-963.062 1001.333-961.011 1002.04-957.161 997.571-953.328 989.228-946.173 989.818-937.245 991.989-927.976 993.76-920.413 995.714-912.905 995.639-905.059M652.047-811.51C652.072-793.998 645.343-781.959 632.019-774.372 627.034-771.533 625.355-767.158 624.151-761.788 620.724-746.506 624.837-732.159 628.231-717.559 630.893-706.107 625.255-699.909 613.493-700.1 609.076-700.172 604.912-701.267 601.007-703.181 584.885-711.082 573.695-723.983 564.973-739.261 561.636-745.107 562.944-748.363 570.348-748.274 577.899-748.183 585.622-748.589 591.232-754.581 601.523-765.572 609.282-778.865 604.4-793.624 599.306-809.023 587.146-820.031 571.151-825.222 564.691-827.318 562.347-824.455 564.617-817.98 566.518-812.561 569.272-807.432 569.781-801.578 570.555-792.675 563.49-782.419 554.749-779.768 545.602-776.993 535.714-780.517 529.382-791.896 524.364-800.915 531.28-807.729 537.195-812.097 548.297-820.295 554.222-830.008 557.57-842.911 560.12-852.736 564.034-861.945 570.215-870.147 576.328-878.26 581.332-884.394 591.448-883.633 606.59-882.495 616.747-873.378 626.184-863.083 640.068-847.935 650.503-830.989 652.047-811.51M362.266 133.046C362.087 147.497 360.747 161.77 354.349 175.086 343.68 197.292 314.497 209.532 293.944 200.372 291.092 199.101 287.319 197.992 287.32 194.342 287.321 190.289 291.195 188.947 294.433 187.74 301.023 185.283 307.982 185.371 314.88 185.068 323.7 184.68 332.248 181.953 336.149 173.974 348.345 149.028 351.548 123.313 337.715 97.789 330.842 85.108 321.344 85.021 313.242 97.092 307.721 105.318 301.753 113.244 293.227 118.282 273.987 129.65 265.978 144.084 275.939 166.274 279.991 175.299 274.06 182.671 264.121 183.983 259.157 184.637 254.437 183.758 249.843 181.698 220.801 168.674 213.128 138.006 232.838 113.302 235.528 109.93 238.465 106.745 241.414 103.591 262.526 81.016 276.27 54.397 284.605 24.841 287.516 14.523 289.062 13.881 297.341 21.161 313.39 35.272 327.924 50.758 340.737 67.947 355.203 87.354 363.117 108.673 362.266 133.046M156.24-339.829C156.055-328.803 153.807-318.086 152.09-307.29 150.008-294.207 143.969-283.559 133.899-274.944 125.89-268.092 119.512-267.95 112.024-275.498 105.072-282.505 101.088-291.389 100.294-300.909 98.955-316.952 96.109-332.871 96.249-349.05 96.4-366.521 87.651-371.956 71.338-364.816 66.756-362.81 62.985-359.645 59.569-356.179 44.998-341.395 34.045-324.167 27.645-304.477 21.919-286.864 20.09-269.448 36.371-255.286 41.795-250.568 40.998-244.399 37.486-238.754 29.979-226.687 18.791-219.326 5.438-215.372-5.148-212.238-9.057-215.25-9.611-226.251-10.444-242.794-7.306-258.89-3.847-274.952 9.505-336.957 49.435-376.623 104.672-402.917 123.213-411.744 141.038-404.152 149.79-385.51 156.626-370.948 156.321-355.355 156.24-339.829M1607.562-294.359C1607.71-286.481 1606.776-278.813 1603.644-271.524 1599.974-262.984 1595.258-260.534 1587.413-265.058 1571.162-274.429 1553.117-278.149 1535.448-283.21 1511.641-290.03 1489.303-300.02 1471.495-317.647 1458.48-330.532 1451.864-345.917 1458.91-364.658 1461.378-371.223 1461.066-378.222 1461.19-385.148 1461.635-409.939 1469.867-415.811 1493.13-407.242 1532.055-392.904 1564.621-369.247 1591.71-338.043 1602.486-325.63 1607.364-310.754 1607.562-294.359M232.445 319.489C249.442 319.579 263.953 318.723 277.566 324.905 289.444 330.299 294.957 338.541 293.228 350.815 290.231 372.08 294.401 391.302 306.706 409.01 313.302 418.501 314.89 429.025 310.709 440.265 307.159 449.81 306.053 459.849 306.195 470.012 306.296 477.247 305.595 484.407 303.941 491.439 298.219 515.77 278.718 523.302 258.19 508.603 245.386 499.435 236.396 486.554 227.616 473.677 226.057 471.391 224.803 468.335 228.868 467.763 238.833 466.36 241.51 458.924 243.84 450.978 247.778 437.548 254.243 426.683 267.745 419.985 279.892 413.959 281.903 402.928 273.312 391.681 259.792 373.983 242.972 359.473 225.213 346.092 220.679 342.676 216.693 343.399 213.231 347.75 194.842 370.854 194.012 385.135 206.44 406.023 209.974 411.964 214.028 417.57 219.375 422.119 222.825 425.054 224.591 428.916 224.974 433.413 225.339 437.696 224.487 441.667 220.551 443.938 216.292 446.396 212.275 445.253 208.644 442.109 204.67 438.667 201.765 434.394 198.863 430.096 176.354 396.766 171.585 359.204 172.592 320.253 172.805 312.027 178.136 311.312 183.919 313.364 200.558 319.267 217.655 320.399 232.445 319.489M396.405-10.376C393.228-9.974 390.053-9.769 386.964-9.143 378.728-7.477 375.243-.441 380.333 6.189 386.381 14.067 388.468 23.235 391.202 32.242 393.924 41.207 398.299 49.104 403.988 56.511 412.547 67.656 424.564 72.483 437.342 76.714 449.29 80.67 451.051 86.132 444.842 97.002 435.824 112.79 425.519 127.714 412.844 140.81 408.165 145.643 403.195 152.717 395.595 149.931 388.043 147.161 389.861 138.543 389.687 132.314 389.165 113.598 385.488 95.758 376.94 79.085 367.39 60.46 353.717 44.851 339.755 29.503 332.346 21.358 325.463 12.886 322.253 2.111 317.874-12.592 325.005-24.404 332.907-35.434 337.716-42.149 345.657-39.571 352.268-38.104 389.725-29.793 427.833-26.454 465.882-22.478 483.891-20.596 501.967-18.141 518.708-10.583 529.758-5.596 530.424-.094 521.331 7.783 506.047 21.022 492.338 35.736 479.543 51.356 477.013 54.445 474.224 57.513 470.995 59.8 464.198 64.616 456.965 61.884 455.075 53.814 454.169 49.944 454.315 45.817 454.091 41.8 452.526 13.699 439.995-2.83 416.092-7.751 409.63-9.081 402.984-9.524 396.405-10.376M453.784-713.803C481.328-711.218 483.523-713.774 511.248-696.707 523.533-689.144 536.966-683.182 551.405-681.7 562.156-680.597 571.434-677.066 580.333-671.494 596.926-661.105 613.624-650.851 631.265-642.333 641.484-637.399 650.886-631.361 659.393-623.991 683.138-603.42 704.775-580.655 726.484-558.026 739.809-544.135 747.372-527.075 747.573-507.395 747.662-498.734 743.917-496.421 736.248-500.618 731.483-503.226 726.934-506.411 722.777-509.916 702.973-526.61 683.41-543.589 663.619-560.298 647.01-574.32 629.293-586.258 607.704-591.748 596.786-594.525 588.054-601.328 582.676-611.59 577.997-620.517 576.836-629.31 582.987-638.443 589.351-647.894 585.314-656.407 573.674-658.27 561.924-660.15 550.094-659.928 538.536-656.689 526.191-653.229 523.944-647.952 530.408-636.747 534.089-630.366 531.9-627.169 525.71-625.182 518.175-622.764 511.452-625.443 505.075-628.884 493.63-635.06 485.181-644.458 478.383-655.349 467.041-673.523 452.828-688.627 433.497-698.48 431.467-699.515 429.651-701.014 427.848-702.439 425.603-704.213 422.764-706.021 423.444-709.298 424.249-713.179 428.198-713.484 431.095-713.66 438.259-714.096 445.468-713.803 453.784-713.803M1352.226 277.988C1351.353 263.68 1354.659 260.452 1369.826 261.719 1401.543 264.367 1433.109 262.76 1462.125 249.299 1481.219 240.441 1507.844 263.421 1503.005 283.5 1498.396 302.631 1488.794 318.55 1474.51 331.816 1469.517 336.452 1465.248 335.458 1461.856 329.709 1460.1 326.734 1458.264 323.807 1456.498 320.838 1451.202 311.934 1443.631 305.234 1434.833 300.188 1429.463 297.109 1422.286 293.614 1417.811 300.603 1410.475 312.061 1400.926 321.761 1393.542 333.1 1381.228 352.008 1382.476 365.534 1397.913 381.88 1399.693 383.764 1401.917 385.359 1403.251 387.511 1408.015 395.196 1417.247 400.702 1417.113 410.729 1416.858 429.954 1412.51 448.481 1403.293 465.449 1396.721 477.549 1385.003 479.773 1373.324 472.538 1366.435 468.271 1363.004 461.844 1360.891 454.525 1357.193 441.716 1356.336 428.51 1355.658 415.261 1353.315 369.532 1356.517 323.666 1352.226 277.988M156.094-191.51C156.135-173.332 154.452-155.256 151.848-137.33 149.587-121.763 148.311-105.811 140.146-91.667 134.703-82.239 129.982-79.513 120.627-81.434 101.431-85.378 82.608-90.651 64.495-98.207 43.266-107.064 24.975-119.681 13.796-140.442 4.085-158.479 7.345-173.358 22.631-186.624 31.723-194.515 42.169-200.467 53.374-203.7 79.951-211.37 105.542-220.515 129.224-235.407 141.58-243.176 150.958-237.133 154.298-222.46 156.625-212.235 155.813-201.841 156.094-191.51M1531.896-164.485C1539.094-164.485 1542.99-166.525 1550.185-166.356 1553.823-166.271 1558.384-166.862 1560.119-162.898 1561.906-158.817 1558.098-156.128 1555.682-153.374 1536.904-137.984 1523.461-129.923 1500.324-129.544 1480.925-129.226 1463.41-121.727 1446.977-110.351 1431.506-99.641 1414.452-93.251 1396.337-89.234 1377.014-84.95 1357.4-82.112 1340.605-69.915 1333.481-64.741 1326.469-67.729 1321.781-75.733 1317.494-83.052 1315.324-91.173 1314.78-99.561 1313.016-126.744 1317.109-152.075 1343.346-166.882 1366.689-180.055 1392.18-188.599 1417.737-196.466 1428.99-199.929 1439.477-196.617 1447.782-187.999 1453.69-181.869 1460.66-177.464 1468.406-174.159 1488.734-165.487 1510.148-163.87 1531.896-164.485M773.006-791.297C773.483-795.837 772.799-801.279 770.806-806.424 767.243-815.621 760.675-819.418 753.43-814.924 737.406-804.984 722.42-793.658 718.881-773.195 718.361-770.187 717.116-768.147 714.444-766.313 706.164-760.628 701.837-735.408 708.785-728.375 718.296-718.748 722.953-706.778 727.785-694.839 732.163-684.023 739.16-675.659 748.33-668.777 767.374-654.484 788.57-647.44 812.579-647.126 829.66-646.903 832.947-642.043 831.727-625.013 831.227-618.037 829.247-611.464 825.948-605.277 821.168-596.315 814.77-588.519 808.201-580.879 794.563-565.017 786.978-565.313 774.175-581.963 773.824-582.419 773.454-582.865 773.147-583.351 767.026-593.031 758.755-600.21 748.971-606.243 726.971-619.811 710.163-638.654 702.202-663.167 695.378-684.179 685.621-702.784 671.097-719.2 664.608-726.536 662.537-735.21 664.42-744.967 666.655-756.553 668.757-768.179 670.395-779.861 671.948-790.94 675.708-801.035 682.143-810.112 689.634-820.679 697.27-831.144 704.885-841.623 708.393-846.45 712.807-850.014 718.974-850.683 739.289-852.883 757.586-847.465 769.809-831.088 783.548-812.682 790.112-790.098 800.83-769.847 801.209-769.13 801.034-768.138 801.226-767.299 802.428-762.025 800.311-758.413 795.734-755.879 785.83-750.395 775.418-746.348 764.171-744.714 761.4-744.311 757.882-743.131 756.119-745.889 754.123-749.011 757.588-750.879 759.278-753.027 767.882-763.965 773.332-776.066 773.006-791.297M1555.44 68.475C1555.693 74.396 1554.966 80.203 1552.531 85.458 1541.617 109.008 1533.163 133.48 1524.396 157.863 1519.891 170.395 1512.918 181.809 1502.408 190.47 1493.774 197.586 1486.445 195.941 1481.443 186.02 1477.628 178.455 1476.373 170.173 1475.067 161.92 1471.324 138.258 1466.218 114.976 1456.32 92.974 1448.398 75.363 1437.393 60.817 1418.834 53.148 1413.007 50.74 1407.314 47.801 1401.989 44.429 1389.839 36.734 1388.193 27.743 1396.729 16.147 1402.872 7.802 1409.133-.498 1415.923-8.313 1423.322-16.829 1431.347-24.921 1443.448-26.377 1465.615-29.045 1483.969-22.049 1496.862-3.543 1505.735 9.193 1516.014 19.539 1529.821 27.349 1545.182 36.039 1555.517 49.467 1555.44 68.475M922.246 621.942C921.258 633.502 919.053 647.046 912.067 658.802 902.764 674.459 888.808 684.362 870.021 684.993 859.604 685.342 850.252 674.801 849.888 663.997 849.589 655.094 854.632 650.909 867.372 649.496 869.089 649.306 870.809 649.138 872.528 648.968 889.424 647.288 897.347 638.922 897.153 621.8 896.981 606.663 893.424 592.129 886.826 578.459 879.732 563.761 867.886 555.742 851.566 557.087 821.591 559.558 798.727 575.4 780.634 598.361 773.945 606.85 775.409 616.867 780.311 626.157 789.102 642.819 801.759 656.237 820.582 654.009 825.713 653.402 828.814 655.029 830.262 660.144 835.989 680.368 830.191 699.943 809.872 705.572 794.569 709.812 780.914 707.303 768.523 697.258 749.356 681.718 735.155 662.359 724.633 640.253 714.732 619.45 717.46 601.761 734.665 586.165 766.485 557.321 796.665 526.82 827.194 496.669 831.202 492.71 833.714 492.787 837.951 496.039 866.41 517.879 890.204 543.782 907.829 575.14 915.652 589.058 921.987 603.491 922.246 621.942M549.214 612.24C537.427 612.46 526.318 609.886 516.238 603.687 502.856 595.457 498.953 581.652 507.389 568.828 518.27 552.29 532.102 538.405 549.865 529.177 563.472 522.109 572.149 526.985 573.99 542.244 574.784 548.819 575.252 555.43 577.241 561.787 581.302 574.766 588.377 578.253 600.877 572.897 611.011 568.555 619.712 561.812 628.209 554.906 641.587 544.034 645.273 531.525 639.959 514.87 637.688 507.752 635.323 500.619 632.329 493.787 628.504 485.059 629.397 477.365 634.529 469.348 652.773 440.844 673.973 414.792 698.185 391.178 706.028 383.528 714.096 376.099 724.193 371.419 730.437 368.525 735.541 368.579 739.047 376.043 745.309 389.371 753.529 401.586 762.367 413.327 774.135 428.962 786.258 444.331 798.116 459.899 805.888 470.103 804.573 475.007 792.74 480.294 787.75 482.523 782.19 483.742 777.631 486.603 770.774 490.906 765.763 489.293 761.153 483.59 753.374 473.969 745.8 464.176 737.814 454.731 730.91 446.566 723.3 439.081 712.877 435.388 698.12 430.158 689.03 435.851 687.774 451.32 686.441 467.733 689.86 483.328 696.261 498.422 699.511 506.088 704.963 510.804 712.612 513.911 717.623 515.947 725.629 515.811 726.063 522.737 726.476 529.332 719.114 531.914 714.699 535.838 714.485 536.028 714.223 536.162 713.983 536.321 674.575 562.543 633.416 585.533 589.347 603.006 576.516 608.094 563.425 612.776 549.214 612.24M573.408 291.043C568.127 300.707 559.61 305.669 552.139 311.744 527.142 332.071 503.843 353.966 489.963 383.676 470.131 426.13 456.13 470.57 447.698 516.657 445.221 530.196 444.392 544.04 442.897 557.755 442.133 564.761 438.269 564.28 434.06 561.164 428.198 556.824 426.673 550.728 427.514 543.521 429.966 522.515 428.571 501.519 426.423 480.58 426.049 476.936 424.651 473.341 423.356 469.861 421.416 464.645 417.117 463.526 412.868 466.091 393.631 477.709 378.778 492.833 376.397 516.555 374.816 532.31 381.797 542.422 396.758 547.508 400.834 548.894 404.993 550.072 408.978 551.683 413.448 553.49 414.466 557.339 413.739 561.673 413.036 565.862 409.828 566.979 406.098 567.242 399.735 567.691 393.491 567.075 387.202 565.936 363.856 561.709 341.422 554.459 319.472 545.674 307.926 541.054 307.165 536.119 316.37 528.005 321.388 523.581 324.274 518.287 324.992 511.639 325.706 505.024 325.707 498.452 325.24 491.811 324.204 477.086 323.965 462.264 329.952 448.419 336.665 432.896 347.497 419.286 369.592 429.138 380.747 434.112 392.667 435.932 405.029 435.323 441.59 433.525 458.045 402.601 458.254 379.127 458.332 370.395 455.269 367.614 446.646 368.267 443.551 368.501 440.128 369.01 437.538 370.546 423.175 379.064 407.412 377.067 391.963 376.849 384.805 376.749 383.419 373.097 387.861 367.365 393.777 359.728 401.669 354.37 409.766 349.34 448.273 325.417 489.337 307.848 534.049 299.265 547.21 296.739 560.291 293.795 573.408 291.043M1119.84-64.472C1120.042-67.635 1120.105-70.814 1120.472-73.957 1121.688-84.36 1124.167-93.689 1136.242-97.026 1140.883-98.309 1144.547-102.076 1148.121-105.475 1163.823-120.408 1193.251-122.563 1210.643-109.792 1214.464-106.987 1217.345-107.227 1220.541-110.187 1222.864-112.337 1225.222-114.449 1227.542-116.603 1237.374-125.73 1246.032-126.02 1255.585-116.959 1276.001-97.594 1293.125-75.642 1306.492-50.837 1314.491-35.993 1316.404-20.741 1311.694-4.155 1305.593 17.335 1294.065 35.748 1281.694 53.843 1265.957 76.864 1233.946 83.708 1210.299 69.274 1206.361 66.87 1205.103 63.306 1204.935 59.106 1204.753 54.522 1208.027 52.562 1211.569 51.038 1216.105 49.086 1220.861 47.983 1225.843 48.16 1239.505 48.645 1249.622 42.296 1257.155 31.486 1270.525 12.302 1273.058-10.828 1279.766-32.404 1281.839-39.07 1277.514-43.656 1270.745-44.445 1243.96-47.57 1229.656-41.956 1219.012-18.998 1216.715-14.043 1214.761-8.926 1212.725-3.853 1208.931 5.603 1204.059 14.373 1196.295 21.183 1180.195 35.304 1159.974 32.22 1148.602 14.164 1144.462 7.592 1140.404 .855 1135.405-5.041 1120.636-22.464 1119.359-43.19 1119.84-64.472M781.135-935.026C817.389-934.483 850.264-938.132 880.107-956.082 884.464-958.703 889.595-960.277 894.564-961.6 909.607-965.608 922.341-956.441 923.801-940.883 925.018-927.915 921.742-916.113 913.252-906.314 901.61-892.879 886.999-883.001 871.366-874.883 862.241-870.144 857.009-872.201 850.877-881.048 845.12-889.354 839.132-897.451 831.617-904.265 819.212-915.512 805.281-915.413 793.048-903.898 789.481-900.541 785.888-896.837 787.049-891.241 788.246-885.47 793.188-884.225 797.928-882.732 815.685-877.143 830.028-866.257 842.64-853.023 848.368-847.013 851.011-839.313 851.179-830.926 851.378-820.963 854.039-811.621 858.192-802.65 861.819-794.815 865.588-787.045 869.113-779.165 873.588-769.16 877.889-759.059 877.362-747.744 875.972-717.962 860.519-696.866 835.463-682.598 809.451-667.786 785.435-676.083 762.573-691.078 760.014-692.757 756.545-694.673 757.377-698.299 758.215-701.952 762.123-701.928 765.193-702.36 791.436-706.045 813.856-717.571 833.258-735.352 845.731-746.782 849.036-760.37 842.482-776 832.547-799.69 820.544-822.26 805.411-843.102 800.719-849.563 794.813-854.134 787.483-857.462 774.248-863.47 760.329-866.797 746.219-869.757 734.252-872.267 732.562-877.719 740.57-887.016 742.819-889.626 745.473-891.886 747.745-894.479 751.281-898.515 754.195-903.053 751.71-908.568 749.25-914.031 743.956-914.932 738.597-915.183 729.851-915.594 722.107-912.93 715.473-907.273 711.532-903.914 707.891-900.205 703.977-896.813 686.455-881.629 658.104-888.162 648.555-909.537 640.055-928.566 658.596-951.574 681.535-950.334 688.454-949.96 695.229-948.535 701.844-946.436 728.438-937.997 755.666-934.089 781.135-935.026M1064.973 261.054C1067.425 259.355 1069.077 260.467 1070.57 261.036 1091.658 269.076 1113.659 273.696 1135.73 277.71 1183.671 286.431 1228.427 302.78 1268.766 330.556 1288.379 344.061 1302.726 362.269 1315.847 381.664 1317.108 383.527 1318.847 385.778 1317.567 388.016 1315.982 390.788 1312.91 389.624 1310.496 389.329 1299.065 387.934 1291.677 380.125 1286.528 371.22 1276.483 353.846 1260.43 349.933 1242.583 348.95 1234.234 348.49 1229.084 352.534 1228.645 360.839 1227.871 375.484 1231.837 388.736 1242.496 399.432 1248.379 405.334 1255.325 407.931 1263.7 406.53 1273.352 404.916 1282.994 403.148 1292.706 402.015 1312.976 399.649 1321.436 406.957 1323.3 427.172 1325.254 448.356 1330.207 468.546 1343.304 486.092 1350.149 495.262 1349.15 502.955 1340.082 510.196 1326.431 521.094 1311.15 529.043 1293.869 532.612 1287.946 533.835 1281.967 534.896 1275.858 534.385 1272.392 534.096 1268.624 533.954 1266.643 530.639 1264.382 526.854 1267.597 524.169 1269.475 521.421 1272.396 517.147 1276.1 513.315 1278.473 508.774 1293.489 480.029 1283.412 455.908 1254.617 443.37 1249.378 441.089 1244.752 442.285 1245.343 449.813 1246.14 459.976 1242.271 468.391 1235.313 475.525 1226.521 484.54 1226.386 494.182 1232.703 504.594 1235.53 509.254 1238.293 514.037 1238.56 519.744 1238.951 528.115 1233.813 532.54 1225.971 529.494 1213.93 524.817 1204.038 517.536 1202.863 503.223 1202.158 494.625 1202.201 485.968 1201.83 477.341 1200.743 452.042 1200.768 426.597 1192.299 402.236 1180.202 367.439 1156.015 341.76 1128.34 319.074 1109.649 303.754 1089.46 290.238 1072.972 272.325 1069.925 269.014 1066.275 266.057 1064.973 261.054M1023.22 293.156C1036.662 293.16 1049.581 295.33 1062.098 300.309 1091.426 311.976 1114.655 331.907 1136.235 354.21 1153.467 372.02 1168.306 391.177 1173.737 416.127 1178.089 436.121 1179.343 456.117 1172.703 475.791 1165.304 497.715 1146.738 505.255 1126.213 494.901 1104.002 483.697 1083.607 469.682 1064.609 453.664 1053.934 444.664 1045.637 433.589 1038.526 421.677 1035.817 417.138 1030.996 411.594 1035.01 406.766 1038.952 402.026 1044.849 406.581 1049.357 408.381 1069.95 416.608 1089.24 414.588 1107.775 402.555 1117.626 396.16 1118.907 390.961 1111.585 381.433 1104.21 371.835 1095.683 363.247 1087.265 354.549 1073.349 340.169 1039.731 336.216 1024.87 354.593 1018.57 362.383 1010.028 362.731 1001.356 358.501 996.977 356.365 992.575 354.077 988.672 351.196 965.707 334.238 946.563 314.126 933.337 288.299 910.062 242.847 893.432 194.622 873.239 147.893 872.059 145.164 871.153 142.274 873.399 139.77 875.678 137.23 878.878 137.887 881.48 138.882 899.202 145.659 915.716 154.122 924.844 172.125 927.406 177.18 931.22 180.999 936.192 183.587 942.57 186.906 948.964 190.214 955.496 193.209 974.147 201.763 986.551 216.616 996.449 233.866 998.443 237.34 1001.673 241.773 997.707 245.737 994.232 249.211 989.927 246.571 986.37 245.182 976.195 241.207 966.5 236.068 955.971 232.903 949.852 231.063 947.574 232.748 947.699 239.285 948.018 255.957 955.833 269.486 964.53 282.917 971.228 293.264 980.149 297.578 992.293 296.144 1002.576 294.93 1012.909 294.136 1023.22 293.156M1402.813 235.246C1379.866 237.447 1359.917 228.851 1340.787 217.564 1307.26 197.782 1281.15 169.812 1256.19 140.613 1249.079 132.293 1242.129 123.829 1237.147 113.967 1231.403 102.596 1233.195 99.402 1245.695 99.831 1256.653 100.207 1266.027 96.35 1274.437 89.872 1288.148 79.311 1297.927 65.48 1306.398 50.602 1311.38 41.851 1315.769 32.711 1322.191 24.863 1329.994 15.328 1335.709 15.089 1344.294 23.762 1346.111 25.598 1347.837 27.57 1349.331 29.674 1357.409 41.047 1367.188 50.586 1378.437 58.908 1393.248 69.864 1408.279 80.865 1419.541 95.661 1441.078 123.957 1449.098 156.978 1451.288 191.757 1452.112 204.849 1447.363 215.435 1437.879 224.946 1427.69 235.165 1415.796 236.226 1402.813 235.246M-35.574-95.392C-35.369-101.614-35.569-106.803-33.895-111.832-31.622-118.663-29.996-126.712-21.561-127.856-13.48-128.952-10.681-121.347-7.554-115.728-.995-103.94 7.196-93.851 18.766-86.599 51.632-66 88.331-56.526 125.996-50.624 160.482-45.221 194.668-39.503 227.038-25.469 244.239-18.011 253.728-5.637 255.207 12.501 257.446 39.954 250.179 64.963 233.332 86.907 226.931 95.245 223.805 95.529 215.526 88.953 188.238 67.275 156.703 55.062 122.821 49.476 101.346 45.935 80.859 49.175 66.083 68.38 60.867 75.16 55.872 74.718 52.198 67.012 45.619 53.211 36.926 41.408 24.751 32.106 19.776 28.305 20.547 23.66 24.067 19.278 26.786 15.894 29.604 12.626 30.516 8.224 33.876-7.997 32.976-23.872 26.034-39.064 20.232-51.76 11.975-54.649-.653-48.876-11.476-43.927-17.601-45.439-24.045-55.422-32.072-67.855-34.9-81.871-35.574-95.392M314.128 355.125C313.419 345.167 315.391 335.643 318.584 326.292 327.464 300.283 342.149 277.611 359.666 256.804 379.375 233.394 397.558 208.964 413.37 182.761 415.593 179.078 418.248 175.628 420.951 172.27 422.898 169.85 425.041 166.894 428.685 167.84 432.357 168.792 432.918 172.596 433.274 175.529 434.248 183.545 435.388 191.505 437.556 199.287 440.602 210.223 445.077 220.522 452.821 228.967 456.693 233.191 461.221 236.633 466.263 229.782 477.926 213.935 492.07 200.384 506.349 186.973 512.458 181.236 516.06 174.43 516.927 165.899 518.317 152.215 524.752 145.019 537.997 142.052 547.683 139.881 557.502 140.142 567.145 142.506 570.346 143.29 574.665 143.529 575.425 147.662 576.093 151.289 572.407 152.9 570.142 154.955 565.246 159.396 559.933 163.411 555.321 168.119 551.122 172.405 551.601 177.862 554.718 182.441 557.804 186.975 562.478 185.282 566.428 183.431 570.322 181.606 573.987 179.264 577.655 176.993 586.946 171.24 596.929 167.96 607.946 168.433 621.812 169.028 633.58 173.892 639.61 187.129 645.414 199.871 638.774 210.486 630.639 219.236 611.216 240.129 588.639 256.92 561.478 266.621 523.759 280.092 484.567 288.67 446.448 300.856 410.654 312.299 377.631 328.565 349.351 353.751 341.961 360.332 335.801 367.824 330.164 375.872 328.04 378.903 325.565 382.586 321.386 381.909 316.969 381.193 316.771 376.68 315.73 373.12 314 367.207 314.387 361.137 314.128 355.125M768.457 332.23C768.566 298.806 782.336 259.885 799.592 240.78 814.853 223.884 831.123 221.625 850.38 233.897 871.599 247.419 885.274 267.187 895.074 289.721 911.873 328.35 920.786 366.857 893.377 405.234 884.308 417.933 885.724 432.589 891.466 446.649 896.799 459.71 906.653 461.231 915.874 450.502 923.678 441.421 926.657 430.383 928.578 418.881 931.23 402.997 931.041 386.746 935.012 371.022 936.216 366.251 937.195 363.944 941.868 368.394 964.439 389.894 985.612 412.615 1003.69 438.089 1005.411 440.514 1006.885 442.518 1003.721 445.416 994.717 453.66 994.558 464.204 997.457 474.978 1003.789 498.505 1017.76 517.338 1034.828 534.122 1038.255 537.493 1042.507 539.457 1047.441 537.695 1052.465 535.9 1052.44 531.247 1053.104 526.965 1055.369 512.363 1051.736 498.364 1048.95 484.263 1048.24 480.672 1046.251 476.386 1049.277 473.593 1052.701 470.433 1056.313 474.071 1059.484 475.535 1078.588 484.354 1097.094 494.326 1115.052 505.286 1130.309 514.597 1145.39 524.211 1158.212 536.821 1166.598 545.069 1166.259 551.763 1157.454 559.443 1155.298 561.324 1152.958 563.116 1150.434 564.437 1118.025 581.4 1083.535 587.471 1047.534 581.63 1025.114 577.991 1005.295 566.685 985.681 555.758 945.067 533.133 906.079 508.094 873.323 474.631 847.92 448.679 837.028 416.756 872.93 386.017 873.148 385.83 873.346 385.619 873.548 385.413 879.794 379.077 880.688 371.707 876.884 364.005 874.608 359.396 871.52 355.139 868.455 350.975 858.384 337.291 847.363 324.176 845.947 306.079 845.723 303.224 844.748 299.7 840.766 298.923 836.534 298.098 833.552 299.901 831.177 303.208 820.408 318.199 813.244 334.665 810.902 353.063 808.927 368.582 811.349 382.899 822.506 394.836 825.273 397.797 827.367 401.33 828.337 405.307 829.773 411.195 826.8 414.447 820.909 413.144 815.181 411.877 810.443 408.546 805.953 404.825 794.583 395.401 788.393 382.17 780.272 370.345 771.636 357.77 767.651 343.964 768.457 332.23M792.804 115.866C792.304 123.042 792.022 130.241 791.265 137.389 788.234 166.039 774.347 190.329 759.735 214.204 736.901 251.511 712.289 287.799 698.794 330.083 695.583 340.145 689.73 349.309 682.784 357.58 673.761 368.326 662.542 372.344 648.854 369.354 640.981 367.634 633.166 365.636 625.273 364.02 618.418 362.616 611.363 361.972 604.976 365.452 586.824 375.343 573.271 390.109 562.124 407.205 558.969 412.043 560.043 416.48 564.838 419.977 582.298 432.713 612.111 428.399 625.238 411.197 628.562 406.841 631.784 402.318 636.952 399.943 639.976 398.553 643.311 398.154 645.76 400.913 647.95 403.381 645.959 405.857 644.668 407.999 643.039 410.701 641.162 413.272 639.221 415.767 617.706 443.401 592.004 466.942 566.253 490.453 551.966 503.497 537.471 516.266 520.123 525.138 495.348 537.808 482.526 529.875 484.976 502.244 490.156 443.819 512.612 391.972 548.881 346.317 566.038 324.719 583.403 322.71 607.257 336.202 621.343 344.17 636.405 346.793 652.259 343.168 656.996 342.085 662.159 340.355 663.103 334.6 664.006 329.098 659.569 326.228 655.692 323.941 648.763 319.852 641.328 316.627 634.334 312.637 623.759 306.605 621.777 299.789 627.104 288.851 631.33 280.171 638.159 273.494 644.596 266.515 659.194 250.686 676.529 237.052 686.202 217.206 695.99 197.125 708.608 179.849 727.962 167.794 736.44 162.513 741.242 154.167 740.535 143.685 739.721 131.604 739.389 119.806 743.721 107.997 746.534 100.328 742.618 95.942 734.384 95.463 727.411 95.057 720.469 96.13 714.063 98.799 698.889 105.123 683.648 113.272 688.253 136.464 689.312 141.795 688.996 147.383 689.705 152.801 691.112 163.563 687.049 172.622 681.068 180.991 676.131 187.898 671.9 187.68 668.63 179.8 664.661 170.238 658.575 162.43 651.564 155.106 640.864 143.929 635.754 130.666 636.342 115.117 636.602 108.222 636.104 101.346 634.723 94.498 633.021 86.061 628.047 81.389 619.817 79.888 607.071 77.563 594.354 75.031 581.54 73.162 575.607 72.297 569.464 72.508 563.436 72.746 557.96 72.962 554.589 76.194 552.912 81.473 551.289 86.583 554.031 89.725 557.417 92.621 564.452 98.637 572.566 103.072 580.29 108.083 584.496 110.81 591.964 112.984 590.835 118.003 589.478 124.036 581.549 122.356 576.552 122.411 557.505 122.619 538.628 123.844 519.78 126.84 507.693 128.761 495.712 126.88 484.229 122.081 464.114 113.674 462.612 107.233 478.268 91.441 490.225 79.379 502.909 68.042 514.993 56.103 522.468 48.717 530.819 42.815 540.248 38.244 566.967 25.29 595.263 21.523 624.453 24.546 636.413 25.785 648.059 25.066 659.67 22.877 679.461 19.146 699.086 14.49 718.932 11.117 744.674 6.741 759.043 13.826 772.063 36.474 786.168 61.011 792.216 87.701 792.804 115.866M864.049 47.125C864.191 32.689 866.037 18.405 868.083 4.157 869.678-6.947 871.243-18.103 875.879-28.49 876.93-30.844 878.068-33.579 881.12-33.62 884.146-33.661 885.404-31.009 886.577-28.692 889.699-22.53 892.533-16.215 895.851-10.163 900.354-1.948 906.052 5.493 915.032 9.012 931.234 15.362 947.908 18.895 965.61 18.159 984.227 17.385 1002.677 13.216 1021.551 16.679 1064.504 24.559 1104.589 40.082 1142.701 60.945 1162.372 71.714 1179.931 84.753 1190.112 105.973 1195.629 117.472 1204.956 126.416 1214.61 134.762 1222.25 141.367 1229.486 148.371 1235.417 156.602 1249.015 175.472 1252.786 195.349 1234.891 214.367 1222.446 227.593 1226.713 250.521 1241.552 261.009 1253.839 269.693 1264.859 265.538 1267.688 250.857 1270.267 237.479 1270.575 223.975 1268.371 210.481 1268.047 208.496 1267.101 206.36 1269.067 204.916 1271.111 203.415 1272.959 205.13 1274.557 206.147 1276.971 207.683 1279.242 209.484 1281.411 211.361 1302.649 229.747 1315.566 252.962 1321.484 280.28 1324.049 292.118 1325.897 304.046 1326.397 316.143 1326.535 319.48 1326.792 323.508 1323.121 325.289 1319.853 326.874 1317.041 324.513 1314.488 322.654 1310.766 319.944 1307.193 317.031 1303.496 314.286 1280.452 297.172 1256.223 282.356 1227.672 276.275 1172.031 264.423 1119.296 243.067 1065.204 226.198 1033.155 216.204 1006.403 198.065 998.969 161.312 996.87 150.932 997.636 142.022 1002.901 132.415 1010.6 118.367 1010.607 102.97 1003.961 88.319 999.513 78.514 992.133 77.897 985.003 85.865 980.15 91.287 976.907 97.74 973.899 104.296 968.548 115.959 968.524 127.073 977.283 137.337 985.598 147.08 988.376 158.447 987.569 171.098 986.738 184.131 978.755 189.789 967.17 183.748 949.668 174.623 936.56 160.718 931.857 141.257 928.357 126.772 920.556 117.588 906.749 113.373 882.416 105.944 858.74 77.696 864.049 47.125M1431.203-440.011C1430.95-434.834 1430.814-429.647 1430.396-424.483 1430.167-421.65 1429.902-418.036 1426.491-417.592 1423.5-417.203 1422.522-420.541 1421.661-422.893 1419.486-428.834 1417.442-434.83 1415.568-440.873 1408.086-464.995 1398.908-471.894 1373.617-472.234 1358.573-472.437 1353.784-466.437 1357.439-451.704 1362.907-429.661 1371.77-409.384 1386.169-391.401 1403.374-369.913 1417.367-346.456 1424.46-319.464 1427.344-308.487 1428.387-297.365 1426.956-286.072 1426.555-282.903 1426.041-279.191 1422.482-278.416 1418.966-277.649 1416.9-280.796 1415.052-283.393 1411.855-287.885 1408.906-292.73 1407.852-298.051 1403.815-318.439 1392.915-334.512 1377.993-348.432 1371.676-354.325 1366.815-361.555 1361.598-368.451 1353.221-379.526 1345.624-378.528 1340.223-365.571 1334.601-352.086 1333.005-337.817 1333.2-323.287 1333.41-307.581 1340.564-296.392 1354.779-289.778 1363.126-285.894 1371.735-282.533 1379.906-278.317 1391.597-272.286 1400.385-263.567 1403.572-250.172 1406.331-238.575 1404.241-232.53 1394.451-225.666 1382.201-217.079 1367.861-213.417 1353.96-208.786 1336.979-203.128 1320.091-197.215 1305.317-186.834 1294.375-179.145 1284.03-170.831 1283.133-155.698 1282.94-152.446 1281.878-148.282 1277.714-147.75 1273.964-147.272 1273.017-151.257 1270.985-153.56 1255.801-170.765 1238.314-178.605 1218.125-164.672 1213.387-161.402 1208.53-158.302 1203.789-155.035 1199.921-152.37 1195.813-150.378 1191.045-150.202 1183.224-149.914 1176.656-152.81 1172.789-159.586 1169.001-166.224 1172.865-171.779 1177.205-176.658 1183.324-183.537 1189.663-190.221 1195.898-196.996 1204.316-206.144 1207.595-217.254 1205.052-229.035 1200.335-250.887 1188.151-267.895 1168.346-278.863 1163.576-281.504 1157.846-284.078 1153.028-279.952 1147.586-275.291 1149.079-268.61 1151.658-263.114 1158.345-248.865 1157.049-235.891 1147.373-223.509 1142.275-216.985 1141.08-209.222 1145.8-202.547 1152.403-193.209 1151.16-184.235 1147.346-174.766 1126.322-122.57 1091.335-82.652 1041.715-55.984 1029.032-49.167 1015.284-44.653 1000.794-42.847 977.399-39.932 957.308-46.714 941.461-64.082 921.486-85.975 904.937-109.678 907.611-141.559 908.439-151.427 910.773-160.912 916.865-169.007 919.139-172.028 922.521-175.731 926.128-172.342 934.793-164.203 945.672-158.924 953.951-150.51 963.805-140.496 962.744-127.676 951.865-119.805 947.68-116.777 947.425-113.607 949.804-109.461 954.118-101.946 958.911-94.724 964.668-88.291 973.312-78.631 979.36-79.915 985.482-91.664 991.841-103.867 986.471-113.031 978.917-122.24 976.381-125.33 972.527-129.914 975.892-133.793 978.943-137.312 983.285-133.544 986.95-132.276 992.207-130.455 997.846-125.31 1002.938-129.801 1007.179-133.54 1002.358-138.811 1001.381-143.383 1000.906-145.606 999.872-148.051 1002.049-149.826 1004.344-151.697 1006.911-150.927 1009.374-149.841 1011.832-148.755 1013.701-147.069 1015.063-144.75 1021.542-133.725 1032.636-129.4 1043.81-125.487 1050.153-123.267 1054.166-125.663 1055.47-132.801 1058.4-148.835 1050.504-160.155 1039.32-169.631 1029.838-177.664 1019.568-173.644 1010.126-169.028 1001.842-164.978 993.497-164.023 985.001-166.806 963.337-173.902 945.343-186.663 931.569-204.691 925.763-212.29 920.102-220.005 912.813-226.031 898.124-238.175 896.085-253.315 900.415-270.518 902.731-279.721 906.606-288.477 907.86-297.994 910.651-319.173 910.115-340.518 911.362-361.771 912.612-383.071 913.918-404.507 924.93-423.617 931.51-435.035 936.026-447.032 937.454-460.101 940.41-487.149 952.581-508.909 975.078-524.292 1004.566-544.454 1035.812-559.14 1073.078-557.318 1093.554-556.317 1111.652-563.424 1124.463-580.613 1128.137-585.542 1133.241-587.96 1138.829-589.619 1183.094-602.763 1216.27-632.994 1249.701-662.467 1257.397-669.252 1264.447-673.736 1274.651-673.429 1290.202-672.962 1305.773-672.4 1321.319-672.717 1338.735-673.072 1354.835-677.84 1368.277-689.692 1370.402-691.567 1372.965-693.09 1375.562-694.247 1378.72-695.653 1382.579-697.008 1384.953-693.423 1387.259-689.943 1384.815-686.805 1382.373-684.231 1377.485-679.08 1371.105-676.388 1364.718-673.657 1346.47-665.855 1333.85-653.425 1329.173-633.258 1317.422-582.586 1344.093-524.889 1390.856-502.298 1417.185-489.579 1433.126-470.774 1431.203-440.011M463.754-51.625C442.957-51.041 422.28-52.738 401.707-55.435 386.589-57.416 371.465-59.857 357.605-66.792 350.255-70.471 345.046-75.444 345.813-84.916 347.782-109.227 339.692-130.831 326.649-150.82 316.48-166.405 301.862-175.488 283.534-178.201 270.153-180.181 256.652-181.335 243.239-183.117 227.22-185.246 211.336-188.171 196.723-195.477 188.671-199.503 187.232-209.418 192.419-220.583 196.407-229.167 202.95-227.017 209.297-224.479 219.833-220.267 229.262-213.907 237.814-206.705 257.603-190.041 278.004-195.568 298.694-203.765 303.005-205.473 304.48-208.55 303.081-213.469 300.589-222.228 296.042-229.808 291.066-237.248 274.547-261.943 249.092-267.664 224.008-252.169 219.633-249.467 215.3-249.202 210.928-251.564 206.656-253.872 205.41-257.983 205.431-262.555 205.482-273.729 212.796-281.349 224.153-282.102 231.626-282.597 239.102-283.508 246.574-283.486 264.766-283.435 278.674-290.845 288.885-305.877 295.081-314.999 302.086-323.411 313.511-326.494 316.665-327.345 318.189-329.217 317.043-332.975 313.969-343.061 293.451-359.208 282.851-359.319 264.967-359.507 249.409-354.057 237.622-339.965 231.156-332.235 224.826-324.391 218.353-316.667 215.72-313.526 212.691-310.248 208.138-311.983 203.662-313.688 203.472-318.187 203.266-322.243 202.668-334.036 206.038-344.524 214.443-352.967 224.234-362.802 230.6-374.309 234.533-387.668 238.25-400.296 241.165-413.284 248-424.899 251.406-430.687 248.626-435.515 241.986-436.971 232.569-439.037 223.625-434.029 217.504-423.263 210.088-410.221 197.283-405.575 183.724-411.005 173.798-414.981 170.401-422.937 174.924-432.557 177.895-438.875 182.616-443.948 187.655-448.772 205.14-465.509 222.538-482.372 237.314-501.621 261.994-533.774 272.164-567.935 255.97-608.046 244.166-637.285 251.955-655.731 279.072-673.502 284.675-677.174 290.947-683.156 297.862-678.654 304.574-674.283 302.203-666.426 301.211-659.552 297.449-633.474 306.693-615.838 329.688-604.287 342.654-597.773 356.316-597.43 370.212-599.345 406.741-604.378 441.406-599.652 473.465-580.371 484.767-573.573 497.178-570.009 510.292-569.043 561.718-565.254 605.251-543.018 644.668-511.394 660.078-499.03 667.798-482.462 669.578-462.852 670.565-451.973 671.665-441.042 673.75-430.336 677.731-409.899 690.459-393.987 702.33-377.687 715.202-360.011 730.236-343.927 741.141-324.802 767.292-278.943 774.656-229.51 767.488-177.907 761.896-137.654 746.617-101.312 717.511-71.926 698.317-52.547 675.398-41.876 647.525-44.838 630.341-46.663 615.004-54.217 599.629-61.478 557.779-81.244 528.55-113.69 507.009-153.781 504.305-158.814 501.146-164.824 506.575-169.676 515.469-177.627 514.464-186.818 511.556-196.638 508.926-205.523 504.715-213.704 500.449-221.875 495.654-231.059 490.576-240.2 489.219-250.677 488.393-257.053 486.533-263.178 480.281-265.352 473.795-267.607 468.825-262.83 464.391-258.687 430.997-227.487 442.158-175.676 485.491-160.506 494.224-157.449 498.361-151.734 497.394-144.064 496.488-136.88 490.102-131.425 481.652-130.512 474.608-129.75 468.674-132.695 463.061-136.266 432.414-155.765 407.003-135.453 399.386-109.41 396.843-100.715 398.985-97.449 408.06-97.006 419.062-96.469 429.747-95.441 440.061-90.885 444.38-88.976 449.642-89.81 454.482-91.31 463.664-94.157 470.589-99.763 476.384-107.332 482.639-115.498 489.666-117.695 498.393-113.457 513.052-106.338 524.283-95.233 531.25-80.451 535.384-71.681 532.794-64.941 524.695-59.684 518.754-55.828 512.016-54.39 505.164-53.186 491.423-50.769 477.565-51.836 463.754-51.625M1651.015-150.502C1650.825-171.25 1649.621-188.797 1644.888-205.825 1638.53-228.699 1642.268-251.241 1644.452-274.261 1647.307-304.356 1642.749-332.538 1617.756-355.09 1582.983-386.467 1545.849-414.538 1507.546-441.243 1486.307-456.05 1463.701-469.098 1446.634-489.179 1444.401-491.805 1442.204-494.512 1440.376-497.423 1434.09-507.432 1436.536-513.831 1447.823-517.655 1455.186-520.149 1462.405-523.257 1470.24-523.9 1481.211-524.8 1485.731-519.457 1483.448-508.671 1479.032-487.806 1482.217-479.745 1500.062-467.859 1518.007-455.907 1538.248-450.306 1559.378-448.338 1574.929-446.889 1579.274-453.932 1571.61-467.463 1566.421-476.625 1562.854-486.011 1561.141-496.437 1559.439-506.798 1552.453-514.424 1545.088-521.443 1541.969-524.415 1538.654-527.275 1535.076-529.656 1506.729-548.517 1494.373-576.51 1492.891-608.94 1491.682-635.411 1481.385-654.608 1459.6-669.56 1438.692-683.91 1419.296-700.423 1406.099-722.833 1402.136-729.562 1398.837-736.571 1396.525-744.035 1388.579-769.696 1374.202-791.315 1354.714-809.56 1335.735-827.328 1312.444-829.431 1289.142-823.239 1272.001-818.685 1260.885-822.361 1250.419-836.103 1226.048-868.102 1193.801-889.934 1156.546-904.369 1130.439-914.484 1105.877-927.345 1086.544-947.687 1062.294-973.201 1032.522-983.704 998.377-985.215 964.684-986.706 931.029-988.106 897.408-983.865 882.144-981.939 867.69-977.15 853.215-972.344 838.723-967.532 824.205-962.833 809.22-959.732 784.662-954.648 760.726-956.623 736.797-964.22 709.821-972.785 682.315-979.309 653.596-977.024 648.458-976.615 643.216-975.964 638.305-974.487 612.015-966.582 611.355-962.135 611.462-940.547 611.534-926.083 605.176-919.111 590.972-916.167 579.816-913.855 568.466-913.529 557.405-915.131 524.408-919.91 493.985-911.61 464.281-898.577 429.972-883.523 400.463-861.991 375.829-833.711 362.236-818.105 344.998-808.312 325.382-801.801 285.995-788.726 277.648-776.859 276.68-734.98 276.337-720.126 269.818-708.248 258.586-699.154 242.857-686.417 224.445-677.773 207.403-667.026 201.195-663.111 193.57-663.417 186.322-663.538 176.81-663.698 167.299-663.889 157.788-664.092 139.791-664.476 124.729-657.798 114.407-643.237 89.47-608.057 71.857-570.171 74.117-525.525 74.94-509.27 72.908-507.152 57.236-506.715 44.017-506.347 35.45-499.006 30.689-487.787 22.698-468.954 17.689-449.051 12.624-429.277 9.988-418.988 15.169-413.172 25.894-412.931 45.232-412.497 63.562-416.891 81.043-425.198 96.451-432.52 106.362-443.754 108.55-461.156 109.23-466.57 110.419-471.969 113.503-476.677 116.089-480.626 119.848-482.55 124.496-482.31 129.454-482.054 131.13-478.121 132.356-474.223 137.991-456.321 133.941-429.778 108.291-422.63 96.43-419.325 85.347-413.332 73.661-409.278 27.88-393.398-3.428-360.415-31.007-322.506-63.035-278.48-62.794-230.365-50.614-180.448-48.292-170.93-45.792-161.456-39.98-153.261-37.158-149.282-36.765-144.601-40.323-141.35-52.399-130.315-53.229-115.211-54.736-100.837-57.293-76.454-57.116-52.011-52.547-27.691-50.361-16.062-45.034-6.048-39.529 4.094-33.519 15.167-34.663 18.094-46.006 23.21-58.38 28.792-59.282 32.026-49.6 41.809-37.55 53.985-27.263 67.211-19.198 82.427-13.514 93.149-5.132 102.04 4.856 109.247 11.398 113.968 18.385 116.423 26.626 115.945 37.545 115.311 39.997 117.581 41.58 127.922 48.683 174.336 70.756 213.544 100.21 249.135 104.455 254.263 108.987 259.153 111.377 265.437 114.425 273.447 111.094 278.927 102.564 280.414 92.306 282.203 82.629 278.64 72.697 277.257 66.68 276.42 58.951 272.07 54.828 277.804 51 283.128 56.067 289.899 58.768 295.451 67.633 313.679 78.821 330.394 92.811 345.148 98.838 351.504 105.538 356.619 114.346 358.856 123.543 361.191 129.515 367.898 134.411 375.631 155.827 409.461 177.877 442.866 200.057 476.206 239.105 534.898 296.086 567.54 360.343 590.331 366.82 592.629 373.85 593.347 380.368 595.553 388.685 598.368 390.027 602.485 385.676 610.082 381.961 616.569 377.412 622.63 374.196 629.341 364.457 649.662 373.249 663.672 395.859 663.849 409.216 663.953 421.243 659.429 431.904 651.34 439.893 645.279 442.512 637.548 440.12 627.729 437.201 615.75 444.122 609.346 456.006 612.789 461.347 614.336 466.011 617.287 470.032 621.078 494.512 644.155 524.927 651.423 557.153 653.717 564.905 654.269 572.769 653.785 580.367 655.66 588.46 657.657 590.183 661.712 586.069 668.968 581.397 677.206 574.159 683.768 570.681 692.855 567.882 700.165 565.15 707.439 565.63 715.407 566.072 722.755 568.896 724.46 575.589 722.036 584.792 718.704 594.028 715.461 603.291 712.301 627.409 704.073 643.679 683.011 645.519 657.515 645.54 657.227 645.547 656.939 645.57 656.652 646.195 648.97 645.256 640.112 654.011 636.45 662.582 632.866 669.523 638.221 676.026 643.127 685.896 650.573 693.279 660.224 698.302 671.338 713.94 705.939 741.422 725.923 777.067 735.815 834.213 751.675 893.307 732.522 928.237 687.205 940.008 671.933 946.931 655.032 947.37 635.485 947.681 621.639 952.231 609.444 964.5 601.452 976.176 593.846 990.175 594.688 998.659 602.987 1002.005 606.259 1003.731 609.849 1003.432 614.476 1001.087 650.851 1021.649 671.482 1052.188 685.161 1064.294 690.584 1076.704 695.271 1089.713 698.017 1102.572 700.731 1106.722 696.403 1103.013 683.824 1098.017 666.882 1090.395 651.183 1080.368 636.515 1067.808 618.143 1071.928 609.968 1094.022 607.019 1131.674 601.992 1166.43 588.722 1198.967 569.396 1202.51 567.292 1206.119 565.711 1210.219 565.361 1225.415 564.067 1233.801 574.488 1228.888 588.94 1226.581 595.727 1223.299 602.129 1221.976 609.314 1218.367 628.912 1227.347 644.359 1246.329 650.04 1253.484 652.181 1260.802 653.824 1268.112 655.389 1282.748 658.523 1297.541 660.954 1311.544 666.609 1317.621 669.063 1321.393 667.699 1321.607 660.042 1322.27 636.189 1310.864 617.585 1296.109 600.442 1290.994 594.499 1284.315 590.508 1277.548 586.525 1265.75 579.581 1265.898 571.316 1277.765 564.632 1282.745 561.827 1288.216 559.778 1293.643 557.902 1319.958 548.805 1345.351 537.22 1367.202 520.226 1389.317 503.027 1413.029 493.661 1440.851 492.605 1455.182 492.062 1468.093 485.826 1479.954 477.701 1484.988 474.253 1488.006 469.672 1489.425 463.797 1494.216 443.961 1481.582 422.214 1462.04 416.582 1458.839 415.66 1454.573 415.405 1453.817 411.296 1453.088 407.327 1456.532 404.981 1459.35 403.228 1479.718 390.557 1488.853 370.951 1493.792 348.596 1494.908 343.542 1496.519 338.595 1497.93 333.607 1504.323 311.01 1517.458 294.435 1539.359 284.592 1550.504 279.584 1561.778 274.37 1569.507 263.644 1577.453 252.617 1579.202 241.192 1575.431 228.527 1571.041 213.781 1563.572 200.41 1556.077 187.159 1550.634 177.536 1550.797 169.912 1557.356 160.353 1575.654 133.687 1586.027 104.067 1585.884 71.274 1585.87 68.131 1586.504 64.987 1586.789 61.839 1587.4 55.074 1590.778 51.972 1597.739 53.358 1606.151 55.034 1612.835 51.654 1619.005 46.286 1629.52 37.138 1637.795 26.053 1646.436 15.272 1652.011 8.315 1657.143 .95 1665.035-3.782 1670.642-7.144 1670.835-11.973 1667.956-17.182 1665.973-20.773 1662.889-23.439 1659.457-25.639 1641.306-37.276 1621.778-39.142 1601.488-32.983 1591.814-30.046 1584.768-23.417 1579.129-14.884 1567.17 3.215 1547.746 6.426 1530.669-6.948 1505.737-26.474 1477.312-38.689 1447.23-47.382 1425.695-53.605 1407.115-50.242 1392.966-30.573 1386.247-21.231 1376.757-14.172 1365.687-9.95 1355.435-6.04 1349.405-10.026 1348.718-20.963 1347.728-36.721 1354.448-48.447 1368.892-54.869 1375.172-57.662 1381.823-59.809 1388.495-61.502 1409.505-66.834 1429.88-73.517 1448.753-84.582 1459.189-90.701 1464.19-89.202 1471.91-79.903 1474.662-76.589 1477.065-72.978 1479.546-69.446 1500.854-39.112 1530.719-30.076 1565.941-35.338 1578.798-37.258 1590.878-42.052 1602.639-47.761 1635.803-63.859 1646.238-93.264 1649.575-126.879 1650.456-135.755 1650.675-144.698 1651.015-150.502" fill="#231f20"/>
</g>
</g>
</svg>
