<svg xmlns="http://www.w3.org/2000/svg" width="2048" height="1920" viewBox="0 0 2048 1920"><defs><clipPath id="clip_1"><path d="M0 0h2048v1920H0Z"/></clipPath></defs><g clip-path="url(#clip_1)"><path fill="#231f20" d="M218.213 837.31c-5.514.676-9.143 3.4-9.4 9.258-.26 5.94 3.296 9.304 8.737 9.705 6.196.456 9.934-3.582 9.982-9.433.045-5.465-3.673-8.783-9.319-9.53m1615.548-.235c-5.599 1.118-9.603 4.09-9.267 10.34.305 5.666 3.821 9.11 9.572 8.968 6.158-.153 9.609-3.967 9.422-10.027-.178-5.753-4.066-8.535-9.727-9.281m-739.652 545.44c8.154 1.056 15.176-1.835 18.57-11.348 3.069-8.602 1.338-14.24-7.738-21.617-6.692-5.44-11.337-11.98-14.008-20.237-3.903-12.067-12.98-19.537-24.158-24.39-8.736-3.792-12.754-.54-13.664 8.826-1.204 12.383 4.038 21.516 12.469 29.833 6.753 6.66 12.885 13.587 12.281 24.543-.64 11.6 2.888 14.317 16.248 14.39m180.505 359.193c-14.412-.542-25.095-.304-35.436 2.5-5.842 1.587-11.472 4.159-12.951 11.214-3.947 18.834 4.721 29.819 24.014 29.57 28.692-.367 51.665-13.837 72.237-32.462 1.549-1.403 3.085-3.104 2.269-5.192-1.266-3.24-4.574-3.133-7.355-3.298-15.5-.918-31.009-1.702-42.778-2.332m-554.591-149.426c.86-7.778-3.184-9.643-9.475-8.241a52.8 52.8 0 0 0-10.609 3.573c-15.232 7.046-29.953 15.34-42.119 26.787-11.015 10.363-22.538 17.86-37.602 21.114-12.866 2.779-16.879 14.9-10.485 26.532 4.445 8.088 11.451 13.633 19.147 18.32 16.275 9.912 26.625 4.862 28.372-13.957.434-4.666 1.322-8.943 3.386-13.212 9.869-20.408 25.665-34.468 46.168-43.447 7.995-3.501 14.182-7.924 13.217-17.47m435.879-84.188c-6.815 1.019-13.715 1.657-20.425 3.148-9.124 2.026-18.647 4.788-21.253 15.162-2.535 10.092 5.515 15.843 12.077 21.184 16.302 13.27 32.494 26.32 42.639 45.535 3.954 7.488 11.014 12.81 20.776 10.418 9.941-2.437 18.052-12.075 19.478-21.861 1.876-12.87-5.795-21.135-13.655-29.225-9.496-9.774-18.344-19.876-22.354-33.29-2.58-8.634-8.615-11.713-17.283-11.071m-585.667 113.074c19.634.182 37.782-4.2 55.801-9.303 10.473-2.967 16.416-10.143 18.701-20.55 2.557-11.644-3.346-18.273-15.062-15.906-27.148 5.484-53.192 1.617-78.688-8.093-4.652-1.772-9.353-2.723-14.33-2.254-8.803.83-13.769 6.156-12.87 14.872.674 6.545 3.219 12.969 3.351 19.479.167 8.238 4.44 12.735 11.033 15.928 10.353 5.013 21.421 6.333 32.064 5.827m114.213 66.609c-.284 9.085.921 17.786 5.903 25.654 12.821 20.244 49.091 27.268 68.656 13.237 3.581-2.568 8.522-5.728 7.471-10.2-2.56-10.89-4.051-32.86-16.055-39.734-11.66-6.677-20.226-15.513-25.944-27.762-5.276-11.302-12.406-12.491-21.735-4.242-12.866 11.378-18.038 26.228-18.296 43.047m1083.621-648.454c-18.161 1.122-38.27 8.403-58.449 15.132-14.473 4.826-28.763 10.323-41.616 18.804-5.368 3.542-8.364 7.872-3.941 14.388 4.686 6.904 5.676 14.97 6.415 23.026 1.077 11.737 3.516 13.274 13.848 7.526 18.754-10.433 38.755-17.47 59.255-23.576 21.888-6.52 40.905-18.423 57.22-34.367 7.465-7.294 6.008-12.961-3.852-16.647-8.166-3.052-16.745-4.096-28.88-4.286m-300.931 549.029c.228-10.43-1.576-19.343-4.845-28.085-8.372-22.393-22.761-40.404-40.185-56.333-9.406-8.6-19.264-16.434-31.483-20.694-5.503-1.918-10.739-1.73-15.297 2.492-4.825 4.47-5.419 9.895-3.585 15.84 1.351 4.38 2.963 8.612 3.418 13.303 2.763 28.484 16.418 50.603 40.573 65.697 9.978 6.234 20.271 12.016 30.284 18.245 4.981 3.098 10.223 8.624 16.329 5.62 6.795-3.34 4.248-11.101 4.791-16.085m55.09 51.76c27.007.107 52.722-17.98 64.372-44.16 8.594-19.311 5.172-33.355-11.594-46.227-3.843-2.95-8.062-5.586-12.457-7.61-29.285-13.486-47.694-4.965-56.3 25.886-.693 2.484-1.102 5.053-1.563 7.597-2.904 16.04-1.239 32.8-8.343 48.23-2.651 5.76 1.305 9.95 6.428 12.372 6.618 3.127 13.736 4.152 19.457 3.913m315.167-647.19c-1.55-25.355-7.529-48.601-22.153-68.733-13.834-19.046-31.518-31.587-56.644-30.263-16.867.89-34.668 14.264-39.309 30.343-1.424 4.93-1.278 8.84 4.478 11.175 23.474 9.518 43.928 23.48 61.358 41.94 8.677 9.19 17.459 18.345 26.887 26.739 5.309 4.726 11.224 12.275 19.264 8.36 7.915-3.856 4.453-13.336 6.119-19.56M463.326 625.345c5.147-.567 10.288-1.186 15.44-1.693 25.755-2.531 51.514-6.788 77.258.103 3.559.952 7.769 3.049 10.369-.63 2.412-3.412-.167-7.307-1.922-10.512-7.519-13.734-16.921-26.1-28.593-36.557-20.079-17.99-41.186-15.666-56.616 6.332-5.203 7.418-11.969 10.257-20.653 9.943-12.744-.462-23.107-6.565-32.891-13.866-7.664-5.718-7.288-8.925 1.611-12.145 11.644-4.214 23.383-8.14 34.446-13.782 1.675-.854 4.372-1.025 3.896-3.695-.328-1.84-2.471-2.27-4.134-2.675-18.38-4.488-36.064-3.424-52.083 7.588-7.575 5.207-11.165 12.966-8.181 21.884 7.623 22.794 28.068 51.839 62.053 49.705m890.081 955.96c.301-10.824-2.011-21.288-4.27-31.671-3.926-18.043-8.638-35.91-19.384-51.401-7.321-10.554-17.796-14.992-27.299-11.891-9.824 3.206-14.45 11.208-14.321 24.875.024 2.59-.001 5.212.382 7.762 1.198 7.972 5.128 13.233 13.87 13.875 8.139.597 15.871 2.612 22.741 7.343 11.849 8.16 11.568 14.429-1.04 20.833-1.794.91-3.666 1.682-5.407 2.684-18.145 10.444-34.831 22.6-46.464 40.482-4.436 6.818-6.794 14.066-2.629 21.977 8.097 15.38 40.252 29.017 58.837 12.664 17.362-15.28 24.484-34.98 24.984-57.532M541.68 1504.97c.578 7.733.507 15.543 2.651 23.095 5.817 20.484 28.252 31.38 47.845 23.238 10.166-4.225 19.638-9.635 27.702-17.185 6.768-6.336 11.345-8.55 13.518-17.95 1.28-5.537 2.245-9.11-3.265-12.084-11.2-6.046-36.856-9.76-46.765-1.984-1.86 1.46-3.545 5.436-6.028 3.339-2.276-1.923-1.608-5.95-.387-8.918 1.641-3.987 5.167-6.376 8.99-7.606 19.989-6.433 40.796-14.98 61.211-5.635 8.995 4.117 25.337-.655 27.39-10.314.945-4.445-1.43-7.156-4.955-9.061-4.868-2.632-10.177-3.885-15.659-4.464-19.738-2.087-39.67-1.6-59.344-4.6-28.835-4.395-56.96 12.213-52.904 50.129m-85.704-530.915c-8.527-.288-20.235-3.061-30.717-9.584-15.546-9.675-16.344-23.556-2.333-35.097 11.534-9.501 25.317-12.043 39.641-12.186 10.216-.103 20.079-1.436 29.511-5.357 17.761-7.385 25.197-21.876 20.806-40.32-2.707-11.372-6.315-12.642-15.945-5.542-3.242 2.39-6.273 5.08-9.602 7.337-25.887 17.549-54.12 29.298-85.32 32.799-13.552 1.52-17.589 5.718-15.517 19.603 2.675 17.926 6.398 35.64 10.685 53.248 3.521 14.459 7.055 17.339 21.702 13.803 12.51-3.021 25.062-3.014 37.691-3.477 8.047-.295 16.125-.592 24.111-1.542 26.111-3.107 35.023-9.891 39.468-30.074 1.669-7.581 2.554-15.336 1.919-23.161-.87-10.706-5.986-13.686-15.588-8.635-9.255 4.87-16.099 11.97-18.837 22.456a75 75 0 0 1-2.975 8.996c-5.21 12.987-11.131 16.928-28.7 16.733m-52.035-283.551c-2.758-24.388-18.227-48.82-40.512-69.556-2.194-2.041-5.547-2.96-8.491-4.046-5.49-2.027-10.835-1.012-15.826 1.675-11.307 6.088-22.999 29.278-21.39 42.154 2.106 16.857 12.166 24.27 28.396 20.566 4.526-1.033 8.478-.533 12.443 1.656 6.551 3.615 13.065 7.319 19.777 10.615 6.205 3.047 7.627 8.035 5.124 13.639-6.362 14.24-15.419 26.607-30.107 33.047-18.533 8.127-31.255.314-33.45-19.471-.95-8.568-1.752-17.251-5.69-25.128-2.849-5.697-7.643-8.466-14.086-7.932-6.185.512-8.729 4.906-10.359 10.115-1.587 5.072-1.581 10.282-.427 15.373 4.403 19.437 15.094 34.697 31.676 45.609 8.461 5.568 17.962 7.69 28.083 5.372 32.131-7.358 53.884-34.003 54.839-73.688m1173.02 743.166c-.183 14.71 3.116 20.396 17.711 24.678 15.286 4.486 23.961 12.706 25.484 29.403 1.317 14.437 10.171 17.24 21.142 7.4 17.612-15.793 31.152-34.641 39.717-56.821 2.417-6.26 3.46-12.758 1.428-19.441-6.836-22.486-35.975-40.36-60.335-36.972-24.196 3.365-44.839 27.029-45.147 51.753m-426.016 51.5c14.251-.927 25.154 5.015 33.427 16.206 8.908 12.052 18.6 23.3 29.476 33.722 28.817 27.613 22.353 59.952-5.929 75.749-1.717.959-3.284 2.396-4.55 3.919-4.841 5.826-3.168 16.21 3.356 21.675 5.55 4.65 9.256 3.555 15.546-4.184 4.168-5.13 8.581-10.061 12.946-15.03 7.587-8.635 15.786-16.77 20.872-27.348 6.838-14.224 7.39-28.171-1.11-41.961-6.54-10.611-10.376-22.355-14.7-33.966-8.646-23.215-23.366-41.772-46.382-52.008-13.459-5.986-26.512-12.387-38.998-20.22-11.74-7.363-24.27-13.427-38.632-13.497-12.397-.061-21.147 8.09-21.067 20.253.143 21.378 21.762 45.615 44.655 38.245 3.501-1.127 7.384-1.066 11.09-1.555m87.45 187.064c-.156 15.469 8.302 27.025 24.635 32.584 17.557 5.976 35.732 9.045 54.276 9.067 21.483.024 35.634-6.666 35.842-31.577.059-6.99 3.797-12.467 11.346-12.905 7.372-.428 10.463 5.137 12.115 11.323 3.235 12.11 7.224 14.244 18.69 8.267 16.441-8.57 29.429-21.09 38.758-37.122 7.274-12.5 4.997-22.873-6.704-31.693-9.88-7.45-21.359-11.141-33.443-13.006-9.529-1.471-13.33.587-15.953 10.09-3.777 13.684-12.621 22.939-24.192 30.144-10.863 6.763-23.021 10.249-35.109 14.067-18.061 5.704-34.177 2.955-49.959-7.64-19.935-13.382-27.833-9.098-30.141 14.953-.11 1.144-.122 2.298-.161 3.448m-910.143-276.545c.582 19.41 5.787 35.49 17.573 54.283 12.631 20.142 30.984 27.097 54.069 20.49 9.968-2.851 11.398-7.156 4.084-14.121-17.251-16.428-28.757-36.526-37.796-58.201-2.197-5.268-3.912-10.871-4.888-16.486-1.641-9.441 2.948-14.24 12.583-13.675 10.465.613 17.626 6.504 22.396 15.355 3.681 6.83 6.674 14.028 10.197 20.948 5.611 11.022 10.847 22.365 19.774 31.227 9.434 9.366 20.654 6.407 24.548-6.346 2.152-7.05 1.684-14.376.105-21.38-8.538-37.884-25.303-72.026-47.872-103.454-3.308-4.608-7.747-7.662-13.167-9.285-5.625-1.684-8.7.297-9.742 6.207-2.351 13.346-1.659 15.383 10.042 22.879 4.283 2.743 6.869 6.18 6.069 11.377-.865 5.622-5.471 7.042-10.054 7.95-3.076.61-6.308.395-9.461.666-30.881 2.65-49.337 22.3-48.46 51.566m885.6 346.68c.14-47.616-39.067-105.763-83.247-123.456-7.895-3.163-13.086-.208-14.228 10.18-1.205 10.97-5.551 20.267-10.768 29.65-8.942 16.08-5.838 25.822 10.461 34.716 5.856 3.196 11.337 6.83 15.965 11.614 17.675 18.273 30.528 39.54 38.842 63.518 2.6 7.502 3.341 15.209-.197 22.735-2.826 6.01-1.342 9.733 5.284 11.638 13.041 3.75 25.652 1.982 38.03-2.591 5.552-2.051 6.259-5.901 1.79-9.734-8.343-7.155-7.753-16.083-5.582-25.352 1.771-7.563 3.725-15.071 3.65-22.917m-343.592-93.55c.025-17.511-6.704-29.55-20.028-37.137-4.985-2.84-6.664-7.214-7.868-12.584-3.427-15.282.686-29.63 4.08-44.23 2.662-11.451-2.976-17.65-14.738-17.458-4.417.072-8.581 1.167-12.486 3.08-16.122 7.902-27.312 20.803-36.034 36.08-3.337 5.847-2.029 9.103 5.375 9.014 7.551-.091 15.274.315 20.884 6.307 10.291 10.99 18.05 24.284 13.168 39.043-5.094 15.399-17.254 26.407-33.249 31.598-6.46 2.096-8.804-.767-6.534-7.242 1.901-5.42 4.655-10.548 5.164-16.402.774-8.903-6.291-19.16-15.032-21.81-9.147-2.775-19.035.749-25.367 12.128-5.018 9.019 1.898 15.833 7.813 20.2 11.102 8.199 17.027 17.912 20.375 30.815 2.55 9.825 6.464 19.034 12.645 27.236 6.113 8.113 11.117 14.247 21.233 13.486 15.142-1.138 25.299-10.255 34.736-20.55 13.884-15.148 24.319-32.094 25.863-51.573M580.479 704.265c-.179-14.451-1.519-28.724-7.917-42.04-10.669-22.206-39.852-34.446-60.405-25.286-2.852 1.27-6.625 2.38-6.624 6.03.001 4.053 3.875 5.395 7.113 6.602 6.59 2.457 13.549 2.369 20.447 2.672 8.82.388 17.368 3.115 21.269 11.094 12.196 24.946 15.399 50.66 1.566 76.185-6.873 12.68-16.371 12.768-24.473.697-5.521-8.226-11.489-16.152-20.015-21.19-19.24-11.368-27.249-25.802-17.288-47.992 4.052-9.025-1.879-16.397-11.818-17.71-4.964-.653-9.684.226-14.278 2.286-29.042 13.024-36.715 43.692-17.005 68.396 2.69 3.372 5.627 6.557 8.576 9.71 21.112 22.576 34.856 49.195 43.191 78.75 2.911 10.319 4.457 10.96 12.736 3.68 16.049-14.11 30.583-29.596 43.396-46.785 14.466-19.407 22.38-40.726 21.529-65.1M374.453 1177.14c-.185-11.026-2.433-21.743-4.15-32.54-2.082-13.082-8.121-23.73-18.191-32.345-8.009-6.852-14.387-6.994-21.875.554-6.952 7.007-10.936 15.89-11.73 25.41-1.339 16.044-4.185 31.963-4.045 48.142.151 17.47-8.598 22.906-24.911 15.766-4.582-2.006-8.353-5.171-11.769-8.637-14.571-14.784-25.524-32.012-31.924-51.702-5.726-17.613-7.555-35.03 8.726-49.191 5.424-4.718 4.627-10.887 1.115-16.532-7.507-12.067-18.695-19.428-32.048-23.382-10.586-3.134-14.495-.122-15.049 10.879-.833 16.543 2.305 32.639 5.764 48.7 13.352 62.006 53.282 101.672 108.519 127.966 18.541 8.827 36.366 1.235 45.118-17.407 6.836-14.562 6.531-30.155 6.45-45.681m1451.322-45.47c.148-7.878-.786-15.546-3.918-22.835-3.67-8.54-8.386-10.99-16.231-6.466-16.251 9.37-34.296 13.09-51.965 18.152-23.807 6.82-46.145 16.81-63.953 34.437-13.015 12.885-19.631 28.27-12.585 47.01 2.468 6.566 2.156 13.565 2.28 20.49.445 24.792 8.677 30.664 31.94 22.095 38.925-14.338 71.491-37.995 98.58-69.2 10.776-12.412 15.654-27.288 15.852-43.683M450.658 517.822c16.997-.09 31.508.766 45.121-5.416 11.878-5.394 17.391-13.636 15.662-25.91-2.997-21.265 1.173-40.487 13.478-58.195 6.596-9.491 8.184-20.015 4.003-31.255-3.55-9.545-4.656-19.584-4.514-29.747.101-7.235-.6-14.395-2.254-21.427-5.722-24.331-25.223-31.863-45.751-17.164-12.804 9.168-21.794 22.049-30.574 34.926-1.559 2.286-2.813 5.342 1.252 5.914 9.965 1.403 12.642 8.839 14.972 16.785 3.938 13.43 10.403 24.295 23.905 30.993 12.147 6.026 14.158 17.057 5.567 28.304-13.52 17.698-30.34 32.208-48.099 45.589-4.534 3.416-8.52 2.693-11.982-1.658-18.389-23.104-19.219-37.385-6.791-58.273 3.534-5.941 7.588-11.547 12.935-16.096 3.45-2.935 5.216-6.797 5.599-11.294.365-4.283-.487-8.254-4.423-10.525-4.259-2.458-8.276-1.315-11.907 1.829-3.974 3.442-6.879 7.715-9.781 12.013-22.509 33.33-27.278 70.892-26.271 109.843.213 8.226 5.544 8.94 11.327 6.889 16.639-5.903 33.736-7.035 48.526-6.125m163.96 329.865c-3.177-.402-6.352-.607-9.441-1.233-8.236-1.666-11.721-8.702-6.631-15.332 6.048-7.878 8.135-17.046 10.869-26.053 2.722-8.965 7.097-16.862 12.786-24.27 8.559-11.144 20.576-15.971 33.354-20.202 11.948-3.956 13.709-9.418 7.5-20.288-9.018-15.788-19.323-30.712-31.998-43.808-4.679-4.833-9.649-11.907-17.249-9.121-7.552 2.77-5.734 11.388-5.908 17.617-.522 18.716-4.199 36.556-12.747 53.229-9.55 18.625-23.223 34.234-37.185 49.582-7.409 8.145-14.292 16.617-17.502 27.392-4.379 14.703 2.752 26.515 10.654 37.545 4.809 6.715 12.75 4.137 19.361 2.67 37.457-8.311 75.565-11.65 113.614-15.626 18.009-1.882 36.085-4.337 52.826-11.895 11.05-4.987 11.716-10.49 2.623-18.366-15.284-13.24-28.993-27.953-41.788-43.573-2.53-3.09-5.319-6.157-8.548-8.444-6.797-4.816-14.03-2.084-15.92 5.986-.906 3.87-.76 7.997-.984 12.014-1.565 28.1-14.096 44.63-37.999 49.55-6.462 1.33-13.108 1.774-19.687 2.626m57.379 703.427c27.544-2.585 29.739-.03 57.464-17.096 12.285-7.563 25.718-13.525 40.157-15.007 10.751-1.103 20.029-4.634 28.928-10.206 16.593-10.39 33.291-20.643 50.932-29.161 10.219-4.934 19.621-10.972 28.128-18.342 23.745-20.571 45.382-43.336 67.091-65.965 13.325-13.891 20.888-30.951 21.089-50.631.089-8.661-3.656-10.974-11.325-6.777-4.765 2.608-9.314 5.793-13.471 9.298-19.804 16.694-39.367 33.673-59.158 50.382-16.609 14.022-34.326 25.96-55.915 31.45-10.918 2.777-19.65 9.58-25.028 19.842-4.679 8.927-5.84 17.72.311 26.853 6.364 9.45 2.327 17.964-9.313 19.827-11.75 1.88-23.58 1.658-35.138-1.581-12.345-3.46-14.592-8.737-8.128-19.942 3.681-6.381 1.492-9.578-4.698-11.565-7.535-2.418-14.258.26-20.635 3.702-11.445 6.176-19.894 15.574-26.692 26.465-11.342 18.174-25.555 33.278-44.886 43.13-2.03 1.036-3.846 2.535-5.649 3.96-2.245 1.774-5.084 3.582-4.404 6.859.805 3.88 4.754 4.186 7.651 4.362 7.164.436 14.373.143 22.689.143m898.442-991.791c-.873 14.308 2.433 17.536 17.6 16.269 31.717-2.648 63.283-1.041 92.299 12.42 19.094 8.858 45.719-14.122 40.88-34.201-4.609-19.131-14.211-35.05-28.495-48.316-4.993-4.636-9.262-3.642-12.654 2.107-1.756 2.975-3.592 5.902-5.358 8.87-5.296 8.905-12.867 15.605-21.665 20.65-5.37 3.08-12.547 6.575-17.022-.414-7.336-11.458-16.885-21.158-24.269-32.497-12.314-18.908-11.066-32.434 4.371-48.78 1.78-1.884 4.004-3.48 5.338-5.631 4.764-7.685 13.996-13.191 13.862-23.218-.255-19.225-4.603-37.752-13.82-54.72-6.572-12.1-18.29-14.324-29.969-7.09-6.889 4.268-10.32 10.695-12.433 18.014-3.698 12.809-4.555 26.015-5.233 39.264-2.343 45.729.859 91.595-3.432 137.273M374.307 1028.82c.041-18.178-1.642-36.254-4.246-54.18-2.261-15.567-3.537-31.52-11.702-45.663-5.443-9.428-10.164-12.154-19.519-10.233-19.196 3.944-38.019 9.217-56.132 16.773-21.229 8.857-39.52 21.474-50.699 42.235-9.711 18.037-6.451 32.916 8.835 46.182 9.092 7.89 19.538 13.843 30.743 17.076 26.577 7.67 52.168 16.815 75.85 31.707 12.356 7.769 21.734 1.726 25.074-12.947 2.327-10.225 1.515-20.62 1.796-30.95m1375.802-27.025c7.198 0 11.094 2.04 18.289 1.87 3.638-.084 8.199.507 9.934-3.457 1.787-4.081-2.021-6.77-4.437-9.524-18.778-15.39-32.221-23.451-55.358-23.83-19.399-.318-36.914-7.817-53.347-19.193-15.471-10.71-32.525-17.1-50.64-21.117-19.323-4.284-38.937-7.122-55.732-19.32-7.124-5.173-14.136-2.185-18.824 5.819-4.287 7.319-6.457 15.44-7.001 23.828-1.764 27.183 2.329 52.514 28.566 67.32 23.343 13.174 48.834 21.718 74.391 29.585 11.253 3.463 21.74.15 30.045-8.467 5.908-6.13 12.878-10.535 20.624-13.84 20.328-8.672 41.742-10.29 63.49-9.674m-758.89 626.812c.477 4.54-.207 9.982-2.2 15.127-3.563 9.197-10.131 12.994-17.376 8.5-16.024-9.94-31.01-21.266-34.549-41.73-.52-3.007-1.765-5.047-4.437-6.881-8.28-5.685-12.607-30.905-5.659-37.938 9.511-9.627 14.168-21.597 19-33.536 4.378-10.816 11.375-19.18 20.545-26.062 19.044-14.293 40.24-21.337 64.249-21.651 17.081-.223 20.368-5.083 19.148-22.113-.5-6.976-2.48-13.55-5.779-19.736-4.78-8.962-11.178-16.758-17.747-24.398-13.638-15.862-21.223-15.566-34.026 1.084-.351.456-.721.902-1.028 1.388-6.121 9.68-14.392 16.859-24.176 22.892-22 13.568-38.808 32.41-46.769 56.924-6.824 21.012-16.581 39.617-31.105 56.033-6.489 7.336-8.56 16.01-6.677 25.767 2.235 11.586 4.337 23.212 5.975 34.894 1.553 11.079 5.313 21.174 11.748 30.25 7.491 10.568 15.127 21.033 22.742 31.512 3.508 4.827 7.922 8.39 14.089 9.06 20.315 2.2 38.612-3.218 50.835-19.595 13.739-18.406 20.303-40.99 31.021-61.241.379-.717.204-1.71.396-2.548 1.202-5.274-.915-8.886-5.492-11.42-9.904-5.484-20.316-9.531-31.563-11.165-2.771-.403-6.289-1.583-8.052 1.175-1.996 3.122 1.469 4.99 3.159 7.138 8.604 10.938 14.054 23.039 13.728 38.27m782.434-859.772c.253-5.921-.474-11.728-2.909-16.983-10.914-23.55-19.368-48.022-28.135-72.405-4.505-12.532-11.478-23.946-21.988-32.607-8.634-7.116-15.963-5.471-20.965 4.45-3.815 7.565-5.07 15.847-6.376 24.1-3.743 23.662-8.849 46.944-18.747 68.946-7.922 17.61-18.927 32.157-37.486 39.826a110.5 110.5 0 0 0-16.845 8.719c-12.15 7.695-13.796 16.686-5.26 28.282 6.143 8.345 12.404 16.645 19.194 24.46 7.399 8.516 15.424 16.608 27.525 18.064 22.167 2.668 40.521-4.328 53.414-22.834 8.873-12.736 19.152-23.082 32.959-30.892 15.361-8.69 25.696-22.118 25.619-41.126m-633.194-553.467c-.988-11.56-3.193-25.104-10.179-36.86-9.303-15.657-23.259-25.56-42.046-26.191-10.417-.35-19.769 10.192-20.133 20.996-.299 8.903 4.744 13.088 17.484 14.5 1.717.19 3.437.359 5.156.529 16.896 1.68 24.819 10.046 24.625 27.168-.172 15.137-3.729 29.67-10.327 43.34-7.094 14.699-18.94 22.718-35.26 21.373-29.975-2.471-52.839-18.313-70.932-41.274-6.689-8.49-5.225-18.506-.323-27.796 8.791-16.662 21.448-30.08 40.271-27.852 5.131.607 8.232-1.02 9.68-6.135 5.727-20.224-.071-39.8-20.39-45.428-15.303-4.24-28.958-1.731-41.349 8.314-19.167 15.54-33.368 34.899-43.89 57.005-9.901 20.803-7.173 38.492 10.032 54.088 31.82 28.844 62 59.345 92.529 89.496 4.008 3.959 6.52 3.882 10.757.63 28.459-21.84 52.253-47.743 69.878-79.101 7.823-13.918 14.158-28.351 14.417-46.802m-373.032 9.702c-11.787-.22-22.896 2.354-32.976 8.553-13.382 8.23-17.285 22.035-8.849 34.859 10.881 16.538 24.713 30.423 42.476 39.65 13.607 7.069 22.284 2.193 24.125-13.066.794-6.575 1.262-13.186 3.251-19.543 4.061-12.98 11.136-16.466 23.636-11.11 10.134 4.342 18.835 11.085 27.332 17.99 13.378 10.873 17.064 23.382 11.75 40.037-2.271 7.118-4.636 14.25-7.63 21.083-3.825 8.728-2.932 16.422 2.2 24.439 18.244 28.504 39.444 54.556 63.656 78.17 7.843 7.65 15.911 15.079 26.008 19.759 6.244 2.894 11.348 2.84 14.854-4.624 6.262-13.328 14.482-25.543 23.32-37.284 11.768-15.635 23.891-31.004 35.749-46.572 7.772-10.204 6.457-15.108-5.376-20.395-4.99-2.23-10.55-3.448-15.109-6.31-6.857-4.302-11.868-2.69-16.478 3.014-7.779 9.62-15.353 19.414-23.339 28.859-6.904 8.165-14.514 15.65-24.937 19.343-14.757 5.23-23.847-.463-25.103-15.932-1.333-16.413 2.086-32.008 8.487-47.102 3.25-7.666 8.702-12.382 16.351-15.49 5.011-2.035 13.017-1.9 13.451-8.825.413-6.595-6.949-9.177-11.364-13.101-.214-.19-.476-.324-.716-.483-39.408-26.222-80.567-49.212-124.636-66.685-12.831-5.088-25.922-9.77-40.133-9.234m24.194 321.197c-5.281-9.664-13.798-14.626-21.269-20.701-24.997-20.327-48.296-42.222-62.176-71.932-19.832-42.454-33.833-86.894-42.265-132.981-2.477-13.54-3.306-27.383-4.801-41.098-.764-7.006-4.628-6.525-8.837-3.41-5.862 4.34-7.387 10.437-6.546 17.644 2.452 21.006 1.057 42.002-1.091 62.94-.374 3.645-1.772 7.24-3.067 10.72-1.94 5.216-6.239 6.335-10.488 3.77-19.237-11.618-34.09-26.742-36.471-50.464-1.581-15.755 5.4-25.867 20.361-30.953 4.076-1.386 8.235-2.564 12.22-4.175 4.47-1.807 5.488-5.656 4.761-9.99-.703-4.19-3.911-5.306-7.641-5.57-6.363-.448-12.607.168-18.896 1.307-23.346 4.227-45.78 11.477-67.73 20.262-11.546 4.62-12.307 9.555-3.102 17.669 5.018 4.424 7.904 9.718 8.622 16.366.714 6.615.715 13.187.248 19.828-1.036 14.725-1.275 29.547 4.712 43.392 6.713 15.523 17.545 29.133 39.64 19.28 11.155-4.973 23.075-6.793 35.437-6.184 36.561 1.798 53.016 32.722 53.225 56.196.078 8.732-2.985 11.513-11.608 10.86-3.095-.234-6.518-.743-9.108-2.28-14.363-8.517-30.126-6.52-45.575-6.302-7.158.1-8.544 3.752-4.102 9.484 5.916 7.637 13.808 12.995 21.905 18.025 38.507 23.923 79.571 41.492 124.283 50.075 13.161 2.526 26.242 5.47 39.359 8.222m546.432 355.515c.202 3.163.265 6.342.632 9.485 1.216 10.403 3.695 19.732 15.77 23.069 4.641 1.283 8.305 5.05 11.879 8.449 15.702 14.933 45.13 17.088 62.522 4.317 3.821-2.805 6.702-2.565 9.898.395 2.323 2.15 4.681 4.262 7.001 6.416 9.832 9.127 18.49 9.417 28.043.356 20.416-19.365 37.54-41.317 50.907-66.122 7.999-14.844 9.912-30.096 5.202-46.682-6.101-21.49-17.629-39.903-30-57.998-15.737-23.021-47.748-29.865-71.395-15.431-3.938 2.404-5.196 5.968-5.364 10.168-.182 4.584 3.092 6.544 6.634 8.068 4.536 1.952 9.292 3.055 14.274 2.878 13.662-.485 23.779 5.864 31.312 16.674 13.37 19.184 15.903 42.314 22.611 63.89 2.073 6.666-2.252 11.252-9.021 12.04-26.785 3.126-41.089-2.488-51.733-25.446-2.297-4.955-4.251-10.072-6.287-15.145-3.794-9.456-8.666-18.226-16.43-25.036-16.1-14.121-36.321-11.037-47.693 7.019-4.14 6.572-8.198 13.309-13.197 19.205-14.769 17.423-16.046 38.149-15.565 59.43m-338.705 870.555c36.254-.543 69.129 3.106 98.972 21.056 4.357 2.62 9.488 4.195 14.457 5.518 15.043 4.008 27.777-5.16 29.237-20.717 1.217-12.968-2.059-24.77-10.549-34.57-11.642-13.434-26.253-23.312-41.886-31.43-9.125-4.74-14.357-2.682-20.489 6.165-5.757 8.306-11.745 16.403-19.26 23.217-12.405 11.247-26.336 11.148-38.569-.367-3.567-3.357-7.16-7.061-5.999-12.657 1.197-5.771 6.139-7.016 10.879-8.51 17.757-5.588 32.1-16.474 44.712-29.708 5.728-6.01 8.371-13.71 8.539-22.097.199-9.963 2.86-19.305 7.013-28.276 3.627-7.835 7.396-15.605 10.921-23.485 4.475-10.005 8.776-20.106 8.249-31.421-1.39-29.782-16.843-50.878-41.899-65.146-26.012-14.812-50.028-6.515-72.89 8.48-2.559 1.679-6.028 3.595-5.196 7.22.838 3.654 4.746 3.63 7.816 4.062 26.243 3.685 48.663 15.21 68.065 32.992 12.473 11.43 15.778 25.018 9.224 40.648-9.935 23.69-21.938 46.26-37.071 67.102-4.692 6.46-10.598 11.032-17.928 14.36-13.235 6.008-27.154 9.335-41.264 12.295-11.967 2.51-13.657 7.962-5.649 17.259 2.249 2.61 4.903 4.87 7.175 7.463 3.536 4.036 6.45 8.574 3.965 14.089-2.46 5.463-7.754 6.364-13.113 6.615-8.746.41-16.49-2.253-23.124-7.91-3.941-3.36-7.582-7.068-11.496-10.46-17.522-15.184-45.873-8.651-55.422 12.724-8.5 19.029 10.041 42.037 32.98 40.797 6.919-.374 13.694-1.8 20.309-3.898 26.594-8.44 53.822-12.347 79.291-11.41m283.838-1196.08c2.452 1.699 4.104.587 5.597.018 21.088-8.04 43.089-12.66 65.16-16.674 47.941-8.721 92.697-25.07 133.036-52.846 19.613-13.505 33.96-31.713 47.081-51.108 1.261-1.863 3-4.114 1.72-6.352-1.585-2.772-4.657-1.608-7.071-1.313-11.431 1.395-18.819 9.204-23.968 18.109-10.045 17.374-26.098 21.287-43.945 22.27-8.349.46-13.499-3.584-13.938-11.89-.774-14.644 3.192-27.896 13.851-38.592 5.883-5.902 12.829-8.5 21.204-7.098 9.652 1.614 19.294 3.382 29.006 4.515 20.27 2.366 28.73-4.942 30.594-25.157 1.954-21.184 6.907-41.374 20.004-58.92 6.845-9.17 5.846-16.863-3.222-24.104-13.651-10.898-28.932-18.847-46.213-22.416-5.923-1.223-11.902-2.284-18.011-1.773-3.466.289-7.234.43-9.215 3.746-2.261 3.785.954 6.47 2.832 9.218 2.921 4.274 6.625 8.106 8.998 12.647 15.016 28.745 4.939 52.866-23.856 65.404-5.239 2.28-9.865 1.085-9.274-6.443.797-10.163-3.072-18.578-10.03-25.712-8.792-9.015-8.927-18.657-2.61-29.07 2.827-4.66 5.59-9.442 5.857-15.15.391-8.37-4.747-12.795-12.589-9.75-12.041 4.678-21.933 11.959-23.108 26.272-.705 8.598-.662 17.255-1.033 25.882-1.087 25.299-1.062 50.744-9.531 75.105-12.097 34.797-36.284 60.476-63.959 83.162-18.691 15.32-38.88 28.836-55.368 46.749-3.047 3.31-6.697 6.268-7.999 11.27m-41.753-32.101c13.442-.004 26.361-2.174 38.878-7.153 29.328-11.667 52.557-31.598 74.137-53.901 17.232-17.81 32.071-36.967 37.502-61.917 4.352-19.994 5.606-39.99-1.034-59.664-7.399-21.924-25.965-29.464-46.49-19.11-22.211 11.204-42.606 25.219-61.604 41.237-10.675 9-18.972 20.075-26.083 31.987-2.709 4.539-7.53 10.083-3.516 14.91 3.942 4.74 9.839.186 14.347-1.614 20.593-8.227 39.883-6.207 58.418 5.826 9.851 6.395 11.132 11.594 3.81 21.122-7.375 9.598-15.902 18.186-24.32 26.884-13.916 14.38-47.534 18.333-62.395-.044-6.3-7.79-14.842-8.138-23.514-3.908-4.379 2.136-8.781 4.424-12.684 7.305-22.965 16.958-42.109 37.07-55.335 62.897-23.275 45.452-39.905 93.677-60.098 140.406-1.18 2.729-2.086 5.619.16 8.123 2.279 2.54 5.479 1.883 8.081.888 17.722-6.777 34.236-15.24 43.364-33.243 2.562-5.055 6.376-8.874 11.348-11.462 6.378-3.32 12.772-6.627 19.304-9.622 18.651-8.554 31.055-23.407 40.953-40.657 1.994-3.474 5.224-7.907 1.258-11.871-3.475-3.474-7.78-.834-11.337.555-10.175 3.975-19.87 9.114-30.399 12.279-6.119 1.84-8.397.155-8.272-6.382.319-16.672 8.134-30.201 16.831-43.632 6.698-10.347 15.619-14.661 27.763-13.227 10.283 1.214 20.616 2.008 30.927 2.988m379.593 57.91c-22.947-2.201-42.896 6.395-62.026 17.682-33.527 19.782-59.637 47.752-84.597 76.95-7.111 8.32-14.061 16.785-19.043 26.647-5.744 11.37-3.952 14.565 8.548 14.136 10.958-.376 20.332 3.48 28.742 9.959 13.711 10.56 23.49 24.392 31.961 39.27 4.982 8.75 9.371 17.89 15.793 25.739 7.803 9.535 13.518 9.774 22.103 1.1 1.817-1.835 3.543-3.807 5.037-5.911 8.078-11.373 17.857-20.912 29.106-29.234 14.811-10.956 29.842-21.957 41.104-36.753 21.537-28.296 29.557-61.317 31.747-96.096.824-13.092-3.925-23.678-13.409-33.19-10.189-10.218-22.083-11.28-35.066-10.3M182.639 932.704c.205 6.222.005 11.41 1.679 16.44 2.273 6.83 3.899 14.88 12.334 16.024 8.081 1.096 10.88-6.51 14.007-12.128 6.559-11.788 14.75-21.877 26.32-29.13 32.866-20.598 69.565-30.072 107.23-35.974 34.486-5.403 68.672-11.121 101.042-25.155 17.201-7.458 26.69-19.832 28.169-37.97 2.239-27.453-5.028-52.462-21.875-74.406-6.401-8.338-9.527-8.622-17.806-2.046-27.288 21.678-58.823 33.89-92.705 39.477-21.475 3.54-41.962.3-56.738-18.904-5.216-6.78-10.211-6.338-13.885 1.368-6.579 13.8-15.272 25.604-27.447 34.906-4.975 3.8-4.204 8.446-.684 12.828 2.719 3.384 5.537 6.652 6.449 11.054 3.36 16.22 2.46 32.096-4.482 47.288-5.802 12.696-14.059 15.585-26.687 9.812-10.823-4.95-16.948-3.437-23.392 6.546-8.027 12.433-10.855 26.449-11.529 39.97m349.702-450.517c-.709 9.958 1.263 19.482 4.456 28.833 8.88 26.009 23.565 48.68 41.082 69.488 19.709 23.41 37.892 47.84 53.704 74.043 2.223 3.683 4.878 7.133 7.581 10.49 1.947 2.42 4.09 5.377 7.734 4.43 3.672-.951 4.233-4.755 4.589-7.688.974-8.016 2.114-15.976 4.282-23.758 3.046-10.936 7.521-21.235 15.265-29.68 3.872-4.224 8.4-7.666 13.442-.815 11.663 15.847 25.807 29.398 40.086 42.809 6.109 5.737 9.711 12.543 10.578 21.074 1.39 13.684 7.825 20.88 21.07 23.847 9.686 2.17 19.505 1.91 29.148-.454 3.201-.784 7.52-1.023 8.28-5.156.668-3.627-3.018-5.238-5.283-7.293-4.896-4.441-10.209-8.456-14.821-13.164-4.199-4.286-3.72-9.743-.603-14.322 3.086-4.534 7.76-2.841 11.71-.99 3.894 1.825 7.559 4.167 11.227 6.438 9.291 5.753 19.274 9.033 30.291 8.56 13.866-.595 25.634-5.46 31.664-18.696 5.804-12.742-.836-23.357-8.971-32.107-19.423-20.893-42-37.684-69.161-47.385-37.719-13.471-76.911-22.05-115.03-34.235-35.794-11.443-68.817-27.71-97.097-52.895-7.39-6.581-13.55-14.073-19.187-22.121-2.124-3.031-4.599-6.714-8.778-6.037-4.417.716-4.615 5.229-5.656 8.789-1.73 5.913-1.343 11.983-1.602 17.995M986.67 505.08c.109 33.424 13.879 72.345 31.135 91.45 15.261 16.896 31.531 19.155 50.788 6.883 21.219-13.522 34.894-33.29 44.694-55.824 16.799-38.63 25.712-77.136-1.697-115.513-9.069-12.7-7.653-27.355-1.911-41.415 5.333-13.061 15.187-14.582 24.408-3.853 7.804 9.08 10.783 20.119 12.704 31.62 2.652 15.885 2.463 32.136 6.434 47.86 1.204 4.77 2.183 7.078 6.856 2.628 22.571-21.5 43.744-44.221 61.822-69.695 1.721-2.425 3.195-4.43.031-7.327-9.004-8.244-9.163-18.788-6.264-29.562 6.332-23.527 20.303-42.36 37.371-59.144 3.427-3.371 7.679-5.335 12.613-3.573 5.024 1.795 4.999 6.448 5.663 10.73 2.265 14.602-1.368 28.6-4.154 42.702-.71 3.59-2.699 7.877.327 10.67 3.424 3.16 7.036-.478 10.207-1.942 19.104-8.82 37.61-18.791 55.568-29.751 15.257-9.311 30.338-18.925 43.16-31.535 8.386-8.248 8.047-14.942-.758-22.622-2.156-1.881-4.496-3.673-7.02-4.994-32.409-16.963-66.899-23.034-102.9-17.193-22.42 3.639-42.239 14.945-61.853 25.872-40.614 22.625-79.602 47.664-112.358 81.127-25.403 25.952-36.295 57.875-.393 88.614.218.187.416.398.618.604 6.246 6.336 7.14 13.706 3.336 21.408-2.276 4.609-5.364 8.866-8.429 13.03-10.071 13.684-21.092 26.799-22.508 44.896-.224 2.855-1.199 6.379-5.181 7.156-4.232.825-7.214-.978-9.589-4.285-10.769-14.991-17.933-31.457-20.275-49.855-1.975-15.52.447-29.836 11.604-41.773 2.767-2.961 4.861-6.494 5.831-10.471 1.436-5.888-1.537-9.14-7.428-7.837-5.728 1.267-10.466 4.598-14.956 8.319-11.37 9.424-17.56 22.655-25.681 34.48-8.636 12.575-12.621 26.38-11.815 38.115m24.347 216.364c-.5-7.176-.782-14.375-1.539-21.523-3.031-28.65-16.918-52.94-31.53-76.815-22.834-37.307-47.446-73.595-60.941-115.88-3.211-10.061-9.064-19.225-16.01-27.496-9.023-10.746-20.242-14.764-33.93-11.774-7.873 1.72-15.688 3.718-23.581 5.334-6.855 1.404-13.91 2.048-20.297-1.432-18.152-9.891-31.705-24.657-42.852-41.753-3.155-4.838-2.081-9.275 2.714-12.772 17.46-12.736 47.273-8.422 60.4 8.78 3.324 4.356 6.546 8.879 11.714 11.254 3.024 1.39 6.359 1.789 8.808-.97 2.19-2.468.199-4.944-1.092-7.086-1.629-2.702-3.506-5.273-5.447-7.768-21.515-27.634-47.217-51.175-72.968-74.686-14.287-13.044-28.782-25.813-46.13-34.685-24.775-12.67-37.597-4.737-35.147 22.894 5.18 58.425 27.636 110.272 63.905 155.927 17.157 21.598 34.522 23.607 58.376 10.115 14.086-7.968 29.148-10.591 45.002-6.966 4.737 1.083 9.9 2.813 10.844 8.568.903 5.502-3.534 8.372-7.411 10.659-6.929 4.089-14.364 7.314-21.358 11.304-10.575 6.032-12.557 12.848-7.23 23.786 4.226 8.68 11.055 15.357 17.492 22.336 14.598 15.829 31.933 29.463 41.606 49.309 9.788 20.08 22.406 37.357 41.76 49.412 8.478 5.28 13.28 13.627 12.573 24.109-.814 12.08-1.146 23.879 3.186 35.688 2.813 7.669-1.103 12.055-9.337 12.534-6.973.406-13.915-.667-20.321-3.336-15.174-6.324-30.415-14.473-25.81-37.665 1.059-5.331.743-10.92 1.452-16.337 1.407-10.762-2.656-19.821-8.637-28.19-4.937-6.907-9.168-6.69-12.438 1.19-3.969 9.563-10.055 17.37-17.066 24.695-10.7 11.177-15.81 24.44-15.222 39.989.26 6.895-.238 13.77-1.619 20.619-1.702 8.437-6.676 13.109-14.906 14.61-12.746 2.325-25.463 4.857-38.277 6.726-5.933.865-12.076.654-18.104.416-5.476-.216-8.847-3.448-10.524-8.727-1.623-5.11 1.119-8.252 4.505-11.148 7.035-6.016 15.149-10.451 22.873-15.462 4.206-2.727 11.674-4.901 10.545-9.92-1.357-6.033-9.286-4.353-14.283-4.408-19.047-.208-37.924-1.433-56.772-4.43-12.087-1.92-24.068-.04-35.551 4.76-20.115 8.407-21.617 14.848-5.961 30.64 11.957 12.062 24.641 23.399 36.725 35.338 7.475 7.386 15.826 13.288 25.255 17.859 26.719 12.954 55.015 16.72 84.205 13.698 11.96-1.24 23.606-.52 35.217 1.669 19.791 3.73 39.416 8.387 59.262 11.76 25.742 4.376 40.111-2.71 53.131-25.357 14.105-24.537 20.153-51.227 20.741-79.392m71.245 68.74c.142 14.437 1.988 28.72 4.034 42.969 1.595 11.104 3.16 22.26 7.796 32.647 1.051 2.354 2.189 5.089 5.241 5.13 3.026.04 4.284-2.611 5.457-4.928 3.122-6.162 5.956-12.477 9.274-18.53 4.503-8.214 10.201-15.655 19.181-19.174 16.202-6.35 32.876-9.883 50.578-9.147 18.617.774 37.067 4.943 55.941 1.48 42.953-7.88 83.038-23.403 121.15-44.266 19.671-10.77 37.23-23.808 47.411-45.028 5.517-11.5 14.844-20.443 24.498-28.79 7.64-6.604 14.876-13.608 20.807-21.84 13.598-18.87 17.369-38.746-.526-57.764-12.445-13.226-8.178-36.154 6.661-46.642 12.287-8.684 23.307-4.53 26.136 10.152 2.579 13.378 2.887 26.882.683 40.376-.324 1.985-1.27 4.12.696 5.565 2.044 1.5 3.892-.214 5.49-1.231 2.414-1.536 4.685-3.337 6.854-5.214 21.238-18.386 34.155-41.601 40.073-68.92 2.565-11.837 4.413-23.765 4.913-35.862.138-3.337.395-7.365-3.276-9.146-3.268-1.585-6.08.776-8.633 2.635-3.722 2.71-7.295 5.623-10.992 8.368-23.044 17.114-47.273 31.93-75.824 38.01-55.641 11.853-108.376 33.209-162.468 50.078-32.049 9.994-58.801 28.133-66.235 64.886-2.099 10.38-1.333 19.29 3.932 28.897 7.699 14.048 7.706 29.445 1.06 44.096-4.448 9.805-11.828 10.422-18.958 2.454-4.853-5.422-8.096-11.875-11.104-18.431-5.351-11.663-5.375-22.777 3.384-33.041 8.315-9.743 11.093-21.11 10.286-33.761-.831-13.033-8.814-18.691-20.399-12.65-17.502 9.125-30.61 23.03-35.313 42.49-3.5 14.486-11.301 23.67-25.108 27.885-24.333 7.429-48.009 35.677-42.7 66.248m567.154 487.136c-.253-5.177-.389-10.364-.807-15.528-.229-2.833-.494-6.447-3.905-6.891-2.991-.39-3.969 2.949-4.83 5.3a378 378 0 0 0-6.093 17.98c-7.482 24.123-16.66 31.022-41.951 31.362-15.044.203-19.833-5.797-16.178-20.53 5.468-22.043 14.331-42.32 28.73-60.303 17.205-21.488 31.198-44.945 38.291-71.937 2.884-10.977 3.927-22.1 2.496-33.392-.401-3.17-.915-6.881-4.474-7.656-3.516-.767-5.582 2.38-7.43 4.977-3.197 4.492-6.146 9.337-7.2 14.658-4.037 20.388-14.937 36.46-29.859 50.38-6.317 5.894-11.178 13.124-16.395 20.02-8.377 11.075-15.974 10.077-21.375-2.88-5.622-13.485-7.218-27.754-7.023-42.284.21-15.706 7.364-26.895 21.579-33.51 8.347-3.883 16.956-7.244 25.127-11.46 11.691-6.031 20.479-14.75 23.666-28.145 2.759-11.597.669-17.642-9.121-24.506-12.25-8.587-26.59-12.25-40.491-16.88-16.981-5.658-33.869-11.571-48.643-21.952-10.942-7.69-21.287-16.003-22.184-31.136-.193-3.252-1.255-7.416-5.419-7.948-3.75-.478-4.697 3.507-6.729 5.81-15.184 17.205-32.671 25.045-52.86 11.112-4.738-3.27-9.595-6.37-14.336-9.637-3.868-2.665-7.976-4.657-12.744-4.833-7.821-.288-14.389 2.608-18.256 9.384-3.788 6.638.076 12.193 4.416 17.072 6.119 6.879 12.458 13.563 18.693 20.338 8.418 9.148 11.697 20.258 9.154 32.039-4.717 21.852-16.901 38.86-36.706 49.828-4.77 2.64-10.5 5.215-15.318 1.089-5.442-4.661-3.949-11.342-1.37-16.838 6.687-14.25 5.391-27.223-4.285-39.605-5.098-6.524-6.293-14.287-1.573-20.962 6.603-9.338 5.36-18.312 1.546-27.781-21.024-52.196-56.011-92.114-105.631-118.782-12.683-6.817-26.431-11.331-40.921-13.137-23.395-2.915-43.486 3.867-59.333 21.235-19.975 21.893-36.524 45.596-33.85 77.477.828 9.868 3.162 19.353 9.254 27.448 2.274 3.02 5.656 6.724 9.263 3.335 8.665-8.14 19.544-13.418 27.823-21.832 9.854-10.014 8.793-22.834-2.086-30.705-4.185-3.028-4.44-6.198-2.061-10.344 4.314-7.515 9.107-14.737 14.864-21.17 8.644-9.66 14.692-8.376 20.814 3.373 6.359 12.203.989 21.367-6.565 30.576-2.536 3.09-6.39 7.674-3.025 11.553 3.051 3.519 7.393-.25 11.058-1.517 5.257-1.821 10.896-6.966 15.988-2.475 4.241 3.739-.58 9.01-1.557 13.582-.475 2.223-1.509 4.668.668 6.443 2.295 1.87 4.862 1.1 7.325.015 2.458-1.086 4.327-2.772 5.689-5.091 6.479-11.025 17.573-15.35 28.747-19.263 6.343-2.22 10.356.176 11.66 7.314 2.93 16.034-4.966 27.354-16.15 36.83-9.482 8.033-19.752 4.013-29.194-.603-8.284-4.05-16.629-5.005-25.125-2.222-21.664 7.096-39.658 19.857-53.432 37.885-5.806 7.599-11.467 15.314-18.756 21.34-14.689 12.144-16.728 27.284-12.398 44.487 2.316 9.203 6.191 17.959 7.445 27.476 2.791 21.179 2.255 42.524 3.502 63.777 1.25 21.3 2.556 42.736 13.568 61.846 6.58 11.418 11.096 23.415 12.524 36.484 2.956 27.048 15.127 48.808 37.624 64.19 29.488 20.163 60.734 34.849 98 33.027 20.476-1.001 38.574 6.106 51.385 23.295 3.674 4.929 8.778 7.347 14.366 9.006 44.265 13.144 77.441 43.375 110.872 72.848 7.696 6.785 14.746 11.269 24.95 10.962 15.551-.467 31.122-1.03 46.668-.712 17.416.355 33.516 5.123 46.958 16.975 2.125 1.875 4.688 3.398 7.285 4.555 3.158 1.406 7.017 2.76 9.391-.824 2.306-3.48-.138-6.618-2.58-9.192-4.888-5.151-11.268-7.843-17.655-10.574-18.248-7.802-30.868-20.232-35.545-40.4-11.751-50.671 14.92-108.368 61.683-130.96 26.329-12.718 42.27-31.523 40.347-62.286M681.967 888.936c-20.797-.584-41.474 1.113-62.047 3.81-15.118 1.98-30.242 4.422-44.102 11.357-7.35 3.679-12.559 8.652-11.792 18.124 1.969 24.31-6.121 45.915-19.164 65.904-10.169 15.585-24.787 24.668-43.115 27.38-13.381 1.98-26.882 3.135-40.295 4.917-16.019 2.129-31.903 5.054-46.516 12.36-8.052 4.026-9.491 13.94-4.304 25.106 3.988 8.584 10.531 6.434 16.878 3.896 10.536-4.212 19.965-10.572 28.517-17.774 19.789-16.664 40.19-11.137 60.88-2.94 4.311 1.708 5.786 4.785 4.387 9.704-2.492 8.759-7.039 16.339-12.015 23.779-16.519 24.695-41.974 30.416-67.058 14.92-4.375-2.701-8.708-2.966-13.08-.604-4.272 2.308-5.518 6.419-5.497 10.99.051 11.175 7.365 18.795 18.722 19.548 7.473.495 14.949 1.406 22.421 1.384 18.192-.051 32.1 7.359 42.311 22.39 6.196 9.123 13.201 17.535 24.626 20.618 3.154.85 4.678 2.723 3.532 6.48-3.074 10.087-23.592 26.234-34.192 26.345-17.884.188-33.442-5.262-45.229-19.354-6.466-7.73-12.796-15.574-19.269-23.298-2.633-3.141-5.662-6.42-10.215-4.684-4.476 1.705-4.666 6.204-4.872 10.26-.598 11.793 2.772 22.28 11.177 30.724 9.791 9.835 16.157 21.342 20.09 34.7 3.717 12.629 6.632 25.617 13.467 37.232 3.406 5.788.626 10.616-6.014 12.072-9.417 2.066-18.361-2.942-24.482-13.708-7.416-13.042-20.221-17.688-33.78-12.258-9.926 3.976-13.323 11.932-8.8 21.552 2.971 6.318 7.692 11.39 12.731 16.215 17.485 16.737 34.883 33.6 49.659 52.849 24.68 32.153 34.85 66.314 18.656 106.425-11.804 29.239-4.015 47.685 23.102 65.456 5.603 3.672 11.875 9.654 18.79 5.152 6.712-4.371 4.341-12.228 3.349-19.102-3.762-26.078 5.482-43.714 28.477-55.265 12.966-6.514 26.628-6.857 40.524-4.942 36.529 5.033 71.194.307 103.253-18.974 11.302-6.798 23.713-10.362 36.827-11.328 51.426-3.79 94.959-26.025 134.376-57.65 15.41-12.363 23.13-28.931 24.91-48.541.987-10.88 2.087-21.81 4.172-32.516 3.981-20.437 16.709-36.35 28.58-52.65 12.872-17.675 27.906-33.76 38.811-52.884 26.151-45.86 33.515-95.292 26.347-146.895-5.592-40.253-20.871-76.595-49.977-105.981-19.194-19.38-42.113-30.05-69.986-27.088-17.184 1.825-32.521 9.379-47.896 16.64-41.85 19.766-71.079 52.212-92.62 92.303-2.704 5.033-5.863 11.043-.434 15.895 8.894 7.95 7.889 17.142 4.981 26.962-2.63 8.885-6.841 17.066-11.107 25.237-4.795 9.184-9.873 18.325-11.23 28.802-.826 6.376-2.686 12.5-8.938 14.675-6.486 2.255-11.456-2.522-15.89-6.665-33.394-31.2-22.233-83.011 21.1-98.181 8.733-3.057 12.87-8.772 11.903-16.442-.906-7.184-7.292-12.64-15.742-13.552-7.044-.762-12.978 2.183-18.591 5.754-30.647 19.499-56.058-.813-63.675-26.856-2.543-8.695-.401-11.961 8.674-12.404 11.002-.537 21.687-1.565 32.001-6.121 4.319-1.91 9.581-1.075 14.421.425 9.182 2.847 16.107 8.453 21.902 16.022 6.255 8.166 13.282 10.363 22.009 6.125 14.659-7.12 25.89-18.224 32.857-33.006 4.134-8.77 1.544-15.51-6.555-20.767-5.941-3.856-12.679-5.294-19.531-6.498-13.741-2.417-27.599-1.35-41.41-1.561m1187.261 98.877c-.19 20.748-1.394 38.295-6.127 55.323-6.358 22.874-2.62 45.416-.436 68.436 2.855 30.095-1.703 58.277-26.696 80.829-34.773 31.377-71.907 59.448-110.21 86.153-21.239 14.807-43.845 27.855-60.912 47.936-2.233 2.626-4.43 5.333-6.258 8.244-6.286 10.009-3.84 16.408 7.447 20.232 7.363 2.494 14.582 5.602 22.417 6.245 10.971.9 15.491-4.443 13.208-15.23-4.416-20.864-1.231-28.925 16.614-40.811 17.945-11.952 38.186-17.553 59.316-19.521 15.551-1.45 19.896 5.594 12.232 19.125-5.189 9.162-8.756 18.548-10.469 28.974-1.702 10.36-8.688 17.987-16.053 25.006-3.119 2.972-6.434 5.832-10.012 8.213-28.347 18.86-40.703 46.854-42.185 79.284-1.209 26.47-11.506 45.668-33.291 60.62-20.908 14.35-40.304 30.863-53.501 53.273-3.963 6.729-7.262 13.738-9.574 21.202-7.946 25.66-22.323 47.28-41.811 65.525-18.979 17.768-42.27 19.87-65.572 13.679-17.141-4.554-28.257-.878-38.723 12.864-24.371 31.999-56.618 53.83-93.873 68.266-26.107 10.115-50.669 22.976-70.002 43.318-24.25 25.514-54.022 36.017-88.167 37.528-33.693 1.49-67.348 2.89-100.969-1.35-15.264-1.926-29.718-6.715-44.193-11.521-14.492-4.812-29.01-9.511-43.995-12.612-24.558-5.084-48.494-3.11-72.423 4.488-26.976 8.565-54.482 15.089-83.201 12.804-5.138-.41-10.38-1.06-15.291-2.537-26.29-7.905-26.95-12.352-26.843-33.94.072-14.464-6.286-21.436-20.49-24.38a96.9 96.9 0 0 0-33.567-1.036c-32.997 4.779-63.42-3.521-93.124-16.554-34.309-15.054-63.818-36.586-88.452-64.866-13.593-15.606-30.831-25.4-50.447-31.91-39.387-13.075-47.734-24.942-48.702-66.821-.343-14.854-6.862-26.732-18.094-35.826-15.729-12.737-34.141-21.381-51.183-32.128-6.208-3.915-13.833-3.61-21.081-3.488-9.512.16-19.023.35-28.534.554-17.997.384-33.059-6.294-43.381-20.855-24.937-35.18-42.55-73.066-40.29-117.712.823-16.255-1.209-18.373-16.881-18.81-13.219-.368-21.786-7.71-26.547-18.928-7.991-18.833-13-38.736-18.065-58.51-2.636-10.29 2.545-16.105 13.27-16.346 19.338-.434 37.668 3.96 55.149 12.267 15.408 7.322 25.319 18.556 27.507 35.958.68 5.414 1.869 10.813 4.953 15.52 2.586 3.95 6.345 5.874 10.993 5.634 4.958-.256 6.634-4.19 7.86-8.087 5.635-17.902 1.585-44.445-24.065-51.593-11.861-3.305-22.944-9.298-34.63-13.352-45.781-15.88-77.089-48.863-104.668-86.772-32.028-44.026-31.787-92.141-19.607-142.058 2.322-9.518 4.822-18.992 10.634-27.187 2.822-3.98 3.215-8.66-.343-11.911-12.076-11.035-12.906-26.14-14.413-40.513-2.557-24.383-2.38-48.826 2.189-73.146 2.186-11.63 7.513-21.643 13.018-31.785 6.01-11.073 4.866-14-6.477-19.116-12.374-5.582-13.276-8.816-3.594-18.6 12.05-12.175 22.337-25.401 30.402-40.617 5.684-10.722 14.066-19.613 24.054-26.82 6.542-4.721 13.529-7.176 21.77-6.698 10.919.634 13.371-1.636 14.954-11.977 7.103-46.414 29.176-85.622 58.63-121.213 4.245-5.128 8.777-10.018 11.167-16.302 3.048-8.01-.283-13.49-8.813-14.977-10.258-1.79-19.935 1.774-29.867 3.157-6.017.837-13.746 5.187-17.869-.547-3.828-5.324 1.239-12.095 3.94-17.647 8.865-18.228 20.053-34.943 34.043-49.697 6.027-6.356 12.727-11.471 21.535-13.708 9.197-2.335 15.169-9.042 20.065-16.775 21.416-33.83 43.466-67.235 65.646-100.575 39.048-58.692 96.029-91.334 160.286-114.125 6.477-2.298 13.507-3.016 20.025-5.222 8.317-2.815 9.659-6.932 5.308-14.53-3.715-6.486-8.264-12.547-11.48-19.258-9.739-20.321-.947-34.331 21.663-34.508 13.357-.104 25.384 4.42 36.045 12.509 7.989 6.06 10.608 13.792 8.216 23.61-2.919 11.98 4.002 18.384 15.886 14.94 5.341-1.546 10.005-4.497 14.026-8.288 24.48-23.077 54.895-30.345 87.121-32.64 7.752-.551 15.616-.067 23.214-1.942 8.093-1.997 9.816-6.052 5.702-13.308-4.672-8.238-11.91-14.8-15.388-23.887-2.799-7.31-5.531-14.584-5.051-22.552.442-7.348 3.266-9.053 9.959-6.63a1578 1578 0 0 0 27.702 9.736c24.118 8.228 40.388 29.29 42.228 54.786.021.288.028.576.051.863.625 7.682-.314 16.54 8.441 20.202 8.571 3.584 15.512-1.771 22.015-6.677 9.87-7.446 17.253-17.097 22.276-28.211 15.638-34.601 43.12-54.585 78.765-64.477 57.146-15.86 116.24 3.293 151.17 48.61 11.771 15.272 18.694 32.173 19.133 51.72.311 13.846 4.861 26.04 17.13 34.033 11.676 7.606 25.675 6.764 34.159-1.535 3.346-3.272 5.072-6.862 4.773-11.49-2.345-36.374 18.217-57.005 48.756-70.684 12.106-5.423 24.516-10.11 37.525-12.856 12.859-2.714 17.009 1.614 13.3 14.193-4.996 16.942-12.618 32.64-22.645 47.309-12.56 18.372-8.44 26.547 13.654 29.496 37.652 5.027 72.408 18.297 104.945 37.623 3.543 2.104 7.152 3.685 11.252 4.035 15.196 1.294 23.582-9.127 18.669-23.58-2.307-6.786-5.589-13.188-6.912-20.373-3.609-19.598 5.371-35.045 24.353-40.726 7.155-2.141 14.473-3.784 21.783-5.35 14.636-3.133 29.429-5.564 43.432-11.22 6.077-2.453 9.849-1.09 10.063 6.568.663 23.853-10.743 42.457-25.498 59.6-5.115 5.943-11.794 9.934-18.561 13.917-11.798 6.944-11.65 15.209.217 21.893 4.98 2.805 10.451 4.854 15.878 6.73 26.315 9.097 51.708 20.682 73.559 37.676 22.115 17.199 45.827 26.565 73.649 27.62 14.331.544 27.242 6.78 39.103 14.905 5.034 3.448 8.052 8.029 9.471 13.904 4.791 19.836-7.843 41.583-27.385 47.215-3.201.922-7.467 1.177-8.223 5.286-.729 3.969 2.715 6.315 5.533 8.068 20.368 12.67 29.503 32.277 34.442 54.632 1.116 5.054 2.727 10 4.138 14.989 6.393 22.597 19.528 39.172 41.429 49.015 11.145 5.008 22.419 10.222 30.148 20.948 7.946 11.027 9.695 22.452 5.924 35.117-4.39 14.746-11.859 28.117-19.354 41.368-5.443 9.623-5.28 17.247 1.279 26.806 18.298 26.666 28.671 56.286 28.528 89.079-.014 3.143.62 6.287.905 9.435.611 6.765 3.989 9.867 10.95 8.48 8.412-1.675 15.096 1.705 21.266 7.073 10.515 9.148 18.79 20.233 27.431 31.014 5.575 6.957 10.707 14.322 18.599 19.054 5.607 3.362 5.8 8.19 2.921 13.4-1.983 3.59-5.067 6.257-8.499 8.457-18.151 11.637-37.679 13.503-57.969 7.344-9.674-2.937-16.72-9.566-22.359-18.1-11.959-18.098-31.383-21.31-48.46-7.935-24.932 19.526-53.357 31.74-83.439 40.434-21.535 6.223-40.115 2.86-54.264-16.81-6.719-9.341-16.209-16.4-27.279-20.622-10.252-3.91-16.282.076-16.969 11.013-.99 15.758 5.73 27.484 20.174 33.906 6.28 2.793 12.931 4.94 19.603 6.633 21.01 5.332 41.385 12.015 60.258 23.08 10.436 6.119 15.437 4.62 23.157-4.68 2.752-3.313 5.155-6.924 7.636-10.456 21.308-30.334 51.173-39.37 86.395-34.108 12.857 1.92 24.937 6.714 36.698 12.423 33.164 16.098 43.599 45.503 46.936 79.118.881 8.876 1.1 17.819 1.44 23.623"/></g></svg>