<svg xmlns="http://www.w3.org/2000/svg" width="3147" height="1920" viewBox="0 0 3147 1920"><defs><clipPath id="clip_1"><path d="M0 0h3146.995v1920H0Z"/></clipPath></defs><g fill="#231f20" clip-path="url(#clip_1)"><path d="M1366.284 994.915v-.049c12.435 0 24.874-.166 37.303.08 5.145.102 7.158-1.34 7.076-6.35-.278-17.11-.264-34.229-.06-51.34.056-4.71-1.4-6.67-6.82-6.626-24.579.201-49.16.196-73.739.047-5.143-.03-7.249 1.504-7.199 6.43.174 17.112.133 34.228-.067 51.341-.056 4.79 1.773 6.655 7.071 6.546 12.139-.25 24.289-.079 36.435-.079m-314.167-28.985c2.006 1.51 2.554 2.267 3.226 2.378 52.8 8.712 105.614 17.353 158.413 26.071 5.413.894 7.111-.977 7.053-5.908-.195-16.579-.24-33.165.11-49.74.136-6.41-1.259-8.332-8.852-6.66-40.383 8.894-80.909 17.233-121.386 25.76-12.429 2.618-24.862 5.221-38.564 8.1m189.798-448.122c2.977-1.268 3.852-1.445 4.446-1.922 44.562-35.73 89.066-71.522 133.705-107.169 3.851-3.076 2.518-5-.079-7.728-12.038-12.64-24.229-25.173-35.773-38.193-4.955-5.588-6.651-4.038-9.804 1.264-19.485 32.766-39.291 65.37-58.976 98.033-10.806 17.93-21.583 35.873-33.519 55.715m-5.312 891.005c-1.247 1.483-.052 2.62.585 3.68 30.351 50.442 60.768 100.85 91.063 151.32 2.439 4.062 4.152 4.113 7.355.63 11.804-12.836 23.623-25.675 35.919-38.104 4.612-4.66 4.23-7.059-.924-11.165-42.737-34.042-85.188-68.39-127.772-102.597-1.847-1.483-3.345-3.669-6.226-3.764m685.302-1245.188c-1.594 0-2.994-.259-4.24.037-62.396 14.81-124.764 29.72-187.187 44.43-5.521 1.3-5.984 2.765-2.533 6.73 11.433 13.13 22.836 26.292 33.805 39.752 3.557 4.366 6.02 4.823 11.029 1.742 47.446-29.176 95.083-58.086 142.619-87.137 2.289-1.399 5.341-2.165 6.507-5.554m3.104 1608.886c-2.179-2.399-2.605-3.137-3.267-3.558-52.633-33.42-105.33-66.756-157.857-100.317-4.679-2.99-6.362-.926-8.882 2.06-10.843 12.852-21.848 25.587-32.758 38.391-5.997 7.04-5.956 7.041 3.727 9.66 37.378 10.108 74.747 20.245 112.127 30.346 28.185 7.616 56.382 15.194 86.91 23.418M1725.817 285.526c-.703-.833-1.53-1.91-2.463-2.903-28.437-30.235-56.939-60.418-85.259-90.746-3.357-3.595-5.534-3.133-9.023-.265-13.817 11.357-27.703 22.653-41.932 33.561-4.719 3.618-4.19 6.086-.374 9.584 3.276 3.001 6.135 6.392 9.168 9.618 24.639 26.21 49.274 52.422 73.916 78.63 2.58 2.743 4.366 6.204 9.385 1.977 14.092-11.869 28.673-23.239 43.018-34.852 1.441-1.167 3.468-2.028 3.564-4.604m-99.812 1451.6c2.639-.463 3.722-2.153 5.024-3.535 28.124-29.844 56.174-59.748 84.418-89.494 3.44-3.624 3.555-5.657-.623-8.902-14.17-11.008-28.104-22.284-41.85-33.742-4.273-3.562-6.683-3.035-10.292.842-27.739 29.8-55.648 59.467-83.676 89.036-3.404 3.591-3.693 5.716.501 8.985 14.371 11.202 28.415 22.762 42.608 34.16 1.27 1.02 2.714 1.855 3.89 2.65m22.427-1375.14c-.814-.99-1.771-2.304-2.886-3.49-37.362-39.725-74.79-79.399-112.031-119.22-3.4-3.637-5.4-3.165-8.902-.278a2066 2066 0 0 1-42.555 34.148c-3.781 2.953-3.829 4.892-.566 8.267 12.133 12.552 23.942 25.372 35.884 38.083 25.022 26.632 50.057 53.253 75.069 79.892 2.9 3.09 4.903 6.14 10.106 1.688 13.779-11.79 28.227-22.913 42.358-34.356 1.446-1.17 3.49-2.058 3.523-4.735m-6.635 1200.918c-1.587-1.54-2.84-2.964-4.311-4.155-14.14-11.457-28.425-22.763-42.415-34.374-3.975-3.299-6.166-2.165-9.072 1.04-7.059 7.787-14.42 15.34-21.635 23.006-29.622 31.477-59.265 62.936-88.795 94.487-2.463 2.632-7.23 4.981-1.328 9.498 14.702 11.253 29.032 22.93 43.272 34.683 3.804 3.14 5.86 2.526 8.968-.789 37.135-39.613 74.419-79.106 111.637-118.65 1.286-1.366 2.298-2.95 3.679-4.746m-367.631-552.085c-1.723 1.511-3.272 2.661-4.554 4.025-12.34 13.131-24.552 26.367-37 39.41-3.221 3.373-3.064 5.413.725 8.44a32154 32154 0 0 1 135.034 108.464c3.795 3.065 5.823 2.746 8.96-.677a2001 2001 0 0 1 37.619-39.976c3.237-3.344 2.375-5.105-.829-7.679-45.006-36.163-89.926-72.416-134.888-108.624-1.472-1.186-3.174-2.129-5.067-3.383m4.271-89.443c1.245-.887 2.893-1.94 4.393-3.15 44.484-35.863 88.909-71.79 133.498-107.54 4.181-3.354 4.943-5.468.928-9.552-12.452-12.663-24.589-25.598-36.529-38.678-3.573-3.914-5.87-3.576-9.697-.342-9.605 8.117-19.637 15.801-29.471 23.688a145866 145866 0 0 0-103.565 83.114c-3.139 2.522-7.283 4.39-2.388 9.375 13.028 13.267 25.511 26.993 38.246 40.506 1.085 1.152 1.935 2.771 4.585 2.58m-193.06-163.72c5.378.031 7.127-2.343 9.28-3.912 41.574-30.302 83.08-60.684 124.659-90.98 78.388-57.115 156.76-114.249 235.338-171.14 5.476-3.966 5.081-6.112.888-10.396-12.229-12.49-24.106-25.28-35.918-38.113-3.185-3.46-5.074-3.687-8.693-.139-24.81 24.317-49.9 48.39-74.9 72.542l-206.992 199.967c-14.174 13.693-28.352 27.384-43.662 42.171m-4.486 409.792-1.383 1.406c1.071 1.221 2.054 2.52 3.226 3.652 106.748 103.21 213.53 206.391 320.201 309.67 3.827 3.706 6.002 4.46 9.968.042 10.896-12.138 22.318-23.874 33.55-35.755 7.231-7.648 7.25-7.642-1.699-14.16-106.113-77.3-212.224-154.604-318.347-231.893-15.139-11.025-30.342-21.977-45.516-32.962m518.887-702.613c-1.294-1.514-2.791-3.417-4.453-5.187-21.427-22.81-42.88-45.603-64.323-68.4-32.831-34.908-65.759-69.738-98.378-104.814-4.554-4.897-7.296-4.83-12.295-.574-13.182 11.225-26.858 21.96-40.492 32.721-3.456 2.727-4.501 4.708-1.05 8.365 55.331 58.63 110.549 117.35 165.705 176.12 2.997 3.193 5.049 4.233 9.014.933 13.968-11.626 28.277-22.9 42.419-34.35 1.474-1.193 3.434-2.095 3.853-4.814m-7.355 996.273c.031-2.32-1.494-3.27-2.774-4.302-14.594-11.772-29.335-23.392-43.749-35.35-4.291-3.56-6.283-1.369-8.958 1.478-54.981 58.513-109.973 117.018-165.089 175.423-3.475 3.683-3.427 5.767.71 8.98 14.164 11.001 28.18 22.183 41.838 33.716 4.521 3.817 6.768 2.752 10.226-.934 54.737-58.353 109.594-116.61 164.408-174.903 1.306-1.39 2.424-2.932 3.388-4.108m-538.274-458.899-2.73 2.78c3.95 2.706 8.352 4.996 11.781 8.182 48.376 44.95 96.705 89.945 144.877 135.082a200011 200011 0 0 1 260.726 244.755c3.862 3.631 6.11 3.42 9.545-.339 11.58-12.668 23.223-25.302 35.353-37.514 4.836-4.868 3.897-7.364-1.273-11.23-150.262-112.399-300.407-224.93-450.6-337.407-2.319-1.737-4.17-4.416-7.679-4.309m-3.773-76.259 2.961 2.653c4.344-3.054 8.774-6.01 13.021-9.177 111.73-83.284 223.433-166.6 335.159-249.888 39.42-29.386 78.833-58.782 118.41-87.986 4.789-3.534 6.109-5.773 1.375-10.52-12.351-12.386-24.181-25.22-36.003-38.048-3.134-3.4-5.339-4.053-8.815-.38-4.565 4.823-9.642 9.236-14.545 13.783-133.232 123.561-266.461 247.124-399.755 370.628-3.574 3.312-7.856 5.971-11.808 8.935m1092.968 863.976c-304.27 94.974-723.446 36.638-989.291-321.927-110.553-154.39-162.77-326.428-162.709-501.206.062-176.799 54.709-358.246 169.262-509.785 232.851-312.802 629.447-422.769 982.461-313.41-252.589 50.897-422.696 181.612-551.482 373.087-93.277 143.158-134.151 297.31-132.243 461.676.858 73.945 11.695 149.39 33.243 220.548 21.541 71.14 50.18 141.561 90.83 205.222 40.838 63.956 85.831 122.838 142.978 175.008 56.936 51.976 123.927 98.977 193.362 135.782 69.249 36.706 147.064 61.353 223.589 75.005"/><path d="M561.179 652.627c81.245-213.968 230.088-372.593 451.606-473.674-4.84-.966-7.843-1.73-10.9-2.151-33.606-4.624-67.278-5.776-101.114-2.107-88.01 9.54-161.34 44.849-219.413 106.913-33.49 35.79-56.832 77.184-77.438 120.17-38.372 80.053-52.238 163.614-42.741 250.849m-2.943 676.85c-.164 1.832-.474 3.663-.47 5.493.059 30.329 3.928 60.288 10.06 90.044 15.957 77.417 52.589 146.31 101.652 209.907 36.426 47.216 81.828 85.017 139.252 109.483 67.304 28.674 137.56 35.024 210.07 23.174 13.183-2.154 26.468-4.287 41.145-9.656-112.971-37.7-212.075-92.871-298.363-167.337-86.294-74.47-152.882-162.088-203.346-261.107M352 455.025l-1.163-.55c-1.613 1.779-3.327 3.488-4.826 5.345-52.707 65.276-95.891 135.48-128.288 211.348-28.492 66.72-46.805 135.788-55.36 206.986-3.892 32.387-4.506 64.997-4.078 97.653.468 35.664 3.689 71.065 9.5 106.213 13.706 82.879 39.392 162.558 77.08 238.838 28.1 56.873 60.623 111.324 103.826 159.8 5.335 5.985 10.82 11.89 17.687 16.48 1.595 1.066 3.382 2.497 5.417.926 1.62-1.25.839-2.96.29-4.461-1.76-4.805-3.306-9.696-5.411-14.371-45.222-100.404-82.124-203.104-102.222-310.64-10.805-57.813-17.743-115.97-19.378-174.55-1.41-50.524-.55-101.06 4.66-151.502 3.022-29.261 6.146-58.507 11.048-87.516 16.218-95.97 44.373-188.981 82.509-279.436 2.89-6.86 5.806-13.71 8.709-20.563m233.957-172.858-1.343-.888c-4.787 5.667-9.612 11.306-14.354 17.004-108.773 130.703-188.498 274.539-230.068 435.664-16.003 62.025-25.434 124.934-28.403 188.572-1.396 29.91-.77 59.89.956 89.888 2.724 47.358 8.859 94.264 18.49 140.753 22.169 107.012 60.394 208.96 114.61 305.7 28.683 51.178 60.892 100.322 100.239 145.2 10.023 11.434 20.253 22.754 33.095 31.682 2.255 1.569 4.937 3.788 7.755 1.754 2.37-1.712.905-4.421.24-6.743-3.566-12.454-9.048-24.265-14.432-36.08-65.2-143.05-112.002-290.721-132.491-445.23-7.51-56.637-11.502-113.43-12.89-170.385-1.1-45.222 1.237-90.406 4.427-135.564 3.398-48.096 9.634-95.866 18.13-143.354 21.696-121.242 58.029-238.744 107.089-352.894 9.368-21.797 19.285-43.391 28.95-65.08m669.792 1507.61c-243.162 73.816-626.141 77.338-933.511-252.48-151.183-173.397-217.053-372.07-217.126-570.754-.061-165.578 50.113-338.344 146.897-480.748C484.077 156.686 878.29 30.043 1257.113 142.733c-231.078 44.984-394.026 160.783-521.802 329.469-123.574 169.08-178.021 363.31-158.843 568.909 16.618 178.172 85.822 340.4 206.843 478.282 148.596 167.067 327.319 247.078 472.439 270.384"/><path d="M2224.797 1537.07c-10.468.09-19.084 8.162-19.104 17.899-.022 10.077 8.994 18.34 19.78 18.129 10.407-.203 19.255-8.416 19.318-17.932.066-9.792-9.212-18.188-19.995-18.095m543.688-1374.808c-.06 9.81 8.715 18.177 19.112 18.226 10.157.048 19.39-8.44 19.541-17.965.155-9.747-8.504-17.82-19.22-17.918-10.726-.098-19.372 7.759-19.434 17.657m-195.989 16.014c-.1 9.815 8.532 18.154 18.968 18.323 10.191.165 19.49-8.31 19.59-17.851.1-9.771-8.59-17.971-19.129-18.048-10.862-.08-19.324 7.575-19.428 17.576m123.89 1510.342c.01-9.874-8.38-17.918-18.91-18.128-10.77-.215-20.043 8.13-20.057 18.05-.014 9.747 8.554 17.84 19.08 18.022 11.128.192 19.876-7.702 19.887-17.944m-222.204-17.918c-.03-10.12-8.973-18.148-20.003-17.958-10.606.183-18.99 8.15-19.003 18.059-.014 9.748 8.623 17.918 19.112 18.08 10.919.169 19.925-8.061 19.894-18.181m211.556-1433.33c19.32.36 35.586-14.24 35.927-32.247.321-17.041-15.892-32.341-34.705-32.75-19.1-.415-35.554 14.473-35.809 32.399-.245 17.339 15.568 32.244 34.587 32.599m88.828 1517.854c.073-18.171-15.21-32.655-34.687-32.876-19.063-.216-35.297 14.632-35.446 32.418-.15 18.074 15.243 32.442 34.926 32.6 19.822.16 35.135-13.82 35.207-32.142M2393.79 304.873c19.411-.16 35.23-15.027 34.971-32.87-.252-17.37-16.293-32.103-34.998-32.147-19.32-.045-35.328 14.747-35.27 32.594.06 18.076 15.85 32.582 35.296 32.423m-304.633 1003.189c-.022-18.065-15.99-32.897-35.24-32.733-18.437.157-35.032 15.628-34.98 32.61.055 17.887 16.12 32.433 35.695 32.32 19.432-.112 34.544-14.206 34.524-32.197m101.684-930.503c-19.438-.302-35.64 13.939-36.136 31.759-.483 17.393 15.904 32.872 35.02 33.08 19.23.21 35.495-14.615 35.568-32.418.072-17.646-15.312-32.123-34.452-32.421m198.291 1249.083c.017-18.026-15.887-32.992-34.976-32.911-19.106.08-35.245 15.073-35.336 32.826-.091 17.694 16.18 32.91 35.184 32.903 19.091-.008 35.112-14.975 35.128-32.818m-388.042-837.894c-.312-17.784-17.072-32.931-35.846-32.396-19.08.543-34.697 15.249-34.642 32.625.055 17.706 16.587 33.076 35.366 32.884 19.052-.195 35.428-15.635 35.122-33.113m19.554-103.225c26.384.065 48.08-19.815 48.27-44.23.19-24.568-21.876-44.984-48.556-44.924-26.615.06-48.504 20.557-48.299 45.228.202 24.275 21.865 43.86 48.585 43.926m262.887 153.48c-26.852.069-47.97 19.442-47.95 43.987.021 25.596 21.296 45.584 48.385 45.458 26.65-.123 48.197-20.261 48.212-45.06.015-24.796-21.53-44.453-48.648-44.385m204.824 686.846c-27.247-.027-48.416 19.444-48.408 44.526.005 24.92 21.485 45.012 48.19 45.078 26.535.065 48.506-20.255 48.53-44.884.024-24.994-21.258-44.694-48.312-44.72m-394.874-93.498c-.137 24.72 21.66 45.225 48.25 45.392 26.097.165 49.028-20.97 48.938-45.103-.09-24.028-22.15-44.6-48.158-44.906-26.539-.312-48.892 20.03-49.03 44.617m430.304 265.279c.044 24.798 21.74 44.82 48.613 44.865 26.349.044 48.984-20.803 48.857-44.995-.13-24.544-22.285-44.772-48.962-44.703-26.987.07-48.554 20.002-48.509 44.833m87.422-1418.848c.084-34.57-30.399-62.964-67.674-63.037-36.68-.072-67.12 27.93-67.738 62.314-.606 33.749 30.851 62.979 67.88 63.072 36.657.092 67.45-28.34 67.532-62.35m-222.17 353.048c.043-34.17-30.382-62.367-67.315-62.385-37.082-.018-67.38 27.877-67.495 62.144-.119 35.059 29.882 63.239 67.23 63.15 37.635-.087 67.537-27.922 67.58-62.91m-368.46 589.048c37.38-.131 67.965-28.482 67.78-62.828-.184-34.408-30.98-62.747-68.14-62.704-36.79.043-67.57 28.995-67.403 63.402.167 33.873 31.124 62.258 67.763 62.13m198.759-675.85c.795-39.144-33.16-71.596-75.99-72.624-41.91-1.006-78.276 31.22-79.023 70.024-.758 39.48 33.22 72.65 75.256 73.468 43.48.845 78.938-30.662 79.756-70.868m28.39 924.369c-.012 41.628 35.378 74.765 79.912 74.823 44.242.058 80.035-33.031 80.624-73.546.604-41.431-37.5-76.563-83.198-75.311-41.812 1.145-77.325 34.086-77.338 74.034m-262.897-577.047c-44.755-.08-80.916 32.925-80.927 73.864-.01 41.035 35.63 74.712 79.207 74.846 45.49.138 81.51-32.465 81.818-74.058.305-41.231-35.467-74.572-80.098-74.652m114.52 135.186c-1.71 50.454 41.714 93.139 96.256 94.618 55.124 1.496 101.717-38.882 102.486-90.59.75-50.391-40.977-92.413-97.671-93.412-55.733-.983-99.37 39.358-101.072 89.384m255.338-690.151c-58.706-.04-106.507 43.776-106.371 97.505.136 53.948 47.69 97.792 106.198 97.914 57.552.12 105.298-44.171 105.37-97.747.072-53.77-47.17-97.633-105.197-97.672m-22.572 924.274c.32-54.672-46.857-98.8-106.426-99.546-58.682-.736-107.706 44.269-108.03 99.174-.316 53.352 48.501 98.996 106.361 99.446 59.256.46 107.771-44.007 108.095-99.074m-194.46-374.123c65.386-1.242 116.998-48.067 116.88-109.41-.119-61.287-53.77-108.074-121.277-107.533-62.034.498-113.41 50.737-112.939 110.436.458 58.112 54.218 106.91 117.336 106.507m890.2 902.707c-273.479 78.906-652.84 68.17-955.061-278.497-130.8-159.258-195.268-355.783-195.211-545.041.05-167.972 53.023-346.936 154.6-492.116 252.278-350.74 673.045-433.211 997.4-331.843-208.27 46.584-359.419 129.62-498.18 299.657-127.255 154.81-187.847 339.898-185.594 534.122 8.096 190.099 59.938 365.065 186.482 515.529 168.851 191.23 309.787 255.646 495.563 298.189"/></g></svg>