<svg xmlns="http://www.w3.org/2000/svg" width="2048" height="1920" viewBox="0 0 2048 1920"><defs><clipPath id="clip_1"><path d="M0 0h2048v1920H0Z"/></clipPath></defs><g clip-path="url(#clip_1)"><path fill="#231f20" d="M1745.203 865.411c2.011-10.935 15.38-17.623 22.176-12.07 1.636 1.338 3.031 4.45 2.731 6.471-.285 2.037-2.686 5.195-4.366 5.35-6.722.607-13.534.25-20.54.25m13.173 178.978c-.555 17.903-10.968 24.14-25.583 14.543-6.286-4.137-12.318-13.469-13.023-20.982-1.77-18.774-.615-37.858-.195-56.819.105-4.603.75-10.11 3.301-13.454 2.07-2.706 10.143-4.759 10.803-3.748 7.562 11.494 17.405 8.026 24.877 5.101 0 25.462.57 50.426-.18 75.36m-38.83-338.704c5.91 8.586 10.622 15.414 16.774 24.342-21.622.67-24.668-3.842-16.775-24.342m26.617-1.524c12.454-.918 24.907-1.835 37.391-2.753 1.515 14.092-5.657 20.858-17.315 16.612-7.127-2.598-14.074-5.724-21.096-8.602.33-1.757.675-3.515 1.02-5.257m8.703 88.55c.105-1.68.225-3.36.33-5.04 6.317-.918 12.68-2.52 18.89-2.038 1.051.077 1.456 9.161 2.656 17.56-10.023-4.806-15.95-7.637-21.876-10.483m-52.455 202.746c-2.926 12.256-4.35 24.886-6.812 37.267-.585 2.971-2.626 5.646-4.006 8.461-1.156.016-2.296.016-3.45.031-2.057-7.606-4.097-15.196-6.873-25.493-3.27 4.511-4.922 7.731-7.397 10.002-3.946 3.624-8.448 6.595-12.724 9.845-2.266-5.397-6.542-10.81-6.467-16.176.39-27.173 1.936-54.33 3.001-81.487.195-4.666.03-9.332.03-12.692 11.298-1.758 21.381-3.998 31.54-4.48 2.97-.155 8.537 4.402 8.882 7.311 2.655 22.351 9.767 44.391 4.276 67.411m-19.476 142.972c-2.67 12.49-6.197 24.311-18.29 32.196-34.285 22.367-71.525 32.353-111.692 32.057-2.07-.015-4.426-.404-6.167.451-12.318 6.035-20.57 6.58-21.846-11.68-.225-3.08-12.633-6.19-19.716-7.498-4.576-.84-9.707 2.38-14.584 2.395-10.863.032-20.93-.637-21.726 15.54-.15 2.907-8.823 7.605-13.549 7.59-9.798-.032-19.55-3.64-29.393-4.014-12.349-.45-24.757 1.151-37.136 1.214-3.72.015-7.457-2.13-11.193-3.298 1.425-3.297 2.041-7.59 4.441-9.752 9.198-8.259 18.936-15.228 32.47-13.268 16.82 2.427 29.678-7.108 41.456-17.514 10.788-9.534 20.031-21.526 36.761-13.485 1.905.918 5.536.39 7.217-.995 17.615-14.48 39.881-11.526 59.672-17.654 10.698-3.313 20.271-11.448 31.03-13.36 13.383-2.38 27.472-.576 43.436-.576-9.092 22.211-25.327 27.343-43.257 28.51-7.592.482-12.964 1.633-13.474 10.654 41.142 11.106 79.328-9.876 90.506-49.57 13.16 6.595 18.08 17.825 15.034 32.057m-310.498-61.52c-3.575-19.064 10.147-39.149 29.948-49.722 4.453-2.378 11.418 2.846 15.274 6.532 13.714 13.16 19.851 12.755 32.125-3.919-25.898 6.392-25.898 6.392-31.284-11.712 5.506.28 10.488.544 15.484.808.09-.933.195-1.85.3-2.784-7.037-.45-14.074-.902-24.247-1.555 9.543-12.117 17.825-19.085 30.31-23.75 11.747-4.387 17.69-2.723 25.026 6.625-3.346-6.953-6.677-13.89-10.353-21.542 3.451-3.298 7.532-7.217 11.628-11.137-19.085 16.332-29.714-2.956-47.059-2.629-.42-1.462-.84-2.909-1.26-4.37 10.562-4.838 18.086-7.753 28.664-12.59-.54-1.135-3.06-5.204-3.6-6.355-3.542 1.664-6.963 3.811-10.684 4.791-2.28.606-4.997-.56-7.532-.949 1.47-2.629 1.854-3.747 4.045-4.976 3.526-1.976 9.701-2.407 13.617-3.745 4.276-1.478 7.17-5.79 10.531-9.493-9.753 2.847-19.52 5.677-31.674 9.208-.706-5.91-3.286-12.1-1.35-15.554 2.295-4.059 8.507-5.739 12.648-8.228-10.758-2.69-6.527-7.979-.045-13.89 16.144-14.714 46.888-9.736 62.793 12.102 10.908 14.993 20.18 31.481 28.538 48.186 6.362 12.738 13.82 23.642 26.482 29.6 9.543 4.478 13.924 11.571 14 22.132.06 11.2.63 22.398.405 33.597-.075 3.344-2.116 6.641-3.24 9.954-2.717-2.13-5.568-4.09-8.059-6.455-1.455-1.384-2.34-3.39-4.53-6.688-10.954 10.67-20.962 20.64-31.315 30.222-1.545 1.43-4.666 1.275-7.067 1.43-40.06 2.365-78.187 12.74-114.903 29.257-7.052 3.173-14.479 5.475-24.037 9.053.466-31.948 23.362-46.786 38.441-66.29-18.08 6.952-30.997 13.791-38.02 34.836m-4.693-49.82c.735-14.73 3.317-26.98 20.286-32.223 10.218-3.142 17.814-16.575 28.608-19.744 9.76-2.866 15.32-2.502 22.192 7.49-26.392-.919-31.055 23.148-46.888 38.711-6.952 6.833-14.302 8.72-23.08 17.103-.57-9.333-1.403-5.77-1.118-11.338m.521-166.235v-27.733c11.058 8.212 11.193 16.13 0 27.733m-4.68-29.227-2.954.785c-4.568-6.188-9.135-12.374-13.687-18.578 18.035 37.423 19.476 76.541 13.804 116.748-10.164-27.289-17.196-50.675-20.016-82.405-.675 5.46-1.35 10.935-2.355 19.085-4.382-8.119-6.422-14.745-10.668-19.038-4.682-4.729-11.374-7.295-17.195-10.81a280 280 0 0 1-2.67 3.328c6.976 5.226 7.23 9.528 14.207 14.754-.81 1.788-1.62 3.593-2.446 5.381-13.654-1.882-20.615-2.823-33.293-4.565.405.513 2.506 3.095 5.101 6.3-1.995 1.88-4.037 3.808-6.078 5.72l.85 1.37c4.588-1.65 8.951.217 13.675-.716 17.99-3.499 26.535 2.973 33.362 21.016 4.426 11.65 10.866 17.852 14.617 30.73-21.795-8.034-25.51-5.557-38.586-40.918-4.696 17.871-4.967 26.202 5.926 37.901-.39 1.011-.765 2.006-1.14 3.017-10.938-2.364-22.029-3.286-32.562-5.557 4.817 10.856 12.235 19.911 17.471 31.717-5.146-.778-8.732-1.338-11.343-1.727 9.407 7.762 21.273 21.938 31.041 29.995-.735 1.306.75-1.29 0 0-13.609-10.328-26.798-23.44-43.347-9.908 6.055.326 13.461 5.61 20.03 5.96l.408 2.097c-6.642 3.097-12.86 8.361-19.493 11.463.66 1.587 1.335 3.173 1.996 4.744 3.751-1.71 7.487-3.437 11.238-5.148 10.923-4.993 21.126-4.93 31.644 2.24 26.722 18.244 40.826 49.088 33.234 76.82-17.73-37.242-35.432-54.944-56.566-67.13-1.095 1.104-2.176 2.224-3.27 3.328 2.955 2.302 6.736 4.044 8.657 7.062 1.98 3.095 2.13 7.434 3.091 11.214-3.722-.529-7.503-.793-11.134-1.71-1.41-.359-2.475-2.194-3.826-3.469-9.588 11.214-13.819-4.107-22.04-5.118 6.301 15.01 17.797 17.888 31.273 22.326 20.676 6.81 30.073 11.574 41.347 31.398-13.432-9.27-17.495-13.346-23.977-20.158-4.71 1.524-8.628 2.768-12.124 3.888 8.868 6.548 18.831 13.252 28.043 20.92 6.047 5.024 11.974 10.748 16.325 17.312 12.214 18.462 9.873 27.5-9.633 35.261-54.45 21.635-108.74 43.327-163.34 64.604-1.05.405-3.822 1.915-6.349 2.95 11.223-28.028 9.945-57.719-12.178-75.798-19.076-15.589-43.71-23.729-68.038-6.158a21 21 0 0 0-2.803 3.131c-16.355-22.07-18.644-25.872 7.928-32.809 2.656-.7 5.207-1.836 7.803-2.769-.39-1.4-.27-5.118-.675-6.502a34654 34654 0 0 1-37.84 11.028c-2.086-4.589-5.493-8.6-9.079-16.47 3.841-1.028 6.887-1.837 9.003-2.397-5.132-28.277-16.91-51.017-52.125-54.298 10.023-7.637 8.387-21.512 21.726-17.017-2.1-19.94-10.533-30.283-26.978-33.425-12.483-2.38-15.784 2.395-17.27 15.414-.705 6.3-7.637 13.983-13.654 17.094-23.12 11.992-45.703 23.564-61.217 46.786-15.815 23.673-10.533 53.801 13.624 67.193 11.658 6.471 23.001 13.548 34.63 20.423-.3 11.136-10.563 19.691-23.497 20.111-25.117.793-43.708 12.474-54.346 36.427-10.008 22.522-5.16 43.21 9.198 61.547 5.852 7.497 14.224 12.88 21.831 19.552-3.24 7.854-8.582 9.814-14.254 4.137-6.602-6.595-10.488-2.83-14.014 2.49-5.806 8.74-13.564 9.813-23.332 11.182-13.203 1.866-25.897 8.54-38.47 13.967-11.629 5.024-22.942 10.873-34.15 16.83-5.402 2.877-10.323 6.75-15.365 10.328-13.323 9.425-28.643 7.326-43.437 7.98-23.992 1.072-47.999 1.71-71.976 3.001-3.27.186-6.527 2.955-9.587 4.868-10.383 6.502-16.97 3.702-18.726-8.259-1.335-9.16-2.4-18.369-3.856-29.553 13.774 11.401 26.543 9.022 40.452 4.153 7.517-2.628 16.79.685 24.952-.653 9.797-1.618 19.284-5.282 28.9-8.088 0-1.825 0-1.69-.002-3.515-5.987-1.773-11.974-3.547-16.955-5.024a56133 56133 0 0 1 22.102-37.812c-7.923.871-13.369 1.727-18.83 1.991-8.238.39-16.625 1.338-24.668.11-3.9-.608-7.172-5.616-10.068-8.058 11.268-5.226 20.181-9.519 29.23-13.47 2.144-.933 4.815-1.213 7.141-.933 5.986.747 12.213.202 11.043-7.357-.435-2.784-7.938-5.319-12.544-6.33-12.738-2.769-25.687-4.558-38.486-7.046-2.265-.436-4.26-2.365-6.707-5.164 22.627-1.385 46.74 1.384 60.783-24.233a37325 37325 0 0 0-35.245-6.922c8.747-7.792 15.544-13.827 23.901-21.278-12.588-1.508-23.616-2.83-34.645-4.168 11.69-3.204 18.936-8.446 18.261-22.102-7.802 1.228-14.704 2.317-23.152 3.655 3.646-7.046 6.062-11.759 9.333-18.074h-26.573c9.708-8.46 18.531-16.16 27.353-23.844a451 451 0 0 0-.075-4.542l-48.869-6.066c-.12-1.369-.225-2.737-.345-4.106 15.094-2.162 31.33-2.1 38.741-21.107-13.129-13.687-34.735-.435-49.769-13.672 18.545 1.851 29.573-9.363 41.832-20.858-14.704-8.197-31.329 10.437-41.277-5.49l37.961-15.445c-2.746-3.593-3.66-5.926-4.682-5.958-11.448-.466-22.956-.015-34.329-1.104-4.307-.404-8.313-4.122-12.454-6.33l1.08-3.826 30.178-2.932c.34-1.439.333-1.416.672-2.854-7.082-4.449-14.165-8.897-22.492-14.124 1.65-4.51 3.661-9.97 5.671-15.429.736.373 1.486.731 2.236 1.09 0-4.403 1.095-9.225-.33-13.067-1.26-3.39-4.89-6.75-8.237-8.18-5.417-2.303-10.473-2.972-6.692-11.418 1.2-2.675-1.036-7.886-3.03-11.028-5.838-9.13-4.773-15.445 4.485-20.453 23.227-12.583 46.768-24.56 69.53-37.967 6.797-3.998 11.163-12.195 17.105-17.965 13.85-13.439 27.758-26.83 42.177-39.569.57-.502 1.318-.788 2.18-.937 5.124-.886 9.682 3.357 9.697 8.556.003 1.351-.138 2.644-.564 3.828-5.64 15.601-11.328 31.264-18.425 46.18-3.346 7-9.918 12.366-14.089 19.303 21.156-7.42 40.316-35.044 43.077-59.37.63-5.522.72-11.463 2.866-16.363 5.432-12.396-2.16-14.823-10.833-17.374-4.186-1.228-8.132-3.328-12.439-5.148 21.381-32.928 56.657-43.55 82.044-67.317 1.8-1.696 9.572-.498 10.698 1.586 8.387 15.43 16.25 30.641 6.587 49.68-4.502 8.881-3.81 20.593-5.462 31.03.96.575 1.921 1.166 2.881 1.757 3.151-2.846 7.292-5.1 9.303-8.632a2094 2094 0 0 0 34.134-62.729c1.036-1.99-.21-6.922-2.025-8.54-6.947-6.252-5.792-12.863-3.646-20.966 1.98-7.513 1.68-15.71 2.07-23.627.241-4.635-2.01-10.748.105-13.703 9.498-13.283 20.001-25.819 30.504-38.294 4.846-5.755 10.818-10.514 15.755-16.19 7.892-9.069 20.045-11.605 31.734-5.912 10.773 5.257 12.633 14.745 9.227 25.027-4.5 13.61-9.557 27.157-15.799 40.004-6.362 13.081-2.46 23.736 5.746 32.975 7.758 8.741 17.105 15.958 27.953 22.335-3.69-7.435-6.72-15.32-11.238-22.164-6.287-9.519-4.096-24.933 3.901-33.426 10.803-11.463 20.616-23.953 30.22-36.52 1.56-2.053.614-7-.436-10.157-2.746-8.275-.72-14.512 6.482-18.634 7.397-4.215 11.568-.373 16.474 5.957 6.437 8.337 14.42 15.726 22.762 22.072 9.078 6.89 12.138 21.946 7.922 36.334-2.746 9.347-2.4 19.66-3.406 29.552-.66 6.642-1.275 13.283-1.92 20.065 3.061 1.151 6.977 1.991 10.188 4.013 3.196 2.006 5.686 5.195 8.357 7.745-1.53-14.402-2.94-27.81-4.546-42.944 9.887 7.746 17.39 13.656 24.952 19.505 7.157 5.537 11.763 16.985 23.917 12.225-6.917-6.486-13.339-12.536-19.776-18.57.615-.903 1.215-1.806 1.831-2.723 1.605.653 3.916.81 4.726 2.037 12.378 18.556 28.973 16.13 46.753 11.09 7.262-2.053 15.35-.809 22.822-2.333 9.212-1.897 18.71-3.919 27.128-7.995 13.848-6.688 24.021-7.34 36.49 5.57 12.994 13.437 30.58 22.085 45.988 33.082 4.636 3.313 10.473 6.61 12.71 11.432 6.436 13.937 17.404 18.992 31.028 20.811 5.341.716 10.863 1.603 15.77 3.733 2.895 1.245 6.331 4.791 6.826 7.777 2.656 16.38 15.56 27.795 31.674 27.593 13.174-.156 26.348.607 39.506.373 7.112-.124 10.788 2.52 11.78 9.94.72 5.521 2.685 10.84 3.54 16.347.705 4.448.6 9.052.855 13.594-4.47-.514-8.957-1.01-14.044-1.587 3.376 4.884 6.812 10.064 10.473 15.088 10.998 15.118 11.043 15.118-3.976 26.177-2.026 1.478-4.23 3.593-6.437 3.702-4.126.202-8.312-.84-12.484-1.353-.495-1.634-.975-3.282-1.47-4.915 4.546-3.625 9.093-7.249 16.445-13.097-5.792 1.758-8.403 2.178-10.653 3.344-2.506 1.291-4.697 3.251-10.473 3.671 1.74-6.502 3.496-13.003 5.251-19.505-.285-.14-.57-.264-.87-.404-13.159 26.597-23.63 40.211-38.154 69.562 0-25.088-2.763-26.042 7.62-41.674 3.601-5.413 11.974-7.886 6.047-18.696-2.266-4.153 6.032-14.512 7.952-22.77-3.556 5.396-7.097 10.794-10.608 16.144-21.306-12.1-3.24-27.375-3.21-41.233-7.893 4.261-4.502 19.77-16.085 16.487-.856 7.17-1.77 14.87-2.67 22.568m-6.933 172.276c-21.666-22.226-42.237-42.617-54.106-71.252 10.984-1.042 20.916-3.687 30.294-2.318 6.872 1.011 15.064 5.85 18.936 11.635 4.021 6.035 9.167 14.59 5.836 22.397-9.678-4.96-16.58-8.508-23.482-12.054-.825.793-1.65 1.571-2.475 2.364 19.355 9.986 29.228 24.793 24.997 49.228m-232.272 143.502c-.196-1.346 1.324-2.016 2.283-1.085 1.578 1.532 2.597 3.995 2.644 5.735.105 3.577-1.15 8.167-4.17 10.483-3.348 2.568-7.83 3.12-13.235 2.21-2.02-.392-2.809-1.289-2.793-2.519.024-1.737 1.915-1.68 3.59-1.61 11.594.477 12.767-5.717 11.681-13.214m24.598 45.868c-16.7 13.61-45.028 12.365-59.868-2.629-17.585-17.778-20.09-41.949-6.39-61.842 1.41-2.069-.215.26 3.491-4.81 3.781 13.36 20.294 12.36 15.188 30.894-.888 3.223-.1 16.888 17.33 16.347 8.705-.27 15.584-5.2 17.135-14.325 1.6-9.409-4.786-16.363-13.819-16.067-11.313.357-16.655-5.553-22.567-14.2-6-8.789-4.336-12.367 4.427-15.928 21.231-8.617 44.713-.623 56.476 19.675 11.523 19.894 6.347 48.404-11.403 62.885m-61.383 23.953c-21.606 8.041-43.422 15.476-65.029 23.55-6.946 2.596-13.338 6.765-20.165 9.736-9.543 4.137-19.296 8.15-29.304-1.774 14.3-13.423 22.222-29.66 24.862-49.103.451-3.22 7.788-8.29 11.134-7.7 12.018 2.116 16.04-4.059 17.24-14.418.975-8.462 5.191-12.537 13.368-14.17 6.992-1.384 16.632-4.79 23.398-7.295 11.24 34.172 14.402 38.937 36.393 56.554-4.247 1.63-8.82 3.485-11.897 4.62m-146.607-3.624c-.015.016-.03.047-.045.078-1.395 2.737-5.04 3.08-7.052.793-2.79-3.204-7.577-9.41-8.657-15.492 0 0-.616-2.255.36-3.562.66-.902 2.04-.684 2.55.312 1.486 2.861 5.582 9.892 11.614 13.734 1.365.871 1.965 2.66 1.23 4.137m-3.196-28.199c-1.545-.996-3.076-1.99-4.62-2.987 5.34-7.948 10.682-15.88 16.01-23.828 1.05.668 2.1 1.322 3.164 1.99-4.86 8.275-9.707 16.55-14.554 24.825m6.647 2.395a49688 49688 0 0 1 15.274-29.708c4.052 12.74-.84 24.793-15.274 29.708m29.53 14.745c-4.323 3.126-8.329 7.653-13.07 8.742-2.026.466-5.582-6.253-10.143-11.759h21.591c.54.995 1.08 2.006 1.621 3.017m-11.674-152.055c23.812-19.334 23.812-19.334 43.753 5.506a33142 33142 0 0 0-43.753-5.506m30.7 123.67c-5.177-10.578-23.595-25.825-9.94-41.58 13.398 16.922 18.461 34.55 9.94 41.58m-10.507-48.8c3.541-10.344 13.072-32.284 17.633-45.55 7.652 23.065-.108 40.448-17.633 45.55m34.538 33.23c-3.78-6.315-12.434-28.542-17.82-37.516.315-.296 3.121-2.987 6.137-5.88 12.363 17.156 18 39.227 11.683 43.396m-9.913-138.29c14.104-4.93 30.58 3.343 39.386 19.022-20.39 3.748-32.889-2.084-39.386-19.023m15.858 73.982c-.915-3.002-.425-13.999-.178-20.367.217-5.624-1.95-11.09-3.06-17.638 10.036-2.94 19.894-4.122 26.451 8.445-3.526 4.9-6.662 10.406-10.923 14.714-2.236 2.256-10.59 10.972-12.29 14.846m23.528-5.283c-6.712 11.886-17.158 27.07-19.693 46.486-7.907-18.945 2.603-40.233 19.693-46.486m2.47 40.34c2.534-6.144 7.85-13.603 10.956-19.405 3.136-5.848 2.633-5.203 7.3-12.17 5.581 6.843 10.07 13.278 13.445 17.431-7.983 10.301-9.374 15.272-14.555 27.774-1.764 4.257-12.279 4.75-16.285 3.676-5.476-1.446-14.434-8.259-13.909-11.292 3.316-19.1 12.034-36.054 25.553-50.348a43758 43758 0 0 0-16.94 40.642c1.17.514 3.263 3.178 4.434 3.691m-89.284 112.98c-20.18 10.623-38.786 5.008-52.83-8.12-14.149-13.22-18.29-37.702-10.668-53.459 8.418-17.436 25.658-31.014 48.044-26.846-7.097 13.05-14.164 25.384-20.57 38.076-4.817 9.535-1.126 21.9 7.471 26.955 2.101 1.23 5.554 3.045 6.782 2.24 8.621-5.649 13.55-3.935 21.366-3.904 7.653.031 15.335-7.279 22.897-11.323 2.19 12.49-7.352 28.401-22.492 36.381m-304.407 155.773c-16.324 5.241-33.204 8.803-46.528 21.106-1.215 1.136-3 2.91-4.14 2.63-18.74-4.574-14 11.93-19.087 21.432 13.85 1.805 26.138-12.956 41.713.218-13.385 3.75-24.218 6.906-35.096 9.815-10.773 2.862-21.59 5.521-32.409 8.212-3.976.995-8.117 2.94-11.988 2.52-19.536-2.13-39.387-2.909-56.85-14.419-10.25-6.766-13.805-16.767-8.959-28.23 1.83-4.324 2.896-9.006 4.756-14.963a16206 16206 0 0 0 19.116 7.295c.795 11.76 6.542 11.945 16.79 5.086 16.28-10.919 35.275-11.059 53.97-12.677 8.267-.699 16.265-4.93 24.367-7.62 11.268-3.75 22.476-7.716 33.82-11.247 5.896-1.835 12.003-3.872 18.05-3.997 4.141-.093 8.342 2.955 12.513 4.604-3.316 3.531-6.046 8.96-10.038 10.235m-19.22 44.795c5.837-13.33 12.5-16.129 23.497-9.006-8.568 3.282-15.605 5.988-23.497 9.006m-158.88-92.375c-12.544-2.489-21.02 2.644-30.204 10.141-8.403 6.875-30.519-.995-32.724-12.63-3.722-19.629-4.502-39.864-6.287-59.867-.165-1.804 1.395-3.779 3.436-8.88 4.546 8.694 7.922 15.055 11.223 21.448 5.281 10.234 17.75 13.298 26.888 6.766 2.64-1.882 7.382-5.18 8.357-4.34 14.78 12.692 30.024-3.468 44.893.933 1.635.483 4.666-4.044 5.446-4.759 11.45 2.037 20.976 6.221 29.664 4.806 20.586-3.344 43.122 15.025 63.603-5.304-5.537 15.772-10.758 31.668-16.94 47.16-.885 2.208-6.437 3.5-9.768 3.391-13.623-.483-27.247-1.43-40.826-2.785-2.866-.295-6.092-2.519-8.148-4.82-9.347-10.422-24.772-10.298-34.585-.14-3.886 4.012-9.992 9.673-14.028 8.88M413.25 733.642c2.858.227 5.641.447 8.425.665l.225 3.966c2.821-1.478 5.836-2.644 8.417-4.464 4.291-3.033 8.313-6.47 12.44-9.737-3.947-3.857-8.359-7.326-11.72-11.68-4.636-5.958-8.957-12.289-12.423-19.008-1.606-3.126-.886-7.528-1.38-13.096 7.682-4.044 14.27-9.488 7.727-22.616-2.97-5.957-2.206-16.643 1.155-22.6 5.026-8.943 12.98-16.86 21.306-22.77 5.207-3.687 13.67-4.745 20.196-3.749 33.324 5.101 66.44 11.712 99.778 16.751 8.178 1.245 16.91-1.384 26.378-2.333-2.01-13.547-1.155-23.362 11.163-26.053 3.841-.84 9.093-.28 12.23 1.898 13.937 9.643 19.834 8.803 30.772-5.397 5.552-7.202 11-13.563 21.952-8.633 11.898 5.366 20.931-5.133 31.3-8.492 9.616-3.127 18.23-13.034 31.027-4.837-6.796 4.666-12.993 8.787-19.04 13.143-6.932 4.993-13.594 10.374-20.6 15.227-3.677 2.551-7.698 5.631-11.854 6.19-19.986 2.707-34.78 14.497-49.86 27.064-7.292 6.066-17.915 7.746-26.782 11.946-4.967 2.364-10.098 5.086-14.014 8.897-9.843 9.612-18.245 20.951-28.719 29.677-10.382 8.632-21.816 15.134-26.137 29.848-1.38 4.697-7.877 8.492-12.799 11.23-14.809 8.274-30.248 15.367-44.937 23.844-8.523 4.915-15.74 10.5-26.183 3.95-3.136-1.959-9.122.95-15.829 1.914-1.516-2.396-4.082-6.47-6.662-10.56-7.99 1.97-13.32 2.956-17.142 2.433-8.03-1.098-6.49-13.258 1.59-12.618m252.17-209.91v26.861c-4.95-.358-14.569-.342-14.404.015-9.422 2.302-19.7 2.893-27.998 7.388-8.447 4.59-14.929 13.035-22.76 20.236-2.447-22.802 40.825-59.29 65.162-54.5m28.342 202.331c-16.219 3.142-33.054 2.722-49.574 4.293-7.787.746-16.565.311-23.09 3.904-24.788 13.672-50.716 17.078-78.189 13.827-6.286-.73-12.903 1.602-19.37 2.52a590 590 0 0 1-2.22-4.526c8.927-5.428 17.944-10.717 26.767-16.3 6.557-4.154 13.324-8.135 19.19-13.175 12.44-10.716 23.617-23.175 36.806-32.694 6.002-4.309 16.595-6.564 23.331-4.23 43.948 15.18 85.285 9.083 122.42-17.717 20.271-14.62 40.707-19.473 64.37-18.276 10.817.545 21.83-2.613 34.074-4.262-8.508 7.155-16.4 14.357-24.832 20.796-39.372 30.066-80.709 56.383-129.683 65.84M581.14 865.784c-8.072 5.538-18.17 11.526-27.203 11.246-23.72-.762-41.952 12.303-61.817 21.604-3.36 1.571-6.587 3.453-9.783 5.133-9.693-12.396-8.267-31.76 2.221-45.138 17.225-21.962 38.201-37.625 64.518-46.382 6.767-2.255 11.343-11.027 17.45-16.129 5.717-4.759 11.613-10.437 18.365-12.52 15.38-4.745 31.33-7.607 47.07-11.075 11.702-2.567 23.195-10.25 35.41.155 1.92 1.65 8.822-2.115 12.993-4.277 7.742-3.997 14.974-9.053 22.791-12.832 2.401-1.15 6.527-.389 8.883 1.12 1.155.731.57 5.381-.12 7.994-5.912 22.103-19.07 34.421-40.107 44.734-20.856 10.218-40.887 22.724-62.493 32.274-10.728 4.744-18.05 17.141-28.178 24.093m-129.397-70.63c6.107-9.722 45.283-21.79 64.28-19.085 2.64 10.203 1.424 18.105-7.894 25.571-14.974 12.007-28.553 25.897-42.687 39.025-5.686 5.272-10.773 12.396-19.64 5.008-.96-.809-3.692.42-5.507.995-12.363 3.982-21.38-.357-28.358-14.838h25.522c6.347-6.315 14.21-13.5 21.246-21.449 2.476-2.8 2.941-7.497 4.337-11.339-3.827-1.306-7.653-2.629-11.299-3.888m89.951 311.686c-11.163 3.717-3.406 10.172 1.005 16.984-5.82-.902-9.678-1.882-13.564-2.006-3.586-.124-7.187.67-11.058 1.073.09 17.856 11.253 19.536 24.847 18.976-24.352 16.005-69.875 5.428-89.605-21.34 6.061 1.307 10.218 2.115 14.314 3.126 12.213 3.05 23.677 2.536 33.73-6.61 2.43-2.224 5.446-3.904 8.402-5.335 6.227-2.985 12.16-6.024 13-10.875 1.011-5.86 6.391-9.99 12.158-8.54q.578.147 1.19.276c9.092 1.927 15.59 7.707 23.556 13.944-5.732 0-12.378-1.54-17.975.327m-32.274 64.378c8.297-2.769 16.595-5.553 24.892-8.322.6 1.68 1.2 3.375 1.8 5.055-8.147 3.344-16.279 6.688-24.427 10.032-.765-2.255-1.515-4.51-2.265-6.765m37.736 68.795c-5.717 9.581-21.232 15.74-29.439 10.654-1.86-1.15-3.586-5.584-2.85-7.466 1.455-3.764 4.636-6.797 6.541-9.363 7.157 1.711 16.07 3.857 25.748 6.175m-21.937-28.029c-1.17.327-3.06.576-3.66-.077-10.069-10.98-20.872-3.858-31.9-2.302-12.153 1.742-19.13-4.993-21.14-16.068 9.137-4.013 17.99-7.917 26.932-11.852-.15 18.167 16.325 12.91 25.597 16.332 9.933 3.671 21.666 2.162 32.604 2.91.496.838.991 1.663 1.486 2.503-9.963 2.862-19.926 5.77-29.919 8.554m49.724-290.47c-.87.202-1.83 10.623.466 13.034 13.534 14.28.555 20.438-7.127 28.417-1.456 1.494-2.836 3.065-4.442 4.807 7.322 14.698 20.616 1.197 30.234 10.047q-23.654 4.784-47.309 9.566c-.225 1.291-.45 2.567-.675 3.842 13.28 4.417 26.558 8.85 39.897 13.283-5.147 1.633-11.794 4.635-18.726 5.677-7.217 1.073-14.704.234-22.176 2.318 13.204 9.083 22.491 26.38 42.627 15.507l.135 5.755c-6.317 2.131-12.529 4.728-18.98 6.331-10.893 2.69-21.952 4.744-32.515 6.983 7.368 22.538 26.753 14.574 40.962 24.638-4.426 1.54-10.008 5.677-13.084 4.215-14.524-6.937-27.862.42-40.976 3.328-9.333 2.07-16.175 2.94-24.082-3.157-4.5-3.469-10.863-4.355-16.565-8.679 22.582 1.602 12.994-25.353 27.398-29.304-13.624-8.46-32.89 2.66-44.248-15.336 7.217-4.9 18.5 2.551 22.282-8.15 2.7-7.699 4.321-15.819 6.392-23.673-10.308-3.5-19.34 10.436-26.108.544 3.871-9.02 6.992-16.316 10.068-23.487-11.433-1.57-21.56-2.97-32.079-4.417 12.168-12.832 21.666-25.788 33.88-34.887 11.898-8.866 23.436-18.276 41.576-17.28 14.404.777 29.484-9.13 44.053-14.855 8.762-3.422 17.135-7.917 28.373-13.19-.87 5.85-1.335 9.162-1.876 12.444-.045.264-1.005.435-1.005.622.6 12.583-2.896 21.946-16.37 25.057M808.65 564.628c15.515-7.73 31.3-15.414 47.7-20.609 13.713-4.339 28.477-5.335 42.851-7.06 3.136-.375 8.703 1.741 9.438 4.012 1.05 3.188-1.215 7.637-2.296 11.48-6.947 24.714-28.853 37.375-44.968 53.084-13.068 12.723-35.665 16.581-54.765 20.625-18.92 3.997-38.83 3.002-56.22 13.843-1.742 1.09-3.812 1.835-5.823 2.193-14.359 2.66-25.822 11.261-38.47 17.825-23.948 12.412-51.09 12.303-77.918 3.204 25.957-16.487 42.027-48.793 77.347-48 4.291.094 8.912-2.162 12.964-4.23 30.083-15.368 59.927-31.295 90.16-46.367m134.484-137.357c17-2.302 30.79-8.135 43.812-18.85 3.256-2.676 12.17-3.874 13.55-1.96 3.975 5.536 14.538 10.218 6.271 20.39-1.2 1.462-1.02 5.85.24 7.404 5.252 6.455 10.653 12.988 16.955 18.276 6.572 5.522 14.254 9.628 23.872 15.943-4.652 1.82-6.572 3.36-7.683 2.877-18.995-8.134-37.75-16.876-56.866-24.637-4.816-1.944-10.713-1.136-16.129-1.307-4.652-.14-9.333.078-13.999.202-2.34.063-4.922-.373-6.947.514-12.619 5.506-25.103 11.307-37.63 17.016-1.066-1.556-2.132-3.096-3.197-4.65 8.702-15.182 20.631-28.885 37.751-31.218m109.621 119.004c4.741-4.37 12.034-9.893 17.27-8.866 25.612 5.024 50.43 10.094 68.375 35.043 10.277 14.263 29.423 21.744 44.712 32.088 8.568 5.786 17.69 10.732 26.018 16.876 7.232 5.304 6.977 12.07-.916 16.27-18.92 10.047-36.01 24.746-58.68 25.725-2.042.094-4.533.327-5.973 1.54-13.234 11.09-20.136 2.396-28.028-8.072-5.672-7.497-13.744-13.034-20.75-19.458 19.535 5.024 37.795 9.737 56.055 14.45.33-1.292.66-2.567.99-3.842-5.806-1.836-11.913-3.018-17.344-5.662-8.028-3.92-15.665-8.74-23.302-13.47-3.166-1.96-5.672-6.252-8.868-6.75-13.759-2.115-15.619-13.143-20.27-23.86-5.777-13.33-15.275-24.902-22.807-37.469-2.836-4.729-7.637-13.486-6.482-14.543m113.478-9.084c19.85 13.688 43.107 14.761 65.088 20.61 23.257 6.19 45.568 13.75 65.9 28.541 15.198 11.06 34.21 16.362 50.94 25.4 9.631 5.21 18.094 12.754 28.026 19.924-3.465 3.111-4.066 4.137-4.696 4.153-24.142.653-48.719 4.355-72.305.871-23.047-3.407-47.024-6.004-66.229-26.038-14.33-14.93-34.165-25.352-53.16-33.969-12.679-5.74-15.575-15.865-20.692-26.038-2.355-4.68-5.446-8.974-9.797-16.005 6.211.81 12.828-.264 16.925 2.551m1.785-43.318c4.096-4.028 9.768-6.33 16.25-10.219 3.616 8.228 6.391 15.368 9.842 22.15 2.011 3.934 4.352 8.772 7.848 10.623 8.972 4.76 10.923 11.914 9.467 22.195-2.775-.653-5.986-.482-7.877-2.038-12.694-10.374-25.327-20.873-37.315-32.087-1.486-1.369-.346-8.539 1.785-10.624m84.264 14.885c1.32-3.219 5.687-6.78 9.048-7.108 10.728-1.073 22.281-4.277 28.403 10.701 1.8 4.371 9.122 6.378 13.984 9.348 5.206 3.204 10.503 6.253 15.754 9.364-.765 1.524-1.515 3.033-2.28 4.557-22.387 3.251-43.243.265-60.108-17.514-2.415-2.535-5.67-7.279-4.8-9.348m104.013 47.78c9.138 1.943 17.735 7.262 26.198 11.804 7.412 3.982 14.224 9.146 21.471 13.501 3.781 2.255 7.832 4.122 11.913 5.708 4.202 1.633 9.663 1.478 12.74 4.262 14.973 13.594 34.42 15.85 51.644 23.611 13.82 6.206 22.926.093 33.76-5.444 3.495-1.789 8.507-.607 12.813-.467 2.716.094 5.417 1.12 8.118 1.105 2.46-.016 5.896-2.193 7.202-1.15 13.038 10.467 24.922-3.64 36.88-1.588 13.19 2.256 25.882 7.762 38.531 12.6.825.31.66 9.207-1.29 10.498-16.34 10.857-11.013 28.65-5.717 38.807 8.238 15.772-1.29 23.113-8.642 28.713-10.593 8.057-14.75 15.227-10.203 28.261 2.295 6.564-.886 11.712-8.433 12.692-2.88.374-5.67 1.431-8.537 1.913-22.882 3.936-25.988 1.447-24.457-22.724.285-4.402 5.792-8.446 9.423-13.392.585-5.257 1.275-11.323 2.22-19.582-4.23 4.946-8.132 8.352-10.638 12.63-6.617 11.323-15.139 11.867-25.327 5.957-9.693-5.615-19.07-12.086-29.258-16.488-7.848-3.39-16.835-3.795-25.148-6.159-15.394-4.37-31.103-8.088-45.898-14.123-18.635-7.606-27.188-24.295-30.173-43.893-1.98-12.988-7.457-20.625-20.856-23.036-25.808-4.65-44.998-22.553-65.449-37.656-1.906-1.4-3.316-4.993-3.15-7.435.104-1.602 3.585-4.37 5.356-4.215 15.02 1.322 30.203 2.147 44.907 5.29m223.136 246.311c-1.2-.856-2.415-1.727-3.63-2.598-.27-5.413-.556-10.825-.84-16.238-.42-.093-.856-.202-1.276-.296-1.306 6.284-2.626 12.584-4.336 20.843-2.43-2.053-5.942-4.169-5.702-4.915 5.131-15.088 8.807-31.264 16.91-44.5 4.411-7.217 16.37-9.675 25.252-13.454.945-.405 4.636 4.401 6.077 7.31 2.04 4.106 3.181 8.695 4.936 13.781-11.418 12.225-24.397 26.146-37.39 40.067m48.174 32.94c4.366.062 9.077 3.095 12.738 6.035.855.684-1.065 8.197-3.106 9.068-7.322 3.11-15.229 4.744-24.217 7.295 1.756-6.44 2.116-11.759 4.577-15.648 2.07-3.266 6.617-6.812 10.008-6.75m.648-85.626c4.517-5.35 9.033-10.685 13.55-16.02l3.6.7c0 3.375 1.351 7.98-.27 9.907-4.486 5.382-10.203 9.644-15.439 14.341-1.005-2.302-2.1-4.557-2.896-6.937-.135-.436.915-1.337 1.455-1.99m-50.905 82.208c3.481-9.892 12.83-7.34 20.436-6.455 7.052.825 8.447 4.822 7.772 12.475-1.305 14.9-11.583 21.542-21.036 30.625-11.268-11.867-11.493-24.373-7.172-36.645m-129.862-128.12c.345 3.624.825 8.617 1.29 13.594-1.23.483-2.445.95-3.676 1.431-6.452-9.425-12.919-18.867-19.37-28.292.3-1.322.6-2.645.885-3.982 11.583 1.944 23.167 3.873 34.765 5.801.03 2.334.075 4.667.12 7-4.68 1.493-9.363 2.971-14.014 4.448m43.893 67.136c-12.918-4.604-15.475-12.079-13.9-24.77.781-6.223-3.407-9.185-6.903-15.236-4.832-8.305-2.626-15.242 2.94-20.904 2.206-2.24 7.713-2.255 11.344-1.447 5.551 1.23 6.691.075 15.168 3.481-2.955 20.19-5.393 36.742-8.649 58.876m26.876-37.518c-1.133 15.173-1.61 24.953.91 36.96 2.55 12.04 8.232 25.415 12.028 37.22 3.346 10.36-.709 20.777-12.592 26.237-9.333-38.652-23.302-76.043-2.896-113.7a1220 1220 0 0 1 5.776-3.624c1.996 3.795 4.967 7.388 5.807 11.448 3.616 17.623 6.617 35.37 8.207 53.443-10.657-21.69-8.614-28.814-11.988-48.777zm-168.582-74.394c.66-1.742 1.335-3.484 1.996-5.24 6.241 0 14.374-2.568 18.35.543 8.522 6.673 15.784 15.647 21.921 24.855 6.812 10.25 12.964 20.454 15.364 34.032 1.381 7.84 15.365 14.963 24.998 19.178 13.068 5.724 22.131 14.42 28.973 26.77 2.176 3.903 6.002 6.843 9.197 10.373-10.953 5.273-10.953 5.273-30.563-11.12-1.59 1.975-3.046 4.992-3.976 4.821-15.65-2.784-32.875 1.618-45.493-13.999-16.565-20.453-37.286-35.043-63.139-40.673-2.28-.482-4.47-2.333-6.27-4.029-11.84-11.26-24.098-22.133-35.02-34.296-3.512-3.92-3.407-11.339-4.953-17.156 5.147-.545 10.653-2.613 15.38-1.384 17.165 4.463 34.03 10.187 51.12 15.056 3.255.933 6.991.14 10.502.14.615-1.182 1.246-2.349 1.876-3.53q-5.13-2.172-10.263-4.34m82.283 213.944c.271-1.882.556-3.764.826-5.63 5.716 1.042 11.418 2.1 20.3 3.733-6.136-3.873-8.852-5.6-12.798-8.088 3.181-3.733 5.942-6.953 10.248-12.008 3.871 9.597 6.887 17.063 11.493 28.48-11.973-2.583-21.02-4.543-30.069-6.487m-39.88 13.205c9.347-18.602 12.378-20.919 21.245-14.2-6.377 6.035-12.468 11.805-18.575 17.576-.885-1.136-1.786-2.256-2.67-3.376m18.42 63.986c-7.952 22.647-18.196 32.916-41.302 42.264-.75-16.534-.867-25.818 12.366-36.892 4.667-3.904 6.402-8.93 9.042-14.608 3.842-8.18 7.818-10.452 16.49-6.424 8.508 3.967 6.39 7.136 3.404 15.66m-39.322 3.394c-.645-17.87.555-34.716 11.763-47.253 10.023-11.199 17.682-11.137 30.181-19.179 4.696-3.017 7.363-.855 14.4 0 .3 1.93-.3-1.913 0 0-27.278 17.81-40.844 35.698-56.344 66.432m130.21-75.467c.747 1.863-.278 4.5-.664 8.7-8.233-10.896-7.942-15.792-9.883-24.116-2.026-8.625-4.03-17.273-6.128-25.873-1.23-5.025-4.359-10.739-6.638-15.489-1.06.425-5.407 1.8-6.468 2.213 1.917 5.375 3.26 10.491 4.766 15.991 1.603 5.9 3.194 12.171 4.267 18.222 1.001 5.624 1.903 7.481 2.202 17.102-16.7-7.012-29.398-32.074-26.287-49.924 1.303-7.4.447-15.188.917-22.762.58-9.288 5.125-12.725 12.287-7.388 11.805 8.8 22.96 18.863 32.86 29.85 3.122 3.462 3.122 12.162 1.518 17.487-3.618 11.975-7.814 23.375-2.749 35.987m72.933 80.631c-.09 4.495-.69 8.975-1.125 14.14-28.868-16.224-50.955-36.677-59.447-68.952-6.092-23.144-3.66-44.609 16.46-60.349 12.468-9.753 16.264-23.098 16.16-38.419-.06-8.632 1.5-17.467.12-25.835-2.492-15.087 5.296-19.738 19.19-22.07-23.482 44.017-3.316 84.504 7.967 126.982-14.38-8.324-18.155-13.905-25.822-20.889-1.02 4.433-2.01 8.663-3.376 14.574 1.695 1.011 5.056 3.546 8.777 5.133 19.851 8.508 24.607 24.171 21.591 44.795-1.47 10.095-.27 20.594-.495 30.89m65.81-92.079c5.971 9.768-2.942 16.938-9.844 23.284-3.36 3.095-6.647 6.284-8.222 7.777 5.852 7.42 11.748 13.921 16.46 21.262 2.325 3.61 3.571 8.788 3.361 13.143-1.2 24.078-3.076 48.11-4.532 72.155-.54 8.928-1.275 16.907-11.913 19.894-2.46.7-4.306 7.186-4.74 11.2-.362 3.421 1.74 7.122 3.03 11.711-17.51 1.648-24.518-5.444-26.858-21.2-5.927-39.912-8.013-79.948-7.473-120.295.346-25.664 5.912-35.4 29.784-40.658 6.857-1.524 18.65-2.037 20.946 1.727m17.255-114.166c.42-2.94 2.341-6.44 4.651-7.995 1.231-.84 5.807 1.151 7.022 3.111 5.657 9.068 10.668 18.571 17.405 30.58-18.245-3.19-30.564-15.4-29.078-25.696m18.845-93.153c-.735-.093-1.485-.187-2.235-.296-2.416-5.692-5.462-11.214-6.977-17.17-.916-3.61.555-7.856.945-11.822 2.761 2.986 7.232 5.615 7.907 9.037 1.276 6.517.36 13.485.36 20.251m11.974 196.167c-6.782 1.648-13.564 3.297-21.832 5.303v-13.874c7.187 1.65 14.12 3.236 21.036 4.822.271 1.244.526 2.504.796 3.75m-17.42-291.669c6.572.668 16.384-6.486 18.77 7.403-6.452 1.198-11.928 2.987-17.375 2.893-2.806-.046-5.566-3.453-8.342-5.35 2.325-1.742 4.816-5.164 6.947-4.946m216.542 630.946c-3.166-11.727-6.737-19.582-14.119-26.457-8.658-9.239-23.167-18.727-23.167-18.727-19.7-11.183-39.836-21.558-59.132-33.425-8.702-5.35-16.925-12.615-23-20.874-1.967-2.675 3.6-11.245 5.625-17.156.54-1.602.855-3.328 1.005-5.024 2.671-30.268 5.267-60.552 7.983-90.82.405-4.386 1.41-8.71 2.115-12.987 17.885 2.333 34.945 1.602 46.74 17 2.084 2.722 6.421 3.982 9.977 5.04 13.67 4.122 25.807-2.442 22.821-13.174-7.247-26.038-9.873-55.683-40.287-67.287-2.85-1.089-5.43-4.137-7.217-6.906-9.512-14.792-18.725-29.785-29.873-47.61 5.927.902 9.783 1.337 13.594 2.1 4.816.948 9.543 2.348 14.374 3.235 6.332 1.151 12.753 1.773 19.055 3.017 8.028 1.587 12.034-3.344 10.023-9.783-2.76-8.835-6.692-18.696-13.144-24.56-9.032-8.197-20.735-13.299-31.478-19.41-9.198-5.259-12.604-20.408-6.767-31.669 2.67-5.133 21.291-9.099 26.542-4.853 11.824 9.581 23.722 14.73 37.856 4.028-.135-1.446.105-3.297-.495-4.79-8.313-20.687-27.833-29.148-44.173-39.74-9.903-6.44-12.228-14.248-11.808-22.678.525-10.499 9.573-4.838 15.574-5.615 7.457-.98 14.57-4.729 21.847-7.28.195-1.788.405-3.577.615-5.366-11.464-10.048-23.917-19.162-33.97-30.548-4.77-5.397-4.95-15.149-7.202-22.926 5.387-1.15 10.788-2.302 13.354-2.862a24889 24889 0 0 1-15.29-33.41c-4.8 8.555-10.773 19.178-16.94 30.175 7.743 7.808 14.84 15.896 4.847 26.892-12.394-3.017-26.768-16.238-28.373-24.948-1.126-6.113-4.05-11.852-5.447-17.934-1.095-4.713-2.52-10.312-.96-14.31.81-2.068 7.832-1.866 12.078-2.022 2.776-.108 5.597.95 7.518 1.322.84-3.25.75-6.812 2.415-8.336 2.461-2.256 6.167-3.049 10.788-5.118-7.127-7.885-12.528-15.787-19.655-21.293-10.083-7.793-17.225-16.627-20.256-29.553-1.245-5.272-5.477-9.876-8.628-14.589-3.45-5.18-9.092-9.566.601-15.01 2.22-1.244 2.235-9.488.96-13.796-1.005-3.39-5.537-5.677-7.082-7.108-8.237 8.057-15.62 15.274-24.712 24.171 6.827 1.508 11.673 2.597 16.505 3.67.495 12.07-1.546 12.661-12.004 10.36-11.163-2.474-17.57-9.364-25.657-16.784-10.713-9.83-11.073-21.355-10.893-32.538.15-10.126 1.935-22.569 17.045-25.244-7.323-10.453-15.815-18.96-19.836-29.335-3.886-10.033-3.166-21.978-4.47-33.084-4.083 5.553-6.993 11.557-6.888 17.5.36 18.897-.57 36.613-23.962 44.25 18.545 14.543 21.666 33.394 13.76 49.306-11.84 23.828-28.78 44.92-43.514 67.193-2.37 3.608-4.516 7.373-6.752 11.074 4.111 2.458 8.178 5.024 12.364 7.357 6.992 3.89 14.06 7.622 23.827 12.895-12.124 6.812-18.95 7.061-26.873 1.182-4.95-3.67-12.078-4.169-18.17-6.253-4.742-1.618-10.188-2.442-13.954-5.444-8.463-6.766-16.37-8.197-26.003-2.535-4.756 2.8-10.638 3.935-16.159 4.853-9.963 1.68-20 3.033-30.054 3.733-6.152.42-12.663.404-18.53-1.26-8.613-2.442-16.595-8.757-25.162-9.504-19.64-1.695-35.485-11.043-49.169-23.984-14.044-13.283-25.943-28.977-39.537-42.836-5.37-5.475-13.323-13.049-19.16-12.256-12.694 1.711-22.267-2.458-31.029-9.86-24.307-20.533-47.264-8.214-70.97 1.383-5.957 2.426-15.38 3.05-20.166-.233-12.289-8.477-22.927-19.52-34.09-29.693-5.16-4.713-9.033-5.07-14.974.047-10.743 9.286-22.567 17.265-34.33 25.197-2.476 1.665-8.507 2.302-9.603.81-9.197-12.522-21.83-19.52-34.044-28.216-13.519-9.612-23.587-24.497-38.8-33.86-12.92-7.964-22.883-21.014-34.21-31.762-19.852-18.85-34.15-19.116-54.437-1.042-3.166 2.815-5.882 6.486-9.483 8.337-3.87 1.991-9.437 4.417-12.678 2.94-9.948-4.527-17.345-.187-23.932 5.817-19.88 18.09-39.236 36.785-58.907 55.123-3.976 3.702-8.132 7.481-12.828 10.032-26.303 14.28-52.636 28.355-71.886 52.946-5.762 7.357-12.439 8.788-20.646 2.473-15.184-11.68-31.434-20.453-51.39-20.313-11.088.077-21.336-2.925-31.089-10.826-8.792-7.139-21.11-7.015-31.524.14-16.489 11.34-32.964 22.724-49.214 34.421-6.03 4.355-12.708 8.71-16.864 14.714-14.405 20.718-36.266 26.037-57.992 29.32-14.449 2.177-29.739-2.38-44.593-1.914-7.667.25-15.259 4.76-22.806 7.56-6.767 2.503-13.414 5.32-20.136 7.947-10.443 4.076-20.916 8.104-33.82 13.097 0-10.266 1.156-16.938-.27-22.958-2.296-9.643-4.966-19.69-9.933-28.028-5.596-9.379-12.078-8.15-16.114 1.991-5.597 14.045-9.753 28.432-5.762 43.924 2.041 7.964.3 15.585-7.007 18.758-14.509 6.284-29.363 12.086-44.563 16.27-16.474 4.541-33.504 7.03-54.12 11.168 6.707 2.177 10.323 4.557 13.73 4.277 20.255-1.727 40.541-3.53 60.661-6.486 7.622-1.12 12.454-.389 13.624 7.995 1.275 9.068 1.921 18.213 2.986 27.312.135 1.167.81 2.691 1.71 3.298 9.228 6.19 18.561 12.21 28.284 18.54-6.347 6.984-13.744 4.355-21.727.824-3.736-1.633-8.297-1.306-12.468-1.866a667 667 0 0 1-1.26 3.111c-2.67-3.749-5.357-7.482-7.278-10.173-4.966 3.61-8.597 5.6-11.373 8.462-1.845 1.928-3.99 6.952-3.436 7.45 8.207 7.17 16.67 14.061 25.417 20.516 3.85 2.841 7.634 4.036 11.337 3.893 7.444-.288 8.256 11.25.832 11.87-3.21.268-6.908-1.407-11.584-4.58-9.437 2.131-16.444 3.718-27.097 6.144 6.917 10.857 13.128 20.593 20.841 32.71-15.44-6.315-16.79.124-12.589 10.157-7.052.886-13.339 1.664-20.24 2.535 4.291 8.43 2.79 11.432-5.837 12.288-8.388.808-17.24 2.986-24.622 7.014-23.107 12.661-46.214 25.54-68.21 40.13-19.67 13.034-37.856 28.463-56.7 42.835.63 1.136 1.274 2.271 1.92 3.422 4.516-1.804 9.362-3.017 13.473-5.52 17.165-10.469 31.333-14.427 47.868-25.89 9.423-6.533 18.695-11.993 30.084-8.866 9.707 2.675 15.574-1.462 21.546-8.586 4.201-5.008 9.482-10.203 15.304-12.35 8.868-3.282 18.59-4.23 28.013-5.615 1.936-.295 5.597 1.431 5.987 2.91.615 2.425 0 6.018-1.47 8.071-7.863 11.012-12.878 15.484-21.22 26.122-9.243 11.806-18.816 23.363-28.239 35.028 10.893-2.504 19.941-7.528 29.424-11.463 3.271-1.353 9.272-1.618 11.118.42 5.116 5.661 8.702 12.816 13.474 20.282-4.787.342-8.418.607-12.784.918.555 16.238-15.034 9.877-22.266 17.016 11.853 3.982 23.121 7.792 32.094 10.81-7.187 7.637-13.309 14.138-19.43 20.656 1.305.855 2.61 1.726 3.9 2.597a15786 15786 0 0 1 9.333 17.56c2.581-.948 5.807-2.13 9.018-3.313 1.56 1.82 3.12 3.64 4.681 5.444-3.466 1.354-6.962 3.936-10.383 3.842-13.189-.42-26.347-1.71-39.07-2.628-5.883 20.624 10.367 27.064 23.691 37.485-18.77 4.261-37.18 4.62-57.602 3.686 13.85 19.256 29.454 29.786 49.874 33.285-23.03 16.908-45.778 18.276-70.19 15.881 4.397 3.391 8.793 6.797 12.98 10.032a5139 5139 0 0 1-5.087 11.37c11.958 5.195 22.881 9.94 34.81 15.103.645 2.613 1.725 7.046 2.85 11.463 3.557 14.061-2.806 21.698-16.369 19.598-23.602-3.639-23.617-3.639-16.715 19.116.45 1.493 1.32 2.847 2.025 4.34 10.954 0 21.367-.078 31.78.015 7.277.078 11.703 2.21 7.097 10.904-.796 1.508-.105 3.873-.105 6.812 2.895-.855 5.266-.84 6.556-2.053 7.548-6.999 12.35.856 17.18 3.998 3.091 2.006 6.542 10.001 5.642 10.918-4.35 4.418-10.098 7.358-15.38 10.795-.3.187-.855-.062-1.23.047-16.715 5.086-33.279-15.492-50.099-.343-.39.343-1.576-.31-2.386-.404a631 631 0 0 0-7.802-.87c-.21 1.26-.42 2.52-.63 3.794 5.521 1.773 11.028 3.562 18.455 5.957-6.737 2.365-11.403 3.998-15.499 5.43 2.82 4.214 5.086 7.31 7.052 10.575 3.271 5.413 5.266 12.366 9.782 16.083 6.842 5.631 15.395 9.037 24.622 14.17-3.496 12.101-16.399 6.05-24.26 9.52-8.907 3.904-19.719 3.166-29.688 4.464l-.26 2.833c12.603 3.898 25.225 7.817 39.85 12.331.03.078 1.05 3.562 2.04 6.921 11.718-1.135 22.566-2.177 34.345-3.313.495 1.478 1.53 4.59 2.836 8.524 10.713-1.509 20.526-10.888 29.168 2.178 1.816 2.737 9.768 4.168 12.844 2.41 9.722-5.568 23.196-4.868 28.688-18.027 1.455-3.499 5.206-5.972 8.372-9.425 7.547 23.502.495 47.564-13.789 47.564.901-4.06 1.756-7.964 2.146-9.675h-10.458c-8.493 5.662-15.605 10.421-22.597 15.087 11.27 6.362 17.78 15.788 13.37 29.833 9.392 1.586 18.08 3.064 30.488 5.18-9.108 6.797-15.185 11.79-21.68 16.082-7.833 5.164-15.77 10.344-24.218 14.28-2.76 1.29-7.832-.312-10.683-2.35-2.026-1.43-2.13-5.8-3.63-10.608-13.985 5.15-27.429 9.286-40.108 15.212-4.32 2.022-9.602 8.695-9.377 12.972.615 11.946-4.247 18.478-14.029 22.99-2.88 1.321-5.432 3.81-7.668 6.252-11.463 12.521-18.155 12.163-28.823-4.06-11.928 15.538-23.407 30.47-34.795 45.464-.705.933-.735 2.442-1.02 3.702-2.356 10.701-4.47 21.48-7.157 32.104-1.98 7.84-.195 12.427 8.192 10.561 35.546-7.964 68.675-25.618 105.585-28.215 1.126-.078 2.206-1.058 1.216-.56a9794 9794 0 0 0 6.152-24.716c.84.623 1.665 1.245 2.49 1.867 3.916-4.495 7.848-8.99 12.47-14.279.524 1.074 1.74 3.531 4.005 8.166 5.897-12.847 10.473-22.817 16.175-35.245 5.086 12.801-11.794 25.042 4.606 32.446 1.14 5.6.6 15.102 4.156 17.218 4.321 2.566 12.38-.249 18.32-2.302 7.847-2.69 15.08-9.364 22.822-9.815 8.657-.482 19.46 1.65 26.002 7 10.653 8.71 11.78 10.265 22.146-.934.526 3.811.946 6.844 1.951 14.14 8.598-8.136 15.124-14.295 22.807-21.574-1.726 7.263-3.406 14.278-5.477 22.973 5.011-1.96 8.192-3.22 9.873-3.873-.66 5.786-3.916 13.734-1.38 17.794 2.325 3.717 10.908 4.09 16.774 4.215 2.926.062 5.732-4.122 8.928-5.662 5.371-2.582 10.833-5.35 16.55-6.64 6.422-1.448 13.353-.546 19.745-2.086 30.34-7.295 60.513-15.336 90.851-22.615 41.742-10.017 84.324-17.078 123.591-35.977 8.477-4.075 20.21-8.725 22.986-16.113 6.047-16.13 14.72-27.53 30.144-32.975 8.597-3.033 17.72-6.19 26.602-6.19 14.03 0 27.383 9.208 42.388 1.695 5.476-2.737 13.548-1.524 19.985-.062 4.276.964 10.203 4.915 11.148 8.663 2.791 11.215 9.813 10.126 17.42 8.508 6.452-1.368 12.77-3.422 19.161-5.163l-2.746-2.334c6.797-10.358 12.574-21.713 20.691-30.828 7.817-8.756 8.823-7.683.03-16.082-1.59-1.509-2.55-3.733-3.796-5.615.585-.763 1.155-1.525 1.74-2.302a9141 9141 0 0 0 19.686 14.48c.825-.668 1.665-1.322 2.506-1.99-1.35-5.88-2.686-11.775-4.036-17.654.615-.529 1.23-1.042 1.83-1.57 4.996 5.521 9.993 11.058 14.824 16.408 2.836-5.568 5.867-11.479 8.883-17.389l3.691.933c-1.83 15.616-15.98 32.461 7.547 47.86 9.993-3.313 24.652-6.906 38.141-13.175 6.032-2.799 8.957-14.62 14.69-15.958 18.89-4.433 39.565-11.26 57.391-7.155 19.67 4.558 34.81-1.042 52.275-5.459-7.473-13.563-7.473-13.563 2.01-18.4-1.665-2.55-3.3-5.055-5.116-7.855 7.817-6.797 14.81-12.894 21.936-19.1-.84-3.049-1.906-6.906-3.72-13.5 15.003 8.6 14.478-.67 14.883-9.598.315-7.17 1.425-14.325 2.236-21.807 16.504 5.226 9.377 17.312 8.837 25.93 3.736 3.234 9.288 5.987 9.108 8.242-.96 11.541 4.171 16.565 14.36 16.783-.63 4.308-1.14 7.715-1.922 12.91a5459 5459 0 0 0 17.24-7.046c1.081 12.567 8.013 12.832 16.25 10.11 10.848-3.562 20.061-8.399 25.282-20.469 6.167-14.248 19.326-17.218 29.26-7.777 3 2.862 4.35 7.606 6.706 11.93 18.77-10.732 33.654-24.28 45.478-41.98 8.477-12.708 23.301-18.183 33.354-12.459 10.503 5.988 19.251 15.258 32.214 16.083 11.54.731 24.562 5.786 34.15 1.804 8.988-3.749 19.101-16.332 20.061-25.944 1.08-10.888 12.558-13.407 11.763-23.378 0-.248 3.391-.808 5.237-1.228 4.591 28.09 14.854 42.337 37.675 33.596 42.478-16.3 84.535-33.799 126.502-51.483 22.401-9.426 44.322-20.252 69.334-18.494 27.098 1.898 54.586 1.664 79.973 14.107 12.14 5.958 24.007 12.895 36.716 17.032 7.982 2.613 17.855 2.893 25.822.498 8.283-2.473 15.305-9.799 12.38-20.734"/></g></svg>