<svg xmlns="http://www.w3.org/2000/svg" xmlns:xlink="http://www.w3.org/1999/xlink" xmlns:inkscape="http://www.inkscape.org/namespaces/inkscape" version="1.1" width="2048" height="1920" viewBox="0 0 2048 1920">
<defs>
<clipPath id="clip_1">
<path transform="matrix(1,0,0,-1,0,1920)" d="M0 1920H2048V0H0Z"/>
</clipPath>
</defs>
<g inkscape:groupmode="layer" inkscape:label="Layer 1">
<g clip-path="url(#clip_1)">
<path transform="matrix(1,0,0,-1,1745.2033,865.41128)" d="M0 0C2.011 10.935 15.379 17.623 22.176 12.07 23.812 10.732 25.207 7.621 24.907 5.599 24.622 3.562 22.221 .404 20.541 .249 13.819-.358 7.007 0 0 0M13.174-178.979C12.619-196.882 2.206-203.119-12.409-193.522-18.695-189.385-24.727-180.053-25.432-172.54-27.203-153.766-26.047-134.682-25.627-115.721-25.522-111.118-24.877-105.611-22.326-102.267-20.256-99.561-12.183-97.508-11.523-98.519-3.961-110.013 5.882-106.545 13.354-103.62 13.354-129.082 13.924-154.046 13.174-178.979M-25.657 159.724C-19.746 151.138-15.034 144.31-8.882 135.382-30.504 134.713-33.55 139.224-25.657 159.724M.96 161.248C13.414 162.166 25.867 163.083 38.351 164.001 39.866 149.909 32.694 143.143 21.036 147.389 13.909 149.987 6.962 153.113-.06 155.991 .27 157.748 .615 159.506 .96 161.248M9.663 72.699C9.768 74.379 9.888 76.059 9.993 77.739 16.31 78.656 22.672 80.259 28.883 79.776 29.934 79.699 30.339 70.615 31.539 62.216 21.516 67.022 15.589 69.853 9.663 72.699M-42.792-130.047C-45.718-142.303-47.143-154.933-49.604-167.314-50.189-170.285-52.23-172.96-53.61-175.775-54.766-175.791-55.906-175.791-57.061-175.806-59.117-168.2-61.157-160.61-63.933-150.313-67.204-154.824-68.855-158.044-71.33-160.315-75.276-163.939-79.778-166.91-84.054-170.16-86.32-164.763-90.596-159.35-90.521-153.984-90.131-126.811-88.585-99.654-87.52-72.497-87.325-67.831-87.49-63.165-87.49-59.805-76.192-58.047-66.109-55.807-55.951-55.325-52.98-55.17-47.413-59.727-47.068-62.636-44.413-84.987-37.301-107.027-42.792-130.047M-62.268-273.019C-64.938-285.509-68.465-297.33-80.558-305.215-114.843-327.582-152.083-337.568-192.25-337.272-194.321-337.257-196.676-336.868-198.417-337.723-210.735-343.758-218.988-344.302-220.263-326.042-220.488-322.962-232.896-319.852-239.979-318.545-244.555-317.705-249.686-320.925-254.563-320.94-265.426-320.972-275.494-320.303-276.289-336.479-276.439-339.387-285.112-344.085-289.838-344.069-299.636-344.038-309.388-340.43-319.231-340.056-331.58-339.605-343.988-341.207-356.367-341.27-360.088-341.285-363.824-339.139-367.56-337.972-366.135-334.675-365.519-330.382-363.119-328.22-353.921-319.961-344.183-312.992-330.65-314.952-313.83-317.379-300.971-307.844-289.193-297.438-278.405-287.904-269.162-275.912-252.432-283.953-250.527-284.871-246.896-284.342-245.215-282.958-227.6-268.477-205.334-271.432-185.543-265.304-174.845-261.991-165.272-253.856-154.514-251.943-141.13-249.563-127.041-251.368-111.077-251.368-120.169-273.579-136.404-278.711-154.334-279.878-161.926-280.36-167.298-281.511-167.808-290.532-126.666-301.638-88.48-280.656-77.302-240.962-64.143-247.557-59.222-258.787-62.268-273.019M-372.766-211.499C-376.341-192.435-362.619-172.35-342.818-161.777-338.365-159.399-331.4-164.623-327.544-168.309-313.83-181.468-307.693-181.064-295.419-164.39-321.317-170.782-321.317-170.782-326.703-152.678-321.197-152.958-316.215-153.222-311.219-153.486-311.129-152.553-311.024-151.636-310.919-150.702-317.956-150.251-324.993-149.8-335.166-149.147-325.623-137.03-317.341-130.062-304.857-125.396-293.109-121.01-287.167-122.674-279.83-132.022-283.176-125.069-286.507-118.132-290.183-110.48-286.732-107.182-282.651-103.263-278.555-99.343-297.64-115.675-308.269-96.387-325.614-96.714-326.035-95.252-326.455-93.805-326.875-92.343-316.312-87.506-308.788-84.591-298.21-79.754-298.75-78.619-301.271-74.55-301.811-73.399-305.352-75.063-308.773-77.21-312.494-78.19-314.775-78.796-317.491-77.63-320.026-77.241-318.556-74.612-318.172-73.494-315.981-72.265-312.455-70.289-306.28-69.858-302.364-68.52-298.088-67.042-295.194-62.729-291.833-59.027-301.586-61.874-311.354-64.704-323.507-68.235-324.213-62.325-326.793-56.134-324.858-52.681-322.562-48.622-316.35-46.942-312.209-44.453-322.967-41.762-318.736-36.474-312.254-30.563-296.11-15.849-265.366-20.827-249.461-42.665-238.553-57.658-229.281-74.146-220.923-90.851-214.561-103.589-207.104-114.493-194.441-120.45-184.898-124.929-180.517-132.022-180.442-142.583-180.381-153.782-179.811-164.981-180.036-176.18-180.111-179.524-182.152-182.821-183.277-186.134-185.993-184.003-188.844-182.044-191.335-179.679-192.79-178.295-193.675-176.289-195.866-172.991-206.819-183.661-216.827-193.631-227.18-203.213-228.725-204.643-231.846-204.488-234.247-204.643-274.308-207.008-312.434-217.382-349.15-233.9-356.202-237.073-363.629-239.375-373.187-242.953-372.721-211.005-349.825-196.167-334.746-176.662-352.826-183.615-365.743-190.454-372.766-211.499M-377.459-161.678C-376.724-146.949-374.142-134.698-357.173-129.456-346.955-126.314-339.359-112.881-328.565-109.712-318.806-106.846-313.245-107.21-306.373-117.201-332.765-116.283-337.428-140.35-353.261-155.913-360.213-162.746-367.563-164.632-376.341-173.016-376.911-163.683-377.744-167.246-377.459-161.678M-376.938 4.557V32.29C-365.88 24.078-365.745 16.161-376.938 4.557M-381.619 33.784C-383.059 33.401-383.133 33.382-384.572 32.999-389.14 39.187-393.707 45.373-398.259 51.577-380.224 14.154-378.783-24.964-384.455-65.171-394.619-37.882-401.651-14.496-404.471 17.234-405.146 11.774-405.821 6.299-406.826-1.851-411.208 6.268-413.248 12.894-417.494 17.187-422.176 21.916-428.868 24.482-434.689 27.997-435.574 26.877-436.46 25.773-437.36 24.669-430.383 19.443-430.13 15.141-423.152 9.915-423.963 8.127-424.773 6.322-425.598 4.534-439.252 6.416-446.213 7.357-458.891 9.099-458.486 8.586-456.385 6.004-453.79 2.8-455.785 .919-457.827-1.009-459.868-2.921-459.394-3.685-459.492-3.526-459.018-4.29-454.43-2.641-450.067-4.508-445.343-3.575-427.353-.076-418.808-6.548-411.981-24.591-407.555-36.241-401.115-42.443-397.364-55.321-419.159-47.287-422.875-49.764-435.95-14.403-440.646-32.274-440.917-40.605-430.024-52.304-430.414-53.315-430.789-54.31-431.164-55.321-442.102-52.957-453.193-52.035-463.726-49.764-458.909-60.62-451.491-69.675-446.255-81.481-451.401-80.703-454.987-80.143-457.598-79.754-448.191-87.516-436.325-101.692-426.557-109.749-427.292-111.055-425.807-108.458-426.557-109.749-440.166-99.421-453.355-86.309-469.904-99.841-463.849-100.167-456.443-105.451-449.874-105.801-448.914-110.738-450.426-102.962-449.466-107.898-456.108-110.995-462.327-116.259-468.959-119.361-468.299-120.948-467.624-122.534-466.963-124.105-463.212-122.394-459.476-120.668-455.725-118.957-444.802-113.964-434.599-114.026-424.081-121.196-397.359-139.441-383.255-170.285-390.847-198.017-408.577-160.775-426.279-143.073-447.413-130.887-448.508-131.991-449.589-133.111-450.684-134.215-447.728-136.517-443.947-138.259-442.026-141.277-440.046-144.372-439.896-148.711-438.935-152.491-442.657-151.962-446.438-151.698-450.069-150.78-451.479-150.422-452.544-148.587-453.895-147.312-463.483-158.526-467.714-143.205-475.936-142.194-469.634-157.204-458.138-160.082-444.662-164.52-423.986-171.329-414.589-176.094-403.315-195.918-416.747-186.648-420.81-182.572-427.292-175.76-432.003-177.284-435.92-178.528-439.416-179.648-430.548-186.196-420.585-192.9-411.373-200.568-405.326-205.592-399.399-211.316-395.048-217.88-382.834-236.342-385.175-245.379-404.681-253.141-459.131-274.776-513.421-296.468-568.021-317.745-569.072-318.15-571.843-319.66-574.37-320.695-563.147-292.667-564.425-262.976-586.548-244.897-605.624-229.308-630.259-221.168-654.586-238.739-656.21-240.192-657.389-241.87-657.389-241.87-673.744-219.799-676.033-215.998-649.461-209.061-646.805-208.361-644.254-207.225-641.658-206.292-642.048-204.892-641.928-201.174-642.333-199.79-654.426-203.321-666.535-206.852-680.174-210.818-682.259-206.229-685.666-202.217-689.252-194.347-685.411-193.32-682.365-192.511-680.249-191.951-685.381-163.674-697.159-140.934-732.374-137.653-722.351-130.016-723.987-116.141-710.648-120.636-712.749-100.696-721.181-90.353-737.626-87.211-750.109-84.831-753.41-89.606-754.896-102.625-755.601-108.924-762.533-116.608-768.55-119.719-791.671-131.711-814.253-143.283-829.767-166.505-845.582-190.178-840.3-220.306-816.143-233.698-804.485-240.169-793.142-247.246-781.513-254.121-781.813-265.257-792.076-273.812-805.01-274.232-830.127-275.025-848.718-286.706-859.356-310.659-869.364-333.181-864.517-353.868-850.158-372.206-844.306-379.703-835.934-385.085-828.327-391.758-831.568-399.612-836.909-401.572-842.581-395.895-849.183-389.3-853.069-393.064-856.595-398.384-862.401-407.125-870.159-408.198-879.927-409.567-893.13-411.433-905.824-418.106-918.398-423.534-930.026-428.558-941.339-434.407-952.547-440.364-957.949-443.241-962.87-447.114-967.912-450.692-981.235-460.117-996.555-458.018-1011.349-458.671-1035.341-459.744-1059.348-460.382-1083.325-461.673-1086.596-461.859-1089.852-464.628-1092.912-466.541-1103.295-473.043-1109.882-470.243-1111.638-458.282-1112.973-449.121-1114.038-439.913-1115.494-428.729-1101.72-440.13-1088.951-437.751-1075.042-432.882-1067.525-430.254-1058.252-433.567-1050.09-432.229-1040.293-430.611-1030.806-426.947-1021.19-424.141-1021.191-422.316-1021.191-422.451-1021.192-420.626-1027.179-418.853-1033.166-417.079-1038.147-415.602-1031.29-403.859-1024.643-392.489-1016.045-377.79-1023.968-378.661-1029.414-379.517-1034.876-379.781-1043.113-380.17-1051.5-381.119-1059.543-379.89-1063.444-379.283-1066.715-374.275-1069.611-371.833-1058.343-366.607-1049.43-362.314-1040.382-358.363-1038.237-357.43-1035.566-357.15-1033.24-357.43-1027.254-358.177-1021.027-357.632-1022.197-350.073-1022.632-347.289-1030.135-344.754-1034.741-343.743-1047.479-340.974-1060.428-339.185-1073.227-336.697-1075.492-336.261-1077.488-334.332-1079.934-331.533-1057.307-330.148-1033.195-332.917-1019.151-307.3-1032.355-304.702-1043.113-302.587-1054.396-300.378-1045.649-292.586-1038.852-286.551-1030.495-279.1-1043.083-277.592-1054.111-276.27-1065.14-274.932-1053.451-271.728-1046.204-266.486-1046.879-252.83-1054.681-254.058-1061.583-255.147-1070.031-256.485-1066.385-249.439-1063.969-244.726-1060.698-238.411H-1087.271C-1077.563-229.95-1068.74-222.25-1059.918-214.567-1059.933-213.043-1059.963-211.534-1059.993-210.025-1076.288-208.003-1092.567-205.981-1108.862-203.959-1108.982-202.59-1109.087-201.222-1109.207-199.853-1094.113-197.691-1077.878-197.753-1070.466-178.746-1083.595-165.059-1105.201-178.311-1120.235-165.074-1101.69-166.925-1090.662-155.711-1078.403-144.216-1093.107-136.019-1109.732-154.653-1119.68-138.726-1107.062-133.593-1095.058-128.709-1081.719-123.281-1084.465-119.688-1085.38-117.355-1086.401-117.323-1097.849-116.857-1109.357-117.308-1120.73-116.219-1125.037-115.815-1129.043-112.097-1133.184-109.889-1132.824-108.613-1132.464-107.338-1132.104-106.063-1122.039-105.085-1111.975-104.108-1101.926-103.131-1101.587-101.692-1101.593-101.715-1101.254-100.277-1108.336-95.828-1115.419-91.38-1123.746-86.153-1122.096-81.643-1120.085-76.183-1118.075-70.724-1117.339-71.097-1116.589-71.455-1115.839-71.813-1115.839-67.411-1114.744-62.589-1116.169-58.747-1117.429-55.356-1121.06-51.997-1124.406-50.566-1129.823-48.264-1134.879-47.595-1131.098-39.149-1129.898-36.474-1132.134-31.263-1134.129-28.121-1139.966-18.991-1138.901-12.676-1129.643-7.668-1106.416 4.915-1082.875 16.892-1060.113 30.299-1053.316 34.297-1048.95 42.494-1043.008 48.264-1029.159 61.703-1015.25 75.095-1000.831 87.833-1000.261 88.335-999.513 88.621-998.651 88.77-993.527 89.656-988.969 85.413-988.954 80.214-988.951 78.863-989.092 77.57-989.518 76.386-995.159 60.785-1000.846 45.122-1007.943 30.206-1011.289 23.207-1017.861 17.84-1022.032 10.903-1000.876 18.323-981.716 45.947-978.955 70.273-978.325 75.795-978.235 81.736-976.089 86.636-970.657 99.032-978.25 101.459-986.922 104.01-991.108 105.238-995.054 107.338-999.361 109.158-977.98 142.086-942.704 152.709-917.317 176.475-915.517 178.171-907.745 176.973-906.619 174.889-898.232 159.459-890.37 144.248-900.032 125.209-904.534 116.328-903.843 104.616-905.494 94.179-904.534 93.604-903.573 93.013-902.613 92.422-899.462 95.268-895.321 97.523-893.31 101.054-881.577 121.757-870.204 142.677-859.176 163.783-858.14 165.774-859.386 170.705-861.201 172.323-868.148 178.575-866.993 185.186-864.847 193.289-862.867 200.802-863.167 208.999-862.777 216.916-862.536 221.551-864.787 227.664-862.672 230.619-853.174 243.902-842.671 256.438-832.168 268.913-827.322 274.668-821.35 279.427-816.413 285.104-808.521 294.172-796.368 296.708-784.679 291.015-773.906 285.758-772.046 276.27-775.452 265.988-779.953 252.379-785.009 238.831-791.251 225.984-797.613 212.903-793.712 202.248-785.505 193.009-777.747 184.268-768.4 177.051-757.552 170.674-761.243 178.109-764.273 185.994-768.79 192.838-775.077 202.357-772.886 217.771-764.889 226.264-754.086 237.727-744.273 250.217-734.67 262.784-733.109 264.837-734.055 269.784-735.105 272.941-737.851 281.216-735.825 287.453-728.623 291.575-721.226 295.79-717.055 291.948-712.149 285.618-705.712 277.281-697.729 269.892-689.387 263.546-680.309 256.656-677.249 241.6-681.465 227.212-684.211 217.865-683.865 207.552-684.871 197.66-685.531 191.018-686.146 184.377-686.791 177.595-683.73 176.444-679.814 175.604-676.603 173.582-673.407 171.576-670.917 168.387-668.246 165.837-669.776 180.239-671.187 193.647-672.792 208.781-662.905 201.035-655.402 195.125-647.84 189.276-640.683 183.739-636.077 172.291-623.923 177.051-630.84 183.537-637.262 189.587-643.699 195.622-643.084 196.524-642.484 197.427-641.868 198.344-640.263 197.691-637.952 197.535-637.142 196.307-624.764 177.751-608.169 180.177-590.389 185.217-583.127 187.27-575.039 186.026-567.567 187.55-558.355 189.447-548.857 191.469-540.439 195.545-526.591 202.233-516.418 202.886-503.949 189.976-490.955 176.538-473.37 167.89-457.961 156.893-453.325 153.58-447.488 150.283-445.252 145.461-438.815 131.524-427.847 126.469-414.223 124.65-408.882 123.934-403.36 123.047-398.454 120.917-395.558 119.672-392.122 116.126-391.627 113.14-388.971 96.761-376.068 85.345-359.953 85.547-346.779 85.703-333.605 84.94-320.447 85.174-313.335 85.298-309.659 82.654-308.668 75.235-307.948 69.713-305.982 64.394-305.127 58.887-304.422 54.439-304.527 49.835-304.272 45.293-308.743 45.807-313.229 46.304-318.316 46.88-314.94 41.996-311.504 36.816-307.843 31.792-296.845 16.674-296.8 16.674-311.819 5.615-313.845 4.137-316.05 2.022-318.256 1.913-322.382 1.711-326.568 2.753-330.74 3.266-331.235 4.9-331.715 6.548-332.21 8.181-327.664 11.806-323.117 15.43-315.765 21.278-321.557 19.52-324.168 19.1-326.418 17.934-328.924 16.643-331.115 14.683-336.891 14.263-335.151 20.765-333.395 27.266-331.64 33.768-331.925 33.908-332.21 34.032-332.51 34.172-345.669 7.575-356.14-6.039-370.664-35.39-370.664-10.302-373.427-9.348-363.044 6.284-359.443 11.697-351.07 14.17-356.997 24.98-359.263 29.133-350.965 39.492-349.045 47.751-352.601 42.354-356.142 36.956-359.653 31.606-380.959 43.707-362.894 58.981-362.864 72.839-370.756 68.578-367.365 53.07-378.948 56.352-379.804 49.182-380.719 41.483-381.619 33.784M-388.551-138.492C-410.217-116.266-430.788-95.875-442.657-67.24-431.673-66.198-421.741-63.553-412.363-64.922-405.491-65.933-397.299-70.771-393.427-76.557-389.406-82.592-384.26-91.146-387.591-98.954-397.269-93.993-404.171-90.446-411.073-86.9-411.898-87.693-412.723-88.471-413.548-89.264-394.193-99.25-384.32-114.057-388.551-138.492M-620.823-281.994C-621.019-280.648-619.499-279.978-618.54-280.909-616.962-282.441-615.943-284.904-615.896-286.644-615.791-290.221-617.047-294.811-620.067-297.127-623.414-299.695-627.897-300.247-633.301-299.336-635.322-298.945-636.11-298.048-636.094-296.818-636.07-295.081-634.179-295.138-632.504-295.207-620.91-295.685-619.737-289.491-620.823-281.994M-596.225-327.862C-612.925-341.472-641.253-340.227-656.093-325.233-673.678-307.455-676.183-283.284-662.484-263.391-661.074-261.322-662.698-263.65-658.992-258.58-655.211-271.941-638.698-270.94-643.804-289.475-644.692-292.698-643.905-306.363-626.474-305.822-617.769-305.552-610.89-300.621-609.339-291.497-607.74-282.088-614.125-275.134-623.158-275.43-634.471-275.787-639.813-269.877-645.725-261.229-651.726-252.441-650.061-248.863-641.298-245.302-620.067-236.685-596.585-244.679-584.822-264.977-573.299-284.871-578.475-313.381-596.225-327.862M-657.608-351.815C-679.214-359.856-701.03-367.291-722.637-375.364-729.583-377.961-735.975-382.13-742.802-385.101-752.345-389.238-762.098-393.251-772.106-383.327-757.807-369.904-749.884-353.666-747.244-334.224-746.793-331.004-739.456-325.933-736.11-326.524-724.092-328.64-720.071-322.465-718.87-312.106-717.895-303.644-713.679-299.569-705.502-297.936-698.51-296.552-688.87-293.146-682.104-290.641-670.865-324.813-667.702-329.578-645.711-347.195-649.958-348.824-654.532-350.68-657.608-351.815M-804.215-348.191C-804.23-348.207-804.245-348.238-804.26-348.269-805.655-351.006-809.301-351.348-811.312-349.062-814.103-345.858-818.889-339.652-819.969-333.57-819.969-333.57-820.585-331.315-819.609-330.008-818.949-329.106-817.569-329.324-817.059-330.32-815.573-333.181-811.477-340.212-805.445-344.054-804.08-344.925-803.48-346.713-804.215-348.191M-807.411-319.992C-808.956-318.996-810.487-318.001-812.032-317.005-806.691-309.057-801.349-301.125-796.022-293.177-794.972-293.845-793.922-294.499-792.857-295.167-797.718-303.442-802.564-311.717-807.411-319.992M-800.764-322.387C-794.732-310.644-790.171-301.778-785.49-292.679-781.438-305.418-786.33-317.472-800.764-322.387M-771.235-337.132C-775.557-340.258-779.563-344.785-784.304-345.874-786.33-346.34-789.886-339.621-794.447-334.115H-772.856C-772.316-335.11-771.776-336.121-771.235-337.132M-782.909-185.077C-759.097-165.743-759.097-165.743-739.156-190.583-752.78-188.856-766.419-187.145-782.909-185.077M-752.21-308.746C-757.386-298.169-775.804-282.922-762.15-267.166-748.751-284.089-743.688-301.716-752.21-308.746M-762.716-259.946C-759.175-249.603-749.644-227.663-745.083-214.396-737.431-237.462-745.191-254.845-762.716-259.946M-728.178-293.177C-731.959-286.862-740.612-264.635-745.998-255.661-745.683-255.365-742.877-252.674-739.861-249.781-727.498-266.937-721.861-289.008-728.178-293.177M-738.091-154.886C-723.987-149.956-707.512-158.23-698.705-173.909-719.096-177.657-731.594-171.825-738.091-154.886M-722.233-228.868C-723.148-225.866-722.658-214.869-722.411-208.501-722.194-202.877-724.362-197.411-725.472-190.863-715.435-187.923-705.577-186.741-699.02-199.308-702.546-204.208-705.682-209.714-709.943-214.022-712.179-216.278-720.534-224.994-722.233-228.868M-698.705-223.585C-705.417-235.471-715.863-250.654-718.398-270.071-726.305-251.126-715.795-229.838-698.705-223.585M-696.236-263.924C-693.701-257.781-688.385-250.322-685.279-244.52-682.143-238.672-682.646-239.317-677.979-232.349-672.398-239.193-667.91-245.628-664.534-249.781-672.517-260.082-673.908-265.053-679.089-277.555-680.853-281.812-691.368-282.304-695.374-281.231-700.85-279.785-709.808-272.972-709.283-269.939-705.967-250.839-697.249-233.885-683.73-219.591-689.387-233.138-695.029-246.686-700.67-260.233-699.5-260.747-697.407-263.411-696.236-263.924M-785.52-376.904C-805.7-387.527-824.306-381.912-838.35-368.784-852.499-355.564-856.64-331.082-849.018-315.325-840.6-297.889-823.36-284.311-800.974-288.479-808.071-301.529-815.138-313.863-821.545-326.555-826.361-336.09-822.67-348.455-814.073-353.51-811.972-354.739-808.519-356.555-807.291-355.75-798.67-350.101-793.742-351.815-785.925-351.846-778.272-351.877-770.59-344.567-763.028-340.523-760.838-353.013-770.38-368.924-785.52-376.904M-1089.927-532.677C-1106.251-537.918-1123.131-541.48-1136.455-553.783-1137.67-554.919-1139.456-556.692-1140.596-556.412-1159.336-551.839-1154.595-568.342-1159.682-577.845-1145.833-579.65-1133.544-564.889-1117.969-578.063-1131.354-581.812-1142.187-584.969-1153.065-587.878-1163.838-590.74-1174.656-593.399-1185.474-596.09-1189.45-597.085-1193.591-599.03-1197.462-598.61-1216.998-596.479-1236.849-595.701-1254.313-584.191-1264.562-577.425-1268.117-567.424-1263.271-555.961-1261.441-551.637-1260.375-546.955-1258.515-540.998-1253.188-543.036-1247.276-545.291-1239.399-548.293-1238.604-560.052-1232.857-560.238-1222.61-553.379-1206.33-542.46-1187.334-542.32-1168.639-540.702-1160.372-540.003-1152.374-535.772-1144.272-533.081-1133.004-529.332-1121.796-525.366-1110.452-521.835-1104.556-520-1098.449-517.963-1092.402-517.838-1088.261-517.745-1084.06-520.793-1079.889-522.442-1083.205-525.973-1085.935-531.401-1089.927-532.677M-1109.147-577.472C-1103.31-564.142-1096.648-561.343-1085.65-568.466-1094.218-571.748-1101.255-574.454-1109.147-577.472M-1268.027-485.097C-1280.571-482.608-1289.048-487.741-1298.231-495.238-1306.634-502.113-1328.75-494.243-1330.955-482.608-1334.677-462.979-1335.457-442.744-1337.242-422.741-1337.407-420.937-1335.847-418.962-1333.806-413.86-1329.26-422.555-1325.884-428.916-1322.583-435.309-1317.302-445.543-1304.833-448.607-1295.695-442.075-1293.055-440.193-1288.313-436.895-1287.338-437.735-1272.559-450.427-1257.314-434.267-1242.445-438.668-1240.81-439.151-1237.779-434.624-1236.999-433.909-1225.55-435.946-1216.023-440.13-1207.335-438.715-1186.749-435.371-1164.213-453.74-1143.732-433.411-1149.269-449.183-1154.49-465.079-1160.672-480.571-1161.557-482.779-1167.109-484.07-1170.44-483.962-1184.063-483.479-1197.687-482.531-1211.266-481.177-1214.132-480.882-1217.358-478.658-1219.414-476.356-1228.761-465.935-1244.186-466.059-1253.999-476.216-1257.885-480.229-1263.991-485.89-1268.027-485.097M-1331.953 131.769C-1329.095 131.542-1326.312 131.322-1323.528 131.104-1323.453 129.782-1323.378 128.46-1323.303 127.138-1320.482 128.616-1317.467 129.782-1314.886 131.602-1310.595 134.635-1306.573 138.073-1302.447 141.339-1306.393 145.196-1310.805 148.665-1314.166 153.02-1318.802 158.977-1323.123 165.308-1326.589 172.027-1328.195 175.153-1327.475 179.555-1327.97 185.123-1320.287 189.167-1313.7 194.611-1320.242 207.739-1323.213 213.696-1322.448 224.382-1319.087 230.339-1314.061 239.282-1306.108 247.199-1297.781 253.11-1292.574 256.796-1284.112 257.854-1277.585 256.858-1244.261 251.757-1211.146 245.146-1177.807 240.107-1169.629 238.862-1160.897 241.491-1151.429 242.44-1153.44 255.987-1152.584 265.802-1140.266 268.493-1136.425 269.333-1131.173 268.773-1128.037 266.595-1114.099 256.952-1108.202 257.792-1097.264 271.992-1091.712 279.194-1086.265 285.555-1075.312 280.625-1063.414 275.259-1054.381 285.758-1044.013 289.117-1034.396 292.244-1025.783 302.151-1012.985 293.954-1019.781 289.288-1025.978 285.167-1032.025 280.811-1038.957 275.818-1045.619 270.437-1052.626 265.584-1056.302 263.033-1060.323 259.953-1064.479 259.394-1084.465 256.687-1099.259 244.897-1114.339 232.33-1121.631 226.264-1132.254 224.584-1141.121 220.384-1146.088 218.02-1151.219 215.298-1155.135 211.487-1164.978 201.875-1173.38 190.536-1183.854 181.81-1194.236 173.178-1205.67 166.676-1209.991 151.962-1211.371 147.265-1217.868 143.47-1222.79 140.732-1237.599 132.458-1253.038 125.365-1267.727 116.888-1276.25 111.973-1283.467 106.389-1293.91 112.938-1297.046 114.897-1303.032 111.989-1309.739 111.024-1311.255 113.42-1313.821 117.495-1316.401 121.585-1324.392 119.614-1329.722 118.628-1333.543 119.151-1341.574 120.249-1340.034 132.409-1331.953 131.769M-1079.783 341.68V314.818C-1084.734 315.176-1094.352 315.16-1094.187 314.803-1103.609 312.501-1113.887 311.91-1122.185 307.415-1130.632 302.826-1137.114 294.38-1144.946 287.179-1147.392 309.981-1104.12 346.47-1079.783 341.68M-1051.441 139.348C-1067.66 136.206-1084.495 136.626-1101.015 135.055-1108.802 134.309-1117.58 134.744-1124.106 131.151-1148.893 117.479-1174.821 114.073-1202.294 117.324-1208.58 118.055-1215.197 115.722-1221.664 114.804-1222.415 116.313-1223.15 117.821-1223.885 119.33-1214.957 124.758-1205.94 130.047-1197.117 135.631-1190.56 139.784-1183.793 143.765-1177.927 148.805-1165.488 159.521-1154.31 171.98-1141.121 181.499-1135.119 185.808-1124.526 188.063-1117.79 185.73-1073.842 170.549-1032.505 176.646-995.37 203.446-975.099 218.067-954.663 222.919-931.001 221.722-920.183 221.177-909.17 224.335-896.926 225.984-905.434 218.829-913.326 211.627-921.758 205.188-961.13 175.122-1002.467 148.805-1051.441 139.348M-1164.063-.373C-1172.135-5.911-1182.233-11.899-1191.266-11.619-1214.987-10.857-1233.218-23.922-1253.083-33.223-1256.444-34.794-1259.67-36.676-1262.866-38.356-1272.559-25.96-1271.133-6.595-1260.645 6.782-1243.42 28.744-1222.444 44.407-1196.127 53.164-1189.36 55.419-1184.784 64.191-1178.677 69.293-1172.96 74.052-1167.064 79.73-1160.312 81.814-1144.932 86.558-1128.983 89.42-1113.243 92.888-1101.54 95.455-1090.047 103.138-1077.833 92.733-1075.913 91.084-1069.01 94.848-1064.839 97.01-1057.097 101.007-1049.865 106.063-1042.048 109.842-1039.647 110.993-1035.521 110.231-1033.165 108.722-1032.01 107.991-1032.595 103.341-1033.285 100.728-1039.197 78.625-1052.356 66.307-1073.392 55.994-1094.248 45.776-1114.279 33.27-1135.885 23.72-1146.613 18.976-1153.935 6.579-1164.063-.373M-1293.46 70.257C-1287.353 79.979-1248.177 92.048-1229.181 89.342-1226.541 79.139-1227.756 71.237-1237.074 63.771-1252.048 51.764-1265.627 37.874-1279.761 24.746-1285.447 19.474-1290.534 12.35-1299.401 19.738-1300.362 20.547-1303.093 19.318-1304.908 18.743-1317.271 14.761-1326.289 19.1-1333.266 33.581H-1307.744C-1301.397 39.896-1293.535 47.082-1286.498 55.03-1284.022 57.83-1283.557 62.527-1282.161 66.369-1285.988 67.675-1289.814 68.998-1293.46 70.257M-1203.509-241.429C-1214.672-245.146-1206.915-251.601-1202.504-258.413-1208.325-257.511-1212.182-256.531-1216.068-256.407-1219.654-256.283-1223.255-257.076-1227.126-257.48-1227.036-275.336-1215.873-277.016-1202.279-276.456-1226.631-292.461-1272.154-281.884-1291.884-255.116-1285.823-256.423-1281.666-257.231-1277.57-258.242-1265.357-261.291-1253.893-260.778-1243.841-251.632-1241.41-249.408-1238.394-247.728-1235.438-246.297-1229.211-243.312-1223.278-240.273-1222.439-235.422-1221.427-229.561-1216.047-225.431-1210.28-226.882-1209.894-226.98-1209.498-227.072-1209.091-227.158-1199.998-229.085-1193.501-234.865-1185.534-241.102-1191.266-241.102-1197.912-239.562-1203.509-241.429M-1235.783-305.807C-1227.486-303.038-1219.188-300.254-1210.891-297.485-1210.291-299.165-1209.691-300.86-1209.091-302.54-1217.238-305.884-1225.37-309.228-1233.518-312.572-1234.283-310.317-1235.033-308.062-1235.783-305.807M-1198.047-374.602C-1203.764-384.183-1219.279-390.342-1227.486-385.256-1229.346-384.105-1231.072-379.672-1230.337-377.79-1228.881-374.026-1225.7-370.993-1223.795-368.427-1216.638-370.138-1207.725-372.284-1198.047-374.602M-1219.984-346.573C-1221.154-346.9-1223.045-347.149-1223.645-346.496-1233.713-335.515-1244.516-342.638-1255.544-344.194-1267.697-345.936-1274.674-339.201-1276.685-328.126-1267.547-324.113-1258.695-320.209-1249.752-316.274-1249.902-334.441-1233.427-329.184-1224.155-332.606-1214.222-336.277-1202.489-334.768-1191.551-335.515-1191.055-336.354-1190.56-337.179-1190.065-338.019-1200.028-340.881-1209.991-343.789-1219.984-346.573M-1170.26-56.103C-1171.13-56.305-1172.09-66.726-1169.794-69.137-1156.26-83.416-1169.239-89.575-1176.921-97.554-1178.377-99.048-1179.757-100.619-1181.363-102.361-1174.041-117.059-1160.747-103.558-1151.129-112.408-1166.899-115.597-1182.668-118.786-1198.438-121.974-1198.663-123.265-1198.888-124.541-1199.113-125.816-1185.834-130.233-1172.555-134.666-1159.216-139.099-1164.363-140.732-1171.01-143.734-1177.942-144.776-1185.159-145.849-1192.646-145.01-1200.118-147.094-1186.914-156.177-1177.627-173.473-1157.491-162.601-1157.446-164.514-1157.401-166.427-1157.356-168.356-1163.673-170.487-1169.885-173.084-1176.336-174.687-1187.229-177.377-1198.288-179.431-1208.851-181.67-1201.483-204.208-1182.098-196.244-1167.889-206.308-1172.315-207.848-1177.897-211.985-1180.973-210.523-1195.497-203.586-1208.835-210.943-1221.949-213.851-1231.282-215.92-1238.124-216.791-1246.031-210.694-1250.532-207.225-1256.894-206.339-1262.596-202.015-1240.014-203.617-1249.602-176.662-1235.198-172.711-1248.822-164.25-1268.088-175.371-1279.446-157.375-1272.229-152.475-1260.946-159.926-1257.164-149.225-1254.464-141.526-1252.843-133.406-1250.772-125.552-1261.08-122.052-1270.113-135.988-1276.88-126.096-1273.009-117.075-1269.888-109.78-1266.812-102.609-1278.245-101.038-1288.373-99.639-1298.891-98.192-1286.723-85.36-1277.225-72.404-1265.012-63.305-1253.113-54.439-1241.575-45.029-1223.435-46.024-1209.031-46.802-1193.951-36.894-1179.382-31.17-1170.62-27.748-1162.247-23.253-1151.009-17.98-1151.879-23.829-1152.344-27.142-1152.885-30.424-1152.93-30.688-1153.89-30.859-1153.89-31.046-1153.29-43.629-1156.786-52.992-1170.26-56.103M-936.553 300.783C-921.038 308.513-905.254 316.197-888.854 321.392-875.14 325.731-860.376 326.727-846.002 328.453-842.866 328.827-837.299 326.711-836.564 324.44-835.514 321.252-837.779 316.803-838.86 312.961-845.807 288.246-867.713 275.585-883.828 259.876-896.896 247.153-919.493 243.295-938.593 239.251-957.514 235.254-977.424 236.249-994.814 225.408-996.555 224.319-998.625 223.573-1000.636 223.215-1014.995 220.555-1026.458 211.954-1039.107 205.39-1063.054 192.978-1090.197 193.087-1117.024 202.186-1091.067 218.673-1074.997 250.979-1039.677 250.186-1035.386 250.092-1030.765 252.348-1026.713 254.416-996.63 269.784-966.786 285.711-936.553 300.783M-802.069 438.14C-785.069 440.442-771.28 446.275-758.257 456.991-755.001 459.666-746.088 460.864-744.708 458.951-740.732 453.414-730.169 448.732-738.436 438.56-739.636 437.098-739.456 432.711-738.196 431.156-732.944 424.701-727.543 418.168-721.241 412.88-714.669 407.358-706.987 403.252-697.369 396.937-702.021 395.117-703.941 393.578-705.052 394.06-724.047 402.194-742.802 410.936-761.918 418.697-766.734 420.641-772.631 419.833-778.047 420.004-782.699 420.144-787.38 419.926-792.046 419.802-794.387 419.739-796.968 420.175-798.993 419.288-811.612 413.782-824.096 407.981-836.624 402.272-837.689 403.828-838.755 405.368-839.82 406.923-831.118 422.104-819.189 435.807-802.069 438.14M-692.448 319.136C-687.707 323.507-680.414 329.029-675.178 328.002-649.566 322.978-624.749 317.908-606.803 292.959-596.526 278.696-577.38 271.215-562.091 260.871-553.523 255.085-544.401 250.139-536.073 243.995-528.841 238.691-529.096 231.925-536.989 227.726-555.909 217.678-572.999 202.979-595.67 202-597.711 201.906-600.202 201.673-601.642 200.46-614.876 189.37-621.778 198.064-629.67 208.532-635.342 216.029-643.414 221.566-650.421 227.99-630.885 222.966-612.625 218.253-594.365 213.541-594.035 214.832-593.705 216.107-593.375 217.382-599.181 219.218-605.288 220.4-610.719 223.044-618.747 226.964-626.384 231.785-634.021 236.514-637.187 238.474-639.693 242.766-642.889 243.264-656.648 245.379-658.508 256.407-663.16 267.124-668.936 280.454-678.434 292.026-685.966 304.593-688.802 309.322-693.603 318.079-692.448 319.136M-578.97 328.22C-559.12 314.532-535.863 313.459-513.882 307.611-490.625 301.42-468.314 293.861-447.983 279.069-432.784 268.01-413.773 262.707-397.043 253.67-387.411 248.459-378.948 240.915-369.016 233.745-372.481 230.634-373.082 229.608-373.712 229.592-397.854 228.939-422.431 225.237-446.017 228.721-469.064 232.128-493.041 234.725-512.246 254.759-526.576 269.69-546.411 280.111-565.407 288.728-578.085 294.468-580.981 304.593-586.098 314.766-588.453 319.447-591.544 323.74-595.895 330.771-589.684 329.962-583.067 331.035-578.97 328.22M-577.185 371.538C-573.089 375.566-567.417 377.868-560.935 381.757-557.319 373.529-554.544 366.389-551.093 359.608-549.082 355.673-546.741 350.835-543.245 348.984-534.273 344.225-532.322 337.07-533.778 326.789-536.553 327.442-539.764 327.271-541.655 328.827-554.349 339.201-566.982 349.7-578.97 360.914-580.456 362.283-579.316 369.453-577.185 371.538M-492.921 356.653C-491.601 359.872-487.234 363.434-483.873 363.761-473.145 364.834-461.592 368.038-455.47 353.06-453.67 348.689-446.348 346.682-441.486 343.712-436.28 340.508-430.983 337.459-425.732 334.348-426.497 332.824-427.247 331.315-428.012 329.791-450.399 326.54-471.255 329.526-488.12 347.305-490.535 349.84-493.791 354.584-492.921 356.653M-388.907 308.874C-379.769 306.93-371.172 301.611-362.709 297.069-355.297 293.087-348.485 287.923-341.238 283.568-337.457 281.313-333.406 279.446-329.325 277.86-325.123 276.227-319.662 276.382-316.586 273.598-301.612 260.004-282.166 257.749-264.941 249.987-251.122 243.781-242.015 249.894-231.182 255.431-227.686 257.22-222.674 256.038-218.368 255.898-215.652 255.804-212.951 254.778-210.25 254.793-207.79 254.809-204.354 256.986-203.048 255.944-190.01 245.476-178.126 259.584-166.168 257.531-152.979 255.275-140.286 249.769-127.637 244.932-126.812 244.621-126.977 235.724-128.927 234.433-145.267 223.576-139.94 205.783-134.644 195.626-126.406 179.854-135.934 172.513-143.286 166.913-153.879 158.856-158.036 151.686-153.489 138.652-151.194 132.088-154.375 126.94-161.922 125.96-164.803 125.586-167.593 124.529-170.459 124.047-193.341 120.111-196.447 122.6-194.916 146.771-194.631 151.173-189.124 155.217-185.493 160.163-184.908 165.42-184.218 171.486-183.273 179.745-187.504 174.799-191.405 171.393-193.911 167.116-200.528 155.792-209.05 155.248-219.238 161.158-228.931 166.773-238.309 173.244-248.496 177.646-256.344 181.036-265.331 181.441-273.644 183.805-289.038 188.176-304.747 191.893-319.542 197.928-338.177 205.534-346.73 222.223-349.715 241.821-351.696 254.809-357.172 262.446-370.571 264.857-396.379 269.507-415.569 287.41-436.02 302.513-437.926 303.913-439.336 307.506-439.171 309.948-439.066 311.55-435.585 314.318-433.814 314.163-418.795 312.841-403.611 312.016-388.907 308.874M-165.771 62.562C-166.971 63.418-168.186 64.289-169.402 65.16-169.672 70.573-169.957 75.985-170.242 81.398-170.662 81.491-171.097 81.6-171.517 81.694-172.823 75.41-174.143 69.11-175.853 60.851-178.284 62.904-181.795 65.02-181.555 65.766-176.424 80.854-172.748 97.03-164.645 110.266-160.234 117.483-148.276 119.941-139.393 123.72-138.448 124.125-134.757 119.319-133.316 116.41-131.276 112.304-130.135 107.715-128.38 102.629-139.798 90.404-152.777 76.483-165.771 62.562M-117.596 29.622C-113.23 29.56-108.519 26.527-104.858 23.587-104.003 22.903-105.923 15.39-107.964 14.519-115.286 11.409-123.193 9.775-132.181 7.224-130.425 13.664-130.065 18.983-127.604 22.872-125.534 26.138-120.987 29.684-117.596 29.622M-116.948 115.248C-112.431 120.598-107.915 125.933-103.399 131.268-102.198 131.035-100.998 130.802-99.798 130.568-99.798 127.193-98.447 122.589-100.068 120.661-104.554 115.279-110.271 111.017-115.507 106.32-116.512 108.622-117.608 110.877-118.403 113.257-118.538 113.693-117.488 114.594-116.948 115.248M-167.853 33.039C-164.372 42.931-155.024 40.38-147.417 39.494-140.365 38.669-138.97 34.672-139.645 27.019-140.95 12.119-151.228 5.477-160.681-3.606-171.949 8.261-172.174 20.767-167.853 33.039M-297.715 161.159C-297.37 157.535-296.89 152.542-296.425 147.565-297.655 147.082-298.87 146.616-300.101 146.134-306.553 155.559-313.02 165.001-319.471 174.426-319.171 175.748-318.871 177.071-318.586 178.408-307.003 176.464-295.419 174.535-283.821 172.607-283.791 170.273-283.746 167.94-283.701 165.607-288.382 164.114-293.064 162.636-297.715 161.159M-253.822 94.023C-266.74 98.627-269.297 106.102-267.722 118.794-266.941 125.016-271.129 127.978-274.625 134.029-279.457 142.334-277.251 149.271-271.685 154.933-269.479 157.173-263.972 157.188-260.341 156.38-254.79 155.151-253.65 156.305-245.173 152.899-248.128 132.71-250.566 116.157-253.822 94.023M-226.946 131.541C-228.079 116.368-228.557 106.588-226.037 94.581-223.486 82.542-217.804 69.166-214.008 57.361-210.662 47.002-214.717 36.584-226.6 31.124-235.933 69.776-249.902 107.167-229.496 144.824-227.576 146.037-225.64 147.25-223.72 148.448-221.724 144.653-218.753 141.06-217.913 137-214.297 119.377-211.296 101.63-209.706 83.557-220.363 105.247-218.32 112.371-221.694 132.334-223.449 132.069-225.205 131.805-226.946 131.541M-395.528 205.935C-394.868 207.677-394.193 209.419-393.532 211.176-387.291 211.176-379.158 213.743-375.182 210.632-366.66 203.959-359.398 194.985-353.261 185.777-346.449 175.527-340.297 165.323-337.897 151.745-336.516 143.905-322.532 136.782-312.899 132.567-299.831 126.843-290.768 118.148-283.926 105.798-281.75 101.894-277.924 98.954-274.729 95.424-285.682 90.151-285.682 90.151-305.292 106.545-306.883 104.569-308.338 101.552-309.268 101.723-324.918 104.507-342.143 100.105-354.761 115.722-371.326 136.175-392.047 150.765-417.9 156.395-420.18 156.877-422.371 158.728-424.171 160.424-436.01 171.685-448.268 182.557-459.191 194.72-462.702 198.64-462.597 206.059-464.143 211.876-458.996 212.421-453.49 214.489-448.763 213.26-431.598 208.797-414.734 203.073-397.644 198.204-394.388 197.271-390.652 198.064-387.141 198.064-386.526 199.246-385.895 200.413-385.265 201.595-388.686 203.042-392.107 204.488-395.528 205.935M-313.245-8.01C-312.974-6.128-312.689-4.246-312.419-2.38-306.703-3.422-301.001-4.479-292.119-6.113-298.255-2.24-300.971-.513-304.917 1.975-301.736 5.708-298.975 8.928-294.669 13.983-290.798 4.386-287.782-3.08-283.176-14.496-295.149-11.914-304.197-9.954-313.245-8.01M-353.126-21.215C-343.778-2.613-340.747-.296-331.88-7.015-338.257-13.05-344.348-18.82-350.455-24.591-351.34-23.455-352.241-22.335-353.126-21.215M-334.705-85.201C-342.657-107.848-352.901-118.117-376.007-127.465-376.758-110.931-376.874-101.647-363.641-90.573-358.974-86.669-357.239-81.642-354.599-75.965-350.757-67.784-346.781-65.513-338.109-69.541-329.601-73.508-331.719-76.677-334.705-85.201M-374.027-88.595C-374.672-70.724-373.472-53.879-362.264-41.342-352.241-30.143-344.582-30.205-332.083-22.163-327.387-19.146-324.72-21.308-317.683-22.163-317.383-24.092-317.983-20.25-317.683-22.163-344.961-39.973-358.527-57.861-374.027-88.595M-243.817-13.128C-243.07-14.991-244.095-17.628-244.481-21.828-252.714-10.932-252.423-6.036-254.364 2.288-256.39 10.913-258.394 19.561-260.492 28.161-261.722 33.186-264.851 38.9-267.13 43.65-268.191 43.225-272.537 41.85-273.598 41.437-271.681 36.062-270.339 30.946-268.832 25.446-267.229 19.546-265.638 13.275-264.565 7.224-263.564 1.6-262.662-.257-262.363-9.878-279.063-2.866-291.761 22.196-288.65 40.046-287.347 47.446-288.203 55.234-287.733 62.808-287.154 72.096-282.608 75.533-275.446 70.196-263.641 61.396-252.487 51.333-242.587 40.346-239.464 36.884-239.464 28.184-241.068 22.859-244.686 10.884-248.882-.516-243.817-13.128M-170.884-93.759C-170.974-98.254-171.574-102.734-172.009-107.898-200.877-91.675-222.964-71.222-231.456-38.947-237.548-15.803-235.117 5.662-214.996 21.402-202.528 31.155-198.732 44.5-198.837 59.821-198.897 68.453-197.336 77.288-198.717 85.656-201.208 100.743-193.42 105.394-179.526 107.727-203.008 63.709-182.842 23.222-171.559-19.256-185.939-10.932-189.714-5.351-197.381 1.633-198.402-2.8-199.392-7.03-200.757-12.941-199.062-13.952-195.701-16.487-191.98-18.074-172.129-26.582-167.373-42.245-170.389-62.869-171.859-72.964-170.659-83.463-170.884-93.759M-105.075-1.68C-99.103-11.448-108.016-18.618-114.918-24.964-118.279-28.059-121.565-31.248-123.14-32.741-117.288-40.16-111.392-46.662-106.68-54.003-104.355-57.612-103.109-62.791-103.319-67.146-104.52-91.224-106.395-115.255-107.851-139.301-108.391-148.229-109.126-156.208-119.764-159.195-122.225-159.895-124.07-166.381-124.505-170.394-124.866-173.816-122.765-177.517-121.475-182.106-138.985-183.754-145.992-176.662-148.332-160.906-154.259-120.994-156.345-80.958-155.805-40.611-155.459-14.947-149.893-5.211-126.021 .047-119.164 1.571-107.371 2.084-105.075-1.68M-87.82 112.486C-87.4 115.426-85.479 118.926-83.169 120.481-81.938 121.321-77.362 119.33-76.147 117.37-70.49 108.302-65.479 98.799-58.742 86.791-76.987 89.98-89.306 102.19-87.82 112.486M-68.975 205.639C-69.71 205.732-70.46 205.826-71.21 205.935-73.626 211.627-76.672 217.149-78.187 223.106-79.103 226.715-77.632 230.961-77.242 234.927-74.481 231.941-70.01 229.312-69.335 225.89-68.059 219.373-68.975 212.405-68.975 205.639M-57.001 9.472C-63.783 7.824-70.565 6.175-78.833 4.169V18.043C-71.646 16.394-64.714 14.807-57.797 13.221-57.526 11.977-57.271 10.717-57.001 9.472M-74.421 301.14C-67.849 300.472-58.037 307.626-55.651 293.737-62.103 292.539-67.579 290.75-73.026 290.844-75.832 290.89-78.592 294.297-81.368 296.194-79.043 297.936-76.552 301.358-74.421 301.14M142.121-329.806C138.955-318.079 135.384-310.224 128.002-303.349 119.344-294.11 104.835-284.622 104.835-284.622 85.134-273.439 64.999-263.064 45.703-251.197 37.001-245.846 28.778-238.582 22.702-230.323 20.736-227.648 26.303-219.078 28.328-213.167 28.868-211.565 29.183-209.839 29.333-208.143 32.004-177.875 34.6-147.591 37.316-117.323 37.721-112.937 38.726-108.613 39.431-104.336 57.316-106.669 74.376-105.938 86.17-121.336 88.255-124.058 92.592-125.318 96.148-126.376 109.817-130.498 121.955-123.934 118.969-113.202 111.722-87.164 109.096-57.519 78.682-45.915 75.832-44.826 73.251-41.778 71.465-39.009 61.953-24.217 52.74-9.224 41.592 8.601 47.519 7.699 51.375 7.264 55.186 6.502 60.002 5.553 64.729 4.153 69.56 3.266 75.892 2.115 82.313 1.493 88.615 .249 96.643-1.338 100.649 3.593 98.638 10.032 95.877 18.867 91.946 28.728 85.494 34.592 76.462 42.789 64.759 47.891 54.016 54.003 44.818 59.261 41.412 74.41 47.249 85.671 49.919 90.804 68.54 94.77 73.791 90.524 85.615 80.943 97.513 75.795 111.647 86.496 111.512 87.942 111.752 89.793 111.152 91.286 102.839 111.973 83.319 120.434 66.979 131.027 57.076 137.466 54.751 145.274 55.171 153.704 55.696 164.203 64.744 158.542 70.745 159.319 78.202 160.299 85.314 164.048 92.592 166.599 92.787 168.387 92.997 170.176 93.207 171.965 81.743 182.013 69.29 191.127 59.237 202.513 54.466 207.91 54.286 217.662 52.035 225.439 57.422 226.59 62.823 227.741 65.389 228.301 60.587 238.769 54.931 251.134 50.099 261.711 45.298 253.156 39.326 242.533 33.159 231.536 40.902 223.728 47.999 215.64 38.006 204.644 25.612 207.661 11.238 220.882 9.633 229.592 8.507 235.705 5.582 241.444 4.186 247.526 3.091 252.239 1.666 257.838 3.226 261.836 4.036 263.904 11.058 263.702 15.304 263.858 18.08 263.966 20.901 262.909 22.822 262.536 23.662 265.786 23.572 269.348 25.237 270.872 27.698 273.128 31.404 273.921 36.025 275.99 28.898 283.875 23.497 291.777 16.37 297.283 6.287 305.076-.855 313.91-3.886 326.836-5.131 332.108-9.363 336.712-12.514 341.425-15.965 346.605-21.606 350.991-11.913 356.435-9.693 357.679-9.678 365.923-10.953 370.231-11.958 373.622-16.49 375.908-18.035 377.339-26.272 369.282-33.655 362.065-42.747 353.168-35.92 351.66-31.074 350.571-26.242 349.498-25.747 337.428-27.788 336.837-38.246 339.139-49.409 341.612-55.816 348.502-63.903 355.922-74.616 365.752-74.976 377.277-74.796 388.46-74.646 398.586-72.861 411.029-57.751 413.704-65.074 424.157-73.566 432.665-77.587 443.039-81.473 453.072-80.753 465.017-82.058 476.123-86.14 470.57-89.05 464.566-88.945 458.624-88.585 439.726-89.516 422.01-112.907 414.373-94.362 399.83-91.241 380.979-99.148 365.067-110.987 341.239-127.927 320.147-142.661 297.874-145.031 294.266-147.177 290.501-149.413 286.8-145.302 284.342-141.235 281.776-137.049 279.443-130.057 275.554-122.99 271.821-113.222 266.548-125.346 259.736-132.173 259.487-140.095 265.366-145.046 269.037-152.173 269.535-158.265 271.619-163.007 273.237-168.453 274.061-172.219 277.063-180.682 283.829-188.589 285.26-198.222 279.598-202.978 276.798-208.86 275.663-214.381 274.745-224.344 273.065-234.382 271.712-244.435 271.012-250.587 270.592-257.098 270.608-262.965 272.272-271.578 274.714-279.56 281.029-288.127 281.776-307.768 283.471-323.612 292.819-337.296 305.76-351.34 319.043-363.239 334.737-376.833 348.596-382.204 354.071-390.156 361.645-395.993 360.852-408.687 359.141-418.26 363.31-427.022 370.713-451.329 391.245-474.286 378.926-497.992 369.329-503.949 366.903-513.372 366.28-518.158 369.562-530.447 378.039-541.085 389.083-552.248 399.255-557.409 403.968-561.281 404.325-567.222 399.208-577.965 389.922-589.789 381.943-601.552 374.011-604.028 372.346-610.059 371.709-611.155 373.202-620.352 385.723-632.986 392.722-645.199 401.417-658.718 411.029-668.786 425.914-684 435.278-696.919 443.241-706.882 456.291-718.21 467.039-738.061 485.89-752.36 486.155-772.646 468.081-775.812 465.266-778.528 461.595-782.129 459.744-786 457.753-791.566 455.327-794.807 456.804-804.755 461.331-812.152 456.991-818.739 450.987-838.62 432.898-857.975 414.202-877.646 395.864-881.622 392.162-885.778 388.383-890.474 385.832-916.777 371.553-943.11 357.477-962.36 332.886-968.122 325.529-974.799 324.098-983.006 330.413-998.19 342.094-1014.44 350.866-1034.396 350.726-1045.484 350.649-1055.732 353.651-1065.485 361.552-1074.277 368.691-1086.596 368.567-1097.009 361.412-1113.498 350.073-1129.973 338.688-1146.223 326.991-1152.254 322.636-1158.931 318.281-1163.087 312.277-1177.492 291.559-1199.353 286.24-1221.079 282.958-1235.528 280.78-1250.818 285.338-1265.672 284.871-1273.339 284.622-1280.931 280.111-1288.478 277.312-1295.245 274.808-1301.892 271.992-1308.614 269.364-1319.057 265.288-1329.53 261.26-1342.434 256.267-1342.434 266.533-1341.278 273.205-1342.704 279.225-1345 288.868-1347.67 298.916-1352.637 307.253-1358.233 316.632-1364.715 315.403-1368.751 305.262-1374.348 291.217-1378.504 276.83-1374.513 261.338-1372.472 253.374-1374.213 245.753-1381.52 242.58-1396.029 236.296-1410.883 230.494-1426.083 226.31-1442.557 221.769-1459.587 219.28-1480.203 215.142-1473.496 212.965-1469.88 210.585-1466.474 210.865-1446.218 212.592-1425.932 214.396-1405.812 217.351-1398.19 218.471-1393.358 217.74-1392.188 209.356-1390.913 200.288-1390.267 191.143-1389.202 182.044-1389.067 180.877-1388.392 179.353-1387.492 178.746-1378.264 172.556-1368.931 166.536-1359.208 160.206-1365.555 153.222-1372.952 155.851-1380.935 159.382-1384.671 161.015-1389.232 160.688-1393.403 161.248-1393.823 160.206-1394.244 159.164-1394.664 158.137-1397.334 161.886-1400.02 165.619-1401.941 168.31-1406.907 164.701-1410.538 162.71-1413.314 159.848-1415.159 157.92-1417.305 152.896-1416.75 152.398-1408.543 145.228-1400.08 138.337-1391.333 131.882-1387.484 129.041-1383.699 127.846-1379.996 127.989-1372.552 128.277-1371.74 116.739-1379.164 116.119-1382.375 115.851-1386.072 117.526-1390.748 120.699-1400.185 118.568-1407.192 116.981-1417.845 114.555-1410.928 103.698-1404.717 93.962-1397.004 81.845-1412.444 88.16-1413.794 81.721-1409.593 71.688-1416.645 70.802-1422.932 70.024-1429.834 69.153-1425.542 60.723-1427.043 57.721-1435.67 56.865-1444.058 56.057-1452.91 53.879-1460.292 49.851-1483.399 37.19-1506.506 24.311-1528.502 9.721-1548.173-3.313-1566.358-18.742-1585.203-33.114-1584.573-34.25-1583.928-35.385-1583.283-36.536-1578.766-34.732-1573.92-33.519-1569.809-31.015-1552.644-20.547-1538.476-16.589-1521.941-5.125-1512.518 1.407-1503.246 6.867-1491.857 3.74-1482.15 1.065-1476.283 5.202-1470.311 12.326-1466.11 17.334-1460.829 22.529-1455.007 24.676-1446.139 27.958-1436.417 28.907-1426.994 30.291-1425.058 30.586-1421.397 28.86-1421.007 27.382-1420.392 24.956-1421.007 21.363-1422.478 19.31-1430.34 8.298-1435.355 3.826-1443.698-6.812-1452.94-18.618-1462.513-30.175-1471.936-41.84-1461.043-39.336-1451.995-34.312-1442.512-30.377-1439.241-29.024-1433.24-28.759-1431.394-30.797-1426.278-36.458-1422.692-43.613-1417.92-51.079-1422.707-51.421-1426.338-51.686-1430.704-51.997-1430.149-68.235-1445.738-61.874-1452.97-69.013-1441.117-72.995-1429.849-76.805-1420.876-79.823-1428.063-87.46-1434.185-93.961-1440.307-100.479-1439.001-101.334-1437.696-102.205-1436.406-103.076-1433.435-108.66-1430.464-114.244-1427.073-120.636-1424.492-119.688-1421.266-118.506-1418.055-117.323-1416.495-119.143-1414.935-120.963-1413.374-122.767-1416.84-124.121-1420.336-126.703-1423.757-126.609-1436.946-126.189-1450.104-124.898-1462.828-123.981-1468.71-144.605-1452.46-151.045-1439.136-161.466-1457.907-165.727-1476.317-166.085-1496.738-165.152-1482.889-184.408-1467.284-194.938-1446.864-198.437-1469.895-215.345-1492.642-216.713-1517.054-214.318-1512.657-217.709-1508.261-221.115-1504.075-224.35-1505.816-228.254-1507.256-231.474-1509.161-235.72-1497.203-240.915-1486.28-245.659-1474.351-250.823-1473.706-253.436-1472.626-257.869-1471.501-262.286-1467.944-276.347-1474.307-283.984-1487.87-281.884-1511.472-278.245-1511.487-278.245-1504.585-301-1504.135-302.493-1503.265-303.847-1502.56-305.34-1491.606-305.34-1481.193-305.262-1470.781-305.355-1463.503-305.433-1459.077-307.564-1463.683-316.259-1464.479-317.767-1463.788-320.132-1463.788-323.071-1460.893-322.216-1458.522-322.231-1457.232-321.018-1449.684-314.019-1444.883-321.874-1440.052-325.016-1436.961-327.022-1433.51-335.017-1434.41-335.934-1438.761-340.352-1444.508-343.292-1449.79-346.729-1450.09-346.916-1450.645-346.667-1451.02-346.776-1467.735-351.862-1484.299-331.284-1501.119-346.433-1501.509-346.776-1502.695-346.122-1503.505-346.029-1506.1-345.718-1508.696-345.438-1511.307-345.158-1511.517-346.418-1511.727-347.678-1511.937-348.953-1506.416-350.726-1500.909-352.515-1493.482-354.91-1500.219-357.275-1504.885-358.908-1508.981-360.339-1506.161-364.554-1503.895-367.649-1501.929-370.915-1498.658-376.328-1496.663-383.281-1492.147-386.998-1485.305-392.629-1476.752-396.035-1467.525-401.168-1471.021-413.269-1483.924-407.218-1491.786-410.687-1500.692-414.592-1511.504-413.854-1521.473-415.152-1521.616-416.716-1521.589-416.42-1521.733-417.985-1509.13-421.883-1496.508-425.802-1481.884-430.316-1481.854-430.394-1480.833-433.878-1479.843-437.237-1468.125-436.102-1457.277-435.06-1445.498-433.924-1445.003-435.402-1443.968-438.513-1442.662-442.448-1431.949-440.939-1422.136-431.56-1413.494-444.626-1411.678-447.363-1403.726-448.794-1400.65-447.036-1390.928-441.468-1377.454-442.168-1371.962-429.009-1370.507-425.51-1366.756-423.037-1363.59-419.584-1356.043-443.086-1363.095-467.148-1377.379-467.148-1376.478-463.088-1375.623-459.184-1375.233-457.473H-1385.691C-1394.184-463.135-1401.296-467.894-1408.288-472.56-1397.019-478.922-1390.508-488.348-1394.919-502.393-1385.526-503.979-1376.839-505.457-1364.43-507.573-1373.538-514.37-1379.615-519.362-1386.111-523.655-1393.943-528.819-1401.881-533.999-1410.328-537.934-1413.089-539.225-1418.16-537.623-1421.011-535.585-1423.037-534.154-1423.142-529.784-1424.642-524.977-1438.626-530.126-1452.07-534.263-1464.749-540.189-1469.07-542.211-1474.351-548.884-1474.126-553.161-1473.511-565.107-1478.373-571.639-1488.155-576.15-1491.036-577.472-1493.587-579.961-1495.823-582.403-1507.286-594.924-1513.978-594.566-1524.646-578.343-1536.574-593.881-1548.053-608.813-1559.441-623.807-1560.146-624.74-1560.176-626.249-1560.461-627.509-1562.817-638.21-1564.932-648.989-1567.618-659.613-1569.599-667.452-1567.813-672.04-1559.426-670.174-1523.88-662.21-1490.751-644.556-1453.841-641.959-1452.715-641.881-1451.635-640.901-1452.625-641.399-1450.27-631.973-1448.364-624.336-1446.473-616.683-1445.633-617.306-1444.808-617.928-1443.983-618.55-1440.067-614.055-1436.135-609.56-1431.514-604.271-1430.989-605.345-1429.774-607.802-1427.508-612.437-1421.611-599.59-1417.035-589.62-1411.333-577.192-1406.247-589.993-1423.127-602.234-1406.727-609.638-1405.587-615.237-1406.127-624.74-1402.571-626.856-1398.25-629.422-1390.192-626.607-1384.251-624.554-1376.404-621.863-1369.172-615.19-1361.429-614.739-1352.772-614.257-1341.969-616.388-1335.427-621.739-1324.774-630.449-1323.648-632.004-1313.281-620.805-1312.755-624.616-1312.335-627.649-1311.33-634.944-1302.732-626.809-1296.206-620.65-1288.523-613.371-1290.249-620.634-1291.929-627.649-1294-636.344-1288.989-634.384-1285.808-633.124-1284.127-632.471-1284.787-638.257-1288.043-646.205-1285.508-650.265-1283.182-653.982-1274.599-654.355-1268.733-654.48-1265.807-654.542-1263.001-650.358-1259.805-648.818-1254.434-646.236-1248.972-643.467-1243.255-642.177-1236.833-640.73-1229.902-641.632-1223.51-640.092-1193.171-632.797-1162.997-624.756-1132.659-617.477-1090.917-607.46-1048.335-600.399-1009.068-581.5-1000.591-577.425-988.858-572.775-986.082-565.387-980.035-549.257-971.363-537.856-955.938-532.412-947.341-529.379-938.218-526.222-929.336-526.222-915.307-526.222-901.953-535.43-886.948-527.917-881.472-525.18-873.4-526.393-866.963-527.855-862.687-528.819-856.76-532.77-855.815-536.518-853.024-547.733-846.002-546.644-838.395-545.026-831.943-543.658-825.626-541.604-819.234-539.863L-821.98-537.529C-815.183-527.171-809.406-515.816-801.289-506.701-793.472-497.945-792.466-499.018-801.259-490.619-802.849-489.11-803.81-486.886-805.055-485.004-804.47-484.241-803.9-483.479-803.315-482.702-796.758-487.539-790.201-492.361-783.629-497.182-782.804-496.514-781.964-495.86-781.123-495.192-782.474-489.312-783.809-483.417-785.159-477.538-784.544-477.009-783.929-476.496-783.329-475.967-778.333-481.489-773.336-487.026-768.505-492.376-765.669-486.808-762.638-480.897-759.622-474.987L-755.931-475.92C-757.762-491.536-771.911-508.381-748.384-523.78-738.391-520.467-723.732-516.874-710.243-510.605-704.211-507.806-701.286-495.985-695.554-494.647-676.663-490.214-655.988-483.386-638.162-487.492-618.492-492.05-603.352-486.45-585.887-482.033-593.36-468.47-593.36-468.47-583.877-463.632-585.542-461.082-587.178-458.578-588.993-455.778-581.176-448.981-574.184-442.884-567.057-436.677-567.897-433.629-568.963-429.772-570.778-423.177-555.774-431.778-556.299-422.508-555.894-413.58-555.579-406.41-554.469-399.255-553.658-391.773-537.154-396.999-544.281-409.085-544.821-417.702-541.085-420.937-535.533-423.69-535.713-425.945-536.673-437.486-531.542-442.51-521.354-442.728-521.984-447.036-522.494-450.443-523.275-455.638-516.583-452.916-511.871-450.987-506.035-448.592-504.954-461.159-498.022-461.424-489.785-458.702-478.937-455.14-469.724-450.303-464.503-438.233-458.336-423.985-445.177-421.015-435.244-430.456-432.244-433.318-430.893-438.062-428.537-442.386-409.767-431.654-394.883-418.106-383.059-400.406-374.582-387.698-359.758-382.223-349.705-387.947-339.202-393.935-330.454-403.205-317.491-404.03-305.952-404.761-292.929-409.816-283.341-405.834-274.353-402.085-264.24-389.502-263.28-379.89-262.2-369.002-250.722-366.483-251.517-356.512-251.517-356.264-248.126-355.704-246.28-355.284-241.689-383.374-231.426-397.621-208.605-388.88-166.127-372.58-124.07-355.081-82.103-337.397-59.702-327.971-37.781-317.145-12.769-318.903 14.329-320.801 41.817-320.567 67.204-333.01 79.343-338.968 91.211-345.905 103.92-350.042 111.902-352.655 121.775-352.935 129.742-350.54 138.025-348.067 145.047-340.741 142.121-329.806" fill="#231f20"/>
</g>
</g>
</svg>
