<svg xmlns="http://www.w3.org/2000/svg" width="1133.86" height="1133.86" viewBox="0 0 1133.86 1133.86"><defs><clipPath id="clip_1"><path d="M0 .002h1133.858V1133.86H0Z"/></clipPath></defs><g clip-path="url(#clip_1)"><path d="M619.726 483.791c-2.28-.756-4.82-.613-4.772 2.131.038 2.247 2.646 3.02 5.016 2.88 5.093-.299 7.428-3.8 9.139-7.919.494-1.188.146-2.613-1.168-3.079-1.333-.473-2.297.215-2.454 1.783-.35 3.494-1.38 6.138-5.761 4.204m-93.094-7.247c-.563.22-1.255.3-1.665.682-1.444 1.347-.803 2.85.063 4.131 2.22 3.29 3.994 7.163 9.04 6.895 2.37-.125 4.376-.612 5.026-3.163.629-2.47-.481-3.806-2.878-2.672-3.846 1.821-5.98.62-6.608-3.274-.32-1.973-1.213-2.6-2.978-2.599m55.208-24.008 1.777 1.555c4.263-4.99 8.572-9.944 12.734-15.018.507-.617-.044-2.77-.101-2.657-2.45 4.845-5.351-3.597-6.336-.16-1.71 5.96-5.224 10.932-8.074 16.28m-300.397 315.27c-9.798.92-20.318-1.389-31.274 5.318 12.365 1.608 21.466-3.856 31.274-5.319m416.346-228.297c1.383-7.279-3.026-12.419-5.912-17.999-.413-.797-1.995-1.24-3.08-1.332-.511-.044-1.645 1.658-1.623 1.681 6.53 6.412-4.351 3.454-3.513 7.512 5.264 1.892 7.749 8.371 14.128 10.138m-97.567 299.825c6.606-2.725 19.11-27.77 18.069-34.709-8.651 10.363-10.911 22.79-18.07 34.71m47.56-375.249c-3.317-7.625-11.73-8.05-15.89-13.288 3.47-3.797 5.687 4.456 8.919.43-.517-1.729-2.038-2.14-3.317-2.96-3.55-2.276-7.158-3.036-9.723.85-2.573 3.897.84 6.225 3.439 8.376 4.569 3.78 9.74 6.13 16.572 6.592m-51.282 395.791c-4.683-.02-9.925 3.104-14.183-1.832-1.626-1.885-4.387.274-4.57 1.207-.75 3.806 1.533 7.816-.471 11.678 4.17-2.358 6.187 2.741 9.586 2.713.888-.008 2.048-1.216 2.577-2.156.672-1.197.038-2.392-1.251-2.962-1.56-.689-3.82-.693-2.908-3.673 3.923-.96 9.938 2.684 11.22-4.975M469.957 501.468c-5.471 5.285-13.403 7.593-16.951 14.918-1.297 2.678-4.342 5.756-1.315 8.231 3.449 2.82 5.245-1.342 7.35-3.385 5.62-5.455 7.947-12.714 10.916-19.764m91.64-47.9-2.493.102c1.2 9.382-1.72 18.32-1.408 27.58.047 1.372.968 2.93 1.928 4.011 1.899 2.14 4.289 3.831 7.27 2.127 3.213-1.834 2.666-4.51.952-7.093-3.353-5.05-4.647-10.42-4.173-16.573.255-3.312-1.324-6.764-2.075-10.154m178.967 361.957c2.05 4.667 1.492 10.412 7.476 13.44 7.413-20.796 7.52 5.663 12.805 1.521 1.143-2.412 2.445-5.136 3.725-7.87 2.445-5.225-.41-7.55-4.88-6.464-6.427 1.562-12.36-1.51-19.126-.627M916.78 708.627c-.234-3.177.637-5.955-2.29-7.256-.437-.196-1.744.61-2.067 1.246-4.207 8.322-9.702 16.397-5.363 26.482 1.367 3.18 3.852 4.597 7.062 4.922 2.03.206 3.078-1.49 2.445-2.913-3.488-7.844-1.393-15.546.213-22.48M595.573 455.13l-2.596.001c-.47.722-1.388 1.473-1.342 2.16.617 9.2.767 18.201-5.46 26.041-1.596 2.01-.434 4.195 1.783 5.352 2.022 1.056 3.763 3.438 6.566 1.652 3.17-2.02 4.196-5.259 4.57-8.612 1.032-9.248-5.884-17.043-3.521-26.594m50.14 15.958q-.076-1.286-.155-2.573c-7.072-.847-14.19-2.654-21.207-2.326-12.008.56-14.58 11.654-19.44 19.827-1.018 1.713-3.818 4.776-.384 6.343 3.864 1.763 4.15-2.625 5.388-4.744 1.379-2.36 2.056-5.118 3.27-7.589 3.777-7.683 9.05-11.437 17.874-7.206 5.229 2.508 9.852-.644 14.655-1.732M310.87 685.234c-1.801 3.386-3.79 6.686-5.364 10.173-3.59 7.946-7.182 15.903-10.36 24.017-1.661 4.247 1.64 7.336 4.728 8.763 1.852.855 5.616-.677 5.902-4.21.545-6.719-5.945 1.207-6.771-3.124 14.706-8.182 9.82-23.039 11.865-35.619m462.718 84.315c6.122-10.528 4.8-30.426-2.036-36.64-9.685 14.322-9.334 22.325 2.036 36.64m-78.43-302.454c-.853 3.104 1.427 3.865 2.19 5.404.932 1.878 2.358 4.335 2.398 5.668.107 3.734 1.975 8.064.823 10.867-2.19 5.321-2.52 12.32 1.045 16.127 2.76 2.95 5.92 2.191 8.375.78 2.393-1.377 1.797-4.725.325-6.595-2.821-3.588-2.752-6.69-1.342-11.014 2.29-7.019-2.817-12.825-5.307-18.898-1.635-3.989-5.894-.08-8.506-2.339m-186.99 6.446c5.843-5.57 11.777-.615 17.762-1.1 5.882-.479 12.789 1.044 16.774 7.612 2.363 3.896 3.022 12.637 7.942 10.356 4.638-2.15-1.778-9.036-1.917-14.055a2.9 2.9 0 0 0-.174-.913c-2.671-7.104-16.691-15.81-20.224-11.475-5.212 6.394-10.006 2.2-14.71 3.488-2.271.623-4.795 1.565-5.452 6.087m135.418 337.714c.91 4.432-.995 9.354 3.439 9.946 4.487.6 5.692-4.024 6.21-7.7 1.516-10.748 2.909-21.516 4.03-32.309.248-2.383 3.714-5.97-.3-7.153-3.846-1.135-6.663 2.944-6.75 6.04-.313 11.241-4.24 21.67-6.63 31.176m192.526-70.946c-3.426 1.014-1.11 9.063-7.586 5.54-1.725-.937-3.18-3.532-5.49-1.219-1.64 1.642-1.99 3.83-1.467 6.078.679 2.927 3.3 7.351.44 8.531-6.108 2.518-2.32 6.824-3.506 10.495 8.418-3.292 12.492-18.349 25.427-7.537-.875-8.756-3.583-15.638-7.818-21.888M659.148 561.43c1.866-6.249 7.01-10.033 12.374-9.334 2.052.268 2.798-1.105 2.067-2.905-1.957-4.817-3.631-6.388-9.98-3.73-8.34 3.493-16.154 6.076-21.903 13.902-6.53 8.893-1.613 19.218-5.204 28.29-.643 1.626.334 3.815 2.869 3.773 3.564-.057 1.49-3.018 2.144-4.109 5.112-8.519-4.667-21.729 9.749-27.792 4.97-2.09 3.89-4.645 7.884 1.905M550.906 452.325c3.875-8.764-1.76-17.585-11.227-19.706-6.05-1.356-8.788-.584-8.607 5.834.065 2.29-1.384 3.31-3.16 3.96-9.212 3.38-16.17 9.992-24.417 16.076 1.97 1.245 3.499 2.938 4.39 2.652 4.68-1.499 11.977 1.923 13.598-4.305.754-2.895.126-3.752 3.44-4.924 3.668-1.297 6.634-4.673 9.79-7.283 4.809-3.978 8.3-3.46 11.956.928 1.774 2.13 1.058 5.665 4.237 6.768M430.939 745.55c-1.441 3.507-1.978 5.61-3.098 7.332-1.262 1.943-4.877 3.016-4.11 5.46.949 3.023 4.254 2.69 7.188 2.498 6.61-.43 6.68 4.158 5.952 8.723-.52 3.242-3.432 4.87-5.672 6.983-1.946 1.835-6.906 3.3-3.874 6.84 3.662 4.276 4.523-1.349 6.469-2.986 1.343-1.129 2.795-3.02 4.56-1.052 1.136 1.265.069 2.721-.82 4.102-1.158 1.798-5.023 2.675-2.645 5.79.75.98 2.723 1.48 4.115 1.438 3.504-.1 5.006-3.306 5.082-5.726.205-6.455 3.218-12.428 2.635-19.008-.29-3.278-.687-5.896-3.806-7.738-4.772-2.819-8.854-6.483-11.976-12.656M604.61 965.526c8.38 3.285 8.495-6.843 12.416-10.88 3.636-3.745-1.784-5.08-4.753-7.24-3.08-2.24-1.787-5.98 2.576-6.146 4.305-.163 9.57-.672 9.525-4.985-.042-4.055-5.75-4.194-9.602-5.486-7.052-2.365-8.11-.058-8.594 6.486-.29 3.9 4.717 11.896-6.042 12.017-1.508.018-5.643 7.852-4.767 12.875.669 3.834 4.756 3.145 9.24 3.36m-40.804-55.775c-6.722 10.188-3.595 40.57 4.063 47.453 2.945 2.647 6.157 3.697 9.997.787 4.845-3.674.256-5.202-1.472-6.948-1.942-1.96-1.955-3.638-.744-5.749 4.978-8.678-8.236-15.185-2.868-23.913-.804-.418-1.563-1.007-2.418-1.225-5.205-1.33-7.845-4.34-6.558-10.405m126.846-44.56c-5.321-1.379-5.972-5.12-5.588-9.388.4-4.435-4.502-8.302-5.705-7.677-5.67 2.945-12.022-.708-17.837 3.471-4.718 3.391-10.965 4.73-7.15 11.914 2.63 4.958 5.718 11.991 13.629 5.196 1.466-1.259 5.08-2.487 5.773-1.798 6.254 6.235 11.064.548 16.878-1.719m-51.653-151.29c-.262-9.25-.265-9.196-9.55-9.632-1.086-.052-2.07-1.26-3.201-1.629-2.913-.95-4.82-7.415-8.897-1.956-2.581 3.457-8.68 6.406-2.044 11.954 2.026 1.694 1.94 4.998-1.256 6.988-2.341 1.457-4.954 2.977-6.456 5.151-1.861 2.69-3.58 6.862.143 8.877 3.214 1.74 4.13-2.593 5.607-4.67 1.23-1.73 1.905-3.873 3.214-5.528 2.999-3.795 6.37-7.604 8.503.577.903 3.47 3.602 2.657 5.837 3.148.09-6.03 10.11-6.07 8.1-13.28m61.407-153.269c-1.011 3.778.938 5.652 2.865 7.67 3.558 3.724 3.504 3.798-1.19 5.86-1.795.79-2.287 2.275-1.356 3.712 3.784 5.836 4.116 12.908 6.965 19 2.547 5.448 9.109 7.524 11.736 2.892 2.804-4.945 3.304-1.13 4.549-.292 5.284 3.551 3.95 11.68 10.209 14.89 2.019-2.93 2.957-4.424.644-8.915-3.512-6.815-8.51-12.34-12.542-18.58-6.09-9.423-11.276-19.914-21.88-26.237M525.05 794.203q-1.085.3-2.17.597c3.46 10.001 7.357 19.88 10.19 30.055 1.35 4.847 2.602 9.368 7.876 10.113 4.673.66.185-6.697 5.317-6.747 5.6 5.907 6.716 14.96 12.95 21.314-.752-7.143-1.887-14.003-1.373-21.146.556-7.725-3.344-14.19-9.526-19.445-2.482 3.48-.77 7.602-4.542 8.924-.562.196-2.13-.657-2.208-1.178-1.034-6.826-4.952-11.062-10.902-14.426-2.571-1.453-3.783-5.3-5.612-8.06m316.987 12.36v.374c-1.86-.087-3.847.227-5.551-.33-8.326-2.719-11.305 6.118-17.521 8.016-1.468.45-1.531 4.684.043 4.304 4.463-1.078 6.956 3.977 11.722 2.391 3.91-1.3 8.959-1.174 12.922.11 6.14 1.987 12.124 2.065 16.613-2.027 1.89-1.723 4.039-1.487 6.114-1.329 3.58.273 5.518-2.486 8.146-3.95 1.367-.763 1.204-2.218.606-3.246-1.045-1.794-2.226-1.527-3.47.095-2.73 3.555-4.252.933-6.52-.97-3.322-2.787-6.507-6.018-12.081-3.677-3.15 1.322-7.315.238-11.023.238M444.59 420.284c-3.145 9.413-3.145 9.413 1.135 16.914 5.338 9.357 5.479 19.714-2.826 26.242-10.621 8.35-8.987 18.717-8.775 29.414.09 4.556 2.554 7.197 7.37 9.255.405-5.975.939-11.236 1.076-16.507.17-6.579 6.926-7.925 9.633-12.507 1.22-2.065.074-3.278-.225-4.992-.357-2.058-.133-4.71.93-6.436 4.88-7.916 8.185-16.232 9.47-25.534.314-2.274.163-4.317-1.364-4.007-9.313 1.888-11.163-6.435-16.424-11.842m62.726 296.133c1.21-9.549 6.667-14.817 8.628-21.54.745-2.553 1.92-5.33-1.17-6.29-3.24-1.007-5.152 1.971-5.29 4.673-.621 12.241-11.303 22.776-4.084 36.755 4.21 8.155 3.589 20.096 10.383 26.014 6.829 5.95 15.837 10.431 24.368 14.702 2.694 1.35 6.07.517 4.482-2.767-3.614-7.472-3.871-16.909-11.667-22.305-3.028 3.675 2.829 6.588-.086 10.054-5.708-3.773-5.31-11.81-11.725-17.41l2.635 12.381c-6.833-4.913-8.802-11.838-12.872-17.162-1.652-2.162-3.112-10.334.3-10.19 13.724.572 13.085-11.767 18.618-18.355 4.48-5.336-2.366-5.356-4.128-7.744-3.177-4.307-4.86-.41-5.95 1.57-3.105 5.648-6.42 11.074-12.442 17.614M632.88 389.58c-7.832 2.898-1.168 7.585-2.856 11.057-.661 1.36-3.35 2.255-.57 4.202 2.613 1.83 3.53.048 5.205-1.577 5.437-5.279 8.429-11.34 7.557-19.028-.438-3.867 2.403-5.495 5.097-4.87 4.508 1.043.144 2.837-.141 4.405-1.204 6.597-1.998 13.273-3.328 19.843-1.86 9.19 7.499 10.206 11.413 14.895 2.597 3.113 4.099-3.787 6.71-5.53 2.158-1.44.776-3.999.736-6.088-.264-13.804-10.652-25.075-9.81-39.319.138-2.335-4.081-5.357-7.102-4.295-2.67.94-7.384.06-7.554 5.246-.17 5.201-4.191 8.5-7.611 11.195-3.44 2.712-8.32 3.607-10.552 8.805 4.136-.918 7.524 2.132 12.806 1.06M348.276 839.63c2.082 6.578 8.805 8.876 12.969 10.45 5.894 2.224 12.107 8.323 18.586 5.708 6.88-2.777 12.095-4.247 17.744 1.831 2.35 2.53 5.333.328 5.108-2.353-.412-4.929-4.255-7.96-8.3-10.468-3.376-2.093-6.446-2.128-8.913 1.37-2.838 4.025-5.557 3.875-9.06.514-4.388-4.21-11.69-4.349-14.6-11.535-.667-1.648-9.525-1.699-12.9-4.602-4.807-4.133-8.336-7.719-13.53-1.17-4.717-6.548-10.801-2.149-16.377-2.16-1.526-.004-1.73-3.925-4.051-2.485-2.883 1.79-.421 3.757.583 5.457 1.169 1.981.595 3.384-.894 4.894-1.625 1.646-1.89 3.551 1.029 3.7 5.999.303 9.328 5.576 14.834 7.287 7.61 2.366 13.7 1.371 17.772-6.439m315.748-397.813c-6.224.795-8.924 3.024-5.484 8.02 2.74 3.977 9.275 1.341 11.546 7.706-4.256-.39-9.431-1.11-10.303 2.764-.36 1.594 1.925 7.386 6.179 8.752 2.226.715 2.13 2.714 3.019 4.25 3.097 5.35 6.316 10.024 5.76 17.206-.647 8.34 7.605 11.96 13.105 16.902 3.772 3.391 7.408 12.24 10.778 9.382 3.884-3.293-2.936-9.05-6.017-13.487-2.13-3.067-7.574-6.344-4.904-10.106 6.157-8.677 1.209-14.595-4.008-20.007-3.073-3.188-1.99-7.303-4.402-10.5-.903-1.198 4.746 2.701 3.917-1.803-.48-2.607-3.561-3.209-5.598-4.498s-2.242-4.313-1.185-4.465c5.3-.767 2.566-3.32 1.059-4.685-7.67-6.953-14.117-15.87-25.598-17.225-3.238 10.19 5.902 7.964 12.136 11.794M488.76 356.46c1.284 6.35-2.05 10.332-1.377 15.671 1.53 12.162.818 24.501-7.114 34.778-2.073 2.686-3.322 4.588-.915 6.964 2.267 2.236 2.349 7.48 6.712 6.556 3.369-.714 8.348-2.553 8.513-6.01.423-8.918 8.989-17.556 1.172-26.864-1.171-1.395-2.64-3.689.555-6.049 6.487 9.571 7.723 20.913 11.732 32 4.804-5.495 14.396-8.182 9.293-18.105-3.137-6.102.366-13.8-6.29-19.178-7.111-5.745-12.78-13.23-22.281-19.763m131.154 388.406c-3.132 9.913-12.603 13.333-17.231 21.302-1.768 3.044-6.667 7.447-11.428 6.64-8.522-1.446-18.267 1.946-25.401-6.327-1.56-1.81-6.265-2.752-8.703-.948-3.128 2.313.183 5.59.429 8.48.566 6.647 7.073 8.79 9.879 13.69 4.627 8.078 10.717 8.466 15.406 1.126 1.225-1.919 2.939-3.296 5.337-1.186.794.7 2.74 1.947 2.857.925 1.309-11.42 6.92-2.988 10.746-2.423 1.71.252 3.355-.099 4.053-1.549 3.315-6.889 11.213-10.477 13.02-18.518.826-3.668 1.149-7.874 7.124-7.908 5.972-.034 5.378 5.277 7.873 8.28 8.986-16.376-9.741-13.313-13.961-21.584m-48.492-85.583c5.179-6.946-.204-17.473 10.664-22.059-.24 4.631-4.42 9.75 1.715 13.321 5.276-7.19-.48-20.11 11.434-23.854 2.745 10.423-6.405 20.1-.531 30.66 2.15-16.147 6.92-23.93 14.75-24.348-7.494 10.894-7.494 10.894-1.228 16.827 6.81-9.753 6.044-21.13 6.04-32.158 4.488.241 2.193 6.44 6.915 5.75 1.728-7.36-3.126-13.77-3.096-21.029.025-5.684-4.181-3.554-7.36-1.96-7.371 3.696-13.947 11.124-22.327 10.207-15.556-1.702-33.59 1.748-44.222-16.364 4.137 6.948 2.818 13.932 2.412 20.505-.482 7.813 2.539 12.775 9.534 14.64 12.533 3.341 13.798 13.203 14.86 23.452.222 2.128.298 4.272.44 6.41M709.86 715.27c2.54 2.632 3.319 8.08 7.84 6.313 5.175-2.022 2.41-6.598 1.438-10.435-.824-3.257-.593-6.699-2.031-9.935-.777-1.749-1.148-3.76-3.148-4.157-2.456-.487-3.651 1.276-4.966 3.253-7.14 10.73-18.432 17.49-26.656 27.407 1.71-4.775 4.285-8.976 6.525-13.347 2.272-4.433.989-7.518-3.84-9.39-4.562-1.769-6.247.897-7.673 4.27-.722 1.708-1.492 3.444-1.853 5.245-1.951 9.71-11.393 9.832-17.78 13.796-.981.61-3.117.092-3.345-.947-.215-5.417 6.869-2.285 6.392-7.65-4.371-.927-8.001-1.833-9.558 4.558-1.225 5.033-4.09 9.661-6.16 14.498-.841 1.97-4.431 4.2-.818 6.063 3.46 1.785 3.49-2.246 4.686-4.138.612-.966 1.015-2.373 2.83-1.915 4.54 3.526-2.744 7.871.565 11.548 5.205-2.646 4.356-11.394 9.782-11.933 5.798-.577 10.226-2.5 14.142-6.223 2.94 3.826-.75 6.201-.897 9.205-.42 8.634 3.719 5.358 7.936 1.91-2.133 11.377-5.32 20.843-9.823 30.095-4.456 9.152-8.187 18.761-10.261 28.873-.642 3.128-3.592 6.377 1.178 8.706 2.336-5.874 10.367-2.19 13.252-8.76 6.022-13.719 4.423-28.685 8.424-42.87 2.943-10.43 3.138-20.716 13.87-26.596-2.444 9.077-2.84 18.965-7.063 27.716-3.521 7.3 4.877 6.518 6.373 10.441.564 1.476 4.838.993 5.48-1.208 2.578-8.843 7.544-17.014 8.635-26.73-3.571.708-2.751 5.011-5.654 5.165-1.797-11.208 3.815-21.617 2.178-32.828m-93.341-166.436c-3.931-8.628-9.535-16.75-6.035-26.695 1.216-3.455-.195-6.689-.103-10.022.066-2.376-.471-4.722-2.921-5.068-2.142-.304-3.684 1.448-5.122 3.321-8.162 10.632-8.887 22.282-1.205 34.625 4.294 6.898 8.174 13.724 9.258 21.998 1.067 8.145-.678 14.22-8.15 19.022-4.677 3.008-10.33 4.471-15.178 8.226 7.18 4.741 12.54-.123 17.278-2.185 9.763-4.247 20.768-7.924 25.074-19.339 2.154-5.707 3.78-11.668 5.048-17.64 2.158-10.16 8.82-16.493 17.667-20.407 7.249-3.207 10.69-9.298 7.3-15.87 2.944.003 3.179 4.59 6.479 3.712 4.269-12.597-6.64-29.619-19.882-30.204 5.458 8.365 2.103 12.736-6.307 15.483-3.997 1.306-7.477 4.625-11.11-.447-.646-.902-2.861-1.612-3.234-.458-2.357 7.283-12.598 10.464-11.084 19.88 4.353.901 3.189-6.24 7.068-4.157 4.17 2.241-.156 5.438-.11 8.245.108 6.183-4.974 11.331-4.731 17.98m-38.707 46.786c-4.837-3.725-9.622-7.349-14.338-11.06-3.953-3.11-6.63-7.323-8.585-11.778-2.313-5.265 4.492-11.196-.751-16.523 8.513-1.485 8.33-9.575 10.972-15.137 6.738-14.184-1.357-32.555-15.947-37.34-1.993-.654-4.355-1.07-6.451 2.881 12.617.548 9.32 9.544 8.403 16.48-1.054 7.956-.334 16.122-2.07 24.233-3.711-3.74-6.137-7.627-10.49-9.79-3.657-1.816-6.266-4.877-2.474-8.689 4.419-4.444 5.156 1.471 7.456 3.08.638.445 1.688.304 2.566.435 1.915-4.34-.952-7.995-1.257-11.924-.571-7.352-5.682-11.619-12.165-13.81-7.2-2.435-5.658 5.905-8.525 8.387-7.863-3.959-3.012-9.672-2.68-15.266-3.877 5.324-7.653 9.288-11.978 1.592-2.737-4.872-7.302-5.867-11.565-1.808-3.847 3.664-6.616 8.075-9.088 12.817-2.49 4.778-4.341 8.292 3.74 7.43 1.435-.154 3.529-.315 3.349 1.931-1.238 15.407 11.589 20.098 21.493 24.221 6.863 2.857 10.449 6.831 14.032 12.041 1.52 2.212 2.292 6.226 5.248 5.6 7.059-1.498 7.894 3.525 8.65 7.745 1.442 8.03 6.923 13.703 11.089 19.994 4.792 7.235 12.94 8.325 21.366 4.258m79.494 111.368c8.735-4.337 11.96-11.16 17.626-15.105 3.509-2.44 3.256-9.295 8.084-8.495 4.766.79 6.1 6.48 8.21 10.567 1.089 2.107 2.659 3.628 5.18 2.836 2.882-.907 3.488-2.983 2.747-5.874-.391-1.524-1.531-3.499.622-4.83 4.347-2.688 5.87-5.603 3.438-9.11a63.3 63.3 0 0 1-6.55-11.982c-.872-2.104-2.542-5.908-5.826-4.533-4.091 1.714-.105 4.767-.164 7.233-.082 3.486 3.777 6.772.444 10.471-1.493 1.656-2.813.464-4.103-.048-4.976-1.975-2.817-7.019-4.403-10.466-.794-1.727.412-2.847 1.25-4.12 5.25-7.99 5.499-16.552 2.64-25.364-.612-1.884-2.353-3.529-.575-5.6 4.402.84 1.328 6.872 5.739 7.707.484-.59 1.232-1.215 1.613-2.015 2.378-5 5.595-4.863 10.587-3.279 6.467 2.052.962 5.423 1.845 7.725 2.794 7.271-2.12 15.918 3.67 22.821 4.032-2.906 4.604-6.102 2.277-10.274 4.742 2.521 10.989 7.775 13.119 5.07 3.576-4.543 2.01-11.702-1.16-17.374-1.052-1.884-2.244-3.695-3.451-5.489-2.398-3.568-4.96-7.034-7.241-10.674-1.426-2.273-1.177-3.085.462-2.909 7.212.78 5.782-5.789 6.604-8.83.989-3.665-3.586-5.538-6.912-5.915-6.4-.726-10.137-4.394-12.29-9.879-1.956-4.984-5.661-8.147-10.496-11.414 4.38 6.117-.972 10.11-1.336 14.604-11.542-3.04-13.672-14.51-20.972-21.177-5.436-4.964-8.28-4.425-11.76 2.236-3.525 6.746-2.542 15.948-6.471 20.546-8.427 9.864-4.913 25.136-16.713 32.77-1.073.693-1.738 4.065-1.017 5.15 5.71 8.587 3.196 17.421 1.446 26.3-.012.06 1.024.324 1.914.6 2.325-10.483 10.473-13.694 19.737-14.458 3.64-.3 7.402-.678 5.63-4.417-2.884-6.089 2.737-7.24 4.515-10.528.88-1.628 2.54-2.952 4.528-1.187 1.884 1.673 2.167 2.588-.28 4.861-3.75 3.486-4.591 8.873-2.75 13.711 2.638 6.926-.087 10.268-6.481 12.078-5.47 1.55-4.7 8.613-3.796 9.622 7.607 8.513 6.548 17.28.82 28.438m-180.78 55.383c-1.028-6.952-2.78-12.518-2.641-18.524.268-11.665-2.867-22.882-10.094-31.78-6.511-8.018-10.63-17.254-16.286-25.643-1.268-1.88-5.687.668-4.79-3.904 1.35-6.872-2.692-11.389-7.33-15.58-1.365-1.235-1.176-4.986-4.381-3.053-1.934 1.166-3.983 2.313-3.424 5.767 1.554 9.618-3.672 18.563-3.337 28.252.158 4.595-3.525 10.184 5.822 7.302 2.526-.778 2.17 1.99 1.57 3.87-2.177 6.83.128 12.005 5.879 16.015 3.212 2.24 4.457 5.22 4.707 9.411.375 6.273 2.344 12.218 10.399 12.901 10.787.914 14.54 7.926 10.073 18.123-1.407 3.214-5.095 5.26-5.26 8.577 3.907 3.95 7.999-5.064 10.328.88 1.323 3.378.144 7.951-.615 11.848-.513 2.637-1.768 5.495-3.582 7.414-1.904 2.014-2.603 6.522-6.35 5.474-4.376-1.224 1.126-5.426-2.52-8.823-2.984 7.301-4.35 13.995-4.945 21.276-.407 4.975 1.827 6.104 5.315 6.57 4.348.578 5.519-2.014 5.38-6.307-6.587 3.93-8.128 4.283-8.681 2.17-.956-3.657 1.242-7.659 3.71-8.62 8.797-3.427 14.605-10.193 21.737-18.612-.237 6.397 3.218 11.567-2.583 14.171-6.762 3.037-5.393 7.224-4.17 12.815 1.64 7.488 7.902 14.118 4.144 22.796-1.512 3.49 2.83 3.298 4.647 4.394 2.157 1.302 3.499-.417 3.935-2.38.584-2.627.467-5.465 3.002-7.556 2.979 6.23 5.802 12.404 8.864 18.458 3.062 6.052 2.667 13.301 7.032 18.934 4.972 6.414-.794 12.405-1.175 18.942 1.46-6.88 15.41-1.767 10.69-14.826 10.859 12.648 17.267 25.686 25.53 37.462 3.856 5.495 8.315 10.963 3.97 18.6-1.07 1.881-1.06 5.471 4.142 8.012v-45.004c-2.25-1.129-6.47 4.781-8.897.152-1.9-3.62 2.167-5.982 4.619-8.083 3.577-3.066 2.482-4.832-1.422-5.17-8.055-.699-5.212-14.035-14.931-12.523-.06.01-.378-.72-.286-.81 3.267-3.183.775-7.467 1.843-10.613 2.895-8.528 1.704-12.84-6.524-17.333-8.335-4.553-14.098-11.35-17.677-21.119 7.015 3.07 7.607 11.313 14.426 13.761 2.855-8.21-7.49-11.964-6.76-19.58 3.24 1.311 4.082 4.26 6.033 6.14 1.519 1.464 2.103 5.4 5.224 3.3 2.78-1.873 2.102-5.006.236-7.435-4.941-6.427-7.23-14.392-11.727-20.848-2.626-3.77 1.813-6.873-1.443-9.975-5.19-4.942-9.205-12.128-16.192-13.796-7.234-1.727-7.295-7.186-9.638-11.769-1.203-2.352.66-5.556-2.292-7.66-2.123 3.946.813 8.775-3.303 13.54M460.724 527.05c-6.62 3.788-4.842 10.408-7.346 15.177-7.81 14.874-20.991 27.514-19.553 46.335.1 1.312-1.608 2.664-1.99 4.124-2.651 10.162-9.832 17.937-11.488 29.441-1.788 12.415 5.53 15.067 11.45 22.915.283-2.994.722-4.04.374-4.597-1.296-2.07-2.073-4.2.467-5.57 2.91-1.57 2.682 2.31 4.262 2.96 5.57 2.294 3.379 7.54 4.435 11.44 2.127 7.852 10.408 13.24 8.159 22.591 5.119-.738 5.18-4.366 6.475-7.502.937-2.272.805-6.218 4.467-6.337 3.348-.11 2.257 3.81 3.922 5.533 3.129 3.238 4.107 11.24 12.634 1.148-2.924 5.947-2.317 7.238 1.459 10.35 1.43 1.18 1.04 2.79.259 4.228-1.013 1.866-2.425 3.655-.194 6.5 2.828-4.328 5.43-9.44 11.962-6.346-.078 4.66-4.794 6.83-5.945 11.143-1.734 6.493-4.86 10.106-9.93 1.82-1.042-1.704-3.025-3.929-5.342-2.603-2.14 1.225-1.371 4.02-.891 5.99.724 2.974 2.847 5.751 3.03 8.695 1.159 18.49 16.812 25.755 28.02 38.937-.2-11.078-3.72-18.986-5.946-27.189-.83-3.053-1.422-5.814.693-8.77 6.364-8.894 6.899-20.898 15.533-28.755a4 4 0 0 0 .378-.396c2.356-2.836.19-7.317-3.498-7.389-5.287-.102-9.7-4.393-14.461-1.092-.43-1.117-.714-1.495-.62-1.665 5.203-9.474 4.932-10.03-3.515-13.764-2.487-1.1 2.616-3.673-.122-5.508-3.797 1.52-6.577 5.546-12.751 4.692 7.667-5.509 4.336-9.315-.53-12.998-1.577-1.193-5.465-2.065-3.887-4.2 6.136-8.3-1.561-5.792-4.961-7.529-2.312-1.182-8.803-1.148-4.64-7.17 1.576-2.277 6.845-4.739.764-7.438-3.778-1.677-9.044-6.398-10.83 2.583-.384 1.941-2.007 3.87-4.043 4.007-2.632-2.258 1.07-6.383-2.837-8.03-3.798.805-2.125 7.042-7.308 7.006 4.58-8.62 4.507-8.528-1.147-13.03-1.771-1.41-.401-3.222.14-5.002 2.608-8.566 11.42-10.754 16.434-16.852-.895 2.7-2.31 4.936-3.71 7.181-.837 1.344-.196 2.458.903 3.07.553.306 2.157-.003 2.247-.324 1.873-6.648 7.99-5.21 12.725-7.403-1.928 8.045-1.928 8.045 6.202 7.985-6.11 6.058-3.134 10.52 2.336 13.701 4.989 2.902 5.654 6.915 4.829 11.866-1.696 10.172 6.389 17.93 16.47 15.528 1.596-.38 2.594-.33 2.714.936.702 7.368 7.308 8.162 12.075 10.771 4.098 2.243 8.329 3.872 10.194 8.79.642 1.692.974 4.814 4.045 4.191 2.277-.46 3.42-2.642 4.334-4.593 4.324-9.235 2.029-21.243-6.532-26.452-10.273-6.25-13.244-14.564-10.81-25.638.524-2.382-.132-4.639-2.111-5.658-2.806-1.444-2.238 2.026-3.456 2.996-2.248 1.792-5.528 2.55-5.624-.965-.262-9.55-5.19-5.417-9.4-2.973-1.47-5.11 1.256-8.526 2.284-12.284.924-3.379 1.107-6.337-1.264-9.574-4.022-5.49-14.764-1.396-15.472-11.156-.79.38-1.716.606-2.348 1.165-3.143 2.778-4.071.092-3.955-2.026.714-12.96-6.583-24.008-8.218-37.017m476.587-56.66c-2.481 2.81-1.942 4.65-1.586 6.356.547 2.615 2.05 5.494-1.34 7.11-2.686 1.282-4.637-.415-5.878-2.688-.86-1.574-.926-2.543-2.508-.237-4.95 7.214-6.186 2.296-6.993-2.48-.315-1.869-.406-3.936-2.62-3.967-2.617-.036-3.954 2.42-3.461 4.404 1.23 4.954-1.24 9.472-1.092 14.088.226 7.032-3.333 6.741-7.917 5.1-2.355-.843-5.13-2.372-6.086.734-2.891 9.391-7.937 4.887-12.29 2.011-4.284-2.83-5.64-1.88-6.221 2.93-.7 5.78-3.406 11.392.71 17.138 1.699 2.372.353 5.138-1.567 7.413-2.492 2.955-5.268 1.677-8.27 1.225-2.724-.41-4.708-4.819-7.033-2.756-8.92 7.915-24.574-1.549-31.01 12.245-.287.616-1.574 1.212-2.3 1.114-7.114-.964-16.63 1.456-20.602-4.324-4.092-5.954-10.074-10.896-12.06-18.89-1.963-7.91-3.428-17.472-13.327-20.743-3.047-1.007-6.548-.829-9.431-2.11-8.335-3.707-13.766-.715-14.648 8.635-.386 4.09-1.342 7.46-5.566 9.497-3.757 1.812-6.634 4.68-9.187 8.315-5.906 8.412-12.383 8.861-19.831 2.085-2.015-1.832-3.788-3.067-6.238-1.168-8.473 6.571-7.652 26.301.827 33.148 9.932 8.021 18.536 17.401 25.04 28.494 1.509 2.574 3.069 5.52 1.25 8.478-2.033 3.303-4.846-1.346-7.988.8 7.666 6.512 13.333 13.407 9.076 24.644-1.234 3.256 3.357 9.408 7.568 9.565 4.088.152 4.92-5.217 4.86-9.293-.035-2.406.248-4.915-.327-7.197-2.901-11.497.462-22.377 3.173-33.29.199-.804.035-4.299 3.986-2.435-2.088 3.512-.451 7.123-.062 10.876 1.582 15.286 6.448 30.113 3.523 46.064-2.127 11.6-6.643 24.661 5.185 34.798 1.554 1.332-1.076 2.081-1.788 3.138-4.554 6.757 1.042 25.407 8.518 28.6 1.113.474 2.628-.835 3.197 1.644 2.482 10.81 12.342 14.824 20.38 19.63 5.05 3.02 7.078 5.76 6.719 11.067-.206 3.048-.505 6.434 3.244 7.482 3.7 1.035 5.213-1.793 6.636-4.639 1.068-2.138 2.858-3.926 3.863-6.086 2.483-5.335.927-13.13 10.247-14.107 2.646-.277 1.71-4.305.696-7.072-2.377-6.483-2.467-12.708.558-19.487 2.202-4.934 7.149-9.909 5.233-15.558-2.384-7.025 2.037-10.645 4.617-15.4 4.079 8.704 7.973 17.026 11.88 25.341.777 1.653 4.338 2.25 2.279 4.917-2.415 3.131-4.195-.48-6.146-1.12-2.175-.714-5.99-2.988-5.9-.302.187 5.527-2.36 10.773-1.11 16.201.685 2.973 1.78 3.093 4.138.781 3.018-2.959 6.218-1.193 6.54 2.27.587 6.282 4.053 11.543 6.365 19.422-5.82-5.935-9.29-1.49-12.431.288-3.84 2.175.528 5.066.853 7.708.505 4.127 1.714 8.083 1.947 12.354.2 3.675 3.122 9.7 5.7 10.192 4.433.846 5.808-5.098 7.505-8.725.476-1.016-2.445-3.564.42-4.718 3.086-1.244 3.902.774 4.7 3.562.72 2.515 3.406 1.766 3.772-.18 1.834-9.785 4.428-19.11 13.372-26.719-4.524 2.164-6.884 2.951-6.526-2.395.148-2.198-.813-5.045-2.29-6.677-6.475-7.153-4.051-18.388-1.001-21.74 7.142-7.847 8.937-15.027 7.279-24.638-.52-3.007 1.142-6.36 1.64-9.579.308-1.987 1.3-3.555 3.132-3.869 2.072-.357 3.816 1.486 3.754 3.11-.35 9.175 6.643 15.972 7.68 24.618.402 3.341 3.09 5.054 5.406 5.998 2.28.93 3.063-2.063 3.916-3.96 8.828-19.666 15.834-39.97 21.285-60.806 1.14-4.356-.494-8.362-5.118-8.937-6.202-.772-6.428-5.277-7.347-9.484-.495-2.267.57-5.15-2.062-6.496-4.826-2.466-3.987-6.494-2.595-10.092 5.324-13.765 5.565-28.388 7.889-42.669.957-5.886-.133-9.443-6.414-10.324-4.58-.643-8.036-3.84-8.931-7.534-1.71-7.058 7.319-20.217 15.237-22.084 6.485-1.529 9.038-4.68 11.058-10.96 1.93-6.007 2.994-11.084.245-17.655M356.428 691.63c.09 5.846 2.997 10.11 6.773 14.046 2.033 2.12 4.819 4.795.597 7.291-7.608 4.498-1.733 10.113-2.206 15.251-.548 5.962 3.946 7.877 5.405 11.896.556 1.532 2.903-.177 3.232-1.518 2.489-10.155 8.618-19.067 6.826-30.78-1.298-8.483 1.849-17.645 3.014-26.502l2.28.226c-.277 10.234 2.606 20.162 2.962 30.164.286 8.02 7.624 15.352 2.17 23.885-.773 1.212.124 3.736 2.525 3.952 3.815.345 12.762-11.57 10.356-14.22-4.29-4.729-2.457-9.102-1.52-14.08 1.01-5.364.669-10.969 1.51-16.376.776-4.973-6.272-7.855-4.007-11.857 3.372-5.96 1.425-10.723-.536-16.033-.453-1.228-.454-3.554.305-4.153 7.145-5.64 6.702-15.992 13.747-21.685 1.59-1.286 2.913-4.505.274-5.22-6.533-1.768-6.523-4.727-3.181-9.489 1.226-1.746-.377-3.56-1.316-4.853-5.516-7.593-3.841-19.754 3.484-23.943 5.133-2.935 9.479-14.34 8.07-20.589-1.058-4.702.733-8.425 5.144-10.349 9.346-4.075 9.816-15.454 17.48-20.886.33-.234.197-1.81-.24-2.32-4.68-5.468-8.213-12.337-17.571-10.996-6.6.946-12.132-1.442-11.924-9.44.118-4.53-1.962-6.113-5.8-7.683-5.101-2.087-9.481-7.09-6.816-12.02 4.28-7.92 5.807-17.268 12.18-24.028 2.51-2.66 6.113-5.123 2.347-8.877-3.37-3.36-7.416-5.313-11.724-.708-2.471 2.641-5.94 8.008-8.853 4.497-2.693-3.244 2.68-6.793 5.959-9.255 1.443-1.083 2.668-2.574 4.255-3.324 9.989-4.723 11.263-14.994 8.977-22.429-2.524-8.207-.794-12.633 4.194-17.96 4.315-4.61 2.94-9.17-2.261-11.773-6.41-3.208-28.72 4.714-32.908 10.895-1.81 2.671-3.198 4.934-.853 8.053 2.088 2.778 3.452 7.276 1.537 9.282-5.337 5.592-5.11 11.402-3.97 18.201.27 1.608-.211 9.27-5.381 5.416-2.851-2.125-7.55-3.724-8.584-8.365-.605-2.715-3.627-3.594-4.776-1.924-4.115 5.98-8.927 8.181-16.478 8.97-4.401.458-5.421-1.945-8.044-2.773-3.191-1.007-6.28-2.579-7.11 3.075-1.16 7.892-11.04 8.273-14.301 14.917-.3.612-6.92-1.029-9.91 2.553-2.713 3.253-6.256 4.707-10.471 2.703-1.766-.84-3.511-1.433-4.523.814-.745 1.652-1.233 3.766 1.125 4.515 3.736 1.187 5.15 3.023 2.586 6.505-2.212 3.003-5.508 4.748-8.567 2.448-4.247-3.194-7.843-2.107-11.596.112-4.373 2.586-9.225 4.794-12.742 8.294-5.397 5.373-9.171 4.552-12.871-1.35-3.817-6.088-11.568-4.836-16.715-8.905-2.306-1.824-5.552 1.084-5.3 5.012.353 5.465-4.372 11.613-6.656 11.424-6.138-.51-7.11 3.606-8.861 6.782-1.664 3.02-7.246 6.665-2.855 9.661 2.47 1.686 8.593.252 12.273-2.727 1.139-.922 1.869-2.375 3.054-3.208 5.377-3.78 9.614-5.445 12.63 3.218 3.182 9.133 10.667 9.498 16.08 1.135 5.643-8.719 15.146-11.33 23.63-15.12 4.544-2.032 9.894.512 13.434 4.91 2.055 2.553 3.684 5.57 1.034 8.058-6.003 5.635-.968 9.115 2.466 11.99 5.274 4.416 4.085 8.38.116 12.122-3.731 3.52-8.212 6.694-13.755 5.43-5.101-1.165-9.047-.398-13.393 2.812-5.807 4.288-20.894 2.843-22.56-2.59-2.028-6.61-6.877-8.267-11.514-11.095-2.965-1.808-5.666-7.237-9.365-1.508-3.017 4.672-.643 10.293 2.655 12.766 6.069 4.552 9.875 10.096 13.52 16.514 5.627 9.901 13.019 18.72 22.08 25.761 6.449 5.014 14.376 22.563 11.077 28.941-3.041 5.878-3.878 11.163-1.546 17.177.79 2.037 1.13 4.315-1.44 5.31-2.286.881-4.172-.206-5.183-2.393-2.28-4.933-8.265-4.543-10.554-3.55-6.691 2.905-13.584 1.183-20.22 2.623-2.17.471-4.15.307-5.036 2.58-.834 2.14-1.023 3.817.366 6.461 4.744 9.041 8.798 18.484 12.5 28.011 1.693 4.354-.806 9.7 2.347 13.995.924 1.26 1.188 3.33 3.828 1.533 4.408-2.999 5.066-2.776 5.304 2.082.312 6.42 3.64 12.296 1.865 20.041 7.018-4.297 9.146-8.496 5.38-14.684-1.6-2.628-1.698-5.296 1.6-6.76 4.46-1.98 3.69 2.416 4.92 4.293 2.376 3.621 1.964 8.47.735 11.352-3.265 7.663 3.863 9.35 6.818 11.904 3.217 2.78 5.224-4.379 7.14-4.774 5.724-1.18 4.49-6.669 7.506-9.198 1.527-1.279 3.678-3.104 1.855-5.286-1.738-2.079-3.09 2.44-5.316.93 1.687-5.657 8.487-8.683 7.893-15.464-1.273-14.565 3.682-28.832.869-45.748 5 5.427 7.525 4.557 11.094 1.081 4.87-4.746 3.55-9.453.812-13.429-2.727-3.96-2.326-5.163 1.316-8.15 3.708-3.042 9.979-5.995 9.105-11.52-2.142-13.544 5.685-23.4 10.898-34.545.447.522 1.197 1.06 1.11 1.347-5.232 17.333-2.451 34.203 2.107 51.218 1.652 6.17 6.258 12.811 2.862 19.06-3.261 6 .389 8.178 3.28 11.7 1.337 1.628 4.976 1.35 4.253 4.845-3.392 1.94-5.71-3.575-10.352-.434 5.49 4.694 10.038 10.52 17.068 11.151 3.265.293 2.854 1.144 3.424 3.03.723 2.395.504 4.482-2.102 4.9-3.626.582-7.394-.084-10.56 2.762-1.355 1.22-3.716-4.853-5.313.058-1.073 3.3 1.579 4.721 3.994 6.186 6.07 3.682-.22 7.965.416 11.983.44 2.787-1.498 3.865-4.008 3.053-3.825-1.238-6.84-.289-7.947 3.483-.481 1.64.37 4.437 1.634 5.67 3.497 3.411 4.716-1.876 7.293-2.504 1.363-.333 2.638-1.932 3.819-.054 1.444 2.295-.38 3.131-2.098 3.786-4.202 1.6-4.641 4.292-.86 6.274 7.242 3.797 6.982 9.546 4.39 16.39 6.319-3.914 12.5-6.845 9.699-15.493-.146-.452-.913-9.055 5.805-9.125.423-.004 1.262-2.002 1.167-3.003-.726-7.694 3.693-14.248 4.714-21.74M674.33 421.54c-.964 13.486 2.997 16.112 16.954 14.785 4.753-.452 12.169-10.166 15.818 1.986.35 1.164 2.28.62 3.223-.266 4.098-3.855 5.733-.106 7.978 2.37 2.046 2.258 3.956 4.9 7.576 4.802 5.772-.156 8.863 3.256 11.484 7.955 4.58 8.211 11.477 9.626 18.775 3.935 4.083-3.184 6.66-5.045 7.499 2.424.616 5.484 2.78 9.757 8.445 2.811 2.097-2.57 5.434-5.927 8.717-3.84 6.285 3.996 8.656 2.01 11.169-4.138 2.069-5.059 12.622-7.628 16.186-4.353 5.077 4.666 5.69 10.057.679 15.455-.84.905-1.51 1.967-2.267 2.948-2.514 3.253-5.552 7.358-2.743 10.773 2.586 3.146 7.42 4.247 11.993 2.273 2.807-1.212 6.472-1.469 8.417-3.456 6.054-6.184 8.386-2.51 8.432 3.29.049 5.975 3.037 8.63 7.865 9.815 5.774 1.418 11.005 3.67 16.118 6.717 5.829 3.473 9.065 1.277 9.679-5.444.62-6.81-.388-12.704-6.24-17.303-2.613-2.055-4.898-5.209-2.505-8.927 2.163-3.36 5.066-1.734 8.229-1.313 6.9.918 14.508 3.086 20.283-2.83 2.698-2.765 4.466-2.654 8.275-2.374 7.489.552 13.429-5.218 19.378-9.394 2.497-1.752-.22-3.656-1.578-5.282-4.662-5.58-12.223-7.764-16.3-15.948-.078 8.232-.072 8.273-7.443 9.38-2.26.34-2.597 2.001-3.485 3.68-3.208 6.068-7.195 7.804-11.317.808-1.33-2.257-3.094-1.546-4.744-1.58-3.902-.083-6.201-2.37-8.174-5.325-7.357-11.022-3.29-26.479 9.586-32.896 7.823-3.9 7.845-7.622 3.037-13.954-4.032-5.309-7.183-4.206-11.495-.647-5.108 4.217-10.16 3.73-14.203-1.845-4.513-6.225 1.445-7.778 4.79-10.487 3.454-2.797 8.716-2.795 11.61-7.05-4.992-4.833-9.46-9.49-9.573-16.7-.137-8.894 7.284-9.374 12.835-12.32 3.17-1.683 7.336-5.584 3.178-8.685-4.97-3.707-13.477-8.809-17.175-6.919-10.181 5.206-18.238 8.364-25.981-2.66-10.045 2.293-16.711-5.067-26.96-9.037 12.544-1.71 13.278-13.087 20.4-18.349 1.818-1.343 1.267-3.318-.95-4.336-6.525-2.998-6.235-7.463-4.573-13.8 2.007-7.657 7.164-6.308 12.265-6.55 2.372-.112 6.104.337 5.453-3.094-.953-5.023-6.565-6.25-10.143-8.974-4.353-3.314-3.773 2.506-4.994 4.088-3.922 5.083-7.942 5.716-13.567 2.772-10.327-5.405-19.654-11.686-25.492-22.21-2.561-4.62-5.502-8.989-11.985-8.527-13.75.98-27.395-1.156-39.423 10.427-7.87 7.58-11.565 15.778-2.938 23.784 4.364 4.051 8.565 8.09 11.28 13.43 5.16 10.138 3.934 19.775-3.162 25.393-9.435 7.47-22.604 7.812-32.826 1.036-5.386-3.57-10.954-6.863-16.431-10.295-3.857-2.418-6.9-4.706-4.425-10.374 1.689-3.867 1.49-8.374-2.188-12.029-10.922-10.848-17.274-23.262-12.565-39.185.23-.774-.256-1.774-.46-2.658-4.062-17.657-28.298-28.347-43.835-19.365-5.102 2.951-10.142 6.037-15.403 8.68-22.094 11.096-45.288 8.931-68.492 5.116-6.834-1.123-13.596-1.2-20.445-1.063-2.932.06-5.95 1.218-4.39 3.964 3.427 6.03 3.444 13.261 5.93 18.656 3.4 7.381 2.799 9.64-4.866 11.371 2.696 3.117 6.52 5.103 4.243 9.01-2.443 4.193-7.113 4.54-10.775 3.265-7.964-2.772-13.56.317-19.26 5.253-3.85 3.331-8.387 5.935-13.796 3.704-.227-2.843 1.76-2.963 2.913-3.757 10.276-7.077 10.317-7.075 4.02-17.789-.966-1.646-2.525-3.602-1.477-5.11 5.305-7.64-1.746-12.745-3.926-18.55-2.365-6.298-18.442-10.115-22.726-5.626-4.587 4.806-7.956 11.132-15.481 4.146-.17-.158-2.115.981-2.581 1.86-1.89 3.55-4.908 3.1-8.092 2.801-3.395-.319-7.383-1.196-9.945 1.235-10.233 9.714-22.722 9.782-35.637 9.854-5.475.03-12.236 1.094-10.972 9.98.38 2.666-1.458 4.846-4.075 5.607-7.46 2.171-10.758 7.791-12.753 14.643-1.903 6.542-5.044 11.37-13.13 9.348-1.857-.465-3.938-.534-4.795 1.63-5.036 12.72-15.83 7.33-24.166 6.773-7.128-.476-11.718-11.295-8.746-18.24 1.459-3.412.342-5.508-1.931-7.2-2.991-2.227-4.834-.292-6.77 2.262-11.463 15.132-29.708 24.724-33.814 46.294-1.076 5.656-8.69 12.687-12.184 19.822-1.1 2.243-5.118 4.7-1.597 6.97 3.075 1.982 6.399-.114 8.377-3.446a514 514 0 0 1 8.243-13.45c.809-1.272 1.96-2.803 3.72-1.969 1.712.811 1.446 2.563.738 3.997-1.322 2.681-5.983 5.921-.017 7.75 4.03 1.233 9.703 2.62 12.043-3.347 2.05-5.227 3.252-5.84 5.765-.243 3.025 6.74 7.137 7.858 13.853 3.278 9.637-6.572 17.518-14.592 24.408-23.797 1.17-1.563 1.793-4.614 4.633-1.79 2.198 2.185.919 3.93-.911 5.401-1.433 1.151-3.293 1.848-4.527 3.156-3.46 3.667-9.756 8.897-6.656 12.37 3.293 3.688 9.729-.834 13.003-5.04 3.348-4.3 6.319-2.99 9.252-.252 3.866 3.61 6.485 7.473 2.02 12.813-3.431 4.105-5.084 11.406-.634 13.216 10.127 4.121 8.76 12.693 10.617 20.053 2.097 8.306 11.627 15.885 20.297 15.405 1.895-.105 4 .045 4.525-2.264 1.24-5.452 5.93-5.595 9.946-6.452 5.802-1.238 8.332-3.766 5.326-9.739-1.158-2.3-1.463-4.652 1.372-6.458 4.638-2.956 2.579-4.143-1.292-5.763-3.026-1.267-8.812-.677-7.871-6.004.78-4.428 6.1-3.414 9.296-4.07 7.54-1.554 8.732-5.435 6.544-12.026-1.6-4.82-5.248-5.164-9.366-5.934-4.424-.828-7.755-3.552-9.067-8.308-.656-2.38.538-3.675 2.208-4.363 5.537-2.28 13.007-3.092 7.92-12.239-.19-.34.72-1.548 1.358-2.046 7.895-6.168 30.66-1.583 34.277 7.677 2.654 6.797 6.886 8.588 13.335 8.938 12.124.658 13.844 3.424 10.26 15.184-2.37 7.782.764 16.06 8.152 18.146 9.323 2.633 8.265 7.426 4.309 13.645-2.013 3.165-5.21 7.22-2.824 10.167 6.172 7.625 6.464 19.073 16.433 24.78 4.29-7.22.96-15.38 3.776-22.64 1.676-4.326 7.95-6.519 5.535-12.745-4.413-11.376 3.649-19.219 7.952-29.855 10.676 18.064 28.886 27.445 37.11 45.232.129.278.239.58.427.813 3.309 4.105 8.916 4.491 12.35 3.287 19.386-6.794 38.824-7.002 58.469-2.294 6.019 1.442 10.393 1.321 13.276-5.168 3.159-7.115 12.882-9.639 13.6-18.73.065-.813 1.448-2.454 2.49-.536 2.76 5.08 4.629.425 5.339-.926 4.158-7.916 8.813-15.289 16.785-20.04.44 4.568-.763 10.36 1.592 13.45 12.25 16.071 10.814 37.241 21.009 53.941.406.666-.364 3.021-.954 3.174-7.92 2.055-4.886 7.46-3.928 12.3 2.554-.154 2.524-4.544 5.76-3.567M492.274 556.425c.119-3.577 4.904-5.134 3.437-9.862-1.474-4.749-6.564-2.204-8.221-4.567-.294-4.019 7.725-2.684 3.945-4.85-3.288-1.886-2.45-9.97-8.878-6.438-4.666 2.564-8.704 15.087-6.428 19.742 3.57 7.307 8.875 9.786 16.433 5.68-2.287 7.028 4.526 17.622 11.95 18.29 5.11.46 10.544.561 14.224 4.408 4.81 5.03 10.299 8.803 18.133 13.483-4.365-8.858-5.97-16.177-6.822-23.774-.414-3.687-1.761-8.438-7.636-4.49-2.493 1.675-3.81-.506-4.963-2.305-6.981-10.895-15.826-12.768-25.174-5.317m-8.85-93.032c3.115 5.943-3.146 8.77-5.73 13.73 9.703-3.548 15.28-9.023 16.987-16.265l-11.598 2.871c-.903-3.164 3.4-4.16 3.039-7.313-5.056-1.29-8.957 2.834-13.676 3.195.578-15.248 15.752-4.224 20.15-10.28.195-5.417-10.067 2.336-5.697-6.738.046-.094-1.696-1.39-1.925-1.219-5.578 4.157-13.955 7.394-15.957 12.917-4.031 11.121-6.578 22.59-14.834 31.688-.7.77-1.194 2.853-.721 3.386 6.36 7.164-.862 11.69-3.11 17.202-1.04 2.554-3.797 4.873-1.402 8.78 6.537-8.626 10.454-18.564 18.007-25.964 7.499-7.346 8.898-18.634 16.467-25.99m61.062-63.509c-2.371 1.611-4.788-2.375-6.752-.942-1.137 3.156 2.972 4.044 1.073 6.597-7.712-2.146-7.468-11.822-14.252-15.132 1.333 11.316 7.098 18.743 16.557 24.647 3.352 2.092 6.026-7.762 7.632.656.794 4.164 2.089 8.601 4.457 12.016 4.096 5.91 5.64 13.871 13.2 18.307-.995-11.226-1.907-10.532-9.75-20.8-5.338-6.989-7.678-16.259-11.36-24.509 2.867-.249 4.49 1.384 5.87 3.632 2.23 3.632 3.37-2.8 5.698-.7.596.538 1.918-.382 1.59-1.348-1.294-3.819-5.123-5.392-8.07-7.055-3.483-1.966-5.474 1.043-5.893 4.631M130.16 760.904c1.546-1.32 5.194.142 5-2.954-.157-2.52-2.853-1.508-4.56-1.525-4.224-.04-8.45-.012-12.788-1.019 9.036-4.972 18.784-6.878 28.696-8.377.855-4.422-5.425-2.25-5.283-7.148 12.059 1.06 21.739-6.01 32.52-9.882.509-.182.98-.464 1.466-.706 2.508-1.245-2.638-7.65 3.662-5.877 2.886.813 2.03 4.81 2.844 7.364.793 2.49 2.509 3.525 4.93 3.221 2.629-.329 3.394-2.218 3.522-4.662.236-4.543-1.097-9.397 2.584-13.606 1.564 3.718 3.183 7.223 2.71 11.222-1.032 8.752 4.304 8.306 9.904 6.538 6.525-2.062 16.232-14.449 14.39-20.758-1.345-4.614 1.144-6.6 1.874-9.818 1.606-7.077.572-13.167-3.744-19.877-18.42-28.64-28.826-60.539-35.166-93.776-4.928-25.832-7.934-51.866-7.56-78.265.857-60.51 16.663-116.84 47.558-168.786 42.193-70.943 102.77-121.274 176.915-156.468 36.779-17.458 75.284-29.429 115.383-34.767 36.505-4.86 73.279-4.422 110.082.993 75.97 11.177 142.534 42.274 201.709 90.511 43.466 35.432 80.277 76.256 105.986 126.432 15.549 30.345 24.727 62.69 28.41 96.408 7.117 65.114-.741 128.64-22.364 190.464-2.551 7.292-5.608 14.406-8.162 21.696-2.301 6.568-2.751 13.247.205 19.824.127.283.348.577.338.86-.38 10.823 2.425 21.002 4.598 31.462 1.11 5.35-1.061 12.585 1.757 18.937 1.467 3.306 3.52 4.498 7.154 4.295 7.768-.434 15.544-.249 23.147 1.8 3.172.855 9.754.192 9.202 1.117-2.812 4.701 2.573 9.26-.162 12.821-3.865 5.035-1.345 7.656 2.39 10.546 4.315 3.34 2.558 5.558-1.506 7.202-1.15.466-2.521.577-3.49 1.272-3.652 2.622-10.228 5.56-10.107 8.115.234 4.925 6.826 4.856 11.7 6.29-3.942 6.358-6.064 13.301-10.345 19.387-2.582 3.671-3.631 4.787-7.628 1.944-5.575-3.966-11.64-7.813-17.21.65-1.392 2.116-4.4 2.39-6.863 1.574-11.237-3.727-18.348 1.474-18.175 13.712.026 1.867 1.01 4.424-1.365 4.38-11.572-.213-20.124 10.456-32.714 7.788-14.818-3.143-28.978 2.95-42.404 7.953-4.957 1.847-15.172 2.962-14.113 13.625.37 3.732-3.633 2.935-5.7 2.307-12.301-3.737-20.825 2.182-28.005 10.91-4.35 5.288-11.9 5.437-16.105 5.49-8.942.107-18.653-.832-27.515-4.612-3.125-1.333-7.431-2.278-10.042 1.702-3.487 5.312-8.242 6.893-14.366 6.047-1.616-.222-4.218.584-5.054 1.811-5.592 8.202-14.392 7.602-22.501 8.235-7.822.611-12.404 6.485-18.34 10.057-3.458 2.081 2.76 4.257 1.243 7.08-4.015 7.46-3.498 17.146-11.263 22.776-1.826 1.326-1.708 5.487-4.99 4.364-2.861-.98-1.022-4.499-2.126-6.623-1.976 3.674-3.785 7.445-5.976 10.98-1.864 3.006-3.918 5.002-8.362 3.23-5.903-2.358-9.662.214-9.764 6.878-.057 3.764-.725 6.895-5.107 3.501-3.493-2.705-6.51.261-9.76-.04-1.968-.183-3.316 1.574-3.705 3.551-.496 2.517 1.607 2.775 3.224 3.66 2.439 1.337 4.695 3.021 6.964 4.646 2.994 2.143 4.189 4.202.749 7.388-4.708 4.362-5.541 13.774-15.851 10.558-2.568-.8-2.298 2.544-.9 4.69 2.873 4.406-30.284 11.044-34.836 9.836-9.194-2.44-21.305-12.979-27.953-19.067-2.917-2.67-4.244-7.163.379-11.447 4.033-3.736-.845-9.099.198-14.062.56-2.663-3.93-.997-6.01-.246-20.395 7.362-43.927-5.443-48.484-26.527-.378-1.752-.973-4.524-.101-5.31 7.593-6.839 1.762-11.08-2.605-15.82-3.942-4.279-8.222-12.218-8.89 1.602-.16 3.316-2.894 4.246-5.414 3.202-3.805-1.575-10.358-2.776-9.071-7.562 2.006-7.452-3.24-11.282-6.715-13.605-17.205-11.5-35.722-20.124-57.408-16.666-10.795 1.72-20.725-2.869-31.111-4.062-16.557-1.899-32.987-5.153-49.672-6.4-4.991-.374-4.316-1.304-7.806-7.064-1.931-3.186-7.602-5.619-11.666-5.738-13.36-.394-26.005-5.107-39.47-5.508-4.932-.146-9.634-8.025-14.442-12.377 4.068-2.519 8.1-5.102 12.32-7.336.175-.092 2.504 1.183 3.974.52 2.805-1.266 7.743 1.127 8.398-2.952.539-3.35-2.93-5.887-6.47-6.795-2.593-.665-4.35-3.869-5.724-3.997-4.394-.407-6.324-12.826-12.631-2.78-9.83-4.335-20.551.777-30.441-2.87-.533-.198-1.231-.415-1.481-.84-10.204-17.347-14.321-19.857-34.55-20.35 3.62-2.34 6.69-4.838 1.322-7.297-2.492-1.14-5.33-2.269-7.976-2.19-7.181.21-11.636-1.307-9.793-9.976.998-4.694-1.628-5.824-6.36-6.57-5.064-.8-13.58 6.012-15.014-5.285-6.218.86-11.404-1.479-16.172-5.18"/></g></svg>