<svg xmlns="http://www.w3.org/2000/svg" xmlns:xlink="http://www.w3.org/1999/xlink" xmlns:inkscape="http://www.inkscape.org/namespaces/inkscape" version="1.1" width="1984.25" height="1984.25" viewBox="0 0 1984.25 1984.25">
<defs>
<clipPath id="clip_1">
<path transform="matrix(1,0,0,-1,0,1984.25)" d="M0 1984.252H1984.252V0H0Z"/>
</clipPath>
</defs>
<g inkscape:groupmode="layer" inkscape:label="Layer 1">
<g clip-path="url(#clip_1)">
<path transform="matrix(1,0,0,-1,1314.8447,1175.75)" d="M0 0C-.34-7.073-5.787-12.852-12.832-13.756-29.247-15.88-61.187-18.744-89.729-14.008-95.163-13.103-99.075-8.279-98.949-2.776L-98.786 4.912C-98.697 9.158-97.125 13.204-94.547 16.596-90.534 21.872-86.823 33.869-101.126 58.241-101.126 58.241-118.674 78.694-110.85 92.161-109.025 95.302-104.849 96.156-101.881 94.046-93.075 87.776-72.155 73.971-53.072 69.511-46.041 67.877-39.399 64.912-33.574 60.666-19.523 50.44 1.458 30.025 0 0M-140.121-20.615C-140.121-23.769-141.971-26.621-144.839-27.915-155.279-32.626-172.35-41.797-176.777-44.184-177.57-44.623-178.413-44.925-179.294-45.126-196.93-48.97-243.297-45.893-255.424-45-257.272-44.862-259.034-44.184-260.48-43.016-278.191-28.605-304.91-15.478-304.91-15.478-326.295-6.281-375.354 7.99-375.354 7.99-385.417 11.759-380.386 20.553-380.386 20.553L-354.913 55.201C-352.661 58.254-351.454 61.947-351.454 65.729V165.026C-350.687 182.526-346.698 195.416-343.654 202.865-341.831 207.338-337.465 210.252-332.623 210.252H-308.986C-306.671 210.252-304.646 211.823-304.055 214.059-299.539 230.994-289.664 230.705-285.475 229.725-284.293 229.448-283.299 228.657-282.708 227.602-275.361 214.624-265.738 207.312-261.109 204.323-259.373 203.217-258.203 201.458-257.776 199.448-253.838 180.616-241.222 165.805-236.378 160.68-235.146 159.373-234.466 157.664-234.466 155.867V123.568C-233.371 113.682-218.251 88.982-214.49 82.965-213.949 82.086-213.686 81.056-213.735 80.025L-214.126 72.438C-214.251 69.988-212.893 67.688-210.653 66.658-173.695 49.586-147.178 18.58-141.329 11.369-140.549 10.39-140.121 9.184-140.121 7.939ZM-401.771 67.035-420.753 26.885C-422.099 24.033-425.433 22.714-428.364 23.869-438.402 27.827-460.34 36.369-470.479 39.522-473.032 40.314-474.806 42.613-474.919 45.276L-475.926 70.478C-475.963 71.521-475.75 72.551-475.284 73.468L-463.347 97.313C-462.566 98.883-462.189 100.616-462.239 102.362L-463.333 133.945C-463.384 135.365-462.957 136.76-462.139 137.915L-458.503 142.979C-457.61 144.234-457.17 145.768-457.258 147.312L-458.377 166.282C-458.377 166.282-446.842 189.323-438.138 201.936-436.376 204.486-433.747 206.295-430.753 207.086-425.986 208.343-418.753 208.883-413.381 203.091-410.752 200.265-409.331 196.521-409.029 192.677L-400.513 80.854C-400.513 80.854-399.255 70.805-401.771 67.035M506.06-390.253C399.135-348.796 340.407-294.775 340.407-294.775 336.634-243.268 311.476-233.217 287.574-229.448 263.674-225.68 227.194-215.629 223.42-191.76 219.646-167.891 222.162-127.689 180.65-121.407 139.139-115.126 117.754-71.156 117.754-71.156 95.111-27.186 43.536-22.161 43.536-22.161V13.016C29.699 31.859 42.278 77.086 42.278 77.086 10.83 94.674-3.007 132.362-3.007 132.362-21.876 162.514-13.07 187.639-13.07 187.639H-5.522L2.024 171.308H18.378L19.636 152.463C20.894 148.694 42.278 128.594 42.278 128.594 51.084 142.413 67.437 116.03 67.437 116.03 82.532 146.182 96.369 108.493 96.369 108.493 112.723 134.875 127.704 105.98 127.704 105.98 137.642 126.081 152.977 105.98 152.977 105.98 163.04 129.85 184.425 109.749 184.425 109.749 189.456 105.98 193.229 108.493 193.229 108.493 189.456 129.85 208.325 126.081 208.325 126.081 213.356 141.156 228.452 134.875 228.452 134.875 230.968 137.388 256.126 160.88 256.126 160.88 264.932 172.563 256.126 170.051 256.126 170.051 197.004 161.257 136.623 178.845 136.623 178.845 81.274 205.227 41.021 278.092 41.021 278.092 13.346 324.574-57.098 363.52-57.098 363.52-87.288 392.414-123.769 410.002-123.769 410.002-226.919 398.695-273.462 452.716-273.462 452.716-301.137 482.867-342.648 496.686-342.648 496.686L-411.834 553.407V565.782C-421.897 574.576-442.024 597.189-442.024 597.189-445.798 604.727-443.282 619.802-443.282 619.802-429.445 618.546-424.414 627.34-424.414 627.34L-462.151 670.053C-462.151 721.561-520.645 753.597-520.645 753.597-514.355 772.441-563.415 830.23-563.415 830.23-566.56 833.371-572.95 830.23-572.95 830.23-576.812 828.346-587.944 815.783-587.944 815.783-590.46 812.014-586.687 805.732-586.687 805.732V780.607C-596.75 773.069-603.04 788.145-603.04 788.145-609.329 796.938-613.103 786.888-613.103 786.888L-611.845 763.019-601.782 752.968-604.297 618.546-616.876 612.264V594.676C-640.777 588.395-623.167 577.088-623.167 577.088-642.035 563.269-616.876 555.731-616.876 555.731L-615.619 549.45-637.003 528.093-626.94 523.068-628.198 515.53-616.876 506.736-618.135 500.455C-639.52 490.404-616.876 482.867-616.876 482.867-652.099 453.972-616.876 450.203-616.876 450.203-648.325 426.333-614.361 422.565-614.361 422.565-640.777 404.977-605.555 403.721-605.555 403.721-630.714 379.851-598.008 384.876-598.008 384.876V368.544L-580.396 358.494-581.655 332.112-537.627 299.449V273.066L-502.405 214.021-501.147 85.88-512.469 56.985-559.012 67.035-610.587 55.729-678.515 7.99-738.896-.804-787.955-53.568-805.566-100.051-859.657-149.046-1026.962-245.78-1058.41-328.695C-1094.89-333.72-1186.719-378.946-1186.719-378.946L-1132.628-404.072-1058.41-376.434-1038.283-396.534C-1029.478-388.997-990.482-370.152-990.482-370.152-956.518-348.796-916.264-350.052-916.264-350.052-850.852-280.956-831.982-230.704-831.982-230.704L-769.086-210.604-728.833-236.986-692.353-214.373-683.547-258.343-639.52-195.528C-638.262-193.016-635.746-193.016-635.746-193.016-634.488-193.016-592.976-224.423-592.976-224.423-587.944-220.654-575.365-215.629-575.365-215.629-569.075-220.654-536.369-273.418-536.369-273.418-530.08-284.725-514.984-299.801-514.984-299.801-504.921-308.595-472.215-322.413-472.215-322.413-462.151-326.183-459.635-333.72-459.635-333.72L-443.282-388.997-294.847-391.51C-289.815-390.253-291.073-383.972-291.073-383.972-294.847-363.871-317.489-347.539-317.489-347.539-374.096-314.876-405.544-269.649-405.544-269.649-410.576-257.087-399.255-259.6-399.255-259.6-365.291-267.137-351.454-274.675-351.454-274.675-343.906-278.443-238.24-361.358-238.24-361.358-229.435-361.358-233.208-350.052-233.208-350.052-238.24-333.72-291.073-287.237-291.073-287.237-301.137-255.83-282.268-250.806-282.268-250.806-258.367-284.725-192.954-309.851-192.954-309.851-186.917-310.604-186.312-308.192-186.791-306.145-187.117-304.763-187.948-303.544-189.004-302.602L-231.687-264.712C-232.692-263.82-233.221-262.514-233.12-261.182-232.441-251.936-227.535-244.097-223.773-239.348-221.521-236.496-217.396-236.031-214.553-238.28L-165.28-277.187C-158.99-279.7-160.248-273.418-160.248-273.418-161.33-261.471-200.993-179.071-211.697-156.985-212.792-154.725-210.867-152.161-208.376-152.589L-185.407-156.584-175.607-120.704C-175.067-118.706-172.337-118.393-171.368-120.227L-82.257-287.237C-77.225-291.007-75.967-284.725-75.967-284.725-88.546-228.192-73.451-190.503-73.451-190.503L-53.324-206.835-60.872-160.353-41.449-131.771C-39.273-128.556-34.556-128.48-32.267-131.608L-13.07-157.84-9.297-180.453-.491-234.474 23.409-282.212C27.184-285.981 32.215-282.212 32.215-282.212L30.957-204.322 49.989-169.461C51.512-166.685 55.549-166.747 56.972-169.586L78.759-213.116 80.017-288.494 129.075-269.649C145.429-259.6 149.202-263.368 149.202-263.368 155.492-274.675 139.139-296.031 139.139-296.031L95.111-342.514 159.266-386.484 200.777-345.026 238.516-337.489 283.801-400.304 310.218-377.69C346.697-404.072 417.142-414.122 417.142-414.122L489.706-464.374 541.281-426.686C533.733-401.56 506.06-390.253 506.06-390.253"/>
</g>
</g>
</svg>
