<svg xmlns="http://www.w3.org/2000/svg" xmlns:xlink="http://www.w3.org/1999/xlink" xmlns:inkscape="http://www.inkscape.org/namespaces/inkscape" version="1.1" width="1133.86" height="1133.86" viewBox="0 0 1133.86 1133.86">
<defs>
<clipPath id="clip_1">
<path transform="matrix(1,0,0,-1,0,1133.86)" d="M0 1133.858H1133.858V0H0Z"/>
</clipPath>
</defs>
<g inkscape:groupmode="layer" inkscape:label="Layer 1">
<g clip-path="url(#clip_1)">
<path transform="matrix(1,0,0,-1,619.7256,483.79127)" d="M0 0C-2.28 .756-4.819 .613-4.772-2.131-4.734-4.378-2.126-5.15 .244-5.011 5.337-4.712 7.672-1.211 9.383 2.908 9.877 4.096 9.529 5.521 8.215 5.987 6.882 6.46 5.918 5.772 5.761 4.204 5.412 .71 4.381-1.934 0 0M-93.094 7.247C-93.657 7.028-94.349 6.948-94.759 6.565-96.203 5.218-95.562 3.715-94.696 2.434-92.476-.856-90.702-4.729-85.655-4.461-83.286-4.336-81.28-3.849-80.63-1.298-80.001 1.172-81.111 2.508-83.508 1.374-87.354-.447-89.487 .754-90.116 4.648-90.435 6.621-91.329 7.248-93.094 7.247M-37.886 31.255C-37.294 30.737-36.702 30.218-36.109 29.7-31.846 34.69-27.537 39.644-23.375 44.718-22.868 45.335-23.419 47.488-23.476 47.375-25.926 42.53-28.827 50.972-29.812 47.536-31.521 41.576-35.036 36.603-37.886 31.255M-338.283-284.014C-348.081-284.934-358.601-282.626-369.557-289.333-357.192-290.941-348.091-285.477-338.283-284.014M78.063-55.717C79.446-48.438 75.037-43.298 72.151-37.718 71.738-36.921 70.156-36.478 69.072-36.386 68.56-36.342 67.426-38.044 67.448-38.067 73.979-44.479 63.097-41.521 63.935-45.579 69.199-47.471 71.684-53.95 78.063-55.717M-19.504-355.542C-12.898-352.817-.394-327.772-1.435-320.833-10.086-331.196-12.346-343.623-19.504-355.542M28.055 19.706C24.738 27.331 16.326 27.757 12.166 32.994 15.636 36.791 17.852 28.538 21.084 32.565 20.567 34.293 19.046 34.704 17.767 35.524 14.218 37.8 10.609 38.56 8.044 34.674 5.471 30.777 8.884 28.449 11.483 26.298 16.052 22.518 21.224 20.169 28.055 19.706M-23.227-376.085C-27.91-376.065-33.152-379.189-37.41-374.253-39.036-372.368-41.797-374.527-41.98-375.46-42.73-379.266-40.447-383.276-42.451-387.138-38.28-384.78-36.264-389.879-32.865-389.851-31.977-389.843-30.817-388.635-30.288-387.695-29.616-386.498-30.25-385.303-31.539-384.733-33.098-384.044-35.359-384.04-34.447-381.06-30.524-380.1-24.509-383.744-23.227-376.085M-149.769-17.677C-155.24-22.962-163.172-25.27-166.72-32.595-168.017-35.273-171.062-38.351-168.035-40.826-164.586-43.646-162.79-39.484-160.685-37.441-155.064-31.986-152.738-24.727-149.769-17.677M-58.128 30.223C-58.96 30.189-59.791 30.155-60.622 30.121-59.422 20.739-62.342 11.802-62.03 2.542-61.983 1.169-61.062-.389-60.102-1.47-58.203-3.609-55.813-5.301-52.831-3.597-49.619-1.763-50.166 .914-51.88 3.496-55.233 8.546-56.527 13.917-56.053 20.069-55.798 23.381-57.377 26.833-58.128 30.223M120.839-331.734C122.889-336.401 122.331-342.146 128.315-345.174 135.728-324.378 135.835-350.837 141.12-346.695 142.263-344.283 143.565-341.559 144.845-338.825 147.29-333.6 144.436-331.275 139.966-332.361 133.538-333.923 127.605-330.851 120.839-331.734M297.055-224.836C296.821-221.659 297.692-218.881 294.766-217.58 294.328-217.384 293.021-218.189 292.698-218.826 288.491-227.148 282.996-235.223 287.335-245.308 288.702-248.487 291.187-249.905 294.397-250.23 296.428-250.436 297.475-248.74 296.842-247.317 293.354-239.473 295.449-231.771 297.055-224.836M-24.153 28.661-26.749 28.66C-27.219 27.938-28.137 27.187-28.091 26.5-27.474 17.301-27.324 8.299-33.551 .459-35.147-1.551-33.985-3.736-31.768-4.893-29.746-5.949-28.005-8.331-25.202-6.545-22.032-4.525-21.006-1.286-20.632 2.067-19.6 11.315-26.516 19.11-24.153 28.661M25.988 12.703C25.937 13.561 25.884 14.418 25.832 15.276 18.76 16.123 11.643 17.93 4.625 17.602-7.383 17.042-9.954 5.948-14.814-2.225-15.833-3.938-18.633-7.001-15.199-8.568-11.335-10.331-11.049-5.943-9.811-3.824-8.432-1.463-7.755 1.294-6.54 3.765-2.764 11.448 2.51 15.202 11.333 10.971 16.562 8.463 21.185 11.615 25.988 12.703M-308.856-201.443C-310.657-204.829-312.645-208.129-314.22-211.616-317.809-219.562-321.402-227.519-324.579-235.633-326.241-239.88-322.94-242.969-319.852-244.396-318-245.251-314.236-243.719-313.95-240.185-313.405-233.467-319.895-241.393-320.721-237.062-306.015-228.88-310.901-214.023-308.856-201.443M153.862-285.758C159.984-275.23 158.663-255.332 151.826-249.118 142.141-263.44 142.492-271.443 153.862-285.758M75.433 16.696C74.579 13.592 76.859 12.831 77.622 11.292 78.554 9.414 79.98 6.957 80.02 5.624 80.127 1.89 81.995-2.44 80.843-5.243 78.654-10.564 78.323-17.562 81.888-21.37 84.648-24.319 87.808-23.561 90.263-22.149 92.656-20.773 92.06-17.425 90.588-15.555 87.767-11.967 87.836-8.865 89.246-4.541 91.536 2.478 86.429 8.284 83.939 14.357 82.304 18.346 78.045 14.438 75.433 16.696M-111.556 10.25C-105.714 15.821-99.78 10.865-93.795 11.351-87.913 11.829-81.006 10.306-77.021 3.738-74.658-.158-73.999-8.899-69.079-6.618-64.441-4.467-70.857 2.418-70.996 7.437-71.004 7.743-71.062 8.063-71.17 8.35-73.841 15.454-87.861 24.16-91.394 19.825-96.606 13.431-101.4 17.625-106.103 16.337-108.375 15.714-110.899 14.772-111.556 10.25M23.862-327.464C24.772-331.896 22.867-336.818 27.301-337.41 31.788-338.009 32.993-333.386 33.512-329.709 35.027-318.962 36.42-308.194 37.542-297.401 37.789-295.018 41.255-291.431 37.242-290.248 33.395-289.113 30.578-293.192 30.492-296.287 30.178-307.529 26.252-317.957 23.862-327.464M216.387-256.518C212.961-257.532 215.278-265.581 208.801-262.058 207.076-261.121 205.621-258.526 203.311-260.839 201.672-262.481 201.322-264.668 201.844-266.917 202.523-269.844 205.144-274.268 202.284-275.448 196.176-277.966 199.964-282.272 198.778-285.943 207.196-282.651 211.27-267.594 224.205-278.406 223.33-269.65 220.622-262.768 216.387-256.518M39.422-77.638C41.288-71.389 46.432-67.605 51.796-68.304 53.848-68.572 54.594-67.199 53.863-65.399 51.906-60.582 50.232-59.011 43.883-61.669 35.543-65.162 27.729-67.745 21.98-75.571 15.451-84.464 20.367-94.789 16.776-103.861 16.133-105.487 17.11-107.676 19.645-107.634 23.209-107.577 21.135-104.616 21.789-103.525 26.901-95.006 17.122-81.796 31.538-75.733 36.508-73.643 35.429-71.088 39.422-77.638M-68.82 31.466C-64.945 40.23-70.579 49.051-80.047 51.172-86.097 52.528-88.835 51.756-88.654 45.338-88.589 43.048-90.038 42.028-91.813 41.378-101.026 37.999-107.984 31.386-116.231 25.302-114.261 24.057-112.732 22.364-111.841 22.65-107.161 24.149-99.864 20.727-98.243 26.955-97.489 29.85-98.117 30.707-94.803 31.879-91.135 33.176-88.169 36.552-85.013 39.162-80.204 43.14-76.712 42.623-73.057 38.234-71.283 36.105-71.999 32.569-68.82 31.466M-188.787-261.759C-190.228-265.266-190.765-267.368-191.885-269.091-193.147-271.034-196.762-272.107-195.995-274.55-195.046-277.574-191.741-277.241-188.807-277.049-182.196-276.619-182.126-281.207-182.855-285.772-183.374-289.014-186.287-290.642-188.527-292.755-190.473-294.59-195.433-296.054-192.401-299.594-188.739-303.871-187.878-298.246-185.932-296.609-184.589-295.48-183.137-293.588-181.371-295.557-180.236-296.822-181.303-298.278-182.192-299.659-183.35-301.457-187.215-302.334-184.837-305.448-184.086-306.429-182.114-306.928-180.722-306.887-177.218-306.786-175.716-303.581-175.64-301.161-175.435-294.706-172.422-288.733-173.005-282.153-173.295-278.875-173.692-276.257-176.811-274.415-181.583-271.596-185.665-267.932-188.787-261.759M-15.115-481.735C-6.734-485.02-6.62-474.892-2.699-470.854 .937-467.11-4.483-465.774-7.452-463.615-10.532-461.375-9.239-457.634-4.876-457.469-.571-457.306 4.695-456.797 4.649-452.484 4.607-448.429-1.101-448.29-4.953-446.998-12.005-444.633-13.063-446.94-13.547-453.484-13.836-457.384-8.83-465.38-19.589-465.501-21.097-465.519-25.232-473.353-24.356-478.376-23.687-482.21-19.6-481.521-15.115-481.735M-55.92-425.961C-62.642-436.149-59.515-466.531-51.857-473.414-48.912-476.061-45.7-477.111-41.86-474.201-37.015-470.527-41.604-468.999-43.332-467.253-45.274-465.292-45.287-463.615-44.076-461.504-39.098-452.826-52.312-446.319-46.944-437.591-47.748-437.173-48.507-436.584-49.362-436.366-54.567-435.035-57.207-432.025-55.92-425.961M70.926-381.4C65.605-380.022 64.954-376.28 65.338-372.013 65.738-367.578 60.836-363.711 59.633-364.336 53.964-367.281 47.611-363.628 41.796-367.807 37.078-371.198 30.831-372.536 34.646-379.721 37.277-384.679 40.364-391.712 48.275-384.917 49.741-383.658 53.356-382.43 54.048-383.119 60.302-389.354 65.112-383.667 70.926-381.4M19.273-230.11C19.011-220.86 19.008-220.914 9.724-220.478 8.637-220.426 7.653-219.217 6.522-218.849 3.609-217.899 1.703-211.434-2.375-216.893-4.956-220.35-11.055-223.299-4.419-228.847-2.393-230.541-2.479-233.845-5.675-235.835-8.016-237.292-10.629-238.812-12.131-240.986-13.992-243.676-15.71-247.848-11.988-249.863-8.774-251.603-7.857-247.27-6.381-245.193-5.15-243.462-4.476-241.32-3.167-239.665-.168-235.87 3.204-232.061 5.336-240.242 6.239-243.712 8.938-242.899 11.173-243.39 11.264-237.359 21.283-237.32 19.273-230.11M80.68-76.841C79.669-80.619 81.618-82.493 83.545-84.51 87.103-88.235 87.049-88.309 82.356-90.371 80.56-91.161 80.068-92.646 80.999-94.083 84.783-99.919 85.115-106.991 87.964-113.083 90.511-118.531 97.073-120.607 99.7-115.975 102.504-111.03 103.004-114.845 104.249-115.683 109.533-119.234 108.199-127.362 114.458-130.572 116.477-127.642 117.415-126.149 115.102-121.658 111.59-114.843 106.592-109.317 102.56-103.077 96.471-93.655 91.284-83.164 80.68-76.841M-94.675-310.412C-95.398-310.611-96.122-310.81-96.845-311.009-93.385-321.01-89.488-330.889-86.655-341.064-85.305-345.911-84.053-350.432-78.779-351.177-74.106-351.836-78.594-344.48-73.462-344.43-67.861-350.337-66.746-359.389-60.512-365.744-61.264-358.601-62.399-351.741-61.885-344.598-61.329-336.873-65.229-330.407-71.411-325.153-73.893-328.632-72.18-332.755-75.953-334.077-76.515-334.273-78.083-333.42-78.161-332.899-79.195-326.073-83.113-321.837-89.063-318.473-91.634-317.02-92.846-313.172-94.675-310.412M222.312-322.772V-323.147C220.453-323.06 218.465-323.374 216.761-322.817 208.435-320.098 205.456-328.935 199.24-330.833 197.772-331.282 197.709-335.517 199.283-335.137 203.746-334.059 206.239-339.114 211.005-337.528 214.916-336.227 219.964-336.354 223.927-337.637 230.068-339.625 236.051-339.703 240.54-335.611 242.43-333.888 244.579-334.124 246.654-334.282 250.234-334.555 252.172-331.796 254.8-330.332 256.167-329.569 256.004-328.114 255.406-327.086 254.361-325.292 253.18-325.559 251.936-327.181 249.207-330.736 247.684-328.114 245.417-326.211 242.094-323.424 238.909-320.193 233.335-322.534 230.185-323.856 226.02-322.772 222.312-322.772M-175.136 63.507C-178.281 54.094-178.281 54.094-174.001 46.593-168.663 37.236-168.522 26.879-176.827 20.351-187.448 12.001-185.814 1.634-185.602-9.063-185.511-13.619-183.048-16.26-178.232-18.318-177.827-12.343-177.293-7.082-177.156-1.811-176.986 4.768-170.23 6.114-167.523 10.696-166.303 12.761-167.449 13.974-167.748 15.688-168.105 17.746-167.881 20.399-166.818 22.124-161.937 30.04-158.633 38.356-157.348 47.658-157.034 49.932-157.185 51.975-158.712 51.665-168.025 49.777-169.875 58.1-175.136 63.507M-112.41-232.626C-111.199-223.077-105.743-217.809-103.782-211.085-103.037-208.533-101.861-205.756-104.951-204.795-108.192-203.789-110.104-206.767-110.242-209.469-110.863-221.71-121.545-232.245-114.326-246.224-110.115-254.379-110.737-266.32-103.943-272.238-97.114-278.188-88.106-282.669-79.575-286.94-76.881-288.289-73.505-287.457-75.093-284.173-78.707-276.701-78.964-267.264-86.76-261.868-89.788-265.543-83.931-268.456-86.846-271.922-92.554-268.149-92.156-260.111-98.571-254.512-97.516-259.471-96.834-262.675-95.936-266.893-102.769-261.98-104.738-255.055-108.808-249.731-110.46-247.569-111.92-239.397-108.508-239.54-94.784-240.113-95.423-227.774-89.89-221.186-85.409-215.85-92.256-215.83-94.018-213.442-97.195-209.135-98.878-213.032-99.968-215.012-103.073-220.66-106.388-226.086-112.41-232.626M13.154 94.212C5.322 91.314 11.986 86.627 10.298 83.155 9.637 81.796 6.948 80.9 9.729 78.953 12.341 77.124 13.258 78.905 14.933 80.53 20.37 85.809 23.362 91.87 22.49 99.558 22.052 103.425 24.893 105.053 27.587 104.429 32.095 103.385 27.731 101.591 27.446 100.023 26.242 93.426 25.448 86.75 24.118 80.18 22.258 70.99 31.617 69.974 35.531 65.285 38.128 62.172 39.63 69.072 42.241 70.815 44.399 72.255 43.017 74.814 42.977 76.903 42.713 90.707 32.325 101.978 33.167 116.222 33.305 118.557 29.086 121.579 26.065 120.517 23.396 119.578 18.681 120.457 18.511 115.271 18.341 110.07 14.32 106.772 10.9 104.076 7.46 101.364 2.58 100.469 .348 95.271 4.484 96.189 7.872 93.139 13.154 94.212M-271.45-355.838C-269.368-362.417-262.645-364.715-258.481-366.288-252.587-368.513-246.374-374.612-239.895-371.997-233.015-369.22-227.8-367.75-222.151-373.828-219.801-376.357-216.818-374.156-217.043-371.475-217.455-366.546-221.298-363.515-225.343-361.007-228.719-358.914-231.789-358.879-234.256-362.377-237.094-366.402-239.813-366.252-243.316-362.891-247.704-358.68-255.005-358.542-257.915-351.356-258.583-349.708-267.441-349.657-270.815-346.754-275.623-342.621-279.152-339.035-284.345-345.584-289.063-339.036-295.147-343.435-300.723-343.423-302.249-343.42-302.453-339.499-304.774-340.939-307.657-342.728-305.195-344.696-304.191-346.396-303.022-348.377-303.596-349.78-305.085-351.29-306.71-352.936-306.975-354.841-304.056-354.989-298.057-355.293-294.728-360.566-289.222-362.277-281.611-364.643-275.521-363.648-271.45-355.838M44.298 41.975C38.074 41.18 35.374 38.951 38.814 33.955 41.554 29.978 48.089 32.614 50.36 26.249 46.104 26.639 40.929 27.36 40.057 23.485 39.697 21.891 41.982 16.099 46.236 14.733 48.462 14.018 48.366 12.019 49.255 10.483 52.352 5.134 55.571 .459 55.015-6.723 54.368-15.062 62.62-18.683 68.12-23.625 71.892-27.016 75.528-35.864 78.898-33.007 82.782-29.714 75.962-23.957 72.881-19.52 70.751-16.453 65.307-13.176 67.977-9.414 74.134-.737 69.186 5.181 63.969 10.593 60.896 13.781 61.979 17.896 59.567 21.094 58.664 22.291 64.313 18.392 63.484 22.896 63.005 25.503 59.923 26.105 57.886 27.394 55.849 28.683 55.644 31.707 56.701 31.859 62.001 32.626 59.267 35.179 57.76 36.544 50.09 43.497 43.643 52.415 32.162 53.769 28.924 43.579 38.064 45.805 44.298 41.975M-130.966 127.331C-129.682 120.981-133.015 116.999-132.343 111.66-130.812 99.498-131.525 87.159-139.457 76.882-141.53 74.196-142.779 72.294-140.372 69.918-138.105 67.682-138.023 62.438-133.66 63.362-130.291 64.076-125.312 65.915-125.147 69.373-124.724 78.29-116.158 86.928-123.975 96.236-125.146 97.631-126.615 99.925-123.42 102.285-116.933 92.714-115.697 81.372-111.688 70.286-106.884 75.78-97.292 78.467-102.395 88.39-105.532 94.492-102.029 102.191-108.685 107.568-115.796 113.313-121.464 120.799-130.966 127.331M.188-261.075C-2.944-270.988-12.415-274.408-17.043-282.377-18.811-285.421-23.71-289.824-28.471-289.016-36.993-287.571-46.738-290.963-53.872-282.69-55.432-280.88-60.137-279.938-62.575-281.742-65.703-284.055-62.392-287.332-62.146-290.222-61.58-296.869-55.073-299.012-52.267-303.911-47.64-311.99-41.55-312.378-36.861-305.038-35.636-303.119-33.922-301.742-31.524-303.852-30.73-304.552-28.784-305.799-28.667-304.777-27.358-293.356-21.746-301.789-17.921-302.354-16.211-302.606-14.566-302.255-13.868-300.805-10.553-293.916-2.655-290.328-.848-282.287-.022-278.619 .301-274.413 6.276-274.379 12.248-274.345 11.654-279.656 14.149-282.659 23.135-266.283 4.408-269.346 .188-261.075M-48.304-175.492C-43.125-168.546-48.508-158.019-37.64-153.433-37.88-158.064-42.059-163.183-35.925-166.754-30.649-159.564-36.405-146.644-24.491-142.9-21.746-153.323-30.896-163-25.022-173.559-22.871-157.413-18.102-149.63-10.271-149.212-17.766-160.106-17.766-160.106-11.5-166.039-4.689-156.286-5.456-144.909-5.46-133.881-.972-134.122-3.267-140.32 1.455-139.63 3.183-132.271-1.671-125.861-1.641-118.602-1.616-112.918-5.822-115.048-9-116.641-16.372-120.338-22.948-127.766-31.328-126.849-46.884-125.147-64.918-128.597-75.55-110.485-71.413-117.433-72.732-124.417-73.138-130.99-73.62-138.803-70.599-143.765-63.604-145.63-51.071-148.971-49.806-158.833-48.743-169.082-48.522-171.21-48.446-173.354-48.304-175.492M90.134-231.479C92.674-234.111 93.453-239.558 97.975-237.792 103.149-235.77 100.384-231.194 99.412-227.357 98.588-224.1 98.819-220.658 97.381-217.422 96.604-215.673 96.233-213.662 94.233-213.265 91.777-212.778 90.582-214.541 89.267-216.518 82.127-227.247 70.835-234.008 62.611-243.925 64.322-239.15 66.896-234.949 69.136-230.578 71.408-226.145 70.125-223.06 65.296-221.188 60.734-219.419 59.049-222.085 57.623-225.458 56.901-227.166 56.131-228.902 55.77-230.703 53.819-240.413 44.377-240.535 37.99-244.499 37.009-245.108 34.873-244.591 34.645-243.552 34.43-238.135 41.514-241.267 41.037-235.901 36.666-234.975 33.036-234.069 31.479-240.46 30.254-245.493 27.389-250.121 25.32-254.958 24.478-256.928 20.888-259.157 24.501-261.021 27.962-262.806 27.991-258.775 29.187-256.883 29.799-255.917 30.202-254.51 32.017-254.968 36.558-258.494 29.273-262.839 32.582-266.516 37.787-263.87 36.938-255.122 42.364-254.583 48.162-254.006 52.59-252.082 56.506-248.36 59.446-252.186 55.756-254.561 55.609-257.565 55.189-266.199 59.328-262.923 63.545-259.474 61.412-270.852 58.226-280.318 53.722-289.57 49.266-298.722 45.535-308.331 43.461-318.443 42.819-321.571 39.869-324.82 44.639-327.149 46.975-321.275 55.006-324.959 57.891-318.388 63.913-304.67 62.314-289.704 66.315-275.519 69.258-265.089 69.453-254.803 80.185-248.923 77.741-258 77.346-267.888 73.122-276.639 69.601-283.938 77.999-283.157 79.495-287.08 80.059-288.556 84.333-288.073 84.976-285.872 87.553-277.029 92.519-268.858 93.61-259.142 90.039-259.85 90.859-264.153 87.956-264.307 86.159-253.099 91.771-242.69 90.134-231.479M-3.207-65.043C-7.138-56.415-12.742-48.293-9.242-38.348-8.026-34.893-9.437-31.659-9.345-28.326-9.279-25.95-9.816-23.604-12.266-23.258-14.408-22.954-15.95-24.706-17.388-26.579-25.55-37.211-26.275-48.861-18.593-61.204-14.299-68.102-10.419-74.928-9.335-83.202-8.268-91.347-10.013-97.421-17.484-102.224-22.162-105.232-27.814-106.695-32.663-110.45-25.482-115.191-20.123-110.327-15.385-108.265-5.622-104.018 5.383-100.341 9.689-88.926 11.843-83.219 13.47-77.258 14.737-71.285 16.895-61.125 23.558-54.793 32.404-50.879 39.653-47.672 43.095-41.581 39.704-35.008 42.648-35.012 42.883-39.599 46.183-38.721 50.452-26.124 39.543-9.102 26.301-8.517 31.759-16.882 28.404-21.253 19.994-24 15.997-25.306 12.517-28.625 8.885-23.553 8.238-22.651 6.023-21.941 5.65-23.095 3.293-30.378-6.948-33.559-5.434-42.975-1.081-43.876-2.245-36.735 1.634-38.818 5.805-41.059 1.478-44.256 1.525-47.063 1.632-53.246-3.45-58.394-3.207-65.043M-41.914-111.829C-46.751-108.104-51.536-104.48-56.252-100.769-60.205-97.659-62.881-93.446-64.837-88.991-67.15-83.726-60.345-77.795-65.588-72.468-57.075-70.983-57.258-62.893-54.616-57.331-47.878-43.147-55.973-24.776-70.563-19.991-72.556-19.337-74.918-18.92-77.014-22.872-64.397-23.42-67.693-32.416-68.611-39.351-69.665-47.308-68.945-55.474-70.681-63.585-74.392-59.844-76.818-55.958-81.171-53.795-84.828-51.979-87.437-48.918-83.645-45.106-79.226-40.662-78.489-46.577-76.189-48.185-75.551-48.631-74.501-48.49-73.623-48.621-71.708-44.281-74.575-40.626-74.88-36.697-75.451-29.345-80.562-25.078-87.045-22.886-94.245-20.452-92.703-28.792-95.57-31.274-103.433-27.315-98.582-21.602-98.249-16.008-102.127-21.332-105.903-25.296-110.228-17.6-112.965-12.728-117.53-11.733-121.793-15.792-125.64-19.456-128.409-23.867-130.881-28.609-133.371-33.387-135.222-36.901-127.14-36.038-125.706-35.885-123.612-35.724-123.792-37.97-125.03-53.377-112.203-58.068-102.299-62.191-95.436-65.048-91.85-69.022-88.267-74.232-86.746-76.444-85.975-80.458-83.019-79.831-75.96-78.334-75.125-83.357-74.368-87.577-72.927-95.606-67.446-101.28-63.28-107.571-58.488-114.806-50.34-115.896-41.914-111.829M37.58-223.197C46.315-218.86 49.54-212.036 55.206-208.092 58.715-205.651 58.462-198.797 63.29-199.597 68.056-200.386 69.391-206.077 71.501-210.164 72.589-212.271 74.159-213.792 76.68-213 79.562-212.093 80.168-210.017 79.427-207.126 79.036-205.602 77.896-203.627 80.049-202.296 84.396-199.608 85.919-196.693 83.487-193.186 80.84-189.366 78.714-185.483 76.938-181.204 76.065-179.1 74.395-175.296 71.111-176.671 67.02-178.385 71.006-181.438 70.947-183.904 70.865-187.39 74.724-190.676 71.391-194.375 69.898-196.031 68.578-194.839 67.288-194.327 62.312-192.352 64.471-187.308 62.885-183.861 62.091-182.134 63.297-181.014 64.135-179.74 69.386-171.75 69.634-163.189 66.775-154.377 66.163-152.493 64.422-150.848 66.2-148.777 70.602-149.617 67.528-155.649 71.939-156.484 72.423-155.894 73.171-155.269 73.552-154.469 75.93-149.468 79.147-149.606 84.139-151.19 90.606-153.242 85.101-156.613 85.984-158.915 88.778-166.186 83.864-174.833 89.654-181.736 93.686-178.83 94.258-175.634 91.931-171.462 96.673-173.983 102.92-179.237 105.05-176.531 108.626-171.989 107.06-164.83 103.891-159.158 102.838-157.274 101.646-155.463 100.439-153.669 98.041-150.101 95.48-146.635 93.198-142.995 91.772-140.722 92.021-139.91 93.66-140.086 100.872-140.865 99.442-134.297 100.264-131.255 101.253-127.591 96.678-125.718 93.352-125.341 86.953-124.615 83.215-120.947 81.063-115.462 79.106-110.478 75.401-107.315 70.566-104.048 74.947-110.165 69.594-114.157 69.23-118.652 57.688-115.611 55.558-104.141 48.258-97.475 42.822-92.511 39.978-93.05 36.498-99.711 32.973-106.457 33.956-115.659 30.027-120.257 21.6-130.121 25.114-145.393 13.314-153.026 12.241-153.72 11.576-157.092 12.297-158.176 18.007-166.764 15.493-175.598 13.743-184.477 13.731-184.537 14.767-184.801 15.657-185.077 17.982-174.594 26.13-171.383 35.394-170.619 39.035-170.319 42.796-169.941 41.024-166.202 38.14-160.113 43.761-158.962 45.539-155.674 46.419-154.046 48.079-152.722 50.067-154.487 51.951-156.16 52.234-157.075 49.788-159.348 46.037-162.834 45.196-168.221 47.038-173.059 49.675-179.985 46.95-183.327 40.556-185.137 35.086-186.686 35.857-193.75 36.76-194.759 44.367-203.272 43.308-212.038 37.58-223.197M-143.199-278.58C-144.228-271.628-145.979-266.062-145.841-260.056-145.573-248.391-148.708-237.174-155.935-228.275-162.446-220.258-166.565-211.022-172.221-202.633-173.489-200.752-177.908-203.301-177.01-198.729-175.661-191.857-179.703-187.34-184.341-183.148-185.706-181.914-185.517-178.163-188.722-180.096-190.656-181.262-192.705-182.409-192.146-185.863-190.592-195.481-195.818-204.426-195.483-214.115-195.325-218.71-199.008-224.299-189.661-221.417-187.135-220.639-187.491-223.407-188.09-225.286-190.268-232.117-187.963-237.292-182.212-241.302-179-243.542-177.755-246.522-177.505-250.713-177.13-256.986-175.161-262.931-167.106-263.614-156.319-264.528-152.565-271.54-157.033-281.737-158.44-284.951-162.128-286.997-162.292-290.314-158.386-294.264-154.294-285.25-151.965-291.194-150.642-294.572-151.821-299.145-152.58-303.042-153.093-305.679-154.348-308.537-156.162-310.456-158.066-312.47-158.765-316.978-162.512-315.93-166.888-314.706-161.386-310.504-165.032-307.107-168.016-314.408-169.381-321.102-169.977-328.383-170.384-333.358-168.15-334.487-164.662-334.952-160.314-335.531-159.143-332.939-159.281-328.646-165.869-332.575-167.41-332.929-167.963-330.815-168.919-327.159-166.721-323.157-164.252-322.195-155.456-318.769-149.648-312.003-142.516-303.584-142.753-309.981-139.298-315.151-145.099-317.755-151.861-320.792-150.492-324.979-149.268-330.57-147.628-338.058-141.367-344.688-145.125-353.366-146.637-356.856-142.294-356.664-140.478-357.76-138.321-359.062-136.979-357.343-136.543-355.38-135.959-352.753-136.076-349.915-133.541-347.824-130.562-354.053-127.739-360.228-124.677-366.282-121.615-372.334-122.01-379.583-117.645-385.216-112.673-391.63-118.439-397.621-118.82-404.158-117.36-397.278-103.409-402.391-108.13-389.332-97.271-401.98-90.863-415.018-82.6-426.794-78.744-432.289-74.285-437.757-78.63-445.394-79.7-447.275-79.689-450.865-74.488-453.406V-408.402C-76.737-407.273-80.958-413.183-83.385-408.554-85.284-404.933-81.218-402.572-78.766-400.471-75.189-397.405-76.284-395.639-80.188-395.3-88.243-394.602-85.4-381.266-95.119-382.778-95.178-382.788-95.497-382.057-95.405-381.967-92.138-378.785-94.63-374.501-93.562-371.355-90.667-362.827-91.858-358.515-100.086-354.022-108.421-349.469-114.184-342.672-117.763-332.903-110.748-335.972-110.156-344.216-103.337-346.664-100.482-338.453-110.827-334.7-110.096-327.083-106.857-328.395-106.015-331.344-104.064-333.224-102.545-334.688-101.961-338.624-98.84-336.523-96.059-334.651-96.738-331.518-98.604-329.089-103.545-322.662-105.833-314.697-110.331-308.241-112.957-304.47-108.518-301.368-111.774-298.266-116.963-293.324-120.979-286.138-127.966-284.47-135.2-282.743-135.261-277.284-137.604-272.701-138.807-270.349-136.944-267.145-139.896-265.04-142.019-268.987-139.083-273.816-143.199-278.58M-159.002-43.259C-165.622-47.047-163.844-53.667-166.348-58.436-174.157-73.31-187.339-85.95-185.901-104.771-185.801-106.083-187.509-107.435-187.89-108.895-190.542-119.057-197.723-126.832-199.379-138.336-201.167-150.751-193.848-153.403-187.929-161.251-187.646-158.257-187.207-157.21-187.555-156.654-188.851-154.583-189.628-152.453-187.088-151.083-184.178-149.513-184.406-153.394-182.826-154.044-177.256-156.338-179.447-161.584-178.391-165.483-176.264-173.336-167.983-178.723-170.232-188.075-165.113-187.337-165.052-183.709-163.757-180.573-162.82-178.301-162.952-174.355-159.29-174.236-155.942-174.125-157.033-178.046-155.368-179.769-152.239-183.007-151.261-191.009-142.734-180.917-145.658-186.864-145.051-188.155-141.275-191.267-139.845-192.446-140.234-194.056-141.016-195.495-142.029-197.361-143.441-199.15-141.21-201.995-138.382-197.667-135.78-192.555-129.248-195.649-129.326-200.308-134.042-202.478-135.193-206.792-136.927-213.285-140.053-216.898-145.123-208.611-146.165-206.908-148.148-204.683-150.465-206.009-152.605-207.234-151.836-210.029-151.356-211.998-150.632-214.973-148.509-217.75-148.325-220.694-147.167-239.183-131.514-246.449-120.305-259.631-120.505-248.553-124.025-240.645-126.252-232.442-127.081-229.389-127.674-226.628-125.559-223.672-119.195-214.778-118.66-202.774-110.026-194.917-109.892-194.794-109.766-194.663-109.648-194.521-107.292-191.685-109.458-187.204-113.146-187.132-118.433-187.03-122.845-182.739-127.607-186.04-128.036-184.923-128.321-184.545-128.227-184.375-123.024-174.901-123.295-174.344-131.742-170.611-134.229-169.511-129.126-166.938-131.864-165.103-135.661-166.623-138.441-170.649-144.615-169.795-136.948-164.286-140.279-160.48-145.145-156.797-146.722-155.604-150.61-154.732-149.032-152.597-142.896-144.296-150.593-146.805-153.993-145.068-156.305-143.886-162.796-143.92-158.632-137.898-157.057-135.621-151.788-133.159-157.869-130.46-161.647-128.783-166.913-124.062-168.698-133.043-169.083-134.984-170.706-136.912-172.742-137.05-175.374-134.792-171.672-130.667-175.579-129.02-179.377-129.825-177.704-136.062-182.887-136.026-178.307-127.405-178.38-127.498-184.034-122.996-185.805-121.585-184.435-119.774-183.893-117.994-181.286-109.428-172.474-107.24-167.46-101.142-168.355-103.842-169.77-106.078-171.169-108.323-172.007-109.667-171.366-110.781-170.267-111.392-169.714-111.699-168.11-111.39-168.02-111.069-166.147-104.421-160.03-105.859-155.295-103.666-157.223-111.711-157.223-111.711-149.093-111.651-155.202-117.709-152.227-122.171-146.757-125.352-141.768-128.254-141.103-132.267-141.928-137.218-143.624-147.39-135.539-155.147-125.458-152.746-123.862-152.365-122.864-152.415-122.744-153.682-122.042-161.05-115.436-161.844-110.669-164.453-106.571-166.696-102.34-168.325-100.475-173.243-99.833-174.935-99.501-178.057-96.43-177.434-94.153-176.973-93.009-174.792-92.096-172.841-87.772-163.606-90.067-151.598-98.628-146.389-108.901-140.138-111.872-131.825-109.438-120.751-108.914-118.369-109.57-116.112-111.549-115.093-114.355-113.649-113.787-117.119-115.005-118.089-117.253-119.881-120.533-120.639-120.629-117.124-120.891-107.574-125.819-111.707-130.028-114.151-131.499-109.04-128.773-105.625-127.745-101.867-126.821-98.488-126.638-95.53-129.009-92.293-133.031-86.802-143.773-90.897-144.481-81.137-145.271-81.516-146.197-81.743-146.829-82.302-149.972-85.08-150.9-82.394-150.784-80.276-150.07-67.316-157.367-56.268-159.002-43.259M317.585 13.401C315.104 10.592 315.643 8.751 315.999 7.045 316.546 4.43 318.05 1.551 314.66-.065 311.973-1.347 310.022 .35 308.781 2.623 307.921 4.197 307.855 5.166 306.273 2.86 301.323-4.354 300.087 .564 299.28 5.341 298.965 7.209 298.874 9.276 296.661 9.307 294.043 9.343 292.706 6.887 293.199 4.903 294.43-.051 291.959-4.569 292.107-9.185 292.333-16.217 288.774-15.926 284.19-14.285 281.835-13.442 279.061-11.913 278.104-15.019 275.213-24.41 270.167-19.906 265.815-17.03 261.53-14.199 260.175-15.15 259.593-19.959 258.893-25.739 256.187-31.352 260.303-37.098 262.002-39.47 260.656-42.236 258.736-44.511 256.244-47.466 253.468-46.188 250.467-45.736 247.742-45.326 245.758-40.917 243.433-42.98 234.514-50.895 218.859-41.431 212.424-55.225 212.136-55.841 210.849-56.437 210.123-56.339 203.009-55.375 193.494-57.795 189.521-52.015 185.429-46.061 179.447-41.119 177.462-33.125 175.498-25.215 174.033-15.653 164.134-12.382 161.087-11.375 157.586-11.553 154.703-10.271 146.368-6.565 140.937-9.557 140.055-18.907 139.669-22.997 138.713-26.367 134.489-28.404 130.732-30.216 127.855-33.083 125.302-36.719 119.396-45.131 112.919-45.58 105.471-38.804 103.456-36.972 101.683-35.737 99.233-37.636 90.76-44.207 91.581-63.937 100.06-70.784 109.992-78.805 118.596-88.185 125.1-99.278 126.609-101.852 128.169-104.797 126.35-107.756 124.317-111.059 121.504-106.41 118.362-108.555 126.028-115.068 131.695-121.963 127.438-133.2 126.204-136.456 130.795-142.608 135.006-142.765 139.094-142.917 139.926-137.548 139.866-133.472 139.831-131.066 140.114-128.557 139.539-126.275 136.638-114.778 140.001-103.898 142.712-92.985 142.911-92.181 142.747-88.686 146.698-90.55 144.61-94.062 146.247-97.673 146.636-101.426 148.218-116.712 153.084-131.539 150.159-147.49 148.032-159.09 143.516-172.151 155.344-182.288 156.898-183.62 154.268-184.369 153.556-185.426 149.002-192.183 154.598-210.833 162.074-214.026 163.187-214.5 164.702-213.191 165.271-215.67 167.753-226.48 177.613-230.494 185.652-235.3 190.702-238.32 192.729-241.059 192.37-246.367 192.164-249.415 191.865-252.801 195.614-253.849 199.315-254.884 200.827-252.056 202.25-249.21 203.318-247.072 205.108-245.284 206.113-243.124 208.596-237.789 207.04-229.993 216.36-229.017 219.006-228.74 218.071-224.712 217.056-221.945 214.679-215.462 214.589-209.237 217.614-202.458 219.816-197.524 224.763-192.549 222.847-186.9 220.463-179.875 224.884-176.255 227.464-171.499 231.543-180.204 235.437-188.526 239.345-196.841 240.121-198.494 243.682-199.09 241.623-201.758 239.208-204.889 237.428-201.277 235.477-200.637 233.302-199.924 229.487-197.65 229.578-200.336 229.764-205.863 227.218-211.109 228.468-216.537 229.152-219.51 230.247-219.63 232.605-217.318 235.623-214.359 238.823-216.125 239.146-219.588 239.732-225.87 243.198-231.131 245.51-239.01 239.691-233.075 236.221-237.519 233.079-239.298 229.239-241.473 233.607-244.364 233.932-247.006 234.437-251.133 235.646-255.089 235.879-259.36 236.08-263.035 239.001-269.06 241.58-269.552 246.012-270.398 247.387-264.454 249.084-260.827 249.56-259.811 246.639-257.263 249.504-256.109 252.59-254.865 253.406-256.883 254.205-259.671 254.925-262.186 257.61-261.437 257.976-259.49 259.81-249.706 262.404-240.381 271.348-232.772 266.824-234.936 264.464-235.723 264.822-230.377 264.97-228.179 264.009-225.332 262.532-223.7 256.057-216.547 258.481-205.312 261.531-201.96 268.673-194.113 270.468-186.933 268.81-177.322 268.291-174.315 269.952-170.962 270.45-167.743 270.758-165.756 271.751-164.188 273.582-163.874 275.654-163.517 277.398-165.36 277.336-166.984 276.986-176.159 283.979-182.956 285.017-191.602 285.418-194.943 288.106-196.656 290.422-197.6 292.703-198.53 293.485-195.537 294.338-193.639 303.166-173.974 310.172-153.669 315.623-132.834 316.763-128.478 315.129-124.472 310.505-123.897 304.303-123.125 304.077-118.62 303.158-114.413 302.663-112.146 303.729-109.262 301.096-107.917 296.27-105.451 297.109-101.423 298.501-97.825 303.825-84.06 304.066-69.437 306.39-55.156 307.347-49.27 306.257-45.713 299.976-44.832 295.396-44.189 291.94-40.992 291.045-37.298 289.336-30.24 298.364-17.081 306.282-15.214 312.767-13.685 315.32-10.534 317.34-4.253 319.271 1.753 320.334 6.83 317.585 13.401M-263.298-207.839C-263.207-213.685-260.301-217.948-256.525-221.885-254.492-224.005-251.706-226.68-255.928-229.176-263.536-233.674-257.661-239.289-258.134-244.427-258.682-250.389-254.188-252.304-252.729-256.323-252.173-257.855-249.826-256.146-249.497-254.805-247.008-244.65-240.879-235.738-242.671-224.024-243.969-215.542-240.822-206.38-239.657-197.523-238.897-197.598-238.137-197.673-237.377-197.749-237.654-207.983-234.771-217.911-234.415-227.913-234.129-235.932-226.791-243.265-232.244-251.798-233.018-253.01-232.121-255.534-229.72-255.75-225.905-256.095-216.958-244.18-219.364-241.529-223.653-236.801-221.821-232.428-220.883-227.45-219.874-222.086-220.215-216.481-219.373-211.074-218.598-206.101-225.646-203.219-223.381-199.217-220.009-193.257-221.956-188.494-223.917-183.184-224.37-181.956-224.371-179.63-223.612-179.031-216.467-173.391-216.91-163.039-209.865-157.346-208.274-156.06-206.952-152.841-209.591-152.126-216.124-150.358-216.114-147.399-212.772-142.637-211.546-140.891-213.149-139.077-214.088-137.784-219.604-130.191-217.929-118.03-210.604-113.841-205.471-110.906-201.125-99.5-202.533-93.252-203.592-88.55-201.801-84.827-197.39-82.903-188.044-78.828-187.574-67.449-179.909-62.017-179.58-61.783-179.713-60.207-180.149-59.697-184.829-54.229-188.363-47.36-197.721-48.701-204.321-49.647-209.853-47.259-209.645-39.261-209.527-34.731-211.607-33.148-215.445-31.578-220.546-29.491-224.926-24.488-222.261-19.558-217.98-11.638-216.454-2.29-210.081 4.47-207.571 7.131-203.968 9.593-207.734 13.347-211.104 16.707-215.15 18.66-219.458 14.055-221.929 11.414-225.397 6.047-228.311 9.558-231.004 12.802-225.631 16.351-222.352 18.813-220.909 19.896-219.684 21.387-218.097 22.137-208.108 26.86-206.834 37.131-209.12 44.566-211.644 52.773-209.914 57.199-204.926 62.527-200.611 67.136-201.985 71.696-207.187 74.299-213.596 77.507-235.907 69.585-240.095 63.404-241.905 60.733-243.293 58.47-240.948 55.351-238.86 52.573-237.496 48.075-239.411 46.069-244.748 40.477-244.52 34.667-243.38 27.868-243.11 26.26-243.592 18.598-248.762 22.452-251.613 24.577-256.312 26.176-257.346 30.817-257.951 33.532-260.973 34.411-262.122 32.741-266.237 26.762-271.049 24.56-278.6 23.772-283.001 23.313-284.021 25.716-286.644 26.544-289.835 27.551-292.923 29.123-293.753 23.469-294.913 15.577-304.794 15.196-308.055 8.552-308.354 7.94-314.975 9.581-317.964 5.999-320.678 2.746-324.221 1.292-328.436 3.296-330.202 4.137-331.947 4.729-332.959 2.482-333.704 .83-334.192-1.284-331.834-2.033-328.098-3.22-326.683-5.056-329.248-8.538-331.46-11.541-334.756-13.286-337.815-10.986-342.062-7.792-345.658-8.879-349.411-11.098-353.784-13.684-358.636-15.892-362.153-19.392-367.55-24.765-371.324-23.944-375.024-18.042-378.841-11.954-386.592-13.206-391.739-9.137-394.045-7.313-397.291-10.221-397.038-14.149-396.686-19.614-401.411-25.762-403.695-25.573-409.833-25.063-410.805-29.179-412.556-32.355-414.22-35.375-419.802-39.02-415.411-42.016-412.94-43.702-406.818-42.268-403.138-39.289-401.999-38.367-401.269-36.914-400.084-36.081-394.707-32.3-390.47-30.636-387.453-39.299-384.272-48.432-376.787-48.797-371.374-40.434-365.731-31.715-356.228-29.104-347.744-25.313-343.2-23.282-337.85-25.826-334.31-30.224-332.255-32.777-330.626-35.793-333.276-38.282-339.279-43.917-334.244-47.397-330.81-50.272-325.536-54.688-326.725-58.651-330.694-62.394-334.425-65.913-338.906-69.088-344.449-67.823-349.55-66.659-353.496-67.426-357.842-70.636-363.649-74.924-378.736-73.479-380.402-68.045-382.43-61.436-387.279-59.779-391.916-56.951-394.881-55.143-397.582-49.714-401.281-55.443-404.298-60.115-401.924-65.736-398.626-68.209-392.557-72.761-388.751-78.305-385.105-84.723-379.479-94.624-372.087-103.442-363.026-110.484-356.577-115.498-348.65-133.047-351.949-139.425-354.99-145.303-355.827-150.588-353.495-156.602-352.704-158.639-352.364-160.917-354.935-161.911-357.221-162.793-359.107-161.706-360.118-159.519-362.397-154.586-368.383-154.976-370.672-155.969-377.363-158.874-384.256-157.152-390.892-158.592-393.061-159.063-395.042-158.899-395.928-161.171-396.762-163.312-396.951-164.989-395.562-167.633-390.818-176.674-386.764-186.117-383.061-195.644-381.369-199.998-383.868-205.344-380.715-209.639-379.791-210.898-379.527-212.969-376.887-211.172-372.479-208.173-371.821-208.396-371.583-213.254-371.271-219.674-367.942-225.55-369.718-233.295-362.7-228.998-360.572-224.799-364.338-218.611-365.938-215.983-366.036-213.315-362.738-211.851-358.277-209.871-359.048-214.267-357.817-216.144-355.442-219.765-355.854-224.613-357.083-227.496-360.348-235.159-353.22-236.846-350.265-239.4-347.048-242.179-345.041-235.021-343.125-234.626-337.401-233.446-338.634-227.957-335.619-225.428-334.092-224.149-331.941-222.324-333.764-220.142-335.502-218.063-336.853-222.582-339.08-221.072-337.393-215.415-330.593-212.389-331.187-205.608-332.46-191.043-327.505-176.776-330.318-159.86-325.318-165.287-322.793-164.417-319.224-160.941-314.353-156.195-315.673-151.488-318.412-147.512-321.139-143.551-320.738-142.349-317.096-139.362-313.388-136.32-307.117-133.367-307.991-127.842-310.133-114.298-302.306-104.442-297.093-93.297-296.646-93.819-295.896-94.357-295.982-94.644-301.215-111.977-298.434-128.847-293.876-145.862-292.224-152.031-287.618-158.673-291.014-164.921-294.275-170.921-290.625-173.1-287.734-176.622-286.397-178.25-282.758-177.972-283.481-181.467-286.873-183.407-289.191-177.892-293.833-181.033-288.343-185.727-283.795-191.552-276.765-192.184-273.5-192.477-273.911-193.328-273.341-195.214-272.618-197.609-272.837-199.696-275.443-200.114-279.069-200.696-282.837-200.03-286.003-202.876-287.358-204.096-289.719-198.023-291.316-202.934-292.389-206.234-289.737-207.655-287.322-209.12-281.251-212.802-287.542-217.085-286.906-221.103-286.465-223.89-288.404-224.968-290.914-224.156-294.739-222.918-297.753-223.867-298.861-227.639-299.342-229.278-298.49-232.076-297.227-233.309-293.73-236.72-292.511-231.433-289.934-230.805-288.571-230.472-287.296-228.873-286.115-230.751-284.671-233.046-286.494-233.882-288.213-234.537-292.415-236.136-292.854-238.829-289.072-240.811-281.831-244.608-282.091-250.357-284.683-257.201-278.364-253.287-272.183-250.356-274.984-241.708-275.13-241.256-275.897-232.653-269.179-232.583-268.756-232.579-267.917-230.581-268.012-229.58-268.738-221.886-264.319-215.332-263.298-207.839M54.604 62.251C53.64 48.764 57.601 46.138 71.558 47.465 76.311 47.917 83.727 57.631 87.376 45.479 87.727 44.315 89.657 44.86 90.599 45.745 94.697 49.6 96.332 45.851 98.577 43.375 100.623 41.117 102.533 38.476 106.153 38.573 111.925 38.729 115.016 35.317 117.637 30.618 122.217 22.407 129.114 20.992 136.412 26.683 140.495 29.867 143.072 31.728 143.911 24.259 144.527 18.775 146.692 14.502 152.356 21.448 154.453 24.018 157.79 27.375 161.073 25.288 167.358 21.292 169.729 23.278 172.242 29.426 174.311 34.485 184.864 37.054 188.428 33.779 193.505 29.113 194.119 23.722 189.107 18.324 188.268 17.419 187.598 16.357 186.84 15.376 184.326 12.123 181.288 8.018 184.097 4.603 186.683 1.457 191.518 .356 196.09 2.33 198.897 3.542 202.562 3.799 204.507 5.786 210.561 11.97 212.893 8.296 212.939 2.496 212.988-3.479 215.976-6.134 220.804-7.319 226.578-8.737 231.809-10.989 236.922-14.036 242.751-17.509 245.987-15.313 246.601-8.592 247.222-1.782 246.213 4.112 240.361 8.711 237.748 10.766 235.463 13.92 237.856 17.638 240.019 20.998 242.922 19.372 246.085 18.951 252.986 18.033 260.593 15.865 266.368 21.782 269.066 24.546 270.834 24.435 274.643 24.155 282.132 23.603 288.072 29.373 294.021 33.549 296.518 35.301 293.802 37.205 292.443 38.831 287.781 44.411 280.22 46.595 276.143 54.779 276.065 46.547 276.071 46.506 268.7 45.399 266.441 45.06 266.103 43.398 265.215 41.72 262.007 35.651 258.02 33.915 253.898 40.911 252.568 43.168 250.804 42.457 249.154 42.492 245.252 42.574 242.953 44.861 240.98 47.816 233.623 58.838 237.691 74.295 250.566 80.712 258.389 84.612 258.411 88.334 253.603 94.666 249.571 99.975 246.42 98.872 242.108 95.313 237 91.096 231.948 91.583 227.905 97.158 223.392 103.383 229.35 104.936 232.695 107.645 236.149 110.442 241.411 110.44 244.305 114.696 239.313 119.528 234.845 124.186 234.732 131.396 234.595 140.289 242.016 140.769 247.567 143.716 250.737 145.398 254.903 149.299 250.745 152.4 245.776 156.107 237.268 161.209 233.57 159.319 223.389 154.113 215.332 150.955 207.589 161.98 197.544 159.686 190.878 167.046 180.63 171.016 193.173 172.726 193.907 184.103 201.029 189.365 202.847 190.708 202.296 192.683 200.08 193.701 193.554 196.699 193.844 201.164 195.506 207.502 197.513 215.158 202.67 213.809 207.771 214.051 210.143 214.163 213.875 213.714 213.224 217.145 212.271 222.168 206.659 223.396 203.081 226.119 198.728 229.433 199.308 223.613 198.087 222.031 194.165 216.948 190.145 216.315 184.52 219.259 174.193 224.664 164.866 230.945 159.028 241.47 156.467 246.089 153.526 250.458 147.043 249.996 133.293 249.017 119.648 251.152 107.62 239.569 99.75 231.989 96.055 223.791 104.682 215.785 109.046 211.734 113.247 207.695 115.963 202.356 121.122 192.217 119.896 182.58 112.8 176.962 103.365 169.493 90.196 169.15 79.974 175.926 74.588 179.496 69.02 182.789 63.543 186.221 59.686 188.639 56.644 190.927 59.118 196.595 60.807 200.462 60.609 204.969 56.93 208.624 46.008 219.472 39.656 231.886 44.365 247.809 44.595 248.583 44.109 249.583 43.905 250.467 39.843 268.124 15.607 278.814 .07 269.832-5.032 266.881-10.072 263.795-15.333 261.152-37.427 250.056-60.621 252.221-83.825 256.036-90.659 257.159-97.421 257.236-104.27 257.099-107.202 257.04-110.219 255.881-108.659 253.135-105.233 247.106-105.216 239.874-102.73 234.479-99.329 227.098-99.931 224.84-107.596 223.108-104.9 219.991-101.076 218.005-103.353 214.098-105.796 209.905-110.466 209.559-114.128 210.833-122.092 213.605-127.687 210.516-133.388 205.58-137.237 202.249-141.775 199.645-147.184 201.876-147.411 204.719-145.424 204.839-144.271 205.633-133.995 212.71-133.954 212.708-140.25 223.422-141.217 225.068-142.776 227.024-141.728 228.533-136.423 236.172-143.474 241.277-145.654 247.082-148.019 253.38-164.096 257.197-168.38 252.708-172.967 247.902-176.336 241.576-183.861 248.562-184.031 248.72-185.976 247.581-186.442 246.703-188.331 243.152-191.35 243.602-194.534 243.901-197.929 244.22-201.917 245.097-204.479 242.666-214.712 232.952-227.201 232.884-240.116 232.812-245.591 232.782-252.352 231.718-251.088 222.833-250.708 220.166-252.546 217.986-255.163 217.225-262.623 215.054-265.921 209.434-267.916 202.582-269.819 196.04-272.96 191.212-281.045 193.234-282.903 193.699-284.984 193.768-285.841 191.604-290.877 178.884-301.671 184.274-310.007 184.831-317.135 185.307-321.725 196.126-318.753 203.072-317.294 206.483-318.411 208.579-320.684 210.271-323.675 212.498-325.518 210.563-327.453 208.009-338.917 192.877-357.162 183.285-361.268 161.715-362.344 156.059-369.958 149.028-373.452 141.893-374.551 139.65-378.57 137.193-375.049 134.924-371.974 132.941-368.65 135.037-366.672 138.369-363.989 142.891-361.25 147.381-358.429 151.819-357.62 153.091-356.468 154.622-354.709 153.788-352.997 152.977-353.263 151.225-353.971 149.791-355.293 147.11-359.954 143.87-353.988 142.042-349.957 140.808-344.285 139.422-341.945 145.388-339.894 150.615-338.693 151.229-336.18 145.631-333.155 138.892-329.043 137.773-322.327 142.353-312.69 148.925-304.809 156.945-297.919 166.15-296.749 167.713-296.126 170.764-293.286 167.94-291.088 165.755-292.367 164.01-294.197 162.539-295.63 161.388-297.49 160.691-298.724 159.383-302.184 155.716-308.48 150.486-305.38 147.014-302.087 143.325-295.651 147.847-292.377 152.053-289.029 156.354-286.058 155.044-283.125 152.305-279.259 148.695-276.64 144.832-281.104 139.492-284.536 135.387-286.189 128.086-281.739 126.276-271.612 122.155-272.979 113.583-271.122 106.223-269.025 97.917-259.495 90.338-250.825 90.818-248.93 90.923-246.825 90.773-246.3 93.082-245.06 98.534-240.37 98.677-236.354 99.534-230.552 100.772-228.022 103.3-231.028 109.273-232.186 111.573-232.491 113.925-229.656 115.731-225.018 118.687-227.077 119.874-230.948 121.494-233.974 122.761-239.76 122.171-238.819 127.498-238.038 131.926-232.719 130.912-229.523 131.569-221.983 133.122-220.791 137.003-222.979 143.594-224.579 148.414-228.227 148.758-232.345 149.528-236.769 150.356-240.1 153.08-241.412 157.836-242.068 160.216-240.874 161.511-239.204 162.199-233.667 164.479-226.197 165.291-231.284 174.438-231.473 174.778-230.563 175.986-229.926 176.484-222.031 182.652-199.265 178.067-195.649 168.807-192.995 162.01-188.763 160.219-182.314 159.869-170.19 159.211-168.47 156.445-172.053 144.685-174.423 136.903-171.29 128.625-163.902 126.539-154.579 123.906-155.637 119.113-159.593 112.894-161.606 109.729-164.803 105.674-162.417 102.727-156.245 95.102-155.953 83.654-145.984 77.948-141.694 85.167-145.023 93.327-142.208 100.588-140.532 104.913-134.257 107.106-136.673 113.332-141.086 124.708-133.024 132.551-128.721 143.187-118.045 125.123-99.835 115.742-91.61 97.955-91.482 97.677-91.372 97.376-91.184 97.142-87.875 93.037-82.268 92.651-78.833 93.855-59.448 100.649-40.01 100.857-20.365 96.149-14.346 94.707-9.972 94.828-7.089 101.317-3.93 108.432 5.793 110.956 6.512 120.047 6.576 120.86 7.959 122.501 9.001 120.583 11.762 115.503 13.63 120.158 14.34 121.509 18.498 129.425 23.153 136.798 31.125 141.549 31.565 136.981 30.362 131.189 32.717 128.1 44.967 112.028 43.531 90.858 53.726 74.158 54.132 73.492 53.362 71.137 52.772 70.984 44.852 68.929 47.886 63.524 48.844 58.685 51.398 58.838 51.368 63.228 54.604 62.251M-127.452-72.634C-127.333-69.057-122.548-67.5-124.015-62.772-125.489-58.023-130.579-60.568-132.236-58.205-132.53-54.186-124.511-55.521-128.291-53.354-131.579-51.469-130.741-43.384-137.169-46.917-141.835-49.481-145.873-62.004-143.597-66.659-140.026-73.966-134.722-76.445-127.164-72.338-129.451-79.367-122.638-89.961-115.213-90.629-110.103-91.089-104.67-91.19-100.99-95.037-96.18-100.066-90.691-103.84-82.857-108.52-87.222-99.662-88.827-92.343-89.679-84.746-90.093-81.059-91.44-76.308-97.315-80.256-99.808-81.931-101.125-79.75-102.278-77.951-109.259-67.056-118.104-65.183-127.452-72.634M-136.302 20.398C-133.187 14.455-139.448 11.629-142.032 6.668-132.329 10.216-126.752 15.691-125.045 22.933-129.061 21.939-132.852 21-136.643 20.062-137.546 23.226-133.243 24.222-133.604 27.375-138.66 28.666-142.561 24.541-147.28 24.18-146.702 39.428-131.528 28.404-127.13 34.461-126.935 39.877-137.197 32.124-132.827 41.198-132.781 41.292-134.523 42.588-134.752 42.417-140.33 38.26-148.707 35.023-150.709 29.5-154.74 18.379-157.287 6.911-165.543-2.188-166.243-2.958-166.737-5.041-166.264-5.574-159.904-12.738-167.126-17.264-169.373-22.776-170.414-25.33-173.171-27.649-170.776-31.555-164.239-22.93-160.322-12.992-152.769-5.592-145.27 1.754-143.871 13.042-136.302 20.398M-75.24 83.907C-77.611 82.296-80.028 86.282-81.992 84.849-83.129 81.693-79.02 80.805-80.919 78.252-88.631 80.398-88.387 90.074-95.171 93.384-93.838 82.068-88.073 74.641-78.614 68.737-75.262 66.645-72.588 76.499-70.982 68.081-70.188 63.917-68.893 59.48-66.525 56.065-62.429 50.156-60.884 42.194-53.325 37.758-54.32 48.984-55.232 48.29-63.075 58.558-68.413 65.547-70.753 74.817-74.434 83.067-71.568 83.316-69.945 81.683-68.565 79.435-66.334 75.803-65.195 82.236-62.867 80.135-62.271 79.597-60.949 80.517-61.276 81.483-62.571 85.302-66.4 86.875-69.346 88.538-72.83 90.504-74.821 87.495-75.24 83.907M-489.565-277.112C-488.019-275.792-484.371-277.255-484.564-274.159-484.722-271.639-487.418-272.651-489.125-272.634-493.349-272.593-497.574-272.622-501.913-271.615-492.877-266.643-483.129-264.737-473.217-263.238-472.362-258.816-478.642-260.988-478.5-256.09-466.441-257.149-456.761-250.08-445.979-246.208-445.471-246.026-445-245.744-444.514-245.502-442.006-244.257-447.152-237.852-440.852-239.625-437.966-240.438-438.822-244.435-438.008-246.989-437.215-249.478-435.499-250.514-433.077-250.21-430.449-249.881-429.684-247.992-429.556-245.548-429.32-241.005-430.653-236.151-426.972-231.942-425.408-235.66-423.789-239.165-424.261-243.164-425.294-251.916-419.958-251.47-414.358-249.702-407.833-247.64-398.126-235.253-399.967-228.944-401.313-224.33-398.824-222.343-398.094-219.126-396.488-212.049-397.522-205.959-401.838-199.249-420.258-170.609-430.664-138.71-437.004-105.473-441.932-79.641-444.938-53.607-444.564-27.208-443.707 33.302-427.901 89.632-397.006 141.578-354.813 212.521-294.235 262.852-220.091 298.046-183.312 315.504-144.807 327.475-104.708 332.813-68.203 337.673-31.429 337.235 5.374 331.82 81.344 320.643 147.908 289.546 207.083 241.309 250.549 205.877 287.36 165.053 313.069 114.877 328.618 84.532 337.796 52.187 341.48 18.469 348.596-46.645 340.738-110.17 319.115-171.995 316.564-179.287 313.507-186.401 310.953-193.691 308.652-200.259 308.202-206.938 311.158-213.515 311.285-213.798 311.506-214.092 311.496-214.375 311.117-225.198 313.921-235.377 316.094-245.837 317.205-251.187 315.033-258.422 317.851-264.774 319.318-268.08 321.372-269.272 325.005-269.069 332.773-268.635 340.549-268.82 348.152-270.869 351.324-271.724 357.906-271.061 357.354-271.986 354.542-276.687 359.927-281.245 357.192-284.807 353.327-289.842 355.847-292.463 359.582-295.353 363.897-298.693 362.14-300.911 358.076-302.555 356.926-303.021 355.555-303.132 354.587-303.827 350.934-306.449 344.358-309.387 344.479-311.942 344.713-316.867 351.305-316.798 356.18-318.232 352.237-324.59 350.115-331.533 345.834-337.619 343.252-341.29 342.203-342.406 338.206-339.563 332.631-335.597 326.566-331.75 320.997-340.212 319.604-342.329 316.596-342.603 314.133-341.787 302.896-338.06 295.785-343.261 295.958-355.499 295.984-357.366 296.968-359.923 294.593-359.879 283.021-359.666 274.469-370.335 261.879-367.667 247.061-364.524 232.901-370.616 219.475-375.62 214.518-377.467 204.303-378.582 205.362-389.245 205.732-392.977 201.729-392.18 199.662-391.552 187.361-387.815 178.837-393.734 171.657-402.462 167.307-407.75 159.758-407.899 155.552-407.951 146.61-408.059 136.899-407.12 128.037-403.34 124.912-402.007 120.606-401.062 117.995-405.042 114.508-410.354 109.753-411.935 103.629-411.089 102.013-410.867 99.411-411.673 98.575-412.9 92.983-421.102 84.183-420.502 76.074-421.135 68.252-421.746 63.67-427.62 57.734-431.192 54.276-433.273 60.495-435.449 58.977-438.272 54.962-445.732 55.479-455.418 47.714-461.048 45.888-462.374 46.006-466.535 42.724-465.412 39.863-464.432 41.702-460.913 40.598-458.789 38.622-462.463 36.813-466.234 34.622-469.768 32.758-472.775 30.704-474.771 26.26-472.998 20.357-470.641 16.598-473.213 16.496-479.877 16.439-483.641 15.771-486.772 11.389-483.378 7.896-480.673 4.879-483.639 1.63-483.337-.339-483.155-1.687-484.912-2.076-486.889-2.572-489.406-.469-489.664 1.148-490.549 3.587-491.886 5.843-493.57 8.112-495.195 11.106-497.338 12.301-499.397 8.861-502.583 4.153-506.945 3.32-516.357-6.99-513.141-9.558-512.341-9.288-515.685-7.89-517.831-5.017-522.237-38.174-528.875-42.726-527.667-51.92-525.227-64.031-514.688-70.679-508.6-73.596-505.929-74.923-501.437-70.3-497.153-66.267-493.417-71.145-488.054-70.102-483.091-69.542-480.428-74.032-482.094-76.112-482.845-96.507-490.207-120.039-477.402-124.596-456.318-124.974-454.566-125.569-451.794-124.697-451.008-117.104-444.169-122.935-439.927-127.302-435.187-131.244-430.909-135.524-422.97-136.191-436.79-136.351-440.106-139.086-441.036-141.606-439.992-145.411-438.417-151.964-437.216-150.677-432.43-148.671-424.978-153.916-421.148-157.392-418.825-174.597-407.325-193.114-398.701-214.8-402.159-225.595-403.879-235.525-399.29-245.911-398.097-262.468-396.198-278.898-392.944-295.583-391.696-300.574-391.323-299.899-390.393-303.389-384.633-305.32-381.447-310.991-379.014-315.055-378.895-328.415-378.501-341.06-373.788-354.524-373.387-359.457-373.241-364.159-365.362-368.967-361.01-364.899-358.491-360.866-355.908-356.646-353.674-356.472-353.582-354.143-354.857-352.673-354.194-349.868-352.928-344.93-355.321-344.275-351.242-343.736-347.891-347.204-345.355-350.744-344.447-353.338-343.782-355.094-340.578-356.469-340.45-360.863-340.043-362.793-327.624-369.1-337.669-378.93-333.335-389.651-338.447-399.541-334.799-400.074-334.602-400.772-334.385-401.022-333.96-411.226-316.613-415.343-314.103-435.572-313.609-431.951-311.27-428.881-308.772-434.25-306.313-436.742-305.172-439.58-304.044-442.226-304.123-449.407-304.333-453.862-302.816-452.019-294.147-451.021-289.453-453.647-288.323-458.379-287.576-463.443-286.776-471.959-293.589-473.393-282.292-479.611-283.151-484.797-280.813-489.565-277.112"/>
</g>
</g>
</svg>
