<svg xmlns="http://www.w3.org/2000/svg" viewBox="0 0 155.260 118.916">
  <path d="M 100.838 98.365 L 100.788 98.264 L 100.742 98.162 L 100.700 98.059 L 100.661 97.955 L 100.626 97.850 L 100.594 97.744 L 100.539 97.530 L 100.497 97.312 L 100.465 97.091 L 100.445 96.780 L 100.438 96.479 L 100.443 96.186 L 100.459 95.898 L 100.484 95.616 L 100.518 95.336 L 100.560 95.056 L 100.609 94.776 L 100.664 94.493 L 100.723 94.206 L 101.306 91.417 L 101.409 90.759 L 101.488 90.081 L 101.537 89.384 L 101.548 88.669 L 101.515 87.935 L 101.431 87.184 L 101.288 86.415 L 101.081 85.628 L 100.803 84.824 L 100.445 84.004 L 100.002 83.167 L 99.799 82.821 L 99.591 82.480 L 99.380 82.143 L 99.164 81.811 L 98.945 81.485 L 98.723 81.163 L 98.497 80.846 L 98.267 80.535 L 98.035 80.228 L 97.800 79.927 L 97.562 79.632 L 97.321 79.342 L 97.607 79.578 L 97.899 79.813 L 98.198 80.045 L 98.502 80.275 L 98.813 80.503 L 99.130 80.728 L 99.453 80.950 L 99.782 81.169 L 100.116 81.385 L 100.456 81.598 L 100.802 81.808 L 101.154 82.015 L 101.908 82.417 L 102.653 82.752 L 103.390 83.022 L 104.122 83.231 L 104.850 83.385 L 105.576 83.485 L 106.300 83.537 L 107.026 83.544 L 107.754 83.510 L 108.485 83.439 L 109.223 83.335 L 111.050 82.973 L 111.895 82.780 L 112.345 82.681 L 112.807 82.590 L 113.276 82.511 L 113.747 82.452 L 114.216 82.418 L 114.678 82.416 L 115.129 82.452 L 115.563 82.532 L 115.977 82.663 L 116.557 82.927 L 117.198 82.822 L 117.270 82.767 L 117.533 82.313 L 117.547 82.135 L 117.146 81.478 L 116.962 81.350 L 116.788 81.211 L 116.624 81.062 L 116.470 80.904 L 116.325 80.737 L 116.187 80.561 L 116.014 80.302 L 115.858 80.044 L 115.715 79.788 L 115.585 79.531 L 115.466 79.274 L 115.356 79.015 L 115.252 78.752 L 115.155 78.486 L 114.968 77.935 L 114.080 75.229 L 113.839 74.607 L 113.569 73.980 L 113.262 73.353 L 112.914 72.727 L 112.519 72.109 L 112.070 71.500 L 111.562 70.905 L 110.989 70.327 L 110.346 69.770 L 109.626 69.239 L 108.823 68.735 L 108.472 68.535 L 108.120 68.342 L 107.768 68.156 L 107.416 67.976 L 107.065 67.803 L 106.714 67.636 L 106.364 67.476 L 106.014 67.322 L 105.665 67.174 L 105.318 67.033 L 104.971 66.898 L 104.626 66.769 L 104.989 66.830 L 105.357 66.886 L 105.729 66.937 L 106.105 66.983 L 106.485 67.024 L 106.868 67.060 L 107.256 67.091 L 107.647 67.116 L 108.042 67.135 L 108.440 67.150 L 108.841 67.158 L 109.245 67.161 L 110.276 67.120 L 111.237 67.002 L 112.134 66.814 L 112.973 66.562 L 113.760 66.252 L 114.500 65.892 L 115.200 65.488 L 115.865 65.048 L 116.500 64.576 L 117.113 64.081 L 117.708 63.569 L 118.291 63.047 L 119.127 62.278 L 119.589 61.868 L 119.823 61.668 L 120.058 61.475 L 120.292 61.294 L 120.522 61.127 L 120.746 60.978 L 121.756 60.469 L 121.917 60.417 L 122.077 60.376 L 122.232 60.345 L 122.380 60.322 L 122.519 60.305 L 122.941 60.271 L 123.002 60.263 L 123.041 60.251 L 123.543 59.840 L 123.579 59.231 L 123.502 59.070 L 122.827 58.702 L 122.714 58.694 L 122.603 58.683 L 122.492 58.668 L 122.383 58.649 L 122.167 58.602 L 122.060 58.574 L 121.849 58.508 L 121.641 58.430 L 121.538 58.387 L 121.259 58.249 L 120.994 58.104 L 120.743 57.953 L 120.502 57.796 L 120.269 57.633 L 120.044 57.463 L 119.823 57.287 L 119.604 57.105 L 119.387 56.916 L 117.046 54.824 L 116.527 54.405 L 115.979 53.998 L 115.400 53.607 L 114.785 53.239 L 114.133 52.901 L 113.440 52.598 L 112.703 52.336 L 111.917 52.122 L 111.082 51.962 L 110.192 51.861 L 109.245 51.826 L 108.843 51.829 L 108.444 51.838 L 108.048 51.852 L 107.655 51.871 L 107.266 51.896 L 106.881 51.926 L 106.499 51.962 L 106.121 52.002 L 105.747 52.048 L 105.377 52.098 L 105.011 52.154 L 104.649 52.214 L 104.992 52.085 L 105.337 51.951 L 105.683 51.809 L 106.030 51.662 L 106.377 51.508 L 106.726 51.348 L 107.075 51.181 L 107.424 51.008 L 107.774 50.829 L 108.124 50.643 L 108.474 50.451 L 108.823 50.252 L 109.695 49.701 L 110.468 49.119 L 111.151 48.507 L 111.751 47.870 L 112.278 47.208 L 112.739 46.527 L 113.143 45.828 L 113.499 45.114 L 113.813 44.388 L 114.096 43.653 L 114.356 42.912 L 114.599 42.168 L 114.858 41.339 L 114.998 40.900 L 115.149 40.454 L 115.315 40.008 L 115.498 39.570 L 115.703 39.146 L 115.931 38.745 L 116.187 38.372 L 116.474 38.036 L 116.794 37.743 L 117.315 37.372 L 117.544 36.765 L 117.532 36.675 L 117.270 36.220 L 117.124 36.119 L 116.355 36.137 L 116.253 36.187 L 116.151 36.233 L 116.048 36.275 L 115.944 36.314 L 115.839 36.349 L 115.733 36.381 L 115.411 36.458 L 115.302 36.478 L 115.082 36.509 L 114.771 36.529 L 114.470 36.536 L 114.177 36.531 L 113.889 36.516 L 113.606 36.490 L 113.326 36.456 L 113.046 36.414 L 112.765 36.365 L 112.482 36.310 L 109.407 35.668 L 108.748 35.565 L 108.069 35.486 L 107.372 35.437 L 106.657 35.426 L 105.923 35.459 L 105.172 35.544 L 104.402 35.686 L 103.616 35.893 L 102.812 36.172 L 101.991 36.530 L 101.154 36.973 L 100.803 37.179 L 100.457 37.389 L 100.116 37.604 L 99.779 37.822 L 99.448 38.045 L 99.122 38.271 L 98.801 38.500 L 98.486 38.733 L 98.176 38.969 L 97.871 39.208 L 97.572 39.450 L 97.279 39.695 L 97.524 39.401 L 97.766 39.102 L 98.005 38.798 L 98.241 38.488 L 98.474 38.172 L 98.703 37.852 L 98.929 37.526 L 99.152 37.194 L 99.370 36.858 L 99.585 36.517 L 99.796 36.171 L 100.002 35.820 L 100.437 34.999 L 100.788 34.192 L 101.064 33.401 L 101.269 32.624 L 101.412 31.864 L 101.498 31.119 L 101.534 30.391 L 101.526 29.680 L 101.481 28.985 L 101.405 28.309 L 101.306 27.651 L 101.189 27.011 L 100.696 24.734 L 100.613 24.311 L 100.538 23.898 L 100.476 23.504 L 100.429 23.137 L 100.401 22.805 L 100.395 22.518 L 100.401 22.350 L 100.410 22.184 L 100.422 22.020 L 100.440 21.857 L 100.463 21.696 L 100.492 21.537 L 100.528 21.379 L 100.571 21.223 L 100.623 21.068 L 100.684 20.915 L 100.755 20.763 L 100.914 20.420 L 100.809 19.779 L 100.754 19.708 L 100.300 19.445 L 100.122 19.430 L 99.465 19.831 L 99.402 19.925 L 99.337 20.015 L 99.268 20.104 L 99.198 20.189 L 99.125 20.272 L 98.809 20.580 L 98.549 20.789 L 98.290 20.962 L 98.033 21.118 L 97.776 21.261 L 97.519 21.391 L 97.261 21.511 L 97.001 21.621 L 96.738 21.725 L 96.471 21.823 L 96.199 21.917 L 93.217 22.897 L 92.594 23.137 L 91.967 23.408 L 91.339 23.714 L 90.714 24.062 L 90.095 24.457 L 89.485 24.906 L 88.890 25.414 L 88.312 25.987 L 87.755 26.630 L 87.223 27.350 L 86.719 28.153 L 86.519 28.505 L 86.326 28.857 L 86.140 29.208 L 85.960 29.560 L 85.787 29.911 L 85.620 30.262 L 85.459 30.613 L 85.305 30.962 L 85.158 31.311 L 85.017 31.658 L 84.882 32.005 L 84.753 32.350 L 84.814 31.987 L 84.870 31.619 L 84.921 31.247 L 84.967 30.871 L 85.008 30.492 L 85.044 30.108 L 85.074 29.720 L 85.099 29.329 L 85.119 28.934 L 85.133 28.536 L 85.142 28.135 L 85.145 27.731 L 85.104 26.701 L 84.986 25.740 L 84.797 24.843 L 84.545 24.004 L 84.236 23.218 L 83.876 22.477 Z M 81.765 75.066 L 79.665 75.496 L 77.476 75.644 L 75.287 75.496 L 73.186 75.066 L 71.194 74.373 L 69.329 73.436 L 67.611 72.274 L 66.059 70.908 L 64.692 69.356 L 63.531 67.638 L 62.593 65.774 L 61.900 63.782 L 61.470 61.682 L 61.322 59.494 L 61.470 57.305 L 61.900 55.205 L 62.593 53.213 L 63.531 51.349 L 64.692 49.631 L 66.059 48.079 L 67.611 46.713 L 69.329 45.551 L 71.194 44.614 L 73.186 43.921 L 75.287 43.491 L 77.476 43.343 L 79.665 43.491 L 81.765 43.921 L 83.758 44.614 L 85.623 45.551 L 87.341 46.713 L 88.893 48.079 L 90.259 49.631 L 91.421 51.349 L 92.358 53.213 L 93.051 55.205 L 93.482 57.305 L 93.630 59.494 L 93.482 61.682 L 93.051 63.782 L 92.358 65.774 L 91.421 67.638 L 90.259 69.356 L 88.893 70.908 L 87.341 72.274 L 85.623 73.436 L 83.758 74.373 Z M 37.854 36.148 L 37.753 36.165 L 37.682 36.221 L 37.418 36.675 L 37.404 36.852 L 37.805 37.508 L 37.899 37.571 L 38.078 37.705 L 38.246 37.849 L 38.327 37.925 L 38.481 38.083 L 38.696 38.336 L 38.764 38.425 L 38.936 38.684 L 39.093 38.941 L 39.235 39.198 L 39.366 39.455 L 39.485 39.712 L 39.596 39.972 L 39.699 40.235 L 39.797 40.502 L 39.891 40.775 L 40.872 43.757 L 41.112 44.379 L 41.383 45.006 L 41.689 45.634 L 42.037 46.259 L 42.433 46.878 L 42.881 47.487 L 43.389 48.082 L 43.962 48.660 L 44.606 49.216 L 45.326 49.748 L 46.128 50.252 L 46.478 50.451 L 46.828 50.643 L 47.178 50.829 L 47.528 51.008 L 47.877 51.181 L 48.226 51.348 L 48.574 51.508 L 48.922 51.662 L 49.269 51.809 L 49.614 51.951 L 49.959 52.085 L 50.302 52.214 L 49.941 52.154 L 49.575 52.098 L 49.205 52.048 L 48.830 52.002 L 48.452 51.962 L 48.071 51.926 L 47.685 51.896 L 47.296 51.871 L 46.904 51.852 L 46.508 51.838 L 46.109 51.829 L 45.707 51.826 L 44.676 51.867 L 43.716 51.985 L 42.819 52.174 L 41.979 52.426 L 41.192 52.735 L 40.451 53.095 L 39.751 53.499 L 39.086 53.940 L 38.450 54.411 L 37.838 54.906 L 37.243 55.418 L 36.660 55.941 L 36.018 56.533 L 35.678 56.843 L 35.325 57.153 L 34.960 57.455 L 34.584 57.742 L 34.197 58.005 L 33.799 58.237 L 33.391 58.431 L 32.974 58.579 L 32.548 58.673 L 31.911 58.736 L 31.409 59.147 L 31.373 59.756 L 31.450 59.917 L 32.125 60.286 L 32.237 60.293 L 32.349 60.304 L 32.459 60.319 L 32.569 60.338 L 32.785 60.385 L 32.892 60.413 L 33.103 60.479 L 33.414 60.599 L 33.691 60.737 L 33.955 60.881 L 34.207 61.032 L 34.448 61.190 L 34.681 61.354 L 34.907 61.524 L 35.129 61.701 L 35.348 61.883 L 35.566 62.072 L 35.786 62.267 L 37.907 64.165 L 38.426 64.583 L 38.974 64.991 L 39.553 65.381 L 40.168 65.749 L 40.819 66.087 L 41.513 66.390 L 42.250 66.651 L 43.035 66.865 L 43.870 67.026 L 44.760 67.126 L 45.707 67.161 L 46.111 67.158 L 46.512 67.150 L 46.911 67.135 L 47.305 67.116 L 47.696 67.090 L 48.084 67.060 L 48.468 67.024 L 48.848 66.983 L 49.224 66.937 L 49.596 66.886 L 49.964 66.830 L 50.327 66.769 L 49.982 66.897 L 49.635 67.033 L 49.287 67.174 L 48.938 67.321 L 48.589 67.475 L 48.238 67.636 L 47.887 67.803 L 47.536 67.976 L 47.184 68.156 L 46.832 68.342 L 46.480 68.535 L 46.128 68.735 L 45.257 69.285 L 44.483 69.868 L 43.801 70.479 L 43.200 71.117 L 42.674 71.779 L 42.212 72.460 L 41.808 73.160 L 41.453 73.874 L 41.138 74.600 L 40.855 75.334 L 40.596 76.075 L 40.352 76.819 L 39.953 78.091 L 39.802 78.536 L 39.637 78.980 L 39.455 79.416 L 39.251 79.838 L 39.023 80.238 L 38.767 80.610 L 38.480 80.947 L 38.159 81.241 L 37.800 81.487 L 37.638 81.614 L 37.408 82.222 L 37.681 82.767 L 37.827 82.868 L 38.596 82.850 L 38.800 82.755 L 38.903 82.712 L 39.112 82.638 L 39.218 82.606 L 39.540 82.529 L 39.759 82.492 L 39.869 82.478 L 40.182 82.458 L 40.484 82.451 L 40.777 82.456 L 41.064 82.471 L 41.347 82.497 L 41.626 82.531 L 41.905 82.573 L 42.184 82.621 L 42.467 82.676 L 44.917 83.202 L 45.304 83.277 L 45.692 83.346 L 46.082 83.407 L 46.477 83.460 L 46.877 83.503 L 47.285 83.535 L 47.702 83.555 L 48.128 83.562 L 48.565 83.554 L 49.009 83.529 L 49.460 83.486 L 49.917 83.422 L 50.380 83.337 L 50.850 83.229 L 51.326 83.097 L 51.808 82.938 L 52.296 82.752 L 52.791 82.538 L 53.291 82.292 L 53.797 82.015 L 54.149 81.808 L 54.495 81.598 L 54.836 81.385 L 55.170 81.169 L 55.499 80.950 L 55.822 80.727 L 56.139 80.502 L 56.449 80.275 L 56.754 80.045 L 57.053 79.812 L 57.345 79.578 L 57.631 79.341 L 57.390 79.631 L 57.152 79.927 L 56.917 80.228 L 56.684 80.534 L 56.455 80.846 L 56.229 81.162 L 56.007 81.484 L 55.788 81.811 L 55.572 82.143 L 55.361 82.480 L 55.153 82.821 L 54.950 83.167 L 54.515 83.988 L 54.163 84.795 L 53.888 85.587 L 53.682 86.364 L 53.539 87.124 L 53.454 87.869 L 53.418 88.598 L 53.426 89.309 L 53.471 90.004 L 53.547 90.680 L 53.646 91.339 L 53.763 91.979 L 54.168 93.831 L 54.256 94.255 L 54.340 94.677 L 54.414 95.090 L 54.476 95.484 L 54.523 95.851 L 54.551 96.182 L 54.557 96.470 L 54.543 96.804 L 54.530 96.968 L 54.513 97.131 L 54.490 97.291 L 54.461 97.450 L 54.425 97.608 L 54.381 97.764 L 54.329 97.918 L 54.268 98.072 L 54.196 98.223 L 54.037 98.568 L 54.143 99.207 L 54.198 99.279 L 54.654 99.539 L 54.830 99.553 L 55.486 99.156 L 55.549 99.063 L 55.615 98.972 L 55.683 98.884 L 55.754 98.798 L 55.827 98.715 L 55.980 98.556 L 56.227 98.335 L 56.402 98.198 L 56.662 98.025 L 56.919 97.868 L 57.176 97.726 L 57.433 97.596 L 57.690 97.476 L 57.950 97.366 L 58.213 97.262 L 58.481 97.165 L 58.753 97.070 L 61.736 96.090 L 62.358 95.849 L 62.985 95.579 L 63.614 95.273 L 64.239 94.925 L 64.858 94.529 L 65.467 94.080 L 66.062 93.573 L 66.640 93.000 L 67.197 92.357 L 67.729 91.637 L 68.233 90.834 L 68.431 90.485 L 68.623 90.135 L 68.808 89.784 L 68.988 89.432 L 69.162 89.079 L 69.329 88.725 L 69.490 88.371 L 69.645 88.017 L 69.795 87.663 L 69.938 87.308 L 70.075 86.954 L 70.206 86.601 L 70.144 86.967 L 70.087 87.337 L 70.035 87.712 L 69.988 88.091 L 69.946 88.474 L 69.910 88.860 L 69.879 89.251 L 69.853 89.645 L 69.833 90.043 L 69.819 90.444 L 69.810 90.849 L 69.807 91.257 L 69.848 92.287 L 69.966 93.247 L 70.155 94.144 L 70.407 94.983 L 70.717 95.770 L 71.077 96.510 L 71.481 97.210 L 71.921 97.875 L 72.393 98.511 L 72.888 99.123 L 73.400 99.718 L 73.923 100.301 L 74.513 100.941 L 74.823 101.281 L 75.134 101.634 L 75.436 101.999 L 75.723 102.376 L 75.987 102.764 L 76.219 103.161 L 76.414 103.569 L 76.562 103.985 L 76.656 104.410 L 76.718 105.048 L 77.130 105.551 L 77.411 105.585 Z M 63.283 76.499 L 63.504 76.379 L 63.722 76.267 L 63.939 76.164 L 64.153 76.067 L 64.366 75.979 L 64.576 75.899 L 64.784 75.826 L 64.989 75.762 L 65.192 75.705 L 66.038 76.315 L 56.079 87.075 L 64.975 79.591 L 58.747 91.925 L 66.434 80.143 L 64.511 91.923 L 68.654 77.830 L 69.569 78.244 L 69.754 79.139 L 69.840 80.082 L 69.833 81.062 L 69.741 82.071 L 69.572 83.098 L 69.334 84.136 L 69.033 85.174 L 68.679 86.204 L 68.277 87.215 L 67.837 88.199 L 67.365 89.146 L 66.869 90.047 L 66.112 91.192 L 65.296 92.136 L 64.431 92.907 L 63.528 93.530 L 62.596 94.034 L 61.646 94.445 L 60.689 94.791 L 59.733 95.098 L 58.790 95.393 L 57.869 95.704 L 56.982 96.057 L 56.137 96.480 L 56.079 95.560 L 55.940 94.627 L 55.749 93.677 L 55.533 92.708 L 55.321 91.718 L 55.141 90.703 L 55.021 89.662 L 54.990 88.590 L 55.075 87.487 L 55.305 86.348 L 55.709 85.171 L 56.314 83.954 L 56.762 83.206 L 57.229 82.482 L 57.714 81.783 L 58.214 81.111 L 58.729 80.468 L 59.256 79.855 L 59.795 79.274 L 60.345 78.727 L 60.903 78.215 L 61.468 77.739 L 62.038 77.302 L 62.614 76.905 L 62.838 76.762 L 63.062 76.626 Z M 69.569 40.743 L 68.622 41.174 L 64.283 27.177 L 66.318 38.621 L 58.747 27.062 L 65.110 39.608 L 55.868 32.054 L 66.008 42.693 L 65.200 43.276 L 64.331 42.990 L 63.472 42.594 L 62.625 42.097 L 61.796 41.513 L 60.988 40.852 L 60.207 40.126 L 59.457 39.345 L 58.741 38.523 L 58.064 37.668 L 57.431 36.794 L 56.846 35.912 L 56.314 35.032 L 55.700 33.804 L 55.291 32.625 L 55.056 31.491 L 54.967 30.396 L 54.997 29.337 L 55.116 28.309 L 55.295 27.307 L 55.507 26.326 L 55.723 25.362 L 55.914 24.410 L 56.051 23.466 L 56.107 22.524 L 56.934 22.934 L 57.813 23.281 L 58.732 23.591 L 59.679 23.888 L 60.643 24.200 L 61.612 24.551 L 62.573 24.968 L 63.517 25.476 L 64.429 26.102 L 65.300 26.870 L 66.117 27.808 L 66.869 28.940 L 67.365 29.841 L 67.837 30.788 L 68.277 31.772 L 68.678 32.784 L 69.033 33.813 L 69.333 34.851 L 69.572 35.889 L 69.741 36.916 L 69.833 37.925 L 69.840 38.905 L 69.754 39.848 Z M 98.872 31.912 L 89.977 39.396 L 96.204 27.062 L 88.517 38.844 L 90.440 27.064 L 86.298 41.157 L 85.369 40.738 L 85.214 39.995 L 85.131 39.185 L 85.117 38.315 L 85.174 37.392 L 85.300 36.424 L 85.495 35.416 L 85.758 34.376 L 86.089 33.311 L 86.488 32.228 L 86.953 31.134 L 87.485 30.035 L 88.083 28.940 L 88.596 28.131 L 89.139 27.421 L 89.710 26.799 L 90.304 26.259 L 90.919 25.790 L 91.552 25.385 L 92.200 25.033 L 92.859 24.727 L 93.526 24.458 L 94.200 24.216 L 94.875 23.993 L 96.697 23.411 L 96.977 23.314 L 97.253 23.214 L 97.526 23.111 L 97.794 23.002 L 98.057 22.888 L 98.315 22.768 L 98.568 22.641 L 98.815 22.506 L 98.872 23.426 L 99.011 24.359 L 99.203 25.308 L 99.418 26.277 L 99.631 27.267 L 99.811 28.282 L 99.931 29.324 L 99.962 30.396 L 99.877 31.500 L 99.647 32.639 L 99.243 33.815 L 98.638 35.032 L 98.105 35.913 L 97.520 36.796 L 96.887 37.670 L 96.211 38.524 L 95.495 39.347 L 94.745 40.127 L 93.964 40.853 L 93.157 41.513 L 92.327 42.097 L 91.481 42.593 L 90.621 42.990 L 89.751 43.276 L 88.914 42.672 Z M 57.288 62.045 L 56.722 62.549 L 56.061 63.026 L 55.313 63.471 L 54.485 63.883 L 53.582 64.258 L 52.611 64.592 L 51.577 64.883 L 50.489 65.128 L 49.351 65.324 L 48.171 65.468 L 46.954 65.557 L 45.707 65.587 L 44.336 65.504 L 43.110 65.269 L 42.010 64.905 L 41.018 64.434 L 40.115 63.879 L 39.284 63.262 L 38.506 62.606 L 37.763 61.932 L 37.035 61.263 L 36.306 60.622 L 35.556 60.030 L 34.768 59.511 L 35.537 59.000 L 36.277 58.413 L 37.004 57.772 L 37.736 57.100 L 38.488 56.421 L 39.276 55.758 L 40.118 55.134 L 41.030 54.572 L 42.029 54.094 L 43.130 53.724 L 44.350 53.485 L 45.707 53.401 L 46.954 53.431 L 48.171 53.519 L 49.351 53.663 L 50.489 53.859 L 51.577 54.104 L 52.611 54.395 L 53.582 54.730 L 54.485 55.104 L 55.313 55.516 L 56.061 55.961 L 56.722 56.438 L 57.288 56.943 L 57.184 58.001 L 42.886 54.758 L 53.817 58.719 L 40.019 59.494 L 54.068 60.258 L 42.903 64.483 L 57.186 61.023 Z M 83.451 30.194 L 83.308 31.375 L 83.112 32.512 L 82.867 33.601 L 82.575 34.633 L 82.241 35.604 L 81.866 36.507 L 81.454 37.336 L 81.009 38.083 L 80.532 38.743 L 80.027 39.310 L 78.969 39.205 L 82.212 24.911 L 78.251 35.840 L 77.476 22.045 L 76.711 36.091 L 72.485 24.928 L 75.947 39.208 L 74.924 39.310 L 74.420 38.743 L 73.943 38.083 L 73.497 37.336 L 73.086 36.507 L 72.711 35.604 L 72.377 34.633 L 72.085 33.601 L 71.840 32.512 L 71.644 31.375 L 71.501 30.194 L 71.412 28.978 L 71.382 27.731 L 71.465 26.360 L 71.700 25.135 L 72.064 24.035 L 72.534 23.043 L 73.090 22.141 L 73.707 21.310 L 74.363 20.532 L 75.037 19.788 L 75.706 19.061 L 76.348 18.332 L 76.939 17.583 L 77.458 16.794 L 77.969 17.563 L 78.556 18.302 L 79.197 19.029 L 79.868 19.760 L 80.547 20.511 L 81.210 21.300 L 81.835 22.142 L 82.398 23.054 L 82.876 24.052 L 83.246 25.153 L 83.485 26.374 L 83.570 27.731 L 83.540 28.978 Z M 97.768 60.987 L 112.066 64.229 L 101.135 60.268 L 114.933 59.494 L 100.883 58.729 L 112.048 54.504 L 97.765 57.964 L 97.663 56.943 L 98.230 56.438 L 98.890 55.961 L 99.638 55.516 L 100.467 55.104 L 101.370 54.730 L 102.341 54.395 L 103.374 54.104 L 104.463 53.859 L 105.601 53.663 L 106.781 53.519 L 107.998 53.431 L 109.245 53.401 L 110.616 53.484 L 111.842 53.718 L 112.941 54.082 L 113.933 54.553 L 114.835 55.107 L 115.666 55.724 L 116.444 56.381 L 117.188 57.054 L 117.915 57.723 L 118.645 58.365 L 119.395 58.956 L 120.184 59.476 L 119.416 59.986 L 118.676 60.573 L 117.949 61.214 L 117.218 61.886 L 116.466 62.564 L 115.677 63.228 L 114.835 63.852 L 113.923 64.415 L 112.924 64.893 L 111.823 65.263 L 110.602 65.502 L 109.245 65.587 L 107.998 65.557 L 106.781 65.468 L 105.601 65.324 L 104.463 65.128 L 103.374 64.883 L 102.341 64.592 L 101.370 64.258 L 100.467 63.883 L 99.638 63.471 L 98.890 63.026 L 98.230 62.549 L 97.663 62.045 Z M 72.739 94.076 L 76.700 83.148 L 77.476 96.943 L 78.241 82.896 L 82.466 94.058 L 79.005 79.779 L 80.027 79.677 L 80.532 80.243 L 81.009 80.904 L 81.454 81.651 L 81.866 82.480 L 82.241 83.382 L 82.575 84.354 L 82.867 85.386 L 83.112 86.475 L 83.308 87.612 L 83.451 88.793 L 83.540 90.010 L 83.570 91.257 L 83.487 92.627 L 83.252 93.853 L 82.888 94.952 L 82.418 95.944 L 81.863 96.846 L 81.246 97.677 L 80.589 98.455 L 79.915 99.198 L 79.246 99.925 L 78.604 100.654 L 78.013 101.404 L 77.493 102.192 L 76.983 101.424 L 76.395 100.685 L 75.755 99.957 L 75.083 99.226 L 74.404 98.475 L 73.741 97.686 L 73.116 96.845 L 72.554 95.933 L 72.076 94.934 L 71.706 93.833 L 71.467 92.613 L 71.382 91.257 L 71.412 90.010 L 71.501 88.793 L 71.644 87.613 L 71.840 86.475 L 72.085 85.387 L 72.377 84.354 L 72.711 83.383 L 73.086 82.480 L 73.497 81.651 L 73.943 80.904 L 74.420 80.243 L 74.924 79.677 L 75.982 79.782 Z M 86.330 77.813 L 90.669 91.810 L 88.634 80.366 L 96.204 91.925 L 89.842 79.379 L 99.084 86.933 L 88.943 76.294 L 89.751 75.712 L 90.621 75.998 L 91.481 76.394 L 92.328 76.890 L 93.157 77.474 L 93.964 78.134 L 94.745 78.860 L 95.496 79.640 L 96.211 80.462 L 96.887 81.317 L 97.520 82.191 L 98.105 83.074 L 98.638 83.954 L 99.251 85.183 L 99.661 86.361 L 99.896 87.496 L 99.984 88.590 L 99.955 89.649 L 99.836 90.677 L 99.656 91.679 L 99.444 92.660 L 99.229 93.624 L 99.038 94.576 L 98.900 95.521 L 98.845 96.463 L 98.019 96.053 L 97.141 95.706 L 96.223 95.397 L 95.276 95.100 L 94.312 94.788 L 93.343 94.437 L 92.381 94.020 L 91.437 93.512 L 90.524 92.886 L 89.652 92.118 L 88.835 91.180 L 88.083 90.047 L 87.485 88.952 L 86.953 87.853 L 86.488 86.759 L 86.089 85.676 L 85.758 84.611 L 85.495 83.571 L 85.300 82.563 L 85.174 81.595 L 85.117 80.672 L 85.131 79.802 L 85.214 78.992 L 85.369 78.249 Z M 60.651 48.058 L 49.888 38.102 L 57.374 46.995 L 45.037 40.769 L 56.822 48.454 L 45.040 46.532 L 59.136 50.674 L 58.716 51.602 L 57.973 51.756 L 57.163 51.840 L 56.293 51.853 L 55.370 51.797 L 54.401 51.671 L 53.393 51.476 L 52.353 51.213 L 51.288 50.882 L 50.205 50.483 L 49.110 50.018 L 48.012 49.486 L 46.916 48.889 L 45.770 48.132 L 44.826 47.316 L 44.056 46.451 L 43.432 45.548 L 42.928 44.616 L 42.517 43.667 L 42.171 42.709 L 41.864 41.754 L 41.569 40.811 L 41.258 39.891 L 40.904 39.004 L 40.481 38.159 L 41.402 38.101 L 42.336 37.963 L 43.287 37.771 L 44.256 37.555 L 45.246 37.343 L 46.261 37.163 L 47.302 37.043 L 48.374 37.012 L 49.477 37.097 L 50.616 37.327 L 51.793 37.731 L 53.010 38.336 L 53.891 38.869 L 54.775 39.454 L 55.649 40.087 L 56.503 40.763 L 57.326 41.478 L 58.105 42.228 L 58.831 43.008 L 59.491 43.815 L 60.075 44.644 L 60.571 45.491 L 60.968 46.351 L 61.255 47.220 Z M 101.559 51.476 L 100.551 51.671 L 99.582 51.797 L 98.659 51.854 L 97.789 51.840 L 96.979 51.757 L 96.236 51.602 L 95.800 50.641 L 109.800 46.303 L 98.353 48.337 L 109.915 40.769 L 97.365 47.130 L 104.921 37.890 L 94.280 48.029 L 93.697 47.220 L 93.983 46.351 L 94.380 45.491 L 94.876 44.644 L 95.460 43.815 L 96.120 43.008 L 96.846 42.228 L 97.626 41.478 L 98.449 40.762 L 99.303 40.086 L 100.178 39.453 L 101.061 38.869 L 101.942 38.336 L 103.168 37.724 L 104.346 37.315 L 105.479 37.080 L 106.572 36.992 L 107.631 37.021 L 108.659 37.139 L 109.662 37.319 L 110.643 37.530 L 111.609 37.745 L 112.562 37.936 L 113.509 38.073 L 114.453 38.129 L 114.043 38.954 L 113.696 39.832 L 113.387 40.749 L 113.090 41.696 L 112.779 42.660 L 112.427 43.629 L 112.010 44.591 L 111.502 45.535 L 110.876 46.448 L 110.107 47.320 L 109.169 48.137 L 108.036 48.889 L 106.940 49.486 L 105.841 50.018 L 104.747 50.483 L 103.664 50.882 L 102.599 51.213 Z M 105.063 80.886 L 97.577 71.991 L 109.915 78.218 L 98.130 70.533 L 109.912 72.455 L 95.816 68.313 L 96.235 67.385 L 96.978 67.231 L 97.788 67.147 L 98.658 67.134 L 99.581 67.190 L 100.550 67.316 L 101.558 67.511 L 102.599 67.774 L 103.664 68.105 L 104.747 68.504 L 105.841 68.969 L 106.940 69.501 L 108.036 70.098 L 109.181 70.856 L 110.126 71.672 L 110.896 72.536 L 111.520 73.440 L 112.024 74.371 L 112.435 75.321 L 112.781 76.279 L 113.088 77.234 L 113.383 78.177 L 113.694 79.097 L 114.048 79.984 L 114.471 80.828 L 113.550 80.886 L 112.615 81.025 L 111.665 81.216 L 110.696 81.432 L 109.706 81.644 L 108.691 81.824 L 107.649 81.944 L 106.578 81.975 L 105.475 81.890 L 104.336 81.660 L 103.159 81.256 L 101.942 80.652 L 100.876 80.001 L 99.865 79.316 L 98.914 78.600 L 98.026 77.861 L 97.206 77.104 L 96.456 76.335 L 95.782 75.559 L 95.187 74.783 L 94.676 74.011 L 94.252 73.251 L 93.919 72.508 L 93.681 71.787 L 94.301 70.929 L 103.382 79.330 Z M 59.152 68.346 L 46.189 72.362 L 45.152 72.684 L 56.599 70.649 L 45.037 78.218 L 57.587 71.857 L 50.030 81.097 L 60.671 70.958 L 61.271 71.787 L 61.033 72.507 L 60.700 73.251 L 60.275 74.011 L 59.764 74.782 L 59.169 75.559 L 58.495 76.335 L 57.746 77.104 L 56.925 77.861 L 56.037 78.600 L 55.086 79.316 L 54.076 80.001 L 53.010 80.652 L 51.782 81.264 L 50.603 81.674 L 49.468 81.908 L 48.374 81.997 L 47.314 81.967 L 46.285 81.849 L 45.283 81.669 L 44.301 81.457 L 43.337 81.242 L 42.385 81.051 L 41.440 80.914 L 40.498 80.858 L 40.909 80.032 L 41.255 79.154 L 41.565 78.236 L 41.862 77.289 L 42.174 76.326 L 42.525 75.357 L 42.942 74.395 L 43.450 73.452 L 44.076 72.539 L 44.845 71.668 L 45.783 70.850 L 46.916 70.098 L 48.012 69.501 L 49.110 68.969 L 50.205 68.504 L 51.288 68.105 L 52.353 67.774 L 53.393 67.511 L 54.401 67.316 L 55.370 67.190 L 56.293 67.133 L 57.163 67.147 L 57.973 67.230 L 58.716 67.385 Z M 100.299 99.540 L 100.209 99.551 L 99.603 99.330 L 99.231 98.804 L 98.938 98.483 L 98.602 98.197 L 98.229 97.941 L 97.827 97.712 L 97.404 97.508 L 96.966 97.324 L 96.520 97.159 L 96.074 97.008 L 95.635 96.868 L 94.805 96.609 L 94.061 96.366 L 93.320 96.107 L 92.585 95.824 L 91.859 95.509 L 91.145 95.154 L 90.445 94.749 L 89.763 94.288 L 89.102 93.761 L 88.464 93.161 L 87.852 92.479 L 87.269 91.706 L 86.719 90.834 L 86.519 90.483 L 86.326 90.131 L 86.140 89.779 L 85.960 89.427 L 85.787 89.076 L 85.620 88.725 L 85.459 88.375 L 85.305 88.025 L 85.158 87.676 L 85.017 87.329 L 84.882 86.982 L 84.753 86.637 L 84.814 87.000 L 84.870 87.368 L 84.921 87.740 L 84.967 88.116 L 85.008 88.496 L 85.044 88.879 L 85.074 89.267 L 85.099 89.658 L 85.119 90.053 L 85.133 90.451 L 85.142 90.852 L 85.145 91.257 L 85.110 92.203 L 85.009 93.092 L 84.849 93.928 L 84.635 94.712 L 84.373 95.450 L 84.070 96.143 L 83.732 96.795 L 83.364 97.409 L 82.974 97.988 L 82.566 98.535 L 82.147 99.055 L 80.054 101.395 L 79.865 101.613 L 79.683 101.831 L 79.507 102.052 L 79.337 102.278 L 79.173 102.511 L 79.016 102.752 L 78.865 103.003 L 78.720 103.267 L 78.582 103.546 L 78.539 103.649 L 78.462 103.857 L 78.396 104.068 L 78.342 104.282 L 78.320 104.391 L 78.302 104.500 L 78.287 104.610 L 78.268 104.834 L 77.899 105.510 L 77.738 105.586 L 77.476 105.586 Z M 83.876 22.477 L 83.472 21.778 L 83.031 21.113 L 82.560 20.477 L 82.065 19.865 L 81.553 19.270 L 81.030 18.687 L 80.439 18.047 L 80.129 17.707 L 79.819 17.354 L 79.516 16.988 L 79.229 16.611 L 78.965 16.223 L 78.732 15.825 L 78.538 15.418 L 78.390 15.001 L 78.296 14.576 L 78.233 13.939 L 77.822 13.436 L 77.213 13.395 L 77.051 13.470 L 76.684 14.152 L 76.676 14.265 L 76.665 14.376 L 76.650 14.487 L 76.631 14.596 L 76.584 14.812 L 76.490 15.129 L 76.369 15.440 L 76.255 15.674 L 76.136 15.897 L 76.012 16.111 L 75.884 16.317 L 75.751 16.517 L 75.613 16.712 L 75.470 16.903 L 75.321 17.092 L 75.167 17.280 L 75.006 17.468 L 72.804 19.932 L 72.386 20.452 L 71.978 20.999 L 71.587 21.578 L 71.220 22.192 L 70.882 22.844 L 70.579 23.537 L 70.317 24.275 L 70.103 25.059 L 69.943 25.895 L 69.842 26.784 L 69.807 27.731 L 69.810 28.139 L 69.819 28.543 L 69.833 28.944 L 69.853 29.342 L 69.879 29.736 L 69.910 30.127 L 69.946 30.514 L 69.988 30.897 L 70.035 31.275 L 70.087 31.650 L 70.144 32.020 L 70.206 32.386 L 70.075 32.033 L 69.938 31.679 L 69.795 31.325 L 69.645 30.971 L 69.490 30.616 L 69.329 30.262 L 69.162 29.909 L 68.988 29.556 L 68.808 29.203 L 68.623 28.852 L 68.431 28.502 L 68.233 28.153 L 67.739 27.366 L 67.216 26.658 L 66.668 26.024 L 66.098 25.457 L 65.510 24.953 L 64.908 24.506 L 64.295 24.111 L 63.675 23.763 L 63.051 23.454 L 62.427 23.182 L 61.807 22.939 L 61.194 22.720 L 58.848 21.965 L 58.272 21.765 L 57.998 21.664 L 57.736 21.564 L 57.606 21.511 L 57.355 21.398 L 57.115 21.276 L 56.768 21.075 L 56.319 20.773 L 56.182 20.666 L 56.056 20.552 L 55.941 20.435 L 55.836 20.316 L 55.741 20.200 L 55.657 20.087 L 55.379 19.690 L 55.350 19.663 L 54.653 19.446 L 54.197 19.707 L 54.096 19.853 L 54.114 20.623 L 54.164 20.724 L 54.210 20.826 L 54.291 21.034 L 54.326 21.138 L 54.358 21.244 L 54.387 21.351 L 54.435 21.566 L 54.455 21.675 L 54.472 21.785 L 54.486 21.896 L 54.506 22.207 L 54.513 22.508 L 54.509 22.801 L 54.493 23.088 L 54.468 23.371 L 54.433 23.651 L 54.391 23.931 L 54.343 24.211 L 54.288 24.493 L 53.645 27.570 L 53.542 28.229 L 53.463 28.907 L 53.415 29.604 L 53.404 30.319 L 53.437 31.052 L 53.521 31.804 L 53.663 32.573 L 53.871 33.359 L 54.149 34.163 L 54.507 34.983 L 54.950 35.820 L 55.156 36.171 L 55.367 36.517 L 55.582 36.859 L 55.800 37.195 L 56.023 37.526 L 56.249 37.852 L 56.478 38.173 L 56.711 38.488 L 56.948 38.798 L 57.187 39.103 L 57.429 39.402 L 57.674 39.695 L 57.380 39.451 L 57.081 39.209 L 56.776 38.970 L 56.466 38.734 L 56.151 38.501 L 55.830 38.271 L 55.504 38.045 L 55.172 37.823 L 54.836 37.604 L 54.495 37.389 L 54.148 37.179 L 53.797 36.973 L 52.976 36.538 L 52.169 36.186 L 51.377 35.911 L 50.600 35.705 L 49.840 35.563 L 49.095 35.477 L 48.366 35.441 L 47.655 35.449 L 46.960 35.494 L 46.284 35.569 L 45.625 35.669 L 44.985 35.786 L 42.703 36.279 L 42.279 36.362 L 41.867 36.436 L 41.473 36.499 L 41.107 36.545 L 40.777 36.573 L 40.492 36.579 L 40.157 36.565 L 39.993 36.552 L 39.830 36.535 L 39.670 36.512 L 39.511 36.483 L 39.354 36.447 L 39.199 36.403 L 39.044 36.351 L 38.891 36.290 L 38.738 36.219 L 38.394 36.059 L 37.854 36.148 Z M 94.467 42.556 L 94.248 42.834 L 94.036 43.114 L 93.832 43.395 L 93.637 43.679 L 93.449 43.966 L 93.270 44.256 L 93.099 44.551 L 92.937 44.851 L 92.784 45.156 L 92.639 45.468 L 92.504 45.786 L 92.073 45.302 L 91.775 44.929 L 91.605 44.645 L 91.554 44.426 L 91.618 44.250 L 91.788 44.094 L 92.059 43.934 L 92.424 43.748 L 92.877 43.512 L 93.411 43.204 L 94.019 42.800 L 94.694 42.278 Z M 62.236 43.702 L 62.530 43.872 L 62.830 44.033 L 63.136 44.186 L 63.448 44.330 L 63.768 44.466 L 62.447 45.786 L 62.312 45.468 L 62.168 45.157 L 62.015 44.852 L 61.853 44.552 L 61.682 44.257 L 61.503 43.966 L 61.315 43.679 L 61.119 43.395 L 60.915 43.113 L 60.703 42.834 L 60.484 42.555 L 60.257 42.278 L 60.536 42.506 L 60.815 42.726 L 61.094 42.938 L 61.376 43.142 L 61.659 43.337 L 61.946 43.524 Z M 71.186 36.051 L 71.319 36.397 L 71.457 36.734 L 71.601 37.064 L 71.749 37.385 L 71.903 37.697 L 72.062 38.000 L 72.225 38.294 L 72.393 38.579 L 72.566 38.854 L 72.743 39.120 L 72.925 39.375 L 73.111 39.621 L 71.316 40.100 L 71.339 39.925 L 71.359 39.747 L 71.376 39.566 L 71.390 39.383 L 71.410 39.010 L 71.415 38.820 L 71.417 38.432 L 71.407 38.035 Z M 63.766 74.519 L 63.453 74.652 L 63.146 74.793 L 62.846 74.943 L 62.551 75.102 L 62.261 75.269 L 61.976 75.444 L 61.694 75.627 L 61.414 75.818 L 61.137 76.018 L 60.862 76.225 L 60.588 76.440 L 60.314 76.662 L 60.547 76.373 L 60.771 76.084 L 60.985 75.794 L 61.189 75.504 L 61.383 75.214 L 61.567 74.925 L 61.740 74.635 L 61.903 74.346 L 62.055 74.058 L 62.197 73.771 L 62.328 73.486 L 62.447 73.201 Z M 92.504 73.201 L 92.624 73.486 L 92.755 73.771 L 92.896 74.058 L 93.048 74.346 L 93.211 74.635 L 93.385 74.924 L 93.568 75.214 L 93.762 75.504 L 93.966 75.794 L 94.180 76.084 L 94.404 76.373 L 94.637 76.662 L 94.363 76.439 L 94.089 76.224 L 93.814 76.017 L 93.537 75.818 L 93.258 75.627 L 92.976 75.443 L 92.690 75.268 L 92.401 75.102 L 92.106 74.943 L 91.806 74.793 L 91.499 74.652 L 91.186 74.519 Z M 71.316 78.887 L 71.358 79.225 L 71.388 79.560 L 71.408 79.894 L 71.418 80.227 L 71.418 80.560 L 71.409 80.894 L 71.392 81.228 L 71.366 81.564 L 71.332 81.902 L 71.290 82.243 L 71.241 82.588 L 71.186 82.936 L 71.319 82.590 L 71.457 82.252 L 71.601 81.923 L 71.749 81.602 L 71.903 81.290 L 72.062 80.987 L 72.225 80.693 L 72.393 80.408 L 72.566 80.133 L 72.743 79.867 L 72.925 79.612 L 73.111 79.366 Z M 83.576 81.472 L 83.607 81.820 L 83.646 82.172 L 83.693 82.529 L 83.749 82.890 L 83.617 82.549 L 83.479 82.216 L 83.337 81.891 L 83.189 81.575 L 83.037 81.267 L 82.879 80.968 L 82.717 80.677 L 82.551 80.396 L 82.380 80.124 L 82.204 79.862 L 82.024 79.609 L 81.840 79.366 L 83.636 78.887 L 83.598 79.189 L 83.569 79.497 L 83.549 79.812 L 83.537 80.133 L 83.534 80.460 L 83.539 80.792 L 83.553 81.130 Z M 83.607 37.167 L 83.576 37.515 L 83.553 37.857 L 83.539 38.195 L 83.534 38.527 L 83.537 38.854 L 83.549 39.175 L 83.569 39.490 L 83.598 39.798 L 83.636 40.100 L 81.840 39.621 L 82.024 39.378 L 82.204 39.125 L 82.380 38.863 L 82.551 38.591 L 82.717 38.310 L 82.879 38.019 L 83.037 37.720 L 83.189 37.412 L 83.337 37.096 L 83.479 36.771 L 83.617 36.438 L 83.749 36.097 L 83.693 36.458 L 83.646 36.815 Z M 54.415 65.633 L 54.749 65.495 L 55.073 65.353 L 55.390 65.205 L 55.698 65.053 L 55.997 64.896 L 56.288 64.734 L 56.569 64.568 L 56.841 64.397 L 57.103 64.221 L 57.356 64.041 L 57.599 63.857 L 58.078 65.652 L 57.776 65.615 L 57.467 65.585 L 57.153 65.565 L 56.832 65.553 L 56.505 65.550 L 56.173 65.556 L 55.835 65.569 L 55.492 65.592 L 55.145 65.623 L 54.792 65.662 L 54.436 65.709 L 54.074 65.765 Z M 97.484 65.585 L 97.176 65.615 L 96.874 65.652 L 97.353 63.857 L 97.596 64.041 L 97.848 64.221 L 98.111 64.396 L 98.382 64.567 L 98.663 64.734 L 98.954 64.895 L 99.253 65.053 L 99.561 65.205 L 99.877 65.352 L 100.202 65.495 L 100.535 65.632 L 100.876 65.765 L 100.515 65.709 L 100.158 65.662 L 99.806 65.622 L 99.459 65.592 L 99.116 65.569 L 98.778 65.556 L 98.446 65.550 L 98.120 65.553 L 97.799 65.565 Z M 56.846 54.594 L 56.576 54.424 L 56.297 54.259 L 56.009 54.098 L 55.712 53.941 L 55.406 53.790 L 55.092 53.643 L 54.770 53.501 L 54.440 53.364 L 54.102 53.232 L 54.447 53.286 L 54.787 53.331 L 55.123 53.370 L 55.456 53.400 L 55.786 53.422 L 56.114 53.436 L 56.441 53.441 L 56.767 53.437 L 57.094 53.424 L 57.421 53.401 L 57.750 53.369 L 58.081 53.327 L 57.599 55.130 L 57.358 54.947 L 57.107 54.769 Z M 97.007 53.771 L 96.871 53.327 L 97.202 53.369 L 97.531 53.401 L 97.858 53.424 L 98.185 53.437 L 98.511 53.441 L 98.838 53.436 L 99.166 53.422 L 99.496 53.400 L 99.829 53.370 L 100.165 53.331 L 100.505 53.286 L 100.850 53.232 L 100.512 53.364 L 100.182 53.501 L 99.860 53.643 L 99.546 53.789 L 99.240 53.941 L 98.943 54.097 L 98.655 54.259 L 98.376 54.424 L 98.106 54.594 L 97.845 54.769 L 97.594 54.947 L 97.353 55.130 Z M 62.292 80.363 L 61.058 81.695 L 56.079 87.075 Z M 99.682 75.907 L 101.015 77.141 L 103.382 79.330 Z M 89.991 89.623 L 90.348 90.773 L 89.544 88.181 Z M 87.962 83.078 L 88.499 84.812 L 87.455 81.442 Z M 104.266 80.148 L 104.851 80.690 L 105.063 80.886 Z" fill="#111111" fill-rule="evenodd"/>
</svg>
